<?xml version="1.0" encoding="utf-8"?>
<!-- Generator: Adobe Illustrator 19.2.1, SVG Export Plug-In . SVG Version: 6.00 Build 0)  -->
<svg version="1.1" xmlns="http://www.w3.org/2000/svg" xmlns:xlink="http://www.w3.org/1999/xlink" x="0px" y="0px" width="24px"
	 height="24px" viewBox="0 0 24 24" enable-background="new 0 0 24 24" xml:space="preserve">
<g id="Filled_Icons_1_">
	<g>
		<path d="M19,0.512l-4.5,1L8.928,12.893c-0.282,0.577-0.267,1.063,0.168,1.404c0.434,0.342,1.063,0.267,1.404-0.167l2.528-3.815
			c0.633,0.431,1.437,0.681,2.267,0.681c0.421,0,0.84-0.083,1.247-0.214l-0.01,0.033c-0.052,0.353,0.063,0.711,0.312,0.967
			c0.249,0.256,0.603,0.382,0.958,0.339c0.385-0.046,0.72-0.283,0.892-0.63l1.945-5.611L24,5.106V0.512H19z M14.129,8.654L15.225,7
			l1.617,1.272c-0.038,0.035-0.085,0.056-0.118,0.098C16.038,9.216,14.76,9.103,14.129,8.654z"/>
		<path d="M6.147,14.354C6.244,14.451,6.372,14.5,6.5,14.5s0.256-0.049,0.353-0.146c0.195-0.195,0.195-0.512,0-0.707l-1-1
			c-0.195-0.195-0.512-0.195-0.707,0s-0.195,0.512,0,0.707L6.147,14.354z"/>
		<path d="M14.146,12.646l-1,1c-0.195,0.195-0.195,0.512,0,0.707c0.098,0.098,0.226,0.146,0.354,0.146s0.256-0.049,0.354-0.146l1-1
			c0.195-0.195,0.195-0.512,0-0.707S14.342,12.451,14.146,12.646z"/>
		<path d="M4.5,16H6c0.276,0,0.5-0.224,0.5-0.5S6.276,15,6,15H4.5C4.224,15,4,15.224,4,15.5S4.224,16,4.5,16z"/>
		<path d="M13.5,15.5c0,0.276,0.224,0.5,0.5,0.5h1.5c0.276,0,0.5-0.224,0.5-0.5S15.776,15,15.5,15H14
			C13.724,15,13.5,15.224,13.5,15.5z"/>
		<path d="M22.5,17H20v3h2.5c0.827,0,1.5-0.673,1.5-1.5S23.327,17,22.5,17z"/>
		<path d="M0,18.5C0,19.327,0.673,20,1.5,20H8v-0.512c0-0.828,0.672-1.5,1.5-1.5s1.5,0.672,1.5,1.5V20h8v-3H1.5
			C0.673,17,0,17.673,0,18.5z"/>
		<path d="M11.146,21.135L10,22.281v-2.793c0-0.276-0.224-0.5-0.5-0.5S9,19.212,9,19.488v2.793l-1.147-1.146
			c-0.195-0.195-0.512-0.195-0.707,0s-0.195,0.512,0,0.707l1.999,1.999c0.046,0.046,0.102,0.083,0.163,0.109
			c0.061,0.025,0.126,0.038,0.191,0.038s0.13-0.013,0.191-0.038c0.062-0.025,0.117-0.062,0.163-0.109l1.999-1.999
			c0.195-0.195,0.195-0.512,0-0.707S11.342,20.94,11.146,21.135z"/>
	</g>
</g>
<g id="Invisible_Shape">
	<rect fill="none" width="24" height="24"/>
</g>
</svg>
