<?xml version="1.0" encoding="utf-8"?>
<!-- Generator: Adobe Illustrator 19.2.1, SVG Export Plug-In . SVG Version: 6.00 Build 0)  -->
<svg version="1.1" xmlns="http://www.w3.org/2000/svg" xmlns:xlink="http://www.w3.org/1999/xlink" x="0px" y="0px" width="24px"
	 height="24px" viewBox="0 0 24 24" enable-background="new 0 0 24 24" xml:space="preserve">
<g id="Outline_Icons_1_">
	<g>
		<g>
			<path fill="none" stroke="#000000" stroke-linecap="round" stroke-linejoin="round" stroke-miterlimit="10" d="M11.002,1.31
				C10.139,0.798,9.108,0.5,8,0.5c-1.862,0-3.505,0.843-4.5,2.131v5.739C4.495,9.657,6.138,10.5,8,10.5
				c0.901,0,1.749-0.201,2.5-0.55V21.5h3V12"/>
			<path fill="none" stroke="#000000" stroke-linecap="round" stroke-linejoin="round" stroke-miterlimit="10" d="M9,8.5
				c0.828,0,1.5,0.672,1.5,1.5"/>
			<path fill="none" stroke="#000000" stroke-linecap="round" stroke-linejoin="round" stroke-miterlimit="10" d="M12.5,23.5h-1
				c-0.552,0-1-0.448-1-1v-1h3v1C13.5,23.052,13.052,23.5,12.5,23.5z"/>
			<circle fill="none" stroke="#000000" stroke-linejoin="round" stroke-miterlimit="10" cx="16.5" cy="5.5" r="3"/>
			<circle fill="none" stroke="#000000" stroke-linejoin="round" stroke-miterlimit="10" cx="16.5" cy="5.5" r="5"/>
		</g>
		<g>
			<path d="M6.25,4.5C5.836,4.5,5.5,4.836,5.5,5.25S5.836,6,6.25,6S7,5.664,7,5.25S6.664,4.5,6.25,4.5L6.25,4.5z"/>
		</g>
	</g>
</g>
<g id="Invisible_Shape">
	<rect fill="none" width="24" height="24"/>
</g>
</svg>
