<?xml version="1.0" encoding="utf-8"?>
<!-- Generator: Adobe Illustrator 19.2.1, SVG Export Plug-In . SVG Version: 6.00 Build 0)  -->
<svg version="1.1" xmlns="http://www.w3.org/2000/svg" xmlns:xlink="http://www.w3.org/1999/xlink" x="0px" y="0px" width="24px"
	 height="24px" viewBox="0 0 24 24" enable-background="new 0 0 24 24" xml:space="preserve">
<g id="Filled_Icons_1_">
	<g>
		<path d="M16,22.5c0,0.827,0.673,1.5,1.5,1.5h1c0.827,0,1.5-0.673,1.5-1.5V22h-4V22.5z"/>
		<path d="M14,0c-1.94,0-3.77,0.869-4.896,2.325C9.037,2.413,9,2.52,9,2.631v5.738c0,0.11,0.037,0.218,0.104,0.306
			C10.23,10.131,12.06,11,14,11c0.338,0,0.672-0.027,1-0.078V10c0-0.552-0.449-1-1-1c-0.276,0-0.5-0.224-0.5-0.5S13.724,8,14,8
			c1.103,0,2,0.898,2,2v11h4V5.5C20,2.468,17.309,0,14,0z M12.25,6c-0.414,0-0.75-0.337-0.75-0.75s0.336-0.75,0.75-0.75
			S13,4.837,13,5.25S12.664,6,12.25,6z M17.437,4.955c-0.066,0.03-0.136,0.044-0.205,0.044c-0.191,0-0.373-0.109-0.456-0.295
			c-0.283-0.63-0.809-1.14-1.479-1.436c-0.253-0.111-0.367-0.406-0.256-0.659c0.111-0.251,0.407-0.367,0.659-0.255
			c0.897,0.395,1.603,1.084,1.988,1.939C17.801,4.546,17.688,4.842,17.437,4.955z"/>
		<path d="M8,12c-3.309,0-6,2.691-6,6s2.691,6,6,6s6-2.691,6-6S11.309,12,8,12z M10,21H6.5C6.224,21,6,20.776,6,20.5V15
			c0-0.276,0.224-0.5,0.5-0.5S7,14.724,7,15v5h3c0.276,0,0.5,0.224,0.5,0.5S10.276,21,10,21z"/>
	</g>
</g>
<g id="Invisible_Shape">
	<rect fill="none" width="24" height="24"/>
</g>
</svg>
