<?xml version="1.0" encoding="utf-8"?>
<!-- Generator: Adobe Illustrator 19.2.1, SVG Export Plug-In . SVG Version: 6.00 Build 0)  -->
<svg version="1.1" xmlns="http://www.w3.org/2000/svg" xmlns:xlink="http://www.w3.org/1999/xlink" x="0px" y="0px" width="24px"
	 height="24px" viewBox="0 0 24 24" enable-background="new 0 0 24 24" xml:space="preserve">
<g id="Outline_Icons_1_">
	<g>
		<g>
			<path fill="none" stroke="#000000" stroke-linecap="round" stroke-linejoin="round" stroke-miterlimit="10" d="M14,0.5
				c-1.862,0-3.505,0.843-4.5,2.131v5.739C10.495,9.657,12.138,10.5,14,10.5c0.901,0,1.749-0.201,2.5-0.55V21.5h3v-16
				C19.5,2.739,17.038,0.5,14,0.5z"/>
			<path fill="none" stroke="#000000" stroke-linecap="round" stroke-linejoin="round" stroke-miterlimit="10" d="M15,8.5
				c0.828,0,1.5,0.672,1.5,1.5"/>
			<path fill="none" stroke="#000000" stroke-linecap="round" stroke-linejoin="round" stroke-miterlimit="10" d="M18.5,23.5h-1
				c-0.552,0-1-0.448-1-1v-1h3v1C19.5,23.052,19.052,23.5,18.5,23.5z"/>
			<path fill="none" stroke="#000000" stroke-linecap="round" stroke-linejoin="round" stroke-miterlimit="10" d="M15.498,2.812
				c0.779,0.343,1.4,0.945,1.733,1.687"/>
			
				<circle fill="none" stroke="#000000" stroke-linecap="round" stroke-linejoin="round" stroke-miterlimit="10" cx="8" cy="18" r="5.5"/>
			<polyline fill="none" stroke="#000000" stroke-linecap="round" stroke-linejoin="round" stroke-miterlimit="10" points="6.5,15 
				6.5,20.5 10,20.5 			"/>
		</g>
		<g>
			<path d="M12.25,4.5c-0.414,0-0.75,0.336-0.75,0.75S11.836,6,12.25,6S13,5.664,13,5.25S12.664,4.5,12.25,4.5L12.25,4.5z"/>
		</g>
	</g>
</g>
<g id="Invisible_Shape">
	<rect fill="none" width="24" height="24"/>
</g>
</svg>
