<?xml version="1.0" encoding="utf-8"?>
<!-- Generator: Adobe Illustrator 19.2.1, SVG Export Plug-In . SVG Version: 6.00 Build 0)  -->
<svg version="1.1" xmlns="http://www.w3.org/2000/svg" xmlns:xlink="http://www.w3.org/1999/xlink" x="0px" y="0px" width="24px"
	 height="24px" viewBox="0 0 24 24" enable-background="new 0 0 24 24" xml:space="preserve">
<g id="Filled_Icons_1_">
	<g>
		<path d="M21.5,5H21V0.5C21,0.224,20.776,0,20.5,0h-4C16.224,0,16,0.224,16,0.5V5h-0.5C15.224,5,15,5.224,15,5.5v8
			c0,0.276,0.224,0.5,0.5,0.5h6c0.276,0,0.5-0.224,0.5-0.5v-8C22,5.224,21.776,5,21.5,5z M17,1h3v4h-3V1z"/>
		<path d="M18.5,2C18.224,2,18,2.224,18,2.5v1C18,3.776,18.224,4,18.5,4S19,3.776,19,3.5v-1C19,2.224,18.776,2,18.5,2z"/>
		<path d="M17,16.5c0,0.276,0.224,0.5,0.5,0.5H18v6.5c0,0.276,0.224,0.5,0.5,0.5s0.5-0.224,0.5-0.5V17h0.5
			c0.276,0,0.5-0.224,0.5-0.5V15h-3V16.5z"/>
		<path d="M9,22.5c0,0.827,0.673,1.5,1.5,1.5h1c0.827,0,1.5-0.673,1.5-1.5V22H9V22.5z"/>
		<path d="M7,0C5.06,0,3.23,0.869,2.105,2.325C2.037,2.413,2,2.52,2,2.631v5.738c0,0.11,0.037,0.218,0.105,0.306
			C3.23,10.131,5.06,11,7,11c0.338,0,0.672-0.027,1-0.078V10c0-0.552-0.449-1-1-1C6.724,9,6.5,8.776,6.5,8.5S6.724,8,7,8
			c1.103,0,2,0.898,2,2v11h4V5.5C13,2.468,10.309,0,7,0z M5.25,6C4.836,6,4.5,5.663,4.5,5.25S4.836,4.5,5.25,4.5S6,4.837,6,5.25
			S5.664,6,5.25,6z M10.436,4.955c-0.066,0.03-0.136,0.044-0.205,0.044c-0.191,0-0.373-0.109-0.457-0.295
			c-0.283-0.63-0.809-1.14-1.479-1.436C8.043,3.157,7.929,2.862,8.04,2.609C8.151,2.358,8.447,2.242,8.7,2.355
			c0.897,0.395,1.603,1.084,1.988,1.939C10.801,4.546,10.689,4.842,10.436,4.955z"/>
	</g>
</g>
<g id="Invisible_Shape">
	<rect fill="none" width="24" height="24"/>
</g>
</svg>
