<?xml version="1.0" encoding="utf-8"?>
<!-- Generator: Adobe Illustrator 19.2.1, SVG Export Plug-In . SVG Version: 6.00 Build 0)  -->
<svg version="1.1" xmlns="http://www.w3.org/2000/svg" xmlns:xlink="http://www.w3.org/1999/xlink" x="0px" y="0px" width="24px"
	 height="24px" viewBox="0 0 24 24" enable-background="new 0 0 24 24" xml:space="preserve">
<g id="Filled_Icons_1_">
	<g>
		<path d="M13,20.91v1.59c0,0.83,0.67,1.5,1.5,1.5h1c0.83,0,1.5-0.67,1.5-1.5v-4.19C16.16,19.609,14.684,20.629,13,20.91z"/>
		<path d="M23.9,2.33C22.77,0.87,20.94,0,19,0c-3.31,0-6,2.47-6,5.5v3.59c1.681,0.28,3.158,1.298,4,2.6V10c0-1.1,0.9-2,2-2
			c0.28,0,0.5,0.22,0.5,0.5S19.28,9,19,9c-0.55,0-1,0.45-1,1v0.92c0.33,0.05,0.66,0.08,1,0.08c1.94,0,3.77-0.87,4.9-2.33
			c0.06-0.08,0.1-0.19,0.1-0.3V2.63C24,2.52,23.96,2.41,23.9,2.33z M17.7,3.27c-0.67,0.29-1.19,0.8-1.48,1.43
			C16.14,4.89,15.96,5,15.77,5c-0.07,0-0.14-0.01-0.21-0.04c-0.25-0.12-0.36-0.42-0.25-0.67c0.39-0.85,1.09-1.54,1.99-1.94
			c0.25-0.11,0.55,0.01,0.66,0.26C18.07,2.86,17.96,3.16,17.7,3.27z M20.75,6C20.34,6,20,5.66,20,5.25s0.34-0.75,0.75-0.75
			s0.75,0.34,0.75,0.75S21.16,6,20.75,6z"/>
		<path d="M7,18.31v4.19C7,23.33,7.67,24,8.5,24h1c0.83,0,1.5-0.67,1.5-1.5v-1.59C9.316,20.629,7.84,19.609,7,18.31z"/>
		<path d="M5,8c1.1,0,2,0.9,2,2v1.69c0.842-1.302,2.319-2.32,4-2.6V5.5C11,2.47,8.31,0,5,0C3.06,0,1.23,0.87,0.1,2.33
			C0.04,2.41,0,2.52,0,2.63v5.74c0,0.11,0.04,0.22,0.1,0.3C1.23,10.13,3.06,11,5,11c0.34,0,0.67-0.03,1-0.08V10c0-0.55-0.45-1-1-1
			C4.72,9,4.5,8.78,4.5,8.5S4.72,8,5,8z M6.04,2.61C6.15,2.36,6.45,2.24,6.7,2.35c0.9,0.4,1.6,1.09,1.99,1.94
			c0.11,0.25,0,0.55-0.25,0.67C8.37,4.99,8.3,5,8.23,5C8.04,5,7.86,4.89,7.78,4.7C7.49,4.07,6.97,3.56,6.3,3.27
			C6.04,3.16,5.93,2.86,6.04,2.61z M3.25,6C2.84,6,2.5,5.66,2.5,5.25S2.84,4.5,3.25,4.5S4,4.84,4,5.25S3.66,6,3.25,6z"/>
		<path d="M12,10c-2.757,0-5,2.243-5,5s2.243,5,5,5s5-2.243,5-5S14.757,10,12,10z M14.88,13.825l-3,3.5
			C11.781,17.44,11.641,17.5,11.5,17.5c-0.104,0-0.21-0.033-0.3-0.1l-2-1.5c-0.221-0.166-0.266-0.479-0.101-0.7
			c0.167-0.221,0.481-0.265,0.7-0.101l1.625,1.22l2.695-3.144c0.182-0.21,0.498-0.233,0.705-0.055
			C15.035,13.3,15.06,13.616,14.88,13.825z"/>
	</g>
</g>
<g id="Invisible_Shape">
	<rect fill="none" width="24" height="24"/>
</g>
</svg>
