<?xml version="1.0" encoding="utf-8"?>
<!-- Generator: Adobe Illustrator 19.2.1, SVG Export Plug-In . SVG Version: 6.00 Build 0)  -->
<svg version="1.1" xmlns="http://www.w3.org/2000/svg" xmlns:xlink="http://www.w3.org/1999/xlink" x="0px" y="0px" width="24px"
	 height="24px" viewBox="0 0 24 24" enable-background="new 0 0 24 24" xml:space="preserve">
<g id="Filled_Icons_1_">
	<g>
		<path d="M22.5,14H22v-0.5c0-0.276-0.224-0.5-0.5-0.5h-3c-0.276,0-0.5,0.224-0.5,0.5V14h-0.5c-0.827,0-1.5,0.673-1.5,1.5v7
			c0,0.827,0.673,1.5,1.5,1.5h5c0.827,0,1.5-0.673,1.5-1.5v-7C24,14.673,23.327,14,22.5,14z M22.5,22h-5c-0.276,0-0.5-0.224-0.5-0.5
			s0.224-0.5,0.5-0.5h5c0.276,0,0.5,0.224,0.5,0.5S22.776,22,22.5,22z"/>
		<path d="M7,22.5C7,23.327,7.673,24,8.5,24h1c0.827,0,1.5-0.673,1.5-1.5V22H7V22.5z"/>
		<path d="M5,0C3.06,0,1.23,0.869,0.105,2.325C0.037,2.413,0,2.52,0,2.631v5.738c0,0.11,0.037,0.218,0.105,0.306
			C1.23,10.131,3.06,11,5,11c0.338,0,0.672-0.027,1-0.078V10c0-0.552-0.449-1-1-1C4.724,9,4.5,8.776,4.5,8.5S4.724,8,5,8
			c1.103,0,2,0.898,2,2v11h4V5.5C11,2.468,8.309,0,5,0z M3.25,6C2.836,6,2.5,5.663,2.5,5.25S2.836,4.5,3.25,4.5S4,4.837,4,5.25
			S3.664,6,3.25,6z M8.436,4.955C8.37,4.985,8.3,4.999,8.232,4.999c-0.191,0-0.373-0.109-0.457-0.295
			c-0.283-0.63-0.809-1.14-1.479-1.436C6.043,3.157,5.929,2.862,6.041,2.609C6.151,2.358,6.447,2.242,6.7,2.355
			C7.597,2.75,8.303,3.438,8.688,4.294C8.801,4.546,8.689,4.842,8.436,4.955z"/>
		<path d="M23.896,2.325C22.77,0.869,20.94,0,19,0c-3.309,0-6,2.468-6,5.5V21h2v-7c0-1.105,0.895-2,2-2v-2c0-1.102,0.897-2,2-2
			c0.276,0,0.5,0.224,0.5,0.5S19.276,9,19,9c-0.551,0-1,0.448-1,1v0.922C18.328,10.973,18.662,11,19,11
			c1.94,0,3.77-0.869,4.896-2.325C23.963,8.587,24,8.479,24,8.369V2.631C24,2.52,23.963,2.413,23.896,2.325z M17.704,3.269
			c-0.67,0.296-1.196,0.806-1.479,1.436c-0.083,0.185-0.266,0.295-0.457,0.295c-0.068,0-0.138-0.014-0.205-0.044
			c-0.252-0.113-0.364-0.409-0.251-0.661c0.385-0.855,1.091-1.544,1.988-1.939c0.252-0.112,0.548,0.004,0.659,0.255
			C18.071,2.862,17.956,3.157,17.704,3.269z M20.75,6C20.336,6,20,5.663,20,5.25s0.336-0.75,0.75-0.75s0.75,0.337,0.75,0.75
			S21.164,6,20.75,6z"/>
		<path d="M13,22.5c0,0.827,0.673,1.5,1.5,1.5H15v-2h-2V22.5z"/>
	</g>
</g>
<g id="Invisible_Shape">
	<rect fill="none" width="24" height="24"/>
</g>
</svg>
