<?xml version="1.0" encoding="utf-8"?>
<!-- Generator: Adobe Illustrator 19.2.1, SVG Export Plug-In . SVG Version: 6.00 Build 0)  -->
<svg version="1.1" xmlns="http://www.w3.org/2000/svg" xmlns:xlink="http://www.w3.org/1999/xlink" x="0px" y="0px" width="24px"
	 height="24px" viewBox="0 0 24 24" enable-background="new 0 0 24 24" xml:space="preserve">
<g id="Filled_Icons_1_">
	<g>
		<path d="M7,22.5C7,23.327,7.673,24,8.5,24h1c0.827,0,1.5-0.673,1.5-1.5V22H7V22.5z"/>
		<path d="M5,0C3.06,0,1.23,0.869,0.105,2.325C0.037,2.413,0,2.52,0,2.631v5.738c0,0.11,0.037,0.218,0.105,0.306
			C1.23,10.131,3.06,11,5,11c0.338,0,0.672-0.027,1-0.078V10c0-0.552-0.449-1-1-1C4.724,9,4.5,8.776,4.5,8.5S4.724,8,5,8
			c1.103,0,2,0.898,2,2v11h4V5.5C11,2.468,8.309,0,5,0z M3.25,6C2.836,6,2.5,5.663,2.5,5.25S2.836,4.5,3.25,4.5S4,4.837,4,5.25
			S3.664,6,3.25,6z M8.436,4.955C8.37,4.985,8.3,4.999,8.232,4.999c-0.191,0-0.373-0.109-0.457-0.295
			c-0.283-0.63-0.809-1.14-1.479-1.436C6.043,3.157,5.929,2.862,6.041,2.609C6.151,2.358,6.447,2.242,6.7,2.355
			C7.597,2.75,8.303,3.438,8.688,4.294C8.801,4.546,8.689,4.842,8.436,4.955z"/>
		<path d="M23.896,2.325C22.77,0.869,20.94,0,19,0c-3.309,0-6,2.468-6,5.5V21h1.093c0.109-0.308,0.313-0.585,0.612-0.771L17,18.794
			v-0.087l-2.295-1.434c-0.703-0.439-0.916-1.365-0.477-2.067c0.439-0.702,1.365-0.917,2.067-0.478L17,15.168V10
			c0-1.102,0.897-2,2-2c0.276,0,0.5,0.224,0.5,0.5S19.276,9,19,9c-0.551,0-1,0.448-1,1v0.922C18.328,10.973,18.662,11,19,11
			c1.94,0,3.77-0.869,4.896-2.325C23.963,8.587,24,8.479,24,8.369V2.631C24,2.52,23.963,2.413,23.896,2.325z M17.704,3.269
			c-0.67,0.296-1.196,0.806-1.479,1.436c-0.083,0.185-0.266,0.295-0.457,0.295c-0.068,0-0.138-0.014-0.205-0.044
			c-0.252-0.113-0.364-0.409-0.251-0.661c0.385-0.855,1.091-1.544,1.988-1.939c0.252-0.112,0.548,0.004,0.659,0.255
			C18.071,2.862,17.956,3.157,17.704,3.269z M20.75,6C20.336,6,20,5.663,20,5.25s0.336-0.75,0.75-0.75s0.75,0.337,0.75,0.75
			S21.164,6,20.75,6z"/>
		<path d="M15.502,23c-0.5,0-0.989-0.25-1.274-0.705c-0.059-0.095-0.104-0.194-0.14-0.295H13v0.5c0,0.827,0.673,1.5,1.5,1.5h1
			c0.827,0,1.5-0.673,1.5-1.5v-0.169l-0.705,0.441C16.048,22.927,15.773,23,15.502,23z"/>
		<path d="M24,16.5c0-0.173-0.089-0.333-0.235-0.424l-4-2.5c-0.154-0.098-0.35-0.103-0.507-0.014C19.099,13.65,19,13.818,19,14
			v3.598l-3.235-2.022c-0.235-0.147-0.543-0.075-0.689,0.159c-0.146,0.233-0.075,0.542,0.159,0.688l3.722,2.326l-3.722,2.326
			c-0.234,0.146-0.305,0.455-0.159,0.688c0.146,0.234,0.454,0.306,0.689,0.159L19,19.902V23.5c0,0.182,0.099,0.35,0.258,0.438
			C19.333,23.979,19.417,24,19.5,24c0.092,0,0.184-0.025,0.265-0.076l4-2.5C23.911,21.333,24,21.173,24,21s-0.089-0.333-0.235-0.424
			l-2.922-1.826l2.922-1.826C23.911,16.833,24,16.673,24,16.5z M22.557,21L20,22.598v-3.195L22.557,21z M20,18.098v-3.195
			l2.557,1.598L20,18.098z"/>
	</g>
</g>
<g id="Invisible_Shape">
	<rect fill="none" width="24" height="24"/>
</g>
</svg>
