<?xml version="1.0" encoding="utf-8"?>
<!-- Generator: Adobe Illustrator 19.2.1, SVG Export Plug-In . SVG Version: 6.00 Build 0)  -->
<svg version="1.1" xmlns="http://www.w3.org/2000/svg" xmlns:xlink="http://www.w3.org/1999/xlink" x="0px" y="0px" width="24px"
	 height="24px" viewBox="0 0 24 24" enable-background="new 0 0 24 24" xml:space="preserve">
<g id="Outline_Icons_1_">
	<g>
		<g>
			<path fill="none" stroke="#000000" stroke-linecap="round" stroke-linejoin="round" stroke-miterlimit="10" d="M4.5,4.5
				c-1.643,0-3.089,0.723-4,1.825v5.351c0.911,1.102,2.357,1.825,4,1.825c1.131,0,2.162-0.351,3-0.92v8.92c0,0.552,0.448,1,1,1
				s1-0.448,1-1V9C9.5,6.515,7.261,4.5,4.5,4.5z"/>
			<path fill="none" stroke="#000000" stroke-linecap="round" stroke-linejoin="round" stroke-miterlimit="10" d="M23.5,19.5
				l-2.499-2.888l-5.39-2.494c-0.328-0.205-0.531-0.563-0.538-0.95c-0.007-0.357,0.153-0.697,0.433-0.919
				c0.28-0.222,0.647-0.301,0.993-0.214l2.193,0.88l1.734-1.801L14.806,5.72c-0.398-0.383-0.41-1.016-0.027-1.414
				c0.383-0.398,1.016-0.41,1.414-0.027L23.5,9V19.5z"/>
			<path fill="none" stroke="#000000" stroke-linejoin="round" stroke-miterlimit="10" d="M18.007,8.816
				c-0.768,1.024-0.516,2.234-0.22,3.736"/>
			<path fill="none" stroke="#000000" stroke-linecap="round" stroke-linejoin="round" stroke-miterlimit="10" d="M13.999,7.292
				C13.117,6.905,12.5,6.025,12.5,5c0-0.563,0.186-1.082,0.5-1.5"/>
			<path fill="none" stroke="#000000" stroke-linecap="round" stroke-linejoin="round" stroke-miterlimit="10" d="M13.997,9.388
				C11.995,8.932,10.5,7.141,10.5,5c0-1.072,0.375-2.056,1-2.828"/>
			
				<line fill="none" stroke="#000000" stroke-linecap="round" stroke-linejoin="round" stroke-miterlimit="10" x1="7.5" y1="20.5" x2="9.5" y2="20.5"/>
		</g>
		<g>
			<path d="M3.25,8C2.836,8,2.5,8.336,2.5,8.75S2.836,9.5,3.25,9.5S4,9.164,4,8.75S3.664,8,3.25,8L3.25,8z"/>
		</g>
	</g>
</g>
<g id="Invisible_Shape">
	<rect fill="none" width="24" height="24"/>
</g>
</svg>
