<?xml version="1.0" encoding="utf-8"?>
<!-- Generator: Adobe Illustrator 19.2.1, SVG Export Plug-In . SVG Version: 6.00 Build 0)  -->
<svg version="1.1" xmlns="http://www.w3.org/2000/svg" xmlns:xlink="http://www.w3.org/1999/xlink" x="0px" y="0px" width="24px"
	 height="24px" viewBox="0 0 24 24" enable-background="new 0 0 24 24" xml:space="preserve">
<g id="Filled_Icons_1_">
	<g>
		<path d="M2,11.903c0-1.602,0.624-3.109,1.758-4.242c0.195-0.195,0.195-0.512,0-0.707c-0.195-0.195-0.512-0.195-0.707,0
			C1.729,8.276,1,10.034,1,11.903c0,1.87,0.729,3.628,2.051,4.95C3.148,16.951,3.276,17,3.404,17c0.128,0,0.256-0.049,0.354-0.146
			c0.195-0.195,0.195-0.512,0-0.707C2.624,15.014,2,13.507,2,11.903z"/>
		<path d="M5.172,8.368c-0.195-0.195-0.512-0.195-0.707,0c-1.949,1.949-1.949,5.122,0,7.071c0.098,0.098,0.226,0.146,0.354,0.146
			c0.128,0,0.256-0.049,0.353-0.146c0.195-0.195,0.195-0.512,0-0.707c-1.56-1.559-1.56-4.098,0-5.657
			C5.367,8.88,5.367,8.564,5.172,8.368z"/>
		<path d="M21.949,6.954c-0.195-0.195-0.512-0.195-0.707,0c-0.195,0.195-0.195,0.512,0,0.707C22.376,8.794,23,10.301,23,11.903
			c0,1.603-0.624,3.11-1.758,4.243c-0.195,0.195-0.195,0.512,0,0.707C21.34,16.951,21.468,17,21.596,17
			c0.128,0,0.256-0.049,0.354-0.146c1.322-1.322,2.051-3.08,2.051-4.95C24,10.034,23.271,8.276,21.949,6.954z"/>
		<path d="M20.535,8.368c-0.195-0.195-0.512-0.195-0.707,0c-0.195,0.195-0.195,0.512,0,0.707c1.56,1.56,1.56,4.098,0,5.657
			c-0.195,0.195-0.195,0.512,0,0.707c0.098,0.098,0.226,0.146,0.354,0.146c0.128,0,0.256-0.049,0.354-0.146
			C22.484,13.49,22.484,10.317,20.535,8.368z"/>
		<path d="M16.5,0h-8C7.121,0,6,1.121,6,2.5v19C6,22.879,7.121,24,8.5,24h8c1.379,0,2.5-1.121,2.5-2.5v-19C19,1.121,17.879,0,16.5,0
			z M11.5,2h2C13.776,2,14,2.224,14,2.5S13.776,3,13.5,3h-2C11.224,3,11,2.776,11,2.5S11.224,2,11.5,2z M12.5,22
			c-0.552,0-1-0.448-1-1s0.448-1,1-1s1,0.448,1,1S13.052,22,12.5,22z M14.765,12.424l-4,2.5C10.685,14.975,10.592,15,10.5,15
			c-0.083,0-0.167-0.021-0.242-0.062C10.099,14.85,10,14.682,10,14.5v-5c0-0.182,0.099-0.35,0.258-0.438s0.354-0.083,0.507,0.014
			l4,2.5C14.911,11.667,15,11.827,15,12S14.911,12.333,14.765,12.424z"/>
	</g>
</g>
<g id="Invisible_Shape">
	<rect fill="none" width="24" height="24"/>
</g>
</svg>
