<svg width="30.000000" height="29.732143" viewBox="0.000000 -55.446429 30.000000 29.732143" xmlns="http://www.w3.org/2000/svg"><path d="M16.071429 -51.160714C16.071429 -51.450893 15.965402 -51.702009 15.753348 -51.914062C15.541295 -52.126116 15.290179 -52.232143 15.000000 -52.232143C14.709821 -52.232143 14.458705 -52.126116 14.246652 -51.914062C14.034598 -51.702009 13.928571 -51.450893 13.928571 -51.160714C13.928571 -50.870536 14.034598 -50.619420 14.246652 -50.407366C14.458705 -50.195312 14.709821 -50.089286 15.000000 -50.089286C15.290179 -50.089286 15.541295 -50.195312 15.753348 -50.407366C15.965402 -50.619420 16.071429 -50.870536 16.071429 -51.160714ZM30.000000 -35.625000L30.000000 -29.732143C30.000000 -29.486607 29.888393 -29.319196 29.665179 -29.229911C29.575893 -29.207589 29.508929 -29.196429 29.464286 -29.196429C29.330357 -29.196429 29.202009 -29.246652 29.079241 -29.347098L27.522321 -30.904018C26.194196 -29.308036 24.416853 -28.044085 22.190290 -27.112165C19.963728 -26.180246 17.566964 -25.714286 15.000000 -25.714286C12.433036 -25.714286 10.036272 -26.180246 7.809710 -27.112165C5.583147 -28.044085 3.805804 -29.308036 2.477679 -30.904018L0.920759 -29.347098C0.820312 -29.246652 0.691964 -29.196429 0.535714 -29.196429C0.491071 -29.196429 0.424107 -29.207589 0.334821 -29.229911C0.111607 -29.319196 0.000000 -29.486607 0.000000 -29.732143L0.000000 -35.625000C0.000000 -35.781250 0.050223 -35.909598 0.150670 -36.010045C0.251116 -36.110491 0.379464 -36.160714 0.535714 -36.160714L6.428571 -36.160714C6.674107 -36.160714 6.841518 -36.049107 6.930804 -35.825893C7.020089 -35.613839 6.981027 -35.418527 6.813616 -35.239955L5.139509 -33.565848C5.887277 -32.550223 6.944754 -31.693638 8.311942 -30.996094C9.679129 -30.298549 11.194196 -29.838170 12.857143 -29.614955L12.857143 -40.446429L9.642857 -40.446429C9.352679 -40.446429 9.101562 -40.552455 8.889509 -40.764509C8.677455 -40.976562 8.571429 -41.227679 8.571429 -41.517857L8.571429 -43.660714C8.571429 -43.950893 8.677455 -44.202009 8.889509 -44.414062C9.101562 -44.626116 9.352679 -44.732143 9.642857 -44.732143L12.857143 -44.732143L12.857143 -47.460938C12.209821 -47.840402 11.690848 -48.356585 11.300223 -49.009487C10.909598 -49.662388 10.714286 -50.379464 10.714286 -51.160714C10.714286 -52.343750 11.132812 -53.353795 11.969866 -54.190848C12.806920 -55.027902 13.816964 -55.446429 15.000000 -55.446429C16.183036 -55.446429 17.193080 -55.027902 18.030134 -54.190848C18.867188 -53.353795 19.285714 -52.343750 19.285714 -51.160714C19.285714 -50.379464 19.090402 -49.662388 18.699777 -49.009487C18.309152 -48.356585 17.790179 -47.840402 17.142857 -47.460938L17.142857 -44.732143L20.357143 -44.732143C20.647321 -44.732143 20.898438 -44.626116 21.110491 -44.414062C21.322545 -44.202009 21.428571 -43.950893 21.428571 -43.660714L21.428571 -41.517857C21.428571 -41.227679 21.322545 -40.976562 21.110491 -40.764509C20.898438 -40.552455 20.647321 -40.446429 20.357143 -40.446429L17.142857 -40.446429L17.142857 -29.614955C18.805804 -29.838170 20.320871 -30.298549 21.688058 -30.996094C23.055246 -31.693638 24.112723 -32.550223 24.860491 -33.565848L23.186384 -35.239955C23.018973 -35.418527 22.979911 -35.613839 23.069196 -35.825893C23.158482 -36.049107 23.325893 -36.160714 23.571429 -36.160714L29.464286 -36.160714C29.620536 -36.160714 29.748884 -36.110491 29.849330 -36.010045C29.949777 -35.909598 30.000000 -35.781250 30.000000 -35.625000ZM30.000000 -35.625000"></path></svg>