<svg width="16.171875" height="16.707589" viewBox="0.753348 -34.704241 16.171875 16.707589" xmlns="http://www.w3.org/2000/svg"><path d="M10.496652 -19.386161C10.496652 -19.241071 10.440848 -19.112723 10.329241 -19.001116L9.492188 -18.164062C9.380580 -18.052455 9.252232 -17.996652 9.107143 -17.996652C8.962054 -17.996652 8.833705 -18.052455 8.722098 -18.164062L0.920759 -25.965402C0.809152 -26.077009 0.753348 -26.205357 0.753348 -26.350446C0.753348 -26.495536 0.809152 -26.623884 0.920759 -26.735491L8.722098 -34.536830C8.833705 -34.648438 8.962054 -34.704241 9.107143 -34.704241C9.252232 -34.704241 9.380580 -34.648438 9.492188 -34.536830L10.329241 -33.699777C10.440848 -33.588170 10.496652 -33.459821 10.496652 -33.314732C10.496652 -33.169643 10.440848 -33.041295 10.329241 -32.929688L3.750000 -26.350446L10.329241 -19.771205C10.440848 -19.659598 10.496652 -19.531250 10.496652 -19.386161ZM16.925223 -19.386161C16.925223 -19.241071 16.869420 -19.112723 16.757812 -19.001116L15.920759 -18.164062C15.809152 -18.052455 15.680804 -17.996652 15.535714 -17.996652C15.390625 -17.996652 15.262277 -18.052455 15.150670 -18.164062L7.349330 -25.965402C7.237723 -26.077009 7.181920 -26.205357 7.181920 -26.350446C7.181920 -26.495536 7.237723 -26.623884 7.349330 -26.735491L15.150670 -34.536830C15.262277 -34.648438 15.390625 -34.704241 15.535714 -34.704241C15.680804 -34.704241 15.809152 -34.648438 15.920759 -34.536830L16.757812 -33.699777C16.869420 -33.588170 16.925223 -33.459821 16.925223 -33.314732C16.925223 -33.169643 16.869420 -33.041295 16.757812 -32.929688L10.178571 -26.350446L16.757812 -19.771205C16.869420 -19.659598 16.925223 -19.531250 16.925223 -19.386161ZM16.925223 -19.386161"></path></svg>