<svg width="16.707589" height="9.743304" viewBox="1.289062 -23.989955 16.707589 9.743304" xmlns="http://www.w3.org/2000/svg"><path d="M17.996652 -15.636161C17.996652 -15.491071 17.940848 -15.362723 17.829241 -15.251116L16.992188 -14.414062C16.880580 -14.302455 16.752232 -14.246652 16.607143 -14.246652C16.462054 -14.246652 16.333705 -14.302455 16.222098 -14.414062L9.642857 -20.993304L3.063616 -14.414062C2.952009 -14.302455 2.823661 -14.246652 2.678571 -14.246652C2.533482 -14.246652 2.405134 -14.302455 2.293527 -14.414062L1.456473 -15.251116C1.344866 -15.362723 1.289062 -15.491071 1.289062 -15.636161C1.289062 -15.781250 1.344866 -15.909598 1.456473 -16.021205L9.257812 -23.822545C9.369420 -23.934152 9.497768 -23.989955 9.642857 -23.989955C9.787946 -23.989955 9.916295 -23.934152 10.027902 -23.822545L17.829241 -16.021205C17.940848 -15.909598 17.996652 -15.781250 17.996652 -15.636161ZM17.996652 -15.636161"></path></svg>