<svg width="16.171875" height="16.707589" viewBox="0.217634 -34.704241 16.171875 16.707589" xmlns="http://www.w3.org/2000/svg"><path d="M9.960938 -26.350446C9.960938 -26.205357 9.905134 -26.077009 9.793527 -25.965402L1.992188 -18.164062C1.880580 -18.052455 1.752232 -17.996652 1.607143 -17.996652C1.462054 -17.996652 1.333705 -18.052455 1.222098 -18.164062L0.385045 -19.001116C0.273438 -19.112723 0.217634 -19.241071 0.217634 -19.386161C0.217634 -19.531250 0.273438 -19.659598 0.385045 -19.771205L6.964286 -26.350446L0.385045 -32.929688C0.273438 -33.041295 0.217634 -33.169643 0.217634 -33.314732C0.217634 -33.459821 0.273438 -33.588170 0.385045 -33.699777L1.222098 -34.536830C1.333705 -34.648438 1.462054 -34.704241 1.607143 -34.704241C1.752232 -34.704241 1.880580 -34.648438 1.992188 -34.536830L9.793527 -26.735491C9.905134 -26.623884 9.960938 -26.495536 9.960938 -26.350446ZM16.389509 -26.350446C16.389509 -26.205357 16.333705 -26.077009 16.222098 -25.965402L8.420759 -18.164062C8.309152 -18.052455 8.180804 -17.996652 8.035714 -17.996652C7.890625 -17.996652 7.762277 -18.052455 7.650670 -18.164062L6.813616 -19.001116C6.702009 -19.112723 6.646205 -19.241071 6.646205 -19.386161C6.646205 -19.531250 6.702009 -19.659598 6.813616 -19.771205L13.392857 -26.350446L6.813616 -32.929688C6.702009 -33.041295 6.646205 -33.169643 6.646205 -33.314732C6.646205 -33.459821 6.702009 -33.588170 6.813616 -33.699777L7.650670 -34.536830C7.762277 -34.648438 7.890625 -34.704241 8.035714 -34.704241C8.180804 -34.704241 8.309152 -34.648438 8.420759 -34.536830L16.222098 -26.735491C16.333705 -26.623884 16.389509 -26.495536 16.389509 -26.350446ZM16.389509 -26.350446"></path></svg>