<svg width="27.857143" height="25.714286" viewBox="1.071429 -49.285714 27.857143 25.714286" xmlns="http://www.w3.org/2000/svg"><path d="M18.214286 -37.500000C18.214286 -37.790179 18.108259 -38.041295 17.896205 -38.253348C17.684152 -38.465402 17.433036 -38.571429 17.142857 -38.571429L12.857143 -38.571429C12.566964 -38.571429 12.315848 -38.465402 12.103795 -38.253348C11.891741 -38.041295 11.785714 -37.790179 11.785714 -37.500000C11.785714 -37.209821 11.891741 -36.958705 12.103795 -36.746652C12.315848 -36.534598 12.566964 -36.428571 12.857143 -36.428571L17.142857 -36.428571C17.433036 -36.428571 17.684152 -36.534598 17.896205 -36.746652C18.108259 -36.958705 18.214286 -37.209821 18.214286 -37.500000ZM27.857143 -40.714286L27.857143 -24.642857C27.857143 -24.352679 27.751116 -24.101562 27.539062 -23.889509C27.327009 -23.677455 27.075893 -23.571429 26.785714 -23.571429L3.214286 -23.571429C2.924107 -23.571429 2.672991 -23.677455 2.460938 -23.889509C2.248884 -24.101562 2.142857 -24.352679 2.142857 -24.642857L2.142857 -40.714286C2.142857 -41.004464 2.248884 -41.255580 2.460938 -41.467634C2.672991 -41.679688 2.924107 -41.785714 3.214286 -41.785714L26.785714 -41.785714C27.075893 -41.785714 27.327009 -41.679688 27.539062 -41.467634C27.751116 -41.255580 27.857143 -41.004464 27.857143 -40.714286ZM28.928571 -48.214286L28.928571 -43.928571C28.928571 -43.638393 28.822545 -43.387277 28.610491 -43.175223C28.398437 -42.963170 28.147321 -42.857143 27.857143 -42.857143L2.142857 -42.857143C1.852679 -42.857143 1.601562 -42.963170 1.389509 -43.175223C1.177455 -43.387277 1.071429 -43.638393 1.071429 -43.928571L1.071429 -48.214286C1.071429 -48.504464 1.177455 -48.755580 1.389509 -48.967634C1.601562 -49.179688 1.852679 -49.285714 2.142857 -49.285714L27.857143 -49.285714C28.147321 -49.285714 28.398437 -49.179688 28.610491 -48.967634C28.822545 -48.755580 28.928571 -48.504464 28.928571 -48.214286ZM28.928571 -48.214286"></path></svg>