<svg width="30.000000" height="30.000000" viewBox="0.000000 -55.714286 30.000000 30.000000" xmlns="http://www.w3.org/2000/svg"><path d="M30.000000 -40.714286C30.000000 -40.424107 29.893973 -40.172991 29.681920 -39.960938L25.396205 -35.675223C25.184152 -35.463170 24.933036 -35.357143 24.642857 -35.357143C24.352679 -35.357143 24.101562 -35.463170 23.889509 -35.675223C23.677455 -35.887277 23.571429 -36.138393 23.571429 -36.428571L23.571429 -38.571429L17.142857 -38.571429L17.142857 -32.142857L19.285714 -32.142857C19.575893 -32.142857 19.827009 -32.036830 20.039062 -31.824777C20.251116 -31.612723 20.357143 -31.361607 20.357143 -31.071429C20.357143 -30.781250 20.251116 -30.530134 20.039062 -30.318080L15.753348 -26.032366C15.541295 -25.820312 15.290179 -25.714286 15.000000 -25.714286C14.709821 -25.714286 14.458705 -25.820312 14.246652 -26.032366L9.960938 -30.318080C9.748884 -30.530134 9.642857 -30.781250 9.642857 -31.071429C9.642857 -31.361607 9.748884 -31.612723 9.960938 -31.824777C10.172991 -32.036830 10.424107 -32.142857 10.714286 -32.142857L12.857143 -32.142857L12.857143 -38.571429L6.428571 -38.571429L6.428571 -36.428571C6.428571 -36.138393 6.322545 -35.887277 6.110491 -35.675223C5.898438 -35.463170 5.647321 -35.357143 5.357143 -35.357143C5.066964 -35.357143 4.815848 -35.463170 4.603795 -35.675223L0.318080 -39.960938C0.106027 -40.172991 0.000000 -40.424107 0.000000 -40.714286C0.000000 -41.004464 0.106027 -41.255580 0.318080 -41.467634L4.603795 -45.753348C4.815848 -45.965402 5.066964 -46.071429 5.357143 -46.071429C5.647321 -46.071429 5.898438 -45.965402 6.110491 -45.753348C6.322545 -45.541295 6.428571 -45.290179 6.428571 -45.000000L6.428571 -42.857143L12.857143 -42.857143L12.857143 -49.285714L10.714286 -49.285714C10.424107 -49.285714 10.172991 -49.391741 9.960938 -49.603795C9.748884 -49.815848 9.642857 -50.066964 9.642857 -50.357143C9.642857 -50.647321 9.748884 -50.898438 9.960938 -51.110491L14.246652 -55.396205C14.458705 -55.608259 14.709821 -55.714286 15.000000 -55.714286C15.290179 -55.714286 15.541295 -55.608259 15.753348 -55.396205L20.039062 -51.110491C20.251116 -50.898438 20.357143 -50.647321 20.357143 -50.357143C20.357143 -50.066964 20.251116 -49.815848 20.039062 -49.603795C19.827009 -49.391741 19.575893 -49.285714 19.285714 -49.285714L17.142857 -49.285714L17.142857 -42.857143L23.571429 -42.857143L23.571429 -45.000000C23.571429 -45.290179 23.677455 -45.541295 23.889509 -45.753348C24.101562 -45.965402 24.352679 -46.071429 24.642857 -46.071429C24.933036 -46.071429 25.184152 -45.965402 25.396205 -45.753348L29.681920 -41.467634C29.893973 -41.255580 30.000000 -41.004464 30.000000 -40.714286ZM30.000000 -40.714286"></path></svg>