<svg width="24.642857" height="26.082589" viewBox="0.000000 -48.766741 24.642857 26.082589" xmlns="http://www.w3.org/2000/svg"><path d="M24.642857 -35.725446C24.642857 -35.122768 24.436384 -34.614955 24.023438 -34.202009L13.125000 -23.303571C12.689732 -22.890625 12.181920 -22.684152 11.601562 -22.684152C11.032366 -22.684152 10.530134 -22.890625 10.094866 -23.303571L8.839286 -24.559152C8.415179 -24.983259 8.203125 -25.491071 8.203125 -26.082589C8.203125 -26.674107 8.415179 -27.181920 8.839286 -27.606027L13.744420 -32.511161L1.958705 -32.511161C1.378348 -32.511161 0.906808 -32.720424 0.544085 -33.138951C0.181362 -33.557478 0.000000 -34.062500 0.000000 -34.654018L0.000000 -36.796875C0.000000 -37.388393 0.181362 -37.893415 0.544085 -38.311942C0.906808 -38.730469 1.378348 -38.939732 1.958705 -38.939732L13.744420 -38.939732L8.839286 -43.861607C8.415179 -44.263393 8.203125 -44.765625 8.203125 -45.368304C8.203125 -45.970982 8.415179 -46.473214 8.839286 -46.875000L10.094866 -48.130580C10.518973 -48.554688 11.021205 -48.766741 11.601562 -48.766741C12.193080 -48.766741 12.700893 -48.554688 13.125000 -48.130580L24.023438 -37.232143C24.436384 -36.841518 24.642857 -36.339286 24.642857 -35.725446ZM24.642857 -35.725446"></path></svg>