<svg width="24.642857" height="26.082589" viewBox="1.071429 -48.766741 24.642857 26.082589" xmlns="http://www.w3.org/2000/svg"><path d="M25.714286 -36.796875L25.714286 -34.654018C25.714286 -34.062500 25.532924 -33.557478 25.170201 -33.138951C24.807478 -32.720424 24.335938 -32.511161 23.755580 -32.511161L11.969866 -32.511161L16.875000 -27.589286C17.299107 -27.187500 17.511161 -26.685268 17.511161 -26.082589C17.511161 -25.479911 17.299107 -24.977679 16.875000 -24.575893L15.619420 -23.303571C15.206473 -22.890625 14.704241 -22.684152 14.112723 -22.684152C13.532366 -22.684152 13.024554 -22.890625 12.589286 -23.303571L1.690848 -34.218750C1.277902 -34.631696 1.071429 -35.133929 1.071429 -35.725446C1.071429 -36.305804 1.277902 -36.813616 1.690848 -37.248884L12.589286 -48.130580C13.013393 -48.554688 13.521205 -48.766741 14.112723 -48.766741C14.693080 -48.766741 15.195312 -48.554688 15.619420 -48.130580L16.875000 -46.891741C17.299107 -46.467634 17.511161 -45.959821 17.511161 -45.368304C17.511161 -44.776786 17.299107 -44.268973 16.875000 -43.844866L11.969866 -38.939732L23.755580 -38.939732C24.335938 -38.939732 24.807478 -38.730469 25.170201 -38.311942C25.532924 -37.893415 25.714286 -37.388393 25.714286 -36.796875ZM25.714286 -36.796875"></path></svg>