<svg width="25.714286" height="25.797991" viewBox="0.000000 -49.453125 25.714286 25.797991" xmlns="http://www.w3.org/2000/svg"><path d="M21.964286 -36.562500C21.964286 -38.359375 21.478795 -40.005580 20.507812 -41.501116L7.885045 -28.895089C9.414062 -27.901786 11.071429 -27.405134 12.857143 -27.405134C14.095982 -27.405134 15.276228 -27.647879 16.397879 -28.133371C17.519531 -28.618862 18.487723 -29.268973 19.302455 -30.083705C20.117188 -30.898438 20.764509 -31.872210 21.244420 -33.005022C21.724330 -34.137835 21.964286 -35.323661 21.964286 -36.562500ZM5.239955 -31.556920L17.879464 -44.179688C16.372768 -45.195312 14.698661 -45.703125 12.857143 -45.703125C11.205357 -45.703125 9.681920 -45.295759 8.286830 -44.481027C6.891741 -43.666295 5.786830 -42.555804 4.972098 -41.149554C4.157366 -39.743304 3.750000 -38.214286 3.750000 -36.562500C3.750000 -34.754464 4.246652 -33.085938 5.239955 -31.556920ZM25.714286 -36.562500C25.714286 -34.810268 25.373884 -33.136161 24.693080 -31.540179C24.012277 -29.944196 23.099888 -28.571429 21.955915 -27.421875C20.811942 -26.272321 19.444754 -25.357143 17.854353 -24.676339C16.263951 -23.995536 14.598214 -23.655134 12.857143 -23.655134C11.116071 -23.655134 9.450335 -23.995536 7.859933 -24.676339C6.269531 -25.357143 4.902344 -26.272321 3.758371 -27.421875C2.614397 -28.571429 1.702009 -29.944196 1.021205 -31.540179C0.340402 -33.136161 0.000000 -34.810268 0.000000 -36.562500C0.000000 -38.314732 0.340402 -39.986049 1.021205 -41.576451C1.702009 -43.166853 2.614397 -44.536830 3.758371 -45.686384C4.902344 -46.835938 6.269531 -47.751116 7.859933 -48.431920C9.450335 -49.112723 11.116071 -49.453125 12.857143 -49.453125C14.598214 -49.453125 16.263951 -49.112723 17.854353 -48.431920C19.444754 -47.751116 20.811942 -46.835938 21.955915 -45.686384C23.099888 -44.536830 24.012277 -43.166853 24.693080 -41.576451C25.373884 -39.986049 25.714286 -38.314732 25.714286 -36.562500ZM25.714286 -36.562500"></path></svg>