<svg width="26.785714" height="23.571429" viewBox="1.071429 -47.142857 26.785714 23.571429" xmlns="http://www.w3.org/2000/svg"><path d="M10.714286 -34.285714L10.714286 -40.714286L6.428571 -40.714286L6.428571 -36.428571C6.428571 -35.837054 6.637835 -35.332031 7.056362 -34.913504C7.474888 -34.494978 7.979911 -34.285714 8.571429 -34.285714ZM27.857143 -26.785714L27.857143 -23.571429L8.571429 -23.571429L8.571429 -26.785714L10.714286 -30.000000L8.571429 -30.000000C6.796875 -30.000000 5.281808 -30.627790 4.026228 -31.883371C2.770647 -33.138951 2.142857 -34.654018 2.142857 -36.428571L2.142857 -41.785714L1.071429 -42.857143L1.607143 -45.000000L9.642857 -45.000000L10.178571 -47.142857L26.250000 -47.142857L26.785714 -43.928571L25.714286 -43.392857L25.714286 -30.000000ZM27.857143 -26.785714"></path></svg>