<svg width="30.000000" height="30.000000" viewBox="0.000000 -55.714286 30.000000 30.000000" xmlns="http://www.w3.org/2000/svg"><path d="M11.785714 -50.357143L11.785714 -37.500000C11.785714 -37.209821 11.679688 -36.958705 11.467634 -36.746652C11.255580 -36.534598 11.004464 -36.428571 10.714286 -36.428571L10.714286 -26.785714C10.714286 -26.495536 10.608259 -26.244420 10.396205 -26.032366C10.184152 -25.820312 9.933036 -25.714286 9.642857 -25.714286L1.071429 -25.714286C0.781250 -25.714286 0.530134 -25.820312 0.318080 -26.032366C0.106027 -26.244420 0.000000 -26.495536 0.000000 -26.785714L0.000000 -35.357143L4.168527 -49.972098C4.246652 -50.228795 4.419643 -50.357143 4.687500 -50.357143ZM17.142857 -50.357143L17.142857 -38.571429L12.857143 -38.571429L12.857143 -50.357143ZM30.000000 -35.357143L30.000000 -26.785714C30.000000 -26.495536 29.893973 -26.244420 29.681920 -26.032366C29.469866 -25.820312 29.218750 -25.714286 28.928571 -25.714286L20.357143 -25.714286C20.066964 -25.714286 19.815848 -25.820312 19.603795 -26.032366C19.391741 -26.244420 19.285714 -26.495536 19.285714 -26.785714L19.285714 -36.428571C18.995536 -36.428571 18.744420 -36.534598 18.532366 -36.746652C18.320312 -36.958705 18.214286 -37.209821 18.214286 -37.500000L18.214286 -50.357143L25.312500 -50.357143C25.580357 -50.357143 25.753348 -50.228795 25.831473 -49.972098ZM12.321429 -55.178571L12.321429 -51.428571L6.428571 -51.428571L6.428571 -55.178571C6.428571 -55.334821 6.478795 -55.463170 6.579241 -55.563616C6.679688 -55.664062 6.808036 -55.714286 6.964286 -55.714286L11.785714 -55.714286C11.941964 -55.714286 12.070312 -55.664062 12.170759 -55.563616C12.271205 -55.463170 12.321429 -55.334821 12.321429 -55.178571ZM23.571429 -55.178571L23.571429 -51.428571L17.678571 -51.428571L17.678571 -55.178571C17.678571 -55.334821 17.728795 -55.463170 17.829241 -55.563616C17.929688 -55.664062 18.058036 -55.714286 18.214286 -55.714286L23.035714 -55.714286C23.191964 -55.714286 23.320312 -55.664062 23.420759 -55.563616C23.521205 -55.463170 23.571429 -55.334821 23.571429 -55.178571ZM23.571429 -55.178571"></path></svg>