<svg width="23.571429" height="25.714286" viewBox="0.000000 -49.285714 23.571429 25.714286" xmlns="http://www.w3.org/2000/svg"><path d="M9.291295 -25.965402C10.117188 -25.608259 10.898438 -25.429687 11.635045 -25.429687C15.831473 -25.429687 17.929688 -27.299107 17.929688 -31.037946C17.929688 -32.310268 17.700893 -33.314732 17.243304 -34.051339C16.941964 -34.542411 16.598772 -34.955357 16.213728 -35.290179C15.828683 -35.625000 15.452009 -35.884487 15.083705 -36.068638C14.715402 -36.252790 14.266183 -36.392299 13.736049 -36.487165C13.205915 -36.582031 12.737165 -36.640625 12.329799 -36.662946C11.922433 -36.685268 11.395089 -36.696429 10.747768 -36.696429C9.933036 -36.696429 9.369420 -36.640625 9.056920 -36.529018C9.056920 -35.937500 9.054129 -35.050223 9.048549 -33.867188C9.042969 -32.684152 9.040179 -31.802455 9.040179 -31.222098C9.040179 -31.132812 9.034598 -30.756138 9.023438 -30.092076C9.012277 -29.428013 9.009487 -28.889509 9.015067 -28.476562C9.020647 -28.063616 9.045759 -27.597656 9.090402 -27.078683C9.135045 -26.559710 9.202009 -26.188616 9.291295 -25.965402ZM9.056920 -38.454241C9.525670 -38.376116 10.133929 -38.337054 10.881696 -38.337054C11.796875 -38.337054 12.594866 -38.409598 13.275670 -38.554688C13.956473 -38.699777 14.570312 -38.948103 15.117188 -39.299665C15.664062 -39.651228 16.079799 -40.150670 16.364397 -40.797991C16.648996 -41.445312 16.791295 -42.237723 16.791295 -43.175223C16.791295 -43.956473 16.629464 -44.640067 16.305804 -45.226004C15.982143 -45.811942 15.541295 -46.269531 14.983259 -46.598772C14.425223 -46.928013 13.822545 -47.170759 13.175223 -47.327009C12.527902 -47.483259 11.835938 -47.561384 11.099330 -47.561384C10.541295 -47.561384 9.815848 -47.488839 8.922991 -47.343750C8.922991 -46.785714 8.945312 -45.943080 8.989955 -44.815848C9.034598 -43.688616 9.056920 -42.840402 9.056920 -42.271205C9.056920 -41.969866 9.054129 -41.523438 9.048549 -40.931920C9.042969 -40.340402 9.040179 -39.899554 9.040179 -39.609375C9.040179 -39.095982 9.045759 -38.710938 9.056920 -38.454241ZM0.000000 -23.571429L0.033482 -25.145089C0.200893 -25.189732 0.675223 -25.279018 1.456473 -25.412946C2.237723 -25.546875 2.829241 -25.697545 3.231027 -25.864955C3.309152 -25.998884 3.378906 -26.149554 3.440290 -26.316964C3.501674 -26.484375 3.549107 -26.671317 3.582589 -26.877790C3.616071 -27.084263 3.646763 -27.265625 3.674665 -27.421875C3.702567 -27.578125 3.719308 -27.787388 3.724888 -28.049665C3.730469 -28.311942 3.733259 -28.501674 3.733259 -28.618862C3.733259 -28.736049 3.733259 -28.934152 3.733259 -29.213170C3.733259 -29.492187 3.733259 -29.659598 3.733259 -29.715402C3.733259 -40.675223 3.610491 -46.395089 3.364955 -46.875000C3.320312 -46.964286 3.197545 -47.045201 2.996652 -47.117746C2.795759 -47.190290 2.547433 -47.251674 2.251674 -47.301897C1.955915 -47.352121 1.679688 -47.391183 1.422991 -47.419085C1.166295 -47.446987 0.895647 -47.472098 0.611049 -47.494420C0.326451 -47.516741 0.156250 -47.533482 0.100446 -47.544643L0.033482 -48.934152C1.127232 -48.956473 3.024554 -49.020647 5.725446 -49.126674C8.426339 -49.232701 10.507812 -49.285714 11.969866 -49.285714C12.226562 -49.285714 12.606027 -49.282924 13.108259 -49.277344C13.610491 -49.271763 13.989955 -49.268973 14.246652 -49.268973C15.027902 -49.268973 15.789621 -49.196429 16.531808 -49.051339C17.273996 -48.906250 17.991071 -48.671875 18.683036 -48.348214C19.375000 -48.024554 19.977679 -47.628348 20.491071 -47.159598C21.004464 -46.690848 21.417411 -46.107701 21.729911 -45.410156C22.042411 -44.712612 22.198661 -43.945312 22.198661 -43.108259C22.198661 -42.527902 22.106585 -41.994978 21.922433 -41.509487C21.738281 -41.023996 21.520647 -40.622210 21.269531 -40.304129C21.018415 -39.986049 20.658482 -39.665179 20.189732 -39.341518C19.720982 -39.017857 19.313616 -38.766741 18.967634 -38.588170C18.621652 -38.409598 18.152902 -38.186384 17.561384 -37.918527C19.280134 -37.527902 20.711496 -36.780134 21.855469 -35.675223C22.999442 -34.570312 23.571429 -33.186384 23.571429 -31.523437C23.571429 -30.407366 23.376116 -29.405692 22.985491 -28.518415C22.594866 -27.631138 22.073103 -26.902902 21.420201 -26.333705C20.767299 -25.764509 19.997210 -25.287388 19.109933 -24.902344C18.222656 -24.517299 17.310268 -24.246652 16.372768 -24.090402C15.435268 -23.934152 14.453125 -23.856027 13.426339 -23.856027C12.935268 -23.856027 12.198661 -23.872768 11.216518 -23.906250C10.234375 -23.939732 9.497768 -23.956473 9.006696 -23.956473C7.823661 -23.956473 6.110491 -23.895089 3.867188 -23.772321C1.623884 -23.649554 0.334821 -23.582589 0.000000 -23.571429ZM0.000000 -23.571429"></path></svg>