<svg width="25.714286" height="30.000000" viewBox="0.000000 -55.714286 25.714286 30.000000" xmlns="http://www.w3.org/2000/svg"><path d="M6.428571 -35.357143C6.428571 -35.948661 6.219308 -36.453683 5.800781 -36.872210C5.382254 -37.290737 4.877232 -37.500000 4.285714 -37.500000C3.694196 -37.500000 3.189174 -37.290737 2.770647 -36.872210C2.352121 -36.453683 2.142857 -35.948661 2.142857 -35.357143C2.142857 -34.765625 2.352121 -34.260603 2.770647 -33.842076C3.189174 -33.423549 3.694196 -33.214286 4.285714 -33.214286C4.877232 -33.214286 5.382254 -33.423549 5.800781 -33.842076C6.219308 -34.260603 6.428571 -34.765625 6.428571 -35.357143ZM23.571429 -35.357143C23.571429 -35.948661 23.362165 -36.453683 22.943638 -36.872210C22.525112 -37.290737 22.020089 -37.500000 21.428571 -37.500000C20.837054 -37.500000 20.332031 -37.290737 19.913504 -36.872210C19.494978 -36.453683 19.285714 -35.948661 19.285714 -35.357143C19.285714 -34.765625 19.494978 -34.260603 19.913504 -33.842076C20.332031 -33.423549 20.837054 -33.214286 21.428571 -33.214286C22.020089 -33.214286 22.525112 -33.423549 22.943638 -33.842076C23.362165 -34.260603 23.571429 -34.765625 23.571429 -35.357143ZM22.801339 -41.986607L21.595982 -48.415179C21.540179 -48.671875 21.414621 -48.881138 21.219308 -49.042969C21.023996 -49.204799 20.797991 -49.285714 20.541295 -49.285714L5.172991 -49.285714C4.916295 -49.285714 4.690290 -49.204799 4.494978 -49.042969C4.299665 -48.881138 4.174107 -48.671875 4.118304 -48.415179L2.912946 -41.986607C2.857143 -41.651786 2.935268 -41.356027 3.147321 -41.099330C3.359375 -40.842634 3.632812 -40.714286 3.967634 -40.714286L21.746652 -40.714286C22.081473 -40.714286 22.354911 -40.842634 22.566964 -41.099330C22.779018 -41.356027 22.857143 -41.651786 22.801339 -41.986607ZM19.017857 -52.232143C19.017857 -52.455357 18.939732 -52.645089 18.783482 -52.801339C18.627232 -52.957589 18.437500 -53.035714 18.214286 -53.035714L7.500000 -53.035714C7.276786 -53.035714 7.087054 -52.957589 6.930804 -52.801339C6.774554 -52.645089 6.696429 -52.455357 6.696429 -52.232143C6.696429 -52.008929 6.774554 -51.819196 6.930804 -51.662946C7.087054 -51.506696 7.276786 -51.428571 7.500000 -51.428571L18.214286 -51.428571C18.437500 -51.428571 18.627232 -51.506696 18.783482 -51.662946C18.939732 -51.819196 19.017857 -52.008929 19.017857 -52.232143ZM25.714286 -40.094866L25.714286 -30.000000L23.571429 -30.000000L23.571429 -27.857143C23.571429 -27.265625 23.362165 -26.760603 22.943638 -26.342076C22.525112 -25.923549 22.020089 -25.714286 21.428571 -25.714286C20.837054 -25.714286 20.332031 -25.923549 19.913504 -26.342076C19.494978 -26.760603 19.285714 -27.265625 19.285714 -27.857143L19.285714 -30.000000L6.428571 -30.000000L6.428571 -27.857143C6.428571 -27.265625 6.219308 -26.760603 5.800781 -26.342076C5.382254 -25.923549 4.877232 -25.714286 4.285714 -25.714286C3.694196 -25.714286 3.189174 -25.923549 2.770647 -26.342076C2.352121 -26.760603 2.142857 -27.265625 2.142857 -27.857143L2.142857 -30.000000L0.000000 -30.000000L0.000000 -40.094866C0.000000 -41.344866 0.139509 -42.589286 0.418527 -43.828125L2.142857 -51.428571C2.243304 -52.299107 2.787388 -53.063616 3.775112 -53.722098C4.762835 -54.380580 6.046317 -54.877232 7.625558 -55.212054C9.204799 -55.546875 10.948661 -55.714286 12.857143 -55.714286C14.765625 -55.714286 16.509487 -55.546875 18.088728 -55.212054C19.667969 -54.877232 20.951451 -54.380580 21.939174 -53.722098C22.926897 -53.063616 23.470982 -52.299107 23.571429 -51.428571L25.329241 -43.828125C25.585938 -42.689732 25.714286 -41.445312 25.714286 -40.094866ZM25.714286 -40.094866"></path></svg>