<svg width="25.714286" height="25.714286" viewBox="0.000000 -49.285714 25.714286 25.714286" xmlns="http://www.w3.org/2000/svg"><path d="M15.318080 -33.247768L10.396205 -33.247768L12.857143 -42.472098ZM16.757812 -27.857143L21.964286 -27.857143L16.540179 -45.000000L9.174107 -45.000000L3.750000 -27.857143L8.956473 -27.857143L15.368304 -33.113839ZM25.714286 -44.464286L25.714286 -28.392857C25.714286 -27.075893 25.239955 -25.943080 24.291295 -24.994420C23.342634 -24.045759 22.209821 -23.571429 20.892857 -23.571429L4.821429 -23.571429C3.504464 -23.571429 2.371652 -24.045759 1.422991 -24.994420C0.474330 -25.943080 0.000000 -27.075893 0.000000 -28.392857L0.000000 -44.464286C0.000000 -45.781250 0.474330 -46.914062 1.422991 -47.862723C2.371652 -48.811384 3.504464 -49.285714 4.821429 -49.285714L20.892857 -49.285714C22.209821 -49.285714 23.342634 -48.811384 24.291295 -47.862723C25.239955 -46.914062 25.714286 -45.781250 25.714286 -44.464286ZM25.714286 -44.464286"></path></svg>