<svg width="27.857143" height="30.000000" viewBox="0.000000 -55.714286 27.857143 30.000000" xmlns="http://www.w3.org/2000/svg"><path d="M2.142857 -27.857143L6.964286 -27.857143L6.964286 -32.678571L2.142857 -32.678571ZM8.035714 -27.857143L13.392857 -27.857143L13.392857 -32.678571L8.035714 -32.678571ZM2.142857 -33.750000L6.964286 -33.750000L6.964286 -39.107143L2.142857 -39.107143ZM8.035714 -33.750000L13.392857 -33.750000L13.392857 -39.107143L8.035714 -39.107143ZM2.142857 -40.178571L6.964286 -40.178571L6.964286 -45.000000L2.142857 -45.000000ZM14.464286 -27.857143L19.821429 -27.857143L19.821429 -32.678571L14.464286 -32.678571ZM8.035714 -40.178571L13.392857 -40.178571L13.392857 -45.000000L8.035714 -45.000000ZM20.892857 -27.857143L25.714286 -27.857143L25.714286 -32.678571L20.892857 -32.678571ZM14.464286 -33.750000L19.821429 -33.750000L19.821429 -39.107143L14.464286 -39.107143ZM8.571429 -48.214286L8.571429 -53.035714C8.571429 -53.180804 8.518415 -53.306362 8.412388 -53.412388C8.306362 -53.518415 8.180804 -53.571429 8.035714 -53.571429L6.964286 -53.571429C6.819196 -53.571429 6.693638 -53.518415 6.587612 -53.412388C6.481585 -53.306362 6.428571 -53.180804 6.428571 -53.035714L6.428571 -48.214286C6.428571 -48.069196 6.481585 -47.943638 6.587612 -47.837612C6.693638 -47.731585 6.819196 -47.678571 6.964286 -47.678571L8.035714 -47.678571C8.180804 -47.678571 8.306362 -47.731585 8.412388 -47.837612C8.518415 -47.943638 8.571429 -48.069196 8.571429 -48.214286ZM20.892857 -33.750000L25.714286 -33.750000L25.714286 -39.107143L20.892857 -39.107143ZM14.464286 -40.178571L19.821429 -40.178571L19.821429 -45.000000L14.464286 -45.000000ZM20.892857 -40.178571L25.714286 -40.178571L25.714286 -45.000000L20.892857 -45.000000ZM21.428571 -48.214286L21.428571 -53.035714C21.428571 -53.180804 21.375558 -53.306362 21.269531 -53.412388C21.163504 -53.518415 21.037946 -53.571429 20.892857 -53.571429L19.821429 -53.571429C19.676339 -53.571429 19.550781 -53.518415 19.444754 -53.412388C19.338728 -53.306362 19.285714 -53.180804 19.285714 -53.035714L19.285714 -48.214286C19.285714 -48.069196 19.338728 -47.943638 19.444754 -47.837612C19.550781 -47.731585 19.676339 -47.678571 19.821429 -47.678571L20.892857 -47.678571C21.037946 -47.678571 21.163504 -47.731585 21.269531 -47.837612C21.375558 -47.943638 21.428571 -48.069196 21.428571 -48.214286ZM27.857143 -49.285714L27.857143 -27.857143C27.857143 -27.276786 27.645089 -26.774554 27.220982 -26.350446C26.796875 -25.926339 26.294643 -25.714286 25.714286 -25.714286L2.142857 -25.714286C1.562500 -25.714286 1.060268 -25.926339 0.636161 -26.350446C0.212054 -26.774554 0.000000 -27.276786 0.000000 -27.857143L0.000000 -49.285714C0.000000 -49.866071 0.212054 -50.368304 0.636161 -50.792411C1.060268 -51.216518 1.562500 -51.428571 2.142857 -51.428571L4.285714 -51.428571L4.285714 -53.035714C4.285714 -53.772321 4.547991 -54.402902 5.072545 -54.927455C5.597098 -55.452009 6.227679 -55.714286 6.964286 -55.714286L8.035714 -55.714286C8.772321 -55.714286 9.402902 -55.452009 9.927455 -54.927455C10.452009 -54.402902 10.714286 -53.772321 10.714286 -53.035714L10.714286 -51.428571L17.142857 -51.428571L17.142857 -53.035714C17.142857 -53.772321 17.405134 -54.402902 17.929688 -54.927455C18.454241 -55.452009 19.084821 -55.714286 19.821429 -55.714286L20.892857 -55.714286C21.629464 -55.714286 22.260045 -55.452009 22.784598 -54.927455C23.309152 -54.402902 23.571429 -53.772321 23.571429 -53.035714L23.571429 -51.428571L25.714286 -51.428571C26.294643 -51.428571 26.796875 -51.216518 27.220982 -50.792411C27.645089 -50.368304 27.857143 -49.866071 27.857143 -49.285714ZM27.857143 -49.285714"></path></svg>