<svg width="32.142857" height="27.857143" viewBox="0.000000 -53.571429 32.142857 27.857143" xmlns="http://www.w3.org/2000/svg"><path d="M16.071429 -42.321429C17.399554 -42.321429 18.535156 -41.849888 19.478237 -40.906808C20.421317 -39.963728 20.892857 -38.828125 20.892857 -37.500000C20.892857 -36.171875 20.421317 -35.036272 19.478237 -34.093192C18.535156 -33.150112 17.399554 -32.678571 16.071429 -32.678571C14.743304 -32.678571 13.607701 -33.150112 12.664621 -34.093192C11.721540 -35.036272 11.250000 -36.171875 11.250000 -37.500000C11.250000 -38.828125 11.721540 -39.963728 12.664621 -40.906808C13.607701 -41.849888 14.743304 -42.321429 16.071429 -42.321429ZM27.857143 -49.285714C29.040179 -49.285714 30.050223 -48.867188 30.887277 -48.030134C31.724330 -47.193080 32.142857 -46.183036 32.142857 -45.000000L32.142857 -30.000000C32.142857 -28.816964 31.724330 -27.806920 30.887277 -26.969866C30.050223 -26.132812 29.040179 -25.714286 27.857143 -25.714286L4.285714 -25.714286C3.102679 -25.714286 2.092634 -26.132812 1.255580 -26.969866C0.418527 -27.806920 0.000000 -28.816964 0.000000 -30.000000L0.000000 -45.000000C0.000000 -46.183036 0.418527 -47.193080 1.255580 -48.030134C2.092634 -48.867188 3.102679 -49.285714 4.285714 -49.285714L8.035714 -49.285714L8.889509 -51.562500C9.101562 -52.109375 9.489397 -52.580915 10.053013 -52.977121C10.616629 -53.373326 11.194196 -53.571429 11.785714 -53.571429L20.357143 -53.571429C20.948661 -53.571429 21.526228 -53.373326 22.089844 -52.977121C22.653460 -52.580915 23.041295 -52.109375 23.253348 -51.562500L24.107143 -49.285714ZM16.071429 -30.000000C18.136161 -30.000000 19.902344 -30.733817 21.369978 -32.201451C22.837612 -33.669085 23.571429 -35.435268 23.571429 -37.500000C23.571429 -39.564732 22.837612 -41.330915 21.369978 -42.798549C19.902344 -44.266183 18.136161 -45.000000 16.071429 -45.000000C14.006696 -45.000000 12.240513 -44.266183 10.772879 -42.798549C9.305246 -41.330915 8.571429 -39.564732 8.571429 -37.500000C8.571429 -35.435268 9.305246 -33.669085 10.772879 -32.201451C12.240513 -30.733817 14.006696 -30.000000 16.071429 -30.000000ZM16.071429 -30.000000"></path></svg>