<svg width="30.000000" height="25.714286" viewBox="0.000000 -49.285714 30.000000 25.714286" xmlns="http://www.w3.org/2000/svg"><path d="M15.535714 -37.500000C15.535714 -37.656250 15.485491 -37.784598 15.385045 -37.885045C15.284598 -37.985491 15.156250 -38.035714 15.000000 -38.035714C14.263393 -38.035714 13.632812 -37.773438 13.108259 -37.248884C12.583705 -36.724330 12.321429 -36.093750 12.321429 -35.357143C12.321429 -35.200893 12.371652 -35.072545 12.472098 -34.972098C12.572545 -34.871652 12.700893 -34.821429 12.857143 -34.821429C13.013393 -34.821429 13.141741 -34.871652 13.242188 -34.972098C13.342634 -35.072545 13.392857 -35.200893 13.392857 -35.357143C13.392857 -35.803571 13.549107 -36.183036 13.861607 -36.495536C14.174107 -36.808036 14.553571 -36.964286 15.000000 -36.964286C15.156250 -36.964286 15.284598 -37.014509 15.385045 -37.114955C15.485491 -37.215402 15.535714 -37.343750 15.535714 -37.500000ZM19.285714 -35.323661C19.285714 -34.140625 18.867188 -33.130580 18.030134 -32.293527C17.193080 -31.456473 16.183036 -31.037946 15.000000 -31.037946C13.816964 -31.037946 12.806920 -31.456473 11.969866 -32.293527C11.132812 -33.130580 10.714286 -34.140625 10.714286 -35.323661C10.714286 -36.506696 11.132812 -37.516741 11.969866 -38.353795C12.806920 -39.190848 13.816964 -39.609375 15.000000 -39.609375C16.183036 -39.609375 17.193080 -39.190848 18.030134 -38.353795C18.867188 -37.516741 19.285714 -36.506696 19.285714 -35.323661ZM2.142857 -25.714286L27.857143 -25.714286L27.857143 -27.857143L2.142857 -27.857143ZM21.428571 -35.323661C21.428571 -37.098214 20.800781 -38.613281 19.545201 -39.868862C18.289621 -41.124442 16.774554 -41.752232 15.000000 -41.752232C13.225446 -41.752232 11.710379 -41.124442 10.454799 -39.868862C9.199219 -38.613281 8.571429 -37.098214 8.571429 -35.323661C8.571429 -33.549107 9.199219 -32.034040 10.454799 -30.778460C11.710379 -29.522879 13.225446 -28.895089 15.000000 -28.895089C16.774554 -28.895089 18.289621 -29.522879 19.545201 -30.778460C20.800781 -32.034040 21.428571 -33.549107 21.428571 -35.323661ZM4.285714 -46.071429L10.714286 -46.071429L10.714286 -48.214286L4.285714 -48.214286ZM2.142857 -42.857143L27.857143 -42.857143L27.857143 -44.832589L27.857143 -47.142857L13.995536 -47.142857L12.924107 -45.000000L2.142857 -45.000000ZM30.000000 -47.142857L30.000000 -25.714286C30.000000 -25.122768 29.790737 -24.617746 29.372210 -24.199219C28.953683 -23.780692 28.448661 -23.571429 27.857143 -23.571429L2.142857 -23.571429C1.551339 -23.571429 1.046317 -23.780692 0.627790 -24.199219C0.209263 -24.617746 0.000000 -25.122768 0.000000 -25.714286L0.000000 -47.142857C0.000000 -47.734375 0.209263 -48.239397 0.627790 -48.657924C1.046317 -49.076451 1.551339 -49.285714 2.142857 -49.285714L27.857143 -49.285714C28.448661 -49.285714 28.953683 -49.076451 29.372210 -48.657924C29.790737 -48.239397 30.000000 -47.734375 30.000000 -47.142857ZM30.000000 -47.142857"></path></svg>