<svg width="17.142857" height="9.642857" viewBox="0.000000 -24.642857 17.142857 9.642857" xmlns="http://www.w3.org/2000/svg"><path d="M17.142857 -23.571429C17.142857 -23.281250 17.036830 -23.030134 16.824777 -22.818080L9.324777 -15.318080C9.112723 -15.106027 8.861607 -15.000000 8.571429 -15.000000C8.281250 -15.000000 8.030134 -15.106027 7.818080 -15.318080L0.318080 -22.818080C0.106027 -23.030134 0.000000 -23.281250 0.000000 -23.571429C0.000000 -23.861607 0.106027 -24.112723 0.318080 -24.324777C0.530134 -24.536830 0.781250 -24.642857 1.071429 -24.642857L16.071429 -24.642857C16.361607 -24.642857 16.612723 -24.536830 16.824777 -24.324777C17.036830 -24.112723 17.142857 -23.861607 17.142857 -23.571429ZM17.142857 -23.571429"></path></svg>