<svg width="38.571429" height="25.714286" viewBox="0.000000 -49.285714 38.571429 25.714286" xmlns="http://www.w3.org/2000/svg"><path d="M18.733259 -45.719866C17.304688 -46.668527 15.736607 -47.142857 14.029018 -47.142857C12.879464 -47.142857 11.777344 -46.916853 10.722656 -46.464844C9.667969 -46.012835 8.761161 -45.407366 8.002232 -44.648438C7.243304 -43.889509 6.637835 -42.985491 6.185826 -41.936384C5.733817 -40.887277 5.507812 -39.787946 5.507812 -38.638393C5.507812 -37.477679 5.733817 -36.372768 6.185826 -35.323661C6.637835 -34.274554 7.243304 -33.370536 8.002232 -32.611607C8.761161 -31.852679 9.665179 -31.247210 10.714286 -30.795201C11.763393 -30.343192 12.868304 -30.117187 14.029018 -30.117187C15.736607 -30.117187 17.304688 -30.591518 18.733259 -31.540179C17.271205 -32.734375 16.277902 -34.215960 15.753348 -35.984933C15.228795 -37.753906 15.231585 -39.520089 15.761719 -41.283482C16.291853 -43.046875 17.282366 -44.525670 18.733259 -45.719866ZM19.285714 -45.318080C17.879464 -44.213170 16.919643 -42.820871 16.406250 -41.141183C15.892857 -39.461496 15.890067 -37.784598 16.397879 -36.110491C16.905692 -34.436384 17.868304 -33.046875 19.285714 -31.941964C20.703125 -33.046875 21.665737 -34.436384 22.173549 -36.110491C22.681362 -37.784598 22.678571 -39.461496 22.165179 -41.141183C21.651786 -42.820871 20.691964 -44.213170 19.285714 -45.318080ZM19.838170 -45.719866C21.289062 -44.525670 22.279576 -43.044085 22.809710 -41.275112C23.339844 -39.506138 23.342634 -37.737165 22.818080 -35.968192C22.293527 -34.199219 21.300223 -32.723214 19.838170 -31.540179C21.266741 -30.591518 22.834821 -30.117187 24.542411 -30.117187C25.703125 -30.117187 26.808036 -30.343192 27.857143 -30.795201C28.906250 -31.247210 29.810268 -31.852679 30.569196 -32.611607C31.328125 -33.370536 31.933594 -34.274554 32.385603 -35.323661C32.837612 -36.372768 33.063616 -37.477679 33.063616 -38.638393C33.063616 -39.787946 32.837612 -40.887277 32.385603 -41.936384C31.933594 -42.985491 31.328125 -43.889509 30.569196 -44.648438C29.810268 -45.407366 28.903460 -46.012835 27.848772 -46.464844C26.794085 -46.916853 25.691964 -47.142857 24.542411 -47.142857C22.834821 -47.142857 21.266741 -46.668527 19.838170 -45.719866ZM32.243304 -33.632812L32.360491 -33.632812L32.360491 -33.683036L32.075893 -33.683036L32.075893 -33.632812L32.193080 -33.632812L32.193080 -33.348214L32.243304 -33.348214ZM32.728795 -33.348214L32.795759 -33.348214L32.795759 -33.683036L32.712054 -33.683036L32.611607 -33.465402L32.511161 -33.683036L32.427455 -33.683036L32.427455 -33.348214L32.477679 -33.348214L32.477679 -33.599330L32.578125 -33.381696L32.645089 -33.381696L32.728795 -33.599330ZM32.594866 -25.982143L32.594866 -25.948661L32.561384 -25.948661L32.511161 -25.948661L32.511161 -25.998884L32.561384 -25.998884L32.594866 -25.998884ZM32.594866 -25.831473L32.645089 -25.831473L32.578125 -25.915179C32.589286 -25.915179 32.600446 -25.915179 32.611607 -25.915179L32.628348 -25.931920C32.639509 -25.943080 32.645089 -25.959821 32.645089 -25.982143C32.645089 -26.004464 32.639509 -26.021205 32.628348 -26.032366L32.611607 -26.049107C32.589286 -26.049107 32.572545 -26.049107 32.561384 -26.049107L32.460938 -26.049107L32.460938 -25.831473L32.511161 -25.831473L32.511161 -25.915179L32.527902 -25.915179ZM11.467634 -26.969866C11.467634 -27.181920 11.529018 -27.354911 11.651786 -27.488839C11.774554 -27.622768 11.941964 -27.689732 12.154018 -27.689732C12.354911 -27.689732 12.516741 -27.619978 12.639509 -27.480469C12.762277 -27.340960 12.823661 -27.170759 12.823661 -26.969866C12.823661 -26.757812 12.762277 -26.584821 12.639509 -26.450893C12.516741 -26.316964 12.354911 -26.250000 12.154018 -26.250000C11.941964 -26.250000 11.774554 -26.316964 11.651786 -26.450893C11.529018 -26.584821 11.467634 -26.757812 11.467634 -26.969866ZM19.386161 -27.706473C19.720982 -27.706473 19.916295 -27.527902 19.972098 -27.170759L18.800223 -27.170759C18.856027 -27.527902 19.051339 -27.706473 19.386161 -27.706473ZM25.345982 -26.969866C25.345982 -27.181920 25.407366 -27.354911 25.530134 -27.488839C25.652902 -27.622768 25.814732 -27.689732 26.015625 -27.689732C26.216518 -27.689732 26.381138 -27.619978 26.509487 -27.480469C26.637835 -27.340960 26.702009 -27.170759 26.702009 -26.969866C26.702009 -26.757812 26.640625 -26.584821 26.517857 -26.450893C26.395089 -26.316964 26.227679 -26.250000 26.015625 -26.250000C25.814732 -26.250000 25.652902 -26.316964 25.530134 -26.450893C25.407366 -26.584821 25.345982 -26.757812 25.345982 -26.969866ZM29.899554 -26.969866C29.899554 -27.170759 29.963728 -27.340960 30.092076 -27.480469C30.220424 -27.619978 30.385045 -27.689732 30.585938 -27.689732C30.786830 -27.689732 30.951451 -27.619978 31.079799 -27.480469C31.208147 -27.340960 31.272321 -27.170759 31.272321 -26.969866C31.272321 -26.757812 31.208147 -26.584821 31.079799 -26.450893C30.951451 -26.316964 30.786830 -26.250000 30.585938 -26.250000C30.385045 -26.250000 30.220424 -26.319754 30.092076 -26.459263C29.963728 -26.598772 29.899554 -26.768973 29.899554 -26.969866ZM32.544643 -25.764509C32.522321 -25.764509 32.500000 -25.770089 32.477679 -25.781250C32.466518 -25.781250 32.449777 -25.792411 32.427455 -25.814732C32.405134 -25.837054 32.393973 -25.853795 32.393973 -25.864955C32.382812 -25.887277 32.377232 -25.909598 32.377232 -25.931920C32.377232 -25.965402 32.382812 -25.987723 32.393973 -25.998884C32.393973 -26.021205 32.405134 -26.043527 32.427455 -26.065848C32.438616 -26.077009 32.444196 -26.082589 32.444196 -26.082589C32.466518 -26.082589 32.477679 -26.088170 32.477679 -26.099330C32.500000 -26.110491 32.522321 -26.116071 32.544643 -26.116071C32.578125 -26.116071 32.600446 -26.110491 32.611607 -26.099330C32.656250 -26.077009 32.678571 -26.065848 32.678571 -26.065848L32.712054 -25.998884L32.712054 -25.982143C32.723214 -25.959821 32.728795 -25.943080 32.728795 -25.931920L32.712054 -25.915179C32.712054 -25.892857 32.712054 -25.876116 32.712054 -25.864955C32.712054 -25.853795 32.706473 -25.848214 32.695312 -25.848214L32.678571 -25.814732C32.656250 -25.792411 32.633929 -25.781250 32.611607 -25.781250C32.600446 -25.770089 32.578125 -25.764509 32.544643 -25.764509ZM10.027902 -25.831473L10.530134 -25.831473L10.530134 -27.254464C10.530134 -27.522321 10.449219 -27.737165 10.287388 -27.898996C10.125558 -28.060826 9.905134 -28.147321 9.626116 -28.158482C9.268973 -28.158482 9.006696 -28.024554 8.839286 -27.756696C8.683036 -28.024554 8.431920 -28.158482 8.085938 -28.158482C7.818080 -28.158482 7.600446 -28.046875 7.433036 -27.823661L7.433036 -28.091518L6.930804 -28.091518L6.930804 -25.831473L7.433036 -25.831473L7.433036 -27.087054C7.433036 -27.488839 7.617188 -27.689732 7.985491 -27.689732C8.320312 -27.689732 8.487723 -27.488839 8.487723 -27.087054L8.487723 -25.831473L8.973214 -25.831473L8.973214 -27.087054C8.973214 -27.488839 9.157366 -27.689732 9.525670 -27.689732C9.860491 -27.689732 10.027902 -27.488839 10.027902 -27.087054ZM12.806920 -25.831473L13.292411 -25.831473L13.292411 -26.969866L13.292411 -28.091518L12.806920 -28.091518L12.806920 -27.823661C12.617188 -28.046875 12.377232 -28.158482 12.087054 -28.158482C11.763393 -28.158482 11.495536 -28.046875 11.283482 -27.823661C11.071429 -27.600446 10.965402 -27.315848 10.965402 -26.969866C10.965402 -26.623884 11.071429 -26.339286 11.283482 -26.116071C11.495536 -25.892857 11.763393 -25.781250 12.087054 -25.781250C12.399554 -25.781250 12.639509 -25.892857 12.806920 -26.116071ZM15.786830 -26.517857C15.786830 -26.897321 15.524554 -27.120536 15.000000 -27.187500L14.765625 -27.220982C14.508929 -27.265625 14.380580 -27.343750 14.380580 -27.455357C14.380580 -27.622768 14.520089 -27.706473 14.799107 -27.706473C15.055804 -27.706473 15.295759 -27.645089 15.518973 -27.522321L15.719866 -27.924107C15.474330 -28.080357 15.167411 -28.158482 14.799107 -28.158482C14.508929 -28.158482 14.280134 -28.091518 14.112723 -27.957589C13.945312 -27.823661 13.861607 -27.645089 13.861607 -27.421875C13.861607 -27.053571 14.123884 -26.835937 14.648438 -26.768973L14.866071 -26.735491C15.133929 -26.690848 15.267857 -26.612723 15.267857 -26.501116C15.267857 -26.311384 15.094866 -26.216518 14.748884 -26.216518C14.469866 -26.216518 14.218750 -26.294643 13.995536 -26.450893L13.777902 -26.065848C14.056920 -25.876116 14.380580 -25.781250 14.748884 -25.781250C15.072545 -25.781250 15.326451 -25.848214 15.510603 -25.982143C15.694754 -26.116071 15.786830 -26.294643 15.786830 -26.517857ZM17.963170 -25.948661L17.829241 -26.367187C17.684152 -26.289062 17.539062 -26.250000 17.393973 -26.250000C17.181920 -26.250000 17.075893 -26.372768 17.075893 -26.618304L17.075893 -27.639509L17.879464 -27.639509L17.879464 -28.091518L17.075893 -28.091518L17.075893 -28.777902L16.573661 -28.777902L16.573661 -28.091518L16.104911 -28.091518L16.104911 -27.639509L16.573661 -27.639509L16.573661 -26.618304C16.573661 -26.060268 16.835938 -25.781250 17.360491 -25.781250C17.594866 -25.781250 17.795759 -25.837054 17.963170 -25.948661ZM19.402902 -28.158482C19.079241 -28.158482 18.811384 -28.046875 18.599330 -27.823661C18.387277 -27.600446 18.281250 -27.315848 18.281250 -26.969866C18.281250 -26.612723 18.390067 -26.325335 18.607701 -26.107701C18.825335 -25.890067 19.101562 -25.781250 19.436384 -25.781250C19.804688 -25.781250 20.111607 -25.887277 20.357143 -26.099330L20.122768 -26.467634C19.921875 -26.300223 19.704241 -26.216518 19.469866 -26.216518C19.090402 -26.216518 18.861607 -26.400670 18.783482 -26.768973L20.474330 -26.768973L20.474330 -26.969866C20.474330 -27.327009 20.373884 -27.614397 20.172991 -27.832031C19.972098 -28.049665 19.715402 -28.158482 19.402902 -28.158482ZM22.064732 -28.158482C21.808036 -28.158482 21.612723 -28.046875 21.478795 -27.823661L21.478795 -28.091518L20.976562 -28.091518L20.976562 -25.831473L21.478795 -25.831473L21.478795 -27.103795C21.478795 -27.494420 21.640625 -27.689732 21.964286 -27.689732C22.075893 -27.689732 22.176339 -27.667411 22.265625 -27.622768L22.416295 -28.091518C22.315848 -28.136161 22.198661 -28.158482 22.064732 -28.158482ZM22.566964 -26.969866C22.566964 -26.623884 22.675781 -26.339286 22.893415 -26.116071C23.111049 -25.892857 23.404018 -25.781250 23.772321 -25.781250C24.095982 -25.781250 24.363839 -25.870536 24.575893 -26.049107L24.341518 -26.450893C24.140625 -26.305804 23.945312 -26.238839 23.755580 -26.250000C23.554688 -26.250000 23.390067 -26.316964 23.261719 -26.450893C23.133371 -26.584821 23.069196 -26.757812 23.069196 -26.969866C23.069196 -27.181920 23.133371 -27.354911 23.261719 -27.488839C23.390067 -27.622768 23.554688 -27.689732 23.755580 -27.689732C23.967634 -27.689732 24.162946 -27.622768 24.341518 -27.488839L24.575893 -27.890625C24.352679 -28.069196 24.084821 -28.158482 23.772321 -28.158482C23.404018 -28.158482 23.111049 -28.046875 22.893415 -27.823661C22.675781 -27.600446 22.566964 -27.315848 22.566964 -26.969866ZM26.668527 -25.831473L27.170759 -25.831473L27.170759 -26.969866L27.170759 -28.091518L26.668527 -28.091518L26.668527 -27.823661C26.501116 -28.046875 26.266741 -28.158482 25.965402 -28.158482C25.641741 -28.158482 25.371094 -28.046875 25.153460 -27.823661C24.935826 -27.600446 24.827009 -27.315848 24.827009 -26.969866C24.827009 -26.623884 24.935826 -26.339286 25.153460 -26.116071C25.371094 -25.892857 25.641741 -25.781250 25.965402 -25.781250C26.277902 -25.781250 26.512277 -25.892857 26.668527 -26.116071ZM28.895089 -28.158482C28.638393 -28.158482 28.443080 -28.046875 28.309152 -27.823661L28.309152 -28.091518L27.823661 -28.091518L27.823661 -25.831473L28.309152 -25.831473L28.309152 -27.103795C28.309152 -27.494420 28.470982 -27.689732 28.794643 -27.689732C28.906250 -27.689732 29.006696 -27.667411 29.095982 -27.622768L29.246652 -28.091518C29.157366 -28.136161 29.040179 -28.158482 28.895089 -28.158482ZM31.238839 -25.831473L31.724330 -25.831473L31.724330 -26.969866L31.724330 -29.012277L31.238839 -29.012277L31.238839 -27.823661C31.071429 -28.046875 30.831473 -28.158482 30.518973 -28.158482C30.206473 -28.158482 29.941406 -28.044085 29.723772 -27.815290C29.506138 -27.586496 29.397321 -27.304687 29.397321 -26.969866C29.397321 -26.635045 29.506138 -26.353237 29.723772 -26.124442C29.941406 -25.895647 30.206473 -25.781250 30.518973 -25.781250C30.842634 -25.781250 31.082589 -25.892857 31.238839 -26.116071ZM32.544643 -26.166295L32.511161 -26.149554C32.488839 -26.149554 32.472098 -26.149554 32.460938 -26.149554C32.438616 -26.138393 32.416295 -26.121652 32.393973 -26.099330C32.360491 -26.088170 32.343750 -26.065848 32.343750 -26.032366C32.332589 -26.010045 32.327009 -25.976562 32.327009 -25.931920C32.327009 -25.898437 32.332589 -25.870536 32.343750 -25.848214C32.343750 -25.825893 32.360491 -25.803571 32.393973 -25.781250C32.416295 -25.758929 32.438616 -25.742187 32.460938 -25.731027C32.483259 -25.719866 32.511161 -25.714286 32.544643 -25.714286C32.589286 -25.714286 32.622768 -25.719866 32.645089 -25.731027C32.645089 -25.742187 32.656250 -25.753348 32.678571 -25.764509L32.712054 -25.781250C32.723214 -25.792411 32.739955 -25.814732 32.762277 -25.848214C32.773438 -25.870536 32.779018 -25.898437 32.779018 -25.931920C32.779018 -25.976562 32.773438 -26.010045 32.762277 -26.032366C32.751116 -26.043527 32.734375 -26.065848 32.712054 -26.099330C32.712054 -26.110491 32.700893 -26.121652 32.678571 -26.132812L32.645089 -26.149554C32.633929 -26.149554 32.617188 -26.152344 32.594866 -26.157924C32.572545 -26.163504 32.555804 -26.166295 32.544643 -26.166295ZM38.571429 -47.142857L38.571429 -25.714286C38.571429 -25.133929 38.359375 -24.631696 37.935268 -24.207589C37.511161 -23.783482 37.008929 -23.571429 36.428571 -23.571429L2.142857 -23.571429C1.562500 -23.571429 1.060268 -23.783482 0.636161 -24.207589C0.212054 -24.631696 0.000000 -25.133929 0.000000 -25.714286L0.000000 -47.142857C0.000000 -47.723214 0.212054 -48.225446 0.636161 -48.649554C1.060268 -49.073661 1.562500 -49.285714 2.142857 -49.285714L36.428571 -49.285714C37.008929 -49.285714 37.511161 -49.073661 37.935268 -48.649554C38.359375 -48.225446 38.571429 -47.723214 38.571429 -47.142857ZM38.571429 -47.142857"></path></svg>