<svg width="25.948661" height="19.888393" viewBox="2.025670 -40.011161 25.948661 19.888393" xmlns="http://www.w3.org/2000/svg"><path d="M27.974330 -36.127232C27.974330 -35.680804 27.818080 -35.301339 27.505580 -34.988839L15.385045 -22.868304L13.108259 -20.591518C12.795759 -20.279018 12.416295 -20.122768 11.969866 -20.122768C11.523438 -20.122768 11.143973 -20.279018 10.831473 -20.591518L8.554688 -22.868304L2.494420 -28.928571C2.181920 -29.241071 2.025670 -29.620536 2.025670 -30.066964C2.025670 -30.513393 2.181920 -30.892857 2.494420 -31.205357L4.771205 -33.482143C5.083705 -33.794643 5.463170 -33.950893 5.909598 -33.950893C6.356027 -33.950893 6.735491 -33.794643 7.047991 -33.482143L11.969866 -28.543527L22.952009 -39.542411C23.264509 -39.854911 23.643973 -40.011161 24.090402 -40.011161C24.536830 -40.011161 24.916295 -39.854911 25.228795 -39.542411L27.505580 -37.265625C27.818080 -36.953125 27.974330 -36.573661 27.974330 -36.127232ZM27.974330 -36.127232"></path></svg>