<svg width="17.343750" height="26.986607" viewBox="2.578125 -52.265625 17.343750 26.986607" xmlns="http://www.w3.org/2000/svg"><path d="M19.603795 -47.661830L10.714286 -38.772321L19.603795 -29.882812C19.815848 -29.670759 19.921875 -29.419643 19.921875 -29.129464C19.921875 -28.839286 19.815848 -28.588170 19.603795 -28.376116L16.824777 -25.597098C16.612723 -25.385045 16.361607 -25.279018 16.071429 -25.279018C15.781250 -25.279018 15.530134 -25.385045 15.318080 -25.597098L2.896205 -38.018973C2.684152 -38.231027 2.578125 -38.482143 2.578125 -38.772321C2.578125 -39.062500 2.684152 -39.313616 2.896205 -39.525670L15.318080 -51.947545C15.530134 -52.159598 15.781250 -52.265625 16.071429 -52.265625C16.361607 -52.265625 16.612723 -52.159598 16.824777 -51.947545L19.603795 -49.168527C19.815848 -48.956473 19.921875 -48.705357 19.921875 -48.415179C19.921875 -48.125000 19.815848 -47.873884 19.603795 -47.661830ZM19.603795 -47.661830"></path></svg>