<svg width="19.285714" height="27.053571" viewBox="1.071429 -50.089286 19.285714 27.053571" xmlns="http://www.w3.org/2000/svg"><path d="M19.888393 -43.593750L15.000000 -38.705357L15.000000 -24.910714C15.000000 -24.397321 14.815848 -23.956473 14.447545 -23.588170C14.079241 -23.219866 13.638393 -23.035714 13.125000 -23.035714C12.611607 -23.035714 12.170759 -23.219866 11.802455 -23.588170C11.434152 -23.956473 11.250000 -24.397321 11.250000 -24.910714L11.250000 -31.339286L10.178571 -31.339286L10.178571 -24.910714C10.178571 -24.397321 9.994420 -23.956473 9.626116 -23.588170C9.257812 -23.219866 8.816964 -23.035714 8.303571 -23.035714C7.790179 -23.035714 7.349330 -23.219866 6.981027 -23.588170C6.612723 -23.956473 6.428571 -24.397321 6.428571 -24.910714L6.428571 -38.705357L1.540179 -43.593750C1.227679 -43.906250 1.071429 -44.285714 1.071429 -44.732143C1.071429 -45.178571 1.227679 -45.558036 1.540179 -45.870536C1.863839 -46.183036 2.246094 -46.339286 2.686942 -46.339286C3.127790 -46.339286 3.504464 -46.183036 3.816964 -45.870536L7.633929 -42.053571L13.794643 -42.053571L17.611607 -45.870536C17.924107 -46.183036 18.303571 -46.339286 18.750000 -46.339286C19.196429 -46.339286 19.575893 -46.183036 19.888393 -45.870536C20.200893 -45.546875 20.357143 -45.164621 20.357143 -44.723772C20.357143 -44.282924 20.200893 -43.906250 19.888393 -43.593750ZM14.464286 -46.339286C14.464286 -45.301339 14.098772 -44.416853 13.367746 -43.685826C12.636719 -42.954799 11.752232 -42.589286 10.714286 -42.589286C9.676339 -42.589286 8.791853 -42.954799 8.060826 -43.685826C7.329799 -44.416853 6.964286 -45.301339 6.964286 -46.339286C6.964286 -47.377232 7.329799 -48.261719 8.060826 -48.992746C8.791853 -49.723772 9.676339 -50.089286 10.714286 -50.089286C11.752232 -50.089286 12.636719 -49.723772 13.367746 -48.992746C14.098772 -48.261719 14.464286 -47.377232 14.464286 -46.339286ZM14.464286 -46.339286"></path></svg>