<svg width="25.714286" height="25.714286" viewBox="0.000000 -49.285714 25.714286 25.714286" xmlns="http://www.w3.org/2000/svg"><path d="M15.000000 -42.321429L15.000000 -34.821429C15.000000 -34.665179 14.949777 -34.536830 14.849330 -34.436384C14.748884 -34.335938 14.620536 -34.285714 14.464286 -34.285714L9.107143 -34.285714C8.950893 -34.285714 8.822545 -34.335938 8.722098 -34.436384C8.621652 -34.536830 8.571429 -34.665179 8.571429 -34.821429L8.571429 -35.892857C8.571429 -36.049107 8.621652 -36.177455 8.722098 -36.277902C8.822545 -36.378348 8.950893 -36.428571 9.107143 -36.428571L12.857143 -36.428571L12.857143 -42.321429C12.857143 -42.477679 12.907366 -42.606027 13.007812 -42.706473C13.108259 -42.806920 13.236607 -42.857143 13.392857 -42.857143L14.464286 -42.857143C14.620536 -42.857143 14.748884 -42.806920 14.849330 -42.706473C14.949777 -42.606027 15.000000 -42.477679 15.000000 -42.321429ZM21.964286 -36.428571C21.964286 -38.080357 21.556920 -39.603795 20.742188 -40.998884C19.927455 -42.393973 18.822545 -43.498884 17.427455 -44.313616C16.032366 -45.128348 14.508929 -45.535714 12.857143 -45.535714C11.205357 -45.535714 9.681920 -45.128348 8.286830 -44.313616C6.891741 -43.498884 5.786830 -42.393973 4.972098 -40.998884C4.157366 -39.603795 3.750000 -38.080357 3.750000 -36.428571C3.750000 -34.776786 4.157366 -33.253348 4.972098 -31.858259C5.786830 -30.463170 6.891741 -29.358259 8.286830 -28.543527C9.681920 -27.728795 11.205357 -27.321429 12.857143 -27.321429C14.508929 -27.321429 16.032366 -27.728795 17.427455 -28.543527C18.822545 -29.358259 19.927455 -30.463170 20.742188 -31.858259C21.556920 -33.253348 21.964286 -34.776786 21.964286 -36.428571ZM25.714286 -36.428571C25.714286 -34.095982 25.139509 -31.944754 23.989955 -29.974888C22.840402 -28.005022 21.280692 -26.445312 19.310826 -25.295759C17.340960 -24.146205 15.189732 -23.571429 12.857143 -23.571429C10.524554 -23.571429 8.373326 -24.146205 6.403460 -25.295759C4.433594 -26.445312 2.873884 -28.005022 1.724330 -29.974888C0.574777 -31.944754 0.000000 -34.095982 0.000000 -36.428571C0.000000 -38.761161 0.574777 -40.912388 1.724330 -42.882254C2.873884 -44.852121 4.433594 -46.411830 6.403460 -47.561384C8.373326 -48.710938 10.524554 -49.285714 12.857143 -49.285714C15.189732 -49.285714 17.340960 -48.710938 19.310826 -47.561384C21.280692 -46.411830 22.840402 -44.852121 23.989955 -42.882254C25.139509 -40.912388 25.714286 -38.761161 25.714286 -36.428571ZM25.714286 -36.428571"></path></svg>