<svg width="32.142857" height="23.571429" viewBox="0.000000 -47.142857 32.142857 23.571429" xmlns="http://www.w3.org/2000/svg"><path d="M21.428571 -34.821429C21.428571 -34.977679 21.378348 -35.106027 21.277902 -35.206473L15.385045 -41.099330C15.284598 -41.199777 15.156250 -41.250000 15.000000 -41.250000C14.843750 -41.250000 14.715402 -41.199777 14.614955 -41.099330L8.738839 -35.223214C8.627232 -35.089286 8.571429 -34.955357 8.571429 -34.821429C8.571429 -34.665179 8.621652 -34.536830 8.722098 -34.436384C8.822545 -34.335938 8.950893 -34.285714 9.107143 -34.285714L12.857143 -34.285714L12.857143 -28.392857C12.857143 -28.247768 12.910156 -28.122210 13.016183 -28.016183C13.122210 -27.910156 13.247768 -27.857143 13.392857 -27.857143L16.607143 -27.857143C16.752232 -27.857143 16.877790 -27.910156 16.983817 -28.016183C17.089844 -28.122210 17.142857 -28.247768 17.142857 -28.392857L17.142857 -34.285714L20.892857 -34.285714C21.037946 -34.285714 21.163504 -34.338728 21.269531 -34.444754C21.375558 -34.550781 21.428571 -34.676339 21.428571 -34.821429ZM32.142857 -30.000000C32.142857 -28.225446 31.515067 -26.710379 30.259487 -25.454799C29.003906 -24.199219 27.488839 -23.571429 25.714286 -23.571429L7.500000 -23.571429C5.435268 -23.571429 3.669085 -24.305246 2.201451 -25.772879C0.733817 -27.240513 0.000000 -29.006696 0.000000 -31.071429C0.000000 -32.522321 0.390625 -33.861607 1.171875 -35.089286C1.953125 -36.316964 3.002232 -37.237723 4.319196 -37.851562C4.296875 -38.186384 4.285714 -38.426339 4.285714 -38.571429C4.285714 -40.937500 5.122768 -42.957589 6.796875 -44.631696C8.470982 -46.305804 10.491071 -47.142857 12.857143 -47.142857C14.598214 -47.142857 16.191406 -46.657366 17.636719 -45.686384C19.082031 -44.715402 20.133929 -43.426339 20.792411 -41.819196C21.584821 -42.511161 22.511161 -42.857143 23.571429 -42.857143C24.754464 -42.857143 25.764509 -42.438616 26.601562 -41.601562C27.438616 -40.764509 27.857143 -39.754464 27.857143 -38.571429C27.857143 -37.723214 27.628348 -36.953125 27.170759 -36.261161C28.621652 -35.915179 29.813058 -35.159040 30.744978 -33.992746C31.676897 -32.826451 32.142857 -31.495536 32.142857 -30.000000ZM32.142857 -30.000000"></path></svg>