<svg width="30.636161" height="23.024554" viewBox="0.753348 -44.179688 30.636161 23.024554" xmlns="http://www.w3.org/2000/svg"><path d="M10.329241 -25.318080L9.492188 -24.481027C9.380580 -24.369420 9.252232 -24.313616 9.107143 -24.313616C8.962054 -24.313616 8.833705 -24.369420 8.722098 -24.481027L0.920759 -32.282366C0.809152 -32.393973 0.753348 -32.522321 0.753348 -32.667411C0.753348 -32.812500 0.809152 -32.940848 0.920759 -33.052455L8.722098 -40.853795C8.833705 -40.965402 8.962054 -41.021205 9.107143 -41.021205C9.252232 -41.021205 9.380580 -40.965402 9.492188 -40.853795L10.329241 -40.016741C10.440848 -39.905134 10.496652 -39.776786 10.496652 -39.631696C10.496652 -39.486607 10.440848 -39.358259 10.329241 -39.246652L3.750000 -32.667411L10.329241 -26.088170C10.440848 -25.976562 10.496652 -25.848214 10.496652 -25.703125C10.496652 -25.558036 10.440848 -25.429687 10.329241 -25.318080ZM20.223214 -43.180804L13.978795 -21.568080C13.934152 -21.422991 13.847656 -21.314174 13.719308 -21.241629C13.590960 -21.169085 13.459821 -21.155134 13.325893 -21.199777L12.287946 -21.484375C12.142857 -21.529018 12.034040 -21.615513 11.961496 -21.743862C11.888951 -21.872210 11.875000 -22.008929 11.919643 -22.154018L18.164062 -43.766741C18.208705 -43.911830 18.295201 -44.020647 18.423549 -44.093192C18.551897 -44.165737 18.683036 -44.179688 18.816964 -44.135045L19.854911 -43.850446C20.000000 -43.805804 20.108817 -43.719308 20.181362 -43.590960C20.253906 -43.462612 20.267857 -43.325893 20.223214 -43.180804ZM31.222098 -32.282366L23.420759 -24.481027C23.309152 -24.369420 23.180804 -24.313616 23.035714 -24.313616C22.890625 -24.313616 22.762277 -24.369420 22.650670 -24.481027L21.813616 -25.318080C21.702009 -25.429687 21.646205 -25.558036 21.646205 -25.703125C21.646205 -25.848214 21.702009 -25.976562 21.813616 -26.088170L28.392857 -32.667411L21.813616 -39.246652C21.702009 -39.358259 21.646205 -39.486607 21.646205 -39.631696C21.646205 -39.776786 21.702009 -39.905134 21.813616 -40.016741L22.650670 -40.853795C22.762277 -40.965402 22.890625 -41.021205 23.035714 -41.021205C23.180804 -41.021205 23.309152 -40.965402 23.420759 -40.853795L31.222098 -33.052455C31.333705 -32.940848 31.389509 -32.812500 31.389509 -32.667411C31.389509 -32.522321 31.333705 -32.393973 31.222098 -32.282366ZM31.222098 -32.282366"></path></svg>