<svg width="30.000000" height="25.714286" viewBox="0.000000 -47.142857 30.000000 25.714286" xmlns="http://www.w3.org/2000/svg"><path d="M15.000000 -45.000000C12.723214 -45.000000 10.594308 -44.612165 8.613281 -43.836496C6.632254 -43.060826 5.058594 -42.014509 3.892299 -40.697545C2.726004 -39.380580 2.142857 -37.957589 2.142857 -36.428571C2.142857 -35.178571 2.541853 -33.987165 3.339844 -32.854353C4.137835 -31.721540 5.262277 -30.742187 6.713170 -29.916295L8.169643 -29.079241L7.717634 -27.472098C7.449777 -26.456473 7.059152 -25.496652 6.545759 -24.592634C8.242188 -25.295759 9.776786 -26.250000 11.149554 -27.455357L11.869420 -28.091518L12.823661 -27.991071C13.593750 -27.901786 14.319196 -27.857143 15.000000 -27.857143C17.276786 -27.857143 19.405692 -28.244978 21.386719 -29.020647C23.367746 -29.796317 24.941406 -30.842634 26.107701 -32.159598C27.273996 -33.476562 27.857143 -34.899554 27.857143 -36.428571C27.857143 -37.957589 27.273996 -39.380580 26.107701 -40.697545C24.941406 -42.014509 23.367746 -43.060826 21.386719 -43.836496C19.405692 -44.612165 17.276786 -45.000000 15.000000 -45.000000ZM30.000000 -36.428571C30.000000 -34.486607 29.330357 -32.692522 27.991071 -31.046317C26.651786 -29.400112 24.832589 -28.099888 22.533482 -27.145647C20.234375 -26.191406 17.723214 -25.714286 15.000000 -25.714286C14.218750 -25.714286 13.409598 -25.758929 12.572545 -25.848214C10.362723 -23.895089 7.795759 -22.544643 4.871652 -21.796875C4.324777 -21.640625 3.688616 -21.517857 2.963170 -21.428571L2.879464 -21.428571C2.712054 -21.428571 2.561384 -21.487165 2.427455 -21.604353C2.293527 -21.721540 2.204241 -21.875000 2.159598 -22.064732L2.159598 -22.081473C2.126116 -22.126116 2.123326 -22.193080 2.151228 -22.282366C2.179129 -22.371652 2.190290 -22.427455 2.184710 -22.449777C2.179129 -22.472098 2.204241 -22.525112 2.260045 -22.608817C2.315848 -22.692522 2.349330 -22.742746 2.360491 -22.759487C2.371652 -22.776228 2.410714 -22.823661 2.477679 -22.901786C2.544643 -22.979911 2.589286 -23.030134 2.611607 -23.052455C2.689732 -23.141741 2.862723 -23.334263 3.130580 -23.630022C3.398438 -23.925781 3.590960 -24.137835 3.708147 -24.266183C3.825335 -24.394531 3.998326 -24.614955 4.227121 -24.927455C4.455915 -25.239955 4.637277 -25.524554 4.771205 -25.781250C4.905134 -26.037946 5.055804 -26.367187 5.223214 -26.768973C5.390625 -27.170759 5.535714 -27.594866 5.658482 -28.041295C3.906250 -29.034598 2.525112 -30.262277 1.515067 -31.724330C0.505022 -33.186384 0.000000 -34.754464 0.000000 -36.428571C0.000000 -38.370536 0.669643 -40.164621 2.008929 -41.810826C3.348214 -43.457031 5.167411 -44.757254 7.466518 -45.711496C9.765625 -46.665737 12.276786 -47.142857 15.000000 -47.142857C17.723214 -47.142857 20.234375 -46.665737 22.533482 -45.711496C24.832589 -44.757254 26.651786 -43.457031 27.991071 -41.810826C29.330357 -40.164621 30.000000 -38.370536 30.000000 -36.428571ZM30.000000 -36.428571"></path></svg>