<svg width="25.279018" height="25.279018" viewBox="0.217634 -48.632812 25.279018 25.279018" xmlns="http://www.w3.org/2000/svg"><path d="M12.857143 -34.921875L12.857143 -27.421875C12.857143 -27.131696 12.751116 -26.880580 12.539062 -26.668527C12.327009 -26.456473 12.075893 -26.350446 11.785714 -26.350446C11.495536 -26.350446 11.244420 -26.456473 11.032366 -26.668527L8.621652 -29.079241L3.063616 -23.521205C2.952009 -23.409598 2.823661 -23.353795 2.678571 -23.353795C2.533482 -23.353795 2.405134 -23.409598 2.293527 -23.521205L0.385045 -25.429688C0.273438 -25.541295 0.217634 -25.669643 0.217634 -25.814732C0.217634 -25.959821 0.273438 -26.088170 0.385045 -26.199777L5.943080 -31.757812L3.532366 -34.168527C3.320312 -34.380580 3.214286 -34.631696 3.214286 -34.921875C3.214286 -35.212054 3.320312 -35.463170 3.532366 -35.675223C3.744420 -35.887277 3.995536 -35.993304 4.285714 -35.993304L11.785714 -35.993304C12.075893 -35.993304 12.327009 -35.887277 12.539062 -35.675223C12.751116 -35.463170 12.857143 -35.212054 12.857143 -34.921875ZM25.496652 -46.171875C25.496652 -46.026786 25.440848 -45.898438 25.329241 -45.786830L19.771205 -40.228795L22.181920 -37.818080C22.393973 -37.606027 22.500000 -37.354911 22.500000 -37.064732C22.500000 -36.774554 22.393973 -36.523438 22.181920 -36.311384C21.969866 -36.099330 21.718750 -35.993304 21.428571 -35.993304L13.928571 -35.993304C13.638393 -35.993304 13.387277 -36.099330 13.175223 -36.311384C12.963170 -36.523438 12.857143 -36.774554 12.857143 -37.064732L12.857143 -44.564732C12.857143 -44.854911 12.963170 -45.106027 13.175223 -45.318080C13.387277 -45.530134 13.638393 -45.636161 13.928571 -45.636161C14.218750 -45.636161 14.469866 -45.530134 14.681920 -45.318080L17.092634 -42.907366L22.650670 -48.465402C22.762277 -48.577009 22.890625 -48.632812 23.035714 -48.632812C23.180804 -48.632812 23.309152 -48.577009 23.420759 -48.465402L25.329241 -46.556920C25.440848 -46.445312 25.496652 -46.316964 25.496652 -46.171875ZM25.496652 -46.171875"></path></svg>