<svg width="25.714286" height="25.714286" viewBox="0.000000 -49.285714 25.714286 25.714286" xmlns="http://www.w3.org/2000/svg"><path d="M20.039062 -34.285714L18.214286 -34.285714C17.924107 -34.285714 17.672991 -34.391741 17.460938 -34.603795C17.248884 -34.815848 17.142857 -35.066964 17.142857 -35.357143L17.142857 -37.500000C17.142857 -37.790179 17.248884 -38.041295 17.460938 -38.253348C17.672991 -38.465402 17.924107 -38.571429 18.214286 -38.571429L20.039062 -38.571429C19.681920 -39.776786 19.054129 -40.828683 18.155692 -41.727121C17.257254 -42.625558 16.205357 -43.253348 15.000000 -43.610491L15.000000 -41.785714C15.000000 -41.495536 14.893973 -41.244420 14.681920 -41.032366C14.469866 -40.820312 14.218750 -40.714286 13.928571 -40.714286L11.785714 -40.714286C11.495536 -40.714286 11.244420 -40.820312 11.032366 -41.032366C10.820312 -41.244420 10.714286 -41.495536 10.714286 -41.785714L10.714286 -43.610491C9.508929 -43.253348 8.457031 -42.625558 7.558594 -41.727121C6.660156 -40.828683 6.032366 -39.776786 5.675223 -38.571429L7.500000 -38.571429C7.790179 -38.571429 8.041295 -38.465402 8.253348 -38.253348C8.465402 -38.041295 8.571429 -37.790179 8.571429 -37.500000L8.571429 -35.357143C8.571429 -35.066964 8.465402 -34.815848 8.253348 -34.603795C8.041295 -34.391741 7.790179 -34.285714 7.500000 -34.285714L5.675223 -34.285714C6.032366 -33.080357 6.660156 -32.028460 7.558594 -31.130022C8.457031 -30.231585 9.508929 -29.603795 10.714286 -29.246652L10.714286 -31.071429C10.714286 -31.361607 10.820312 -31.612723 11.032366 -31.824777C11.244420 -32.036830 11.495536 -32.142857 11.785714 -32.142857L13.928571 -32.142857C14.218750 -32.142857 14.469866 -32.036830 14.681920 -31.824777C14.893973 -31.612723 15.000000 -31.361607 15.000000 -31.071429L15.000000 -29.246652C16.205357 -29.603795 17.257254 -30.231585 18.155692 -31.130022C19.054129 -32.028460 19.681920 -33.080357 20.039062 -34.285714ZM25.714286 -37.500000L25.714286 -35.357143C25.714286 -35.066964 25.608259 -34.815848 25.396205 -34.603795C25.184152 -34.391741 24.933036 -34.285714 24.642857 -34.285714L22.248884 -34.285714C21.835938 -32.488839 20.973772 -30.934710 19.662388 -29.623326C18.351004 -28.311942 16.796875 -27.449777 15.000000 -27.036830L15.000000 -24.642857C15.000000 -24.352679 14.893973 -24.101562 14.681920 -23.889509C14.469866 -23.677455 14.218750 -23.571429 13.928571 -23.571429L11.785714 -23.571429C11.495536 -23.571429 11.244420 -23.677455 11.032366 -23.889509C10.820312 -24.101562 10.714286 -24.352679 10.714286 -24.642857L10.714286 -27.036830C8.917411 -27.449777 7.363281 -28.311942 6.051897 -29.623326C4.740513 -30.934710 3.878348 -32.488839 3.465402 -34.285714L1.071429 -34.285714C0.781250 -34.285714 0.530134 -34.391741 0.318080 -34.603795C0.106027 -34.815848 0.000000 -35.066964 0.000000 -35.357143L0.000000 -37.500000C0.000000 -37.790179 0.106027 -38.041295 0.318080 -38.253348C0.530134 -38.465402 0.781250 -38.571429 1.071429 -38.571429L3.465402 -38.571429C3.878348 -40.368304 4.740513 -41.922433 6.051897 -43.233817C7.363281 -44.545201 8.917411 -45.407366 10.714286 -45.820312L10.714286 -48.214286C10.714286 -48.504464 10.820312 -48.755580 11.032366 -48.967634C11.244420 -49.179688 11.495536 -49.285714 11.785714 -49.285714L13.928571 -49.285714C14.218750 -49.285714 14.469866 -49.179688 14.681920 -48.967634C14.893973 -48.755580 15.000000 -48.504464 15.000000 -48.214286L15.000000 -45.820312C16.796875 -45.407366 18.351004 -44.545201 19.662388 -43.233817C20.973772 -41.922433 21.835938 -40.368304 22.248884 -38.571429L24.642857 -38.571429C24.933036 -38.571429 25.184152 -38.465402 25.396205 -38.253348C25.608259 -38.041295 25.714286 -37.790179 25.714286 -37.500000ZM25.714286 -37.500000"></path></svg>