<svg width="34.308036" height="27.857143" viewBox="-0.011161 -51.428571 34.308036 27.857143" xmlns="http://www.w3.org/2000/svg"><path d="M3.549107 -40.714286L13.978795 -29.581473L8.956473 -40.714286ZM17.142857 -27.790179L22.985491 -40.714286L11.300223 -40.714286ZM9.006696 -42.857143L12.421875 -49.285714L8.035714 -49.285714L3.214286 -42.857143ZM20.306920 -29.581473L30.736607 -40.714286L25.329241 -40.714286ZM11.434152 -42.857143L22.851562 -42.857143L19.436384 -49.285714L14.849330 -49.285714ZM25.279018 -42.857143L31.071429 -42.857143L26.250000 -49.285714L21.863839 -49.285714ZM27.639509 -50.993304L34.068080 -42.421875C34.224330 -42.220982 34.296875 -41.989397 34.285714 -41.727121C34.274554 -41.464844 34.179688 -41.238839 34.001116 -41.049107L17.929688 -23.906250C17.728795 -23.683036 17.466518 -23.571429 17.142857 -23.571429C16.819196 -23.571429 16.556920 -23.683036 16.356027 -23.906250L0.284598 -41.049107C0.106027 -41.238839 0.011161 -41.464844 0.000000 -41.727121C-0.011161 -41.989397 0.061384 -42.220982 0.217634 -42.421875L6.646205 -50.993304C6.847098 -51.283482 7.131696 -51.428571 7.500000 -51.428571L26.785714 -51.428571C27.154018 -51.428571 27.438616 -51.283482 27.639509 -50.993304ZM27.639509 -50.993304"></path></svg>