<svg width="34.285714" height="20.558036" viewBox="0.000000 -41.551339 34.285714 20.558036" xmlns="http://www.w3.org/2000/svg"><path d="M5.491071 -41.551339L8.906250 -41.551339L8.906250 -25.094866L0.000000 -25.094866L0.000000 -36.763393L5.491071 -36.763393ZM5.491071 -27.840402L5.491071 -34.017857L3.431920 -34.017857L3.431920 -27.840402ZM13.710938 -36.763393L13.710938 -25.094866L10.279018 -25.094866L10.279018 -36.763393ZM13.710938 -41.551339L13.710938 -38.136161L10.279018 -38.136161L10.279018 -41.551339ZM15.083705 -36.763393L24.006696 -36.763393L24.006696 -20.993304L15.083705 -20.993304L15.083705 -23.722098L20.574777 -23.722098L20.574777 -25.094866L15.083705 -25.094866ZM20.574777 -27.840402L20.574777 -34.017857L18.515625 -34.017857L18.515625 -27.840402ZM25.379464 -36.763393L34.285714 -36.763393L34.285714 -20.993304L25.379464 -20.993304L25.379464 -23.722098L30.853795 -23.722098L30.853795 -25.094866L25.379464 -25.094866ZM30.853795 -27.840402L30.853795 -34.017857L28.794643 -34.017857L28.794643 -27.840402ZM30.853795 -27.840402"></path></svg>