<svg width="27.857143" height="25.714286" viewBox="0.000000 -51.428571 27.857143 25.714286" xmlns="http://www.w3.org/2000/svg"><path d="M21.428571 -28.928571C21.428571 -29.218750 21.322545 -29.469866 21.110491 -29.681920C20.898438 -29.893973 20.647321 -30.000000 20.357143 -30.000000C20.066964 -30.000000 19.815848 -29.893973 19.603795 -29.681920C19.391741 -29.469866 19.285714 -29.218750 19.285714 -28.928571C19.285714 -28.638393 19.391741 -28.387277 19.603795 -28.175223C19.815848 -27.963170 20.066964 -27.857143 20.357143 -27.857143C20.647321 -27.857143 20.898438 -27.963170 21.110491 -28.175223C21.322545 -28.387277 21.428571 -28.638393 21.428571 -28.928571ZM25.714286 -28.928571C25.714286 -29.218750 25.608259 -29.469866 25.396205 -29.681920C25.184152 -29.893973 24.933036 -30.000000 24.642857 -30.000000C24.352679 -30.000000 24.101562 -29.893973 23.889509 -29.681920C23.677455 -29.469866 23.571429 -29.218750 23.571429 -28.928571C23.571429 -28.638393 23.677455 -28.387277 23.889509 -28.175223C24.101562 -27.963170 24.352679 -27.857143 24.642857 -27.857143C24.933036 -27.857143 25.184152 -27.963170 25.396205 -28.175223C25.608259 -28.387277 25.714286 -28.638393 25.714286 -28.928571ZM27.857143 -32.678571L27.857143 -27.321429C27.857143 -26.875000 27.700893 -26.495536 27.388393 -26.183036C27.075893 -25.870536 26.696429 -25.714286 26.250000 -25.714286L1.607143 -25.714286C1.160714 -25.714286 0.781250 -25.870536 0.468750 -26.183036C0.156250 -26.495536 0.000000 -26.875000 0.000000 -27.321429L0.000000 -32.678571C0.000000 -33.125000 0.156250 -33.504464 0.468750 -33.816964C0.781250 -34.129464 1.160714 -34.285714 1.607143 -34.285714L9.391741 -34.285714L11.651786 -32.008929C12.299107 -31.383929 13.058036 -31.071429 13.928571 -31.071429C14.799107 -31.071429 15.558036 -31.383929 16.205357 -32.008929L18.482143 -34.285714L26.250000 -34.285714C26.696429 -34.285714 27.075893 -34.129464 27.388393 -33.816964C27.700893 -33.504464 27.857143 -33.125000 27.857143 -32.678571ZM22.416295 -42.204241C22.606027 -41.746652 22.527902 -41.356027 22.181920 -41.032366L14.681920 -33.532366C14.481027 -33.320312 14.229911 -33.214286 13.928571 -33.214286C13.627232 -33.214286 13.376116 -33.320312 13.175223 -33.532366L5.675223 -41.032366C5.329241 -41.356027 5.251116 -41.746652 5.440848 -42.204241C5.630580 -42.639509 5.959821 -42.857143 6.428571 -42.857143L10.714286 -42.857143L10.714286 -50.357143C10.714286 -50.647321 10.820312 -50.898438 11.032366 -51.110491C11.244420 -51.322545 11.495536 -51.428571 11.785714 -51.428571L16.071429 -51.428571C16.361607 -51.428571 16.612723 -51.322545 16.824777 -51.110491C17.036830 -50.898438 17.142857 -50.647321 17.142857 -50.357143L17.142857 -42.857143L21.428571 -42.857143C21.897321 -42.857143 22.226562 -42.639509 22.416295 -42.204241ZM22.416295 -42.204241"></path></svg>