<svg width="25.714286" height="29.397321" viewBox="0.000000 -54.810268 25.714286 29.397321" xmlns="http://www.w3.org/2000/svg"><path d="M19.536830 -28.560268C19.481027 -28.772321 19.347098 -28.800223 19.135045 -28.643973C18.800223 -28.398438 18.314732 -28.180804 17.678571 -27.991071C17.042411 -27.801339 16.311384 -27.706473 15.485491 -27.706473C14.045759 -27.706473 12.968750 -27.979911 12.254464 -28.526786C12.198661 -28.571429 12.126116 -28.593750 12.036830 -28.593750C11.914062 -28.593750 11.768973 -28.526786 11.601562 -28.392857C11.523438 -28.325893 11.481585 -28.236607 11.476004 -28.125000C11.470424 -28.013393 11.512277 -27.901786 11.601562 -27.790179C11.981027 -27.433036 12.469308 -27.176339 13.066406 -27.020089C13.663504 -26.863839 14.235491 -26.794085 14.782366 -26.810826C15.329241 -26.827567 15.881696 -26.852679 16.439732 -26.886161C16.897321 -26.930804 17.368862 -27.045201 17.854353 -27.229353C18.339844 -27.413504 18.702567 -27.580915 18.942522 -27.731585C19.182478 -27.882254 19.341518 -27.996652 19.419643 -28.074777C19.553571 -28.208705 19.592634 -28.370536 19.536830 -28.560268ZM18.883929 -30.485491C18.671875 -31.010045 18.454241 -31.350446 18.231027 -31.506696C17.974330 -31.674107 17.550223 -31.757812 16.958705 -31.757812C16.434152 -31.757812 16.037946 -31.702009 15.770089 -31.590402C15.446429 -31.456473 15.011161 -31.143973 14.464286 -30.652902C14.174107 -30.385045 14.107143 -30.139509 14.263393 -29.916295C14.363839 -29.827009 14.461496 -29.801897 14.556362 -29.840960C14.651228 -29.880022 14.827009 -30.011161 15.083705 -30.234375C15.117188 -30.256696 15.175781 -30.304129 15.259487 -30.376674C15.343192 -30.449219 15.401786 -30.496652 15.435268 -30.518973C15.468750 -30.541295 15.524554 -30.580357 15.602679 -30.636161C15.680804 -30.691964 15.744978 -30.731027 15.795201 -30.753348C15.845424 -30.775670 15.915179 -30.803571 16.004464 -30.837054C16.093750 -30.870536 16.177455 -30.895647 16.255580 -30.912388C16.333705 -30.929129 16.425781 -30.943080 16.531808 -30.954241C16.637835 -30.965402 16.752232 -30.970982 16.875000 -30.970982C17.176339 -30.970982 17.424665 -30.929129 17.619978 -30.845424C17.815290 -30.761719 17.943638 -30.680804 18.005022 -30.602679C18.066406 -30.524554 18.141741 -30.401786 18.231027 -30.234375C18.342634 -30.044643 18.412388 -29.933036 18.440290 -29.899554C18.468192 -29.866071 18.537946 -29.871652 18.649554 -29.916295C18.906250 -30.050223 18.984375 -30.239955 18.883929 -30.485491ZM24.827009 -35.189732C24.827009 -35.435268 24.799107 -35.683594 24.743304 -35.934710C24.687500 -36.185826 24.595424 -36.436942 24.467076 -36.688058C24.338728 -36.939174 24.148996 -37.142857 23.897879 -37.299107C23.646763 -37.455357 23.353795 -37.533482 23.018973 -37.533482C22.650670 -37.533482 22.109375 -37.301897 21.395089 -36.838728C20.680804 -36.375558 19.960938 -35.909598 19.235491 -35.440848C18.510045 -34.972098 17.946429 -34.737723 17.544643 -34.737723C17.243304 -34.726562 16.888951 -34.832589 16.481585 -35.055804C16.074219 -35.279018 15.650112 -35.552455 15.209263 -35.876116C14.768415 -36.199777 14.302455 -36.523438 13.811384 -36.847098C13.320312 -37.170759 12.762277 -37.444196 12.137277 -37.667411C11.512277 -37.890625 10.892857 -37.996652 10.279018 -37.985491C8.995536 -37.974330 7.896205 -37.536272 6.981027 -36.671317C6.065848 -35.806362 5.597098 -34.810268 5.574777 -33.683036C5.552455 -32.433036 5.965402 -31.517857 6.813616 -30.937500C7.137277 -30.714286 7.486049 -30.555246 7.859933 -30.460379C8.233817 -30.365513 8.811384 -30.318080 9.592634 -30.318080C10.228795 -30.318080 10.965402 -30.499442 11.802455 -30.862165C12.639509 -31.224888 13.387277 -31.621094 14.045759 -32.050781C14.704241 -32.480469 15.373884 -32.873884 16.054688 -33.231027C16.735491 -33.588170 17.254464 -33.761161 17.611607 -33.750000C17.901786 -33.738839 18.264509 -33.563058 18.699777 -33.222656C19.135045 -32.882254 19.534040 -32.508371 19.896763 -32.101004C20.259487 -31.693638 20.638951 -31.316964 21.035156 -30.970982C21.431362 -30.625000 21.741071 -30.446429 21.964286 -30.435268C22.354911 -30.401786 22.681362 -30.479911 22.943638 -30.669643C23.205915 -30.859375 23.515625 -31.210938 23.872768 -31.724330C24.185268 -32.181920 24.422433 -32.745536 24.584263 -33.415179C24.746094 -34.084821 24.827009 -34.676339 24.827009 -35.189732ZM25.714286 -37.868304C25.714286 -36.037946 25.368304 -34.338728 24.676339 -32.770647C23.984375 -31.202567 23.058036 -29.885603 21.897321 -28.819754C20.736607 -27.753906 19.383371 -26.919643 17.837612 -26.316964C16.291853 -25.714286 14.670759 -25.412946 12.974330 -25.412946C11.277902 -25.412946 9.642857 -25.733817 8.069196 -26.375558C6.495536 -27.017299 5.114397 -27.893415 3.925781 -29.003906C2.737165 -30.114397 1.785714 -31.462054 1.071429 -33.046875C0.357143 -34.631696 0.000000 -36.316964 0.000000 -38.102679C0.000000 -39.095982 0.108817 -40.058594 0.326451 -40.990513C0.544085 -41.922433 0.817522 -42.734375 1.146763 -43.426339C1.476004 -44.118304 1.869420 -44.779576 2.327009 -45.410156C2.784598 -46.040737 3.222656 -46.565290 3.641183 -46.983817C4.059710 -47.402344 4.497768 -47.790179 4.955357 -48.147321C5.412946 -48.504464 5.772879 -48.763951 6.035156 -48.925781C6.297433 -49.087612 6.534598 -49.224330 6.746652 -49.335938C6.902902 -49.425223 7.187500 -49.573103 7.600446 -49.779576C8.013393 -49.986049 8.317522 -50.145089 8.512835 -50.256696C8.708147 -50.368304 8.976004 -50.535714 9.316406 -50.758929C9.656808 -50.982143 9.994420 -51.227679 10.329241 -51.495536C10.731027 -51.808036 11.054688 -52.212612 11.300223 -52.709263C11.545759 -53.205915 11.713170 -53.906250 11.802455 -54.810268C13.242188 -53.080357 14.280134 -52.003348 14.916295 -51.579241C15.407366 -51.255580 16.132812 -50.876116 17.092634 -50.440848C18.052455 -50.005580 18.772321 -49.637277 19.252232 -49.335938C19.486607 -49.190848 19.704241 -49.051339 19.905134 -48.917411C20.106027 -48.783482 20.443638 -48.523996 20.917969 -48.138951C21.392299 -47.753906 21.816406 -47.360491 22.190290 -46.958705C22.564174 -46.556920 22.982701 -46.026786 23.445871 -45.368304C23.909040 -44.709821 24.294085 -44.029018 24.601004 -43.325893C24.907924 -42.622768 25.170201 -41.794085 25.387835 -40.839844C25.605469 -39.885603 25.714286 -38.895089 25.714286 -37.868304ZM25.714286 -37.868304"></path></svg>