<svg width="16.958705" height="23.571429" viewBox="0.000000 -47.142857 16.958705 23.571429" xmlns="http://www.w3.org/2000/svg"><path d="M16.339286 -27.405134L16.925223 -24.743304C16.958705 -24.609375 16.941964 -24.483817 16.875000 -24.366629C16.808036 -24.249442 16.713170 -24.168527 16.590402 -24.123884L16.506696 -24.107143C16.462054 -24.084821 16.403460 -24.065290 16.330915 -24.048549C16.258371 -24.031808 16.169085 -24.006696 16.063058 -23.973214C15.957031 -23.939732 15.837054 -23.909040 15.703125 -23.881138C15.569196 -23.853237 15.426897 -23.825335 15.276228 -23.797433C15.125558 -23.769531 14.958147 -23.741629 14.773996 -23.713728C14.589844 -23.685826 14.402902 -23.660714 14.213170 -23.638393C14.023438 -23.616071 13.819754 -23.599330 13.602121 -23.588170C13.384487 -23.577009 13.169643 -23.571429 12.957589 -23.571429C10.345982 -23.571429 8.063616 -24.299665 6.110491 -25.756138C4.157366 -27.212612 2.829241 -29.174107 2.126116 -31.640625L0.535714 -31.640625C0.390625 -31.640625 0.265067 -31.693638 0.159040 -31.799665C0.053013 -31.905692 0.000000 -32.031250 0.000000 -32.176339L0.000000 -34.068080C0.000000 -34.213170 0.053013 -34.338728 0.159040 -34.444754C0.265067 -34.550781 0.390625 -34.603795 0.535714 -34.603795L1.640625 -34.603795C1.618304 -35.239955 1.623884 -35.825893 1.657366 -36.361607L0.535714 -36.361607C0.379464 -36.361607 0.251116 -36.411830 0.150670 -36.512277C0.050223 -36.612723 0.000000 -36.741071 0.000000 -36.897321L0.000000 -38.805804C0.000000 -38.962054 0.050223 -39.090402 0.150670 -39.190848C0.251116 -39.291295 0.379464 -39.341518 0.535714 -39.341518L2.176339 -39.341518C2.924107 -41.685268 4.282924 -43.571429 6.252790 -45.000000C8.222656 -46.428571 10.457589 -47.142857 12.957589 -47.142857C14.095982 -47.142857 15.178571 -47.014509 16.205357 -46.757812C16.328125 -46.724330 16.439732 -46.640625 16.540179 -46.506696C16.607143 -46.383929 16.623884 -46.250000 16.590402 -46.104911L15.870536 -43.443080C15.837054 -43.297991 15.758929 -43.189174 15.636161 -43.116629C15.513393 -43.044085 15.379464 -43.030134 15.234375 -43.074777L15.167411 -43.091518C15.122768 -43.102679 15.058594 -43.116629 14.974888 -43.133371C14.891183 -43.150112 14.793527 -43.169643 14.681920 -43.191964C14.570312 -43.214286 14.444754 -43.233817 14.305246 -43.250558C14.165737 -43.267299 14.020647 -43.284040 13.869978 -43.300781C13.719308 -43.317522 13.557478 -43.331473 13.384487 -43.342634C13.211496 -43.353795 13.046875 -43.359375 12.890625 -43.359375C11.484375 -43.359375 10.223214 -43.002232 9.107143 -42.287946C7.991071 -41.573661 7.154018 -40.591518 6.595982 -39.341518L14.430804 -39.341518C14.609375 -39.341518 14.748884 -39.274554 14.849330 -39.140625C14.960938 -39.006696 15.000000 -38.861607 14.966518 -38.705357L14.564732 -36.796875C14.508929 -36.506696 14.330357 -36.361607 14.029018 -36.361607L5.859375 -36.361607C5.825893 -35.948661 5.825893 -35.362723 5.859375 -34.603795L13.543527 -34.603795C13.710937 -34.603795 13.850446 -34.536830 13.962054 -34.402902C14.062500 -34.268973 14.095982 -34.118304 14.062500 -33.950893L13.660714 -32.075893C13.638393 -31.953125 13.577009 -31.849888 13.476562 -31.766183C13.376116 -31.682478 13.264509 -31.640625 13.141741 -31.640625L6.662946 -31.640625C7.198661 -30.334821 8.032924 -29.299665 9.165737 -28.535156C10.298549 -27.770647 11.573661 -27.388393 12.991071 -27.388393C13.191964 -27.388393 13.392857 -27.396763 13.593750 -27.413504C13.794643 -27.430246 13.981585 -27.449777 14.154576 -27.472098C14.327567 -27.494420 14.492188 -27.519531 14.648438 -27.547433C14.804688 -27.575335 14.941406 -27.603237 15.058594 -27.631138C15.175781 -27.659040 15.279018 -27.684152 15.368304 -27.706473C15.457589 -27.728795 15.524554 -27.745536 15.569196 -27.756696L15.652902 -27.790179C15.797991 -27.845982 15.943080 -27.834821 16.088170 -27.756696C16.222098 -27.678571 16.305804 -27.561384 16.339286 -27.405134ZM16.339286 -27.405134"></path></svg>