<svg width="38.596540" height="27.756696" viewBox="0.000000 -52.349330 38.596540 27.756696" xmlns="http://www.w3.org/2000/svg"><path d="M25.513393 -27.338170C25.513393 -26.579241 25.245536 -25.931920 24.709821 -25.396205C24.174107 -24.860491 23.526786 -24.592634 22.767857 -24.592634C22.008929 -24.592634 21.358817 -24.860491 20.817522 -25.396205C20.276228 -25.931920 20.005580 -26.579241 20.005580 -27.338170C20.005580 -28.097098 20.276228 -28.747210 20.817522 -29.288504C21.358817 -29.829799 22.008929 -30.100446 22.767857 -30.100446C23.526786 -30.100446 24.174107 -29.829799 24.709821 -29.288504C25.245536 -28.747210 25.513393 -28.097098 25.513393 -27.338170ZM12.974330 -27.338170C12.974330 -26.579241 12.703683 -25.931920 12.162388 -25.396205C11.621094 -24.860491 10.970982 -24.592634 10.212054 -24.592634C9.453125 -24.592634 8.805804 -24.860491 8.270089 -25.396205C7.734375 -25.931920 7.466518 -26.579241 7.466518 -27.338170C7.466518 -28.097098 7.734375 -28.747210 8.270089 -29.288504C8.805804 -29.829799 9.453125 -30.100446 10.212054 -30.100446C10.970982 -30.100446 11.621094 -29.829799 12.162388 -29.288504C12.703683 -28.747210 12.974330 -28.097098 12.974330 -27.338170ZM0.000000 -52.349330C0.636161 -51.679688 1.252790 -51.096540 1.849888 -50.599888C2.446987 -50.103237 3.122210 -49.645647 3.875558 -49.227121C4.628906 -48.808594 5.387835 -48.457031 6.152344 -48.172433C6.916853 -47.887835 7.843192 -47.633929 8.931362 -47.410714C10.019531 -47.187500 11.135603 -47.011719 12.279576 -46.883371C13.423549 -46.755022 14.818638 -46.651786 16.464844 -46.573661C18.111049 -46.495536 19.807478 -46.442522 21.554129 -46.414621C23.300781 -46.386719 25.379464 -46.372768 27.790179 -46.372768C29.341518 -46.372768 30.705915 -46.344866 31.883371 -46.289062C33.060826 -46.233259 34.070871 -46.141183 34.913504 -46.012835C35.756138 -45.884487 36.448103 -45.731027 36.989397 -45.552455C37.530692 -45.373884 37.926897 -45.153460 38.178013 -44.891183C38.429129 -44.628906 38.563058 -44.341518 38.579799 -44.029018C38.596540 -43.716518 38.487723 -43.359375 38.253348 -42.957589C38.018973 -42.555804 37.703683 -42.128906 37.307478 -41.676897C36.911272 -41.224888 36.411830 -40.717076 35.809152 -40.153460C35.206473 -39.589844 34.559152 -39.006696 33.867188 -38.404018C33.175223 -37.801339 32.399554 -37.137277 31.540179 -36.411830C29.475446 -34.659598 27.879464 -33.281250 26.752232 -32.276786C27.075893 -32.845982 27.502790 -33.454241 28.032924 -34.101562C28.563058 -34.748884 29.087612 -35.337612 29.606585 -35.867746C30.125558 -36.397879 30.652902 -36.947545 31.188616 -37.516741C31.724330 -38.085938 32.187500 -38.596540 32.578125 -39.048549C32.968750 -39.500558 33.270089 -39.949777 33.482143 -40.396205C33.694196 -40.842634 33.766741 -41.233259 33.699777 -41.568080C33.632812 -41.902902 33.378906 -42.212612 32.938058 -42.497210C32.497210 -42.781808 31.847098 -43.010603 30.987723 -43.183594C30.128348 -43.356585 28.989955 -43.487723 27.572545 -43.577009C26.155134 -43.666295 24.458705 -43.694196 22.483259 -43.660714C20.608259 -43.638393 18.856027 -43.671875 17.226562 -43.761161C15.597098 -43.850446 14.168527 -43.978795 12.940848 -44.146205C11.713170 -44.313616 10.571987 -44.542411 9.517299 -44.832589C8.462612 -45.122768 7.572545 -45.410156 6.847098 -45.694754C6.121652 -45.979353 5.438058 -46.328125 4.796317 -46.741071C4.154576 -47.154018 3.643973 -47.525112 3.264509 -47.854353C2.885045 -48.183594 2.505580 -48.582589 2.126116 -49.051339C1.746652 -49.520089 1.464844 -49.907924 1.280692 -50.214844C1.096540 -50.521763 0.873326 -50.901228 0.611049 -51.353237C0.348772 -51.805246 0.145089 -52.137277 0.000000 -52.349330ZM0.000000 -52.349330"></path></svg>