<svg width="25.714286" height="25.714286" viewBox="0.000000 -49.285714 25.714286 25.714286" xmlns="http://www.w3.org/2000/svg"><path d="M23.437500 -30.000000L19.285714 -30.000000L19.285714 -25.848214C19.609375 -25.959821 19.838170 -26.082589 19.972098 -26.216518L23.069196 -29.313616C23.203125 -29.447545 23.325893 -29.676339 23.437500 -30.000000ZM18.750000 -32.142857L23.571429 -32.142857L23.571429 -47.142857L2.142857 -47.142857L2.142857 -25.714286L17.142857 -25.714286L17.142857 -30.535714C17.142857 -30.982143 17.299107 -31.361607 17.611607 -31.674107C17.924107 -31.986607 18.303571 -32.142857 18.750000 -32.142857ZM25.714286 -47.678571L25.714286 -30.535714C25.714286 -30.089286 25.602679 -29.598214 25.379464 -29.062500C25.156250 -28.526786 24.888393 -28.102679 24.575893 -27.790179L21.495536 -24.709821C21.183036 -24.397321 20.758929 -24.129464 20.223214 -23.906250C19.687500 -23.683036 19.196429 -23.571429 18.750000 -23.571429L1.607143 -23.571429C1.160714 -23.571429 0.781250 -23.727679 0.468750 -24.040179C0.156250 -24.352679 0.000000 -24.732143 0.000000 -25.178571L0.000000 -47.678571C0.000000 -48.125000 0.156250 -48.504464 0.468750 -48.816964C0.781250 -49.129464 1.160714 -49.285714 1.607143 -49.285714L24.107143 -49.285714C24.553571 -49.285714 24.933036 -49.129464 25.245536 -48.816964C25.558036 -48.504464 25.714286 -48.125000 25.714286 -47.678571ZM25.714286 -47.678571"></path></svg>