<svg width="38.571429" height="25.714286" viewBox="0.000000 -49.285714 38.571429 25.714286" xmlns="http://www.w3.org/2000/svg"><path d="M32.661830 -34.720982C32.661830 -34.430804 32.575335 -34.182478 32.402344 -33.976004C32.229353 -33.769531 32.014509 -33.638393 31.757812 -33.582589C31.668527 -33.560268 31.568080 -33.549107 31.456473 -33.549107L28.895089 -33.549107L28.895089 -35.892857L31.456473 -35.892857C31.568080 -35.892857 31.668527 -35.881696 31.757812 -35.859375C32.014509 -35.803571 32.229353 -35.672433 32.402344 -35.465960C32.575335 -35.259487 32.661830 -35.011161 32.661830 -34.720982ZM32.360491 -38.286830C32.360491 -38.007812 32.276786 -37.773438 32.109375 -37.583705C31.941964 -37.393973 31.729911 -37.276786 31.473214 -37.232143C31.439732 -37.220982 31.356027 -37.215402 31.222098 -37.215402L28.895089 -37.215402L28.895089 -39.375000L31.222098 -39.375000C31.255580 -39.375000 31.303013 -39.372210 31.364397 -39.366629C31.425781 -39.361049 31.462054 -39.358259 31.473214 -39.358259C31.729911 -39.313616 31.941964 -39.193638 32.109375 -38.998326C32.276786 -38.803013 32.360491 -38.565848 32.360491 -38.286830ZM12.187500 -35.541295L12.187500 -40.697545L8.370536 -40.697545L8.370536 -35.541295C8.370536 -34.893973 8.158482 -34.366629 7.734375 -33.959263C7.310268 -33.551897 6.724330 -33.348214 5.976562 -33.348214C4.771205 -33.348214 3.493304 -33.677455 2.142857 -34.335938L2.142857 -32.460938C2.734375 -32.293527 3.409598 -32.165179 4.168527 -32.075893C4.927455 -31.986607 5.535714 -31.936384 5.993304 -31.925223L6.696429 -31.908482C10.357143 -31.908482 12.187500 -33.119420 12.187500 -35.541295ZM24.140625 -32.460938L24.140625 -34.352679C23.035714 -33.772321 21.919643 -33.443080 20.792411 -33.364955C19.587054 -33.275670 18.643973 -33.504464 17.963170 -34.051339C17.282366 -34.598214 16.941964 -35.390625 16.941964 -36.428571C16.941964 -37.466518 17.282366 -38.258929 17.963170 -38.805804C18.643973 -39.352679 19.587054 -39.581473 20.792411 -39.492188C21.919643 -39.414062 23.035714 -39.090402 24.140625 -38.521205L24.140625 -40.396205C23.604911 -40.530134 23.046875 -40.638951 22.466518 -40.722656C21.886161 -40.806362 21.439732 -40.859375 21.127232 -40.881696L20.658482 -40.915179C19.241071 -40.982143 18.021763 -40.904018 17.000558 -40.680804C15.979353 -40.457589 15.195312 -40.122768 14.648438 -39.676339C14.101562 -39.229911 13.705357 -38.738839 13.459821 -38.203125C13.214286 -37.667411 13.091518 -37.075893 13.091518 -36.428571C13.091518 -35.781250 13.214286 -35.189732 13.459821 -34.654018C13.705357 -34.118304 14.101562 -33.627232 14.648438 -33.180804C15.195312 -32.734375 15.979353 -32.399554 17.000558 -32.176339C18.021763 -31.953125 19.241071 -31.875000 20.658482 -31.941964C21.785714 -31.986607 22.946429 -32.159598 24.140625 -32.460938ZM36.428571 -34.386161C36.428571 -34.988839 36.188616 -35.482701 35.708705 -35.867746C35.228795 -36.252790 34.620536 -36.473214 33.883929 -36.529018L33.883929 -36.579241C34.520089 -36.668527 35.016741 -36.900112 35.373884 -37.273996C35.731027 -37.647879 35.909598 -38.091518 35.909598 -38.604911C35.909598 -39.218750 35.680804 -39.709821 35.223214 -40.078125C34.765625 -40.446429 34.168527 -40.647321 33.431920 -40.680804C33.398438 -40.680804 33.331473 -40.683594 33.231027 -40.689174C33.130580 -40.694754 33.052455 -40.697545 32.996652 -40.697545L25.379464 -40.697545L25.379464 -32.159598L33.599330 -32.159598C34.425223 -32.159598 35.103237 -32.363281 35.633371 -32.770647C36.163504 -33.178013 36.428571 -33.716518 36.428571 -34.386161ZM38.571429 -47.142857L38.571429 -25.714286C38.571429 -25.133929 38.359375 -24.631696 37.935268 -24.207589C37.511161 -23.783482 37.008929 -23.571429 36.428571 -23.571429L2.142857 -23.571429C1.562500 -23.571429 1.060268 -23.783482 0.636161 -24.207589C0.212054 -24.631696 0.000000 -25.133929 0.000000 -25.714286L0.000000 -47.142857C0.000000 -47.723214 0.212054 -48.225446 0.636161 -48.649554C1.060268 -49.073661 1.562500 -49.285714 2.142857 -49.285714L36.428571 -49.285714C37.008929 -49.285714 37.511161 -49.073661 37.935268 -48.649554C38.359375 -48.225446 38.571429 -47.723214 38.571429 -47.142857ZM38.571429 -47.142857"></path></svg>