<svg width="30.000000" height="30.000000" viewBox="0.000000 -55.714286 30.000000 30.000000" xmlns="http://www.w3.org/2000/svg"><path d="M27.857143 -28.392857L27.857143 -46.607143C27.857143 -46.752232 27.804129 -46.877790 27.698103 -46.983817C27.592076 -47.089844 27.466518 -47.142857 27.321429 -47.142857L9.107143 -47.142857C8.962054 -47.142857 8.836496 -47.089844 8.730469 -46.983817C8.624442 -46.877790 8.571429 -46.752232 8.571429 -46.607143L8.571429 -28.392857C8.571429 -28.247768 8.624442 -28.122210 8.730469 -28.016183C8.836496 -27.910156 8.962054 -27.857143 9.107143 -27.857143L27.321429 -27.857143C27.466518 -27.857143 27.592076 -27.910156 27.698103 -28.016183C27.804129 -28.122210 27.857143 -28.247768 27.857143 -28.392857ZM30.000000 -46.607143L30.000000 -28.392857C30.000000 -27.656250 29.737723 -27.025670 29.213170 -26.501116C28.688616 -25.976562 28.058036 -25.714286 27.321429 -25.714286L9.107143 -25.714286C8.370536 -25.714286 7.739955 -25.976562 7.215402 -26.501116C6.690848 -27.025670 6.428571 -27.656250 6.428571 -28.392857L6.428571 -46.607143C6.428571 -47.343750 6.690848 -47.974330 7.215402 -48.498884C7.739955 -49.023438 8.370536 -49.285714 9.107143 -49.285714L27.321429 -49.285714C28.058036 -49.285714 28.688616 -49.023438 29.213170 -48.498884C29.737723 -47.974330 30.000000 -47.343750 30.000000 -46.607143ZM23.571429 -53.035714L23.571429 -50.357143L21.428571 -50.357143L21.428571 -53.035714C21.428571 -53.180804 21.375558 -53.306362 21.269531 -53.412388C21.163504 -53.518415 21.037946 -53.571429 20.892857 -53.571429L2.678571 -53.571429C2.533482 -53.571429 2.407924 -53.518415 2.301897 -53.412388C2.195871 -53.306362 2.142857 -53.180804 2.142857 -53.035714L2.142857 -34.821429C2.142857 -34.676339 2.195871 -34.550781 2.301897 -34.444754C2.407924 -34.338728 2.533482 -34.285714 2.678571 -34.285714L5.357143 -34.285714L5.357143 -32.142857L2.678571 -32.142857C1.941964 -32.142857 1.311384 -32.405134 0.786830 -32.929688C0.262277 -33.454241 0.000000 -34.084821 0.000000 -34.821429L0.000000 -53.035714C0.000000 -53.772321 0.262277 -54.402902 0.786830 -54.927455C1.311384 -55.452009 1.941964 -55.714286 2.678571 -55.714286L20.892857 -55.714286C21.629464 -55.714286 22.260045 -55.452009 22.784598 -54.927455C23.309152 -54.402902 23.571429 -53.772321 23.571429 -53.035714ZM23.571429 -53.035714"></path></svg>