<svg width="30.000000" height="25.714286" viewBox="0.000000 -49.285714 30.000000 25.714286" xmlns="http://www.w3.org/2000/svg"><path d="M17.963170 -23.571429L15.000000 -23.571429C13.180804 -23.571429 11.919643 -24.358259 11.216518 -25.931920C10.959821 -26.478795 10.831473 -27.047991 10.831473 -27.639509L10.831473 -27.723214C10.139509 -28.058036 9.589844 -28.551897 9.182478 -29.204799C8.775112 -29.857701 8.571429 -30.569196 8.571429 -31.339286C8.571429 -31.763393 8.599330 -32.031250 8.655134 -32.142857L4.285714 -32.142857C3.102679 -32.142857 2.092634 -32.561384 1.255580 -33.398438C0.418527 -34.235491 0.000000 -35.245536 0.000000 -36.428571C0.000000 -37.611607 0.418527 -38.621652 1.255580 -39.458705C2.092634 -40.295759 3.102679 -40.714286 4.285714 -40.714286L6.177455 -40.714286L5.440848 -40.998884C4.614955 -41.311384 3.948103 -41.833147 3.440290 -42.564174C2.932478 -43.295201 2.678571 -44.107143 2.678571 -45.000000C2.678571 -46.183036 3.097098 -47.193080 3.934152 -48.030134C4.771205 -48.867188 5.781250 -49.285714 6.964286 -49.285714C7.477679 -49.285714 7.985491 -49.190848 8.487723 -49.001116L19.001116 -45.000000L25.714286 -45.000000C26.897321 -45.000000 27.907366 -44.581473 28.744420 -43.744420C29.581473 -42.907366 30.000000 -41.897321 30.000000 -40.714286L30.000000 -29.531250C30.000000 -28.549107 29.698661 -27.670201 29.095982 -26.894531C28.493304 -26.118862 27.712054 -25.613839 26.752232 -25.379464L21.077009 -23.956473C20.050223 -23.699777 19.012277 -23.571429 17.963170 -23.571429ZM17.142857 -35.474330L14.547991 -34.285714L11.819196 -33.046875C11.484375 -32.890625 11.216518 -32.659040 11.015625 -32.352121C10.814732 -32.045201 10.714286 -31.707589 10.714286 -31.339286C10.714286 -30.825893 10.898438 -30.385045 11.266741 -30.016741C11.635045 -29.648437 12.075893 -29.464286 12.589286 -29.464286C12.879464 -29.464286 13.136161 -29.520089 13.359375 -29.631696L19.017857 -32.209821C18.470982 -32.321429 18.021763 -32.600446 17.670201 -33.046875C17.318638 -33.493304 17.142857 -33.995536 17.142857 -34.553571ZM22.500000 -30.267857C22.500000 -30.781250 22.315848 -31.222098 21.947545 -31.590402C21.579241 -31.958705 21.138393 -32.142857 20.625000 -32.142857C20.334821 -32.142857 20.078125 -32.087054 19.854911 -31.975446L15.000000 -29.765625C14.687500 -29.620536 14.481027 -29.525670 14.380580 -29.481027C14.280134 -29.436384 14.109933 -29.341518 13.869978 -29.196429C13.630022 -29.051339 13.465402 -28.920201 13.376116 -28.803013C13.286830 -28.685826 13.197545 -28.523996 13.108259 -28.317522C13.018973 -28.111049 12.974330 -27.885045 12.974330 -27.639509C12.974330 -27.081473 13.150112 -26.623884 13.501674 -26.266741C13.853237 -25.909598 14.308036 -25.731027 14.866071 -25.731027C15.089286 -25.731027 15.301339 -25.781250 15.502232 -25.881696L21.395089 -28.560268C21.729911 -28.716518 21.997768 -28.948103 22.198661 -29.255022C22.399554 -29.561942 22.500000 -29.899554 22.500000 -30.267857ZM18.616071 -42.857143L7.734375 -47.008929C7.466518 -47.098214 7.209821 -47.142857 6.964286 -47.142857C6.372768 -47.142857 5.867746 -46.933594 5.449219 -46.515067C5.030692 -46.096540 4.821429 -45.591518 4.821429 -45.000000C4.821429 -44.553571 4.946987 -44.146205 5.198103 -43.777902C5.449219 -43.409598 5.781250 -43.147321 6.194196 -42.991071L15.000000 -39.642857L15.000000 -38.571429L4.285714 -38.571429C3.694196 -38.571429 3.189174 -38.362165 2.770647 -37.943638C2.352121 -37.525112 2.142857 -37.020089 2.142857 -36.428571C2.142857 -35.837054 2.352121 -35.332031 2.770647 -34.913504C3.189174 -34.494978 3.694196 -34.285714 4.285714 -34.285714L13.242188 -34.285714L17.142857 -36.060268L17.142857 -39.375000C17.142857 -40.078125 17.399554 -40.669643 17.912946 -41.149554L19.771205 -42.857143ZM17.963170 -25.714286C18.878348 -25.714286 19.743304 -25.820312 20.558036 -26.032366L26.233259 -27.455357C26.713170 -27.578125 27.103795 -27.832031 27.405134 -28.217076C27.706473 -28.602121 27.857143 -29.040179 27.857143 -29.531250L27.857143 -40.714286C27.857143 -41.305804 27.647879 -41.810826 27.229353 -42.229353C26.810826 -42.647879 26.305804 -42.857143 25.714286 -42.857143L20.558036 -42.857143L18.281250 -40.747768C17.879464 -40.379464 17.678571 -39.921875 17.678571 -39.375000L17.678571 -34.419643C17.678571 -33.906250 17.862723 -33.476562 18.231027 -33.130580C18.599330 -32.784598 19.040179 -32.611607 19.553571 -32.611607C20.066964 -32.611607 20.507812 -32.806920 20.876116 -33.197545C21.244420 -33.588170 21.428571 -34.040179 21.428571 -34.553571L21.428571 -38.035714L21.964286 -38.035714L21.964286 -34.553571C21.964286 -33.772321 21.646205 -33.136161 21.010045 -32.645089C21.590402 -32.555804 22.073103 -32.285156 22.458147 -31.833147C22.843192 -31.381138 23.035714 -30.859375 23.035714 -30.267857C23.035714 -29.799107 22.907366 -29.363839 22.650670 -28.962054C22.393973 -28.560268 22.053571 -28.264509 21.629464 -28.074777L16.439732 -25.714286ZM17.963170 -25.714286"></path></svg>