<svg width="32.142857" height="30.000000" viewBox="0.000000 -55.714286 32.142857 30.000000" xmlns="http://www.w3.org/2000/svg"><path d="M7.684152 -25.714286C6.824777 -25.714286 6.057478 -25.979353 5.382254 -26.509487C4.707031 -27.039621 4.263393 -27.723214 4.051339 -28.560268L2.360491 -35.273438C2.215402 -35.909598 2.142857 -36.512277 2.142857 -37.081473C2.142857 -37.583705 2.114955 -37.957589 2.059152 -38.203125L0.117188 -46.188616C0.039062 -46.489955 0.000000 -46.808036 0.000000 -47.142857C0.000000 -48.180804 0.345982 -49.079241 1.037946 -49.838170C1.729911 -50.597098 2.594866 -51.032366 3.632812 -51.143973C3.822545 -52.092634 4.282924 -52.868304 5.013951 -53.470982C5.744978 -54.073661 6.595982 -54.375000 7.566964 -54.375000C8.493304 -54.375000 9.319196 -54.087612 10.044643 -53.512835C10.770089 -52.938058 11.244420 -52.198661 11.467634 -51.294643L12.857143 -45.468750L14.581473 -52.633929C14.804688 -53.537946 15.279018 -54.277344 16.004464 -54.852121C16.729911 -55.426897 17.555804 -55.714286 18.482143 -55.714286C19.475446 -55.714286 20.343192 -55.393415 21.085379 -54.751674C21.827567 -54.109933 22.276786 -53.303571 22.433036 -52.332589C23.459821 -52.220982 24.308036 -51.780134 24.977679 -51.010045C25.647321 -50.239955 25.982143 -49.335938 25.982143 -48.297991C25.982143 -48.030134 25.943080 -47.700893 25.864955 -47.310268L23.805804 -38.738839C23.917411 -38.816964 24.126674 -38.976004 24.433594 -39.215960C24.740513 -39.455915 24.955357 -39.620536 25.078125 -39.709821C25.200893 -39.799107 25.396205 -39.927455 25.664062 -40.094866C25.931920 -40.262277 26.160714 -40.376674 26.350446 -40.438058C26.540179 -40.499442 26.771763 -40.560826 27.045201 -40.622210C27.318638 -40.683594 27.594866 -40.714286 27.873884 -40.714286C29.045759 -40.714286 30.050223 -40.301339 30.887277 -39.475446C31.724330 -38.649554 32.142857 -37.650670 32.142857 -36.478795C32.142857 -35.786830 31.983817 -35.128348 31.665737 -34.503348C31.347656 -33.878348 30.909598 -33.353795 30.351562 -32.929688L21.863839 -26.568080C21.104911 -25.998884 20.251116 -25.714286 19.302455 -25.714286ZM18.482143 -53.571429C18.058036 -53.571429 17.675781 -53.437500 17.335379 -53.169643C16.994978 -52.901786 16.774554 -52.555804 16.674107 -52.131696L13.928571 -40.714286L11.802455 -40.714286L9.375000 -50.792411C9.274554 -51.216518 9.054129 -51.562500 8.713728 -51.830357C8.373326 -52.098214 7.991071 -52.232143 7.566964 -52.232143C7.031250 -52.232143 6.584821 -52.047991 6.227679 -51.679688C5.870536 -51.311384 5.691964 -50.864955 5.691964 -50.340402C5.691964 -50.172991 5.708705 -50.016741 5.742188 -49.871652L7.952009 -40.714286L7.516741 -40.714286L5.859375 -47.544643C5.758929 -47.957589 5.535714 -48.306362 5.189732 -48.590960C4.843750 -48.875558 4.458705 -49.017857 4.034598 -49.017857C3.510045 -49.017857 3.063616 -48.833705 2.695312 -48.465402C2.327009 -48.097098 2.142857 -47.656250 2.142857 -47.142857C2.142857 -46.986607 2.159598 -46.841518 2.193080 -46.707589L4.135045 -38.705357C4.213170 -38.392857 4.263393 -37.912946 4.285714 -37.265625C4.308036 -36.618304 4.363839 -36.127232 4.453125 -35.792411L6.127232 -29.079241C6.216518 -28.722098 6.406250 -28.429129 6.696429 -28.200335C6.986607 -27.971540 7.315848 -27.857143 7.684152 -27.857143L19.302455 -27.857143C19.771205 -27.857143 20.195312 -28.002232 20.574777 -28.292411L29.062500 -34.637277C29.687500 -35.117188 30.000000 -35.731027 30.000000 -36.478795C30.000000 -37.059152 29.790737 -37.553013 29.372210 -37.960379C28.953683 -38.367746 28.454241 -38.571429 27.873884 -38.571429C27.393973 -38.571429 26.964286 -38.426339 26.584821 -38.136161L21.445312 -34.285714L21.445312 -38.085938C21.445312 -38.130580 21.623884 -38.900670 21.981027 -40.396205C22.338170 -41.891741 22.717634 -43.465402 23.119420 -45.117188C23.521205 -46.768973 23.738839 -47.667411 23.772321 -47.812500C23.816964 -48.013393 23.839286 -48.175223 23.839286 -48.297991C23.839286 -48.822545 23.660714 -49.274554 23.303571 -49.654018C22.946429 -50.033482 22.505580 -50.223214 21.981027 -50.223214C21.545759 -50.223214 21.157924 -50.089286 20.817522 -49.821429C20.477121 -49.553571 20.256696 -49.207589 20.156250 -48.783482L18.214286 -40.714286L17.779018 -40.714286L20.290179 -51.160714C20.323661 -51.316964 20.340402 -51.473214 20.340402 -51.629464C20.340402 -52.165179 20.164621 -52.622768 19.813058 -53.002232C19.461496 -53.381696 19.017857 -53.571429 18.482143 -53.571429ZM18.482143 -53.571429"></path></svg>