<svg width="33.024554" height="17.142857" viewBox="0.000000 -34.285714 33.024554 17.142857" xmlns="http://www.w3.org/2000/svg"><path d="M14.347098 -33.750000L14.347098 -31.791295C14.347098 -31.646205 14.294085 -31.523438 14.188058 -31.422991C14.082031 -31.322545 13.956473 -31.272321 13.811384 -31.272321L8.822545 -31.272321L8.822545 -17.678571C8.822545 -17.533482 8.772321 -17.407924 8.671875 -17.301897C8.571429 -17.195871 8.448661 -17.142857 8.303571 -17.142857L6.043527 -17.142857C5.898438 -17.142857 5.772879 -17.193080 5.666853 -17.293527C5.560826 -17.393973 5.507812 -17.522321 5.507812 -17.678571L5.507812 -31.272321L0.535714 -31.272321C0.390625 -31.272321 0.265067 -31.322545 0.159040 -31.422991C0.053013 -31.523438 0.000000 -31.646205 0.000000 -31.791295L0.000000 -33.750000C0.000000 -33.906250 0.050223 -34.034598 0.150670 -34.135045C0.251116 -34.235491 0.379464 -34.285714 0.535714 -34.285714L13.811384 -34.285714C13.956473 -34.285714 14.082031 -34.232701 14.188058 -34.126674C14.294085 -34.020647 14.347098 -33.895089 14.347098 -33.750000ZM31.724330 -33.800223L33.013393 -17.712054C33.024554 -17.566964 32.979911 -17.433036 32.879464 -17.310268C32.767857 -17.198661 32.639509 -17.142857 32.494420 -17.142857L30.251116 -17.142857C30.117187 -17.142857 30.000000 -17.190290 29.899554 -17.285156C29.799107 -17.380022 29.743304 -17.494420 29.732143 -17.628348L28.962054 -27.472098L25.797991 -20.357143C25.708705 -20.145089 25.546875 -20.039062 25.312500 -20.039062L23.303571 -20.039062C23.080357 -20.039062 22.918527 -20.145089 22.818080 -20.357143L19.670759 -27.505580L18.917411 -17.628348C18.906250 -17.494420 18.850446 -17.380022 18.750000 -17.285156C18.649554 -17.190290 18.532366 -17.142857 18.398438 -17.142857L16.138393 -17.142857C15.993304 -17.142857 15.864955 -17.198661 15.753348 -17.310268C15.652902 -17.421875 15.602679 -17.555804 15.602679 -17.712054L16.908482 -33.800223C16.919643 -33.934152 16.975446 -34.048549 17.075893 -34.143415C17.176339 -34.238281 17.293527 -34.285714 17.427455 -34.285714L19.804688 -34.285714C20.027902 -34.285714 20.189732 -34.179688 20.290179 -33.967634L23.973214 -25.262277C24.084821 -24.994420 24.196429 -24.709821 24.308036 -24.408482C24.341518 -24.486607 24.394531 -24.623326 24.467076 -24.818638C24.539621 -25.013951 24.598214 -25.161830 24.642857 -25.262277L28.342634 -33.967634C28.443080 -34.179688 28.604911 -34.285714 28.828125 -34.285714L31.188616 -34.285714C31.333705 -34.285714 31.456473 -34.238281 31.556920 -34.143415C31.657366 -34.048549 31.713170 -33.934152 31.724330 -33.800223ZM31.724330 -33.800223"></path></svg>