<svg width="30.000000" height="30.000000" viewBox="0.000000 -55.714286 30.000000 30.000000" xmlns="http://www.w3.org/2000/svg"><path d="M17.444196 -43.945312C17.444196 -44.927455 17.109375 -45.602679 16.439732 -45.970982C16.071429 -46.171875 15.418527 -46.272321 14.481027 -46.272321L12.421875 -46.272321L12.421875 -41.568080L15.133929 -41.568080C15.870536 -41.568080 16.439732 -41.774554 16.841518 -42.187500C17.243304 -42.600446 17.444196 -43.186384 17.444196 -43.945312ZM18.314732 -39.174107L21.746652 -32.929688C21.835938 -32.739955 21.830357 -32.566964 21.729911 -32.410714C21.640625 -32.232143 21.489955 -32.142857 21.277902 -32.142857L18.733259 -32.142857C18.510045 -32.142857 18.353795 -32.237723 18.264509 -32.427455L15.016741 -38.537946L12.421875 -38.537946L12.421875 -32.678571C12.421875 -32.522321 12.371652 -32.393973 12.271205 -32.293527C12.170759 -32.193080 12.042411 -32.142857 11.886161 -32.142857L9.642857 -32.142857C9.486607 -32.142857 9.358259 -32.193080 9.257812 -32.293527C9.157366 -32.393973 9.107143 -32.522321 9.107143 -32.678571L9.107143 -48.750000C9.107143 -48.906250 9.157366 -49.034598 9.257812 -49.135045C9.358259 -49.235491 9.486607 -49.285714 9.642857 -49.285714L14.564732 -49.285714C15.993304 -49.285714 17.053571 -49.151786 17.745536 -48.883929C18.694196 -48.537946 19.441964 -47.929688 19.988839 -47.059152C20.535714 -46.188616 20.809152 -45.184152 20.809152 -44.045759C20.809152 -43.018973 20.571987 -42.095424 20.097656 -41.275112C19.623326 -40.454799 18.978795 -39.843750 18.164062 -39.441964C18.231027 -39.330357 18.281250 -39.241071 18.314732 -39.174107ZM15.000000 -53.035714C13.325893 -53.035714 11.729911 -52.709263 10.212054 -52.056362C8.694196 -51.403460 7.385603 -50.527344 6.286272 -49.428013C5.186942 -48.328683 4.310826 -47.020089 3.657924 -45.502232C3.005022 -43.984375 2.678571 -42.388393 2.678571 -40.714286C2.678571 -39.040179 3.005022 -37.444196 3.657924 -35.926339C4.310826 -34.408482 5.186942 -33.099888 6.286272 -32.000558C7.385603 -30.901228 8.694196 -30.025112 10.212054 -29.372210C11.729911 -28.719308 13.325893 -28.392857 15.000000 -28.392857C16.674107 -28.392857 18.270089 -28.719308 19.787946 -29.372210C21.305804 -30.025112 22.614397 -30.901228 23.713728 -32.000558C24.813058 -33.099888 25.689174 -34.408482 26.342076 -35.926339C26.994978 -37.444196 27.321429 -39.040179 27.321429 -40.714286C27.321429 -42.388393 26.994978 -43.984375 26.342076 -45.502232C25.689174 -47.020089 24.813058 -48.328683 23.713728 -49.428013C22.614397 -50.527344 21.305804 -51.403460 19.787946 -52.056362C18.270089 -52.709263 16.674107 -53.035714 15.000000 -53.035714ZM30.000000 -40.714286C30.000000 -38.683036 29.603795 -36.741071 28.811384 -34.888393C28.018973 -33.035714 26.953125 -31.439732 25.613839 -30.100446C24.274554 -28.761161 22.678571 -27.695312 20.825893 -26.902902C18.973214 -26.110491 17.031250 -25.714286 15.000000 -25.714286C12.968750 -25.714286 11.026786 -26.110491 9.174107 -26.902902C7.321429 -27.695312 5.725446 -28.761161 4.386161 -30.100446C3.046875 -31.439732 1.981027 -33.035714 1.188616 -34.888393C0.396205 -36.741071 0.000000 -38.683036 0.000000 -40.714286C0.000000 -42.745536 0.396205 -44.687500 1.188616 -46.540179C1.981027 -48.392857 3.046875 -49.988839 4.386161 -51.328125C5.725446 -52.667411 7.321429 -53.733259 9.174107 -54.525670C11.026786 -55.318080 12.968750 -55.714286 15.000000 -55.714286C17.031250 -55.714286 18.973214 -55.318080 20.825893 -54.525670C22.678571 -53.733259 24.274554 -52.667411 25.613839 -51.328125C26.953125 -49.988839 28.018973 -48.392857 28.811384 -46.540179C29.603795 -44.687500 30.000000 -42.745536 30.000000 -40.714286ZM30.000000 -40.714286"></path></svg>