<svg width="27.857143" height="30.000000" viewBox="0.000000 -55.714286 27.857143 30.000000" xmlns="http://www.w3.org/2000/svg"><path d="M18.599330 -32.527902L17.829241 -31.757812C17.728795 -31.657366 17.606027 -31.607143 17.460938 -31.607143C17.315848 -31.607143 17.187500 -31.657366 17.075893 -31.757812L13.928571 -34.921875L10.781250 -31.757812C10.669643 -31.657366 10.541295 -31.607143 10.396205 -31.607143C10.251116 -31.607143 10.128348 -31.657366 10.027902 -31.757812L9.257812 -32.527902C9.157366 -32.628348 9.107143 -32.751116 9.107143 -32.896205C9.107143 -33.041295 9.157366 -33.169643 9.257812 -33.281250L12.421875 -36.428571L9.257812 -39.575893C9.157366 -39.687500 9.107143 -39.815848 9.107143 -39.960938C9.107143 -40.106027 9.157366 -40.228795 9.257812 -40.329241L10.027902 -41.099330C10.128348 -41.199777 10.251116 -41.250000 10.396205 -41.250000C10.541295 -41.250000 10.669643 -41.199777 10.781250 -41.099330L13.928571 -37.952009L17.075893 -41.099330C17.187500 -41.199777 17.315848 -41.250000 17.460938 -41.250000C17.606027 -41.250000 17.728795 -41.199777 17.829241 -41.099330L18.599330 -40.329241C18.699777 -40.228795 18.750000 -40.106027 18.750000 -39.960938C18.750000 -39.815848 18.699777 -39.687500 18.599330 -39.575893L15.452009 -36.428571L18.599330 -33.281250C18.699777 -33.169643 18.750000 -33.041295 18.750000 -32.896205C18.750000 -32.751116 18.699777 -32.628348 18.599330 -32.527902ZM2.142857 -27.857143L25.714286 -27.857143L25.714286 -45.000000L2.142857 -45.000000ZM8.571429 -48.214286L8.571429 -53.035714C8.571429 -53.191964 8.521205 -53.320312 8.420759 -53.420759C8.320312 -53.521205 8.191964 -53.571429 8.035714 -53.571429L6.964286 -53.571429C6.808036 -53.571429 6.679688 -53.521205 6.579241 -53.420759C6.478795 -53.320312 6.428571 -53.191964 6.428571 -53.035714L6.428571 -48.214286C6.428571 -48.058036 6.478795 -47.929688 6.579241 -47.829241C6.679688 -47.728795 6.808036 -47.678571 6.964286 -47.678571L8.035714 -47.678571C8.191964 -47.678571 8.320312 -47.728795 8.420759 -47.829241C8.521205 -47.929688 8.571429 -48.058036 8.571429 -48.214286ZM21.428571 -48.214286L21.428571 -53.035714C21.428571 -53.191964 21.378348 -53.320312 21.277902 -53.420759C21.177455 -53.521205 21.049107 -53.571429 20.892857 -53.571429L19.821429 -53.571429C19.665179 -53.571429 19.536830 -53.521205 19.436384 -53.420759C19.335938 -53.320312 19.285714 -53.191964 19.285714 -53.035714L19.285714 -48.214286C19.285714 -48.058036 19.335938 -47.929688 19.436384 -47.829241C19.536830 -47.728795 19.665179 -47.678571 19.821429 -47.678571L20.892857 -47.678571C21.049107 -47.678571 21.177455 -47.728795 21.277902 -47.829241C21.378348 -47.929688 21.428571 -48.058036 21.428571 -48.214286ZM27.857143 -49.285714L27.857143 -27.857143C27.857143 -27.276786 27.645089 -26.774554 27.220982 -26.350446C26.796875 -25.926339 26.294643 -25.714286 25.714286 -25.714286L2.142857 -25.714286C1.562500 -25.714286 1.060268 -25.926339 0.636161 -26.350446C0.212054 -26.774554 0.000000 -27.276786 0.000000 -27.857143L0.000000 -49.285714C0.000000 -49.866071 0.212054 -50.368304 0.636161 -50.792411C1.060268 -51.216518 1.562500 -51.428571 2.142857 -51.428571L4.285714 -51.428571L4.285714 -53.035714C4.285714 -53.772321 4.547991 -54.402902 5.072545 -54.927455C5.597098 -55.452009 6.227679 -55.714286 6.964286 -55.714286L8.035714 -55.714286C8.772321 -55.714286 9.402902 -55.452009 9.927455 -54.927455C10.452009 -54.402902 10.714286 -53.772321 10.714286 -53.035714L10.714286 -51.428571L17.142857 -51.428571L17.142857 -53.035714C17.142857 -53.772321 17.405134 -54.402902 17.929688 -54.927455C18.454241 -55.452009 19.084821 -55.714286 19.821429 -55.714286L20.892857 -55.714286C21.629464 -55.714286 22.260045 -55.452009 22.784598 -54.927455C23.309152 -54.402902 23.571429 -53.772321 23.571429 -53.035714L23.571429 -51.428571L25.714286 -51.428571C26.294643 -51.428571 26.796875 -51.216518 27.220982 -50.792411C27.645089 -50.368304 27.857143 -49.866071 27.857143 -49.285714ZM27.857143 -49.285714"></path></svg>