<svg width="28.761161" height="30.000000" viewBox="0.619420 -55.714286 28.761161 30.000000" xmlns="http://www.w3.org/2000/svg"><path d="M29.213170 -50.742188C29.324777 -50.630580 29.380580 -50.502232 29.380580 -50.357143C29.380580 -50.212054 29.324777 -50.083705 29.213170 -49.972098L26.852679 -47.611607C26.540179 -47.299107 26.160714 -47.142857 25.714286 -47.142857L3.214286 -47.142857C2.924107 -47.142857 2.672991 -47.248884 2.460938 -47.460938C2.248884 -47.672991 2.142857 -47.924107 2.142857 -48.214286L2.142857 -52.500000C2.142857 -52.790179 2.248884 -53.041295 2.460938 -53.253348C2.672991 -53.465402 2.924107 -53.571429 3.214286 -53.571429L12.857143 -53.571429L12.857143 -54.642857C12.857143 -54.933036 12.963170 -55.184152 13.175223 -55.396205C13.387277 -55.608259 13.638393 -55.714286 13.928571 -55.714286L16.071429 -55.714286C16.361607 -55.714286 16.612723 -55.608259 16.824777 -55.396205C17.036830 -55.184152 17.142857 -54.933036 17.142857 -54.642857L17.142857 -53.571429L25.714286 -53.571429C26.160714 -53.571429 26.540179 -53.415179 26.852679 -53.102679ZM12.857143 -35.357143L17.142857 -35.357143L17.142857 -26.785714C17.142857 -26.495536 17.036830 -26.244420 16.824777 -26.032366C16.612723 -25.820312 16.361607 -25.714286 16.071429 -25.714286L13.928571 -25.714286C13.638393 -25.714286 13.387277 -25.820312 13.175223 -26.032366C12.963170 -26.244420 12.857143 -26.495536 12.857143 -26.785714ZM26.785714 -42.857143C27.075893 -42.857143 27.327009 -42.751116 27.539062 -42.539062C27.751116 -42.327009 27.857143 -42.075893 27.857143 -41.785714L27.857143 -37.500000C27.857143 -37.209821 27.751116 -36.958705 27.539062 -36.746652C27.327009 -36.534598 27.075893 -36.428571 26.785714 -36.428571L4.285714 -36.428571C3.839286 -36.428571 3.459821 -36.584821 3.147321 -36.897321L0.786830 -39.257812C0.675223 -39.369420 0.619420 -39.497768 0.619420 -39.642857C0.619420 -39.787946 0.675223 -39.916295 0.786830 -40.027902L3.147321 -42.388393C3.459821 -42.700893 3.839286 -42.857143 4.285714 -42.857143L12.857143 -42.857143L12.857143 -46.071429L17.142857 -46.071429L17.142857 -42.857143ZM26.785714 -42.857143"></path></svg>