<svg width="25.714286" height="25.714286" viewBox="0.000000 -49.285714 25.714286 25.714286" xmlns="http://www.w3.org/2000/svg"><path d="M0.000000 -49.285714L25.714286 -49.285714L25.714286 -23.571429L0.000000 -23.571429ZM15.200893 -43.928571L15.000000 -43.376116L16.255580 -41.986607L15.736607 -40.078125L16.155134 -39.659598L17.946429 -40.613839L19.737723 -39.659598L20.156250 -40.078125L19.637277 -41.986607L20.892857 -43.376116L20.691964 -43.928571L19.101562 -43.928571L18.214286 -45.535714L17.678571 -45.535714L16.791295 -43.928571ZM10.731027 -41.199777C11.088170 -41.199777 11.336496 -41.110491 11.476004 -40.931920C11.615513 -40.753348 11.679688 -40.401786 11.668527 -39.877232L14.581473 -40.228795C14.581473 -40.842634 14.483817 -41.358817 14.288504 -41.777344C14.093192 -42.195871 13.811384 -42.508371 13.443080 -42.714844C13.074777 -42.921317 12.689732 -43.063616 12.287946 -43.141741C11.886161 -43.219866 11.411830 -43.258929 10.864955 -43.258929C9.380580 -43.258929 8.270089 -42.938058 7.533482 -42.296317C6.796875 -41.654576 6.428571 -40.636161 6.428571 -39.241071L6.428571 -38.035714L4.821429 -38.035714L4.821429 -35.892857L6.093750 -35.892857C6.316964 -35.892857 6.428571 -35.848214 6.428571 -35.758929L6.428571 -29.363839C6.428571 -29.207589 6.400670 -29.095982 6.344866 -29.029018C6.289062 -28.962054 6.188616 -28.922991 6.043527 -28.911830L4.821429 -28.794643L4.821429 -27.321429L12.321429 -27.321429L12.321429 -28.761161L9.827009 -28.995536C9.760045 -29.006696 9.712612 -29.015067 9.684710 -29.020647C9.656808 -29.026228 9.637277 -29.040179 9.626116 -29.062500C9.614955 -29.084821 9.612165 -29.107143 9.617746 -29.129464C9.623326 -29.151786 9.628906 -29.190848 9.634487 -29.246652C9.640067 -29.302455 9.642857 -29.358259 9.642857 -29.414062L9.642857 -35.892857L12.840402 -35.892857L13.476562 -38.035714L9.609375 -38.035714C9.542411 -38.035714 9.531250 -38.069196 9.575893 -38.136161C9.620536 -38.203125 9.642857 -38.253348 9.642857 -38.286830L9.642857 -39.626116C9.642857 -39.927455 9.651228 -40.153460 9.667969 -40.304129C9.684710 -40.454799 9.726562 -40.611049 9.793527 -40.772879C9.860491 -40.934710 9.969308 -41.046317 10.119978 -41.107701C10.270647 -41.169085 10.474330 -41.199777 10.731027 -41.199777ZM20.892857 -27.321429L20.892857 -28.761161L19.988839 -28.911830C19.910714 -28.922991 19.857701 -28.936942 19.829799 -28.953683C19.801897 -28.970424 19.787946 -28.987165 19.787946 -29.003906C19.787946 -29.020647 19.793527 -29.062500 19.804688 -29.129464C19.815848 -29.196429 19.821429 -29.263393 19.821429 -29.330357L19.821429 -38.035714L15.217634 -38.035714L14.832589 -36.344866L16.222098 -35.976562C16.478795 -35.898438 16.607143 -35.747768 16.607143 -35.524554L16.607143 -29.330357C16.607143 -29.174107 16.573661 -29.070871 16.506696 -29.020647C16.439732 -28.970424 16.328125 -28.934152 16.171875 -28.911830L15.000000 -28.761161L15.000000 -27.321429ZM20.892857 -27.321429"></path></svg>