<svg width="30.000000" height="30.000000" viewBox="0.000000 -55.714286 30.000000 30.000000" xmlns="http://www.w3.org/2000/svg"><path d="M19.252232 -42.957589C19.252232 -42.332589 19.031808 -41.802455 18.590960 -41.367188C18.150112 -40.931920 17.617188 -40.714286 16.992188 -40.714286L12.756696 -40.714286L12.756696 -45.217634L16.992188 -45.217634C17.617188 -45.217634 18.150112 -44.997210 18.590960 -44.556362C19.031808 -44.115513 19.252232 -43.582589 19.252232 -42.957589ZM22.248884 -42.957589C22.248884 -44.408482 21.738281 -45.647321 20.717076 -46.674107C19.695871 -47.700893 18.454241 -48.214286 16.992188 -48.214286L9.743304 -48.214286L9.743304 -33.214286L12.756696 -33.214286L12.756696 -37.717634L16.992188 -37.717634C18.443080 -37.717634 19.681920 -38.228237 20.708705 -39.249442C21.735491 -40.270647 22.248884 -41.506696 22.248884 -42.957589ZM30.000000 -40.714286C30.000000 -38.683036 29.603795 -36.741071 28.811384 -34.888393C28.018973 -33.035714 26.953125 -31.439732 25.613839 -30.100446C24.274554 -28.761161 22.678571 -27.695312 20.825893 -26.902902C18.973214 -26.110491 17.031250 -25.714286 15.000000 -25.714286C12.968750 -25.714286 11.026786 -26.110491 9.174107 -26.902902C7.321429 -27.695312 5.725446 -28.761161 4.386161 -30.100446C3.046875 -31.439732 1.981027 -33.035714 1.188616 -34.888393C0.396205 -36.741071 0.000000 -38.683036 0.000000 -40.714286C0.000000 -42.745536 0.396205 -44.687500 1.188616 -46.540179C1.981027 -48.392857 3.046875 -49.988839 4.386161 -51.328125C5.725446 -52.667411 7.321429 -53.733259 9.174107 -54.525670C11.026786 -55.318080 12.968750 -55.714286 15.000000 -55.714286C17.031250 -55.714286 18.973214 -55.318080 20.825893 -54.525670C22.678571 -53.733259 24.274554 -52.667411 25.613839 -51.328125C26.953125 -49.988839 28.018973 -48.392857 28.811384 -46.540179C29.603795 -44.687500 30.000000 -42.745536 30.000000 -40.714286ZM30.000000 -40.714286"></path></svg>