<svg width="38.571429" height="22.734375" viewBox="0.000000 -44.815848 38.571429 22.734375" xmlns="http://www.w3.org/2000/svg"><path d="M27.539062 -30.066964C27.539062 -30.725446 27.349330 -31.319754 26.969866 -31.849888C26.590402 -32.380022 26.104911 -32.762277 25.513393 -32.996652C25.435268 -32.494420 25.306920 -31.981027 25.128348 -31.456473C25.050223 -31.188616 24.896763 -30.976562 24.667969 -30.820312C24.439174 -30.664062 24.190848 -30.585938 23.922991 -30.585938C23.789062 -30.585938 23.655134 -30.602679 23.521205 -30.636161C23.175223 -30.747768 22.924107 -30.962612 22.767857 -31.280692C22.611607 -31.598772 22.589286 -31.925223 22.700893 -32.260045C22.957589 -33.052455 23.085938 -33.850446 23.085938 -34.654018C23.085938 -36.026786 22.745536 -37.296317 22.064732 -38.462612C21.383929 -39.628906 20.457589 -40.552455 19.285714 -41.233259C18.113839 -41.914062 16.841518 -42.254464 15.468750 -42.254464C13.973214 -42.254464 12.594866 -41.847098 11.333705 -41.032366C10.072545 -40.217634 9.140625 -39.135045 8.537946 -37.784598C9.743304 -37.472098 10.792411 -36.880580 11.685268 -36.010045C11.930804 -35.753348 12.053571 -35.446429 12.053571 -35.089286C12.053571 -34.732143 11.930804 -34.430804 11.685268 -34.185268C11.439732 -33.939732 11.138393 -33.816964 10.781250 -33.816964C10.424107 -33.816964 10.117188 -33.939732 9.860491 -34.185268C9.023438 -35.022321 8.018973 -35.440848 6.847098 -35.440848C5.664062 -35.440848 4.654018 -35.025112 3.816964 -34.193638C2.979911 -33.362165 2.561384 -32.354911 2.561384 -31.171875C2.561384 -29.988839 2.979911 -28.981585 3.816964 -28.150112C4.654018 -27.318638 5.664062 -26.902902 6.847098 -26.902902L24.358259 -26.902902C25.239955 -26.902902 25.990513 -27.212612 26.609933 -27.832031C27.229353 -28.451451 27.539062 -29.196429 27.539062 -30.066964ZM30.100446 -30.066964C30.100446 -28.482143 29.539621 -27.131696 28.417969 -26.015625C27.296317 -24.899554 25.943080 -24.341518 24.358259 -24.341518L6.847098 -24.341518C4.960938 -24.341518 3.348214 -25.008371 2.008929 -26.342076C0.669643 -27.675781 0.000000 -29.285714 0.000000 -31.171875C0.000000 -32.879464 0.558036 -34.369420 1.674107 -35.641741C2.790179 -36.914062 4.179688 -37.672991 5.842634 -37.918527C6.534598 -39.972098 7.767857 -41.635045 9.542411 -42.907366C11.316964 -44.179688 13.292411 -44.815848 15.468750 -44.815848C18.091518 -44.815848 20.371094 -43.931362 22.307478 -42.162388C24.243862 -40.393415 25.340402 -38.219866 25.597098 -35.641741C26.891741 -35.362723 27.965960 -34.701451 28.819754 -33.657924C29.673549 -32.614397 30.100446 -31.417411 30.100446 -30.066964ZM34.285714 -30.066964C34.285714 -28.113839 33.744420 -26.333705 32.661830 -24.726562C32.405134 -24.358259 32.047991 -24.174107 31.590402 -24.174107C31.322545 -24.174107 31.082589 -24.246652 30.870536 -24.391741C30.580357 -24.581473 30.401786 -24.852121 30.334821 -25.203683C30.267857 -25.555246 30.334821 -25.876116 30.535714 -26.166295C31.328125 -27.327009 31.724330 -28.627232 31.724330 -30.066964C31.724330 -31.506696 31.328125 -32.806920 30.535714 -33.967634C30.334821 -34.257812 30.267857 -34.575893 30.334821 -34.921875C30.401786 -35.267857 30.580357 -35.541295 30.870536 -35.742188C31.160714 -35.943080 31.481585 -36.007254 31.833147 -35.934710C32.184710 -35.862165 32.460938 -35.680804 32.661830 -35.390625C33.744420 -33.805804 34.285714 -32.031250 34.285714 -30.066964ZM38.571429 -30.066964C38.571429 -27.343750 37.823661 -24.871652 36.328125 -22.650670C36.071429 -22.271205 35.714286 -22.081473 35.256696 -22.081473C35.000000 -22.081473 34.765625 -22.154018 34.553571 -22.299107C34.263393 -22.500000 34.082031 -22.773438 34.009487 -23.119420C33.936942 -23.465402 34.001116 -23.783482 34.202009 -24.073661C35.407366 -25.904018 36.010045 -27.901786 36.010045 -30.066964C36.010045 -32.243304 35.407366 -34.235491 34.202009 -36.043527C34.001116 -36.333705 33.936942 -36.654576 34.009487 -37.006138C34.082031 -37.357701 34.263393 -37.628348 34.553571 -37.818080C34.843750 -38.018973 35.161830 -38.085938 35.507812 -38.018973C35.853795 -37.952009 36.127232 -37.767857 36.328125 -37.466518C37.823661 -35.256696 38.571429 -32.790179 38.571429 -30.066964ZM38.571429 -30.066964"></path></svg>