<svg width="25.714286" height="25.714286" viewBox="0.000000 -49.285714 25.714286 25.714286" xmlns="http://www.w3.org/2000/svg"><path d="M18.214286 -31.607143L18.214286 -41.250000C18.214286 -41.406250 18.164062 -41.534598 18.063616 -41.635045C17.963170 -41.735491 17.834821 -41.785714 17.678571 -41.785714L8.035714 -41.785714C7.879464 -41.785714 7.751116 -41.735491 7.650670 -41.635045C7.550223 -41.534598 7.500000 -41.406250 7.500000 -41.250000L7.500000 -31.607143C7.500000 -31.450893 7.550223 -31.322545 7.650670 -31.222098C7.751116 -31.121652 7.879464 -31.071429 8.035714 -31.071429L17.678571 -31.071429C17.834821 -31.071429 17.963170 -31.121652 18.063616 -31.222098C18.164062 -31.322545 18.214286 -31.450893 18.214286 -31.607143ZM25.714286 -36.428571C25.714286 -34.095982 25.139509 -31.944754 23.989955 -29.974888C22.840402 -28.005022 21.280692 -26.445312 19.310826 -25.295759C17.340960 -24.146205 15.189732 -23.571429 12.857143 -23.571429C10.524554 -23.571429 8.373326 -24.146205 6.403460 -25.295759C4.433594 -26.445312 2.873884 -28.005022 1.724330 -29.974888C0.574777 -31.944754 0.000000 -34.095982 0.000000 -36.428571C0.000000 -38.761161 0.574777 -40.912388 1.724330 -42.882254C2.873884 -44.852121 4.433594 -46.411830 6.403460 -47.561384C8.373326 -48.710938 10.524554 -49.285714 12.857143 -49.285714C15.189732 -49.285714 17.340960 -48.710938 19.310826 -47.561384C21.280692 -46.411830 22.840402 -44.852121 23.989955 -42.882254C25.139509 -40.912388 25.714286 -38.761161 25.714286 -36.428571ZM25.714286 -36.428571"></path></svg>