<svg width="30.066964" height="30.000000" viewBox="-0.033482 -55.714286 30.066964 30.000000" xmlns="http://www.w3.org/2000/svg"><path d="M29.414062 -32.142857L30.000000 -26.902902C30.033482 -26.590402 29.944196 -26.311384 29.732143 -26.065848C29.520089 -25.831473 29.252232 -25.714286 28.928571 -25.714286L1.071429 -25.714286C0.747768 -25.714286 0.479911 -25.831473 0.267857 -26.065848C0.055804 -26.311384 -0.033482 -26.590402 0.000000 -26.902902L0.585938 -32.142857ZM27.857143 -46.188616L29.296875 -33.214286L0.703125 -33.214286L2.142857 -46.188616C2.176339 -46.456473 2.293527 -46.682478 2.494420 -46.866629C2.695312 -47.050781 2.935268 -47.142857 3.214286 -47.142857L7.500000 -47.142857L7.500000 -45.000000C7.500000 -44.408482 7.709263 -43.903460 8.127790 -43.484933C8.546317 -43.066406 9.051339 -42.857143 9.642857 -42.857143C10.234375 -42.857143 10.739397 -43.066406 11.157924 -43.484933C11.576451 -43.903460 11.785714 -44.408482 11.785714 -45.000000L11.785714 -47.142857L18.214286 -47.142857L18.214286 -45.000000C18.214286 -44.408482 18.423549 -43.903460 18.842076 -43.484933C19.260603 -43.066406 19.765625 -42.857143 20.357143 -42.857143C20.948661 -42.857143 21.453683 -43.066406 21.872210 -43.484933C22.290737 -43.903460 22.500000 -44.408482 22.500000 -45.000000L22.500000 -47.142857L26.785714 -47.142857C27.064732 -47.142857 27.304688 -47.050781 27.505580 -46.866629C27.706473 -46.682478 27.823661 -46.456473 27.857143 -46.188616ZM21.428571 -49.285714L21.428571 -45.000000C21.428571 -44.709821 21.322545 -44.458705 21.110491 -44.246652C20.898438 -44.034598 20.647321 -43.928571 20.357143 -43.928571C20.066964 -43.928571 19.815848 -44.034598 19.603795 -44.246652C19.391741 -44.458705 19.285714 -44.709821 19.285714 -45.000000L19.285714 -49.285714C19.285714 -50.468750 18.867188 -51.478795 18.030134 -52.315848C17.193080 -53.152902 16.183036 -53.571429 15.000000 -53.571429C13.816964 -53.571429 12.806920 -53.152902 11.969866 -52.315848C11.132812 -51.478795 10.714286 -50.468750 10.714286 -49.285714L10.714286 -45.000000C10.714286 -44.709821 10.608259 -44.458705 10.396205 -44.246652C10.184152 -44.034598 9.933036 -43.928571 9.642857 -43.928571C9.352679 -43.928571 9.101562 -44.034598 8.889509 -44.246652C8.677455 -44.458705 8.571429 -44.709821 8.571429 -45.000000L8.571429 -49.285714C8.571429 -51.060268 9.199219 -52.575335 10.454799 -53.830915C11.710379 -55.086496 13.225446 -55.714286 15.000000 -55.714286C16.774554 -55.714286 18.289621 -55.086496 19.545201 -53.830915C20.800781 -52.575335 21.428571 -51.060268 21.428571 -49.285714ZM21.428571 -49.285714"></path></svg>