<svg width="30.055804" height="27.622768" viewBox="-0.027902 -52.148438 30.055804 27.622768" xmlns="http://www.w3.org/2000/svg"><path d="M1.741071 -41.517857L15.000000 -24.525670L0.468750 -35.072545C0.267857 -35.217634 0.128348 -35.410156 0.050223 -35.650112C-0.027902 -35.890067 -0.027902 -36.127232 0.050223 -36.361607ZM9.475446 -41.517857L20.524554 -41.517857L15.000000 -24.525670ZM6.160714 -51.763393L9.475446 -41.517857L1.741071 -41.517857L5.055804 -51.763393C5.145089 -52.020089 5.329241 -52.148438 5.608259 -52.148438C5.887277 -52.148438 6.071429 -52.020089 6.160714 -51.763393ZM28.258929 -41.517857L29.949777 -36.361607C30.027902 -36.127232 30.027902 -35.890067 29.949777 -35.650112C29.871652 -35.410156 29.732143 -35.217634 29.531250 -35.072545L15.000000 -24.525670ZM28.258929 -41.517857L20.524554 -41.517857L23.839286 -51.763393C23.928571 -52.020089 24.112723 -52.148438 24.391741 -52.148438C24.670759 -52.148438 24.854911 -52.020089 24.944196 -51.763393ZM28.258929 -41.517857"></path></svg>