<svg width="25.714286" height="25.714286" viewBox="0.000000 -49.285714 25.714286 25.714286" xmlns="http://www.w3.org/2000/svg"><path d="M8.621652 -36.177455L8.621652 -34.034598L4.402902 -34.034598L4.402902 -36.177455ZM8.621652 -40.446429L8.621652 -38.320312L4.402902 -38.320312L4.402902 -40.446429ZM21.311384 -31.891741L21.311384 -29.748884L15.602679 -29.748884L15.602679 -31.891741ZM21.311384 -36.177455L21.311384 -34.034598L10.061384 -34.034598L10.061384 -36.177455ZM21.311384 -40.446429L21.311384 -38.320312L10.061384 -38.320312L10.061384 -40.446429ZM23.571429 -26.049107L23.571429 -46.808036C23.571429 -46.897321 23.537946 -46.975446 23.470982 -47.042411C23.404018 -47.109375 23.325893 -47.142857 23.236607 -47.142857L22.700893 -47.142857L16.372768 -42.857143L12.857143 -45.719866L9.341518 -42.857143L3.013393 -47.142857L2.477679 -47.142857C2.388393 -47.142857 2.310268 -47.109375 2.243304 -47.042411C2.176339 -46.975446 2.142857 -46.897321 2.142857 -46.808036L2.142857 -26.049107C2.142857 -25.959821 2.176339 -25.881696 2.243304 -25.814732C2.310268 -25.747768 2.388393 -25.714286 2.477679 -25.714286L23.236607 -25.714286C23.325893 -25.714286 23.404018 -25.747768 23.470982 -25.814732C23.537946 -25.881696 23.571429 -25.959821 23.571429 -26.049107ZM9.257812 -44.631696L12.354911 -47.142857L5.558036 -47.142857ZM16.456473 -44.631696L20.156250 -47.142857L13.359375 -47.142857ZM25.714286 -46.808036L25.714286 -26.049107C25.714286 -25.357143 25.474330 -24.771205 24.994420 -24.291295C24.514509 -23.811384 23.928571 -23.571429 23.236607 -23.571429L2.477679 -23.571429C1.785714 -23.571429 1.199777 -23.811384 0.719866 -24.291295C0.239955 -24.771205 0.000000 -25.357143 0.000000 -26.049107L0.000000 -46.808036C0.000000 -47.500000 0.239955 -48.085938 0.719866 -48.565848C1.199777 -49.045759 1.785714 -49.285714 2.477679 -49.285714L23.236607 -49.285714C23.928571 -49.285714 24.514509 -49.045759 24.994420 -48.565848C25.474330 -48.085938 25.714286 -47.500000 25.714286 -46.808036ZM25.714286 -46.808036"></path></svg>