<svg width="23.571429" height="29.765625" viewBox="0.000000 -55.245536 23.571429 29.765625" xmlns="http://www.w3.org/2000/svg"><path d="M10.329241 -27.204241C10.329241 -26.958705 10.086496 -26.665737 9.601004 -26.325335C9.115513 -25.984933 8.694196 -25.747768 8.337054 -25.613839C8.113839 -25.524554 7.862723 -25.479911 7.583705 -25.479911C7.204241 -25.479911 6.657366 -25.580357 5.943080 -25.781250C5.909598 -25.792411 5.876116 -25.803571 5.842634 -25.814732C4.547991 -26.216518 3.549107 -26.925223 2.845982 -27.940848C2.544643 -28.376116 2.081473 -29.274554 1.456473 -30.636161C0.909598 -31.830357 0.530134 -33.035714 0.318080 -34.252232C0.106027 -35.468750 0.000000 -36.830357 0.000000 -38.337054C0.000000 -39.843750 0.106027 -41.205357 0.318080 -42.421875C0.530134 -43.638393 0.909598 -44.843750 1.456473 -46.037946C1.489955 -46.116071 1.540179 -46.222098 1.607143 -46.356027C1.953125 -47.103795 2.207031 -47.631138 2.368862 -47.938058C2.530692 -48.244978 2.787388 -48.635603 3.138951 -49.109933C3.490513 -49.584263 3.886719 -49.952567 4.327567 -50.214844C4.768415 -50.477121 5.306920 -50.703125 5.943080 -50.892857C6.657366 -51.093750 7.204241 -51.194196 7.583705 -51.194196C7.862723 -51.194196 8.113839 -51.149554 8.337054 -51.060268C8.694196 -50.926339 9.115513 -50.689174 9.601004 -50.348772C10.086496 -50.008371 10.329241 -49.715402 10.329241 -49.469866C10.329241 -49.347098 10.256696 -49.023438 10.111607 -48.498884C9.966518 -47.974330 9.793527 -47.377232 9.592634 -46.707589C9.391741 -46.037946 9.280134 -45.652902 9.257812 -45.552455C9.246652 -45.507812 9.218750 -45.359933 9.174107 -45.108817C9.129464 -44.857701 9.082031 -44.656808 9.031808 -44.506138C8.981585 -44.355469 8.906250 -44.235491 8.805804 -44.146205C8.638393 -43.989955 8.353795 -43.911830 7.952009 -43.911830C7.695312 -43.911830 7.304688 -43.942522 6.780134 -44.003906C6.255580 -44.065290 5.859375 -44.095982 5.591518 -44.095982C5.212054 -44.095982 4.949777 -44.034598 4.804688 -43.911830C4.737723 -43.856027 4.676339 -43.769531 4.620536 -43.652344C4.564732 -43.535156 4.522879 -43.423549 4.494978 -43.317522C4.467076 -43.211496 4.430804 -43.077567 4.386161 -42.915737C4.341518 -42.753906 4.313616 -42.650670 4.302455 -42.606027C3.889509 -41.177455 3.683036 -39.754464 3.683036 -38.337054C3.683036 -36.919643 3.889509 -35.496652 4.302455 -34.068080C4.313616 -34.023438 4.341518 -33.920201 4.386161 -33.758371C4.430804 -33.596540 4.467076 -33.462612 4.494978 -33.356585C4.522879 -33.250558 4.564732 -33.138951 4.620536 -33.021763C4.676339 -32.904576 4.737723 -32.818080 4.804688 -32.762277C4.949777 -32.639509 5.212054 -32.578125 5.591518 -32.578125C5.859375 -32.578125 6.255580 -32.608817 6.780134 -32.670201C7.304688 -32.731585 7.695312 -32.762277 7.952009 -32.762277C8.353795 -32.762277 8.638393 -32.684152 8.805804 -32.527902C8.906250 -32.438616 8.981585 -32.318638 9.031808 -32.167969C9.082031 -32.017299 9.129464 -31.816406 9.174107 -31.565290C9.218750 -31.314174 9.246652 -31.166295 9.257812 -31.121652C9.280134 -31.021205 9.391741 -30.636161 9.592634 -29.966518C9.793527 -29.296875 9.966518 -28.699777 10.111607 -28.175223C10.256696 -27.650670 10.329241 -27.327009 10.329241 -27.204241ZM12.991071 -42.488839C12.700893 -42.488839 12.449777 -42.594866 12.237723 -42.806920C12.025670 -43.018973 11.919643 -43.272879 11.919643 -43.568638C11.919643 -43.864397 12.025670 -44.118304 12.237723 -44.330357C12.650670 -44.743304 12.857143 -45.245536 12.857143 -45.837054C12.857143 -46.417411 12.650670 -46.925223 12.237723 -47.360491C12.025670 -47.572545 11.919643 -47.823661 11.919643 -48.113839C11.919643 -48.404018 12.025670 -48.655134 12.237723 -48.867188C12.449777 -49.079241 12.700893 -49.185268 12.991071 -49.185268C13.281250 -49.185268 13.532366 -49.079241 13.744420 -48.867188C14.581473 -48.030134 15.000000 -47.020089 15.000000 -45.837054C15.000000 -44.654018 14.581473 -43.643973 13.744420 -42.806920C13.510045 -42.594866 13.258929 -42.488839 12.991071 -42.488839ZM16.021205 -39.458705C15.719866 -39.458705 15.468750 -39.564732 15.267857 -39.776786C15.055804 -39.988839 14.949777 -40.239955 14.949777 -40.530134C14.949777 -40.820312 15.055804 -41.071429 15.267857 -41.283482C16.517857 -42.555804 17.142857 -44.073661 17.142857 -45.837054C17.142857 -47.600446 16.517857 -49.118304 15.267857 -50.390625C15.055804 -50.602679 14.949777 -50.853795 14.949777 -51.143973C14.949777 -51.434152 15.055804 -51.685268 15.267857 -51.897321C15.479911 -52.109375 15.731027 -52.215402 16.021205 -52.215402C16.311384 -52.215402 16.562500 -52.109375 16.774554 -51.897321C18.448661 -50.223214 19.285714 -48.203125 19.285714 -45.837054C19.285714 -43.470982 18.448661 -41.450893 16.774554 -39.776786C16.573661 -39.564732 16.322545 -39.458705 16.021205 -39.458705ZM19.051339 -36.428571C18.750000 -36.428571 18.498884 -36.534598 18.297991 -36.746652C18.085938 -36.958705 17.979911 -37.209821 17.979911 -37.500000C17.979911 -37.790179 18.085938 -38.041295 18.297991 -38.253348C19.302455 -39.268973 20.075335 -40.429688 20.616629 -41.735491C21.157924 -43.041295 21.428571 -44.408482 21.428571 -45.837054C21.428571 -47.265625 21.157924 -48.632812 20.616629 -49.938616C20.075335 -51.244420 19.302455 -52.405134 18.297991 -53.420759C18.085938 -53.632812 17.979911 -53.883929 17.979911 -54.174107C17.979911 -54.464286 18.085938 -54.715402 18.297991 -54.927455C18.510045 -55.139509 18.761161 -55.245536 19.051339 -55.245536C19.341518 -55.245536 19.592634 -55.139509 19.804688 -54.927455C21.021205 -53.710938 21.953125 -52.321429 22.600446 -50.758929C23.247768 -49.196429 23.571429 -47.555804 23.571429 -45.837054C23.571429 -44.118304 23.247768 -42.477679 22.600446 -40.915179C21.953125 -39.352679 21.021205 -37.963170 19.804688 -36.746652C19.603795 -36.534598 19.352679 -36.428571 19.051339 -36.428571ZM19.051339 -36.428571"></path></svg>