<svg width="24.458705" height="29.983259" viewBox="0.619420 -55.680804 24.458705 29.983259" xmlns="http://www.w3.org/2000/svg"><path d="M12.455357 -50.591518C12.455357 -50.859375 12.444196 -51.074219 12.421875 -51.236049C12.399554 -51.397879 12.352121 -51.565290 12.279576 -51.738281C12.207031 -51.911272 12.089844 -52.039621 11.928013 -52.123326C11.766183 -52.207031 11.556920 -52.248884 11.300223 -52.248884C10.864955 -52.248884 10.429688 -52.120536 9.994420 -51.863839C8.822545 -51.216518 7.935268 -50.153460 7.332589 -48.674665C6.729911 -47.195871 6.428571 -45.691964 6.428571 -44.162946C6.428571 -43.671875 6.476004 -43.194754 6.570871 -42.731585C6.665737 -42.268415 6.813616 -41.819196 7.014509 -41.383929C7.215402 -40.948661 7.508371 -40.599888 7.893415 -40.337612C8.278460 -40.075335 8.733259 -39.944196 9.257812 -39.944196C9.302455 -39.944196 9.402902 -39.941406 9.559152 -39.935826C9.715402 -39.930246 9.827009 -39.930246 9.893973 -39.935826C9.960938 -39.941406 10.050223 -39.958147 10.161830 -39.986049C10.273438 -40.013951 10.357143 -40.061384 10.412946 -40.128348C10.468750 -40.195312 10.507812 -40.284598 10.530134 -40.396205C10.708705 -41.255580 10.976562 -42.547433 11.333705 -44.271763C11.690848 -45.996094 11.958705 -47.287946 12.137277 -48.147321C12.349330 -49.162946 12.455357 -49.977679 12.455357 -50.591518ZM25.078125 -39.609375C25.078125 -39.531250 25.036272 -39.455915 24.952567 -39.383371C24.868862 -39.310826 24.782366 -39.274554 24.693080 -39.274554L24.592634 -39.291295C24.347098 -39.324777 24.001116 -39.386161 23.554688 -39.475446C23.108259 -39.564732 22.706473 -39.634487 22.349330 -39.684710C21.992188 -39.734933 21.640625 -39.760045 21.294643 -39.760045C19.430804 -39.760045 17.472098 -39.241071 15.418527 -38.203125C15.251116 -38.113839 15.133929 -37.963170 15.066964 -37.751116C14.955357 -37.349330 14.818638 -36.760603 14.656808 -35.984933C14.494978 -35.209263 14.369420 -34.648438 14.280134 -34.302455C14.023438 -33.286830 13.632812 -32.285156 13.108259 -31.297433C12.583705 -30.309710 11.955915 -29.391741 11.224888 -28.543527C10.493862 -27.695312 9.631696 -27.008929 8.638393 -26.484375C7.645089 -25.959821 6.612723 -25.697545 5.541295 -25.697545C4.034598 -25.697545 2.837612 -26.163504 1.950335 -27.095424C1.063058 -28.027344 0.619420 -29.252232 0.619420 -30.770089C0.619420 -31.361607 0.728237 -32.014509 0.945871 -32.728795C1.163504 -33.443080 1.515067 -34.093192 2.000558 -34.679129C2.486049 -35.265067 3.030134 -35.558036 3.632812 -35.558036C4.056920 -35.558036 4.726562 -35.371094 5.641741 -34.997210C6.556920 -34.623326 7.020089 -34.280134 7.031250 -33.967634C7.031250 -33.956473 6.939174 -33.886719 6.755022 -33.758371C6.570871 -33.630022 6.350446 -33.457031 6.093750 -33.239397C5.837054 -33.021763 5.580357 -32.773438 5.323661 -32.494420C5.066964 -32.215402 4.849330 -31.875000 4.670759 -31.473214C4.492188 -31.071429 4.402902 -30.658482 4.402902 -30.234375C4.402902 -29.866071 4.494978 -29.570312 4.679129 -29.347098C4.863281 -29.123884 5.133929 -29.012277 5.491071 -29.012277C5.993304 -29.012277 6.467634 -29.188058 6.914062 -29.539621C7.360491 -29.891183 7.731585 -30.326451 8.027344 -30.845424C8.323103 -31.364397 8.590960 -31.953125 8.830915 -32.611607C9.070871 -33.270089 9.252232 -33.867188 9.375000 -34.402902C9.497768 -34.938616 9.587054 -35.440848 9.642857 -35.909598L9.642857 -36.060268C9.642857 -36.082589 9.623326 -36.102121 9.584263 -36.118862C9.545201 -36.135603 9.497768 -36.143973 9.441964 -36.143973C9.386161 -36.143973 9.330357 -36.143973 9.274554 -36.143973C9.218750 -36.143973 9.162946 -36.141183 9.107143 -36.135603C9.051339 -36.130022 9.017857 -36.127232 9.006696 -36.127232C6.473214 -36.127232 4.508929 -36.810826 3.113839 -38.178013C1.718750 -39.545201 1.021205 -41.489955 1.021205 -44.012277C1.021205 -45.217634 1.213728 -46.450893 1.598772 -47.712054C1.983817 -48.973214 2.519531 -50.145089 3.205915 -51.227679C3.892299 -52.310268 4.762835 -53.244978 5.817522 -54.031808C6.872210 -54.818638 8.013393 -55.318080 9.241071 -55.530134C9.821429 -55.630580 10.412946 -55.680804 11.015625 -55.680804C15.189732 -55.680804 17.276786 -53.671875 17.276786 -49.654018C17.276786 -48.560268 17.064732 -47.036830 16.640625 -45.083705C16.216518 -43.130580 15.976562 -41.953125 15.920759 -41.551339L15.970982 -41.501116C17.098214 -42.137277 18.116629 -42.628348 19.026228 -42.974330C19.935826 -43.320312 20.870536 -43.493304 21.830357 -43.493304C22.075893 -43.493304 22.371652 -43.420759 22.717634 -43.275670C22.929688 -43.197545 23.376116 -42.625558 24.056920 -41.559710C24.737723 -40.493862 25.078125 -39.843750 25.078125 -39.609375ZM25.078125 -39.609375"></path></svg>