<svg width="25.714286" height="25.714286" viewBox="0.000000 -49.285714 25.714286 25.714286" xmlns="http://www.w3.org/2000/svg"><path d="M17.578125 -34.001116C17.578125 -34.871652 17.421875 -35.691964 17.109375 -36.462054C16.651786 -36.183036 16.177455 -35.993304 15.686384 -35.892857C15.931920 -35.334821 16.054688 -34.698661 16.054688 -33.984375C16.054688 -32.678571 15.625000 -31.570871 14.765625 -30.661272C13.906250 -29.751674 12.829241 -29.296875 11.534598 -29.296875C10.239955 -29.296875 9.160156 -29.751674 8.295201 -30.661272C7.430246 -31.570871 6.997768 -32.678571 6.997768 -33.984375C6.997768 -35.267857 7.433036 -36.381138 8.303571 -37.324219C9.174107 -38.267299 10.251116 -38.738839 11.534598 -38.738839C12.126116 -38.738839 12.672991 -38.632812 13.175223 -38.420759C13.219866 -38.900670 13.370536 -39.386161 13.627232 -39.877232C12.957589 -40.111607 12.260045 -40.228795 11.534598 -40.228795C9.815848 -40.228795 8.378906 -39.623326 7.223772 -38.412388C6.068638 -37.201451 5.491071 -35.731027 5.491071 -34.001116C5.491071 -32.271205 6.068638 -30.814732 7.223772 -29.631696C8.378906 -28.448661 9.815848 -27.857143 11.534598 -27.857143C13.253348 -27.857143 14.690290 -28.451451 15.845424 -29.640067C17.000558 -30.828683 17.578125 -32.282366 17.578125 -34.001116ZM14.598214 -39.944196C14.620536 -39.676339 14.631696 -39.280134 14.631696 -38.755580C14.631696 -38.052455 14.603795 -37.366071 14.547991 -36.696429C14.492188 -36.026786 14.377790 -35.287388 14.204799 -34.478237C14.031808 -33.669085 13.805804 -32.943638 13.526786 -32.301897C13.247768 -31.660156 12.865513 -31.068638 12.380022 -30.527344C11.894531 -29.986049 11.333705 -29.592634 10.697545 -29.347098C10.931920 -29.313616 11.166295 -29.296875 11.400670 -29.296875L11.568080 -29.296875C14.012277 -30.848214 15.234375 -33.141741 15.234375 -36.177455C15.234375 -37.472098 15.022321 -38.727679 14.598214 -39.944196ZM14.598214 -39.944196C14.553571 -40.837054 14.308036 -41.794085 13.861607 -42.815290C13.415179 -43.836496 12.868304 -44.564732 12.220982 -45.000000C13.247768 -43.258929 14.040179 -41.573661 14.598214 -39.944196ZM20.206473 -41.702009C20.206473 -42.840402 19.921875 -43.811384 19.352679 -44.614955C18.895089 -43.655134 18.203125 -43.046875 17.276786 -42.790179C16.506696 -42.578125 15.898438 -42.279576 15.452009 -41.894531C15.005580 -41.509487 14.782366 -40.954241 14.782366 -40.228795C14.782366 -39.782366 14.916295 -39.352679 15.184152 -38.939732C16.010045 -39.129464 16.794085 -39.503348 17.536272 -40.061384C18.278460 -40.619420 18.811384 -41.261161 19.135045 -41.986607C19.090402 -41.406250 18.674665 -40.784040 17.887835 -40.119978C17.101004 -39.455915 16.328125 -38.911830 15.569196 -38.487723C16.149554 -37.907366 16.763393 -37.617188 17.410714 -37.617188C17.979911 -37.617188 18.482143 -37.823661 18.917411 -38.236607C19.352679 -38.649554 19.687500 -39.151786 19.921875 -39.743304C20.111607 -40.212054 20.206473 -40.864955 20.206473 -41.702009ZM25.714286 -44.464286L25.714286 -28.392857C25.714286 -27.064732 25.242746 -25.929129 24.299665 -24.986049C23.356585 -24.042969 22.220982 -23.571429 20.892857 -23.571429L4.821429 -23.571429C3.493304 -23.571429 2.357701 -24.042969 1.414621 -24.986049C0.471540 -25.929129 0.000000 -27.064732 0.000000 -28.392857L0.000000 -44.464286C0.000000 -45.792411 0.471540 -46.928013 1.414621 -47.871094C2.357701 -48.814174 3.493304 -49.285714 4.821429 -49.285714L20.892857 -49.285714C22.220982 -49.285714 23.356585 -48.814174 24.299665 -47.871094C25.242746 -46.928013 25.714286 -45.792411 25.714286 -44.464286ZM25.714286 -44.464286"></path></svg>