<svg width="25.714286" height="25.714286" viewBox="0.000000 -49.285714 25.714286 25.714286" xmlns="http://www.w3.org/2000/svg"><path d="M15.351562 -36.277902C15.351562 -36.646205 15.318080 -37.003348 15.251116 -37.349330L9.190848 -37.349330L9.190848 -35.139509L12.823661 -35.139509C12.689732 -34.291295 12.273996 -33.618862 11.576451 -33.122210C10.878906 -32.625558 10.083705 -32.377232 9.190848 -32.377232C8.085938 -32.377232 7.142857 -32.776228 6.361607 -33.574219C5.580357 -34.372210 5.189732 -35.323661 5.189732 -36.428571C5.189732 -37.533482 5.580357 -38.484933 6.361607 -39.282924C7.142857 -40.080915 8.085938 -40.479911 9.190848 -40.479911C10.228795 -40.479911 11.082589 -40.150670 11.752232 -39.492188L13.493304 -41.183036C12.287946 -42.299107 10.853795 -42.857143 9.190848 -42.857143C7.405134 -42.857143 5.887277 -42.229353 4.637277 -40.973772C3.387277 -39.718192 2.762277 -38.203125 2.762277 -36.428571C2.762277 -34.654018 3.387277 -33.138951 4.637277 -31.883371C5.887277 -30.627790 7.405134 -30.000000 9.190848 -30.000000C11.032366 -30.000000 12.519531 -30.585937 13.652344 -31.757812C14.785156 -32.929688 15.351562 -34.436384 15.351562 -36.277902ZM21.127232 -35.507812L22.952009 -35.507812L22.952009 -37.349330L21.127232 -37.349330L21.127232 -39.190848L19.285714 -39.190848L19.285714 -37.349330L17.444196 -37.349330L17.444196 -35.507812L19.285714 -35.507812L19.285714 -33.666295L21.127232 -33.666295ZM25.714286 -36.428571C25.714286 -34.095982 25.139509 -31.944754 23.989955 -29.974888C22.840402 -28.005022 21.280692 -26.445312 19.310826 -25.295759C17.340960 -24.146205 15.189732 -23.571429 12.857143 -23.571429C10.524554 -23.571429 8.373326 -24.146205 6.403460 -25.295759C4.433594 -26.445312 2.873884 -28.005022 1.724330 -29.974888C0.574777 -31.944754 0.000000 -34.095982 0.000000 -36.428571C0.000000 -38.761161 0.574777 -40.912388 1.724330 -42.882254C2.873884 -44.852121 4.433594 -46.411830 6.403460 -47.561384C8.373326 -48.710938 10.524554 -49.285714 12.857143 -49.285714C15.189732 -49.285714 17.340960 -48.710938 19.310826 -47.561384C21.280692 -46.411830 22.840402 -44.852121 23.989955 -42.882254C25.139509 -40.912388 25.714286 -38.761161 25.714286 -36.428571ZM25.714286 -36.428571"></path></svg>