<svg width="34.285714" height="25.714286" viewBox="0.000000 -49.285714 34.285714 25.714286" xmlns="http://www.w3.org/2000/svg"><path d="M17.142857 -32.494420C17.142857 -33.208705 17.092634 -33.864397 16.992188 -34.461496C16.891741 -35.058594 16.727121 -35.633371 16.498326 -36.185826C16.269531 -36.738281 15.931920 -37.173549 15.485491 -37.491629C15.039062 -37.809710 14.497768 -37.968750 13.861607 -37.968750C13.794643 -37.924107 13.627232 -37.823661 13.359375 -37.667411C13.091518 -37.511161 12.882254 -37.391183 12.731585 -37.307478C12.580915 -37.223772 12.382812 -37.126116 12.137277 -37.014509C11.891741 -36.902902 11.651786 -36.821987 11.417411 -36.771763C11.183036 -36.721540 10.948661 -36.696429 10.714286 -36.696429C10.479911 -36.696429 10.245536 -36.721540 10.011161 -36.771763C9.776786 -36.821987 9.536830 -36.902902 9.291295 -37.014509C9.045759 -37.126116 8.847656 -37.223772 8.696987 -37.307478C8.546317 -37.391183 8.337054 -37.511161 8.069196 -37.667411C7.801339 -37.823661 7.633929 -37.924107 7.566964 -37.968750C6.930804 -37.968750 6.389509 -37.809710 5.943080 -37.491629C5.496652 -37.173549 5.159040 -36.738281 4.930246 -36.185826C4.701451 -35.633371 4.536830 -35.058594 4.436384 -34.461496C4.335938 -33.864397 4.285714 -33.208705 4.285714 -32.494420C4.285714 -31.780134 4.492188 -31.185826 4.905134 -30.711496C5.318080 -30.237165 5.825893 -30.000000 6.428571 -30.000000L15.000000 -30.000000C15.602679 -30.000000 16.110491 -30.237165 16.523438 -30.711496C16.936384 -31.185826 17.142857 -31.780134 17.142857 -32.494420ZM14.514509 -41.199777C14.514509 -42.248884 14.143415 -43.144531 13.401228 -43.886719C12.659040 -44.628906 11.763393 -45.000000 10.714286 -45.000000C9.665179 -45.000000 8.769531 -44.628906 8.027344 -43.886719C7.285156 -43.144531 6.914062 -42.248884 6.914062 -41.199777C6.914062 -40.150670 7.285156 -39.255022 8.027344 -38.512835C8.769531 -37.770647 9.665179 -37.399554 10.714286 -37.399554C11.763393 -37.399554 12.659040 -37.770647 13.401228 -38.512835C14.143415 -39.255022 14.514509 -40.150670 14.514509 -41.199777ZM30.000000 -32.678571L30.000000 -33.750000C30.000000 -33.906250 29.949777 -34.034598 29.849330 -34.135045C29.748884 -34.235491 29.620536 -34.285714 29.464286 -34.285714L19.821429 -34.285714C19.665179 -34.285714 19.536830 -34.235491 19.436384 -34.135045C19.335938 -34.034598 19.285714 -33.906250 19.285714 -33.750000L19.285714 -32.678571C19.285714 -32.522321 19.335938 -32.393973 19.436384 -32.293527C19.536830 -32.193080 19.665179 -32.142857 19.821429 -32.142857L29.464286 -32.142857C29.620536 -32.142857 29.748884 -32.193080 29.849330 -32.293527C29.949777 -32.393973 30.000000 -32.522321 30.000000 -32.678571ZM30.000000 -37.031250L30.000000 -37.968750C30.000000 -38.136161 29.941406 -38.278460 29.824219 -38.395647C29.707031 -38.512835 29.564732 -38.571429 29.397321 -38.571429L19.888393 -38.571429C19.720982 -38.571429 19.578683 -38.512835 19.461496 -38.395647C19.344308 -38.278460 19.285714 -38.136161 19.285714 -37.968750L19.285714 -37.031250C19.285714 -36.863839 19.344308 -36.721540 19.461496 -36.604353C19.578683 -36.487165 19.720982 -36.428571 19.888393 -36.428571L29.397321 -36.428571C29.564732 -36.428571 29.707031 -36.487165 29.824219 -36.604353C29.941406 -36.721540 30.000000 -36.863839 30.000000 -37.031250ZM30.000000 -41.250000L30.000000 -42.321429C30.000000 -42.477679 29.949777 -42.606027 29.849330 -42.706473C29.748884 -42.806920 29.620536 -42.857143 29.464286 -42.857143L19.821429 -42.857143C19.665179 -42.857143 19.536830 -42.806920 19.436384 -42.706473C19.335938 -42.606027 19.285714 -42.477679 19.285714 -42.321429L19.285714 -41.250000C19.285714 -41.093750 19.335938 -40.965402 19.436384 -40.864955C19.536830 -40.764509 19.665179 -40.714286 19.821429 -40.714286L29.464286 -40.714286C29.620536 -40.714286 29.748884 -40.764509 29.849330 -40.864955C29.949777 -40.965402 30.000000 -41.093750 30.000000 -41.250000ZM34.285714 -46.607143L34.285714 -26.250000C34.285714 -25.513393 34.023438 -24.882812 33.498884 -24.358259C32.974330 -23.833705 32.343750 -23.571429 31.607143 -23.571429L25.714286 -23.571429L25.714286 -25.178571C25.714286 -25.334821 25.664062 -25.463170 25.563616 -25.563616C25.463170 -25.664062 25.334821 -25.714286 25.178571 -25.714286L24.107143 -25.714286C23.950893 -25.714286 23.822545 -25.664062 23.722098 -25.563616C23.621652 -25.463170 23.571429 -25.334821 23.571429 -25.178571L23.571429 -23.571429L10.714286 -23.571429L10.714286 -25.178571C10.714286 -25.334821 10.664062 -25.463170 10.563616 -25.563616C10.463170 -25.664062 10.334821 -25.714286 10.178571 -25.714286L9.107143 -25.714286C8.950893 -25.714286 8.822545 -25.664062 8.722098 -25.563616C8.621652 -25.463170 8.571429 -25.334821 8.571429 -25.178571L8.571429 -23.571429L2.678571 -23.571429C1.941964 -23.571429 1.311384 -23.833705 0.786830 -24.358259C0.262277 -24.882812 0.000000 -25.513393 0.000000 -26.250000L0.000000 -46.607143C0.000000 -47.343750 0.262277 -47.974330 0.786830 -48.498884C1.311384 -49.023438 1.941964 -49.285714 2.678571 -49.285714L31.607143 -49.285714C32.343750 -49.285714 32.974330 -49.023438 33.498884 -48.498884C34.023438 -47.974330 34.285714 -47.343750 34.285714 -46.607143ZM34.285714 -46.607143"></path></svg>