<svg width="21.428571" height="30.000000" viewBox="0.000000 -55.714286 21.428571 30.000000" xmlns="http://www.w3.org/2000/svg"><path d="M17.142857 -34.654018C17.142857 -33.939732 16.936384 -33.342634 16.523438 -32.862723C16.110491 -32.382812 15.602679 -32.142857 15.000000 -32.142857L6.428571 -32.142857C5.825893 -32.142857 5.318080 -32.382812 4.905134 -32.862723C4.492188 -33.342634 4.285714 -33.939732 4.285714 -34.654018C4.285714 -35.368304 4.335938 -36.026786 4.436384 -36.629464C4.536830 -37.232143 4.701451 -37.812500 4.930246 -38.370536C5.159040 -38.928571 5.499442 -39.366629 5.951451 -39.684710C6.403460 -40.002790 6.941964 -40.161830 7.566964 -40.161830C8.459821 -39.324777 9.508929 -38.906250 10.714286 -38.906250C11.919643 -38.906250 12.968750 -39.324777 13.861607 -40.161830C14.486607 -40.161830 15.025112 -40.002790 15.477121 -39.684710C15.929129 -39.366629 16.269531 -38.928571 16.498326 -38.370536C16.727121 -37.812500 16.891741 -37.232143 16.992188 -36.629464C17.092634 -36.026786 17.142857 -35.368304 17.142857 -34.654018ZM14.564732 -43.342634C14.564732 -42.293527 14.188058 -41.397879 13.434710 -40.655692C12.681362 -39.913504 11.774554 -39.542411 10.714286 -39.542411C9.654018 -39.542411 8.747210 -39.913504 7.993862 -40.655692C7.240513 -41.397879 6.863839 -42.293527 6.863839 -43.342634C6.863839 -44.391741 7.240513 -45.287388 7.993862 -46.029576C8.747210 -46.771763 9.654018 -47.142857 10.714286 -47.142857C11.774554 -47.142857 12.681362 -46.771763 13.434710 -46.029576C14.188058 -45.287388 14.564732 -44.391741 14.564732 -43.342634ZM19.285714 -28.392857L19.285714 -51.428571L2.142857 -51.428571L2.142857 -28.392857C2.142857 -28.247768 2.195871 -28.122210 2.301897 -28.016183C2.407924 -27.910156 2.533482 -27.857143 2.678571 -27.857143L18.750000 -27.857143C18.895089 -27.857143 19.020647 -27.910156 19.126674 -28.016183C19.232701 -28.122210 19.285714 -28.247768 19.285714 -28.392857ZM21.428571 -53.035714L21.428571 -28.392857C21.428571 -27.656250 21.166295 -27.025670 20.641741 -26.501116C20.117188 -25.976562 19.486607 -25.714286 18.750000 -25.714286L2.678571 -25.714286C1.941964 -25.714286 1.311384 -25.976562 0.786830 -26.501116C0.262277 -27.025670 0.000000 -27.656250 0.000000 -28.392857L0.000000 -53.035714C0.000000 -53.772321 0.262277 -54.402902 0.786830 -54.927455C1.311384 -55.452009 1.941964 -55.714286 2.678571 -55.714286L8.571429 -55.714286L8.571429 -54.107143C8.571429 -53.950893 8.621652 -53.822545 8.722098 -53.722098C8.822545 -53.621652 8.950893 -53.571429 9.107143 -53.571429L12.321429 -53.571429C12.477679 -53.571429 12.606027 -53.621652 12.706473 -53.722098C12.806920 -53.822545 12.857143 -53.950893 12.857143 -54.107143L12.857143 -55.714286L18.750000 -55.714286C19.486607 -55.714286 20.117188 -55.452009 20.641741 -54.927455C21.166295 -54.402902 21.428571 -53.772321 21.428571 -53.035714ZM21.428571 -53.035714"></path></svg>