<svg width="32.142857" height="30.000000" viewBox="0.000000 -55.714286 32.142857 30.000000" xmlns="http://www.w3.org/2000/svg"><path d="M23.989955 -51.545759C24.101562 -51.434152 24.157366 -51.305804 24.157366 -51.160714C24.157366 -51.015625 24.101562 -50.887277 23.989955 -50.775670L13.510045 -40.295759C13.398438 -40.184152 13.270089 -40.128348 13.125000 -40.128348C12.979911 -40.128348 12.851562 -40.184152 12.739955 -40.295759L11.367188 -41.668527C11.255580 -41.780134 11.199777 -41.908482 11.199777 -42.053571C11.199777 -42.198661 11.255580 -42.327009 11.367188 -42.438616L12.103795 -43.175223C11.300223 -44.190848 10.845424 -45.345982 10.739397 -46.640625C10.633371 -47.935268 10.892857 -49.135045 11.517857 -50.239955C10.691964 -51.032366 9.709821 -51.428571 8.571429 -51.428571C7.388393 -51.428571 6.378348 -51.010045 5.541295 -50.172991C4.704241 -49.335938 4.285714 -48.325893 4.285714 -47.142857L4.285714 -25.714286L0.000000 -25.714286L0.000000 -47.142857C0.000000 -48.303571 0.226004 -49.411272 0.678013 -50.465960C1.130022 -51.520647 1.741071 -52.433036 2.511161 -53.203125C3.281250 -53.973214 4.193638 -54.584263 5.248326 -55.036272C6.303013 -55.488281 7.410714 -55.714286 8.571429 -55.714286C9.754464 -55.714286 10.876116 -55.485491 11.936384 -55.027902C12.996652 -54.570312 13.922991 -53.928571 14.715402 -53.102679C15.764509 -53.537946 16.863839 -53.674665 18.013393 -53.512835C19.162946 -53.351004 20.195312 -52.907366 21.110491 -52.181920L21.847098 -52.918527C21.958705 -53.030134 22.087054 -53.085938 22.232143 -53.085938C22.377232 -53.085938 22.505580 -53.030134 22.617188 -52.918527ZM22.500000 -47.142857C22.790179 -47.142857 23.041295 -47.036830 23.253348 -46.824777C23.465402 -46.612723 23.571429 -46.361607 23.571429 -46.071429C23.571429 -45.781250 23.465402 -45.530134 23.253348 -45.318080C23.041295 -45.106027 22.790179 -45.000000 22.500000 -45.000000C22.209821 -45.000000 21.958705 -45.106027 21.746652 -45.318080C21.534598 -45.530134 21.428571 -45.781250 21.428571 -46.071429C21.428571 -46.361607 21.534598 -46.612723 21.746652 -46.824777C21.958705 -47.036830 22.209821 -47.142857 22.500000 -47.142857ZM26.785714 -45.000000C26.495536 -45.000000 26.244420 -45.106027 26.032366 -45.318080C25.820312 -45.530134 25.714286 -45.781250 25.714286 -46.071429C25.714286 -46.361607 25.820312 -46.612723 26.032366 -46.824777C26.244420 -47.036830 26.495536 -47.142857 26.785714 -47.142857C27.075893 -47.142857 27.327009 -47.036830 27.539062 -46.824777C27.751116 -46.612723 27.857143 -46.361607 27.857143 -46.071429C27.857143 -45.781250 27.751116 -45.530134 27.539062 -45.318080C27.327009 -45.106027 27.075893 -45.000000 26.785714 -45.000000ZM31.071429 -47.142857C31.361607 -47.142857 31.612723 -47.036830 31.824777 -46.824777C32.036830 -46.612723 32.142857 -46.361607 32.142857 -46.071429C32.142857 -45.781250 32.036830 -45.530134 31.824777 -45.318080C31.612723 -45.106027 31.361607 -45.000000 31.071429 -45.000000C30.781250 -45.000000 30.530134 -45.106027 30.318080 -45.318080C30.106027 -45.530134 30.000000 -45.781250 30.000000 -46.071429C30.000000 -46.361607 30.106027 -46.612723 30.318080 -46.824777C30.530134 -47.036830 30.781250 -47.142857 31.071429 -47.142857ZM20.357143 -45.000000C20.647321 -45.000000 20.898438 -44.893973 21.110491 -44.681920C21.322545 -44.469866 21.428571 -44.218750 21.428571 -43.928571C21.428571 -43.638393 21.322545 -43.387277 21.110491 -43.175223C20.898438 -42.963170 20.647321 -42.857143 20.357143 -42.857143C20.066964 -42.857143 19.815848 -42.963170 19.603795 -43.175223C19.391741 -43.387277 19.285714 -43.638393 19.285714 -43.928571C19.285714 -44.218750 19.391741 -44.469866 19.603795 -44.681920C19.815848 -44.893973 20.066964 -45.000000 20.357143 -45.000000ZM23.571429 -43.928571C23.571429 -44.218750 23.677455 -44.469866 23.889509 -44.681920C24.101562 -44.893973 24.352679 -45.000000 24.642857 -45.000000C24.933036 -45.000000 25.184152 -44.893973 25.396205 -44.681920C25.608259 -44.469866 25.714286 -44.218750 25.714286 -43.928571C25.714286 -43.638393 25.608259 -43.387277 25.396205 -43.175223C25.184152 -42.963170 24.933036 -42.857143 24.642857 -42.857143C24.352679 -42.857143 24.101562 -42.963170 23.889509 -43.175223C23.677455 -43.387277 23.571429 -43.638393 23.571429 -43.928571ZM28.928571 -45.000000C29.218750 -45.000000 29.469866 -44.893973 29.681920 -44.681920C29.893973 -44.469866 30.000000 -44.218750 30.000000 -43.928571C30.000000 -43.638393 29.893973 -43.387277 29.681920 -43.175223C29.469866 -42.963170 29.218750 -42.857143 28.928571 -42.857143C28.638393 -42.857143 28.387277 -42.963170 28.175223 -43.175223C27.963170 -43.387277 27.857143 -43.638393 27.857143 -43.928571C27.857143 -44.218750 27.963170 -44.469866 28.175223 -44.681920C28.387277 -44.893973 28.638393 -45.000000 28.928571 -45.000000ZM18.214286 -42.857143C18.504464 -42.857143 18.755580 -42.751116 18.967634 -42.539062C19.179688 -42.327009 19.285714 -42.075893 19.285714 -41.785714C19.285714 -41.495536 19.179688 -41.244420 18.967634 -41.032366C18.755580 -40.820312 18.504464 -40.714286 18.214286 -40.714286C17.924107 -40.714286 17.672991 -40.820312 17.460938 -41.032366C17.248884 -41.244420 17.142857 -41.495536 17.142857 -41.785714C17.142857 -42.075893 17.248884 -42.327009 17.460938 -42.539062C17.672991 -42.751116 17.924107 -42.857143 18.214286 -42.857143ZM22.500000 -40.714286C22.209821 -40.714286 21.958705 -40.820312 21.746652 -41.032366C21.534598 -41.244420 21.428571 -41.495536 21.428571 -41.785714C21.428571 -42.075893 21.534598 -42.327009 21.746652 -42.539062C21.958705 -42.751116 22.209821 -42.857143 22.500000 -42.857143C22.790179 -42.857143 23.041295 -42.751116 23.253348 -42.539062C23.465402 -42.327009 23.571429 -42.075893 23.571429 -41.785714C23.571429 -41.495536 23.465402 -41.244420 23.253348 -41.032366C23.041295 -40.820312 22.790179 -40.714286 22.500000 -40.714286ZM26.785714 -42.857143C27.075893 -42.857143 27.327009 -42.751116 27.539062 -42.539062C27.751116 -42.327009 27.857143 -42.075893 27.857143 -41.785714C27.857143 -41.495536 27.751116 -41.244420 27.539062 -41.032366C27.327009 -40.820312 27.075893 -40.714286 26.785714 -40.714286C26.495536 -40.714286 26.244420 -40.820312 26.032366 -41.032366C25.820312 -41.244420 25.714286 -41.495536 25.714286 -41.785714C25.714286 -42.075893 25.820312 -42.327009 26.032366 -42.539062C26.244420 -42.751116 26.495536 -42.857143 26.785714 -42.857143ZM20.357143 -38.571429C20.066964 -38.571429 19.815848 -38.677455 19.603795 -38.889509C19.391741 -39.101562 19.285714 -39.352679 19.285714 -39.642857C19.285714 -39.933036 19.391741 -40.184152 19.603795 -40.396205C19.815848 -40.608259 20.066964 -40.714286 20.357143 -40.714286C20.647321 -40.714286 20.898438 -40.608259 21.110491 -40.396205C21.322545 -40.184152 21.428571 -39.933036 21.428571 -39.642857C21.428571 -39.352679 21.322545 -39.101562 21.110491 -38.889509C20.898438 -38.677455 20.647321 -38.571429 20.357143 -38.571429ZM24.642857 -40.714286C24.933036 -40.714286 25.184152 -40.608259 25.396205 -40.396205C25.608259 -40.184152 25.714286 -39.933036 25.714286 -39.642857C25.714286 -39.352679 25.608259 -39.101562 25.396205 -38.889509C25.184152 -38.677455 24.933036 -38.571429 24.642857 -38.571429C24.352679 -38.571429 24.101562 -38.677455 23.889509 -38.889509C23.677455 -39.101562 23.571429 -39.352679 23.571429 -39.642857C23.571429 -39.933036 23.677455 -40.184152 23.889509 -40.396205C24.101562 -40.608259 24.352679 -40.714286 24.642857 -40.714286ZM18.214286 -38.571429C18.504464 -38.571429 18.755580 -38.465402 18.967634 -38.253348C19.179688 -38.041295 19.285714 -37.790179 19.285714 -37.500000C19.285714 -37.209821 19.179688 -36.958705 18.967634 -36.746652C18.755580 -36.534598 18.504464 -36.428571 18.214286 -36.428571C17.924107 -36.428571 17.672991 -36.534598 17.460938 -36.746652C17.248884 -36.958705 17.142857 -37.209821 17.142857 -37.500000C17.142857 -37.790179 17.248884 -38.041295 17.460938 -38.253348C17.672991 -38.465402 17.924107 -38.571429 18.214286 -38.571429ZM22.500000 -38.571429C22.790179 -38.571429 23.041295 -38.465402 23.253348 -38.253348C23.465402 -38.041295 23.571429 -37.790179 23.571429 -37.500000C23.571429 -37.209821 23.465402 -36.958705 23.253348 -36.746652C23.041295 -36.534598 22.790179 -36.428571 22.500000 -36.428571C22.209821 -36.428571 21.958705 -36.534598 21.746652 -36.746652C21.534598 -36.958705 21.428571 -37.209821 21.428571 -37.500000C21.428571 -37.790179 21.534598 -38.041295 21.746652 -38.253348C21.958705 -38.465402 22.209821 -38.571429 22.500000 -38.571429ZM20.357143 -36.428571C20.647321 -36.428571 20.898438 -36.322545 21.110491 -36.110491C21.322545 -35.898438 21.428571 -35.647321 21.428571 -35.357143C21.428571 -35.066964 21.322545 -34.815848 21.110491 -34.603795C20.898438 -34.391741 20.647321 -34.285714 20.357143 -34.285714C20.066964 -34.285714 19.815848 -34.391741 19.603795 -34.603795C19.391741 -34.815848 19.285714 -35.066964 19.285714 -35.357143C19.285714 -35.647321 19.391741 -35.898438 19.603795 -36.110491C19.815848 -36.322545 20.066964 -36.428571 20.357143 -36.428571ZM18.214286 -34.285714C18.504464 -34.285714 18.755580 -34.179688 18.967634 -33.967634C19.179688 -33.755580 19.285714 -33.504464 19.285714 -33.214286C19.285714 -32.924107 19.179688 -32.672991 18.967634 -32.460938C18.755580 -32.248884 18.504464 -32.142857 18.214286 -32.142857C17.924107 -32.142857 17.672991 -32.248884 17.460938 -32.460938C17.248884 -32.672991 17.142857 -32.924107 17.142857 -33.214286C17.142857 -33.504464 17.248884 -33.755580 17.460938 -33.967634C17.672991 -34.179688 17.924107 -34.285714 18.214286 -34.285714ZM18.214286 -34.285714"></path></svg>