<svg width="30.000000" height="30.000000" viewBox="0.000000 -55.714286 30.000000 30.000000" xmlns="http://www.w3.org/2000/svg"><path d="M27.857143 -37.500000L27.857143 -34.285714C27.857143 -32.399554 27.142857 -30.803571 25.714286 -29.497768L25.714286 -26.250000C25.714286 -26.093750 25.664062 -25.965402 25.563616 -25.864955C25.463170 -25.764509 25.334821 -25.714286 25.178571 -25.714286L24.107143 -25.714286C23.950893 -25.714286 23.822545 -25.764509 23.722098 -25.864955C23.621652 -25.965402 23.571429 -26.093750 23.571429 -26.250000L23.571429 -28.225446C22.868304 -27.979911 22.154018 -27.857143 21.428571 -27.857143L8.571429 -27.857143C7.845982 -27.857143 7.131696 -27.979911 6.428571 -28.225446L6.428571 -26.383929C6.428571 -26.194196 6.375558 -26.035156 6.269531 -25.906808C6.163504 -25.778460 6.037946 -25.714286 5.892857 -25.714286L4.821429 -25.714286C4.676339 -25.714286 4.550781 -25.778460 4.444754 -25.906808C4.338728 -26.035156 4.285714 -26.194196 4.285714 -26.383929L4.285714 -29.497768C2.857143 -30.803571 2.142857 -32.399554 2.142857 -34.285714L2.142857 -37.500000ZM11.785714 -44.464286C11.785714 -44.308036 11.735491 -44.179688 11.635045 -44.079241C11.534598 -43.978795 11.406250 -43.928571 11.250000 -43.928571C11.093750 -43.928571 10.965402 -43.978795 10.864955 -44.079241C10.764509 -44.179688 10.714286 -44.308036 10.714286 -44.464286C10.714286 -44.620536 10.764509 -44.748884 10.864955 -44.849330C10.965402 -44.949777 11.093750 -45.000000 11.250000 -45.000000C11.406250 -45.000000 11.534598 -44.949777 11.635045 -44.849330C11.735491 -44.748884 11.785714 -44.620536 11.785714 -44.464286ZM12.857143 -45.535714C12.857143 -45.379464 12.806920 -45.251116 12.706473 -45.150670C12.606027 -45.050223 12.477679 -45.000000 12.321429 -45.000000C12.165179 -45.000000 12.036830 -45.050223 11.936384 -45.150670C11.835938 -45.251116 11.785714 -45.379464 11.785714 -45.535714C11.785714 -45.691964 11.835938 -45.820312 11.936384 -45.920759C12.036830 -46.021205 12.165179 -46.071429 12.321429 -46.071429C12.477679 -46.071429 12.606027 -46.021205 12.706473 -45.920759C12.806920 -45.820312 12.857143 -45.691964 12.857143 -45.535714ZM11.785714 -46.607143C11.785714 -46.450893 11.735491 -46.322545 11.635045 -46.222098C11.534598 -46.121652 11.406250 -46.071429 11.250000 -46.071429C11.093750 -46.071429 10.965402 -46.121652 10.864955 -46.222098C10.764509 -46.322545 10.714286 -46.450893 10.714286 -46.607143C10.714286 -46.763393 10.764509 -46.891741 10.864955 -46.992188C10.965402 -47.092634 11.093750 -47.142857 11.250000 -47.142857C11.406250 -47.142857 11.534598 -47.092634 11.635045 -46.992188C11.735491 -46.891741 11.785714 -46.763393 11.785714 -46.607143ZM13.928571 -46.607143C13.928571 -46.450893 13.878348 -46.322545 13.777902 -46.222098C13.677455 -46.121652 13.549107 -46.071429 13.392857 -46.071429C13.236607 -46.071429 13.108259 -46.121652 13.007812 -46.222098C12.907366 -46.322545 12.857143 -46.450893 12.857143 -46.607143C12.857143 -46.763393 12.907366 -46.891741 13.007812 -46.992188C13.108259 -47.092634 13.236607 -47.142857 13.392857 -47.142857C13.549107 -47.142857 13.677455 -47.092634 13.777902 -46.992188C13.878348 -46.891741 13.928571 -46.763393 13.928571 -46.607143ZM12.857143 -47.678571C12.857143 -47.522321 12.806920 -47.393973 12.706473 -47.293527C12.606027 -47.193080 12.477679 -47.142857 12.321429 -47.142857C12.165179 -47.142857 12.036830 -47.193080 11.936384 -47.293527C11.835938 -47.393973 11.785714 -47.522321 11.785714 -47.678571C11.785714 -47.834821 11.835938 -47.963170 11.936384 -48.063616C12.036830 -48.164062 12.165179 -48.214286 12.321429 -48.214286C12.477679 -48.214286 12.606027 -48.164062 12.706473 -48.063616C12.806920 -47.963170 12.857143 -47.834821 12.857143 -47.678571ZM11.785714 -48.750000C11.785714 -48.593750 11.735491 -48.465402 11.635045 -48.364955C11.534598 -48.264509 11.406250 -48.214286 11.250000 -48.214286C11.093750 -48.214286 10.965402 -48.264509 10.864955 -48.364955C10.764509 -48.465402 10.714286 -48.593750 10.714286 -48.750000C10.714286 -48.906250 10.764509 -49.034598 10.864955 -49.135045C10.965402 -49.235491 11.093750 -49.285714 11.250000 -49.285714C11.406250 -49.285714 11.534598 -49.235491 11.635045 -49.135045C11.735491 -49.034598 11.785714 -48.906250 11.785714 -48.750000ZM30.000000 -40.178571L30.000000 -39.107143C30.000000 -38.950893 29.949777 -38.822545 29.849330 -38.722098C29.748884 -38.621652 29.620536 -38.571429 29.464286 -38.571429L0.535714 -38.571429C0.379464 -38.571429 0.251116 -38.621652 0.150670 -38.722098C0.050223 -38.822545 0.000000 -38.950893 0.000000 -39.107143L0.000000 -40.178571C0.000000 -40.334821 0.050223 -40.463170 0.150670 -40.563616C0.251116 -40.664062 0.379464 -40.714286 0.535714 -40.714286L2.142857 -40.714286L2.142857 -51.428571C2.142857 -52.611607 2.561384 -53.621652 3.398438 -54.458705C4.235491 -55.295759 5.245536 -55.714286 6.428571 -55.714286C7.633929 -55.714286 8.660714 -55.279018 9.508929 -54.408482C10.022321 -54.620536 10.569196 -54.687500 11.149554 -54.609375C11.729911 -54.531250 12.248884 -54.313616 12.706473 -53.956473L13.074777 -54.324777C13.197545 -54.447545 13.320312 -54.447545 13.443080 -54.324777L14.146205 -53.621652C14.268973 -53.498884 14.268973 -53.376116 14.146205 -53.253348L8.889509 -47.996652C8.766741 -47.873884 8.643973 -47.873884 8.521205 -47.996652L7.818080 -48.699777C7.695312 -48.822545 7.695312 -48.945312 7.818080 -49.068080L8.186384 -49.436384C7.784598 -49.949777 7.558594 -50.530134 7.508371 -51.177455C7.458147 -51.824777 7.589286 -52.427455 7.901786 -52.985491C7.488839 -53.376116 6.997768 -53.571429 6.428571 -53.571429C5.837054 -53.571429 5.332031 -53.362165 4.913504 -52.943638C4.494978 -52.525112 4.285714 -52.020089 4.285714 -51.428571L4.285714 -40.714286L29.464286 -40.714286C29.620536 -40.714286 29.748884 -40.664062 29.849330 -40.563616C29.949777 -40.463170 30.000000 -40.334821 30.000000 -40.178571ZM15.000000 -47.678571C15.000000 -47.522321 14.949777 -47.393973 14.849330 -47.293527C14.748884 -47.193080 14.620536 -47.142857 14.464286 -47.142857C14.308036 -47.142857 14.179688 -47.193080 14.079241 -47.293527C13.978795 -47.393973 13.928571 -47.522321 13.928571 -47.678571C13.928571 -47.834821 13.978795 -47.963170 14.079241 -48.063616C14.179688 -48.164062 14.308036 -48.214286 14.464286 -48.214286C14.620536 -48.214286 14.748884 -48.164062 14.849330 -48.063616C14.949777 -47.963170 15.000000 -47.834821 15.000000 -47.678571ZM13.928571 -48.750000C13.928571 -48.593750 13.878348 -48.465402 13.777902 -48.364955C13.677455 -48.264509 13.549107 -48.214286 13.392857 -48.214286C13.236607 -48.214286 13.108259 -48.264509 13.007812 -48.364955C12.907366 -48.465402 12.857143 -48.593750 12.857143 -48.750000C12.857143 -48.906250 12.907366 -49.034598 13.007812 -49.135045C13.108259 -49.235491 13.236607 -49.285714 13.392857 -49.285714C13.549107 -49.285714 13.677455 -49.235491 13.777902 -49.135045C13.878348 -49.034598 13.928571 -48.906250 13.928571 -48.750000ZM12.857143 -49.821429C12.857143 -49.665179 12.806920 -49.536830 12.706473 -49.436384C12.606027 -49.335938 12.477679 -49.285714 12.321429 -49.285714C12.165179 -49.285714 12.036830 -49.335938 11.936384 -49.436384C11.835938 -49.536830 11.785714 -49.665179 11.785714 -49.821429C11.785714 -49.977679 11.835938 -50.106027 11.936384 -50.206473C12.036830 -50.306920 12.165179 -50.357143 12.321429 -50.357143C12.477679 -50.357143 12.606027 -50.306920 12.706473 -50.206473C12.806920 -50.106027 12.857143 -49.977679 12.857143 -49.821429ZM16.071429 -48.750000C16.071429 -48.593750 16.021205 -48.465402 15.920759 -48.364955C15.820312 -48.264509 15.691964 -48.214286 15.535714 -48.214286C15.379464 -48.214286 15.251116 -48.264509 15.150670 -48.364955C15.050223 -48.465402 15.000000 -48.593750 15.000000 -48.750000C15.000000 -48.906250 15.050223 -49.034598 15.150670 -49.135045C15.251116 -49.235491 15.379464 -49.285714 15.535714 -49.285714C15.691964 -49.285714 15.820312 -49.235491 15.920759 -49.135045C16.021205 -49.034598 16.071429 -48.906250 16.071429 -48.750000ZM15.000000 -49.821429C15.000000 -49.665179 14.949777 -49.536830 14.849330 -49.436384C14.748884 -49.335938 14.620536 -49.285714 14.464286 -49.285714C14.308036 -49.285714 14.179688 -49.335938 14.079241 -49.436384C13.978795 -49.536830 13.928571 -49.665179 13.928571 -49.821429C13.928571 -49.977679 13.978795 -50.106027 14.079241 -50.206473C14.179688 -50.306920 14.308036 -50.357143 14.464286 -50.357143C14.620536 -50.357143 14.748884 -50.306920 14.849330 -50.206473C14.949777 -50.106027 15.000000 -49.977679 15.000000 -49.821429ZM13.928571 -50.892857C13.928571 -50.736607 13.878348 -50.608259 13.777902 -50.507812C13.677455 -50.407366 13.549107 -50.357143 13.392857 -50.357143C13.236607 -50.357143 13.108259 -50.407366 13.007812 -50.507812C12.907366 -50.608259 12.857143 -50.736607 12.857143 -50.892857C12.857143 -51.049107 12.907366 -51.177455 13.007812 -51.277902C13.108259 -51.378348 13.236607 -51.428571 13.392857 -51.428571C13.549107 -51.428571 13.677455 -51.378348 13.777902 -51.277902C13.878348 -51.177455 13.928571 -51.049107 13.928571 -50.892857ZM17.142857 -49.821429C17.142857 -49.665179 17.092634 -49.536830 16.992188 -49.436384C16.891741 -49.335938 16.763393 -49.285714 16.607143 -49.285714C16.450893 -49.285714 16.322545 -49.335938 16.222098 -49.436384C16.121652 -49.536830 16.071429 -49.665179 16.071429 -49.821429C16.071429 -49.977679 16.121652 -50.106027 16.222098 -50.206473C16.322545 -50.306920 16.450893 -50.357143 16.607143 -50.357143C16.763393 -50.357143 16.891741 -50.306920 16.992188 -50.206473C17.092634 -50.106027 17.142857 -49.977679 17.142857 -49.821429ZM16.071429 -50.892857C16.071429 -50.736607 16.021205 -50.608259 15.920759 -50.507812C15.820312 -50.407366 15.691964 -50.357143 15.535714 -50.357143C15.379464 -50.357143 15.251116 -50.407366 15.150670 -50.507812C15.050223 -50.608259 15.000000 -50.736607 15.000000 -50.892857C15.000000 -51.049107 15.050223 -51.177455 15.150670 -51.277902C15.251116 -51.378348 15.379464 -51.428571 15.535714 -51.428571C15.691964 -51.428571 15.820312 -51.378348 15.920759 -51.277902C16.021205 -51.177455 16.071429 -51.049107 16.071429 -50.892857ZM18.214286 -50.892857C18.214286 -50.736607 18.164062 -50.608259 18.063616 -50.507812C17.963170 -50.407366 17.834821 -50.357143 17.678571 -50.357143C17.522321 -50.357143 17.393973 -50.407366 17.293527 -50.507812C17.193080 -50.608259 17.142857 -50.736607 17.142857 -50.892857C17.142857 -51.049107 17.193080 -51.177455 17.293527 -51.277902C17.393973 -51.378348 17.522321 -51.428571 17.678571 -51.428571C17.834821 -51.428571 17.963170 -51.378348 18.063616 -51.277902C18.164062 -51.177455 18.214286 -51.049107 18.214286 -50.892857ZM18.214286 -50.892857"></path></svg>