<svg width="25.786830" height="30.078125" viewBox="-0.072545 -55.870536 25.786830 30.078125" xmlns="http://www.w3.org/2000/svg"><path d="M16.640625 -35.837054C16.640625 -34.877232 16.545759 -33.777902 16.356027 -32.539062C16.010045 -30.139509 15.703125 -28.392857 15.435268 -27.299107C15.189732 -26.294643 14.341518 -25.792411 12.890625 -25.792411C11.439732 -25.792411 10.591518 -26.294643 10.345982 -27.299107C10.078125 -28.392857 9.771205 -30.139509 9.425223 -32.539062C9.235491 -33.766741 9.140625 -34.866071 9.140625 -35.837054C9.140625 -37.712054 10.390625 -38.649554 12.890625 -38.649554C15.390625 -38.649554 16.640625 -37.712054 16.640625 -35.837054ZM25.714286 -42.935268C25.714286 -40.256696 24.966518 -37.834821 23.470982 -35.669643C21.975446 -33.504464 20.022321 -31.941964 17.611607 -30.982143C17.522321 -30.948661 17.438616 -30.965402 17.360491 -31.032366C17.282366 -31.099330 17.248884 -31.183036 17.260045 -31.283482C17.338170 -31.819196 17.393973 -32.187500 17.427455 -32.388393C17.472098 -32.745536 17.505580 -33.007812 17.527902 -33.175223C17.539062 -33.275670 17.589286 -33.342634 17.678571 -33.376116C19.453125 -34.280134 20.878906 -35.585938 21.955915 -37.293527C23.032924 -39.001116 23.571429 -40.881696 23.571429 -42.935268C23.571429 -44.944196 23.063616 -46.788504 22.047991 -48.468192C21.032366 -50.147879 19.654018 -51.456473 17.912946 -52.393973C16.171875 -53.331473 14.291295 -53.744420 12.271205 -53.632812C10.887277 -53.554688 9.564732 -53.214286 8.303571 -52.611607C7.042411 -52.008929 5.962612 -51.224888 5.064174 -50.259487C4.165737 -49.294085 3.451451 -48.166853 2.921317 -46.877790C2.391183 -45.588728 2.131696 -44.246652 2.142857 -42.851562C2.154018 -40.797991 2.706473 -38.920201 3.800223 -37.218192C4.893973 -35.516183 6.328125 -34.224330 8.102679 -33.342634C8.180804 -33.309152 8.231027 -33.242188 8.253348 -33.141741C8.286830 -32.907366 8.320312 -32.656250 8.353795 -32.388393C8.364955 -32.287946 8.392857 -32.106585 8.437500 -31.844308C8.482143 -31.582031 8.515625 -31.383929 8.537946 -31.250000C8.549107 -31.149554 8.512835 -31.065848 8.429129 -30.998884C8.345424 -30.931920 8.258929 -30.920759 8.169643 -30.965402C6.517857 -31.612723 5.061384 -32.558594 3.800223 -33.803013C2.539062 -35.047433 1.570871 -36.520647 0.895647 -38.222656C0.220424 -39.924665 -0.072545 -41.707589 0.016741 -43.571429C0.094866 -45.167411 0.463170 -46.693638 1.121652 -48.150112C1.780134 -49.606585 2.642299 -50.873326 3.708147 -51.950335C4.773996 -53.027344 6.029576 -53.906250 7.474888 -54.587054C8.920201 -55.267857 10.440848 -55.658482 12.036830 -55.758929C13.867188 -55.870536 15.627790 -55.611049 17.318638 -54.980469C19.009487 -54.349888 20.465960 -53.454241 21.688058 -52.293527C22.910156 -51.132812 23.886719 -49.734933 24.617746 -48.099888C25.348772 -46.464844 25.714286 -44.743304 25.714286 -42.935268ZM16.640625 -43.470982C16.640625 -42.433036 16.275112 -41.548549 15.544085 -40.817522C14.813058 -40.086496 13.928571 -39.720982 12.890625 -39.720982C11.852679 -39.720982 10.968192 -40.086496 10.237165 -40.817522C9.506138 -41.548549 9.140625 -42.433036 9.140625 -43.470982C9.140625 -44.508929 9.506138 -45.393415 10.237165 -46.124442C10.968192 -46.855469 11.852679 -47.220982 12.890625 -47.220982C13.928571 -47.220982 14.813058 -46.855469 15.544085 -46.124442C16.275112 -45.393415 16.640625 -44.508929 16.640625 -43.470982ZM21.462054 -42.935268C21.462054 -41.573661 21.163504 -40.298549 20.566406 -39.109933C19.969308 -37.921317 19.151786 -36.930804 18.113839 -36.138393C18.024554 -36.071429 17.935268 -36.060268 17.845982 -36.104911C17.756696 -36.149554 17.700893 -36.227679 17.678571 -36.339286C17.611607 -36.919643 17.449777 -37.433036 17.193080 -37.879464C17.114955 -37.991071 17.131696 -38.102679 17.243304 -38.214286C17.890625 -38.816964 18.398438 -39.525670 18.766741 -40.340402C19.135045 -41.155134 19.319196 -42.020089 19.319196 -42.935268C19.319196 -44.174107 18.992746 -45.312500 18.339844 -46.350446C17.686942 -47.388393 16.808036 -48.178013 15.703125 -48.719308C14.598214 -49.260603 13.415179 -49.464286 12.154018 -49.330357C10.669643 -49.162946 9.391741 -48.532366 8.320312 -47.438616C7.248884 -46.344866 6.640625 -45.055804 6.495536 -43.571429C6.383929 -42.544643 6.515067 -41.562500 6.888951 -40.625000C7.262835 -39.687500 7.812500 -38.883929 8.537946 -38.214286C8.649554 -38.102679 8.666295 -37.991071 8.588170 -37.879464C8.320312 -37.421875 8.158482 -36.902902 8.102679 -36.322545C8.080357 -36.222098 8.024554 -36.149554 7.935268 -36.104911C7.845982 -36.060268 7.756696 -36.071429 7.667411 -36.138393C6.607143 -36.964286 5.778460 -37.985491 5.181362 -39.202009C4.584263 -40.418527 4.296875 -41.724330 4.319196 -43.119420C4.352679 -44.581473 4.737723 -45.943080 5.474330 -47.204241C6.210938 -48.465402 7.198661 -49.478237 8.437500 -50.242746C9.676339 -51.007254 11.021205 -51.422991 12.472098 -51.489955C14.079241 -51.568080 15.574777 -51.233259 16.958705 -50.485491C18.342634 -49.737723 19.439174 -48.691406 20.248326 -47.346540C21.057478 -46.001674 21.462054 -44.531250 21.462054 -42.935268ZM21.462054 -42.935268"></path></svg>