<svg width="30.033482" height="30.000000" viewBox="0.000000 -55.714286 30.033482 30.000000" xmlns="http://www.w3.org/2000/svg"><path d="M21.612723 -47.745536C21.445312 -47.935268 21.250000 -47.982701 21.026786 -47.887835C20.803571 -47.792969 20.658482 -47.633929 20.591518 -47.410714C20.524554 -47.187500 20.552455 -46.975446 20.675223 -46.774554C20.831473 -46.584821 21.054688 -46.503906 21.344866 -46.531808C21.635045 -46.559710 21.824777 -46.674107 21.914062 -46.875000C22.003348 -47.075893 21.902902 -47.366071 21.612723 -47.745536ZM14.983259 -43.627232C14.893973 -43.537946 14.785156 -43.493304 14.656808 -43.493304C14.528460 -43.493304 14.425223 -43.537946 14.347098 -43.627232C14.257812 -43.716518 14.213170 -43.822545 14.213170 -43.945312C14.213170 -44.068080 14.257812 -44.168527 14.347098 -44.246652C14.425223 -44.335938 14.528460 -44.380580 14.656808 -44.380580C14.785156 -44.380580 14.893973 -44.335938 14.983259 -44.246652C15.061384 -44.168527 15.100446 -44.068080 15.100446 -43.945312C15.100446 -43.822545 15.061384 -43.716518 14.983259 -43.627232ZM17.745536 -42.388393L17.159598 -41.802455C17.025670 -41.657366 16.861049 -41.584821 16.665737 -41.584821C16.470424 -41.584821 16.300223 -41.657366 16.155134 -41.802455L15.518973 -42.438616C15.385045 -42.583705 15.318080 -42.751116 15.318080 -42.940848C15.318080 -43.130580 15.385045 -43.297991 15.518973 -43.443080L16.104911 -44.029018C16.238839 -44.162946 16.403460 -44.229911 16.598772 -44.229911C16.794085 -44.229911 16.964286 -44.162946 17.109375 -44.029018L17.745536 -43.376116C17.879464 -43.242188 17.946429 -43.077567 17.946429 -42.882254C17.946429 -42.686942 17.879464 -42.522321 17.745536 -42.388393ZM15.920759 -44.564732C15.842634 -44.475446 15.739397 -44.430804 15.611049 -44.430804C15.482701 -44.430804 15.373884 -44.475446 15.284598 -44.564732C15.206473 -44.654018 15.167411 -44.760045 15.167411 -44.882812C15.167411 -45.005580 15.206473 -45.111607 15.284598 -45.200893C15.373884 -45.290179 15.479911 -45.334821 15.602679 -45.334821C15.725446 -45.334821 15.831473 -45.290179 15.920759 -45.200893C16.010045 -45.111607 16.054688 -45.005580 16.054688 -44.882812C16.054688 -44.760045 16.010045 -44.654018 15.920759 -44.564732ZM22.667411 -46.205357C22.287946 -45.491071 21.688058 -45.013951 20.867746 -44.773996C20.047433 -44.534040 19.335938 -44.626116 18.733259 -45.050223C18.309152 -45.362723 17.968750 -45.733817 17.712054 -46.163504C17.455357 -46.593192 17.338170 -47.081473 17.360491 -47.628348C17.382812 -48.175223 17.600446 -48.688616 18.013393 -49.168527C18.426339 -49.648438 18.847656 -49.944196 19.277344 -50.055804C19.707031 -50.167411 20.100446 -50.139509 20.457589 -49.972098C20.814732 -49.804688 21.205357 -49.520089 21.629464 -49.118304C21.651786 -49.095982 21.724330 -49.026228 21.847098 -48.909040C21.969866 -48.791853 22.050781 -48.716518 22.089844 -48.683036C22.128906 -48.649554 22.201451 -48.574219 22.307478 -48.457031C22.413504 -48.339844 22.483259 -48.253348 22.516741 -48.197545C22.550223 -48.141741 22.606027 -48.055246 22.684152 -47.938058C22.762277 -47.820871 22.809710 -47.720424 22.826451 -47.636719C22.843192 -47.553013 22.865513 -47.449777 22.893415 -47.327009C22.921317 -47.204241 22.926897 -47.087054 22.910156 -46.975446C22.893415 -46.863839 22.865513 -46.741071 22.826451 -46.607143C22.787388 -46.473214 22.734375 -46.339286 22.667411 -46.205357ZM26.032366 -38.136161C26.065848 -38.359375 26.018415 -38.551897 25.890067 -38.713728C25.761719 -38.875558 25.608259 -38.995536 25.429688 -39.073661C25.251116 -39.151786 25.066964 -39.246652 24.877232 -39.358259C24.687500 -39.469866 24.559152 -39.581473 24.492188 -39.693080C24.045759 -40.485491 23.577009 -41.035156 23.085938 -41.342076C22.594866 -41.648996 21.964286 -41.713170 21.194196 -41.534598C21.406250 -41.679688 21.629464 -41.782924 21.863839 -41.844308C22.098214 -41.905692 22.282366 -41.930804 22.416295 -41.919643L22.617188 -41.902902C22.639509 -42.405134 22.449777 -42.907366 22.047991 -43.409598C22.114955 -43.632812 22.151228 -43.858817 22.156808 -44.087612C22.162388 -44.316406 22.148438 -44.486607 22.114955 -44.598214L22.064732 -44.765625C22.544643 -45.033482 22.940848 -45.396205 23.253348 -45.853795C23.565848 -46.311384 23.755580 -46.819196 23.822545 -47.377232C23.934152 -48.314732 23.694196 -49.154576 23.102679 -49.896763C22.511161 -50.638951 21.746652 -51.065848 20.809152 -51.177455C20.139509 -51.255580 19.503348 -51.152344 18.900670 -50.867746C18.297991 -50.583147 17.840402 -50.167411 17.527902 -49.620536C17.193080 -49.051339 17.006138 -48.487723 16.967076 -47.929688C16.928013 -47.371652 17.008929 -46.886161 17.209821 -46.473214C17.410714 -46.060268 17.653460 -45.703125 17.938058 -45.401786C18.222656 -45.100446 18.537946 -44.866071 18.883929 -44.698661C18.381696 -44.743304 17.890625 -44.944196 17.410714 -45.301339C16.930804 -45.658482 16.612723 -46.149554 16.456473 -46.774554C16.143973 -47.979911 16.322545 -49.218750 16.992188 -50.491071C16.813616 -50.725446 16.651786 -50.904018 16.506696 -51.026786C15.948661 -51.026786 15.452009 -50.920759 15.016741 -50.708705C15.228795 -50.976562 15.463170 -51.183036 15.719866 -51.328125C15.976562 -51.473214 16.177455 -51.551339 16.322545 -51.562500L16.540179 -51.579241C16.540179 -52.137277 16.467634 -52.572545 16.322545 -52.885045C16.210938 -53.119420 16.029576 -53.278460 15.778460 -53.362165C15.527344 -53.445871 15.265067 -53.426339 14.991629 -53.303571C14.718192 -53.180804 14.508929 -52.957589 14.363839 -52.633929C14.386161 -52.678571 14.408482 -52.717634 14.430804 -52.751116C14.352679 -52.438616 14.316406 -52.017299 14.321987 -51.487165C14.327567 -50.957031 14.433594 -50.304129 14.640067 -49.528460C14.846540 -48.752790 15.117188 -48.069196 15.452009 -47.477679C15.172991 -47.321429 14.910714 -47.120536 14.665179 -46.875000C14.274554 -46.696429 13.797433 -46.303013 13.233817 -45.694754C12.670201 -45.086496 12.198661 -44.520089 11.819196 -43.995536L11.266741 -43.225446C10.262277 -42.845982 9.252232 -42.145647 8.236607 -41.124442C7.220982 -40.103237 6.802455 -39.196429 6.981027 -38.404018C6.992188 -38.225446 7.053571 -38.074777 7.165179 -37.952009C6.997768 -37.818080 6.830357 -37.650670 6.662946 -37.449777C6.428571 -37.170759 6.311384 -36.869420 6.311384 -36.545759C6.311384 -36.222098 6.431362 -35.998884 6.671317 -35.876116C6.911272 -35.753348 7.265625 -35.786830 7.734375 -35.976562C8.191964 -36.188616 8.621652 -36.464844 9.023438 -36.805246C9.425223 -37.145647 9.732143 -37.483259 9.944196 -37.818080C9.921875 -37.840402 9.885603 -37.868304 9.835379 -37.901786C9.785156 -37.935268 9.670759 -37.977121 9.492188 -38.027344C9.313616 -38.077567 9.129464 -38.097098 8.939732 -38.085938C9.196429 -38.141741 9.481027 -38.211496 9.793527 -38.295201C10.106027 -38.378906 10.329241 -38.434710 10.463170 -38.462612C10.597098 -38.490513 10.750558 -38.523996 10.923549 -38.563058C11.096540 -38.602121 11.241629 -38.624442 11.358817 -38.630022C11.476004 -38.635603 11.607143 -38.638393 11.752232 -38.638393C11.908482 -38.560268 12.031250 -38.750000 12.120536 -39.207589C12.198661 -39.620536 12.237723 -40.122768 12.237723 -40.714286C12.237723 -41.852679 12.014509 -42.689732 11.568080 -43.225446C12.751116 -42.075893 13.314732 -40.853795 13.258929 -39.559152C13.247768 -39.235491 13.164062 -38.956473 13.007812 -38.722098C12.851562 -38.487723 12.700893 -38.337054 12.555804 -38.270089L12.338170 -38.169643C12.293527 -38.091518 12.187500 -37.912946 12.020089 -37.633929C11.852679 -37.354911 11.707589 -37.101004 11.584821 -36.872210C11.462054 -36.643415 11.314174 -36.353237 11.141183 -36.001674C10.968192 -35.650112 10.828683 -35.309710 10.722656 -34.980469C10.616629 -34.651228 10.521763 -34.299665 10.438058 -33.925781C10.354353 -33.551897 10.318080 -33.180804 10.329241 -32.812500C10.340402 -32.444196 10.396205 -32.092634 10.496652 -31.757812C10.106027 -32.360491 9.899554 -32.806920 9.877232 -33.097098C9.631696 -32.829241 9.439174 -32.611607 9.299665 -32.444196C9.160156 -32.276786 8.973214 -32.042411 8.738839 -31.741071C8.504464 -31.439732 8.334263 -31.183036 8.228237 -30.970982C8.122210 -30.758929 8.030134 -30.530134 7.952009 -30.284598C7.873884 -30.039062 7.871094 -29.827009 7.943638 -29.648438C8.016183 -29.469866 8.158482 -29.319196 8.370536 -29.196429C8.872768 -28.917411 9.676339 -29.274554 10.781250 -30.267857C11.886161 -31.261161 12.949219 -32.497210 13.970424 -33.976004C14.991629 -35.454799 15.675223 -36.729911 16.021205 -37.801339C16.981027 -38.381696 17.790179 -39.026228 18.448661 -39.734933C19.107143 -40.443638 19.587054 -41.110491 19.888393 -41.735491C20.412946 -40.697545 21.272321 -39.704241 22.466518 -38.755580C23.627232 -37.829241 24.559152 -37.382812 25.262277 -37.416295C25.697545 -37.438616 25.954241 -37.678571 26.032366 -38.136161ZM30.033482 -40.714286C30.033482 -38.683036 29.637277 -36.741071 28.844866 -34.888393C28.052455 -33.035714 26.986607 -31.439732 25.647321 -30.100446C24.308036 -28.761161 22.709263 -27.695312 20.851004 -26.902902C18.992746 -26.110491 17.047991 -25.714286 15.016741 -25.714286C12.985491 -25.714286 11.040737 -26.110491 9.182478 -26.902902C7.324219 -27.695312 5.725446 -28.761161 4.386161 -30.100446C3.046875 -31.439732 1.981027 -33.035714 1.188616 -34.888393C0.396205 -36.741071 0.000000 -38.683036 0.000000 -40.714286C0.000000 -42.745536 0.396205 -44.687500 1.188616 -46.540179C1.981027 -48.392857 3.046875 -49.988839 4.386161 -51.328125C5.725446 -52.667411 7.324219 -53.733259 9.182478 -54.525670C11.040737 -55.318080 12.985491 -55.714286 15.016741 -55.714286C17.047991 -55.714286 18.992746 -55.318080 20.851004 -54.525670C22.709263 -53.733259 24.308036 -52.667411 25.647321 -51.328125C26.986607 -49.988839 28.052455 -48.392857 28.844866 -46.540179C29.637277 -44.687500 30.033482 -42.745536 30.033482 -40.714286ZM30.033482 -40.714286"></path></svg>