<svg width="28.789062" height="29.852121" viewBox="0.599888 -55.485491 28.789062 29.852121" xmlns="http://www.w3.org/2000/svg"><path d="M22.449777 -42.441406C22.773438 -42.932478 22.737165 -43.655134 22.340960 -44.609375C21.944754 -45.563616 21.266741 -46.358817 20.306920 -46.994978C19.659598 -47.430246 18.959263 -47.728795 18.205915 -47.890625C17.452567 -48.052455 16.794085 -48.077567 16.230469 -47.965960C15.666853 -47.854353 15.284598 -47.647879 15.083705 -47.346540C14.949777 -47.089844 14.924665 -46.933594 15.008371 -46.877790C15.092076 -46.821987 15.329241 -46.766183 15.719866 -46.710379C15.976562 -46.676897 16.191406 -46.648996 16.364397 -46.626674C16.537388 -46.604353 16.785714 -46.551339 17.109375 -46.467634C17.433036 -46.383929 17.745536 -46.286272 18.046875 -46.174665C18.448661 -46.029576 18.825335 -45.853795 19.176897 -45.647321C19.528460 -45.440848 19.824219 -45.234375 20.064174 -45.027902C20.304129 -44.821429 20.527344 -44.606585 20.733817 -44.383371C20.940290 -44.160156 21.110491 -43.948103 21.244420 -43.747210C21.378348 -43.546317 21.501116 -43.353795 21.612723 -43.169643C21.724330 -42.985491 21.816406 -42.826451 21.888951 -42.692522C21.961496 -42.558594 22.028460 -42.455357 22.089844 -42.382812C22.151228 -42.310268 22.209821 -42.276786 22.265625 -42.282366C22.321429 -42.287946 22.382812 -42.340960 22.449777 -42.441406ZM28.526786 -32.832031C27.946429 -31.414621 27.117746 -30.186942 26.040737 -29.148996C24.963728 -28.111049 23.766741 -27.321429 22.449777 -26.780134C21.132812 -26.238839 19.720982 -25.901228 18.214286 -25.767299C16.707589 -25.633371 15.223214 -25.708705 13.761161 -25.993304C12.299107 -26.277902 10.898438 -26.785714 9.559152 -27.516741C8.219866 -28.247768 7.047991 -29.148996 6.043527 -30.220424C5.039062 -31.291853 4.249442 -32.606027 3.674665 -34.162946C3.099888 -35.719866 2.840402 -37.413504 2.896205 -39.243862C2.907366 -39.701451 2.954799 -40.172991 3.038504 -40.658482C3.122210 -41.143973 3.191964 -41.501116 3.247768 -41.729911C3.303571 -41.958705 3.437500 -42.407924 3.649554 -43.077567C3.861607 -43.747210 3.989955 -44.154576 4.034598 -44.299665C3.465402 -41.978237 3.470982 -39.762835 4.051339 -37.653460C4.631696 -35.544085 5.597098 -33.769531 6.947545 -32.329799C8.297991 -30.890067 9.921875 -29.740513 11.819196 -28.881138C13.716518 -28.021763 15.647321 -27.558594 17.611607 -27.491629C19.575893 -27.424665 21.523438 -27.840402 23.454241 -28.738839C25.385045 -29.637277 26.997768 -31.001674 28.292411 -32.832031C28.515625 -33.133371 28.616071 -33.211496 28.593750 -33.066406C28.593750 -33.021763 28.571429 -32.943638 28.526786 -32.832031ZM24.525670 -40.348772C24.525670 -39.188058 24.299665 -38.077567 23.847656 -37.017299C23.395647 -35.957031 22.790179 -35.041853 22.031250 -34.271763C21.272321 -33.501674 20.368304 -32.890625 19.319196 -32.438616C18.270089 -31.986607 17.165179 -31.760603 16.004464 -31.760603C14.843750 -31.760603 13.738839 -31.986607 12.689732 -32.438616C11.640625 -32.890625 10.736607 -33.501674 9.977679 -34.271763C9.218750 -35.041853 8.613281 -35.957031 8.161272 -37.017299C7.709263 -38.077567 7.483259 -39.188058 7.483259 -40.348772C7.483259 -41.509487 7.709263 -42.619978 8.161272 -43.680246C8.613281 -44.740513 9.218750 -45.655692 9.977679 -46.425781C10.736607 -47.195871 11.640625 -47.806920 12.689732 -48.258929C13.738839 -48.710938 14.843750 -48.936942 16.004464 -48.936942C17.165179 -48.936942 18.270089 -48.710938 19.319196 -48.258929C20.368304 -47.806920 21.272321 -47.195871 22.031250 -46.425781C22.790179 -45.655692 23.395647 -44.740513 23.847656 -43.680246C24.299665 -42.619978 24.525670 -41.509487 24.525670 -40.348772ZM29.330357 -45.170201C28.604911 -46.810826 27.597656 -48.211496 26.308594 -49.372210C25.019531 -50.532924 23.607701 -51.389509 22.073103 -51.941964C20.538504 -52.494420 18.909040 -52.792969 17.184710 -52.837612C15.460379 -52.882254 13.780692 -52.678571 12.145647 -52.226562C10.510603 -51.774554 8.973214 -51.054688 7.533482 -50.066964C6.093750 -49.079241 4.866071 -47.898996 3.850446 -46.526228C2.834821 -45.153460 2.103795 -43.496094 1.657366 -41.554129C1.210938 -39.612165 1.155134 -37.530692 1.489955 -35.309710C0.943080 -37.106585 0.655692 -38.844866 0.627790 -40.524554C0.599888 -42.204241 0.797991 -43.724888 1.222098 -45.086496C1.646205 -46.448103 2.254464 -47.714844 3.046875 -48.886719C3.839286 -50.058594 4.762835 -51.065848 5.817522 -51.908482C6.872210 -52.751116 8.027344 -53.454241 9.282924 -54.017857C10.538504 -54.581473 11.833147 -54.977679 13.166853 -55.206473C14.500558 -55.435268 15.853795 -55.485491 17.226562 -55.357143C18.599330 -55.228795 19.916295 -54.927455 21.177455 -54.453125C22.438616 -53.978795 23.643973 -53.284040 24.793527 -52.368862C25.943080 -51.453683 26.936384 -50.354353 27.773438 -49.070871C28.141741 -48.512835 28.487723 -47.837612 28.811384 -47.045201C29.135045 -46.252790 29.308036 -45.627790 29.330357 -45.170201ZM28.292411 -39.444754C28.426339 -42.167969 27.664621 -44.489397 26.007254 -46.409040C24.349888 -48.328683 22.137277 -49.667969 19.369420 -50.426897C19.280134 -50.426897 19.224330 -50.454799 19.202009 -50.510603C19.179688 -50.566406 19.313616 -50.611049 19.603795 -50.644531C20.998884 -50.599888 22.282366 -50.320871 23.454241 -49.807478C24.626116 -49.294085 25.591518 -48.624442 26.350446 -47.798549C27.109375 -46.972656 27.756696 -46.032366 28.292411 -44.977679C28.828125 -43.922991 29.154576 -42.812500 29.271763 -41.646205C29.388951 -40.479911 29.383371 -39.319196 29.255022 -38.164062C29.126674 -37.008929 28.783482 -35.906808 28.225446 -34.857701C27.667411 -33.808594 26.983817 -32.876674 26.174665 -32.061942C25.365513 -31.247210 24.333147 -30.591518 23.077567 -30.094866C21.821987 -29.598214 20.435268 -29.338728 18.917411 -29.316406C20.122768 -29.651228 21.247210 -30.097656 22.290737 -30.655692C23.334263 -31.213728 24.305246 -31.900112 25.203683 -32.714844C26.102121 -33.529576 26.824777 -34.514509 27.371652 -35.669643C27.918527 -36.824777 28.225446 -38.083147 28.292411 -39.444754ZM28.292411 -39.444754"></path></svg>