<svg width="25.714286" height="27.857143" viewBox="0.000000 -53.571429 25.714286 27.857143" xmlns="http://www.w3.org/2000/svg"><path d="M3.214286 -32.142857L3.214286 -30.000000L1.339286 -30.000000C1.160714 -30.000000 1.071429 -30.089286 1.071429 -30.267857L1.071429 -30.535714L0.267857 -30.535714C0.089286 -30.535714 0.000000 -30.625000 0.000000 -30.803571L0.000000 -31.339286C0.000000 -31.517857 0.089286 -31.607143 0.267857 -31.607143L1.071429 -31.607143L1.071429 -31.875000C1.071429 -32.053571 1.160714 -32.142857 1.339286 -32.142857ZM3.214286 -36.428571L3.214286 -34.285714L1.339286 -34.285714C1.160714 -34.285714 1.071429 -34.375000 1.071429 -34.553571L1.071429 -34.821429L0.267857 -34.821429C0.089286 -34.821429 0.000000 -34.910714 0.000000 -35.089286L0.000000 -35.625000C0.000000 -35.803571 0.089286 -35.892857 0.267857 -35.892857L1.071429 -35.892857L1.071429 -36.160714C1.071429 -36.339286 1.160714 -36.428571 1.339286 -36.428571ZM3.214286 -40.714286L3.214286 -38.571429L1.339286 -38.571429C1.160714 -38.571429 1.071429 -38.660714 1.071429 -38.839286L1.071429 -39.107143L0.267857 -39.107143C0.089286 -39.107143 0.000000 -39.196429 0.000000 -39.375000L0.000000 -39.910714C0.000000 -40.089286 0.089286 -40.178571 0.267857 -40.178571L1.071429 -40.178571L1.071429 -40.446429C1.071429 -40.625000 1.160714 -40.714286 1.339286 -40.714286ZM3.214286 -45.000000L3.214286 -42.857143L1.339286 -42.857143C1.160714 -42.857143 1.071429 -42.946429 1.071429 -43.125000L1.071429 -43.392857L0.267857 -43.392857C0.089286 -43.392857 0.000000 -43.482143 0.000000 -43.660714L0.000000 -44.196429C0.000000 -44.375000 0.089286 -44.464286 0.267857 -44.464286L1.071429 -44.464286L1.071429 -44.732143C1.071429 -44.910714 1.160714 -45.000000 1.339286 -45.000000ZM3.214286 -49.285714L3.214286 -47.142857L1.339286 -47.142857C1.160714 -47.142857 1.071429 -47.232143 1.071429 -47.410714L1.071429 -47.678571L0.267857 -47.678571C0.089286 -47.678571 0.000000 -47.767857 0.000000 -47.946429L0.000000 -48.482143C0.000000 -48.660714 0.089286 -48.750000 0.267857 -48.750000L1.071429 -48.750000L1.071429 -49.017857C1.071429 -49.196429 1.160714 -49.285714 1.339286 -49.285714ZM21.428571 -51.964286L21.428571 -27.321429C21.428571 -26.875000 21.272321 -26.495536 20.959821 -26.183036C20.647321 -25.870536 20.267857 -25.714286 19.821429 -25.714286L5.892857 -25.714286C5.446429 -25.714286 5.066964 -25.870536 4.754464 -26.183036C4.441964 -26.495536 4.285714 -26.875000 4.285714 -27.321429L4.285714 -51.964286C4.285714 -52.410714 4.441964 -52.790179 4.754464 -53.102679C5.066964 -53.415179 5.446429 -53.571429 5.892857 -53.571429L19.821429 -53.571429C20.267857 -53.571429 20.647321 -53.415179 20.959821 -53.102679C21.272321 -52.790179 21.428571 -52.410714 21.428571 -51.964286ZM25.714286 -31.339286L25.714286 -30.803571C25.714286 -30.625000 25.625000 -30.535714 25.446429 -30.535714L24.642857 -30.535714L24.642857 -30.267857C24.642857 -30.089286 24.553571 -30.000000 24.375000 -30.000000L22.500000 -30.000000L22.500000 -32.142857L24.375000 -32.142857C24.553571 -32.142857 24.642857 -32.053571 24.642857 -31.875000L24.642857 -31.607143L25.446429 -31.607143C25.625000 -31.607143 25.714286 -31.517857 25.714286 -31.339286ZM25.714286 -35.625000L25.714286 -35.089286C25.714286 -34.910714 25.625000 -34.821429 25.446429 -34.821429L24.642857 -34.821429L24.642857 -34.553571C24.642857 -34.375000 24.553571 -34.285714 24.375000 -34.285714L22.500000 -34.285714L22.500000 -36.428571L24.375000 -36.428571C24.553571 -36.428571 24.642857 -36.339286 24.642857 -36.160714L24.642857 -35.892857L25.446429 -35.892857C25.625000 -35.892857 25.714286 -35.803571 25.714286 -35.625000ZM25.714286 -39.910714L25.714286 -39.375000C25.714286 -39.196429 25.625000 -39.107143 25.446429 -39.107143L24.642857 -39.107143L24.642857 -38.839286C24.642857 -38.660714 24.553571 -38.571429 24.375000 -38.571429L22.500000 -38.571429L22.500000 -40.714286L24.375000 -40.714286C24.553571 -40.714286 24.642857 -40.625000 24.642857 -40.446429L24.642857 -40.178571L25.446429 -40.178571C25.625000 -40.178571 25.714286 -40.089286 25.714286 -39.910714ZM25.714286 -44.196429L25.714286 -43.660714C25.714286 -43.482143 25.625000 -43.392857 25.446429 -43.392857L24.642857 -43.392857L24.642857 -43.125000C24.642857 -42.946429 24.553571 -42.857143 24.375000 -42.857143L22.500000 -42.857143L22.500000 -45.000000L24.375000 -45.000000C24.553571 -45.000000 24.642857 -44.910714 24.642857 -44.732143L24.642857 -44.464286L25.446429 -44.464286C25.625000 -44.464286 25.714286 -44.375000 25.714286 -44.196429ZM25.714286 -48.482143L25.714286 -47.946429C25.714286 -47.767857 25.625000 -47.678571 25.446429 -47.678571L24.642857 -47.678571L24.642857 -47.410714C24.642857 -47.232143 24.553571 -47.142857 24.375000 -47.142857L22.500000 -47.142857L22.500000 -49.285714L24.375000 -49.285714C24.553571 -49.285714 24.642857 -49.196429 24.642857 -49.017857L24.642857 -48.750000L25.446429 -48.750000C25.625000 -48.750000 25.714286 -48.660714 25.714286 -48.482143ZM25.714286 -48.482143"></path></svg>