<svg width="30.982143" height="30.055804" viewBox="0.569196 -55.797991 30.982143 30.055804" xmlns="http://www.w3.org/2000/svg"><path d="M22.332589 -35.111607C22.287946 -35.379464 22.134487 -35.569196 21.872210 -35.680804C21.609933 -35.792411 21.333705 -35.851004 21.043527 -35.856585C20.753348 -35.862165 20.482701 -35.931920 20.231585 -36.065848C19.980469 -36.199777 19.838170 -36.411830 19.804688 -36.702009C19.748884 -37.226562 19.933036 -38.005022 20.357143 -39.037388C20.781250 -40.069754 21.199777 -41.079799 21.612723 -42.067522C22.025670 -43.055246 22.204241 -43.766741 22.148438 -44.202009C21.992188 -45.329241 21.339286 -45.904018 20.189732 -45.926339C19.687500 -45.937500 19.268973 -45.848214 18.934152 -45.658482L18.883929 -45.625000C18.839286 -45.602679 18.811384 -45.588728 18.800223 -45.583147C18.789062 -45.577567 18.763951 -45.566406 18.724888 -45.549665C18.685826 -45.532924 18.657924 -45.521763 18.641183 -45.516183C18.624442 -45.510603 18.596540 -45.507812 18.557478 -45.507812C18.518415 -45.507812 18.484933 -45.516183 18.457031 -45.532924C18.429129 -45.549665 18.395647 -45.569196 18.356585 -45.591518C18.317522 -45.613839 18.281250 -45.641741 18.247768 -45.675223C18.214286 -45.697545 18.164062 -45.744978 18.097098 -45.817522C18.030134 -45.890067 17.979911 -45.940290 17.946429 -45.968192C17.912946 -45.996094 17.865513 -46.037946 17.804129 -46.093750C17.742746 -46.149554 17.689732 -46.191406 17.645089 -46.219308C17.600446 -46.247210 17.547433 -46.277902 17.486049 -46.311384C17.424665 -46.344866 17.363281 -46.369978 17.301897 -46.386719C17.240513 -46.403460 17.176339 -46.417411 17.109375 -46.428571C16.774554 -46.484375 16.506696 -46.467634 16.305804 -46.378348C16.104911 -46.289062 15.853795 -46.116071 15.552455 -45.859375C15.541295 -45.848214 15.491071 -45.800781 15.401786 -45.717076C15.312500 -45.633371 15.242746 -45.571987 15.192522 -45.532924C15.142299 -45.493862 15.058594 -45.438058 14.941406 -45.365513C14.824219 -45.292969 14.732143 -45.262277 14.665179 -45.273438C14.598214 -45.284598 14.503348 -45.301339 14.380580 -45.323661C13.777902 -45.625000 13.309152 -45.848214 12.974330 -45.993304C12.516741 -46.194196 11.992188 -46.166295 11.400670 -45.909598C10.809152 -45.652902 10.385045 -45.290179 10.128348 -44.821429C9.949777 -44.508929 9.720982 -43.959263 9.441964 -43.172433C9.162946 -42.385603 8.920201 -41.646205 8.713728 -40.954241C8.507254 -40.262277 8.284040 -39.514509 8.044085 -38.710938C7.804129 -37.907366 7.684152 -37.500000 7.684152 -37.488839C7.438616 -36.718750 7.541853 -36.054688 7.993862 -35.496652C8.445871 -34.938616 9.062500 -34.681920 9.843750 -34.726562C10.178571 -34.748884 10.460379 -34.832589 10.689174 -34.977679C10.917969 -35.122768 11.132812 -35.379464 11.333705 -35.747768C11.411830 -35.892857 11.852679 -37.006138 12.656250 -39.087612C13.459821 -41.169085 13.889509 -42.254464 13.945312 -42.343750C14.012277 -42.466518 14.132254 -42.566964 14.305246 -42.645089C14.478237 -42.723214 14.642857 -42.723214 14.799107 -42.645089C15.100446 -42.477679 15.217634 -42.181920 15.150670 -41.757812C15.128348 -41.556920 14.843750 -40.778460 14.296875 -39.422433C13.750000 -38.066406 13.470982 -37.327009 13.459821 -37.204241C13.392857 -36.780134 13.501674 -36.464844 13.786272 -36.258371C14.070871 -36.051897 14.408482 -36.012835 14.799107 -36.141183C15.189732 -36.269531 15.496652 -36.545759 15.719866 -36.969866C15.764509 -37.059152 16.018415 -37.572545 16.481585 -38.510045C16.944754 -39.447545 17.399554 -40.359933 17.845982 -41.247210C18.292411 -42.134487 18.549107 -42.628348 18.616071 -42.728795C18.839286 -43.052455 19.068080 -43.208705 19.302455 -43.197545C19.626116 -43.197545 19.765625 -42.985491 19.720982 -42.561384C19.698661 -42.382812 19.333147 -41.559710 18.624442 -40.092076C17.915737 -38.624442 17.522321 -37.734375 17.444196 -37.421875C17.310268 -36.830357 17.382812 -36.255580 17.661830 -35.697545C17.940848 -35.139509 18.353795 -34.726562 18.900670 -34.458705C19.090402 -34.358259 19.375000 -34.271763 19.754464 -34.199219C20.133929 -34.126674 20.532924 -34.082031 20.951451 -34.065290C21.369978 -34.048549 21.718750 -34.126674 21.997768 -34.299665C22.276786 -34.472656 22.388393 -34.743304 22.332589 -35.111607ZM6.411830 -31.495536C6.445312 -31.328125 6.417411 -31.174665 6.328125 -31.035156C6.238839 -30.895647 6.110491 -30.809152 5.943080 -30.775670C5.786830 -30.742187 5.638951 -30.770089 5.499442 -30.859375C5.359933 -30.948661 5.273438 -31.077009 5.239955 -31.244420C5.206473 -31.400670 5.234375 -31.551339 5.323661 -31.696429C5.412946 -31.841518 5.535714 -31.930804 5.691964 -31.964286C5.848214 -31.997768 5.998884 -31.969866 6.143973 -31.880580C6.289062 -31.791295 6.378348 -31.662946 6.411830 -31.495536ZM15.954241 -27.092634C16.088170 -26.902902 16.135603 -26.693638 16.096540 -26.464844C16.057478 -26.236049 15.943080 -26.054688 15.753348 -25.920759C15.563616 -25.786830 15.354353 -25.742188 15.125558 -25.786830C14.896763 -25.831473 14.715402 -25.948661 14.581473 -26.138393C14.458705 -26.328125 14.416853 -26.537388 14.455915 -26.766183C14.494978 -26.994978 14.609375 -27.176339 14.799107 -27.310268C14.988839 -27.444196 15.198103 -27.488839 15.426897 -27.444196C15.655692 -27.399554 15.831473 -27.282366 15.954241 -27.092634ZM2.963170 -40.686384C2.762277 -40.385045 2.486049 -40.200893 2.134487 -40.133929C1.782924 -40.066964 1.462054 -40.139509 1.171875 -40.351562C0.881696 -40.552455 0.703125 -40.831473 0.636161 -41.188616C0.569196 -41.545759 0.636161 -41.869420 0.837054 -42.159598C1.037946 -42.460938 1.314174 -42.645089 1.665737 -42.712054C2.017299 -42.779018 2.338170 -42.712054 2.628348 -42.511161C2.918527 -42.299107 3.097098 -42.017299 3.164062 -41.665737C3.231027 -41.314174 3.164062 -40.987723 2.963170 -40.686384ZM24.559152 -29.352679C24.771205 -29.040179 24.843750 -28.696987 24.776786 -28.323103C24.709821 -27.949219 24.520089 -27.656250 24.207589 -27.444196C23.895089 -27.232143 23.557478 -27.159598 23.194754 -27.226562C22.832031 -27.293527 22.544643 -27.483259 22.332589 -27.795759C22.120536 -28.108259 22.047991 -28.448661 22.114955 -28.816964C22.181920 -29.185268 22.366071 -29.481027 22.667411 -29.704241C22.979911 -29.916295 23.317522 -29.988839 23.680246 -29.921875C24.042969 -29.854911 24.335938 -29.665179 24.559152 -29.352679ZM26.434152 -39.464286C27.204241 -38.203125 27.441406 -36.838728 27.145647 -35.371094C26.849888 -33.903460 26.099330 -32.745536 24.893973 -31.897321C23.889509 -31.194196 22.779018 -30.859375 21.562500 -30.892857C21.339286 -30.000000 20.867746 -29.291295 20.147879 -28.766741C19.428013 -28.242187 18.627232 -27.993862 17.745536 -28.021763C16.863839 -28.049665 16.082589 -28.370536 15.401786 -28.984375C15.267857 -28.883929 15.195312 -28.828125 15.184152 -28.816964C14.034598 -28.024554 12.779018 -27.753906 11.417411 -28.005022C10.055804 -28.256138 8.978795 -28.962054 8.186384 -30.122768C7.628348 -30.937500 7.332589 -31.852679 7.299107 -32.868304C6.372768 -33.024554 5.577567 -33.417969 4.913504 -34.048549C4.249442 -34.679129 3.800223 -35.393415 3.565848 -36.191406C3.331473 -36.989397 3.320312 -37.837612 3.532366 -38.736049C3.744420 -39.634487 4.196429 -40.407366 4.888393 -41.054688C4.486607 -41.724330 4.274554 -42.438616 4.252232 -43.197545C4.229911 -43.956473 4.366629 -44.654018 4.662388 -45.290179C4.958147 -45.926339 5.401786 -46.476004 5.993304 -46.939174C6.584821 -47.402344 7.260045 -47.684152 8.018973 -47.784598C8.376116 -48.733259 8.928571 -49.559152 9.676339 -50.262277C10.424107 -50.965402 11.241629 -51.476004 12.128906 -51.794085C13.016183 -52.112165 13.953683 -52.207031 14.941406 -52.078683C15.929129 -51.950335 16.819196 -51.579241 17.611607 -50.965402C18.415179 -51.199777 19.196429 -51.297433 19.955357 -51.258371C20.714286 -51.219308 21.431362 -51.018415 22.106585 -50.655692C22.781808 -50.292969 23.364955 -49.846540 23.856027 -49.316406C24.347098 -48.786272 24.723772 -48.144531 24.986049 -47.391183C25.248326 -46.637835 25.345982 -45.853795 25.279018 -45.039062C25.859375 -44.860491 26.344866 -44.542411 26.735491 -44.084821C27.126116 -43.627232 27.380022 -43.130580 27.497210 -42.594866C27.614397 -42.059152 27.583705 -41.503906 27.405134 -40.929129C27.226562 -40.354353 26.902902 -39.866071 26.434152 -39.464286ZM7.617188 -50.513393C7.773438 -50.290179 7.826451 -50.041853 7.776228 -49.768415C7.726004 -49.494978 7.589286 -49.280134 7.366071 -49.123884C7.154018 -48.967634 6.911272 -48.914621 6.637835 -48.964844C6.364397 -49.015067 6.155134 -49.151786 6.010045 -49.375000C5.853795 -49.598214 5.800781 -49.846540 5.851004 -50.119978C5.901228 -50.393415 6.037946 -50.608259 6.261161 -50.764509C6.473214 -50.920759 6.715960 -50.973772 6.989397 -50.923549C7.262835 -50.873326 7.472098 -50.736607 7.617188 -50.513393ZM10.279018 -55.217634C10.323661 -55.039062 10.295759 -54.868862 10.195312 -54.707031C10.094866 -54.545201 9.949777 -54.441964 9.760045 -54.397321C9.570312 -54.352679 9.397321 -54.383371 9.241071 -54.489397C9.084821 -54.595424 8.984375 -54.743304 8.939732 -54.933036C8.906250 -55.122768 8.942522 -55.295759 9.048549 -55.452009C9.154576 -55.608259 9.296875 -55.708705 9.475446 -55.753348C9.665179 -55.797991 9.838170 -55.767299 9.994420 -55.661272C10.150670 -55.555246 10.245536 -55.407366 10.279018 -55.217634ZM30.133929 -39.347098C30.178571 -39.123884 30.142299 -38.917411 30.025112 -38.727679C29.907924 -38.537946 29.737723 -38.420759 29.514509 -38.376116C29.302455 -38.331473 29.101562 -38.367746 28.911830 -38.484933C28.722098 -38.602121 28.604911 -38.772321 28.560268 -38.995536C28.515625 -39.218750 28.551897 -39.425223 28.669085 -39.614955C28.786272 -39.804688 28.956473 -39.927455 29.179688 -39.983259C29.402902 -40.027902 29.606585 -39.986049 29.790737 -39.857701C29.974888 -39.729353 30.089286 -39.559152 30.133929 -39.347098ZM19.017857 -54.296875C19.196429 -53.995536 19.243862 -53.669085 19.160156 -53.317522C19.076451 -52.965960 18.878348 -52.700893 18.565848 -52.522321C18.264509 -52.343750 17.943638 -52.296317 17.603237 -52.380022C17.262835 -52.463728 17.003348 -52.656250 16.824777 -52.957589C16.646205 -53.270089 16.598772 -53.599330 16.682478 -53.945312C16.766183 -54.291295 16.958705 -54.559152 17.260045 -54.748884C17.561384 -54.938616 17.885045 -54.988839 18.231027 -54.899554C18.577009 -54.810268 18.839286 -54.609375 19.017857 -54.296875ZM31.506696 -43.314732C31.551339 -43.147321 31.529018 -42.993862 31.439732 -42.854353C31.350446 -42.714844 31.222098 -42.622768 31.054688 -42.578125C30.887277 -42.544643 30.733817 -42.575335 30.594308 -42.670201C30.454799 -42.765067 30.368304 -42.890625 30.334821 -43.046875C30.301339 -43.214286 30.329241 -43.370536 30.418527 -43.515625C30.507812 -43.660714 30.636161 -43.750000 30.803571 -43.783482C30.959821 -43.816964 31.107701 -43.789062 31.247210 -43.699777C31.386719 -43.610491 31.473214 -43.482143 31.506696 -43.314732ZM28.309152 -47.349330C28.476562 -47.103795 28.535156 -46.830357 28.484933 -46.529018C28.434710 -46.227679 28.286830 -45.987723 28.041295 -45.809152C27.795759 -45.641741 27.522321 -45.585938 27.220982 -45.641741C26.919643 -45.697545 26.685268 -45.848214 26.517857 -46.093750C26.350446 -46.339286 26.294643 -46.612723 26.350446 -46.914062C26.406250 -47.215402 26.556920 -47.455357 26.802455 -47.633929C27.047991 -47.812500 27.318638 -47.873884 27.614397 -47.818080C27.910156 -47.762277 28.141741 -47.606027 28.309152 -47.349330ZM28.309152 -47.349330"></path></svg>