<svg width="30.000000" height="25.848214" viewBox="0.000000 -49.486607 30.000000 25.848214" xmlns="http://www.w3.org/2000/svg"><path d="M0.753348 -23.922991C0.541295 -23.710938 0.362723 -23.638393 0.217634 -23.705357C0.072545 -23.772321 0.000000 -23.950893 0.000000 -24.241071L0.000000 -48.883929C0.000000 -49.174107 0.072545 -49.352679 0.217634 -49.419643C0.362723 -49.486607 0.541295 -49.414062 0.753348 -49.202009L12.639509 -37.315848C12.739955 -37.215402 12.812500 -37.109375 12.857143 -36.997768L12.857143 -48.883929C12.857143 -49.174107 12.929688 -49.352679 13.074777 -49.419643C13.219866 -49.486607 13.398438 -49.414062 13.610491 -49.202009L25.496652 -37.315848C25.597098 -37.215402 25.669643 -37.109375 25.714286 -36.997768L25.714286 -48.348214C25.714286 -48.638393 25.820312 -48.889509 26.032366 -49.101562C26.244420 -49.313616 26.495536 -49.419643 26.785714 -49.419643L28.928571 -49.419643C29.218750 -49.419643 29.469866 -49.313616 29.681920 -49.101562C29.893973 -48.889509 30.000000 -48.638393 30.000000 -48.348214L30.000000 -24.776786C30.000000 -24.486607 29.893973 -24.235491 29.681920 -24.023438C29.469866 -23.811384 29.218750 -23.705357 28.928571 -23.705357L26.785714 -23.705357C26.495536 -23.705357 26.244420 -23.811384 26.032366 -24.023438C25.820312 -24.235491 25.714286 -24.486607 25.714286 -24.776786L25.714286 -36.127232C25.669643 -36.015625 25.597098 -35.909598 25.496652 -35.809152L13.610491 -23.922991C13.398438 -23.710938 13.219866 -23.638393 13.074777 -23.705357C12.929688 -23.772321 12.857143 -23.950893 12.857143 -24.241071L12.857143 -36.127232C12.812500 -36.015625 12.739955 -35.909598 12.639509 -35.809152ZM0.753348 -23.922991"></path></svg>