<svg width="25.714286" height="30.000000" viewBox="0.000000 -55.714286 25.714286 30.000000" xmlns="http://www.w3.org/2000/svg"><path d="M24.575893 -47.745536C24.732143 -47.589286 24.888393 -47.388393 25.044643 -47.142857L17.142857 -47.142857L17.142857 -55.044643C17.388393 -54.888393 17.589286 -54.732143 17.745536 -54.575893ZM16.607143 -45.000000L25.714286 -45.000000L25.714286 -27.321429C25.714286 -26.875000 25.558036 -26.495536 25.245536 -26.183036C24.933036 -25.870536 24.553571 -25.714286 24.107143 -25.714286L1.607143 -25.714286C1.160714 -25.714286 0.781250 -25.870536 0.468750 -26.183036C0.156250 -26.495536 0.000000 -26.875000 0.000000 -27.321429L0.000000 -54.107143C0.000000 -54.553571 0.156250 -54.933036 0.468750 -55.245536C0.781250 -55.558036 1.160714 -55.714286 1.607143 -55.714286L15.000000 -55.714286L15.000000 -46.607143C15.000000 -46.160714 15.156250 -45.781250 15.468750 -45.468750C15.781250 -45.156250 16.160714 -45.000000 16.607143 -45.000000ZM19.285714 -32.678571L19.285714 -33.750000C19.285714 -33.906250 19.235491 -34.034598 19.135045 -34.135045C19.034598 -34.235491 18.906250 -34.285714 18.750000 -34.285714L6.964286 -34.285714C6.808036 -34.285714 6.679688 -34.235491 6.579241 -34.135045C6.478795 -34.034598 6.428571 -33.906250 6.428571 -33.750000L6.428571 -32.678571C6.428571 -32.522321 6.478795 -32.393973 6.579241 -32.293527C6.679688 -32.193080 6.808036 -32.142857 6.964286 -32.142857L18.750000 -32.142857C18.906250 -32.142857 19.034598 -32.193080 19.135045 -32.293527C19.235491 -32.393973 19.285714 -32.522321 19.285714 -32.678571ZM19.285714 -36.964286L19.285714 -38.035714C19.285714 -38.191964 19.235491 -38.320312 19.135045 -38.420759C19.034598 -38.521205 18.906250 -38.571429 18.750000 -38.571429L6.964286 -38.571429C6.808036 -38.571429 6.679688 -38.521205 6.579241 -38.420759C6.478795 -38.320312 6.428571 -38.191964 6.428571 -38.035714L6.428571 -36.964286C6.428571 -36.808036 6.478795 -36.679688 6.579241 -36.579241C6.679688 -36.478795 6.808036 -36.428571 6.964286 -36.428571L18.750000 -36.428571C18.906250 -36.428571 19.034598 -36.478795 19.135045 -36.579241C19.235491 -36.679688 19.285714 -36.808036 19.285714 -36.964286ZM19.285714 -41.250000L19.285714 -42.321429C19.285714 -42.477679 19.235491 -42.606027 19.135045 -42.706473C19.034598 -42.806920 18.906250 -42.857143 18.750000 -42.857143L6.964286 -42.857143C6.808036 -42.857143 6.679688 -42.806920 6.579241 -42.706473C6.478795 -42.606027 6.428571 -42.477679 6.428571 -42.321429L6.428571 -41.250000C6.428571 -41.093750 6.478795 -40.965402 6.579241 -40.864955C6.679688 -40.764509 6.808036 -40.714286 6.964286 -40.714286L18.750000 -40.714286C18.906250 -40.714286 19.034598 -40.764509 19.135045 -40.864955C19.235491 -40.965402 19.285714 -41.093750 19.285714 -41.250000ZM19.285714 -41.250000"></path></svg>