<svg width="25.714286" height="30.000000" viewBox="0.000000 -55.714286 25.714286 30.000000" xmlns="http://www.w3.org/2000/svg"><path d="M24.575893 -49.352679C24.888393 -49.040179 25.156250 -48.616071 25.379464 -48.080357C25.602679 -47.544643 25.714286 -47.053571 25.714286 -46.607143L25.714286 -27.321429C25.714286 -26.875000 25.558036 -26.495536 25.245536 -26.183036C24.933036 -25.870536 24.553571 -25.714286 24.107143 -25.714286L1.607143 -25.714286C1.160714 -25.714286 0.781250 -25.870536 0.468750 -26.183036C0.156250 -26.495536 0.000000 -26.875000 0.000000 -27.321429L0.000000 -54.107143C0.000000 -54.553571 0.156250 -54.933036 0.468750 -55.245536C0.781250 -55.558036 1.160714 -55.714286 1.607143 -55.714286L16.607143 -55.714286C17.053571 -55.714286 17.544643 -55.602679 18.080357 -55.379464C18.616071 -55.156250 19.040179 -54.888393 19.352679 -54.575893ZM17.142857 -53.437500L17.142857 -47.142857L23.437500 -47.142857C23.325893 -47.466518 23.203125 -47.695312 23.069196 -47.829241L17.829241 -53.069196C17.695312 -53.203125 17.466518 -53.325893 17.142857 -53.437500ZM23.571429 -27.857143L23.571429 -45.000000L16.607143 -45.000000C16.160714 -45.000000 15.781250 -45.156250 15.468750 -45.468750C15.156250 -45.781250 15.000000 -46.160714 15.000000 -46.607143L15.000000 -53.571429L2.142857 -53.571429L2.142857 -27.857143ZM23.571429 -27.857143"></path></svg>