<svg width="25.714286" height="30.000000" viewBox="0.000000 -55.714286 25.714286 30.000000" xmlns="http://www.w3.org/2000/svg"><path d="M24.575893 -49.352679C24.888393 -49.040179 25.156250 -48.616071 25.379464 -48.080357C25.602679 -47.544643 25.714286 -47.053571 25.714286 -46.607143L25.714286 -27.321429C25.714286 -26.875000 25.558036 -26.495536 25.245536 -26.183036C24.933036 -25.870536 24.553571 -25.714286 24.107143 -25.714286L1.607143 -25.714286C1.160714 -25.714286 0.781250 -25.870536 0.468750 -26.183036C0.156250 -26.495536 0.000000 -26.875000 0.000000 -27.321429L0.000000 -54.107143C0.000000 -54.553571 0.156250 -54.933036 0.468750 -55.245536C0.781250 -55.558036 1.160714 -55.714286 1.607143 -55.714286L16.607143 -55.714286C17.053571 -55.714286 17.544643 -55.602679 18.080357 -55.379464C18.616071 -55.156250 19.040179 -54.888393 19.352679 -54.575893ZM17.142857 -53.437500L17.142857 -47.142857L23.437500 -47.142857C23.325893 -47.466518 23.203125 -47.695312 23.069196 -47.829241L17.829241 -53.069196C17.695312 -53.203125 17.466518 -53.325893 17.142857 -53.437500ZM23.571429 -27.857143L23.571429 -45.000000L16.607143 -45.000000C16.160714 -45.000000 15.781250 -45.156250 15.468750 -45.468750C15.156250 -45.781250 15.000000 -46.160714 15.000000 -46.607143L15.000000 -53.571429L2.142857 -53.571429L2.142857 -27.857143ZM6.428571 -42.321429C6.428571 -42.477679 6.478795 -42.606027 6.579241 -42.706473C6.679688 -42.806920 6.808036 -42.857143 6.964286 -42.857143L18.750000 -42.857143C18.906250 -42.857143 19.034598 -42.806920 19.135045 -42.706473C19.235491 -42.606027 19.285714 -42.477679 19.285714 -42.321429L19.285714 -41.250000C19.285714 -41.093750 19.235491 -40.965402 19.135045 -40.864955C19.034598 -40.764509 18.906250 -40.714286 18.750000 -40.714286L6.964286 -40.714286C6.808036 -40.714286 6.679688 -40.764509 6.579241 -40.864955C6.478795 -40.965402 6.428571 -41.093750 6.428571 -41.250000ZM18.750000 -38.571429C18.906250 -38.571429 19.034598 -38.521205 19.135045 -38.420759C19.235491 -38.320312 19.285714 -38.191964 19.285714 -38.035714L19.285714 -36.964286C19.285714 -36.808036 19.235491 -36.679688 19.135045 -36.579241C19.034598 -36.478795 18.906250 -36.428571 18.750000 -36.428571L6.964286 -36.428571C6.808036 -36.428571 6.679688 -36.478795 6.579241 -36.579241C6.478795 -36.679688 6.428571 -36.808036 6.428571 -36.964286L6.428571 -38.035714C6.428571 -38.191964 6.478795 -38.320312 6.579241 -38.420759C6.679688 -38.521205 6.808036 -38.571429 6.964286 -38.571429ZM18.750000 -34.285714C18.906250 -34.285714 19.034598 -34.235491 19.135045 -34.135045C19.235491 -34.034598 19.285714 -33.906250 19.285714 -33.750000L19.285714 -32.678571C19.285714 -32.522321 19.235491 -32.393973 19.135045 -32.293527C19.034598 -32.193080 18.906250 -32.142857 18.750000 -32.142857L6.964286 -32.142857C6.808036 -32.142857 6.679688 -32.193080 6.579241 -32.293527C6.478795 -32.393973 6.428571 -32.522321 6.428571 -32.678571L6.428571 -33.750000C6.428571 -33.906250 6.478795 -34.034598 6.579241 -34.135045C6.679688 -34.235491 6.808036 -34.285714 6.964286 -34.285714ZM18.750000 -34.285714"></path></svg>