<svg width="25.714286" height="30.000000" viewBox="0.000000 -55.714286 25.714286 30.000000" xmlns="http://www.w3.org/2000/svg"><path d="M24.575893 -49.352679C24.888393 -49.040179 25.156250 -48.616071 25.379464 -48.080357C25.602679 -47.544643 25.714286 -47.053571 25.714286 -46.607143L25.714286 -27.321429C25.714286 -26.875000 25.558036 -26.495536 25.245536 -26.183036C24.933036 -25.870536 24.553571 -25.714286 24.107143 -25.714286L1.607143 -25.714286C1.160714 -25.714286 0.781250 -25.870536 0.468750 -26.183036C0.156250 -26.495536 0.000000 -26.875000 0.000000 -27.321429L0.000000 -54.107143C0.000000 -54.553571 0.156250 -54.933036 0.468750 -55.245536C0.781250 -55.558036 1.160714 -55.714286 1.607143 -55.714286L16.607143 -55.714286C17.053571 -55.714286 17.544643 -55.602679 18.080357 -55.379464C18.616071 -55.156250 19.040179 -54.888393 19.352679 -54.575893ZM17.142857 -53.437500L17.142857 -47.142857L23.437500 -47.142857C23.325893 -47.466518 23.203125 -47.695312 23.069196 -47.829241L17.829241 -53.069196C17.695312 -53.203125 17.466518 -53.325893 17.142857 -53.437500ZM23.571429 -27.857143L23.571429 -45.000000L16.607143 -45.000000C16.160714 -45.000000 15.781250 -45.156250 15.468750 -45.468750C15.156250 -45.781250 15.000000 -46.160714 15.000000 -46.607143L15.000000 -53.571429L2.142857 -53.571429L2.142857 -27.857143ZM10.379464 -41.484375C10.602679 -41.395089 10.714286 -41.227679 10.714286 -40.982143L10.714286 -31.875000C10.714286 -31.629464 10.602679 -31.462054 10.379464 -31.372768C10.290179 -31.350446 10.223214 -31.339286 10.178571 -31.339286C10.044643 -31.339286 9.916295 -31.389509 9.793527 -31.489955L7.014509 -34.285714L4.821429 -34.285714C4.665179 -34.285714 4.536830 -34.335938 4.436384 -34.436384C4.335938 -34.536830 4.285714 -34.665179 4.285714 -34.821429L4.285714 -38.035714C4.285714 -38.191964 4.335938 -38.320312 4.436384 -38.420759C4.536830 -38.521205 4.665179 -38.571429 4.821429 -38.571429L7.014509 -38.571429L9.793527 -41.367188C9.972098 -41.534598 10.167411 -41.573661 10.379464 -41.484375ZM17.360491 -29.949777C17.114955 -29.949777 16.891741 -30.033482 16.690848 -30.200893C16.456473 -30.379464 16.325335 -30.616629 16.297433 -30.912388C16.269531 -31.208147 16.350446 -31.473214 16.540179 -31.707589C17.656250 -33.080357 18.214286 -34.654018 18.214286 -36.428571C18.214286 -38.203125 17.656250 -39.776786 16.540179 -41.149554C16.350446 -41.383929 16.269531 -41.648996 16.297433 -41.944754C16.325335 -42.240513 16.456473 -42.483259 16.690848 -42.672991C16.914062 -42.862723 17.176339 -42.940848 17.477679 -42.907366C17.779018 -42.873884 18.018973 -42.739955 18.197545 -42.505580C19.637277 -40.731027 20.357143 -38.705357 20.357143 -36.428571C20.357143 -34.151786 19.637277 -32.126116 18.197545 -30.351562C17.985491 -30.083705 17.706473 -29.949777 17.360491 -29.949777ZM13.828125 -32.427455C13.560268 -32.427455 13.314732 -32.522321 13.091518 -32.712054C12.879464 -32.912946 12.767857 -33.161272 12.756696 -33.457031C12.745536 -33.752790 12.845982 -34.012277 13.058036 -34.235491C13.638393 -34.871652 13.928571 -35.602679 13.928571 -36.428571C13.928571 -37.254464 13.638393 -37.985491 13.058036 -38.621652C12.845982 -38.844866 12.745536 -39.104353 12.756696 -39.400112C12.767857 -39.695871 12.879464 -39.944196 13.091518 -40.145089C13.303571 -40.345982 13.560268 -40.440848 13.861607 -40.429688C14.162946 -40.418527 14.414062 -40.306920 14.614955 -40.094866C15.585937 -39.056920 16.071429 -37.834821 16.071429 -36.428571C16.071429 -35.022321 15.585937 -33.800223 14.614955 -32.762277C14.391741 -32.539062 14.129464 -32.427455 13.828125 -32.427455ZM13.828125 -32.427455"></path></svg>