<svg width="25.714286" height="30.000000" viewBox="0.000000 -55.714286 25.714286 30.000000" xmlns="http://www.w3.org/2000/svg"><path d="M24.575893 -49.352679C24.888393 -49.040179 25.156250 -48.616071 25.379464 -48.080357C25.602679 -47.544643 25.714286 -47.053571 25.714286 -46.607143L25.714286 -27.321429C25.714286 -26.875000 25.558036 -26.495536 25.245536 -26.183036C24.933036 -25.870536 24.553571 -25.714286 24.107143 -25.714286L1.607143 -25.714286C1.160714 -25.714286 0.781250 -25.870536 0.468750 -26.183036C0.156250 -26.495536 0.000000 -26.875000 0.000000 -27.321429L0.000000 -54.107143C0.000000 -54.553571 0.156250 -54.933036 0.468750 -55.245536C0.781250 -55.558036 1.160714 -55.714286 1.607143 -55.714286L16.607143 -55.714286C17.053571 -55.714286 17.544643 -55.602679 18.080357 -55.379464C18.616071 -55.156250 19.040179 -54.888393 19.352679 -54.575893ZM17.142857 -53.437500L17.142857 -47.142857L23.437500 -47.142857C23.325893 -47.466518 23.203125 -47.695312 23.069196 -47.829241L17.829241 -53.069196C17.695312 -53.203125 17.466518 -53.325893 17.142857 -53.437500ZM23.571429 -27.857143L23.571429 -45.000000L16.607143 -45.000000C16.160714 -45.000000 15.781250 -45.156250 15.468750 -45.468750C15.156250 -45.781250 15.000000 -46.160714 15.000000 -46.607143L15.000000 -53.571429L2.142857 -53.571429L2.142857 -27.857143ZM14.966518 -37.784598C15.334821 -37.494420 15.803571 -37.181920 16.372768 -36.847098C17.031250 -36.925223 17.684152 -36.964286 18.331473 -36.964286C19.972098 -36.964286 20.959821 -36.690848 21.294643 -36.143973C21.473214 -35.898438 21.484375 -35.608259 21.328125 -35.273438C21.328125 -35.262277 21.322545 -35.251116 21.311384 -35.239955C21.300223 -35.228795 21.289062 -35.217634 21.277902 -35.206473L21.277902 -35.189732C21.210938 -34.765625 20.814732 -34.553571 20.089286 -34.553571C19.553571 -34.553571 18.911830 -34.665179 18.164062 -34.888393C17.416295 -35.111607 16.690848 -35.407366 15.987723 -35.775670C13.521205 -35.507812 11.333705 -35.044643 9.425223 -34.386161C7.717634 -31.462054 6.367188 -30.000000 5.373884 -30.000000C5.206473 -30.000000 5.050223 -30.039062 4.905134 -30.117188L4.503348 -30.318080C4.492188 -30.329241 4.458705 -30.357143 4.402902 -30.401786C4.291295 -30.513393 4.257812 -30.714286 4.302455 -31.004464C4.402902 -31.450893 4.715402 -31.961496 5.239955 -32.536272C5.764509 -33.111049 6.501116 -33.649554 7.449777 -34.151786C7.606027 -34.252232 7.734375 -34.218750 7.834821 -34.051339C7.857143 -34.029018 7.868304 -34.006696 7.868304 -33.984375C8.448661 -34.933036 9.045759 -36.032366 9.659598 -37.282366C10.418527 -38.800223 10.998884 -40.262277 11.400670 -41.668527C11.132812 -42.583705 10.962612 -43.473772 10.890067 -44.338728C10.817522 -45.203683 10.853795 -45.915179 10.998884 -46.473214C11.121652 -46.919643 11.356027 -47.142857 11.702009 -47.142857L12.053571 -47.142857L12.070312 -47.142857C12.327009 -47.142857 12.522321 -47.059152 12.656250 -46.891741C12.857143 -46.657366 12.907366 -46.277902 12.806920 -45.753348C12.784598 -45.686384 12.762277 -45.641741 12.739955 -45.619420C12.751116 -45.585938 12.756696 -45.541295 12.756696 -45.485491L12.756696 -44.983259C12.734375 -43.610491 12.656250 -42.539062 12.522321 -41.768973C13.136161 -39.938616 13.950893 -38.610491 14.966518 -37.784598ZM5.323661 -30.904018C5.904018 -31.171875 6.668527 -32.053571 7.617188 -33.549107C7.047991 -33.102679 6.559710 -32.633929 6.152344 -32.142857C5.744978 -31.651786 5.468750 -31.238839 5.323661 -30.904018ZM11.986607 -46.305804C11.819196 -45.837054 11.808036 -45.100446 11.953125 -44.095982C11.964286 -44.174107 12.003348 -44.419643 12.070312 -44.832589C12.070312 -44.866071 12.109375 -45.106027 12.187500 -45.552455C12.198661 -45.597098 12.220982 -45.641741 12.254464 -45.686384C12.243304 -45.697545 12.237723 -45.708705 12.237723 -45.719866C12.226562 -45.742188 12.220982 -45.758929 12.220982 -45.770089C12.209821 -46.015625 12.137277 -46.216518 12.003348 -46.372768C12.003348 -46.361607 11.997768 -46.350446 11.986607 -46.339286ZM9.910714 -35.239955C11.417411 -35.842634 13.002232 -36.294643 14.665179 -36.595982C14.642857 -36.607143 14.570312 -36.660156 14.447545 -36.755022C14.324777 -36.849888 14.235491 -36.925223 14.179688 -36.981027C13.331473 -37.728795 12.622768 -38.710938 12.053571 -39.927455C11.752232 -38.967634 11.289062 -37.868304 10.664062 -36.629464C10.329241 -36.004464 10.078125 -35.541295 9.910714 -35.239955ZM20.725446 -35.507812C20.457589 -35.775670 19.676339 -35.909598 18.381696 -35.909598C19.229911 -35.597098 19.921875 -35.440848 20.457589 -35.440848C20.613839 -35.440848 20.714286 -35.446429 20.758929 -35.457589C20.758929 -35.468750 20.747768 -35.485491 20.725446 -35.507812ZM20.725446 -35.507812"></path></svg>