<svg width="28.928571" height="25.714286" viewBox="1.071429 -49.285714 28.928571 25.714286" xmlns="http://www.w3.org/2000/svg"><path d="M13.928571 -34.687500L13.928571 -37.901786C11.908482 -37.723214 9.765625 -37.070312 7.500000 -35.943080L7.500000 -32.845982C9.787946 -33.917411 11.930804 -34.531250 13.928571 -34.687500ZM13.928571 -41.685268L13.928571 -44.983259C12.008929 -44.893973 9.866071 -44.190848 7.500000 -42.873884L7.500000 -39.709821C9.899554 -40.948661 12.042411 -41.607143 13.928571 -41.685268ZM27.857143 -33.934152L27.857143 -37.014509C25.234375 -35.719866 23.091518 -35.323661 21.428571 -35.825893L21.428571 -39.575893C21.205357 -39.642857 20.987723 -39.726562 20.775670 -39.827009C20.719866 -39.860491 20.535714 -39.955357 20.223214 -40.111607C19.910714 -40.267857 19.718192 -40.362723 19.645647 -40.396205C19.573103 -40.429688 19.397321 -40.513393 19.118304 -40.647321C18.839286 -40.781250 18.646763 -40.867746 18.540737 -40.906808C18.434710 -40.945871 18.253348 -41.018415 17.996652 -41.124442C17.739955 -41.230469 17.539062 -41.300223 17.393973 -41.333705C17.248884 -41.367188 17.053571 -41.414621 16.808036 -41.476004C16.562500 -41.537388 16.342076 -41.579241 16.146763 -41.601562C15.951451 -41.623884 15.731027 -41.646205 15.485491 -41.668527C15.239955 -41.690848 14.994420 -41.702009 14.748884 -41.702009C14.492188 -41.702009 14.218750 -41.685268 13.928571 -41.651786L13.928571 -37.935268L14.246652 -37.935268C15.385045 -37.935268 16.459263 -37.773438 17.469308 -37.449777C18.479353 -37.126116 19.581473 -36.668527 20.775670 -36.077009C20.987723 -35.976562 21.205357 -35.892857 21.428571 -35.825893L21.428571 -32.678571C21.897321 -32.488839 22.405134 -32.393973 22.952009 -32.393973C24.291295 -32.393973 25.926339 -32.907366 27.857143 -33.934152ZM27.857143 -41.082589L27.857143 -44.246652C25.970982 -43.231027 24.263393 -42.723214 22.734375 -42.723214C22.232143 -42.723214 21.796875 -42.767857 21.428571 -42.857143L21.428571 -39.575893C23.080357 -39.107143 25.223214 -39.609375 27.857143 -41.082589ZM5.357143 -47.142857C5.357143 -46.752232 5.259487 -46.395089 5.064174 -46.071429C4.868862 -45.747768 4.609375 -45.491071 4.285714 -45.301339L4.285714 -24.107143C4.285714 -23.950893 4.235491 -23.822545 4.135045 -23.722098C4.034598 -23.621652 3.906250 -23.571429 3.750000 -23.571429L2.678571 -23.571429C2.522321 -23.571429 2.393973 -23.621652 2.293527 -23.722098C2.193080 -23.822545 2.142857 -23.950893 2.142857 -24.107143L2.142857 -45.301339C1.819196 -45.491071 1.559710 -45.747768 1.364397 -46.071429C1.169085 -46.395089 1.071429 -46.752232 1.071429 -47.142857C1.071429 -47.734375 1.280692 -48.239397 1.699219 -48.657924C2.117746 -49.076451 2.622768 -49.285714 3.214286 -49.285714C3.805804 -49.285714 4.310826 -49.076451 4.729353 -48.657924C5.147879 -48.239397 5.357143 -47.734375 5.357143 -47.142857ZM30.000000 -46.071429L30.000000 -33.297991C30.000000 -32.862723 29.804688 -32.544643 29.414062 -32.343750C29.302455 -32.287946 29.207589 -32.237723 29.129464 -32.193080C26.696429 -30.898437 24.637277 -30.251116 22.952009 -30.251116C21.969866 -30.251116 21.088170 -30.446429 20.306920 -30.837054L19.838170 -31.071429C19.123884 -31.439732 18.571429 -31.707589 18.180804 -31.875000C17.790179 -32.042411 17.282366 -32.204241 16.657366 -32.360491C16.032366 -32.516741 15.396205 -32.594866 14.748884 -32.594866C13.610491 -32.594866 12.296317 -32.349330 10.806362 -31.858259C9.316406 -31.367187 8.041295 -30.797991 6.981027 -30.150670C6.813616 -30.050223 6.629464 -30.000000 6.428571 -30.000000C6.250000 -30.000000 6.071429 -30.044643 5.892857 -30.133929C5.535714 -30.345982 5.357143 -30.658482 5.357143 -31.071429L5.357143 -43.493304C5.357143 -43.883929 5.530134 -44.190848 5.876116 -44.414062C6.266741 -44.648438 6.704799 -44.885603 7.190290 -45.125558C7.675781 -45.365513 8.311942 -45.655692 9.098772 -45.996094C9.885603 -46.336496 10.736607 -46.612723 11.651786 -46.824777C12.566964 -47.036830 13.431920 -47.142857 14.246652 -47.142857C15.496652 -47.142857 16.662946 -46.969866 17.745536 -46.623884C18.828125 -46.277902 19.994420 -45.797991 21.244420 -45.184152C21.668527 -44.972098 22.165179 -44.866071 22.734375 -44.866071C24.095982 -44.866071 25.825893 -45.491071 27.924107 -46.741071C28.169643 -46.875000 28.342634 -46.969866 28.443080 -47.025670C28.789062 -47.204241 29.135045 -47.193080 29.481027 -46.992188C29.827009 -46.768973 30.000000 -46.462054 30.000000 -46.071429ZM30.000000 -46.071429"></path></svg>