<svg width="28.928571" height="25.714286" viewBox="1.071429 -49.285714 28.928571 25.714286" xmlns="http://www.w3.org/2000/svg"><path d="M5.357143 -47.142857C5.357143 -46.339286 5.000000 -45.725446 4.285714 -45.301339L4.285714 -24.107143C4.285714 -23.962054 4.232701 -23.836496 4.126674 -23.730469C4.020647 -23.624442 3.895089 -23.571429 3.750000 -23.571429L2.678571 -23.571429C2.533482 -23.571429 2.407924 -23.624442 2.301897 -23.730469C2.195871 -23.836496 2.142857 -23.962054 2.142857 -24.107143L2.142857 -45.301339C1.428571 -45.725446 1.071429 -46.339286 1.071429 -47.142857C1.071429 -47.734375 1.280692 -48.239397 1.699219 -48.657924C2.117746 -49.076451 2.622768 -49.285714 3.214286 -49.285714C3.805804 -49.285714 4.310826 -49.076451 4.729353 -48.657924C5.147879 -48.239397 5.357143 -47.734375 5.357143 -47.142857ZM30.000000 -46.071429L30.000000 -33.297991C30.000000 -33.018973 29.930246 -32.804129 29.790737 -32.653460C29.651228 -32.502790 29.430804 -32.349330 29.129464 -32.193080C26.729911 -30.898437 24.670759 -30.251116 22.952009 -30.251116C22.271205 -30.251116 21.582031 -30.373884 20.884487 -30.619420C20.186942 -30.864955 19.581473 -31.132812 19.068080 -31.422991C18.554688 -31.713170 17.910156 -31.981027 17.134487 -32.226562C16.358817 -32.472098 15.563616 -32.594866 14.748884 -32.594866C12.606027 -32.594866 10.016741 -31.780134 6.981027 -30.150670C6.791295 -30.050223 6.607143 -30.000000 6.428571 -30.000000C6.138393 -30.000000 5.887277 -30.106027 5.675223 -30.318080C5.463170 -30.530134 5.357143 -30.781250 5.357143 -31.071429L5.357143 -43.493304C5.357143 -43.850446 5.530134 -44.157366 5.876116 -44.414062C6.110491 -44.570312 6.551339 -44.810268 7.198661 -45.133929C9.832589 -46.473214 12.181920 -47.142857 14.246652 -47.142857C15.440848 -47.142857 16.556920 -46.981027 17.594866 -46.657366C18.632812 -46.333705 19.854911 -45.842634 21.261161 -45.184152C21.685268 -44.972098 22.176339 -44.866071 22.734375 -44.866071C23.337054 -44.866071 23.992746 -44.983259 24.701451 -45.217634C25.410156 -45.452009 26.023996 -45.714286 26.542969 -46.004464C27.061942 -46.294643 27.553013 -46.556920 28.016183 -46.791295C28.479353 -47.025670 28.783482 -47.142857 28.928571 -47.142857C29.218750 -47.142857 29.469866 -47.036830 29.681920 -46.824777C29.893973 -46.612723 30.000000 -46.361607 30.000000 -46.071429ZM30.000000 -46.071429"></path></svg>