<svg width="31.958705" height="23.571429" viewBox="0.000000 -47.142857 31.958705 23.571429" xmlns="http://www.w3.org/2000/svg"><path d="M29.815848 -33.699777C29.815848 -34.090402 29.520089 -34.285714 28.928571 -34.285714L10.714286 -34.285714C10.267857 -34.285714 9.790737 -34.165737 9.282924 -33.925781C8.775112 -33.685826 8.376116 -33.392857 8.085938 -33.046875L3.164062 -26.969866C2.963170 -26.702009 2.862723 -26.478795 2.862723 -26.300223C2.862723 -25.909598 3.158482 -25.714286 3.750000 -25.714286L21.964286 -25.714286C22.410714 -25.714286 22.890625 -25.837054 23.404018 -26.082589C23.917411 -26.328125 24.313616 -26.623884 24.592634 -26.969866L29.514509 -33.046875C29.715402 -33.292411 29.815848 -33.510045 29.815848 -33.699777ZM10.714286 -36.428571L23.571429 -36.428571L23.571429 -39.107143C23.571429 -39.553571 23.415179 -39.933036 23.102679 -40.245536C22.790179 -40.558036 22.410714 -40.714286 21.964286 -40.714286L12.321429 -40.714286C11.875000 -40.714286 11.495536 -40.870536 11.183036 -41.183036C10.870536 -41.495536 10.714286 -41.875000 10.714286 -42.321429L10.714286 -43.392857C10.714286 -43.839286 10.558036 -44.218750 10.245536 -44.531250C9.933036 -44.843750 9.553571 -45.000000 9.107143 -45.000000L3.750000 -45.000000C3.303571 -45.000000 2.924107 -44.843750 2.611607 -44.531250C2.299107 -44.218750 2.142857 -43.839286 2.142857 -43.392857L2.142857 -29.112723L6.428571 -34.386161C6.919643 -34.977679 7.566964 -35.465960 8.370536 -35.851004C9.174107 -36.236049 9.955357 -36.428571 10.714286 -36.428571ZM31.958705 -33.699777C31.958705 -33.007812 31.702009 -32.338170 31.188616 -31.690848L26.250000 -25.613839C25.770089 -25.022321 25.122768 -24.534040 24.308036 -24.148996C23.493304 -23.763951 22.712054 -23.571429 21.964286 -23.571429L3.750000 -23.571429C2.723214 -23.571429 1.841518 -23.939732 1.104911 -24.676339C0.368304 -25.412946 0.000000 -26.294643 0.000000 -27.321429L0.000000 -43.392857C0.000000 -44.419643 0.368304 -45.301339 1.104911 -46.037946C1.841518 -46.774554 2.723214 -47.142857 3.750000 -47.142857L9.107143 -47.142857C10.133929 -47.142857 11.015625 -46.774554 11.752232 -46.037946C12.488839 -45.301339 12.857143 -44.419643 12.857143 -43.392857L12.857143 -42.857143L21.964286 -42.857143C22.991071 -42.857143 23.872768 -42.488839 24.609375 -41.752232C25.345982 -41.015625 25.714286 -40.133929 25.714286 -39.107143L25.714286 -36.428571L28.928571 -36.428571C29.531250 -36.428571 30.083705 -36.291853 30.585938 -36.018415C31.088170 -35.744978 31.462054 -35.351562 31.707589 -34.838170C31.875000 -34.481027 31.958705 -34.101562 31.958705 -33.699777ZM31.958705 -33.699777"></path></svg>