<svg width="27.857143" height="25.714286" viewBox="0.000000 -49.285714 27.857143 25.714286" xmlns="http://www.w3.org/2000/svg"><path d="M12.137277 -42.070312L9.291295 -34.536830C9.659598 -34.536830 10.421317 -34.525670 11.576451 -34.503348C12.731585 -34.481027 13.627232 -34.469866 14.263393 -34.469866C14.475446 -34.469866 14.793527 -34.481027 15.217634 -34.503348C14.246652 -37.327009 13.219866 -39.849330 12.137277 -42.070312ZM0.000000 -23.571429L0.033482 -24.893973C0.290179 -24.972098 0.602679 -25.041853 0.970982 -25.103237C1.339286 -25.164621 1.657366 -25.223214 1.925223 -25.279018C2.193080 -25.334821 2.469308 -25.415737 2.753906 -25.521763C3.038504 -25.627790 3.286830 -25.789621 3.498884 -26.007254C3.710938 -26.224888 3.883929 -26.506696 4.017857 -26.852679L7.985491 -37.165179L12.672991 -49.285714L13.928571 -49.285714L14.815848 -49.285714C14.905134 -49.129464 14.966518 -49.012277 15.000000 -48.934152L18.431920 -40.898438C18.800223 -40.027902 19.391741 -38.590960 20.206473 -36.587612C21.021205 -34.584263 21.657366 -33.052455 22.114955 -31.992187C22.282366 -31.612723 22.606027 -30.806362 23.085938 -29.573103C23.565848 -28.339844 23.967634 -27.399554 24.291295 -26.752232C24.514509 -26.250000 24.709821 -25.931920 24.877232 -25.797991C25.089286 -25.630580 25.580357 -25.465960 26.350446 -25.304129C27.120536 -25.142299 27.589286 -25.027902 27.756696 -24.960937C27.823661 -24.536830 27.857143 -24.218750 27.857143 -24.006696C27.857143 -23.950893 27.854353 -23.875558 27.848772 -23.780692C27.843192 -23.685826 27.840402 -23.616071 27.840402 -23.571429C27.137277 -23.571429 26.077009 -23.616071 24.659598 -23.705357C23.242188 -23.794643 22.176339 -23.839286 21.462054 -23.839286C20.613839 -23.839286 19.414062 -23.800223 17.862723 -23.722098C16.311384 -23.643973 15.318080 -23.599330 14.882812 -23.588170C14.882812 -24.068080 14.905134 -24.503348 14.949777 -24.893973L17.142857 -25.362723C17.154018 -25.362723 17.223772 -25.376674 17.352121 -25.404576C17.480469 -25.432478 17.566964 -25.452009 17.611607 -25.463170C17.656250 -25.474330 17.737165 -25.499442 17.854353 -25.538504C17.971540 -25.577567 18.055246 -25.613839 18.105469 -25.647321C18.155692 -25.680804 18.217076 -25.725446 18.289621 -25.781250C18.362165 -25.837054 18.412388 -25.898437 18.440290 -25.965402C18.468192 -26.032366 18.482143 -26.110491 18.482143 -26.199777C18.482143 -26.378348 18.309152 -26.916853 17.963170 -27.815290C17.617188 -28.713728 17.215402 -29.704241 16.757812 -30.786830C16.300223 -31.869420 16.065848 -32.427455 16.054688 -32.460938L8.521205 -32.494420C8.231027 -31.847098 7.804129 -30.756138 7.240513 -29.221540C6.676897 -27.686942 6.395089 -26.780134 6.395089 -26.501116C6.395089 -26.255580 6.473214 -26.046317 6.629464 -25.873326C6.785714 -25.700335 7.028460 -25.563616 7.357701 -25.463170C7.686942 -25.362723 7.957589 -25.287388 8.169643 -25.237165C8.381696 -25.186942 8.699777 -25.139509 9.123884 -25.094866C9.547991 -25.050223 9.776786 -25.027902 9.810268 -25.027902C9.821429 -24.815848 9.827009 -24.492187 9.827009 -24.056920C9.827009 -23.956473 9.815848 -23.805804 9.793527 -23.604911C9.146205 -23.604911 8.172433 -23.660714 6.872210 -23.772321C5.571987 -23.883929 4.598214 -23.939732 3.950893 -23.939732C3.861607 -23.939732 3.713728 -23.917411 3.507254 -23.872768C3.300781 -23.828125 3.180804 -23.805804 3.147321 -23.805804C2.254464 -23.649554 1.205357 -23.571429 0.000000 -23.571429ZM0.000000 -23.571429"></path></svg>