<svg width="25.714286" height="25.613839" viewBox="0.000000 -49.135045 25.714286 25.613839" xmlns="http://www.w3.org/2000/svg"><path d="M15.636161 -48.816964C12.098214 -47.466518 8.995536 -45.443638 6.328125 -42.748326C3.660714 -40.053013 1.662946 -36.925223 0.334821 -33.364955C0.111607 -34.358259 0.000000 -35.340402 0.000000 -36.311384C0.000000 -38.632812 0.571987 -40.778460 1.715960 -42.748326C2.859933 -44.718192 4.414062 -46.275112 6.378348 -47.419085C8.342634 -48.563058 10.485491 -49.135045 12.806920 -49.135045C13.722098 -49.135045 14.665179 -49.029018 15.636161 -48.816964ZM20.139509 -46.824777C21.177455 -46.099330 22.092634 -45.234375 22.885045 -44.229911C18.543527 -42.968750 14.779576 -40.733817 11.593192 -37.525112C8.406808 -34.316406 6.194196 -30.541295 4.955357 -26.199777C3.917411 -27.003348 3.052455 -27.907366 2.360491 -28.911830C3.610491 -33.219866 5.814732 -36.964286 8.973214 -40.145089C12.131696 -43.325893 15.853795 -45.552455 20.139509 -46.824777ZM7.868304 -24.492188C9.151786 -28.465402 11.269531 -31.936384 14.221540 -34.905134C17.173549 -37.873884 20.630580 -40.016741 24.592634 -41.333705C25.039062 -40.306920 25.340402 -39.218750 25.496652 -38.069196C22.237723 -36.729911 19.358259 -34.804688 16.858259 -32.293527C14.358259 -29.782366 12.444196 -26.891741 11.116071 -23.621652C9.966518 -23.777902 8.883929 -24.068080 7.868304 -24.492188ZM25.714286 -23.521205C23.560268 -24.079241 21.512277 -24.720982 19.570312 -25.446429C18.063616 -24.508929 16.445312 -23.911830 14.715402 -23.655134C15.931920 -25.943080 17.460938 -28.010603 19.302455 -29.857701C21.143973 -31.704799 23.203125 -33.242188 25.479911 -34.469866C25.245536 -32.773438 24.681920 -31.188616 23.789062 -29.715402C24.514509 -27.762277 25.156250 -25.697545 25.714286 -23.521205ZM25.714286 -23.521205"></path></svg>