<svg width="20.050223" height="27.887835" viewBox="0.736607 -53.602121 20.050223 27.887835" xmlns="http://www.w3.org/2000/svg"><path d="M16.741071 -46.336496L17.360491 -49.584263C17.416295 -49.840960 17.366071 -50.064174 17.209821 -50.253906C17.053571 -50.443638 16.858259 -50.538504 16.623884 -50.538504L4.704241 -50.538504C4.447545 -50.538504 4.232701 -50.443638 4.059710 -50.253906C3.886719 -50.064174 3.800223 -49.857701 3.800223 -49.634487L3.800223 -31.202567C3.800223 -31.124442 3.833705 -31.118862 3.900670 -31.185826L8.772321 -37.078683C9.029018 -37.368862 9.241071 -37.555804 9.408482 -37.639509C9.575893 -37.723214 9.843750 -37.765067 10.212054 -37.765067L14.213170 -37.765067C14.458705 -37.765067 14.665179 -37.845982 14.832589 -38.007812C15.000000 -38.169643 15.100446 -38.334263 15.133929 -38.501674C15.401786 -39.952567 15.608259 -41.018415 15.753348 -41.699219C15.797991 -41.933594 15.733817 -42.156808 15.560826 -42.368862C15.387835 -42.580915 15.184152 -42.686942 14.949777 -42.686942L10.027902 -42.686942C9.704241 -42.686942 9.436384 -42.792969 9.224330 -43.005022C9.012277 -43.217076 8.906250 -43.484933 8.906250 -43.808594L8.906250 -44.511719C8.906250 -44.835379 9.012277 -45.100446 9.224330 -45.306920C9.436384 -45.513393 9.704241 -45.616629 10.027902 -45.616629L15.820312 -45.616629C16.021205 -45.616629 16.216518 -45.691964 16.406250 -45.842634C16.595982 -45.993304 16.707589 -46.157924 16.741071 -46.336496ZM20.541295 -50.053013C20.373884 -49.238281 20.075335 -47.751116 19.645647 -45.591518C19.215960 -43.431920 18.828125 -41.478795 18.482143 -39.732143C18.136161 -37.985491 17.940848 -37.017299 17.896205 -36.827567C17.829241 -36.582031 17.779018 -36.400670 17.745536 -36.283482C17.712054 -36.166295 17.633929 -35.984933 17.511161 -35.739397C17.388393 -35.493862 17.251674 -35.309710 17.101004 -35.186942C16.950335 -35.064174 16.735491 -34.946987 16.456473 -34.835379C16.177455 -34.723772 15.853795 -34.667969 15.485491 -34.667969L10.948661 -34.667969C10.803571 -34.667969 10.680804 -34.612165 10.580357 -34.500558C10.491071 -34.400112 8.113839 -31.643415 3.448661 -26.230469C3.203125 -25.951451 2.876674 -25.792411 2.469308 -25.753348C2.061942 -25.714286 1.791295 -25.744978 1.657366 -25.845424C1.043527 -26.090960 0.736607 -26.637835 0.736607 -27.486049L0.736607 -51.090960C0.736607 -51.704799 0.948661 -52.276786 1.372768 -52.806920C1.796875 -53.337054 2.466518 -53.602121 3.381696 -53.602121L18.247768 -53.602121C19.308036 -53.602121 20.016741 -53.306362 20.373884 -52.714844C20.731027 -52.123326 20.786830 -51.236049 20.541295 -50.053013ZM20.541295 -50.053013C20.373884 -49.238281 20.075335 -47.751116 19.645647 -45.591518C19.215960 -43.431920 18.828125 -41.478795 18.482143 -39.732143C18.136161 -37.985491 17.940848 -37.017299 17.896205 -36.827567L20.541295 -50.053013ZM20.541295 -50.053013"></path></svg>