<svg width="25.714286" height="25.714286" viewBox="0.000000 -49.285714 25.714286 25.714286" xmlns="http://www.w3.org/2000/svg"><path d="M17.142857 -36.428571C17.142857 -37.611607 16.724330 -38.621652 15.887277 -39.458705C15.050223 -40.295759 14.040179 -40.714286 12.857143 -40.714286C11.674107 -40.714286 10.664062 -40.295759 9.827009 -39.458705C8.989955 -38.621652 8.571429 -37.611607 8.571429 -36.428571C8.571429 -35.245536 8.989955 -34.235491 9.827009 -33.398438C10.664062 -32.561384 11.674107 -32.142857 12.857143 -32.142857C14.040179 -32.142857 15.050223 -32.561384 15.887277 -33.398438C16.724330 -34.235491 17.142857 -35.245536 17.142857 -36.428571ZM25.714286 -38.253348L25.714286 -34.536830C25.714286 -34.402902 25.669643 -34.274554 25.580357 -34.151786C25.491071 -34.029018 25.379464 -33.956473 25.245536 -33.934152L22.148438 -33.465402C21.936384 -32.862723 21.718750 -32.354911 21.495536 -31.941964C21.886161 -31.383929 22.483259 -30.613839 23.286830 -29.631696C23.398438 -29.497768 23.454241 -29.358259 23.454241 -29.213170C23.454241 -29.068080 23.404018 -28.939732 23.303571 -28.828125C23.002232 -28.415179 22.449777 -27.812500 21.646205 -27.020089C20.842634 -26.227679 20.318080 -25.831473 20.072545 -25.831473C19.938616 -25.831473 19.793527 -25.881696 19.637277 -25.982143L17.327009 -27.790179C16.835938 -27.533482 16.328125 -27.321429 15.803571 -27.154018C15.625000 -25.636161 15.463170 -24.598214 15.318080 -24.040179C15.239955 -23.727679 15.039062 -23.571429 14.715402 -23.571429L10.998884 -23.571429C10.842634 -23.571429 10.705915 -23.618862 10.588728 -23.713728C10.471540 -23.808594 10.407366 -23.928571 10.396205 -24.073661L9.927455 -27.154018C9.380580 -27.332589 8.878348 -27.539062 8.420759 -27.773437L6.060268 -25.982143C5.948661 -25.881696 5.809152 -25.831473 5.641741 -25.831473C5.485491 -25.831473 5.345982 -25.892857 5.223214 -26.015625C3.816964 -27.287946 2.896205 -28.225446 2.460938 -28.828125C2.382812 -28.939732 2.343750 -29.068080 2.343750 -29.213170C2.343750 -29.347098 2.388393 -29.475446 2.477679 -29.598214C2.645089 -29.832589 2.929688 -30.203683 3.331473 -30.711496C3.733259 -31.219308 4.034598 -31.612723 4.235491 -31.891741C3.934152 -32.449777 3.705357 -33.002232 3.549107 -33.549107L0.485491 -34.001116C0.340402 -34.023438 0.223214 -34.093192 0.133929 -34.210379C0.044643 -34.327567 0.000000 -34.458705 0.000000 -34.603795L0.000000 -38.320312C0.000000 -38.454241 0.044643 -38.582589 0.133929 -38.705357C0.223214 -38.828125 0.329241 -38.900670 0.452009 -38.922991L3.565848 -39.391741C3.722098 -39.905134 3.939732 -40.418527 4.218750 -40.931920C3.772321 -41.568080 3.175223 -42.338170 2.427455 -43.242188C2.315848 -43.376116 2.260045 -43.510045 2.260045 -43.643973C2.260045 -43.755580 2.310268 -43.883929 2.410714 -44.029018C2.700893 -44.430804 3.250558 -45.030692 4.059710 -45.828683C4.868862 -46.626674 5.396205 -47.025670 5.641741 -47.025670C5.786830 -47.025670 5.931920 -46.969866 6.077009 -46.858259L8.387277 -45.066964C8.878348 -45.323661 9.386161 -45.535714 9.910714 -45.703125C10.089286 -47.220982 10.251116 -48.258929 10.396205 -48.816964C10.474330 -49.129464 10.675223 -49.285714 10.998884 -49.285714L14.715402 -49.285714C14.871652 -49.285714 15.008371 -49.238281 15.125558 -49.143415C15.242746 -49.048549 15.306920 -48.928571 15.318080 -48.783482L15.786830 -45.703125C16.333705 -45.524554 16.835938 -45.318080 17.293527 -45.083705L19.670759 -46.875000C19.771205 -46.975446 19.905134 -47.025670 20.072545 -47.025670C20.217634 -47.025670 20.357143 -46.969866 20.491071 -46.858259C21.930804 -45.530134 22.851562 -44.581473 23.253348 -44.012277C23.331473 -43.922991 23.370536 -43.800223 23.370536 -43.643973C23.370536 -43.510045 23.325893 -43.381696 23.236607 -43.258929C23.069196 -43.024554 22.784598 -42.653460 22.382812 -42.145647C21.981027 -41.637835 21.679688 -41.244420 21.478795 -40.965402C21.768973 -40.407366 21.997768 -39.860491 22.165179 -39.324777L25.228795 -38.856027C25.373884 -38.833705 25.491071 -38.763951 25.580357 -38.646763C25.669643 -38.529576 25.714286 -38.398438 25.714286 -38.253348ZM25.714286 -38.253348"></path></svg>