<svg width="25.714286" height="25.117188" viewBox="0.000000 -48.688616 25.714286 25.117188" xmlns="http://www.w3.org/2000/svg"><path d="M12.857143 -48.688616C10.524554 -48.688616 8.373326 -48.113839 6.403460 -46.964286C4.433594 -45.814732 2.873884 -44.255022 1.724330 -42.285156C0.574777 -40.315290 0.000000 -38.164062 0.000000 -35.831473C0.000000 -33.030134 0.817522 -30.510603 2.452567 -28.272879C4.087612 -26.035156 6.199777 -24.486607 8.789062 -23.627232C9.090402 -23.571429 9.313616 -23.610491 9.458705 -23.744420C9.603795 -23.878348 9.676339 -24.045759 9.676339 -24.246652C9.676339 -24.291295 9.673549 -24.595424 9.667969 -25.159040C9.662388 -25.722656 9.659598 -26.216518 9.659598 -26.640625L9.274554 -26.573661C9.029018 -26.529018 8.719308 -26.509487 8.345424 -26.515067C7.971540 -26.520647 7.583705 -26.559710 7.181920 -26.632254C6.780134 -26.704799 6.406250 -26.872210 6.060268 -27.134487C5.714286 -27.396763 5.468750 -27.739955 5.323661 -28.164062L5.156250 -28.549107C5.044643 -28.805804 4.868862 -29.090402 4.628906 -29.402902C4.388951 -29.715402 4.146205 -29.927455 3.900670 -30.039062L3.783482 -30.122768C3.705357 -30.178571 3.632812 -30.245536 3.565848 -30.323661C3.498884 -30.401786 3.448661 -30.479911 3.415179 -30.558036C3.381696 -30.636161 3.409598 -30.700335 3.498884 -30.750558C3.588170 -30.800781 3.750000 -30.825893 3.984375 -30.825893L4.319196 -30.775670C4.542411 -30.731027 4.818638 -30.597098 5.147879 -30.373884C5.477121 -30.150670 5.747768 -29.860491 5.959821 -29.503348C6.216518 -29.045759 6.526228 -28.696987 6.888951 -28.457031C7.251674 -28.217076 7.617188 -28.097098 7.985491 -28.097098C8.353795 -28.097098 8.671875 -28.125000 8.939732 -28.180804C9.207589 -28.236607 9.458705 -28.320312 9.693080 -28.431920C9.804688 -29.179687 10.078125 -29.754464 10.513393 -30.156250C9.877232 -30.223214 9.305246 -30.323661 8.797433 -30.457589C8.289621 -30.591518 7.765067 -30.809152 7.223772 -31.110491C6.682478 -31.411830 6.233259 -31.785714 5.876116 -32.232143C5.518973 -32.678571 5.226004 -33.264509 4.997210 -33.989955C4.768415 -34.715402 4.654018 -35.552455 4.654018 -36.501116C4.654018 -37.829241 5.094866 -38.978795 5.976562 -39.949777C5.563616 -40.965402 5.608259 -42.103795 6.110491 -43.364955C6.422991 -43.465402 6.897321 -43.390067 7.533482 -43.138951C8.169643 -42.887835 8.635603 -42.672991 8.931362 -42.494420C9.227121 -42.315848 9.464286 -42.165179 9.642857 -42.042411C10.680804 -42.332589 11.752232 -42.477679 12.857143 -42.477679C13.962054 -42.477679 15.033482 -42.332589 16.071429 -42.042411L16.707589 -42.444196C17.142857 -42.712054 17.656250 -42.957589 18.247768 -43.180804C18.839286 -43.404018 19.291295 -43.465402 19.603795 -43.364955C20.106027 -42.103795 20.150670 -40.965402 19.737723 -39.949777C20.619420 -38.978795 21.060268 -37.829241 21.060268 -36.501116C21.060268 -35.552455 20.945871 -34.712612 20.717076 -33.981585C20.488281 -33.250558 20.192522 -32.664621 19.829799 -32.223772C19.467076 -31.782924 19.015067 -31.411830 18.473772 -31.110491C17.932478 -30.809152 17.407924 -30.591518 16.900112 -30.457589C16.392299 -30.323661 15.820312 -30.223214 15.184152 -30.156250C15.764509 -29.654018 16.054688 -28.861607 16.054688 -27.779018C16.054688 -27.098214 16.051897 -26.347656 16.046317 -25.527344C16.040737 -24.707031 16.037946 -24.280134 16.037946 -24.246652C16.037946 -24.045759 16.110491 -23.878348 16.255580 -23.744420C16.400670 -23.610491 16.623884 -23.571429 16.925223 -23.627232C19.514509 -24.486607 21.626674 -26.035156 23.261719 -28.272879C24.896763 -30.510603 25.714286 -33.030134 25.714286 -35.831473C25.714286 -38.164062 25.139509 -40.315290 23.989955 -42.285156C22.840402 -44.255022 21.280692 -45.814732 19.310826 -46.964286C17.340960 -48.113839 15.189732 -48.688616 12.857143 -48.688616ZM4.871652 -30.223214C4.905134 -30.301339 4.866071 -30.368304 4.754464 -30.424107C4.642857 -30.457589 4.570312 -30.446429 4.536830 -30.390625C4.503348 -30.312500 4.542411 -30.245536 4.654018 -30.189732C4.754464 -30.122768 4.827009 -30.133929 4.871652 -30.223214ZM5.390625 -29.654018C5.468750 -29.709821 5.457589 -29.799107 5.357143 -29.921875C5.245536 -30.022321 5.156250 -30.039062 5.089286 -29.972098C5.011161 -29.916295 5.022321 -29.827009 5.122768 -29.704241C5.234375 -29.592634 5.323661 -29.575893 5.390625 -29.654018ZM5.892857 -28.900670C5.993304 -28.978795 5.993304 -29.084821 5.892857 -29.218750C5.803571 -29.363839 5.708705 -29.397321 5.608259 -29.319196C5.507812 -29.263393 5.507812 -29.162946 5.608259 -29.017857C5.708705 -28.872768 5.803571 -28.833705 5.892857 -28.900670ZM6.595982 -28.197545C6.685268 -28.286830 6.662946 -28.392857 6.529018 -28.515625C6.395089 -28.649554 6.283482 -28.666295 6.194196 -28.565848C6.093750 -28.476562 6.116071 -28.370536 6.261161 -28.247768C6.395089 -28.113839 6.506696 -28.097098 6.595982 -28.197545ZM7.550223 -27.779018C7.583705 -27.901786 7.511161 -27.991071 7.332589 -28.046875C7.165179 -28.091518 7.059152 -28.052455 7.014509 -27.929687C6.969866 -27.806920 7.042411 -27.723214 7.232143 -27.678571C7.399554 -27.611607 7.505580 -27.645089 7.550223 -27.779018ZM8.604911 -27.695312C8.604911 -27.840402 8.510045 -27.901786 8.320312 -27.879464C8.141741 -27.879464 8.052455 -27.818080 8.052455 -27.695312C8.052455 -27.550223 8.147321 -27.488839 8.337054 -27.511161C8.515625 -27.511161 8.604911 -27.572545 8.604911 -27.695312ZM9.575893 -27.862723C9.553571 -27.985491 9.453125 -28.035714 9.274554 -28.013393C9.095982 -27.979911 9.017857 -27.896205 9.040179 -27.762277C9.062500 -27.628348 9.162946 -27.583705 9.341518 -27.628348C9.520089 -27.672991 9.598214 -27.751116 9.575893 -27.862723ZM9.575893 -27.862723"></path></svg>