<svg width="38.571429" height="24.542411" viewBox="0.000000 -47.527902 38.571429 24.542411" xmlns="http://www.w3.org/2000/svg"><path d="M24.056920 -34.972098C24.056920 -32.650670 23.571429 -30.583147 22.600446 -28.769531C21.629464 -26.955915 20.245536 -25.538504 18.448661 -24.517299C16.651786 -23.496094 14.592634 -22.985491 12.271205 -22.985491C10.608259 -22.985491 9.017857 -23.309152 7.500000 -23.956473C5.982143 -24.603795 4.676339 -25.474330 3.582589 -26.568080C2.488839 -27.661830 1.618304 -28.967634 0.970982 -30.485491C0.323661 -32.003348 0.000000 -33.593750 0.000000 -35.256696C0.000000 -36.919643 0.323661 -38.510045 0.970982 -40.027902C1.618304 -41.545759 2.488839 -42.851562 3.582589 -43.945312C4.676339 -45.039062 5.982143 -45.909598 7.500000 -46.556920C9.017857 -47.204241 10.608259 -47.527902 12.271205 -47.527902C15.463170 -47.527902 18.203125 -46.456473 20.491071 -44.313616L17.159598 -41.116071C15.853795 -42.377232 14.224330 -43.007812 12.271205 -43.007812C10.898438 -43.007812 9.628906 -42.661830 8.462612 -41.969866C7.296317 -41.277902 6.372768 -40.337612 5.691964 -39.148996C5.011161 -37.960379 4.670759 -36.662946 4.670759 -35.256696C4.670759 -33.850446 5.011161 -32.553013 5.691964 -31.364397C6.372768 -30.175781 7.296317 -29.235491 8.462612 -28.543527C9.628906 -27.851562 10.898438 -27.505580 12.271205 -27.505580C13.197545 -27.505580 14.048549 -27.633929 14.824219 -27.890625C15.599888 -28.147321 16.238839 -28.468192 16.741071 -28.853237C17.243304 -29.238281 17.681362 -29.676339 18.055246 -30.167411C18.429129 -30.658482 18.702567 -31.121652 18.875558 -31.556920C19.048549 -31.992187 19.168527 -32.405134 19.235491 -32.795759L12.271205 -32.795759L12.271205 -37.014509L23.856027 -37.014509C23.989955 -36.311384 24.056920 -35.630580 24.056920 -34.972098ZM38.571429 -37.014509L38.571429 -33.498884L35.072545 -33.498884L35.072545 -30.000000L31.556920 -30.000000L31.556920 -33.498884L28.058036 -33.498884L28.058036 -37.014509L31.556920 -37.014509L31.556920 -40.513393L35.072545 -40.513393L35.072545 -37.014509ZM38.571429 -37.014509"></path></svg>