<svg width="25.714286" height="30.000000" viewBox="0.000000 -55.714286 25.714286 30.000000" xmlns="http://www.w3.org/2000/svg"><path d="M21.428571 -28.928571C21.428571 -29.218750 21.322545 -29.469866 21.110491 -29.681920C20.898438 -29.893973 20.647321 -30.000000 20.357143 -30.000000C20.066964 -30.000000 19.815848 -29.893973 19.603795 -29.681920C19.391741 -29.469866 19.285714 -29.218750 19.285714 -28.928571C19.285714 -28.638393 19.391741 -28.387277 19.603795 -28.175223C19.815848 -27.963170 20.066964 -27.857143 20.357143 -27.857143C20.647321 -27.857143 20.898438 -27.963170 21.110491 -28.175223C21.322545 -28.387277 21.428571 -28.638393 21.428571 -28.928571ZM23.571429 -41.718750C23.571429 -43.828125 22.639509 -44.882812 20.775670 -44.882812C20.485491 -44.882812 20.172991 -44.854911 19.838170 -44.799107C19.659598 -45.133929 19.366629 -45.398996 18.959263 -45.594308C18.551897 -45.789621 18.141741 -45.887277 17.728795 -45.887277C17.315848 -45.887277 16.930804 -45.786830 16.573661 -45.585938C16.015625 -46.177455 15.351562 -46.473214 14.581473 -46.473214C14.302455 -46.473214 13.992746 -46.417411 13.652344 -46.305804C13.311942 -46.194196 13.046875 -46.054688 12.857143 -45.887277L12.857143 -51.428571C12.857143 -52.008929 12.645089 -52.511161 12.220982 -52.935268C11.796875 -53.359375 11.294643 -53.571429 10.714286 -53.571429C10.145089 -53.571429 9.645647 -53.353795 9.215960 -52.918527C8.786272 -52.483259 8.571429 -51.986607 8.571429 -51.428571L8.571429 -41.785714C8.348214 -41.785714 8.077567 -41.869420 7.759487 -42.036830C7.441406 -42.204241 7.134487 -42.388393 6.838728 -42.589286C6.542969 -42.790179 6.163504 -42.974330 5.700335 -43.141741C5.237165 -43.309152 4.765625 -43.392857 4.285714 -43.392857C3.537946 -43.392857 2.993862 -43.144531 2.653460 -42.647879C2.313058 -42.151228 2.142857 -41.506696 2.142857 -40.714286C2.142857 -40.446429 2.918527 -39.944196 4.469866 -39.207589C4.960938 -38.939732 5.323661 -38.733259 5.558036 -38.588170C6.272321 -38.141741 7.081473 -37.516741 7.985491 -36.713170C8.889509 -35.920759 9.481027 -35.357143 9.760045 -35.022321C10.396205 -34.252232 10.714286 -33.470982 10.714286 -32.678571L10.714286 -32.142857L21.428571 -32.142857L21.428571 -32.678571C21.428571 -33.482143 21.607143 -34.414062 21.964286 -35.474330C22.321429 -36.534598 22.678571 -37.614397 23.035714 -38.713728C23.392857 -39.813058 23.571429 -40.814732 23.571429 -41.718750ZM25.714286 -41.802455C25.714286 -40.318080 25.329241 -38.521205 24.559152 -36.411830C23.900670 -34.581473 23.571429 -33.337054 23.571429 -32.678571L23.571429 -27.857143C23.571429 -27.265625 23.362165 -26.760603 22.943638 -26.342076C22.525112 -25.923549 22.020089 -25.714286 21.428571 -25.714286L10.714286 -25.714286C10.122768 -25.714286 9.617746 -25.923549 9.199219 -26.342076C8.780692 -26.760603 8.571429 -27.265625 8.571429 -27.857143L8.571429 -32.678571C8.571429 -32.790179 8.546317 -32.910156 8.496094 -33.038504C8.445871 -33.166853 8.367746 -33.297991 8.261719 -33.431920C8.155692 -33.565848 8.055246 -33.691406 7.960379 -33.808594C7.865513 -33.925781 7.739955 -34.059710 7.583705 -34.210379C7.427455 -34.361049 7.307478 -34.475446 7.223772 -34.553571C7.140067 -34.631696 7.020089 -34.737723 6.863839 -34.871652C6.707589 -35.005580 6.612723 -35.083705 6.579241 -35.106027C5.753348 -35.831473 5.033482 -36.389509 4.419643 -36.780134C4.185268 -36.925223 3.839286 -37.109375 3.381696 -37.332589C2.924107 -37.555804 2.522321 -37.762277 2.176339 -37.952009C1.830357 -38.141741 1.478795 -38.367746 1.121652 -38.630022C0.764509 -38.892299 0.488281 -39.199219 0.292969 -39.550781C0.097656 -39.902344 0.000000 -40.290179 0.000000 -40.714286C0.000000 -42.109375 0.373884 -43.261719 1.121652 -44.171317C1.869420 -45.080915 2.924107 -45.535714 4.285714 -45.535714C5.044643 -45.535714 5.758929 -45.412946 6.428571 -45.167411L6.428571 -51.428571C6.428571 -52.589286 6.852679 -53.593750 7.700893 -54.441964C8.549107 -55.290179 9.547991 -55.714286 10.697545 -55.714286C11.869420 -55.714286 12.879464 -55.292969 13.727679 -54.450335C14.575893 -53.607701 15.000000 -52.600446 15.000000 -51.428571L15.000000 -48.599330C15.691964 -48.554688 16.356027 -48.348214 16.992188 -47.979911C17.226562 -48.013393 17.466518 -48.030134 17.712054 -48.030134C18.839286 -48.030134 19.832589 -47.695312 20.691964 -47.025670C22.243304 -47.036830 23.468192 -46.562500 24.366629 -45.602679C25.265067 -44.642857 25.714286 -43.376116 25.714286 -41.802455ZM25.714286 -41.802455"></path></svg>