<svg width="25.714286" height="21.428571" viewBox="0.000000 -42.857143 25.714286 21.428571" xmlns="http://www.w3.org/2000/svg"><path d="M17.410714 -26.785714C17.410714 -26.417411 17.279576 -26.102121 17.017299 -25.839844C16.755022 -25.577567 16.439732 -25.446429 16.071429 -25.446429C15.703125 -25.446429 15.387835 -25.577567 15.125558 -25.839844C14.863281 -26.102121 14.732143 -26.417411 14.732143 -26.785714C14.732143 -27.154018 14.863281 -27.469308 15.125558 -27.731585C15.387835 -27.993862 15.703125 -28.125000 16.071429 -28.125000C16.439732 -28.125000 16.755022 -27.993862 17.017299 -27.731585C17.279576 -27.469308 17.410714 -27.154018 17.410714 -26.785714ZM21.696429 -26.785714C21.696429 -26.417411 21.565290 -26.102121 21.303013 -25.839844C21.040737 -25.577567 20.725446 -25.446429 20.357143 -25.446429C19.988839 -25.446429 19.673549 -25.577567 19.411272 -25.839844C19.148996 -26.102121 19.017857 -26.417411 19.017857 -26.785714C19.017857 -27.154018 19.148996 -27.469308 19.411272 -27.731585C19.673549 -27.993862 19.988839 -28.125000 20.357143 -28.125000C20.725446 -28.125000 21.040737 -27.993862 21.303013 -27.731585C21.565290 -27.469308 21.696429 -27.154018 21.696429 -26.785714ZM23.571429 -24.107143L23.571429 -29.464286C23.571429 -29.609375 23.518415 -29.734933 23.412388 -29.840960C23.306362 -29.946987 23.180804 -30.000000 23.035714 -30.000000L2.678571 -30.000000C2.533482 -30.000000 2.407924 -29.946987 2.301897 -29.840960C2.195871 -29.734933 2.142857 -29.609375 2.142857 -29.464286L2.142857 -24.107143C2.142857 -23.962054 2.195871 -23.836496 2.301897 -23.730469C2.407924 -23.624442 2.533482 -23.571429 2.678571 -23.571429L23.035714 -23.571429C23.180804 -23.571429 23.306362 -23.624442 23.412388 -23.730469C23.518415 -23.836496 23.571429 -23.962054 23.571429 -24.107143ZM2.979911 -32.142857L22.734375 -32.142857L20.106027 -40.212054C20.061384 -40.357143 19.972098 -40.477121 19.838170 -40.571987C19.704241 -40.666853 19.559152 -40.714286 19.402902 -40.714286L6.311384 -40.714286C6.155134 -40.714286 6.010045 -40.666853 5.876116 -40.571987C5.742188 -40.477121 5.652902 -40.357143 5.608259 -40.212054ZM25.714286 -29.464286L25.714286 -24.107143C25.714286 -23.370536 25.452009 -22.739955 24.927455 -22.215402C24.402902 -21.690848 23.772321 -21.428571 23.035714 -21.428571L2.678571 -21.428571C1.941964 -21.428571 1.311384 -21.690848 0.786830 -22.215402C0.262277 -22.739955 0.000000 -23.370536 0.000000 -24.107143L0.000000 -29.464286C0.000000 -29.743304 0.089286 -30.161830 0.267857 -30.719866L3.565848 -40.864955C3.755580 -41.456473 4.107143 -41.936384 4.620536 -42.304688C5.133929 -42.672991 5.697545 -42.857143 6.311384 -42.857143L19.402902 -42.857143C20.016741 -42.857143 20.580357 -42.672991 21.093750 -42.304688C21.607143 -41.936384 21.958705 -41.456473 22.148438 -40.864955L25.446429 -30.719866C25.625000 -30.161830 25.714286 -29.743304 25.714286 -29.464286ZM25.714286 -29.464286"></path></svg>