<svg width="34.285714" height="21.428571" viewBox="0.000000 -42.857143 34.285714 21.428571" xmlns="http://www.w3.org/2000/svg"><path d="M4.285714 -41.785714C4.285714 -42.075893 4.179688 -42.327009 3.967634 -42.539062C3.755580 -42.751116 3.504464 -42.857143 3.214286 -42.857143L1.071429 -42.857143C0.781250 -42.857143 0.530134 -42.751116 0.318080 -42.539062C0.106027 -42.327009 0.000000 -42.075893 0.000000 -41.785714L0.000000 -21.428571L4.285714 -21.428571L4.285714 -25.714286L30.000000 -25.714286L30.000000 -21.428571L34.285714 -21.428571L34.285714 -28.928571C34.285714 -29.218750 34.179688 -29.469866 33.967634 -29.681920C33.755580 -29.893973 33.504464 -30.000000 33.214286 -30.000000L4.285714 -30.000000ZM13.928571 -35.357143C13.928571 -36.540179 13.510045 -37.550223 12.672991 -38.387277C11.835938 -39.224330 10.825893 -39.642857 9.642857 -39.642857C8.459821 -39.642857 7.449777 -39.224330 6.612723 -38.387277C5.775670 -37.550223 5.357143 -36.540179 5.357143 -35.357143C5.357143 -34.174107 5.775670 -33.164062 6.612723 -32.327009C7.449777 -31.489955 8.459821 -31.071429 9.642857 -31.071429C10.825893 -31.071429 11.835938 -31.489955 12.672991 -32.327009C13.510045 -33.164062 13.928571 -34.174107 13.928571 -35.357143ZM34.285714 -31.071429L34.285714 -32.142857C34.285714 -33.917411 33.657924 -35.432478 32.402344 -36.688058C31.146763 -37.943638 29.631696 -38.571429 27.857143 -38.571429L16.071429 -38.571429C15.781250 -38.571429 15.530134 -38.465402 15.318080 -38.253348C15.106027 -38.041295 15.000000 -37.790179 15.000000 -37.500000L15.000000 -31.071429ZM34.285714 -31.071429"></path></svg>