<svg width="25.714286" height="25.714286" viewBox="0.000000 -49.285714 25.714286 25.714286" xmlns="http://www.w3.org/2000/svg"><path d="M17.912946 -33.465402L15.234375 -30.786830L12.706473 -28.242187L12.204241 -27.739955C11.478795 -27.025670 10.633371 -26.540179 9.667969 -26.283482C8.702567 -26.026786 7.745536 -26.015625 6.796875 -26.250000C6.618304 -25.468750 6.216518 -24.827009 5.591518 -24.324777C4.966518 -23.822545 4.246652 -23.571429 3.431920 -23.571429C2.483259 -23.571429 1.674107 -23.909040 1.004464 -24.584263C0.334821 -25.259487 0.000000 -26.071429 0.000000 -27.020089C0.000000 -27.823661 0.248326 -28.537946 0.744978 -29.162946C1.241629 -29.787946 1.875000 -30.189732 2.645089 -30.368304C2.399554 -31.328125 2.405134 -32.293527 2.661830 -33.264509C2.918527 -34.235491 3.409598 -35.083705 4.135045 -35.809152L4.335938 -36.010045L6.863839 -33.465402L6.679688 -33.281250C6.266741 -32.868304 6.060268 -32.371652 6.060268 -31.791295C6.060268 -31.210937 6.266741 -30.708705 6.679688 -30.284598C7.092634 -29.871652 7.589286 -29.665179 8.169643 -29.665179C8.750000 -29.665179 9.246652 -29.871652 9.659598 -30.284598L10.161830 -30.786830L12.689732 -33.331473L15.385045 -36.010045ZM12.204241 -44.882812L12.405134 -44.681920L9.860491 -42.137277L9.659598 -42.338170C9.246652 -42.751116 8.750000 -42.957589 8.169643 -42.957589C7.589286 -42.957589 7.092634 -42.751116 6.679688 -42.338170C6.266741 -41.925223 6.060268 -41.425781 6.060268 -40.839844C6.060268 -40.253906 6.266741 -39.754464 6.679688 -39.341518L7.165179 -38.856027L9.709821 -36.311384L12.388393 -33.632812L9.860491 -31.088170L7.165179 -33.766741L4.637277 -36.311384L4.135045 -36.813616C3.376116 -37.561384 2.873884 -38.451451 2.628348 -39.483817C2.382812 -40.516183 2.410714 -41.517857 2.712054 -42.488839C1.930804 -42.656250 1.289062 -43.052455 0.786830 -43.677455C0.284598 -44.302455 0.033482 -45.022321 0.033482 -45.837054C0.033482 -46.785714 0.368304 -47.597656 1.037946 -48.272879C1.707589 -48.948103 2.516741 -49.285714 3.465402 -49.285714C4.313616 -49.285714 5.058594 -49.012277 5.700335 -48.465402C6.342076 -47.918527 6.729911 -47.232143 6.863839 -46.406250C7.801339 -46.629464 8.747210 -46.609933 9.701451 -46.347656C10.655692 -46.085379 11.489955 -45.597098 12.204241 -44.882812ZM25.714286 -27.020089C25.714286 -26.071429 25.379464 -25.259487 24.709821 -24.584263C24.040179 -23.909040 23.231027 -23.571429 22.282366 -23.571429C21.456473 -23.571429 20.725446 -23.833705 20.089286 -24.358259C19.453125 -24.882812 19.056920 -25.541295 18.900670 -26.333705C17.940848 -26.021205 16.939174 -25.987723 15.895647 -26.233259C14.852121 -26.478795 13.950893 -26.981027 13.191964 -27.739955L13.007812 -27.940848L15.535714 -30.485491L15.736607 -30.284598C16.149554 -29.871652 16.646205 -29.665179 17.226562 -29.665179C17.806920 -29.665179 18.303571 -29.871652 18.716518 -30.284598C19.129464 -30.697545 19.335938 -31.194196 19.335938 -31.774554C19.335938 -32.354911 19.129464 -32.851562 18.716518 -33.264509L18.214286 -33.766741L15.669643 -36.311384L12.991071 -38.989955L15.535714 -41.534598L18.214286 -38.856027L20.758929 -36.311384L21.244420 -35.809152C21.958705 -35.094866 22.446987 -34.255022 22.709263 -33.289621C22.971540 -32.324219 22.985491 -31.367187 22.751116 -30.418527C23.599330 -30.295759 24.305246 -29.913504 24.868862 -29.271763C25.432478 -28.630022 25.714286 -27.879464 25.714286 -27.020089ZM25.680804 -45.837054C25.680804 -44.977679 25.396205 -44.224330 24.827009 -43.577009C24.257812 -42.929688 23.549107 -42.544643 22.700893 -42.421875C22.991071 -41.473214 23.007812 -40.488281 22.751116 -39.467076C22.494420 -38.445871 21.992188 -37.561384 21.244420 -36.813616L21.043527 -36.612723L18.515625 -39.157366L18.716518 -39.358259C19.129464 -39.771205 19.335938 -40.267857 19.335938 -40.848214C19.335938 -41.428571 19.129464 -41.925223 18.716518 -42.338170C18.303571 -42.751116 17.806920 -42.957589 17.226562 -42.957589C16.646205 -42.957589 16.149554 -42.751116 15.736607 -42.338170L15.234375 -41.835938L12.689732 -39.291295L10.011161 -36.612723L7.466518 -39.157366L10.161830 -41.835938L12.706473 -44.380580L13.191964 -44.882812C13.939732 -45.630580 14.827009 -46.130022 15.853795 -46.381138C16.880580 -46.632254 17.873884 -46.612723 18.833705 -46.322545C18.956473 -47.159598 19.338728 -47.862723 19.980469 -48.431920C20.622210 -49.001116 21.378348 -49.285714 22.248884 -49.285714C23.197545 -49.285714 24.006696 -48.948103 24.676339 -48.272879C25.345982 -47.597656 25.680804 -46.785714 25.680804 -45.837054ZM25.680804 -45.837054"></path></svg>