<svg width="28.175223" height="26.651786" viewBox="0.000000 -50.223214 28.175223 26.651786" xmlns="http://www.w3.org/2000/svg"><path d="M13.928571 -43.794643C13.928571 -44.687500 13.616071 -45.446429 12.991071 -46.071429C12.366071 -46.696429 11.607143 -47.008929 10.714286 -47.008929C9.821429 -47.008929 9.062500 -46.696429 8.437500 -46.071429C7.812500 -45.446429 7.500000 -44.687500 7.500000 -43.794643C7.500000 -43.325893 7.606027 -42.862723 7.818080 -42.405134C7.360491 -42.617188 6.897321 -42.723214 6.428571 -42.723214C5.535714 -42.723214 4.776786 -42.410714 4.151786 -41.785714C3.526786 -41.160714 3.214286 -40.401786 3.214286 -39.508929C3.214286 -38.616071 3.526786 -37.857143 4.151786 -37.232143C4.776786 -36.607143 5.535714 -36.294643 6.428571 -36.294643C7.321429 -36.294643 8.080357 -36.607143 8.705357 -37.232143C9.330357 -37.857143 9.642857 -38.616071 9.642857 -39.508929C9.642857 -39.977679 9.536830 -40.440848 9.324777 -40.898438C9.782366 -40.686384 10.245536 -40.580357 10.714286 -40.580357C11.607143 -40.580357 12.366071 -40.892857 12.991071 -41.517857C13.616071 -42.142857 13.928571 -42.901786 13.928571 -43.794643ZM28.175223 -32.008929C28.175223 -31.819196 27.901786 -31.450893 27.354911 -30.904018C26.808036 -30.357143 26.439732 -30.083705 26.250000 -30.083705C26.149554 -30.083705 25.990513 -30.172991 25.772879 -30.351562C25.555246 -30.530134 25.351562 -30.714286 25.161830 -30.904018C24.972098 -31.093750 24.757254 -31.316964 24.517299 -31.573661C24.277344 -31.830357 24.140625 -31.975446 24.107143 -32.008929L22.500000 -30.401786L26.183036 -26.718750C26.495536 -26.406250 26.651786 -26.026786 26.651786 -25.580357C26.651786 -25.111607 26.434152 -24.659598 25.998884 -24.224330C25.563616 -23.789062 25.111607 -23.571429 24.642857 -23.571429C24.196429 -23.571429 23.816964 -23.727679 23.504464 -24.040179L12.271205 -35.273438C10.306920 -33.811384 8.270089 -33.080357 6.160714 -33.080357C4.341518 -33.080357 2.859933 -33.652344 1.715960 -34.796317C0.571987 -35.940290 0.000000 -37.421875 0.000000 -39.241071C0.000000 -41.026786 0.530134 -42.773438 1.590402 -44.481027C2.650670 -46.188616 4.034598 -47.572545 5.742188 -48.632812C7.449777 -49.693080 9.196429 -50.223214 10.982143 -50.223214C12.801339 -50.223214 14.282924 -49.651228 15.426897 -48.507254C16.570871 -47.363281 17.142857 -45.881696 17.142857 -44.062500C17.142857 -41.953125 16.411830 -39.916295 14.949777 -37.952009L20.892857 -32.008929L22.500000 -33.616071C22.466518 -33.649554 22.321429 -33.786272 22.064732 -34.026228C21.808036 -34.266183 21.584821 -34.481027 21.395089 -34.670759C21.205357 -34.860491 21.021205 -35.064174 20.842634 -35.281808C20.664062 -35.499442 20.574777 -35.658482 20.574777 -35.758929C20.574777 -35.948661 20.848214 -36.316964 21.395089 -36.863839C21.941964 -37.410714 22.310268 -37.684152 22.500000 -37.684152C22.645089 -37.684152 22.773438 -37.628348 22.885045 -37.516741C22.952009 -37.449777 23.208705 -37.201451 23.655134 -36.771763C24.101562 -36.342076 24.559152 -35.898438 25.027902 -35.440848C25.496652 -34.983259 25.979353 -34.503348 26.476004 -34.001116C26.972656 -33.498884 27.380022 -33.063616 27.698103 -32.695312C28.016183 -32.327009 28.175223 -32.098214 28.175223 -32.008929ZM28.175223 -32.008929"></path></svg>