<svg width="32.142857" height="19.285714" viewBox="0.000000 -38.571429 32.142857 19.285714" xmlns="http://www.w3.org/2000/svg"><path d="M6.428571 -25.446429L6.428571 -23.839286C6.428571 -23.660714 6.339286 -23.571429 6.160714 -23.571429L4.553571 -23.571429C4.375000 -23.571429 4.285714 -23.660714 4.285714 -23.839286L4.285714 -25.446429C4.285714 -25.625000 4.375000 -25.714286 4.553571 -25.714286L6.160714 -25.714286C6.339286 -25.714286 6.428571 -25.625000 6.428571 -25.446429ZM8.571429 -29.732143L8.571429 -28.125000C8.571429 -27.946429 8.482143 -27.857143 8.303571 -27.857143L4.553571 -27.857143C4.375000 -27.857143 4.285714 -27.946429 4.285714 -28.125000L4.285714 -29.732143C4.285714 -29.910714 4.375000 -30.000000 4.553571 -30.000000L8.303571 -30.000000C8.482143 -30.000000 8.571429 -29.910714 8.571429 -29.732143ZM6.428571 -34.017857L6.428571 -32.410714C6.428571 -32.232143 6.339286 -32.142857 6.160714 -32.142857L4.553571 -32.142857C4.375000 -32.142857 4.285714 -32.232143 4.285714 -32.410714L4.285714 -34.017857C4.285714 -34.196429 4.375000 -34.285714 4.553571 -34.285714L6.160714 -34.285714C6.339286 -34.285714 6.428571 -34.196429 6.428571 -34.017857ZM23.571429 -25.446429L23.571429 -23.839286C23.571429 -23.660714 23.482143 -23.571429 23.303571 -23.571429L8.839286 -23.571429C8.660714 -23.571429 8.571429 -23.660714 8.571429 -23.839286L8.571429 -25.446429C8.571429 -25.625000 8.660714 -25.714286 8.839286 -25.714286L23.303571 -25.714286C23.482143 -25.714286 23.571429 -25.625000 23.571429 -25.446429ZM12.857143 -29.732143L12.857143 -28.125000C12.857143 -27.946429 12.767857 -27.857143 12.589286 -27.857143L10.982143 -27.857143C10.803571 -27.857143 10.714286 -27.946429 10.714286 -28.125000L10.714286 -29.732143C10.714286 -29.910714 10.803571 -30.000000 10.982143 -30.000000L12.589286 -30.000000C12.767857 -30.000000 12.857143 -29.910714 12.857143 -29.732143ZM10.714286 -34.017857L10.714286 -32.410714C10.714286 -32.232143 10.625000 -32.142857 10.446429 -32.142857L8.839286 -32.142857C8.660714 -32.142857 8.571429 -32.232143 8.571429 -32.410714L8.571429 -34.017857C8.571429 -34.196429 8.660714 -34.285714 8.839286 -34.285714L10.446429 -34.285714C10.625000 -34.285714 10.714286 -34.196429 10.714286 -34.017857ZM17.142857 -29.732143L17.142857 -28.125000C17.142857 -27.946429 17.053571 -27.857143 16.875000 -27.857143L15.267857 -27.857143C15.089286 -27.857143 15.000000 -27.946429 15.000000 -28.125000L15.000000 -29.732143C15.000000 -29.910714 15.089286 -30.000000 15.267857 -30.000000L16.875000 -30.000000C17.053571 -30.000000 17.142857 -29.910714 17.142857 -29.732143ZM15.000000 -34.017857L15.000000 -32.410714C15.000000 -32.232143 14.910714 -32.142857 14.732143 -32.142857L13.125000 -32.142857C12.946429 -32.142857 12.857143 -32.232143 12.857143 -32.410714L12.857143 -34.017857C12.857143 -34.196429 12.946429 -34.285714 13.125000 -34.285714L14.732143 -34.285714C14.910714 -34.285714 15.000000 -34.196429 15.000000 -34.017857ZM21.428571 -29.732143L21.428571 -28.125000C21.428571 -27.946429 21.339286 -27.857143 21.160714 -27.857143L19.553571 -27.857143C19.375000 -27.857143 19.285714 -27.946429 19.285714 -28.125000L19.285714 -29.732143C19.285714 -29.910714 19.375000 -30.000000 19.553571 -30.000000L21.160714 -30.000000C21.339286 -30.000000 21.428571 -29.910714 21.428571 -29.732143ZM27.857143 -25.446429L27.857143 -23.839286C27.857143 -23.660714 27.767857 -23.571429 27.589286 -23.571429L25.982143 -23.571429C25.803571 -23.571429 25.714286 -23.660714 25.714286 -23.839286L25.714286 -25.446429C25.714286 -25.625000 25.803571 -25.714286 25.982143 -25.714286L27.589286 -25.714286C27.767857 -25.714286 27.857143 -25.625000 27.857143 -25.446429ZM19.285714 -34.017857L19.285714 -32.410714C19.285714 -32.232143 19.196429 -32.142857 19.017857 -32.142857L17.410714 -32.142857C17.232143 -32.142857 17.142857 -32.232143 17.142857 -32.410714L17.142857 -34.017857C17.142857 -34.196429 17.232143 -34.285714 17.410714 -34.285714L19.017857 -34.285714C19.196429 -34.285714 19.285714 -34.196429 19.285714 -34.017857ZM23.571429 -34.017857L23.571429 -32.410714C23.571429 -32.232143 23.482143 -32.142857 23.303571 -32.142857L21.696429 -32.142857C21.517857 -32.142857 21.428571 -32.232143 21.428571 -32.410714L21.428571 -34.017857C21.428571 -34.196429 21.517857 -34.285714 21.696429 -34.285714L23.303571 -34.285714C23.482143 -34.285714 23.571429 -34.196429 23.571429 -34.017857ZM27.857143 -34.017857L27.857143 -28.125000C27.857143 -27.946429 27.767857 -27.857143 27.589286 -27.857143L23.839286 -27.857143C23.660714 -27.857143 23.571429 -27.946429 23.571429 -28.125000L23.571429 -29.732143C23.571429 -29.910714 23.660714 -30.000000 23.839286 -30.000000L25.714286 -30.000000L25.714286 -34.017857C25.714286 -34.196429 25.803571 -34.285714 25.982143 -34.285714L27.589286 -34.285714C27.767857 -34.285714 27.857143 -34.196429 27.857143 -34.017857ZM30.000000 -21.428571L30.000000 -36.428571L2.142857 -36.428571L2.142857 -21.428571ZM32.142857 -36.428571L32.142857 -21.428571C32.142857 -20.837054 31.933594 -20.332031 31.515067 -19.913504C31.096540 -19.494978 30.591518 -19.285714 30.000000 -19.285714L2.142857 -19.285714C1.551339 -19.285714 1.046317 -19.494978 0.627790 -19.913504C0.209263 -20.332031 0.000000 -20.837054 0.000000 -21.428571L0.000000 -36.428571C0.000000 -37.020089 0.209263 -37.525112 0.627790 -37.943638C1.046317 -38.362165 1.551339 -38.571429 2.142857 -38.571429L30.000000 -38.571429C30.591518 -38.571429 31.096540 -38.362165 31.515067 -37.943638C31.933594 -37.525112 32.142857 -37.020089 32.142857 -36.428571ZM32.142857 -36.428571"></path></svg>