<svg width="32.142857" height="21.428571" viewBox="0.000000 -42.857143 32.142857 21.428571" xmlns="http://www.w3.org/2000/svg"><path d="M6.964286 -25.714286C6.227679 -25.714286 5.597098 -25.976562 5.072545 -26.501116C4.547991 -27.025670 4.285714 -27.656250 4.285714 -28.392857L4.285714 -40.178571C4.285714 -40.915179 4.547991 -41.545759 5.072545 -42.070312C5.597098 -42.594866 6.227679 -42.857143 6.964286 -42.857143L25.178571 -42.857143C25.915179 -42.857143 26.545759 -42.594866 27.070312 -42.070312C27.594866 -41.545759 27.857143 -40.915179 27.857143 -40.178571L27.857143 -28.392857C27.857143 -27.656250 27.594866 -27.025670 27.070312 -26.501116C26.545759 -25.976562 25.915179 -25.714286 25.178571 -25.714286ZM6.428571 -40.178571L6.428571 -28.392857C6.428571 -28.247768 6.481585 -28.122210 6.587612 -28.016183C6.693638 -27.910156 6.819196 -27.857143 6.964286 -27.857143L25.178571 -27.857143C25.323661 -27.857143 25.449219 -27.910156 25.555246 -28.016183C25.661272 -28.122210 25.714286 -28.247768 25.714286 -28.392857L25.714286 -40.178571C25.714286 -40.323661 25.661272 -40.449219 25.555246 -40.555246C25.449219 -40.661272 25.323661 -40.714286 25.178571 -40.714286L6.964286 -40.714286C6.819196 -40.714286 6.693638 -40.661272 6.587612 -40.555246C6.481585 -40.449219 6.428571 -40.323661 6.428571 -40.178571ZM29.464286 -24.642857L32.142857 -24.642857L32.142857 -23.035714C32.142857 -22.589286 31.880580 -22.209821 31.356027 -21.897321C30.831473 -21.584821 30.200893 -21.428571 29.464286 -21.428571L2.678571 -21.428571C1.941964 -21.428571 1.311384 -21.584821 0.786830 -21.897321C0.262277 -22.209821 0.000000 -22.589286 0.000000 -23.035714L0.000000 -24.642857L2.678571 -24.642857ZM17.410714 -23.035714C17.589286 -23.035714 17.678571 -23.125000 17.678571 -23.303571C17.678571 -23.482143 17.589286 -23.571429 17.410714 -23.571429L14.732143 -23.571429C14.553571 -23.571429 14.464286 -23.482143 14.464286 -23.303571C14.464286 -23.125000 14.553571 -23.035714 14.732143 -23.035714ZM17.410714 -23.035714"></path></svg>