<svg width="34.285714" height="25.714286" viewBox="0.000000 -49.285714 34.285714 25.714286" xmlns="http://www.w3.org/2000/svg"><path d="M34.285714 -25.714286L34.285714 -23.571429L0.000000 -23.571429L0.000000 -49.285714L2.142857 -49.285714L2.142857 -25.714286ZM32.142857 -46.607143L32.142857 -39.324777C32.142857 -39.090402 32.034040 -38.925781 31.816406 -38.830915C31.598772 -38.736049 31.400670 -38.777902 31.222098 -38.956473L29.196429 -40.982143L18.599330 -30.385045C18.487723 -30.273437 18.359375 -30.217634 18.214286 -30.217634C18.069196 -30.217634 17.940848 -30.273437 17.829241 -30.385045L13.928571 -34.285714L6.964286 -27.321429L3.750000 -30.535714L13.543527 -40.329241C13.655134 -40.440848 13.783482 -40.496652 13.928571 -40.496652C14.073661 -40.496652 14.202009 -40.440848 14.313616 -40.329241L18.214286 -36.428571L25.982143 -44.196429L23.956473 -46.222098C23.777902 -46.400670 23.736049 -46.598772 23.830915 -46.816406C23.925781 -47.034040 24.090402 -47.142857 24.324777 -47.142857L31.607143 -47.142857C31.763393 -47.142857 31.891741 -47.092634 31.992188 -46.992188C32.092634 -46.891741 32.142857 -46.763393 32.142857 -46.607143ZM32.142857 -46.607143"></path></svg>