<svg width="27.321429" height="27.321429" viewBox="0.267857 -52.767857 27.321429 27.321429" xmlns="http://www.w3.org/2000/svg"><path d="M24.375000 -32.678571C24.375000 -33.125000 24.218750 -33.504464 23.906250 -33.816964L20.424107 -37.299107C20.111607 -37.611607 19.732143 -37.767857 19.285714 -37.767857C18.816964 -37.767857 18.415179 -37.589286 18.080357 -37.232143C18.113839 -37.198661 18.219866 -37.095424 18.398438 -36.922433C18.577009 -36.749442 18.696987 -36.629464 18.758371 -36.562500C18.819754 -36.495536 18.903460 -36.389509 19.009487 -36.244420C19.115513 -36.099330 19.188058 -35.957031 19.227121 -35.817522C19.266183 -35.678013 19.285714 -35.524554 19.285714 -35.357143C19.285714 -34.910714 19.129464 -34.531250 18.816964 -34.218750C18.504464 -33.906250 18.125000 -33.750000 17.678571 -33.750000C17.511161 -33.750000 17.357701 -33.769531 17.218192 -33.808594C17.078683 -33.847656 16.936384 -33.920201 16.791295 -34.026228C16.646205 -34.132254 16.540179 -34.215960 16.473214 -34.277344C16.406250 -34.338728 16.286272 -34.458705 16.113281 -34.637277C15.940290 -34.815848 15.837054 -34.921875 15.803571 -34.955357C15.435268 -34.609375 15.251116 -34.202009 15.251116 -33.733259C15.251116 -33.286830 15.407366 -32.907366 15.719866 -32.594866L19.168527 -29.129464C19.469866 -28.828125 19.849330 -28.677455 20.306920 -28.677455C20.753348 -28.677455 21.132812 -28.822545 21.445312 -29.112723L23.906250 -31.556920C24.218750 -31.869420 24.375000 -32.243304 24.375000 -32.678571ZM12.606027 -44.481027C12.606027 -44.927455 12.449777 -45.306920 12.137277 -45.619420L8.688616 -49.084821C8.376116 -49.397321 7.996652 -49.553571 7.550223 -49.553571C7.114955 -49.553571 6.735491 -49.402902 6.411830 -49.101562L3.950893 -46.657366C3.638393 -46.344866 3.482143 -45.970982 3.482143 -45.535714C3.482143 -45.089286 3.638393 -44.709821 3.950893 -44.397321L7.433036 -40.915179C7.734375 -40.613839 8.113839 -40.463170 8.571429 -40.463170C9.040179 -40.463170 9.441964 -40.636161 9.776786 -40.982143C9.743304 -41.015625 9.637277 -41.118862 9.458705 -41.291853C9.280134 -41.464844 9.160156 -41.584821 9.098772 -41.651786C9.037388 -41.718750 8.953683 -41.824777 8.847656 -41.969866C8.741629 -42.114955 8.669085 -42.257254 8.630022 -42.396763C8.590960 -42.536272 8.571429 -42.689732 8.571429 -42.857143C8.571429 -43.303571 8.727679 -43.683036 9.040179 -43.995536C9.352679 -44.308036 9.732143 -44.464286 10.178571 -44.464286C10.345982 -44.464286 10.499442 -44.444754 10.638951 -44.405692C10.778460 -44.366629 10.920759 -44.294085 11.065848 -44.188058C11.210938 -44.082031 11.316964 -43.998326 11.383929 -43.936942C11.450893 -43.875558 11.570871 -43.755580 11.743862 -43.577009C11.916853 -43.398438 12.020089 -43.292411 12.053571 -43.258929C12.421875 -43.604911 12.606027 -44.012277 12.606027 -44.481027ZM27.589286 -32.678571C27.589286 -31.339286 27.114955 -30.206473 26.166295 -29.280134L23.705357 -26.835937C22.779018 -25.909598 21.646205 -25.446429 20.306920 -25.446429C18.956473 -25.446429 17.818080 -25.920759 16.891741 -26.869420L13.443080 -30.334821C12.516741 -31.261161 12.053571 -32.393973 12.053571 -33.733259C12.053571 -35.106027 12.544643 -36.272321 13.526786 -37.232143L12.053571 -38.705357C11.093750 -37.723214 9.933036 -37.232143 8.571429 -37.232143C7.232143 -37.232143 6.093750 -37.700893 5.156250 -38.638393L1.674107 -42.120536C0.736607 -43.058036 0.267857 -44.196429 0.267857 -45.535714C0.267857 -46.875000 0.742188 -48.007812 1.690848 -48.934152L4.151786 -51.378348C5.078125 -52.304688 6.210938 -52.767857 7.550223 -52.767857C8.900670 -52.767857 10.039062 -52.293527 10.965402 -51.344866L14.414062 -47.879464C15.340402 -46.953125 15.803571 -45.820312 15.803571 -44.481027C15.803571 -43.108259 15.312500 -41.941964 14.330357 -40.982143L15.803571 -39.508929C16.763393 -40.491071 17.924107 -40.982143 19.285714 -40.982143C20.625000 -40.982143 21.763393 -40.513393 22.700893 -39.575893L26.183036 -36.093750C27.120536 -35.156250 27.589286 -34.017857 27.589286 -32.678571ZM27.589286 -32.678571"></path></svg>