<svg width="29.748884" height="29.849330" viewBox="0.251116 -55.412946 29.748884 29.849330" xmlns="http://www.w3.org/2000/svg"><path d="M6.378348 -28.443080C6.378348 -27.550223 6.074219 -26.847098 5.465960 -26.333705C4.857701 -25.820312 4.101562 -25.563616 3.197545 -25.563616C2.014509 -25.563616 1.054688 -25.931920 0.318080 -26.668527L1.272321 -28.141741C1.819196 -27.639509 2.410714 -27.388393 3.046875 -27.388393C3.370536 -27.388393 3.652344 -27.469308 3.892299 -27.631138C4.132254 -27.792969 4.252232 -28.030134 4.252232 -28.342634C4.252232 -29.056920 3.666295 -29.369420 2.494420 -29.280134L2.059152 -30.217634C2.148438 -30.329241 2.329799 -30.571987 2.603237 -30.945871C2.876674 -31.319754 3.113839 -31.621094 3.314732 -31.849888C3.515625 -32.078683 3.722098 -32.293527 3.934152 -32.494420L3.934152 -32.511161C3.755580 -32.511161 3.484933 -32.505580 3.122210 -32.494420C2.759487 -32.483259 2.488839 -32.477679 2.310268 -32.477679L2.310268 -31.590402L0.535714 -31.590402L0.535714 -34.135045L6.110491 -34.135045L6.110491 -32.661830L4.520089 -30.736607C5.089286 -30.602679 5.541295 -30.329241 5.876116 -29.916295C6.210938 -29.503348 6.378348 -29.012277 6.378348 -28.443080ZM6.411830 -38.939732L6.411830 -36.277902L0.351562 -36.277902C0.284598 -36.679688 0.251116 -36.981027 0.251116 -37.181920C0.251116 -37.751116 0.382254 -38.270089 0.644531 -38.738839C0.906808 -39.207589 1.222098 -39.587054 1.590402 -39.877232C1.958705 -40.167411 2.327009 -40.432478 2.695312 -40.672433C3.063616 -40.912388 3.378906 -41.155134 3.641183 -41.400670C3.903460 -41.646205 4.034598 -41.897321 4.034598 -42.154018C4.034598 -42.433036 3.953683 -42.647879 3.791853 -42.798549C3.630022 -42.949219 3.409598 -43.024554 3.130580 -43.024554C2.617188 -43.024554 2.165179 -42.700893 1.774554 -42.053571L0.351562 -43.041295C0.619420 -43.610491 1.018415 -44.054129 1.548549 -44.372210C2.078683 -44.690290 2.667411 -44.849330 3.314732 -44.849330C4.129464 -44.849330 4.815848 -44.617746 5.373884 -44.154576C5.931920 -43.691406 6.210938 -43.063616 6.210938 -42.271205C6.210938 -41.713170 6.021205 -41.202567 5.641741 -40.739397C5.262277 -40.276228 4.843750 -39.916295 4.386161 -39.659598C3.928571 -39.402902 3.507254 -39.121094 3.122210 -38.814174C2.737165 -38.507254 2.539062 -38.214286 2.527902 -37.935268L4.654018 -37.935268L4.654018 -38.939732ZM30.000000 -33.599330L30.000000 -30.385045C30.000000 -30.239955 29.946987 -30.114397 29.840960 -30.008371C29.734933 -29.902344 29.609375 -29.849330 29.464286 -29.849330L9.107143 -29.849330C8.962054 -29.849330 8.836496 -29.902344 8.730469 -30.008371C8.624442 -30.114397 8.571429 -30.239955 8.571429 -30.385045L8.571429 -33.599330C8.571429 -33.755580 8.621652 -33.883929 8.722098 -33.984375C8.822545 -34.084821 8.950893 -34.135045 9.107143 -34.135045L29.464286 -34.135045C29.609375 -34.135045 29.734933 -34.082031 29.840960 -33.976004C29.946987 -33.869978 30.000000 -33.744420 30.000000 -33.599330ZM6.428571 -48.649554L6.428571 -46.992188L0.820312 -46.992188L0.820312 -48.649554L2.611607 -48.649554C2.611607 -49.107143 2.614397 -49.785156 2.619978 -50.683594C2.625558 -51.582031 2.628348 -52.260045 2.628348 -52.717634L2.628348 -52.918527L2.594866 -52.918527C2.505580 -52.728795 2.226562 -52.427455 1.757812 -52.014509L0.569196 -53.286830L2.845982 -55.412946L4.620536 -55.412946L4.620536 -48.649554ZM30.000000 -42.170759L30.000000 -38.956473C30.000000 -38.811384 29.946987 -38.685826 29.840960 -38.579799C29.734933 -38.473772 29.609375 -38.420759 29.464286 -38.420759L9.107143 -38.420759C8.962054 -38.420759 8.836496 -38.473772 8.730469 -38.579799C8.624442 -38.685826 8.571429 -38.811384 8.571429 -38.956473L8.571429 -42.170759C8.571429 -42.327009 8.621652 -42.455357 8.722098 -42.555804C8.822545 -42.656250 8.950893 -42.706473 9.107143 -42.706473L29.464286 -42.706473C29.609375 -42.706473 29.734933 -42.653460 29.840960 -42.547433C29.946987 -42.441406 30.000000 -42.315848 30.000000 -42.170759ZM30.000000 -50.742188L30.000000 -47.527902C30.000000 -47.382812 29.946987 -47.257254 29.840960 -47.151228C29.734933 -47.045201 29.609375 -46.992188 29.464286 -46.992188L9.107143 -46.992188C8.962054 -46.992188 8.836496 -47.045201 8.730469 -47.151228C8.624442 -47.257254 8.571429 -47.382812 8.571429 -47.527902L8.571429 -50.742188C8.571429 -50.887277 8.624442 -51.012835 8.730469 -51.118862C8.836496 -51.224888 8.962054 -51.277902 9.107143 -51.277902L29.464286 -51.277902C29.609375 -51.277902 29.734933 -51.224888 29.840960 -51.118862C29.946987 -51.012835 30.000000 -50.887277 30.000000 -50.742188ZM30.000000 -50.742188"></path></svg>