<svg width="25.714286" height="25.714286" viewBox="0.000000 -49.285714 25.714286 25.714286" xmlns="http://www.w3.org/2000/svg"><path d="M25.714286 -37.500000L25.714286 -35.357143C25.714286 -33.113839 25.164621 -31.093750 24.065290 -29.296875C22.965960 -27.500000 21.436942 -26.096540 19.478237 -25.086496C17.519531 -24.076451 15.312500 -23.571429 12.857143 -23.571429C10.401786 -23.571429 8.194754 -24.076451 6.236049 -25.086496C4.277344 -26.096540 2.748326 -27.500000 1.648996 -29.296875C0.549665 -31.093750 0.000000 -33.113839 0.000000 -35.357143L0.000000 -37.500000C0.000000 -37.790179 0.106027 -38.041295 0.318080 -38.253348C0.530134 -38.465402 0.781250 -38.571429 1.071429 -38.571429L7.500000 -38.571429C7.790179 -38.571429 8.041295 -38.465402 8.253348 -38.253348C8.465402 -38.041295 8.571429 -37.790179 8.571429 -37.500000L8.571429 -35.357143C8.571429 -34.776786 8.702567 -34.274554 8.964844 -33.850446C9.227121 -33.426339 9.525670 -33.108259 9.860491 -32.896205C10.195312 -32.684152 10.591518 -32.516741 11.049107 -32.393973C11.506696 -32.271205 11.863839 -32.198661 12.120536 -32.176339C12.377232 -32.154018 12.622768 -32.142857 12.857143 -32.142857C13.091518 -32.142857 13.337054 -32.154018 13.593750 -32.176339C13.850446 -32.198661 14.207589 -32.271205 14.665179 -32.393973C15.122768 -32.516741 15.518973 -32.684152 15.853795 -32.896205C16.188616 -33.108259 16.487165 -33.426339 16.749442 -33.850446C17.011719 -34.274554 17.142857 -34.776786 17.142857 -35.357143L17.142857 -37.500000C17.142857 -37.790179 17.248884 -38.041295 17.460938 -38.253348C17.672991 -38.465402 17.924107 -38.571429 18.214286 -38.571429L24.642857 -38.571429C24.933036 -38.571429 25.184152 -38.465402 25.396205 -38.253348C25.608259 -38.041295 25.714286 -37.790179 25.714286 -37.500000ZM8.571429 -48.214286L8.571429 -41.785714C8.571429 -41.495536 8.465402 -41.244420 8.253348 -41.032366C8.041295 -40.820312 7.790179 -40.714286 7.500000 -40.714286L1.071429 -40.714286C0.781250 -40.714286 0.530134 -40.820312 0.318080 -41.032366C0.106027 -41.244420 0.000000 -41.495536 0.000000 -41.785714L0.000000 -48.214286C0.000000 -48.504464 0.106027 -48.755580 0.318080 -48.967634C0.530134 -49.179688 0.781250 -49.285714 1.071429 -49.285714L7.500000 -49.285714C7.790179 -49.285714 8.041295 -49.179688 8.253348 -48.967634C8.465402 -48.755580 8.571429 -48.504464 8.571429 -48.214286ZM25.714286 -48.214286L25.714286 -41.785714C25.714286 -41.495536 25.608259 -41.244420 25.396205 -41.032366C25.184152 -40.820312 24.933036 -40.714286 24.642857 -40.714286L18.214286 -40.714286C17.924107 -40.714286 17.672991 -40.820312 17.460938 -41.032366C17.248884 -41.244420 17.142857 -41.495536 17.142857 -41.785714L17.142857 -48.214286C17.142857 -48.504464 17.248884 -48.755580 17.460938 -48.967634C17.672991 -49.179688 17.924107 -49.285714 18.214286 -49.285714L24.642857 -49.285714C24.933036 -49.285714 25.184152 -49.179688 25.396205 -48.967634C25.608259 -48.755580 25.714286 -48.504464 25.714286 -48.214286ZM25.714286 -48.214286"></path></svg>