<svg width="25.714286" height="25.714286" viewBox="0.000000 -49.285714 25.714286 25.714286" xmlns="http://www.w3.org/2000/svg"><path d="M24.642857 -49.285714C24.933036 -49.285714 25.184152 -49.179688 25.396205 -48.967634C25.608259 -48.755580 25.714286 -48.504464 25.714286 -48.214286L25.714286 -41.250000C25.714286 -41.093750 25.664062 -40.965402 25.563616 -40.864955C25.463170 -40.764509 25.334821 -40.714286 25.178571 -40.714286L24.107143 -40.714286C23.950893 -40.714286 23.822545 -40.764509 23.722098 -40.864955C23.621652 -40.965402 23.571429 -41.093750 23.571429 -41.250000L23.571429 -45.636161L17.176339 -39.224330C18.582589 -37.483259 19.285714 -35.479911 19.285714 -33.214286C19.285714 -31.908482 19.031808 -30.661272 18.523996 -29.472656C18.016183 -28.284040 17.329799 -27.257254 16.464844 -26.392299C15.599888 -25.527344 14.573103 -24.840960 13.384487 -24.333147C12.195871 -23.825335 10.948661 -23.571429 9.642857 -23.571429C8.337054 -23.571429 7.089844 -23.825335 5.901228 -24.333147C4.712612 -24.840960 3.685826 -25.527344 2.820871 -26.392299C1.955915 -27.257254 1.269531 -28.284040 0.761719 -29.472656C0.253906 -30.661272 0.000000 -31.908482 0.000000 -33.214286C0.000000 -34.520089 0.253906 -35.767299 0.761719 -36.955915C1.269531 -38.144531 1.955915 -39.171317 2.820871 -40.036272C3.685826 -40.901228 4.712612 -41.587612 5.901228 -42.095424C7.089844 -42.603237 8.337054 -42.857143 9.642857 -42.857143C11.908482 -42.857143 13.911830 -42.154018 15.652902 -40.747768L22.047991 -47.142857L17.678571 -47.142857C17.522321 -47.142857 17.393973 -47.193080 17.293527 -47.293527C17.193080 -47.393973 17.142857 -47.522321 17.142857 -47.678571L17.142857 -48.750000C17.142857 -48.906250 17.193080 -49.034598 17.293527 -49.135045C17.393973 -49.235491 17.522321 -49.285714 17.678571 -49.285714ZM9.642857 -25.714286C11.707589 -25.714286 13.473772 -26.448103 14.941406 -27.915737C16.409040 -29.383371 17.142857 -31.149554 17.142857 -33.214286C17.142857 -35.279018 16.409040 -37.045201 14.941406 -38.512835C13.473772 -39.980469 11.707589 -40.714286 9.642857 -40.714286C7.578125 -40.714286 5.811942 -39.980469 4.344308 -38.512835C2.876674 -37.045201 2.142857 -35.279018 2.142857 -33.214286C2.142857 -31.149554 2.876674 -29.383371 4.344308 -27.915737C5.811942 -26.448103 7.578125 -25.714286 9.642857 -25.714286ZM9.642857 -25.714286"></path></svg>