<svg width="19.285714" height="30.000000" viewBox="0.000000 -55.714286 19.285714 30.000000" xmlns="http://www.w3.org/2000/svg"><path d="M19.285714 -46.071429C19.285714 -43.604911 18.462612 -41.459263 16.816406 -39.634487C15.170201 -37.809710 13.136161 -36.763393 10.714286 -36.495536L10.714286 -26.250000C10.714286 -26.093750 10.664062 -25.965402 10.563616 -25.864955C10.463170 -25.764509 10.334821 -25.714286 10.178571 -25.714286L9.107143 -25.714286C8.950893 -25.714286 8.822545 -25.764509 8.722098 -25.864955C8.621652 -25.965402 8.571429 -26.093750 8.571429 -26.250000L8.571429 -36.495536C6.149554 -36.763393 4.115513 -37.809710 2.469308 -39.634487C0.823103 -41.459263 0.000000 -43.604911 0.000000 -46.071429C0.000000 -47.377232 0.253906 -48.624442 0.761719 -49.813058C1.269531 -51.001674 1.955915 -52.028460 2.820871 -52.893415C3.685826 -53.758371 4.712612 -54.444754 5.901228 -54.952567C7.089844 -55.460379 8.337054 -55.714286 9.642857 -55.714286C10.948661 -55.714286 12.195871 -55.460379 13.384487 -54.952567C14.573103 -54.444754 15.599888 -53.758371 16.464844 -52.893415C17.329799 -52.028460 18.016183 -51.001674 18.523996 -49.813058C19.031808 -48.624442 19.285714 -47.377232 19.285714 -46.071429ZM9.642857 -38.571429C11.707589 -38.571429 13.473772 -39.305246 14.941406 -40.772879C16.409040 -42.240513 17.142857 -44.006696 17.142857 -46.071429C17.142857 -48.136161 16.409040 -49.902344 14.941406 -51.369978C13.473772 -52.837612 11.707589 -53.571429 9.642857 -53.571429C7.578125 -53.571429 5.811942 -52.837612 4.344308 -51.369978C2.876674 -49.902344 2.142857 -48.136161 2.142857 -46.071429C2.142857 -44.006696 2.876674 -42.240513 4.344308 -40.772879C5.811942 -39.305246 7.578125 -38.571429 9.642857 -38.571429ZM9.642857 -38.571429"></path></svg>