<svg width="30.000000" height="23.571429" viewBox="0.000000 -47.142857 30.000000 23.571429" xmlns="http://www.w3.org/2000/svg"><path d="M6.428571 -40.178571L6.428571 -30.535714C6.428571 -30.390625 6.375558 -30.265067 6.269531 -30.159040C6.163504 -30.053013 6.037946 -30.000000 5.892857 -30.000000C5.736607 -30.000000 5.608259 -30.050223 5.507812 -30.150670L0.686384 -34.972098C0.585938 -35.072545 0.535714 -35.200893 0.535714 -35.357143C0.535714 -35.513393 0.585938 -35.641741 0.686384 -35.742188L5.507812 -40.563616C5.608259 -40.664062 5.736607 -40.714286 5.892857 -40.714286C6.037946 -40.714286 6.163504 -40.661272 6.269531 -40.555246C6.375558 -40.449219 6.428571 -40.323661 6.428571 -40.178571ZM30.000000 -27.321429L30.000000 -24.107143C30.000000 -23.962054 29.946987 -23.836496 29.840960 -23.730469C29.734933 -23.624442 29.609375 -23.571429 29.464286 -23.571429L0.535714 -23.571429C0.390625 -23.571429 0.265067 -23.624442 0.159040 -23.730469C0.053013 -23.836496 0.000000 -23.962054 0.000000 -24.107143L0.000000 -27.321429C0.000000 -27.466518 0.053013 -27.592076 0.159040 -27.698103C0.265067 -27.804129 0.390625 -27.857143 0.535714 -27.857143L29.464286 -27.857143C29.609375 -27.857143 29.734933 -27.804129 29.840960 -27.698103C29.946987 -27.592076 30.000000 -27.466518 30.000000 -27.321429ZM30.000000 -33.750000L30.000000 -30.535714C30.000000 -30.390625 29.946987 -30.265067 29.840960 -30.159040C29.734933 -30.053013 29.609375 -30.000000 29.464286 -30.000000L11.250000 -30.000000C11.104911 -30.000000 10.979353 -30.053013 10.873326 -30.159040C10.767299 -30.265067 10.714286 -30.390625 10.714286 -30.535714L10.714286 -33.750000C10.714286 -33.895089 10.767299 -34.020647 10.873326 -34.126674C10.979353 -34.232701 11.104911 -34.285714 11.250000 -34.285714L29.464286 -34.285714C29.609375 -34.285714 29.734933 -34.232701 29.840960 -34.126674C29.946987 -34.020647 30.000000 -33.895089 30.000000 -33.750000ZM30.000000 -40.178571L30.000000 -36.964286C30.000000 -36.819196 29.946987 -36.693638 29.840960 -36.587612C29.734933 -36.481585 29.609375 -36.428571 29.464286 -36.428571L11.250000 -36.428571C11.104911 -36.428571 10.979353 -36.481585 10.873326 -36.587612C10.767299 -36.693638 10.714286 -36.819196 10.714286 -36.964286L10.714286 -40.178571C10.714286 -40.323661 10.767299 -40.449219 10.873326 -40.555246C10.979353 -40.661272 11.104911 -40.714286 11.250000 -40.714286L29.464286 -40.714286C29.609375 -40.714286 29.734933 -40.661272 29.840960 -40.555246C29.946987 -40.449219 30.000000 -40.323661 30.000000 -40.178571ZM30.000000 -46.607143L30.000000 -43.392857C30.000000 -43.247768 29.946987 -43.122210 29.840960 -43.016183C29.734933 -42.910156 29.609375 -42.857143 29.464286 -42.857143L0.535714 -42.857143C0.390625 -42.857143 0.265067 -42.910156 0.159040 -43.016183C0.053013 -43.122210 0.000000 -43.247768 0.000000 -43.392857L0.000000 -46.607143C0.000000 -46.752232 0.053013 -46.877790 0.159040 -46.983817C0.265067 -47.089844 0.390625 -47.142857 0.535714 -47.142857L29.464286 -47.142857C29.609375 -47.142857 29.734933 -47.089844 29.840960 -46.983817C29.946987 -46.877790 30.000000 -46.752232 30.000000 -46.607143ZM30.000000 -46.607143"></path></svg>