<svg width="25.714286" height="25.714286" viewBox="0.000000 -49.285714 25.714286 25.714286" xmlns="http://www.w3.org/2000/svg"><path d="M25.714286 -48.214286L25.714286 -24.642857C25.714286 -24.352679 25.608259 -24.101562 25.396205 -23.889509C25.184152 -23.677455 24.933036 -23.571429 24.642857 -23.571429L16.071429 -23.571429C15.781250 -23.571429 15.530134 -23.677455 15.318080 -23.889509C15.106027 -24.101562 15.000000 -24.352679 15.000000 -24.642857L15.000000 -48.214286C15.000000 -48.504464 15.106027 -48.755580 15.318080 -48.967634C15.530134 -49.179688 15.781250 -49.285714 16.071429 -49.285714L24.642857 -49.285714C24.933036 -49.285714 25.184152 -49.179688 25.396205 -48.967634C25.608259 -48.755580 25.714286 -48.504464 25.714286 -48.214286ZM10.714286 -48.214286L10.714286 -24.642857C10.714286 -24.352679 10.608259 -24.101562 10.396205 -23.889509C10.184152 -23.677455 9.933036 -23.571429 9.642857 -23.571429L1.071429 -23.571429C0.781250 -23.571429 0.530134 -23.677455 0.318080 -23.889509C0.106027 -24.101562 0.000000 -24.352679 0.000000 -24.642857L0.000000 -48.214286C0.000000 -48.504464 0.106027 -48.755580 0.318080 -48.967634C0.530134 -49.179688 0.781250 -49.285714 1.071429 -49.285714L9.642857 -49.285714C9.933036 -49.285714 10.184152 -49.179688 10.396205 -48.967634C10.608259 -48.755580 10.714286 -48.504464 10.714286 -48.214286ZM10.714286 -48.214286"></path></svg>