<svg width="27.857143" height="25.714286" viewBox="0.000000 -49.285714 27.857143 25.714286" xmlns="http://www.w3.org/2000/svg"><path d="M13.058036 -43.526786C13.058036 -42.857143 12.952009 -42.223772 12.739955 -41.626674C12.527902 -41.029576 12.176339 -40.513393 11.685268 -40.078125C11.194196 -39.642857 10.608259 -39.425223 9.927455 -39.425223C9.079241 -39.425223 8.309152 -39.746094 7.617188 -40.387835C6.925223 -41.029576 6.411830 -41.785714 6.077009 -42.656250C5.742188 -43.526786 5.574777 -44.369420 5.574777 -45.184152C5.574777 -45.853795 5.680804 -46.487165 5.892857 -47.084263C6.104911 -47.681362 6.456473 -48.197545 6.947545 -48.632812C7.438616 -49.068080 8.024554 -49.285714 8.705357 -49.285714C9.564732 -49.285714 10.337612 -48.964844 11.023996 -48.323103C11.710379 -47.681362 12.220982 -46.928013 12.555804 -46.063058C12.890625 -45.198103 13.058036 -44.352679 13.058036 -43.526786ZM7.332589 -35.440848C7.332589 -34.547991 7.098214 -33.772321 6.629464 -33.113839C6.160714 -32.455357 5.496652 -32.126116 4.637277 -32.126116C3.789062 -32.126116 2.999442 -32.435826 2.268415 -33.055246C1.537388 -33.674665 0.976562 -34.419643 0.585938 -35.290179C0.195312 -36.160714 0.000000 -37.008929 0.000000 -37.834821C0.000000 -38.727679 0.234375 -39.506138 0.703125 -40.170201C1.171875 -40.834263 1.835938 -41.166295 2.695312 -41.166295C3.543527 -41.166295 4.333147 -40.856585 5.064174 -40.237165C5.795201 -39.617746 6.356027 -38.869978 6.746652 -37.993862C7.137277 -37.117746 7.332589 -36.266741 7.332589 -35.440848ZM13.928571 -35.892857C15.245536 -35.892857 16.668527 -35.348772 18.197545 -34.260603C19.726562 -33.172433 21.004464 -31.849888 22.031250 -30.292969C23.058036 -28.736049 23.571429 -27.315848 23.571429 -26.032366C23.571429 -25.518973 23.476562 -25.092076 23.286830 -24.751674C23.097098 -24.411272 22.826451 -24.160156 22.474888 -23.998326C22.123326 -23.836496 21.763393 -23.724888 21.395089 -23.663504C21.026786 -23.602121 20.602679 -23.571429 20.122768 -23.571429C19.363839 -23.571429 18.317522 -23.822545 16.983817 -24.324777C15.650112 -24.827009 14.631696 -25.078125 13.928571 -25.078125C13.191964 -25.078125 12.117746 -24.829799 10.705915 -24.333147C9.294085 -23.836496 8.175223 -23.588170 7.349330 -23.588170C5.306920 -23.588170 4.285714 -24.402902 4.285714 -26.032366C4.285714 -26.992187 4.598214 -28.060826 5.223214 -29.238281C5.848214 -30.415737 6.626674 -31.489955 7.558594 -32.460938C8.490513 -33.431920 9.536830 -34.246652 10.697545 -34.905134C11.858259 -35.563616 12.935268 -35.892857 13.928571 -35.892857ZM17.929688 -39.425223C17.248884 -39.425223 16.662946 -39.642857 16.171875 -40.078125C15.680804 -40.513393 15.329241 -41.029576 15.117188 -41.626674C14.905134 -42.223772 14.799107 -42.857143 14.799107 -43.526786C14.799107 -44.352679 14.966518 -45.198103 15.301339 -46.063058C15.636161 -46.928013 16.146763 -47.681362 16.833147 -48.323103C17.519531 -48.964844 18.292411 -49.285714 19.151786 -49.285714C19.832589 -49.285714 20.418527 -49.068080 20.909598 -48.632812C21.400670 -48.197545 21.752232 -47.681362 21.964286 -47.084263C22.176339 -46.487165 22.282366 -45.853795 22.282366 -45.184152C22.282366 -44.369420 22.114955 -43.526786 21.780134 -42.656250C21.445312 -41.785714 20.931920 -41.029576 20.239955 -40.387835C19.547991 -39.746094 18.777902 -39.425223 17.929688 -39.425223ZM25.161830 -41.166295C26.021205 -41.166295 26.685268 -40.834263 27.154018 -40.170201C27.622768 -39.506138 27.857143 -38.727679 27.857143 -37.834821C27.857143 -37.008929 27.661830 -36.160714 27.271205 -35.290179C26.880580 -34.419643 26.319754 -33.674665 25.588728 -33.055246C24.857701 -32.435826 24.068080 -32.126116 23.219866 -32.126116C22.360491 -32.126116 21.696429 -32.455357 21.227679 -33.113839C20.758929 -33.772321 20.524554 -34.547991 20.524554 -35.440848C20.524554 -36.266741 20.719866 -37.117746 21.110491 -37.993862C21.501116 -38.869978 22.061942 -39.617746 22.792969 -40.237165C23.523996 -40.856585 24.313616 -41.166295 25.161830 -41.166295ZM25.161830 -41.166295"></path></svg>