<svg width="25.714286" height="25.714286" viewBox="0.000000 -49.285714 25.714286 25.714286" xmlns="http://www.w3.org/2000/svg"><path d="M21.428571 -31.456473C21.428571 -31.579241 21.417411 -31.668527 21.395089 -31.724330C21.372768 -31.780134 21.272321 -31.872210 21.093750 -32.000558C20.915179 -32.128906 20.689174 -32.268415 20.415737 -32.419085C20.142299 -32.569754 19.877232 -32.717634 19.620536 -32.862723C19.363839 -33.007812 19.109933 -33.147321 18.858817 -33.281250C18.607701 -33.415179 18.448661 -33.498884 18.381696 -33.532366C18.325893 -33.565848 18.219866 -33.638393 18.063616 -33.750000C17.907366 -33.861607 17.767857 -33.945312 17.645089 -34.001116C17.522321 -34.056920 17.405134 -34.084821 17.293527 -34.084821C17.126116 -34.084821 16.922433 -33.970424 16.682478 -33.741629C16.442522 -33.512835 16.222098 -33.261719 16.021205 -32.988281C15.820312 -32.714844 15.605469 -32.463728 15.376674 -32.234933C15.147879 -32.006138 14.960938 -31.891741 14.815848 -31.891741C14.737723 -31.891741 14.645647 -31.911272 14.539621 -31.950335C14.433594 -31.989397 14.347098 -32.025670 14.280134 -32.059152C14.213170 -32.092634 14.118304 -32.145647 13.995536 -32.218192C13.872768 -32.290737 13.794643 -32.338170 13.761161 -32.360491C12.656250 -32.974330 11.707589 -33.680246 10.915179 -34.478237C10.122768 -35.276228 9.414062 -36.227679 8.789062 -37.332589C8.766741 -37.366071 8.719308 -37.444196 8.646763 -37.566964C8.574219 -37.689732 8.521205 -37.784598 8.487723 -37.851562C8.454241 -37.918527 8.417969 -38.005022 8.378906 -38.111049C8.339844 -38.217076 8.320312 -38.309152 8.320312 -38.387277C8.320312 -38.532366 8.434710 -38.719308 8.663504 -38.948103C8.892299 -39.176897 9.143415 -39.391741 9.416853 -39.592634C9.690290 -39.793527 9.941406 -40.013951 10.170201 -40.253906C10.398996 -40.493862 10.513393 -40.697545 10.513393 -40.864955C10.513393 -40.976562 10.485491 -41.093750 10.429688 -41.216518C10.373884 -41.339286 10.290179 -41.478795 10.178571 -41.635045C10.066964 -41.791295 9.994420 -41.897321 9.960938 -41.953125C9.927455 -42.020089 9.843750 -42.179129 9.709821 -42.430246C9.575893 -42.681362 9.436384 -42.935268 9.291295 -43.191964C9.146205 -43.448661 8.998326 -43.713728 8.847656 -43.987165C8.696987 -44.260603 8.557478 -44.486607 8.429129 -44.665179C8.300781 -44.843750 8.208705 -44.944196 8.152902 -44.966518C8.097098 -44.988839 8.007812 -45.000000 7.885045 -45.000000C7.349330 -45.000000 6.785714 -44.877232 6.194196 -44.631696C5.680804 -44.397321 5.234375 -43.869978 4.854911 -43.049665C4.475446 -42.229353 4.285714 -41.501116 4.285714 -40.864955C4.285714 -40.686384 4.299665 -40.496652 4.327567 -40.295759C4.355469 -40.094866 4.383371 -39.924665 4.411272 -39.785156C4.439174 -39.645647 4.489397 -39.461496 4.561942 -39.232701C4.634487 -39.003906 4.690290 -38.839286 4.729353 -38.738839C4.768415 -38.638393 4.838170 -38.454241 4.938616 -38.186384C5.039062 -37.918527 5.100446 -37.751116 5.122768 -37.684152C5.792411 -35.853795 7.000558 -34.065290 8.747210 -32.318638C10.493862 -30.571987 12.282366 -29.363839 14.112723 -28.694196C14.179688 -28.671875 14.347098 -28.610491 14.614955 -28.510045C14.882812 -28.409598 15.066964 -28.339844 15.167411 -28.300781C15.267857 -28.261719 15.432478 -28.205915 15.661272 -28.133371C15.890067 -28.060826 16.074219 -28.010603 16.213728 -27.982701C16.353237 -27.954799 16.523438 -27.926897 16.724330 -27.898996C16.925223 -27.871094 17.114955 -27.857143 17.293527 -27.857143C17.929688 -27.857143 18.657924 -28.046875 19.478237 -28.426339C20.298549 -28.805804 20.825893 -29.252232 21.060268 -29.765625C21.305804 -30.357143 21.428571 -30.920759 21.428571 -31.456473ZM25.714286 -44.464286L25.714286 -28.392857C25.714286 -27.064732 25.242746 -25.929129 24.299665 -24.986049C23.356585 -24.042969 22.220982 -23.571429 20.892857 -23.571429L4.821429 -23.571429C3.493304 -23.571429 2.357701 -24.042969 1.414621 -24.986049C0.471540 -25.929129 0.000000 -27.064732 0.000000 -28.392857L0.000000 -44.464286C0.000000 -45.792411 0.471540 -46.928013 1.414621 -47.871094C2.357701 -48.814174 3.493304 -49.285714 4.821429 -49.285714L20.892857 -49.285714C22.220982 -49.285714 23.356585 -48.814174 24.299665 -47.871094C25.242746 -46.928013 25.714286 -45.792411 25.714286 -44.464286ZM25.714286 -44.464286"></path></svg>