<svg width="32.142857" height="25.714286" viewBox="0.000000 -49.285714 32.142857 25.714286" xmlns="http://www.w3.org/2000/svg"><path d="M10.714286 -41.785714C10.714286 -40.892857 10.401786 -40.133929 9.776786 -39.508929C9.151786 -38.883929 8.392857 -38.571429 7.500000 -38.571429C6.607143 -38.571429 5.848214 -38.883929 5.223214 -39.508929C4.598214 -40.133929 4.285714 -40.892857 4.285714 -41.785714C4.285714 -42.678571 4.598214 -43.437500 5.223214 -44.062500C5.848214 -44.687500 6.607143 -45.000000 7.500000 -45.000000C8.392857 -45.000000 9.151786 -44.687500 9.776786 -44.062500C10.401786 -43.437500 10.714286 -42.678571 10.714286 -41.785714ZM27.857143 -35.357143L27.857143 -27.857143L4.285714 -27.857143L4.285714 -31.071429L9.642857 -36.428571L12.321429 -33.750000L20.892857 -42.321429ZM29.464286 -47.142857L2.678571 -47.142857C2.533482 -47.142857 2.407924 -47.089844 2.301897 -46.983817C2.195871 -46.877790 2.142857 -46.752232 2.142857 -46.607143L2.142857 -26.250000C2.142857 -26.104911 2.195871 -25.979353 2.301897 -25.873326C2.407924 -25.767299 2.533482 -25.714286 2.678571 -25.714286L29.464286 -25.714286C29.609375 -25.714286 29.734933 -25.767299 29.840960 -25.873326C29.946987 -25.979353 30.000000 -26.104911 30.000000 -26.250000L30.000000 -46.607143C30.000000 -46.752232 29.946987 -46.877790 29.840960 -46.983817C29.734933 -47.089844 29.609375 -47.142857 29.464286 -47.142857ZM32.142857 -46.607143L32.142857 -26.250000C32.142857 -25.513393 31.880580 -24.882812 31.356027 -24.358259C30.831473 -23.833705 30.200893 -23.571429 29.464286 -23.571429L2.678571 -23.571429C1.941964 -23.571429 1.311384 -23.833705 0.786830 -24.358259C0.262277 -24.882812 0.000000 -25.513393 0.000000 -26.250000L0.000000 -46.607143C0.000000 -47.343750 0.262277 -47.974330 0.786830 -48.498884C1.311384 -49.023438 1.941964 -49.285714 2.678571 -49.285714L29.464286 -49.285714C30.200893 -49.285714 30.831473 -49.023438 31.356027 -48.498884C31.880580 -47.974330 32.142857 -47.343750 32.142857 -46.607143ZM32.142857 -46.607143"></path></svg>