<svg width="28.928571" height="27.857143" viewBox="0.000000 -53.571429 28.928571 27.857143" xmlns="http://www.w3.org/2000/svg"><path d="M12.857143 -38.671875L21.997768 -29.531250C20.814732 -28.325893 19.433594 -27.388393 17.854353 -26.718750C16.275112 -26.049107 14.609375 -25.714286 12.857143 -25.714286C10.524554 -25.714286 8.373326 -26.289062 6.403460 -27.438616C4.433594 -28.588170 2.873884 -30.147879 1.724330 -32.117746C0.574777 -34.087612 0.000000 -36.238839 0.000000 -38.571429C0.000000 -40.904018 0.574777 -43.055246 1.724330 -45.025112C2.873884 -46.994978 4.433594 -48.554688 6.403460 -49.704241C8.373326 -50.853795 10.524554 -51.428571 12.857143 -51.428571ZM15.987723 -38.571429L28.928571 -38.571429C28.928571 -36.819196 28.593750 -35.153460 27.924107 -33.574219C27.254464 -31.994978 26.316964 -30.613839 25.111607 -29.430804ZM27.857143 -40.714286L15.000000 -40.714286L15.000000 -53.571429C17.332589 -53.571429 19.483817 -52.996652 21.453683 -51.847098C23.423549 -50.697545 24.983259 -49.137835 26.132812 -47.167969C27.282366 -45.198103 27.857143 -43.046875 27.857143 -40.714286ZM27.857143 -40.714286"></path></svg>