<svg width="25.714286" height="25.714286" viewBox="0.000000 -49.285714 25.714286 25.714286" xmlns="http://www.w3.org/2000/svg"><path d="M21.428571 -35.357143L21.428571 -37.500000C21.428571 -37.790179 21.322545 -38.041295 21.110491 -38.253348C20.898438 -38.465402 20.647321 -38.571429 20.357143 -38.571429L15.000000 -38.571429L15.000000 -43.928571C15.000000 -44.218750 14.893973 -44.469866 14.681920 -44.681920C14.469866 -44.893973 14.218750 -45.000000 13.928571 -45.000000L11.785714 -45.000000C11.495536 -45.000000 11.244420 -44.893973 11.032366 -44.681920C10.820312 -44.469866 10.714286 -44.218750 10.714286 -43.928571L10.714286 -38.571429L5.357143 -38.571429C5.066964 -38.571429 4.815848 -38.465402 4.603795 -38.253348C4.391741 -38.041295 4.285714 -37.790179 4.285714 -37.500000L4.285714 -35.357143C4.285714 -35.066964 4.391741 -34.815848 4.603795 -34.603795C4.815848 -34.391741 5.066964 -34.285714 5.357143 -34.285714L10.714286 -34.285714L10.714286 -28.928571C10.714286 -28.638393 10.820312 -28.387277 11.032366 -28.175223C11.244420 -27.963170 11.495536 -27.857143 11.785714 -27.857143L13.928571 -27.857143C14.218750 -27.857143 14.469866 -27.963170 14.681920 -28.175223C14.893973 -28.387277 15.000000 -28.638393 15.000000 -28.928571L15.000000 -34.285714L20.357143 -34.285714C20.647321 -34.285714 20.898438 -34.391741 21.110491 -34.603795C21.322545 -34.815848 21.428571 -35.066964 21.428571 -35.357143ZM25.714286 -44.464286L25.714286 -28.392857C25.714286 -27.064732 25.242746 -25.929129 24.299665 -24.986049C23.356585 -24.042969 22.220982 -23.571429 20.892857 -23.571429L4.821429 -23.571429C3.493304 -23.571429 2.357701 -24.042969 1.414621 -24.986049C0.471540 -25.929129 0.000000 -27.064732 0.000000 -28.392857L0.000000 -44.464286C0.000000 -45.792411 0.471540 -46.928013 1.414621 -47.871094C2.357701 -48.814174 3.493304 -49.285714 4.821429 -49.285714L20.892857 -49.285714C22.220982 -49.285714 23.356585 -48.814174 24.299665 -47.871094C25.242746 -46.928013 25.714286 -45.792411 25.714286 -44.464286ZM25.714286 -44.464286"></path></svg>