<svg width="23.571429" height="23.571429" viewBox="0.000000 -47.142857 23.571429 23.571429" xmlns="http://www.w3.org/2000/svg"><path d="M23.571429 -36.964286L23.571429 -33.750000C23.571429 -33.303571 23.415179 -32.924107 23.102679 -32.611607C22.790179 -32.299107 22.410714 -32.142857 21.964286 -32.142857L15.000000 -32.142857L15.000000 -25.178571C15.000000 -24.732143 14.843750 -24.352679 14.531250 -24.040179C14.218750 -23.727679 13.839286 -23.571429 13.392857 -23.571429L10.178571 -23.571429C9.732143 -23.571429 9.352679 -23.727679 9.040179 -24.040179C8.727679 -24.352679 8.571429 -24.732143 8.571429 -25.178571L8.571429 -32.142857L1.607143 -32.142857C1.160714 -32.142857 0.781250 -32.299107 0.468750 -32.611607C0.156250 -32.924107 0.000000 -33.303571 0.000000 -33.750000L0.000000 -36.964286C0.000000 -37.410714 0.156250 -37.790179 0.468750 -38.102679C0.781250 -38.415179 1.160714 -38.571429 1.607143 -38.571429L8.571429 -38.571429L8.571429 -45.535714C8.571429 -45.982143 8.727679 -46.361607 9.040179 -46.674107C9.352679 -46.986607 9.732143 -47.142857 10.178571 -47.142857L13.392857 -47.142857C13.839286 -47.142857 14.218750 -46.986607 14.531250 -46.674107C14.843750 -46.361607 15.000000 -45.982143 15.000000 -45.535714L15.000000 -38.571429L21.964286 -38.571429C22.410714 -38.571429 22.790179 -38.415179 23.102679 -38.102679C23.415179 -37.790179 23.571429 -37.410714 23.571429 -36.964286ZM23.571429 -36.964286"></path></svg>