<svg width="25.714286" height="27.857143" viewBox="0.000000 -53.571429 25.714286 27.857143" xmlns="http://www.w3.org/2000/svg"><path d="M25.714286 -38.571429C25.714286 -36.830357 25.373884 -35.167411 24.693080 -33.582589C24.012277 -31.997768 23.097098 -30.630580 21.947545 -29.481027C20.797991 -28.331473 19.430804 -27.416295 17.845982 -26.735491C16.261161 -26.054688 14.598214 -25.714286 12.857143 -25.714286C11.116071 -25.714286 9.453125 -26.054688 7.868304 -26.735491C6.283482 -27.416295 4.916295 -28.331473 3.766741 -29.481027C2.617188 -30.630580 1.702009 -31.997768 1.021205 -33.582589C0.340402 -35.167411 0.000000 -36.830357 0.000000 -38.571429C0.000000 -40.602679 0.449219 -42.516741 1.347656 -44.313616C2.246094 -46.110491 3.510045 -47.617188 5.139509 -48.833705C5.619420 -49.190848 6.152344 -49.330357 6.738281 -49.252232C7.324219 -49.174107 7.790179 -48.895089 8.136161 -48.415179C8.493304 -47.946429 8.630022 -47.419085 8.546317 -46.833147C8.462612 -46.247210 8.186384 -45.775670 7.717634 -45.418527C6.623884 -44.592634 5.778460 -43.582589 5.181362 -42.388393C4.584263 -41.194196 4.285714 -39.921875 4.285714 -38.571429C4.285714 -37.410714 4.511719 -36.303013 4.963728 -35.248326C5.415737 -34.193638 6.026786 -33.281250 6.796875 -32.511161C7.566964 -31.741071 8.479353 -31.130022 9.534040 -30.678013C10.588728 -30.226004 11.696429 -30.000000 12.857143 -30.000000C14.017857 -30.000000 15.125558 -30.226004 16.180246 -30.678013C17.234933 -31.130022 18.147321 -31.741071 18.917411 -32.511161C19.687500 -33.281250 20.298549 -34.193638 20.750558 -35.248326C21.202567 -36.303013 21.428571 -37.410714 21.428571 -38.571429C21.428571 -39.921875 21.130022 -41.194196 20.532924 -42.388393C19.935826 -43.582589 19.090402 -44.592634 17.996652 -45.418527C17.527902 -45.775670 17.251674 -46.247210 17.167969 -46.833147C17.084263 -47.419085 17.220982 -47.946429 17.578125 -48.415179C17.924107 -48.895089 18.392857 -49.174107 18.984375 -49.252232C19.575893 -49.330357 20.106027 -49.190848 20.574777 -48.833705C22.204241 -47.617188 23.468192 -46.110491 24.366629 -44.313616C25.265067 -42.516741 25.714286 -40.602679 25.714286 -38.571429ZM15.000000 -51.428571L15.000000 -40.714286C15.000000 -40.133929 14.787946 -39.631696 14.363839 -39.207589C13.939732 -38.783482 13.437500 -38.571429 12.857143 -38.571429C12.276786 -38.571429 11.774554 -38.783482 11.350446 -39.207589C10.926339 -39.631696 10.714286 -40.133929 10.714286 -40.714286L10.714286 -51.428571C10.714286 -52.008929 10.926339 -52.511161 11.350446 -52.935268C11.774554 -53.359375 12.276786 -53.571429 12.857143 -53.571429C13.437500 -53.571429 13.939732 -53.359375 14.363839 -52.935268C14.787946 -52.511161 15.000000 -52.008929 15.000000 -51.428571ZM15.000000 -51.428571"></path></svg>