<svg width="27.857143" height="23.571429" viewBox="0.000000 -47.142857 27.857143 23.571429" xmlns="http://www.w3.org/2000/svg"><path d="M12.857143 -43.928571L12.857143 -32.142857C12.857143 -30.982143 12.631138 -29.874442 12.179129 -28.819754C11.727121 -27.765067 11.116071 -26.852679 10.345982 -26.082589C9.575893 -25.312500 8.663504 -24.701451 7.608817 -24.249442C6.554129 -23.797433 5.446429 -23.571429 4.285714 -23.571429L3.214286 -23.571429C2.924107 -23.571429 2.672991 -23.677455 2.460938 -23.889509C2.248884 -24.101562 2.142857 -24.352679 2.142857 -24.642857L2.142857 -26.785714C2.142857 -27.075893 2.248884 -27.327009 2.460938 -27.539062C2.672991 -27.751116 2.924107 -27.857143 3.214286 -27.857143L4.285714 -27.857143C5.468750 -27.857143 6.478795 -28.275670 7.315848 -29.112723C8.152902 -29.949777 8.571429 -30.959821 8.571429 -32.142857L8.571429 -32.678571C8.571429 -33.125000 8.415179 -33.504464 8.102679 -33.816964C7.790179 -34.129464 7.410714 -34.285714 6.964286 -34.285714L3.214286 -34.285714C2.321429 -34.285714 1.562500 -34.598214 0.937500 -35.223214C0.312500 -35.848214 0.000000 -36.607143 0.000000 -37.500000L0.000000 -43.928571C0.000000 -44.821429 0.312500 -45.580357 0.937500 -46.205357C1.562500 -46.830357 2.321429 -47.142857 3.214286 -47.142857L9.642857 -47.142857C10.535714 -47.142857 11.294643 -46.830357 11.919643 -46.205357C12.544643 -45.580357 12.857143 -44.821429 12.857143 -43.928571ZM27.857143 -43.928571L27.857143 -32.142857C27.857143 -30.982143 27.631138 -29.874442 27.179129 -28.819754C26.727121 -27.765067 26.116071 -26.852679 25.345982 -26.082589C24.575893 -25.312500 23.663504 -24.701451 22.608817 -24.249442C21.554129 -23.797433 20.446429 -23.571429 19.285714 -23.571429L18.214286 -23.571429C17.924107 -23.571429 17.672991 -23.677455 17.460938 -23.889509C17.248884 -24.101562 17.142857 -24.352679 17.142857 -24.642857L17.142857 -26.785714C17.142857 -27.075893 17.248884 -27.327009 17.460938 -27.539062C17.672991 -27.751116 17.924107 -27.857143 18.214286 -27.857143L19.285714 -27.857143C20.468750 -27.857143 21.478795 -28.275670 22.315848 -29.112723C23.152902 -29.949777 23.571429 -30.959821 23.571429 -32.142857L23.571429 -32.678571C23.571429 -33.125000 23.415179 -33.504464 23.102679 -33.816964C22.790179 -34.129464 22.410714 -34.285714 21.964286 -34.285714L18.214286 -34.285714C17.321429 -34.285714 16.562500 -34.598214 15.937500 -35.223214C15.312500 -35.848214 15.000000 -36.607143 15.000000 -37.500000L15.000000 -43.928571C15.000000 -44.821429 15.312500 -45.580357 15.937500 -46.205357C16.562500 -46.830357 17.321429 -47.142857 18.214286 -47.142857L24.642857 -47.142857C25.535714 -47.142857 26.294643 -46.830357 26.919643 -46.205357C27.544643 -45.580357 27.857143 -44.821429 27.857143 -43.928571ZM27.857143 -43.928571"></path></svg>