<svg width="29.481027" height="30.000000" viewBox="0.251116 -55.714286 29.481027 30.000000" xmlns="http://www.w3.org/2000/svg"><path d="M0.318080 -41.082589C0.407366 -43.504464 1.054688 -45.770089 2.260045 -47.879464C3.465402 -49.988839 5.167411 -51.763393 7.366071 -53.203125C7.421875 -53.203125 7.449777 -53.203125 7.449777 -53.203125C7.449777 -53.191964 7.444196 -53.175223 7.433036 -53.152902C7.343750 -53.063616 7.187500 -52.876674 6.964286 -52.592076C6.741071 -52.307478 6.450893 -51.880580 6.093750 -51.311384C5.736607 -50.742188 5.401786 -50.125558 5.089286 -49.461496C4.776786 -48.797433 4.528460 -48.041295 4.344308 -47.193080C4.160156 -46.344866 4.082031 -45.505022 4.109933 -44.673549C4.137835 -43.842076 4.355469 -42.963170 4.762835 -42.036830C5.170201 -41.110491 5.775670 -40.251116 6.579241 -39.458705C7.137277 -38.900670 7.706473 -38.512835 8.286830 -38.295201C8.867188 -38.077567 9.372210 -38.013393 9.801897 -38.102679C10.231585 -38.191964 10.619420 -38.323103 10.965402 -38.496094C11.311384 -38.669085 11.573661 -38.850446 11.752232 -39.040179L12.020089 -39.308036C12.455357 -39.877232 12.751116 -40.527344 12.907366 -41.258371C13.063616 -41.989397 13.099888 -42.672991 13.016183 -43.309152C12.932478 -43.945312 12.815290 -44.542411 12.664621 -45.100446C12.513951 -45.658482 12.366071 -46.104911 12.220982 -46.439732L11.986607 -46.925223C11.875000 -47.204241 11.704799 -47.480469 11.476004 -47.753906C11.247210 -48.027344 11.007254 -48.256138 10.756138 -48.440290C10.505022 -48.624442 10.262277 -48.789062 10.027902 -48.934152C9.793527 -49.079241 9.598214 -49.185268 9.441964 -49.252232L9.224330 -49.352679L10.965402 -51.277902C11.400670 -51.088170 11.835938 -50.797991 12.271205 -50.407366C12.706473 -50.016741 13.035714 -49.676339 13.258929 -49.386161L13.577009 -48.934152C13.588170 -49.469866 13.484933 -50.047433 13.267299 -50.666853C13.049665 -51.286272 12.823661 -51.774554 12.589286 -52.131696L12.254464 -52.650670L14.949777 -55.714286L17.628348 -52.684152C17.260045 -52.170759 16.967076 -51.598772 16.749442 -50.968192C16.531808 -50.337612 16.406250 -49.832589 16.372768 -49.453125L16.305804 -48.900670C16.551339 -49.313616 16.894531 -49.718192 17.335379 -50.114397C17.776228 -50.510603 18.152902 -50.803571 18.465402 -50.993304L18.934152 -51.277902L20.658482 -49.352679C20.167411 -49.196429 19.693080 -48.917411 19.235491 -48.515625C18.777902 -48.113839 18.443080 -47.751116 18.231027 -47.427455L17.912946 -46.941964C17.566964 -46.316964 17.299107 -45.571987 17.109375 -44.707031C16.919643 -43.842076 16.880580 -42.893415 16.992188 -41.861049C17.103795 -40.828683 17.421875 -39.955357 17.946429 -39.241071C18.314732 -38.738839 18.747210 -38.401228 19.243862 -38.228237C19.740513 -38.055246 20.214844 -38.024554 20.666853 -38.136161C21.118862 -38.247768 21.542969 -38.395647 21.939174 -38.579799C22.335379 -38.763951 22.656250 -38.950893 22.901786 -39.140625L23.253348 -39.408482C23.922991 -40.000000 24.461496 -40.641741 24.868862 -41.333705C25.276228 -42.025670 25.546875 -42.703683 25.680804 -43.367746C25.814732 -44.031808 25.870536 -44.709821 25.848214 -45.401786C25.825893 -46.093750 25.725446 -46.752232 25.546875 -47.377232C25.368304 -48.002232 25.161830 -48.602121 24.927455 -49.176897C24.693080 -49.751674 24.439174 -50.270647 24.165737 -50.733817C23.892299 -51.196987 23.641183 -51.598772 23.412388 -51.939174C23.183594 -52.279576 22.991071 -52.544643 22.834821 -52.734375L22.617188 -53.018973C22.460938 -53.164062 22.421875 -53.236607 22.500000 -53.236607C22.611607 -53.203125 22.667411 -53.186384 22.667411 -53.186384C23.113839 -52.862723 23.462612 -52.606027 23.713728 -52.416295C23.964844 -52.226562 24.310826 -51.947545 24.751674 -51.579241C25.192522 -51.210938 25.549665 -50.887277 25.823103 -50.608259C26.096540 -50.329241 26.422991 -49.966518 26.802455 -49.520089C27.181920 -49.073661 27.491629 -48.643973 27.731585 -48.231027C27.971540 -47.818080 28.225446 -47.327009 28.493304 -46.757812C28.761161 -46.188616 28.973214 -45.613839 29.129464 -45.033482C29.285714 -44.453125 29.416853 -43.800223 29.522879 -43.074777C29.628906 -42.349330 29.687500 -41.590402 29.698661 -40.797991C29.732143 -37.907366 29.129464 -35.312500 27.890625 -33.013393C26.651786 -30.714286 24.910714 -28.922991 22.667411 -27.639509C20.424107 -26.356027 17.879464 -25.714286 15.033482 -25.714286C12.968750 -25.714286 11.010045 -26.127232 9.157366 -26.953125C7.304688 -27.779018 5.722656 -28.883929 4.411272 -30.267857C3.099888 -31.651786 2.073103 -33.286830 1.330915 -35.172991C0.588728 -37.059152 0.251116 -39.029018 0.318080 -41.082589ZM0.318080 -41.082589"></path></svg>