<svg width="27.857143" height="27.857143" viewBox="0.000000 -51.428571 27.857143 27.857143" xmlns="http://www.w3.org/2000/svg"><path d="M17.142857 -40.178571L17.142857 -39.107143C17.142857 -38.962054 17.089844 -38.836496 16.983817 -38.730469C16.877790 -38.624442 16.752232 -38.571429 16.607143 -38.571429L12.857143 -38.571429L12.857143 -34.821429C12.857143 -34.676339 12.804129 -34.550781 12.698103 -34.444754C12.592076 -34.338728 12.466518 -34.285714 12.321429 -34.285714L11.250000 -34.285714C11.104911 -34.285714 10.979353 -34.338728 10.873326 -34.444754C10.767299 -34.550781 10.714286 -34.676339 10.714286 -34.821429L10.714286 -38.571429L6.964286 -38.571429C6.819196 -38.571429 6.693638 -38.624442 6.587612 -38.730469C6.481585 -38.836496 6.428571 -38.962054 6.428571 -39.107143L6.428571 -40.178571C6.428571 -40.323661 6.481585 -40.449219 6.587612 -40.555246C6.693638 -40.661272 6.819196 -40.714286 6.964286 -40.714286L10.714286 -40.714286L10.714286 -44.464286C10.714286 -44.609375 10.767299 -44.734933 10.873326 -44.840960C10.979353 -44.946987 11.104911 -45.000000 11.250000 -45.000000L12.321429 -45.000000C12.466518 -45.000000 12.592076 -44.946987 12.698103 -44.840960C12.804129 -44.734933 12.857143 -44.609375 12.857143 -44.464286L12.857143 -40.714286L16.607143 -40.714286C16.752232 -40.714286 16.877790 -40.661272 16.983817 -40.555246C17.089844 -40.449219 17.142857 -40.323661 17.142857 -40.178571ZM19.285714 -39.642857C19.285714 -41.707589 18.551897 -43.473772 17.084263 -44.941406C15.616629 -46.409040 13.850446 -47.142857 11.785714 -47.142857C9.720982 -47.142857 7.954799 -46.409040 6.487165 -44.941406C5.019531 -43.473772 4.285714 -41.707589 4.285714 -39.642857C4.285714 -37.578125 5.019531 -35.811942 6.487165 -34.344308C7.954799 -32.876674 9.720982 -32.142857 11.785714 -32.142857C13.850446 -32.142857 15.616629 -32.876674 17.084263 -34.344308C18.551897 -35.811942 19.285714 -37.578125 19.285714 -39.642857ZM27.857143 -25.714286C27.857143 -25.122768 27.647879 -24.617746 27.229353 -24.199219C26.810826 -23.780692 26.305804 -23.571429 25.714286 -23.571429C25.111607 -23.571429 24.609375 -23.783482 24.207589 -24.207589L18.465402 -29.933036C16.467634 -28.549107 14.241071 -27.857143 11.785714 -27.857143C10.189732 -27.857143 8.663504 -28.166853 7.207031 -28.786272C5.750558 -29.405692 4.494978 -30.242746 3.440290 -31.297433C2.385603 -32.352121 1.548549 -33.607701 0.929129 -35.064174C0.309710 -36.520647 0.000000 -38.046875 0.000000 -39.642857C0.000000 -41.238839 0.309710 -42.765067 0.929129 -44.221540C1.548549 -45.678013 2.385603 -46.933594 3.440290 -47.988281C4.494978 -49.042969 5.750558 -49.880022 7.207031 -50.499442C8.663504 -51.118862 10.189732 -51.428571 11.785714 -51.428571C13.381696 -51.428571 14.907924 -51.118862 16.364397 -50.499442C17.820871 -49.880022 19.076451 -49.042969 20.131138 -47.988281C21.185826 -46.933594 22.022879 -45.678013 22.642299 -44.221540C23.261719 -42.765067 23.571429 -41.238839 23.571429 -39.642857C23.571429 -37.187500 22.879464 -34.960938 21.495536 -32.963170L27.237723 -27.220982C27.650670 -26.808036 27.857143 -26.305804 27.857143 -25.714286ZM27.857143 -25.714286"></path></svg>