<svg width="25.714286" height="25.714286" viewBox="0.000000 -49.285714 25.714286 25.714286" xmlns="http://www.w3.org/2000/svg"><path d="M20.357143 -34.285714C21.841518 -34.285714 23.105469 -33.763951 24.148996 -32.720424C25.192522 -31.676897 25.714286 -30.412946 25.714286 -28.928571C25.714286 -27.444196 25.192522 -26.180246 24.148996 -25.136719C23.105469 -24.093192 21.841518 -23.571429 20.357143 -23.571429C18.872768 -23.571429 17.608817 -24.093192 16.565290 -25.136719C15.521763 -26.180246 15.000000 -27.444196 15.000000 -28.928571C15.000000 -29.062500 15.011161 -29.252232 15.033482 -29.497768L9.006696 -32.511161C7.979911 -31.551339 6.763393 -31.071429 5.357143 -31.071429C3.872768 -31.071429 2.608817 -31.593192 1.565290 -32.636719C0.521763 -33.680246 0.000000 -34.944196 0.000000 -36.428571C0.000000 -37.912946 0.521763 -39.176897 1.565290 -40.220424C2.608817 -41.263951 3.872768 -41.785714 5.357143 -41.785714C6.763393 -41.785714 7.979911 -41.305804 9.006696 -40.345982L15.033482 -43.359375C15.011161 -43.604911 15.000000 -43.794643 15.000000 -43.928571C15.000000 -45.412946 15.521763 -46.676897 16.565290 -47.720424C17.608817 -48.763951 18.872768 -49.285714 20.357143 -49.285714C21.841518 -49.285714 23.105469 -48.763951 24.148996 -47.720424C25.192522 -46.676897 25.714286 -45.412946 25.714286 -43.928571C25.714286 -42.444196 25.192522 -41.180246 24.148996 -40.136719C23.105469 -39.093192 21.841518 -38.571429 20.357143 -38.571429C18.950893 -38.571429 17.734375 -39.051339 16.707589 -40.011161L10.680804 -36.997768C10.703125 -36.752232 10.714286 -36.562500 10.714286 -36.428571C10.714286 -36.294643 10.703125 -36.104911 10.680804 -35.859375L16.707589 -32.845982C17.734375 -33.805804 18.950893 -34.285714 20.357143 -34.285714ZM20.357143 -34.285714"></path></svg>