<svg width="27.857143" height="23.571429" viewBox="0.000000 -45.000000 27.857143 23.571429" xmlns="http://www.w3.org/2000/svg"><path d="M10.714286 -23.571429C10.714286 -22.991071 10.502232 -22.488839 10.078125 -22.064732C9.654018 -21.640625 9.151786 -21.428571 8.571429 -21.428571C7.991071 -21.428571 7.488839 -21.640625 7.064732 -22.064732C6.640625 -22.488839 6.428571 -22.991071 6.428571 -23.571429C6.428571 -24.151786 6.640625 -24.654018 7.064732 -25.078125C7.488839 -25.502232 7.991071 -25.714286 8.571429 -25.714286C9.151786 -25.714286 9.654018 -25.502232 10.078125 -25.078125C10.502232 -24.654018 10.714286 -24.151786 10.714286 -23.571429ZM25.714286 -23.571429C25.714286 -22.991071 25.502232 -22.488839 25.078125 -22.064732C24.654018 -21.640625 24.151786 -21.428571 23.571429 -21.428571C22.991071 -21.428571 22.488839 -21.640625 22.064732 -22.064732C21.640625 -22.488839 21.428571 -22.991071 21.428571 -23.571429C21.428571 -24.151786 21.640625 -24.654018 22.064732 -25.078125C22.488839 -25.502232 22.991071 -25.714286 23.571429 -25.714286C24.151786 -25.714286 24.654018 -25.502232 25.078125 -25.078125C25.502232 -24.654018 25.714286 -24.151786 25.714286 -23.571429ZM27.857143 -41.785714L27.857143 -33.214286C27.857143 -32.946429 27.765067 -32.709263 27.580915 -32.502790C27.396763 -32.296317 27.170759 -32.176339 26.902902 -32.142857L9.425223 -30.100446C9.570312 -29.430804 9.642857 -29.040179 9.642857 -28.928571C9.642857 -28.750000 9.508929 -28.392857 9.241071 -27.857143L24.642857 -27.857143C24.933036 -27.857143 25.184152 -27.751116 25.396205 -27.539062C25.608259 -27.327009 25.714286 -27.075893 25.714286 -26.785714C25.714286 -26.495536 25.608259 -26.244420 25.396205 -26.032366C25.184152 -25.820312 24.933036 -25.714286 24.642857 -25.714286L7.500000 -25.714286C7.209821 -25.714286 6.958705 -25.820312 6.746652 -26.032366C6.534598 -26.244420 6.428571 -26.495536 6.428571 -26.785714C6.428571 -26.908482 6.473214 -27.084263 6.562500 -27.313058C6.651786 -27.541853 6.741071 -27.742746 6.830357 -27.915737C6.919643 -28.088728 7.039621 -28.311942 7.190290 -28.585379C7.340960 -28.858817 7.427455 -29.023437 7.449777 -29.079241L4.486607 -42.857143L1.071429 -42.857143C0.781250 -42.857143 0.530134 -42.963170 0.318080 -43.175223C0.106027 -43.387277 0.000000 -43.638393 0.000000 -43.928571C0.000000 -44.218750 0.106027 -44.469866 0.318080 -44.681920C0.530134 -44.893973 0.781250 -45.000000 1.071429 -45.000000L5.357143 -45.000000C5.535714 -45.000000 5.694754 -44.963728 5.834263 -44.891183C5.973772 -44.818638 6.082589 -44.732143 6.160714 -44.631696C6.238839 -44.531250 6.311384 -44.394531 6.378348 -44.221540C6.445312 -44.048549 6.489955 -43.903460 6.512277 -43.786272C6.534598 -43.669085 6.565290 -43.504464 6.604353 -43.292411C6.643415 -43.080357 6.668527 -42.935268 6.679688 -42.857143L26.785714 -42.857143C27.075893 -42.857143 27.327009 -42.751116 27.539062 -42.539062C27.751116 -42.327009 27.857143 -42.075893 27.857143 -41.785714ZM27.857143 -41.785714"></path></svg>