<svg width="29.631696" height="30.156250" viewBox="0.184152 -55.870536 29.631696 30.156250" xmlns="http://www.w3.org/2000/svg"><path d="M14.614955 -43.482143C14.614955 -42.555804 14.260603 -41.760603 13.551897 -41.096540C12.843192 -40.432478 11.992188 -40.100446 10.998884 -40.100446C10.005580 -40.100446 9.154576 -40.432478 8.445871 -41.096540C7.737165 -41.760603 7.382812 -42.555804 7.382812 -43.482143C7.382812 -44.419643 7.737165 -45.217634 8.445871 -45.876116C9.154576 -46.534598 10.005580 -46.863839 10.998884 -46.863839C11.992188 -46.863839 12.843192 -46.534598 13.551897 -45.876116C14.260603 -45.217634 14.614955 -44.419643 14.614955 -43.482143ZM23.018973 -43.482143C23.018973 -42.555804 22.667411 -41.760603 21.964286 -41.096540C21.261161 -40.432478 20.407366 -40.100446 19.402902 -40.100446C18.409598 -40.100446 17.558594 -40.432478 16.849888 -41.096540C16.141183 -41.760603 15.786830 -42.555804 15.786830 -43.482143C15.786830 -44.419643 16.141183 -45.217634 16.849888 -45.876116C17.558594 -46.534598 18.409598 -46.863839 19.402902 -46.863839C20.407366 -46.863839 21.261161 -46.534598 21.964286 -45.876116C22.667411 -45.217634 23.018973 -44.419643 23.018973 -43.482143ZM26.785714 -40.468750L26.785714 -51.635045C26.785714 -52.606027 26.607143 -53.295201 26.250000 -53.702567C25.892857 -54.109933 25.273438 -54.313616 24.391741 -54.313616L5.775670 -54.313616C4.849330 -54.313616 4.221540 -54.123884 3.892299 -53.744420C3.563058 -53.364955 3.398438 -52.661830 3.398438 -51.635045L3.398438 -40.368304C3.878348 -40.111607 4.372210 -39.888393 4.880022 -39.698661C5.387835 -39.508929 5.839844 -39.352679 6.236049 -39.229911C6.632254 -39.107143 7.084263 -39.003906 7.592076 -38.920201C8.099888 -38.836496 8.496094 -38.775112 8.780692 -38.736049C9.065290 -38.696987 9.455915 -38.674665 9.952567 -38.669085C10.449219 -38.663504 10.775670 -38.660714 10.931920 -38.660714C11.088170 -38.660714 11.403460 -38.671875 11.877790 -38.694196C12.352121 -38.716518 12.600446 -38.727679 12.622768 -38.727679C13.381696 -38.738839 13.911830 -38.588170 14.213170 -38.275670C14.280134 -38.208705 14.335938 -38.158482 14.380580 -38.125000C14.670759 -37.845982 15.011161 -37.561384 15.401786 -37.271205C15.479911 -38.286830 16.138393 -38.772321 17.377232 -38.727679C17.433036 -38.727679 17.636719 -38.719308 17.988281 -38.702567C18.339844 -38.685826 18.579799 -38.674665 18.708147 -38.669085C18.836496 -38.663504 19.090402 -38.657924 19.469866 -38.652344C19.849330 -38.646763 20.145089 -38.652344 20.357143 -38.669085C20.569196 -38.685826 20.873326 -38.710938 21.269531 -38.744420C21.665737 -38.777902 22.006138 -38.825335 22.290737 -38.886719C22.575335 -38.948103 22.921317 -39.023438 23.328683 -39.112723C23.736049 -39.202009 24.109933 -39.310826 24.450335 -39.439174C24.790737 -39.567522 25.167411 -39.718192 25.580357 -39.891183C25.993304 -40.064174 26.395089 -40.256696 26.785714 -40.468750ZM29.514509 -40.552455C28.164062 -38.889509 26.088170 -37.483259 23.286830 -36.333705C24.224330 -33.152902 24.095982 -30.558036 22.901786 -28.549107C22.165179 -27.287946 21.143973 -26.462054 19.838170 -26.071429C18.677455 -25.714286 17.661830 -25.797991 16.791295 -26.322545C15.831473 -26.891741 15.373884 -27.806920 15.418527 -29.068080L15.401786 -34.525670L15.401786 -34.542411C15.312500 -34.564732 15.175781 -34.598214 14.991629 -34.642857C14.807478 -34.687500 14.676339 -34.715402 14.598214 -34.726562L14.581473 -29.068080C14.626116 -27.795759 14.162946 -26.880580 13.191964 -26.322545C12.310268 -25.797991 11.289062 -25.714286 10.128348 -26.071429C8.822545 -26.473214 7.806920 -27.310268 7.081473 -28.582589C5.909598 -30.591518 5.786830 -33.175223 6.713170 -36.333705C3.911830 -37.483259 1.835938 -38.889509 0.485491 -40.552455C0.206473 -40.965402 0.184152 -41.316964 0.418527 -41.607143C0.652902 -41.897321 0.987723 -41.891741 1.422991 -41.590402C1.467634 -41.568080 1.531808 -41.529018 1.615513 -41.473214C1.699219 -41.417411 1.757812 -41.372768 1.791295 -41.339286L1.791295 -52.957589C1.791295 -53.761161 2.053571 -54.447545 2.578125 -55.016741C3.102679 -55.585938 3.738839 -55.870536 4.486607 -55.870536L25.530134 -55.870536C26.277902 -55.870536 26.914062 -55.585938 27.438616 -55.016741C27.963170 -54.447545 28.225446 -53.761161 28.225446 -52.957589L28.225446 -41.339286L28.577009 -41.590402C29.012277 -41.891741 29.347098 -41.897321 29.581473 -41.607143C29.815848 -41.316964 29.793527 -40.965402 29.514509 -40.552455ZM29.514509 -40.552455"></path></svg>