<svg width="25.714286" height="23.571429" viewBox="0.000000 -45.000000 25.714286 23.571429" xmlns="http://www.w3.org/2000/svg"><path d="M5.892857 -25.714286L5.892857 -23.571429L0.000000 -23.571429L0.000000 -25.714286ZM11.785714 -27.857143C12.075893 -27.857143 12.327009 -27.751116 12.539062 -27.539062C12.751116 -27.327009 12.857143 -27.075893 12.857143 -26.785714L12.857143 -22.500000C12.857143 -22.209821 12.751116 -21.958705 12.539062 -21.746652C12.327009 -21.534598 12.075893 -21.428571 11.785714 -21.428571L7.500000 -21.428571C7.209821 -21.428571 6.958705 -21.534598 6.746652 -21.746652C6.534598 -21.958705 6.428571 -22.209821 6.428571 -22.500000L6.428571 -26.785714C6.428571 -27.075893 6.534598 -27.327009 6.746652 -27.539062C6.958705 -27.751116 7.209821 -27.857143 7.500000 -27.857143ZM14.464286 -34.285714L14.464286 -32.142857L0.000000 -32.142857L0.000000 -34.285714ZM3.750000 -42.857143L3.750000 -40.714286L0.000000 -40.714286L0.000000 -42.857143ZM25.714286 -25.714286L25.714286 -23.571429L13.392857 -23.571429L13.392857 -25.714286ZM9.642857 -45.000000C9.933036 -45.000000 10.184152 -44.893973 10.396205 -44.681920C10.608259 -44.469866 10.714286 -44.218750 10.714286 -43.928571L10.714286 -39.642857C10.714286 -39.352679 10.608259 -39.101562 10.396205 -38.889509C10.184152 -38.677455 9.933036 -38.571429 9.642857 -38.571429L5.357143 -38.571429C5.066964 -38.571429 4.815848 -38.677455 4.603795 -38.889509C4.391741 -39.101562 4.285714 -39.352679 4.285714 -39.642857L4.285714 -43.928571C4.285714 -44.218750 4.391741 -44.469866 4.603795 -44.681920C4.815848 -44.893973 5.066964 -45.000000 5.357143 -45.000000ZM20.357143 -36.428571C20.647321 -36.428571 20.898438 -36.322545 21.110491 -36.110491C21.322545 -35.898438 21.428571 -35.647321 21.428571 -35.357143L21.428571 -31.071429C21.428571 -30.781250 21.322545 -30.530134 21.110491 -30.318080C20.898438 -30.106027 20.647321 -30.000000 20.357143 -30.000000L16.071429 -30.000000C15.781250 -30.000000 15.530134 -30.106027 15.318080 -30.318080C15.106027 -30.530134 15.000000 -30.781250 15.000000 -31.071429L15.000000 -35.357143C15.000000 -35.647321 15.106027 -35.898438 15.318080 -36.110491C15.530134 -36.322545 15.781250 -36.428571 16.071429 -36.428571ZM25.714286 -34.285714L25.714286 -32.142857L21.964286 -32.142857L21.964286 -34.285714ZM25.714286 -42.857143L25.714286 -40.714286L11.250000 -40.714286L11.250000 -42.857143ZM25.714286 -42.857143"></path></svg>