<svg width="30.000000" height="30.000000" viewBox="0.000000 -55.714286 30.000000 30.000000" xmlns="http://www.w3.org/2000/svg"><path d="M10.195312 -42.053571L15.000000 -45.535714L19.804688 -42.053571L17.979911 -36.428571L12.036830 -36.428571ZM15.000000 -55.714286C17.031250 -55.714286 18.973214 -55.318080 20.825893 -54.525670C22.678571 -53.733259 24.274554 -52.667411 25.613839 -51.328125C26.953125 -49.988839 28.018973 -48.392857 28.811384 -46.540179C29.603795 -44.687500 30.000000 -42.745536 30.000000 -40.714286C30.000000 -38.683036 29.603795 -36.741071 28.811384 -34.888393C28.018973 -33.035714 26.953125 -31.439732 25.613839 -30.100446C24.274554 -28.761161 22.678571 -27.695312 20.825893 -26.902902C18.973214 -26.110491 17.031250 -25.714286 15.000000 -25.714286C12.968750 -25.714286 11.026786 -26.110491 9.174107 -26.902902C7.321429 -27.695312 5.725446 -28.761161 4.386161 -30.100446C3.046875 -31.439732 1.981027 -33.035714 1.188616 -34.888393C0.396205 -36.741071 0.000000 -38.683036 0.000000 -40.714286C0.000000 -42.745536 0.396205 -44.687500 1.188616 -46.540179C1.981027 -48.392857 3.046875 -49.988839 4.386161 -51.328125C5.725446 -52.667411 7.321429 -53.733259 9.174107 -54.525670C11.026786 -55.318080 12.968750 -55.714286 15.000000 -55.714286ZM25.362723 -33.113839C27.025670 -35.379464 27.857143 -37.912946 27.857143 -40.714286L27.857143 -40.764509L26.149554 -39.274554L22.131696 -43.024554L23.186384 -48.431920L25.429688 -48.231027C23.755580 -50.530134 21.584821 -52.103795 18.917411 -52.952009L19.804688 -50.876116L15.000000 -48.214286L10.195312 -50.876116L11.082589 -52.952009C8.415179 -52.103795 6.244420 -50.530134 4.570312 -48.231027L6.830357 -48.431920L7.868304 -43.024554L3.850446 -39.274554L2.142857 -40.764509L2.142857 -40.714286C2.142857 -37.912946 2.974330 -35.379464 4.637277 -33.113839L5.139509 -35.323661L10.597098 -34.654018L12.924107 -29.665179L10.982143 -28.510045C12.287946 -28.074777 13.627232 -27.857143 15.000000 -27.857143C16.372768 -27.857143 17.712054 -28.074777 19.017857 -28.510045L17.075893 -29.665179L19.402902 -34.654018L24.860491 -35.323661ZM25.362723 -33.113839"></path></svg>