<svg width="29.520089" height="30.000000" viewBox="0.479911 -55.714286 29.520089 30.000000" xmlns="http://www.w3.org/2000/svg"><path d="M20.357143 -29.464286L20.357143 -26.250000C20.357143 -26.093750 20.306920 -25.965402 20.206473 -25.864955C20.106027 -25.764509 19.977679 -25.714286 19.821429 -25.714286L15.535714 -25.714286C15.379464 -25.714286 15.251116 -25.764509 15.150670 -25.864955C15.050223 -25.965402 15.000000 -26.093750 15.000000 -26.250000L15.000000 -29.464286C15.000000 -29.620536 15.050223 -29.748884 15.150670 -29.849330C15.251116 -29.949777 15.379464 -30.000000 15.535714 -30.000000L19.821429 -30.000000C19.977679 -30.000000 20.106027 -29.949777 20.206473 -29.849330C20.306920 -29.748884 20.357143 -29.620536 20.357143 -29.464286ZM12.321429 -31.607143C12.321429 -31.473214 12.265625 -31.339286 12.154018 -31.205357L6.813616 -25.864955C6.702009 -25.764509 6.573661 -25.714286 6.428571 -25.714286C6.294643 -25.714286 6.166295 -25.764509 6.043527 -25.864955L0.686384 -31.222098C0.518973 -31.400670 0.479911 -31.595982 0.569196 -31.808036C0.658482 -32.031250 0.825893 -32.142857 1.071429 -32.142857L4.285714 -32.142857L4.285714 -55.178571C4.285714 -55.334821 4.335938 -55.463170 4.436384 -55.563616C4.536830 -55.664062 4.665179 -55.714286 4.821429 -55.714286L8.035714 -55.714286C8.191964 -55.714286 8.320312 -55.664062 8.420759 -55.563616C8.521205 -55.463170 8.571429 -55.334821 8.571429 -55.178571L8.571429 -32.142857L11.785714 -32.142857C11.941964 -32.142857 12.070312 -32.092634 12.170759 -31.992188C12.271205 -31.891741 12.321429 -31.763393 12.321429 -31.607143ZM23.571429 -38.035714L23.571429 -34.821429C23.571429 -34.665179 23.521205 -34.536830 23.420759 -34.436384C23.320312 -34.335938 23.191964 -34.285714 23.035714 -34.285714L15.535714 -34.285714C15.379464 -34.285714 15.251116 -34.335938 15.150670 -34.436384C15.050223 -34.536830 15.000000 -34.665179 15.000000 -34.821429L15.000000 -38.035714C15.000000 -38.191964 15.050223 -38.320312 15.150670 -38.420759C15.251116 -38.521205 15.379464 -38.571429 15.535714 -38.571429L23.035714 -38.571429C23.191964 -38.571429 23.320312 -38.521205 23.420759 -38.420759C23.521205 -38.320312 23.571429 -38.191964 23.571429 -38.035714ZM26.785714 -46.607143L26.785714 -43.392857C26.785714 -43.236607 26.735491 -43.108259 26.635045 -43.007812C26.534598 -42.907366 26.406250 -42.857143 26.250000 -42.857143L15.535714 -42.857143C15.379464 -42.857143 15.251116 -42.907366 15.150670 -43.007812C15.050223 -43.108259 15.000000 -43.236607 15.000000 -43.392857L15.000000 -46.607143C15.000000 -46.763393 15.050223 -46.891741 15.150670 -46.992188C15.251116 -47.092634 15.379464 -47.142857 15.535714 -47.142857L26.250000 -47.142857C26.406250 -47.142857 26.534598 -47.092634 26.635045 -46.992188C26.735491 -46.891741 26.785714 -46.763393 26.785714 -46.607143ZM30.000000 -55.178571L30.000000 -51.964286C30.000000 -51.808036 29.949777 -51.679688 29.849330 -51.579241C29.748884 -51.478795 29.620536 -51.428571 29.464286 -51.428571L15.535714 -51.428571C15.379464 -51.428571 15.251116 -51.478795 15.150670 -51.579241C15.050223 -51.679688 15.000000 -51.808036 15.000000 -51.964286L15.000000 -55.178571C15.000000 -55.334821 15.050223 -55.463170 15.150670 -55.563616C15.251116 -55.664062 15.379464 -55.714286 15.535714 -55.714286L29.464286 -55.714286C29.620536 -55.714286 29.748884 -55.664062 29.849330 -55.563616C29.949777 -55.463170 30.000000 -55.334821 30.000000 -55.178571ZM30.000000 -55.178571"></path></svg>