<svg width="17.142857" height="9.642857" viewBox="0.000000 -32.142857 17.142857 9.642857" xmlns="http://www.w3.org/2000/svg"><path d="M17.142857 -23.571429C17.142857 -23.281250 17.036830 -23.030134 16.824777 -22.818080C16.612723 -22.606027 16.361607 -22.500000 16.071429 -22.500000L1.071429 -22.500000C0.781250 -22.500000 0.530134 -22.606027 0.318080 -22.818080C0.106027 -23.030134 0.000000 -23.281250 0.000000 -23.571429C0.000000 -23.861607 0.106027 -24.112723 0.318080 -24.324777L7.818080 -31.824777C8.030134 -32.036830 8.281250 -32.142857 8.571429 -32.142857C8.861607 -32.142857 9.112723 -32.036830 9.324777 -31.824777L16.824777 -24.324777C17.036830 -24.112723 17.142857 -23.861607 17.142857 -23.571429ZM17.142857 -23.571429"></path></svg>