<svg width="24.397321" height="30.000000" viewBox="0.479911 -55.714286 24.397321 30.000000" xmlns="http://www.w3.org/2000/svg"><path d="M22.533482 -33.733259C22.533482 -34.436384 22.287946 -35.083705 21.796875 -35.675223C21.305804 -36.266741 20.731027 -36.562500 20.072545 -36.562500C19.492188 -36.562500 19.029018 -36.356027 18.683036 -35.943080C18.337054 -35.530134 18.164062 -35.005580 18.164062 -34.369420C18.164062 -33.733259 18.367746 -33.203125 18.775112 -32.779018C19.182478 -32.354911 19.765625 -32.142857 20.524554 -32.142857C21.082589 -32.142857 21.556920 -32.293527 21.947545 -32.594866C22.338170 -32.896205 22.533482 -33.275670 22.533482 -33.733259ZM12.321429 -31.607143C12.321429 -31.473214 12.265625 -31.339286 12.154018 -31.205357L6.813616 -25.864955C6.702009 -25.764509 6.573661 -25.714286 6.428571 -25.714286C6.294643 -25.714286 6.166295 -25.764509 6.043527 -25.864955L0.686384 -31.222098C0.518973 -31.400670 0.479911 -31.595982 0.569196 -31.808036C0.658482 -32.031250 0.825893 -32.142857 1.071429 -32.142857L4.285714 -32.142857L4.285714 -55.178571C4.285714 -55.334821 4.335938 -55.463170 4.436384 -55.563616C4.536830 -55.664062 4.665179 -55.714286 4.821429 -55.714286L8.035714 -55.714286C8.191964 -55.714286 8.320312 -55.664062 8.420759 -55.563616C8.521205 -55.463170 8.571429 -55.334821 8.571429 -55.178571L8.571429 -32.142857L11.785714 -32.142857C11.941964 -32.142857 12.070312 -32.092634 12.170759 -31.992188C12.271205 -31.891741 12.321429 -31.763393 12.321429 -31.607143ZM24.877232 -32.762277C24.877232 -32.070312 24.804688 -31.392299 24.659598 -30.728237C24.514509 -30.064174 24.285714 -29.428013 23.973214 -28.819754C23.660714 -28.211496 23.281250 -27.678571 22.834821 -27.220982C22.388393 -26.763393 21.838728 -26.397879 21.185826 -26.124442C20.532924 -25.851004 19.821429 -25.714286 19.051339 -25.714286C18.359375 -25.714286 17.756696 -25.803571 17.243304 -25.982143C16.975446 -26.071429 16.741071 -26.155134 16.540179 -26.233259L17.193080 -28.125000C17.360491 -28.046875 17.533482 -27.985491 17.712054 -27.940848C18.125000 -27.795759 18.543527 -27.723214 18.967634 -27.723214C19.905134 -27.723214 20.655692 -28.049665 21.219308 -28.702567C21.782924 -29.355469 22.154018 -30.167411 22.332589 -31.138393L22.299107 -31.138393C22.064732 -30.881696 21.721540 -30.675223 21.269531 -30.518973C20.817522 -30.362723 20.345982 -30.284598 19.854911 -30.284598C18.671875 -30.284598 17.706473 -30.683594 16.958705 -31.481585C16.210938 -32.279576 15.837054 -33.242188 15.837054 -34.369420C15.837054 -35.541295 16.238839 -36.534598 17.042411 -37.349330C17.845982 -38.164062 18.856027 -38.571429 20.072545 -38.571429C21.445312 -38.571429 22.589286 -38.044085 23.504464 -36.989397C24.419643 -35.934710 24.877232 -34.525670 24.877232 -32.762277ZM24.375000 -44.765625L24.375000 -42.857143L16.523438 -42.857143L16.523438 -44.765625L19.319196 -44.765625L19.319196 -51.997768C19.319196 -52.075893 19.321987 -52.181920 19.327567 -52.315848C19.333147 -52.449777 19.335938 -52.544643 19.335938 -52.600446L19.335938 -52.868304L19.302455 -52.868304L19.185268 -52.667411C19.095982 -52.522321 18.950893 -52.349330 18.750000 -52.148438L17.712054 -51.177455L16.339286 -52.617188L19.553571 -55.714286L21.612723 -55.714286L21.612723 -44.765625ZM24.375000 -44.765625"></path></svg>