<svg width="24.397321" height="30.000000" viewBox="0.479911 -55.714286 24.397321 30.000000" xmlns="http://www.w3.org/2000/svg"><path d="M22.533482 -50.876116C22.533482 -51.579241 22.287946 -52.226562 21.796875 -52.818080C21.305804 -53.409598 20.731027 -53.705357 20.072545 -53.705357C19.492188 -53.705357 19.029018 -53.498884 18.683036 -53.085938C18.337054 -52.672991 18.164062 -52.148438 18.164062 -51.512277C18.164062 -50.876116 18.367746 -50.345982 18.775112 -49.921875C19.182478 -49.497768 19.765625 -49.285714 20.524554 -49.285714C21.082589 -49.285714 21.556920 -49.436384 21.947545 -49.737723C22.338170 -50.039062 22.533482 -50.418527 22.533482 -50.876116ZM12.321429 -31.607143C12.321429 -31.473214 12.265625 -31.339286 12.154018 -31.205357L6.813616 -25.864955C6.702009 -25.764509 6.573661 -25.714286 6.428571 -25.714286C6.294643 -25.714286 6.166295 -25.764509 6.043527 -25.864955L0.686384 -31.222098C0.518973 -31.400670 0.479911 -31.595982 0.569196 -31.808036C0.658482 -32.031250 0.825893 -32.142857 1.071429 -32.142857L4.285714 -32.142857L4.285714 -55.178571C4.285714 -55.334821 4.335938 -55.463170 4.436384 -55.563616C4.536830 -55.664062 4.665179 -55.714286 4.821429 -55.714286L8.035714 -55.714286C8.191964 -55.714286 8.320312 -55.664062 8.420759 -55.563616C8.521205 -55.463170 8.571429 -55.334821 8.571429 -55.178571L8.571429 -32.142857L11.785714 -32.142857C11.941964 -32.142857 12.070312 -32.092634 12.170759 -31.992188C12.271205 -31.891741 12.321429 -31.763393 12.321429 -31.607143ZM24.375000 -27.622768L24.375000 -25.714286L16.523438 -25.714286L16.523438 -27.622768L19.319196 -27.622768L19.319196 -34.854911C19.319196 -34.933036 19.321987 -35.039062 19.327567 -35.172991C19.333147 -35.306920 19.335938 -35.401786 19.335938 -35.457589L19.335938 -35.725446L19.302455 -35.725446L19.185268 -35.524554C19.095982 -35.379464 18.950893 -35.206473 18.750000 -35.005580L17.712054 -34.034598L16.339286 -35.474330L19.553571 -38.571429L21.612723 -38.571429L21.612723 -27.622768ZM24.877232 -49.905134C24.877232 -49.213170 24.804688 -48.535156 24.659598 -47.871094C24.514509 -47.207031 24.285714 -46.570871 23.973214 -45.962612C23.660714 -45.354353 23.281250 -44.821429 22.834821 -44.363839C22.388393 -43.906250 21.838728 -43.540737 21.185826 -43.267299C20.532924 -42.993862 19.821429 -42.857143 19.051339 -42.857143C18.359375 -42.857143 17.756696 -42.946429 17.243304 -43.125000C16.975446 -43.214286 16.741071 -43.297991 16.540179 -43.376116L17.193080 -45.267857C17.360491 -45.189732 17.533482 -45.128348 17.712054 -45.083705C18.125000 -44.938616 18.543527 -44.866071 18.967634 -44.866071C19.905134 -44.866071 20.655692 -45.192522 21.219308 -45.845424C21.782924 -46.498326 22.154018 -47.310268 22.332589 -48.281250L22.299107 -48.281250C22.064732 -48.024554 21.721540 -47.818080 21.269531 -47.661830C20.817522 -47.505580 20.345982 -47.427455 19.854911 -47.427455C18.671875 -47.427455 17.706473 -47.826451 16.958705 -48.624442C16.210938 -49.422433 15.837054 -50.385045 15.837054 -51.512277C15.837054 -52.684152 16.238839 -53.677455 17.042411 -54.492188C17.845982 -55.306920 18.856027 -55.714286 20.072545 -55.714286C21.445312 -55.714286 22.589286 -55.186942 23.504464 -54.132254C24.419643 -53.077567 24.877232 -51.668527 24.877232 -49.905134ZM24.877232 -49.905134"></path></svg>