<svg width="27.857143" height="28.928571" viewBox="1.071429 -54.642857 27.857143 28.928571" xmlns="http://www.w3.org/2000/svg"><path d="M8.805804 -31.305804C8.805804 -30.714286 8.596540 -30.209263 8.178013 -29.790737C7.759487 -29.372210 7.254464 -29.162946 6.662946 -29.162946C6.082589 -29.162946 5.580357 -29.375000 5.156250 -29.799107C4.732143 -30.223214 4.520089 -30.725446 4.520089 -31.305804C4.520089 -31.897321 4.729353 -32.402344 5.147879 -32.820871C5.566406 -33.239397 6.071429 -33.448661 6.662946 -33.448661C7.254464 -33.448661 7.759487 -33.239397 8.178013 -32.820871C8.596540 -32.402344 8.805804 -31.897321 8.805804 -31.305804ZM17.142857 -27.857143C17.142857 -27.265625 16.933594 -26.760603 16.515067 -26.342076C16.096540 -25.923549 15.591518 -25.714286 15.000000 -25.714286C14.408482 -25.714286 13.903460 -25.923549 13.484933 -26.342076C13.066406 -26.760603 12.857143 -27.265625 12.857143 -27.857143C12.857143 -28.448661 13.066406 -28.953683 13.484933 -29.372210C13.903460 -29.790737 14.408482 -30.000000 15.000000 -30.000000C15.591518 -30.000000 16.096540 -29.790737 16.515067 -29.372210C16.933594 -28.953683 17.142857 -28.448661 17.142857 -27.857143ZM5.357143 -39.642857C5.357143 -39.051339 5.147879 -38.546317 4.729353 -38.127790C4.310826 -37.709263 3.805804 -37.500000 3.214286 -37.500000C2.622768 -37.500000 2.117746 -37.709263 1.699219 -38.127790C1.280692 -38.546317 1.071429 -39.051339 1.071429 -39.642857C1.071429 -40.234375 1.280692 -40.739397 1.699219 -41.157924C2.117746 -41.576451 2.622768 -41.785714 3.214286 -41.785714C3.805804 -41.785714 4.310826 -41.576451 4.729353 -41.157924C5.147879 -40.739397 5.357143 -40.234375 5.357143 -39.642857ZM25.479911 -31.305804C25.479911 -30.725446 25.267857 -30.223214 24.843750 -29.799107C24.419643 -29.375000 23.917411 -29.162946 23.337054 -29.162946C22.745536 -29.162946 22.240513 -29.372210 21.821987 -29.790737C21.403460 -30.209263 21.194196 -30.714286 21.194196 -31.305804C21.194196 -31.897321 21.403460 -32.402344 21.821987 -32.820871C22.240513 -33.239397 22.745536 -33.448661 23.337054 -33.448661C23.928571 -33.448661 24.433594 -33.239397 24.852121 -32.820871C25.270647 -32.402344 25.479911 -31.897321 25.479911 -31.305804ZM9.341518 -47.979911C9.341518 -47.243304 9.079241 -46.612723 8.554688 -46.088170C8.030134 -45.563616 7.399554 -45.301339 6.662946 -45.301339C5.926339 -45.301339 5.295759 -45.563616 4.771205 -46.088170C4.246652 -46.612723 3.984375 -47.243304 3.984375 -47.979911C3.984375 -48.716518 4.246652 -49.347098 4.771205 -49.871652C5.295759 -50.396205 5.926339 -50.658482 6.662946 -50.658482C7.399554 -50.658482 8.030134 -50.396205 8.554688 -49.871652C9.079241 -49.347098 9.341518 -48.716518 9.341518 -47.979911ZM28.928571 -39.642857C28.928571 -39.051339 28.719308 -38.546317 28.300781 -38.127790C27.882254 -37.709263 27.377232 -37.500000 26.785714 -37.500000C26.194196 -37.500000 25.689174 -37.709263 25.270647 -38.127790C24.852121 -38.546317 24.642857 -39.051339 24.642857 -39.642857C24.642857 -40.234375 24.852121 -40.739397 25.270647 -41.157924C25.689174 -41.576451 26.194196 -41.785714 26.785714 -41.785714C27.377232 -41.785714 27.882254 -41.576451 28.300781 -41.157924C28.719308 -40.739397 28.928571 -40.234375 28.928571 -39.642857ZM18.214286 -51.428571C18.214286 -50.535714 17.901786 -49.776786 17.276786 -49.151786C16.651786 -48.526786 15.892857 -48.214286 15.000000 -48.214286C14.107143 -48.214286 13.348214 -48.526786 12.723214 -49.151786C12.098214 -49.776786 11.785714 -50.535714 11.785714 -51.428571C11.785714 -52.321429 12.098214 -53.080357 12.723214 -53.705357C13.348214 -54.330357 14.107143 -54.642857 15.000000 -54.642857C15.892857 -54.642857 16.651786 -54.330357 17.276786 -53.705357C17.901786 -53.080357 18.214286 -52.321429 18.214286 -51.428571ZM27.087054 -47.979911C27.087054 -46.941964 26.718750 -46.057478 25.982143 -45.326451C25.245536 -44.595424 24.363839 -44.229911 23.337054 -44.229911C22.299107 -44.229911 21.414621 -44.595424 20.683594 -45.326451C19.952567 -46.057478 19.587054 -46.941964 19.587054 -47.979911C19.587054 -49.006696 19.952567 -49.888393 20.683594 -50.625000C21.414621 -51.361607 22.299107 -51.729911 23.337054 -51.729911C24.363839 -51.729911 25.245536 -51.361607 25.982143 -50.625000C26.718750 -49.888393 27.087054 -49.006696 27.087054 -47.979911ZM27.087054 -47.979911"></path></svg>