<svg width="23.571429" height="29.464286" viewBox="0.000000 -54.642857 23.571429 29.464286" xmlns="http://www.w3.org/2000/svg"><path d="M23.571429 -29.464286C23.571429 -28.761161 23.228237 -28.127790 22.541853 -27.564174C21.855469 -27.000558 20.940290 -26.548549 19.796317 -26.208147C18.652344 -25.867746 17.396763 -25.611049 16.029576 -25.438058C14.662388 -25.265067 13.247768 -25.178571 11.785714 -25.178571C10.323661 -25.178571 8.909040 -25.265067 7.541853 -25.438058C6.174665 -25.611049 4.919085 -25.867746 3.775112 -26.208147C2.631138 -26.548549 1.715960 -27.000558 1.029576 -27.564174C0.343192 -28.127790 0.000000 -28.761161 0.000000 -29.464286C0.000000 -30.011161 0.184152 -30.505022 0.552455 -30.945871C0.920759 -31.386719 1.428571 -31.757812 2.075893 -32.059152C2.723214 -32.360491 3.381696 -32.608817 4.051339 -32.804129C4.720982 -32.999442 5.452009 -33.164062 6.244420 -33.297991C6.534598 -33.353795 6.802455 -33.295201 7.047991 -33.122210C7.293527 -32.949219 7.438616 -32.717634 7.483259 -32.427455C7.539062 -32.137277 7.480469 -31.869420 7.307478 -31.623884C7.134487 -31.378348 6.902902 -31.233259 6.612723 -31.188616C5.965402 -31.077009 5.373884 -30.945871 4.838170 -30.795201C4.302455 -30.644531 3.875558 -30.502232 3.557478 -30.368304C3.239397 -30.234375 2.968750 -30.103237 2.745536 -29.974888C2.522321 -29.846540 2.368862 -29.737723 2.285156 -29.648437C2.201451 -29.559152 2.154018 -29.492187 2.142857 -29.447545C2.176339 -29.324777 2.327009 -29.176897 2.594866 -29.003906C2.862723 -28.830915 3.270089 -28.646763 3.816964 -28.451451C4.363839 -28.256138 5.000000 -28.074777 5.725446 -27.907366C6.450893 -27.739955 7.346540 -27.600446 8.412388 -27.488839C9.478237 -27.377232 10.602679 -27.321429 11.785714 -27.321429C12.968750 -27.321429 14.093192 -27.377232 15.159040 -27.488839C16.224888 -27.600446 17.120536 -27.739955 17.845982 -27.907366C18.571429 -28.074777 19.207589 -28.258929 19.754464 -28.459821C20.301339 -28.660714 20.708705 -28.847656 20.976562 -29.020647C21.244420 -29.193638 21.395089 -29.347098 21.428571 -29.481027C21.417411 -29.525670 21.369978 -29.587054 21.286272 -29.665179C21.202567 -29.743304 21.049107 -29.849330 20.825893 -29.983259C20.602679 -30.117187 20.332031 -30.248326 20.013951 -30.376674C19.695871 -30.505022 19.268973 -30.644531 18.733259 -30.795201C18.197545 -30.945871 17.606027 -31.077009 16.958705 -31.188616C16.668527 -31.233259 16.436942 -31.378348 16.263951 -31.623884C16.090960 -31.869420 16.032366 -32.137277 16.088170 -32.427455C16.132812 -32.717634 16.277902 -32.949219 16.523438 -33.122210C16.768973 -33.295201 17.036830 -33.353795 17.327009 -33.297991C18.119420 -33.164062 18.850446 -32.999442 19.520089 -32.804129C20.189732 -32.608817 20.848214 -32.360491 21.495536 -32.059152C22.142857 -31.757812 22.650670 -31.386719 23.018973 -30.945871C23.387277 -30.505022 23.571429 -30.011161 23.571429 -29.464286ZM17.142857 -44.464286L17.142857 -38.035714C17.142857 -37.745536 17.036830 -37.494420 16.824777 -37.282366C16.612723 -37.070312 16.361607 -36.964286 16.071429 -36.964286L15.000000 -36.964286L15.000000 -30.535714C15.000000 -30.245536 14.893973 -29.994420 14.681920 -29.782366C14.469866 -29.570312 14.218750 -29.464286 13.928571 -29.464286L9.642857 -29.464286C9.352679 -29.464286 9.101562 -29.570312 8.889509 -29.782366C8.677455 -29.994420 8.571429 -30.245536 8.571429 -30.535714L8.571429 -36.964286L7.500000 -36.964286C7.209821 -36.964286 6.958705 -37.070312 6.746652 -37.282366C6.534598 -37.494420 6.428571 -37.745536 6.428571 -38.035714L6.428571 -44.464286C6.428571 -45.055804 6.637835 -45.560826 7.056362 -45.979353C7.474888 -46.397879 7.979911 -46.607143 8.571429 -46.607143L15.000000 -46.607143C15.591518 -46.607143 16.096540 -46.397879 16.515067 -45.979353C16.933594 -45.560826 17.142857 -45.055804 17.142857 -44.464286ZM15.535714 -50.892857C15.535714 -49.854911 15.170201 -48.970424 14.439174 -48.239397C13.708147 -47.508371 12.823661 -47.142857 11.785714 -47.142857C10.747768 -47.142857 9.863281 -47.508371 9.132254 -48.239397C8.401228 -48.970424 8.035714 -49.854911 8.035714 -50.892857C8.035714 -51.930804 8.401228 -52.815290 9.132254 -53.546317C9.863281 -54.277344 10.747768 -54.642857 11.785714 -54.642857C12.823661 -54.642857 13.708147 -54.277344 14.439174 -53.546317C15.170201 -52.815290 15.535714 -51.930804 15.535714 -50.892857ZM15.535714 -50.892857"></path></svg>