<svg width="32.142857" height="24.542411" viewBox="0.000000 -47.527902 32.142857 24.542411" xmlns="http://www.w3.org/2000/svg"><path d="M17.779018 -38.337054L17.779018 -40.312500C17.779018 -40.781250 17.611607 -41.183036 17.276786 -41.517857C16.941964 -41.852679 16.540179 -42.020089 16.071429 -42.020089C15.602679 -42.020089 15.200893 -41.852679 14.866071 -41.517857C14.531250 -41.183036 14.363839 -40.781250 14.363839 -40.312500L14.363839 -30.066964C14.363839 -28.113839 13.660714 -26.445312 12.254464 -25.061384C10.848214 -23.677455 9.157366 -22.985491 7.181920 -22.985491C5.195312 -22.985491 3.501674 -23.685826 2.101004 -25.086496C0.700335 -26.487165 0.000000 -28.180804 0.000000 -30.167411L0.000000 -34.620536L5.491071 -34.620536L5.491071 -30.234375C5.491071 -29.754464 5.658482 -29.349888 5.993304 -29.020647C6.328125 -28.691406 6.729911 -28.526786 7.198661 -28.526786C7.667411 -28.526786 8.069196 -28.691406 8.404018 -29.020647C8.738839 -29.349888 8.906250 -29.754464 8.906250 -30.234375L8.906250 -40.613839C8.906250 -42.522321 9.612165 -44.151786 11.023996 -45.502232C12.435826 -46.852679 14.118304 -47.527902 16.071429 -47.527902C18.035714 -47.527902 19.720982 -46.847098 21.127232 -45.485491C22.533482 -44.123884 23.236607 -42.483259 23.236607 -40.563616L23.236607 -38.286830L19.972098 -37.315848ZM26.651786 -34.620536L32.142857 -34.620536L32.142857 -30.167411C32.142857 -28.180804 31.442522 -26.487165 30.041853 -25.086496C28.641183 -23.685826 26.947545 -22.985491 24.960938 -22.985491C22.985491 -22.985491 21.294643 -23.680246 19.888393 -25.069754C18.482143 -26.459263 17.779018 -28.136161 17.779018 -30.100446L17.779018 -34.587054L19.972098 -33.565848L23.236607 -34.536830L23.236607 -30.016741C23.236607 -29.547991 23.404018 -29.148996 23.738839 -28.819754C24.073661 -28.490513 24.475446 -28.325893 24.944196 -28.325893C25.412946 -28.325893 25.814732 -28.490513 26.149554 -28.819754C26.484375 -29.148996 26.651786 -29.547991 26.651786 -30.016741ZM26.651786 -34.620536"></path></svg>