<svg width="30.000000" height="30.000000" viewBox="0.000000 -55.714286 30.000000 30.000000" xmlns="http://www.w3.org/2000/svg"><path d="M15.000000 -55.714286C17.031250 -55.714286 18.973214 -55.318080 20.825893 -54.525670C22.678571 -53.733259 24.274554 -52.667411 25.613839 -51.328125C26.953125 -49.988839 28.018973 -48.392857 28.811384 -46.540179C29.603795 -44.687500 30.000000 -42.745536 30.000000 -40.714286C30.000000 -38.683036 29.603795 -36.741071 28.811384 -34.888393C28.018973 -33.035714 26.953125 -31.439732 25.613839 -30.100446C24.274554 -28.761161 22.678571 -27.695312 20.825893 -26.902902C18.973214 -26.110491 17.031250 -25.714286 15.000000 -25.714286C12.968750 -25.714286 11.026786 -26.110491 9.174107 -26.902902C7.321429 -27.695312 5.725446 -28.761161 4.386161 -30.100446C3.046875 -31.439732 1.981027 -33.035714 1.188616 -34.888393C0.396205 -36.741071 0.000000 -38.683036 0.000000 -40.714286C0.000000 -42.745536 0.396205 -44.687500 1.188616 -46.540179C1.981027 -48.392857 3.046875 -49.988839 4.386161 -51.328125C5.725446 -52.667411 7.321429 -53.733259 9.174107 -54.525670C11.026786 -55.318080 12.968750 -55.714286 15.000000 -55.714286ZM15.000000 -53.571429C12.879464 -53.571429 10.864955 -53.069196 8.956473 -52.064732L12.204241 -48.816964C13.119420 -49.129464 14.051339 -49.285714 15.000000 -49.285714C15.948661 -49.285714 16.880580 -49.129464 17.795759 -48.816964L21.043527 -52.064732C19.135045 -53.069196 17.120536 -53.571429 15.000000 -53.571429ZM3.649554 -34.670759L6.897321 -37.918527C6.584821 -38.833705 6.428571 -39.765625 6.428571 -40.714286C6.428571 -41.662946 6.584821 -42.594866 6.897321 -43.510045L3.649554 -46.757812C2.645089 -44.849330 2.142857 -42.834821 2.142857 -40.714286C2.142857 -38.593750 2.645089 -36.579241 3.649554 -34.670759ZM15.000000 -27.857143C17.120536 -27.857143 19.135045 -28.359375 21.043527 -29.363839L17.795759 -32.611607C16.880580 -32.299107 15.948661 -32.142857 15.000000 -32.142857C14.051339 -32.142857 13.119420 -32.299107 12.204241 -32.611607L8.956473 -29.363839C10.864955 -28.359375 12.879464 -27.857143 15.000000 -27.857143ZM15.000000 -34.285714C16.774554 -34.285714 18.289621 -34.913504 19.545201 -36.169085C20.800781 -37.424665 21.428571 -38.939732 21.428571 -40.714286C21.428571 -42.488839 20.800781 -44.003906 19.545201 -45.259487C18.289621 -46.515067 16.774554 -47.142857 15.000000 -47.142857C13.225446 -47.142857 11.710379 -46.515067 10.454799 -45.259487C9.199219 -44.003906 8.571429 -42.488839 8.571429 -40.714286C8.571429 -38.939732 9.199219 -37.424665 10.454799 -36.169085C11.710379 -34.913504 13.225446 -34.285714 15.000000 -34.285714ZM23.102679 -37.918527L26.350446 -34.670759C27.354911 -36.579241 27.857143 -38.593750 27.857143 -40.714286C27.857143 -42.834821 27.354911 -44.849330 26.350446 -46.757812L23.102679 -43.510045C23.415179 -42.594866 23.571429 -41.662946 23.571429 -40.714286C23.571429 -39.765625 23.415179 -38.833705 23.102679 -37.918527ZM23.102679 -37.918527"></path></svg>