<svg width="19.285714" height="23.571429" viewBox="0.000000 -47.142857 19.285714 23.571429" xmlns="http://www.w3.org/2000/svg"><path d="M10.714286 -25.714286C10.714286 -26.004464 10.608259 -26.255580 10.396205 -26.467634C10.184152 -26.679688 9.933036 -26.785714 9.642857 -26.785714C9.352679 -26.785714 9.101562 -26.679688 8.889509 -26.467634C8.677455 -26.255580 8.571429 -26.004464 8.571429 -25.714286C8.571429 -25.424107 8.677455 -25.172991 8.889509 -24.960937C9.101562 -24.748884 9.352679 -24.642857 9.642857 -24.642857C9.933036 -24.642857 10.184152 -24.748884 10.396205 -24.960937C10.608259 -25.172991 10.714286 -25.424107 10.714286 -25.714286ZM17.142857 -28.392857L17.142857 -44.464286C17.142857 -44.609375 17.089844 -44.734933 16.983817 -44.840960C16.877790 -44.946987 16.752232 -45.000000 16.607143 -45.000000L2.678571 -45.000000C2.533482 -45.000000 2.407924 -44.946987 2.301897 -44.840960C2.195871 -44.734933 2.142857 -44.609375 2.142857 -44.464286L2.142857 -28.392857C2.142857 -28.247768 2.195871 -28.122210 2.301897 -28.016183C2.407924 -27.910156 2.533482 -27.857143 2.678571 -27.857143L16.607143 -27.857143C16.752232 -27.857143 16.877790 -27.910156 16.983817 -28.016183C17.089844 -28.122210 17.142857 -28.247768 17.142857 -28.392857ZM19.285714 -44.464286L19.285714 -26.250000C19.285714 -25.513393 19.023438 -24.882812 18.498884 -24.358259C17.974330 -23.833705 17.343750 -23.571429 16.607143 -23.571429L2.678571 -23.571429C1.941964 -23.571429 1.311384 -23.833705 0.786830 -24.358259C0.262277 -24.882812 0.000000 -25.513393 0.000000 -26.250000L0.000000 -44.464286C0.000000 -45.200893 0.262277 -45.831473 0.786830 -46.356027C1.311384 -46.880580 1.941964 -47.142857 2.678571 -47.142857L16.607143 -47.142857C17.343750 -47.142857 17.974330 -46.880580 18.498884 -46.356027C19.023438 -45.831473 19.285714 -45.200893 19.285714 -44.464286ZM19.285714 -44.464286"></path></svg>