<svg width="25.714286" height="27.857143" viewBox="0.000000 -53.571429 25.714286 27.857143" xmlns="http://www.w3.org/2000/svg"><path d="M4.285714 -31.071429C4.285714 -31.361607 4.179688 -31.612723 3.967634 -31.824777C3.755580 -32.036830 3.504464 -32.142857 3.214286 -32.142857C2.924107 -32.142857 2.672991 -32.036830 2.460938 -31.824777C2.248884 -31.612723 2.142857 -31.361607 2.142857 -31.071429C2.142857 -30.781250 2.248884 -30.530134 2.460938 -30.318080C2.672991 -30.106027 2.924107 -30.000000 3.214286 -30.000000C3.504464 -30.000000 3.755580 -30.106027 3.967634 -30.318080C4.179688 -30.530134 4.285714 -30.781250 4.285714 -31.071429ZM23.571429 -40.714286C23.571429 -41.283482 23.353795 -41.782924 22.918527 -42.212612C22.483259 -42.642299 21.986607 -42.857143 21.428571 -42.857143L15.535714 -42.857143C15.535714 -43.504464 15.803571 -44.394531 16.339286 -45.527344C16.875000 -46.660156 17.142857 -47.555804 17.142857 -48.214286C17.142857 -49.308036 16.964286 -50.117188 16.607143 -50.641741C16.250000 -51.166295 15.535714 -51.428571 14.464286 -51.428571C14.174107 -51.138393 13.962054 -50.664062 13.828125 -50.005580C13.694196 -49.347098 13.523996 -48.646763 13.317522 -47.904576C13.111049 -47.162388 12.779018 -46.551339 12.321429 -46.071429C12.075893 -45.814732 11.646205 -45.306920 11.032366 -44.547991C10.987723 -44.492188 10.859375 -44.324777 10.647321 -44.045759C10.435268 -43.766741 10.259487 -43.537946 10.119978 -43.359375C9.980469 -43.180804 9.787946 -42.943638 9.542411 -42.647879C9.296875 -42.352121 9.073661 -42.106585 8.872768 -41.911272C8.671875 -41.715960 8.457031 -41.517857 8.228237 -41.316964C7.999442 -41.116071 7.776228 -40.965402 7.558594 -40.864955C7.340960 -40.764509 7.142857 -40.714286 6.964286 -40.714286L6.428571 -40.714286L6.428571 -30.000000L6.964286 -30.000000C7.109375 -30.000000 7.285156 -29.983259 7.491629 -29.949777C7.698103 -29.916295 7.882254 -29.880022 8.044085 -29.840960C8.205915 -29.801897 8.417969 -29.740513 8.680246 -29.656808C8.942522 -29.573103 9.137835 -29.508929 9.266183 -29.464286C9.394531 -29.419643 9.592634 -29.349888 9.860491 -29.255022C10.128348 -29.160156 10.290179 -29.101562 10.345982 -29.079241C12.700893 -28.264509 14.609375 -27.857143 16.071429 -27.857143L18.097098 -27.857143C20.239955 -27.857143 21.311384 -28.789062 21.311384 -30.652902C21.311384 -30.943080 21.283482 -31.255580 21.227679 -31.590402C21.562500 -31.768973 21.827567 -32.061942 22.022879 -32.469308C22.218192 -32.876674 22.315848 -33.286830 22.315848 -33.699777C22.315848 -34.112723 22.215402 -34.497768 22.014509 -34.854911C22.606027 -35.412946 22.901786 -36.077009 22.901786 -36.847098C22.901786 -37.126116 22.845982 -37.435826 22.734375 -37.776228C22.622768 -38.116629 22.483259 -38.381696 22.315848 -38.571429C22.672991 -38.582589 22.971540 -38.844866 23.211496 -39.358259C23.451451 -39.871652 23.571429 -40.323661 23.571429 -40.714286ZM25.714286 -40.731027C25.714286 -39.737723 25.440848 -38.828125 24.893973 -38.002232C24.994420 -37.633929 25.044643 -37.248884 25.044643 -36.847098C25.044643 -35.987723 24.832589 -35.184152 24.408482 -34.436384C24.441964 -34.202009 24.458705 -33.962054 24.458705 -33.716518C24.458705 -32.589286 24.123884 -31.595982 23.454241 -30.736607C23.465402 -29.185268 22.991071 -27.960379 22.031250 -27.061942C21.071429 -26.163504 19.804688 -25.714286 18.231027 -25.714286L17.628348 -25.714286L16.071429 -25.714286C15.000000 -25.714286 13.942522 -25.839844 12.898996 -26.090960C11.855469 -26.342076 10.647321 -26.707589 9.274554 -27.187500C7.979911 -27.633929 7.209821 -27.857143 6.964286 -27.857143L2.142857 -27.857143C1.551339 -27.857143 1.046317 -28.066406 0.627790 -28.484933C0.209263 -28.903460 0.000000 -29.408482 0.000000 -30.000000L0.000000 -40.714286C0.000000 -41.305804 0.209263 -41.810826 0.627790 -42.229353C1.046317 -42.647879 1.551339 -42.857143 2.142857 -42.857143L6.729911 -42.857143C7.131696 -43.125000 7.896205 -43.989955 9.023438 -45.452009C9.670759 -46.289062 10.267857 -47.003348 10.814732 -47.594866C11.082589 -47.873884 11.280692 -48.351004 11.409040 -49.026228C11.537388 -49.701451 11.707589 -50.407366 11.919643 -51.143973C12.131696 -51.880580 12.477679 -52.483259 12.957589 -52.952009C13.392857 -53.364955 13.895089 -53.571429 14.464286 -53.571429C15.401786 -53.571429 16.244420 -53.390067 16.992188 -53.027344C17.739955 -52.664621 18.309152 -52.098214 18.699777 -51.328125C19.090402 -50.558036 19.285714 -49.520089 19.285714 -48.214286C19.285714 -47.176339 19.017857 -46.104911 18.482143 -45.000000L21.428571 -45.000000C22.589286 -45.000000 23.593750 -44.575893 24.441964 -43.727679C25.290179 -42.879464 25.714286 -41.880580 25.714286 -40.731027ZM25.714286 -40.731027"></path></svg>