<svg width="28.208705" height="28.208705" viewBox="0.904018 -53.018973 28.208705 28.208705" xmlns="http://www.w3.org/2000/svg"><path d="M17.142857 -46.356027L22.433036 -41.065848L12.857143 -31.489955L7.566964 -36.780134ZM13.610491 -29.966518L23.956473 -40.312500C24.168527 -40.524554 24.274554 -40.775670 24.274554 -41.065848C24.274554 -41.356027 24.168527 -41.607143 23.956473 -41.819196L17.896205 -47.879464C17.695312 -48.080357 17.444196 -48.180804 17.142857 -48.180804C16.841518 -48.180804 16.590402 -48.080357 16.389509 -47.879464L6.043527 -37.533482C5.831473 -37.321429 5.725446 -37.070312 5.725446 -36.780134C5.725446 -36.489955 5.831473 -36.238839 6.043527 -36.026786L12.103795 -29.966518C12.304688 -29.765625 12.555804 -29.665179 12.857143 -29.665179C13.158482 -29.665179 13.409598 -29.765625 13.610491 -29.966518ZM28.493304 -40.630580L13.309152 -25.429688C12.896205 -25.016741 12.391183 -24.810268 11.794085 -24.810268C11.196987 -24.810268 10.691964 -25.016741 10.279018 -25.429688L8.169643 -27.539062C8.794643 -28.164062 9.107143 -28.922991 9.107143 -29.815848C9.107143 -30.708705 8.794643 -31.467634 8.169643 -32.092634C7.544643 -32.717634 6.785714 -33.030134 5.892857 -33.030134C5.000000 -33.030134 4.241071 -32.717634 3.616071 -32.092634L1.523438 -34.202009C1.110491 -34.614955 0.904018 -35.119978 0.904018 -35.717076C0.904018 -36.314174 1.110491 -36.819196 1.523438 -37.232143L16.707589 -52.399554C17.120536 -52.812500 17.625558 -53.018973 18.222656 -53.018973C18.819754 -53.018973 19.324777 -52.812500 19.737723 -52.399554L21.830357 -50.306920C21.205357 -49.681920 20.892857 -48.922991 20.892857 -48.030134C20.892857 -47.137277 21.205357 -46.378348 21.830357 -45.753348C22.455357 -45.128348 23.214286 -44.815848 24.107143 -44.815848C25.000000 -44.815848 25.758929 -45.128348 26.383929 -45.753348L28.493304 -43.660714C28.906250 -43.247768 29.112723 -42.742746 29.112723 -42.145647C29.112723 -41.548549 28.906250 -41.043527 28.493304 -40.630580ZM28.493304 -40.630580"></path></svg>