<svg width="25.714286" height="25.714286" viewBox="0.000000 -49.285714 25.714286 25.714286" xmlns="http://www.w3.org/2000/svg"><path d="M18.364955 -33.364955L15.920759 -30.920759C15.809152 -30.809152 15.680804 -30.753348 15.535714 -30.753348C15.390625 -30.753348 15.262277 -30.809152 15.150670 -30.920759L12.857143 -33.214286L10.563616 -30.920759C10.452009 -30.809152 10.323661 -30.753348 10.178571 -30.753348C10.033482 -30.753348 9.905134 -30.809152 9.793527 -30.920759L7.349330 -33.364955C7.237723 -33.476562 7.181920 -33.604911 7.181920 -33.750000C7.181920 -33.895089 7.237723 -34.023438 7.349330 -34.135045L9.642857 -36.428571L7.349330 -38.722098C7.237723 -38.833705 7.181920 -38.962054 7.181920 -39.107143C7.181920 -39.252232 7.237723 -39.380580 7.349330 -39.492188L9.793527 -41.936384C9.905134 -42.047991 10.033482 -42.103795 10.178571 -42.103795C10.323661 -42.103795 10.452009 -42.047991 10.563616 -41.936384L12.857143 -39.642857L15.150670 -41.936384C15.262277 -42.047991 15.390625 -42.103795 15.535714 -42.103795C15.680804 -42.103795 15.809152 -42.047991 15.920759 -41.936384L18.364955 -39.492188C18.476562 -39.380580 18.532366 -39.252232 18.532366 -39.107143C18.532366 -38.962054 18.476562 -38.833705 18.364955 -38.722098L16.071429 -36.428571L18.364955 -34.135045C18.476562 -34.023438 18.532366 -33.895089 18.532366 -33.750000C18.532366 -33.604911 18.476562 -33.476562 18.364955 -33.364955ZM21.964286 -36.428571C21.964286 -38.080357 21.556920 -39.603795 20.742188 -40.998884C19.927455 -42.393973 18.822545 -43.498884 17.427455 -44.313616C16.032366 -45.128348 14.508929 -45.535714 12.857143 -45.535714C11.205357 -45.535714 9.681920 -45.128348 8.286830 -44.313616C6.891741 -43.498884 5.786830 -42.393973 4.972098 -40.998884C4.157366 -39.603795 3.750000 -38.080357 3.750000 -36.428571C3.750000 -34.776786 4.157366 -33.253348 4.972098 -31.858259C5.786830 -30.463170 6.891741 -29.358259 8.286830 -28.543527C9.681920 -27.728795 11.205357 -27.321429 12.857143 -27.321429C14.508929 -27.321429 16.032366 -27.728795 17.427455 -28.543527C18.822545 -29.358259 19.927455 -30.463170 20.742188 -31.858259C21.556920 -33.253348 21.964286 -34.776786 21.964286 -36.428571ZM25.714286 -36.428571C25.714286 -34.095982 25.139509 -31.944754 23.989955 -29.974888C22.840402 -28.005022 21.280692 -26.445312 19.310826 -25.295759C17.340960 -24.146205 15.189732 -23.571429 12.857143 -23.571429C10.524554 -23.571429 8.373326 -24.146205 6.403460 -25.295759C4.433594 -26.445312 2.873884 -28.005022 1.724330 -29.974888C0.574777 -31.944754 0.000000 -34.095982 0.000000 -36.428571C0.000000 -38.761161 0.574777 -40.912388 1.724330 -42.882254C2.873884 -44.852121 4.433594 -46.411830 6.403460 -47.561384C8.373326 -48.710938 10.524554 -49.285714 12.857143 -49.285714C15.189732 -49.285714 17.340960 -48.710938 19.310826 -47.561384C21.280692 -46.411830 22.840402 -44.852121 23.989955 -42.882254C25.139509 -40.912388 25.714286 -38.761161 25.714286 -36.428571ZM25.714286 -36.428571"></path></svg>