<svg width="25.714286" height="25.714286" viewBox="0.000000 -49.285714 25.714286 25.714286" xmlns="http://www.w3.org/2000/svg"><path d="M19.168527 -40.128348C19.369420 -39.737723 19.341518 -39.369420 19.084821 -39.023438L13.727679 -31.523437C13.515625 -31.222098 13.225446 -31.071429 12.857143 -31.071429C12.488839 -31.071429 12.198661 -31.222098 11.986607 -31.523437L6.629464 -39.023438C6.372768 -39.369420 6.344866 -39.737723 6.545759 -40.128348C6.735491 -40.518973 7.053571 -40.714286 7.500000 -40.714286L18.214286 -40.714286C18.660714 -40.714286 18.978795 -40.518973 19.168527 -40.128348ZM21.428571 -28.392857L21.428571 -44.464286C21.428571 -44.609375 21.375558 -44.734933 21.269531 -44.840960C21.163504 -44.946987 21.037946 -45.000000 20.892857 -45.000000L4.821429 -45.000000C4.676339 -45.000000 4.550781 -44.946987 4.444754 -44.840960C4.338728 -44.734933 4.285714 -44.609375 4.285714 -44.464286L4.285714 -28.392857C4.285714 -28.247768 4.338728 -28.122210 4.444754 -28.016183C4.550781 -27.910156 4.676339 -27.857143 4.821429 -27.857143L20.892857 -27.857143C21.037946 -27.857143 21.163504 -27.910156 21.269531 -28.016183C21.375558 -28.122210 21.428571 -28.247768 21.428571 -28.392857ZM25.714286 -44.464286L25.714286 -28.392857C25.714286 -27.064732 25.242746 -25.929129 24.299665 -24.986049C23.356585 -24.042969 22.220982 -23.571429 20.892857 -23.571429L4.821429 -23.571429C3.493304 -23.571429 2.357701 -24.042969 1.414621 -24.986049C0.471540 -25.929129 0.000000 -27.064732 0.000000 -28.392857L0.000000 -44.464286C0.000000 -45.792411 0.471540 -46.928013 1.414621 -47.871094C2.357701 -48.814174 3.493304 -49.285714 4.821429 -49.285714L20.892857 -49.285714C22.220982 -49.285714 23.356585 -48.814174 24.299665 -47.871094C25.242746 -46.928013 25.714286 -45.792411 25.714286 -44.464286ZM25.714286 -44.464286"></path></svg>