<svg width="23.571429" height="25.714286" viewBox="0.000000 -49.285714 23.571429 25.714286" xmlns="http://www.w3.org/2000/svg"><path d="M8.571429 -39.107143L8.571429 -29.464286C8.571429 -29.308036 8.521205 -29.179687 8.420759 -29.079241C8.320312 -28.978795 8.191964 -28.928571 8.035714 -28.928571L6.964286 -28.928571C6.808036 -28.928571 6.679688 -28.978795 6.579241 -29.079241C6.478795 -29.179687 6.428571 -29.308036 6.428571 -29.464286L6.428571 -39.107143C6.428571 -39.263393 6.478795 -39.391741 6.579241 -39.492188C6.679688 -39.592634 6.808036 -39.642857 6.964286 -39.642857L8.035714 -39.642857C8.191964 -39.642857 8.320312 -39.592634 8.420759 -39.492188C8.521205 -39.391741 8.571429 -39.263393 8.571429 -39.107143ZM12.857143 -39.107143L12.857143 -29.464286C12.857143 -29.308036 12.806920 -29.179687 12.706473 -29.079241C12.606027 -28.978795 12.477679 -28.928571 12.321429 -28.928571L11.250000 -28.928571C11.093750 -28.928571 10.965402 -28.978795 10.864955 -29.079241C10.764509 -29.179687 10.714286 -29.308036 10.714286 -29.464286L10.714286 -39.107143C10.714286 -39.263393 10.764509 -39.391741 10.864955 -39.492188C10.965402 -39.592634 11.093750 -39.642857 11.250000 -39.642857L12.321429 -39.642857C12.477679 -39.642857 12.606027 -39.592634 12.706473 -39.492188C12.806920 -39.391741 12.857143 -39.263393 12.857143 -39.107143ZM17.142857 -39.107143L17.142857 -29.464286C17.142857 -29.308036 17.092634 -29.179687 16.992188 -29.079241C16.891741 -28.978795 16.763393 -28.928571 16.607143 -28.928571L15.535714 -28.928571C15.379464 -28.928571 15.251116 -28.978795 15.150670 -29.079241C15.050223 -29.179687 15.000000 -29.308036 15.000000 -29.464286L15.000000 -39.107143C15.000000 -39.263393 15.050223 -39.391741 15.150670 -39.492188C15.251116 -39.592634 15.379464 -39.642857 15.535714 -39.642857L16.607143 -39.642857C16.763393 -39.642857 16.891741 -39.592634 16.992188 -39.492188C17.092634 -39.391741 17.142857 -39.263393 17.142857 -39.107143ZM19.285714 -26.986607L19.285714 -42.857143L4.285714 -42.857143L4.285714 -26.986607C4.285714 -26.741071 4.324777 -26.515067 4.402902 -26.308594C4.481027 -26.102121 4.561942 -25.951451 4.645647 -25.856585C4.729353 -25.761719 4.787946 -25.714286 4.821429 -25.714286L18.750000 -25.714286C18.783482 -25.714286 18.842076 -25.761719 18.925781 -25.856585C19.009487 -25.951451 19.090402 -26.102121 19.168527 -26.308594C19.246652 -26.515067 19.285714 -26.741071 19.285714 -26.986607ZM8.035714 -45.000000L15.535714 -45.000000L14.732143 -46.958705C14.654018 -47.059152 14.559152 -47.120536 14.447545 -47.142857L9.140625 -47.142857C9.029018 -47.120536 8.934152 -47.059152 8.856027 -46.958705ZM23.571429 -44.464286L23.571429 -43.392857C23.571429 -43.236607 23.521205 -43.108259 23.420759 -43.007812C23.320312 -42.907366 23.191964 -42.857143 23.035714 -42.857143L21.428571 -42.857143L21.428571 -26.986607C21.428571 -26.060268 21.166295 -25.259487 20.641741 -24.584263C20.117188 -23.909040 19.486607 -23.571429 18.750000 -23.571429L4.821429 -23.571429C4.084821 -23.571429 3.454241 -23.897879 2.929688 -24.550781C2.405134 -25.203683 2.142857 -25.993304 2.142857 -26.919643L2.142857 -42.857143L0.535714 -42.857143C0.379464 -42.857143 0.251116 -42.907366 0.150670 -43.007812C0.050223 -43.108259 0.000000 -43.236607 0.000000 -43.392857L0.000000 -44.464286C0.000000 -44.620536 0.050223 -44.748884 0.150670 -44.849330C0.251116 -44.949777 0.379464 -45.000000 0.535714 -45.000000L5.708705 -45.000000L6.880580 -47.795759C7.047991 -48.208705 7.349330 -48.560268 7.784598 -48.850446C8.219866 -49.140625 8.660714 -49.285714 9.107143 -49.285714L14.464286 -49.285714C14.910714 -49.285714 15.351562 -49.140625 15.786830 -48.850446C16.222098 -48.560268 16.523438 -48.208705 16.690848 -47.795759L17.862723 -45.000000L23.035714 -45.000000C23.191964 -45.000000 23.320312 -44.949777 23.420759 -44.849330C23.521205 -44.748884 23.571429 -44.620536 23.571429 -44.464286ZM23.571429 -44.464286"></path></svg>