<svg width="27.857143" height="27.857143" viewBox="0.000000 -53.571429 27.857143 27.857143" xmlns="http://www.w3.org/2000/svg"><path d="M7.349330 -32.293527L3.063616 -28.007812C2.940848 -27.907366 2.812500 -27.857143 2.678571 -27.857143C2.544643 -27.857143 2.416295 -27.907366 2.293527 -28.007812C2.193080 -28.119420 2.142857 -28.247768 2.142857 -28.392857C2.142857 -28.537946 2.193080 -28.666295 2.293527 -28.777902L6.579241 -33.063616C6.690848 -33.164062 6.819196 -33.214286 6.964286 -33.214286C7.109375 -33.214286 7.237723 -33.164062 7.349330 -33.063616C7.449777 -32.952009 7.500000 -32.823661 7.500000 -32.678571C7.500000 -32.533482 7.449777 -32.405134 7.349330 -32.293527ZM10.178571 -31.607143L10.178571 -26.250000C10.178571 -26.093750 10.128348 -25.965402 10.027902 -25.864955C9.927455 -25.764509 9.799107 -25.714286 9.642857 -25.714286C9.486607 -25.714286 9.358259 -25.764509 9.257812 -25.864955C9.157366 -25.965402 9.107143 -26.093750 9.107143 -26.250000L9.107143 -31.607143C9.107143 -31.763393 9.157366 -31.891741 9.257812 -31.992188C9.358259 -32.092634 9.486607 -32.142857 9.642857 -32.142857C9.799107 -32.142857 9.927455 -32.092634 10.027902 -31.992188C10.128348 -31.891741 10.178571 -31.763393 10.178571 -31.607143ZM6.428571 -35.357143C6.428571 -35.200893 6.378348 -35.072545 6.277902 -34.972098C6.177455 -34.871652 6.049107 -34.821429 5.892857 -34.821429L0.535714 -34.821429C0.379464 -34.821429 0.251116 -34.871652 0.150670 -34.972098C0.050223 -35.072545 0.000000 -35.200893 0.000000 -35.357143C0.000000 -35.513393 0.050223 -35.641741 0.150670 -35.742188C0.251116 -35.842634 0.379464 -35.892857 0.535714 -35.892857L5.892857 -35.892857C6.049107 -35.892857 6.177455 -35.842634 6.277902 -35.742188C6.378348 -35.641741 6.428571 -35.513393 6.428571 -35.357143ZM27.589286 -33.214286C27.589286 -31.875000 27.114955 -30.742188 26.166295 -29.815848L23.705357 -27.371652C22.779018 -26.445312 21.646205 -25.982143 20.306920 -25.982143C18.956473 -25.982143 17.818080 -26.456473 16.891741 -27.405134L11.300223 -33.013393C11.065848 -33.247768 10.831473 -33.560268 10.597098 -33.950893L14.598214 -34.252232L19.168527 -29.665179C19.469866 -29.363839 19.849330 -29.210379 20.306920 -29.204799C20.764509 -29.199219 21.143973 -29.347098 21.445312 -29.648438L23.906250 -32.092634C24.218750 -32.405134 24.375000 -32.779018 24.375000 -33.214286C24.375000 -33.660714 24.218750 -34.040179 23.906250 -34.352679L19.319196 -38.956473L19.620536 -42.957589C20.011161 -42.723214 20.323661 -42.488839 20.558036 -42.254464L26.183036 -36.629464C27.120536 -35.669643 27.589286 -34.531250 27.589286 -33.214286ZM17.260045 -45.334821L13.258929 -45.033482L8.688616 -49.620536C8.376116 -49.933036 7.996652 -50.089286 7.550223 -50.089286C7.114955 -50.089286 6.735491 -49.938616 6.411830 -49.637277L3.950893 -47.193080C3.638393 -46.880580 3.482143 -46.506696 3.482143 -46.071429C3.482143 -45.625000 3.638393 -45.245536 3.950893 -44.933036L8.537946 -40.345982L8.236607 -36.328125C7.845982 -36.562500 7.533482 -36.796875 7.299107 -37.031250L1.674107 -42.656250C0.736607 -43.616071 0.267857 -44.754464 0.267857 -46.071429C0.267857 -47.410714 0.742188 -48.543527 1.690848 -49.469866L4.151786 -51.914062C5.078125 -52.840402 6.210938 -53.303571 7.550223 -53.303571C8.900670 -53.303571 10.039062 -52.829241 10.965402 -51.880580L16.556920 -46.272321C16.791295 -46.037946 17.025670 -45.725446 17.260045 -45.334821ZM27.857143 -43.928571C27.857143 -43.772321 27.806920 -43.643973 27.706473 -43.543527C27.606027 -43.443080 27.477679 -43.392857 27.321429 -43.392857L21.964286 -43.392857C21.808036 -43.392857 21.679688 -43.443080 21.579241 -43.543527C21.478795 -43.643973 21.428571 -43.772321 21.428571 -43.928571C21.428571 -44.084821 21.478795 -44.213170 21.579241 -44.313616C21.679688 -44.414062 21.808036 -44.464286 21.964286 -44.464286L27.321429 -44.464286C27.477679 -44.464286 27.606027 -44.414062 27.706473 -44.313616C27.806920 -44.213170 27.857143 -44.084821 27.857143 -43.928571ZM18.750000 -53.035714L18.750000 -47.678571C18.750000 -47.522321 18.699777 -47.393973 18.599330 -47.293527C18.498884 -47.193080 18.370536 -47.142857 18.214286 -47.142857C18.058036 -47.142857 17.929688 -47.193080 17.829241 -47.293527C17.728795 -47.393973 17.678571 -47.522321 17.678571 -47.678571L17.678571 -53.035714C17.678571 -53.191964 17.728795 -53.320312 17.829241 -53.420759C17.929688 -53.521205 18.058036 -53.571429 18.214286 -53.571429C18.370536 -53.571429 18.498884 -53.521205 18.599330 -53.420759C18.699777 -53.320312 18.750000 -53.191964 18.750000 -53.035714ZM25.563616 -50.507812L21.277902 -46.222098C21.155134 -46.121652 21.026786 -46.071429 20.892857 -46.071429C20.758929 -46.071429 20.630580 -46.121652 20.507812 -46.222098C20.407366 -46.333705 20.357143 -46.462054 20.357143 -46.607143C20.357143 -46.752232 20.407366 -46.880580 20.507812 -46.992188L24.793527 -51.277902C24.905134 -51.378348 25.033482 -51.428571 25.178571 -51.428571C25.323661 -51.428571 25.452009 -51.378348 25.563616 -51.277902C25.664062 -51.166295 25.714286 -51.037946 25.714286 -50.892857C25.714286 -50.747768 25.664062 -50.619420 25.563616 -50.507812ZM25.563616 -50.507812"></path></svg>