<svg width="19.285714" height="25.714286" viewBox="0.000000 -51.428571 19.285714 25.714286" xmlns="http://www.w3.org/2000/svg"><path d="M17.678571 -38.571429C18.125000 -38.571429 18.504464 -38.415179 18.816964 -38.102679C19.129464 -37.790179 19.285714 -37.410714 19.285714 -36.964286L19.285714 -27.321429C19.285714 -26.875000 19.129464 -26.495536 18.816964 -26.183036C18.504464 -25.870536 18.125000 -25.714286 17.678571 -25.714286L1.607143 -25.714286C1.160714 -25.714286 0.781250 -25.870536 0.468750 -26.183036C0.156250 -26.495536 0.000000 -26.875000 0.000000 -27.321429L0.000000 -36.964286C0.000000 -37.410714 0.156250 -37.790179 0.468750 -38.102679C0.781250 -38.415179 1.160714 -38.571429 1.607143 -38.571429L2.142857 -38.571429L2.142857 -43.928571C2.142857 -45.993304 2.876674 -47.759487 4.344308 -49.227121C5.811942 -50.694754 7.578125 -51.428571 9.642857 -51.428571C11.707589 -51.428571 13.473772 -50.694754 14.941406 -49.227121C16.409040 -47.759487 17.142857 -45.993304 17.142857 -43.928571C17.142857 -43.638393 17.036830 -43.387277 16.824777 -43.175223C16.612723 -42.963170 16.361607 -42.857143 16.071429 -42.857143L15.000000 -42.857143C14.709821 -42.857143 14.458705 -42.963170 14.246652 -43.175223C14.034598 -43.387277 13.928571 -43.638393 13.928571 -43.928571C13.928571 -45.111607 13.510045 -46.121652 12.672991 -46.958705C11.835938 -47.795759 10.825893 -48.214286 9.642857 -48.214286C8.459821 -48.214286 7.449777 -47.795759 6.612723 -46.958705C5.775670 -46.121652 5.357143 -45.111607 5.357143 -43.928571L5.357143 -38.571429ZM17.678571 -38.571429"></path></svg>