<svg width="32.142857" height="30.000000" viewBox="0.000000 -55.714286 32.142857 30.000000" xmlns="http://www.w3.org/2000/svg"><path d="M9.927455 -40.714286C8.119420 -40.658482 6.640625 -39.944196 5.491071 -38.571429L3.247768 -38.571429C2.332589 -38.571429 1.562500 -38.797433 0.937500 -39.249442C0.312500 -39.701451 0.000000 -40.362723 0.000000 -41.233259C0.000000 -45.172991 0.691964 -47.142857 2.075893 -47.142857C2.142857 -47.142857 2.385603 -47.025670 2.804129 -46.791295C3.222656 -46.556920 3.766741 -46.319754 4.436384 -46.079799C5.106027 -45.839844 5.770089 -45.719866 6.428571 -45.719866C7.176339 -45.719866 7.918527 -45.848214 8.655134 -46.104911C8.599330 -45.691964 8.571429 -45.323661 8.571429 -45.000000C8.571429 -43.448661 9.023438 -42.020089 9.927455 -40.714286ZM27.857143 -30.050223C27.857143 -28.710938 27.449777 -27.653460 26.635045 -26.877790C25.820312 -26.102121 24.737723 -25.714286 23.387277 -25.714286L8.755580 -25.714286C7.405134 -25.714286 6.322545 -26.102121 5.507812 -26.877790C4.693080 -27.653460 4.285714 -28.710938 4.285714 -30.050223C4.285714 -30.641741 4.305246 -31.219308 4.344308 -31.782924C4.383371 -32.346540 4.461496 -32.954799 4.578683 -33.607701C4.695871 -34.260603 4.843750 -34.866071 5.022321 -35.424107C5.200893 -35.982143 5.440848 -36.526228 5.742188 -37.056362C6.043527 -37.586496 6.389509 -38.038504 6.780134 -38.412388C7.170759 -38.786272 7.647879 -39.084821 8.211496 -39.308036C8.775112 -39.531250 9.397321 -39.642857 10.078125 -39.642857C10.189732 -39.642857 10.429688 -39.522879 10.797991 -39.282924C11.166295 -39.042969 11.573661 -38.775112 12.020089 -38.479353C12.466518 -38.183594 13.063616 -37.915737 13.811384 -37.675781C14.559152 -37.435826 15.312500 -37.315848 16.071429 -37.315848C16.830357 -37.315848 17.583705 -37.435826 18.331473 -37.675781C19.079241 -37.915737 19.676339 -38.183594 20.122768 -38.479353C20.569196 -38.775112 20.976562 -39.042969 21.344866 -39.282924C21.713170 -39.522879 21.953125 -39.642857 22.064732 -39.642857C22.745536 -39.642857 23.367746 -39.531250 23.931362 -39.308036C24.494978 -39.084821 24.972098 -38.786272 25.362723 -38.412388C25.753348 -38.038504 26.099330 -37.586496 26.400670 -37.056362C26.702009 -36.526228 26.941964 -35.982143 27.120536 -35.424107C27.299107 -34.866071 27.446987 -34.260603 27.564174 -33.607701C27.681362 -32.954799 27.759487 -32.346540 27.798549 -31.782924C27.837612 -31.219308 27.857143 -30.641741 27.857143 -30.050223ZM10.714286 -51.428571C10.714286 -50.245536 10.295759 -49.235491 9.458705 -48.398438C8.621652 -47.561384 7.611607 -47.142857 6.428571 -47.142857C5.245536 -47.142857 4.235491 -47.561384 3.398438 -48.398438C2.561384 -49.235491 2.142857 -50.245536 2.142857 -51.428571C2.142857 -52.611607 2.561384 -53.621652 3.398438 -54.458705C4.235491 -55.295759 5.245536 -55.714286 6.428571 -55.714286C7.611607 -55.714286 8.621652 -55.295759 9.458705 -54.458705C10.295759 -53.621652 10.714286 -52.611607 10.714286 -51.428571ZM22.500000 -45.000000C22.500000 -43.225446 21.872210 -41.710379 20.616629 -40.454799C19.361049 -39.199219 17.845982 -38.571429 16.071429 -38.571429C14.296875 -38.571429 12.781808 -39.199219 11.526228 -40.454799C10.270647 -41.710379 9.642857 -43.225446 9.642857 -45.000000C9.642857 -46.774554 10.270647 -48.289621 11.526228 -49.545201C12.781808 -50.800781 14.296875 -51.428571 16.071429 -51.428571C17.845982 -51.428571 19.361049 -50.800781 20.616629 -49.545201C21.872210 -48.289621 22.500000 -46.774554 22.500000 -45.000000ZM32.142857 -41.233259C32.142857 -40.362723 31.830357 -39.701451 31.205357 -39.249442C30.580357 -38.797433 29.810268 -38.571429 28.895089 -38.571429L26.651786 -38.571429C25.502232 -39.944196 24.023438 -40.658482 22.215402 -40.714286C23.119420 -42.020089 23.571429 -43.448661 23.571429 -45.000000C23.571429 -45.323661 23.543527 -45.691964 23.487723 -46.104911C24.224330 -45.848214 24.966518 -45.719866 25.714286 -45.719866C26.372768 -45.719866 27.036830 -45.839844 27.706473 -46.079799C28.376116 -46.319754 28.920201 -46.556920 29.338728 -46.791295C29.757254 -47.025670 30.000000 -47.142857 30.066964 -47.142857C31.450893 -47.142857 32.142857 -45.172991 32.142857 -41.233259ZM30.000000 -51.428571C30.000000 -50.245536 29.581473 -49.235491 28.744420 -48.398438C27.907366 -47.561384 26.897321 -47.142857 25.714286 -47.142857C24.531250 -47.142857 23.521205 -47.561384 22.684152 -48.398438C21.847098 -49.235491 21.428571 -50.245536 21.428571 -51.428571C21.428571 -52.611607 21.847098 -53.621652 22.684152 -54.458705C23.521205 -55.295759 24.531250 -55.714286 25.714286 -55.714286C26.897321 -55.714286 27.907366 -55.295759 28.744420 -54.458705C29.581473 -53.621652 30.000000 -52.611607 30.000000 -51.428571ZM30.000000 -51.428571"></path></svg>