<svg width="34.285714" height="25.714286" viewBox="0.000000 -49.285714 34.285714 25.714286" xmlns="http://www.w3.org/2000/svg"><path d="M11.785714 -36.428571C10.011161 -36.428571 8.496094 -37.056362 7.240513 -38.311942C5.984933 -39.567522 5.357143 -41.082589 5.357143 -42.857143C5.357143 -44.631696 5.984933 -46.146763 7.240513 -47.402344C8.496094 -48.657924 10.011161 -49.285714 11.785714 -49.285714C13.560268 -49.285714 15.075335 -48.657924 16.330915 -47.402344C17.586496 -46.146763 18.214286 -44.631696 18.214286 -42.857143C18.214286 -41.082589 17.586496 -39.567522 16.330915 -38.311942C15.075335 -37.056362 13.560268 -36.428571 11.785714 -36.428571ZM27.857143 -34.285714L33.750000 -34.285714C33.895089 -34.285714 34.020647 -34.232701 34.126674 -34.126674C34.232701 -34.020647 34.285714 -33.895089 34.285714 -33.750000L34.285714 -30.535714C34.285714 -30.390625 34.232701 -30.265067 34.126674 -30.159040C34.020647 -30.053013 33.895089 -30.000000 33.750000 -30.000000L27.857143 -30.000000L27.857143 -24.107143C27.857143 -23.962054 27.804129 -23.836496 27.698103 -23.730469C27.592076 -23.624442 27.466518 -23.571429 27.321429 -23.571429L24.107143 -23.571429C23.962054 -23.571429 23.836496 -23.624442 23.730469 -23.730469C23.624442 -23.836496 23.571429 -23.962054 23.571429 -24.107143L23.571429 -30.000000L17.678571 -30.000000C17.533482 -30.000000 17.407924 -30.053013 17.301897 -30.159040C17.195871 -30.265067 17.142857 -30.390625 17.142857 -30.535714L17.142857 -33.750000C17.142857 -33.895089 17.195871 -34.020647 17.301897 -34.126674C17.407924 -34.232701 17.533482 -34.285714 17.678571 -34.285714L23.571429 -34.285714L23.571429 -40.178571C23.571429 -40.323661 23.624442 -40.449219 23.730469 -40.555246C23.836496 -40.661272 23.962054 -40.714286 24.107143 -40.714286L27.321429 -40.714286C27.466518 -40.714286 27.592076 -40.661272 27.698103 -40.555246C27.804129 -40.449219 27.857143 -40.323661 27.857143 -40.178571ZM15.535714 -30.535714C15.535714 -29.955357 15.747768 -29.453125 16.171875 -29.029018C16.595982 -28.604911 17.098214 -28.392857 17.678571 -28.392857L21.964286 -28.392857L21.964286 -24.408482C21.205357 -23.850446 20.251116 -23.571429 19.101562 -23.571429L4.469866 -23.571429C3.119420 -23.571429 2.036830 -23.956473 1.222098 -24.726562C0.407366 -25.496652 0.000000 -26.556920 0.000000 -27.907366C0.000000 -28.498884 0.019531 -29.076451 0.058594 -29.640067C0.097656 -30.203683 0.175781 -30.811942 0.292969 -31.464844C0.410156 -32.117746 0.558036 -32.723214 0.736607 -33.281250C0.915179 -33.839286 1.155134 -34.383371 1.456473 -34.913504C1.757812 -35.443638 2.103795 -35.895647 2.494420 -36.269531C2.885045 -36.643415 3.362165 -36.941964 3.925781 -37.165179C4.489397 -37.388393 5.111607 -37.500000 5.792411 -37.500000C6.004464 -37.500000 6.222098 -37.405134 6.445312 -37.215402C7.327009 -36.534598 8.189174 -36.023996 9.031808 -35.683594C9.874442 -35.343192 10.792411 -35.172991 11.785714 -35.172991C12.779018 -35.172991 13.696987 -35.343192 14.539621 -35.683594C15.382254 -36.023996 16.244420 -36.534598 17.126116 -37.215402C17.349330 -37.405134 17.566964 -37.500000 17.779018 -37.500000C19.252232 -37.500000 20.463170 -36.964286 21.411830 -35.892857L17.678571 -35.892857C17.098214 -35.892857 16.595982 -35.680804 16.171875 -35.256696C15.747768 -34.832589 15.535714 -34.330357 15.535714 -33.750000ZM15.535714 -30.535714"></path></svg>