<svg width="30.000000" height="21.428571" viewBox="0.000000 -42.857143 30.000000 21.428571" xmlns="http://www.w3.org/2000/svg"><path d="M30.000000 -41.250000L30.000000 -23.035714C30.000000 -22.566964 29.782366 -22.237723 29.347098 -22.047991C29.202009 -21.992188 29.062500 -21.964286 28.928571 -21.964286C28.627232 -21.964286 28.376116 -22.070312 28.175223 -22.282366L21.428571 -29.029018L21.428571 -26.250000C21.428571 -24.921875 20.957031 -23.786272 20.013951 -22.843192C19.070871 -21.900112 17.935268 -21.428571 16.607143 -21.428571L4.821429 -21.428571C3.493304 -21.428571 2.357701 -21.900112 1.414621 -22.843192C0.471540 -23.786272 0.000000 -24.921875 0.000000 -26.250000L0.000000 -38.035714C0.000000 -39.363839 0.471540 -40.499442 1.414621 -41.442522C2.357701 -42.385603 3.493304 -42.857143 4.821429 -42.857143L16.607143 -42.857143C17.935268 -42.857143 19.070871 -42.385603 20.013951 -41.442522C20.957031 -40.499442 21.428571 -39.363839 21.428571 -38.035714L21.428571 -35.273438L28.175223 -42.003348C28.376116 -42.215402 28.627232 -42.321429 28.928571 -42.321429C29.062500 -42.321429 29.202009 -42.293527 29.347098 -42.237723C29.782366 -42.047991 30.000000 -41.718750 30.000000 -41.250000ZM30.000000 -41.250000"></path></svg>