<svg width="30.000000" height="30.000000" viewBox="0.000000 -55.714286 30.000000 30.000000" xmlns="http://www.w3.org/2000/svg"><path d="M2.126116 -40.714286C2.126116 -42.533482 2.500000 -44.280134 3.247768 -45.954241L9.391741 -29.129464C7.204241 -30.189732 5.446429 -31.757812 4.118304 -33.833705C2.790179 -35.909598 2.126116 -38.203125 2.126116 -40.714286ZM23.688616 -41.367188C23.688616 -41.155134 23.674665 -40.940290 23.646763 -40.722656C23.618862 -40.505022 23.563058 -40.228795 23.479353 -39.893973C23.395647 -39.559152 23.331473 -39.313616 23.286830 -39.157366C23.242188 -39.001116 23.144531 -38.671875 22.993862 -38.169643C22.843192 -37.667411 22.745536 -37.343750 22.700893 -37.198661L21.428571 -32.912946L16.774554 -46.741071C17.287946 -46.774554 17.779018 -46.819196 18.247768 -46.875000C18.459821 -46.897321 18.604911 -47.000558 18.683036 -47.184710C18.761161 -47.368862 18.747210 -47.541853 18.641183 -47.703683C18.535156 -47.865513 18.376116 -47.940848 18.164062 -47.929688L14.732143 -47.762277C13.895089 -47.773438 12.767857 -47.829241 11.350446 -47.929688C11.216518 -47.940848 11.102121 -47.912946 11.007254 -47.845982C10.912388 -47.779018 10.848214 -47.695312 10.814732 -47.594866C10.781250 -47.494420 10.772879 -47.391183 10.789621 -47.285156C10.806362 -47.179129 10.856585 -47.087054 10.940290 -47.008929C11.023996 -46.930804 11.132812 -46.886161 11.266741 -46.875000L12.606027 -46.741071L14.614955 -41.250000L11.802455 -32.812500L7.114955 -46.741071C7.628348 -46.774554 8.119420 -46.819196 8.588170 -46.875000C8.800223 -46.897321 8.945312 -47.000558 9.023438 -47.184710C9.101562 -47.368862 9.087612 -47.541853 8.981585 -47.703683C8.875558 -47.865513 8.716518 -47.940848 8.504464 -47.929688L5.072545 -47.762277C4.994420 -47.762277 4.866071 -47.765067 4.687500 -47.770647C4.508929 -47.776228 4.363839 -47.779018 4.252232 -47.779018C5.424107 -49.564732 6.955915 -50.979353 8.847656 -52.022879C10.739397 -53.066406 12.790179 -53.588170 15.000000 -53.588170C16.640625 -53.588170 18.205915 -53.292411 19.695871 -52.700893C21.185826 -52.109375 22.516741 -51.277902 23.688616 -50.206473L23.521205 -50.206473C22.907366 -50.206473 22.393973 -49.980469 21.981027 -49.528460C21.568080 -49.076451 21.361607 -48.543527 21.361607 -47.929688C21.361607 -47.795759 21.372768 -47.661830 21.395089 -47.527902C21.417411 -47.393973 21.439732 -47.273996 21.462054 -47.167969C21.484375 -47.061942 21.529018 -46.933594 21.595982 -46.782924C21.662946 -46.632254 21.713170 -46.515067 21.746652 -46.431362C21.780134 -46.347656 21.847098 -46.222098 21.947545 -46.054688C22.047991 -45.887277 22.117746 -45.770089 22.156808 -45.703125C22.195871 -45.636161 22.276786 -45.502232 22.399554 -45.301339C22.522321 -45.100446 22.600446 -44.972098 22.633929 -44.916295C23.337054 -43.722098 23.688616 -42.539062 23.688616 -41.367188ZM15.217634 -39.592634L19.185268 -28.761161C19.196429 -28.694196 19.224330 -28.632812 19.268973 -28.577009C17.862723 -28.085938 16.439732 -27.840402 15.000000 -27.840402C13.750000 -27.840402 12.539062 -28.018973 11.367188 -28.376116ZM26.283482 -46.891741C27.343750 -44.949777 27.873884 -42.890625 27.873884 -40.714286C27.873884 -38.381696 27.293527 -36.230469 26.132812 -34.260603C24.972098 -32.290737 23.415179 -30.736607 21.462054 -29.598214L25.396205 -40.948661C26.054688 -42.834821 26.383929 -44.375000 26.383929 -45.569196C26.383929 -46.037946 26.350446 -46.478795 26.283482 -46.891741ZM15.000000 -55.714286C17.031250 -55.714286 18.973214 -55.318080 20.825893 -54.525670C22.678571 -53.733259 24.274554 -52.667411 25.613839 -51.328125C26.953125 -49.988839 28.018973 -48.392857 28.811384 -46.540179C29.603795 -44.687500 30.000000 -42.745536 30.000000 -40.714286C30.000000 -38.683036 29.603795 -36.741071 28.811384 -34.888393C28.018973 -33.035714 26.953125 -31.439732 25.613839 -30.100446C24.274554 -28.761161 22.678571 -27.695312 20.825893 -26.902902C18.973214 -26.110491 17.031250 -25.714286 15.000000 -25.714286C12.968750 -25.714286 11.026786 -26.110491 9.174107 -26.902902C7.321429 -27.695312 5.725446 -28.761161 4.386161 -30.100446C3.046875 -31.439732 1.981027 -33.035714 1.188616 -34.888393C0.396205 -36.741071 0.000000 -38.683036 0.000000 -40.714286C0.000000 -42.745536 0.396205 -44.687500 1.188616 -46.540179C1.981027 -48.392857 3.046875 -49.988839 4.386161 -51.328125C5.725446 -52.667411 7.321429 -53.733259 9.174107 -54.525670C11.026786 -55.318080 12.968750 -55.714286 15.000000 -55.714286ZM15.000000 -26.400670C16.930804 -26.400670 18.780692 -26.780134 20.549665 -27.539062C22.318638 -28.297991 23.842076 -29.316406 25.119978 -30.594308C26.397879 -31.872210 27.416295 -33.395647 28.175223 -35.164621C28.934152 -36.933594 29.313616 -38.783482 29.313616 -40.714286C29.313616 -42.645089 28.934152 -44.494978 28.175223 -46.263951C27.416295 -48.032924 26.397879 -49.556362 25.119978 -50.834263C23.842076 -52.112165 22.318638 -53.130580 20.549665 -53.889509C18.780692 -54.648438 16.930804 -55.027902 15.000000 -55.027902C13.069196 -55.027902 11.219308 -54.648438 9.450335 -53.889509C7.681362 -53.130580 6.157924 -52.112165 4.880022 -50.834263C3.602121 -49.556362 2.583705 -48.032924 1.824777 -46.263951C1.065848 -44.494978 0.686384 -42.645089 0.686384 -40.714286C0.686384 -38.783482 1.065848 -36.933594 1.824777 -35.164621C2.583705 -33.395647 3.602121 -31.872210 4.880022 -30.594308C6.157924 -29.316406 7.681362 -28.297991 9.450335 -27.539062C11.219308 -26.780134 13.069196 -26.400670 15.000000 -26.400670ZM15.000000 -26.400670"></path></svg>