<svg width="23.638393" height="27.689732" viewBox="-0.027902 -53.236607 23.638393 27.689732" xmlns="http://www.w3.org/2000/svg"><path d="M9.994420 -42.237723C9.882812 -42.036830 8.448661 -39.492188 5.691964 -34.603795C5.390625 -34.090402 5.027902 -33.833705 4.603795 -33.833705L0.602679 -33.833705C0.368304 -33.833705 0.195312 -33.928571 0.083705 -34.118304C-0.027902 -34.308036 -0.027902 -34.508929 0.083705 -34.720982L4.319196 -42.220982C4.330357 -42.220982 4.330357 -42.226562 4.319196 -42.237723L1.623884 -46.908482C1.489955 -47.154018 1.484375 -47.360491 1.607143 -47.527902C1.707589 -47.695312 1.886161 -47.779018 2.142857 -47.779018L6.143973 -47.779018C6.590402 -47.779018 6.958705 -47.527902 7.248884 -47.025670ZM23.487723 -52.985491C23.610491 -52.806920 23.610491 -52.600446 23.487723 -52.366071L14.648438 -36.729911L14.648438 -36.713170L20.273438 -26.417411C20.396205 -26.194196 20.401786 -25.987723 20.290179 -25.797991C20.178571 -25.630580 20.000000 -25.546875 19.754464 -25.546875L15.753348 -25.546875C15.284598 -25.546875 14.916295 -25.797991 14.648438 -26.300223L8.973214 -36.713170C9.174107 -37.070312 12.137277 -42.327009 17.862723 -52.483259C18.141741 -52.985491 18.498884 -53.236607 18.934152 -53.236607L22.968750 -53.236607C23.214286 -53.236607 23.387277 -53.152902 23.487723 -52.985491ZM23.487723 -52.985491"></path></svg>