<svg width="25.714286" height="25.714286" viewBox="0.000000 -49.285714 25.714286 25.714286" xmlns="http://www.w3.org/2000/svg"><path d="M11.467634 -38.621652C11.467634 -38.632812 10.764509 -39.871652 9.358259 -42.338170C9.123884 -42.717634 8.833705 -42.907366 8.487723 -42.907366L5.407366 -42.907366C5.206473 -42.907366 5.061384 -42.845982 4.972098 -42.723214C4.893973 -42.589286 4.899554 -42.427455 4.988839 -42.237723L7.081473 -38.621652L7.081473 -38.604911L3.800223 -32.812500C3.699777 -32.656250 3.699777 -32.500000 3.800223 -32.343750C3.889509 -32.198661 4.023438 -32.126116 4.202009 -32.126116L7.299107 -32.126116C7.645089 -32.126116 7.924107 -32.327009 8.136161 -32.728795ZM21.914062 -46.941964C21.835938 -47.075893 21.702009 -47.142857 21.512277 -47.142857L18.381696 -47.142857C18.046875 -47.142857 17.773438 -46.947545 17.561384 -46.556920L10.680804 -34.352679C10.691964 -34.330357 12.154018 -31.646205 15.066964 -26.300223C15.290179 -25.909598 15.580357 -25.714286 15.937500 -25.714286L19.017857 -25.714286C19.218750 -25.714286 19.358259 -25.781250 19.436384 -25.915179C19.525670 -26.060268 19.520089 -26.216518 19.419643 -26.383929L15.066964 -34.352679L15.066964 -34.369420L21.914062 -46.473214C22.003348 -46.651786 22.003348 -46.808036 21.914062 -46.941964ZM25.714286 -44.464286L25.714286 -28.392857C25.714286 -27.064732 25.242746 -25.929129 24.299665 -24.986049C23.356585 -24.042969 22.220982 -23.571429 20.892857 -23.571429L4.821429 -23.571429C3.493304 -23.571429 2.357701 -24.042969 1.414621 -24.986049C0.471540 -25.929129 0.000000 -27.064732 0.000000 -28.392857L0.000000 -44.464286C0.000000 -45.792411 0.471540 -46.928013 1.414621 -47.871094C2.357701 -48.814174 3.493304 -49.285714 4.821429 -49.285714L20.892857 -49.285714C22.220982 -49.285714 23.356585 -48.814174 24.299665 -47.871094C25.242746 -46.928013 25.714286 -45.792411 25.714286 -44.464286ZM25.714286 -44.464286"></path></svg>