<?xml version="1.0" encoding="UTF-8" standalone="no"?>
<svg width="28px" height="26px" viewBox="0 0 28 26" version="1.1" xmlns="http://www.w3.org/2000/svg" xmlns:xlink="http://www.w3.org/1999/xlink" xmlns:sketch="http://www.bohemiancoding.com/sketch/ns">
    <!-- Generator: Sketch Beta 3.3.2 (12041) - http://www.bohemiancoding.com/sketch -->
    <title>align-justify</title>
    <desc>Created with Sketch Beta.</desc>
    <defs></defs>
    <g id="Page-1" stroke="none" stroke-width="1" fill="none" fill-rule="evenodd" sketch:type="MSPage">
        <g id="Icon-Set" sketch:type="MSLayerGroup" transform="translate(-412.000000, -206.000000)" fill="#000000">
            <path d="M439,214 L413,214 C412.447,214 412,214.448 412,215 C412,215.553 412.447,216 413,216 L439,216 C439.553,216 440,215.553 440,215 C440,214.448 439.553,214 439,214 L439,214 Z M439,222 L413,222 C412.447,222 412,222.448 412,223 C412,223.553 412.447,224 413,224 L439,224 C439.553,224 440,223.553 440,223 C440,222.448 439.553,222 439,222 L439,222 Z M413,208 L439,208 C439.553,208 440,207.553 440,207 C440,206.448 439.553,206 439,206 L413,206 C412.447,206 412,206.448 412,207 C412,207.553 412.447,208 413,208 L413,208 Z M428,230 L413,230 C412.447,230 412,230.447 412,231 C412,231.553 412.447,232 413,232 L428,232 C428.553,232 429,231.553 429,231 C429,230.447 428.553,230 428,230 L428,230 Z" id="align-justify" sketch:type="MSShapeGroup"></path>
        </g>
    </g>
</svg>