<?xml version="1.0" encoding="UTF-8" standalone="no"?>
<svg width="30px" height="32px" viewBox="0 0 30 32" version="1.1" xmlns="http://www.w3.org/2000/svg" xmlns:xlink="http://www.w3.org/1999/xlink" xmlns:sketch="http://www.bohemiancoding.com/sketch/ns">
    <!-- Generator: Sketch Beta 3.3.2 (12041) - http://www.bohemiancoding.com/sketch -->
    <title>align-bottom</title>
    <desc>Created with Sketch Beta.</desc>
    <defs></defs>
    <g id="Page-1" stroke="none" stroke-width="1" fill="none" fill-rule="evenodd" sketch:type="MSPage">
        <g id="Icon-Set-Filled" sketch:type="MSLayerGroup" transform="translate(-363.000000, -673.000000)" fill="#000000">
            <path d="M383.687,687.706 L378.745,693.687 C378.535,693.896 378.258,693.985 377.984,693.971 C377.711,693.985 377.434,693.896 377.224,693.687 L372.282,687.706 C371.89,687.313 371.89,686.676 372.282,686.282 C372.674,685.89 373.31,685.89 373.701,686.282 L377,690.273 L377,678 C377,677.448 377.447,677 378,677 C378.553,677 379,677.448 379,678 L379,690.235 L382.268,686.282 C382.659,685.89 383.295,685.89 383.687,686.282 C384.079,686.676 384.079,687.313 383.687,687.706 L383.687,687.706 Z M389,673 L367,673 C364.791,673 363,674.791 363,677 L363,697 L393,697 L393,677 C393,674.791 391.209,673 389,673 L389,673 Z M363,701 C363,703.209 364.791,705 367,705 L389,705 C391.209,705 393,703.209 393,701 L393,699 L363,699 L363,701 L363,701 Z" id="align-bottom" sketch:type="MSShapeGroup"></path>
        </g>
    </g>
</svg>