<?xml version="1.0" encoding="UTF-8" standalone="no"?>
<svg width="30px" height="32px" viewBox="0 0 30 32" version="1.1" xmlns="http://www.w3.org/2000/svg" xmlns:xlink="http://www.w3.org/1999/xlink" xmlns:sketch="http://www.bohemiancoding.com/sketch/ns">
    <!-- Generator: Sketch Beta 3.3.2 (12041) - http://www.bohemiancoding.com/sketch -->
    <title>align-bottom</title>
    <desc>Created with Sketch Beta.</desc>
    <defs></defs>
    <g id="Page-1" stroke="none" stroke-width="1" fill="none" fill-rule="evenodd" sketch:type="MSPage">
        <g id="Icon-Set" sketch:type="MSLayerGroup" transform="translate(-361.000000, -671.000000)" fill="#000000">
            <path d="M380.268,684.282 L377,688.235 L377,676 C377,675.448 376.553,675 376,675 C375.447,675 375,675.448 375,676 L375,688.273 L371.701,684.282 C371.31,683.89 370.674,683.89 370.282,684.282 C369.89,684.676 369.89,685.313 370.282,685.706 L375.224,691.687 C375.434,691.896 375.711,691.985 375.984,691.971 C376.258,691.985 376.535,691.896 376.745,691.687 L381.687,685.706 C382.079,685.313 382.079,684.676 381.687,684.282 C381.295,683.89 380.659,683.89 380.268,684.282 L380.268,684.282 Z M389,695 L363,695 L363,675 C363,673.896 363.896,673 365,673 L387,673 C388.104,673 389,673.896 389,675 L389,695 L389,695 Z M389,699 C389,700.104 388.104,701 387,701 L365,701 C363.896,701 363,700.104 363,699 L363,697 L389,697 L389,699 L389,699 Z M387,671 L365,671 C362.791,671 361,672.791 361,675 L361,699 C361,701.209 362.791,703 365,703 L387,703 C389.209,703 391,701.209 391,699 L391,675 C391,672.791 389.209,671 387,671 L387,671 Z" id="align-bottom" sketch:type="MSShapeGroup"></path>
        </g>
    </g>
</svg>