<?xml version="1.0" encoding="UTF-8" standalone="no"?>
<svg width="32px" height="30px" viewBox="0 0 32 30" version="1.1" xmlns="http://www.w3.org/2000/svg" xmlns:xlink="http://www.w3.org/1999/xlink" xmlns:sketch="http://www.bohemiancoding.com/sketch/ns">
    <!-- Generator: Sketch Beta 3.3.2 (12041) - http://www.bohemiancoding.com/sketch -->
    <title>align-right</title>
    <desc>Created with Sketch Beta.</desc>
    <defs></defs>
    <g id="Page-1" stroke="none" stroke-width="1" fill="none" fill-rule="evenodd" sketch:type="MSPage">
        <g id="Icon-Set" sketch:type="MSLayerGroup" transform="translate(-464.000000, -672.000000)" fill="#000000">
            <path d="M469,688 L481.273,688 L477.282,691.299 C476.89,691.69 476.89,692.326 477.282,692.718 C477.676,693.11 478.313,693.11 478.706,692.718 L484.686,687.776 C484.896,687.566 484.985,687.289 484.971,687.016 C484.985,686.742 484.896,686.465 484.686,686.255 L478.706,681.313 C478.313,680.921 477.676,680.921 477.282,681.313 C476.89,681.705 476.89,682.341 477.282,682.732 L481.235,686 L469,686 C468.447,686 468,686.447 468,687 C468,687.553 468.447,688 469,688 L469,688 Z M494,698 C494,699.104 493.104,700 492,700 L490,700 L490,674 L492,674 C493.104,674 494,674.896 494,676 L494,698 L494,698 Z M488,700 L468,700 C466.896,700 466,699.104 466,698 L466,676 C466,674.896 466.896,674 468,674 L488,674 L488,700 L488,700 Z M492,672 L468,672 C465.791,672 464,673.791 464,676 L464,698 C464,700.209 465.791,702 468,702 L492,702 C494.209,702 496,700.209 496,698 L496,676 C496,673.791 494.209,672 492,672 L492,672 Z" id="align-right" sketch:type="MSShapeGroup"></path>
        </g>
    </g>
</svg>