<?xml version="1.0" encoding="UTF-8" standalone="no"?>
<svg width="28px" height="28px" viewBox="0 0 28 28" version="1.1" xmlns="http://www.w3.org/2000/svg" xmlns:xlink="http://www.w3.org/1999/xlink" xmlns:sketch="http://www.bohemiancoding.com/sketch/ns">
    <!-- Generator: Sketch Beta 3.3.2 (12041) - http://www.bohemiancoding.com/sketch -->
    <title>align-justify</title>
    <desc>Created with Sketch Beta.</desc>
    <defs></defs>
    <g id="Page-1" stroke="none" stroke-width="1" fill="none" fill-rule="evenodd" sketch:type="MSPage">
        <g id="Icon-Set-Filled" sketch:type="MSLayerGroup" transform="translate(-414.000000, -208.000000)" fill="#000000">
            <path d="M429,232 L416,232 C414.896,232 414,232.896 414,234 C414,235.104 414.896,236 416,236 L429,236 C430.104,236 431,235.104 431,234 C431,232.896 430.104,232 429,232 L429,232 Z M440,224 L416,224 C414.896,224 414,224.896 414,226 C414,227.104 414.896,228 416,228 L440,228 C441.104,228 442,227.104 442,226 C442,224.896 441.104,224 440,224 L440,224 Z M440,216 L416,216 C414.896,216 414,216.896 414,218 C414,219.104 414.896,220 416,220 L440,220 C441.104,220 442,219.104 442,218 C442,216.896 441.104,216 440,216 L440,216 Z M416,212 L440,212 C441.104,212 442,211.104 442,210 C442,208.896 441.104,208 440,208 L416,208 C414.896,208 414,208.896 414,210 C414,211.104 414.896,212 416,212 L416,212 Z" id="align-justify" sketch:type="MSShapeGroup"></path>
        </g>
    </g>
</svg>