<?xml version="1.0" encoding="UTF-8" standalone="no"?>
<svg width="32px" height="32px" viewBox="0 0 32 32" version="1.1" xmlns="http://www.w3.org/2000/svg" xmlns:xlink="http://www.w3.org/1999/xlink" xmlns:sketch="http://www.bohemiancoding.com/sketch/ns">
    <!-- Generator: Sketch Beta 3.3.2 (12041) - http://www.bohemiancoding.com/sketch -->
    <title>arrow-down-circle</title>
    <desc>Created with Sketch Beta.</desc>
    <defs></defs>
    <g id="Page-1" stroke="none" stroke-width="1" fill="none" fill-rule="evenodd" sketch:type="MSPage">
        <g id="Icon-Set" sketch:type="MSLayerGroup" transform="translate(-412.000000, -1087.000000)" fill="#000000">
            <path d="M428,1117 C420.268,1117 414,1110.73 414,1103 C414,1095.27 420.268,1089 428,1089 C435.732,1089 442,1095.27 442,1103 C442,1110.73 435.732,1117 428,1117 L428,1117 Z M428,1087 C419.163,1087 412,1094.16 412,1103 C412,1111.84 419.163,1119 428,1119 C436.837,1119 444,1111.84 444,1103 C444,1094.16 436.837,1087 428,1087 L428,1087 Z M433.121,1102.46 L429,1106.59 L429,1096 C429,1095.45 428.553,1095 428,1095 C427.448,1095 427,1095.45 427,1096 L427,1106.59 L422.879,1102.46 C422.488,1102.07 421.855,1102.07 421.465,1102.46 C421.074,1102.86 421.074,1103.49 421.465,1103.88 L427.121,1109.54 C427.361,1109.78 427.689,1109.85 428,1109.79 C428.311,1109.85 428.639,1109.78 428.879,1109.54 L434.535,1103.88 C434.926,1103.49 434.926,1102.86 434.535,1102.46 C434.146,1102.07 433.512,1102.07 433.121,1102.46 L433.121,1102.46 Z" id="arrow-down-circle" sketch:type="MSShapeGroup"></path>
        </g>
    </g>
</svg>