<?xml version="1.0" encoding="UTF-8" standalone="no"?>
<svg width="28px" height="32px" viewBox="0 0 28 32" version="1.1" xmlns="http://www.w3.org/2000/svg" xmlns:xlink="http://www.w3.org/1999/xlink" xmlns:sketch="http://www.bohemiancoding.com/sketch/ns">
    <!-- Generator: Sketch Beta 3.3.2 (12041) - http://www.bohemiancoding.com/sketch -->
    <title>arrow-top</title>
    <desc>Created with Sketch Beta.</desc>
    <defs></defs>
    <g id="Page-1" stroke="none" stroke-width="1" fill="none" fill-rule="evenodd" sketch:type="MSPage">
        <g id="Icon-Set" sketch:type="MSLayerGroup" transform="translate(-466.000000, -931.000000)" fill="#000000">
            <path d="M490,931 L470,931 C467.791,931 466,932.791 466,935 L466,955 C466,957.209 467.791,959 470,959 L473,959 L473,957 L470,957 C468.896,957 468,956.104 468,955 L468,935 C468,933.896 468.896,933 470,933 L490,933 C491.104,933 492,933.896 492,935 L492,955 C492,956.104 491.104,957 490,957 L487,957 L487,959 L490,959 C492.209,959 494,957.209 494,955 L494,935 C494,932.791 492.209,931 490,931 L490,931 Z M487.657,944.243 L480.758,937.343 C480.549,937.135 480.272,937.046 480,937.06 C479.728,937.046 479.451,937.135 479.243,937.343 L472.343,944.243 C471.952,944.633 471.952,945.267 472.343,945.657 C472.733,946.048 473.367,946.048 473.758,945.657 L479,940.414 L479,962 C479,962.553 479.447,963 480,963 C480.552,963 481,962.553 481,962 L481,940.414 L486.243,945.657 C486.633,946.048 487.267,946.048 487.657,945.657 C488.048,945.267 488.048,944.633 487.657,944.243 L487.657,944.243 Z" id="arrow-top" sketch:type="MSShapeGroup"></path>
        </g>
    </g>
</svg>