<?xml version="1.0" encoding="UTF-8" standalone="no"?>
<svg width="32px" height="32px" viewBox="0 0 32 32" version="1.1" xmlns="http://www.w3.org/2000/svg" xmlns:xlink="http://www.w3.org/1999/xlink" xmlns:sketch="http://www.bohemiancoding.com/sketch/ns">
    <!-- Generator: Sketch Beta 3.3.2 (12041) - http://www.bohemiancoding.com/sketch -->
    <title>arrow-down-circle</title>
    <desc>Created with Sketch Beta.</desc>
    <defs></defs>
    <g id="Page-1" stroke="none" stroke-width="1" fill="none" fill-rule="evenodd" sketch:type="MSPage">
        <g id="Icon-Set-Filled" sketch:type="MSLayerGroup" transform="translate(-414.000000, -1089.000000)" fill="#000000">
            <path d="M436.535,1105.88 L430.879,1111.54 C430.639,1111.78 430.311,1111.85 430,1111.79 C429.689,1111.85 429.361,1111.78 429.121,1111.54 L423.465,1105.88 C423.074,1105.49 423.074,1104.86 423.465,1104.46 C423.855,1104.07 424.488,1104.07 424.879,1104.46 L429,1108.59 L429,1098 C429,1097.45 429.448,1097 430,1097 C430.553,1097 431,1097.45 431,1098 L431,1108.59 L435.121,1104.46 C435.512,1104.07 436.146,1104.07 436.535,1104.46 C436.926,1104.86 436.926,1105.49 436.535,1105.88 L436.535,1105.88 Z M430,1089 C421.163,1089 414,1096.16 414,1105 C414,1113.84 421.163,1121 430,1121 C438.837,1121 446,1113.84 446,1105 C446,1096.16 438.837,1089 430,1089 L430,1089 Z" id="arrow-down-circle" sketch:type="MSShapeGroup"></path>
        </g>
    </g>
</svg>