<?xml version="1.0" encoding="UTF-8" standalone="no"?>
<svg width="32px" height="32px" viewBox="0 0 32 32" version="1.1" xmlns="http://www.w3.org/2000/svg" xmlns:xlink="http://www.w3.org/1999/xlink" xmlns:sketch="http://www.bohemiancoding.com/sketch/ns">
    <!-- Generator: Sketch Beta 3.3.2 (12041) - http://www.bohemiancoding.com/sketch -->
    <title>award-2</title>
    <desc>Created with Sketch Beta.</desc>
    <defs></defs>
    <g id="Page-1" stroke="none" stroke-width="1" fill="none" fill-rule="evenodd" sketch:type="MSPage">
        <g id="Icon-Set" sketch:type="MSLayerGroup" transform="translate(-308.000000, -411.000000)" fill="#000000">
            <path d="M332.585,436.51 C331.141,437.913 329.604,439.37 329.604,439.37 L326.954,434.846 C329.729,434.17 332.128,432.568 333.801,430.388 L336.699,435.334 C336.699,435.334 334.633,435.928 332.585,436.51 L332.585,436.51 Z M324,433.008 C318.482,433.008 314.01,428.525 314.01,422.997 C314.01,417.469 318.482,412.986 324,412.986 C329.518,412.986 333.99,417.469 333.99,422.997 C333.99,428.525 329.518,433.008 324,433.008 L324,433.008 Z M318.396,439.37 C318.396,439.37 316.859,437.913 315.415,436.51 C313.367,435.928 311.301,435.334 311.301,435.334 L314.199,430.388 C315.872,432.568 318.271,434.17 321.046,434.846 L318.396,439.37 L318.396,439.37 Z M335.021,428.436 C335.824,426.825 336.288,425.021 336.288,423.106 C336.288,416.42 330.786,411 324,411 C317.214,411 311.712,416.42 311.712,423.106 C311.712,425.021 312.176,426.825 312.979,428.436 L307.991,436.946 C307.991,436.946 311.154,437.581 314.363,438.241 C316.503,440.623 318.633,443 318.633,443 L323.219,435.174 C323.479,435.19 323.736,435.213 324,435.213 C324.264,435.213 324.521,435.19 324.781,435.174 L329.367,443 C329.367,443 331.497,440.623 333.637,438.241 C336.846,437.581 340.009,436.946 340.009,436.946 L335.021,428.436 L335.021,428.436 Z M324,428 C321.238,428 319,425.762 319,423 C319,420.238 321.238,418 324,418 C326.762,418 329,420.238 329,423 C329,425.762 326.762,428 324,428 L324,428 Z M324,416 C320.134,416 317,419.134 317,423 C317,426.866 320.134,430 324,430 C327.866,430 331,426.866 331,423 C331,419.134 327.866,416 324,416 L324,416 Z" id="award-2" sketch:type="MSShapeGroup"></path>
        </g>
    </g>
</svg>