<?xml version="1.0" encoding="UTF-8" standalone="no"?>
<svg width="32px" height="30px" viewBox="0 0 32 30" version="1.1" xmlns="http://www.w3.org/2000/svg" xmlns:xlink="http://www.w3.org/1999/xlink" xmlns:sketch="http://www.bohemiancoding.com/sketch/ns">
    <!-- Generator: Sketch Beta 3.3.2 (12041) - http://www.bohemiancoding.com/sketch -->
    <title>award</title>
    <desc>Created with Sketch Beta.</desc>
    <defs></defs>
    <g id="Page-1" stroke="none" stroke-width="1" fill="none" fill-rule="evenodd" sketch:type="MSPage">
        <g id="Icon-Set" sketch:type="MSLayerGroup" transform="translate(-256.000000, -412.000000)" fill="#000000">
            <path d="M281.98,424 L281.98,418 C285.932,418 285.973,417.791 285.973,420 C285.973,422.209 284.186,424 281.98,424 L281.98,424 Z M279.984,422 C279.984,426.418 276.41,432 272,432 C267.59,432 264.016,426.418 264.016,422 L264.016,416 C264.016,415.011 265.055,414 266.012,414 L277.988,414 C278.945,414 279.984,414.979 279.984,416 L279.984,422 L279.984,422 Z M262.02,424 C259.815,424 258.027,422.209 258.027,420 C258.027,417.791 258.068,418 262.02,418 L262.02,424 L262.02,424 Z M281.98,416 C281.98,413.791 280.193,412 277.988,412 L266.012,412 C263.807,412 262.02,413.791 262.02,416 C255.183,416 256.031,415.999 256.031,420 C256.031,423.313 258.712,426 262.02,426 C262.258,426 262.486,425.962 262.716,425.93 C264.056,429.854 267.213,433.389 271.002,433.928 L271.002,440 L268.008,440 C267.457,440 267.01,440.447 267.01,441 C267.01,441.553 267.457,442 268.008,442 L275.992,442 C276.543,442 276.99,441.553 276.99,441 C276.99,440.447 276.543,440 275.992,440 L272.998,440 L272.998,433.928 C276.787,433.389 279.944,429.854 281.285,425.93 C281.514,425.962 281.742,426 281.98,426 C285.288,426 287.969,423.313 287.969,420 C287.969,415.999 288.817,416 281.98,416 L281.98,416 Z" id="award" sketch:type="MSShapeGroup"></path>
        </g>
    </g>
</svg>