<?xml version="1.0" encoding="UTF-8" standalone="no"?>
<svg width="24px" height="32px" viewBox="0 0 24 32" version="1.1" xmlns="http://www.w3.org/2000/svg" xmlns:xlink="http://www.w3.org/1999/xlink" xmlns:sketch="http://www.bohemiancoding.com/sketch/ns">
    <!-- Generator: Sketch Beta 3.3.2 (12041) - http://www.bohemiancoding.com/sketch -->
    <title>bag</title>
    <desc>Created with Sketch Beta.</desc>
    <defs></defs>
    <g id="Page-1" stroke="none" stroke-width="1" fill="none" fill-rule="evenodd" sketch:type="MSPage">
        <g id="Icon-Set" sketch:type="MSLayerGroup" transform="translate(-572.000000, -723.000000)" fill="#000000">
            <path d="M594,747 L574,747 L574,731 C574,729.896 574.896,729 576,729 L578,729 L578,735 L580,735 L580,729 L588,729 L588,735 L590,735 L590,729 L592,729 C593.104,729 594,729.896 594,731 L594,747 L594,747 Z M594,751 C594,752.104 593.104,753 592,753 L576,753 C574.896,753 574,752.104 574,751 L574,749 L594,749 L594,751 L594,751 Z M584,725 C586.209,725 588,725.619 588,727 L580,727 C580,725.619 581.791,725 584,725 L584,725 Z M592,727 L590,727 C590,724.791 587.313,723 584,723 C580.687,723 578,724.791 578,727 L576,727 C573.791,727 572,728.791 572,731 L572,751 C572,753.209 573.791,755 576,755 L592,755 C594.209,755 596,753.209 596,751 L596,731 C596,728.791 594.209,727 592,727 L592,727 Z" id="bag" sketch:type="MSShapeGroup"></path>
        </g>
    </g>
</svg>