<?xml version="1.0" encoding="UTF-8" standalone="no"?>
<svg width="32px" height="32px" viewBox="0 0 32 32" version="1.1" xmlns="http://www.w3.org/2000/svg" xmlns:xlink="http://www.w3.org/1999/xlink" xmlns:sketch="http://www.bohemiancoding.com/sketch/ns">
    <!-- Generator: Sketch Beta 3.3.2 (12041) - http://www.bohemiancoding.com/sketch -->
    <title>book-album</title>
    <desc>Created with Sketch Beta.</desc>
    <defs></defs>
    <g id="Page-1" stroke="none" stroke-width="1" fill="none" fill-rule="evenodd" sketch:type="MSPage">
        <g id="Icon-Set" sketch:type="MSLayerGroup" transform="translate(-412.000000, -99.000000)" fill="#000000">
            <path d="M442,124 C442,125.104 441.073,125.656 440,126 C440,126 434.557,127.515 429,128.977 L429,104 L440,101 C441.104,101 442,101.896 442,103 L442,124 L442,124 Z M427,128.998 C421.538,127.53 416,126 416,126 C414.864,125.688 414,125.104 414,124 L414,103 C414,101.896 414.896,101 416,101 L427,104 L427,128.998 L427,128.998 Z M440,99 C440,99 434.211,100.594 428.95,102 C428.291,102.025 427.627,102 426.967,102 C421.955,100.656 416,99 416,99 C413.791,99 412,100.791 412,103 L412,124 C412,126.209 413.885,127.313 416,128 C416,128 421.393,129.5 426.967,131 L428.992,131 C434.612,129.5 440,128 440,128 C442.053,127.469 444,126.209 444,124 L444,103 C444,100.791 442.209,99 440,99 L440,99 Z" id="book-album" sketch:type="MSShapeGroup"></path>
        </g>
    </g>
</svg>