<?xml version="1.0" encoding="UTF-8" standalone="no"?>
<svg width="32px" height="28px" viewBox="0 0 32 28" version="1.1" xmlns="http://www.w3.org/2000/svg" xmlns:xlink="http://www.w3.org/1999/xlink" xmlns:sketch="http://www.bohemiancoding.com/sketch/ns">
    <!-- Generator: Sketch Beta 3.3.2 (12041) - http://www.bohemiancoding.com/sketch -->
    <title>brush</title>
    <desc>Created with Sketch Beta.</desc>
    <defs></defs>
    <g id="Page-1" stroke="none" stroke-width="1" fill="none" fill-rule="evenodd" sketch:type="MSPage">
        <g id="Icon-Set" sketch:type="MSLayerGroup" transform="translate(-99.000000, -154.000000)" fill="#000000">
            <path d="M128.735,157.585 L116.047,170.112 L114.65,168.733 L127.339,156.206 C127.725,155.825 128.35,155.825 128.735,156.206 C129.121,156.587 129.121,157.204 128.735,157.585 L128.735,157.585 Z M112.556,173.56 C112.427,173.433 111.159,172.181 111.159,172.181 L113.254,170.112 L114.65,171.491 L112.556,173.56 L112.556,173.56 Z M110.461,178.385 C109.477,179.298 105.08,181.333 102.491,179.36 C102.491,179.36 103.392,178.657 104.074,177.246 C105.703,172.919 109.763,173.56 109.763,173.56 L111.159,174.938 C111.173,174.952 112.202,176.771 110.461,178.385 L110.461,178.385 Z M130.132,154.827 C128.975,153.685 127.099,153.685 125.942,154.827 L108.764,171.788 C106.661,171.74 103.748,172.485 102.491,176.603 C101.53,178.781 99,178.671 99,178.671 C104.253,184.498 110.444,181.196 111.857,179.764 C113.1,178.506 113.279,176.966 113.146,175.734 L130.132,158.964 C131.289,157.821 131.289,155.969 130.132,154.827 L130.132,154.827 Z" id="brush" sketch:type="MSShapeGroup"></path>
        </g>
    </g>
</svg>