<?xml version="1.0" encoding="UTF-8" standalone="no"?>
<svg width="32px" height="28px" viewBox="0 0 32 28" version="1.1" xmlns="http://www.w3.org/2000/svg" xmlns:xlink="http://www.w3.org/1999/xlink" xmlns:sketch="http://www.bohemiancoding.com/sketch/ns">
    <!-- Generator: Sketch Beta 3.3.2 (12041) - http://www.bohemiancoding.com/sketch -->
    <title>brush</title>
    <desc>Created with Sketch Beta.</desc>
    <defs></defs>
    <g id="Page-1" stroke="none" stroke-width="1" fill="none" fill-rule="evenodd" sketch:type="MSPage">
        <g id="Icon-Set-Filled" sketch:type="MSLayerGroup" transform="translate(-101.000000, -156.000000)" fill="#000000">
            <path d="M132.132,156.827 C130.975,155.685 129.099,155.685 127.942,156.827 L115.336,169.277 L119.499,173.44 L132.132,160.964 C133.289,159.821 133.289,157.969 132.132,156.827 L132.132,156.827 Z M112.461,180.385 C111.477,181.298 107.08,183.333 104.491,181.36 C104.491,181.36 105.392,180.657 106.074,179.246 C107.703,174.919 111.763,175.56 111.763,175.56 L113.159,176.938 C113.173,176.952 114.202,178.771 112.461,180.385 L112.461,180.385 Z M113.913,170.683 L110.764,173.788 C108.661,173.74 105.748,174.485 104.491,178.603 C103.53,180.781 101,180.671 101,180.671 C106.253,186.498 112.444,183.196 113.857,181.764 C115.1,180.506 115.279,178.966 115.146,177.734 L118.076,174.846 L113.913,170.683 L113.913,170.683 Z" id="brush" sketch:type="MSShapeGroup"></path>
        </g>
    </g>
</svg>