<?xml version="1.0" encoding="UTF-8" standalone="no"?>
<svg width="30px" height="32px" viewBox="0 0 30 32" version="1.1" xmlns="http://www.w3.org/2000/svg" xmlns:xlink="http://www.w3.org/1999/xlink" xmlns:sketch="http://www.bohemiancoding.com/sketch/ns">
    <!-- Generator: Sketch Beta 3.3.2 (12041) - http://www.bohemiancoding.com/sketch -->
    <title>calculator</title>
    <desc>Created with Sketch Beta.</desc>
    <defs></defs>
    <g id="Page-1" stroke="none" stroke-width="1" fill="none" fill-rule="evenodd" sketch:type="MSPage">
        <g id="Icon-Set-Filled" sketch:type="MSLayerGroup" transform="translate(-571.000000, -153.000000)" fill="#000000">
            <path d="M577,169 L579,169 L579,167 L577,167 L577,169 Z M585,177 L587,177 L587,175 L585,175 L585,177 Z M577,177 L579,177 L579,175 L577,175 L577,177 Z M597,153 L575,153 C572.791,153 571,154.791 571,157 L571,159 L601,159 L601,157 C601,154.791 599.209,153 597,153 L597,153 Z M578,173 C579.657,173 581,174.343 581,176 C581,177.657 579.657,179 578,179 C576.343,179 575,177.657 575,176 C575,174.343 576.343,173 578,173 L578,173 Z M578,165 C579.657,165 581,166.343 581,168 C581,169.657 579.657,171 578,171 C576.343,171 575,169.657 575,168 C575,166.343 576.343,165 578,165 L578,165 Z M586,173 C587.657,173 589,174.343 589,176 C589,177.657 587.657,179 586,179 C584.343,179 583,177.657 583,176 C583,174.343 584.343,173 586,173 L586,173 Z M586,165 C587.657,165 589,166.343 589,168 C589,169.657 587.657,171 586,171 C584.343,171 583,169.657 583,168 C583,166.343 584.343,165 586,165 L586,165 Z M594,173 C595.657,173 597,174.343 597,176 C597,177.657 595.657,179 594,179 C592.343,179 591,177.657 591,176 C591,174.343 592.343,173 594,173 L594,173 Z M594,165 C595.657,165 597,166.343 597,168 C597,169.657 595.657,171 594,171 C592.343,171 591,169.657 591,168 C591,166.343 592.343,165 594,165 L594,165 Z M571,181 C571,183.209 572.791,185 575,185 L597,185 C599.209,185 601,183.209 601,181 L601,161 L571,161 L571,181 L571,181 Z M593,169 L595,169 L595,167 L593,167 L593,169 Z M593,177 L595,177 L595,175 L593,175 L593,177 Z M585,169 L587,169 L587,167 L585,167 L585,169 Z" id="calculator" sketch:type="MSShapeGroup"></path>
        </g>
    </g>
</svg>