<?xml version="1.0" encoding="UTF-8" standalone="no"?>
<svg width="30px" height="32px" viewBox="0 0 30 32" version="1.1" xmlns="http://www.w3.org/2000/svg" xmlns:xlink="http://www.w3.org/1999/xlink" xmlns:sketch="http://www.bohemiancoding.com/sketch/ns">
    <!-- Generator: Sketch Beta 3.3.2 (12041) - http://www.bohemiancoding.com/sketch -->
    <title>calendar</title>
    <desc>Created with Sketch Beta.</desc>
    <defs></defs>
    <g id="Page-1" stroke="none" stroke-width="1" fill="none" fill-rule="evenodd" sketch:type="MSPage">
        <g id="Icon-Set-Filled" sketch:type="MSLayerGroup" transform="translate(-311.000000, -361.000000)" fill="#000000">
            <path d="M325,379 L327,379 L327,377 L325,377 L325,379 Z M325,387 L327,387 L327,385 L325,385 L325,387 Z M333,379 L335,379 L335,377 L333,377 L333,379 Z M333,387 L335,387 L335,385 L333,385 L333,387 Z M317,387 L319,387 L319,385 L317,385 L317,387 Z M339,369 L313,369 L313,367 C313,365.896 313.896,365 315,365 L319,365 L319,366 C319,366.553 319.447,367 320,367 C320.553,367 321,366.553 321,366 L321,365 L331,365 L331,366 C331,366.553 331.447,367 332,367 C332.553,367 333,366.553 333,366 L333,365 L337,365 C338.104,365 339,365.896 339,367 L339,369 L339,369 Z M337,379 C337,380.104 336.104,381 335,381 L333,381 C331.896,381 331,380.104 331,379 L331,377 C331,375.896 331.896,375 333,375 L335,375 C336.104,375 337,375.896 337,377 L337,379 L337,379 Z M337,387 C337,388.104 336.104,389 335,389 L333,389 C331.896,389 331,388.104 331,387 L331,385 C331,383.896 331.896,383 333,383 L335,383 C336.104,383 337,383.896 337,385 L337,387 L337,387 Z M329,379 C329,380.104 328.104,381 327,381 L325,381 C323.896,381 323,380.104 323,379 L323,377 C323,375.896 323.896,375 325,375 L327,375 C328.104,375 329,375.896 329,377 L329,379 L329,379 Z M329,387 C329,388.104 328.104,389 327,389 L325,389 C323.896,389 323,388.104 323,387 L323,385 C323,383.896 323.896,383 325,383 L327,383 C328.104,383 329,383.896 329,385 L329,387 L329,387 Z M321,379 C321,380.104 320.104,381 319,381 L317,381 C315.896,381 315,380.104 315,379 L315,377 C315,375.896 315.896,375 317,375 L319,375 C320.104,375 321,375.896 321,377 L321,379 L321,379 Z M321,387 C321,388.104 320.104,389 319,389 L317,389 C315.896,389 315,388.104 315,387 L315,385 C315,383.896 315.896,383 317,383 L319,383 C320.104,383 321,383.896 321,385 L321,387 L321,387 Z M337,363 L333,363 L333,362 C333,361.448 332.553,361 332,361 C331.447,361 331,361.448 331,362 L331,363 L321,363 L321,362 C321,361.448 320.553,361 320,361 C319.447,361 319,361.448 319,362 L319,363 L315,363 C312.791,363 311,364.791 311,367 L311,389 C311,391.209 312.791,393 315,393 L337,393 C339.209,393 341,391.209 341,389 L341,367 C341,364.791 339.209,363 337,363 L337,363 Z M317,379 L319,379 L319,377 L317,377 L317,379 Z" id="calendar" sketch:type="MSShapeGroup"></path>
        </g>
    </g>
</svg>