<?xml version="1.0" encoding="UTF-8" standalone="no"?>
<svg width="32px" height="32px" viewBox="0 0 32 32" version="1.1" xmlns="http://www.w3.org/2000/svg" xmlns:xlink="http://www.w3.org/1999/xlink" xmlns:sketch="http://www.bohemiancoding.com/sketch/ns">
    <!-- Generator: Sketch Beta 3.3.2 (12041) - http://www.bohemiancoding.com/sketch -->
    <title>checkmark-square</title>
    <desc>Created with Sketch Beta.</desc>
    <defs></defs>
    <g id="Page-1" stroke="none" stroke-width="1" fill="none" fill-rule="evenodd" sketch:type="MSPage">
        <g id="Icon-Set" sketch:type="MSLayerGroup" transform="translate(-256.000000, -1035.000000)" fill="#000000">
            <path d="M286,1063 C286,1064.1 285.104,1065 284,1065 L260,1065 C258.896,1065 258,1064.1 258,1063 L258,1039 C258,1037.9 258.896,1037 260,1037 L284,1037 C285.104,1037 286,1037.9 286,1039 L286,1063 L286,1063 Z M284,1035 L260,1035 C257.791,1035 256,1036.79 256,1039 L256,1063 C256,1065.21 257.791,1067 260,1067 L284,1067 C286.209,1067 288,1065.21 288,1063 L288,1039 C288,1036.79 286.209,1035 284,1035 L284,1035 Z M278.027,1044.07 C277.548,1043.79 276.937,1043.96 276.661,1044.43 L270.266,1055.51 L266.688,1052.21 C266.31,1051.81 265.677,1051.79 265.274,1052.17 C264.871,1052.54 264.85,1053.18 265.228,1053.58 L269.8,1057.8 C270.177,1058.2 270.81,1058.22 271.213,1057.84 C271.335,1057.73 278.393,1045.43 278.393,1045.43 C278.669,1044.96 278.505,1044.34 278.027,1044.07 L278.027,1044.07 Z" id="checkmark-square" sketch:type="MSShapeGroup"></path>
        </g>
    </g>
</svg>