<?xml version="1.0" encoding="UTF-8" standalone="no"?>
<svg width="28px" height="32px" viewBox="0 0 28 32" version="1.1" xmlns="http://www.w3.org/2000/svg" xmlns:xlink="http://www.w3.org/1999/xlink" xmlns:sketch="http://www.bohemiancoding.com/sketch/ns">
    <!-- Generator: Sketch Beta 3.3.2 (12041) - http://www.bohemiancoding.com/sketch -->
    <title>clipboard</title>
    <desc>Created with Sketch Beta.</desc>
    <defs></defs>
    <g id="Page-1" stroke="none" stroke-width="1" fill="none" fill-rule="evenodd" sketch:type="MSPage">
        <g id="Icon-Set" sketch:type="MSLayerGroup" transform="translate(-466.000000, -99.000000)" fill="#000000">
            <path d="M487,113 L473,113 C472.447,113 472,113.448 472,114 C472,114.553 472.447,115 473,115 L487,115 C487.553,115 488,114.553 488,114 C488,113.448 487.553,113 487,113 L487,113 Z M492,127 C492,128.104 491.104,129 490,129 L470,129 C468.896,129 468,128.104 468,127 L468,107 C468,105.896 468.896,105 470,105 L473,105 L473,109 L487,109 L487,105 L490,105 C491.104,105 492,105.896 492,107 L492,127 L492,127 Z M475,103 L477.223,103 C477.223,101.896 478.466,101 480,101 C481.534,101 482.777,101.896 482.777,103 L485,103 L485,107 L475,107 L475,103 L475,103 Z M490,103 L487,103 L487,101 L484.307,101 C483.44,99.81 481.846,99 480,99 C478.154,99 476.56,99.81 475.693,101 L473,101 L473,103 L470,103 C467.791,103 466,104.791 466,107 L466,127 C466,129.209 467.791,131 470,131 L490,131 C492.209,131 494,129.209 494,127 L494,107 C494,104.791 492.209,103 490,103 L490,103 Z M487,123 L473,123 C472.447,123 472,123.448 472,124 C472,124.553 472.447,125 473,125 L487,125 C487.553,125 488,124.553 488,124 C488,123.448 487.553,123 487,123 L487,123 Z M487,118 L473,118 C472.447,118 472,118.448 472,119 C472,119.553 472.447,120 473,120 L487,120 C487.553,120 488,119.553 488,119 C488,118.448 487.553,118 487,118 L487,118 Z" id="clipboard" sketch:type="MSShapeGroup"></path>
        </g>
    </g>
</svg>