<?xml version="1.0" encoding="UTF-8" standalone="no"?>
<svg width="32px" height="32px" viewBox="0 0 32 32" version="1.1" xmlns="http://www.w3.org/2000/svg" xmlns:xlink="http://www.w3.org/1999/xlink" xmlns:sketch="http://www.bohemiancoding.com/sketch/ns">
    <!-- Generator: Sketch Beta 3.3.2 (12041) - http://www.bohemiancoding.com/sketch -->
    <title>clock</title>
    <desc>Created with Sketch Beta.</desc>
    <defs></defs>
    <g id="Page-1" stroke="none" stroke-width="1" fill="none" fill-rule="evenodd" sketch:type="MSPage">
        <g id="Icon-Set-Filled" sketch:type="MSLayerGroup" transform="translate(-414.000000, -361.000000)" fill="#000000">
            <path d="M440,376 L442,376 L442,378 L440,378 L440,376 Z M437.46,370.66 L436.076,369.273 L437.46,367.887 L438.844,369.273 L437.46,370.66 L437.46,370.66 Z M437.197,385.192 L435.783,383.778 L437.197,382.364 L438.611,383.778 L437.197,385.192 L437.197,385.192 Z M431,377.024 C431,377.576 430.553,378.023 430,378.023 L421,378.023 C420.447,378.023 420,377.576 420,377.024 C420,376.472 420.447,376.023 421,376.023 L429,376.023 L429,366 C429,365.447 429.448,365 430,365 C430.553,365 431,365.447 431,366 L431,377.024 L431,377.024 Z M429,387 L431,387 L431,389 L429,389 L429,387 Z M422.117,385.219 L420.733,383.832 L422.117,382.445 L423.501,383.832 L422.117,385.219 L422.117,385.219 Z M422.278,367.909 L423.692,369.323 L422.278,370.737 L420.864,369.323 L422.278,367.909 L422.278,367.909 Z M430,361 C421.163,361 414,368.164 414,377 C414,385.837 421.163,393 430,393 C438.837,393 446,385.837 446,377 C446,368.164 438.837,361 430,361 L430,361 Z" id="clock" sketch:type="MSShapeGroup"></path>
        </g>
    </g>
</svg>