<?xml version="1.0" encoding="UTF-8" standalone="no"?>
<svg width="30px" height="26px" viewBox="0 0 30 26" version="1.1" xmlns="http://www.w3.org/2000/svg" xmlns:xlink="http://www.w3.org/1999/xlink" xmlns:sketch="http://www.bohemiancoding.com/sketch/ns">
    <!-- Generator: Sketch Beta 3.3.2 (12041) - http://www.bohemiancoding.com/sketch -->
    <title>code</title>
    <desc>Created with Sketch Beta.</desc>
    <defs></defs>
    <g id="Page-1" stroke="none" stroke-width="1" fill="none" fill-rule="evenodd" sketch:type="MSPage">
        <g id="Icon-Set-Filled" sketch:type="MSLayerGroup" transform="translate(-259.000000, -728.000000)" fill="#000000">
            <path d="M288.717,740.531 L282.726,735.688 C282.332,735.304 281.693,735.304 281.3,735.688 C280.906,736.072 281,736.429 281,737 L281,745 C281,745.54 280.906,746.48 281.3,746.864 C281.693,747.249 282.332,747.249 282.726,746.864 L288.717,742.021 C288.927,741.816 289.016,741.544 289.002,741.276 C289.016,741.008 288.927,740.735 288.717,740.531 L288.717,740.531 Z M267,745 L267,737 C267,736.615 267.094,736.071 266.7,735.688 C266.307,735.303 265.668,735.303 265.274,735.688 L259.283,740.531 C259.073,740.735 258.984,741.008 258.998,741.276 C258.984,741.544 259.073,741.816 259.283,742.021 L265.274,746.864 C265.668,747.249 266.307,747.249 266.7,746.864 C267.094,746.48 267,745.729 267,745 L267,745 Z M280.96,728.123 C280.481,727.852 279.87,728.013 279.594,728.481 L267.094,752.568 C266.817,753.037 266.932,753.754 267.46,753.907 C268.105,754.094 268.55,754.018 268.826,753.549 L281.326,729.461 C281.602,728.992 281.438,728.394 280.96,728.123 L280.96,728.123 Z" id="code" sketch:type="MSShapeGroup"></path>
        </g>
    </g>
</svg>