<?xml version="1.0" encoding="UTF-8" standalone="no"?>
<svg width="31px" height="32px" viewBox="0 0 31 32" version="1.1" xmlns="http://www.w3.org/2000/svg" xmlns:xlink="http://www.w3.org/1999/xlink" xmlns:sketch="http://www.bohemiancoding.com/sketch/ns">
    <!-- Generator: Sketch Beta 3.3.2 (12041) - http://www.bohemiancoding.com/sketch -->
    <title>comments</title>
    <desc>Created with Sketch Beta.</desc>
    <defs></defs>
    <g id="Page-1" stroke="none" stroke-width="1" fill="none" fill-rule="evenodd" sketch:type="MSPage">
        <g id="Icon-Set" sketch:type="MSLayerGroup" transform="translate(-257.000000, -255.000000)" fill="#000000">
            <path d="M259,266.5 C259,261.254 263.753,257 270,257 C274.973,257 280,261.254 280,266.5 C280,271.747 276.075,276 270,276 C269.107,276 267.244,275.898 266.413,275.725 L263,278 L263,274.456 C260.561,272.477 259,269.834 259,266.5 L259,266.5 Z M266.637,277.736 C267.414,277.863 269.181,278 270,278 C277.18,278 282,272.657 282,266.375 C282,260.093 275.977,255 270,255 C262.811,255 257,260.093 257,266.375 C257,270.015 258.387,273.104 261,275.329 L261,281 L266.637,277.736 L266.637,277.736 Z M283.949,264.139 C283.968,264.425 284,264.709 284,265 C284,265.636 283.938,266.259 283.849,266.874 C285.195,268.45 286,270.392 286,272.5 C286,275.834 284.008,278.761 281,280.456 L281,284 L277.587,281.725 C276.756,281.898 275.893,282 275,282 C272.41,282 271.034,281.222 269.154,279.929 C268.609,279.973 268.059,280 267.5,280 C267.102,280 266.712,279.972 266.32,279.949 C268.701,282.276 271.149,283.75 275,283.75 C275.819,283.75 276.618,283.676 277.395,283.549 L283,287 L283,281.329 C286.04,279.246 288,276.015 288,272.375 C288,269.131 286.439,266.211 283.949,264.139 L283.949,264.139 Z M275.5,268 C276.329,268 277,267.329 277,266.5 C277,265.672 276.329,265 275.5,265 C274.671,265 274,265.672 274,266.5 C274,267.329 274.671,268 275.5,268 L275.5,268 Z M263.5,268 C264.329,268 265,267.329 265,266.5 C265,265.672 264.329,265 263.5,265 C262.671,265 262,265.672 262,266.5 C262,267.329 262.671,268 263.5,268 L263.5,268 Z M269.5,268 C270.329,268 271,267.329 271,266.5 C271,265.672 270.329,265 269.5,265 C268.671,265 268,265.672 268,266.5 C268,267.329 268.671,268 269.5,268 L269.5,268 Z" id="comments" sketch:type="MSShapeGroup"></path>
        </g>
    </g>
</svg>