<?xml version="1.0" encoding="UTF-8" standalone="no"?>
<svg width="32px" height="32px" viewBox="0 0 32 32" version="1.1" xmlns="http://www.w3.org/2000/svg" xmlns:xlink="http://www.w3.org/1999/xlink" xmlns:sketch="http://www.bohemiancoding.com/sketch/ns">
    <!-- Generator: Sketch Beta 3.3.2 (12041) - http://www.bohemiancoding.com/sketch -->
    <title>crop</title>
    <desc>Created with Sketch Beta.</desc>
    <defs></defs>
    <g id="Page-1" stroke="none" stroke-width="1" fill="none" fill-rule="evenodd" sketch:type="MSPage">
        <g id="Icon-Set" sketch:type="MSLayerGroup" transform="translate(-308.000000, -879.000000)" fill="#000000">
            <path d="M339,905 L336,905 L336,888 L334,890 L334,905 L315.372,905 L337.213,882.201 L335.799,880.787 L314,903.542 L314,885 L328.021,885 L329.861,883 L314,883 L314,880 C314,879.447 313.553,879 313,879 C312.447,879 312,879.447 312,880 L312,883 L309,883 C308.447,883 308,883.448 308,884 C308,884.553 308.447,885 309,885 L312,885 L312,907 L334,907 L334,910 C334,910.553 334.447,911 335,911 C335.553,911 336,910.553 336,910 L336,907 L339,907 C339.553,907 340,906.553 340,906 C340,905.448 339.553,905 339,905" id="crop" sketch:type="MSShapeGroup"></path>
        </g>
    </g>
</svg>