<?xml version="1.0" encoding="UTF-8" standalone="no"?>
<svg width="32px" height="32px" viewBox="0 0 32 32" version="1.1" xmlns="http://www.w3.org/2000/svg" xmlns:xlink="http://www.w3.org/1999/xlink" xmlns:sketch="http://www.bohemiancoding.com/sketch/ns">
    <!-- Generator: Sketch Beta 3.3.2 (12041) - http://www.bohemiancoding.com/sketch -->
    <title>duplicate</title>
    <desc>Created with Sketch Beta.</desc>
    <defs></defs>
    <g id="Page-1" stroke="none" stroke-width="1" fill="none" fill-rule="evenodd" sketch:type="MSPage">
        <g id="Icon-Set" sketch:type="MSLayerGroup" transform="translate(-204.000000, -931.000000)" fill="#000000">
            <path d="M234,951 C234,952.104 233.104,953 232,953 L216,953 C214.896,953 214,952.104 214,951 L214,935 C214,933.896 214.896,933 216,933 L232,933 C233.104,933 234,933.896 234,935 L234,951 L234,951 Z M232,931 L216,931 C213.791,931 212,932.791 212,935 L212,951 C212,953.209 213.791,955 216,955 L232,955 C234.209,955 236,953.209 236,951 L236,935 C236,932.791 234.209,931 232,931 L232,931 Z M226,959 C226,960.104 225.104,961 224,961 L208,961 C206.896,961 206,960.104 206,959 L206,943 C206,941.896 206.896,941 208,941 L210,941 L210,939 L208,939 C205.791,939 204,940.791 204,943 L204,959 C204,961.209 205.791,963 208,963 L224,963 C226.209,963 228,961.209 228,959 L228,957 L226,957 L226,959 L226,959 Z" id="duplicate" sketch:type="MSShapeGroup"></path>
        </g>
    </g>
</svg>