<?xml version="1.0" encoding="UTF-8" standalone="no"?>
<svg width="32px" height="32px" viewBox="0 0 32 32" version="1.1" xmlns="http://www.w3.org/2000/svg" xmlns:xlink="http://www.w3.org/1999/xlink" xmlns:sketch="http://www.bohemiancoding.com/sketch/ns">
    <!-- Generator: Sketch Beta 3.3.2 (12041) - http://www.bohemiancoding.com/sketch -->
    <title>duplicate</title>
    <desc>Created with Sketch Beta.</desc>
    <defs></defs>
    <g id="Page-1" stroke="none" stroke-width="1" fill="none" fill-rule="evenodd" sketch:type="MSPage">
        <g id="Icon-Set-Filled" sketch:type="MSLayerGroup" transform="translate(-206.000000, -933.000000)" fill="#000000">
            <path d="M234,933 L218,933 C215.791,933 214,934.791 214,937 L214,953 C214,955.209 215.791,957 218,957 L234,957 C236.209,957 238,955.209 238,953 L238,937 C238,934.791 236.209,933 234,933 L234,933 Z M212,954 L212,941 L210,941 C207.791,941 206,942.791 206,945 L206,961 C206,963.209 207.791,965 210,965 L226,965 C228.209,965 230,963.209 230,961 L230,959 L217,959 C214.791,959 212,956.209 212,954 L212,954 Z" id="duplicate" sketch:type="MSShapeGroup"></path>
        </g>
    </g>
</svg>