<?xml version="1.0" encoding="UTF-8" standalone="no"?>
<svg width="32px" height="32px" viewBox="0 0 32 32" version="1.1" xmlns="http://www.w3.org/2000/svg" xmlns:xlink="http://www.w3.org/1999/xlink" xmlns:sketch="http://www.bohemiancoding.com/sketch/ns">
    <!-- Generator: Sketch Beta 3.3.2 (12041) - http://www.bohemiancoding.com/sketch -->
    <title>enlarge</title>
    <desc>Created with Sketch Beta.</desc>
    <defs></defs>
    <g id="Page-1" stroke="none" stroke-width="1" fill="none" fill-rule="evenodd" sketch:type="MSPage">
        <g id="Icon-Set-Filled" sketch:type="MSLayerGroup" transform="translate(-570.000000, -933.000000)" fill="#000000">
            <path d="M598,947 C598,947.553 597.553,948 597,948 C596.447,948 596,947.553 596,947 L596.031,940.426 L589.244,947.213 L587.83,945.799 L594.629,939 L588,939 C587.447,939 587,938.553 587,938 C587,937.447 587.447,937 588,937 L596.972,937 C597.251,937 597.503,937.115 597.685,937.301 C597.878,937.465 598,937.704 598,938 L598,947 L598,947 Z M584,961 L575.028,961 C574.749,961 574.497,960.885 574.315,960.699 C574.122,960.535 574,960.297 574,960 L574,951 C574,950.447 574.447,950 575,950 C575.553,950 576,950.447 576,951 L575.969,957.575 L582.756,950.787 L584.171,952.201 L577.371,959 L584,959 C584.553,959 585,959.447 585,960 C585,960.553 584.553,961 584,961 L584,961 Z M598,933 L574,933 C571.791,933 570,934.791 570,937 L570,961 C570,963.209 571.791,965 574,965 L598,965 C600.209,965 602,963.209 602,961 L602,937 C602,934.791 600.209,933 598,933 L598,933 Z" id="enlarge" sketch:type="MSShapeGroup"></path>
        </g>
    </g>
</svg>