<?xml version="1.0" encoding="UTF-8" standalone="no"?>
<svg width="30px" height="28px" viewBox="0 0 30 28" version="1.1" xmlns="http://www.w3.org/2000/svg" xmlns:xlink="http://www.w3.org/1999/xlink" xmlns:sketch="http://www.bohemiancoding.com/sketch/ns">
    <!-- Generator: Sketch Beta 3.3.2 (12041) - http://www.bohemiancoding.com/sketch -->
    <title>equalizer</title>
    <desc>Created with Sketch Beta.</desc>
    <defs></defs>
    <g id="Page-1" stroke="none" stroke-width="1" fill="none" fill-rule="evenodd" sketch:type="MSPage">
        <g id="Icon-Set" sketch:type="MSLayerGroup" transform="translate(-361.000000, -569.000000)" fill="#000000">
            <path d="M366,589 C364.343,589 363,587.657 363,586 C363,584.344 364.343,583 366,583 C367.657,583 369,584.344 369,586 C369,587.657 367.657,589 366,589 L366,589 Z M367,581.101 L367,570 C367,569.448 366.553,569 366,569 C365.447,569 365,569.448 365,570 L365,581.101 C362.718,581.564 361,583.581 361,586 C361,588.419 362.718,590.436 365,590.899 L365,596 C365,596.553 365.447,597 366,597 C366.553,597 367,596.553 367,596 L367,590.899 C369.282,590.436 371,588.419 371,586 C371,583.581 369.282,581.564 367,581.101 L367,581.101 Z M376,579 C374.343,579 373,577.657 373,576 C373,574.344 374.343,573 376,573 C377.657,573 379,574.344 379,576 C379,577.657 377.657,579 376,579 L376,579 Z M377,571.101 L377,570 C377,569.448 376.553,569 376,569 C375.447,569 375,569.448 375,570 L375,571.101 C372.718,571.564 371,573.581 371,576 C371,578.419 372.718,580.436 375,580.899 L375,596 C375,596.553 375.447,597 376,597 C376.553,597 377,596.553 377,596 L377,580.899 C379.282,580.436 381,578.419 381,576 C381,573.581 379.282,571.564 377,571.101 L377,571.101 Z M386,593 C384.343,593 383,591.657 383,590 C383,588.344 384.343,587 386,587 C387.657,587 389,588.344 389,590 C389,591.657 387.657,593 386,593 L386,593 Z M387,585.101 L387,570 C387,569.448 386.553,569 386,569 C385.447,569 385,569.448 385,570 L385,585.101 C382.718,585.564 381,587.581 381,590 C381,592.419 382.718,594.436 385,594.899 L385,596 C385,596.553 385.447,597 386,597 C386.553,597 387,596.553 387,596 L387,594.899 C389.282,594.436 391,592.419 391,590 C391,587.581 389.282,585.564 387,585.101 L387,585.101 Z" id="equalizer" sketch:type="MSShapeGroup"></path>
        </g>
    </g>
</svg>