<?xml version="1.0" encoding="UTF-8" standalone="no"?>
<svg width="29px" height="28px" viewBox="0 0 29 28" version="1.1" xmlns="http://www.w3.org/2000/svg" xmlns:xlink="http://www.w3.org/1999/xlink" xmlns:sketch="http://www.bohemiancoding.com/sketch/ns">
    <!-- Generator: Sketch Beta 3.3.2 (12041) - http://www.bohemiancoding.com/sketch -->
    <title>Fill 195</title>
    <desc>Created with Sketch Beta.</desc>
    <defs></defs>
    <g id="Page-1" stroke="none" stroke-width="1" fill="none" fill-rule="evenodd" sketch:type="MSPage">
        <g id="Icon-Set" sketch:type="MSLayerGroup" transform="translate(-466.000000, -205.000000)" fill="#000000">
            <path d="M494,217.014 L480,217.014 C479.447,217.014 479,217.462 479,218.015 C479,218.567 479.447,219 480,219 L494,219.016 C494.553,219.016 495,218.567 495,218.015 C495,217.462 494.553,217.014 494,217.014 L494,217.014 Z M494,211.007 L480,211.007 C479.447,211.007 479,211.455 479,212.008 C479,212.561 479.447,213 480,213 L494,213 C494.553,213 495,212.561 495,212.008 C495,211.455 494.553,211.007 494,211.007 L494,211.007 Z M494,223.021 L486,223.021 C485.447,223.021 485,223.469 485,224.021 C485,224.574 485.447,225 486,225 L494,225 C494.553,225 495,224.574 495,224.021 C495,223.469 494.553,223.021 494,223.021 L494,223.021 Z M494,229.027 L482,229.027 C481.447,229.027 481,229.476 481,230.028 C481,230.581 481.447,231.029 482,231.029 L494,231 C494.553,231 495,230.581 495,230.028 C495,229.476 494.553,229.027 494,229.027 L494,229.027 Z M480,207.002 L494,207 C494.553,207 495,206.554 495,206.001 C495,205.448 494.553,205 494,205 L480,205 C479.447,205 479,205.448 479,206.001 C479,206.554 479.447,207.002 480,207.002 L480,207.002 Z M481.687,223.303 C481.295,222.909 480.659,222.909 480.268,223.303 L475,229.364 L475,205 L473,205 L473,229.4 L467.701,223.303 C467.31,222.909 466.674,222.909 466.282,223.303 C465.89,223.697 465.89,224.335 466.282,224.729 L473.224,232.717 C473.434,232.927 473.711,233.017 473.984,233.002 C474.258,233.017 474.535,232.927 474.745,232.717 L481.687,224.729 C482.079,224.335 482.079,223.697 481.687,223.303 L481.687,223.303 Z" id="Fill-195" sketch:type="MSShapeGroup"></path>
        </g>
    </g>
</svg>