<?xml version="1.0" encoding="UTF-8" standalone="no"?>
<svg width="32px" height="32px" viewBox="0 0 32 32" version="1.1" xmlns="http://www.w3.org/2000/svg" xmlns:xlink="http://www.w3.org/1999/xlink" xmlns:sketch="http://www.bohemiancoding.com/sketch/ns">
    <!-- Generator: Sketch Beta 3.3.2 (12041) - http://www.bohemiancoding.com/sketch -->
    <title>keynote-presentation</title>
    <desc>Created with Sketch Beta.</desc>
    <defs></defs>
    <g id="Page-1" stroke="none" stroke-width="1" fill="none" fill-rule="evenodd" sketch:type="MSPage">
        <g id="Icon-Set" sketch:type="MSLayerGroup" transform="translate(-464.000000, -151.000000)" fill="#000000">
            <path d="M492,172 C492,173.229 491.206,174 490,174 L470,174 C468.794,174 468,173.229 468,172 C468,172 467.985,154.257 467.985,152.99 L492.015,152.99 C492.015,155.007 492,172 492,172 L492,172 Z M464,151 L464,153 L466,153 L466,172 C466,174.37 467.644,176 470,176 L476,176 L472,183 L475.012,182.987 L479,176 L481,176 L484.988,182.987 L488,183 L484,176 L490,176 C492.356,176 494,174.37 494,172 L494,153 L496,153 L496,151 L464,151 L464,151 Z M474,171 C474.553,171 475,170.553 475,170 L475,166 C475,165.448 474.553,165 474,165 C473.447,165 473,165.448 473,166 L473,170 C473,170.553 473.447,171 474,171 L474,171 Z M486,171 C486.553,171 487,170.553 487,170 L487,161 C487,160.448 486.553,160 486,160 C485.447,160 485,160.448 485,161 L485,170 C485,170.553 485.447,171 486,171 L486,171 Z M480,171 C480.553,171 481,170.553 481,170 L481,158 C481,157.448 480.553,157 480,157 C479.447,157 479,157.448 479,158 L479,170 C479,170.553 479.447,171 480,171 L480,171 Z" id="keynote-presentation" sketch:type="MSShapeGroup"></path>
        </g>
    </g>
</svg>