<?xml version="1.0" encoding="UTF-8" standalone="no"?>
<svg width="32px" height="30px" viewBox="0 0 32 30" version="1.1" xmlns="http://www.w3.org/2000/svg" xmlns:xlink="http://www.w3.org/1999/xlink" xmlns:sketch="http://www.bohemiancoding.com/sketch/ns">
    <!-- Generator: Sketch Beta 3.3.2 (12041) - http://www.bohemiancoding.com/sketch -->
    <title>layers</title>
    <desc>Created with Sketch Beta.</desc>
    <defs></defs>
    <g id="Page-1" stroke="none" stroke-width="1" fill="none" fill-rule="evenodd" sketch:type="MSPage">
        <g id="Icon-Set-Filled" sketch:type="MSLayerGroup" transform="translate(-154.000000, -206.000000)" fill="#000000">
            <path d="M170,234.335 L156.133,227.942 C156.181,227.972 154.906,227.395 154,226.877 C154,227.65 154.194,229.066 154.915,229.449 L168.492,235.552 C169.691,236.118 170.209,236.118 171.509,235.552 L185.085,229.449 C185.755,229.137 186,227.668 186,226.877 C185.127,227.313 183.891,227.937 183.867,227.942 L170,234.335 L170,234.335 Z M154.915,216.663 L168.492,222.767 C169.691,223.332 170.209,223.332 171.509,222.767 L185.085,216.663 C186.085,216.197 186.118,214.216 185.085,213.649 L171.509,206.481 C170.442,205.849 169.691,205.882 168.492,206.481 L154.915,213.649 C153.882,214.315 153.849,216.098 154.915,216.663 L154.915,216.663 Z M154.915,223.057 L168.492,229.159 C169.691,229.725 170.209,229.725 171.509,229.159 L185.085,223.057 C185.755,222.744 186,221.275 186,220.484 C185.127,220.921 183.891,221.544 183.867,221.55 L170,227.942 L156.133,221.55 C156.181,221.579 154.906,221.002 154,220.484 C154,221.258 154.194,222.674 154.915,223.057 L154.915,223.057 Z" id="layers" sketch:type="MSShapeGroup"></path>
        </g>
    </g>
</svg>