<?xml version="1.0" encoding="UTF-8" standalone="no"?>
<svg width="26px" height="32px" viewBox="0 0 26 32" version="1.1" xmlns="http://www.w3.org/2000/svg" xmlns:xlink="http://www.w3.org/1999/xlink" xmlns:sketch="http://www.bohemiancoding.com/sketch/ns">
    <!-- Generator: Sketch Beta 3.3.2 (12041) - http://www.bohemiancoding.com/sketch -->
    <title>location 2</title>
    <desc>Created with Sketch Beta.</desc>
    <defs></defs>
    <g id="Page-1" stroke="none" stroke-width="1" fill="none" fill-rule="evenodd" sketch:type="MSPage">
        <g id="Icon-Set-Filled" sketch:type="MSLayerGroup" transform="translate(-157.000000, -413.000000)" fill="#000000">
            <path d="M182.717,425.224 L179.737,419.282 C179.524,419.069 179.241,418.982 178.962,419 L159,419 C157.896,419 157,419.896 157,421 L157,431 C157,432.104 157.896,433 159,433 L179,432.976 C179,432.976 179.534,432.89 179.737,432.688 L182.717,426.745 C182.942,426.325 182.972,426.188 183.002,425.984 C183.016,425.711 182.927,425.604 182.717,425.224 L182.717,425.224 Z M163,441 C163,443.209 164.791,445 167,445 L169,445 C171.209,445 173,443.209 173,441 L173,435 L163,435 L163,441 L163,441 Z M169,413 L167,413 C164.791,413 163,414.791 163,417 L173,417 C173,414.791 171.209,413 169,413 L169,413 Z" id="location-2" sketch:type="MSShapeGroup"></path>
        </g>
    </g>
</svg>