<?xml version="1.0" encoding="UTF-8" standalone="no"?>
<svg width="20px" height="32px" viewBox="0 0 20 32" version="1.1" xmlns="http://www.w3.org/2000/svg" xmlns:xlink="http://www.w3.org/1999/xlink" xmlns:sketch="http://www.bohemiancoding.com/sketch/ns">
    <!-- Generator: Sketch Beta 3.3.2 (12041) - http://www.bohemiancoding.com/sketch -->
    <title>locked</title>
    <desc>Created with Sketch Beta.</desc>
    <defs></defs>
    <g id="Page-1" stroke="none" stroke-width="1" fill="none" fill-rule="evenodd" sketch:type="MSPage">
        <g id="Icon-Set" sketch:type="MSLayerGroup" transform="translate(-522.000000, -307.000000)" fill="#000000">
            <path d="M532,337 C527.582,337 524,333.418 524,329 C524,324.582 527.582,321 532,321 C536.268,321 540,324.732 540,329 C540,333.418 536.418,337 532,337 L532,337 Z M526,315 C526,311.687 528.687,309 532,309 C535.313,309 538,311.687 538,315 L538,321.014 C536.327,319.755 534.255,319 532,319 C529.746,319 527.673,319.755 526,321.014 L526,315 L526,315 Z M540,323.019 L540,315 C540,310.582 536.418,307 532,307 C527.582,307 524,310.582 524,315 L524,323.019 C522.75,324.688 522,326.754 522,329 C522,334.523 526.478,339 532,339 C537.522,339 542,334.523 542,329 C542,326.754 541.25,324.688 540,323.019 L540,323.019 Z M532,327 C531.447,327 531,327.448 531,328 L531,332 C531,332.553 531.447,333 532,333 C532.553,333 533,332.553 533,332 L533,328 C533,327.448 532.553,327 532,327 L532,327 Z" id="locked" sketch:type="MSShapeGroup"></path>
        </g>
    </g>
</svg>