<?xml version="1.0" encoding="UTF-8" standalone="no"?>
<svg width="25px" height="32px" viewBox="0 0 25 32" version="1.1" xmlns="http://www.w3.org/2000/svg" xmlns:xlink="http://www.w3.org/1999/xlink" xmlns:sketch="http://www.bohemiancoding.com/sketch/ns">
    <!-- Generator: Sketch Beta 3.3.2 (12041) - http://www.bohemiancoding.com/sketch -->
    <title>microphone-off</title>
    <desc>Created with Sketch Beta.</desc>
    <defs></defs>
    <g id="Page-1" stroke="none" stroke-width="1" fill="none" fill-rule="evenodd" sketch:type="MSPage">
        <g id="Icon-Set" sketch:type="MSLayerGroup" transform="translate(-154.000000, -307.000000)" fill="#000000">
            <path d="M167,333 C165.061,333 163.236,332.362 161.716,331.318 L160.31,332.742 C161.944,333.953 163.892,334.765 166,334.955 L166,337 L165,337 C164.448,337 164,337.448 164,338 C164,338.553 164.448,339 165,339 L169,339 C169.552,339 170,338.553 170,338 C170,337.448 169.552,337 169,337 L168,337 L168,334.955 C172.938,334.51 177.117,330.799 178,326 L176,326 C175.089,330.007 171.282,333 167,333 L167,333 Z M167,329 C166.136,329 165.334,328.761 164.625,328.375 L163.168,329.85 C164.27,330.572 165.583,331 167,331 C170.866,331 174,327.866 174,324 L174,318.887 L172,320.911 L172,324 C172,326.762 169.761,329 167,329 L167,329 Z M162,314 C162,311.238 164.239,309 167,309 C169.174,309 171.005,310.396 171.694,312.334 L173.198,310.812 C172.035,308.558 169.711,307 167,307 C163.134,307 160,310.134 160,314 L160,324 C160,324.053 162,322.145 162,322.145 L162,314 L162,314 Z M177.577,310.013 L153.99,332.597 L155.418,334.005 L179.014,311.433 L177.577,310.013 L177.577,310.013 Z M158.047,326.145 C158.035,326.095 158.011,326.05 158,326 L156,326 C156.109,326.596 156.271,327.175 156.478,327.733 L158.047,326.145 L158.047,326.145 Z" id="microphone-off" sketch:type="MSShapeGroup"></path>
        </g>
    </g>
</svg>