<?xml version="1.0" encoding="UTF-8" standalone="no"?>
<svg width="32px" height="32px" viewBox="0 0 32 32" version="1.1" xmlns="http://www.w3.org/2000/svg" xmlns:xlink="http://www.w3.org/1999/xlink" xmlns:sketch="http://www.bohemiancoding.com/sketch/ns">
    <!-- Generator: Sketch Beta 3.3.2 (12041) - http://www.bohemiancoding.com/sketch -->
    <title>minus-circle</title>
    <desc>Created with Sketch Beta.</desc>
    <defs></defs>
    <g id="Page-1" stroke="none" stroke-width="1" fill="none" fill-rule="evenodd" sketch:type="MSPage">
        <g id="Icon-Set-Filled" sketch:type="MSLayerGroup" transform="translate(-518.000000, -1089.000000)" fill="#000000">
            <path d="M540,1106 L528,1106 C527.447,1106 527,1105.55 527,1105 C527,1104.45 527.447,1104 528,1104 L540,1104 C540.553,1104 541,1104.45 541,1105 C541,1105.55 540.553,1106 540,1106 L540,1106 Z M534,1089 C525.163,1089 518,1096.16 518,1105 C518,1113.84 525.163,1121 534,1121 C542.837,1121 550,1113.84 550,1105 C550,1096.16 542.837,1089 534,1089 L534,1089 Z" id="minus-circle" sketch:type="MSShapeGroup"></path>
        </g>
    </g>
</svg>