<?xml version="1.0" encoding="UTF-8" standalone="no"?>
<svg width="32px" height="32px" viewBox="0 0 32 32" version="1.1" xmlns="http://www.w3.org/2000/svg" xmlns:xlink="http://www.w3.org/1999/xlink" xmlns:sketch="http://www.bohemiancoding.com/sketch/ns">
    <!-- Generator: Sketch Beta 3.3.2 (12041) - http://www.bohemiancoding.com/sketch -->
    <title>minus-square</title>
    <desc>Created with Sketch Beta.</desc>
    <defs></defs>
    <g id="Page-1" stroke="none" stroke-width="1" fill="none" fill-rule="evenodd" sketch:type="MSPage">
        <g id="Icon-Set-Filled" sketch:type="MSLayerGroup" transform="translate(-154.000000, -1037.000000)" fill="#000000">
            <path d="M176,1054 L164,1054 C163.448,1054 163,1053.55 163,1053 C163,1052.45 163.448,1052 164,1052 L176,1052 C176.552,1052 177,1052.45 177,1053 C177,1053.55 176.552,1054 176,1054 L176,1054 Z M182,1037 L158,1037 C155.791,1037 154,1038.79 154,1041 L154,1065 C154,1067.21 155.791,1069 158,1069 L182,1069 C184.209,1069 186,1067.21 186,1065 L186,1041 C186,1038.79 184.209,1037 182,1037 L182,1037 Z" id="minus-square" sketch:type="MSShapeGroup"></path>
        </g>
    </g>
</svg>