<?xml version="1.0" encoding="UTF-8" standalone="no"?>
<svg width="32px" height="30px" viewBox="0 0 32 30" version="1.1" xmlns="http://www.w3.org/2000/svg" xmlns:xlink="http://www.w3.org/1999/xlink" xmlns:sketch="http://www.bohemiancoding.com/sketch/ns">
    <!-- Generator: Sketch Beta 3.3.2 (12041) - http://www.bohemiancoding.com/sketch -->
    <title>misty-moon</title>
    <desc>Created with Sketch Beta.</desc>
    <defs></defs>
    <g id="Page-1" stroke="none" stroke-width="1" fill="none" fill-rule="evenodd" sketch:type="MSPage">
        <g id="Icon-Set" sketch:type="MSLayerGroup" transform="translate(-516.000000, -828.000000)" fill="#000000">
            <path d="M523,848 C522.286,846.401 522,845.213 522,843.726 C522,835.593 526.369,833.048 530,831 C532.655,829.749 535.906,829.48 538,830 C533.9,831.926 529.934,838.142 529.934,844.675 C529.934,845.823 530.048,846.928 530.221,848 L523,848 L523,848 Z M547,848 L532.434,848 C532.172,846.871 532,845.709 532,844.5 C532,837.622 536.483,831.8 542.685,829.772 C540.535,828.646 538.095,828 535.5,828 C526.939,828 520,834.939 520,843.5 C520,845.065 520.237,846.575 520.669,848 L517,848 C516.447,848 516,848.448 516,849 C516,849.553 516.447,850 517,850 L547,850 C547.553,850 548,849.553 548,849 C548,848.448 547.553,848 547,848 L547,848 Z M535,852 L521,852 C520.447,852 520,852.447 520,853 C520,853.553 520.447,854 521,854 L535,854 C535.553,854 536,853.553 536,853 C536,852.447 535.553,852 535,852 L535,852 Z M533,856 L523,856 C522.447,856 522,856.448 522,857 C522,857.553 522.447,858 523,858 L533,858 C533.553,858 534,857.553 534,857 C534,856.448 533.553,856 533,856 L533,856 Z" id="misty-moon" sketch:type="MSShapeGroup"></path>
        </g>
    </g>
</svg>