<?xml version="1.0" encoding="UTF-8" standalone="no"?>
<svg width="24px" height="32px" viewBox="0 0 24 32" version="1.1" xmlns="http://www.w3.org/2000/svg" xmlns:xlink="http://www.w3.org/1999/xlink" xmlns:sketch="http://www.bohemiancoding.com/sketch/ns">
    <!-- Generator: Sketch Beta 3.3.2 (12041) - http://www.bohemiancoding.com/sketch -->
    <title>monitor-speaker</title>
    <desc>Created with Sketch Beta.</desc>
    <defs></defs>
    <g id="Page-1" stroke="none" stroke-width="1" fill="none" fill-rule="evenodd" sketch:type="MSPage">
        <g id="Icon-Set-Filled" sketch:type="MSLayerGroup" transform="translate(-106.000000, -569.000000)" fill="#000000">
            <path d="M118,599 C114.134,599 111,595.866 111,592 C111,588.134 114.134,585 118,585 C121.866,585 125,588.134 125,592 C125,595.866 121.866,599 118,599 L118,599 Z M118,573 C120.761,573 123,575.238 123,578 C123,580.762 120.761,583 118,583 C115.239,583 113,580.762 113,578 C113,575.238 115.239,573 118,573 L118,573 Z M126,569 L110,569 C107.791,569 106,570.791 106,573 L106,597 C106,599.209 107.791,601 110,601 L126,601 C128.209,601 130,599.209 130,597 L130,573 C130,570.791 128.209,569 126,569 L126,569 Z M118,587 C115.239,587 113,589.238 113,592 C113,594.762 115.239,597 118,597 C120.761,597 123,594.762 123,592 C123,589.238 120.761,587 118,587 L118,587 Z M118,581.008 C119.661,581.008 121.007,579.661 121.007,578 C121.007,576.339 119.661,574.992 118,574.992 C116.339,574.992 114.993,576.339 114.993,578 C114.993,579.661 116.339,581.008 118,581.008 L118,581.008 Z" id="monitor-speaker" sketch:type="MSShapeGroup"></path>
        </g>
    </g>
</svg>