<?xml version="1.0" encoding="UTF-8" standalone="no"?>
<svg width="32px" height="28px" viewBox="0 0 32 28" version="1.1" xmlns="http://www.w3.org/2000/svg" xmlns:xlink="http://www.w3.org/1999/xlink" xmlns:sketch="http://www.bohemiancoding.com/sketch/ns">
    <!-- Generator: Sketch Beta 3.3.2 (12041) - http://www.bohemiancoding.com/sketch -->
    <title>movie-recorder</title>
    <desc>Created with Sketch Beta.</desc>
    <defs></defs>
    <g id="Page-1" stroke="none" stroke-width="1" fill="none" fill-rule="evenodd" sketch:type="MSPage">
        <g id="Icon-Set" sketch:type="MSLayerGroup" transform="translate(-204.000000, -517.000000)" fill="#000000">
            <path d="M234,543 L228,538 L228,535 L234,531 L234,543 L234,543 Z M223,529.012 C220.232,529.012 217.989,526.768 217.989,524 C217.989,521.232 220.232,518.989 223,518.989 C225.768,518.989 228.011,521.232 228.011,524 C228.011,526.768 225.768,529.012 223,529.012 L223,529.012 Z M226,541 C226,542.104 225.104,543 224,543 L208,543 C206.896,543 206,542.104 206,541 L206,533 C206,531.896 206.896,531 208,531 L224,531 C225.104,531 226,531.896 226,533 L226,541 L226,541 Z M206,525 C206,522.791 207.791,521 210,521 C212.209,521 214,522.791 214,525 C214,527.209 212.209,529 210,529 C207.791,529 206,527.209 206,525 L206,525 Z M234,529 L228,533 C228,531.786 227.448,530.712 226.594,529.979 C228.626,528.753 230,526.546 230,524 C230,520.134 226.866,517 223,517 C219.134,517 216,520.134 216,524 C216,525.962 216.812,527.729 218.111,529 L214.443,529 C215.4,527.937 216,526.544 216,525 C216,521.687 213.313,519 210,519 C206.687,519 204,521.687 204,525 C204,526.809 204.816,528.41 206.082,529.511 C204.847,530.191 204,531.49 204,533 L204,541 C204,543.209 205.791,545 208,545 L224,545 C226.209,545 228,543.209 228,541 L228,540 L234,545 C235.104,545 236,544.104 236,543 L236,531 C236,529.896 235.104,529 234,529 L234,529 Z" id="movie-recorder" sketch:type="MSShapeGroup"></path>
        </g>
    </g>
</svg>