<?xml version="1.0" encoding="UTF-8" standalone="no"?>
<svg width="32px" height="28px" viewBox="0 0 32 28" version="1.1" xmlns="http://www.w3.org/2000/svg" xmlns:xlink="http://www.w3.org/1999/xlink" xmlns:sketch="http://www.bohemiancoding.com/sketch/ns">
    <!-- Generator: Sketch Beta 3.3.2 (12041) - http://www.bohemiancoding.com/sketch -->
    <title>movie-recorder</title>
    <desc>Created with Sketch Beta.</desc>
    <defs></defs>
    <g id="Page-1" stroke="none" stroke-width="1" fill="none" fill-rule="evenodd" sketch:type="MSPage">
        <g id="Icon-Set-Filled" sketch:type="MSLayerGroup" transform="translate(-206.000000, -519.000000)" fill="#000000">
            <path d="M225,531.012 C222.232,531.012 219.989,528.768 219.989,526 C219.989,523.232 222.232,520.989 225,520.989 C227.768,520.989 230.011,523.232 230.011,526 C230.011,528.768 227.768,531.012 225,531.012 L225,531.012 Z M212,531 C209.791,531 208,529.209 208,527 C208,524.791 209.791,523 212,523 C214.209,523 216,524.791 216,527 C216,529.209 214.209,531 212,531 L212,531 Z M236,531 L230,535 C230,533.786 229.448,532.712 228.594,531.979 C230.626,530.753 232,528.546 232,526 C232,522.134 228.866,519 225,519 C221.134,519 218,522.134 218,526 C218,527.962 218.812,529.729 220.111,531 L216.443,531 C217.4,529.937 218,528.544 218,527 C218,523.687 215.313,521 212,521 C208.687,521 206,523.687 206,527 C206,528.809 206.816,530.41 208.082,531.511 C206.847,532.191 206,533.49 206,535 L206,543 C206,545.209 207.791,547 210,547 L226,547 C228.209,547 230,545.209 230,543 L236,547 C237.104,547 238,546.104 238,545 L238,533 C238,531.896 237.104,531 236,531 L236,531 Z" id="movie-recorder" sketch:type="MSShapeGroup"></path>
        </g>
    </g>
</svg>