<?xml version="1.0" encoding="UTF-8" standalone="no"?>
<svg width="28px" height="32px" viewBox="0 0 28 32" version="1.1" xmlns="http://www.w3.org/2000/svg" xmlns:xlink="http://www.w3.org/1999/xlink" xmlns:sketch="http://www.bohemiancoding.com/sketch/ns">
    <!-- Generator: Sketch Beta 3.3.2 (12041) - http://www.bohemiancoding.com/sketch -->
    <title>multiple-documents-files</title>
    <desc>Created with Sketch Beta.</desc>
    <defs></defs>
    <g id="Page-1" stroke="none" stroke-width="1" fill="none" fill-rule="evenodd" sketch:type="MSPage">
        <g id="Icon-Set-Filled" sketch:type="MSLayerGroup" transform="translate(-208.000000, -101.000000)" fill="#000000">
            <path d="M231,109 C229.935,109 229,108.039 229,107 L229,103.031 L229,103.029 L234,109 L231,109 L231,109 Z M229,117.016 L220,117.016 C219.448,117.016 219,116.568 219,116.017 C219,115.465 219.448,115.018 220,115.018 L229,115.018 C229.552,115.018 230,115.465 230,116.017 C230,116.568 229.552,117.016 229,117.016 L229,117.016 Z M229,122.011 L220,122.011 C219.448,122.011 219,121.563 219,121.012 C219,120.46 219.448,120.013 220,120.013 L229,120.013 C229.552,120.013 230,120.46 230,121.012 C230,121.563 229.552,122.011 229,122.011 L229,122.011 Z M227,131 L212,131 C210.95,131 210,130.019 210,129 L210,109 C210,107.513 211.224,107 213,107 L213,125 C213,127.059 214.884,129 217,129 C217,129 227.842,128.989 229.009,128.989 C229.009,130.202 228.213,131 227,131 L227,131 Z M229,101.031 C228.876,101.031 217,101 217,101 C214.884,101 213,102.941 213,105 L211.845,105.027 C209.729,105.027 208,106.941 208,109 L208,129 C208,131.059 209.884,133 212,133 L227,133 C229.116,133 231,131.059 231,129 L232,129 C234.116,129 236,127.059 236,125 L236,109.023 L229,101.031 L229,101.031 Z" id="multiple-documents-files" sketch:type="MSShapeGroup"></path>
        </g>
    </g>
</svg>