<?xml version="1.0" encoding="UTF-8" standalone="no"?>
<svg width="32px" height="32px" viewBox="0 0 32 32" version="1.1" xmlns="http://www.w3.org/2000/svg" xmlns:xlink="http://www.w3.org/1999/xlink" xmlns:sketch="http://www.bohemiancoding.com/sketch/ns">
    <!-- Generator: Sketch Beta 3.3.2 (12041) - http://www.bohemiancoding.com/sketch -->
    <title>music-software</title>
    <desc>Created with Sketch Beta.</desc>
    <defs></defs>
    <g id="Page-1" stroke="none" stroke-width="1" fill="none" fill-rule="evenodd" sketch:type="MSPage">
        <g id="Icon-Set" sketch:type="MSLayerGroup" transform="translate(-100.000000, -671.000000)" fill="#000000">
            <path d="M130,695 C130,696.104 129.104,697 128,697 L104,697 C102.896,697 102,696.104 102,695 L102,675 C102,673.896 102.896,673 104,673 L128,673 C129.104,673 130,673.896 130,675 L130,695 L130,695 Z M128,671 L104,671 C101.791,671 100,672.791 100,675 L100,695 C100,697.209 101.791,699 104,699 L128,699 C130.209,699 132,697.209 132,695 L132,675 C132,672.791 130.209,671 128,671 L128,671 Z M129,701 L103,701 C102.448,701 102,701.447 102,702 C102,702.553 102.448,703 103,703 L129,703 C129.552,703 130,702.553 130,702 C130,701.447 129.552,701 129,701 L129,701 Z M124.121,690.407 C122.377,691.395 120.221,691.254 119.373,690.22 C118.524,689.187 119.275,687.595 121.05,686.664 C122.824,685.733 124.369,685.786 125.425,686.528 C126.79,687.486 125.708,689.508 124.121,690.407 L124.121,690.407 Z M111.115,692.412 C109.37,693.396 107.212,693.246 106.367,692.21 C105.522,691.174 106.278,689.584 108.056,688.659 C109.833,687.734 111.419,687.737 112.432,688.537 C113.686,689.529 112.642,691.55 111.115,692.412 L111.115,692.412 Z M127,675 L114,677 C113.448,677 113,677.447 113,678 L113,686.461 C111.456,685.753 109.276,685.866 107.307,686.937 C104.519,688.452 103.237,691.276 104.444,693.245 C105.652,695.215 109.212,695.516 112,694 C114.174,692.818 115.125,690.748 115,689 C115.009,688.945 115,678.846 115,678.846 L126,677.154 L126,684.461 C124.456,683.753 122.276,683.866 120.307,684.937 C117.519,686.452 116.237,689.276 117.444,691.245 C118.652,693.215 122.212,693.516 125,692 C127.174,690.817 128.124,688.748 128,687 C128.009,686.945 128,676 128,676 C128,675.448 127.552,675 127,675 L127,675 Z" id="music-software" sketch:type="MSShapeGroup"></path>
        </g>
    </g>
</svg>