<?xml version="1.0" encoding="UTF-8" standalone="no"?>
<svg width="32px" height="30px" viewBox="0 0 32 30" version="1.1" xmlns="http://www.w3.org/2000/svg" xmlns:xlink="http://www.w3.org/1999/xlink" xmlns:sketch="http://www.bohemiancoding.com/sketch/ns">
    <!-- Generator: Sketch Beta 3.3.2 (12041) - http://www.bohemiancoding.com/sketch -->
    <title>music-note-3</title>
    <desc>Created with Sketch Beta.</desc>
    <defs></defs>
    <g id="Page-1" stroke="none" stroke-width="1" fill="none" fill-rule="evenodd" sketch:type="MSPage">
        <g id="Icon-Set" sketch:type="MSLayerGroup" transform="translate(-568.000000, -620.000000)" fill="#000000">
            <path d="M595.151,643.188 C592.289,644.789 588.784,644.555 587.409,642.824 C586.033,641.093 587.271,638.45 590.171,636.92 C593.072,635.391 595.724,635.328 597.309,636.743 C599.015,638.265 597.553,641.847 595.151,643.188 L595.151,643.188 Z M578,647 C575.105,648.571 571.801,648.603 570.407,646.874 C569.014,645.146 570.237,642.482 573.14,640.925 C576.042,639.368 578.591,639.427 580.306,640.696 C582.186,642.087 580.465,645.662 578,647 L578,647 Z M599,620 C598.849,620 598.709,620.039 598.581,620.099 L582,624 C581.447,624 581,624.448 581,625 L581,639.002 C578.899,637.636 575.522,637.638 572.51,639.24 C568.707,641.263 566.96,645.031 568.606,647.659 C570.253,650.286 574.67,650.776 578.472,648.754 C580.923,647.45 582.615,644.981 583,643 L583,625.765 L598,622.235 L598,635.002 C595.899,633.636 592.522,633.638 589.51,635.24 C585.707,637.263 583.96,641.031 585.606,643.659 C587.253,646.286 591.842,646.902 595.659,644.91 C598.517,643.419 599.771,641.106 600,639 L600,621 C600,620.447 599.553,620 599,620 L599,620 Z" id="music-note-3" sketch:type="MSShapeGroup"></path>
        </g>
    </g>
</svg>