<?xml version="1.0" encoding="UTF-8" standalone="no"?>
<svg width="32px" height="32px" viewBox="0 0 32 32" version="1.1" xmlns="http://www.w3.org/2000/svg" xmlns:xlink="http://www.w3.org/1999/xlink" xmlns:sketch="http://www.bohemiancoding.com/sketch/ns">
    <!-- Generator: Sketch Beta 3.3.2 (12041) - http://www.bohemiancoding.com/sketch -->
    <title>note-text</title>
    <desc>Created with Sketch Beta.</desc>
    <defs></defs>
    <g id="Page-1" stroke="none" stroke-width="1" fill="none" fill-rule="evenodd" sketch:type="MSPage">
        <g id="Icon-Set" sketch:type="MSLayerGroup" transform="translate(-308.000000, -99.000000)" fill="#000000">
            <path d="M332,107 L316,107 C315.447,107 315,107.448 315,108 C315,108.553 315.447,109 316,109 L332,109 C332.553,109 333,108.553 333,108 C333,107.448 332.553,107 332,107 L332,107 Z M338,127 C338,128.099 336.914,129.012 335.817,129.012 L311.974,129.012 C310.877,129.012 309.987,128.122 309.987,127.023 L309.987,103.165 C309.987,102.066 310.902,101 312,101 L336,101 C337.098,101 338,101.902 338,103 L338,127 L338,127 Z M336,99 L312,99 C309.806,99 308,100.969 308,103.165 L308,127.023 C308,129.22 309.779,131 311.974,131 L335.817,131 C338.012,131 340,129.196 340,127 L340,103 C340,100.804 338.194,99 336,99 L336,99 Z M332,119 L316,119 C315.447,119 315,119.448 315,120 C315,120.553 315.447,121 316,121 L332,121 C332.553,121 333,120.553 333,120 C333,119.448 332.553,119 332,119 L332,119 Z M332,113 L316,113 C315.447,113 315,113.448 315,114 C315,114.553 315.447,115 316,115 L332,115 C332.553,115 333,114.553 333,114 C333,113.448 332.553,113 332,113 L332,113 Z" id="note-text" sketch:type="MSShapeGroup"></path>
        </g>
    </g>
</svg>