<?xml version="1.0" encoding="UTF-8" standalone="no"?>
<svg width="28px" height="27px" viewBox="0 0 28 27" version="1.1" xmlns="http://www.w3.org/2000/svg" xmlns:xlink="http://www.w3.org/1999/xlink" xmlns:sketch="http://www.bohemiancoding.com/sketch/ns">
    <!-- Generator: Sketch Beta 3.3.2 (12041) - http://www.bohemiancoding.com/sketch -->
    <title>open</title>
    <desc>Created with Sketch Beta.</desc>
    <defs></defs>
    <g id="Page-1" stroke="none" stroke-width="1" fill="none" fill-rule="evenodd" sketch:type="MSPage">
        <g id="Icon-Set" sketch:type="MSLayerGroup" transform="translate(-154.000000, -621.000000)" fill="#000000">
            <path d="M168,624.695 L179.2,641.99 L156.8,641.99 L168,624.695 L168,624.695 Z M156.014,643.995 L180.018,643.995 C182.375,643.995 182.296,642.608 181.628,641.574 L169.44,622.555 C168.882,621.771 167.22,621.703 166.56,622.555 L154.372,641.574 C153.768,642.703 153.687,643.995 156.014,643.995 L156.014,643.995 Z M181,645.998 L155,645.998 C154.448,645.998 154,646.446 154,646.999 C154,647.552 154.448,648 155,648 L181,648 C181.552,648 182,647.552 182,646.999 C182,646.446 181.552,645.998 181,645.998 L181,645.998 Z" id="open" sketch:type="MSShapeGroup"></path>
        </g>
    </g>
</svg>