<?xml version="1.0" encoding="UTF-8" standalone="no"?>
<svg width="31px" height="31px" viewBox="0 0 31 31" version="1.1" xmlns="http://www.w3.org/2000/svg" xmlns:xlink="http://www.w3.org/1999/xlink" xmlns:sketch="http://www.bohemiancoding.com/sketch/ns">
    <!-- Generator: Sketch Beta 3.3.2 (12041) - http://www.bohemiancoding.com/sketch -->
    <title>permalink</title>
    <desc>Created with Sketch Beta.</desc>
    <defs></defs>
    <g id="Page-1" stroke="none" stroke-width="1" fill="none" fill-rule="evenodd" sketch:type="MSPage">
        <g id="Icon-Set" sketch:type="MSLayerGroup" transform="translate(-153.000000, -723.000000)" fill="#000000">
            <path d="M171.702,735.282 C171.307,734.888 170.667,734.888 170.272,735.282 L165.267,740.287 C164.872,740.683 164.872,741.322 165.267,741.718 C165.662,742.112 166.302,742.112 166.697,741.718 L171.702,736.713 C172.097,736.317 172.097,735.678 171.702,735.282 L171.702,735.282 Z M182.785,725.613 L181.355,724.184 C179.775,722.604 177.214,722.604 175.635,724.184 L168.484,731.334 C167.428,732.39 167.095,733.881 167.451,735.228 L177.064,725.613 C177.854,724.824 179.135,724.824 179.925,725.613 L181.355,727.044 C182.145,727.834 182.145,729.114 181.355,729.904 L171.741,739.518 C173.088,739.873 174.579,739.54 175.635,738.484 L182.785,731.334 C184.365,729.755 184.365,727.193 182.785,725.613 L182.785,725.613 Z M159.904,751.354 C159.114,752.145 157.833,752.145 157.043,751.354 L155.614,749.925 C154.824,749.135 154.824,747.854 155.614,747.064 L165.228,737.451 C163.881,737.095 162.39,737.429 161.334,738.484 L154.184,745.635 C152.604,747.214 152.604,749.775 154.184,751.354 L155.614,752.785 C157.193,754.365 159.754,754.365 161.334,752.785 L168.484,745.635 C169.54,744.579 169.874,743.088 169.518,741.741 L159.904,751.354 L159.904,751.354 Z" id="permalink" sketch:type="MSShapeGroup"></path>
        </g>
    </g>
</svg>