<?xml version="1.0" encoding="UTF-8" standalone="no"?>
<svg width="20px" height="32px" viewBox="0 0 20 32" version="1.1" xmlns="http://www.w3.org/2000/svg" xmlns:xlink="http://www.w3.org/1999/xlink" xmlns:sketch="http://www.bohemiancoding.com/sketch/ns">
    <!-- Generator: Sketch Beta 3.3.2 (12041) - http://www.bohemiancoding.com/sketch -->
    <title>raindrop</title>
    <desc>Created with Sketch Beta.</desc>
    <defs></defs>
    <g id="Page-1" stroke="none" stroke-width="1" fill="none" fill-rule="evenodd" sketch:type="MSPage">
        <g id="Icon-Set" sketch:type="MSLayerGroup" transform="translate(-314.000000, -827.000000)" fill="#000000">
            <path d="M324,857 C319.582,857 316,853.502 316,849.188 C316,844.873 321.533,833.915 324,831 C326.409,833.859 332,844.873 332,849.188 C332,853.502 328.418,857 324,857 L324,857 Z M324,827 C320.917,830.731 314,843.478 314,849 C314,854.523 318.478,859 324,859 C329.522,859 334,854.523 334,849 C334,843.478 327.012,830.66 324,827 L324,827 Z" id="raindrop" sketch:type="MSShapeGroup"></path>
        </g>
    </g>
</svg>