<?xml version="1.0" encoding="UTF-8" standalone="no"?>
<svg width="32px" height="32px" viewBox="0 0 32 32" version="1.1" xmlns="http://www.w3.org/2000/svg" xmlns:xlink="http://www.w3.org/1999/xlink" xmlns:sketch="http://www.bohemiancoding.com/sketch/ns">
    <!-- Generator: Sketch Beta 3.3.2 (12041) - http://www.bohemiancoding.com/sketch -->
    <title>rain</title>
    <desc>Created with Sketch Beta.</desc>
    <defs></defs>
    <g id="Page-1" stroke="none" stroke-width="1" fill="none" fill-rule="evenodd" sketch:type="MSPage">
        <g id="Icon-Set" sketch:type="MSLayerGroup" transform="translate(-568.000000, -775.000000)" fill="#000000">
            <path d="M590,797 L577,797 C571.99,796.942 570,793.111 570,791 C570,788.272 572.423,785.21 576,785 C575.968,780.937 578.483,777 583,777 C586.428,777 588.699,779.1 589.518,782.012 C594.142,781.799 598,785.057 598,789 C598,793.199 594.976,797 590,797 L590,797 Z M591.067,780.029 C589.599,777.053 586.543,775 583,775 C578.251,775 574.37,778.682 574.033,783.345 C570.542,784.341 568,787.39 568,791 C568,795.26 571.54,798.755 576,799 L591,799 C595.903,799 600,794.747 600,789.5 C600,784.008 596.049,780.324 591.067,780.029 L591.067,780.029 Z M591,801 C590.447,801 590,801.448 590,802 C590,802.553 590.447,803 591,803 C591.553,803 592,802.553 592,802 C592,801.448 591.553,801 591,801 L591,801 Z M587,805 C586.447,805 586,805.448 586,806 C586,806.553 586.447,807 587,807 C587.553,807 588,806.553 588,806 C588,805.448 587.553,805 587,805 L587,805 Z M581,805 C580.447,805 580,805.448 580,806 C580,806.553 580.447,807 581,807 C581.553,807 582,806.553 582,806 C582,805.448 581.553,805 581,805 L581,805 Z M579,801 C578.447,801 578,801.448 578,802 C578,802.553 578.447,803 579,803 C579.553,803 580,802.553 580,802 C580,801.448 579.553,801 579,801 L579,801 Z M585,801 C584.447,801 584,801.448 584,802 C584,802.553 584.447,803 585,803 C585.553,803 586,802.553 586,802 C586,801.448 585.553,801 585,801 L585,801 Z" id="rain" sketch:type="MSShapeGroup"></path>
        </g>
    </g>
</svg>