<?xml version="1.0" encoding="UTF-8" standalone="no"?>
<svg width="32px" height="32px" viewBox="0 0 32 32" version="1.1" xmlns="http://www.w3.org/2000/svg" xmlns:xlink="http://www.w3.org/1999/xlink" xmlns:sketch="http://www.bohemiancoding.com/sketch/ns">
    <!-- Generator: Sketch Beta 3.3.2 (12041) - http://www.bohemiancoding.com/sketch -->
    <title>refresh</title>
    <desc>Created with Sketch Beta.</desc>
    <defs></defs>
    <g id="Page-1" stroke="none" stroke-width="1" fill="none" fill-rule="evenodd" sketch:type="MSPage">
        <g id="Icon-Set-Filled" sketch:type="MSLayerGroup" transform="translate(-154.000000, -1141.000000)" fill="#000000">
            <path d="M184.858,1143.56 C185.397,1143.02 186.009,1142.55 186.009,1142 C186.009,1141.45 185.562,1141 185.009,1141 L175.009,1141 C174.888,1141 174.009,1141 174.009,1142 L174.009,1152 C174.009,1152.55 174.457,1153 175.009,1153 C175.562,1153 175.947,1152.47 176.373,1152.05 L179.152,1149.27 C180.922,1151.36 182,1154.05 182,1157 C182,1163.63 176.627,1169 170,1169 C163.373,1169 158,1163.63 158,1157 C158,1151.06 162.327,1146.13 168,1145.18 L168,1141.14 C160.109,1142.12 154,1148.84 154,1157 C154,1165.84 161.164,1173 170,1173 C178.836,1173 186,1165.84 186,1157 C186,1152.94 184.484,1149.25 181.993,1146.43 L184.858,1143.56" id="refresh" sketch:type="MSShapeGroup"></path>
        </g>
    </g>
</svg>