<?xml version="1.0" encoding="UTF-8" standalone="no"?>
<svg width="27px" height="28px" viewBox="0 0 27 28" version="1.1" xmlns="http://www.w3.org/2000/svg" xmlns:xlink="http://www.w3.org/1999/xlink" xmlns:sketch="http://www.bohemiancoding.com/sketch/ns">
    <!-- Generator: Sketch Beta 3.3.2 (12041) - http://www.bohemiancoding.com/sketch -->
    <title>reply</title>
    <desc>Created with Sketch Beta.</desc>
    <defs></defs>
    <g id="Page-1" stroke="none" stroke-width="1" fill="none" fill-rule="evenodd" sketch:type="MSPage">
        <g id="Icon-Set-Filled" sketch:type="MSLayerGroup" transform="translate(-102.000000, -1195.000000)" fill="#000000">
            <path d="M113.983,1202.01 L113.983,1196.11 C114.017,1195.81 113.936,1195.51 113.708,1195.28 C113.312,1194.89 112.67,1194.89 112.274,1195.28 L102.285,1206.24 C102.074,1206.45 101.984,1206.72 101.998,1207 C101.984,1207.27 102.074,1207.55 102.285,1207.76 L112.219,1218.65 C112.59,1218.97 113.271,1219.15 113.708,1218.71 C113.935,1218.49 114.035,1218.29 114,1218 L114,1212 C120.6,1212 126.569,1216.75 127.754,1223.01 C128.552,1221.17 129,1219.15 129,1217.02 C129,1208.73 122.276,1202.01 113.983,1202.01" id="reply" sketch:type="MSShapeGroup"></path>
        </g>
    </g>
</svg>