<?xml version="1.0" encoding="UTF-8" standalone="no"?>
<svg width="27px" height="28px" viewBox="0 0 27 28" version="1.1" xmlns="http://www.w3.org/2000/svg" xmlns:xlink="http://www.w3.org/1999/xlink" xmlns:sketch="http://www.bohemiancoding.com/sketch/ns">
    <!-- Generator: Sketch Beta 3.3.2 (12041) - http://www.bohemiancoding.com/sketch -->
    <title>reply</title>
    <desc>Created with Sketch Beta.</desc>
    <defs></defs>
    <g id="Page-1" stroke="none" stroke-width="1" fill="none" fill-rule="evenodd" sketch:type="MSPage">
        <g id="Icon-Set" sketch:type="MSLayerGroup" transform="translate(-100.000000, -1193.000000)" fill="#000000">
            <path d="M113,1208 C112.346,1208 109.98,1208.02 109.98,1208.02 L109.98,1213.39 L102.323,1205 L109.98,1196.6 L109.98,1202.01 C109.98,1202.01 112.48,1201.98 113,1202 C120.062,1202.22 124.966,1210.26 124.998,1214.02 C122.84,1211.25 117.17,1208 113,1208 L113,1208 Z M111.983,1200.01 L111.983,1194.11 C112.017,1193.81 111.936,1193.51 111.708,1193.28 C111.312,1192.89 110.67,1192.89 110.274,1193.28 L100.285,1204.24 C100.074,1204.45 99.984,1204.72 99.998,1205 C99.984,1205.27 100.074,1205.55 100.285,1205.76 L110.219,1216.65 C110.403,1216.88 110.67,1217.03 110.981,1217.03 C111.265,1217.03 111.518,1216.91 111.7,1216.72 C111.702,1216.72 111.706,1216.72 111.708,1216.71 C111.936,1216.49 112.017,1216.18 111.983,1215.89 C111.983,1215.89 112,1210.34 112,1210 C118.6,1210 124.569,1214.75 125.754,1221.01 C126.552,1219.17 127,1217.15 127,1215.02 C127,1206.73 120.276,1200.01 111.983,1200.01 L111.983,1200.01 Z" id="reply" sketch:type="MSShapeGroup"></path>
        </g>
    </g>
</svg>