<?xml version="1.0" encoding="UTF-8" standalone="no"?>
<svg width="28px" height="28px" viewBox="0 0 28 28" version="1.1" xmlns="http://www.w3.org/2000/svg" xmlns:xlink="http://www.w3.org/1999/xlink" xmlns:sketch="http://www.bohemiancoding.com/sketch/ns">
    <!-- Generator: Sketch Beta 3.3.2 (12041) - http://www.bohemiancoding.com/sketch -->
    <title>resize</title>
    <desc>Created with Sketch Beta.</desc>
    <defs></defs>
    <g id="Page-1" stroke="none" stroke-width="1" fill="none" fill-rule="evenodd" sketch:type="MSPage">
        <g id="Icon-Set-Filled" sketch:type="MSLayerGroup" transform="translate(-260.000000, -883.000000)" fill="#000000">
            <path d="M286,907 C284.896,907 284,907.896 284,909 C284,910.104 284.896,911 286,911 C287.104,911 288,910.104 288,909 C288,907.896 287.104,907 286,907 L286,907 Z M262,907 C260.896,907 260,907.896 260,909 C260,910.104 260.896,911 262,911 C263.104,911 264,910.104 264,909 C264,907.896 263.104,907 262,907 L262,907 Z M286,905 C286.348,905 286.679,905.059 287,905.142 L287,888.858 C286.679,888.941 286.348,889 286,889 C283.791,889 282,887.209 282,885 C282,884.652 282.058,884.321 282.142,884 L265.858,884 C265.942,884.321 266,884.652 266,885 C266,887.209 264.209,889 262,889 C261.652,889 261.321,888.941 261,888.858 L261,905.142 C261.321,905.059 261.652,905 262,905 C264.209,905 266,906.791 266,909 C266,909.348 265.942,909.679 265.858,910 L282.142,910 C282.058,909.679 282,909.348 282,909 C282,906.791 283.791,905 286,905 L286,905 Z M262,887 C263.104,887 264,886.104 264,885 C264,883.896 263.104,883 262,883 C260.896,883 260,883.896 260,885 C260,886.104 260.896,887 262,887 L262,887 Z M286,887 C287.104,887 288,886.104 288,885 C288,883.896 287.104,883 286,883 C284.896,883 284,883.896 284,885 C284,886.104 284.896,887 286,887 L286,887 Z" id="resize" sketch:type="MSShapeGroup"></path>
        </g>
    </g>
</svg>