<?xml version="1.0" encoding="UTF-8" standalone="no"?>
<svg width="29px" height="28px" viewBox="0 0 29 28" version="1.1" xmlns="http://www.w3.org/2000/svg" xmlns:xlink="http://www.w3.org/1999/xlink" xmlns:sketch="http://www.bohemiancoding.com/sketch/ns">
    <!-- Generator: Sketch Beta 3.3.2 (12041) - http://www.bohemiancoding.com/sketch -->
    <title>sort-by</title>
    <desc>Created with Sketch Beta.</desc>
    <defs></defs>
    <g id="Page-1" stroke="none" stroke-width="1" fill="none" fill-rule="evenodd" sketch:type="MSPage">
        <g id="Icon-Set-Filled" sketch:type="MSLayerGroup" transform="translate(-468.000000, -207.000000)" fill="#000000">
            <path d="M495,219 L483,219 C481.896,219 481,219.896 481,221 C481,222.104 481.896,223 483,223 L495,223 C496.104,223 497,222.104 497,221 C497,219.896 496.104,219 495,219 L495,219 Z M495,213 L483,213 C481.896,213 481,213.896 481,215 C481,216.104 481.896,217 483,217 L495,217 C496.104,217 497,216.104 497,215 C497,213.896 496.104,213 495,213 L495,213 Z M495,225 L489,225 C487.896,225 487,225.896 487,227 C487,228.104 487.896,229 489,229 L495,229 C496.104,229 497,228.104 497,227 C497,225.896 496.104,225 495,225 L495,225 Z M483.687,225.303 C483.295,224.909 483,225 483,225 L477,225 L477,207 L475,207 L475,225 L469,225 C469,225 468.674,224.909 468.282,225.303 C467.89,225.697 467.89,226.335 468.282,226.729 L475.224,234.717 C475.434,234.927 475.711,235.017 475.984,235.002 C476.258,235.017 476.535,234.927 476.745,234.717 L483.687,226.729 C484.079,226.335 484.079,225.697 483.687,225.303 L483.687,225.303 Z M495,231 L483,231 C481.896,231 481,231.896 481,233 C481,234.104 481.896,235 483,235 L495,235 C496.104,235 497,234.104 497,233 C497,231.896 496.104,231 495,231 L495,231 Z M483,211 L495,211 C496.104,211 497,210.104 497,209 C497,207.896 496.104,207 495,207 L483,207 C481.896,207 481,207.896 481,209 C481,210.104 481.896,211 483,211 L483,211 Z" id="sort-by" sketch:type="MSShapeGroup"></path>
        </g>
    </g>
</svg>