<?xml version="1.0" encoding="UTF-8" standalone="no"?>
<svg width="32px" height="32px" viewBox="0 0 32 32" version="1.1" xmlns="http://www.w3.org/2000/svg" xmlns:xlink="http://www.w3.org/1999/xlink" xmlns:sketch="http://www.bohemiancoding.com/sketch/ns">
    <!-- Generator: Sketch Beta 3.3.2 (12041) - http://www.bohemiancoding.com/sketch -->
    <title>speaker</title>
    <desc>Created with Sketch Beta.</desc>
    <defs></defs>
    <g id="Page-1" stroke="none" stroke-width="1" fill="none" fill-rule="evenodd" sketch:type="MSPage">
        <g id="Icon-Set" sketch:type="MSLayerGroup" transform="translate(-568.000000, -515.000000)" fill="#000000">
            <path d="M595,519 C594.447,519 594,519.447 594,520 C594,520.553 594.447,521 595,521 C595.553,521 596,520.553 596,520 C596,519.447 595.553,519 595,519 L595,519 Z M598,543 C598,544.104 597.104,545 596,545 L572,545 C570.896,545 570,544.104 570,543 L570,519 C570,517.896 570.896,517 572,517 L596,517 C597.104,517 598,517.896 598,519 L598,543 L598,543 Z M596,515 L572,515 C569.791,515 568,516.791 568,519 L568,543 C568,545.209 569.791,547 572,547 L596,547 C598.209,547 600,545.209 600,543 L600,519 C600,516.791 598.209,515 596,515 L596,515 Z M584,535 C581.791,535 580,533.209 580,531 C580,528.791 581.791,527 584,527 C586.209,527 588,528.791 588,531 C588,533.209 586.209,535 584,535 L584,535 Z M584,525 C580.687,525 578,527.687 578,531 C578,534.313 580.687,537 584,537 C587.313,537 590,534.313 590,531 C590,527.687 587.313,525 584,525 L584,525 Z M584,541 C578.478,541 574,536.523 574,531 C574,525.478 578.478,521 584,521 C589.522,521 594,525.478 594,531 C594,536.523 589.522,541 584,541 L584,541 Z M584,519 C577.373,519 572,524.373 572,531 C572,537.628 577.373,543 584,543 C590.627,543 596,537.628 596,531 C596,524.373 590.627,519 584,519 L584,519 Z M573,541 C572.447,541 572,541.447 572,542 C572,542.553 572.447,543 573,543 C573.553,543 574,542.553 574,542 C574,541.447 573.553,541 573,541 L573,541 Z M573,521 C573.553,521 574,520.553 574,520 C574,519.447 573.553,519 573,519 C572.447,519 572,519.447 572,520 C572,520.553 572.447,521 573,521 L573,521 Z M595,541 C594.447,541 594,541.447 594,542 C594,542.553 594.447,543 595,543 C595.553,543 596,542.553 596,542 C596,541.447 595.553,541 595,541 L595,541 Z" id="speaker" sketch:type="MSShapeGroup"></path>
        </g>
    </g>
</svg>