<?xml version="1.0" encoding="UTF-8" standalone="no"?>
<svg width="30px" height="28px" viewBox="0 0 30 28" version="1.1" xmlns="http://www.w3.org/2000/svg" xmlns:xlink="http://www.w3.org/1999/xlink" xmlns:sketch="http://www.bohemiancoding.com/sketch/ns">
    <!-- Generator: Sketch Beta 3.3.2 (12041) - http://www.bohemiancoding.com/sketch -->
    <title>sunset</title>
    <desc>Created with Sketch Beta.</desc>
    <defs></defs>
    <g id="Page-1" stroke="none" stroke-width="1" fill="none" fill-rule="evenodd" sketch:type="MSPage">
        <g id="Icon-Set-Filled" sketch:type="MSLayerGroup" transform="translate(-259.000000, -831.000000)" fill="#000000">
            <path d="M284,857 L264,857 C263.448,857 263,857.448 263,858 C263,858.553 263.448,859 264,859 L284,859 C284.552,859 285,858.553 285,858 C285,857.448 284.552,857 284,857 L284,857 Z M287,853 L261,853 C260.448,853 260,853.448 260,854 C260,854.553 260.448,855 261,855 L287,855 C287.552,855 288,854.553 288,854 C288,853.448 287.552,853 287,853 L287,853 Z M288,849 L260,849 C259.448,849 259,849.447 259,850 C259,850.553 259.448,851 260,851 L288,851 C288.552,851 289,850.553 289,850 C289,849.447 288.552,849 288,849 L288,849 Z M274,835 C274.552,835 275,834.553 275,834 L275,832 C275,831.447 274.552,831 274,831 C273.448,831 273,831.447 273,832 L273,834 C273,834.553 273.448,835 274,835 L274,835 Z M286,839.414 L287.414,838 C287.805,837.609 287.805,836.977 287.414,836.586 C287.024,836.195 286.391,836.195 286,836.586 L284.586,838 C284.195,838.391 284.195,839.023 284.586,839.414 C284.977,839.805 285.609,839.805 286,839.414 L286,839.414 Z M262,839.414 C262.391,839.805 263.024,839.805 263.414,839.414 C263.805,839.023 263.805,838.391 263.414,838 L262,836.586 C261.609,836.195 260.977,836.195 260.586,836.586 C260.195,836.977 260.195,837.609 260.586,838 L262,839.414 L262,839.414 Z M286,847 C285.231,841.359 280.096,837 274,837 C267.904,837 262.769,841.359 262,847 L286,847 L286,847 Z" id="sunset" sketch:type="MSShapeGroup"></path>
        </g>
    </g>
</svg>