<?xml version="1.0" encoding="UTF-8" standalone="no"?>
<svg width="26px" height="32px" viewBox="0 0 26 32" version="1.1" xmlns="http://www.w3.org/2000/svg" xmlns:xlink="http://www.w3.org/1999/xlink" xmlns:sketch="http://www.bohemiancoding.com/sketch/ns">
    <!-- Generator: Sketch Beta 3.3.2 (12041) - http://www.bohemiancoding.com/sketch -->
    <title>text-document</title>
    <desc>Created with Sketch Beta.</desc>
    <defs></defs>
    <g id="Page-1" stroke="none" stroke-width="1" fill="none" fill-rule="evenodd" sketch:type="MSPage">
        <g id="Icon-Set-Filled" sketch:type="MSLayerGroup" transform="translate(-105.000000, -101.000000)" fill="#000000">
            <path d="M125,109 C123.896,109 123,108.104 123,107 L123,103 L129,109 L125,109 L125,109 Z M124,119 L112,119 C111.448,119 111,118.553 111,118 C111,117.448 111.448,117 112,117 L124,117 C124.552,117 125,117.448 125,118 C125,118.553 124.552,119 124,119 L124,119 Z M124,125 L112,125 C111.448,125 111,124.553 111,124 C111,123.447 111.448,123 112,123 L124,123 C124.552,123 125,123.447 125,124 C125,124.553 124.552,125 124,125 L124,125 Z M123,101.028 C122.872,101.028 109,101 109,101 C106.791,101 105,102.791 105,105 L105,129 C105,131.209 106.791,133 109,133 L127,133 C129.209,133 131,131.209 131,129 L131,109 L123,101.028 L123,101.028 Z" id="text-document" sketch:type="MSShapeGroup"></path>
        </g>
    </g>
</svg>