<?xml version="1.0" encoding="UTF-8" standalone="no"?>
<svg width="26px" height="32px" viewBox="0 0 26 32" version="1.1" xmlns="http://www.w3.org/2000/svg" xmlns:xlink="http://www.w3.org/1999/xlink" xmlns:sketch="http://www.bohemiancoding.com/sketch/ns">
    <!-- Generator: Sketch Beta 3.3.2 (12041) - http://www.bohemiancoding.com/sketch -->
    <title>text-document</title>
    <desc>Created with Sketch Beta.</desc>
    <defs></defs>
    <g id="Page-1" stroke="none" stroke-width="1" fill="none" fill-rule="evenodd" sketch:type="MSPage">
        <g id="Icon-Set" sketch:type="MSLayerGroup" transform="translate(-103.000000, -99.000000)" fill="#000000">
            <path d="M122,115 L110,115 C109.448,115 109,115.448 109,116 C109,116.553 109.448,117 110,117 L122,117 C122.552,117 123,116.553 123,116 C123,115.448 122.552,115 122,115 L122,115 Z M122,121 L110,121 C109.448,121 109,121.447 109,122 C109,122.553 109.448,123 110,123 L122,123 C122.552,123 123,122.553 123,122 C123,121.447 122.552,121 122,121 L122,121 Z M123,107 C121.896,107 121,106.104 121,105 L121,101 L127,107 L123,107 L123,107 Z M127,127 C127,128.104 126.104,129 125,129 L107,129 C105.896,129 105,128.104 105,127 L105,103 C105,101.896 105.896,101 107,101 L118.972,101 C118.954,103.395 119,105 119,105 C119,107.209 120.791,109 123,109 L127,109 L127,127 L127,127 Z M121,99 L121,99.028 C120.872,99.028 120.338,98.979 119,99 L107,99 C104.791,99 103,100.791 103,103 L103,127 C103,129.209 104.791,131 107,131 L125,131 C127.209,131 129,129.209 129,127 L129,107 L121,99 L121,99 Z" id="text-document" sketch:type="MSShapeGroup"></path>
        </g>
    </g>
</svg>