<?xml version="1.0" encoding="UTF-8" standalone="no"?>
<svg width="32px" height="20px" viewBox="0 0 32 20" version="1.1" xmlns="http://www.w3.org/2000/svg" xmlns:xlink="http://www.w3.org/1999/xlink" xmlns:sketch="http://www.bohemiancoding.com/sketch/ns">
    <!-- Generator: Sketch Beta 3.3.2 (12041) - http://www.bohemiancoding.com/sketch -->
    <title>toggle-off</title>
    <desc>Created with Sketch Beta.</desc>
    <defs></defs>
    <g id="Page-1" stroke="none" stroke-width="1" fill="none" fill-rule="evenodd" sketch:type="MSPage">
        <g id="Icon-Set" sketch:type="MSLayerGroup" transform="translate(-256.000000, -365.000000)" fill="#000000">
            <path d="M278,383 L266,383 C261.582,383 258,379.418 258,375 C258,370.582 261.582,367 266,367 L278,367 C282.418,367 286,370.582 286,375 C286,379.418 282.418,383 278,383 L278,383 Z M278,365 L266,365 C260.477,365 256,369.478 256,375 C256,380.522 260.477,385 266,385 L278,385 C283.523,385 288,380.522 288,375 C288,369.478 283.523,365 278,365 L278,365 Z M278,379 C275.791,379 274,377.209 274,375 C274,372.791 275.791,371 278,371 C280.209,371 282,372.791 282,375 C282,377.209 280.209,379 278,379 L278,379 Z M278,369 C274.687,369 272,371.687 272,375 C272,378.313 274.687,381 278,381 C281.313,381 284,378.313 284,375 C284,371.687 281.313,369 278,369 L278,369 Z" id="toggle-off" sketch:type="MSShapeGroup"></path>
        </g>
    </g>
</svg>