<?xml version="1.0" encoding="UTF-8" standalone="no"?>
<svg width="32px" height="32px" viewBox="0 0 32 32" version="1.1" xmlns="http://www.w3.org/2000/svg" xmlns:xlink="http://www.w3.org/1999/xlink" xmlns:sketch="http://www.bohemiancoding.com/sketch/ns">
    <!-- Generator: Sketch Beta 3.3.2 (12041) - http://www.bohemiancoding.com/sketch -->
    <title>tv-television</title>
    <desc>Created with Sketch Beta.</desc>
    <defs></defs>
    <g id="Page-1" stroke="none" stroke-width="1" fill="none" fill-rule="evenodd" sketch:type="MSPage">
        <g id="Icon-Set-Filled" sketch:type="MSLayerGroup" transform="translate(-362.000000, -517.000000)" fill="#000000">
            <path d="M387,535 C385.343,535 384,533.657 384,532 C384,530.343 385.343,529 387,529 C388.657,529 390,530.343 390,532 C390,533.657 388.657,535 387,535 L387,535 Z M389,542 L385,542 C384.447,542 384,541.553 384,541 C384,540.447 384.447,540 385,540 L389,540 C389.553,540 390,540.447 390,541 C390,541.553 389.553,542 389,542 L389,542 Z M389,545 L385,545 C384.447,545 384,544.553 384,544 C384,543.447 384.447,543 385,543 L389,543 C389.553,543 390,543.447 390,544 C390,544.553 389.553,545 389,545 L389,545 Z M382,543 C382,544.104 381.104,545 380,545 L368,545 C366.896,545 366,544.104 366,543 L366,531 C366,529.896 366.896,529 368,529 L380,529 C381.104,529 382,529.896 382,531 L382,543 L382,543 Z M390,525 L380.746,525 L389.518,518.965 C389.981,518.646 390.113,517.988 389.813,517.496 C389.514,517.004 388.895,516.863 388.431,517.182 C388.431,517.182 378.821,523.817 378.009,524.307 L367.569,517.182 C367.106,516.863 366.486,517.004 366.187,517.496 C365.887,517.988 366.019,518.646 366.482,518.965 L375.254,525 L366,525 C363.791,525 362,526.791 362,529 L362,545 C362,547.209 363.791,549 366,549 L390,549 C392.209,549 394,547.209 394,545 L394,529 C394,526.791 392.209,525 390,525 L390,525 Z M386,533 L388,533 L388,531 L386,531 L386,533 Z M379,531 L369,531 C368.447,531 368,531.448 368,532 L368,542 C368,542.553 368.447,543 369,543 L379,543 C379.553,543 380,542.553 380,542 L380,532 C380,531.448 379.553,531 379,531 L379,531 Z" id="tv-television" sketch:type="MSShapeGroup"></path>
        </g>
    </g>
</svg>