<?xml version="1.0" encoding="UTF-8" standalone="no"?>
<svg width="22px" height="32px" viewBox="0 0 22 32" version="1.1" xmlns="http://www.w3.org/2000/svg" xmlns:xlink="http://www.w3.org/1999/xlink" xmlns:sketch="http://www.bohemiancoding.com/sketch/ns">
    <!-- Generator: Sketch Beta 3.3.2 (12041) - http://www.bohemiancoding.com/sketch -->
    <title>user</title>
    <desc>Created with Sketch Beta.</desc>
    <defs></defs>
    <g id="Page-1" stroke="none" stroke-width="1" fill="none" fill-rule="evenodd" sketch:type="MSPage">
        <g id="Icon-Set-Filled" sketch:type="MSLayerGroup" transform="translate(-367.000000, -309.000000)" fill="#000000">
            <path d="M378,329 C382.971,329 387,324.522 387,319 C387,313.478 382.971,309 378,309 C373.029,309 369,313.478 369,319 C369,324.522 373.029,329 378,329 L378,329 Z M386.703,326.319 C384.691,329.161 381.546,331 378,331 C374.454,331 371.309,329.161 369.297,326.319 C367.904,327.411 367,329.091 367,331 L367,335 C367,338.313 369.687,341 373,341 L383,341 C386.313,341 389,338.313 389,335 L389,331 C389,329.091 388.096,327.411 386.703,326.319 L386.703,326.319 Z" id="user" sketch:type="MSShapeGroup"></path>
        </g>
    </g>
</svg>