<?xml version="1.0" encoding="UTF-8" standalone="no"?>
<svg width="32px" height="32px" viewBox="0 0 32 32" version="1.1" xmlns="http://www.w3.org/2000/svg" xmlns:xlink="http://www.w3.org/1999/xlink" xmlns:sketch="http://www.bohemiancoding.com/sketch/ns">
    <!-- Generator: Sketch Beta 3.3.2 (12041) - http://www.bohemiancoding.com/sketch -->
    <title>user-list</title>
    <desc>Created with Sketch Beta.</desc>
    <defs></defs>
    <g id="Page-1" stroke="none" stroke-width="1" fill="none" fill-rule="evenodd" sketch:type="MSPage">
        <g id="Icon-Set-Filled" sketch:type="MSLayerGroup" transform="translate(-414.000000, -309.000000)" fill="#000000">
            <path d="M425,329 C429.971,329 434,324.522 434,319 C434,313.478 429.971,309 425,309 C420.029,309 416,313.478 416,319 C416,324.522 420.029,329 425,329 L425,329 Z M433.703,326.319 C431.691,329.161 428.546,331 425,331 C421.454,331 418.309,329.161 416.297,326.319 C414.904,327.411 414,329.091 414,331 L414,335 C414,338.313 416.687,341 420,341 L430,341 C433.313,341 436,338.313 436,335 L436,331 C436,329.091 435.096,327.411 433.703,326.319 L433.703,326.319 Z M445,327 L439,327 C438.447,327 438,327.448 438,328 C438,328.553 438.447,329 439,329 L445,329 C445.553,329 446,328.553 446,328 C446,327.448 445.553,327 445,327 L445,327 Z M445,321 L437,321 C436.447,321 436,321.447 436,322 C436,322.553 436.447,323 437,323 L445,323 C445.553,323 446,322.553 446,322 C446,321.447 445.553,321 445,321 L445,321 Z M437,317 L445,317 C445.553,317 446,316.553 446,316 C446,315.448 445.553,315 445,315 L437,315 C436.447,315 436,315.448 436,316 C436,316.553 436.447,317 437,317 L437,317 Z M445,333 L439,333 C438.447,333 438,333.448 438,334 C438,334.553 438.447,335 439,335 L445,335 C445.553,335 446,334.553 446,334 C446,333.448 445.553,333 445,333 L445,333 Z" id="user-list" sketch:type="MSShapeGroup"></path>
        </g>
    </g>
</svg>