<?xml version="1.0" encoding="UTF-8" standalone="no"?>
<svg width="30px" height="24px" viewBox="0 0 30 24" version="1.1" xmlns="http://www.w3.org/2000/svg" xmlns:xlink="http://www.w3.org/1999/xlink" xmlns:sketch="http://www.bohemiancoding.com/sketch/ns">
    <!-- Generator: Sketch Beta 3.3.2 (12041) - http://www.bohemiancoding.com/sketch -->
    <title>volume-muted</title>
    <desc>Created with Sketch Beta.</desc>
    <defs></defs>
    <g id="Page-1" stroke="none" stroke-width="1" fill="none" fill-rule="evenodd" sketch:type="MSPage">
        <g id="Icon-Set-Filled" sketch:type="MSLayerGroup" transform="translate(-311.000000, -573.000000)" fill="#000000">
            <path d="M336.444,585 L340.617,580.827 C341.067,580.377 341.109,579.688 340.711,579.289 C340.312,578.891 339.623,578.933 339.173,579.383 L335,583.556 L330.827,579.383 C330.377,578.933 329.688,578.891 329.289,579.289 C328.891,579.688 328.933,580.377 329.383,580.827 L333.556,585 L329.383,589.173 C328.933,589.623 328.891,590.312 329.289,590.711 C329.688,591.109 330.377,591.067 330.827,590.617 L335,586.444 L339.173,590.617 C339.623,591.067 340.312,591.109 340.711,590.711 C341.109,590.312 341.067,589.623 340.617,589.173 L336.444,585 L336.444,585 Z M325,573 L318,577.667 L318,592.333 L325,597 C326.104,597 327,596.104 327,595 L327,575 C327,573.896 326.104,573 325,573 L325,573 Z M311,581 L311,589 C311,590.104 311.896,591 313,591 L316,591 L316,579 L313,579 C311.896,579 311,579.896 311,581 L311,581 Z" id="volume-muted" sketch:type="MSShapeGroup"></path>
        </g>
    </g>
</svg>