<?xml version="1.0" encoding="UTF-8" standalone="no"?>
<svg width="26px" height="32px" viewBox="0 0 26 32" version="1.1" xmlns="http://www.w3.org/2000/svg" xmlns:xlink="http://www.w3.org/1999/xlink" xmlns:sketch="http://www.bohemiancoding.com/sketch/ns">
    <!-- Generator: Sketch Beta 3.3.2 (12041) - http://www.bohemiancoding.com/sketch -->
    <title>water</title>
    <desc>Created with Sketch Beta.</desc>
    <defs></defs>
    <g id="Page-1" stroke="none" stroke-width="1" fill="none" fill-rule="evenodd" sketch:type="MSPage">
        <g id="Icon-Set-Filled" sketch:type="MSLayerGroup" transform="translate(-365.000000, -413.000000)" fill="#000000">
            <path d="M378,440 C374.134,440 371,436.908 371,433.094 C371,429.279 375.372,425.629 378,423 C380.733,425.697 385,429.279 385,433.094 C385,436.908 381.866,440 378,440 L378,440 Z M378,413 C373.12,417.949 365,424.82 365,432 C365,439.18 370.82,445 378,445 C385.18,445 391,439.18 391,432 C391,424.82 383.077,418.077 378,413 L378,413 Z M377.967,425.505 C376.094,427.516 373.012,429.802 373.012,432.719 C373.012,435.636 375.245,438 378,438 C380.755,438 382.988,435.636 382.988,432.719 C382.988,429.802 379.914,427.567 377.967,425.505 L377.967,425.505 Z" id="water" sketch:type="MSShapeGroup"></path>
        </g>
    </g>
</svg>