<?xml version="1.0" encoding="UTF-8" standalone="no"?>
<svg width="32px" height="32px" viewBox="0 0 32 32" version="1.1" xmlns="http://www.w3.org/2000/svg" xmlns:xlink="http://www.w3.org/1999/xlink" xmlns:sketch="http://www.bohemiancoding.com/sketch/ns">
    <!-- Generator: Sketch Beta 3.3.2 (12041) - http://www.bohemiancoding.com/sketch -->
    <title>zoom-in</title>
    <desc>Created with Sketch Beta.</desc>
    <defs></defs>
    <g id="Page-1" stroke="none" stroke-width="1" fill="none" fill-rule="evenodd" sketch:type="MSPage">
        <g id="Icon-Set-Filled" sketch:type="MSLayerGroup" transform="translate(-310.000000, -1141.000000)" fill="#000000">
            <path d="M328.519,1155.41 L324.522,1155.41 L324.522,1159.41 C324.522,1159.97 324.075,1160.41 323.523,1160.41 C322.972,1160.41 322.524,1159.97 322.524,1159.41 L322.524,1155.41 L318.529,1155.41 C317.978,1155.41 317.53,1154.7 317.53,1154.14 C317.53,1153.59 317.978,1153.41 318.529,1153.41 L322.524,1153.41 L322.524,1149.41 C322.524,1148.85 322.972,1148.41 323.523,1148.41 C324.075,1148.41 324.522,1148.85 324.522,1149.41 L324.522,1153.41 L328.519,1153.41 C329.07,1153.41 329.518,1153.86 329.518,1154.41 C329.518,1154.96 329.07,1155.41 328.519,1155.41 L328.519,1155.41 Z M341.688,1171.25 L333.429,1163.12 C335.592,1160.77 336.92,1157.67 336.92,1154.25 C336.92,1146.93 330.894,1141 323.46,1141 C316.026,1141 310,1146.93 310,1154.25 C310,1161.56 316.026,1167.49 323.46,1167.49 C326.672,1167.49 329.618,1166.38 331.932,1164.53 L340.225,1172.69 C340.629,1173.09 341.284,1173.09 341.688,1172.69 C342.093,1172.3 342.093,1171.65 341.688,1171.25 L341.688,1171.25 Z" id="zoom-in" sketch:type="MSShapeGroup"></path>
        </g>
    </g>
</svg>