<?xml version="1.0" encoding="UTF-8" standalone="no"?>
<svg width="32px" height="32px" viewBox="0 0 32 32" version="1.1" xmlns="http://www.w3.org/2000/svg" xmlns:xlink="http://www.w3.org/1999/xlink" xmlns:sketch="http://www.bohemiancoding.com/sketch/ns">
    <!-- Generator: Sketch Beta 3.3.2 (12041) - http://www.bohemiancoding.com/sketch -->
    <title>zoom-out</title>
    <desc>Created with Sketch Beta.</desc>
    <defs></defs>
    <g id="Page-1" stroke="none" stroke-width="1" fill="none" fill-rule="evenodd" sketch:type="MSPage">
        <g id="Icon-Set" sketch:type="MSLayerGroup" transform="translate(-360.000000, -1139.000000)" fill="#000000">
            <path d="M373.46,1163.45 C367.17,1163.45 362.071,1158.44 362.071,1152.25 C362.071,1146.06 367.17,1141.04 373.46,1141.04 C379.75,1141.04 384.85,1146.06 384.85,1152.25 C384.85,1158.44 379.75,1163.45 373.46,1163.45 L373.46,1163.45 Z M391.688,1169.25 L383.429,1161.12 C385.592,1158.77 386.92,1155.67 386.92,1152.25 C386.92,1144.93 380.894,1139 373.46,1139 C366.026,1139 360,1144.93 360,1152.25 C360,1159.56 366.026,1165.49 373.46,1165.49 C376.672,1165.49 379.618,1164.38 381.932,1162.53 L390.225,1170.69 C390.629,1171.09 391.284,1171.09 391.688,1170.69 C392.093,1170.3 392.093,1169.65 391.688,1169.25 L391.688,1169.25 Z M378.689,1151.41 L368.643,1151.41 C368.102,1151.41 367.663,1151.84 367.663,1152.37 C367.663,1152.9 368.102,1153.33 368.643,1153.33 L378.689,1153.33 C379.23,1153.33 379.669,1152.9 379.669,1152.37 C379.669,1151.84 379.23,1151.41 378.689,1151.41 L378.689,1151.41 Z" id="zoom-out" sketch:type="MSShapeGroup"></path>
        </g>
    </g>
</svg>