<?xml version="1.0" encoding="UTF-8" standalone="no"?>
<svg width="32px" height="32px" viewBox="0 0 32 32" version="1.1" xmlns="http://www.w3.org/2000/svg" xmlns:xlink="http://www.w3.org/1999/xlink" xmlns:sketch="http://www.bohemiancoding.com/sketch/ns">
    <!-- Generator: Sketch Beta 3.3.2 (12041) - http://www.bohemiancoding.com/sketch -->
    <title>zoom</title>
    <desc>Created with Sketch Beta.</desc>
    <defs></defs>
    <g id="Page-1" stroke="none" stroke-width="1" fill="none" fill-rule="evenodd" sketch:type="MSPage">
        <g id="Icon-Set" sketch:type="MSLayerGroup" transform="translate(-152.000000, -983.000000)" fill="#000000">
            <path d="M176.972,989 L172,989 C171.448,989 171,989.448 171,990 C171,990.553 171.448,991 172,991 L174.628,991 L169.83,995.799 L171.244,997.213 L176.022,992.435 L176,995 C176,995.553 176.448,996 177,996 C177.552,996 178,995.553 178,995 L178,990 C178,989.704 177.877,989.465 177.684,989.301 C177.502,989.115 177.251,989 176.972,989 L176.972,989 Z M182,1011 C182,1012.1 181.104,1013 180,1013 L156,1013 C154.896,1013 154,1012.1 154,1011 L154,987 C154,985.896 154.896,985 156,985 L180,985 C181.104,985 182,985.896 182,987 L182,1011 L182,1011 Z M180,983 L156,983 C153.791,983 152,984.791 152,987 L152,1011 C152,1013.21 153.791,1015 156,1015 L180,1015 C182.209,1015 184,1013.21 184,1011 L184,987 C184,984.791 182.209,983 180,983 L180,983 Z M164.756,1000.79 L159.978,1005.57 L160,1003 C160,1002.45 159.552,1002 159,1002 C158.448,1002 158,1002.45 158,1003 L158,1008 C158,1008.3 158.123,1008.54 158.316,1008.7 C158.497,1008.88 158.749,1009 159.028,1009 L164,1009 C164.552,1009 165,1008.55 165,1008 C165,1007.45 164.552,1007 164,1007 L161.372,1007 L166.17,1002.2 L164.756,1000.79 L164.756,1000.79 Z M177,1002 C176.448,1002 176,1002.45 176,1003 L176.022,1005.57 L171.244,1000.79 L169.83,1002.2 L174.628,1007 L172,1007 C171.448,1007 171,1007.45 171,1008 C171,1008.55 171.448,1009 172,1009 L176.972,1009 C177.251,1009 177.503,1008.88 177.684,1008.7 C177.877,1008.54 178,1008.3 178,1008 L178,1003 C178,1002.45 177.552,1002 177,1002 L177,1002 Z M164,991 C164.552,991 165,990.553 165,990 C165,989.448 164.552,989 164,989 L159.028,989 C158.749,989 158.498,989.115 158.316,989.301 C158.123,989.465 158,989.704 158,990 L158,995 C158,995.553 158.448,996 159,996 C159.552,996 160,995.553 160,995 L159.978,992.435 L164.756,997.213 L166.17,995.799 L161.372,991 L164,991 L164,991 Z" id="zoom" sketch:type="MSShapeGroup"></path>
        </g>
    </g>
</svg>