<?xml version="1.0" encoding="utf-8"?>
<!-- Generator: Adobe Illustrator 18.1.1, SVG Export Plug-In . SVG Version: 6.00 Build 0)  -->
<svg version="1.1" xmlns="http://www.w3.org/2000/svg" xmlns:xlink="http://www.w3.org/1999/xlink" x="0px" y="0px" width="100px"
	 height="100px" viewBox="0 0 100 100" enable-background="new 0 0 100 100" xml:space="preserve">
<g id="_x37_7_Essential_Icons">
	<path id="Camera" d="M50,33.9c-10.5,0-19,8.5-19,19c0,10.5,8.5,19,19,19s19-8.5,19-19C69,42.5,60.5,33.9,50,33.9z M50,67.9
		c-8.3,0-15-6.7-15-15c0-8.3,6.7-15,15-15c8.3,0,15,6.7,15,15C65,61.2,58.3,67.9,50,67.9z M83,29.9L68,30l-6.3-9.2
		c-0.4-0.5-1-0.8-1.6-0.8H39.9c-0.6,0-1.2,0.3-1.6,0.8L32,30H17c-4.4,0-8,3.5-8,7.9V72c0,4.4,3.6,8,8,8h66c4.4,0,8-3.6,8-8V37
		C91,32.6,87.4,29.9,83,29.9z M87,72c0,2.2-1.8,4-4,4H17c-2.2,0-4-1.8-4-4V37.9c0-2.2,1.8-3.9,4-3.9L33,34c0.6,0,1.2-0.3,1.6-0.8
		l6.3-9.2h18.2l6.3,9.2c0.4,0.5,1,0.8,1.6,0.8l16-0.1c2.2,0,4,0.9,4,3.1V72z"/>
</g>
<g id="Guides">
</g>
<g id="Info">
	<g id="BORDER">
		<path fill="#0000FF" d="M1364-650v1684H-420V-650H1364 M1372-658H-428v1700h1800V-658L1372-658z"/>
	</g>
</g>
</svg>
