<?xml version="1.0" encoding="utf-8"?>
<!-- Generator: Adobe Illustrator 18.1.1, SVG Export Plug-In . SVG Version: 6.00 Build 0)  -->
<svg version="1.1" xmlns="http://www.w3.org/2000/svg" xmlns:xlink="http://www.w3.org/1999/xlink" x="0px" y="0px" width="100px"
	 height="100px" viewBox="0 0 100 100" enable-background="new 0 0 100 100" xml:space="preserve">
<g id="_x37_7_Essential_Icons">
	<path id="Link" d="M82.4,44.6L70.3,56.7c-0.8,0.8-2,0.8-2.8,0c-0.8-0.8-0.8-2,0-2.8l12.1-12.1c5.9-5.9,5.9-15.5,0-21.4
		c-2.9-2.9-6.6-4.4-10.7-4.4c-4,0-7.8,1.6-10.7,4.4L46.1,32.5c-5.9,5.9-5.9,15.5,0,21.4c1.4,1.4,3.1,2.6,5,3.3
		c1,0.4,1.5,1.6,1.1,2.6c-0.9,2.1-3.2,0.9-2.6,1.1c-2.4-1-4.5-2.4-6.3-4.2c-7.5-7.4-7.5-19.6,0-27l12.1-12.1C59,14,63.8,12,68.9,12
		c5.1,0,9.9,2,13.5,5.6C89.9,25,89.9,37.2,82.4,44.6z M50.4,39.1c-1-0.4-2.2,0.1-2.6,1.1c-0.4,1,0.1,2.2,1.1,2.6
		c1.9,0.8,3.6,1.9,5,3.3c5.9,5.9,5.9,15.5,0,21.4L41.8,79.6c-2.9,2.9-6.6,4.4-10.7,4.4c-4,0-7.8-1.6-10.7-4.4
		c-5.9-5.9-5.9-15.5,0-21.4l12.1-12.1c0.8-0.8,0.8-2,0-2.8c-0.8-0.8-2-0.8-2.8,0L17.6,55.4c-7.4,7.4-7.4,19.6,0,27
		C21.2,86,26,88,31.1,88s9.9-2,13.5-5.6l12.1-12.1c7.5-7.4,7.5-19.6,0-27C54.9,41.5,52.8,40.1,50.4,39.1z"/>
</g>
<g id="Guides">
</g>
<g id="Info">
	<g id="BORDER">
		<path fill="#0000FF" d="M1504-510v1684H-280V-510H1504 M1512-518H-288v1700h1800V-518L1512-518z"/>
	</g>
</g>
</svg>
