<?xml version="1.0" encoding="utf-8"?>
<!-- Generator: Adobe Illustrator 18.1.1, SVG Export Plug-In . SVG Version: 6.00 Build 0)  -->
<svg version="1.1" xmlns="http://www.w3.org/2000/svg" xmlns:xlink="http://www.w3.org/1999/xlink" x="0px" y="0px" width="100px"
	 height="100px" viewBox="0 0 100 100" enable-background="new 0 0 100 100" xml:space="preserve">
<g id="_x37_7_Essential_Icons">
	<path id="Folder" d="M88,30H66.9l-9.2-9.4c-0.4-0.4-0.9-0.6-1.4-0.6H22c-1.1,0-2,0.9-2,2v8h-8c-1.1,0-2,0.9-2,2v46c0,1.1,0.9,2,2,2
		h76c1.1,0,2-0.9,2-2V32C90,30.9,89.1,30,88,30z M24,24h31.3l5.9,6H24V24z M86,76H14V34h72V76z"/>
</g>
<g id="Guides">
</g>
<g id="Info">
	<g id="BORDER">
		<path fill="#0000FF" d="M1084-930V754H-700V-930H1084 M1092-938H-708V762h1800V-938L1092-938z"/>
	</g>
</g>
</svg>
