<?xml version="1.0" encoding="utf-8"?>
<!-- Generator: Adobe Illustrator 18.1.1, SVG Export Plug-In . SVG Version: 6.00 Build 0)  -->
<svg version="1.1" xmlns="http://www.w3.org/2000/svg" xmlns:xlink="http://www.w3.org/1999/xlink" x="0px" y="0px" width="100px"
	 height="100px" viewBox="0 0 100 100" enable-background="new 0 0 100 100" xml:space="preserve">
<g id="_x37_7_Essential_Icons">
	<path id="Book" d="M43.3,39.6c-0.6,2.5-3.7,1.1-2.4,1.4L21.2,36c-1.1-0.3-1.7-1.4-1.4-2.4c0.3-1.1,1.4-1.7,2.4-1.4l19.7,5.1
		C42.9,37.5,43.5,38.6,43.3,39.6z M41.8,50.6l-19.7-5.1c-1.1-0.3-2.2,0.4-2.4,1.4c-0.3,1.1,0.4,2.2,1.4,2.4l19.7,5.1
		c-1.3-0.3,1.8,0.9,2.4-1.4C43.5,52,42.9,50.9,41.8,50.6z M35.9,62.3l-13.8-3.6c-1.1-0.3-2.2,0.4-2.4,1.4c-0.3,1.1,0.4,2.2,1.4,2.4
		l13.8,3.6c-1.3-0.3,1.8,0.9,2.4-1.4C37.6,63.7,37,62.6,35.9,62.3z M90,19v52.5c0,0.9-0.6,1.7-1.5,1.9l-38,9.5c-0.3,0.1-0.7,0.1-1,0
		l-38-9.5c-0.9-0.2-1.5-1-1.5-1.9V19c0-1.3,1.2-2.3,2.5-1.9L50,26.5l37.5-9.4C88.8,16.7,90,17.7,90,19z M48,30.1l-34-8.5v48.3
		l34,8.5V30.1z M86,21.6l-34,8.5v48.3l34-8.5V21.6z M80.2,33.6c-0.3-1.1-1.4-1.7-2.4-1.4l-19.7,5.1c-1.1,0.3-1.7,1.4-1.4,2.4
		c0.6,2.5,3.7,1.1,2.4,1.4L78.8,36C79.9,35.7,80.5,34.6,80.2,33.6z M80.2,47c-0.3-1.1-1.4-1.7-2.4-1.4l-19.7,5.1
		c-1.1,0.3-1.7,1.4-1.4,2.4c0.6,2.4,3.7,1.1,2.4,1.4l19.7-5.1C79.9,49.1,80.5,48,80.2,47z M74.3,61.7c-0.3-1.1-1.4-1.7-2.4-1.4
		l-13.8,3.6c-1.1,0.3-1.7,1.4-1.4,2.4c0.6,2.5,3.7,1.1,2.4,1.4l13.8-3.5C74,63.9,74.6,62.8,74.3,61.7z"/>
</g>
<g id="Guides">
</g>
<g id="Info">
	<g id="BORDER">
		<path fill="#0000FF" d="M1644-930V754H-140V-930H1644 M1652-938H-148V762h1800V-938L1652-938z"/>
	</g>
</g>
</svg>
