<?xml version="1.0" encoding="utf-8"?>
<!-- Generator: Adobe Illustrator 18.1.1, SVG Export Plug-In . SVG Version: 6.00 Build 0)  -->
<svg version="1.1" xmlns="http://www.w3.org/2000/svg" xmlns:xlink="http://www.w3.org/1999/xlink" x="0px" y="0px" width="100px"
	 height="100px" viewBox="0 0 100 100" enable-background="new 0 0 100 100" xml:space="preserve">
<g id="_x37_7_Essential_Icons">
	<path id="View" d="M50,34c-8.8,0-16,7.2-16,16s7.2,16,16,16s16-7.2,16-16S58.8,34,50,34z M50,62c-6.6,0-12-5.4-12-12s5.4-12,12-12
		s12,5.4,12,12S56.6,62,50,62z M94.4,48.6l-8.6-8.7C76.3,30.3,63.6,25,50,25s-26.3,5.3-35.8,14.9l-8.6,8.7c-0.8,0.8-0.8,2,0,2.8
		l8.6,8.7C23.7,69.7,36.4,75,50,75s26.3-5.3,35.8-14.9l8.6-8.7C95.2,50.6,95.2,49.4,94.4,48.6z M83,57.3C74.2,66.1,62.5,71,50,71
		s-24.2-4.9-33-13.7L9.8,50l7.2-7.3C25.8,33.9,37.5,29,50,29s24.2,4.9,33,13.7l7.2,7.3L83,57.3z"/>
</g>
<g id="Guides">
</g>
<g id="Info">
	<g id="BORDER">
		<path fill="#0000FF" d="M944-790V894H-840V-790H944 M952-798H-848V902H952V-798L952-798z"/>
	</g>
</g>
</svg>
