<?xml version="1.0" encoding="utf-8"?>
<!-- Generator: Adobe Illustrator 18.1.1, SVG Export Plug-In . SVG Version: 6.00 Build 0)  -->
<svg version="1.1" xmlns="http://www.w3.org/2000/svg" xmlns:xlink="http://www.w3.org/1999/xlink" x="0px" y="0px" width="100px"
	 height="100px" viewBox="0 0 100 100" enable-background="new 0 0 100 100" xml:space="preserve">
<g id="_x37_7_Essential_Icons">
	<path id="Clock" d="M50,12c-21,0-38,17-38,38c0,21,17,38,38,38s38-17,38-38C88,29,71,12,50,12z M52,83.9v-2c0-1.1-0.9-2-2-2
		c-1.1,0-2,0.9-2,2v2c-17.2-1-30.9-14.8-31.9-31.9h2c1.1,0,2-0.9,2-2c0-1.1-0.9-2-2-2h-2c1-17.2,14.8-30.9,31.9-31.9v2
		c0,1.1,0.9,2,2,2c1.1,0,2-0.9,2-2v-2c17.2,1,30.9,14.8,31.9,31.9h-2c-1.1,0-2,0.9-2,2c0,1.1,0.9,2,2,2h2
		C82.9,69.2,69.2,82.9,52,83.9z M62,62c-0.8,0.8-2,0.8-2.8,0L48.6,51.4C48.7,51.5,48,51,48,50V26c0-1.1,0.9-2,2-2c1.1,0,2,0.9,2,2
		v23.2l10,10C62.8,60,62.8,61.2,62,62z"/>
</g>
<g id="Guides">
</g>
<g id="Info">
	<g id="BORDER">
		<path fill="#0000FF" d="M1504-1070V614H-280v-1684H1504 M1512-1078H-288V622h1800V-1078L1512-1078z"/>
	</g>
</g>
</svg>
