<?xml version="1.0" encoding="utf-8"?>
<!-- Generator: Adobe Illustrator 18.1.1, SVG Export Plug-In . SVG Version: 6.00 Build 0)  -->
<svg version="1.1" xmlns="http://www.w3.org/2000/svg" xmlns:xlink="http://www.w3.org/1999/xlink" x="0px" y="0px" width="100px"
	 height="100px" viewBox="0 0 100 100" enable-background="new 0 0 100 100" xml:space="preserve">
<g id="_x37_7_Essential_Icons">
	<path id="Notification" d="M69.8,20.5l1-2.9c0.4-1-0.1-2.2-1.2-2.5c-1-0.4-2.2,0.2-2.5,1.2L66,19.1C53.1,15.6,39.4,22.4,34.7,35
		l-6.5,17.8l-12,5.5c-1.6,0.7-1.5,3,0.2,3.6L38,69.8c-0.9,5.1,2,10.2,7,12c5,1.8,10.6-0.3,13.2-4.7L80,84.9c0,0,0,0,0,0
		c1,0.4,2.2-0.1,2.6-1.2c0.2-0.6,0.1-1.2-0.2-1.7l-5.5-11.7l6.5-17.8C88.1,39.9,82,26,69.8,20.5z M46.5,78.1c-3-1.1-4.8-3.9-4.6-6.9
		l12.6,4.5C52.7,78.1,49.4,79.1,46.5,78.1z M79.7,51.2l-6.8,18.5c-0.2,0.5-0.2,1,0.1,1.5l3.9,8.3L58,72.8l-16.9-6.1l-18.9-6.8
		l8.4-3.9c0.5-0.2,0.8-0.6,1-1.1l6.8-18.5c4.1-11.2,16.7-17,28.1-13C77.9,27.5,83.8,40,79.7,51.2z"/>
</g>
<g id="Guides">
</g>
<g id="Info">
	<g id="BORDER">
		<path fill="#0000FF" d="M804-790V894H-980V-790H804 M812-798H-988V902H812V-798L812-798z"/>
	</g>
</g>
</svg>
