<?xml version="1.0" encoding="utf-8"?>
<!-- Generator: Adobe Illustrator 18.1.1, SVG Export Plug-In . SVG Version: 6.00 Build 0)  -->
<svg version="1.1" xmlns="http://www.w3.org/2000/svg" xmlns:xlink="http://www.w3.org/1999/xlink" x="0px" y="0px" width="100px"
	 height="100px" viewBox="0 0 100 100" enable-background="new 0 0 100 100" xml:space="preserve">
<g id="_x37_7_Essential_Icons">
	<path id="Email" d="M88,23H12c-1.1,0-2,0.9-2,2v50c0,1.1,0.9,2,2,2h76c1.1,0,2-0.9,2-2V25C90,23.9,89.1,23,88,23z M83.2,27L50,60.2
		L16.8,27H83.2z M14,29.8L34.2,50L14,70.2V29.8z M16.9,73L37,52.9l11.6,11.6c0.8,0.8,2,0.8,2.8,0L63,52.9L83.1,73H16.9z M86,70.2
		L65.8,50L86,29.8V70.2z"/>
</g>
<g id="Guides">
</g>
<g id="Info">
	<g id="BORDER">
		<path fill="#0000FF" d="M804-510v1684H-980V-510H804 M812-518H-988v1700H812V-518L812-518z"/>
	</g>
</g>
</svg>
