<?xml version="1.0" encoding="utf-8"?>
<!-- Generator: Adobe Illustrator 18.1.1, SVG Export Plug-In . SVG Version: 6.00 Build 0)  -->
<svg version="1.1" xmlns="http://www.w3.org/2000/svg" xmlns:xlink="http://www.w3.org/1999/xlink" x="0px" y="0px" width="100px"
	 height="100px" viewBox="0 0 100 100" enable-background="new 0 0 100 100" xml:space="preserve">
<g id="_x37_7_Essential_Icons">
	<path id="Cancel" d="M50,12c-21,0-38,17-38,38s17,38,38,38s38-17,38-38S71,12,50,12z M50,84c-18.8,0-34-15.2-34-34s15.2-34,34-34
		c18.8,0,34,15.2,34,34S68.8,84,50,84z M52.8,50l12.6-12.6c0.8-0.8,0.8-2,0-2.8c-0.8-0.8-2-0.8-2.8,0L50,47.2L37.4,34.6
		c-0.8-0.8-2-0.8-2.8,0c-0.8,0.8-0.8,2,0,2.8L47.2,50L34.6,62.6c-0.8,0.8-0.8,2,0,2.8c0.8,0.8,2,0.8,2.8,0L50,52.8l12.6,12.6
		c0.8,0.8,2,0.8,2.8,0c0.8-0.8,0.8-2,0-2.8L52.8,50z"/>
</g>
<g id="Guides">
</g>
<g id="Info">
	<g id="BORDER">
		<path fill="#0000FF" d="M244-1070V614h-1784v-1684H244 M252-1078h-1800V622H252V-1078L252-1078z"/>
	</g>
</g>
</svg>
