<?xml version="1.0" encoding="utf-8"?>
<!-- Generator: Adobe Illustrator 18.1.1, SVG Export Plug-In . SVG Version: 6.00 Build 0)  -->
<svg version="1.1" xmlns="http://www.w3.org/2000/svg" xmlns:xlink="http://www.w3.org/1999/xlink" x="0px" y="0px" width="100px"
	 height="100px" viewBox="0 0 100 100" enable-background="new 0 0 100 100" xml:space="preserve">
<g id="_x37_7_Essential_Icons">
	<path id="Search" d="M87.4,77.7L68.5,58.8c3.2-5,4.7-10.8,4.7-16.5C73.2,25.4,59.7,12,42.8,12C25.2,12,11.9,25.9,12,42.6
		c0.1,16.7,13.6,30.6,30.8,30.6c5.8,0,11.3-1.6,16.1-4.6l18.9,18.8c0.8,0.8,2,0.8,2.8,0l6.9-6.9C88.2,79.7,88.2,78.5,87.4,77.7z
		 M42.8,69.2c-15,0-26.7-12.1-26.8-26.7c-0.1-14.4,11.4-26.6,26.8-26.6c15,0,26.3,11.7,26.4,26.3C69.3,57.8,57,69.2,42.8,69.2z
		 M79.1,83.2l-17-17c0.6-0.5,3.4-3.3,4.1-4.1l17,17L79.1,83.2z"/>
</g>
<g id="Guides">
</g>
<g id="Info">
	<g id="BORDER">
		<path fill="#0000FF" d="M244-370v1684h-1784V-370H244 M252-378h-1800v1700H252V-378L252-378z"/>
	</g>
</g>
</svg>
