<?xml version="1.0" encoding="utf-8"?>
<!-- Generator: Adobe Illustrator 18.1.1, SVG Export Plug-In . SVG Version: 6.00 Build 0)  -->
<svg version="1.1" xmlns="http://www.w3.org/2000/svg" xmlns:xlink="http://www.w3.org/1999/xlink" x="0px" y="0px" width="100px"
	 height="100px" viewBox="0 0 100 100" enable-background="new 0 0 100 100" xml:space="preserve">
<g id="_x37_7_Essential_Icons">
	<path id="Minus" d="M72,50c0,1.1-0.9,2-2,2H30c-1.1,0-2-0.9-2-2c0-1.1,0.9-2,2-2h40C71.1,48,72,48.9,72,50z M88,50
		c0,21-17,38-38,38S12,71,12,50s17-38,38-38S88,29,88,50z M84,50c0-18.8-15.2-34-34-34S16,31.2,16,50s15.2,34,34,34S84,68.8,84,50z"
		/>
</g>
<g id="Guides">
</g>
<g id="Info">
	<g id="BORDER">
		<path fill="#0000FF" d="M1364-1210V474H-420v-1684H1364 M1372-1218H-428V482h1800V-1218L1372-1218z"/>
	</g>
</g>
</svg>
