<?xml version="1.0" encoding="utf-8"?>
<!-- Generator: Adobe Illustrator 18.1.1, SVG Export Plug-In . SVG Version: 6.00 Build 0)  -->
<svg version="1.1" xmlns="http://www.w3.org/2000/svg" xmlns:xlink="http://www.w3.org/1999/xlink" x="0px" y="0px" width="100px"
	 height="100px" viewBox="0 0 100 100" enable-background="new 0 0 100 100" xml:space="preserve">
<g id="_x37_7_Essential_Icons">
	<path id="Share" d="M75,64c-4.8,0-9.1,2.3-11.8,5.8L38.9,55.7c1.5-3.7,1.5-7.8,0-11.5l24.3-14.1c2.7,3.5,7,5.8,11.8,5.8
		c8.3,0,15-6.7,15-15c0-8.3-6.7-15-15-15c-8.3,0-15,6.7-15,15c0,2,0.4,4,1.1,5.7L36.8,40.8c-2.8-3.5-7-5.8-11.8-5.8
		c-8.3,0-15,6.7-15,15c0,8.3,6.7,15,15,15c4.8,0,9.1-2.3,11.8-5.8l24.3,14.1C60.4,75,60,77,60,79c0,8.3,6.7,15,15,15
		c8.3,0,15-6.7,15-15C90,70.7,83.3,64,75,64z M75,10c6.1,0,11,4.9,11,11c0,6.1-4.9,11-11,11c-6.1,0-11-4.9-11-11
		C64,14.9,68.9,10,75,10z M25,61c-6.1,0-11-4.9-11-11c0-6.1,4.9-11,11-11c6.1,0,11,4.9,11,11C36,56.1,31.1,61,25,61z M75,90
		c-6.1,0-11-4.9-11-11c0-6.1,4.9-11,11-11c6.1,0,11,4.9,11,11C86,85.1,81.1,90,75,90z"/>
</g>
<g id="Guides">
</g>
<g id="Info">
	<g id="BORDER">
		<path fill="#0000FF" d="M1644-510v1684H-140V-510H1644 M1652-518H-148v1700h1800V-518L1652-518z"/>
	</g>
</g>
</svg>
