<?xml version="1.0" encoding="utf-8"?>
<!-- Generator: Adobe Illustrator 18.1.1, SVG Export Plug-In . SVG Version: 6.00 Build 0)  -->
<svg version="1.1" xmlns="http://www.w3.org/2000/svg" xmlns:xlink="http://www.w3.org/1999/xlink" x="0px" y="0px" width="100px"
	 height="100px" viewBox="0 0 100 100" enable-background="new 0 0 100 100" xml:space="preserve">
<g id="_x37_7_Essential_Icons">
	<path id="Home" d="M89.2,49.4L51.4,11.6c-0.7-0.8-2.1-0.8-2.8,0l-38,38C9.3,50.8,10.2,53,12,53h10v34c0,1.1,0.9,2,2,2h18
		c1.1,0,2-0.9,2-2V71h12v16c0,1.1,0.9,2,2,2h18c1.1,0,2-0.9,2-2V53h10c0,0,0,0,0,0C90.2,53,90.5,50.7,89.2,49.4z M74,85H60V69
		c0-1.1-0.9-2-2-2H42c-1.1,0-2,0.9-2,2v16H26V53h48V85z M16.8,49L50,15.8L83.2,49H16.8z"/>
</g>
<g id="Guides">
</g>
<g id="Info">
	<g id="BORDER">
		<path fill="#0000FF" d="M384-370v1684h-1784V-370H384 M392-378h-1800v1700H392V-378L392-378z"/>
	</g>
</g>
</svg>
