<?xml version="1.0" encoding="utf-8"?>
<!-- Generator: Adobe Illustrator 18.1.1, SVG Export Plug-In . SVG Version: 6.00 Build 0)  -->
<svg version="1.1" xmlns="http://www.w3.org/2000/svg" xmlns:xlink="http://www.w3.org/1999/xlink" x="0px" y="0px" width="100px"
	 height="100px" viewBox="0 0 100 100" enable-background="new 0 0 100 100" xml:space="preserve">
<g id="_x37_7_Essential_Icons">
	<path id="Diary" d="M78,10H22c-1.1,0-2,0.9-2,2v76c0,1.1,0.9,2,2,2h56c1.1,0,2-0.9,2-2V12C80,10.9,79.1,10,78,10z M76,86H24V72h8.3
		c0.8,2.3,3,4,5.7,4c3.3,0,6-2.7,6-6s-2.7-6-6-6c-2.6,0-4.8,1.7-5.7,4H24V52h8.3c0.8,2.3,3,4,5.7,4c3.3,0,6-2.7,6-6s-2.7-6-6-6
		c-2.6,0-4.8,1.7-5.7,4H24V32h8.3c0.8,2.3,3,4,5.7,4c3.3,0,6-2.7,6-6s-2.7-6-6-6c-2.6,0-4.8,1.7-5.7,4H24V14h52V86z M36,70
		c0-1.1,0.9-2,2-2s2,0.9,2,2c0,1.1-0.9,2-2,2S36,71.1,36,70z M36,50c0-1.1,0.9-2,2-2s2,0.9,2,2c0,1.1-0.9,2-2,2S36,51.1,36,50z
		 M36,30c0-1.1,0.9-2,2-2s2,0.9,2,2c0,1.1-0.9,2-2,2S36,31.1,36,30z"/>
</g>
<g id="Guides">
</g>
<g id="Info">
	<g id="BORDER">
		<path fill="#0000FF" d="M384-930V754h-1784V-930H384 M392-938h-1800V762H392V-938L392-938z"/>
	</g>
</g>
</svg>
