<?xml version="1.0" encoding="utf-8"?>
<!-- Generator: Adobe Illustrator 18.1.1, SVG Export Plug-In . SVG Version: 6.00 Build 0)  -->
<svg version="1.1" xmlns="http://www.w3.org/2000/svg" xmlns:xlink="http://www.w3.org/1999/xlink" x="0px" y="0px" width="100px"
	 height="100px" viewBox="0 0 100 100" enable-background="new 0 0 100 100" xml:space="preserve">
<g id="_x37_7_Essential_Icons">
	<path id="More_Details__x28_3_x29_" d="M50,12c-21,0-38,17-38,38s17,38,38,38s38-17,38-38S71,12,50,12z M50,84
		c-18.8,0-34-15.2-34-34s15.2-34,34-34s34,15.2,34,34S68.8,84,50,84z M50,43c-3.9,0-7,3.1-7,7s3.1,7,7,7s7-3.1,7-7S53.9,43,50,43z
		 M50,53c-1.7,0-3-1.4-3-3c0-1.7,1.3-3,3-3s3,1.3,3,3C53,51.6,51.7,53,50,53z M70,43c-3.9,0-7,3.1-7,7s3.1,7,7,7s7-3.1,7-7
		S73.9,43,70,43z M70,53c-1.7,0-3-1.4-3-3c0-1.7,1.3-3,3-3s3,1.3,3,3C73,51.6,71.7,53,70,53z M30,43c-3.9,0-7,3.1-7,7s3.1,7,7,7
		s7-3.1,7-7S33.9,43,30,43z M30,53c-1.7,0-3-1.4-3-3c0-1.7,1.3-3,3-3s3,1.3,3,3C33,51.6,31.7,53,30,53z"/>
</g>
<g id="Guides">
</g>
<g id="Info">
	<g id="BORDER">
		<path fill="#0000FF" d="M664-1210V474h-1784v-1684H664 M672-1218h-1800V482H672V-1218L672-1218z"/>
	</g>
</g>
</svg>
