<?xml version="1.0" encoding="utf-8"?>
<!-- Generator: Adobe Illustrator 18.1.1, SVG Export Plug-In . SVG Version: 6.00 Build 0)  -->
<svg version="1.1" xmlns="http://www.w3.org/2000/svg" xmlns:xlink="http://www.w3.org/1999/xlink" x="0px" y="0px" width="100px"
	 height="100px" viewBox="0 0 100 100" enable-background="new 0 0 100 100" xml:space="preserve">
<g id="_x37_7_Essential_Icons">
	<path id="No_Volume" d="M87.4,57.6c0.8,0.8,0.8,2,0,2.8C87,60.8,86.5,61,86,61s-1-0.2-1.4-0.6L77,52.8l-7.6,7.6
		C69,60.8,68.5,61,68,61s-1-0.2-1.4-0.6c-0.8-0.8-0.8-2,0-2.8l7.6-7.6l-7.6-7.6c-0.8-0.8-0.8-2,0-2.8c0.8-0.8,2-0.8,2.8,0l7.6,7.6
		l7.6-7.6c0.8-0.8,2-0.8,2.8,0c0.8,0.8,0.8,2,0,2.8L79.8,50L87.4,57.6z M60,16v68c0,0.8-0.5,1.5-1.2,1.8C58.5,86,58.3,86,58,86
		c-0.5,0-1-0.2-1.4-0.6L38.2,67H14c-1.1,0-2-0.9-2-2V35c0-1.1,0.9-2,2-2h24.2l18.4-18.4c0.6-0.6,1.4-0.7,2.2-0.4
		C59.5,14.5,60,15.2,60,16z M37,37H16v26h21V37z M56,20.8l-15,15v28.3l15,15V20.8z"/>
</g>
<g id="Guides">
</g>
<g id="Info">
	<g id="BORDER">
		<path fill="#0000FF" d="M384-650v1684h-1784V-650H384 M392-658h-1800v1700H392V-658L392-658z"/>
	</g>
</g>
</svg>
