<?xml version="1.0" encoding="utf-8"?>
<!-- Generator: Adobe Illustrator 18.1.1, SVG Export Plug-In . SVG Version: 6.00 Build 0)  -->
<svg version="1.1" xmlns="http://www.w3.org/2000/svg" xmlns:xlink="http://www.w3.org/1999/xlink" x="0px" y="0px" width="100px"
	 height="100px" viewBox="0 0 100 100" enable-background="new 0 0 100 100" xml:space="preserve">
<g id="_x37_7_Essential_Icons">
	<path id="Warning" d="M87.5,77.8L51.6,20c-0.8-1.3-2.6-1.3-3.4,0l-35.9,58c1.5-2.4-2.7,3,1.7,3.1H86C90,81,86.7,76.8,87.5,77.8z
		 M17.6,77l32.3-52.1L82.4,77H17.6z M52,39v16c0,1.1-0.9,2-2,2c-1.1,0-2-0.9-2-2V39c0-1.1,0.9-2,2-2C51.1,37,52,37.9,52,39z
		 M50.1,61c-3.3,0-6,2.7-6,6c0,3.3,2.7,6,6,6c3.3,0,6-2.7,6-6C56,63.7,53.3,61,50.1,61z M50.1,69c-1.1,0-2-0.9-2-2c0-1.1,0.9-2,2-2
		c1.1,0,2,0.9,2,2C52,68.1,51.1,69,50.1,69z"/>
</g>
<g id="Guides">
</g>
<g id="Info">
	<g id="BORDER">
		<path fill="#0000FF" d="M1644-1070V614H-140v-1684H1644 M1652-1078H-148V622h1800V-1078L1652-1078z"/>
	</g>
</g>
</svg>
