<?xml version="1.0" encoding="utf-8"?>
<!-- Generator: Adobe Illustrator 18.1.1, SVG Export Plug-In . SVG Version: 6.00 Build 0)  -->
<svg version="1.1" xmlns="http://www.w3.org/2000/svg" xmlns:xlink="http://www.w3.org/1999/xlink" x="0px" y="0px" width="100px"
	 height="100px" viewBox="0 0 100 100" enable-background="new 0 0 100 100" xml:space="preserve">
<g id="_x37_7_Essential_Icons">
	<path id="Pin" d="M85.4,45L54.9,14.6c-2.8-2.9-3.5-1.1-3.5,0.3l0,14L28.7,45.7H15c-3.9,0-0.8,4.2-1.4,3.5l17.2,17.1L16.4,80.8
		c-0.8,0.8-0.8,2.1,0,2.9c0.8,0.8,2.1,0.8,2.9,0l14.4-14.4l17.1,17.2c-0.5-0.5,3.6,2.2,3.6-1.4V71.3l16.8-22.7l12.7,0
		C86,48.5,88.8,48.5,85.4,45z M19.9,49.6h8.9l21.7,21.7v8.9L19.9,49.6z M52.4,67.3L32.7,47.6L52.8,33l14.4,14.6L52.4,67.3z
		 M70.2,44.6L55.4,29.8v-8.9l23.7,23.7H70.2z"/>
</g>
<g id="Guides">
</g>
<g id="Info">
	<g id="BORDER">
		<path fill="#0000FF" d="M804-1070V614H-980v-1684H804 M812-1078H-988V622H812V-1078L812-1078z"/>
	</g>
</g>
</svg>
