<?xml version="1.0" encoding="utf-8"?>
<!-- Generator: Adobe Illustrator 18.1.0, SVG Export Plug-In . SVG Version: 6.00 Build 0)  -->
<!DOCTYPE svg PUBLIC "-//W3C//DTD SVG 1.1//EN" "http://www.w3.org/Graphics/SVG/1.1/DTD/svg11.dtd" [
	<!ENTITY ns_extend "http://ns.adobe.com/Extensibility/1.0/">
	<!ENTITY ns_ai "http://ns.adobe.com/AdobeIllustrator/10.0/">
	<!ENTITY ns_graphs "http://ns.adobe.com/Graphs/1.0/">
	<!ENTITY ns_vars "http://ns.adobe.com/Variables/1.0/">
	<!ENTITY ns_imrep "http://ns.adobe.com/ImageReplacement/1.0/">
	<!ENTITY ns_sfw "http://ns.adobe.com/SaveForWeb/1.0/">
	<!ENTITY ns_custom "http://ns.adobe.com/GenericCustomNamespace/1.0/">
	<!ENTITY ns_adobe_xpath "http://ns.adobe.com/XPath/1.0/">
]>
<svg version="1.1" id="Layer_1" xmlns:x="&ns_extend;" xmlns:i="&ns_ai;" xmlns:graph="&ns_graphs;"
	 xmlns="http://www.w3.org/2000/svg" xmlns:xlink="http://www.w3.org/1999/xlink" x="0px" y="0px" width="24px" height="24px"
	 viewBox="0 0 24 24" enable-background="new 0 0 24 24" xml:space="preserve">
<metadata>
	<sfw  xmlns="&ns_sfw;">
		<slices></slices>
		<sliceSourceBounds  width="505" height="984" bottomLeftOrigin="true" x="0" y="-984"></sliceSourceBounds>
	</sfw>
</metadata>
<g>
	<g>
		<g>
			<path d="M21,23H3c-1.7,0-3-1.3-3-3V6c0-1.7,1.3-3,3-3h18c1.7,0,3,1.3,3,3v14C24,21.7,22.7,23,21,23z M3,5C2.4,5,2,5.4,2,6v14
				c0,0.6,0.4,1,1,1h18c0.6,0,1-0.4,1-1V6c0-0.6-0.4-1-1-1H3z"/>
		</g>
	</g>
	<g>
		<g>
			<path stroke="#2D2D2D" stroke-width="2" stroke-linecap="round" stroke-linejoin="round" stroke-miterlimit="10" d="M23,10"/>
		</g>
	</g>
	<g>
		<g>
			<path stroke="#2D2D2D" stroke-width="2" stroke-linecap="round" stroke-linejoin="round" stroke-miterlimit="10" d="M1,10"/>
		</g>
	</g>
	<g>
		<g>
			<path d="M6,7C5.4,7,5,6.6,5,6V2c0-0.6,0.4-1,1-1s1,0.4,1,1v4C7,6.6,6.6,7,6,7z"/>
		</g>
	</g>
	<g>
		<g>
			<path d="M18,7c-0.6,0-1-0.4-1-1V2c0-0.6,0.4-1,1-1s1,0.4,1,1v4C19,6.6,18.6,7,18,7z"/>
		</g>
	</g>
	<g>
		<g>
			<path d="M23,11H1c-0.6,0-1-0.4-1-1s0.4-1,1-1h22c0.6,0,1,0.4,1,1S23.6,11,23,11z"/>
		</g>
	</g>
	<g>
		<g>
			<circle cx="6" cy="14" r="1"/>
		</g>
		<g>
			<path d="M6,15.5c-0.8,0-1.5-0.7-1.5-1.5s0.7-1.5,1.5-1.5s1.5,0.7,1.5,1.5S6.8,15.5,6,15.5z M6,13.5c-0.3,0-0.5,0.2-0.5,0.5
				s0.2,0.5,0.5,0.5s0.5-0.2,0.5-0.5S6.3,13.5,6,13.5z"/>
		</g>
	</g>
	<g>
		<g>
			<circle cx="6" cy="18" r="1"/>
		</g>
		<g>
			<path d="M6,19.5c-0.8,0-1.5-0.7-1.5-1.5s0.7-1.5,1.5-1.5s1.5,0.7,1.5,1.5S6.8,19.5,6,19.5z M6,17.5c-0.3,0-0.5,0.2-0.5,0.5
				s0.2,0.5,0.5,0.5s0.5-0.2,0.5-0.5S6.3,17.5,6,17.5z"/>
		</g>
	</g>
	<g>
		<g>
			<circle cx="10" cy="18" r="1"/>
		</g>
		<g>
			<path d="M10,19.5c-0.8,0-1.5-0.7-1.5-1.5s0.7-1.5,1.5-1.5s1.5,0.7,1.5,1.5S10.8,19.5,10,19.5z M10,17.5c-0.3,0-0.5,0.2-0.5,0.5
				s0.2,0.5,0.5,0.5s0.5-0.2,0.5-0.5S10.3,17.5,10,17.5z"/>
		</g>
	</g>
	<g>
		<g>
			<circle cx="10" cy="14" r="1"/>
		</g>
		<g>
			<path d="M10,15.5c-0.8,0-1.5-0.7-1.5-1.5s0.7-1.5,1.5-1.5s1.5,0.7,1.5,1.5S10.8,15.5,10,15.5z M10,13.5c-0.3,0-0.5,0.2-0.5,0.5
				s0.2,0.5,0.5,0.5s0.5-0.2,0.5-0.5S10.3,13.5,10,13.5z"/>
		</g>
	</g>
	<g>
		<g>
			<circle cx="14" cy="14" r="1"/>
		</g>
		<g>
			<path d="M14,15.5c-0.8,0-1.5-0.7-1.5-1.5s0.7-1.5,1.5-1.5s1.5,0.7,1.5,1.5S14.8,15.5,14,15.5z M14,13.5c-0.3,0-0.5,0.2-0.5,0.5
				s0.2,0.5,0.5,0.5s0.5-0.2,0.5-0.5S14.3,13.5,14,13.5z"/>
		</g>
	</g>
	<g>
		<g>
			<circle cx="14" cy="18" r="1"/>
		</g>
		<g>
			<path d="M14,19.5c-0.8,0-1.5-0.7-1.5-1.5s0.7-1.5,1.5-1.5s1.5,0.7,1.5,1.5S14.8,19.5,14,19.5z M14,17.5c-0.3,0-0.5,0.2-0.5,0.5
				s0.2,0.5,0.5,0.5s0.5-0.2,0.5-0.5S14.3,17.5,14,17.5z"/>
		</g>
	</g>
	<g>
		<g>
			<circle cx="18" cy="18" r="1"/>
		</g>
		<g>
			<path d="M18,19.5c-0.8,0-1.5-0.7-1.5-1.5s0.7-1.5,1.5-1.5s1.5,0.7,1.5,1.5S18.8,19.5,18,19.5z M18,17.5c-0.3,0-0.5,0.2-0.5,0.5
				s0.2,0.5,0.5,0.5s0.5-0.2,0.5-0.5S18.3,17.5,18,17.5z"/>
		</g>
	</g>
	<g>
		<g>
			<circle cx="18" cy="14" r="1"/>
		</g>
		<g>
			<path d="M18,15.5c-0.8,0-1.5-0.7-1.5-1.5s0.7-1.5,1.5-1.5s1.5,0.7,1.5,1.5S18.8,15.5,18,15.5z M18,13.5c-0.3,0-0.5,0.2-0.5,0.5
				s0.2,0.5,0.5,0.5s0.5-0.2,0.5-0.5S18.3,13.5,18,13.5z"/>
		</g>
	</g>
</g>
</svg>
