<?xml version="1.0" encoding="utf-8"?>
<!-- Generator: Adobe Illustrator 18.1.0, SVG Export Plug-In . SVG Version: 6.00 Build 0)  -->
<!DOCTYPE svg PUBLIC "-//W3C//DTD SVG 1.1//EN" "http://www.w3.org/Graphics/SVG/1.1/DTD/svg11.dtd" [
	<!ENTITY ns_extend "http://ns.adobe.com/Extensibility/1.0/">
	<!ENTITY ns_ai "http://ns.adobe.com/AdobeIllustrator/10.0/">
	<!ENTITY ns_graphs "http://ns.adobe.com/Graphs/1.0/">
	<!ENTITY ns_vars "http://ns.adobe.com/Variables/1.0/">
	<!ENTITY ns_imrep "http://ns.adobe.com/ImageReplacement/1.0/">
	<!ENTITY ns_sfw "http://ns.adobe.com/SaveForWeb/1.0/">
	<!ENTITY ns_custom "http://ns.adobe.com/GenericCustomNamespace/1.0/">
	<!ENTITY ns_adobe_xpath "http://ns.adobe.com/XPath/1.0/">
]>
<svg version="1.1" id="Layer_1" xmlns:x="&ns_extend;" xmlns:i="&ns_ai;" xmlns:graph="&ns_graphs;"
	 xmlns="http://www.w3.org/2000/svg" xmlns:xlink="http://www.w3.org/1999/xlink" x="0px" y="0px" width="24px" height="24px"
	 viewBox="0 0 24 24" enable-background="new 0 0 24 24" xml:space="preserve">
<metadata>
	<sfw  xmlns="&ns_sfw;">
		<slices></slices>
		<sliceSourceBounds  width="505" height="984" bottomLeftOrigin="true" x="0" y="-552"></sliceSourceBounds>
	</sfw>
</metadata>
<g>
	<g>
		<g>
			<path d="M7,24H1c-0.6,0-1-0.4-1-1V1c0-0.6,0.4-1,1-1h4c0.6,0,1,0.4,1,1v9c0,0.6-0.4,1-1,1s-1-0.4-1-1V2H2v20h5c0.6,0,1,0.4,1,1
				S7.6,24,7,24z"/>
		</g>
	</g>
	<g>
		<g>
			<path d="M23,24H1c-0.6,0-1-0.4-1-1V10c0-0.6,0.4-1,1-1s1,0.4,1,1v12h20V11h-2c-0.6,0-1-0.4-1-1s0.4-1,1-1h3c0.6,0,1,0.4,1,1v13
				C24,23.6,23.6,24,23,24z"/>
		</g>
	</g>
	<g>
		<g>
			<path d="M5,11c-0.3,0-0.6-0.1-0.8-0.4c-0.3-0.4-0.3-1.1,0.2-1.4l5-4c0.3-0.2,0.7-0.3,1.1-0.1C10.8,5.3,11,5.6,11,6v4
				c0,0.6-0.4,1-1,1s-1-0.4-1-1V8.1l-3.4,2.7C5.4,10.9,5.2,11,5,11z"/>
		</g>
	</g>
	<g>
		<g>
			<path d="M10,11c-0.3,0-0.6-0.1-0.8-0.4c-0.3-0.4-0.3-1.1,0.2-1.4l5-4c0.3-0.2,0.7-0.3,1.1-0.1C15.8,5.3,16,5.6,16,6v4
				c0,0.6-0.4,1-1,1s-1-0.4-1-1V8.1l-3.4,2.7C10.4,10.9,10.2,11,10,11z"/>
		</g>
	</g>
	<g>
		<g>
			<path d="M15,11c-0.3,0-0.6-0.1-0.8-0.4c-0.3-0.4-0.3-1.1,0.2-1.4l5-4c0.3-0.2,0.7-0.3,1.1-0.1C20.8,5.3,21,5.6,21,6v4
				c0,0.6-0.4,1-1,1s-1-0.4-1-1V8.1l-3.4,2.7C15.4,10.9,15.2,11,15,11z"/>
		</g>
	</g>
	<g>
		<g>
			<path d="M19,24H5c-0.6,0-1-0.4-1-1v-5c0-0.6,0.4-1,1-1h14c0.6,0,1,0.4,1,1v5C20,23.6,19.6,24,19,24z M6,22h12v-3H6V22z"/>
		</g>
	</g>
	<g>
		<g>
			<path d="M19,15H5c-0.6,0-1-0.4-1-1s0.4-1,1-1h14c0.6,0,1,0.4,1,1S19.6,15,19,15z"/>
		</g>
	</g>
</g>
</svg>
