<?xml version="1.0" encoding="utf-8"?>
<!-- Generator: Adobe Illustrator 18.1.0, SVG Export Plug-In . SVG Version: 6.00 Build 0)  -->
<!DOCTYPE svg PUBLIC "-//W3C//DTD SVG 1.1//EN" "http://www.w3.org/Graphics/SVG/1.1/DTD/svg11.dtd" [
	<!ENTITY ns_extend "http://ns.adobe.com/Extensibility/1.0/">
	<!ENTITY ns_ai "http://ns.adobe.com/AdobeIllustrator/10.0/">
	<!ENTITY ns_graphs "http://ns.adobe.com/Graphs/1.0/">
	<!ENTITY ns_vars "http://ns.adobe.com/Variables/1.0/">
	<!ENTITY ns_imrep "http://ns.adobe.com/ImageReplacement/1.0/">
	<!ENTITY ns_sfw "http://ns.adobe.com/SaveForWeb/1.0/">
	<!ENTITY ns_custom "http://ns.adobe.com/GenericCustomNamespace/1.0/">
	<!ENTITY ns_adobe_xpath "http://ns.adobe.com/XPath/1.0/">
]>
<svg version="1.1" id="Layer_1" xmlns:x="&ns_extend;" xmlns:i="&ns_ai;" xmlns:graph="&ns_graphs;"
	 xmlns="http://www.w3.org/2000/svg" xmlns:xlink="http://www.w3.org/1999/xlink" x="0px" y="0px" width="24px" height="24px"
	 viewBox="0 0 24 24" enable-background="new 0 0 24 24" xml:space="preserve">
<metadata>
	<sfw  xmlns="&ns_sfw;">
		<slices></slices>
		<sliceSourceBounds  width="505" height="984" bottomLeftOrigin="true" x="0" y="-552"></sliceSourceBounds>
	</sfw>
</metadata>
<g>
	<g>
		<g>
			<path d="M15,19H9c-0.6,0-1-0.4-1-1v-0.5c0-1.4-0.6-2.8-1.7-3.9C4.7,12,3.9,9.9,4,7.7C4.2,3.5,7.7,0.1,11.9,0L12,0
				c4.4,0,8,3.6,8,8c0,2.1-0.8,4.2-2.4,5.7c-1.1,1-1.6,2.4-1.6,3.8V18C16,18.6,15.6,19,15,19z M10,17h4c0.1-1.8,0.9-3.4,2.2-4.8
				C17.4,11.1,18,9.6,18,8c0-3.3-2.7-6-6-6l-0.1,0C8.8,2.1,6.1,4.6,6,7.8C5.9,9.4,6.6,11,7.7,12.2C9.1,13.6,9.9,15.3,10,17z"/>
		</g>
	</g>
	<g>
		<g>
			<path d="M12,24L12,24c-2.2,0-4-1.8-4-4v-2c0-0.6,0.4-1,1-1h6c0.6,0,1,0.4,1,1v2C16,22.2,14.2,24,12,24z M10,19v1c0,1.1,0.9,2,2,2
				H12c1.1,0,2-0.9,2-2v-1H10z"/>
		</g>
	</g>
	<g>
		<g>
			<path d="M9,9C8.4,9,8,8.6,8,8c0-2.2,1.8-4,4-4c0.6,0,1,0.4,1,1s-0.4,1-1,1c-1.1,0-2,0.9-2,2C10,8.6,9.6,9,9,9z"/>
		</g>
	</g>
</g>
</svg>
