<?xml version="1.0" encoding="utf-8"?>
<!-- Generator: Adobe Illustrator 18.1.0, SVG Export Plug-In . SVG Version: 6.00 Build 0)  -->
<!DOCTYPE svg PUBLIC "-//W3C//DTD SVG 1.1//EN" "http://www.w3.org/Graphics/SVG/1.1/DTD/svg11.dtd" [
	<!ENTITY ns_extend "http://ns.adobe.com/Extensibility/1.0/">
	<!ENTITY ns_ai "http://ns.adobe.com/AdobeIllustrator/10.0/">
	<!ENTITY ns_graphs "http://ns.adobe.com/Graphs/1.0/">
	<!ENTITY ns_vars "http://ns.adobe.com/Variables/1.0/">
	<!ENTITY ns_imrep "http://ns.adobe.com/ImageReplacement/1.0/">
	<!ENTITY ns_sfw "http://ns.adobe.com/SaveForWeb/1.0/">
	<!ENTITY ns_custom "http://ns.adobe.com/GenericCustomNamespace/1.0/">
	<!ENTITY ns_adobe_xpath "http://ns.adobe.com/XPath/1.0/">
]>
<svg version="1.1" id="Layer_1" xmlns:x="&ns_extend;" xmlns:i="&ns_ai;" xmlns:graph="&ns_graphs;"
	 xmlns="http://www.w3.org/2000/svg" xmlns:xlink="http://www.w3.org/1999/xlink" x="0px" y="0px" width="24px" height="24px"
	 viewBox="0 0 24 24" enable-background="new 0 0 24 24" xml:space="preserve">
<metadata>
	<sfw  xmlns="&ns_sfw;">
		<slices></slices>
		<sliceSourceBounds  width="505" height="984" bottomLeftOrigin="true" x="0" y="-984"></sliceSourceBounds>
	</sfw>
</metadata>
<g>
	<g>
		<g>
			<g>
				<path d="M4,7C2.3,7,1,5.7,1,4s1.3-3,3-3s3,1.3,3,3S5.7,7,4,7z M4,3C3.4,3,3,3.4,3,4s0.4,1,1,1s1-0.4,1-1S4.6,3,4,3z"/>
			</g>
			<g>
				<path d="M4,7.5C2.1,7.5,0.5,5.9,0.5,4S2.1,0.5,4,0.5S7.5,2.1,7.5,4S5.9,7.5,4,7.5z M4,1.5C2.6,1.5,1.5,2.6,1.5,4S2.6,6.5,4,6.5
					S6.5,5.4,6.5,4S5.4,1.5,4,1.5z M4,5.5C3.2,5.5,2.5,4.8,2.5,4S3.2,2.5,4,2.5S5.5,3.2,5.5,4S4.8,5.5,4,5.5z M4,3.5
					C3.7,3.5,3.5,3.7,3.5,4S3.7,4.5,4,4.5S4.5,4.3,4.5,4S4.3,3.5,4,3.5z"/>
			</g>
		</g>
	</g>
	<g>
		<g>
			<g>
				<path d="M4,23c-1.7,0-3-1.3-3-3s1.3-3,3-3s3,1.3,3,3S5.7,23,4,23z M4,19c-0.6,0-1,0.4-1,1s0.4,1,1,1s1-0.4,1-1S4.6,19,4,19z"/>
			</g>
			<g>
				<path d="M4,23.5c-1.9,0-3.5-1.6-3.5-3.5s1.6-3.5,3.5-3.5s3.5,1.6,3.5,3.5S5.9,23.5,4,23.5z M4,17.5c-1.4,0-2.5,1.1-2.5,2.5
					s1.1,2.5,2.5,2.5s2.5-1.1,2.5-2.5S5.4,17.5,4,17.5z M4,21.5c-0.8,0-1.5-0.7-1.5-1.5s0.7-1.5,1.5-1.5s1.5,0.7,1.5,1.5
					S4.8,21.5,4,21.5z M4,19.5c-0.3,0-0.5,0.2-0.5,0.5s0.2,0.5,0.5,0.5s0.5-0.2,0.5-0.5S4.3,19.5,4,19.5z"/>
			</g>
		</g>
	</g>
	<g>
		<g>
			<g>
				<path d="M4,15c-1.7,0-3-1.3-3-3s1.3-3,3-3s3,1.3,3,3S5.7,15,4,15z M4,11c-0.6,0-1,0.4-1,1s0.4,1,1,1s1-0.4,1-1S4.6,11,4,11z"/>
			</g>
			<g>
				<path d="M4,15.5c-1.9,0-3.5-1.6-3.5-3.5S2.1,8.5,4,8.5s3.5,1.6,3.5,3.5S5.9,15.5,4,15.5z M4,9.5c-1.4,0-2.5,1.1-2.5,2.5
					s1.1,2.5,2.5,2.5s2.5-1.1,2.5-2.5S5.4,9.5,4,9.5z M4,13.5c-0.8,0-1.5-0.7-1.5-1.5s0.7-1.5,1.5-1.5s1.5,0.7,1.5,1.5
					S4.8,13.5,4,13.5z M4,11.5c-0.3,0-0.5,0.2-0.5,0.5s0.2,0.5,0.5,0.5s0.5-0.2,0.5-0.5S4.3,11.5,4,11.5z"/>
			</g>
		</g>
	</g>
	<g>
		<g>
			<g>
				<path d="M22,6H10C9.4,6,9,5.6,9,5s0.4-1,1-1h12c0.6,0,1,0.4,1,1S22.6,6,22,6z"/>
			</g>
			<g>
				<path d="M22,6H10C9.2,6,8.5,5.3,8.5,4.5S9.2,3,10,3h12c0.8,0,1.5,0.7,1.5,1.5S22.8,6,22,6z M10,4C9.7,4,9.5,4.2,9.5,4.5
					S9.7,5,10,5h12c0.3,0,0.5-0.2,0.5-0.5S22.3,4,22,4H10z"/>
			</g>
		</g>
	</g>
	<g>
		<g>
			<g>
				<path d="M16,14h-6c-0.6,0-1-0.4-1-1s0.4-1,1-1h6c0.6,0,1,0.4,1,1S16.6,14,16,14z"/>
			</g>
			<g>
				<path d="M16,14h-6c-0.8,0-1.5-0.7-1.5-1.5S9.2,11,10,11h6c0.8,0,1.5,0.7,1.5,1.5S16.8,14,16,14z M10,12c-0.3,0-0.5,0.2-0.5,0.5
					S9.7,13,10,13h6c0.3,0,0.5-0.2,0.5-0.5S16.3,12,16,12H10z"/>
			</g>
		</g>
	</g>
	<g>
		<g>
			<g>
				<path d="M19,22h-9c-0.6,0-1-0.4-1-1s0.4-1,1-1h9c0.6,0,1,0.4,1,1S19.6,22,19,22z"/>
			</g>
			<g>
				<path d="M19,22h-9c-0.8,0-1.5-0.7-1.5-1.5S9.2,19,10,19h9c0.8,0,1.5,0.7,1.5,1.5S19.8,22,19,22z M10,20c-0.3,0-0.5,0.2-0.5,0.5
					S9.7,21,10,21h9c0.3,0,0.5-0.2,0.5-0.5S19.3,20,19,20H10z"/>
			</g>
		</g>
	</g>
</g>
</svg>
