<?xml version="1.0" encoding="utf-8"?>
<!-- Generator: Adobe Illustrator 18.1.0, SVG Export Plug-In . SVG Version: 6.00 Build 0)  -->
<!DOCTYPE svg PUBLIC "-//W3C//DTD SVG 1.1//EN" "http://www.w3.org/Graphics/SVG/1.1/DTD/svg11.dtd" [
	<!ENTITY ns_extend "http://ns.adobe.com/Extensibility/1.0/">
	<!ENTITY ns_ai "http://ns.adobe.com/AdobeIllustrator/10.0/">
	<!ENTITY ns_graphs "http://ns.adobe.com/Graphs/1.0/">
	<!ENTITY ns_vars "http://ns.adobe.com/Variables/1.0/">
	<!ENTITY ns_imrep "http://ns.adobe.com/ImageReplacement/1.0/">
	<!ENTITY ns_sfw "http://ns.adobe.com/SaveForWeb/1.0/">
	<!ENTITY ns_custom "http://ns.adobe.com/GenericCustomNamespace/1.0/">
	<!ENTITY ns_adobe_xpath "http://ns.adobe.com/XPath/1.0/">
]>
<svg version="1.1" id="Layer_1" xmlns:x="&ns_extend;" xmlns:i="&ns_ai;" xmlns:graph="&ns_graphs;"
	 xmlns="http://www.w3.org/2000/svg" xmlns:xlink="http://www.w3.org/1999/xlink" x="0px" y="0px" width="24px" height="24px"
	 viewBox="0 0 24 24" enable-background="new 0 0 24 24" xml:space="preserve">
<metadata>
	<sfw  xmlns="&ns_sfw;">
		<slices></slices>
		<sliceSourceBounds  width="505" height="984" bottomLeftOrigin="true" x="0" y="-984"></sliceSourceBounds>
	</sfw>
</metadata>
<g>
	<g>
		<g>
			<path d="M23,24H1c-0.6,0-1-0.4-1-1V9c0-0.6,0.4-1,1-1h22c0.6,0,1,0.4,1,1v14C24,23.6,23.6,24,23,24z M2,22h20V10H2V22z"/>
		</g>
	</g>
	<g>
		<g>
			<path d="M12,17c-0.3,0-0.7-0.2-0.8-0.5c-0.3-0.5-0.2-1.1,0.3-1.4l11-7c0.5-0.3,1.1-0.2,1.4,0.3c0.3,0.5,0.2,1.1-0.3,1.4l-11,7
				C12.4,16.9,12.2,17,12,17z"/>
		</g>
	</g>
	<g>
		<g>
			<path d="M12,17c-0.2,0-0.4-0.1-0.5-0.2l-11-7C0,9.5-0.1,8.9,0.2,8.5C0.5,8,1.1,7.9,1.5,8.2l11,7c0.5,0.3,0.6,0.9,0.3,1.4
				C12.7,16.8,12.3,17,12,17z"/>
		</g>
	</g>
	<g>
		<g>
			<path d="M1,10c-0.3,0-0.6-0.1-0.8-0.4C-0.1,9.1,0,8.5,0.4,8.2l11-8c0.4-0.3,1.1-0.2,1.4,0.2c0.3,0.4,0.2,1.1-0.2,1.4l-11,8
				C1.4,9.9,1.2,10,1,10z"/>
		</g>
	</g>
	<g>
		<g>
			<path d="M23,10c-0.2,0-0.4-0.1-0.6-0.2l-11-8c-0.4-0.3-0.5-1-0.2-1.4c0.3-0.4,0.9-0.5,1.4-0.2l11,8c0.4,0.3,0.5,1,0.2,1.4
				C23.6,9.9,23.3,10,23,10z"/>
		</g>
	</g>
</g>
</svg>
