<?xml version="1.0" encoding="utf-8"?>
<!-- Generator: Adobe Illustrator 18.1.0, SVG Export Plug-In . SVG Version: 6.00 Build 0)  -->
<!DOCTYPE svg PUBLIC "-//W3C//DTD SVG 1.1//EN" "http://www.w3.org/Graphics/SVG/1.1/DTD/svg11.dtd" [
	<!ENTITY ns_extend "http://ns.adobe.com/Extensibility/1.0/">
	<!ENTITY ns_ai "http://ns.adobe.com/AdobeIllustrator/10.0/">
	<!ENTITY ns_graphs "http://ns.adobe.com/Graphs/1.0/">
	<!ENTITY ns_vars "http://ns.adobe.com/Variables/1.0/">
	<!ENTITY ns_imrep "http://ns.adobe.com/ImageReplacement/1.0/">
	<!ENTITY ns_sfw "http://ns.adobe.com/SaveForWeb/1.0/">
	<!ENTITY ns_custom "http://ns.adobe.com/GenericCustomNamespace/1.0/">
	<!ENTITY ns_adobe_xpath "http://ns.adobe.com/XPath/1.0/">
]>
<svg version="1.1" id="Layer_1" xmlns:x="&ns_extend;" xmlns:i="&ns_ai;" xmlns:graph="&ns_graphs;"
	 xmlns="http://www.w3.org/2000/svg" xmlns:xlink="http://www.w3.org/1999/xlink" x="0px" y="0px" width="24px" height="24px"
	 viewBox="0 0 24 24" enable-background="new 0 0 24 24" xml:space="preserve">
<metadata>
	<sfw  xmlns="&ns_sfw;">
		<slices></slices>
		<sliceSourceBounds  width="505" height="984" bottomLeftOrigin="true" x="0" y="-552"></sliceSourceBounds>
	</sfw>
</metadata>
<g>
	<g>
		<g>
			<path d="M12,24C6.5,24,2,19.5,2,14c0-4.1,2.4-7.7,6.2-9.2c0.5-0.2,1.1,0,1.3,0.5c0.2,0.5,0,1.1-0.5,1.3C5.9,7.8,4,10.7,4,14
				c0,4.4,3.6,8,8,8s8-3.6,8-8c0-3.3-1.9-6.2-4.9-7.4c-0.5-0.2-0.8-0.8-0.5-1.3c0.2-0.5,0.8-0.8,1.3-0.5C19.6,6.3,22,9.9,22,14
				C22,19.5,17.5,24,12,24z"/>
		</g>
	</g>
	<g>
		<g>
			<path d="M12,14c-0.6,0-1-0.4-1-1V1c0-0.6,0.4-1,1-1s1,0.4,1,1v12C13,13.6,12.6,14,12,14z"/>
		</g>
	</g>
</g>
</svg>
