<?xml version="1.0" encoding="utf-8"?>
<!-- Generator: Adobe Illustrator 18.1.0, SVG Export Plug-In . SVG Version: 6.00 Build 0)  -->
<!DOCTYPE svg PUBLIC "-//W3C//DTD SVG 1.1//EN" "http://www.w3.org/Graphics/SVG/1.1/DTD/svg11.dtd" [
	<!ENTITY ns_extend "http://ns.adobe.com/Extensibility/1.0/">
	<!ENTITY ns_ai "http://ns.adobe.com/AdobeIllustrator/10.0/">
	<!ENTITY ns_graphs "http://ns.adobe.com/Graphs/1.0/">
	<!ENTITY ns_vars "http://ns.adobe.com/Variables/1.0/">
	<!ENTITY ns_imrep "http://ns.adobe.com/ImageReplacement/1.0/">
	<!ENTITY ns_sfw "http://ns.adobe.com/SaveForWeb/1.0/">
	<!ENTITY ns_custom "http://ns.adobe.com/GenericCustomNamespace/1.0/">
	<!ENTITY ns_adobe_xpath "http://ns.adobe.com/XPath/1.0/">
]>
<svg version="1.1" id="Layer_1" xmlns:x="&ns_extend;" xmlns:i="&ns_ai;" xmlns:graph="&ns_graphs;"
	 xmlns="http://www.w3.org/2000/svg" xmlns:xlink="http://www.w3.org/1999/xlink" x="0px" y="0px" width="24px" height="24px"
	 viewBox="0 0 24 24" enable-background="new 0 0 24 24" xml:space="preserve">
<metadata>
	<sfw  xmlns="&ns_sfw;">
		<slices></slices>
		<sliceSourceBounds  width="505" height="984" bottomLeftOrigin="true" x="0" y="-984"></sliceSourceBounds>
	</sfw>
</metadata>
<g>
	<g>
		<g>
			<path stroke="#2D2D2D" stroke-width="2" stroke-linecap="round" stroke-linejoin="round" stroke-miterlimit="10" d="M20.3,13"/>
		</g>
	</g>
	<g>
		<g>
			<path d="M11,21c-5,0-9-4-9-9c0-2.4,0.9-4.7,2.6-6.4C6.3,3.9,8.6,3,11,3c5,0,9,4,9,9c0,0.6-0.4,1-1,1s-1-0.4-1-1c0-3.9-3.1-7-7-7
				C9.1,5,7.4,5.7,6,7c-1.3,1.3-2,3.1-2,5c0,3.9,3.1,7,7,7c1.9,0,3.6-0.7,5-2c0.4-0.4,1-0.4,1.4,0c0.4,0.4,0.4,1,0,1.4
				C15.7,20.1,13.4,21,11,21z"/>
		</g>
	</g>
	<g>
		<g>
			<path d="M19,13c-0.2,0-0.4-0.1-0.6-0.2L15,10.3c-0.4-0.3-0.5-1-0.2-1.4c0.3-0.4,0.9-0.5,1.4-0.2l3.4,2.5c0.4,0.3,0.5,1,0.2,1.4
				C19.6,12.9,19.3,13,19,13z"/>
		</g>
	</g>
	<g>
		<g>
			<path d="M19,13c-0.2,0-0.4-0.1-0.6-0.2c-0.4-0.3-0.5-1-0.2-1.4L20.7,8c0.3-0.4,1-0.5,1.4-0.2c0.4,0.3,0.5,1,0.2,1.4l-2.5,3.4
				C19.6,12.9,19.3,13,19,13z"/>
		</g>
	</g>
</g>
</svg>
