<?xml version="1.0" encoding="utf-8"?>
<!-- Generator: Adobe Illustrator 18.1.0, SVG Export Plug-In . SVG Version: 6.00 Build 0)  -->
<!DOCTYPE svg PUBLIC "-//W3C//DTD SVG 1.1//EN" "http://www.w3.org/Graphics/SVG/1.1/DTD/svg11.dtd" [
	<!ENTITY ns_extend "http://ns.adobe.com/Extensibility/1.0/">
	<!ENTITY ns_ai "http://ns.adobe.com/AdobeIllustrator/10.0/">
	<!ENTITY ns_graphs "http://ns.adobe.com/Graphs/1.0/">
	<!ENTITY ns_vars "http://ns.adobe.com/Variables/1.0/">
	<!ENTITY ns_imrep "http://ns.adobe.com/ImageReplacement/1.0/">
	<!ENTITY ns_sfw "http://ns.adobe.com/SaveForWeb/1.0/">
	<!ENTITY ns_custom "http://ns.adobe.com/GenericCustomNamespace/1.0/">
	<!ENTITY ns_adobe_xpath "http://ns.adobe.com/XPath/1.0/">
]>
<svg version="1.1" id="Layer_1" xmlns:x="&ns_extend;" xmlns:i="&ns_ai;" xmlns:graph="&ns_graphs;"
	 xmlns="http://www.w3.org/2000/svg" xmlns:xlink="http://www.w3.org/1999/xlink" x="0px" y="0px" width="24px" height="24px"
	 viewBox="0 0 24 24" enable-background="new 0 0 24 24" xml:space="preserve">
<metadata>
	<sfw  xmlns="&ns_sfw;">
		<slices></slices>
		<sliceSourceBounds  width="505" height="984" bottomLeftOrigin="true" x="0" y="-120"></sliceSourceBounds>
	</sfw>
</metadata>
<g>
	<g>
		<path d="M12,24C5.4,24,0,18.6,0,12c0-0.6,0.4-1,1-1s1,0.4,1,1c0,5.5,4.5,10,10,10s10-4.5,10-10S17.5,2,12,2C8.7,2,5.5,3.7,3.7,6.4
			C3.4,6.9,2.8,7,2.3,6.7C1.8,6.4,1.7,5.8,2,5.3C4.3,2,8,0,12,0c6.6,0,12,5.4,12,12S18.6,24,12,24z"/>
	</g>
</g>
<g>
	<g>
		<path d="M6,8H2C1.4,8,1,7.6,1,7V3c0-0.6,0.4-1,1-1s1,0.4,1,1v3h3c0.6,0,1,0.4,1,1S6.6,8,6,8z"/>
	</g>
</g>
<g>
	<g>
		<path d="M12,16c-2.2,0-4-1.8-4-4s1.8-4,4-4s4,1.8,4,4S14.2,16,12,16z M12,10c-1.1,0-2,0.9-2,2s0.9,2,2,2s2-0.9,2-2S13.1,10,12,10z
			"/>
	</g>
</g>
</svg>
