<?xml version="1.0" encoding="utf-8"?>
<!-- Generator: Adobe Illustrator 18.1.0, SVG Export Plug-In . SVG Version: 6.00 Build 0)  -->
<!DOCTYPE svg PUBLIC "-//W3C//DTD SVG 1.1//EN" "http://www.w3.org/Graphics/SVG/1.1/DTD/svg11.dtd" [
	<!ENTITY ns_extend "http://ns.adobe.com/Extensibility/1.0/">
	<!ENTITY ns_ai "http://ns.adobe.com/AdobeIllustrator/10.0/">
	<!ENTITY ns_graphs "http://ns.adobe.com/Graphs/1.0/">
	<!ENTITY ns_vars "http://ns.adobe.com/Variables/1.0/">
	<!ENTITY ns_imrep "http://ns.adobe.com/ImageReplacement/1.0/">
	<!ENTITY ns_sfw "http://ns.adobe.com/SaveForWeb/1.0/">
	<!ENTITY ns_custom "http://ns.adobe.com/GenericCustomNamespace/1.0/">
	<!ENTITY ns_adobe_xpath "http://ns.adobe.com/XPath/1.0/">
]>
<svg version="1.1" id="Layer_1" xmlns:x="&ns_extend;" xmlns:i="&ns_ai;" xmlns:graph="&ns_graphs;"
	 xmlns="http://www.w3.org/2000/svg" xmlns:xlink="http://www.w3.org/1999/xlink" x="0px" y="0px" width="24px" height="24px"
	 viewBox="0 0 24 24" enable-background="new 0 0 24 24" xml:space="preserve">
<metadata>
	<sfw  xmlns="&ns_sfw;">
		<slices></slices>
		<sliceSourceBounds  width="505" height="984" bottomLeftOrigin="true" x="0" y="-552"></sliceSourceBounds>
	</sfw>
</metadata>
<g>
	<g>
		<g>
			<path d="M21,24H3c-0.4,0-0.7-0.2-0.9-0.5c-0.2-0.3-0.2-0.7,0-1l6-11C8.4,11,9,10.9,9.5,11.1c0.5,0.3,0.7,0.9,0.4,1.4L4.7,22h14.6
				l-5.2-9.5c-0.3-0.5-0.1-1.1,0.4-1.4c0.5-0.3,1.1-0.1,1.4,0.4l6,11c0.2,0.3,0.2,0.7,0,1C21.7,23.8,21.4,24,21,24z"/>
		</g>
	</g>
	<g>
		<g>
			<path d="M15,13c-0.6,0-1-0.4-1-1V6h-4v6c0,0.6-0.4,1-1,1s-1-0.4-1-1V5c0-0.6,0.4-1,1-1h6c0.6,0,1,0.4,1,1v7
				C16,12.6,15.6,13,15,13z"/>
		</g>
	</g>
	<g>
		<g>
			<path d="M17,6H7C6.4,6,6,5.6,6,5s0.4-1,1-1h10c0.6,0,1,0.4,1,1S17.6,6,17,6z"/>
		</g>
	</g>
	<g>
		<g>
			<circle cx="9" cy="2" r="1"/>
		</g>
		<g>
			<path d="M9,3.5C8.2,3.5,7.5,2.8,7.5,2S8.2,0.5,9,0.5s1.5,0.7,1.5,1.5S9.8,3.5,9,3.5z M9,1.5C8.7,1.5,8.5,1.7,8.5,2S8.7,2.5,9,2.5
				S9.5,2.3,9.5,2S9.3,1.5,9,1.5z"/>
		</g>
	</g>
	<g>
		<g>
			<circle cx="12.5" cy="1.5" r="1.5"/>
		</g>
		<g>
			<path d="M12.5,3.5c-1.1,0-2-0.9-2-2s0.9-2,2-2s2,0.9,2,2S13.6,3.5,12.5,3.5z M12.5,0.5c-0.6,0-1,0.4-1,1s0.4,1,1,1s1-0.4,1-1
				S13.1,0.5,12.5,0.5z"/>
		</g>
	</g>
	<g>
		<g>
			<circle cx="15.5" cy="2.5" r="0.5"/>
		</g>
		<g>
			<circle cx="15.5" cy="2.5" r="1"/>
		</g>
	</g>
	<g>
		<g>
			<path d="M5.8,18.8c-0.5,0-1-0.4-1-0.9c0-0.6,0.4-1,0.9-1.1l12-0.7c0.5-0.1,1,0.4,1.1,0.9c0,0.6-0.4,1-0.9,1.1L5.8,18.8
				C5.8,18.8,5.8,18.8,5.8,18.8z"/>
		</g>
	</g>
</g>
</svg>
