<?xml version="1.0" encoding="utf-8"?>
<!-- Generator: Adobe Illustrator 18.1.0, SVG Export Plug-In . SVG Version: 6.00 Build 0)  -->
<!DOCTYPE svg PUBLIC "-//W3C//DTD SVG 1.1//EN" "http://www.w3.org/Graphics/SVG/1.1/DTD/svg11.dtd" [
	<!ENTITY ns_extend "http://ns.adobe.com/Extensibility/1.0/">
	<!ENTITY ns_ai "http://ns.adobe.com/AdobeIllustrator/10.0/">
	<!ENTITY ns_graphs "http://ns.adobe.com/Graphs/1.0/">
	<!ENTITY ns_vars "http://ns.adobe.com/Variables/1.0/">
	<!ENTITY ns_imrep "http://ns.adobe.com/ImageReplacement/1.0/">
	<!ENTITY ns_sfw "http://ns.adobe.com/SaveForWeb/1.0/">
	<!ENTITY ns_custom "http://ns.adobe.com/GenericCustomNamespace/1.0/">
	<!ENTITY ns_adobe_xpath "http://ns.adobe.com/XPath/1.0/">
]>
<svg version="1.1" id="Layer_1" xmlns:x="&ns_extend;" xmlns:i="&ns_ai;" xmlns:graph="&ns_graphs;"
	 xmlns="http://www.w3.org/2000/svg" xmlns:xlink="http://www.w3.org/1999/xlink" x="0px" y="0px" width="24px" height="24px"
	 viewBox="0 0 24 24" enable-background="new 0 0 24 24" xml:space="preserve">
<metadata>
	<sfw  xmlns="&ns_sfw;">
		<slices></slices>
		<sliceSourceBounds  width="505" height="984" bottomLeftOrigin="true" x="0" y="-552"></sliceSourceBounds>
	</sfw>
</metadata>
<g>
	<g>
		<g>
			<path d="M10,21c-0.2,0-0.5-0.1-0.7-0.3l-9-8C0.1,12.6,0,12.3,0,12s0.1-0.6,0.3-0.7l9-8c0.3-0.3,0.7-0.3,1.1-0.2
				C10.8,3.2,11,3.6,11,4v5c0,0.6-0.4,1-1,1S9,9.6,9,9V6.2L2.5,12L9,17.8V15c0-0.6,0.4-1,1-1s1,0.4,1,1v5c0,0.4-0.2,0.8-0.6,0.9
				C10.3,21,10.1,21,10,21z"/>
		</g>
	</g>
	<g>
		<g>
			<path d="M23,21c-0.4,0-0.8-0.2-0.9-0.6c0,0-2-4.4-12.1-4.4c-0.6,0-1-0.4-1-1s0.4-1,1-1c6.1,0,9.6,1.5,11.6,2.9
				C19.5,10.1,10.4,10,10,10c-0.6,0-1-0.4-1-1c0-0.6,0.4-1,1-1c0.1,0,14,0.1,14,12c0,0.5-0.3,0.9-0.8,1C23.1,21,23.1,21,23,21z"/>
		</g>
	</g>
</g>
</svg>
