<?xml version="1.0" encoding="utf-8"?>
<!-- Generator: Adobe Illustrator 18.1.0, SVG Export Plug-In . SVG Version: 6.00 Build 0)  -->
<!DOCTYPE svg PUBLIC "-//W3C//DTD SVG 1.1//EN" "http://www.w3.org/Graphics/SVG/1.1/DTD/svg11.dtd" [
	<!ENTITY ns_extend "http://ns.adobe.com/Extensibility/1.0/">
	<!ENTITY ns_ai "http://ns.adobe.com/AdobeIllustrator/10.0/">
	<!ENTITY ns_graphs "http://ns.adobe.com/Graphs/1.0/">
	<!ENTITY ns_vars "http://ns.adobe.com/Variables/1.0/">
	<!ENTITY ns_imrep "http://ns.adobe.com/ImageReplacement/1.0/">
	<!ENTITY ns_sfw "http://ns.adobe.com/SaveForWeb/1.0/">
	<!ENTITY ns_custom "http://ns.adobe.com/GenericCustomNamespace/1.0/">
	<!ENTITY ns_adobe_xpath "http://ns.adobe.com/XPath/1.0/">
]>
<svg version="1.1" id="Layer_1" xmlns:x="&ns_extend;" xmlns:i="&ns_ai;" xmlns:graph="&ns_graphs;"
	 xmlns="http://www.w3.org/2000/svg" xmlns:xlink="http://www.w3.org/1999/xlink" x="0px" y="0px" width="24px" height="24px"
	 viewBox="0 0 24 24" enable-background="new 0 0 24 24" xml:space="preserve">
<metadata>
	<sfw  xmlns="&ns_sfw;">
		<slices></slices>
		<sliceSourceBounds  width="505" height="984" bottomLeftOrigin="true" x="0" y="-552"></sliceSourceBounds>
	</sfw>
</metadata>
<g>
	<g>
		<g>
			<path d="M20,18h-6c-0.6,0-1-0.4-1-1s0.4-1,1-1h6c0.6,0,1,0.4,1,1S20.6,18,20,18z"/>
		</g>
	</g>
	<g>
		<g>
			<path d="M17,21c-0.6,0-1-0.4-1-1v-6c0-0.6,0.4-1,1-1s1,0.4,1,1v6C18,20.6,17.6,21,17,21z"/>
		</g>
	</g>
	<g>
		<g>
			<path d="M17,24c-3.9,0-7-3.1-7-7s3.1-7,7-7s7,3.1,7,7S20.9,24,17,24z M17,12c-2.8,0-5,2.2-5,5s2.2,5,5,5s5-2.2,5-5S19.8,12,17,12
				z"/>
		</g>
	</g>
	<g>
		<g>
			<path d="M11,13c-0.9,0-1.7-0.3-2.4-0.7C6.9,11.2,6,8.9,6,6c0-2.8,2.2-5,5-5s5,2.2,5,5c0,2.9-0.9,5.2-2.6,6.3
				C12.7,12.7,11.9,13,11,13z M11,3C9.3,3,8,4.3,8,6c0,2.2,0.6,3.9,1.7,4.6c0.8,0.5,1.8,0.5,2.6,0C13.4,9.9,14,8.2,14,6
				C14,4.3,12.7,3,11,3z"/>
		</g>
	</g>
	<g>
		<g>
			<path d="M11,23c-2.3,0-10-0.3-10-4c0-3.7,2.7-5,5.7-5.9C6.9,13,7.7,12.7,8,11.2l2,0.4c-0.3,1.8-1.3,2.9-2.7,3.4
				C4.3,16,3,16.8,3,19c0,1.1,4.2,2,8,2c0,0,1.1,0,2.4-0.1l0.2,2C12.2,23,11,23,11,23z"/>
		</g>
	</g>
	<g>
		<g>
			<path d="M12.3,12.7c-0.2-0.4-0.3-0.8-0.3-1.1l2-0.4c0,0.2,0.1,0.5,0.2,0.8L12.3,12.7z"/>
		</g>
	</g>
</g>
</svg>
