<?xml version="1.0" encoding="utf-8"?>
<!-- Generator: Adobe Illustrator 18.1.0, SVG Export Plug-In . SVG Version: 6.00 Build 0)  -->
<!DOCTYPE svg PUBLIC "-//W3C//DTD SVG 1.1//EN" "http://www.w3.org/Graphics/SVG/1.1/DTD/svg11.dtd" [
	<!ENTITY ns_extend "http://ns.adobe.com/Extensibility/1.0/">
	<!ENTITY ns_ai "http://ns.adobe.com/AdobeIllustrator/10.0/">
	<!ENTITY ns_graphs "http://ns.adobe.com/Graphs/1.0/">
	<!ENTITY ns_vars "http://ns.adobe.com/Variables/1.0/">
	<!ENTITY ns_imrep "http://ns.adobe.com/ImageReplacement/1.0/">
	<!ENTITY ns_sfw "http://ns.adobe.com/SaveForWeb/1.0/">
	<!ENTITY ns_custom "http://ns.adobe.com/GenericCustomNamespace/1.0/">
	<!ENTITY ns_adobe_xpath "http://ns.adobe.com/XPath/1.0/">
]>
<svg version="1.1" id="Layer_1" xmlns:x="&ns_extend;" xmlns:i="&ns_ai;" xmlns:graph="&ns_graphs;"
	 xmlns="http://www.w3.org/2000/svg" xmlns:xlink="http://www.w3.org/1999/xlink" x="0px" y="0px" width="24px" height="24px"
	 viewBox="0 0 24 24" enable-background="new 0 0 24 24" xml:space="preserve">
<metadata>
	<sfw  xmlns="&ns_sfw;">
		<slices></slices>
		<sliceSourceBounds  width="505" height="984" bottomLeftOrigin="true" x="0" y="-984"></sliceSourceBounds>
	</sfw>
</metadata>
<g>
	<g>
		<g>
			<path d="M16,23c-0.2,0-0.4-0.1-0.6-0.2l-6-4C9.2,18.6,9,18.3,9,18V6c0-0.3,0.2-0.6,0.4-0.8l6-4c0.3-0.2,0.7-0.2,1,0
				C16.8,1.3,17,1.6,17,2v20c0,0.4-0.2,0.7-0.5,0.9C16.3,23,16.2,23,16,23z M11,17.5l4,2.7V3.9l-4,2.7V17.5z"/>
		</g>
	</g>
	<g>
		<g>
			<path d="M10,19H4c-0.6,0-1-0.4-1-1V6c0-0.6,0.4-1,1-1h6c0.6,0,1,0.4,1,1v12C11,18.6,10.6,19,10,19z M5,17h4V7H5V17z"/>
		</g>
	</g>
	<g>
		<g>
			<path d="M18.8,15.8c-0.3,0-0.5-0.1-0.7-0.3c-0.4-0.4-0.4-1,0-1.4c0.6-0.6,0.9-1.3,0.9-2.1s-0.3-1.5-0.9-2.1c-0.4-0.4-0.4-1,0-1.4
				c0.4-0.4,1-0.4,1.4,0c1,0.9,1.5,2.2,1.5,3.5s-0.5,2.6-1.5,3.5C19.3,15.7,19.1,15.8,18.8,15.8z"/>
		</g>
	</g>
</g>
</svg>
