<?xml version="1.0" encoding="utf-8"?>
<!-- Generated by IcoMoon.io -->
<!DOCTYPE svg PUBLIC "-//W3C//DTD SVG 1.1//EN" "http://www.w3.org/Graphics/SVG/1.1/DTD/svg11.dtd">
<svg version="1.1" xmlns="http://www.w3.org/2000/svg" xmlns:xlink="http://www.w3.org/1999/xlink" width="32" height="32" viewBox="0 0 32 32">
<g id="icomoon-ignore">
</g>
<path d="M28.795 4.005h-25.59v6.931h1.067v17.060h23.457v-17.060h1.066v-6.931zM26.663 26.929h-21.324v-15.994h21.324v15.994zM27.729 9.869h-23.457v-4.798h23.457v4.798z" fill="#000000"></path>
<path d="M12.144 17.871h7.739c1.102 0 1.996-0.868 1.996-1.939v-0.386c0-1.071-0.894-1.939-1.996-1.939h-7.739c-1.102 0-1.995 0.868-1.995 1.939v0.386c0 1.071 0.892 1.939 1.995 1.939zM11.215 15.545c0-0.482 0.416-0.873 0.928-0.873h7.739c0.512 0 0.929 0.392 0.929 0.873v0.386c0 0.482-0.417 0.873-0.929 0.873h-7.739c-0.512 0-0.928-0.392-0.928-0.873v-0.386z" fill="#000000"></path>
</svg>
