<?xml version="1.0" encoding="utf-8"?>
<!-- Generated by IcoMoon.io -->
<!DOCTYPE svg PUBLIC "-//W3C//DTD SVG 1.1//EN" "http://www.w3.org/Graphics/SVG/1.1/DTD/svg11.dtd">
<svg version="1.1" xmlns="http://www.w3.org/2000/svg" xmlns:xlink="http://www.w3.org/1999/xlink" width="32" height="32" viewBox="0 0 32 32">
<g id="icomoon-ignore">
</g>
<path d="M30.622 9.602h-22.407l-1.809-7.464h-5.027v1.066h4.188l5.198 21.443c-1.108 0.323-1.923 1.334-1.923 2.547 0 1.472 1.193 2.666 2.666 2.666s2.666-1.194 2.666-2.666c0-0.603-0.208-1.153-0.545-1.599h7.487c-0.337 0.446-0.545 0.997-0.545 1.599 0 1.472 1.193 2.666 2.665 2.666s2.666-1.194 2.666-2.666c0-1.473-1.193-2.665-2.666-2.666v0h-11.403l-0.517-2.133h14.968l4.337-12.795zM13.107 27.196c0 0.882-0.717 1.599-1.599 1.599s-1.599-0.717-1.599-1.599c0-0.882 0.717-1.599 1.599-1.599s1.599 0.718 1.599 1.599zM24.836 27.196c0 0.882-0.718 1.599-1.6 1.599s-1.599-0.717-1.599-1.599c0-0.882 0.717-1.599 1.599-1.599 0.882 0 1.6 0.718 1.6 1.599zM11.058 21.331l-2.585-10.662h20.662l-3.615 10.662h-14.462z" fill="#000000"></path>
</svg>
