<?xml version="1.0" encoding="utf-8"?>
<!-- Generated by IcoMoon.io -->
<!DOCTYPE svg PUBLIC "-//W3C//DTD SVG 1.1//EN" "http://www.w3.org/Graphics/SVG/1.1/DTD/svg11.dtd">
<svg version="1.1" xmlns="http://www.w3.org/2000/svg" xmlns:xlink="http://www.w3.org/1999/xlink" width="26" height="32" viewBox="0 0 26 32">
<g id="icomoon-ignore">
</g>
<path d="M13.113 18.622c1.449 0 2.623-1.174 2.623-2.622s-1.174-2.622-2.623-2.622c-1.448 0-2.623 1.173-2.623 2.622s1.174 2.622 2.623 2.622zM13.113 14.427c0.868 0 1.574 0.706 1.574 1.573s-0.706 1.573-1.574 1.573-1.574-0.706-1.574-1.573c0-0.867 0.706-1.573 1.574-1.573z" fill="#000000"></path>
<path d="M26.122 17.627c0.066-0.534 0.104-1.076 0.104-1.627 0-7.242-5.871-13.113-13.112-13.113v0c-0.001 0-0.001 0-0.001 0-4.973 0-9.299 2.769-11.522 6.848-0.002 0.005-0.005 0.009-0.008 0.014-0.042 0.077-0.080 0.157-0.12 0.235-0.154 0.298-0.3 0.601-0.432 0.912-0.020 0.047-0.037 0.095-0.056 0.143-0.626 1.531-0.974 3.205-0.974 4.961 0 7.242 5.871 13.113 13.113 13.113 6.515 0 11.918-4.753 12.937-10.98 0.028-0.168 0.051-0.337 0.072-0.506zM25.154 16.712c-0.004 0.072-0.011 0.143-0.016 0.214-0.012 0.167-0.028 0.334-0.048 0.499-0.009 0.077-0.019 0.155-0.029 0.232-0.024 0.17-0.051 0.338-0.082 0.506-0.011 0.061-0.020 0.123-0.033 0.184-0.046 0.23-0.096 0.458-0.155 0.683-0.001 0.002-0.001 0.003-0.002 0.005-0.057 0.222-0.123 0.441-0.193 0.657-0.017 0.055-0.037 0.11-0.056 0.165-0.056 0.167-0.116 0.332-0.18 0.495-0.022 0.057-0.044 0.115-0.068 0.172-0.072 0.176-0.147 0.349-0.226 0.52-0.016 0.036-0.031 0.072-0.048 0.107-0.101 0.213-0.207 0.423-0.321 0.629l-6.28-3.793c0.278-0.602 0.437-1.27 0.437-1.977 0-2.613-2.119-4.731-4.732-4.731-0.002 0-0.003 0.001-0.005 0.001s-0.004-0.001-0.006-0.001c-0.018 0-0.036 0.003-0.055 0.004-0.157 0.002-0.312 0.011-0.464 0.028-0.016 0.002-0.032 0.006-0.049 0.008-0.892 0.109-1.706 0.465-2.374 0.999l-5.205-5.206c1.045-0.959 2.26-1.734 3.593-2.28v0c0.702-0.287 1.437-0.511 2.197-0.663 0.011-0.002 0.022-0.004 0.033-0.006 0.178-0.035 0.358-0.067 0.538-0.094 0.039-0.006 0.079-0.010 0.119-0.015 0.154-0.022 0.308-0.042 0.464-0.058 0.081-0.008 0.164-0.012 0.246-0.019 0.116-0.009 0.232-0.020 0.349-0.026 0.194-0.010 0.389-0.014 0.585-0.015 0.007 0 0.015-0.001 0.023-0.001 6.028 0 11.038 4.444 11.924 10.229 0.092 0.598 0.139 1.211 0.139 1.835-0 0.239-0.009 0.477-0.023 0.712zM22.327 23.774c-0.129 0.154-0.263 0.303-0.399 0.45-0.025 0.026-0.050 0.051-0.074 0.077-0.125 0.131-0.252 0.26-0.382 0.385-0.029 0.028-0.058 0.055-0.088 0.083-0.133 0.126-0.268 0.248-0.407 0.367-0.025 0.022-0.050 0.044-0.075 0.066-0.158 0.134-0.32 0.264-0.484 0.39-0.005 0.003-0.010 0.007-0.015 0.011-0.355 0.27-0.726 0.521-1.111 0.752l-3.48-6.453c0.406-0.282 0.763-0.626 1.063-1.017l6.278 3.791c-0.247 0.372-0.515 0.727-0.801 1.069-0.008 0.010-0.017 0.019-0.026 0.030zM17.038 27.404c-0.155 0.054-0.311 0.105-0.469 0.153-0.060 0.018-0.122 0.035-0.183 0.052-0.144 0.041-0.29 0.079-0.436 0.115-0.069 0.016-0.139 0.033-0.209 0.048-0.142 0.032-0.285 0.060-0.429 0.087-0.072 0.013-0.144 0.027-0.216 0.039-0.148 0.025-0.296 0.045-0.445 0.065-0.069 0.008-0.137 0.018-0.205 0.026-0.167 0.018-0.334 0.033-0.503 0.044-0.052 0.003-0.103 0.008-0.155 0.011-0.223 0.012-0.448 0.019-0.674 0.019-6.444 0-11.725-5.078-12.048-11.443-0.011-0.206-0.016-0.412-0.016-0.62 0-0.204 0.006-0.407 0.015-0.609 0.008-0.154 0.021-0.307 0.034-0.46 0.004-0.045 0.006-0.090 0.010-0.134 0.119-1.183 0.411-2.316 0.847-3.374 0.001-0.006 0.003-0.011 0.004-0.016 0.544-1.317 1.315-2.518 2.264-3.553l5.206 5.206c-0.579 0.724-0.948 1.621-1.020 2.602-0.009 0.113-0.018 0.225-0.018 0.34 0 0.002 0.001 0.004 0.001 0.006s-0.001 0.004-0.001 0.005c0 2.613 2.118 4.732 4.731 4.732 0.625 0 1.219-0.124 1.765-0.343l3.481 6.457c-0.387 0.187-0.786 0.355-1.195 0.502-0.045 0.016-0.091 0.030-0.137 0.046zM16.784 16c0 2.025-1.647 3.671-3.672 3.671-2.023 0-3.668-1.643-3.671-3.665 0.003-2.026 1.65-3.674 3.677-3.677 2.022 0.003 3.666 1.648 3.666 3.671z" fill="#000000"></path>
</svg>
