<?xml version="1.0" encoding="utf-8"?>
<!-- Generated by IcoMoon.io -->
<!DOCTYPE svg PUBLIC "-//W3C//DTD SVG 1.1//EN" "http://www.w3.org/Graphics/SVG/1.1/DTD/svg11.dtd">
<svg version="1.1" xmlns="http://www.w3.org/2000/svg" xmlns:xlink="http://www.w3.org/1999/xlink" width="32" height="32" viewBox="0 0 32 32">
<g id="icomoon-ignore">
</g>
<path d="M28.262 5.87c0-1.472-1.194-2.665-2.666-2.665s-2.666 1.193-2.666 2.665c0 1.289 0.916 2.365 2.133 2.612v18.18h1.066v-18.18c1.217-0.247 2.133-1.323 2.133-2.612zM25.596 7.47c-0.882 0-1.599-0.717-1.599-1.599s0.717-1.599 1.599-1.599c0.882 0 1.599 0.717 1.599 1.599s-0.717 1.599-1.599 1.599z" fill="#000000"></path>
<path d="M6.937 23.517v-18.18h-1.066v18.18c-1.217 0.247-2.132 1.322-2.132 2.612 0 1.472 1.194 2.666 2.666 2.666s2.666-1.194 2.666-2.666c0-1.29-0.916-2.365-2.133-2.612zM6.404 27.729c-0.882 0-1.599-0.717-1.599-1.599s0.717-1.599 1.599-1.599 1.599 0.717 1.599 1.599-0.717 1.599-1.599 1.599z" fill="#000000"></path>
<path d="M16.533 13.388v-8.050h-1.066v8.050c-1.217 0.247-2.133 1.323-2.133 2.612s0.916 2.365 2.133 2.612v8.050h1.066v-8.050c1.217-0.247 2.133-1.323 2.133-2.612s-0.916-2.365-2.133-2.612zM16 17.599c-0.882 0-1.599-0.717-1.599-1.599s0.717-1.599 1.599-1.599 1.599 0.717 1.599 1.599-0.717 1.599-1.599 1.599z" fill="#000000"></path>
</svg>
