<?xml version="1.0" encoding="utf-8"?>
<!-- Generated by IcoMoon.io -->
<!DOCTYPE svg PUBLIC "-//W3C//DTD SVG 1.1//EN" "http://www.w3.org/Graphics/SVG/1.1/DTD/svg11.dtd">
<svg version="1.1" xmlns="http://www.w3.org/2000/svg" xmlns:xlink="http://www.w3.org/1999/xlink" width="18" height="32" viewBox="0 0 18 32">
<g id="icomoon-ignore">
</g>
<path d="M15.52 17.653c3.573-3.573 3.573-9.28 0-12.853-1.76-1.76-4.107-2.667-6.4-2.667-2.347 0-4.693 0.853-6.453 2.667-3.573 3.573-3.573 9.28 0 12.853 1.653 1.653 3.733 2.507 5.867 2.613v4.267h-4.267v1.067h4.267v4.267h1.067v-4.267h4.267v-1.067h-4.267v-4.267c2.133-0.107 4.267-1.013 5.92-2.613zM3.413 5.547c1.493-1.547 3.52-2.347 5.653-2.347s4.16 0.853 5.653 2.347c3.147 3.147 3.147 8.213 0 11.36-1.493 1.493-3.52 2.293-5.653 2.293s-4.16-0.853-5.653-2.347c-3.147-3.093-3.147-8.213 0-11.307z" fill="#000000"></path>
</svg>
