<?xml version="1.0" encoding="utf-8"?>
<!-- Generated by IcoMoon.io -->
<!DOCTYPE svg PUBLIC "-//W3C//DTD SVG 1.1//EN" "http://www.w3.org/Graphics/SVG/1.1/DTD/svg11.dtd">
<svg version="1.1" xmlns="http://www.w3.org/2000/svg" xmlns:xlink="http://www.w3.org/1999/xlink" width="32" height="32" viewBox="0 0 32 32">
<g id="icomoon-ignore">
</g>
<path d="M26.663 7.737h-13.861v-0.533c0-1.178-0.955-2.133-2.133-2.133h-5.331c-1.178 0-2.132 0.955-2.132 2.133v17.593c0 1.178 0.955 2.133 2.132 2.133h21.325c1.178 0 2.133-0.955 2.133-2.133v-14.928c0-1.178-0.955-2.133-2.133-2.133zM4.271 7.203c0-0.588 0.479-1.066 1.066-1.066h5.331c0.588 0 1.066 0.478 1.066 1.066v1.599h14.928c0.588 0 1.066 0.478 1.066 1.066v1.066h-23.457v-3.732zM26.663 25.863h-21.325c-0.588 0-1.066-0.479-1.066-1.066v-12.795h23.457v12.795c0 0.588-0.479 1.066-1.066 1.066z" fill="#000000"></path>
</svg>
