<?xml version="1.0" encoding="utf-8"?>
<!-- Generated by IcoMoon.io -->
<!DOCTYPE svg PUBLIC "-//W3C//DTD SVG 1.1//EN" "http://www.w3.org/Graphics/SVG/1.1/DTD/svg11.dtd">
<svg version="1.1" xmlns="http://www.w3.org/2000/svg" xmlns:xlink="http://www.w3.org/1999/xlink" width="15" height="32" viewBox="0 0 15 32">
<g id="icomoon-ignore">
</g>
<path d="M6.819 6.034h1.049v4.196h-1.049v-4.196z" fill="#000000"></path>
<path d="M14.686 9.181c0-4.056-3.288-7.343-7.343-7.343-4.056 0-7.343 3.287-7.343 7.343 0 3.123 1.954 5.785 4.704 6.846v14.134h5.245v-3.655l1.59-1.59-1.59-1.59v-2.065l2.639-2.639-2.598-2.598c2.745-1.063 4.696-3.723 4.696-6.843zM9.611 15.046l-0.711 0.275v1.097l2.203 2.205-2.204 2.204v2.934l1.155 1.156-1.155 1.156v3.041h-3.147v-13.805l-0.672-0.259c-2.449-0.945-4.032-3.247-4.032-5.867 0-3.471 2.823-6.294 6.294-6.294 3.47 0 6.294 2.823 6.294 6.294-0 2.616-1.581 4.918-4.026 5.865z" fill="#000000"></path>
</svg>
