<?xml version="1.0" encoding="utf-8"?>
<!-- Generated by IcoMoon.io -->
<!DOCTYPE svg PUBLIC "-//W3C//DTD SVG 1.1//EN" "http://www.w3.org/Graphics/SVG/1.1/DTD/svg11.dtd">
<svg version="1.1" xmlns="http://www.w3.org/2000/svg" xmlns:xlink="http://www.w3.org/1999/xlink" width="24" height="32" viewBox="0 0 24 32">
<g id="icomoon-ignore">
</g>
<path d="M24.3 4.592l-0.742-0.742-7.142 7.143v-5.822l-7.687 6.127h-5.949v4.743l-0.003 0.003 0.003 0.003v4.693h3.889l-6.668 6.668 0.742 0.742 7.41-7.41h0.027l1.003-1.002-0.015-0.012 6.202-6.202v0.027l1.049-1.049v-0.027l7.883-7.883zM3.828 19.691v-7.343h5.268l6.271-4.998v3.949l0.001 0.743-7.65 7.649h-3.889z" fill="#000000"></path>
<path d="M15.368 19.691h-0.001v4.901l-5.355-4.202-0.747 0.747 7.151 5.611v-6.008h0.001v-6.755l-1.049 1.049z" fill="#000000"></path>
</svg>
