<?xml version="1.0" encoding="utf-8"?>
<!-- Generated by IcoMoon.io -->
<!DOCTYPE svg PUBLIC "-//W3C//DTD SVG 1.1//EN" "http://www.w3.org/Graphics/SVG/1.1/DTD/svg11.dtd">
<svg version="1.1" xmlns="http://www.w3.org/2000/svg" xmlns:xlink="http://www.w3.org/1999/xlink" width="32" height="32" viewBox="0 0 32 32">
<g id="icomoon-ignore">
</g>
<path d="M7.47 12.268c-0.589 0-1.066 0.477-1.066 1.066s0.477 1.066 1.066 1.066c0.588 0 1.066-0.477 1.066-1.066s-0.478-1.066-1.066-1.066z" fill="#000000"></path>
<path d="M10.669 12.268c-0.589 0-1.066 0.477-1.066 1.066s0.477 1.066 1.066 1.066c0.588 0 1.066-0.477 1.066-1.066s-0.478-1.066-1.066-1.066z" fill="#000000"></path>
<path d="M29.328 8.003h-5.864v-5.331h-14.928v5.331h-5.864c-0.295 0-0.533 0.238-0.533 0.533v15.994c0 0.295 0.238 0.533 0.533 0.533h5.864v4.265h14.928v-4.265h5.864c0.295 0 0.533-0.238 0.533-0.533v-15.994c0-0.295-0.238-0.533-0.533-0.533zM9.602 3.738h12.795v4.265h-12.795v-4.265zM22.398 28.262h-12.795v-9.596h12.795v9.596zM28.795 23.997h-5.331v-6.398h-14.928v6.398h-5.331v-14.928h25.59v14.928z" fill="#000000"></path>
</svg>
