<?xml version="1.0" encoding="utf-8"?>
<!-- Generated by IcoMoon.io -->
<!DOCTYPE svg PUBLIC "-//W3C//DTD SVG 1.1//EN" "http://www.w3.org/Graphics/SVG/1.1/DTD/svg11.dtd">
<svg version="1.1" xmlns="http://www.w3.org/2000/svg" xmlns:xlink="http://www.w3.org/1999/xlink" width="27" height="32" viewBox="0 0 27 32">
<g id="icomoon-ignore">
</g>
<path d="M20.48 18.613l-1.12 7.84 7.627-1.173-2.987-3.040c1.013-1.867 1.6-3.947 1.6-6.24 0-7.093-5.707-12.8-12.8-12.8v1.067c6.453 0 11.733 5.28 11.733 11.733 0 1.973-0.48 3.787-1.333 5.44l-2.72-2.827zM20.587 25.173l0.64-4.267 3.52 3.627-4.16 0.64z" fill="#000000"></path>
<path d="M1.067 16c0-2.827 1.013-5.387 2.667-7.413l3.253 3.307 1.12-7.84-7.627 1.227 2.453 2.56c-1.813 2.187-2.933 5.067-2.933 8.16 0 7.093 5.707 12.8 12.8 12.8v-1.067c-6.453 0-11.733-5.28-11.733-11.733zM6.827 5.387l-0.64 4.267-3.52-3.627 4.16-0.64z" fill="#000000"></path>
</svg>
