<?xml version="1.0" encoding="utf-8"?>
<!-- Generated by IcoMoon.io -->
<!DOCTYPE svg PUBLIC "-//W3C//DTD SVG 1.1//EN" "http://www.w3.org/Graphics/SVG/1.1/DTD/svg11.dtd">
<svg version="1.1" xmlns="http://www.w3.org/2000/svg" xmlns:xlink="http://www.w3.org/1999/xlink" width="30" height="32" viewBox="0 0 30 32">
<g id="icomoon-ignore">
</g>
<path d="M25.6 18.453l4.267-0.427v-4l-4.267-0.427c-0.267-1.28-0.8-2.453-1.44-3.467l2.4-3.2-2.453-2.453-3.2 2.4c-1.013-0.64-2.187-1.173-3.413-1.44l-0.48-4.267h-4l-0.48 4.267c-1.227 0.267-2.347 0.747-3.36 1.387l-3.307-2.347-2.453 2.453 2.347 3.307c-0.64 1.013-1.12 2.133-1.387 3.36l-4.267 0.48v4l4.267 0.48c0.267 1.227 0.8 2.4 1.44 3.467l-2.4 3.2 2.453 2.453 3.2-2.4c1.013 0.64 2.187 1.173 3.413 1.44l0.533 4.267h4l0.533-4.267c1.227-0.267 2.347-0.747 3.36-1.387l3.253 2.347 2.453-2.453-2.4-3.36c0.64-1.067 1.12-2.187 1.387-3.413zM28.8 14.933v2.080l-3.2 0.32c0.053-0.427 0.107-0.907 0.107-1.387s-0.053-0.907-0.107-1.387l3.2 0.373zM23.947 5.76l1.173 1.173-1.76 2.4c-0.533-0.693-1.12-1.28-1.813-1.813l2.4-1.76zM13.867 2.133h2.133l0.373 3.2c-0.48-0.053-0.96-0.107-1.387-0.107-0.48 0-0.96 0.053-1.387 0.107l0.267-3.2zM4.693 6.987l1.227-1.227 2.453 1.707c-0.373 0.267-0.693 0.587-1.013 0.907s-0.64 0.64-0.907 1.013l-1.76-2.4zM1.067 17.067v-2.133l3.2-0.373c-0.053 0.48-0.107 0.96-0.107 1.44s0.053 0.96 0.107 1.387l-3.2-0.32zM5.92 26.187l-1.173-1.12 1.76-2.4c0.533 0.64 1.12 1.28 1.76 1.76l-2.347 1.76zM16 29.867h-2.133l-0.373-3.2c0.48 0.053 0.96 0.107 1.44 0.107v0 0c0.48 0 0.96-0.053 1.44-0.107l-0.373 3.2zM14.933 25.653c-5.333 0-9.653-4.32-9.653-9.653 0-2.56 1.013-5.013 2.827-6.827s4.267-2.827 6.827-2.827v0c5.333 0 9.653 4.32 9.653 9.653 0 2.56-1.013 5.013-2.827 6.827s-4.213 2.827-6.827 2.827zM25.173 25.013l-1.173 1.173-2.453-1.76c0.373-0.267 0.693-0.587 1.013-0.907s0.587-0.64 0.907-1.013l1.707 2.507z" fill="#000000"></path>
</svg>
