<?xml version="1.0" encoding="utf-8"?>
<!-- Generated by IcoMoon.io -->
<!DOCTYPE svg PUBLIC "-//W3C//DTD SVG 1.1//EN" "http://www.w3.org/Graphics/SVG/1.1/DTD/svg11.dtd">
<svg version="1.1" xmlns="http://www.w3.org/2000/svg" xmlns:xlink="http://www.w3.org/1999/xlink" width="32" height="32" viewBox="0 0 32 32">
<g id="icomoon-ignore">
</g>
<path d="M15.97 18.399c-2.352 0-4.265 1.913-4.265 4.265s1.913 4.265 4.265 4.265c2.352 0 4.265-1.913 4.265-4.265s-1.913-4.265-4.265-4.265zM15.97 25.863c-1.764 0-3.199-1.435-3.199-3.199s1.435-3.199 3.199-3.199c1.764 0 3.199 1.435 3.199 3.199s-1.435 3.199-3.199 3.199z" fill="#000000"></path>
<path d="M15.97 13.601c-3.599 0-6.706 2.114-8.168 5.161l0.798 0.798c1.215-2.872 4.060-4.892 7.37-4.892s6.155 2.021 7.37 4.892l0.798-0.798c-1.462-3.047-4.569-5.161-8.168-5.161z" fill="#000000"></path>
<path d="M16.022 5.071c-5.951 0-11.217 2.973-14.403 7.508l0.764 0.764c2.98-4.347 7.981-7.206 13.638-7.206 5.631 0 10.61 2.832 13.595 7.145l0.764-0.764c-3.19-4.501-8.435-7.447-14.36-7.447z" fill="#000000"></path>
<path d="M16.022 9.336c-4.778 0-8.975 2.529-11.328 6.317l0.776 0.776c2.138-3.604 6.066-6.027 10.552-6.027 4.459 0 8.368 2.393 10.514 5.961l0.774-0.774c-2.36-3.753-6.536-6.254-11.288-6.254z" fill="#000000"></path>
</svg>
