<?xml version="1.0" encoding="utf-8"?>
<!-- Generated by IcoMoon.io -->
<!DOCTYPE svg PUBLIC "-//W3C//DTD SVG 1.1//EN" "http://www.w3.org/Graphics/SVG/1.1/DTD/svg11.dtd">
<svg version="1.1" xmlns="http://www.w3.org/2000/svg" xmlns:xlink="http://www.w3.org/1999/xlink" width="26" height="32" viewBox="0 0 26 32">
<g id="icomoon-ignore">
</g>
<path d="M12.8 3.2c-7.093 0-12.8 5.707-12.8 12.8s5.707 12.8 12.8 12.8c7.093 0 12.8-5.707 12.8-12.8s-5.707-12.8-12.8-12.8zM12.8 27.733c-6.453 0-11.733-5.28-11.733-11.733s5.28-11.733 11.733-11.733c6.453 0 11.733 5.28 11.733 11.733s-5.28 11.733-11.733 11.733z" fill="#000000"></path>
<path d="M19.467 19.040c-0.267-0.107-0.587-0.053-0.693 0.213-1.173 2.293-3.467 3.68-5.973 3.68-2.56 0-4.8-1.387-5.973-3.68-0.107-0.267-0.427-0.373-0.693-0.213-0.267 0.107-0.373 0.427-0.267 0.693 1.333 2.613 3.947 4.267 6.933 4.267 2.933 0 5.6-1.653 6.88-4.267 0.16-0.267 0.053-0.587-0.213-0.693z" fill="#000000"></path>
<path d="M10.133 13.333c0 0.884-0.716 1.6-1.6 1.6s-1.6-0.716-1.6-1.6c0-0.884 0.716-1.6 1.6-1.6s1.6 0.716 1.6 1.6z" fill="#000000"></path>
<path d="M18.667 13.333c0 0.884-0.716 1.6-1.6 1.6s-1.6-0.716-1.6-1.6c0-0.884 0.716-1.6 1.6-1.6s1.6 0.716 1.6 1.6z" fill="#000000"></path>
</svg>
