<?xml version="1.0" encoding="utf-8"?>
<!-- Generated by IcoMoon.io -->
<!DOCTYPE svg PUBLIC "-//W3C//DTD SVG 1.1//EN" "http://www.w3.org/Graphics/SVG/1.1/DTD/svg11.dtd">
<svg version="1.1" xmlns="http://www.w3.org/2000/svg" xmlns:xlink="http://www.w3.org/1999/xlink" width="32" height="32" viewBox="0 0 32 32">
<g id="icomoon-ignore">
</g>
<path d="M24.797 8.803c-3.974 0-7.197 3.222-7.197 7.197 0 2.597 1.38 4.865 3.441 6.131h-10.082c2.062-1.266 3.441-3.534 3.441-6.131 0-3.975-3.223-7.197-7.197-7.197s-7.197 3.222-7.197 7.197c0 3.975 3.223 7.197 7.197 7.197h17.593c3.974 0 7.197-3.222 7.197-7.197s-3.223-7.197-7.197-7.197zM1.073 16c0-3.38 2.751-6.131 6.131-6.131s6.131 2.751 6.131 6.131-2.751 6.131-6.131 6.131-6.131-2.75-6.131-6.131zM24.797 22.131c-3.38 0-6.131-2.75-6.131-6.131s2.75-6.131 6.131-6.131 6.131 2.751 6.131 6.131-2.75 6.131-6.131 6.131z" fill="#000000"></path>
</svg>
