<?xml version="1.0" encoding="utf-8"?>
<!-- Generated by IcoMoon.io -->
<!DOCTYPE svg PUBLIC "-//W3C//DTD SVG 1.1//EN" "http://www.w3.org/Graphics/SVG/1.1/DTD/svg11.dtd">
<svg version="1.1" xmlns="http://www.w3.org/2000/svg" xmlns:xlink="http://www.w3.org/1999/xlink" width="32" height="32" viewBox="0 0 32 32">
<g id="icomoon-ignore">
</g>
<path d="M11.202 13.334v5.331h4.372l3.625 3.625v-12.581l-3.625 3.625h-4.372zM16.328 14.088l1.805-1.805v7.433l-2.117-2.117h-3.747v-3.199h3.747l0.312-0.312z" fill="#000000"></path>
<path d="M16 2.672c-7.361 0-13.328 5.968-13.328 13.328s5.968 13.328 13.328 13.328c7.361 0 13.328-5.967 13.328-13.328s-5.967-13.328-13.328-13.328zM16 28.262c-6.761 0-12.262-5.501-12.262-12.262s5.5-12.262 12.262-12.262c6.761 0 12.262 5.501 12.262 12.262s-5.5 12.262-12.262 12.262z" fill="#000000"></path>
</svg>
