<?xml version="1.0" encoding="utf-8"?>
<!-- Generated by IcoMoon.io -->
<!DOCTYPE svg PUBLIC "-//W3C//DTD SVG 1.1//EN" "http://www.w3.org/Graphics/SVG/1.1/DTD/svg11.dtd">
<svg version="1.1" xmlns="http://www.w3.org/2000/svg" xmlns:xlink="http://www.w3.org/1999/xlink" width="23" height="32" viewBox="0 0 23 32">
<g id="icomoon-ignore">
</g>
<path d="M3.152 14.163c0 5.504 4.461 9.965 9.965 9.965 5.506 0 9.967-4.461 9.967-9.965s-4.461-9.966-9.967-9.966c-5.503 0-9.965 4.461-9.965 9.966zM13.117 5.246c4.917 0 8.918 4 8.918 8.917s-4 8.916-8.918 8.916c-4.916 0-8.916-4-8.916-8.916s3.999-8.917 8.916-8.917z" fill="#000000"></path>
<path d="M19.059 25.862l0.505 1.020 0.941-0.465-1.426-2.88-0.94 0.466 0.455 0.917c-1.687 0.86-3.566 1.315-5.476 1.315-6.655 0-12.068-5.416-12.068-12.073 0-4.535 2.569-8.695 6.582-10.749l0.488 0.984 0.939-0.466-1.426-2.879-0.939 0.466 0.473 0.955c-4.368 2.231-7.166 6.755-7.166 11.689 0 7.060 5.603 12.832 12.593 13.109v1.596c-2.422 0.094-4.678 0.841-6.591 2.079h2.194c1.502-0.672 3.165-1.049 4.914-1.049 1.719 0 3.384 0.373 4.903 1.049h2.204c-1.937-1.248-4.201-1.981-6.575-2.079v-1.6c1.889-0.076 3.739-0.554 5.416-1.406z" fill="#000000"></path>
</svg>
