<?xml version="1.0" encoding="utf-8"?>
<!-- Generated by IcoMoon.io -->
<!DOCTYPE svg PUBLIC "-//W3C//DTD SVG 1.1//EN" "http://www.w3.org/Graphics/SVG/1.1/DTD/svg11.dtd">
<svg version="1.1" xmlns="http://www.w3.org/2000/svg" xmlns:xlink="http://www.w3.org/1999/xlink" width="27" height="32" viewBox="0 0 27 32">
<g id="icomoon-ignore">
</g>
<path d="M13.134 10.822h-1.049v5.987l3.301 3.301 0.742-0.742-2.994-2.993z" fill="#000000"></path>
<path d="M27.446 9.695l-7.418-7.418-5.587 5.588c-0.591-0.124-1.203-0.191-1.831-0.191-4.916 0-8.917 4-8.917 8.916 0 0.627 0.068 1.239 0.191 1.831l-3.884 3.884 1.545 5.995 5.873 1.422 4.264-4.264c0.305 0.031 0.615 0.048 0.928 0.048 4.917 0 8.917-4 8.917-8.916 0-0.313-0.016-0.623-0.048-0.928l5.967-5.967zM20.028 3.761l5.934 5.934-4.716 4.716c-0.731-2.893-2.874-5.223-5.655-6.213l4.437-4.437zM7.092 28.565l-4.688-1.135-1.24-4.806 3.052-3.052c0.992 2.781 3.321 4.924 6.214 5.654l-3.339 3.339zM12.61 24.458c-4.338 0-7.868-3.529-7.868-7.867s3.53-7.867 7.868-7.867c4.338 0 7.868 3.529 7.868 7.867s-3.529 7.867-7.868 7.867z" fill="#000000"></path>
</svg>
