<?xml version="1.0" encoding="UTF-8"?>
<svg width="18px" height="18px" viewBox="0 0 18 18" version="1.1" xmlns="http://www.w3.org/2000/svg" xmlns:xlink="http://www.w3.org/1999/xlink">
    <!-- Generator: Sketch 52.5 (67469) - http://www.bohemiancoding.com/sketch -->
    <title>4k</title>
    <desc>Created with Sketch.</desc>
    <g id="Icons" stroke="none" stroke-width="1" fill="none" fill-rule="evenodd">
        <g id="Rounded" transform="translate(-885.000000, -909.000000)">
            <g id="AV" transform="translate(100.000000, 852.000000)">
                <g id="-Round-/-AV-/-4k" transform="translate(782.000000, 54.000000)">
                    <g>
                        <rect id="Rectangle" x="0" y="0" width="24" height="24"></rect>
                        <path d="M19,3 L5,3 C3.9,3 3,3.9 3,5 L3,19 C3,20.1 3.89,21 5,21 L19,21 C20.1,21 21,20.1 21,19 L21,5 C21,3.9 20.11,3 19,3 Z M12,12.76 C12,13.17 11.66,13.51 11.25,13.51 L11,13.51 L11,14.25 C11,14.66 10.66,15 10.25,15 C9.84,15 9.5,14.66 9.5,14.25 L9.5,13.5 L7.5,13.5 C6.95,13.5 6.5,13.05 6.5,12.5 L6.5,9.75 C6.5,9.34 6.84,9 7.25,9 C7.66,9 8,9.34 8,9.75 L8,12 L9.5,12 L9.5,9.75 C9.5,9.34 9.84,9 10.25,9 C10.66,9 11,9.34 11,9.75 L11,12 L11.25,12 C11.66,12 12,12.34 12,12.75 L12,12.76 Z M17.47,13.9 C17.69,14.23 17.6,14.67 17.27,14.88 C17.15,14.96 17.01,15 16.88,15 C16.65,15 16.43,14.89 16.29,14.68 L14.5,12 L14.5,14.24 C14.5,14.65 14.16,14.99 13.75,14.99 C13.34,15 13,14.66 13,14.25 L13,9.75 C13,9.34 13.34,9 13.75,9 C14.16,9 14.5,9.34 14.5,9.75 L14.5,11.99 L16.29,9.31 C16.51,8.98 16.95,8.9 17.27,9.11 C17.6,9.33 17.68,9.77 17.47,10.09 L16.2,12 L17.47,13.9 Z" id="🔹Icon-Color" fill="#1D1D1D"></path>
                    </g>
                </g>
            </g>
        </g>
    </g>
</svg>