<?xml version="1.0" encoding="UTF-8"?>
<svg width="18px" height="20px" viewBox="0 0 18 20" version="1.1" xmlns="http://www.w3.org/2000/svg" xmlns:xlink="http://www.w3.org/1999/xlink">
    <!-- Generator: Sketch 52.5 (67469) - http://www.bohemiancoding.com/sketch -->
    <title>accessibility</title>
    <desc>Created with Sketch.</desc>
    <g id="Icons" stroke="none" stroke-width="1" fill="none" fill-rule="evenodd">
        <g id="Rounded" transform="translate(-341.000000, -156.000000)">
            <g id="Action" transform="translate(100.000000, 100.000000)">
                <g id="-Round-/-Action-/-accessibility" transform="translate(238.000000, 54.000000)">
                    <g>
                        <polygon id="Path" points="0 0 24 0 24 24 0 24"></polygon>
                        <path d="M12,2 C13.1,2 14,2.9 14,4 C14,5.1 13.1,6 12,6 C10.9,6 10,5.1 10,4 C10,2.9 10.9,2 12,2 Z M20,9 L15,9 L15,21 C15,21.55 14.55,22 14,22 C13.45,22 13,21.55 13,21 L13,16 L11,16 L11,21 C11,21.55 10.55,22 10,22 C9.45,22 9,21.55 9,21 L9,9 L4,9 C3.45,9 3,8.55 3,8 C3,7.45 3.45,7 4,7 L20,7 C20.55,7 21,7.45 21,8 C21,8.55 20.55,9 20,9 Z" id="🔹Icon-Color" fill="#1D1D1D"></path>
                    </g>
                </g>
            </g>
        </g>
    </g>
</svg>