<?xml version="1.0" encoding="UTF-8"?>
<svg width="19px" height="21px" viewBox="0 0 19 21" version="1.1" xmlns="http://www.w3.org/2000/svg" xmlns:xlink="http://www.w3.org/1999/xlink">
    <!-- Generator: Sketch 52.5 (67469) - http://www.bohemiancoding.com/sketch -->
    <title>account_balance</title>
    <desc>Created with Sketch.</desc>
    <g id="Icons" stroke="none" stroke-width="1" fill="none" fill-rule="evenodd">
        <g id="Rounded" transform="translate(-170.000000, -155.000000)">
            <g id="Action" transform="translate(100.000000, 100.000000)">
                <g id="-Round-/-Action-/-account_balance" transform="translate(68.000000, 54.000000)">
                    <g>
                        <polygon id="Path" points="0 0 24 0 24 24 0 24"></polygon>
                        <path d="M4,11.5 L4,15.5 C4,16.33 4.67,17 5.5,17 C6.33,17 7,16.33 7,15.5 L7,11.5 C7,10.67 6.33,10 5.5,10 C4.67,10 4,10.67 4,11.5 Z M10,11.5 L10,15.5 C10,16.33 10.67,17 11.5,17 C12.33,17 13,16.33 13,15.5 L13,11.5 C13,10.67 12.33,10 11.5,10 C10.67,10 10,10.67 10,11.5 Z M3.5,22 L19.5,22 C20.33,22 21,21.33 21,20.5 C21,19.67 20.33,19 19.5,19 L3.5,19 C2.67,19 2,19.67 2,20.5 C2,21.33 2.67,22 3.5,22 Z M16,11.5 L16,15.5 C16,16.33 16.67,17 17.5,17 C18.33,17 19,16.33 19,15.5 L19,11.5 C19,10.67 18.33,10 17.5,10 C16.67,10 16,10.67 16,11.5 Z M10.57,1.49 L2.67,5.65 C2.26,5.86 2,6.29 2,6.75 C2,7.44 2.56,8 3.25,8 L19.76,8 C20.44,8 21,7.44 21,6.75 C21,6.29 20.74,5.86 20.33,5.65 L12.43,1.49 C11.85,1.18 11.15,1.18 10.57,1.49 Z" id="🔹Icon-Color" fill="#1D1D1D"></path>
                    </g>
                </g>
            </g>
        </g>
    </g>
</svg>