<?xml version="1.0" encoding="UTF-8"?>
<svg width="20px" height="20px" viewBox="0 0 20 20" version="1.1" xmlns="http://www.w3.org/2000/svg" xmlns:xlink="http://www.w3.org/1999/xlink">
    <!-- Generator: Sketch 52.5 (67469) - http://www.bohemiancoding.com/sketch -->
    <title>add_comment</title>
    <desc>Created with Sketch.</desc>
    <g id="Icons" stroke="none" stroke-width="1" fill="none" fill-rule="evenodd">
        <g id="Rounded" transform="translate(-102.000000, -2016.000000)">
            <g id="Editor" transform="translate(100.000000, 1960.000000)">
                <g id="-Round-/-Editor-/-add_comment" transform="translate(0.000000, 54.000000)">
                    <g>
                        <polygon id="Path" points="0 0 24 0 24 24 0 24"></polygon>
                        <path d="M22,4 C22,2.9 21.1,2 20,2 L4,2 C2.9,2 2,2.9 2,4 L2,16 C2,17.1 2.9,18 4,18 L18,18 L22,22 L22,4 Z M16,11 L13,11 L13,14 C13,14.55 12.55,15 12,15 C11.45,15 11,14.55 11,14 L11,11 L8,11 C7.45,11 7,10.55 7,10 C7,9.45 7.45,9 8,9 L11,9 L11,6 C11,5.45 11.45,5 12,5 C12.55,5 13,5.45 13,6 L13,9 L16,9 C16.55,9 17,9.45 17,10 C17,10.55 16.55,11 16,11 Z" id="🔹-Icon-Color" fill="#1D1D1D"></path>
                    </g>
                </g>
            </g>
        </g>
    </g>
</svg>