<?xml version="1.0" encoding="UTF-8"?>
<svg width="17px" height="22px" viewBox="0 0 17 22" version="1.1" xmlns="http://www.w3.org/2000/svg" xmlns:xlink="http://www.w3.org/1999/xlink">
    <!-- Generator: Sketch 52.5 (67469) - http://www.bohemiancoding.com/sketch -->
    <title>add_to_home_screen</title>
    <desc>Created with Sketch.</desc>
    <g id="Icons" stroke="none" stroke-width="1" fill="none" fill-rule="evenodd">
        <g id="Two-Tone" transform="translate(-783.000000, -1705.000000)">
            <g id="Device" transform="translate(100.000000, 1650.000000)">
                <g id="Two-Tone-/-Device-/-add_to_home_screen" transform="translate(680.000000, 54.000000)">
                    <g>
                        <polygon id="Path" points="0 0 24 0 24 24 0 24"></polygon>
                        <path d="M18,1.01 L8,1 C6.9,1 6,1.9 6,3 L6,6 L8,6 L8,5 L18,5 L18,19 L8,19 L8,18 L6,18 L6,21 C6,22.1 6.9,23 8,23 L18,23 C19.1,23 20,22.1 20,21 L20,3 C20,1.9 19.1,1.01 18,1.01 Z M10,15 L12,15 L12,8 L5,8 L5,10 L8.59,10 L3,15.59 L4.41,17 L10,11.41 L10,15 Z" id="🔹-Primary-Color" fill="#1D1D1D"></path>
                    </g>
                </g>
            </g>
        </g>
    </g>
</svg>