<?xml version="1.0" encoding="UTF-8"?>
<svg width="23px" height="21px" viewBox="0 0 23 21" version="1.1" xmlns="http://www.w3.org/2000/svg" xmlns:xlink="http://www.w3.org/1999/xlink">
    <!-- Generator: Sketch 52.5 (67469) - http://www.bohemiancoding.com/sketch -->
    <title>add_a_photo</title>
    <desc>Created with Sketch.</desc>
    <g id="Icons" stroke="none" stroke-width="1" fill="none" fill-rule="evenodd">
        <g id="Outlined" transform="translate(-100.000000, -2681.000000)">
            <g id="Image" transform="translate(100.000000, 2626.000000)">
                <g id="Outlined-/-Image-/-add_a_photo" transform="translate(0.000000, 54.000000)">
                    <g>
                        <polygon id="Path" points="0 0 24 0 24 24 0 24"></polygon>
                        <path d="M21,6 L17.83,6 L16,4 L10,4 L10,6 L15.12,6 L16.95,8 L21,8 L21,20 L5,20 L5,11 L3,11 L3,20 C3,21.1 3.9,22 5,22 L21,22 C22.1,22 23,21.1 23,20 L23,8 C23,6.9 22.1,6 21,6 Z M8,14 C8,16.76 10.24,19 13,19 C15.76,19 18,16.76 18,14 C18,11.24 15.76,9 13,9 C10.24,9 8,11.24 8,14 Z M13,11 C14.65,11 16,12.35 16,14 C16,15.65 14.65,17 13,17 C11.35,17 10,15.65 10,14 C10,12.35 11.35,11 13,11 Z M5,6 L8,6 L8,4 L5,4 L5,1 L3,1 L3,4 L0,4 L0,6 L3,6 L3,9 L5,9 L5,6 Z" id="🔹-Icon-Color" fill="#1D1D1D"></path>
                    </g>
                </g>
            </g>
        </g>
    </g>
</svg>