<?xml version="1.0" encoding="UTF-8"?>
<svg width="23px" height="21px" viewBox="0 0 23 21" version="1.1" xmlns="http://www.w3.org/2000/svg" xmlns:xlink="http://www.w3.org/1999/xlink">
    <!-- Generator: Sketch 52.5 (67469) - http://www.bohemiancoding.com/sketch -->
    <title>add_a_photo</title>
    <desc>Created with Sketch.</desc>
    <g id="Icons" stroke="none" stroke-width="1" fill="none" fill-rule="evenodd">
        <g id="Rounded" transform="translate(-100.000000, -2681.000000)">
            <g id="Image" transform="translate(100.000000, 2626.000000)">
                <g id="-Round-/-Image-/-add_a_photo" transform="translate(0.000000, 54.000000)">
                    <g>
                        <polygon id="Path" points="0 0 24 0 24 24 0 24"></polygon>
                        <path d="M3,8 L3,6 L1,6 C0.45,6 0,5.55 0,5 C0,4.45 0.45,4 1,4 L3,4 L3,2 C3,1.45 3.45,1 4,1 C4.55,1 5,1.45 5,2 L5,4 L7,4 C7.55,4 8,4.45 8,5 C8,5.55 7.55,6 7,6 L5,6 L5,8 C5,8.55 4.55,9 4,9 C3.45,9 3,8.55 3,8 Z M13,17 C11.3431458,17 10,15.6568542 10,14 C10,12.3431458 11.3431458,11 13,11 C14.6568542,11 16,12.3431458 16,14 C16,15.6568542 14.6568542,17 13,17 Z M21,6 C22.1,6 23,6.9 23,8 L23,20 C23,21.1 22.1,22 21,22 L5,22 C3.9,22 3,21.1 3,20 L3,9.72 C3.3,9.89 3.63,10 4,10 C5.1,10 6,9.1 6,8 L6,7 L7,7 C8.1,7 9,6.1 9,5 C9,4.63 8.89,4.3 8.72,4 L15.12,4 C15.68,4 16.22,4.24 16.59,4.65 L17.83,6 L21,6 Z M13,19 C15.76,19 18,16.76 18,14 C18,11.24 15.76,9 13,9 C10.24,9 8,11.24 8,14 C8,16.76 10.24,19 13,19 Z" id="🔹-Icon-Color" fill="#1D1D1D"></path>
                    </g>
                </g>
            </g>
        </g>
    </g>
</svg>