<?xml version="1.0" encoding="UTF-8"?>
<svg width="22px" height="18px" viewBox="0 0 22 18" version="1.1" xmlns="http://www.w3.org/2000/svg" xmlns:xlink="http://www.w3.org/1999/xlink">
    <!-- Generator: Sketch 52.5 (67469) - http://www.bohemiancoding.com/sketch -->
    <title>add_to_queue</title>
    <desc>Created with Sketch.</desc>
    <g id="Icons" stroke="none" stroke-width="1" fill="none" fill-rule="evenodd">
        <g id="Two-Tone" transform="translate(-849.000000, -909.000000)">
            <g id="AV" transform="translate(100.000000, 852.000000)">
                <g id="Two-Tone-/-AV-/-add_to_queue" transform="translate(748.000000, 54.000000)">
                    <g>
                        <polygon id="Path" points="0 0 24 0 24 24 0 24"></polygon>
                        <path d="M3,17 L21,17 L21,5 L3,5 L3,17 Z M8,10 L11,10 L11,7 L13,7 L13,10 L16,10 L16,12 L13,12 L13,15 L11,15 L11,12 L8,12 L8,10 Z" id="🔹-Secondary-Color" fill="#D0D0D0"></path>
                        <path d="M11,15 L13,15 L13,12 L16,12 L16,10 L13,10 L13,7 L11,7 L11,10 L8,10 L8,12 L11,12 L11,15 Z M21,3 L3,3 C1.89,3 1,3.89 1,5 L1,17 C1,18.1 1.89,19 3,19 L8,19 L8,21 L16,21 L16,19 L21,19 C22.1,19 23,18.1 23,17 L23,5 C23,3.89 22.1,3 21,3 Z M21,17 L3,17 L3,5 L21,5 L21,17 Z" id="🔹-Primary-Color" fill="#1D1D1D"></path>
                    </g>
                </g>
            </g>
        </g>
    </g>
</svg>