<?xml version="1.0" encoding="UTF-8"?>
<svg width="16px" height="20px" viewBox="0 0 16 20" version="1.1" xmlns="http://www.w3.org/2000/svg" xmlns:xlink="http://www.w3.org/1999/xlink">
    <!-- Generator: Sketch 52.5 (67469) - http://www.bohemiancoding.com/sketch -->
    <title>airline_seat_recline_normal</title>
    <desc>Created with Sketch.</desc>
    <g id="Icons" stroke="none" stroke-width="1" fill="none" fill-rule="evenodd">
        <g id="Two-Tone" transform="translate(-546.000000, -3656.000000)">
            <g id="Notification" transform="translate(100.000000, 3600.000000)">
                <g id="Two-Tone-/-Notification-/-airline_seat_recline_normal" transform="translate(442.000000, 54.000000)">
                    <g>
                        <polygon id="Path" points="0 0 24 0 24 24 0 24"></polygon>
                        <path d="M7.59,5.41 C6.81,4.63 6.81,3.36 7.59,2.58 C8.37,1.8 9.64,1.8 10.42,2.58 C11.2,3.36 11.2,4.63 10.42,5.41 C9.63,6.2 8.37,6.2 7.59,5.41 Z M6,16 L6,7 L4,7 L4,16 C4,18.76 6.24,21 9,21 L15,21 L15,19 L9,19 C7.34,19 6,17.66 6,16 Z M20,20.07 L14.93,15 L11.5,15 L11.5,11.32 C12.9,12.47 15.1,13.48 17,13.48 L17,11.32 C15.34,11.34 13.39,10.45 12.33,9.28 L10.93,7.73 C10.74,7.52 10.5,7.35 10.24,7.23 C9.95,7.09 9.62,7 9.28,7 L9.25,7 C8.01,7 7,8.01 7,9.25 L7,15 C7,16.66 8.34,18 10,18 L15.07,18 L18.57,21.5 L20,20.07 Z" id="🔹-Primary-Color" fill="#1D1D1D"></path>
                    </g>
                </g>
            </g>
        </g>
    </g>
</svg>