<?xml version="1.0" encoding="UTF-8"?>
<svg width="16px" height="20px" viewBox="0 0 16 20" version="1.1" xmlns="http://www.w3.org/2000/svg" xmlns:xlink="http://www.w3.org/1999/xlink">
    <!-- Generator: Sketch 52.5 (67469) - http://www.bohemiancoding.com/sketch -->
    <title>airline_seat_recline_normal</title>
    <desc>Created with Sketch.</desc>
    <g id="Icons" stroke="none" stroke-width="1" fill="none" fill-rule="evenodd">
        <g id="Rounded" transform="translate(-580.000000, -3656.000000)">
            <g id="Notification" transform="translate(100.000000, 3600.000000)">
                <g id="-Round-/-Notification-/-airline_seat_recline_normal" transform="translate(476.000000, 54.000000)">
                    <g>
                        <polygon id="Path" points="0 0 24 0 24 24 0 24"></polygon>
                        <path d="M7.59,5.41 C6.81,4.63 6.81,3.36 7.59,2.58 C8.37,1.8 9.64,1.8 10.42,2.58 C11.2,3.36 11.2,4.63 10.42,5.41 C9.63,6.2 8.37,6.2 7.59,5.41 Z M6,16 L6,8 C6,7.45 5.55,7 5,7 C4.45,7 4,7.45 4,8 L4,16 C4,18.76 6.24,21 9,21 L14,21 C14.55,21 15,20.55 15,20 C15,19.45 14.55,19 14,19 L9,19 C7.34,19 6,17.66 6,16 Z M19.28,19.35 L15.51,15.58 C15.14,15.21 14.63,15 14.1,15 L11.5,15 L11.5,11.32 C12.59,12.21 14.16,13.02 15.7,13.34 C16.37,13.48 17,12.98 17,12.3 C17,11.77 16.61,11.34 16.08,11.25 C14.66,11.01 13.2,10.24 12.33,9.28 L10.93,7.73 C10.74,7.52 10.5,7.35 10.24,7.23 C9.95,7.09 9.62,7 9.28,7 L9.25,7 C8.01,7 7,8.01 7,9.25 L7,15 C7,16.66 8.34,18 10,18 L15.07,18 L17.85,20.78 C18.24,21.17 18.89,21.17 19.28,20.78 C19.68,20.39 19.68,19.75 19.28,19.35 Z" id="🔹-Icon-Color" fill="#1D1D1D"></path>
                    </g>
                </g>
            </g>
        </g>
    </g>
</svg>