<?xml version="1.0" encoding="UTF-8"?>
<svg width="22px" height="14px" viewBox="0 0 22 14" version="1.1" xmlns="http://www.w3.org/2000/svg" xmlns:xlink="http://www.w3.org/1999/xlink">
    <!-- Generator: Sketch 52.5 (67469) - http://www.bohemiancoding.com/sketch -->
    <title>airport_shuttle</title>
    <desc>Created with Sketch.</desc>
    <g id="Icons" stroke="none" stroke-width="1" fill="none" fill-rule="evenodd">
        <g id="Rounded" transform="translate(-781.000000, -3925.000000)">
            <g id="Places" transform="translate(100.000000, 3866.000000)">
                <g id="-Round-/-Places-/-airport_shuttle" transform="translate(680.000000, 54.000000)">
                    <g>
                        <polygon id="Path" points="0 0 24 0 24 24 0 24"></polygon>
                        <path d="M22.41,10.41 L17.58,5.58 C17.21,5.21 16.7,5 16.17,5 L3,5 C1.9,5 1,5.89 1,7 L1,14 C1,15.1 1.9,16 3,16 C3,17.66 4.34,19 6,19 C7.66,19 9,17.66 9,16 L15,16 C15,17.66 16.34,19 18,19 C19.66,19 21,17.66 21,16 C22.1,16 23,15.1 23,14 L23,11.83 C23,11.3 22.79,10.79 22.41,10.41 Z M3,10 L3,8 C3,7.45 3.45,7 4,7 L7,7 L7,11 L4,11 C3.45,11 3,10.55 3,10 Z M6,17.25 C5.31,17.25 4.75,16.69 4.75,16 C4.75,15.31 5.31,14.75 6,14.75 C6.69,14.75 7.25,15.31 7.25,16 C7.25,16.69 6.69,17.25 6,17.25 Z M13,11 L9,11 L9,7 L13,7 L13,11 Z M18,17.25 C17.31,17.25 16.75,16.69 16.75,16 C16.75,15.31 17.31,14.75 18,14.75 C18.69,14.75 19.25,15.31 19.25,16 C19.25,16.69 18.69,17.25 18,17.25 Z M15,11 L15,7 L16,7 L20,11 L15,11 Z" id="🔹-Icon-Color" fill="#1D1D1D"></path>
                    </g>
                </g>
            </g>
        </g>
    </g>
</svg>