<?xml version="1.0" encoding="UTF-8"?>
<svg width="22px" height="19px" viewBox="0 0 22 19" version="1.1" xmlns="http://www.w3.org/2000/svg" xmlns:xlink="http://www.w3.org/1999/xlink">
    <!-- Generator: Sketch 52.5 (67469) - http://www.bohemiancoding.com/sketch -->
    <title>airplay</title>
    <desc>Created with Sketch.</desc>
    <g id="Icons" stroke="none" stroke-width="1" fill="none" fill-rule="evenodd">
        <g id="Rounded" transform="translate(-339.000000, -909.000000)">
            <g id="AV" transform="translate(100.000000, 852.000000)">
                <g id="-Round-/-AV-/-airplay" transform="translate(238.000000, 54.000000)">
                    <g>
                        <rect id="Rectangle-Copy-6" x="0" y="0" width="24" height="24"></rect>
                        <path d="M8.41,22 L15.58,22 C16.47,22 16.92,20.92 16.29,20.29 L12.7,16.7 C12.31,16.31 11.68,16.31 11.29,16.7 L7.7,20.29 C7.08,20.92 7.52,22 8.41,22 Z M21,3 L3,3 C1.9,3 1,3.9 1,5 L1,17 C1,18.1 1.9,19 3,19 L6,19 C6.55,19 7,18.55 7,18 C7,17.45 6.55,17 6,17 L4,17 C3.45,17 3,16.55 3,16 L3,6 C3,5.45 3.45,5 4,5 L20,5 C20.55,5 21,5.45 21,6 L21,16 C21,16.55 20.55,17 20,17 L18,17 C17.45,17 17,17.45 17,18 C17,18.55 17.45,19 18,19 L21,19 C22.1,19 23,18.1 23,17 L23,5 C23,3.9 22.1,3 21,3 Z" id="🔹Icon-Color" fill="#1D1D1D"></path>
                    </g>
                </g>
            </g>
        </g>
    </g>
</svg>