<?xml version="1.0" encoding="UTF-8"?>
<svg width="19px" height="20px" viewBox="0 0 19 20" version="1.1" xmlns="http://www.w3.org/2000/svg" xmlns:xlink="http://www.w3.org/1999/xlink">
    <!-- Generator: Sketch 52.5 (67469) - http://www.bohemiancoding.com/sketch -->
    <title>airplanemode_active</title>
    <desc>Created with Sketch.</desc>
    <g id="Icons" stroke="none" stroke-width="1" fill="none" fill-rule="evenodd">
        <g id="Two-Tone" transform="translate(-748.000000, -1706.000000)">
            <g id="Device" transform="translate(100.000000, 1650.000000)">
                <g id="Two-Tone-/-Device-/-airplanemode_active" transform="translate(646.000000, 54.000000)">
                    <g>
                        <polygon id="Path" points="0 0 24 0 24 24 0 24"></polygon>
                        <path d="M21,16 L21,14 L13,9 L13,3.5 C13,2.67 12.33,2 11.5,2 C10.67,2 10,2.67 10,3.5 L10,9 L2,14 L2,16 L10,13.5 L10,19 L8,20.5 L8,22 L11.5,21 L15,22 L15,20.5 L13,19 L13,13.5 L21,16 Z" id="🔹-Primary-Color" fill="#1D1D1D"></path>
                    </g>
                </g>
            </g>
        </g>
    </g>
</svg>