<?xml version="1.0" encoding="UTF-8"?>
<svg width="20px" height="20px" viewBox="0 0 20 20" version="1.1" xmlns="http://www.w3.org/2000/svg" xmlns:xlink="http://www.w3.org/1999/xlink">
    <!-- Generator: Sketch 52.5 (67469) - http://www.bohemiancoding.com/sketch -->
    <title>alarm_on</title>
    <desc>Created with Sketch.</desc>
    <g id="Icons" stroke="none" stroke-width="1" fill="none" fill-rule="evenodd">
        <g id="Rounded" transform="translate(-816.000000, -156.000000)">
            <g id="Action" transform="translate(100.000000, 100.000000)">
                <g id="-Round-/-Action-/-alarm_on" transform="translate(714.000000, 54.000000)">
                    <g transform="translate(0.000000, 0.000000)">
                        <polygon id="Path" points="0 0 24 0 24 24 0 24"></polygon>
                        <path d="M14.94,10.11 L10.54,14.53 L8.94,12.93 C8.65,12.64 8.17,12.64 7.88,12.93 C7.59,13.22 7.59,13.7 7.88,13.99 L10,16.11 C10.29,16.4 10.77,16.4 11.06,16.11 L16,11.17 C16.29,10.88 16.29,10.4 16,10.11 C15.71,9.82 15.23,9.82 14.94,10.11 Z M21.18,5.01 L18.1,2.45 C17.68,2.1 17.05,2.15 16.69,2.58 C16.34,3 16.4,3.63 16.82,3.99 L19.89,6.55 C20.31,6.9 20.94,6.85 21.3,6.42 C21.66,6 21.6,5.37 21.18,5.01 Z M4.1,6.55 L7.17,3.99 C7.6,3.63 7.66,3 7.3,2.58 C6.95,2.15 6.32,2.1 5.9,2.45 L2.82,5.01 C2.4,5.37 2.34,6 2.7,6.42 C3.05,6.85 3.68,6.9 4.1,6.55 Z M12,4 C7.03,4 3,8.03 3,13 C3,17.97 7.03,22 12,22 C16.97,22 21,17.97 21,13 C21,8.03 16.97,4 12,4 Z M12,20 C8.14,20 5,16.86 5,13 C5,9.14 8.14,6 12,6 C15.86,6 19,9.14 19,13 C19,16.86 15.86,20 12,20 Z" id="🔹Icon-Color" fill="#1D1D1D"></path>
                    </g>
                </g>
            </g>
        </g>
    </g>
</svg>