<?xml version="1.0" encoding="UTF-8"?>
<svg width="16px" height="16px" viewBox="0 0 16 16" version="1.1" xmlns="http://www.w3.org/2000/svg" xmlns:xlink="http://www.w3.org/1999/xlink">
    <!-- Generator: Sketch 52.5 (67469) - http://www.bohemiancoding.com/sketch -->
    <title>all_out</title>
    <desc>Created with Sketch.</desc>
    <g id="Icons" stroke="none" stroke-width="1" fill="none" fill-rule="evenodd">
        <g id="Rounded" transform="translate(-750.000000, -158.000000)">
            <g id="Action" transform="translate(100.000000, 100.000000)">
                <g id="-Round-/-Action-/-all_out" transform="translate(646.000000, 54.000000)">
                    <g>
                        <polygon id="Path" points="0 0 24 0 24 24 0 24"></polygon>
                        <path d="M4,4.5 L4,8 L8,4 L4.5,4 C4.22,4 4,4.22 4,4.5 Z M16,4 L20,8 L20,4.5 C20,4.22 19.78,4 19.5,4 L16,4 Z M20,19.5 L20,16 L16,20 L19.5,20 C19.78,20 20,19.78 20,19.5 Z M4.5,20 L8,20 L4,16 L4,19.5 C4,19.78 4.22,20 4.5,20 Z M19,12 C19,8.13 15.87,5 12,5 C8.13,5 5,8.13 5,12 C5,15.87 8.13,19 12,19 C15.87,19 19,15.87 19,12 Z M12,17 C9.24,17 7,14.76 7,12 C7,9.24 9.24,7 12,7 C14.76,7 17,9.24 17,12 C17,14.76 14.76,17 12,17 Z" id="🔹Icon-Color" fill="#1D1D1D"></path>
                    </g>
                </g>
            </g>
        </g>
    </g>
</svg>