<?xml version="1.0" encoding="UTF-8"?>
<svg width="18px" height="18px" viewBox="0 0 18 18" version="1.1" xmlns="http://www.w3.org/2000/svg" xmlns:xlink="http://www.w3.org/1999/xlink">
    <!-- Generator: Sketch 52.5 (67469) - http://www.bohemiancoding.com/sketch -->
    <title>all_inbox</title>
    <desc>Created with Sketch.</desc>
    <g id="Icons" stroke="none" stroke-width="1" fill="none" fill-rule="evenodd">
        <g id="Outlined" transform="translate(-341.000000, -157.000000)">
            <g id="Action" transform="translate(100.000000, 100.000000)">
                <g id="Outlined-/-Action-/-all_inbox" transform="translate(238.000000, 54.000000)">
                    <g>
                        <polygon id="Path" points="0 0 24 0 24 24 0 24"></polygon>
                        <path d="M19,3 L5,3 C3.9,3 3,3.9 3,5 L3,12 C3,13.1 3.9,14 5,14 L19,14 C20.1,14 21,13.1 21,12 L21,5 C21,3.9 20.1,3 19,3 Z M5,10 L8.13,10 C8.34,10.78 8.8,11.47 9.4,12 L5,12 L5,10 Z M19,12 L14.6,12 C15.2,11.47 15.66,10.78 15.87,10 L19,10 L19,12 Z M19,8 L14,8 L14,9 C14,10.07 13.07,11 12,11 C10.93,11 10,10.07 10,9 L10,8 L5,8 L5,5 L19,5 L19,8 Z M17,15 L14,15 L14,16 C14,16.47 13.81,16.9 13.52,17.25 C13.15,17.7 12.6,18 12,18 C11.4,18 10.85,17.7 10.48,17.25 C10.19,16.9 10,16.47 10,16 L10,15 L3,15 L3,19 C3,20.1 3.9,21 5,21 L19,21 C20.1,21 21,20.1 21,19 L21,15 L17,15 Z M5,17 L8.13,17 C8.15,17.09 8.19,17.17 8.22,17.25 C8.46,17.93 8.87,18.53 9.4,19 L5,19 L5,17 Z M19,19 L14.6,19 C15.14,18.53 15.55,17.93 15.78,17.25 C15.81,17.17 15.85,17.09 15.87,17 L19,17 L19,19 Z" id="🔹-Icon-Color" fill="#1D1D1D"></path>
                    </g>
                </g>
            </g>
        </g>
    </g>
</svg>