<?xml version="1.0" encoding="UTF-8"?>
<svg width="18px" height="20px" viewBox="0 0 18 20" version="1.1" xmlns="http://www.w3.org/2000/svg" xmlns:xlink="http://www.w3.org/1999/xlink">
    <!-- Generator: Sketch 52.5 (67469) - http://www.bohemiancoding.com/sketch -->
    <title>assignment</title>
    <desc>Created with Sketch.</desc>
    <g id="Icons" stroke="none" stroke-width="1" fill="none" fill-rule="evenodd">
        <g id="Rounded" transform="translate(-545.000000, -155.000000)">
            <g id="Action" transform="translate(100.000000, 100.000000)">
                <g id="-Round-/-Action-/-assignment" transform="translate(442.000000, 54.000000)">
                    <g>
                        <polygon id="Path" points="0 0 24 0 24 24 0 24"></polygon>
                        <path d="M19,3 L14.82,3 C14.4,1.84 13.3,1 12,1 C10.7,1 9.6,1.84 9.18,3 L5,3 C3.9,3 3,3.9 3,5 L3,19 C3,20.1 3.9,21 5,21 L19,21 C20.1,21 21,20.1 21,19 L21,5 C21,3.9 20.1,3 19,3 Z M12,3 C12.55,3 13,3.45 13,4 C13,4.55 12.55,5 12,5 C11.45,5 11,4.55 11,4 C11,3.45 11.45,3 12,3 Z M13,17 L8,17 C7.45,17 7,16.55 7,16 C7,15.45 7.45,15 8,15 L13,15 C13.55,15 14,15.45 14,16 C14,16.55 13.55,17 13,17 Z M16,13 L8,13 C7.45,13 7,12.55 7,12 C7,11.45 7.45,11 8,11 L16,11 C16.55,11 17,11.45 17,12 C17,12.55 16.55,13 16,13 Z M16,9 L8,9 C7.45,9 7,8.55 7,8 C7,7.45 7.45,7 8,7 L16,7 C16.55,7 17,7.45 17,8 C17,8.55 16.55,9 16,9 Z" id="🔹Icon-Color" fill="#1D1D1D"></path>
                    </g>
                </g>
            </g>
        </g>
    </g>
</svg>