<?xml version="1.0" encoding="UTF-8"?>
<svg width="18px" height="20px" viewBox="0 0 18 20" version="1.1" xmlns="http://www.w3.org/2000/svg" xmlns:xlink="http://www.w3.org/1999/xlink">
    <!-- Generator: Sketch 52.5 (67469) - http://www.bohemiancoding.com/sketch -->
    <title>assignment_ind</title>
    <desc>Created with Sketch.</desc>
    <g id="Icons" stroke="none" stroke-width="1" fill="none" fill-rule="evenodd">
        <g id="Outlined" transform="translate(-681.000000, -199.000000)">
            <g id="Action" transform="translate(100.000000, 100.000000)">
                <g id="Outlined-/-Action-/-assignment_ind" transform="translate(578.000000, 98.000000)">
                    <g>
                        <polygon id="Path" points="0 0 24 0 24 24 0 24"></polygon>
                        <path d="M19,3 L14.82,3 C14.4,1.84 13.3,1 12,1 C10.7,1 9.6,1.84 9.18,3 L5,3 C3.9,3 3,3.9 3,5 L3,19 C3,20.1 3.9,21 5,21 L19,21 C20.1,21 21,20.1 21,19 L21,5 C21,3.9 20.1,3 19,3 Z M12,2.75 C12.22,2.75 12.41,2.85 12.55,3 C12.67,3.13 12.75,3.31 12.75,3.5 C12.75,3.91 12.41,4.25 12,4.25 C11.59,4.25 11.25,3.91 11.25,3.5 C11.25,3.31 11.33,3.13 11.45,3 C11.59,2.85 11.78,2.75 12,2.75 Z M19,19 L5,19 L5,5 L19,5 L19,19 Z M12,6 C10.35,6 9,7.35 9,9 C9,10.65 10.35,12 12,12 C13.65,12 15,10.65 15,9 C15,7.35 13.65,6 12,6 Z M12,10 C11.45,10 11,9.55 11,9 C11,8.45 11.45,8 12,8 C12.55,8 13,8.45 13,9 C13,9.55 12.55,10 12,10 Z M6,16.47 L6,18 L18,18 L18,16.47 C18,13.97 14.03,12.89 12,12.89 C9.97,12.89 6,13.96 6,16.47 Z M8.31,16 C9,15.44 10.69,14.88 12,14.88 C13.31,14.88 15.01,15.44 15.69,16 L8.31,16 Z" id="🔹-Icon-Color" fill="#1D1D1D"></path>
                    </g>
                </g>
            </g>
        </g>
    </g>
</svg>