<?xml version="1.0" encoding="UTF-8"?>
<svg width="18px" height="20px" viewBox="0 0 18 20" version="1.1" xmlns="http://www.w3.org/2000/svg" xmlns:xlink="http://www.w3.org/1999/xlink">
    <!-- Generator: Sketch 52.5 (67469) - http://www.bohemiancoding.com/sketch -->
    <title>assignment</title>
    <desc>Created with Sketch.</desc>
    <g id="Icons" stroke="none" stroke-width="1" fill="none" fill-rule="evenodd">
        <g id="Two-Tone" transform="translate(-307.000000, -155.000000)">
            <g id="Action" transform="translate(100.000000, 100.000000)">
                <g id="Two-Tone-/-Action-/-assignment" transform="translate(204.000000, 54.000000)">
                    <g>
                        <polygon id="Path" points="0 0 24 0 24 24 0 24"></polygon>
                        <path d="M5,5 L5,19 L19,19 L19,5 L5,5 Z M14,17 L7,17 L7,15 L14,15 L14,17 Z M17,13 L7,13 L7,11 L17,11 L17,13 Z M17,9 L7,9 L7,7 L17,7 L17,9 Z" id="🔹-Secondary-Color" fill="#D0D0D0"></path>
                        <path d="M7,15 L14,15 L14,17 L7,17 L7,15 Z M7,11 L17,11 L17,13 L7,13 L7,11 Z M7,7 L17,7 L17,9 L7,9 L7,7 Z M19,3 L14.82,3 C14.4,1.84 13.3,1 12,1 C10.7,1 9.6,1.84 9.18,3 L5,3 C4.86,3 4.73,3.01 4.6,3.04 C4.21,3.12 3.86,3.32 3.59,3.59 C3.41,3.77 3.26,3.99 3.16,4.23 C3.06,4.47 3,4.72 3,5 L3,19 C3,19.27 3.06,19.54 3.16,19.78 C3.26,20.02 3.41,20.23 3.59,20.42 C3.86,20.69 4.21,20.89 4.6,20.97 C4.73,20.99 4.86,21 5,21 L19,21 C20.1,21 21,20.1 21,19 L21,5 C21,3.9 20.1,3 19,3 Z M12,2.75 C12.41,2.75 12.75,3.09 12.75,3.5 C12.75,3.91 12.41,4.25 12,4.25 C11.59,4.25 11.25,3.91 11.25,3.5 C11.25,3.09 11.59,2.75 12,2.75 Z M19,19 L5,19 L5,5 L19,5 L19,19 Z" id="🔹-Primary-Color" fill="#1D1D1D"></path>
                    </g>
                </g>
            </g>
        </g>
    </g>
</svg>