<?xml version="1.0" encoding="UTF-8"?>
<svg width="23px" height="12px" viewBox="0 0 23 12" version="1.1" xmlns="http://www.w3.org/2000/svg" xmlns:xlink="http://www.w3.org/1999/xlink">
    <!-- Generator: Sketch 52.5 (67469) - http://www.bohemiancoding.com/sketch -->
    <title>attachment</title>
    <desc>Created with Sketch.</desc>
    <g id="Icons" stroke="none" stroke-width="1" fill="none" fill-rule="evenodd">
        <g id="Rounded" transform="translate(-475.000000, -2286.000000)">
            <g id="File" transform="translate(100.000000, 2226.000000)">
                <g id="-Round-/-File-/-attachment" transform="translate(374.000000, 54.000000)">
                    <g>
                        <polygon id="Path" points="0 0 24 0 24 24 0 24"></polygon>
                        <path d="M17.75,16 L7.17,16 C5.08,16 3.22,14.47 3.02,12.39 C2.79,10.01 4.66,8 7,8 L19.36,8 C20.67,8 21.86,8.94 21.99,10.24 C22.14,11.74 20.97,13 19.5,13 L9,13 C8.45,13 8,12.55 8,12 C8,11.45 8.45,11 9,11 L17.75,11 C18.16,11 18.5,10.66 18.5,10.25 C18.5,9.84 18.16,9.5 17.75,9.5 L9.14,9.5 C7.83,9.5 6.64,10.44 6.51,11.74 C6.36,13.24 7.53,14.5 9,14.5 L19.33,14.5 C21.42,14.5 23.28,12.97 23.48,10.89 C23.71,8.5 21.84,6.5 19.5,6.5 L7.23,6.5 C4.36,6.5 1.79,8.6 1.52,11.46 C1.22,14.75 3.78,17.5 7,17.5 L17.75,17.5 C18.16,17.5 18.5,17.16 18.5,16.75 C18.5,16.34 18.16,16 17.75,16 Z" id="🔹-Icon-Color" fill="#1D1D1D"></path>
                    </g>
                </g>
            </g>
        </g>
    </g>
</svg>