<?xml version="1.0" encoding="UTF-8"?>
<svg width="11px" height="18px" viewBox="0 0 11 18" version="1.1" xmlns="http://www.w3.org/2000/svg" xmlns:xlink="http://www.w3.org/1999/xlink">
    <!-- Generator: Sketch 52.5 (67469) - http://www.bohemiancoding.com/sketch -->
    <title>attach_money</title>
    <desc>Created with Sketch.</desc>
    <g id="Icons" stroke="none" stroke-width="1" fill="none" fill-rule="evenodd">
        <g id="Rounded" transform="translate(-820.000000, -2017.000000)">
            <g id="Editor" transform="translate(100.000000, 1960.000000)">
                <g id="-Round-/-Editor-/-attach_money" transform="translate(714.000000, 54.000000)">
                    <g transform="translate(0.000000, 0.000000)">
                        <polygon id="Path" points="0 0 24 0 24 24 0 24"></polygon>
                        <path d="M11.8,10.9 C9.53,10.31 8.8,9.7 8.8,8.75 C8.8,7.66 9.81,6.9 11.5,6.9 C12.92,6.9 13.63,7.44 13.89,8.3 C14.01,8.7 14.34,9 14.76,9 L15.06,9 C15.72,9 16.19,8.35 15.96,7.73 C15.54,6.55 14.56,5.57 13,5.19 L13,4.5 C13,3.67 12.33,3 11.5,3 C10.67,3 10,3.67 10,4.5 L10,5.16 C8.06,5.58 6.5,6.84 6.5,8.77 C6.5,11.08 8.41,12.23 11.2,12.9 C13.7,13.5 14.2,14.38 14.2,15.31 C14.2,16 13.71,17.1 11.5,17.1 C9.85,17.1 9,16.51 8.67,15.67 C8.52,15.28 8.18,15 7.77,15 L7.49,15 C6.82,15 6.35,15.68 6.6,16.3 C7.17,17.69 8.5,18.51 10,18.83 L10,19.5 C10,20.33 10.67,21 11.5,21 C12.33,21 13,20.33 13,19.5 L13,18.85 C14.95,18.48 16.5,17.35 16.5,15.3 C16.5,12.46 14.07,11.49 11.8,10.9 Z" id="🔹-Icon-Color" fill="#1D1D1D"></path>
                    </g>
                </g>
            </g>
        </g>
    </g>
</svg>