<?xml version="1.0" encoding="UTF-8"?>
<svg width="11px" height="22px" viewBox="0 0 11 22" version="1.1" xmlns="http://www.w3.org/2000/svg" xmlns:xlink="http://www.w3.org/1999/xlink">
    <!-- Generator: Sketch 52.5 (67469) - http://www.bohemiancoding.com/sketch -->
    <title>attach_file</title>
    <desc>Created with Sketch.</desc>
    <g id="Icons" stroke="none" stroke-width="1" fill="none" fill-rule="evenodd">
        <g id="Outlined" transform="translate(-277.000000, -2103.000000)">
            <g id="Editor" transform="translate(100.000000, 1960.000000)">
                <g id="Outlined-/-Editor-/-attach_file" transform="translate(170.000000, 142.000000)">
                    <g>
                        <polygon id="Path" points="0 0 24 0 24 24 0 24"></polygon>
                        <path d="M16.5,6 L16.5,17.5 C16.5,19.71 14.71,21.5 12.5,21.5 C10.29,21.5 8.5,19.71 8.5,17.5 L8.5,5 C8.5,3.62 9.62,2.5 11,2.5 C12.38,2.5 13.5,3.62 13.5,5 L13.5,15.5 C13.5,16.05 13.05,16.5 12.5,16.5 C11.95,16.5 11.5,16.05 11.5,15.5 L11.5,6 L10,6 L10,15.5 C10,16.88 11.12,18 12.5,18 C13.88,18 15,16.88 15,15.5 L15,5 C15,2.79 13.21,1 11,1 C8.79,1 7,2.79 7,5 L7,17.5 C7,20.54 9.46,23 12.5,23 C15.54,23 18,20.54 18,17.5 L18,6 L16.5,6 Z" id="🔹-Icon-Color" fill="#1D1D1D"></path>
                    </g>
                </g>
            </g>
        </g>
    </g>
</svg>