<?xml version="1.0" encoding="UTF-8"?>
<svg width="12px" height="18px" viewBox="0 0 12 18" version="1.1" xmlns="http://www.w3.org/2000/svg" xmlns:xlink="http://www.w3.org/1999/xlink">
    <!-- Generator: Sketch 52.5 (67469) - http://www.bohemiancoding.com/sketch -->
    <title>audiotrack</title>
    <desc>Created with Sketch.</desc>
    <g id="Icons" stroke="none" stroke-width="1" fill="none" fill-rule="evenodd">
        <g id="Outlined" transform="translate(-276.000000, -2947.000000)">
            <g id="Image" transform="translate(100.000000, 2626.000000)">
                <g id="Outlined-/-Image-/-audiotrack" transform="translate(170.000000, 318.000000)">
                    <g>
                        <polygon id="Path" points="0 0 24 0 24 24 0 24"></polygon>
                        <path d="M12,3 L12,13.55 C11.41,13.21 10.73,13 10,13 C7.79,13 6,14.79 6,17 C6,19.21 7.79,21 10,21 C12.21,21 14,19.21 14,17 L14,7 L18,7 L18,3 L12,3 Z M10,19 C8.9,19 8,18.1 8,17 C8,15.9 8.9,15 10,15 C11.1,15 12,15.9 12,17 C12,18.1 11.1,19 10,19 Z" id="🔹-Icon-Color" fill="#1D1D1D"></path>
                    </g>
                </g>
            </g>
        </g>
    </g>
</svg>