<?xml version="1.0" encoding="UTF-8"?>
<svg width="18px" height="18px" viewBox="0 0 18 18" version="1.1" xmlns="http://www.w3.org/2000/svg" xmlns:xlink="http://www.w3.org/1999/xlink">
    <!-- Generator: Sketch 52.5 (67469) - http://www.bohemiancoding.com/sketch -->
    <title>ballot</title>
    <desc>Created with Sketch.</desc>
    <g id="Icons" stroke="none" stroke-width="1" fill="none" fill-rule="evenodd">
        <g id="Outlined" transform="translate(-749.000000, -1485.000000)">
            <g id="Content" transform="translate(100.000000, 1428.000000)">
                <g id="Outlined-/-Content-/-ballot" transform="translate(646.000000, 54.000000)">
                    <g>
                        <polygon id="Path" points="0 0 24 0 24 24 0 24"></polygon>
                        <path d="M13,7.5 L18,7.5 L18,9.5 L13,9.5 L13,7.5 Z M13,14.5 L18,14.5 L18,16.5 L13,16.5 L13,14.5 Z M19,3 L5,3 C3.9,3 3,3.9 3,5 L3,19 C3,20.1 3.9,21 5,21 L19,21 C20.1,21 21,20.1 21,19 L21,5 C21,3.9 20.1,3 19,3 Z M19,19 L5,19 L5,5 L19,5 L19,19 Z M11,6 L6,6 L6,11 L11,11 L11,6 Z M10,10 L7,10 L7,7 L10,7 L10,10 Z M11,13 L6,13 L6,18 L11,18 L11,13 Z M10,17 L7,17 L7,14 L10,14 L10,17 Z" id="🔹-Icon-Color" fill="#1D1D1D"></path>
                    </g>
                </g>
            </g>
        </g>
    </g>
</svg>