<?xml version="1.0" encoding="UTF-8"?>
<svg width="10px" height="20px" viewBox="0 0 10 20" version="1.1" xmlns="http://www.w3.org/2000/svg" xmlns:xlink="http://www.w3.org/1999/xlink">
    <!-- Generator: Sketch 52.5 (67469) - http://www.bohemiancoding.com/sketch -->
    <title>battery_alert</title>
    <desc>Created with Sketch.</desc>
    <g id="Icons" stroke="none" stroke-width="1" fill="none" fill-rule="evenodd">
        <g id="Rounded" transform="translate(-481.000000, -1706.000000)">
            <g id="Device" transform="translate(100.000000, 1650.000000)">
                <g id="-Round-/-Device-/-battery_alert" transform="translate(374.000000, 54.000000)">
                    <g>
                        <polygon id="Path" points="0 0 24 0 24 24 0 24"></polygon>
                        <path d="M15.67,4 L14,4 L14,3 C14,2.45 13.55,2 13,2 L11,2 C10.45,2 10,2.45 10,3 L10,4 L8.33,4 C7.6,4 7,4.6 7,5.33 L7,20.66 C7,21.4 7.6,22 8.34,22 L15.66,22 C16.4,22 17,21.4 17,20.67 L17,5.33 C17,4.6 16.4,4 15.67,4 Z M13,18 L11,18 L11,16 L13,16 L13,18 Z M13,13 C13,13.55 12.55,14 12,14 C11.45,14 11,13.55 11,13 L11,10 C11,9.45 11.45,9 12,9 C12.55,9 13,9.45 13,10 L13,13 Z" id="🔹Icon-Color" fill="#1D1D1D"></path>
                    </g>
                </g>
            </g>
        </g>
    </g>
</svg>