<?xml version="1.0" encoding="UTF-8"?>
<svg width="10px" height="20px" viewBox="0 0 10 20" version="1.1" xmlns="http://www.w3.org/2000/svg" xmlns:xlink="http://www.w3.org/1999/xlink">
    <!-- Generator: Sketch 52.5 (67469) - http://www.bohemiancoding.com/sketch -->
    <title>battery_charging_30</title>
    <desc>Created with Sketch.</desc>
    <g id="Icons" stroke="none" stroke-width="1" fill="none" fill-rule="evenodd">
        <g id="Outlined" transform="translate(-447.000000, -1706.000000)">
            <g id="Device" transform="translate(100.000000, 1650.000000)">
                <g id="Outlined-/-Device-/-battery_charging_30" transform="translate(340.000000, 54.000000)">
                    <g>
                        <polygon id="Path" points="0 0 24 0 24 24 0 24"></polygon>
                        <path d="M15.67,4 L14,4 L14,2 L10,2 L10,4 L8.33,4 C7.6,4 7,4.6 7,5.33 L7,14.5 L9,14.5 L13,7 L13,12.5 L15,12.5 L13.93,14.5 L17,14.5 L17,5.33 C17,4.6 16.4,4 15.67,4 Z" id="🔹-Secondary-Color" fill="#D0D0D0"></path>
                        <path d="M11,20 L11,14.5 L7,14.5 L7,20.67 C7,21.4 7.6,22 8.33,22 L15.66,22 C16.4,22 17,21.4 17,20.67 L17,14.5 L13.93,14.5 L11,20 Z" id="🔹-Primary-Color" fill="#1D1D1D"></path>
                    </g>
                </g>
            </g>
        </g>
    </g>
</svg>