<?xml version="1.0" encoding="UTF-8"?>
<svg width="18px" height="20px" viewBox="0 0 18 20" version="1.1" xmlns="http://www.w3.org/2000/svg" xmlns:xlink="http://www.w3.org/1999/xlink">
    <!-- Generator: Sketch 52.5 (67469) - http://www.bohemiancoding.com/sketch -->
    <title>bluetooth_audio</title>
    <desc>Created with Sketch.</desc>
    <g id="Icons" stroke="none" stroke-width="1" fill="none" fill-rule="evenodd">
        <g id="Rounded" transform="translate(-545.000000, -3656.000000)">
            <g id="Notification" transform="translate(100.000000, 3600.000000)">
                <g id="-Round-/-Notification-/-bluetooth_audio" transform="translate(442.000000, 54.000000)">
                    <g>
                        <polygon id="Path" points="0 0 24 0 24 24 0 24"></polygon>
                        <path d="M15.98,10.28 L14.6,11.66 C14.4,11.86 14.4,12.17 14.6,12.37 L15.98,13.75 C16.26,14.03 16.73,13.9 16.83,13.52 C16.94,13.02 17,12.52 17,12 C17,11.49 16.94,10.99 16.82,10.52 C16.73,10.14 16.26,10 15.98,10.28 Z M20.1,7.78 C19.85,7.23 19.12,7.11 18.7,7.54 C18.44,7.8 18.39,8.18 18.53,8.52 C18.99,9.59 19.25,10.76 19.25,11.99 C19.25,13.23 18.99,14.41 18.52,15.48 C18.38,15.8 18.43,16.17 18.68,16.42 C19.09,16.83 19.78,16.71 20.03,16.19 C20.66,14.89 21.01,13.43 21.01,11.89 C21,10.44 20.68,9.04 20.1,7.78 Z M11.39,12 L14.98,8.42 C15.37,8.03 15.37,7.4 14.98,7 L10.69,2.71 C10.06,2.08 8.98,2.53 8.98,3.42 L8.98,9.6 L5.09,5.7 C4.7,5.31 4.07,5.31 3.68,5.7 C3.29,6.09 3.29,6.72 3.68,7.11 L8.57,12 L3.68,16.89 C3.29,17.28 3.29,17.91 3.68,18.3 C4.07,18.69 4.7,18.69 5.09,18.3 L8.98,14.41 L8.98,20.59 C8.98,21.48 10.06,21.93 10.69,21.3 L14.99,17 C15.38,16.61 15.38,15.98 14.99,15.58 L11.39,12 Z M10.98,5.83 L12.86,7.71 L10.98,9.59 L10.98,5.83 Z M10.98,18.17 L10.98,14.41 L12.86,16.29 L10.98,18.17 Z" id="🔹-Icon-Color" fill="#1D1D1D"></path>
                    </g>
                </g>
            </g>
        </g>
    </g>
</svg>