<?xml version="1.0" encoding="UTF-8"?>
<svg width="20px" height="20px" viewBox="0 0 20 20" version="1.1" xmlns="http://www.w3.org/2000/svg" xmlns:xlink="http://www.w3.org/1999/xlink">
    <!-- Generator: Sketch 52.5 (67469) - http://www.bohemiancoding.com/sketch -->
    <title>blur_off</title>
    <desc>Created with Sketch.</desc>
    <g id="Icons" stroke="none" stroke-width="1" fill="none" fill-rule="evenodd">
        <g id="Rounded" transform="translate(-408.000000, -2682.000000)">
            <g id="Image" transform="translate(100.000000, 2626.000000)">
                <g id="-Round-/-Image-/-blur_off" transform="translate(306.000000, 54.000000)">
                    <g>
                        <polygon id="Path" points="0 0 24 0 24 24 0 24"></polygon>
                        <path d="M14,7 C13.4477153,7 13,6.55228475 13,6 C13,5.44771525 13.4477153,5 14,5 C14.5522847,5 15,5.44771525 15,6 C15,6.55228475 14.5522847,7 14,7 Z M13.8,11.48 C13.13,11.39 12.61,10.87 12.52,10.2 L12.5,10 C12.5,9.17 13.17,8.5 14,8.5 C14.83,8.5 15.5,9.17 15.5,10 C15.5,10.83 14.83,11.5 14,11.5 L13.8,11.48 Z M14,3.5 C13.72,3.5 13.5,3.28 13.5,3 C13.5,2.72 13.72,2.5 14,2.5 C14.28,2.5 14.5,2.72 14.5,3 C14.5,3.28 14.28,3.5 14,3.5 Z M10,3.5 C9.72,3.5 9.5,3.28 9.5,3 C9.5,2.72 9.72,2.5 10,2.5 C10.28,2.5 10.5,2.72 10.5,3 C10.5,3.28 10.28,3.5 10,3.5 Z M18,11 C17.4477153,11 17,10.5522847 17,10 C17,9.44771525 17.4477153,9 18,9 C18.5522847,9 19,9.44771525 19,10 C19,10.5522847 18.5522847,11 18,11 Z M18,7 C17.4477153,7 17,6.55228475 17,6 C17,5.44771525 17.4477153,5 18,5 C18.5522847,5 19,5.44771525 19,6 C19,6.55228475 18.5522847,7 18,7 Z M21,10.5 C20.72,10.5 20.5,10.28 20.5,10 C20.5,9.72 20.72,9.5 21,9.5 C21.28,9.5 21.5,9.72 21.5,10 C21.5,10.28 21.28,10.5 21,10.5 Z M10,7 C9.44771525,7 9,6.55228475 9,6 C9,5.44771525 9.44771525,5 10,5 C10.5522847,5 11,5.44771525 11,6 C11,6.55228475 10.5522847,7 10,7 Z M18,15 C17.4477153,15 17,14.5522847 17,14 C17,13.4477153 17.4477153,13 18,13 C18.5522847,13 19,13.4477153 19,14 C19,14.5522847 18.5522847,15 18,15 Z M6,19 C5.44771525,19 5,18.5522847 5,18 C5,17.4477153 5.44771525,17 6,17 C6.55228475,17 7,17.4477153 7,18 C7,18.5522847 6.55228475,19 6,19 Z M14,20.5 C14.28,20.5 14.5,20.72 14.5,21 C14.5,21.28 14.28,21.5 14,21.5 C13.72,21.5 13.5,21.28 13.5,21 C13.5,20.72 13.72,20.5 14,20.5 Z M21,13.5 C21.28,13.5 21.5,13.72 21.5,14 C21.5,14.28 21.28,14.5 21,14.5 C20.72,14.5 20.5,14.28 20.5,14 C20.5,13.72 20.72,13.5 21,13.5 Z M3,13.5 C3.28,13.5 3.5,13.72 3.5,14 C3.5,14.28 3.28,14.5 3,14.5 C2.72,14.5 2.5,14.28 2.5,14 C2.5,13.72 2.72,13.5 3,13.5 Z M10,19 C9.44771525,19 9,18.5522847 9,18 C9,17.4477153 9.44771525,17 10,17 C10.5522847,17 11,17.4477153 11,18 C11,18.5522847 10.5522847,19 10,19 Z M3,9.5 C3.28,9.5 3.5,9.72 3.5,10 C3.5,10.28 3.28,10.5 3,10.5 C2.72,10.5 2.5,10.28 2.5,10 C2.5,9.72 2.72,9.5 3,9.5 Z M10,20.5 C10.28,20.5 10.5,20.72 10.5,21 C10.5,21.28 10.28,21.5 10,21.5 C9.72,21.5 9.5,21.28 9.5,21 C9.5,20.72 9.72,20.5 10,20.5 Z M6,15 C5.44771525,15 5,14.5522847 5,14 C5,13.4477153 5.44771525,13 6,13 C6.55228475,13 7,13.4477153 7,14 C7,14.5522847 6.55228475,15 6,15 Z M3.21,4.56 C3.6,4.17 4.23,4.17 4.62,4.56 L19.43,19.37 C19.82,19.77 19.82,20.4 19.43,20.79 C19.04,21.18 18.41,21.18 18.02,20.79 L14.94,17.72 C14.97,17.81 15,17.9 15,18 C15,18.55 14.55,19 14,19 C13.45,19 13,18.55 13,18 C13,17.45 13.45,17 14,17 C14.1,17 14.19,17.03 14.28,17.06 L11.47,14.25 C11.36,14.96 10.74,15.5 10,15.5 C9.17,15.5 8.5,14.83 8.5,14 C8.5,13.26 9.04,12.64 9.75,12.53 L6.94,9.72 C6.97,9.81 7,9.9 7,10 C7,10.55 6.55,11 6,11 C5.45,11 5,10.55 5,10 C5,9.45 5.45,9 6,9 L6.28,9.04 L3.21,5.97 C2.82,5.58 2.82,4.95 3.21,4.56 Z" id="🔹-Icon-Color" fill="#1D1D1D"></path>
                    </g>
                </g>
            </g>
        </g>
    </g>
</svg>