<?xml version="1.0" encoding="UTF-8"?>
<svg width="18px" height="18px" viewBox="0 0 18 18" version="1.1" xmlns="http://www.w3.org/2000/svg" xmlns:xlink="http://www.w3.org/1999/xlink">
    <!-- Generator: Sketch 52.5 (67469) - http://www.bohemiancoding.com/sketch -->
    <title>border_all</title>
    <desc>Created with Sketch.</desc>
    <g id="Icons" stroke="none" stroke-width="1" fill="none" fill-rule="evenodd">
        <g id="Rounded" transform="translate(-749.000000, -2017.000000)">
            <g id="Editor" transform="translate(100.000000, 1960.000000)">
                <g id="-Round-/-Editor-/-border_all" transform="translate(646.000000, 54.000000)">
                    <g>
                        <polygon id="Path" points="0 0 24 0 24 24 0 24"></polygon>
                        <path d="M3,5 L3,19 C3,20.1 3.9,21 5,21 L19,21 C20.1,21 21,20.1 21,19 L21,5 C21,3.9 20.1,3 19,3 L5,3 C3.9,3 3,3.9 3,5 Z M11,19 L6,19 C5.45,19 5,18.55 5,18 L5,13 L10,13 C10.55,13 11,13.45 11,14 L11,19 Z M10,11 L5,11 L5,6 C5,5.45 5.45,5 6,5 L11,5 L11,10 C11,10.55 10.55,11 10,11 Z M18,19 L13,19 L13,14 C13,13.45 13.45,13 14,13 L19,13 L19,18 C19,18.55 18.55,19 18,19 Z M19,11 L14,11 C13.45,11 13,10.55 13,10 L13,5 L18,5 C18.55,5 19,5.45 19,6 L19,11 Z" id="🔹-Icon-Color" fill="#1D1D1D"></path>
                    </g>
                </g>
            </g>
        </g>
    </g>
</svg>