<?xml version="1.0" encoding="UTF-8"?>
<svg width="18px" height="18px" viewBox="0 0 18 18" version="1.1" xmlns="http://www.w3.org/2000/svg" xmlns:xlink="http://www.w3.org/1999/xlink">
    <!-- Generator: Sketch 52.5 (67469) - http://www.bohemiancoding.com/sketch -->
    <title>border_style</title>
    <desc>Created with Sketch.</desc>
    <g id="Icons" stroke="none" stroke-width="1" fill="none" fill-rule="evenodd">
        <g id="Two-Tone" transform="translate(-511.000000, -2017.000000)">
            <g id="Editor" transform="translate(100.000000, 1960.000000)">
                <g id="Two-Tone-/-Editor-/-border_style" transform="translate(408.000000, 54.000000)">
                    <g>
                        <polygon id="Path" points="0 0 24 0 24 24 0 24"></polygon>
                        <path d="M19,19 L21,19 L21,21 L19,21 L19,19 Z M19,11 L21,11 L21,13 L19,13 L19,11 Z M19,15 L21,15 L21,17 L19,17 L19,15 Z M15,19 L17,19 L17,21 L15,21 L15,19 Z M3,21 L5,21 L5,5 L21,5 L21,3 L3,3 L3,21 Z M19,7 L21,7 L21,9 L19,9 L19,7 Z M11,19 L13,19 L13,21 L11,21 L11,19 Z M7,19 L9,19 L9,21 L7,21 L7,19 Z" id="🔹-Primary-Color" fill="#1D1D1D"></path>
                    </g>
                </g>
            </g>
        </g>
    </g>
</svg>