<?xml version="1.0" encoding="UTF-8"?>
<svg width="18px" height="18px" viewBox="0 0 18 18" version="1.1" xmlns="http://www.w3.org/2000/svg" xmlns:xlink="http://www.w3.org/1999/xlink">
    <!-- Generator: Sketch 52.5 (67469) - http://www.bohemiancoding.com/sketch -->
    <title>border_right</title>
    <desc>Created with Sketch.</desc>
    <g id="Icons" stroke="none" stroke-width="1" fill="none" fill-rule="evenodd">
        <g id="Rounded" transform="translate(-477.000000, -2017.000000)">
            <g id="Editor" transform="translate(100.000000, 1960.000000)">
                <g id="-Round-/-Editor-/-border_right" transform="translate(374.000000, 54.000000)">
                    <g>
                        <polygon id="Path" points="0 0 24 0 24 24 0 24"></polygon>
                        <path d="M7,21 L9,21 L9,19 L7,19 L7,21 Z M3,5 L5,5 L5,3 L3,3 L3,5 Z M7,5 L9,5 L9,3 L7,3 L7,5 Z M7,13 L9,13 L9,11 L7,11 L7,13 Z M3,21 L5,21 L5,19 L3,19 L3,21 Z M11,21 L13,21 L13,19 L11,19 L11,21 Z M3,13 L5,13 L5,11 L3,11 L3,13 Z M3,17 L5,17 L5,15 L3,15 L3,17 Z M3,9 L5,9 L5,7 L3,7 L3,9 Z M11,17 L13,17 L13,15 L11,15 L11,17 Z M15,13 L17,13 L17,11 L15,11 L15,13 Z M19,4 L19,20 C19,20.55 19.45,21 20,21 C20.55,21 21,20.55 21,20 L21,4 C21,3.45 20.55,3 20,3 C19.45,3 19,3.45 19,4 Z M15,21 L17,21 L17,19 L15,19 L15,21 Z M15,5 L17,5 L17,3 L15,3 L15,5 Z M11,13 L13,13 L13,11 L11,11 L11,13 Z M11,5 L13,5 L13,3 L11,3 L11,5 Z M11,9 L13,9 L13,7 L11,7 L11,9 Z" id="🔹-Icon-Color" fill="#1D1D1D"></path>
                    </g>
                </g>
            </g>
        </g>
    </g>
</svg>