<?xml version="1.0" encoding="UTF-8"?>
<svg width="18px" height="18px" viewBox="0 0 18 18" version="1.1" xmlns="http://www.w3.org/2000/svg" xmlns:xlink="http://www.w3.org/1999/xlink">
    <!-- Generator: Sketch 52.5 (67469) - http://www.bohemiancoding.com/sketch -->
    <title>border_all</title>
    <desc>Created with Sketch.</desc>
    <g id="Icons" stroke="none" stroke-width="1" fill="none" fill-rule="evenodd">
        <g id="Two-Tone" transform="translate(-817.000000, -2017.000000)">
            <g id="Editor" transform="translate(100.000000, 1960.000000)">
                <g id="Two-Tone-/-Editor-/-border_all" transform="translate(714.000000, 54.000000)">
                    <g>
                        <polygon id="Path" points="0 0 24 0 24 24 0 24"></polygon>
                        <path d="M21,3 L3,3 L3,21 L21,21 L21,3 Z M11,19 L5,19 L5,13 L11,13 L11,19 Z M11,11 L5,11 L5,5 L11,5 L11,11 Z M19,19 L13,19 L13,13 L19,13 L19,19 Z M19,11 L13,11 L13,5 L19,5 L19,11 Z" id="🔹-Primary-Color" fill="#1D1D1D"></path>
                    </g>
                </g>
            </g>
        </g>
    </g>
</svg>