<?xml version="1.0" encoding="UTF-8"?>
<svg width="18px" height="18px" viewBox="0 0 18 18" version="1.1" xmlns="http://www.w3.org/2000/svg" xmlns:xlink="http://www.w3.org/1999/xlink">
    <!-- Generator: Sketch 52.5 (67469) - http://www.bohemiancoding.com/sketch -->
    <title>border_outer</title>
    <desc>Created with Sketch.</desc>
    <g id="Icons" stroke="none" stroke-width="1" fill="none" fill-rule="evenodd">
        <g id="Outlined" transform="translate(-647.000000, -2017.000000)">
            <g id="Editor" transform="translate(100.000000, 1960.000000)">
                <g id="Outlined-/-Editor-/-border_outer" transform="translate(544.000000, 54.000000)">
                    <g>
                        <polygon id="Path" points="0 0 24 0 24 24 0 24"></polygon>
                        <path d="M13,7 L11,7 L11,9 L13,9 L13,7 Z M13,11 L11,11 L11,13 L13,13 L13,11 Z M17,11 L15,11 L15,13 L17,13 L17,11 Z M3,3 L3,21 L21,21 L21,3 L3,3 Z M19,19 L5,19 L5,5 L19,5 L19,19 Z M13,15 L11,15 L11,17 L13,17 L13,15 Z M9,11 L7,11 L7,13 L9,13 L9,11 Z" id="🔹-Icon-Color" fill="#1D1D1D"></path>
                    </g>
                </g>
            </g>
        </g>
    </g>
</svg>