<?xml version="1.0" encoding="UTF-8"?>
<svg width="13px" height="20px" viewBox="0 0 13 20" version="1.1" xmlns="http://www.w3.org/2000/svg" xmlns:xlink="http://www.w3.org/1999/xlink">
    <!-- Generator: Sketch 52.5 (67469) - http://www.bohemiancoding.com/sketch -->
    <title>brightness_3</title>
    <desc>Created with Sketch.</desc>
    <g id="Icons" stroke="none" stroke-width="1" fill="none" fill-rule="evenodd">
        <g id="Two-Tone" transform="translate(-446.000000, -2682.000000)">
            <g id="Image" transform="translate(100.000000, 2626.000000)">
                <g id="Two-Tone-/-Image-/-brightness_3" transform="translate(340.000000, 54.000000)">
                    <g>
                        <polygon id="Path" points="0 0 24 0 24 24 0 24"></polygon>
                        <path d="M12.7,4.91 C14.16,6.91 15,9.37 15,12 C15,14.63 14.16,17.09 12.7,19.09 C15.25,17.76 17,15.08 17,12 C17,8.92 15.25,6.24 12.7,4.91 Z" id="🔹-Secondary-Color" fill="#D0D0D0"></path>
                        <path d="M9,2 C7.95,2 6.95,2.16 6,2.46 C10.06,3.73 13,7.52 13,12 C13,16.48 10.06,20.27 6,21.54 C6.95,21.84 7.95,22 9,22 C14.52,22 19,17.52 19,12 C19,6.48 14.52,2 9,2 Z M12.7,19.09 C14.16,17.09 15,14.63 15,12 C15,9.37 14.16,6.91 12.7,4.91 C15.25,6.24 17,8.92 17,12 C17,15.08 15.25,17.76 12.7,19.09 Z" id="🔹-Primary-Color" fill="#1D1D1D"></path>
                    </g>
                </g>
            </g>
        </g>
    </g>
</svg>