<?xml version="1.0" encoding="UTF-8"?>
<svg width="24px" height="24px" viewBox="0 0 24 24" version="1.1" xmlns="http://www.w3.org/2000/svg" xmlns:xlink="http://www.w3.org/1999/xlink">
    <!-- Generator: Sketch 52.5 (67469) - http://www.bohemiancoding.com/sketch -->
    <title>brightness_7</title>
    <desc>Created with Sketch.</desc>
    <g id="Icons" stroke="none" stroke-width="1" fill="none" fill-rule="evenodd">
        <g id="Two-Tone" transform="translate(-304.000000, -2680.000000)">
            <g id="Image" transform="translate(100.000000, 2626.000000)">
                <g id="Two-Tone-/-Image-/-brightness_7" transform="translate(204.000000, 54.000000)">
                    <g>
                        <polygon id="Path" points="0 0 24 0 24 24 0 24"></polygon>
                        <path d="M18,9.52 L18,6 L14.48,6 L12,3.52 L9.52,6 L6,6 L6,9.52 L3.52,12 L6,14.48 L6,18 L9.52,18 L12,20.48 L14.48,18 L18,18 L18,14.48 L20.48,12 L18,9.52 Z M12,17.5 C8.97,17.5 6.5,15.03 6.5,12 C6.5,8.97 8.97,6.5 12,6.5 C15.03,6.5 17.5,8.97 17.5,12 C17.5,15.03 15.03,17.5 12,17.5 Z" id="🔹-Secondary-Color" fill="#D0D0D0"></path>
                        <path d="M20,8.69 L23.31,12 L20,15.31 L20,20 L15.31,20 L12,23.31 L8.69,20 L4,20 L4,15.31 L0.69,12 L4,8.69 L4,4 L8.69,4 L12,0.69 L15.31,4 L20,4 L20,8.69 Z M18,14.48 L20.48,12 L18,9.52 L18,6 L14.48,6 L12,3.52 L9.52,6 L6,6 L6,9.52 L3.52,12 L6,14.48 L6,18 L9.52,18 L12,20.48 L14.48,18 L18,18 L18,14.48 Z M12,6.5 C15.03,6.5 17.5,8.97 17.5,12 C17.5,15.03 15.03,17.5 12,17.5 C8.97,17.5 6.5,15.03 6.5,12 C6.5,8.97 8.97,6.5 12,6.5 Z M12,15.5 C13.93,15.5 15.5,13.93 15.5,12 C15.5,10.07 13.93,8.5 12,8.5 C10.07,8.5 8.5,10.07 8.5,12 C8.5,13.93 10.07,15.5 12,15.5 Z M12,14 C10.8954305,14 10,13.1045695 10,12 C10,10.8954305 10.8954305,10 12,10 C13.1045695,10 14,10.8954305 14,12 C14,13.1045695 13.1045695,14 12,14 Z" id="🔹-Primary-Color" fill="#1D1D1D"></path>
                    </g>
                </g>
            </g>
        </g>
    </g>
</svg>