<?xml version="1.0" encoding="UTF-8"?>
<svg width="22px" height="22px" viewBox="0 0 22 22" version="1.1" xmlns="http://www.w3.org/2000/svg" xmlns:xlink="http://www.w3.org/1999/xlink">
    <!-- Generator: Sketch 52.5 (67469) - http://www.bohemiancoding.com/sketch -->
    <title>brightness_low</title>
    <desc>Created with Sketch.</desc>
    <g id="Icons" stroke="none" stroke-width="1" fill="none" fill-rule="evenodd">
        <g id="Rounded" transform="translate(-577.000000, -1793.000000)">
            <g id="Device" transform="translate(100.000000, 1650.000000)">
                <g id="-Round-/-Device-/-brightness_low" transform="translate(476.000000, 142.000000)">
                    <g>
                        <polygon id="Path" points="0 0 24 0 24 24 0 24"></polygon>
                        <path d="M20,15.31 L21.9,13.41 C22.68,12.63 22.68,11.36 21.9,10.58 L20,8.69 L20,6 C20,4.9 19.1,4 18,4 L15.31,4 L13.41,2.1 C12.63,1.32 11.36,1.32 10.58,2.1 L8.69,4 L6,4 C4.9,4 4,4.9 4,6 L4,8.69 L2.1,10.59 C1.32,11.37 1.32,12.64 2.1,13.42 L4,15.32 L4,18 C4,19.1 4.9,20 6,20 L8.69,20 L10.59,21.9 C11.37,22.68 12.64,22.68 13.42,21.9 L15.32,20 L18,20 C19.1,20 20,19.1 20,18 L20,15.31 Z M12,18 C8.69,18 6,15.31 6,12 C6,8.69 8.69,6 12,6 C15.31,6 18,8.69 18,12 C18,15.31 15.31,18 12,18 Z" id="🔹Icon-Color" fill="#1D1D1D"></path>
                    </g>
                </g>
            </g>
        </g>
    </g>
</svg>