<?xml version="1.0" encoding="UTF-8"?>
<svg width="24px" height="24px" viewBox="0 0 24 24" version="1.1" xmlns="http://www.w3.org/2000/svg" xmlns:xlink="http://www.w3.org/1999/xlink">
    <!-- Generator: Sketch 52.5 (67469) - http://www.bohemiancoding.com/sketch -->
    <title>brightness_low</title>
    <desc>Created with Sketch.</desc>
    <g id="Icons" stroke="none" stroke-width="1" fill="none" fill-rule="evenodd">
        <g id="Outlined" transform="translate(-746.000000, -1748.000000)">
            <g id="Device" transform="translate(100.000000, 1650.000000)">
                <g id="Outlined-/-Device-/-brightness_low" transform="translate(646.000000, 98.000000)">
                    <g>
                        <polygon id="Path" points="0 0 24 0 24 24 0 24"></polygon>
                        <path d="M20,8.69 L20,4 L15.31,4 L12,0.69 L8.69,4 L4,4 L4,8.69 L0.69,12 L4,15.31 L4,20 L8.69,20 L12,23.31 L15.31,20 L20,20 L20,15.31 L23.31,12 L20,8.69 Z M18,14.48 L18,18 L14.48,18 L12,20.48 L9.52,18 L6,18 L6,14.48 L3.52,12 L6,9.52 L6,6 L9.52,6 L12,3.52 L14.48,6 L18,6 L18,9.52 L20.48,12 L18,14.48 Z M12,6 C8.69,6 6,8.69 6,12 C6,15.31 8.69,18 12,18 C15.31,18 18,15.31 18,12 C18,8.69 15.31,6 12,6 Z M12,16 C9.79,16 8,14.21 8,12 C8,9.79 9.79,8 12,8 C14.21,8 16,9.79 16,12 C16,14.21 14.21,16 12,16 Z" id="🔹-Icon-Color" fill="#1D1D1D"></path>
                    </g>
                </g>
            </g>
        </g>
    </g>
</svg>