<?xml version="1.0" encoding="UTF-8"?>
<svg width="15px" height="20px" viewBox="0 0 15 20" version="1.1" xmlns="http://www.w3.org/2000/svg" xmlns:xlink="http://www.w3.org/1999/xlink">
    <!-- Generator: Sketch 52.5 (67469) - http://www.bohemiancoding.com/sketch -->
    <title>brightness_2</title>
    <desc>Created with Sketch.</desc>
    <g id="Icons" stroke="none" stroke-width="1" fill="none" fill-rule="evenodd">
        <g id="Rounded" transform="translate(-309.000000, -2682.000000)">
            <g id="Image" transform="translate(100.000000, 2626.000000)">
                <g id="-Round-/-Image-/-brightness_2" transform="translate(204.000000, 54.000000)">
                    <g>
                        <polygon id="Path" points="0 0 24 0 24 24 0 24"></polygon>
                        <path d="M12.43,2.3 C10.05,1.71 7.75,2.03 5.8,2.94 C5.45,3.1 5.39,3.58 5.7,3.8 C8.3,5.6 10,8.6 10,12 C10,15.4 8.3,18.4 5.7,20.2 C5.38,20.42 5.44,20.9 5.79,21.06 C7.07,21.66 8.5,22 10,22 C16.05,22 20.85,16.62 19.87,10.4 C19.26,6.48 16.28,3.24 12.43,2.3 Z" id="🔹-Icon-Color" fill="#1D1D1D"></path>
                    </g>
                </g>
            </g>
        </g>
    </g>
</svg>