<?xml version="1.0" encoding="UTF-8"?>
<svg width="12px" height="20px" viewBox="0 0 12 20" version="1.1" xmlns="http://www.w3.org/2000/svg" xmlns:xlink="http://www.w3.org/1999/xlink">
    <!-- Generator: Sketch 52.5 (67469) - http://www.bohemiancoding.com/sketch -->
    <title>brightness_3</title>
    <desc>Created with Sketch.</desc>
    <g id="Icons" stroke="none" stroke-width="1" fill="none" fill-rule="evenodd">
        <g id="Rounded" transform="translate(-277.000000, -2682.000000)">
            <g id="Image" transform="translate(100.000000, 2626.000000)">
                <g id="-Round-/-Image-/-brightness_3" transform="translate(170.000000, 54.000000)">
                    <g>
                        <polygon id="Path" points="0 0 24 0 24 24 0 24"></polygon>
                        <path d="M18.87,10.37 C18.12,5.61 13.87,2.02 9.05,2 C8.56,2 8.08,2.03 7.61,2.1 C7.11,2.17 7.01,2.83 7.47,3.06 C10.75,4.69 13,8.08 13,12 C13,15.92 10.75,19.31 7.47,20.95 C7.02,21.18 7.11,21.84 7.61,21.91 C8.08,21.97 8.56,22 9.05,22 C13.87,21.98 18.12,18.39 18.87,13.63 C18.96,13.08 18.98,12.54 18.98,12 C18.98,11.46 18.96,10.92 18.87,10.37 Z" id="🔹-Icon-Color" fill="#1D1D1D"></path>
                    </g>
                </g>
            </g>
        </g>
    </g>
</svg>