<?xml version="1.0" encoding="UTF-8"?>
<svg width="18px" height="18px" viewBox="0 0 18 18" version="1.1" xmlns="http://www.w3.org/2000/svg" xmlns:xlink="http://www.w3.org/1999/xlink">
    <!-- Generator: Sketch 52.5 (67469) - http://www.bohemiancoding.com/sketch -->
    <title>broken_image</title>
    <desc>Created with Sketch.</desc>
    <g id="Icons" stroke="none" stroke-width="1" fill="none" fill-rule="evenodd">
        <g id="Two-Tone" transform="translate(-273.000000, -2683.000000)">
            <g id="Image" transform="translate(100.000000, 2626.000000)">
                <g id="Two-Tone-/-Image-/-broken_image" transform="translate(170.000000, 54.000000)">
                    <g>
                        <polygon id="Path" points="0 0 24 0 24 24 0 24"></polygon>
                        <path d="M13.99,15.41 L9.99,11.41 L5.99,15.41 L5,14.42 L5,19 L19,19 L19,12.43 L17.99,11.42 L13.99,15.41 Z M5,11.59 L5.99,12.59 L9.99,8.59 L13.99,12.59 L17.99,8.58 L19,9.59 L19,5 L5,5 L5,11.59 Z" id="🔹-Secondary-Color" fill="#D0D0D0"></path>
                        <path d="M19,3 L5,3 C3.9,3 3,3.9 3,5 L3,19 C3,20.1 3.9,21 5,21 L19,21 C20.1,21 21,20.1 21,19 L21,5 C21,3.9 20.1,3 19,3 Z M19,19 L5,19 L5,14.42 L5.99,15.41 L9.99,11.41 L13.99,15.41 L17.99,11.42 L19,12.43 L19,19 Z M19,9.59 L17.99,8.58 L13.99,12.59 L9.99,8.59 L5.99,12.59 L5,11.59 L5,5 L19,5 L19,9.59 Z" id="🔹-Primary-Color" fill="#1D1D1D"></path>
                    </g>
                </g>
            </g>
        </g>
    </g>
</svg>