<?xml version="1.0" encoding="UTF-8"?>
<svg width="16px" height="18px" viewBox="0 0 16 18" version="1.1" xmlns="http://www.w3.org/2000/svg" xmlns:xlink="http://www.w3.org/1999/xlink">
    <!-- Generator: Sketch 52.5 (67469) - http://www.bohemiancoding.com/sketch -->
    <title>bug_report</title>
    <desc>Created with Sketch.</desc>
    <g id="Icons" stroke="none" stroke-width="1" fill="none" fill-rule="evenodd">
        <g id="Rounded" transform="translate(-206.000000, -201.000000)">
            <g id="Action" transform="translate(100.000000, 100.000000)">
                <g id="-Round-/-Action-/-bug_report" transform="translate(102.000000, 98.000000)">
                    <g>
                        <polygon id="Path" points="0 0 24 0 24 24 0 24"></polygon>
                        <path d="M19,8 L17.19,8 C16.74,7.22 16.12,6.55 15.37,6.04 L16.3,5.11 C16.69,4.72 16.69,4.09 16.3,3.7 C15.91,3.31 15.28,3.31 14.89,3.7 L13.42,5.17 C12.96,5.06 12.49,5 12,5 C11.51,5 11.04,5.06 10.59,5.17 L9.11,3.7 C8.72,3.31 8.09,3.31 7.7,3.7 C7.31,4.09 7.31,4.72 7.7,5.11 L8.62,6.04 C7.88,6.55 7.26,7.22 6.81,8 L5,8 C4.45,8 4,8.45 4,9 C4,9.55 4.45,10 5,10 L6.09,10 C6.04,10.33 6,10.66 6,11 L6,12 L5,12 C4.45,12 4,12.45 4,13 C4,13.55 4.45,14 5,14 L6,14 L6,15 C6,15.34 6.04,15.67 6.09,16 L5,16 C4.45,16 4,16.45 4,17 C4,17.55 4.45,18 5,18 L6.81,18 C7.85,19.79 9.78,21 12,21 C14.22,21 16.15,19.79 17.19,18 L19,18 C19.55,18 20,17.55 20,17 C20,16.45 19.55,16 19,16 L17.91,16 C17.96,15.67 18,15.34 18,15 L18,14 L19,14 C19.55,14 20,13.55 20,13 C20,12.45 19.55,12 19,12 L18,12 L18,11 C18,10.66 17.96,10.33 17.91,10 L19,10 C19.55,10 20,9.55 20,9 C20,8.45 19.55,8 19,8 Z M13,16 L11,16 C10.45,16 10,15.55 10,15 C10,14.45 10.45,14 11,14 L13,14 C13.55,14 14,14.45 14,15 C14,15.55 13.55,16 13,16 Z M13,12 L11,12 C10.45,12 10,11.55 10,11 C10,10.45 10.45,10 11,10 L13,10 C13.55,10 14,10.45 14,11 C14,11.55 13.55,12 13,12 Z" id="🔹Icon-Color" fill="#1D1D1D"></path>
                    </g>
                </g>
            </g>
        </g>
    </g>
</svg>