<?xml version="1.0" encoding="UTF-8"?>
<svg width="22px" height="18px" viewBox="0 0 22 18" version="1.1" xmlns="http://www.w3.org/2000/svg" xmlns:xlink="http://www.w3.org/1999/xlink">
    <!-- Generator: Sketch 52.5 (67469) - http://www.bohemiancoding.com/sketch -->
    <title>call_to_action</title>
    <desc>Created with Sketch.</desc>
    <g id="Icons" stroke="none" stroke-width="1" fill="none" fill-rule="evenodd">
        <g id="Two-Tone" transform="translate(-679.000000, -909.000000)">
            <g id="AV" transform="translate(100.000000, 852.000000)">
                <g id="Two-Tone-/-AV-/-call_to_action" transform="translate(578.000000, 54.000000)">
                    <g>
                        <polygon id="Path" points="0 0 24 0 24 24 0 24"></polygon>
                        <path d="M3,19 L21,19 L21,5 L3,5 L3,19 Z M5,15 L19,15 L19,18 L5,18 L5,15 Z" id="🔹-Secondary-Color" fill="#D0D0D0"></path>
                        <path d="M21,3 L3,3 C1.9,3 1,3.9 1,5 L1,19 C1,20.1 1.9,21 3,21 L21,21 C22.1,21 23,20.1 23,19 L23,5 C23,3.9 22.1,3 21,3 Z M21,19 L3,19 L3,5 L21,5 L21,19 Z M5,15 L19,15 L19,18 L5,18 L5,15 Z" id="🔹-Primary-Color" fill="#1D1D1D"></path>
                    </g>
                </g>
            </g>
        </g>
    </g>
</svg>