<?xml version="1.0" encoding="UTF-8"?>
<svg width="20px" height="21px" viewBox="0 0 20 21" version="1.1" xmlns="http://www.w3.org/2000/svg" xmlns:xlink="http://www.w3.org/1999/xlink">
    <!-- Generator: Sketch 52.5 (67469) - http://www.bohemiancoding.com/sketch -->
    <title>camera_roll</title>
    <desc>Created with Sketch.</desc>
    <g id="Icons" stroke="none" stroke-width="1" fill="none" fill-rule="evenodd">
        <g id="Rounded" transform="translate(-136.000000, -2769.000000)">
            <g id="Image" transform="translate(100.000000, 2626.000000)">
                <g id="-Round-/-Image-/-camera_roll" transform="translate(34.000000, 142.000000)">
                    <g>
                        <polygon id="Path" points="0 0 24 0 24 24 0 24"></polygon>
                        <path d="M14,5 C14,3.9 13.1,3 12,3 L11,3 L11,2 C11,1.45 10.55,1 10,1 L6,1 C5.45,1 5,1.45 5,2 L5,3 L4,3 C2.9,3 2,3.9 2,5 L2,20 C2,21.1 2.9,22 4,22 L12,22 C13.1,22 14,21.1 14,20 L20,20 C21.1,20 22,19.1 22,18 L22,7 C22,5.9 21.1,5 20,5 L14,5 Z M12,18 L10,18 L10,16 L12,16 L12,18 Z M12,9 L10,9 L10,7 L12,7 L12,9 Z M16,18 L14,18 L14,16 L16,16 L16,18 Z M16,9 L14,9 L14,7 L16,7 L16,9 Z M20,18 L18,18 L18,16 L20,16 L20,18 Z M20,9 L18,9 L18,7 L20,7 L20,9 Z" id="🔹-Icon-Color" fill="#1D1D1D"></path>
                    </g>
                </g>
            </g>
        </g>
    </g>
</svg>