<?xml version="1.0" encoding="UTF-8"?>
<svg width="14px" height="24px" viewBox="0 0 14 24" version="1.1" xmlns="http://www.w3.org/2000/svg" xmlns:xlink="http://www.w3.org/1999/xlink">
    <!-- Generator: Sketch 52.5 (67469) - http://www.bohemiancoding.com/sketch -->
    <title>camera_front</title>
    <desc>Created with Sketch.</desc>
    <g id="Icons" stroke="none" stroke-width="1" fill="none" fill-rule="evenodd">
        <g id="Outlined" transform="translate(-207.000000, -2680.000000)">
            <g id="Image" transform="translate(100.000000, 2626.000000)">
                <g id="Outlined-/-Image-/-camera_front" transform="translate(102.000000, 54.000000)">
                    <g>
                        <polygon id="Path" points="0 0 24 0 24 24 0 24"></polygon>
                        <path d="M5,20 L5,22 L10,22 L10,24 L13,21 L10,18 L10,20 L5,20 Z M14,20 L19,20 L19,22 L14,22 L14,20 Z M11.99,8 C13.1,8 14,7.1 14,6 C14,4.9 13.1,4 11.99,4 C10.88,4 10,4.9 10,6 C10,7.1 10.89,8 11.99,8 Z M17,0 L7,0 C5.9,0 5,0.9 5,2 L5,16 C5,17.1 5.9,18 7,18 L17,18 C18.1,18 19,17.1 19,16 L19,2 C19,0.9 18.1,0 17,0 Z M17,16 L7,16 L7,14 L17,14 L17,16 Z M17,12.5 C17,10.83 13.67,10 12,10 C10.33,10 7,10.83 7,12.5 L7,2 L17,2 L17,12.5 Z" id="🔹-Icon-Color" fill="#1D1D1D"></path>
                    </g>
                </g>
            </g>
        </g>
    </g>
</svg>