<?xml version="1.0" encoding="UTF-8"?>
<svg width="20px" height="20px" viewBox="0 0 20 20" version="1.1" xmlns="http://www.w3.org/2000/svg" xmlns:xlink="http://www.w3.org/1999/xlink">
    <!-- Generator: Sketch 52.5 (67469) - http://www.bohemiancoding.com/sketch -->
    <title>cancel</title>
    <desc>Created with Sketch.</desc>
    <g id="Icons" stroke="none" stroke-width="1" fill="none" fill-rule="evenodd">
        <g id="Two-Tone" transform="translate(-272.000000, -3434.000000)">
            <g id="Navigation" transform="translate(100.000000, 3378.000000)">
                <g id="Two-Tone-/-Navigation-/-cancel" transform="translate(170.000000, 54.000000)">
                    <g>
                        <polygon id="Path" opacity="0.87" points="0 0 24 0 24 24 0 24"></polygon>
                        <path d="M12,4 C7.59,4 4,7.59 4,12 C4,16.41 7.59,20 12,20 C16.41,20 20,16.41 20,12 C20,7.59 16.41,4 12,4 Z M17,15.59 L15.59,17 L12,13.41 L8.41,17 L7,15.59 L10.59,12 L7,8.41 L8.41,7 L12,10.59 L15.59,7 L17,8.41 L13.41,12 L17,15.59 Z" id="🔹-Secondary-Color" fill="#D0D0D0"></path>
                        <path d="M12,2 C6.47,2 2,6.47 2,12 C2,17.53 6.47,22 12,22 C17.53,22 22,17.53 22,12 C22,6.47 17.53,2 12,2 Z M12,20 C7.59,20 4,16.41 4,12 C4,7.59 7.59,4 12,4 C16.41,4 20,7.59 20,12 C20,16.41 16.41,20 12,20 Z M15.59,7 L12,10.59 L8.41,7 L7,8.41 L10.59,12 L7,15.59 L8.41,17 L12,13.41 L15.59,17 L17,15.59 L13.41,12 L17,8.41 L15.59,7 Z" id="🔹-Primary-Color" fill="#1D1D1D"></path>
                    </g>
                </g>
            </g>
        </g>
    </g>
</svg>