<?xml version="1.0" encoding="UTF-8"?>
<svg width="20px" height="20px" viewBox="0 0 20 20" version="1.1" xmlns="http://www.w3.org/2000/svg" xmlns:xlink="http://www.w3.org/1999/xlink">
    <!-- Generator: Sketch 52.5 (67469) - http://www.bohemiancoding.com/sketch -->
    <title>card_membership</title>
    <desc>Created with Sketch.</desc>
    <g id="Icons" stroke="none" stroke-width="1" fill="none" fill-rule="evenodd">
        <g id="Outlined" transform="translate(-918.000000, -156.000000)">
            <g id="Action" transform="translate(100.000000, 100.000000)">
                <g id="Outlined-/-Action-/-card_membership" transform="translate(816.000000, 54.000000)">
                    <g>
                        <polygon id="Path" points="0 0 24 0 24 24 0 24"></polygon>
                        <path d="M20,2 L4,2 C2.89,2 2,2.89 2,4 L2,15 C2,16.11 2.89,17 4,17 L8,17 L8,22 L12,20 L16,22 L16,17 L20,17 C21.11,17 22,16.11 22,15 L22,4 C22,2.89 21.11,2 20,2 Z M20,15 L4,15 L4,13 L20,13 L20,15 Z M20,10 L4,10 L4,4 L20,4 L20,10 Z" id="🔹-Icon-Color" fill="#1D1D1D"></path>
                    </g>
                </g>
            </g>
        </g>
    </g>
</svg>