<?xml version="1.0" encoding="UTF-8"?>
<svg width="20px" height="19px" viewBox="0 0 20 19" version="1.1" xmlns="http://www.w3.org/2000/svg" xmlns:xlink="http://www.w3.org/1999/xlink">
    <!-- Generator: Sketch 52.5 (67469) - http://www.bohemiancoding.com/sketch -->
    <title>card_giftcard</title>
    <desc>Created with Sketch.</desc>
    <g id="Icons" stroke="none" stroke-width="1" fill="none" fill-rule="evenodd">
        <g id="Rounded" transform="translate(-782.000000, -200.000000)">
            <g id="Action" transform="translate(100.000000, 100.000000)">
                <g id="-Round-/-Action-/-card_giftcard" transform="translate(680.000000, 98.000000)">
                    <g transform="translate(0.000000, 0.000000)">
                        <polygon id="Path" points="0 0 24 0 24 24 0 24"></polygon>
                        <path d="M20,6 L17.82,6 C17.93,5.69 18,5.35 18,5 C18,3.34 16.66,2 15,2 C13.95,2 13.04,2.54 12.5,3.35 L12,4.02 L11.5,3.34 C10.96,2.54 10.05,2 9,2 C7.34,2 6,3.34 6,5 C6,5.35 6.07,5.69 6.18,6 L4,6 C2.89,6 2.01,6.89 2.01,8 L2,19 C2,20.11 2.89,21 4,21 L20,21 C21.11,21 22,20.11 22,19 L22,8 C22,6.89 21.11,6 20,6 Z M15,4 C15.55,4 16,4.45 16,5 C16,5.55 15.55,6 15,6 C14.45,6 14,5.55 14,5 C14,4.45 14.45,4 15,4 Z M9,4 C9.55,4 10,4.45 10,5 C10,5.55 9.55,6 9,6 C8.45,6 8,5.55 8,5 C8,4.45 8.45,4 9,4 Z M20,19 L4,19 L4,17 L20,17 L20,19 Z M20,14 L4,14 L4,9 C4,8.45 4.45,8 5,8 L9.08,8 L7.6,10.02 C7.27,10.47 7.37,11.1 7.82,11.42 C8.26,11.74 8.89,11.64 9.21,11.2 L12,7.4 L14.79,11.2 C15.11,11.64 15.74,11.74 16.18,11.42 C16.63,11.1 16.73,10.47 16.4,10.02 L14.92,8 L19,8 C19.55,8 20,8.45 20,9 L20,14 Z" id="🔹Icon-Color" fill="#1D1D1D"></path>
                    </g>
                </g>
            </g>
        </g>
    </g>
</svg>