<?xml version="1.0" encoding="UTF-8"?>
<svg width="18px" height="18px" viewBox="0 0 18 18" version="1.1" xmlns="http://www.w3.org/2000/svg" xmlns:xlink="http://www.w3.org/1999/xlink">
    <!-- Generator: Sketch 52.5 (67469) - http://www.bohemiancoding.com/sketch -->
    <title>casino</title>
    <desc>Created with Sketch.</desc>
    <g id="Icons" stroke="none" stroke-width="1" fill="none" fill-rule="evenodd">
        <g id="Outlined" transform="translate(-647.000000, -3923.000000)">
            <g id="Places" transform="translate(100.000000, 3866.000000)">
                <g id="Outlined-/-Places-/-casino" transform="translate(544.000000, 54.000000)">
                    <g>
                        <polygon id="Path" points="0 0 24 0 24 24 0 24"></polygon>
                        <path d="M19,3 C20.1,3 21,3.9 21,5 L21,19 C21,20.1 20.1,21 19,21 L5,21 C3.9,21 3,20.1 3,19 L3,5 C3,3.9 3.9,3 5,3 L19,3 Z M19,19 L19,5 L5,5 L5,19 L19,19 Z M7.5,18 C6.67157288,18 6,17.3284271 6,16.5 C6,15.6715729 6.67157288,15 7.5,15 C8.32842712,15 9,15.6715729 9,16.5 C9,17.3284271 8.32842712,18 7.5,18 Z M7.5,9 C6.67157288,9 6,8.32842712 6,7.5 C6,6.67157288 6.67157288,6 7.5,6 C8.32842712,6 9,6.67157288 9,7.5 C9,8.32842712 8.32842712,9 7.5,9 Z M12,13.5 C11.1715729,13.5 10.5,12.8284271 10.5,12 C10.5,11.1715729 11.1715729,10.5 12,10.5 C12.8284271,10.5 13.5,11.1715729 13.5,12 C13.5,12.8284271 12.8284271,13.5 12,13.5 Z M16.5,18 C15.6715729,18 15,17.3284271 15,16.5 C15,15.6715729 15.6715729,15 16.5,15 C17.3284271,15 18,15.6715729 18,16.5 C18,17.3284271 17.3284271,18 16.5,18 Z M16.5,9 C15.6715729,9 15,8.32842712 15,7.5 C15,6.67157288 15.6715729,6 16.5,6 C17.3284271,6 18,6.67157288 18,7.5 C18,8.32842712 17.3284271,9 16.5,9 Z" id="🔹-Icon-Color" fill="#1D1D1D"></path>
                    </g>
                </g>
            </g>
        </g>
    </g>
</svg>