<?xml version="1.0" encoding="UTF-8"?>
<svg width="18px" height="18px" viewBox="0 0 18 18" version="1.1" xmlns="http://www.w3.org/2000/svg" xmlns:xlink="http://www.w3.org/1999/xlink">
    <!-- Generator: Sketch 52.5 (67469) - http://www.bohemiancoding.com/sketch -->
    <title>casino</title>
    <desc>Created with Sketch.</desc>
    <g id="Icons" stroke="none" stroke-width="1" fill="none" fill-rule="evenodd">
        <g id="Rounded" transform="translate(-647.000000, -3923.000000)">
            <g id="Places" transform="translate(100.000000, 3866.000000)">
                <g id="-Round-/-Places-/-casino" transform="translate(544.000000, 54.000000)">
                    <g>
                        <polygon id="Path" points="0 0 24 0 24 24 0 24"></polygon>
                        <path d="M19,3 L5,3 C3.9,3 3,3.9 3,5 L3,19 C3,20.1 3.9,21 5,21 L19,21 C20.1,21 21,20.1 21,19 L21,5 C21,3.9 20.1,3 19,3 Z M7.5,18 C6.67,18 6,17.33 6,16.5 C6,15.67 6.67,15 7.5,15 C8.33,15 9,15.67 9,16.5 C9,17.33 8.33,18 7.5,18 Z M7.5,9 C6.67,9 6,8.33 6,7.5 C6,6.67 6.67,6 7.5,6 C8.33,6 9,6.67 9,7.5 C9,8.33 8.33,9 7.5,9 Z M12,13.5 C11.17,13.5 10.5,12.83 10.5,12 C10.5,11.17 11.17,10.5 12,10.5 C12.83,10.5 13.5,11.17 13.5,12 C13.5,12.83 12.83,13.5 12,13.5 Z M16.5,18 C15.67,18 15,17.33 15,16.5 C15,15.67 15.67,15 16.5,15 C17.33,15 18,15.67 18,16.5 C18,17.33 17.33,18 16.5,18 Z M16.5,9 C15.67,9 15,8.33 15,7.5 C15,6.67 15.67,6 16.5,6 C17.33,6 18,6.67 18,7.5 C18,8.33 17.33,9 16.5,9 Z" id="🔹-Icon-Color" fill="#1D1D1D"></path>
                    </g>
                </g>
            </g>
        </g>
    </g>
</svg>