<?xml version="1.0" encoding="UTF-8"?>
<svg width="22px" height="18px" viewBox="0 0 22 18" version="1.1" xmlns="http://www.w3.org/2000/svg" xmlns:xlink="http://www.w3.org/1999/xlink">
    <!-- Generator: Sketch 52.5 (67469) - http://www.bohemiancoding.com/sketch -->
    <title>cast_connected</title>
    <desc>Created with Sketch.</desc>
    <g id="Icons" stroke="none" stroke-width="1" fill="none" fill-rule="evenodd">
        <g id="Rounded" transform="translate(-135.000000, -2461.000000)">
            <g id="Hardware" transform="translate(100.000000, 2404.000000)">
                <g id="-Round-/-Hardware-/-cast_connected" transform="translate(34.000000, 54.000000)">
                    <g>
                        <rect id="Rectangle-Copy-89" x="0" y="0" width="24" height="24"></rect>
                        <path d="M19,16 L19,8 C19,7.45 18.55,7 18,7 L6,7 C5.45,7 5,7.45 5,8 L5,8.63 C8.96,9.91 12.09,13.04 13.37,17 L18,17 C18.55,17 19,16.55 19,16 Z M21,3 L3,3 C1.9,3 1,3.9 1,5 L1,7 C1,7.55 1.45,8 2,8 C2.55,8 3,7.55 3,7 L3,6 C3,5.45 3.45,5 4,5 L20,5 C20.55,5 21,5.45 21,6 L21,18 C21,18.55 20.55,19 20,19 L15,19 C14.45,19 14,19.45 14,20 C14,20.55 14.45,21 15,21 L21,21 C22.1,21 23,20.1 23,19 L23,5 C23,3.9 22.1,3 21,3 Z M1,18 L1,21 L4,21 C4,20.38 3.81,19.8 3.49,19.32 C2.95,18.52 2.04,18 1,18 Z M2.14,14.09 C1.54,13.99 1,14.48 1,15.09 C1,15.58 1.36,15.99 1.85,16.07 C3.93,16.43 5.57,18.07 5.93,20.15 C6.01,20.64 6.42,21 6.91,21 C7.52,21 8,20.46 7.91,19.86 C7.43,16.9 5.09,14.57 2.14,14.09 Z M2.1,10.05 C1.51,10 1,10.46 1,11.05 C1,11.56 1.38,11.99 1.88,12.04 C6.15,12.45 9.55,15.85 9.96,20.12 C10.01,20.62 10.44,20.99 10.95,20.99 C11.55,20.99 12.01,20.47 11.95,19.88 C11.42,14.69 7.29,10.57 2.1,10.05 Z" id="🔹-Icon-Color" fill="#1D1D1D"></path>
                    </g>
                </g>
            </g>
        </g>
    </g>
</svg>