<?xml version="1.0" encoding="UTF-8"?>
<svg width="18px" height="20px" viewBox="0 0 18 20" version="1.1" xmlns="http://www.w3.org/2000/svg" xmlns:xlink="http://www.w3.org/1999/xlink">
    <!-- Generator: Sketch 52.5 (67469) - http://www.bohemiancoding.com/sketch -->
    <title>ccessibility_new</title>
    <desc>Created with Sketch.</desc>
    <g id="Icons" stroke="none" stroke-width="1" fill="none" fill-rule="evenodd">
        <g id="Rounded" transform="translate(-375.000000, -156.000000)">
            <g id="Action" transform="translate(100.000000, 100.000000)">
                <g id="-Round-/-Action-/-ccessibility_new" transform="translate(272.000000, 54.000000)">
                    <g>
                        <polygon id="Path" points="0 0 24 0 24 24 0 24"></polygon>
                        <path d="M20.75,6.99 C20.61,6.44 20.06,6.12 19.51,6.24 C17.13,6.77 14.48,7 12,7 C9.52,7 6.87,6.77 4.49,6.24 C3.94,6.12 3.39,6.44 3.25,6.99 C3.11,7.55 3.45,8.12 4,8.25 C5.61,8.61 7.35,8.86 9,9 L9,21 C9,21.55 9.45,22 10,22 C10.55,22 11,21.55 11,21 L11,16 L13,16 L13,21 C13,21.55 13.45,22 14,22 C14.55,22 15,21.55 15,21 L15,9 C16.65,8.86 18.39,8.61 19.99,8.25 C20.55,8.12 20.89,7.55 20.75,6.99 Z M12,6 C13.1,6 14,5.1 14,4 C14,2.9 13.1,2 12,2 C10.9,2 10,2.9 10,4 C10,5.1 10.9,6 12,6 Z" id="🔹Icon-Color" fill="#1D1D1D"></path>
                    </g>
                </g>
            </g>
        </g>
    </g>
</svg>