<?xml version="1.0" encoding="UTF-8"?>
<svg width="20px" height="20px" viewBox="0 0 20 20" version="1.1" xmlns="http://www.w3.org/2000/svg" xmlns:xlink="http://www.w3.org/1999/xlink">
    <!-- Generator: Sketch 52.5 (67469) - http://www.bohemiancoding.com/sketch -->
    <title>chat</title>
    <desc>Created with Sketch.</desc>
    <g id="Icons" stroke="none" stroke-width="1" fill="none" fill-rule="evenodd">
        <g id="Two-Tone" transform="translate(-442.000000, -1218.000000)">
            <g id="Communication" transform="translate(100.000000, 1162.000000)">
                <g id="Two-Tone-/-Communication-/-chat" transform="translate(340.000000, 54.000000)">
                    <g>
                        <polygon id="Path" points="0 0 24 0 24 24 0 24"></polygon>
                        <path d="M20,4 L4,4 L4,17.17 L5.17,16 L20,16 L20,4 Z M14,14 L6,14 L6,12 L14,12 L14,14 Z M18,11 L6,11 L6,9 L18,9 L18,11 Z M18,8 L6,8 L6,6 L18,6 L18,8 Z" id="🔹-Secondary-Color" fill="#D0D0D0"></path>
                        <path d="M20,18 C21.1,18 22,17.1 22,16 L22,4 C22,2.9 21.1,2 20,2 L4,2 C2.9,2 2.01,2.9 2.01,4 L2,22 L6,18 L20,18 Z M4,17.17 L4,4 L20,4 L20,16 L5.17,16 L4,17.17 Z M6,12 L14,12 L14,14 L6,14 L6,12 Z M6,9 L18,9 L18,11 L6,11 L6,9 Z M6,6 L18,6 L18,8 L6,8 L6,6 Z" id="🔹-Primary-Color" fill="#1D1D1D"></path>
                    </g>
                </g>
            </g>
        </g>
    </g>
</svg>