<?xml version="1.0" encoding="UTF-8"?>
<svg width="18px" height="16px" viewBox="0 0 18 16" version="1.1" xmlns="http://www.w3.org/2000/svg" xmlns:xlink="http://www.w3.org/1999/xlink">
    <!-- Generator: Sketch 52.5 (67469) - http://www.bohemiancoding.com/sketch -->
    <title>closed_caption</title>
    <desc>Created with Sketch.</desc>
    <g id="Icons" stroke="none" stroke-width="1" fill="none" fill-rule="evenodd">
        <g id="Rounded" transform="translate(-205.000000, -910.000000)">
            <g id="AV" transform="translate(100.000000, 852.000000)">
                <g id="-Round-/-AV-/-closed_caption" transform="translate(102.000000, 54.000000)">
                    <g>
                        <rect id="Rectangle-Copy-2" x="0" y="0" width="24" height="24"></rect>
                        <path d="M19,4 L5,4 C3.89,4 3,4.9 3,6 L3,18 C3,19.1 3.89,20 5,20 L19,20 C20.1,20 21,19.1 21,18 L21,6 C21,4.9 20.1,4 19,4 Z M11,10.5 C11,10.78 10.78,11 10.5,11 L10,11 C9.72,11 9.5,10.78 9.5,10.5 L7.5,10.5 L7.5,13.5 L9.5,13.5 C9.5,13.22 9.72,13 10,13 L10.5,13 C10.78,13 11,13.22 11,13.5 L11,14 C11,14.55 10.55,15 10,15 L7,15 C6.45,15 6,14.55 6,14 L6,10 C6,9.45 6.45,9 7,9 L10,9 C10.55,9 11,9.45 11,10 L11,10.5 Z M18,10.5 C18,10.78 17.78,11 17.5,11 L17,11 C16.72,11 16.5,10.78 16.5,10.5 L14.5,10.5 L14.5,13.5 L16.5,13.5 C16.5,13.22 16.72,13 17,13 L17.5,13 C17.78,13 18,13.22 18,13.5 L18,14 C18,14.55 17.55,15 17,15 L14,15 C13.45,15 13,14.55 13,14 L13,10 C13,9.45 13.45,9 14,9 L17,9 C17.55,9 18,9.45 18,10 L18,10.5 Z" id="🔹Icon-Color" fill="#1D1D1D"></path>
                    </g>
                </g>
            </g>
        </g>
    </g>
</svg>