<?xml version="1.0" encoding="UTF-8"?>
<svg width="24px" height="18px" viewBox="0 0 24 18" version="1.1" xmlns="http://www.w3.org/2000/svg" xmlns:xlink="http://www.w3.org/1999/xlink">
    <!-- Generator: Sketch 52.5 (67469) - http://www.bohemiancoding.com/sketch -->
    <title>cloud_off</title>
    <desc>Created with Sketch.</desc>
    <g id="Icons" stroke="none" stroke-width="1" fill="none" fill-rule="evenodd">
        <g id="Rounded" transform="translate(-338.000000, -2284.000000)">
            <g id="File" transform="translate(100.000000, 2226.000000)">
                <g id="-Round-/-File-/-cloud_off" transform="translate(238.000000, 54.000000)">
                    <g>
                        <polygon id="Path" points="0 0 24 0 24 24 0 24"></polygon>
                        <path d="M24,15 C24,12.36 21.95,10.22 19.35,10.04 C18.67,6.59 15.64,4 12,4 C10.67,4 9.43,4.36 8.35,4.97 L9.84,6.46 C10.51,6.17 11.23,6 12,6 C15.04,6 17.5,8.46 17.5,11.5 L17.5,12 L19,12 C20.66,12 22,13.34 22,15 C22,15.99 21.52,16.85 20.79,17.4 L22.2,18.81 C23.29,17.89 24,16.54 24,15 Z M3.71,4.56 C3.32,4.95 3.32,5.58 3.71,5.97 L5.77,8.03 L5.35,8.03 C2.07,8.38 -0.41,11.37 0.06,14.82 C0.46,17.84 3.19,20 6.22,20 L17.73,20 L19.02,21.29 C19.41,21.68 20.04,21.68 20.43,21.29 C20.82,20.9 20.82,20.27 20.43,19.88 L5.12,4.56 C4.73,4.17 4.1,4.17 3.71,4.56 Z M6,18 C3.79,18 2,16.21 2,14 C2,11.79 3.79,10 6,10 L7.73,10 L15.73,18 L6,18 Z" id="🔹-Icon-Color" fill="#1D1D1D"></path>
                    </g>
                </g>
            </g>
        </g>
    </g>
</svg>