<?xml version="1.0" encoding="UTF-8"?>
<svg width="18px" height="18px" viewBox="0 0 18 18" version="1.1" xmlns="http://www.w3.org/2000/svg" xmlns:xlink="http://www.w3.org/1999/xlink">
    <!-- Generator: Sketch 52.5 (67469) - http://www.bohemiancoding.com/sketch -->
    <title>colorize</title>
    <desc>Created with Sketch.</desc>
    <g id="Icons" stroke="none" stroke-width="1" fill="none" fill-rule="evenodd">
        <g id="Outlined" transform="translate(-375.000000, -2947.000000)">
            <g id="Image" transform="translate(100.000000, 2626.000000)">
                <g id="Outlined-/-Image-/-colorize" transform="translate(272.000000, 318.000000)">
                    <g>
                        <polygon id="Path" points="0 0 24 0 24 24 0 24"></polygon>
                        <path d="M17.66,5.41 L18.58,6.33 L15.89,9.02 L14.97,8.1 L17.66,5.41 Z M17.67,3 C17.41,3 17.16,3.1 16.96,3.29 L13.84,6.41 L11.91,4.5 L10.5,5.91 L11.92,7.33 L3,16.25 L3,21 L7.75,21 L16.67,12.08 L18.09,13.5 L19.5,12.09 L17.58,10.17 L20.7,7.05 C21.1,6.65 21.1,6.02 20.71,5.63 L18.37,3.29 C18.17,3.1 17.92,3 17.67,3 Z M6.92,19 L5,17.08 L13.06,9.02 L14.98,10.94 L6.92,19 Z" id="🔹-Icon-Color" fill="#1D1D1D"></path>
                    </g>
                </g>
            </g>
        </g>
    </g>
</svg>