<?xml version="1.0" encoding="UTF-8"?>
<svg width="20px" height="19px" viewBox="0 0 20 19" version="1.1" xmlns="http://www.w3.org/2000/svg" xmlns:xlink="http://www.w3.org/1999/xlink">
    <!-- Generator: Sketch 52.5 (67469) - http://www.bohemiancoding.com/sketch -->
    <title>compass_calibration</title>
    <desc>Created with Sketch.</desc>
    <g id="Icons" stroke="none" stroke-width="1" fill="none" fill-rule="evenodd">
        <g id="Two-Tone" transform="translate(-748.000000, -3125.000000)">
            <g id="Maps" transform="translate(100.000000, 3068.000000)">
                <g id="Two-Tone-/-Maps-/-compass_calibration" transform="translate(646.000000, 54.000000)">
                    <g>
                        <polygon id="Path" points="0 0 24 0 24 24 0 24"></polygon>
                        <path d="M4.94,7.26 C6.99,5.79 9.44,5 12,5 C14.56,5 17,5.79 19.05,7.26 L16.84,9.47 C15.41,8.56 13.74,8.07 12,8.07 C10.26,8.07 8.59,8.56 7.15,9.47 L4.94,7.26 Z M12,20 C10.3431458,20 9,18.6568542 9,17 C9,15.3431458 10.3431458,14 12,14 C13.6568542,14 15,15.3431458 15,17 C15,18.6568542 13.6568542,20 12,20 Z" id="🔹-Secondary-Color" fill="#D0D0D0"></path>
                        <path d="M17,17 C17,14.24 14.76,12 12,12 C9.24,12 7,14.24 7,17 C7,19.76 9.24,22 12,22 C14.76,22 17,19.76 17,17 Z M9,17 C9,15.35 10.35,14 12,14 C13.65,14 15,15.35 15,17 C15,18.65 13.65,20 12,20 C10.35,20 9,18.65 9,17 Z M2,7.15 L7,12.15 C8.28,10.87 10.05,10.07 12,10.07 C13.95,10.07 15.72,10.86 17,12.14 L22,7.14 C19.44,4.59 15.9,3 12,3 C8.1,3 4.56,4.59 2,7.15 Z M16.84,9.47 C15.4,8.56 13.74,8.07 12,8.07 C10.26,8.07 8.59,8.56 7.15,9.48 L4.94,7.26 C6.99,5.79 9.44,5 12,5 C14.56,5 17,5.79 19.05,7.26 L16.84,9.47 Z" id="🔹-Primary-Color" fill="#1D1D1D"></path>
                    </g>
                </g>
            </g>
        </g>
    </g>
</svg>