<?xml version="1.0" encoding="UTF-8"?>
<svg width="19px" height="23px" viewBox="0 0 19 23" version="1.1" xmlns="http://www.w3.org/2000/svg" xmlns:xlink="http://www.w3.org/1999/xlink">
    <!-- Generator: Sketch 52.5 (67469) - http://www.bohemiancoding.com/sketch -->
    <title>contact_support</title>
    <desc>Created with Sketch.</desc>
    <g id="Icons" stroke="none" stroke-width="1" fill="none" fill-rule="evenodd">
        <g id="Outlined" transform="translate(-374.000000, -243.000000)">
            <g id="Action" transform="translate(100.000000, 100.000000)">
                <g id="Outlined-/-Action-/-contact_support" transform="translate(272.000000, 142.000000)">
                    <g>
                        <polygon id="Path" points="0 0 24 0 24 24 0 24"></polygon>
                        <path d="M11,23.59 L11,19.99 C5.99,19.73 2,15.57 2,10.5 C2,5.26 6.26,1 11.5,1 C16.74,1 21,5.26 21,10.5 C21,15.45 17.56,20.43 12.43,22.9 L11,23.59 Z M11.5,3 C7.36,3 4,6.36 4,10.5 C4,14.64 7.36,18 11.5,18 L13,18 L13,20.3 C16.64,18 19,14.22 19,10.5 C19,6.36 15.64,3 11.5,3 Z M10.5,14.5 L12.5,14.5 L12.5,16.5 L10.5,16.5 L10.5,14.5 Z M12.5,13 L10.5,13 C10.5,9.75 13.5,10 13.5,8 C13.5,6.9 12.6,6 11.5,6 C10.4,6 9.5,6.9 9.5,8 L7.5,8 C7.5,5.79 9.29,4 11.5,4 C13.71,4 15.5,5.79 15.5,8 C15.5,10.5 12.5,10.75 12.5,13 Z" id="🔹-Icon-Color" fill="#1D1D1D"></path>
                    </g>
                </g>
            </g>
        </g>
    </g>
</svg>