<?xml version="1.0" encoding="UTF-8"?>
<svg width="24px" height="18px" viewBox="0 0 24 18" version="1.1" xmlns="http://www.w3.org/2000/svg" xmlns:xlink="http://www.w3.org/1999/xlink">
    <!-- Generator: Sketch 52.5 (67469) - http://www.bohemiancoding.com/sketch -->
    <title>control_point_duplicate</title>
    <desc>Created with Sketch.</desc>
    <g id="Icons" stroke="none" stroke-width="1" fill="none" fill-rule="evenodd">
        <g id="Outlined" transform="translate(-780.000000, -2727.000000)">
            <g id="Image" transform="translate(100.000000, 2626.000000)">
                <g id="Outlined-/-Image-/-control_point_duplicate" transform="translate(680.000000, 98.000000)">
                    <g>
                        <polygon id="Path" points="0 0 24 0 24 24 0 24"></polygon>
                        <path d="M16,8 L14,8 L14,11 L11,11 L11,13 L14,13 L14,16 L16,16 L16,13 L19,13 L19,11 L16,11 L16,8 Z M2,12 C2,9.21 3.64,6.8 6.01,5.68 L6.01,3.52 C2.52,4.76 0,8.09 0,12 C0,15.91 2.52,19.24 6.01,20.48 L6.01,18.32 C3.64,17.2 2,14.79 2,12 Z M15,3 C10.04,3 6,7.04 6,12 C6,16.96 10.04,21 15,21 C19.96,21 24,16.96 24,12 C24,7.04 19.96,3 15,3 Z M15,19 C11.14,19 8,15.86 8,12 C8,8.14 11.14,5 15,5 C18.86,5 22,8.14 22,12 C22,15.86 18.86,19 15,19 Z" id="🔹-Icon-Color" fill="#1D1D1D"></path>
                    </g>
                </g>
            </g>
        </g>
    </g>
</svg>