<?xml version="1.0" encoding="UTF-8"?>
<svg width="20px" height="20px" viewBox="0 0 20 20" version="1.1" xmlns="http://www.w3.org/2000/svg" xmlns:xlink="http://www.w3.org/1999/xlink">
    <!-- Generator: Sketch 52.5 (67469) - http://www.bohemiancoding.com/sketch -->
    <title>control_camera</title>
    <desc>Created with Sketch.</desc>
    <g id="Icons" stroke="none" stroke-width="1" fill="none" fill-rule="evenodd">
        <g id="Outlined" transform="translate(-578.000000, -908.000000)">
            <g id="Av" transform="translate(100.000000, 852.000000)">
                <g id="Outlined-/-AV-/-control_camera" transform="translate(476.000000, 54.000000)">
                    <g>
                        <polygon id="Path" points="0 0 24 0 24 24 0 24"></polygon>
                        <path d="M5.54,8.46 L7.3,10.23 L5.54,12 L7.3,13.77 L5.54,15.54 L2,12 L5.54,8.46 Z M12,18.46 L13.77,16.7 L15.54,18.46 L12,22 L8.46,18.46 L10.23,16.7 L12,18.46 Z M18.46,8.46 L22,12 L18.46,15.54 L16.7,13.77 L18.46,12 L16.7,10.23 L18.46,8.46 Z M8.46,5.54 L12,2 L15.54,5.54 L13.77,7.3 L12,5.54 L10.23,7.3 L8.46,5.54 Z M12,15 C10.3431458,15 9,13.6568542 9,12 C9,10.3431458 10.3431458,9 12,9 C13.6568542,9 15,10.3431458 15,12 C15,13.6568542 13.6568542,15 12,15 Z" id="🔹-Icon-Color" fill="#1D1D1D"></path>
                    </g>
                </g>
            </g>
        </g>
    </g>
</svg>