<?xml version="1.0" encoding="UTF-8"?>
<svg width="20px" height="20px" viewBox="0 0 20 20" version="1.1" xmlns="http://www.w3.org/2000/svg" xmlns:xlink="http://www.w3.org/1999/xlink">
    <!-- Generator: Sketch 52.5 (67469) - http://www.bohemiancoding.com/sketch -->
    <title>copyright</title>
    <desc>Created with Sketch.</desc>
    <g id="Icons" stroke="none" stroke-width="1" fill="none" fill-rule="evenodd">
        <g id="Outlined" transform="translate(-340.000000, -244.000000)">
            <g id="Action" transform="translate(100.000000, 100.000000)">
                <g id="Outlined-/-Action-/-copyright" transform="translate(238.000000, 142.000000)">
                    <g>
                        <polygon id="Path" points="0 0 24 0 24 24 0 24"></polygon>
                        <path d="M10.08,10.86 C10.13,10.53 10.24,10.24 10.38,9.99 C10.52,9.74 10.72,9.53 10.97,9.37 C11.21,9.22 11.51,9.15 11.88,9.14 C12.11,9.15 12.32,9.19 12.51,9.27 C12.71,9.36 12.89,9.48 13.03,9.63 C13.17,9.78 13.28,9.96 13.37,10.16 C13.46,10.36 13.5,10.58 13.51,10.8 L15.3,10.8 C15.28,10.33 15.19,9.9 15.02,9.51 C14.85,9.12 14.62,8.78 14.32,8.5 C14.02,8.22 13.66,8 13.24,7.84 C12.82,7.68 12.36,7.61 11.85,7.61 C11.2,7.61 10.63,7.72 10.15,7.95 C9.67,8.18 9.27,8.48 8.95,8.87 C8.63,9.26 8.39,9.71 8.24,10.23 C8.09,10.75 8,11.29 8,11.87 L8,12.14 C8,12.72 8.08,13.26 8.23,13.78 C8.38,14.3 8.62,14.75 8.94,15.13 C9.26,15.51 9.66,15.82 10.14,16.04 C10.62,16.26 11.19,16.38 11.84,16.38 C12.31,16.38 12.75,16.3 13.16,16.15 C13.57,16 13.93,15.79 14.24,15.52 C14.55,15.25 14.8,14.94 14.98,14.58 C15.16,14.22 15.27,13.84 15.28,13.43 L13.49,13.43 C13.48,13.64 13.43,13.83 13.34,14.01 C13.25,14.19 13.13,14.34 12.98,14.47 C12.83,14.6 12.66,14.7 12.46,14.77 C12.27,14.84 12.07,14.86 11.86,14.87 C11.5,14.86 11.2,14.79 10.97,14.64 C10.72,14.48 10.52,14.27 10.38,14.02 C10.24,13.77 10.13,13.47 10.08,13.14 C10.03,12.81 10,12.47 10,12.14 L10,11.87 C10,11.52 10.03,11.19 10.08,10.86 Z M12,2 C6.48,2 2,6.48 2,12 C2,17.52 6.48,22 12,22 C17.52,22 22,17.52 22,12 C22,6.48 17.52,2 12,2 Z M12,20 C7.59,20 4,16.41 4,12 C4,7.59 7.59,4 12,4 C16.41,4 20,7.59 20,12 C20,16.41 16.41,20 12,20 Z" id="🔹-Icon-Color" fill="#1D1D1D"></path>
                    </g>
                </g>
            </g>
        </g>
    </g>
</svg>