<?xml version="1.0" encoding="UTF-8"?>
<svg width="24px" height="24px" viewBox="0 0 24 24" version="1.1" xmlns="http://www.w3.org/2000/svg" xmlns:xlink="http://www.w3.org/1999/xlink">
    <!-- Generator: Sketch 52.5 (67469) - http://www.bohemiancoding.com/sketch -->
    <title>crop_rotate</title>
    <desc>Created with Sketch.</desc>
    <g id="Icons" stroke="none" stroke-width="1" fill="none" fill-rule="evenodd">
        <g id="Rounded" transform="translate(-712.000000, -2768.000000)">
            <g id="Image" transform="translate(100.000000, 2626.000000)">
                <g id="-Round-/-Image-/-crop_rotate" transform="translate(612.000000, 142.000000)">
                    <g transform="translate(0.000000, 0.000000)">
                        <polygon id="Path" points="0 0 24 0 24 23.04 0 23.04"></polygon>
                        <path d="M16,8.64 L16,13.44 L18,13.44 L18,7.68 C18,6.624 17.1,5.76 16,5.76 L10,5.76 L10,7.68 L15,7.68 C15.55,7.68 16,8.112 16,8.64 Z M19,15.36 L9,15.36 C8.45,15.36 8,14.928 8,14.4 L8,4.8 C8,4.272 7.55,3.84 7,3.84 C6.45,3.84 6,4.272 6,4.8 L6,5.76 L5,5.76 C4.45,5.76 4,6.192 4,6.72 C4,7.248 4.45,7.68 5,7.68 L6,7.68 L6,15.36 C6,16.416 6.9,17.28 8,17.28 L16,17.28 L16,18.24 C16,18.768 16.45,19.2 17,19.2 C17.55,19.2 18,18.768 18,18.24 L18,17.28 L19,17.28 C19.55,17.28 20,16.848 20,16.32 C20,15.792 19.55,15.36 19,15.36 Z M17.66,1.344 C15.99,0.4896 13.83,-0.1056 11.39,0.0384 L15.2,3.696 L16.53,2.4192 C19.62,3.8208 21.87,6.6144 22.42,9.9648 C22.48,10.3584 22.86,10.6272 23.28,10.56 C23.69,10.5024 23.97,10.128 23.9,9.7344 C23.3,6.0864 20.94,3.0144 17.66,1.344 Z M7.47,20.6304 C4.38,19.2288 2.13,16.4352 1.58,13.0848 C1.52,12.6912 1.14,12.4224 0.72,12.4896 C0.31,12.5472 0.03,12.9216 0.1,13.3152 C0.7,16.9728 3.06,20.0448 6.34,21.7152 C8.01,22.5696 10.17,23.1648 12.61,23.0208 L8.8,19.3536 L7.47,20.6304 Z" id="🔹-Icon-Color" fill="#1D1D1D"></path>
                    </g>
                </g>
            </g>
        </g>
    </g>
</svg>