<?xml version="1.0" encoding="UTF-8"?>
<svg width="22px" height="22px" viewBox="0 0 22 22" version="1.1" xmlns="http://www.w3.org/2000/svg" xmlns:xlink="http://www.w3.org/1999/xlink">
    <!-- Generator: Sketch 52.5 (67469) - http://www.bohemiancoding.com/sketch -->
    <title>crop</title>
    <desc>Created with Sketch.</desc>
    <g id="Icons" stroke="none" stroke-width="1" fill="none" fill-rule="evenodd">
        <g id="Outlined" transform="translate(-747.000000, -2725.000000)">
            <g id="Image" transform="translate(100.000000, 2626.000000)">
                <g id="Outlined-/-Image-/-crop" transform="translate(646.000000, 98.000000)">
                    <g>
                        <polygon id="Path" points="0 0 24 0 24 24 0 24"></polygon>
                        <path d="M17,15 L19,15 L19,7 C19,5.9 18.1,5 17,5 L9,5 L9,7 L17,7 L17,15 Z M7,17 L7,1 L5,1 L5,5 L1,5 L1,7 L5,7 L5,17 C5,18.1 5.9,19 7,19 L17,19 L17,23 L19,23 L19,19 L23,19 L23,17 L7,17 Z" id="🔹-Icon-Color" fill="#1D1D1D"></path>
                    </g>
                </g>
            </g>
        </g>
    </g>
</svg>