<?xml version="1.0" encoding="UTF-8"?>
<svg width="18px" height="12px" viewBox="0 0 18 12" version="1.1" xmlns="http://www.w3.org/2000/svg" xmlns:xlink="http://www.w3.org/1999/xlink">
    <!-- Generator: Sketch 52.5 (67469) - http://www.bohemiancoding.com/sketch -->
    <title>crop_16_9</title>
    <desc>Created with Sketch.</desc>
    <g id="Icons" stroke="none" stroke-width="1" fill="none" fill-rule="evenodd">
        <g id="Rounded" transform="translate(-375.000000, -2774.000000)">
            <g id="Image" transform="translate(100.000000, 2626.000000)">
                <g id="-Round-/-Image-/-crop_16_9" transform="translate(272.000000, 142.000000)">
                    <g>
                        <polygon id="Path" points="0 0 24 0 24 24 0 24"></polygon>
                        <path d="M19,6 L5,6 C3.9,6 3,6.9 3,8 L3,16 C3,17.1 3.9,18 5,18 L19,18 C20.1,18 21,17.1 21,16 L21,8 C21,6.9 20.1,6 19,6 Z M18,16 L6,16 C5.45,16 5,15.55 5,15 L5,9 C5,8.45 5.45,8 6,8 L18,8 C18.55,8 19,8.45 19,9 L19,15 C19,15.55 18.55,16 18,16 Z" id="🔹-Icon-Color" fill="#1D1D1D"></path>
                    </g>
                </g>
            </g>
        </g>
    </g>
</svg>