<?xml version="1.0" encoding="UTF-8"?>
<svg width="22px" height="22px" viewBox="0 0 22 22" version="1.1" xmlns="http://www.w3.org/2000/svg" xmlns:xlink="http://www.w3.org/1999/xlink">
    <!-- Generator: Sketch 52.5 (67469) - http://www.bohemiancoding.com/sketch -->
    <title>crop</title>
    <desc>Created with Sketch.</desc>
    <g id="Icons" stroke="none" stroke-width="1" fill="none" fill-rule="evenodd">
        <g id="Rounded" transform="translate(-645.000000, -2725.000000)">
            <g id="Image" transform="translate(100.000000, 2626.000000)">
                <g id="-Round-/-Image-/-crop" transform="translate(544.000000, 98.000000)">
                    <g>
                        <polygon id="Path" points="0 0 24 0 24 24 0 24"></polygon>
                        <path d="M17,15 L19,15 L19,7 C19,5.9 18.1,5 17,5 L9,5 L9,7 L16,7 C16.55,7 17,7.45 17,8 L17,15 Z M8,17 C7.45,17 7,16.55 7,16 L7,2 C7,1.45 6.55,1 6,1 C5.45,1 5,1.45 5,2 L5,5 L2,5 C1.45,5 1,5.45 1,6 C1,6.55 1.45,7 2,7 L5,7 L5,17 C5,18.1 5.9,19 7,19 L17,19 L17,22 C17,22.55 17.45,23 18,23 C18.55,23 19,22.55 19,22 L19,19 L22,19 C22.55,19 23,18.55 23,18 C23,17.45 22.55,17 22,17 L8,17 Z" id="🔹-Icon-Color" fill="#1D1D1D"></path>
                    </g>
                </g>
            </g>
        </g>
    </g>
</svg>