<?xml version="1.0" encoding="UTF-8"?>
<svg width="18px" height="18px" viewBox="0 0 18 18" version="1.1" xmlns="http://www.w3.org/2000/svg" xmlns:xlink="http://www.w3.org/1999/xlink">
    <!-- Generator: Sketch 52.5 (67469) - http://www.bohemiancoding.com/sketch -->
    <title>crop_free</title>
    <desc>Created with Sketch.</desc>
    <g id="Icons" stroke="none" stroke-width="1" fill="none" fill-rule="evenodd">
        <g id="Two-Tone" transform="translate(-375.000000, -2727.000000)">
            <g id="Image" transform="translate(100.000000, 2626.000000)">
                <g id="Two-Tone-/-Image-/-crop_free" transform="translate(272.000000, 98.000000)">
                    <g>
                        <polygon id="Path" points="0 0 24 0 24 24 0 24"></polygon>
                        <path d="M3,19 C3,20.1 3.9,21 5,21 L9,21 L9,19 L5,19 L5,15 L3,15 L3,19 Z M21,5 C21,3.9 20.1,3 19,3 L15,3 L15,5 L19,5 L19,9 L21,9 L21,5 Z M5,5 L9,5 L9,3 L5,3 C3.9,3 3,3.9 3,5 L3,9 L5,9 L5,5 Z M21,19 L21,15 L19,15 L19,19 L15,19 L15,21 L19,21 C20.1,21 21,20.1 21,19 Z" id="🔹-Primary-Color" fill="#1D1D1D"></path>
                    </g>
                </g>
            </g>
        </g>
    </g>
</svg>