<?xml version="1.0" encoding="UTF-8"?>
<svg width="18px" height="10px" viewBox="0 0 18 10" version="1.1" xmlns="http://www.w3.org/2000/svg" xmlns:xlink="http://www.w3.org/1999/xlink">
    <!-- Generator: Sketch 52.5 (67469) - http://www.bohemiancoding.com/sketch -->
    <title>crop_7_5</title>
    <desc>Created with Sketch.</desc>
    <g id="Icons" stroke="none" stroke-width="1" fill="none" fill-rule="evenodd">
        <g id="Rounded" transform="translate(-919.000000, -2775.000000)">
            <g id="Image" transform="translate(100.000000, 2626.000000)">
                <g id="-Round-/-Image-/-crop_7_5" transform="translate(816.000000, 142.000000)">
                    <g transform="translate(0.000000, 0.000000)">
                        <polygon id="Path" points="0 0 24 0 24 24 0 24"></polygon>
                        <path d="M19,7 L5,7 C3.9,7 3,7.9 3,9 L3,15 C3,16.1 3.9,17 5,17 L19,17 C20.1,17 21,16.1 21,15 L21,9 C21,7.9 20.1,7 19,7 Z M18,15 L6,15 C5.45,15 5,14.55 5,14 L5,10 C5,9.45 5.45,9 6,9 L18,9 C18.55,9 19,9.45 19,10 L19,14 C19,14.55 18.55,15 18,15 Z" id="🔹-Icon-Color" fill="#1D1D1D"></path>
                    </g>
                </g>
            </g>
        </g>
    </g>
</svg>