<?xml version="1.0" encoding="UTF-8"?>
<svg width="18px" height="18px" viewBox="0 0 18 18" version="1.1" xmlns="http://www.w3.org/2000/svg" xmlns:xlink="http://www.w3.org/1999/xlink">
    <!-- Generator: Sketch 52.5 (67469) - http://www.bohemiancoding.com/sketch -->
    <title>dashboard</title>
    <desc>Created with Sketch.</desc>
    <g id="Icons" stroke="none" stroke-width="1" fill="none" fill-rule="evenodd">
        <g id="Two-Tone" transform="translate(-205.000000, -201.000000)">
            <g id="Action" transform="translate(100.000000, 100.000000)">
                <g id="Two-Tone-/-Action-/-dashboard" transform="translate(102.000000, 98.000000)">
                    <g>
                        <polygon id="Path" points="0 0 24 0 24 24 0 24"></polygon>
                        <path d="M5,5 L9,5 L9,11 L5,11 L5,5 Z M15,13 L19,13 L19,19 L15,19 L15,13 Z M5,17 L9,17 L9,19 L5,19 L5,17 Z M15,5 L19,5 L19,7 L15,7 L15,5 Z" id="🔹-Secondary-Color" fill="#D0D0D0"></path>
                        <path d="M3,13 L11,13 L11,3 L3,3 L3,13 Z M5,5 L9,5 L9,11 L5,11 L5,5 Z M13,21 L21,21 L21,11 L13,11 L13,21 Z M15,13 L19,13 L19,19 L15,19 L15,13 Z M13,3 L13,9 L21,9 L21,3 L13,3 Z M19,7 L15,7 L15,5 L19,5 L19,7 Z M3,21 L11,21 L11,15 L3,15 L3,21 Z M5,17 L9,17 L9,19 L5,19 L5,17 Z" id="🔹-Primary-Color" fill="#1D1D1D"></path>
                    </g>
                </g>
            </g>
        </g>
    </g>
</svg>