<?xml version="1.0" encoding="UTF-8"?>
<svg width="14px" height="18px" viewBox="0 0 14 18" version="1.1" xmlns="http://www.w3.org/2000/svg" xmlns:xlink="http://www.w3.org/1999/xlink">
    <!-- Generator: Sketch 52.5 (67469) - http://www.bohemiancoding.com/sketch -->
    <title>delete</title>
    <desc>Created with Sketch.</desc>
    <g id="Icons" stroke="none" stroke-width="1" fill="none" fill-rule="evenodd">
        <g id="Outlined" transform="translate(-207.000000, -245.000000)">
            <g id="Action" transform="translate(100.000000, 100.000000)">
                <g id="Outlined-/-Action-/-delete" transform="translate(102.000000, 142.000000)">
                    <g>
                        <polygon id="Path" points="0 0 24 0 24 24 0 24"></polygon>
                        <path d="M16,9 L16,19 L8,19 L8,9 L16,9 Z M14.5,3 L9.5,3 L8.5,4 L5,4 L5,6 L19,6 L19,4 L15.5,4 L14.5,3 Z M18,7 L6,7 L6,19 C6,20.1 6.9,21 8,21 L16,21 C17.1,21 18,20.1 18,19 L18,7 Z" id="🔹-Icon-Color" fill="#1D1D1D"></path>
                    </g>
                </g>
            </g>
        </g>
    </g>
</svg>