<?xml version="1.0" encoding="UTF-8"?>
<svg width="22px" height="20px" viewBox="0 0 22 20" version="1.1" xmlns="http://www.w3.org/2000/svg" xmlns:xlink="http://www.w3.org/1999/xlink">
    <!-- Generator: Sketch 52.5 (67469) - http://www.bohemiancoding.com/sketch -->
    <title>desktop_windows</title>
    <desc>Created with Sketch.</desc>
    <g id="Icons" stroke="none" stroke-width="1" fill="none" fill-rule="evenodd">
        <g id="Rounded" transform="translate(-271.000000, -2460.000000)">
            <g id="Hardware" transform="translate(100.000000, 2404.000000)">
                <g id="-Round-/-Hardware-/-desktop_windows" transform="translate(170.000000, 54.000000)">
                    <g>
                        <rect id="Rectangle-Copy-93" x="0" y="0" width="24" height="24"></rect>
                        <path d="M21,2 L3,2 C1.9,2 1,2.9 1,4 L1,16 C1,17.1 1.9,18 3,18 L10,18 L10,20 L9,20 C8.45,20 8,20.45 8,21 C8,21.55 8.45,22 9,22 L15,22 C15.55,22 16,21.55 16,21 C16,20.45 15.55,20 15,20 L14,20 L14,18 L21,18 C22.1,18 23,17.1 23,16 L23,4 C23,2.9 22.1,2 21,2 Z M20,16 L4,16 C3.45,16 3,15.55 3,15 L3,5 C3,4.45 3.45,4 4,4 L20,4 C20.55,4 21,4.45 21,5 L21,15 C21,15.55 20.55,16 20,16 Z" id="🔹-Icon-Color" fill="#1D1D1D"></path>
                    </g>
                </g>
            </g>
        </g>
    </g>
</svg>