<?xml version="1.0" encoding="UTF-8"?>
<svg width="16px" height="22px" viewBox="0 0 16 22" version="1.1" xmlns="http://www.w3.org/2000/svg" xmlns:xlink="http://www.w3.org/1999/xlink">
    <!-- Generator: Sketch 52.5 (67469) - http://www.bohemiancoding.com/sketch -->
    <title>developer_mode</title>
    <desc>Created with Sketch.</desc>
    <g id="Icons" stroke="none" stroke-width="1" fill="none" fill-rule="evenodd">
        <g id="Two-Tone" transform="translate(-648.000000, -1749.000000)">
            <g id="Device" transform="translate(100.000000, 1650.000000)">
                <g id="Two-Tone-/-Device-/-developer_mode" transform="translate(544.000000, 98.000000)">
                    <g>
                        <polygon id="Path" points="0 0 24 0 24 24 0 24"></polygon>
                        <path d="M7,5 L17,5 L17,7 L19,7 L19,3 C19,1.9 18.1,1.01 17,1.01 L7,1 C5.9,1 5,1.9 5,3 L5,7 L7,7 L7,5 Z M15.41,16.59 L20,12 L15.41,7.41 L14,8.83 L17.17,12 L14,15.17 L15.41,16.59 Z M10,15.17 L6.83,12 L10,8.83 L8.59,7.41 L4,12 L8.59,16.59 L10,15.17 Z M17,19 L7,19 L7,17 L5,17 L5,21 C5,22.1 5.9,23 7,23 L17,23 C18.1,23 19,22.1 19,21 L19,17 L17,17 L17,19 Z" id="🔹-Primary-Color" fill="#1D1D1D"></path>
                    </g>
                </g>
            </g>
        </g>
    </g>
</svg>