<?xml version="1.0" encoding="UTF-8"?>
<svg width="20px" height="18px" viewBox="0 0 20 18" version="1.1" xmlns="http://www.w3.org/2000/svg" xmlns:xlink="http://www.w3.org/1999/xlink">
    <!-- Generator: Sketch 52.5 (67469) - http://www.bohemiancoding.com/sketch -->
    <title>developer_board</title>
    <desc>Created with Sketch.</desc>
    <g id="Icons" stroke="none" stroke-width="1" fill="none" fill-rule="evenodd">
        <g id="Outlined" transform="translate(-816.000000, -2505.000000)">
            <g id="Hardware" transform="translate(100.000000, 2404.000000)">
                <g id="Outlined-/-Hardware-/-developer_board" transform="translate(714.000000, 98.000000)">
                    <g>
                        <path d="M0,0 L24,0 L24,24 L0,24 L0,0 Z M0,0 L24,0 L24,24 L0,24 L0,0 Z" id="Shape"></path>
                        <path d="M22,9 L22,7 L20,7 L20,5 C20,3.9 19.1,3 18,3 L4,3 C2.9,3 2,3.9 2,5 L2,19 C2,20.1 2.9,21 4,21 L18,21 C19.1,21 20,20.1 20,19 L20,17 L22,17 L22,15 L20,15 L20,13 L22,13 L22,11 L20,11 L20,9 L22,9 Z M18,19 L4,19 L4,5 L18,5 L18,19 Z M6,13 L11,13 L11,17 L6,17 L6,13 Z M12,7 L16,7 L16,10 L12,10 L12,7 Z M6,7 L11,7 L11,12 L6,12 L6,7 Z M12,11 L16,11 L16,17 L12,17 L12,11 Z" id="🔹-Icon-Color" fill="#1D1D1D"></path>
                    </g>
                </g>
            </g>
        </g>
    </g>
</svg>