<?xml version="1.0" encoding="UTF-8"?>
<svg width="22px" height="16px" viewBox="0 0 22 16" version="1.1" xmlns="http://www.w3.org/2000/svg" xmlns:xlink="http://www.w3.org/1999/xlink">
    <!-- Generator: Sketch 52.5 (67469) - http://www.bohemiancoding.com/sketch -->
    <title>devices_other</title>
    <desc>Created with Sketch.</desc>
    <g id="Icons" stroke="none" stroke-width="1" fill="none" fill-rule="evenodd">
        <g id="Rounded" transform="translate(-407.000000, -2462.000000)">
            <g id="Hardware" transform="translate(100.000000, 2404.000000)">
                <g id="-Round-/-Hardware-/-devices_other" transform="translate(306.000000, 54.000000)">
                    <g>
                        <rect id="Rectangle-Copy-97" x="0" y="0" width="24" height="24"></rect>
                        <path d="M3,7 C3,6.45 3.45,6 4,6 L20,6 C20.55,6 21,5.55 21,5 C21,4.45 20.55,4 20,4 L3,4 C1.9,4 1,4.9 1,6 L1,18 C1,19.1 1.9,20 3,20 L6,20 C6.55,20 7,19.55 7,19 C7,18.45 6.55,18 6,18 L4,18 C3.45,18 3,17.55 3,17 L3,7 Z M12,12 L10,12 C9.45,12 9,12.45 9,13 L9,13.78 C8.39,14.33 8,15.11 8,16 C8,16.89 8.39,17.67 9,18.22 L9,19 C9,19.55 9.45,20 10,20 L12,20 C12.55,20 13,19.55 13,19 L13,18.22 C13.61,17.67 14,16.88 14,16 C14,15.12 13.61,14.33 13,13.78 L13,13 C13,12.45 12.55,12 12,12 Z M11,17.5 C10.17,17.5 9.5,16.83 9.5,16 C9.5,15.17 10.17,14.5 11,14.5 C11.83,14.5 12.5,15.17 12.5,16 C12.5,16.83 11.83,17.5 11,17.5 Z M22,8 L16,8 C15.5,8 15,8.5 15,9 L15,19 C15,19.5 15.5,20 16,20 L22,20 C22.5,20 23,19.5 23,19 L23,9 C23,8.5 22.5,8 22,8 Z M21,18 L17,18 L17,10 L21,10 L21,18 Z" id="🔹-Icon-Color" fill="#1D1D1D"></path>
                    </g>
                </g>
            </g>
        </g>
    </g>
</svg>