<?xml version="1.0" encoding="UTF-8"?>
<svg width="14px" height="22px" viewBox="0 0 14 22" version="1.1" xmlns="http://www.w3.org/2000/svg" xmlns:xlink="http://www.w3.org/1999/xlink">
    <!-- Generator: Sketch 52.5 (67469) - http://www.bohemiancoding.com/sketch -->
    <title>device_unknown</title>
    <desc>Created with Sketch.</desc>
    <g id="Icons" stroke="none" stroke-width="1" fill="none" fill-rule="evenodd">
        <g id="Two-Tone" transform="translate(-547.000000, -2459.000000)">
            <g id="Hardware" transform="translate(100.000000, 2404.000000)">
                <g id="Two-Tone-/-Hardware-/-device_unknown" transform="translate(442.000000, 54.000000)">
                    <g>
                        <polygon id="Path" points="0 0 24 0 24 24 0 24"></polygon>
                        <path d="M7,19 L17,19 L17,5 L7,5 L7,19 Z M13,18 L11,18 L11,16 L13,16 L13,18 Z M12,6.72 C13.96,6.72 15.5,8.23 15.5,10.19 C15.5,12.45 12.88,12.68 12.88,14.64 L11.12,14.64 C11.12,11.76 13.75,11.94 13.75,10.19 C13.75,9.26 12.93,8.44 12,8.44 C11.07,8.44 10.25,9.26 10.25,10.19 L8.5,10.19 C8.5,8.24 10.04,6.72 12,6.72 Z" id="🔹-Secondary-Color" fill="#D0D0D0"></path>
                        <path d="M11,16 L13,16 L13,18 L11,18 L11,16 Z M17,1 L7,1 C5.9,1 5,1.9 5,3 L5,21 C5,22.1 5.9,23 7,23 L17,23 C18.1,23 19,22.1 19,21 L19,3 C19,1.9 18.1,1 17,1 Z M17,19 L7,19 L7,5 L17,5 L17,19 Z M12,8.44 C12.93,8.44 13.75,9.26 13.75,10.19 C13.75,11.94 11.12,11.76 11.12,14.64 L12.88,14.64 C12.88,12.68 15.5,12.45 15.5,10.19 C15.5,8.23 13.96,6.72 12,6.72 C10.04,6.72 8.5,8.24 8.5,10.19 L10.25,10.19 C10.25,9.26 11.07,8.44 12,8.44 Z" id="🔹-Primary-Color" fill="#1D1D1D"></path>
                    </g>
                </g>
            </g>
        </g>
    </g>
</svg>