<?xml version="1.0" encoding="UTF-8"?>
<svg width="18px" height="18px" viewBox="0 0 18 18" version="1.1" xmlns="http://www.w3.org/2000/svg" xmlns:xlink="http://www.w3.org/1999/xlink">
    <!-- Generator: Sketch 52.5 (67469) - http://www.bohemiancoding.com/sketch -->
    <title>device_hub</title>
    <desc>Created with Sketch.</desc>
    <g id="Icons" stroke="none" stroke-width="1" fill="none" fill-rule="evenodd">
        <g id="Two-Tone" transform="translate(-579.000000, -2461.000000)">
            <g id="Hardware" transform="translate(100.000000, 2404.000000)">
                <g id="Two-Tone-/-Hardware-/-device_hub" transform="translate(476.000000, 54.000000)">
                    <g>
                        <path d="M0,0 L24,0 L24,24 L0,24 L0,0 Z M0,0 L24,0 L24,24 L0,24 L0,0 Z" id="Shape"></path>
                        <path d="M17,16 L13,12 L13,8.82 C14.16,8.4 15,7.3 15,6 C15,4.34 13.66,3 12,3 C10.34,3 9,4.34 9,6 C9,7.3 9.84,8.4 11,8.82 L11,12 L7,16 L3,16 L3,21 L8,21 L8,17.95 L12,13.75 L16,17.95 L16,21 L21,21 L21,16 L17,16 Z" id="🔹-Primary-Color" fill="#1D1D1D"></path>
                    </g>
                </g>
            </g>
        </g>
    </g>
</svg>