<?xml version="1.0" encoding="UTF-8"?>
<svg width="18px" height="18px" viewBox="0 0 18 18" version="1.1" xmlns="http://www.w3.org/2000/svg" xmlns:xlink="http://www.w3.org/1999/xlink">
    <!-- Generator: Sketch 52.5 (67469) - http://www.bohemiancoding.com/sketch -->
    <title>dialer_sip</title>
    <desc>Created with Sketch.</desc>
    <g id="Icons" stroke="none" stroke-width="1" fill="none" fill-rule="evenodd">
        <g id="Rounded" transform="translate(-205.000000, -1307.000000)">
            <g id="Communication" transform="translate(100.000000, 1162.000000)">
                <g id="-Round-/-Communication-/-dialer_sip" transform="translate(102.000000, 142.000000)">
                    <g>
                        <polygon id="Path" points="0 0 24 0 24 24 0 24"></polygon>
                        <path d="M16.5,8 C16.78,8 17,7.78 17,7.5 L17,3.5 C17,3.22 16.78,3 16.5,3 C16.22,3 16,3.22 16,3.5 L16,7.5 C16,7.78 16.22,8 16.5,8 Z M12.5,7 C12.22,7 12,7.22 12,7.5 C12,7.78 12.22,8 12.5,8 L14.45,8 C14.75,8 15,7.75 15,7.45 L15,5.55 C15,5.25 14.75,5 14.45,5 L13,5 L13,4 L14.5,4 C14.78,4 15,3.78 15,3.5 C15,3.22 14.78,3 14.5,3 L12.55,3 C12.25,3 12,3.25 12,3.55 L12,5.44 C12,5.75 12.25,6 12.55,6 L14,6 L14,7 L12.5,7 Z M20.45,3 L18.56,3 C18.25,3 18,3.25 18,3.55 L18,7.5 C18,7.78 18.22,8 18.5,8 C18.78,8 19,7.78 19,7.5 L19,6 L20.45,6 C20.75,6 21,5.75 21,5.45 L21,3.55 C21,3.25 20.75,3 20.45,3 Z M20,5 L19,5 L19,4 L20,4 L20,5 Z M19.21,15.27 L16.67,14.98 C16.06,14.91 15.46,15.12 15.03,15.55 L13.19,17.39 C10.36,15.95 8.04,13.64 6.6,10.8 L8.45,8.95 C8.88,8.52 9.09,7.91 9.02,7.31 L8.73,4.79 C8.62,3.78 7.76,3.01 6.75,3.01 L5.02,3.01 C3.89,3.01 2.95,3.95 3.02,5.08 C3.55,13.62 10.38,20.44 18.91,20.97 C20.04,21.04 20.98,20.1 20.98,18.97 L20.98,17.24 C20.99,16.24 20.22,15.38 19.21,15.27 Z" id="🔹Icon-Color" fill="#1D1D1D"></path>
                    </g>
                </g>
            </g>
        </g>
    </g>
</svg>