<?xml version="1.0" encoding="UTF-8"?>
<svg width="18px" height="18px" viewBox="0 0 18 18" version="1.1" xmlns="http://www.w3.org/2000/svg" xmlns:xlink="http://www.w3.org/1999/xlink">
    <!-- Generator: Sketch 52.5 (67469) - http://www.bohemiancoding.com/sketch -->
    <title>dialer_sip</title>
    <desc>Created with Sketch.</desc>
    <g id="Icons" stroke="none" stroke-width="1" fill="none" fill-rule="evenodd">
        <g id="Outlined" transform="translate(-205.000000, -1219.000000)">
            <g id="Communication" transform="translate(100.000000, 1162.000000)">
                <g id="Outlined-/-Communication-/-dialer_sip" transform="translate(102.000000, 54.000000)">
                    <g>
                        <polygon id="Path" points="0 0 24 0 24 24 0 24"></polygon>
                        <path d="M16,3 L17,3 L17,8 L16,8 L16,3 Z M15,5 L13,5 L13,4 L15,4 L15,3 L12,3 L12,6 L14,6 L14,7 L12,7 L12,8 L15,8 L15,5 Z M18,3 L18,8 L19,8 L19,6 L21,6 L21,3 L18,3 Z M20,5 L19,5 L19,4 L20,4 L20,5 Z M20,15.5 C18.75,15.5 17.55,15.3 16.43,14.93 C16.33,14.9 16.22,14.88 16.12,14.88 C15.86,14.88 15.61,14.98 15.42,15.17 L13.22,17.37 C10.39,15.93 8.07,13.62 6.63,10.78 L8.83,8.57 C9.1,8.31 9.18,7.92 9.07,7.57 C8.7,6.45 8.5,5.25 8.5,4 C8.5,3.45 8.05,3 7.5,3 L4,3 C3.45,3 3,3.45 3,4 C3,13.39 10.61,21 20,21 C20.55,21 21,20.55 21,20 L21,16.5 C21,15.95 20.55,15.5 20,15.5 Z M5.03,5 L6.53,5 C6.6,5.88 6.75,6.75 6.99,7.59 L5.79,8.8 C5.38,7.59 5.12,6.32 5.03,5 Z M19,18.97 C17.68,18.88 16.41,18.62 15.2,18.22 L16.4,17.02 C17.25,17.26 18.11,17.41 18.99,17.47 L18.99,18.97 L19,18.97 Z" id="🔹-Icon-Color" fill="#1D1D1D"></path>
                    </g>
                </g>
            </g>
        </g>
    </g>
</svg>