<?xml version="1.0" encoding="UTF-8"?>
<svg width="20px" height="22px" viewBox="0 0 20 22" version="1.1" xmlns="http://www.w3.org/2000/svg" xmlns:xlink="http://www.w3.org/1999/xlink">
    <!-- Generator: Sketch 52.5 (67469) - http://www.bohemiancoding.com/sketch -->
    <title>directions_boat</title>
    <desc>Created with Sketch.</desc>
    <g id="Icons" stroke="none" stroke-width="1" fill="none" fill-rule="evenodd">
        <g id="Two-Tone" transform="translate(-612.000000, -3123.000000)">
            <g id="Maps" transform="translate(100.000000, 3068.000000)">
                <g id="Two-Tone-/-Maps-/-directions_boat" transform="translate(510.000000, 54.000000)">
                    <g>
                        <polygon id="Path" points="0 0 24 0 24 24 0 24"></polygon>
                        <path d="M6.49,15.68 L8,13.96 L9.51,15.68 C9.85,16.08 10.79,17 12,17 C13.21,17 14.15,16.08 14.49,15.68 L16,13.96 L17.51,15.68 C17.71,15.91 18.11,16.32 18.65,16.62 L19.77,12.65 L17.38,11.87 L12,10.11 L6.62,11.88 L4.22,12.67 L5.35,16.63 C5.9,16.32 6.29,15.91 6.49,15.68 Z M11,3 L13,3 L13,4 L11,4 L11,3 Z" id="🔹-Secondary-Color" fill="#D0D0D0"></path>
                        <path d="M3.95,19 L4,19 C5.6,19 7.02,18.12 8,17 C8.98,18.12 10.4,19 12,19 C13.6,19 15.02,18.12 16,17 C16.98,18.12 18.4,19 20,19 L20.05,19 L21.94,12.32 C22.02,12.06 22,11.78 21.88,11.54 C21.76,11.3 21.54,11.12 21.28,11.04 L20,10.62 L20,6 C20,4.9 19.1,4 18,4 L15,4 L15,1 L9,1 L9,4 L6,4 C4.9,4 4,4.9 4,6 L4,10.62 L2.71,11.04 C2.45,11.12 2.23,11.3 2.11,11.54 C1.99,11.78 1.96,12.06 2.05,12.32 L3.95,19 Z M11,3 L13,3 L13,4 L11,4 L11,3 Z M6,6 L18,6 L18,9.97 L12,8 L6,9.97 L6,6 Z M6.62,11.87 L12,10.11 L17.38,11.88 L19.77,12.66 L18.65,16.63 C18.11,16.33 17.71,15.92 17.51,15.69 L16,13.96 L14.49,15.68 C14.15,16.08 13.21,17 12,17 C10.79,17 9.85,16.08 9.51,15.68 L8,13.96 L6.49,15.68 C6.29,15.91 5.89,16.31 5.35,16.61 L4.22,12.65 L6.62,11.87 Z M8,22.01 C9.26,22.65 10.63,22.98 12,22.98 C13.37,22.98 14.74,22.66 16,22.01 C17.26,22.66 18.62,23 20,23 L22,23 L22,21 L20,21 C18.61,21 17.22,20.53 16,19.68 C14.78,20.53 13.39,20.96 12,20.96 C10.61,20.96 9.22,20.53 8,19.68 C6.78,20.53 5.39,21 4,21 L2,21 L2,23 L4,23 C5.38,23 6.74,22.65 8,22.01 Z" id="🔹-Primary-Color" fill="#1D1D1D"></path>
                    </g>
                </g>
            </g>
        </g>
    </g>
</svg>