<?xml version="1.0" encoding="UTF-8"?>
<svg width="16px" height="22px" viewBox="0 0 16 22" version="1.1" xmlns="http://www.w3.org/2000/svg" xmlns:xlink="http://www.w3.org/1999/xlink">
    <!-- Generator: Sketch 52.5 (67469) - http://www.bohemiancoding.com/sketch -->
    <title>directions_run</title>
    <desc>Created with Sketch.</desc>
    <g id="Icons" stroke="none" stroke-width="1" fill="none" fill-rule="evenodd">
        <g id="Rounded" transform="translate(-308.000000, -3123.000000)">
            <g id="Maps" transform="translate(100.000000, 3068.000000)">
                <g id="-Round-/-Maps-/-directions_run" transform="translate(205.000000, 54.000000)">
                    <g>
                        <polygon id="Path" points="0 0 24 0 24 24 0 24"></polygon>
                        <path d="M13.49,5.48 C14.59,5.48 15.49,4.58 15.49,3.48 C15.49,2.38 14.59,1.48 13.49,1.48 C12.39,1.48 11.49,2.38 11.49,3.48 C11.49,4.58 12.39,5.48 13.49,5.48 Z M10.32,17.48 L10.89,14.98 L12.99,16.98 L12.99,21.98 C12.99,22.53 13.44,22.98 13.99,22.98 C14.54,22.98 14.99,22.53 14.99,21.98 L14.99,16.34 C14.99,15.79 14.77,15.27 14.37,14.89 L12.89,13.48 L13.49,10.48 C14.56,11.72 16.11,12.61 17.85,12.89 C18.45,12.98 18.99,12.5 18.99,11.89 C18.99,11.4 18.63,10.99 18.14,10.91 C16.62,10.66 15.36,9.76 14.69,8.58 L13.69,6.98 C13.29,6.38 12.69,5.98 11.99,5.98 C11.69,5.98 11.49,6.08 11.19,6.08 L7.21,7.76 C6.47,8.08 5.99,8.8 5.99,9.61 L5.99,11.98 C5.99,12.53 6.44,12.98 6.99,12.98 C7.54,12.98 7.99,12.53 7.99,11.98 L7.99,9.58 L9.79,8.88 L8.19,16.98 L4.27,16.18 C3.73,16.07 3.2,16.42 3.09,16.96 L3.09,17 C2.98,17.54 3.33,18.07 3.87,18.18 L7.98,19 C9.04,19.21 10.08,18.54 10.32,17.48 Z" id="🔹-Icon-Color" fill="#1D1D1D"></path>
                    </g>
                </g>
            </g>
        </g>
    </g>
</svg>