<?xml version="1.0" encoding="UTF-8"?>
<svg width="16px" height="20px" viewBox="0 0 16 20" version="1.1" xmlns="http://www.w3.org/2000/svg" xmlns:xlink="http://www.w3.org/1999/xlink">
    <!-- Generator: Sketch 52.5 (67469) - http://www.bohemiancoding.com/sketch -->
    <title>directions_railway</title>
    <desc>Created with Sketch.</desc>
    <g id="Icons" stroke="none" stroke-width="1" fill="none" fill-rule="evenodd">
        <g id="Outlined" transform="translate(-546.000000, -3123.000000)">
            <g id="Maps" transform="translate(100.000000, 3068.000000)">
                <g id="Outlined-/-Maps-/-directions_railway" transform="translate(442.000000, 54.000000)">
                    <g>
                        <polygon id="Path" points="0 0 24 0 24 24 0 24"></polygon>
                        <path d="M12,1 C7.58,1 4,1.5 4,5 L4,15.5 C4,17.43 5.57,19 7.5,19 L6,20.5 L6,21 L18,21 L18,20.5 L16.5,19 C18.43,19 20,17.43 20,15.5 L20,5 C20,1.5 16.42,1 12,1 Z M12,3 C18,3 18,4.2 18,5 L6,5 C6,4.2 6,3 12,3 Z M18,7 L18,10 L6,10 L6,7 L18,7 Z M16.5,17 L7.5,17 C6.67,17 6,16.33 6,15.5 L6,12 L18,12 L18,15.5 C18,16.33 17.33,17 16.5,17 Z M12,12.5 C10.9,12.5 10,13.4 10,14.5 C10,15.6 10.9,16.5 12,16.5 C13.1,16.5 14,15.6 14,14.5 C14,13.4 13.1,12.5 12,12.5 Z" id="🔹-Icon-Color" fill="#1D1D1D"></path>
                    </g>
                </g>
            </g>
        </g>
    </g>
</svg>