<?xml version="1.0" encoding="UTF-8"?>
<svg width="18px" height="16px" viewBox="0 0 18 16" version="1.1" xmlns="http://www.w3.org/2000/svg" xmlns:xlink="http://www.w3.org/1999/xlink">
    <!-- Generator: Sketch 52.5 (67469) - http://www.bohemiancoding.com/sketch -->
    <title>directions_car</title>
    <desc>Created with Sketch.</desc>
    <g id="Icons" stroke="none" stroke-width="1" fill="none" fill-rule="evenodd">
        <g id="Outlined" transform="translate(-579.000000, -3127.000000)">
            <g id="Maps" transform="translate(100.000000, 3068.000000)">
                <g id="Outlined-/-Maps-/-directions_car" transform="translate(476.000000, 54.000000)">
                    <g>
                        <polygon id="Path" points="0 0 24 0 24 24 0 24"></polygon>
                        <path d="M18.92,6.01 L21,12 L21,20 C21,20.55 20.55,21 20,21 L19,21 C18.45,21 18,20.55 18,20 L18,19 L6,19 L6,20 C6,20.55 5.55,21 5,21 L4,21 C3.45,21 3,20.55 3,20 L3,12 L5.08,6.01 C5.29,5.42 5.84,5 6.5,5 L17.5,5 C18.16,5 18.72,5.42 18.92,6.01 Z M6.85,7 L5.77,10.11 L18.22,10.11 L17.14,7 L6.85,7 Z M19,17 L19,12 L5,12 L5,17 L19,17 Z M7.5,16 C6.67157288,16 6,15.3284271 6,14.5 C6,13.6715729 6.67157288,13 7.5,13 C8.32842712,13 9,13.6715729 9,14.5 C9,15.3284271 8.32842712,16 7.5,16 Z M16.5,16 C15.6715729,16 15,15.3284271 15,14.5 C15,13.6715729 15.6715729,13 16.5,13 C17.3284271,13 18,13.6715729 18,14.5 C18,15.3284271 17.3284271,16 16.5,16 Z" id="🔹-Icon-Color" fill="#1D1D1D"></path>
                    </g>
                </g>
            </g>
        </g>
    </g>
</svg>