<?xml version="1.0" encoding="UTF-8"?>
<svg width="24px" height="21px" viewBox="0 0 24 21" version="1.1" xmlns="http://www.w3.org/2000/svg" xmlns:xlink="http://www.w3.org/1999/xlink">
    <!-- Generator: Sketch 52.5 (67469) - http://www.bohemiancoding.com/sketch -->
    <title>directions_bike</title>
    <desc>Created with Sketch.</desc>
    <g id="Icons" stroke="none" stroke-width="1" fill="none" fill-rule="evenodd">
        <g id="Rounded" transform="translate(-475.000000, -3123.000000)">
            <g id="Maps" transform="translate(100.000000, 3068.000000)">
                <g id="-Round-/-Maps-/-directions_bike" transform="translate(375.000000, 54.000000)">
                    <g>
                        <polygon id="Path" points="0 0 24 0 24 24 0 24"></polygon>
                        <path d="M15.5,5.5 C16.6,5.5 17.5,4.6 17.5,3.5 C17.5,2.4 16.6,1.5 15.5,1.5 C14.4,1.5 13.5,2.4 13.5,3.5 C13.5,4.6 14.4,5.5 15.5,5.5 Z M5,12 C2.2,12 0,14.2 0,17 C0,19.8 2.2,22 5,22 C7.8,22 10,19.8 10,17 C10,14.2 7.8,12 5,12 Z M5,20.5 C3.1,20.5 1.5,18.9 1.5,17 C1.5,15.1 3.1,13.5 5,13.5 C6.9,13.5 8.5,15.1 8.5,17 C8.5,18.9 6.9,20.5 5,20.5 Z M10.8,10.5 L13.2,8.1 L14,8.9 C15.06,9.96 16.38,10.68 17.96,10.92 C18.56,11.01 19.1,10.53 19.1,9.92 C19.1,9.43 18.73,9.01 18.25,8.93 C17.14,8.75 16.23,8.22 15.5,7.5 L13.6,5.6 C13.1,5.2 12.6,5 12,5 C11.4,5 10.9,5.2 10.6,5.6 L7.8,8.4 C7.4,8.8 7.2,9.3 7.2,9.8 C7.2,10.4 7.4,10.9 7.8,11.2 L11,14 L11,18 C11,18.55 11.45,19 12,19 C12.55,19 13,18.55 13,18 L13,13.6 C13,13.08 12.8,12.59 12.45,12.22 L10.8,10.5 Z M19,12 C16.2,12 14,14.2 14,17 C14,19.8 16.2,22 19,22 C21.8,22 24,19.8 24,17 C24,14.2 21.8,12 19,12 Z M19,20.5 C17.1,20.5 15.5,18.9 15.5,17 C15.5,15.1 17.1,13.5 19,13.5 C20.9,13.5 22.5,15.1 22.5,17 C22.5,18.9 20.9,20.5 19,20.5 Z" id="🔹-Icon-Color" fill="#1D1D1D"></path>
                    </g>
                </g>
            </g>
        </g>
    </g>
</svg>