<?xml version="1.0" encoding="UTF-8"?>
<svg width="13px" height="22px" viewBox="0 0 13 22" version="1.1" xmlns="http://www.w3.org/2000/svg" xmlns:xlink="http://www.w3.org/1999/xlink">
    <!-- Generator: Sketch 52.5 (67469) - http://www.bohemiancoding.com/sketch -->
    <title>directions_walk</title>
    <desc>Created with Sketch.</desc>
    <g id="Icons" stroke="none" stroke-width="1" fill="none" fill-rule="evenodd">
        <g id="Rounded" transform="translate(-209.000000, -3123.000000)">
            <g id="Maps" transform="translate(100.000000, 3068.000000)">
                <g id="-Round-/-Maps-/-directions_walk" transform="translate(103.000000, 54.000000)">
                    <g>
                        <polygon id="Path" points="0 0 24 0 24 24 0 24"></polygon>
                        <path d="M13.5,5.5 C14.6,5.5 15.5,4.6 15.5,3.5 C15.5,2.4 14.6,1.5 13.5,1.5 C12.4,1.5 11.5,2.4 11.5,3.5 C11.5,4.6 12.4,5.5 13.5,5.5 Z M9.8,8.9 L7.24,21.81 C7.11,22.42 7.59,23 8.22,23 L8.3,23 C8.77,23 9.17,22.68 9.28,22.22 L10.9,15 L13,17 L13,22 C13,22.55 13.45,23 14,23 C14.55,23 15,22.55 15,22 L15,16.36 C15,15.81 14.78,15.29 14.38,14.91 L12.9,13.5 L13.5,10.5 C14.57,11.74 16.12,12.63 17.86,12.91 C18.46,13 19,12.52 19,11.91 C19,11.42 18.64,11.01 18.15,10.93 C16.63,10.68 15.37,9.78 14.7,8.6 L13.7,7 C13.14,6.11 12.02,5.75 11.05,6.16 L7.22,7.78 C6.48,8.1 6,8.82 6,9.63 L6,12 C6,12.55 6.45,13 7,13 C7.55,13 8,12.55 8,12 L8,9.6 L9.8,8.9 Z" id="🔹-Icon-Color" fill="#1D1D1D"></path>
                    </g>
                </g>
            </g>
        </g>
    </g>
</svg>