<?xml version="1.0" encoding="UTF-8"?>
<svg width="20px" height="22px" viewBox="0 0 20 22" version="1.1" xmlns="http://www.w3.org/2000/svg" xmlns:xlink="http://www.w3.org/1999/xlink">
    <!-- Generator: Sketch 52.5 (67469) - http://www.bohemiancoding.com/sketch -->
    <title>directions_boat</title>
    <desc>Created with Sketch.</desc>
    <g id="Icons" stroke="none" stroke-width="1" fill="none" fill-rule="evenodd">
        <g id="Rounded" transform="translate(-443.000000, -3123.000000)">
            <g id="Maps" transform="translate(100.000000, 3068.000000)">
                <g id="-Round-/-Maps-/-directions_boat" transform="translate(341.000000, 54.000000)">
                    <g>
                        <polygon id="Path" points="0 0 24 0 24 24 0 24"></polygon>
                        <path d="M20,21 C18.71,21 17.42,20.59 16.26,19.86 C16.1,19.76 15.89,19.76 15.73,19.86 C13.42,21.33 10.57,21.33 8.26,19.86 C8.1,19.76 7.89,19.76 7.73,19.86 C6.58,20.59 5.29,21 4,21 L3,21 C2.45,21 2,21.45 2,22 C2,22.55 2.45,23 3,23 L4,23 C5.38,23 6.74,22.65 8,22.01 C10.52,23.3 13.48,23.3 16,22.01 C17.26,22.66 18.62,23 20,23 L21,23 C21.55,23 22,22.55 22,22 C22,21.45 21.55,21 21,21 L20,21 Z M3.95,19 L4,19 C5.42,19 6.7,18.3 7.66,17.36 C7.85,17.18 8.16,17.18 8.35,17.36 C9.3,18.3 10.58,19 12,19 C13.42,19 14.7,18.3 15.66,17.36 C15.85,17.17 16.15,17.17 16.35,17.36 C17.3,18.3 18.58,19 20,19 L20.05,19 L21.94,12.32 C22.02,12.06 22,11.78 21.88,11.54 C21.76,11.3 21.54,11.12 21.28,11.04 L20,10.62 L20,6 C20,4.9 19.1,4 18,4 L15,4 L15,2 C15,1.45 14.55,1 14,1 L10,1 C9.45,1 9,1.45 9,2 L9,4 L6,4 C4.9,4 4,4.9 4,6 L4,10.62 L2.71,11.04 C2.45,11.12 2.23,11.3 2.11,11.54 C1.99,11.78 1.96,12.06 2.05,12.32 L3.95,19 Z M7,6 L17,6 C17.55,6 18,6.45 18,7 L18,9.97 L12.62,8.2 C12.21,8.07 11.78,8.07 11.37,8.2 L6,9.97 L6,7 C6,6.45 6.45,6 7,6 Z" id="🔹-Icon-Color" fill="#1D1D1D"></path>
                    </g>
                </g>
            </g>
        </g>
    </g>
</svg>