<?xml version="1.0" encoding="UTF-8"?>
<svg width="18px" height="18px" viewBox="0 0 18 18" version="1.1" xmlns="http://www.w3.org/2000/svg" xmlns:xlink="http://www.w3.org/1999/xlink">
    <!-- Generator: Sketch 52.5 (67469) - http://www.bohemiancoding.com/sketch -->
    <title>dns</title>
    <desc>Created with Sketch.</desc>
    <g id="Icons" stroke="none" stroke-width="1" fill="none" fill-rule="evenodd">
        <g id="Rounded" transform="translate(-137.000000, -245.000000)">
            <g id="Action" transform="translate(100.000000, 100.000000)">
                <g id="-Round-/-Action-/-dns" transform="translate(34.000000, 142.000000)">
                    <g>
                        <polygon id="Path" points="0 0 24 0 24 24 0 24"></polygon>
                        <path d="M19,13 L5,13 C3.9,13 3,13.9 3,15 L3,19 C3,20.1 3.9,21 5,21 L19,21 C20.1,21 21,20.1 21,19 L21,15 C21,13.9 20.1,13 19,13 Z M7,19 C5.9,19 5,18.1 5,17 C5,15.9 5.9,15 7,15 C8.1,15 9,15.9 9,17 C9,18.1 8.1,19 7,19 Z M19,3 L5,3 C3.9,3 3,3.9 3,5 L3,9 C3,10.1 3.9,11 5,11 L19,11 C20.1,11 21,10.1 21,9 L21,5 C21,3.9 20.1,3 19,3 Z M7,9 C5.9,9 5,8.1 5,7 C5,5.9 5.9,5 7,5 C8.1,5 9,5.9 9,7 C9,8.1 8.1,9 7,9 Z" id="🔹Icon-Color" fill="#1D1D1D"></path>
                    </g>
                </g>
            </g>
        </g>
    </g>
</svg>