<?xml version="1.0" encoding="UTF-8"?>
<svg width="18px" height="16px" viewBox="0 0 18 16" version="1.1" xmlns="http://www.w3.org/2000/svg" xmlns:xlink="http://www.w3.org/1999/xlink">
    <!-- Generator: Sketch 52.5 (67469) - http://www.bohemiancoding.com/sketch -->
    <title>drive_eta</title>
    <desc>Created with Sketch.</desc>
    <g id="Icons" stroke="none" stroke-width="1" fill="none" fill-rule="evenodd">
        <g id="Two-Tone" transform="translate(-409.000000, -3658.000000)">
            <g id="Notification" transform="translate(100.000000, 3600.000000)">
                <g id="Two-Tone-/-Notification-/-drive_eta" transform="translate(306.000000, 54.000000)">
                    <g>
                        <polygon id="Path" points="0 0 24 0 24 24 0 24"></polygon>
                        <path d="M5.12,11 L5,11.34 L5,16 L19,16 L19,11.34 L18.88,11 L5.12,11 Z M7.5,15 C6.67,15 6,14.33 6,13.5 C6,12.67 6.67,12 7.5,12 C8.33,12 9,12.67 9,13.5 C9,14.33 8.33,15 7.5,15 Z M16.5,15 C15.67,15 15,14.33 15,13.5 C15,12.67 15.67,12 16.5,12 C17.33,12 18,12.67 18,13.5 C18,14.33 17.33,15 16.5,15 Z" id="🔹-Secondary-Color" fill="#D0D0D0"></path>
                        <path d="M18.92,5.01 L21,11 L21,19 C21,19.55 20.55,20 20,20 L19,20 C18.45,20 18,19.55 18,19 L18,18 L6,18 L6,19 C6,19.55 5.55,20 5,20 L4,20 C3.45,20 3,19.55 3,19 L3,11 L5.08,5.01 C5.29,4.42 5.84,4 6.5,4 L17.5,4 C18.16,4 18.72,4.42 18.92,5.01 Z M6.85,6 L5.81,9 L18.18,9 L17.14,6 L6.85,6 Z M19,16 L19,11.34 L18.89,11 L5.12,11 L5,11.34 L5,16 L19,16 Z M7.5,15 C6.67157288,15 6,14.3284271 6,13.5 C6,12.6715729 6.67157288,12 7.5,12 C8.32842712,12 9,12.6715729 9,13.5 C9,14.3284271 8.32842712,15 7.5,15 Z M16.5,15 C15.6715729,15 15,14.3284271 15,13.5 C15,12.6715729 15.6715729,12 16.5,12 C17.3284271,12 18,12.6715729 18,13.5 C18,14.3284271 17.3284271,15 16.5,15 Z" id="🔹-Primary-Color" fill="#1D1D1D"></path>
                    </g>
                </g>
            </g>
        </g>
    </g>
</svg>