<?xml version="1.0" encoding="UTF-8"?>
<svg width="20px" height="10px" viewBox="0 0 20 10" version="1.1" xmlns="http://www.w3.org/2000/svg" xmlns:xlink="http://www.w3.org/1999/xlink">
    <!-- Generator: Sketch 52.5 (67469) - http://www.bohemiancoding.com/sketch -->
    <title>edit_attributes</title>
    <desc>Created with Sketch.</desc>
    <g id="Icons" stroke="none" stroke-width="1" fill="none" fill-rule="evenodd">
        <g id="Outlined" transform="translate(-408.000000, -3129.000000)">
            <g id="Maps" transform="translate(100.000000, 3068.000000)">
                <g id="Outlined-/-Maps-/-edit_attributes" transform="translate(306.000000, 54.000000)">
                    <g>
                        <polygon id="Path" points="0 0 24 0 24 24 0 24"></polygon>
                        <path d="M17.63,7 L6.37,7 C3.96,7 2,9.24 2,12 C2,14.76 3.96,17 6.37,17 L17.63,17 C20.04,17 22,14.76 22,12 C22,9.24 20.04,7 17.63,7 Z M17.63,15 L6.37,15 C5.09,15 4,13.63 4,12 C4,10.37 5.09,9 6.37,9 L17.63,9 C18.91,9 20,10.37 20,12 C20,13.63 18.91,15 17.63,15 Z M7.24,13.06 L5.37,11.19 L4.67,11.89 L7.24,14.46 L11.46,10.24 L10.76,9.54 L7.24,13.06 Z" id="🔹-Icon-Color" fill="#1D1D1D"></path>
                    </g>
                </g>
            </g>
        </g>
    </g>
</svg>