<?xml version="1.0" encoding="UTF-8"?>
<svg width="14px" height="14px" viewBox="0 0 14 14" version="1.1" xmlns="http://www.w3.org/2000/svg" xmlns:xlink="http://www.w3.org/1999/xlink">
    <!-- Generator: Sketch 52.5 (67469) - http://www.bohemiancoding.com/sketch -->
    <title>eject</title>
    <desc>Created with Sketch.</desc>
    <g id="Icons" stroke="none" stroke-width="1" fill="none" fill-rule="evenodd">
        <g id="Rounded" transform="translate(-649.000000, -247.000000)">
            <g id="Action" transform="translate(100.000000, 100.000000)">
                <g id="-Round-/-Action-/-eject" transform="translate(544.000000, 142.000000)">
                    <g>
                        <polygon id="Path" points="0 0 24 0 24 24 0 24"></polygon>
                        <path d="M6,17 L18,17 C18.55,17 19,17.45 19,18 C19,18.55 18.55,19 18,19 L6,19 C5.45,19 5,18.55 5,18 C5,17.45 5.45,17 6,17 Z M11.17,6.25 L6.37,13.45 C5.92,14.11 6.4,15 7.2,15 L16.8,15 C17.6,15 18.08,14.11 17.63,13.45 L12.83,6.25 C12.44,5.65 11.56,5.65 11.17,6.25 Z" id="🔹Icon-Color" fill="#1D1D1D"></path>
                    </g>
                </g>
            </g>
        </g>
    </g>
</svg>