<?xml version="1.0" encoding="UTF-8"?>
<svg width="23px" height="23px" viewBox="0 0 23 23" version="1.1" xmlns="http://www.w3.org/2000/svg" xmlns:xlink="http://www.w3.org/1999/xlink">
    <!-- Generator: Sketch 52.5 (67469) - http://www.bohemiancoding.com/sketch -->
    <title>emove_shopping_cart</title>
    <desc>Created with Sketch.</desc>
    <g id="Icons" stroke="none" stroke-width="1" fill="none" fill-rule="evenodd">
        <g id="Outlined" transform="translate(-576.000000, -419.000000)">
            <g id="Action" transform="translate(100.000000, 100.000000)">
                <g id="Outlined-/-Action-/-emove_shopping_cart" transform="translate(476.000000, 318.000000)">
                    <g>
                        <polygon id="Path" points="0 0 24 0 24 24 0 24"></polygon>
                        <path d="M1.41,1.13 L0,2.54 L4.39,6.93 L6.6,11.59 L5.25,14.04 C5.09,14.32 5,14.65 5,15 C5,16.1 5.9,17 7,17 L14.46,17 L15.84,18.38 C15.34,18.74 15.01,19.33 15.01,20 C15.01,21.1 15.9,22 17,22 C17.67,22 18.26,21.67 18.62,21.16 L21.46,24 L22.87,22.59 L1.41,1.13 Z M7,15 L8.1,13 L10.46,13 L12.46,15 L7,15 Z M20,4 L7.12,4 L9.12,6 L18.31,6 L15.55,11 L14.11,11 L16.05,12.94 C16.59,12.8 17.04,12.45 17.3,11.97 L20.88,5.48 C21.25,4.82 20.76,4 20,4 Z M7,18 C5.9,18 5.01,18.9 5.01,20 C5.01,21.1 5.9,22 7,22 C8.1,22 9,21.1 9,20 C9,18.9 8.1,18 7,18 Z" id="🔹-Icon-Color" fill="#1D1D1D"></path>
                    </g>
                </g>
            </g>
        </g>
    </g>
</svg>