<?xml version="1.0" encoding="UTF-8"?>
<svg width="16px" height="16px" viewBox="0 0 16 16" version="1.1" xmlns="http://www.w3.org/2000/svg" xmlns:xlink="http://www.w3.org/1999/xlink">
    <!-- Generator: Sketch 52.5 (67469) - http://www.bohemiancoding.com/sketch -->
    <title>equalizer</title>
    <desc>Created with Sketch.</desc>
    <g id="Icons" stroke="none" stroke-width="1" fill="none" fill-rule="evenodd">
        <g id="Rounded" transform="translate(-240.000000, -910.000000)">
            <g id="AV" transform="translate(100.000000, 852.000000)">
                <g id="-Round-/-AV-/-equalizer" transform="translate(136.000000, 54.000000)">
                    <g>
                        <rect id="Rectangle-Copy-3" x="0" y="0" width="24" height="24"></rect>
                        <path d="M12,20 C13.1,20 14,19.1 14,18 L14,6 C14,4.9 13.1,4 12,4 C10.9,4 10,4.9 10,6 L10,18 C10,19.1 10.9,20 12,20 Z M6,20 C7.1,20 8,19.1 8,18 L8,14 C8,12.9 7.1,12 6,12 C4.9,12 4,12.9 4,14 L4,18 C4,19.1 4.9,20 6,20 Z M16,11 L16,18 C16,19.1 16.9,20 18,20 C19.1,20 20,19.1 20,18 L20,11 C20,9.9 19.1,9 18,9 C16.9,9 16,9.9 16,11 Z" id="🔹Icon-Color" fill="#1D1D1D"></path>
                    </g>
                </g>
            </g>
        </g>
    </g>
</svg>