<?xml version="1.0" encoding="UTF-8"?>
<svg width="20px" height="20px" viewBox="0 0 20 20" version="1.1" xmlns="http://www.w3.org/2000/svg" xmlns:xlink="http://www.w3.org/1999/xlink">
    <!-- Generator: Sketch 52.5 (67469) - http://www.bohemiancoding.com/sketch -->
    <title>explore</title>
    <desc>Created with Sketch.</desc>
    <g id="Icons" stroke="none" stroke-width="1" fill="none" fill-rule="evenodd">
        <g id="Outlined" transform="translate(-170.000000, -288.000000)">
            <g id="Action" transform="translate(100.000000, 100.000000)">
                <g id="Outlined-/-Action-/-explore" transform="translate(68.000000, 186.000000)">
                    <g>
                        <polygon id="Path" points="0 0 24 0 24 24 0 24"></polygon>
                        <path d="M12,2 C6.48,2 2,6.48 2,12 C2,17.52 6.48,22 12,22 C17.52,22 22,17.52 22,12 C22,6.48 17.52,2 12,2 Z M12,20 C7.59,20 4,16.41 4,12 C4,7.59 7.59,4 12,4 C16.41,4 20,7.59 20,12 C20,16.41 16.41,20 12,20 Z M6.5,17.5 L14.01,14.01 L17.5,6.5 L9.99,9.99 L6.5,17.5 Z M12,10.9 C12.61,10.9 13.1,11.39 13.1,12 C13.1,12.61 12.61,13.1 12,13.1 C11.39,13.1 10.9,12.61 10.9,12 C10.9,11.39 11.39,10.9 12,10.9 Z" id="🔹-Icon-Color" fill="#1D1D1D"></path>
                    </g>
                </g>
            </g>
        </g>
    </g>
</svg>