<?xml version="1.0" encoding="UTF-8"?>
<svg width="20px" height="20px" viewBox="0 0 20 20" version="1.1" xmlns="http://www.w3.org/2000/svg" xmlns:xlink="http://www.w3.org/1999/xlink">
    <!-- Generator: Sketch 52.5 (67469) - http://www.bohemiancoding.com/sketch -->
    <title>extension</title>
    <desc>Created with Sketch.</desc>
    <g id="Icons" stroke="none" stroke-width="1" fill="none" fill-rule="evenodd">
        <g id="Outlined" transform="translate(-102.000000, -288.000000)">
            <g id="Action" transform="translate(100.000000, 100.000000)">
                <g id="Outlined-/-Action-/-extension" transform="translate(0.000000, 186.000000)">
                    <g>
                        <polygon id="Path" points="0 0 24 0 24 24 0 24"></polygon>
                        <path d="M10.5,4.5 C10.78,4.5 11,4.72 11,5 L11,7 L17,7 L17,13 L19,13 C19.28,13 19.5,13.22 19.5,13.5 C19.5,13.78 19.28,14 19,14 L17,14 L17,20 L14.88,20 C14.2,18.25 12.49,17 10.5,17 C8.51,17 6.8,18.25 6.12,20 L4,20 L4,17.88 C5.75,17.2 7,15.49 7,13.5 C7,11.51 5.76,9.8 4.01,9.12 L4,7 L10,7 L10,5 C10,4.72 10.22,4.5 10.5,4.5 Z M10.5,2.5 C9.12,2.5 8,3.62 8,5 L4,5 C2.9,5 2.01,5.9 2.01,7 L2.01,10.8 L2.3,10.8 C3.79,10.8 5,12.01 5,13.5 C5,14.99 3.79,16.2 2.3,16.2 L2,16.2 L2,20 C2,21.1 2.9,22 4,22 L7.8,22 L7.8,21.7 C7.8,20.21 9.01,19 10.5,19 C11.99,19 13.2,20.21 13.2,21.7 L13.2,22 L17,22 C18.1,22 19,21.1 19,20 L19,16 C20.38,16 21.5,14.88 21.5,13.5 C21.5,12.12 20.38,11 19,11 L19,7 C19,5.9 18.1,5 17,5 L13,5 C13,3.62 11.88,2.5 10.5,2.5 Z" id="🔹-Icon-Color" fill="#1D1D1D"></path>
                    </g>
                </g>
            </g>
        </g>
    </g>
</svg>