<?xml version="1.0" encoding="UTF-8"?>
<svg width="20px" height="20px" viewBox="0 0 20 20" version="1.1" xmlns="http://www.w3.org/2000/svg" xmlns:xlink="http://www.w3.org/1999/xlink">
    <!-- Generator: Sketch 52.5 (67469) - http://www.bohemiancoding.com/sketch -->
    <title>face</title>
    <desc>Created with Sketch.</desc>
    <g id="Icons" stroke="none" stroke-width="1" fill="none" fill-rule="evenodd">
        <g id="Two-Tone" transform="translate(-408.000000, -244.000000)">
            <g id="Action" transform="translate(100.000000, 100.000000)">
                <g id="Two-Tone-/-Action-/-face" transform="translate(306.000000, 142.000000)">
                    <g>
                        <polygon id="Path" points="0 0 24 0 24 24 0 24"></polygon>
                        <path d="M17.5,8 C17.96,8 18.41,7.95 18.84,7.88 C17.44,5.56 14.9,4 12,4 C11.54,4 11.09,4.05 10.66,4.12 C12.06,6.44 14.6,8 17.5,8 Z M8.08,5.03 C6.37,6 5.05,7.58 4.42,9.47 C6.13,8.5 7.45,6.92 8.08,5.03 Z" id="🔹-Secondary-Color" fill="#D0D0D0"></path>
                        <path d="M12,2 C17.52,2 22,6.48 22,12 C22,17.52 17.52,22 12,22 C6.48,22 2,17.52 2,12 C2,6.48 6.48,2 12,2 Z M12,4 C11.54,4 11.09,4.05 10.66,4.12 C12.06,6.44 14.6,8 17.5,8 C17.96,8 18.41,7.95 18.84,7.88 C17.44,5.56 14.9,4 12,4 Z M8.08,5.03 C7.45,6.92 6.13,8.5 4.42,9.47 C5.05,7.58 6.37,6 8.08,5.03 Z M12,20 C16.41,20 20,16.41 20,12 C20,11.22 19.88,10.47 19.67,9.76 C18.97,9.91 18.25,10 17.5,10 C14.37,10 11.58,8.56 9.75,6.3 C8.69,8.86 6.61,10.87 4.01,11.85 C4.01,11.9 4,11.95 4,12 C4,16.41 7.59,20 12,20 Z M9,14.25 C8.30964406,14.25 7.75,13.6903559 7.75,13 C7.75,12.3096441 8.30964406,11.75 9,11.75 C9.69035594,11.75 10.25,12.3096441 10.25,13 C10.25,13.6903559 9.69035594,14.25 9,14.25 Z M15,14.25 C14.3096441,14.25 13.75,13.6903559 13.75,13 C13.75,12.3096441 14.3096441,11.75 15,11.75 C15.6903559,11.75 16.25,12.3096441 16.25,13 C16.25,13.6903559 15.6903559,14.25 15,14.25 Z" id="🔹Primary-Color" fill="#1D1D1D"></path>
                    </g>
                </g>
            </g>
        </g>
    </g>
</svg>