<?xml version="1.0" encoding="UTF-8"?>
<svg width="20px" height="16px" viewBox="0 0 20 16" version="1.1" xmlns="http://www.w3.org/2000/svg" xmlns:xlink="http://www.w3.org/1999/xlink">
    <!-- Generator: Sketch 52.5 (67469) - http://www.bohemiancoding.com/sketch -->
    <title>fiber_pin</title>
    <desc>Created with Sketch.</desc>
    <g id="Icons" stroke="none" stroke-width="1" fill="none" fill-rule="evenodd">
        <g id="Rounded" transform="translate(-680.000000, -910.000000)">
            <g id="AV" transform="translate(100.000000, 852.000000)">
                <g id="-Round-/-AV-/-fiber_pin" transform="translate(578.000000, 54.000000)">
                    <g>
                        <rect id="Rectangle-Copy-16" x="0" y="0" width="24" height="24"></rect>
                        <path d="M20,4 L4,4 C2.89,4 2.01,4.89 2.01,6 L2,18 C2,19.11 2.89,20 4,20 L20,20 C21.11,20 22,19.11 22,18 L22,6 C22,4.89 21.11,4 20,4 Z M9,11.5 C9,12.33 8.33,13 7.5,13 L5.5,13 L5.5,14.25 C5.5,14.66 5.16,15 4.75,15 C4.34,15 4,14.66 4,14.25 L4,10 C4,9.45 4.45,9 5,9 L7.5,9 C8.33,9 9,9.67 9,10.5 L9,11.5 Z M12.5,14.25 C12.5,14.66 12.16,15 11.75,15 C11.34,15 11,14.66 11,14.25 L11,9.75 C11,9.34 11.34,9 11.75,9 C12.16,9 12.5,9.34 12.5,9.75 L12.5,14.25 Z M20,14.21 C20,14.65 19.65,15 19.21,15 C18.96,15 18.72,14.88 18.57,14.67 L16.26,11.5 L16.26,14.38 C16.26,14.72 15.98,15 15.64,15 L15.63,15 C15.28,15 15,14.72 15,14.38 L15,9.83 C15,9.37 15.37,9 15.83,9 C16.1,9 16.35,9.13 16.5,9.35 L18.75,12.5 L18.75,9.62 C18.75,9.28 19.03,9 19.37,9 L19.38,9 C19.72,9 20,9.28 20,9.62 L20,14.21 Z M5.5,10.5 L7.5,10.5 L7.5,11.5 L5.5,11.5 L5.5,10.5 Z" id="🔹Icon-Color" fill="#1D1D1D"></path>
                    </g>
                </g>
            </g>
        </g>
    </g>
</svg>