<?xml version="1.0" encoding="UTF-8"?>
<svg width="20px" height="16px" viewBox="0 0 20 16" version="1.1" xmlns="http://www.w3.org/2000/svg" xmlns:xlink="http://www.w3.org/1999/xlink">
    <!-- Generator: Sketch 52.5 (67469) - http://www.bohemiancoding.com/sketch -->
    <title>fiber_new</title>
    <desc>Created with Sketch.</desc>
    <g id="Icons" stroke="none" stroke-width="1" fill="none" fill-rule="evenodd">
        <g id="Rounded" transform="translate(-714.000000, -910.000000)">
            <g id="AV" transform="translate(100.000000, 852.000000)">
                <g id="-Round-/-AV-/-fiber_new" transform="translate(612.000000, 54.000000)">
                    <g>
                        <rect id="Rectangle-Copy-17" x="0" y="0" width="24" height="24"></rect>
                        <path d="M20,4 L4,4 C2.89,4 2.01,4.89 2.01,6 L2,18 C2,19.11 2.89,20 4,20 L20,20 C21.11,20 22,19.11 22,18 L22,6 C22,4.89 21.11,4 20,4 Z M8.5,14.21 C8.5,14.64 8.14,15 7.71,15 C7.46,15 7.22,14.88 7.07,14.67 L4.75,11.5 L4.75,14.38 C4.75,14.73 4.47,15 4.13,15 C3.79,15 3.5,14.72 3.5,14.38 L3.5,9.79 C3.5,9.36 3.86,9 4.29,9 L4.34,9 C4.6,9 4.84,9.12 4.99,9.33 L7.25,12.5 L7.25,9.62 C7.25,9.28 7.53,9 7.88,9 C8.23,9 8.5,9.28 8.5,9.62 L8.5,14.21 Z M13.5,9.64 C13.5,9.99 13.22,10.26 12.88,10.26 L11,10.26 L11,11.38 L12.88,11.38 C13.23,11.38 13.5,11.66 13.5,12 L13.5,12.01 C13.5,12.36 13.22,12.63 12.88,12.63 L11,12.63 L11,13.74 L12.88,13.74 C13.23,13.74 13.5,14.02 13.5,14.36 C13.5,14.71 13.22,14.98 12.88,14.98 L10.35,14.98 C9.88,14.98 9.5,14.6 9.5,14.13 L9.5,9.83 C9.5,9.38 9.88,9 10.35,9 L12.88,9 C13.23,9 13.5,9.28 13.5,9.62 L13.5,9.64 Z M20.5,14 C20.5,14.55 20.05,15 19.5,15 L15.5,15 C14.95,15 14.5,14.55 14.5,14 L14.5,9.62 C14.5,9.28 14.78,9 15.12,9 C15.46,9 15.74,9.28 15.74,9.62 L15.74,13.51 L16.87,13.51 L16.87,10.61 C16.87,10.26 17.15,9.99 17.49,9.99 C17.83,9.99 18.11,10.27 18.11,10.61 L18.11,13.5 L19.23,13.5 L19.23,9.62 C19.23,9.27 19.51,9 19.85,9 C20.19,9 20.47,9.28 20.47,9.62 L20.47,14 L20.5,14 Z" id="🔹Icon-Color" fill="#1D1D1D"></path>
                    </g>
                </g>
            </g>
        </g>
    </g>
</svg>