<?xml version="1.0" encoding="UTF-8"?>
<svg width="22px" height="16px" viewBox="0 0 22 16" version="1.1" xmlns="http://www.w3.org/2000/svg" xmlns:xlink="http://www.w3.org/1999/xlink">
    <!-- Generator: Sketch 52.5 (67469) - http://www.bohemiancoding.com/sketch -->
    <title>fiber_smart_record</title>
    <desc>Created with Sketch.</desc>
    <g id="Icons" stroke="none" stroke-width="1" fill="none" fill-rule="evenodd">
        <g id="Outlined" transform="translate(-237.000000, -910.000000)">
            <g id="Av" transform="translate(100.000000, 852.000000)">
                <g id="Outlined-/-AV-/-fiber_smart_record" transform="translate(136.000000, 54.000000)">
                    <g>
                        <polygon id="Path" points="0 0 24 0 24 24 0 24"></polygon>
                        <path d="M9,4 C4.58,4 1,7.58 1,12 C1,16.42 4.58,20 9,20 C13.42,20 17,16.42 17,12 C17,7.58 13.42,4 9,4 Z M9,18 C5.69,18 3,15.31 3,12 C3,8.69 5.69,6 9,6 C12.31,6 15,8.69 15,12 C15,15.31 12.31,18 9,18 Z M17,4.26 L17,6.35 C19.33,7.17 21,9.39 21,12 C21,14.61 19.33,16.83 17,17.65 L17,19.74 C20.45,18.85 23,15.73 23,12 C23,8.27 20.45,5.15 17,4.26 Z" id="🔹-Icon-Color" fill="#1D1D1D"></path>
                    </g>
                </g>
            </g>
        </g>
    </g>
</svg>