<?xml version="1.0" encoding="UTF-8"?>
<svg width="22px" height="22px" viewBox="0 0 22 22" version="1.1" xmlns="http://www.w3.org/2000/svg" xmlns:xlink="http://www.w3.org/1999/xlink">
    <!-- Generator: Sketch 52.5 (67469) - http://www.bohemiancoding.com/sketch -->
    <title>filter_7</title>
    <desc>Created with Sketch.</desc>
    <g id="Icons" stroke="none" stroke-width="1" fill="none" fill-rule="evenodd">
        <g id="Rounded" transform="translate(-509.000000, -2813.000000)">
            <g id="Image" transform="translate(100.000000, 2626.000000)">
                <g id="-Round-/-Image-/-filter_7" transform="translate(408.000000, 186.000000)">
                    <g transform="translate(0.000000, 0.000000)">
                        <polygon id="Path" points="0 0 24 0 24 24 0 24"></polygon>
                        <path d="M2,5 C1.45,5 1,5.45 1,6 L1,21 C1,22.1 1.9,23 3,23 L18,23 C18.55,23 19,22.55 19,22 C19,21.45 18.55,21 18,21 L4,21 C3.45,21 3,20.55 3,20 L3,6 C3,5.45 2.55,5 2,5 Z M21,1 L7,1 C5.9,1 5,1.9 5,3 L5,17 C5,18.1 5.9,19 7,19 L21,19 C22.1,19 23,18.1 23,17 L23,3 C23,1.9 22.1,1 21,1 Z M20,17 L8,17 C7.45,17 7,16.55 7,16 L7,4 C7,3.45 7.45,3 8,3 L20,3 C20.55,3 21,3.45 21,4 L21,16 C21,16.55 20.55,17 20,17 Z M13.25,14.51 L16.83,7.34 C16.94,7.12 17,6.87 17,6.62 C17,5.72 16.28,5 15.38,5 L12,5 C11.45,5 11,5.45 11,6 C11,6.55 11.45,7 12,7 L15,7 L11.64,13.71 C11.34,14.3 11.77,15 12.44,15 L12.45,15 C12.79,15 13.1,14.81 13.25,14.51 Z" id="🔹-Icon-Color" fill="#1D1D1D"></path>
                    </g>
                </g>
            </g>
        </g>
    </g>
</svg>