<?xml version="1.0" encoding="UTF-8"?>
<svg width="20px" height="20px" viewBox="0 0 20 20" version="1.1" xmlns="http://www.w3.org/2000/svg" xmlns:xlink="http://www.w3.org/1999/xlink">
    <!-- Generator: Sketch 52.5 (67469) - http://www.bohemiancoding.com/sketch -->
    <title>filter_tilt_shift</title>
    <desc>Created with Sketch.</desc>
    <g id="Icons" stroke="none" stroke-width="1" fill="none" fill-rule="evenodd">
        <g id="Rounded" transform="translate(-782.000000, -2814.000000)">
            <g id="Image" transform="translate(100.000000, 2626.000000)">
                <g id="-Round-/-Image-/-filter_tilt_shift" transform="translate(680.000000, 186.000000)">
                    <g transform="translate(0.000000, 0.000000)">
                        <polygon id="Path" points="0 0 24 0 24 24 0 24"></polygon>
                        <path d="M11,3.23 C11,2.59 10.41,2.1 9.79,2.24 C8.67,2.5 7.61,2.94 6.67,3.54 C6.14,3.88 6.06,4.64 6.51,5.09 C6.83,5.41 7.34,5.49 7.72,5.25 C8.49,4.76 9.34,4.4 10.26,4.2 C10.7,4.1 11,3.69 11,3.23 Z M17.33,3.55 C16.39,2.95 15.33,2.51 14.21,2.25 C13.59,2.11 13,2.59 13,3.23 C13,3.68 13.3,4.1 13.74,4.19 C14.65,4.39 15.51,4.76 16.27,5.24 C16.66,5.48 17.16,5.41 17.48,5.08 C17.94,4.64 17.87,3.89 17.33,3.55 Z M20.77,11 C21.41,11 21.9,10.41 21.76,9.79 C21.5,8.67 21.06,7.61 20.46,6.67 C20.12,6.14 19.36,6.06 18.91,6.51 C18.59,6.83 18.51,7.34 18.75,7.72 C19.24,8.49 19.6,9.34 19.8,10.25 C19.9,10.7 20.31,11 20.77,11 Z M5.1,6.51 C4.64,6.06 3.89,6.13 3.55,6.67 C2.95,7.61 2.51,8.67 2.25,9.79 C2.11,10.41 2.59,11 3.23,11 C3.68,11 4.1,10.7 4.19,10.26 C4.39,9.35 4.76,8.49 5.24,7.73 C5.5,7.34 5.42,6.83 5.1,6.51 Z M3.23,13 C2.59,13 2.1,13.59 2.24,14.21 C2.5,15.33 2.94,16.38 3.54,17.33 C3.88,17.87 4.64,17.94 5.09,17.49 C5.41,17.17 5.49,16.66 5.24,16.28 C4.75,15.52 4.39,14.67 4.19,13.75 C4.1,13.3 3.69,13 3.23,13 Z M15,12 C15,10.34 13.66,9 12,9 C10.34,9 9,10.34 9,12 C9,13.66 10.34,15 12,15 C13.66,15 15,13.66 15,12 Z M18.9,17.49 C19.35,17.94 20.11,17.87 20.45,17.34 C21.05,16.4 21.49,15.34 21.75,14.23 C21.89,13.61 21.4,13.02 20.77,13.02 C20.32,13.02 19.9,13.32 19.81,13.76 C19.61,14.67 19.24,15.52 18.76,16.29 C18.5,16.66 18.58,17.17 18.9,17.49 Z M13,20.77 C13,21.41 13.59,21.9 14.21,21.76 C15.33,21.5 16.38,21.06 17.33,20.46 C17.87,20.12 17.94,19.36 17.49,18.91 C17.17,18.59 16.66,18.51 16.28,18.76 C15.52,19.25 14.67,19.61 13.75,19.81 C13.3,19.9 13,20.31 13,20.77 Z M6.67,20.45 C7.62,21.05 8.67,21.49 9.79,21.75 C10.41,21.89 11,21.4 11,20.77 C11,20.32 10.7,19.9 10.26,19.81 C9.35,19.61 8.49,19.24 7.73,18.76 C7.34,18.52 6.84,18.59 6.52,18.92 C6.06,19.36 6.13,20.11 6.67,20.45 Z" id="🔹-Icon-Color" fill="#1D1D1D"></path>
                    </g>
                </g>
            </g>
        </g>
    </g>
</svg>