<?xml version="1.0" encoding="UTF-8"?>
<svg width="22px" height="22px" viewBox="0 0 22 22" version="1.1" xmlns="http://www.w3.org/2000/svg" xmlns:xlink="http://www.w3.org/1999/xlink">
    <!-- Generator: Sketch 52.5 (67469) - http://www.bohemiancoding.com/sketch -->
    <title>filter_none</title>
    <desc>Created with Sketch.</desc>
    <g id="Icons" stroke="none" stroke-width="1" fill="none" fill-rule="evenodd">
        <g id="Two-Tone" transform="translate(-407.000000, -2901.000000)">
            <g id="Image" transform="translate(100.000000, 2626.000000)">
                <g id="Two-Tone-/-Image-/-filter_none" transform="translate(306.000000, 274.000000)">
                    <g>
                        <polygon id="Path" points="0 0 24 0 24 24 0 24"></polygon>
                        <polygon id="🔹-Secondary-Color" fill="#D0D0D0" points="7 3 21 3 21 17 7 17"></polygon>
                        <path d="M3,23 L19,23 L19,21 L3,21 L3,5 L1,5 L1,21 C1,22.1 1.9,23 3,23 Z M21,1 L7,1 C5.9,1 5,1.9 5,3 L5,17 C5,18.1 5.9,19 7,19 L21,19 C22.1,19 23,18.1 23,17 L23,3 C23,1.9 22.1,1 21,1 Z M21,17 L7,17 L7,3 L21,3 L21,17 Z" id="🔹-Primary-Color" fill="#1D1D1D"></path>
                    </g>
                </g>
            </g>
        </g>
    </g>
</svg>