<?xml version="1.0" encoding="UTF-8"?>
<svg width="22px" height="22px" viewBox="0 0 22 22" version="1.1" xmlns="http://www.w3.org/2000/svg" xmlns:xlink="http://www.w3.org/1999/xlink">
    <!-- Generator: Sketch 52.5 (67469) - http://www.bohemiancoding.com/sketch -->
    <title>filter_9_plus</title>
    <desc>Created with Sketch.</desc>
    <g id="Icons" stroke="none" stroke-width="1" fill="none" fill-rule="evenodd">
        <g id="Outlined" transform="translate(-577.000000, -2769.000000)">
            <g id="Image" transform="translate(100.000000, 2626.000000)">
                <g id="Outlined-/-Image-/-filter_9_plus" transform="translate(476.000000, 142.000000)">
                    <g>
                        <polygon id="Path" points="0 0 24 0 24 24 0 24"></polygon>
                        <path d="M3,5 L1,5 L1,21 C1,22.1 1.9,23 3,23 L19,23 L19,21 L3,21 L3,5 Z M14,12 L14,8 C14,6.89 13.1,6 12,6 L11,6 C9.9,6 9,6.89 9,8 L9,9 C9,10.11 9.9,11 11,11 L12,11 L12,12 L9,12 L9,14 L12,14 C13.1,14 14,13.11 14,12 Z M11,9 L11,8 L12,8 L12,9 L11,9 Z M21,1 L7,1 C5.9,1 5,1.9 5,3 L5,17 C5,18.1 5.9,19 7,19 L21,19 C22.1,19 23,18.1 23,17 L23,3 C23,1.9 22.1,1 21,1 Z M21,9 L19,9 L19,7 L17,7 L17,9 L15,9 L15,11 L17,11 L17,13 L19,13 L19,11 L21,11 L21,17 L7,17 L7,3 L21,3 L21,9 Z" id="🔹-Icon-Color" fill="#1D1D1D"></path>
                    </g>
                </g>
            </g>
        </g>
    </g>
</svg>