<?xml version="1.0" encoding="UTF-8"?>
<svg width="22px" height="22px" viewBox="0 0 22 22" version="1.1" xmlns="http://www.w3.org/2000/svg" xmlns:xlink="http://www.w3.org/1999/xlink">
    <!-- Generator: Sketch 52.5 (67469) - http://www.bohemiancoding.com/sketch -->
    <title>flare</title>
    <desc>Created with Sketch.</desc>
    <g id="Icons" stroke="none" stroke-width="1" fill="none" fill-rule="evenodd">
        <g id="Rounded" transform="translate(-509.000000, -2857.000000)">
            <g id="Image" transform="translate(100.000000, 2626.000000)">
                <g id="-Round-/-Image-/-flare" transform="translate(408.000000, 230.000000)">
                    <g>
                        <polygon id="Path" points="0 0 24 0 24 24 0 24"></polygon>
                        <path d="M6,11 L2,11 C1.45,11 1,11.45 1,12 C1,12.55 1.45,13 2,13 L6,13 C6.55,13 7,12.55 7,12 C7,11.45 6.55,11 6,11 Z M8.47,7.06 L7.75,6.34 C7.36,5.95 6.73,5.95 6.34,6.34 C5.95,6.73 5.95,7.36 6.34,7.75 L7.05,8.46 C7.44,8.85 8.07,8.85 8.46,8.46 C8.85,8.08 8.85,7.44 8.47,7.06 Z M12,1 C11.44,1 11,1.45 11,2 L11,6 C11,6.55 11.45,7 12,7 C12.55,7 13,6.55 13,6 L13,2 C13,1.45 12.55,1 12,1 Z M17.66,6.35 C17.27,5.96 16.64,5.96 16.25,6.35 L15.54,7.06 C15.15,7.45 15.15,8.08 15.54,8.47 C15.93,8.86 16.56,8.86 16.95,8.47 L17.66,7.76 C18.04,7.37 18.04,6.73 17.66,6.35 Z M17,12 C17,12.56 17.45,13 18,13 L22,13 C22.55,13 23,12.55 23,12 C23,11.45 22.55,11 22,11 L18,11 C17.45,11 17,11.45 17,12 Z M12,9 C10.34,9 9,10.34 9,12 C9,13.66 10.34,15 12,15 C13.66,15 15,13.66 15,12 C15,10.34 13.66,9 12,9 Z M15.53,16.94 L16.24,17.65 C16.63,18.04 17.26,18.04 17.65,17.65 C18.04,17.26 18.04,16.63 17.65,16.24 L16.94,15.53 C16.55,15.14 15.92,15.14 15.53,15.53 C15.15,15.92 15.15,16.56 15.53,16.94 Z M6.34,17.65 C6.73,18.04 7.36,18.04 7.75,17.65 L8.46,16.94 C8.85,16.55 8.85,15.92 8.46,15.53 C8.07,15.14 7.44,15.14 7.05,15.53 L6.34,16.24 C5.96,16.63 5.96,17.27 6.34,17.65 Z M12,23 C12.56,23 13,22.55 13,22 L13,18 C13,17.45 12.55,17 12,17 C11.45,17 11,17.45 11,18 L11,22 C11,22.55 11.45,23 12,23 Z" id="🔹-Icon-Color" fill="#1D1D1D"></path>
                    </g>
                </g>
            </g>
        </g>
    </g>
</svg>