<?xml version="1.0" encoding="UTF-8"?>
<svg width="18px" height="18px" viewBox="0 0 18 18" version="1.1" xmlns="http://www.w3.org/2000/svg" xmlns:xlink="http://www.w3.org/1999/xlink">
    <!-- Generator: Sketch 52.5 (67469) - http://www.bohemiancoding.com/sketch -->
    <title>flip_to_back</title>
    <desc>Created with Sketch.</desc>
    <g id="Icons" stroke="none" stroke-width="1" fill="none" fill-rule="evenodd">
        <g id="Two-Tone" transform="translate(-171.000000, -245.000000)">
            <g id="Action" transform="translate(100.000000, 100.000000)">
                <g id="Two-Tone-/-Action-/-flip_to_back" transform="translate(68.000000, 142.000000)">
                    <g>
                        <polygon id="Path" points="0 0 24 0 24 24 0 24"></polygon>
                        <path d="M9,7 L7,7 L7,9 L9,9 L9,7 Z M9,11 L7,11 L7,13 L9,13 L9,11 Z M9,3 C7.89,3 7,3.9 7,5 L9,5 L9,3 Z M13,15 L11,15 L11,17 L13,17 L13,15 Z M19,3 L19,5 L21,5 C21,3.9 20.1,3 19,3 Z M13,3 L11,3 L11,5 L13,5 L13,3 Z M9,17 L9,15 L7,15 C7,16.1 7.89,17 9,17 Z M19,13 L21,13 L21,11 L19,11 L19,13 Z M19,9 L21,9 L21,7 L19,7 L19,9 Z M19,17 C20.1,17 21,16.1 21,15 L19,15 L19,17 Z M5,7 L3,7 L3,19 C3,20.1 3.89,21 5,21 L17,21 L17,19 L5,19 L5,7 Z M15,5 L17,5 L17,3 L15,3 L15,5 Z M15,17 L17,17 L17,15 L15,15 L15,17 Z" id="🔹-Primary-Color" fill="#1D1D1D"></path>
                    </g>
                </g>
            </g>
        </g>
    </g>
</svg>