<?xml version="1.0" encoding="UTF-8"?>
<svg width="20px" height="20px" viewBox="0 0 20 20" version="1.1" xmlns="http://www.w3.org/2000/svg" xmlns:xlink="http://www.w3.org/1999/xlink">
    <!-- Generator: Sketch 52.5 (67469) - http://www.bohemiancoding.com/sketch -->
    <title>font_download</title>
    <desc>Created with Sketch.</desc>
    <g id="Icons" stroke="none" stroke-width="1" fill="none" fill-rule="evenodd">
        <g id="Rounded" transform="translate(-340.000000, -1484.000000)">
            <g id="Content" transform="translate(100.000000, 1428.000000)">
                <g id="-Round-/-Content-/-font_download" transform="translate(238.000000, 54.000000)">
                    <g>
                        <polygon id="Path" points="0 0 24 0 24 24 0 24"></polygon>
                        <path d="M9.93,13.5 L14.07,13.5 L12,7.98 L9.93,13.5 Z M20,2 L4,2 C2.9,2 2,2.9 2,4 L2,20 C2,21.1 2.9,22 4,22 L20,22 C21.1,22 22,21.1 22,20 L22,4 C22,2.9 21.1,2 20,2 Z M15.71,17.88 L14.81,15.5 L9.17,15.5 L8.28,17.87 C8.14,18.25 7.78,18.5 7.37,18.5 C6.69,18.5 6.22,17.81 6.47,17.18 L10.72,6.37 C10.94,5.84 11.44,5.5 12,5.5 C12.56,5.5 13.06,5.84 13.27,6.37 L17.52,17.18 C17.77,17.81 17.3,18.5 16.62,18.5 C16.22,18.5 15.86,18.25 15.71,17.88 Z" id="🔹Icon-Color" fill="#1D1D1D"></path>
                    </g>
                </g>
            </g>
        </g>
    </g>
</svg>