<?xml version="1.0" encoding="UTF-8"?>
<svg width="17px" height="20px" viewBox="0 0 17 20" version="1.1" xmlns="http://www.w3.org/2000/svg" xmlns:xlink="http://www.w3.org/1999/xlink">
    <!-- Generator: Sketch 52.5 (67469) - http://www.bohemiancoding.com/sketch -->
    <title>format_paint</title>
    <desc>Created with Sketch.</desc>
    <g id="Icons" stroke="none" stroke-width="1" fill="none" fill-rule="evenodd">
        <g id="Rounded" transform="translate(-512.000000, -2104.000000)">
            <g id="Editor" transform="translate(100.000000, 1960.000000)">
                <g id="-Round-/-Editor-/-format_paint" transform="translate(408.000000, 142.000000)">
                    <g>
                        <polygon id="Path" points="0 0 24 0 24 24 0 24"></polygon>
                        <path d="M18,4 L18,3 C18,2.45 17.55,2 17,2 L5,2 C4.45,2 4,2.45 4,3 L4,7 C4,7.55 4.45,8 5,8 L17,8 C17.55,8 18,7.55 18,7 L18,6 L19,6 L19,10 L10,10 C9.45,10 9,10.45 9,11 L9,21 C9,21.55 9.45,22 10,22 L12,22 C12.55,22 13,21.55 13,21 L13,12 L20,12 C20.55,12 21,11.55 21,11 L21,5 C21,4.45 20.55,4 20,4 L18,4 Z" id="🔹-Icon-Color" fill="#1D1D1D"></path>
                    </g>
                </g>
            </g>
        </g>
    </g>
</svg>