<?xml version="1.0" encoding="UTF-8"?>
<svg width="18px" height="12px" viewBox="0 0 18 12" version="1.1" xmlns="http://www.w3.org/2000/svg" xmlns:xlink="http://www.w3.org/1999/xlink">
    <!-- Generator: Sketch 52.5 (67469) - http://www.bohemiancoding.com/sketch -->
    <title>format_quote</title>
    <desc>Created with Sketch.</desc>
    <g id="Icons" stroke="none" stroke-width="1" fill="none" fill-rule="evenodd">
        <g id="Two-Tone" transform="translate(-613.000000, -2064.000000)">
            <g id="Editor" transform="translate(100.000000, 1960.000000)">
                <g id="Two-Tone-/-Editor-/-format_quote" transform="translate(510.000000, 98.000000)">
                    <g>
                        <polygon id="Path" points="0 0 24 0 24 24 0 24"></polygon>
                        <path d="M16.62,16 L17.38,16 L19,12.76 L19,8 L15,8 L15,12 L18.62,12 L16.62,16 Z M6.62,16 L7.38,16 L9,12.76 L9,8 L5,8 L5,12 L8.62,12 L6.62,16 Z" id="🔹-Secondary-Color" fill="#D0D0D0"></path>
                        <path d="M18.62,18 L21,13.24 L21,6 L13,6 L13,14 L15.38,14 L13.38,18 L18.62,18 Z M15,12 L15,8 L19,8 L19,12.76 L17.38,16 L16.62,16 L18.62,12 L15,12 Z M3.38,18 L8.62,18 L11,13.24 L11,6 L3,6 L3,14 L5.38,14 L3.38,18 Z M5,12 L5,8 L9,8 L9,12.76 L7.38,16 L6.62,16 L8.62,12 L5,12 Z" id="🔹-Primary-Color" fill="#1D1D1D"></path>
                    </g>
                </g>
            </g>
        </g>
    </g>
</svg>