<?xml version="1.0" encoding="UTF-8"?>
<svg width="16px" height="20px" viewBox="0 0 16 20" version="1.1" xmlns="http://www.w3.org/2000/svg" xmlns:xlink="http://www.w3.org/1999/xlink">
    <!-- Generator: Sketch 52.5 (67469) - http://www.bohemiancoding.com/sketch -->
    <title>forward_10</title>
    <desc>Created with Sketch.</desc>
    <g id="Icons" stroke="none" stroke-width="1" fill="none" fill-rule="evenodd">
        <g id="Rounded" transform="translate(-784.000000, -908.000000)">
            <g id="AV" transform="translate(100.000000, 852.000000)">
                <g id="-Round-/-AV-/-forward_10" transform="translate(680.000000, 54.000000)">
                    <g>
                        <rect id="Rectangle-Copy-19" x="0" y="0" width="24" height="24"></rect>
                        <path d="M18.92,14 C18.42,14 18.01,14.37 17.94,14.86 C17.46,18.23 14.17,20.7 10.52,19.82 C8.27,19.28 6.61,17.55 6.13,15.29 C5.32,11.42 8.27,8 12,8 L12,10.79 C12,11.24 12.54,11.46 12.85,11.14 L16.64,7.35 C16.84,7.15 16.84,6.84 16.64,6.64 L12.85,2.85 C12.54,2.54 12,2.76 12,3.21 L12,6 C7.06,6 3.16,10.48 4.16,15.6 C4.76,18.71 7.06,21.1 10.15,21.79 C14.98,22.87 19.3,19.59 19.92,15.12 C20.01,14.53 19.52,14 18.92,14 Z M10.9,17 L10.9,12.73 L10.81,12.73 L9.04,13.36 L9.04,14.05 L10.05,13.74 L10.05,17 L10.9,17 Z M14.32,12.78 C14.14,12.71 13.95,12.68 13.73,12.68 C13.51,12.68 13.32,12.71 13.14,12.78 C12.96,12.85 12.81,12.96 12.69,13.11 C12.57,13.26 12.46,13.45 12.4,13.68 C12.34,13.91 12.3,14.18 12.3,14.5 L12.3,15.24 C12.3,15.56 12.34,15.84 12.41,16.06 C12.48,16.28 12.58,16.48 12.71,16.63 C12.84,16.78 12.99,16.89 13.17,16.96 C13.35,17.03 13.54,17.06 13.76,17.06 C13.98,17.06 14.17,17.03 14.35,16.96 C14.53,16.89 14.68,16.78 14.8,16.63 C14.92,16.48 15.02,16.29 15.09,16.06 C15.16,15.83 15.19,15.56 15.19,15.24 L15.19,14.5 C15.19,14.18 15.15,13.9 15.08,13.68 C15.01,13.46 14.91,13.26 14.78,13.11 C14.65,12.96 14.49,12.85 14.32,12.78 Z M14.33,15.35 C14.33,15.54 14.32,15.7 14.29,15.83 C14.26,15.96 14.23,16.07 14.18,16.15 C14.13,16.23 14.07,16.29 13.99,16.32 C13.91,16.35 13.83,16.37 13.74,16.37 C13.65,16.37 13.56,16.35 13.49,16.32 C13.42,16.29 13.35,16.23 13.3,16.15 C13.25,16.07 13.21,15.96 13.18,15.83 C13.15,15.7 13.14,15.54 13.14,15.35 L13.14,14.38 C13.14,14.19 13.15,14.03 13.18,13.9 C13.21,13.77 13.24,13.67 13.3,13.59 C13.36,13.51 13.41,13.45 13.49,13.42 C13.57,13.39 13.65,13.37 13.74,13.37 C13.83,13.37 13.92,13.39 13.99,13.42 C14.06,13.45 14.13,13.51 14.18,13.59 C14.23,13.67 14.27,13.77 14.3,13.9 C14.33,14.03 14.34,14.19 14.34,14.38 L14.34,15.35 L14.33,15.35 Z" id="🔹Icon-Color" fill="#1D1D1D"></path>
                    </g>
                </g>
            </g>
        </g>
    </g>
</svg>