<?xml version="1.0" encoding="UTF-8"?>
<svg width="16px" height="16px" viewBox="0 0 16 16" version="1.1" xmlns="http://www.w3.org/2000/svg" xmlns:xlink="http://www.w3.org/1999/xlink">
    <!-- Generator: Sketch 52.5 (67469) - http://www.bohemiancoding.com/sketch -->
    <title>forward</title>
    <desc>Created with Sketch.</desc>
    <g id="Icons" stroke="none" stroke-width="1" fill="none" fill-rule="evenodd">
        <g id="Two-Tone" transform="translate(-342.000000, -1486.000000)">
            <g id="Content" transform="translate(100.000000, 1428.000000)">
                <g id="Two-Tone-/-Content-/-forward" transform="translate(238.000000, 54.000000)">
                    <g>
                        <polygon id="Path" points="0 0 24 0 24 24 0 24"></polygon>
                        <polygon id="🔹-Secondary-Color" fill="#D0D0D0" points="14 14 14 15.17 17.17 12 14 8.83 14 10 6 10 6 14"></polygon>
                        <path d="M20,12 L12,4 L12,8 L4,8 L4,16 L12,16 L12,20 L20,12 Z M6,14 L6,10 L14,10 L14,8.83 L17.17,12 L14,15.17 L14,14 L6,14 Z" id="🔹-Primary-Color" fill="#1D1D1D"></path>
                    </g>
                </g>
            </g>
        </g>
    </g>
</svg>