<?xml version="1.0" encoding="UTF-8"?>
<svg width="18px" height="18px" viewBox="0 0 18 18" version="1.1" xmlns="http://www.w3.org/2000/svg" xmlns:xlink="http://www.w3.org/1999/xlink">
    <!-- Generator: Sketch 52.5 (67469) - http://www.bohemiancoding.com/sketch -->
    <title>free_breakfast</title>
    <desc>Created with Sketch.</desc>
    <g id="Icons" stroke="none" stroke-width="1" fill="none" fill-rule="evenodd">
        <g id="Two-Tone" transform="translate(-512.000000, -3923.000000)">
            <g id="Places" transform="translate(100.000000, 3866.000000)">
                <g id="Two-Tone-/-Places-/-free_breakfast" transform="translate(408.000000, 54.000000)">
                    <g>
                        <polygon id="Path" points="0 0 24 0 24 24 0 24"></polygon>
                        <path d="M6,13 C6,14.1 6.9,15 8,15 L14,15 C15.1,15 16,14.1 16,13 L16,5 L6,5 L6,13 Z" id="🔹-Secondary-Color" fill="#D0D0D0"></path>
                        <path d="M4,19 L20,19 L20,21 L4,21 L4,19 Z M20,3 L4,3 L4,13 C4,15.21 5.79,17 8,17 L14,17 C16.21,17 18,15.21 18,13 L18,10 L20,10 C21.11,10 22,9.1 22,8 L22,5 C22,3.89 21.11,3 20,3 Z M16,13 C16,14.1 15.1,15 14,15 L8,15 C6.9,15 6,14.1 6,13 L6,5 L16,5 L16,13 Z M20,8 L18,8 L18,5 L20,5 L20,8 Z" id="🔹-Primary-Color" fill="#1D1D1D"></path>
                    </g>
                </g>
            </g>
        </g>
    </g>
</svg>