<?xml version="1.0" encoding="UTF-8"?>
<svg width="14px" height="14px" viewBox="0 0 14 14" version="1.1" xmlns="http://www.w3.org/2000/svg" xmlns:xlink="http://www.w3.org/1999/xlink">
    <!-- Generator: Sketch 52.5 (67469) - http://www.bohemiancoding.com/sketch -->
    <title>fullscreen</title>
    <desc>Created with Sketch.</desc>
    <g id="Icons" stroke="none" stroke-width="1" fill="none" fill-rule="evenodd">
        <g id="Two-Tone" transform="translate(-683.000000, -3437.000000)">
            <g id="Navigation" transform="translate(100.000000, 3378.000000)">
                <g id="Two-Tone-/-Navigation-/-fullscreen" transform="translate(578.000000, 54.000000)">
                    <g>
                        <polygon id="Path" points="0 0 24 0 24 24 0 24"></polygon>
                        <path d="M7,14 L5,14 L5,19 L10,19 L10,17 L7,17 L7,14 Z M5,10 L7,10 L7,7 L10,7 L10,5 L5,5 L5,10 Z M17,17 L14,17 L14,19 L19,19 L19,14 L17,14 L17,17 Z M14,5 L14,7 L17,7 L17,10 L19,10 L19,5 L14,5 Z" id="🔹-Primary-Color" fill="#1D1D1D"></path>
                    </g>
                </g>
            </g>
        </g>
    </g>
</svg>