<?xml version="1.0" encoding="UTF-8"?>
<svg width="20px" height="20px" viewBox="0 0 20 20" version="1.1" xmlns="http://www.w3.org/2000/svg" xmlns:xlink="http://www.w3.org/1999/xlink">
    <!-- Generator: Sketch 52.5 (67469) - http://www.bohemiancoding.com/sketch -->
    <title>games</title>
    <desc>Created with Sketch.</desc>
    <g id="Icons" stroke="none" stroke-width="1" fill="none" fill-rule="evenodd">
        <g id="Outlined" transform="translate(-136.000000, -908.000000)">
            <g id="Av" transform="translate(100.000000, 852.000000)">
                <g id="Outlined-/-AV-/-games" transform="translate(34.000000, 54.000000)">
                    <g>
                        <polygon id="Path" points="0 0 24 0 24 24 0 24"></polygon>
                        <path d="M13,4 L13,6.67 L12,7.67 L11,6.67 L11,4 L13,4 Z M20,11 L20,13 L17.33,13 L16.33,12 L17.33,11 L20,11 Z M6.67,11 L7.67,12 L6.67,13 L4,13 L4,11 L6.67,11 Z M12,16.33 L13,17.33 L13,20 L11,20 L11,17.33 L12,16.33 Z M15,2 L9,2 L9,7.5 L12,10.5 L15,7.5 L15,2 Z M22,9 L16.5,9 L13.5,12 L16.5,15 L22,15 L22,9 Z M7.5,9 L2,9 L2,15 L7.5,15 L10.5,12 L7.5,9 Z M12,13.5 L9,16.5 L9,22 L15,22 L15,16.5 L12,13.5 Z" id="🔹-Icon-Color" fill="#1D1D1D"></path>
                    </g>
                </g>
            </g>
        </g>
    </g>
</svg>