<?xml version="1.0" encoding="UTF-8"?>
<svg width="14px" height="6px" viewBox="0 0 14 6" version="1.1" xmlns="http://www.w3.org/2000/svg" xmlns:xlink="http://www.w3.org/1999/xlink">
    <!-- Generator: Sketch 52.5 (67469) - http://www.bohemiancoding.com/sketch -->
    <title>gif</title>
    <desc>Created with Sketch.</desc>
    <g id="Icons" stroke="none" stroke-width="1" fill="none" fill-rule="evenodd">
        <g id="Outlined" transform="translate(-921.000000, -295.000000)">
            <g id="Action" transform="translate(100.000000, 100.000000)">
                <g id="Outlined-/-Action-/-gif" transform="translate(816.000000, 186.000000)">
                    <g>
                        <polygon id="Path" points="0 0 24 0 24 24 0 24"></polygon>
                        <path d="M11.5,9 L13,9 L13,15 L11.5,15 L11.5,9 Z M9,9 L6,9 C5.4,9 5,9.5 5,10 L5,14 C5,14.5 5.4,15 6,15 L9,15 C9.6,15 10,14.5 10,14 L10,12 L8.5,12 L8.5,13.5 L6.5,13.5 L6.5,10.5 L10,10.5 L10,10 C10,9.5 9.6,9 9,9 Z M19,10.5 L19,9 L14.5,9 L14.5,15 L16,15 L16,13 L18,13 L18,11.5 L16,11.5 L16,10.5 L19,10.5 Z" id="🔹-Icon-Color" fill="#1D1D1D"></path>
                    </g>
                </g>
            </g>
        </g>
    </g>
</svg>