<?xml version="1.0" encoding="UTF-8"?>
<svg width="22px" height="22px" viewBox="0 0 22 22" version="1.1" xmlns="http://www.w3.org/2000/svg" xmlns:xlink="http://www.w3.org/1999/xlink">
    <!-- Generator: Sketch 52.5 (67469) - http://www.bohemiancoding.com/sketch -->
    <title>gps_off</title>
    <desc>Created with Sketch.</desc>
    <g id="Icons" stroke="none" stroke-width="1" fill="none" fill-rule="evenodd">
        <g id="Two-Tone" transform="translate(-475.000000, -1749.000000)">
            <g id="Device" transform="translate(100.000000, 1650.000000)">
                <g id="Two-Tone-/-Device-/-gps_off" transform="translate(374.000000, 98.000000)">
                    <g>
                        <polygon id="Path" points="0 0 24 0 24 24 0 24"></polygon>
                        <path d="M20.94,11 C20.48,6.83 17.17,3.52 13,3.06 L13,1 L11,1 L11,3.06 C10.02,3.17 9.09,3.44 8.23,3.84 L9.76,5.37 C10.46,5.13 11.22,5 12,5 C15.87,5 19,8.13 19,12 C19,12.79 18.87,13.54 18.63,14.24 L20.16,15.77 C20.56,14.91 20.83,13.98 20.94,13 L23,13 L23,11 L20.94,11 Z M3,4.27 L5.04,6.31 C3.97,7.62 3.26,9.23 3.06,11 L1,11 L1,13 L3.06,13 C3.52,17.17 6.83,20.48 11,20.94 L11,23 L13,23 L13,20.94 C14.77,20.74 16.38,20.03 17.69,18.96 L19.73,21 L21.14,19.59 L4.41,2.86 L3,4.27 Z M16.27,17.54 C15.09,18.45 13.61,19 12,19 C8.13,19 5,15.87 5,12 C5,10.39 5.55,8.91 6.46,7.73 L16.27,17.54 Z" id="🔹-Primary-Color" fill="#1D1D1D"></path>
                    </g>
                </g>
            </g>
        </g>
    </g>
</svg>