<?xml version="1.0" encoding="UTF-8"?>
<svg width="20px" height="19px" viewBox="0 0 20 19" version="1.1" xmlns="http://www.w3.org/2000/svg" xmlns:xlink="http://www.w3.org/1999/xlink">
    <!-- Generator: Sketch 52.5 (67469) - http://www.bohemiancoding.com/sketch -->
    <title>grade</title>
    <desc>Created with Sketch.</desc>
    <g id="Icons" stroke="none" stroke-width="1" fill="none" fill-rule="evenodd">
        <g id="Rounded" transform="translate(-782.000000, -288.000000)">
            <g id="Action" transform="translate(100.000000, 100.000000)">
                <g id="-Round-/-Action-/-grade" transform="translate(680.000000, 186.000000)">
                    <g transform="translate(0.000000, 0.000000)">
                        <polygon id="Path" points="0 0 24 0 24 24 0 24"></polygon>
                        <path d="M12,17.27 L17.17,20.39 C17.55,20.62 18.02,20.28 17.92,19.85 L16.55,13.97 L21.11,10.02 C21.44,9.73 21.27,9.18 20.82,9.14 L14.81,8.63 L12.46,3.09 C12.29,2.68 11.71,2.68 11.54,3.09 L9.19,8.63 L3.18,9.14 C2.74,9.18 2.56,9.73 2.9,10.02 L7.46,13.97 L6.09,19.85 C5.99,20.28 6.46,20.62 6.84,20.39 L12,17.27 Z" id="🔹Icon-Color" fill="#1D1D1D"></path>
                    </g>
                </g>
            </g>
        </g>
    </g>
</svg>