<?xml version="1.0" encoding="UTF-8"?>
<svg width="20px" height="20px" viewBox="0 0 20 20" version="1.1" xmlns="http://www.w3.org/2000/svg" xmlns:xlink="http://www.w3.org/1999/xlink">
    <!-- Generator: Sketch 52.5 (67469) - http://www.bohemiancoding.com/sketch -->
    <title>grid_on</title>
    <desc>Created with Sketch.</desc>
    <g id="Icons" stroke="none" stroke-width="1" fill="none" fill-rule="evenodd">
        <g id="Rounded" transform="translate(-238.000000, -2858.000000)">
            <g id="Image" transform="translate(100.000000, 2626.000000)">
                <g id="-Round-/-Image-/-grid_on" transform="translate(136.000000, 230.000000)">
                    <g>
                        <polygon id="Path" points="0 0 24 0 24 24 0 24"></polygon>
                        <path d="M20,2 L4,2 C2.9,2 2,2.9 2,4 L2,20 C2,21.1 2.9,22 4,22 L20,22 C21.1,22 22,21.1 22,20 L22,4 C22,2.9 21.1,2 20,2 Z M8,20 L5,20 C4.45,20 4,19.55 4,19 L4,16 L8,16 L8,20 Z M8,14 L4,14 L4,10 L8,10 L8,14 Z M8,8 L4,8 L4,5 C4,4.45 4.45,4 5,4 L8,4 L8,8 Z M14,20 L10,20 L10,16 L14,16 L14,20 Z M14,14 L10,14 L10,10 L14,10 L14,14 Z M14,8 L10,8 L10,4 L14,4 L14,8 Z M19,20 L16,20 L16,16 L20,16 L20,19 C20,19.55 19.55,20 19,20 Z M20,14 L16,14 L16,10 L20,10 L20,14 Z M20,8 L16,8 L16,4 L19,4 C19.55,4 20,4.45 20,5 L20,8 Z" id="🔹-Icon-Color" fill="#1D1D1D"></path>
                    </g>
                </g>
            </g>
        </g>
    </g>
</svg>