<?xml version="1.0" encoding="UTF-8"?>
<svg width="18px" height="18px" viewBox="0 0 18 18" version="1.1" xmlns="http://www.w3.org/2000/svg" xmlns:xlink="http://www.w3.org/1999/xlink">
    <!-- Generator: Sketch 52.5 (67469) - http://www.bohemiancoding.com/sketch -->
    <title>hd</title>
    <desc>Created with Sketch.</desc>
    <g id="Icons" stroke="none" stroke-width="1" fill="none" fill-rule="evenodd">
        <g id="Rounded" transform="translate(-103.000000, -953.000000)">
            <g id="AV" transform="translate(100.000000, 852.000000)">
                <g id="-Round-/-AV-/-hd" transform="translate(0.000000, 98.000000)">
                    <g>
                        <rect id="Rectangle" x="0" y="0" width="24" height="24"></rect>
                        <path d="M19,3 L5,3 C3.89,3 3,3.9 3,5 L3,19 C3,20.1 3.89,21 5,21 L19,21 C20.1,21 21,20.1 21,19 L21,5 C21,3.9 20.1,3 19,3 Z M10.25,15 C9.84,15 9.5,14.66 9.5,14.25 L9.5,13 L7.5,13 L7.5,14.25 C7.5,14.66 7.16,15 6.75,15 C6.34,15 6,14.66 6,14.25 L6,9.75 C6,9.34 6.34,9 6.75,9 C7.16,9 7.5,9.34 7.5,9.75 L7.5,11.5 L9.5,11.5 L9.5,9.75 C9.5,9.34 9.84,9 10.25,9 C10.66,9 11,9.34 11,9.75 L11,14.25 C11,14.66 10.66,15 10.25,15 Z M13.5,9 L17,9 C17.55,9 18,9.45 18,10 L18,14 C18,14.55 17.55,15 17,15 L13.5,15 C13.22,15 13,14.78 13,14.5 L13,9.5 C13,9.22 13.22,9 13.5,9 Z M14.5,13.5 L16.5,13.5 L16.5,10.5 L14.5,10.5 L14.5,13.5 Z" id="🔹Icon-Color" fill="#1D1D1D"></path>
                    </g>
                </g>
            </g>
        </g>
    </g>
</svg>