<?xml version="1.0" encoding="UTF-8"?>
<svg width="18px" height="22px" viewBox="0 0 18 22" version="1.1" xmlns="http://www.w3.org/2000/svg" xmlns:xlink="http://www.w3.org/1999/xlink">
    <!-- Generator: Sketch 52.5 (67469) - http://www.bohemiancoding.com/sketch -->
    <title>headset_mic</title>
    <desc>Created with Sketch.</desc>
    <g id="Icons" stroke="none" stroke-width="1" fill="none" fill-rule="evenodd">
        <g id="Rounded" transform="translate(-545.000000, -2459.000000)">
            <g id="Hardware" transform="translate(100.000000, 2404.000000)">
                <g id="-Round-/-Hardware-/-headset_mic" transform="translate(442.000000, 54.000000)">
                    <g>
                        <rect id="Rectangle-Copy-101" x="0" y="0" width="24" height="24"></rect>
                        <path d="M11.4,1.02 C6.62,1.33 3,5.52 3,10.31 L3,17 C3,18.66 4.34,20 6,20 L7,20 C8.1,20 9,19.1 9,18 L9,14 C9,12.9 8.1,12 7,12 L5,12 L5,10.29 C5,6.45 7.96,3.11 11.79,3 C15.76,2.89 19,6.06 19,10 L19,12 L17,12 C15.9,12 15,12.9 15,14 L15,18 C15,19.1 15.9,20 17,20 L19,20 L19,21 L13,21 C12.45,21 12,21.45 12,22 C12,22.55 12.45,23 13,23 L18,23 C19.66,23 21,21.66 21,20 L21,10 C21,4.83 16.64,0.68 11.4,1.02 Z" id="🔹-Icon-Color" fill="#1D1D1D"></path>
                    </g>
                </g>
            </g>
        </g>
    </g>
</svg>