<?xml version="1.0" encoding="UTF-8"?>
<svg width="20px" height="20px" viewBox="0 0 20 20" version="1.1" xmlns="http://www.w3.org/2000/svg" xmlns:xlink="http://www.w3.org/1999/xlink">
    <!-- Generator: Sketch 52.5 (67469) - http://www.bohemiancoding.com/sketch -->
    <title>help</title>
    <desc>Created with Sketch.</desc>
    <g id="Icons" stroke="none" stroke-width="1" fill="none" fill-rule="evenodd">
        <g id="Two-Tone" transform="translate(-816.000000, -288.000000)">
            <g id="Action" transform="translate(100.000000, 100.000000)">
                <g id="Two-Tone-/-Action-/-help" transform="translate(714.000000, 186.000000)">
                    <g>
                        <polygon id="Path" points="0 0 24 0 24 24 0 24"></polygon>
                        <path d="M12,4 C7.59,4 4,7.59 4,12 C4,16.41 7.59,20 12,20 C16.41,20 20,16.41 20,12 C20,7.59 16.41,4 12,4 Z M13,18 L11,18 L11,16 L13,16 L13,18 Z M13,15 L11,15 C11,11.75 14,12 14,10 C14,8.9 13.1,8 12,8 C10.9,8 10,8.9 10,10 L8,10 C8,7.79 9.79,6 12,6 C14.21,6 16,7.79 16,10 C16,12.5 13,12.75 13,15 Z" id="🔹-Secondary-Color" fill="#D0D0D0"></path>
                        <path d="M11,16 L13,16 L13,18 L11,18 L11,16 Z M12,2 C6.48,2 2,6.48 2,12 C2,17.52 6.48,22 12,22 C17.52,22 22,17.52 22,12 C22,6.48 17.52,2 12,2 Z M12,20 C7.59,20 4,16.41 4,12 C4,7.59 7.59,4 12,4 C16.41,4 20,7.59 20,12 C20,16.41 16.41,20 12,20 Z M12,6 C9.79,6 8,7.79 8,10 L10,10 C10,8.9 10.9,8 12,8 C13.1,8 14,8.9 14,10 C14,12 11,11.75 11,15 L13,15 C13,12.75 16,12.5 16,10 C16,7.79 14.21,6 12,6 Z" id="🔹-Primary-Color" fill="#1D1D1D"></path>
                    </g>
                </g>
            </g>
        </g>
    </g>
</svg>