<?xml version="1.0" encoding="UTF-8"?>
<svg width="18px" height="16px" viewBox="0 0 18 16" version="1.1" xmlns="http://www.w3.org/2000/svg" xmlns:xlink="http://www.w3.org/1999/xlink">
    <!-- Generator: Sketch 52.5 (67469) - http://www.bohemiancoding.com/sketch -->
    <title>high_quality</title>
    <desc>Created with Sketch.</desc>
    <g id="Icons" stroke="none" stroke-width="1" fill="none" fill-rule="evenodd">
        <g id="Outlined" transform="translate(-749.000000, -954.000000)">
            <g id="Av" transform="translate(100.000000, 852.000000)">
                <g id="Outlined-/-AV-/-high_quality" transform="translate(646.000000, 98.000000)">
                    <g>
                        <polygon id="Path" points="0 0 24 0 24 24 0 24"></polygon>
                        <path d="M19,4 L5,4 C3.89,4 3,4.9 3,6 L3,18 C3,19.1 3.89,20 5,20 L19,20 C20.1,20 21,19.1 21,18 L21,6 C21,4.9 20.1,4 19,4 Z M19,18 L5,18 L5,6 L19,6 L19,18 Z M7.5,13 L9.5,13 L9.5,15 L11,15 L11,9 L9.5,9 L9.5,11.5 L7.5,11.5 L7.5,9 L6,9 L6,15 L7.5,15 L7.5,13 Z M14,15 L14.75,15 L14.75,16.5 L16.25,16.5 L16.25,15 L17,15 C17.55,15 18,14.55 18,14 L18,10 C18,9.45 17.55,9 17,9 L14,9 C13.45,9 13,9.45 13,10 L13,14 C13,14.55 13.45,15 14,15 Z M14.5,10.5 L16.5,10.5 L16.5,13.5 L14.5,13.5 L14.5,10.5 Z" id="🔹-Icon-Color" fill="#1D1D1D"></path>
                    </g>
                </g>
            </g>
        </g>
    </g>
</svg>