<?xml version="1.0" encoding="UTF-8"?>
<svg width="18px" height="16px" viewBox="0 0 18 16" version="1.1" xmlns="http://www.w3.org/2000/svg" xmlns:xlink="http://www.w3.org/1999/xlink">
    <!-- Generator: Sketch 52.5 (67469) - http://www.bohemiancoding.com/sketch -->
    <title>high_quality</title>
    <desc>Created with Sketch.</desc>
    <g id="Icons" stroke="none" stroke-width="1" fill="none" fill-rule="evenodd">
        <g id="Rounded" transform="translate(-171.000000, -954.000000)">
            <g id="AV" transform="translate(100.000000, 852.000000)">
                <g id="-Round-/-AV-/-high_quality" transform="translate(68.000000, 98.000000)">
                    <g>
                        <rect id="Rectangle-Copy-32" x="0" y="0" width="24" height="24"></rect>
                        <path d="M19,4 L5,4 C3.89,4 3,4.9 3,6 L3,18 C3,19.1 3.89,20 5,20 L19,20 C20.1,20 21,19.1 21,18 L21,6 C21,4.9 20.1,4 19,4 Z M10.25,15 C9.84,15 9.5,14.66 9.5,14.25 L9.5,13 L7.5,13 L7.5,14.25 C7.5,14.66 7.16,15 6.75,15 C6.34,15 6,14.66 6,14.25 L6,9.75 C6,9.34 6.34,9 6.75,9 C7.16,9 7.5,9.34 7.5,9.75 L7.5,11.5 L9.5,11.5 L9.5,9.75 C9.5,9.34 9.84,9 10.25,9 C10.66,9 11,9.34 11,9.75 L11,14.25 C11,14.66 10.66,15 10.25,15 Z M18,14 C18,14.55 17.55,15 17,15 L16.25,15 L16.25,15.75 C16.25,16.16 15.91,16.5 15.5,16.5 C15.09,16.5 14.75,16.16 14.75,15.75 L14.75,15 L14,15 C13.45,15 13,14.55 13,14 L13,10 C13,9.45 13.45,9 14,9 L17,9 C17.55,9 18,9.45 18,10 L18,14 Z M14.5,13.5 L16.5,13.5 L16.5,10.5 L14.5,10.5 L14.5,13.5 Z" id="🔹Icon-Color" fill="#1D1D1D"></path>
                    </g>
                </g>
            </g>
        </g>
    </g>
</svg>