<?xml version="1.0" encoding="UTF-8"?>
<svg width="20px" height="19px" viewBox="0 0 20 19" version="1.1" xmlns="http://www.w3.org/2000/svg" xmlns:xlink="http://www.w3.org/1999/xlink">
    <!-- Generator: Sketch 52.5 (67469) - http://www.bohemiancoding.com/sketch -->
    <title>hot_tub</title>
    <desc>Created with Sketch.</desc>
    <g id="Icons" stroke="none" stroke-width="1" fill="none" fill-rule="evenodd">
        <g id="Two-Tone" transform="translate(-442.000000, -3923.000000)">
            <g id="Places" transform="translate(100.000000, 3866.000000)">
                <g id="Two-Tone-/-Places-/-hot_tub" transform="translate(340.000000, 54.000000)">
                    <g>
                        <polygon id="Path" points="0 0 24 0 24 24 0 24"></polygon>
                        <path d="M7,8 C5.8954305,8 5,7.1045695 5,6 C5,4.8954305 5.8954305,4 7,4 C8.1045695,4 9,4.8954305 9,6 C9,7.1045695 8.1045695,8 7,8 Z M17.42,7.21 L17.35,7.15 C16.32,6.14 15.85,4.79 16.05,3.43 L16.11,3 L18,3 L17.91,3.59 C17.76,4.38 18.01,5.17 18.58,5.79 L18.65,5.86 C19.68,6.86 20.16,8.21 19.95,9.57 L19.89,10 L17.98,10 L18.09,9.41 C18.24,8.62 17.99,7.83 17.42,7.21 Z M11.15,12 L22,12 L22,20 C22,21.1 21.1,22 20,22 L4,22 C2.9,22 2,21.1 2,20 L2,12 L5,12 L5,11.25 C5,10.01 6.01,9 7.25,9 L7.28,9 C7.62,9 7.95,9.09 8.24,9.23 C8.5,9.35 8.74,9.52 8.93,9.73 L10.33,11.28 C10.56,11.54 10.84,11.78 11.15,12 Z M7,20 L7,14 L5,14 L5,20 L7,20 Z M11,20 L11,14 L9,14 L9,20 L11,20 Z M15,20 L15,14 L13,14 L13,20 L15,20 Z M19,20 L19,14 L17,14 L17,20 L19,20 Z M13.42,7.21 L13.35,7.15 C12.32,6.14 11.85,4.79 12.05,3.43 L12.11,3 L14,3 L13.91,3.59 C13.76,4.38 14.01,5.17 14.58,5.79 L14.65,5.86 C15.68,6.86 16.16,8.21 15.95,9.57 L15.89,10 L13.98,10 L14.09,9.41 C14.24,8.62 13.99,7.83 13.42,7.21 Z" id="🔹-Primary-Color" fill="#1D1D1D"></path>
                    </g>
                </g>
            </g>
        </g>
    </g>
</svg>