<?xml version="1.0" encoding="UTF-8"?>
<svg width="12px" height="20px" viewBox="0 0 12 20" version="1.1" xmlns="http://www.w3.org/2000/svg" xmlns:xlink="http://www.w3.org/1999/xlink">
    <!-- Generator: Sketch 52.5 (67469) - http://www.bohemiancoding.com/sketch -->
    <title>hourglass_empty</title>
    <desc>Created with Sketch.</desc>
    <g id="Icons" stroke="none" stroke-width="1" fill="none" fill-rule="evenodd">
        <g id="Outlined" transform="translate(-616.000000, -288.000000)">
            <g id="Action" transform="translate(100.000000, 100.000000)">
                <g id="Outlined-/-Action-/-hourglass_empty" transform="translate(510.000000, 186.000000)">
                    <g>
                        <polygon id="Path" points="0 0 24 0 24 24 0 24"></polygon>
                        <path d="M6,2 L6,8 L6.01,8 L6,8.01 L10,12 L6,16 L6.01,16.01 L6,16.01 L6,22 L18,22 L18,16.01 L17.99,16.01 L18,16 L14,12 L18,8.01 L17.99,8 L18,8 L18,2 L6,2 Z M16,16.5 L16,20 L8,20 L8,16.5 L12,12.5 L16,16.5 Z M12,11.5 L8,7.5 L8,4 L16,4 L16,7.5 L12,11.5 Z" id="🔹-Icon-Color" fill="#1D1D1D"></path>
                    </g>
                </g>
            </g>
        </g>
    </g>
</svg>