<?xml version="1.0" encoding="UTF-8"?>
<svg width="22px" height="6px" viewBox="0 0 22 6" version="1.1" xmlns="http://www.w3.org/2000/svg" xmlns:xlink="http://www.w3.org/1999/xlink">
    <!-- Generator: Sketch 52.5 (67469) - http://www.bohemiancoding.com/sketch -->
    <title>http</title>
    <desc>Created with Sketch.</desc>
    <g id="Icons" stroke="none" stroke-width="1" fill="none" fill-rule="evenodd">
        <g id="Two-Tone" transform="translate(-543.000000, -295.000000)">
            <g id="Action" transform="translate(100.000000, 100.000000)">
                <g id="Two-Tone-/-Action-/-http" transform="translate(442.000000, 186.000000)">
                    <g>
                        <polygon id="Path" opacity="0.87" points="24 24 0 24 0 0 24 0"></polygon>
                        <path d="M4.5,11 L2.5,11 L2.5,9 L1,9 L1,15 L2.5,15 L2.5,12.5 L4.5,12.5 L4.5,15 L6,15 L6,9 L4.5,9 L4.5,11 Z M7,10.5 L8.5,10.5 L8.5,15 L10,15 L10,10.5 L11.5,10.5 L11.5,9 L7,9 L7,10.5 Z M12.5,10.5 L14,10.5 L14,15 L15.5,15 L15.5,10.5 L17,10.5 L17,9 L12.5,9 L12.5,10.5 Z M21.5,9 L18,9 L18,15 L19.5,15 L19.5,13 L21.5,13 C22.3,13 23,12.3 23,11.5 L23,10.5 C23,9.7 22.3,9 21.5,9 Z M21.5,11.5 L19.5,11.5 L19.5,10.5 L21.5,10.5 L21.5,11.5 Z" id="🔹-Primary-Color" fill="#1D1D1D"></path>
                    </g>
                </g>
            </g>
        </g>
    </g>
</svg>