<?xml version="1.0" encoding="UTF-8"?>
<svg width="21px" height="20px" viewBox="0 0 21 20" version="1.1" xmlns="http://www.w3.org/2000/svg" xmlns:xlink="http://www.w3.org/1999/xlink">
    <!-- Generator: Sketch 52.5 (67469) - http://www.bohemiancoding.com/sketch -->
    <title>image_search</title>
    <desc>Created with Sketch.</desc>
    <g id="Icons" stroke="none" stroke-width="1" fill="none" fill-rule="evenodd">
        <g id="Two-Tone" transform="translate(-408.000000, -2814.000000)">
            <g id="Image" transform="translate(100.000000, 2626.000000)">
                <g id="Two-Tone-/-Image-/-image_search" transform="translate(306.000000, 186.000000)">
                    <g>
                        <polygon id="Path" points="0 0 24 0 24 24 0 24"></polygon>
                        <path d="M17.7,11.53 C17,11.84 16.25,12 15.49,12 C12.46,12 10,9.53 10,6.5 C10,6.33 10.01,6.16 10.03,6 L4,6 L4,20 L18,20 L18,11.83 L17.7,11.53 Z M5.5,18 L8.25,14.47 L10.21,16.83 L12.96,13.29 L16.5,18 L5.5,18 Z" id="🔹-Secondary-Color" fill="#D0D0D0"></path>
                        <path d="M10.21,16.83 L8.25,14.47 L5.5,18 L16.5,18 L12.96,13.29 L10.21,16.83 Z M20,6.5 C20,4.01 17.99,2 15.5,2 C13.01,2 11,4.01 11,6.5 C11,8.99 13.01,11 15.49,11 C16.37,11 17.19,10.74 17.88,10.3 L21,13.42 L22.42,12 L19.3,8.89 C19.74,8.19 20,7.38 20,6.5 Z M15.5,9 C14.12,9 13,7.88 13,6.5 C13,5.12 14.12,4 15.5,4 C16.88,4 18,5.12 18,6.5 C18,7.88 16.88,9 15.5,9 Z M18,20 L4,20 L4,6 L10.03,6 C10.09,5.28 10.3,4.61 10.61,4 L4,4 C2.9,4 2,4.9 2,6 L2,20 C2,21.1 2.9,22 4,22 L18,22 C19.1,22 20,21.1 20,20 L20,13.83 L18,11.83 L18,20 Z" id="🔹-Primary-Color" fill="#1D1D1D"></path>
                    </g>
                </g>
            </g>
        </g>
    </g>
</svg>