<?xml version="1.0" encoding="UTF-8"?>
<svg width="20px" height="20px" viewBox="0 0 20 20" version="1.1" xmlns="http://www.w3.org/2000/svg" xmlns:xlink="http://www.w3.org/1999/xlink">
    <!-- Generator: Sketch 52.5 (67469) - http://www.bohemiancoding.com/sketch -->
    <title>image_search</title>
    <desc>Created with Sketch.</desc>
    <g id="Icons" stroke="none" stroke-width="1" fill="none" fill-rule="evenodd">
        <g id="Rounded" transform="translate(-816.000000, -2814.000000)">
            <g id="Image" transform="translate(100.000000, 2626.000000)">
                <g id="-Round-/-Image-/-image_search" transform="translate(714.000000, 186.000000)">
                    <g>
                        <polygon id="Path" points="0 0 24 0 24 24 0 24"></polygon>
                        <path d="M18,15 L18,19 C18,19.55 17.55,20 17,20 L5,20 C4.45,20 4,19.55 4,19 L4,7 C4,6.45 4.45,6 5,6 L8.02,6 C8.57,6 9.02,5.55 9.02,5 C9.02,4.45 8.57,4 8.02,4 L4,4 C2.9,4 2,4.9 2,6 L2,20 C2,21.1 2.9,22 4,22 L18,22 C19.1,22 20,21.1 20,20 L20,15 C20,14.45 19.55,14 19,14 C18.45,14 18,14.45 18,15 Z M15.5,18 L6.52,18 C6.1,18 5.87,17.52 6.13,17.19 L7.87,14.96 C8.07,14.71 8.45,14.7 8.65,14.95 L10.21,16.83 L12.56,13.81 C12.76,13.55 13.16,13.55 13.35,13.82 L15.9,17.21 C16.15,17.53 15.91,18 15.5,18 Z M19.3,8.89 C19.78,8.12 20.05,7.22 19.99,6.23 C19.86,4.08 18.15,2.26 16.02,2.03 C13.3,1.73 11,3.84 11,6.5 C11,8.99 13.01,11 15.49,11 C16.37,11 17.19,10.74 17.88,10.3 L20.29,12.71 C20.68,13.1 21.32,13.1 21.71,12.71 C22.1,12.32 22.1,11.68 21.71,11.29 L19.3,8.89 Z M15.5,9 C14.12,9 13,7.88 13,6.5 C13,5.12 14.12,4 15.5,4 C16.88,4 18,5.12 18,6.5 C18,7.88 16.88,9 15.5,9 Z" id="🔹-Icon-Color" fill="#1D1D1D"></path>
                    </g>
                </g>
            </g>
        </g>
    </g>
</svg>