<?xml version="1.0" encoding="UTF-8"?>
<svg width="24px" height="20px" viewBox="0 0 24 20" version="1.1" xmlns="http://www.w3.org/2000/svg" xmlns:xlink="http://www.w3.org/1999/xlink">
    <!-- Generator: Sketch 52.5 (67469) - http://www.bohemiancoding.com/sketch -->
    <title>important_devices</title>
    <desc>Created with Sketch.</desc>
    <g id="Icons" stroke="none" stroke-width="1" fill="none" fill-rule="evenodd">
        <g id="Rounded" transform="translate(-882.000000, -332.000000)">
            <g id="Action" transform="translate(100.000000, 100.000000)">
                <g id="-Round-/-Action-/-important_devices" transform="translate(782.000000, 230.000000)">
                    <g transform="translate(0.000000, 0.000000)">
                        <polygon id="Path" points="0 0 24 0 24 24 0 24"></polygon>
                        <path d="M23,11.01 L18,11 C17.45,11 17,11.45 17,12 L17,21 C17,21.55 17.45,22 18,22 L23,22 C23.55,22 24,21.55 24,21 L24,12 C24,11.45 23.55,11.01 23,11.01 Z M23,20 L18,20 L18,13 L23,13 L23,20 Z M20,2 L2,2 C0.9,2 0,2.9 0,4 L0,16 C0,17.1 0.9,18 2,18 L9,18 L9,20 L8,20 C7.45,20 7,20.45 7,21 C7,21.55 7.45,22 8,22 L14,22 C14.55,22 15,21.55 15,21 C15,20.45 14.55,20 14,20 L13,20 L13,18 L14,18 C14.55,18 15,17.55 15,17 C15,16.45 14.55,16 14,16 L3,16 C2.45,16 2,15.55 2,15 L2,5 C2,4.45 2.45,4 3,4 L19,4 C19.55,4 20,4.45 20,5 L20,8 C20,8.55 20.45,9 21,9 C21.55,9 22,8.55 22,8 L22,4 C22,2.9 21.1,2 20,2 Z M11.97,9 L11,6 L10.03,9 L7,9 L9.47,10.76 L8.53,13.67 L11,11.87 L13.47,13.67 L12.53,10.76 L15,9 L11.97,9 Z" id="🔹Icon-Color" fill="#1D1D1D"></path>
                    </g>
                </g>
            </g>
        </g>
    </g>
</svg>