<?xml version="1.0" encoding="UTF-8"?>
<svg width="18px" height="18px" viewBox="0 0 18 18" version="1.1" xmlns="http://www.w3.org/2000/svg" xmlns:xlink="http://www.w3.org/1999/xlink">
    <!-- Generator: Sketch 52.5 (67469) - http://www.bohemiancoding.com/sketch -->
    <title>inbox</title>
    <desc>Created with Sketch.</desc>
    <g id="Icons" stroke="none" stroke-width="1" fill="none" fill-rule="evenodd">
        <g id="Two-Tone" transform="translate(-205.000000, -1485.000000)">
            <g id="Content" transform="translate(100.000000, 1428.000000)">
                <g id="Two-Tone-/-Content-/-inbox" transform="translate(102.000000, 54.000000)">
                    <g>
                        <polygon id="Path" points="0 0 24 0 24 24 0 24"></polygon>
                        <path d="M12.01,18 C10.53,18 9.26,17.19 8.56,16 L5,16 L5,19 L19,19 L19,16 L15.45,16 C14.76,17.19 13.48,18 12.01,18 Z" id="🔹-Secondary-Color" fill="#D0D0D0"></path>
                        <path d="M19,3 L5,3 C3.9,3 3,3.9 3,5 L3,19 C3,20.1 3.89,21 5,21 L19,21 C20.1,21 21,20.1 21,19 L21,5 C21,3.9 20.1,3 19,3 Z M19,19 L5,19 L5,16 L8.56,16 C9.25,17.19 10.53,18 12.01,18 C13.49,18 14.76,17.19 15.46,16 L19,16 L19,19 Z M19,14 L14,14 C14,15.1 13.1,16 12,16 C10.9,16 10,15.1 10,14 L5,14 L5,5 L19,5 L19,14 Z" id="🔹-Primary-Color" fill="#1D1D1D"></path>
                    </g>
                </g>
            </g>
        </g>
    </g>
</svg>