<?xml version="1.0" encoding="UTF-8"?>
<svg width="18px" height="16px" viewBox="0 0 18 16" version="1.1" xmlns="http://www.w3.org/2000/svg" xmlns:xlink="http://www.w3.org/1999/xlink">
    <!-- Generator: Sketch 52.5 (67469) - http://www.bohemiancoding.com/sketch -->
    <title>ine_weight</title>
    <desc>Created with Sketch.</desc>
    <g id="Icons" stroke="none" stroke-width="1" fill="none" fill-rule="evenodd">
        <g id="Rounded" transform="translate(-545.000000, -334.000000)">
            <g id="Action" transform="translate(100.000000, 100.000000)">
                <g id="-Round-/-Action-/-ine_weight" transform="translate(442.000000, 230.000000)">
                    <g>
                        <polygon id="Path" points="0 0 24 0 24 24 0 24"></polygon>
                        <path d="M20,15 L4,15 C3.45,15 3,15.45 3,16 C3,16.55 3.45,17 4,17 L20,17 C20.55,17 21,16.55 21,16 C21,15.45 20.55,15 20,15 Z M20,10 L4,10 C3.45,10 3,10.45 3,11 L3,12 C3,12.55 3.45,13 4,13 L20,13 C20.55,13 21,12.55 21,12 L21,11 C21,10.45 20.55,10 20,10 Z M20,4 L4,4 C3.45,4 3,4.45 3,5 L3,7 C3,7.55 3.45,8 4,8 L20,8 C20.55,8 21,7.55 21,7 L21,5 C21,4.45 20.55,4 20,4 Z M20.5,19 L3.5,19 C3.22,19 3,19.22 3,19.5 C3,19.78 3.22,20 3.5,20 L20.5,20 C20.78,20 21,19.78 21,19.5 C21,19.22 20.78,19 20.5,19 Z" id="🔹Icon-Color" fill="#1D1D1D"></path>
                    </g>
                </g>
            </g>
        </g>
    </g>
</svg>