<?xml version="1.0" encoding="UTF-8"?>
<svg width="16px" height="20px" viewBox="0 0 16 20" version="1.1" xmlns="http://www.w3.org/2000/svg" xmlns:xlink="http://www.w3.org/1999/xlink">
    <!-- Generator: Sketch 52.5 (67469) - http://www.bohemiancoding.com/sketch -->
    <title>insert_drive_file</title>
    <desc>Created with Sketch.</desc>
    <g id="Icons" stroke="none" stroke-width="1" fill="none" fill-rule="evenodd">
        <g id="Rounded" transform="translate(-886.000000, -2016.000000)">
            <g id="Editor" transform="translate(100.000000, 1960.000000)">
                <g id="-Round-/-Editor-/-insert_drive_file" transform="translate(782.000000, 54.000000)">
                    <g>
                        <polygon id="Path" points="0 0 24 0 24 24 0 24"></polygon>
                        <path d="M6,2 C4.9,2 4.01,2.9 4.01,4 L4,20 C4,21.1 4.89,22 5.99,22 L18,22 C19.1,22 20,21.1 20,20 L20,8.83 C20,8.3 19.79,7.79 19.41,7.42 L14.58,2.59 C14.21,2.21 13.7,2 13.17,2 L6,2 Z M13,8 L13,3.5 L18.5,9 L14,9 C13.45,9 13,8.55 13,8 Z" id="🔹-Icon-Color" fill="#1D1D1D"></path>
                    </g>
                </g>
            </g>
        </g>
    </g>
</svg>