<?xml version="1.0" encoding="UTF-8"?>
<svg width="18px" height="21px" viewBox="0 0 18 21" version="1.1" xmlns="http://www.w3.org/2000/svg" xmlns:xlink="http://www.w3.org/1999/xlink">
    <!-- Generator: Sketch 52.5 (67469) - http://www.bohemiancoding.com/sketch -->
    <title>invert_colors_off</title>
    <desc>Created with Sketch.</desc>
    <g id="Icons" stroke="none" stroke-width="1" fill="none" fill-rule="evenodd">
        <g id="Rounded" transform="translate(-137.000000, -1306.000000)">
            <g id="Communication" transform="translate(100.000000, 1162.000000)">
                <g id="-Round-/-Communication-/-invert_colors_off" transform="translate(34.000000, 142.000000)">
                    <g>
                        <polygon id="Path" points="0 0 24 0 24 24 0 24"></polygon>
                        <path d="M12,5.1 L12,9.15 L19.4,16.55 C20.55,13.67 19.99,10.27 17.65,7.94 L12.71,2.99 C12.32,2.6 11.69,2.6 11.3,2.99 L8.56,5.71 L9.97,7.12 L12,5.1 Z M3.69,5.08 C3.3,5.47 3.3,6.1 3.69,6.49 L5.77,8.57 C3.23,11.71 3.42,16.32 6.34,19.25 C7.9,20.8 9.95,21.58 12,21.58 C13.78,21.58 15.56,20.99 17.02,19.81 L19.02,21.81 C19.41,22.2 20.04,22.2 20.43,21.81 C20.82,21.42 20.82,20.79 20.43,20.4 L5.11,5.08 C4.72,4.69 4.08,4.69 3.69,5.08 Z M12,19.59 C10.4,19.59 8.89,18.97 7.76,17.83 C6.62,16.69 6,15.19 6,13.59 C6,12.27 6.43,11.03 7.21,10 L12,14.79 L12,19.59 Z" id="🔹Icon-Color" fill="#1D1D1D"></path>
                    </g>
                </g>
            </g>
        </g>
    </g>
</svg>