<?xml version="1.0" encoding="UTF-8"?>
<svg width="14px" height="19px" viewBox="0 0 14 19" version="1.1" xmlns="http://www.w3.org/2000/svg" xmlns:xlink="http://www.w3.org/1999/xlink">
    <!-- Generator: Sketch 52.5 (67469) - http://www.bohemiancoding.com/sketch -->
    <title>keyboard_voice</title>
    <desc>Created with Sketch.</desc>
    <g id="Icons" stroke="none" stroke-width="1" fill="none" fill-rule="evenodd">
        <g id="Rounded" transform="translate(-105.000000, -2504.000000)">
            <g id="Hardware" transform="translate(100.000000, 2404.000000)">
                <g id="-Round-/-Hardware-/-keyboard_voice" transform="translate(0.000000, 98.000000)">
                    <g>
                        <rect id="Rectangle-Copy-112" x="0" y="0" width="24" height="24"></rect>
                        <path d="M12,14 C13.66,14 14.99,12.66 14.99,11 L15,5 C15,3.34 13.66,2 12,2 C10.34,2 9,3.34 9,5 L9,11 C9,12.66 10.34,14 12,14 Z M18.08,11 C17.66,11 17.31,11.3 17.25,11.71 C16.88,14.32 14.53,16.1 12,16.1 C9.47,16.1 7.12,14.33 6.75,11.71 C6.69,11.3 6.33,11 5.92,11 C5.4,11 5,11.46 5.07,11.97 C5.53,14.94 8.03,17.27 11,17.72 L11,20 C11,20.55 11.45,21 12,21 C12.55,21 13,20.55 13,20 L13,17.72 C15.96,17.29 18.47,14.94 18.93,11.97 C19,11.46 18.6,11 18.08,11 Z" id="🔹-Icon-Color" fill="#1D1D1D"></path>
                    </g>
                </g>
            </g>
        </g>
    </g>
</svg>