<?xml version="1.0" encoding="UTF-8"?>
<svg width="19px" height="14px" viewBox="0 0 19 14" version="1.1" xmlns="http://www.w3.org/2000/svg" xmlns:xlink="http://www.w3.org/1999/xlink">
    <!-- Generator: Sketch 52.5 (67469) - http://www.bohemiancoding.com/sketch -->
    <title>label</title>
    <desc>Created with Sketch.</desc>
    <g id="Icons" stroke="none" stroke-width="1" fill="none" fill-rule="evenodd">
        <g id="Two-Tone" transform="translate(-341.000000, -291.000000)">
            <g id="Action" transform="translate(100.000000, 100.000000)">
                <g id="Two-Tone-/-Action-/-label" transform="translate(238.000000, 186.000000)">
                    <g>
                        <polygon id="Path" points="0 0 24 0 24 24 0 24"></polygon>
                        <polygon id="🔹-Secondary-Color" fill="#D0D0D0" points="16 7 5 7 5 17 16 17 19.55 12"></polygon>
                        <path d="M17.63,5.84 C17.27,5.33 16.67,5 16,5 L5,5.01 C3.9,5.01 3,5.9 3,7 L3,17 C3,18.1 3.9,18.99 5,18.99 L16,19 C16.67,19 17.27,18.67 17.63,18.16 L22,12 L17.63,5.84 Z M16,17 L5,17 L5,7 L16,7 L19.55,12 L16,17 Z" id="🔹-Primary-Color" fill="#1D1D1D"></path>
                    </g>
                </g>
            </g>
        </g>
    </g>
</svg>