<?xml version="1.0" encoding="UTF-8"?>
<svg width="17px" height="14px" viewBox="0 0 17 14" version="1.1" xmlns="http://www.w3.org/2000/svg" xmlns:xlink="http://www.w3.org/1999/xlink">
    <!-- Generator: Sketch 52.5 (67469) - http://www.bohemiancoding.com/sketch -->
    <title>label_important</title>
    <desc>Created with Sketch.</desc>
    <g id="Icons" stroke="none" stroke-width="1" fill="none" fill-rule="evenodd">
        <g id="Two-Tone" transform="translate(-308.000000, -291.000000)">
            <g id="Action" transform="translate(100.000000, 100.000000)">
                <g id="Two-Tone-/-Action-/-label_important" transform="translate(204.000000, 186.000000)">
                    <g>
                        <polygon id="Path" points="0 0 24 0 24 24 0 24"></polygon>
                        <polygon id="🔹-Secondary-Color" fill="#D0D0D0" points="15 7 7.89 7 11.46 12 7.89 17 15 17 18.55 12"></polygon>
                        <path d="M16.63,5.84 C16.27,5.33 15.67,5 15,5 L4,5 L9,12 L4,18.99 L15,18.99 C15.67,18.99 16.27,18.67 16.63,18.16 L21,12 L16.63,5.84 Z M15,17 L7.89,17 L11.46,12 L7.89,7 L15,7 L18.55,12 L15,17 Z" id="🔹-Primary-Color" fill="#1D1D1D"></path>
                    </g>
                </g>
            </g>
        </g>
    </g>
</svg>