<?xml version="1.0" encoding="UTF-8"?>
<svg width="20px" height="12px" viewBox="0 0 20 12" version="1.1" xmlns="http://www.w3.org/2000/svg" xmlns:xlink="http://www.w3.org/1999/xlink">
    <!-- Generator: Sketch 52.5 (67469) - http://www.bohemiancoding.com/sketch -->
    <title>landscape</title>
    <desc>Created with Sketch.</desc>
    <g id="Icons" stroke="none" stroke-width="1" fill="none" fill-rule="evenodd">
        <g id="Rounded" transform="translate(-476.000000, -2906.000000)">
            <g id="Image" transform="translate(100.000000, 2626.000000)">
                <g id="-Round-/-Image-/-landscape" transform="translate(374.000000, 274.000000)">
                    <g>
                        <polygon id="Path" points="0 0 24 0 24 24 0 24"></polygon>
                        <path d="M13.2,7.07 L10.25,11 L12.5,14 C12.83,14.44 12.74,15.07 12.3,15.4 C11.86,15.73 11.23,15.65 10.9,15.2 C9.85,13.8 8.59,12.13 7.8,11.06 C7.4,10.53 6.6,10.53 6.2,11.06 L2.2,16.39 C1.71,17.06 2.18,18 3,18 L21,18 C21.82,18 22.29,17.06 21.8,16.4 L14.8,7.07 C14.4,6.53 13.6,6.53 13.2,7.07 Z" id="🔹-Icon-Color" fill="#1D1D1D"></path>
                    </g>
                </g>
            </g>
        </g>
    </g>
</svg>