<?xml version="1.0" encoding="UTF-8"?>
<svg width="24px" height="17px" viewBox="0 0 24 17" version="1.1" xmlns="http://www.w3.org/2000/svg" xmlns:xlink="http://www.w3.org/1999/xlink">
    <!-- Generator: Sketch 52.5 (67469) - http://www.bohemiancoding.com/sketch -->
    <title>laptop_windows</title>
    <desc>Created with Sketch.</desc>
    <g id="Icons" stroke="none" stroke-width="1" fill="none" fill-rule="evenodd">
        <g id="Two-Tone" transform="translate(-644.000000, -2505.000000)">
            <g id="Hardware" transform="translate(100.000000, 2404.000000)">
                <g id="Two-Tone-/-Hardware-/-laptop_windows" transform="translate(544.000000, 98.000000)">
                    <g>
                        <polygon id="Path" points="0 0 24 0 24 24 0 24"></polygon>
                        <polygon id="🔹-Secondary-Color" fill="#D0D0D0" points="4 5 20 5 20 15 4 15"></polygon>
                        <path d="M20,18 L20,17 C21.1,17 21.99,16.1 21.99,15 L22,5 C22,3.9 21.1,3 20,3 L4,3 C2.9,3 2,3.9 2,5 L2,15 C2,16.1 2.9,17 4,17 L4,18 L0,18 L0,20 L24,20 L24,18 L20,18 Z M4,5 L20,5 L20,15 L4,15 L4,5 Z" id="🔹-Primary-Color" fill="#1D1D1D"></path>
                    </g>
                </g>
            </g>
        </g>
    </g>
</svg>