<?xml version="1.0" encoding="UTF-8"?>
<svg width="24px" height="17px" viewBox="0 0 24 17" version="1.1" xmlns="http://www.w3.org/2000/svg" xmlns:xlink="http://www.w3.org/1999/xlink">
    <!-- Generator: Sketch 52.5 (67469) - http://www.bohemiancoding.com/sketch -->
    <title>laptop_chromebook</title>
    <desc>Created with Sketch.</desc>
    <g id="Icons" stroke="none" stroke-width="1" fill="none" fill-rule="evenodd">
        <g id="Rounded" transform="translate(-168.000000, -2505.000000)">
            <g id="Hardware" transform="translate(100.000000, 2404.000000)">
                <g id="-Round-/-Hardware-/-laptop_chromebook" transform="translate(68.000000, 98.000000)">
                    <g>
                        <rect id="Rectangle-Copy-114" x="0" y="0" width="24" height="24"></rect>
                        <path d="M23,18 L22,18 L22,5 C22,3.9 21.1,3 20,3 L4,3 C2.9,3 2,3.9 2,5 L2,18 L1,18 C0.45,18 0,18.45 0,19 C0,19.55 0.45,20 1,20 L23,20 C23.55,20 24,19.55 24,19 C24,18.45 23.55,18 23,18 Z M13.5,18 L10.5,18 C10.22,18 10,17.78 10,17.5 C10,17.22 10.22,17 10.5,17 L13.5,17 C13.78,17 14,17.22 14,17.5 C14,17.78 13.78,18 13.5,18 Z M20,15 L4,15 L4,6 C4,5.45 4.45,5 5,5 L19,5 C19.55,5 20,5.45 20,6 L20,15 Z" id="🔹-Icon-Color" fill="#1D1D1D"></path>
                    </g>
                </g>
            </g>
        </g>
    </g>
</svg>