<?xml version="1.0" encoding="UTF-8"?>
<svg width="18px" height="19px" viewBox="0 0 18 19" version="1.1" xmlns="http://www.w3.org/2000/svg" xmlns:xlink="http://www.w3.org/1999/xlink">
    <!-- Generator: Sketch 52.5 (67469) - http://www.bohemiancoding.com/sketch -->
    <title>layers</title>
    <desc>Created with Sketch.</desc>
    <g id="Icons" stroke="none" stroke-width="1" fill="none" fill-rule="evenodd">
        <g id="Rounded" transform="translate(-375.000000, -3168.000000)">
            <g id="Maps" transform="translate(100.000000, 3068.000000)">
                <g id="-Round-/-Maps-/-layers" transform="translate(272.000000, 98.000000)">
                    <g>
                        <polygon id="Path" points="0 0 24 0 24 24 0 24"></polygon>
                        <path d="M12.6,18.06 C12.24,18.34 11.73,18.34 11.37,18.06 L5.22,13.28 C4.86,13 4.36,13 4,13.28 C3.49,13.68 3.49,14.45 4,14.85 L10.76,20.11 C11.48,20.67 12.49,20.67 13.22,20.11 L19.98,14.85 C20.49,14.45 20.49,13.68 19.98,13.28 L19.97,13.27 C19.61,12.99 19.11,12.99 18.75,13.27 L12.6,18.06 Z M13.23,15.04 L19.99,9.78 C20.5,9.38 20.5,8.6 19.99,8.2 L13.23,2.94 C12.51,2.38 11.5,2.38 10.77,2.94 L4.01,8.21 C3.5,8.61 3.5,9.39 4.01,9.79 L10.77,15.05 C11.49,15.61 12.51,15.61 13.23,15.04 Z" id="🔹-Icon-Color" fill="#1D1D1D"></path>
                    </g>
                </g>
            </g>
        </g>
    </g>
</svg>