<?xml version="1.0" encoding="UTF-8"?>
<svg width="18px" height="18px" viewBox="0 0 18 18" version="1.1" xmlns="http://www.w3.org/2000/svg" xmlns:xlink="http://www.w3.org/1999/xlink">
    <!-- Generator: Sketch 52.5 (67469) - http://www.bohemiancoding.com/sketch -->
    <title>leak_add</title>
    <desc>Created with Sketch.</desc>
    <g id="Icons" stroke="none" stroke-width="1" fill="none" fill-rule="evenodd">
        <g id="Two-Tone" transform="translate(-919.000000, -2903.000000)">
            <g id="Image" transform="translate(100.000000, 2626.000000)">
                <g id="Two-Tone-/-Image-/-leak_add" transform="translate(816.000000, 274.000000)">
                    <g>
                        <polygon id="Path" points="0 0 24 0 24 24 0 24"></polygon>
                        <path d="M18,21 L21,21 L21,18 C19.34,18 18,19.34 18,21 Z M3,14 C9.08,14 14,9.07 14,3 L12,3 C12,7.97 7.97,12 3,12 L3,14 Z M14,21 L16,21 C16,18.24 18.24,16 21,16 L21,14 C17.13,14 14,17.13 14,21 Z M3,10 C6.87,10 10,6.87 10,3 L8,3 C8,5.76 5.76,8 3,8 L3,10 Z M10,21 L12,21 C12,16.03 16.03,12 21,12 L21,10 C14.93,10 10,14.93 10,21 Z M3,3 L3,6 C4.66,6 6,4.66 6,3 L3,3 Z" id="🔹-Primary-Color" fill="#1D1D1D"></path>
                    </g>
                </g>
            </g>
        </g>
    </g>
</svg>