<?xml version="1.0" encoding="UTF-8"?>
<svg width="18px" height="16px" viewBox="0 0 18 16" version="1.1" xmlns="http://www.w3.org/2000/svg" xmlns:xlink="http://www.w3.org/1999/xlink">
    <!-- Generator: Sketch 52.5 (67469) - http://www.bohemiancoding.com/sketch -->
    <title>line_style</title>
    <desc>Created with Sketch.</desc>
    <g id="Icons" stroke="none" stroke-width="1" fill="none" fill-rule="evenodd">
        <g id="Rounded" transform="translate(-579.000000, -334.000000)">
            <g id="Action" transform="translate(100.000000, 100.000000)">
                <g id="-Round-/-Action-/-line_style" transform="translate(476.000000, 230.000000)">
                    <g transform="translate(0.000000, 0.000000)">
                        <polygon id="Path" points="0 0 24 0 24 24 0 24"></polygon>
                        <path d="M4,16 L7,16 C7.55,16 8,15.55 8,15 C8,14.45 7.55,14 7,14 L4,14 C3.45,14 3,14.45 3,15 C3,15.55 3.45,16 4,16 Z M10.5,16 L13.5,16 C14.05,16 14.5,15.55 14.5,15 C14.5,14.45 14.05,14 13.5,14 L10.5,14 C9.95,14 9.5,14.45 9.5,15 C9.5,15.55 9.95,16 10.5,16 Z M17,16 L20,16 C20.55,16 21,15.55 21,15 C21,14.45 20.55,14 20,14 L17,14 C16.45,14 16,14.45 16,15 C16,15.55 16.45,16 17,16 Z M4,20 C4.55,20 5,19.55 5,19 C5,18.45 4.55,18 4,18 C3.45,18 3,18.45 3,19 C3,19.55 3.45,20 4,20 Z M8,20 C8.55,20 9,19.55 9,19 C9,18.45 8.55,18 8,18 C7.45,18 7,18.45 7,19 C7,19.55 7.45,20 8,20 Z M12,20 C12.55,20 13,19.55 13,19 C13,18.45 12.55,18 12,18 C11.45,18 11,18.45 11,19 C11,19.55 11.45,20 12,20 Z M16,20 C16.55,20 17,19.55 17,19 C17,18.45 16.55,18 16,18 C15.45,18 15,18.45 15,19 C15,19.55 15.45,20 16,20 Z M20,20 C20.55,20 21,19.55 21,19 C21,18.45 20.55,18 20,18 C19.45,18 19,18.45 19,19 C19,19.55 19.45,20 20,20 Z M4,12 L10,12 C10.55,12 11,11.55 11,11 C11,10.45 10.55,10 10,10 L4,10 C3.45,10 3,10.45 3,11 C3,11.55 3.45,12 4,12 Z M14,12 L20,12 C20.55,12 21,11.55 21,11 C21,10.45 20.55,10 20,10 L14,10 C13.45,10 13,10.45 13,11 C13,11.55 13.45,12 14,12 Z M3,5 L3,7 C3,7.55 3.45,8 4,8 L20,8 C20.55,8 21,7.55 21,7 L21,5 C21,4.45 20.55,4 20,4 L4,4 C3.45,4 3,4.45 3,5 Z" id="🔹Icon-Color" fill="#1D1D1D"></path>
                    </g>
                </g>
            </g>
        </g>
    </g>
</svg>