<?xml version="1.0" encoding="UTF-8"?>
<svg width="20px" height="20px" viewBox="0 0 20 20" version="1.1" xmlns="http://www.w3.org/2000/svg" xmlns:xlink="http://www.w3.org/1999/xlink">
    <!-- Generator: Sketch 52.5 (67469) - http://www.bohemiancoding.com/sketch -->
    <title>linked_camera</title>
    <desc>Created with Sketch.</desc>
    <g id="Icons" stroke="none" stroke-width="1" fill="none" fill-rule="evenodd">
        <g id="Outlined" transform="translate(-408.000000, -2814.000000)">
            <g id="Image" transform="translate(100.000000, 2626.000000)">
                <g id="Outlined-/-Image-/-linked_camera" transform="translate(306.000000, 186.000000)">
                    <g>
                        <polygon id="Path" points="0 0 24 0 24 24 0 24"></polygon>
                        <path d="M20,9 L20,20 L4,20 L4,8 L8.05,8 L9.88,6 L15,6 L15,4 L9,4 L7.17,6 L4,6 C2.9,6 2,6.9 2,8 L2,20 C2,21.1 2.9,22 4,22 L20,22 C21.1,22 22,21.1 22,20 L22,9 L20,9 Z M20.67,7.99 L22,7.99 C21.99,4.68 19.31,2 16,2 L16,3.33 C18.58,3.33 20.66,5.41 20.67,7.99 Z M18,7.99 L19.33,7.99 C19.32,6.15 17.84,4.67 16,4.67 L16,6 C17.11,6 17.99,6.89 18,7.99 Z M7,14 C7,16.76 9.24,19 12,19 C14.76,19 17,16.76 17,14 C17,11.24 14.76,9 12,9 C9.24,9 7,11.24 7,14 Z M15,14 C15,15.65 13.65,17 12,17 C10.35,17 9,15.65 9,14 C9,12.35 10.35,11 12,11 C13.65,11 15,12.34 15,14 Z" id="🔹-Icon-Color" fill="#1D1D1D"></path>
                    </g>
                </g>
            </g>
        </g>
    </g>
</svg>