<?xml version="1.0" encoding="UTF-8"?>
<svg width="20px" height="18px" viewBox="0 0 20 18" version="1.1" xmlns="http://www.w3.org/2000/svg" xmlns:xlink="http://www.w3.org/1999/xlink">
    <!-- Generator: Sketch 52.5 (67469) - http://www.bohemiancoding.com/sketch -->
    <title>link_off</title>
    <desc>Created with Sketch.</desc>
    <g id="Icons" stroke="none" stroke-width="1" fill="none" fill-rule="evenodd">
        <g id="Rounded" transform="translate(-102.000000, -1529.000000)">
            <g id="Content" transform="translate(100.000000, 1428.000000)">
                <g id="-Round-/-Content-/-link_off" transform="translate(0.000000, 98.000000)">
                    <g>
                        <polygon id="Path" points="0 0 24 0 24 24 0 24"></polygon>
                        <path d="M21.94,11.23 C21.57,8.76 19.32,7 16.82,7 L13.95,7 C13.43,7 13,7.43 13,7.95 C13,8.47 13.43,8.9 13.95,8.9 L16.85,8.9 C18.45,8.9 19.89,10.04 20.07,11.63 C20.24,13.06 19.43,14.32 18.22,14.85 L19.62,16.25 C21.25,15.23 22.26,13.34 21.94,11.23 Z M4.12,3.56 C3.73,3.17 3.1,3.17 2.71,3.56 C2.32,3.95 2.32,4.58 2.71,4.97 L5.11,7.37 C3.17,8.17 1.84,10.14 2.02,12.41 C2.23,15.05 4.59,17 7.23,17 L10.05,17 C10.57,17 11,16.57 11,16.05 C11,15.53 10.57,15.1 10.05,15.1 L7.16,15.1 C5.53,15.1 4.06,13.91 3.91,12.28 C3.76,10.56 5.02,9.11 6.66,8.93 L8.76,11.03 C8.33,11.12 8,11.49 8,11.95 L8,12.05 C8,12.57 8.43,13 8.95,13 L10.73,13 L13,15.27 L13,17 L14.73,17 L18.03,20.3 C18.42,20.69 19.05,20.69 19.44,20.3 C19.83,19.91 19.83,19.28 19.44,18.89 L4.12,3.56 Z M16,11.95 C16,11.43 15.57,11 15.05,11 L14.39,11 L15.88,12.49 C15.95,12.36 16,12.21 16,12.05 L16,11.95 Z" id="🔹Icon-Color" fill="#1D1D1D"></path>
                    </g>
                </g>
            </g>
        </g>
    </g>
</svg>