<?xml version="1.0" encoding="UTF-8"?>
<svg width="22px" height="20px" viewBox="0 0 22 20" version="1.1" xmlns="http://www.w3.org/2000/svg" xmlns:xlink="http://www.w3.org/1999/xlink">
    <!-- Generator: Sketch 52.5 (67469) - http://www.bohemiancoding.com/sketch -->
    <title>live_tv</title>
    <desc>Created with Sketch.</desc>
    <g id="Icons" stroke="none" stroke-width="1" fill="none" fill-rule="evenodd">
        <g id="Rounded" transform="translate(-237.000000, -3656.000000)">
            <g id="Notification" transform="translate(100.000000, 3600.000000)">
                <g id="-Round-/-Notification-/-live_tv" transform="translate(136.000000, 54.000000)">
                    <g>
                        <polygon id="Path" points="0 0 24 0 24 24 0 24"></polygon>
                        <path d="M10.5,17.15 L14.48,14.87 C15.15,14.49 15.15,13.52 14.48,13.13 L10.5,10.85 C9.83,10.47 9,10.96 9,11.72 L9,16.27 C9,17.04 9.83,17.53 10.5,17.15 Z M21,6 L13.41,6 L16.35,3.06 C16.55,2.86 16.55,2.55 16.35,2.35 C16.15,2.15 15.84,2.15 15.64,2.35 L12,5.99 L8.36,2.35 C8.16,2.15 7.85,2.15 7.65,2.35 C7.45,2.55 7.45,2.86 7.65,3.06 L10.59,6 L3,6 C1.9,6 1,6.89 1,8 L1,20 C1,21.1 1.9,22 3,22 L21,22 C22.1,22 23,21.1 23,20 L23,8 C23,6.89 22.1,6 21,6 Z M20,20 L4,20 C3.45,20 3,19.55 3,19 L3,9 C3,8.45 3.45,8 4,8 L20,8 C20.55,8 21,8.45 21,9 L21,19 C21,19.55 20.55,20 20,20 Z" id="🔹-Icon-Color" fill="#1D1D1D"></path>
                    </g>
                </g>
            </g>
        </g>
    </g>
</svg>