<?xml version="1.0" encoding="UTF-8"?>
<svg width="20px" height="16px" viewBox="0 0 20 16" version="1.1" xmlns="http://www.w3.org/2000/svg" xmlns:xlink="http://www.w3.org/1999/xlink">
    <!-- Generator: Sketch 52.5 (67469) - http://www.bohemiancoding.com/sketch -->
    <title>local_activity</title>
    <desc>Created with Sketch.</desc>
    <g id="Icons" stroke="none" stroke-width="1" fill="none" fill-rule="evenodd">
        <g id="Two-Tone" transform="translate(-170.000000, -3126.000000)">
            <g id="Maps" transform="translate(100.000000, 3068.000000)">
                <g id="Two-Tone-/-Maps-/-local_activity" transform="translate(68.000000, 54.000000)">
                    <g>
                        <polygon id="Path" points="0 0 24 0 24 24 0 24"></polygon>
                        <path d="M4.01,8.54 C5.2,9.23 6,10.52 6,12 C6,13.48 5.19,14.77 4,15.46 L4,18 L20,18 L20,15.46 C18.81,14.77 18,13.47 18,12 C18,10.53 18.81,9.23 20,8.54 L20,6 L4,6 L4.01,8.54 Z M10.73,10.22 L12,7 L13.26,10.23 L16.73,10.43 L14.04,12.63 L14.93,16 L12,14.12 L9.07,16 L9.95,12.63 L7.26,10.43 L10.73,10.22 Z" id="🔹-Secondary-Color" fill="#D0D0D0"></path>
                        <path d="M20,4 L4,4 C2.9,4 2.01,4.9 2.01,6 L2.01,10 C3.11,10 4,10.9 4,12 C4,13.1 3.11,14 2,14 L2,18 C2,19.1 2.9,20 4,20 L20,20 C21.1,20 22,19.1 22,18 L22,14 C20.9,14 20,13.1 20,12 C20,10.9 20.9,10 22,10 L22,6 C22,4.9 21.1,4 20,4 Z M20,8.54 C18.81,9.23 18,10.53 18,12 C18,13.47 18.81,14.77 20,15.46 L20,18 L4,18 L4,15.46 C5.19,14.77 6,13.47 6,12 C6,10.52 5.2,9.23 4.01,8.54 L4,6 L20,6 L20,8.54 Z M9.07,16 L12,14.12 L14.93,16 L14.04,12.64 L16.73,10.44 L13.26,10.23 L12,7 L10.73,10.22 L7.26,10.43 L9.95,12.63 L9.07,16 Z" id="🔹-Primary-Color" fill="#1D1D1D"></path>
                    </g>
                </g>
            </g>
        </g>
    </g>
</svg>