<?xml version="1.0" encoding="UTF-8"?>
<svg width="18px" height="21px" viewBox="0 0 18 21" version="1.1" xmlns="http://www.w3.org/2000/svg" xmlns:xlink="http://www.w3.org/1999/xlink">
    <!-- Generator: Sketch 52.5 (67469) - http://www.bohemiancoding.com/sketch -->
    <title>local_florist</title>
    <desc>Created with Sketch.</desc>
    <g id="Icons" stroke="none" stroke-width="1" fill="none" fill-rule="evenodd">
        <g id="Two-Tone" transform="translate(-715.000000, -3167.000000)">
            <g id="Maps" transform="translate(100.000000, 3068.000000)">
                <g id="Two-Tone-/-Maps-/-local_florist" transform="translate(612.000000, 98.000000)">
                    <g>
                        <polygon id="Path" points="0 0 24 0 24 24 0 24"></polygon>
                        <path d="M12,13 C12.62,13 13.12,12.51 13.14,11.9 L13.03,10.81 C12.71,10.93 12.36,11 12,11 C11.64,11 11.3,10.93 10.98,10.81 L10.86,11.9 C10.88,12.51 11.38,13 12,13 Z M8.17,7.1 L9.05,7.52 C9.17,6.79 9.56,6.15 10.11,5.69 L9.3,5.13 C9.12,5 8.89,4.93 8.66,4.93 C8.03,4.93 7.52,5.44 7.52,6.07 C7.51,6.51 7.77,6.9 8.17,7.1 Z M15.83,8.9 L14.95,8.48 C14.83,9.21 14.44,9.85 13.89,10.31 L14.7,10.88 C14.88,11.01 15.11,11.08 15.34,11.08 C15.97,11.08 16.48,10.57 16.48,9.94 C16.49,9.49 16.23,9.1 15.83,8.9 Z M14.95,7.52 L15.83,7.1 C16.23,6.91 16.49,6.51 16.49,6.07 C16.49,5.44 15.98,4.93 15.35,4.93 C15.11,4.93 14.89,5 14.7,5.13 L13.89,5.68 C14.44,6.14 14.83,6.78 14.95,7.52 Z M12,5 C12.36,5 12.71,5.07 13.03,5.19 L13.14,4.1 C13.12,3.49 12.62,3 12,3 C11.38,3 10.88,3.49 10.86,4.1 L10.98,5.19 C11.3,5.07 11.64,5 12,5 Z M8.66,11.07 C8.9,11.07 9.12,11 9.31,10.87 L10.12,10.32 C9.56,9.86 9.17,9.22 9.05,8.48 L8.17,8.9 C7.77,9.1 7.51,9.49 7.51,9.93 C7.51,10.56 8.03,11.07 8.66,11.07 Z M18.56,15.44 C16.66,16.15 15.14,17.66 14.44,19.56 C16.34,18.85 17.85,17.34 18.56,15.44 Z M5.44,15.44 C6.15,17.34 7.66,18.86 9.56,19.56 C8.85,17.66 7.34,16.15 5.44,15.44 Z" id="🔹-Secondary-Color" fill="#D0D0D0"></path>
                        <path d="M8.66,13.07 C8.81,13.07 8.95,13.06 9.09,13.04 C9.56,14.19 10.69,15 12,15 C13.31,15 14.44,14.19 14.91,13.04 C15.05,13.06 15.2,13.07 15.34,13.07 C17.07,13.07 18.48,11.66 18.48,9.93 C18.48,9.22 18.23,8.54 17.81,8 C18.24,7.46 18.48,6.78 18.48,6.07 C18.48,4.34 17.07,2.93 15.34,2.93 C15.19,2.93 15.05,2.94 14.91,2.96 C14.44,1.81 13.31,1 12,1 C10.69,1 9.56,1.81 9.09,2.96 C8.95,2.94 8.8,2.93 8.66,2.93 C6.93,2.93 5.52,4.34 5.52,6.07 C5.52,6.78 5.77,7.46 6.19,8 C5.76,8.54 5.51,9.22 5.51,9.93 C5.51,11.66 6.92,13.07 8.66,13.07 Z M15.34,11.07 C15.1,11.07 14.88,11 14.7,10.87 L13.89,10.3 C14.44,9.85 14.83,9.21 14.95,8.47 L15.83,8.89 C16.23,9.08 16.49,9.48 16.49,9.92 C16.49,10.56 15.97,11.07 15.34,11.07 Z M14.69,5.13 C14.89,5 15.11,4.93 15.34,4.93 C15.97,4.93 16.48,5.44 16.48,6.07 C16.48,6.51 16.23,6.9 15.82,7.1 L14.94,7.52 C14.82,6.78 14.43,6.14 13.87,5.69 L14.69,5.13 Z M12,3 C12.62,3 13.12,3.49 13.14,4.1 L13.03,5.19 C12.71,5.07 12.36,5 12,5 C11.64,5 11.3,5.07 10.98,5.19 L10.86,4.1 C10.88,3.49 11.38,3 12,3 Z M13,8 C13,8.55 12.55,9 12,9 C11.45,9 11,8.55 11,8 C11,7.45 11.45,7 12,7 C12.55,7 13,7.45 13,8 Z M10.98,10.81 C11.3,10.93 11.64,11 12,11 C12.36,11 12.71,10.93 13.03,10.81 L13.14,11.9 C13.12,12.51 12.62,13 12,13 C11.38,13 10.88,12.51 10.86,11.9 L10.98,10.81 Z M8.66,4.93 C8.9,4.93 9.12,5 9.3,5.13 L10.11,5.69 C9.56,6.14 9.17,6.78 9.05,7.52 L8.17,7.1 C7.77,6.9 7.51,6.51 7.51,6.07 C7.51,5.44 8.03,4.93 8.66,4.93 Z M8.17,8.9 L9.05,8.48 C9.17,9.22 9.56,9.86 10.12,10.31 L9.31,10.86 C9.11,10.99 8.89,11.06 8.66,11.06 C8.03,11.06 7.52,10.55 7.52,9.92 C7.51,9.49 7.77,9.1 8.17,8.9 Z M12,22 C16.97,22 21,17.97 21,13 C16.03,13 12,17.03 12,22 Z M18.56,15.44 C17.85,17.34 16.34,18.86 14.44,19.56 C15.15,17.66 16.66,16.15 18.56,15.44 Z M3,13 C3,17.97 7.03,22 12,22 C12,17.03 7.97,13 3,13 Z M5.44,15.44 C7.34,16.15 8.86,17.66 9.56,19.56 C7.66,18.85 6.15,17.34 5.44,15.44 Z" id="🔹-Primary-Color" fill="#1D1D1D"></path>
                    </g>
                </g>
            </g>
        </g>
    </g>
</svg>