<?xml version="1.0" encoding="UTF-8"?>
<svg width="18px" height="23px" viewBox="0 0 18 23" version="1.1" xmlns="http://www.w3.org/2000/svg" xmlns:xlink="http://www.w3.org/1999/xlink">
    <!-- Generator: Sketch 52.5 (67469) - http://www.bohemiancoding.com/sketch -->
    <title>local_car_wash</title>
    <desc>Created with Sketch.</desc>
    <g id="Icons" stroke="none" stroke-width="1" fill="none" fill-rule="evenodd">
        <g id="Outlined" transform="translate(-817.000000, -3166.000000)">
            <g id="Maps" transform="translate(100.000000, 3068.000000)">
                <g id="Outlined-/-Maps-/-local_car_wash" transform="translate(714.000000, 98.000000)">
                    <g>
                        <polygon id="Path" points="0 0 24 0 24 24 0 24"></polygon>
                        <path d="M17,5 C16.17,5 15.5,4.33 15.5,3.5 C15.5,2.5 17,0.8 17,0.8 C17,0.8 18.5,2.5 18.5,3.5 C18.5,4.33 17.83,5 17,5 Z M12,5 C11.17,5 10.5,4.33 10.5,3.5 C10.5,2.5 12,0.8 12,0.8 C12,0.8 13.5,2.5 13.5,3.5 C13.5,4.33 12.83,5 12,5 Z M7,5 C6.17,5 5.5,4.33 5.5,3.5 C5.5,2.5 7,0.8 7,0.8 C7,0.8 8.5,2.5 8.5,3.5 C8.5,4.33 7.83,5 7,5 Z M18.92,8.01 L21,14 L21,22 C21,22.55 20.55,23 20,23 L19,23 C18.45,23 18,22.55 18,22 L18,21 L6,21 L6,22 C6,22.55 5.55,23 5,23 L4,23 C3.45,23 3,22.55 3,22 L3,14 L5.08,8.01 C5.29,7.42 5.84,7 6.5,7 L17.5,7 C18.16,7 18.72,7.42 18.92,8.01 Z M6.85,9 L5.81,12 L18.18,12 L17.14,9 L6.85,9 Z M19,19 L19,14.34 L18.89,14 L5.12,14 L5,14.34 L5,19 L19,19 Z M7.5,18 C6.67157288,18 6,17.3284271 6,16.5 C6,15.6715729 6.67157288,15 7.5,15 C8.32842712,15 9,15.6715729 9,16.5 C9,17.3284271 8.32842712,18 7.5,18 Z M16.5,18 C15.6715729,18 15,17.3284271 15,16.5 C15,15.6715729 15.6715729,15 16.5,15 C17.3284271,15 18,15.6715729 18,16.5 C18,17.3284271 17.3284271,18 16.5,18 Z" id="🔹-Icon-Color" fill="#1D1D1D"></path>
                    </g>
                </g>
            </g>
        </g>
    </g>
</svg>