<?xml version="1.0" encoding="UTF-8"?>
<svg width="18px" height="20px" viewBox="0 0 18 20" version="1.1" xmlns="http://www.w3.org/2000/svg" xmlns:xlink="http://www.w3.org/1999/xlink">
    <!-- Generator: Sketch 52.5 (67469) - http://www.bohemiancoding.com/sketch -->
    <title>local_drink</title>
    <desc>Created with Sketch.</desc>
    <g id="Icons" stroke="none" stroke-width="1" fill="none" fill-rule="evenodd">
        <g id="Rounded" transform="translate(-886.000000, -3124.000000)">
            <g id="Maps" transform="translate(100.000000, 3068.000000)">
                <g id="-Round-/-Maps-/-local_drink" transform="translate(783.000000, 54.000000)">
                    <g>
                        <polygon id="Path" points="0 0 24 0 24 24 0 24"></polygon>
                        <path d="M5.23,2 C4.04,2 3.11,3.04 3.24,4.22 L5.01,20.23 C5.13,21.23 5.97,22 7,22 L17,22 C18.03,22 18.87,21.23 18.99,20.23 L20.76,4.22 C20.89,3.04 19.96,2 18.77,2 L5.23,2 Z M12,19 C10.34,19 9,17.66 9,16 C9,14.45 10.81,12.05 11.62,11.06 C11.82,10.81 12.19,10.81 12.39,11.06 C13.2,12.06 15.01,14.45 15.01,16 C15,17.66 13.66,19 12,19 Z M18.33,8 L5.67,8 L5.35,5.11 C5.29,4.52 5.75,4 6.35,4 L17.65,4 C18.24,4 18.71,4.52 18.64,5.11 L18.33,8 Z" id="🔹-Icon-Color" fill="#1D1D1D"></path>
                    </g>
                </g>
            </g>
        </g>
    </g>
</svg>