<?xml version="1.0" encoding="UTF-8"?>
<svg width="20px" height="16px" viewBox="0 0 20 16" version="1.1" xmlns="http://www.w3.org/2000/svg" xmlns:xlink="http://www.w3.org/1999/xlink">
    <!-- Generator: Sketch 52.5 (67469) - http://www.bohemiancoding.com/sketch -->
    <title>local_atm</title>
    <desc>Created with Sketch.</desc>
    <g id="Icons" stroke="none" stroke-width="1" fill="none" fill-rule="evenodd">
        <g id="Rounded" transform="translate(-238.000000, -3170.000000)">
            <g id="Maps" transform="translate(100.000000, 3068.000000)">
                <g id="-Round-/-Maps-/-local_atm" transform="translate(136.000000, 98.000000)">
                    <g>
                        <polygon id="Path" points="0 0 24 0 24 24 0 24"></polygon>
                        <path d="M20,4 L4,4 C2.89,4 2.01,4.89 2.01,6 L2,18 C2,19.11 2.89,20 4,20 L20,20 C21.11,20 22,19.11 22,18 L22,6 C22,4.89 21.11,4 20,4 Z M20,17 C20,17.55 19.55,18 19,18 L5,18 C4.45,18 4,17.55 4,17 L4,7 C4,6.45 4.45,6 5,6 L19,6 C19.55,6 20,6.45 20,7 L20,17 Z M14,10 C14.55,10 15,9.55 15,9 C15,8.45 14.55,8 14,8 L13,8 L13,7.99 C13,7.44 12.55,6.99 12,6.99 C11.45,6.99 11,7.44 11,7.99 L11,8 L10,8 C9.45,8 9,8.45 9,9 L9,12 C9,12.55 9.45,13 10,13 L13,13 L13,14 L10,14 C9.45,14 9,14.45 9,15 C9,15.55 9.45,16 10,16 L11,16 C11,16.55 11.45,17 12,17 C12.55,17 13,16.55 13,16 L14,16 C14.55,16 15,15.55 15,15 L15,12 C15,11.45 14.55,11 14,11 L11,11 L11,10 L14,10 Z" id="🔹-Icon-Color" fill="#1D1D1D"></path>
                    </g>
                </g>
            </g>
        </g>
    </g>
</svg>