<?xml version="1.0" encoding="UTF-8"?>
<svg width="20px" height="18px" viewBox="0 0 20 18" version="1.1" xmlns="http://www.w3.org/2000/svg" xmlns:xlink="http://www.w3.org/1999/xlink">
    <!-- Generator: Sketch 52.5 (67469) - http://www.bohemiancoding.com/sketch -->
    <title>local_cafe</title>
    <desc>Created with Sketch.</desc>
    <g id="Icons" stroke="none" stroke-width="1" fill="none" fill-rule="evenodd">
        <g id="Rounded" transform="translate(-170.000000, -3169.000000)">
            <g id="Maps" transform="translate(100.000000, 3068.000000)">
                <g id="-Round-/-Maps-/-local_cafe" transform="translate(68.000000, 98.000000)">
                    <g>
                        <polygon id="Path" points="0 0 24 0 24 24 0 24"></polygon>
                        <path d="M20,3 L6,3 C4.9,3 4,3.9 4,5 L4,13 C4,15.21 5.79,17 8,17 L14,17 C16.21,17 18,15.21 18,13 L18,10 L20,10 C21.1,10 22,9.1 22,8 L22,5 C22,3.9 21.1,3 20,3 Z M20,8 L18,8 L18,5 L20,5 L20,8 Z M3,21 L19,21 C19.55,21 20,20.55 20,20 C20,19.45 19.55,19 19,19 L3,19 C2.45,19 2,19.45 2,20 C2,20.55 2.45,21 3,21 Z" id="🔹-Icon-Color" fill="#1D1D1D"></path>
                    </g>
                </g>
            </g>
        </g>
    </g>
</svg>