<?xml version="1.0" encoding="UTF-8"?>
<svg width="20px" height="18px" viewBox="0 0 20 18" version="1.1" xmlns="http://www.w3.org/2000/svg" xmlns:xlink="http://www.w3.org/1999/xlink">
    <!-- Generator: Sketch 52.5 (67469) - http://www.bohemiancoding.com/sketch -->
    <title>local_see</title>
    <desc>Created with Sketch.</desc>
    <g id="Icons" stroke="none" stroke-width="1" fill="none" fill-rule="evenodd">
        <g id="Rounded" transform="translate(-646.000000, -3212.000000)">
            <g id="Maps" transform="translate(100.000000, 3068.000000)">
                <g id="-Round-/-Maps-/-local_see" transform="translate(544.000000, 142.000000)">
                    <g>
                        <polygon id="Path" points="0 0 24 0 24 24 0 24"></polygon>
                        <path d="M12,15.2 C10.2326888,15.2 8.8,13.7673112 8.8,12 C8.8,10.2326888 10.2326888,8.8 12,8.8 C13.7673112,8.8 15.2,10.2326888 15.2,12 C15.2,13.7673112 13.7673112,15.2 12,15.2 Z M20,4 C21.1,4 22,4.9 22,6 L22,18 C22,19.1 21.1,20 20,20 L4,20 C2.9,20 2,19.1 2,18 L2,6 C2,4.9 2.9,4 4,4 L7.17,4 L8.4,2.65 C8.78,2.24 9.32,2 9.88,2 L14.12,2 C14.68,2 15.22,2.24 15.59,2.65 L16.83,4 L20,4 Z M12,17 C14.76,17 17,14.76 17,12 C17,9.24 14.76,7 12,7 C9.24,7 7,9.24 7,12 C7,14.76 9.24,17 12,17 Z" id="🔹-Icon-Color" fill="#1D1D1D"></path>
                    </g>
                </g>
            </g>
        </g>
    </g>
</svg>