<?xml version="1.0" encoding="UTF-8"?>
<svg width="16px" height="21px" viewBox="0 0 16 21" version="1.1" xmlns="http://www.w3.org/2000/svg" xmlns:xlink="http://www.w3.org/1999/xlink">
    <!-- Generator: Sketch 52.5 (67469) - http://www.bohemiancoding.com/sketch -->
    <title>lock_open</title>
    <desc>Created with Sketch.</desc>
    <g id="Icons" stroke="none" stroke-width="1" fill="none" fill-rule="evenodd">
        <g id="Rounded" transform="translate(-444.000000, -331.000000)">
            <g id="Action" transform="translate(100.000000, 100.000000)">
                <g id="-Round-/-Action-/-lock_open" transform="translate(340.000000, 230.000000)">
                    <g transform="translate(0.000000, 0.000000)">
                        <polygon id="Path" points="0 0 24 0 24 24 0 24"></polygon>
                        <path d="M12,13 C10.9,13 10,13.9 10,15 C10,16.1 10.9,17 12,17 C13.1,17 14,16.1 14,15 C14,13.9 13.1,13 12,13 Z M18,8 L17,8 L17,6 C17,3.24 14.76,1 12,1 C9.72,1 7.73,2.54 7.16,4.75 C7.02,5.29 7.34,5.83 7.88,5.97 C8.41,6.11 8.96,5.79 9.1,5.25 C9.44,3.93 10.63,3 12,3 C13.65,3 15,4.35 15,6 L15,8 L6,8 C4.9,8 4,8.9 4,10 L4,20 C4,21.1 4.9,22 6,22 L18,22 C19.1,22 20,21.1 20,20 L20,10 C20,8.9 19.1,8 18,8 Z M18,19 C18,19.55 17.55,20 17,20 L7,20 C6.45,20 6,19.55 6,19 L6,11 C6,10.45 6.45,10 7,10 L17,10 C17.55,10 18,10.45 18,11 L18,19 Z" id="🔹Icon-Color" fill="#1D1D1D"></path>
                    </g>
                </g>
            </g>
        </g>
    </g>
</svg>