<?xml version="1.0" encoding="UTF-8"?>
<svg width="19px" height="18px" viewBox="0 0 19 18" version="1.1" xmlns="http://www.w3.org/2000/svg" xmlns:xlink="http://www.w3.org/1999/xlink">
    <!-- Generator: Sketch 52.5 (67469) - http://www.bohemiancoding.com/sketch -->
    <title>looks_4</title>
    <desc>Created with Sketch.</desc>
    <g id="Icons" stroke="none" stroke-width="1" fill="none" fill-rule="evenodd">
        <g id="Two-Tone" transform="translate(-204.000000, -2815.000000)">
            <g id="Image" transform="translate(100.000000, 2626.000000)">
                <g id="Two-Tone-/-Image-/-looks_4" transform="translate(102.000000, 186.000000)">
                    <g>
                        <polygon id="Path" points="0.0384 0 23.0784 0 23.0784 24 0.0384 24"></polygon>
                        <path d="M4.8384,19 L18.2784,19 L18.2784,5 L4.8384,5 L4.8384,19 Z M8.6784,7 L10.5984,7 L10.5984,11 L12.5184,11 L12.5184,7 L14.4384,7 L14.4384,17 L12.5184,17 L12.5184,13 L8.6784,13 L8.6784,7 Z" id="🔹-Secondary-Color" fill="#D0D0D0"></path>
                        <path d="M18.2784,3 L4.8384,3 C3.7824,3 2.9184,3.9 2.9184,5 L2.9184,19 C2.9184,20.1 3.7824,21 4.8384,21 L18.2784,21 C19.3344,21 20.1984,20.1 20.1984,19 L20.1984,5 C20.1984,3.9 19.3344,3 18.2784,3 Z M18.2784,19 L4.8384,19 L4.8384,5 L18.2784,5 L18.2784,19 Z M12.5184,17 L14.4384,17 L14.4384,7 L12.5184,7 L12.5184,11 L10.5984,11 L10.5984,7 L8.6784,7 L8.6784,13 L12.5184,13 L12.5184,17 Z" id="🔹-Primary-Color" fill="#1D1D1D"></path>
                    </g>
                </g>
            </g>
        </g>
    </g>
</svg>