<?xml version="1.0" encoding="UTF-8"?>
<svg width="18px" height="18px" viewBox="0 0 18 18" version="1.1" xmlns="http://www.w3.org/2000/svg" xmlns:xlink="http://www.w3.org/1999/xlink">
    <!-- Generator: Sketch 52.5 (67469) - http://www.bohemiancoding.com/sketch -->
    <title>looks_3</title>
    <desc>Created with Sketch.</desc>
    <g id="Icons" stroke="none" stroke-width="1" fill="none" fill-rule="evenodd">
        <g id="Rounded" transform="translate(-273.000000, -2903.000000)">
            <g id="Image" transform="translate(100.000000, 2626.000000)">
                <g id="-Round-/-Image-/-looks_3" transform="translate(170.000000, 274.000000)">
                    <g>
                        <polygon id="Path" points="0 0 24 0 24 24 0 24"></polygon>
                        <path d="M19,3 L5.01,3 C3.91,3 3.01,3.9 3.01,5 L3.01,19 C3.01,20.1 3.91,21 5.01,21 L19,21 C20.1,21 21,20.1 21,19 L21,5 C21,3.9 20.1,3 19,3 Z M15.01,10.5 C15.01,11.33 14.34,12 13.51,12 C14.34,12 15.01,12.67 15.01,13.5 L15.01,15 C15.01,16.11 14.11,17 13.01,17 L10,17 C9.45,17 9,16.55 9,16 C9,15.45 9.45,15 10,15 L13.01,15 L13,13 L12,13 C11.45,13 11,12.55 11,12 C11,11.45 11.45,11 12,11 L13,11 L13.01,9 L10,9 C9.45,9 9.01,8.55 9.01,8 C9.01,7.45 9.45,7 10,7 L13.01,7 C14.11,7 15.01,7.9 15.01,9 L15.01,10.5 Z" id="🔹-Icon-Color" fill="#1D1D1D"></path>
                    </g>
                </g>
            </g>
        </g>
    </g>
</svg>