<?xml version="1.0" encoding="UTF-8"?>
<svg width="20px" height="20px" viewBox="0 0 20 20" version="1.1" xmlns="http://www.w3.org/2000/svg" xmlns:xlink="http://www.w3.org/1999/xlink">
    <!-- Generator: Sketch 52.5 (67469) - http://www.bohemiancoding.com/sketch -->
    <title>loupe</title>
    <desc>Created with Sketch.</desc>
    <g id="Icons" stroke="none" stroke-width="1" fill="none" fill-rule="evenodd">
        <g id="Two-Tone" transform="translate(-816.000000, -2858.000000)">
            <g id="Image" transform="translate(100.000000, 2626.000000)">
                <g id="Two-Tone-/-Image-/-loupe" transform="translate(714.000000, 230.000000)">
                    <g>
                        <polygon id="Path" points="0 0 24 0 24 24 0 24"></polygon>
                        <path d="M12,20 C16.41,20 20,16.41 20,12 C20,7.59 16.41,4 12,4 C7.59,4 4,7.59 4,12 C4,16.41 7.59,20 12,20 Z M7,11 L11,11 L11,7 L13,7 L13,11 L17,11 L17,13 L13,13 L13,17 L11,17 L11,13 L7,13 L7,11 Z" id="🔹-Secondary-Color" fill="#D0D0D0"></path>
                        <path d="M11,17 L13,17 L13,13 L17,13 L17,11 L13,11 L13,7 L11,7 L11,11 L7,11 L7,13 L11,13 L11,17 Z M12,22 L20,22 C21.1,22 22,21.1 22,20 L22,12 C22,6.49 17.51,2 12,2 C6.49,2 2,6.49 2,12 C2,17.51 6.49,22 12,22 Z M12,4 C16.41,4 20,7.59 20,12 C20,16.41 16.41,20 12,20 C7.59,20 4,16.41 4,12 C4,7.59 7.59,4 12,4 Z" id="🔹-Primary-Color" fill="#1D1D1D"></path>
                    </g>
                </g>
            </g>
        </g>
    </g>
</svg>