<?xml version="1.0" encoding="UTF-8"?>
<svg width="18px" height="18px" viewBox="0 0 18 18" version="1.1" xmlns="http://www.w3.org/2000/svg" xmlns:xlink="http://www.w3.org/1999/xlink">
    <!-- Generator: Sketch 52.5 (67469) - http://www.bohemiancoding.com/sketch -->
    <title>meeting_room</title>
    <desc>Created with Sketch.</desc>
    <g id="Icons" stroke="none" stroke-width="1" fill="none" fill-rule="evenodd">
        <g id="Rounded" transform="translate(-375.000000, -3923.000000)">
            <g id="Places" transform="translate(100.000000, 3866.000000)">
                <g id="-Round-/-Places-/-meeting_room" transform="translate(272.000000, 54.000000)">
                    <g>
                        <polygon id="Path" points="0 0 24 0 24 24 0 24"></polygon>
                        <path d="M20,19 L19,19 L19,5 C19,4.45 18.55,4 18,4 L14,4 C14,3.45 13.55,3 13,3 L6,3 C5.45,3 5,3.45 5,4 L5,19 L4,19 C3.45,19 3,19.45 3,20 C3,20.55 3.45,21 4,21 L13,21 C13.55,21 14,20.55 14,20 L14,6 L17,6 L17,20 C17,20.55 17.45,21 18,21 L20,21 C20.55,21 21,20.55 21,20 C21,19.45 20.55,19 20,19 Z M12,13 L10,13 L10,11 L12,11 L12,13 Z" id="🔹-Icon-Color" fill="#1D1D1D"></path>
                    </g>
                </g>
            </g>
        </g>
    </g>
</svg>