<?xml version="1.0" encoding="UTF-8"?>
<svg width="18px" height="19px" viewBox="0 0 18 19" version="1.1" xmlns="http://www.w3.org/2000/svg" xmlns:xlink="http://www.w3.org/1999/xlink">
    <!-- Generator: Sketch 52.5 (67469) - http://www.bohemiancoding.com/sketch -->
    <title>mic_off</title>
    <desc>Created with Sketch.</desc>
    <g id="Icons" stroke="none" stroke-width="1" fill="none" fill-rule="evenodd">
        <g id="Rounded" transform="translate(-341.000000, -953.000000)">
            <g id="AV" transform="translate(100.000000, 852.000000)">
                <g id="-Round-/-AV-/-mic_off" transform="translate(238.000000, 98.000000)">
                    <g>
                        <rect id="Rectangle-Copy-37" x="0" y="0" width="24" height="24"></rect>
                        <path d="M15,11.6 L15,6 C15,4.34 13.66,3 12,3 C10.46,3 9.21,4.16 9.04,5.65 L15,11.6 Z M18.08,12 C17.67,12 17.31,12.3 17.25,12.71 C17.2,13.03 17.13,13.35 17.03,13.64 L18.3,14.91 C18.6,14.31 18.82,13.66 18.93,12.97 C19,12.46 18.6,12 18.08,12 Z M3.71,4.56 C3.32,4.95 3.32,5.58 3.71,5.97 L9,11.27 L9,11.7 C9,12.89 9.6,14.02 10.63,14.61 C11.38,15.04 12.04,15.05 12.65,14.92 L14.31,16.58 C13.6,16.91 12.81,17.1 12,17.1 C9.46,17.1 7.12,15.33 6.75,12.71 C6.69,12.3 6.33,12 5.92,12 C5.4,12 5,12.46 5.07,12.97 C5.53,15.93 8.03,18.27 11,18.72 L11,21 C11,21.55 11.45,22 12,22 C12.55,22 13,21.55 13,21 L13,18.72 C13.91,18.59 14.77,18.27 15.55,17.82 L19.04,21.31 C19.43,21.7 20.06,21.7 20.45,21.31 C20.84,20.92 20.84,20.29 20.45,19.9 L5.12,4.56 C4.73,4.17 4.1,4.17 3.71,4.56 Z" id="🔹Icon-Color" fill="#1D1D1D"></path>
                    </g>
                </g>
            </g>
        </g>
    </g>
</svg>