<?xml version="1.0" encoding="UTF-8"?>
<svg width="14px" height="19px" viewBox="0 0 14 19" version="1.1" xmlns="http://www.w3.org/2000/svg" xmlns:xlink="http://www.w3.org/1999/xlink">
    <!-- Generator: Sketch 52.5 (67469) - http://www.bohemiancoding.com/sketch -->
    <title>mic</title>
    <desc>Created with Sketch.</desc>
    <g id="Icons" stroke="none" stroke-width="1" fill="none" fill-rule="evenodd">
        <g id="Outlined" transform="translate(-275.000000, -1040.000000)">
            <g id="Av" transform="translate(100.000000, 852.000000)">
                <g id="Outlined-/-AV-/-mic" transform="translate(170.000000, 186.000000)">
                    <g>
                        <polygon id="Path" fill-rule="nonzero" points="0 0 24 0 24 24 0 24"></polygon>
                        <path d="M12,14 C13.66,14 15,12.66 15,11 L15,5 C15,3.34 13.66,2 12,2 C10.34,2 9,3.34 9,5 L9,11 C9,12.66 10.34,14 12,14 Z M17,11 C17,13.76 14.76,16 12,16 C9.24,16 7,13.76 7,11 L5,11 C5,14.53 7.61,17.43 11,17.92 L11,21 L13,21 L13,17.92 C16.39,17.43 19,14.53 19,11 L17,11 Z" id="🔹-Icon-Color" fill="#1D1D1D"></path>
                    </g>
                </g>
            </g>
        </g>
    </g>
</svg>