<?xml version="1.0" encoding="UTF-8"?>
<svg width="21px" height="22px" viewBox="0 0 21 22" version="1.1" xmlns="http://www.w3.org/2000/svg" xmlns:xlink="http://www.w3.org/1999/xlink">
    <!-- Generator: Sketch 52.5 (67469) - http://www.bohemiancoding.com/sketch -->
    <title>mobile_off</title>
    <desc>Created with Sketch.</desc>
    <g id="Icons" stroke="none" stroke-width="1" fill="none" fill-rule="evenodd">
        <g id="Rounded" transform="translate(-135.000000, -1793.000000)">
            <g id="Device" transform="translate(100.000000, 1650.000000)">
                <g id="-Round-/-Device-/-mobile_off" transform="translate(34.000000, 142.000000)">
                    <g>
                        <polygon id="Path" points="0 0 24 0 24 24 0 24"></polygon>
                        <path d="M17,16.44 L3.61,3.05 C3.22,2.66 2.59,2.66 2.2,3.05 C1.81,3.44 1.81,4.07 2.2,4.46 L5,7.27 L5,21 C5,22.1 5.9,23 7,23 L17,23 C18.02,23 18.85,22.23 18.98,21.25 L20,22.27 C20.39,22.66 21.02,22.66 21.41,22.27 C21.8,21.88 21.8,21.25 21.41,20.86 L19,18.44 L17,16.44 Z M7,19 L7,9.27 L16.73,19 L7,19 Z M17,5 L17,13.61 L19,15.61 L19,3 C19,1.9 18.1,1 17,1 L7,1 C6.29,1 5.67,1.37 5.32,1.93 L8.39,5 L17,5 Z" id="🔹Icon-Color" fill="#1D1D1D"></path>
                    </g>
                </g>
            </g>
        </g>
    </g>
</svg>