<?xml version="1.0" encoding="UTF-8"?>
<svg width="20px" height="16px" viewBox="0 0 20 16" version="1.1" xmlns="http://www.w3.org/2000/svg" xmlns:xlink="http://www.w3.org/1999/xlink">
    <!-- Generator: Sketch 52.5 (67469) - http://www.bohemiancoding.com/sketch -->
    <title>money</title>
    <desc>Created with Sketch.</desc>
    <g id="Icons" stroke="none" stroke-width="1" fill="none" fill-rule="evenodd">
        <g id="Rounded" transform="translate(-204.000000, -3214.000000)">
            <g id="Maps" transform="translate(100.000000, 3068.000000)">
                <g id="-Round-/-Maps-/-money" transform="translate(102.000000, 142.000000)">
                    <g>
                        <polygon id="Path" points="0 0 24 0 24 24 0 24"></polygon>
                        <path d="M15,16 L18,16 C18.55,16 19,15.55 19,15 L19,9 C19,8.45 18.55,8 18,8 L15,8 C14.45,8 14,8.45 14,9 L14,15 C14,15.55 14.45,16 15,16 Z M16,10 L17,10 L17,14 L16,14 L16,10 Z M9,16 L12,16 C12.55,16 13,15.55 13,15 L13,9 C13,8.45 12.55,8 12,8 L9,8 C8.45,8 8,8.45 8,9 L8,15 C8,15.55 8.45,16 9,16 Z M10,10 L11,10 L11,14 L10,14 L10,10 Z M6,8 C5.45,8 5,8.45 5,9 L5,15 C5,15.55 5.45,16 6,16 C6.55,16 7,15.55 7,15 L7,9 C7,8.45 6.55,8 6,8 Z M2,6 L2,18 C2,19.1 2.9,20 4,20 L20,20 C21.1,20 22,19.1 22,18 L22,6 C22,4.9 21.1,4 20,4 L4,4 C2.9,4 2,4.9 2,6 Z M19,18 L5,18 C4.45,18 4,17.55 4,17 L4,7 C4,6.45 4.45,6 5,6 L19,6 C19.55,6 20,6.45 20,7 L20,17 C20,17.55 19.55,18 19,18 Z" id="🔹-Icon-Color" fill="#1D1D1D"></path>
                    </g>
                </g>
            </g>
        </g>
    </g>
</svg>