<?xml version="1.0" encoding="UTF-8"?>
<svg width="20px" height="20px" viewBox="0 0 20 20" version="1.1" xmlns="http://www.w3.org/2000/svg" xmlns:xlink="http://www.w3.org/1999/xlink">
    <!-- Generator: Sketch 52.5 (67469) - http://www.bohemiancoding.com/sketch -->
    <title>monetization_on</title>
    <desc>Created with Sketch.</desc>
    <g id="Icons" stroke="none" stroke-width="1" fill="none" fill-rule="evenodd">
        <g id="Outlined" transform="translate(-884.000000, -2104.000000)">
            <g id="Editor" transform="translate(100.000000, 1960.000000)">
                <g id="Outlined-/-Editor-/-monetization_on" transform="translate(782.000000, 142.000000)">
                    <g>
                        <polygon id="Path" points="0 0 24 0 24 24 0 24"></polygon>
                        <path d="M12,2 C6.48,2 2,6.48 2,12 C2,17.52 6.48,22 12,22 C17.52,22 22,17.52 22,12 C22,6.48 17.52,2 12,2 Z M12,20 C7.59,20 4,16.41 4,12 C4,7.59 7.59,4 12,4 C16.41,4 20,7.59 20,12 C20,16.41 16.41,20 12,20 Z M12.31,11.14 C10.54,10.69 9.97,10.2 9.97,9.47 C9.97,8.63 10.76,8.04 12.07,8.04 C13.45,8.04 13.97,8.7 14.01,9.68 L15.72,9.68 C15.67,8.34 14.85,7.11 13.23,6.71 L13.23,5 L10.9,5 L10.9,6.69 C9.39,7.01 8.18,7.99 8.18,9.5 C8.18,11.29 9.67,12.19 11.84,12.71 C13.79,13.17 14.18,13.86 14.18,14.58 C14.18,15.11 13.79,15.97 12.08,15.97 C10.48,15.97 9.85,15.25 9.76,14.33 L8.04,14.33 C8.14,16.03 9.4,16.99 10.9,17.3 L10.9,19 L13.24,19 L13.24,17.33 C14.76,17.04 15.96,16.17 15.97,14.56 C15.96,12.36 14.07,11.6 12.31,11.14 Z" id="🔹-Icon-Color" fill="#1D1D1D"></path>
                    </g>
                </g>
            </g>
        </g>
    </g>
</svg>