<?xml version="1.0" encoding="UTF-8"?>
<svg width="20px" height="20px" viewBox="0 0 20 20" version="1.1" xmlns="http://www.w3.org/2000/svg" xmlns:xlink="http://www.w3.org/1999/xlink">
    <!-- Generator: Sketch 52.5 (67469) - http://www.bohemiancoding.com/sketch -->
    <title>monetization_on</title>
    <desc>Created with Sketch.</desc>
    <g id="Icons" stroke="none" stroke-width="1" fill="none" fill-rule="evenodd">
        <g id="Rounded" transform="translate(-646.000000, -2060.000000)">
            <g id="Editor" transform="translate(100.000000, 1960.000000)">
                <g id="-Round-/-Editor-/-monetization_on" transform="translate(544.000000, 98.000000)">
                    <g>
                        <polygon id="Path" points="0 0 24 0 24 24 0 24"></polygon>
                        <path d="M12,2 C6.48,2 2,6.48 2,12 C2,17.52 6.48,22 12,22 C17.52,22 22,17.52 22,12 C22,6.48 17.52,2 12,2 Z M13.41,18.09 L13.41,18.67 C13.41,19.4 12.81,20 12.08,20 L12.07,20 C11.34,20 10.74,19.4 10.74,18.67 L10.74,18.07 C9.41,17.79 8.23,17.06 7.73,15.83 C7.5,15.28 7.93,14.67 8.53,14.67 L8.77,14.67 C9.14,14.67 9.44,14.92 9.58,15.27 C9.87,16.02 10.63,16.54 12.09,16.54 C14.05,16.54 14.49,15.56 14.49,14.95 C14.49,14.12 14.05,13.34 11.82,12.81 C9.34,12.21 7.64,11.19 7.64,9.14 C7.64,7.42 9.03,6.3 10.75,5.93 L10.75,5.33 C10.75,4.6 11.35,4 12.08,4 L12.09,4 C12.82,4 13.42,4.6 13.42,5.33 L13.42,5.95 C14.8,6.29 15.67,7.15 16.05,8.21 C16.25,8.76 15.83,9.34 15.24,9.34 L14.98,9.34 C14.61,9.34 14.31,9.08 14.21,8.72 C13.98,7.96 13.35,7.47 12.09,7.47 C10.59,7.47 9.69,8.15 9.69,9.11 C9.69,9.95 10.34,10.5 12.36,11.02 C14.38,11.54 16.54,12.41 16.54,14.93 C16.52,16.76 15.15,17.76 13.41,18.09 Z" id="🔹-Icon-Color" fill="#1D1D1D"></path>
                    </g>
                </g>
            </g>
        </g>
    </g>
</svg>