<?xml version="1.0" encoding="UTF-8"?>
<svg width="20px" height="18px" viewBox="0 0 20 18" version="1.1" xmlns="http://www.w3.org/2000/svg" xmlns:xlink="http://www.w3.org/1999/xlink">
    <!-- Generator: Sketch 52.5 (67469) - http://www.bohemiancoding.com/sketch -->
    <title>monochrome_photos</title>
    <desc>Created with Sketch.</desc>
    <g id="Icons" stroke="none" stroke-width="1" fill="none" fill-rule="evenodd">
        <g id="Outlined" transform="translate(-102.000000, -2815.000000)">
            <g id="Image" transform="translate(100.000000, 2626.000000)">
                <g id="Outlined-/-Image-/-monochrome_photos" transform="translate(0.000000, 186.000000)">
                    <g>
                        <polygon id="Path" points="0 0 24 0 24 24 0 24"></polygon>
                        <path d="M20,5 L16.8,5 L15,3 L9,3 L7.2,5 L4,5 C2.9,5 2,5.9 2,7 L2,19 C2,20.1 2.9,21 4,21 L20,21 C21.1,21 22,20.1 22,19 L22,7 C22,5.9 21.1,5 20,5 Z M20,19 L12,19 L12,18 C9.2,18 7,15.8 7,13 C7,10.2 9.2,8 12,8 L12,7 L20,7 L20,19 Z M17,13 C17,10.2 14.8,8 12,8 L12,9.8 C13.8,9.8 15.2,11.2 15.2,13 C15.2,14.8 13.8,16.2 12,16.2 L12,18 C14.8,18 17,15.8 17,13 Z M8.8,13 C8.8,14.8 10.2,16.2 12,16.2 L12,9.8 C10.2,9.8 8.8,11.2 8.8,13 Z" id="🔹-Icon-Color" fill="#1D1D1D"></path>
                    </g>
                </g>
            </g>
        </g>
    </g>
</svg>