<?xml version="1.0" encoding="UTF-8"?>
<svg width="24px" height="18px" viewBox="0 0 24 18" version="1.1" xmlns="http://www.w3.org/2000/svg" xmlns:xlink="http://www.w3.org/1999/xlink">
    <!-- Generator: Sketch 52.5 (67469) - http://www.bohemiancoding.com/sketch -->
    <title>more</title>
    <desc>Created with Sketch.</desc>
    <g id="Icons" stroke="none" stroke-width="1" fill="none" fill-rule="evenodd">
        <g id="Rounded" transform="translate(-168.000000, -3657.000000)">
            <g id="Notification" transform="translate(100.000000, 3600.000000)">
                <g id="-Round-/-Notification-/-more" transform="translate(68.000000, 54.000000)">
                    <g>
                        <polygon id="Path" points="0 0 24 0 24 24 0 24"></polygon>
                        <path d="M22,3 L7,3 C6.31,3 5.77,3.35 5.41,3.88 L0.37,11.45 C0.15,11.79 0.15,12.22 0.37,12.56 L5.41,20.12 C5.77,20.64 6.38,21 7.07,21 L22,21 C23.1,21 24,20.1 24,19 L24,5 C24,3.9 23.1,3 22,3 Z M9,13.5 C8.17,13.5 7.5,12.83 7.5,12 C7.5,11.17 8.17,10.5 9,10.5 C9.83,10.5 10.5,11.17 10.5,12 C10.5,12.83 9.83,13.5 9,13.5 Z M14,13.5 C13.17,13.5 12.5,12.83 12.5,12 C12.5,11.17 13.17,10.5 14,10.5 C14.83,10.5 15.5,11.17 15.5,12 C15.5,12.83 14.83,13.5 14,13.5 Z M19,13.5 C18.17,13.5 17.5,12.83 17.5,12 C17.5,11.17 18.17,10.5 19,10.5 C19.83,10.5 20.5,11.17 20.5,12 C20.5,12.83 19.83,13.5 19,13.5 Z" id="🔹-Icon-Color" fill="#1D1D1D"></path>
                    </g>
                </g>
            </g>
        </g>
    </g>
</svg>