<?xml version="1.0" encoding="UTF-8"?>
<svg width="18px" height="18px" viewBox="0 0 18 18" version="1.1" xmlns="http://www.w3.org/2000/svg" xmlns:xlink="http://www.w3.org/1999/xlink">
    <!-- Generator: Sketch 52.5 (67469) - http://www.bohemiancoding.com/sketch -->
    <title>move_to_inbox</title>
    <desc>Created with Sketch.</desc>
    <g id="Icons" stroke="none" stroke-width="1" fill="none" fill-rule="evenodd">
        <g id="Rounded" transform="translate(-817.000000, -1529.000000)">
            <g id="Content" transform="translate(100.000000, 1428.000000)">
                <g id="-Round-/-Content-/-move_to_inbox" transform="translate(714.000000, 98.000000)">
                    <g>
                        <polygon id="Path" points="0 0 24 0 24 24 0 24"></polygon>
                        <path d="M19,3 L4.99,3 C3.88,3 3,3.9 3,5 L3,19 C3,20.1 3.88,21 4.99,21 L19,21 C20.1,21 21,20.1 21,19 L21,5 C21,3.9 20.1,3 19,3 Z M19,15 L15.87,15 C15.4,15 15.02,15.34 14.89,15.8 C14.54,17.07 13.37,18 12,18 C10.63,18 9.46,17.07 9.11,15.8 C8.98,15.34 8.6,15 8.13,15 L4.99,15 L4.99,6 C4.99,5.45 5.44,5 5.99,5 L18,5 C18.55,5 19,5.45 19,6 L19,15 Z M16,10 L14,10 L14,7 L10,7 L10,10 L8,10 L11.65,13.65 C11.85,13.85 12.16,13.85 12.36,13.65 L16,10 Z" id="🔹Icon-Color" fill="#1D1D1D"></path>
                    </g>
                </g>
            </g>
        </g>
    </g>
</svg>