<?xml version="1.0" encoding="UTF-8"?>
<svg width="22px" height="16px" viewBox="0 0 22 16" version="1.1" xmlns="http://www.w3.org/2000/svg" xmlns:xlink="http://www.w3.org/1999/xlink">
    <!-- Generator: Sketch 52.5 (67469) - http://www.bohemiancoding.com/sketch -->
    <title>network_check</title>
    <desc>Created with Sketch.</desc>
    <g id="Icons" stroke="none" stroke-width="1" fill="none" fill-rule="evenodd">
        <g id="Rounded" transform="translate(-135.000000, -3658.000000)">
            <g id="Notification" transform="translate(100.000000, 3600.000000)">
                <g id="-Round-/-Notification-/-network_check" transform="translate(34.000000, 54.000000)">
                    <g>
                        <polygon id="Path" points="0 0 24 0 24 24 0 24"></polygon>
                        <path d="M15.9,5 C15.73,5 15.58,5.09 15.49,5.23 L15.42,5.38 L10.24,17.03 C10.08,17.32 9.98,17.64 9.98,17.99 C9.98,19.1 10.88,20 11.99,20 C12.95,20 13.76,19.32 13.95,18.41 L13.96,18.38 L16.4,5.5 C16.4,5.22 16.18,5 15.9,5 Z M2.06,10.06 C2.57,10.57 3.39,10.61 3.95,10.15 C6.71,7.89 10.19,6.97 13.53,7.39 L14.72,4.71 C10.37,3.93 5.76,5.01 2.15,7.96 C1.51,8.49 1.47,9.47 2.06,10.06 Z M21.94,10.06 C22.53,9.47 22.49,8.49 21.84,7.96 C20.48,6.85 18.98,6.01 17.4,5.43 L16.87,8.25 C18,8.72 19.06,9.34 20.04,10.14 C20.62,10.6 21.43,10.57 21.94,10.06 Z M17.91,14.09 C18.51,13.49 18.47,12.46 17.77,11.97 C17.31,11.64 16.83,11.36 16.33,11.11 L15.78,14.03 C15.89,14.1 16,14.17 16.1,14.25 C16.67,14.65 17.43,14.57 17.91,14.09 Z M6.08,14.08 C6.58,14.58 7.35,14.62 7.93,14.21 C8.87,13.55 9.94,13.15 11.03,12.99 L12.31,10.11 C10.18,10.05 8.03,10.65 6.22,11.95 C5.53,12.46 5.48,13.48 6.08,14.08 Z" id="🔹-Icon-Color" fill="#1D1D1D"></path>
                    </g>
                </g>
            </g>
        </g>
    </g>
</svg>