<?xml version="1.0" encoding="UTF-8"?>
<svg width="22px" height="22px" viewBox="0 0 22 22" version="1.1" xmlns="http://www.w3.org/2000/svg" xmlns:xlink="http://www.w3.org/1999/xlink">
    <!-- Generator: Sketch 52.5 (67469) - http://www.bohemiancoding.com/sketch -->
    <title>new_releases</title>
    <desc>Created with Sketch.</desc>
    <g id="Icons" stroke="none" stroke-width="1" fill="none" fill-rule="evenodd">
        <g id="Outlined" transform="translate(-407.000000, -951.000000)">
            <g id="Av" transform="translate(100.000000, 852.000000)">
                <g id="Outlined-/-AV-/-new_releases" transform="translate(306.000000, 98.000000)">
                    <g>
                        <polygon id="Path" points="0 0 24 0 24 24 0 24"></polygon>
                        <path d="M23,12 L20.56,9.22 L20.9,5.54 L17.29,4.72 L15.4,1.54 L12,3 L8.6,1.54 L6.71,4.72 L3.1,5.53 L3.44,9.21 L1,12 L3.44,14.78 L3.1,18.47 L6.71,19.29 L8.6,22.47 L12,21 L15.4,22.46 L17.29,19.28 L20.9,18.46 L20.56,14.78 L23,12 Z M18.49,14.11 L18.75,16.9 L16.01,17.52 L14.58,19.93 L12,18.82 L9.42,19.93 L7.99,17.52 L5.25,16.9 L5.51,14.1 L3.66,12 L5.51,9.88 L5.25,7.1 L7.99,6.49 L9.42,4.08 L12,5.18 L14.58,4.07 L16.01,6.48 L18.75,7.1 L18.49,9.89 L20.34,12 L18.49,14.11 Z M11,15 L13,15 L13,17 L11,17 L11,15 Z M11,7 L13,7 L13,13 L11,13 L11,7 Z" id="🔹-Icon-Color" fill="#1D1D1D"></path>
                    </g>
                </g>
            </g>
        </g>
    </g>
</svg>