<?xml version="1.0" encoding="UTF-8"?>
<svg width="20px" height="19px" viewBox="0 0 20 19" version="1.1" xmlns="http://www.w3.org/2000/svg" xmlns:xlink="http://www.w3.org/1999/xlink">
    <!-- Generator: Sketch 52.5 (67469) - http://www.bohemiancoding.com/sketch -->
    <title>next_week</title>
    <desc>Created with Sketch.</desc>
    <g id="Icons" stroke="none" stroke-width="1" fill="none" fill-rule="evenodd">
        <g id="Rounded" transform="translate(-782.000000, -1529.000000)">
            <g id="Content" transform="translate(100.000000, 1428.000000)">
                <g id="-Round-/-Content-/-next_week" transform="translate(680.000000, 98.000000)">
                    <g>
                        <polygon id="Path" points="0 0 24 0 24 24 0 24"></polygon>
                        <path d="M20,7 L16,7 L16,5 C16,4.45 15.78,3.95 15.41,3.59 C15.05,3.22 14.55,3 14,3 L10,3 C8.9,3 8,3.9 8,5 L8,7 L4,7 C2.9,7 2,7.9 2,9 L2,20 C2,21.1 2.9,22 4,22 L20,22 C21.1,22 22,21.1 22,20 L22,9 C22,7.9 21.1,7 20,7 Z M10,5 L14,5 L14,7 L10,7 L10,5 Z M10.5,18 C10.22,17.72 10.22,17.28 10.5,17 L13,14.5 L10.5,12 C10.22,11.72 10.22,11.28 10.5,11 C10.78,10.72 11.22,10.72 11.5,11 L14.65,14.15 C14.85,14.35 14.85,14.66 14.65,14.86 L11.5,18 C11.22,18.28 10.78,18.28 10.5,18 Z" id="🔹Icon-Color" fill="#1D1D1D"></path>
                    </g>
                </g>
            </g>
        </g>
    </g>
</svg>