<?xml version="1.0" encoding="UTF-8"?>
<svg width="18px" height="22px" viewBox="0 0 18 22" version="1.1" xmlns="http://www.w3.org/2000/svg" xmlns:xlink="http://www.w3.org/1999/xlink">
    <!-- Generator: Sketch 52.5 (67469) - http://www.bohemiancoding.com/sketch -->
    <title>no_encryption</title>
    <desc>Created with Sketch.</desc>
    <g id="Icons" stroke="none" stroke-width="1" fill="none" fill-rule="evenodd">
        <g id="Rounded" transform="translate(-477.000000, -3699.000000)">
            <g id="Notification" transform="translate(100.000000, 3600.000000)">
                <g id="-Round-/-Notification-/-no_encryption" transform="translate(374.000000, 98.000000)">
                    <g>
                        <path d="M0,0 L24,0 L24,24 L0,24 L0,0 Z M0,0 L24,0 L24,24 L0,24 L0,0 Z M0,0 L24,0 L24,24 L0,24 L0,0 Z M0,0 L24,0 L24,24 L0,24 L0,0 Z" id="Shape"></path>
                        <path d="M8.9,6 C8.9,4.29 10.29,2.9 12,2.9 C13.71,2.9 15.1,4.29 15.1,6 L15.1,8 L10.44,8 L20,17.56 L20,10 C20,8.9 19.1,8 18,8 L17,8 L17,6 C17,3.24 14.76,1 12,1 C9.68,1 7.74,2.59 7.18,4.74 L8.9,6.46 L8.9,6 Z M5.12,5.51 C4.73,5.12 4.1,5.12 3.71,5.51 C3.32,5.9 3.32,6.53 3.71,6.92 L5.04,8.25 C4.42,8.6 4,9.25 4,10 L4,20 C4,21.1 4.9,22 6,22 L18.78,22 L19.07,22.29 C19.46,22.68 20.09,22.68 20.48,22.29 C20.87,21.9 20.87,21.27 20.48,20.88 L5.12,5.51 Z" id="🔹-Icon-Color" fill="#1D1D1D"></path>
                    </g>
                </g>
            </g>
        </g>
    </g>
</svg>