<?xml version="1.0" encoding="UTF-8"?>
<svg width="20px" height="20px" viewBox="0 0 20 20" version="1.1" xmlns="http://www.w3.org/2000/svg" xmlns:xlink="http://www.w3.org/1999/xlink">
    <!-- Generator: Sketch 52.5 (67469) - http://www.bohemiancoding.com/sketch -->
    <title>no_sim</title>
    <desc>Created with Sketch.</desc>
    <g id="Icons" stroke="none" stroke-width="1" fill="none" fill-rule="evenodd">
        <g id="Two-Tone" transform="translate(-510.000000, -1263.000000)">
            <g id="Communication" transform="translate(100.000000, 1162.000000)">
                <g id="Two-Tone-/-Communication-/-no_sim" transform="translate(408.000000, 98.000000)">
                    <g>
                        <polygon id="Path" points="0 0 24 0 24 24 0 24"></polygon>
                        <path d="M7,19 L7,9.77 L16.23,19 L7,19 Z M10.84,5 L17,5 L17,14.11 L9.36,6.47 L10.84,5 Z" id="Shape" fill="#D0D0D0"></path>
                        <path d="M3.79,3.74 L21.26,21.21 L19.85,22.62 L17.97,20.74 C17.68,20.9 17.35,21 17,21 L7,21 C5.9,21 5,20.1 5,19 L5,8.01 L5.12,7.89 L2.38,5.15 L3.79,3.74 Z M7,19 L16.23,19 L7,9.77 L7,19 Z M10.84,5 L9.36,6.47 L7.95,5.06 L10.01,3 L17,3 C18.1,3 19,3.9 19,5 L19,16.11 L17,14.11 L17,5 L10.84,5 Z" id="🔹-Primary-Color" fill="#1D1D1D"></path>
                    </g>
                </g>
            </g>
        </g>
    </g>
</svg>