<?xml version="1.0" encoding="UTF-8"?>
<svg width="14px" height="20px" viewBox="0 0 14 20" version="1.1" xmlns="http://www.w3.org/2000/svg" xmlns:xlink="http://www.w3.org/1999/xlink">
    <!-- Generator: Sketch 52.5 (67469) - http://www.bohemiancoding.com/sketch -->
    <title>not_listed_location</title>
    <desc>Created with Sketch.</desc>
    <g id="Icons" stroke="none" stroke-width="1" fill="none" fill-rule="evenodd">
        <g id="Rounded" transform="translate(-921.000000, -3168.000000)">
            <g id="Maps" transform="translate(100.000000, 3068.000000)">
                <g id="-Round-/-Maps-/-not_listed_location" transform="translate(816.000000, 98.000000)">
                    <g transform="translate(0.000000, 0.000000)">
                        <polygon id="Path" points="0 0 24 0 24 24 0 24"></polygon>
                        <path d="M12,2 C8.14,2 5,5.14 5,9 C5,13.17 9.42,18.92 11.23,21.11 C11.63,21.59 12.36,21.59 12.76,21.11 C14.58,18.92 19,13.17 19,9 C19,5.14 15.86,2 12,2 Z M12.88,15.75 L11.13,15.75 L11.13,14 L12.88,14 L12.88,15.75 Z M13.26,11.71 C13.23,11.75 13.2,11.8 13.17,11.85 C13.15,11.89 13.12,11.93 13.1,11.97 C13.07,12.02 13.05,12.07 13.03,12.12 C13.01,12.16 12.99,12.2 12.98,12.25 C12.92,12.44 12.88,12.65 12.88,12.88 L11.12,12.88 C11.12,12.52 11.16,12.22 11.23,11.95 L11.25,11.95 L11.25,11.89 C11.76,10.13 13.61,10.03 13.73,8.65 C13.8,7.8 13.2,6.98 12.37,6.8 C11.46,6.6 10.63,7.13 10.34,7.92 C10.23,8.25 9.94,8.5 9.58,8.5 L9.42,8.5 C8.87,8.5 8.49,7.97 8.66,7.45 C9.16,5.87 10.75,4.77 12.55,5.05 C14.07,5.28 15.27,6.58 15.47,8.1 C15.74,10.09 14.05,10.61 13.26,11.71 Z" id="🔹-Icon-Color" fill="#1D1D1D"></path>
                    </g>
                </g>
            </g>
        </g>
    </g>
</svg>