<?xml version="1.0" encoding="UTF-8"?>
<svg width="18px" height="12px" viewBox="0 0 18 12" version="1.1" xmlns="http://www.w3.org/2000/svg" xmlns:xlink="http://www.w3.org/1999/xlink">
    <!-- Generator: Sketch 52.5 (67469) - http://www.bohemiancoding.com/sketch -->
    <title>notes</title>
    <desc>Created with Sketch.</desc>
    <g id="Icons" stroke="none" stroke-width="1" fill="none" fill-rule="evenodd">
        <g id="Rounded" transform="translate(-545.000000, -2064.000000)">
            <g id="Editor" transform="translate(100.000000, 1960.000000)">
                <g id="-Round-/-Editor-/-notes" transform="translate(442.000000, 98.000000)">
                    <g>
                        <polygon id="Path" points="0 0 24 0 24 24 0 24"></polygon>
                        <path d="M20,11 L4,11 C3.45,11 3,11.45 3,12 C3,12.55 3.45,13 4,13 L20,13 C20.55,13 21,12.55 21,12 C21,11.45 20.55,11 20,11 Z M4,18 L14,18 C14.55,18 15,17.55 15,17 C15,16.45 14.55,16 14,16 L4,16 C3.45,16 3,16.45 3,17 C3,17.55 3.45,18 4,18 Z M20,6 L4,6 C3.45,6 3,6.45 3,7 L3,7.01 C3,7.56 3.45,8.01 4,8.01 L20,8.01 C20.55,8.01 21,7.56 21,7.01 L21,7 C21,6.45 20.55,6 20,6 Z" id="🔹-Icon-Color" fill="#1D1D1D"></path>
                    </g>
                </g>
            </g>
        </g>
    </g>
</svg>