<?xml version="1.0" encoding="UTF-8"?>
<svg width="20px" height="16px" viewBox="0 0 20 16" version="1.1" xmlns="http://www.w3.org/2000/svg" xmlns:xlink="http://www.w3.org/1999/xlink">
    <!-- Generator: Sketch 52.5 (67469) - http://www.bohemiancoding.com/sketch -->
    <title>ocal_activity</title>
    <desc>Created with Sketch.</desc>
    <g id="Icons" stroke="none" stroke-width="1" fill="none" fill-rule="evenodd">
        <g id="Rounded" transform="translate(-306.000000, -3170.000000)">
            <g id="Maps" transform="translate(100.000000, 3068.000000)">
                <g id="-Round-/-Maps-/-ocal_activity" transform="translate(204.000000, 98.000000)">
                    <g>
                        <polygon id="Path" points="0 0 24 0 24 24 0 24"></polygon>
                        <path d="M20,12 C20,11.24 20.43,10.58 21.06,10.24 C21.66,9.91 22,9.23 22,8.54 L22,6 C22,4.9 21.1,4 20,4 L4,4 C2.9,4 2.01,4.89 2.01,5.99 L2.01,8.54 C2.01,9.23 2.34,9.91 2.95,10.23 C3.58,10.58 4,11.24 4,12 C4,12.76 3.57,13.43 2.94,13.76 C2.34,14.09 2,14.77 2,15.46 L2,18 C2,19.1 2.9,20 4,20 L20,20 C21.1,20 22,19.1 22,18 L22,15.46 C22,14.77 21.66,14.09 21.06,13.76 C20.43,13.42 20,12.76 20,12 Z M14.5,16.1 L12,14.5 L9.5,16.11 C9.12,16.35 8.63,16 8.75,15.56 L9.5,12.68 L7.2,10.8 C6.85,10.51 7.03,9.94 7.49,9.91 L10.45,9.74 L11.53,6.99 C11.7,6.57 12.3,6.57 12.46,6.99 L13.54,9.75 L16.5,9.92 C16.95,9.95 17.14,10.52 16.79,10.81 L14.49,12.69 L15.25,15.55 C15.37,16 14.88,16.35 14.5,16.1 Z" id="🔹-Icon-Color" fill="#1D1D1D"></path>
                    </g>
                </g>
            </g>
        </g>
    </g>
</svg>