<?xml version="1.0" encoding="UTF-8"?>
<svg width="22px" height="18px" viewBox="0 0 22 18" version="1.1" xmlns="http://www.w3.org/2000/svg" xmlns:xlink="http://www.w3.org/1999/xlink">
    <!-- Generator: Sketch 52.5 (67469) - http://www.bohemiancoding.com/sketch -->
    <title>ondemand_video</title>
    <desc>Created with Sketch.</desc>
    <g id="Icons" stroke="none" stroke-width="1" fill="none" fill-rule="evenodd">
        <g id="Rounded" transform="translate(-441.000000, -3701.000000)">
            <g id="Notification" transform="translate(100.000000, 3600.000000)">
                <g id="-Round-/-Notification-/-ondemand_video" transform="translate(340.000000, 98.000000)">
                    <g>
                        <polygon id="Path" points="0 0 24 0 24 24 0 24"></polygon>
                        <path d="M21,3 L3,3 C1.9,3 1,3.9 1,5 L1,17 C1,18.1 1.9,19 3,19 L8,19 L8,20 C8,20.55 8.45,21 9,21 L15,21 C15.55,21 16,20.55 16,20 L16,19 L21,19 C22.1,19 22.99,18.1 22.99,17 L23,5 C23,3.89 22.1,3 21,3 Z M20,17 L4,17 C3.45,17 3,16.55 3,16 L3,6 C3,5.45 3.45,5 4,5 L20,5 C20.55,5 21,5.45 21,6 L21,16 C21,16.55 20.55,17 20,17 Z M14.48,11.87 L10.5,14.15 C9.83,14.53 9,14.04 9,13.28 L9,8.72 C9,7.95 9.83,7.47 10.5,7.85 L14.48,10.13 C15.15,10.52 15.15,11.48 14.48,11.87 Z" id="🔹-Icon-Color" fill="#1D1D1D"></path>
                    </g>
                </g>
            </g>
        </g>
    </g>
</svg>