<?xml version="1.0" encoding="UTF-8"?>
<svg width="16px" height="18px" viewBox="0 0 16 18" version="1.1" xmlns="http://www.w3.org/2000/svg" xmlns:xlink="http://www.w3.org/1999/xlink">
    <!-- Generator: Sketch 52.5 (67469) - http://www.bohemiancoding.com/sketch -->
    <title>otate_right</title>
    <desc>Created with Sketch.</desc>
    <g id="Icons" stroke="none" stroke-width="1" fill="none" fill-rule="evenodd">
        <g id="Rounded" transform="translate(-614.000000, -2902.000000)">
            <g id="Image" transform="translate(100.000000, 2626.000000)">
                <g id="-Round-/-Image-/-otate_right" transform="translate(510.000000, 274.000000)">
                    <g>
                        <polygon id="Path" points="0 0 24 0 24 24 0 24"></polygon>
                        <path d="M14.83,4.83 L12.7,2.7 C12.08,2.08 11,2.52 11,3.41 L11,4.07 C7.06,4.56 4,7.92 4,12 C4,15.64 6.43,18.71 9.77,19.68 C10.39,19.86 11,19.36 11,18.72 L11,18.69 C11,18.26 10.73,17.87 10.32,17.75 C7.82,17.03 6,14.73 6,12 C6,9.03 8.16,6.57 11,6.09 L11,7.62 C11,8.51 12.07,8.95 12.7,8.33 L14.83,6.25 C15.23,5.87 15.23,5.23 14.83,4.83 Z M19.67,9.76 C19.51,9.21 19.29,8.68 19.01,8.17 C18.7,7.6 17.91,7.51 17.45,7.97 L17.44,7.98 C17.13,8.29 17.06,8.76 17.27,9.14 C17.47,9.51 17.63,9.9 17.75,10.3 C17.87,10.72 18.26,11 18.69,11 L18.71,11 C19.36,11 19.86,10.38 19.67,9.76 Z M13,18.68 L13,18.7 C13,19.35 13.62,19.84 14.24,19.66 C14.79,19.5 15.32,19.28 15.83,19 C16.4,18.69 16.49,17.9 16.03,17.44 L16.01,17.42 C15.7,17.11 15.23,17.04 14.85,17.25 C14.48,17.46 14.09,17.62 13.69,17.74 C13.28,17.86 13,18.25 13,18.68 Z M17.44,16.03 C17.9,16.49 18.69,16.4 19,15.83 C19.28,15.32 19.5,14.79 19.67,14.24 C19.85,13.62 19.36,13 18.71,13 L18.69,13 C18.25,13 17.87,13.28 17.75,13.7 C17.63,14.1 17.47,14.49 17.27,14.87 C17.06,15.25 17.14,15.73 17.44,16.03 Z" id="🔹-Icon-Color" fill="#1D1D1D"></path>
                    </g>
                </g>
            </g>
        </g>
    </g>
</svg>