<?xml version="1.0" encoding="UTF-8"?>
<svg width="17px" height="21px" viewBox="0 0 17 21" version="1.1" xmlns="http://www.w3.org/2000/svg" xmlns:xlink="http://www.w3.org/1999/xlink">
    <!-- Generator: Sketch 52.5 (67469) - http://www.bohemiancoding.com/sketch -->
    <title>ouch_app</title>
    <desc>Created with Sketch.</desc>
    <g id="Icons" stroke="none" stroke-width="1" fill="none" fill-rule="evenodd">
        <g id="Two-Tone" transform="translate(-852.000000, -463.000000)">
            <g id="Action" transform="translate(100.000000, 100.000000)">
                <g id="Two-Tone-/-Action-/-ouch_app" transform="translate(748.000000, 362.000000)">
                    <g>
                        <rect id="Rectangle" x="0" y="0" width="24" height="24"></rect>
                        <path d="M19.12,12.44 L15.88,10.82 C17.17,9.82 18,8.26 18,6.5 C18,3.47 15.53,1 12.5,1 C9.47,1 7,3.47 7,6.5 C7,8.63 8.22,10.48 10,11.39 L10,14.65 L8.16,14.26 L8.06,14.24 C7.96,14.22 7.86,14.21 7.74,14.21 C7.21,14.21 6.71,14.42 6.33,14.8 L4.93,16.22 L10.02,21.31 C10.45,21.75 11.05,22 11.67,22 L17.97,22 C18.95,22 19.78,21.3 19.94,20.33 L20.74,15.62 C20.96,14.32 20.31,13.04 19.12,12.44 Z M9,6.5 C9,4.57 10.57,3 12.5,3 C14.43,3 16,4.57 16,6.5 C16,7.45 15.62,8.31 15,8.94 L15,6.5 C15,5.12 13.88,4 12.5,4 C11.12,4 10,5.12 10,6.5 L10,8.94 C9.38,8.31 9,7.45 9,6.5 Z M18.77,15.29 L17.97,20 L11.67,20 C11.58,20 11.5,19.96 11.43,19.9 L7.75,16.22 L12,17.11 L12,6.5 C12,6.22 12.22,6 12.5,6 C12.78,6 13,6.22 13,6.5 L13,12.5 L14.76,12.5 L18.22,14.23 C18.62,14.43 18.84,14.86 18.77,15.29 Z" id="🔹-Primary-Color" fill="#1D1D1D"></path>
                        <path d="M18.23,14.23 L14.77,12.5 L13,12.5 L13,6.5 C13,6.22 12.78,6 12.5,6 C12.22,6 12,6.22 12,6.5 L12,17.11 L7.75,16.22 L11.43,19.9 C11.49,19.96 11.58,20 11.67,20 L17.97,20 L18.77,15.29 C18.84,14.86 18.62,14.43 18.23,14.23 Z" id="🔹-Secondary-Color" fill="#D0D0D0"></path>
                    </g>
                </g>
            </g>
        </g>
    </g>
</svg>