<?xml version="1.0" encoding="UTF-8"?>
<svg width="21px" height="24px" viewBox="0 0 21 24" version="1.1" xmlns="http://www.w3.org/2000/svg" xmlns:xlink="http://www.w3.org/1999/xlink">
    <!-- Generator: Sketch 52.5 (67469) - http://www.bohemiancoding.com/sketch -->
    <title>pan_tool</title>
    <desc>Created with Sketch.</desc>
    <g id="Icons" stroke="none" stroke-width="1" fill="none" fill-rule="evenodd">
        <g id="Two-Tone" transform="translate(-543.000000, -330.000000)">
            <g id="Action" transform="translate(100.000000, 100.000000)">
                <g id="Two-Tone-/-Action-/-pan_tool" transform="translate(442.000000, 230.000000)">
                    <g>
                        <polygon id="Path" points="0 0 24 0 24 24 0 24"></polygon>
                        <path d="M19.5,5.65 C19.22,5.65 19,5.87 19,6.15 L19,12 L17,12 L17,3.42 C17,3.14 16.78,2.92 16.5,2.92 C16.22,2.92 16,3.14 16,3.42 L16,12 L14,12 L14,2.51 C14,2.23 13.78,2.01 13.5,2.01 C13.22,2.01 13,2.23 13,2.51 L13,12 L11,12 L11,4.79 C11,4.51 10.78,4.29 10.5,4.29 C10.22,4.29 10,4.52 10,4.79 L10,17.66 L4.65,14.83 L4.14,15.28 L10,21.38 C10.38,21.77 10.9,22 11.44,22 L18,22 C19.1,22 20,21.1 20,20 L20,6.15 C20,5.87 19.78,5.65 19.5,5.65 Z" id="🔹-Secondary-Color" fill="#D0D0D0"></path>
                        <path d="M19.5,3.65 C19.33,3.65 19.16,3.67 19,3.7 L19,3.42 C19,2.04 17.88,0.92 16.5,0.92 C16.17,0.92 15.85,0.98 15.56,1.1 C15.11,0.44 14.35,0.01 13.5,0.01 C12.18,0.01 11.09,1.04 11.01,2.34 C10.85,2.31 10.68,2.29 10.5,2.29 C9.12,2.29 8,3.41 8,4.79 L8,14.34 L5.59,13.06 C4.86,12.67 3.95,12.78 3.33,13.33 L1.26,15.16 L8.56,22.77 C9.31,23.55 10.36,24 11.45,24 L18,24 C20.21,24 22,22.21 22,20 L22,6.15 C22,4.77 20.88,3.65 19.5,3.65 Z M20,20 C20,21.1 19.1,22 18,22 L11.45,22 C10.91,22 10.38,21.78 10.01,21.38 L4.15,15.27 L4.66,14.82 L10,17.66 L10,4.79 C10,4.51 10.22,4.29 10.5,4.29 C10.78,4.29 11,4.52 11,4.79 L11,12 L13,12 L13,2.51 C13,2.23 13.22,2.01 13.5,2.01 C13.78,2.01 14,2.23 14,2.51 L14,12 L16,12 L16,3.42 C16,3.14 16.22,2.92 16.5,2.92 C16.78,2.92 17,3.14 17,3.42 L17,12 L19,12 L19,6.15 C19,5.87 19.22,5.65 19.5,5.65 C19.78,5.65 20,5.87 20,6.15 L20,20 Z" id="🔹-Primary-Color" fill="#1D1D1D"></path>
                    </g>
                </g>
            </g>
        </g>
    </g>
</svg>