<?xml version="1.0" encoding="UTF-8"?>
<svg width="24px" height="20px" viewBox="0 0 24 20" version="1.1" xmlns="http://www.w3.org/2000/svg" xmlns:xlink="http://www.w3.org/1999/xlink">
    <!-- Generator: Sketch 52.5 (67469) - http://www.bohemiancoding.com/sketch -->
    <title>perm_media</title>
    <desc>Created with Sketch.</desc>
    <g id="Icons" stroke="none" stroke-width="1" fill="none" fill-rule="evenodd">
        <g id="Rounded" transform="translate(-576.000000, -376.000000)">
            <g id="Action" transform="translate(100.000000, 100.000000)">
                <g id="-Round-/-Action-/-perm_media" transform="translate(476.000000, 274.000000)">
                    <g transform="translate(0.000000, 0.000000)">
                        <polygon id="Path" points="0 0 24 0 24 24 0 24"></polygon>
                        <path d="M1,6 C0.45,6 0,6.45 0,7 L0,11 L0.01,11 L0,20 C0,21.1 0.9,22 2,22 L19,22 C19.55,22 20,21.55 20,21 C20,20.45 19.55,20 19,20 L3,20 C2.45,20 2,19.55 2,19 L2,7 C2,6.45 1.55,6 1,6 Z M22,4 L14,4 L12.59,2.59 C12.21,2.21 11.7,2 11.17,2 L6,2 C4.9,2 4.01,2.9 4.01,4 L4,16 C4,17.1 4.9,18 6,18 L22,18 C23.1,18 24,17.1 24,16 L24,6 C24,4.9 23.1,4 22,4 Z M7.6,14.2 L11.11,9.52 C11.31,9.26 11.7,9.25 11.91,9.51 L15.01,13.5 L17.11,10.97 C17.31,10.72 17.69,10.73 17.89,10.98 L20.38,14.18 C20.64,14.51 20.4,14.99 19.99,14.99 L8,14.99 C7.59,15 7.35,14.53 7.6,14.2 Z" id="🔹Icon-Color" fill="#1D1D1D"></path>
                    </g>
                </g>
            </g>
        </g>
    </g>
</svg>