<?xml version="1.0" encoding="UTF-8"?>
<svg width="18px" height="20px" viewBox="0 0 18 20" version="1.1" xmlns="http://www.w3.org/2000/svg" xmlns:xlink="http://www.w3.org/1999/xlink">
    <!-- Generator: Sketch 52.5 (67469) - http://www.bohemiancoding.com/sketch -->
    <title>perm_contact_calendar</title>
    <desc>Created with Sketch.</desc>
    <g id="Icons" stroke="none" stroke-width="1" fill="none" fill-rule="evenodd">
        <g id="Outlined" transform="translate(-749.000000, -375.000000)">
            <g id="Action" transform="translate(100.000000, 100.000000)">
                <g id="Outlined-/-Action-/-perm_contact_calendar" transform="translate(646.000000, 274.000000)">
                    <g>
                        <polygon id="Path" points="0 0 24 0 24 24 0 24"></polygon>
                        <path d="M20.84,4.22 C20.79,4.1 20.73,3.99 20.66,3.88 C20.52,3.67 20.33,3.48 20.12,3.34 C20.01,3.27 19.9,3.21 19.78,3.16 C19.54,3.06 19.28,3 19,3 L18,3 L18,1 L16,1 L16,3 L8,3 L8,1 L6,1 L6,3 L5,3 C4.58,3 4.2,3.13 3.88,3.34 C3.67,3.48 3.48,3.67 3.34,3.88 C3.27,3.99 3.21,4.1 3.16,4.22 C3.06,4.46 3,4.72 3,5 L3,19 C3,20.1 3.89,21 5,21 L19,21 C19.28,21 19.54,20.94 19.78,20.84 C19.9,20.79 20.01,20.73 20.12,20.66 C20.33,20.52 20.52,20.33 20.66,20.12 C20.87,19.8 21,19.41 21,19 L21,5 C21,4.72 20.94,4.46 20.84,4.22 Z M5,19 L5,5 L19,5 L19,19 L5,19 Z M12,12.88 C9.97,12.88 6,13.96 6,16.46 L6,18 L18,18 L18,16.47 C18,13.96 14.03,12.88 12,12.88 Z M8.31,16 C9,15.44 10.69,14.88 12,14.88 C13.31,14.88 15.01,15.44 15.69,16 L8.31,16 Z M12,12 C13.65,12 15,10.65 15,9 C15,7.35 13.65,6 12,6 C10.35,6 9,7.35 9,9 C9,10.65 10.35,12 12,12 Z M12,8 C12.55,8 13,8.45 13,9 C13,9.55 12.55,10 12,10 C11.45,10 11,9.55 11,9 C11,8.45 11.45,8 12,8 Z" id="🔹-Icon-Color" fill="#1D1D1D"></path>
                    </g>
                </g>
            </g>
        </g>
    </g>
</svg>