<?xml version="1.0" encoding="UTF-8"?>
<svg width="18px" height="21px" viewBox="0 0 18 21" version="1.1" xmlns="http://www.w3.org/2000/svg" xmlns:xlink="http://www.w3.org/1999/xlink">
    <!-- Generator: Sketch 52.5 (67469) - http://www.bohemiancoding.com/sketch -->
    <title>person_pin</title>
    <desc>Created with Sketch.</desc>
    <g id="Icons" stroke="none" stroke-width="1" fill="none" fill-rule="evenodd">
        <g id="Outlined" transform="translate(-681.000000, -3212.000000)">
            <g id="Maps" transform="translate(100.000000, 3068.000000)">
                <g id="Outlined-/-Maps-/-person_pin" transform="translate(578.000000, 142.000000)">
                    <g>
                        <polygon id="Path" points="0 0 24 0 24 24 0 24"></polygon>
                        <path d="M19,2 L5,2 C3.89,2 3,2.9 3,4 L3,18 C3,19.1 3.89,20 5,20 L9,20 L12,23 L15,20 L19,20 C20.1,20 21,19.1 21,18 L21,4 C21,2.9 20.1,2 19,2 Z M19,18 L14.17,18 L13.58,18.59 L12,20.17 L10.41,18.58 L9.83,18 L5,18 L5,4 L19,4 L19,18 Z M12,11 C13.65,11 15,9.65 15,8 C15,6.35 13.65,5 12,5 C10.35,5 9,6.35 9,8 C9,9.65 10.35,11 12,11 Z M12,7 C12.55,7 13,7.45 13,8 C13,8.55 12.55,9 12,9 C11.45,9 11,8.55 11,8 C11,7.45 11.45,7 12,7 Z M18,15.58 C18,13.08 14.03,12 12,12 C9.97,12 6,13.08 6,15.58 L6,17 L18,17 L18,15.58 Z M8.48,15 C9.22,14.49 10.71,14 12,14 C13.29,14 14.78,14.49 15.52,15 L8.48,15 Z" id="🔹-Icon-Color" fill="#1D1D1D"></path>
                    </g>
                </g>
            </g>
        </g>
    </g>
</svg>