<?xml version="1.0" encoding="UTF-8"?>
<svg width="22px" height="18px" viewBox="0 0 22 18" version="1.1" xmlns="http://www.w3.org/2000/svg" xmlns:xlink="http://www.w3.org/1999/xlink">
    <!-- Generator: Sketch 52.5 (67469) - http://www.bohemiancoding.com/sketch -->
    <title>personal_video</title>
    <desc>Created with Sketch.</desc>
    <g id="Icons" stroke="none" stroke-width="1" fill="none" fill-rule="evenodd">
        <g id="Two-Tone" transform="translate(-679.000000, -3701.000000)">
            <g id="Notification" transform="translate(100.000000, 3600.000000)">
                <g id="Two-Tone-/-Notification-/-personal_video" transform="translate(578.000000, 98.000000)">
                    <g>
                        <polygon id="Path" points="0 0 24 0 24 24 0 24"></polygon>
                        <polygon id="🔹-Secondary-Color" fill="#D0D0D0" points="3 5 21 5 21 17 3 17"></polygon>
                        <path d="M21,3 L3,3 C1.89,3 1,3.89 1,5 L1,17 C1,18.1 1.89,19 3,19 L8,19 L8,21 L16,21 L16,19 L21,19 C22.1,19 22.99,18.1 22.99,17 L23,5 C23,3.89 22.1,3 21,3 Z M21,17 L3,17 L3,5 L21,5 L21,17 Z" id="🔹-Primary-Color" fill="#1D1D1D"></path>
                    </g>
                </g>
            </g>
        </g>
    </g>
</svg>