<?xml version="1.0" encoding="UTF-8"?>
<svg width="20px" height="19px" viewBox="0 0 20 19" version="1.1" xmlns="http://www.w3.org/2000/svg" xmlns:xlink="http://www.w3.org/1999/xlink">
    <!-- Generator: Sketch 52.5 (67469) - http://www.bohemiancoding.com/sketch -->
    <title>pets</title>
    <desc>Created with Sketch.</desc>
    <g id="Icons" stroke="none" stroke-width="1" fill="none" fill-rule="evenodd">
        <g id="Rounded" transform="translate(-476.000000, -377.000000)">
            <g id="Action" transform="translate(100.000000, 100.000000)">
                <g id="-Round-/-Action-/-pets" transform="translate(374.000000, 274.000000)">
                    <g>
                        <polygon id="Path" points="0 0 24 0 24 24 0 24"></polygon>
                        <path d="M4.5,12 C3.11928813,12 2,10.8807119 2,9.5 C2,8.11928813 3.11928813,7 4.5,7 C5.88071187,7 7,8.11928813 7,9.5 C7,10.8807119 5.88071187,12 4.5,12 Z M9,8 C7.61928813,8 6.5,6.88071187 6.5,5.5 C6.5,4.11928813 7.61928813,3 9,3 C10.3807119,3 11.5,4.11928813 11.5,5.5 C11.5,6.88071187 10.3807119,8 9,8 Z M15,8 C13.6192881,8 12.5,6.88071187 12.5,5.5 C12.5,4.11928813 13.6192881,3 15,3 C16.3807119,3 17.5,4.11928813 17.5,5.5 C17.5,6.88071187 16.3807119,8 15,8 Z M19.5,12 C18.1192881,12 17,10.8807119 17,9.5 C17,8.11928813 18.1192881,7 19.5,7 C20.8807119,7 22,8.11928813 22,9.5 C22,10.8807119 20.8807119,12 19.5,12 Z M17.34,14.86 C18.65,16.17 20.26,17.62 19.95,19.66 C19.66,20.67 18.93,21.69 17.62,21.98 C16.89,22.12 14.56,21.54 12.08,21.54 L11.9,21.54 C9.42,21.54 7.09,22.13 6.36,21.98 C5.05,21.69 4.32,20.68 4.03,19.66 C3.73,17.63 5.34,16.18 6.65,14.87 C7.53,13.85 8.26,12.98 9.13,11.96 C9.6,11.42 10.18,10.88 10.88,10.64 C10.99,10.6 11.1,10.57 11.21,10.55 C11.47,10.5 11.74,10.5 12,10.5 C12.26,10.5 12.53,10.5 12.78,10.54 C12.89,10.56 13,10.59 13.11,10.63 C13.81,10.87 14.4,11.41 14.86,11.95 C15.74,12.97 16.47,13.84 17.34,14.86 Z" id="🔹Icon-Color" fill="#1D1D1D"></path>
                    </g>
                </g>
            </g>
        </g>
    </g>
</svg>