<?xml version="1.0" encoding="UTF-8"?>
<svg width="17px" height="22px" viewBox="0 0 17 22" version="1.1" xmlns="http://www.w3.org/2000/svg" xmlns:xlink="http://www.w3.org/1999/xlink">
    <!-- Generator: Sketch 52.5 (67469) - http://www.bohemiancoding.com/sketch -->
    <title>phonelink_lock</title>
    <desc>Created with Sketch.</desc>
    <g id="Icons" stroke="none" stroke-width="1" fill="none" fill-rule="evenodd">
        <g id="Rounded" transform="translate(-682.000000, -1261.000000)">
            <g id="Communication" transform="translate(100.000000, 1162.000000)">
                <g id="-Round-/-Communication-/-phonelink_lock" transform="translate(578.000000, 98.000000)">
                    <g transform="translate(0.000000, 0.000000)">
                        <polygon id="Path" points="0 0 24 0 24 24 0 24"></polygon>
                        <path d="M19,1 L9,1 C7.9,1 7,1.9 7,3 L7,5 C7,5.55 7.45,6 8,6 C8.55,6 9,5.55 9,5 L9,4 L19,4 L19,20 L9,20 L9,19 C9,18.45 8.55,18 8,18 C7.45,18 7,18.45 7,19 L7,21 C7,22.1 7.9,23 9,23 L19,23 C20.1,23 21,22.1 21,21 L21,3 C21,1.9 20.1,1 19,1 Z M10.8,11 L10.8,9.5 C10.8,8.1 9.4,7 8,7 C6.6,7 5.2,8.1 5.2,9.5 L5.2,11 C4.6,11 4,11.6 4,12.2 L4,15.7 C4,16.4 4.6,17 5.2,17 L10.7,17 C11.4,17 12,16.4 12,15.8 L12,12.3 C12,11.6 11.4,11 10.8,11 Z M9.5,11 L6.5,11 L6.5,9.5 C6.5,8.7 7.2,8.2 8,8.2 C8.8,8.2 9.5,8.7 9.5,9.5 L9.5,11 Z" id="🔹Icon-Color" fill="#1D1D1D"></path>
                    </g>
                </g>
            </g>
        </g>
    </g>
</svg>