<?xml version="1.0" encoding="UTF-8"?>
<svg width="18px" height="20px" viewBox="0 0 18 20" version="1.1" xmlns="http://www.w3.org/2000/svg" xmlns:xlink="http://www.w3.org/1999/xlink">
    <!-- Generator: Sketch 52.5 (67469) - http://www.bohemiancoding.com/sketch -->
    <title>phone_locked</title>
    <desc>Created with Sketch.</desc>
    <g id="Icons" stroke="none" stroke-width="1" fill="none" fill-rule="evenodd">
        <g id="Two-Tone" transform="translate(-511.000000, -3699.000000)">
            <g id="Notification" transform="translate(100.000000, 3600.000000)">
                <g id="Two-Tone-/-Notification-/-phone_locked" transform="translate(408.000000, 98.000000)">
                    <g>
                        <polygon id="Path" points="0 0 24 0 24 24 0 24"></polygon>
                        <path d="M6.54,5 L5.04,5 C5.13,6.32 5.38,7.58 5.79,8.79 L6.99,7.58 C6.75,6.75 6.6,5.88 6.54,5 Z M15.2,18.21 C16.41,18.62 17.68,18.88 19,18.97 L19,17.47 C18.12,17.4 17.25,17.25 16.4,17.02 L15.2,18.21 Z" id="🔹-Secondary-Color" fill="#D0D0D0"></path>
                        <path d="M20,15.5 C18.75,15.5 17.55,15.3 16.43,14.93 C16.33,14.9 16.22,14.88 16.12,14.88 C15.86,14.88 15.61,14.98 15.41,15.17 L13.21,17.37 C10.38,15.93 8.06,13.62 6.62,10.78 L8.82,8.57 C9.1,8.31 9.18,7.92 9.07,7.57 C8.7,6.45 8.5,5.25 8.5,4 C8.5,3.45 8.05,3 7.5,3 L4,3 C3.45,3 3,3.45 3,4 C3,13.39 10.61,21 20,21 C20.55,21 21,20.55 21,20 L21,16.5 C21,15.95 20.55,15.5 20,15.5 Z M5.03,5 L6.53,5 C6.6,5.88 6.75,6.75 6.98,7.58 L5.78,8.79 C5.38,7.58 5.12,6.32 5.03,5 Z M19,18.97 C17.68,18.88 16.4,18.62 15.2,18.21 L16.4,17.01 C17.25,17.25 18.12,17.4 19,17.46 L19,18.97 Z M20,4 L20,3.5 C20,2.12 18.88,1 17.5,1 C16.12,1 15,2.12 15,3.5 L15,4 C14.45,4 14,4.45 14,5 L14,9 C14,9.55 14.45,10 15,10 L20,10 C20.55,10 21,9.55 21,9 L21,5 C21,4.45 20.55,4 20,4 Z M19,4 L16,4 L16,3.5 C16,2.67 16.67,2 17.5,2 C18.33,2 19,2.67 19,3.5 L19,4 Z" id="🔹-Primary-Color" fill="#1D1D1D"></path>
                    </g>
                </g>
            </g>
        </g>
    </g>
</svg>