<?xml version="1.0" encoding="UTF-8"?>
<svg width="18px" height="19px" viewBox="0 0 18 19" version="1.1" xmlns="http://www.w3.org/2000/svg" xmlns:xlink="http://www.w3.org/1999/xlink">
    <!-- Generator: Sketch 52.5 (67469) - http://www.bohemiancoding.com/sketch -->
    <title>phone_callback</title>
    <desc>Created with Sketch.</desc>
    <g id="Icons" stroke="none" stroke-width="1" fill="none" fill-rule="evenodd">
        <g id="Outlined" transform="translate(-885.000000, -3700.000000)">
            <g id="Notification" transform="translate(100.000000, 3600.000000)">
                <g id="Outlined-/-Notification-/-phone_callback" transform="translate(782.000000, 98.000000)">
                    <g>
                        <polygon id="Path" points="0 0 24 0 24 24 0 24"></polygon>
                        <path d="M20,15.51 C18.76,15.51 17.55,15.31 16.43,14.94 C16.33,14.9 16.22,14.89 16.12,14.89 C15.86,14.89 15.61,14.99 15.41,15.18 L13.21,17.38 C10.38,15.93 8.06,13.62 6.62,10.79 L8.82,8.59 C9.1,8.31 9.18,7.92 9.07,7.57 C8.7,6.45 8.5,5.25 8.5,4 C8.5,3.45 8.05,3 7.5,3 L4,3 C3.45,3 3,3.45 3,4 C3,13.39 10.61,21 20,21 C20.55,21 21,20.55 21,20 L21,16.51 C21,15.96 20.55,15.51 20,15.51 Z M5.03,5 L6.53,5 C6.6,5.89 6.75,6.76 6.99,7.59 L5.79,8.79 C5.38,7.59 5.12,6.32 5.03,5 Z M19,18.97 C17.68,18.88 16.41,18.62 15.2,18.22 L16.39,17.03 C17.24,17.27 18.11,17.42 18.99,17.48 L18.99,18.97 L19,18.97 Z M18,9 L15.41,9 L20.43,3.98 L19.02,2.57 L14,7.59 L14,5 L12,5 L12,11 L18,11 L18,9 Z" id="🔹-Icon-Color" fill="#1D1D1D"></path>
                    </g>
                </g>
            </g>
        </g>
    </g>
</svg>