<?xml version="1.0" encoding="UTF-8"?>
<svg width="24px" height="19px" viewBox="0 0 24 19" version="1.1" xmlns="http://www.w3.org/2000/svg" xmlns:xlink="http://www.w3.org/1999/xlink">
    <!-- Generator: Sketch 52.5 (67469) - http://www.bohemiancoding.com/sketch -->
    <title>phone_missed</title>
    <desc>Created with Sketch.</desc>
    <g id="Icons" stroke="none" stroke-width="1" fill="none" fill-rule="evenodd">
        <g id="Outlined" transform="translate(-746.000000, -3700.000000)">
            <g id="Notification" transform="translate(100.000000, 3600.000000)">
                <g id="Outlined-/-Notification-/-phone_missed" transform="translate(646.000000, 98.000000)">
                    <g>
                        <polygon id="Path" points="0 0 23.04 0 23.04 24 0 24"></polygon>
                        <path d="M22.7616,16.67 C19.8336,13.78 15.8784,12 11.52,12 C7.1616,12 3.2064,13.78 0.2784,16.67 C0.1056,16.85 0,17.1 0,17.38 C0,17.66 0.1056,17.91 0.2784,18.09 L2.6592,20.57 C2.832,20.75 3.072,20.86 3.3408,20.86 C3.6,20.86 3.84,20.75 4.0128,20.58 C4.7712,19.84 5.6352,19.22 6.5664,18.73 C6.8832,18.57 7.104,18.23 7.104,17.83 L7.104,14.73 C8.496,14.25 9.984,14 11.52,14 C13.056,14 14.544,14.25 15.936,14.72 L15.936,17.82 C15.936,18.21 16.1568,18.56 16.4736,18.72 C17.4144,19.21 18.2688,19.84 19.0368,20.57 C19.2096,20.75 19.4496,20.85 19.7088,20.85 C19.9776,20.85 20.2176,20.74 20.3904,20.56 L22.7712,18.08 C22.944,17.9 23.0496,17.65 23.0496,17.37 C23.0496,17.09 22.9344,16.85 22.7616,16.67 Z M5.184,17.23 C4.5504,17.6 3.9456,18.03 3.3888,18.5 L2.3616,17.43 C3.2352,16.68 4.1856,16.04 5.1936,15.53 L5.1936,17.23 L5.184,17.23 Z M19.6608,18.49 C19.0848,18.01 18.4896,17.59 17.856,17.22 L17.856,15.52 C18.864,16.03 19.8048,16.67 20.688,17.42 L19.6608,18.49 Z M6.72,6.43 L11.4624,11.37 L18.2496,4.3 L16.896,2.88 L11.4624,8.54 L8.064,5 L10.56,5 L10.56,3 L4.8,3 L4.8,9 L6.72,9 L6.72,6.43 Z" id="🔹-Icon-Color" fill="#1D1D1D"></path>
                    </g>
                </g>
            </g>
        </g>
    </g>
</svg>