<?xml version="1.0" encoding="UTF-8"?>
<svg width="24px" height="18px" viewBox="0 0 24 18" version="1.1" xmlns="http://www.w3.org/2000/svg" xmlns:xlink="http://www.w3.org/1999/xlink">
    <!-- Generator: Sketch 52.5 (67469) - http://www.bohemiancoding.com/sketch -->
    <title>phone_missed</title>
    <desc>Created with Sketch.</desc>
    <g id="Icons" stroke="none" stroke-width="1" fill="none" fill-rule="evenodd">
        <g id="Rounded" transform="translate(-202.000000, -3701.000000)">
            <g id="Notification" transform="translate(100.000000, 3600.000000)">
                <g id="-Round-/-Notification-/-phone_missed" transform="translate(102.000000, 98.000000)">
                    <g>
                        <polygon id="Path" points="0 0 24 0 24 24 0 24"></polygon>
                        <path d="M23.09,16.2 C16.76,10.61 7.23,10.61 0.91,16.2 C0.07,16.94 0.07,18.25 0.86,19.04 L2.06,20.24 C2.77,20.95 3.9,21.01 4.68,20.39 L6.65,18.82 C7.12,18.45 7.4,17.88 7.4,17.27 L7.4,14.7 C10.38,13.73 13.61,13.72 16.6,14.7 L16.6,17.28 C16.6,17.88 16.88,18.45 17.35,18.83 L19.31,20.39 C20.1,21.01 21.22,20.95 21.93,20.24 L23.13,19.04 C23.93,18.25 23.92,16.94 23.09,16.2 Z M6,9 C6.55,9 7,8.55 7,8 L7,6.43 L11.24,10.67 C11.63,11.06 12.26,11.06 12.65,10.67 L18.31,5.01 C18.7,4.62 18.7,3.99 18.31,3.6 C17.92,3.21 17.29,3.21 16.9,3.6 L11.95,8.55 L8.4,5 L10,5 C10.55,5 11,4.55 11,4 C11,3.45 10.55,3 10,3 L6,3 C5.45,3 5,3.45 5,4 L5,8 C5,8.55 5.45,9 6,9 Z" id="🔹-Icon-Color" fill="#1D1D1D"></path>
                    </g>
                </g>
            </g>
        </g>
    </g>
</svg>