<?xml version="1.0" encoding="UTF-8"?>
<svg width="18px" height="22px" viewBox="0 0 18 22" version="1.1" xmlns="http://www.w3.org/2000/svg" xmlns:xlink="http://www.w3.org/1999/xlink">
    <!-- Generator: Sketch 52.5 (67469) - http://www.bohemiancoding.com/sketch -->
    <title>phonelink_setup</title>
    <desc>Created with Sketch.</desc>
    <g id="Icons" stroke="none" stroke-width="1" fill="none" fill-rule="evenodd">
        <g id="Two-Tone" transform="translate(-273.000000, -1261.000000)">
            <g id="Communication" transform="translate(100.000000, 1162.000000)">
                <g id="Two-Tone-/-Communication-/-phonelink_setup" transform="translate(170.000000, 98.000000)">
                    <g>
                        <polygon id="Path" points="0 0 24 0 24 24 0 24"></polygon>
                        <path d="M7,3 L7,6 L9,6 L9,4 L19,4 L19,20 L9,20 L9,18 L7,18 L7,21 C7,22.1 7.9,23 9,23 L19,23 C20.1,23 21,22.1 21,21 L21,3 C21,1.9 20.1,1 19,1 L9,1 C7.9,1 7,1.9 7,3 Z M9.5,15.5 C9.79,15.38 10.05,15.21 10.3,15.02 L10.28,15.05 L11.29,15.44 C11.52,15.53 11.78,15.44 11.9,15.22 L12.74,13.76 C12.86,13.55 12.81,13.27 12.62,13.12 L11.77,12.44 L11.75,12.47 C11.77,12.31 11.8,12.15 11.8,11.99 C11.8,11.83 11.77,11.67 11.75,11.51 L11.77,11.54 L12.62,10.86 C12.81,10.71 12.86,10.43 12.74,10.22 L11.9,8.76 C11.78,8.55 11.52,8.45 11.29,8.54 L10.28,8.93 L10.3,8.96 C10.05,8.79 9.79,8.62 9.5,8.5 L9.33,7.42 C9.3,7.18 9.09,7 8.84,7 L7.16,7 C6.91,7 6.7,7.18 6.67,7.42 L6.5,8.5 C6.21,8.62 5.95,8.79 5.7,8.98 L5.72,8.95 L4.7,8.56 C4.47,8.47 4.21,8.56 4.09,8.78 L3.25,10.24 C3.13,10.45 3.18,10.73 3.37,10.88 L4.22,11.56 L4.24,11.53 C4.22,11.68 4.19,11.84 4.19,12 C4.19,12.16 4.22,12.32 4.24,12.48 L4.22,12.45 L3.37,13.13 C3.18,13.28 3.13,13.56 3.25,13.77 L4.09,15.23 C4.21,15.44 4.47,15.54 4.7,15.45 L5.71,15.06 L5.7,15.02 C5.95,15.21 6.21,15.38 6.5,15.5 L6.67,16.57 C6.7,16.82 6.91,17 7.16,17 L8.84,17 C9.09,17 9.3,16.82 9.33,16.58 L9.5,15.5 Z M6,12 C6,10.9 6.9,10 8,10 C9.1,10 10,10.9 10,12 C10,13.1 9.1,14 8,14 C6.9,14 6,13.1 6,12 Z" id="🔹-Primary-Color" fill="#1D1D1D"></path>
                    </g>
                </g>
            </g>
        </g>
    </g>
</svg>