<?xml version="1.0" encoding="UTF-8"?>
<svg width="18px" height="18px" viewBox="0 0 18 18" version="1.1" xmlns="http://www.w3.org/2000/svg" xmlns:xlink="http://www.w3.org/1999/xlink">
    <!-- Generator: Sketch 52.5 (67469) - http://www.bohemiancoding.com/sketch -->
    <title>phone_in_talk</title>
    <desc>Created with Sketch.</desc>
    <g id="Icons" stroke="none" stroke-width="1" fill="none" fill-rule="evenodd">
        <g id="Outlined" transform="translate(-817.000000, -3701.000000)">
            <g id="Notification" transform="translate(100.000000, 3600.000000)">
                <g id="Outlined-/-Notification-/-phone_in_talk" transform="translate(714.000000, 98.000000)">
                    <g>
                        <polygon id="Path" points="0 0 24 0 24 24 0 24"></polygon>
                        <path d="M15,12 L17,12 C17,9.24 14.76,7 12,7 L12,9 C13.66,9 15,10.34 15,12 Z M19,12 L21,12 C21,7.03 16.97,3 12,3 L12,5 C15.87,5 19,8.13 19,12 Z M20,15.5 C18.75,15.5 17.55,15.3 16.43,14.93 C16.33,14.9 16.22,14.88 16.12,14.88 C15.86,14.88 15.61,14.98 15.41,15.17 L13.21,17.37 C10.38,15.93 8.06,13.62 6.62,10.78 L8.82,8.57 C9.1,8.31 9.18,7.92 9.07,7.57 C8.7,6.45 8.5,5.25 8.5,4 C8.5,3.45 8.05,3 7.5,3 L4,3 C3.45,3 3,3.45 3,4 C3,13.39 10.61,21 20,21 C20.55,21 21,20.55 21,20 L21,16.5 C21,15.95 20.55,15.5 20,15.5 Z M5.03,5 L6.53,5 C6.6,5.88 6.75,6.75 6.98,7.58 L5.78,8.79 C5.38,7.58 5.12,6.32 5.03,5 Z M19,18.97 C17.68,18.88 16.4,18.62 15.2,18.21 L16.4,17.01 C17.25,17.25 18.12,17.4 19,17.46 L19,18.97 Z" id="🔹-Icon-Color" fill="#1D1D1D"></path>
                    </g>
                </g>
            </g>
        </g>
    </g>
</svg>