<?xml version="1.0" encoding="UTF-8"?>
<svg width="22px" height="18px" viewBox="0 0 22 18" version="1.1" xmlns="http://www.w3.org/2000/svg" xmlns:xlink="http://www.w3.org/1999/xlink">
    <!-- Generator: Sketch 52.5 (67469) - http://www.bohemiancoding.com/sketch -->
    <title>photo_size_select_actual</title>
    <desc>Created with Sketch.</desc>
    <g id="Icons" stroke="none" stroke-width="1" fill="none" fill-rule="evenodd">
        <g id="Rounded" transform="translate(-713.000000, -2903.000000)">
            <g id="Image" transform="translate(100.000000, 2626.000000)">
                <g id="-Round-/-Image-/-photo_size_select_actual" transform="translate(612.000000, 274.000000)">
                    <g transform="translate(0.000000, 0.000000)">
                        <polygon id="Path" points="0 0 24 0 24 24 0 24"></polygon>
                        <path d="M21,3 L3,3 C2,3 1,4 1,5 L1,19 C1,20.1 1.9,21 3,21 L21,21 C22,21 23,20 23,19 L23,5 C23,4 22,3 21,3 Z M5.63,16.19 L8.12,12.99 C8.32,12.74 8.7,12.73 8.9,12.98 L11,15.51 L14.1,11.52 C14.3,11.26 14.7,11.26 14.9,11.53 L18.41,16.21 C18.66,16.54 18.42,17.01 18.01,17.01 L6.02,17.01 C5.61,17 5.37,16.52 5.63,16.19 Z" id="🔹-Icon-Color" fill="#1D1D1D"></path>
                    </g>
                </g>
            </g>
        </g>
    </g>
</svg>