<?xml version="1.0" encoding="UTF-8"?>
<svg width="22px" height="18px" viewBox="0 0 22 18" version="1.1" xmlns="http://www.w3.org/2000/svg" xmlns:xlink="http://www.w3.org/1999/xlink">
    <!-- Generator: Sketch 52.5 (67469) - http://www.bohemiancoding.com/sketch -->
    <title>photo_size_select_large</title>
    <desc>Created with Sketch.</desc>
    <g id="Icons" stroke="none" stroke-width="1" fill="none" fill-rule="evenodd">
        <g id="Two-Tone" transform="translate(-373.000000, -2903.000000)">
            <g id="Image" transform="translate(100.000000, 2626.000000)">
                <g id="Two-Tone-/-Image-/-photo_size_select_large" transform="translate(272.000000, 274.000000)">
                    <g>
                        <polygon id="Path" points="0 0 24 0 24 24 0 24"></polygon>
                        <path d="M17,19 L19,19 L19,21 L17,21 L17,19 Z M1,19 C1,20.1 1.9,21 3,21 L15,21 L15,11 L1,11 L1,19 Z M5.5,15.79 L7.29,17.94 L9.79,14.72 L13,19 L3,19 L5.5,15.79 Z M17,3 L19,3 L19,5 L17,5 L17,3 Z M21,11 L23,11 L23,13 L21,13 L21,11 Z M21,15 L23,15 L23,17 L21,17 L21,15 Z M3,3 C2,3 1,4 1,5 L3,5 L3,3 Z M21,7 L23,7 L23,9 L21,9 L21,7 Z M13,3 L15,3 L15,5 L13,5 L13,3 Z M21,21 C22,21 23,20 23,19 L21,19 L21,21 Z M1,7 L3,7 L3,9 L1,9 L1,7 Z M9,3 L11,3 L11,5 L9,5 L9,3 Z M5,3 L7,3 L7,5 L5,5 L5,3 Z M21,3 L21,5 L23,5 C23,4 22,3 21,3 Z" id="🔹-Primary-Color" fill="#1D1D1D"></path>
                    </g>
                </g>
            </g>
        </g>
    </g>
</svg>