<?xml version="1.0" encoding="UTF-8"?>
<svg width="16px" height="20px" viewBox="0 0 16 20" version="1.1" xmlns="http://www.w3.org/2000/svg" xmlns:xlink="http://www.w3.org/1999/xlink">
    <!-- Generator: Sketch 52.5 (67469) - http://www.bohemiancoding.com/sketch -->
    <title>photo_album</title>
    <desc>Created with Sketch.</desc>
    <g id="Icons" stroke="none" stroke-width="1" fill="none" fill-rule="evenodd">
        <g id="Rounded" transform="translate(-172.000000, -2946.000000)">
            <g id="Image" transform="translate(100.000000, 2626.000000)">
                <g id="-Round-/-Image-/-photo_album" transform="translate(68.000000, 318.000000)">
                    <g>
                        <polygon id="Path" points="0 0 24 0 24 24 0 24"></polygon>
                        <path d="M18,2 L6,2 C4.9,2 4,2.9 4,4 L4,20 C4,21.1 4.9,22 6,22 L18,22 C19.1,22 20,21.1 20,20 L20,4 C20,2.9 19.1,2 18,2 Z M6,4 L11,4 L11,12 L8.5,10.5 L6,12 L6,4 Z M6.63,18.19 L8.62,15.63 C8.82,15.38 9.2,15.37 9.4,15.62 L11.14,17.72 L13.74,14.38 C13.94,14.12 14.34,14.12 14.53,14.39 L17.4,18.21 C17.65,18.54 17.41,19.01 17,19.01 L7.02,19.01 C6.61,19 6.37,18.52 6.63,18.19 Z" id="🔹-Icon-Color" fill="#1D1D1D"></path>
                    </g>
                </g>
            </g>
        </g>
    </g>
</svg>