<?xml version="1.0" encoding="UTF-8"?>
<svg width="14px" height="20px" viewBox="0 0 14 20" version="1.1" xmlns="http://www.w3.org/2000/svg" xmlns:xlink="http://www.w3.org/1999/xlink">
    <!-- Generator: Sketch 52.5 (67469) - http://www.bohemiancoding.com/sketch -->
    <title>pin_drop</title>
    <desc>Created with Sketch.</desc>
    <g id="Icons" stroke="none" stroke-width="1" fill="none" fill-rule="evenodd">
        <g id="Two-Tone" transform="translate(-581.000000, -3212.000000)">
            <g id="Maps" transform="translate(100.000000, 3068.000000)">
                <g id="Two-Tone-/-Maps-/-pin_drop" transform="translate(476.000000, 142.000000)">
                    <g>
                        <polygon id="Path" points="0 0 24 0 24 24 0 24"></polygon>
                        <path d="M12,4 C9.79,4 8,5.79 8,8 C8,10.13 10.08,13.47 12,15.91 C13.92,13.47 16,10.13 16,8 C16,5.79 14.21,4 12,4 Z M12,10 C10.9,10 10,9.1 10,8 C10,6.9 10.9,6 12,6 C13.1,6 14,6.9 14,8 C14,9.1 13.11,10 12,10 Z" id="🔹-Secondary-Color" fill="#D0D0D0"></path>
                        <path d="M5,20 L19,20 L19,22 L5,22 L5,20 Z M12,2 C8.69,2 6,4.69 6,8 C6,12.5 12,19 12,19 C12,19 18,12.5 18,8 C18,4.69 15.31,2 12,2 Z M12,15.91 C10.08,13.47 8,10.13 8,8 C8,5.79 9.79,4 12,4 C14.21,4 16,5.79 16,8 C16,10.13 13.92,13.46 12,15.91 Z M12,6 C10.9,6 10,6.9 10,8 C10,9.1 10.9,10 12,10 C13.11,10 14,9.1 14,8 C14,6.9 13.1,6 12,6 Z" id="🔹-Primary-Color" fill="#1D1D1D"></path>
                    </g>
                </g>
            </g>
        </g>
    </g>
</svg>