<?xml version="1.0" encoding="UTF-8"?>
<svg width="18px" height="18px" viewBox="0 0 18 18" version="1.1" xmlns="http://www.w3.org/2000/svg" xmlns:xlink="http://www.w3.org/1999/xlink">
    <!-- Generator: Sketch 52.5 (67469) - http://www.bohemiancoding.com/sketch -->
    <title>portrait</title>
    <desc>Created with Sketch.</desc>
    <g id="Icons" stroke="none" stroke-width="1" fill="none" fill-rule="evenodd">
        <g id="Two-Tone" transform="translate(-919.000000, -2815.000000)">
            <g id="Image" transform="translate(100.000000, 2626.000000)">
                <g id="Two-Tone-/-Image-/-portrait" transform="translate(816.000000, 186.000000)">
                    <g>
                        <polygon id="Path" points="0 0 24 0 24 24 0 24"></polygon>
                        <path d="M5,19 L19,19 L19,5 L5,5 L5,19 Z M12,6 C13.65,6 15,7.35 15,9 C15,10.65 13.65,12 12,12 C10.35,12 9,10.65 9,9 C9,7.35 10.35,6 12,6 Z M6,16.58 C6,14.08 9.97,13 12,13 C14.03,13 18,14.08 18,16.58 L18,18 L6,18 L6,16.58 Z" id="🔹-Secondary-Color" fill="#D0D0D0"></path>
                        <path d="M12,12 C13.65,12 15,10.65 15,9 C15,7.35 13.65,6 12,6 C10.35,6 9,7.35 9,9 C9,10.65 10.35,12 12,12 Z M12,8 C12.55,8 13,8.45 13,9 C13,9.55 12.55,10 12,10 C11.45,10 11,9.55 11,9 C11,8.45 11.45,8 12,8 Z M18,16.58 C18,14.08 14.03,13 12,13 C9.97,13 6,14.08 6,16.58 L6,18 L18,18 L18,16.58 Z M8.48,16 C9.22,15.49 10.71,15 12,15 C13.29,15 14.78,15.49 15.52,16 L8.48,16 Z M19,3 L5,3 C3.89,3 3,3.9 3,5 L3,19 C3,20.1 3.89,21 5,21 L19,21 C20.1,21 21,20.1 21,19 L21,5 C21,3.9 20.1,3 19,3 Z M19,19 L5,19 L5,5 L19,5 L19,19 Z" id="🔹-Primary-Color" fill="#1D1D1D"></path>
                    </g>
                </g>
            </g>
        </g>
    </g>
</svg>