<?xml version="1.0" encoding="UTF-8"?>
<svg width="20px" height="20px" viewBox="0 0 20 20" version="1.1" xmlns="http://www.w3.org/2000/svg" xmlns:xlink="http://www.w3.org/1999/xlink">
    <!-- Generator: Sketch 52.5 (67469) - http://www.bohemiancoding.com/sketch -->
    <title>portable_wifi_off</title>
    <desc>Created with Sketch.</desc>
    <g id="Icons" stroke="none" stroke-width="1" fill="none" fill-rule="evenodd">
        <g id="Rounded" transform="translate(-510.000000, -1306.000000)">
            <g id="Communication" transform="translate(100.000000, 1162.000000)">
                <g id="-Round-/-Communication-/-portable_wifi_off" transform="translate(408.000000, 142.000000)">
                    <g>
                        <polygon id="Path" points="0 0 24 0 24 24 0 24"></polygon>
                        <path d="M2.71,3.07 C2.32,3.46 2.32,4.09 2.71,4.48 L4.1,5.87 C2.79,7.57 2,9.69 2,12 C2,15.3 3.6,18.22 6.06,20.04 C6.54,20.39 7.22,20.25 7.52,19.73 C7.77,19.3 7.66,18.74 7.26,18.44 C5.29,16.98 4,14.65 4,12 C4,10.24 4.57,8.62 5.53,7.31 L6.96,8.75 C6.36,9.68 6,10.8 6,12 C6,13.8 6.8,15.41 8.06,16.51 C8.52,16.91 9.25,16.76 9.56,16.23 L9.57,16.22 C9.81,15.8 9.7,15.28 9.34,14.96 C8.52,14.23 8,13.18 8,12 C8,11.35 8.17,10.75 8.44,10.21 L10.02,11.79 L10,12 C10,13.1 10.9,14 12,14 L12.21,13.98 L19.02,20.79 C19.41,21.18 20.04,21.18 20.43,20.79 C20.82,20.4 20.82,19.77 20.43,19.38 L4.13,3.07 C3.74,2.68 3.1,2.68 2.71,3.07 Z M17.71,13.82 C17.89,13.25 18,12.63 18,12 C18,8.69 15.31,6 12,6 C11.37,6 10.75,6.11 10.18,6.29 L11.9,8.01 C11.93,8.01 11.96,8 12,8 C14.21,8 16,9.79 16,12 C16,12.04 15.99,12.07 15.99,12.11 L17.71,13.82 Z M12,4 C16.42,4 20,7.58 20,12 C20,13.2 19.71,14.32 19.23,15.35 L20.72,16.84 C21.53,15.4 22,13.76 22,12 C22,6.48 17.52,2 12,2 C10.24,2 8.6,2.48 7.16,3.28 L8.64,4.76 C9.66,4.28 10.8,4 12,4 Z" id="🔹Icon-Color" fill="#1D1D1D"></path>
                    </g>
                </g>
            </g>
        </g>
    </g>
</svg>