<?xml version="1.0" encoding="UTF-8"?>
<svg width="12px" height="18px" viewBox="0 0 12 18" version="1.1" xmlns="http://www.w3.org/2000/svg" xmlns:xlink="http://www.w3.org/1999/xlink">
    <!-- Generator: Sketch 52.5 (67469) - http://www.bohemiancoding.com/sketch -->
    <title>power</title>
    <desc>Created with Sketch.</desc>
    <g id="Icons" stroke="none" stroke-width="1" fill="none" fill-rule="evenodd">
        <g id="Outlined" transform="translate(-684.000000, -3701.000000)">
            <g id="Notification" transform="translate(100.000000, 3600.000000)">
                <g id="Outlined-/-Notification-/-power" transform="translate(578.000000, 98.000000)">
                    <g>
                        <polygon id="Path" points="0 0 24 0 24 24 0 24"></polygon>
                        <path d="M16,9 L16,13.66 L12.5,17.17 L12.5,19 L11.5,19 L11.5,17.17 L8,13.65 L8,9 L16,9 Z M16,3 L14,3 L14,7 L10,7 L10,3 L8,3 L8,7 L7.99,7 C6.9,6.99 6,7.89 6,8.98 L6,14.5 L9.5,18 L9.5,21 L14.5,21 L14.5,18 L18,14.49 L18,9 C18,7.9 17.1,7 16,7 L16,3 Z" id="🔹-Icon-Color" fill="#1D1D1D"></path>
                    </g>
                </g>
            </g>
        </g>
    </g>
</svg>