<?xml version="1.0" encoding="UTF-8"?>
<svg width="19px" height="6px" viewBox="0 0 19 6" version="1.1" xmlns="http://www.w3.org/2000/svg" xmlns:xlink="http://www.w3.org/1999/xlink">
    <!-- Generator: Sketch 52.5 (67469) - http://www.bohemiancoding.com/sketch -->
    <title>power_input</title>
    <desc>Created with Sketch.</desc>
    <g id="Icons" stroke="none" stroke-width="1" fill="none" fill-rule="evenodd">
        <g id="Rounded" transform="translate(-477.000000, -2511.000000)">
            <g id="Hardware" transform="translate(100.000000, 2404.000000)">
                <g id="-Round-/-Hardware-/-power_input" transform="translate(374.000000, 98.000000)">
                    <g>
                        <rect id="Rectangle-Copy-123" x="0" y="0" width="24" height="24"></rect>
                        <path d="M3,10 C3,10.55 3.45,11 4,11 L21,11 C21.55,11 22,10.55 22,10 C22,9.45 21.55,9 21,9 L4,9 C3.45,9 3,9.45 3,10 Z M4,15 L7,15 C7.55,15 8,14.55 8,14 C8,13.45 7.55,13 7,13 L4,13 C3.45,13 3,13.45 3,14 C3,14.55 3.45,15 4,15 Z M11,15 L14,15 C14.55,15 15,14.55 15,14 C15,13.45 14.55,13 14,13 L11,13 C10.45,13 10,13.45 10,14 C10,14.55 10.45,15 11,15 Z M18,15 L21,15 C21.55,15 22,14.55 22,14 C22,13.45 21.55,13 21,13 L18,13 C17.45,13 17,13.45 17,14 C17,14.55 17.45,15 18,15 Z" id="🔹-Icon-Color" fill="#1D1D1D"></path>
                    </g>
                </g>
            </g>
        </g>
    </g>
</svg>