<?xml version="1.0" encoding="UTF-8"?>
<svg width="8px" height="20px" viewBox="0 0 8 20" version="1.1" xmlns="http://www.w3.org/2000/svg" xmlns:xlink="http://www.w3.org/1999/xlink">
    <!-- Generator: Sketch 52.5 (67469) - http://www.bohemiancoding.com/sketch -->
    <title>pregnant_woman</title>
    <desc>Created with Sketch.</desc>
    <g id="Icons" stroke="none" stroke-width="1" fill="none" fill-rule="evenodd">
        <g id="Rounded" transform="translate(-278.000000, -376.000000)">
            <g id="Action" transform="translate(100.000000, 100.000000)">
                <g id="-Round-/-Action-/-pregnant_woman" transform="translate(170.000000, 274.000000)">
                    <g>
                        <polygon id="Path" points="0 0 24 0 24 24 0 24"></polygon>
                        <path d="M9,4 C9,2.89 9.89,2 11,2 C12.11,2 13,2.89 13,4 C13,5.11 12.11,6 11,6 C9.89,6 9,5.11 9,4 Z M16,13 C15.99,11.66 15.17,10.49 14,10 C14,8.29 12.58,6.92 10.84,7 C9.22,7.09 8,8.54 8,10.16 L8,16 C8,16.55 8.45,17 9,17 L10,17 L10,20.5 C10,21.33 10.67,22 11.5,22 C12.33,22 13,21.33 13,20.5 L13,17 L15,17 C15.55,17 16,16.55 16,16 L16,13 Z" id="🔹Icon-Color" fill="#1D1D1D"></path>
                    </g>
                </g>
            </g>
        </g>
    </g>
</svg>