<?xml version="1.0" encoding="UTF-8"?>
<svg width="20px" height="20px" viewBox="0 0 20 20" version="1.1" xmlns="http://www.w3.org/2000/svg" xmlns:xlink="http://www.w3.org/1999/xlink">
    <!-- Generator: Sketch 52.5 (67469) - http://www.bohemiancoding.com/sketch -->
    <title>public</title>
    <desc>Created with Sketch.</desc>
    <g id="Icons" stroke="none" stroke-width="1" fill="none" fill-rule="evenodd">
        <g id="Rounded" transform="translate(-170.000000, -4144.000000)">
            <g id="Social" transform="translate(100.000000, 4044.000000)">
                <g id="-Round-/-Social-/-public" transform="translate(68.000000, 98.000000)">
                    <g>
                        <polygon id="Path" points="0 0 24 0 24 24 0 24"></polygon>
                        <path d="M12,2 C6.48,2 2,6.48 2,12 C2,17.52 6.48,22 12,22 C17.52,22 22,17.52 22,12 C22,6.48 17.52,2 12,2 Z M11,19.93 C7.05,19.44 4,16.08 4,12 C4,11.38 4.08,10.79 4.21,10.21 L9,15 L9,16 C9,17.1 9.9,18 11,18 L11,19.93 Z M17.9,17.39 C17.64,16.58 16.9,16 16,16 L15,16 L15,13 C15,12.45 14.55,12 14,12 L8,12 L8,10 L10,10 C10.55,10 11,9.55 11,9 L11,7 L13,7 C14.1,7 15,6.1 15,5 L15,4.59 C17.93,5.78 20,8.65 20,12 C20,14.08 19.2,15.97 17.9,17.39 Z" id="🔹-Icon-Color" fill="#1D1D1D"></path>
                    </g>
                </g>
            </g>
        </g>
    </g>
</svg>