<?xml version="1.0" encoding="UTF-8"?>
<svg width="23px" height="20px" viewBox="0 0 23 20" version="1.1" xmlns="http://www.w3.org/2000/svg" xmlns:xlink="http://www.w3.org/1999/xlink">
    <!-- Generator: Sketch 52.5 (67469) - http://www.bohemiancoding.com/sketch -->
    <title>queue_play_next</title>
    <desc>Created with Sketch.</desc>
    <g id="Icons" stroke="none" stroke-width="1" fill="none" fill-rule="evenodd">
        <g id="Rounded" transform="translate(-202.000000, -996.000000)">
            <g id="AV" transform="translate(100.000000, 852.000000)">
                <g id="-Round-/-AV-/-queue_play_next" transform="translate(102.000000, 142.000000)">
                    <g>
                        <rect id="Rectangle-Copy-44" x="0" y="0" width="24" height="24"></rect>
                        <path d="M20,2 L2,2 C0.9,2 0,2.9 0,4 L0,16 C0,17.1 0.9,18 2,18 L7,18 L7,19 C7,19.55 7.45,20 8,20 L14,20 C14.55,20 15,19.55 15,19 L15,18 L16,18 C16.55,18 17,17.55 17,17 C17,16.45 16.55,16 16,16 L3,16 C2.45,16 2,15.55 2,15 L2,5 C2,4.45 2.45,4 3,4 L19,4 C19.55,4 20,4.45 20,5 L20,11 C20,11.55 20.45,12 21,12 C21.55,12 22,11.55 22,11 L22,4 C22,2.9 21.1,2 20,2 Z M12,9 L12,7 C12,6.45 11.55,6 11,6 C10.45,6 10,6.45 10,7 L10,9 L8,9 C7.45,9 7,9.45 7,10 C7,10.55 7.45,11 8,11 L10,11 L10,13 C10,13.55 10.45,14 11,14 C11.55,14 12,13.55 12,13 L12,11 L14,11 C14.55,11 15,10.55 15,10 C15,9.45 14.55,9 14,9 L12,9 Z M22.29,17.71 L19.25,20.75 C18.84,21.16 18.16,21.16 17.75,20.75 C17.34,20.34 17.34,19.66 17.75,19.25 L20,17 L17.75,14.75 C17.34,14.34 17.34,13.66 17.75,13.25 C18.16,12.84 18.84,12.84 19.25,13.25 L22.29,16.29 C22.68,16.68 22.68,17.32 22.29,17.71 Z" id="🔹Icon-Color" fill="#1D1D1D"></path>
                    </g>
                </g>
            </g>
        </g>
    </g>
</svg>