<?xml version="1.0" encoding="UTF-8"?>
<svg width="23px" height="20px" viewBox="0 0 23 20" version="1.1" xmlns="http://www.w3.org/2000/svg" xmlns:xlink="http://www.w3.org/1999/xlink">
    <!-- Generator: Sketch 52.5 (67469) - http://www.bohemiancoding.com/sketch -->
    <title>queue_play_next</title>
    <desc>Created with Sketch.</desc>
    <g id="Icons" stroke="none" stroke-width="1" fill="none" fill-rule="evenodd">
        <g id="Two-Tone" transform="translate(-679.000000, -997.000000)">
            <g id="AV" transform="translate(100.000000, 852.000000)">
                <g id="Two-Tone-/-AV-/-queue_play_next" transform="translate(578.000000, 142.000000)">
                    <g>
                        <polygon id="Path" points="0 0 24 0 24 24 0 24"></polygon>
                        <path d="M13,15 L13,12 L16,12 L16,10 L13,10 L13,7 L11,7 L11,10 L8,10 L8,12 L11,12 L11,15 L13,15 Z M18,15 L21,18 L18,21 L19.5,22.5 L24,18 L19.5,13.5 L18,15 Z M8,19 L8,21 L16,21 L16,19 L18,19 L18,17 L3,17 L3,5 L21,5 L21,13 L23,13 L23,5 C23,3.89 22.1,3 21,3 L3,3 C1.89,3 1,3.89 1,5 L1,17 C1,18.1 1.89,19 3,19 L8,19 Z" id="🔹-Primary-Color" fill="#1D1D1D"></path>
                    </g>
                </g>
            </g>
        </g>
    </g>
</svg>