<?xml version="1.0" encoding="UTF-8"?>
<svg width="20px" height="21px" viewBox="0 0 20 21" version="1.1" xmlns="http://www.w3.org/2000/svg" xmlns:xlink="http://www.w3.org/1999/xlink">
    <!-- Generator: Sketch 52.5 (67469) - http://www.bohemiancoding.com/sketch -->
    <title>radio</title>
    <desc>Created with Sketch.</desc>
    <g id="Icons" stroke="none" stroke-width="1" fill="none" fill-rule="evenodd">
        <g id="Two-Tone" transform="translate(-646.000000, -995.000000)">
            <g id="AV" transform="translate(100.000000, 852.000000)">
                <g id="Two-Tone-/-AV-/-radio" transform="translate(544.000000, 142.000000)">
                    <g>
                        <polygon id="Path" points="0 0 24 0 24 24 0 24"></polygon>
                        <path d="M20,13 L4,13 L4,20 L20,20 L20,13 Z M8,18.98 C6.62,18.98 5.5,17.86 5.5,16.48 C5.5,15.1 6.62,13.98 8,13.98 C9.38,13.98 10.5,15.1 10.5,16.48 C10.5,17.86 9.38,18.98 8,18.98 Z" id="🔹-Secondary-Color" fill="#D0D0D0"></path>
                        <path d="M2,20 L2,8 C2,7.17 2.51,6.43 3.24,6.15 L15.88,1 L16.56,2.66 L8.3,6 L20,6 C21.11,6 22,6.89 22,8 L22,20 C22,21.1 21.11,22 20,22 L4,22 C2.89,22 2,21.1 2,20 Z M4,8 L4,11 L16,11 L16,9 L18,9 L18,11 L20,11 L20,8 L4,8 Z M4,13 L4,20 L20,20 L20,13 L4,13 Z M8,18.98 C6.61928813,18.98 5.5,17.8607119 5.5,16.48 C5.5,15.0992881 6.61928813,13.98 8,13.98 C9.38071187,13.98 10.5,15.0992881 10.5,16.48 C10.5,17.8607119 9.38071187,18.98 8,18.98 Z" id="🔹-Primary-Color" fill="#1D1D1D"></path>
                    </g>
                </g>
            </g>
        </g>
    </g>
</svg>