<?xml version="1.0" encoding="UTF-8"?>
<svg width="18px" height="20px" viewBox="0 0 18 20" version="1.1" xmlns="http://www.w3.org/2000/svg" xmlns:xlink="http://www.w3.org/1999/xlink">
    <!-- Generator: Sketch 52.5 (67469) - http://www.bohemiancoding.com/sketch -->
    <title>receipt</title>
    <desc>Created with Sketch.</desc>
    <g id="Icons" stroke="none" stroke-width="1" fill="none" fill-rule="evenodd">
        <g id="Rounded" transform="translate(-137.000000, -376.000000)">
            <g id="Action" transform="translate(100.000000, 100.000000)">
                <g id="-Round-/-Action-/-receipt" transform="translate(34.000000, 274.000000)">
                    <g>
                        <polygon id="Path" points="0 0 24 0 24 24 0 24"></polygon>
                        <path d="M21,2.21 C20.87,2.21 20.74,2.26 20.65,2.36 L19.86,3.15 C19.66,3.35 19.35,3.35 19.15,3.15 L18.36,2.36 C18.16,2.16 17.85,2.16 17.65,2.36 L16.86,3.15 C16.66,3.35 16.35,3.35 16.15,3.15 L15.36,2.36 C15.16,2.16 14.85,2.16 14.65,2.36 L13.86,3.15 C13.66,3.35 13.35,3.35 13.15,3.15 L12.36,2.36 C12.16,2.16 11.85,2.16 11.65,2.36 L10.86,3.15 C10.66,3.35 10.35,3.35 10.15,3.15 L9.35,2.35 C9.15,2.15 8.84,2.15 8.64,2.35 L7.85,3.15 C7.65,3.35 7.34,3.35 7.14,3.15 L6.35,2.35 C6.15,2.15 5.84,2.15 5.64,2.35 L4.85,3.15 C4.65,3.35 4.34,3.35 4.14,3.15 L3.35,2.35 C3.26,2.26 3.13,2.21 3,2.21 L3,21.8 C3.13,21.8 3.26,21.75 3.35,21.65 L4.14,20.86 C4.34,20.66 4.65,20.66 4.85,20.86 L5.64,21.65 C5.84,21.85 6.15,21.85 6.35,21.65 L7.14,20.86 C7.34,20.66 7.65,20.66 7.85,20.86 L8.64,21.65 C8.84,21.85 9.15,21.85 9.35,21.65 L10.14,20.86 C10.34,20.66 10.65,20.66 10.85,20.86 L11.64,21.65 C11.84,21.85 12.15,21.85 12.35,21.65 L13.14,20.86 C13.34,20.66 13.65,20.66 13.85,20.86 L14.64,21.65 C14.84,21.85 15.15,21.85 15.35,21.65 L16.14,20.86 C16.34,20.66 16.65,20.66 16.85,20.86 L17.64,21.65 C17.84,21.85 18.15,21.85 18.35,21.65 L19.14,20.86 C19.34,20.66 19.65,20.66 19.85,20.86 L20.64,21.65 C20.74,21.75 20.87,21.8 20.99,21.8 L20.99,2.21 L21,2.21 Z M17,17 L7,17 C6.45,17 6,16.55 6,16 C6,15.45 6.45,15 7,15 L17,15 C17.55,15 18,15.45 18,16 C18,16.55 17.55,17 17,17 Z M17,13 L7,13 C6.45,13 6,12.55 6,12 C6,11.45 6.45,11 7,11 L17,11 C17.55,11 18,11.45 18,12 C18,12.55 17.55,13 17,13 Z M17,9 L7,9 C6.45,9 6,8.55 6,8 C6,7.45 6.45,7 7,7 L17,7 C17.55,7 18,7.45 18,8 C18,8.55 17.55,9 17,9 Z" id="🔹Icon-Color" fill="#1D1D1D"></path>
                    </g>
                </g>
            </g>
        </g>
    </g>
</svg>