<?xml version="1.0" encoding="UTF-8"?>
<svg width="22px" height="14px" viewBox="0 0 22 14" version="1.1" xmlns="http://www.w3.org/2000/svg" xmlns:xlink="http://www.w3.org/1999/xlink">
    <!-- Generator: Sketch 52.5 (67469) - http://www.bohemiancoding.com/sketch -->
    <title>recent_actors</title>
    <desc>Created with Sketch.</desc>
    <g id="Icons" stroke="none" stroke-width="1" fill="none" fill-rule="evenodd">
        <g id="Rounded" transform="translate(-237.000000, -999.000000)">
            <g id="AV" transform="translate(100.000000, 852.000000)">
                <g id="-Round-/-AV-/-recent_actors" transform="translate(136.000000, 142.000000)">
                    <g>
                        <rect id="Rectangle-Copy-42" x="0" y="0" width="24" height="24"></rect>
                        <path d="M21,6 L21,18 C21,18.55 21.45,19 22,19 C22.55,19 23,18.55 23,18 L23,6 C23,5.45 22.55,5 22,5 C21.45,5 21,5.45 21,6 Z M18,19 C18.55,19 19,18.55 19,18 L19,6 C19,5.45 18.55,5 18,5 C17.45,5 17,5.45 17,6 L17,18 C17,18.55 17.45,19 18,19 Z M14,5 L2,5 C1.45,5 1,5.45 1,6 L1,18 C1,18.55 1.45,19 2,19 L14,19 C14.55,19 15,18.55 15,18 L15,6 C15,5.45 14.55,5 14,5 Z M8,7.75 C9.24,7.75 10.25,8.76 10.25,10 C10.25,11.24 9.24,12.25 8,12.25 C6.76,12.25 5.75,11.24 5.75,10 C5.75,8.76 6.76,7.75 8,7.75 Z M12.5,17 L3.5,17 L3.5,16.25 C3.5,14.75 6.5,14 8,14 C9.5,14 12.5,14.75 12.5,16.25 L12.5,17 Z" id="🔹Icon-Color" fill="#1D1D1D"></path>
                    </g>
                </g>
            </g>
        </g>
    </g>
</svg>