<?xml version="1.0" encoding="UTF-8"?>
<svg width="16px" height="16px" viewBox="0 0 16 16" version="1.1" xmlns="http://www.w3.org/2000/svg" xmlns:xlink="http://www.w3.org/1999/xlink">
    <!-- Generator: Sketch 52.5 (67469) - http://www.bohemiancoding.com/sketch -->
    <title>refresh</title>
    <desc>Created with Sketch.</desc>
    <g id="Icons" stroke="none" stroke-width="1" fill="none" fill-rule="evenodd">
        <g id="Outlined" transform="translate(-818.000000, -3436.000000)">
            <g id="Navigation" transform="translate(100.000000, 3378.000000)">
                <g id="Outlined-/-Navigation-/-refresh" transform="translate(714.000000, 54.000000)">
                    <g>
                        <polygon id="Path" points="0 0 24 0 24 24 0 24"></polygon>
                        <path d="M17.65,6.35 C16.2,4.9 14.21,4 12,4 C7.58,4 4.01,7.58 4.01,12 C4.01,16.42 7.58,20 12,20 C15.73,20 18.84,17.45 19.73,14 L17.65,14 C16.83,16.33 14.61,18 12,18 C8.69,18 6,15.31 6,12 C6,8.69 8.69,6 12,6 C13.66,6 15.14,6.69 16.22,7.78 L13,11 L20,11 L20,4 L17.65,6.35 Z" id="🔹-Icon-Color" fill="#1D1D1D"></path>
                    </g>
                </g>
            </g>
        </g>
    </g>
</svg>