<?xml version="1.0" encoding="UTF-8"?>
<svg width="24px" height="14px" viewBox="0 0 24 14" version="1.1" xmlns="http://www.w3.org/2000/svg" xmlns:xlink="http://www.w3.org/1999/xlink">
    <!-- Generator: Sketch 52.5 (67469) - http://www.bohemiancoding.com/sketch -->
    <title>reply_all</title>
    <desc>Created with Sketch.</desc>
    <g id="Icons" stroke="none" stroke-width="1" fill="none" fill-rule="evenodd">
        <g id="Rounded" transform="translate(-542.000000, -1532.000000)">
            <g id="Content" transform="translate(100.000000, 1428.000000)">
                <g id="-Round-/-Content-/-reply_all" transform="translate(442.000000, 98.000000)">
                    <g>
                        <polygon id="Path" points="0 0 24 0 24 24 0 24"></polygon>
                        <path d="M7,7.56 C7,6.62 5.86,6.14 5.19,6.81 L0.71,11.29 C0.32,11.68 0.32,12.31 0.71,12.7 L5.19,17.18 C5.86,17.86 7,17.38 7,16.44 C7,16.16 6.89,15.89 6.69,15.69 L3,12 L6.69,8.31 C6.89,8.11 7,7.84 7,7.56 Z M13,9 L13,7.41 C13,6.52 11.92,6.07 11.29,6.7 L6.7,11.29 C6.31,11.68 6.31,12.31 6.7,12.7 L11.29,17.29 C11.92,17.92 13,17.47 13,16.58 L13,14.9 C18,14.9 21.5,16.5 24,20 C23,15 20,10 13,9 Z" id="🔹Icon-Color" fill="#1D1D1D"></path>
                    </g>
                </g>
            </g>
        </g>
    </g>
</svg>