<?xml version="1.0" encoding="UTF-8"?>
<svg width="16px" height="20px" viewBox="0 0 16 20" version="1.1" xmlns="http://www.w3.org/2000/svg" xmlns:xlink="http://www.w3.org/1999/xlink">
    <!-- Generator: Sketch 52.5 (67469) - http://www.bohemiancoding.com/sketch -->
    <title>replay</title>
    <desc>Created with Sketch.</desc>
    <g id="Icons" stroke="none" stroke-width="1" fill="none" fill-rule="evenodd">
        <g id="Outlined" transform="translate(-308.000000, -1039.000000)">
            <g id="Av" transform="translate(100.000000, 852.000000)">
                <g id="Outlined-/-AV-/-replay" transform="translate(204.000000, 186.000000)">
                    <g>
                        <polygon id="Path" fill-rule="nonzero" points="0 0 24 0 24 24 0 24"></polygon>
                        <path d="M12,5 L12,1 L7,6 L12,11 L12,7 C15.31,7 18,9.69 18,13 C18,16.31 15.31,19 12,19 C8.69,19 6,16.31 6,13 L4,13 C4,17.42 7.58,21 12,21 C16.42,21 20,17.42 20,13 C20,8.58 16.42,5 12,5 Z" id="🔹-Icon-Color" fill="#1D1D1D"></path>
                    </g>
                </g>
            </g>
        </g>
    </g>
</svg>