<?xml version="1.0" encoding="UTF-8"?>
<svg width="16px" height="20px" viewBox="0 0 16 20" version="1.1" xmlns="http://www.w3.org/2000/svg" xmlns:xlink="http://www.w3.org/1999/xlink">
    <!-- Generator: Sketch 52.5 (67469) - http://www.bohemiancoding.com/sketch -->
    <title>replay_10</title>
    <desc>Created with Sketch.</desc>
    <g id="Icons" stroke="none" stroke-width="1" fill="none" fill-rule="evenodd">
        <g id="Rounded" transform="translate(-410.000000, -995.000000)">
            <g id="AV" transform="translate(100.000000, 852.000000)">
                <g id="-Round-/-AV-/-replay_10" transform="translate(306.000000, 142.000000)">
                    <g transform="translate(0.000000, 0.000000)">
                        <rect id="Rectangle-Copy-56" x="0" y="0" width="24" height="24"></rect>
                        <path d="M11.99,5 L11.99,2.21 C11.99,1.76 11.45,1.54 11.14,1.86 L7.35,5.65 C7.15,5.85 7.15,6.16 7.35,6.36 L11.14,10.15 C11.45,10.46 11.99,10.24 11.99,9.8 L11.99,7 C15.72,7 18.67,10.42 17.85,14.29 C17.38,16.56 15.54,18.39 13.28,18.86 C9.71,19.61 6.53,17.16 6.05,13.85 C5.99,13.37 5.57,13 5.07,13 C4.47,13 3.99,13.53 4.07,14.13 C4.69,18.52 8.87,21.77 13.6,20.85 C16.72,20.24 19.23,17.73 19.84,14.61 C20.83,9.48 16.94,5 11.99,5 Z M10.89,16 L10.04,16 L10.04,12.74 L9.03,13.05 L9.03,12.36 L10.8,11.73 L10.89,11.73 L10.89,16 Z M15.17,14.24 C15.17,14.56 15.14,14.84 15.07,15.06 C15,15.28 14.9,15.48 14.78,15.63 C14.66,15.78 14.5,15.89 14.33,15.96 C14.16,16.03 13.96,16.06 13.74,16.06 C13.52,16.06 13.33,16.03 13.15,15.96 C12.97,15.89 12.82,15.78 12.69,15.63 C12.56,15.48 12.46,15.29 12.39,15.06 C12.32,14.83 12.28,14.56 12.28,14.24 L12.28,13.5 C12.28,13.18 12.31,12.9 12.38,12.68 C12.45,12.46 12.55,12.26 12.67,12.11 C12.79,11.96 12.95,11.85 13.12,11.78 C13.29,11.71 13.49,11.68 13.71,11.68 C13.93,11.68 14.12,11.71 14.3,11.78 C14.48,11.85 14.63,11.96 14.76,12.11 C14.89,12.26 14.99,12.45 15.06,12.68 C15.13,12.91 15.17,13.18 15.17,13.5 L15.17,14.24 Z M14.32,13.38 C14.32,13.19 14.31,13.03 14.28,12.9 C14.25,12.77 14.21,12.67 14.16,12.59 C14.11,12.51 14.05,12.45 13.97,12.42 C13.89,12.39 13.81,12.37 13.72,12.37 C13.63,12.37 13.54,12.39 13.47,12.42 C13.4,12.45 13.33,12.51 13.28,12.59 C13.23,12.67 13.19,12.77 13.16,12.9 C13.13,13.03 13.12,13.19 13.12,13.38 L13.12,14.35 C13.12,14.54 13.13,14.7 13.16,14.83 C13.19,14.96 13.23,15.07 13.28,15.15 C13.33,15.23 13.39,15.29 13.47,15.32 C13.55,15.35 13.63,15.37 13.72,15.37 C13.81,15.37 13.9,15.35 13.97,15.32 C14.04,15.29 14.11,15.23 14.16,15.15 C14.21,15.07 14.25,14.96 14.27,14.83 C14.29,14.7 14.31,14.54 14.31,14.35 L14.31,13.38 L14.32,13.38 Z" id="🔹Icon-Color" fill="#1D1D1D"></path>
                    </g>
                </g>
            </g>
        </g>
    </g>
</svg>