<?xml version="1.0" encoding="UTF-8"?>
<svg width="16px" height="20px" viewBox="0 0 16 20" version="1.1" xmlns="http://www.w3.org/2000/svg" xmlns:xlink="http://www.w3.org/1999/xlink">
    <!-- Generator: Sketch 52.5 (67469) - http://www.bohemiancoding.com/sketch -->
    <title>replay_30</title>
    <desc>Created with Sketch.</desc>
    <g id="Icons" stroke="none" stroke-width="1" fill="none" fill-rule="evenodd">
        <g id="Rounded" transform="translate(-443.000000, -995.000000)">
            <g id="AV" transform="translate(100.000000, 852.000000)">
                <g id="-Round-/-AV-/-replay_30" transform="translate(340.000000, 142.000000)">
                    <g transform="translate(0.000000, 0.000000)">
                        <rect id="Rectangle-Copy-55" x="0" y="0" width="24" height="24"></rect>
                        <path d="M11,5 L11,2.21 C11,1.76 10.46,1.54 10.15,1.86 L6.35,5.65 C6.15,5.85 6.15,6.16 6.35,6.36 L10.14,10.15 C10.46,10.46 11,10.24 11,9.79 L11,7 C14.73,7 17.68,10.42 16.86,14.29 C16.39,16.56 14.55,18.39 12.29,18.86 C8.72,19.61 5.54,17.16 5.06,13.85 C4.99,13.37 4.57,13 4.08,13 C3.48,13 3,13.53 3.08,14.13 C3.7,18.52 7.88,21.77 12.61,20.85 C15.73,20.24 18.24,17.73 18.85,14.61 C19.84,9.48 15.94,5 11,5 Z M8.56,13.49 L9.01,13.49 C9.22,13.49 9.38,13.44 9.49,13.33 C9.6,13.22 9.65,13.08 9.65,12.9 C9.65,12.82 9.64,12.75 9.61,12.68 C9.58,12.61 9.55,12.56 9.5,12.51 C9.45,12.46 9.39,12.42 9.32,12.4 C9.25,12.38 9.16,12.36 9.07,12.36 C8.99,12.36 8.92,12.37 8.85,12.39 C8.78,12.41 8.72,12.44 8.67,12.49 C8.62,12.54 8.58,12.58 8.55,12.64 C8.52,12.7 8.5,12.77 8.5,12.84 L7.65,12.84 C7.65,12.66 7.69,12.5 7.76,12.36 C7.83,12.22 7.93,12.09 8.06,11.99 C8.19,11.89 8.33,11.81 8.5,11.76 C8.67,11.71 8.85,11.68 9.04,11.68 C9.25,11.68 9.45,11.71 9.63,11.76 C9.81,11.81 9.96,11.89 10.09,11.99 C10.22,12.09 10.32,12.22 10.39,12.37 C10.46,12.52 10.5,12.7 10.5,12.9 C10.5,12.99 10.49,13.08 10.46,13.17 C10.43,13.26 10.39,13.34 10.33,13.42 C10.27,13.5 10.21,13.57 10.13,13.64 C10.05,13.71 9.96,13.76 9.85,13.81 C10.09,13.9 10.27,14.02 10.39,14.2 C10.51,14.38 10.57,14.58 10.57,14.81 C10.57,15.01 10.53,15.19 10.45,15.34 C10.37,15.49 10.27,15.63 10.13,15.73 C9.99,15.83 9.84,15.92 9.65,15.97 C9.46,16.02 9.27,16.05 9.05,16.05 C8.87,16.05 8.69,16.03 8.52,15.98 C8.35,15.93 8.19,15.86 8.06,15.75 C7.93,15.64 7.81,15.52 7.73,15.37 C7.65,15.22 7.61,15.03 7.61,14.82 L8.46,14.82 C8.46,14.9 8.48,14.97 8.51,15.04 C8.54,15.11 8.58,15.16 8.64,15.21 C8.7,15.26 8.76,15.3 8.84,15.32 C8.92,15.34 9,15.36 9.09,15.36 C9.19,15.36 9.28,15.35 9.36,15.32 C9.44,15.29 9.51,15.25 9.56,15.2 C9.61,15.15 9.66,15.09 9.69,15.02 C9.72,14.95 9.73,14.87 9.73,14.78 C9.73,14.67 9.71,14.57 9.68,14.49 C9.65,14.41 9.6,14.34 9.54,14.29 C9.48,14.24 9.41,14.2 9.32,14.18 C9.23,14.16 9.14,14.14 9.03,14.14 L8.56,14.14 L8.56,13.49 Z M14.3,14.24 C14.3,14.56 14.27,14.84 14.2,15.06 C14.13,15.28 14.03,15.48 13.91,15.63 C13.79,15.78 13.63,15.89 13.46,15.96 C13.29,16.03 13.09,16.06 12.87,16.06 C12.65,16.06 12.46,16.03 12.28,15.96 C12.1,15.89 11.95,15.78 11.82,15.63 C11.69,15.48 11.59,15.29 11.52,15.06 C11.45,14.83 11.41,14.56 11.41,14.24 L11.41,13.5 C11.41,13.18 11.44,12.9 11.51,12.68 C11.58,12.46 11.68,12.26 11.8,12.11 C11.92,11.96 12.08,11.85 12.25,11.78 C12.42,11.71 12.62,11.68 12.84,11.68 C13.06,11.68 13.25,11.71 13.43,11.78 C13.61,11.85 13.76,11.96 13.89,12.11 C14.02,12.26 14.12,12.45 14.19,12.68 C14.26,12.91 14.3,13.18 14.3,13.5 L14.3,14.24 Z M13.45,13.38 C13.45,13.19 13.44,13.03 13.41,12.9 C13.38,12.77 13.34,12.67 13.29,12.59 C13.24,12.51 13.18,12.45 13.1,12.42 C13.02,12.39 12.94,12.37 12.85,12.37 C12.76,12.37 12.67,12.39 12.6,12.42 C12.53,12.45 12.46,12.51 12.41,12.59 C12.36,12.67 12.32,12.77 12.29,12.9 C12.26,13.03 12.25,13.19 12.25,13.38 L12.25,14.35 C12.25,14.54 12.26,14.7 12.29,14.83 C12.32,14.96 12.36,15.07 12.41,15.15 C12.46,15.23 12.52,15.29 12.6,15.32 C12.68,15.35 12.76,15.37 12.85,15.37 C12.94,15.37 13.03,15.35 13.1,15.32 C13.17,15.29 13.24,15.23 13.29,15.15 C13.34,15.07 13.38,14.96 13.4,14.83 C13.43,14.7 13.44,14.54 13.44,14.35 L13.44,13.38 L13.45,13.38 Z" id="🔹Icon-Color" fill="#1D1D1D"></path>
                    </g>
                </g>
            </g>
        </g>
    </g>
</svg>