<?xml version="1.0" encoding="UTF-8"?>
<svg width="16px" height="20px" viewBox="0 0 16 20" version="1.1" xmlns="http://www.w3.org/2000/svg" xmlns:xlink="http://www.w3.org/1999/xlink">
    <!-- Generator: Sketch 52.5 (67469) - http://www.bohemiancoding.com/sketch -->
    <title>replay_30</title>
    <desc>Created with Sketch.</desc>
    <g id="Icons" stroke="none" stroke-width="1" fill="none" fill-rule="evenodd">
        <g id="Two-Tone" transform="translate(-546.000000, -995.000000)">
            <g id="AV" transform="translate(100.000000, 852.000000)">
                <g id="Two-Tone-/-AV-/-replay_30" transform="translate(442.000000, 142.000000)">
                    <g>
                        <polygon id="Path" points="0 0 24 0 24 24 0 24"></polygon>
                        <path d="M12,5 L12,1 L7,6 L12,11 L12,7 C15.31,7 18,9.69 18,13 C18,16.31 15.31,19 12,19 C8.69,19 6,16.31 6,13 L4,13 C4,17.42 7.58,21 12,21 C16.42,21 20,17.42 20,13 C20,8.58 16.42,5 12,5 Z M9.56,13.49 L10.01,13.49 C10.22,13.49 10.38,13.44 10.49,13.33 C10.6,13.22 10.65,13.08 10.65,12.9 C10.65,12.82 10.64,12.75 10.61,12.68 C10.58,12.61 10.55,12.56 10.5,12.51 C10.45,12.46 10.39,12.42 10.32,12.4 C10.25,12.38 10.16,12.36 10.07,12.36 C9.99,12.36 9.92,12.37 9.85,12.39 C9.78,12.41 9.72,12.44 9.67,12.49 C9.62,12.54 9.58,12.58 9.55,12.64 C9.52,12.7 9.5,12.77 9.5,12.84 L8.65,12.84 C8.65,12.66 8.69,12.5 8.76,12.36 C8.83,12.22 8.93,12.09 9.06,11.99 C9.19,11.89 9.33,11.81 9.5,11.76 C9.67,11.71 9.85,11.68 10.04,11.68 C10.25,11.68 10.45,11.71 10.63,11.76 C10.81,11.81 10.96,11.89 11.09,11.99 C11.22,12.09 11.32,12.22 11.39,12.37 C11.46,12.52 11.5,12.7 11.5,12.9 C11.5,12.99 11.49,13.08 11.46,13.17 C11.43,13.26 11.39,13.34 11.33,13.42 C11.27,13.5 11.21,13.57 11.13,13.64 C11.05,13.71 10.96,13.76 10.85,13.81 C11.09,13.9 11.27,14.02 11.39,14.2 C11.51,14.38 11.57,14.58 11.57,14.81 C11.57,15.01 11.53,15.19 11.45,15.34 C11.37,15.49 11.27,15.63 11.13,15.73 C10.99,15.83 10.84,15.92 10.65,15.97 C10.46,16.02 10.27,16.05 10.05,16.05 C9.87,16.05 9.69,16.03 9.52,15.98 C9.35,15.93 9.19,15.86 9.06,15.75 C8.93,15.64 8.81,15.52 8.73,15.37 C8.65,15.22 8.61,15.03 8.61,14.82 L9.46,14.82 C9.46,14.9 9.48,14.97 9.51,15.04 C9.54,15.11 9.58,15.16 9.64,15.21 C9.7,15.26 9.76,15.3 9.84,15.32 C9.92,15.34 10,15.36 10.09,15.36 C10.19,15.36 10.28,15.35 10.36,15.32 C10.44,15.29 10.51,15.25 10.56,15.2 C10.61,15.15 10.66,15.09 10.69,15.02 C10.72,14.95 10.73,14.87 10.73,14.78 C10.73,14.67 10.71,14.57 10.68,14.49 C10.65,14.41 10.6,14.34 10.54,14.29 C10.48,14.24 10.41,14.2 10.32,14.18 C10.23,14.16 10.14,14.14 10.03,14.14 L9.56,14.14 L9.56,13.49 Z M15.3,14.24 C15.3,14.56 15.27,14.84 15.2,15.06 C15.13,15.28 15.03,15.48 14.91,15.63 C14.79,15.78 14.63,15.89 14.46,15.96 C14.29,16.03 14.09,16.06 13.87,16.06 C13.65,16.06 13.46,16.03 13.28,15.96 C13.1,15.89 12.95,15.78 12.82,15.63 C12.69,15.48 12.59,15.29 12.52,15.06 C12.45,14.83 12.41,14.56 12.41,14.24 L12.41,13.5 C12.41,13.18 12.44,12.9 12.51,12.68 C12.58,12.46 12.68,12.26 12.8,12.11 C12.92,11.96 13.08,11.85 13.25,11.78 C13.42,11.71 13.62,11.68 13.84,11.68 C14.06,11.68 14.25,11.71 14.43,11.78 C14.61,11.85 14.76,11.96 14.89,12.11 C15.02,12.26 15.12,12.45 15.19,12.68 C15.26,12.91 15.3,13.18 15.3,13.5 L15.3,14.24 Z M14.45,13.38 C14.45,13.19 14.44,13.03 14.41,12.9 C14.38,12.77 14.34,12.67 14.29,12.59 C14.24,12.51 14.18,12.45 14.1,12.42 C14.02,12.39 13.94,12.37 13.85,12.37 C13.76,12.37 13.67,12.39 13.6,12.42 C13.53,12.45 13.46,12.51 13.41,12.59 C13.36,12.67 13.32,12.77 13.29,12.9 C13.26,13.03 13.25,13.19 13.25,13.38 L13.25,14.35 C13.25,14.54 13.26,14.7 13.29,14.83 C13.32,14.96 13.36,15.07 13.41,15.15 C13.46,15.23 13.52,15.29 13.6,15.32 C13.68,15.35 13.76,15.37 13.85,15.37 C13.94,15.37 14.03,15.35 14.1,15.32 C14.17,15.29 14.24,15.23 14.29,15.15 C14.34,15.07 14.38,14.96 14.4,14.83 C14.43,14.7 14.44,14.54 14.44,14.35 L14.44,13.38 L14.45,13.38 Z" id="🔹-Primary-Color" fill="#1D1D1D"></path>
                    </g>
                </g>
            </g>
        </g>
    </g>
</svg>