<?xml version="1.0" encoding="UTF-8"?>
<svg width="22px" height="19px" viewBox="0 0 22 19" version="1.1" xmlns="http://www.w3.org/2000/svg" xmlns:xlink="http://www.w3.org/1999/xlink">
    <!-- Generator: Sketch 52.5 (67469) - http://www.bohemiancoding.com/sketch -->
    <title>report_problem</title>
    <desc>Created with Sketch.</desc>
    <g id="Icons" stroke="none" stroke-width="1" fill="none" fill-rule="evenodd">
        <g id="Two-Tone" transform="translate(-577.000000, -376.000000)">
            <g id="Action" transform="translate(100.000000, 100.000000)">
                <g id="Two-Tone-/-Action-/-report_problem" transform="translate(476.000000, 274.000000)">
                    <g>
                        <polygon id="Path" points="0 0 24 0 24 24 0 24"></polygon>
                        <path d="M12,5.99 L4.47,19 L19.53,19 L12,5.99 Z M13,18 L11,18 L11,16 L13,16 L13,18 Z M11,14 L11,10 L13,10 L13,14 L11,14 Z" id="🔹-Secondary-Color" fill="#D0D0D0"></path>
                        <path d="M12,2 L1,21 L23,21 L12,2 Z M12,5.99 L19.53,19 L4.47,19 L12,5.99 Z M11,16 L13,16 L13,18 L11,18 L11,16 Z M11,10 L13,10 L13,14 L11,14 L11,10 Z" id="🔹-Primary-Color" fill="#1D1D1D"></path>
                    </g>
                </g>
            </g>
        </g>
    </g>
</svg>