<?xml version="1.0" encoding="UTF-8"?>
<svg width="22px" height="18px" viewBox="0 0 22 18" version="1.1" xmlns="http://www.w3.org/2000/svg" xmlns:xlink="http://www.w3.org/1999/xlink">
    <!-- Generator: Sketch 52.5 (67469) - http://www.bohemiancoding.com/sketch -->
    <title>report_problem</title>
    <desc>Created with Sketch.</desc>
    <g id="Icons" stroke="none" stroke-width="1" fill="none" fill-rule="evenodd">
        <g id="Rounded" transform="translate(-305.000000, -421.000000)">
            <g id="Action" transform="translate(100.000000, 100.000000)">
                <g id="-Round-/-Action-/-report_problem" transform="translate(204.000000, 318.000000)">
                    <g>
                        <polygon id="Path" points="0 0 24 0 24 24 0 24"></polygon>
                        <path d="M2.73,21 L21.26,21 C22.03,21 22.51,20.17 22.13,19.5 L12.86,3.5 C12.47,2.83 11.51,2.83 11.13,3.5 L1.86,19.5 C1.48,20.17 1.96,21 2.73,21 Z M13,18 L11,18 L11,16 L13,16 L13,18 Z M12,14 C11.45,14 11,13.55 11,13 L11,11 C11,10.45 11.45,10 12,10 C12.55,10 13,10.45 13,11 L13,13 C13,13.55 12.55,14 12,14 Z" id="🔹Icon-Color" fill="#1D1D1D"></path>
                    </g>
                </g>
            </g>
        </g>
    </g>
</svg>