<?xml version="1.0" encoding="UTF-8"?>
<svg width="22px" height="22px" viewBox="0 0 22 22" version="1.1" xmlns="http://www.w3.org/2000/svg" xmlns:xlink="http://www.w3.org/1999/xlink">
    <!-- Generator: Sketch 52.5 (67469) - http://www.bohemiancoding.com/sketch -->
    <title>report_off</title>
    <desc>Created with Sketch.</desc>
    <g id="Icons" stroke="none" stroke-width="1" fill="none" fill-rule="evenodd">
        <g id="Two-Tone" transform="translate(-509.000000, -1527.000000)">
            <g id="Content" transform="translate(100.000000, 1428.000000)">
                <g id="Two-Tone-/-Content-/-report_off" transform="translate(408.000000, 98.000000)">
                    <g>
                        <polygon id="Path" points="0 0 24 0 24 24 0 24"></polygon>
                        <path d="M19,9.1 L14.9,5 L9.1,5 L8.88,5.22 L11,7.33 L11,7 L13,7 L13,9.33 L18.78,15.12 L19,14.9 L19,9.1 Z M6.05,8.04 L5,9.1 L5,14.9 L9.1,19 L14.9,19 L15.95,17.95 L6.05,8.04 Z M13,16 C13,16.55 12.55,17 12,17 C11.45,17 11,16.55 11,16 C11,15.45 11.45,15 12,15 C12.55,15 13,15.45 13,16 Z" id="🔹-Secondary-Color" fill="#D0D0D0"></path>
                        <path d="M9.1,5 L8.88,5.22 L7.47,3.8 L8.27,3 L15.73,3 L21,8.27 L21,15.73 L20.2,16.53 L18.78,15.12 L19,14.9 L19,9.1 L14.9,5 L9.1,5 Z M12,17 C11.4477153,17 11,16.5522847 11,16 C11,15.4477153 11.4477153,15 12,15 C12.5522847,15 13,15.4477153 13,16 C13,16.5522847 12.5522847,17 12,17 Z M13,7 L13,9.33 L11,7.33 L11,7 L13,7 Z M2.41,1.58 L22.42,21.59 L21.01,23 L17.37,19.36 L15.73,21 L8.27,21 L3,15.73 L3,8.27 L4.64,6.63 L1,2.99 L2.41,1.58 Z M14.9,19 L15.95,17.95 L6.05,8.05 L5,9.1 L5,14.9 L9.1,19 L14.9,19 Z" id="🔹-Primary-Color" fill="#1D1D1D"></path>
                    </g>
                </g>
            </g>
        </g>
    </g>
</svg>