<?xml version="1.0" encoding="UTF-8"?>
<svg width="16px" height="20px" viewBox="0 0 16 20" version="1.1" xmlns="http://www.w3.org/2000/svg" xmlns:xlink="http://www.w3.org/1999/xlink">
    <!-- Generator: Sketch 52.5 (67469) - http://www.bohemiancoding.com/sketch -->
    <title>restore_page</title>
    <desc>Created with Sketch.</desc>
    <g id="Icons" stroke="none" stroke-width="1" fill="none" fill-rule="evenodd">
        <g id="Outlined" transform="translate(-410.000000, -420.000000)">
            <g id="Action" transform="translate(100.000000, 100.000000)">
                <g id="Outlined-/-Action-/-restore_page" transform="translate(306.000000, 318.000000)">
                    <g>
                        <polygon id="Path" points="0 0 24 0 24 24 0 24"></polygon>
                        <path d="M14,2 L6,2 C4.9,2 4.01,2.9 4.01,4 L4,20 C4,21.1 4.89,22 5.99,22 L18,22 C19.1,22 20,21.1 20,20 L20,8 L14,2 Z M18,20 L6,20 L6,4 L13.17,4 L18,8.83 L18,20 Z M8.45,10.57 L7.28,9.4 L7.28,13 L10.88,13 L9.44,11.56 C9.96,10.55 11.02,9.85 12.23,9.85 C13.97,9.85 15.38,11.26 15.38,13 C15.38,14.74 13.97,16.15 12.23,16.15 C11.16,16.15 10.21,15.61 9.65,14.8 L8.1,14.8 C8.79,16.38 10.38,17.5 12.22,17.5 C14.7,17.5 16.72,15.48 16.72,13 C16.72,10.52 14.7,8.5 12.22,8.5 C10.63,8.5 9.25,9.33 8.45,10.57 Z" id="🔹-Icon-Color" fill="#1D1D1D"></path>
                    </g>
                </g>
            </g>
        </g>
    </g>
</svg>