<?xml version="1.0" encoding="UTF-8"?>
<svg width="21px" height="18px" viewBox="0 0 21 18" version="1.1" xmlns="http://www.w3.org/2000/svg" xmlns:xlink="http://www.w3.org/1999/xlink">
    <!-- Generator: Sketch 52.5 (67469) - http://www.bohemiancoding.com/sketch -->
    <title>restore</title>
    <desc>Created with Sketch.</desc>
    <g id="Icons" stroke="none" stroke-width="1" fill="none" fill-rule="evenodd">
        <g id="Rounded" transform="translate(-339.000000, -421.000000)">
            <g id="Action" transform="translate(100.000000, 100.000000)">
                <g id="-Round-/-Action-/-restore" transform="translate(238.000000, 318.000000)">
                    <g>
                        <polygon id="Path" points="0 0 24 0 24 24 0 24"></polygon>
                        <path d="M13.25,3 C8.16,2.86 3.99,6.94 3.99,12 L2.2,12 C1.75,12 1.53,12.54 1.85,12.85 L4.64,15.65 C4.84,15.85 5.15,15.85 5.35,15.65 L8.14,12.85 C8.46,12.54 8.23,12 7.79,12 L5.99,12 C5.99,8.1 9.17,4.95 13.09,5 C16.81,5.05 19.94,8.18 19.99,11.9 C20.04,15.81 16.89,19 12.99,19 C11.38,19 9.89,18.45 8.71,17.52 C8.31,17.21 7.75,17.24 7.39,17.6 C6.97,18.03 7,18.73 7.47,19.1 C8.99,20.29 10.91,21 12.99,21 C18.04,21 22.13,16.83 21.99,11.74 C21.86,7.05 17.94,3.13 13.25,3 Z M12.74,8 C12.33,8 11.99,8.34 11.99,8.75 L11.99,12.43 C11.99,12.78 12.18,13.11 12.48,13.29 L15.6,15.14 C15.96,15.35 16.42,15.23 16.63,14.88 C16.84,14.52 16.72,14.06 16.37,13.85 L13.49,12.14 L13.49,8.74 C13.49,8.34 13.16,8 12.74,8 Z" id="🔹Icon-Color" fill="#1D1D1D"></path>
                    </g>
                </g>
            </g>
        </g>
    </g>
</svg>