<?xml version="1.0" encoding="UTF-8"?>
<svg width="18px" height="18px" viewBox="0 0 18 18" version="1.1" xmlns="http://www.w3.org/2000/svg" xmlns:xlink="http://www.w3.org/1999/xlink">
    <!-- Generator: Sketch 52.5 (67469) - http://www.bohemiancoding.com/sketch -->
    <title>router</title>
    <desc>Created with Sketch.</desc>
    <g id="Icons" stroke="none" stroke-width="1" fill="none" fill-rule="evenodd">
        <g id="Outlined" transform="translate(-579.000000, -2505.000000)">
            <g id="Hardware" transform="translate(100.000000, 2404.000000)">
                <g id="Outlined-/-Hardware-/-router" transform="translate(476.000000, 98.000000)">
                    <g>
                        <path d="M0,0 L24,0 L24,24 L0,24 L0,0 Z M0,0 L24,0 L24,24 L0,24 L0,0 Z" id="Shape"></path>
                        <path d="M16,4.2 C17.5,4.2 19,4.8 20.2,5.9 L21,5.1 C19.6,3.7 17.8,3 16,3 C14.2,3 12.4,3.7 11,5.1 L11.8,5.9 C13,4.8 14.5,4.2 16,4.2 Z M12.7,6.7 L13.5,7.5 C14.2,6.8 15.1,6.5 16,6.5 C16.9,6.5 17.8,6.8 18.5,7.5 L19.3,6.7 C18.4,5.8 17.2,5.3 16,5.3 C14.8,5.3 13.6,5.8 12.7,6.7 Z M19,13 L17,13 L17,9 L15,9 L15,13 L5,13 C3.9,13 3,13.9 3,15 L3,19 C3,20.1 3.9,21 5,21 L19,21 C20.1,21 21,20.1 21,19 L21,15 C21,13.9 20.1,13 19,13 Z M19,19 L5,19 L5,15 L19,15 L19,19 Z M6,16 L8,16 L8,18 L6,18 L6,16 Z M9.5,16 L11.5,16 L11.5,18 L9.5,18 L9.5,16 Z M13,16 L15,16 L15,18 L13,18 L13,16 Z" id="🔹-Icon-Color" fill="#1D1D1D"></path>
                    </g>
                </g>
            </g>
        </g>
    </g>
</svg>