<?xml version="1.0" encoding="UTF-8"?>
<svg width="16px" height="16px" viewBox="0 0 16 16" version="1.1" xmlns="http://www.w3.org/2000/svg" xmlns:xlink="http://www.w3.org/1999/xlink">
    <!-- Generator: Sketch 52.5 (67469) - http://www.bohemiancoding.com/sketch -->
    <title>rss_feed</title>
    <desc>Created with Sketch.</desc>
    <g id="Icons" stroke="none" stroke-width="1" fill="none" fill-rule="evenodd">
        <g id="Rounded" transform="translate(-478.000000, -1264.000000)">
            <g id="Communication" transform="translate(100.000000, 1162.000000)">
                <g id="-Round-/-Communication-/-rss_feed" transform="translate(374.000000, 98.000000)">
                    <g>
                        <polygon id="Path" points="0 0 24 0 24 24 0 24"></polygon>
                        <path d="M6.18,20 C4.97601925,20 4,19.0239808 4,17.82 C4,16.6160192 4.97601925,15.64 6.18,15.64 C7.38398075,15.64 8.36,16.6160192 8.36,17.82 C8.36,19.0239808 7.38398075,20 6.18,20 Z M5.59,10.23 C9.79,10.9 13.1,14.21 13.78,18.41 C13.91,19.25 13.22,20 12.37,20 C11.66,20 11.09,19.47 10.97,18.77 C10.45,15.85 8.15,13.54 5.23,13.03 C4.53,12.91 4,12.34 4,11.63 C4,10.78 4.75,10.09 5.59,10.23 Z M5.56,4.52 C12.91,5.25 18.75,11.1 19.48,18.44 C19.56,19.27 18.9,20 18.06,20 C17.33,20 16.73,19.45 16.66,18.72 C16.06,12.71 11.28,7.93 5.27,7.33 C4.55,7.26 4,6.66 4,5.93 C4,5.1 4.73,4.43 5.56,4.52 Z" id="🔹Icon-Color" fill="#1D1D1D"></path>
                    </g>
                </g>
            </g>
        </g>
    </g>
</svg>