<?xml version="1.0" encoding="UTF-8"?>
<svg width="18px" height="18px" viewBox="0 0 18 18" version="1.1" xmlns="http://www.w3.org/2000/svg" xmlns:xlink="http://www.w3.org/1999/xlink">
    <!-- Generator: Sketch 52.5 (67469) - http://www.bohemiancoding.com/sketch -->
    <title>satellite</title>
    <desc>Created with Sketch.</desc>
    <g id="Icons" stroke="none" stroke-width="1" fill="none" fill-rule="evenodd">
        <g id="Rounded" transform="translate(-647.000000, -3169.000000)">
            <g id="Maps" transform="translate(100.000000, 3068.000000)">
                <g id="-Round-/-Maps-/-satellite" transform="translate(544.000000, 98.000000)">
                    <g>
                        <polygon id="Path" points="0 0 24 0 24 24 0 24"></polygon>
                        <path d="M19,3 L5,3 C3.9,3 3,3.9 3,5 L3,19 C3,20.1 3.9,21 5,21 L19,21 C20.1,21 21,20.1 21,19 L21,5 C21,3.9 20.1,3 19,3 Z M5,5 L8,5 C8,6.66 6.66,8 5,8 L5,5 Z M5,10.91 C5,10.42 5.36,10.01 5.85,9.93 C7.93,9.57 9.57,7.93 9.93,5.85 C10.01,5.36 10.42,5 10.91,5 C11.52,5 12,5.53 11.91,6.13 C11.43,9.09 9.1,11.43 6.14,11.91 C5.54,12.01 5,11.52 5,10.91 Z M5.63,17.19 L8.12,13.99 C8.32,13.74 8.7,13.73 8.9,13.98 L11,16.51 L14.1,12.52 C14.3,12.26 14.7,12.26 14.9,12.53 L18.41,17.21 C18.66,17.54 18.42,18.01 18.01,18.01 L6.02,18.01 C5.61,18 5.37,17.52 5.63,17.19 Z" id="🔹-Icon-Color" fill="#1D1D1D"></path>
                    </g>
                </g>
            </g>
        </g>
    </g>
</svg>