<?xml version="1.0" encoding="UTF-8"?>
<svg width="18px" height="18px" viewBox="0 0 18 18" version="1.1" xmlns="http://www.w3.org/2000/svg" xmlns:xlink="http://www.w3.org/1999/xlink">
    <!-- Generator: Sketch 52.5 (67469) - http://www.bohemiancoding.com/sketch -->
    <title>save_alt</title>
    <desc>Created with Sketch.</desc>
    <g id="Icons" stroke="none" stroke-width="1" fill="none" fill-rule="evenodd">
        <g id="Two-Tone" transform="translate(-443.000000, -1529.000000)">
            <g id="Content" transform="translate(100.000000, 1428.000000)">
                <g id="Two-Tone-/-Content-/-save_alt" transform="translate(340.000000, 98.000000)">
                    <g>
                        <polygon id="Path" points="0 0 24 0 24 24 0 24"></polygon>
                        <path d="M19,12 L19,19 L5,19 L5,12 L3,12 L3,19 C3,20.1 3.9,21 5,21 L19,21 C20.1,21 21,20.1 21,19 L21,12 L19,12 Z M13,12.67 L15.59,10.09 L17,11.5 L12,16.5 L7,11.5 L8.41,10.09 L11,12.67 L11,3 L13,3 L13,12.67 Z" id="🔹-Primary-Color" fill="#1D1D1D"></path>
                    </g>
                </g>
            </g>
        </g>
    </g>
</svg>