<?xml version="1.0" encoding="UTF-8"?>
<svg width="18px" height="15px" viewBox="0 0 18 15" version="1.1" xmlns="http://www.w3.org/2000/svg" xmlns:xlink="http://www.w3.org/1999/xlink">
    <!-- Generator: Sketch 52.5 (67469) - http://www.bohemiancoding.com/sketch -->
    <title>scanner</title>
    <desc>Created with Sketch.</desc>
    <g id="Icons" stroke="none" stroke-width="1" fill="none" fill-rule="evenodd">
        <g id="Outlined" transform="translate(-545.000000, -2507.000000)">
            <g id="Hardware" transform="translate(100.000000, 2404.000000)">
                <g id="Outlined-/-Hardware-/-scanner" transform="translate(442.000000, 98.000000)">
                    <g>
                        <polygon id="Path" points="0 0 24 0 24 24 0 24"></polygon>
                        <path d="M19.8,10.7 L4.2,5 L3.5,6.9 L17.6,12 L5,12 C3.9,12 3,12.9 3,14 L3,18 C3,19.1 3.9,20 5,20 L19,20 C20.1,20 21,19.1 21,18 L21,12.5 C21,11.7 20.5,10.9 19.8,10.7 Z M19,18 L5,18 L5,14 L19,14 L19,18 Z M6,15 L8,15 L8,17 L6,17 L6,15 Z M10,15 L18,15 L18,17 L10,17 L10,15 Z" id="🔹-Icon-Color" fill="#1D1D1D"></path>
                    </g>
                </g>
            </g>
        </g>
    </g>
</svg>