<?xml version="1.0" encoding="UTF-8"?>
<svg width="21px" height="18px" viewBox="0 0 21 18" version="1.1" xmlns="http://www.w3.org/2000/svg" xmlns:xlink="http://www.w3.org/1999/xlink">
    <!-- Generator: Sketch 52.5 (67469) - http://www.bohemiancoding.com/sketch -->
    <title>school</title>
    <desc>Created with Sketch.</desc>
    <g id="Icons" stroke="none" stroke-width="1" fill="none" fill-rule="evenodd">
        <g id="Rounded" transform="translate(-136.000000, -4145.000000)">
            <g id="Social" transform="translate(100.000000, 4044.000000)">
                <g id="-Round-/-Social-/-school" transform="translate(34.000000, 98.000000)">
                    <g>
                        <polygon id="Path" points="0 0 24 0 24 24 0 24"></polygon>
                        <path d="M5,13.18 L5,15.99 C5,16.72 5.4,17.4 6.04,17.75 L11.04,20.48 C11.64,20.81 12.36,20.81 12.96,20.48 L17.96,17.75 C18.6,17.4 19,16.72 19,15.99 L19,13.18 L12.96,16.48 C12.36,16.81 11.64,16.81 11.04,16.48 L5,13.18 Z M11.04,3.52 L2.61,8.12 C1.92,8.5 1.92,9.5 2.61,9.88 L11.04,14.48 C11.64,14.81 12.36,14.81 12.96,14.48 L21,10.09 L21,16 C21,16.55 21.45,17 22,17 C22.55,17 23,16.55 23,16 L23,9.59 C23,9.22 22.8,8.89 22.48,8.71 L12.96,3.52 C12.36,3.2 11.64,3.2 11.04,3.52 Z" id="🔹-Icon-Color" fill="#1D1D1D"></path>
                    </g>
                </g>
            </g>
        </g>
    </g>
</svg>