<?xml version="1.0" encoding="UTF-8"?>
<svg width="14px" height="22px" viewBox="0 0 14 22" version="1.1" xmlns="http://www.w3.org/2000/svg" xmlns:xlink="http://www.w3.org/1999/xlink">
    <!-- Generator: Sketch 52.5 (67469) - http://www.bohemiancoding.com/sketch -->
    <title>screen_lock_portrait</title>
    <desc>Created with Sketch.</desc>
    <g id="Icons" stroke="none" stroke-width="1" fill="none" fill-rule="evenodd">
        <g id="Outlined" transform="translate(-139.000000, -1749.000000)">
            <g id="Device" transform="translate(100.000000, 1650.000000)">
                <g id="Outlined-/-Device-/-screen_lock_portrait" transform="translate(34.000000, 98.000000)">
                    <g>
                        <polygon id="Path" points="0 0 24 0 24 24 0 24"></polygon>
                        <path d="M10,16 L14,16 C14.55,16 15,15.55 15,15 L15,12 C15,11.45 14.55,11 14,11 L14,10 C14,8.89 13.1,8 12,8 C10.89,8 10,8.9 10,10 L10,11 C9.45,11 9,11.45 9,12 L9,15 C9,15.55 9.45,16 10,16 Z M10.8,10 C10.8,9.34 11.34,8.8 12,8.8 C12.66,8.8 13.2,9.34 13.2,10 L13.2,11 L10.8,11 L10.8,10 Z M17,1 L7,1 C5.9,1 5,1.9 5,3 L5,21 C5,22.1 5.9,23 7,23 L17,23 C18.1,23 19,22.1 19,21 L19,3 C19,1.9 18.1,1 17,1 Z M17,19 L7,19 L7,5 L17,5 L17,19 Z" id="🔹-Icon-Color" fill="#1D1D1D"></path>
                    </g>
                </g>
            </g>
        </g>
    </g>
</svg>