<?xml version="1.0" encoding="UTF-8"?>
<svg width="23px" height="23px" viewBox="0 0 23 23" version="1.1" xmlns="http://www.w3.org/2000/svg" xmlns:xlink="http://www.w3.org/1999/xlink">
    <!-- Generator: Sketch 52.5 (67469) - http://www.bohemiancoding.com/sketch -->
    <title>screen_lock_rotation</title>
    <desc>Created with Sketch.</desc>
    <g id="Icons" stroke="none" stroke-width="1" fill="none" fill-rule="evenodd">
        <g id="Rounded" transform="translate(-848.000000, -1793.000000)">
            <g id="Device" transform="translate(100.000000, 1650.000000)">
                <g id="Round-/-Device-/-screen_lock_rotation" transform="translate(748.000000, 142.000000)">
                    <g>
                        <polygon id="Path" points="0 0 24 0 24 24 0 24"></polygon>
                        <path d="M22.3,13.77 L20.44,11.9 C20.05,11.51 19.42,11.51 19.03,11.9 C18.64,12.29 18.64,12.92 19.03,13.31 L20.54,14.83 L14.88,20.49 L3.56,9.17 L9.22,3.51 L10.62,4.91 C11.01,5.3 11.64,5.3 12.03,4.91 C12.42,4.52 12.42,3.89 12.03,3.5 L10.28,1.75 C9.69,1.16 8.74,1.16 8.16,1.75 L1.8,8.11 C1.21,8.7 1.21,9.65 1.8,10.23 L13.82,22.25 C14.41,22.84 15.36,22.84 15.94,22.25 L22.3,15.89 C22.89,15.3 22.89,14.35 22.3,13.77 Z M15.05,10 L20.05,10 C20.6,10 21.05,9.55 21.05,9 L21.05,5 C21.05,4.45 20.6,4 20.05,4 L20.05,3.5 C20.05,2.12 18.93,1 17.55,1 C16.17,1 15.05,2.12 15.05,3.5 L15.05,4 C14.5,4 14.05,4.45 14.05,5 L14.05,9 C14.05,9.55 14.5,10 15.05,10 Z M15.85,3.5 C15.85,2.56 16.61,1.8 17.55,1.8 C18.49,1.8 19.25,2.56 19.25,3.5 L19.25,4 L15.85,4 L15.85,3.5 Z M8.85,20.15 L7.52,21.48 C4.43,20.02 2.18,17.11 1.63,13.62 C1.57,13.21 1.19,12.93 0.77,13 C0.36,13.06 0.08,13.45 0.15,13.86 C0.75,17.67 3.11,20.87 6.39,22.61 C7.96,23.44 9.94,24.04 12.19,23.99 C12.37,23.99 12.45,23.77 12.33,23.64 L8.85,20.15 Z" id="🔹-Icon-Color" fill="#1D1D1D"></path>
                    </g>
                </g>
            </g>
        </g>
    </g>
</svg>