<?xml version="1.0" encoding="UTF-8"?>
<svg width="22px" height="22px" viewBox="0 0 22 22" version="1.1" xmlns="http://www.w3.org/2000/svg" xmlns:xlink="http://www.w3.org/1999/xlink">
    <!-- Generator: Sketch 52.5 (67469) - http://www.bohemiancoding.com/sketch -->
    <title>settings_input_svideo</title>
    <desc>Created with Sketch.</desc>
    <g id="Icons" stroke="none" stroke-width="1" fill="none" fill-rule="evenodd">
        <g id="Outlined" transform="translate(-475.000000, -463.000000)">
            <g id="Action" transform="translate(100.000000, 100.000000)">
                <g id="Outlined-/-Action-/-settings_input_svideo" transform="translate(374.000000, 362.000000)">
                    <g>
                        <polygon id="Path" points="0 0 24 0 24 24 0 24"></polygon>
                        <path d="M8,11.5 C8,10.67 7.33,10 6.5,10 C5.67,10 5,10.67 5,11.5 C5,12.33 5.67,13 6.5,13 C7.33,13 8,12.33 8,11.5 Z M15,6.5 C15,5.67 14.33,5 13.5,5 L10.5,5 C9.67,5 9,5.67 9,6.5 C9,7.33 9.67,8 10.5,8 L13.5,8 C14.33,8 15,7.33 15,6.5 Z M8.5,15 C7.67,15 7,15.67 7,16.5 C7,17.33 7.67,18 8.5,18 C9.33,18 10,17.33 10,16.5 C10,15.67 9.33,15 8.5,15 Z M12,1 C5.93,1 1,5.93 1,12 C1,18.07 5.93,23 12,23 C18.07,23 23,18.07 23,12 C23,5.93 18.07,1 12,1 Z M12,21 C7.04,21 3,16.96 3,12 C3,7.04 7.04,3 12,3 C16.96,3 21,7.04 21,12 C21,16.96 16.96,21 12,21 Z M17.5,10 C16.67,10 16,10.67 16,11.5 C16,12.33 16.67,13 17.5,13 C18.33,13 19,12.33 19,11.5 C19,10.67 18.33,10 17.5,10 Z M15.5,15 C14.67,15 14,15.67 14,16.5 C14,17.33 14.67,18 15.5,18 C16.33,18 17,17.33 17,16.5 C17,15.67 16.33,15 15.5,15 Z" id="🔹-Icon-Color" fill="#1D1D1D"></path>
                    </g>
                </g>
            </g>
        </g>
    </g>
</svg>