<?xml version="1.0" encoding="UTF-8"?>
<svg width="22px" height="18px" viewBox="0 0 22 18" version="1.1" xmlns="http://www.w3.org/2000/svg" xmlns:xlink="http://www.w3.org/1999/xlink">
    <!-- Generator: Sketch 52.5 (67469) - http://www.bohemiancoding.com/sketch -->
    <title>settings_brightness</title>
    <desc>Created with Sketch.</desc>
    <g id="Icons" stroke="none" stroke-width="1" fill="none" fill-rule="evenodd">
        <g id="Rounded" transform="translate(-679.000000, -421.000000)">
            <g id="Action" transform="translate(100.000000, 100.000000)">
                <g id="-Round-/-Action-/-settings_brightness" transform="translate(578.000000, 318.000000)">
                    <g transform="translate(0.000000, 0.000000)">
                        <polygon id="Path" points="0 0 24 0 24 24 0 24"></polygon>
                        <path d="M21,3 L3,3 C1.9,3 1,3.9 1,5 L1,19 C1,20.1 1.9,21 3,21 L21,21 C22.1,21 23,20.1 23,19 L23,5 C23,3.9 22.1,3 21,3 Z M20,19.01 L4,19.01 C3.45,19.01 3,18.56 3,18.01 L3,5.99 C3,5.44 3.45,4.99 4,4.99 L20,4.99 C20.55,4.99 21,5.44 21,5.99 L21,18.01 C21,18.56 20.55,19.01 20,19.01 Z M8.5,16 L10.5,16 L11.65,17.15 C11.85,17.35 12.16,17.35 12.36,17.15 L13.5,16 L15.5,16 C15.78,16 16,15.78 16,15.5 L16,13.5 L17.15,12.35 C17.35,12.15 17.35,11.84 17.15,11.64 L16,10.5 L16,8.5 C16,8.22 15.78,8 15.5,8 L13.5,8 L12.35,6.85 C12.15,6.65 11.84,6.65 11.64,6.85 L10.5,8 L8.5,8 C8.22,8 8,8.22 8,8.5 L8,10.5 L6.85,11.65 C6.65,11.85 6.65,12.16 6.85,12.36 L8,13.5 L8,15.5 C8,15.78 8.22,16 8.5,16 Z M12,9 C13.66,9 15,10.34 15,12 C15,13.66 13.66,15 12,15 L12,9 Z" id="🔹Icon-Color" fill="#1D1D1D"></path>
                    </g>
                </g>
            </g>
        </g>
    </g>
</svg>