<?xml version="1.0" encoding="UTF-8"?>
<svg width="22px" height="18px" viewBox="0 0 22 18" version="1.1" xmlns="http://www.w3.org/2000/svg" xmlns:xlink="http://www.w3.org/1999/xlink">
    <!-- Generator: Sketch 52.5 (67469) - http://www.bohemiancoding.com/sketch -->
    <title>settings_system_daydream</title>
    <desc>Created with Sketch.</desc>
    <g id="Icons" stroke="none" stroke-width="1" fill="none" fill-rule="evenodd">
        <g id="Rounded" transform="translate(-101.000000, -1839.000000)">
            <g id="Device" transform="translate(100.000000, 1650.000000)">
                <g id="Round-/-Device-/-settings_system_daydream" transform="translate(0.000000, 186.000000)">
                    <g>
                        <polygon id="Path" points="0 0 24 0 24 24 0 24"></polygon>
                        <path d="M9,16 L15.5,16 C16.88,16 18,14.88 18,13.5 C18,12.12 16.88,11 15.5,11 L15.45,11 C15.21,9.31 13.76,8 12,8 C10.6,8 9.4,8.83 8.84,10.02 L8.68,10.02 C7.17,10.18 6,11.45 6,13 C6,14.66 7.34,16 9,16 Z M21,3 L3,3 C1.9,3 1,3.9 1,5 L1,19 C1,20.1 1.9,21 3,21 L21,21 C22.1,21 23,20.1 23,19 L23,5 C23,3.9 22.1,3 21,3 Z M20,19.01 L4,19.01 C3.45,19.01 3,18.56 3,18.01 L3,5.99 C3,5.44 3.45,4.99 4,4.99 L20,4.99 C20.55,4.99 21,5.44 21,5.99 L21,18.01 C21,18.56 20.55,19.01 20,19.01 Z" id="🔹-Icon-Color" fill="#1D1D1D"></path>
                    </g>
                </g>
            </g>
        </g>
    </g>
</svg>