<?xml version="1.0" encoding="UTF-8"?>
<svg width="16px" height="23px" viewBox="0 0 16 23" version="1.1" xmlns="http://www.w3.org/2000/svg" xmlns:xlink="http://www.w3.org/1999/xlink">
    <!-- Generator: Sketch 52.5 (67469) - http://www.bohemiancoding.com/sketch -->
    <title>settings_remote</title>
    <desc>Created with Sketch.</desc>
    <g id="Icons" stroke="none" stroke-width="1" fill="none" fill-rule="evenodd">
        <g id="Rounded" transform="translate(-852.000000, -462.000000)">
            <g id="Action" transform="translate(100.000000, 100.000000)">
                <g id="-Round-/-Action-/-settings_remote" transform="translate(748.000000, 362.000000)">
                    <g>
                        <polygon id="Path" points="0 0 24 0 24 24 0 24"></polygon>
                        <path d="M15,9 L9,9 C8.45,9 8,9.45 8,10 L8,22 C8,22.55 8.45,23 9,23 L15,23 C15.55,23 16,22.55 16,22 L16,10 C16,9.45 15.55,9 15,9 Z M12,15 C10.9,15 10,14.1 10,13 C10,11.9 10.9,11 12,11 C13.1,11 14,11.9 14,13 C14,14.1 13.1,15 12,15 Z M7.82,6.82 C8.17,7.17 8.72,7.2 9.12,6.92 C9.93,6.34 10.93,6 12,6 C13.07,6 14.07,6.34 14.88,6.91 C15.28,7.19 15.83,7.17 16.18,6.82 C16.61,6.39 16.57,5.68 16.09,5.32 C14.94,4.49 13.53,4 12,4 C10.47,4 9.06,4.49 7.91,5.32 C7.42,5.67 7.39,6.39 7.82,6.82 Z M12,0 C9.36,0 6.94,0.93 5.05,2.47 C4.59,2.85 4.55,3.54 4.97,3.96 C5.33,4.32 5.9,4.35 6.29,4.03 C7.84,2.77 9.83,2 12,2 C14.17,2 16.16,2.77 17.7,4.04 C18.09,4.36 18.66,4.33 19.02,3.97 C19.44,3.55 19.4,2.86 18.94,2.48 C17.06,0.93 14.64,0 12,0 Z" id="🔹Icon-Color" fill="#1D1D1D"></path>
                    </g>
                </g>
            </g>
        </g>
    </g>
</svg>