<?xml version="1.0" encoding="UTF-8"?>
<svg width="22px" height="18px" viewBox="0 0 22 18" version="1.1" xmlns="http://www.w3.org/2000/svg" xmlns:xlink="http://www.w3.org/1999/xlink">
    <!-- Generator: Sketch 52.5 (67469) - http://www.bohemiancoding.com/sketch -->
    <title>settings_brightness</title>
    <desc>Created with Sketch.</desc>
    <g id="Icons" stroke="none" stroke-width="1" fill="none" fill-rule="evenodd">
        <g id="Outlined" transform="translate(-917.000000, -377.000000)">
            <g id="Action" transform="translate(100.000000, 100.000000)">
                <g id="Outlined-/-Action-/-settings_brightness" transform="translate(816.000000, 274.000000)">
                    <g>
                        <polygon id="Path" points="0 0 24 0 24 24 0 24"></polygon>
                        <path d="M21,3 L3,3 C1.9,3 1,3.9 1,5 L1,19 C1,20.1 1.9,21 3,21 L21,21 C22.1,21 23,20.1 23,19 L23,5 C23,3.9 22.1,3 21,3 Z M21,19.01 L3,19.01 L3,4.99 L21,4.99 L21,19.01 Z M8,16 L10.5,16 L12,17.5 L13.5,16 L16,16 L16,13.5 L17.5,12 L16,10.5 L16,8 L13.5,8 L12,6.5 L10.5,8 L8,8 L8,10.5 L6.5,12 L8,13.5 L8,16 Z M12,9 C13.66,9 15,10.34 15,12 C15,13.66 13.66,15 12,15 L12,9 Z" id="🔹-Icon-Color" fill="#1D1D1D"></path>
                    </g>
                </g>
            </g>
        </g>
    </g>
</svg>