<?xml version="1.0" encoding="UTF-8"?>
<svg width="22px" height="22px" viewBox="0 0 22 22" version="1.1" xmlns="http://www.w3.org/2000/svg" xmlns:xlink="http://www.w3.org/1999/xlink">
    <!-- Generator: Sketch 52.5 (67469) - http://www.bohemiancoding.com/sketch -->
    <title>settings_input_component</title>
    <desc>Created with Sketch.</desc>
    <g id="Icons" stroke="none" stroke-width="1" fill="none" fill-rule="evenodd">
        <g id="Rounded" transform="translate(-781.000000, -419.000000)">
            <g id="Action" transform="translate(100.000000, 100.000000)">
                <g id="-Round-/-Action-/-settings_input_component" transform="translate(680.000000, 318.000000)">
                    <g transform="translate(0.000000, 0.000000)">
                        <polygon id="Path" points="0 0 24 0 24 24 0 24"></polygon>
                        <path d="M5,2 C5,1.45 4.55,1 4,1 C3.45,1 3,1.45 3,2 L3,6 L2,6 C1.45,6 1,6.45 1,7 L1,12 L7,12 L7,7 C7,6.45 6.55,6 6,6 L5,6 L5,2 Z M9,16 C9,17.3 9.84,18.4 11,18.82 L11,22 C11,22.55 11.45,23 12,23 C12.55,23 13,22.55 13,22 L13,18.82 C14.16,18.41 15,17.31 15,16 L15,14 L9,14 L9,16 Z M1,16 C1,17.3 1.84,18.4 3,18.82 L3,22 C3,22.55 3.45,23 4,23 C4.55,23 5,22.55 5,22 L5,18.82 C6.16,18.4 7,17.3 7,16 L7,14 L1,14 L1,16 Z M21,6 L21,2 C21,1.45 20.55,1 20,1 C19.45,1 19,1.45 19,2 L19,6 L18,6 C17.45,6 17,6.45 17,7 L17,12 L23,12 L23,7 C23,6.45 22.55,6 22,6 L21,6 Z M13,2 C13,1.45 12.55,1 12,1 C11.45,1 11,1.45 11,2 L11,6 L10,6 C9.45,6 9,6.45 9,7 L9,12 L15,12 L15,7 C15,6.45 14.55,6 14,6 L13,6 L13,2 Z M17,16 C17,17.3 17.84,18.4 19,18.82 L19,22 C19,22.55 19.45,23 20,23 C20.55,23 21,22.55 21,22 L21,18.82 C22.16,18.41 23,17.31 23,16 L23,14 L17,14 L17,16 Z" id="🔹Icon-Color" fill="#1D1D1D"></path>
                    </g>
                </g>
            </g>
        </g>
    </g>
</svg>