<?xml version="1.0" encoding="UTF-8"?>
<svg width="20px" height="19px" viewBox="0 0 20 19" version="1.1" xmlns="http://www.w3.org/2000/svg" xmlns:xlink="http://www.w3.org/1999/xlink">
    <!-- Generator: Sketch 52.5 (67469) - http://www.bohemiancoding.com/sketch -->
    <title>shop</title>
    <desc>Created with Sketch.</desc>
    <g id="Icons" stroke="none" stroke-width="1" fill="none" fill-rule="evenodd">
        <g id="Outlined" transform="translate(-272.000000, -464.000000)">
            <g id="Action" transform="translate(100.000000, 100.000000)">
                <g id="Outlined-/-Action-/-shop" transform="translate(170.000000, 362.000000)">
                    <g>
                        <polygon id="Path" points="0 0 24 0 24 24 0 24"></polygon>
                        <path d="M16,6 L16,4 C16,2.89 15.11,2 14,2 L10,2 C8.89,2 8,2.89 8,4 L8,6 L2,6 L2,19 C2,20.11 2.89,21 4,21 L20,21 C21.11,21 22,20.11 22,19 L22,6 L16,6 Z M10,4 L14,4 L14,6 L10,6 L10,4 Z M20,19 L4,19 L4,8 L20,8 L20,19 Z M9,18 L16.5,13 L9,9 L9,18 Z" id="🔹-Icon-Color" fill="#1D1D1D"></path>
                    </g>
                </g>
            </g>
        </g>
    </g>
</svg>