<?xml version="1.0" encoding="UTF-8"?>
<svg width="13px" height="12px" viewBox="0 0 13 12" version="1.1" xmlns="http://www.w3.org/2000/svg" xmlns:xlink="http://www.w3.org/1999/xlink">
    <!-- Generator: Sketch 52.5 (67469) - http://www.bohemiancoding.com/sketch -->
    <title>skip_previous</title>
    <desc>Created with Sketch.</desc>
    <g id="Icons" stroke="none" stroke-width="1" fill="none" fill-rule="evenodd">
        <g id="Rounded" transform="translate(-582.000000, -1000.000000)">
            <g id="AV" transform="translate(100.000000, 852.000000)">
                <g id="-Round-/-AV-/-skip_previous" transform="translate(476.000000, 142.000000)">
                    <g transform="translate(0.000000, 0.000000)">
                        <rect id="Rectangle-Copy-70" x="0" y="0" width="24" height="24"></rect>
                        <path d="M7,6 C7.55,6 8,6.45 8,7 L8,17 C8,17.55 7.55,18 7,18 C6.45,18 6,17.55 6,17 L6,7 C6,6.45 6.45,6 7,6 Z M10.66,12.82 L16.43,16.89 C17.09,17.36 18.01,16.88 18.01,16.07 L18.01,7.93 C18.01,7.12 17.1,6.65 16.43,7.11 L10.66,11.18 C10.09,11.58 10.09,12.42 10.66,12.82 Z" id="🔹Icon-Color" fill="#1D1D1D"></path>
                    </g>
                </g>
            </g>
        </g>
    </g>
</svg>