<?xml version="1.0" encoding="UTF-8"?>
<svg width="20px" height="20px" viewBox="0 0 20 20" version="1.1" xmlns="http://www.w3.org/2000/svg" xmlns:xlink="http://www.w3.org/1999/xlink">
    <!-- Generator: Sketch 52.5 (67469) - http://www.bohemiancoding.com/sketch -->
    <title>slow_motion_video</title>
    <desc>Created with Sketch.</desc>
    <g id="Icons" stroke="none" stroke-width="1" fill="none" fill-rule="evenodd">
        <g id="Two-Tone" transform="translate(-374.000000, -996.000000)">
            <g id="AV" transform="translate(100.000000, 852.000000)">
                <g id="Two-Tone-/-AV-/-slow_motion_video" transform="translate(272.000000, 142.000000)">
                    <g>
                        <polygon id="Path" points="0 0 24 0 24 24 0 24"></polygon>
                        <path d="M4.26,18.32 L5.69,16.89 C4.83,15.79 4.25,14.46 4.07,13 L2.05,13 C2.25,15.01 3.05,16.84 4.26,18.32 Z M7.1,5.69 C8.21,4.83 9.54,4.25 11,4.07 L11,2.05 C8.99,2.25 7.16,3.05 5.68,4.26 L7.1,5.69 Z M2.05,11 L4.07,11 C4.25,9.54 4.83,8.21 5.69,7.1 L4.26,5.68 C3.05,7.16 2.25,8.99 2.05,11 Z M13.05,2.05 L13.05,4.07 C16.97,4.59 20,7.95 20,12 C20,16.05 16.97,19.41 13.05,19.93 L13.05,21.95 C18.08,21.42 22,17.16 22,12 C22,6.84 18.08,2.58 13.05,2.05 Z M16,12 L13.05,9.79 L10,7.5 L10,16.5 L13.05,14.21 L16,12 Z M5.68,19.74 C7.16,20.95 9,21.75 11,21.95 L11,19.93 C9.54,19.75 8.21,19.17 7.1,18.31 L5.68,19.74 Z" id="🔹-Primary-Color" fill="#1D1D1D"></path>
                    </g>
                </g>
            </g>
        </g>
    </g>
</svg>