<?xml version="1.0" encoding="UTF-8"?>
<svg width="20px" height="22px" viewBox="0 0 20 22" version="1.1" xmlns="http://www.w3.org/2000/svg" xmlns:xlink="http://www.w3.org/1999/xlink">
    <!-- Generator: Sketch 52.5 (67469) - http://www.bohemiancoding.com/sketch -->
    <title>smoke_free</title>
    <desc>Created with Sketch.</desc>
    <g id="Icons" stroke="none" stroke-width="1" fill="none" fill-rule="evenodd">
        <g id="Outlined" transform="translate(-204.000000, -3921.000000)">
            <g id="Places" transform="translate(100.000000, 3866.000000)">
                <g id="Outlined-/-Places-/-smoke_free" transform="translate(102.000000, 54.000000)">
                    <g>
                        <polygon id="Path" points="0 0 24 0 24 24 0 24"></polygon>
                        <path d="M20.5,13 L22,13 L22,16 L20.5,16 L20.5,13 Z M18,13 L19.5,13 L19.5,16 L18,16 L18,13 Z M17,13 L14.66,13 L17,15.34 L17,13 Z M14.5,8.65 L16.03,8.65 C17.08,8.65 18,9.39 18,10.7 L18,12 L19.5,12 L19.5,10.36 C19.5,8.55 17.9,7.2 16.03,7.2 L14.5,7.2 C13.48,7.2 12.65,6.22 12.65,5.2 C12.65,4.18 13.48,3.45 14.5,3.45 L14.5,1.95 C12.65,1.95 11.15,3.45 11.15,5.3 C11.15,7.15 12.65,8.65 14.5,8.65 Z M18.85,4.73 C19.47,4.12 19.85,3.28 19.85,2.35 L18.35,2.35 C18.35,3.37 17.52,4.2 16.5,4.2 L16.5,5.7 C18.74,5.7 20.5,7.53 20.5,9.77 L20.5,12 L22,12 L22,9.76 C22,7.54 20.72,5.62 18.85,4.73 Z M3.41,4.59 L2,6 L9,13 L2,13 L2,16 L12,16 L19,23 L20.41,21.59 L3.41,4.59 Z" id="🔹-Icon-Color" fill="#1D1D1D"></path>
                    </g>
                </g>
            </g>
        </g>
    </g>
</svg>