<?xml version="1.0" encoding="UTF-8"?>
<svg width="21px" height="20px" viewBox="0 0 21 20" version="1.1" xmlns="http://www.w3.org/2000/svg" xmlns:xlink="http://www.w3.org/1999/xlink">
    <!-- Generator: Sketch 52.5 (67469) - http://www.bohemiancoding.com/sketch -->
    <title>sort_by_alpha</title>
    <desc>Created with Sketch.</desc>
    <g id="Icons" stroke="none" stroke-width="1" fill="none" fill-rule="evenodd">
        <g id="Two-Tone" transform="translate(-237.000000, -996.000000)">
            <g id="AV" transform="translate(100.000000, 852.000000)">
                <g id="Two-Tone-/-AV-/-sort_by_alpha" transform="translate(136.000000, 142.000000)">
                    <g>
                        <polygon id="Path" points="0 0 24 0 24 24 0 24"></polygon>
                        <path d="M14.94,4.66 L12.58,2.3 L10.22,4.66 L14.94,4.66 Z M10.39,17.73 L12.23,17.73 L7.74,6.27 L6.1,6.27 L1.6,17.73 L3.44,17.73 L4.36,15.28 L9.47,15.28 L10.39,17.73 Z M4.97,13.64 L6.91,8.46 L8.85,13.64 L4.97,13.64 Z M12.58,21.7 L14.91,19.37 L10.25,19.37 L12.58,21.7 Z M21.66,7.54 L21.66,6.28 L13.36,6.28 L13.36,7.88 L19.24,7.88 L13.32,16.44 L13.32,17.73 L21.85,17.73 L21.85,16.14 L15.73,16.14 L21.66,7.54 Z" id="🔹-Primary-Color" fill="#1D1D1D"></path>
                    </g>
                </g>
            </g>
        </g>
    </g>
</svg>