<?xml version="1.0" encoding="UTF-8"?>
<svg width="20px" height="20px" viewBox="0 0 20 20" version="1.1" xmlns="http://www.w3.org/2000/svg" xmlns:xlink="http://www.w3.org/1999/xlink">
    <!-- Generator: Sketch 52.5 (67469) - http://www.bohemiancoding.com/sketch -->
    <title>spa</title>
    <desc>Created with Sketch.</desc>
    <g id="Icons" stroke="none" stroke-width="1" fill="none" fill-rule="evenodd">
        <g id="Two-Tone" transform="translate(-136.000000, -3922.000000)">
            <g id="Places" transform="translate(100.000000, 3866.000000)">
                <g id="Two-Tone-/-Places-/-spa" transform="translate(34.000000, 54.000000)">
                    <g>
                        <polygon id="Path" points="0 0 24 0 24 24 0 24"></polygon>
                        <path d="M8.55,12 C7.48,11.29 6.3,10.73 5.02,10.39 C6.3,10.73 7.48,11.29 8.55,12 Z M18.98,10.39 C17.69,10.73 16.49,11.3 15.41,12.03 C16.49,11.3 17.69,10.73 18.98,10.39 Z" id="Shape" fill="#000000" fill-rule="nonzero"></path>
                        <path d="M8.94,12.25 C8.94,12.24 8.94,12.24 8.94,12.25 C8.81,12.16 8.67,12.08 8.54,11.99 C8.67,12.09 8.81,12.16 8.94,12.25 Z M13.35,8.58 C13.13,7.37 12.69,6.23 12.05,5.2 C11.39,6.24 10.93,7.39 10.68,8.59 C11.14,8.89 11.58,9.21 12.01,9.56 C12.43,9.21 12.88,8.88 13.35,8.58 Z M16.54,13.66 L16.55,13.68 C16.46,13.74 16.37,13.8 16.28,13.85 L16.21,13.9 C15.23,14.61 14.37,15.51 13.68,16.56 L12,19.1 L10.33,16.55 C9.65,15.52 8.81,14.63 7.82,13.9 L7.75,13.86 C7.62,13.78 7.49,13.7 7.36,13.61 L7.37,13.6 C6.41,12.97 5.36,12.53 4.25,12.27 C5,15.63 7.41,18.44 10.7,19.62 C11.12,19.77 11.54,19.89 11.98,19.98 C12.43,19.89 12.87,19.77 13.31,19.61 C16.58,18.44 18.98,15.63 19.74,12.27 C18.6,12.53 17.51,13 16.54,13.66 Z" id="🔹-Secondary-Color" fill="#D0D0D0"></path>
                        <path d="M12,15.45 C11.18,14.2 10.14,13.11 8.94,12.25 C8.81,12.16 8.67,12.09 8.54,11.99 C8.67,12.08 8.81,12.16 8.93,12.24 C6.98,10.83 4.59,10 2,10 C2,15.32 5.36,19.82 10.03,21.49 C10.66,21.72 11.32,21.89 12,22 C12.68,21.88 13.33,21.71 13.97,21.49 C18.64,19.82 22,15.32 22,10 C17.82,10 14.15,12.17 12,15.45 Z M13.32,19.6 C12.88,19.75 12.44,19.87 11.99,19.97 C11.55,19.88 11.12,19.76 10.71,19.61 C7.42,18.43 5.01,15.62 4.26,12.26 C5.36,12.52 6.41,12.97 7.38,13.59 L7.36,13.6 C7.49,13.69 7.62,13.78 7.75,13.85 L7.82,13.89 C8.81,14.61 9.66,15.5 10.33,16.54 L12,19.1 L13.67,16.55 C14.36,15.5 15.22,14.6 16.2,13.89 L16.27,13.84 C16.36,13.79 16.45,13.73 16.54,13.67 L16.53,13.65 C17.51,13 18.6,12.52 19.74,12.25 C18.99,15.62 16.59,18.43 13.32,19.6 Z M15.49,9.63 C15.31,6.84 14.18,4.12 12.06,2 C9.92,4.14 8.74,6.86 8.51,9.63 C9.79,10.31 10.97,11.19 12,12.26 C13.03,11.2 14.21,10.32 15.49,9.63 Z M12.05,5.19 C12.68,6.22 13.12,7.37 13.35,8.57 C12.88,8.87 12.44,9.2 12.01,9.55 C11.59,9.21 11.14,8.88 10.68,8.58 C10.93,7.38 11.39,6.23 12.05,5.19 Z" id="🔹-Primary-Color" fill="#1D1D1D"></path>
                        <path d="M8.99,12.28 C8.97,12.27 8.95,12.25 8.94,12.24 C8.94,12.24 8.95,12.24 8.95,12.25 C8.96,12.26 8.97,12.27 8.99,12.28 Z" id="Path" fill="#000000" opacity="0.3"></path>
                    </g>
                </g>
            </g>
        </g>
    </g>
</svg>