<?xml version="1.0" encoding="UTF-8"?>
<svg width="22px" height="22px" viewBox="0 0 22 22" version="1.1" xmlns="http://www.w3.org/2000/svg" xmlns:xlink="http://www.w3.org/1999/xlink">
    <!-- Generator: Sketch 52.5 (67469) - http://www.bohemiancoding.com/sketch -->
    <title>speaker_notes_off</title>
    <desc>Created with Sketch.</desc>
    <g id="Icons" stroke="none" stroke-width="1" fill="none" fill-rule="evenodd">
        <g id="Rounded" transform="translate(-608.000000, -464.000000)">
            <g id="Action" transform="translate(100.000000, 100.000000)">
                <g id="-Round-/-Action-/-speaker_notes_off" transform="translate(508.000000, 362.000000)">
                    <g transform="translate(0.000000, 0.000000)">
                        <polygon id="Path" points="0 0 24 0 24 24 0 24"></polygon>
                        <path d="M1.91,2.36 C1.56,2.01 0.99,2.01 0.64,2.36 C0.29,2.71 0.29,3.28 0.64,3.63 L2.02,5.01 L2,22 L6,18 L15,18 L20.09,23.09 C20.44,23.44 21.01,23.44 21.36,23.09 C21.71,22.74 21.71,22.17 21.36,21.82 L1.91,2.36 Z M7,14 C6.45,14 6,13.55 6,13 C6,12.45 6.45,12 7,12 C7.55,12 8,12.45 8,13 C8,13.55 7.55,14 7,14 Z M7,11 C6.45,11 6,10.55 6,10 C6,9.45 6.45,9 7,9 C7.55,9 8,9.45 8,10 C8,10.55 7.55,11 7,11 Z M20,2 L4.08,2 L11.08,9 L17,9 C17.55,9 18,9.45 18,10 C18,10.55 17.55,11 17,11 L13.08,11 L20.07,17.99 C21.14,17.95 22,17.08 22,16 L22,4 C22,2.9 21.1,2 20,2 Z M17,8 L11,8 C10.45,8 10,7.55 10,7 C10,6.45 10.45,6 11,6 L17,6 C17.55,6 18,6.45 18,7 C18,7.55 17.55,8 17,8 Z" id="🔹Icon-Color" fill="#1D1D1D"></path>
                    </g>
                </g>
            </g>
        </g>
    </g>
</svg>