<?xml version="1.0" encoding="UTF-8"?>
<svg width="20px" height="20px" viewBox="0 0 20 20" version="1.1" xmlns="http://www.w3.org/2000/svg" xmlns:xlink="http://www.w3.org/1999/xlink">
    <!-- Generator: Sketch 52.5 (67469) - http://www.bohemiancoding.com/sketch -->
    <title>speaker_notes</title>
    <desc>Created with Sketch.</desc>
    <g id="Icons" stroke="none" stroke-width="1" fill="none" fill-rule="evenodd">
        <g id="Outlined" transform="translate(-136.000000, -464.000000)">
            <g id="Action" transform="translate(100.000000, 100.000000)">
                <g id="Outlined-/-Action-/-speaker_notes" transform="translate(34.000000, 362.000000)">
                    <g>
                        <polygon id="Path" points="0 0 24 0 24 24 0 24"></polygon>
                        <path d="M20,2 L4,2 C2.9,2 2.01,2.9 2.01,4 L2,22 L6,18 L20,18 C21.1,18 22,17.1 22,16 L22,4 C22,2.9 21.1,2 20,2 Z M20,16 L5.17,16 L4.58,16.59 L4,17.17 L4,4 L20,4 L20,16 Z M6,12 L8,12 L8,14 L6,14 L6,12 Z M6,9 L8,9 L8,11 L6,11 L6,9 Z M6,6 L8,6 L8,8 L6,8 L6,6 Z M10,12 L15,12 L15,14 L10,14 L10,12 Z M10,9 L18,9 L18,11 L10,11 L10,9 Z M10,6 L18,6 L18,8 L10,8 L10,6 Z" id="🔹-Icon-Color" fill="#1D1D1D"></path>
                    </g>
                </g>
            </g>
        </g>
    </g>
</svg>