<?xml version="1.0" encoding="UTF-8"?>
<svg width="22px" height="20px" viewBox="0 0 22 20" version="1.1" xmlns="http://www.w3.org/2000/svg" xmlns:xlink="http://www.w3.org/1999/xlink">
    <!-- Generator: Sketch 52.5 (67469) - http://www.bohemiancoding.com/sketch -->
    <title>style</title>
    <desc>Created with Sketch.</desc>
    <g id="Icons" stroke="none" stroke-width="1" fill="none" fill-rule="evenodd">
        <g id="Outlined" transform="translate(-747.000000, -2902.000000)">
            <g id="Image" transform="translate(100.000000, 2626.000000)">
                <g id="Outlined-/-Image-/-style" transform="translate(646.000000, 274.000000)">
                    <g>
                        <polygon id="Path" points="0 0 24 0 24 24 0 24"></polygon>
                        <path d="M2.53,19.65 C1.52,19.23 1.03,18.06 1.44,17.04 L3.87,11.18 L3.87,20.21 L2.53,19.65 Z M22.03,15.95 C22.45,16.96 21.96,18.13 20.94,18.55 L13.58,21.6 C13.33,21.7 13.07,21.75 12.81,21.75 C12.03,21.74 11.29,21.28 10.98,20.52 L6.02,8.55 C5.91,8.29 5.86,8.02 5.87,7.75 C5.89,6.98 6.35,6.26 7.1,5.95 L14.47,2.9 C14.73,2.79 15,2.75 15.26,2.75 C16.03,2.77 16.76,3.23 17.07,3.98 L22.03,15.95 Z M12.83,19.75 L20.18,16.7 L15.23,4.75 L15.22,4.75 L7.87,7.79 L12.83,19.75 Z M11,10 C10.4477153,10 10,9.55228475 10,9 C10,8.44771525 10.4477153,8 11,8 C11.5522847,8 12,8.44771525 12,9 C12,9.55228475 11.5522847,10 11,10 Z M5.88,19.75 L5.88,13.41 L9.33,21.75 L7.88,21.75 C6.78,21.75 5.88,20.85 5.88,19.75 Z" id="🔹-Icon-Color" fill="#1D1D1D"></path>
                    </g>
                </g>
            </g>
        </g>
    </g>
</svg>