<?xml version="1.0" encoding="UTF-8"?>
<svg width="15px" height="17px" viewBox="0 0 15 17" version="1.1" xmlns="http://www.w3.org/2000/svg" xmlns:xlink="http://www.w3.org/1999/xlink">
    <!-- Generator: Sketch 52.5 (67469) - http://www.bohemiancoding.com/sketch -->
    <title>subdirectory_arrow_right</title>
    <desc>Created with Sketch.</desc>
    <g id="Icons" stroke="none" stroke-width="1" fill="none" fill-rule="evenodd">
        <g id="Rounded" transform="translate(-716.000000, -3436.000000)">
            <g id="Navigation" transform="translate(100.000000, 3378.000000)">
                <g id="-Round-/-Navigation-/-subdirectory_arrow_right" transform="translate(612.000000, 54.000000)">
                    <g transform="translate(0.000000, 0.000000)">
                        <polygon id="Path" opacity="0.87" points="24 24 0 24 0 0 24 0"></polygon>
                        <path d="M18.29,15.71 L13.71,20.29 C13.32,20.68 12.68,20.68 12.29,20.29 C11.9,19.9 11.9,19.26 12.29,18.87 L15.17,16 L5,16 C4.45,16 4,15.55 4,15 L4,5 C4,4.45 4.45,4 5,4 C5.55,4 6,4.45 6,5 L6,14 L15.17,14 L12.29,11.13 C11.9,10.74 11.9,10.1 12.29,9.71 C12.68,9.32 13.32,9.32 13.71,9.71 L18.29,14.29 C18.68,14.68 18.68,15.32 18.29,15.71 Z" id="🔹-Icon-Color" fill="#1D1D1D"></path>
                    </g>
                </g>
            </g>
        </g>
    </g>
</svg>