<?xml version="1.0" encoding="UTF-8"?>
<svg width="20px" height="16px" viewBox="0 0 20 16" version="1.1" xmlns="http://www.w3.org/2000/svg" xmlns:xlink="http://www.w3.org/1999/xlink">
    <!-- Generator: Sketch 52.5 (67469) - http://www.bohemiancoding.com/sketch -->
    <title>subtitles</title>
    <desc>Created with Sketch.</desc>
    <g id="Icons" stroke="none" stroke-width="1" fill="none" fill-rule="evenodd">
        <g id="Rounded" transform="translate(-170.000000, -1042.000000)">
            <g id="AV" transform="translate(100.000000, 852.000000)">
                <g id="-Round-/-AV-/-subtitles" transform="translate(68.000000, 186.000000)">
                    <g>
                        <rect id="Rectangle-Copy-76" x="0" y="0" width="24" height="24"></rect>
                        <path d="M20,4 L4,4 C2.9,4 2,4.9 2,6 L2,18 C2,19.1 2.9,20 4,20 L20,20 C21.1,20 22,19.1 22,18 L22,6 C22,4.9 21.1,4 20,4 Z M5,12 L7,12 C7.55,12 8,12.45 8,13 C8,13.55 7.55,14 7,14 L5,14 C4.45,14 4,13.55 4,13 C4,12.45 4.45,12 5,12 Z M13,18 L5,18 C4.45,18 4,17.55 4,17 C4,16.45 4.45,16 5,16 L13,16 C13.55,16 14,16.45 14,17 C14,17.55 13.55,18 13,18 Z M19,18 L17,18 C16.45,18 16,17.55 16,17 C16,16.45 16.45,16 17,16 L19,16 C19.55,16 20,16.45 20,17 C20,17.55 19.55,18 19,18 Z M19,14 L11,14 C10.45,14 10,13.55 10,13 C10,12.45 10.45,12 11,12 L19,12 C19.55,12 20,12.45 20,13 C20,13.55 19.55,14 19,14 Z" id="🔹Icon-Color" fill="#1D1D1D"></path>
                    </g>
                </g>
            </g>
        </g>
    </g>
</svg>