<?xml version="1.0" encoding="UTF-8"?>
<svg width="20px" height="20px" viewBox="0 0 20 20" version="1.1" xmlns="http://www.w3.org/2000/svg" xmlns:xlink="http://www.w3.org/1999/xlink">
    <!-- Generator: Sketch 52.5 (67469) - http://www.bohemiancoding.com/sketch -->
    <title>supervised_user_circle</title>
    <desc>Created with Sketch.</desc>
    <g id="Icons" stroke="none" stroke-width="1" fill="none" fill-rule="evenodd">
        <g id="Outlined" transform="translate(-748.000000, -420.000000)">
            <g id="Action" transform="translate(100.000000, 100.000000)">
                <g id="Outlined-/-Action-/-supervised_user_circle" transform="translate(646.000000, 318.000000)">
                    <g>
                        <polygon id="Path" points="0 0 24 0 24 24 0 24"></polygon>
                        <path d="M12.5,10 C12.5,8.35 11.15,7 9.5,7 C7.85,7 6.5,8.35 6.5,10 C6.5,11.65 7.85,13 9.5,13 C11.15,13 12.5,11.65 12.5,10 Z M9.5,11 C8.95,11 8.5,10.55 8.5,10 C8.5,9.45 8.95,9 9.5,9 C10.05,9 10.5,9.45 10.5,10 C10.5,10.55 10.05,11 9.5,11 Z M16,13 C17.11,13 18,12.11 18,11 C18,9.89 17.11,9 16,9 C14.89,9 13.99,9.89 14,11 C14,12.11 14.89,13 16,13 Z M11.99,2.01 C6.47,2.01 1.99,6.49 1.99,12.01 C1.99,17.53 6.47,22.01 11.99,22.01 C17.51,22.01 21.99,17.53 21.99,12.01 C21.99,6.49 17.51,2.01 11.99,2.01 Z M5.84,17.12 C6.52,16.58 8.11,16.01 9.5,16.01 C9.57,16.01 9.65,16.02 9.73,16.02 C9.97,15.38 10.4,14.73 11.03,14.16 C10.47,14.06 9.94,14 9.5,14 C8.2,14 6.11,14.45 4.77,15.43 C4.27,14.39 3.99,13.23 3.99,12 C3.99,7.59 7.58,4 11.99,4 C16.4,4 19.99,7.59 19.99,12 C19.99,13.2 19.72,14.34 19.24,15.37 C18.24,14.78 16.88,14.5 16,14.5 C14.48,14.5 11.5,15.31 11.5,17.2 L11.5,19.98 C9.23,19.85 7.21,18.77 5.84,17.12 Z" id="🔹-Icon-Color" fill="#1D1D1D"></path>
                    </g>
                </g>
            </g>
        </g>
    </g>
</svg>