<?xml version="1.0" encoding="UTF-8"?>
<svg width="20px" height="15px" viewBox="0 0 20 15" version="1.1" xmlns="http://www.w3.org/2000/svg" xmlns:xlink="http://www.w3.org/1999/xlink">
    <!-- Generator: Sketch 52.5 (67469) - http://www.bohemiancoding.com/sketch -->
    <title>swap_calls</title>
    <desc>Created with Sketch.</desc>
    <g id="Icons" stroke="none" stroke-width="1" fill="none" fill-rule="evenodd">
        <g id="Outlined" transform="translate(-272.000000, -1308.000000)">
            <g id="Communication" transform="translate(100.000000, 1162.000000)">
                <g id="Outlined-/-Communication-/-swap_calls" transform="translate(170.000000, 142.000000)">
                    <g>
                        <polygon id="Path" points="0 0 24 0 24 24 0 24"></polygon>
                        <path d="M18,4 L14,8 L17,8 L17,15 C17,16.1 16.1,17 15,17 C13.9,17 13,16.1 13,15 L13,8 C13,5.79 11.21,4 9,4 C6.79,4 5,5.79 5,8 L5,15 L2,15 L6,19 L10,15 L7,15 L7,8 C7,6.9 7.9,6 9,6 C10.1,6 11,6.9 11,8 L11,15 C11,17.21 12.79,19 15,19 C17.21,19 19,17.21 19,15 L19,8 L22,8 L18,4 Z" id="🔹-Icon-Color" fill="#1D1D1D"></path>
                    </g>
                </g>
            </g>
        </g>
    </g>
</svg>