<?xml version="1.0" encoding="UTF-8"?>
<svg width="20px" height="14px" viewBox="0 0 20 14" version="1.1" xmlns="http://www.w3.org/2000/svg" xmlns:xlink="http://www.w3.org/1999/xlink">
    <!-- Generator: Sketch 52.5 (67469) - http://www.bohemiancoding.com/sketch -->
    <title>switch_video</title>
    <desc>Created with Sketch.</desc>
    <g id="Icons" stroke="none" stroke-width="1" fill="none" fill-rule="evenodd">
        <g id="Outlined" transform="translate(-680.000000, -2905.000000)">
            <g id="Image" transform="translate(100.000000, 2626.000000)">
                <g id="Outlined-/-Image-/-switch_video" transform="translate(578.000000, 274.000000)">
                    <g>
                        <polygon id="Path" points="0 0 24 0 24 24 0 24"></polygon>
                        <path d="M8,13 L12,13 L12,15 L15,12 L12,9 L12,11 L8,11 L8,9 L5,12 L8,15 L8,13 Z M18,9.5 L18,6 C18,5.45 17.55,5 17,5 L3,5 C2.45,5 2,5.45 2,6 L2,18 C2,18.55 2.45,19 3,19 L17,19 C17.55,19 18,18.55 18,18 L18,14.5 L22,18.5 L22,5.5 L18,9.5 Z M16,17 L4,17 L4,7 L16,7 L16,17 Z" id="🔹-Icon-Color" fill="#1D1D1D"></path>
                    </g>
                </g>
            </g>
        </g>
    </g>
</svg>