<?xml version="1.0" encoding="UTF-8"?>
<svg width="17px" height="17px" viewBox="0 0 17 17" version="1.1" xmlns="http://www.w3.org/2000/svg" xmlns:xlink="http://www.w3.org/1999/xlink">
    <!-- Generator: Sketch 52.5 (67469) - http://www.bohemiancoding.com/sketch -->
    <title>sync_disabled</title>
    <desc>Created with Sketch.</desc>
    <g id="Icons" stroke="none" stroke-width="1" fill="none" fill-rule="evenodd">
        <g id="Rounded" transform="translate(-919.000000, -3702.000000)">
            <g id="Notification" transform="translate(100.000000, 3600.000000)">
                <g id="-Round-/-Notification-/-sync_disabled" transform="translate(816.000000, 98.000000)">
                    <g>
                        <path d="M0,0 L24,0 L24,24 L0,24 L0,0 Z M0,0 L24,0 L24,24 L0,24 L0,0 Z" id="Shape"></path>
                        <path d="M10,5.74 L10,5.55 C10,4.87 9.29,4.44 8.68,4.73 C8.49,4.82 8.32,4.93 8.14,5.03 L9.6,6.49 C9.84,6.31 10,6.04 10,5.74 Z M20,12 C20,9.79 19.09,7.8 17.64,6.36 L19.15,4.85 C19.46,4.54 19.24,4 18.79,4 L14,4 L14,8.79 C14,9.24 14.54,9.46 14.85,9.14 L16.24,7.75 C17.32,8.85 18,10.34 18,12 C18,12.85 17.82,13.66 17.5,14.39 L18.98,15.87 C19.62,14.72 20,13.41 20,12 Z M3.57,4.7 C3.18,5.09 3.18,5.72 3.57,6.11 L5.22,7.76 C4.45,9 4,10.44 4,12 C4,14.21 4.91,16.2 6.36,17.64 L4.85,19.15 C4.54,19.46 4.76,20 5.21,20 L9.5,20 C9.78,20 10,19.78 10,19.5 L10,15.21 C10,14.76 9.46,14.54 9.15,14.86 L7.76,16.25 C6.68,15.15 6,13.66 6,12 C6,11 6.26,10.07 6.69,9.24 L14.76,17.31 C14.75,17.33 14.75,17.33 14.75,17.35 C14.32,17.47 14,17.83 14,18.26 L14,18.44 C14,19.12 14.71,19.55 15.32,19.26 C15.63,19.12 15.93,18.95 16.22,18.77 L18.09,20.64 C18.48,21.03 19.11,21.03 19.5,20.64 C19.89,20.25 19.89,19.62 19.5,19.23 L4.98,4.7 C4.59,4.31 3.96,4.31 3.57,4.7 Z" id="🔹-Icon-Color" fill="#1D1D1D"></path>
                    </g>
                </g>
            </g>
        </g>
    </g>
</svg>