<?xml version="1.0" encoding="UTF-8"?>
<svg width="19px" height="24px" viewBox="0 0 19 24" version="1.1" xmlns="http://www.w3.org/2000/svg" xmlns:xlink="http://www.w3.org/1999/xlink">
    <!-- Generator: Sketch 52.5 (67469) - http://www.bohemiancoding.com/sketch -->
    <title>tablet_mac</title>
    <desc>Created with Sketch.</desc>
    <g id="Icons" stroke="none" stroke-width="1" fill="none" fill-rule="evenodd">
        <g id="Rounded" transform="translate(-817.000000, -2502.000000)">
            <g id="Hardware" transform="translate(100.000000, 2404.000000)">
                <g id="-Round-/-Hardware-/-tablet_mac" transform="translate(714.000000, 98.000000)">
                    <g>
                        <rect id="Rectangle-Copy-133" x="0" y="0" width="24" height="24"></rect>
                        <path d="M19.5,0 L5.5,0 C4.12,0 3,1.12 3,2.5 L3,21.5 C3,22.88 4.12,24 5.5,24 L19.5,24 C20.88,24 22,22.88 22,21.5 L22,2.5 C22,1.12 20.88,0 19.5,0 Z M12.5,23 C11.67,23 11,22.33 11,21.5 C11,20.67 11.67,20 12.5,20 C13.33,20 14,20.67 14,21.5 C14,22.33 13.33,23 12.5,23 Z M20,19 L5,19 L5,3 L20,3 L20,19 Z" id="🔹-Icon-Color" fill="#1D1D1D"></path>
                    </g>
                </g>
            </g>
        </g>
    </g>
</svg>