<?xml version="1.0" encoding="UTF-8"?>
<svg width="17px" height="22px" viewBox="0 0 17 22" version="1.1" xmlns="http://www.w3.org/2000/svg" xmlns:xlink="http://www.w3.org/1999/xlink">
    <!-- Generator: Sketch 52.5 (67469) - http://www.bohemiancoding.com/sketch -->
    <title>tap_and_play</title>
    <desc>Created with Sketch.</desc>
    <g id="Icons" stroke="none" stroke-width="1" fill="none" fill-rule="evenodd">
        <g id="Two-Tone" transform="translate(-782.000000, -3699.000000)">
            <g id="Notification" transform="translate(100.000000, 3600.000000)">
                <g id="Two-Tone-/-Notification-/-tap_and_play" transform="translate(680.000000, 98.000000)">
                    <g>
                        <polygon id="Path" points="0 0 24 0 24 24 0 24"></polygon>
                        <path d="M2,16 L2,18 C4.76,18 7,20.24 7,23 L9,23 C9,19.13 5.87,16 2,16 Z M2,20 L2,23 L5,23 C5,21.34 3.66,20 2,20 Z M2,12 L2,14 C6.97,14 11,18.03 11,23 L13,23 C13,16.92 8.08,12 2,12 Z M17,1.01 L7,1 C5.9,1 5,1.9 5,3 L5,10.37 C5.69,10.53 6.36,10.74 7,11.01 L7,5 L17,5 L17,18 L13.97,18 C14.49,19.25 14.81,20.59 14.92,22 L17,22 C18.1,22 19,21.1 19,20 L19,3 C19,1.9 18.1,1.01 17,1.01 Z" id="🔹-Primary-Color" fill="#1D1D1D"></path>
                    </g>
                </g>
            </g>
        </g>
    </g>
</svg>