<?xml version="1.0" encoding="UTF-8"?>
<svg width="20px" height="20px" viewBox="0 0 20 20" version="1.1" xmlns="http://www.w3.org/2000/svg" xmlns:xlink="http://www.w3.org/1999/xlink">
    <!-- Generator: Sketch 52.5 (67469) - http://www.bohemiancoding.com/sketch -->
    <title>textsms</title>
    <desc>Created with Sketch.</desc>
    <g id="Icons" stroke="none" stroke-width="1" fill="none" fill-rule="evenodd">
        <g id="Outlined" transform="translate(-238.000000, -1306.000000)">
            <g id="Communication" transform="translate(100.000000, 1162.000000)">
                <g id="Outlined-/-Communication-/-textsms" transform="translate(136.000000, 142.000000)">
                    <g>
                        <polygon id="Path" points="0 0 24 0 24 24 0 24"></polygon>
                        <path d="M20,2 L4,2 C2.9,2 2,2.9 2,4 L2,22 L6,18 L20,18 C21.1,18 22,17.1 22,16 L22,4 C22,2.9 21.1,2 20,2 Z M20,16 L6,16 L4,18 L4,4 L20,4 L20,16 Z M7,9 L9,9 L9,11 L7,11 L7,9 Z M11,9 L13,9 L13,11 L11,11 L11,9 Z M15,9 L17,9 L17,11 L15,11 L15,9 Z" id="🔹-Icon-Color" fill="#1D1D1D"></path>
                    </g>
                </g>
            </g>
        </g>
    </g>
</svg>