<?xml version="1.0" encoding="UTF-8"?>
<svg width="24px" height="24px" viewBox="0 0 24 24" version="1.1" xmlns="http://www.w3.org/2000/svg" xmlns:xlink="http://www.w3.org/1999/xlink">
    <!-- Generator: Sketch 52.5 (67469) - http://www.bohemiancoding.com/sketch -->
    <title>thumbs_up_down</title>
    <desc>Created with Sketch.</desc>
    <g id="Icons" stroke="none" stroke-width="1" fill="none" fill-rule="evenodd">
        <g id="Rounded" transform="translate(-644.000000, -506.000000)">
            <g id="Action" transform="translate(100.000000, 100.000000)">
                <g id="-Round-/-Action-/-thumbs_up_down" transform="translate(544.000000, 406.000000)">
                    <g>
                        <path d="M0,0 L24,0 L24,24 L0,24 L0,0 Z M0,0 L24,0 L24,24 L0,24 L0,0 Z" id="Shape"></path>
                        <path d="M10.06,5 L5.82,5 L6.48,1.82 C6.56,1.45 6.44,1.07 6.18,0.8 C5.74,0.36 5.03,0.36 4.6,0.8 L0.6,4.8 C0.21,5.17 0,5.68 0,6.21 L0,12 C0,13.1 0.9,14 2,14 L7.92,14 C8.72,14 9.44,13.52 9.76,12.79 L11.9,7.79 C12.46,6.47 11.49,5 10.06,5 Z M22,10 L16.08,10 C15.28,10 14.56,10.48 14.24,11.21 L12.1,16.21 C11.54,17.53 12.5,19 13.94,19 L18.18,19 L17.52,22.18 C17.44,22.55 17.56,22.93 17.82,23.2 C18.26,23.64 18.97,23.64 19.4,23.2 L23.4,19.2 C23.78,18.82 23.99,18.32 23.99,17.79 L23.99,12 C24,10.9 23.1,10 22,10 Z" id="🔹Icon-Color" fill="#1D1D1D"></path>
                    </g>
                </g>
            </g>
        </g>
    </g>
</svg>