<?xml version="1.0" encoding="UTF-8"?>
<svg width="22px" height="20px" viewBox="0 0 22 20" version="1.1" xmlns="http://www.w3.org/2000/svg" xmlns:xlink="http://www.w3.org/1999/xlink">
    <!-- Generator: Sketch 52.5 (67469) - http://www.bohemiancoding.com/sketch -->
    <title>thumb_down_alt</title>
    <desc>Created with Sketch.</desc>
    <g id="Icons" stroke="none" stroke-width="1" fill="none" fill-rule="evenodd">
        <g id="Two-Tone" transform="translate(-101.000000, -4145.000000)">
            <g id="Social" transform="translate(100.000000, 4044.000000)">
                <g id="-Two-Tone-/-Social-/-thumb_down_alt" transform="translate(0.000000, 98.000000)">
                    <g id="Two-Tone-/-Social-/-thumb_down_alt">
                        <polygon id="Path" opacity="0.87" points="0 0 24 0 24 24 0 24"></polygon>
                        <polygon id="🔹-Secondary-Color" fill="#D0D0D0" points="3 12 3 14 11.77 14 10.66 19.34 15 15 15 5 6 5"></polygon>
                        <path d="M15,3 L6,3 C5.17,3 4.46,3.5 4.16,4.22 L1.14,11.27 C1.05,11.5 1,11.74 1,12 L1,14 C1,15.1 1.9,16 3,16 L9.31,16 L8.36,20.57 L8.33,20.89 C8.33,21.3 8.5,21.68 8.77,21.95 L9.83,23 L16.41,16.41 C16.78,16.05 17,15.55 17,15 L17,5 C17,3.9 16.1,3 15,3 Z M15,15 L10.66,19.34 L11.77,14 L3,14 L3,12 L6,5 L15,5 L15,15 Z M19,3 L23,3 L23,15 L19,15 L19,3 Z" id="🔹-Primary-Color" fill="#1D1D1D"></path>
                    </g>
                </g>
            </g>
        </g>
    </g>
</svg>