<?xml version="1.0" encoding="UTF-8"?>
<svg width="24px" height="24px" viewBox="0 0 24 24" version="1.1" xmlns="http://www.w3.org/2000/svg" xmlns:xlink="http://www.w3.org/1999/xlink">
    <!-- Generator: Sketch 52.5 (67469) - http://www.bohemiancoding.com/sketch -->
    <title>thumbs_up_down</title>
    <desc>Created with Sketch.</desc>
    <g id="Icons" stroke="none" stroke-width="1" fill="none" fill-rule="evenodd">
        <g id="Outlined" transform="translate(-814.000000, -462.000000)">
            <g id="Action" transform="translate(100.000000, 100.000000)">
                <g id="Outlined-/-Action-/-thumbs_up_down" transform="translate(714.000000, 362.000000)">
                    <g>
                        <path d="M0,0 L24,0 L24,24 L0,24 L0,0 Z M0,0 L24,0 L24,24 L0,24 L0,0 Z" id="Shape"></path>
                        <path d="M12,6 C12,5.45 11.55,5 11,5 L5.82,5 L6.48,1.82 L6.5,1.59 C6.5,1.28 6.37,1 6.17,0.79 L5.38,0 L0.44,4.94 C0.17,5.21 0,5.59 0,6 L0,12.5 C0,13.33 0.67,14 1.5,14 L8.25,14 C8.87,14 9.4,13.62 9.63,13.09 L11.89,7.8 C11.96,7.63 12,7.44 12,7.25 L12,6 Z M10,7.13 L7.92,12 L2,12 L2,6.21 L3.93,4.28 L3.36,7 L10,7 L10,7.13 Z M22.5,10 L15.75,10 C15.13,10 14.6,10.38 14.37,10.91 L12.11,16.2 C12.04,16.37 12,16.56 12,16.75 L12,18 C12,18.55 12.45,19 13,19 L18.18,19 L17.52,22.18 L17.5,22.42 C17.5,22.73 17.63,23.01 17.83,23.22 L18.62,24 L23.56,19.06 C23.83,18.79 24,18.41 24,18 L24,11.5 C24,10.67 23.33,10 22.5,10 Z M22,17.79 L20.07,19.72 L20.64,17 L14,17 L14,16.87 L16.08,12 L22,12 L22,17.79 Z" id="🔹-Icon-Color" fill="#1D1D1D"></path>
                    </g>
                </g>
            </g>
        </g>
    </g>
</svg>