<?xml version="1.0" encoding="UTF-8"?>
<svg width="19px" height="21px" viewBox="0 0 19 21" version="1.1" xmlns="http://www.w3.org/2000/svg" xmlns:xlink="http://www.w3.org/1999/xlink">
    <!-- Generator: Sketch 52.5 (67469) - http://www.bohemiancoding.com/sketch -->
    <title>timer</title>
    <desc>Created with Sketch.</desc>
    <g id="Icons" stroke="none" stroke-width="1" fill="none" fill-rule="evenodd">
        <g id="Outlined" transform="translate(-545.000000, -2901.000000)">
            <g id="Image" transform="translate(100.000000, 2626.000000)">
                <g id="Outlined-/-Image-/-timer" transform="translate(442.000000, 274.000000)">
                    <g>
                        <polygon id="Path" points="0 0 24 0 24 24 0 24"></polygon>
                        <path d="M15.07,1.01 L9.07,1.01 L9.07,3.01 L15.07,3.01 L15.07,1.01 Z M11.07,14.01 L13.07,14.01 L13.07,8.01 L11.07,8.01 L11.07,14.01 Z M19.1,7.39 L20.52,5.97 C20.09,5.46 19.62,4.98 19.11,4.56 L17.69,5.98 C16.14,4.74 14.19,4 12.07,4 C7.1,4 3.07,8.03 3.07,13 C3.07,17.97 7.09,22 12.07,22 C17.05,22 21.07,17.97 21.07,13 C21.07,10.89 20.33,8.94 19.1,7.39 Z M12.07,20.01 C8.2,20.01 5.07,16.88 5.07,13.01 C5.07,9.14 8.2,6.01 12.07,6.01 C15.94,6.01 19.07,9.14 19.07,13.01 C19.07,16.88 15.94,20.01 12.07,20.01 Z" id="🔹-Icon-Color" fill="#1D1D1D"></path>
                    </g>
                </g>
            </g>
        </g>
    </g>
</svg>