<?xml version="1.0" encoding="UTF-8"?>
<svg width="19px" height="22px" viewBox="0 0 19 22" version="1.1" xmlns="http://www.w3.org/2000/svg" xmlns:xlink="http://www.w3.org/1999/xlink">
    <!-- Generator: Sketch 52.5 (67469) - http://www.bohemiancoding.com/sketch -->
    <title>timer_off</title>
    <desc>Created with Sketch.</desc>
    <g id="Icons" stroke="none" stroke-width="1" fill="none" fill-rule="evenodd">
        <g id="Rounded" transform="translate(-306.000000, -2725.000000)">
            <g id="Image" transform="translate(100.000000, 2626.000000)">
                <g id="-Round-/-Image-/-timer_off" transform="translate(204.000000, 98.000000)">
                    <g>
                        <polygon id="Path" points="0 0 24 0 24 24 0 24"></polygon>
                        <path d="M10,3 L14,3 C14.55,3 15,2.55 15,2 C15,1.45 14.55,1 14,1 L10,1 C9.45,1 9,1.45 9,2 C9,2.55 9.45,3 10,3 Z M12,8 C11.49,8 11.08,8.39 11.02,8.89 L13,10.86 L13,9 C13,8.45 12.55,8 12,8 Z M12,6 C15.87,6 19,9.13 19,13 C19,14.12 18.73,15.18 18.26,16.12 L19.73,17.59 C20.53,16.25 21,14.68 21,13 C21,10.88 20.26,8.93 19.03,7.39 L19.78,6.64 C20.16,6.26 20.17,5.63 19.78,5.24 L19.77,5.23 C19.38,4.84 18.76,4.85 18.37,5.23 L17.62,5.98 C16.07,4.74 14.12,4 12,4 C10.34,4 8.78,4.48 7.43,5.29 L8.88,6.74 C9.82,6.27 10.88,6 12,6 Z M20.19,20.88 L3.87,4.56 C3.48,4.17 2.85,4.17 2.46,4.56 C2.07,4.95 2.07,5.58 2.46,5.97 L4.53,8.04 C3.61,9.42 3.05,11.03 3,12.76 C2.87,17.84 6.94,22 12,22 C13.84,22 15.55,21.45 16.98,20.5 L18.77,22.29 C19.16,22.68 19.79,22.68 20.18,22.29 C20.58,21.9 20.58,21.27 20.19,20.88 Z M12,20 C8.13,20 5,16.87 5,13 C5,11.71 5.35,10.51 5.96,9.48 L15.53,19.05 C14.49,19.65 13.29,20 12,20 Z" id="🔹-Icon-Color" fill="#1D1D1D"></path>
                    </g>
                </g>
            </g>
        </g>
    </g>
</svg>