<?xml version="1.0" encoding="UTF-8"?>
<svg width="24px" height="14px" viewBox="0 0 24 14" version="1.1" xmlns="http://www.w3.org/2000/svg" xmlns:xlink="http://www.w3.org/1999/xlink">
    <!-- Generator: Sketch 52.5 (67469) - http://www.bohemiancoding.com/sketch -->
    <title>timer_10</title>
    <desc>Created with Sketch.</desc>
    <g id="Icons" stroke="none" stroke-width="1" fill="none" fill-rule="evenodd">
        <g id="Outlined" transform="translate(-100.000000, -2949.000000)">
            <g id="Image" transform="translate(100.000000, 2626.000000)">
                <g id="Outlined-/-Image-/-timer_10" transform="translate(0.000000, 318.000000)">
                    <g>
                        <polygon id="Path" points="0.923076923 0 23.0769231 0 23.0769231 24 0.923076923 24"></polygon>
                        <path d="M0.913846154,7.72 L0.913846154,9.4 L3.68307692,8.4 L3.68307692,18 L5.52923077,18 L5.52923077,6 L5.29846154,6 L0.913846154,7.72 Z M22.8646154,14.37 C22.7353846,14.09 22.5415385,13.84 22.2830769,13.63 C22.0246154,13.42 21.72,13.24 21.3507692,13.1 C20.9815385,12.96 20.5661538,12.83 20.1046154,12.72 C19.7815385,12.65 19.5138462,12.57 19.3015385,12.49 C19.0892308,12.41 18.9230769,12.33 18.7938462,12.24 C18.6646154,12.15 18.5815385,12.05 18.5353846,11.94 C18.4892308,11.83 18.4615385,11.7 18.4615385,11.55 C18.4615385,11.41 18.4892308,11.27 18.5446154,11.14 C18.6,11.01 18.6830769,10.89 18.7938462,10.8 C18.9046154,10.7 19.0430769,10.62 19.2092308,10.56 C19.3753846,10.5 19.5784615,10.47 19.8,10.47 C20.0307692,10.47 20.2338462,10.51 20.4092308,10.58 C20.5846154,10.65 20.7323077,10.75 20.8523077,10.87 C20.9723077,10.99 21.0553846,11.13 21.12,11.29 C21.1753846,11.45 21.2123077,11.61 21.2123077,11.78 L23.0123077,11.78 C23.0123077,11.39 22.9384615,11.03 22.7907692,10.69 C22.6430769,10.35 22.4307692,10.06 22.1538462,9.81 C21.8769231,9.56 21.5446154,9.37 21.1476923,9.22 C20.7507692,9.07 20.2984615,9 19.8,9 C19.3292308,9 18.8953846,9.07 18.5169231,9.21 C18.1384615,9.35 17.8061538,9.54 17.5384615,9.78 C17.2707692,10.02 17.0676923,10.3 16.92,10.62 C16.7723077,10.94 16.7076923,11.27 16.7076923,11.63 C16.7076923,11.99 16.7815385,12.32 16.92,12.59 C17.0584615,12.87 17.2523077,13.11 17.5107692,13.32 C17.76,13.53 18.0646154,13.7 18.4153846,13.85 C18.7661538,13.99 19.1630769,14.11 19.5876923,14.21 C19.9476923,14.29 20.2430769,14.38 20.4646154,14.47 C20.6861538,14.56 20.8615385,14.66 20.9907692,14.76 C21.1107692,14.86 21.1938462,14.98 21.24,15.1 C21.2861538,15.22 21.3046154,15.35 21.3046154,15.49 C21.3046154,15.81 21.1846154,16.06 20.9353846,16.26 C20.6861538,16.46 20.3261538,16.55 19.8553846,16.55 C19.6523077,16.55 19.4584615,16.53 19.2646154,16.47 C19.0707692,16.42 18.8953846,16.34 18.7476923,16.23 C18.5907692,16.12 18.4707692,15.97 18.3692308,15.79 C18.2676923,15.61 18.2123077,15.38 18.2030769,15.12 L16.4584615,15.12 C16.4584615,15.48 16.5323077,15.83 16.68,16.17 C16.8276923,16.51 17.04,16.82 17.3261538,17.1 C17.6123077,17.37 17.9630769,17.59 18.3876923,17.76 C18.8123077,17.93 19.2923077,18.01 19.8461538,18.01 C20.3353846,18.01 20.7784615,17.95 21.1753846,17.82 C21.5723077,17.69 21.9138462,17.51 22.2,17.28 C22.4861538,17.05 22.6984615,16.77 22.8553846,16.45 C23.0123077,16.13 23.0861538,15.78 23.0861538,15.39 C23.0676923,14.99 23.0030769,14.65 22.8646154,14.37 Z M13.6707692,7.05 C13.3569231,6.65 12.9784615,6.35 12.5353846,6.17 C12.1015385,5.99 11.6030769,5.9 11.0676923,5.9 C10.5323077,5.9 10.0430769,5.99 9.6,6.17 C9.15692308,6.35 8.77846154,6.64 8.46461538,7.05 C8.15076923,7.46 7.91076923,7.98 7.73538462,8.64 C7.56923077,9.29 7.47692308,10.09 7.47692308,11.03 L7.47692308,12.95 C7.47692308,13.89 7.56,14.69 7.73538462,15.34 C7.91076923,16 8.15076923,16.53 8.47384615,16.94 C8.78769231,17.35 9.16615385,17.65 9.60923077,17.83 C10.0523077,18.01 10.5415385,18.11 11.0769231,18.11 C11.6215385,18.11 12.1107692,18.02 12.5446154,17.83 C12.9876923,17.65 13.3569231,17.35 13.6707692,16.94 C13.9846154,16.53 14.2246154,16 14.3907692,15.34 C14.5569231,14.69 14.6492308,13.89 14.6492308,12.95 L14.6492308,11.03 C14.6492308,10.09 14.5661538,9.29 14.3907692,8.64 C14.2246154,7.98 13.9846154,7.45 13.6707692,7.05 Z M12.8215385,13.22 C12.8215385,13.82 12.7846154,14.33 12.7107692,14.75 C12.6369231,15.17 12.5261538,15.51 12.3784615,15.77 C12.2307692,16.03 12.0461538,16.22 11.8338462,16.34 C11.6215385,16.46 11.3630769,16.52 11.0769231,16.52 C10.8,16.52 10.5415385,16.46 10.32,16.34 C10.0984615,16.22 9.91384615,16.03 9.76615385,15.77 C9.61846154,15.51 9.49846154,15.17 9.41538462,14.75 C9.33230769,14.33 9.29538462,13.82 9.29538462,13.22 L9.29538462,10.72 C9.29538462,10.12 9.33230769,9.61 9.41538462,9.2 C9.49846154,8.79 9.60923077,8.46 9.76615385,8.2 C9.91384615,7.95 10.0984615,7.77 10.32,7.65 C10.5415385,7.54 10.7907692,7.48 11.0676923,7.48 C11.3538462,7.48 11.6030769,7.54 11.8153846,7.65 C12.0369231,7.76 12.2215385,7.94 12.3692308,8.2 C12.5169231,8.45 12.6369231,8.78 12.7107692,9.19 C12.7846154,9.6 12.8307692,10.11 12.8307692,10.71 L12.8307692,13.22 L12.8215385,13.22 Z" id="🔹-Icon-Color" fill="#1D1D1D"></path>
                    </g>
                </g>
            </g>
        </g>
    </g>
</svg>