<?xml version="1.0" encoding="UTF-8"?>
<svg width="18px" height="14px" viewBox="0 0 18 14" version="1.1" xmlns="http://www.w3.org/2000/svg" xmlns:xlink="http://www.w3.org/1999/xlink">
    <!-- Generator: Sketch 52.5 (67469) - http://www.bohemiancoding.com/sketch -->
    <title>timer_3</title>
    <desc>Created with Sketch.</desc>
    <g id="Icons" stroke="none" stroke-width="1" fill="none" fill-rule="evenodd">
        <g id="Outlined" transform="translate(-512.000000, -2905.000000)">
            <g id="Image" transform="translate(100.000000, 2626.000000)">
                <g id="Outlined-/-Image-/-timer_3" transform="translate(408.000000, 274.000000)">
                    <g>
                        <polygon id="Path" points="0 0 24 0 24 24 0 24"></polygon>
                        <path d="M11.61,12.97 C11.45,12.73 11.25,12.51 10.99,12.32 C10.74,12.13 10.43,11.97 10.06,11.84 C10.36,11.7 10.63,11.54 10.86,11.34 C11.09,11.14 11.28,10.93 11.43,10.7 C11.58,10.47 11.7,10.24 11.77,9.99 C11.85,9.75 11.88,9.5 11.88,9.26 C11.88,8.71 11.79,8.22 11.6,7.8 C11.42,7.38 11.16,7.03 10.82,6.74 C10.49,6.46 10.09,6.24 9.62,6.1 C9.17,5.97 8.65,5.9 8.09,5.9 C7.54,5.9 7.03,5.98 6.57,6.14 C6.1,6.31 5.7,6.54 5.37,6.83 C5.04,7.12 4.77,7.46 4.59,7.86 C4.39,8.25 4.3,8.69 4.3,9.15 L6.28,9.15 C6.28,8.89 6.33,8.66 6.42,8.46 C6.51,8.26 6.64,8.08 6.8,7.94 C6.97,7.8 7.16,7.69 7.38,7.61 C7.6,7.53 7.84,7.49 8.11,7.49 C8.72,7.49 9.17,7.65 9.47,7.96 C9.77,8.27 9.91,8.71 9.91,9.28 C9.91,9.55 9.87,9.8 9.79,10.02 C9.71,10.24 9.58,10.43 9.41,10.59 C9.24,10.75 9.03,10.87 8.78,10.96 C8.53,11.05 8.23,11.09 7.89,11.09 L6.72,11.09 L6.72,12.66 L7.9,12.66 C8.24,12.66 8.54,12.7 8.81,12.77 C9.08,12.85 9.31,12.96 9.5,13.12 C9.69,13.28 9.84,13.48 9.94,13.73 C10.04,13.97 10.1,14.27 10.1,14.6 C10.1,15.22 9.92,15.69 9.57,16.02 C9.22,16.35 8.73,16.51 8.12,16.51 C7.83,16.51 7.56,16.47 7.32,16.38 C7.08,16.3 6.88,16.18 6.71,16.02 C6.54,15.86 6.41,15.68 6.32,15.46 C6.23,15.24 6.18,15 6.18,14.74 L4.19,14.74 C4.19,15.29 4.3,15.77 4.51,16.19 C4.72,16.61 5.01,16.96 5.37,17.24 C5.73,17.52 6.14,17.73 6.61,17.87 C7.08,18.01 7.57,18.08 8.09,18.08 C8.66,18.08 9.18,18 9.67,17.85 C10.16,17.7 10.58,17.47 10.93,17.17 C11.29,16.87 11.57,16.51 11.77,16.07 C11.97,15.64 12.07,15.14 12.07,14.59 C12.07,14.3 12.03,14.01 11.96,13.73 C11.88,13.48 11.77,13.22 11.61,12.97 Z M20.87,14.37 C20.73,14.09 20.52,13.84 20.24,13.63 C19.96,13.42 19.63,13.24 19.23,13.1 C18.83,12.96 18.38,12.83 17.88,12.72 C17.53,12.65 17.24,12.57 17.01,12.49 C16.78,12.41 16.6,12.33 16.46,12.24 C16.32,12.15 16.23,12.05 16.18,11.94 C16.13,11.83 16.1,11.7 16.1,11.55 C16.1,11.4 16.13,11.27 16.19,11.14 C16.25,11.01 16.34,10.89 16.46,10.8 C16.58,10.7 16.73,10.62 16.91,10.56 C17.09,10.5 17.31,10.47 17.55,10.47 C17.8,10.47 18.02,10.51 18.21,10.58 C18.4,10.65 18.56,10.75 18.69,10.87 C18.82,10.99 18.91,11.13 18.98,11.29 C19.04,11.45 19.08,11.61 19.08,11.78 L21.03,11.78 C21.03,11.39 20.95,11.03 20.79,10.69 C20.63,10.35 20.4,10.06 20.1,9.81 C19.8,9.56 19.44,9.37 19.01,9.22 C18.58,9.07 18.09,9 17.55,9 C17.04,9 16.57,9.07 16.16,9.21 C15.75,9.35 15.39,9.54 15.1,9.78 C14.81,10.02 14.59,10.3 14.43,10.62 C14.27,10.94 14.2,11.27 14.2,11.63 C14.2,11.99 14.28,12.31 14.43,12.59 C14.58,12.87 14.8,13.11 15.07,13.32 C15.34,13.53 15.67,13.7 16.05,13.85 C16.43,13.99 16.86,14.11 17.32,14.21 C17.71,14.29 18.03,14.38 18.27,14.47 C18.51,14.56 18.7,14.66 18.84,14.76 C18.97,14.86 19.06,14.98 19.11,15.1 C19.16,15.22 19.18,15.35 19.18,15.49 C19.18,15.81 19.05,16.06 18.78,16.26 C18.51,16.46 18.12,16.55 17.61,16.55 C17.39,16.55 17.18,16.53 16.97,16.47 C16.76,16.42 16.57,16.34 16.41,16.23 C16.24,16.12 16.11,15.97 16,15.79 C15.89,15.61 15.83,15.38 15.82,15.12 L13.93,15.12 C13.93,15.48 14.01,15.83 14.17,16.17 C14.33,16.51 14.56,16.82 14.87,17.1 C15.18,17.37 15.56,17.59 16.02,17.76 C16.48,17.93 17,18.01 17.6,18.01 C18.13,18.01 18.61,17.95 19.04,17.82 C19.47,17.69 19.84,17.51 20.15,17.28 C20.46,17.05 20.69,16.77 20.86,16.45 C21.03,16.13 21.11,15.78 21.11,15.39 C21.09,14.99 21.02,14.65 20.87,14.37 Z" id="🔹-Icon-Color" fill="#1D1D1D"></path>
                    </g>
                </g>
            </g>
        </g>
    </g>
</svg>