<?xml version="1.0" encoding="UTF-8"?>
<svg width="22px" height="12px" viewBox="0 0 22 12" version="1.1" xmlns="http://www.w3.org/2000/svg" xmlns:xlink="http://www.w3.org/1999/xlink">
    <!-- Generator: Sketch 52.5 (67469) - http://www.bohemiancoding.com/sketch -->
    <title>toggle_off</title>
    <desc>Created with Sketch.</desc>
    <g id="Icons" stroke="none" stroke-width="1" fill="none" fill-rule="evenodd">
        <g id="Outlined" transform="translate(-169.000000, -4326.000000)">
            <g id="Toggle" transform="translate(100.000000, 4266.000000)">
                <g id="Outlined-/-Toggle-/-toggle_off" transform="translate(68.000000, 54.000000)">
                    <g>
                        <polygon id="Path" points="0 0 24 0 24 24 0 24"></polygon>
                        <path d="M17,6 L7,6 C3.69,6 1,8.69 1,12 C1,15.31 3.69,18 7,18 L17,18 C20.31,18 23,15.31 23,12 C23,8.69 20.31,6 17,6 Z M17,16 L7,16 C4.79,16 3,14.21 3,12 C3,9.79 4.79,8 7,8 L17,8 C19.21,8 21,9.79 21,12 C21,14.21 19.21,16 17,16 Z M7,9 C5.34,9 4,10.34 4,12 C4,13.66 5.34,15 7,15 C8.66,15 10,13.66 10,12 C10,10.34 8.66,9 7,9 Z" id="🔹-Icon-Color" fill="#1D1D1D"></path>
                    </g>
                </g>
            </g>
        </g>
    </g>
</svg>