<?xml version="1.0" encoding="UTF-8"?>
<svg width="20px" height="21px" viewBox="0 0 20 21" version="1.1" xmlns="http://www.w3.org/2000/svg" xmlns:xlink="http://www.w3.org/1999/xlink">
    <!-- Generator: Sketch 52.5 (67469) - http://www.bohemiancoding.com/sketch -->
    <title>track_changes</title>
    <desc>Created with Sketch.</desc>
    <g id="Icons" stroke="none" stroke-width="1" fill="none" fill-rule="evenodd">
        <g id="Rounded" transform="translate(-510.000000, -508.000000)">
            <g id="Action" transform="translate(100.000000, 100.000000)">
                <g id="-Round-/-Action-/-track_changes" transform="translate(408.000000, 406.000000)">
                    <g>
                        <polygon id="Path" points="0 0 24 0 24 24 0 24"></polygon>
                        <path d="M18.32,5.68 C17.96,6.04 17.93,6.6 18.25,7 C19.7,8.82 20.46,11.31 19.78,13.92 C18.99,16.97 16.6,19.25 13.57,19.86 C8.47,20.87 4,16.93 4,12 C4,7.92 7.05,4.56 11,4.07 L11,6.09 C7.87,6.62 5.57,9.55 6.07,12.92 C6.46,15.53 8.63,17.63 11.25,17.95 C14.89,18.4 18,15.56 18,12 C18,10.75 17.62,9.6 16.97,8.64 C16.63,8.14 15.9,8.11 15.47,8.53 L15.46,8.54 C15.12,8.88 15.09,9.41 15.35,9.81 C15.95,10.73 16.19,11.91 15.84,13.13 C15.45,14.5 14.3,15.59 12.9,15.9 C10.3,16.47 8,14.51 8,12 C8,10.14 9.28,8.59 11,8.14 L11,10.28 C10.4,10.63 10,11.26 10,12 C10,13.1 10.9,14 12,14 C13.1,14 14,13.1 14,12 C14,11.26 13.6,10.62 13,10.28 L13,2.71 C13,2.32 12.68,2 12.29,2 C6.93,1.8 2.31,6.06 2.02,11.4 C1.66,17.95 7.43,23.22 14.03,21.8 C17.91,20.97 20.91,18 21.78,14.13 C22.49,10.97 21.58,7.97 19.81,5.76 C19.44,5.29 18.74,5.26 18.32,5.68 Z" id="🔹Icon-Color" fill="#1D1D1D"></path>
                    </g>
                </g>
            </g>
        </g>
    </g>
</svg>