<?xml version="1.0" encoding="UTF-8"?>
<svg width="16px" height="18px" viewBox="0 0 16 18" version="1.1" xmlns="http://www.w3.org/2000/svg" xmlns:xlink="http://www.w3.org/1999/xlink">
    <!-- Generator: Sketch 52.5 (67469) - http://www.bohemiancoding.com/sketch -->
    <title>traffic</title>
    <desc>Created with Sketch.</desc>
    <g id="Icons" stroke="none" stroke-width="1" fill="none" fill-rule="evenodd">
        <g id="Outlined" transform="translate(-308.000000, -3213.000000)">
            <g id="Maps" transform="translate(100.000000, 3068.000000)">
                <g id="Outlined-/-Maps-/-traffic" transform="translate(204.000000, 142.000000)">
                    <g>
                        <polygon id="Path" points="0 0 24 0 24 24 0 24"></polygon>
                        <path d="M20,10 L17,10 L17,8.86 C18.72,8.41 20,6.86 20,5 L17,5 L17,4 C17,3.45 16.55,3 16,3 L8,3 C7.45,3 7,3.45 7,4 L7,5 L4,5 C4,6.86 5.28,8.41 7,8.86 L7,10 L4,10 C4,11.86 5.28,13.41 7,13.86 L7,15 L4,15 C4,16.86 5.28,18.41 7,18.86 L7,20 C7,20.55 7.45,21 8,21 L16,21 C16.55,21 17,20.55 17,20 L17,18.86 C18.72,18.41 20,16.86 20,15 L17,15 L17,13.86 C18.72,13.41 20,11.86 20,10 Z M15,19 L9,19 L9,5 L15,5 L15,19 Z M12,18 C12.83,18 13.5,17.33 13.5,16.5 C13.5,15.67 12.83,15 12,15 C11.17,15 10.5,15.67 10.5,16.5 C10.5,17.33 11.17,18 12,18 Z M12,13.5 C12.83,13.5 13.5,12.83 13.5,12 C13.5,11.17 12.83,10.5 12,10.5 C11.17,10.5 10.5,11.17 10.5,12 C10.5,12.83 11.17,13.5 12,13.5 Z M12,9 C12.83,9 13.5,8.33 13.5,7.5 C13.5,6.67 12.83,6 12,6 C11.17,6 10.5,6.67 10.5,7.5 C10.5,8.33 11.17,9 12,9 Z" id="🔹-Icon-Color" fill="#1D1D1D"></path>
                    </g>
                </g>
            </g>
        </g>
    </g>
</svg>