<?xml version="1.0" encoding="UTF-8"?>
<svg width="20px" height="22px" viewBox="0 0 20 22" version="1.1" xmlns="http://www.w3.org/2000/svg" xmlns:xlink="http://www.w3.org/1999/xlink">
    <!-- Generator: Sketch 52.5 (67469) - http://www.bohemiancoding.com/sketch -->
    <title>transform</title>
    <desc>Created with Sketch.</desc>
    <g id="Icons" stroke="none" stroke-width="1" fill="none" fill-rule="evenodd">
        <g id="Outlined" transform="translate(-408.000000, -2901.000000)">
            <g id="Image" transform="translate(100.000000, 2626.000000)">
                <g id="Outlined-/-Image-/-transform" transform="translate(306.000000, 274.000000)">
                    <g>
                        <polygon id="Path" points="0 0 24 0 24 24 0 24"></polygon>
                        <path d="M22,18 L22,16 L8,16 L8,4 L10,4 L7,1 L4,4 L6,4 L6,6 L2,6 L2,8 L6,8 L6,16 C6,17.1 6.9,18 8,18 L16,18 L16,20 L14,20 L17,23 L20,20 L18,20 L18,18 L22,18 Z M10,8 L16,8 L16,14 L18,14 L18,8 C18,6.9 17.1,6 16,6 L10,6 L10,8 Z" id="🔹-Icon-Color" fill="#1D1D1D"></path>
                    </g>
                </g>
            </g>
        </g>
    </g>
</svg>