<?xml version="1.0" encoding="UTF-8"?>
<svg width="19px" height="17px" viewBox="0 0 19 17" version="1.1" xmlns="http://www.w3.org/2000/svg" xmlns:xlink="http://www.w3.org/1999/xlink">
    <!-- Generator: Sketch 52.5 (67469) - http://www.bohemiancoding.com/sketch -->
    <title>unsubscribe</title>
    <desc>Created with Sketch.</desc>
    <g id="Icons" stroke="none" stroke-width="1" fill="none" fill-rule="evenodd">
        <g id="Outlined" transform="translate(-205.000000, -1307.000000)">
            <g id="Communication" transform="translate(100.000000, 1162.000000)">
                <g id="Outlined-/-Communication-/-unsubscribe" transform="translate(102.000000, 142.000000)">
                    <g>
                        <polygon id="Path" points="0 0 24 0 24 24 0 24"></polygon>
                        <path d="M20.99,14.04 L20.99,5 C20.99,3.9 20.09,3 18.99,3 L5,3 C3.9,3 3,3.9 3,5 L3,15 C3,16.1 3.9,17 5,17 L15.05,17 C15.33,18.92 17.15,20.35 19.23,19.93 C20.57,19.66 21.66,18.56 21.93,17.22 C22.18,15.98 21.77,14.83 20.99,14.04 Z M18.99,5 L12,8.5 L5,5 L18.99,5 Z M15.35,15 L5,15 L5,7 L12,10.5 L19,7 L19,13.05 C18.84,13.03 18.67,13 18.5,13 C17.11,13 15.91,13.82 15.35,15 Z M20.5,17 L16.5,17 L16.5,16 L20.5,16 L20.5,17 Z" id="🔹-Icon-Color" fill="#1D1D1D"></path>
                    </g>
                </g>
            </g>
        </g>
    </g>
</svg>