<?xml version="1.0" encoding="UTF-8"?>
<svg width="18px" height="18px" viewBox="0 0 18 18" version="1.1" xmlns="http://www.w3.org/2000/svg" xmlns:xlink="http://www.w3.org/1999/xlink">
    <!-- Generator: Sketch 52.5 (67469) - http://www.bohemiancoding.com/sketch -->
    <title>update</title>
    <desc>Created with Sketch.</desc>
    <g id="Icons" stroke="none" stroke-width="1" fill="none" fill-rule="evenodd">
        <g id="Rounded" transform="translate(-475.000000, -553.000000)">
            <g id="Action" transform="translate(100.000000, 100.000000)">
                <g id="-Round-/-Action-/-update" transform="translate(372.000000, 450.000000)">
                    <g>
                        <rect id="Rectangle-Copy-25" x="0" y="0" width="24" height="24"></rect>
                        <path d="M11,8.75 L11,12.43 C11,12.78 11.19,13.11 11.49,13.29 L14.61,15.14 C14.97,15.35 15.43,15.23 15.64,14.88 C15.85,14.52 15.74,14.06 15.38,13.85 L12.51,12.14 L12.51,8.74 C12.5,8.34 12.16,8 11.75,8 C11.34,8 11,8.34 11,8.75 Z M21,9.5 L21,4.21 C21,3.76 20.46,3.54 20.15,3.86 L18.37,5.64 C16.56,3.83 13.98,2.79 11.16,3.04 C6.97,3.42 3.52,6.79 3.06,10.98 C2.46,16.4 6.69,21 12,21 C16.59,21 20.38,17.56 20.93,13.12 C21,12.52 20.53,12 19.93,12 C19.43,12 19.01,12.37 18.95,12.86 C18.52,16.35 15.51,19.05 11.9,19 C8.19,18.95 5.06,15.82 5,12.1 C4.94,8.2 8.11,5 12,5 C13.93,5 15.68,5.79 16.95,7.05 L14.86,9.14 C14.54,9.46 14.76,10 15.21,10 L20.5,10 C20.78,10 21,9.78 21,9.5 Z" id="🔹Icon-Color" fill="#1D1D1D"></path>
                    </g>
                </g>
            </g>
        </g>
    </g>
</svg>