<?xml version="1.0" encoding="UTF-8"?>
<svg width="22px" height="12px" viewBox="0 0 22 12" version="1.1" xmlns="http://www.w3.org/2000/svg" xmlns:xlink="http://www.w3.org/1999/xlink">
    <!-- Generator: Sketch 52.5 (67469) - http://www.bohemiancoding.com/sketch -->
    <title>videogame_asset</title>
    <desc>Created with Sketch.</desc>
    <g id="Icons" stroke="none" stroke-width="1" fill="none" fill-rule="evenodd">
        <g id="Outlined" transform="translate(-169.000000, -2508.000000)">
            <g id="Hardware" transform="translate(100.000000, 2404.000000)">
                <g id="Outlined-/-Hardware-/-videogame_asset" transform="translate(68.000000, 98.000000)">
                    <g>
                        <polygon id="Path" points="0 0 24 0 24 24 0 24"></polygon>
                        <path d="M21,6 C22.1,6 23,6.9 23,8 L23,16 C23,17.1 22.1,18 21,18 L3,18 C1.9,18 1,17.1 1,16 L1,8 C1,6.9 1.9,6 3,6 L21,6 Z M21,16 L21,8 L3,8 L3,16 L21,16 Z M6,15 L6,13 L4,13 L4,11 L6,11 L6,9 L8,9 L8,11 L10,11 L10,13 L8,13 L8,15 L6,15 Z M14.5,15 C13.6715729,15 13,14.3284271 13,13.5 C13,12.6715729 13.6715729,12 14.5,12 C15.3284271,12 16,12.6715729 16,13.5 C16,14.3284271 15.3284271,15 14.5,15 Z M18.5,12 C17.6715729,12 17,11.3284271 17,10.5 C17,9.67157288 17.6715729,9 18.5,9 C19.3284271,9 20,9.67157288 20,10.5 C20,11.3284271 19.3284271,12 18.5,12 Z" id="🔹-Icon-Color" fill="#1D1D1D"></path>
                    </g>
                </g>
            </g>
        </g>
    </g>
</svg>