<?xml version="1.0" encoding="UTF-8"?>
<svg width="18px" height="12px" viewBox="0 0 18 12" version="1.1" xmlns="http://www.w3.org/2000/svg" xmlns:xlink="http://www.w3.org/1999/xlink">
    <!-- Generator: Sketch 52.5 (67469) - http://www.bohemiancoding.com/sketch -->
    <title>video_call</title>
    <desc>Created with Sketch.</desc>
    <g id="Icons" stroke="none" stroke-width="1" fill="none" fill-rule="evenodd">
        <g id="Rounded" transform="translate(-239.000000, -1044.000000)">
            <g id="AV" transform="translate(100.000000, 852.000000)">
                <g id="-Round-/-AV-/-video_call" transform="translate(136.000000, 186.000000)">
                    <g>
                        <rect id="Rectangle-Copy-78" x="0" y="0" width="24" height="24"></rect>
                        <path d="M17,10.5 L17,7 C17,6.45 16.55,6 16,6 L4,6 C3.45,6 3,6.45 3,7 L3,17 C3,17.55 3.45,18 4,18 L16,18 C16.55,18 17,17.55 17,17 L17,13.5 L19.29,15.79 C19.92,16.42 21,15.97 21,15.08 L21,8.91 C21,8.02 19.92,7.57 19.29,8.2 L17,10.5 Z M13,13 L11,13 L11,15 C11,15.55 10.55,16 10,16 C9.45,16 9,15.55 9,15 L9,13 L7,13 C6.45,13 6,12.55 6,12 C6,11.45 6.45,11 7,11 L9,11 L9,9 C9,8.45 9.45,8 10,8 C10.55,8 11,8.45 11,9 L11,11 L13,11 C13.55,11 14,11.45 14,12 C14,12.55 13.55,13 13,13 Z" id="🔹Icon-Color" fill="#1D1D1D"></path>
                    </g>
                </g>
            </g>
        </g>
    </g>
</svg>