<?xml version="1.0" encoding="UTF-8"?>
<svg width="19px" height="14px" viewBox="0 0 19 14" version="1.1" xmlns="http://www.w3.org/2000/svg" xmlns:xlink="http://www.w3.org/1999/xlink">
    <!-- Generator: Sketch 52.5 (67469) - http://www.bohemiancoding.com/sketch -->
    <title>view_comfy</title>
    <desc>Created with Sketch.</desc>
    <g id="Icons" stroke="none" stroke-width="1" fill="none" fill-rule="evenodd">
        <g id="Two-Tone" transform="translate(-273.000000, -2905.000000)">
            <g id="Image" transform="translate(100.000000, 2626.000000)">
                <g id="Two-Tone-/-Image-/-view_comfy" transform="translate(170.000000, 274.000000)">
                    <g>
                        <polygon id="Path" points="0 0 24 0 24 24 0 24"></polygon>
                        <path d="M9.25,11 L11.5,11 L11.5,13 L9.25,13 L9.25,11 Z M9.25,15 L11.5,15 L11.5,17 L9.25,17 L9.25,15 Z M9.25,7 L11.5,7 L11.5,9 L9.25,9 L9.25,7 Z M13.5,15 L15.75,15 L15.75,17 L13.5,17 L13.5,15 Z M5,15 L7.25,15 L7.25,17 L5,17 L5,15 Z M5,11 L7.25,11 L7.25,13 L5,13 L5,11 Z M5,7 L7.25,7 L7.25,9 L5,9 L5,7 Z M17.75,7 L20,7 L20,9 L17.75,9 L17.75,7 Z M13.5,11 L15.75,11 L15.75,13 L13.5,13 L13.5,11 Z M13.5,7 L15.75,7 L15.75,9 L13.5,9 L13.5,7 Z M17.75,15 L20,15 L20,17 L17.75,17 L17.75,15 Z M17.75,11 L20,11 L20,13 L17.75,13 L17.75,11 Z" id="🔹-Secondary-Color" fill="#D0D0D0"></path>
                        <path d="M3,5 L3,19 L22,19 L22,5 L3,5 Z M7.25,17 L5,17 L5,15 L7.25,15 L7.25,17 Z M7.25,13 L5,13 L5,11 L7.25,11 L7.25,13 Z M7.25,9 L5,9 L5,7 L7.25,7 L7.25,9 Z M11.5,17 L9.25,17 L9.25,15 L11.5,15 L11.5,17 Z M11.5,13 L9.25,13 L9.25,11 L11.5,11 L11.5,13 Z M11.5,9 L9.25,9 L9.25,7 L11.5,7 L11.5,9 Z M15.75,17 L13.5,17 L13.5,15 L15.75,15 L15.75,17 Z M15.75,13 L13.5,13 L13.5,11 L15.75,11 L15.75,13 Z M15.75,9 L13.5,9 L13.5,7 L15.75,7 L15.75,9 Z M20,17 L17.75,17 L17.75,15 L20,15 L20,17 Z M20,13 L17.75,13 L17.75,11 L20,11 L20,13 Z M20,9 L17.75,9 L17.75,7 L20,7 L20,9 Z" id="🔹-Primary-Color" fill="#1D1D1D"></path>
                    </g>
                </g>
            </g>
        </g>
    </g>
</svg>