<?xml version="1.0" encoding="UTF-8"?>
<svg width="17px" height="13px" viewBox="0 0 17 13" version="1.1" xmlns="http://www.w3.org/2000/svg" xmlns:xlink="http://www.w3.org/1999/xlink">
    <!-- Generator: Sketch 52.5 (67469) - http://www.bohemiancoding.com/sketch -->
    <title>view_column</title>
    <desc>Created with Sketch.</desc>
    <g id="Icons" stroke="none" stroke-width="1" fill="none" fill-rule="evenodd">
        <g id="Rounded" transform="translate(-104.000000, -555.000000)">
            <g id="Action" transform="translate(100.000000, 100.000000)">
                <g id="-Round-/-Action-/-view_column" transform="translate(0.000000, 450.000000)">
                    <g>
                        <polygon id="Path" points="0 0 24 0 24 24 0 24"></polygon>
                        <path d="M11,18 L14,18 C14.55,18 15,17.55 15,17 L15,6 C15,5.45 14.55,5 14,5 L11,5 C10.45,5 10,5.45 10,6 L10,17 C10,17.55 10.45,18 11,18 Z M5,18 L8,18 C8.55,18 9,17.55 9,17 L9,6 C9,5.45 8.55,5 8,5 L5,5 C4.45,5 4,5.45 4,6 L4,17 C4,17.55 4.45,18 5,18 Z M16,6 L16,17 C16,17.55 16.45,18 17,18 L20,18 C20.55,18 21,17.55 21,17 L21,6 C21,5.45 20.55,5 20,5 L17,5 C16.45,5 16,5.45 16,6 Z" id="🔹Icon-Color" fill="#1D1D1D"></path>
                    </g>
                </g>
            </g>
        </g>
    </g>
</svg>