<?xml version="1.0" encoding="UTF-8"?>
<svg width="17px" height="13px" viewBox="0 0 17 13" version="1.1" xmlns="http://www.w3.org/2000/svg" xmlns:xlink="http://www.w3.org/1999/xlink">
    <!-- Generator: Sketch 52.5 (67469) - http://www.bohemiancoding.com/sketch -->
    <title>view_module</title>
    <desc>Created with Sketch.</desc>
    <g id="Icons" stroke="none" stroke-width="1" fill="none" fill-rule="evenodd">
        <g id="Outlined" transform="translate(-104.000000, -555.000000)">
            <g id="Action" transform="translate(100.000000, 100.000000)">
                <g id="Outlined-/-Action-/-view_module" transform="translate(0.000000, 450.000000)">
                    <g>
                        <polygon id="Path" points="0 0 24 0 24 24 0 24"></polygon>
                        <path d="M4,5 L4,18 L21,18 L21,5 L4,5 Z M14,7 L14,10.5 L11,10.5 L11,7 L14,7 Z M6,7 L9,7 L9,10.5 L6,10.5 L6,7 Z M6,16 L6,12.5 L9,12.5 L9,16 L6,16 Z M11,16 L11,12.5 L14,12.5 L14,16 L11,16 Z M19,16 L16,16 L16,12.5 L19,12.5 L19,16 Z M16,10.5 L16,7 L19,7 L19,10.5 L16,10.5 Z" id="🔹-Icon-Color" fill="#1D1D1D"></path>
                    </g>
                </g>
            </g>
        </g>
    </g>
</svg>