<?xml version="1.0" encoding="UTF-8"?>
<svg width="22px" height="18px" viewBox="0 0 22 18" version="1.1" xmlns="http://www.w3.org/2000/svg" xmlns:xlink="http://www.w3.org/1999/xlink">
    <!-- Generator: Sketch 52.5 (67469) - http://www.bohemiancoding.com/sketch -->
    <title>vignette</title>
    <desc>Created with Sketch.</desc>
    <g id="Icons" stroke="none" stroke-width="1" fill="none" fill-rule="evenodd">
        <g id="Two-Tone" transform="translate(-203.000000, -2903.000000)">
            <g id="Image" transform="translate(100.000000, 2626.000000)">
                <g id="Two-Tone-/-Image-/-vignette" transform="translate(102.000000, 274.000000)">
                    <g>
                        <polygon id="Path" points="0 0 24 0 24 24 0 24"></polygon>
                        <path d="M3,19 L21,19 L21,5 L3,5 L3,19 Z M12,6 C16.42,6 20,8.69 20,12 C20,15.31 16.42,18 12,18 C7.58,18 4,15.31 4,12 C4,8.69 7.58,6 12,6 Z" id="🔹-Secondary-Color" fill="#D0D0D0"></path>
                        <path d="M21,3 L3,3 C1.9,3 1,3.9 1,5 L1,19 C1,20.1 1.9,21 3,21 L21,21 C22.1,21 23,20.1 23,19 L23,5 C23,3.9 22.1,3 21,3 Z M21,19 L3,19 L3,5 L21,5 L21,19 Z M12,18 C16.42,18 20,15.31 20,12 C20,8.69 16.42,6 12,6 C7.58,6 4,8.69 4,12 C4,15.31 7.58,18 12,18 Z M12,8 C15.25,8 18,9.83 18,12 C18,14.17 15.25,16 12,16 C8.75,16 6,14.17 6,12 C6,9.83 8.75,8 12,8 Z" id="🔹-Primary-Color" fill="#1D1D1D"></path>
                    </g>
                </g>
            </g>
        </g>
    </g>
</svg>