<?xml version="1.0" encoding="UTF-8"?>
<svg width="22px" height="19px" viewBox="0 0 22 19" version="1.1" xmlns="http://www.w3.org/2000/svg" xmlns:xlink="http://www.w3.org/1999/xlink">
    <!-- Generator: Sketch 52.5 (67469) - http://www.bohemiancoding.com/sketch -->
    <title>voice_over_off</title>
    <desc>Created with Sketch.</desc>
    <g id="Icons" stroke="none" stroke-width="1" fill="none" fill-rule="evenodd">
        <g id="Two-Tone" transform="translate(-339.000000, -508.000000)">
            <g id="Action" transform="translate(100.000000, 100.000000)">
                <g id="Two-Tone-/-Action-/-voice_over_off" transform="translate(238.000000, 406.000000)">
                    <g>
                        <polygon id="Path" points="0 0 24 0 24 24 0 24"></polygon>
                        <path d="M9,17 C6.31,17 3.23,18.28 3,19 L15,19 C14.8,18.29 11.7,17 9,17 Z M7,9 C7,10.1 7.9,11 9,11 C9.22,11 9.42,10.96 9.62,10.89 L7.11,8.38 C7.04,8.58 7,8.78 7,9 Z" id="🔹-Secondary-Color" fill="#D0D0D0"></path>
                        <path d="M16.76,5.36 L15.08,7.05 C15.88,8.18 15.91,9.63 15.17,10.79 L16.87,12.49 C18.77,10.47 18.74,7.51 16.76,5.36 Z M20.07,2 L18.44,3.63 C21.16,6.6 21.2,11.02 18.58,14.19 L20.22,15.83 C23.96,11.94 23.93,5.99 20.07,2 Z M9.43,5.04 L12.96,8.57 C12.76,6.71 11.29,5.24 9.43,5.04 Z M4.41,2.86 L3,4.27 L5.62,6.89 C5.23,7.5 5,8.22 5,9 C5,11.21 6.79,13 9,13 C9.78,13 10.5,12.77 11.11,12.38 L15.51,16.78 C13.74,15.6 10.78,15 9,15 C6.33,15 1,16.34 1,19 L1,21 L17,21 L17,19 C17,18.63 16.89,18.3 16.71,17.98 L19.73,21 L21.14,19.59 L4.41,2.86 Z M3,19 C3.22,18.28 6.31,17 9,17 C11.7,17 14.8,18.29 15,19 L3,19 Z M9,11 C7.9,11 7,10.1 7,9 C7,8.78 7.04,8.58 7.11,8.38 L9.62,10.89 C9.42,10.96 9.22,11 9,11 Z" id="🔹-Primary-Color" fill="#1D1D1D"></path>
                    </g>
                </g>
            </g>
        </g>
    </g>
</svg>