<?xml version="1.0" encoding="UTF-8"?>
<svg width="22px" height="19px" viewBox="0 0 22 19" version="1.1" xmlns="http://www.w3.org/2000/svg" xmlns:xlink="http://www.w3.org/1999/xlink">
    <!-- Generator: Sketch 52.5 (67469) - http://www.bohemiancoding.com/sketch -->
    <title>voice_over_off</title>
    <desc>Created with Sketch.</desc>
    <g id="Icons" stroke="none" stroke-width="1" fill="none" fill-rule="evenodd">
        <g id="Rounded" transform="translate(-917.000000, -508.000000)">
            <g id="Action" transform="translate(100.000000, 100.000000)">
                <g id="-Round-/-Action-/-voice_over_off" transform="translate(816.000000, 406.000000)">
                    <g>
                        <polygon id="Path" points="0 0 24 0 24 24 0 24"></polygon>
                        <path d="M15.72,6.41 C15.37,6.76 15.28,7.29 15.47,7.76 C15.77,8.51 15.79,9.34 15.52,10.1 C15.36,10.56 15.46,11.08 15.81,11.42 C16.41,12.02 17.47,11.89 17.83,11.11 C18.47,9.72 18.43,8.12 17.71,6.7 C17.31,5.95 16.3,5.82 15.72,6.41 Z M19.18,2.89 C18.78,3.29 18.72,3.91 19.05,4.37 C20.98,7.05 21,10.62 19.14,13.44 C18.83,13.9 18.91,14.52 19.3,14.91 C19.81,15.42 20.68,15.37 21.11,14.78 C23.68,11.27 23.63,6.58 20.94,3.01 C20.51,2.45 19.68,2.39 19.18,2.89 Z M9.43,5.04 L12.96,8.57 C12.76,6.71 11.29,5.24 9.43,5.04 Z M3.71,3.56 C3.32,3.95 3.32,4.58 3.71,4.97 L5.62,6.88 C5.06,7.77 4.83,8.89 5.15,10.08 C5.51,11.41 6.59,12.48 7.92,12.85 C9.11,13.18 10.23,12.94 11.12,12.38 L15.52,16.78 C13.74,15.6 10.78,15 9,15 C6.33,15 1,16.34 1,19 L1,20 C1,20.55 1.45,21 2,21 L16,21 C16.55,21 17,20.55 17,20 L17,19 C17,18.63 16.89,18.3 16.71,17.98 L19.02,20.29 C19.41,20.68 20.04,20.68 20.43,20.29 C20.82,19.9 20.82,19.27 20.43,18.88 L5.12,3.56 C4.73,3.17 4.1,3.17 3.71,3.56 Z" id="🔹Icon-Color" fill="#1D1D1D"></path>
                    </g>
                </g>
            </g>
        </g>
    </g>
</svg>