<?xml version="1.0" encoding="UTF-8"?>
<svg width="14px" height="14px" viewBox="0 0 14 14" version="1.1" xmlns="http://www.w3.org/2000/svg" xmlns:xlink="http://www.w3.org/1999/xlink">
    <!-- Generator: Sketch 52.5 (67469) - http://www.bohemiancoding.com/sketch -->
    <title>volume_down</title>
    <desc>Created with Sketch.</desc>
    <g id="Icons" stroke="none" stroke-width="1" fill="none" fill-rule="evenodd">
        <g id="Rounded" transform="translate(-717.000000, -999.000000)">
            <g id="AV" transform="translate(100.000000, 852.000000)">
                <g id="-Round-/-AV-/-volume_down" transform="translate(612.000000, 142.000000)">
                    <g transform="translate(0.000000, 0.000000)">
                        <rect id="Rectangle-Copy-83" x="0" y="0" width="24" height="24"></rect>
                        <path d="M18.5,12 C18.5,10.23 17.48,8.71 16,7.97 L16,16.02 C17.48,15.29 18.5,13.77 18.5,12 Z M5,10 L5,14 C5,14.55 5.45,15 6,15 L9,15 L12.29,18.29 C12.92,18.92 14,18.47 14,17.58 L14,6.41 C14,5.52 12.92,5.07 12.29,5.7 L9,9 L6,9 C5.45,9 5,9.45 5,10 Z" id="🔹Icon-Color" fill="#1D1D1D"></path>
                    </g>
                </g>
            </g>
        </g>
    </g>
</svg>