<?xml version="1.0" encoding="UTF-8"?>
<svg width="22px" height="22px" viewBox="0 0 22 22" version="1.1" xmlns="http://www.w3.org/2000/svg" xmlns:xlink="http://www.w3.org/1999/xlink">
    <!-- Generator: Sketch 52.5 (67469) - http://www.bohemiancoding.com/sketch -->
    <title>vpn_lock</title>
    <desc>Created with Sketch.</desc>
    <g id="Icons" stroke="none" stroke-width="1" fill="none" fill-rule="evenodd">
        <g id="Two-Tone" transform="translate(-747.000000, -3699.000000)">
            <g id="Notification" transform="translate(100.000000, 3600.000000)">
                <g id="Two-Tone-/-Notification-/-vpn_lock" transform="translate(646.000000, 98.000000)">
                    <g>
                        <polygon id="Path" points="0 0 24 0 24 24 0 24"></polygon>
                        <path d="M12,8 L10,8 L10,10 C10,10.55 9.55,11 9,11 L7,11 L7,13 L13,13 C13.55,13 14,13.45 14,14 L14,17 L15,17 C15.9,17 16.64,17.58 16.9,18.39 C18.2,16.97 19,15.08 19,13 C19,12.66 18.96,12.33 18.92,12 L17,12 C15.35,12 14,10.65 14,9 L14,6 C14,7.1 13.1,8 12,8 Z M8,17 L8,16 L3.21,11.21 C3.08,11.79 3,12.38 3,13 C3,17.08 6.05,20.44 10,20.93 L10,19 C8.9,19 8,18.1 8,17 Z" id="🔹-Secondary-Color" fill="#D0D0D0"></path>
                        <path d="M18.92,12 C18.96,12.33 19,12.66 19,13 C19,15.08 18.2,16.97 16.9,18.39 C16.64,17.58 15.9,17 15,17 L14,17 L14,14 C14,13.45 13.55,13 13,13 L7,13 L7,11 L9,11 C9.55,11 10,10.55 10,10 L10,8 L12,8 C13.1,8 14,7.1 14,6 L14,3.46 C13.05,3.16 12.05,3 11,3 C5.48,3 1,7.48 1,13 C1,18.52 5.48,23 11,23 C16.52,23 21,18.52 21,13 C21,12.66 20.98,12.33 20.95,12 L18.92,12 Z M10,20.93 C6.05,20.44 3,17.08 3,13 C3,12.38 3.08,11.79 3.21,11.21 L8,16 L8,17 C8,18.1 8.9,19 10,19 L10,20.93 Z M22,4 L22,3.5 C22,2.12 20.88,1 19.5,1 C18.12,1 17,2.12 17,3.5 L17,4 C16.45,4 16,4.45 16,5 L16,9 C16,9.55 16.45,10 17,10 L22,10 C22.55,10 23,9.55 23,9 L23,5 C23,4.45 22.55,4 22,4 Z M21,4 L18,4 L18,3.5 C18,2.67 18.67,2 19.5,2 C20.33,2 21,2.67 21,3.5 L21,4 Z" id="🔹-Primary-Color" fill="#1D1D1D"></path>
                    </g>
                </g>
            </g>
        </g>
    </g>
</svg>