<?xml version="1.0" encoding="UTF-8"?>
<svg width="20px" height="20px" viewBox="0 0 20 20" version="1.1" xmlns="http://www.w3.org/2000/svg" xmlns:xlink="http://www.w3.org/1999/xlink">
    <!-- Generator: Sketch 52.5 (67469) - http://www.bohemiancoding.com/sketch -->
    <title>wallpaper</title>
    <desc>Created with Sketch.</desc>
    <g id="Icons" stroke="none" stroke-width="1" fill="none" fill-rule="evenodd">
        <g id="Rounded" transform="translate(-884.000000, -1750.000000)">
            <g id="Device" transform="translate(100.000000, 1650.000000)">
                <g id="-Round-/-Device-/-wallpaper" transform="translate(782.000000, 98.000000)">
                    <g transform="translate(0.000000, 0.000000)">
                        <polygon id="Path" points="0 0 24 0 24 24 0 24"></polygon>
                        <path d="M4,5 C4,4.45 4.45,4 5,4 L10,4 C10.55,4 11,3.55 11,3 C11,2.45 10.55,2 10,2 L4,2 C2.9,2 2,2.9 2,4 L2,10 C2,10.55 2.45,11 3,11 C3.55,11 4,10.55 4,10 L4,5 Z M9.61,13.49 L6.65,17.19 C6.39,17.52 6.62,18 7.04,18 L17,18 C17.41,18 17.65,17.53 17.4,17.2 L15.4,14.53 C15.2,14.26 14.8,14.26 14.6,14.53 L12.97,16.71 L10.39,13.49 C10.19,13.24 9.81,13.24 9.61,13.49 Z M17,8.5 C17,7.67 16.33,7 15.5,7 C14.67,7 14,7.67 14,8.5 C14,9.33 14.67,10 15.5,10 C16.33,10 17,9.33 17,8.5 Z M20,2 L14,2 C13.45,2 13,2.45 13,3 C13,3.55 13.45,4 14,4 L19,4 C19.55,4 20,4.45 20,5 L20,10 C20,10.55 20.45,11 21,11 C21.55,11 22,10.55 22,10 L22,4 C22,2.9 21.1,2 20,2 Z M20,19 C20,19.55 19.55,20 19,20 L14,20 C13.45,20 13,20.45 13,21 C13,21.55 13.45,22 14,22 L20,22 C21.1,22 22,21.1 22,20 L22,14 C22,13.45 21.55,13 21,13 C20.45,13 20,13.45 20,14 L20,19 Z M3,13 C2.45,13 2,13.45 2,14 L2,20 C2,21.1 2.9,22 4,22 L10,22 C10.55,22 11,21.55 11,21 C11,20.45 10.55,20 10,20 L5,20 C4.45,20 4,19.55 4,19 L4,14 C4,13.45 3.55,13 3,13 Z" id="🔹Icon-Color" fill="#1D1D1D"></path>
                    </g>
                </g>
            </g>
        </g>
    </g>
</svg>