<?xml version="1.0" encoding="UTF-8"?>
<svg width="22px" height="16px" viewBox="0 0 22 16" version="1.1" xmlns="http://www.w3.org/2000/svg" xmlns:xlink="http://www.w3.org/1999/xlink">
    <!-- Generator: Sketch 52.5 (67469) - http://www.bohemiancoding.com/sketch -->
    <title>warning</title>
    <desc>Created with Sketch.</desc>
    <g id="Icons" stroke="none" stroke-width="1" fill="none" fill-rule="evenodd">
        <g id="Two-Tone" transform="translate(-237.000000, -733.000000)">
            <g id="Alert" transform="translate(100.000000, 674.000000)">
                <g id="Two-Tone-/-Alert-/-warning" transform="translate(137.000000, 57.000000)">
                    <g transform="translate(0.916667, 2.375000)">
                        <path d="M3.18083333,13.4583333 L16.9858333,13.4583333 L10.0833333,3.15875 L3.18083333,13.4583333 Z M11,12.6666667 L9.16666667,12.6666667 L9.16666667,11.0833333 L11,11.0833333 L11,12.6666667 Z M11,9.5 L9.16666667,9.5 L9.16666667,6.33333333 L11,6.33333333 L11,9.5 Z" id="🔹-Secondary-Color" fill="#D0D0D0"></path>
                        <path d="M0,15.0416667 L20.1666667,15.0416667 L10.0833333,0 L0,15.0416667 Z M3.18083333,13.4583333 L10.0833333,3.15875 L16.9858333,13.4583333 L3.18083333,13.4583333 Z M9.16666667,11.0833333 L11,11.0833333 L11,12.6666667 L9.16666667,12.6666667 L9.16666667,11.0833333 Z M9.16666667,6.33333333 L11,6.33333333 L11,9.5 L9.16666667,9.5 L9.16666667,6.33333333 Z" id="🔹-Primary-Color" fill="#1D1D1D"></path>
                    </g>
                </g>
            </g>
        </g>
    </g>
</svg>