<?xml version="1.0" encoding="UTF-8"?>
<svg width="20px" height="18px" viewBox="0 0 20 18" version="1.1" xmlns="http://www.w3.org/2000/svg" xmlns:xlink="http://www.w3.org/1999/xlink">
    <!-- Generator: Sketch 52.5 (67469) - http://www.bohemiancoding.com/sketch -->
    <title>waves</title>
    <desc>Created with Sketch.</desc>
    <g id="Icons" stroke="none" stroke-width="1" fill="none" fill-rule="evenodd">
        <g id="Rounded" transform="translate(-204.000000, -1529.000000)">
            <g id="Content" transform="translate(100.000000, 1428.000000)">
                <g id="-Round-/-Content-/-waves" transform="translate(102.000000, 98.000000)">
                    <g>
                        <polygon id="Path" points="0 0 24 0 24 24 0 24"></polygon>
                        <path d="M17,16.99 C15.65,16.99 14.8,17.41 14.05,17.79 C13.4,18.12 12.87,18.39 12,18.39 C11.1,18.39 10.6,18.14 9.95,17.79 C9.2,17.41 8.38,16.99 7,16.99 C5.62,16.99 4.8,17.41 4.05,17.79 C3.62,18.01 3.24,18.2 2.78,18.31 C2.33,18.41 2,18.77 2,19.22 L2,19.32 C2,19.92 2.56,20.35 3.14,20.23 C3.88,20.08 4.44,19.8 4.95,19.54 C5.6,19.21 6.12,18.94 7,18.94 C7.88,18.94 8.4,19.19 9.05,19.54 C9.8,19.92 10.62,20.34 12,20.34 C13.38,20.34 14.2,19.92 14.95,19.54 C15.6,19.21 16.13,18.94 17,18.94 C17.9,18.94 18.4,19.19 19.05,19.54 C19.57,19.8 20.13,20.09 20.88,20.24 C21.46,20.35 22,19.91 22,19.33 L22,19.24 C22,18.78 21.66,18.42 21.21,18.32 C20.75,18.22 20.38,18.03 19.95,17.8 C19.2,17.41 18.35,16.99 17,16.99 Z M17,12.54 C15.65,12.54 14.8,12.97 14.05,13.34 C13.4,13.66 12.87,13.94 12,13.94 C11.1,13.94 10.6,13.69 9.95,13.34 C9.2,12.96 8.38,12.54 7,12.54 C5.62,12.54 4.8,12.97 4.05,13.34 C3.62,13.55 3.24,13.75 2.77,13.86 C2.33,13.96 2,14.32 2,14.77 L2,14.87 C2,15.46 2.54,15.9 3.12,15.78 C3.87,15.63 4.43,15.34 4.95,15.09 C5.6,14.74 6.1,14.49 7,14.49 C7.9,14.49 8.4,14.74 9.05,15.09 C9.8,15.47 10.62,15.89 12,15.89 C13.38,15.89 14.2,15.46 14.95,15.09 C15.6,14.74 16.1,14.49 17,14.49 C17.9,14.49 18.4,14.74 19.05,15.09 C19.57,15.35 20.13,15.64 20.88,15.79 C21.46,15.9 22,15.46 22,14.87 L22,14.78 C22,14.32 21.66,13.96 21.21,13.86 C20.75,13.76 20.38,13.57 19.95,13.34 C19.2,12.96 18.35,12.54 17,12.54 Z M19.95,4.46 C19.2,4.08 18.37,3.66 17,3.66 C15.63,3.66 14.8,4.08 14.05,4.46 C13.4,4.78 12.87,5.06 12,5.06 C11.1,5.06 10.6,4.81 9.95,4.46 C9.2,4.09 8.38,3.66 7,3.66 C5.62,3.66 4.8,4.08 4.05,4.46 C3.62,4.68 3.24,4.87 2.78,4.98 C2.33,5.08 2,5.44 2,5.89 L2,5.96 C2,6.56 2.54,7 3.12,6.88 C3.87,6.73 4.43,6.44 4.95,6.19 C5.6,5.86 6.12,5.59 7,5.59 C7.88,5.59 8.4,5.84 9.05,6.19 C9.8,6.57 10.62,6.99 12,6.99 C13.38,6.99 14.2,6.56 14.95,6.19 C15.6,5.87 16.13,5.59 17,5.59 C17.9,5.59 18.4,5.84 19.05,6.19 C19.57,6.45 20.13,6.74 20.88,6.89 C21.46,7 22,6.56 22,5.97 L22,5.88 C22,5.42 21.66,5.06 21.21,4.96 C20.75,4.86 20.38,4.68 19.95,4.46 Z M17,8.09 C15.65,8.09 14.8,8.52 14.05,8.89 C13.4,9.24 12.9,9.49 12,9.49 C11.1,9.49 10.6,9.24 9.95,8.89 C9.2,8.51 8.38,8.09 7,8.09 C5.62,8.09 4.8,8.52 4.05,8.89 C3.62,9.12 3.25,9.31 2.79,9.41 C2.34,9.51 2,9.87 2,10.33 L2,10.42 C2,11.01 2.54,11.45 3.12,11.33 C3.87,11.18 4.43,10.89 4.95,10.64 C5.6,10.32 6.13,10.04 7,10.04 C7.87,10.04 8.4,10.29 9.05,10.64 C9.8,11.02 10.62,11.44 12,11.44 C13.38,11.44 14.2,11.01 14.95,10.64 C15.6,10.32 16.13,10.04 17,10.04 C17.9,10.04 18.4,10.29 19.05,10.64 C19.57,10.9 20.13,11.19 20.88,11.34 C21.46,11.45 22,11.01 22,10.43 L22,10.34 C22,9.88 21.66,9.52 21.21,9.42 C20.75,9.32 20.38,9.13 19.95,8.9 C19.2,8.51 18.35,8.09 17,8.09 Z" id="🔹Icon-Color" fill="#1D1D1D"></path>
                    </g>
                </g>
            </g>
        </g>
    </g>
</svg>