<?xml version="1.0" encoding="UTF-8"?>
<svg width="16px" height="22px" viewBox="0 0 16 22" version="1.1" xmlns="http://www.w3.org/2000/svg" xmlns:xlink="http://www.w3.org/1999/xlink">
    <!-- Generator: Sketch 52.5 (67469) - http://www.bohemiancoding.com/sketch -->
    <title>wb_iridescent</title>
    <desc>Created with Sketch.</desc>
    <g id="Icons" stroke="none" stroke-width="1" fill="none" fill-rule="evenodd">
        <g id="Rounded" transform="translate(-818.000000, -2681.000000)">
            <g id="Image" transform="translate(100.000000, 2626.000000)">
                <g id="-Round-/-Image-/-wb_iridescent" transform="translate(714.000000, 54.000000)">
                    <g>
                        <polygon id="Path" points="0 0 24 0 24 24 0 24"></polygon>
                        <path d="M6,15 L18,15 C18.55,15 19,14.55 19,14 L19,10.05 C19,9.5 18.55,9.05 18,9.05 L6,9.05 C5.45,9.05 5,9.5 5,10.05 L5,14 C5,14.55 5.45,15 6,15 Z M11,2 L11,3.05 C11,3.6 11.45,4 12,4 C12.55,4 13,3.6 13,3.05 L13,2 C13,1.45 12.55,1 12,1 C11.45,1 11,1.45 11,2 Z M18.34,4.3 L17.96,4.68 C17.57,5.07 17.57,5.7 17.96,6.09 C18.35,6.48 18.98,6.48 19.37,6.09 L19.75,5.71 C20.14,5.32 20.14,4.69 19.75,4.3 C19.36,3.91 18.73,3.91 18.34,4.3 Z M13,22 L13,21.04 C13,20.49 12.55,20.04 12,20.04 C11.45,20.04 11,20.49 11,21.04 L11,22 C11,22.55 11.45,23 12,23 C12.55,23 13,22.55 13,22 Z M19.74,18.39 L19.35,18 C18.96,17.61 18.33,17.61 17.94,18 C17.55,18.39 17.55,19.02 17.94,19.41 L18.32,19.8 C18.71,20.19 19.34,20.19 19.73,19.8 L19.74,19.79 C20.13,19.41 20.13,18.77 19.74,18.39 Z M4.25,5.71 L4.64,6.1 C5.03,6.49 5.66,6.49 6.05,6.1 C6.44,5.71 6.44,5.08 6.05,4.69 L5.66,4.3 C5.27,3.91 4.64,3.91 4.25,4.3 C3.87,4.69 3.87,5.33 4.25,5.71 Z M5.67,19.79 L6.05,19.41 C6.44,19.02 6.44,18.39 6.05,18 C5.66,17.61 5.03,17.61 4.64,18 L4.26,18.38 C3.87,18.77 3.87,19.4 4.26,19.79 C4.64,20.18 5.28,20.18 5.67,19.79 Z" id="🔹-Icon-Color" fill="#1D1D1D"></path>
                    </g>
                </g>
            </g>
        </g>
    </g>
</svg>