<?xml version="1.0" encoding="UTF-8"?>
<svg width="18px" height="22px" viewBox="0 0 18 22" version="1.1" xmlns="http://www.w3.org/2000/svg" xmlns:xlink="http://www.w3.org/1999/xlink">
    <!-- Generator: Sketch 52.5 (67469) - http://www.bohemiancoding.com/sketch -->
    <title>wb_iridescent</title>
    <desc>Created with Sketch.</desc>
    <g id="Icons" stroke="none" stroke-width="1" fill="none" fill-rule="evenodd">
        <g id="Outlined" transform="translate(-171.000000, -2901.000000)">
            <g id="Image" transform="translate(100.000000, 2626.000000)">
                <g id="Outlined-/-Image-/-wb_iridescent" transform="translate(68.000000, 274.000000)">
                    <g>
                        <polygon id="Path" points="0 0 24 0 24 24 0 24"></polygon>
                        <path d="M5,15 L19,15 L19,9 L5,9 L5,15 Z M7,11 L17,11 L17,13 L7,13 L7,11 Z M11,1 L13,1 L13,4 L11,4 L11,1 Z M20.46,5.01 L19.04,3.6 L17.25,5.39 L18.66,6.8 L20.46,5.01 Z M11,20 L13,20 L13,23 L11,23 L11,20 Z M17.24,18.71 L19.03,20.51 L20.45,19.09 L18.65,17.3 L17.24,18.71 Z M4.96,3.595 L6.748,5.385 L5.34,6.79 L3.553,5.003 L4.96,3.595 Z M3.55,19.08 L4.96,20.5 L6.75,18.7 L5.34,17.29 L3.55,19.08 Z" id="🔹-Icon-Color" fill="#1D1D1D"></path>
                    </g>
                </g>
            </g>
        </g>
    </g>
</svg>