<?xml version="1.0" encoding="UTF-8"?>
<svg width="22px" height="21px" viewBox="0 0 22 21" version="1.1" xmlns="http://www.w3.org/2000/svg" xmlns:xlink="http://www.w3.org/1999/xlink">
    <!-- Generator: Sketch 52.5 (67469) - http://www.bohemiancoding.com/sketch -->
    <title>wb_incandescent</title>
    <desc>Created with Sketch.</desc>
    <g id="Icons" stroke="none" stroke-width="1" fill="none" fill-rule="evenodd">
        <g id="Two-Tone" transform="translate(-305.000000, -2946.000000)">
            <g id="Image" transform="translate(100.000000, 2626.000000)">
                <g id="Two-Tone-/-Image-/-wb_incandescent" transform="translate(204.000000, 318.000000)">
                    <g>
                        <polygon id="Path" points="0 0 24 0 24 24 0 24"></polygon>
                        <path d="M14,8.59 L13,8.01 L13,4.05 L11,4.05 L11,8.01 L10,8.59 C8.76,9.31 8,10.63 8,12.05 C8,14.26 9.79,16.05 12,16.05 C14.21,16.05 16,14.26 16,12.05 C16,10.63 15.23,9.31 14,8.59 Z" id="🔹-Secondary-Color" fill="#D0D0D0"></path>
                        <path d="M3.55,19.09 L4.96,20.5 L6.75,18.7 L5.34,17.29 L3.55,19.09 Z M11,20 L13,20 L13,23 L11,23 L11,20 Z M1,11 L4,11 L4,13 L1,13 L1,11 Z M15,6.86 L15,2.05 L9,2.05 L9,6.86 C7.21,7.9 6,9.83 6,12.05 C6,15.36 8.69,18.05 12,18.05 C15.31,18.05 18,15.36 18,12.05 C18,9.83 16.79,7.9 15,6.86 Z M12,16.05 C9.79,16.05 8,14.26 8,12.05 C8,10.63 8.77,9.31 10,8.59 L11,8.01 L11,4.05 L13,4.05 L13,8.01 L14,8.59 C15.24,9.31 16,10.63 16,12.05 C16,14.26 14.21,16.05 12,16.05 Z M20,11 L23,11 L23,13 L20,13 L20,11 Z M17.24,18.71 L19.03,20.51 L20.44,19.1 L18.64,17.31 L17.24,18.71 Z" id="🔹-Primary-Color" fill="#1D1D1D"></path>
                    </g>
                </g>
            </g>
        </g>
    </g>
</svg>