<?xml version="1.0" encoding="UTF-8"?>
<svg width="22px" height="23px" viewBox="0 0 22 23" version="1.1" xmlns="http://www.w3.org/2000/svg" xmlns:xlink="http://www.w3.org/1999/xlink">
    <!-- Generator: Sketch 52.5 (67469) - http://www.bohemiancoding.com/sketch -->
    <title>wb_sunny</title>
    <desc>Created with Sketch.</desc>
    <g id="Icons" stroke="none" stroke-width="1" fill="none" fill-rule="evenodd">
        <g id="Two-Tone" transform="translate(-237.000000, -2944.000000)">
            <g id="Image" transform="translate(100.000000, 2626.000000)">
                <g id="Two-Tone-/-Image-/-wb_sunny" transform="translate(136.000000, 318.000000)">
                    <g>
                        <polygon id="Path" points="0 0 24 0 24 24 0 24"></polygon>
                        <path d="M12,7.5 C9.79,7.5 8,9.29 8,11.5 C8,13.71 9.79,15.5 12,15.5 C14.21,15.5 16,13.71 16,11.5 C16,9.29 14.21,7.5 12,7.5 Z" id="🔹-Secondary-Color" fill="#D0D0D0"></path>
                        <path d="M5.34,6.25 L6.76,4.84 L4.96,3.05 L3.55,4.46 L5.34,6.25 Z M1,10.5 L4,10.5 L4,12.5 L1,12.5 L1,10.5 Z M11,0.55 L13,0.55 L13,3.5 L11,3.5 L11,0.55 Z M18.66,6.255 L17.25,4.848 L19.04,3.058 L20.446,4.468 L18.66,6.255 Z M17.24,18.16 L19.03,19.96 L20.44,18.55 L18.64,16.76 L17.24,18.16 Z M20,10.5 L23,10.5 L23,12.5 L20,12.5 L20,10.5 Z M12,5.5 C8.69,5.5 6,8.19 6,11.5 C6,14.81 8.69,17.5 12,17.5 C15.31,17.5 18,14.81 18,11.5 C18,8.19 15.31,5.5 12,5.5 Z M12,15.5 C9.79,15.5 8,13.71 8,11.5 C8,9.29 9.79,7.5 12,7.5 C14.21,7.5 16,9.29 16,11.5 C16,13.71 14.21,15.5 12,15.5 Z M11,19.5 L13,19.5 L13,22.45 L11,22.45 L11,19.5 Z M3.55,18.54 L4.96,19.95 L6.75,18.15 L5.34,16.74 L3.55,18.54 Z" id="🔹-Primary-Color" fill="#1D1D1D"></path>
                    </g>
                </g>
            </g>
        </g>
    </g>
</svg>