<?xml version="1.0" encoding="UTF-8"?>
<svg width="22px" height="23px" viewBox="0 0 22 23" version="1.1" xmlns="http://www.w3.org/2000/svg" xmlns:xlink="http://www.w3.org/1999/xlink">
    <!-- Generator: Sketch 52.5 (67469) - http://www.bohemiancoding.com/sketch -->
    <title>wb_sunny</title>
    <desc>Created with Sketch.</desc>
    <g id="Icons" stroke="none" stroke-width="1" fill="none" fill-rule="evenodd">
        <g id="Rounded" transform="translate(-781.000000, -2680.000000)">
            <g id="Image" transform="translate(100.000000, 2626.000000)">
                <g id="-Round-/-Image-/-wb_sunny" transform="translate(680.000000, 54.000000)">
                    <g>
                        <polygon id="Path" points="0 0 24 0 24 24 0 24"></polygon>
                        <path d="M6.05,4.14 L5.66,3.75 C5.27,3.36 4.64,3.37 4.26,3.75 L4.25,3.76 C3.86,4.15 3.86,4.78 4.25,5.16 L4.64,5.55 C5.03,5.94 5.65,5.94 6.04,5.55 L6.05,5.54 C6.44,5.16 6.44,4.52 6.05,4.14 Z M3.01,10.5 L1.99,10.5 C1.44,10.5 1,10.94 1,11.49 L1,11.5 C1,12.05 1.44,12.49 1.99,12.49 L3,12.49 C3.56,12.5 4,12.06 4,11.51 L4,11.5 C4,10.94 3.56,10.5 3.01,10.5 Z M12.01,0.55 L12,0.55 C11.44,0.55 11,0.99 11,1.54 L11,2.5 C11,3.05 11.44,3.49 11.99,3.49 L12,3.49 C12.56,3.5 13,3.06 13,2.51 L13,1.54 C13,0.99 12.56,0.55 12.01,0.55 Z M19.75,3.76 C19.36,3.37 18.73,3.37 18.34,3.75 L17.95,4.14 C17.56,4.53 17.56,5.16 17.95,5.54 L17.96,5.55 C18.35,5.94 18.98,5.94 19.36,5.55 L19.75,5.16 C20.14,4.77 20.14,4.15 19.75,3.76 Z M17.94,18.86 L18.33,19.25 C18.72,19.64 19.35,19.64 19.74,19.25 C20.13,18.86 20.13,18.23 19.74,17.84 L19.35,17.45 C18.96,17.06 18.33,17.07 17.95,17.45 C17.55,17.85 17.55,18.47 17.94,18.86 Z M20,11.49 L20,11.5 C20,12.05 20.44,12.49 20.99,12.49 L22,12.49 C22.55,12.49 22.99,12.05 22.99,11.5 L22.99,11.49 C22.99,10.94 22.55,10.5 22,10.5 L20.99,10.5 C20.44,10.5 20,10.94 20,11.49 Z M12,5.5 C8.69,5.5 6,8.19 6,11.5 C6,14.81 8.69,17.5 12,17.5 C15.31,17.5 18,14.81 18,11.5 C18,8.19 15.31,5.5 12,5.5 Z M11.99,22.45 L12,22.45 C12.55,22.45 12.99,22.01 12.99,21.46 L12.99,20.5 C12.99,19.95 12.55,19.51 12,19.51 L11.99,19.51 C11.44,19.51 11,19.95 11,20.5 L11,21.46 C11,22.01 11.44,22.45 11.99,22.45 Z M4.25,19.24 C4.64,19.63 5.27,19.63 5.66,19.24 L6.05,18.85 C6.44,18.46 6.43,17.83 6.05,17.45 L6.04,17.44 C5.65,17.05 5.02,17.05 4.63,17.44 L4.24,17.83 C3.86,18.23 3.86,18.85 4.25,19.24 Z" id="🔹-Icon-Color" fill="#1D1D1D"></path>
                    </g>
                </g>
            </g>
        </g>
    </g>
</svg>