<?xml version="1.0" encoding="UTF-8"?>
<svg width="20px" height="16px" viewBox="0 0 20 16" version="1.1" xmlns="http://www.w3.org/2000/svg" xmlns:xlink="http://www.w3.org/1999/xlink">
    <!-- Generator: Sketch 52.5 (67469) - http://www.bohemiancoding.com/sketch -->
    <title>web</title>
    <desc>Created with Sketch.</desc>
    <g id="Icons" stroke="none" stroke-width="1" fill="none" fill-rule="evenodd">
        <g id="Rounded" transform="translate(-850.000000, -998.000000)">
            <g id="AV" transform="translate(100.000000, 852.000000)">
                <g id="-Round-/-AV-/-web" transform="translate(748.000000, 142.000000)">
                    <g>
                        <rect id="Rectangle-Copy-87" x="0" y="0" width="24" height="24"></rect>
                        <path d="M20,4 L4,4 C2.9,4 2.01,4.9 2.01,6 L2,18 C2,19.1 2.9,20 4,20 L20,20 C21.1,20 22,19.1 22,18 L22,6 C22,4.9 21.1,4 20,4 Z M4,9 L14.5,9 L14.5,12.5 L4,12.5 L4,9 Z M4,14.5 L14.5,14.5 L14.5,18 L5,18 C4.45,18 4,17.55 4,17 L4,14.5 Z M19,18 L16.5,18 L16.5,9 L20,9 L20,17 C20,17.55 19.55,18 19,18 Z" id="🔹Icon-Color" fill="#1D1D1D"></path>
                    </g>
                </g>
            </g>
        </g>
    </g>
</svg>