<?xml version="1.0" encoding="UTF-8"?>
<svg width="24px" height="16px" viewBox="0 0 24 16" version="1.1" xmlns="http://www.w3.org/2000/svg" xmlns:xlink="http://www.w3.org/1999/xlink">
    <!-- Generator: Sketch 52.5 (67469) - http://www.bohemiancoding.com/sketch -->
    <title>weekend</title>
    <desc>Created with Sketch.</desc>
    <g id="Icons" stroke="none" stroke-width="1" fill="none" fill-rule="evenodd">
        <g id="Two-Tone" transform="translate(-134.000000, -1530.000000)">
            <g id="Content" transform="translate(100.000000, 1428.000000)">
                <g id="Two-Tone-/-Content-/-weekend" transform="translate(34.000000, 98.000000)">
                    <g>
                        <polygon id="Path" points="0 0 24 0 24 24 0 24"></polygon>
                        <path d="M21,11 C20.45,11 20,11.45 20,12 L20,16 L4,16 L4,12 C4,11.45 3.55,11 3,11 C2.45,11 2,11.45 2,12 L2,17 C2,17.55 2.45,18 3,18 L21,18 C21.55,18 22,17.55 22,17 L22,12 C22,11.45 21.55,11 21,11 Z M6,14 L18,14 L18,12 C18,11.12 18.39,10.33 19,9.78 L19,7 C19,6.45 18.55,6 18,6 L6,6 C5.45,6 5,6.45 5,7 L5,9.78 C5.61,10.33 6,11.12 6,12 L6,14 Z" id="🔹-Secondary-Color" fill="#D0D0D0"></path>
                        <path d="M21,9 L21,7 C21,5.35 19.65,4 18,4 L6,4 C4.35,4 3,5.35 3,7 L3,9 C1.35,9 0,10.35 0,12 L0,17 C0,18.65 1.35,20 3,20 L21,20 C22.65,20 24,18.65 24,17 L24,12 C24,10.35 22.65,9 21,9 Z M5,7 C5,6.45 5.45,6 6,6 L18,6 C18.55,6 19,6.45 19,7 L19,9.78 C18.39,10.33 18,11.12 18,12 L18,14 L6,14 L6,12 C6,11.12 5.61,10.33 5,9.78 L5,7 Z M22,17 C22,17.55 21.55,18 21,18 L3,18 C2.45,18 2,17.55 2,17 L2,12 C2,11.45 2.45,11 3,11 C3.55,11 4,11.45 4,12 L4,16 L20,16 L20,12 C20,11.45 20.45,11 21,11 C21.55,11 22,11.45 22,12 L22,17 Z" id="🔹-Primary-Color" fill="#1D1D1D"></path>
                    </g>
                </g>
            </g>
        </g>
    </g>
</svg>