<?xml version="1.0" encoding="UTF-8"?>
<svg width="20px" height="20px" viewBox="0 0 20 20" version="1.1" xmlns="http://www.w3.org/2000/svg" xmlns:xlink="http://www.w3.org/1999/xlink">
    <!-- Generator: Sketch 52.5 (67469) - http://www.bohemiancoding.com/sketch -->
    <title>widgets</title>
    <desc>Created with Sketch.</desc>
    <g id="Icons" stroke="none" stroke-width="1" fill="none" fill-rule="evenodd">
        <g id="Two-Tone" transform="translate(-239.000000, -1837.000000)">
            <g id="Device" transform="translate(100.000000, 1650.000000)">
                <g id="Two-Tone-/-Device-/-widgets" transform="translate(136.000000, 186.000000)">
                    <g>
                        <polygon id="Path" points="0 0 24 0 24 24 0 24"></polygon>
                        <path d="M5,5 L9,5 L9,9 L5,9 L5,5 Z M15,15 L19,15 L19,19 L15,19 L15,15 Z M5,15 L9,15 L9,19 L5,19 L5,15 Z M16.66,4.52 L13.83,7.34 L16.66,10.17 L19.49,7.34 L16.66,4.52 Z" id="🔹-Secondary-Color" fill="#D0D0D0"></path>
                        <path d="M16.66,1.69 L11,7.34 L16.66,13 L22.32,7.34 L16.66,1.69 Z M13.83,7.34 L16.66,4.51 L19.49,7.34 L16.66,10.17 L13.83,7.34 Z M3,3 L3,11 L11,11 L11,3 L3,3 Z M9,9 L5,9 L5,5 L9,5 L9,9 Z M3,21 L11,21 L11,13 L3,13 L3,21 Z M5,15 L9,15 L9,19 L5,19 L5,15 Z M13,13 L13,21 L21,21 L21,13 L13,13 Z M19,19 L15,19 L15,15 L19,15 L19,19 Z" id="🔹-Primary-Color" fill="#1D1D1D"></path>
                    </g>
                </g>
            </g>
        </g>
    </g>
</svg>