<?xml version="1.0" encoding="UTF-8"?>
<svg width="20px" height="19px" viewBox="0 0 20 19" version="1.1" xmlns="http://www.w3.org/2000/svg" xmlns:xlink="http://www.w3.org/1999/xlink">
    <!-- Generator: Sketch 52.5 (67469) - http://www.bohemiancoding.com/sketch -->
    <title>wifi_tethering</title>
    <desc>Created with Sketch.</desc>
    <g id="Icons" stroke="none" stroke-width="1" fill="none" fill-rule="evenodd">
        <g id="Rounded" transform="translate(-136.000000, -1751.000000)">
            <g id="Device" transform="translate(100.000000, 1650.000000)">
                <g id="-Round-/-Device-/-wifi_tethering" transform="translate(34.000000, 98.000000)">
                    <g>
                        <polygon id="Path" points="0 0 24 0 24 24 0 24"></polygon>
                        <path d="M12,11 C10.9,11 10,11.9 10,13 C10,14.1 10.9,15 12,15 C13.1,15 14,14.1 14,13 C14,11.9 13.1,11 12,11 Z M18,13 C18,9.44 14.89,6.6 11.25,7.05 C8.63,7.37 6.47,9.46 6.07,12.07 C5.74,14.22 6.56,16.18 8,17.47 C8.48,17.9 9.23,17.8 9.56,17.24 L9.57,17.23 C9.81,16.81 9.71,16.3 9.35,15.97 C8.32,15.04 7.76,13.6 8.13,12.03 C8.46,10.61 9.61,9.46 11.03,9.12 C13.65,8.49 16,10.47 16,13 C16,14.18 15.48,15.23 14.67,15.96 C14.31,16.28 14.2,16.8 14.44,17.22 L14.45,17.23 C14.76,17.76 15.48,17.92 15.95,17.51 C17.2,16.41 18,14.8 18,13 Z M10.83,3.07 C6.21,3.59 2.48,7.4 2.05,12.03 C1.7,15.73 3.37,19.05 6.07,21.04 C6.55,21.39 7.23,21.24 7.53,20.73 C7.78,20.3 7.67,19.74 7.27,19.44 C4.99,17.75 3.62,14.89 4.11,11.74 C4.65,8.24 7.57,5.45 11.09,5.06 C15.91,4.51 20,8.28 20,13 C20,15.65 18.71,17.98 16.73,19.44 C16.33,19.74 16.22,20.29 16.47,20.73 C16.77,21.25 17.45,21.39 17.93,21.04 C20.4,19.22 22,16.3 22,13 C22,7.09 16.87,2.38 10.83,3.07 Z" id="🔹Icon-Color" fill="#1D1D1D"></path>
                    </g>
                </g>
            </g>
        </g>
    </g>
</svg>