<?xml version="1.0" encoding="utf-8"?>
<!-- Generator: Adobe Illustrator 16.2.1, SVG Export Plug-In . SVG Version: 6.00 Build 0)  -->
<!DOCTYPE svg PUBLIC "-//W3C//DTD SVG 1.1//EN" "http://www.w3.org/Graphics/SVG/1.1/DTD/svg11.dtd">
<svg version="1.1" id="Layer_1" xmlns="http://www.w3.org/2000/svg" xmlns:xlink="http://www.w3.org/1999/xlink" x="0px" y="0px"
	 width="512px" height="512px" viewBox="0 0 512 512" enable-background="new 0 0 512 512" xml:space="preserve">
<path d="M256,0C114.609,0,0,114.609,0,256s114.609,256,256,256s256-114.609,256-256S397.391,0,256,0z M256,472
	c-119.297,0-216-96.703-216-216S136.703,40,256,40s216,96.703,216,216S375.297,472,256,472z"/>
<path d="M305.312,148.688c-6.25-6.25-16.375-6.25-22.625,0l-96,96c-6.25,6.25-6.25,16.375,0,22.625l96,96
	C285.812,366.438,289.906,368,294,368s8.188-1.562,11.312-4.688c6.25-6.25,6.25-16.375,0-22.625L220.625,256l84.688-84.688
	C311.562,165.062,311.562,154.938,305.312,148.688z"/>
</svg>
