<?xml version="1.0" encoding="utf-8"?>
<!-- Generator: Adobe Illustrator 16.2.1, SVG Export Plug-In . SVG Version: 6.00 Build 0)  -->
<!DOCTYPE svg PUBLIC "-//W3C//DTD SVG 1.1//EN" "http://www.w3.org/Graphics/SVG/1.1/DTD/svg11.dtd">
<svg version="1.1" id="Layer_1" xmlns="http://www.w3.org/2000/svg" xmlns:xlink="http://www.w3.org/1999/xlink" x="0px" y="0px"
	 width="512px" height="512px" viewBox="0 0 512 512" enable-background="new 0 0 512 512" xml:space="preserve">
<path d="M256,0C114.609,0,0,114.609,0,256s114.609,256,256,256s256-114.609,256-256S397.391,0,256,0z M256,472
	c-119.297,0-216-96.703-216-216S136.703,40,256,40s216,96.703,216,216S375.297,472,256,472z"/>
<path d="M223.07,317.875c20.578-15.703,48.273-41.188,77.195-71.852c53.297-56.531,90.359-108.906,82.734-116.969
	c-7.609-8.094-57,31.188-110.328,87.719c-29.68,31.469-54.281,61.633-68.969,83.602c-7.141,0.391-35.023,3.75-39.617,32.531
	c0,0-19.016,48.188-33.75,50.297c-14.586,2.109,43.75-0.312,51.328-3.047C189.148,377.469,227.25,374.234,223.07,317.875z"/>
</svg>
