<?xml version="1.0" encoding="utf-8"?>
<!-- Generator: Adobe Illustrator 16.2.1, SVG Export Plug-In . SVG Version: 6.00 Build 0)  -->
<!DOCTYPE svg PUBLIC "-//W3C//DTD SVG 1.1//EN" "http://www.w3.org/Graphics/SVG/1.1/DTD/svg11.dtd">
<svg version="1.1" id="Layer_1" xmlns="http://www.w3.org/2000/svg" xmlns:xlink="http://www.w3.org/1999/xlink" x="0px" y="0px"
	 width="512px" height="512px" viewBox="0 0 512 512" enable-background="new 0 0 512 512" xml:space="preserve">
<path d="M256-2C114.609-2,0,112.609,0,254s114.609,256,256,256s256-114.609,256-256S397.391-2,256-2z M256,470
	c-119.297,0-216-96.703-216-216S136.703,38,256,38s216,96.703,216,216S375.297,470,256,470z"/>
<path d="M256,126c-70.688,0-128,57.312-128,128s57.312,128,128,128s128-57.312,128-128S326.688,126,256,126z M256,318
	c-8.844,0-16-7.156-16-16s7.156-16,16-16s16,7.156,16,16S264.844,318,256,318z M264,270h-16l-8-80h32L264,270z"/>
</svg>
