<?xml version="1.0" encoding="utf-8"?>
<!-- Generator: Adobe Illustrator 16.2.1, SVG Export Plug-In . SVG Version: 6.00 Build 0)  -->
<!DOCTYPE svg PUBLIC "-//W3C//DTD SVG 1.1//EN" "http://www.w3.org/Graphics/SVG/1.1/DTD/svg11.dtd">
<svg version="1.1" id="Layer_1" xmlns="http://www.w3.org/2000/svg" xmlns:xlink="http://www.w3.org/1999/xlink" x="0px" y="0px"
	 width="512px" height="512px" viewBox="0 0 512 512" enable-background="new 0 0 512 512" xml:space="preserve">
<g>
	<path d="M256,0C114.609,0,0,114.609,0,256s114.609,256,256,256s256-114.609,256-256S397.391,0,256,0z M256,472
		c-119.297,0-216-96.703-216-216S136.703,40,256,40s216,96.703,216,216S375.297,472,256,472z"/>
	<path d="M358.719,240.734C364.484,231.125,368,220.016,368,208c0-35.344-28.656-64-64-64c-29.375,0-53.859,19.906-61.391,46.875
		C233.875,181.742,221.625,176,208,176c-26.5,0-48,21.492-48,48c0,5.75,1.188,11.203,3.031,16.312c-1-0.094-2-0.312-3.031-0.312
		c-17.672,0-32,22.328-32,40s14.328,40,32,40h101.594c9-32,28.094-40,50.406-40c21.656,0,40.219,8.406,49.531,26.391
		C374.516,302.312,384,288.328,384,274C384,258.641,373.156,243.828,358.719,240.734z"/>
	<path d="M312,288c-22.094,0-40,17.906-40,40s17.906,40,40,40s40-17.906,40-40S334.094,288,312,288z M336,336h-16v16h-16v-16h-16
		v-16h16v-16h16v16h16V336z"/>
</g>
</svg>
