<?xml version="1.0" encoding="utf-8"?>
<!-- Generator: Adobe Illustrator 16.2.1, SVG Export Plug-In . SVG Version: 6.00 Build 0)  -->
<!DOCTYPE svg PUBLIC "-//W3C//DTD SVG 1.1//EN" "http://www.w3.org/Graphics/SVG/1.1/DTD/svg11.dtd">
<svg version="1.1" id="Layer_1" xmlns="http://www.w3.org/2000/svg" xmlns:xlink="http://www.w3.org/1999/xlink" x="0px" y="0px"
	 width="512px" height="512px" viewBox="0 0 512 512" enable-background="new 0 0 512 512" xml:space="preserve">
<path fill-rule="evenodd" clip-rule="evenodd" d="M256,0C114.609,0,0,114.609,0,256s114.609,256,256,256s256-114.609,256-256
	S397.391,0,256,0z M256,472c-119.297,0-216-96.703-216-216S136.703,40,256,40s216,96.703,216,216S375.297,472,256,472z"/>
<g>
	<path d="M256,336.219c-30.031,0-61.438-6.328-79.844-19.703c0,0.219-0.156,0.438-0.156,0.641c0,3.359,0,15.719,0,19.062
		C176,353.781,211.812,368,256,368s80-14.219,80-31.781c0-3.344,0-15.703,0-19.062c0-0.203-0.156-0.422-0.156-0.641
		C317.438,329.891,286.016,336.219,256,336.219z"/>
	<path d="M256,288.547c-30.031,0-61.438-6.312-79.844-19.688c0,0.219-0.156,0.422-0.156,0.641c0,3.359,0,15.703,0,19.047
		c0,17.562,35.812,31.797,80,31.797s80-14.234,80-31.797c0-3.344,0-15.688,0-19.047c0-0.219-0.156-0.422-0.156-0.641
		C317.438,282.234,286.016,288.547,256,288.547z"/>
	<path d="M176,222.656c0,4.031,0,15.078,0,18.25c0,17.562,35.812,31.781,80,31.781s80-14.219,80-31.781c0-3.172,0-14.219,0-18.25
		c-18.375,13.469-49.891,19.844-80,19.844S194.375,236.125,176,222.656z"/>
	<path d="M256,144c-44.188,0-80,14.219-80,31.781c0,3.344,0,15.703,0,19.062c0,17.531,35.812,31.766,80,31.766s80-14.234,80-31.766
		c0-3.359,0-15.719,0-19.062C336,158.219,300.188,144,256,144z"/>
</g>
</svg>
