<?xml version="1.0" encoding="utf-8"?>
<!-- Generator: Adobe Illustrator 16.2.1, SVG Export Plug-In . SVG Version: 6.00 Build 0)  -->
<!DOCTYPE svg PUBLIC "-//W3C//DTD SVG 1.1//EN" "http://www.w3.org/Graphics/SVG/1.1/DTD/svg11.dtd">
<svg version="1.1" id="Layer_1" xmlns="http://www.w3.org/2000/svg" xmlns:xlink="http://www.w3.org/1999/xlink" x="0px" y="0px"
	 width="512px" height="512px" viewBox="0 0 512 512" enable-background="new 0 0 512 512" xml:space="preserve">
<path d="M256,0C114.609,0,0,114.609,0,256s114.609,256,256,256s256-114.609,256-256S397.391,0,256,0z M256,472
	c-119.297,0-216-96.703-216-216S136.703,40,256,40s216,96.703,216,216S375.297,472,256,472z"/>
<path fill-rule="evenodd" clip-rule="evenodd" d="M384,176v-48h-48v16H176v-16h-48v48h16v160h-16v48h48v-16h160v16h48v-48h-16V176
	H384z M352,144h16v16h-16V144z M144,144h16v16h-16V144z M160,368h-16v-16h16V368z M368,368h-16v-16h16V368z M352,336h-16v16H176v-16
	h-16V176h16v-16h160v16h16V336z"/>
</svg>
