<?xml version="1.0" encoding="utf-8"?>
<!-- Generator: Adobe Illustrator 16.2.1, SVG Export Plug-In . SVG Version: 6.00 Build 0)  -->
<!DOCTYPE svg PUBLIC "-//W3C//DTD SVG 1.1//EN" "http://www.w3.org/Graphics/SVG/1.1/DTD/svg11.dtd">
<svg version="1.1" id="Layer_1" xmlns="http://www.w3.org/2000/svg" xmlns:xlink="http://www.w3.org/1999/xlink" x="0px" y="0px"
	 width="512px" height="512px" viewBox="0 0 512 512" enable-background="new 0 0 512 512" xml:space="preserve">
<g>
	<path d="M256,0C114.609,0,0,114.594,0,256c0,141.375,114.609,256,256,256s256-114.625,256-256C512,114.594,397.391,0,256,0z
		 M256,472c-119.297,0-216-96.719-216-216c0-119.312,96.703-216,216-216s216,96.688,216,216C472,375.281,375.297,472,256,472z"/>
	<polygon points="384,192.188 384,128 319.281,128 336.281,145 255.469,225.812 174.562,144.969 191.469,128 128,128 128,192.312 
		144.766,175.219 225.438,256 144.75,336.922 128,319.906 128,384 191.406,384 174.531,367.078 255.469,286.188 336.312,367 
		319.281,384 384,384 384,320 366.797,336.906 285.922,256 366.734,175.188 	"/>
</g>
</svg>
