<?xml version="1.0" encoding="utf-8"?>
<!-- Generator: Adobe Illustrator 16.2.1, SVG Export Plug-In . SVG Version: 6.00 Build 0)  -->
<!DOCTYPE svg PUBLIC "-//W3C//DTD SVG 1.1//EN" "http://www.w3.org/Graphics/SVG/1.1/DTD/svg11.dtd">
<svg version="1.1" id="Layer_1" xmlns="http://www.w3.org/2000/svg" xmlns:xlink="http://www.w3.org/1999/xlink" x="0px" y="0px"
	 width="512px" height="512px" viewBox="0 0 512 512" enable-background="new 0 0 512 512" xml:space="preserve">
<g>
	<path fill-rule="evenodd" clip-rule="evenodd" d="M256,0C114.609,0,0,114.609,0,256s114.609,256,256,256s256-114.609,256-256
		S397.391,0,256,0z M256,472c-119.297,0-216-96.703-216-216S136.703,40,256,40s216,96.703,216,216S375.297,472,256,472z"/>
	<g>
		<path fill-rule="evenodd" clip-rule="evenodd" d="M367.219,280.047l-12.594-128.078c-0.422-4.391-4.375-7.969-8.781-7.969h-176.25
			c-4.406,0-8.438,3.578-8.969,7.938l-15.656,128.141c-0.531,4.359-0.969,11.531-0.969,15.938V360c0,4.406,3.594,8,8,8h208
			c4.406,0,8-3.594,8-8v-63.984C368,291.609,367.641,284.438,367.219,280.047z M352,344c0,4.406-3.594,8-8,8H168
			c-4.406,0-8-3.594-8-8v-32c0-4.406,3.594-8,8-8h176c4.406,0,8,3.594,8,8V344z"/>
		<path fill-rule="evenodd" clip-rule="evenodd" d="M329.594,320h-144c-4.406,0-8,3.594-8,8.016c0,4.438,3.594,7.984,8,7.984h144
			c4.438,0,7.984-3.547,7.984-7.984C337.578,323.594,334.031,320,329.594,320z"/>
	</g>
</g>
</svg>
