<?xml version="1.0" encoding="utf-8"?>
<!-- Generator: Adobe Illustrator 16.2.1, SVG Export Plug-In . SVG Version: 6.00 Build 0)  -->
<!DOCTYPE svg PUBLIC "-//W3C//DTD SVG 1.1//EN" "http://www.w3.org/Graphics/SVG/1.1/DTD/svg11.dtd">
<svg version="1.1" id="Layer_1" xmlns="http://www.w3.org/2000/svg" xmlns:xlink="http://www.w3.org/1999/xlink" x="0px" y="0px"
	 width="512px" height="512px" viewBox="0 0 512 512" enable-background="new 0 0 512 512" xml:space="preserve">
<path d="M256,0C114.609,0,0,114.609,0,256s114.609,256,256,256s256-114.609,256-256S397.391,0,256,0z M256,472
	c-119.297,0-216-96.703-216-216S136.703,40,256,40s216,96.703,216,216S375.297,472,256,472z"/>
<path d="M253.734,240c-7.141-27.562-31.953-48-61.734-48c-35.344,0-64,28.656-64,64s28.656,64,64,64
	c29.781,0,54.594-20.453,61.734-48H336v32h32v-32h16v-32H253.734z M192,296c-22.094,0-40-17.922-40-40c0-22.094,17.906-40,40-40
	s40,17.906,40,40C232,278.078,214.094,296,192,296z"/>
</svg>
