<?xml version="1.0" encoding="utf-8"?>
<!-- Generator: Adobe Illustrator 16.2.1, SVG Export Plug-In . SVG Version: 6.00 Build 0)  -->
<!DOCTYPE svg PUBLIC "-//W3C//DTD SVG 1.1//EN" "http://www.w3.org/Graphics/SVG/1.1/DTD/svg11.dtd">
<svg version="1.1" id="Layer_1" xmlns="http://www.w3.org/2000/svg" xmlns:xlink="http://www.w3.org/1999/xlink" x="0px" y="0px"
	 width="512px" height="512px" viewBox="0 0 512 512" enable-background="new 0 0 512 512" xml:space="preserve">
<g>
	<path d="M256,0C114.609,0,0,114.609,0,256s114.609,256,256,256s256-114.609,256-256S397.391,0,256,0z M256,472
		c-119.297,0-216-96.703-216-216S136.703,40,256,40s216,96.703,216,216S375.297,472,256,472z"/>
	<path d="M296,240h-8.5c0.312-2.516,0.5-5.188,0.5-8c0-13.203-14.406-24-32-24s-32,10.797-32,24c0,2.812,0.188,5.484,0.5,8H216
		c-4.422,0-8,3.578-8,8v48c0,4.422,3.578,8,8,8h80c4.422,0,8-3.578,8-8v-48C304,243.578,300.422,240,296,240z M240,240
		c-4.797-9.594,7.203-19.203,16-19.203s20.797,9.609,16,19.203H240z"/>
	<path d="M370.906,311.188L401.594,256h-19.188c-0.797-72.344-56.625-127.516-126.781-127.609
		c-70.609-0.078-127.766,57.078-127.672,127.688c0.078,70.625,57.359,127.906,127.969,127.969
		c39.875,0.094,75.406-18.125,98.797-46.625l-15.281-25.484c-17.938,27.016-48.641,44.75-83.562,44.703
		c-55.469-0.031-100.484-45.047-100.531-100.531c-0.062-55.484,44.844-100.375,100.312-100.312
		c55.219,0.094,99.078,45.781,99.547,100.203l-19.047-0.031L370.906,311.188z"/>
</g>
</svg>
