<?xml version="1.0" encoding="utf-8"?>
<!-- Generator: Adobe Illustrator 16.2.1, SVG Export Plug-In . SVG Version: 6.00 Build 0)  -->
<!DOCTYPE svg PUBLIC "-//W3C//DTD SVG 1.1//EN" "http://www.w3.org/Graphics/SVG/1.1/DTD/svg11.dtd">
<svg version="1.1" id="Layer_1" xmlns="http://www.w3.org/2000/svg" xmlns:xlink="http://www.w3.org/1999/xlink" x="0px" y="0px"
	 width="512px" height="512px" viewBox="0 0 512 512" enable-background="new 0 0 512 512" xml:space="preserve">
<path d="M256,0C114.609,0,0,114.609,0,256s114.609,256,256,256s256-114.609,256-256S397.391,0,256,0z M256,472
	c-119.297,0-216-96.703-216-216S136.703,40,256,40s216,96.703,216,216S375.297,472,256,472z"/>
<g>
	<path d="M295.656,189.562L128,357.297L154.695,384l167.789-167.594L295.656,189.562z M256.664,237.516l39.445-39.469L314,215.938
		l-39.438,39.469L256.664,237.516z"/>
	<polygon points="362.734,162.719 349.312,149.297 322.484,176.141 335.906,189.562 	"/>
	<polygon points="288.406,165.375 281.812,128 263.148,131.297 269.75,168.688 	"/>
	<polygon points="346.641,223.656 343.359,242.328 380.719,248.938 384,230.25 	"/>
	<polygon points="304.422,278.719 320.453,313.125 337.656,305.094 321.625,270.703 	"/>
	<polygon points="241.391,190.453 207,174.422 198.969,191.625 233.367,207.656 	"/>
</g>
</svg>
