<?xml version="1.0" encoding="utf-8"?>
<!-- Generator: Adobe Illustrator 16.2.1, SVG Export Plug-In . SVG Version: 6.00 Build 0)  -->
<!DOCTYPE svg PUBLIC "-//W3C//DTD SVG 1.1//EN" "http://www.w3.org/Graphics/SVG/1.1/DTD/svg11.dtd">
<svg version="1.1" id="Layer_1" xmlns="http://www.w3.org/2000/svg" xmlns:xlink="http://www.w3.org/1999/xlink" x="0px" y="0px"
	 width="512px" height="512px" viewBox="0 0 512 512" enable-background="new 0 0 512 512" xml:space="preserve">
<path d="M256,0C114.609,0,0,114.609,0,256s114.609,256,256,256s256-114.609,256-256S397.391,0,256,0z M256,472
	c-119.297,0-216-96.703-216-216S136.703,40,256,40s216,96.703,216,216S375.297,472,256,472z"/>
<g>
	<path d="M256,128c-70.688,0-128,57.312-128,128s57.312,128,128,128h128V256C384,185.312,326.703,128,256,128z M256,352
		c-52.938,0-96-43.062-96-96s43.062-96,96-96s96,43.062,96,96S308.938,352,256,352z"/>
	<polygon points="272,208 240,208 240,240 208,240 208,272 240,272 240,304 272,304 272,272 304,272 304,240 272,240 	"/>
</g>
</svg>
