<?xml version="1.0" encoding="utf-8"?>
<!-- Generator: Adobe Illustrator 16.2.1, SVG Export Plug-In . SVG Version: 6.00 Build 0)  -->
<!DOCTYPE svg PUBLIC "-//W3C//DTD SVG 1.1//EN" "http://www.w3.org/Graphics/SVG/1.1/DTD/svg11.dtd">
<svg version="1.1" id="Layer_1" xmlns="http://www.w3.org/2000/svg" xmlns:xlink="http://www.w3.org/1999/xlink" x="0px" y="0px"
	 width="512px" height="512px" viewBox="0 0 512 512" enable-background="new 0 0 512 512" xml:space="preserve">
<path d="M256,0C114.609,0,0,114.609,0,256s114.609,256,256,256s256-114.609,256-256S397.391,0,256,0z M256,472
	c-119.297,0-216-96.703-216-216S136.703,40,256,40s216,96.703,216,216S375.297,472,256,472z"/>
<path d="M304,191.953C304,165.469,282.516,144,256,144c-26.5,0-48,21.469-48,47.953c0,23.734,17.312,43.328,40,47.141v110.25
	c-13.781,1.047-24,4.766-24,9.156c0,5.234,14.328,9.5,32,9.5c17.656,0,32-4.266,32-9.5c0-4.391-10.219-8.109-24-9.156v-110.25
	C286.688,235.281,304,215.688,304,191.953z M236.406,181.75c-4.625,4.625-10.922,5.844-14.062,2.734
	c-3.125-3.141-1.875-9.422,2.75-14.047c4.641-4.625,10.938-5.859,14.062-2.75C242.266,170.812,241.047,177.109,236.406,181.75z"/>
</svg>
