<?xml version="1.0" encoding="utf-8"?>
<!-- Generator: Adobe Illustrator 16.2.1, SVG Export Plug-In . SVG Version: 6.00 Build 0)  -->
<!DOCTYPE svg PUBLIC "-//W3C//DTD SVG 1.1//EN" "http://www.w3.org/Graphics/SVG/1.1/DTD/svg11.dtd">
<svg version="1.1" id="Layer_1" xmlns="http://www.w3.org/2000/svg" xmlns:xlink="http://www.w3.org/1999/xlink" x="0px" y="0px"
	 width="512px" height="512px" viewBox="0 0 512 512" enable-background="new 0 0 512 512" xml:space="preserve">
<g>
	<path d="M256,0C114.609,0,0,114.609,0,256s114.609,256,256,256s256-114.609,256-256S397.391,0,256,0z M256,472
		c-119.297,0-216-96.703-216-216S136.703,40,256,40s216,96.703,216,216S375.297,472,256,472z"/>
	<g>
		<path d="M261.078,275.656l18.578-18.594l-24.719-24.734l-18.594,18.594c-2.953-1.547-6.031-2.812-9.25-3.828v-26.297h-34.984
			v26.297c-3.219,1.016-6.297,2.281-9.266,3.828l-18.594-18.578l-24.719,24.719l18.594,18.594c-1.562,2.953-2.812,6.031-3.844,9.25
			H128v34.984h26.281c1.031,3.219,2.281,6.297,3.844,9.25l-18.594,18.594l24.734,24.734l18.578-18.594
			c2.969,1.547,6.031,2.797,9.266,3.828V384h34.984v-26.281c3.219-1.031,6.297-2.297,9.25-3.844l18.594,18.594l24.734-24.734
			l-18.594-18.578c1.547-2.969,2.812-6.031,3.828-9.266h26.297v-34.984h-26.297C263.891,281.688,262.625,278.609,261.078,275.656z
			 M209.594,337.375c-19.312,0-34.969-15.656-34.969-34.969c0-19.328,15.656-34.969,34.969-34.969
			c19.328,0,34.969,15.641,34.969,34.969C244.562,321.719,228.922,337.375,209.594,337.375z"/>
		<path d="M384,197.281v-24.453h-18.391c-0.703-2.258-1.594-4.406-2.672-6.469l12.969-13.008l-17.281-17.289l-13,13
			c-2.047-1.086-4.219-1.969-6.469-2.68V128h-24.438v18.383c-2.25,0.711-4.422,1.602-6.484,2.68l-13-12.992l-17.297,17.289l13,13
			c-1.078,2.062-1.969,4.211-2.672,6.469h-18.391v24.453h18.391c0.703,2.258,1.594,4.406,2.672,6.469l-13,13l17.312,17.297
			l12.984-13c2.062,1.078,4.219,1.953,6.484,2.672v18.391h24.438v-18.375c2.25-0.719,4.422-1.609,6.469-2.688l13,13l17.312-17.297
			l-13-12.984c1.078-2.078,1.969-4.219,2.672-6.484H384z M326.938,209.5c-13.5,0-24.453-10.938-24.453-24.438
			c0-13.516,10.953-24.461,24.453-24.461c13.516,0,24.453,10.945,24.453,24.461C351.391,198.562,340.453,209.5,326.938,209.5z"/>
	</g>
</g>
</svg>
