<?xml version="1.0" encoding="utf-8"?>
<!-- Generator: Adobe Illustrator 16.2.1, SVG Export Plug-In . SVG Version: 6.00 Build 0)  -->
<!DOCTYPE svg PUBLIC "-//W3C//DTD SVG 1.1//EN" "http://www.w3.org/Graphics/SVG/1.1/DTD/svg11.dtd">
<svg version="1.1" id="Layer_1" xmlns="http://www.w3.org/2000/svg" xmlns:xlink="http://www.w3.org/1999/xlink" x="0px" y="0px"
	 width="512px" height="512px" viewBox="0 0 512 512" enable-background="new 0 0 512 512" xml:space="preserve">
<g>
	<path d="M256,0C114.609,0,0,114.609,0,256s114.609,256,256,256s256-114.609,256-256S397.391,0,256,0z M256,472
		c-119.297,0-216-96.703-216-216S136.703,40,256,40s216,96.703,216,216S375.297,472,256,472z"/>
	<path d="M176,328c0,13.25-10.75,24-24,24s-24-10.75-24-24s10.75-24,24-24S176,314.75,176,328z"/>
	<path d="M384,280c0,13.25-10.75,24-24,24s-24-10.75-24-24s10.75-24,24-24S384,266.75,384,280z"/>
	<path d="M240,184c0,13.25-10.75,24-24,24s-24-10.75-24-24s10.75-24,24-24S240,170.75,240,184z"/>
	<g>
		<path d="M208,223.188V384h16V223.188c-2.594,0.531-5.25,0.812-8,0.812S210.594,223.719,208,223.188z"/>
		<path d="M224,144.812V128h-16v16.812c2.594-0.531,5.25-0.812,8-0.812S221.406,144.281,224,144.812z"/>
	</g>
	<g>
		<path d="M352,319.188V384h16v-64.812c-2.594,0.531-5.266,0.812-8,0.812S354.594,319.719,352,319.188z"/>
		<path d="M368,240.812V128h-16v112.812c2.594-0.531,5.266-0.812,8-0.812S365.406,240.281,368,240.812z"/>
	</g>
	<g>
		<path d="M144,367.188V384h16v-16.812c-2.594,0.531-5.25,0.812-8,0.812S146.594,367.719,144,367.188z"/>
		<path d="M160,288.812V128h-16v160.812c2.594-0.531,5.25-0.812,8-0.812S157.406,288.281,160,288.812z"/>
	</g>
	<path d="M320,224c0,13.266-10.75,24-24,24s-24-10.734-24-24c0-13.25,10.75-24,24-24S320,210.75,320,224z"/>
	<g>
		<path d="M304,184.812V128h-16v56.812c2.594-0.531,5.266-0.812,8-0.812S301.406,184.281,304,184.812z"/>
		<path d="M288,263.188V384h16V263.188c-2.594,0.531-5.266,0.812-8,0.812S290.594,263.719,288,263.188z"/>
	</g>
</g>
</svg>
