<?xml version="1.0" encoding="utf-8"?>
<!-- Generator: Adobe Illustrator 16.2.1, SVG Export Plug-In . SVG Version: 6.00 Build 0)  -->
<!DOCTYPE svg PUBLIC "-//W3C//DTD SVG 1.1//EN" "http://www.w3.org/Graphics/SVG/1.1/DTD/svg11.dtd">
<svg version="1.1" id="Layer_1" xmlns="http://www.w3.org/2000/svg" xmlns:xlink="http://www.w3.org/1999/xlink" x="0px" y="0px"
	 width="512px" height="512px" viewBox="0 0 512 512" enable-background="new 0 0 512 512" xml:space="preserve">
<path d="M256,0C114.609,0,0,114.609,0,256s114.609,256,256,256s256-114.609,256-256S397.391,0,256,0z M256,472
	c-119.297,0-216-96.703-216-216S136.703,40,256,40s216,96.703,216,216S375.297,472,256,472z"/>
<g>
	<g>
		<path d="M330.734,221.281c0,0,9.891-5.812,17.016-5.812s16.453,0,16.453,0l6.078-15H267.188l1.094,11.281l6.062,3.203L301.109,216
			c0,0,1.625,5.812-2.734,9.016c-4.438,3.141-43.422,37.734-43.422,37.734l-49.391-60.469c0,0,1.094-1.562,8.219-1.562
			c7.156,0,28.031,0,28.031,0V176H128v24.844c0,0,14.438,0,21.562,0s15.359,7.781,22.5,14.688
			c7.141,6.859,56.656,59.406,56.656,59.406l0.328,43.281c0,0-3.734,6.344-18,6.344c-14.281,0-19.766,1.094-19.766,1.094v10.156
			h113.094v-7.438c0,0-3.266-4.875-6-4.875h-26.844c-3.281,0-4.391-3.688-4.391-8.469c0-4.719,0-37.469,0-37.469L330.734,221.281z
			 M355.594,303.375l8.062,0.719L384,238.812l-28.438-2.094L355.594,303.375z M343.172,336h24.453l1.203-22.969l-25.656,0.625V336z"
			/>
	</g>
</g>
</svg>
