<?xml version="1.0" encoding="utf-8"?>
<!-- Generator: Adobe Illustrator 16.2.1, SVG Export Plug-In . SVG Version: 6.00 Build 0)  -->
<!DOCTYPE svg PUBLIC "-//W3C//DTD SVG 1.1//EN" "http://www.w3.org/Graphics/SVG/1.1/DTD/svg11.dtd">
<svg version="1.1" id="Layer_1" xmlns="http://www.w3.org/2000/svg" xmlns:xlink="http://www.w3.org/1999/xlink" x="0px" y="0px"
	 width="512px" height="512px" viewBox="0 0 512 512" enable-background="new 0 0 512 512" xml:space="preserve">
<g>
	<path d="M256,0C114.609,0,0,114.609,0,256s114.609,256,256,256s256-114.609,256-256S397.391,0,256,0z M256,472
		c-119.297,0-216-96.703-216-216S136.703,40,256,40s216,96.703,216,216S375.297,472,256,472z"/>
	<path d="M166.531,194.172c-28.344,36.844-29.438,86.891-6.125,124.359c20.969-55.344,47.359-117.625,79.844-173.25
		C209.719,158.562,181.25,175.047,166.531,194.172z"/>
	<path d="M367.781,145.406c-69.641,49.047-129.109,125.984-176.844,204.953c-2.141-1.484,35,17.641,57.25,17.641
		c30.75,0,61.219-13.922,81.797-40.641C371.094,273.859,368.219,128.188,367.781,145.406z"/>
</g>
</svg>
