<?xml version="1.0" encoding="utf-8"?>
<!-- Generator: Adobe Illustrator 16.2.1, SVG Export Plug-In . SVG Version: 6.00 Build 0)  -->
<!DOCTYPE svg PUBLIC "-//W3C//DTD SVG 1.1//EN" "http://www.w3.org/Graphics/SVG/1.1/DTD/svg11.dtd">
<svg version="1.1" id="Layer_1" xmlns="http://www.w3.org/2000/svg" xmlns:xlink="http://www.w3.org/1999/xlink" x="0px" y="0px"
	 width="512px" height="512px" viewBox="0 0 512 512" enable-background="new 0 0 512 512" xml:space="preserve">
<path d="M256,0C114.609,0,0,114.609,0,256s114.609,256,256,256s256-114.609,256-256S397.391,0,256,0z M256,472
	c-119.297,0-216-96.703-216-216S136.703,40,256,40s216,96.703,216,216S375.297,472,256,472z"/>
<path d="M299.422,249.219c23.031,4.969,39.219,10.969,48.531,18.016C361.312,277.25,368,290.25,368,306.219
	c0,16.844-7.344,30.781-22.031,41.797C327.953,361.344,301.75,368,267.375,368H144v-6.109c11.219,0,18.828-0.969,22.828-2.891
	c4-1.938,6.797-4.438,8.422-7.516c1.609-3.094,2.406-10.688,2.406-22.797V183.312c0-12.109-0.797-19.734-2.406-22.875
	c-1.625-3.141-4.453-5.656-8.5-7.516c-4.062-1.875-11.656-2.812-22.75-2.812V144h116.391c27.812,0,47.5,2.281,59.078,6.844
	c11.578,4.578,20.719,11.406,27.406,20.5c6.688,9.078,10.031,18.75,10.031,28.984c0,10.797-4.25,20.406-12.719,28.828
	C335.703,237.578,320.781,244.281,299.422,249.219z M234.25,257.656v71.859l-0.188,8.25c0,5.953,1.641,10.438,4.938,13.469
	c3.281,3.031,8.125,4.547,14.594,4.547c9.531,0,18.344-1.953,26.406-5.875c8.062-3.906,14.234-9.578,18.531-17.016
	c4.297-7.422,6.438-15.719,6.438-24.859c0-10.453-2.625-19.844-7.875-28.156s-12.469-14.125-21.656-17.438
	C266.234,259.141,252.5,257.531,234.25,257.656z M234.25,244.766c16.938,0,29.453-1.766,37.5-5.281
	c8.062-3.531,14.25-8.484,18.531-14.859c4.312-6.406,6.453-14.547,6.453-24.469c0-9.906-2.125-18.031-6.359-24.359
	s-10.281-11.141-18.172-14.453c-7.875-3.312-20.531-4.906-37.953-4.781V244.766z"/>
</svg>
