<?xml version="1.0" encoding="utf-8"?>
<!-- Generator: Adobe Illustrator 16.2.1, SVG Export Plug-In . SVG Version: 6.00 Build 0)  -->
<!DOCTYPE svg PUBLIC "-//W3C//DTD SVG 1.1//EN" "http://www.w3.org/Graphics/SVG/1.1/DTD/svg11.dtd">
<svg version="1.1" id="Layer_1" xmlns="http://www.w3.org/2000/svg" xmlns:xlink="http://www.w3.org/1999/xlink" x="0px" y="0px"
	 width="512px" height="512px" viewBox="0 0 512 512" enable-background="new 0 0 512 512" xml:space="preserve">
<path d="M256,0C114.609,0,0,114.609,0,256s114.609,256,256,256s256-114.609,256-256S397.391,0,256,0z M256,472
	c-119.297,0-216-96.703-216-216S136.703,40,256,40s216,96.703,216,216S375.297,472,256,472z"/>
<g>
	<rect x="144.125" y="224.031" width="15.984" height="63.922"/>
	<path d="M167.969,368h8v-15.984h-8c-4.391,0-7.984-3.578-7.984-8v-7.984H144v7.984C144,357.234,154.75,368,167.969,368z"/>
	<rect x="224.031" y="351.891" width="63.938" height="15.984"/>
	<path d="M368,344.031l-0.125-8.125h-15.984l0.125,8.125c0,4.406-3.578,7.984-7.984,7.984h-8V368h8
		C357.25,368,368,357.25,368,344.031z"/>
	<rect x="351.891" y="224.031" width="15.984" height="63.938"/>
	<path d="M352.016,167.969v8H368v-8C368,154.75,357.25,144,344.031,144h-7.984v15.984h7.984
		C348.438,159.984,352.016,163.578,352.016,167.969z"/>
	<rect x="224.031" y="144.125" width="63.938" height="15.984"/>
	<path d="M159.984,167.969c0-4.391,3.594-7.984,7.984-7.984h8V144h-8C154.75,144,144,154.75,144,167.969v8h15.984V167.969z"/>
	<polygon points="239.891,320.109 271.859,320.125 271.984,239.828 303.953,239.828 256,191.891 208.047,239.828 239.906,239.75 	
		"/>
</g>
</svg>
