<?xml version="1.0" encoding="utf-8"?>
<!-- Generator: Adobe Illustrator 16.2.1, SVG Export Plug-In . SVG Version: 6.00 Build 0)  -->
<!DOCTYPE svg PUBLIC "-//W3C//DTD SVG 1.1//EN" "http://www.w3.org/Graphics/SVG/1.1/DTD/svg11.dtd">
<svg version="1.1" id="Layer_1" xmlns="http://www.w3.org/2000/svg" xmlns:xlink="http://www.w3.org/1999/xlink" x="0px" y="0px"
	 width="512px" height="512px" viewBox="0 0 512 512" enable-background="new 0 0 512 512" xml:space="preserve">
<g>
	<path d="M256,0C114.609,0,0,114.609,0,256s114.609,256,256,256s256-114.609,256-256S397.391,0,256,0z M256,472
		c-119.297,0-216-96.703-216-216S136.703,40,256,40s216,96.703,216,216S375.297,472,256,472z"/>
	<path d="M256,336.156c-8.828,0-16,7.141-16,15.984s7.172,16.016,16,16.016s16-7.172,16-16.016S264.828,336.156,256,336.156z"/>
	<path d="M256,272.031c-23.125,0-43.562,10.625-57.359,27.047l14.547,19.391c9.297-13.734,24.984-22.75,42.812-22.75
		s33.516,9.016,42.797,22.75l14.578-19.391C299.547,282.656,279.125,272.031,256,272.031z"/>
	<path d="M163.031,245.828l14.375,19.078c19.906-20.5,47.734-33.281,78.594-33.281c30.844,0,58.641,12.781,78.609,33.281
		l14.328-19.094c-24.031-23.406-56.781-37.875-92.938-37.875C219.812,207.938,187.062,222.406,163.031,245.828z"/>
	<path d="M128,193.594l15.562,20.75c29.562-27.422,68.984-44.328,112.438-44.328s82.875,16.906,112.406,44.328L384,193.562
		c-33.922-30.594-78.734-49.391-128-49.391C206.719,144.172,161.938,162.969,128,193.594z"/>
</g>
</svg>
