<svg xmlns="http://www.w3.org/2000/svg" width="18" height="18" viewBox="0 0 18 18">
  <path fill="#000000" fill-rule="evenodd" d="M260.85084,260.853513 C260.94215,260.763222 261,260.638581 261,260.500923 L261,246.499077 C261,246.223683 260.776142,246 260.5,246 C260.231934,246 260,246.223444 260,246.499077 L260,260 L246.499077,260 C246.223683,260 246,260.223858 246,260.5 C246,260.768066 246.223444,261 246.499077,261 L260.500923,261 C260.638467,261 260.763112,260.94416 260.853432,260.853856 Z M258.85084,258.853513 C258.94215,258.763222 259,258.638581 259,258.500923 L259,244.499077 C259,244.223683 258.776142,244 258.5,244 C258.231934,244 258,244.223444 258,244.499077 L258,258 L244.499077,258 C244.223683,258 244,258.223858 244,258.5 C244,258.768066 244.223444,259 244.499077,259 L258.500923,259 C258.638467,259 258.763112,258.94416 258.853432,258.853856 Z M243,244.006845 C243,243.45078 243.449949,243 244.006845,243 L255.993155,243 C256.54922,243 257,243.449949 257,244.006845 L257,255.993155 C257,256.54922 256.550051,257 255.993155,257 L244.006845,257 C243.45078,257 243,256.550051 243,255.993155 L243,244.006845 Z M244,244 L256,244 L256,256 L244,256 L244,244 Z" transform="translate(-243 -243)"/>
</svg>
