<svg xmlns="http://www.w3.org/2000/svg" width="18" height="18" viewBox="0 0 18 18">
  <path fill="#000000" fill-rule="evenodd" d="M438,163 L439,163 C439,161.343146 437.656854,160 436,160 C434.343146,160 433,161.343146 433,163 L434,163 C434,161.895431 434.895431,161 436,161 C437.104569,161 438,161.895431 438,163 Z M436,168 C440.970563,168 445,163.970563 445,159 C445,154.029437 440.970563,150 436,150 C431.029437,150 427,154.029437 427,159 C427,163.970563 431.029437,168 436,168 Z M436,167 C440.418278,167 444,163.418278 444,159 C444,154.581722 440.418278,151 436,151 C431.581722,151 428,154.581722 428,159 C428,163.418278 431.581722,167 436,167 Z M433,158 C433.552285,158 434,157.552285 434,157 C434,156.447715 433.552285,156 433,156 C432.447715,156 432,156.447715 432,157 C432,157.552285 432.447715,158 433,158 Z M439,158 C439.552285,158 440,157.552285 440,157 C440,156.447715 439.552285,156 439,156 C438.447715,156 438,156.447715 438,157 C438,157.552285 438.447715,158 439,158 Z" transform="translate(-427 -150)"/>
</svg>
