<svg xmlns="http://www.w3.org/2000/svg" width="18" height="18" viewBox="0 0 18 18">
  <path fill="#000000" fill-rule="evenodd" d="M484,163 L485,163 C485,161.343146 483.656854,160 482,160 C480.343146,160 479,161.343146 479,163 L480,163 C480,161.895431 480.895431,161 482,161 C483.104569,161 484,161.895431 484,163 Z M482,168 C486.970563,168 491,163.970563 491,159 C491,154.029437 486.970563,150 482,150 C477.029437,150 473,154.029437 473,159 C473,163.970563 477.029437,168 482,168 Z M479,158 C479.552285,158 480,157.552285 480,157 C480,156.447715 479.552285,156 479,156 C478.447715,156 478,156.447715 478,157 C478,157.552285 478.447715,158 479,158 Z M485,158 C485.552285,158 486,157.552285 486,157 C486,156.447715 485.552285,156 485,156 C484.447715,156 484,156.447715 484,157 C484,157.552285 484.447715,158 485,158 Z" transform="translate(-473 -150)"/>
</svg>
