<svg xmlns="http://www.w3.org/2000/svg" width="16" height="16" viewBox="0 0 16 16">
  <path fill="#000000" fill-rule="evenodd" d="M580.330152,212.999001 L578.488194,212.999001 C578.212773,212.999001 577.997715,213.222859 577.997715,213.499001 C577.997715,213.767068 578.21731,213.999001 578.488194,213.999001 L581.507237,213.999001 C581.643364,213.999001 581.764746,213.944316 581.852704,213.855661 C581.94109,213.763694 581.997715,213.642369 581.997715,213.508523 L581.997715,210.48948 C581.997715,210.214059 581.773858,209.999001 581.497715,209.999001 C581.229649,209.999001 580.997715,210.218596 580.997715,210.48948 L580.997715,212.252351 L576.217991,207.472627 C576.022487,207.277123 575.712749,207.283968 575.517487,207.47923 C575.327935,207.668781 575.319269,207.988118 575.510884,208.179734 L580.330152,212.999001 Z M567.667563,199 L569.509521,199 C569.784943,199 570,198.776142 570,198.5 C570,198.231934 569.780405,198 569.509521,198 L566.490479,198 C566.354351,198 566.232969,198.054685 566.145011,198.14334 C566.056625,198.235308 566,198.356632 566,198.490479 L566,201.509521 C566,201.784943 566.223858,202 566.5,202 C566.768066,202 567,201.780405 567,201.509521 L567,199.74665 L571.779724,204.526374 C571.975228,204.721878 572.284966,204.715034 572.480228,204.519772 C572.66978,204.33022 572.678447,204.010883 572.486831,203.819268 L567.667563,199 Z" transform="translate(-566 -198)"/>
</svg>
