<svg xmlns="http://www.w3.org/2000/svg" width="19" height="15" viewBox="0 0 19 15">
  <path fill="#000000" fill-rule="evenodd" d="M164.972536,253 C164.723813,255.249975 162.816277,257 160.5,257 C158.183723,257 156.276187,255.249975 156.027464,253 L157.035444,253 C157.278059,254.696147 158.736764,256 160.5,256 C162.263236,256 163.721941,254.696147 163.964556,253 L164.972536,253 Z M164.972536,252 C164.723813,249.750025 162.816277,248 160.5,248 C158.183723,248 156.276187,249.750025 156.027464,252 L157.035444,252 C157.278059,250.303853 158.736764,249 160.5,249 C162.263236,249 163.721941,250.303853 163.964556,252 L164.972536,252 Z M160,245 L151.994771,245 C151.450925,245 151,245.451066 151,246.007484 L151,258.992516 C151,259.55108 151.445374,260 151.994771,260 L169.005229,260 C169.549075,260 170,259.548934 170,258.992516 L170,246.007484 C170,245.44892 169.554626,245 169.005229,245 L161,245 L161,246 L169,246 L169,259 L161,259 L161,260 L160,260 L160,259 L152,259 L152,246 L160,246 L160,245 Z M160.5,255 C161.880712,255 163,253.880712 163,252.5 C163,251.119288 161.880712,250 160.5,250 C159.119288,250 158,251.119288 158,252.5 C158,253.880712 159.119288,255 160.5,255 Z" transform="translate(-151 -245)"/>
</svg>
