<svg xmlns="http://www.w3.org/2000/svg" width="19" height="15" viewBox="0 0 19 15">
  <path fill="#000000" fill-rule="evenodd" d="M199,253 L199,258 L206,258 L206,255.964556 C204.467154,255.745299 203.254701,254.532846 203.035444,253 L199,253 Z M199,252 L199,247 L206,247 L206,249.035444 C204.467154,249.254701 203.254701,250.467154 203.035444,252 L199,252 Z M214,253 L214,258 L207,258 L207,255.964556 C208.532846,255.745299 209.745299,254.532846 209.964556,253 L214,253 Z M214,252 L214,247 L207,247 L207,249.035444 C208.532846,249.254701 209.745299,250.467154 209.964556,252 L214,252 Z M206,245 L197.994771,245 C197.450925,245 197,245.451066 197,246.007484 L197,258.992516 C197,259.55108 197.445374,260 197.994771,260 L215.005229,260 C215.549075,260 216,259.548934 216,258.992516 L216,246.007484 C216,245.44892 215.554626,245 215.005229,245 L207,245 L207,246 L215,246 L215,259 L207,259 L207,260 L206,260 L206,259 L198,259 L198,246 L206,246 L206,245 Z M206.5,255 C207.880712,255 209,253.880712 209,252.5 C209,251.119288 207.880712,250 206.5,250 C205.119288,250 204,251.119288 204,252.5 C204,253.880712 205.119288,255 206.5,255 Z" transform="translate(-197 -245)"/>
</svg>
