<svg xmlns="http://www.w3.org/2000/svg" width="20" height="12" viewBox="0 0 20 12">
  <path fill="#000000" fill-rule="evenodd" d="M656.990727,153.012305 C656.990727,153.012305 662.477539,153.866896 666,153.866896 C669.522461,153.866896 675.024271,153.010172 675.024271,153.010172 C675.563151,152.931043 676,153.322657 676,153.869369 L676,163.864423 C676,164.418073 675.566676,164.801283 675.005231,164.719343 C675.005231,164.719343 669.605347,163.866897 666,163.866896 C662.394653,163.866895 656.979824,164.721487 656.979824,164.721487 C656.438682,164.801794 656,164.411135 656,163.864423 L656,153.869369 C656,153.315719 656.438447,152.932509 656.990727,153.012305 Z M657,158.866896 L674.999999,158.866896 L675,154.021716 C675,154.021716 674.577056,154.088109 674.248905,154.134281 C673.52835,154.235665 672.752476,154.337015 671.950203,154.431649 C670.983655,154.545659 670.044063,154.64209 669.15513,154.715337 C667.963173,154.813553 666.901309,154.866896 666,154.866896 C665.101715,154.866896 664.044784,154.814034 662.859224,154.716673 C661.968157,154.643496 661.026233,154.546959 660.057345,154.432721 C659.256698,154.338319 658.482565,154.237217 657.763753,154.136081 C657.450058,154.091944 657,154.027955 657,154.027955 L657,158.866896 Z" transform="translate(-656 -153)"/>
</svg>
