<svg xmlns="http://www.w3.org/2000/svg" width="19" height="15" viewBox="0 0 19 15">
  <path fill="#000000" fill-rule="evenodd" d="M657,246.007484 C657,245.451066 657.450925,245 657.994771,245 L675.005229,245 C675.554626,245 676,245.44892 676,246.007484 L676,258.992516 C676,259.548934 675.549075,260 675.005229,260 L657.994771,260 C657.445374,260 657,259.55108 657,258.992516 L657,246.007484 Z M658,246 L675,246 L675,259 L658,259 L658,246 Z M670.113445,252.056723 C670.603076,252.301538 670.603593,252.698203 670.113445,252.943277 L664.886555,255.556723 C664.396924,255.801538 664,255.562119 664,254.997071 L664,250.002929 C664,249.449027 664.396407,249.198203 664.886555,249.443277 L670.113445,252.056723 Z" transform="translate(-657 -245)"/>
</svg>
