<?xml version="1.0" encoding="iso-8859-1"?>
<!-- Generator: Adobe Illustrator 19.0.0, SVG Export Plug-In . SVG Version: 6.00 Build 0)  -->
<svg version="1.1" id="Layer_1" xmlns="http://www.w3.org/2000/svg" xmlns:xlink="http://www.w3.org/1999/xlink" x="0px" y="0px"
	 viewBox="0 0 24 24" style="enable-background:new 0 0 24 24;" xml:space="preserve">
<path d="M23.5,11.5H1.707l8.146-8.146c0.195-0.195,0.195-0.512,0-0.707s-0.512-0.195-0.707,0l-9,9
	c-0.004,0.004-0.005,0.01-0.01,0.014c-0.04,0.043-0.075,0.092-0.098,0.147c-0.051,0.123-0.051,0.261,0,0.384
	c0.014,0.033,0.038,0.058,0.058,0.087c0.017,0.025,0.027,0.052,0.049,0.074l9,9C9.244,21.451,9.372,21.5,9.5,21.5
	s0.256-0.049,0.353-0.147c0.195-0.195,0.195-0.512,0-0.707L1.707,12.5H23.5c0.276,0,0.5-0.224,0.5-0.5S23.776,11.5,23.5,11.5z"/>
</svg>
