<?xml version="1.0" encoding="iso-8859-1"?>
<!-- Generator: Adobe Illustrator 19.0.0, SVG Export Plug-In . SVG Version: 6.00 Build 0)  -->
<svg version="1.1" id="Layer_1" xmlns="http://www.w3.org/2000/svg" xmlns:xlink="http://www.w3.org/1999/xlink" x="0px" y="0px"
	 viewBox="0 0 24 24" style="enable-background:new 0 0 24 24;" xml:space="preserve">
<g>
	<path d="M6.072,3.088C4.76,3.338,3.625,4.086,2.874,5.19S1.848,7.625,2.098,8.937c0.046,0.239,0.256,0.406,0.491,0.406
		c0.031,0,0.063-0.003,0.094-0.009C2.954,9.282,3.132,9.02,3.08,8.749C2.88,7.7,3.1,6.635,3.701,5.751S5.211,4.27,6.26,4.07
		c0.271-0.052,0.449-0.314,0.397-0.585C6.605,3.215,6.35,3.038,6.072,3.088z"/>
	<path d="M23.723,5.088c-0.51-1.799-1.69-3.291-3.323-4.202c-3.037-1.692-6.797-0.872-8.89,1.768
		C9.904,1.302,7.776,0.727,5.697,1.123C1.905,1.847-0.59,5.521,0.134,9.311c0.33,1.727,1.608,3.64,3.421,5.117
		c1.371,1.117,2.796,1.798,4.001,1.942l-0.652,0.96c-0.113,0.168-0.115,0.387-0.004,0.556c0.094,0.143,0.251,0.226,0.418,0.226
		c0.031,0,0.063-0.003,0.092-0.009l1.161-0.222l1.434,5.738c0.056,0.223,0.256,0.379,0.485,0.379s0.429-0.156,0.485-0.379
		l1.87-7.481l0.58,0.324c0.077,0.042,0.161,0.063,0.244,0.063c0.111,0,0.22-0.036,0.309-0.107c0.159-0.126,0.226-0.335,0.171-0.529
		l-0.321-1.129c0.32,0.062,0.664,0.095,1.031,0.095c2.804,0,6.743-1.757,8.242-4.445C24.012,8.777,24.233,6.887,23.723,5.088z
		 M1.116,9.124C0.495,5.875,2.634,2.726,5.884,2.105C7.698,1.76,9.555,2.28,10.941,3.483c-0.021,0.035-0.045,0.068-0.065,0.104
		c-1.474,2.641-0.943,6.81,0.473,9.218c-0.913,1.409-2.018,2.383-2.93,2.56c-0.001,0-0.002,0-0.003,0s-0.002,0.001-0.003,0.001
		c-1.048,0.197-2.705-0.474-4.227-1.713C2.551,12.321,1.403,10.628,1.116,9.124z M12.042,13.761l-0.162,0.046
		c0.03-0.041,0.059-0.083,0.088-0.125C11.993,13.71,12.018,13.735,12.042,13.761z M8.643,16.552l0.343,0.234L8.41,16.895
		L8.643,16.552z M10.49,21.437l-0.936-3.744l0.803-0.153c0.199-0.038,0.354-0.191,0.396-0.39s-0.041-0.402-0.208-0.515l-0.959-0.651
		c0.423-0.23,0.845-0.558,1.258-0.961l1.096,0.612L10.49,21.437z M22.228,9.923c-1.613,2.892-6.904,4.734-8.895,3.626
		c-0.361-0.201-0.694-0.549-0.991-0.996c-0.006-0.008-0.011-0.016-0.017-0.023c-1.33-2.026-1.891-6.097-0.575-8.453
		C12.847,2.11,14.894,1.002,17,1.002c0.989,0,1.991,0.244,2.914,0.758c1.399,0.782,2.411,2.061,2.848,3.603
		C23.198,6.904,23.009,8.524,22.228,9.923z"/>
	<path d="M19.425,2.633c-1.166-0.651-2.516-0.807-3.801-0.444c-1.284,0.365-2.351,1.208-3.001,2.375
		c-0.135,0.242-0.048,0.545,0.193,0.68c0.077,0.042,0.16,0.063,0.243,0.063c0.175,0,0.346-0.093,0.437-0.257
		c0.52-0.932,1.373-1.607,2.401-1.899c1.027-0.291,2.108-0.166,3.041,0.355c0.241,0.134,0.545,0.048,0.68-0.193
		S19.666,2.768,19.425,2.633z"/>
</g>
</svg>
