<?xml version="1.0" encoding="iso-8859-1"?>
<!-- Generator: Adobe Illustrator 19.0.0, SVG Export Plug-In . SVG Version: 6.00 Build 0)  -->
<svg version="1.1" id="Layer_1" xmlns="http://www.w3.org/2000/svg" xmlns:xlink="http://www.w3.org/1999/xlink" x="0px" y="0px"
	 viewBox="0 0 24 24" style="enable-background:new 0 0 24 24;" xml:space="preserve">
<path d="M20.402,0.889C19.361,0.307,18.182,0,16.996,0c-2.538,0-4.882,1.375-6.117,3.59c-0.857,1.536-1.106,3.824-0.666,6.119
	c0.334,1.739,0.99,3.175,1.823,4.059l-1.121,0.318c-0.194,0.055-0.337,0.222-0.36,0.423s0.077,0.396,0.253,0.495l1.134,0.633
	l-1.45,5.802l-0.936-3.743l0.805-0.154c0.198-0.038,0.354-0.192,0.396-0.39c0.04-0.197-0.042-0.401-0.209-0.514L9.579,15.98
	c0.109-0.065,0.192-0.166,0.227-0.289c0.037-0.13,0.021-0.269-0.047-0.386c-0.165-0.29-0.233-0.605-0.197-0.913
	c0.041-0.356,0.229-0.693,0.526-0.949c0.175-0.149,0.225-0.398,0.122-0.603c-0.609-1.217-0.889-2.463-0.98-2.942
	C8.74,7.34,9.022,4.863,10.005,3.103c0.096-0.171,0.207-0.331,0.317-0.491l0.067-0.098c0.081-0.119,0.108-0.266,0.073-0.406
	c-0.035-0.139-0.128-0.256-0.255-0.322c-1.389-0.715-2.99-0.952-4.508-0.661C3.863,1.476,2.272,2.521,1.221,4.067
	C0.17,5.614-0.215,7.477,0.137,9.314c0.647,3.392,4.633,6.709,7.426,7.055l-0.655,0.963c-0.114,0.167-0.116,0.387-0.005,0.556
	c0.094,0.143,0.252,0.226,0.418,0.226c0.031,0,0.063-0.003,0.094-0.009l1.159-0.221l1.434,5.737C10.062,23.844,10.263,24,10.492,24
	s0.429-0.156,0.485-0.379l1.87-7.479l0.58,0.324c0.076,0.042,0.16,0.063,0.244,0.063c0.11,0,0.22-0.037,0.31-0.108
	c0.159-0.125,0.227-0.334,0.172-0.528l-0.318-1.121c0.322,0.066,0.672,0.102,1.053,0.102c2.766,0,6.727-1.793,8.216-4.461
	C24.984,7.042,23.772,2.77,20.402,0.889z M6.262,4.072c-2.167,0.414-3.593,2.513-3.18,4.679c0.052,0.271-0.126,0.533-0.397,0.585
	C2.655,9.342,2.622,9.345,2.59,9.345c-0.234,0-0.444-0.167-0.49-0.406C1.583,6.231,3.366,3.607,6.074,3.09
	c0.263-0.049,0.532,0.125,0.585,0.397C6.711,3.759,6.533,4.021,6.262,4.072z M19.62,3.315c-0.136,0.242-0.441,0.325-0.681,0.193
	c-0.933-0.521-2.013-0.646-3.04-0.355c-1.028,0.292-1.881,0.966-2.401,1.899c-0.092,0.164-0.262,0.256-0.437,0.256
	c-0.083,0-0.167-0.021-0.244-0.063c-0.24-0.134-0.327-0.439-0.192-0.68c0.65-1.166,1.717-2.009,3.002-2.374
	c1.283-0.364,2.634-0.207,3.801,0.444C19.668,2.77,19.754,3.074,19.62,3.315z"/>
</svg>
