<?xml version="1.0" encoding="iso-8859-1"?>
<!-- Generator: Adobe Illustrator 19.0.0, SVG Export Plug-In . SVG Version: 6.00 Build 0)  -->
<svg version="1.1" id="Layer_1" xmlns="http://www.w3.org/2000/svg" xmlns:xlink="http://www.w3.org/1999/xlink" x="0px" y="0px"
	 viewBox="0 0 24 24" style="enable-background:new 0 0 24 24;" xml:space="preserve">
<path d="M20.217,3.823c-0.194-1.056-1.041-1.868-2.029-2.003l-2.503-0.774C15.36,0.822,14.061,0,12.46,0
	c-1.574,0-2.857,0.796-3.208,1.035L5.889,1.803C4.824,1.956,3.978,2.767,3.785,3.824C3.26,6.683,2.04,13.639,2.04,16.501
	c0,0.276,0.224,0.5,0.5,0.5h3.877L5.962,22.46c-0.021,0.241,0.136,0.462,0.369,0.524c0.156,0.041,3.84,1.017,6.129,1.017
	s5.973-0.976,6.129-1.017c0.233-0.062,0.39-0.283,0.369-0.524l-0.455-5.459h2.957c0.276,0,0.5-0.224,0.499-0.501
	C21.96,13.65,20.74,6.685,20.217,3.823z M12.462,1.001c1.047,0,1.954,0.447,2.402,0.711L12.46,8.921l-2.403-7.208
	C10.505,1.449,11.414,1.001,12.462,1.001z M17.377,15.001l0.056,1H14.96v-1C14.96,15.001,17.377,15.001,17.377,15.001z
	 M13.96,16.501c0,0.276-0.225,0.5-0.5,0.5s-0.5-0.224-0.5-0.5v-2c0-0.276,0.225-0.5,0.5-0.5s0.5,0.224,0.5,0.5V16.501z
	 M11.96,16.501v2c0,0.276-0.225,0.5-0.5,0.5s-0.5-0.224-0.5-0.5v-4c0-0.276,0.225-0.5,0.5-0.5s0.5,0.224,0.5,0.5V16.501z
	 M7.545,15.001H9.96v1H7.49L7.545,15.001z M4.769,4.004c0.116-0.634,0.623-1.12,1.303-1.219l3.056-0.696l2.805,8.413l-0.851,2.553
	c-0.48,0.126-0.864,0.482-1.03,0.946H7.601l0.36-6.472c0.015-0.276-0.196-0.512-0.472-0.527C7.22,6.996,6.978,7.199,6.962,7.473
	l-0.474,8.528H3.051C3.172,12.968,4.278,6.678,4.769,4.004z M7.42,17.001h2.54v1.5c0,0.651,0.419,1.201,1,1.408v2.982
	c-1.527-0.191-3.211-0.583-3.967-0.77L7.42,17.001z M12.46,23.001c-0.157,0-0.329-0.01-0.5-0.02v-3.072c0.581-0.207,1-0.757,1-1.408
	v-0.592c0.157,0.056,0.324,0.092,0.5,0.092c0.651,0,1.201-0.419,1.408-1H17.5l0.427,5.12C16.907,22.373,14.194,23.001,12.46,23.001z
	 M18.434,16.001L17.96,7.473c-0.014-0.274-0.25-0.476-0.526-0.471c-0.277,0.015-0.488,0.251-0.472,0.527l0.36,6.472h-2.453
	c-0.207-0.581-0.757-1-1.408-1c-0.385,0-0.734,0.15-1,0.39c-0.106-0.096-0.226-0.177-0.356-0.239l3.677-11.03l2.189,0.672
	c0.639,0.091,1.147,0.577,1.263,1.21c0.491,2.677,1.595,8.973,1.717,11.997H18.434z"/>
</svg>
