<?xml version="1.0" encoding="iso-8859-1"?>
<!-- Generator: Adobe Illustrator 19.0.0, SVG Export Plug-In . SVG Version: 6.00 Build 0)  -->
<svg version="1.1" id="Layer_1" xmlns="http://www.w3.org/2000/svg" xmlns:xlink="http://www.w3.org/1999/xlink" x="0px" y="0px"
	 viewBox="0 0 30 30" style="enable-background:new 0 0 30 30;" xml:space="preserve">
<g>
	<path d="M25.999,10h-6.5v9.5c0,0.621-0.391,1.186-0.973,1.404c-0.572,0.216-1.252,0.044-1.656-0.417l-1.995-2.28
		c-0.19-0.218-0.562-0.218-0.753,0l-1.994,2.279c-0.404,0.461-1.081,0.634-1.657,0.416C9.89,20.686,9.499,20.121,9.499,19.5V10h-2.5
		c-1.454,0-2.689-0.635-3.5-1.64V26.5c0,2.028,1.472,3.5,3.5,3.5h19c0.276,0,0.5-0.224,0.5-0.5V9.906
		C26.34,9.963,26.174,10,25.999,10z"/>
	<path d="M11,5c-0.276,0-0.5,0.224-0.5,0.5v14c0,0.208,0.129,0.395,0.324,0.468c0.194,0.073,0.415,0.018,0.552-0.139l3.124-3.57
		l3.123,3.57C17.72,19.94,17.858,20,18,20c0.059,0,0.119-0.01,0.176-0.032c0.195-0.073,0.324-0.26,0.324-0.468v-14
		C18.5,5.224,18.276,5,18,5H11z"/>
	<path d="M7,9h2c0.276,0,0.5-0.224,0.5-0.5v-3c0-0.176,0.036-0.343,0.092-0.5H7C6.724,5,6.5,4.776,6.5,4.5S6.724,4,7,4h4h7h7.295
		c0.072-1.29,0.424-2.512,1.058-3.146c0.143-0.143,0.186-0.358,0.108-0.545C26.384,0.122,26.201,0,25.999,0H7.083
		C5.04,0,3.5,1.505,3.5,3.5v2C3.5,7.528,4.972,9,7,9z"/>
	<path d="M20,9h6c0.202,0,0.385-0.122,0.462-0.309c0.078-0.187,0.035-0.402-0.108-0.545C25.72,7.512,25.368,6.289,25.296,5h-5.887
		c0.056,0.157,0.092,0.324,0.092,0.5v3C19.5,8.776,19.724,9,20,9z"/>
</g>
</svg>
