<?xml version="1.0" encoding="iso-8859-1"?>
<!-- Generator: Adobe Illustrator 19.0.0, SVG Export Plug-In . SVG Version: 6.00 Build 0)  -->
<svg version="1.1" id="Layer_1" xmlns="http://www.w3.org/2000/svg" xmlns:xlink="http://www.w3.org/1999/xlink" x="0px" y="0px"
	 viewBox="0 0 24 24" style="enable-background:new 0 0 24 24;" xml:space="preserve">
<g>
	<path d="M9,17c0-4.411,3.589-8,8-8c2.39,0,4.533,1.059,6,2.726V3.5C23,1.57,21.43,0,19.5,0h-16C1.57,0,0,1.57,0,3.5v16
		C0,21.43,1.57,23,3.5,23h8.226C10.059,21.533,9,19.39,9,17z M14.5,6h5C19.776,6,20,6.224,20,6.5S19.776,7,19.5,7h-5
		C14.224,7,14,6.776,14,6.5S14.224,6,14.5,6z M3.5,6H6V3.5C6,3.224,6.224,3,6.5,3S7,3.224,7,3.5V6h2.5C9.776,6,10,6.224,10,6.5
		S9.776,7,9.5,7H7v2.5C7,9.776,6.776,10,6.5,10S6,9.776,6,9.5V7H3.5C3.224,7,3,6.776,3,6.5S3.224,6,3.5,6z M8.853,19.146
		c0.195,0.195,0.195,0.512,0,0.707C8.756,19.951,8.628,20,8.5,20s-0.256-0.049-0.354-0.146L6,17.707l-2.146,2.146
		C3.756,19.951,3.628,20,3.5,20s-0.256-0.049-0.354-0.146c-0.195-0.195-0.195-0.512,0-0.707l2.146-2.146l-2.146-2.146
		c-0.195-0.195-0.195-0.512,0-0.707s0.512-0.195,0.707,0l2.146,2.146l2.146-2.146c0.195-0.195,0.512-0.195,0.707,0
		s0.197,0.51,0.002,0.706L6.707,17L8.853,19.146z"/>
	<path d="M17,10c-3.86,0-7,3.14-7,7s3.14,7,7,7s7-3.14,7-7S20.86,10,17,10z M19.5,19h-5c-0.276,0-0.5-0.224-0.5-0.5
		s0.224-0.5,0.5-0.5h5c0.276,0,0.5,0.224,0.5,0.5S19.776,19,19.5,19z M19.5,16h-5c-0.276,0-0.5-0.224-0.5-0.5s0.224-0.5,0.5-0.5h5
		c0.276,0,0.5,0.224,0.5,0.5S19.776,16,19.5,16z"/>
</g>
</svg>
