<?xml version="1.0" encoding="iso-8859-1"?>
<!-- Generator: Adobe Illustrator 19.0.0, SVG Export Plug-In . SVG Version: 6.00 Build 0)  -->
<svg version="1.1" id="Layer_1" xmlns="http://www.w3.org/2000/svg" xmlns:xlink="http://www.w3.org/1999/xlink" x="0px" y="0px"
	 viewBox="0 0 30 30" style="enable-background:new 0 0 30 30;" xml:space="preserve">
<g>
	<path d="M27,25c0.276,0,0.5-0.224,0.5-0.5v-5c0-0.009-0.005-0.017-0.005-0.026c-0.001-0.02-0.008-0.037-0.011-0.057
		c-0.012-0.067-0.035-0.127-0.07-0.182c-0.007-0.01-0.005-0.024-0.013-0.034l-2.9-3.867V2.5C24.5,1.122,23.378,0,22,0H8
		C6.622,0,5.5,1.122,5.5,2.5v12.834l-2.9,3.867c-0.007,0.01-0.006,0.023-0.013,0.033c-0.036,0.056-0.06,0.118-0.071,0.186
		c-0.003,0.018-0.009,0.033-0.01,0.051C2.505,19.482,2.5,19.49,2.5,19.5v5C2.5,24.776,2.724,25,3,25h2.318
		c-0.203,0.383-0.419,0.759-0.637,1.123c-0.079,0.067-0.132,0.157-0.158,0.262c-0.955,1.554-1.9,2.784-1.919,2.809
		c-0.116,0.151-0.137,0.355-0.053,0.526C2.635,29.892,2.809,30,3,30h24c0.191,0,0.365-0.108,0.449-0.28
		c0.084-0.171,0.063-0.375-0.054-0.526c-0.45-0.581-1.198-1.632-1.92-2.817c-0.026-0.099-0.076-0.186-0.152-0.251
		C25.104,25.758,24.89,25.38,24.69,25H27z M13.5,15v-2.277C13.972,12.892,14.472,13,15,13s1.029-0.108,1.5-0.277V15H13.5z M6.5,15V6
		h4.762C10.782,6.716,10.5,7.575,10.5,8.5c0,1.556,0.795,2.93,2,3.738V15H6.5z M15,4c-0.528,0-1.029,0.108-1.5,0.277V1h3v3.277
		C16.029,4.108,15.528,4,15,4z M15,5c1.93,0,3.5,1.57,3.5,3.5S16.93,12,15,12s-3.5-1.57-3.5-3.5S13.07,5,15,5z M17.5,12.238
		c1.205-0.808,2-2.182,2-3.738c0-0.925-0.282-1.784-0.762-2.5H23.5v9h-6V12.238z M23.5,2.5V5H18c-0.059,0-0.114,0.015-0.166,0.034
		C17.723,4.943,17.62,4.842,17.5,4.762V1H22C22.827,1,23.5,1.673,23.5,2.5z M8,1h4.5v3.5c0,0.084,0.026,0.159,0.062,0.228
		c-0.141,0.091-0.267,0.199-0.396,0.305C12.114,5.015,12.059,5,12,5H6.5V2.5C6.5,1.673,7.173,1,8,1z M6.25,16h17.5L26,19H4L6.25,16z
		 M3.5,24v-4h23v4h-2.302c-0.323-0.717-0.561-1.405-0.653-2H25c0.276,0,0.5-0.224,0.5-0.5S25.276,21,25,21H5
		c-0.276,0-0.5,0.224-0.5,0.5S4.724,22,5,22h1.458c-0.091,0.604-0.333,1.293-0.651,2H3.5z M7.444,22h15.113
		c0.15,1.212,0.793,2.663,1.542,4H5.901C6.651,24.663,7.294,23.212,7.444,22z M3.99,29.001C4.347,28.5,4.827,27.792,5.315,27h19.371
		c0.488,0.792,0.967,1.5,1.325,2.001H3.99z"/>
	<path d="M8,3h2c0.276,0,0.5-0.224,0.5-0.5S10.276,2,10,2H8C7.724,2,7.5,2.224,7.5,2.5S7.724,3,8,3z"/>
</g>
</svg>
