<?xml version="1.0" encoding="iso-8859-1"?>
<!-- Generator: Adobe Illustrator 19.0.0, SVG Export Plug-In . SVG Version: 6.00 Build 0)  -->
<svg version="1.1" id="Layer_1" xmlns="http://www.w3.org/2000/svg" xmlns:xlink="http://www.w3.org/1999/xlink" x="0px" y="0px"
	 viewBox="0 0 24 24" style="enable-background:new 0 0 24 24;" xml:space="preserve">
<g>
	<path d="M21.5,5.5h-2.279c-0.215,0-0.406-0.137-0.474-0.342l-0.544-1.633C17.997,2.912,17.426,2.5,16.78,2.5h-5.559
		c-0.646,0-1.218,0.412-1.423,1.025L9.255,5.158C9.185,5.363,8.995,5.5,8.779,5.5H2.5C1.122,5.5,0,6.622,0,8v11
		c0,1.378,1.122,2.5,2.5,2.5h19c1.378,0,2.5-1.122,2.499-2.5V8C24,6.622,22.878,5.5,21.5,5.5z M23,19c0,0.827-0.673,1.5-1.5,1.5h-19
		C1.674,20.5,1,19.827,1,19V8c0-0.827,0.673-1.5,1.5-1.5h6.28c0.646,0,1.218-0.412,1.423-1.025l0.543-1.633
		c0.069-0.205,0.26-0.342,0.475-0.342h5.559c0.215,0,0.406,0.137,0.474,0.342l0.544,1.633C18.003,6.088,18.576,6.5,19.221,6.5H21.5
		C22.328,6.5,23,7.173,23,8V19z"/>
	<path d="M14,7.5c-3.309,0-6,2.691-6,6s2.691,6,6,6s6-2.691,6-6S17.31,7.5,14,7.5z M14,18.5c-2.757,0-5-2.243-5-5s2.243-5,5-5
		s5,2.243,5,5S16.758,18.5,14,18.5z"/>
	<path d="M14,9.5c-2.206,0-4,1.794-4,4s1.794,4,4,4s4-1.794,4-4S16.206,9.5,14,9.5z M14,16.5c-1.654,0-3-1.346-3-3s1.346-3,3-3
		s3,1.346,3,3S15.654,16.5,14,16.5z"/>
	<path d="M2.5,4.5h2C4.776,4.5,5,4.276,5,4S4.776,3.5,4.5,3.5h-2C2.224,3.5,2,3.724,2,4S2.224,4.5,2.5,4.5z"/>
	<path d="M4.5,7.5h-2C2.224,7.5,2,7.724,2,8s0.224,0.5,0.5,0.5h2C4.776,8.5,5,8.276,5,8S4.776,7.5,4.5,7.5z"/>
</g>
</svg>
