<?xml version="1.0" encoding="iso-8859-1"?>
<!-- Generator: Adobe Illustrator 19.0.0, SVG Export Plug-In . SVG Version: 6.00 Build 0)  -->
<svg version="1.1" id="Layer_1" xmlns="http://www.w3.org/2000/svg" xmlns:xlink="http://www.w3.org/1999/xlink" x="0px" y="0px"
	 viewBox="0 0 30 30" style="enable-background:new 0 0 30 30;" xml:space="preserve">
<g>
	<path d="M24.5,0h-4c-0.958,0-1.825,0.388-2.458,1.013c-0.097-0.008-0.196,0.002-0.287,0.052L6.42,7.425
		c-1.836,0.957-3.015,2.505-3.4,4.438l-1,3.5c-0.056,0.193,0.01,0.4,0.166,0.526C2.276,15.962,2.388,16,2.5,16
		c0.08,0,0.161-0.02,0.236-0.057L17,8.336v12.016l-0.556-0.22c-0.379-0.188-0.821-0.17-1.179,0.053
		c-0.361,0.222-0.576,0.608-0.576,1.032v0.193c0,0.104-0.064,0.159-0.102,0.182c-0.037,0.025-0.115,0.056-0.206,0.009l-1.098-0.549
		c-0.144-0.071-0.262-0.189-0.333-0.334l-0.879-1.755c-0.167-0.337-0.446-0.615-0.804-0.793l-2.565-1.127
		c-0.156-0.068-0.333-0.054-0.475,0.039C8.085,17.174,8,17.331,8,17.5v2.277c0,1.4,0.689,2.709,1.842,3.501l8.108,5.604
		C18.589,29.566,19.492,30,20.5,30h4c1.93,0,3.5-1.57,3.5-3.5v-23C28,1.57,26.43,0,24.5,0z M3.304,14.506l0.687-2.407
		c0.333-1.665,1.333-2.975,2.906-3.794l10.249-5.75C17.06,2.858,17,3.17,17,3.5v3.701L3.304,14.506z M10.409,22.456
		C9.526,21.849,9,20.848,9,19.778v-1.512l1.844,0.808c0.144,0.071,0.262,0.189,0.333,0.334l0.879,1.755
		c0.167,0.337,0.445,0.615,0.781,0.782l1.097,0.549c0.38,0.188,0.821,0.17,1.179-0.053c0.361-0.222,0.576-0.608,0.576-1.032v-0.193
		c0-0.104,0.064-0.159,0.102-0.182c0.037-0.022,0.114-0.054,0.245,0.009L17,21.426V26.5c0,0.188,0.027,0.37,0.056,0.55
		L10.409,22.456z M27,26.5c0,1.379-1.121,2.5-2.5,2.5h-4c-0.385,0-0.745-0.095-1.071-0.251c-0.036-0.061-0.082-0.117-0.145-0.159
		l-0.663-0.458C18.239,27.693,18,27.127,18,26.5v-23C18,2.121,19.121,1,20.5,1h4C25.879,1,27,2.121,27,3.5V26.5z"/>
	<path d="M14.277,6.053l-2,1c-0.247,0.124-0.347,0.424-0.224,0.671C12.141,7.898,12.317,8,12.5,8c0.075,0,0.151-0.017,0.224-0.052
		l2-1c0.247-0.124,0.347-0.424,0.224-0.671C14.824,6.03,14.524,5.929,14.277,6.053z"/>
	<path d="M23.5,22H23v-0.5c0-0.276-0.224-0.5-0.5-0.5S22,21.224,22,21.5V22h-0.5c-0.276,0-0.5,0.224-0.5,0.5s0.224,0.5,0.5,0.5H22
		v0.5c0,0.276,0.224,0.5,0.5,0.5s0.5-0.224,0.5-0.5V23h0.5c0.276,0,0.5-0.224,0.5-0.5S23.776,22,23.5,22z"/>
</g>
</svg>
