<?xml version="1.0" encoding="iso-8859-1"?>
<!-- Generator: Adobe Illustrator 19.0.0, SVG Export Plug-In . SVG Version: 6.00 Build 0)  -->
<svg version="1.1" id="Layer_1" xmlns="http://www.w3.org/2000/svg" xmlns:xlink="http://www.w3.org/1999/xlink" x="0px" y="0px"
	 viewBox="0 0 24 24" style="enable-background:new 0 0 24 24;" xml:space="preserve">
<g>
	<path d="M3.496,13.901L3.5,13c0-1.055,0.12-2.028,0.366-2.976c0.049-0.189-0.017-0.389-0.168-0.513
		c-0.15-0.123-0.362-0.147-0.536-0.062C2.06,9.989,1.5,11.015,1.5,12.5v6c0,0.678,0.538,1.394,1.644,2.188
		c0.087,0.063,0.189,0.094,0.292,0.094c0.096,0,0.191-0.027,0.275-0.083c0.173-0.114,0.258-0.323,0.213-0.526
		C3.47,18.129,3.484,15.786,3.496,13.901z"/>
	<path d="M20.838,9.449c-0.173-0.086-0.386-0.062-0.536,0.062c-0.151,0.124-0.217,0.324-0.168,0.513
		c0.246,0.948,0.366,1.921,0.366,2.978l0.004,0.9c0.012,1.883,0.026,4.227-0.428,6.271c-0.045,0.203,0.04,0.412,0.213,0.526
		c0.084,0.055,0.18,0.083,0.275,0.083c0.103,0,0.205-0.031,0.292-0.094c1.105-0.794,1.644-1.51,1.644-2.188v-6
		C22.5,11.015,21.94,9.989,20.838,9.449z"/>
	<path d="M10.702,8.901C10.788,8.965,10.892,9,11,9h2c0.107,0,0.212-0.035,0.298-0.099C13.83,8.507,18.5,4.972,18.5,2.5
		C18.5,0,13.945,0,12,0S5.5,0,5.5,2.5C5.5,4.972,10.17,8.507,10.702,8.901z"/>
	<path d="M4.773,7.575C5.16,6.712,5.418,6.089,5.476,5.307C5.484,5.2,5.457,5.094,5.4,5.003L5.32,4.88
		C5.285,4.826,5.249,4.773,5.217,4.718C5.12,4.551,4.931,4.454,4.739,4.471c-0.194,0.018-0.36,0.146-0.426,0.33
		c-0.34,0.95-0.579,1.957-0.709,2.994C3.573,8.042,3.728,8.274,3.967,8.339C4.011,8.351,4.056,8.357,4.1,8.357
		c0.194,0,0.377-0.114,0.458-0.3L4.773,7.575z"/>
	<path d="M20.391,7.785c-0.132-1.037-0.37-2.04-0.707-2.981c-0.065-0.183-0.23-0.312-0.425-0.33
		c-0.181-0.019-0.379,0.078-0.478,0.246l-0.183,0.284c-0.057,0.09-0.083,0.196-0.075,0.303c0.059,0.782,0.316,1.405,0.703,2.269
		l0.21,0.475c0.082,0.185,0.264,0.298,0.458,0.298c0.044,0,0.089-0.006,0.134-0.018C20.268,8.264,20.422,8.031,20.391,7.785z"/>
	<rect x="11.498" y="17" width="1.002" height="2"/>
	<path d="M13.002,16.001L13.002,16.001C13.276,16,13.5,15.777,13.5,15.502v-2.005c0-0.274-0.224-0.498-0.498-0.498H12.5v1.5
		c0,0.276-0.224,0.5-0.5,0.5s-0.5-0.224-0.5-0.5V13H11h-0.002c-0.274,0-0.498,0.223-0.498,0.498v2.005
		c0,0.274,0.224,0.498,0.498,0.498H13H13.002z"/>
	<path d="M19.5,13c0-2.367-0.631-3.776-1.187-5.019c-0.139-0.309-0.273-0.609-0.393-0.915c-0.063-0.16-0.202-0.276-0.37-0.309
		c-0.163-0.033-0.341,0.022-0.459,0.147c-1.186,1.251-2.513,2.292-3.198,2.8c-0.119,0.088-0.253,0.153-0.392,0.203v2.185
		c0.58,0.207,0.998,0.756,0.998,1.405v2.005c0,0.65-0.419,1.2-1,1.406V19.5c0,0.276-0.224,0.5-0.5,0.5h-2.002
		c-0.276,0-0.5-0.224-0.5-0.5v-2.592c-0.58-0.207-0.998-0.756-0.998-1.405v-2.005c0-0.65,0.419-1.2,1-1.406V9.909
		c-0.14-0.05-0.274-0.115-0.394-0.203C9.419,9.197,8.092,8.157,6.907,6.905C6.789,6.781,6.613,6.727,6.448,6.758
		C6.28,6.791,6.14,6.907,6.078,7.067C5.959,7.373,5.824,7.673,5.685,7.982C5.131,9.224,4.5,10.633,4.5,13l-0.004,0.909
		c-0.02,3.189-0.045,7.159,1.822,9.037C7.014,23.645,7.916,24,9,24h6c1.084,0,1.986-0.355,2.682-1.054
		c1.867-1.878,1.842-5.848,1.822-9.037L19.5,13z"/>
	<rect x="11.5" y="10" width="1.002" height="2"/>
</g>
</svg>
