<?xml version="1.0" encoding="iso-8859-1"?>
<!-- Generator: Adobe Illustrator 19.0.0, SVG Export Plug-In . SVG Version: 6.00 Build 0)  -->
<svg version="1.1" id="Layer_1" xmlns="http://www.w3.org/2000/svg" xmlns:xlink="http://www.w3.org/1999/xlink" x="0px" y="0px"
	 viewBox="0 0 24 24" style="enable-background:new 0 0 24 24;" xml:space="preserve">
<g>
	<path d="M19,0h-2c-0.652,0-1.256,0.191-1.78,0.503c-0.018,0.007-0.037,0.007-0.054,0.016L4.889,5.95
		C3.405,6.724,2.367,8.107,2.04,9.748l-0.531,2.654c-0.037,0.186,0.036,0.379,0.187,0.495C1.785,12.965,1.893,13,2,13
		c0.076,0,0.153-0.018,0.223-0.053L13.5,7.308v9.382l-0.45-0.225c-0.335-0.167-0.724-0.148-1.041,0.047
		c-0.319,0.196-0.508,0.537-0.508,0.91v0.156l-0.102,0.063l-0.877-0.439c-0.097-0.049-0.174-0.126-0.223-0.223l-0.703-1.404
		c-0.147-0.292-0.378-0.524-0.67-0.67l-1.702-0.852c-0.155-0.078-0.34-0.069-0.486,0.021c-0.147,0.092-0.237,0.253-0.237,0.426
		v1.422c0,1.153,0.567,2.231,1.527,2.89l7.105,4.648c0.013,0.009,0.029,0.005,0.043,0.013C15.709,23.801,16.33,24,17,24h2
		c1.93,0,3.5-1.57,3.5-3.5v-17C22.5,1.57,20.93,0,19,0z M2.691,11.595l0.33-1.652C3.289,8.602,4.138,7.47,5.354,6.836l8.33-4.402
		C13.575,2.772,13.5,3.126,13.5,3.5v2.69L2.691,11.595z M7.5,15.922V15.31l0.978,0.489c0.097,0.049,0.174,0.126,0.223,0.223
		l0.703,1.404c0.147,0.292,0.378,0.524,0.67,0.67l0.877,0.439c0.335,0.167,0.725,0.148,1.041-0.047
		c0.319-0.196,0.508-0.537,0.508-0.91v-0.156l0.103-0.062l0.897,0.449V20.5c0,0.26,0.033,0.512,0.087,0.756l-5.003-3.274
		C7.905,17.515,7.5,16.745,7.5,15.922z M21.5,20.5c0,1.379-1.121,2.5-2.5,2.5h-2c-1.379,0-2.5-1.121-2.5-2.5v-2.965
		c0-0.003,0-0.005,0-0.008V3.5C14.5,2.121,15.621,1,17,1h2c1.379,0,2.5,1.121,2.5,2.5V20.5z"/>
	<path d="M11.277,4.553l-2,1C9.03,5.677,8.93,5.977,9.053,6.224C9.141,6.398,9.317,6.5,9.5,6.5c0.075,0,0.151-0.017,0.224-0.052l2-1
		c0.247-0.124,0.347-0.424,0.224-0.671C11.824,4.53,11.525,4.429,11.277,4.553z"/>
	<path d="M19,17h-0.5v-0.5c0-0.276-0.224-0.5-0.5-0.5s-0.5,0.224-0.5,0.5V17H17c-0.276,0-0.5,0.224-0.5,0.5S16.724,18,17,18h0.5v0.5
		c0,0.276,0.224,0.5,0.5,0.5s0.5-0.224,0.5-0.5V18H19c0.276,0,0.5-0.224,0.5-0.5S19.276,17,19,17z"/>
</g>
</svg>
