<?xml version="1.0" encoding="iso-8859-1"?>
<!-- Generator: Adobe Illustrator 19.0.0, SVG Export Plug-In . SVG Version: 6.00 Build 0)  -->
<svg version="1.1" id="Layer_1" xmlns="http://www.w3.org/2000/svg" xmlns:xlink="http://www.w3.org/1999/xlink" x="0px" y="0px"
	 viewBox="0 0 30 30" style="enable-background:new 0 0 30 30;" xml:space="preserve">
<path d="M25.514,11.419c0.102-0.824,0.422-4.73-2.033-8.587C23.274,0.304,18.568,0,15,0c-3.648,0-8.5,0.311-8.5,3
	c0,0.099,0.023,0.202,0.035,0.304c-2.45,3.822-2.16,7.324-2.052,8.117C2.623,12.091,1.5,13.54,1.5,15.5V23
	c0,1.89,4.405,4.041,5.289,4.453c0.033,0.015,0.067,0.015,0.101,0.023c0.255,0.47,0.551,0.896,0.907,1.254
	C8.634,29.573,9.712,30,11,30h4h4c1.288,0,2.366-0.427,3.203-1.269c0.356-0.358,0.652-0.785,0.908-1.256
	c0.034-0.008,0.068-0.007,0.1-0.022C24.095,27.041,28.5,24.89,28.5,23v-7.5C28.5,13.539,27.375,12.09,25.514,11.419z M24.537,11.157
	c-0.394-0.076-0.81-0.123-1.25-0.137c-0.188-0.352-0.381-0.684-0.569-1.003c-0.637-1.079-1.18-2.022-1.207-3.414
	c0.709-0.761,1.308-1.549,1.658-2.307C24.742,7.342,24.619,10.288,24.537,11.157z M15,1c6.199,0,7.5,1.088,7.5,2
	c0,2.086-4.692,5.682-6.654,7H14c-0.089,0-0.168,0.03-0.241,0.07C11.99,8.803,7.5,5.125,7.5,3C7.5,2.088,8.801,1,15,1z M15.5,21v3
	h-1v-3H15.5z M12.998,19.998c-0.274,0-0.498-0.224-0.498-0.498l0.002-3c0-0.274,0.224-0.498,0.498-0.498l1.5-0.001V18.5
	c0,0.276,0.224,0.5,0.5,0.5s0.5-0.224,0.5-0.5v-2.499L17,16c0.274,0,0.498,0.224,0.498,0.498L17.5,19.5
	c0,0.274-0.224,0.498-0.498,0.498H12.998z M14.5,15v-4h1v4H14.5z M6.943,4.57c0.37,0.742,0.937,1.507,1.595,2.24
	C8.514,6.869,8.5,6.933,8.5,7c0,1.441-0.558,2.294-1.204,3.282c-0.153,0.233-0.308,0.477-0.462,0.729
	c-0.488,0.009-0.943,0.063-1.375,0.146C5.376,10.343,5.263,7.613,6.943,4.57z M2.5,23v-7.5c0-1.995,1.407-3.247,3.784-3.457
	C5.837,13.02,5.5,14.241,5.5,16l-0.005,1.137c-0.018,2.93-0.034,6.367,0.812,8.96C4.34,25.064,2.5,23.723,2.5,23z M21.494,28.025
	C20.843,28.682,20.026,29,19,29h-4c-0.002,0-0.003,0.001-0.005,0.001H11c-1.026,0-1.843-0.319-2.494-0.975
	C6.44,25.949,6.473,20.86,6.495,17.144L6.5,16c0-2.675,0.83-3.943,1.633-5.171C8.726,9.922,9.287,9.052,9.449,7.76
	c1.634,1.604,3.406,2.895,3.761,3.147C13.298,10.97,13.399,11,13.5,11v4.002H13c-0.826,0-1.498,0.672-1.498,1.498l-0.002,3
	c0,0.826,0.672,1.498,1.498,1.498H13.5V24.5c0,0.276,0.224,0.5,0.5,0.5h2c0.276,0,0.5-0.224,0.5-0.5v-3.502h0.502
	c0.826,0,1.498-0.672,1.498-1.498l-0.002-3.002C18.498,15.672,17.826,15,17,15h-0.5v-4.234c0.689-0.468,2.486-1.736,4.089-3.243
	c0.199,1.177,0.718,2.071,1.266,3.001C22.664,11.895,23.5,13.312,23.5,16l0.005,1.143C23.527,20.859,23.559,25.948,21.494,28.025z
	 M27.5,23c0,0.721-1.839,2.063-3.806,3.096c0.845-2.594,0.828-6.029,0.811-8.958L24.5,16c0-1.69-0.312-2.93-0.732-3.954
	c2.346,0.223,3.732,1.472,3.732,3.454V23z"/>
</svg>
