<?xml version="1.0" encoding="iso-8859-1"?>
<!-- Generator: Adobe Illustrator 19.0.0, SVG Export Plug-In . SVG Version: 6.00 Build 0)  -->
<svg version="1.1" id="Layer_1" xmlns="http://www.w3.org/2000/svg" xmlns:xlink="http://www.w3.org/1999/xlink" x="0px" y="0px"
	 viewBox="0 0 24 24" style="enable-background:new 0 0 24 24;" xml:space="preserve">
<path d="M20.499,9.322c0.004-0.82-0.119-3.992-2.018-6.985C18.278,0.007,13.9,0,12,0c-1.897,0-6.266,0.007-6.48,2.327
	c-1.907,3-2.028,6.181-2.023,6.996C2.18,9.813,1.5,10.868,1.5,12.5v6c0,1.569,3.153,3.15,3.785,3.451C5.354,21.984,5.428,22,5.5,22
	c0.041,0,0.076-0.023,0.116-0.033c0.2,0.362,0.425,0.699,0.702,0.978C7.014,23.646,7.916,24,9,24h3h3
	c1.084,0,1.986-0.354,2.682-1.055c0.278-0.279,0.502-0.616,0.702-0.978C18.424,21.977,18.459,22,18.5,22
	c0.072,0,0.146-0.016,0.215-0.049C19.347,21.65,22.5,20.069,22.5,18.5v-6C22.5,10.866,21.819,9.811,20.499,9.322z M18.313,7.983
	C17.877,7.008,17.5,6.165,17.5,5c0-0.039-0.014-0.073-0.022-0.109c0.271-0.37,0.501-0.742,0.676-1.108
	c1.12,2.213,1.313,4.402,1.34,5.285c-0.231-0.032-0.483-0.044-0.74-0.052C18.611,8.651,18.46,8.31,18.313,7.983z M12,1
	c4.546,0,5.5,0.815,5.5,1.5c0,1.45-2.809,4.095-4.667,5.5h-1.665C9.309,6.595,6.5,3.95,6.5,2.5C6.5,1.815,7.454,1,12,1z M11.498,17
	H12.5v2h-1.002V17z M13.002,16H13h-2.002c-0.274,0-0.498-0.224-0.498-0.498v-2.004c0-0.274,0.224-0.498,0.498-0.498H11h0.5v1.5
	c0,0.276,0.224,0.5,0.5,0.5s0.5-0.224,0.5-0.5V13h0.502c0.274,0,0.498,0.224,0.498,0.498v2.004C13.5,15.776,13.276,16,13.002,16z
	 M12.502,12H11.5V9h1.002V12z M5.844,3.778C6.019,4.146,6.249,4.52,6.522,4.891C6.514,4.927,6.5,4.961,6.5,5
	c0,1.165-0.377,2.008-0.813,2.983C5.54,8.31,5.389,8.651,5.245,9.015C4.987,9.023,4.733,9.036,4.501,9.068
	C4.529,8.186,4.721,5.994,5.844,3.778z M2.5,18.5v-6c0-1.572,0.73-2.33,2.398-2.471C4.664,10.842,4.5,11.796,4.5,13l-0.004,0.909
	c-0.014,2.225-0.015,4.816,0.61,6.826C3.867,20.057,2.5,19.068,2.5,18.5z M16.973,22.24C16.465,22.752,15.819,23,15,23h-3H9
	c-0.82,0-1.465-0.248-1.973-0.76c-1.573-1.583-1.55-5.321-1.531-8.325L5.5,13c0-2.152,0.559-3.401,1.1-4.608
	c0.345-0.773,0.676-1.515,0.822-2.414C8.59,7.248,9.953,8.33,10.5,8.748v3.343c-0.581,0.206-1,0.756-1,1.406v2.004
	c0,0.65,0.418,1.199,0.998,1.406V19.5c0,0.276,0.224,0.5,0.5,0.5H13c0.276,0,0.5-0.224,0.5-0.5v-2.592c0.581-0.206,1-0.756,1-1.406
	v-2.004c0-0.65-0.418-1.199-0.998-1.406V8.747c0.549-0.419,1.909-1.5,3.076-2.769c0.146,0.9,0.476,1.641,0.822,2.414
	c0.541,1.207,1.1,2.456,1.1,4.608l0.004,0.915C18.523,16.919,18.546,20.657,16.973,22.24z M21.5,18.5
	c0,0.529-1.258,1.506-2.607,2.238c0.627-2.01,0.625-4.603,0.611-6.829L19.5,13c0-1.204-0.164-2.158-0.398-2.971
	C20.77,10.17,21.5,10.928,21.5,12.5V18.5z"/>
</svg>
