<?xml version="1.0" encoding="iso-8859-1"?>
<!-- Generator: Adobe Illustrator 19.0.0, SVG Export Plug-In . SVG Version: 6.00 Build 0)  -->
<svg version="1.1" id="Layer_1" xmlns="http://www.w3.org/2000/svg" xmlns:xlink="http://www.w3.org/1999/xlink" x="0px" y="0px"
	 viewBox="0 0 30 30" style="enable-background:new 0 0 30 30;" xml:space="preserve">
<g>
	<path d="M27,0H14c-1.654,0-3,1.346-3,3v2.003c0,0.164,0.08,0.316,0.214,0.41c0.133,0.093,0.305,0.115,0.458,0.059
		C12.96,5,14.13,5,14.63,5c2.645,0,3.975,1.185,4.624,2.179c1.195,1.825,0.717,3.196,0.106,4.024
		c-0.112,0.152-0.129,0.354-0.044,0.522s0.258,0.274,0.446,0.274h1.127l-0.88,4.402c-0.044,0.221,0.064,0.444,0.266,0.545
		c0.071,0.036,0.148,0.053,0.224,0.053c0.138,0,0.274-0.058,0.372-0.165l4.351-4.835H27c1.654,0,3-1.346,3-3v-6
		C30,1.346,28.654,0,27,0z"/>
	<path d="M19.743,24.045l-3.831-0.957l-0.326-1.304c1.025-1.015,1.727-2.409,1.935-3.839c0.568-0.16,1.008-0.647,1.084-1.258l0.25-2
		c0.053-0.422-0.077-0.849-0.357-1.169c-0.164-0.188-0.371-0.33-0.6-0.417l0.092-1.883l0.374-0.374
		c0.563-0.599,1.03-1.626,0.054-3.117c-0.75-1.146-2.025-1.726-3.788-1.726c-0.696,0-2.298,0-3.79,1.002C6.58,7.091,6,9.07,6,11
		c0,0.449,0.109,1.46,0.181,2.07c-0.257,0.081-0.49,0.232-0.672,0.438c-0.285,0.323-0.417,0.752-0.364,1.179l0.25,2
		c0.082,0.652,0.577,1.165,1.203,1.287c0.207,1.375,0.872,2.724,1.839,3.722l-0.348,1.393l-3.831,0.957C1.75,24.672,0,26.914,0,29.5
		C0,29.776,0.224,30,0.5,30h23c0.276,0,0.5-0.226,0.5-0.502C24,26.914,22.249,24.672,19.743,24.045z"/>
</g>
</svg>
