<?xml version="1.0" encoding="iso-8859-1"?>
<!-- Generator: Adobe Illustrator 19.0.0, SVG Export Plug-In . SVG Version: 6.00 Build 0)  -->
<svg version="1.1" id="Layer_1" xmlns="http://www.w3.org/2000/svg" xmlns:xlink="http://www.w3.org/1999/xlink" x="0px" y="0px"
	 viewBox="0 0 24 24" style="enable-background:new 0 0 24 24;" xml:space="preserve">
<g>
	<path d="M21.499,0.001h-10c-1.378,0-2.5,1.122-2.5,2.5v1c0,0.146,0.064,0.285,0.175,0.38l0.218,0.187
		C9.513,4.171,9.676,4.212,9.83,4.175c0.756-0.176,1.388-0.176,1.728-0.176c2.214,0,3.338,1.007,3.892,1.852
		c0.705,1.076,0.811,2.195,0.301,3.151c-0.11,0.207-0.063,0.462,0.115,0.615l0.308,0.264c0.074,0.063,0.165,0.104,0.26,0.116
		l-0.43,3.442c-0.027,0.218,0.091,0.428,0.292,0.518c0.066,0.03,0.135,0.044,0.205,0.044c0.141,0,0.279-0.06,0.376-0.171
		l3.351-3.829h1.273c1.378,0,2.5-1.122,2.5-2.5v-5C23.999,1.123,22.877,0.001,21.499,0.001z"/>
	<path d="M15.585,19.125l-2.935-0.734l-0.224-0.897c0.779-0.791,1.316-1.857,1.491-2.954c0.453-0.155,0.797-0.558,0.859-1.055
		l0.196-1.565c0.045-0.361-0.066-0.726-0.306-1c-0.122-0.141-0.272-0.251-0.439-0.326l0.066-1.355l0.266-0.266
		c0.468-0.497,0.856-1.347,0.054-2.573C14.004,5.471,12.976,5,11.557,5c-0.55,0-1.813,0-3,0.785
		C5.158,5.866,4.695,7.463,4.695,9.022c0,0.34,0.076,1.061,0.132,1.546c-0.186,0.073-0.354,0.19-0.489,0.343
		c-0.244,0.275-0.357,0.643-0.312,1.008l0.196,1.565c0.066,0.531,0.454,0.955,0.953,1.083c0.174,1.052,0.683,2.08,1.415,2.855
		l-0.242,0.969l-2.935,0.734c-2.01,0.502-3.414,2.301-3.414,4.374c0,0.276,0.224,0.5,0.5,0.5h18c0.276,0,0.5-0.226,0.5-0.502
		C18.999,21.425,17.595,19.626,15.585,19.125z"/>
</g>
</svg>
