<?xml version="1.0" encoding="iso-8859-1"?>
<!-- Generator: Adobe Illustrator 19.0.0, SVG Export Plug-In . SVG Version: 6.00 Build 0)  -->
<svg version="1.1" id="Layer_1" xmlns="http://www.w3.org/2000/svg" xmlns:xlink="http://www.w3.org/1999/xlink" x="0px" y="0px"
	 viewBox="0 0 30 30" style="enable-background:new 0 0 30 30;" xml:space="preserve">
<g>
	<path d="M13.5,5C13.776,5,14,4.776,14,4.5v-4C14,0.224,13.776,0,13.5,0S13,0.224,13,0.5v4C13,4.776,13.224,5,13.5,5z"/>
	<path d="M9,9.5C9,9.224,8.776,9,8.5,9h-4C4.224,9,4,9.224,4,9.5S4.224,10,4.5,10h4C8.776,10,9,9.776,9,9.5z"/>
	<path d="M18,9.5c0,0.276,0.224,0.5,0.5,0.5h4c0.276,0,0.5-0.224,0.5-0.5S22.776,9,22.5,9h-4C18.224,9,18,9.224,18,9.5z"/>
	<path d="M25.854,21.146l-12-12c-0.144-0.142-0.357-0.185-0.545-0.108C13.122,9.115,13,9.298,13,9.5v17
		c0,0.195,0.114,0.373,0.291,0.454c0.177,0.083,0.386,0.053,0.534-0.074l3.045-2.61l3.197,5.482C20.161,29.911,20.328,30,20.5,30
		c0.084,0,0.17-0.021,0.249-0.065l3.5-2c0.116-0.067,0.2-0.177,0.235-0.305c0.034-0.129,0.016-0.267-0.051-0.382L21.371,22H25.5
		c0.202,0,0.385-0.122,0.462-0.309C26.04,21.504,25.997,21.289,25.854,21.146z M20.5,21c-0.179,0-0.343,0.096-0.433,0.251
		c-0.09,0.155-0.089,0.347,0.001,0.501l3.246,5.564l-2.632,1.504l-3.25-5.572c-0.075-0.128-0.203-0.217-0.349-0.241
		C17.056,23.002,17.028,23,17,23c-0.119,0-0.234,0.042-0.325,0.12L14,25.413V10.707L24.293,21H20.5z"/>
	<path d="M7.489,2.783c-0.195-0.195-0.512-0.195-0.707,0s-0.195,0.512,0,0.707L9.61,6.318c0.098,0.097,0.226,0.146,0.354,0.146
		s0.256-0.048,0.353-0.146c0.195-0.195,0.195-0.512,0-0.707L7.489,2.783z"/>
	<path d="M17.036,6.464c0.128,0,0.256-0.048,0.353-0.146l2.828-2.828c0.195-0.195,0.195-0.512,0-0.707s-0.512-0.195-0.707,0
		l-2.828,2.828c-0.195,0.195-0.195,0.512,0,0.707C16.78,6.415,16.908,6.464,17.036,6.464z"/>
	<path d="M9.61,12.682l-2.828,2.829c-0.195,0.195-0.195,0.512,0,0.707c0.098,0.097,0.226,0.146,0.354,0.146
		c0.128,0,0.256-0.049,0.353-0.146l2.828-2.829c0.195-0.195,0.195-0.512,0-0.707S9.805,12.487,9.61,12.682z"/>
</g>
</svg>
