<?xml version="1.0" encoding="iso-8859-1"?>
<!-- Generator: Adobe Illustrator 19.0.0, SVG Export Plug-In . SVG Version: 6.00 Build 0)  -->
<svg version="1.1" id="Layer_1" xmlns="http://www.w3.org/2000/svg" xmlns:xlink="http://www.w3.org/1999/xlink" x="0px" y="0px"
	 viewBox="0 0 30 30" style="enable-background:new 0 0 30 30;" xml:space="preserve">
<g>
	<path d="M13.5,5C13.776,5,14,4.776,14,4.5v-4C14,0.224,13.776,0,13.5,0S13,0.224,13,0.5v4C13,4.776,13.224,5,13.5,5z"/>
	<path d="M9,9.5C9,9.224,8.776,9,8.5,9h-4C4.224,9,4,9.224,4,9.5S4.224,10,4.5,10h4C8.776,10,9,9.776,9,9.5z"/>
	<path d="M18,9.5c0,0.276,0.224,0.5,0.5,0.5h4c0.276,0,0.5-0.224,0.5-0.5S22.776,9,22.5,9h-4C18.224,9,18,9.224,18,9.5z"/>
	<path d="M25.853,21.146l-12-12c-0.143-0.142-0.358-0.185-0.545-0.108C13.122,9.115,13,9.298,13,9.5v17
		c0,0.195,0.113,0.373,0.291,0.454c0.175,0.08,0.386,0.053,0.534-0.075l3.045-2.609l3.198,5.482C20.161,29.911,20.328,30,20.5,30
		c0.085,0,0.17-0.021,0.248-0.066l3.5-2c0.116-0.066,0.2-0.176,0.235-0.305c0.034-0.129,0.016-0.266-0.052-0.381L21.37,22h4.13
		c0.202,0,0.385-0.122,0.462-0.309S25.996,21.29,25.853,21.146z"/>
	<path d="M7.489,2.783c-0.195-0.195-0.512-0.195-0.707,0s-0.195,0.512,0,0.707l2.829,2.828c0.098,0.098,0.226,0.146,0.354,0.146
		s0.256-0.049,0.354-0.146c0.195-0.195,0.195-0.512,0-0.707L7.489,2.783z"/>
	<path d="M17.035,6.464c0.128,0,0.256-0.049,0.354-0.146l2.829-2.828c0.195-0.195,0.195-0.512,0-0.707s-0.512-0.195-0.707,0
		l-2.829,2.828c-0.195,0.195-0.195,0.512,0,0.707C16.779,6.416,16.907,6.464,17.035,6.464z"/>
	<path d="M9.611,12.682L6.782,15.51c-0.195,0.195-0.195,0.512,0,0.707c0.098,0.098,0.226,0.146,0.354,0.146s0.256-0.049,0.354-0.146
		l2.829-2.828c0.195-0.195,0.195-0.512,0-0.707C10.123,12.487,9.807,12.487,9.611,12.682z"/>
</g>
</svg>
