<?xml version="1.0" encoding="iso-8859-1"?>
<!-- Generator: Adobe Illustrator 19.0.0, SVG Export Plug-In . SVG Version: 6.00 Build 0)  -->
<svg version="1.1" id="Layer_1" xmlns="http://www.w3.org/2000/svg" xmlns:xlink="http://www.w3.org/1999/xlink" x="0px" y="0px"
	 viewBox="0 0 24 24" style="enable-background:new 0 0 24 24;" xml:space="preserve">
<g>
	<path d="M14.5,4C14.776,4,15,3.776,15,3.5v-1C15,2.224,14.776,2,14.5,2S14,2.224,14,2.5v1C14,3.776,14.224,4,14.5,4z"/>
	<path d="M8.49,6.197c0.098,0.098,0.226,0.146,0.354,0.146S9.1,6.294,9.198,6.197c0.195-0.195,0.195-0.512,0-0.707L8.491,4.783
		c-0.195-0.195-0.512-0.195-0.707,0s-0.195,0.512,0,0.707L8.49,6.197z"/>
	<path d="M22.5,12h1c0.276,0,0.5-0.224,0.5-0.5S23.776,11,23.5,11h-1c-0.276,0-0.5,0.224-0.5,0.5S22.224,12,22.5,12z"/>
	<path d="M20.157,6.343c0.128,0,0.256-0.049,0.354-0.146l0.707-0.707c0.195-0.195,0.195-0.512,0-0.707s-0.512-0.195-0.707,0
		L19.804,5.49c-0.195,0.195-0.195,0.512,0,0.707C19.901,6.294,20.029,6.343,20.157,6.343z"/>
	<path d="M12.662,6.282c2.021,0.529,3.769,1.778,4.921,3.515c0.101,0.151,0.276,0.232,0.457,0.222
		c0.681-0.056,1.364,0.011,2.069,0.191c0.041,0.011,0.083,0.016,0.124,0.016c0.003,0,0.007,0,0.01,0c0.289,0.019,0.51-0.22,0.51-0.5
		c0-0.103-0.031-0.198-0.084-0.277C19.785,6.782,17.322,5,14.5,5c-0.565,0-1.228,0.115-1.866,0.322
		c-0.211,0.069-0.352,0.269-0.345,0.49C12.296,6.034,12.448,6.225,12.662,6.282z"/>
	<path d="M18.5,11c-0.413,0-0.834,0.056-1.278,0.169C15.96,8.623,13.369,7,10.5,7c-3.658,0-6.776,2.655-7.387,6.229
		C1.264,13.826,0,15.536,0,17.5C0,19.981,2.019,22,4.5,22h14c3.033,0,5.5-2.467,5.5-5.5S21.533,11,18.5,11z"/>
</g>
</svg>
