<?xml version="1.0" encoding="iso-8859-1"?>
<!-- Generator: Adobe Illustrator 19.0.0, SVG Export Plug-In . SVG Version: 6.00 Build 0)  -->
<svg version="1.1" id="Layer_1" xmlns="http://www.w3.org/2000/svg" xmlns:xlink="http://www.w3.org/1999/xlink" x="0px" y="0px"
	 viewBox="0 0 24 24" style="enable-background:new 0 0 24 24;" xml:space="preserve">
<path d="M18.5,8.5c-0.412,0-0.834,0.055-1.278,0.169C15.96,6.123,13.369,4.5,10.5,4.5c-3.658,0-6.777,2.655-7.387,6.229
	C1.264,11.326,0,13.036,0,15c0,2.481,2.019,4.5,4.5,4.5h14c3.033,0,5.5-2.467,5.5-5.5S21.533,8.5,18.5,8.5z M18.5,18.5h-14
	C2.57,18.5,1,16.93,1,15c0-1.615,1.101-3.01,2.679-3.391c0.201-0.049,0.352-0.217,0.378-0.424C4.463,7.944,7.233,5.5,10.5,5.5
	c2.616,0,4.966,1.557,5.988,3.966c0.101,0.239,0.368,0.36,0.616,0.28C17.607,9.581,18.064,9.5,18.5,9.5c2.481,0,4.5,2.019,4.5,4.5
	S20.981,18.5,18.5,18.5z"/>
</svg>
