<?xml version="1.0" encoding="iso-8859-1"?>
<!-- Generator: Adobe Illustrator 19.0.0, SVG Export Plug-In . SVG Version: 6.00 Build 0)  -->
<svg version="1.1" id="Layer_1" xmlns="http://www.w3.org/2000/svg" xmlns:xlink="http://www.w3.org/1999/xlink" x="0px" y="0px"
	 viewBox="0 0 30 30" style="enable-background:new 0 0 30 30;" xml:space="preserve">
<path d="M25,4.5h-1.5c0-1.654-1.346-3-3-3h-11c-1.654,0-3,1.346-3,3H5C4.724,4.5,4.5,4.724,4.5,5v2c0,0.276,0.224,0.5,0.5,0.5h1.566
	l2.939,20.571C9.54,28.317,9.751,28.5,10,28.5h10c0.249,0,0.46-0.183,0.495-0.43L23.434,7.5H25c0.276,0,0.5-0.224,0.5-0.5V5
	C25.5,4.724,25.276,4.5,25,4.5z M9.5,2.5h11c1.103,0,2,0.897,2,2h-15C7.5,3.397,8.397,2.5,9.5,2.5z M20.281,22.5H9.72l-1.572-11
	h13.705L20.281,22.5z M19.567,27.5h-9.133l-0.572-4h10.276L19.567,27.5z M21.995,10.5H8.005l-0.429-3h14.848L21.995,10.5z M24.5,6.5
	H23H7H5.5v-1H7h16h1.5V6.5z"/>
</svg>
