<?xml version="1.0" encoding="iso-8859-1"?>
<!-- Generator: Adobe Illustrator 19.0.0, SVG Export Plug-In . SVG Version: 6.00 Build 0)  -->
<svg version="1.1" id="Layer_1" xmlns="http://www.w3.org/2000/svg" xmlns:xlink="http://www.w3.org/1999/xlink" x="0px" y="0px"
	 viewBox="0 0 30 30" style="enable-background:new 0 0 30 30;" xml:space="preserve">
<g>
	<path d="M25,4.5h-1.5c0-1.654-1.346-3-3-3h-11c-1.654,0-3,1.346-3,3H5C4.724,4.5,4.5,4.724,4.5,5v2c0,0.276,0.224,0.5,0.5,0.5
		h1.566l0.367,2.571C6.969,10.317,7.18,10.5,7.429,10.5h15.143c0.249,0,0.46-0.183,0.495-0.429L23.434,7.5H25
		c0.276,0,0.5-0.224,0.5-0.5V5C25.5,4.724,25.276,4.5,25,4.5z M24.5,6.5H23H7H5.5v-1H7h16h1.5V6.5z"/>
	<path d="M22.286,11.5H7.714c-0.145,0-0.283,0.063-0.378,0.172s-0.138,0.255-0.117,0.398l1.429,10
		c0.035,0.247,0.246,0.43,0.495,0.43h11.715c0.249,0,0.46-0.183,0.495-0.429l1.429-10c0.021-0.144-0.023-0.289-0.117-0.398
		C22.569,11.563,22.431,11.5,22.286,11.5z"/>
	<path d="M20.571,23.5H9.429c-0.145,0-0.283,0.063-0.378,0.172c-0.095,0.109-0.138,0.255-0.117,0.398l0.571,4
		C9.54,28.317,9.751,28.5,10,28.5h10c0.249,0,0.46-0.183,0.495-0.429l0.571-4c0.021-0.144-0.022-0.289-0.117-0.398
		C20.854,23.563,20.716,23.5,20.571,23.5z"/>
</g>
</svg>
