<?xml version="1.0" encoding="iso-8859-1"?>
<!-- Generator: Adobe Illustrator 19.0.0, SVG Export Plug-In . SVG Version: 6.00 Build 0)  -->
<svg version="1.1" id="Layer_1" xmlns="http://www.w3.org/2000/svg" xmlns:xlink="http://www.w3.org/1999/xlink" x="0px" y="0px"
	 viewBox="0 0 30 30" style="enable-background:new 0 0 30 30;" xml:space="preserve">
<g>
	<circle cx="15" cy="15" r="1"/>
	<path d="M15,9c-3.309,0-6,2.691-6,6s2.691,6,6,6s6-2.691,6-6S18.309,9,15,9z M15,20c-2.757,0-5-2.243-5-5s2.243-5,5-5s5,2.243,5,5
		S17.757,20,15,20z"/>
	<path d="M15,0C6.729,0,0,6.729,0,15s6.729,15,15,15s15-6.729,15-15S23.271,0,15,0z M15,29C7.28,29,1,22.72,1,15S7.28,1,15,1
		s14,6.28,14,14S22.72,29,15,29z"/>
	<path d="M24.192,5.809c-0.195-0.195-0.512-0.195-0.707,0s-0.195,0.512,0,0.707c2.262,2.262,3.509,5.276,3.509,8.485
		s-1.246,6.222-3.509,8.485c-0.195,0.195-0.195,0.512,0,0.707c0.098,0.097,0.226,0.146,0.354,0.146s0.256-0.049,0.353-0.146
		c2.451-2.451,3.802-5.716,3.802-9.192S26.644,8.261,24.192,5.809z"/>
	<path d="M15.478,26.985c-3.334,0.136-6.608-1.144-8.964-3.5c-0.195-0.195-0.512-0.195-0.707,0s-0.195,0.512,0,0.707
		c2.433,2.432,5.761,3.802,9.2,3.802c0.17,0,0.341-0.003,0.51-0.01c0.276-0.011,0.491-0.243,0.48-0.519S15.728,26.968,15.478,26.985
		z"/>
</g>
</svg>
