<?xml version="1.0" encoding="iso-8859-1"?>
<!-- Generator: Adobe Illustrator 19.0.0, SVG Export Plug-In . SVG Version: 6.00 Build 0)  -->
<svg version="1.1" id="Layer_1" xmlns="http://www.w3.org/2000/svg" xmlns:xlink="http://www.w3.org/1999/xlink" x="0px" y="0px"
	 viewBox="0 0 24 24" style="enable-background:new 0 0 24 24;" xml:space="preserve">
<g>
	<path d="M12,0C5.383,0,0,5.383,0,12s5.383,12,12,12s12-5.383,12-12S18.617,0,12,0z M12,23C5.935,23,1,18.065,1,12S5.935,1,12,1
		s11,4.935,11,11S18.065,23,12,23z"/>
	<path d="M12,20.996c-2.406,0-4.666-0.935-6.363-2.632c-0.195-0.195-0.512-0.195-0.707,0s-0.195,0.512,0,0.707
		c1.885,1.886,4.396,2.925,7.07,2.925c0.276,0,0.5-0.224,0.5-0.5S12.276,20.996,12,20.996z"/>
	<path d="M19.07,4.929c-0.195-0.195-0.512-0.195-0.707,0s-0.195,0.512,0,0.707C20.06,7.333,20.995,9.593,20.995,12
		s-0.935,4.667-2.632,6.364c-0.195,0.195-0.195,0.512,0,0.707c0.098,0.097,0.226,0.146,0.354,0.146s0.256-0.049,0.353-0.146
		c1.886-1.886,2.925-4.397,2.925-7.071S20.956,6.815,19.07,4.929z"/>
	<path d="M12,7c-2.757,0-5,2.243-5,5s2.243,5,5,5s5-2.243,5-5S14.757,7,12,7z M12,16c-2.206,0-4-1.794-4-4s1.794-4,4-4s4,1.794,4,4
		S14.206,16,12,16z"/>
	<circle cx="12" cy="12" r="1"/>
</g>
</svg>
