<?xml version="1.0" encoding="iso-8859-1"?>
<!-- Generator: Adobe Illustrator 19.0.0, SVG Export Plug-In . SVG Version: 6.00 Build 0)  -->
<svg version="1.1" id="Layer_1" xmlns="http://www.w3.org/2000/svg" xmlns:xlink="http://www.w3.org/1999/xlink" x="0px" y="0px"
	 viewBox="0 0 30 30" style="enable-background:new 0 0 30 30;" xml:space="preserve">
<g>
	<path d="M27,5H3C1.346,5,0,6.346,0,8v1h30V8C30,6.346,28.654,5,27,5z"/>
	<rect y="10" width="30" height="2"/>
	<path d="M0,22c0,1.654,1.346,3,3,3h24c1.689,0,3-1.881,3-3.5V13H0V22z M4.5,18h5c0.276,0,0.5,0.224,0.5,0.5S9.776,19,9.5,19h-5
		C4.224,19,4,18.776,4,18.5S4.224,18,4.5,18z M4.5,20h8c0.276,0,0.5,0.224,0.5,0.5S12.776,21,12.5,21h-8C4.224,21,4,20.776,4,20.5
		S4.224,20,4.5,20z"/>
</g>
</svg>
