<?xml version="1.0" encoding="iso-8859-1"?>
<!-- Generator: Adobe Illustrator 19.0.0, SVG Export Plug-In . SVG Version: 6.00 Build 0)  -->
<svg version="1.1" id="Layer_1" xmlns="http://www.w3.org/2000/svg" xmlns:xlink="http://www.w3.org/1999/xlink" x="0px" y="0px"
	 viewBox="0 0 30 30" style="enable-background:new 0 0 30 30;" xml:space="preserve">
<g>
	<path d="M14.658,22.919c0.272-0.043,0.459-0.299,0.417-0.572c-0.102-0.647-0.182-1.309-0.261-1.969
		c-0.033-0.273-0.28-0.466-0.556-0.437c-0.274,0.033-0.47,0.282-0.437,0.556c0.081,0.672,0.163,1.346,0.266,2.005
		c0.039,0.247,0.252,0.422,0.494,0.422C14.605,22.925,14.632,22.923,14.658,22.919z"/>
	<path d="M10.208,11.595c-0.607-0.234-1.294-0.401-2.042-0.497c-0.272-0.026-0.524,0.16-0.559,0.433
		c-0.035,0.274,0.159,0.524,0.433,0.559c0.668,0.085,1.276,0.232,1.808,0.437c0.06,0.023,0.12,0.034,0.18,0.034
		c0.201,0,0.39-0.122,0.466-0.32C10.594,11.984,10.466,11.694,10.208,11.595z"/>
	<path d="M13.382,14.395c-0.358-0.665-0.805-1.235-1.328-1.696c-0.207-0.182-0.522-0.163-0.706,0.045
		c-0.182,0.208-0.162,0.523,0.045,0.706c0.44,0.388,0.803,0.852,1.108,1.419c0.09,0.168,0.263,0.263,0.441,0.263
		c0.08,0,0.161-0.019,0.236-0.06C13.421,14.94,13.513,14.637,13.382,14.395z"/>
	<path d="M14.132,18.945c0.273-0.042,0.461-0.297,0.418-0.57c-0.121-0.791-0.251-1.432-0.41-2.016
		c-0.072-0.267-0.345-0.426-0.613-0.352c-0.267,0.072-0.424,0.347-0.352,0.613c0.148,0.547,0.271,1.153,0.387,1.906
		c0.038,0.248,0.251,0.424,0.494,0.424C14.081,18.951,14.106,18.949,14.132,18.945z"/>
	<path d="M15.47,24.25c-0.074-0.267-0.35-0.421-0.616-0.348c-0.266,0.074-0.422,0.35-0.348,0.616c0.208,0.75,0.46,1.391,0.768,1.961
		c0.09,0.167,0.262,0.262,0.44,0.262c0.081,0,0.162-0.02,0.238-0.061c0.243-0.131,0.333-0.435,0.201-0.678
		C15.881,25.5,15.658,24.927,15.47,24.25z"/>
	<path d="M22.5,28.999c-0.687,0-1.328-0.045-1.906-0.133c-0.281-0.045-0.528,0.146-0.57,0.419s0.146,0.528,0.418,0.57
		C21.07,29.951,21.762,30,22.499,30c0.276,0,0.5-0.224,0.5-0.5S22.776,28.999,22.5,28.999z"/>
	<path d="M18.795,28.383c-0.583-0.241-1.1-0.561-1.533-0.951c-0.205-0.185-0.522-0.169-0.706,0.037
		c-0.185,0.205-0.169,0.521,0.037,0.706c0.518,0.467,1.131,0.848,1.821,1.133c0.062,0.025,0.127,0.038,0.19,0.038
		c0.196,0,0.383-0.116,0.462-0.31C19.172,28.781,19.051,28.489,18.795,28.383z"/>
	<path d="M4.5-0.001c-2.481,0-4.5,2.019-4.5,4.5c0,2.298,3.67,7.678,4.088,8.284c0.094,0.135,0.248,0.216,0.412,0.216
		s0.318-0.081,0.412-0.216C5.33,12.177,9,6.797,9,4.499C9,2.018,6.981-0.001,4.5-0.001z M4.5,4.999c-0.276,0-0.5-0.224-0.5-0.5
		s0.224-0.5,0.5-0.5S5,4.223,5,4.499S4.776,4.999,4.5,4.999z"/>
	<path d="M24.5,11.999c-3.033,0-5.5,2.571-5.5,5.731c0,2.985,4.857,11.647,5.064,12.014c0.088,0.158,0.255,0.255,0.436,0.255
		c0.181,0,0.347-0.097,0.435-0.255C25.142,29.377,30,20.715,30,17.73C30,14.57,27.533,11.999,24.5,11.999z M24.5,18.999
		c-0.827,0-1.5-0.673-1.5-1.5s0.673-1.5,1.5-1.5s1.5,0.673,1.5,1.5S25.327,18.999,24.5,18.999z"/>
</g>
</svg>
