<?xml version="1.0" encoding="iso-8859-1"?>
<!-- Generator: Adobe Illustrator 19.0.0, SVG Export Plug-In . SVG Version: 6.00 Build 0)  -->
<svg version="1.1" id="Layer_1" xmlns="http://www.w3.org/2000/svg" xmlns:xlink="http://www.w3.org/1999/xlink" x="0px" y="0px"
	 viewBox="0 0 30 30" style="enable-background:new 0 0 30 30;" xml:space="preserve">
<g>
	<path d="M4.5,0C2.019,0,0,2.019,0,4.5c0,2.299,3.67,7.679,4.089,8.284C4.182,12.919,4.336,13,4.5,13s0.318-0.081,0.411-0.216
		C5.33,12.179,9,6.799,9,4.5C9,2.019,6.981,0,4.5,0z M4.5,11.605C3.242,9.703,1,6.001,1,4.5C1,2.57,2.57,1,4.5,1S8,2.57,8,4.5
		C8,6,5.758,9.702,4.5,11.605z"/>
	<path d="M24.5,12c-3.032,0-5.5,2.57-5.5,5.73c0,2.987,4.857,11.648,5.064,12.015C24.153,29.902,24.319,30,24.5,30
		s0.347-0.098,0.436-0.255C25.143,29.377,30,20.716,30,17.73C30,14.57,27.532,12,24.5,12z M24.5,28.466
		C22.931,25.585,20,19.783,20,17.73c0-2.608,2.019-4.73,4.5-4.73s4.5,2.122,4.5,4.73C29,19.781,26.069,25.585,24.5,28.466z"/>
	<path d="M13.381,14.394c-0.363-0.673-0.798-1.227-1.328-1.696c-0.208-0.183-0.523-0.162-0.706,0.044
		c-0.183,0.207-0.163,0.523,0.044,0.706c0.44,0.389,0.803,0.854,1.109,1.421c0.09,0.168,0.262,0.263,0.44,0.263
		c0.081,0,0.163-0.02,0.238-0.06C13.421,14.94,13.512,14.637,13.381,14.394z"/>
	<path d="M10.207,11.596c-0.607-0.235-1.294-0.403-2.042-0.498c-0.273-0.038-0.525,0.158-0.56,0.433s0.16,0.525,0.433,0.56
		c0.668,0.085,1.277,0.233,1.808,0.438c0.06,0.023,0.12,0.034,0.181,0.034c0.201,0,0.39-0.122,0.465-0.321
		C10.593,11.985,10.465,11.696,10.207,11.596z"/>
	<path d="M22.499,29c-0.687,0-1.328-0.045-1.905-0.134c-0.278-0.039-0.528,0.146-0.57,0.418c-0.042,0.273,0.146,0.528,0.418,0.57
		C21.07,29.951,21.762,30,22.5,30c0.276,0,0.499-0.224,0.499-0.5S22.775,29,22.499,29z"/>
	<path d="M18.797,28.384c-0.585-0.241-1.1-0.561-1.533-0.951c-0.205-0.187-0.521-0.168-0.706,0.036
		c-0.186,0.206-0.169,0.521,0.036,0.706c0.518,0.467,1.131,0.848,1.82,1.133c0.062,0.026,0.128,0.038,0.191,0.038
		c0.197,0,0.383-0.117,0.463-0.309C19.173,28.781,19.052,28.489,18.797,28.384z"/>
	<path d="M14.658,22.921c0.273-0.043,0.46-0.299,0.417-0.571c-0.102-0.648-0.182-1.309-0.262-1.97
		c-0.033-0.276-0.286-0.475-0.556-0.437c-0.275,0.033-0.47,0.282-0.437,0.556c0.08,0.673,0.162,1.346,0.266,2.005
		c0.039,0.247,0.252,0.423,0.493,0.423C14.605,22.927,14.631,22.925,14.658,22.921z"/>
	<path d="M15.472,24.252c-0.073-0.267-0.349-0.42-0.615-0.35c-0.267,0.074-0.423,0.348-0.35,0.615
		c0.206,0.746,0.457,1.388,0.768,1.962c0.089,0.167,0.261,0.262,0.439,0.262c0.081,0,0.162-0.019,0.239-0.06
		c0.242-0.131,0.333-0.435,0.201-0.678C15.88,25.497,15.657,24.924,15.472,24.252z"/>
	<path d="M14.133,18.947c0.272-0.042,0.46-0.297,0.418-0.57c-0.121-0.791-0.251-1.432-0.41-2.016
		c-0.072-0.266-0.342-0.422-0.613-0.352c-0.267,0.072-0.424,0.346-0.352,0.613c0.149,0.547,0.272,1.152,0.387,1.906
		c0.038,0.247,0.251,0.424,0.493,0.424C14.081,18.952,14.106,18.95,14.133,18.947z"/>
	<path d="M4.5,3C3.673,3,3,3.673,3,4.5S3.673,6,4.5,6S6,5.327,6,4.5S5.327,3,4.5,3z M4.5,5C4.225,5,4,4.775,4,4.5S4.225,4,4.5,4
		S5,4.225,5,4.5S4.775,5,4.5,5z"/>
	<path d="M24.5,15c-1.379,0-2.5,1.121-2.5,2.5s1.121,2.5,2.5,2.5s2.5-1.121,2.5-2.5S25.879,15,24.5,15z M24.5,19
		c-0.827,0-1.5-0.673-1.5-1.5s0.673-1.5,1.5-1.5s1.5,0.673,1.5,1.5S25.327,19,24.5,19z"/>
</g>
</svg>
