<?xml version="1.0" encoding="iso-8859-1"?>
<!-- Generator: Adobe Illustrator 19.0.0, SVG Export Plug-In . SVG Version: 6.00 Build 0)  -->
<svg version="1.1" id="Layer_1" xmlns="http://www.w3.org/2000/svg" xmlns:xlink="http://www.w3.org/1999/xlink" x="0px" y="0px"
	 viewBox="0 0 24 24" style="enable-background:new 0 0 24 24;" xml:space="preserve">
<g>
	<path d="M3.5,2C2.673,2,2,2.673,2,3.5S2.673,5,3.5,5S5,4.327,5,3.5S4.327,2,3.5,2z M3.5,4C3.225,4,3,3.775,3,3.5S3.225,3,3.5,3
		S4,3.225,4,3.5S3.775,4,3.5,4z"/>
	<path d="M3.5,0C1.57,0,0,1.57,0,3.5c0,1.763,2.772,5.826,3.089,6.284C3.182,9.919,3.336,10,3.5,10s0.318-0.081,0.411-0.216
		C4.228,9.326,7,5.263,7,3.5C7,1.57,5.43,0,3.5,0z M3.5,8.604C2.398,6.922,1,4.468,1,3.5C1,2.121,2.121,1,3.5,1S6,2.121,6,3.5
		C6,4.467,4.602,6.922,3.5,8.604z"/>
	<path d="M19.5,12c-1.379,0-2.5,1.121-2.5,2.5s1.121,2.5,2.5,2.5s2.5-1.121,2.5-2.5S20.879,12,19.5,12z M19.5,16
		c-0.827,0-1.5-0.673-1.5-1.5s0.673-1.5,1.5-1.5s1.5,0.673,1.5,1.5S20.327,16,19.5,16z"/>
	<path d="M19.5,10c-2.481,0-4.5,2.019-4.5,4.5c0,2.279,3.652,8.547,4.069,9.254C19.159,23.906,19.323,24,19.5,24
		s0.341-0.094,0.431-0.246C20.348,23.047,24,16.779,24,14.5C24,12.019,21.981,10,19.5,10z M19.5,22.499
		C18.232,20.262,16,16.008,16,14.5c0-1.93,1.57-3.5,3.5-3.5s3.5,1.57,3.5,3.5C23,16.008,20.768,20.262,19.5,22.499z"/>
	<path d="M7.004,9.1C6.547,9.033,6.04,9,5.5,9C5.224,9,5,9.224,5,9.5S5.224,10,5.5,10c0.492,0,0.95,0.03,1.362,0.09
		c0.024,0.003,0.048,0.005,0.072,0.005c0.244,0,0.458-0.18,0.494-0.429C7.467,9.394,7.277,9.14,7.004,9.1z"/>
	<path d="M12.162,19.211c-0.135-0.661-0.202-1.376-0.247-1.926c-0.021-0.275-0.268-0.479-0.538-0.458
		c-0.275,0.021-0.48,0.263-0.458,0.538c0.046,0.577,0.118,1.332,0.263,2.045c0.049,0.237,0.257,0.4,0.489,0.4
		c0.033,0,0.067-0.003,0.1-0.009C12.042,19.745,12.217,19.482,12.162,19.211z"/>
	<path d="M10.685,11.226c-0.409-0.633-0.958-1.135-1.63-1.493C8.814,9.605,8.508,9.695,8.378,9.939s-0.037,0.547,0.206,0.677
		c0.529,0.281,0.941,0.658,1.261,1.153c0.096,0.149,0.257,0.229,0.42,0.229c0.093,0,0.187-0.025,0.272-0.081
		C10.768,11.767,10.834,11.457,10.685,11.226z"/>
	<path d="M17.5,23c-0.693,0-1.325-0.057-1.88-0.169c-0.265-0.054-0.534,0.121-0.589,0.392c-0.054,0.271,0.121,0.534,0.392,0.589
		C16.042,23.937,16.741,24,17.5,24c0.276,0,0.5-0.224,0.5-0.5S17.776,23,17.5,23z"/>
	<path d="M13.951,22.192c-0.495-0.317-0.882-0.728-1.183-1.255c-0.139-0.242-0.443-0.324-0.682-0.188
		c-0.241,0.137-0.325,0.443-0.188,0.682c0.383,0.673,0.878,1.198,1.513,1.603c0.084,0.054,0.177,0.079,0.27,0.079
		c0.164,0,0.326-0.081,0.421-0.231C14.252,22.65,14.183,22.34,13.951,22.192z"/>
	<path d="M11.273,15.824c0.015,0,0.029-0.001,0.043-0.002c0.275-0.023,0.479-0.265,0.456-0.54c-0.071-0.85-0.16-1.482-0.289-2.049
		c-0.06-0.27-0.327-0.443-0.598-0.377c-0.27,0.061-0.439,0.328-0.377,0.598c0.118,0.52,0.201,1.109,0.268,1.912
		C10.797,15.627,11.016,15.824,11.273,15.824z"/>
</g>
</svg>
