<?xml version="1.0" encoding="iso-8859-1"?>
<!-- Generator: Adobe Illustrator 19.0.0, SVG Export Plug-In . SVG Version: 6.00 Build 0)  -->
<svg version="1.1" id="Layer_1" xmlns="http://www.w3.org/2000/svg" xmlns:xlink="http://www.w3.org/1999/xlink" x="0px" y="0px"
	 viewBox="0 0 24 24" style="enable-background:new 0 0 24 24;" xml:space="preserve">
<g>
	<path d="M20.96,4.036c-0.042-0.054-0.07-0.118-0.119-0.168c-0.024-0.024-0.053-0.035-0.08-0.053
		c-0.093-0.099-0.175-0.204-0.272-0.301c-4.679-4.679-12.292-4.679-16.971,0C-1.158,8.191-1.16,15.799,3.512,20.479
		c0.002,0.002,0.003,0.006,0.005,0.008c0.002,0.002,0.005,0.003,0.008,0.005c2.338,2.336,5.408,3.503,8.478,3.503
		c3.073,0,6.146-1.169,8.486-3.509C24.999,15.974,25.148,8.743,20.96,4.036z M4.225,4.222c4.288-4.289,11.268-4.289,15.557,0
		c0.16,0.16,0.301,0.33,0.449,0.497c0.161,0.264,0.181,0.634,0.028,1.003c-0.166,0.401-0.565,0.83-1.186,0.83
		c-1.1,0-2.138,0.343-3.099,0.986c-2.353-2.094-5.959-2.035-8.215,0.221c-2.339,2.339-2.339,6.146,0,8.485l0.907,0.907
		c-0.118,0.311-0.372,0.714-0.906,0.714c-1.391,0-2.685,0.527-3.857,1.558C-0.049,15.112,0.05,8.397,4.225,4.222z M9.443,15.896
		c-0.131,0.075-0.24,0.173-0.338,0.28l-0.639-0.639c-1.95-1.949-1.95-5.121,0-7.071c1.859-1.859,4.821-1.924,6.783-0.235
		c-0.248,0.473-0.236,1.073,0.087,1.559c1.05,1.578,0.837,3.697-0.505,5.04c-1.089,1.089-2.673,1.455-4.13,0.955
		C10.279,15.639,9.82,15.681,9.443,15.896z M19.782,19.779c-4.16,4.159-10.844,4.272-15.156,0.362
		C5.6,19.3,6.627,18.865,7.759,18.865c0.979,0,1.753-0.708,1.97-1.804c0.033-0.164,0.133-0.252,0.211-0.297
		c0.126-0.073,0.286-0.085,0.435-0.033c1.82,0.625,3.8,0.168,5.162-1.194c1.677-1.678,1.943-4.328,0.631-6.301
		c-0.136-0.205-0.146-0.516,0.072-0.682c0.887-0.675,1.813-1.003,2.833-1.003c0.932,0,1.74-0.554,2.11-1.447
		c0.016-0.038,0.017-0.077,0.031-0.116C23.999,10.252,23.523,16.038,19.782,19.779z"/>
	<path d="M13.313,20.039c-0.613,0.253-1.766,0.321-2.634-0.006c-0.259-0.098-0.547,0.033-0.644,0.292
		c-0.097,0.259,0.034,0.547,0.292,0.644c0.534,0.2,1.123,0.284,1.682,0.284c0.648,0,1.254-0.113,1.685-0.289
		c0.255-0.105,0.377-0.398,0.272-0.653S13.569,19.935,13.313,20.039z"/>
	<path d="M20.856,9.147c-0.192-0.192-0.497-0.189-0.694,0c-0.197,0.19-0.199,0.507-0.014,0.707c0.227,0.245,0.53,1.765,0.001,2.294
		c-0.195,0.195-0.195,0.512,0,0.707c0.098,0.097,0.226,0.146,0.354,0.146s0.256-0.049,0.353-0.147
		C21.814,11.897,21.435,9.726,20.856,9.147z"/>
	<path d="M19.358,17.023c-1.1,0.333-1.881-0.255-2.501-0.875c-0.195-0.195-0.512-0.195-0.707,0s-0.195,0.512,0,0.707
		c0.576,0.576,1.424,1.267,2.577,1.267c0.287,0,0.594-0.043,0.922-0.142c0.264-0.081,0.413-0.36,0.333-0.624
		C19.901,17.093,19.622,16.943,19.358,17.023z"/>
	<circle cx="3.503" cy="10.501" r="0.5"/>
	<circle cx="8.503" cy="3.501" r="0.5"/>
	<circle cx="14.503" cy="4.501" r="0.5"/>
	<circle cx="5.503" cy="15.501" r="0.5"/>
</g>
</svg>
