<?xml version="1.0" encoding="iso-8859-1"?>
<!-- Generator: Adobe Illustrator 19.0.0, SVG Export Plug-In . SVG Version: 6.00 Build 0)  -->
<svg version="1.1" id="Layer_1" xmlns="http://www.w3.org/2000/svg" xmlns:xlink="http://www.w3.org/1999/xlink" x="0px" y="0px"
	 viewBox="0 0 30 30" style="enable-background:new 0 0 30 30;" xml:space="preserve">
<g>
	<path d="M29.854,10.646l-9-9c-0.096-0.095-0.187-0.159-0.36-0.146c-0.134,0.001-0.263,0.057-0.356,0.155L5.881,16.627
		c-1.178,1.179-1.178,3.096-0.004,4.27l3.618,3.697c0.619,0.619,1.256,0.907,2.005,0.907h3c0.811,0,1.663-0.347,2.224-0.909
		l13.131-13.24C30.049,11.156,30.049,10.841,29.854,10.646z M16.016,23.887c-0.373,0.373-0.969,0.614-1.516,0.614h-3
		c-0.479,0-0.867-0.184-1.294-0.61l-3.618-3.697C5.8,19.406,5.8,18.123,6.597,17.326l4.156-4.364l8.082,8.082L16.016,23.887z
		 M19.539,20.335l-8.097-8.097l9.066-9.521l8.286,8.285L19.539,20.335z"/>
	<path d="M7,25.001c0-0.276-0.224-0.5-0.5-0.5h-6c-0.276,0-0.5,0.224-0.5,0.5s0.224,0.5,0.5,0.5h6C6.776,25.501,7,25.277,7,25.001z"
		/>
	<path d="M18.5,27.501h-12c-0.276,0-0.5,0.224-0.5,0.5s0.224,0.5,0.5,0.5h12c0.276,0,0.5-0.224,0.5-0.5S18.776,27.501,18.5,27.501z"
		/>
</g>
</svg>
