<?xml version="1.0" encoding="iso-8859-1"?>
<!-- Generator: Adobe Illustrator 19.0.0, SVG Export Plug-In . SVG Version: 6.00 Build 0)  -->
<svg version="1.1" id="Layer_1" xmlns="http://www.w3.org/2000/svg" xmlns:xlink="http://www.w3.org/1999/xlink" x="0px" y="0px"
	 viewBox="0 0 30 30" style="enable-background:new 0 0 30 30;" xml:space="preserve">
<g>
	<circle cx="3" cy="13" r="3"/>
	<path d="M29.5,12H7.45c-0.142,0-0.278,0.061-0.373,0.167c-0.095,0.106-0.14,0.247-0.125,0.389l0.021,0.159
		C6.986,12.809,7,12.903,7,13.001c0,1.206-0.553,2.339-1.516,3.109c0,0,0,0.001-0.001,0.001c-0.349,0.279-0.736,0.496-1.151,0.643
		C4.133,16.825,4,17.014,4,17.225V29.5C4,29.776,4.224,30,4.5,30h23c0.276,0,0.5-0.224,0.5-0.5V17h1.5c0.276,0,0.5-0.224,0.5-0.5v-4
		C30,12.224,29.776,12,29.5,12z M7.099,15.817l2.698-2.816h1.384l-2.875,3H6.98C7.026,15.942,7.058,15.877,7.099,15.817z
		 M8.291,21.522c0.942,0,1.709,0.79,1.709,1.761C10,24.31,9.397,25,8.5,25h-1C7.224,25,7,24.776,7,24.5S7.224,24,7.5,24h1
		C8.831,24,9,23.759,9,23.283c0-0.419-0.318-0.761-0.709-0.761H7.5c-0.276,0-0.5-0.224-0.5-0.5V19.5C7,19.224,7.224,19,7.5,19h2
		c0.276,0,0.5,0.224,0.5,0.5S9.776,20,9.5,20H8v1.522H8.291z M13.5,27h-6C7.224,27,7,26.776,7,26.5S7.224,26,7.5,26h6
		c0.276,0,0.5,0.224,0.5,0.5S13.776,27,13.5,27z M14.001,24.5H14c0,0.276-0.224,0.5-0.5,0.5S13,24.776,13,24.5V24h-1.5
		c-0.173,0-0.334-0.09-0.425-0.237c-0.091-0.148-0.1-0.332-0.022-0.486l2-4c0.124-0.247,0.424-0.346,0.671-0.224
		c0.247,0.124,0.347,0.424,0.224,0.671L12.31,23h1.191c0.276,0,0.5,0.224,0.5,0.5V24.5z M15.967,13.162L13.189,16H11.79l2.936-3
		h1.346C16.048,13.059,16.014,13.114,15.967,13.162z M19.767,13h1.408l-2.976,3h-1.408L19.767,13z M24.5,27h-7
		c-0.276,0-0.5-0.224-0.5-0.5s0.224-0.5,0.5-0.5h7c0.276,0,0.5,0.224,0.5,0.5S24.776,27,24.5,27z M24.5,24h-7
		c-0.276,0-0.5-0.224-0.5-0.5s0.224-0.5,0.5-0.5h7c0.276,0,0.5,0.224,0.5,0.5S24.776,24,24.5,24z M24.5,21h-7
		c-0.276,0-0.5-0.224-0.5-0.5s0.224-0.5,0.5-0.5h7c0.276,0,0.5,0.224,0.5,0.5S24.776,21,24.5,21z M25.914,13.208L23.187,16h-1.398
		l2.931-3h1.31C26.008,13.076,25.973,13.148,25.914,13.208z M29,15.189L28.198,16H27.5h-0.709L29,13.767V15.189z"/>
	<path d="M4.016,9.149c1.246,0.329,2.261,1.243,2.715,2.445c0.076,0.2,0.266,0.323,0.468,0.323c0.055,0,0.11-0.009,0.164-0.028
		l20.51-7.134c0.256-0.089,0.395-0.366,0.312-0.624l-1.208-3.783c-0.041-0.129-0.134-0.237-0.256-0.297s-0.264-0.066-0.392-0.02
		l-2.823,1.031L3.973,8.196C3.767,8.271,3.635,8.47,3.645,8.689C3.654,8.907,3.805,9.093,4.016,9.149z M24.736,1.677l2.013,1.246
		l0.335,1.048l-0.347,0.121l-3.196-1.978L24.736,1.677z M20.479,3.232l3.061,1.895c0.024,0.015,0.039,0.038,0.06,0.056l-1.197,0.416
		l-3.008-1.862c-0.034-0.021-0.057-0.052-0.084-0.079L20.479,3.232z M16.123,4.823l2.78,1.721c0.084,0.052,0.139,0.128,0.179,0.211
		l-1.113,0.387L14.928,5.26L16.123,4.823z M11.724,6.429l2.974,1.842c0.003,0.002,0.004,0.004,0.006,0.006l-1.215,0.422
		l-2.937-1.818c-0.008-0.005-0.011-0.012-0.018-0.017L11.724,6.429z M6.975,8.164l2.685,1.868l-1.168,0.406L5.826,8.584L6.975,8.164
		z"/>
</g>
</svg>
