<?xml version="1.0" encoding="iso-8859-1"?>
<!-- Generator: Adobe Illustrator 19.0.0, SVG Export Plug-In . SVG Version: 6.00 Build 0)  -->
<svg version="1.1" id="Layer_1" xmlns="http://www.w3.org/2000/svg" xmlns:xlink="http://www.w3.org/1999/xlink" x="0px" y="0px"
	 viewBox="0 0 30 30" style="enable-background:new 0 0 30 30;" xml:space="preserve">
<g>
	<path d="M17.239,14.798c-0.221-0.784-0.731-1.432-1.436-1.822c-0.691-0.382-1.488-0.471-2.243-0.249
		c-1.572,0.462-2.483,2.137-2.033,3.736c1.102,3.914,4.996,7.467,8.659,10.426C20.279,26.964,20.39,27,20.5,27
		c0.146,0,0.29-0.063,0.39-0.186c0.173-0.215,0.139-0.53-0.075-0.703c-3.541-2.86-7.299-6.276-8.325-9.92
		c-0.303-1.073,0.304-2.197,1.351-2.505c0.499-0.147,1.023-0.087,1.478,0.165c0.469,0.26,0.809,0.692,0.957,1.218
		c0.676,2.394,4.131,5.574,6.911,7.819c0.214,0.175,0.529,0.141,0.703-0.074s0.14-0.53-0.075-0.703
		C20.045,19.066,17.71,16.469,17.239,14.798z"/>
	<path d="M21.952,13.27c-1.281-4.134-5.627-6.52-9.73-5.323c-2.033,0.597-3.716,1.965-4.738,3.851
		c-1.039,1.914-1.283,4.01-0.707,6.059c0.899,3.188-1.196,4.773-2.429,5.166c-0.263,0.084-0.408,0.365-0.325,0.628
		C4.091,23.864,4.288,24,4.5,24c0.05,0,0.101-0.008,0.15-0.023c2.16-0.689,4.048-2.982,3.088-6.391
		c-0.504-1.793-0.289-3.63,0.623-5.311c0.895-1.65,2.366-2.846,4.14-3.367c3.61-1.05,7.429,1.073,8.519,4.735
		c0.011,0.038,0.027,0.075,0.047,0.109c0.05,0.086,0.184,0.316,4.109,3.63c0.212,0.177,0.527,0.15,0.705-0.06
		c0.178-0.211,0.152-0.526-0.059-0.704C24.124,15.183,22.222,13.543,21.952,13.27z"/>
	<path d="M19.612,14.099c-0.405-1.438-1.339-2.623-2.63-3.338c-1.263-0.7-2.721-0.864-4.106-0.459
		c-2.789,0.819-4.393,3.754-3.731,6.827c1.257,5.846-0.138,7.545-2.797,8.394c-0.263,0.084-0.408,0.365-0.325,0.629
		C6.091,26.364,6.288,26.5,6.5,26.5c0.05,0,0.102-0.008,0.151-0.025c3.674-1.172,4.679-3.942,3.471-9.558
		c-0.55-2.556,0.755-4.987,3.034-5.656c1.125-0.327,2.311-0.195,3.341,0.374c1.055,0.585,1.819,1.556,2.152,2.734
		c0.285,1.012,0.946,2.31,5.536,6.018c0.216,0.175,0.53,0.141,0.704-0.074c0.173-0.215,0.139-0.53-0.075-0.703
		C20.087,15.791,19.79,14.732,19.612,14.099z"/>
	<path d="M21.424,22.975c-2.128-1.642-5.689-4.389-6.56-7.479c-0.075-0.266-0.35-0.42-0.617-0.346
		c-0.266,0.075-0.421,0.351-0.346,0.617c0.961,3.408,4.686,6.282,6.912,7.999c0.589,0.454,1.098,0.847,1.33,1.084
		C22.241,24.95,22.37,25,22.5,25c0.126,0,0.252-0.048,0.35-0.141c0.198-0.193,0.201-0.51,0.008-0.707
		C22.577,23.865,22.068,23.472,21.424,22.975z"/>
	<path d="M18.357,27.517C17.615,26.515,16.492,25,15,25c-0.391,0-0.75,0.157-1.039,0.454c-1.022,1.053-0.97,3.756-0.961,4.061
		C13.009,29.786,13.231,30,13.5,30c0.005,0,0.01,0,0.015,0c0.276-0.009,0.493-0.24,0.485-0.515
		c-0.029-0.989,0.129-2.769,0.679-3.335C14.809,26.017,14.918,26,15,26c0.988,0,1.931,1.271,2.554,2.113
		c0.23,0.31,0.428,0.574,0.588,0.737c0.194,0.198,0.511,0.199,0.708,0.008c0.197-0.193,0.2-0.51,0.007-0.707
		C18.72,28.011,18.554,27.783,18.357,27.517z"/>
	<path d="M11.35,21.022c-0.264,0.083-0.411,0.363-0.328,0.627c0.516,1.65-0.516,5.825-2.18,6.376
		c-0.262,0.087-0.404,0.37-0.317,0.632C8.595,28.867,8.79,29,9,29c0.052,0,0.105-0.008,0.156-0.026
		c2.292-0.759,3.484-5.504,2.82-7.624C11.894,21.086,11.615,20.938,11.35,21.022z"/>
	<path d="M4.5,16.087c0.276,0,0.5-0.224,0.5-0.5C5,10.301,9.209,6,14.382,6c5.084,0,6.858,2.853,8.282,5.146
		c0.816,1.312,1.521,2.446,2.678,2.829c0.263,0.089,0.546-0.054,0.632-0.317c0.087-0.263-0.055-0.545-0.317-0.632
		c-0.813-0.27-1.43-1.261-2.143-2.408C22.04,8.247,20.021,5,14.382,5C8.658,5,4,9.749,4,15.587C4,15.863,4.224,16.087,4.5,16.087z"
		/>
	<path d="M5,20.5c0.084,0,0.17-0.021,0.249-0.066c0.24-0.138,0.322-0.444,0.185-0.683C5.266,19.458,5,18.859,5,18.5
		C5,18.224,4.776,18,4.5,18S4,18.224,4,18.5c0,0.743,0.509,1.648,0.566,1.749C4.659,20.41,4.827,20.5,5,20.5z"/>
	<path d="M4.833,6.712C5.07,6.854,5.377,6.775,5.518,6.538C6.064,5.62,8.745,3,13.735,3c4.794,0,8.216,2.497,8.835,3.538
		c0.093,0.158,0.26,0.245,0.43,0.245c0.087,0,0.175-0.023,0.255-0.071c0.237-0.141,0.315-0.448,0.174-0.685
		C22.594,4.623,18.893,2,13.735,2c-5.481,0-8.41,2.907-9.076,4.027C4.518,6.264,4.596,6.571,4.833,6.712z"/>
	<path d="M8.414,2.215c0.281-0.128,0.519-0.253,0.745-0.371C10.096,1.354,10.772,1,13.765,1c3.359,0,4.596,0.469,5.907,0.967
		c0.236,0.089,0.472,0.179,0.721,0.266c0.055,0.019,0.111,0.028,0.166,0.028c0.206,0,0.399-0.129,0.472-0.335
		c0.091-0.261-0.045-0.546-0.306-0.637c-0.241-0.085-0.47-0.172-0.698-0.258C18.69,0.524,17.307,0,13.765,0
		c-3.239,0-4.047,0.423-5.07,0.957C8.484,1.068,8.261,1.185,7.998,1.305C7.747,1.42,7.636,1.717,7.751,1.968
		C7.866,2.219,8.162,2.328,8.414,2.215z"/>
	<path d="M25.023,10.649C25.09,10.863,25.287,11,25.5,11c0.049,0,0.1-0.007,0.148-0.023c0.264-0.082,0.411-0.363,0.328-0.626
		c-0.325-1.037-1.252-2.493-1.291-2.555c-0.149-0.232-0.458-0.3-0.69-0.152c-0.233,0.148-0.3,0.458-0.152,0.69
		C23.852,8.348,24.738,9.74,25.023,10.649z"/>
</g>
</svg>
