<?xml version="1.0" encoding="iso-8859-1"?>
<!-- Generator: Adobe Illustrator 19.0.0, SVG Export Plug-In . SVG Version: 6.00 Build 0)  -->
<svg version="1.1" id="Layer_1" xmlns="http://www.w3.org/2000/svg" xmlns:xlink="http://www.w3.org/1999/xlink" x="0px" y="0px"
	 viewBox="0 0 24 24" style="enable-background:new 0 0 24 24;" xml:space="preserve">
<g>
	<path d="M11.217,0.426C11.18,0.176,10.988,0.007,10.706,0c-0.253,0.009-0.46,0.206-0.481,0.458L9.787,5.711
		C9.76,6.035,9.186,6.034,9.159,5.712L8.721,0.459C8.7,0.199,8.483,0,8.223,0S7.746,0.199,7.724,0.458L7.286,5.711
		C7.259,6.035,6.685,6.034,6.658,5.712L6.22,0.459C6.199,0.206,5.992,0.009,5.739,0C5.471,0.01,5.266,0.176,5.228,0.426L4.32,6.476
		C4.055,8.25,5.017,9.945,6.639,10.652L5.866,21.473c-0.046,0.65,0.182,1.297,0.627,1.775C6.938,23.726,7.567,24,8.225,24
		c0.653,0,1.283-0.274,1.727-0.752c0.444-0.477,0.673-1.125,0.626-1.775L9.806,10.652c1.622-0.707,2.584-2.403,2.318-4.176
		L11.217,0.426z M9.129,9.841c-0.22,0.071-0.362,0.282-0.345,0.511l0.799,11.192c0.027,0.379-0.101,0.743-0.361,1.022
		c-0.517,0.556-1.474,0.562-1.996,0c-0.26-0.279-0.389-0.642-0.362-1.023l0.8-11.191c0.016-0.229-0.126-0.441-0.345-0.511
		C5.942,9.395,5.098,8.042,5.31,6.624l0.271-1.807l0.081,0.978C5.719,6.471,6.294,7,6.973,7c0.575,0,1.076-0.38,1.25-0.908
		C8.396,6.62,8.898,7,9.473,7c0.678,0,1.254-0.529,1.311-1.205l0.082-0.978l0.271,1.807C11.35,8.042,10.505,9.396,9.129,9.841z"/>
	<path d="M19.512,0.091c-0.133-0.093-0.303-0.116-0.456-0.063C19.013,0.044,14.723,1.62,14.723,6.5c0,3.513,1.142,5.287,1.786,6.006
		l-0.639,0.64c-0.081,0.082-0.132,0.189-0.144,0.304l-0.791,7.911c-0.068,0.673,0.154,1.347,0.608,1.849
		c0.454,0.502,1.103,0.79,1.78,0.79c1.323,0,2.4-1.077,2.4-2.4V0.5C19.723,0.338,19.644,0.186,19.512,0.091z M18.723,21.6
		c0,0.772-0.628,1.4-1.4,1.4c-0.401,0-0.769-0.164-1.038-0.461s-0.395-0.68-0.355-1.078l0.773-7.733l0.874-0.874
		c0.103-0.103,0.154-0.247,0.143-0.393c-0.011-0.144-0.087-0.279-0.204-0.366c-0.018-0.013-1.793-1.376-1.793-5.595
		c0-3.089,1.94-4.609,3-5.21V21.6z"/>
</g>
</svg>
