<?xml version="1.0" encoding="iso-8859-1"?>
<!-- Generator: Adobe Illustrator 19.0.0, SVG Export Plug-In . SVG Version: 6.00 Build 0)  -->
<svg version="1.1" id="Layer_1" xmlns="http://www.w3.org/2000/svg" xmlns:xlink="http://www.w3.org/1999/xlink" x="0px" y="0px"
	 viewBox="0 0 30 30" style="enable-background:new 0 0 30 30;" xml:space="preserve">
<g>
	<path d="M14.518,0.435c-0.034-0.248-0.246-0.434-0.496-0.434c-0.001,0-0.002,0-0.003,0c-0.251,0.002-0.463,0.19-0.493,0.44
		l-0.731,6.084c-0.023,0.271-0.246,0.476-0.518,0.476c-0.268,0-0.495-0.209-0.518-0.497l-0.74-6.065
		C10.987,0.183,10.774-0.018,10.507,0c-0.258,0.009-0.468,0.213-0.483,0.471L9.67,6.525C9.647,6.796,9.424,7.001,9.152,7.001
		c-0.268,0-0.495-0.209-0.518-0.485L8.019,0.451C7.994,0.205,7.792,0.015,7.545,0.003C7.32-0.025,7.08,0.161,7.031,0.404
		L5.527,7.927c-0.315,2.106,0.894,4.077,2.97,4.915L7.522,27.001c0,2.072,1.507,3,3,3c1.878,0,3-1.121,3-3.034l-0.974-14.125
		c2.074-0.837,3.283-2.806,2.97-4.911L14.518,0.435z M11.868,12.025c-0.219,0.071-0.361,0.281-0.345,0.51l0.999,14.466
		c0,1.346-0.654,2-2,2c-0.967,0-2-0.525-2.001-1.966l1-14.5c0.016-0.229-0.126-0.44-0.345-0.51
		c-1.544-0.499-2.965-1.914-2.664-3.927L7.36,3.86l0.279,2.746C7.704,7.388,8.368,8,9.152,8c0.785,0,1.449-0.612,1.515-1.405
		l0.031-0.528l0.066,0.54c0.065,0.782,0.729,1.394,1.513,1.394s1.449-0.612,1.512-1.376l0.258-2.15l0.479,3.592
		c0.001,0.002,0.001,0.005,0.001,0.008C14.832,10.111,13.411,11.526,11.868,12.025z"/>
	<path d="M24.311,0.092c-0.133-0.094-0.304-0.116-0.456-0.063c-0.053,0.02-5.333,1.958-5.333,7.972c0,4.479,1.204,6.654,1.819,7.474
		l-0.672,0.672c-0.082,0.082-0.133,0.191-0.144,0.307L18.537,26.84c-0.079,0.78,0.181,1.544,0.73,2.15
		c0.581,0.643,1.403,1.011,2.255,1.011c1.598,0,3-1.402,3-3v-26.5C24.522,0.339,24.443,0.187,24.311,0.092z M23.522,27.001
		c0,1.028-0.972,2-2,2c-0.57,0-1.122-0.248-1.513-0.681c-0.357-0.395-0.527-0.885-0.477-1.383l0.971-10.209l0.872-0.874
		c0.097-0.095,0.147-0.229,0.145-0.365c-0.003-0.135-0.063-0.266-0.163-0.359c-0.018-0.017-1.835-1.756-1.835-7.129
		c0-4.116,2.706-6.039,4-6.724V27.001z"/>
</g>
</svg>
