<?xml version="1.0" encoding="iso-8859-1"?>
<!-- Generator: Adobe Illustrator 19.0.0, SVG Export Plug-In . SVG Version: 6.00 Build 0)  -->
<svg version="1.1" id="Layer_1" xmlns="http://www.w3.org/2000/svg" xmlns:xlink="http://www.w3.org/1999/xlink" x="0px" y="0px"
	 viewBox="0 0 24 24" style="enable-background:new 0 0 24 24;" xml:space="preserve">
<path d="M22.474,4.053l-2-1c-0.247-0.122-0.547-0.023-0.671,0.224L19.75,3.383V1.5c0-0.276-0.224-0.5-0.5-0.5h-2
	c-0.276,0-0.5,0.224-0.5,0.5v1.41l-2-0.333V1.5c0-0.276-0.224-0.5-0.5-0.5h-1.534l0.033-0.465c0.01-0.138-0.038-0.274-0.133-0.376
	C12.521,0.058,12.389,0,12.25,0h-2C9.998,0,9.785,0.188,9.754,0.438L9.406,3.219L8.733,0.862c-0.041-0.143-0.144-0.26-0.28-0.32
	c-0.136-0.061-0.292-0.057-0.425,0.01L6.075,1.529L4.129,2.015C3.906,2.071,3.75,2.271,3.75,2.5v1.09L1.652,4.01
	C1.387,4.062,1.213,4.316,1.257,4.582l0.906,5.439c-0.124,0.023-0.24,0.079-0.315,0.182c-0.094,0.127-0.122,0.292-0.076,0.444
	l3.565,11.588C5.662,23.291,6.622,24,7.727,24h8.046c1.104,0,2.064-0.709,2.39-1.765l3.565-11.588
	c0.046-0.151,0.019-0.316-0.076-0.444C21.558,10.075,21.409,10,21.25,10h-0.307l1.781-5.342C22.804,4.422,22.697,4.164,22.474,4.053
	z M17.75,2h1v3.383l-0.434,0.868l-0.92-0.23l0.35-2.45c0.002-0.014-0.003-0.027-0.002-0.04c0-0.011,0.006-0.02,0.006-0.031V2z
	 M14.723,5l-0.465,8.358c-0.3,0.212-0.638,0.366-0.997,0.475L13.726,5H14.723z M10.692,1h1.021l-0.375,5.249L11.25,4.475
	C11.236,4.209,11.017,4,10.75,4h-0.434L10.692,1z M9.757,5h0.517l0.448,8.947c-0.351-0.054-0.682-0.158-0.991-0.308L9.276,5h0.466
	C9.747,5,9.752,5,9.757,5z M5.82,2.623l0.411,3.491l-1.077,0.27L4.75,3.961v-1.07L5.82,2.623z M3.842,4.593l0.413,2.478l0,0
	L4.673,10h-1.5l-0.85-5.103L3.842,4.593z M5.683,10L5.308,7.374l1.015-0.253L6.683,10H5.683z M7.743,10.469
	c-0.001-0.01,0.003-0.018,0.002-0.028l-0.959-8.15l1.149-0.574l0.661,2.314c-0.078,0.026-0.152,0.063-0.21,0.125
	C8.292,4.256,8.243,4.39,8.25,4.527l0.439,8.341C8.111,12.244,7.75,11.416,7.75,10.5C7.75,10.489,7.744,10.48,7.743,10.469z
	 M11.787,14l0.857-12h1.106v2h-0.499c-0.267,0-0.486,0.208-0.5,0.474l-0.5,9.5c0,0.009,0.004,0.017,0.004,0.026
	c-0.002,0-0.003,0-0.005,0H11.787z M15.327,12.132l0.422-7.604c0.008-0.138-0.042-0.272-0.136-0.372C15.52,4.057,15.388,4,15.251,4
	H14.75V3.59l1.937,0.323l-0.931,6.516c-0.002,0.011,0.003,0.021,0.002,0.032c-0.001,0.014-0.008,0.025-0.008,0.039
	C15.75,11.092,15.588,11.642,15.327,12.132z M17.318,10l0.36-2.878l1.015,0.253L18.317,10H17.318z M19.89,10h-0.561l0.418-2.929
	c0.036-0.254-0.125-0.494-0.374-0.556L19.31,6.499l1.164-2.328l1.165,0.583L19.89,10z"/>
</svg>
