<?xml version="1.0" encoding="iso-8859-1"?>
<!-- Generator: Adobe Illustrator 19.0.0, SVG Export Plug-In . SVG Version: 6.00 Build 0)  -->
<svg version="1.1" id="Layer_1" xmlns="http://www.w3.org/2000/svg" xmlns:xlink="http://www.w3.org/1999/xlink" x="0px" y="0px"
	 viewBox="0 0 24 24" style="enable-background:new 0 0 24 24;" xml:space="preserve">
<path d="M22.474,4.053l-2-1c-0.248-0.123-0.547-0.023-0.671,0.224L19.75,3.383V1.5c0-0.276-0.224-0.5-0.5-0.5h-2
	c-0.276,0-0.5,0.224-0.5,0.5v1.41l-2-0.333V1.5c0-0.276-0.224-0.5-0.5-0.5h-1.534l0.033-0.465c0.01-0.138-0.038-0.274-0.133-0.376
	C12.521,0.058,12.389,0,12.25,0h-2C9.998,0,9.785,0.188,9.754,0.438L9.406,3.219L8.733,0.862c-0.041-0.143-0.144-0.26-0.28-0.32
	s-0.292-0.056-0.425,0.01L6.075,1.529L4.129,2.015C3.906,2.071,3.75,2.271,3.75,2.5v1.09L1.652,4.01
	C1.387,4.062,1.213,4.316,1.257,4.582l0.906,5.439c-0.124,0.023-0.24,0.079-0.315,0.182c-0.095,0.128-0.122,0.293-0.076,0.444
	l3.565,11.588C5.663,23.291,6.623,24,7.727,24h8.046c1.104,0,2.064-0.709,2.39-1.765l3.565-11.588
	c0.046-0.152,0.018-0.317-0.076-0.444C21.558,10.075,21.409,10,21.25,10h-0.307l1.781-5.342C22.804,4.422,22.697,4.164,22.474,4.053
	z M17.317,10l0.36-2.878l1.015,0.253L18.316,10H17.317z M17.75,2h1v3.383l-0.434,0.868l-0.921-0.23l0.35-2.45
	c0.002-0.013-0.003-0.024-0.002-0.036C17.744,3.523,17.75,3.512,17.75,3.5V2z M16.686,3.913l-0.931,6.516
	c-0.002,0.012,0.003,0.024,0.002,0.036S15.75,10.488,15.75,10.5c0,0.593-0.162,1.144-0.424,1.634l0.423-7.606
	c0.008-0.138-0.042-0.272-0.136-0.372C15.519,4.057,15.387,4,15.25,4h-0.5V3.59L16.686,3.913z M14.722,5l-0.465,8.359
	c-0.3,0.211-0.638,0.366-0.997,0.475L13.725,5H14.722z M13.75,2v2h-0.5c-0.267,0-0.486,0.208-0.5,0.474l-0.5,9.5
	c0,0.009,0.004,0.017,0.004,0.026c-0.001,0-0.003,0-0.004,0h-0.463l0.857-12H13.75z M10.692,1h1.021l-0.375,5.249L11.25,4.475
	C11.236,4.209,11.017,4,10.75,4h-0.434L10.692,1z M9.757,5h0.517l0.448,8.947c-0.351-0.054-0.682-0.158-0.991-0.308L9.276,5h0.466
	C9.747,5,9.752,5,9.757,5z M8.597,4.031c-0.078,0.026-0.152,0.063-0.21,0.125C8.292,4.256,8.243,4.39,8.25,4.527l0.439,8.341
	C8.111,12.244,7.75,11.416,7.75,10.5c0-0.011-0.006-0.02-0.006-0.031c-0.001-0.01,0.003-0.018,0.002-0.028l-0.959-8.15l1.149-0.574
	L8.597,4.031z M5.683,10L5.308,7.374l1.015-0.253L6.683,10H5.683z M5.82,2.623l0.411,3.491l-1.077,0.27L4.75,3.961v-1.07L5.82,2.623
	z M3.842,4.593l0.413,2.478l0,0L4.673,10h-1.5l-0.85-5.103L3.842,4.593z M17.207,21.941C17.012,22.575,16.436,23,15.773,23H7.727
	c-0.663,0-1.239-0.426-1.434-1.059L2.927,11h3.851c0.155,1.402,0.958,2.612,2.102,3.323c0.083,0.094,0.198,0.154,0.329,0.166
	c0.613,0.315,1.297,0.508,2.032,0.51c0.002,0,0.003,0.001,0.004,0.001c0.002,0,0.003,0,0.005,0h1c2.312,0,4.222-1.753,4.472-4h3.851
	L17.207,21.941z M19.89,10h-0.562l0.418-2.929c0.036-0.254-0.125-0.494-0.374-0.556L19.31,6.5l1.164-2.329l1.165,0.583L19.89,10z"/>
</svg>
