<?xml version="1.0" encoding="iso-8859-1"?>
<!-- Generator: Adobe Illustrator 19.0.0, SVG Export Plug-In . SVG Version: 6.00 Build 0)  -->
<svg version="1.1" id="Layer_1" xmlns="http://www.w3.org/2000/svg" xmlns:xlink="http://www.w3.org/1999/xlink" x="0px" y="0px"
	 viewBox="0 0 24 24" style="enable-background:new 0 0 24 24;" xml:space="preserve">
<g>
	<path d="M1.5,12.865v7.551c0,1.378,1.122,2.5,2.5,2.5h7.5v-10H2C1.829,12.916,1.662,12.898,1.5,12.865z"/>
	<path d="M12.5,12.916v10H20c1.378,0,2.5-1.122,2.5-2.5v-7.551c-0.162,0.033-0.329,0.051-0.5,0.051
		C22,12.916,12.5,12.916,12.5,12.916z"/>
	<path d="M22,5.916h-5.326c-0.507,0.523-1.098,0.964-1.758,1.294l1.145,1.145C16.344,8.638,16.5,9.016,16.5,9.416
		c0,0.4-0.156,0.777-0.439,1.061C15.778,10.761,15.4,10.916,15,10.916s-0.777-0.156-1.061-0.439L12.5,9.037v2.879H22
		c0.827,0,1.5-0.673,1.5-1.5v-3C23.5,6.589,22.827,5.916,22,5.916z"/>
	<path d="M9,10.916c-0.4,0-0.777-0.156-1.061-0.439C7.655,10.194,7.5,9.815,7.5,9.416c0-0.4,0.156-0.777,0.439-1.061L9.084,7.21
		c-0.66-0.33-1.251-0.772-1.758-1.294H2c-0.827,0-1.5,0.673-1.5,1.5v3c0,0.827,0.673,1.5,1.5,1.5h9.5V9.037l-1.439,1.44
		C9.777,10.76,9.4,10.916,9,10.916z"/>
	<path d="M15,9.916c0.128,0,0.256-0.049,0.354-0.146c0.195-0.195,0.195-0.512,0-0.707l-2.269-2.269
		c1.957-0.401,3.605-1.848,4.187-3.807c0.132-0.444,0.047-0.915-0.235-1.294c-0.371-0.497-1.023-0.723-1.607-0.55
		C13.872,1.606,12.645,2.748,12,4.177c-0.645-1.429-1.872-2.571-3.429-3.034C7.988,0.969,7.334,1.196,6.964,1.692
		C6.682,2.07,6.596,2.542,6.728,2.985c0.583,1.959,2.23,3.406,4.188,3.807L8.647,9.061c-0.195,0.195-0.195,0.512,0,0.707
		C8.744,9.867,8.872,9.916,9,9.916S9.256,9.867,9.354,9.77L12,7.124l2.646,2.646C14.744,9.867,14.872,9.916,15,9.916z M7.686,2.701
		C7.63,2.512,7.711,2.362,7.765,2.291c0.097-0.13,0.244-0.208,0.392-0.208c0.042,0,0.085,0.007,0.128,0.02
		c1.721,0.512,2.97,2.025,3.183,3.781C9.711,5.671,8.198,4.422,7.686,2.701z M15.715,2.102c0.042-0.012,0.085-0.019,0.128-0.019
		c0.148,0,0.295,0.078,0.392,0.208c0.054,0.072,0.135,0.221,0.078,0.41c-0.512,1.721-2.025,2.97-3.781,3.183
		C12.744,4.128,13.993,2.614,15.715,2.102z"/>
</g>
</svg>
