<?xml version="1.0" encoding="iso-8859-1"?>
<!-- Generator: Adobe Illustrator 19.0.0, SVG Export Plug-In . SVG Version: 6.00 Build 0)  -->
<svg version="1.1" id="Layer_1" xmlns="http://www.w3.org/2000/svg" xmlns:xlink="http://www.w3.org/1999/xlink" x="0px" y="0px"
	 viewBox="0 0 30 30" style="enable-background:new 0 0 30 30;" xml:space="preserve">
<g>
	<path d="M29.989,26.555C29.991,26.536,30,26.519,30,26.5v-23C30,3.224,29.776,3,29.5,3h-29C0.224,3,0,3.224,0,3.5v23
		c0,0.015,0.007,0.028,0.009,0.043c0.003,0.034,0.01,0.066,0.02,0.099c0.009,0.031,0.019,0.06,0.034,0.087
		c0.014,0.027,0.032,0.051,0.051,0.076c0.022,0.028,0.045,0.053,0.073,0.075c0.011,0.009,0.017,0.022,0.029,0.03
		c0.014,0.01,0.03,0.011,0.045,0.019c0.029,0.016,0.058,0.029,0.09,0.039c0.034,0.011,0.067,0.017,0.102,0.021
		C0.469,26.992,0.483,27,0.5,27h29c0.085,0,0.161-0.026,0.231-0.064c0.01-0.005,0.021-0.003,0.03-0.008
		c0.019-0.012,0.03-0.03,0.047-0.044c0.025-0.02,0.047-0.039,0.068-0.063c0.022-0.026,0.039-0.053,0.055-0.082
		c0.015-0.027,0.028-0.053,0.038-0.083C29.98,26.623,29.985,26.59,29.989,26.555z M29,4v20.723L18.927,8.24
		c-0.093-0.152-0.237-0.259-0.438-0.239c-0.178,0.004-0.34,0.101-0.427,0.257l-4.678,8.42l-3.531-3.531
		c-0.103-0.105-0.249-0.155-0.398-0.145c-0.147,0.014-0.282,0.092-0.366,0.214L1,24.9V4H29z M28.608,26H1.454L9.57,14.277
		l3.576,3.576c0.111,0.112,0.267,0.161,0.423,0.142c0.155-0.022,0.292-0.115,0.368-0.252l4.583-8.25L28.608,26z"/>
	<path d="M11,12c1.654,0,3-1.346,3-3s-1.346-3-3-3S8,7.346,8,9S9.346,12,11,12z M11,7c1.103,0,2,0.897,2,2s-0.897,2-2,2
		s-2-0.897-2-2S9.897,7,11,7z"/>
</g>
</svg>
