<?xml version="1.0" encoding="iso-8859-1"?>
<!-- Generator: Adobe Illustrator 19.0.0, SVG Export Plug-In . SVG Version: 6.00 Build 0)  -->
<svg version="1.1" id="Layer_1" xmlns="http://www.w3.org/2000/svg" xmlns:xlink="http://www.w3.org/1999/xlink" x="0px" y="0px"
	 viewBox="0 0 30 30" style="enable-background:new 0 0 30 30;" xml:space="preserve">
<g>
	<path d="M15,0C6.729,0,0,6.729,0,15s6.729,15,15,15s15-6.729,15-15S23.271,0,15,0z M15,29C7.28,29,1,22.72,1,15S7.28,1,15,1
		s14,6.28,14,14S22.72,29,15,29z"/>
	<path d="M8.5,17c0.145,0,0.281-0.062,0.376-0.17l3.414-3.902c0.458-0.523,0.71-1.214,0.71-2.019c0-1.416-0.89-2.649-2.072-2.869
		c-0.695-0.129-1.372,0.054-1.923,0.512C8.812,8.713,8.642,8.903,8.5,9.115C8.358,8.904,8.188,8.713,7.995,8.552
		C7.444,8.095,6.765,7.913,6.073,8.04C4.891,8.259,4,9.492,4,10.982c0,0.731,0.252,1.422,0.71,1.945l3.414,3.902
		C8.219,16.937,8.355,17,8.5,17z M5,10.907c0-0.926,0.552-1.755,1.256-1.885C6.336,9.007,6.417,9,6.496,9
		c0.309,0,0.607,0.11,0.858,0.319c0.404,0.335,0.645,0.883,0.645,1.465c0,0.276,0.224,0.5,0.5,0.5s0.5-0.224,0.5-0.5
		c0-0.582,0.242-1.13,0.645-1.465c0.318-0.264,0.703-0.372,1.101-0.297C11.448,9.152,12,9.981,12,10.981
		c0,0.482-0.169,0.951-0.462,1.287L8.5,15.739l-3.038-3.471C5.169,11.932,5,11.463,5,10.907z"/>
	<path d="M23.928,8.04c-0.694-0.129-1.371,0.054-1.923,0.512c-0.193,0.161-0.363,0.351-0.505,0.563
		c-0.142-0.211-0.312-0.402-0.505-0.563c-0.551-0.457-1.232-0.639-1.922-0.512C17.891,8.259,17,9.492,17,10.982
		c0,0.731,0.252,1.422,0.71,1.945l3.414,3.902C21.219,16.937,21.355,17,21.5,17s0.281-0.062,0.376-0.17l3.414-3.902
		c0.458-0.523,0.71-1.214,0.71-2.019C26,9.493,25.11,8.26,23.928,8.04z M24.538,12.268L21.5,15.739l-3.038-3.471
		C18.169,11.932,18,11.463,18,10.907c0-0.926,0.552-1.755,1.256-1.885C19.336,9.007,19.417,9,19.496,9
		c0.309,0,0.607,0.11,0.858,0.319c0.404,0.335,0.645,0.883,0.645,1.465c0,0.276,0.224,0.5,0.5,0.5s0.5-0.224,0.5-0.5
		c0-0.582,0.242-1.13,0.645-1.465c0.318-0.264,0.703-0.372,1.101-0.297C24.448,9.152,25,9.981,25,10.981
		C25,11.463,24.831,11.932,24.538,12.268z"/>
	<path d="M21.5,19c-0.276,0-0.5,0.224-0.5,0.5c0,1.897-2.748,3.5-6,3.5s-6-1.603-6-3.5C9,19.224,8.776,19,8.5,19S8,19.224,8,19.5
		c0,2.523,3.075,4.5,7,4.5s7-1.977,7-4.5C22,19.224,21.776,19,21.5,19z"/>
</g>
</svg>
