<?xml version="1.0" encoding="iso-8859-1"?>
<!-- Generator: Adobe Illustrator 19.0.0, SVG Export Plug-In . SVG Version: 6.00 Build 0)  -->
<svg version="1.1" id="Layer_1" xmlns="http://www.w3.org/2000/svg" xmlns:xlink="http://www.w3.org/1999/xlink" x="0px" y="0px"
	 viewBox="0 0 30 30" style="enable-background:new 0 0 30 30;" xml:space="preserve">
<path d="M15,0C6.728,0,0,6.729,0,15s6.728,15,15,15c8.271,0,15-6.729,15-15S23.271,0,15,0z M4,10.982
	c0-1.49,0.891-2.723,2.073-2.942C7.052,7.86,7.966,8.323,8.5,9.117c0.534-0.794,1.442-1.26,2.428-1.077
	C12.11,8.26,13,9.493,13,10.909c0,0.805-0.252,1.496-0.71,2.019L8.876,16.83C8.781,16.938,8.644,17,8.5,17
	c-0.145,0-0.281-0.062-0.376-0.171L4.71,12.927C4.252,12.404,4,11.713,4,10.982z M15,24c-3.925,0-7-1.977-7-4.5
	C8,19.224,8.224,19,8.5,19S9,19.224,9,19.5c0,1.897,2.748,3.5,6,3.5s6-1.603,6-3.5c0-0.276,0.224-0.5,0.5-0.5s0.5,0.224,0.5,0.5
	C22,22.023,18.925,24,15,24z M25.29,12.927l-3.414,3.902C21.781,16.938,21.644,17,21.5,17c-0.145,0-0.281-0.062-0.376-0.171
	l-3.414-3.902C17.252,12.404,17,11.713,17,10.982c0-1.49,0.891-2.723,2.073-2.942c0.979-0.18,1.893,0.283,2.427,1.077
	c0.534-0.794,1.442-1.26,2.428-1.077C25.11,8.26,26,9.493,26,10.909C26,11.713,25.748,12.404,25.29,12.927z"/>
</svg>
