<?xml version="1.0" encoding="iso-8859-1"?>
<!-- Generator: Adobe Illustrator 19.0.0, SVG Export Plug-In . SVG Version: 6.00 Build 0)  -->
<svg version="1.1" id="Layer_1" xmlns="http://www.w3.org/2000/svg" xmlns:xlink="http://www.w3.org/1999/xlink" x="0px" y="0px"
	 viewBox="0 0 24 24" style="enable-background:new 0 0 24 24;" xml:space="preserve">
<g>
	<path d="M3.364,3.687C3.459,3.569,3.602,3.5,3.754,3.5h5.47C8.603,1.758,6.953,0.5,5,0.5C2.519,0.5,0.5,2.519,0.5,5
		c0,2.293,1.731,4.17,3.951,4.445L3.266,4.108C3.233,3.96,3.269,3.805,3.364,3.687z"/>
	<path d="M23.447,0.777c-0.124-0.247-0.425-0.346-0.671-0.224l-4,2c-0.103,0.052-0.186,0.138-0.233,0.244l-8,18
		c0,0.001,0,0.001,0,0.002c-0.083,0.186-0.265,0.295-0.457,0.295c-0.068,0-0.137-0.014-0.203-0.043
		c-0.252-0.112-0.366-0.408-0.254-0.66L14.47,9.5H6.515L6.407,9.015C6.407,9.01,6.41,9.005,6.41,9c0-0.073-0.023-0.138-0.051-0.2
		L5.626,5.5h3.375h7.249l0.145-0.326L16.693,4.5H9.45H5.001H4.377l1.111,5l3.024,13.608C8.563,23.337,8.766,23.5,9.001,23.5h8
		c0.234,0,0.438-0.163,0.488-0.392L20.513,9.5l0,0l0.976-4.392c0.033-0.148-0.003-0.303-0.098-0.421
		C21.296,4.569,21.153,4.5,21.001,4.5h-2.12l0.503-1.132l3.839-1.92C23.47,1.324,23.571,1.024,23.447,0.777z M20.378,5.5l-0.889,4
		h-0.001h-2.829l1.778-4H20.378z"/>
</g>
</svg>
