<?xml version="1.0" encoding="iso-8859-1"?>
<!-- Generator: Adobe Illustrator 19.0.0, SVG Export Plug-In . SVG Version: 6.00 Build 0)  -->
<svg version="1.1" id="Layer_1" xmlns="http://www.w3.org/2000/svg" xmlns:xlink="http://www.w3.org/1999/xlink" x="0px" y="0px"
	 viewBox="0 0 24 24" style="enable-background:new 0 0 24 24;" xml:space="preserve">
<path d="M19.5,7c-0.411,0-0.794,0.125-1.112,0.339C18.114,6.56,17.371,6,16.5,6c-0.411,0-0.794,0.125-1.112,0.339
	C15.114,5.56,14.371,5,13.5,5c-0.364,0-0.706,0.098-1,0.269V2c0-1.103-0.897-2-2-2s-2,0.897-2,2v11.69l-2.75-1.375
	c-0.414-0.207-0.878-0.316-1.34-0.316c-1.054,0-1.91,0.856-1.91,1.916c0,0.51,0.199,0.991,0.56,1.351l6.467,6.467
	C10.989,23.195,12.933,24,15.001,24c3.584,0,6.5-2.916,6.499-6.5V9C21.5,7.897,20.603,7,19.5,7z M20.502,17.5
	c0,3.032-2.468,5.5-5.501,5.5c-1.801,0-3.494-0.702-4.766-1.974l-6.467-6.467c-0.172-0.171-0.267-0.4-0.267-0.649
	c0-0.502,0.408-0.91,0.91-0.91c0.308,0,0.617,0.073,0.895,0.211l3.473,1.736c0.155,0.079,0.34,0.068,0.486-0.021
	c0.147-0.092,0.237-0.253,0.237-0.426V2c0-0.552,0.448-1,1-1s1,0.448,1,1v9.5c0,0.276,0.224,0.5,0.5,0.5s0.5-0.224,0.5-0.5V7
	c0-0.552,0.448-1,1-1s1,0.448,1,1v4.5c0,0.276,0.224,0.5,0.5,0.5s0.5-0.224,0.5-0.5V8c0-0.552,0.448-1,1-1c0.552,0,1,0.448,1,1v3.5
	c0,0.276,0.224,0.5,0.5,0.5s0.5-0.224,0.5-0.5V9c0-0.552,0.448-1,1-1s1,0.448,1,1C20.502,9,20.502,17.5,20.502,17.5z"/>
</svg>
