<?xml version="1.0" encoding="iso-8859-1"?>
<!-- Generator: Adobe Illustrator 19.0.0, SVG Export Plug-In . SVG Version: 6.00 Build 0)  -->
<svg version="1.1" id="Layer_1" xmlns="http://www.w3.org/2000/svg" xmlns:xlink="http://www.w3.org/1999/xlink" x="0px" y="0px"
	 viewBox="0 0 30 30" style="enable-background:new 0 0 30 30;" xml:space="preserve">
<g>
	<path d="M22.464,2.675c0.896,1.336,0.5,2.038,0.066,2.489l-0.639,0.625c-0.09,0.088-0.144,0.207-0.15,0.333L21.585,9.25
		c-0.007,0.136,0.042,0.267,0.135,0.367c0.093,0.098,0.222,0.155,0.358,0.157c0.228,0.003,0.444,0.101,0.59,0.269
		c0.139,0.16,0.2,0.362,0.174,0.569l-0.32,2.5c-0.047,0.376-0.38,0.659-0.835,0.659c-0.242,0-0.45,0.174-0.492,0.413
		c-0.129,0.728-0.619,1.543-0.624,1.552c-0.143,0.237-0.067,0.543,0.169,0.687c0.235,0.142,0.542,0.066,0.686-0.168
		c0.021-0.035,0.445-0.738,0.665-1.516c0.74-0.143,1.327-0.74,1.424-1.5l0.32-2.5c0.062-0.488-0.088-0.98-0.412-1.353
		c-0.218-0.251-0.503-0.433-0.817-0.531l0.124-2.488l0.51-0.499c0.69-0.718,1.26-1.951,0.055-3.75
		c-0.933-1.392-2.522-2.097-4.725-2.097c-0.136,0-0.276-0.004-0.42-0.008c-1.003-0.026-2.249-0.059-3.808,0.983
		C10.017,1.074,8,2.665,8,5.994c0,0.584,0.086,2.049,0.134,2.82C7.769,8.896,7.436,9.092,7.186,9.375
		c-0.329,0.375-0.482,0.872-0.419,1.363l0.319,2.5c0.101,0.794,0.737,1.411,1.524,1.517c0.249,1.747,1.113,3.468,2.379,4.724
		l-0.48,1.878L5.53,22.574C2.377,23.344,0,26.319,0,29.495c0,0.276,0.224,0.5,0.5,0.5h16c0.276,0,0.501-0.224,0.501-0.5
		s-0.224-0.5-0.5-0.5H1.025c0.239-2.501,2.236-4.838,4.743-5.45l5.271-1.288c0.179-0.044,0.32-0.182,0.366-0.361l0.627-2.451
		c0.046-0.179-0.01-0.368-0.146-0.492c-1.315-1.206-2.184-2.971-2.327-4.722c-0.022-0.259-0.239-0.459-0.499-0.459H8.852
		c-0.393,0-0.725-0.283-0.773-0.659l-0.319-2.5c-0.027-0.21,0.036-0.414,0.178-0.575c0.148-0.169,0.365-0.266,0.594-0.266h0.132
		c0.138,0,0.271-0.057,0.365-0.158s0.143-0.236,0.134-0.375C9.161,9.215,9,6.756,9,5.996c0-1.952,0.654-3.953,5.505-4
		c0.101-0.001,0.199-0.032,0.282-0.09c1.348-0.944,2.401-0.915,3.337-0.892c0.153,0.004,0.301,0.008,0.446,0.008
		C20.419,1.022,21.729,1.578,22.464,2.675z"/>
	<path d="M29.5,20.995H29v-0.5c0-2.481-2.019-4.5-4.5-4.5s-4.5,2.019-4.5,4.5v0.5h-0.5c-0.276,0-0.5,0.224-0.5,0.5v8
		c0,0.276,0.224,0.5,0.5,0.5h10c0.276,0,0.5-0.224,0.5-0.5v-8C30,21.219,29.776,20.995,29.5,20.995z M21,20.495
		c0-1.93,1.57-3.5,3.5-3.5s3.5,1.57,3.5,3.5v0.5h-7V20.495z M29,28.995h-9v-7h9V28.995z"/>
	<path d="M24.5,22.995c-0.827,0-1.5,0.673-1.5,1.5c0,0.651,0.419,1.201,1,1.408v0.592c0,0.276,0.224,0.5,0.5,0.5s0.5-0.224,0.5-0.5
		v-0.592c0.581-0.207,1-0.757,1-1.408C26,23.668,25.327,22.995,24.5,22.995z"/>
</g>
</svg>
