<?xml version="1.0" encoding="iso-8859-1"?>
<!-- Generator: Adobe Illustrator 19.0.0, SVG Export Plug-In . SVG Version: 6.00 Build 0)  -->
<svg version="1.1" id="Layer_1" xmlns="http://www.w3.org/2000/svg" xmlns:xlink="http://www.w3.org/1999/xlink" x="0px" y="0px"
	 viewBox="0 0 30 30" style="enable-background:new 0 0 30 30;" xml:space="preserve">
<g>
	<path d="M21.586,15.838c0.091-0.057,0.161-0.142,0.2-0.242c0.083-0.212,0.209-0.549,0.3-0.858c0.742-0.141,1.331-0.738,1.429-1.5
		l0.319-2.5c0.063-0.487-0.088-0.981-0.412-1.353c-0.219-0.251-0.503-0.434-0.817-0.531l0.124-2.489l0.51-0.498
		c0.69-0.718,1.261-1.951,0.055-3.75c-0.931-1.391-2.52-2.097-4.724-2.097c-0.136,0-0.275-0.004-0.419-0.007
		c-1.016-0.028-2.259-0.052-3.809,0.983c-4.326,0.078-6.343,1.669-6.343,4.998c0,0.584,0.086,2.049,0.134,2.82
		C7.769,8.896,7.436,9.091,7.186,9.375c-0.33,0.375-0.482,0.872-0.42,1.364l0.319,2.5c0.102,0.793,0.738,1.41,1.525,1.515
		c0.248,1.747,1.113,3.469,2.379,4.725l-0.48,1.877L5.53,22.573c-3.152,0.77-5.529,3.746-5.529,6.922c0,0.276,0.224,0.5,0.5,0.5h17
		c0.276,0,0.5-0.224,0.5-0.5v-8c0-0.544,0.303-1.046,0.791-1.311c0.141-0.077,0.236-0.217,0.257-0.377
		C19.253,18.168,20.179,16.722,21.586,15.838z"/>
	<path d="M29.499,20.994h-0.5v-0.5c0-2.481-2.019-4.5-4.5-4.5s-4.5,2.019-4.5,4.5v0.5h-0.5c-0.276,0-0.5,0.224-0.5,0.5v8
		c0,0.276,0.224,0.5,0.5,0.5h10c0.276,0,0.5-0.224,0.5-0.5v-8C29.999,21.218,29.775,20.994,29.499,20.994z M24.999,25.902v0.592
		c0,0.276-0.224,0.5-0.5,0.5s-0.5-0.224-0.5-0.5v-0.592c-0.581-0.207-1-0.757-1-1.408c0-0.827,0.673-1.5,1.5-1.5s1.5,0.673,1.5,1.5
		C25.999,25.145,25.58,25.695,24.999,25.902z M27.999,20.994h-7v-0.5c0-1.93,1.57-3.5,3.5-3.5s3.5,1.57,3.5,3.5V20.994z"/>
</g>
</svg>
