<?xml version="1.0" encoding="iso-8859-1"?>
<!-- Generator: Adobe Illustrator 19.0.0, SVG Export Plug-In . SVG Version: 6.00 Build 0)  -->
<svg version="1.1" id="Layer_1" xmlns="http://www.w3.org/2000/svg" xmlns:xlink="http://www.w3.org/1999/xlink" x="0px" y="0px"
	 viewBox="0 0 24 24" style="enable-background:new 0 0 24 24;" xml:space="preserve">
<g>
	<path d="M8.114,11.892c0.013,0.013,0.029,0.022,0.042,0.035c0.237,0.232,0.492,0.444,0.767,0.63
		c0.035,0.024,0.072,0.043,0.107,0.066c0.265,0.171,0.542,0.323,0.835,0.446c0.036,0.015,0.072,0.026,0.108,0.04
		c0.298,0.119,0.608,0.216,0.929,0.281c0.02,0.004,0.04,0.005,0.06,0.009C11.3,13.463,11.646,13.5,12,13.5s0.7-0.037,1.036-0.101
		c0.02-0.004,0.041-0.005,0.06-0.009c0.321-0.065,0.631-0.162,0.929-0.281c0.036-0.014,0.073-0.025,0.108-0.04
		c0.293-0.124,0.571-0.276,0.835-0.446c0.035-0.023,0.072-0.042,0.107-0.066c0.275-0.186,0.531-0.398,0.767-0.63
		c0.013-0.013,0.029-0.022,0.042-0.035c0.003-0.003,0.003-0.006,0.005-0.009C16.885,10.887,17.5,9.514,17.5,8
		c0-3.032-2.467-5.5-5.5-5.5S6.5,4.968,6.5,8c0,1.514,0.615,2.887,1.609,3.883C8.112,11.886,8.112,11.889,8.114,11.892z M10.5,7
		c0-0.827,0.673-1.5,1.5-1.5s1.5,0.673,1.5,1.5S12.827,8.5,12,8.5S10.5,7.827,10.5,7z M14.703,11.575
		c-0.105,0.079-0.209,0.16-0.321,0.228c-0.089,0.056-0.186,0.102-0.279,0.152c-1.3,0.667-2.905,0.667-4.205,0
		c-0.094-0.05-0.19-0.095-0.279-0.152c-0.112-0.068-0.216-0.149-0.321-0.228c-0.079-0.06-0.154-0.124-0.229-0.189
		C9.598,10.246,10.735,9.5,12,9.5s2.403,0.746,2.932,1.886C14.857,11.451,14.782,11.515,14.703,11.575z M12,3.5
		c2.481,0,4.5,2.019,4.5,4.5c0,0.978-0.322,1.877-0.853,2.615c-0.462-0.793-1.161-1.404-1.986-1.76C14.172,8.397,14.5,7.739,14.5,7
		c0-1.379-1.122-2.5-2.5-2.5S9.5,5.621,9.5,7c0,0.739,0.328,1.397,0.84,1.855c-0.826,0.356-1.524,0.967-1.986,1.76
		C7.822,9.877,7.5,8.978,7.5,8C7.5,5.519,9.519,3.5,12,3.5z"/>
	<path d="M21,0.5H3C1.622,0.5,0.5,1.621,0.5,3v18c0,1.379,1.122,2.5,2.5,2.5h18c1.378,0,2.5-1.121,2.5-2.5V3
		C23.5,1.621,22.378,0.5,21,0.5z M22.5,21c0,0.827-0.673,1.5-1.5,1.5H3c-0.827,0-1.5-0.673-1.5-1.5V3c0-0.827,0.673-1.5,1.5-1.5h18
		c0.827,0,1.5,0.673,1.5,1.5V21z"/>
	<path d="M19,14.5H5c-1.378,0-2.5,1.121-2.5,2.5v2c0,1.379,1.122,2.5,2.5,2.5h14c1.378,0,2.5-1.121,2.5-2.5v-2
		C21.5,15.621,20.378,14.5,19,14.5z M20.5,19c0,0.827-0.673,1.5-1.5,1.5H5c-0.827,0-1.5-0.673-1.5-1.5v-2c0-0.827,0.673-1.5,1.5-1.5
		h14c0.827,0,1.5,0.673,1.5,1.5V19z"/>
	<path d="M7.353,16.647c-0.195-0.195-0.512-0.195-0.707,0L6,17.293l-0.646-0.646c-0.195-0.195-0.512-0.195-0.707,0
		s-0.195,0.512,0,0.707L5.292,18l-0.646,0.646c-0.195,0.195-0.195,0.512,0,0.707C4.744,19.451,4.872,19.5,5,19.5
		s0.256-0.049,0.353-0.146L6,18.708l0.646,0.646C6.744,19.451,6.872,19.5,7,19.5s0.256-0.049,0.353-0.146
		c0.195-0.195,0.195-0.512,0-0.707L6.707,18l0.646-0.646C7.548,17.159,7.548,16.842,7.353,16.647z"/>
	<path d="M11.353,16.647c-0.195-0.195-0.512-0.195-0.707,0L10,17.293l-0.646-0.646c-0.195-0.195-0.512-0.195-0.707,0
		s-0.195,0.512,0,0.707L9.292,18l-0.646,0.646c-0.195,0.195-0.195,0.512,0,0.707C8.744,19.451,8.872,19.5,9,19.5
		s0.256-0.049,0.353-0.146L10,18.708l0.646,0.646C10.744,19.451,10.872,19.5,11,19.5s0.256-0.049,0.353-0.146
		c0.195-0.195,0.195-0.512,0-0.707L10.707,18l0.646-0.646C11.548,17.159,11.548,16.842,11.353,16.647z"/>
	<path d="M15.353,16.647c-0.195-0.195-0.512-0.195-0.707,0L14,17.293l-0.646-0.646c-0.195-0.195-0.512-0.195-0.707,0
		s-0.195,0.512,0,0.707L13.292,18l-0.646,0.646c-0.195,0.195-0.195,0.512,0,0.707C12.744,19.451,12.872,19.5,13,19.5
		s0.256-0.049,0.353-0.146L14,18.708l0.646,0.646C14.744,19.451,14.872,19.5,15,19.5s0.256-0.049,0.353-0.146
		c0.195-0.195,0.195-0.512,0-0.707L14.707,18l0.646-0.646C15.548,17.159,15.548,16.842,15.353,16.647z"/>
	<path d="M19.353,16.647c-0.195-0.195-0.512-0.195-0.707,0L18,17.293l-0.646-0.646c-0.195-0.195-0.512-0.195-0.707,0
		s-0.195,0.512,0,0.707L17.292,18l-0.646,0.646c-0.195,0.195-0.195,0.512,0,0.707C16.744,19.451,16.872,19.5,17,19.5
		s0.256-0.049,0.353-0.146L18,18.708l0.646,0.646C18.744,19.451,18.872,19.5,19,19.5s0.256-0.049,0.353-0.146
		c0.195-0.195,0.195-0.512,0-0.707L18.707,18l0.646-0.646C19.548,17.159,19.548,16.842,19.353,16.647z"/>
</g>
</svg>
