<?xml version="1.0" encoding="iso-8859-1"?>
<!-- Generator: Adobe Illustrator 19.0.0, SVG Export Plug-In . SVG Version: 6.00 Build 0)  -->
<svg version="1.1" id="Layer_1" xmlns="http://www.w3.org/2000/svg" xmlns:xlink="http://www.w3.org/1999/xlink" x="0px" y="0px"
	 viewBox="0 0 24 24" style="enable-background:new 0 0 24 24;" xml:space="preserve">
<path d="M21.5,4h-19C1.122,4,0,5.122,0,6.5v11C0,18.878,1.122,20,2.5,20h19c1.378,0,2.5-1.122,2.5-2.5v-11C24,5.122,22.878,4,21.5,4
	z M8.82,12.884l-6,5C2.726,17.962,2.613,18,2.5,18c-0.144,0-0.286-0.061-0.385-0.18c-0.177-0.212-0.148-0.528,0.064-0.705l6-5
	c0.212-0.176,0.528-0.147,0.705,0.064C9.061,12.392,9.032,12.708,8.82,12.884z M12,13.017c-0.55,0-1.101-0.164-1.581-0.493
	L2.218,6.913C1.99,6.757,1.932,6.446,2.088,6.218s0.466-0.287,0.695-0.13l8.201,5.611c0.617,0.422,1.415,0.422,2.033,0l8.201-5.611
	c0.229-0.155,0.54-0.098,0.695,0.13c0.156,0.228,0.098,0.539-0.13,0.695l-8.201,5.611C13.101,12.853,12.55,13.017,12,13.017z
	 M21.884,17.82C21.785,17.939,21.643,18,21.5,18c-0.113,0-0.226-0.038-0.32-0.116l-6-5c-0.212-0.177-0.241-0.492-0.064-0.705
	c0.177-0.211,0.492-0.24,0.705-0.064l6,5C22.032,17.292,22.061,17.608,21.884,17.82z"/>
</svg>
