<?xml version="1.0" encoding="iso-8859-1"?>
<!-- Generator: Adobe Illustrator 19.0.0, SVG Export Plug-In . SVG Version: 6.00 Build 0)  -->
<svg version="1.1" id="Layer_1" xmlns="http://www.w3.org/2000/svg" xmlns:xlink="http://www.w3.org/1999/xlink" x="0px" y="0px"
	 viewBox="0 0 24 24" style="enable-background:new 0 0 24 24;" xml:space="preserve">
<g>
	<path d="M6.441,11.999C7.349,15.01,9.537,17,12,17s4.651-1.99,5.559-5.001C18.384,11.951,19,10.893,19,9.5
		c0-0.397-0.052-0.785-0.152-1.132C18.952,7.865,19,7.428,19,7c0-3.86-3.14-7-7-7S5,3.14,5,7c0,0.428,0.048,0.865,0.152,1.368
		C5.052,8.715,5,9.104,5,9.5C5,10.893,5.615,11.951,6.441,11.999z M17.468,10.977c-0.136-0.084-0.303-0.099-0.452-0.039
		c-0.148,0.06-0.258,0.188-0.297,0.343C16.019,14.104,14.123,16,12,16s-4.019-1.896-4.719-4.719
		c-0.039-0.155-0.165-0.271-0.313-0.331c-0.055-0.022-0.114-0.033-0.175-0.033c-0.103,0-0.208,0.03-0.293,0.084
		c-0.125,0-0.5-0.532-0.5-1.5c0-0.208,0.024-0.406,0.06-0.596c0.449,0.028,0.861,0.089,0.867,0.089
		C7.075,9.016,7.229,8.971,7.34,8.867c0.112-0.103,0.17-0.252,0.159-0.403C7.423,7.423,7.485,6.336,7.631,6.001
		c0.648-0.007,1.925-0.011,2.728-0.809c0.131-0.131,0.243-0.276,0.334-0.435c1.077,1.065,3.247,2.092,5.344,2.228
		c0.119,0.84,0.487,1.676,0.506,1.718C16.624,8.885,16.804,9,17,9c0.013,0,0.027,0,0.041-0.001l0.904-0.074
		C17.978,9.109,18,9.301,18,9.501C17.999,10.468,17.632,11.005,17.468,10.977z M12,1c3.309,0,6,2.691,6,6
		c0,0.287-0.037,0.595-0.094,0.925l-0.577,0.047c-0.135-0.368-0.328-0.978-0.328-1.472c0-0.276-0.224-0.5-0.5-0.5
		c-2.935,0-5.442-1.998-5.5-2.5c0-0.276-0.224-0.5-0.5-0.5s-0.5,0.224-0.5,0.5c0,0.429-0.114,0.751-0.347,0.983
		C9.166,4.968,8.241,5,7.638,5c-0.281-0.001-0.52,0.056-0.704,0.254C6.488,5.735,6.441,7.028,6.47,7.933
		C6.352,7.922,6.223,7.912,6.091,7.905C6.036,7.583,6,7.281,6,7C6,3.691,8.691,1,12,1z"/>
	<path d="M19.635,16.627l-2.572-0.895c-0.188-0.065-0.398-0.013-0.533,0.134C15.269,17.242,13.66,18,12,18s-3.269-0.758-4.53-2.134
		c-0.136-0.147-0.346-0.198-0.533-0.134l-2.572,0.895C1.754,17.535,0,20.002,0,22.766V23.5C0,23.776,0.224,24,0.5,24h23
		c0.276,0,0.5-0.224,0.5-0.5v-0.734C24,20.002,22.246,17.535,19.635,16.627z M23,23H1v-0.234c0-2.339,1.484-4.427,3.693-5.195
		l2.268-0.789C8.379,18.215,10.157,19,12,19s3.621-0.785,5.039-2.218l2.268,0.789C21.516,18.339,23,20.427,23,22.766V23z"/>
	<path d="M10.5,9h-1C9.224,9,9,9.224,9,9.5S9.224,10,9.5,10h1c0.276,0,0.5-0.224,0.5-0.5S10.776,9,10.5,9z"/>
	<path d="M14.5,9h-1C13.224,9,13,9.224,13,9.5s0.224,0.5,0.5,0.5h1c0.276,0,0.5-0.224,0.5-0.5S14.776,9,14.5,9z"/>
</g>
</svg>
