<?xml version="1.0" encoding="iso-8859-1"?>
<!-- Generator: Adobe Illustrator 19.0.0, SVG Export Plug-In . SVG Version: 6.00 Build 0)  -->
<svg version="1.1" id="Layer_1" xmlns="http://www.w3.org/2000/svg" xmlns:xlink="http://www.w3.org/1999/xlink" x="0px" y="0px"
	 viewBox="0 0 24 24" style="enable-background:new 0 0 24 24;" xml:space="preserve">
<path d="M18.497,14c0-1.707-1.147-3.286-3-4.2V5.5c0-0.043-0.014-0.081-0.024-0.121c1.217-0.87,1.985-2.116,2.015-3.306
	c0.003-0.018,0.007-0.035,0.007-0.053c0-0.007,0.003-0.013,0.003-0.02c0-0.016-0.009-0.031-0.011-0.047
	c-0.005-0.046-0.013-0.09-0.031-0.133c-0.006-0.014-0.004-0.031-0.011-0.045C17.353,1.595,16.428,0,11.997,0S6.64,1.595,6.549,1.776
	c-0.005,0.01-0.003,0.022-0.008,0.033c-0.019,0.044-0.027,0.09-0.033,0.138C6.507,1.965,6.497,1.982,6.497,2
	c0,0.007,0.003,0.014,0.003,0.021c0,0.011,0.003,0.022,0.004,0.033c0.022,1.196,0.794,2.45,2.017,3.324
	C8.511,5.419,8.497,5.457,8.497,5.5v4.3c-1.854,0.914-3,2.497-2.993,4.285c0.042,0.24,0.569,2.281,5.993,2.403V23.5
	c0,0.276,0.224,0.5,0.5,0.5s0.5-0.224,0.5-0.5v-7.012C17.92,16.366,18.448,14.322,18.497,14z M16.325,2.001
	C15.889,2.36,14.733,3,11.998,3C9.261,3,8.104,2.36,7.669,2.001C8.102,1.642,9.255,1,11.997,1S15.892,1.642,16.325,2.001z
	 M7.887,3.296C8.704,3.671,9.987,4,11.997,4c2.009,0,3.293-0.328,4.109-0.704C15.414,4.48,13.862,5.5,11.997,5.5
	S8.579,4.48,7.887,3.296z M11.997,6.5c0.918,0,1.756-0.219,2.5-0.558v4.425c-0.13,0.156-0.675,0.633-2.5,0.633
	c-1.864,0-2.393-0.497-2.5-0.622V5.942C10.241,6.281,11.078,6.5,11.997,6.5z M11.997,15.499c-4.616,0-5.399-1.344-5.499-1.573
	c0.031-1.2,0.825-2.333,2.122-3.072C8.858,11.251,9.614,12,11.997,12c2.382,0,3.138-0.749,3.377-1.146
	c1.297,0.74,2.092,1.873,2.122,3.072C17.396,14.154,16.613,15.499,11.997,15.499z"/>
</svg>
