<?xml version="1.0" encoding="iso-8859-1"?>
<!-- Generator: Adobe Illustrator 19.0.0, SVG Export Plug-In . SVG Version: 6.00 Build 0)  -->
<svg version="1.1" id="Layer_1" xmlns="http://www.w3.org/2000/svg" xmlns:xlink="http://www.w3.org/1999/xlink" x="0px" y="0px"
	 viewBox="0 0 30 30" style="enable-background:new 0 0 30 30;" xml:space="preserve">
<path d="M22.5,17c0-2.348-0.957-3.848-3.067-4.842c0.041-0.214,0.067-0.433,0.067-0.658v-5c0-0.036-0.013-0.068-0.021-0.101
	C20.749,5.329,21.5,3.875,21.5,2.5c0-0.006-0.003-0.011-0.003-0.017c-0.001-0.018-0.006-0.034-0.009-0.052
	c-0.004-0.031-0.005-0.064-0.016-0.094C21.391,2.099,20.51,0,15,0S8.609,2.099,8.527,2.338C8.518,2.363,8.518,2.39,8.514,2.417
	C8.51,2.439,8.504,2.459,8.503,2.482C8.503,2.488,8.5,2.494,8.5,2.5c0,1.375,0.751,2.829,2.021,3.899
	C10.513,6.432,10.5,6.464,10.5,6.5v5c0,0.225,0.026,0.444,0.067,0.658C8.457,13.152,7.5,14.651,7.5,16.986
	c-0.003,0.106,0.013,0.672,0.618,1.294c1.054,1.085,3.208,1.654,6.382,1.709V29.5c0,0.276,0.224,0.5,0.5,0.5s0.5-0.224,0.5-0.5
	v-9.511c3.174-0.055,5.328-0.625,6.382-1.709C22.487,17.658,22.503,17.093,22.5,17z M15,1c3.844,0,5.075,1.07,5.415,1.5
	C20.075,2.93,18.841,4,15,4c-3.834,0-5.072-1.068-5.416-1.499C9.923,2.072,11.154,1,15,1z M9.888,4.008C10.827,4.529,12.391,5,15,5
	s4.173-0.471,5.112-0.992C19.331,5.61,17.406,7,15,7S10.669,5.61,9.888,4.008z M15,8c1.329,0,2.513-0.354,3.5-0.919V11.5
	c0,1.379-1.121,2.5-2.5,2.5h-2c-1.379,0-2.5-1.121-2.5-2.5V7.081C12.487,7.646,13.671,8,15,8z M15,19c-6.316,0-6.499-1.985-6.5-2
	c0-1.926,0.712-3.074,2.407-3.897C11.491,14.224,12.651,15,14,15h2c1.349,0,2.509-0.776,3.093-1.897
	c1.695,0.823,2.407,1.97,2.407,3.892C21.499,17.015,21.316,19,15,19z"/>
</svg>
