<?xml version="1.0" encoding="iso-8859-1"?>
<!-- Generator: Adobe Illustrator 19.0.0, SVG Export Plug-In . SVG Version: 6.00 Build 0)  -->
<svg version="1.1" id="Layer_1" xmlns="http://www.w3.org/2000/svg" xmlns:xlink="http://www.w3.org/1999/xlink" x="0px" y="0px"
	 viewBox="0 0 24 24" style="enable-background:new 0 0 24 24;" xml:space="preserve">
<path d="M23.265,2.807l-1.573-1.573c-0.879-0.88-2.243-0.982-3.249-0.246L4.199,11.601c-0.009,0.007-0.013,0.018-0.022,0.026
	c-0.01,0.009-0.023,0.012-0.033,0.022c-0.025,0.025-0.037,0.056-0.056,0.084c-0.014,0.021-0.031,0.039-0.042,0.063
	c-0.03,0.066-0.049,0.136-0.049,0.208v0.297c0,1.952-0.671,3.866-1.891,5.389c-0.159,0.199-0.144,0.486,0.037,0.666l0.647,0.647
	l-2.646,2.646c-0.123,0.122-0.173,0.3-0.133,0.468c0.039,0.169,0.164,0.304,0.328,0.359l3,1c0.052,0.018,0.105,0.026,0.158,0.026
	c0.131,0,0.258-0.051,0.353-0.146l1.646-1.646l0.646,0.646c0.097,0.096,0.225,0.146,0.354,0.146c0.096,0,0.192-0.027,0.278-0.084
	l0.701-0.467c1.422-0.948,3.076-1.449,4.785-1.449h0.236c0.071,0,0.141-0.019,0.207-0.049c0.023-0.01,0.04-0.027,0.06-0.04
	c0.029-0.019,0.06-0.032,0.086-0.057c0.01-0.01,0.013-0.023,0.022-0.033c0.007-0.009,0.019-0.012,0.026-0.022L23.513,6.054
	C24.248,5.051,24.144,3.685,23.265,2.807z M3.363,22.43l-1.939-0.646l2.074-2.074l1.292,1.292L3.363,22.43z M6.921,21.119
	l-0.36,0.24l-0.71-0.71l0,0l0,0l-1.997-1.997c-0.001-0.001-0.001-0.002-0.002-0.003s-0.002-0.001-0.003-0.002L3.16,17.958
	c1.019-1.404,1.638-3.067,1.795-4.791l6.402,6.402C9.774,19.717,8.254,20.23,6.921,21.119z M22.708,5.46L12.442,19.239l-7.155-7.155
	L19.038,1.793c0.599-0.441,1.418-0.379,1.947,0.149l1.573,1.573C23.085,4.043,23.147,4.862,22.708,5.46z"/>
</svg>
