<?xml version="1.0" encoding="iso-8859-1"?>
<!-- Generator: Adobe Illustrator 19.0.0, SVG Export Plug-In . SVG Version: 6.00 Build 0)  -->
<svg version="1.1" id="Layer_1" xmlns="http://www.w3.org/2000/svg" xmlns:xlink="http://www.w3.org/1999/xlink" x="0px" y="0px"
	 viewBox="0 0 24 24" style="enable-background:new 0 0 24 24;" xml:space="preserve">
<g>
	<path d="M16.5,0h-9C6.121,0,5,1.122,5,2.5v19C5,22.878,6.121,24,7.5,24h9c1.379,0,2.5-1.122,2.5-2.5v-19C19,1.122,17.879,0,16.5,0z
		 M6,5h12v14H6V5z M7.5,1h9C17.327,1,18,1.673,18,2.5V4H6V2.5C6,1.673,6.673,1,7.5,1z M16.5,23h-9C6.673,23,6,22.327,6,21.5V20h12
		v1.5C18,22.327,17.327,23,16.5,23z"/>
	<path d="M11.5,3h1C12.776,3,13,2.776,13,2.5S12.776,2,12.5,2h-1C11.224,2,11,2.224,11,2.5S11.224,3,11.5,3z"/>
	<path d="M15.52,3c0.276,0,0.5-0.224,0.5-0.5S15.796,2,15.52,2h-0.01c-0.276,0-0.495,0.224-0.495,0.5S15.245,3,15.52,3z"/>
	<path d="M9.5,21h-2C7.224,21,7,21.224,7,21.5S7.224,22,7.5,22h2c0.276,0,0.5-0.224,0.5-0.5S9.776,21,9.5,21z"/>
	<path d="M16.5,21h-2c-0.276,0-0.5,0.224-0.5,0.5s0.224,0.5,0.5,0.5h2c0.276,0,0.5-0.224,0.5-0.5S16.776,21,16.5,21z"/>
</g>
</svg>
