<?xml version="1.0" encoding="iso-8859-1"?>
<!-- Generator: Adobe Illustrator 19.0.0, SVG Export Plug-In . SVG Version: 6.00 Build 0)  -->
<svg version="1.1" id="Layer_1" xmlns="http://www.w3.org/2000/svg" xmlns:xlink="http://www.w3.org/1999/xlink" x="0px" y="0px"
	 viewBox="0 0 24 24" style="enable-background:new 0 0 24 24;" xml:space="preserve">
<g>
	<path d="M9.147,16.147c-0.195,0.195-0.195,0.512,0,0.707l1,1C10.245,17.951,10.373,18,10.501,18s0.256-0.049,0.353-0.146
		c0.195-0.195,0.195-0.512,0-0.707l-1-1C9.659,15.952,9.342,15.952,9.147,16.147z"/>
	<path d="M10.001,11.5c0-0.827-0.673-1.5-1.5-1.5s-1.5,0.673-1.5,1.5s0.673,1.5,1.5,1.5S10.001,12.327,10.001,11.5z M8.501,12
		c-0.275,0-0.5-0.224-0.5-0.5s0.225-0.5,0.5-0.5s0.5,0.224,0.5,0.5S8.776,12,8.501,12z"/>
	<path d="M23.999,10.501c0-2.581-1.033-3.5-2-3.5c-0.527,0-1.094,0.125-1.536,0.812C19.215,3.461,15.936,0,12.5,0h-1
		C8.064,0,4.785,3.46,3.536,7.811C3.094,7.124,2.528,7,2.001,7c-0.967,0-2,0.919-2,3.5c0,2.992,1.63,4.379,3.305,4.48
		c0.459,2.345,1.313,3.391,1.711,3.764C5.013,18.831,5.001,18.911,5.001,19c0,0.125,0.007,0.255,0.021,0.387
		c-0.029,0.122-0.01,0.249,0.057,0.363C5.455,21.677,7.297,24,11.501,24h1c4.2,0,6.041-2.318,6.422-4.244
		c0.071-0.117,0.089-0.249,0.058-0.375c0.013-0.13,0.02-0.258,0.02-0.381c0-0.089-0.013-0.17-0.016-0.257
		c0.399-0.375,1.251-1.421,1.709-3.762C22.37,14.881,24,13.493,23.999,10.501z M1.001,10.5c0-1.472,0.411-2.5,1-2.5
		c0.35,0,0.711,0,1.017,1.13c0.027,0.1,0.088,0.177,0.16,0.241C3.063,10.07,3,10.782,3,11.5c0,0.931,0.057,1.739,0.147,2.461
		C2.029,13.772,1.001,12.688,1.001,10.5z M6,19.001c0-1.232,0.342-3.391,2.632-4.018c0.267-0.073,0.424-0.348,0.351-0.614
		c-0.072-0.266-0.344-0.423-0.614-0.351c-0.42,0.115-0.794,0.291-1.142,0.497c-0.865-0.882-1.226-1.462-1.226-3.014
		c0-1.183,0.821-2.5,2-2.5c1.029,0,1.494,0.265,1.944,0.521c0.414,0.235,0.843,0.479,1.556,0.479h1c0.713,0,1.142-0.243,1.556-0.479
		c0.45-0.256,0.915-0.521,1.944-0.521c1.179,0,2,1.317,2,2.5c0,1.552-0.362,2.132-1.227,3.015c-0.348-0.207-0.723-0.382-1.143-0.498
		c-0.267-0.07-0.542,0.086-0.614,0.351c-0.073,0.266,0.084,0.541,0.351,0.614C17.658,15.61,18,17.77,18,19.001
		c0,0.104-0.007,0.212-0.02,0.322c-1.08,1.226-3.506,1.676-5.479,1.676h-1c-1.975,0-4.406-0.45-5.483-1.68
		C6.006,19.21,6,19.104,6,19.001z M12.5,23.001h-1c-2.438,0-3.933-0.875-4.738-1.921C8.498,21.912,10.695,22,11.501,22h1
		c0.805,0,2.999-0.087,4.736-0.918C16.431,22.127,14.936,23.001,12.5,23.001z M18.805,17.367c-0.223-0.905-0.636-1.666-1.227-2.246
		c0.977-1.025,1.423-1.865,1.423-3.621c0-1.69-1.205-3.5-3-3.5c-1.293,0-1.928,0.361-2.438,0.651C13.208,8.854,12.95,9,12.502,9h-1
		c-0.449,0-0.707-0.147-1.062-0.349C9.931,8.361,9.296,8,8.002,8c-1.795,0-3,1.81-3,3.5c0,1.755,0.445,2.596,1.422,3.62
		c-0.59,0.581-1.004,1.341-1.227,2.246c-0.519-0.853-1.196-2.593-1.196-5.866c0-5.397,3.645-10.5,7.5-10.5h1
		c3.855,0,7.5,5.103,7.5,10.5C20.001,14.772,19.324,16.513,18.805,17.367z M20.853,13.961C20.942,13.24,21,12.431,21,11.5
		c0-0.717-0.063-1.429-0.178-2.127c0.073-0.063,0.134-0.141,0.161-0.242C21.29,8,21.651,8,22.001,8c0.589,0,1,1.028,1,2.5
		C23.001,12.689,21.97,13.774,20.853,13.961z"/>
	<path d="M13.147,17.854C13.245,17.951,13.373,18,13.501,18s0.256-0.049,0.353-0.146l1-1c0.195-0.195,0.195-0.512,0-0.707
		s-0.512-0.195-0.707,0l-1,1C12.952,17.342,12.952,17.659,13.147,17.854z"/>
	<path d="M15.501,13c0.827,0,1.5-0.673,1.5-1.5s-0.673-1.5-1.5-1.5s-1.5,0.673-1.5,1.5S14.674,13,15.501,13z M15.501,11
		c0.275,0,0.5,0.224,0.5,0.5s-0.225,0.5-0.5,0.5s-0.5-0.224-0.5-0.5S15.226,11,15.501,11z"/>
	<path d="M11.501,12h1c0.276,0,0.5-0.224,0.5-0.5s-0.224-0.5-0.5-0.5h-1c-0.276,0-0.5,0.224-0.5,0.5S11.225,12,11.501,12z"/>
	<path d="M11.501,14h1c0.276,0,0.5-0.224,0.5-0.5s-0.224-0.5-0.5-0.5h-1c-0.276,0-0.5,0.224-0.5,0.5S11.225,14,11.501,14z"/>
</g>
</svg>
