<?xml version="1.0" encoding="iso-8859-1"?>
<!-- Generator: Adobe Illustrator 19.0.0, SVG Export Plug-In . SVG Version: 6.00 Build 0)  -->
<svg version="1.1" id="Layer_1" xmlns="http://www.w3.org/2000/svg" xmlns:xlink="http://www.w3.org/1999/xlink" x="0px" y="0px"
	 viewBox="0 0 24 24" style="enable-background:new 0 0 24 24;" xml:space="preserve">
<g>
	<path d="M20.854,13.951c0.019-0.153,0.039-0.303,0.054-0.465c0.02-0.207,0.034-0.428,0.048-0.649
		c0.006-0.093,0.014-0.179,0.019-0.275c0.016-0.337,0.026-0.689,0.026-1.062c0-0.355-0.018-0.706-0.047-1.056
		c-0.006-0.072-0.016-0.144-0.023-0.216c-0.028-0.283-0.062-0.563-0.107-0.841C20.813,9.32,20.8,9.253,20.788,9.186
		c-0.083-0.472-0.182-0.939-0.309-1.393c-0.005,0.008-0.009,0.018-0.014,0.026C19.218,3.464,15.937,0,12.5,0h-1
		C8.063,0,4.782,3.463,3.535,7.817C3.531,7.81,3.527,7.799,3.522,7.792c-0.04,0.142-0.07,0.287-0.106,0.431
		C3.412,8.239,3.408,8.256,3.404,8.272c-0.071,0.29-0.132,0.584-0.185,0.881C3.203,9.238,3.187,9.322,3.174,9.407
		c-0.04,0.253-0.071,0.508-0.097,0.765c-0.01,0.096-0.023,0.192-0.031,0.288C3.017,10.804,3,11.151,3,11.5
		c0,0.364,0.009,0.709,0.024,1.039c0.008,0.166,0.021,0.317,0.032,0.474c0.011,0.151,0.02,0.307,0.033,0.451
		c0.019,0.201,0.043,0.387,0.067,0.575c0.011,0.083,0.02,0.169,0.032,0.249c0.03,0.203,0.063,0.393,0.098,0.58
		c0.007,0.036,0.012,0.077,0.019,0.112c0.001,0,0.001,0,0.002,0c0.218,1.112,0.524,1.94,0.83,2.534
		c0.243-1.266,0.816-2.339,1.653-3.145C5.254,13.618,5,12.819,5,11.5C5,9.81,6.206,8,8,8c1.294,0,1.929,0.361,2.438,0.651
		C10.794,8.853,11.051,9,11.5,9h1c0.449,0,0.706-0.146,1.062-0.349C14.072,8.361,14.707,8,16,8c1.794,0,3,1.81,3,3.5
		c0,1.319-0.254,2.118-0.791,2.869c0.836,0.805,1.41,1.878,1.653,3.145c0.306-0.594,0.612-1.422,0.83-2.534c0.001,0,0.002,0,0.003,0
		c0.01-0.053,0.018-0.113,0.028-0.167c0.03-0.163,0.059-0.328,0.085-0.503C20.825,14.195,20.839,14.072,20.854,13.951z"/>
	<path d="M22,7c-0.227,0-0.461,0.029-0.69,0.108C21.747,8.497,22,9.981,22,11.5c0,1.258-0.095,2.325-0.245,3.242
		C22.996,14.213,24,12.847,24,10.5C24,7.919,22.967,7,22,7z"/>
	<path d="M2,7c-0.967,0-2,0.919-2,3.5c0,2.348,1.003,3.713,2.245,4.242C2.095,13.825,2,12.758,2,11.5
		c0-1.519,0.253-3.003,0.69-4.392C2.461,7.029,2.227,7,2,7z"/>
	<circle cx="15.5" cy="11.5" r="0.5"/>
	<circle cx="8.5" cy="11.5" r="0.5"/>
	<path d="M5.415,20.776C6.171,22.414,8.027,24,11.5,24h1c3.473,0,5.329-1.586,6.085-3.224C17.063,21.583,14.524,22,12,22
		S6.937,21.583,5.415,20.776z"/>
	<path d="M16.774,14.515C17.639,13.633,18,13.053,18,11.5c0-1.183-0.821-2.5-2-2.5c-1.029,0-1.494,0.265-1.944,0.521
		C13.642,9.757,13.213,10,12.5,10h-1c-0.713,0-1.142-0.244-1.556-0.479C9.494,9.265,9.029,9,8,9c-1.179,0-2,1.317-2,2.5
		c0,1.553,0.361,2.133,1.226,3.015C5.804,15.36,5,16.927,5,19c0,0.815,2.727,2,7,2s7-1.185,7-2
		C19,16.927,18.196,15.36,16.774,14.515z M11.5,11h1c0.276,0,0.5,0.224,0.5,0.5S12.776,12,12.5,12h-1c-0.276,0-0.5-0.224-0.5-0.5
		S11.224,11,11.5,11z M7,11.5C7,10.673,7.673,10,8.5,10s1.5,0.673,1.5,1.5S9.327,13,8.5,13S7,12.327,7,11.5z M10.854,17.854
		C10.756,17.952,10.628,18,10.5,18s-0.256-0.049-0.354-0.146l-1-1c-0.195-0.195-0.195-0.512,0-0.707s0.512-0.195,0.707,0l1,1
		C11.049,17.342,11.049,17.658,10.854,17.854z M12.5,14h-1c-0.276,0-0.5-0.224-0.5-0.5s0.224-0.5,0.5-0.5h1
		c0.276,0,0.5,0.224,0.5,0.5S12.776,14,12.5,14z M14.854,16.854l-1,1C13.756,17.952,13.628,18,13.5,18s-0.256-0.049-0.354-0.146
		c-0.195-0.195-0.195-0.512,0-0.707l1-1c0.195-0.195,0.512-0.195,0.707,0S15.049,16.658,14.854,16.854z M15.5,13
		c-0.827,0-1.5-0.673-1.5-1.5s0.673-1.5,1.5-1.5s1.5,0.673,1.5,1.5S16.327,13,15.5,13z"/>
</g>
</svg>
