<?xml version="1.0" encoding="iso-8859-1"?>
<!-- Generator: Adobe Illustrator 19.0.0, SVG Export Plug-In . SVG Version: 6.00 Build 0)  -->
<svg version="1.1" id="Layer_1" xmlns="http://www.w3.org/2000/svg" xmlns:xlink="http://www.w3.org/1999/xlink" x="0px" y="0px"
	 viewBox="0 0 24 24" style="enable-background:new 0 0 24 24;" xml:space="preserve">
<g>
	<path d="M9.167,14.851C9.675,14.393,10,13.737,10,13c0-1.381-1.119-2.5-2.5-2.5S5,11.619,5,13c0,0.737,0.325,1.393,0.833,1.851
		c-0.821,0.359-1.519,0.973-1.98,1.765C4.671,17.752,5.996,18.5,7.5,18.5s2.829-0.748,3.647-1.884
		C10.686,15.824,9.988,15.21,9.167,14.851z"/>
	<path d="M21.5,5.5h-5C16.224,5.5,16,5.724,16,6v1c0,0.827-0.673,1.5-1.5,1.5h-4C9.673,8.5,9,7.827,9,7V6c0-0.276-0.224-0.5-0.5-0.5
		h-6C1.121,5.5,0,6.622,0,8v11c0,1.378,1.121,2.5,2.5,2.5h19c1.379,0,2.5-1.122,2.5-2.5V8C24,6.622,22.879,5.5,21.5,5.5z M7.5,19.5
		c-1.503,0-2.866-0.607-3.86-1.588c0.003,0.003,0.007,0.005,0.01,0.008c-0.013-0.012-0.027-0.023-0.04-0.036l0,0
		C2.616,16.889,2,15.515,2,14c0-3.033,2.468-5.5,5.5-5.5S13,10.967,13,14S10.532,19.5,7.5,19.5z M21.5,17.5h-7
		c-0.276,0-0.5-0.224-0.5-0.5s0.224-0.5,0.5-0.5h7c0.276,0,0.5,0.224,0.5,0.5S21.776,17.5,21.5,17.5z M21.5,14.5h-7
		c-0.276,0-0.5-0.224-0.5-0.5s0.224-0.5,0.5-0.5h7c0.276,0,0.5,0.224,0.5,0.5S21.776,14.5,21.5,14.5z M21.5,11.5h-7
		c-0.276,0-0.5-0.224-0.5-0.5s0.224-0.5,0.5-0.5h7c0.276,0,0.5,0.224,0.5,0.5S21.776,11.5,21.5,11.5z"/>
	<path d="M10.5,7.5h4C14.776,7.5,15,7.276,15,7V3c0-0.276-0.224-0.5-0.5-0.5h-4C10.224,2.5,10,2.724,10,3v4
		C10,7.276,10.224,7.5,10.5,7.5z"/>
</g>
</svg>
