<?xml version="1.0" encoding="iso-8859-1"?>
<!-- Generator: Adobe Illustrator 19.0.0, SVG Export Plug-In . SVG Version: 6.00 Build 0)  -->
<svg version="1.1" id="Layer_1" xmlns="http://www.w3.org/2000/svg" xmlns:xlink="http://www.w3.org/1999/xlink" x="0px" y="0px"
	 viewBox="0 0 24 24" style="enable-background:new 0 0 24 24;" xml:space="preserve">
<g>
	<path d="M22.195,10.299c-0.354-0.261-0.796-0.587-0.854-0.802c-0.063-0.236,0.162-0.756,0.344-1.173
		c0.311-0.717,0.633-1.458,0.276-2.076c-0.362-0.626-1.172-0.717-1.956-0.805c-0.446-0.05-1.002-0.112-1.169-0.279
		s-0.229-0.722-0.279-1.169c-0.088-0.784-0.18-1.594-0.805-1.956c-0.617-0.359-1.359-0.036-2.075,0.276
		c-0.416,0.181-0.935,0.409-1.173,0.344c-0.216-0.057-0.542-0.499-0.803-0.854C13.25,1.193,12.738,0.499,12,0.499
		s-1.25,0.694-1.701,1.306c-0.261,0.354-0.587,0.796-0.802,0.854C9.258,2.721,8.741,2.496,8.324,2.315
		C7.607,2.004,6.867,1.681,6.248,2.039C5.622,2.401,5.531,3.211,5.443,3.995c-0.05,0.446-0.112,1.002-0.279,1.169
		S4.442,5.393,3.995,5.443c-0.784,0.088-1.594,0.18-1.956,0.805C1.681,6.865,2.003,7.606,2.315,8.323
		C2.496,8.74,2.722,9.259,2.659,9.496c-0.057,0.216-0.499,0.542-0.854,0.803C1.193,10.75,0.499,11.262,0.499,12
		s0.694,1.25,1.306,1.701c0.354,0.261,0.796,0.587,0.854,0.802c0.063,0.236-0.162,0.756-0.344,1.173
		c-0.311,0.717-0.633,1.458-0.276,2.076c0.362,0.626,1.172,0.717,1.956,0.805c0.446,0.05,1.002,0.112,1.169,0.279
		c0.167,0.167,0.229,0.723,0.279,1.169c0.088,0.784,0.179,1.594,0.804,1.956c0.616,0.358,1.359,0.037,2.076-0.276
		c0.417-0.181,0.935-0.407,1.173-0.344c0.216,0.057,0.542,0.499,0.803,0.854c0.451,0.612,0.963,1.306,1.701,1.306
		s1.25-0.694,1.702-1.306c0.261-0.354,0.587-0.796,0.802-0.854c0.236-0.064,0.756,0.162,1.173,0.344
		c0.717,0.311,1.457,0.634,2.076,0.276c0.626-0.362,0.717-1.172,0.805-1.956c0.049-0.447,0.112-1.002,0.278-1.169
		s0.722-0.229,1.169-0.279c0.784-0.088,1.594-0.18,1.956-0.805c0.358-0.617,0.036-1.358-0.276-2.075
		c-0.181-0.417-0.407-0.936-0.344-1.173c0.057-0.216,0.499-0.542,0.854-0.803c0.612-0.451,1.306-0.963,1.306-1.701
		C23.501,11.262,22.807,10.75,22.195,10.299z M21.602,12.897c-0.53,0.391-1.079,0.795-1.227,1.349
		c-0.154,0.574,0.124,1.213,0.393,1.831c0.172,0.396,0.432,0.994,0.328,1.175c-0.109,0.189-0.767,0.263-1.202,0.312
		c-0.664,0.075-1.351,0.152-1.765,0.566s-0.49,1.1-0.565,1.764c-0.049,0.435-0.123,1.093-0.312,1.202
		c-0.181,0.105-0.78-0.155-1.176-0.328c-0.618-0.269-1.255-0.547-1.831-0.393c-0.554,0.148-0.958,0.697-1.349,1.227
		c-0.265,0.357-0.663,0.899-0.896,0.899s-0.632-0.541-0.896-0.899c-0.391-0.53-0.795-1.079-1.349-1.227
		c-0.114-0.031-0.23-0.044-0.348-0.044c-0.478,0-0.987,0.221-1.484,0.438c-0.397,0.172-0.994,0.433-1.176,0.328
		c-0.189-0.11-0.263-0.767-0.311-1.202c-0.075-0.664-0.152-1.351-0.566-1.765s-1.101-0.491-1.765-0.566
		c-0.435-0.049-1.093-0.123-1.202-0.312c-0.105-0.181,0.156-0.78,0.328-1.176c0.268-0.618,0.546-1.257,0.393-1.831
		c-0.148-0.554-0.697-0.958-1.227-1.349C2.04,12.631,1.498,12.233,1.498,12s0.541-0.632,0.899-0.896
		c0.53-0.391,1.079-0.795,1.227-1.349C3.778,9.181,3.5,8.542,3.231,7.924C3.059,7.528,2.799,6.93,2.903,6.749
		C3.013,6.56,3.67,6.486,4.105,6.437C4.769,6.362,5.456,6.285,5.87,5.871S6.361,4.77,6.436,4.106
		c0.049-0.435,0.123-1.093,0.312-1.202c0.181-0.105,0.78,0.156,1.176,0.328C8.542,3.5,9.178,3.777,9.755,3.625
		c0.554-0.148,0.958-0.697,1.349-1.227C11.369,2.041,11.767,1.499,12,1.499s0.632,0.541,0.896,0.899
		c0.391,0.53,0.795,1.079,1.349,1.227c0.575,0.157,1.213-0.123,1.831-0.393c0.396-0.172,0.994-0.433,1.175-0.328
		c0.189,0.11,0.263,0.767,0.312,1.202c0.075,0.664,0.152,1.351,0.566,1.765s1.101,0.491,1.765,0.566
		c0.435,0.049,1.093,0.123,1.202,0.312c0.105,0.181-0.156,0.78-0.328,1.176c-0.268,0.618-0.546,1.257-0.393,1.831
		c0.148,0.554,0.697,0.958,1.227,1.349c0.357,0.265,0.899,0.663,0.899,0.896C22.501,12.234,21.96,12.633,21.602,12.897z"/>
	<path d="M9,9.501c-0.276,0-0.5,0.224-0.5,0.5v2.5l-2.1-2.8C6.271,9.529,6.047,9.459,5.842,9.527C5.638,9.595,5.5,9.786,5.5,10.001
		v4c0,0.276,0.224,0.5,0.5,0.5s0.5-0.224,0.5-0.5v-2.5l2.1,2.8c0.096,0.128,0.246,0.2,0.4,0.2c0.053,0,0.106-0.008,0.158-0.026
		C9.362,14.407,9.5,14.216,9.5,14.001v-4C9.5,9.725,9.276,9.501,9,9.501z"/>
	<path d="M13,10.501c0.276,0,0.5-0.224,0.5-0.5s-0.224-0.5-0.5-0.5h-2c-0.276,0-0.5,0.224-0.5,0.5v4c0,0.276,0.224,0.5,0.5,0.5h2
		c0.276,0,0.5-0.224,0.5-0.5s-0.224-0.5-0.5-0.5h-1.5v-1H13c0.276,0,0.5-0.224,0.5-0.5s-0.224-0.5-0.5-0.5h-1.5v-1H13z"/>
	<path d="M19.121,9.516c-0.268-0.068-0.54,0.095-0.606,0.364l-0.584,2.334l-0.457-1.371c-0.135-0.408-0.812-0.408-0.948,0
		l-0.457,1.371L15.485,9.88c-0.067-0.269-0.339-0.431-0.606-0.364c-0.268,0.067-0.431,0.338-0.364,0.606l1,4
		c0.054,0.215,0.244,0.37,0.466,0.378c0.226,0.033,0.423-0.13,0.493-0.341L17,12.582l0.526,1.577
		c0.068,0.205,0.26,0.342,0.474,0.342c0.006,0,0.013,0,0.019-0.001c0.222-0.008,0.412-0.162,0.466-0.378l1-4
		C19.552,9.854,19.389,9.583,19.121,9.516z"/>
</g>
</svg>
