<?xml version="1.0" encoding="iso-8859-1"?>
<!-- Generator: Adobe Illustrator 19.0.0, SVG Export Plug-In . SVG Version: 6.00 Build 0)  -->
<svg version="1.1" id="Layer_1" xmlns="http://www.w3.org/2000/svg" xmlns:xlink="http://www.w3.org/1999/xlink" x="0px" y="0px"
	 viewBox="0 0 24 24" style="enable-background:new 0 0 24 24;" xml:space="preserve">
<path d="M12,0.5C5.659,0.5,0.5,5.659,0.5,12S5.659,23.5,12,23.5c3.85,0,7.613-2.011,8.95-4.781c0.486-1.009,0.267-1.699-0.004-2.1
	c-0.432-0.641-1.314-0.983-2.446-1.013v-0.599c0-0.644-0.523-1.167-1.167-1.167c-0.762,0-1.51-0.119-2.218-0.353
	c-0.415-0.143-0.885-0.033-1.144,0.234l-1.353,1.022c-1.552-0.845-2.529-1.821-3.362-3.362l0.977-1.301
	c0.31-0.311,0.422-0.764,0.288-1.19c-0.235-0.711-0.354-1.459-0.354-2.223C10.167,6.023,9.644,5.5,9,5.5H6.667
	C6.023,5.5,5.5,6.024,5.5,6.667c0,6.524,5.309,11.833,11.833,11.833c0.644,0,1.167-0.523,1.167-1.166v-0.739
	c0.767,0.022,1.378,0.228,1.617,0.583c0.181,0.267,0.158,0.639-0.067,1.105C18.871,20.727,15.485,22.5,12,22.5
	C6.21,22.5,1.5,17.79,1.5,12S6.21,1.5,12,1.5S22.5,6.21,22.5,12c0,0.276,0.224,0.5,0.5,0.5s0.5-0.224,0.5-0.5
	C23.5,5.659,18.341,0.5,12,0.5z M17.5,17.333c0,0.091-0.076,0.167-0.167,0.167C11.359,17.5,6.5,12.641,6.5,6.667
	C6.5,6.576,6.576,6.5,6.667,6.5V6.499h2.334c0.091,0,0.167,0.077,0.167,0.167c0,0.87,0.136,1.724,0.403,2.53
	c0.009,0.031,0.024,0.109-0.09,0.229l-1.213,1.607c-0.115,0.153-0.133,0.358-0.046,0.528c1.005,1.976,2.228,3.198,4.218,4.218
	c0.168,0.088,0.375,0.07,0.529-0.046l1.659-1.259c0.042-0.043,0.105-0.059,0.169-0.039c0.813,0.269,1.667,0.405,2.536,0.405
	c0.091,0,0.167,0.077,0.167,0.167C17.5,15.006,17.5,17.333,17.5,17.333z"/>
</svg>
