<?xml version="1.0" encoding="iso-8859-1"?>
<!-- Generator: Adobe Illustrator 19.0.0, SVG Export Plug-In . SVG Version: 6.00 Build 0)  -->
<svg version="1.1" id="Layer_1" xmlns="http://www.w3.org/2000/svg" xmlns:xlink="http://www.w3.org/1999/xlink" x="0px" y="0px"
	 viewBox="0 0 30 30" style="enable-background:new 0 0 30 30;" xml:space="preserve">
<path d="M15,0.5C7.005,0.5,0.5,7.005,0.5,15S7.005,29.5,15,29.5c4.71,0,9.134-2.295,11.851-6.144
	c0.04-0.039,0.074-0.086,0.099-0.138c0.454-0.941,0.204-1.651-0.085-2.08c-0.75-1.113-2.66-1.641-4.364-1.647v-0.66
	c0-0.735-0.598-1.333-1.333-1.333c-0.542,0-0.985-0.224-1.498-0.484c-0.316-0.159-0.641-0.324-1.007-0.445
	c-0.474-0.162-1.009-0.038-1.376,0.331l-1.39,1.479c-1.978-1.072-3.218-2.313-4.277-4.276l1.486-1.4
	c0.355-0.355,0.482-0.874,0.329-1.36l-0.176-0.517C12.957,9.948,12.5,8.621,12.5,7.833c0-0.735-0.598-1.333-1.333-1.333H7.833
	C7.098,6.5,6.5,7.098,6.5,7.833c0,8.346,6.854,15.667,14.667,15.667c0.735,0,1.333-0.598,1.334-1.336V20.49
	c1.557,0.001,3.054,0.495,3.535,1.207c0.201,0.299,0.217,0.622,0.047,1.013c-0.001,0.001-0.002,0.003-0.003,0.004
	C23.554,26.337,19.411,28.5,15,28.5C7.556,28.5,1.5,22.444,1.5,15S7.556,1.5,15,1.5S28.5,7.556,28.5,15c0,0.276,0.224,0.5,0.5,0.5
	s0.5-0.224,0.5-0.5C29.5,7.005,22.995,0.5,15,0.5z M21.5,22.167c0,0.18-0.152,0.333-0.333,0.333C13.887,22.5,7.5,15.646,7.5,7.833
	C7.5,7.653,7.652,7.5,7.833,7.5h3.334c0.181,0,0.333,0.152,0.333,0.333c0,0.956,0.47,2.321,0.813,3.321l0.17,0.499
	c0.039,0.127,0.009,0.253-0.074,0.336l-1.752,1.65c-0.163,0.152-0.204,0.392-0.103,0.59c1.244,2.445,2.756,3.957,5.218,5.218
	c0.199,0.103,0.441,0.059,0.592-0.103l1.64-1.746c0.089-0.088,0.221-0.118,0.34-0.079c0.3,0.099,0.578,0.241,0.873,0.39
	c0.574,0.291,1.169,0.592,1.95,0.592c0.181,0,0.333,0.152,0.333,0.333C21.5,18.834,21.5,22.167,21.5,22.167z"/>
</svg>
