<?xml version="1.0" encoding="iso-8859-1"?>
<!-- Generator: Adobe Illustrator 19.0.0, SVG Export Plug-In . SVG Version: 6.00 Build 0)  -->
<svg version="1.1" id="Layer_1" xmlns="http://www.w3.org/2000/svg" xmlns:xlink="http://www.w3.org/1999/xlink" x="0px" y="0px"
	 viewBox="0 0 30 30" style="enable-background:new 0 0 30 30;" xml:space="preserve">
<g>
	<path d="M17.5,4c5.872,0,8.5,4.269,8.5,8.5c0,0.276,0.224,0.5,0.5,0.5s0.5-0.224,0.5-0.5C27,7.771,24.062,3,17.5,3
		C17.224,3,17,3.224,17,3.5S17.224,4,17.5,4z"/>
	<path d="M17.5,9c2.893,0,3.5,1.903,3.5,3.5c0,0.276,0.224,0.5,0.5,0.5s0.5-0.224,0.5-0.5C22,9.64,20.359,8,17.5,8
		C17.224,8,17,8.224,17,8.5S17.224,9,17.5,9z"/>
	<path d="M25.25,19c-1.524,0-3.548-0.49-4.813-0.907c-0.606-0.21-1.357-0.019-1.727,0.365l-2.751,1.957
		c-3.174-1.678-5.191-3.688-6.85-6.826l2.372-2.46c0.467-0.467,0.635-1.148,0.434-1.786C11.308,7.503,11,5.957,11,4.75
		C11,3.785,10.215,3,9.25,3h-4.5C3.785,3,3,3.785,3,4.75C3,16.811,13.189,27,25.25,27c0.965,0,1.75-0.785,1.75-1.75v-4.5
		C27,19.785,26.215,19,25.25,19z"/>
</g>
</svg>
