<?xml version="1.0" encoding="iso-8859-1"?>
<!-- Generator: Adobe Illustrator 19.0.0, SVG Export Plug-In . SVG Version: 6.00 Build 0)  -->
<svg version="1.1" id="Layer_1" xmlns="http://www.w3.org/2000/svg" xmlns:xlink="http://www.w3.org/1999/xlink" x="0px" y="0px"
	 viewBox="0 0 30 30" style="enable-background:new 0 0 30 30;" xml:space="preserve">
<path d="M15,0.5C7.005,0.5,0.5,7.005,0.5,15S7.005,29.5,15,29.5c4.709,0,9.134-2.296,11.853-6.146
	c0.04-0.039,0.072-0.085,0.097-0.137c0.454-0.941,0.204-1.65-0.085-2.08c-0.75-1.113-2.669-1.642-4.365-1.648v-0.657
	c0-0.735-0.598-1.333-1.334-1.333c-0.542,0-0.985-0.225-1.498-0.484c-0.315-0.16-0.64-0.324-1.005-0.445
	c-0.467-0.161-1.011-0.037-1.377,0.331l-1.39,1.479c-1.978-1.073-3.218-2.313-4.277-4.276l1.487-1.4
	c0.355-0.355,0.483-0.875,0.33-1.361l-0.173-0.507c-0.304-0.88-0.762-2.211-0.762-3.002c0-0.735-0.598-1.333-1.334-1.333H7.834
	c-0.735,0-1.333,0.598-1.333,1.333C6.5,16.179,13.353,23.5,21.166,23.5c0.736,0,1.334-0.598,1.334-1.333v-1.678
	c1.557-0.002,3.054,0.495,3.536,1.208c0.202,0.299,0.217,0.623,0.047,1.015c0,0.001-0.001,0.002-0.002,0.003
	C23.553,26.337,19.411,28.5,15,28.5C7.556,28.5,1.5,22.444,1.5,15S7.556,1.5,15,1.5S28.5,7.556,28.5,15c0,0.276,0.224,0.5,0.5,0.5
	s0.5-0.224,0.5-0.5C29.5,7.005,22.995,0.5,15,0.5z"/>
</svg>
