<?xml version="1.0" encoding="iso-8859-1"?>
<!-- Generator: Adobe Illustrator 19.0.0, SVG Export Plug-In . SVG Version: 6.00 Build 0)  -->
<svg version="1.1" id="Layer_1" xmlns="http://www.w3.org/2000/svg" xmlns:xlink="http://www.w3.org/1999/xlink" x="0px" y="0px"
	 viewBox="0 0 30 30" style="enable-background:new 0 0 30 30;" xml:space="preserve">
<path d="M27.998,5.451c-0.014-0.133-0.08-0.256-0.184-0.34s-0.229-0.125-0.371-0.108l-1.527,0.174C25.967,4.958,26,4.734,26,4.5
	c0-1.654-1.346-3-3-3s-3,1.346-3,3c0,0.473,0.12,0.915,0.316,1.314l-5.93,0.674L3.544,5.502C3.286,5.474,3.045,5.665,3.005,5.926
	l-3,20c-0.02,0.137,0.017,0.277,0.103,0.386c0.087,0.108,0.215,0.176,0.354,0.187l6.435,0.496l0.106,1.055
	c0.025,0.258,0.242,0.45,0.496,0.45c0.016,0,0.031,0,0.046-0.003l7.567-0.688c0.084,0.106,0.208,0.179,0.353,0.19l7,0.5
	C22.477,28.5,22.488,28.5,22.5,28.5c0.126,0,0.248-0.048,0.341-0.134C22.942,28.271,23,28.139,23,28v-0.908l6.545-0.595
	c0.133-0.012,0.255-0.077,0.34-0.179s0.126-0.235,0.113-0.367L27.998,5.451z M23,2.5c1.103,0,2,0.897,2,2
	c0,0.37-0.108,0.713-0.284,1.011c0,0.001-0.001,0.001-0.002,0.002c-0.176,0.296-0.417,0.53-0.695,0.698
	c-0.031,0.018-0.063,0.035-0.095,0.051c-0.106,0.056-0.217,0.101-0.332,0.137c-0.041,0.013-0.081,0.028-0.123,0.038
	C23.317,6.476,23.161,6.5,23,6.5c-0.137,0-0.273-0.014-0.404-0.041c-0.003-0.001-0.006-0.002-0.009-0.003
	c-0.39-0.083-0.746-0.281-1.032-0.58C21.213,5.517,21,5.034,21,4.5C21,3.397,21.897,2.5,23,2.5z M1.073,25.542L3.924,6.54
	l5.555,0.505L5.443,7.504c-0.271,0.03-0.467,0.274-0.44,0.546l1.793,17.933L1.073,25.542z M22,27.463l-1.727-0.123L22,27.183V27.463
	z M7.948,27.457L6.047,8.441l8.346-0.949l0.062,0.006c0.078,0.009,0.153-0.009,0.224-0.038l5.252-0.597l-2.784,2.784
	c-0.195,0.195-0.195,0.512,0,0.707c0.098,0.097,0.226,0.146,0.354,0.146s0.256-0.049,0.353-0.146l3.414-3.414
	c0.043,0.03,0.086,0.059,0.131,0.087c0.084,0.054,0.172,0.096,0.26,0.141c0.075,0.038,0.147,0.08,0.226,0.111
	c0.116,0.047,0.236,0.079,0.357,0.111c0.061,0.016,0.119,0.039,0.182,0.051C22.611,7.478,22.803,7.5,23,7.5
	c0.228,0,0.448-0.031,0.662-0.079c0.07-0.016,0.136-0.043,0.204-0.064c0.143-0.044,0.283-0.093,0.416-0.156
	c0.068-0.033,0.133-0.07,0.199-0.108c0.136-0.078,0.263-0.165,0.385-0.263c0.045-0.036,0.089-0.07,0.132-0.109
	c0.162-0.146,0.311-0.306,0.438-0.484l1.616-0.184l1.901,19.494L7.948,27.457z"/>
</svg>
