<?xml version="1.0" encoding="iso-8859-1"?>
<!-- Generator: Adobe Illustrator 19.0.0, SVG Export Plug-In . SVG Version: 6.00 Build 0)  -->
<svg version="1.1" id="Layer_1" xmlns="http://www.w3.org/2000/svg" xmlns:xlink="http://www.w3.org/1999/xlink" x="0px" y="0px"
	 viewBox="0 0 24 24" style="enable-background:new 0 0 24 24;" xml:space="preserve">
<path d="M21.996,4.439c-0.034-0.273-0.286-0.473-0.555-0.435l-0.51,0.06c0.042-0.182,0.07-0.369,0.07-0.564
	c0-1.378-1.121-2.5-2.5-2.5s-2.5,1.122-2.5,2.5c0,0.401,0.104,0.775,0.273,1.112l-4.271,0.503L2.559,4.003
	C2.275,3.964,2.037,4.165,2.004,4.438l-2,16c-0.016,0.132,0.021,0.266,0.104,0.371c0.082,0.105,0.203,0.173,0.336,0.188l4.967,0.568
	l0.092,0.982c0.013,0.133,0.079,0.257,0.183,0.341C5.775,22.961,5.887,23,6.001,23c0.019,0,0.038-0.001,0.055-0.002l5.95-0.68
	l5.938,0.679C17.963,22.999,17.982,23,18.001,23c0.114,0,0.226-0.039,0.315-0.112c0.104-0.084,0.17-0.207,0.183-0.341l0.092-0.982
	l4.965-0.567c0.133-0.016,0.254-0.083,0.336-0.188c0.083-0.105,0.121-0.239,0.104-0.371L21.996,4.439z M18.501,2
	c0.827,0,1.5,0.673,1.5,1.5c0,0.312-0.096,0.601-0.259,0.841c-0.007,0.008-0.013,0.016-0.02,0.024C19.45,4.748,19.005,5,18.501,5
	c-0.382,0-0.726-0.148-0.991-0.383c-0.003-0.002-0.006-0.005-0.009-0.007c-0.305-0.275-0.5-0.668-0.5-1.11
	C17.001,2.673,17.674,2,18.501,2z M1.059,20.06L2.935,5.054l4.79,0.564L4.442,6.004C4.173,6.035,3.978,6.276,4.003,6.547l1.313,14
	L1.059,20.06z M17.551,21.945l-1.141-0.13l1.166-0.133L17.551,21.945z M6.45,21.946L5.043,6.94l10.553-1.242l-1.449,1.449
	c-0.195,0.195-0.195,0.512,0,0.707C14.245,7.951,14.373,8,14.501,8s0.256-0.049,0.353-0.146l2.271-2.271
	C17.52,5.845,17.992,6,18.501,6c0.75,0,1.417-0.339,1.875-0.864l0.689-0.081l1.876,15.006L6.45,21.946z"/>
</svg>
