<?xml version="1.0" encoding="iso-8859-1"?>
<!-- Generator: Adobe Illustrator 19.0.0, SVG Export Plug-In . SVG Version: 6.00 Build 0)  -->
<svg version="1.1" id="Layer_1" xmlns="http://www.w3.org/2000/svg" xmlns:xlink="http://www.w3.org/1999/xlink" x="0px" y="0px"
	 viewBox="0 0 30 30" style="enable-background:new 0 0 30 30;" xml:space="preserve">
<path d="M29.774,22.582c-3.876-2.546-3.826-10.934-3.783-18.333C25.995,3.486,26,2.734,26,2c0-0.276-0.224-0.5-0.5-0.5h-22
	c-0.012,0-0.022,0.006-0.034,0.007c-0.034,0.002-0.065,0.011-0.098,0.02c-0.031,0.009-0.062,0.017-0.09,0.031
	c-0.027,0.013-0.049,0.031-0.073,0.05C3.176,1.629,3.149,1.65,3.126,1.677C3.118,1.686,3.107,1.69,3.1,1.7l-3,4
	C0.035,5.786,0,5.892,0,6v22c0,0.016,0.008,0.029,0.009,0.045c0.003,0.033,0.01,0.064,0.02,0.097s0.022,0.064,0.039,0.094
	c0.007,0.013,0.008,0.028,0.017,0.041c0.007,0.011,0.02,0.015,0.028,0.025c0.035,0.045,0.076,0.081,0.124,0.112
	c0.017,0.011,0.032,0.025,0.05,0.034C0.351,28.479,0.422,28.5,0.5,28.5H22c0.087,0,0.173-0.022,0.249-0.065l3.5-2
	c0.022-0.013,0.036-0.033,0.055-0.048c0.023-0.018,0.046-0.035,0.065-0.057c0.026-0.029,0.044-0.06,0.063-0.093
	c0.012-0.023,0.025-0.044,0.034-0.068c0.014-0.04,0.021-0.08,0.025-0.122C25.992,26.03,26,26.016,26,26v-2.5h3.5
	c0.221,0,0.416-0.146,0.479-0.356C30.042,22.932,29.959,22.703,29.774,22.582z M3,3.5v22.232l-1.999,1.333V6.166L3,3.5z
	 M21.868,27.5H2.151l1.5-1h19.966L21.868,27.5z M25,25.5H4v-8.726c0.677,2.963,1.808,5.384,3.726,6.644
	C7.807,23.472,7.902,23.5,8,23.5h17V25.5z M8.153,22.5C4.07,19.636,4.002,10.228,4,2.5h20.998c-0.001,0.575-0.003,1.152-0.007,1.743
	C24.95,11.2,24.904,19,28.147,22.5H8.153z"/>
</svg>
