<?xml version="1.0" encoding="iso-8859-1"?>
<!-- Generator: Adobe Illustrator 19.0.0, SVG Export Plug-In . SVG Version: 6.00 Build 0)  -->
<svg version="1.1" id="Layer_1" xmlns="http://www.w3.org/2000/svg" xmlns:xlink="http://www.w3.org/1999/xlink" x="0px" y="0px"
	 viewBox="0 0 30 30" style="enable-background:new 0 0 30 30;" xml:space="preserve">
<g>
	<path d="M17.145,9.646c-0.195,0.195-0.195,0.512,0,0.707c0.098,0.098,0.226,0.147,0.354,0.147s0.256-0.049,0.354-0.146l3.413-3.413
		C21.756,7.29,22.353,7.5,22.999,7.5c1.654,0,3-1.346,3-3s-1.346-3-3-3s-3,1.346-3,3c0,0.647,0.21,1.243,0.56,1.733L17.145,9.646z"
		/>
	<path d="M4.996,6.591C5.218,6.512,5.353,6.29,5.324,6.057c-0.029-0.233-0.216-0.414-0.45-0.435l-1.33-0.121
		c-0.247-0.028-0.5,0.161-0.539,0.424l-3,20c-0.02,0.137,0.017,0.277,0.103,0.386c0.087,0.108,0.215,0.176,0.354,0.187l4.827,0.372
		c0.013,0.001,0.025,0.002,0.038,0.002c0.134,0,0.263-0.054,0.358-0.15c0.104-0.106,0.155-0.252,0.14-0.399L4.005,8.15
		C3.939,7.465,4.345,6.824,4.996,6.591z"/>
	<path d="M27.997,5.452c-0.014-0.133-0.079-0.256-0.184-0.34c-0.104-0.083-0.23-0.123-0.371-0.108l-0.125,0.014
		c-0.21,0.023-0.383,0.177-0.431,0.383C26.463,7.226,24.864,8.5,22.999,8.5c-0.396,0-0.808-0.074-1.261-0.226
		c-0.183-0.061-0.378-0.013-0.513,0.121l-2.666,2.665c-0.566,0.567-1.555,0.567-2.121,0c-0.283-0.283-0.439-0.659-0.439-1.06
		s0.156-0.777,0.439-1.06l2.019-2.018c0.15-0.15,0.189-0.379,0.097-0.571c-0.092-0.191-0.288-0.305-0.507-0.279L5.444,7.504
		C5.172,7.535,4.975,7.778,5.004,8.05l2,20c0.024,0.258,0.241,0.45,0.495,0.45c0.016,0,0.031,0,0.046-0.002l22-2
		c0.133-0.012,0.255-0.077,0.34-0.179c0.085-0.102,0.126-0.235,0.113-0.367L27.997,5.452z"/>
</g>
</svg>
