<?xml version="1.0" encoding="iso-8859-1"?>
<!-- Generator: Adobe Illustrator 19.0.0, SVG Export Plug-In . SVG Version: 6.00 Build 0)  -->
<svg version="1.1" id="Layer_1" xmlns="http://www.w3.org/2000/svg" xmlns:xlink="http://www.w3.org/1999/xlink" x="0px" y="0px"
	 viewBox="0 0 30 30" style="enable-background:new 0 0 30 30;" xml:space="preserve">
<g>
	<path d="M29,14.5h-2.525C26.217,8.559,21.441,3.783,15.5,3.525V1c0-0.276-0.224-0.5-0.5-0.5S14.5,0.724,14.5,1v2.525
		C8.559,3.783,3.783,8.559,3.525,14.5H1c-0.276,0-0.5,0.224-0.5,0.5s0.224,0.5,0.5,0.5h2.525C3.783,21.441,8.559,26.217,14.5,26.475
		V29c0,0.276,0.224,0.5,0.5,0.5s0.5-0.224,0.5-0.5v-2.525c5.941-0.257,10.717-5.033,10.975-10.975H29c0.276,0,0.5-0.224,0.5-0.5
		S29.276,14.5,29,14.5z M15.5,25.475V24c0-0.276-0.224-0.5-0.5-0.5s-0.5,0.224-0.5,0.5v1.475C9.11,25.219,4.781,20.89,4.525,15.5H6
		c0.276,0,0.5-0.224,0.5-0.5S6.276,14.5,6,14.5H4.525C4.781,9.11,9.11,4.781,14.5,4.525V6c0,0.276,0.224,0.5,0.5,0.5
		s0.5-0.224,0.5-0.5V4.525c5.39,0.256,9.719,4.584,9.975,9.975H24c-0.276,0-0.5,0.224-0.5,0.5s0.224,0.5,0.5,0.5h1.475
		C25.219,20.89,20.89,25.219,15.5,25.475z"/>
	<path d="M18,14.5h-2.5V12c0-0.276-0.224-0.5-0.5-0.5s-0.5,0.224-0.5,0.5v2.5H12c-0.276,0-0.5,0.224-0.5,0.5s0.224,0.5,0.5,0.5h2.5
		V18c0,0.276,0.224,0.5,0.5,0.5s0.5-0.224,0.5-0.5v-2.5H18c0.276,0,0.5-0.224,0.5-0.5S18.276,14.5,18,14.5z"/>
</g>
</svg>
