<?xml version="1.0" encoding="iso-8859-1"?>
<!-- Generator: Adobe Illustrator 19.0.0, SVG Export Plug-In . SVG Version: 6.00 Build 0)  -->
<svg version="1.1" id="Layer_1" xmlns="http://www.w3.org/2000/svg" xmlns:xlink="http://www.w3.org/1999/xlink" x="0px" y="0px"
	 viewBox="0 0 24 24" style="enable-background:new 0 0 24 24;" xml:space="preserve">
<path d="M23,1.5h-1H2H1C0.724,1.5,0.5,1.724,0.5,2S0.724,2.5,1,2.5h0.5V15c0,0.276,0.224,0.5,0.5,0.5h9.5v4.092
	c-0.581,0.207-1,0.757-1,1.408c0,0.827,0.673,1.5,1.5,1.5s1.5-0.673,1.5-1.5c0-0.651-0.419-1.201-1-1.408V15.5H22
	c0.276,0,0.5-0.224,0.5-0.5V2.5H23c0.276,0,0.5-0.224,0.5-0.5S23.276,1.5,23,1.5z M12,21.5c-0.276,0-0.5-0.224-0.5-0.5
	s0.224-0.5,0.5-0.5s0.5,0.224,0.5,0.5S12.276,21.5,12,21.5z M4.5,13c0,0.276-0.224,0.5-0.5,0.5S3.5,13.276,3.5,13v-3
	c0-0.276,0.224-0.5,0.5-0.5S4.5,9.724,4.5,10V13z M6.5,13c0,0.276-0.224,0.5-0.5,0.5S5.5,13.276,5.5,13V8c0-0.276,0.224-0.5,0.5-0.5
	S6.5,7.724,6.5,8V13z M8.5,13c0,0.276-0.224,0.5-0.5,0.5S7.5,13.276,7.5,13V5c0-0.276,0.224-0.5,0.5-0.5S8.5,4.724,8.5,5V13z
	 M15,13.5c-2.481,0-4.5-2.019-4.5-4.5c0-2.31,1.756-4.197,4-4.449V9c0,0.276,0.224,0.5,0.5,0.5h4.449
	C19.197,11.744,17.31,13.5,15,13.5z M20,8.5h-4c-0.276,0-0.5-0.224-0.5-0.5V4c0-0.276,0.224-0.5,0.5-0.5c2.481,0,4.5,2.019,4.5,4.5
	C20.5,8.276,20.276,8.5,20,8.5z"/>
</svg>
