<?xml version="1.0" encoding="iso-8859-1"?>
<!-- Generator: Adobe Illustrator 19.0.0, SVG Export Plug-In . SVG Version: 6.00 Build 0)  -->
<svg version="1.1" id="Layer_1" xmlns="http://www.w3.org/2000/svg" xmlns:xlink="http://www.w3.org/1999/xlink" x="0px" y="0px"
	 viewBox="0 0 24 24" style="enable-background:new 0 0 24 24;" xml:space="preserve">
<g>
	<path d="M23,1.5h-1H2H1C0.724,1.5,0.5,1.724,0.5,2S0.724,2.5,1,2.5h0.5V15c0,0.276,0.224,0.5,0.5,0.5h9.5v4.092
		c-0.581,0.207-1,0.757-1,1.408c0,0.827,0.673,1.5,1.5,1.5s1.5-0.673,1.5-1.5c0-0.651-0.419-1.201-1-1.408V15.5H22
		c0.276,0,0.5-0.224,0.5-0.5V2.5H23c0.276,0,0.5-0.224,0.5-0.5S23.276,1.5,23,1.5z M12,21.5c-0.276,0-0.5-0.224-0.5-0.5
		s0.224-0.5,0.5-0.5s0.5,0.224,0.5,0.5S12.276,21.5,12,21.5z M21.5,14.5h-19v-12h19V14.5z"/>
	<path d="M16,8.5h3h1c0.276,0,0.5-0.224,0.5-0.5c0-2.481-2.019-4.5-4.5-4.5c-0.276,0-0.5,0.224-0.5,0.5v1v3
		C15.5,8.276,15.724,8.5,16,8.5z M16.5,4.536c1.53,0.219,2.744,1.433,2.964,2.964H16.5V4.536z"/>
	<path d="M15,13.5c2.481,0,4.5-2.019,4.5-4.5c0-0.276-0.224-0.5-0.5-0.5S18.5,8.724,18.5,9c0,1.93-1.57,3.5-3.5,3.5
		s-3.5-1.57-3.5-3.5s1.57-3.5,3.5-3.5c0.276,0,0.5-0.224,0.5-0.5S15.276,4.5,15,4.5c-2.481,0-4.5,2.019-4.5,4.5S12.519,13.5,15,13.5
		z"/>
	<path d="M8,13.5c0.276,0,0.5-0.224,0.5-0.5V5c0-0.276-0.224-0.5-0.5-0.5S7.5,4.724,7.5,5v8C7.5,13.276,7.724,13.5,8,13.5z"/>
	<path d="M6,13.5c0.276,0,0.5-0.224,0.5-0.5V8c0-0.276-0.224-0.5-0.5-0.5S5.5,7.724,5.5,8v5C5.5,13.276,5.724,13.5,6,13.5z"/>
	<path d="M4,13.5c0.276,0,0.5-0.224,0.5-0.5v-3c0-0.276-0.224-0.5-0.5-0.5S3.5,9.724,3.5,10v3C3.5,13.276,3.724,13.5,4,13.5z"/>
</g>
</svg>
