<?xml version="1.0" encoding="iso-8859-1"?>
<!-- Generator: Adobe Illustrator 19.0.0, SVG Export Plug-In . SVG Version: 6.00 Build 0)  -->
<svg version="1.1" id="Layer_1" xmlns="http://www.w3.org/2000/svg" xmlns:xlink="http://www.w3.org/1999/xlink" x="0px" y="0px"
	 viewBox="0 0 24 24" style="enable-background:new 0 0 24 24;" xml:space="preserve">
<g>
	<path d="M23.132,3.018l-11-3c-0.014-0.004-0.029,0.003-0.043,0C12.059,0.012,12.032,0,12,0s-0.059,0.012-0.089,0.018
		c-0.014,0.003-0.029-0.004-0.043,0l-11,3C0.651,3.077,0.5,3.274,0.5,3.5v17c0,0.226,0.151,0.423,0.368,0.482l11,3
		C11.911,23.994,11.956,24,12,24s0.089-0.006,0.132-0.018l11-3c0.217-0.059,0.368-0.256,0.368-0.482v-17
		C23.5,3.275,23.349,3.078,23.132,3.018z M16.5,2.246l2.999,0.818v8.229l-0.5,0.5l-0.646-0.646c-0.195-0.195-0.512-0.195-0.707,0
		L17,11.793l-0.5-0.5V2.246z M4.5,3.064l2.999-0.818v9.047l-0.5,0.5l-0.646-0.646c-0.195-0.195-0.512-0.195-0.707,0L5,11.793
		l-0.5-0.5V3.064z M1.5,3.882l2-0.545V11.5c0,0.133,0.053,0.26,0.147,0.354l1,1c0.195,0.195,0.512,0.195,0.707,0L6,12.208
		l0.646,0.646C6.744,12.951,6.872,13,7,13s0.256-0.049,0.353-0.146l1-1c0.093-0.094,0.146-0.221,0.146-0.354V2
		c0-0.009-0.005-0.016-0.005-0.025l3.006-0.82v21.689l-10-2.727V3.882z M22.5,20.118l-10,2.727V1.155l3.005,0.819
		c0,0.01-0.005,0.017-0.005,0.026v9.5c0,0.133,0.053,0.26,0.147,0.354l1,1c0.195,0.195,0.512,0.195,0.707,0L18,12.208l0.646,0.646
		C18.744,12.951,18.872,13,19,13s0.256-0.049,0.353-0.146l1-1c0.093-0.094,0.146-0.221,0.146-0.354V3.336L22.5,3.882V20.118z"/>
	<path d="M9.854,17.647l-1.5-1.5l0,0c-0.046-0.046-0.102-0.083-0.163-0.108c-0.035-0.014-0.073-0.016-0.109-0.022
		C8.054,16.012,8.029,16,8,16c-0.038,0-0.072,0.014-0.108,0.022c-0.027,0.006-0.055,0.006-0.081,0.016
		c-0.063,0.026-0.12,0.064-0.167,0.111l-1.497,1.497c-0.195,0.195-0.195,0.512,0,0.707s0.512,0.195,0.707,0L7.5,17.708V19.5
		C7.5,19.776,7.724,20,8,20s0.5-0.224,0.5-0.5v-1.792l0.646,0.646C9.244,18.451,9.372,18.5,9.5,18.5s0.256-0.049,0.354-0.146
		C10.049,18.159,10.049,17.842,9.854,17.647z"/>
	<path d="M16.841,18.025l-3,1c-0.261,0.088-0.403,0.371-0.316,0.633C13.596,19.867,13.791,20,14,20c0.053,0,0.105-0.008,0.158-0.026
		l3-1c0.261-0.088,0.403-0.371,0.316-0.633C17.386,18.08,17.104,17.938,16.841,18.025z"/>
</g>
</svg>
