<?xml version="1.0" encoding="iso-8859-1"?>
<!-- Generator: Adobe Illustrator 19.0.0, SVG Export Plug-In . SVG Version: 6.00 Build 0)  -->
<svg version="1.1" id="Layer_1" xmlns="http://www.w3.org/2000/svg" xmlns:xlink="http://www.w3.org/1999/xlink" x="0px" y="0px"
	 viewBox="0 0 24 24" style="enable-background:new 0 0 24 24;" xml:space="preserve">
<g>
	<path d="M6.5,13C4.57,13,3,14.57,3,16.5S4.57,20,6.5,20s3.5-1.57,3.5-3.5S8.43,13,6.5,13z"/>
	<path d="M17.5,13c-1.93,0-3.5,1.57-3.5,3.5s1.57,3.5,3.5,3.5s3.5-1.57,3.5-3.5S19.43,13,17.5,13z"/>
	<path d="M22.804,8.269l-4.198-3.498C18.01,4.274,17.253,4,16.477,4H6.5C5.639,4,4.847,4.372,4.3,5h3.2C7.776,5,8,5.224,8,5.5
		S7.776,6,7.5,6H3.691H0.5C0.224,6,0,6.224,0,6.5S0.224,7,0.5,7h2.691l-0.5,1H5.5C5.776,8,6,8.224,6,8.5S5.776,9,5.5,9H2.191H0.5
		C0.224,9,0,9.224,0,9.5S0.224,10,0.5,10h1.191l-0.5,1H3.5C3.776,11,4,11.224,4,11.5S3.776,12,3.5,12H0.691H0.5
		C0.224,12,0,12.224,0,12.5c0,0.183,0.104,0.337,0.251,0.424C0.096,13.288,0,13.678,0,14.073c0,0.956,0.47,1.853,1.258,2.401
		c0.146,0.102,0.335,0.117,0.498,0.043c0.162-0.076,0.271-0.231,0.286-0.409C2.249,13.766,4.165,12,6.5,12
		c2.481,0,4.5,2.019,4.5,4.5c0,0.276,0.224,0.5,0.5,0.5h1c0.276,0,0.5-0.224,0.5-0.5c0-2.481,2.019-4.5,4.5-4.5
		c1.957,0,3.673,1.269,4.27,3.157c0.061,0.194,0.234,0.332,0.437,0.348c0.199,0.016,0.396-0.093,0.487-0.275l0.503-1.006
		c0.525-1.05,0.803-2.226,0.803-3.4C24,9.833,23.564,8.902,22.804,8.269z M21.972,10.666C21.902,10.866,21.713,11,21.5,11h-6
		c-0.154,0-0.299-0.071-0.394-0.192s-0.128-0.279-0.091-0.429l1-4c0.041-0.166,0.164-0.298,0.325-0.353
		c0.159-0.055,0.339-0.024,0.472,0.083l5,4C21.978,10.242,22.042,10.465,21.972,10.666z"/>
</g>
</svg>
