<?xml version="1.0" encoding="iso-8859-1"?>
<!-- Generator: Adobe Illustrator 19.0.0, SVG Export Plug-In . SVG Version: 6.00 Build 0)  -->
<svg version="1.1" id="Layer_1" xmlns="http://www.w3.org/2000/svg" xmlns:xlink="http://www.w3.org/1999/xlink" x="0px" y="0px"
	 viewBox="0 0 30 30" style="enable-background:new 0 0 30 30;" xml:space="preserve">
<g>
	<path d="M13.871,0.287l-2.12,0.573c-0.134,0.037-0.248,0.127-0.312,0.25c-0.065,0.123-0.075,0.268-0.029,0.399
		C11.471,1.684,11.501,1.845,11.501,2v12.5c0,0.395-0.16,0.781-0.44,1.061l-1,1c-0.492,0.493-1.311,0.576-1.892,0.188l-0.391-0.26
		c-0.168-0.112-0.387-0.112-0.555,0l-0.391,0.26c-0.582,0.388-1.4,0.306-1.893-0.188l-1-1C3.661,15.282,3.5,14.895,3.5,14.5V3.742
		c0-0.156-0.072-0.302-0.196-0.397C3.182,3.25,3.019,3.219,2.87,3.259l-2,0.54C0.653,3.858,0.5,4.056,0.5,4.282v21.435
		c0,0.226,0.151,0.424,0.37,0.483l13,3.513c0.043,0.011,0.087,0.017,0.13,0.017c0.109,0,0.216-0.036,0.304-0.103
		c0.123-0.095,0.196-0.241,0.196-0.397V0.77c0-0.156-0.072-0.302-0.196-0.397C14.181,0.279,14.02,0.247,13.871,0.287z
		 M12.354,22.854C12.256,22.952,12.128,23,12.001,23c-0.128,0-0.256-0.049-0.354-0.146l-1.146-1.147V24.5c0,0.276-0.224,0.5-0.5,0.5
		s-0.5-0.224-0.5-0.5v-2.793l-1.147,1.146c-0.195,0.195-0.512,0.195-0.707,0s-0.195-0.512,0-0.707l1.999-1.999
		c0.046-0.046,0.102-0.083,0.163-0.109c0.122-0.051,0.26-0.051,0.382,0c0.061,0.025,0.117,0.062,0.163,0.109l1.999,1.999
		C12.55,22.342,12.55,22.658,12.354,22.854z"/>
	<path d="M29.131,3.8l-2-0.54c-0.151-0.04-0.311-0.009-0.434,0.086c-0.124,0.095-0.196,0.241-0.196,0.397v10.758
		c0,0.395-0.16,0.781-0.44,1.061l-1,1c-0.492,0.493-1.312,0.576-1.892,0.188l-0.391-0.26c-0.168-0.112-0.387-0.112-0.555,0
		l-0.391,0.26c-0.582,0.388-1.399,0.306-1.893-0.188l-1-1c-0.279-0.279-0.439-0.666-0.439-1.061v-12.5
		c0-0.156,0.03-0.316,0.091-0.492c0.046-0.131,0.036-0.275-0.029-0.398c-0.064-0.123-0.178-0.213-0.312-0.25l-2.12-0.573
		c-0.151-0.039-0.312-0.008-0.435,0.086C15.573,0.469,15.5,0.615,15.5,0.771V29.23c0,0.156,0.072,0.302,0.196,0.397
		C15.783,29.694,15.89,29.73,16,29.73c0.043,0,0.087-0.006,0.13-0.017l13-3.513c0.218-0.059,0.37-0.257,0.37-0.483V4.282
		C29.501,4.057,29.35,3.859,29.131,3.8z M21.638,23.981l-3.5,1C18.092,24.994,18.046,25,18,25c-0.217,0-0.417-0.143-0.48-0.363
		c-0.076-0.265,0.078-0.542,0.344-0.618l3.5-1c0.265-0.072,0.542,0.078,0.618,0.344C22.058,23.628,21.904,23.905,21.638,23.981z"/>
	<path d="M20.647,15.854c0.169,0.169,0.432,0.195,0.631,0.063l1.223-0.815l1.223,0.815c0.084,0.057,0.181,0.084,0.277,0.084
		c0.129,0,0.257-0.05,0.353-0.146l1-1c0.094-0.094,0.147-0.221,0.147-0.354v-11c0-0.221-0.145-0.415-0.356-0.479l-5-1.5
		c-0.15-0.045-0.315-0.017-0.442,0.078c-0.127,0.095-0.202,0.243-0.202,0.401v12.5c0,0.133,0.053,0.26,0.146,0.354L20.647,15.854z"
		/>
	<path d="M5.647,15.854c0.168,0.169,0.433,0.195,0.631,0.063l1.223-0.815l1.223,0.815c0.084,0.057,0.181,0.084,0.277,0.084
		c0.129,0,0.257-0.05,0.353-0.146l1-1c0.094-0.094,0.147-0.221,0.147-0.354v-12.5c0-0.158-0.075-0.307-0.202-0.401
		c-0.127-0.095-0.292-0.123-0.442-0.078l-5,1.5C4.646,3.086,4.502,3.28,4.502,3.501v11c0,0.133,0.053,0.26,0.146,0.354L5.647,15.854
		z"/>
</g>
</svg>
