<?xml version="1.0" encoding="iso-8859-1"?>
<!-- Generator: Adobe Illustrator 19.0.0, SVG Export Plug-In . SVG Version: 6.00 Build 0)  -->
<svg version="1.1" id="Layer_1" xmlns="http://www.w3.org/2000/svg" xmlns:xlink="http://www.w3.org/1999/xlink" x="0px" y="0px"
	 viewBox="0 0 30 30" style="enable-background:new 0 0 30 30;" xml:space="preserve">
<g>
	<path d="M29.384,5.18C29.289,5.066,29.148,5,29,5H6.053L5.494,1.423C5.456,1.179,5.246,1,5,1H1C0.724,1,0.5,1.224,0.5,1.5
		S0.724,2,1,2h3.572L7.01,17.598C7.393,19.506,9.364,21,11.5,21H26c0.276,0,0.5-0.224,0.5-0.5S26.276,20,26,20H11.5
		c-1.649,0-3.223-1.165-3.506-2.577L7.771,16H25c1.629,0,2.842-0.956,3.015-2.349l1.477-8.06C29.519,5.445,29.48,5.294,29.384,5.18z
		 M27.027,13.498C26.889,14.606,25.849,15,25,15H7.615L6.209,6H28.4L27.027,13.498z"/>
	<path d="M11,22c-1.93,0-3.5,1.57-3.5,3.5S9.07,29,11,29s3.5-1.57,3.5-3.5S12.93,22,11,22z M11,28c-1.379,0-2.5-1.122-2.5-2.5
		S9.621,23,11,23s2.5,1.122,2.5,2.5S12.379,28,11,28z"/>
	<path d="M23,22c-1.93,0-3.5,1.57-3.5,3.5S21.07,29,23,29s3.5-1.57,3.5-3.5S24.93,22,23,22z M23,28c-1.379,0-2.5-1.122-2.5-2.5
		S21.621,23,23,23s2.5,1.122,2.5,2.5S24.379,28,23,28z"/>
</g>
</svg>
