<?xml version="1.0" encoding="iso-8859-1"?>
<!-- Generator: Adobe Illustrator 19.0.0, SVG Export Plug-In . SVG Version: 6.00 Build 0)  -->
<svg version="1.1" id="Layer_1" xmlns="http://www.w3.org/2000/svg" xmlns:xlink="http://www.w3.org/1999/xlink" x="0px" y="0px"
	 viewBox="0 0 30 30" style="enable-background:new 0 0 30 30;" xml:space="preserve">
<g>
	<path d="M29.387,5.183C29.292,5.067,29.149,5,29,5H6.053L5.494,1.423C5.456,1.179,5.246,1,5,1H1C0.724,1,0.5,1.224,0.5,1.5
		S0.724,2,1,2h3.572L7.01,17.598C7.391,19.505,9.362,21,11.5,21H26c0.276,0,0.5-0.224,0.5-0.5S26.276,20,26,20H11.5
		c-1.021,0-2.011-0.447-2.686-1.122l18.265-2.884c0.207-0.033,0.371-0.191,0.412-0.396l2-10C29.52,5.451,29.482,5.299,29.387,5.183z
		 M26.578,15.06L8.173,17.966c-0.079-0.176-0.142-0.357-0.179-0.543L6.209,6H28.39L26.578,15.06z"/>
	<path d="M11,22c-1.93,0-3.5,1.57-3.5,3.5S9.07,29,11,29s3.5-1.57,3.5-3.5S12.93,22,11,22z M11,28c-1.379,0-2.5-1.122-2.5-2.5
		S9.621,23,11,23s2.5,1.122,2.5,2.5S12.379,28,11,28z"/>
	<path d="M23,22c-1.93,0-3.5,1.57-3.5,3.5S21.07,29,23,29s3.5-1.57,3.5-3.5S24.93,22,23,22z M23,28c-1.379,0-2.5-1.122-2.5-2.5
		S21.621,23,23,23s2.5,1.122,2.5,2.5S24.379,28,23,28z"/>
	<path d="M10.999,16c0.023,0,0.048-0.001,0.071-0.005c0.274-0.039,0.464-0.293,0.425-0.566l-1-7
		c-0.04-0.273-0.299-0.463-0.565-0.424C9.656,8.044,9.466,8.298,9.505,8.571l1,7C10.541,15.82,10.755,16,10.999,16z"/>
	<path d="M13.999,15.5c0.014,0,0.026,0,0.039-0.001c0.275-0.021,0.481-0.262,0.46-0.537l-0.5-6.5
		c-0.02-0.276-0.286-0.486-0.536-0.46c-0.275,0.021-0.481,0.262-0.46,0.537l0.5,6.5C13.521,15.301,13.74,15.5,13.999,15.5z"/>
	<path d="M17,15c0.276,0,0.5-0.224,0.5-0.5v-6C17.5,8.224,17.276,8,17,8s-0.5,0.224-0.5,0.5v6C16.5,14.776,16.724,15,17,15z"/>
	<path d="M19.955,14.498c0.015,0.002,0.03,0.002,0.046,0.002c0.255,0,0.474-0.195,0.497-0.455l0.5-5.5
		c0.026-0.275-0.178-0.518-0.453-0.543c-0.253-0.024-0.519,0.178-0.543,0.453l-0.5,5.5C19.476,14.23,19.68,14.473,19.955,14.498z"/>
	<path d="M22.902,13.99c0.033,0.007,0.066,0.01,0.099,0.01c0.233,0,0.441-0.164,0.489-0.402l1-5
		c0.054-0.271-0.122-0.534-0.393-0.588c-0.26-0.053-0.533,0.121-0.588,0.392l-1,5C22.455,13.673,22.631,13.936,22.902,13.99z"/>
</g>
</svg>
