<?xml version="1.0" encoding="iso-8859-1"?>
<!-- Generator: Adobe Illustrator 19.0.0, SVG Export Plug-In . SVG Version: 6.00 Build 0)  -->
<svg version="1.1" id="Layer_1" xmlns="http://www.w3.org/2000/svg" xmlns:xlink="http://www.w3.org/1999/xlink" x="0px" y="0px"
	 viewBox="0 0 30 30" style="enable-background:new 0 0 30 30;" xml:space="preserve">
<g>
	<path d="M11,22c-1.93,0-3.5,1.57-3.5,3.5S9.07,29,11,29s3.5-1.57,3.5-3.5S12.93,22,11,22z"/>
	<path d="M23,22c-1.93,0-3.5,1.57-3.5,3.5S21.07,29,23,29s3.5-1.57,3.5-3.5S24.93,22,23,22z"/>
	<path d="M29.387,5.183C29.292,5.067,29.15,5,29,5H6.053L5.494,1.423C5.456,1.179,5.247,1,5,1H1C0.724,1,0.5,1.224,0.5,1.5
		S0.724,2,1,2h3.572L7.01,17.598C7.391,19.506,9.364,21,11.5,21H26c0.276,0,0.5-0.224,0.5-0.5S26.276,20,26,20H11.5
		c-1.02,0-2.011-0.448-2.686-1.123l18.264-2.884c0.207-0.032,0.371-0.19,0.412-0.396l2-10C29.519,5.451,29.481,5.299,29.387,5.183z
		 M11.071,15.995C11.047,15.998,11.023,16,11,16c-0.245,0-0.459-0.18-0.495-0.429l-1-7C9.466,8.298,9.656,8.044,9.929,8.005
		c0.272-0.039,0.526,0.151,0.566,0.424l1,7C11.534,15.703,11.344,15.956,11.071,15.995z M14.039,15.499
		C14.026,15.5,14.013,15.5,14,15.5c-0.259,0-0.478-0.199-0.498-0.461l-0.5-6.5c-0.021-0.275,0.185-0.516,0.46-0.537
		c0.276-0.023,0.516,0.185,0.537,0.46l0.5,6.5C14.519,15.237,14.313,15.477,14.039,15.499z M17.5,14.5c0,0.276-0.224,0.5-0.5,0.5
		s-0.5-0.224-0.5-0.5v-6C16.5,8.224,16.724,8,17,8s0.5,0.224,0.5,0.5V14.5z M20.498,14.045C20.474,14.304,20.256,14.5,20,14.5
		c-0.015,0-0.03-0.001-0.046-0.002c-0.275-0.025-0.478-0.268-0.453-0.543l0.5-5.5c0.025-0.274,0.261-0.477,0.543-0.453
		c0.275,0.025,0.478,0.268,0.453,0.543L20.498,14.045z M23.49,13.598C23.443,13.836,23.234,14,23,14
		c-0.032,0-0.065-0.003-0.099-0.01c-0.271-0.054-0.446-0.317-0.392-0.588l1-5c0.054-0.271,0.315-0.451,0.588-0.392
		c0.271,0.054,0.446,0.317,0.392,0.588L23.49,13.598z"/>
</g>
</svg>
