<?xml version="1.0" encoding="iso-8859-1"?>
<!-- Generator: Adobe Illustrator 19.0.0, SVG Export Plug-In . SVG Version: 6.00 Build 0)  -->
<svg version="1.1" id="Layer_1" xmlns="http://www.w3.org/2000/svg" xmlns:xlink="http://www.w3.org/1999/xlink" x="0px" y="0px"
	 viewBox="0 0 24 24" style="enable-background:new 0 0 24 24;" xml:space="preserve">
<g>
	<path d="M21.579,12.999C22.921,12.957,24,11.852,24,10.5C24,9.122,22.878,8,21.5,8c-0.269,0-0.526,0.047-0.775,0.116
		c-0.048,0.013-0.097,0.022-0.145,0.038c-0.102,0.034-0.201,0.078-0.3,0.122c-0.034,0.015-0.069,0.029-0.102,0.046
		c-0.112,0.055-0.22,0.118-0.326,0.185c-0.01,0.006-0.02,0.013-0.03,0.019c-1.509,0.977-2.502,3.152-2.755,5.053
		C17.028,13.821,16.821,14,16.576,14H7.425c-0.245,0-0.452-0.179-0.491-0.42c-0.253-1.901-1.246-4.077-2.755-5.053
		c-0.01-0.007-0.02-0.013-0.03-0.019C4.042,8.44,3.934,8.378,3.823,8.323C3.79,8.306,3.755,8.293,3.721,8.277
		c-0.099-0.044-0.197-0.088-0.3-0.122C3.374,8.139,3.324,8.13,3.276,8.117C3.026,8.047,2.769,8,2.5,8C1.122,8,0,9.122,0,10.5
		c0,1.352,1.079,2.457,2.421,2.499c0.115,0.084,0.419,0.438,0.529,1.067C1.836,14.318,1,15.311,1,16.5c0,1.207,0.86,2.217,2,2.449
		V20.5C3,21.327,3.673,22,4.5,22h1C6.327,22,7,21.327,7,20.5V19h10v1.5c0,0.827,0.673,1.5,1.5,1.5h1c0.827,0,1.5-0.673,1.5-1.5
		v-1.551c1.14-0.232,2-1.242,2-2.449c0-1.189-0.836-2.182-1.949-2.434C21.16,13.437,21.464,13.083,21.579,12.999z"/>
	<path d="M7.85,13h8.3c0.518-2.804,2.307-5.634,4.85-5.966V6.5C21,4.019,18.981,2,16.5,2h-9C5.019,2,3,4.019,3,6.5v0.534
		C5.543,7.366,7.332,10.196,7.85,13z M14,6.5C14,6.224,14.224,6,14.5,6S15,6.224,15,6.5c0.03,0.138,0.24,0.419,0.498,0.702
		c0.26-0.288,0.473-0.578,0.504-0.729c0-0.276,0.223-0.486,0.499-0.486S17,6.224,17,6.5c0,0.347-0.327,0.882-0.761,1.37
		c0.104,0.069,0.2,0.122,0.268,0.13c0.276,0,0.497,0.224,0.497,0.5S16.777,9,16.501,9c-0.288,0-0.646-0.185-1-0.448
		C15.146,8.815,14.788,9,14.5,9C14.224,9,14,8.776,14,8.5c0-0.274,0.221-0.498,0.495-0.5c0.068-0.009,0.163-0.062,0.266-0.13
		C14.327,7.382,14,6.847,14,6.5z M7,6.5C7,6.224,7.224,6,7.5,6S8,6.224,8,6.5c0.03,0.138,0.24,0.419,0.498,0.702
		c0.26-0.288,0.473-0.578,0.504-0.729c0-0.276,0.223-0.486,0.499-0.486S10,6.224,10,6.5c0,0.347-0.327,0.882-0.761,1.37
		C9.343,7.939,9.439,7.992,9.507,8c0.276,0,0.497,0.224,0.497,0.5S9.777,9,9.501,9c-0.288,0-0.646-0.185-1-0.448
		C8.146,8.815,7.788,9,7.5,9C7.224,9,7,8.776,7,8.5C7,8.226,7.221,8.002,7.495,8c0.068-0.009,0.163-0.062,0.266-0.13
		C7.327,7.382,7,6.847,7,6.5z"/>
</g>
</svg>
