<?xml version="1.0" encoding="iso-8859-1"?>
<!-- Generator: Adobe Illustrator 19.0.0, SVG Export Plug-In . SVG Version: 6.00 Build 0)  -->
<svg version="1.1" id="Layer_1" xmlns="http://www.w3.org/2000/svg" xmlns:xlink="http://www.w3.org/1999/xlink" x="0px" y="0px"
	 viewBox="0 0 30 30" style="enable-background:new 0 0 30 30;" xml:space="preserve">
<g>
	<path d="M9,11c0,0.276,0.224,0.5,0.5,0.5c0.382,0,0.941-0.338,1.5-0.81c0.559,0.472,1.118,0.81,1.5,0.81
		c0.276,0,0.503-0.224,0.503-0.5s-0.221-0.5-0.497-0.5c-0.167-0.017-0.459-0.221-0.781-0.495C12.432,9.261,13,8.432,13,8
		c0-0.276-0.223-0.512-0.499-0.512s-0.499,0.211-0.499,0.486c-0.047,0.238-0.493,0.805-1.003,1.341C10.49,8.783,10.047,8.225,10,8
		c0-0.276-0.224-0.5-0.5-0.5S9,7.724,9,8c0,0.432,0.569,1.261,1.275,2.004c-0.321,0.274-0.612,0.477-0.779,0.496
		C9.222,10.502,9,10.726,9,11z"/>
	<path d="M27,16c1.654,0,3-1.346,3-3s-1.346-3-3-3c-0.343,0-0.675,0.061-1,0.152V7.667C26,4.818,23.56,2.5,20.56,2.5H9.443
		c-3,0-5.441,2.318-5.441,5.167v2.485C3.676,10.061,3.344,10,3,10c-1.654,0-3,1.346-3,3c0,1.65,1.34,2.994,2.931,2.994
		c0.004,0,0.008,0,0.011,0c0.115,0.034,0.827,0.502,1.013,1.511C2.322,17.53,1,18.862,1,20.5c0,1.654,1.346,3,3,3V26
		c0,0.827,0.673,1.5,1.5,1.5h2C8.328,27.5,9,26.827,9,26v-2.5h12V26c0,0.827,0.673,1.5,1.5,1.5h2c0.827,0,1.5-0.673,1.5-1.5v-2.5
		c1.654,0,3-1.346,3-3c0-1.638-1.322-2.97-2.954-2.995C26.232,16.496,26.937,16.029,27,16z M29,13c0,1.103-0.897,2-2,2
		c-0.622,0-1.758,0.958-1.967,2.5h-3.009C22.276,14.801,24.451,11,27,11C28.104,11,29,11.897,29,13z M5.002,7.667
		c0-2.298,1.992-4.167,4.441-4.167H20.56C23.008,3.5,25,5.369,25,7.667v2.908c-2.224,1.282-3.783,4.475-3.976,6.925H8.975
		c-0.193-2.449-1.751-5.641-3.974-6.924L5.002,7.667L5.002,7.667z M3,15c-1.103,0-2-0.897-2-2s0.897-2,2-2
		c2.55,0,4.725,3.801,4.976,6.5H4.967C4.758,15.958,3.622,15,3,15z M8,26c0,0.275-0.225,0.5-0.5,0.5h-2C5.226,26.5,5,26.275,5,26
		v-2.5h3V26z M25,26c0,0.275-0.225,0.5-0.5,0.5h-2c-0.275,0-0.5-0.225-0.5-0.5v-2.5h3V26z M28,20.5c0,1.103-0.897,2-2,2h-0.5h-4h-13
		h-4H4c-1.103,0-2-0.897-2-2s0.897-2,2-2h0.5h4h13h4H26C27.104,18.5,28,19.397,28,20.5z"/>
	<path d="M17,11c0,0.276,0.224,0.5,0.5,0.5c0.382,0,0.941-0.338,1.5-0.81c0.559,0.472,1.118,0.81,1.5,0.81
		c0.276,0,0.503-0.224,0.503-0.5s-0.221-0.5-0.497-0.5c-0.167-0.017-0.459-0.221-0.781-0.495C20.432,9.261,21,8.432,21,8
		c0-0.276-0.223-0.512-0.499-0.512c-0.276,0-0.499,0.211-0.499,0.486c-0.047,0.238-0.493,0.805-1.003,1.341
		C18.49,8.783,18.047,8.225,18,8c0-0.276-0.224-0.5-0.5-0.5S17,7.724,17,8c0,0.432,0.569,1.261,1.275,2.004
		c-0.321,0.274-0.612,0.477-0.779,0.496C17.222,10.502,17,10.726,17,11z"/>
</g>
</svg>
