<?xml version="1.0" encoding="iso-8859-1"?>
<!-- Generator: Adobe Illustrator 19.0.0, SVG Export Plug-In . SVG Version: 6.00 Build 0)  -->
<svg version="1.1" id="Layer_1" xmlns="http://www.w3.org/2000/svg" xmlns:xlink="http://www.w3.org/1999/xlink" x="0px" y="0px"
	 viewBox="0 0 24 24" style="enable-background:new 0 0 24 24;" xml:space="preserve">
<g>
	<path d="M1.5,9C1.224,9,1,9.224,1,9.5v5C1,14.776,1.224,15,1.5,15S2,14.776,2,14.5v-5C2,9.224,1.776,9,1.5,9z"/>
	<path d="M4.5,5C4.224,5,4,5.224,4,5.5v13C4,18.776,4.224,19,4.5,19S5,18.776,5,18.5v-13C5,5.224,4.776,5,4.5,5z"/>
	<path d="M7.5,1C7.224,1,7,1.224,7,1.5v21C7,22.776,7.224,23,7.5,23S8,22.776,8,22.5v-21C8,1.224,7.776,1,7.5,1z"/>
	<path d="M10.5,2C10.224,2,10,2.224,10,2.5v19c0,0.276,0.224,0.5,0.5,0.5s0.5-0.224,0.5-0.5v-19C11,2.224,10.776,2,10.5,2z"/>
	<path d="M13.5,6C13.224,6,13,6.224,13,6.5v11c0,0.276,0.224,0.5,0.5,0.5s0.5-0.224,0.5-0.5v-11C14,6.224,13.776,6,13.5,6z"/>
	<path d="M16.5,2C16.224,2,16,2.224,16,2.5v19c0,0.276,0.224,0.5,0.5,0.5s0.5-0.224,0.5-0.5v-19C17,2.224,16.776,2,16.5,2z"/>
	<path d="M19.5,6C19.224,6,19,6.224,19,6.5v11c0,0.276,0.224,0.5,0.5,0.5s0.5-0.224,0.5-0.5v-11C20,6.224,19.776,6,19.5,6z"/>
	<path d="M22.5,9C22.224,9,22,9.224,22,9.5v5c0,0.276,0.224,0.5,0.5,0.5s0.5-0.224,0.5-0.5v-5C23,9.224,22.776,9,22.5,9z"/>
</g>
</svg>
