<?xml version="1.0" encoding="iso-8859-1"?>
<!-- Generator: Adobe Illustrator 19.0.0, SVG Export Plug-In . SVG Version: 6.00 Build 0)  -->
<svg version="1.1" id="Layer_1" xmlns="http://www.w3.org/2000/svg" xmlns:xlink="http://www.w3.org/1999/xlink" x="0px" y="0px"
	 viewBox="0 0 24 24" style="enable-background:new 0 0 24 24;" xml:space="preserve">
<g>
	<path d="M0,15.5V16c0,0.827,0.673,1.5,1.5,1.5h21c0.827,0,1.5-0.673,1.5-1.5v-0.5H0z"/>
	<path d="M17.489,14.5h6.465c-0.224-1.803-1.604-2.99-2.817-3.528C21.093,10.985,21.049,11,21,11
		C20.431,11,18.848,12.692,17.489,14.5z"/>
	<path d="M0.5,11.5H0v3h3.949C3.704,12.808,2.258,11.5,0.5,11.5z"/>
	<path d="M4.949,14.5h11.293c0.686-0.963,2.22-3.005,3.547-3.973c-0.803-0.228-1.544-0.496-2.201-0.847l-0.489-0.261l-0.652,1.304
		l-0.5,1c-0.088,0.175-0.264,0.276-0.448,0.276c-0.075,0-0.151-0.017-0.223-0.053c-0.247-0.124-0.347-0.424-0.224-0.671l0.5-1
		l0.664-1.328l-1.091-0.582l-0.678,1.357l-0.5,1c-0.088,0.175-0.264,0.276-0.448,0.276c-0.075,0-0.151-0.017-0.223-0.053
		c-0.247-0.124-0.347-0.424-0.224-0.671l0.5-1l0.69-1.38l-1.091-0.582l-0.705,1.409l-0.5,1c-0.088,0.175-0.264,0.276-0.448,0.276
		c-0.075,0-0.151-0.017-0.223-0.053c-0.247-0.124-0.347-0.424-0.224-0.671l0.5-1l0.715-1.43C11.048,6.214,9.461,6.51,8.628,7.465
		C8.219,7.939,7.43,8.5,6,8.5c-1.58,0-2.388-0.67-2.788-1.233C2.87,6.787,2.328,6.5,1.76,6.5H0.5C0.224,6.5,0,6.724,0,7v3.5h0.5
		C2.81,10.5,4.697,12.256,4.949,14.5z"/>
</g>
</svg>
