<?xml version="1.0" encoding="iso-8859-1"?>
<!-- Generator: Adobe Illustrator 19.0.0, SVG Export Plug-In . SVG Version: 6.00 Build 0)  -->
<svg version="1.1" id="Layer_1" xmlns="http://www.w3.org/2000/svg" xmlns:xlink="http://www.w3.org/1999/xlink" x="0px" y="0px"
	 viewBox="0 0 30 30" style="enable-background:new 0 0 30 30;" xml:space="preserve">
<path d="M25.325,13.503c-1.05-0.248-2.258-0.734-3.608-1.454l-6.481-3.11c-1.471-0.785-3.421-0.431-4.435,0.732
	C10.295,10.252,9.308,10.5,7.5,10.5c-1.865,0-3.218-0.398-3.712-1.094C3.378,8.83,2.754,8.5,2.075,8.5H0.5C0.224,8.5,0,8.724,0,9v10
	v0.75c0,0.965,0.785,1.75,1.75,1.75h26.5c0.965,0,1.75-0.785,1.75-1.75V19C30,16.135,27.285,13.967,25.325,13.503z M28.939,18.5
	h-7.625c1.036-1.939,2.642-4.15,3.613-4.006c0.068,0.011,0.133,0.007,0.194-0.008C26.598,14.847,28.64,16.438,28.939,18.5z
	 M2.076,9.5c0.35,0,0.678,0.177,0.898,0.485C3.464,10.676,4.647,11.5,7.5,11.5c2.156,0,3.33-0.339,4.055-1.171
	c0.715-0.822,2.105-1.097,3.229-0.498l0.527,0.253L14.099,11.7c-0.165,0.221-0.12,0.534,0.101,0.7c0.09,0.067,0.196,0.1,0.3,0.1
	c0.151,0,0.302-0.069,0.4-0.2l1.331-1.775l1.386,0.665c-0.01,0.012-0.024,0.019-0.033,0.033l-1,1.5
	c-0.153,0.23-0.09,0.54,0.139,0.693C16.808,13.473,16.904,13.5,17,13.5c0.161,0,0.319-0.078,0.416-0.223l1-1.5
	c0.035-0.053,0.056-0.111,0.069-0.17l1.523,0.731l-0.924,1.384c-0.153,0.23-0.091,0.54,0.139,0.694
	c0.085,0.057,0.181,0.084,0.277,0.084c0.161,0,0.319-0.078,0.416-0.222l1-1.497c0.001-0.002,0.001-0.004,0.003-0.006l0.346,0.166
	c0.798,0.426,1.553,0.768,2.269,1.041c-1.507,1.05-2.843,3.508-3.346,4.518H5.975C5.85,15.797,3.79,13.768,1,13.545V9.5H2.076z
	 M1,14.545c2.219,0.215,3.851,1.82,3.975,3.955H1V14.545z M29,19.75c0,0.414-0.337,0.75-0.75,0.75H1.75C1.337,20.5,1,20.164,1,19.75
	V19.5h28V19.75z"/>
</svg>
