<?xml version="1.0" encoding="iso-8859-1"?>
<!-- Generator: Adobe Illustrator 19.0.0, SVG Export Plug-In . SVG Version: 6.00 Build 0)  -->
<svg version="1.1" id="Layer_1" xmlns="http://www.w3.org/2000/svg" xmlns:xlink="http://www.w3.org/1999/xlink" x="0px" y="0px"
	 viewBox="0 0 30 30" style="enable-background:new 0 0 30 30;" xml:space="preserve">
<g>
	<path d="M29.501,6.5h-25c-0.109,0-0.214,0.035-0.3,0.1l-4,3c-0.008,0.006-0.012,0.016-0.02,0.023
		C0.15,9.649,0.126,9.679,0.102,9.711c-0.015,0.02-0.03,0.039-0.041,0.061C0.043,9.806,0.033,9.841,0.024,9.878
		C0.017,9.905,0.01,9.931,0.007,9.959C0.006,9.973-0.001,9.986-0.001,10v13c0,0.276,0.224,0.5,0.5,0.5h25
		c0.101,0,0.189-0.037,0.268-0.089c0.011-0.007,0.024-0.004,0.034-0.011l4-3c0.126-0.094,0.2-0.243,0.2-0.4V7
		C30.001,6.724,29.777,6.5,29.501,6.5z M25.348,9.5h-8.35l2.667-2h8.683L25.348,9.5z M11.998,9.5l2.667-2h3.334l-2.667,2H11.998z
		 M4.667,7.5h8.332l-2.667,2H2L4.667,7.5z M0.999,22.5v-12h9v12H0.999z M10.998,22.5v-12h4.001v12H10.998z M24.999,22.5h-9.001v-12
		h9.001V22.5z M25.999,22.001V10.267l3.001-2V19.75L25.999,22.001z"/>
	<path d="M3.913,12.5h4.586c0.276,0,0.5-0.224,0.5-0.5s-0.224-0.5-0.5-0.5h-5c-0.276,0-0.5,0.224-0.5,0.5s-0.225,0.5-0.5,0.5
		c-0.276,0-0.5,0.224-0.5,0.5v6c0,0.276,0.224,0.5,0.5,0.5c0.275,0,0.5,0.224,0.5,0.5s0.224,0.5,0.5,0.5h5
		c0.276,0,0.5-0.223,0.5-0.499s-0.224-0.5-0.5-0.5H3.913c-0.15-0.426-0.488-0.764-0.914-0.915v-5.171
		C3.425,13.264,3.763,12.926,3.913,12.5z"/>
	<path d="M17.499,12.5h4.586c0.15,0.426,0.488,0.764,0.914,0.915v5.171c-0.426,0.151-0.764,0.489-0.914,0.915h-4.586
		c-0.276,0-0.5,0.224-0.5,0.5s0.224,0.5,0.5,0.5h5c0.276,0,0.5-0.224,0.5-0.501c0-0.276,0.225-0.5,0.5-0.5
		c0.276,0,0.5-0.224,0.5-0.5v-6c0-0.276-0.224-0.5-0.5-0.5c-0.275,0-0.5-0.224-0.5-0.5s-0.224-0.5-0.5-0.5h-5
		c-0.276,0-0.5,0.224-0.5,0.5S17.223,12.5,17.499,12.5z"/>
</g>
</svg>
