<?xml version="1.0" encoding="iso-8859-1"?>
<!-- Generator: Adobe Illustrator 19.0.0, SVG Export Plug-In . SVG Version: 6.00 Build 0)  -->
<svg version="1.1" id="Layer_1" xmlns="http://www.w3.org/2000/svg" xmlns:xlink="http://www.w3.org/1999/xlink" x="0px" y="0px"
	 viewBox="0 0 30 30" style="enable-background:new 0 0 30 30;" xml:space="preserve">
<g>
	<polygon points="19.28,6.5 16.613,9.5 25.334,9.5 29.334,6.5 	"/>
	<path d="M16,23.5h9v-13h-9V23.5z M22.085,12.501H17.5c-0.276,0-0.5-0.224-0.5-0.5s0.224-0.5,0.5-0.5h5c0.276,0,0.5,0.224,0.5,0.5
		s0.224,0.5,0.5,0.5s0.5,0.224,0.5,0.5v6c0,0.276-0.224,0.5-0.5,0.5s-0.5,0.224-0.5,0.5s-0.224,0.5-0.5,0.5h-5
		c-0.276,0-0.5-0.224-0.5-0.5s0.224-0.5,0.5-0.5h4.585c0.151-0.426,0.489-0.764,0.915-0.915v-5.171
		C22.574,13.264,22.236,12.926,22.085,12.501z"/>
	<rect x="11" y="10.5" width="4" height="13"/>
	<path d="M0,23c0,0.276,0.224,0.5,0.5,0.5H10v-13H0V23z M2,13c0-0.276,0.224-0.5,0.5-0.5S3,12.276,3,12s0.224-0.5,0.5-0.5h5
		C8.776,11.5,9,11.724,9,12s-0.224,0.5-0.5,0.5H3.915C3.764,12.926,3.426,13.264,3,13.415v5.171
		c0.426,0.151,0.764,0.489,0.915,0.915H8.5c0.276,0,0.5,0.224,0.5,0.5S8.776,20.5,8.5,20.5h-5C3.224,20.5,3,20.276,3,20
		s-0.224-0.5-0.5-0.5S2,19.276,2,19V13z"/>
	<path d="M26,10.25v13l3.8-2.85c0.126-0.094,0.2-0.243,0.2-0.4V7.25L26,10.25z"/>
	<polygon points="14.28,6.5 11.613,9.5 15.276,9.5 17.942,6.5 	"/>
	<path d="M4.5,6.5c-0.108,0-0.213,0.035-0.3,0.1L0.333,9.5h9.943l2.667-3H4.5z"/>
</g>
</svg>
