<?xml version="1.0" encoding="iso-8859-1"?>
<!-- Generator: Adobe Illustrator 19.0.0, SVG Export Plug-In . SVG Version: 6.00 Build 0)  -->
<svg version="1.1" id="Layer_1" xmlns="http://www.w3.org/2000/svg" xmlns:xlink="http://www.w3.org/1999/xlink" x="0px" y="0px"
	 viewBox="0 0 24 24" style="enable-background:new 0 0 24 24;" xml:space="preserve">
<g>
	<path d="M6.5,7.5C4.019,7.5,2,9.519,2,12s2.019,4.5,4.5,4.5S11,14.481,11,12S8.981,7.5,6.5,7.5z M6.5,15.5C4.57,15.5,3,13.93,3,12
		s1.57-3.5,3.5-3.5S10,10.07,10,12S8.43,15.5,6.5,15.5z"/>
	<path d="M17.5,5.5h-11C2.916,5.5,0,8.416,0,12s2.916,6.5,6.5,6.5h11c3.584,0,6.5-2.916,6.5-6.5S21.084,5.5,17.5,5.5z M17.5,17.5
		h-11C3.468,17.5,1,15.033,1,12s2.468-5.5,5.5-5.5h11c3.032,0,5.5,2.467,5.5,5.5S20.532,17.5,17.5,17.5z"/>
	<path d="M13.5,9.5c-0.827,0-1.5,0.673-1.5,1.5v2c0,0.827,0.673,1.5,1.5,1.5S15,13.827,15,13v-2C15,10.173,14.327,9.5,13.5,9.5z
		 M14,13c0,0.276-0.225,0.5-0.5,0.5S13,13.276,13,13v-2c0-0.276,0.225-0.5,0.5-0.5S14,10.724,14,11V13z"/>
	<path d="M18,9.5h-1.5C16.224,9.5,16,9.724,16,10v4c0,0.276,0.224,0.5,0.5,0.5S17,14.276,17,14v-1.5h0.5c0.276,0,0.5-0.224,0.5-0.5
		s-0.224-0.5-0.5-0.5H17v-1h1c0.276,0,0.5-0.224,0.5-0.5S18.276,9.5,18,9.5z"/>
	<path d="M21,9.5h-1.5C19.224,9.5,19,9.724,19,10v4c0,0.276,0.224,0.5,0.5,0.5S20,14.276,20,14v-1.5h0.5c0.276,0,0.5-0.224,0.5-0.5
		s-0.224-0.5-0.5-0.5H20v-1h1c0.276,0,0.5-0.224,0.5-0.5S21.276,9.5,21,9.5z"/>
</g>
</svg>
