<?xml version="1.0" encoding="iso-8859-1"?>
<!-- Generator: Adobe Illustrator 19.0.0, SVG Export Plug-In . SVG Version: 6.00 Build 0)  -->
<svg version="1.1" id="Layer_1" xmlns="http://www.w3.org/2000/svg" xmlns:xlink="http://www.w3.org/1999/xlink" x="0px" y="0px"
	 viewBox="0 0 24 24" style="enable-background:new 0 0 24 24;" xml:space="preserve">
<path d="M20.809,2.107c-1.611-1.263-5.051-2.061-5.197-2.094c-0.001,0-0.003,0-0.004,0c-0.064-0.014-0.132-0.016-0.201-0.004
	C14.689,0.146,12.679,0.5,12,0.5c-0.674,0-2.66-0.349-3.389-0.488H8.61C8.606,0.011,8.599,0.009,8.594,0.009
	c-0.07-0.013-0.139-0.01-0.203,0.004c-0.001,0-0.002,0-0.003,0C8.244,0.046,4.802,0.844,3.192,2.107
	c-1.669,1.308-2.141,7.642-2.19,8.36c-0.014,0.204,0.098,0.396,0.282,0.484C1.366,10.99,3.155,11.83,5,11.971V22.5
	c0,0.184,0.102,0.354,0.265,0.441C5.346,22.984,7.304,24,12,24s6.654-1.016,6.733-1.06c0.163-0.087,0.265-0.256,0.265-0.441V11.971
	c1.846-0.14,3.636-0.981,3.718-1.02c0.183-0.088,0.296-0.28,0.282-0.484C22.95,9.749,22.478,3.415,20.809,2.107z M14.588,1.171
	C14.063,1.623,13.09,2,12,2S9.938,1.623,9.413,1.171C10.269,1.318,11.443,1.5,12,1.5S13.732,1.318,14.588,1.171z M18.998,10.976
	V8.499c0-1.072,0.343-2.135,0.854-2.646c0.195-0.195,0.195-0.512,0-0.707s-0.512-0.195-0.707,0
	c-0.707,0.708-1.146,1.993-1.146,3.354v13.672c-0.652,0.251-2.533,0.829-6,0.829c-3.469,0-5.35-0.579-6-0.829V11.504
	C5.999,11.503,6,11.501,6,11.5s-0.001-0.003-0.001-0.005V8.501c0-1.362-0.439-2.647-1.146-3.354c-0.195-0.195-0.512-0.195-0.707,0
	c-0.195,0.195-0.195,0.512,0,0.707C4.657,6.364,5,7.428,5,8.5v2.476c-1.21-0.107-2.423-0.56-2.976-0.791
	C2.228,7.617,2.857,3.64,3.808,2.894c1.103-0.865,3.326-1.521,4.313-1.783C8.59,2.263,10.345,3,12,3s3.41-0.737,3.879-1.889
	c0.987,0.262,3.209,0.918,4.313,1.783c0.951,0.745,1.58,4.723,1.784,7.291C21.424,10.415,20.209,10.869,18.998,10.976z"/>
</svg>
