<?xml version="1.0" encoding="iso-8859-1"?>
<!-- Generator: Adobe Illustrator 19.0.0, SVG Export Plug-In . SVG Version: 6.00 Build 0)  -->
<svg version="1.1" id="Layer_1" xmlns="http://www.w3.org/2000/svg" xmlns:xlink="http://www.w3.org/1999/xlink" x="0px" y="0px"
	 viewBox="0 0 30 30" style="enable-background:new 0 0 30 30;" xml:space="preserve">
<g>
	<path d="M29.5,0H18c-0.133,0-0.26,0.053-0.354,0.147l-17.5,17.5c-0.195,0.195-0.195,0.512,0,0.707l11.5,11.5
		C11.74,29.947,11.867,30,12,30c0.095-0.001,0.264-0.055,0.358-0.151l17.5-18C29.949,11.755,30,11.63,30,11.5v-11
		C30,0.224,29.776,0,29.5,0z M29,11.297L11.995,28.788L1.207,18l17-17H29V11.297z"/>
	<path d="M23,10c1.654,0,3-1.346,3-3s-1.346-3-3-3s-3,1.346-3,3S21.346,10,23,10z M23,5c1.103,0,2,0.897,2,2s-0.897,2-2,2
		s-2-0.897-2-2S21.897,5,23,5z"/>
</g>
</svg>
