<?xml version="1.0" encoding="iso-8859-1"?>
<!-- Generator: Adobe Illustrator 19.0.0, SVG Export Plug-In . SVG Version: 6.00 Build 0)  -->
<svg version="1.1" id="Layer_1" xmlns="http://www.w3.org/2000/svg" xmlns:xlink="http://www.w3.org/1999/xlink" x="0px" y="0px"
	 viewBox="0 0 30 30" style="enable-background:new 0 0 30 30;" xml:space="preserve">
<path d="M29.5,0H18c-0.133,0-0.26,0.053-0.354,0.146l-17.5,17.5c-0.195,0.195-0.195,0.512,0,0.707l11.5,11.5
	C11.74,29.947,11.867,30,12,30c0.094-0.003,0.265-0.055,0.358-0.151l17.5-18C29.949,11.756,30,11.631,30,11.5v-11
	C30,0.224,29.776,0,29.5,0z M23,10c-1.654,0-3-1.346-3-3s1.346-3,3-3s3,1.346,3,3S24.654,10,23,10z"/>
</svg>
