<?xml version="1.0" encoding="iso-8859-1"?>
<!-- Generator: Adobe Illustrator 19.0.0, SVG Export Plug-In . SVG Version: 6.00 Build 0)  -->
<svg version="1.1" id="Layer_1" xmlns="http://www.w3.org/2000/svg" xmlns:xlink="http://www.w3.org/1999/xlink" x="0px" y="0px"
	 viewBox="0 0 24 24" style="enable-background:new 0 0 24 24;" xml:space="preserve">
<g>
	<path d="M22.293,0.208h-7.586c-0.395,0-0.782,0.16-1.061,0.439l-13,13c-0.585,0.585-0.585,1.536,0,2.121l7.586,7.586
		c0.292,0.292,0.677,0.438,1.061,0.438s0.769-0.146,1.061-0.437l13-13c0.283-0.284,0.439-0.661,0.439-1.061V1.708
		C23.793,0.881,23.12,0.208,22.293,0.208z M22.792,9.292c0,0.132-0.053,0.261-0.146,0.354l-13,13c-0.195,0.195-0.512,0.195-0.707,0
		L1.353,15.06c-0.195-0.195-0.195-0.512,0-0.707l13-13c0.093-0.093,0.222-0.146,0.354-0.146V1.206h7.585c0.275,0,0.5,0.224,0.5,0.5
		V9.292z"/>
	<path d="M18.293,3.207c-1.379,0-2.5,1.122-2.5,2.5s1.121,2.5,2.5,2.5s2.5-1.122,2.5-2.5S19.672,3.207,18.293,3.207z M18.293,7.207
		c-0.827,0-1.5-0.673-1.5-1.5s0.673-1.5,1.5-1.5s1.5,0.673,1.5,1.5S19.12,7.207,18.293,7.207z"/>
</g>
</svg>
