<?xml version="1.0" encoding="iso-8859-1"?>
<!-- Generator: Adobe Illustrator 19.0.0, SVG Export Plug-In . SVG Version: 6.00 Build 0)  -->
<svg version="1.1" id="Layer_1" xmlns="http://www.w3.org/2000/svg" xmlns:xlink="http://www.w3.org/1999/xlink" x="0px" y="0px"
	 viewBox="0 0 30 30" style="enable-background:new 0 0 30 30;" xml:space="preserve">
<g>
	<rect x="23" y="20" width="2" height="4"/>
	<path d="M27.5,7H14.707l6.146-6.146c0.195-0.195,0.195-0.512,0-0.707s-0.512-0.195-0.707,0L13.5,6.793L6.854,0.147
		c-0.195-0.195-0.512-0.195-0.707,0s-0.195,0.512,0,0.707L12.293,7H2.5C1.121,7,0,8.122,0,9.5v15C0,25.878,1.121,27,2.5,27H4v2.5
		C4,29.776,4.224,30,4.5,30S5,29.776,5,29.5V27h20v2.5c0,0.276,0.224,0.5,0.5,0.5s0.5-0.224,0.5-0.5V27h1.5
		c1.379,0,2.5-1.122,2.5-2.5v-15C30,8.122,28.879,7,27.5,7z M21,21.5c0,1.93-1.57,3.5-3.5,3.5h-12C3.57,25,2,23.43,2,21.5v-9
		C2,10.57,3.57,9,5.5,9h12c1.93,0,3.5,1.57,3.5,3.5V21.5z M26,24.5c0,0.276-0.224,0.5-0.5,0.5h-3c-0.276,0-0.5-0.224-0.5-0.5v-5
		c0-0.276,0.224-0.5,0.5-0.5h3c0.276,0,0.5,0.224,0.5,0.5V24.5z M25.5,17h-3c-0.276,0-0.5-0.224-0.5-0.5s0.224-0.5,0.5-0.5h3
		c0.276,0,0.5,0.224,0.5,0.5S25.776,17,25.5,17z M25.5,15h-3c-0.276,0-0.5-0.224-0.5-0.5s0.224-0.5,0.5-0.5h3
		c0.276,0,0.5,0.224,0.5,0.5S25.776,15,25.5,15z M25.5,13h-3c-0.276,0-0.5-0.224-0.5-0.5s0.224-0.5,0.5-0.5h3
		c0.276,0,0.5,0.224,0.5,0.5S25.776,13,25.5,13z"/>
</g>
</svg>
