<?xml version="1.0" encoding="iso-8859-1"?>
<!-- Generator: Adobe Illustrator 19.0.0, SVG Export Plug-In . SVG Version: 6.00 Build 0)  -->
<svg version="1.1" id="Layer_1" xmlns="http://www.w3.org/2000/svg" xmlns:xlink="http://www.w3.org/1999/xlink" x="0px" y="0px"
	 viewBox="0 0 24 24" style="enable-background:new 0 0 24 24;" xml:space="preserve">
<g>
	<path d="M21.5,6h-9.794l5.146-5.146c0.195-0.195,0.195-0.512,0-0.707s-0.512-0.195-0.707,0l-5.646,5.646L4.853,0.147
		c-0.195-0.195-0.512-0.195-0.707,0s-0.195,0.512,0,0.707L9.292,6H2.5C1.122,6,0,7.122,0,8.5v11C0,20.878,1.122,22,2.5,22H3v1.5
		C3,23.776,3.224,24,3.5,24S4,23.776,4,23.5V22h16v1.5c0,0.276,0.224,0.5,0.5,0.5s0.5-0.224,0.5-0.5V22h0.5
		c1.378,0,2.5-1.122,2.5-2.5v-11C24,7.122,22.878,6,21.5,6z M16,16.5c0,1.378-1.122,2.5-2.5,2.5h-8C4.122,19,3,17.878,3,16.5v-5
		C3,10.122,4.122,9,5.5,9h8c1.378,0,2.5,1.122,2.5,2.5V16.5z M21,19.5c0,0.276-0.224,0.5-0.5,0.5h-2c-0.276,0-0.5-0.224-0.5-0.5v-4
		c0-0.276,0.224-0.5,0.5-0.5h2c0.276,0,0.5,0.224,0.5,0.5V19.5z M20.5,14h-2c-0.276,0-0.5-0.224-0.5-0.5s0.224-0.5,0.5-0.5h2
		c0.276,0,0.5,0.224,0.5,0.5S20.776,14,20.5,14z M20.5,12h-2c-0.276,0-0.5-0.224-0.5-0.5s0.224-0.5,0.5-0.5h2
		c0.276,0,0.5,0.224,0.5,0.5S20.776,12,20.5,12z M20.5,10h-2C18.224,10,18,9.776,18,9.5S18.224,9,18.5,9h2C20.776,9,21,9.224,21,9.5
		S20.776,10,20.5,10z"/>
	<rect x="19" y="16" width="1" height="3"/>
</g>
</svg>
