<?xml version="1.0" encoding="iso-8859-1"?>
<!-- Generator: Adobe Illustrator 19.0.0, SVG Export Plug-In . SVG Version: 6.00 Build 0)  -->
<svg version="1.1" id="Layer_1" xmlns="http://www.w3.org/2000/svg" xmlns:xlink="http://www.w3.org/1999/xlink" x="0px" y="0px"
	 viewBox="0 0 24 24" style="enable-background:new 0 0 24 24;" xml:space="preserve">
<g>
	<path d="M21.5,0.5h-19C1.121,0.5,0,1.622,0,3v18c0,1.378,1.121,2.5,2.5,2.5h19c1.379,0,2.5-1.122,2.5-2.5V3
		C24,1.622,22.879,0.5,21.5,0.5z M2.5,1.5h19C22.327,1.5,23,2.173,23,3v1.5H1V3C1,2.173,1.673,1.5,2.5,1.5z M21.5,22.5h-19
		C1.673,22.5,1,21.827,1,21V5.5h22V21C23,21.827,22.327,22.5,21.5,22.5z"/>
	<circle cx="2.5" cy="3" r="0.5"/>
	<circle cx="4.5" cy="3" r="0.5"/>
	<circle cx="6.5" cy="3" r="0.5"/>
	<path d="M4.332,15.471c0.261,0.095,0.546-0.043,0.639-0.303L5.567,13.5h2.866l0.596,1.668C9.103,15.373,9.295,15.5,9.5,15.5
		c0.056,0,0.112-0.009,0.167-0.029c0.26-0.093,0.396-0.379,0.303-0.639l-2.5-7c-0.142-0.398-0.798-0.398-0.941,0l-2.5,7
		C3.936,15.092,4.072,15.378,4.332,15.471z M7,9.487L8.076,12.5H5.924L7,9.487z"/>
	<path d="M19.5,7.5h-7C12.224,7.5,12,7.724,12,8s0.224,0.5,0.5,0.5h7C19.776,8.5,20,8.276,20,8S19.776,7.5,19.5,7.5z"/>
	<path d="M19.5,10.5h-7c-0.276,0-0.5,0.224-0.5,0.5s0.224,0.5,0.5,0.5h7c0.276,0,0.5-0.224,0.5-0.5S19.776,10.5,19.5,10.5z"/>
	<path d="M19.5,13.5h-7c-0.276,0-0.5,0.224-0.5,0.5s0.224,0.5,0.5,0.5h7c0.276,0,0.5-0.224,0.5-0.5S19.776,13.5,19.5,13.5z"/>
	<path d="M19.5,16.5h-15C4.224,16.5,4,16.724,4,17s0.224,0.5,0.5,0.5h15c0.276,0,0.5-0.224,0.5-0.5S19.776,16.5,19.5,16.5z"/>
	<path d="M19.5,19.5h-15C4.224,19.5,4,19.724,4,20s0.224,0.5,0.5,0.5h15c0.276,0,0.5-0.224,0.5-0.5S19.776,19.5,19.5,19.5z"/>
</g>
</svg>
