<?xml version="1.0" encoding="iso-8859-1"?>
<!-- Generator: Adobe Illustrator 19.0.0, SVG Export Plug-In . SVG Version: 6.00 Build 0)  -->
<svg version="1.1" id="Layer_1" xmlns="http://www.w3.org/2000/svg" xmlns:xlink="http://www.w3.org/1999/xlink" x="0px" y="0px"
	 viewBox="0 0 24 24" style="enable-background:new 0 0 24 24;" xml:space="preserve">
<g>
	<path d="M4.332,15.471c0.258,0.093,0.546-0.043,0.639-0.303L5.567,13.5h2.867l0.596,1.668C9.102,15.373,9.294,15.5,9.5,15.5
		c0.056,0,0.113-0.009,0.168-0.029c0.26-0.093,0.396-0.379,0.303-0.639l-2.5-7c-0.142-0.398-0.8-0.398-0.941,0l-2.5,7
		C3.936,15.092,4.072,15.378,4.332,15.471z M7,9.487L8.076,12.5H5.923L7,9.487z"/>
	<path d="M12.5,8.5h7C19.776,8.5,20,8.276,20,8s-0.224-0.5-0.5-0.5h-7C12.224,7.5,12,7.724,12,8S12.224,8.5,12.5,8.5z"/>
	<path d="M12.5,11.5h7c0.276,0,0.5-0.224,0.5-0.5s-0.224-0.5-0.5-0.5h-7c-0.276,0-0.5,0.224-0.5,0.5S12.224,11.5,12.5,11.5z"/>
	<path d="M12.5,14.5h7c0.276,0,0.5-0.224,0.5-0.5s-0.224-0.5-0.5-0.5h-7c-0.276,0-0.5,0.224-0.5,0.5S12.224,14.5,12.5,14.5z"/>
	<path d="M4.5,17.5h15c0.276,0,0.5-0.224,0.5-0.5s-0.224-0.5-0.5-0.5h-15C4.224,16.5,4,16.724,4,17S4.224,17.5,4.5,17.5z"/>
	<path d="M4.5,20.5h15c0.276,0,0.5-0.224,0.5-0.5s-0.224-0.5-0.5-0.5h-15C4.224,19.5,4,19.724,4,20S4.224,20.5,4.5,20.5z"/>
	<path d="M21.5,0.5h-19C1.121,0.5,0,1.622,0,3v2v16c0,1.378,1.121,2.5,2.5,2.5h19c1.379,0,2.5-1.122,2.5-2.5V5V3
		C24,1.622,22.879,0.5,21.5,0.5z M6.5,2.5C6.776,2.5,7,2.724,7,3S6.776,3.5,6.5,3.5S6,3.276,6,3S6.224,2.5,6.5,2.5z M4.5,2.5
		C4.776,2.5,5,2.724,5,3S4.776,3.5,4.5,3.5S4,3.276,4,3S4.224,2.5,4.5,2.5z M2.5,2.5C2.776,2.5,3,2.724,3,3S2.776,3.5,2.5,3.5
		S2,3.276,2,3S2.224,2.5,2.5,2.5z M23,21c0,0.827-0.673,1.5-1.5,1.5h-19C1.673,22.5,1,21.827,1,21V5.5h22V21z"/>
</g>
</svg>
