<?xml version="1.0" encoding="iso-8859-1"?>
<!-- Generator: Adobe Illustrator 19.0.0, SVG Export Plug-In . SVG Version: 6.00 Build 0)  -->
<svg version="1.1" id="Layer_1" xmlns="http://www.w3.org/2000/svg" xmlns:xlink="http://www.w3.org/1999/xlink" x="0px" y="0px"
	 viewBox="0 0 30 30" style="enable-background:new 0 0 30 30;" xml:space="preserve">
<g>
	<path d="M25.21,9.473l-4.698-4.697L19.366,3.63c-0.195-0.195-0.512-0.195-0.707,0l-8.5,8.5c-0.195,0.195-0.195,0.512,0,0.707
		c0.098,0.098,0.226,0.146,0.354,0.146s0.256-0.049,0.354-0.146l8.146-8.146l0.793,0.793L3.16,22.13
		c-0.195,0.195-0.195,0.512,0,0.707l0.146,0.146l-0.001,0.001l3.689,3.725l0.018-0.018l0.145,0.145
		c0.001,0.001,0.001,0.001,0.002,0.002c0.098,0.098,0.226,0.146,0.354,0.146c0.007,0.001,0.015,0,0.02,0
		c0.213,0,0.396-0.133,0.467-0.32c0.833-0.96,7.872-7.935,13.566-13.576c1.021-1.011,1.998-1.98,2.935-2.909l0.659,0.659
		c0.195,0.195,0.512,0.195,0.707,0s0.195-0.512,0-0.707L25.21,9.473z"/>
	<path d="M1.159,25.129c-0.195,0.195-0.195,0.512,0,0.707l1.146,1.146l-2.146,2.146c-0.195,0.195-0.195,0.512,0,0.707
		c0.098,0.098,0.226,0.146,0.354,0.146s0.256-0.049,0.354-0.146l2.146-2.146l1.146,1.146c0.098,0.098,0.226,0.146,0.354,0.146
		s0.256-0.049,0.354-0.146l1.44-1.44l-3.708-3.706L1.159,25.129z"/>
	<path d="M28.837,0.905c-1.239-1.263-3.216-1.164-4.679,0.224l-2.939,2.939l4.7,4.7c1.133-1.125,2.144-2.13,2.946-2.933
		c0.766-0.765,1.163-1.714,1.119-2.672C29.945,2.289,29.527,1.478,28.837,0.905z"/>
</g>
</svg>
