<?xml version="1.0" encoding="iso-8859-1"?>
<!-- Generator: Adobe Illustrator 19.0.0, SVG Export Plug-In . SVG Version: 6.00 Build 0)  -->
<svg version="1.1" id="Layer_1" xmlns="http://www.w3.org/2000/svg" xmlns:xlink="http://www.w3.org/1999/xlink" x="0px" y="0px"
	 viewBox="0 0 30 30" style="enable-background:new 0 0 30 30;" xml:space="preserve">
<g>
	<path d="M15.505,4.473C15.437,4.377,14.742,4,13.5,4s-1.938,0.377-2.005,0.527C11.562,4.623,12.258,5,13.5,5
		S15.437,4.623,15.505,4.473z"/>
	<path d="M26.35,6.595c-0.497-0.271-1.142-0.396-1.85-0.415V4.5c0-2.692-5.688-4.5-11-4.5c-5.313,0-11,1.808-11,4.5v18
		c0,2.568,6.578,3.5,11,3.5c2.177,0,4.259-0.233,6-0.634V10.5c0-0.823,0.67-1.497,1.494-1.5c2.478-0.011,4.333-0.53,4.593-0.793
		c0.135-0.24,0.429-0.311,0.67-0.174c0.24,0.136,0.315,0.457,0.179,0.697c-0.486,0.862-3.473,1.262-5.437,1.271
		c-0.274,0.001-0.498,0.226-0.498,0.5v14.621v4.379c0,0.133,0.053,0.26,0.147,0.354C20.741,29.948,20.868,30,21,30
		c0.001,0,0.001,0,0.002,0c1.085-0.004,6.498-0.142,6.498-2.5v-19C27.5,7.675,27.092,6.998,26.35,6.595z M13.5,3
		c1.445,0,3,0.469,3,1.5S14.945,6,13.5,6s-3-0.469-3-1.5S12.055,3,13.5,3z M21.19,6.962C20.068,7.424,17.074,8.5,13.5,8.5
		S6.932,7.425,5.81,6.962C5.554,6.857,5.433,6.565,5.538,6.309C5.642,6.054,5.935,5.934,6.19,6.037
		c1.066,0.44,3.914,1.462,7.31,1.462c3.395,0,6.243-1.022,7.31-1.462c0.258-0.102,0.549,0.017,0.652,0.272
		C21.567,6.565,21.446,6.857,21.19,6.962z"/>
</g>
</svg>
