<?xml version="1.0" encoding="iso-8859-1"?>
<!-- Generator: Adobe Illustrator 19.0.0, SVG Export Plug-In . SVG Version: 6.00 Build 0)  -->
<svg version="1.1" id="Layer_1" xmlns="http://www.w3.org/2000/svg" xmlns:xlink="http://www.w3.org/1999/xlink" x="0px" y="0px"
	 viewBox="0 0 30 30" style="enable-background:new 0 0 30 30;" xml:space="preserve">
<g>
	<path d="M29.853,8.149l-8-8c-0.195-0.195-0.512-0.195-0.707,0L15.5,5.795l-0.646-0.646c-0.195-0.194-0.508-0.194-0.704-0.004
		L1.914,17.131C0.68,18.365,0,20.006,0,21.752s0.68,3.387,1.916,4.623l1.73,1.713c1.274,1.273,2.947,1.91,4.62,1.91
		c1.675,0,3.35-0.638,4.626-1.913l11.965-12.232c0.191-0.196,0.19-0.51-0.004-0.703l-0.647-0.647l5.647-5.647
		C30.048,8.661,30.048,8.344,29.853,8.149z M12.181,27.382c-2.158,2.158-5.67,2.158-7.83-0.002l-1.73-1.713
		C1.576,24.622,1,23.231,1,21.753s0.576-2.869,1.618-3.91L14.497,6.206l0.647,0.647c0.001,0.001,0.001,0.002,0.002,0.003
		l7.998,7.998c0.001,0.001,0.001,0.002,0.002,0.003l0.65,0.65L12.181,27.382z M23.5,13.795l-7.293-7.293L21.5,1.209l7.293,7.293
		L23.5,13.795z"/>
	<path d="M13.646,21.856c0.277,0,0.5-0.224,0.5-0.5s-0.224-0.5-0.5-0.5c-2.481,0-4.5-2.019-4.5-4.5c0-0.276-0.224-0.5-0.5-0.5
		s-0.5,0.224-0.5,0.5C8.146,19.388,10.613,21.856,13.646,21.856z"/>
	<path d="M14,23.002c-3.86,0-7-3.141-7-7c0-0.276-0.224-0.5-0.5-0.5S6,15.726,6,16.002c0,4.411,3.589,8,8,8
		c0.276,0,0.5-0.224,0.5-0.5S14.276,23.002,14,23.002z"/>
	<path d="M13.646,19.856c0.277,0,0.5-0.224,0.5-0.5s-0.224-0.5-0.5-0.5c-1.378,0-2.5-1.121-2.5-2.5c0-0.276-0.224-0.5-0.5-0.5
		s-0.5,0.224-0.5,0.5C10.146,18.286,11.716,19.856,13.646,19.856z"/>
	<path d="M23.146,7.856l1,1c0.098,0.097,0.226,0.146,0.354,0.146s0.256-0.049,0.353-0.146l1-1c0.195-0.195,0.195-0.512,0-0.707l-1-1
		c-0.195-0.195-0.512-0.195-0.707,0l-1,1C22.951,7.344,22.951,7.661,23.146,7.856z M24.5,7.209l0.293,0.293L24.5,7.795l-0.293-0.293
		L24.5,7.209z"/>
	<path d="M21.146,5.856l1,1c0.098,0.097,0.226,0.146,0.354,0.146s0.256-0.049,0.353-0.146l1-1c0.195-0.195,0.195-0.512,0-0.707l-1-1
		c-0.195-0.195-0.512-0.195-0.707,0l-1,1C20.951,5.344,20.951,5.661,21.146,5.856z M22.5,5.209l0.293,0.293L22.5,5.795l-0.293-0.293
		L22.5,5.209z"/>
</g>
</svg>
