<?xml version="1.0" encoding="iso-8859-1"?>
<!-- Generator: Adobe Illustrator 19.0.0, SVG Export Plug-In . SVG Version: 6.00 Build 0)  -->
<svg version="1.1" id="Layer_1" xmlns="http://www.w3.org/2000/svg" xmlns:xlink="http://www.w3.org/1999/xlink" x="0px" y="0px"
	 viewBox="0 0 30 30" style="enable-background:new 0 0 30 30;" xml:space="preserve">
<g>
	<path d="M21,15v2.5c0,0.276,0.224,0.5,0.5,0.5h4c0.276,0,0.5-0.224,0.5-0.5v-3.75C26,9.965,23.145,7,19.5,7
		C19.224,7,19,7.224,19,7.5v5.12c0,0.223,0.147,0.419,0.362,0.48C20.176,13.335,21,14.063,21,15z"/>
	<path d="M7.5,7h-4C3.224,7,3,7.224,3,7.5v5C3,12.776,3.224,13,3.5,13h4C7.776,13,8,12.776,8,12.5v-5C8,7.224,7.776,7,7.5,7z"/>
	<path d="M17,3c0.994,0,2-0.515,2-1.5C19,0.589,18.313,0,17.25,0c-0.518,0-2.413,0.149-3.75,0.483C12.163,0.148,10.268,0,9.75,0
		C8.687,0,8,0.589,8,1.5C8,2.467,8.533,3,9.5,3c0.453,0,2.167-0.115,3.5-0.375V5h-1.5C10.122,5,9,6.122,9,7.5v6
		c0,1.378,1.122,2.5,2.5,2.5h4c1.378,0,2.5-1.122,2.5-2.5v-6C18,6.122,16.878,5,15.5,5H14V2.632C15.239,2.891,16.575,3,17,3z
		 M13.629,1.517C13.587,1.506,13.544,1.5,13.5,1.5s-0.087,0.006-0.129,0.017C12.125,1.85,9.98,2,9.5,2C9.084,2,9,1.916,9,1.5
		C9,1.169,9.252,1,9.75,1c0.436,0,2.356,0.145,3.621,0.483c0.084,0.023,0.174,0.023,0.258,0C14.894,1.146,16.814,1,17.25,1
		C17.748,1,18,1.169,18,1.5C18,1.841,17.403,2,17,2C16.57,2,14.882,1.852,13.629,1.517z"/>
	<path d="M23.872,21.166c-0.189-0.211-0.555-0.211-0.744,0C22.808,21.523,20,24.704,20,26.5c0,1.93,1.57,3.5,3.5,3.5
		s3.5-1.57,3.5-3.5C27,24.704,24.192,21.523,23.872,21.166z"/>
</g>
</svg>
