<?xml version="1.0" encoding="iso-8859-1"?>
<!-- Generator: Adobe Illustrator 19.0.0, SVG Export Plug-In . SVG Version: 6.00 Build 0)  -->
<svg version="1.1" id="Layer_1" xmlns="http://www.w3.org/2000/svg" xmlns:xlink="http://www.w3.org/1999/xlink" x="0px" y="0px"
	 viewBox="0 0 24 24" style="enable-background:new 0 0 24 24;" xml:space="preserve">
<g>
	<path d="M16,6h-1.55C14.217,4.86,13.208,4,12,4h-0.5V2.656C12.526,2.869,13.684,3,14,3c0.827,0,1.5-0.673,1.5-1.5S14.827,0,14,0
		c-0.369,0-1.885,0.177-3,0.457C9.885,0.177,8.369,0,8,0C7.173,0,6.5,0.673,6.5,1.5S7.173,3,8,3c0.316,0,1.474-0.131,2.5-0.344V4H10
		C8.792,4,7.783,4.86,7.55,6H3C2.724,6,2.5,6.224,2.5,6.5v4C2.5,10.776,2.724,11,3,11h4.55c0.232,1.14,1.242,2,2.45,2h2
		c1.208,0,2.217-0.86,2.45-2H15c0.827,0,1.5,0.673,1.5,1.5v2c0,0.276,0.224,0.5,0.5,0.5h4c0.276,0,0.5-0.224,0.5-0.5v-3
		C21.5,8.468,19.032,6,16,6z M7.5,1.5C7.5,1.225,7.725,1,8,1c0.299,0,1.833,0.18,2.871,0.457c0.084,0.021,0.174,0.021,0.258,0
		C12.167,1.18,13.701,1,14,1c0.275,0,0.5,0.225,0.5,0.5S14.275,2,14,2c-0.299,0-1.833-0.18-2.871-0.457
		C11.087,1.532,11.043,1.526,11,1.526s-0.087,0.006-0.129,0.017C9.833,1.82,8.299,2,8,2C7.725,2,7.5,1.775,7.5,1.5z M3.5,7h4v3h-4V7
		z M12,12h-2c-0.827,0-1.5-0.673-1.5-1.5v-4C8.5,5.673,9.173,5,10,5h2c0.827,0,1.5,0.673,1.5,1.5v4C13.5,11.327,12.827,12,12,12z
		 M20.5,14h-3v-1.5c0-1.379-1.121-2.5-2.5-2.5h-0.5V7H16c2.481,0,4.5,2.019,4.5,4.5V14z"/>
	<path d="M18.589,17.216C18.24,17.721,16.5,20.301,16.5,21.5c0,1.379,1.121,2.5,2.5,2.5s2.5-1.121,2.5-2.5
		c0-1.199-1.74-3.779-2.089-4.284C19.226,16.946,18.775,16.946,18.589,17.216z M19,23c-0.827,0-1.5-0.673-1.5-1.5
		c0-0.546,0.78-1.972,1.5-3.096c0.72,1.124,1.5,2.549,1.5,3.096C20.5,22.327,19.827,23,19,23z"/>
</g>
</svg>
