<?xml version="1.0" encoding="iso-8859-1"?>
<!-- Generator: Adobe Illustrator 19.0.0, SVG Export Plug-In . SVG Version: 6.00 Build 0)  -->
<svg version="1.1" id="Layer_1" xmlns="http://www.w3.org/2000/svg" xmlns:xlink="http://www.w3.org/1999/xlink" x="0px" y="0px"
	 viewBox="0 0 30 30" style="enable-background:new 0 0 30 30;" xml:space="preserve">
<g>
	<path d="M21,15v2.5c0,0.276,0.224,0.5,0.5,0.5h4c0.276,0,0.5-0.224,0.5-0.5v-3.75C26,9.965,23.145,7,19.5,7h-1.55
		c-0.232-1.14-1.242-2-2.45-2H14V2.632C15.24,2.891,16.576,3,17,3c0.994,0,2-0.516,2-1.5C19,0.589,18.313,0,17.25,0
		c-0.518,0-2.412,0.149-3.75,0.483C12.162,0.149,10.268,0,9.75,0C8.687,0,8,0.589,8,1.5C8,2.468,8.532,3,9.5,3
		c0.453,0,2.166-0.114,3.5-0.375V5h-1.5c-1.208,0-2.217,0.86-2.45,2H3.5C3.224,7,3,7.224,3,7.5v5C3,12.776,3.224,13,3.5,13H9v0.5
		c0,1.379,1.121,2.5,2.5,2.5h4c1.379,0,2.5-1.121,2.5-2.5V13h0.75C19.812,13,21,13.855,21,15z M9,1.5C9,1.168,9.252,1,9.75,1
		c0.436,0,2.354,0.145,3.621,0.483c0.084,0.021,0.174,0.021,0.258,0C14.896,1.146,16.813,1,17.25,1C17.748,1,18,1.168,18,1.5
		C18,1.841,17.403,2,17,2c-0.43,0-2.117-0.148-3.371-0.483C13.587,1.506,13.543,1.5,13.5,1.5s-0.087,0.006-0.129,0.017
		C12.124,1.85,9.979,2,9.5,2C9.084,2,9,1.916,9,1.5z M4,12V8h5v4H4z M17,13.5c0,0.827-0.673,1.5-1.5,1.5h-4
		c-0.827,0-1.5-0.673-1.5-1.5v-1v-5C10,6.673,10.673,6,11.5,6h4C16.327,6,17,6.673,17,7.5v5V13.5z M18,8h1.5
		c3.084,0,5.5,2.525,5.5,5.75V17h-3v-2c0-1.598-1.519-3-3.25-3H18V8z"/>
	<path d="M23.872,21.166c-0.189-0.211-0.555-0.211-0.744,0C22.808,21.522,20,24.703,20,26.5c0,1.93,1.57,3.5,3.5,3.5
		s3.5-1.57,3.5-3.5C27,24.703,24.192,21.522,23.872,21.166z M23.5,29c-1.379,0-2.5-1.121-2.5-2.5c0-0.953,1.408-2.942,2.5-4.237
		c1.092,1.295,2.5,3.282,2.5,4.237C26,27.879,24.879,29,23.5,29z"/>
</g>
</svg>
