<?xml version="1.0" encoding="iso-8859-1"?>
<!-- Generator: Adobe Illustrator 19.0.0, SVG Export Plug-In . SVG Version: 6.00 Build 0)  -->
<svg version="1.1" id="Layer_1" xmlns="http://www.w3.org/2000/svg" xmlns:xlink="http://www.w3.org/1999/xlink" x="0px" y="0px"
	 viewBox="0 0 30 30" style="enable-background:new 0 0 30 30;" xml:space="preserve">
<g>
	<path d="M24.5,16.001h-2c-0.276,0-0.5,0.224-0.5,0.5s0.224,0.5,0.5,0.5h2c1.799,0,3.5,1.701,3.5,3.5v4.281
		c-0.532-0.48-1.229-0.781-2-0.781c-1.654,0-3,1.346-3,3s1.346,3,3,3s3-1.346,3-3v-6.5C29,18.146,26.855,16.001,24.5,16.001z
		 M26,29.001c-1.103,0-2-0.897-2-2s0.897-2,2-2s2,0.897,2,2C28,28.103,27.103,29.001,26,29.001z"/>
	<path d="M9.016,16.621C9.072,16.849,9.276,17,9.5,17c0.04,0,0.081-0.005,0.122-0.015c0.268-0.067,0.431-0.338,0.364-0.606l-1-4
		c-0.067-0.268-0.341-0.43-0.606-0.364c-0.268,0.067-0.431,0.338-0.364,0.606L9.016,16.621z"/>
	<path d="M13,16.501c0,0.276,0.224,0.5,0.5,0.5h4c0.276,0,0.5-0.224,0.5-0.5s-0.224-0.5-0.5-0.5h-4
		C13.224,16.001,13,16.225,13,16.501z"/>
	<path d="M2,2.001c0.552,0,1-0.448,1-1C3,1,3,1,3,0.999h0.5c1.512,0,3.238,0.966,3.504,2.563l0.5,4C7.535,7.813,7.748,8.001,8,8.001
		h11.5c1.122,0,2.735,0.943,3.646,1.854l1,1c0.098,0.097,0.226,0.146,0.354,0.146s0.256-0.049,0.354-0.148
		c0.195-0.195,0.195-0.512,0-0.707l-1-1C22.787,8.08,20.949,7,19.5,7H8.441L7.993,3.418C7.668,1.47,5.737-0.001,3.5-0.001H2
		c-0.07,0-0.136,0.015-0.197,0.041C1.349,0.134,1,0.518,1,1.001C1,1.553,1.448,2.001,2,2.001z"/>
	<path d="M11,10.001c-5.514,0-10,4.486-10,10s4.486,10,10,10s10-4.486,10-10C21,14.486,16.514,10.001,11,10.001z M11,29.001
		c-4.962,0-9-4.037-9-9s4.038-9,9-9s9,4.037,9,9S15.962,29.001,11,29.001z"/>
	<path d="M11,17.001c-1.654,0-3,1.346-3,3s1.346,3,3,3s3-1.346,3-3S12.654,17.001,11,17.001z M11,22.001c-1.103,0-2-0.897-2-2
		s0.897-2,2-2s2,0.897,2,2C13,21.103,12.103,22.001,11,22.001z"/>
</g>
</svg>
