<?xml version="1.0" encoding="iso-8859-1"?>
<!-- Generator: Adobe Illustrator 19.0.0, SVG Export Plug-In . SVG Version: 6.00 Build 0)  -->
<svg version="1.1" id="Layer_1" xmlns="http://www.w3.org/2000/svg" xmlns:xlink="http://www.w3.org/1999/xlink" x="0px" y="0px"
	 viewBox="0 0 30 30" style="enable-background:new 0 0 30 30;" xml:space="preserve">
<g>
	<path d="M26.775,8.528C26.73,8.515,26.686,8.5,26.637,8.5H26.5H5.363H3.5C2.121,8.5,1,9.622,1,11v7c0,1.378,1.121,2.5,2.5,2.5h23
		c1.379,0,2.5-1.122,2.5-2.5v-7C29.001,9.716,28.024,8.667,26.775,8.528z M9.992,12.099l-1.001,4.999
		c-0.042,0.209-0.212,0.369-0.424,0.397c-0.022,0.003-0.045,0.004-0.066,0.004c-0.188,0-0.361-0.105-0.447-0.276l-1.053-2.105
		l-1.053,2.106c-0.097,0.19-0.297,0.3-0.514,0.272c-0.212-0.028-0.382-0.188-0.424-0.397l-1-5c-0.055-0.271,0.121-0.534,0.393-0.588
		c0.26-0.054,0.533,0.12,0.588,0.392l0.714,3.571l0.849-1.697c0.17-0.339,0.725-0.339,0.895,0l0.849,1.697l0.714-3.571
		c0.055-0.272,0.33-0.446,0.588-0.392C9.871,11.565,10.047,11.828,9.992,12.099z M17.992,12.099l-1.001,4.999
		c-0.042,0.209-0.212,0.369-0.424,0.397c-0.022,0.003-0.045,0.004-0.066,0.004c-0.188,0-0.361-0.105-0.447-0.276l-1.053-2.105
		l-1.053,2.106c-0.096,0.19-0.299,0.3-0.514,0.272c-0.212-0.028-0.382-0.188-0.424-0.397l-1-5c-0.055-0.271,0.121-0.534,0.393-0.588
		c0.258-0.054,0.533,0.12,0.588,0.392l0.714,3.571l0.849-1.697c0.17-0.339,0.725-0.339,0.895,0l0.849,1.697l0.714-3.571
		c0.055-0.272,0.328-0.446,0.588-0.392C17.871,11.565,18.047,11.828,17.992,12.099z M24.991,17.098
		c-0.042,0.209-0.212,0.369-0.424,0.397c-0.023,0.003-0.045,0.004-0.066,0.004c-0.188,0-0.361-0.105-0.447-0.276l-1.053-2.105
		l-1.053,2.106c-0.096,0.19-0.295,0.3-0.514,0.272c-0.212-0.028-0.382-0.188-0.424-0.397l-1-5c-0.055-0.271,0.121-0.534,0.393-0.588
		c0.26-0.054,0.533,0.12,0.588,0.392l0.714,3.571l0.849-1.697c0.17-0.339,0.725-0.339,0.895,0l0.849,1.697l0.714-3.571
		c0.055-0.272,0.33-0.446,0.588-0.392c0.271,0.054,0.447,0.317,0.393,0.588L24.991,17.098z"/>
	<path d="M15.501,7.5V3.555c-1.427,0.284-2.712,1.767-3.624,3.945H15.501z"/>
	<path d="M16.501,3.555V7.5h3.624C19.213,5.322,17.928,3.839,16.501,3.555z"/>
	<path d="M23.535,7.501L23.535,7.501C23.74,7.5,23.925,7.375,24,7.185c0.075-0.191,0.027-0.408-0.122-0.548
		c-1.385-1.305-3.042-2.224-4.83-2.718c0.864,0.864,1.604,2.092,2.178,3.582C21.226,7.501,23.535,7.501,23.535,7.501z"/>
	<path d="M8.467,7.5h2.31c0.574-1.489,1.314-2.718,2.178-3.582c-1.788,0.493-3.445,1.413-4.83,2.718
		c-0.149,0.14-0.197,0.357-0.122,0.548C8.077,7.375,8.262,7.5,8.467,7.5z"/>
	<path d="M15.501,26.445V21.5h-4.002C12.411,24.221,13.865,26.12,15.501,26.445z"/>
	<path d="M16.501,21.5v4.945c1.636-0.326,3.089-2.225,4.002-4.945H16.501z"/>
	<path d="M24.486,21.5h-2.914c-0.603,1.937-1.467,3.52-2.513,4.571c2.252-0.62,4.285-1.904,5.812-3.752
		c0.123-0.149,0.149-0.357,0.066-0.531C24.856,21.612,24.68,21.5,24.486,21.5z"/>
	<path d="M7.516,21.499L7.516,21.499c-0.193,0.001-0.37,0.113-0.452,0.288c-0.083,0.175-0.057,0.382,0.066,0.531
		c1.527,1.848,3.56,3.132,5.812,3.752c-1.045-1.05-1.91-2.634-2.513-4.571H7.516z"/>
</g>
</svg>
