<?xml version="1.0" encoding="iso-8859-1"?>
<!-- Generator: Adobe Illustrator 19.0.0, SVG Export Plug-In . SVG Version: 6.00 Build 0)  -->
<svg version="1.1" id="Layer_1" xmlns="http://www.w3.org/2000/svg" xmlns:xlink="http://www.w3.org/1999/xlink" x="0px" y="0px"
	 viewBox="0 0 30 30" style="enable-background:new 0 0 30 30;" xml:space="preserve">
<g>
	<path d="M9.596,11.51c-0.275-0.056-0.534,0.121-0.588,0.392l-0.714,3.571l-0.848-1.697c-0.17-0.339-0.725-0.339-0.895,0
		l-0.848,1.697l-0.714-3.571c-0.053-0.27-0.315-0.447-0.588-0.392c-0.27,0.054-0.446,0.317-0.392,0.588l1,5
		c0.042,0.209,0.212,0.369,0.424,0.397c0.215,0.031,0.419-0.081,0.514-0.272L7,15.118l1.053,2.106C8.138,17.395,8.312,17.5,8.5,17.5
		c0.022,0,0.044-0.001,0.064-0.005c0.212-0.028,0.382-0.188,0.424-0.397l1-5C10.042,11.827,9.867,11.564,9.596,11.51z"/>
	<path d="M17.596,11.51c-0.274-0.056-0.534,0.121-0.588,0.392l-0.714,3.571l-0.848-1.697c-0.17-0.339-0.725-0.339-0.895,0
		l-0.848,1.697l-0.714-3.571c-0.053-0.27-0.314-0.447-0.588-0.392c-0.27,0.054-0.446,0.317-0.392,0.588l1,5
		c0.042,0.209,0.212,0.369,0.424,0.397c0.217,0.031,0.419-0.081,0.514-0.272L15,15.118l1.053,2.106
		c0.085,0.171,0.259,0.276,0.447,0.276c0.022,0,0.044-0.001,0.064-0.005c0.212-0.028,0.382-0.188,0.424-0.397l1-5
		C18.042,11.827,17.867,11.564,17.596,11.51z"/>
	<path d="M25.596,11.51c-0.273-0.056-0.534,0.121-0.588,0.392l-0.714,3.571l-0.848-1.697c-0.17-0.339-0.725-0.339-0.895,0
		l-0.848,1.697l-0.714-3.571c-0.054-0.27-0.313-0.447-0.588-0.392c-0.27,0.054-0.446,0.317-0.392,0.588l1,5
		c0.042,0.209,0.212,0.369,0.424,0.397c0.214,0.031,0.418-0.081,0.514-0.272L23,15.118l1.053,2.106
		c0.085,0.171,0.259,0.276,0.447,0.276c0.022,0,0.044-0.001,0.064-0.005c0.212-0.028,0.382-0.188,0.424-0.397l1-5
		C26.042,11.827,25.867,11.564,25.596,11.51z"/>
	<path d="M26.5,8.5h-1.538c-2.153-3.13-5.662-5-9.462-5s-7.31,1.87-9.463,5H3.5C2.122,8.5,1,9.622,1,11v7c0,1.378,1.122,2.5,2.5,2.5
		h1.929c1.944,3.555,5.548,5.792,9.574,5.966c0.165,0.022,0.33,0.034,0.498,0.034s0.333-0.013,0.498-0.034
		c4.026-0.173,7.63-2.41,9.574-5.966H26.5c1.378,0,2.5-1.122,2.5-2.5v-7C29,9.622,27.878,8.5,26.5,8.5z M23.739,8.5H20.86
		c-0.558-1.45-1.279-2.63-2.114-3.475C20.699,5.66,22.441,6.852,23.739,8.5z M11.204,8.5C12.149,6.235,13.521,4.82,15,4.555V8.5
		H11.204z M16,4.555c1.48,0.264,2.851,1.679,3.797,3.945H16V4.555z M12.254,5.025C11.419,5.87,10.697,7.05,10.139,8.5H7.261
		C8.56,6.852,10.301,5.661,12.254,5.025z M6.564,20.5H9.79c0.578,1.899,1.427,3.423,2.443,4.46
		C9.902,24.197,7.883,22.647,6.564,20.5z M16,25.436V20.5h4.166C19.251,23.284,17.684,25.125,16,25.436z M15,25.436
		c-1.684-0.311-3.251-2.151-4.166-4.936H15V25.436z M18.766,24.96c1.016-1.037,1.865-2.562,2.444-4.46h3.226
		C23.117,22.647,21.098,24.197,18.766,24.96z M28,18c0,0.827-0.673,1.5-1.5,1.5h-1.211H20.84H10.16H5.71H3.5
		C2.673,19.5,2,18.827,2,18v-7c0-0.827,0.673-1.5,1.5-1.5h2.787h4.188h10.05h4.188H26.5c0.827,0,1.5,0.673,1.5,1.5V18z"/>
</g>
</svg>
