<?xml version="1.0" encoding="utf-8"?>
<!-- Generator: Adobe Illustrator 17.0.0, SVG Export Plug-In . SVG Version: 6.00 Build 0)  -->
<!DOCTYPE svg PUBLIC "-//W3C//DTD SVG 1.1//EN" "http://www.w3.org/Graphics/SVG/1.1/DTD/svg11.dtd">
<svg version="1.1" id="Layer_1" xmlns="http://www.w3.org/2000/svg" xmlns:xlink="http://www.w3.org/1999/xlink" x="0px" y="0px"
	 width="56.693px" height="56.693px" viewBox="0 0 56.693 56.693" enable-background="new 0 0 56.693 56.693" xml:space="preserve">
<path fill="#474A56" d="M28.343,4.493C14.615,4.493,3.49,15.616,3.49,29.343c0,13.731,11.125,24.858,24.853,24.858
	c13.729,0,24.861-11.127,24.861-24.858C53.203,15.616,42.071,4.493,28.343,4.493z M39.491,32.258h-8.243v8.223
	c0,1.611-1.293,2.913-2.906,2.913c-1.605,0-2.906-1.302-2.906-2.913v-8.223H17.21c-1.611,0-2.905-1.306-2.905-2.909
	c0-1.611,1.294-2.907,2.905-2.907h8.227v-8.236c0-1.607,1.301-2.905,2.906-2.905c1.613,0,2.906,1.298,2.906,2.905v8.236h8.243
	c1.603,0,2.905,1.296,2.905,2.907C42.396,30.952,41.094,32.258,39.491,32.258z"/>
</svg>
