<?xml version="1.0" encoding="utf-8"?>
<!-- Generator: Adobe Illustrator 17.0.0, SVG Export Plug-In . SVG Version: 6.00 Build 0)  -->
<!DOCTYPE svg PUBLIC "-//W3C//DTD SVG 1.1//EN" "http://www.w3.org/Graphics/SVG/1.1/DTD/svg11.dtd">
<svg version="1.1" id="Layer_1" xmlns="http://www.w3.org/2000/svg" xmlns:xlink="http://www.w3.org/1999/xlink" x="0px" y="0px"
	 width="56.693px" height="56.693px" viewBox="0 0 56.693 56.693" enable-background="new 0 0 56.693 56.693" xml:space="preserve">
<path fill="#474A56" d="M52.721,18.779L39.229,5.294c-0.324-0.324-0.763-0.506-1.22-0.506H18.934c-0.457,0-0.896,0.182-1.22,0.506
	L4.228,18.78c-0.324,0.323-0.506,0.763-0.506,1.22v19.078c0,0.457,0.182,0.896,0.505,1.22l13.487,13.489
	c0.323,0.324,0.763,0.506,1.22,0.506h19.075c0.458,0,0.896-0.182,1.22-0.506l13.494-13.488c0.322-0.324,0.504-0.764,0.504-1.221
	V19.999C53.227,19.542,53.046,19.103,52.721,18.779z M39.719,36.833l-4.397,4.397c-0.12,0.12-0.278,0.18-0.436,0.18
	s-0.315-0.06-0.436-0.18l-6.026-6.025l-5.959,5.958c-0.241,0.24-0.631,0.24-0.872,0l-4.33-4.33c-0.241-0.24-0.241-0.631,0-0.871
	l5.958-5.959l-5.991-5.992c-0.241-0.241-0.241-0.631,0-0.872l4.395-4.397c0.232-0.231,0.641-0.231,0.872,0l5.993,5.993l5.992-5.993
	c0.231-0.231,0.641-0.231,0.871,0l4.331,4.331c0.115,0.115,0.181,0.272,0.181,0.436c0,0.163-0.065,0.32-0.181,0.436l-5.992,5.992
	l6.026,6.024c0.116,0.116,0.18,0.273,0.18,0.435C39.9,36.56,39.835,36.716,39.719,36.833z"/>
</svg>
