<?xml version="1.0" encoding="utf-8"?>
<!-- Generator: Adobe Illustrator 17.0.0, SVG Export Plug-In . SVG Version: 6.00 Build 0)  -->
<!DOCTYPE svg PUBLIC "-//W3C//DTD SVG 1.1//EN" "http://www.w3.org/Graphics/SVG/1.1/DTD/svg11.dtd">
<svg version="1.1" id="Layer_1" xmlns="http://www.w3.org/2000/svg" xmlns:xlink="http://www.w3.org/1999/xlink" x="0px" y="0px"
	 width="56.693px" height="56.693px" viewBox="0 0 56.693 56.693" enable-background="new 0 0 56.693 56.693" xml:space="preserve">
<g>
	<g>
		<path fill="#474A56" d="M26.699,12.985c0-0.193-0.028-0.38-0.075-0.561c-0.011-0.051-0.029-0.099-0.044-0.146
			c-0.048-0.139-0.107-0.275-0.177-0.401c-0.022-0.037-0.039-0.076-0.062-0.112c-0.089-0.139-0.19-0.273-0.306-0.39
			c-0.008-0.011-0.019-0.014-0.031-0.024c-0.16-0.152-0.342-0.288-0.546-0.393c-0.76-0.39-1.677-0.319-2.367,0.186L4.322,26.347
			c-0.591,0.431-0.938,1.116-0.938,1.842c0,0.732,0.348,1.415,0.938,1.841L23.09,45.239c0.425,0.309,0.928,0.434,1.434,0.411h0.001
			c0.152-0.007,0.302-0.021,0.449-0.06c0.169-0.033,0.33-0.087,0.485-0.168c0.762-0.382,1.243-1.171,1.243-2.025l-0.004-7.731
			l20.542-2.164c2.933,0,5.308-2.377,5.308-5.313c0-2.933-2.375-5.308-5.308-5.308l-20.538-2.165L26.699,12.985z"/>
	</g>
</g>
</svg>
