<?xml version="1.0" encoding="utf-8"?>
<!-- Generator: Adobe Illustrator 17.0.0, SVG Export Plug-In . SVG Version: 6.00 Build 0)  -->
<!DOCTYPE svg PUBLIC "-//W3C//DTD SVG 1.1//EN" "http://www.w3.org/Graphics/SVG/1.1/DTD/svg11.dtd">
<svg version="1.1" id="Layer_1" xmlns="http://www.w3.org/2000/svg" xmlns:xlink="http://www.w3.org/1999/xlink" x="0px" y="0px"
	 width="56.693px" height="56.693px" viewBox="0 0 56.693 56.693" enable-background="new 0 0 56.693 56.693" xml:space="preserve">
<g>
	<path fill="#474A56" d="M14.942,40.465c0,0.608,0.236,1.18,0.666,1.609c0.863,0.861,2.352,0.859,3.213,0l9.525-9.527l9.525,9.527
		c0.432,0.431,1.003,0.666,1.608,0.666c0.604,0,1.175-0.235,1.606-0.666c0.429-0.43,0.665-1,0.665-1.607s-0.236-1.178-0.665-1.605
		l-9.527-9.526l9.527-9.526c0.429-0.428,0.665-0.998,0.665-1.605s-0.236-1.178-0.665-1.607c-0.858-0.858-2.355-0.858-3.215,0
		l-9.525,9.525l-9.525-9.525c-0.858-0.857-2.352-0.859-3.213-0.001c-0.43,0.431-0.666,1.001-0.666,1.608s0.237,1.178,0.666,1.605
		l9.525,9.526l-9.525,9.526C15.179,39.29,14.943,39.86,14.942,40.465z"/>
	<path fill="#474A56" d="M48.82,4.173H7.874c-2.596,0-4.7,2.105-4.7,4.7V49.82c0,2.596,2.104,4.7,4.7,4.7H48.82
		c2.596,0,4.7-2.104,4.7-4.7V8.874C53.52,6.278,51.416,4.173,48.82,4.173z M48.82,49.82H7.874V8.874H48.82V49.82z"/>
</g>
</svg>
