<?xml version="1.0" encoding="utf-8"?>
<!-- Generator: Adobe Illustrator 17.0.0, SVG Export Plug-In . SVG Version: 6.00 Build 0)  -->
<!DOCTYPE svg PUBLIC "-//W3C//DTD SVG 1.1//EN" "http://www.w3.org/Graphics/SVG/1.1/DTD/svg11.dtd">
<svg version="1.1" id="Layer_1" xmlns="http://www.w3.org/2000/svg" xmlns:xlink="http://www.w3.org/1999/xlink" x="0px" y="0px"
	 width="56.693px" height="56.693px" viewBox="0 0 56.693 56.693" enable-background="new 0 0 56.693 56.693" xml:space="preserve">
<path fill="#474A56" d="M42.895,24.22c-0.312,0-0.623,0.013-0.932,0.038c-1.381-4.154-5.297-7.084-9.827-7.084
	c-0.413,0-1.116,0.033-1.802,0.111c-2.559-2.124-5.343-3.159-8.482-3.159c-6.826,0-12.381,4.869-13.566,11.722
	c-2.951,1.881-4.874,5.013-4.874,8.072c0,5.35,4.44,9.7,9.899,9.7h29.584c5.625,0,10.378-4.441,10.378-9.7
	C53.273,28.662,48.52,24.22,42.895,24.22z"/>
</svg>
