<?xml version="1.0" encoding="utf-8"?>
<!-- Generator: Adobe Illustrator 17.0.0, SVG Export Plug-In . SVG Version: 6.00 Build 0)  -->
<!DOCTYPE svg PUBLIC "-//W3C//DTD SVG 1.1//EN" "http://www.w3.org/Graphics/SVG/1.1/DTD/svg11.dtd">
<svg version="1.1" id="Layer_1" xmlns="http://www.w3.org/2000/svg" xmlns:xlink="http://www.w3.org/1999/xlink" x="0px" y="0px"
	 width="56.693px" height="56.693px" viewBox="0 0 56.693 56.693" enable-background="new 0 0 56.693 56.693" xml:space="preserve">
<path fill="#474A56" d="M39.911,6.841c-4.513,0-8.739,2.201-11.332,5.608c-2.592-3.407-6.815-5.608-11.327-5.608
	c-7.484,0-13.574,6.091-13.574,13.572c0,2.944,0.927,5.749,2.681,8.102c0.028,0.038,0.057,0.077,0.085,0.111l20.179,23.855
	c0.424,0.501,1.043,0.792,1.702,0.796c0.004,0,0.006,0,0.013,0c0.65,0,1.269-0.281,1.697-0.773l20.29-23.382
	c2.04-2.436,3.164-5.529,3.164-8.708C53.488,12.932,47.395,6.841,39.911,6.841z"/>
</svg>
