<?xml version="1.0" encoding="utf-8"?>
<!-- Generator: Adobe Illustrator 17.0.0, SVG Export Plug-In . SVG Version: 6.00 Build 0)  -->
<!DOCTYPE svg PUBLIC "-//W3C//DTD SVG 1.1//EN" "http://www.w3.org/Graphics/SVG/1.1/DTD/svg11.dtd">
<svg version="1.1" id="Layer_1" xmlns="http://www.w3.org/2000/svg" xmlns:xlink="http://www.w3.org/1999/xlink" x="0px" y="0px"
	 width="56.693px" height="56.693px" viewBox="0 0 56.693 56.693" enable-background="new 0 0 56.693 56.693" xml:space="preserve">
<g>
	<path fill="#474A56" d="M51.317,10.498H5.005c-0.955,0-1.73,0.773-1.73,1.729v33.126c0,0.954,0.774,1.729,1.73,1.729h46.312
		c0.954,0,1.728-0.775,1.728-1.729V12.228C53.045,11.272,52.271,10.498,51.317,10.498z M49.588,43.625H6.732v-29.67h42.856V43.625z"
		/>
	<circle fill="#474A56" cx="17.916" cy="23.714" r="4.069"/>
	<path fill="#474A56" d="M41.903,26.192l-3.25,4.512l-6.186-8.805l-7.639,11.838c0,0-12.732-3.107-14.829,5.77h36.398L41.903,26.192
		z"/>
</g>
</svg>
