<?xml version="1.0" encoding="utf-8"?>
<!-- Generator: Adobe Illustrator 17.0.0, SVG Export Plug-In . SVG Version: 6.00 Build 0)  -->
<!DOCTYPE svg PUBLIC "-//W3C//DTD SVG 1.1//EN" "http://www.w3.org/Graphics/SVG/1.1/DTD/svg11.dtd">
<svg version="1.1" id="Layer_1" xmlns="http://www.w3.org/2000/svg" xmlns:xlink="http://www.w3.org/1999/xlink" x="0px" y="0px"
	 width="56.693px" height="56.693px" viewBox="0 0 56.693 56.693" enable-background="new 0 0 56.693 56.693" xml:space="preserve">
<g>
	<path fill="#474A56" d="M52.46,18.207c-0.454-0.294-1.027-0.34-1.522-0.12L37.602,24c-0.577,0.256-0.951,0.83-0.951,1.462v6.584
		c0,0.632,0.374,1.205,0.951,1.462l13.336,5.913c0.208,0.093,0.429,0.138,0.648,0.138c0.306,0,0.61-0.087,0.874-0.259
		c0.453-0.295,0.727-0.8,0.727-1.342V19.55C53.187,19.008,52.913,18.503,52.46,18.207z"/>
	<path fill="#474A56" d="M31.727,17.149H5.507c-1.006,0-1.82,0.813-1.82,1.818v19.572c0,1.005,0.814,1.819,1.82,1.819h26.219
		c1.003,0,1.818-0.814,1.818-1.819V18.967C33.545,17.962,32.729,17.149,31.727,17.149z"/>
</g>
</svg>
