<?xml version="1.0" encoding="utf-8"?>
<!-- Generator: Adobe Illustrator 17.0.0, SVG Export Plug-In . SVG Version: 6.00 Build 0)  -->
<!DOCTYPE svg PUBLIC "-//W3C//DTD SVG 1.1//EN" "http://www.w3.org/Graphics/SVG/1.1/DTD/svg11.dtd">
<svg version="1.1" id="Layer_1" xmlns="http://www.w3.org/2000/svg" xmlns:xlink="http://www.w3.org/1999/xlink" x="0px" y="0px"
	 width="56.693px" height="56.693px" viewBox="0 0 56.693 56.693" enable-background="new 0 0 56.693 56.693" xml:space="preserve">
<g>
	<path fill="#474A56" d="M48.491,16.382H8.202c-2.662,0-4.818,2.157-4.818,4.818v14.031c0,2.662,2.156,4.819,4.818,4.819h40.289
		c2.661,0,4.819-2.157,4.819-4.819V21.201C53.31,18.539,51.152,16.382,48.491,16.382z M19.464,32.326
		c0,0.521-0.119,0.915-0.358,1.182c-0.237,0.267-0.547,0.398-0.929,0.398c-0.388,0.002-0.7-0.137-0.943-0.408
		c-0.241-0.273-0.359-0.664-0.361-1.172l0.002-4.333c-0.002-0.857-0.12-1.515-0.358-1.968c-0.238-0.453-0.713-0.68-1.425-0.68
		c-0.462,0-0.883,0.139-1.266,0.414c-0.382,0.276-0.659,0.655-0.836,1.139c-0.13,0.387-0.192,1.11-0.193,2.17l0.001,3.258
		c-0.001,0.527-0.123,0.924-0.366,1.186c-0.245,0.263-0.561,0.396-0.947,0.396c-0.378,0-0.683-0.138-0.925-0.409
		c-0.241-0.273-0.363-0.664-0.362-1.172v-7.514c0-0.496,0.108-0.865,0.324-1.11c0.216-0.245,0.511-0.368,0.886-0.366
		c0.227-0.002,0.435,0.054,0.619,0.162c0.184,0.107,0.333,0.27,0.442,0.484c0.111,0.217,0.167,0.479,0.167,0.791v0.314
		c0.456-0.603,0.958-1.045,1.498-1.328c0.544-0.282,1.169-0.424,1.873-0.424c0.687,0,1.298,0.149,1.838,0.447
		c0.541,0.298,0.942,0.721,1.211,1.267c0.171,0.317,0.282,0.661,0.332,1.028c0.051,0.368,0.077,0.838,0.077,1.41V32.326z
		 M24.583,30.821c0.231,0.451,0.54,0.79,0.926,1.019c0.382,0.229,0.805,0.344,1.27,0.344c0.311,0,0.595-0.037,0.853-0.109
		c0.257-0.074,0.506-0.188,0.747-0.344c0.241-0.156,0.464-0.322,0.666-0.5c0.204-0.176,0.468-0.418,0.792-0.725
		c0.134-0.113,0.323-0.17,0.573-0.17c0.265,0,0.481,0.072,0.645,0.219c0.166,0.146,0.248,0.354,0.248,0.619
		c0,0.234-0.092,0.511-0.276,0.824c-0.183,0.314-0.461,0.615-0.832,0.904c-0.372,0.29-0.839,0.528-1.401,0.719
		c-0.56,0.19-1.208,0.286-1.938,0.287c-1.669-0.001-2.97-0.477-3.895-1.43c-0.927-0.952-1.391-2.244-1.391-3.877
		c0-0.768,0.114-1.479,0.343-2.137c0.229-0.658,0.563-1.221,1-1.691c0.438-0.469,0.978-0.83,1.618-1.08
		c0.642-0.25,1.353-0.377,2.135-0.377c1.015,0,1.886,0.215,2.613,0.642c0.726,0.429,1.271,0.983,1.634,1.662
		c0.361,0.68,0.543,1.371,0.541,2.076c0.002,0.655-0.185,1.078-0.559,1.274c-0.377,0.191-0.903,0.288-1.583,0.289h-5.086
		C24.231,29.849,24.351,30.37,24.583,30.821z M47.159,25.63l-2.124,6.229c-0.184,0.527-0.327,0.909-0.429,1.143
		c-0.102,0.235-0.261,0.445-0.481,0.63c-0.218,0.183-0.518,0.274-0.897,0.274c-0.396,0.002-0.706-0.098-0.93-0.294
		c-0.225-0.196-0.394-0.438-0.5-0.724c-0.107-0.286-0.227-0.657-0.354-1.114l-1.484-5.067l-1.438,5.067
		c-0.189,0.704-0.397,1.236-0.619,1.595c-0.224,0.358-0.612,0.539-1.172,0.537c-0.285,0.001-0.529-0.055-0.729-0.166
		c-0.2-0.111-0.368-0.27-0.5-0.477c-0.133-0.206-0.252-0.449-0.352-0.732c-0.103-0.281-0.183-0.506-0.24-0.671l-2.103-6.229
		c-0.21-0.584-0.315-0.987-0.315-1.211c0-0.277,0.111-0.529,0.335-0.751c0.222-0.222,0.495-0.333,0.819-0.334
		c0.431,0,0.723,0.124,0.876,0.367c0.152,0.245,0.312,0.663,0.485,1.253l1.697,5.81l1.541-5.399
		c0.165-0.566,0.287-0.952,0.368-1.158c0.078-0.205,0.227-0.403,0.445-0.59c0.22-0.188,0.521-0.281,0.901-0.281
		c0.386-0.001,0.689,0.093,0.909,0.281c0.22,0.187,0.371,0.39,0.462,0.609c0.088,0.219,0.213,0.598,0.37,1.139l1.544,5.398
		l1.714-5.809c0.114-0.42,0.206-0.723,0.276-0.91c0.07-0.188,0.188-0.353,0.354-0.496c0.164-0.142,0.402-0.214,0.714-0.215
		c0.311,0,0.581,0.109,0.809,0.325c0.228,0.216,0.343,0.471,0.343,0.763C47.455,24.687,47.356,25.09,47.159,25.63z"/>
	<path fill="#474A56" d="M26.577,25.125c-0.644,0-1.178,0.226-1.594,0.672c-0.416,0.448-0.668,1.11-0.758,1.985l4.715,0.001
		c-0.063-0.89-0.303-1.555-0.72-1.995C27.804,25.347,27.256,25.125,26.577,25.125z"/>
</g>
</svg>
