<?xml version="1.0" encoding="utf-8"?>
<!-- Generator: Adobe Illustrator 17.0.0, SVG Export Plug-In . SVG Version: 6.00 Build 0)  -->
<!DOCTYPE svg PUBLIC "-//W3C//DTD SVG 1.1//EN" "http://www.w3.org/Graphics/SVG/1.1/DTD/svg11.dtd">
<svg version="1.1" id="Layer_1" xmlns="http://www.w3.org/2000/svg" xmlns:xlink="http://www.w3.org/1999/xlink" x="0px" y="0px"
	 width="56.693px" height="56.693px" viewBox="0 0 56.693 56.693" enable-background="new 0 0 56.693 56.693" xml:space="preserve">
<g>
	<path fill="#474A56" d="M22.426,17.94c-1.599,0-3.102,0.623-4.233,1.753c-1.13,1.131-1.752,2.634-1.752,4.234
		c0,1.599,0.622,3.102,1.752,4.233c1.131,1.13,2.635,1.753,4.234,1.753s3.103-0.623,4.233-1.753c1.13-1.131,1.753-2.634,1.753-4.233
		s-0.623-3.102-1.754-4.233C25.53,18.563,24.026,17.94,22.426,17.94z"/>
	<path fill="#474A56" d="M28.279,4.409C14.498,4.409,3.328,15.58,3.328,29.36c0,13.778,11.17,24.95,24.951,24.95
		c13.779,0,24.949-11.172,24.949-24.95C53.228,15.58,42.058,4.409,28.279,4.409z M42.566,42.494l-1.572,1.572
		c-0.238,0.238-0.551,0.357-0.862,0.357c-0.312,0-0.626-0.119-0.864-0.357l-8.87-8.872c-0.476-0.476-0.476-1.249,0-1.725
		l0.139-0.139l-1.966-1.966c-1.726,1.431-3.874,2.21-6.143,2.21c-2.577,0-5-1.004-6.822-2.825c-1.821-1.822-2.824-4.245-2.824-6.821
		c0-2.577,1.003-5,2.824-6.822c1.822-1.822,4.245-2.825,6.821-2.825c2.577,0,5,1.003,6.821,2.826
		c1.822,1.822,2.826,4.244,2.826,6.821c0,2.269-0.779,4.417-2.21,6.143l1.966,1.965l0.139-0.139c0.476-0.477,1.249-0.477,1.725,0
		l8.873,8.872C43.043,41.245,43.043,42.018,42.566,42.494z"/>
</g>
</svg>
