<?xml version="1.0" encoding="utf-8"?>
<!-- Generator: Adobe Illustrator 17.0.0, SVG Export Plug-In . SVG Version: 6.00 Build 0)  -->
<!DOCTYPE svg PUBLIC "-//W3C//DTD SVG 1.1//EN" "http://www.w3.org/Graphics/SVG/1.1/DTD/svg11.dtd">
<svg version="1.1" id="Layer_1" xmlns="http://www.w3.org/2000/svg" xmlns:xlink="http://www.w3.org/1999/xlink" x="0px" y="0px"
	 width="56.693px" height="56.693px" viewBox="0 0 56.693 56.693" enable-background="new 0 0 56.693 56.693" xml:space="preserve">
<g>
	<path fill="#474A56" d="M50.891,15.811l-2.857-0.753c-0.15-0.476-0.345-0.933-0.574-1.368l1.492-2.562
		c0.474-0.878,0.679-1.778,0-2.457c-0.679-0.68-1.634-0.463-2.458,0.001l-2.602,1.515c-0.418-0.215-0.856-0.399-1.312-0.538
		l-0.769-2.919c-0.288-0.956-0.779-1.736-1.738-1.736c-0.96,0-1.481,0.829-1.738,1.736l-0.785,2.981
		c-0.425,0.14-0.832,0.312-1.226,0.518l-2.673-1.558c-0.88-0.475-1.779-0.681-2.457,0c-0.679,0.677-0.461,1.631,0,2.457l1.581,2.714
		c-0.189,0.375-0.354,0.763-0.484,1.169l-3.038,0.799c-0.955,0.288-1.738,0.779-1.738,1.74c0,0.959,0.829,1.482,1.738,1.737
		l3.037,0.8c0.131,0.405,0.295,0.794,0.485,1.171l-1.581,2.71c-0.474,0.881-0.679,1.781,0,2.46c0.678,0.678,1.633,0.459,2.457,0
		l2.673-1.559c0.392,0.206,0.801,0.377,1.226,0.52l0.785,2.978c0.287,0.958,0.778,1.74,1.738,1.74c0.959,0,1.48-0.83,1.738-1.74
		l0.769-2.916c0.457-0.144,0.895-0.324,1.313-0.539l2.601,1.516c0.88,0.473,1.779,0.678,2.458,0c0.68-0.68,0.461-1.636,0-2.459
		l-1.492-2.56c0.23-0.437,0.426-0.893,0.575-1.37l2.857-0.754C51.846,19,52.63,18.511,52.63,17.55
		C52.63,16.591,51.8,16.069,50.891,15.811z M40.154,20.966c-1.887,0-3.416-1.529-3.416-3.414c0-1.886,1.529-3.418,3.416-3.418
		c1.886,0,3.416,1.532,3.416,3.418C43.57,19.437,42.04,20.966,40.154,20.966z"/>
	<path fill="#474A56" d="M34.779,35.795l-2.9-0.764c-0.086-0.408-0.196-0.808-0.324-1.201l2.131-2.113
		c0.687-0.727,1.118-1.543,0.637-2.374c-0.479-0.831-1.458-0.868-2.374-0.636l-2.905,0.792c-0.275-0.305-0.565-0.595-0.871-0.871
		l0.792-2.908c0.229-0.97,0.193-1.895-0.638-2.371c-0.832-0.481-1.696-0.024-2.374,0.635l-2.112,2.129
		c-0.393-0.127-0.793-0.236-1.202-0.321l-0.765-2.903c-0.287-0.954-0.778-1.736-1.737-1.736s-1.48,0.828-1.737,1.736l-0.765,2.903
		c-0.409,0.085-0.808,0.194-1.201,0.321l-2.113-2.129c-0.727-0.684-1.542-1.116-2.374-0.635c-0.832,0.477-0.868,1.457-0.637,2.371
		l0.793,2.907c-0.305,0.276-0.596,0.564-0.871,0.872l-2.906-0.792c-0.973-0.229-1.894-0.195-2.374,0.636
		c-0.482,0.831-0.023,1.697,0.636,2.374l2.129,2.113c-0.127,0.393-0.237,0.793-0.322,1.201l-2.9,0.764
		c-0.955,0.287-1.738,0.777-1.738,1.739c0,0.959,0.829,1.48,1.738,1.736l2.9,0.766c0.085,0.409,0.195,0.808,0.322,1.201L6.586,43.35
		c-0.687,0.727-1.117,1.544-0.636,2.375c0.479,0.833,1.457,0.868,2.374,0.634l2.906-0.789c0.275,0.304,0.567,0.595,0.87,0.87
		l-0.792,2.907c-0.228,0.972-0.195,1.895,0.637,2.375c0.832,0.48,1.697,0.023,2.373-0.636l2.114-2.131
		c0.393,0.127,0.792,0.237,1.201,0.323l0.765,2.9c0.287,0.957,0.778,1.738,1.737,1.738s1.481-0.83,1.737-1.738l0.765-2.9
		c0.409-0.086,0.811-0.195,1.202-0.324l2.112,2.13c0.728,0.688,1.543,1.118,2.375,0.638c0.831-0.48,0.867-1.459,0.637-2.375
		l-0.792-2.909c0.306-0.273,0.596-0.565,0.871-0.868l2.905,0.789c0.973,0.23,1.895,0.197,2.374-0.634
		c0.481-0.831,0.022-1.698-0.637-2.375l-2.131-2.113c0.128-0.393,0.238-0.792,0.324-1.201l2.9-0.766
		c0.957-0.286,1.737-0.777,1.737-1.736C36.516,36.572,35.689,36.053,34.779,35.795z M20.135,43.776
		c-3.448,0-6.243-2.795-6.243-6.243c0-3.448,2.795-6.243,6.243-6.243c3.448,0,6.243,2.795,6.243,6.243
		C26.379,40.981,23.584,43.776,20.135,43.776z"/>
	<circle fill="#474A56" cx="20.135" cy="37.533" r="2.497"/>
</g>
</svg>
