<?xml version="1.0" encoding="utf-8"?>
<!-- Generator: Adobe Illustrator 17.0.0, SVG Export Plug-In . SVG Version: 6.00 Build 0)  -->
<!DOCTYPE svg PUBLIC "-//W3C//DTD SVG 1.1//EN" "http://www.w3.org/Graphics/SVG/1.1/DTD/svg11.dtd">
<svg version="1.1" id="Layer_1" xmlns="http://www.w3.org/2000/svg" xmlns:xlink="http://www.w3.org/1999/xlink" x="0px" y="0px"
	 width="56.693px" height="56.693px" viewBox="0 0 56.693 56.693" enable-background="new 0 0 56.693 56.693" xml:space="preserve">
<path fill="#474A56" d="M53.305,23.931c-0.196-0.61-0.761-1.028-1.4-1.042l-16.694-0.338L29.73,6.955
	c-0.212-0.603-0.779-1.008-1.419-1.008c-0.639,0-1.209,0.404-1.42,1.008l-5.479,15.597L4.715,22.889
	c-0.64,0.014-1.204,0.432-1.4,1.042c-0.197,0.611,0.017,1.279,0.529,1.666l13.294,9.974l-4.83,15.793
	c-0.188,0.613,0.032,1.276,0.549,1.655c0.517,0.378,1.217,0.39,1.743,0.025l13.711-9.441l13.712,9.441
	c0.259,0.178,0.556,0.266,0.854,0.266c0.312,0,0.625-0.098,0.891-0.291c0.515-0.379,0.735-1.044,0.547-1.655l-4.833-15.793
	l13.295-9.974C53.29,25.21,53.504,24.542,53.305,23.931z"/>
</svg>
