<?xml version="1.0" encoding="utf-8"?>
<!-- Generator: Adobe Illustrator 17.0.0, SVG Export Plug-In . SVG Version: 6.00 Build 0)  -->
<!DOCTYPE svg PUBLIC "-//W3C//DTD SVG 1.1//EN" "http://www.w3.org/Graphics/SVG/1.1/DTD/svg11.dtd">
<svg version="1.1" id="Layer_1" xmlns="http://www.w3.org/2000/svg" xmlns:xlink="http://www.w3.org/1999/xlink" x="0px" y="0px"
	 width="56.693px" height="56.693px" viewBox="0 0 56.693 56.693" enable-background="new 0 0 56.693 56.693" xml:space="preserve">
<g>
	<path fill="#474A56" d="M28.333,20.134c-5.056,0-9.17,4.114-9.17,9.17s4.114,9.169,9.17,9.169c5.054,0,9.167-4.113,9.167-9.169
		S33.387,20.134,28.333,20.134z M28.333,34.556c-2.898,0-5.253-2.356-5.253-5.252c0-2.896,2.356-5.253,5.253-5.253
		c2.896,0,5.251,2.357,5.251,5.253C33.584,32.201,31.228,34.556,28.333,34.556z"/>
	<path fill="#474A56" d="M50.983,27.388h-8.902c-1.081,0-1.959,0.877-1.959,1.958c0,1.082,0.878,1.959,1.959,1.959h8.902
		c1.08,0,1.958-0.877,1.958-1.959C52.941,28.265,52.063,27.388,50.983,27.388z"/>
	<path fill="#474A56" d="M16.569,29.346c0-1.081-0.876-1.958-1.958-1.958H5.71c-1.08,0-1.958,0.877-1.958,1.958
		c0,1.082,0.878,1.959,1.958,1.959h8.901C15.693,31.305,16.569,30.428,16.569,29.346z"/>
	<path fill="#474A56" d="M28.346,17.571c1.08,0,1.958-0.877,1.958-1.958v-8.9c0-1.082-0.878-1.959-1.958-1.959
		c-1.082,0-1.958,0.877-1.958,1.959v8.9C26.388,16.694,27.264,17.571,28.346,17.571z"/>
	<path fill="#474A56" d="M28.346,41.122c-1.082,0-1.958,0.877-1.958,1.959v8.9c0,1.082,0.876,1.959,1.958,1.959
		c1.08,0,1.958-0.877,1.958-1.959v-8.9C30.304,41.999,29.426,41.122,28.346,41.122z"/>
	<path fill="#474A56" d="M38.348,21.303c0.501,0,1.002-0.191,1.384-0.574l6.294-6.292c0.765-0.766,0.765-2.005,0-2.769
		c-0.765-0.766-2.004-0.766-2.77,0l-6.293,6.293c-0.765,0.765-0.765,2.005,0,2.768C37.345,21.112,37.847,21.303,38.348,21.303z"/>
	<path fill="#474A56" d="M16.961,37.963l-6.294,6.293c-0.765,0.765-0.765,2.005,0,2.77c0.383,0.383,0.884,0.573,1.385,0.573
		c0.501,0,1.002-0.19,1.385-0.573l6.293-6.294c0.765-0.765,0.765-2.004,0-2.768C18.965,37.199,17.726,37.199,16.961,37.963z"/>
	<path fill="#474A56" d="M39.732,37.963c-0.765-0.765-2.004-0.765-2.769,0c-0.765,0.765-0.765,2.004,0,2.768l6.293,6.294
		c0.383,0.383,0.884,0.573,1.385,0.573c0.501,0,1.002-0.19,1.385-0.573c0.765-0.765,0.765-2.005,0-2.77L39.732,37.963z"/>
	<path fill="#474A56" d="M16.961,20.729c0.382,0.383,0.884,0.574,1.384,0.574c0.501,0,1.002-0.191,1.385-0.574
		c0.765-0.764,0.765-2.004,0-2.768l-6.293-6.293c-0.765-0.766-2.004-0.766-2.769,0c-0.765,0.765-0.765,2.004,0,2.769L16.961,20.729z
		"/>
</g>
</svg>
