<?xml version="1.0" encoding="utf-8"?>
<!-- Generator: Adobe Illustrator 17.0.0, SVG Export Plug-In . SVG Version: 6.00 Build 0)  -->
<!DOCTYPE svg PUBLIC "-//W3C//DTD SVG 1.1//EN" "http://www.w3.org/Graphics/SVG/1.1/DTD/svg11.dtd">
<svg version="1.1" id="Layer_1" xmlns="http://www.w3.org/2000/svg" xmlns:xlink="http://www.w3.org/1999/xlink" x="0px" y="0px"
	 width="56.693px" height="56.693px" viewBox="0 0 56.693 56.693" enable-background="new 0 0 56.693 56.693" xml:space="preserve">
<g>
	<path fill="#474A56" d="M20.141,22.404c0.086,0.015,0.174,0.02,0.26,0.02c0.52,0,0.994-0.242,1.121-0.599
		c0.37-1.08,0.559-2.184,0.564-3.287c-0.006-1.096-0.189-2.188-0.56-3.258c-0.148-0.417-0.765-0.674-1.38-0.576
		c-0.617,0.096-1.001,0.51-0.855,0.929h-0.005c0.334,0.95,0.496,1.927,0.495,2.905c0.004,0.984-0.171,1.971-0.504,2.938
		C19.128,21.891,19.519,22.305,20.141,22.404z"/>
	<path fill="#474A56" d="M29.809,29.36c0.159,0.049,0.323,0.072,0.483,0.072c0.434,0,0.849-0.166,1.049-0.445
		c2.31-3.305,3.475-6.873,3.475-10.441c0-3.567-1.164-7.133-3.476-10.44c-0.272-0.39-0.96-0.554-1.532-0.37
		c-0.573,0.179-0.818,0.641-0.549,1.027l-0.005,0.001c2.171,3.099,3.251,6.435,3.251,9.78c0.002,3.347-1.08,6.687-3.251,9.784
		C28.983,28.716,29.229,29.177,29.809,29.36z"/>
	<path fill="#474A56" d="M25.369,25.264c0.124,0.029,0.25,0.043,0.373,0.043c0.479,0,0.929-0.201,1.095-0.523
		c1.025-2.015,1.55-4.132,1.55-6.254c0.002-2.104-0.508-4.212-1.546-6.212c-0.21-0.402-0.866-0.615-1.461-0.475
		c-0.598,0.137-0.918,0.578-0.706,0.982c0.943,1.831,1.415,3.766,1.414,5.705c0,1.949-0.481,3.898-1.432,5.75
		C24.448,24.684,24.768,25.126,25.369,25.264z"/>
	<path fill="#474A56" d="M50.941,34.987H15.789v-19.67c0-0.242-0.197-0.439-0.439-0.439h-2.089c-0.242,0-0.439,0.197-0.439,0.439
		v19.67h-7.39c-1.182,0-2.144,0.962-2.144,2.144V47.34c0,1.184,0.963,2.144,2.144,2.144h45.509c1.184,0,2.144-0.961,2.144-2.144
		V37.131C53.085,35.949,52.124,34.987,50.941,34.987z M10.084,44.106c-0.988,0-1.789-0.801-1.789-1.789
		c0-0.987,0.801-1.788,1.789-1.788c0.988,0,1.788,0.801,1.788,1.788C11.873,43.305,11.072,44.106,10.084,44.106z M15.084,44.106
		c-0.988,0-1.789-0.801-1.789-1.789c0-0.987,0.801-1.788,1.789-1.788c0.988,0,1.789,0.801,1.789,1.788
		C16.873,43.305,16.072,44.106,15.084,44.106z M20.084,44.106c-0.988,0-1.789-0.801-1.789-1.789c0-0.987,0.801-1.788,1.789-1.788
		c0.988,0,1.788,0.801,1.788,1.788C21.873,43.305,21.072,44.106,20.084,44.106z"/>
</g>
</svg>
