<svg width="28.139648" height="24.536133" viewBox="0.000000 -47.607422 28.139648 24.536133" xmlns="http://www.w3.org/2000/svg"><path d="M0.000000 -35.332031L11.718750 -47.065430C12.099609 -47.426758 12.534180 -47.607422 13.022461 -47.607422C13.520508 -47.607422 13.950195 -47.426758 14.311523 -47.065430C14.672852 -46.704102 14.853516 -46.271973 14.853516 -45.769043C14.853516 -45.266113 14.672852 -44.829102 14.311523 -44.458008L7.016602 -37.177734L26.279297 -37.177734C26.796875 -37.177734 27.236328 -36.997070 27.597656 -36.635742C27.958984 -36.274414 28.139648 -35.839844 28.139648 -35.332031C28.139648 -34.824219 27.958984 -34.394531 27.597656 -34.042969C27.236328 -33.691406 26.796875 -33.515625 26.279297 -33.515625L7.016602 -33.515625L14.311523 -26.206055C14.672852 -25.844727 14.853516 -25.412598 14.853516 -24.909668C14.853516 -24.406738 14.672852 -23.974609 14.311523 -23.613281C13.950195 -23.251953 13.518066 -23.071289 13.015137 -23.071289C12.512207 -23.071289 12.080078 -23.251953 11.718750 -23.613281ZM0.000000 -35.332031"></path></svg>