<svg width="24.521484" height="28.125000" viewBox="0.000000 -51.987305 24.521484 28.125000" xmlns="http://www.w3.org/2000/svg"><path d="M0.000000 -38.957520C0.000000 -39.470215 0.180664 -39.907227 0.541992 -40.268555L12.260742 -51.987305L23.994141 -40.268555C24.345703 -39.907227 24.521484 -39.467773 24.521484 -38.950195C24.521484 -38.442383 24.345703 -38.012695 23.994141 -37.661133C23.632812 -37.299805 23.198242 -37.119141 22.690430 -37.119141C22.182617 -37.119141 21.752930 -37.299805 21.401367 -37.661133L14.091797 -44.956055L14.091797 -25.693359C14.091797 -25.185547 13.916016 -24.753418 13.564453 -24.396973C13.212891 -24.040527 12.778320 -23.862305 12.260742 -23.862305C11.752930 -23.862305 11.320801 -24.040527 10.964355 -24.396973C10.607910 -24.753418 10.429688 -25.185547 10.429688 -25.693359L10.429688 -44.956055L3.134766 -37.661133C2.773438 -37.299805 2.341309 -37.119141 1.838379 -37.119141C1.335449 -37.119141 0.903320 -37.299805 0.541992 -37.661133C0.180664 -38.012695 0.000000 -38.444824 0.000000 -38.957520ZM0.000000 -38.957520"></path></svg>