<svg width="30.234375" height="28.125000" viewBox="-0.153809 -52.895508 30.234375 28.125000" xmlns="http://www.w3.org/2000/svg"><path d="M0.095215 -41.425781C-0.153809 -42.050781 0.004883 -42.546387 0.571289 -42.912598C1.137695 -43.278809 2.050781 -43.461914 3.310547 -43.461914L10.561523 -43.461914L12.773438 -50.141602L12.773438 -50.170898C13.066406 -51.069336 13.403320 -51.748047 13.784180 -52.207031C14.165039 -52.666016 14.560547 -52.895508 14.970703 -52.895508C15.371094 -52.895508 15.761719 -52.666016 16.142578 -52.207031C16.523438 -51.748047 16.860352 -51.069336 17.153320 -50.170898L17.182617 -50.141602L19.365234 -43.461914L26.616211 -43.461914C27.875977 -43.461914 28.789062 -43.278809 29.355469 -42.912598C29.921875 -42.546387 30.080566 -42.050781 29.831543 -41.425781C29.582520 -40.800781 28.945312 -40.122070 27.919922 -39.389648L27.773438 -39.272461L22.075195 -35.200195L24.272461 -28.579102L24.301758 -28.476562C24.682617 -27.285156 24.792480 -26.374512 24.631348 -25.744629C24.470215 -25.114746 24.072266 -24.799805 23.437500 -24.799805C22.705078 -24.799805 21.831055 -25.175781 20.815430 -25.927734L20.639648 -26.030273L14.970703 -30.102539L9.213867 -25.986328L9.125977 -25.927734C8.081055 -25.156250 7.202148 -24.770508 6.489258 -24.770508C5.854492 -24.770508 5.456543 -25.090332 5.295410 -25.729980C5.134277 -26.369629 5.244141 -27.285156 5.625000 -28.476562L5.654297 -28.579102L7.851562 -35.200195L2.153320 -39.272461L2.094727 -39.345703L2.006836 -39.389648C0.981445 -40.122070 0.344238 -40.800781 0.095215 -41.425781ZM5.053711 -40.649414L11.147461 -36.298828L10.517578 -34.335938L8.803711 -29.150391L14.970703 -33.559570L21.123047 -29.150391L19.423828 -34.335938L18.779297 -36.298828L24.873047 -40.649414L17.343750 -40.649414L16.713867 -42.583008L14.970703 -47.841797L12.583008 -40.649414ZM5.053711 -40.649414"></path></svg>