<svg width="22.617188" height="22.631836" viewBox="0.000000 -44.663086 22.617188 22.631836" xmlns="http://www.w3.org/2000/svg"><path d="M0.000000 -30.791016C0.000000 -31.972656 0.229492 -33.100586 0.688477 -34.174805C1.147461 -35.249023 1.767578 -36.176758 2.548828 -36.958008C3.330078 -37.739258 4.257812 -38.359375 5.332031 -38.818359C6.406250 -39.277344 7.534180 -39.506836 8.715820 -39.506836C10.336914 -39.506836 11.845703 -39.086914 13.242188 -38.247070L16.333008 -41.352539L14.912109 -41.352539C14.453125 -41.352539 14.060059 -41.513672 13.732910 -41.835938C13.405762 -42.158203 13.242188 -42.548828 13.242188 -43.007812C13.242188 -43.466797 13.405762 -43.857422 13.732910 -44.179688C14.060059 -44.501953 14.453125 -44.663086 14.912109 -44.663086L20.961914 -44.663086C21.420898 -44.663086 21.811523 -44.501953 22.133789 -44.179688C22.456055 -43.857422 22.617188 -43.466797 22.617188 -43.007812L22.617188 -36.972656C22.617188 -36.513672 22.456055 -36.120605 22.133789 -35.793457C21.811523 -35.466309 21.420898 -35.302734 20.961914 -35.302734C20.502930 -35.302734 20.109863 -35.466309 19.782715 -35.793457C19.455566 -36.120605 19.291992 -36.513672 19.291992 -36.972656L19.291992 -38.408203L16.186523 -35.302734C17.036133 -33.916016 17.460938 -32.412109 17.460938 -30.791016C17.460938 -29.208984 17.070312 -27.746582 16.289062 -26.403809C15.507812 -25.061035 14.445801 -23.996582 13.103027 -23.210449C11.760254 -22.424316 10.297852 -22.031250 8.715820 -22.031250C7.143555 -22.031250 5.686035 -22.424316 4.343262 -23.210449C3.000488 -23.996582 1.940918 -25.061035 1.164551 -26.403809C0.388184 -27.746582 0.000000 -29.208984 0.000000 -30.791016ZM4.174805 -30.791016C4.174805 -29.541016 4.619141 -28.466797 5.507812 -27.568359C6.396484 -26.669922 7.465820 -26.220703 8.715820 -26.220703C9.975586 -26.220703 11.052246 -26.667480 11.945801 -27.561035C12.839355 -28.454590 13.286133 -29.531250 13.286133 -30.791016C13.286133 -32.050781 12.839355 -33.127441 11.945801 -34.020996C11.052246 -34.914551 9.975586 -35.361328 8.715820 -35.361328C7.465820 -35.361328 6.396484 -34.912109 5.507812 -34.013672C4.619141 -33.115234 4.174805 -32.041016 4.174805 -30.791016ZM4.174805 -30.791016"></path></svg>