<svg width="28.125000" height="28.125000" viewBox="0.000000 -52.895508 28.125000 28.125000" xmlns="http://www.w3.org/2000/svg"><path d="M0.000000 -38.833008C0.000000 -40.747070 0.371094 -42.570801 1.113281 -44.304199C1.855469 -46.037598 2.854004 -47.531738 4.108887 -48.786621C5.363770 -50.041504 6.857910 -51.040039 8.591309 -51.782227C10.324707 -52.524414 12.148438 -52.895508 14.062500 -52.895508C15.966797 -52.895508 17.788086 -52.524414 19.526367 -51.782227C21.264648 -51.040039 22.761230 -50.041504 24.016113 -48.786621C25.270996 -47.531738 26.269531 -46.037598 27.011719 -44.304199C27.753906 -42.570801 28.125000 -40.747070 28.125000 -38.833008C28.125000 -36.928711 27.753906 -35.107422 27.011719 -33.369141C26.269531 -31.630859 25.270996 -30.134277 24.016113 -28.879395C22.761230 -27.624512 21.264648 -26.625977 19.526367 -25.883789C17.788086 -25.141602 15.966797 -24.770508 14.062500 -24.770508C12.148438 -24.770508 10.324707 -25.141602 8.591309 -25.883789C6.857910 -26.625977 5.363770 -27.624512 4.108887 -28.879395C2.854004 -30.134277 1.855469 -31.630859 1.113281 -33.369141C0.371094 -35.107422 0.000000 -36.928711 0.000000 -38.833008ZM3.515625 -38.833008C3.515625 -36.918945 3.986816 -35.153809 4.929199 -33.537598C5.871582 -31.921387 7.153320 -30.642090 8.774414 -29.699707C10.395508 -28.757324 12.158203 -28.286133 14.062500 -28.286133C15.976562 -28.286133 17.741699 -28.757324 19.357910 -29.699707C20.974121 -30.642090 22.253418 -31.921387 23.195801 -33.537598C24.138184 -35.153809 24.609375 -36.918945 24.609375 -38.833008C24.609375 -40.737305 24.138184 -42.500000 23.195801 -44.121094C22.253418 -45.742188 20.974121 -47.023926 19.357910 -47.966309C17.741699 -48.908691 15.976562 -49.379883 14.062500 -49.379883C12.636719 -49.379883 11.271973 -49.101562 9.968262 -48.544922C8.664551 -47.988281 7.541504 -47.238770 6.599121 -46.296387C5.656738 -45.354004 4.907227 -44.230957 4.350586 -42.927246C3.793945 -41.623535 3.515625 -40.258789 3.515625 -38.833008ZM11.630859 -44.736328C11.562500 -45.439453 11.752930 -46.064453 12.202148 -46.611328C12.651367 -47.158203 13.232422 -47.465820 13.945312 -47.534180C14.648438 -47.602539 15.273438 -47.412109 15.820312 -46.962891C16.367188 -46.513672 16.674805 -45.937500 16.743164 -45.234375C16.762695 -45.058594 16.762695 -44.892578 16.743164 -44.736328L15.937500 -37.397461C15.898438 -36.918945 15.690918 -36.525879 15.314941 -36.218262C14.938965 -35.910645 14.506836 -35.781250 14.018555 -35.830078C13.598633 -35.869141 13.239746 -36.037598 12.941895 -36.335449C12.644043 -36.633301 12.470703 -36.987305 12.421875 -37.397461ZM11.982422 -32.387695C11.982422 -33.012695 12.202148 -33.530273 12.641602 -33.940430C13.041992 -34.350586 13.557129 -34.555664 14.187012 -34.555664C14.816895 -34.555664 15.332031 -34.350586 15.732422 -33.940430C16.171875 -33.530273 16.391602 -33.012695 16.391602 -32.387695C16.391602 -31.762695 16.171875 -31.245117 15.732422 -30.834961C15.322266 -30.395508 14.804688 -30.175781 14.179688 -30.175781C13.564453 -30.175781 13.051758 -30.395508 12.641602 -30.834961C12.202148 -31.245117 11.982422 -31.762695 11.982422 -32.387695ZM11.982422 -32.387695"></path></svg>