<svg width="28.125000" height="28.125000" viewBox="0.000000 -52.895508 28.125000 28.125000" xmlns="http://www.w3.org/2000/svg"><path d="M0.000000 -38.833008C0.000000 -40.747070 0.371094 -42.570801 1.113281 -44.304199C1.855469 -46.037598 2.854004 -47.531738 4.108887 -48.786621C5.363770 -50.041504 6.857910 -51.040039 8.591309 -51.782227C10.324707 -52.524414 12.148438 -52.895508 14.062500 -52.895508C15.966797 -52.895508 17.785645 -52.524414 19.519043 -51.782227C21.252441 -51.040039 22.749023 -50.041504 24.008789 -48.786621C25.268555 -47.531738 26.269531 -46.037598 27.011719 -44.304199C27.753906 -42.570801 28.125000 -40.747070 28.125000 -38.833008C28.125000 -36.928711 27.753906 -35.107422 27.011719 -33.369141C26.269531 -31.630859 25.268555 -30.134277 24.008789 -28.879395C22.749023 -27.624512 21.252441 -26.625977 19.519043 -25.883789C17.785645 -25.141602 15.966797 -24.770508 14.062500 -24.770508C12.148438 -24.770508 10.324707 -25.141602 8.591309 -25.883789C6.857910 -26.625977 5.363770 -27.624512 4.108887 -28.879395C2.854004 -30.134277 1.855469 -31.630859 1.113281 -33.369141C0.371094 -35.107422 0.000000 -36.928711 0.000000 -38.833008ZM11.616211 -44.736328L12.421875 -37.397461C12.470703 -36.987305 12.644043 -36.633301 12.941895 -36.335449C13.239746 -36.037598 13.598633 -35.869141 14.018555 -35.830078C14.497070 -35.781250 14.924316 -35.908203 15.300293 -36.210938C15.676270 -36.513672 15.888672 -36.909180 15.937500 -37.397461L16.743164 -44.736328L16.743164 -45.234375C16.665039 -45.937500 16.352539 -46.513672 15.805664 -46.962891C15.258789 -47.412109 14.633789 -47.602539 13.930664 -47.534180C13.227539 -47.465820 12.648926 -47.158203 12.194824 -46.611328C11.740723 -46.064453 11.547852 -45.439453 11.616211 -44.736328ZM11.982422 -32.387695C11.982422 -31.782227 12.197266 -31.264648 12.626953 -30.834961C13.056641 -30.405273 13.574219 -30.190430 14.179688 -30.190430C14.785156 -30.190430 15.302734 -30.405273 15.732422 -30.834961C16.162109 -31.264648 16.376953 -31.782227 16.376953 -32.387695C16.376953 -32.993164 16.162109 -33.510742 15.732422 -33.940430C15.322266 -34.350586 14.804688 -34.555664 14.179688 -34.555664C13.554688 -34.555664 13.037109 -34.350586 12.626953 -33.940430C12.197266 -33.510742 11.982422 -32.993164 11.982422 -32.387695ZM11.982422 -32.387695"></path></svg>