<svg width="28.125000" height="26.674805" viewBox="0.000000 -50.727539 28.125000 26.674805" xmlns="http://www.w3.org/2000/svg"><path d="M0.000000 -37.456055C0.000000 -38.208008 0.073242 -39.033203 0.219727 -39.931641C1.215820 -39.863281 2.160645 -40.058594 3.054199 -40.517578C3.947754 -40.976562 4.648438 -41.650391 5.156250 -42.539062C5.664062 -43.457031 5.893555 -44.414062 5.844727 -45.410156C5.795898 -46.406250 5.493164 -47.319336 4.936523 -48.149414C6.225586 -49.262695 7.729492 -50.122070 9.448242 -50.727539C9.907227 -49.897461 10.546875 -49.235840 11.367188 -48.742676C12.187500 -48.249512 13.085938 -48.002930 14.062500 -48.002930C15.039062 -48.002930 15.935059 -48.249512 16.750488 -48.742676C17.565918 -49.235840 18.203125 -49.897461 18.662109 -50.727539C20.361328 -50.122070 21.865234 -49.262695 23.173828 -48.149414C22.744141 -47.358398 22.529297 -46.506348 22.529297 -45.593262C22.529297 -44.680176 22.763672 -43.818359 23.232422 -43.007812C23.710938 -42.177734 24.360352 -41.533203 25.180664 -41.074219C26.000977 -40.615234 26.875000 -40.385742 27.802734 -40.385742C28.017578 -39.399414 28.125000 -38.422852 28.125000 -37.456055C28.125000 -36.811523 28.056641 -36.064453 27.919922 -35.214844C27.021484 -35.195312 26.179199 -34.953613 25.393066 -34.489746C24.606934 -34.025879 23.979492 -33.388672 23.510742 -32.578125C23.012695 -31.699219 22.775879 -30.778809 22.800293 -29.816895C22.824707 -28.854980 23.090820 -27.968750 23.598633 -27.158203C22.280273 -25.947266 20.825195 -25.019531 19.233398 -24.375000C18.774414 -25.214844 18.132324 -25.883789 17.307129 -26.381836C16.481934 -26.879883 15.581055 -27.128906 14.604492 -27.128906C13.559570 -27.128906 12.604980 -26.848145 11.740723 -26.286621C10.876465 -25.725098 10.234375 -24.980469 9.814453 -24.052734C8.164062 -24.580078 6.635742 -25.405273 5.229492 -26.528320C5.786133 -27.348633 6.086426 -28.254395 6.130371 -29.245605C6.174316 -30.236816 5.937500 -31.191406 5.419922 -32.109375C4.892578 -33.037109 4.157715 -33.732910 3.215332 -34.196777C2.272949 -34.660645 1.289062 -34.833984 0.263672 -34.716797C0.087891 -35.537109 0.000000 -36.450195 0.000000 -37.456055ZM8.789062 -37.456055C8.789062 -36.000977 9.304199 -34.758301 10.334473 -33.728027C11.364746 -32.697754 12.607422 -32.182617 14.062500 -32.182617C15.517578 -32.182617 16.760254 -32.697754 17.790527 -33.728027C18.820801 -34.758301 19.335938 -36.000977 19.335938 -37.456055C19.335938 -38.911133 18.820801 -40.153809 17.790527 -41.184082C16.760254 -42.214355 15.517578 -42.729492 14.062500 -42.729492C12.607422 -42.729492 11.364746 -42.214355 10.334473 -41.184082C9.304199 -40.153809 8.789062 -38.911133 8.789062 -37.456055ZM8.789062 -37.456055"></path></svg>