<svg width="27.155762" height="25.502930" viewBox="0.000000 -48.969727 27.155762 25.502930" xmlns="http://www.w3.org/2000/svg"><path d="M0.000000 -43.666992C0.000000 -45.131836 0.517578 -46.381836 1.552734 -47.416992C2.587891 -48.452148 3.837891 -48.969727 5.302734 -48.969727C6.777344 -48.969727 8.032227 -48.452148 9.067383 -47.416992C9.672852 -46.801758 10.102539 -46.108398 10.356445 -45.336914L14.838867 -45.336914C14.702148 -44.770508 14.633789 -44.213867 14.633789 -43.666992C14.633789 -43.110352 14.702148 -42.548828 14.838867 -41.982422L10.356445 -41.982422C10.122070 -41.289062 9.755859 -40.664062 9.257812 -40.107422L12.568359 -34.042969C12.998047 -34.101562 13.315430 -34.130859 13.520508 -34.130859C14.995117 -34.130859 16.254883 -33.608398 17.299805 -32.563477C17.983398 -31.879883 18.444824 -31.081543 18.684082 -30.168457C18.923340 -29.255371 18.923340 -28.339844 18.684082 -27.421875C18.444824 -26.503906 17.983398 -25.703125 17.299805 -25.019531C16.264648 -23.984375 15.004883 -23.466797 13.520508 -23.466797C12.045898 -23.466797 10.791016 -23.984375 9.755859 -25.019531C8.750000 -26.035156 8.234863 -27.260742 8.210449 -28.696289C8.186035 -30.131836 8.657227 -31.367188 9.624023 -32.402344L6.328125 -38.437500C6.054688 -38.378906 5.712891 -38.349609 5.302734 -38.349609C3.837891 -38.349609 2.587891 -38.867188 1.552734 -39.902344C0.517578 -40.947266 0.000000 -42.202148 0.000000 -43.666992ZM2.548828 -43.652344C2.548828 -42.880859 2.817383 -42.226562 3.354492 -41.689453C3.872070 -41.142578 4.521484 -40.869141 5.302734 -40.869141C6.103516 -40.869141 6.762695 -41.142578 7.280273 -41.689453C7.817383 -42.226562 8.085938 -42.880859 8.085938 -43.652344C8.085938 -44.423828 7.817383 -45.083008 7.280273 -45.629883C6.762695 -46.176758 6.103516 -46.450195 5.302734 -46.450195C4.521484 -46.450195 3.872070 -46.176758 3.354492 -45.629883C2.817383 -45.083008 2.548828 -44.423828 2.548828 -43.652344ZM10.751953 -28.798828C10.751953 -28.027344 11.020508 -27.368164 11.557617 -26.821289C12.133789 -26.274414 12.788086 -26.000977 13.520508 -26.000977C14.291992 -26.000977 14.951172 -26.274414 15.498047 -26.821289C16.044922 -27.368164 16.318359 -28.027344 16.318359 -28.798828C16.318359 -29.570312 16.044922 -30.229492 15.498047 -30.776367C14.980469 -31.323242 14.321289 -31.596680 13.520508 -31.596680C12.758789 -31.596680 12.104492 -31.323242 11.557617 -30.776367C11.020508 -30.229492 10.751953 -29.570312 10.751953 -28.798828ZM15.424805 -35.698242L17.812500 -40.107422C16.865234 -41.152344 16.408691 -42.380371 16.442871 -43.791504C16.477051 -45.202637 16.997070 -46.411133 18.002930 -47.416992C19.038086 -48.452148 20.292969 -48.969727 21.767578 -48.969727C23.232422 -48.969727 24.487305 -48.452148 25.532227 -47.416992C26.215820 -46.733398 26.677246 -45.937500 26.916504 -45.029297C27.155762 -44.121094 27.155762 -43.210449 26.916504 -42.297363C26.677246 -41.384277 26.215820 -40.585938 25.532227 -39.902344C24.487305 -38.867188 23.232422 -38.349609 21.767578 -38.349609C21.357422 -38.349609 21.015625 -38.378906 20.742188 -38.437500L18.369141 -34.057617C17.519531 -34.838867 16.538086 -35.385742 15.424805 -35.698242ZM18.984375 -43.652344C18.984375 -42.880859 19.252930 -42.226562 19.790039 -41.689453C20.307617 -41.142578 20.966797 -40.869141 21.767578 -40.869141C22.539062 -40.869141 23.198242 -41.142578 23.745117 -41.689453C24.282227 -42.226562 24.550781 -42.880859 24.550781 -43.652344C24.550781 -44.423828 24.282227 -45.083008 23.745117 -45.629883C23.198242 -46.176758 22.539062 -46.450195 21.767578 -46.450195C20.966797 -46.450195 20.307617 -46.176758 19.790039 -45.629883C19.252930 -45.083008 18.984375 -44.423828 18.984375 -43.652344ZM18.984375 -43.652344"></path></svg>