<svg width="32.504883" height="17.578125" viewBox="0.000000 -37.075195 32.504883 17.578125" xmlns="http://www.w3.org/2000/svg"><path d="M0.000000 -23.583984C0.000000 -23.427734 0.083008 -23.293457 0.249023 -23.181152C0.415039 -23.068848 0.620117 -23.012695 0.864258 -23.012695C1.108398 -23.012695 1.315918 -23.068848 1.486816 -23.181152C1.657715 -23.293457 1.743164 -23.427734 1.743164 -23.583984L1.743164 -33.002930C1.743164 -33.159180 1.657715 -33.291016 1.486816 -33.398438C1.315918 -33.505859 1.108398 -33.559570 0.864258 -33.559570C0.620117 -33.559570 0.415039 -33.505859 0.249023 -33.398438C0.083008 -33.291016 0.000000 -33.159180 0.000000 -33.002930ZM3.720703 -21.826172C3.720703 -21.669922 3.806152 -21.535645 3.977051 -21.423340C4.147949 -21.311035 4.355469 -21.254883 4.599609 -21.254883C4.843750 -21.254883 5.051270 -21.311035 5.222168 -21.423340C5.393066 -21.535645 5.478516 -21.669922 5.478516 -21.826172L5.478516 -34.760742C5.478516 -34.916992 5.393066 -35.048828 5.222168 -35.156250C5.051270 -35.263672 4.843750 -35.317383 4.599609 -35.317383C4.355469 -35.317383 4.147949 -35.263672 3.977051 -35.156250C3.806152 -35.048828 3.720703 -34.916992 3.720703 -34.760742ZM7.939453 -20.654297C7.939453 -20.341797 8.054199 -20.070801 8.283691 -19.841309C8.513184 -19.611816 8.784180 -19.497070 9.096680 -19.497070L23.422852 -19.497070C23.735352 -19.497070 24.003906 -19.611816 24.228516 -19.841309C24.453125 -20.070801 24.565430 -20.341797 24.565430 -20.654297L24.565430 -35.903320C24.565430 -36.235352 24.453125 -36.513672 24.228516 -36.738281C24.003906 -36.962891 23.735352 -37.075195 23.422852 -37.075195L9.096680 -37.075195C8.774414 -37.075195 8.500977 -36.960449 8.276367 -36.730957C8.051758 -36.501465 7.939453 -36.225586 7.939453 -35.903320ZM27.026367 -21.826172C27.026367 -21.669922 27.111816 -21.535645 27.282715 -21.423340C27.453613 -21.311035 27.656250 -21.254883 27.890625 -21.254883C28.134766 -21.254883 28.344727 -21.311035 28.520508 -21.423340C28.696289 -21.535645 28.784180 -21.669922 28.784180 -21.826172L28.784180 -34.760742C28.784180 -34.916992 28.696289 -35.048828 28.520508 -35.156250C28.344727 -35.263672 28.134766 -35.317383 27.890625 -35.317383C27.656250 -35.317383 27.453613 -35.263672 27.282715 -35.156250C27.111816 -35.048828 27.026367 -34.916992 27.026367 -34.760742L27.026367 -21.826172ZM30.747070 -23.583984C30.747070 -23.427734 30.832520 -23.293457 31.003418 -23.181152C31.174316 -23.068848 31.381836 -23.012695 31.625977 -23.012695C31.870117 -23.012695 32.077637 -23.068848 32.248535 -23.181152C32.419434 -23.293457 32.504883 -23.427734 32.504883 -23.583984L32.504883 -33.002930C32.504883 -33.159180 32.419434 -33.291016 32.248535 -33.398438C32.077637 -33.505859 31.870117 -33.559570 31.625977 -33.559570C31.381836 -33.559570 31.174316 -33.505859 31.003418 -33.398438C30.832520 -33.291016 30.747070 -33.159180 30.747070 -33.002930L30.747070 -23.583984ZM30.747070 -23.583984"></path></svg>