<svg width="32.504883" height="17.490234" viewBox="0.000000 -36.958008 32.504883 17.490234" xmlns="http://www.w3.org/2000/svg"><path d="M0.000000 -23.540039L0.000000 -32.915039C0.000000 -33.071289 0.087891 -33.200684 0.263672 -33.303223C0.439453 -33.405762 0.649414 -33.457031 0.893555 -33.457031C1.137695 -33.457031 1.342773 -33.405762 1.508789 -33.303223C1.674805 -33.200684 1.757812 -33.071289 1.757812 -32.915039L1.757812 -23.540039C1.757812 -23.383789 1.674805 -23.249512 1.508789 -23.137207C1.342773 -23.024902 1.137695 -22.968750 0.893555 -22.968750C0.649414 -22.968750 0.439453 -23.024902 0.263672 -23.137207C0.087891 -23.249512 0.000000 -23.383789 0.000000 -23.540039ZM3.735352 -21.782227L3.735352 -34.643555C3.735352 -34.799805 3.820801 -34.934082 3.991699 -35.046387C4.162598 -35.158691 4.370117 -35.214844 4.614258 -35.214844C4.848633 -35.214844 5.053711 -35.158691 5.229492 -35.046387C5.405273 -34.934082 5.493164 -34.799805 5.493164 -34.643555L5.493164 -21.782227C5.493164 -21.625977 5.405273 -21.494141 5.229492 -21.386719C5.053711 -21.279297 4.848633 -21.225586 4.614258 -21.225586C4.370117 -21.225586 4.162598 -21.279297 3.991699 -21.386719C3.820801 -21.494141 3.735352 -21.625977 3.735352 -21.782227ZM7.954102 -20.625000L7.954102 -35.815430C7.954102 -36.127930 8.066406 -36.396484 8.291016 -36.621094C8.515625 -36.845703 8.784180 -36.958008 9.096680 -36.958008L23.422852 -36.958008C23.735352 -36.958008 24.006348 -36.845703 24.235840 -36.621094C24.465332 -36.396484 24.580078 -36.127930 24.580078 -35.815430L24.580078 -20.625000C24.580078 -20.312500 24.465332 -20.041504 24.235840 -19.812012C24.006348 -19.582520 23.735352 -19.467773 23.422852 -19.467773L9.096680 -19.467773C8.784180 -19.467773 8.515625 -19.582520 8.291016 -19.812012C8.066406 -20.041504 7.954102 -20.312500 7.954102 -20.625000ZM10.576172 -22.089844L21.943359 -22.089844L21.943359 -34.350586L10.576172 -34.350586ZM27.041016 -21.782227L27.041016 -34.643555C27.041016 -34.799805 27.124023 -34.934082 27.290039 -35.046387C27.456055 -35.158691 27.661133 -35.214844 27.905273 -35.214844C28.149414 -35.214844 28.359375 -35.158691 28.535156 -35.046387C28.710938 -34.934082 28.798828 -34.799805 28.798828 -34.643555L28.798828 -21.782227C28.798828 -21.625977 28.710938 -21.494141 28.535156 -21.386719C28.359375 -21.279297 28.149414 -21.225586 27.905273 -21.225586C27.661133 -21.225586 27.456055 -21.279297 27.290039 -21.386719C27.124023 -21.494141 27.041016 -21.625977 27.041016 -21.782227ZM30.776367 -23.540039L30.776367 -32.915039C30.776367 -33.071289 30.859375 -33.200684 31.025391 -33.303223C31.191406 -33.405762 31.396484 -33.457031 31.640625 -33.457031C31.884766 -33.457031 32.089844 -33.405762 32.255859 -33.303223C32.421875 -33.200684 32.504883 -33.071289 32.504883 -32.915039L32.504883 -23.540039C32.504883 -23.383789 32.421875 -23.249512 32.255859 -23.137207C32.089844 -23.024902 31.884766 -22.968750 31.640625 -22.968750C31.396484 -22.968750 31.191406 -23.024902 31.025391 -23.137207C30.859375 -23.249512 30.776367 -23.383789 30.776367 -23.540039ZM30.776367 -23.540039"></path></svg>