<svg width="28.125000" height="28.125000" viewBox="0.000000 -52.895508 28.125000 28.125000" xmlns="http://www.w3.org/2000/svg"><path d="M0.000000 -38.833008C0.000000 -40.747070 0.371094 -42.570801 1.113281 -44.304199C1.855469 -46.037598 2.854004 -47.531738 4.108887 -48.786621C5.363770 -50.041504 6.857910 -51.040039 8.591309 -51.782227C10.324707 -52.524414 12.148438 -52.895508 14.062500 -52.895508C15.966797 -52.895508 17.788086 -52.524414 19.526367 -51.782227C21.264648 -51.040039 22.761230 -50.041504 24.016113 -48.786621C25.270996 -47.531738 26.269531 -46.037598 27.011719 -44.304199C27.753906 -42.570801 28.125000 -40.747070 28.125000 -38.833008C28.125000 -36.928711 27.753906 -35.107422 27.011719 -33.369141C26.269531 -31.630859 25.270996 -30.134277 24.016113 -28.879395C22.761230 -27.624512 21.264648 -26.625977 19.526367 -25.883789C17.788086 -25.141602 15.966797 -24.770508 14.062500 -24.770508C12.148438 -24.770508 10.324707 -25.141602 8.591309 -25.883789C6.857910 -26.625977 5.363770 -27.624512 4.108887 -28.879395C2.854004 -30.134277 1.855469 -31.630859 1.113281 -33.369141C0.371094 -35.107422 0.000000 -36.928711 0.000000 -38.833008ZM2.651367 -38.833008C2.651367 -37.856445 2.783203 -36.865234 3.046875 -35.859375C3.750000 -37.763672 4.780273 -39.409180 6.137695 -40.795898C6.118164 -40.834961 6.098633 -40.895996 6.079102 -40.979004C6.059570 -41.062012 6.049805 -41.108398 6.049805 -41.118164L5.888672 -41.118164C4.912109 -41.118164 3.886719 -40.981445 2.812500 -40.708008C2.705078 -40.063477 2.651367 -39.438477 2.651367 -38.833008ZM3.251953 -42.509766C4.179688 -42.685547 5.058594 -42.773438 5.888672 -42.773438C5.927734 -42.773438 5.981445 -42.770996 6.049805 -42.766113C6.118164 -42.761230 6.171875 -42.758789 6.210938 -42.758789C6.416016 -43.168945 6.708984 -43.496094 7.089844 -43.740234C7.470703 -43.984375 7.895508 -44.106445 8.364258 -44.106445C8.920898 -44.106445 9.428711 -43.925781 9.887695 -43.564453C11.684570 -44.482422 13.623047 -44.960938 15.703125 -45.000000C15.800781 -45.224609 15.908203 -45.410156 16.025391 -45.556641C14.560547 -47.480469 12.680664 -48.842773 10.385742 -49.643555C8.706055 -49.067383 7.238770 -48.154297 5.983887 -46.904297C4.729004 -45.654297 3.818359 -44.189453 3.251953 -42.509766ZM4.057617 -33.369141C4.897461 -31.826172 6.042480 -30.539551 7.492676 -29.509277C8.942871 -28.479004 10.556641 -27.827148 12.333984 -27.553711C14.033203 -28.540039 15.405273 -29.824219 16.450195 -31.406250C16.059570 -31.855469 15.864258 -32.373047 15.864258 -32.958984C15.864258 -33.642578 16.118164 -34.223633 16.625977 -34.702148C15.932617 -35.971680 15.043945 -37.087402 13.959961 -38.049316C12.875977 -39.011230 11.660156 -39.755859 10.312500 -40.283203C9.824219 -39.619141 9.174805 -39.287109 8.364258 -39.287109C7.983398 -39.287109 7.612305 -39.384766 7.250977 -39.580078C5.561523 -37.812500 4.497070 -35.742188 4.057617 -33.369141ZM10.751953 -42.114258C10.761719 -42.084961 10.769043 -42.041016 10.773926 -41.982422C10.778809 -41.923828 10.781250 -41.879883 10.781250 -41.850586C12.363281 -41.254883 13.791504 -40.397949 15.065918 -39.279785C16.340332 -38.161621 17.377930 -36.855469 18.178711 -35.361328C18.413086 -36.328125 18.530273 -37.260742 18.530273 -38.159180C18.530273 -39.262695 18.344727 -40.434570 17.973633 -41.674805L17.929688 -41.674805C17.392578 -41.674805 16.916504 -41.831055 16.501465 -42.143555C16.086426 -42.456055 15.795898 -42.856445 15.629883 -43.344727C13.901367 -43.276367 12.275391 -42.866211 10.751953 -42.114258ZM13.110352 -50.229492C14.780273 -49.272461 16.206055 -48.002930 17.387695 -46.420898C17.563477 -46.469727 17.744141 -46.494141 17.929688 -46.494141C18.544922 -46.494141 19.079590 -46.284180 19.533691 -45.864258C19.987793 -45.444336 20.244141 -44.931641 20.302734 -44.326172C22.119141 -43.730469 23.735352 -42.817383 25.151367 -41.586914C24.516602 -44.096680 23.171387 -46.171875 21.115723 -47.812500C19.060059 -49.453125 16.708984 -50.273438 14.062500 -50.273438C13.964844 -50.273438 13.864746 -50.270996 13.762207 -50.266113C13.659668 -50.261230 13.542480 -50.253906 13.410645 -50.244141C13.278809 -50.234375 13.178711 -50.229492 13.110352 -50.229492ZM15.087891 -27.465820C16.054688 -27.543945 17.050781 -27.773438 18.076172 -28.154297C18.076172 -28.212891 18.085938 -28.327637 18.105469 -28.498535C18.125000 -28.669434 18.134766 -28.803711 18.134766 -28.901367C18.134766 -29.350586 18.090820 -29.907227 18.002930 -30.571289C17.983398 -30.581055 17.949219 -30.585938 17.900391 -30.585938C17.138672 -29.423828 16.201172 -28.383789 15.087891 -27.465820ZM19.526367 -42.275391C19.956055 -40.859375 20.170898 -39.487305 20.170898 -38.159180C20.170898 -37.045898 20.034180 -35.942383 19.760742 -34.848633C20.385742 -34.370117 20.698242 -33.740234 20.698242 -32.958984C20.698242 -32.128906 20.336914 -31.459961 19.614258 -30.952148C19.721680 -30.258789 19.775391 -29.594727 19.775391 -28.959961C21.513672 -29.965820 22.902832 -31.345215 23.942871 -33.098145C24.982910 -34.851074 25.502930 -36.762695 25.502930 -38.833008L25.502930 -38.876953C23.989258 -40.712891 22.128906 -41.997070 19.921875 -42.729492C19.785156 -42.543945 19.653320 -42.392578 19.526367 -42.275391ZM19.526367 -42.275391"></path></svg>