<svg width="14.575195" height="27.077637" viewBox="-0.146484 -51.838379 14.575195 27.077637" xmlns="http://www.w3.org/2000/svg"><path d="M0.087891 -40.781250C-0.146484 -41.381836 0.009766 -41.860352 0.556641 -42.216797C1.103516 -42.573242 1.982422 -42.751465 3.193359 -42.751465L10.166016 -42.751465L12.275391 -49.152832L12.290039 -49.196777C12.573242 -50.065918 12.902832 -50.725098 13.278809 -51.174316C13.654785 -51.623535 14.038086 -51.838379 14.428711 -51.818848L14.428711 -29.978027L8.862305 -25.935059L8.774414 -25.876465C7.788086 -25.173340 6.967773 -24.809570 6.313477 -24.785156C5.659180 -24.760742 5.256348 -25.056152 5.104980 -25.671387C4.953613 -26.286621 5.053711 -27.175293 5.405273 -28.337402L5.419922 -28.381348L5.434570 -28.410645L7.543945 -34.812012L2.080078 -38.708496L2.006836 -38.781738L1.918945 -38.825684C0.932617 -39.528809 0.322266 -40.180664 0.087891 -40.781250ZM0.087891 -40.781250"></path></svg>