<svg width="27.519531" height="25.473633" viewBox="-0.083008 -48.925781 27.519531 25.473633" xmlns="http://www.w3.org/2000/svg"><path d="M0.043945 -31.889648C0.141602 -32.387695 0.397949 -32.805176 0.812988 -33.142090C1.228027 -33.479004 1.689453 -33.647461 2.197266 -33.647461L6.665039 -33.647461L7.749023 -38.730469L3.676758 -38.730469C3.120117 -38.730469 2.661133 -38.945312 2.299805 -39.375000C1.958008 -39.814453 1.845703 -40.322266 1.962891 -40.898438C2.060547 -41.406250 2.314453 -41.826172 2.724609 -42.158203C3.134766 -42.490234 3.593750 -42.656250 4.101562 -42.656250L8.569336 -42.656250L9.521484 -47.153320C9.628906 -47.661133 9.890137 -48.083496 10.305176 -48.420410C10.720215 -48.757324 11.181641 -48.925781 11.689453 -48.925781C12.275391 -48.925781 12.739258 -48.710938 13.081055 -48.281250C13.422852 -47.851562 13.530273 -47.343750 13.403320 -46.757812L12.539062 -42.656250L17.563477 -42.656250L18.515625 -47.153320C18.623047 -47.661133 18.881836 -48.083496 19.291992 -48.420410C19.702148 -48.757324 20.161133 -48.925781 20.668945 -48.925781C21.254883 -48.925781 21.718750 -48.710938 22.060547 -48.281250C22.412109 -47.871094 22.524414 -47.363281 22.397461 -46.757812L21.533203 -42.656250L25.590820 -42.656250C26.157227 -42.656250 26.621094 -42.441406 26.982422 -42.011719C27.324219 -41.572266 27.436523 -41.064453 27.319336 -40.488281C27.221680 -39.980469 26.967773 -39.560547 26.557617 -39.228516C26.147461 -38.896484 25.688477 -38.730469 25.180664 -38.730469L20.712891 -38.730469L19.614258 -33.647461L23.686523 -33.647461C24.252930 -33.647461 24.716797 -33.432617 25.078125 -33.002930C25.419922 -32.563477 25.532227 -32.050781 25.415039 -31.464844C25.307617 -30.957031 25.051270 -30.537109 24.645996 -30.205078C24.240723 -29.873047 23.784180 -29.707031 23.276367 -29.707031L18.779297 -29.707031L17.841797 -25.209961C17.734375 -24.702148 17.475586 -24.282227 17.065430 -23.950195C16.655273 -23.618164 16.196289 -23.452148 15.688477 -23.452148C15.122070 -23.452148 14.658203 -23.662109 14.296875 -24.082031C13.955078 -24.521484 13.842773 -25.029297 13.959961 -25.605469L14.838867 -29.707031L9.799805 -29.707031L8.833008 -25.209961C8.725586 -24.702148 8.469238 -24.282227 8.063965 -23.950195C7.658691 -23.618164 7.202148 -23.452148 6.694336 -23.452148C6.127930 -23.452148 5.664062 -23.662109 5.302734 -24.082031C4.960938 -24.521484 4.848633 -25.029297 4.965820 -25.605469L5.844727 -29.707031L1.772461 -29.707031C1.196289 -29.707031 0.732422 -29.926758 0.380859 -30.366211C0.029297 -30.776367 -0.083008 -31.284180 0.043945 -31.889648ZM10.634766 -33.647461L15.659180 -33.647461L16.743164 -38.730469L11.704102 -38.730469ZM10.634766 -33.647461"></path></svg>