<svg width="28.125000" height="28.125000" viewBox="0.000000 -52.895508 28.125000 28.125000" xmlns="http://www.w3.org/2000/svg"><path d="M0.000000 -39.111328C0.000000 -39.775391 0.236816 -40.341797 0.710449 -40.810547C1.184082 -41.279297 1.752930 -41.513672 2.416992 -41.513672L12.744141 -41.513672L9.418945 -44.838867C8.950195 -45.307617 8.715820 -45.874023 8.715820 -46.538086C8.715820 -47.202148 8.950195 -47.773438 9.418945 -48.251953C9.897461 -48.720703 10.471191 -48.955078 11.140137 -48.955078C11.809082 -48.955078 12.377930 -48.720703 12.846680 -48.251953L20.258789 -40.810547C20.737305 -40.341797 20.976562 -39.775391 20.976562 -39.111328C20.976562 -38.447266 20.737305 -37.880859 20.258789 -37.412109L12.993164 -30.131836C12.524414 -29.663086 11.955566 -29.428711 11.286621 -29.428711C10.617676 -29.428711 10.048828 -29.663086 9.580078 -30.131836C9.111328 -30.600586 8.876953 -31.166992 8.876953 -31.831055C8.876953 -32.495117 9.111328 -33.066406 9.580078 -33.544922L12.744141 -36.694336L2.416992 -36.694336C1.752930 -36.694336 1.184082 -36.931152 0.710449 -37.404785C0.236816 -37.878418 0.000000 -38.447266 0.000000 -39.111328ZM17.460938 -27.187500C17.460938 -27.851562 17.697754 -28.420410 18.171387 -28.894043C18.645020 -29.367676 19.213867 -29.604492 19.877930 -29.604492L22.031250 -29.604492C22.382812 -29.604492 22.683105 -29.726562 22.932129 -29.970703C23.181152 -30.214844 23.305664 -30.512695 23.305664 -30.864258L23.305664 -46.831055C23.305664 -47.172852 23.181152 -47.465820 22.932129 -47.709961C22.683105 -47.954102 22.382812 -48.076172 22.031250 -48.076172L19.877930 -48.076172C19.213867 -48.076172 18.645020 -48.312988 18.171387 -48.786621C17.697754 -49.260254 17.460938 -49.829102 17.460938 -50.493164C17.460938 -51.157227 17.697754 -51.723633 18.171387 -52.192383C18.645020 -52.661133 19.213867 -52.895508 19.877930 -52.895508L22.031250 -52.895508C23.720703 -52.895508 25.158691 -52.304688 26.345215 -51.123047C27.531738 -49.941406 28.125000 -48.510742 28.125000 -46.831055L28.125000 -30.864258C28.125000 -29.174805 27.529297 -27.736816 26.337891 -26.550293C25.146484 -25.363770 23.710938 -24.770508 22.031250 -24.770508L19.877930 -24.770508C19.213867 -24.770508 18.645020 -25.007324 18.171387 -25.480957C17.697754 -25.954590 17.460938 -26.523438 17.460938 -27.187500ZM17.460938 -27.187500"></path></svg>