<svg width="28.125000" height="28.125000" viewBox="0.000000 -52.895508 28.125000 28.125000" xmlns="http://www.w3.org/2000/svg"><path d="M0.000000 -38.833008C0.000000 -40.737305 0.371094 -42.558594 1.113281 -44.296875C1.855469 -46.035156 2.854004 -47.531738 4.108887 -48.786621C5.363770 -50.041504 6.860352 -51.040039 8.598633 -51.782227C10.336914 -52.524414 12.158203 -52.895508 14.062500 -52.895508C15.966797 -52.895508 17.788086 -52.524414 19.526367 -51.782227C21.264648 -51.040039 22.761230 -50.041504 24.016113 -48.786621C25.270996 -47.531738 26.269531 -46.035156 27.011719 -44.296875C27.753906 -42.558594 28.125000 -40.737305 28.125000 -38.833008C28.125000 -36.928711 27.753906 -35.107422 27.011719 -33.369141C26.269531 -31.630859 25.270996 -30.134277 24.016113 -28.879395C22.761230 -27.624512 21.264648 -26.625977 19.526367 -25.883789C17.788086 -25.141602 15.966797 -24.770508 14.062500 -24.770508C12.158203 -24.770508 10.336914 -25.141602 8.598633 -25.883789C6.860352 -26.625977 5.363770 -27.624512 4.108887 -28.879395C2.854004 -30.134277 1.855469 -31.630859 1.113281 -33.369141C0.371094 -35.107422 0.000000 -36.928711 0.000000 -38.833008ZM5.478516 -38.862305C5.478516 -37.690430 5.703125 -36.574707 6.152344 -35.515137C6.601562 -34.455566 7.207031 -33.540039 7.968750 -32.768555C8.730469 -31.997070 9.638672 -31.384277 10.693359 -30.930176C11.748047 -30.476074 12.861328 -30.249023 14.033203 -30.249023C15.595703 -30.249023 17.038574 -30.632324 18.361816 -31.398926C19.685059 -32.165527 20.729980 -33.210449 21.496582 -34.533691C22.263184 -35.856934 22.646484 -37.299805 22.646484 -38.862305C22.646484 -40.415039 22.263184 -41.848145 21.496582 -43.161621C20.729980 -44.475098 19.685059 -45.515137 18.361816 -46.281738C17.038574 -47.048340 15.595703 -47.431641 14.033203 -47.431641C12.861328 -47.431641 11.748047 -47.204590 10.693359 -46.750488C9.638672 -46.296387 8.730469 -45.686035 7.968750 -44.919434C7.207031 -44.152832 6.601562 -43.242188 6.152344 -42.187500C5.703125 -41.132812 5.478516 -40.024414 5.478516 -38.862305ZM6.899414 -38.481445C7.026367 -38.481445 7.197266 -38.474121 7.412109 -38.459473C7.626953 -38.444824 7.788086 -38.437500 7.895508 -38.437500C9.985352 -38.437500 12.133789 -38.828125 14.340820 -39.609375C14.458008 -39.287109 14.604492 -38.950195 14.780273 -38.598633C13.549805 -38.168945 12.421875 -37.563477 11.396484 -36.782227C10.371094 -36.000977 9.506836 -35.073242 8.803711 -33.999023C7.583008 -35.258789 6.948242 -36.752930 6.899414 -38.481445ZM6.943359 -39.931641C7.128906 -41.054688 7.561035 -42.082520 8.239746 -43.015137C8.918457 -43.947754 9.760742 -44.677734 10.766602 -45.205078C11.967773 -43.769531 12.949219 -42.343750 13.710938 -40.927734C11.884766 -40.263672 9.946289 -39.931641 7.895508 -39.931641ZM9.858398 -33.002930C11.225586 -35.083008 13.022461 -36.489258 15.249023 -37.221680C15.805664 -35.551758 16.157227 -33.823242 16.303711 -32.036133C15.629883 -31.791992 14.873047 -31.669922 14.033203 -31.669922C12.587891 -31.669922 11.196289 -32.114258 9.858398 -33.002930ZM12.187500 -45.732422C12.910156 -45.917969 13.525391 -46.010742 14.033203 -46.010742C15.947266 -46.010742 17.602539 -45.336914 18.999023 -43.989258C17.797852 -42.934570 16.474609 -42.089844 15.029297 -41.455078C14.277344 -42.871094 13.330078 -44.296875 12.187500 -45.732422ZM15.673828 -40.122070C17.128906 -40.786133 18.554688 -41.704102 19.951172 -42.875977C20.800781 -41.606445 21.225586 -40.268555 21.225586 -38.862305C20.122070 -39.116211 19.208984 -39.243164 18.486328 -39.243164C17.880859 -39.243164 17.104492 -39.155273 16.157227 -38.979492C16.108398 -39.096680 16.030273 -39.287109 15.922852 -39.550781C15.815430 -39.814453 15.732422 -40.004883 15.673828 -40.122070ZM16.625977 -37.602539C17.221680 -37.700195 17.841797 -37.749023 18.486328 -37.749023C19.326172 -37.749023 20.190430 -37.641602 21.079102 -37.426758C20.854492 -36.411133 20.449219 -35.490723 19.863281 -34.665527C19.277344 -33.840332 18.549805 -33.178711 17.680664 -32.680664C17.446289 -34.565430 17.094727 -36.206055 16.625977 -37.602539ZM16.625977 -37.602539"></path></svg>