<svg width="28.125000" height="28.125000" viewBox="0.000000 -52.895508 28.125000 28.125000" xmlns="http://www.w3.org/2000/svg"><path d="M0.000000 -38.833008C0.000000 -40.737305 0.371094 -42.558594 1.113281 -44.296875C1.855469 -46.035156 2.856445 -47.531738 4.116211 -48.786621C5.375977 -50.041504 6.872559 -51.040039 8.605957 -51.782227C10.339355 -52.524414 12.158203 -52.895508 14.062500 -52.895508C15.966797 -52.895508 17.788086 -52.524414 19.526367 -51.782227C21.264648 -51.040039 22.761230 -50.041504 24.016113 -48.786621C25.270996 -47.531738 26.269531 -46.035156 27.011719 -44.296875C27.753906 -42.558594 28.125000 -40.737305 28.125000 -38.833008C28.125000 -36.928711 27.753906 -35.107422 27.011719 -33.369141C26.269531 -31.630859 25.270996 -30.134277 24.016113 -28.879395C22.761230 -27.624512 21.264648 -26.625977 19.526367 -25.883789C17.788086 -25.141602 15.966797 -24.770508 14.062500 -24.770508C12.158203 -24.770508 10.339355 -25.141602 8.605957 -25.883789C6.872559 -26.625977 5.375977 -27.624512 4.116211 -28.879395C2.856445 -30.134277 1.855469 -31.630859 1.113281 -33.369141C0.371094 -35.107422 0.000000 -36.928711 0.000000 -38.833008ZM10.532227 -38.833008L12.099609 -38.833008L12.099609 -31.245117L15.234375 -31.245117L15.234375 -38.833008L17.343750 -38.833008L17.607422 -41.455078L15.249023 -41.455078L15.249023 -42.773438C15.249023 -43.164062 15.307617 -43.435059 15.424805 -43.586426C15.541992 -43.737793 15.830078 -43.813477 16.289062 -43.813477L17.592773 -43.813477L17.592773 -46.435547L15.498047 -46.435547C14.277344 -46.435547 13.405762 -46.147461 12.883301 -45.571289C12.360840 -44.995117 12.099609 -44.145508 12.099609 -43.022461L12.099609 -41.455078L10.532227 -41.455078ZM10.532227 -38.833008"></path></svg>