<svg width="13.125000" height="28.125000" viewBox="0.000000 -52.895508 13.125000 28.125000" xmlns="http://www.w3.org/2000/svg"><path d="M0.000000 -38.833008L2.915039 -38.833008L2.915039 -24.770508L8.715820 -24.770508L8.715820 -38.833008L12.612305 -38.833008L13.125000 -43.681641L8.745117 -43.681641L8.745117 -46.098633C8.745117 -46.469727 8.762207 -46.755371 8.796387 -46.955566C8.830566 -47.155762 8.908691 -47.351074 9.030762 -47.541504C9.152832 -47.731934 9.345703 -47.863770 9.609375 -47.937012C9.873047 -48.010254 10.224609 -48.046875 10.664062 -48.046875L13.095703 -48.046875L13.095703 -52.895508L9.213867 -52.895508C6.967773 -52.895508 5.356445 -52.363281 4.379883 -51.298828C3.403320 -50.234375 2.915039 -48.666992 2.915039 -46.596680L2.915039 -43.681641L0.000000 -43.681641ZM0.000000 -38.833008"></path></svg>