<svg width="28.125000" height="28.125000" viewBox="0.000000 -52.895508 28.125000 28.125000" xmlns="http://www.w3.org/2000/svg"><path d="M0.000000 -38.833008C0.000000 -40.737305 0.371094 -42.558594 1.113281 -44.296875C1.855469 -46.035156 2.854004 -47.531738 4.108887 -48.786621C5.363770 -50.041504 6.860352 -51.040039 8.598633 -51.782227C10.336914 -52.524414 12.158203 -52.895508 14.062500 -52.895508C15.966797 -52.895508 17.788086 -52.524414 19.526367 -51.782227C21.264648 -51.040039 22.761230 -50.041504 24.016113 -48.786621C25.270996 -47.531738 26.269531 -46.035156 27.011719 -44.296875C27.753906 -42.558594 28.125000 -40.737305 28.125000 -38.833008C28.125000 -36.928711 27.753906 -35.107422 27.011719 -33.369141C26.269531 -31.630859 25.270996 -30.134277 24.016113 -28.879395C22.761230 -27.624512 21.264648 -26.625977 19.526367 -25.883789C17.788086 -25.141602 15.966797 -24.770508 14.062500 -24.770508C12.158203 -24.770508 10.336914 -25.141602 8.598633 -25.883789C6.860352 -26.625977 5.363770 -27.624512 4.108887 -28.879395C2.854004 -30.134277 1.855469 -31.630859 1.113281 -33.369141C0.371094 -35.107422 0.000000 -36.928711 0.000000 -38.833008ZM5.932617 -37.895508C5.932617 -36.577148 6.127930 -35.512695 6.518555 -34.702148C6.987305 -33.813477 7.656250 -33.183594 8.525391 -32.812500C9.453125 -32.382812 10.385742 -32.119141 11.323242 -32.021484C12.114258 -31.923828 13.041992 -31.875000 14.106445 -31.875000C14.702148 -31.875000 15.239258 -31.889648 15.717773 -31.918945C16.967773 -31.977539 18.071289 -32.197266 19.028320 -32.578125C20.161133 -33.056641 20.957031 -33.764648 21.416016 -34.702148C21.806641 -35.532227 22.001953 -36.596680 22.001953 -37.895508C22.001953 -39.428711 21.557617 -40.712891 20.668945 -41.748047C20.854492 -42.246094 20.947266 -42.788086 20.947266 -43.374023C20.947266 -44.106445 20.786133 -44.804688 20.463867 -45.468750C19.799805 -45.468750 19.204102 -45.351562 18.676758 -45.117188C18.149414 -44.882812 17.534180 -44.487305 16.831055 -43.930664C15.942383 -44.145508 15.034180 -44.252930 14.106445 -44.252930C13.061523 -44.252930 12.070312 -44.135742 11.132812 -43.901367C10.390625 -44.477539 9.760742 -44.882812 9.243164 -45.117188C8.725586 -45.351562 8.134766 -45.468750 7.470703 -45.468750C7.128906 -44.804688 6.958008 -44.106445 6.958008 -43.374023C6.958008 -42.866211 7.050781 -42.319336 7.236328 -41.733398C6.367188 -40.717773 5.932617 -39.438477 5.932617 -37.895508ZM8.085938 -36.196289C8.085938 -36.997070 8.312988 -37.663574 8.767090 -38.195801C9.221191 -38.728027 9.819336 -38.994141 10.561523 -38.994141C10.844727 -38.994141 11.469727 -38.920898 12.436523 -38.774414C12.856445 -38.706055 13.364258 -38.671875 13.959961 -38.671875C14.545898 -38.671875 15.048828 -38.706055 15.468750 -38.774414C16.474609 -38.920898 17.104492 -38.994141 17.358398 -38.994141C18.100586 -38.994141 18.698730 -38.728027 19.152832 -38.195801C19.606934 -37.663574 19.833984 -36.997070 19.833984 -36.196289C19.833984 -35.639648 19.731445 -35.146484 19.526367 -34.716797C19.145508 -33.945312 18.491211 -33.422852 17.563477 -33.149414C16.772461 -32.915039 15.839844 -32.797852 14.765625 -32.797852L13.139648 -32.797852C12.573242 -32.797852 12.094727 -32.817383 11.704102 -32.856445C10.620117 -32.973633 9.775391 -33.266602 9.169922 -33.735352C8.447266 -34.272461 8.085938 -35.092773 8.085938 -36.196289ZM9.624023 -36.196289C9.624023 -35.893555 9.667969 -35.629883 9.755859 -35.405273C9.833984 -35.112305 9.975586 -34.863281 10.180664 -34.658203C10.385742 -34.453125 10.615234 -34.350586 10.869141 -34.350586C11.132812 -34.350586 11.367188 -34.458008 11.572266 -34.672852C11.923828 -35.083008 12.099609 -35.590820 12.099609 -36.196289C12.099609 -36.489258 12.060547 -36.757812 11.982422 -37.001953C11.894531 -37.294922 11.750488 -37.543945 11.550293 -37.749023C11.350098 -37.954102 11.123047 -38.056641 10.869141 -38.056641C10.605469 -38.056641 10.371094 -37.949219 10.166016 -37.734375C9.804688 -37.314453 9.624023 -36.801758 9.624023 -36.196289ZM15.820312 -36.196289C15.820312 -35.903320 15.859375 -35.639648 15.937500 -35.405273C16.015625 -35.112305 16.154785 -34.863281 16.354980 -34.658203C16.555176 -34.453125 16.782227 -34.350586 17.036133 -34.350586C17.309570 -34.350586 17.553711 -34.458008 17.768555 -34.672852C18.110352 -35.063477 18.281250 -35.571289 18.281250 -36.196289C18.281250 -36.489258 18.242188 -36.757812 18.164062 -37.001953C18.085938 -37.294922 17.944336 -37.543945 17.739258 -37.749023C17.534180 -37.954102 17.299805 -38.056641 17.036133 -38.056641C16.772461 -38.056641 16.547852 -37.949219 16.362305 -37.734375C16.000977 -37.333984 15.820312 -36.821289 15.820312 -36.196289ZM15.820312 -36.196289"></path></svg>