<svg width="31.503906" height="22.690430" viewBox="0.000000 -44.750977 31.503906 22.690430" xmlns="http://www.w3.org/2000/svg"><path d="M0.000000 -24.609375L0.000000 -39.873047C0.000000 -40.576172 0.251465 -41.174316 0.754395 -41.667480C1.257324 -42.160645 1.860352 -42.407227 2.563477 -42.407227L3.427734 -42.407227C3.476562 -43.061523 3.745117 -43.615723 4.233398 -44.069824C4.721680 -44.523926 5.302734 -44.750977 5.976562 -44.750977L11.689453 -44.750977C12.353516 -44.750977 12.929688 -44.523926 13.417969 -44.069824C13.906250 -43.615723 14.174805 -43.061523 14.223633 -42.407227L24.755859 -42.407227C25.458984 -42.407227 26.062012 -42.160645 26.564941 -41.667480C27.067871 -41.174316 27.319336 -40.576172 27.319336 -39.873047L27.319336 -37.324219L29.296875 -37.324219C30.000000 -37.324219 30.554199 -37.075195 30.959473 -36.577148C31.364746 -36.079102 31.503906 -35.478516 31.376953 -34.775391L28.403320 -24.609375C28.276367 -23.906250 27.912598 -23.305664 27.312012 -22.807617C26.711426 -22.309570 26.054688 -22.060547 25.341797 -22.060547L2.563477 -22.060547C1.860352 -22.060547 1.257324 -22.309570 0.754395 -22.807617C0.251465 -23.305664 0.000000 -23.906250 0.000000 -24.609375ZM2.563477 -29.707031L4.028320 -34.775391C4.165039 -35.478516 4.533691 -36.079102 5.134277 -36.577148C5.734863 -37.075195 6.391602 -37.324219 7.104492 -37.324219L24.755859 -37.324219L24.755859 -39.873047L2.563477 -39.873047ZM3.750000 -24.609375L25.341797 -24.609375C25.439453 -24.609375 25.551758 -24.660645 25.678711 -24.763184C25.805664 -24.865723 25.878906 -24.970703 25.898438 -25.078125L25.913086 -25.195312L25.942383 -25.312500L28.696289 -34.775391L7.104492 -34.775391C7.016602 -34.775391 6.906738 -34.724121 6.774902 -34.621582C6.643066 -34.519043 6.572266 -34.414062 6.562500 -34.306641L6.547852 -34.189453L6.518555 -34.072266ZM3.750000 -24.609375"></path></svg>