<svg width="33.413086" height="14.663086" viewBox="0.000000 -32.709961 33.413086 14.663086" xmlns="http://www.w3.org/2000/svg"><path d="M0.000000 -20.390625L0.000000 -26.132812C0.000000 -26.669922 0.190430 -27.177734 0.571289 -27.656250L3.662109 -31.699219C4.140625 -32.373047 4.780273 -32.709961 5.581055 -32.709961L27.846680 -32.709961C28.637695 -32.709961 29.272461 -32.373047 29.750977 -31.699219L32.841797 -27.656250C33.222656 -27.177734 33.413086 -26.669922 33.413086 -26.132812L33.413086 -20.390625C33.413086 -19.746094 33.183594 -19.194336 32.724609 -18.735352C32.265625 -18.276367 31.713867 -18.046875 31.069336 -18.046875L2.343750 -18.046875C1.699219 -18.046875 1.147461 -18.276367 0.688477 -18.735352C0.229492 -19.194336 0.000000 -19.746094 0.000000 -20.390625ZM3.786621 -26.301270C3.928223 -26.052246 4.204102 -25.927734 4.614258 -25.927734L10.942383 -25.927734C10.942383 -25.283203 11.169434 -24.731445 11.623535 -24.272461C12.077637 -23.813477 12.626953 -23.583984 13.271484 -23.583984L20.141602 -23.583984C20.786133 -23.583984 21.335449 -23.813477 21.789551 -24.272461C22.243652 -24.731445 22.470703 -25.283203 22.470703 -25.927734L28.798828 -25.927734C29.208984 -25.927734 29.482422 -26.052246 29.619141 -26.301270C29.755859 -26.550293 29.716797 -26.845703 29.501953 -27.187500L27.846680 -29.882812C27.622070 -30.234375 27.287598 -30.534668 26.843262 -30.783691C26.398926 -31.032715 25.971680 -31.157227 25.561523 -31.157227L7.851562 -31.157227C7.441406 -31.157227 7.016602 -31.032715 6.577148 -30.783691C6.137695 -30.534668 5.805664 -30.234375 5.581055 -29.882812L3.896484 -27.187500C3.681641 -26.845703 3.645020 -26.550293 3.786621 -26.301270ZM3.786621 -26.301270"></path></svg>