<svg width="24.821777" height="28.125000" viewBox="-0.009766 -52.895508 24.821777 28.125000" xmlns="http://www.w3.org/2000/svg"><path d="M0.000000 -44.707031C0.009766 -45.400391 0.190430 -46.035156 0.541992 -46.611328C0.942383 -47.265625 1.516113 -47.744141 2.263184 -48.046875C3.010254 -48.349609 3.828125 -48.432617 4.716797 -48.295898C4.697266 -48.940430 4.687500 -49.438477 4.687500 -49.790039C4.687500 -50.678711 5.378418 -51.418457 6.760254 -52.009277C8.142090 -52.600098 10.024414 -52.895508 12.407227 -52.895508C14.780273 -52.895508 16.657715 -52.600098 18.039551 -52.009277C19.421387 -51.418457 20.112305 -50.678711 20.112305 -49.790039C20.112305 -49.760742 20.097656 -49.262695 20.068359 -48.295898C20.957031 -48.432617 21.777344 -48.349609 22.529297 -48.046875C23.281250 -47.744141 23.862305 -47.265625 24.272461 -46.611328C24.624023 -46.035156 24.802246 -45.400391 24.807129 -44.707031C24.812012 -44.013672 24.643555 -43.325195 24.301758 -42.641602C24.038086 -42.114258 23.581543 -41.606445 22.932129 -41.118164C22.282715 -40.629883 21.342773 -40.019531 20.112305 -39.287109C19.399414 -38.857422 18.869629 -38.532715 18.522949 -38.312988C18.176270 -38.093262 17.709961 -37.780762 17.124023 -37.375488C16.538086 -36.970215 16.054688 -36.586914 15.673828 -36.225586C15.292969 -35.864258 14.980469 -35.502930 14.736328 -35.141602C14.492188 -34.653320 14.370117 -34.086914 14.370117 -33.442383C14.370117 -32.465820 14.689941 -31.540527 15.329590 -30.666504C15.969238 -29.792480 16.708984 -29.228516 17.548828 -28.974609C18.369141 -28.720703 18.923340 -28.452148 19.211426 -28.168945C19.499512 -27.885742 19.643555 -27.451172 19.643555 -26.865234C19.643555 -26.279297 18.972168 -25.783691 17.629395 -25.378418C16.286621 -24.973145 14.545898 -24.770508 12.407227 -24.770508C10.268555 -24.770508 8.525391 -24.973145 7.177734 -25.378418C5.830078 -25.783691 5.156250 -26.279297 5.156250 -26.865234C5.156250 -27.451172 5.300293 -27.885742 5.588379 -28.168945C5.876465 -28.452148 6.430664 -28.720703 7.250977 -28.974609C8.090820 -29.228516 8.830566 -29.792480 9.470215 -30.666504C10.109863 -31.540527 10.429688 -32.465820 10.429688 -33.442383C10.429688 -34.086914 10.307617 -34.653320 10.063477 -35.141602C9.868164 -35.434570 9.604492 -35.742188 9.272461 -36.064453C8.940430 -36.386719 8.630371 -36.662598 8.342285 -36.892090C8.054199 -37.121582 7.641602 -37.414551 7.104492 -37.770996C6.567383 -38.127441 6.179199 -38.378906 5.939941 -38.525391C5.700684 -38.671875 5.283203 -38.925781 4.687500 -39.287109C3.857422 -39.775391 3.220215 -40.166016 2.775879 -40.458984C2.331543 -40.751953 1.884766 -41.096191 1.435547 -41.491699C0.986328 -41.887207 0.668945 -42.270508 0.483398 -42.641602C0.151367 -43.325195 -0.009766 -44.013672 0.000000 -44.707031ZM2.709961 -45.263672C2.465820 -44.892578 2.485352 -44.404297 2.768555 -43.798828C2.954102 -43.437500 3.945312 -42.714844 5.742188 -41.630859C5.361328 -42.783203 5.083008 -44.116211 4.907227 -45.629883C4.868164 -45.639648 4.804688 -45.659180 4.716797 -45.688477C4.628906 -45.717773 4.565430 -45.737305 4.526367 -45.747070C4.165039 -45.795898 3.964844 -45.820312 3.925781 -45.820312C3.349609 -45.820312 2.944336 -45.634766 2.709961 -45.263672ZM7.543945 -49.672852C7.543945 -49.282227 8.017578 -48.950195 8.964844 -48.676758C9.912109 -48.403320 11.059570 -48.266602 12.407227 -48.266602C13.745117 -48.266602 14.885254 -48.403320 15.827637 -48.676758C16.770020 -48.950195 17.241211 -49.282227 17.241211 -49.672852C17.241211 -50.063477 16.770020 -50.395508 15.827637 -50.668945C14.885254 -50.942383 13.745117 -51.079102 12.407227 -51.079102C11.069336 -51.079102 9.924316 -50.942383 8.972168 -50.668945C8.020020 -50.395508 7.543945 -50.063477 7.543945 -49.672852ZM19.057617 -41.630859C20.854492 -42.714844 21.845703 -43.437500 22.031250 -43.798828C22.314453 -44.394531 22.338867 -44.882812 22.104492 -45.263672C21.782227 -45.761719 21.171875 -45.922852 20.273438 -45.747070C20.195312 -45.727539 20.068359 -45.688477 19.892578 -45.629883C19.707031 -44.047852 19.428711 -42.714844 19.057617 -41.630859ZM19.057617 -41.630859"></path></svg>