<svg width="31.533203" height="28.125000" viewBox="-0.141602 -52.895508 31.533203 28.125000" xmlns="http://www.w3.org/2000/svg"><path d="M0.336914 -39.631348C-0.141602 -41.442871 -0.141602 -43.254395 0.336914 -45.065918C0.815430 -46.877441 1.733398 -48.457031 3.090820 -49.804688C4.106445 -50.820312 5.261230 -51.589355 6.555176 -52.111816C7.849121 -52.634277 9.184570 -52.895508 10.561523 -52.895508C11.948242 -52.895508 13.286133 -52.634277 14.575195 -52.111816C15.864258 -51.589355 17.016602 -50.820312 18.032227 -49.804688C19.116211 -48.730469 19.921875 -47.487793 20.449219 -46.076660C20.976562 -44.665527 21.198730 -43.229980 21.115723 -41.770020C21.032715 -40.310059 20.659180 -38.920898 19.995117 -37.602539C20.620117 -37.397461 21.137695 -37.089844 21.547852 -36.679688L26.997070 -31.215820C27.739258 -30.473633 28.110352 -29.584961 28.110352 -28.549805C28.110352 -27.514648 27.739258 -26.625977 26.997070 -25.883789C26.254883 -25.141602 25.371094 -24.770508 24.345703 -24.770508C23.300781 -24.770508 22.407227 -25.141602 21.665039 -25.883789L16.201172 -31.333008C15.800781 -31.733398 15.493164 -32.255859 15.278320 -32.900391C13.774414 -32.158203 12.202148 -31.787109 10.561523 -31.787109C9.184570 -31.787109 7.849121 -32.048340 6.555176 -32.570801C5.261230 -33.093262 4.106445 -33.862305 3.090820 -34.877930C1.733398 -36.235352 0.815430 -37.819824 0.336914 -39.631348ZM3.544922 -42.348633C3.544922 -40.395508 4.228516 -38.735352 5.595703 -37.368164C6.259766 -36.704102 7.019043 -36.193848 7.873535 -35.837402C8.728027 -35.480957 9.624023 -35.302734 10.561523 -35.302734C12.524414 -35.302734 14.184570 -35.991211 15.541992 -37.368164C16.206055 -38.022461 16.716309 -38.779297 17.072754 -39.638672C17.429199 -40.498047 17.607422 -41.396484 17.607422 -42.333984C17.607422 -44.287109 16.918945 -45.952148 15.541992 -47.329102C14.174805 -48.696289 12.514648 -49.379883 10.561523 -49.379883C8.618164 -49.379883 6.962891 -48.696289 5.595703 -47.329102C4.228516 -45.961914 3.544922 -44.301758 3.544922 -42.348633ZM22.280273 -48.354492C22.280273 -48.598633 22.368164 -48.806152 22.543945 -48.977051C22.719727 -49.147949 22.924805 -49.233398 23.159180 -49.233398L25.971680 -49.233398L25.971680 -52.031250C25.971680 -52.275391 26.054688 -52.480469 26.220703 -52.646484C26.386719 -52.812500 26.591797 -52.895508 26.835938 -52.895508C27.080078 -52.895508 27.285156 -52.812500 27.451172 -52.646484C27.617188 -52.480469 27.700195 -52.275391 27.700195 -52.031250L27.700195 -49.233398L30.512695 -49.233398C30.747070 -49.233398 30.952148 -49.147949 31.127930 -48.977051C31.303711 -48.806152 31.391602 -48.598633 31.391602 -48.354492C31.391602 -48.110352 31.303711 -47.902832 31.127930 -47.731934C30.952148 -47.561035 30.747070 -47.475586 30.512695 -47.475586L27.700195 -47.475586L27.700195 -44.677734C27.700195 -44.433594 27.617188 -44.226074 27.451172 -44.055176C27.285156 -43.884277 27.080078 -43.798828 26.835938 -43.798828C26.601562 -43.798828 26.396484 -43.886719 26.220703 -44.062500C26.054688 -44.228516 25.971680 -44.433594 25.971680 -44.677734L25.971680 -47.475586L23.159180 -47.475586C22.924805 -47.475586 22.714844 -47.558594 22.529297 -47.724609C22.363281 -47.910156 22.280273 -48.120117 22.280273 -48.354492ZM22.280273 -48.354492"></path></svg>