<svg width="28.125000" height="28.125000" viewBox="0.000000 -52.895508 28.125000 28.125000" xmlns="http://www.w3.org/2000/svg"><path d="M0.000000 -38.833008C0.000000 -40.747070 0.371094 -42.570801 1.113281 -44.304199C1.855469 -46.037598 2.854004 -47.531738 4.108887 -48.786621C5.363770 -50.041504 6.857910 -51.040039 8.591309 -51.782227C10.324707 -52.524414 12.148438 -52.895508 14.062500 -52.895508C15.966797 -52.895508 17.788086 -52.524414 19.526367 -51.782227C21.264648 -51.040039 22.761230 -50.041504 24.016113 -48.786621C25.270996 -47.531738 26.269531 -46.037598 27.011719 -44.304199C27.753906 -42.570801 28.125000 -40.747070 28.125000 -38.833008C28.125000 -36.928711 27.753906 -35.107422 27.011719 -33.369141C26.269531 -31.630859 25.270996 -30.134277 24.016113 -28.879395C22.761230 -27.624512 21.264648 -26.625977 19.526367 -25.883789C17.788086 -25.141602 15.966797 -24.770508 14.062500 -24.770508C12.148438 -24.770508 10.324707 -25.141602 8.591309 -25.883789C6.857910 -26.625977 5.363770 -27.624512 4.108887 -28.879395C2.854004 -30.134277 1.855469 -31.630859 1.113281 -33.369141C0.371094 -35.107422 0.000000 -36.928711 0.000000 -38.833008ZM11.953125 -43.930664C11.953125 -43.354492 12.145996 -42.895508 12.531738 -42.553711C12.917480 -42.211914 13.427734 -42.041016 14.062500 -42.041016C14.707031 -42.041016 15.219727 -42.211914 15.600586 -42.553711C15.981445 -42.895508 16.171875 -43.354492 16.171875 -43.930664C16.171875 -44.506836 15.981445 -44.963379 15.600586 -45.300293C15.219727 -45.637207 14.707031 -45.805664 14.062500 -45.805664C13.427734 -45.805664 12.917480 -45.634766 12.531738 -45.292969C12.145996 -44.951172 11.953125 -44.497070 11.953125 -43.930664ZM12.084961 -31.875000L16.054688 -31.875000L16.054688 -40.854492L12.084961 -40.854492ZM12.084961 -31.875000"></path></svg>