<svg width="28.125000" height="20.595703" viewBox="0.000000 -41.616211 28.125000 20.595703" xmlns="http://www.w3.org/2000/svg"><path d="M0.000000 -23.247070L0.000000 -39.389648C0.000000 -39.995117 0.227051 -40.517578 0.681152 -40.957031C1.135254 -41.396484 1.679688 -41.616211 2.314453 -41.616211L25.854492 -41.616211C26.489258 -41.616211 27.026367 -41.401367 27.465820 -40.971680C27.905273 -40.541992 28.125000 -40.014648 28.125000 -39.389648L28.125000 -23.247070C28.125000 -22.641602 27.902832 -22.119141 27.458496 -21.679688C27.014160 -21.240234 26.479492 -21.020508 25.854492 -21.020508L2.314453 -21.020508C1.679688 -21.020508 1.135254 -21.240234 0.681152 -21.679688C0.227051 -22.119141 0.000000 -22.641602 0.000000 -23.247070ZM2.314453 -23.261719L25.854492 -23.261719L25.854492 -39.418945L2.314453 -39.418945ZM4.790039 -26.074219C4.790039 -26.289062 4.836426 -26.467285 4.929199 -26.608887C5.021973 -26.750488 5.136719 -26.821289 5.273438 -26.821289L10.649414 -26.821289C10.786133 -26.821289 10.903320 -26.750488 11.000977 -26.608887C11.098633 -26.467285 11.147461 -26.289062 11.147461 -26.074219C11.147461 -25.859375 11.098633 -25.676270 11.000977 -25.524902C10.903320 -25.373535 10.786133 -25.297852 10.649414 -25.297852L5.273438 -25.297852C5.136719 -25.297852 5.021973 -25.373535 4.929199 -25.524902C4.836426 -25.676270 4.790039 -25.859375 4.790039 -26.074219ZM4.790039 -28.872070C4.790039 -29.086914 4.836426 -29.265137 4.929199 -29.406738C5.021973 -29.548340 5.136719 -29.619141 5.273438 -29.619141L14.926758 -29.619141C15.063477 -29.619141 15.180664 -29.545898 15.278320 -29.399414C15.375977 -29.252930 15.424805 -29.077148 15.424805 -28.872070C15.424805 -28.657227 15.375977 -28.474121 15.278320 -28.322754C15.180664 -28.171387 15.063477 -28.095703 14.926758 -28.095703L5.273438 -28.095703C5.136719 -28.095703 5.021973 -28.171387 4.929199 -28.322754C4.836426 -28.474121 4.790039 -28.657227 4.790039 -28.872070ZM4.790039 -32.329102L4.790039 -34.702148C4.790039 -34.975586 4.885254 -35.209961 5.075684 -35.405273C5.266113 -35.600586 5.498047 -35.698242 5.771484 -35.698242L8.657227 -35.698242C8.930664 -35.698242 9.162598 -35.600586 9.353027 -35.405273C9.543457 -35.209961 9.638672 -34.975586 9.638672 -34.702148L9.638672 -32.329102C9.638672 -32.055664 9.543457 -31.823730 9.353027 -31.633301C9.162598 -31.442871 8.930664 -31.347656 8.657227 -31.347656L5.771484 -31.347656C5.498047 -31.347656 5.266113 -31.442871 5.075684 -31.633301C4.885254 -31.823730 4.790039 -32.055664 4.790039 -32.329102ZM5.947266 -32.475586L8.481445 -32.475586L8.481445 -34.541016L5.947266 -34.541016ZM16.245117 -28.872070C16.245117 -29.077148 16.293945 -29.252930 16.391602 -29.399414C16.489258 -29.545898 16.606445 -29.619141 16.743164 -29.619141L18.750000 -29.619141C18.886719 -29.619141 19.003906 -29.548340 19.101562 -29.406738C19.199219 -29.265137 19.248047 -29.086914 19.248047 -28.872070C19.248047 -28.657227 19.199219 -28.474121 19.101562 -28.322754C19.003906 -28.171387 18.886719 -28.095703 18.750000 -28.095703L16.743164 -28.095703C16.606445 -28.095703 16.489258 -28.171387 16.391602 -28.322754C16.293945 -28.474121 16.245117 -28.657227 16.245117 -28.872070ZM20.083008 -28.872070C20.083008 -29.086914 20.134277 -29.265137 20.236816 -29.406738C20.339355 -29.548340 20.458984 -29.619141 20.595703 -29.619141L22.602539 -29.619141C22.739258 -29.619141 22.856445 -29.548340 22.954102 -29.406738C23.051758 -29.265137 23.100586 -29.086914 23.100586 -28.872070C23.100586 -28.657227 23.051758 -28.474121 22.954102 -28.322754C22.856445 -28.171387 22.739258 -28.095703 22.602539 -28.095703L20.595703 -28.095703C20.458984 -28.095703 20.339355 -28.171387 20.236816 -28.322754C20.134277 -28.474121 20.083008 -28.657227 20.083008 -28.872070ZM20.083008 -28.872070"></path></svg>