<svg width="20.698242" height="28.125000" viewBox="0.000000 -52.895508 20.698242 28.125000" xmlns="http://www.w3.org/2000/svg"><path d="M0.000000 -27.436523L0.000000 -39.228516C0.000000 -39.511719 0.100098 -39.748535 0.300293 -39.938965C0.500488 -40.129395 0.747070 -40.224609 1.040039 -40.224609L2.387695 -40.224609L2.387695 -44.692383C2.387695 -45.786133 2.590332 -46.831055 2.995605 -47.827148C3.400879 -48.823242 3.964844 -49.702148 4.687500 -50.463867C5.400391 -51.225586 6.247559 -51.821289 7.229004 -52.250977C8.210449 -52.680664 9.248047 -52.895508 10.341797 -52.895508C11.435547 -52.895508 12.475586 -52.680664 13.461914 -52.250977C14.448242 -51.821289 15.297852 -51.225586 16.010742 -50.463867C16.733398 -49.702148 17.294922 -48.823242 17.695312 -47.827148C18.095703 -46.831055 18.295898 -45.786133 18.295898 -44.692383L18.295898 -40.224609L19.658203 -40.224609C19.951172 -40.224609 20.197754 -40.129395 20.397949 -39.938965C20.598145 -39.748535 20.698242 -39.511719 20.698242 -39.228516L20.698242 -27.436523C20.698242 -27.182617 20.617676 -26.992188 20.456543 -26.865234C20.295410 -26.738281 20.029297 -26.596680 19.658203 -26.440430C19.462891 -26.352539 19.116211 -26.230469 18.618164 -26.074219C18.120117 -25.917969 17.458496 -25.734863 16.633301 -25.524902C15.808105 -25.314941 14.829102 -25.136719 13.696289 -24.990234C12.563477 -24.843750 11.445312 -24.770508 10.341797 -24.770508C7.246094 -24.770508 4.145508 -25.327148 1.040039 -26.440430C0.708008 -26.547852 0.451660 -26.677246 0.270996 -26.828613C0.090332 -26.979980 0.000000 -27.182617 0.000000 -27.436523ZM6.181641 -40.224609L14.516602 -40.224609L14.516602 -44.692383C14.516602 -45.961914 14.096680 -47.041016 13.256836 -47.929688C12.426758 -48.779297 11.455078 -49.204102 10.341797 -49.204102C9.228516 -49.204102 8.256836 -48.779297 7.426758 -47.929688C6.596680 -47.050781 6.181641 -45.971680 6.181641 -44.692383ZM7.031250 -30.190430C7.031250 -29.965820 7.114258 -29.770508 7.280273 -29.604492C7.456055 -29.428711 7.651367 -29.340820 7.866211 -29.340820C8.100586 -29.340820 8.295898 -29.428711 8.452148 -29.604492L10.341797 -31.479492L12.231445 -29.604492C12.387695 -29.428711 12.583008 -29.340820 12.817383 -29.340820C13.032227 -29.340820 13.227539 -29.428711 13.403320 -29.604492C13.569336 -29.770508 13.652344 -29.968262 13.652344 -30.197754C13.652344 -30.427246 13.569336 -30.620117 13.403320 -30.776367L11.513672 -32.666016L13.403320 -34.541016C13.569336 -34.707031 13.652344 -34.904785 13.652344 -35.134277C13.652344 -35.363770 13.569336 -35.561523 13.403320 -35.727539C13.237305 -35.893555 13.041992 -35.976562 12.817383 -35.976562C12.592773 -35.976562 12.397461 -35.893555 12.231445 -35.727539L10.341797 -33.837891L8.452148 -35.727539C8.286133 -35.893555 8.090820 -35.976562 7.866211 -35.976562C7.641602 -35.976562 7.446289 -35.893555 7.280273 -35.727539C7.114258 -35.561523 7.031250 -35.363770 7.031250 -35.134277C7.031250 -34.904785 7.114258 -34.707031 7.280273 -34.541016L9.169922 -32.666016L7.280273 -30.776367C7.114258 -30.610352 7.031250 -30.415039 7.031250 -30.190430ZM7.031250 -30.190430"></path></svg>