<svg width="17.622070" height="28.125000" viewBox="0.000000 -52.895508 17.622070 28.125000" xmlns="http://www.w3.org/2000/svg"><path d="M0.000000 -33.588867C0.000000 -33.872070 0.014648 -34.145508 0.043945 -34.409180L0.000000 -34.409180C0.000000 -35.541992 0.117188 -36.711426 0.351562 -37.917480C0.585938 -39.123535 0.852051 -40.156250 1.149902 -41.015625C1.447754 -41.875000 1.733398 -42.802734 2.006836 -43.798828C2.280273 -44.794922 2.458496 -45.651855 2.541504 -46.369629C2.624512 -47.087402 2.568359 -47.910156 2.373047 -48.837891C2.431641 -48.828125 2.514648 -48.801270 2.622070 -48.757324C2.729492 -48.713379 2.939453 -48.579102 3.251953 -48.354492C3.564453 -48.129883 3.872070 -47.844238 4.174805 -47.497559C4.477539 -47.150879 4.826660 -46.628418 5.222168 -45.930176C5.617676 -45.231934 5.981445 -44.428711 6.313477 -43.520508C6.850586 -44.018555 7.316895 -44.536133 7.712402 -45.073242C8.107910 -45.610352 8.481445 -46.250000 8.833008 -46.992188C9.184570 -47.734375 9.453125 -48.601074 9.638672 -49.592285C9.824219 -50.583496 9.916992 -51.684570 9.916992 -52.895508C10.024414 -52.827148 10.170898 -52.729492 10.356445 -52.602539C10.541992 -52.475586 10.900879 -52.158203 11.433105 -51.650391C11.965332 -51.142578 12.475586 -50.576172 12.963867 -49.951172C13.452148 -49.326172 13.991699 -48.469238 14.582520 -47.380371C15.173340 -46.291504 15.681152 -45.124512 16.105957 -43.879395C16.530762 -42.634277 16.889648 -41.110840 17.182617 -39.309082C17.475586 -37.507324 17.622070 -35.600586 17.622070 -33.588867C17.622070 -31.997070 17.229004 -30.524902 16.442871 -29.172363C15.656738 -27.819824 14.587402 -26.748047 13.234863 -25.957031C11.882324 -25.166016 10.410156 -24.770508 8.818359 -24.770508C7.216797 -24.770508 5.739746 -25.166016 4.387207 -25.957031C3.034668 -26.748047 1.965332 -27.819824 1.179199 -29.172363C0.393066 -30.524902 0.000000 -31.997070 0.000000 -33.588867ZM5.698242 -31.391602C5.698242 -30.522461 6.003418 -29.782715 6.613770 -29.172363C7.224121 -28.562012 7.958984 -28.256836 8.818359 -28.256836C9.677734 -28.256836 10.412598 -28.562012 11.022949 -29.172363C11.633301 -29.782715 11.938477 -30.522461 11.938477 -31.391602C11.938477 -32.368164 11.845703 -33.271484 11.660156 -34.101562C11.474609 -34.931641 11.247559 -35.590820 10.979004 -36.079102C10.710449 -36.567383 10.441895 -36.982422 10.173340 -37.324219C9.904785 -37.666016 9.677734 -37.900391 9.492188 -38.027344L9.213867 -38.232422C9.213867 -37.421875 9.101562 -36.762695 8.876953 -36.254883C8.652344 -35.747070 8.334961 -35.302734 7.924805 -34.921875C7.739258 -35.429688 7.531738 -35.839844 7.302246 -36.152344C7.072754 -36.464844 6.884766 -36.650391 6.738281 -36.708984L6.533203 -36.796875C6.640625 -36.386719 6.625977 -35.920410 6.489258 -35.397949C6.352539 -34.875488 6.186523 -34.274902 5.991211 -33.596191C5.795898 -32.917480 5.698242 -32.275391 5.698242 -31.669922L5.712891 -31.669922C5.703125 -31.611328 5.698242 -31.518555 5.698242 -31.391602ZM5.698242 -31.391602"></path></svg>