<svg width="36.679688" height="28.125000" viewBox="0.000000 -52.895508 36.679688 28.125000" xmlns="http://www.w3.org/2000/svg"><path d="M0.000000 -43.125000C0.000000 -44.277344 0.407715 -45.261230 1.223145 -46.076660C2.038574 -46.892090 3.022461 -47.299805 4.174805 -47.299805C5.336914 -47.299805 6.323242 -46.892090 7.133789 -46.076660C7.944336 -45.261230 8.349609 -44.277344 8.349609 -43.125000C8.349609 -42.333984 8.139648 -41.606445 7.719727 -40.942383L16.171875 -32.504883C16.562500 -32.739258 16.958008 -32.905273 17.358398 -33.002930L17.358398 -44.677734C16.430664 -44.902344 15.666504 -45.390625 15.065918 -46.142578C14.465332 -46.894531 14.165039 -47.758789 14.165039 -48.735352C14.165039 -49.887695 14.572754 -50.869141 15.388184 -51.679688C16.203613 -52.490234 17.192383 -52.895508 18.354492 -52.895508C19.506836 -52.895508 20.488281 -52.490234 21.298828 -51.679688C22.109375 -50.869141 22.514648 -49.887695 22.514648 -48.735352C22.514648 -47.758789 22.214355 -46.894531 21.613770 -46.142578C21.013184 -45.390625 20.249023 -44.902344 19.321289 -44.677734L19.321289 -33.002930C19.721680 -32.905273 20.117188 -32.739258 20.507812 -32.504883L28.959961 -40.942383C28.549805 -41.616211 28.344727 -42.343750 28.344727 -43.125000C28.344727 -44.287109 28.750000 -45.273438 29.560547 -46.083984C30.371094 -46.894531 31.352539 -47.299805 32.504883 -47.299805C33.657227 -47.299805 34.641113 -46.892090 35.456543 -46.076660C36.271973 -45.261230 36.679688 -44.277344 36.679688 -43.125000C36.679688 -41.972656 36.271973 -40.986328 35.456543 -40.166016C34.641113 -39.345703 33.657227 -38.935547 32.504883 -38.935547C31.772461 -38.935547 31.049805 -39.150391 30.336914 -39.580078L21.884766 -31.127930C22.304688 -30.463867 22.514648 -29.741211 22.514648 -28.959961C22.514648 -27.797852 22.109375 -26.809082 21.298828 -25.993652C20.488281 -25.178223 19.506836 -24.770508 18.354492 -24.770508C17.192383 -24.770508 16.203613 -25.178223 15.388184 -25.993652C14.572754 -26.809082 14.165039 -27.797852 14.165039 -28.959961C14.165039 -29.741211 14.375000 -30.463867 14.794922 -31.127930L6.342773 -39.580078C5.629883 -39.150391 4.907227 -38.935547 4.174805 -38.935547C3.022461 -38.935547 2.038574 -39.345703 1.223145 -40.166016C0.407715 -40.986328 0.000000 -41.972656 0.000000 -43.125000ZM0.000000 -43.125000"></path></svg>