<svg width="27.788086" height="27.729492" viewBox="0.000000 -52.470703 27.788086 27.729492" xmlns="http://www.w3.org/2000/svg"><path d="M0.000000 -35.866699C0.000000 -36.818848 0.341797 -37.636719 1.025391 -38.320312L14.033203 -51.284180C14.804688 -52.075195 15.625000 -52.470703 16.494141 -52.470703L24.331055 -52.470703C25.288086 -52.470703 26.103516 -52.133789 26.777344 -51.459961C27.451172 -50.786133 27.788086 -49.970703 27.788086 -49.013672L27.788086 -41.191406C27.788086 -40.341797 27.397461 -39.526367 26.616211 -38.745117L13.608398 -25.766602C12.924805 -25.083008 12.106934 -24.741211 11.154785 -24.741211C10.202637 -24.741211 9.384766 -25.083008 8.701172 -25.766602L1.025391 -33.442383C0.341797 -34.106445 0.000000 -34.914551 0.000000 -35.866699ZM16.743164 -44.677734C16.743164 -43.789062 17.060547 -43.029785 17.695312 -42.399902C18.330078 -41.770020 19.096680 -41.455078 19.995117 -41.455078C20.883789 -41.455078 21.643066 -41.770020 22.272949 -42.399902C22.902832 -43.029785 23.217773 -43.789062 23.217773 -44.677734C23.217773 -45.566406 22.902832 -46.325684 22.272949 -46.955566C21.643066 -47.585449 20.883789 -47.900391 19.995117 -47.900391C19.096680 -47.900391 18.330078 -47.585449 17.695312 -46.955566C17.060547 -46.325684 16.743164 -45.566406 16.743164 -44.677734ZM16.743164 -44.677734"></path></svg>