<svg width="28.125000" height="28.125000" viewBox="0.000000 -52.895508 28.125000 28.125000" xmlns="http://www.w3.org/2000/svg"><path d="M0.000000 -38.833008C0.000000 -40.737305 0.371094 -42.558594 1.113281 -44.296875C1.855469 -46.035156 2.856445 -47.531738 4.116211 -48.786621C5.375977 -50.041504 6.872559 -51.040039 8.605957 -51.782227C10.339355 -52.524414 12.158203 -52.895508 14.062500 -52.895508C15.966797 -52.895508 17.788086 -52.524414 19.526367 -51.782227C21.264648 -51.040039 22.761230 -50.041504 24.016113 -48.786621C25.270996 -47.531738 26.269531 -46.035156 27.011719 -44.296875C27.753906 -42.558594 28.125000 -40.737305 28.125000 -38.833008C28.125000 -36.928711 27.753906 -35.109863 27.011719 -33.376465C26.269531 -31.643066 25.270996 -30.146484 24.016113 -28.886719C22.761230 -27.626953 21.264648 -26.625977 19.526367 -25.883789C17.788086 -25.141602 15.966797 -24.770508 14.062500 -24.770508C12.158203 -24.770508 10.339355 -25.141602 8.605957 -25.883789C6.872559 -26.625977 5.375977 -27.626953 4.116211 -28.886719C2.856445 -30.146484 1.855469 -31.643066 1.113281 -33.376465C0.371094 -35.109863 0.000000 -36.928711 0.000000 -38.833008ZM2.416992 -38.833008C2.416992 -37.260742 2.724609 -35.754395 3.339844 -34.313965C3.955078 -32.873535 4.782715 -31.633301 5.822754 -30.593262C6.862793 -29.553223 8.103027 -28.725586 9.543457 -28.110352C10.983887 -27.495117 12.490234 -27.187500 14.062500 -27.187500C16.816406 -27.187500 19.267578 -28.056641 21.416016 -29.794922L19.848633 -31.362305C18.129883 -30.034180 16.201172 -29.370117 14.062500 -29.370117C12.773438 -29.370117 11.545410 -29.619141 10.378418 -30.117188C9.211426 -30.615234 8.205566 -31.286621 7.360840 -32.131348C6.516113 -32.976074 5.842285 -33.984375 5.339355 -35.156250C4.836426 -36.328125 4.584961 -37.553711 4.584961 -38.833008C4.584961 -41.225586 5.378418 -43.317871 6.965332 -45.109863C8.552246 -46.901855 10.517578 -47.949219 12.861328 -48.251953L12.861328 -50.434570C10.927734 -50.229492 9.165039 -49.589844 7.573242 -48.515625C5.981445 -47.441406 4.724121 -46.052246 3.801270 -44.348145C2.878418 -42.644043 2.416992 -40.805664 2.416992 -38.833008ZM7.001953 -38.833008C7.001953 -37.358398 7.436523 -36.005859 8.305664 -34.775391L10.517578 -37.001953C10.205078 -37.626953 10.048828 -38.237305 10.048828 -38.833008C10.048828 -39.428711 10.205078 -40.048828 10.517578 -40.693359L8.305664 -42.905273C7.436523 -41.694336 7.001953 -40.336914 7.001953 -38.833008ZM9.990234 -33.061523C11.220703 -32.202148 12.583008 -31.772461 14.077148 -31.772461C15.561523 -31.772461 16.918945 -32.202148 18.149414 -33.061523L15.922852 -35.288086C15.297852 -34.975586 14.677734 -34.819336 14.062500 -34.819336C13.457031 -34.819336 12.841797 -34.975586 12.216797 -35.288086ZM9.990234 -44.619141L12.216797 -42.392578C12.353516 -42.470703 12.568359 -42.558594 12.861328 -42.656250L12.861328 -45.805664C11.767578 -45.610352 10.810547 -45.214844 9.990234 -44.619141ZM15.263672 -42.656250C16.093750 -42.392578 16.770020 -41.911621 17.292480 -41.213379C17.814941 -40.515137 18.076172 -39.721680 18.076172 -38.833008C18.076172 -38.178711 17.919922 -37.568359 17.607422 -37.001953L19.833984 -34.775391C20.703125 -36.005859 21.137695 -37.358398 21.137695 -38.833008C21.137695 -40.571289 20.578613 -42.094727 19.460449 -43.403320C18.342285 -44.711914 16.943359 -45.512695 15.263672 -45.805664ZM15.263672 -48.251953C16.416016 -48.105469 17.502441 -47.756348 18.522949 -47.204590C19.543457 -46.652832 20.422363 -45.961914 21.159668 -45.131836C21.896973 -44.301758 22.480469 -43.339844 22.910156 -42.246094C23.339844 -41.152344 23.554688 -40.014648 23.554688 -38.833008C23.554688 -36.684570 22.890625 -34.760742 21.562500 -33.061523L23.100586 -31.508789C24.838867 -33.637695 25.708008 -36.079102 25.708008 -38.833008C25.708008 -40.805664 25.246582 -42.644043 24.323730 -44.348145C23.400879 -46.052246 22.143555 -47.441406 20.551758 -48.515625C18.959961 -49.589844 17.197266 -50.229492 15.263672 -50.434570ZM15.263672 -48.251953"></path></svg>