<svg xmlns="http://www.w3.org/2000/svg" width="1789" height="1000"><path d="M1363.667 0c-29.19 .184 -58.447 6.773 -85.752 19.983 -4.036 2.24 -8.267 4.283 -12.305 6.577 -37.492 22.478 -36.821 12.758 -79.648 14.444 -31.602 1.244 -62.413 11.952 -89.119 28.763 -26.072 16.367 -48.688 38.914 -64.448 64.322 -16.783 26.985 -26.325 57.814 -25.08 89.057 .996 25.961 22.438 46.357 48.179 46.385l0 .126l619.336 0c26.404 0 47.871 -21.189 48.367 -47.455 2.378 -32.597 -6.909 -64.097 -23.885 -91.385 -14.874 -23.888 -36.081 -44.827 -60.577 -60.42 -24.579 -15.676 -52.914 -26.209 -81.945 -29.141 -20.709 -2.102 -41.739 -.4 -62.088 5.821 -3.179 -2.599 -6.441 -5.151 -9.787 -7.584 -36.067 -26.364 -78.586 -39.762 -121.249 -39.494zm-695.208 46.763c-60.974 0 -110.456 65.277 -110.456 145.417 0 80.062 49.481 145.291 110.456 145.291 60.974 0 110.424 -65.23 110.424 -145.291 0 -80.141 -49.449 -145.417 -110.424 -145.417zm695.082 50.162c29.849 -.526 60.084 11.683 83.046 37.48 15.012 19.021 42.279 24.057 63.346 10.951 11.392 -7.078 24.446 -9.386 37.385 -8.087 13.603 1.354 27.339 6.589 39.588 14.413 9.096 5.806 17.341 13.082 23.947 21.21l-487.357 0c7.051 -8.211 15.478 -15.596 24.766 -21.43 13.133 -8.266 27.597 -13.545 41.476 -14.098 10.507 -.414 21.128 1.994 30.776 7.994 19.908 12.47 46.451 8.787 62.182 -9.598 21.51 -25.049 50.993 -38.307 80.843 -38.833zm-1040.42 48.714l-268.9 .031c-29.928 0 -54.221 24.294 -54.221 54.221 0 29.928 24.293 54.221 54.221 54.221l268.9 -.031c29.928 0 54.221 -24.293 54.221 -54.221 0 -29.928 -24.293 -54.221 -54.221 -54.221zm727.306 190.04c-23.611 0 -42.766 19.153 -42.766 42.766l.157 3.178 -.535 412.052l-.157 0l0 .157l.157 0c.048 56.635 23.312 108.235 60.515 145.511l.095 .063 .062 .126 .221 .189c37.227 37.056 88.502 60.078 144.82 60.199l0 .157l220.188 0c1.662 0 3.328 -.143 4.94 -.315 13.469 -.416 26.516 -2.067 38.959 -4.878 14.275 -3.252 27.846 -7.91 40.532 -13.752 53.579 -24.761 95.027 -72.043 111.966 -129.557l30.273 0l0 -.189c35.492 -.048 67.783 -14.552 91.102 -37.92 23.1 -23.124 37.515 -55.162 37.637 -90.409l0 -.189l.157 0l0 -.346l.189 -257.792l0 -.157l-.189 0c-.048 -35.418 -14.532 -67.706 -37.826 -90.976l.063 -.095c-23.123 -23.123 -55.205 -37.491 -90.599 -37.637l-.189 0l0 -.189l-609.771 0zm590.48 98.308c10.777 .067 20.734 4.653 28.07 11.989l.095 -.095 .062 .095c7.314 7.291 11.874 17.363 11.896 28.322l-.157 0l0 .157l-.157 249.296l0 .346l.157 0c-.091 10.868 -4.69 20.906 -11.958 28.196 -7.29 7.315 -17.403 11.905 -28.385 11.927l0 -.157l-60.451 0l0 .095c-20.172 0 -37.47 15.479 -39.304 35.969 -3.736 40.439 -29.441 74.925 -65.077 91.385 -7.041 3.238 -14.374 5.782 -21.776 7.458 -6.77 1.517 -13.716 2.458 -20.643 2.707l-2.675 -.063l-203.981 0l0 .157c-30.159 -.045 -57.711 -12.448 -77.885 -32.35l-.755 -.661c-20.286 -20.265 -32.958 -48.298 -32.979 -78.955l.157 0l0 -.157l-.157 0l.472 -355.502l102.053 0l0 348.894c0 35.439 69.169 33.479 69.169 0l0 -348.894l102.21 0l0 353.269c0 35.439 69.137 33.479 69.137 0l0 -353.269l182.864 0l0 -.157zm-80.246 60.106l0 208.103l31.846 0c20.575 0 37.416 -16.848 37.416 -37.448l0 -133.176c0 -20.6 -16.836 -37.48 -37.416 -37.48l-31.846 0zm-1501.72 15.294c-6.093 -.02 -12.284 .981 -18.347 3.178 -27.712 10.046 -42.049 40.671 -32.003 68.381 46.329 127.341 137.331 229.214 251.404 290.519 22.331 12.002 45.429 22.443 69.105 31.155 58.177 21.404 120.894 32.915 185.855 32.917l0 .221l.031 0l0 -.221c56.862 0 113.052 -8.883 166.47 -26.213 10.416 -3.379 20.702 -7.091 30.839 -11.077 11.097 -4.365 21.238 -8.684 30.431 -12.965l-.095 -.189 .503 -.221 .031 -.031c26.557 -12.7 37.812 -44.5 25.113 -71.057 -12.625 -26.399 -44.156 -37.675 -70.616 -25.332l-.095 -.189c-8.795 4.094 -16.85 7.601 -24.168 10.479 -8.281 3.256 -16.614 6.253 -24.987 8.968 -43.201 14.015 -88.235 21.21 -133.427 21.21l0 -.221l-.031 0l0 .221c-51.644 -.001 -101.969 -9.325 -149.067 -26.654 -19.17 -7.053 -37.641 -15.375 -55.29 -24.861 -91.55 -49.2 -164.551 -130.864 -201.652 -232.838 -7.848 -21.649 -28.241 -35.112 -50.004 -35.183z"/></svg>