<svg xmlns="http://www.w3.org/2000/svg" width="888" height="1000"><path d="M52.574 157.281c-10.33 .193 -20.697 3.36 -29.781 9.75 -24.224 17.04 -30.071 50.494 -13.031 74.719 44.703 63.799 118.793 102.188 196.656 102.188 70.063 0 137.93 -31.631 183.031 -84.531 19.527 -22.045 17.64 -55.789 -4.281 -75.5 -22.013 -19.802 -55.979 -18.015 -75.781 4l-.281 .313 -1 1.281 -.031 -.031 -.125 .219 -.844 1.031c-3.224 3.715 -6.751 7.247 -10.313 10.531l-.938 1.031 -.438 .406c-3.869 3.531 -7.656 6.544 -11.094 9.063l-.063 -.063c-59.227 42.708 -143.675 29.749 -186.75 -31.656 -10.651 -15.14 -27.721 -23.072 -44.938 -22.75zm485.094 0c-10.33 .193 -20.728 3.36 -29.813 9.75 -24.224 17.04 -30.041 50.494 -13 74.719 44.702 63.799 118.794 102.188 196.656 102.188 70.064 0 137.897 -31.631 183 -84.531 19.527 -22.045 17.671 -55.789 -4.25 -75.5 -22.015 -19.802 -55.978 -18.015 -75.781 4l-.281 .313 -1 1.281 -.031 -.031 -.125 .219 -.875 1.031c-3.224 3.715 -6.719 7.247 -10.281 10.531l-.938 1.031 -.438 .406c-3.868 3.531 -7.686 6.544 -11.125 9.063l-.063 -.063c-59.226 42.708 -143.643 29.749 -186.719 -31.656 -10.65 -15.14 -27.721 -23.072 -44.938 -22.75zm-434.656 578.375c-29.536 0 -53.531 23.995 -53.531 53.531 0 29.536 23.995 53.5 53.531 53.5l682 .031c29.536 0 53.531 -23.964 53.531 -53.5s-23.995 -53.531 -53.531 -53.531l-682 -.031z"/></svg>