<svg xmlns="http://www.w3.org/2000/svg" width="870" height="1000"><path d="M196.693 48.688c-60.551 0 -109.688 64.791 -109.688 144.375 0 79.505 49.137 144.313 109.688 144.313s109.656 -64.808 109.656 -144.313c0 -79.584 -49.106 -144.375 -109.656 -144.375zm476.438 0c-60.552 0 -109.656 64.791 -109.656 144.375 0 79.505 49.105 144.313 109.656 144.313 60.55 0 109.688 -64.808 109.688 -144.313 0 -79.584 -49.138 -144.375 -109.688 -144.375zm143.75 480.188l-764.969 .219c-29.095 .433 -52.339 24.43 -51.906 53.531 3.312 200.707 238.134 351.259 422.031 354.5 186.143 3.305 442.33 -156.506 447.781 -355.313 0 -29.218 -23.719 -52.938 -52.938 -52.938zm-699.781 106.375l633.469 0c-61.122 120.68 -190.052 200.817 -330.375 196.438 -129.798 -4.031 -246.319 -82.374 -303.094 -196.438z"/></svg>