<svg xmlns="http://www.w3.org/2000/svg" width="824" height="1000"><path d="M173.906 50c-60.551 0 -109.688 64.791 -109.688 144.375 0 79.505 49.137 144.313 109.688 144.313s109.656 -64.808 109.656 -144.313c0 -79.584 -49.106 -144.375 -109.656 -144.375zm476.438 0c-60.552 0 -109.656 64.791 -109.656 144.375 0 79.505 49.105 144.313 109.656 144.313 60.55 0 109.688 -64.808 109.688 -144.313 0 -79.584 -49.138 -144.375 -109.688 -144.375zm120.594 560.25l-717.625 .969c-29.418 0 -53.313 23.895 -53.313 53.313 0 29.417 23.895 53.313 53.313 53.313l139.781 -.094l0 74c0 55.468 19.488 108.485 59.375 148.406 46.458 46.574 103.539 59.719 165.094 59.719 57.486 0 111.831 -17.398 153.875 -59.406 40.289 -40.188 59.719 -93.349 59.719 -149.219l0 -74.125l139.781 -.281c29.418 0 53.313 -23.864 53.313 -53.281 0 -29.417 -23.895 -53.313 -53.313 -53.313zm-470.813 108.375l224 0l0 72.094c0 27.767 -7.072 53.331 -27.906 74.094 -38.775 38.713 -129.319 38.991 -168.094 .094 -20.442 -20.478 -28 -44.986 -28 -73.156l0 -73.125z"/></svg>