<svg xmlns="http://www.w3.org/2000/svg" width="1000" height="1000"><path d="M462.25 0c-6.371 0 -11.531 5.159 -11.531 11.531l0 182.219l.031 0c0 6.347 5.153 11.5 11.5 11.5l69.063 0c.343 .03 .68 .031 1.031 .031 6.372 0 11.531 -5.16 11.531 -11.531l0 -182.219l-.031 0c0 -6.347 -5.153 -11.5 -11.5 -11.5l-69.094 0c-.328 -.03 -.663 -.031 -1 -.031zm249.594 46.594c-4.082 -.111 -8.091 1.968 -10.281 5.75l-91.094 157.781l0 .062c-3.161 5.5 -1.282 12.528 4.219 15.688l60.063 34.656c.203 .136 .41 .251 .625 .375 5.5 3.187 12.533 1.313 15.719 -4.188l91.125 -157.813c3.187 -5.5 1.282 -12.533 -4.219 -15.719l-60.688 -35.063c-1.719 -.996 -3.613 -1.481 -5.469 -1.531zm-428.375 2.688c-1.856 .051 -3.75 .567 -5.469 1.563l-60.688 35.063c-5.474 3.17 -7.372 10.199 -4.219 15.688l90.781 157.219c.106 .21 .224 .418 .344 .625 3.187 5.5 10.218 7.373 15.719 4.188l60.719 -35.063c5.474 -3.17 7.341 -10.199 4.188 -15.688l-90.75 -157.188c-.107 -.217 -.221 -.444 -.344 -.656 -2.19 -3.782 -6.199 -5.861 -10.281 -5.75zm620.375 162.313c-1.848 .046 -3.722 .515 -5.438 1.5l-157.219 90.781c-.21 .106 -.418 .224 -.625 .344 -5.5 3.187 -7.373 10.218 -4.188 15.719l35.063 60.719c3.17 5.474 10.199 7.341 15.688 4.188l157.188 -90.75c.217 -.107 .444 -.221 .656 -.344 5.5 -3.185 7.374 -10.25 4.188 -15.75l-35.063 -60.688c-2.179 -3.764 -6.184 -5.82 -10.25 -5.719zm-810.375 4.656c-4.082 -.111 -8.091 1.968 -10.281 5.75l-35.063 60.688c-3.187 5.5 -1.282 12.565 4.219 15.75l157.781 91.094l.062 0c5.5 3.161 12.528 1.282 15.688 -4.219l34.656 -60.063c.136 -.203 .251 -.41 .375 -.625 3.187 -5.5 1.313 -12.533 -4.188 -15.719l-157.813 -91.125c-1.719 -.996 -3.582 -1.481 -5.438 -1.531zm712.781 234.469l0 .031c-6.347 0 -11.5 5.153 -11.5 11.5l0 69.063c-.029 .343 -.063 .68 -.063 1.031 0 6.372 5.192 11.531 11.563 11.531l182.219 0l0 -.031c6.347 0 11.5 -5.153 11.5 -11.5l0 -69.094c.03 -.328 .031 -.663 .031 -1 0 -6.371 -5.159 -11.531 -11.531 -11.531l-182.219 0zm-794.719 5.406l0 .031c-6.347 0 -11.5 5.153 -11.5 11.5l0 69.094c-.03 .328 -.031 .663 -.031 1 0 6.371 5.159 11.531 11.531 11.531l182.219 0l0 -.031c6.347 0 11.5 -5.153 11.5 -11.5l0 -69.063c.03 -.343 .031 -.68 .031 -1.031 0 -6.372 -5.16 -11.531 -11.531 -11.531l-182.219 0zm772.844 152.813c-4.075 -.097 -8.078 1.968 -10.25 5.75l-34.656 60.063c-.136 .203 -.251 .41 -.375 .625 -3.187 5.5 -1.313 12.533 4.188 15.719l157.813 91.125c5.5 3.187 12.533 1.282 15.719 -4.219l35.063 -60.688c3.187 -5.5 1.282 -12.565 -4.219 -15.75l-157.781 -91.094l-.062 0c-1.719 -.988 -3.585 -1.487 -5.438 -1.531zm-566.063 4.688c-1.848 .046 -3.722 .546 -5.438 1.531l-157.188 90.75c-.217 .107 -.444 .221 -.656 .344 -5.5 3.185 -7.374 10.25 -4.188 15.75l35.063 60.688c3.17 5.474 10.199 7.372 15.688 4.219l157.219 -90.781c.21 -.106 .418 -.224 .625 -.344 5.5 -3.187 7.373 -10.218 4.188 -15.719l-35.063 -60.719c-2.179 -3.764 -6.184 -5.82 -10.25 -5.719zm467.188 121.188c-1.856 .051 -3.719 .567 -5.438 1.563l-60.719 35.063c-5.474 3.17 -7.341 10.199 -4.188 15.688l90.75 157.188c.107 .217 .221 .444 .344 .656 3.185 5.5 10.25 7.374 15.75 4.188l60.688 -35.063c5.474 -3.17 7.372 -10.199 4.219 -15.688l-90.781 -157.219c-.106 -.21 -.224 -.418 -.344 -.625 -2.191 -3.782 -6.199 -5.861 -10.281 -5.75zm-366.313 2.719c-4.082 -.111 -8.091 1.968 -10.281 5.75l-91.125 157.813c-3.187 5.5 -1.282 12.533 4.219 15.719l60.688 35.063c5.5 3.187 12.565 1.282 15.75 -4.219l91.094 -157.781l0 -.062c3.161 -5.5 1.282 -12.528 -4.219 -15.688l-60.063 -34.656c-.203 -.136 -.41 -.251 -.625 -.375 -1.719 -.996 -3.582 -1.512 -5.438 -1.563zm148.469 57.156c-6.372 0 -11.531 5.192 -11.531 11.563l0 182.219l.031 0c0 6.347 5.153 11.5 11.5 11.5l69.094 0c.328 .03 .663 .031 1 .031 6.371 0 11.531 -5.159 11.531 -11.531l0 -182.219l-.031 0c0 -6.347 -5.153 -11.5 -11.5 -11.5l-69.063 0c-.343 -.029 -.68 -.063 -1.031 -.063z"/></svg>