<?xml version="1.0" encoding="utf-8"?>
<!-- Generator: Adobe Illustrator 16.0.0, SVG Export Plug-In . SVG Version: 6.00 Build 0)  -->
<!DOCTYPE svg PUBLIC "-//W3C//DTD SVG 1.1//EN" "http://www.w3.org/Graphics/SVG/1.1/DTD/svg11.dtd">
<svg version="1.1" id="Layer_1" xmlns="http://www.w3.org/2000/svg" xmlns:xlink="http://www.w3.org/1999/xlink" x="0px" y="0px"
	 width="48px" height="48px" viewBox="0 0 48 48" enable-background="new 0 0 48 48" xml:space="preserve">
<path fill-rule="evenodd" clip-rule="evenodd" d="M6,47V20c0-2.209,1.791-4,4-4l0,0v-4c0-1.104,0.896-2,2-2h2V2c0-0.552,0.447-1,1-1
	s1,0.448,1,1v8h2c1.104,0,2,0.896,2,2v4l0,0l0,0c2.209,0,4,1.791,4,4v8h7v-6h4v-3h6v3h1v25H6z M18,13c0-0.552-0.447-1-1-1h-4
	c-0.553,0-1,0.448-1,1v3h6V13z M22,20c0-1.104-0.896-2-2-2H10c-1.104,0-2,0.896-2,2v25h14V20z M31,30h-7v15h7V30z M40,24h-7v21h7V24
	z M36,27h1c0.553,0,1,0.447,1,1v1c0,0.553-0.447,1-1,1h-1c-0.553,0-1-0.447-1-1v-1C35,27.447,35.447,27,36,27z M36,33h1
	c0.553,0,1,0.447,1,1v1c0,0.553-0.447,1-1,1h-1c-0.553,0-1-0.447-1-1v-1C35,33.447,35.447,33,36,33z M36,39h1c0.553,0,1,0.447,1,1v1
	c0,0.553-0.447,1-1,1h-1c-0.553,0-1-0.447-1-1v-1C35,39.447,35.447,39,36,39z M27,33h1c0.553,0,1,0.447,1,1v1c0,0.553-0.447,1-1,1
	h-1c-0.553,0-1-0.447-1-1v-1C26,33.447,26.447,33,27,33z M27,39h1c0.553,0,1,0.447,1,1v1c0,0.553-0.447,1-1,1h-1
	c-0.553,0-1-0.447-1-1v-1C26,39.447,26.447,39,27,39z M18,42h-1c-0.553,0-1-0.447-1-1v-1c0-0.552,0.447-1,1-1h1c0.553,0,1,0.448,1,1
	v1C19,41.553,18.553,42,18,42z M18,36h-1c-0.553,0-1-0.447-1-1v-1c0-0.552,0.447-1,1-1h1c0.553,0,1,0.448,1,1v1
	C19,35.553,18.553,36,18,36z M18,30h-1c-0.553,0-1-0.447-1-1v-1c0-0.552,0.447-1,1-1h1c0.553,0,1,0.448,1,1v1
	C19,29.553,18.553,30,18,30z M18,24h-1c-0.553,0-1-0.447-1-1v-1c0-0.552,0.447-1,1-1h1c0.553,0,1,0.448,1,1v1
	C19,23.553,18.553,24,18,24z M13,42h-1c-0.553,0-1-0.447-1-1v-1c0-0.553,0.447-1,1-1h1c0.553,0,1,0.447,1,1v1
	C14,41.553,13.553,42,13,42z M13,36h-1c-0.553,0-1-0.447-1-1v-1c0-0.553,0.447-1,1-1h1c0.553,0,1,0.447,1,1v1
	C14,35.553,13.553,36,13,36z M13,30h-1c-0.553,0-1-0.447-1-1v-1c0-0.552,0.447-1,1-1h1c0.553,0,1,0.448,1,1v1
	C14,29.553,13.553,30,13,30z M13,24h-1c-0.553,0-1-0.447-1-1v-1c0-0.552,0.447-1,1-1h1c0.553,0,1,0.448,1,1v1
	C14,23.553,13.553,24,13,24z"/>
</svg>
