<?xml version="1.0" encoding="utf-8"?>
<!-- Generator: Adobe Illustrator 16.0.0, SVG Export Plug-In . SVG Version: 6.00 Build 0)  -->
<!DOCTYPE svg PUBLIC "-//W3C//DTD SVG 1.1//EN" "http://www.w3.org/Graphics/SVG/1.1/DTD/svg11.dtd">
<svg version="1.1" id="Layer_1" xmlns="http://www.w3.org/2000/svg" xmlns:xlink="http://www.w3.org/1999/xlink" x="0px" y="0px"
	 width="48px" height="48px" viewBox="0 0 48 48" enable-background="new 0 0 48 48" xml:space="preserve">
<path fill-rule="evenodd" clip-rule="evenodd" d="M39,42h-6c-2.762,0-5-2.238-5-5v-2c0-2.762,2.238-5,5-5h4l0,0h5
	c0-8.537,0-25.029,0-25c0-1.104-0.896-2-2-2c-0.107,0-0.211,0.015-0.313,0.032L21.344,8.094l-0.002-0.006l-0.029,0.042
	C20.548,8.41,20,9.138,20,10v30v2c0,2.762-2.238,5-5,5H9c-2.762,0-5-2.238-5-5v-2c0-2.762,2.238-5,5-5h4l0,0h5V10l0,0
	c0-1.749,1.13-3.22,2.693-3.763l-0.006-0.018L39,1.125l0.005,0.012C39.323,1.054,39.654,1,40,1c2.209,0,4,1.791,4,4l0,0v30v2
	C44,39.762,41.762,42,39,42z M18,40L18,40v-3h-4l0,0H9c-1.656,0-3,1.343-3,3v2c0,1.657,1.344,3,3,3h6c1.656,0,3-1.343,3-3V40z
	 M42,35C42,35,42,35,42,35v-3h-4l0,0h-5c-1.657,0-3,1.343-3,3v2c0,1.657,1.343,3,3,3h6c1.657,0,3-1.343,3-3V35z"/>
</svg>
