<?xml version="1.0" encoding="utf-8"?>
<!-- Generator: Adobe Illustrator 16.0.0, SVG Export Plug-In . SVG Version: 6.00 Build 0)  -->
<!DOCTYPE svg PUBLIC "-//W3C//DTD SVG 1.1//EN" "http://www.w3.org/Graphics/SVG/1.1/DTD/svg11.dtd">
<svg version="1.1" id="Layer_1" xmlns="http://www.w3.org/2000/svg" xmlns:xlink="http://www.w3.org/1999/xlink" x="0px" y="0px"
	 width="48px" height="48px" viewBox="0 0 48 48" enable-background="new 0 0 48 48" xml:space="preserve">
<path fill-rule="evenodd" clip-rule="evenodd" d="M43,41H5c-2.209,0-4-1.791-4-4V15c0-2.209,1.791-4,4-4h9c0,0,1.125-0.125,2-1l2-2
	c0,0,0.781-1,2-1h8c1.312,0,2,1,2,1l2,2c0.875,0.875,2,1,2,1h2c0-1.104,0.896-2,2-2h2c1.104,0,2,0.896,2,2l0,0h1
	c2.209,0,4,1.791,4,4v22C47,39.209,45.209,41,43,41z M45,15c0-1.104-0.896-2-2-2l-2.96-0.004C40.026,12.996,40.014,13,40,13h-2
	c-0.023,0-0.046-0.006-0.069-0.007l-4.151-0.006c-0.305-0.033-1.889-0.269-3.193-1.573l-2.13-2.13l-0.104-0.151
	C28.351,9.132,28.196,9,28,9h-8c-0.153,0-0.375,0.178-0.424,0.231l-0.075,0.096l-2.087,2.086c-1.305,1.305-2.889,1.54-3.193,1.573
	L5,13c-1.104,0-2,0.896-2,2v22c0,1.104,0.896,2,2,2h38c1.104,0,2-0.896,2-2V15z M41,35h-2c-0.553,0-1-0.447-1-1s0.447-1,1-1h2
	c0.553,0,1,0.447,1,1S41.553,35,41,35z M41,31h-2c-0.553,0-1-0.447-1-1s0.447-1,1-1h2c0.553,0,1,0.447,1,1S41.553,31,41,31z
	 M37.5,26c-2.485,0-4.5-2.015-4.5-4.5s2.015-4.5,4.5-4.5s4.5,2.015,4.5,4.5S39.985,26,37.5,26z M37.5,19c-1.381,0-2.5,1.119-2.5,2.5
	s1.119,2.5,2.5,2.5s2.5-1.119,2.5-2.5S38.881,19,37.5,19z M34,29h2c0.553,0,1,0.447,1,1s-0.447,1-1,1h-2c-0.552,0-1-0.447-1-1
	S33.448,29,34,29z M34,33h2c0.553,0,1,0.447,1,1s-0.447,1-1,1h-2c-0.552,0-1-0.447-1-1S33.448,33,34,33z M29,36H7
	c-0.553,0-1-0.447-1-1V17c0-0.552,0.447-1,1-1h22c0.553,0,1,0.448,1,1v18C30,35.553,29.553,36,29,36z M22.719,34
	c-0.133-0.389-0.426-0.874-0.531-1.062c-0.004-0.007-0.278-0.735-1.969-0.82c-0.001,0-0.001,0-0.002,0
	c-0.56,0-1.262-0.388-1.262-1.393c0-0.251,0.02-1.095,0.02-1.095c-0.002,0.002-0.002,0.002-0.002,0.002
	c-0.002,0-0.011-0.825-0.011-0.825s0.448-0.192,1.013-0.766c0.33-0.307,0.748-1.185,0.748-1.185c0.09-0.61,0.25-1.678,0.25-2.286
	c0-1.269-1.462-2.585-2.973-2.585v-0.004v0.004c-1.582,0-2.973,1.209-2.973,2.585c0,0.608,0.129,1.676,0.219,2.286
	c0,0,0.449,0.878,0.779,1.185c0.564,0.573,0.981,0.766,0.981,0.766s-0.009,0.825-0.011,0.825c0,0,0,0-0.002-0.002
	c0,0,0.02,0.844,0.02,1.095c0,1.005-0.733,1.393-1.293,1.393c-0.001,0-0.001,0-0.002,0c-1.69,0.085-1.902,0.813-1.906,0.82
	c-0.105,0.188-0.43,0.673-0.562,1.062H22.719z M28,18H8v16h2.787c0.195-0.459,0.467-1.025,0.779-1.462
	c0.02-0.011,0.639-2.211,3.961-2.252c-0.257-0.165-0.473-0.469-0.723-0.714c-0.205-0.128-1.211-0.84-1.443-2.108
	c-0.07-0.442-0.401-2.021-0.401-2.893c0-2.589,2.099-4.575,4.991-4.575c0.018,0,0.08,0,0.098,0c3,0,4.929,1.986,4.929,4.575
	c0,0.871-0.3,2.45-0.37,2.893c-0.232,1.269-1.145,1.98-1.35,2.108c-0.25,0.245-0.778,0.705-0.785,0.714
	c3.322,0.041,3.941,2.241,3.961,2.252c0.312,0.437,0.585,1.003,0.779,1.462H28V18z"/>
</svg>
