<?xml version="1.0" encoding="utf-8"?>
<!-- Generator: Adobe Illustrator 16.0.0, SVG Export Plug-In . SVG Version: 6.00 Build 0)  -->
<!DOCTYPE svg PUBLIC "-//W3C//DTD SVG 1.1//EN" "http://www.w3.org/Graphics/SVG/1.1/DTD/svg11.dtd">
<svg version="1.1" id="Layer_1" xmlns="http://www.w3.org/2000/svg" xmlns:xlink="http://www.w3.org/1999/xlink" x="0px" y="0px"
	 width="48px" height="48px" viewBox="0 0 48 48" enable-background="new 0 0 48 48" xml:space="preserve">
<path fill-rule="evenodd" clip-rule="evenodd" d="M35,40H11v-0.051C5.947,39.447,2,35.186,2,30c0-5.187,3.948-9.449,9.002-9.949
	C11.002,20.033,11,20.018,11,20c0-6.627,5.373-12,12-12c5.947,0,10.871,4.331,11.821,10.009C34.882,18.008,34.939,18,35,18
	c6.075,0,11,4.925,11,11S41.075,40,35,40z M35,20c-0.336,0-0.667,0.021-0.993,0.06l-0.002-0.005
	c-0.013,0.001-0.023,0.008-0.036,0.008c-0.549,0-0.993-0.443-0.998-0.99l-0.018-0.002C32.483,13.983,28.209,10,23,10
	c-5.523,0-10,4.477-10,10c0,0.297,0.021,0.587,0.048,0.876l-0.01,0.003c0.005,0.041,0.024,0.078,0.024,0.121
	c0,0.543-0.434,0.979-0.973,0.994l-0.004,0.014C12.057,22.007,12.029,22,12,22c-4.418,0-8,3.582-8,8c0,4.079,3.055,7.438,7,7.931V38
	h24c4.971,0,9-4.029,9-9S39.971,20,35,20z"/>
</svg>
