<?xml version="1.0" encoding="utf-8"?>
<!-- Generator: Adobe Illustrator 16.0.0, SVG Export Plug-In . SVG Version: 6.00 Build 0)  -->
<!DOCTYPE svg PUBLIC "-//W3C//DTD SVG 1.1//EN" "http://www.w3.org/Graphics/SVG/1.1/DTD/svg11.dtd">
<svg version="1.1" id="Layer_1" xmlns="http://www.w3.org/2000/svg" xmlns:xlink="http://www.w3.org/1999/xlink" x="0px" y="0px"
	 width="48px" height="48px" viewBox="0 0 48 48" enable-background="new 0 0 48 48" xml:space="preserve">
<path fill-rule="evenodd" clip-rule="evenodd" d="M24,45C12.402,45,3,35.598,3,24S12.402,3,24,3s21,9.402,21,21S35.598,45,24,45z
	 M24,5C13.507,5,5,13.507,5,24s8.507,19,19,19s19-8.507,19-19S34.493,5,24,5z M40,25h-1c-0.553,0-1-0.447-1-1s0.447-1,1-1h1
	c0.553,0,1,0.447,1,1S40.553,25,40,25z M33.979,33.204c-0.032,0.188-0.115,0.367-0.261,0.514c-0.308,0.307-0.762,0.355-1.129,0.172
	l0.058,0.059l0.008,0.008l0,0l0,0c-0.162-0.067-0.306-0.13-0.464-0.195c-5.189-2.162-8.213-3.856-9.867-4.938
	c-1.313-0.858-1.775-1.333-1.794-1.353c-0.045-0.043-2.488-2.412-6.485-12.125l0.001,0c0,0,0,0-0.001,0l0.067,0.067
	c-0.01-0.02-0.012-0.042-0.02-0.062C14,15.139,13.99,14.908,14.054,14.69c0.044-0.147,0.111-0.29,0.229-0.407
	c0.299-0.299,0.738-0.35,1.101-0.181c0.009,0.004,0.02,0.005,0.028,0.01l-0.023-0.025l-0.043-0.042c0,0,0,0,0.001,0l-0.001,0
	c9.713,3.997,12.082,6.44,12.125,6.485c0.045,0.043,2.488,2.413,6.485,12.125l-0.001-0.001c0.001,0,0.001,0.001,0.001,0.001
	l-0.044-0.044l-0.023-0.022c0.023,0.047,0.032,0.097,0.048,0.146C33.986,32.888,34.006,33.047,33.979,33.204z M26.046,21.933
	c-0.021-0.021-2.016-1.927-9.187-5.073c3.146,7.171,5.055,9.167,5.095,9.208c0.021,0.021,2.016,1.928,9.187,5.073
	C27.995,23.969,26.086,21.974,26.046,21.933z M24,23c0.553,0,1,0.447,1,1s-0.447,1-1,1s-1-0.447-1-1S23.447,23,24,23z M24,10
	c-0.553,0-1-0.448-1-1V8c0-0.552,0.447-1,1-1s1,0.448,1,1v1C25,9.552,24.553,10,24,10z M24,38c0.553,0,1,0.447,1,1v1
	c0,0.553-0.447,1-1,1s-1-0.447-1-1v-1C23,38.447,23.447,38,24,38z M9,25H8c-0.553,0-1-0.447-1-1s0.447-1,1-1h1c0.553,0,1,0.447,1,1
	S9.553,25,9,25z"/>
</svg>
