<?xml version="1.0" encoding="utf-8"?>
<!-- Generator: Adobe Illustrator 18.1.1, SVG Export Plug-In . SVG Version: 6.00 Build 0)  -->
<svg version="1.1" xmlns="http://www.w3.org/2000/svg" xmlns:xlink="http://www.w3.org/1999/xlink" x="0px" y="0px" width="100px"
	 height="100px" viewBox="0 0 100 100" enable-background="new 0 0 100 100" xml:space="preserve">
<g id="_x37_7_Essential_Icons">
	<path id="Shopping" d="M86,32H67.9c-1-9-8.6-16-17.9-16s-16.9,7-17.9,16H14c-1.1,0-2,0.9-2,2v48c0,1.1,0.9,2,2,2h72
		c1.1,0,2-0.9,2-2V34C88,32.9,87.1,32,86,32z M66,46c1.1,0,2,0.9,2,2s-0.9,2-2,2c-1.1,0-2-0.9-2-2S64.9,46,66,46z M50,20
		c7,0,12.9,5.2,13.8,12H36.2C37.1,25.2,43,20,50,20z M34,46c1.1,0,2,0.9,2,2s-0.9,2-2,2c-1.1,0-2-0.9-2-2S32.9,46,34,46z M84,80H16
		V36h16v6.3c-2.3,0.8-4,3-4,5.7c0,3.3,2.7,6,6,6s6-2.7,6-6c0-2.6-1.7-4.8-4-5.7V36h28v6.3c-2.3,0.8-4,3-4,5.7c0,3.3,2.7,6,6,6
		c3.3,0,6-2.7,6-6c0-2.6-1.7-4.8-4-5.7V36h16V80z"/>
</g>
<g id="Guides">
</g>
<g id="Info">
	<g id="BORDER">
		<path fill="#0000FF" d="M244-930V754h-1784V-930H244 M252-938h-1800V762H252V-938L252-938z"/>
	</g>
</g>
</svg>
