<?xml version="1.0" encoding="utf-8"?>
<!-- Generator: Adobe Illustrator 18.1.1, SVG Export Plug-In . SVG Version: 6.00 Build 0)  -->
<svg version="1.1" xmlns="http://www.w3.org/2000/svg" xmlns:xlink="http://www.w3.org/1999/xlink" x="0px" y="0px" width="100px"
	 height="100px" viewBox="0 0 100 100" enable-background="new 0 0 100 100" xml:space="preserve">
<g id="_x37_7_Essential_Icons">
	<path id="Padlock" d="M83,39h-9c0-13.2-10.8-24-24-24S26,25.8,26,39h-9c-1.1,0-2,0.9-2,2v42c0,1.1,0.9,2,2,2h66c1.1,0,2-0.9,2-2V41
		C85,39.9,84.1,39,83,39z M50,19c11,0,20,9,20,20H30C30,28,39,19,50,19z M81,81H19V43h62V81z M50,53c-3.9,0-7,3.1-7,7
		c0,3.2,2.1,5.8,5,6.7V71c0,1.1,0.9,2,2,2s2-0.9,2-2v-4.3c2.9-0.9,5-3.5,5-6.7C57,56.1,53.9,53,50,53z M50,63c-1.7,0-3-1.4-3-3
		c0-1.7,1.3-3,3-3s3,1.3,3,3C53,61.6,51.7,63,50,63z"/>
</g>
<g id="Guides">
</g>
<g id="Info">
	<g id="BORDER">
		<path fill="#0000FF" d="M1224-930V754H-560V-930H1224 M1232-938H-568V762h1800V-938L1232-938z"/>
	</g>
</g>
</svg>
