<?xml version="1.0" encoding="utf-8"?>
<!-- Generator: Adobe Illustrator 18.1.1, SVG Export Plug-In . SVG Version: 6.00 Build 0)  -->
<svg version="1.1" xmlns="http://www.w3.org/2000/svg" xmlns:xlink="http://www.w3.org/1999/xlink" x="0px" y="0px" width="100px"
	 height="100px" viewBox="0 0 100 100" enable-background="new 0 0 100 100" xml:space="preserve">
<g id="_x37_7_Essential_Icons">
	<path id="Message" d="M86,17H14c-1.1,0-2,0.9-2,2v48c0,1.1,0.9,2,2,2h16v12c0,1.8,2.1,2.7,3.4,1.4L47,69h39c1.1,0,2-0.9,2-2V19
		C88,17.9,87.1,17,86,17z M84,65H46.2c-0.5,0-1,0.2-1.4,0.6L34,76.2V67c0-1.1-0.9-2-2-2H16V21h68V65z"/>
</g>
<g id="Guides">
</g>
<g id="Info">
	<g id="BORDER">
		<path fill="#0000FF" d="M1364-510v1684H-420V-510H1364 M1372-518H-428v1700h1800V-518L1372-518z"/>
	</g>
</g>
</svg>
