<?xml version="1.0" encoding="utf-8"?>
<!-- Generator: Adobe Illustrator 18.1.1, SVG Export Plug-In . SVG Version: 6.00 Build 0)  -->
<svg version="1.1" xmlns="http://www.w3.org/2000/svg" xmlns:xlink="http://www.w3.org/1999/xlink" x="0px" y="0px" width="100px"
	 height="100px" viewBox="0 0 100 100" enable-background="new 0 0 100 100" xml:space="preserve">
<g id="_x37_7_Essential_Icons">
	<path id="Left_Arrow" d="M57.9,67.9c-0.4,0.4-0.9,0.6-1.4,0.6s-1-0.2-1.4-0.6L38.1,51c-0.8-0.8-0.8-2,0-2.8l16.1-16.1
		c0.8-0.8,2.1-0.8,2.8,0c0.8,0.8,0.8,2,0,2.8L42.4,49.6l15.5,15.5C58.6,65.9,58.6,67.1,57.9,67.9z M88,50c0,21-17,38-38,38
		S12,71,12,50s17-38,38-38S88,29,88,50z M84,50c0-18.8-15.2-34-34-34S16,31.2,16,50s15.2,34,34,34S84,68.8,84,50z"/>
</g>
<g id="Guides">
</g>
<g id="Info">
	<g id="BORDER">
		<path fill="#0000FF" d="M804-1210V474H-980v-1684H804 M812-1218H-988V482H812V-1218L812-1218z"/>
	</g>
</g>
</svg>
