<?xml version="1.0" encoding="utf-8"?>
<!-- Generator: Adobe Illustrator 18.1.1, SVG Export Plug-In . SVG Version: 6.00 Build 0)  -->
<svg version="1.1" xmlns="http://www.w3.org/2000/svg" xmlns:xlink="http://www.w3.org/1999/xlink" x="0px" y="0px" width="100px"
	 height="100px" viewBox="0 0 100 100" enable-background="new 0 0 100 100" xml:space="preserve">
<g id="_x37_7_Essential_Icons">
	<path id="Attachment" d="M18.8,85.1c-7.8-7.8-7.8-20.5,0-28.3l44.3-43.8c5.5-5.5,14.3-5.5,19.8,0c5.5,5.5,5.5,14.3,0,19.8
		L38.6,76.7c-3.1,3.1-8.2,3.1-11.3,0c-3.1-3.1-3.1-8.2,0-11.3l22.3-21.8c0.8-0.8,2.1-0.8,2.8,0c0.8,0.8,0.8,2.1,0,2.8L30.2,68.2
		c-1.5,1.5-1.5,4.1,0,5.6c1.6,1.6,4.1,1.6,5.7,0l44.3-43.8c3.9-3.9,3.9-10.2,0-14.1c-3.9-3.9-10.2-3.9-14.1,0L21.7,59.7
		c-6.2,6.2-6.2,16.4,0,22.6c6.3,6.2,16.4,6.2,22.6,0l38.3-37.8c0.8-0.8,2.1-0.8,2.8,0c0.8,0.8,0.8,2.1,0,2.8L47.1,85.2
		C39.3,92.9,26.7,93,18.8,85.1z"/>
</g>
<g id="Guides">
</g>
<g id="Info">
	<g id="BORDER">
		<path fill="#0000FF" d="M664-510v1684h-1784V-510H664 M672-518h-1800v1700H672V-518L672-518z"/>
	</g>
</g>
</svg>
