<?xml version="1.0" encoding="utf-8"?>
<!-- Generator: Adobe Illustrator 18.1.1, SVG Export Plug-In . SVG Version: 6.00 Build 0)  -->
<svg version="1.1" xmlns="http://www.w3.org/2000/svg" xmlns:xlink="http://www.w3.org/1999/xlink" x="0px" y="0px" width="100px"
	 height="100px" viewBox="0 0 100 100" enable-background="new 0 0 100 100" xml:space="preserve">
<g id="_x37_7_Essential_Icons">
	<path id="Music" d="M88.3,11.5c-0.5-0.4-1.1-0.5-1.7-0.4l-48,10c-0.9,0.2-1.6,1-1.6,2v40.8c-2.7-3-6.6-4.8-11-4.8
		c-8.3,0-15,6.7-15,15c0,8.3,6.7,15,15,15c8.3,0,15-6.7,15-15V38.6l44-9.2v24.4c-2.7-3-6.7-4.8-11-4.8c-8.3,0-15,6.7-15,15
		c0,8.3,6.7,15,15,15c8.3,0,15-6.7,15-15V13C89,12.4,88.7,11.8,88.3,11.5z M26,85c-6.1,0-11-4.9-11-11c0-6.1,4.9-11,11-11
		c6.1,0,11,4.9,11,11C37,80.1,32.1,85,26,85z M74,75c-6.1,0-11-4.9-11-11c0-6.1,4.9-11,11-11c6.1,0,11,4.9,11,11
		C85,70.1,80.1,75,74,75z M85,25.4l-44,9.2v-9.9l44-9.2V25.4z"/>
</g>
<g id="Guides">
</g>
<g id="Info">
	<g id="BORDER">
		<path fill="#0000FF" d="M664-650v1684h-1784V-650H664 M672-658h-1800v1700H672V-658L672-658z"/>
	</g>
</g>
</svg>
