<?xml version="1.0" encoding="utf-8"?>
<!-- Generator: Adobe Illustrator 18.1.1, SVG Export Plug-In . SVG Version: 6.00 Build 0)  -->
<svg version="1.1" xmlns="http://www.w3.org/2000/svg" xmlns:xlink="http://www.w3.org/1999/xlink" x="0px" y="0px" width="100px"
	 height="100px" viewBox="0 0 100 100" enable-background="new 0 0 100 100" xml:space="preserve">
<g id="_x37_7_Essential_Icons">
	<path id="List" d="M50,12c-21,0-38,17-38,38s17,38,38,38s38-17,38-38S71,12,50,12z M50,84c-18.8,0-34-15.2-34-34s15.2-34,34-34
		s34,15.2,34,34S68.8,84,50,84z M69.5,50c0,1.1-0.9,2-2,2H45.1c-1.1,0-2-0.9-2-2c0-1.1,0.9-2,2-2h22.4C68.6,48,69.5,48.9,69.5,50z
		 M69.5,62c0,1.1-0.9,2-2,2H45.1c-1.1,0-2-0.9-2-2c0-1.1,0.9-2,2-2h22.4C68.6,60,69.5,60.9,69.5,62z M38.3,50c0,1.1-0.9,2-2,2h-3.8
		c-1.1,0-2-0.9-2-2c0-1.1,0.9-2,2-2h3.8C37.4,48,38.3,48.9,38.3,50z M38.3,62c0,1.1-0.9,2-2,2h-3.8c-1.1,0-2-0.9-2-2
		c0-1.1,0.9-2,2-2h3.8C37.4,60,38.3,60.9,38.3,62z M69.5,38c0,1.1-0.9,2-2,2H45.1c-1.1,0-2-0.9-2-2c0-1.1,0.9-2,2-2h22.4
		C68.6,36,69.5,36.9,69.5,38z M38.3,38c0,1.1-0.9,2-2,2h-3.8c-1.1,0-2-0.9-2-2c0-1.1,0.9-2,2-2h3.8C37.4,36,38.3,36.9,38.3,38z"/>
</g>
<g id="Guides">
</g>
<g id="Info">
	<g id="BORDER">
		<path fill="#0000FF" d="M244-1210V474h-1784v-1684H244 M252-1218h-1800V482H252V-1218L252-1218z"/>
	</g>
</g>
</svg>
