<?xml version="1.0" encoding="utf-8"?>
<!-- Generator: Adobe Illustrator 18.1.1, SVG Export Plug-In . SVG Version: 6.00 Build 0)  -->
<svg version="1.1" xmlns="http://www.w3.org/2000/svg" xmlns:xlink="http://www.w3.org/1999/xlink" x="0px" y="0px" width="100px"
	 height="100px" viewBox="0 0 100 100" enable-background="new 0 0 100 100" xml:space="preserve">
<g id="_x37_7_Essential_Icons">
	<path id="Tick" d="M50,12c-21,0-38,17-38,38s17,38,38,38s38-17,38-38S71,12,50,12z M50,84c-18.8,0-34-15.2-34-34s15.2-34,34-34
		s34,15.2,34,34S68.8,84,50,84z M72.9,37.1c-0.8-0.8-2-0.8-2.8,0L44.6,62.7L33.9,52c-0.8-0.8-2.1-0.8-2.8,0c-0.8,0.8-0.8,2.1,0,2.8
		l12.1,12.1c0.4,0.4,0.9,0.6,1.4,0.6c0.5,0,1-0.2,1.4-0.6l26.9-27C73.7,39.1,73.7,37.9,72.9,37.1z"/>
</g>
<g id="Guides">
</g>
<g id="Info">
	<g id="BORDER">
		<path fill="#0000FF" d="M1644-1210V474H-140v-1684H1644 M1652-1218H-148V482h1800V-1218L1652-1218z"/>
	</g>
</g>
</svg>
