<?xml version="1.0" encoding="utf-8"?>
<!-- Generator: Adobe Illustrator 18.1.1, SVG Export Plug-In . SVG Version: 6.00 Build 0)  -->
<svg version="1.1" xmlns="http://www.w3.org/2000/svg" xmlns:xlink="http://www.w3.org/1999/xlink" x="0px" y="0px" width="100px"
	 height="100px" viewBox="0 0 100 100" enable-background="new 0 0 100 100" xml:space="preserve">
<g id="_x37_7_Essential_Icons">
	<path id="Tag" d="M84,14H56.6c-0.5,0-1,0.2-1.4,0.6L14.6,55.1c-0.8,0.8-0.8,2.1,0,2.8L42,85.4c0.8,0.8,2,0.8,2.8,0l40.5-40.5
		c0.4-0.4,0.6-0.9,0.6-1.4V16C86,14.9,85.1,14,84,14z M82,42.6L43.5,81.2L18.8,56.6L57.4,18H82V42.6z M68,23.9c-4.4,0-8,3.6-8,8
		c0,4.4,3.6,8,8,8c4.4,0,8-3.6,8-8C76,27.5,72.4,23.9,68,23.9z M70.8,34.8c-1.5,1.5-4.2,1.5-5.7,0c-1.6-1.6-1.6-4.1,0-5.7
		c1.6-1.6,4.1-1.6,5.7,0C72.4,30.7,72.4,33.2,70.8,34.8z"/>
</g>
<g id="Guides">
</g>
<g id="Info">
	<g id="BORDER">
		<path fill="#0000FF" d="M664-1070V614h-1784v-1684H664 M672-1078h-1800V622H672V-1078L672-1078z"/>
	</g>
</g>
</svg>
