<?xml version="1.0" encoding="utf-8"?>
<!-- Generator: Adobe Illustrator 18.1.1, SVG Export Plug-In . SVG Version: 6.00 Build 0)  -->
<svg version="1.1" xmlns="http://www.w3.org/2000/svg" xmlns:xlink="http://www.w3.org/1999/xlink" x="0px" y="0px" width="100px"
	 height="100px" viewBox="0 0 100 100" enable-background="new 0 0 100 100" xml:space="preserve">
<g id="_x37_7_Essential_Icons">
	<path id="Message_Lines" d="M74,43c0,1.1-0.9,2-2,2H28c-1.1,0-2-0.9-2-2c0-1.1,0.9-2,2-2h44C73.1,41,74,41.9,74,43z M59.8,51H28
		c-1.1,0-2,0.9-2,2c0,1.1,0.9,2,2,2h31.8c1.1,0,2-0.9,2-2C61.8,51.9,60.9,51,59.8,51z M72,31H28c-1.1,0-2,0.9-2,2c0,1.1,0.9,2,2,2
		h44c1.1,0,2-0.9,2-2C74,31.9,73.1,31,72,31z M88,19v48c0,1.1-0.9,2-2,2H47L33.4,82.4C32.9,83,30,83.8,30,81V69H14c-1.1,0-2-0.9-2-2
		V19c0-1.1,0.9-2,2-2h72C87.1,17,88,17.9,88,19z M84,21H16v44h16c1.1,0,2,0.9,2,2v9.2l10.8-10.6c0.4-0.4,0.9-0.6,1.4-0.6H84V21z"/>
</g>
<g id="Guides">
</g>
<g id="Info">
	<g id="BORDER">
		<path fill="#0000FF" d="M1224-510v1684H-560V-510H1224 M1232-518H-568v1700h1800V-518L1232-518z"/>
	</g>
</g>
</svg>
