<?xml version="1.0" encoding="utf-8"?>
<!-- Generator: Adobe Illustrator 18.1.1, SVG Export Plug-In . SVG Version: 6.00 Build 0)  -->
<svg version="1.1" xmlns="http://www.w3.org/2000/svg" xmlns:xlink="http://www.w3.org/1999/xlink" x="0px" y="0px" width="100px"
	 height="100px" viewBox="0 0 100 100" enable-background="new 0 0 100 100" xml:space="preserve">
<g id="_x37_7_Essential_Icons">
	<path id="Map" d="M90.7,25.5l-20-7.4h0c0.4,0.2-0.6-0.4-1.4,0h0L50,25.2l-19.2-7.1h0c0.4,0.2-0.6-0.4-1.4,0c0,0,0,0,0,0l-20,7.4
		c-0.8,0.3-1.3,1-1.3,1.9V80c0,3.5,4.4,1.2,2.7,1.9L30,74.8l19.2,7.1c0.9,0.3,1.9-0.2,1.5,0L70,74.8l19.3,7.1
		c1.3,0.5,2.7-0.4,2.7-1.9V27.4C92,26.6,91.5,25.8,90.7,25.5z M28,71.3L12,77V28.7l16-5.8V71.3z M48,77l-16-5.8V22.9l16,5.8V77z
		 M68,71.3L52,77V28.7l16-5.8V71.3z M88,77l-16-5.8V22.9l16,5.8V77z"/>
</g>
<g id="Guides">
</g>
<g id="Info">
	<g id="BORDER">
		<path fill="#0000FF" d="M1364-370v1684H-420V-370H1364 M1372-378H-428v1700h1800V-378L1372-378z"/>
	</g>
</g>
</svg>
