<?xml version="1.0" encoding="utf-8"?>
<!-- Generator: Adobe Illustrator 18.1.1, SVG Export Plug-In . SVG Version: 6.00 Build 0)  -->
<svg version="1.1" xmlns="http://www.w3.org/2000/svg" xmlns:xlink="http://www.w3.org/1999/xlink" x="0px" y="0px" width="100px"
	 height="100px" viewBox="0 0 100 100" enable-background="new 0 0 100 100" xml:space="preserve">
<g id="_x37_7_Essential_Icons">
	<path id="Refresh" d="M63.4,25.7l-20.1-20C41.8,4.2,40,5.4,40,7v8.9c-0.9-0.1-1.9-0.1-2.8-0.1c-15,0-27.2,12.1-27.2,27
		c0,10.1,5.6,19.3,14.6,24c2,1.1,3.8-1.5,2.5-3.1c-2.4-2.8-3.7-6.5-3.7-10.2c0-8.8,7.3-15.9,16.1-15.9c0.2,0,0.3,0,0.5,0v9.4
		c0,1.9,2.2,2.5,3.3,1.4l20.1-20C64.2,27.7,64.2,26.5,63.4,25.7z M43.9,42.3v-6.5c0-2.4-3.1-2.2-4.5-2.2c-11,0-20,8.9-20,19.9
		c0,1.6,0.2,3.1,0.6,4.6c-3.8-4.2-5.9-9.6-5.9-15.4c0-12.7,10.4-23,23.2-23c1.4,0,2.9,0.1,4.3,0.4c1.2,0.2,2.4-0.7,2.4-2v-6.4
		l15.3,15.2L43.9,42.3z M75.4,33.3c-2-1-3.8,1.4-2.5,3.1c2.4,2.8,3.7,6.5,3.7,10.2c0,8.8-7.4,15.9-16.2,15.9c-0.2,0-0.4,0-0.5,0V53
		c0-2-2.2-2.4-3.2-1.4l-20.1,20c-0.8,0.8-0.8,2.1,0,2.8l20.1,20C57.8,95.5,60,95,60,93v-8.9c0.9,0.1,1.9,0.1,2.8,0.1
		c15,0,27.2-12.1,27.2-27C90,47.1,84.4,38,75.4,33.3z M62.8,80.3c-1.5,0-2.9-0.1-4.3-0.4c-1.2-0.2-2.4,0.7-2.4,2v6.4L40.8,73
		l15.3-15.2v6.5c0,1,0.7,1.8,1.7,2c0.9,0.1,1.8,0.2,2.8,0.2c11,0,20-8.9,20-19.9c0-1.6-0.2-3.1-0.6-4.6C83.8,46,86,51.5,86,57.3
		C86,70,75.6,80.3,62.8,80.3z"/>
</g>
<g id="Guides">
</g>
<g id="Info">
	<g id="BORDER">
		<path fill="#0000FF" d="M244-510v1684h-1784V-510H244 M252-518h-1800v1700H252V-518L252-518z"/>
	</g>
</g>
</svg>
