<?xml version="1.0" encoding="utf-8"?>
<!-- Generator: Adobe Illustrator 18.1.1, SVG Export Plug-In . SVG Version: 6.00 Build 0)  -->
<svg version="1.1" xmlns="http://www.w3.org/2000/svg" xmlns:xlink="http://www.w3.org/1999/xlink" x="0px" y="0px" width="100px"
	 height="100px" viewBox="0 0 100 100" enable-background="new 0 0 100 100" xml:space="preserve">
<g id="_x37_7_Essential_Icons">
	<path id="Location" d="M86.3,11.2l-74,30.7c-1.7,0.7-1.6,3.3,0.3,3.8l34.1,7.7l7.7,34.1c0.4,1.9,3,2.1,3.7,0.3l30.8-74
		C89.5,12.1,87.9,10.5,86.3,11.2z M19.5,43.2l59.1-24.6L47.7,49.5L19.5,43.2z M56.8,80.5l-6.4-28.2l30.9-30.9L56.8,80.5z"/>
</g>
<g id="Guides">
</g>
<g id="Info">
	<g id="BORDER">
		<path fill="#0000FF" d="M1504-370v1684H-280V-370H1504 M1512-378H-288v1700h1800V-378L1512-378z"/>
	</g>
</g>
</svg>
