<?xml version="1.0" encoding="utf-8"?>
<!-- Generator: Adobe Illustrator 18.1.1, SVG Export Plug-In . SVG Version: 6.00 Build 0)  -->
<svg version="1.1" xmlns="http://www.w3.org/2000/svg" xmlns:xlink="http://www.w3.org/1999/xlink" x="0px" y="0px" width="100px"
	 height="100px" viewBox="0 0 100 100" enable-background="new 0 0 100 100" xml:space="preserve">
<g id="_x37_7_Essential_Icons">
	<path id="Browser" d="M88,20H12c-1.1,0-2,0.9-2,2v56c0,1.1,0.9,2,2,2h76c1.1,0,2-0.9,2-2V22C90,20.9,89.1,20,88,20z M86,76H14V36
		h72V76z M86,32H14v-8h72V32z M30,28c0,1.1-0.9,2-2,2H18c-1.1,0-2-0.9-2-2c0-1.1,0.9-2,2-2h10C29.1,26,30,26.9,30,28z"/>
</g>
<g id="Guides">
</g>
<g id="Info">
	<g id="BORDER">
		<path fill="#0000FF" d="M804-930V754H-980V-930H804 M812-938H-988V762H812V-938L812-938z"/>
	</g>
</g>
</svg>
