<?xml version="1.0" encoding="utf-8"?>
<!-- Generator: Adobe Illustrator 18.1.1, SVG Export Plug-In . SVG Version: 6.00 Build 0)  -->
<svg version="1.1" xmlns="http://www.w3.org/2000/svg" xmlns:xlink="http://www.w3.org/1999/xlink" x="0px" y="0px" width="100px"
	 height="100px" viewBox="0 0 100 100" enable-background="new 0 0 100 100" xml:space="preserve">
<g id="_x37_7_Essential_Icons">
	<path id="User" d="M59.3,52.2C65.8,48.2,70,40.3,70,33c0-10.4-8.5-22-20-22S30,22.6,30,33c0,7.3,4.2,15.2,10.7,19.2
		C25.3,56.3,14,70.4,14,87c0,1.1,0.9,2,2,2h68c1.1,0,2-0.9,2-2C86,70.4,74.7,56.3,59.3,52.2z M34,33c0-10.3,8.5-18,16-18
		s16,7.7,16,18s-8.5,18-16,18S34,43.3,34,33z M18.1,85c1-16.7,15-30,31.9-30s30.9,13.3,31.9,30H18.1z"/>
</g>
<g id="Guides">
</g>
<g id="Info">
	<g id="BORDER">
		<path fill="#0000FF" d="M1224-790V894H-560V-790H1224 M1232-798H-568V902h1800V-798L1232-798z"/>
	</g>
</g>
</svg>
