<?xml version="1.0" encoding="iso-8859-1"?>
<!-- Generator: Adobe Illustrator 19.1.0, SVG Export Plug-In . SVG Version: 6.00 Build 0)  -->
<svg version="1.1" id="Capa_1" xmlns="http://www.w3.org/2000/svg" xmlns:xlink="http://www.w3.org/1999/xlink" x="0px" y="0px"
	 viewBox="0 0 487.602 487.602" style="enable-background:new 0 0 487.602 487.602;" xml:space="preserve">
<g>
	<path d="M451.7,178.251h-7.1c-11.8-30.3-31.6-57.8-58-80.1c-3.7-13.4-0.9-27.9,8.6-42.9c5.3-8.5,5.6-18.7,0.8-27.4
		c-4.8-8.6-13.8-13.9-23.5-13.9c-1.1,0-2.3,0.1-3.4,0.2c-36.5,4.5-58.7,20.8-72,36.3c-16-5-36.3-6.5-40.1-6.8
		c-9.4-1-19-1.6-28.5-1.6c-60.7,0-117.8,20.8-160.9,58.4c-43.6,38.1-67.6,89-67.6,143.2c0,14,1.6,28,4.9,41.7
		c0.1,0.3,0.1,0.6,0.2,0.8l0.1,0.5c3.4,13.8,8.5,27.3,15,40.2c10.9,23.4,23.9,43,38.5,58.1c20.2,20.8,23.7,47.2,24.2,57.8v5.2
		c0,0.2,0,0.5,0,0.7c0,1.1,0.1,2.1,0.3,3.1c1.9,12.4,12.6,21.9,25.4,21.9h74.5c14.2,0,25.7-11.5,25.7-25.7v-3.4
		c10.6,0.8,21.3,0.9,32,0.4v3c0,14.2,11.5,25.7,25.7,25.7H341c14.2,0,25.7-11.5,25.7-25.7v-18.2c0.1-4.2,1.7-24.1,20.6-41.3
		c0.9-0.8,1.9-1.6,2.8-2.4c0.1-0.1,0.1-0.1,0.2-0.2c0.3-0.2,0.5-0.4,0.7-0.7c24.9-22.3,43.7-49.5,54.6-79.2h5.9
		c19.9,0,36.1-16.2,36.1-36.1v-55.7C487.8,194.351,471.6,178.251,451.7,178.251z M372.5,40.851
		C372.4,40.851,372.4,40.851,372.5,40.851c-0.1-0.1-0.1-0.1-0.1-0.1s0,0,0,0.1l0,0l-1.7-13.4L372.5,40.851z M460.8,269.951
		c0,5-4.1,9.1-9.1,9.1h-15.6c-5.9,0-11.2,3.9-12.9,9.5c-8.8,28.8-26.3,55.4-50.4,76.9c-0.1,0.1-0.1,0.1-0.2,0.2l-0.1,0.1
		c-0.9,0.8-1.8,1.6-2.7,2.4c-0.1,0.1-0.2,0.2-0.3,0.3c-26.7,24.2-29.4,52.7-29.6,60.9c0,0.1,0,0.2,0,0.3v17.1h-72v-16.3
		c0-3.8-1.6-7.5-4.5-10c-2.8-2.6-6.7-3.8-10.4-3.4c-8.2,0.9-16.4,1.3-24.5,1.3c-10.5,0-21-0.7-31.3-2.1c-3.9-0.5-7.8,0.7-10.7,3.2
		c-2.9,2.6-4.6,6.3-4.6,10.2v17.1H110v-4.3c0-0.2,0-0.4,0-0.6c-0.6-13.5-4.9-48-31.8-75.7c-12.6-13-23.9-30.1-33.5-50.9
		c-0.1-0.2-0.2-0.3-0.2-0.5c-5.7-11.1-10.1-22.7-13-34.6c0-0.1-0.1-0.2-0.1-0.3c0-0.1,0-0.1,0-0.2c-2.8-11.8-4.3-23.9-4.3-35.9
		c0-96.3,90.4-174.6,201.5-174.6c8.6,0,17.3,0.5,25.8,1.4c0.2,0,0.4,0,0.6,0.1c11.2,0.7,32,3.6,40.3,8.1c6.1,3.3,13.7,1.4,17.6-4.3
		c8.7-12.9,26.1-29.2,59.5-33.3c-13.5,21.6-17.5,44-11.6,64.9c0.1,3.9,2,7.6,5,10.1c27,21.8,46.6,49.5,56.6,80
		c1.8,5.5,7,9.3,12.8,9.3c0.1,0,0.1,0,0.2,0h16.4c5,0,9.1,4.1,9.1,9.1v55.4H460.8z"/>
</g>
<g>
</g>
<g>
</g>
<g>
</g>
<g>
</g>
<g>
</g>
<g>
</g>
<g>
</g>
<g>
</g>
<g>
</g>
<g>
</g>
<g>
</g>
<g>
</g>
<g>
</g>
<g>
</g>
<g>
</g>
</svg>
