<svg width="30.000000" height="23.571429" viewBox="0.000000 -47.142857 30.000000 23.571429" xmlns="http://www.w3.org/2000/svg"><path d="M30.000000 -26.785714L30.000000 -24.642857C30.000000 -24.352679 29.893973 -24.101562 29.681920 -23.889509C29.469866 -23.677455 29.218750 -23.571429 28.928571 -23.571429L1.071429 -23.571429C0.781250 -23.571429 0.530134 -23.677455 0.318080 -23.889509C0.106027 -24.101562 0.000000 -24.352679 0.000000 -24.642857L0.000000 -26.785714C0.000000 -27.075893 0.106027 -27.327009 0.318080 -27.539062C0.530134 -27.751116 0.781250 -27.857143 1.071429 -27.857143L28.928571 -27.857143C29.218750 -27.857143 29.469866 -27.751116 29.681920 -27.539062C29.893973 -27.327009 30.000000 -27.075893 30.000000 -26.785714ZM23.571429 -33.214286L23.571429 -31.071429C23.571429 -30.781250 23.465402 -30.530134 23.253348 -30.318080C23.041295 -30.106027 22.790179 -30.000000 22.500000 -30.000000L1.071429 -30.000000C0.781250 -30.000000 0.530134 -30.106027 0.318080 -30.318080C0.106027 -30.530134 0.000000 -30.781250 0.000000 -31.071429L0.000000 -33.214286C0.000000 -33.504464 0.106027 -33.755580 0.318080 -33.967634C0.530134 -34.179688 0.781250 -34.285714 1.071429 -34.285714L22.500000 -34.285714C22.790179 -34.285714 23.041295 -34.179688 23.253348 -33.967634C23.465402 -33.755580 23.571429 -33.504464 23.571429 -33.214286ZM27.857143 -39.642857L27.857143 -37.500000C27.857143 -37.209821 27.751116 -36.958705 27.539062 -36.746652C27.327009 -36.534598 27.075893 -36.428571 26.785714 -36.428571L1.071429 -36.428571C0.781250 -36.428571 0.530134 -36.534598 0.318080 -36.746652C0.106027 -36.958705 0.000000 -37.209821 0.000000 -37.500000L0.000000 -39.642857C0.000000 -39.933036 0.106027 -40.184152 0.318080 -40.396205C0.530134 -40.608259 0.781250 -40.714286 1.071429 -40.714286L26.785714 -40.714286C27.075893 -40.714286 27.327009 -40.608259 27.539062 -40.396205C27.751116 -40.184152 27.857143 -39.933036 27.857143 -39.642857ZM21.428571 -46.071429L21.428571 -43.928571C21.428571 -43.638393 21.322545 -43.387277 21.110491 -43.175223C20.898438 -42.963170 20.647321 -42.857143 20.357143 -42.857143L1.071429 -42.857143C0.781250 -42.857143 0.530134 -42.963170 0.318080 -43.175223C0.106027 -43.387277 0.000000 -43.638393 0.000000 -43.928571L0.000000 -46.071429C0.000000 -46.361607 0.106027 -46.612723 0.318080 -46.824777C0.530134 -47.036830 0.781250 -47.142857 1.071429 -47.142857L20.357143 -47.142857C20.647321 -47.142857 20.898438 -47.036830 21.110491 -46.824777C21.322545 -46.612723 21.428571 -46.361607 21.428571 -46.071429ZM21.428571 -46.071429"></path></svg>