<svg width="31.071429" height="25.714286" viewBox="1.071429 -49.285714 31.071429 25.714286" xmlns="http://www.w3.org/2000/svg"><path d="M10.714286 -27.857143C10.714286 -28.448661 10.505022 -28.953683 10.086496 -29.372210C9.667969 -29.790737 9.162946 -30.000000 8.571429 -30.000000C7.979911 -30.000000 7.474888 -29.790737 7.056362 -29.372210C6.637835 -28.953683 6.428571 -28.448661 6.428571 -27.857143C6.428571 -27.265625 6.637835 -26.760603 7.056362 -26.342076C7.474888 -25.923549 7.979911 -25.714286 8.571429 -25.714286C9.162946 -25.714286 9.667969 -25.923549 10.086496 -26.342076C10.505022 -26.760603 10.714286 -27.265625 10.714286 -27.857143ZM4.285714 -36.428571L10.714286 -36.428571L10.714286 -40.714286L8.069196 -40.714286C7.912946 -40.691964 7.790179 -40.641741 7.700893 -40.563616L4.436384 -37.299107C4.358259 -37.165179 4.308036 -37.042411 4.285714 -36.930804ZM25.714286 -27.857143C25.714286 -28.448661 25.505022 -28.953683 25.086496 -29.372210C24.667969 -29.790737 24.162946 -30.000000 23.571429 -30.000000C22.979911 -30.000000 22.474888 -29.790737 22.056362 -29.372210C21.637835 -28.953683 21.428571 -28.448661 21.428571 -27.857143C21.428571 -27.265625 21.637835 -26.760603 22.056362 -26.342076C22.474888 -25.923549 22.979911 -25.714286 23.571429 -25.714286C24.162946 -25.714286 24.667969 -25.923549 25.086496 -26.342076C25.505022 -26.760603 25.714286 -27.265625 25.714286 -27.857143ZM27.857143 -39.107143L27.857143 -42.321429C27.857143 -42.477679 27.806920 -42.606027 27.706473 -42.706473C27.606027 -42.806920 27.477679 -42.857143 27.321429 -42.857143L23.571429 -42.857143L23.571429 -46.607143C23.571429 -46.763393 23.521205 -46.891741 23.420759 -46.992188C23.320312 -47.092634 23.191964 -47.142857 23.035714 -47.142857L19.821429 -47.142857C19.665179 -47.142857 19.536830 -47.092634 19.436384 -46.992188C19.335938 -46.891741 19.285714 -46.763393 19.285714 -46.607143L19.285714 -42.857143L15.535714 -42.857143C15.379464 -42.857143 15.251116 -42.806920 15.150670 -42.706473C15.050223 -42.606027 15.000000 -42.477679 15.000000 -42.321429L15.000000 -39.107143C15.000000 -38.950893 15.050223 -38.822545 15.150670 -38.722098C15.251116 -38.621652 15.379464 -38.571429 15.535714 -38.571429L19.285714 -38.571429L19.285714 -34.821429C19.285714 -34.665179 19.335938 -34.536830 19.436384 -34.436384C19.536830 -34.335938 19.665179 -34.285714 19.821429 -34.285714L23.035714 -34.285714C23.191964 -34.285714 23.320312 -34.335938 23.420759 -34.436384C23.521205 -34.536830 23.571429 -34.665179 23.571429 -34.821429L23.571429 -38.571429L27.321429 -38.571429C27.477679 -38.571429 27.606027 -38.621652 27.706473 -38.722098C27.806920 -38.822545 27.857143 -38.950893 27.857143 -39.107143ZM32.142857 -48.214286L32.142857 -28.928571C32.142857 -28.638393 32.036830 -28.387277 31.824777 -28.175223C31.612723 -27.963170 31.361607 -27.857143 31.071429 -27.857143L27.857143 -27.857143C27.857143 -26.674107 27.438616 -25.664062 26.601562 -24.827009C25.764509 -23.989955 24.754464 -23.571429 23.571429 -23.571429C22.388393 -23.571429 21.378348 -23.989955 20.541295 -24.827009C19.704241 -25.664062 19.285714 -26.674107 19.285714 -27.857143L12.857143 -27.857143C12.857143 -26.674107 12.438616 -25.664062 11.601562 -24.827009C10.764509 -23.989955 9.754464 -23.571429 8.571429 -23.571429C7.388393 -23.571429 6.378348 -23.989955 5.541295 -24.827009C4.704241 -25.664062 4.285714 -26.674107 4.285714 -27.857143L2.142857 -27.857143C1.852679 -27.857143 1.601562 -27.963170 1.389509 -28.175223C1.177455 -28.387277 1.071429 -28.638393 1.071429 -28.928571C1.071429 -29.218750 1.177455 -29.469866 1.389509 -29.681920C1.601562 -29.893973 1.852679 -30.000000 2.142857 -30.000000L2.142857 -36.964286C2.142857 -37.254464 2.215402 -37.578125 2.360491 -37.935268C2.505580 -38.292411 2.684152 -38.577009 2.896205 -38.789062L6.210938 -42.103795C6.422991 -42.315848 6.707589 -42.494420 7.064732 -42.639509C7.421875 -42.784598 7.745536 -42.857143 8.035714 -42.857143L10.714286 -42.857143L10.714286 -48.214286C10.714286 -48.504464 10.820312 -48.755580 11.032366 -48.967634C11.244420 -49.179688 11.495536 -49.285714 11.785714 -49.285714L31.071429 -49.285714C31.361607 -49.285714 31.612723 -49.179688 31.824777 -48.967634C32.036830 -48.755580 32.142857 -48.504464 32.142857 -48.214286ZM32.142857 -48.214286"></path></svg>