<svg width="9.743304" height="16.707589" viewBox="0.217634 -34.704241 9.743304 16.707589" xmlns="http://www.w3.org/2000/svg"><path d="M9.960938 -26.350446C9.960938 -26.205357 9.905134 -26.077009 9.793527 -25.965402L1.992188 -18.164062C1.880580 -18.052455 1.752232 -17.996652 1.607143 -17.996652C1.462054 -17.996652 1.333705 -18.052455 1.222098 -18.164062L0.385045 -19.001116C0.273438 -19.112723 0.217634 -19.241071 0.217634 -19.386161C0.217634 -19.531250 0.273438 -19.659598 0.385045 -19.771205L6.964286 -26.350446L0.385045 -32.929688C0.273438 -33.041295 0.217634 -33.169643 0.217634 -33.314732C0.217634 -33.459821 0.273438 -33.588170 0.385045 -33.699777L1.222098 -34.536830C1.333705 -34.648438 1.462054 -34.704241 1.607143 -34.704241C1.752232 -34.704241 1.880580 -34.648438 1.992188 -34.536830L9.793527 -26.735491C9.905134 -26.623884 9.960938 -26.495536 9.960938 -26.350446ZM9.960938 -26.350446"></path></svg>