<svg width="23.320312" height="27.857143" viewBox="0.000000 -53.571429 23.320312 27.857143" xmlns="http://www.w3.org/2000/svg"><path d="M23.320312 -33.231027C22.885045 -31.835938 22.198661 -30.440848 21.261161 -29.045759C19.821429 -26.858259 18.387277 -25.764509 16.958705 -25.764509C16.411830 -25.764509 15.630580 -25.943080 14.614955 -26.300223C13.655134 -26.657366 12.812500 -26.835938 12.087054 -26.835938C11.406250 -26.835938 10.613839 -26.651786 9.709821 -26.283482C8.805804 -25.904018 8.069196 -25.714286 7.500000 -25.714286C5.803571 -25.714286 4.123884 -27.159598 2.460938 -30.050223C0.820312 -32.963170 0.000000 -35.770089 0.000000 -38.470982C0.000000 -41.015625 0.630580 -43.102679 1.891741 -44.732143C3.152902 -46.339286 4.737723 -47.142857 6.646205 -47.142857C7.449777 -47.142857 8.437500 -46.975446 9.609375 -46.640625C10.770089 -46.305804 11.540179 -46.138393 11.919643 -46.138393C12.421875 -46.138393 13.219866 -46.328125 14.313616 -46.707589C15.452009 -47.087054 16.417411 -47.276786 17.209821 -47.276786C18.537946 -47.276786 19.726562 -46.914062 20.775670 -46.188616C21.356027 -45.786830 21.936384 -45.228795 22.516741 -44.514509C21.635045 -43.766741 20.998884 -43.108259 20.608259 -42.539062C19.882812 -41.489955 19.520089 -40.334821 19.520089 -39.073661C19.520089 -37.689732 19.905134 -36.445312 20.675223 -35.340402C21.445312 -34.235491 22.327009 -33.532366 23.320312 -33.231027ZM17.025670 -52.868304C17.025670 -52.187500 16.863839 -51.428571 16.540179 -50.591518C16.205357 -49.754464 15.686384 -48.984375 14.983259 -48.281250C14.380580 -47.678571 13.777902 -47.276786 13.175223 -47.075893C12.762277 -46.953125 12.181920 -46.858259 11.434152 -46.791295C11.467634 -48.454241 11.902902 -49.888393 12.739955 -51.093750C13.565848 -52.287946 14.960938 -53.113839 16.925223 -53.571429C16.936384 -53.537946 16.950335 -53.476562 16.967076 -53.387277C16.983817 -53.297991 16.997768 -53.236607 17.008929 -53.203125C17.008929 -53.158482 17.011719 -53.102679 17.017299 -53.035714C17.022879 -52.968750 17.025670 -52.912946 17.025670 -52.868304ZM17.025670 -52.868304"></path></svg>