<svg width="25.714286" height="25.714286" viewBox="0.000000 -49.285714 25.714286 25.714286" xmlns="http://www.w3.org/2000/svg"><path d="M19.285714 -38.035714L19.285714 -34.821429C19.285714 -34.676339 19.232701 -34.550781 19.126674 -34.444754C19.020647 -34.338728 18.895089 -34.285714 18.750000 -34.285714L12.857143 -34.285714L12.857143 -31.071429C12.857143 -30.915179 12.806920 -30.786830 12.706473 -30.686384C12.606027 -30.585937 12.477679 -30.535714 12.321429 -30.535714C12.187500 -30.535714 12.053571 -30.591518 11.919643 -30.703125L6.579241 -36.043527C6.478795 -36.143973 6.428571 -36.272321 6.428571 -36.428571C6.428571 -36.584821 6.478795 -36.713170 6.579241 -36.813616L11.936384 -42.170759C12.036830 -42.271205 12.165179 -42.321429 12.321429 -42.321429C12.466518 -42.321429 12.592076 -42.268415 12.698103 -42.162388C12.804129 -42.056362 12.857143 -41.930804 12.857143 -41.785714L12.857143 -38.571429L18.750000 -38.571429C18.895089 -38.571429 19.020647 -38.518415 19.126674 -38.412388C19.232701 -38.306362 19.285714 -38.180804 19.285714 -38.035714ZM21.964286 -36.428571C21.964286 -38.080357 21.556920 -39.603795 20.742188 -40.998884C19.927455 -42.393973 18.822545 -43.498884 17.427455 -44.313616C16.032366 -45.128348 14.508929 -45.535714 12.857143 -45.535714C11.205357 -45.535714 9.681920 -45.128348 8.286830 -44.313616C6.891741 -43.498884 5.786830 -42.393973 4.972098 -40.998884C4.157366 -39.603795 3.750000 -38.080357 3.750000 -36.428571C3.750000 -34.776786 4.157366 -33.253348 4.972098 -31.858259C5.786830 -30.463170 6.891741 -29.358259 8.286830 -28.543527C9.681920 -27.728795 11.205357 -27.321429 12.857143 -27.321429C14.508929 -27.321429 16.032366 -27.728795 17.427455 -28.543527C18.822545 -29.358259 19.927455 -30.463170 20.742188 -31.858259C21.556920 -33.253348 21.964286 -34.776786 21.964286 -36.428571ZM25.714286 -36.428571C25.714286 -34.095982 25.139509 -31.944754 23.989955 -29.974888C22.840402 -28.005022 21.280692 -26.445312 19.310826 -25.295759C17.340960 -24.146205 15.189732 -23.571429 12.857143 -23.571429C10.524554 -23.571429 8.373326 -24.146205 6.403460 -25.295759C4.433594 -26.445312 2.873884 -28.005022 1.724330 -29.974888C0.574777 -31.944754 0.000000 -34.095982 0.000000 -36.428571C0.000000 -38.761161 0.574777 -40.912388 1.724330 -42.882254C2.873884 -44.852121 4.433594 -46.411830 6.403460 -47.561384C8.373326 -48.710938 10.524554 -49.285714 12.857143 -49.285714C15.189732 -49.285714 17.340960 -48.710938 19.310826 -47.561384C21.280692 -46.411830 22.840402 -44.852121 23.989955 -42.882254C25.139509 -40.912388 25.714286 -38.761161 25.714286 -36.428571ZM25.714286 -36.428571"></path></svg>