<svg width="25.714286" height="25.714286" viewBox="0.000000 -49.285714 25.714286 25.714286" xmlns="http://www.w3.org/2000/svg"><path d="M21.478795 -42.371652L15.535714 -36.428571L21.478795 -30.485491L23.889509 -32.896205C24.213170 -33.242188 24.603795 -33.320312 25.061384 -33.130580C25.496652 -32.940848 25.714286 -32.611607 25.714286 -32.142857L25.714286 -24.642857C25.714286 -24.352679 25.608259 -24.101562 25.396205 -23.889509C25.184152 -23.677455 24.933036 -23.571429 24.642857 -23.571429L17.142857 -23.571429C16.674107 -23.571429 16.344866 -23.794643 16.155134 -24.241071C15.965402 -24.676339 16.043527 -25.061384 16.389509 -25.396205L18.800223 -27.806920L12.857143 -33.750000L6.914062 -27.806920L9.324777 -25.396205C9.670759 -25.061384 9.748884 -24.676339 9.559152 -24.241071C9.369420 -23.794643 9.040179 -23.571429 8.571429 -23.571429L1.071429 -23.571429C0.781250 -23.571429 0.530134 -23.677455 0.318080 -23.889509C0.106027 -24.101562 0.000000 -24.352679 0.000000 -24.642857L0.000000 -32.142857C0.000000 -32.611607 0.223214 -32.940848 0.669643 -33.130580C1.104911 -33.320312 1.489955 -33.242188 1.824777 -32.896205L4.235491 -30.485491L10.178571 -36.428571L4.235491 -42.371652L1.824777 -39.960938C1.612723 -39.748884 1.361607 -39.642857 1.071429 -39.642857C0.937500 -39.642857 0.803571 -39.670759 0.669643 -39.726562C0.223214 -39.916295 0.000000 -40.245536 0.000000 -40.714286L0.000000 -48.214286C0.000000 -48.504464 0.106027 -48.755580 0.318080 -48.967634C0.530134 -49.179688 0.781250 -49.285714 1.071429 -49.285714L8.571429 -49.285714C9.040179 -49.285714 9.369420 -49.062500 9.559152 -48.616071C9.748884 -48.180804 9.670759 -47.795759 9.324777 -47.460938L6.914062 -45.050223L12.857143 -39.107143L18.800223 -45.050223L16.389509 -47.460938C16.043527 -47.795759 15.965402 -48.180804 16.155134 -48.616071C16.344866 -49.062500 16.674107 -49.285714 17.142857 -49.285714L24.642857 -49.285714C24.933036 -49.285714 25.184152 -49.179688 25.396205 -48.967634C25.608259 -48.755580 25.714286 -48.504464 25.714286 -48.214286L25.714286 -40.714286C25.714286 -40.245536 25.496652 -39.916295 25.061384 -39.726562C24.916295 -39.670759 24.776786 -39.642857 24.642857 -39.642857C24.352679 -39.642857 24.101562 -39.748884 23.889509 -39.960938ZM21.478795 -42.371652"></path></svg>