<svg width="25.714286" height="25.714286" viewBox="0.000000 -49.285714 25.714286 25.714286" xmlns="http://www.w3.org/2000/svg"><path d="M18.716518 -36.763393C18.627232 -36.540179 18.459821 -36.428571 18.214286 -36.428571L15.000000 -36.428571L15.000000 -30.535714C15.000000 -30.379464 14.949777 -30.251116 14.849330 -30.150670C14.748884 -30.050223 14.620536 -30.000000 14.464286 -30.000000L11.250000 -30.000000C11.093750 -30.000000 10.965402 -30.050223 10.864955 -30.150670C10.764509 -30.251116 10.714286 -30.379464 10.714286 -30.535714L10.714286 -36.428571L7.500000 -36.428571C7.343750 -36.428571 7.215402 -36.478795 7.114955 -36.579241C7.014509 -36.679688 6.964286 -36.808036 6.964286 -36.964286C6.964286 -37.098214 7.020089 -37.232143 7.131696 -37.366071L12.472098 -42.706473C12.594866 -42.806920 12.723214 -42.857143 12.857143 -42.857143C12.991071 -42.857143 13.119420 -42.806920 13.242188 -42.706473L18.599330 -37.349330C18.766741 -37.170759 18.805804 -36.975446 18.716518 -36.763393ZM12.857143 -45.535714C11.205357 -45.535714 9.681920 -45.128348 8.286830 -44.313616C6.891741 -43.498884 5.786830 -42.393973 4.972098 -40.998884C4.157366 -39.603795 3.750000 -38.080357 3.750000 -36.428571C3.750000 -34.776786 4.157366 -33.253348 4.972098 -31.858259C5.786830 -30.463170 6.891741 -29.358259 8.286830 -28.543527C9.681920 -27.728795 11.205357 -27.321429 12.857143 -27.321429C14.508929 -27.321429 16.032366 -27.728795 17.427455 -28.543527C18.822545 -29.358259 19.927455 -30.463170 20.742188 -31.858259C21.556920 -33.253348 21.964286 -34.776786 21.964286 -36.428571C21.964286 -38.080357 21.556920 -39.603795 20.742188 -40.998884C19.927455 -42.393973 18.822545 -43.498884 17.427455 -44.313616C16.032366 -45.128348 14.508929 -45.535714 12.857143 -45.535714ZM25.714286 -36.428571C25.714286 -34.095982 25.139509 -31.944754 23.989955 -29.974888C22.840402 -28.005022 21.280692 -26.445312 19.310826 -25.295759C17.340960 -24.146205 15.189732 -23.571429 12.857143 -23.571429C10.524554 -23.571429 8.373326 -24.146205 6.403460 -25.295759C4.433594 -26.445312 2.873884 -28.005022 1.724330 -29.974888C0.574777 -31.944754 0.000000 -34.095982 0.000000 -36.428571C0.000000 -38.761161 0.574777 -40.912388 1.724330 -42.882254C2.873884 -44.852121 4.433594 -46.411830 6.403460 -47.561384C8.373326 -48.710938 10.524554 -49.285714 12.857143 -49.285714C15.189732 -49.285714 17.340960 -48.710938 19.310826 -47.561384C21.280692 -46.411830 22.840402 -44.852121 23.989955 -42.882254C25.139509 -40.912388 25.714286 -38.761161 25.714286 -36.428571ZM25.714286 -36.428571"></path></svg>