<svg width="25.714286" height="25.714286" viewBox="0.000000 -49.285714 25.714286 25.714286" xmlns="http://www.w3.org/2000/svg"><path d="M21.495536 -36.411830C21.495536 -36.713170 21.395089 -36.964286 21.194196 -37.165179L19.670759 -38.688616C19.469866 -38.889509 19.218750 -38.989955 18.917411 -38.989955C18.616071 -38.989955 18.364955 -38.889509 18.164062 -38.688616L15.000000 -35.524554L15.000000 -43.928571C15.000000 -44.218750 14.893973 -44.469866 14.681920 -44.681920C14.469866 -44.893973 14.218750 -45.000000 13.928571 -45.000000L11.785714 -45.000000C11.495536 -45.000000 11.244420 -44.893973 11.032366 -44.681920C10.820312 -44.469866 10.714286 -44.218750 10.714286 -43.928571L10.714286 -35.524554L7.550223 -38.688616C7.338170 -38.900670 7.087054 -39.006696 6.796875 -39.006696C6.506696 -39.006696 6.255580 -38.900670 6.043527 -38.688616L4.520089 -37.165179C4.319196 -36.964286 4.218750 -36.713170 4.218750 -36.411830C4.218750 -36.110491 4.319196 -35.859375 4.520089 -35.658482L10.580357 -29.598214L12.103795 -28.074777C12.304688 -27.873884 12.555804 -27.773437 12.857143 -27.773437C13.158482 -27.773437 13.409598 -27.873884 13.610491 -28.074777L15.133929 -29.598214L21.194196 -35.658482C21.395089 -35.859375 21.495536 -36.110491 21.495536 -36.411830ZM25.714286 -36.428571C25.714286 -34.095982 25.139509 -31.944754 23.989955 -29.974888C22.840402 -28.005022 21.280692 -26.445312 19.310826 -25.295759C17.340960 -24.146205 15.189732 -23.571429 12.857143 -23.571429C10.524554 -23.571429 8.373326 -24.146205 6.403460 -25.295759C4.433594 -26.445312 2.873884 -28.005022 1.724330 -29.974888C0.574777 -31.944754 0.000000 -34.095982 0.000000 -36.428571C0.000000 -38.761161 0.574777 -40.912388 1.724330 -42.882254C2.873884 -44.852121 4.433594 -46.411830 6.403460 -47.561384C8.373326 -48.710938 10.524554 -49.285714 12.857143 -49.285714C15.189732 -49.285714 17.340960 -48.710938 19.310826 -47.561384C21.280692 -46.411830 22.840402 -44.852121 23.989955 -42.882254C25.139509 -40.912388 25.714286 -38.761161 25.714286 -36.428571ZM25.714286 -36.428571"></path></svg>