<svg width="25.814732" height="25.848214" viewBox="2.042411 -49.486607 25.814732 25.848214" xmlns="http://www.w3.org/2000/svg"><path d="M27.103795 -49.202009C27.315848 -49.414062 27.494420 -49.486607 27.639509 -49.419643C27.784598 -49.352679 27.857143 -49.174107 27.857143 -48.883929L27.857143 -24.241071C27.857143 -23.950893 27.784598 -23.772321 27.639509 -23.705357C27.494420 -23.638393 27.315848 -23.710938 27.103795 -23.922991L15.217634 -35.809152C15.117188 -35.909598 15.044643 -36.015625 15.000000 -36.127232L15.000000 -24.241071C15.000000 -23.950893 14.927455 -23.772321 14.782366 -23.705357C14.637277 -23.638393 14.458705 -23.710938 14.246652 -23.922991L2.360491 -35.809152C2.148438 -36.021205 2.042411 -36.272321 2.042411 -36.562500C2.042411 -36.852679 2.148438 -37.103795 2.360491 -37.315848L14.246652 -49.202009C14.458705 -49.414062 14.637277 -49.486607 14.782366 -49.419643C14.927455 -49.352679 15.000000 -49.174107 15.000000 -48.883929L15.000000 -36.997768C15.044643 -37.109375 15.117188 -37.215402 15.217634 -37.315848ZM27.103795 -49.202009"></path></svg>