<svg width="33.811384" height="30.000000" viewBox="0.237165 -55.714286 33.811384 30.000000" xmlns="http://www.w3.org/2000/svg"><path d="M26.082589 -41.450893C26.763393 -37.477679 28.426339 -34.375000 31.071429 -32.142857C31.071429 -31.562500 30.859375 -31.060268 30.435268 -30.636161C30.011161 -30.212054 29.508929 -30.000000 28.928571 -30.000000L21.428571 -30.000000C21.428571 -28.816964 21.010045 -27.806920 20.172991 -26.969866C19.335938 -26.132812 18.325893 -25.714286 17.142857 -25.714286C15.959821 -25.714286 14.952567 -26.130022 14.121094 -26.961496C13.289621 -27.792969 12.868304 -28.800223 12.857143 -29.983259ZM17.142857 -27.053571C17.321429 -27.053571 17.410714 -27.142857 17.410714 -27.321429C17.410714 -27.500000 17.321429 -27.589286 17.142857 -27.589286C16.484375 -27.589286 15.917969 -27.826451 15.443638 -28.300781C14.969308 -28.775112 14.732143 -29.341518 14.732143 -30.000000C14.732143 -30.178571 14.642857 -30.267857 14.464286 -30.267857C14.285714 -30.267857 14.196429 -30.178571 14.196429 -30.000000C14.196429 -29.185268 14.483817 -28.490513 15.058594 -27.915737C15.633371 -27.340960 16.328125 -27.053571 17.142857 -27.053571ZM33.917411 -53.839286C34.006696 -53.727679 34.048549 -53.596540 34.042969 -53.445871C34.037388 -53.295201 33.978795 -53.169643 33.867188 -53.069196L2.527902 -25.915179C2.416295 -25.825893 2.285156 -25.786830 2.134487 -25.797991C1.983817 -25.809152 1.863839 -25.870536 1.774554 -25.982143L0.368304 -27.589286C0.279018 -27.700893 0.237165 -27.832031 0.242746 -27.982701C0.248326 -28.133371 0.306920 -28.253348 0.418527 -28.342634L3.532366 -31.037946C3.320312 -31.395089 3.214286 -31.763393 3.214286 -32.142857C3.772321 -32.611607 4.280134 -33.102679 4.737723 -33.616071C5.195312 -34.129464 5.669643 -34.796317 6.160714 -35.616629C6.651786 -36.436942 7.067522 -37.321429 7.407924 -38.270089C7.748326 -39.218750 8.027344 -40.368304 8.244978 -41.718750C8.462612 -43.069196 8.571429 -44.520089 8.571429 -46.071429C8.571429 -47.767857 9.224330 -49.344308 10.530134 -50.800781C11.835938 -52.257254 13.549107 -53.141741 15.669643 -53.454241C15.580357 -53.666295 15.535714 -53.883929 15.535714 -54.107143C15.535714 -54.553571 15.691964 -54.933036 16.004464 -55.245536C16.316964 -55.558036 16.696429 -55.714286 17.142857 -55.714286C17.589286 -55.714286 17.968750 -55.558036 18.281250 -55.245536C18.593750 -54.933036 18.750000 -54.553571 18.750000 -54.107143C18.750000 -53.883929 18.705357 -53.666295 18.616071 -53.454241C20.000000 -53.253348 21.222098 -52.792969 22.282366 -52.073103C23.342634 -51.353237 24.168527 -50.474330 24.760045 -49.436384L31.757812 -55.513393C31.869420 -55.602679 32.000558 -55.641741 32.151228 -55.630580C32.301897 -55.619420 32.421875 -55.558036 32.511161 -55.446429ZM33.917411 -53.839286"></path></svg>