<svg width="30.000000" height="25.806362" viewBox="0.000000 -49.377790 30.000000 25.806362" xmlns="http://www.w3.org/2000/svg"><path d="M27.857143 -40.806362C28.448661 -40.806362 28.953683 -40.597098 29.372210 -40.178571C29.790737 -39.760045 30.000000 -39.255022 30.000000 -38.663504C30.000000 -38.071987 29.790737 -37.566964 29.372210 -37.148438C28.953683 -36.729911 28.448661 -36.520647 27.857143 -36.520647L27.857143 -30.092076C27.857143 -29.511719 27.645089 -29.009487 27.220982 -28.585379C26.796875 -28.161272 26.294643 -27.949219 25.714286 -27.949219C21.060268 -31.821987 16.529018 -33.942522 12.120536 -34.310826C11.473214 -34.098772 10.965402 -33.730469 10.597098 -33.205915C10.228795 -32.681362 10.055804 -32.120536 10.078125 -31.523437C10.100446 -30.926339 10.323661 -30.410156 10.747768 -29.974888C10.524554 -29.606585 10.396205 -29.241071 10.362723 -28.878348C10.329241 -28.515625 10.362723 -28.191964 10.463170 -27.907366C10.563616 -27.622768 10.750558 -27.315848 11.023996 -26.986607C11.297433 -26.657366 11.565290 -26.378348 11.827567 -26.149554C12.089844 -25.920759 12.433036 -25.638951 12.857143 -25.304129C12.533482 -24.656808 11.911272 -24.193638 10.990513 -23.914621C10.069754 -23.635603 9.129464 -23.571429 8.169643 -23.722098C7.209821 -23.872768 6.473214 -24.182478 5.959821 -24.651228C5.881696 -24.907924 5.717076 -25.396205 5.465960 -26.116071C5.214844 -26.835937 5.036272 -27.363281 4.930246 -27.698103C4.824219 -28.032924 4.695871 -28.529576 4.545201 -29.188058C4.394531 -29.846540 4.310826 -30.410156 4.294085 -30.878906C4.277344 -31.347656 4.296875 -31.897321 4.352679 -32.527902C4.408482 -33.158482 4.531250 -33.775112 4.720982 -34.377790L2.678571 -34.377790C1.941964 -34.377790 1.311384 -34.640067 0.786830 -35.164621C0.262277 -35.689174 0.000000 -36.319754 0.000000 -37.056362L0.000000 -40.270647C0.000000 -41.007254 0.262277 -41.637835 0.786830 -42.162388C1.311384 -42.686942 1.941964 -42.949219 2.678571 -42.949219L10.714286 -42.949219C15.569196 -42.949219 20.569196 -45.092076 25.714286 -49.377790C26.294643 -49.377790 26.796875 -49.165737 27.220982 -48.741629C27.645089 -48.317522 27.857143 -47.815290 27.857143 -47.234933ZM25.714286 -30.694754L25.714286 -46.665737C21.316964 -43.295201 17.031250 -41.381138 12.857143 -40.923549L12.857143 -36.403460C17.064732 -35.934710 21.350446 -34.031808 25.714286 -30.694754ZM25.714286 -30.694754"></path></svg>