<svg width="27.857143" height="30.000000" viewBox="0.000000 -55.714286 27.857143 30.000000" xmlns="http://www.w3.org/2000/svg"><path d="M6.428571 -30.000000C6.428571 -30.591518 6.219308 -31.096540 5.800781 -31.515067C5.382254 -31.933594 4.877232 -32.142857 4.285714 -32.142857C3.694196 -32.142857 3.189174 -31.933594 2.770647 -31.515067C2.352121 -31.096540 2.142857 -30.591518 2.142857 -30.000000C2.142857 -29.408482 2.352121 -28.903460 2.770647 -28.484933C3.189174 -28.066406 3.694196 -27.857143 4.285714 -27.857143C4.877232 -27.857143 5.382254 -28.066406 5.800781 -28.484933C6.219308 -28.903460 6.428571 -29.408482 6.428571 -30.000000ZM12.857143 -30.000000C12.857143 -30.591518 12.647879 -31.096540 12.229353 -31.515067C11.810826 -31.933594 11.305804 -32.142857 10.714286 -32.142857C10.122768 -32.142857 9.617746 -31.933594 9.199219 -31.515067C8.780692 -31.096540 8.571429 -30.591518 8.571429 -30.000000C8.571429 -29.408482 8.780692 -28.903460 9.199219 -28.484933C9.617746 -28.066406 10.122768 -27.857143 10.714286 -27.857143C11.305804 -27.857143 11.810826 -28.066406 12.229353 -28.484933C12.647879 -28.903460 12.857143 -29.408482 12.857143 -30.000000ZM6.428571 -36.428571C6.428571 -37.020089 6.219308 -37.525112 5.800781 -37.943638C5.382254 -38.362165 4.877232 -38.571429 4.285714 -38.571429C3.694196 -38.571429 3.189174 -38.362165 2.770647 -37.943638C2.352121 -37.525112 2.142857 -37.020089 2.142857 -36.428571C2.142857 -35.837054 2.352121 -35.332031 2.770647 -34.913504C3.189174 -34.494978 3.694196 -34.285714 4.285714 -34.285714C4.877232 -34.285714 5.382254 -34.494978 5.800781 -34.913504C6.219308 -35.332031 6.428571 -35.837054 6.428571 -36.428571ZM19.285714 -30.000000C19.285714 -30.591518 19.076451 -31.096540 18.657924 -31.515067C18.239397 -31.933594 17.734375 -32.142857 17.142857 -32.142857C16.551339 -32.142857 16.046317 -31.933594 15.627790 -31.515067C15.209263 -31.096540 15.000000 -30.591518 15.000000 -30.000000C15.000000 -29.408482 15.209263 -28.903460 15.627790 -28.484933C16.046317 -28.066406 16.551339 -27.857143 17.142857 -27.857143C17.734375 -27.857143 18.239397 -28.066406 18.657924 -28.484933C19.076451 -28.903460 19.285714 -29.408482 19.285714 -30.000000ZM12.857143 -36.428571C12.857143 -37.020089 12.647879 -37.525112 12.229353 -37.943638C11.810826 -38.362165 11.305804 -38.571429 10.714286 -38.571429C10.122768 -38.571429 9.617746 -38.362165 9.199219 -37.943638C8.780692 -37.525112 8.571429 -37.020089 8.571429 -36.428571C8.571429 -35.837054 8.780692 -35.332031 9.199219 -34.913504C9.617746 -34.494978 10.122768 -34.285714 10.714286 -34.285714C11.305804 -34.285714 11.810826 -34.494978 12.229353 -34.913504C12.647879 -35.332031 12.857143 -35.837054 12.857143 -36.428571ZM6.428571 -42.857143C6.428571 -43.448661 6.219308 -43.953683 5.800781 -44.372210C5.382254 -44.790737 4.877232 -45.000000 4.285714 -45.000000C3.694196 -45.000000 3.189174 -44.790737 2.770647 -44.372210C2.352121 -43.953683 2.142857 -43.448661 2.142857 -42.857143C2.142857 -42.265625 2.352121 -41.760603 2.770647 -41.342076C3.189174 -40.923549 3.694196 -40.714286 4.285714 -40.714286C4.877232 -40.714286 5.382254 -40.923549 5.800781 -41.342076C6.219308 -41.760603 6.428571 -42.265625 6.428571 -42.857143ZM19.285714 -36.428571C19.285714 -37.020089 19.076451 -37.525112 18.657924 -37.943638C18.239397 -38.362165 17.734375 -38.571429 17.142857 -38.571429C16.551339 -38.571429 16.046317 -38.362165 15.627790 -37.943638C15.209263 -37.525112 15.000000 -37.020089 15.000000 -36.428571C15.000000 -35.837054 15.209263 -35.332031 15.627790 -34.913504C16.046317 -34.494978 16.551339 -34.285714 17.142857 -34.285714C17.734375 -34.285714 18.239397 -34.494978 18.657924 -34.913504C19.076451 -35.332031 19.285714 -35.837054 19.285714 -36.428571ZM12.857143 -42.857143C12.857143 -43.448661 12.647879 -43.953683 12.229353 -44.372210C11.810826 -44.790737 11.305804 -45.000000 10.714286 -45.000000C10.122768 -45.000000 9.617746 -44.790737 9.199219 -44.372210C8.780692 -43.953683 8.571429 -43.448661 8.571429 -42.857143C8.571429 -42.265625 8.780692 -41.760603 9.199219 -41.342076C9.617746 -40.923549 10.122768 -40.714286 10.714286 -40.714286C11.305804 -40.714286 11.810826 -40.923549 12.229353 -41.342076C12.647879 -41.760603 12.857143 -42.265625 12.857143 -42.857143ZM25.714286 -30.000000L25.714286 -36.428571C25.714286 -37.008929 25.502232 -37.511161 25.078125 -37.935268C24.654018 -38.359375 24.151786 -38.571429 23.571429 -38.571429C22.991071 -38.571429 22.488839 -38.359375 22.064732 -37.935268C21.640625 -37.511161 21.428571 -37.008929 21.428571 -36.428571L21.428571 -30.000000C21.428571 -29.419643 21.640625 -28.917411 22.064732 -28.493304C22.488839 -28.069196 22.991071 -27.857143 23.571429 -27.857143C24.151786 -27.857143 24.654018 -28.069196 25.078125 -28.493304C25.502232 -28.917411 25.714286 -29.419643 25.714286 -30.000000ZM19.285714 -42.857143C19.285714 -43.448661 19.076451 -43.953683 18.657924 -44.372210C18.239397 -44.790737 17.734375 -45.000000 17.142857 -45.000000C16.551339 -45.000000 16.046317 -44.790737 15.627790 -44.372210C15.209263 -43.953683 15.000000 -43.448661 15.000000 -42.857143C15.000000 -42.265625 15.209263 -41.760603 15.627790 -41.342076C16.046317 -40.923549 16.551339 -40.714286 17.142857 -40.714286C17.734375 -40.714286 18.239397 -40.923549 18.657924 -41.342076C19.076451 -41.760603 19.285714 -42.265625 19.285714 -42.857143ZM25.714286 -48.214286L25.714286 -52.500000C25.714286 -52.790179 25.608259 -53.041295 25.396205 -53.253348C25.184152 -53.465402 24.933036 -53.571429 24.642857 -53.571429L3.214286 -53.571429C2.924107 -53.571429 2.672991 -53.465402 2.460938 -53.253348C2.248884 -53.041295 2.142857 -52.790179 2.142857 -52.500000L2.142857 -48.214286C2.142857 -47.924107 2.248884 -47.672991 2.460938 -47.460938C2.672991 -47.248884 2.924107 -47.142857 3.214286 -47.142857L24.642857 -47.142857C24.933036 -47.142857 25.184152 -47.248884 25.396205 -47.460938C25.608259 -47.672991 25.714286 -47.924107 25.714286 -48.214286ZM25.714286 -42.857143C25.714286 -43.448661 25.505022 -43.953683 25.086496 -44.372210C24.667969 -44.790737 24.162946 -45.000000 23.571429 -45.000000C22.979911 -45.000000 22.474888 -44.790737 22.056362 -44.372210C21.637835 -43.953683 21.428571 -43.448661 21.428571 -42.857143C21.428571 -42.265625 21.637835 -41.760603 22.056362 -41.342076C22.474888 -40.923549 22.979911 -40.714286 23.571429 -40.714286C24.162946 -40.714286 24.667969 -40.923549 25.086496 -41.342076C25.505022 -41.760603 25.714286 -42.265625 25.714286 -42.857143ZM27.857143 -53.571429L27.857143 -27.857143C27.857143 -27.276786 27.645089 -26.774554 27.220982 -26.350446C26.796875 -25.926339 26.294643 -25.714286 25.714286 -25.714286L2.142857 -25.714286C1.562500 -25.714286 1.060268 -25.926339 0.636161 -26.350446C0.212054 -26.774554 0.000000 -27.276786 0.000000 -27.857143L0.000000 -53.571429C0.000000 -54.151786 0.212054 -54.654018 0.636161 -55.078125C1.060268 -55.502232 1.562500 -55.714286 2.142857 -55.714286L25.714286 -55.714286C26.294643 -55.714286 26.796875 -55.502232 27.220982 -55.078125C27.645089 -54.654018 27.857143 -54.151786 27.857143 -53.571429ZM27.857143 -53.571429"></path></svg>