<svg width="9.642857" height="17.142857" viewBox="0.000000 -36.428571 9.642857 17.142857" xmlns="http://www.w3.org/2000/svg"><path d="M9.642857 -27.857143C9.642857 -27.566964 9.536830 -27.315848 9.324777 -27.103795L1.824777 -19.603795C1.612723 -19.391741 1.361607 -19.285714 1.071429 -19.285714C0.781250 -19.285714 0.530134 -19.391741 0.318080 -19.603795C0.106027 -19.815848 0.000000 -20.066964 0.000000 -20.357143L0.000000 -35.357143C0.000000 -35.647321 0.106027 -35.898438 0.318080 -36.110491C0.530134 -36.322545 0.781250 -36.428571 1.071429 -36.428571C1.361607 -36.428571 1.612723 -36.322545 1.824777 -36.110491L9.324777 -28.610491C9.536830 -28.398438 9.642857 -28.147321 9.642857 -27.857143ZM9.642857 -27.857143"></path></svg>