<svg width="17.142857" height="9.642857" viewBox="0.000000 -23.571429 17.142857 9.642857" xmlns="http://www.w3.org/2000/svg"><path d="M17.142857 -15.000000C17.142857 -14.709821 17.036830 -14.458705 16.824777 -14.246652C16.612723 -14.034598 16.361607 -13.928571 16.071429 -13.928571L1.071429 -13.928571C0.781250 -13.928571 0.530134 -14.034598 0.318080 -14.246652C0.106027 -14.458705 0.000000 -14.709821 0.000000 -15.000000C0.000000 -15.290179 0.106027 -15.541295 0.318080 -15.753348L7.818080 -23.253348C8.030134 -23.465402 8.281250 -23.571429 8.571429 -23.571429C8.861607 -23.571429 9.112723 -23.465402 9.324777 -23.253348L16.824777 -15.753348C17.036830 -15.541295 17.142857 -15.290179 17.142857 -15.000000ZM17.142857 -15.000000"></path></svg>