<svg width="27.857143" height="23.571429" viewBox="0.000000 -45.000000 27.857143 23.571429" xmlns="http://www.w3.org/2000/svg"><path d="M21.428571 -37.500000C21.428571 -37.790179 21.322545 -38.041295 21.110491 -38.253348C20.898438 -38.465402 20.647321 -38.571429 20.357143 -38.571429C20.066964 -38.571429 19.815848 -38.465402 19.603795 -38.253348L17.142857 -35.809152L17.142857 -40.714286C17.142857 -41.004464 17.036830 -41.255580 16.824777 -41.467634C16.612723 -41.679688 16.361607 -41.785714 16.071429 -41.785714C15.781250 -41.785714 15.530134 -41.679688 15.318080 -41.467634C15.106027 -41.255580 15.000000 -41.004464 15.000000 -40.714286L15.000000 -35.809152L12.539062 -38.253348C12.327009 -38.465402 12.075893 -38.571429 11.785714 -38.571429C11.495536 -38.571429 11.244420 -38.465402 11.032366 -38.253348C10.820312 -38.041295 10.714286 -37.790179 10.714286 -37.500000C10.714286 -37.209821 10.820312 -36.958705 11.032366 -36.746652L15.318080 -32.460938C15.530134 -32.248884 15.781250 -32.142857 16.071429 -32.142857C16.361607 -32.142857 16.612723 -32.248884 16.824777 -32.460938L21.110491 -36.746652C21.322545 -36.958705 21.428571 -37.209821 21.428571 -37.500000ZM10.714286 -23.571429C10.714286 -22.979911 10.505022 -22.474888 10.086496 -22.056362C9.667969 -21.637835 9.162946 -21.428571 8.571429 -21.428571C7.979911 -21.428571 7.474888 -21.637835 7.056362 -22.056362C6.637835 -22.474888 6.428571 -22.979911 6.428571 -23.571429C6.428571 -24.162946 6.637835 -24.667969 7.056362 -25.086496C7.474888 -25.505022 7.979911 -25.714286 8.571429 -25.714286C9.162946 -25.714286 9.667969 -25.505022 10.086496 -25.086496C10.505022 -24.667969 10.714286 -24.162946 10.714286 -23.571429ZM25.714286 -23.571429C25.714286 -22.979911 25.505022 -22.474888 25.086496 -22.056362C24.667969 -21.637835 24.162946 -21.428571 23.571429 -21.428571C22.979911 -21.428571 22.474888 -21.637835 22.056362 -22.056362C21.637835 -22.474888 21.428571 -22.979911 21.428571 -23.571429C21.428571 -24.162946 21.637835 -24.667969 22.056362 -25.086496C22.474888 -25.505022 22.979911 -25.714286 23.571429 -25.714286C24.162946 -25.714286 24.667969 -25.505022 25.086496 -25.086496C25.505022 -24.667969 25.714286 -24.162946 25.714286 -23.571429ZM27.857143 -41.785714L27.857143 -33.214286C27.857143 -32.946429 27.767857 -32.709263 27.589286 -32.502790C27.410714 -32.296317 27.181920 -32.176339 26.902902 -32.142857L9.425223 -30.100446C9.436384 -30.022321 9.461496 -29.902344 9.500558 -29.740513C9.539621 -29.578683 9.573103 -29.430804 9.601004 -29.296875C9.628906 -29.162946 9.642857 -29.040179 9.642857 -28.928571C9.642857 -28.750000 9.508929 -28.392857 9.241071 -27.857143L24.642857 -27.857143C24.933036 -27.857143 25.184152 -27.751116 25.396205 -27.539062C25.608259 -27.327009 25.714286 -27.075893 25.714286 -26.785714C25.714286 -26.495536 25.608259 -26.244420 25.396205 -26.032366C25.184152 -25.820312 24.933036 -25.714286 24.642857 -25.714286L7.500000 -25.714286C7.209821 -25.714286 6.958705 -25.820312 6.746652 -26.032366C6.534598 -26.244420 6.428571 -26.495536 6.428571 -26.785714C6.428571 -26.941964 6.489955 -27.162388 6.612723 -27.446987C6.735491 -27.731585 6.900112 -28.063616 7.106585 -28.443080C7.313058 -28.822545 7.427455 -29.034598 7.449777 -29.079241L4.486607 -42.857143L1.071429 -42.857143C0.781250 -42.857143 0.530134 -42.963170 0.318080 -43.175223C0.106027 -43.387277 0.000000 -43.638393 0.000000 -43.928571C0.000000 -44.218750 0.106027 -44.469866 0.318080 -44.681920C0.530134 -44.893973 0.781250 -45.000000 1.071429 -45.000000L5.357143 -45.000000C5.535714 -45.000000 5.694754 -44.963728 5.834263 -44.891183C5.973772 -44.818638 6.085379 -44.732143 6.169085 -44.631696C6.252790 -44.531250 6.325335 -44.394531 6.386719 -44.221540C6.448103 -44.048549 6.489955 -43.900670 6.512277 -43.777902C6.534598 -43.655134 6.565290 -43.490513 6.604353 -43.284040C6.643415 -43.077567 6.668527 -42.935268 6.679688 -42.857143L26.785714 -42.857143C27.075893 -42.857143 27.327009 -42.751116 27.539062 -42.539062C27.751116 -42.327009 27.857143 -42.075893 27.857143 -41.785714ZM27.857143 -41.785714"></path></svg>