<svg width="38.571429" height="25.714286" viewBox="0.000000 -49.285714 38.571429 25.714286" xmlns="http://www.w3.org/2000/svg"><path d="M12.472098 -36.261161C12.472098 -35.848214 12.329799 -35.505022 12.045201 -35.231585C11.760603 -34.958147 11.411830 -34.821429 10.998884 -34.821429C10.675223 -34.821429 10.415737 -34.910714 10.220424 -35.089286C10.025112 -35.267857 9.927455 -35.513393 9.927455 -35.825893C9.927455 -36.238839 10.066964 -36.587612 10.345982 -36.872210C10.625000 -37.156808 10.970982 -37.299107 11.383929 -37.299107C11.696429 -37.299107 11.955915 -37.207031 12.162388 -37.022879C12.368862 -36.838728 12.472098 -36.584821 12.472098 -36.261161ZM25.613839 -38.755580C25.613839 -38.286830 25.491071 -37.968750 25.245536 -37.801339C25.000000 -37.633929 24.631696 -37.550223 24.140625 -37.550223L23.604911 -37.533482L23.889509 -39.324777C23.911830 -39.447545 23.984375 -39.508929 24.107143 -39.508929L24.408482 -39.508929C24.654018 -39.508929 24.849330 -39.497768 24.994420 -39.475446C25.139509 -39.453125 25.279018 -39.383371 25.412946 -39.266183C25.546875 -39.148996 25.613839 -38.978795 25.613839 -38.755580ZM31.489955 -36.261161C31.489955 -35.859375 31.347656 -35.518973 31.063058 -35.239955C30.778460 -34.960938 30.435268 -34.821429 30.033482 -34.821429C29.709821 -34.821429 29.447545 -34.910714 29.246652 -35.089286C29.045759 -35.267857 28.945312 -35.513393 28.945312 -35.825893C28.945312 -36.238839 29.084821 -36.587612 29.363839 -36.872210C29.642857 -37.156808 29.988839 -37.299107 30.401786 -37.299107C30.714286 -37.299107 30.973772 -37.207031 31.180246 -37.022879C31.386719 -36.838728 31.489955 -36.584821 31.489955 -36.261161ZM8.588170 -39.123884C8.588170 -39.782366 8.373326 -40.259487 7.943638 -40.555246C7.513951 -40.851004 6.953125 -40.998884 6.261161 -40.998884L3.582589 -40.998884C3.370536 -40.998884 3.253348 -40.892857 3.231027 -40.680804L2.142857 -33.850446C2.131696 -33.783482 2.148438 -33.722098 2.193080 -33.666295C2.237723 -33.610491 2.293527 -33.582589 2.360491 -33.582589L3.632812 -33.582589C3.856027 -33.582589 3.978795 -33.688616 4.001116 -33.900670L4.302455 -35.742188C4.313616 -35.831473 4.352679 -35.904018 4.419643 -35.959821C4.486607 -36.015625 4.570312 -36.051897 4.670759 -36.068638C4.771205 -36.085379 4.866071 -36.093750 4.955357 -36.093750C5.044643 -36.093750 5.150670 -36.088170 5.273438 -36.077009C5.396205 -36.065848 5.474330 -36.060268 5.507812 -36.060268C6.467634 -36.060268 7.220982 -36.330915 7.767857 -36.872210C8.314732 -37.413504 8.588170 -38.164062 8.588170 -39.123884ZM13.761161 -33.900670L14.447545 -38.270089C14.458705 -38.337054 14.441964 -38.398438 14.397321 -38.454241C14.352679 -38.510045 14.296875 -38.537946 14.229911 -38.537946L12.957589 -38.537946C12.801339 -38.537946 12.706473 -38.353795 12.672991 -37.985491C12.371652 -38.431920 11.841518 -38.655134 11.082589 -38.655134C10.279018 -38.655134 9.595424 -38.353795 9.031808 -37.751116C8.468192 -37.148438 8.186384 -36.439732 8.186384 -35.625000C8.186384 -34.966518 8.378906 -34.441964 8.763951 -34.051339C9.148996 -33.660714 9.665179 -33.465402 10.312500 -33.465402C10.625000 -33.465402 10.948661 -33.532366 11.283482 -33.666295C11.618304 -33.800223 11.886161 -33.978795 12.087054 -34.202009C12.042411 -34.068080 12.020089 -33.950893 12.020089 -33.850446C12.020089 -33.671875 12.092634 -33.582589 12.237723 -33.582589L13.392857 -33.582589C13.604911 -33.582589 13.727679 -33.688616 13.761161 -33.900670ZM21.244420 -38.303571C21.244420 -38.359375 21.222098 -38.412388 21.177455 -38.462612C21.132812 -38.512835 21.082589 -38.537946 21.026786 -38.537946L19.737723 -38.537946C19.614955 -38.537946 19.514509 -38.482143 19.436384 -38.370536L17.661830 -35.758929L16.925223 -38.270089C16.869420 -38.448661 16.746652 -38.537946 16.556920 -38.537946L15.301339 -38.537946C15.245536 -38.537946 15.195312 -38.512835 15.150670 -38.462612C15.106027 -38.412388 15.083705 -38.359375 15.083705 -38.303571C15.083705 -38.281250 15.192522 -37.952009 15.410156 -37.315848C15.627790 -36.679688 15.862165 -35.993304 16.113281 -35.256696C16.364397 -34.520089 16.495536 -34.129464 16.506696 -34.084821C15.591518 -32.834821 15.133929 -32.165179 15.133929 -32.075893C15.133929 -31.930804 15.206473 -31.858259 15.351562 -31.858259L16.640625 -31.858259C16.763393 -31.858259 16.863839 -31.914062 16.941964 -32.025670L21.210938 -38.186384C21.233259 -38.208705 21.244420 -38.247768 21.244420 -38.303571ZM27.606027 -39.123884C27.606027 -39.782366 27.391183 -40.259487 26.961496 -40.555246C26.531808 -40.851004 25.970982 -40.998884 25.279018 -40.998884L22.617188 -40.998884C22.393973 -40.998884 22.271205 -40.892857 22.248884 -40.680804L21.160714 -33.850446C21.149554 -33.783482 21.166295 -33.722098 21.210938 -33.666295C21.255580 -33.610491 21.311384 -33.582589 21.378348 -33.582589L22.751116 -33.582589C22.885045 -33.582589 22.974330 -33.655134 23.018973 -33.800223L23.320312 -35.742188C23.331473 -35.831473 23.370536 -35.904018 23.437500 -35.959821C23.504464 -36.015625 23.588170 -36.051897 23.688616 -36.068638C23.789062 -36.085379 23.883929 -36.093750 23.973214 -36.093750C24.062500 -36.093750 24.168527 -36.088170 24.291295 -36.077009C24.414062 -36.065848 24.492188 -36.060268 24.525670 -36.060268C25.485491 -36.060268 26.238839 -36.330915 26.785714 -36.872210C27.332589 -37.413504 27.606027 -38.164062 27.606027 -39.123884ZM32.779018 -33.900670L33.465402 -38.270089C33.476562 -38.337054 33.459821 -38.398438 33.415179 -38.454241C33.370536 -38.510045 33.314732 -38.537946 33.247768 -38.537946L31.975446 -38.537946C31.819196 -38.537946 31.724330 -38.353795 31.690848 -37.985491C31.400670 -38.431920 30.870536 -38.655134 30.100446 -38.655134C29.296875 -38.655134 28.613281 -38.353795 28.049665 -37.751116C27.486049 -37.148438 27.204241 -36.439732 27.204241 -35.625000C27.204241 -34.966518 27.396763 -34.441964 27.781808 -34.051339C28.166853 -33.660714 28.683036 -33.465402 29.330357 -33.465402C29.654018 -33.465402 29.983259 -33.532366 30.318080 -33.666295C30.652902 -33.800223 30.915179 -33.978795 31.104911 -34.202009C31.104911 -34.190848 31.093750 -34.140625 31.071429 -34.051339C31.049107 -33.962054 31.037946 -33.895089 31.037946 -33.850446C31.037946 -33.671875 31.110491 -33.582589 31.255580 -33.582589L32.410714 -33.582589C32.622768 -33.582589 32.745536 -33.688616 32.779018 -33.900670ZM36.428571 -40.747768L36.428571 -40.764509C36.428571 -40.920759 36.356027 -40.998884 36.210938 -40.998884L34.972098 -40.998884C34.849330 -40.998884 34.776786 -40.937500 34.754464 -40.814732L33.666295 -33.850446L33.649554 -33.816964C33.649554 -33.761161 33.671875 -33.708147 33.716518 -33.657924C33.761161 -33.607701 33.816964 -33.582589 33.883929 -33.582589L34.988839 -33.582589C35.200893 -33.582589 35.318080 -33.688616 35.340402 -33.900670ZM6.562500 -38.504464C6.506696 -38.113839 6.361607 -37.857143 6.127232 -37.734375C5.892857 -37.611607 5.558036 -37.550223 5.122768 -37.550223L4.570312 -37.533482L4.854911 -39.324777C4.877232 -39.447545 4.949777 -39.508929 5.072545 -39.508929L5.390625 -39.508929C5.837054 -39.508929 6.160714 -39.444754 6.361607 -39.316406C6.562500 -39.188058 6.629464 -38.917411 6.562500 -38.504464ZM38.571429 -47.142857L38.571429 -25.714286C38.571429 -25.133929 38.359375 -24.631696 37.935268 -24.207589C37.511161 -23.783482 37.008929 -23.571429 36.428571 -23.571429L2.142857 -23.571429C1.562500 -23.571429 1.060268 -23.783482 0.636161 -24.207589C0.212054 -24.631696 0.000000 -25.133929 0.000000 -25.714286L0.000000 -47.142857C0.000000 -47.723214 0.212054 -48.225446 0.636161 -48.649554C1.060268 -49.073661 1.562500 -49.285714 2.142857 -49.285714L36.428571 -49.285714C37.008929 -49.285714 37.511161 -49.073661 37.935268 -48.649554C38.359375 -48.225446 38.571429 -47.723214 38.571429 -47.142857ZM38.571429 -47.142857"></path></svg>