<svg width="38.571429" height="25.714286" viewBox="0.000000 -49.285714 38.571429 25.714286" xmlns="http://www.w3.org/2000/svg"><path d="M33.063616 -34.854911L30.753348 -34.854911C30.909598 -35.267857 31.277902 -36.266741 31.858259 -37.851562L31.908482 -38.002232C31.953125 -38.113839 32.008929 -38.258929 32.075893 -38.437500C32.142857 -38.616071 32.193080 -38.761161 32.226562 -38.872768L32.427455 -37.952009ZM8.889509 -35.943080L7.918527 -40.881696C7.795759 -41.484375 7.377232 -41.785714 6.662946 -41.785714L2.176339 -41.785714L2.142857 -41.568080C5.613839 -40.686384 7.862723 -38.811384 8.889509 -35.943080ZM11.886161 -41.785714L9.174107 -34.453125L8.889509 -35.943080C8.599330 -36.724330 8.125000 -37.446987 7.466518 -38.111049C6.808036 -38.775112 6.077009 -39.268973 5.273438 -39.592634L7.533482 -31.054687L10.463170 -31.054687L14.832589 -41.785714ZM14.213170 -31.037946L16.992188 -31.037946L18.733259 -41.785714L15.954241 -41.785714ZM27.070312 -41.517857C26.300223 -41.819196 25.468750 -41.969866 24.575893 -41.969866C23.203125 -41.969866 22.081473 -41.640625 21.210938 -40.982143C20.340402 -40.323661 19.899554 -39.469866 19.888393 -38.420759C19.877232 -37.282366 20.686384 -36.311384 22.315848 -35.507812C22.851562 -35.251116 23.225446 -35.022321 23.437500 -34.821429C23.649554 -34.620536 23.755580 -34.402902 23.755580 -34.168527C23.755580 -33.833705 23.588170 -33.577009 23.253348 -33.398438C22.918527 -33.219866 22.533482 -33.130580 22.098214 -33.130580C21.138393 -33.130580 20.267857 -33.314732 19.486607 -33.683036L19.118304 -33.867188L18.733259 -31.456473C19.559152 -31.077009 20.591518 -30.887277 21.830357 -30.887277C23.281250 -30.876116 24.444754 -31.205357 25.320871 -31.875000C26.196987 -32.544643 26.646205 -33.437500 26.668527 -34.553571C26.668527 -35.736607 25.887277 -36.707589 24.324777 -37.466518C23.777902 -37.745536 23.381696 -37.979911 23.136161 -38.169643C22.890625 -38.359375 22.767857 -38.571429 22.767857 -38.805804C22.767857 -39.051339 22.904576 -39.266183 23.178013 -39.450335C23.451451 -39.634487 23.844866 -39.726562 24.358259 -39.726562C25.139509 -39.737723 25.831473 -39.603795 26.434152 -39.324777L26.685268 -39.190848ZM34.185268 -41.785714L32.042411 -41.785714C31.316964 -41.785714 30.831473 -41.484375 30.585938 -40.881696L26.467634 -31.037946L29.380580 -31.037946L29.966518 -32.645089L33.515625 -32.645089C33.571429 -32.399554 33.683036 -31.863839 33.850446 -31.037946L36.428571 -31.037946ZM38.571429 -47.142857L38.571429 -25.714286C38.571429 -25.133929 38.359375 -24.631696 37.935268 -24.207589C37.511161 -23.783482 37.008929 -23.571429 36.428571 -23.571429L2.142857 -23.571429C1.562500 -23.571429 1.060268 -23.783482 0.636161 -24.207589C0.212054 -24.631696 0.000000 -25.133929 0.000000 -25.714286L0.000000 -47.142857C0.000000 -47.723214 0.212054 -48.225446 0.636161 -48.649554C1.060268 -49.073661 1.562500 -49.285714 2.142857 -49.285714L36.428571 -49.285714C37.008929 -49.285714 37.511161 -49.073661 37.935268 -48.649554C38.359375 -48.225446 38.571429 -47.723214 38.571429 -47.142857ZM38.571429 -47.142857"></path></svg>