<svg width="25.714286" height="25.714286" viewBox="0.000000 -49.285714 25.714286 25.714286" xmlns="http://www.w3.org/2000/svg"><path d="M21.495536 -39.140625C21.495536 -39.453125 21.395089 -39.709821 21.194196 -39.910714L19.670759 -41.417411C19.458705 -41.629464 19.207589 -41.735491 18.917411 -41.735491C18.627232 -41.735491 18.376116 -41.629464 18.164062 -41.417411L11.333705 -34.603795L7.550223 -38.387277C7.338170 -38.599330 7.087054 -38.705357 6.796875 -38.705357C6.506696 -38.705357 6.255580 -38.599330 6.043527 -38.387277L4.520089 -36.880580C4.319196 -36.679688 4.218750 -36.422991 4.218750 -36.110491C4.218750 -35.809152 4.319196 -35.558036 4.520089 -35.357143L10.580357 -29.296875C10.792411 -29.084821 11.043527 -28.978795 11.333705 -28.978795C11.635045 -28.978795 11.891741 -29.084821 12.103795 -29.296875L21.194196 -38.387277C21.395089 -38.588170 21.495536 -38.839286 21.495536 -39.140625ZM25.714286 -36.428571C25.714286 -34.095982 25.139509 -31.944754 23.989955 -29.974888C22.840402 -28.005022 21.280692 -26.445312 19.310826 -25.295759C17.340960 -24.146205 15.189732 -23.571429 12.857143 -23.571429C10.524554 -23.571429 8.373326 -24.146205 6.403460 -25.295759C4.433594 -26.445312 2.873884 -28.005022 1.724330 -29.974888C0.574777 -31.944754 0.000000 -34.095982 0.000000 -36.428571C0.000000 -38.761161 0.574777 -40.912388 1.724330 -42.882254C2.873884 -44.852121 4.433594 -46.411830 6.403460 -47.561384C8.373326 -48.710938 10.524554 -49.285714 12.857143 -49.285714C15.189732 -49.285714 17.340960 -48.710938 19.310826 -47.561384C21.280692 -46.411830 22.840402 -44.852121 23.989955 -42.882254C25.139509 -40.912388 25.714286 -38.761161 25.714286 -36.428571ZM25.714286 -36.428571"></path></svg>