<svg width="26.986607" height="17.327009" viewBox="1.506696 -35.005580 26.986607 17.327009" xmlns="http://www.w3.org/2000/svg"><path d="M28.175223 -20.758929L25.396205 -17.996652C25.184152 -17.784598 24.933036 -17.678571 24.642857 -17.678571C24.352679 -17.678571 24.101562 -17.784598 23.889509 -17.996652L15.000000 -26.886161L6.110491 -17.996652C5.898438 -17.784598 5.647321 -17.678571 5.357143 -17.678571C5.066964 -17.678571 4.815848 -17.784598 4.603795 -17.996652L1.824777 -20.758929C1.612723 -20.970982 1.506696 -21.224888 1.506696 -21.520647C1.506696 -21.816406 1.612723 -22.070312 1.824777 -22.282366L14.246652 -34.687500C14.458705 -34.899554 14.709821 -35.005580 15.000000 -35.005580C15.290179 -35.005580 15.541295 -34.899554 15.753348 -34.687500L28.175223 -22.282366C28.387277 -22.070312 28.493304 -21.816406 28.493304 -21.520647C28.493304 -21.224888 28.387277 -20.970982 28.175223 -20.758929ZM28.175223 -20.758929"></path></svg>