<svg width="25.714286" height="25.714286" viewBox="0.000000 -49.285714 25.714286 25.714286" xmlns="http://www.w3.org/2000/svg"><path d="M12.003348 -28.074777L19.603795 -35.675223C19.815848 -35.887277 19.921875 -36.138393 19.921875 -36.428571C19.921875 -36.718750 19.815848 -36.969866 19.603795 -37.181920L12.003348 -44.782366C11.791295 -44.994420 11.540179 -45.100446 11.250000 -45.100446C10.959821 -45.100446 10.708705 -44.994420 10.496652 -44.782366L8.789062 -43.074777C8.577009 -42.862723 8.470982 -42.611607 8.470982 -42.321429C8.470982 -42.031250 8.577009 -41.780134 8.789062 -41.568080L13.928571 -36.428571L8.789062 -31.289062C8.577009 -31.077009 8.470982 -30.825893 8.470982 -30.535714C8.470982 -30.245536 8.577009 -29.994420 8.789062 -29.782366L10.496652 -28.074777C10.708705 -27.862723 10.959821 -27.756696 11.250000 -27.756696C11.540179 -27.756696 11.791295 -27.862723 12.003348 -28.074777ZM25.714286 -36.428571C25.714286 -34.095982 25.139509 -31.944754 23.989955 -29.974888C22.840402 -28.005022 21.280692 -26.445312 19.310826 -25.295759C17.340960 -24.146205 15.189732 -23.571429 12.857143 -23.571429C10.524554 -23.571429 8.373326 -24.146205 6.403460 -25.295759C4.433594 -26.445312 2.873884 -28.005022 1.724330 -29.974888C0.574777 -31.944754 0.000000 -34.095982 0.000000 -36.428571C0.000000 -38.761161 0.574777 -40.912388 1.724330 -42.882254C2.873884 -44.852121 4.433594 -46.411830 6.403460 -47.561384C8.373326 -48.710938 10.524554 -49.285714 12.857143 -49.285714C15.189732 -49.285714 17.340960 -48.710938 19.310826 -47.561384C21.280692 -46.411830 22.840402 -44.852121 23.989955 -42.882254C25.139509 -40.912388 25.714286 -38.761161 25.714286 -36.428571ZM25.714286 -36.428571"></path></svg>