<svg width="32.142857" height="23.571429" viewBox="0.000000 -47.142857 32.142857 23.571429" xmlns="http://www.w3.org/2000/svg"><path d="M21.428571 -33.750000C21.428571 -33.906250 21.378348 -34.034598 21.277902 -34.135045C21.177455 -34.235491 21.049107 -34.285714 20.892857 -34.285714L17.142857 -34.285714L17.142857 -40.178571C17.142857 -40.323661 17.089844 -40.449219 16.983817 -40.555246C16.877790 -40.661272 16.752232 -40.714286 16.607143 -40.714286L13.392857 -40.714286C13.247768 -40.714286 13.122210 -40.661272 13.016183 -40.555246C12.910156 -40.449219 12.857143 -40.323661 12.857143 -40.178571L12.857143 -34.285714L9.107143 -34.285714C8.962054 -34.285714 8.836496 -34.232701 8.730469 -34.126674C8.624442 -34.020647 8.571429 -33.895089 8.571429 -33.750000C8.571429 -33.593750 8.621652 -33.465402 8.722098 -33.364955L14.614955 -27.472098C14.715402 -27.371652 14.843750 -27.321429 15.000000 -27.321429C15.156250 -27.321429 15.284598 -27.371652 15.385045 -27.472098L21.261161 -33.348214C21.372768 -33.482143 21.428571 -33.616071 21.428571 -33.750000ZM32.142857 -30.000000C32.142857 -28.225446 31.515067 -26.710379 30.259487 -25.454799C29.003906 -24.199219 27.488839 -23.571429 25.714286 -23.571429L7.500000 -23.571429C5.435268 -23.571429 3.669085 -24.305246 2.201451 -25.772879C0.733817 -27.240513 0.000000 -29.006696 0.000000 -31.071429C0.000000 -32.522321 0.390625 -33.861607 1.171875 -35.089286C1.953125 -36.316964 3.002232 -37.237723 4.319196 -37.851562C4.296875 -38.186384 4.285714 -38.426339 4.285714 -38.571429C4.285714 -40.937500 5.122768 -42.957589 6.796875 -44.631696C8.470982 -46.305804 10.491071 -47.142857 12.857143 -47.142857C14.598214 -47.142857 16.191406 -46.657366 17.636719 -45.686384C19.082031 -44.715402 20.133929 -43.426339 20.792411 -41.819196C21.584821 -42.511161 22.511161 -42.857143 23.571429 -42.857143C24.754464 -42.857143 25.764509 -42.438616 26.601562 -41.601562C27.438616 -40.764509 27.857143 -39.754464 27.857143 -38.571429C27.857143 -37.723214 27.628348 -36.953125 27.170759 -36.261161C28.621652 -35.915179 29.813058 -35.159040 30.744978 -33.992746C31.676897 -32.826451 32.142857 -31.495536 32.142857 -30.000000ZM32.142857 -30.000000"></path></svg>