<svg width="32.142857" height="23.571429" viewBox="0.000000 -47.142857 32.142857 23.571429" xmlns="http://www.w3.org/2000/svg"><path d="M32.142857 -30.000000C32.142857 -28.225446 31.515067 -26.710379 30.259487 -25.454799C29.003906 -24.199219 27.488839 -23.571429 25.714286 -23.571429L7.500000 -23.571429C5.435268 -23.571429 3.669085 -24.305246 2.201451 -25.772879C0.733817 -27.240513 0.000000 -29.006696 0.000000 -31.071429C0.000000 -32.544643 0.396205 -33.892299 1.188616 -35.114397C1.981027 -36.336496 3.024554 -37.248884 4.319196 -37.851562C4.296875 -38.164062 4.285714 -38.404018 4.285714 -38.571429C4.285714 -40.937500 5.122768 -42.957589 6.796875 -44.631696C8.470982 -46.305804 10.491071 -47.142857 12.857143 -47.142857C14.620536 -47.142857 16.219308 -46.651786 17.653460 -45.669643C19.087612 -44.687500 20.133929 -43.404018 20.792411 -41.819196C21.573661 -42.511161 22.500000 -42.857143 23.571429 -42.857143C24.754464 -42.857143 25.764509 -42.438616 26.601562 -41.601562C27.438616 -40.764509 27.857143 -39.754464 27.857143 -38.571429C27.857143 -37.734375 27.628348 -36.964286 27.170759 -36.261161C28.610491 -35.926339 29.799107 -35.175781 30.736607 -34.009487C31.674107 -32.843192 32.142857 -31.506696 32.142857 -30.000000ZM32.142857 -30.000000"></path></svg>