<svg width="27.857143" height="27.857143" viewBox="0.000000 -51.428571 27.857143 27.857143" xmlns="http://www.w3.org/2000/svg"><path d="M9.324777 -32.142857L19.285714 -32.142857L19.285714 -42.103795ZM8.571429 -32.896205L18.532366 -42.857143L8.571429 -42.857143ZM27.857143 -31.607143L27.857143 -28.392857C27.857143 -28.236607 27.806920 -28.108259 27.706473 -28.007812C27.606027 -27.907366 27.477679 -27.857143 27.321429 -27.857143L23.571429 -27.857143L23.571429 -24.107143C23.571429 -23.950893 23.521205 -23.822545 23.420759 -23.722098C23.320312 -23.621652 23.191964 -23.571429 23.035714 -23.571429L19.821429 -23.571429C19.665179 -23.571429 19.536830 -23.621652 19.436384 -23.722098C19.335938 -23.822545 19.285714 -23.950893 19.285714 -24.107143L19.285714 -27.857143L4.821429 -27.857143C4.665179 -27.857143 4.536830 -27.907366 4.436384 -28.007812C4.335938 -28.108259 4.285714 -28.236607 4.285714 -28.392857L4.285714 -42.857143L0.535714 -42.857143C0.379464 -42.857143 0.251116 -42.907366 0.150670 -43.007812C0.050223 -43.108259 0.000000 -43.236607 0.000000 -43.392857L0.000000 -46.607143C0.000000 -46.763393 0.050223 -46.891741 0.150670 -46.992188C0.251116 -47.092634 0.379464 -47.142857 0.535714 -47.142857L4.285714 -47.142857L4.285714 -50.892857C4.285714 -51.049107 4.335938 -51.177455 4.436384 -51.277902C4.536830 -51.378348 4.665179 -51.428571 4.821429 -51.428571L8.035714 -51.428571C8.191964 -51.428571 8.320312 -51.378348 8.420759 -51.277902C8.521205 -51.177455 8.571429 -51.049107 8.571429 -50.892857L8.571429 -47.142857L22.818080 -47.142857L26.936384 -51.277902C27.047991 -51.378348 27.176339 -51.428571 27.321429 -51.428571C27.466518 -51.428571 27.594866 -51.378348 27.706473 -51.277902C27.806920 -51.166295 27.857143 -51.037946 27.857143 -50.892857C27.857143 -50.747768 27.806920 -50.619420 27.706473 -50.507812L23.571429 -46.389509L23.571429 -32.142857L27.321429 -32.142857C27.477679 -32.142857 27.606027 -32.092634 27.706473 -31.992187C27.806920 -31.891741 27.857143 -31.763393 27.857143 -31.607143ZM27.857143 -31.607143"></path></svg>