<svg width="23.571429" height="30.000000" viewBox="0.000000 -55.714286 23.571429 30.000000" xmlns="http://www.w3.org/2000/svg"><path d="M0.000000 -44.330357C0.000000 -45.792411 0.510603 -47.056362 1.531808 -48.122210C2.553013 -49.188058 3.794643 -49.720982 5.256696 -49.720982L17.678571 -49.720982L23.571429 -55.714286L23.571429 -31.104911C23.571429 -29.631696 23.060826 -28.364955 22.039621 -27.304688C21.018415 -26.244420 19.776786 -25.714286 18.314732 -25.714286L5.256696 -25.714286C3.794643 -25.714286 2.553013 -26.244420 1.531808 -27.304688C0.510603 -28.364955 0.000000 -29.631696 0.000000 -31.104911ZM20.625000 -31.707589L17.678571 -34.720982L17.678571 -41.835938C17.678571 -42.349330 17.500000 -42.790179 17.142857 -43.158482C16.785714 -43.526786 16.350446 -43.710938 15.837054 -43.710938L7.734375 -43.710938C7.220982 -43.710938 6.785714 -43.526786 6.428571 -43.158482C6.071429 -42.790179 5.892857 -42.349330 5.892857 -41.835938L5.892857 -33.599330C5.892857 -33.085938 6.074219 -32.642299 6.436942 -32.268415C6.799665 -31.894531 7.232143 -31.707589 7.734375 -31.707589ZM20.625000 -31.707589"></path></svg>