<svg width="25.714286" height="30.000000" viewBox="0.000000 -55.714286 25.714286 30.000000" xmlns="http://www.w3.org/2000/svg"><path d="M12.857143 -42.857143C15.502232 -42.857143 17.974330 -43.097098 20.273438 -43.577009C22.572545 -44.056920 24.386161 -44.765625 25.714286 -45.703125L25.714286 -42.857143C25.714286 -42.087054 25.139509 -41.372768 23.989955 -40.714286C22.840402 -40.055804 21.277902 -39.534040 19.302455 -39.148996C17.327009 -38.763951 15.178571 -38.571429 12.857143 -38.571429C10.535714 -38.571429 8.387277 -38.763951 6.411830 -39.148996C4.436384 -39.534040 2.873884 -40.055804 1.724330 -40.714286C0.574777 -41.372768 0.000000 -42.087054 0.000000 -42.857143L0.000000 -45.703125C1.328125 -44.765625 3.141741 -44.056920 5.440848 -43.577009C7.739955 -43.097098 10.212054 -42.857143 12.857143 -42.857143ZM12.857143 -30.000000C15.502232 -30.000000 17.974330 -30.239955 20.273438 -30.719866C22.572545 -31.199777 24.386161 -31.908482 25.714286 -32.845982L25.714286 -30.000000C25.714286 -29.229911 25.139509 -28.515625 23.989955 -27.857143C22.840402 -27.198661 21.277902 -26.676897 19.302455 -26.291853C17.327009 -25.906808 15.178571 -25.714286 12.857143 -25.714286C10.535714 -25.714286 8.387277 -25.906808 6.411830 -26.291853C4.436384 -26.676897 2.873884 -27.198661 1.724330 -27.857143C0.574777 -28.515625 0.000000 -29.229911 0.000000 -30.000000L0.000000 -32.845982C1.328125 -31.908482 3.141741 -31.199777 5.440848 -30.719866C7.739955 -30.239955 10.212054 -30.000000 12.857143 -30.000000ZM12.857143 -36.428571C15.502232 -36.428571 17.974330 -36.668527 20.273438 -37.148438C22.572545 -37.628348 24.386161 -38.337054 25.714286 -39.274554L25.714286 -36.428571C25.714286 -35.658482 25.139509 -34.944196 23.989955 -34.285714C22.840402 -33.627232 21.277902 -33.105469 19.302455 -32.720424C17.327009 -32.335379 15.178571 -32.142857 12.857143 -32.142857C10.535714 -32.142857 8.387277 -32.335379 6.411830 -32.720424C4.436384 -33.105469 2.873884 -33.627232 1.724330 -34.285714C0.574777 -34.944196 0.000000 -35.658482 0.000000 -36.428571L0.000000 -39.274554C1.328125 -38.337054 3.141741 -37.628348 5.440848 -37.148438C7.739955 -36.668527 10.212054 -36.428571 12.857143 -36.428571ZM12.857143 -55.714286C15.178571 -55.714286 17.327009 -55.521763 19.302455 -55.136719C21.277902 -54.751674 22.840402 -54.229911 23.989955 -53.571429C25.139509 -52.912946 25.714286 -52.198661 25.714286 -51.428571L25.714286 -49.285714C25.714286 -48.515625 25.139509 -47.801339 23.989955 -47.142857C22.840402 -46.484375 21.277902 -45.962612 19.302455 -45.577567C17.327009 -45.192522 15.178571 -45.000000 12.857143 -45.000000C10.535714 -45.000000 8.387277 -45.192522 6.411830 -45.577567C4.436384 -45.962612 2.873884 -46.484375 1.724330 -47.142857C0.574777 -47.801339 0.000000 -48.515625 0.000000 -49.285714L0.000000 -51.428571C0.000000 -52.198661 0.574777 -52.912946 1.724330 -53.571429C2.873884 -54.229911 4.436384 -54.751674 6.411830 -55.136719C8.387277 -55.521763 10.535714 -55.714286 12.857143 -55.714286ZM12.857143 -55.714286"></path></svg>