<svg width="25.714286" height="25.714286" viewBox="0.000000 -49.285714 25.714286 25.714286" xmlns="http://www.w3.org/2000/svg"><path d="M24.642857 -28.392857L24.642857 -36.428571L12.857143 -36.428571L12.857143 -48.214286L4.821429 -48.214286C3.783482 -48.214286 2.898996 -47.848772 2.167969 -47.117746C1.436942 -46.386719 1.071429 -45.502232 1.071429 -44.464286L1.071429 -36.428571L12.857143 -36.428571L12.857143 -24.642857L20.892857 -24.642857C21.930804 -24.642857 22.815290 -25.008371 23.546317 -25.739397C24.277344 -26.470424 24.642857 -27.354911 24.642857 -28.392857ZM25.714286 -44.464286L25.714286 -28.392857C25.714286 -27.064732 25.242746 -25.929129 24.299665 -24.986049C23.356585 -24.042969 22.220982 -23.571429 20.892857 -23.571429L4.821429 -23.571429C3.493304 -23.571429 2.357701 -24.042969 1.414621 -24.986049C0.471540 -25.929129 0.000000 -27.064732 0.000000 -28.392857L0.000000 -44.464286C0.000000 -45.792411 0.471540 -46.928013 1.414621 -47.871094C2.357701 -48.814174 3.493304 -49.285714 4.821429 -49.285714L20.892857 -49.285714C22.220982 -49.285714 23.356585 -48.814174 24.299665 -47.871094C25.242746 -46.928013 25.714286 -45.792411 25.714286 -44.464286ZM25.714286 -44.464286"></path></svg>