<svg width="25.714286" height="25.714286" viewBox="0.000000 -49.285714 25.714286 25.714286" xmlns="http://www.w3.org/2000/svg"><path d="M20.892857 -49.285714C22.220982 -49.285714 23.356585 -48.814174 24.299665 -47.871094C25.242746 -46.928013 25.714286 -45.792411 25.714286 -44.464286L25.714286 -28.392857C25.714286 -27.064732 25.242746 -25.929129 24.299665 -24.986049C23.356585 -24.042969 22.220982 -23.571429 20.892857 -23.571429L4.821429 -23.571429C3.493304 -23.571429 2.357701 -24.042969 1.414621 -24.986049C0.471540 -25.929129 0.000000 -27.064732 0.000000 -28.392857L0.000000 -44.464286C0.000000 -45.792411 0.471540 -46.928013 1.414621 -47.871094C2.357701 -48.814174 3.493304 -49.285714 4.821429 -49.285714ZM21.428571 -31.607143L21.428571 -38.906250C21.082589 -38.515625 20.725446 -38.208705 20.357143 -37.985491C19.977679 -37.739955 19.238281 -37.265625 18.138951 -36.562500C17.039621 -35.859375 16.194196 -35.306920 15.602679 -34.905134C14.508929 -34.135045 13.593750 -33.750000 12.857143 -33.750000L12.857143 -33.750000C12.120536 -33.750000 11.205357 -34.135045 10.111607 -34.905134C9.587054 -35.262277 8.794643 -35.778460 7.734375 -36.453683C6.674107 -37.128906 5.881696 -37.645089 5.357143 -38.002232C5.223214 -38.091518 5.039062 -38.242188 4.804688 -38.454241C4.570312 -38.666295 4.397321 -38.816964 4.285714 -38.906250L4.285714 -31.607143C4.285714 -31.160714 4.441964 -30.781250 4.754464 -30.468750C5.066964 -30.156250 5.446429 -30.000000 5.892857 -30.000000L19.821429 -30.000000C20.267857 -30.000000 20.647321 -30.156250 20.959821 -30.468750C21.272321 -30.781250 21.428571 -31.160714 21.428571 -31.607143ZM21.428571 -41.199777C21.428571 -41.657366 21.275112 -42.047991 20.968192 -42.371652C20.661272 -42.695312 20.279018 -42.857143 19.821429 -42.857143L5.892857 -42.857143C5.446429 -42.857143 5.066964 -42.700893 4.754464 -42.388393C4.441964 -42.075893 4.285714 -41.696429 4.285714 -41.250000C4.285714 -40.837054 4.455915 -40.410156 4.796317 -39.969308C5.136719 -39.528460 5.513393 -39.168527 5.926339 -38.889509C6.450893 -38.532366 7.218192 -38.035714 8.228237 -37.399554C9.238281 -36.763393 9.960938 -36.300223 10.396205 -36.010045C10.429688 -35.987723 10.524554 -35.923549 10.680804 -35.817522C10.837054 -35.711496 10.954241 -35.633371 11.032366 -35.583147C11.110491 -35.532924 11.227679 -35.460379 11.383929 -35.365513C11.540179 -35.270647 11.671317 -35.198103 11.777344 -35.147879C11.883371 -35.097656 12.003348 -35.044643 12.137277 -34.988839C12.271205 -34.933036 12.396763 -34.891183 12.513951 -34.863281C12.631138 -34.835379 12.745536 -34.821429 12.857143 -34.821429C12.968750 -34.821429 13.083147 -34.835379 13.200335 -34.863281C13.317522 -34.891183 13.443080 -34.933036 13.577009 -34.988839C13.710938 -35.044643 13.830915 -35.097656 13.936942 -35.147879C14.042969 -35.198103 14.174107 -35.270647 14.330357 -35.365513C14.486607 -35.460379 14.603795 -35.532924 14.681920 -35.583147C14.760045 -35.633371 14.877232 -35.711496 15.033482 -35.817522C15.189732 -35.923549 15.284598 -35.987723 15.318080 -36.010045L19.787946 -38.922991C20.178571 -39.179688 20.549665 -39.528460 20.901228 -39.969308C21.252790 -40.410156 21.428571 -40.820312 21.428571 -41.199777ZM21.428571 -41.199777"></path></svg>