<svg width="30.000000" height="22.500000" viewBox="0.000000 -43.392857 30.000000 22.500000" xmlns="http://www.w3.org/2000/svg"><path d="M30.000000 -28.392857L30.000000 -25.178571C30.000000 -25.033482 29.946987 -24.907924 29.840960 -24.801897C29.734933 -24.695871 29.609375 -24.642857 29.464286 -24.642857L6.428571 -24.642857L6.428571 -21.428571C6.428571 -21.283482 6.375558 -21.157924 6.269531 -21.051897C6.163504 -20.945871 6.037946 -20.892857 5.892857 -20.892857C5.758929 -20.892857 5.625000 -20.948661 5.491071 -21.060268L0.150670 -26.417411C0.050223 -26.517857 0.000000 -26.640625 0.000000 -26.785714C0.000000 -26.941964 0.050223 -27.070312 0.150670 -27.170759L5.507812 -32.527902C5.608259 -32.628348 5.736607 -32.678571 5.892857 -32.678571C6.037946 -32.678571 6.163504 -32.625558 6.269531 -32.519531C6.375558 -32.413504 6.428571 -32.287946 6.428571 -32.142857L6.428571 -28.928571L29.464286 -28.928571C29.609375 -28.928571 29.734933 -28.875558 29.840960 -28.769531C29.946987 -28.663504 30.000000 -28.537946 30.000000 -28.392857ZM30.000000 -37.500000C30.000000 -37.343750 29.949777 -37.215402 29.849330 -37.114955L24.492188 -31.757812C24.391741 -31.657366 24.263393 -31.607143 24.107143 -31.607143C23.962054 -31.607143 23.836496 -31.660156 23.730469 -31.766183C23.624442 -31.872210 23.571429 -31.997768 23.571429 -32.142857L23.571429 -35.357143L0.535714 -35.357143C0.390625 -35.357143 0.265067 -35.410156 0.159040 -35.516183C0.053013 -35.622210 0.000000 -35.747768 0.000000 -35.892857L0.000000 -39.107143C0.000000 -39.252232 0.053013 -39.377790 0.159040 -39.483817C0.265067 -39.589844 0.390625 -39.642857 0.535714 -39.642857L23.571429 -39.642857L23.571429 -42.857143C23.571429 -43.013393 23.621652 -43.141741 23.722098 -43.242188C23.822545 -43.342634 23.950893 -43.392857 24.107143 -43.392857C24.241071 -43.392857 24.375000 -43.337054 24.508929 -43.225446L29.849330 -37.885045C29.949777 -37.784598 30.000000 -37.656250 30.000000 -37.500000ZM30.000000 -37.500000"></path></svg>