<svg width="7.455357" height="23.571429" viewBox="1.629464 -47.142857 7.455357 23.571429" xmlns="http://www.w3.org/2000/svg"><path d="M8.571429 -28.392857L8.571429 -24.642857C8.571429 -24.352679 8.465402 -24.101562 8.253348 -23.889509C8.041295 -23.677455 7.790179 -23.571429 7.500000 -23.571429L3.214286 -23.571429C2.924107 -23.571429 2.672991 -23.677455 2.460938 -23.889509C2.248884 -24.101562 2.142857 -24.352679 2.142857 -24.642857L2.142857 -28.392857C2.142857 -28.683036 2.248884 -28.934152 2.460938 -29.146205C2.672991 -29.358259 2.924107 -29.464286 3.214286 -29.464286L7.500000 -29.464286C7.790179 -29.464286 8.041295 -29.358259 8.253348 -29.146205C8.465402 -28.934152 8.571429 -28.683036 8.571429 -28.392857ZM9.073661 -46.071429L8.604911 -33.214286C8.593750 -32.924107 8.479353 -32.672991 8.261719 -32.460938C8.044085 -32.248884 7.790179 -32.142857 7.500000 -32.142857L3.214286 -32.142857C2.924107 -32.142857 2.670201 -32.248884 2.452567 -32.460938C2.234933 -32.672991 2.120536 -32.924107 2.109375 -33.214286L1.640625 -46.071429C1.629464 -46.361607 1.727121 -46.612723 1.933594 -46.824777C2.140067 -47.036830 2.388393 -47.142857 2.678571 -47.142857L8.035714 -47.142857C8.325893 -47.142857 8.574219 -47.036830 8.780692 -46.824777C8.987165 -46.612723 9.084821 -46.361607 9.073661 -46.071429ZM9.073661 -46.071429"></path></svg>