<svg width="30.000000" height="25.714286" viewBox="0.000000 -51.428571 30.000000 25.714286" xmlns="http://www.w3.org/2000/svg"><path d="M23.571429 -35.892857L23.571429 -30.535714C23.571429 -29.207589 23.099888 -28.071987 22.156808 -27.128906C21.213728 -26.185826 20.078125 -25.714286 18.750000 -25.714286L4.821429 -25.714286C3.493304 -25.714286 2.357701 -26.185826 1.414621 -27.128906C0.471540 -28.071987 0.000000 -29.207589 0.000000 -30.535714L0.000000 -44.464286C0.000000 -45.792411 0.471540 -46.928013 1.414621 -47.871094C2.357701 -48.814174 3.493304 -49.285714 4.821429 -49.285714L16.607143 -49.285714C16.763393 -49.285714 16.891741 -49.235491 16.992188 -49.135045C17.092634 -49.034598 17.142857 -48.906250 17.142857 -48.750000L17.142857 -47.678571C17.142857 -47.522321 17.092634 -47.393973 16.992188 -47.293527C16.891741 -47.193080 16.763393 -47.142857 16.607143 -47.142857L4.821429 -47.142857C4.084821 -47.142857 3.454241 -46.880580 2.929688 -46.356027C2.405134 -45.831473 2.142857 -45.200893 2.142857 -44.464286L2.142857 -30.535714C2.142857 -29.799107 2.405134 -29.168527 2.929688 -28.643973C3.454241 -28.119420 4.084821 -27.857143 4.821429 -27.857143L18.750000 -27.857143C19.486607 -27.857143 20.117188 -28.119420 20.641741 -28.643973C21.166295 -29.168527 21.428571 -29.799107 21.428571 -30.535714L21.428571 -35.892857C21.428571 -36.049107 21.478795 -36.177455 21.579241 -36.277902C21.679688 -36.378348 21.808036 -36.428571 21.964286 -36.428571L23.035714 -36.428571C23.191964 -36.428571 23.320312 -36.378348 23.420759 -36.277902C23.521205 -36.177455 23.571429 -36.049107 23.571429 -35.892857ZM30.000000 -50.357143L30.000000 -41.785714C30.000000 -41.495536 29.893973 -41.244420 29.681920 -41.032366C29.469866 -40.820312 29.218750 -40.714286 28.928571 -40.714286C28.638393 -40.714286 28.387277 -40.820312 28.175223 -41.032366L25.228795 -43.978795L14.313616 -33.063616C14.202009 -32.952009 14.073661 -32.896205 13.928571 -32.896205C13.783482 -32.896205 13.655134 -32.952009 13.543527 -33.063616L11.635045 -34.972098C11.523438 -35.083705 11.467634 -35.212054 11.467634 -35.357143C11.467634 -35.502232 11.523438 -35.630580 11.635045 -35.742188L22.550223 -46.657366L19.603795 -49.603795C19.391741 -49.815848 19.285714 -50.066964 19.285714 -50.357143C19.285714 -50.647321 19.391741 -50.898438 19.603795 -51.110491C19.815848 -51.322545 20.066964 -51.428571 20.357143 -51.428571L28.928571 -51.428571C29.218750 -51.428571 29.469866 -51.322545 29.681920 -51.110491C29.893973 -50.898438 30.000000 -50.647321 30.000000 -50.357143ZM30.000000 -50.357143"></path></svg>