<svg width="30.000000" height="22.500000" viewBox="0.000000 -43.392857 30.000000 22.500000" xmlns="http://www.w3.org/2000/svg"><path d="M9.291295 -25.864955L10.597098 -28.225446C9.626116 -28.928571 8.867188 -29.815848 8.320312 -30.887277C7.773438 -31.958705 7.500000 -33.091518 7.500000 -34.285714C7.500000 -35.636161 7.840402 -36.891741 8.521205 -38.052455C5.965402 -36.746652 3.839286 -34.776786 2.142857 -32.142857C4.006696 -29.263393 6.389509 -27.170759 9.291295 -25.864955ZM15.803571 -38.571429C15.803571 -38.794643 15.725446 -38.984375 15.569196 -39.140625C15.412946 -39.296875 15.223214 -39.375000 15.000000 -39.375000C13.604911 -39.375000 12.407924 -38.875558 11.409040 -37.876674C10.410156 -36.877790 9.910714 -35.680804 9.910714 -34.285714C9.910714 -34.062500 9.988839 -33.872768 10.145089 -33.716518C10.301339 -33.560268 10.491071 -33.482143 10.714286 -33.482143C10.937500 -33.482143 11.127232 -33.560268 11.283482 -33.716518C11.439732 -33.872768 11.517857 -34.062500 11.517857 -34.285714C11.517857 -35.245536 11.858259 -36.065848 12.539062 -36.746652C13.219866 -37.427455 14.040179 -37.767857 15.000000 -37.767857C15.223214 -37.767857 15.412946 -37.845982 15.569196 -38.002232C15.725446 -38.158482 15.803571 -38.348214 15.803571 -38.571429ZM21.880580 -41.768973C21.880580 -41.690848 21.875000 -41.640625 21.863839 -41.618304C20.680804 -39.508929 18.917411 -36.344866 16.573661 -32.126116C14.229911 -27.907366 12.472098 -24.748884 11.300223 -22.650670L10.479911 -21.160714C10.368304 -20.982143 10.212054 -20.892857 10.011161 -20.892857C9.877232 -20.892857 9.129464 -21.283482 7.767857 -22.064732C7.589286 -22.176339 7.500000 -22.332589 7.500000 -22.533482C7.500000 -22.667411 7.745536 -23.152902 8.236607 -23.989955C6.640625 -24.715402 5.170201 -25.680804 3.825335 -26.886161C2.480469 -28.091518 1.316964 -29.458705 0.334821 -30.987723C0.111607 -31.333705 0.000000 -31.718750 0.000000 -32.142857C0.000000 -32.566964 0.111607 -32.952009 0.334821 -33.297991C2.042411 -35.920759 4.162946 -37.991071 6.696429 -39.508929C9.229911 -41.026786 11.997768 -41.785714 15.000000 -41.785714C15.993304 -41.785714 16.997768 -41.690848 18.013393 -41.501116L18.917411 -43.125000C19.029018 -43.303571 19.185268 -43.392857 19.386161 -43.392857C19.441964 -43.392857 19.542411 -43.359375 19.687500 -43.292411C19.832589 -43.225446 20.005580 -43.138951 20.206473 -43.032924C20.407366 -42.926897 20.591518 -42.823661 20.758929 -42.723214C20.926339 -42.622768 21.102121 -42.519531 21.286272 -42.413504C21.470424 -42.307478 21.579241 -42.243304 21.612723 -42.220982C21.791295 -42.109375 21.880580 -41.958705 21.880580 -41.768973ZM22.500000 -34.285714C22.500000 -32.734375 22.059152 -31.319754 21.177455 -30.041853C20.295759 -28.763951 19.129464 -27.845982 17.678571 -27.287946L22.366071 -35.691964C22.455357 -35.189732 22.500000 -34.720982 22.500000 -34.285714ZM30.000000 -32.142857C30.000000 -31.752232 29.888393 -31.367188 29.665179 -30.987723C29.229911 -30.273438 28.621652 -29.464286 27.840402 -28.560268C26.166295 -26.640625 24.227121 -25.150670 22.022879 -24.090402C19.818638 -23.030134 17.477679 -22.500000 15.000000 -22.500000L16.238839 -24.709821C18.604911 -24.910714 20.795201 -25.675223 22.809710 -27.003348C24.824219 -28.331473 26.506696 -30.044643 27.857143 -32.142857C26.573661 -34.140625 25.000000 -35.781250 23.136161 -37.064732L24.190848 -38.939732C25.251116 -38.225446 26.269531 -37.371652 27.246094 -36.378348C28.222656 -35.385045 29.029018 -34.358259 29.665179 -33.297991C29.888393 -32.918527 30.000000 -32.533482 30.000000 -32.142857ZM30.000000 -32.142857"></path></svg>