<svg width="30.000000" height="30.000000" viewBox="0.000000 -55.714286 30.000000 30.000000" xmlns="http://www.w3.org/2000/svg"><path d="M28.426339 -54.140625C29.475446 -53.091518 30.000000 -51.827567 30.000000 -50.348772C30.000000 -48.869978 29.475446 -47.611607 28.426339 -46.573661L24.659598 -42.840402L26.400670 -41.099330C26.512277 -40.987723 26.568080 -40.859375 26.568080 -40.714286C26.568080 -40.569196 26.512277 -40.440848 26.400670 -40.329241L22.885045 -36.813616C22.773438 -36.702009 22.645089 -36.646205 22.500000 -36.646205C22.354911 -36.646205 22.226562 -36.702009 22.114955 -36.813616L20.357143 -38.571429L10.262277 -28.476562C9.849330 -28.063616 9.347098 -27.857143 8.755580 -27.857143L5.357143 -27.857143L1.071429 -25.714286L0.000000 -26.785714L2.142857 -31.071429L2.142857 -34.469866C2.142857 -35.061384 2.349330 -35.563616 2.762277 -35.976562L12.857143 -46.071429L11.099330 -47.829241C10.987723 -47.940848 10.931920 -48.069196 10.931920 -48.214286C10.931920 -48.359375 10.987723 -48.487723 11.099330 -48.599330L14.614955 -52.114955C14.726562 -52.226562 14.854911 -52.282366 15.000000 -52.282366C15.145089 -52.282366 15.273438 -52.226562 15.385045 -52.114955L17.126116 -50.373884L20.859375 -54.140625C21.897321 -55.189732 23.155692 -55.714286 24.634487 -55.714286C26.113281 -55.714286 27.377232 -55.189732 28.426339 -54.140625ZM8.571429 -31.071429L18.214286 -40.714286L15.000000 -43.928571L5.357143 -34.285714L5.357143 -31.071429ZM8.571429 -31.071429"></path></svg>