<svg width="19.285714" height="19.285714" viewBox="0.000000 -38.571429 19.285714 19.285714" xmlns="http://www.w3.org/2000/svg"><path d="M17.142857 -28.928571C17.142857 -30.993304 16.409040 -32.759487 14.941406 -34.227121C13.473772 -35.694754 11.707589 -36.428571 9.642857 -36.428571C7.578125 -36.428571 5.811942 -35.694754 4.344308 -34.227121C2.876674 -32.759487 2.142857 -30.993304 2.142857 -28.928571C2.142857 -26.863839 2.876674 -25.097656 4.344308 -23.630022C5.811942 -22.162388 7.578125 -21.428571 9.642857 -21.428571C11.707589 -21.428571 13.473772 -22.162388 14.941406 -23.630022C16.409040 -25.097656 17.142857 -26.863839 17.142857 -28.928571ZM19.285714 -28.928571C19.285714 -27.622768 19.031808 -26.375558 18.523996 -25.186942C18.016183 -23.998326 17.329799 -22.971540 16.464844 -22.106585C15.599888 -21.241629 14.573103 -20.555246 13.384487 -20.047433C12.195871 -19.539621 10.948661 -19.285714 9.642857 -19.285714C8.337054 -19.285714 7.089844 -19.539621 5.901228 -20.047433C4.712612 -20.555246 3.685826 -21.241629 2.820871 -22.106585C1.955915 -22.971540 1.269531 -23.998326 0.761719 -25.186942C0.253906 -26.375558 0.000000 -27.622768 0.000000 -28.928571C0.000000 -30.234375 0.253906 -31.481585 0.761719 -32.670201C1.269531 -33.858817 1.955915 -34.885603 2.820871 -35.750558C3.685826 -36.615513 4.712612 -37.301897 5.901228 -37.809710C7.089844 -38.317522 8.337054 -38.571429 9.642857 -38.571429C10.948661 -38.571429 12.195871 -38.317522 13.384487 -37.809710C14.573103 -37.301897 15.599888 -36.615513 16.464844 -35.750558C17.329799 -34.885603 18.016183 -33.858817 18.523996 -32.670201C19.031808 -31.481585 19.285714 -30.234375 19.285714 -28.928571ZM19.285714 -28.928571"></path></svg>