<svg width="35.803571" height="29.938616" viewBox="1.316964 -55.669643 35.803571 29.938616" xmlns="http://www.w3.org/2000/svg"><path d="M8.002232 -27.611607C7.912946 -27.433036 7.762277 -27.240513 7.550223 -27.034040C7.338170 -26.827567 7.131696 -26.685268 6.930804 -26.607143C6.651786 -26.506696 6.364397 -26.526228 6.068638 -26.665737C5.772879 -26.805246 5.613839 -26.981027 5.591518 -27.193080C5.580357 -27.438616 5.803571 -27.745536 6.261161 -28.113839C6.718750 -28.482143 7.098214 -28.694196 7.399554 -28.750000C7.656250 -28.794643 7.845982 -28.674665 7.968750 -28.390067C8.091518 -28.105469 8.102679 -27.845982 8.002232 -27.611607ZM30.452009 -27.611607C30.351562 -27.845982 30.362723 -28.105469 30.485491 -28.390067C30.608259 -28.674665 30.792411 -28.794643 31.037946 -28.750000C31.339286 -28.694196 31.721540 -28.482143 32.184710 -28.113839C32.647879 -27.745536 32.868304 -27.438616 32.845982 -27.193080C32.834821 -26.981027 32.681362 -26.805246 32.385603 -26.665737C32.089844 -26.526228 31.802455 -26.506696 31.523438 -26.607143C31.311384 -26.685268 31.099330 -26.827567 30.887277 -27.034040C30.675223 -27.240513 30.530134 -27.433036 30.452009 -27.611607ZM31.255580 -29.436384C31.065848 -29.815848 31.102121 -30.242746 31.364397 -30.717076C31.626674 -31.191406 31.981027 -31.400670 32.427455 -31.344866C32.963170 -31.289062 33.607701 -30.957031 34.361049 -30.348772C35.114397 -29.740513 35.491071 -29.179687 35.491071 -28.666295C35.491071 -28.297991 35.284598 -28.016183 34.871652 -27.820871C34.458705 -27.625558 34.001116 -27.600446 33.498884 -27.745536C33.119420 -27.845982 32.686942 -28.077567 32.201451 -28.440290C31.715960 -28.803013 31.400670 -29.135045 31.255580 -29.436384ZM7.165179 -29.436384C7.020089 -29.135045 6.707589 -28.803013 6.227679 -28.440290C5.747768 -28.077567 5.318080 -27.845982 4.938616 -27.745536C4.436384 -27.600446 3.978795 -27.625558 3.565848 -27.820871C3.152902 -28.016183 2.946429 -28.297991 2.946429 -28.666295C2.946429 -29.179687 3.323103 -29.740513 4.076451 -30.348772C4.829799 -30.957031 5.474330 -31.289062 6.010045 -31.344866C6.456473 -31.400670 6.808036 -31.191406 7.064732 -30.717076C7.321429 -30.242746 7.354911 -29.815848 7.165179 -29.436384ZM19.386161 -48.253348C20.279018 -48.253348 21.037946 -47.960379 21.662946 -47.374442C22.287946 -46.788504 22.600446 -46.082589 22.600446 -45.256696C22.600446 -44.430804 22.287946 -43.724888 21.662946 -43.138951C21.037946 -42.553013 20.279018 -42.260045 19.386161 -42.260045C18.504464 -42.260045 17.751116 -42.553013 17.126116 -43.138951C16.501116 -43.724888 16.188616 -44.430804 16.188616 -45.256696C16.188616 -45.468750 16.216518 -45.703125 16.272321 -45.959821C16.584821 -45.479911 17.031250 -45.239955 17.611607 -45.239955C18.035714 -45.239955 18.398438 -45.379464 18.699777 -45.658482C19.001116 -45.937500 19.151786 -46.272321 19.151786 -46.662946C19.151786 -46.964286 19.056920 -47.240513 18.867188 -47.491629C18.677455 -47.742746 18.431920 -47.912946 18.130580 -48.002232C18.521205 -48.169643 18.945312 -48.253348 19.402902 -48.253348L19.386161 -48.253348ZM24.475446 -51.902902C23.370536 -53.119420 22.140067 -53.853237 20.784040 -54.104353C19.428013 -54.355469 18.058036 -54.107143 16.674107 -53.359375C16.975446 -54.029018 17.435826 -54.567522 18.055246 -54.974888C18.674665 -55.382254 19.333147 -55.602679 20.030692 -55.636161C20.728237 -55.669643 21.406250 -55.574777 22.064732 -55.351562C22.723214 -55.128348 23.278460 -54.712612 23.730469 -54.104353C24.182478 -53.496094 24.430804 -52.762277 24.475446 -51.902902ZM37.031250 -31.160714C37.120536 -31.037946 37.059152 -30.803571 36.847098 -30.457589C36.925223 -30.200893 36.964286 -29.977679 36.964286 -29.787946C36.975446 -29.162946 36.727121 -28.535156 36.219308 -27.904576C35.711496 -27.273996 35.100446 -26.763393 34.386161 -26.372768C33.671875 -25.982143 33.013393 -25.775670 32.410714 -25.753348C31.875000 -25.731027 31.361607 -25.851004 30.870536 -26.113281C30.379464 -26.375558 30.011161 -26.741071 29.765625 -27.209821C22.098214 -26.930804 15.072545 -26.930804 8.688616 -27.209821C8.431920 -26.752232 8.060826 -26.389509 7.575335 -26.121652C7.089844 -25.853795 6.573661 -25.731027 6.026786 -25.753348C5.066964 -25.786830 4.065290 -26.236049 3.021763 -27.101004C1.978237 -27.965960 1.462054 -28.861607 1.473214 -29.787946C1.495536 -30.033482 1.534598 -30.256696 1.590402 -30.457589C1.378348 -30.803571 1.316964 -31.037946 1.406250 -31.160714C1.473214 -31.272321 1.646205 -31.277902 1.925223 -31.177455C2.081473 -31.422991 2.310268 -31.707589 2.611607 -32.031250C2.533482 -32.354911 2.544643 -32.566964 2.645089 -32.667411C2.767857 -32.779018 2.985491 -32.756696 3.297991 -32.600446C3.621652 -32.823661 3.950893 -33.013393 4.285714 -33.169643C4.285714 -33.493304 4.358259 -33.699777 4.503348 -33.789062C4.760045 -33.922991 5.044643 -33.833705 5.357143 -33.521205C5.747768 -33.577009 6.088170 -33.565848 6.378348 -33.487723C6.579241 -33.443080 6.791295 -33.337054 7.014509 -33.169643L7.014509 -34.391741C6.891741 -34.391741 6.791295 -34.402902 6.713170 -34.425223C6.121652 -34.536830 5.580357 -34.785156 5.089286 -35.170201C4.598214 -35.555246 4.291295 -36.043527 4.168527 -36.635045C4.068080 -37.059152 4.068080 -37.511161 4.168527 -37.991071C4.335938 -38.683036 4.854911 -39.213170 5.725446 -39.581473C5.747768 -39.771205 5.853795 -39.969308 6.043527 -40.175781C6.233259 -40.382254 6.434152 -40.513393 6.646205 -40.569196C6.858259 -40.625000 7.042411 -40.583147 7.198661 -40.443638C7.354911 -40.304129 7.460938 -40.133929 7.516741 -39.933036L7.734375 -39.933036C8.247768 -39.877232 8.582589 -39.748884 8.738839 -39.547991C8.772321 -39.514509 8.800223 -39.475446 8.822545 -39.430804C8.934152 -39.441964 9.104353 -39.461496 9.333147 -39.489397C9.561942 -39.517299 9.732143 -39.536830 9.843750 -39.547991C9.676339 -39.670759 9.508929 -39.765625 9.341518 -39.832589C9.084821 -40.279018 8.577009 -40.518973 7.818080 -40.552455C7.818080 -40.619420 7.823661 -40.675223 7.834821 -40.719866C7.142857 -40.742188 6.481585 -40.845424 5.851004 -41.029576C5.220424 -41.213728 4.748884 -41.478795 4.436384 -41.824777C4.079241 -42.226562 3.842076 -42.739955 3.724888 -43.364955C3.607701 -43.989955 3.593750 -44.614955 3.683036 -45.239955C3.861607 -46.646205 4.363839 -47.645089 5.189732 -48.236607C5.446429 -48.415179 5.736607 -48.440290 6.060268 -48.311942C6.383929 -48.183594 6.562500 -47.957589 6.595982 -47.633929C6.595982 -47.622768 6.604353 -47.544643 6.621094 -47.399554C6.637835 -47.254464 6.651786 -47.137277 6.662946 -47.047991C6.674107 -46.958705 6.690848 -46.847098 6.713170 -46.713170C6.735491 -46.579241 6.766183 -46.473214 6.805246 -46.395089C6.844308 -46.316964 6.891741 -46.261161 6.947545 -46.227679C7.248884 -46.071429 7.672991 -46.004464 8.219866 -46.026786C8.755580 -46.540179 9.302455 -46.953125 9.860491 -47.265625C9.414062 -47.310268 8.510045 -47.232143 7.148438 -47.031250L7.935268 -47.801339C8.616071 -48.448661 9.525670 -49.068080 10.664062 -49.659598C12.282366 -50.474330 13.856027 -50.954241 15.385045 -51.099330C15.161830 -51.188616 14.933036 -51.275112 14.698661 -51.358817C14.464286 -51.442522 14.202009 -51.520647 13.911830 -51.593192C13.621652 -51.665737 13.384487 -51.724330 13.200335 -51.768973C13.016183 -51.813616 12.751116 -51.875000 12.405134 -51.953125C12.059152 -52.031250 11.819196 -52.087054 11.685268 -52.120536C18.325893 -53.526786 23.370536 -52.751116 26.819196 -49.793527C27.912946 -48.856027 28.794643 -47.617188 29.464286 -46.077009C30.412946 -45.965402 31.088170 -46.015625 31.489955 -46.227679L31.506696 -46.227679C31.562500 -46.261161 31.609933 -46.316964 31.648996 -46.395089C31.688058 -46.473214 31.718750 -46.579241 31.741071 -46.713170C31.763393 -46.847098 31.780134 -46.955915 31.791295 -47.039621C31.802455 -47.123326 31.819196 -47.243304 31.841518 -47.399554L31.858259 -47.633929C31.891741 -47.946429 32.070312 -48.169643 32.393973 -48.303571C32.717634 -48.437500 33.007812 -48.409598 33.264509 -48.219866C34.079241 -47.639509 34.587054 -46.646205 34.787946 -45.239955C34.866071 -44.603795 34.846540 -43.973214 34.729353 -43.348214C34.612165 -42.723214 34.375000 -42.215402 34.017857 -41.824777C33.705357 -41.467634 33.239397 -41.196987 32.619978 -41.012835C32.000558 -40.828683 31.356027 -40.725446 30.686384 -40.703125L30.686384 -40.535714C29.893973 -40.513393 29.363839 -40.273438 29.095982 -39.815848C28.939732 -39.760045 28.766741 -39.665179 28.577009 -39.531250C28.699777 -39.520089 28.878348 -39.500558 29.112723 -39.472656C29.347098 -39.444754 29.514509 -39.425223 29.614955 -39.414062C29.626116 -39.469866 29.654018 -39.514509 29.698661 -39.547991C29.877232 -39.748884 30.212054 -39.877232 30.703125 -39.933036L30.920759 -39.933036C30.976562 -40.133929 31.082589 -40.301339 31.238839 -40.435268C31.395089 -40.569196 31.579241 -40.613839 31.791295 -40.569196C32.003348 -40.524554 32.204241 -40.396205 32.393973 -40.184152C32.583705 -39.972098 32.689732 -39.771205 32.712054 -39.581473C33.593750 -39.224330 34.112723 -38.694196 34.268973 -37.991071C34.369420 -37.544643 34.375000 -37.092634 34.285714 -36.635045C34.151786 -36.043527 33.839286 -35.552455 33.348214 -35.161830C32.857143 -34.771205 32.315848 -34.525670 31.724330 -34.425223C31.612723 -34.402902 31.517857 -34.391741 31.439732 -34.391741C31.439732 -33.844866 31.434152 -33.437500 31.422991 -33.169643C31.646205 -33.337054 31.858259 -33.443080 32.059152 -33.487723C32.349330 -33.565848 32.689732 -33.577009 33.080357 -33.521205C33.392857 -33.833705 33.677455 -33.922991 33.934152 -33.789062C34.090402 -33.688616 34.168527 -33.482143 34.168527 -33.169643C34.536830 -32.991071 34.866071 -32.801339 35.156250 -32.600446C35.457589 -32.745536 35.669643 -32.767857 35.792411 -32.667411C35.904018 -32.555804 35.915179 -32.343750 35.825893 -32.031250C36.138393 -31.696429 36.367188 -31.411830 36.512277 -31.177455C36.768973 -31.266741 36.941964 -31.261161 37.031250 -31.160714ZM32.427455 -47.098214C32.427455 -46.774554 32.377232 -46.473214 32.276786 -46.194196C33.191964 -45.837054 33.816964 -45.100446 34.151786 -43.984375C34.196429 -44.397321 34.143415 -44.946987 33.992746 -45.633371C33.842076 -46.319754 33.610491 -46.824777 33.297991 -47.148438C33.074777 -47.360491 32.873884 -47.455357 32.695312 -47.433036C32.516741 -47.410714 32.427455 -47.299107 32.427455 -47.098214ZM31.121652 -45.424107C31.512277 -44.955357 31.777344 -44.349888 31.916853 -43.607701C32.056362 -42.865513 32.053571 -42.170759 31.908482 -41.523438C32.656250 -41.668527 33.197545 -41.919643 33.532366 -42.276786C33.677455 -42.433036 33.777902 -42.589286 33.833705 -42.745536C33.800223 -43.459821 33.627232 -44.098772 33.314732 -44.662388C33.002232 -45.226004 32.561384 -45.597098 31.992188 -45.775670C31.824777 -45.608259 31.534598 -45.491071 31.121652 -45.424107ZM30.502232 -45.357143C30.167411 -45.357143 29.921875 -45.362723 29.765625 -45.373884C30.234375 -44.090402 30.530134 -42.756696 30.652902 -41.372768C30.887277 -41.372768 31.127232 -41.389509 31.372768 -41.422991C31.551339 -42.181920 31.556920 -42.935268 31.389509 -43.683036C31.222098 -44.430804 30.926339 -44.988839 30.502232 -45.357143ZM4.319196 -43.984375C4.654018 -45.100446 5.279018 -45.837054 6.194196 -46.194196C6.093750 -46.473214 6.043527 -46.774554 6.043527 -47.098214C6.043527 -47.299107 5.951451 -47.410714 5.767299 -47.433036C5.583147 -47.455357 5.385045 -47.360491 5.172991 -47.148438C4.860491 -46.824777 4.628906 -46.319754 4.478237 -45.633371C4.327567 -44.946987 4.274554 -44.397321 4.319196 -43.984375ZM4.921875 -42.276786C5.245536 -41.930804 5.786830 -41.679688 6.545759 -41.523438C6.400670 -42.170759 6.397879 -42.865513 6.537388 -43.607701C6.676897 -44.349888 6.941964 -44.955357 7.332589 -45.424107C6.919643 -45.491071 6.629464 -45.608259 6.462054 -45.775670C5.892857 -45.597098 5.454799 -45.228795 5.147879 -44.670759C4.840960 -44.112723 4.665179 -43.470982 4.620536 -42.745536C4.720982 -42.555804 4.821429 -42.399554 4.921875 -42.276786ZM7.885045 -41.372768C8.041295 -42.756696 8.448661 -44.068080 9.107143 -45.306920C8.895089 -45.262277 8.588170 -45.161830 8.186384 -45.005580L7.433036 -44.687500L7.433036 -44.704241C6.919643 -43.710938 6.808036 -42.617188 7.098214 -41.422991C7.377232 -41.389509 7.639509 -41.372768 7.885045 -41.372768ZM24.006696 -40.719866C24.095982 -40.295759 24.188058 -39.690290 24.282924 -38.903460C24.377790 -38.116629 24.441964 -37.617188 24.475446 -37.405134C24.508929 -37.204241 24.561942 -37.084263 24.634487 -37.045201C24.707031 -37.006138 24.838170 -37.031250 25.027902 -37.120536C25.474330 -37.343750 25.820312 -37.820871 26.065848 -38.551897C26.311384 -39.282924 26.439732 -39.983259 26.450893 -40.652902C26.183036 -40.675223 25.368304 -40.697545 24.006696 -40.719866ZM19.285714 -51.450893C17.991071 -51.450893 16.880580 -50.990513 15.954241 -50.069754C15.027902 -49.148996 14.564732 -48.041295 14.564732 -46.746652C14.564732 -45.440848 15.027902 -44.327567 15.954241 -43.406808C16.880580 -42.486049 17.991071 -42.025670 19.285714 -42.025670C20.580357 -42.025670 21.690848 -42.486049 22.617188 -43.406808C23.543527 -44.327567 24.006696 -45.440848 24.006696 -46.746652C24.006696 -48.041295 23.543527 -49.148996 22.617188 -50.069754C21.690848 -50.990513 20.580357 -51.450893 19.285714 -51.450893ZM23.102679 -40.753348C21.930804 -40.775670 20.753348 -40.775670 19.570312 -40.753348L19.570312 -40.770089C19.559152 -40.468750 19.573103 -39.988839 19.612165 -39.330357C19.651228 -38.671875 19.726562 -38.303571 19.838170 -38.225446C20.161830 -38.069196 20.683594 -37.988281 21.403460 -37.982701C22.123326 -37.977121 22.656250 -38.035714 23.002232 -38.158482C23.102679 -38.191964 23.164062 -38.409598 23.186384 -38.811384C23.208705 -39.213170 23.205915 -39.601004 23.178013 -39.974888C23.150112 -40.348772 23.125000 -40.608259 23.102679 -40.753348ZM18.616071 -37.421875C18.705357 -37.466518 18.758371 -37.734375 18.775112 -38.225446C18.791853 -38.716518 18.789062 -39.207589 18.766741 -39.698661C18.744420 -40.189732 18.722098 -40.541295 18.699777 -40.753348L18.699777 -40.770089C16.333705 -40.736607 15.139509 -40.719866 15.117188 -40.719866C15.072545 -40.496652 15.033482 -40.150670 15.000000 -39.681920C14.966518 -39.213170 14.966518 -38.750000 15.000000 -38.292411C15.033482 -37.834821 15.111607 -37.578125 15.234375 -37.522321C15.613839 -37.354911 16.177455 -37.265625 16.925223 -37.254464C17.672991 -37.243304 18.236607 -37.299107 18.616071 -37.421875ZM12.020089 -40.585938C11.841518 -39.927455 11.866629 -39.266183 12.095424 -38.602121C12.324219 -37.938058 12.756696 -37.466518 13.392857 -37.187500C13.560268 -37.098214 13.694196 -37.070312 13.794643 -37.103795C13.895089 -37.137277 13.962054 -37.254464 13.995536 -37.455357C14.029018 -37.633929 14.073661 -38.136161 14.129464 -38.962054C14.185268 -39.787946 14.241071 -40.362723 14.296875 -40.686384C13.526786 -40.664062 12.767857 -40.630580 12.020089 -40.585938ZM9.893973 -38.476562C9.927455 -38.219866 9.737723 -38.018973 9.324777 -37.873884C10.797991 -36.300223 12.313058 -34.960938 13.869978 -33.856027C15.426897 -32.751116 17.131696 -31.891741 18.984375 -31.277902C20.904018 -31.824777 22.636719 -32.639509 24.182478 -33.722098C25.728237 -34.804688 27.366071 -36.199777 29.095982 -37.907366C28.727679 -38.052455 28.560268 -38.242188 28.593750 -38.476562C28.593750 -38.498884 28.596540 -38.518415 28.602121 -38.535156C28.607701 -38.551897 28.616071 -38.568638 28.627232 -38.585379C28.638393 -38.602121 28.643973 -38.616071 28.643973 -38.627232L28.643973 -38.643973L28.643973 -38.627232C28.454241 -38.649554 28.175223 -38.680246 27.806920 -38.719308C27.438616 -38.758371 27.170759 -38.783482 27.003348 -38.794643C26.713170 -37.790179 26.255580 -37.053571 25.630580 -36.584821C25.061384 -36.160714 24.603795 -36.166295 24.257812 -36.601562C24.202009 -36.668527 24.151786 -36.746652 24.107143 -36.835938C24.029018 -36.981027 23.934152 -37.327009 23.822545 -37.873884C23.800223 -37.818080 23.772321 -37.767857 23.738839 -37.723214C23.705357 -37.678571 23.663504 -37.639509 23.613281 -37.606027C23.563058 -37.572545 23.518415 -37.541853 23.479353 -37.513951C23.440290 -37.486049 23.387277 -37.463728 23.320312 -37.446987C23.253348 -37.430246 23.197545 -37.416295 23.152902 -37.405134C23.108259 -37.393973 23.041295 -37.382812 22.952009 -37.371652C22.862723 -37.360491 22.795759 -37.352121 22.751116 -37.346540C22.706473 -37.340960 22.631138 -37.335379 22.525112 -37.329799C22.419085 -37.324219 22.343750 -37.321429 22.299107 -37.321429C21.116071 -37.220982 20.206473 -37.282366 19.570312 -37.505580C19.525670 -37.315848 19.469866 -37.167969 19.402902 -37.061942C19.335938 -36.955915 19.218750 -36.872210 19.051339 -36.810826C18.883929 -36.749442 18.755580 -36.710379 18.666295 -36.693638C18.577009 -36.676897 18.376116 -36.657366 18.063616 -36.635045C17.996652 -36.623884 17.946429 -36.618304 17.912946 -36.618304C15.915179 -36.428571 14.782366 -36.651786 14.514509 -37.287946C14.492188 -36.584821 14.179688 -36.283482 13.577009 -36.383929C13.052455 -36.473214 12.544643 -36.774554 12.053571 -37.287946C11.919643 -37.433036 11.808036 -37.578125 11.718750 -37.723214C11.529018 -38.046875 11.383929 -38.409598 11.283482 -38.811384C10.636161 -38.744420 10.150670 -38.688616 9.827009 -38.643973C9.838170 -38.621652 9.860491 -38.565848 9.893973 -38.476562ZM8.487723 -27.963170C8.521205 -28.119420 8.537946 -28.286830 8.537946 -28.465402C8.348214 -29.257812 8.063616 -29.983259 7.684152 -30.641741C7.304688 -31.300223 6.897321 -31.690848 6.462054 -31.813616C6.004464 -31.947545 5.438058 -31.866629 4.762835 -31.570871C4.087612 -31.275112 3.504464 -30.828683 3.013393 -30.231585C2.522321 -29.634487 2.304688 -29.034598 2.360491 -28.431920C2.751116 -27.840402 3.309152 -27.321429 4.034598 -26.875000C4.760045 -26.428571 5.424107 -26.194196 6.026786 -26.171875C6.595982 -26.149554 7.120536 -26.305804 7.600446 -26.640625C8.080357 -26.975446 8.376116 -27.416295 8.487723 -27.963170ZM8.537946 -30.825893C8.794643 -30.122768 8.945312 -29.458705 8.989955 -28.833705C11.166295 -30.094866 13.353795 -31.065848 15.552455 -31.746652C14.458705 -32.327009 13.451451 -32.996652 12.530692 -33.755580C11.609933 -34.514509 10.608259 -35.435268 9.525670 -36.517857C9.458705 -36.473214 9.296875 -36.400670 9.040179 -36.300223C9.040179 -36.289062 9.034598 -36.266741 9.023438 -36.233259C9.012277 -36.199777 9.006696 -36.171875 9.006696 -36.149554C9.352679 -35.948661 9.475446 -35.742188 9.375000 -35.530134C9.241071 -35.273438 8.928571 -35.083705 8.437500 -34.960938C8.325893 -34.815848 8.164062 -34.681920 7.952009 -34.559152L7.935268 -34.559152C7.912946 -33.632812 7.918527 -32.795759 7.952009 -32.047991C8.164062 -31.668527 8.359375 -31.261161 8.537946 -30.825893ZM9.693080 -28.046875C15.630580 -27.812500 22.020089 -27.812500 28.861607 -28.046875C26.026786 -29.687500 23.638393 -30.781250 21.696429 -31.328125C20.848214 -30.937500 19.977679 -30.619420 19.084821 -30.373884C18.995536 -30.340402 18.906250 -30.340402 18.816964 -30.373884C18.091518 -30.608259 17.371652 -30.881696 16.657366 -31.194196C14.335938 -30.524554 12.014509 -29.475446 9.693080 -28.046875L9.676339 -28.046875L9.676339 -28.030134C9.687500 -28.030134 9.693080 -28.035714 9.693080 -28.046875ZM29.514509 -28.816964C29.559152 -29.419643 29.715402 -30.089286 29.983259 -30.825893C30.139509 -31.250000 30.323661 -31.646205 30.535714 -32.014509L30.518973 -31.997768C30.552455 -32.857143 30.569196 -33.710938 30.569196 -34.559152C30.401786 -34.648438 30.234375 -34.787946 30.066964 -34.977679C29.598214 -35.078125 29.285714 -35.262277 29.129464 -35.530134C29.029018 -35.753348 29.151786 -35.965402 29.497768 -36.166295C29.475446 -36.210938 29.464286 -36.261161 29.464286 -36.316964C29.285714 -36.361607 29.129464 -36.428571 28.995536 -36.517857C26.718750 -34.397321 24.581473 -32.812500 22.583705 -31.763393C24.793527 -31.104911 27.103795 -30.122768 29.514509 -28.816964ZM36.077009 -28.431920C36.132812 -29.034598 35.915179 -29.634487 35.424107 -30.231585C34.933036 -30.828683 34.352679 -31.275112 33.683036 -31.570871C33.013393 -31.866629 32.444196 -31.947545 31.975446 -31.813616C31.551339 -31.690848 31.146763 -31.297433 30.761719 -30.633371C30.376674 -29.969308 30.089286 -29.246652 29.899554 -28.465402C29.899554 -28.286830 29.916295 -28.119420 29.949777 -27.963170C30.061384 -27.416295 30.357143 -26.975446 30.837054 -26.640625C31.316964 -26.305804 31.841518 -26.149554 32.410714 -26.171875C33.013393 -26.194196 33.677455 -26.428571 34.402902 -26.875000C35.128348 -27.321429 35.686384 -27.840402 36.077009 -28.431920ZM36.077009 -28.431920"></path></svg>