<svg width="30.000000" height="30.000000" viewBox="0.000000 -55.714286 30.000000 30.000000" xmlns="http://www.w3.org/2000/svg"><path d="M15.000000 -54.642857C13.113839 -54.642857 11.311384 -54.274554 9.592634 -53.537946C7.873884 -52.801339 6.392299 -51.810826 5.147879 -50.566406C3.903460 -49.321987 2.912946 -47.840402 2.176339 -46.121652C1.439732 -44.402902 1.071429 -42.600446 1.071429 -40.714286C1.071429 -38.828125 1.439732 -37.025670 2.176339 -35.306920C2.912946 -33.588170 3.903460 -32.106585 5.147879 -30.862165C6.392299 -29.617746 7.873884 -28.627232 9.592634 -27.890625C11.311384 -27.154018 13.113839 -26.785714 15.000000 -26.785714C16.886161 -26.785714 18.688616 -27.154018 20.407366 -27.890625C22.126116 -28.627232 23.607701 -29.617746 24.852121 -30.862165C26.096540 -32.106585 27.087054 -33.588170 27.823661 -35.306920C28.560268 -37.025670 28.928571 -38.828125 28.928571 -40.714286C28.928571 -42.600446 28.560268 -44.402902 27.823661 -46.121652C27.087054 -47.840402 26.096540 -49.321987 24.852121 -50.566406C23.607701 -51.810826 22.126116 -52.801339 20.407366 -53.537946C18.688616 -54.274554 16.886161 -54.642857 15.000000 -54.642857ZM15.000000 -55.714286C17.031250 -55.714286 18.973214 -55.318080 20.825893 -54.525670C22.678571 -53.733259 24.274554 -52.667411 25.613839 -51.328125C26.953125 -49.988839 28.018973 -48.392857 28.811384 -46.540179C29.603795 -44.687500 30.000000 -42.745536 30.000000 -40.714286C30.000000 -38.683036 29.603795 -36.741071 28.811384 -34.888393C28.018973 -33.035714 26.953125 -31.439732 25.613839 -30.100446C24.274554 -28.761161 22.678571 -27.695312 20.825893 -26.902902C18.973214 -26.110491 17.031250 -25.714286 15.000000 -25.714286C12.968750 -25.714286 11.026786 -26.110491 9.174107 -26.902902C7.321429 -27.695312 5.725446 -28.761161 4.386161 -30.100446C3.046875 -31.439732 1.981027 -33.035714 1.188616 -34.888393C0.396205 -36.741071 0.000000 -38.683036 0.000000 -40.714286C0.000000 -42.745536 0.396205 -44.687500 1.188616 -46.540179C1.981027 -48.392857 3.046875 -49.988839 4.386161 -51.328125C5.725446 -52.667411 7.321429 -53.733259 9.174107 -54.525670C11.026786 -55.318080 12.968750 -55.714286 15.000000 -55.714286ZM8.303571 -41.785714C8.482143 -41.785714 8.571429 -41.696429 8.571429 -41.517857L8.571429 -33.482143C8.571429 -33.303571 8.482143 -33.214286 8.303571 -33.214286L7.767857 -33.214286C7.589286 -33.214286 7.500000 -33.303571 7.500000 -33.482143L7.500000 -41.517857C7.500000 -41.696429 7.589286 -41.785714 7.767857 -41.785714ZM15.000000 -40.714286C15.591518 -40.714286 16.096540 -40.505022 16.515067 -40.086496C16.933594 -39.667969 17.142857 -39.162946 17.142857 -38.571429C17.142857 -38.180804 17.045201 -37.823661 16.849888 -37.500000C16.654576 -37.176339 16.395089 -36.919643 16.071429 -36.729911L16.071429 -34.821429C16.071429 -34.665179 16.021205 -34.536830 15.920759 -34.436384C15.820312 -34.335938 15.691964 -34.285714 15.535714 -34.285714L14.464286 -34.285714C14.308036 -34.285714 14.179688 -34.335938 14.079241 -34.436384C13.978795 -34.536830 13.928571 -34.665179 13.928571 -34.821429L13.928571 -36.729911C13.604911 -36.919643 13.345424 -37.176339 13.150112 -37.500000C12.954799 -37.823661 12.857143 -38.180804 12.857143 -38.571429C12.857143 -39.162946 13.066406 -39.667969 13.484933 -40.086496C13.903460 -40.505022 14.408482 -40.714286 15.000000 -40.714286ZM15.000000 -53.571429C17.332589 -53.571429 19.483817 -52.996652 21.453683 -51.847098C23.423549 -50.697545 24.983259 -49.137835 26.132812 -47.167969C27.282366 -45.198103 27.857143 -43.046875 27.857143 -40.714286C27.857143 -38.381696 27.282366 -36.230469 26.132812 -34.260603C24.983259 -32.290737 23.423549 -30.731027 21.453683 -29.581473C19.483817 -28.431920 17.332589 -27.857143 15.000000 -27.857143C12.667411 -27.857143 10.516183 -28.431920 8.546317 -29.581473C6.576451 -30.731027 5.016741 -32.290737 3.867188 -34.260603C2.717634 -36.230469 2.142857 -38.381696 2.142857 -40.714286C2.142857 -43.046875 2.717634 -45.198103 3.867188 -47.167969C5.016741 -49.137835 6.576451 -50.697545 8.546317 -51.847098C10.516183 -52.996652 12.667411 -53.571429 15.000000 -53.571429ZM9.107143 -45.535714L9.107143 -43.928571C9.107143 -43.772321 9.157366 -43.643973 9.257812 -43.543527C9.358259 -43.443080 9.486607 -43.392857 9.642857 -43.392857L10.714286 -43.392857C10.870536 -43.392857 10.998884 -43.443080 11.099330 -43.543527C11.199777 -43.643973 11.250000 -43.772321 11.250000 -43.928571L11.250000 -45.535714C11.250000 -46.573661 11.615513 -47.458147 12.346540 -48.189174C13.077567 -48.920201 13.962054 -49.285714 15.000000 -49.285714C16.037946 -49.285714 16.922433 -48.920201 17.653460 -48.189174C18.384487 -47.458147 18.750000 -46.573661 18.750000 -45.535714L18.750000 -43.928571C18.750000 -43.772321 18.800223 -43.643973 18.900670 -43.543527C19.001116 -43.443080 19.129464 -43.392857 19.285714 -43.392857L20.357143 -43.392857C20.513393 -43.392857 20.641741 -43.443080 20.742188 -43.543527C20.842634 -43.643973 20.892857 -43.772321 20.892857 -43.928571L20.892857 -45.535714C20.892857 -47.165179 20.318080 -48.554688 19.168527 -49.704241C18.018973 -50.853795 16.629464 -51.428571 15.000000 -51.428571C13.370536 -51.428571 11.981027 -50.853795 10.831473 -49.704241C9.681920 -48.554688 9.107143 -47.165179 9.107143 -45.535714ZM23.571429 -33.214286L23.571429 -41.785714C23.571429 -42.075893 23.465402 -42.327009 23.253348 -42.539062C23.041295 -42.751116 22.790179 -42.857143 22.500000 -42.857143L7.500000 -42.857143C7.209821 -42.857143 6.958705 -42.751116 6.746652 -42.539062C6.534598 -42.327009 6.428571 -42.075893 6.428571 -41.785714L6.428571 -33.214286C6.428571 -32.924107 6.534598 -32.672991 6.746652 -32.460938C6.958705 -32.248884 7.209821 -32.142857 7.500000 -32.142857L22.500000 -32.142857C22.790179 -32.142857 23.041295 -32.248884 23.253348 -32.460938C23.465402 -32.672991 23.571429 -32.924107 23.571429 -33.214286ZM23.571429 -33.214286"></path></svg>