<svg width="15.000000" height="30.000000" viewBox="0.000000 -55.714286 15.000000 30.000000" xmlns="http://www.w3.org/2000/svg"><path d="M13.928571 -53.571429C10.357143 -53.571429 8.571429 -52.321429 8.571429 -49.821429L8.571429 -42.857143L10.714286 -42.857143L10.714286 -40.714286L8.571429 -40.714286L8.571429 -31.607143C8.571429 -29.107143 10.357143 -27.857143 13.928571 -27.857143L15.000000 -27.857143L15.000000 -25.714286L13.928571 -25.714286C10.892857 -25.714286 8.750000 -26.529018 7.500000 -28.158482C6.250000 -26.529018 4.107143 -25.714286 1.071429 -25.714286L0.000000 -25.714286L0.000000 -27.857143L1.071429 -27.857143C4.642857 -27.857143 6.428571 -29.107143 6.428571 -31.607143L6.428571 -40.714286L4.285714 -40.714286L4.285714 -42.857143L6.428571 -42.857143L6.428571 -49.821429C6.428571 -52.321429 4.642857 -53.571429 1.071429 -53.571429L0.000000 -53.571429L0.000000 -55.714286L1.071429 -55.714286C4.107143 -55.714286 6.250000 -54.899554 7.500000 -53.270089C8.750000 -54.899554 10.892857 -55.714286 13.928571 -55.714286L15.000000 -55.714286L15.000000 -53.571429ZM13.928571 -53.571429"></path></svg>