<svg width="38.571429" height="30.000000" viewBox="0.000000 -55.714286 38.571429 30.000000" xmlns="http://www.w3.org/2000/svg"><path d="M38.571429 -42.857143L36.428571 -42.857143L36.428571 -32.142857L38.571429 -32.142857L38.571429 -25.714286L32.142857 -25.714286L32.142857 -27.857143L17.142857 -27.857143L17.142857 -25.714286L10.714286 -25.714286L10.714286 -32.142857L12.857143 -32.142857L12.857143 -34.285714L6.428571 -34.285714L6.428571 -32.142857L0.000000 -32.142857L0.000000 -38.571429L2.142857 -38.571429L2.142857 -49.285714L0.000000 -49.285714L0.000000 -55.714286L6.428571 -55.714286L6.428571 -53.571429L21.428571 -53.571429L21.428571 -55.714286L27.857143 -55.714286L27.857143 -49.285714L25.714286 -49.285714L25.714286 -47.142857L32.142857 -47.142857L32.142857 -49.285714L38.571429 -49.285714ZM34.285714 -47.142857L34.285714 -45.000000L36.428571 -45.000000L36.428571 -47.142857ZM23.571429 -53.571429L23.571429 -51.428571L25.714286 -51.428571L25.714286 -53.571429ZM2.142857 -53.571429L2.142857 -51.428571L4.285714 -51.428571L4.285714 -53.571429ZM4.285714 -34.285714L4.285714 -36.428571L2.142857 -36.428571L2.142857 -34.285714ZM25.714286 -36.428571L23.571429 -36.428571L23.571429 -34.285714L25.714286 -34.285714ZM6.428571 -36.428571L21.428571 -36.428571L21.428571 -38.571429L23.571429 -38.571429L23.571429 -49.285714L21.428571 -49.285714L21.428571 -51.428571L6.428571 -51.428571L6.428571 -49.285714L4.285714 -49.285714L4.285714 -38.571429L6.428571 -38.571429ZM15.000000 -27.857143L15.000000 -30.000000L12.857143 -30.000000L12.857143 -27.857143ZM36.428571 -27.857143L36.428571 -30.000000L34.285714 -30.000000L34.285714 -27.857143ZM34.285714 -32.142857L34.285714 -42.857143L32.142857 -42.857143L32.142857 -45.000000L25.714286 -45.000000L25.714286 -38.571429L27.857143 -38.571429L27.857143 -32.142857L21.428571 -32.142857L21.428571 -34.285714L15.000000 -34.285714L15.000000 -32.142857L17.142857 -32.142857L17.142857 -30.000000L32.142857 -30.000000L32.142857 -32.142857ZM34.285714 -32.142857"></path></svg>