<svg width="36.428571" height="30.000000" viewBox="0.000000 -55.714286 36.428571 30.000000" xmlns="http://www.w3.org/2000/svg"><path d="M28.928571 -48.214286L22.500000 -36.428571L35.357143 -36.428571ZM7.500000 -48.214286L1.071429 -36.428571L13.928571 -36.428571ZM21.244420 -51.428571C21.088170 -50.982143 20.834263 -50.583147 20.482701 -50.231585C20.131138 -49.880022 19.732143 -49.626116 19.285714 -49.469866L19.285714 -27.857143L29.464286 -27.857143C29.620536 -27.857143 29.748884 -27.806920 29.849330 -27.706473C29.949777 -27.606027 30.000000 -27.477679 30.000000 -27.321429L30.000000 -26.250000C30.000000 -26.093750 29.949777 -25.965402 29.849330 -25.864955C29.748884 -25.764509 29.620536 -25.714286 29.464286 -25.714286L6.964286 -25.714286C6.808036 -25.714286 6.679688 -25.764509 6.579241 -25.864955C6.478795 -25.965402 6.428571 -26.093750 6.428571 -26.250000L6.428571 -27.321429C6.428571 -27.477679 6.478795 -27.606027 6.579241 -27.706473C6.679688 -27.806920 6.808036 -27.857143 6.964286 -27.857143L17.142857 -27.857143L17.142857 -49.469866C16.696429 -49.626116 16.297433 -49.880022 15.945871 -50.231585C15.594308 -50.583147 15.340402 -50.982143 15.184152 -51.428571L6.964286 -51.428571C6.808036 -51.428571 6.679688 -51.478795 6.579241 -51.579241C6.478795 -51.679688 6.428571 -51.808036 6.428571 -51.964286L6.428571 -53.035714C6.428571 -53.191964 6.478795 -53.320312 6.579241 -53.420759C6.679688 -53.521205 6.808036 -53.571429 6.964286 -53.571429L15.184152 -53.571429C15.418527 -54.207589 15.809152 -54.723772 16.356027 -55.119978C16.902902 -55.516183 17.522321 -55.714286 18.214286 -55.714286C18.906250 -55.714286 19.525670 -55.516183 20.072545 -55.119978C20.619420 -54.723772 21.010045 -54.207589 21.244420 -53.571429L29.464286 -53.571429C29.620536 -53.571429 29.748884 -53.521205 29.849330 -53.420759C29.949777 -53.320312 30.000000 -53.191964 30.000000 -53.035714L30.000000 -51.964286C30.000000 -51.808036 29.949777 -51.679688 29.849330 -51.579241C29.748884 -51.478795 29.620536 -51.428571 29.464286 -51.428571ZM18.214286 -51.160714C18.582589 -51.160714 18.897879 -51.291853 19.160156 -51.554129C19.422433 -51.816406 19.553571 -52.131696 19.553571 -52.500000C19.553571 -52.868304 19.422433 -53.183594 19.160156 -53.445871C18.897879 -53.708147 18.582589 -53.839286 18.214286 -53.839286C17.845982 -53.839286 17.530692 -53.708147 17.268415 -53.445871C17.006138 -53.183594 16.875000 -52.868304 16.875000 -52.500000C16.875000 -52.131696 17.006138 -51.816406 17.268415 -51.554129C17.530692 -51.291853 17.845982 -51.160714 18.214286 -51.160714ZM36.428571 -36.428571C36.428571 -35.613839 36.169085 -34.882812 35.650112 -34.235491C35.131138 -33.588170 34.475446 -33.080357 33.683036 -32.712054C32.890625 -32.343750 32.084263 -32.067522 31.263951 -31.883371C30.443638 -31.699219 29.665179 -31.607143 28.928571 -31.607143C28.191964 -31.607143 27.413504 -31.699219 26.593192 -31.883371C25.772879 -32.067522 24.966518 -32.343750 24.174107 -32.712054C23.381696 -33.080357 22.726004 -33.588170 22.207031 -34.235491C21.688058 -34.882812 21.428571 -35.613839 21.428571 -36.428571C21.428571 -36.551339 21.623884 -37.003348 22.014509 -37.784598C22.405134 -38.565848 22.918527 -39.539621 23.554688 -40.705915C24.190848 -41.872210 24.787946 -42.963170 25.345982 -43.978795C25.904018 -44.994420 26.473214 -46.021205 27.053571 -47.059152C27.633929 -48.097098 27.946429 -48.655134 27.991071 -48.733259C28.191964 -49.101562 28.504464 -49.285714 28.928571 -49.285714C29.352679 -49.285714 29.665179 -49.101562 29.866071 -48.733259C29.910714 -48.655134 30.223214 -48.097098 30.803571 -47.059152C31.383929 -46.021205 31.953125 -44.994420 32.511161 -43.978795C33.069196 -42.963170 33.666295 -41.872210 34.302455 -40.705915C34.938616 -39.539621 35.452009 -38.565848 35.842634 -37.784598C36.233259 -37.003348 36.428571 -36.551339 36.428571 -36.428571ZM15.000000 -36.428571C15.000000 -35.613839 14.740513 -34.882812 14.221540 -34.235491C13.702567 -33.588170 13.046875 -33.080357 12.254464 -32.712054C11.462054 -32.343750 10.655692 -32.067522 9.835379 -31.883371C9.015067 -31.699219 8.236607 -31.607143 7.500000 -31.607143C6.763393 -31.607143 5.984933 -31.699219 5.164621 -31.883371C4.344308 -32.067522 3.537946 -32.343750 2.745536 -32.712054C1.953125 -33.080357 1.297433 -33.588170 0.778460 -34.235491C0.259487 -34.882812 0.000000 -35.613839 0.000000 -36.428571C0.000000 -36.551339 0.195312 -37.003348 0.585938 -37.784598C0.976562 -38.565848 1.489955 -39.539621 2.126116 -40.705915C2.762277 -41.872210 3.359375 -42.963170 3.917411 -43.978795C4.475446 -44.994420 5.044643 -46.021205 5.625000 -47.059152C6.205357 -48.097098 6.517857 -48.655134 6.562500 -48.733259C6.763393 -49.101562 7.075893 -49.285714 7.500000 -49.285714C7.924107 -49.285714 8.236607 -49.101562 8.437500 -48.733259C8.482143 -48.655134 8.794643 -48.097098 9.375000 -47.059152C9.955357 -46.021205 10.524554 -44.994420 11.082589 -43.978795C11.640625 -42.963170 12.237723 -41.872210 12.873884 -40.705915C13.510045 -39.539621 14.023438 -38.565848 14.414062 -37.784598C14.804688 -37.003348 15.000000 -36.551339 15.000000 -36.428571ZM15.000000 -36.428571"></path></svg>