<svg width="25.714286" height="30.000000" viewBox="0.000000 -55.714286 25.714286 30.000000" xmlns="http://www.w3.org/2000/svg"><path d="M23.571429 -53.571429C23.571429 -50.658482 22.977121 -48.083147 21.788504 -45.845424C20.599888 -43.607701 19.112723 -41.897321 17.327009 -40.714286C19.112723 -39.531250 20.599888 -37.820871 21.788504 -35.583147C22.977121 -33.345424 23.571429 -30.770089 23.571429 -27.857143L25.178571 -27.857143C25.334821 -27.857143 25.463170 -27.806920 25.563616 -27.706473C25.664062 -27.606027 25.714286 -27.477679 25.714286 -27.321429L25.714286 -26.250000C25.714286 -26.093750 25.664062 -25.965402 25.563616 -25.864955C25.463170 -25.764509 25.334821 -25.714286 25.178571 -25.714286L0.535714 -25.714286C0.379464 -25.714286 0.251116 -25.764509 0.150670 -25.864955C0.050223 -25.965402 0.000000 -26.093750 0.000000 -26.250000L0.000000 -27.321429C0.000000 -27.477679 0.050223 -27.606027 0.150670 -27.706473C0.251116 -27.806920 0.379464 -27.857143 0.535714 -27.857143L2.142857 -27.857143C2.142857 -30.770089 2.737165 -33.345424 3.925781 -35.583147C5.114397 -37.820871 6.601562 -39.531250 8.387277 -40.714286C6.601562 -41.897321 5.114397 -43.607701 3.925781 -45.845424C2.737165 -48.083147 2.142857 -50.658482 2.142857 -53.571429L0.535714 -53.571429C0.379464 -53.571429 0.251116 -53.621652 0.150670 -53.722098C0.050223 -53.822545 0.000000 -53.950893 0.000000 -54.107143L0.000000 -55.178571C0.000000 -55.334821 0.050223 -55.463170 0.150670 -55.563616C0.251116 -55.664062 0.379464 -55.714286 0.535714 -55.714286L25.178571 -55.714286C25.334821 -55.714286 25.463170 -55.664062 25.563616 -55.563616C25.664062 -55.463170 25.714286 -55.334821 25.714286 -55.178571L25.714286 -54.107143C25.714286 -53.950893 25.664062 -53.822545 25.563616 -53.722098C25.463170 -53.621652 25.334821 -53.571429 25.178571 -53.571429ZM14.631696 -41.718750C15.491071 -42.042411 16.322545 -42.558594 17.126116 -43.267299C17.929688 -43.976004 18.652344 -44.827009 19.294085 -45.820312C19.935826 -46.813616 20.452009 -47.985491 20.842634 -49.335938C21.233259 -50.686384 21.428571 -52.098214 21.428571 -53.571429L4.285714 -53.571429C4.285714 -52.098214 4.481027 -50.686384 4.871652 -49.335938C5.262277 -47.985491 5.778460 -46.813616 6.420201 -45.820312C7.061942 -44.827009 7.784598 -43.976004 8.588170 -43.267299C9.391741 -42.558594 10.223214 -42.042411 11.082589 -41.718750C11.294643 -41.640625 11.464844 -41.509487 11.593192 -41.325335C11.721540 -41.141183 11.785714 -40.937500 11.785714 -40.714286C11.785714 -40.491071 11.721540 -40.287388 11.593192 -40.103237C11.464844 -39.919085 11.294643 -39.787946 11.082589 -39.709821C9.553571 -39.140625 8.191964 -38.046875 6.997768 -36.428571L18.716518 -36.428571C17.522321 -38.046875 16.160714 -39.140625 14.631696 -39.709821C14.419643 -39.787946 14.249442 -39.919085 14.121094 -40.103237C13.992746 -40.287388 13.928571 -40.491071 13.928571 -40.714286C13.928571 -40.937500 13.992746 -41.141183 14.121094 -41.325335C14.249442 -41.509487 14.419643 -41.640625 14.631696 -41.718750ZM14.631696 -41.718750"></path></svg>