<svg width="25.714286" height="23.571429" viewBox="0.000000 -45.000000 25.714286 23.571429" xmlns="http://www.w3.org/2000/svg"><path d="M12.857143 -42.857143C12.265625 -42.857143 11.760603 -42.647879 11.342076 -42.229353C10.923549 -41.810826 10.714286 -41.305804 10.714286 -40.714286L10.714286 -38.571429L10.178571 -38.571429L10.178571 -40.128348C10.178571 -40.664062 10.000000 -41.118862 9.642857 -41.492746C9.285714 -41.866629 8.839286 -42.053571 8.303571 -42.053571C7.790179 -42.053571 7.349330 -41.869420 6.981027 -41.501116C6.612723 -41.132812 6.428571 -40.691964 6.428571 -40.178571L6.428571 -32.996652L5.892857 -33.498884L5.892857 -36.378348C5.892857 -36.914062 5.714286 -37.368862 5.357143 -37.742746C5.000000 -38.116629 4.553571 -38.303571 4.017857 -38.303571C3.504464 -38.303571 3.063616 -38.119420 2.695312 -37.751116C2.327009 -37.382812 2.142857 -36.941964 2.142857 -36.428571L2.142857 -32.678571C2.142857 -32.154018 2.338170 -31.696429 2.728795 -31.305804L7.918527 -26.350446C8.353795 -25.915179 8.571429 -25.345982 8.571429 -24.642857C8.571429 -24.352679 8.677455 -24.101562 8.889509 -23.889509C9.101562 -23.677455 9.352679 -23.571429 9.642857 -23.571429L20.357143 -23.571429C20.647321 -23.571429 20.898438 -23.677455 21.110491 -23.889509C21.322545 -24.101562 21.428571 -24.352679 21.428571 -24.642857L21.428571 -25.061384C21.428571 -25.518973 21.484375 -25.948661 21.595982 -26.350446L23.404018 -33.649554C23.515625 -34.051339 23.571429 -34.481027 23.571429 -34.938616L23.571429 -39.056920C23.571429 -39.592634 23.392857 -40.047433 23.035714 -40.421317C22.678571 -40.795201 22.232143 -40.982143 21.696429 -40.982143C21.183036 -40.982143 20.742188 -40.797991 20.373884 -40.429688C20.005580 -40.061384 19.821429 -39.620536 19.821429 -39.107143L19.821429 -38.571429L19.285714 -38.571429L19.285714 -40.664062C19.285714 -41.110491 19.146205 -41.515067 18.867188 -41.877790C18.588170 -42.240513 18.231027 -42.466518 17.795759 -42.555804C17.639509 -42.578125 17.511161 -42.589286 17.410714 -42.589286C16.897321 -42.589286 16.456473 -42.405134 16.088170 -42.036830C15.719866 -41.668527 15.535714 -41.227679 15.535714 -40.714286L15.535714 -38.571429L15.000000 -38.571429L15.000000 -40.613839C15.000000 -41.183036 14.818638 -41.682478 14.455915 -42.112165C14.093192 -42.541853 13.632812 -42.784598 13.074777 -42.840402C13.018973 -42.851562 12.946429 -42.857143 12.857143 -42.857143ZM12.857143 -45.000000C13.794643 -45.000000 14.626116 -44.720982 15.351562 -44.162946C15.987723 -44.542411 16.674107 -44.732143 17.410714 -44.732143C18.069196 -44.732143 18.688616 -44.581473 19.268973 -44.280134C19.849330 -43.978795 20.329241 -43.554688 20.708705 -43.007812C21.010045 -43.085938 21.339286 -43.125000 21.696429 -43.125000C22.812500 -43.125000 23.761161 -42.726004 24.542411 -41.928013C25.323661 -41.130022 25.714286 -40.172991 25.714286 -39.056920L25.714286 -34.938616C25.714286 -34.369420 25.641741 -33.766741 25.496652 -33.130580L23.671875 -25.831473C23.604911 -25.563616 23.571429 -25.167411 23.571429 -24.642857C23.571429 -23.750000 23.258929 -22.991071 22.633929 -22.366071C22.008929 -21.741071 21.250000 -21.428571 20.357143 -21.428571L9.642857 -21.428571C8.705357 -21.428571 7.935268 -21.755022 7.332589 -22.407924C6.729911 -23.060826 6.428571 -23.856027 6.428571 -24.793527L1.272321 -29.748884C0.424107 -30.563616 0.000000 -31.540179 0.000000 -32.678571L0.000000 -36.428571C0.000000 -37.533482 0.393415 -38.479353 1.180246 -39.266183C1.967076 -40.053013 2.912946 -40.446429 4.017857 -40.446429C4.140625 -40.446429 4.229911 -40.440848 4.285714 -40.429688C4.352679 -41.489955 4.773996 -42.382812 5.549665 -43.108259C6.325335 -43.833705 7.243304 -44.196429 8.303571 -44.196429C8.883929 -44.196429 9.430804 -44.079241 9.944196 -43.844866C10.747768 -44.614955 11.718750 -45.000000 12.857143 -45.000000ZM12.857143 -45.000000"></path></svg>