<svg width="30.000000" height="30.000000" viewBox="0.000000 -55.714286 30.000000 30.000000" xmlns="http://www.w3.org/2000/svg"><path d="M12.003348 -33.046875L16.540179 -37.583705L11.869420 -42.254464L10.396205 -40.781250L13.610491 -37.583705L12.003348 -35.976562L7.332589 -40.647321L12.003348 -45.318080L12.672991 -44.648438L14.129464 -46.104911L12.003348 -48.247768L4.402902 -40.647321ZM17.996652 -33.180804L25.597098 -40.781250L17.996652 -48.381696L13.459821 -43.844866L18.130580 -39.174107L19.603795 -40.647321L16.389509 -43.844866L17.996652 -45.452009L22.667411 -40.781250L17.996652 -36.110491L17.327009 -36.780134L15.870536 -35.306920ZM30.000000 -40.714286C30.000000 -38.683036 29.603795 -36.741071 28.811384 -34.888393C28.018973 -33.035714 26.953125 -31.439732 25.613839 -30.100446C24.274554 -28.761161 22.678571 -27.695312 20.825893 -26.902902C18.973214 -26.110491 17.031250 -25.714286 15.000000 -25.714286C12.968750 -25.714286 11.026786 -26.110491 9.174107 -26.902902C7.321429 -27.695312 5.725446 -28.761161 4.386161 -30.100446C3.046875 -31.439732 1.981027 -33.035714 1.188616 -34.888393C0.396205 -36.741071 0.000000 -38.683036 0.000000 -40.714286C0.000000 -42.745536 0.396205 -44.687500 1.188616 -46.540179C1.981027 -48.392857 3.046875 -49.988839 4.386161 -51.328125C5.725446 -52.667411 7.321429 -53.733259 9.174107 -54.525670C11.026786 -55.318080 12.968750 -55.714286 15.000000 -55.714286C17.031250 -55.714286 18.973214 -55.318080 20.825893 -54.525670C22.678571 -53.733259 24.274554 -52.667411 25.613839 -51.328125C26.953125 -49.988839 28.018973 -48.392857 28.811384 -46.540179C29.603795 -44.687500 30.000000 -42.745536 30.000000 -40.714286ZM30.000000 -40.714286"></path></svg>