<svg width="25.714286" height="25.714286" viewBox="0.000000 -49.285714 25.714286 25.714286" xmlns="http://www.w3.org/2000/svg"><path d="M15.518973 -41.718750C15.518973 -40.982143 15.259487 -40.354353 14.740513 -39.835379C14.221540 -39.316406 13.593750 -39.056920 12.857143 -39.056920C12.120536 -39.056920 11.492746 -39.316406 10.973772 -39.835379C10.454799 -40.354353 10.195312 -40.982143 10.195312 -41.718750C10.195312 -42.455357 10.454799 -43.083147 10.973772 -43.602121C11.492746 -44.121094 12.120536 -44.380580 12.857143 -44.380580C13.593750 -44.380580 14.221540 -44.121094 14.740513 -43.602121C15.259487 -43.083147 15.518973 -42.455357 15.518973 -41.718750ZM19.101562 -35.641741C18.989955 -35.864955 18.833705 -36.043527 18.632812 -36.177455C18.431920 -36.311384 18.166853 -36.364397 17.837612 -36.336496C17.508371 -36.308594 17.170759 -36.155134 16.824777 -35.876116C16.713170 -35.786830 16.551339 -35.675223 16.339286 -35.541295C16.127232 -35.407366 15.675223 -35.228795 14.983259 -35.005580C14.291295 -34.782366 13.582589 -34.670759 12.857143 -34.670759C12.131696 -34.670759 11.439732 -34.771205 10.781250 -34.972098C10.122768 -35.172991 9.642857 -35.373884 9.341518 -35.574777L8.889509 -35.876116C8.543527 -36.155134 8.205915 -36.308594 7.876674 -36.336496C7.547433 -36.364397 7.282366 -36.311384 7.081473 -36.177455C6.880580 -36.043527 6.724330 -35.864955 6.612723 -35.641741C6.367188 -35.139509 6.356027 -34.723772 6.579241 -34.394531C6.802455 -34.065290 7.287946 -33.655134 8.035714 -33.164062C8.962054 -32.572545 10.223214 -32.198661 11.819196 -32.042411L10.965402 -31.171875C9.380580 -29.587054 8.314732 -28.526786 7.767857 -27.991071C7.522321 -27.745536 7.399554 -27.452567 7.399554 -27.112165C7.399554 -26.771763 7.522321 -26.478795 7.767857 -26.233259L7.918527 -26.082589C8.164062 -25.837054 8.457031 -25.714286 8.797433 -25.714286C9.137835 -25.714286 9.430804 -25.837054 9.676339 -26.082589L12.873884 -29.280134C14.146205 -27.996652 15.212054 -26.930804 16.071429 -26.082589C16.316964 -25.837054 16.609933 -25.714286 16.950335 -25.714286C17.290737 -25.714286 17.583705 -25.837054 17.829241 -26.082589L17.979911 -26.233259C18.225446 -26.478795 18.348214 -26.771763 18.348214 -27.112165C18.348214 -27.452567 18.225446 -27.745536 17.979911 -27.991071L14.782366 -31.171875L13.911830 -32.042411C15.485491 -32.198661 16.741071 -32.572545 17.678571 -33.164062C18.426339 -33.655134 18.911830 -34.065290 19.135045 -34.394531C19.358259 -34.723772 19.347098 -35.139509 19.101562 -35.641741ZM18.281250 -41.718750C18.281250 -43.214286 17.751116 -44.492188 16.690848 -45.552455C15.630580 -46.612723 14.352679 -47.142857 12.857143 -47.142857C11.361607 -47.142857 10.083705 -46.612723 9.023438 -45.552455C7.963170 -44.492188 7.433036 -43.214286 7.433036 -41.718750C7.433036 -40.223214 7.963170 -38.945312 9.023438 -37.885045C10.083705 -36.824777 11.361607 -36.294643 12.857143 -36.294643C14.352679 -36.294643 15.630580 -36.824777 16.690848 -37.885045C17.751116 -38.945312 18.281250 -40.223214 18.281250 -41.718750ZM25.714286 -44.464286L25.714286 -28.392857C25.714286 -27.064732 25.242746 -25.929129 24.299665 -24.986049C23.356585 -24.042969 22.220982 -23.571429 20.892857 -23.571429L4.821429 -23.571429C3.493304 -23.571429 2.357701 -24.042969 1.414621 -24.986049C0.471540 -25.929129 0.000000 -27.064732 0.000000 -28.392857L0.000000 -44.464286C0.000000 -45.792411 0.471540 -46.928013 1.414621 -47.871094C2.357701 -48.814174 3.493304 -49.285714 4.821429 -49.285714L20.892857 -49.285714C22.220982 -49.285714 23.356585 -48.814174 24.299665 -47.871094C25.242746 -46.928013 25.714286 -45.792411 25.714286 -44.464286ZM25.714286 -44.464286"></path></svg>