<svg width="28.794643" height="25.714286" viewBox="0.000000 -49.285714 28.794643 25.714286" xmlns="http://www.w3.org/2000/svg"><path d="M26.199777 -49.285714C26.925223 -49.285714 27.539062 -49.031808 28.041295 -48.523996C28.543527 -48.016183 28.794643 -47.399554 28.794643 -46.674107L28.794643 -37.985491C28.794643 -36.021205 28.415179 -34.146205 27.656250 -32.360491C26.897321 -30.574777 25.878906 -29.040179 24.601004 -27.756696C23.323103 -26.473214 21.794085 -25.454799 20.013951 -24.701451C18.233817 -23.948103 16.367188 -23.571429 14.414062 -23.571429C12.449777 -23.571429 10.577567 -23.948103 8.797433 -24.701451C7.017299 -25.454799 5.485491 -26.473214 4.202009 -27.756696C2.918527 -29.040179 1.897321 -30.574777 1.138393 -32.360491C0.379464 -34.146205 0.000000 -36.021205 0.000000 -37.985491L0.000000 -46.674107C0.000000 -47.388393 0.256696 -48.002232 0.770089 -48.515625C1.283482 -49.029018 1.897321 -49.285714 2.611607 -49.285714ZM14.414062 -31.473214C14.938616 -31.473214 15.396205 -31.657366 15.786830 -32.025670L22.550223 -38.521205C22.963170 -38.911830 23.169643 -39.386161 23.169643 -39.944196C23.169643 -40.491071 22.977121 -40.957031 22.592076 -41.342076C22.207031 -41.727121 21.741071 -41.919643 21.194196 -41.919643C20.669643 -41.919643 20.212054 -41.735491 19.821429 -41.367188L14.414062 -36.177455L9.006696 -41.367188C8.616071 -41.735491 8.164062 -41.919643 7.650670 -41.919643C7.103795 -41.919643 6.637835 -41.727121 6.252790 -41.342076C5.867746 -40.957031 5.675223 -40.491071 5.675223 -39.944196C5.675223 -39.375000 5.876116 -38.900670 6.277902 -38.521205L13.058036 -32.025670C13.426339 -31.657366 13.878348 -31.473214 14.414062 -31.473214ZM14.414062 -31.473214"></path></svg>