<svg width="30.000000" height="29.464286" viewBox="0.000000 -54.910714 30.000000 29.464286" xmlns="http://www.w3.org/2000/svg"><path d="M30.000000 -39.492188C30.000000 -38.867188 29.960938 -38.286830 29.882812 -37.751116L10.613839 -37.751116C10.613839 -36.121652 11.224888 -34.757254 12.446987 -33.657924C13.669085 -32.558594 15.106027 -32.008929 16.757812 -32.008929C17.862723 -32.008929 18.897879 -32.268415 19.863281 -32.787388C20.828683 -33.306362 21.590402 -34.034598 22.148438 -34.972098L29.229911 -34.972098C28.604911 -33.197545 27.653460 -31.629464 26.375558 -30.267857C25.097656 -28.906250 23.604911 -27.854353 21.897321 -27.112165C20.189732 -26.369978 18.398438 -25.998884 16.523438 -25.998884C14.436384 -25.998884 12.449777 -26.462054 10.563616 -27.388393C8.018973 -26.093750 5.820312 -25.446429 3.967634 -25.446429C1.322545 -25.446429 0.000000 -26.914062 0.000000 -29.849330C0.000000 -31.132812 0.251116 -32.667411 0.753348 -34.453125C0.943080 -35.122768 1.551339 -36.400670 2.578125 -38.286830C4.799107 -42.304688 7.449777 -45.686384 10.530134 -48.431920C8.476562 -47.550223 6.093750 -45.574777 3.381696 -42.505580C4.084821 -45.563616 5.666853 -48.071987 8.127790 -50.030692C10.588728 -51.989397 13.387277 -52.968750 16.523438 -52.968750C16.858259 -52.968750 17.109375 -52.963170 17.276786 -52.952009C20.122768 -54.257812 22.539062 -54.910714 24.525670 -54.910714C25.239955 -54.910714 25.887277 -54.838170 26.467634 -54.693080C27.047991 -54.547991 27.575335 -54.321987 28.049665 -54.015067C28.523996 -53.708147 28.895089 -53.281250 29.162946 -52.734375C29.430804 -52.187500 29.564732 -51.545759 29.564732 -50.809152C29.564732 -49.514509 29.146205 -47.918527 28.309152 -46.021205C29.436384 -43.989955 30.000000 -41.813616 30.000000 -39.492188ZM28.828125 -50.206473C28.828125 -51.132812 28.532366 -51.869420 27.940848 -52.416295C27.349330 -52.963170 26.584821 -53.236607 25.647321 -53.236607C24.441964 -53.236607 23.024554 -52.845982 21.395089 -52.064732C22.745536 -51.540179 23.987165 -50.806362 25.119978 -49.863281C26.252790 -48.920201 27.204241 -47.829241 27.974330 -46.590402C28.543527 -48.097098 28.828125 -49.302455 28.828125 -50.206473ZM2.142857 -29.497768C2.142857 -28.537946 2.413504 -27.798549 2.954799 -27.279576C3.496094 -26.760603 4.246652 -26.501116 5.206473 -26.501116C6.489955 -26.501116 7.974330 -26.964286 9.659598 -27.890625C8.297991 -28.694196 7.106585 -29.715402 6.085379 -30.954241C5.064174 -32.193080 4.296875 -33.560268 3.783482 -35.055804C2.689732 -32.767857 2.142857 -30.915179 2.142857 -29.497768ZM10.580357 -41.434152L22.767857 -41.434152C22.712054 -43.018973 22.081473 -44.341518 20.876116 -45.401786C19.670759 -46.462054 18.270089 -46.992188 16.674107 -46.992188C15.066964 -46.992188 13.663504 -46.462054 12.463728 -45.401786C11.263951 -44.341518 10.636161 -43.018973 10.580357 -41.434152ZM10.580357 -41.434152"></path></svg>