<svg width="29.104353" height="30.000000" viewBox="0.463170 -55.714286 29.104353 30.000000" xmlns="http://www.w3.org/2000/svg"><path d="M25.965402 -31.004464C26.132812 -31.071429 26.277902 -31.088170 26.400670 -31.054688C26.523438 -31.021205 26.584821 -30.923549 26.584821 -30.761719C26.584821 -30.599888 26.501116 -30.412946 26.333705 -30.200893C26.188616 -30.022321 25.943080 -29.779576 25.597098 -29.472656C25.251116 -29.165737 24.718192 -28.786272 23.998326 -28.334263C23.278460 -27.882254 22.491629 -27.469308 21.637835 -27.095424C20.784040 -26.721540 19.734933 -26.397879 18.490513 -26.124442C17.246094 -25.851004 15.965402 -25.714286 14.648438 -25.714286C13.320312 -25.714286 11.992188 -25.887277 10.664062 -26.233259C9.335938 -26.579241 8.169643 -27.006138 7.165179 -27.513951C6.160714 -28.021763 5.198103 -28.602121 4.277344 -29.255022C3.356585 -29.907924 2.617188 -30.493862 2.059152 -31.012835C1.501116 -31.531808 1.032366 -32.020089 0.652902 -32.477679C0.563616 -32.578125 0.507812 -32.670201 0.485491 -32.753906C0.463170 -32.837612 0.468750 -32.904576 0.502232 -32.954799C0.535714 -33.005022 0.580357 -33.044085 0.636161 -33.071987C0.691964 -33.099888 0.756138 -33.111049 0.828683 -33.105469C0.901228 -33.099888 0.965402 -33.074777 1.021205 -33.030134C3.164062 -31.724330 4.838170 -30.797991 6.043527 -30.251116C10.385045 -28.286830 14.843750 -27.784598 19.419643 -28.744420C21.540179 -29.190848 23.722098 -29.944196 25.965402 -31.004464ZM29.430804 -32.929688C29.553571 -32.751116 29.567522 -32.363281 29.472656 -31.766183C29.377790 -31.169085 29.218750 -30.597098 28.995536 -30.050223C28.616071 -29.123884 28.141741 -28.431920 27.572545 -27.974330C27.382812 -27.818080 27.237723 -27.767857 27.137277 -27.823661C27.036830 -27.879464 27.036830 -28.013393 27.137277 -28.225446C27.371652 -28.727679 27.619978 -29.405692 27.882254 -30.259487C28.144531 -31.113281 28.180804 -31.662946 27.991071 -31.908482C27.935268 -31.986607 27.848772 -32.050781 27.731585 -32.101004C27.614397 -32.151228 27.463728 -32.184710 27.279576 -32.201451C27.095424 -32.218192 26.930804 -32.232143 26.785714 -32.243304C26.640625 -32.254464 26.445312 -32.254464 26.199777 -32.243304C25.954241 -32.232143 25.778460 -32.220982 25.672433 -32.209821C25.566406 -32.198661 25.393415 -32.181920 25.153460 -32.159598C24.913504 -32.137277 24.787946 -32.126116 24.776786 -32.126116C24.709821 -32.114955 24.637277 -32.106585 24.559152 -32.101004C24.481027 -32.095424 24.419643 -32.089844 24.375000 -32.084263C24.330357 -32.078683 24.282924 -32.073103 24.232701 -32.067522C24.182478 -32.061942 24.143415 -32.059152 24.115513 -32.059152C24.087612 -32.059152 24.056920 -32.059152 24.023438 -32.059152C23.989955 -32.059152 23.964844 -32.059152 23.948103 -32.059152C23.931362 -32.059152 23.914621 -32.061942 23.897879 -32.067522C23.881138 -32.073103 23.869978 -32.081473 23.864397 -32.092634C23.858817 -32.103795 23.850446 -32.120536 23.839286 -32.142857C23.772321 -32.321429 24.034598 -32.544643 24.626116 -32.812500C25.217634 -33.080357 25.792411 -33.247768 26.350446 -33.314732C26.863839 -33.392857 27.466518 -33.398438 28.158482 -33.331473C28.850446 -33.264509 29.274554 -33.130580 29.430804 -32.929688ZM22.834821 -40.345982C22.834821 -40.000000 22.910156 -39.642857 23.060826 -39.274554C23.211496 -38.906250 23.390067 -38.582589 23.596540 -38.303571C23.803013 -38.024554 24.012277 -37.767857 24.224330 -37.533482C24.436384 -37.299107 24.620536 -37.120536 24.776786 -36.997768L24.994420 -36.813616L21.194196 -33.063616C20.747768 -33.476562 20.306920 -33.897879 19.871652 -34.327567C19.436384 -34.757254 19.112723 -35.083705 18.900670 -35.306920L18.582589 -35.641741C18.459821 -35.764509 18.320312 -35.948661 18.164062 -36.194196C17.739955 -35.535714 17.195871 -34.963728 16.531808 -34.478237C15.867746 -33.992746 15.156250 -33.638393 14.397321 -33.415179C13.638393 -33.191964 12.857143 -33.063616 12.053571 -33.030134C11.250000 -32.996652 10.482701 -33.113839 9.751674 -33.381696C9.020647 -33.649554 8.364955 -34.015067 7.784598 -34.478237C7.204241 -34.941406 6.741071 -35.571987 6.395089 -36.369978C6.049107 -37.167969 5.876116 -38.074777 5.876116 -39.090402C5.876116 -40.027902 6.032366 -40.887277 6.344866 -41.668527C6.657366 -42.449777 7.059152 -43.099888 7.550223 -43.618862C8.041295 -44.137835 8.635603 -44.601004 9.333147 -45.008371C10.030692 -45.415737 10.714286 -45.733817 11.383929 -45.962612C12.053571 -46.191406 12.779018 -46.383929 13.560268 -46.540179C14.341518 -46.696429 15.008371 -46.799665 15.560826 -46.849888C16.113281 -46.900112 16.668527 -46.936384 17.226562 -46.958705L17.226562 -49.084821C17.226562 -49.810268 17.109375 -50.351562 16.875000 -50.708705C16.495536 -51.300223 15.820312 -51.595982 14.849330 -51.595982C14.782366 -51.595982 14.690290 -51.590402 14.573103 -51.579241C14.455915 -51.568080 14.229911 -51.501116 13.895089 -51.378348C13.560268 -51.255580 13.247768 -51.090960 12.957589 -50.884487C12.667411 -50.678013 12.354911 -50.345982 12.020089 -49.888393C11.685268 -49.430804 11.417411 -48.895089 11.216518 -48.281250L6.294643 -48.733259C6.294643 -49.402902 6.417411 -50.066964 6.662946 -50.725446C6.908482 -51.383929 7.282366 -52.014509 7.784598 -52.617188C8.286830 -53.219866 8.889509 -53.750000 9.592634 -54.207589C10.295759 -54.665179 11.141183 -55.030692 12.128906 -55.304129C13.116629 -55.577567 14.179688 -55.714286 15.318080 -55.714286C16.434152 -55.714286 17.444196 -55.574777 18.348214 -55.295759C19.252232 -55.016741 19.974888 -54.673549 20.516183 -54.266183C21.057478 -53.858817 21.509487 -53.395647 21.872210 -52.876674C22.234933 -52.357701 22.486049 -51.877790 22.625558 -51.436942C22.765067 -50.996094 22.834821 -50.585938 22.834821 -50.206473ZM11.584821 -39.994420C11.584821 -39.034598 11.975446 -38.292411 12.756696 -37.767857C13.493304 -37.276786 14.268973 -37.154018 15.083705 -37.399554C16.021205 -37.678571 16.657366 -38.364955 16.992188 -39.458705C17.148438 -39.960938 17.226562 -40.524554 17.226562 -41.149554L17.226562 -43.861607C16.568080 -43.839286 15.948661 -43.772321 15.368304 -43.660714C14.787946 -43.549107 14.193638 -43.362165 13.585379 -43.099888C12.977121 -42.837612 12.491629 -42.441406 12.128906 -41.911272C11.766183 -41.381138 11.584821 -40.742188 11.584821 -39.994420ZM11.584821 -39.994420"></path></svg>