<svg width="17.142857" height="30.000000" viewBox="0.000000 -55.714286 17.142857 30.000000" xmlns="http://www.w3.org/2000/svg"><path d="M8.571429 -37.500000C9.308036 -37.500000 10.022321 -37.583705 10.714286 -37.751116L10.714286 -26.785714C10.714286 -26.495536 10.608259 -26.244420 10.396205 -26.032366C10.184152 -25.820312 9.933036 -25.714286 9.642857 -25.714286L7.500000 -25.714286C7.209821 -25.714286 6.958705 -25.820312 6.746652 -26.032366C6.534598 -26.244420 6.428571 -26.495536 6.428571 -26.785714L6.428571 -37.751116C7.120536 -37.583705 7.834821 -37.500000 8.571429 -37.500000ZM8.571429 -55.714286C10.937500 -55.714286 12.957589 -54.877232 14.631696 -53.203125C16.305804 -51.529018 17.142857 -49.508929 17.142857 -47.142857C17.142857 -44.776786 16.305804 -42.756696 14.631696 -41.082589C12.957589 -39.408482 10.937500 -38.571429 8.571429 -38.571429C6.205357 -38.571429 4.185268 -39.408482 2.511161 -41.082589C0.837054 -42.756696 0.000000 -44.776786 0.000000 -47.142857C0.000000 -49.508929 0.837054 -51.529018 2.511161 -53.203125C4.185268 -54.877232 6.205357 -55.714286 8.571429 -55.714286ZM8.571429 -51.964286C8.727679 -51.964286 8.856027 -52.014509 8.956473 -52.114955C9.056920 -52.215402 9.107143 -52.343750 9.107143 -52.500000C9.107143 -52.656250 9.056920 -52.784598 8.956473 -52.885045C8.856027 -52.985491 8.727679 -53.035714 8.571429 -53.035714C6.941964 -53.035714 5.552455 -52.460938 4.402902 -51.311384C3.253348 -50.161830 2.678571 -48.772321 2.678571 -47.142857C2.678571 -46.986607 2.728795 -46.858259 2.829241 -46.757812C2.929688 -46.657366 3.058036 -46.607143 3.214286 -46.607143C3.370536 -46.607143 3.498884 -46.657366 3.599330 -46.757812C3.699777 -46.858259 3.750000 -46.986607 3.750000 -47.142857C3.750000 -48.470982 4.221540 -49.606585 5.164621 -50.549665C6.107701 -51.492746 7.243304 -51.964286 8.571429 -51.964286ZM8.571429 -51.964286"></path></svg>