<svg width="30.000000" height="30.000000" viewBox="0.000000 -55.714286 30.000000 30.000000" xmlns="http://www.w3.org/2000/svg"><path d="M8.571429 -55.714286C8.716518 -55.714286 8.842076 -55.661272 8.948103 -55.555246C9.054129 -55.449219 9.107143 -55.323661 9.107143 -55.178571L9.107143 -30.535714C9.107143 -30.312500 9.012277 -30.156250 8.822545 -30.066964L0.786830 -25.781250C0.708705 -25.736607 0.625000 -25.714286 0.535714 -25.714286C0.390625 -25.714286 0.265067 -25.767299 0.159040 -25.873326C0.053013 -25.979353 0.000000 -26.104911 0.000000 -26.250000L0.000000 -50.892857C0.000000 -51.116071 0.094866 -51.272321 0.284598 -51.361607L8.320312 -55.647321C8.398438 -55.691964 8.482143 -55.714286 8.571429 -55.714286ZM29.464286 -55.714286C29.609375 -55.714286 29.734933 -55.661272 29.840960 -55.555246C29.946987 -55.449219 30.000000 -55.323661 30.000000 -55.178571L30.000000 -30.535714C30.000000 -30.312500 29.905134 -30.156250 29.715402 -30.066964L21.679688 -25.781250C21.601562 -25.736607 21.517857 -25.714286 21.428571 -25.714286C21.283482 -25.714286 21.157924 -25.767299 21.051897 -25.873326C20.945871 -25.979353 20.892857 -26.104911 20.892857 -26.250000L20.892857 -50.892857C20.892857 -51.116071 20.987723 -51.272321 21.177455 -51.361607L29.213170 -55.647321C29.291295 -55.691964 29.375000 -55.714286 29.464286 -55.714286ZM10.714286 -55.714286C10.803571 -55.714286 10.881696 -55.697545 10.948661 -55.664062L19.520089 -51.378348C19.720982 -51.266741 19.821429 -51.104911 19.821429 -50.892857L19.821429 -26.250000C19.821429 -26.104911 19.768415 -25.979353 19.662388 -25.873326C19.556362 -25.767299 19.430804 -25.714286 19.285714 -25.714286C19.196429 -25.714286 19.118304 -25.731027 19.051339 -25.764509L10.479911 -30.050223C10.279018 -30.161830 10.178571 -30.323661 10.178571 -30.535714L10.178571 -55.178571C10.178571 -55.323661 10.231585 -55.449219 10.337612 -55.555246C10.443638 -55.661272 10.569196 -55.714286 10.714286 -55.714286ZM10.714286 -55.714286"></path></svg>