<svg width="28.844866" height="30.000000" viewBox="0.000000 -55.714286 28.844866 30.000000" xmlns="http://www.w3.org/2000/svg"><path d="M26.517857 -34.118304L22.868304 -35.976562C22.042411 -34.637277 20.945871 -33.582589 19.578683 -32.812500C18.211496 -32.042411 16.741071 -31.657366 15.167411 -31.657366C13.526786 -31.657366 12.014509 -32.059152 10.630580 -32.862723C9.246652 -33.666295 8.152902 -34.760045 7.349330 -36.143973C6.545759 -37.527902 6.143973 -39.034598 6.143973 -40.664062C6.143973 -41.891741 6.381138 -43.060826 6.855469 -44.171317C7.329799 -45.281808 7.971540 -46.241629 8.780692 -47.050781C9.589844 -47.859933 10.549665 -48.501674 11.660156 -48.976004C12.770647 -49.450335 13.939732 -49.687500 15.167411 -49.687500C16.629464 -49.687500 18.010603 -49.349888 19.310826 -48.674665C20.611049 -47.999442 21.685268 -47.059152 22.533482 -45.853795L26.132812 -47.946429C24.905134 -49.832589 23.306362 -51.311384 21.336496 -52.382812C19.366629 -53.454241 17.254464 -53.989955 15.000000 -53.989955C13.203125 -53.989955 11.484375 -53.638393 9.843750 -52.935268C8.203125 -52.232143 6.791295 -51.289062 5.608259 -50.106027C4.425223 -48.922991 3.482143 -47.511161 2.779018 -45.870536C2.075893 -44.229911 1.724330 -42.511161 1.724330 -40.714286C1.724330 -38.917411 2.075893 -37.198661 2.779018 -35.558036C3.482143 -33.917411 4.425223 -32.505580 5.608259 -31.322545C6.791295 -30.139509 8.203125 -29.196429 9.843750 -28.493304C11.484375 -27.790179 13.203125 -27.438616 15.000000 -27.438616C17.377232 -27.438616 19.595424 -28.035714 21.654576 -29.229911C23.713728 -30.424107 25.334821 -32.053571 26.517857 -34.118304ZM17.243304 -40.764509L28.844866 -34.871652C27.550223 -32.047991 25.683594 -29.815848 23.244978 -28.175223C20.806362 -26.534598 18.058036 -25.714286 15.000000 -25.714286C12.968750 -25.714286 11.026786 -26.110491 9.174107 -26.902902C7.321429 -27.695312 5.725446 -28.761161 4.386161 -30.100446C3.046875 -31.439732 1.981027 -33.035714 1.188616 -34.888393C0.396205 -36.741071 0.000000 -38.683036 0.000000 -40.714286C0.000000 -42.745536 0.396205 -44.687500 1.188616 -46.540179C1.981027 -48.392857 3.046875 -49.988839 4.386161 -51.328125C5.725446 -52.667411 7.321429 -53.733259 9.174107 -54.525670C11.026786 -55.318080 12.968750 -55.714286 15.000000 -55.714286C17.901786 -55.714286 20.527344 -54.969308 22.876674 -53.479353C25.226004 -51.989397 27.098214 -49.944196 28.493304 -47.343750ZM25.831473 -40.714286L25.178571 -40.714286L25.178571 -38.035714L23.571429 -38.035714L23.571429 -43.928571L25.848214 -43.928571C26.205357 -43.928571 26.509487 -43.816964 26.760603 -43.593750C27.011719 -43.370536 27.170759 -43.102679 27.237723 -42.790179C27.304688 -42.477679 27.310268 -42.165179 27.254464 -41.852679C27.198661 -41.540179 27.045201 -41.272321 26.794085 -41.049107C26.542969 -40.825893 26.222098 -40.714286 25.831473 -40.714286ZM25.831473 -40.714286"></path></svg>