<svg width="38.571429" height="23.571429" viewBox="0.000000 -47.142857 38.571429 23.571429" xmlns="http://www.w3.org/2000/svg"><path d="M38.303571 -35.809152C38.482143 -35.719866 38.571429 -35.569196 38.571429 -35.357143C38.571429 -35.145089 38.482143 -34.994420 38.303571 -34.905134L32.946429 -31.690848C32.857143 -31.635045 32.767857 -31.607143 32.678571 -31.607143C32.578125 -31.607143 32.488839 -31.629464 32.410714 -31.674107C32.232143 -31.785714 32.142857 -31.941964 32.142857 -32.142857L32.142857 -34.285714L17.779018 -34.285714C18.191964 -33.638393 18.655134 -32.717634 19.168527 -31.523437C19.347098 -31.110491 19.483817 -30.803571 19.578683 -30.602679C19.673549 -30.401786 19.807478 -30.128348 19.980469 -29.782366C20.153460 -29.436384 20.304129 -29.174107 20.432478 -28.995536C20.560826 -28.816964 20.711496 -28.627232 20.884487 -28.426339C21.057478 -28.225446 21.233259 -28.080357 21.411830 -27.991071C21.590402 -27.901786 21.774554 -27.857143 21.964286 -27.857143L23.571429 -27.857143L23.571429 -29.464286C23.571429 -29.620536 23.621652 -29.748884 23.722098 -29.849330C23.822545 -29.949777 23.950893 -30.000000 24.107143 -30.000000L29.464286 -30.000000C29.620536 -30.000000 29.748884 -29.949777 29.849330 -29.849330C29.949777 -29.748884 30.000000 -29.620536 30.000000 -29.464286L30.000000 -24.107143C30.000000 -23.950893 29.949777 -23.822545 29.849330 -23.722098C29.748884 -23.621652 29.620536 -23.571429 29.464286 -23.571429L24.107143 -23.571429C23.950893 -23.571429 23.822545 -23.621652 23.722098 -23.722098C23.621652 -23.822545 23.571429 -23.950893 23.571429 -24.107143L23.571429 -25.714286L21.964286 -25.714286C21.607143 -25.714286 21.266741 -25.770089 20.943080 -25.881696C20.619420 -25.993304 20.334821 -26.124442 20.089286 -26.275112C19.843750 -26.425781 19.592634 -26.651786 19.335938 -26.953125C19.079241 -27.254464 18.872768 -27.511161 18.716518 -27.723214C18.560268 -27.935268 18.373326 -28.253348 18.155692 -28.677455C17.938058 -29.101562 17.779018 -29.422433 17.678571 -29.640067C17.578125 -29.857701 17.421875 -30.195312 17.209821 -30.652902C16.953125 -31.244420 16.746652 -31.699219 16.590402 -32.017299C16.434152 -32.335379 16.233259 -32.698103 15.987723 -33.105469C15.742188 -33.512835 15.493862 -33.811384 15.242746 -34.001116C14.991629 -34.190848 14.732143 -34.285714 14.464286 -34.285714L8.437500 -34.285714C8.191964 -33.348214 7.684152 -32.578125 6.914062 -31.975446C6.143973 -31.372768 5.267857 -31.071429 4.285714 -31.071429C3.102679 -31.071429 2.092634 -31.489955 1.255580 -32.327009C0.418527 -33.164062 0.000000 -34.174107 0.000000 -35.357143C0.000000 -36.540179 0.418527 -37.550223 1.255580 -38.387277C2.092634 -39.224330 3.102679 -39.642857 4.285714 -39.642857C5.267857 -39.642857 6.143973 -39.341518 6.914062 -38.738839C7.684152 -38.136161 8.191964 -37.366071 8.437500 -36.428571L10.178571 -36.428571C10.446429 -36.428571 10.705915 -36.523438 10.957031 -36.713170C11.208147 -36.902902 11.456473 -37.201451 11.702009 -37.608817C11.947545 -38.016183 12.148438 -38.378906 12.304688 -38.696987C12.460938 -39.015067 12.667411 -39.469866 12.924107 -40.061384C13.136161 -40.518973 13.292411 -40.856585 13.392857 -41.074219C13.493304 -41.291853 13.652344 -41.612723 13.869978 -42.036830C14.087612 -42.460938 14.274554 -42.779018 14.430804 -42.991071C14.587054 -43.203125 14.793527 -43.459821 15.050223 -43.761161C15.306920 -44.062500 15.558036 -44.288504 15.803571 -44.439174C16.049107 -44.589844 16.333705 -44.720982 16.657366 -44.832589C16.981027 -44.944196 17.321429 -45.000000 17.678571 -45.000000L19.469866 -45.000000C19.704241 -45.636161 20.094866 -46.152344 20.641741 -46.548549C21.188616 -46.944754 21.808036 -47.142857 22.500000 -47.142857C23.392857 -47.142857 24.151786 -46.830357 24.776786 -46.205357C25.401786 -45.580357 25.714286 -44.821429 25.714286 -43.928571C25.714286 -43.035714 25.401786 -42.276786 24.776786 -41.651786C24.151786 -41.026786 23.392857 -40.714286 22.500000 -40.714286C21.808036 -40.714286 21.188616 -40.912388 20.641741 -41.308594C20.094866 -41.704799 19.704241 -42.220982 19.469866 -42.857143L17.678571 -42.857143C17.488839 -42.857143 17.304688 -42.812500 17.126116 -42.723214C16.947545 -42.633929 16.771763 -42.488839 16.598772 -42.287946C16.425781 -42.087054 16.275112 -41.897321 16.146763 -41.718750C16.018415 -41.540179 15.867746 -41.277902 15.694754 -40.931920C15.521763 -40.585938 15.387835 -40.312500 15.292969 -40.111607C15.198103 -39.910714 15.061384 -39.603795 14.882812 -39.190848C14.369420 -37.996652 13.906250 -37.075893 13.493304 -36.428571L32.142857 -36.428571L32.142857 -38.571429C32.142857 -38.772321 32.232143 -38.928571 32.410714 -39.040179C32.589286 -39.151786 32.767857 -39.146205 32.946429 -39.023438ZM38.303571 -35.809152"></path></svg>