<svg width="34.285714" height="30.000000" viewBox="0.000000 -55.714286 34.285714 30.000000" xmlns="http://www.w3.org/2000/svg"><path d="M32.142857 -42.857143C32.734375 -42.857143 33.239397 -42.647879 33.657924 -42.229353C34.076451 -41.810826 34.285714 -41.305804 34.285714 -40.714286C34.285714 -40.122768 34.076451 -39.617746 33.657924 -39.199219C33.239397 -38.780692 32.734375 -38.571429 32.142857 -38.571429L31.891741 -38.571429L29.966518 -27.488839C29.877232 -26.975446 29.631696 -26.551339 29.229911 -26.216518C28.828125 -25.881696 28.370536 -25.714286 27.857143 -25.714286L6.428571 -25.714286C5.915179 -25.714286 5.457589 -25.881696 5.055804 -26.216518C4.654018 -26.551339 4.408482 -26.975446 4.319196 -27.488839L2.393973 -38.571429L2.142857 -38.571429C1.551339 -38.571429 1.046317 -38.780692 0.627790 -39.199219C0.209263 -39.617746 0.000000 -40.122768 0.000000 -40.714286C0.000000 -41.305804 0.209263 -41.810826 0.627790 -42.229353C1.046317 -42.647879 1.551339 -42.857143 2.142857 -42.857143ZM8.119420 -29.464286C8.409598 -29.486607 8.652344 -29.612165 8.847656 -29.840960C9.042969 -30.069754 9.129464 -30.329241 9.107143 -30.619420L8.571429 -37.583705C8.549107 -37.873884 8.423549 -38.116629 8.194754 -38.311942C7.965960 -38.507254 7.706473 -38.593750 7.416295 -38.571429C7.126116 -38.549107 6.883371 -38.423549 6.688058 -38.194754C6.492746 -37.965960 6.406250 -37.706473 6.428571 -37.416295L6.964286 -30.452009C6.986607 -30.172991 7.101004 -29.938616 7.307478 -29.748884C7.513951 -29.559152 7.756696 -29.464286 8.035714 -29.464286ZM15.000000 -30.535714L15.000000 -37.500000C15.000000 -37.790179 14.893973 -38.041295 14.681920 -38.253348C14.469866 -38.465402 14.218750 -38.571429 13.928571 -38.571429C13.638393 -38.571429 13.387277 -38.465402 13.175223 -38.253348C12.963170 -38.041295 12.857143 -37.790179 12.857143 -37.500000L12.857143 -30.535714C12.857143 -30.245536 12.963170 -29.994420 13.175223 -29.782366C13.387277 -29.570312 13.638393 -29.464286 13.928571 -29.464286C14.218750 -29.464286 14.469866 -29.570312 14.681920 -29.782366C14.893973 -29.994420 15.000000 -30.245536 15.000000 -30.535714ZM21.428571 -30.535714L21.428571 -37.500000C21.428571 -37.790179 21.322545 -38.041295 21.110491 -38.253348C20.898438 -38.465402 20.647321 -38.571429 20.357143 -38.571429C20.066964 -38.571429 19.815848 -38.465402 19.603795 -38.253348C19.391741 -38.041295 19.285714 -37.790179 19.285714 -37.500000L19.285714 -30.535714C19.285714 -30.245536 19.391741 -29.994420 19.603795 -29.782366C19.815848 -29.570312 20.066964 -29.464286 20.357143 -29.464286C20.647321 -29.464286 20.898438 -29.570312 21.110491 -29.782366C21.322545 -29.994420 21.428571 -30.245536 21.428571 -30.535714ZM27.321429 -30.452009L27.857143 -37.416295C27.879464 -37.706473 27.792969 -37.965960 27.597656 -38.194754C27.402344 -38.423549 27.159598 -38.549107 26.869420 -38.571429C26.579241 -38.593750 26.319754 -38.507254 26.090960 -38.311942C25.862165 -38.116629 25.736607 -37.873884 25.714286 -37.583705L25.178571 -30.619420C25.156250 -30.329241 25.242746 -30.069754 25.438058 -29.840960C25.633371 -29.612165 25.876116 -29.486607 26.166295 -29.464286L26.250000 -29.464286C26.529018 -29.464286 26.771763 -29.559152 26.978237 -29.748884C27.184710 -29.938616 27.299107 -30.172991 27.321429 -30.452009ZM7.968750 -50.825893L6.411830 -43.928571L4.202009 -43.928571L5.892857 -51.311384C6.104911 -52.293527 6.601562 -53.094308 7.382812 -53.713728C8.164062 -54.333147 9.056920 -54.642857 10.061384 -54.642857L12.857143 -54.642857C12.857143 -54.933036 12.963170 -55.184152 13.175223 -55.396205C13.387277 -55.608259 13.638393 -55.714286 13.928571 -55.714286L20.357143 -55.714286C20.647321 -55.714286 20.898438 -55.608259 21.110491 -55.396205C21.322545 -55.184152 21.428571 -54.933036 21.428571 -54.642857L24.224330 -54.642857C25.228795 -54.642857 26.121652 -54.333147 26.902902 -53.713728C27.684152 -53.094308 28.180804 -52.293527 28.392857 -51.311384L30.083705 -43.928571L27.873884 -43.928571L26.316964 -50.825893C26.194196 -51.316964 25.940290 -51.718750 25.555246 -52.031250C25.170201 -52.343750 24.726562 -52.500000 24.224330 -52.500000L21.428571 -52.500000C21.428571 -52.209821 21.322545 -51.958705 21.110491 -51.746652C20.898438 -51.534598 20.647321 -51.428571 20.357143 -51.428571L13.928571 -51.428571C13.638393 -51.428571 13.387277 -51.534598 13.175223 -51.746652C12.963170 -51.958705 12.857143 -52.209821 12.857143 -52.500000L10.061384 -52.500000C9.559152 -52.500000 9.115513 -52.343750 8.730469 -52.031250C8.345424 -51.718750 8.091518 -51.316964 7.968750 -50.825893ZM7.968750 -50.825893"></path></svg>