<svg width="25.714286" height="25.714286" viewBox="0.000000 -49.285714 25.714286 25.714286" xmlns="http://www.w3.org/2000/svg"><path d="M14.732143 -31.339286L14.732143 -28.660714C14.732143 -28.504464 14.681920 -28.376116 14.581473 -28.275670C14.481027 -28.175223 14.352679 -28.125000 14.196429 -28.125000L11.517857 -28.125000C11.361607 -28.125000 11.233259 -28.175223 11.132812 -28.275670C11.032366 -28.376116 10.982143 -28.504464 10.982143 -28.660714L10.982143 -31.339286C10.982143 -31.495536 11.032366 -31.623884 11.132812 -31.724330C11.233259 -31.824777 11.361607 -31.875000 11.517857 -31.875000L14.196429 -31.875000C14.352679 -31.875000 14.481027 -31.824777 14.581473 -31.724330C14.681920 -31.623884 14.732143 -31.495536 14.732143 -31.339286ZM19.017857 -39.642857C19.017857 -39.084821 18.934152 -38.582589 18.766741 -38.136161C18.599330 -37.689732 18.345424 -37.304688 18.005022 -36.981027C17.664621 -36.657366 17.374442 -36.411830 17.134487 -36.244420C16.894531 -36.077009 16.562500 -35.876116 16.138393 -35.641741C15.781250 -35.440848 15.521763 -35.284598 15.359933 -35.172991C15.198103 -35.061384 15.053013 -34.927455 14.924665 -34.771205C14.796317 -34.614955 14.732143 -34.453125 14.732143 -34.285714L14.732143 -33.750000C14.732143 -33.593750 14.681920 -33.465402 14.581473 -33.364955C14.481027 -33.264509 14.352679 -33.214286 14.196429 -33.214286L11.517857 -33.214286C11.361607 -33.214286 11.233259 -33.264509 11.132812 -33.364955C11.032366 -33.465402 10.982143 -33.593750 10.982143 -33.750000L10.982143 -34.888393C10.982143 -35.279018 11.040737 -35.638951 11.157924 -35.968192C11.275112 -36.297433 11.409040 -36.562500 11.559710 -36.763393C11.710379 -36.964286 11.928013 -37.162388 12.212612 -37.357701C12.497210 -37.553013 12.726004 -37.695312 12.898996 -37.784598C13.071987 -37.873884 13.320312 -37.991071 13.643973 -38.136161C14.235491 -38.415179 14.654018 -38.655134 14.899554 -38.856027C15.145089 -39.056920 15.267857 -39.330357 15.267857 -39.676339C15.267857 -40.145089 15.025112 -40.544085 14.539621 -40.873326C14.054129 -41.202567 13.521205 -41.367188 12.940848 -41.367188C12.315848 -41.367188 11.785714 -41.216518 11.350446 -40.915179C11.026786 -40.691964 10.580357 -40.228795 10.011161 -39.525670C9.910714 -39.391741 9.771205 -39.324777 9.592634 -39.324777C9.469866 -39.324777 9.363839 -39.358259 9.274554 -39.425223L7.466518 -40.797991C7.354911 -40.876116 7.287946 -40.987723 7.265625 -41.132812C7.243304 -41.277902 7.271205 -41.406250 7.349330 -41.517857C8.710938 -43.660714 10.658482 -44.732143 13.191964 -44.732143C14.631696 -44.732143 15.962612 -44.232701 17.184710 -43.233817C18.406808 -42.234933 19.017857 -41.037946 19.017857 -39.642857ZM12.857143 -47.142857C11.406250 -47.142857 10.019531 -46.858259 8.696987 -46.289062C7.374442 -45.719866 6.236049 -44.958147 5.281808 -44.003906C4.327567 -43.049665 3.565848 -41.911272 2.996652 -40.588728C2.427455 -39.266183 2.142857 -37.879464 2.142857 -36.428571C2.142857 -34.977679 2.427455 -33.590960 2.996652 -32.268415C3.565848 -30.945871 4.327567 -29.807478 5.281808 -28.853237C6.236049 -27.898996 7.374442 -27.137277 8.696987 -26.568080C10.019531 -25.998884 11.406250 -25.714286 12.857143 -25.714286C14.308036 -25.714286 15.694754 -25.998884 17.017299 -26.568080C18.339844 -27.137277 19.478237 -27.898996 20.432478 -28.853237C21.386719 -29.807478 22.148438 -30.945871 22.717634 -32.268415C23.286830 -33.590960 23.571429 -34.977679 23.571429 -36.428571C23.571429 -37.879464 23.286830 -39.266183 22.717634 -40.588728C22.148438 -41.911272 21.386719 -43.049665 20.432478 -44.003906C19.478237 -44.958147 18.339844 -45.719866 17.017299 -46.289062C15.694754 -46.858259 14.308036 -47.142857 12.857143 -47.142857ZM25.714286 -36.428571C25.714286 -34.095982 25.139509 -31.944754 23.989955 -29.974888C22.840402 -28.005022 21.280692 -26.445312 19.310826 -25.295759C17.340960 -24.146205 15.189732 -23.571429 12.857143 -23.571429C10.524554 -23.571429 8.373326 -24.146205 6.403460 -25.295759C4.433594 -26.445312 2.873884 -28.005022 1.724330 -29.974888C0.574777 -31.944754 0.000000 -34.095982 0.000000 -36.428571C0.000000 -38.761161 0.574777 -40.912388 1.724330 -42.882254C2.873884 -44.852121 4.433594 -46.411830 6.403460 -47.561384C8.373326 -48.710938 10.524554 -49.285714 12.857143 -49.285714C15.189732 -49.285714 17.340960 -48.710938 19.310826 -47.561384C21.280692 -46.411830 22.840402 -44.852121 23.989955 -42.882254C25.139509 -40.912388 25.714286 -38.761161 25.714286 -36.428571ZM25.714286 -36.428571"></path></svg>