<svg width="38.627232" height="30.030692" viewBox="-0.027902 -55.775670 38.627232 30.030692" xmlns="http://www.w3.org/2000/svg"><path d="M17.276786 -39.673549C16.618304 -39.695871 16.149554 -40.002790 15.870536 -40.594308C15.680804 -40.973772 15.412946 -41.272321 15.066964 -41.489955C14.720982 -41.707589 14.341518 -41.816406 13.928571 -41.816406C13.337054 -41.816406 12.832031 -41.607143 12.413504 -41.188616C11.994978 -40.770089 11.785714 -40.265067 11.785714 -39.673549C11.785714 -39.048549 11.986607 -38.551897 12.388393 -38.183594L12.555804 -38.049665C12.935268 -37.703683 13.392857 -37.530692 13.928571 -37.530692C14.341518 -37.530692 14.720982 -37.639509 15.066964 -37.857143C15.412946 -38.074777 15.680804 -38.373326 15.870536 -38.752790C16.149554 -39.344308 16.618304 -39.651228 17.276786 -39.673549ZM26.785714 -41.816406C26.785714 -42.441406 26.584821 -42.938058 26.183036 -43.306362L26.015625 -43.440290C25.636161 -43.786272 25.178571 -43.959263 24.642857 -43.959263C24.229911 -43.959263 23.850446 -43.850446 23.504464 -43.632812C23.158482 -43.415179 22.890625 -43.116629 22.700893 -42.737165C22.421875 -42.145647 21.953125 -41.838728 21.294643 -41.816406C21.953125 -41.794085 22.421875 -41.487165 22.700893 -40.895647C22.890625 -40.516183 23.158482 -40.217634 23.504464 -40.000000C23.850446 -39.782366 24.229911 -39.673549 24.642857 -39.673549C25.234375 -39.673549 25.739397 -39.882812 26.157924 -40.301339C26.576451 -40.719866 26.785714 -41.224888 26.785714 -41.816406ZM19.654018 -45.516183C19.464286 -45.125558 19.157366 -44.857701 18.733259 -44.712612C18.309152 -44.567522 17.901786 -44.589844 17.511161 -44.779576C16.819196 -45.125558 16.071429 -45.298549 15.267857 -45.298549C14.698661 -45.298549 14.146205 -45.203683 13.610491 -45.013951C13.643973 -45.013951 13.696987 -45.016741 13.769531 -45.022321C13.842076 -45.027902 13.895089 -45.030692 13.928571 -45.030692C14.955357 -45.030692 15.906808 -44.751674 16.782924 -44.193638C17.659040 -43.635603 18.320312 -42.893415 18.766741 -41.967076C18.956473 -41.565290 18.976004 -41.155134 18.825335 -40.736607C18.674665 -40.318080 18.398438 -40.013951 17.996652 -39.824219C17.795759 -39.723772 17.578125 -39.673549 17.343750 -39.673549C17.578125 -39.673549 17.795759 -39.623326 17.996652 -39.522879C18.398438 -39.333147 18.674665 -39.029018 18.825335 -38.610491C18.976004 -38.191964 18.956473 -37.781808 18.766741 -37.380022C18.320312 -36.453683 17.659040 -35.711496 16.782924 -35.153460C15.906808 -34.595424 14.955357 -34.316406 13.928571 -34.316406L13.828125 -34.316406C13.649554 -34.338728 13.404018 -34.361049 13.091518 -34.383371L8.236607 -34.835379L4.235491 -32.826451C4.079241 -32.748326 3.917411 -32.709263 3.750000 -32.709263C3.303571 -32.709263 2.985491 -32.904576 2.795759 -33.295201L0.117188 -38.652344C-0.005580 -38.909040 -0.027902 -39.174107 0.050223 -39.447545C0.128348 -39.720982 0.290179 -39.930246 0.535714 -40.075335L4.034598 -42.067522L6.512277 -46.537388C6.702009 -48.267299 7.212612 -49.893973 8.044085 -51.417411C8.875558 -52.940848 9.966518 -54.260603 11.316964 -55.376674C11.662946 -55.655692 12.056362 -55.775670 12.497210 -55.736607C12.938058 -55.697545 13.297991 -55.505022 13.577009 -55.159040C13.856027 -54.813058 13.976004 -54.422433 13.936942 -53.987165C13.897879 -53.551897 13.705357 -53.189174 13.359375 -52.898996C12.578125 -52.240513 11.925223 -51.526228 11.400670 -50.756138C12.773438 -51.693638 14.263393 -52.257254 15.870536 -52.446987C16.316964 -52.502790 16.715960 -52.396763 17.067522 -52.128906C17.419085 -51.861049 17.617188 -51.503906 17.661830 -51.057478C17.717634 -50.611049 17.611607 -50.212054 17.343750 -49.860491C17.075893 -49.508929 16.718750 -49.310826 16.272321 -49.266183C15.334821 -49.154576 14.447545 -48.847656 13.610491 -48.345424C14.123884 -48.457031 14.676339 -48.512835 15.267857 -48.512835C16.551339 -48.512835 17.767857 -48.233817 18.917411 -47.675781C19.319196 -47.474888 19.592634 -47.165179 19.737723 -46.746652C19.882812 -46.328125 19.854911 -45.917969 19.654018 -45.516183ZM35.775670 -48.194754L38.454241 -42.837612C38.577009 -42.580915 38.599330 -42.315848 38.521205 -42.042411C38.443080 -41.768973 38.281250 -41.559710 38.035714 -41.414621L34.536830 -39.422433L32.059152 -34.952567C31.869420 -33.222656 31.358817 -31.595982 30.527344 -30.072545C29.695871 -28.549107 28.604911 -27.229353 27.254464 -26.113281C26.964286 -25.867746 26.623884 -25.744978 26.233259 -25.744978C25.731027 -25.744978 25.318080 -25.940290 24.994420 -26.330915C24.715402 -26.676897 24.595424 -27.067522 24.634487 -27.502790C24.673549 -27.938058 24.866071 -28.300781 25.212054 -28.590960C25.993304 -29.249442 26.646205 -29.963728 27.170759 -30.733817C25.797991 -29.796317 24.308036 -29.232701 22.700893 -29.042969C22.656250 -29.031808 22.589286 -29.026228 22.500000 -29.026228C22.098214 -29.026228 21.743862 -29.160156 21.436942 -29.428013C21.130022 -29.695871 20.954241 -30.030692 20.909598 -30.432478C20.853795 -30.878906 20.959821 -31.277902 21.227679 -31.629464C21.495536 -31.981027 21.852679 -32.179129 22.299107 -32.223772C23.236607 -32.335379 24.123884 -32.642299 24.960938 -33.144531C24.447545 -33.032924 23.895089 -32.977121 23.303571 -32.977121C22.020089 -32.977121 20.803571 -33.256138 19.654018 -33.814174C19.252232 -34.015067 18.978795 -34.324777 18.833705 -34.743304C18.688616 -35.161830 18.716518 -35.571987 18.917411 -35.973772C19.107143 -36.364397 19.414062 -36.632254 19.838170 -36.777344C20.262277 -36.922433 20.669643 -36.900112 21.060268 -36.710379C21.752232 -36.364397 22.500000 -36.191406 23.303571 -36.191406C23.872768 -36.191406 24.425223 -36.286272 24.960938 -36.476004C24.927455 -36.476004 24.874442 -36.473214 24.801897 -36.467634C24.729353 -36.462054 24.676339 -36.459263 24.642857 -36.459263C23.616071 -36.459263 22.664621 -36.738281 21.788504 -37.296317C20.912388 -37.854353 20.251116 -38.596540 19.804688 -39.522879C19.614955 -39.924665 19.595424 -40.334821 19.746094 -40.753348C19.896763 -41.171875 20.172991 -41.476004 20.574777 -41.665737C20.775670 -41.766183 20.993304 -41.816406 21.227679 -41.816406C20.993304 -41.816406 20.775670 -41.866629 20.574777 -41.967076C20.172991 -42.156808 19.896763 -42.460938 19.746094 -42.879464C19.595424 -43.297991 19.614955 -43.708147 19.804688 -44.109933C20.251116 -45.036272 20.912388 -45.778460 21.788504 -46.336496C22.664621 -46.894531 23.616071 -47.173549 24.642857 -47.173549L24.743304 -47.173549L24.760045 -47.173549C24.916295 -47.151228 25.150670 -47.128906 25.463170 -47.106585L30.334821 -46.654576L34.335938 -48.663504C34.492188 -48.741629 34.654018 -48.780692 34.821429 -48.780692C35.267857 -48.780692 35.585938 -48.585379 35.775670 -48.194754ZM35.775670 -48.194754"></path></svg>