<svg width="30.000000" height="26.852679" viewBox="0.000000 -49.921875 30.000000 26.852679" xmlns="http://www.w3.org/2000/svg"><path d="M5.608259 -29.866071C5.585938 -29.866071 5.552455 -29.877232 5.507812 -29.899554C4.547991 -30.535714 3.607701 -31.344866 2.686942 -32.327009C1.766183 -33.309152 0.987723 -34.313616 0.351562 -35.340402C0.117188 -35.675223 0.000000 -36.060268 0.000000 -36.495536C0.000000 -36.595982 0.011161 -36.702009 0.033482 -36.813616C0.055804 -36.925223 0.078125 -37.025670 0.100446 -37.114955C0.122768 -37.204241 0.161830 -37.304688 0.217634 -37.416295C0.273438 -37.527902 0.320871 -37.617188 0.359933 -37.684152C0.398996 -37.751116 0.457589 -37.845982 0.535714 -37.968750C0.613839 -38.091518 0.669643 -38.175223 0.703125 -38.219866C0.736607 -38.264509 0.803571 -38.351004 0.904018 -38.479353C1.004464 -38.607701 1.065848 -38.688616 1.088170 -38.722098C3.141741 -41.523438 5.664062 -43.560268 8.655134 -44.832589C7.427455 -47.042411 6.813616 -48.219866 6.813616 -48.364955C6.813616 -48.577009 6.908482 -48.738839 7.098214 -48.850446C8.392857 -49.564732 9.107143 -49.921875 9.241071 -49.921875C9.441964 -49.921875 9.598214 -49.832589 9.709821 -49.654018L11.785714 -45.820312C12.812500 -46.032366 13.883929 -46.138393 15.000000 -46.138393C17.968750 -46.138393 20.744978 -45.371094 23.328683 -43.836496C25.912388 -42.301897 28.024554 -40.239955 29.665179 -37.650670C29.888393 -37.304688 30.000000 -36.919643 30.000000 -36.495536C30.000000 -36.071429 29.888393 -35.686384 29.665179 -35.340402C28.649554 -33.755580 27.430246 -32.340960 26.007254 -31.096540C24.584263 -29.852121 23.030134 -28.872768 21.344866 -28.158482C22.572545 -25.948661 23.186384 -24.771205 23.186384 -24.626116C23.186384 -24.402902 23.091518 -24.241071 22.901786 -24.140625C21.607143 -23.426339 20.898438 -23.069196 20.775670 -23.069196C20.563616 -23.069196 20.401786 -23.158482 20.290179 -23.337054L18.214286 -27.170759L17.142857 -29.162946L9.709821 -42.890625L9.827009 -43.007812C9.179688 -42.739955 8.627232 -42.477679 8.169643 -42.220982C8.203125 -42.165179 8.911830 -40.859375 10.295759 -38.303571C11.679688 -35.747768 13.035714 -33.242188 14.363839 -30.786830C15.691964 -28.331473 16.356027 -27.087054 16.356027 -27.053571C16.356027 -26.975446 16.305804 -26.925223 16.205357 -26.902902C16.060268 -26.869420 15.658482 -26.852679 15.000000 -26.852679C14.363839 -26.852679 14.029018 -26.891741 13.995536 -26.969866L6.361607 -41.049107C5.926339 -40.736607 5.468750 -40.357143 4.988839 -39.910714C5.256696 -39.430804 6.450893 -37.234933 8.571429 -33.323103C10.691964 -29.411272 11.752232 -27.433036 11.752232 -27.388393C11.752232 -27.276786 11.690848 -27.220982 11.568080 -27.220982C11.411830 -27.220982 10.951451 -27.343750 10.186942 -27.589286C9.422433 -27.834821 9.017857 -27.991071 8.973214 -28.058036L7.198661 -31.356027L3.448661 -38.270089C2.957589 -37.678571 2.522321 -37.087054 2.142857 -36.495536C2.165179 -36.462054 2.265625 -36.322545 2.444196 -36.077009C2.622768 -35.831473 2.751116 -35.641741 2.829241 -35.507812L5.775670 -30.033482C5.775670 -29.921875 5.719866 -29.866071 5.608259 -29.866071ZM19.503348 -31.573661L20.323661 -30.050223C23.370536 -31.289062 25.881696 -33.437500 27.857143 -36.495536C25.848214 -39.587054 23.286830 -41.757812 20.172991 -43.007812C20.920759 -42.293527 21.495536 -41.464844 21.897321 -40.521763C22.299107 -39.578683 22.500000 -38.593750 22.500000 -37.566964C22.500000 -36.383929 22.237723 -35.265067 21.713170 -34.210379C21.188616 -33.155692 20.452009 -32.276786 19.503348 -31.573661ZM14.196429 -41.852679C14.196429 -41.629464 14.274554 -41.439732 14.430804 -41.283482C14.587054 -41.127232 14.776786 -41.049107 15.000000 -41.049107C15.959821 -41.049107 16.780134 -40.708705 17.460938 -40.027902C18.141741 -39.347098 18.482143 -38.526786 18.482143 -37.566964C18.482143 -37.343750 18.560268 -37.154018 18.716518 -36.997768C18.872768 -36.841518 19.062500 -36.763393 19.285714 -36.763393C19.508929 -36.763393 19.698661 -36.841518 19.854911 -36.997768C20.011161 -37.154018 20.089286 -37.343750 20.089286 -37.566964C20.089286 -38.973214 19.592634 -40.172991 18.599330 -41.166295C17.606027 -42.159598 16.406250 -42.656250 15.000000 -42.656250C14.776786 -42.656250 14.587054 -42.578125 14.430804 -42.421875C14.274554 -42.265625 14.196429 -42.075893 14.196429 -41.852679ZM20.323661 -42.940848L20.172991 -43.007812L20.290179 -42.890625ZM20.323661 -42.940848"></path></svg>