<svg width="21.395089" height="24.944196" viewBox="0.000000 -48.130580 21.395089 24.944196" xmlns="http://www.w3.org/2000/svg"><path d="M17.578125 -32.142857C17.578125 -29.743304 16.757812 -27.656250 15.117188 -25.881696C13.465402 -24.084821 11.356027 -23.186384 8.789062 -23.186384C6.199777 -23.186384 4.090402 -24.084821 2.460938 -25.881696C0.820312 -27.656250 0.000000 -29.743304 0.000000 -32.142857C0.000000 -33.783482 0.379464 -35.292969 1.138393 -36.671317C1.897321 -38.049665 2.952009 -39.146205 4.302455 -39.960938C5.652902 -40.775670 7.148438 -41.183036 8.789062 -41.183036C9.860491 -41.183036 10.876116 -41.010045 11.835938 -40.664062C11.478795 -39.972098 11.261161 -39.268973 11.183036 -38.554688C10.446429 -38.867188 9.648438 -39.023438 8.789062 -39.023438C6.925223 -39.023438 5.359933 -38.337054 4.093192 -36.964286C2.826451 -35.591518 2.193080 -33.967634 2.193080 -32.092634C2.193080 -30.195312 2.820871 -28.585379 4.076451 -27.262835C5.332031 -25.940290 6.902902 -25.279018 8.789062 -25.279018C10.675223 -25.279018 12.243304 -25.940290 13.493304 -27.262835C14.743304 -28.585379 15.368304 -30.195312 15.368304 -32.092634C15.368304 -33.085938 15.189732 -34.012277 14.832589 -34.871652C15.569196 -35.016741 16.255580 -35.290179 16.891741 -35.691964C17.349330 -34.598214 17.578125 -33.415179 17.578125 -32.142857ZM14.162946 -35.306920C14.162946 -33.164062 13.719308 -31.238839 12.832031 -29.531250C11.944754 -27.823661 10.613839 -26.411830 8.839286 -25.295759L8.604911 -25.279018C8.281250 -25.279018 7.935268 -25.306920 7.566964 -25.362723C8.493304 -25.719866 9.310826 -26.291853 10.019531 -27.078683C10.728237 -27.865513 11.283482 -28.727679 11.685268 -29.665179C12.087054 -30.602679 12.413504 -31.657366 12.664621 -32.829241C12.915737 -34.001116 13.083147 -35.075335 13.166853 -36.051897C13.250558 -37.028460 13.292411 -38.024554 13.292411 -39.040179C13.292411 -39.810268 13.275670 -40.385045 13.242188 -40.764509C13.856027 -38.978795 14.162946 -37.159598 14.162946 -35.306920ZM13.242188 -40.797991L13.242188 -40.764509C12.427455 -43.152902 11.277902 -45.608259 9.793527 -48.130580C10.775670 -47.472098 11.570871 -46.431362 12.179129 -45.008371C12.787388 -43.585379 13.141741 -42.181920 13.242188 -40.797991ZM17.327009 -37.399554C16.400670 -37.399554 15.507812 -37.818080 14.648438 -38.655134C17.081473 -39.994420 18.699777 -41.372768 19.503348 -42.790179C19.715402 -43.203125 19.832589 -43.515625 19.854911 -43.727679C19.386161 -42.678571 18.607701 -41.749442 17.519531 -40.940290C16.431362 -40.131138 15.290179 -39.587054 14.095982 -39.308036C13.705357 -39.910714 13.510045 -40.541295 13.510045 -41.199777C13.510045 -41.612723 13.604911 -42.053571 13.794643 -42.522321C13.984375 -42.991071 14.224330 -43.370536 14.514509 -43.660714C15.027902 -44.151786 15.904018 -44.564732 17.142857 -44.899554C17.801339 -45.078125 18.392857 -45.404576 18.917411 -45.878906C19.441964 -46.353237 19.854911 -46.914062 20.156250 -47.561384C20.982143 -46.389509 21.395089 -44.977679 21.395089 -43.325893C21.395089 -42.109375 21.261161 -41.160714 20.993304 -40.479911C20.636161 -39.620536 20.142299 -38.892299 19.511719 -38.295201C18.881138 -37.698103 18.152902 -37.399554 17.327009 -37.399554ZM17.327009 -37.399554"></path></svg>