<svg width="27.354911" height="25.725446" viewBox="0.251116 -49.308036 27.354911 25.725446" xmlns="http://www.w3.org/2000/svg"><path d="M14.196429 -49.296875C15.691964 -49.308036 17.034040 -48.925781 18.222656 -48.150112C19.411272 -47.374442 20.323661 -46.300223 20.959821 -44.927455C21.261161 -44.280134 21.411830 -43.281250 21.411830 -41.930804C21.411830 -41.406250 21.361607 -40.340402 21.261161 -38.733259C21.417411 -38.655134 21.573661 -38.616071 21.729911 -38.616071C21.930804 -38.616071 22.215402 -38.691406 22.583705 -38.842076C22.952009 -38.992746 23.236607 -39.068080 23.437500 -39.068080C23.761161 -39.068080 24.073661 -38.967634 24.375000 -38.766741C24.676339 -38.565848 24.827009 -38.309152 24.827009 -37.996652C24.827009 -37.639509 24.651228 -37.338170 24.299665 -37.092634C23.948103 -36.847098 23.563058 -36.671317 23.144531 -36.565290C22.726004 -36.459263 22.340960 -36.297433 21.989397 -36.079799C21.637835 -35.862165 21.462054 -35.597098 21.462054 -35.284598C21.462054 -35.117188 21.529018 -34.877232 21.662946 -34.564732C22.075893 -33.649554 22.647879 -32.812500 23.378906 -32.053571C24.109933 -31.294643 24.916295 -30.731027 25.797991 -30.362723C26.110491 -30.228795 26.556920 -30.100446 27.137277 -29.977679C27.449777 -29.910714 27.606027 -29.715402 27.606027 -29.391741C27.606027 -28.610491 26.383929 -28.035714 23.939732 -27.667411C23.861607 -27.544643 23.800223 -27.327009 23.755580 -27.014509C23.710938 -26.702009 23.632812 -26.442522 23.521205 -26.236049C23.409598 -26.029576 23.225446 -25.926339 22.968750 -25.926339C22.745536 -25.926339 22.399554 -25.962612 21.930804 -26.035156C21.462054 -26.107701 21.104911 -26.143973 20.859375 -26.143973C20.446429 -26.143973 20.100446 -26.116071 19.821429 -26.060268C19.464286 -26.004464 19.112723 -25.878906 18.766741 -25.683594C18.420759 -25.488281 18.097098 -25.276228 17.795759 -25.047433C17.494420 -24.818638 17.170759 -24.592634 16.824777 -24.369420C16.478795 -24.146205 16.054688 -23.959263 15.552455 -23.808594C15.050223 -23.657924 14.497768 -23.582589 13.895089 -23.582589C13.314732 -23.582589 12.776228 -23.657924 12.279576 -23.808594C11.782924 -23.959263 11.364397 -24.146205 11.023996 -24.369420C10.683594 -24.592634 10.362723 -24.818638 10.061384 -25.047433C9.760045 -25.276228 9.436384 -25.488281 9.090402 -25.683594C8.744420 -25.878906 8.398438 -26.004464 8.052455 -26.060268C7.762277 -26.116071 7.410714 -26.143973 6.997768 -26.143973C6.729911 -26.143973 6.364397 -26.102121 5.901228 -26.018415C5.438058 -25.934710 5.111607 -25.892857 4.921875 -25.892857C4.642857 -25.892857 4.447545 -25.996094 4.335938 -26.202567C4.224330 -26.409040 4.146205 -26.674107 4.101562 -26.997768C4.056920 -27.321429 3.995536 -27.544643 3.917411 -27.667411C1.473214 -28.035714 0.251116 -28.610491 0.251116 -29.391741C0.251116 -29.715402 0.407366 -29.910714 0.719866 -29.977679C1.300223 -30.100446 1.746652 -30.228795 2.059152 -30.362723C2.929688 -30.719866 3.736049 -31.283482 4.478237 -32.053571C5.220424 -32.823661 5.792411 -33.660714 6.194196 -34.564732C6.328125 -34.877232 6.395089 -35.117188 6.395089 -35.284598C6.395089 -35.597098 6.219308 -35.862165 5.867746 -36.079799C5.516183 -36.297433 5.128348 -36.462054 4.704241 -36.573661C4.280134 -36.685268 3.892299 -36.861049 3.540737 -37.101004C3.189174 -37.340960 3.013393 -37.633929 3.013393 -37.979911C3.013393 -38.281250 3.158482 -38.535156 3.448661 -38.741629C3.738839 -38.948103 4.045759 -39.051339 4.369420 -39.051339C4.536830 -39.051339 4.804688 -38.978795 5.172991 -38.833705C5.541295 -38.688616 5.837054 -38.616071 6.060268 -38.616071C6.261161 -38.616071 6.439732 -38.655134 6.595982 -38.733259C6.495536 -40.318080 6.445312 -41.378348 6.445312 -41.914062C6.445312 -43.275670 6.595982 -44.280134 6.897321 -44.927455C7.611607 -46.456473 8.571429 -47.561384 9.776786 -48.242188C10.982143 -48.922991 12.455357 -49.274554 14.196429 -49.296875ZM14.196429 -49.296875"></path></svg>