<svg width="38.571429" height="27.868304" viewBox="0.000000 -53.582589 38.571429 27.868304" xmlns="http://www.w3.org/2000/svg"><path d="M38.571429 -53.582589C37.801339 -53.069196 37.103795 -52.555804 36.478795 -52.042411C35.853795 -51.529018 35.357143 -51.077009 34.988839 -50.686384C34.620536 -50.295759 34.288504 -49.896763 33.992746 -49.489397C33.696987 -49.082031 33.487723 -48.761161 33.364955 -48.526786C33.242188 -48.292411 33.119420 -48.044085 32.996652 -47.781808C32.873884 -47.519531 32.795759 -47.354911 32.762277 -47.287946C32.650670 -47.087054 32.452567 -46.325335 32.167969 -45.002790C31.883371 -43.680246 31.612723 -42.762277 31.356027 -42.248884C31.188616 -41.925223 30.909598 -41.587612 30.518973 -41.236049C30.128348 -40.884487 29.751674 -40.602679 29.388951 -40.390625C29.026228 -40.178571 28.621652 -39.949777 28.175223 -39.704241C27.728795 -39.458705 27.460938 -39.302455 27.371652 -39.235491C26.847098 -38.889509 26.004464 -37.600446 24.843750 -35.368304C21.037946 -35.524554 17.522321 -34.642857 14.296875 -32.723214C13.270089 -32.131696 11.579241 -31.132812 9.224330 -29.726562C9.748884 -29.905134 10.228795 -30.078125 10.664062 -30.245536C11.099330 -30.412946 11.406250 -30.535714 11.584821 -30.613839L11.835938 -30.731027C12.628348 -31.032366 13.537946 -31.392299 14.564732 -31.810826C15.591518 -32.229353 16.336496 -32.527902 16.799665 -32.706473C17.262835 -32.885045 17.865513 -33.077567 18.607701 -33.284040C19.349888 -33.490513 20.145089 -33.666295 20.993304 -33.811384C23.069196 -34.157366 25.664062 -34.118304 28.777902 -33.694196C28.789062 -33.694196 28.844866 -33.677455 28.945312 -33.643973C29.068080 -33.577009 29.146205 -33.482143 29.179688 -33.359375C29.213170 -33.236607 29.196429 -33.113839 29.129464 -32.991071L25.881696 -27.215402C25.714286 -26.891741 25.452009 -26.768973 25.094866 -26.847098C23.666295 -27.114955 21.690848 -27.248884 19.168527 -27.248884C17.539062 -27.248884 15.295759 -27.000558 12.438616 -26.503906C9.581473 -26.007254 7.393973 -25.747768 5.876116 -25.725446C4.960938 -25.714286 4.129464 -25.786830 3.381696 -25.943080C2.633929 -26.099330 2.036830 -26.305804 1.590402 -26.562500C1.143973 -26.819196 0.803571 -27.042411 0.569196 -27.232143C0.334821 -27.421875 0.150670 -27.611607 0.016741 -27.801339L0.000000 -27.818080C0.000000 -27.829241 0.000000 -27.840402 0.000000 -27.851562C0.000000 -27.918527 0.033482 -27.952009 0.100446 -27.952009C1.640625 -27.952009 3.710938 -28.258929 6.311384 -28.872768C8.454241 -32.957589 10.544085 -35.881696 12.580915 -37.645089C14.617746 -39.408482 16.757812 -40.290179 19.001116 -40.290179C19.056920 -40.290179 19.137835 -40.287388 19.243862 -40.281808C19.349888 -40.276228 19.561942 -40.248326 19.880022 -40.198103C20.198103 -40.147879 20.505022 -40.080915 20.800781 -39.997210C21.096540 -39.913504 21.439732 -39.776786 21.830357 -39.587054C22.220982 -39.397321 22.572545 -39.176897 22.885045 -38.925781C23.197545 -38.674665 23.498884 -38.345424 23.789062 -37.938058C24.079241 -37.530692 24.302455 -37.070312 24.458705 -36.556920L26.166295 -39.520089C26.188616 -39.564732 26.305804 -39.801897 26.517857 -40.231585C26.729911 -40.661272 26.978237 -41.143973 27.262835 -41.679688C27.547433 -42.215402 27.887835 -42.826451 28.284040 -43.512835C28.680246 -44.199219 29.148996 -44.944196 29.690290 -45.747768C30.231585 -46.551339 30.792411 -47.315848 31.372768 -48.041295C32.109375 -48.956473 32.823661 -49.746094 33.515625 -50.410156C34.207589 -51.074219 34.885603 -51.612723 35.549665 -52.025670C36.213728 -52.438616 36.729911 -52.737165 37.098214 -52.921317C37.466518 -53.105469 37.957589 -53.325893 38.571429 -53.582589ZM38.571429 -53.582589"></path></svg>