<svg width="38.571429" height="24.411272" viewBox="0.000000 -45.839844 38.571429 24.411272" xmlns="http://www.w3.org/2000/svg"><path d="M3.214286 -30.839844C3.660714 -30.839844 3.973214 -31.018415 4.151786 -31.375558C4.330357 -31.732701 4.330357 -32.089844 4.151786 -32.446987C3.973214 -32.804129 3.660714 -32.982701 3.214286 -32.982701C2.767857 -32.982701 2.455357 -32.804129 2.276786 -32.446987C2.098214 -32.089844 2.098214 -31.732701 2.276786 -31.375558C2.455357 -31.018415 2.767857 -30.839844 3.214286 -30.839844ZM27.873884 -31.810826C27.762277 -31.955915 27.547433 -32.234933 27.229353 -32.647879C26.911272 -33.060826 26.679688 -33.362165 26.534598 -33.551897C26.389509 -33.741629 26.177455 -34.015067 25.898438 -34.372210C25.619420 -34.729353 25.382254 -35.025112 25.186942 -35.259487C24.991629 -35.493862 24.765625 -35.756138 24.508929 -36.046317C24.252232 -36.336496 24.001116 -36.609933 23.755580 -36.866629L21.662946 -34.522879C20.736607 -33.473772 19.573103 -32.960379 18.172433 -32.982701C16.771763 -33.005022 15.625000 -33.551897 14.732143 -34.623326C14.095982 -35.393415 13.780692 -36.275112 13.786272 -37.268415C13.791853 -38.261719 14.118304 -39.137835 14.765625 -39.896763L17.728795 -43.345424C17.483259 -43.468192 17.198661 -43.560268 16.875000 -43.621652C16.551339 -43.683036 16.286272 -43.716518 16.079799 -43.722098C15.873326 -43.727679 15.558036 -43.724888 15.133929 -43.713728C14.709821 -43.702567 14.436384 -43.696987 14.313616 -43.696987C13.286830 -43.696987 12.405134 -43.328683 11.668527 -42.592076L9.023438 -39.946987L6.428571 -39.946987L6.428571 -30.839844C6.484375 -30.839844 6.601562 -30.842634 6.780134 -30.848214C6.958705 -30.853795 7.081473 -30.853795 7.148438 -30.848214C7.215402 -30.842634 7.324219 -30.831473 7.474888 -30.814732C7.625558 -30.797991 7.739955 -30.772879 7.818080 -30.739397C7.896205 -30.705915 7.993862 -30.658482 8.111049 -30.597098C8.228237 -30.535714 8.331473 -30.460379 8.420759 -30.371094L13.392857 -25.482701C14.676339 -24.243862 15.943080 -23.624442 17.193080 -23.624442C18.063616 -23.624442 18.761161 -23.886719 19.285714 -24.411272C19.921875 -24.188058 20.549665 -24.232701 21.169085 -24.545201C21.788504 -24.857701 22.193080 -25.332031 22.382812 -25.968192C23.208705 -25.901228 23.917411 -26.146763 24.508929 -26.704799C24.732143 -26.905692 24.933036 -27.159598 25.111607 -27.466518C25.290179 -27.773437 25.368304 -28.055246 25.345982 -28.311942C25.457589 -28.200335 25.697545 -28.144531 26.065848 -28.144531C26.545759 -28.144531 26.975446 -28.261719 27.354911 -28.496094C27.734375 -28.730469 28.010603 -29.026228 28.183594 -29.383371C28.356585 -29.740513 28.423549 -30.139509 28.384487 -30.580357C28.345424 -31.021205 28.175223 -31.431362 27.873884 -31.810826ZM30.535714 -30.839844L32.142857 -30.839844L32.142857 -39.411272L30.585938 -39.411272L27.957589 -42.424665C27.220982 -43.272879 26.277902 -43.696987 25.128348 -43.696987L22.332589 -43.696987C21.339286 -43.696987 20.524554 -43.323103 19.888393 -42.575335L16.389509 -38.507254C16.077009 -38.138951 15.920759 -37.720424 15.920759 -37.251674C15.920759 -36.782924 16.071429 -36.364397 16.372768 -35.996094C16.852679 -35.426897 17.466518 -35.136719 18.214286 -35.125558C18.962054 -35.114397 19.581473 -35.387835 20.072545 -35.945871L23.303571 -39.595424C23.582589 -39.852121 23.881138 -39.972098 24.199219 -39.955357C24.517299 -39.938616 24.779576 -39.787946 24.986049 -39.503348C25.192522 -39.218750 25.239955 -38.903460 25.128348 -38.557478C25.306920 -38.345424 25.619420 -37.993862 26.065848 -37.502790C26.512277 -37.011719 26.847098 -36.632254 27.070312 -36.364397C27.393973 -35.962612 27.854353 -35.373884 28.451451 -34.598214C29.048549 -33.822545 29.408482 -33.351004 29.531250 -33.183594C30.111607 -32.446987 30.446429 -31.665737 30.535714 -30.839844ZM35.357143 -30.839844C35.803571 -30.839844 36.116071 -31.018415 36.294643 -31.375558C36.473214 -31.732701 36.473214 -32.089844 36.294643 -32.446987C36.116071 -32.804129 35.803571 -32.982701 35.357143 -32.982701C34.910714 -32.982701 34.598214 -32.804129 34.419643 -32.446987C34.241071 -32.089844 34.241071 -31.732701 34.419643 -31.375558C34.598214 -31.018415 34.910714 -30.839844 35.357143 -30.839844ZM38.571429 -40.482701L38.571429 -29.768415C38.571429 -29.478237 38.465402 -29.227121 38.253348 -29.015067C38.041295 -28.803013 37.790179 -28.696987 37.500000 -28.696987L30.234375 -28.696987C29.933036 -27.971540 29.475446 -27.377232 28.861607 -26.914062C28.247768 -26.450893 27.550223 -26.163504 26.768973 -26.051897C26.400670 -25.516183 25.951451 -25.061384 25.421317 -24.687500C24.891183 -24.313616 24.319196 -24.059710 23.705357 -23.925781C23.236607 -23.334263 22.653460 -22.879464 21.955915 -22.561384C21.258371 -22.243304 20.541295 -22.106585 19.804688 -22.151228C19.135045 -21.771763 18.431920 -21.551339 17.695312 -21.489955C16.958705 -21.428571 16.247210 -21.506696 15.560826 -21.724330C14.874442 -21.941964 14.221540 -22.240513 13.602121 -22.619978C12.982701 -22.999442 12.405134 -23.451451 11.869420 -23.976004L7.064732 -28.696987L1.071429 -28.696987C0.781250 -28.696987 0.530134 -28.803013 0.318080 -29.015067C0.106027 -29.227121 0.000000 -29.478237 0.000000 -29.768415L0.000000 -41.018415C0.000000 -41.308594 0.106027 -41.559710 0.318080 -41.771763C0.530134 -41.983817 0.781250 -42.089844 1.071429 -42.089844L8.119420 -42.089844C8.275670 -42.246094 8.537946 -42.513951 8.906250 -42.893415C9.274554 -43.272879 9.539621 -43.540737 9.701451 -43.696987C9.863281 -43.853237 10.108817 -44.076451 10.438058 -44.366629C10.767299 -44.656808 11.049107 -44.866071 11.283482 -44.994420C11.517857 -45.122768 11.802455 -45.265067 12.137277 -45.421317C12.472098 -45.577567 12.818080 -45.686384 13.175223 -45.747768C13.532366 -45.809152 13.911830 -45.839844 14.313616 -45.839844L16.272321 -45.839844C17.377232 -45.839844 18.387277 -45.527344 19.302455 -44.902344C20.217634 -45.527344 21.227679 -45.839844 22.332589 -45.839844L25.128348 -45.839844C25.518973 -45.839844 25.892857 -45.806362 26.250000 -45.739397C26.607143 -45.672433 26.922433 -45.591518 27.195871 -45.496652C27.469308 -45.401786 27.756696 -45.253906 28.058036 -45.053013C28.359375 -44.852121 28.607701 -44.679129 28.803013 -44.534040C28.998326 -44.388951 29.238281 -44.168527 29.522879 -43.872768C29.807478 -43.577009 30.025112 -43.342634 30.175781 -43.169643C30.326451 -42.996652 30.555246 -42.728795 30.862165 -42.366071C31.169085 -42.003348 31.400670 -41.732701 31.556920 -41.554129L37.500000 -41.554129C37.790179 -41.554129 38.041295 -41.448103 38.253348 -41.236049C38.465402 -41.023996 38.571429 -40.772879 38.571429 -40.482701ZM38.571429 -40.482701"></path></svg>