<svg width="34.285714" height="25.714286" viewBox="0.000000 -49.285714 34.285714 25.714286" xmlns="http://www.w3.org/2000/svg"><path d="M17.142857 -32.494420C17.142857 -31.780134 16.936384 -31.185826 16.523438 -30.711496C16.110491 -30.237165 15.602679 -30.000000 15.000000 -30.000000L6.428571 -30.000000C5.825893 -30.000000 5.318080 -30.237165 4.905134 -30.711496C4.492188 -31.185826 4.285714 -31.780134 4.285714 -32.494420C4.285714 -33.208705 4.335938 -33.864397 4.436384 -34.461496C4.536830 -35.058594 4.701451 -35.633371 4.930246 -36.185826C5.159040 -36.738281 5.496652 -37.173549 5.943080 -37.491629C6.389509 -37.809710 6.930804 -37.968750 7.566964 -37.968750C7.633929 -37.924107 7.801339 -37.823661 8.069196 -37.667411C8.337054 -37.511161 8.546317 -37.391183 8.696987 -37.307478C8.847656 -37.223772 9.045759 -37.126116 9.291295 -37.014509C9.536830 -36.902902 9.776786 -36.821987 10.011161 -36.771763C10.245536 -36.721540 10.479911 -36.696429 10.714286 -36.696429C10.948661 -36.696429 11.183036 -36.721540 11.417411 -36.771763C11.651786 -36.821987 11.891741 -36.902902 12.137277 -37.014509C12.382812 -37.126116 12.580915 -37.223772 12.731585 -37.307478C12.882254 -37.391183 13.091518 -37.511161 13.359375 -37.667411C13.627232 -37.823661 13.794643 -37.924107 13.861607 -37.968750C14.497768 -37.968750 15.039062 -37.809710 15.485491 -37.491629C15.931920 -37.173549 16.269531 -36.738281 16.498326 -36.185826C16.727121 -35.633371 16.891741 -35.058594 16.992188 -34.461496C17.092634 -33.864397 17.142857 -33.208705 17.142857 -32.494420ZM14.514509 -41.199777C14.514509 -40.150670 14.143415 -39.255022 13.401228 -38.512835C12.659040 -37.770647 11.763393 -37.399554 10.714286 -37.399554C9.665179 -37.399554 8.769531 -37.770647 8.027344 -38.512835C7.285156 -39.255022 6.914062 -40.150670 6.914062 -41.199777C6.914062 -42.248884 7.285156 -43.144531 8.027344 -43.886719C8.769531 -44.628906 9.665179 -45.000000 10.714286 -45.000000C11.763393 -45.000000 12.659040 -44.628906 13.401228 -43.886719C14.143415 -43.144531 14.514509 -42.248884 14.514509 -41.199777ZM30.000000 -33.750000L30.000000 -32.678571C30.000000 -32.522321 29.949777 -32.393973 29.849330 -32.293527C29.748884 -32.193080 29.620536 -32.142857 29.464286 -32.142857L19.821429 -32.142857C19.665179 -32.142857 19.536830 -32.193080 19.436384 -32.293527C19.335938 -32.393973 19.285714 -32.522321 19.285714 -32.678571L19.285714 -33.750000C19.285714 -33.906250 19.335938 -34.034598 19.436384 -34.135045C19.536830 -34.235491 19.665179 -34.285714 19.821429 -34.285714L29.464286 -34.285714C29.620536 -34.285714 29.748884 -34.235491 29.849330 -34.135045C29.949777 -34.034598 30.000000 -33.906250 30.000000 -33.750000ZM30.000000 -37.968750L30.000000 -37.031250C30.000000 -36.863839 29.941406 -36.721540 29.824219 -36.604353C29.707031 -36.487165 29.564732 -36.428571 29.397321 -36.428571L19.888393 -36.428571C19.720982 -36.428571 19.578683 -36.487165 19.461496 -36.604353C19.344308 -36.721540 19.285714 -36.863839 19.285714 -37.031250L19.285714 -37.968750C19.285714 -38.136161 19.344308 -38.278460 19.461496 -38.395647C19.578683 -38.512835 19.720982 -38.571429 19.888393 -38.571429L29.397321 -38.571429C29.564732 -38.571429 29.707031 -38.512835 29.824219 -38.395647C29.941406 -38.278460 30.000000 -38.136161 30.000000 -37.968750ZM30.000000 -42.321429L30.000000 -41.250000C30.000000 -41.093750 29.949777 -40.965402 29.849330 -40.864955C29.748884 -40.764509 29.620536 -40.714286 29.464286 -40.714286L19.821429 -40.714286C19.665179 -40.714286 19.536830 -40.764509 19.436384 -40.864955C19.335938 -40.965402 19.285714 -41.093750 19.285714 -41.250000L19.285714 -42.321429C19.285714 -42.477679 19.335938 -42.606027 19.436384 -42.706473C19.536830 -42.806920 19.665179 -42.857143 19.821429 -42.857143L29.464286 -42.857143C29.620536 -42.857143 29.748884 -42.806920 29.849330 -42.706473C29.949777 -42.606027 30.000000 -42.477679 30.000000 -42.321429ZM32.142857 -26.250000L32.142857 -46.607143C32.142857 -46.752232 32.089844 -46.877790 31.983817 -46.983817C31.877790 -47.089844 31.752232 -47.142857 31.607143 -47.142857L2.678571 -47.142857C2.533482 -47.142857 2.407924 -47.089844 2.301897 -46.983817C2.195871 -46.877790 2.142857 -46.752232 2.142857 -46.607143L2.142857 -26.250000C2.142857 -26.104911 2.195871 -25.979353 2.301897 -25.873326C2.407924 -25.767299 2.533482 -25.714286 2.678571 -25.714286L8.571429 -25.714286L8.571429 -27.321429C8.571429 -27.477679 8.621652 -27.606027 8.722098 -27.706473C8.822545 -27.806920 8.950893 -27.857143 9.107143 -27.857143L10.178571 -27.857143C10.334821 -27.857143 10.463170 -27.806920 10.563616 -27.706473C10.664062 -27.606027 10.714286 -27.477679 10.714286 -27.321429L10.714286 -25.714286L23.571429 -25.714286L23.571429 -27.321429C23.571429 -27.477679 23.621652 -27.606027 23.722098 -27.706473C23.822545 -27.806920 23.950893 -27.857143 24.107143 -27.857143L25.178571 -27.857143C25.334821 -27.857143 25.463170 -27.806920 25.563616 -27.706473C25.664062 -27.606027 25.714286 -27.477679 25.714286 -27.321429L25.714286 -25.714286L31.607143 -25.714286C31.752232 -25.714286 31.877790 -25.767299 31.983817 -25.873326C32.089844 -25.979353 32.142857 -26.104911 32.142857 -26.250000ZM34.285714 -46.607143L34.285714 -26.250000C34.285714 -25.513393 34.023438 -24.882812 33.498884 -24.358259C32.974330 -23.833705 32.343750 -23.571429 31.607143 -23.571429L2.678571 -23.571429C1.941964 -23.571429 1.311384 -23.833705 0.786830 -24.358259C0.262277 -24.882812 0.000000 -25.513393 0.000000 -26.250000L0.000000 -46.607143C0.000000 -47.343750 0.262277 -47.974330 0.786830 -48.498884C1.311384 -49.023438 1.941964 -49.285714 2.678571 -49.285714L31.607143 -49.285714C32.343750 -49.285714 32.974330 -49.023438 33.498884 -48.498884C34.023438 -47.974330 34.285714 -47.343750 34.285714 -46.607143ZM34.285714 -46.607143"></path></svg>