<svg width="17.142857" height="30.000000" viewBox="0.000000 -55.714286 17.142857 30.000000" xmlns="http://www.w3.org/2000/svg"><path d="M10.714286 -33.214286C10.714286 -32.321429 10.401786 -31.562500 9.776786 -30.937500C9.151786 -30.312500 8.392857 -30.000000 7.500000 -30.000000C6.607143 -30.000000 5.848214 -30.312500 5.223214 -30.937500C4.598214 -31.562500 4.285714 -32.321429 4.285714 -33.214286C4.285714 -33.883929 4.481027 -34.497768 4.871652 -35.055804C5.262277 -35.613839 5.781250 -36.010045 6.428571 -36.244420L6.428571 -47.142857L8.571429 -47.142857L8.571429 -36.244420C9.218750 -36.010045 9.737723 -35.613839 10.128348 -35.055804C10.518973 -34.497768 10.714286 -33.883929 10.714286 -33.214286ZM12.857143 -33.214286C12.857143 -34.073661 12.667411 -34.877232 12.287946 -35.625000C11.908482 -36.372768 11.383929 -36.997768 10.714286 -37.500000L10.714286 -50.357143C10.714286 -51.250000 10.401786 -52.008929 9.776786 -52.633929C9.151786 -53.258929 8.392857 -53.571429 7.500000 -53.571429C6.607143 -53.571429 5.848214 -53.258929 5.223214 -52.633929C4.598214 -52.008929 4.285714 -51.250000 4.285714 -50.357143L4.285714 -37.500000C3.616071 -36.997768 3.091518 -36.372768 2.712054 -35.625000C2.332589 -34.877232 2.142857 -34.073661 2.142857 -33.214286C2.142857 -31.729911 2.664621 -30.465960 3.708147 -29.422433C4.751674 -28.378906 6.015625 -27.857143 7.500000 -27.857143C8.984375 -27.857143 10.248326 -28.378906 11.291853 -29.422433C12.335379 -30.465960 12.857143 -31.729911 12.857143 -33.214286ZM15.000000 -33.214286C15.000000 -31.149554 14.266183 -29.383371 12.798549 -27.915737C11.330915 -26.448103 9.564732 -25.714286 7.500000 -25.714286C5.435268 -25.714286 3.669085 -26.448103 2.201451 -27.915737C0.733817 -29.383371 0.000000 -31.149554 0.000000 -33.214286C0.000000 -35.245536 0.714286 -36.992188 2.142857 -38.454241L2.142857 -50.357143C2.142857 -51.841518 2.664621 -53.105469 3.708147 -54.148996C4.751674 -55.192522 6.015625 -55.714286 7.500000 -55.714286C8.984375 -55.714286 10.248326 -55.192522 11.291853 -54.148996C12.335379 -53.105469 12.857143 -51.841518 12.857143 -50.357143L12.857143 -38.454241C14.285714 -36.992188 15.000000 -35.245536 15.000000 -33.214286ZM17.142857 -42.857143L17.142857 -40.714286L13.928571 -40.714286L13.928571 -42.857143ZM17.142857 -47.142857L17.142857 -45.000000L13.928571 -45.000000L13.928571 -47.142857ZM17.142857 -51.428571L17.142857 -49.285714L13.928571 -49.285714L13.928571 -51.428571ZM17.142857 -51.428571"></path></svg>