<svg width="30.000000" height="25.714286" viewBox="0.000000 -49.285714 30.000000 25.714286" xmlns="http://www.w3.org/2000/svg"><path d="M4.285714 -27.857143L25.714286 -27.857143L25.714286 -40.714286L4.285714 -40.714286ZM30.000000 -46.607143L30.000000 -26.250000C30.000000 -25.513393 29.737723 -24.882812 29.213170 -24.358259C28.688616 -23.833705 28.058036 -23.571429 27.321429 -23.571429L2.678571 -23.571429C1.941964 -23.571429 1.311384 -23.833705 0.786830 -24.358259C0.262277 -24.882812 0.000000 -25.513393 0.000000 -26.250000L0.000000 -46.607143C0.000000 -47.343750 0.262277 -47.974330 0.786830 -48.498884C1.311384 -49.023438 1.941964 -49.285714 2.678571 -49.285714L27.321429 -49.285714C28.058036 -49.285714 28.688616 -49.023438 29.213170 -48.498884C29.737723 -47.974330 30.000000 -47.343750 30.000000 -46.607143ZM30.000000 -46.607143"></path></svg>