<svg width="30.000000" height="8.571429" viewBox="0.000000 -15.000000 30.000000 8.571429" xmlns="http://www.w3.org/2000/svg"><path d="M30.000000 -12.321429L30.000000 -9.107143C30.000000 -8.370536 29.737723 -7.739955 29.213170 -7.215402C28.688616 -6.690848 28.058036 -6.428571 27.321429 -6.428571L2.678571 -6.428571C1.941964 -6.428571 1.311384 -6.690848 0.786830 -7.215402C0.262277 -7.739955 0.000000 -8.370536 0.000000 -9.107143L0.000000 -12.321429C0.000000 -13.058036 0.262277 -13.688616 0.786830 -14.213170C1.311384 -14.737723 1.941964 -15.000000 2.678571 -15.000000L27.321429 -15.000000C28.058036 -15.000000 28.688616 -14.737723 29.213170 -14.213170C29.737723 -13.688616 30.000000 -13.058036 30.000000 -12.321429ZM30.000000 -12.321429"></path></svg>