<svg width="30.000000" height="30.000000" viewBox="0.000000 -55.714286 30.000000 30.000000" xmlns="http://www.w3.org/2000/svg"><path d="M15.870536 -38.504464L18.599330 -32.996652L17.745536 -32.996652L14.815848 -38.856027L11.953125 -32.996652L11.132812 -32.996652L14.129464 -39.257812L12.823661 -39.810268L13.175223 -40.630580L17.193080 -38.922991L16.841518 -38.085938ZM9.425223 -48.415179L14.514509 -46.238839L12.338170 -41.149554L7.248884 -43.325893ZM15.184152 -45.318080L19.202009 -43.593750L17.477679 -39.592634L13.476562 -41.300223ZM19.888393 -42.806920L23.085938 -41.450893L21.713170 -38.270089L18.532366 -39.626116ZM28.125000 -40.714286C28.125000 -42.488839 27.779018 -44.185268 27.087054 -45.803571C26.395089 -47.421875 25.460379 -48.819754 24.282924 -49.997210C23.105469 -51.174665 21.707589 -52.109375 20.089286 -52.801339C18.470982 -53.493304 16.774554 -53.839286 15.000000 -53.839286C13.225446 -53.839286 11.529018 -53.493304 9.910714 -52.801339C8.292411 -52.109375 6.894531 -51.174665 5.717076 -49.997210C4.539621 -48.819754 3.604911 -47.421875 2.912946 -45.803571C2.220982 -44.185268 1.875000 -42.488839 1.875000 -40.714286C1.875000 -38.939732 2.220982 -37.243304 2.912946 -35.625000C3.604911 -34.006696 4.539621 -32.608817 5.717076 -31.431362C6.894531 -30.253906 8.292411 -29.319196 9.910714 -28.627232C11.529018 -27.935268 13.225446 -27.589286 15.000000 -27.589286C16.774554 -27.589286 18.470982 -27.935268 20.089286 -28.627232C21.707589 -29.319196 23.105469 -30.253906 24.282924 -31.431362C25.460379 -32.608817 26.395089 -34.006696 27.087054 -35.625000C27.779018 -37.243304 28.125000 -38.939732 28.125000 -40.714286ZM30.000000 -40.714286C30.000000 -38.683036 29.603795 -36.741071 28.811384 -34.888393C28.018973 -33.035714 26.953125 -31.439732 25.613839 -30.100446C24.274554 -28.761161 22.678571 -27.695312 20.825893 -26.902902C18.973214 -26.110491 17.031250 -25.714286 15.000000 -25.714286C12.968750 -25.714286 11.026786 -26.110491 9.174107 -26.902902C7.321429 -27.695312 5.725446 -28.761161 4.386161 -30.100446C3.046875 -31.439732 1.981027 -33.035714 1.188616 -34.888393C0.396205 -36.741071 0.000000 -38.683036 0.000000 -40.714286C0.000000 -42.745536 0.396205 -44.687500 1.188616 -46.540179C1.981027 -48.392857 3.046875 -49.988839 4.386161 -51.328125C5.725446 -52.667411 7.321429 -53.733259 9.174107 -54.525670C11.026786 -55.318080 12.968750 -55.714286 15.000000 -55.714286C17.031250 -55.714286 18.973214 -55.318080 20.825893 -54.525670C22.678571 -53.733259 24.274554 -52.667411 25.613839 -51.328125C26.953125 -49.988839 28.018973 -48.392857 28.811384 -46.540179C29.603795 -44.687500 30.000000 -42.745536 30.000000 -40.714286ZM30.000000 -40.714286"></path></svg>