<svg width="14.464286" height="27.857143" viewBox="1.590402 -53.571429 14.464286 27.857143" xmlns="http://www.w3.org/2000/svg"><path d="M16.054688 -53.370536L16.054688 -48.950893L13.426339 -48.950893C12.466518 -48.950893 11.819196 -48.750000 11.484375 -48.348214C11.149554 -47.946429 10.982143 -47.343750 10.982143 -46.540179L10.982143 -43.376116L15.887277 -43.376116L15.234375 -38.420759L10.982143 -38.420759L10.982143 -25.714286L5.859375 -25.714286L5.859375 -38.420759L1.590402 -38.420759L1.590402 -43.376116L5.859375 -43.376116L5.859375 -47.025670C5.859375 -49.101562 6.439732 -50.711496 7.600446 -51.855469C8.761161 -52.999442 10.306920 -53.571429 12.237723 -53.571429C13.878348 -53.571429 15.150670 -53.504464 16.054688 -53.370536ZM16.054688 -53.370536"></path></svg>