<svg width="32.142857" height="19.285714" viewBox="0.000000 -38.571429 32.142857 19.285714" xmlns="http://www.w3.org/2000/svg"><path d="M32.142857 -28.928571C32.131696 -28.571429 30.524554 -28.035714 27.321429 -27.321429L21.428571 -26.785714L17.678571 -25.714286L16.607143 -25.714286L11.702009 -19.821429L12.857143 -19.821429C13.147321 -19.821429 13.398438 -19.796317 13.610491 -19.746094C13.822545 -19.695871 13.928571 -19.631696 13.928571 -19.553571C13.928571 -19.475446 13.822545 -19.411272 13.610491 -19.361049C13.398438 -19.310826 13.147321 -19.285714 12.857143 -19.285714L11.250000 -19.285714L8.571429 -19.285714L7.500000 -19.285714L7.500000 -19.821429L8.571429 -19.821429L8.571429 -26.785714L5.892857 -26.785714L2.678571 -23.035714L1.071429 -23.035714L0.535714 -23.571429L0.535714 -26.785714L1.071429 -26.785714L1.071429 -27.321429L3.214286 -27.321429L3.214286 -27.455357L0.000000 -27.857143L0.000000 -30.000000L3.214286 -30.401786L3.214286 -30.535714L1.071429 -30.535714L1.071429 -31.071429L0.535714 -31.071429L0.535714 -34.285714L1.071429 -34.821429L2.678571 -34.821429L5.892857 -31.071429L8.571429 -31.071429L8.571429 -38.035714L7.500000 -38.035714L7.500000 -38.571429L8.571429 -38.571429L11.250000 -38.571429L12.857143 -38.571429C13.147321 -38.571429 13.398438 -38.546317 13.610491 -38.496094C13.822545 -38.445871 13.928571 -38.381696 13.928571 -38.303571C13.928571 -38.225446 13.822545 -38.161272 13.610491 -38.111049C13.398438 -38.060826 13.147321 -38.035714 12.857143 -38.035714L11.702009 -38.035714L16.607143 -32.142857L17.678571 -32.142857L21.428571 -31.071429L27.321429 -30.535714C28.750000 -30.223214 29.866071 -29.933036 30.669643 -29.665179C31.473214 -29.397321 31.919643 -29.207589 32.008929 -29.095982ZM32.142857 -28.928571"></path></svg>