<svg width="30.000000" height="30.000000" viewBox="0.000000 -55.714286 30.000000 30.000000" xmlns="http://www.w3.org/2000/svg"><path d="M28.392857 -49.285714C28.839286 -49.285714 29.218750 -49.129464 29.531250 -48.816964C29.843750 -48.504464 30.000000 -48.125000 30.000000 -47.678571L30.000000 -27.321429C30.000000 -26.875000 29.843750 -26.495536 29.531250 -26.183036C29.218750 -25.870536 28.839286 -25.714286 28.392857 -25.714286L12.321429 -25.714286C11.875000 -25.714286 11.495536 -25.870536 11.183036 -26.183036C10.870536 -26.495536 10.714286 -26.875000 10.714286 -27.321429L10.714286 -32.142857L1.607143 -32.142857C1.160714 -32.142857 0.781250 -32.299107 0.468750 -32.611607C0.156250 -32.924107 0.000000 -33.303571 0.000000 -33.750000L0.000000 -45.000000C0.000000 -45.446429 0.111607 -45.937500 0.334821 -46.473214C0.558036 -47.008929 0.825893 -47.433036 1.138393 -47.745536L7.968750 -54.575893C8.281250 -54.888393 8.705357 -55.156250 9.241071 -55.379464C9.776786 -55.602679 10.267857 -55.714286 10.714286 -55.714286L17.678571 -55.714286C18.125000 -55.714286 18.504464 -55.558036 18.816964 -55.245536C19.129464 -54.933036 19.285714 -54.553571 19.285714 -54.107143L19.285714 -48.616071C20.044643 -49.062500 20.758929 -49.285714 21.428571 -49.285714ZM19.285714 -45.719866L14.280134 -40.714286L19.285714 -40.714286ZM8.571429 -52.148438L3.565848 -47.142857L8.571429 -47.142857ZM11.852679 -41.316964L17.142857 -46.607143L17.142857 -53.571429L10.714286 -53.571429L10.714286 -46.607143C10.714286 -46.160714 10.558036 -45.781250 10.245536 -45.468750C9.933036 -45.156250 9.553571 -45.000000 9.107143 -45.000000L2.142857 -45.000000L2.142857 -34.285714L10.714286 -34.285714L10.714286 -38.571429C10.714286 -39.017857 10.825893 -39.508929 11.049107 -40.044643C11.272321 -40.580357 11.540179 -41.004464 11.852679 -41.316964ZM27.857143 -27.857143L27.857143 -47.142857L21.428571 -47.142857L21.428571 -40.178571C21.428571 -39.732143 21.272321 -39.352679 20.959821 -39.040179C20.647321 -38.727679 20.267857 -38.571429 19.821429 -38.571429L12.857143 -38.571429L12.857143 -27.857143ZM27.857143 -27.857143"></path></svg>