<svg width="23.783482" height="23.571429" viewBox="-0.106027 -45.000000 23.783482 23.571429" xmlns="http://www.w3.org/2000/svg"><path d="M23.487723 -44.347098C23.677455 -43.889509 23.599330 -43.498884 23.253348 -43.175223L15.000000 -34.921875L15.000000 -22.500000C15.000000 -22.031250 14.782366 -21.702009 14.347098 -21.512277C14.202009 -21.456473 14.062500 -21.428571 13.928571 -21.428571C13.627232 -21.428571 13.376116 -21.534598 13.175223 -21.746652L8.889509 -26.032366C8.677455 -26.244420 8.571429 -26.495536 8.571429 -26.785714L8.571429 -34.921875L0.318080 -43.175223C-0.027902 -43.498884 -0.106027 -43.889509 0.083705 -44.347098C0.273437 -44.782366 0.602679 -45.000000 1.071429 -45.000000L22.500000 -45.000000C22.968750 -45.000000 23.297991 -44.782366 23.487723 -44.347098ZM23.487723 -44.347098"></path></svg>