<svg width="23.607701" height="27.321429" viewBox="-0.036272 -52.500000 23.607701 27.321429" xmlns="http://www.w3.org/2000/svg"><path d="M8.571429 -49.821429C8.571429 -50.111607 8.465402 -50.362723 8.253348 -50.574777C8.041295 -50.786830 7.790179 -50.892857 7.500000 -50.892857C7.209821 -50.892857 6.958705 -50.786830 6.746652 -50.574777C6.534598 -50.362723 6.428571 -50.111607 6.428571 -49.821429C6.428571 -49.531250 6.534598 -49.280134 6.746652 -49.068080C6.958705 -48.856027 7.209821 -48.750000 7.500000 -48.750000C7.790179 -48.750000 8.041295 -48.856027 8.253348 -49.068080C8.465402 -49.280134 8.571429 -49.531250 8.571429 -49.821429ZM23.571429 -50.357143L23.571429 -45.000000C23.571429 -44.821429 23.504464 -44.681920 23.370536 -44.581473C23.281250 -44.503348 23.169643 -44.464286 23.035714 -44.464286C22.991071 -44.464286 22.952009 -44.469866 22.918527 -44.481027L15.418527 -46.088170C15.295759 -46.110491 15.195312 -46.171875 15.117188 -46.272321C15.039062 -46.372768 15.000000 -46.484375 15.000000 -46.607143L10.714286 -46.607143L10.714286 -44.899554C11.953125 -44.642857 12.977121 -44.023438 13.786272 -43.041295C14.595424 -42.059152 15.000000 -40.926339 15.000000 -39.642857L15.000000 -26.250000C15.000000 -25.959821 14.893973 -25.708705 14.681920 -25.496652C14.469866 -25.284598 14.218750 -25.178571 13.928571 -25.178571L5.357143 -25.178571C5.066964 -25.178571 4.815848 -25.284598 4.603795 -25.496652C4.391741 -25.708705 4.285714 -25.959821 4.285714 -26.250000L4.285714 -39.642857C4.285714 -40.825893 4.634487 -41.888951 5.332031 -42.832031C6.029576 -43.775112 6.930804 -44.414062 8.035714 -44.748884L8.035714 -46.607143L7.500000 -46.607143C6.841518 -46.607143 6.199777 -46.476004 5.574777 -46.213728C4.949777 -45.951451 4.439174 -45.655692 4.042969 -45.326451C3.646763 -44.997210 3.278460 -44.626116 2.938058 -44.213170C2.597656 -43.800223 2.371652 -43.501674 2.260045 -43.317522C2.148438 -43.133371 2.070312 -42.996652 2.025670 -42.907366C1.835938 -42.516741 1.517857 -42.321429 1.071429 -42.321429C0.892857 -42.321429 0.731027 -42.360491 0.585938 -42.438616C0.329241 -42.572545 0.153460 -42.779018 0.058594 -43.058036C-0.036272 -43.337054 -0.016741 -43.610491 0.117188 -43.878348C0.172991 -43.989955 0.253906 -44.135045 0.359933 -44.313616C0.465960 -44.492188 0.675223 -44.790737 0.987723 -45.209263C1.300223 -45.627790 1.637835 -46.018415 2.000558 -46.381138C2.363281 -46.743862 2.837612 -47.117746 3.423549 -47.502790C4.009487 -47.887835 4.614955 -48.180804 5.239955 -48.381696C4.960938 -48.850446 4.821429 -49.330357 4.821429 -49.821429C4.821429 -50.558036 5.083705 -51.188616 5.608259 -51.713170C6.132812 -52.237723 6.763393 -52.500000 7.500000 -52.500000C8.236607 -52.500000 8.867188 -52.237723 9.391741 -51.713170C9.916295 -51.188616 10.178571 -50.558036 10.178571 -49.821429C10.178571 -49.453125 10.100446 -49.095982 9.944196 -48.750000L15.000000 -48.750000C15.000000 -48.872768 15.039062 -48.984375 15.117188 -49.084821C15.195312 -49.185268 15.295759 -49.246652 15.418527 -49.268973L22.918527 -50.876116C22.952009 -50.887277 22.991071 -50.892857 23.035714 -50.892857C23.169643 -50.892857 23.281250 -50.853795 23.370536 -50.775670C23.504464 -50.675223 23.571429 -50.535714 23.571429 -50.357143ZM23.571429 -50.357143"></path></svg>