<svg width="24.760045" height="25.714286" viewBox="1.548549 -49.285714 24.760045 25.714286" xmlns="http://www.w3.org/2000/svg"><path d="M25.563616 -27.187500C26.188616 -26.194196 26.308594 -25.343192 25.923549 -24.634487C25.538504 -23.925781 24.754464 -23.571429 23.571429 -23.571429L4.285714 -23.571429C3.102679 -23.571429 2.318638 -23.925781 1.933594 -24.634487C1.548549 -25.343192 1.668527 -26.194196 2.293527 -27.187500L10.714286 -40.463170L10.714286 -47.142857L9.642857 -47.142857C9.352679 -47.142857 9.101562 -47.248884 8.889509 -47.460938C8.677455 -47.672991 8.571429 -47.924107 8.571429 -48.214286C8.571429 -48.504464 8.677455 -48.755580 8.889509 -48.967634C9.101562 -49.179688 9.352679 -49.285714 9.642857 -49.285714L18.214286 -49.285714C18.504464 -49.285714 18.755580 -49.179688 18.967634 -48.967634C19.179688 -48.755580 19.285714 -48.504464 19.285714 -48.214286C19.285714 -47.924107 19.179688 -47.672991 18.967634 -47.460938C18.755580 -47.248884 18.504464 -47.142857 18.214286 -47.142857L17.142857 -47.142857L17.142857 -40.463170ZM12.522321 -39.324777L7.968750 -32.142857L19.888393 -32.142857L15.334821 -39.324777L15.000000 -39.843750L15.000000 -40.463170L15.000000 -47.142857L12.857143 -47.142857L12.857143 -40.463170L12.857143 -39.843750ZM12.522321 -39.324777"></path></svg>