<svg width="25.714286" height="25.714286" viewBox="0.000000 -49.285714 25.714286 25.714286" xmlns="http://www.w3.org/2000/svg"><path d="M20.892857 -49.285714C22.220982 -49.285714 23.356585 -48.814174 24.299665 -47.871094C25.242746 -46.928013 25.714286 -45.792411 25.714286 -44.464286L25.714286 -28.392857C25.714286 -27.064732 25.242746 -25.929129 24.299665 -24.986049C23.356585 -24.042969 22.220982 -23.571429 20.892857 -23.571429L4.821429 -23.571429C3.493304 -23.571429 2.357701 -24.042969 1.414621 -24.986049C0.471540 -25.929129 0.000000 -27.064732 0.000000 -28.392857L0.000000 -44.464286C0.000000 -45.792411 0.471540 -46.928013 1.414621 -47.871094C2.357701 -48.814174 3.493304 -49.285714 4.821429 -49.285714ZM11.685268 -36.428571C11.685268 -37.410714 11.339286 -38.247768 10.647321 -38.939732C9.955357 -39.631696 9.118304 -39.977679 8.136161 -39.977679C7.154018 -39.977679 6.316964 -39.631696 5.625000 -38.939732C4.933036 -38.247768 4.587054 -37.410714 4.587054 -36.428571C4.587054 -35.446429 4.933036 -34.609375 5.625000 -33.917411C6.316964 -33.225446 7.154018 -32.879464 8.136161 -32.879464C9.118304 -32.879464 9.955357 -33.225446 10.647321 -33.917411C11.339286 -34.609375 11.685268 -35.446429 11.685268 -36.428571ZM21.127232 -36.428571C21.127232 -37.410714 20.781250 -38.247768 20.089286 -38.939732C19.397321 -39.631696 18.560268 -39.977679 17.578125 -39.977679C16.595982 -39.977679 15.758929 -39.631696 15.066964 -38.939732C14.375000 -38.247768 14.029018 -37.410714 14.029018 -36.428571C14.029018 -35.446429 14.375000 -34.609375 15.066964 -33.917411C15.758929 -33.225446 16.595982 -32.879464 17.578125 -32.879464C18.560268 -32.879464 19.397321 -33.225446 20.089286 -33.917411C20.781250 -34.609375 21.127232 -35.446429 21.127232 -36.428571ZM21.127232 -36.428571"></path></svg>