<svg width="25.814732" height="25.848214" viewBox="0.000000 -49.486607 25.814732 25.848214" xmlns="http://www.w3.org/2000/svg"><path d="M0.753348 -23.922991C0.541295 -23.710938 0.362723 -23.638393 0.217634 -23.705357C0.072545 -23.772321 0.000000 -23.950893 0.000000 -24.241071L0.000000 -48.883929C0.000000 -49.174107 0.072545 -49.352679 0.217634 -49.419643C0.362723 -49.486607 0.541295 -49.414062 0.753348 -49.202009L12.639509 -37.315848C12.739955 -37.215402 12.812500 -37.109375 12.857143 -36.997768L12.857143 -48.883929C12.857143 -49.174107 12.929688 -49.352679 13.074777 -49.419643C13.219866 -49.486607 13.398438 -49.414062 13.610491 -49.202009L25.496652 -37.315848C25.708705 -37.103795 25.814732 -36.852679 25.814732 -36.562500C25.814732 -36.272321 25.708705 -36.021205 25.496652 -35.809152L13.610491 -23.922991C13.398438 -23.710938 13.219866 -23.638393 13.074777 -23.705357C12.929688 -23.772321 12.857143 -23.950893 12.857143 -24.241071L12.857143 -36.127232C12.812500 -36.015625 12.739955 -35.909598 12.639509 -35.809152ZM0.753348 -23.922991"></path></svg>