<svg width="32.142857" height="17.142857" viewBox="0.000000 -34.285714 32.142857 17.142857" xmlns="http://www.w3.org/2000/svg"><path d="M13.928571 -24.642857L13.928571 -26.785714C13.928571 -26.941964 13.878348 -27.070312 13.777902 -27.170759C13.677455 -27.271205 13.549107 -27.321429 13.392857 -27.321429L10.178571 -27.321429L10.178571 -30.535714C10.178571 -30.691964 10.128348 -30.820312 10.027902 -30.920759C9.927455 -31.021205 9.799107 -31.071429 9.642857 -31.071429L7.500000 -31.071429C7.343750 -31.071429 7.215402 -31.021205 7.114955 -30.920759C7.014509 -30.820312 6.964286 -30.691964 6.964286 -30.535714L6.964286 -27.321429L3.750000 -27.321429C3.593750 -27.321429 3.465402 -27.271205 3.364955 -27.170759C3.264509 -27.070312 3.214286 -26.941964 3.214286 -26.785714L3.214286 -24.642857C3.214286 -24.486607 3.264509 -24.358259 3.364955 -24.257812C3.465402 -24.157366 3.593750 -24.107143 3.750000 -24.107143L6.964286 -24.107143L6.964286 -20.892857C6.964286 -20.736607 7.014509 -20.608259 7.114955 -20.507812C7.215402 -20.407366 7.343750 -20.357143 7.500000 -20.357143L9.642857 -20.357143C9.799107 -20.357143 9.927455 -20.407366 10.027902 -20.507812C10.128348 -20.608259 10.178571 -20.736607 10.178571 -20.892857L10.178571 -24.107143L13.392857 -24.107143C13.549107 -24.107143 13.677455 -24.157366 13.777902 -24.257812C13.878348 -24.358259 13.928571 -24.486607 13.928571 -24.642857ZM23.571429 -23.571429C23.571429 -24.162946 23.362165 -24.667969 22.943638 -25.086496C22.525112 -25.505022 22.020089 -25.714286 21.428571 -25.714286C20.837054 -25.714286 20.332031 -25.505022 19.913504 -25.086496C19.494978 -24.667969 19.285714 -24.162946 19.285714 -23.571429C19.285714 -22.979911 19.494978 -22.474888 19.913504 -22.056362C20.332031 -21.637835 20.837054 -21.428571 21.428571 -21.428571C22.020089 -21.428571 22.525112 -21.637835 22.943638 -22.056362C23.362165 -22.474888 23.571429 -22.979911 23.571429 -23.571429ZM27.857143 -27.857143C27.857143 -28.448661 27.647879 -28.953683 27.229353 -29.372210C26.810826 -29.790737 26.305804 -30.000000 25.714286 -30.000000C25.122768 -30.000000 24.617746 -29.790737 24.199219 -29.372210C23.780692 -28.953683 23.571429 -28.448661 23.571429 -27.857143C23.571429 -27.265625 23.780692 -26.760603 24.199219 -26.342076C24.617746 -25.923549 25.122768 -25.714286 25.714286 -25.714286C26.305804 -25.714286 26.810826 -25.923549 27.229353 -26.342076C27.647879 -26.760603 27.857143 -27.265625 27.857143 -27.857143ZM32.142857 -25.714286C32.142857 -23.348214 31.305804 -21.328125 29.631696 -19.654018C27.957589 -17.979911 25.937500 -17.142857 23.571429 -17.142857C21.428571 -17.142857 19.542411 -17.857143 17.912946 -19.285714L14.229911 -19.285714C12.600446 -17.857143 10.714286 -17.142857 8.571429 -17.142857C6.205357 -17.142857 4.185268 -17.979911 2.511161 -19.654018C0.837054 -21.328125 0.000000 -23.348214 0.000000 -25.714286C0.000000 -28.080357 0.837054 -30.100446 2.511161 -31.774554C4.185268 -33.448661 6.205357 -34.285714 8.571429 -34.285714L23.571429 -34.285714C25.937500 -34.285714 27.957589 -33.448661 29.631696 -31.774554C31.305804 -30.100446 32.142857 -28.080357 32.142857 -25.714286ZM32.142857 -25.714286"></path></svg>