<svg width="32.142857" height="29.481027" viewBox="0.000000 -54.927455 32.142857 29.481027" xmlns="http://www.w3.org/2000/svg"><path d="M15.000000 -40.195312C15.000000 -41.378348 14.581473 -42.388393 13.744420 -43.225446C12.907366 -44.062500 11.897321 -44.481027 10.714286 -44.481027C9.531250 -44.481027 8.521205 -44.062500 7.684152 -43.225446C6.847098 -42.388393 6.428571 -41.378348 6.428571 -40.195312C6.428571 -39.012277 6.847098 -38.002232 7.684152 -37.165179C8.521205 -36.328125 9.531250 -35.909598 10.714286 -35.909598C11.897321 -35.909598 12.907366 -36.328125 13.744420 -37.165179C14.581473 -38.002232 15.000000 -39.012277 15.000000 -40.195312ZM27.857143 -31.623884C27.857143 -32.204241 27.645089 -32.706473 27.220982 -33.130580C26.796875 -33.554688 26.294643 -33.766741 25.714286 -33.766741C25.133929 -33.766741 24.631696 -33.554688 24.207589 -33.130580C23.783482 -32.706473 23.571429 -32.204241 23.571429 -31.623884C23.571429 -31.032366 23.780692 -30.527344 24.199219 -30.108817C24.617746 -29.690290 25.122768 -29.481027 25.714286 -29.481027C26.305804 -29.481027 26.810826 -29.690290 27.229353 -30.108817C27.647879 -30.527344 27.857143 -31.032366 27.857143 -31.623884ZM27.857143 -48.766741C27.857143 -49.347098 27.645089 -49.849330 27.220982 -50.273438C26.796875 -50.697545 26.294643 -50.909598 25.714286 -50.909598C25.133929 -50.909598 24.631696 -50.697545 24.207589 -50.273438C23.783482 -49.849330 23.571429 -49.347098 23.571429 -48.766741C23.571429 -48.175223 23.780692 -47.670201 24.199219 -47.251674C24.617746 -46.833147 25.122768 -46.623884 25.714286 -46.623884C26.305804 -46.623884 26.810826 -46.833147 27.229353 -47.251674C27.647879 -47.670201 27.857143 -48.175223 27.857143 -48.766741ZM21.428571 -41.718750L21.428571 -38.621652C21.428571 -38.510045 21.389509 -38.401228 21.311384 -38.295201C21.233259 -38.189174 21.143973 -38.130580 21.043527 -38.119420L18.448661 -37.717634C18.325893 -37.327009 18.147321 -36.902902 17.912946 -36.445312C18.292411 -35.909598 18.794643 -35.267857 19.419643 -34.520089C19.497768 -34.397321 19.536830 -34.285714 19.536830 -34.185268C19.536830 -34.051339 19.497768 -33.945312 19.419643 -33.867188C19.162946 -33.532366 18.702567 -33.032924 18.038504 -32.368862C17.374442 -31.704799 16.936384 -31.372768 16.724330 -31.372768C16.601562 -31.372768 16.484375 -31.411830 16.372768 -31.489955L14.447545 -32.996652C14.034598 -32.784598 13.604911 -32.611607 13.158482 -32.477679C13.035714 -31.272321 12.907366 -30.407366 12.773438 -29.882812C12.695312 -29.614955 12.527902 -29.481027 12.271205 -29.481027L9.157366 -29.481027C9.034598 -29.481027 8.922991 -29.522879 8.822545 -29.606585C8.722098 -29.690290 8.666295 -29.787946 8.655134 -29.899554L8.270089 -32.460938C7.890625 -32.572545 7.472098 -32.745536 7.014509 -32.979911L5.039062 -31.489955C4.960938 -31.411830 4.849330 -31.372768 4.704241 -31.372768C4.581473 -31.372768 4.464286 -31.417411 4.352679 -31.506696C2.745536 -32.991071 1.941964 -33.883929 1.941964 -34.185268C1.941964 -34.285714 1.981027 -34.391741 2.059152 -34.503348C2.170759 -34.659598 2.399554 -34.955357 2.745536 -35.390625C3.091518 -35.825893 3.353795 -36.166295 3.532366 -36.411830C3.275670 -36.902902 3.080357 -37.360491 2.946429 -37.784598L0.401786 -38.186384C0.290179 -38.197545 0.195312 -38.250558 0.117188 -38.345424C0.039062 -38.440290 0.000000 -38.549107 0.000000 -38.671875L0.000000 -41.768973C0.000000 -41.880580 0.039062 -41.989397 0.117188 -42.095424C0.195312 -42.201451 0.284598 -42.260045 0.385045 -42.271205L2.979911 -42.672991C3.102679 -43.063616 3.281250 -43.487723 3.515625 -43.945312C3.136161 -44.481027 2.633929 -45.122768 2.008929 -45.870536C1.930804 -45.993304 1.891741 -46.104911 1.891741 -46.205357C1.891741 -46.339286 1.930804 -46.450893 2.008929 -46.540179C2.254464 -46.875000 2.712054 -47.371652 3.381696 -48.030134C4.051339 -48.688616 4.492188 -49.017857 4.704241 -49.017857C4.827009 -49.017857 4.944196 -48.978795 5.055804 -48.900670L6.981027 -47.393973C7.360491 -47.594866 7.790179 -47.773438 8.270089 -47.929688C8.392857 -49.135045 8.521205 -49.994420 8.655134 -50.507812C8.733259 -50.775670 8.900670 -50.909598 9.157366 -50.909598L12.271205 -50.909598C12.393973 -50.909598 12.505580 -50.867746 12.606027 -50.784040C12.706473 -50.700335 12.762277 -50.602679 12.773438 -50.491071L13.158482 -47.929688C13.537946 -47.818080 13.956473 -47.645089 14.414062 -47.410714L16.389509 -48.900670C16.478795 -48.978795 16.590402 -49.017857 16.724330 -49.017857C16.847098 -49.017857 16.964286 -48.973214 17.075893 -48.883929C18.683036 -47.399554 19.486607 -46.506696 19.486607 -46.205357C19.486607 -46.116071 19.447545 -46.010045 19.369420 -45.887277C19.235491 -45.708705 19.001116 -45.407366 18.666295 -44.983259C18.331473 -44.559152 18.080357 -44.224330 17.912946 -43.978795C18.169643 -43.443080 18.359375 -42.985491 18.482143 -42.606027L21.026786 -42.220982C21.138393 -42.198661 21.233259 -42.140067 21.311384 -42.045201C21.389509 -41.950335 21.428571 -41.841518 21.428571 -41.718750ZM32.142857 -32.795759L32.142857 -30.452009C32.142857 -30.273438 31.311384 -30.100446 29.648438 -29.933036C29.514509 -29.631696 29.347098 -29.341518 29.146205 -29.062500C29.715402 -27.801339 30.000000 -27.031250 30.000000 -26.752232C30.000000 -26.707589 29.977679 -26.668527 29.933036 -26.635045C28.571429 -25.842634 27.879464 -25.446429 27.857143 -25.446429C27.767857 -25.446429 27.511161 -25.708705 27.087054 -26.233259C26.662946 -26.757812 26.372768 -27.137277 26.216518 -27.371652C25.993304 -27.349330 25.825893 -27.338170 25.714286 -27.338170C25.602679 -27.338170 25.435268 -27.349330 25.212054 -27.371652C25.055804 -27.137277 24.765625 -26.757812 24.341518 -26.233259C23.917411 -25.708705 23.660714 -25.446429 23.571429 -25.446429C23.549107 -25.446429 22.857143 -25.842634 21.495536 -26.635045C21.450893 -26.668527 21.428571 -26.707589 21.428571 -26.752232C21.428571 -27.031250 21.713170 -27.801339 22.282366 -29.062500C22.081473 -29.341518 21.914062 -29.631696 21.780134 -29.933036C20.117188 -30.100446 19.285714 -30.273438 19.285714 -30.452009L19.285714 -32.795759C19.285714 -32.974330 20.117188 -33.147321 21.780134 -33.314732C21.925223 -33.638393 22.092634 -33.928571 22.282366 -34.185268C21.713170 -35.446429 21.428571 -36.216518 21.428571 -36.495536C21.428571 -36.540179 21.450893 -36.579241 21.495536 -36.612723C21.540179 -36.635045 21.735491 -36.746652 22.081473 -36.947545C22.427455 -37.148438 22.756696 -37.338170 23.069196 -37.516741C23.381696 -37.695312 23.549107 -37.784598 23.571429 -37.784598C23.660714 -37.784598 23.917411 -37.525112 24.341518 -37.006138C24.765625 -36.487165 25.055804 -36.110491 25.212054 -35.876116C25.435268 -35.898438 25.602679 -35.909598 25.714286 -35.909598C25.825893 -35.909598 25.993304 -35.898438 26.216518 -35.876116C26.785714 -36.668527 27.299107 -37.293527 27.756696 -37.751116L27.857143 -37.784598C27.901786 -37.784598 28.593750 -37.393973 29.933036 -36.612723C29.977679 -36.579241 30.000000 -36.540179 30.000000 -36.495536C30.000000 -36.216518 29.715402 -35.446429 29.146205 -34.185268C29.335938 -33.928571 29.503348 -33.638393 29.648438 -33.314732C31.311384 -33.147321 32.142857 -32.974330 32.142857 -32.795759ZM32.142857 -49.938616L32.142857 -47.594866C32.142857 -47.416295 31.311384 -47.243304 29.648438 -47.075893C29.514509 -46.774554 29.347098 -46.484375 29.146205 -46.205357C29.715402 -44.944196 30.000000 -44.174107 30.000000 -43.895089C30.000000 -43.850446 29.977679 -43.811384 29.933036 -43.777902C28.571429 -42.985491 27.879464 -42.589286 27.857143 -42.589286C27.767857 -42.589286 27.511161 -42.851562 27.087054 -43.376116C26.662946 -43.900670 26.372768 -44.280134 26.216518 -44.514509C25.993304 -44.492188 25.825893 -44.481027 25.714286 -44.481027C25.602679 -44.481027 25.435268 -44.492188 25.212054 -44.514509C25.055804 -44.280134 24.765625 -43.900670 24.341518 -43.376116C23.917411 -42.851562 23.660714 -42.589286 23.571429 -42.589286C23.549107 -42.589286 22.857143 -42.985491 21.495536 -43.777902C21.450893 -43.811384 21.428571 -43.850446 21.428571 -43.895089C21.428571 -44.174107 21.713170 -44.944196 22.282366 -46.205357C22.081473 -46.484375 21.914062 -46.774554 21.780134 -47.075893C20.117188 -47.243304 19.285714 -47.416295 19.285714 -47.594866L19.285714 -49.938616C19.285714 -50.117188 20.117188 -50.290179 21.780134 -50.457589C21.925223 -50.781250 22.092634 -51.071429 22.282366 -51.328125C21.713170 -52.589286 21.428571 -53.359375 21.428571 -53.638393C21.428571 -53.683036 21.450893 -53.722098 21.495536 -53.755580C21.540179 -53.777902 21.735491 -53.889509 22.081473 -54.090402C22.427455 -54.291295 22.756696 -54.481027 23.069196 -54.659598C23.381696 -54.838170 23.549107 -54.927455 23.571429 -54.927455C23.660714 -54.927455 23.917411 -54.667969 24.341518 -54.148996C24.765625 -53.630022 25.055804 -53.253348 25.212054 -53.018973C25.435268 -53.041295 25.602679 -53.052455 25.714286 -53.052455C25.825893 -53.052455 25.993304 -53.041295 26.216518 -53.018973C26.785714 -53.811384 27.299107 -54.436384 27.756696 -54.893973L27.857143 -54.927455C27.901786 -54.927455 28.593750 -54.536830 29.933036 -53.755580C29.977679 -53.722098 30.000000 -53.683036 30.000000 -53.638393C30.000000 -53.359375 29.715402 -52.589286 29.146205 -51.328125C29.335938 -51.071429 29.503348 -50.781250 29.648438 -50.457589C31.311384 -50.290179 32.142857 -50.117188 32.142857 -49.938616ZM32.142857 -49.938616"></path></svg>