<svg width="25.714286" height="22.500000" viewBox="0.000000 -45.000000 25.714286 22.500000" xmlns="http://www.w3.org/2000/svg"><path d="M15.535714 -25.513393L15.535714 -26.450893L15.535714 -34.285714L15.535714 -37.500000L10.178571 -37.500000L10.178571 -34.285714L10.178571 -26.450893L10.178571 -25.513393C10.178571 -25.234375 10.279018 -25.019531 10.479911 -24.868862C10.680804 -24.718192 10.937500 -24.642857 11.250000 -24.642857L14.464286 -24.642857C14.776786 -24.642857 15.033482 -24.718192 15.234375 -24.868862C15.435268 -25.019531 15.535714 -25.234375 15.535714 -25.513393ZM7.901786 -39.642857L11.166295 -39.642857L9.056920 -42.338170C8.766741 -42.684152 8.381696 -42.857143 7.901786 -42.857143C7.455357 -42.857143 7.075893 -42.700893 6.763393 -42.388393C6.450893 -42.075893 6.294643 -41.696429 6.294643 -41.250000C6.294643 -40.803571 6.450893 -40.424107 6.763393 -40.111607C7.075893 -39.799107 7.455357 -39.642857 7.901786 -39.642857ZM19.419643 -41.250000C19.419643 -41.696429 19.263393 -42.075893 18.950893 -42.388393C18.638393 -42.700893 18.258929 -42.857143 17.812500 -42.857143C17.332589 -42.857143 16.947545 -42.684152 16.657366 -42.338170L14.564732 -39.642857L17.812500 -39.642857C18.258929 -39.642857 18.638393 -39.799107 18.950893 -40.111607C19.263393 -40.424107 19.419643 -40.803571 19.419643 -41.250000ZM25.714286 -36.964286L25.714286 -31.607143C25.714286 -31.450893 25.664062 -31.322545 25.563616 -31.222098C25.463170 -31.121652 25.334821 -31.071429 25.178571 -31.071429L23.571429 -31.071429L23.571429 -24.107143C23.571429 -23.660714 23.415179 -23.281250 23.102679 -22.968750C22.790179 -22.656250 22.410714 -22.500000 21.964286 -22.500000L3.750000 -22.500000C3.303571 -22.500000 2.924107 -22.656250 2.611607 -22.968750C2.299107 -23.281250 2.142857 -23.660714 2.142857 -24.107143L2.142857 -31.071429L0.535714 -31.071429C0.379464 -31.071429 0.251116 -31.121652 0.150670 -31.222098C0.050223 -31.322545 0.000000 -31.450893 0.000000 -31.607143L0.000000 -36.964286C0.000000 -37.120536 0.050223 -37.248884 0.150670 -37.349330C0.251116 -37.449777 0.379464 -37.500000 0.535714 -37.500000L7.901786 -37.500000C6.863839 -37.500000 5.979353 -37.865513 5.248326 -38.596540C4.517299 -39.327567 4.151786 -40.212054 4.151786 -41.250000C4.151786 -42.287946 4.517299 -43.172433 5.248326 -43.903460C5.979353 -44.634487 6.863839 -45.000000 7.901786 -45.000000C9.095982 -45.000000 10.033482 -44.570312 10.714286 -43.710938L12.857143 -40.948661L15.000000 -43.710938C15.680804 -44.570312 16.618304 -45.000000 17.812500 -45.000000C18.850446 -45.000000 19.734933 -44.634487 20.465960 -43.903460C21.196987 -43.172433 21.562500 -42.287946 21.562500 -41.250000C21.562500 -40.212054 21.196987 -39.327567 20.465960 -38.596540C19.734933 -37.865513 18.850446 -37.500000 17.812500 -37.500000L25.178571 -37.500000C25.334821 -37.500000 25.463170 -37.449777 25.563616 -37.349330C25.664062 -37.248884 25.714286 -37.120536 25.714286 -36.964286ZM25.714286 -36.964286"></path></svg>