<svg width="25.714286" height="25.714286" viewBox="0.000000 -49.285714 25.714286 25.714286" xmlns="http://www.w3.org/2000/svg"><path d="M9.743304 -29.531250C9.743304 -28.794643 9.224330 -28.426339 8.186384 -28.426339C6.992188 -28.426339 6.395089 -28.777902 6.395089 -29.481027C6.395089 -30.195312 6.941964 -30.552455 8.035714 -30.552455C9.174107 -30.552455 9.743304 -30.212054 9.743304 -29.531250ZM9.140625 -37.332589C9.140625 -36.383929 8.727679 -35.909598 7.901786 -35.909598C7.042411 -35.909598 6.612723 -36.378348 6.612723 -37.315848C6.612723 -38.320312 7.042411 -38.822545 7.901786 -38.822545C8.303571 -38.822545 8.610491 -38.680246 8.822545 -38.395647C9.034598 -38.111049 9.140625 -37.756696 9.140625 -37.332589ZM11.919643 -38.588170L11.919643 -40.680804C11.049107 -40.357143 10.295759 -40.195312 9.659598 -40.195312C9.101562 -40.518973 8.487723 -40.680804 7.818080 -40.680804C6.858259 -40.680804 6.049107 -40.362723 5.390625 -39.726562C4.732143 -39.090402 4.402902 -38.292411 4.402902 -37.332589C4.402902 -36.774554 4.567522 -36.205357 4.896763 -35.625000C5.226004 -35.044643 5.636161 -34.670759 6.127232 -34.503348L6.127232 -34.453125C5.703125 -34.263393 5.491071 -33.789062 5.491071 -33.030134C5.491071 -32.438616 5.719866 -32.008929 6.177455 -31.741071L6.177455 -31.690848C4.916295 -31.277902 4.285714 -30.502232 4.285714 -29.363839C4.285714 -28.861607 4.397321 -28.423549 4.620536 -28.049665C4.843750 -27.675781 5.145089 -27.391183 5.524554 -27.195871C5.904018 -27.000558 6.305804 -26.858259 6.729911 -26.768973C7.154018 -26.679687 7.606027 -26.635045 8.085938 -26.635045C10.585938 -26.635045 11.835938 -27.684152 11.835938 -29.782366C11.835938 -30.530134 11.568080 -31.082589 11.032366 -31.439732C10.496652 -31.796875 9.793527 -32.053571 8.922991 -32.209821C8.621652 -32.265625 8.334263 -32.380022 8.060826 -32.553013C7.787388 -32.726004 7.650670 -32.946429 7.650670 -33.214286C7.650670 -33.705357 7.924107 -33.995536 8.470982 -34.084821C9.330357 -34.252232 10.011161 -34.642857 10.513393 -35.256696C11.015625 -35.870536 11.266741 -36.618304 11.266741 -37.500000C11.266741 -37.767857 11.210938 -38.058036 11.099330 -38.370536C11.512277 -38.470982 11.785714 -38.543527 11.919643 -38.588170ZM12.907366 -31.573661L15.200893 -31.573661C15.178571 -31.875000 15.167411 -32.332589 15.167411 -32.946429L15.167411 -39.425223C15.167411 -39.938616 15.178571 -40.323661 15.200893 -40.580357L12.907366 -40.580357C12.940848 -40.323661 12.957589 -39.927455 12.957589 -39.391741L12.957589 -32.829241C12.957589 -32.271205 12.940848 -31.852679 12.907366 -31.573661ZM21.428571 -31.841518L21.428571 -33.867188C21.093750 -33.632812 20.714286 -33.515625 20.290179 -33.515625C19.698661 -33.515625 19.402902 -33.973214 19.402902 -34.888393L19.402902 -38.655134L20.273438 -38.655134C20.373884 -38.655134 20.521763 -38.649554 20.717076 -38.638393C20.912388 -38.627232 21.060268 -38.621652 21.160714 -38.621652L21.160714 -40.580357L19.402902 -40.580357C19.402902 -41.495536 19.419643 -42.064732 19.453125 -42.287946L17.109375 -42.287946C17.154018 -42.020089 17.176339 -41.713170 17.176339 -41.367188L17.176339 -40.580357L16.171875 -40.580357L16.171875 -38.621652C16.573661 -38.655134 16.780134 -38.671875 16.791295 -38.671875C16.824777 -38.671875 16.886161 -38.669085 16.975446 -38.663504C17.064732 -38.657924 17.131696 -38.655134 17.176339 -38.655134L17.176339 -38.621652L17.142857 -38.621652L17.142857 -34.988839C17.142857 -34.575893 17.156808 -34.218750 17.184710 -33.917411C17.212612 -33.616071 17.276786 -33.300781 17.377232 -32.971540C17.477679 -32.642299 17.614397 -32.371652 17.787388 -32.159598C17.960379 -31.947545 18.203125 -31.774554 18.515625 -31.640625C18.828125 -31.506696 19.196429 -31.439732 19.620536 -31.439732C20.334821 -31.439732 20.937500 -31.573661 21.428571 -31.841518ZM15.468750 -43.660714C15.468750 -44.062500 15.334821 -44.416853 15.066964 -44.723772C14.799107 -45.030692 14.464286 -45.184152 14.062500 -45.184152C13.660714 -45.184152 13.323103 -45.033482 13.049665 -44.732143C12.776228 -44.430804 12.639509 -44.073661 12.639509 -43.660714C12.639509 -43.258929 12.779018 -42.910156 13.058036 -42.614397C13.337054 -42.318638 13.671875 -42.170759 14.062500 -42.170759C14.453125 -42.170759 14.785156 -42.321429 15.058594 -42.622768C15.332031 -42.924107 15.468750 -43.270089 15.468750 -43.660714ZM25.714286 -44.464286L25.714286 -28.392857C25.714286 -27.064732 25.242746 -25.929129 24.299665 -24.986049C23.356585 -24.042969 22.220982 -23.571429 20.892857 -23.571429L4.821429 -23.571429C3.493304 -23.571429 2.357701 -24.042969 1.414621 -24.986049C0.471540 -25.929129 0.000000 -27.064732 0.000000 -28.392857L0.000000 -44.464286C0.000000 -45.792411 0.471540 -46.928013 1.414621 -47.871094C2.357701 -48.814174 3.493304 -49.285714 4.821429 -49.285714L20.892857 -49.285714C22.220982 -49.285714 23.356585 -48.814174 24.299665 -47.871094C25.242746 -46.928013 25.714286 -45.792411 25.714286 -44.464286ZM25.714286 -44.464286"></path></svg>