<svg width="26.886161" height="27.857143" viewBox="1.556920 -51.428571 26.886161 27.857143" xmlns="http://www.w3.org/2000/svg"><path d="M28.443080 -50.457589C28.443080 -50.066964 28.203125 -49.631696 27.723214 -49.151786L17.142857 -38.571429L17.142857 -25.714286L22.500000 -25.714286C22.790179 -25.714286 23.041295 -25.608259 23.253348 -25.396205C23.465402 -25.184152 23.571429 -24.933036 23.571429 -24.642857C23.571429 -24.352679 23.465402 -24.101562 23.253348 -23.889509C23.041295 -23.677455 22.790179 -23.571429 22.500000 -23.571429L7.500000 -23.571429C7.209821 -23.571429 6.958705 -23.677455 6.746652 -23.889509C6.534598 -24.101562 6.428571 -24.352679 6.428571 -24.642857C6.428571 -24.933036 6.534598 -25.184152 6.746652 -25.396205C6.958705 -25.608259 7.209821 -25.714286 7.500000 -25.714286L12.857143 -25.714286L12.857143 -38.571429L2.276786 -49.151786C1.796875 -49.631696 1.556920 -50.066964 1.556920 -50.457589C1.556920 -50.714286 1.657366 -50.917969 1.858259 -51.068638C2.059152 -51.219308 2.271205 -51.316964 2.494420 -51.361607C2.717634 -51.406250 2.957589 -51.428571 3.214286 -51.428571L26.785714 -51.428571C27.042411 -51.428571 27.282366 -51.406250 27.505580 -51.361607C27.728795 -51.316964 27.940848 -51.219308 28.141741 -51.068638C28.342634 -50.917969 28.443080 -50.714286 28.443080 -50.457589ZM28.443080 -50.457589"></path></svg>