<svg width="25.195312" height="25.714286" viewBox="0.000000 -49.285714 25.195312 25.714286" xmlns="http://www.w3.org/2000/svg"><path d="M12.857143 -38.270089L24.994420 -38.270089C25.128348 -37.522321 25.195312 -36.808036 25.195312 -36.127232C25.195312 -33.705357 24.687500 -31.542969 23.671875 -29.640067C22.656250 -27.737165 21.208147 -26.250000 19.327567 -25.178571C17.446987 -24.107143 15.290179 -23.571429 12.857143 -23.571429C11.104911 -23.571429 9.436384 -23.909040 7.851562 -24.584263C6.266741 -25.259487 4.899554 -26.171875 3.750000 -27.321429C2.600446 -28.470982 1.688058 -29.838170 1.012835 -31.422991C0.337612 -33.007812 0.000000 -34.676339 0.000000 -36.428571C0.000000 -38.180804 0.337612 -39.849330 1.012835 -41.434152C1.688058 -43.018973 2.600446 -44.386161 3.750000 -45.535714C4.899554 -46.685268 6.266741 -47.597656 7.851562 -48.272879C9.436384 -48.948103 11.104911 -49.285714 12.857143 -49.285714C16.205357 -49.285714 19.079241 -48.164062 21.478795 -45.920759L17.979911 -42.555804C16.607143 -43.883929 14.899554 -44.547991 12.857143 -44.547991C11.417411 -44.547991 10.086496 -44.185268 8.864397 -43.459821C7.642299 -42.734375 6.674107 -41.749442 5.959821 -40.505022C5.245536 -39.260603 4.888393 -37.901786 4.888393 -36.428571C4.888393 -34.955357 5.245536 -33.596540 5.959821 -32.352121C6.674107 -31.107701 7.642299 -30.122768 8.864397 -29.397321C10.086496 -28.671875 11.417411 -28.309152 12.857143 -28.309152C13.828125 -28.309152 14.720982 -28.443080 15.535714 -28.710937C16.350446 -28.978795 17.020089 -29.313616 17.544643 -29.715402C18.069196 -30.117187 18.526786 -30.574777 18.917411 -31.088170C19.308036 -31.601562 19.595424 -32.087054 19.779576 -32.544643C19.963728 -33.002232 20.089286 -33.437500 20.156250 -33.850446L12.857143 -33.850446ZM12.857143 -38.270089"></path></svg>