<svg width="25.714286" height="25.714286" viewBox="0.000000 -49.285714 25.714286 25.714286" xmlns="http://www.w3.org/2000/svg"><path d="M21.428571 -28.928571L21.428571 -43.928571C21.428571 -44.218750 21.322545 -44.469866 21.110491 -44.681920C20.898438 -44.893973 20.647321 -45.000000 20.357143 -45.000000L18.214286 -45.000000C17.924107 -45.000000 17.672991 -44.893973 17.460938 -44.681920C17.248884 -44.469866 17.142857 -44.218750 17.142857 -43.928571L17.142857 -38.571429L8.571429 -38.571429L8.571429 -43.928571C8.571429 -44.218750 8.465402 -44.469866 8.253348 -44.681920C8.041295 -44.893973 7.790179 -45.000000 7.500000 -45.000000L5.357143 -45.000000C5.066964 -45.000000 4.815848 -44.893973 4.603795 -44.681920C4.391741 -44.469866 4.285714 -44.218750 4.285714 -43.928571L4.285714 -28.928571C4.285714 -28.638393 4.391741 -28.387277 4.603795 -28.175223C4.815848 -27.963170 5.066964 -27.857143 5.357143 -27.857143L7.500000 -27.857143C7.790179 -27.857143 8.041295 -27.963170 8.253348 -28.175223C8.465402 -28.387277 8.571429 -28.638393 8.571429 -28.928571L8.571429 -34.285714L17.142857 -34.285714L17.142857 -28.928571C17.142857 -28.638393 17.248884 -28.387277 17.460938 -28.175223C17.672991 -27.963170 17.924107 -27.857143 18.214286 -27.857143L20.357143 -27.857143C20.647321 -27.857143 20.898438 -27.963170 21.110491 -28.175223C21.322545 -28.387277 21.428571 -28.638393 21.428571 -28.928571ZM25.714286 -44.464286L25.714286 -28.392857C25.714286 -27.064732 25.242746 -25.929129 24.299665 -24.986049C23.356585 -24.042969 22.220982 -23.571429 20.892857 -23.571429L4.821429 -23.571429C3.493304 -23.571429 2.357701 -24.042969 1.414621 -24.986049C0.471540 -25.929129 0.000000 -27.064732 0.000000 -28.392857L0.000000 -44.464286C0.000000 -45.792411 0.471540 -46.928013 1.414621 -47.871094C2.357701 -48.814174 3.493304 -49.285714 4.821429 -49.285714L20.892857 -49.285714C22.220982 -49.285714 23.356585 -48.814174 24.299665 -47.871094C25.242746 -46.928013 25.714286 -45.792411 25.714286 -44.464286ZM25.714286 -44.464286"></path></svg>