<svg width="30.000000" height="25.714286" viewBox="0.000000 -49.285714 30.000000 25.714286" xmlns="http://www.w3.org/2000/svg"><path d="M21.428571 -34.285714L26.534598 -34.285714C26.478795 -34.218750 26.422991 -34.160156 26.367188 -34.109933C26.311384 -34.059710 26.261161 -34.017857 26.216518 -33.984375L26.166295 -33.917411L15.736607 -23.872768C15.535714 -23.671875 15.290179 -23.571429 15.000000 -23.571429C14.709821 -23.571429 14.464286 -23.671875 14.263393 -23.872768L3.816964 -33.950893C3.761161 -33.973214 3.643973 -34.084821 3.465402 -34.285714L9.642857 -34.285714C9.888393 -34.285714 10.108817 -34.361049 10.304129 -34.511719C10.499442 -34.662388 10.625000 -34.854911 10.680804 -35.089286L11.852679 -39.793527L15.033482 -28.627232C15.100446 -28.404018 15.228795 -28.219866 15.418527 -28.074777C15.608259 -27.929687 15.825893 -27.857143 16.071429 -27.857143C16.305804 -27.857143 16.517857 -27.929687 16.707589 -28.074777C16.897321 -28.219866 17.025670 -28.404018 17.092634 -28.627232L19.536830 -36.746652L20.474330 -34.871652C20.675223 -34.481027 20.993304 -34.285714 21.428571 -34.285714ZM30.000000 -41.450893C30.000000 -39.832589 29.425223 -38.158482 28.275670 -36.428571L22.098214 -36.428571L20.239955 -40.128348C20.150670 -40.318080 20.008371 -40.468750 19.813058 -40.580357C19.617746 -40.691964 19.414062 -40.736607 19.202009 -40.714286C18.699777 -40.658482 18.387277 -40.401786 18.264509 -39.944196L16.104911 -32.745536L12.823661 -44.229911C12.756696 -44.453125 12.625558 -44.637277 12.430246 -44.782366C12.234933 -44.927455 12.014509 -45.000000 11.768973 -45.000000C11.523438 -45.000000 11.305804 -44.924665 11.116071 -44.773996C10.926339 -44.623326 10.803571 -44.430804 10.747768 -44.196429L8.805804 -36.428571L1.724330 -36.428571C0.574777 -38.158482 0.000000 -39.832589 0.000000 -41.450893C0.000000 -43.906250 0.708705 -45.825893 2.126116 -47.209821C3.543527 -48.593750 5.502232 -49.285714 8.002232 -49.285714C8.694196 -49.285714 9.400112 -49.165737 10.119978 -48.925781C10.839844 -48.685826 11.509487 -48.362165 12.128906 -47.954799C12.748326 -47.547433 13.281250 -47.165179 13.727679 -46.808036C14.174107 -46.450893 14.598214 -46.071429 15.000000 -45.669643C15.401786 -46.071429 15.825893 -46.450893 16.272321 -46.808036C16.718750 -47.165179 17.251674 -47.547433 17.871094 -47.954799C18.490513 -48.362165 19.160156 -48.685826 19.880022 -48.925781C20.599888 -49.165737 21.305804 -49.285714 21.997768 -49.285714C24.497768 -49.285714 26.456473 -48.593750 27.873884 -47.209821C29.291295 -45.825893 30.000000 -43.906250 30.000000 -41.450893ZM30.000000 -41.450893"></path></svg>