<svg width="30.000000" height="25.714286" viewBox="0.000000 -49.285714 30.000000 25.714286" xmlns="http://www.w3.org/2000/svg"><path d="M15.000000 -23.571429C14.709821 -23.571429 14.464286 -23.671875 14.263393 -23.872768L3.816964 -33.950893C3.705357 -34.040179 3.551897 -34.185268 3.356585 -34.386161C3.161272 -34.587054 2.851562 -34.952567 2.427455 -35.482701C2.003348 -36.012835 1.623884 -36.556920 1.289062 -37.114955C0.954241 -37.672991 0.655692 -38.348214 0.393415 -39.140625C0.131138 -39.933036 0.000000 -40.703125 0.000000 -41.450893C0.000000 -43.906250 0.708705 -45.825893 2.126116 -47.209821C3.543527 -48.593750 5.502232 -49.285714 8.002232 -49.285714C8.694196 -49.285714 9.400112 -49.165737 10.119978 -48.925781C10.839844 -48.685826 11.509487 -48.362165 12.128906 -47.954799C12.748326 -47.547433 13.281250 -47.165179 13.727679 -46.808036C14.174107 -46.450893 14.598214 -46.071429 15.000000 -45.669643C15.401786 -46.071429 15.825893 -46.450893 16.272321 -46.808036C16.718750 -47.165179 17.251674 -47.547433 17.871094 -47.954799C18.490513 -48.362165 19.160156 -48.685826 19.880022 -48.925781C20.599888 -49.165737 21.305804 -49.285714 21.997768 -49.285714C24.497768 -49.285714 26.456473 -48.593750 27.873884 -47.209821C29.291295 -45.825893 30.000000 -43.906250 30.000000 -41.450893C30.000000 -38.984375 28.722098 -36.473214 26.166295 -33.917411L15.736607 -23.872768C15.535714 -23.671875 15.290179 -23.571429 15.000000 -23.571429ZM15.000000 -23.571429"></path></svg>