<svg width="23.571429" height="30.000000" viewBox="0.000000 -55.714286 23.571429 30.000000" xmlns="http://www.w3.org/2000/svg"><path d="M6.428571 -33.750000L6.428571 -32.678571C6.428571 -32.533482 6.375558 -32.407924 6.269531 -32.301897C6.163504 -32.195871 6.037946 -32.142857 5.892857 -32.142857L4.821429 -32.142857C4.676339 -32.142857 4.550781 -32.195871 4.444754 -32.301897C4.338728 -32.407924 4.285714 -32.533482 4.285714 -32.678571L4.285714 -33.750000C4.285714 -33.895089 4.338728 -34.020647 4.444754 -34.126674C4.550781 -34.232701 4.676339 -34.285714 4.821429 -34.285714L5.892857 -34.285714C6.037946 -34.285714 6.163504 -34.232701 6.269531 -34.126674C6.375558 -34.020647 6.428571 -33.895089 6.428571 -33.750000ZM6.428571 -38.035714L6.428571 -36.964286C6.428571 -36.819196 6.375558 -36.693638 6.269531 -36.587612C6.163504 -36.481585 6.037946 -36.428571 5.892857 -36.428571L4.821429 -36.428571C4.676339 -36.428571 4.550781 -36.481585 4.444754 -36.587612C4.338728 -36.693638 4.285714 -36.819196 4.285714 -36.964286L4.285714 -38.035714C4.285714 -38.180804 4.338728 -38.306362 4.444754 -38.412388C4.550781 -38.518415 4.676339 -38.571429 4.821429 -38.571429L5.892857 -38.571429C6.037946 -38.571429 6.163504 -38.518415 6.269531 -38.412388C6.375558 -38.306362 6.428571 -38.180804 6.428571 -38.035714ZM10.714286 -38.035714L10.714286 -36.964286C10.714286 -36.819196 10.661272 -36.693638 10.555246 -36.587612C10.449219 -36.481585 10.323661 -36.428571 10.178571 -36.428571L9.107143 -36.428571C8.962054 -36.428571 8.836496 -36.481585 8.730469 -36.587612C8.624442 -36.693638 8.571429 -36.819196 8.571429 -36.964286L8.571429 -38.035714C8.571429 -38.180804 8.624442 -38.306362 8.730469 -38.412388C8.836496 -38.518415 8.962054 -38.571429 9.107143 -38.571429L10.178571 -38.571429C10.323661 -38.571429 10.449219 -38.518415 10.555246 -38.412388C10.661272 -38.306362 10.714286 -38.180804 10.714286 -38.035714ZM6.428571 -42.321429L6.428571 -41.250000C6.428571 -41.104911 6.375558 -40.979353 6.269531 -40.873326C6.163504 -40.767299 6.037946 -40.714286 5.892857 -40.714286L4.821429 -40.714286C4.676339 -40.714286 4.550781 -40.767299 4.444754 -40.873326C4.338728 -40.979353 4.285714 -41.104911 4.285714 -41.250000L4.285714 -42.321429C4.285714 -42.466518 4.338728 -42.592076 4.444754 -42.698103C4.550781 -42.804129 4.676339 -42.857143 4.821429 -42.857143L5.892857 -42.857143C6.037946 -42.857143 6.163504 -42.804129 6.269531 -42.698103C6.375558 -42.592076 6.428571 -42.466518 6.428571 -42.321429ZM19.285714 -33.750000L19.285714 -32.678571C19.285714 -32.533482 19.232701 -32.407924 19.126674 -32.301897C19.020647 -32.195871 18.895089 -32.142857 18.750000 -32.142857L17.678571 -32.142857C17.533482 -32.142857 17.407924 -32.195871 17.301897 -32.301897C17.195871 -32.407924 17.142857 -32.533482 17.142857 -32.678571L17.142857 -33.750000C17.142857 -33.895089 17.195871 -34.020647 17.301897 -34.126674C17.407924 -34.232701 17.533482 -34.285714 17.678571 -34.285714L18.750000 -34.285714C18.895089 -34.285714 19.020647 -34.232701 19.126674 -34.126674C19.232701 -34.020647 19.285714 -33.895089 19.285714 -33.750000ZM15.000000 -38.035714L15.000000 -36.964286C15.000000 -36.819196 14.946987 -36.693638 14.840960 -36.587612C14.734933 -36.481585 14.609375 -36.428571 14.464286 -36.428571L13.392857 -36.428571C13.247768 -36.428571 13.122210 -36.481585 13.016183 -36.587612C12.910156 -36.693638 12.857143 -36.819196 12.857143 -36.964286L12.857143 -38.035714C12.857143 -38.180804 12.910156 -38.306362 13.016183 -38.412388C13.122210 -38.518415 13.247768 -38.571429 13.392857 -38.571429L14.464286 -38.571429C14.609375 -38.571429 14.734933 -38.518415 14.840960 -38.412388C14.946987 -38.306362 15.000000 -38.180804 15.000000 -38.035714ZM10.714286 -42.321429L10.714286 -41.250000C10.714286 -41.104911 10.661272 -40.979353 10.555246 -40.873326C10.449219 -40.767299 10.323661 -40.714286 10.178571 -40.714286L9.107143 -40.714286C8.962054 -40.714286 8.836496 -40.767299 8.730469 -40.873326C8.624442 -40.979353 8.571429 -41.104911 8.571429 -41.250000L8.571429 -42.321429C8.571429 -42.466518 8.624442 -42.592076 8.730469 -42.698103C8.836496 -42.804129 8.962054 -42.857143 9.107143 -42.857143L10.178571 -42.857143C10.323661 -42.857143 10.449219 -42.804129 10.555246 -42.698103C10.661272 -42.592076 10.714286 -42.466518 10.714286 -42.321429ZM19.285714 -38.035714L19.285714 -36.964286C19.285714 -36.819196 19.232701 -36.693638 19.126674 -36.587612C19.020647 -36.481585 18.895089 -36.428571 18.750000 -36.428571L17.678571 -36.428571C17.533482 -36.428571 17.407924 -36.481585 17.301897 -36.587612C17.195871 -36.693638 17.142857 -36.819196 17.142857 -36.964286L17.142857 -38.035714C17.142857 -38.180804 17.195871 -38.306362 17.301897 -38.412388C17.407924 -38.518415 17.533482 -38.571429 17.678571 -38.571429L18.750000 -38.571429C18.895089 -38.571429 19.020647 -38.518415 19.126674 -38.412388C19.232701 -38.306362 19.285714 -38.180804 19.285714 -38.035714ZM15.000000 -42.321429L15.000000 -41.250000C15.000000 -41.104911 14.946987 -40.979353 14.840960 -40.873326C14.734933 -40.767299 14.609375 -40.714286 14.464286 -40.714286L13.392857 -40.714286C13.247768 -40.714286 13.122210 -40.767299 13.016183 -40.873326C12.910156 -40.979353 12.857143 -41.104911 12.857143 -41.250000L12.857143 -42.321429C12.857143 -42.466518 12.910156 -42.592076 13.016183 -42.698103C13.122210 -42.804129 13.247768 -42.857143 13.392857 -42.857143L14.464286 -42.857143C14.609375 -42.857143 14.734933 -42.804129 14.840960 -42.698103C14.946987 -42.592076 15.000000 -42.466518 15.000000 -42.321429ZM19.285714 -42.321429L19.285714 -41.250000C19.285714 -41.104911 19.232701 -40.979353 19.126674 -40.873326C19.020647 -40.767299 18.895089 -40.714286 18.750000 -40.714286L17.678571 -40.714286C17.533482 -40.714286 17.407924 -40.767299 17.301897 -40.873326C17.195871 -40.979353 17.142857 -41.104911 17.142857 -41.250000L17.142857 -42.321429C17.142857 -42.466518 17.195871 -42.592076 17.301897 -42.698103C17.407924 -42.804129 17.533482 -42.857143 17.678571 -42.857143L18.750000 -42.857143C18.895089 -42.857143 19.020647 -42.804129 19.126674 -42.698103C19.232701 -42.592076 19.285714 -42.466518 19.285714 -42.321429ZM15.000000 -27.857143L21.428571 -27.857143L21.428571 -47.142857L17.142857 -47.142857L17.142857 -46.607143C17.142857 -46.160714 16.986607 -45.781250 16.674107 -45.468750C16.361607 -45.156250 15.982143 -45.000000 15.535714 -45.000000L8.035714 -45.000000C7.589286 -45.000000 7.209821 -45.156250 6.897321 -45.468750C6.584821 -45.781250 6.428571 -46.160714 6.428571 -46.607143L6.428571 -47.142857L2.142857 -47.142857L2.142857 -27.857143L8.571429 -27.857143L8.571429 -31.607143C8.571429 -31.752232 8.624442 -31.877790 8.730469 -31.983817C8.836496 -32.089844 8.962054 -32.142857 9.107143 -32.142857L14.464286 -32.142857C14.609375 -32.142857 14.734933 -32.089844 14.840960 -31.983817C14.946987 -31.877790 15.000000 -31.752232 15.000000 -31.607143ZM15.000000 -47.678571L15.000000 -53.035714C15.000000 -53.180804 14.946987 -53.306362 14.840960 -53.412388C14.734933 -53.518415 14.609375 -53.571429 14.464286 -53.571429L13.392857 -53.571429C13.247768 -53.571429 13.122210 -53.518415 13.016183 -53.412388C12.910156 -53.306362 12.857143 -53.180804 12.857143 -53.035714L12.857143 -51.428571L10.714286 -51.428571L10.714286 -53.035714C10.714286 -53.180804 10.661272 -53.306362 10.555246 -53.412388C10.449219 -53.518415 10.323661 -53.571429 10.178571 -53.571429L9.107143 -53.571429C8.962054 -53.571429 8.836496 -53.518415 8.730469 -53.412388C8.624442 -53.306362 8.571429 -53.180804 8.571429 -53.035714L8.571429 -47.678571C8.571429 -47.533482 8.624442 -47.407924 8.730469 -47.301897C8.836496 -47.195871 8.962054 -47.142857 9.107143 -47.142857L10.178571 -47.142857C10.323661 -47.142857 10.449219 -47.195871 10.555246 -47.301897C10.661272 -47.407924 10.714286 -47.533482 10.714286 -47.678571L10.714286 -49.285714L12.857143 -49.285714L12.857143 -47.678571C12.857143 -47.533482 12.910156 -47.407924 13.016183 -47.301897C13.122210 -47.195871 13.247768 -47.142857 13.392857 -47.142857L14.464286 -47.142857C14.609375 -47.142857 14.734933 -47.195871 14.840960 -47.301897C14.946987 -47.407924 15.000000 -47.533482 15.000000 -47.678571ZM23.571429 -48.214286L23.571429 -26.785714C23.571429 -26.495536 23.465402 -26.244420 23.253348 -26.032366C23.041295 -25.820312 22.790179 -25.714286 22.500000 -25.714286L1.071429 -25.714286C0.781250 -25.714286 0.530134 -25.820312 0.318080 -26.032366C0.106027 -26.244420 0.000000 -26.495536 0.000000 -26.785714L0.000000 -48.214286C0.000000 -48.504464 0.106027 -48.755580 0.318080 -48.967634C0.530134 -49.179688 0.781250 -49.285714 1.071429 -49.285714L6.428571 -49.285714L6.428571 -54.107143C6.428571 -54.553571 6.584821 -54.933036 6.897321 -55.245536C7.209821 -55.558036 7.589286 -55.714286 8.035714 -55.714286L15.535714 -55.714286C15.982143 -55.714286 16.361607 -55.558036 16.674107 -55.245536C16.986607 -54.933036 17.142857 -54.553571 17.142857 -54.107143L17.142857 -49.285714L22.500000 -49.285714C22.790179 -49.285714 23.041295 -49.179688 23.253348 -48.967634C23.465402 -48.755580 23.571429 -48.504464 23.571429 -48.214286ZM23.571429 -48.214286"></path></svg>