<svg width="25.714286" height="21.428571" viewBox="0.000000 -42.857143 25.714286 21.428571" xmlns="http://www.w3.org/2000/svg"><path d="M17.126116 -31.071429L22.416295 -31.071429C22.405134 -31.104911 22.391183 -31.152344 22.374442 -31.213728C22.357701 -31.275112 22.343750 -31.316964 22.332589 -31.339286L18.783482 -39.642857L6.930804 -39.642857L3.381696 -31.339286C3.370536 -31.305804 3.356585 -31.258371 3.339844 -31.196987C3.323103 -31.135603 3.309152 -31.093750 3.297991 -31.071429L8.588170 -31.071429L10.178571 -27.857143L15.535714 -27.857143ZM25.714286 -30.569196L25.714286 -22.500000C25.714286 -22.209821 25.608259 -21.958705 25.396205 -21.746652C25.184152 -21.534598 24.933036 -21.428571 24.642857 -21.428571L1.071429 -21.428571C0.781250 -21.428571 0.530134 -21.534598 0.318080 -21.746652C0.106027 -21.958705 0.000000 -22.209821 0.000000 -22.500000L0.000000 -30.569196C0.000000 -31.261161 0.139509 -31.947545 0.418527 -32.628348L4.402902 -41.869420C4.514509 -42.148438 4.718192 -42.382812 5.013951 -42.572545C5.309710 -42.762277 5.602679 -42.857143 5.892857 -42.857143L19.821429 -42.857143C20.111607 -42.857143 20.404576 -42.762277 20.700335 -42.572545C20.996094 -42.382812 21.199777 -42.148438 21.311384 -41.869420L25.295759 -32.628348C25.574777 -31.947545 25.714286 -31.261161 25.714286 -30.569196ZM25.714286 -30.569196"></path></svg>