<svg width="25.714286" height="25.714286" viewBox="0.000000 -49.285714 25.714286 25.714286" xmlns="http://www.w3.org/2000/svg"><path d="M23.973214 -33.816964C23.973214 -35.747768 22.667411 -37.081473 20.055804 -37.818080C19.665179 -37.929688 19.369420 -38.021763 19.168527 -38.094308C18.967634 -38.166853 18.755580 -38.306362 18.532366 -38.512835C18.309152 -38.719308 18.147321 -38.978795 18.046875 -39.291295C18.046875 -39.313616 18.035714 -39.361049 18.013393 -39.433594C17.991071 -39.506138 17.974330 -39.573103 17.963170 -39.634487C17.952009 -39.695871 17.946429 -39.737723 17.946429 -39.760045C17.946429 -40.161830 18.083147 -40.493862 18.356585 -40.756138C18.630022 -41.018415 18.967634 -41.149554 19.369420 -41.149554C19.972098 -41.149554 20.368304 -41.065848 20.558036 -40.898438L20.541295 -40.898438C20.764509 -40.731027 20.982143 -40.446429 21.194196 -40.044643L22.751116 -41.233259C22.315848 -41.835938 22.042411 -42.193080 21.930804 -42.304688C21.562500 -42.628348 21.185826 -42.845982 20.800781 -42.957589C20.415737 -43.069196 19.938616 -43.125000 19.369420 -43.125000C18.476562 -43.125000 17.684152 -42.804129 16.992188 -42.162388C16.300223 -41.520647 15.954241 -40.753348 15.954241 -39.860491C15.954241 -39.782366 15.965402 -39.654018 15.987723 -39.475446C16.166295 -38.404018 16.526228 -37.622768 17.067522 -37.131696C17.608817 -36.640625 18.437500 -36.233259 19.553571 -35.909598C19.877232 -35.820312 20.150670 -35.733817 20.373884 -35.650112C20.597098 -35.566406 20.848214 -35.446429 21.127232 -35.290179C21.406250 -35.133929 21.621094 -34.941406 21.771763 -34.712612C21.922433 -34.483817 21.997768 -34.224330 21.997768 -33.934152L21.997768 -33.850446C22.008929 -33.203125 21.782924 -32.684152 21.319754 -32.293527C20.856585 -31.902902 20.295759 -31.707589 19.637277 -31.707589C18.554688 -31.707589 17.622768 -32.511161 16.841518 -34.118304C16.584821 -34.642857 16.297433 -35.320871 15.979353 -36.152344C15.661272 -36.983817 15.393415 -37.684152 15.175781 -38.253348C14.958147 -38.822545 14.656808 -39.439174 14.271763 -40.103237C13.886719 -40.767299 13.473772 -41.300223 13.032924 -41.702009C12.592076 -42.103795 12.014509 -42.441406 11.300223 -42.714844C10.585938 -42.988281 9.765625 -43.125000 8.839286 -43.125000C7.712054 -43.125000 6.640625 -42.812500 5.625000 -42.187500C4.609375 -41.562500 3.805804 -40.736607 3.214286 -39.709821C2.622768 -38.683036 2.343750 -37.611607 2.377232 -36.495536L2.377232 -36.478795C2.421875 -35.273438 2.703683 -34.162946 3.222656 -33.147321C3.741629 -32.131696 4.486607 -31.308594 5.457589 -30.678013C6.428571 -30.047433 7.522321 -29.732143 8.738839 -29.732143C10.814732 -29.732143 12.371652 -30.345982 13.409598 -31.573661C13.632812 -31.875000 13.805804 -32.159598 13.928571 -32.427455L12.924107 -34.252232C12.455357 -33.359375 11.902902 -32.712054 11.266741 -32.310268C10.630580 -31.908482 9.815848 -31.707589 8.822545 -31.707589C7.539062 -31.707589 6.473214 -32.193080 5.625000 -33.164062C4.776786 -34.135045 4.352679 -35.273438 4.352679 -36.579241C4.352679 -37.751116 4.810268 -38.805804 5.725446 -39.743304C6.640625 -40.680804 7.678571 -41.149554 8.839286 -41.149554C10.089286 -41.149554 11.037946 -40.851004 11.685268 -40.253906C12.332589 -39.656808 12.912946 -38.694196 13.426339 -37.366071C13.515625 -37.131696 13.657924 -36.749442 13.853237 -36.219308C14.048549 -35.689174 14.207589 -35.262277 14.330357 -34.938616C14.453125 -34.614955 14.628906 -34.199219 14.857701 -33.691406C15.086496 -33.183594 15.301339 -32.770647 15.502232 -32.452567C15.703125 -32.134487 15.957031 -31.785714 16.263951 -31.406250C16.570871 -31.026786 16.880580 -30.728237 17.193080 -30.510603C17.505580 -30.292969 17.873884 -30.108817 18.297991 -29.958147C18.722098 -29.807478 19.168527 -29.732143 19.637277 -29.732143C20.831473 -29.732143 21.852679 -30.119978 22.700893 -30.895647C23.549107 -31.671317 23.973214 -32.645089 23.973214 -33.816964ZM25.714286 -44.464286L25.714286 -28.392857C25.714286 -27.064732 25.242746 -25.929129 24.299665 -24.986049C23.356585 -24.042969 22.220982 -23.571429 20.892857 -23.571429L4.821429 -23.571429C3.493304 -23.571429 2.357701 -24.042969 1.414621 -24.986049C0.471540 -25.929129 0.000000 -27.064732 0.000000 -28.392857L0.000000 -44.464286C0.000000 -45.792411 0.471540 -46.928013 1.414621 -47.871094C2.357701 -48.814174 3.493304 -49.285714 4.821429 -49.285714L20.892857 -49.285714C22.220982 -49.285714 23.356585 -48.814174 24.299665 -47.871094C25.242746 -46.928013 25.714286 -45.792411 25.714286 -44.464286ZM25.714286 -44.464286"></path></svg>