<svg width="30.000000" height="23.571429" viewBox="0.000000 -47.142857 30.000000 23.571429" xmlns="http://www.w3.org/2000/svg"><path d="M21.428571 -37.500000C21.428571 -37.790179 21.322545 -38.041295 21.110491 -38.253348C20.898438 -38.465402 20.647321 -38.571429 20.357143 -38.571429C18.437500 -38.571429 16.662946 -38.295201 15.033482 -37.742746C13.404018 -37.190290 11.955915 -36.442522 10.689174 -35.499442C9.422433 -34.556362 8.108259 -33.331473 6.746652 -31.824777C6.534598 -31.590402 6.428571 -31.339286 6.428571 -31.071429C6.428571 -30.781250 6.534598 -30.530134 6.746652 -30.318080C6.958705 -30.106027 7.209821 -30.000000 7.500000 -30.000000C7.767857 -30.000000 8.018973 -30.106027 8.253348 -30.318080C8.554688 -30.585938 8.967634 -30.982143 9.492188 -31.506696C10.016741 -32.031250 10.390625 -32.399554 10.613839 -32.611607C12.142857 -33.995536 13.641183 -34.977679 15.108817 -35.558036C16.576451 -36.138393 18.325893 -36.428571 20.357143 -36.428571C20.647321 -36.428571 20.898438 -36.534598 21.110491 -36.746652C21.322545 -36.958705 21.428571 -37.209821 21.428571 -37.500000ZM30.000000 -40.814732C30.000000 -39.754464 29.888393 -38.677455 29.665179 -37.583705C29.151786 -35.083705 28.122210 -32.946429 26.576451 -31.171875C25.030692 -29.397321 23.035714 -27.901786 20.591518 -26.685268C18.203125 -25.479911 15.758929 -24.877232 13.258929 -24.877232C11.607143 -24.877232 10.011161 -25.139509 8.470982 -25.664062C8.303571 -25.719866 7.812500 -25.954241 6.997768 -26.367187C6.183036 -26.780134 5.647321 -26.986607 5.390625 -26.986607C5.212054 -26.986607 4.991629 -26.808036 4.729353 -26.450893C4.467076 -26.093750 4.215960 -25.703125 3.976004 -25.279018C3.736049 -24.854911 3.443080 -24.464286 3.097098 -24.107143C2.751116 -23.750000 2.416295 -23.571429 2.092634 -23.571429C1.612723 -23.571429 1.258371 -23.669085 1.029576 -23.864397C0.800781 -24.059710 0.546875 -24.391741 0.267857 -24.860491C0.245536 -24.905134 0.212054 -24.966518 0.167411 -25.044643C0.122768 -25.122768 0.092076 -25.178571 0.075335 -25.212054C0.058594 -25.245536 0.041853 -25.298549 0.025112 -25.371094C0.008371 -25.443638 0.000000 -25.518973 0.000000 -25.597098C0.000000 -25.987723 0.172991 -26.397879 0.518973 -26.827567C0.864955 -27.257254 1.244420 -27.622768 1.657366 -27.924107C2.070312 -28.225446 2.449777 -28.537946 2.795759 -28.861607C3.141741 -29.185268 3.314732 -29.453125 3.314732 -29.665179C3.314732 -29.709821 3.236607 -29.921875 3.080357 -30.301339C2.924107 -30.680804 2.834821 -30.926339 2.812500 -31.037946C2.712054 -31.607143 2.661830 -32.187500 2.661830 -32.779018C2.661830 -34.062500 2.904576 -35.290179 3.390067 -36.462054C3.875558 -37.633929 4.539621 -38.663504 5.382254 -39.550781C6.224888 -40.438058 7.176339 -41.213728 8.236607 -41.877790C9.296875 -42.541853 10.435268 -43.074777 11.651786 -43.476562C12.265625 -43.677455 13.074777 -43.819754 14.079241 -43.903460C15.083705 -43.987165 16.085379 -44.037388 17.084263 -44.054129C18.083147 -44.070871 19.079241 -44.104353 20.072545 -44.154576C21.065848 -44.204799 21.978237 -44.338728 22.809710 -44.556362C23.641183 -44.773996 24.274554 -45.089286 24.709821 -45.502232C24.821429 -45.613839 24.986049 -45.778460 25.203683 -45.996094C25.421317 -46.213728 25.585938 -46.369978 25.697545 -46.464844C25.809152 -46.559710 25.959821 -46.671317 26.149554 -46.799665C26.339286 -46.928013 26.542969 -47.017299 26.760603 -47.067522C26.978237 -47.117746 27.220982 -47.142857 27.488839 -47.142857C27.924107 -47.142857 28.317522 -46.886161 28.669085 -46.372768C29.020647 -45.859375 29.285714 -45.234375 29.464286 -44.497768C29.642857 -43.761161 29.776786 -43.069196 29.866071 -42.421875C29.955357 -41.774554 30.000000 -41.238839 30.000000 -40.814732ZM30.000000 -40.814732"></path></svg>