<svg width="34.285714" height="23.420759" viewBox="0.000000 -44.698661 34.285714 23.420759" xmlns="http://www.w3.org/2000/svg"><path d="M31.690848 -42.572545L34.285714 -21.277902C32.823661 -21.277902 31.389509 -21.595982 29.983259 -22.232143C27.751116 -23.247768 25.558036 -23.755580 23.404018 -23.755580C20.881696 -23.755580 18.794643 -22.929688 17.142857 -21.277902C15.491071 -22.929688 13.404018 -23.755580 10.881696 -23.755580C8.727679 -23.755580 6.534598 -23.247768 4.302455 -22.232143C2.873884 -21.595982 1.467634 -21.277902 0.083705 -21.277902L0.000000 -21.277902L2.594866 -42.572545C5.094866 -43.989955 7.784598 -44.698661 10.664062 -44.698661C13.264509 -44.698661 15.424107 -44.107143 17.142857 -42.924107C18.861607 -44.107143 21.021205 -44.698661 23.621652 -44.698661C26.501116 -44.698661 29.190848 -43.989955 31.690848 -42.572545ZM23.404018 -26.049107C24.843750 -26.049107 26.138393 -25.890067 27.287946 -25.571987C28.437500 -25.253906 29.888393 -24.732143 31.640625 -24.006696L29.564732 -41.099330C27.656250 -41.969866 25.602679 -42.405134 23.404018 -42.405134C20.904018 -42.405134 18.816964 -41.618304 17.142857 -40.044643C15.468750 -41.618304 13.381696 -42.405134 10.881696 -42.405134C8.683036 -42.405134 6.629464 -41.969866 4.720982 -41.099330L2.645089 -24.006696C3.816964 -24.486607 4.740513 -24.849330 5.415737 -25.094866C6.090960 -25.340402 6.919643 -25.560826 7.901786 -25.756138C8.883929 -25.951451 9.877232 -26.049107 10.881696 -26.049107C13.136161 -26.049107 15.223214 -25.446429 17.142857 -24.241071C19.062500 -25.446429 21.149554 -26.049107 23.404018 -26.049107ZM23.404018 -26.635045C21.149554 -26.690848 19.062500 -26.121652 17.142857 -24.927455C15.301339 -26.065848 13.214286 -26.635045 10.881696 -26.635045C9.575893 -26.635045 8.339844 -26.495536 7.173549 -26.216518C6.007254 -25.937500 4.732143 -25.513393 3.348214 -24.944196L5.256696 -40.697545C7.042411 -41.434152 8.917411 -41.802455 10.881696 -41.802455C13.359375 -41.802455 15.446429 -40.937500 17.142857 -39.207589C18.794643 -40.892857 20.797991 -41.757812 23.152902 -41.802455L24.073661 -26.618304ZM23.404018 -26.635045"></path></svg>