<svg width="25.697545" height="25.714286" viewBox="0.000000 -49.285714 25.697545 25.714286" xmlns="http://www.w3.org/2000/svg"><path d="M23.554688 -37.600446C23.554688 -38.091518 23.515625 -38.724888 23.437500 -39.500558C23.359375 -40.276228 23.258929 -40.814732 23.136161 -41.116071C23.002232 -41.450893 22.907366 -41.696429 22.851562 -41.852679C22.795759 -42.008929 22.745536 -42.212612 22.700893 -42.463728C22.656250 -42.714844 22.633929 -42.985491 22.633929 -43.275670C22.633929 -43.532366 22.661830 -43.914621 22.717634 -44.422433C22.773438 -44.930246 22.801339 -45.306920 22.801339 -45.552455C22.801339 -45.965402 22.745536 -46.272321 22.633929 -46.473214C22.589286 -46.484375 22.516741 -46.489955 22.416295 -46.489955C22.204241 -46.489955 21.880580 -46.464844 21.445312 -46.414621C21.010045 -46.364397 20.680804 -46.339286 20.457589 -46.339286C19.787946 -46.339286 18.805804 -46.473214 17.511161 -46.741071C16.216518 -47.008929 15.239955 -47.142857 14.581473 -47.142857C14.101562 -47.142857 13.574219 -47.078683 12.999442 -46.950335C12.424665 -46.821987 11.950335 -46.690848 11.576451 -46.556920C11.202567 -46.422991 10.703125 -46.233259 10.078125 -45.987723C8.549107 -45.385045 7.421875 -44.810268 6.696429 -44.263393C5.625000 -43.448661 4.734933 -42.391183 4.026228 -41.090960C3.317522 -39.790737 2.826451 -38.473772 2.553013 -37.140067C2.279576 -35.806362 2.142857 -34.419643 2.142857 -32.979911C2.142857 -32.533482 2.212612 -31.863839 2.352121 -30.970982C2.491629 -30.078125 2.561384 -29.402902 2.561384 -28.945312C2.561384 -28.688616 2.500000 -28.317522 2.377232 -27.832031C2.254464 -27.346540 2.193080 -26.981027 2.193080 -26.735491C2.193080 -26.489955 2.260045 -26.286272 2.393973 -26.124442C2.527902 -25.962612 2.717634 -25.881696 2.963170 -25.881696C3.231027 -25.881696 3.635603 -25.943080 4.176897 -26.065848C4.718192 -26.188616 5.128348 -26.250000 5.407366 -26.250000C6.043527 -26.250000 6.989397 -26.163504 8.244978 -25.990513C9.500558 -25.817522 10.446429 -25.731027 11.082589 -25.731027C13.102679 -25.731027 14.687500 -25.931920 15.837054 -26.333705C17.276786 -26.835937 18.590960 -27.686942 19.779576 -28.886719C20.968192 -30.086496 21.894531 -31.456473 22.558594 -32.996652C23.222656 -34.536830 23.554688 -36.071429 23.554688 -37.600446ZM25.697545 -37.633929C25.697545 -35.792411 25.306920 -33.964844 24.525670 -32.151228C23.744420 -30.337612 22.650670 -28.730469 21.244420 -27.329799C19.838170 -25.929129 18.270089 -24.921875 16.540179 -24.308036C15.156250 -23.816964 13.337054 -23.571429 11.082589 -23.571429C10.446429 -23.571429 9.497768 -23.652344 8.236607 -23.814174C6.975446 -23.976004 6.032366 -24.056920 5.407366 -24.056920C5.139509 -24.056920 4.734933 -23.976004 4.193638 -23.814174C3.652344 -23.652344 3.242188 -23.571429 2.963170 -23.571429C2.148438 -23.571429 1.459263 -23.881138 0.895647 -24.500558C0.332031 -25.119978 0.050223 -25.837054 0.050223 -26.651786C0.050223 -26.919643 0.111607 -27.299107 0.234375 -27.790179C0.357143 -28.281250 0.418527 -28.655134 0.418527 -28.911830C0.418527 -29.358259 0.348772 -30.030692 0.209263 -30.929129C0.069754 -31.827567 0.000000 -32.505580 0.000000 -32.963170C0.000000 -34.202009 0.100446 -35.415737 0.301339 -36.604353C0.502232 -37.792969 0.806362 -38.962054 1.213728 -40.111607C1.621094 -41.261161 2.181920 -42.343750 2.896205 -43.359375C3.610491 -44.375000 4.447545 -45.245536 5.407366 -45.970982C6.277902 -46.629464 7.572545 -47.299107 9.291295 -47.979911C11.456473 -48.850446 13.219866 -49.285714 14.581473 -49.285714C15.251116 -49.285714 16.230469 -49.151786 17.519531 -48.883929C18.808594 -48.616071 19.776786 -48.482143 20.424107 -48.482143C20.636161 -48.482143 20.954241 -48.510045 21.378348 -48.565848C21.802455 -48.621652 22.126116 -48.649554 22.349330 -48.649554C23.253348 -48.649554 23.911830 -48.367746 24.324777 -47.804129C24.737723 -47.240513 24.944196 -46.489955 24.944196 -45.552455C24.944196 -45.295759 24.916295 -44.916295 24.860491 -44.414062C24.804688 -43.911830 24.776786 -43.532366 24.776786 -43.275670C24.776786 -43.130580 24.787946 -42.991071 24.810268 -42.857143C24.832589 -42.723214 24.852121 -42.631138 24.868862 -42.580915C24.885603 -42.530692 24.927455 -42.416295 24.994420 -42.237723C25.061384 -42.059152 25.106027 -41.947545 25.128348 -41.902902C25.306920 -41.456473 25.446429 -40.795201 25.546875 -39.919085C25.647321 -39.042969 25.697545 -38.281250 25.697545 -37.633929ZM25.697545 -37.633929"></path></svg>