<svg width="17.282366" height="23.554688" viewBox="-0.039062 -47.109375 17.282366 23.554688" xmlns="http://www.w3.org/2000/svg"><path d="M17.042411 -39.174107C16.841518 -38.761161 16.517857 -38.554688 16.071429 -38.554688L12.857143 -38.554688L12.857143 -24.090402C12.857143 -23.934152 12.806920 -23.805804 12.706473 -23.705357C12.606027 -23.604911 12.477679 -23.554688 12.321429 -23.554688L0.535714 -23.554688C0.301339 -23.554688 0.139509 -23.655134 0.050223 -23.856027C-0.039062 -24.079241 -0.016741 -24.274554 0.117188 -24.441964L2.795759 -27.656250C2.896205 -27.779018 3.035714 -27.840402 3.214286 -27.840402L8.571429 -27.840402L8.571429 -38.554688L5.357143 -38.554688C4.910714 -38.554688 4.587054 -38.761161 4.386161 -39.174107C4.196429 -39.587054 4.246652 -39.966518 4.536830 -40.312500L9.893973 -46.741071C10.094866 -46.986607 10.368304 -47.109375 10.714286 -47.109375C11.060268 -47.109375 11.333705 -46.986607 11.534598 -46.741071L16.891741 -40.312500C17.193080 -39.955357 17.243304 -39.575893 17.042411 -39.174107ZM17.042411 -39.174107"></path></svg>