<svg width="17.142857" height="25.714286" viewBox="0.000000 -49.285714 17.142857 25.714286" xmlns="http://www.w3.org/2000/svg"><path d="M12.321429 -41.785714C12.321429 -41.640625 12.268415 -41.515067 12.162388 -41.409040C12.056362 -41.303013 11.930804 -41.250000 11.785714 -41.250000C11.640625 -41.250000 11.515067 -41.303013 11.409040 -41.409040C11.303013 -41.515067 11.250000 -41.640625 11.250000 -41.785714C11.250000 -42.299107 10.948661 -42.695312 10.345982 -42.974330C9.743304 -43.253348 9.151786 -43.392857 8.571429 -43.392857C8.426339 -43.392857 8.300781 -43.445871 8.194754 -43.551897C8.088728 -43.657924 8.035714 -43.783482 8.035714 -43.928571C8.035714 -44.073661 8.088728 -44.199219 8.194754 -44.305246C8.300781 -44.411272 8.426339 -44.464286 8.571429 -44.464286C9.129464 -44.464286 9.684710 -44.375000 10.237165 -44.196429C10.789621 -44.017857 11.275112 -43.716518 11.693638 -43.292411C12.112165 -42.868304 12.321429 -42.366071 12.321429 -41.785714ZM15.000000 -41.785714C15.000000 -42.589286 14.807478 -43.337054 14.422433 -44.029018C14.037388 -44.720982 13.535156 -45.287388 12.915737 -45.728237C12.296317 -46.169085 11.609933 -46.515067 10.856585 -46.766183C10.103237 -47.017299 9.341518 -47.142857 8.571429 -47.142857C7.801339 -47.142857 7.039621 -47.017299 6.286272 -46.766183C5.532924 -46.515067 4.846540 -46.169085 4.227121 -45.728237C3.607701 -45.287388 3.105469 -44.720982 2.720424 -44.029018C2.335379 -43.337054 2.142857 -42.589286 2.142857 -41.785714C2.142857 -40.658482 2.522321 -39.654018 3.281250 -38.772321C3.392857 -38.649554 3.563058 -38.465402 3.791853 -38.219866C4.020647 -37.974330 4.190848 -37.790179 4.302455 -37.667411C5.731027 -35.959821 6.517857 -34.296875 6.662946 -32.678571L10.479911 -32.678571C10.625000 -34.296875 11.411830 -35.959821 12.840402 -37.667411C12.952009 -37.790179 13.122210 -37.974330 13.351004 -38.219866C13.579799 -38.465402 13.750000 -38.649554 13.861607 -38.772321C14.620536 -39.654018 15.000000 -40.658482 15.000000 -41.785714ZM17.142857 -41.785714C17.142857 -40.055804 16.568080 -38.560268 15.418527 -37.299107C14.916295 -36.752232 14.500558 -36.266741 14.171317 -35.842634C13.842076 -35.418527 13.510045 -34.885603 13.175223 -34.243862C12.840402 -33.602121 12.650670 -33.002232 12.606027 -32.444196C13.130580 -32.131696 13.392857 -31.674107 13.392857 -31.071429C13.392857 -30.658482 13.253348 -30.301339 12.974330 -30.000000C13.253348 -29.698661 13.392857 -29.341518 13.392857 -28.928571C13.392857 -28.348214 13.141741 -27.896205 12.639509 -27.572545C12.784598 -27.315848 12.857143 -27.053571 12.857143 -26.785714C12.857143 -26.272321 12.681362 -25.876116 12.329799 -25.597098C11.978237 -25.318080 11.545759 -25.178571 11.032366 -25.178571C10.809152 -24.687500 10.474330 -24.296875 10.027902 -24.006696C9.581473 -23.716518 9.095982 -23.571429 8.571429 -23.571429C8.046875 -23.571429 7.561384 -23.716518 7.114955 -24.006696C6.668527 -24.296875 6.333705 -24.687500 6.110491 -25.178571C5.597098 -25.178571 5.164621 -25.318080 4.813058 -25.597098C4.461496 -25.876116 4.285714 -26.272321 4.285714 -26.785714C4.285714 -27.053571 4.358259 -27.315848 4.503348 -27.572545C4.001116 -27.896205 3.750000 -28.348214 3.750000 -28.928571C3.750000 -29.341518 3.889509 -29.698661 4.168527 -30.000000C3.889509 -30.301339 3.750000 -30.658482 3.750000 -31.071429C3.750000 -31.674107 4.012277 -32.131696 4.536830 -32.444196C4.492188 -33.002232 4.302455 -33.602121 3.967634 -34.243862C3.632812 -34.885603 3.300781 -35.418527 2.971540 -35.842634C2.642299 -36.266741 2.226562 -36.752232 1.724330 -37.299107C0.574777 -38.560268 0.000000 -40.055804 0.000000 -41.785714C0.000000 -42.890625 0.248326 -43.920201 0.744978 -44.874442C1.241629 -45.828683 1.894531 -46.621094 2.703683 -47.251674C3.512835 -47.882254 4.428013 -48.378906 5.449219 -48.741629C6.470424 -49.104353 7.511161 -49.285714 8.571429 -49.285714C9.631696 -49.285714 10.672433 -49.104353 11.693638 -48.741629C12.714844 -48.378906 13.630022 -47.882254 14.439174 -47.251674C15.248326 -46.621094 15.901228 -45.828683 16.397879 -44.874442C16.894531 -43.920201 17.142857 -42.890625 17.142857 -41.785714ZM17.142857 -41.785714"></path></svg>