<svg width="25.714286" height="24.575893" viewBox="0.000000 -47.812500 25.714286 24.575893" xmlns="http://www.w3.org/2000/svg"><path d="M5.842634 -39.827009L5.842634 -23.236607L0.318080 -23.236607L0.318080 -39.827009ZM6.194196 -44.949777C6.205357 -44.135045 5.923549 -43.454241 5.348772 -42.907366C4.773996 -42.360491 4.017857 -42.087054 3.080357 -42.087054L3.046875 -42.087054C2.131696 -42.087054 1.395089 -42.360491 0.837054 -42.907366C0.279018 -43.454241 0.000000 -44.135045 0.000000 -44.949777C0.000000 -45.775670 0.287388 -46.459263 0.862165 -47.000558C1.436942 -47.541853 2.187500 -47.812500 3.113839 -47.812500C4.040179 -47.812500 4.782366 -47.541853 5.340402 -47.000558C5.898438 -46.459263 6.183036 -45.775670 6.194196 -44.949777ZM25.714286 -32.745536L25.714286 -23.236607L20.206473 -23.236607L20.206473 -32.109375C20.206473 -33.281250 19.980469 -34.199219 19.528460 -34.863281C19.076451 -35.527344 18.370536 -35.859375 17.410714 -35.859375C16.707589 -35.859375 16.118862 -35.666853 15.644531 -35.281808C15.170201 -34.896763 14.815848 -34.419643 14.581473 -33.850446C14.458705 -33.515625 14.397321 -33.063616 14.397321 -32.494420L14.397321 -23.236607L8.889509 -23.236607C8.911830 -27.689732 8.922991 -31.300223 8.922991 -34.068080C8.922991 -36.835938 8.917411 -38.487723 8.906250 -39.023438L8.889509 -39.827009L14.397321 -39.827009L14.397321 -37.416295L14.363839 -37.416295C14.587054 -37.773438 14.815848 -38.085938 15.050223 -38.353795C15.284598 -38.621652 15.599888 -38.911830 15.996094 -39.224330C16.392299 -39.536830 16.877790 -39.779576 17.452567 -39.952567C18.027344 -40.125558 18.666295 -40.212054 19.369420 -40.212054C21.277902 -40.212054 22.812500 -39.578683 23.973214 -38.311942C25.133929 -37.045201 25.714286 -35.189732 25.714286 -32.745536ZM25.714286 -32.745536"></path></svg>