<svg width="25.714286" height="25.714286" viewBox="0.000000 -49.285714 25.714286 25.714286" xmlns="http://www.w3.org/2000/svg"><path d="M3.967634 -27.756696L7.834821 -27.756696L7.834821 -39.375000L3.967634 -39.375000ZM8.085938 -42.957589C8.074777 -43.537946 7.873884 -44.017857 7.483259 -44.397321C7.092634 -44.776786 6.573661 -44.966518 5.926339 -44.966518C5.279018 -44.966518 4.751674 -44.776786 4.344308 -44.397321C3.936942 -44.017857 3.733259 -43.537946 3.733259 -42.957589C3.733259 -42.388393 3.931362 -41.911272 4.327567 -41.526228C4.723772 -41.141183 5.239955 -40.948661 5.876116 -40.948661L5.892857 -40.948661C6.551339 -40.948661 7.081473 -41.141183 7.483259 -41.526228C7.885045 -41.911272 8.085938 -42.388393 8.085938 -42.957589ZM17.879464 -27.756696L21.746652 -27.756696L21.746652 -34.419643C21.746652 -36.138393 21.339286 -37.438616 20.524554 -38.320312C19.709821 -39.202009 18.632812 -39.642857 17.293527 -39.642857C15.775670 -39.642857 14.609375 -38.989955 13.794643 -37.684152L13.828125 -37.684152L13.828125 -39.375000L9.960938 -39.375000C9.994420 -38.638393 9.994420 -34.765625 9.960938 -27.756696L13.828125 -27.756696L13.828125 -34.252232C13.828125 -34.676339 13.867188 -34.988839 13.945312 -35.189732C14.112723 -35.580357 14.363839 -35.912388 14.698661 -36.185826C15.033482 -36.459263 15.446429 -36.595982 15.937500 -36.595982C17.232143 -36.595982 17.879464 -35.719866 17.879464 -33.967634ZM25.714286 -44.464286L25.714286 -28.392857C25.714286 -27.064732 25.242746 -25.929129 24.299665 -24.986049C23.356585 -24.042969 22.220982 -23.571429 20.892857 -23.571429L4.821429 -23.571429C3.493304 -23.571429 2.357701 -24.042969 1.414621 -24.986049C0.471540 -25.929129 0.000000 -27.064732 0.000000 -28.392857L0.000000 -44.464286C0.000000 -45.792411 0.471540 -46.928013 1.414621 -47.871094C2.357701 -48.814174 3.493304 -49.285714 4.821429 -49.285714L20.892857 -49.285714C22.220982 -49.285714 23.356585 -48.814174 24.299665 -47.871094C25.242746 -46.928013 25.714286 -45.792411 25.714286 -44.464286ZM25.714286 -44.464286"></path></svg>