<svg width="19.285714" height="23.571429" viewBox="0.000000 -47.142857 19.285714 23.571429" xmlns="http://www.w3.org/2000/svg"><path d="M5.357143 -36.428571L13.928571 -36.428571L13.928571 -39.642857C13.928571 -40.825893 13.510045 -41.835938 12.672991 -42.672991C11.835938 -43.510045 10.825893 -43.928571 9.642857 -43.928571C8.459821 -43.928571 7.449777 -43.510045 6.612723 -42.672991C5.775670 -41.835938 5.357143 -40.825893 5.357143 -39.642857ZM19.285714 -34.821429L19.285714 -25.178571C19.285714 -24.732143 19.129464 -24.352679 18.816964 -24.040179C18.504464 -23.727679 18.125000 -23.571429 17.678571 -23.571429L1.607143 -23.571429C1.160714 -23.571429 0.781250 -23.727679 0.468750 -24.040179C0.156250 -24.352679 0.000000 -24.732143 0.000000 -25.178571L0.000000 -34.821429C0.000000 -35.267857 0.156250 -35.647321 0.468750 -35.959821C0.781250 -36.272321 1.160714 -36.428571 1.607143 -36.428571L2.142857 -36.428571L2.142857 -39.642857C2.142857 -41.696429 2.879464 -43.459821 4.352679 -44.933036C5.825893 -46.406250 7.589286 -47.142857 9.642857 -47.142857C11.696429 -47.142857 13.459821 -46.406250 14.933036 -44.933036C16.406250 -43.459821 17.142857 -41.696429 17.142857 -39.642857L17.142857 -36.428571L17.678571 -36.428571C18.125000 -36.428571 18.504464 -36.272321 18.816964 -35.959821C19.129464 -35.647321 19.285714 -35.267857 19.285714 -34.821429ZM19.285714 -34.821429"></path></svg>