<svg width="28.928571" height="12.935268" viewBox="1.071429 -30.117188 28.928571 12.935268" xmlns="http://www.w3.org/2000/svg"><path d="M30.000000 -25.256696L30.000000 -22.042411C30.000000 -21.886161 29.949777 -21.757812 29.849330 -21.657366C29.748884 -21.556920 29.620536 -21.506696 29.464286 -21.506696L8.571429 -21.506696L8.571429 -17.756696C8.571429 -17.522321 8.465402 -17.360491 8.253348 -17.271205C8.041295 -17.181920 7.845982 -17.209821 7.667411 -17.354911L1.238839 -23.214286C1.127232 -23.325893 1.071429 -23.454241 1.071429 -23.599330C1.071429 -23.755580 1.127232 -23.889509 1.238839 -24.001116L7.667411 -29.927455C7.845982 -30.083705 8.041295 -30.117188 8.253348 -30.027902C8.465402 -29.927455 8.571429 -29.765625 8.571429 -29.542411L8.571429 -25.792411L29.464286 -25.792411C29.620536 -25.792411 29.748884 -25.742188 29.849330 -25.641741C29.949777 -25.541295 30.000000 -25.412946 30.000000 -25.256696ZM30.000000 -25.256696"></path></svg>