<svg width="28.928571" height="12.935268" viewBox="0.000000 -30.117188 28.928571 12.935268" xmlns="http://www.w3.org/2000/svg"><path d="M28.928571 -23.699777C28.928571 -23.543527 28.872768 -23.409598 28.761161 -23.297991L22.332589 -17.371652C22.154018 -17.215402 21.958705 -17.181920 21.746652 -17.271205C21.534598 -17.371652 21.428571 -17.533482 21.428571 -17.756696L21.428571 -21.506696L0.535714 -21.506696C0.379464 -21.506696 0.251116 -21.556920 0.150670 -21.657366C0.050223 -21.757812 0.000000 -21.886161 0.000000 -22.042411L0.000000 -25.256696C0.000000 -25.412946 0.050223 -25.541295 0.150670 -25.641741C0.251116 -25.742188 0.379464 -25.792411 0.535714 -25.792411L21.428571 -25.792411L21.428571 -29.542411C21.428571 -29.776786 21.534598 -29.938616 21.746652 -30.027902C21.958705 -30.117188 22.154018 -30.089286 22.332589 -29.944196L28.761161 -24.084821C28.872768 -23.973214 28.928571 -23.844866 28.928571 -23.699777ZM28.928571 -23.699777"></path></svg>