<svg width="25.714286" height="25.714286" viewBox="0.000000 -49.285714 25.714286 25.714286" xmlns="http://www.w3.org/2000/svg"><path d="M21.947545 -37.332589L21.947545 -35.424107C21.947545 -35.156250 21.872210 -34.944196 21.721540 -34.787946C21.570871 -34.631696 21.361607 -34.553571 21.093750 -34.553571L17.712054 -34.553571C17.444196 -34.553571 17.232143 -34.631696 17.075893 -34.787946C16.919643 -34.944196 16.841518 -35.156250 16.841518 -35.424107L16.841518 -37.332589C16.841518 -37.600446 16.919643 -37.812500 17.075893 -37.968750C17.232143 -38.125000 17.444196 -38.203125 17.712054 -38.203125L21.093750 -38.203125C21.361607 -38.203125 21.570871 -38.125000 21.721540 -37.968750C21.872210 -37.812500 21.947545 -37.600446 21.947545 -37.332589ZM13.744420 -33.482143L13.744420 -37.667411C13.744420 -38.258929 13.563058 -38.736049 13.200335 -39.098772C12.837612 -39.461496 12.360491 -39.642857 11.768973 -39.642857L9.542411 -39.642857C8.783482 -39.642857 8.247768 -39.352679 7.935268 -38.772321C7.622768 -39.352679 7.087054 -39.642857 6.328125 -39.642857L4.151786 -39.642857C3.560268 -39.642857 3.083147 -39.461496 2.720424 -39.098772C2.357701 -38.736049 2.176339 -38.258929 2.176339 -37.667411L2.176339 -33.482143C2.176339 -33.236607 2.293527 -33.113839 2.527902 -33.113839L3.448661 -33.113839C3.694196 -33.113839 3.816964 -33.236607 3.816964 -33.482143L3.816964 -37.332589C3.816964 -37.600446 3.892299 -37.812500 4.042969 -37.968750C4.193638 -38.125000 4.408482 -38.203125 4.687500 -38.203125L6.261161 -38.203125C6.529018 -38.203125 6.741071 -38.125000 6.897321 -37.968750C7.053571 -37.812500 7.131696 -37.600446 7.131696 -37.332589L7.131696 -33.482143C7.131696 -33.236607 7.248884 -33.113839 7.483259 -33.113839L8.387277 -33.113839C8.632812 -33.113839 8.755580 -33.236607 8.755580 -33.482143L8.755580 -37.332589C8.755580 -37.600446 8.833705 -37.812500 8.989955 -37.968750C9.146205 -38.125000 9.358259 -38.203125 9.626116 -38.203125L11.250000 -38.203125C11.517857 -38.203125 11.727121 -38.125000 11.877790 -37.968750C12.028460 -37.812500 12.103795 -37.600446 12.103795 -37.332589L12.103795 -33.482143C12.103795 -33.236607 12.226562 -33.113839 12.472098 -33.113839L13.392857 -33.113839C13.627232 -33.113839 13.744420 -33.236607 13.744420 -33.482143ZM23.604911 -35.089286L23.604911 -37.667411C23.604911 -38.258929 23.420759 -38.736049 23.052455 -39.098772C22.684152 -39.461496 22.204241 -39.642857 21.612723 -39.642857L17.193080 -39.642857C16.601562 -39.642857 16.121652 -39.461496 15.753348 -39.098772C15.385045 -38.736049 15.200893 -38.258929 15.200893 -37.667411L15.200893 -30.803571C15.200893 -30.569196 15.323661 -30.452009 15.569196 -30.452009L16.489955 -30.452009C16.724330 -30.452009 16.841518 -30.569196 16.841518 -30.803571L16.841518 -33.816964C17.187500 -33.348214 17.712054 -33.113839 18.415179 -33.113839L21.612723 -33.113839C22.204241 -33.113839 22.684152 -33.295201 23.052455 -33.657924C23.420759 -34.020647 23.604911 -34.497768 23.604911 -35.089286ZM25.714286 -45.401786L25.714286 -27.455357C25.714286 -26.383929 25.334821 -25.468750 24.575893 -24.709821C23.816964 -23.950893 22.901786 -23.571429 21.830357 -23.571429L3.883929 -23.571429C2.812500 -23.571429 1.897321 -23.950893 1.138393 -24.709821C0.379464 -25.468750 0.000000 -26.383929 0.000000 -27.455357L0.000000 -45.401786C0.000000 -46.473214 0.379464 -47.388393 1.138393 -48.147321C1.897321 -48.906250 2.812500 -49.285714 3.883929 -49.285714L21.830357 -49.285714C22.901786 -49.285714 23.816964 -48.906250 24.575893 -48.147321C25.334821 -47.388393 25.714286 -46.473214 25.714286 -45.401786ZM25.714286 -45.401786"></path></svg>