<svg width="25.714286" height="27.857143" viewBox="0.000000 -51.428571 25.714286 27.857143" xmlns="http://www.w3.org/2000/svg"><path d="M25.714286 -49.821429L25.714286 -31.071429C25.714286 -30.513393 25.524554 -30.016741 25.145089 -29.581473C24.765625 -29.146205 24.285714 -28.808594 23.705357 -28.568638C23.125000 -28.328683 22.547433 -28.150112 21.972656 -28.032924C21.397879 -27.915737 20.859375 -27.857143 20.357143 -27.857143C19.854911 -27.857143 19.316406 -27.915737 18.741629 -28.032924C18.166853 -28.150112 17.589286 -28.328683 17.008929 -28.568638C16.428571 -28.808594 15.948661 -29.146205 15.569196 -29.581473C15.189732 -30.016741 15.000000 -30.513393 15.000000 -31.071429C15.000000 -31.629464 15.189732 -32.126116 15.569196 -32.561384C15.948661 -32.996652 16.428571 -33.334263 17.008929 -33.574219C17.589286 -33.814174 18.166853 -33.992746 18.741629 -34.109933C19.316406 -34.227121 19.854911 -34.285714 20.357143 -34.285714C21.529018 -34.285714 22.600446 -34.068080 23.571429 -33.632812L23.571429 -42.622768L10.714286 -38.655134L10.714286 -26.785714C10.714286 -26.227679 10.524554 -25.731027 10.145089 -25.295759C9.765625 -24.860491 9.285714 -24.522879 8.705357 -24.282924C8.125000 -24.042969 7.547433 -23.864397 6.972656 -23.747210C6.397879 -23.630022 5.859375 -23.571429 5.357143 -23.571429C4.854911 -23.571429 4.316406 -23.630022 3.741629 -23.747210C3.166853 -23.864397 2.589286 -24.042969 2.008929 -24.282924C1.428571 -24.522879 0.948661 -24.860491 0.569196 -25.295759C0.189732 -25.731027 0.000000 -26.227679 0.000000 -26.785714C0.000000 -27.343750 0.189732 -27.840402 0.569196 -28.275670C0.948661 -28.710937 1.428571 -29.048549 2.008929 -29.288504C2.589286 -29.528460 3.166853 -29.707031 3.741629 -29.824219C4.316406 -29.941406 4.854911 -30.000000 5.357143 -30.000000C6.529018 -30.000000 7.600446 -29.782366 8.571429 -29.347098L8.571429 -45.535714C8.571429 -45.881696 8.677455 -46.196987 8.889509 -46.481585C9.101562 -46.766183 9.375000 -46.964286 9.709821 -47.075893L23.638393 -51.361607C23.772321 -51.406250 23.928571 -51.428571 24.107143 -51.428571C24.553571 -51.428571 24.933036 -51.272321 25.245536 -50.959821C25.558036 -50.647321 25.714286 -50.267857 25.714286 -49.821429ZM25.714286 -49.821429"></path></svg>