<svg width="34.285714" height="23.571429" viewBox="0.000000 -47.142857 34.285714 23.571429" xmlns="http://www.w3.org/2000/svg"><path d="M17.142857 -40.714286L10.714286 -40.714286L10.714286 -34.285714L17.142857 -34.285714ZM19.285714 -30.000000L19.285714 -27.857143L8.571429 -27.857143L8.571429 -30.000000ZM19.285714 -42.857143L19.285714 -32.142857L8.571429 -32.142857L8.571429 -42.857143ZM30.000000 -30.000000L30.000000 -27.857143L21.428571 -27.857143L21.428571 -30.000000ZM30.000000 -34.285714L30.000000 -32.142857L21.428571 -32.142857L21.428571 -34.285714ZM30.000000 -38.571429L30.000000 -36.428571L21.428571 -36.428571L21.428571 -38.571429ZM30.000000 -42.857143L30.000000 -40.714286L21.428571 -40.714286L21.428571 -42.857143ZM4.285714 -26.785714L4.285714 -42.857143L2.142857 -42.857143L2.142857 -26.785714C2.142857 -26.495536 2.248884 -26.244420 2.460938 -26.032366C2.672991 -25.820312 2.924107 -25.714286 3.214286 -25.714286C3.504464 -25.714286 3.755580 -25.820312 3.967634 -26.032366C4.179688 -26.244420 4.285714 -26.495536 4.285714 -26.785714ZM32.142857 -26.785714L32.142857 -45.000000L6.428571 -45.000000L6.428571 -26.785714C6.428571 -26.417411 6.367188 -26.060268 6.244420 -25.714286L31.071429 -25.714286C31.361607 -25.714286 31.612723 -25.820312 31.824777 -26.032366C32.036830 -26.244420 32.142857 -26.495536 32.142857 -26.785714ZM34.285714 -47.142857L34.285714 -26.785714C34.285714 -25.892857 33.973214 -25.133929 33.348214 -24.508929C32.723214 -23.883929 31.964286 -23.571429 31.071429 -23.571429L3.214286 -23.571429C2.321429 -23.571429 1.562500 -23.883929 0.937500 -24.508929C0.312500 -25.133929 0.000000 -25.892857 0.000000 -26.785714L0.000000 -45.000000L4.285714 -45.000000L4.285714 -47.142857ZM34.285714 -47.142857"></path></svg>