<svg width="23.437500" height="25.580357" viewBox="0.066964 -49.084821 23.437500 25.580357" xmlns="http://www.w3.org/2000/svg"><path d="M23.504464 -28.108259C23.504464 -26.802455 23.063616 -25.708705 22.181920 -24.827009C21.300223 -23.945312 20.206473 -23.504464 18.900670 -23.504464C17.393973 -23.504464 16.082589 -24.062500 14.966518 -25.178571L1.958705 -38.169643C0.697545 -39.453125 0.066964 -40.965402 0.066964 -42.706473C0.066964 -44.481027 0.680804 -45.987723 1.908482 -47.226562C3.136161 -48.465402 4.637277 -49.084821 6.411830 -49.084821C8.175223 -49.084821 9.698661 -48.454241 10.982143 -47.193080L21.110491 -37.047991C21.222098 -36.936384 21.277902 -36.813616 21.277902 -36.679688C21.277902 -36.501116 21.107701 -36.241629 20.767299 -35.901228C20.426897 -35.560826 20.167411 -35.390625 19.988839 -35.390625C19.843750 -35.390625 19.715402 -35.446429 19.603795 -35.558036L9.458705 -45.719866C8.577009 -46.579241 7.566964 -47.008929 6.428571 -47.008929C5.245536 -47.008929 4.246652 -46.590402 3.431920 -45.753348C2.617188 -44.916295 2.209821 -43.906250 2.209821 -42.723214C2.209821 -41.551339 2.633929 -40.541295 3.482143 -39.693080L16.473214 -26.685268C17.176339 -25.982143 17.985491 -25.630580 18.900670 -25.630580C19.614955 -25.630580 20.206473 -25.864955 20.675223 -26.333705C21.143973 -26.802455 21.378348 -27.393973 21.378348 -28.108259C21.378348 -29.023438 21.026786 -29.832589 20.323661 -30.535714L10.597098 -40.262277C10.306920 -40.530134 9.972098 -40.664062 9.592634 -40.664062C9.268973 -40.664062 9.001116 -40.558036 8.789062 -40.345982C8.577009 -40.133929 8.470982 -39.866071 8.470982 -39.542411C8.470982 -39.185268 8.610491 -38.856027 8.889509 -38.554688L15.753348 -31.690848C15.864955 -31.579241 15.920759 -31.456473 15.920759 -31.322545C15.920759 -31.143973 15.747768 -30.881696 15.401786 -30.535714C15.055804 -30.189732 14.793527 -30.016741 14.614955 -30.016741C14.481027 -30.016741 14.358259 -30.072545 14.246652 -30.184152L7.382812 -37.047991C6.679688 -37.728795 6.328125 -38.560268 6.328125 -39.542411C6.328125 -40.457589 6.646205 -41.233259 7.282366 -41.869420C7.918527 -42.505580 8.694196 -42.823661 9.609375 -42.823661C10.591518 -42.823661 11.422991 -42.472098 12.103795 -41.768973L21.830357 -32.042411C22.946429 -30.948661 23.504464 -29.637277 23.504464 -28.108259ZM23.504464 -28.108259"></path></svg>