<svg width="32.745536" height="29.832589" viewBox="0.686384 -55.530134 32.745536 29.832589" xmlns="http://www.w3.org/2000/svg"><path d="M20.457589 -39.994420C21.294643 -40.027902 22.095424 -39.913504 22.859933 -39.651228C23.624442 -39.388951 24.282924 -39.062500 24.835379 -38.671875C25.387835 -38.281250 25.951451 -37.753906 26.526228 -37.089844C27.101004 -36.425781 27.569754 -35.823103 27.932478 -35.281808C28.295201 -34.740513 28.716518 -34.068080 29.196429 -33.264509C29.564732 -32.639509 30.002790 -32.031250 30.510603 -31.439732C31.018415 -30.848214 31.439732 -30.398996 31.774554 -30.092076C32.109375 -29.785156 32.661830 -29.291295 33.431920 -28.610491C32.896205 -28.275670 32.290737 -27.954799 31.615513 -27.647879C30.940290 -27.340960 30.167411 -27.011719 29.296875 -26.660156C28.426339 -26.308594 27.790179 -26.043527 27.388393 -25.864955C26.897321 -26.277902 26.484375 -26.919643 26.149554 -27.790179C25.814732 -28.660714 25.571987 -29.578683 25.421317 -30.544085C25.270647 -31.509487 25.086496 -32.516741 24.868862 -33.565848C24.651228 -34.614955 24.414062 -35.555246 24.157366 -36.386719C23.900670 -37.218192 23.496094 -37.904576 22.943638 -38.445871C22.391183 -38.987165 21.707589 -39.257812 20.892857 -39.257812L20.725446 -39.224330L20.625000 -39.157366C20.669643 -39.101562 20.742188 -39.023438 20.842634 -38.922991C20.909598 -38.867188 21.065848 -38.736049 21.311384 -38.529576C21.556920 -38.323103 21.699219 -38.200335 21.738281 -38.161272C21.777344 -38.122210 21.883371 -38.021763 22.056362 -37.859933C22.229353 -37.698103 22.329799 -37.583705 22.357701 -37.516741C22.385603 -37.449777 22.449777 -37.332589 22.550223 -37.165179C22.650670 -36.997768 22.709263 -36.844308 22.726004 -36.704799C22.742746 -36.565290 22.767857 -36.392299 22.801339 -36.185826C22.834821 -35.979353 22.857143 -35.753348 22.868304 -35.507812L22.885045 -34.955357C22.896205 -34.665179 22.882254 -34.344308 22.843192 -33.992746C22.804129 -33.641183 22.762277 -33.351004 22.717634 -33.122210C22.672991 -32.893415 22.603237 -32.566964 22.508371 -32.142857C22.413504 -31.718750 22.349330 -31.422991 22.315848 -31.255580C21.925223 -31.266741 21.361607 -31.213728 20.625000 -31.096540C19.888393 -30.979353 19.341518 -30.920759 18.984375 -30.920759C18.549107 -30.920759 18.147321 -30.976562 17.779018 -31.088170C17.756696 -31.266741 17.745536 -31.529018 17.745536 -31.875000C17.745536 -32.700893 17.762277 -33.236607 17.795759 -33.482143C17.818080 -33.627232 17.993862 -33.858817 18.323103 -34.176897C18.652344 -34.494978 18.970424 -34.824219 19.277344 -35.164621C19.584263 -35.505022 19.732143 -35.792411 19.720982 -36.026786C19.453125 -36.049107 19.213170 -35.915179 19.001116 -35.625000C18.599330 -35.033482 17.977121 -34.478237 17.134487 -33.959263C16.291853 -33.440290 15.530134 -33.180804 14.849330 -33.180804C14.570312 -33.180804 14.148996 -33.532366 13.585379 -34.235491C13.021763 -34.938616 12.427455 -35.717076 11.802455 -36.570871C11.177455 -37.424665 10.708705 -37.963170 10.396205 -38.186384C10.329241 -38.231027 10.178571 -38.398438 9.944196 -38.688616C4.564732 -37.438616 1.702009 -36.813616 1.356027 -36.813616C1.177455 -36.813616 1.021205 -36.875000 0.887277 -36.997768C0.753348 -37.120536 0.686384 -37.271205 0.686384 -37.449777C0.686384 -37.617188 0.733817 -37.765067 0.828683 -37.893415C0.923549 -38.021763 1.049107 -38.102679 1.205357 -38.136161L9.341518 -39.910714C9.252232 -40.066964 9.207589 -40.206473 9.207589 -40.329241C9.207589 -40.452009 9.238281 -40.549665 9.299665 -40.622210C9.361049 -40.694754 9.450335 -40.758929 9.567522 -40.814732C9.684710 -40.870536 9.796317 -40.909598 9.902344 -40.931920C10.008371 -40.954241 10.136719 -40.979353 10.287388 -41.007254C10.438058 -41.035156 10.541295 -41.060268 10.597098 -41.082589C10.641741 -41.093750 10.728237 -41.135603 10.856585 -41.208147C10.984933 -41.280692 11.082589 -41.316964 11.149554 -41.316964C11.316964 -41.316964 11.473214 -41.227679 11.618304 -41.049107C11.763393 -40.870536 11.875000 -40.686384 11.953125 -40.496652C13.772321 -40.909598 14.732143 -41.116071 14.832589 -41.116071C15.022321 -41.116071 15.186942 -41.054688 15.326451 -40.931920C15.465960 -40.809152 15.535714 -40.652902 15.535714 -40.463170C15.535714 -40.295759 15.488281 -40.150670 15.393415 -40.027902C15.298549 -39.905134 15.167411 -39.827009 15.000000 -39.793527L11.953125 -39.123884L11.936384 -38.856027C11.925223 -38.565848 12.380022 -37.910156 13.300781 -36.888951C14.221540 -35.867746 14.804688 -35.357143 15.050223 -35.357143C15.574777 -35.357143 16.238839 -35.803571 17.042411 -36.696429C17.845982 -37.589286 18.247768 -38.309152 18.247768 -38.856027C18.247768 -39.257812 18.116629 -39.553571 17.854353 -39.743304C17.592076 -39.933036 17.307478 -40.036272 17.000558 -40.053013C16.693638 -40.069754 16.409040 -40.133929 16.146763 -40.245536C15.884487 -40.357143 15.753348 -40.546875 15.753348 -40.814732C15.753348 -40.993304 15.809152 -41.183036 15.920759 -41.383929L14.782366 -41.702009C15.262277 -42.193080 15.502232 -42.845982 15.502232 -43.660714C15.502232 -43.950893 15.474330 -44.274554 15.418527 -44.631696C16.333705 -44.810268 17.137277 -44.899554 17.829241 -44.899554C18.320312 -44.899554 18.719308 -44.891183 19.026228 -44.874442C19.333147 -44.857701 19.603795 -44.810268 19.838170 -44.732143C20.072545 -44.654018 20.245536 -44.578683 20.357143 -44.506138C20.468750 -44.433594 20.583147 -44.296875 20.700335 -44.095982C20.817522 -43.895089 20.904018 -43.708147 20.959821 -43.535156C21.015625 -43.362165 21.110491 -43.097098 21.244420 -42.739955C21.378348 -42.382812 21.512277 -42.047991 21.646205 -41.735491L22.483259 -42.154018C22.449777 -41.707589 22.321429 -41.372768 22.098214 -41.149554C21.875000 -40.926339 21.637835 -40.809152 21.386719 -40.797991C21.135603 -40.786830 20.912388 -40.750558 20.717076 -40.689174C20.521763 -40.627790 20.429688 -40.513393 20.440848 -40.345982ZM21.462054 -43.928571C21.406250 -43.984375 21.330915 -44.070871 21.236049 -44.188058C21.141183 -44.305246 21.074219 -44.386161 21.035156 -44.430804C20.996094 -44.475446 20.937500 -44.539621 20.859375 -44.623326C20.781250 -44.707031 20.725446 -44.765625 20.691964 -44.799107C20.658482 -44.832589 20.613839 -44.877232 20.558036 -44.933036C20.502232 -44.988839 20.454799 -45.030692 20.415737 -45.058594C20.376674 -45.086496 20.332031 -45.114397 20.281808 -45.142299C20.231585 -45.170201 20.184152 -45.195312 20.139509 -45.217634C20.061384 -45.251116 19.980469 -45.279018 19.896763 -45.301339C19.813058 -45.323661 19.698661 -45.337612 19.553571 -45.343192C19.408482 -45.348772 19.285714 -45.351562 19.185268 -45.351562C19.084821 -45.351562 18.903460 -45.351562 18.641183 -45.351562C18.378906 -45.351562 18.169643 -45.351562 18.013393 -45.351562C16.607143 -45.351562 15.396205 -45.111607 14.380580 -44.631696C14.559152 -44.966518 14.760045 -45.226004 14.983259 -45.410156C15.206473 -45.594308 15.507812 -45.758929 15.887277 -45.904018C16.266741 -46.049107 16.632254 -46.250000 16.983817 -46.506696C17.335379 -46.763393 17.592076 -46.967076 17.753906 -47.117746C17.915737 -47.268415 18.194754 -47.575335 18.590960 -48.038504C18.987165 -48.501674 19.229911 -48.783482 19.319196 -48.883929C19.453125 -48.783482 19.609375 -48.607701 19.787946 -48.356585C19.966518 -48.105469 20.145089 -47.901786 20.323661 -47.745536C20.502232 -47.589286 20.714286 -47.516741 20.959821 -47.527902L21.160714 -47.544643L21.160714 -46.272321L21.529018 -46.255580C24.285714 -47.315848 26.356027 -48.376116 27.739955 -49.436384C28.052455 -49.670759 28.331473 -49.888393 28.577009 -50.089286C28.822545 -50.290179 29.059710 -50.499442 29.288504 -50.717076C29.517299 -50.934710 29.701451 -51.107701 29.840960 -51.236049C29.980469 -51.364397 30.145089 -51.554129 30.334821 -51.805246C30.524554 -52.056362 30.658482 -52.229353 30.736607 -52.324219C30.814732 -52.419085 30.951451 -52.625558 31.146763 -52.943638C31.342076 -53.261719 31.470424 -53.473772 31.531808 -53.579799C31.593192 -53.685826 31.743862 -53.950893 31.983817 -54.375000C32.223772 -54.799107 32.388393 -55.094866 32.477679 -55.262277L32.594866 -55.412946C32.572545 -54.821429 32.332589 -54.045759 31.875000 -53.085938C30.993304 -51.244420 29.849330 -49.771205 28.443080 -48.666295C27.036830 -47.561384 25.329241 -46.768973 23.320312 -46.289062C23.164062 -46.255580 22.929688 -46.213728 22.617188 -46.163504C22.304688 -46.113281 22.025670 -46.060268 21.780134 -46.004464C21.534598 -45.948661 21.316964 -45.870536 21.127232 -45.770089C21.160714 -45.558036 21.297433 -45.301339 21.537388 -45.000000C21.777344 -44.698661 21.897321 -44.508929 21.897321 -44.430804C21.897321 -44.308036 21.752232 -44.140625 21.462054 -43.928571ZM17.762277 -28.510045C18.197545 -28.800223 18.931362 -29.065290 19.963728 -29.305246C20.996094 -29.545201 21.813616 -29.665179 22.416295 -29.665179C22.516741 -29.665179 22.642299 -29.578683 22.792969 -29.405692C22.943638 -29.232701 23.099888 -28.995536 23.261719 -28.694196C23.423549 -28.392857 23.568638 -28.113839 23.696987 -27.857143C23.825335 -27.600446 23.959263 -27.315848 24.098772 -27.003348C24.238281 -26.690848 24.319196 -26.506696 24.341518 -26.450893C22.991071 -25.948661 21.629464 -25.697545 20.256696 -25.697545C19.575893 -25.697545 18.878348 -25.758929 18.164062 -25.881696ZM13.761161 -39.341518L14.564732 -39.542411L16.389509 -36.579241L15.167411 -35.775670ZM22.148438 -30.686384C22.181920 -30.518973 22.198661 -30.429688 22.198661 -30.418527C22.198661 -30.340402 22.101004 -30.259487 21.905692 -30.175781C21.710379 -30.092076 21.453683 -30.019531 21.135603 -29.958147C20.817522 -29.896763 20.516183 -29.843750 20.231585 -29.799107C19.946987 -29.754464 19.648438 -29.712612 19.335938 -29.673549C19.023438 -29.634487 18.844866 -29.609375 18.800223 -29.598214L18.683036 -30.318080C18.917411 -30.340402 19.255022 -30.387835 19.695871 -30.460379C20.136719 -30.532924 20.538504 -30.588728 20.901228 -30.627790C21.263951 -30.666853 21.601562 -30.686384 21.914062 -30.686384ZM14.497768 -41.199777L12.890625 -40.864955L12.790179 -41.149554C12.901786 -41.160714 13.083147 -41.199777 13.334263 -41.266741C13.585379 -41.333705 13.777902 -41.367188 13.911830 -41.367188C14.123884 -41.367188 14.319196 -41.311384 14.497768 -41.199777ZM17.762277 -30.585938L18.281250 -30.585938L18.448661 -29.196429L17.762277 -28.995536ZM32.645089 -55.530134L32.628348 -55.446429L32.594866 -55.412946L32.611607 -55.463170ZM32.645089 -55.530134"></path></svg>