<svg width="25.714286" height="25.714286" viewBox="0.000000 -49.285714 25.714286 25.714286" xmlns="http://www.w3.org/2000/svg"><path d="M20.892857 -49.285714C22.220982 -49.285714 23.356585 -48.814174 24.299665 -47.871094C25.242746 -46.928013 25.714286 -45.792411 25.714286 -44.464286L25.714286 -28.392857C25.714286 -27.064732 25.242746 -25.929129 24.299665 -24.986049C23.356585 -24.042969 22.220982 -23.571429 20.892857 -23.571429L8.755580 -23.571429C9.704241 -24.933036 10.306920 -26.104911 10.563616 -27.087054C10.664062 -27.466518 10.959821 -28.632812 11.450893 -30.585937C11.685268 -30.150670 12.095424 -29.776786 12.681362 -29.464286C13.267299 -29.151786 13.895089 -28.995536 14.564732 -28.995536C16.584821 -28.995536 18.233817 -29.818638 19.511719 -31.464844C20.789621 -33.111049 21.428571 -35.195312 21.428571 -37.717634C21.428571 -38.655134 21.233259 -39.561942 20.842634 -40.438058C20.452009 -41.314174 19.913504 -42.089844 19.227121 -42.765067C18.540737 -43.440290 17.689732 -43.981585 16.674107 -44.388951C15.658482 -44.796317 14.559152 -45.000000 13.376116 -45.000000C12.215402 -45.000000 11.130022 -44.840960 10.119978 -44.522879C9.109933 -44.204799 8.256138 -43.777902 7.558594 -43.242188C6.861049 -42.706473 6.261161 -42.095424 5.758929 -41.409040C5.256696 -40.722656 4.885603 -40.008371 4.645647 -39.266183C4.405692 -38.523996 4.285714 -37.784598 4.285714 -37.047991C4.285714 -35.909598 4.506138 -34.905134 4.946987 -34.034598C5.387835 -33.164062 6.037946 -32.550223 6.897321 -32.193080C7.042411 -32.137277 7.173549 -32.137277 7.290737 -32.193080C7.407924 -32.248884 7.488839 -32.354911 7.533482 -32.511161C7.645089 -33.002232 7.728795 -33.342634 7.784598 -33.532366C7.851562 -33.789062 7.790179 -34.023438 7.600446 -34.235491C7.042411 -34.927455 6.763393 -35.764509 6.763393 -36.746652C6.763393 -38.420759 7.340960 -39.852121 8.496094 -41.040737C9.651228 -42.229353 11.160714 -42.823661 13.024554 -42.823661C14.687500 -42.823661 15.984933 -42.371652 16.916853 -41.467634C17.848772 -40.563616 18.314732 -39.391741 18.314732 -37.952009C18.314732 -36.077009 17.938058 -34.481027 17.184710 -33.164062C16.431362 -31.847098 15.463170 -31.188616 14.280134 -31.188616C13.610491 -31.188616 13.069196 -31.431362 12.656250 -31.916853C12.243304 -32.402344 12.114955 -32.979911 12.271205 -33.649554C12.360491 -34.029018 12.508371 -34.545201 12.714844 -35.198103C12.921317 -35.851004 13.085938 -36.420201 13.208705 -36.905692C13.331473 -37.391183 13.392857 -37.806920 13.392857 -38.152902C13.392857 -38.699777 13.244978 -39.154576 12.949219 -39.517299C12.653460 -39.880022 12.232143 -40.061384 11.685268 -40.061384C11.004464 -40.061384 10.426897 -39.746094 9.952567 -39.115513C9.478237 -38.484933 9.241071 -37.706473 9.241071 -36.780134C9.241071 -35.976562 9.375000 -35.301339 9.642857 -34.754464L8.002232 -27.823661C7.734375 -26.707589 7.695312 -25.290179 7.885045 -23.571429L4.821429 -23.571429C3.493304 -23.571429 2.357701 -24.042969 1.414621 -24.986049C0.471540 -25.929129 0.000000 -27.064732 0.000000 -28.392857L0.000000 -44.464286C0.000000 -45.792411 0.471540 -46.928013 1.414621 -47.871094C2.357701 -48.814174 3.493304 -49.285714 4.821429 -49.285714ZM20.892857 -49.285714"></path></svg>