<svg width="23.604911" height="23.593750" viewBox="-0.011161 -47.187500 23.604911 23.593750" xmlns="http://www.w3.org/2000/svg"><path d="M23.035714 -46.629464C23.526786 -46.049107 23.593750 -45.223214 23.236607 -44.151786C22.879464 -43.080357 22.276786 -42.120536 21.428571 -41.272321L18.733259 -38.577009L21.411830 -26.925223C21.467634 -26.713170 21.400670 -26.529018 21.210938 -26.372768L19.068080 -24.765625C18.989955 -24.698661 18.883929 -24.665179 18.750000 -24.665179C18.705357 -24.665179 18.666295 -24.670759 18.632812 -24.681920C18.465402 -24.715402 18.348214 -24.804688 18.281250 -24.949777L13.610491 -33.454241L9.274554 -29.118304L10.161830 -25.870536C10.217634 -25.680804 10.172991 -25.507812 10.027902 -25.351562L8.420759 -23.744420C8.320312 -23.643973 8.191964 -23.593750 8.035714 -23.593750L8.002232 -23.593750C7.834821 -23.616071 7.700893 -23.688616 7.600446 -23.811384L4.436384 -28.030134L0.217634 -31.194196C0.094866 -31.272321 0.022321 -31.400670 0.000000 -31.579241C-0.011161 -31.724330 0.039062 -31.863839 0.150670 -31.997768L1.757812 -33.621652C1.858259 -33.722098 1.986607 -33.772321 2.142857 -33.772321C2.209821 -33.772321 2.254464 -33.766741 2.276786 -33.755580L5.524554 -32.868304L9.860491 -37.204241L1.356027 -41.875000C1.199777 -41.964286 1.104911 -42.098214 1.071429 -42.276786C1.049107 -42.455357 1.099330 -42.606027 1.222098 -42.728795L3.364955 -44.871652C3.521205 -45.016741 3.688616 -45.061384 3.867188 -45.005580L15.000000 -42.343750L17.678571 -45.022321C18.526786 -45.870536 19.486607 -46.473214 20.558036 -46.830357C21.629464 -47.187500 22.455357 -47.120536 23.035714 -46.629464ZM23.035714 -46.629464"></path></svg>