<svg width="25.714286" height="25.714286" viewBox="0.000000 -49.285714 25.714286 25.714286" xmlns="http://www.w3.org/2000/svg"><path d="M25.295759 -33.750000C25.295759 -33.694196 25.290179 -33.655134 25.279018 -33.632812C24.564732 -30.641741 23.069196 -28.217076 20.792411 -26.358817C18.515625 -24.500558 15.848214 -23.571429 12.790179 -23.571429C11.160714 -23.571429 9.584263 -23.878348 8.060826 -24.492187C6.537388 -25.106027 5.178571 -25.982143 3.984375 -27.120536L1.824777 -24.960937C1.612723 -24.748884 1.361607 -24.642857 1.071429 -24.642857C0.781250 -24.642857 0.530134 -24.748884 0.318080 -24.960937C0.106027 -25.172991 0.000000 -25.424107 0.000000 -25.714286L0.000000 -33.214286C0.000000 -33.504464 0.106027 -33.755580 0.318080 -33.967634C0.530134 -34.179688 0.781250 -34.285714 1.071429 -34.285714L8.571429 -34.285714C8.861607 -34.285714 9.112723 -34.179688 9.324777 -33.967634C9.536830 -33.755580 9.642857 -33.504464 9.642857 -33.214286C9.642857 -32.924107 9.536830 -32.672991 9.324777 -32.460938L7.031250 -30.167411C7.823661 -29.430804 8.722098 -28.861607 9.726562 -28.459821C10.731027 -28.058036 11.774554 -27.857143 12.857143 -27.857143C14.352679 -27.857143 15.747768 -28.219866 17.042411 -28.945312C18.337054 -29.670759 19.375000 -30.669643 20.156250 -31.941964C20.279018 -32.131696 20.574777 -32.784598 21.043527 -33.900670C21.132812 -34.157366 21.300223 -34.285714 21.545759 -34.285714L24.760045 -34.285714C24.905134 -34.285714 25.030692 -34.232701 25.136719 -34.126674C25.242746 -34.020647 25.295759 -33.895089 25.295759 -33.750000ZM25.714286 -47.142857L25.714286 -39.642857C25.714286 -39.352679 25.608259 -39.101562 25.396205 -38.889509C25.184152 -38.677455 24.933036 -38.571429 24.642857 -38.571429L17.142857 -38.571429C16.852679 -38.571429 16.601562 -38.677455 16.389509 -38.889509C16.177455 -39.101562 16.071429 -39.352679 16.071429 -39.642857C16.071429 -39.933036 16.177455 -40.184152 16.389509 -40.396205L18.699777 -42.706473C17.047991 -44.235491 15.100446 -45.000000 12.857143 -45.000000C11.361607 -45.000000 9.966518 -44.637277 8.671875 -43.911830C7.377232 -43.186384 6.339286 -42.187500 5.558036 -40.915179C5.435268 -40.725446 5.139509 -40.072545 4.670759 -38.956473C4.581473 -38.699777 4.414062 -38.571429 4.168527 -38.571429L0.837054 -38.571429C0.691964 -38.571429 0.566406 -38.624442 0.460379 -38.730469C0.354353 -38.836496 0.301339 -38.962054 0.301339 -39.107143L0.301339 -39.224330C1.026786 -42.215402 2.533482 -44.640067 4.821429 -46.498326C7.109375 -48.356585 9.787946 -49.285714 12.857143 -49.285714C14.486607 -49.285714 16.071429 -48.976004 17.611607 -48.356585C19.151786 -47.737165 20.518973 -46.863839 21.713170 -45.736607L23.889509 -47.896205C24.101562 -48.108259 24.352679 -48.214286 24.642857 -48.214286C24.933036 -48.214286 25.184152 -48.108259 25.396205 -47.896205C25.608259 -47.684152 25.714286 -47.433036 25.714286 -47.142857ZM25.714286 -47.142857"></path></svg>