<svg width="30.000000" height="26.891741" viewBox="0.000000 -51.640625 30.000000 26.891741" xmlns="http://www.w3.org/2000/svg"><path d="M10.714286 -34.492188L10.714286 -33.320312C10.714286 -32.851562 10.496652 -32.522321 10.061384 -32.332589C9.916295 -32.276786 9.776786 -32.248884 9.642857 -32.248884C9.341518 -32.248884 9.090402 -32.354911 8.889509 -32.566964L0.318080 -41.138393C0.106027 -41.350446 0.000000 -41.601562 0.000000 -41.891741C0.000000 -42.181920 0.106027 -42.433036 0.318080 -42.645089L8.889509 -51.216518C9.213170 -51.562500 9.603795 -51.640625 10.061384 -51.450893C10.496652 -51.261161 10.714286 -50.931920 10.714286 -50.463170L10.714286 -49.308036L4.068080 -42.645089C3.856027 -42.433036 3.750000 -42.181920 3.750000 -41.891741C3.750000 -41.601562 3.856027 -41.350446 4.068080 -41.138393ZM30.000000 -33.856027C30.000000 -33.208705 29.905134 -32.463728 29.715402 -31.621094C29.525670 -30.778460 29.310826 -30.008371 29.070871 -29.310826C28.830915 -28.613281 28.563058 -27.915737 28.267299 -27.218192C27.971540 -26.520647 27.745536 -26.015625 27.589286 -25.703125C27.433036 -25.390625 27.321429 -25.167411 27.254464 -25.033482C27.165179 -24.843750 27.008929 -24.748884 26.785714 -24.748884C26.718750 -24.748884 26.668527 -24.754464 26.635045 -24.765625C26.356027 -24.854911 26.227679 -25.044643 26.250000 -25.334821C26.729911 -29.799107 26.138393 -32.952009 24.475446 -34.793527C23.761161 -35.585938 22.809710 -36.202567 21.621094 -36.643415C20.432478 -37.084263 18.939732 -37.377232 17.142857 -37.522321L17.142857 -33.320312C17.142857 -32.851562 16.925223 -32.522321 16.489955 -32.332589C16.344866 -32.276786 16.205357 -32.248884 16.071429 -32.248884C15.770089 -32.248884 15.518973 -32.354911 15.318080 -32.566964L6.746652 -41.138393C6.534598 -41.350446 6.428571 -41.601562 6.428571 -41.891741C6.428571 -42.181920 6.534598 -42.433036 6.746652 -42.645089L15.318080 -51.216518C15.641741 -51.562500 16.032366 -51.640625 16.489955 -51.450893C16.925223 -51.261161 17.142857 -50.931920 17.142857 -50.463170L17.142857 -46.077009C21.729911 -45.764509 25.072545 -44.531250 27.170759 -42.377232C29.056920 -40.446429 30.000000 -37.606027 30.000000 -33.856027ZM30.000000 -33.856027"></path></svg>