<svg width="25.714286" height="25.714286" viewBox="0.000000 -49.285714 25.714286 25.714286" xmlns="http://www.w3.org/2000/svg"><path d="M25.714286 -47.142857L25.714286 -39.642857C25.714286 -39.352679 25.608259 -39.101562 25.396205 -38.889509C25.184152 -38.677455 24.933036 -38.571429 24.642857 -38.571429L17.142857 -38.571429C16.674107 -38.571429 16.344866 -38.794643 16.155134 -39.241071C15.965402 -39.676339 16.043527 -40.061384 16.389509 -40.396205L18.699777 -42.706473C17.047991 -44.235491 15.100446 -45.000000 12.857143 -45.000000C11.696429 -45.000000 10.588728 -44.773996 9.534040 -44.321987C8.479353 -43.869978 7.566964 -43.258929 6.796875 -42.488839C6.026786 -41.718750 5.415737 -40.806362 4.963728 -39.751674C4.511719 -38.696987 4.285714 -37.589286 4.285714 -36.428571C4.285714 -35.267857 4.511719 -34.160156 4.963728 -33.105469C5.415737 -32.050781 6.026786 -31.138393 6.796875 -30.368304C7.566964 -29.598214 8.479353 -28.987165 9.534040 -28.535156C10.588728 -28.083147 11.696429 -27.857143 12.857143 -27.857143C14.185268 -27.857143 15.440848 -28.147321 16.623884 -28.727679C17.806920 -29.308036 18.805804 -30.128348 19.620536 -31.188616C19.698661 -31.300223 19.827009 -31.367187 20.005580 -31.389509C20.172991 -31.389509 20.312500 -31.339286 20.424107 -31.238839L22.717634 -28.928571C22.818080 -28.839286 22.871094 -28.724888 22.876674 -28.585379C22.882254 -28.445871 22.840402 -28.320312 22.751116 -28.208705C21.534598 -26.735491 20.061384 -25.594308 18.331473 -24.785156C16.601562 -23.976004 14.776786 -23.571429 12.857143 -23.571429C11.116071 -23.571429 9.453125 -23.911830 7.868304 -24.592634C6.283482 -25.273437 4.916295 -26.188616 3.766741 -27.338170C2.617188 -28.487723 1.702009 -29.854911 1.021205 -31.439732C0.340402 -33.024554 0.000000 -34.687500 0.000000 -36.428571C0.000000 -38.169643 0.340402 -39.832589 1.021205 -41.417411C1.702009 -43.002232 2.617188 -44.369420 3.766741 -45.518973C4.916295 -46.668527 6.283482 -47.583705 7.868304 -48.264509C9.453125 -48.945312 11.116071 -49.285714 12.857143 -49.285714C14.497768 -49.285714 16.085379 -48.976004 17.619978 -48.356585C19.154576 -47.737165 20.518973 -46.863839 21.713170 -45.736607L23.889509 -47.896205C24.213170 -48.242188 24.603795 -48.320312 25.061384 -48.130580C25.496652 -47.940848 25.714286 -47.611607 25.714286 -47.142857ZM25.714286 -47.142857"></path></svg>