<svg width="15.033482" height="23.571429" viewBox="0.000000 -47.142857 15.033482 23.571429" xmlns="http://www.w3.org/2000/svg"><path d="M15.033482 -41.417411L15.033482 -39.709821C15.033482 -39.553571 14.983259 -39.425223 14.882812 -39.324777C14.782366 -39.224330 14.654018 -39.174107 14.497768 -39.174107L11.685268 -39.174107C11.428571 -37.566964 10.708705 -36.261161 9.525670 -35.256696C8.342634 -34.252232 6.802455 -33.638393 4.905134 -33.415179C6.768973 -31.428571 9.330357 -28.437500 12.589286 -24.441964C12.745536 -24.263393 12.767857 -24.073661 12.656250 -23.872768C12.566964 -23.671875 12.405134 -23.571429 12.170759 -23.571429L8.906250 -23.571429C8.727679 -23.571429 8.588170 -23.638393 8.487723 -23.772321C5.072545 -27.868304 2.293527 -31.054688 0.150670 -33.331473C0.050223 -33.431920 0.000000 -33.554688 0.000000 -33.699777L0.000000 -35.825893C0.000000 -35.970982 0.053013 -36.096540 0.159040 -36.202567C0.265067 -36.308594 0.390625 -36.361607 0.535714 -36.361607L2.410714 -36.361607C3.883929 -36.361607 5.069754 -36.601562 5.968192 -37.081473C6.866629 -37.561384 7.438616 -38.258929 7.684152 -39.174107L0.535714 -39.174107C0.379464 -39.174107 0.251116 -39.224330 0.150670 -39.324777C0.050223 -39.425223 0.000000 -39.553571 0.000000 -39.709821L0.000000 -41.417411C0.000000 -41.573661 0.050223 -41.702009 0.150670 -41.802455C0.251116 -41.902902 0.379464 -41.953125 0.535714 -41.953125L7.449777 -41.953125C6.813616 -43.214286 5.318080 -43.844866 2.963170 -43.844866L0.535714 -43.844866C0.390625 -43.844866 0.265067 -43.897879 0.159040 -44.003906C0.053013 -44.109933 0.000000 -44.235491 0.000000 -44.380580L0.000000 -46.607143C0.000000 -46.763393 0.050223 -46.891741 0.150670 -46.992188C0.251116 -47.092634 0.379464 -47.142857 0.535714 -47.142857L14.464286 -47.142857C14.620536 -47.142857 14.748884 -47.092634 14.849330 -46.992188C14.949777 -46.891741 15.000000 -46.763393 15.000000 -46.607143L15.000000 -44.899554C15.000000 -44.743304 14.949777 -44.614955 14.849330 -44.514509C14.748884 -44.414062 14.620536 -44.363839 14.464286 -44.363839L10.563616 -44.363839C11.088170 -43.683036 11.445312 -42.879464 11.635045 -41.953125L14.497768 -41.953125C14.654018 -41.953125 14.782366 -41.902902 14.882812 -41.802455C14.983259 -41.702009 15.033482 -41.573661 15.033482 -41.417411ZM15.033482 -41.417411"></path></svg>