<svg width="27.857143" height="25.714286" viewBox="0.000000 -51.428571 27.857143 25.714286" xmlns="http://www.w3.org/2000/svg"><path d="M23.571429 -34.871652L23.571429 -30.535714C23.571429 -29.207589 23.099888 -28.071987 22.156808 -27.128906C21.213728 -26.185826 20.078125 -25.714286 18.750000 -25.714286L4.821429 -25.714286C3.493304 -25.714286 2.357701 -26.185826 1.414621 -27.128906C0.471540 -28.071987 0.000000 -29.207589 0.000000 -30.535714L0.000000 -44.464286C0.000000 -45.792411 0.471540 -46.928013 1.414621 -47.871094C2.357701 -48.814174 3.493304 -49.285714 4.821429 -49.285714L9.090402 -49.285714C9.235491 -49.285714 9.361049 -49.232701 9.467076 -49.126674C9.573103 -49.020647 9.626116 -48.895089 9.626116 -48.750000C9.626116 -48.448661 9.481027 -48.270089 9.190848 -48.214286C8.331473 -47.924107 7.589286 -47.589286 6.964286 -47.209821C6.852679 -47.165179 6.763393 -47.142857 6.696429 -47.142857L4.821429 -47.142857C4.084821 -47.142857 3.454241 -46.880580 2.929688 -46.356027C2.405134 -45.831473 2.142857 -45.200893 2.142857 -44.464286L2.142857 -30.535714C2.142857 -29.799107 2.405134 -29.168527 2.929688 -28.643973C3.454241 -28.119420 4.084821 -27.857143 4.821429 -27.857143L18.750000 -27.857143C19.486607 -27.857143 20.117188 -28.119420 20.641741 -28.643973C21.166295 -29.168527 21.428571 -29.799107 21.428571 -30.535714L21.428571 -34.118304C21.428571 -34.330357 21.529018 -34.492188 21.729911 -34.603795C22.042411 -34.748884 22.343750 -34.955357 22.633929 -35.223214C22.812500 -35.401786 23.007812 -35.446429 23.219866 -35.357143C23.454241 -35.256696 23.571429 -35.094866 23.571429 -34.871652ZM27.539062 -43.175223L21.110491 -36.746652C20.909598 -36.534598 20.658482 -36.428571 20.357143 -36.428571C20.223214 -36.428571 20.083705 -36.456473 19.938616 -36.512277C19.503348 -36.702009 19.285714 -37.031250 19.285714 -37.500000L19.285714 -40.714286L16.607143 -40.714286C13.002232 -40.714286 10.558036 -39.983259 9.274554 -38.521205C7.946429 -36.992188 7.533482 -34.352679 8.035714 -30.602679C8.069196 -30.345982 7.957589 -30.156250 7.700893 -30.033482C7.611607 -30.011161 7.544643 -30.000000 7.500000 -30.000000C7.321429 -30.000000 7.176339 -30.072545 7.064732 -30.217634C6.953125 -30.373884 6.835937 -30.546875 6.713170 -30.736607C6.590402 -30.926339 6.369978 -31.308594 6.051897 -31.883371C5.733817 -32.458147 5.457589 -33.013393 5.223214 -33.549107C4.988839 -34.084821 4.773996 -34.720982 4.578683 -35.457589C4.383371 -36.194196 4.285714 -36.875000 4.285714 -37.500000C4.285714 -38.046875 4.305246 -38.554688 4.344308 -39.023438C4.383371 -39.492188 4.461496 -39.994420 4.578683 -40.530134C4.695871 -41.065848 4.852121 -41.556920 5.047433 -42.003348C5.242746 -42.449777 5.505022 -42.904576 5.834263 -43.367746C6.163504 -43.830915 6.545759 -44.243862 6.981027 -44.606585C7.416295 -44.969308 7.943638 -45.312500 8.563058 -45.636161C9.182478 -45.959821 9.877232 -46.230469 10.647321 -46.448103C11.417411 -46.665737 12.307478 -46.835938 13.317522 -46.958705C14.327567 -47.081473 15.424107 -47.142857 16.607143 -47.142857L19.285714 -47.142857L19.285714 -50.357143C19.285714 -50.825893 19.503348 -51.155134 19.938616 -51.344866C20.083705 -51.400670 20.223214 -51.428571 20.357143 -51.428571C20.647321 -51.428571 20.898438 -51.322545 21.110491 -51.110491L27.539062 -44.681920C27.751116 -44.469866 27.857143 -44.218750 27.857143 -43.928571C27.857143 -43.638393 27.751116 -43.387277 27.539062 -43.175223ZM27.539062 -43.175223"></path></svg>