<svg width="25.714286" height="25.714286" viewBox="0.000000 -49.285714 25.714286 25.714286" xmlns="http://www.w3.org/2000/svg"><path d="M21.428571 -31.422991C21.428571 -32.405134 21.079799 -33.247768 20.382254 -33.950893C19.684710 -34.654018 18.844866 -35.005580 17.862723 -35.005580C16.925223 -35.005580 16.116071 -34.681920 15.435268 -34.034598L11.400670 -36.043527C11.422991 -36.222098 11.434152 -36.350446 11.434152 -36.428571C11.434152 -36.506696 11.422991 -36.635045 11.400670 -36.813616L15.435268 -38.822545C16.116071 -38.175223 16.925223 -37.851562 17.862723 -37.851562C18.844866 -37.851562 19.684710 -38.203125 20.382254 -38.906250C21.079799 -39.609375 21.428571 -40.452009 21.428571 -41.434152C21.428571 -42.416295 21.079799 -43.256138 20.382254 -43.953683C19.684710 -44.651228 18.844866 -45.000000 17.862723 -45.000000C16.880580 -45.000000 16.037946 -44.651228 15.334821 -43.953683C14.631696 -43.256138 14.280134 -42.416295 14.280134 -41.434152C14.280134 -41.356027 14.291295 -41.227679 14.313616 -41.049107L10.279018 -39.040179C9.587054 -39.676339 8.777902 -39.994420 7.851562 -39.994420C6.869420 -39.994420 6.029576 -39.645647 5.332031 -38.948103C4.634487 -38.250558 4.285714 -37.410714 4.285714 -36.428571C4.285714 -35.446429 4.634487 -34.606585 5.332031 -33.909040C6.029576 -33.211496 6.869420 -32.862723 7.851562 -32.862723C8.777902 -32.862723 9.587054 -33.180804 10.279018 -33.816964L14.313616 -31.808036C14.291295 -31.629464 14.280134 -31.501116 14.280134 -31.422991C14.280134 -30.440848 14.631696 -29.601004 15.334821 -28.903460C16.037946 -28.205915 16.880580 -27.857143 17.862723 -27.857143C18.844866 -27.857143 19.684710 -28.205915 20.382254 -28.903460C21.079799 -29.601004 21.428571 -30.440848 21.428571 -31.422991ZM25.714286 -44.464286L25.714286 -28.392857C25.714286 -27.064732 25.242746 -25.929129 24.299665 -24.986049C23.356585 -24.042969 22.220982 -23.571429 20.892857 -23.571429L4.821429 -23.571429C3.493304 -23.571429 2.357701 -24.042969 1.414621 -24.986049C0.471540 -25.929129 0.000000 -27.064732 0.000000 -28.392857L0.000000 -44.464286C0.000000 -45.792411 0.471540 -46.928013 1.414621 -47.871094C2.357701 -48.814174 3.493304 -49.285714 4.821429 -49.285714L20.892857 -49.285714C22.220982 -49.285714 23.356585 -48.814174 24.299665 -47.871094C25.242746 -46.928013 25.714286 -45.792411 25.714286 -44.464286ZM25.714286 -44.464286"></path></svg>