<svg width="21.428571" height="25.714286" viewBox="0.000000 -49.285714 21.428571 25.714286" xmlns="http://www.w3.org/2000/svg"><path d="M18.214286 -35.357143L18.214286 -46.071429L10.714286 -46.071429L10.714286 -27.036830C12.042411 -27.739955 13.231027 -28.504464 14.280134 -29.330357C16.902902 -31.383929 18.214286 -33.392857 18.214286 -35.357143ZM21.428571 -48.214286L21.428571 -35.357143C21.428571 -34.397321 21.241629 -33.445871 20.867746 -32.502790C20.493862 -31.559710 20.030692 -30.722656 19.478237 -29.991629C18.925781 -29.260603 18.267299 -28.549107 17.502790 -27.857143C16.738281 -27.165179 16.032366 -26.590402 15.385045 -26.132812C14.737723 -25.675223 14.062500 -25.242746 13.359375 -24.835379C12.656250 -24.428013 12.156808 -24.151786 11.861049 -24.006696C11.565290 -23.861607 11.328125 -23.750000 11.149554 -23.671875C11.015625 -23.604911 10.870536 -23.571429 10.714286 -23.571429C10.558036 -23.571429 10.412946 -23.604911 10.279018 -23.671875C10.100446 -23.750000 9.863281 -23.861607 9.567522 -24.006696C9.271763 -24.151786 8.772321 -24.428013 8.069196 -24.835379C7.366071 -25.242746 6.690848 -25.675223 6.043527 -26.132812C5.396205 -26.590402 4.690290 -27.165179 3.925781 -27.857143C3.161272 -28.549107 2.502790 -29.260603 1.950335 -29.991629C1.397879 -30.722656 0.934710 -31.559710 0.560826 -32.502790C0.186942 -33.445871 0.000000 -34.397321 0.000000 -35.357143L0.000000 -48.214286C0.000000 -48.504464 0.106027 -48.755580 0.318080 -48.967634C0.530134 -49.179688 0.781250 -49.285714 1.071429 -49.285714L20.357143 -49.285714C20.647321 -49.285714 20.898438 -49.179688 21.110491 -48.967634C21.322545 -48.755580 21.428571 -48.504464 21.428571 -48.214286ZM21.428571 -48.214286"></path></svg>