<svg width="29.520089" height="30.000000" viewBox="0.479911 -55.714286 29.520089 30.000000" xmlns="http://www.w3.org/2000/svg"><path d="M12.321429 -31.607143C12.321429 -31.473214 12.265625 -31.339286 12.154018 -31.205357L6.813616 -25.864955C6.702009 -25.764509 6.573661 -25.714286 6.428571 -25.714286C6.294643 -25.714286 6.166295 -25.764509 6.043527 -25.864955L0.686384 -31.222098C0.518973 -31.400670 0.479911 -31.595982 0.569196 -31.808036C0.658482 -32.031250 0.825893 -32.142857 1.071429 -32.142857L4.285714 -32.142857L4.285714 -55.178571C4.285714 -55.334821 4.335938 -55.463170 4.436384 -55.563616C4.536830 -55.664062 4.665179 -55.714286 4.821429 -55.714286L8.035714 -55.714286C8.191964 -55.714286 8.320312 -55.664062 8.420759 -55.563616C8.521205 -55.463170 8.571429 -55.334821 8.571429 -55.178571L8.571429 -32.142857L11.785714 -32.142857C11.941964 -32.142857 12.070312 -32.092634 12.170759 -31.992188C12.271205 -31.891741 12.321429 -31.763393 12.321429 -31.607143ZM30.000000 -29.464286L30.000000 -26.250000C30.000000 -26.093750 29.949777 -25.965402 29.849330 -25.864955C29.748884 -25.764509 29.620536 -25.714286 29.464286 -25.714286L15.535714 -25.714286C15.379464 -25.714286 15.251116 -25.764509 15.150670 -25.864955C15.050223 -25.965402 15.000000 -26.093750 15.000000 -26.250000L15.000000 -29.464286C15.000000 -29.620536 15.050223 -29.748884 15.150670 -29.849330C15.251116 -29.949777 15.379464 -30.000000 15.535714 -30.000000L29.464286 -30.000000C29.620536 -30.000000 29.748884 -29.949777 29.849330 -29.849330C29.949777 -29.748884 30.000000 -29.620536 30.000000 -29.464286ZM26.785714 -38.035714L26.785714 -34.821429C26.785714 -34.665179 26.735491 -34.536830 26.635045 -34.436384C26.534598 -34.335938 26.406250 -34.285714 26.250000 -34.285714L15.535714 -34.285714C15.379464 -34.285714 15.251116 -34.335938 15.150670 -34.436384C15.050223 -34.536830 15.000000 -34.665179 15.000000 -34.821429L15.000000 -38.035714C15.000000 -38.191964 15.050223 -38.320312 15.150670 -38.420759C15.251116 -38.521205 15.379464 -38.571429 15.535714 -38.571429L26.250000 -38.571429C26.406250 -38.571429 26.534598 -38.521205 26.635045 -38.420759C26.735491 -38.320312 26.785714 -38.191964 26.785714 -38.035714ZM23.571429 -46.607143L23.571429 -43.392857C23.571429 -43.236607 23.521205 -43.108259 23.420759 -43.007812C23.320312 -42.907366 23.191964 -42.857143 23.035714 -42.857143L15.535714 -42.857143C15.379464 -42.857143 15.251116 -42.907366 15.150670 -43.007812C15.050223 -43.108259 15.000000 -43.236607 15.000000 -43.392857L15.000000 -46.607143C15.000000 -46.763393 15.050223 -46.891741 15.150670 -46.992188C15.251116 -47.092634 15.379464 -47.142857 15.535714 -47.142857L23.035714 -47.142857C23.191964 -47.142857 23.320312 -47.092634 23.420759 -46.992188C23.521205 -46.891741 23.571429 -46.763393 23.571429 -46.607143ZM20.357143 -55.178571L20.357143 -51.964286C20.357143 -51.808036 20.306920 -51.679688 20.206473 -51.579241C20.106027 -51.478795 19.977679 -51.428571 19.821429 -51.428571L15.535714 -51.428571C15.379464 -51.428571 15.251116 -51.478795 15.150670 -51.579241C15.050223 -51.679688 15.000000 -51.808036 15.000000 -51.964286L15.000000 -55.178571C15.000000 -55.334821 15.050223 -55.463170 15.150670 -55.563616C15.251116 -55.664062 15.379464 -55.714286 15.535714 -55.714286L19.821429 -55.714286C19.977679 -55.714286 20.106027 -55.664062 20.206473 -55.563616C20.306920 -55.463170 20.357143 -55.334821 20.357143 -55.178571ZM20.357143 -55.178571"></path></svg>