<svg width="13.928571" height="26.568080" viewBox="0.000000 -51.746652 13.928571 26.568080" xmlns="http://www.w3.org/2000/svg"><path d="M13.928571 -51.746652L13.928571 -29.330357L6.411830 -25.379464C6.166295 -25.245536 5.943080 -25.178571 5.742188 -25.178571C5.507812 -25.178571 5.332031 -25.259487 5.214844 -25.421317C5.097656 -25.583147 5.039062 -25.781250 5.039062 -26.015625C5.039062 -26.082589 5.050223 -26.194196 5.072545 -26.350446L6.512277 -34.720982L0.418527 -40.647321C0.139509 -40.948661 0.000000 -41.216518 0.000000 -41.450893C0.000000 -41.863839 0.312500 -42.120536 0.937500 -42.220982L9.341518 -43.443080L13.108259 -51.060268C13.320312 -51.517857 13.593750 -51.746652 13.928571 -51.746652ZM13.928571 -51.746652"></path></svg>