<svg width="27.857143" height="26.568080" viewBox="0.000000 -51.746652 27.857143 26.568080" xmlns="http://www.w3.org/2000/svg"><path d="M19.034598 -35.474330L24.157366 -40.446429L17.092634 -41.484375L13.928571 -47.879464L10.764509 -41.484375L3.699777 -40.446429L8.822545 -35.474330L7.600446 -28.426339L13.928571 -31.757812L20.239955 -28.426339ZM27.857143 -41.450893C27.857143 -41.205357 27.712054 -40.937500 27.421875 -40.647321L21.344866 -34.720982L22.784598 -26.350446C22.795759 -26.272321 22.801339 -26.160714 22.801339 -26.015625C22.801339 -25.457589 22.572545 -25.178571 22.114955 -25.178571C21.902902 -25.178571 21.679688 -25.245536 21.445312 -25.379464L13.928571 -29.330357L6.411830 -25.379464C6.166295 -25.245536 5.943080 -25.178571 5.742188 -25.178571C5.507812 -25.178571 5.332031 -25.259487 5.214844 -25.421317C5.097656 -25.583147 5.039062 -25.781250 5.039062 -26.015625C5.039062 -26.082589 5.050223 -26.194196 5.072545 -26.350446L6.512277 -34.720982L0.418527 -40.647321C0.139509 -40.948661 0.000000 -41.216518 0.000000 -41.450893C0.000000 -41.863839 0.312500 -42.120536 0.937500 -42.220982L9.341518 -43.443080L13.108259 -51.060268C13.320312 -51.517857 13.593750 -51.746652 13.928571 -51.746652C14.263393 -51.746652 14.536830 -51.517857 14.748884 -51.060268L18.515625 -43.443080L26.919643 -42.220982C27.544643 -42.120536 27.857143 -41.863839 27.857143 -41.450893ZM27.857143 -41.450893"></path></svg>