<svg width="27.991071" height="26.568080" viewBox="-0.066964 -51.746652 27.991071 26.568080" xmlns="http://www.w3.org/2000/svg"><path d="M19.854911 -36.261161L24.157366 -40.446429L18.197545 -41.316964L17.092634 -41.484375L16.590402 -42.488839L13.928571 -47.879464L13.928571 -31.757812L14.916295 -31.238839L20.239955 -28.426339L19.235491 -34.369420L19.034598 -35.474330ZM27.421875 -40.647321L21.344866 -34.720982L22.784598 -26.350446C22.840402 -25.982143 22.806920 -25.694754 22.684152 -25.488281C22.561384 -25.281808 22.371652 -25.178571 22.114955 -25.178571C21.925223 -25.178571 21.702009 -25.245536 21.445312 -25.379464L13.928571 -29.330357L6.411830 -25.379464C6.155134 -25.245536 5.931920 -25.178571 5.742188 -25.178571C5.485491 -25.178571 5.295759 -25.281808 5.172991 -25.488281C5.050223 -25.694754 5.016741 -25.982143 5.072545 -26.350446L6.512277 -34.720982L0.418527 -40.647321C0.061384 -41.004464 -0.066964 -41.336496 0.033482 -41.643415C0.133929 -41.950335 0.435268 -42.142857 0.937500 -42.220982L9.341518 -43.443080L13.108259 -51.060268C13.331473 -51.517857 13.604911 -51.746652 13.928571 -51.746652C14.241071 -51.746652 14.514509 -51.517857 14.748884 -51.060268L18.515625 -43.443080L26.919643 -42.220982C27.421875 -42.142857 27.723214 -41.950335 27.823661 -41.643415C27.924107 -41.336496 27.790179 -41.004464 27.421875 -40.647321ZM27.421875 -40.647321"></path></svg>