<svg width="23.571429" height="25.714286" viewBox="0.000000 -49.285714 23.571429 25.714286" xmlns="http://www.w3.org/2000/svg"><path d="M21.428571 -39.642857C21.428571 -39.933036 21.322545 -40.184152 21.110491 -40.396205C20.898438 -40.608259 20.647321 -40.714286 20.357143 -40.714286C20.066964 -40.714286 19.815848 -40.608259 19.603795 -40.396205C19.391741 -40.184152 19.285714 -39.933036 19.285714 -39.642857C19.285714 -39.352679 19.391741 -39.101562 19.603795 -38.889509C19.815848 -38.677455 20.066964 -38.571429 20.357143 -38.571429C20.647321 -38.571429 20.898438 -38.677455 21.110491 -38.889509C21.322545 -39.101562 21.428571 -39.352679 21.428571 -39.642857ZM23.571429 -39.642857C23.571429 -38.950893 23.373326 -38.331473 22.977121 -37.784598C22.580915 -37.237723 22.064732 -36.847098 21.428571 -36.612723L21.428571 -30.000000C21.428571 -28.225446 20.694754 -26.710379 19.227121 -25.454799C17.759487 -24.199219 15.993304 -23.571429 13.928571 -23.571429C11.863839 -23.571429 10.097656 -24.199219 8.630022 -25.454799C7.162388 -26.710379 6.428571 -28.225446 6.428571 -30.000000L6.428571 -32.209821C4.598214 -32.433036 3.069196 -33.147321 1.841518 -34.352679C0.613839 -35.558036 0.000000 -36.964286 0.000000 -38.571429L0.000000 -47.142857C0.000000 -47.433036 0.106027 -47.684152 0.318080 -47.896205C0.530134 -48.108259 0.781250 -48.214286 1.071429 -48.214286C1.138393 -48.214286 1.227679 -48.203125 1.339286 -48.180804C1.529018 -48.515625 1.791295 -48.783482 2.126116 -48.984375C2.460938 -49.185268 2.823661 -49.285714 3.214286 -49.285714C3.805804 -49.285714 4.310826 -49.076451 4.729353 -48.657924C5.147879 -48.239397 5.357143 -47.734375 5.357143 -47.142857C5.357143 -46.551339 5.147879 -46.046317 4.729353 -45.627790C4.310826 -45.209263 3.805804 -45.000000 3.214286 -45.000000C2.845982 -45.000000 2.488839 -45.100446 2.142857 -45.301339L2.142857 -38.571429C2.142857 -37.388393 2.667411 -36.378348 3.716518 -35.541295C4.765625 -34.704241 6.026786 -34.285714 7.500000 -34.285714C8.973214 -34.285714 10.234375 -34.704241 11.283482 -35.541295C12.332589 -36.378348 12.857143 -37.388393 12.857143 -38.571429L12.857143 -45.301339C12.511161 -45.100446 12.154018 -45.000000 11.785714 -45.000000C11.194196 -45.000000 10.689174 -45.209263 10.270647 -45.627790C9.852121 -46.046317 9.642857 -46.551339 9.642857 -47.142857C9.642857 -47.734375 9.852121 -48.239397 10.270647 -48.657924C10.689174 -49.076451 11.194196 -49.285714 11.785714 -49.285714C12.176339 -49.285714 12.539062 -49.185268 12.873884 -48.984375C13.208705 -48.783482 13.470982 -48.515625 13.660714 -48.180804C13.772321 -48.203125 13.861607 -48.214286 13.928571 -48.214286C14.218750 -48.214286 14.469866 -48.108259 14.681920 -47.896205C14.893973 -47.684152 15.000000 -47.433036 15.000000 -47.142857L15.000000 -38.571429C15.000000 -36.964286 14.386161 -35.558036 13.158482 -34.352679C11.930804 -33.147321 10.401786 -32.433036 8.571429 -32.209821L8.571429 -30.000000C8.571429 -28.816964 9.095982 -27.806920 10.145089 -26.969866C11.194196 -26.132812 12.455357 -25.714286 13.928571 -25.714286C15.401786 -25.714286 16.662946 -26.132812 17.712054 -26.969866C18.761161 -27.806920 19.285714 -28.816964 19.285714 -30.000000L19.285714 -36.612723C18.649554 -36.847098 18.133371 -37.237723 17.737165 -37.784598C17.340960 -38.331473 17.142857 -38.950893 17.142857 -39.642857C17.142857 -40.535714 17.455357 -41.294643 18.080357 -41.919643C18.705357 -42.544643 19.464286 -42.857143 20.357143 -42.857143C21.250000 -42.857143 22.008929 -42.544643 22.633929 -41.919643C23.258929 -41.294643 23.571429 -40.535714 23.571429 -39.642857ZM23.571429 -39.642857"></path></svg>