<svg width="30.000000" height="25.714286" viewBox="0.000000 -49.285714 30.000000 25.714286" xmlns="http://www.w3.org/2000/svg"><path d="M10.714286 -45.000000L19.285714 -45.000000L19.285714 -47.142857L10.714286 -47.142857ZM4.821429 -45.000000L4.821429 -23.571429L3.750000 -23.571429C2.723214 -23.571429 1.841518 -23.939732 1.104911 -24.676339C0.368304 -25.412946 0.000000 -26.294643 0.000000 -27.321429L0.000000 -41.250000C0.000000 -42.276786 0.368304 -43.158482 1.104911 -43.895089C1.841518 -44.631696 2.723214 -45.000000 3.750000 -45.000000ZM23.571429 -45.000000L23.571429 -23.571429L6.428571 -23.571429L6.428571 -45.000000L8.571429 -45.000000L8.571429 -47.678571C8.571429 -48.125000 8.727679 -48.504464 9.040179 -48.816964C9.352679 -49.129464 9.732143 -49.285714 10.178571 -49.285714L19.821429 -49.285714C20.267857 -49.285714 20.647321 -49.129464 20.959821 -48.816964C21.272321 -48.504464 21.428571 -48.125000 21.428571 -47.678571L21.428571 -45.000000ZM30.000000 -41.250000L30.000000 -27.321429C30.000000 -26.294643 29.631696 -25.412946 28.895089 -24.676339C28.158482 -23.939732 27.276786 -23.571429 26.250000 -23.571429L25.178571 -23.571429L25.178571 -45.000000L26.250000 -45.000000C27.276786 -45.000000 28.158482 -44.631696 28.895089 -43.895089C29.631696 -43.158482 30.000000 -42.276786 30.000000 -41.250000ZM30.000000 -41.250000"></path></svg>