<svg width="30.000000" height="23.571429" viewBox="0.000000 -47.142857 30.000000 23.571429" xmlns="http://www.w3.org/2000/svg"><path d="M17.142857 -25.714286L27.857143 -25.714286L27.857143 -27.857143L17.142857 -27.857143ZM10.714286 -34.285714L27.857143 -34.285714L27.857143 -36.428571L10.714286 -36.428571ZM21.428571 -42.857143L27.857143 -42.857143L27.857143 -45.000000L21.428571 -45.000000ZM30.000000 -28.928571L30.000000 -24.642857C30.000000 -24.352679 29.893973 -24.101562 29.681920 -23.889509C29.469866 -23.677455 29.218750 -23.571429 28.928571 -23.571429L1.071429 -23.571429C0.781250 -23.571429 0.530134 -23.677455 0.318080 -23.889509C0.106027 -24.101562 0.000000 -24.352679 0.000000 -24.642857L0.000000 -28.928571C0.000000 -29.218750 0.106027 -29.469866 0.318080 -29.681920C0.530134 -29.893973 0.781250 -30.000000 1.071429 -30.000000L28.928571 -30.000000C29.218750 -30.000000 29.469866 -29.893973 29.681920 -29.681920C29.893973 -29.469866 30.000000 -29.218750 30.000000 -28.928571ZM30.000000 -37.500000L30.000000 -33.214286C30.000000 -32.924107 29.893973 -32.672991 29.681920 -32.460938C29.469866 -32.248884 29.218750 -32.142857 28.928571 -32.142857L1.071429 -32.142857C0.781250 -32.142857 0.530134 -32.248884 0.318080 -32.460938C0.106027 -32.672991 0.000000 -32.924107 0.000000 -33.214286L0.000000 -37.500000C0.000000 -37.790179 0.106027 -38.041295 0.318080 -38.253348C0.530134 -38.465402 0.781250 -38.571429 1.071429 -38.571429L28.928571 -38.571429C29.218750 -38.571429 29.469866 -38.465402 29.681920 -38.253348C29.893973 -38.041295 30.000000 -37.790179 30.000000 -37.500000ZM30.000000 -46.071429L30.000000 -41.785714C30.000000 -41.495536 29.893973 -41.244420 29.681920 -41.032366C29.469866 -40.820312 29.218750 -40.714286 28.928571 -40.714286L1.071429 -40.714286C0.781250 -40.714286 0.530134 -40.820312 0.318080 -41.032366C0.106027 -41.244420 0.000000 -41.495536 0.000000 -41.785714L0.000000 -46.071429C0.000000 -46.361607 0.106027 -46.612723 0.318080 -46.824777C0.530134 -47.036830 0.781250 -47.142857 1.071429 -47.142857L28.928571 -47.142857C29.218750 -47.142857 29.469866 -47.036830 29.681920 -46.824777C29.893973 -46.612723 30.000000 -46.361607 30.000000 -46.071429ZM30.000000 -46.071429"></path></svg>