<svg width="25.714286" height="27.806920" viewBox="0.000000 -51.378348 25.714286 27.806920" xmlns="http://www.w3.org/2000/svg"><path d="M1.356027 -51.361607L2.260045 -50.909598C2.393973 -50.853795 3.571429 -50.825893 5.792411 -50.825893C6.283482 -50.825893 7.020089 -50.837054 8.002232 -50.859375C8.984375 -50.881696 9.720982 -50.892857 10.212054 -50.892857C10.993304 -50.892857 12.368862 -50.898438 14.338728 -50.909598C16.308594 -50.920759 18.007812 -50.923549 19.436384 -50.917969C20.864955 -50.912388 22.243304 -50.887277 23.571429 -50.842634C23.939732 -50.831473 24.252232 -51.004464 24.508929 -51.361607L25.212054 -51.378348C25.256696 -51.378348 25.334821 -51.375558 25.446429 -51.369978C25.558036 -51.364397 25.636161 -51.361607 25.680804 -51.361607C25.703125 -50.111607 25.714286 -48.236607 25.714286 -45.736607C25.714286 -44.843750 25.686384 -44.235491 25.630580 -43.911830C25.195312 -43.755580 24.815848 -43.655134 24.492188 -43.610491C24.213170 -44.101562 23.911830 -44.815848 23.588170 -45.753348C23.554688 -45.853795 23.493304 -46.118862 23.404018 -46.548549C23.314732 -46.978237 23.231027 -47.388393 23.152902 -47.779018C23.074777 -48.169643 23.035714 -48.370536 23.035714 -48.381696C22.924107 -48.526786 22.773438 -48.632812 22.583705 -48.699777C22.527902 -48.722098 22.159598 -48.733259 21.478795 -48.733259C21.143973 -48.733259 20.625000 -48.738839 19.921875 -48.750000C19.218750 -48.761161 18.643973 -48.766741 18.197545 -48.766741C17.751116 -48.766741 17.226562 -48.755580 16.623884 -48.733259C16.021205 -48.710938 15.485491 -48.671875 15.016741 -48.616071C14.916295 -47.712054 14.871652 -46.953125 14.882812 -46.339286L14.899554 -43.794643L14.899554 -44.665179C14.899554 -44.051339 14.905134 -43.191964 14.916295 -42.087054C14.927455 -40.982143 14.935826 -39.977679 14.941406 -39.073661C14.946987 -38.169643 14.949777 -37.315848 14.949777 -36.512277C14.949777 -36.333705 14.935826 -35.934710 14.907924 -35.315290C14.880022 -34.695871 14.880022 -34.185268 14.907924 -33.783482C14.935826 -33.381696 15.005580 -32.996652 15.117188 -32.628348C15.563616 -32.393973 16.255580 -32.156808 17.193080 -31.916853C18.130580 -31.676897 18.800223 -31.467634 19.202009 -31.289062C19.257812 -30.842634 19.285714 -30.563616 19.285714 -30.452009C19.285714 -30.295759 19.268973 -30.133929 19.235491 -29.966518L18.666295 -29.949777C17.818080 -29.927455 16.601562 -29.972098 15.016741 -30.083705C13.431920 -30.195312 12.276786 -30.251116 11.551339 -30.251116C10.993304 -30.251116 10.150670 -30.200893 9.023438 -30.100446C7.896205 -30.000000 7.047991 -29.949777 6.478795 -29.949777C6.445312 -30.518973 6.428571 -30.809152 6.428571 -30.820312L6.428571 -30.970982C6.618304 -31.272321 6.961496 -31.512277 7.458147 -31.690848C7.954799 -31.869420 8.504464 -32.031250 9.107143 -32.176339C9.709821 -32.321429 10.145089 -32.472098 10.412946 -32.628348C10.491071 -32.806920 10.555246 -33.219866 10.605469 -33.867187C10.655692 -34.514509 10.689174 -35.326451 10.705915 -36.303013C10.722656 -37.279576 10.731027 -38.144531 10.731027 -38.897879C10.731027 -39.651228 10.728237 -40.507812 10.722656 -41.467634C10.717076 -42.427455 10.714286 -42.924107 10.714286 -42.957589C10.714286 -43.035714 10.700335 -43.155692 10.672433 -43.317522C10.644531 -43.479353 10.630580 -43.604911 10.630580 -43.694196C10.630580 -43.772321 10.633371 -44.017857 10.638951 -44.430804C10.644531 -44.843750 10.650112 -45.251116 10.655692 -45.652902C10.661272 -46.054688 10.661272 -46.481585 10.655692 -46.933594C10.650112 -47.385603 10.633371 -47.762277 10.605469 -48.063616C10.577567 -48.364955 10.541295 -48.543527 10.496652 -48.599330C10.373884 -48.733259 9.469866 -48.800223 7.784598 -48.800223C7.327009 -48.800223 6.417411 -48.724888 5.055804 -48.574219C3.694196 -48.423549 2.924107 -48.286830 2.745536 -48.164062C2.533482 -48.030134 2.343750 -47.631138 2.176339 -46.967076C2.008929 -46.303013 1.833147 -45.680804 1.648996 -45.100446C1.464844 -44.520089 1.227679 -44.218750 0.937500 -44.196429C0.468750 -44.486607 0.156250 -44.732143 0.000000 -44.933036L0.000000 -51.344866ZM21.930804 -29.899554C22.064732 -29.899554 22.299107 -29.790737 22.633929 -29.573103C22.968750 -29.355469 23.289621 -29.123884 23.596540 -28.878348C23.903460 -28.632812 24.235491 -28.359375 24.592634 -28.058036C24.949777 -27.756696 25.150670 -27.589286 25.195312 -27.555804C25.485491 -27.321429 25.630580 -27.047991 25.630580 -26.735491C25.630580 -26.422991 25.485491 -26.149554 25.195312 -25.915179C25.150670 -25.881696 24.949777 -25.714286 24.592634 -25.412946C24.235491 -25.111607 23.903460 -24.838170 23.596540 -24.592634C23.289621 -24.347098 22.968750 -24.115513 22.633929 -23.897879C22.299107 -23.680246 22.064732 -23.571429 21.930804 -23.571429C21.785714 -23.571429 21.671317 -23.630022 21.587612 -23.747210C21.503906 -23.864397 21.448103 -24.023437 21.420201 -24.224330C21.392299 -24.425223 21.378348 -24.612165 21.378348 -24.785156C21.378348 -24.958147 21.386719 -25.142299 21.403460 -25.337612C21.420201 -25.532924 21.428571 -25.641741 21.428571 -25.664062L4.285714 -25.664062C4.285714 -25.641741 4.294085 -25.532924 4.310826 -25.337612C4.327567 -25.142299 4.335938 -24.958147 4.335938 -24.785156C4.335938 -24.612165 4.321987 -24.425223 4.294085 -24.224330C4.266183 -24.023437 4.210379 -23.864397 4.126674 -23.747210C4.042969 -23.630022 3.928571 -23.571429 3.783482 -23.571429C3.649554 -23.571429 3.415179 -23.680246 3.080357 -23.897879C2.745536 -24.115513 2.424665 -24.347098 2.117746 -24.592634C1.810826 -24.838170 1.478795 -25.111607 1.121652 -25.412946C0.764509 -25.714286 0.563616 -25.881696 0.518973 -25.915179C0.228795 -26.149554 0.083705 -26.422991 0.083705 -26.735491C0.083705 -27.047991 0.228795 -27.321429 0.518973 -27.555804C0.563616 -27.589286 0.764509 -27.756696 1.121652 -28.058036C1.478795 -28.359375 1.810826 -28.632812 2.117746 -28.878348C2.424665 -29.123884 2.745536 -29.355469 3.080357 -29.573103C3.415179 -29.790737 3.649554 -29.899554 3.783482 -29.899554C3.928571 -29.899554 4.042969 -29.840960 4.126674 -29.723772C4.210379 -29.606585 4.266183 -29.447545 4.294085 -29.246652C4.321987 -29.045759 4.335938 -28.858817 4.335938 -28.685826C4.335938 -28.512835 4.327567 -28.328683 4.310826 -28.133371C4.294085 -27.938058 4.285714 -27.829241 4.285714 -27.806920L21.428571 -27.806920C21.428571 -27.829241 21.420201 -27.938058 21.403460 -28.133371C21.386719 -28.328683 21.378348 -28.512835 21.378348 -28.685826C21.378348 -28.858817 21.392299 -29.045759 21.420201 -29.246652C21.448103 -29.447545 21.503906 -29.606585 21.587612 -29.723772C21.671317 -29.840960 21.785714 -29.899554 21.930804 -29.899554ZM21.930804 -29.899554"></path></svg>