<svg width="26.785714" height="25.714286" viewBox="0.000000 -49.285714 26.785714 25.714286" xmlns="http://www.w3.org/2000/svg"><path d="M4.285714 -28.928571C4.285714 -29.218750 4.179688 -29.469866 3.967634 -29.681920C3.755580 -29.893973 3.504464 -30.000000 3.214286 -30.000000C2.912946 -30.000000 2.659040 -29.893973 2.452567 -29.681920C2.246094 -29.469866 2.142857 -29.218750 2.142857 -28.928571C2.142857 -28.627232 2.246094 -28.373326 2.452567 -28.166853C2.659040 -27.960379 2.912946 -27.857143 3.214286 -27.857143C3.504464 -27.857143 3.755580 -27.960379 3.967634 -28.166853C4.179688 -28.373326 4.285714 -28.627232 4.285714 -28.928571ZM6.964286 -37.500000L6.964286 -26.785714C6.964286 -26.495536 6.858259 -26.244420 6.646205 -26.032366C6.434152 -25.820312 6.183036 -25.714286 5.892857 -25.714286L1.071429 -25.714286C0.781250 -25.714286 0.530134 -25.820312 0.318080 -26.032366C0.106027 -26.244420 0.000000 -26.495536 0.000000 -26.785714L0.000000 -37.500000C0.000000 -37.790179 0.106027 -38.041295 0.318080 -38.253348C0.530134 -38.465402 0.781250 -38.571429 1.071429 -38.571429L5.892857 -38.571429C6.183036 -38.571429 6.434152 -38.465402 6.646205 -38.253348C6.858259 -38.041295 6.964286 -37.790179 6.964286 -37.500000ZM26.785714 -37.500000C26.785714 -36.540179 26.478795 -35.708705 25.864955 -35.005580C26.032366 -34.514509 26.116071 -34.090402 26.116071 -33.733259C26.149554 -32.885045 25.909598 -32.120536 25.396205 -31.439732C25.585938 -30.814732 25.585938 -30.161830 25.396205 -29.481027C25.228795 -28.844866 24.927455 -28.320312 24.492188 -27.907366C24.592634 -26.657366 24.319196 -25.647321 23.671875 -24.877232C22.957589 -24.029018 21.858259 -23.593750 20.373884 -23.571429L19.771205 -23.571429L18.498884 -23.571429L18.214286 -23.571429C17.477679 -23.571429 16.674107 -23.657924 15.803571 -23.830915C14.933036 -24.003906 14.255022 -24.165737 13.769531 -24.316406C13.284040 -24.467076 12.611607 -24.687500 11.752232 -24.977679C10.379464 -25.457589 9.497768 -25.703125 9.107143 -25.714286C8.816964 -25.725446 8.565848 -25.834263 8.353795 -26.040737C8.141741 -26.247210 8.035714 -26.495536 8.035714 -26.785714L8.035714 -37.516741C8.035714 -37.795759 8.136161 -38.038504 8.337054 -38.244978C8.537946 -38.451451 8.777902 -38.565848 9.056920 -38.588170C9.324777 -38.610491 9.748884 -38.939732 10.329241 -39.575893C10.909598 -40.212054 11.473214 -40.887277 12.020089 -41.601562C12.779018 -42.572545 13.342634 -43.242188 13.710938 -43.610491C13.911830 -43.811384 14.084821 -44.079241 14.229911 -44.414062C14.375000 -44.748884 14.472656 -45.019531 14.522879 -45.226004C14.573103 -45.432478 14.648438 -45.770089 14.748884 -46.238839C14.827009 -46.674107 14.896763 -47.014509 14.958147 -47.260045C15.019531 -47.505580 15.128348 -47.795759 15.284598 -48.130580C15.440848 -48.465402 15.630580 -48.744420 15.853795 -48.967634C16.065848 -49.179688 16.316964 -49.285714 16.607143 -49.285714C17.120536 -49.285714 17.580915 -49.227121 17.988281 -49.109933C18.395647 -48.992746 18.730469 -48.847656 18.992746 -48.674665C19.255022 -48.501674 19.478237 -48.275670 19.662388 -47.996652C19.846540 -47.717634 19.980469 -47.466518 20.064174 -47.243304C20.147879 -47.020089 20.214844 -46.741071 20.265067 -46.406250C20.315290 -46.071429 20.343192 -45.820312 20.348772 -45.652902C20.354353 -45.485491 20.357143 -45.267857 20.357143 -45.000000C20.357143 -44.575893 20.304129 -44.151786 20.198103 -43.727679C20.092076 -43.303571 19.986049 -42.968750 19.880022 -42.723214C19.773996 -42.477679 19.620536 -42.165179 19.419643 -41.785714C19.386161 -41.718750 19.330357 -41.618304 19.252232 -41.484375C19.174107 -41.350446 19.112723 -41.227679 19.068080 -41.116071C19.023438 -41.004464 18.978795 -40.870536 18.934152 -40.714286L23.571429 -40.714286C24.441964 -40.714286 25.195312 -40.396205 25.831473 -39.760045C26.467634 -39.123884 26.785714 -38.370536 26.785714 -37.500000ZM26.785714 -37.500000"></path></svg>