<svg width="19.285714" height="27.857143" viewBox="0.000000 -51.428571 19.285714 27.857143" xmlns="http://www.w3.org/2000/svg"><path d="M8.035714 -39.107143L8.035714 -46.607143C8.035714 -46.763393 7.985491 -46.891741 7.885045 -46.992188C7.784598 -47.092634 7.656250 -47.142857 7.500000 -47.142857C7.343750 -47.142857 7.215402 -47.092634 7.114955 -46.992188C7.014509 -46.891741 6.964286 -46.763393 6.964286 -46.607143L6.964286 -39.107143C6.964286 -38.950893 7.014509 -38.822545 7.114955 -38.722098C7.215402 -38.621652 7.343750 -38.571429 7.500000 -38.571429C7.656250 -38.571429 7.784598 -38.621652 7.885045 -38.722098C7.985491 -38.822545 8.035714 -38.950893 8.035714 -39.107143ZM19.285714 -33.214286C19.285714 -32.924107 19.179688 -32.672991 18.967634 -32.460938C18.755580 -32.248884 18.504464 -32.142857 18.214286 -32.142857L11.032366 -32.142857L10.178571 -24.056920C10.156250 -23.922991 10.097656 -23.808594 10.002790 -23.713728C9.907924 -23.618862 9.793527 -23.571429 9.659598 -23.571429L9.642857 -23.571429C9.341518 -23.571429 9.162946 -23.722098 9.107143 -24.023437L7.834821 -32.142857L1.071429 -32.142857C0.781250 -32.142857 0.530134 -32.248884 0.318080 -32.460938C0.106027 -32.672991 0.000000 -32.924107 0.000000 -33.214286C0.000000 -34.587054 0.438058 -35.823103 1.314174 -36.922433C2.190290 -38.021763 3.180804 -38.571429 4.285714 -38.571429L4.285714 -47.142857C3.705357 -47.142857 3.203125 -47.354911 2.779018 -47.779018C2.354911 -48.203125 2.142857 -48.705357 2.142857 -49.285714C2.142857 -49.866071 2.354911 -50.368304 2.779018 -50.792411C3.203125 -51.216518 3.705357 -51.428571 4.285714 -51.428571L15.000000 -51.428571C15.580357 -51.428571 16.082589 -51.216518 16.506696 -50.792411C16.930804 -50.368304 17.142857 -49.866071 17.142857 -49.285714C17.142857 -48.705357 16.930804 -48.203125 16.506696 -47.779018C16.082589 -47.354911 15.580357 -47.142857 15.000000 -47.142857L15.000000 -38.571429C16.104911 -38.571429 17.095424 -38.021763 17.971540 -36.922433C18.847656 -35.823103 19.285714 -34.587054 19.285714 -33.214286ZM19.285714 -33.214286"></path></svg>