<svg width="19.888393" height="19.888393" viewBox="1.841518 -39.475446 19.888393 19.888393" xmlns="http://www.w3.org/2000/svg"><path d="M21.729911 -23.470982C21.729911 -23.024554 21.573661 -22.645089 21.261161 -22.332589L18.984375 -20.055804C18.671875 -19.743304 18.292411 -19.587054 17.845982 -19.587054C17.399554 -19.587054 17.020089 -19.743304 16.707589 -20.055804L11.785714 -24.977679L6.863839 -20.055804C6.551339 -19.743304 6.171875 -19.587054 5.725446 -19.587054C5.279018 -19.587054 4.899554 -19.743304 4.587054 -20.055804L2.310268 -22.332589C1.997768 -22.645089 1.841518 -23.024554 1.841518 -23.470982C1.841518 -23.917411 1.997768 -24.296875 2.310268 -24.609375L7.232143 -29.531250L2.310268 -34.453125C1.997768 -34.765625 1.841518 -35.145089 1.841518 -35.591518C1.841518 -36.037946 1.997768 -36.417411 2.310268 -36.729911L4.587054 -39.006696C4.899554 -39.319196 5.279018 -39.475446 5.725446 -39.475446C6.171875 -39.475446 6.551339 -39.319196 6.863839 -39.006696L11.785714 -34.084821L16.707589 -39.006696C17.020089 -39.319196 17.399554 -39.475446 17.845982 -39.475446C18.292411 -39.475446 18.671875 -39.319196 18.984375 -39.006696L21.261161 -36.729911C21.573661 -36.417411 21.729911 -36.037946 21.729911 -35.591518C21.729911 -35.145089 21.573661 -34.765625 21.261161 -34.453125L16.339286 -29.531250L21.261161 -24.609375C21.573661 -24.296875 21.729911 -23.917411 21.729911 -23.470982ZM21.729911 -23.470982"></path></svg>