<svg width="17.142857" height="24.642857" viewBox="0.000000 -49.285714 17.142857 24.642857" xmlns="http://www.w3.org/2000/svg"><path d="M8.571429 -31.071429C8.571429 -31.473214 8.459821 -31.858259 8.236607 -32.226562C8.225446 -32.237723 8.138951 -32.363281 7.977121 -32.603237C7.815290 -32.843192 7.672991 -33.055246 7.550223 -33.239397C7.427455 -33.423549 7.287946 -33.669085 7.131696 -33.976004C6.975446 -34.282924 6.858259 -34.564732 6.780134 -34.821429C6.735491 -35.000000 6.618304 -35.089286 6.428571 -35.089286C6.238839 -35.089286 6.121652 -35.000000 6.077009 -34.821429C5.998884 -34.564732 5.881696 -34.282924 5.725446 -33.976004C5.569196 -33.669085 5.429688 -33.423549 5.306920 -33.239397C5.184152 -33.055246 5.041853 -32.843192 4.880022 -32.603237C4.718192 -32.363281 4.631696 -32.237723 4.620536 -32.226562C4.397321 -31.858259 4.285714 -31.473214 4.285714 -31.071429C4.285714 -30.479911 4.494978 -29.974888 4.913504 -29.556362C5.332031 -29.137835 5.837054 -28.928571 6.428571 -28.928571C7.020089 -28.928571 7.525112 -29.137835 7.943638 -29.556362C8.362165 -29.974888 8.571429 -30.479911 8.571429 -31.071429ZM17.142857 -33.214286C17.142857 -30.848214 16.305804 -28.828125 14.631696 -27.154018C12.957589 -25.479911 10.937500 -24.642857 8.571429 -24.642857C6.205357 -24.642857 4.185268 -25.479911 2.511161 -27.154018C0.837054 -28.828125 0.000000 -30.848214 0.000000 -33.214286C0.000000 -34.832589 0.452009 -36.367188 1.356027 -37.818080C1.422991 -37.918527 1.771763 -38.423549 2.402344 -39.333147C3.032924 -40.242746 3.596540 -41.085379 4.093192 -41.861049C4.589844 -42.636719 5.145089 -43.630022 5.758929 -44.840960C6.372768 -46.051897 6.835938 -47.176339 7.148438 -48.214286C7.248884 -48.549107 7.438616 -48.811384 7.717634 -49.001116C7.996652 -49.190848 8.281250 -49.285714 8.571429 -49.285714C8.861607 -49.285714 9.148996 -49.190848 9.433594 -49.001116C9.718192 -48.811384 9.905134 -48.549107 9.994420 -48.214286C10.306920 -47.176339 10.770089 -46.051897 11.383929 -44.840960C11.997768 -43.630022 12.553013 -42.636719 13.049665 -41.861049C13.546317 -41.085379 14.109933 -40.242746 14.740513 -39.333147C15.371094 -38.423549 15.719866 -37.918527 15.786830 -37.818080C16.690848 -36.400670 17.142857 -34.866071 17.142857 -33.214286ZM17.142857 -33.214286"></path></svg>