<svg width="34.285714" height="21.428571" viewBox="0.000000 -42.857143 34.285714 21.428571" xmlns="http://www.w3.org/2000/svg"><path d="M19.285714 -32.142857C19.285714 -33.303571 19.059710 -34.411272 18.607701 -35.465960C18.155692 -36.520647 17.544643 -37.433036 16.774554 -38.203125C16.004464 -38.973214 15.092076 -39.584263 14.037388 -40.036272C12.982701 -40.488281 11.875000 -40.714286 10.714286 -40.714286C9.553571 -40.714286 8.445871 -40.488281 7.391183 -40.036272C6.336496 -39.584263 5.424107 -38.973214 4.654018 -38.203125C3.883929 -37.433036 3.272879 -36.520647 2.820871 -35.465960C2.368862 -34.411272 2.142857 -33.303571 2.142857 -32.142857C2.142857 -30.982143 2.368862 -29.874442 2.820871 -28.819754C3.272879 -27.765067 3.883929 -26.852679 4.654018 -26.082589C5.424107 -25.312500 6.336496 -24.701451 7.391183 -24.249442C8.445871 -23.797433 9.553571 -23.571429 10.714286 -23.571429C11.875000 -23.571429 12.982701 -23.797433 14.037388 -24.249442C15.092076 -24.701451 16.004464 -25.312500 16.774554 -26.082589C17.544643 -26.852679 18.155692 -27.765067 18.607701 -28.819754C19.059710 -29.874442 19.285714 -30.982143 19.285714 -32.142857ZM32.142857 -32.142857C32.142857 -33.303571 31.916853 -34.411272 31.464844 -35.465960C31.012835 -36.520647 30.401786 -37.433036 29.631696 -38.203125C28.861607 -38.973214 27.949219 -39.584263 26.894531 -40.036272C25.839844 -40.488281 24.732143 -40.714286 23.571429 -40.714286L17.109375 -40.714286C18.437500 -39.709821 19.489397 -38.459821 20.265067 -36.964286C21.040737 -35.468750 21.428571 -33.861607 21.428571 -32.142857C21.428571 -30.424107 21.040737 -28.816964 20.265067 -27.321429C19.489397 -25.825893 18.437500 -24.575893 17.109375 -23.571429L23.571429 -23.571429C24.732143 -23.571429 25.839844 -23.797433 26.894531 -24.249442C27.949219 -24.701451 28.861607 -25.312500 29.631696 -26.082589C30.401786 -26.852679 31.012835 -27.765067 31.464844 -28.819754C31.916853 -29.874442 32.142857 -30.982143 32.142857 -32.142857ZM34.285714 -32.142857C34.285714 -30.691964 34.001116 -29.305246 33.431920 -27.982701C32.862723 -26.660156 32.101004 -25.521763 31.146763 -24.567522C30.192522 -23.613281 29.054129 -22.851562 27.731585 -22.282366C26.409040 -21.713170 25.022321 -21.428571 23.571429 -21.428571L10.714286 -21.428571C9.263393 -21.428571 7.876674 -21.713170 6.554129 -22.282366C5.231585 -22.851562 4.093192 -23.613281 3.138951 -24.567522C2.184710 -25.521763 1.422991 -26.660156 0.853795 -27.982701C0.284598 -29.305246 0.000000 -30.691964 0.000000 -32.142857C0.000000 -33.593750 0.284598 -34.980469 0.853795 -36.303013C1.422991 -37.625558 2.184710 -38.763951 3.138951 -39.718192C4.093192 -40.672433 5.231585 -41.434152 6.554129 -42.003348C7.876674 -42.572545 9.263393 -42.857143 10.714286 -42.857143L23.571429 -42.857143C25.022321 -42.857143 26.409040 -42.572545 27.731585 -42.003348C29.054129 -41.434152 30.192522 -40.672433 31.146763 -39.718192C32.101004 -38.763951 32.862723 -37.625558 33.431920 -36.303013C34.001116 -34.980469 34.285714 -33.593750 34.285714 -32.142857ZM34.285714 -32.142857"></path></svg>