<svg width="25.714286" height="25.714286" viewBox="0.000000 -49.285714 25.714286 25.714286" xmlns="http://www.w3.org/2000/svg"><path d="M18.214286 -36.428571C18.214286 -36.060268 18.063616 -35.770089 17.762277 -35.558036L10.262277 -30.200893C9.916295 -29.944196 9.547991 -29.916295 9.157366 -30.117187C8.766741 -30.306920 8.571429 -30.625000 8.571429 -31.071429L8.571429 -41.785714C8.571429 -42.232143 8.766741 -42.550223 9.157366 -42.739955C9.547991 -42.940848 9.916295 -42.912946 10.262277 -42.656250L17.762277 -37.299107C18.063616 -37.087054 18.214286 -36.796875 18.214286 -36.428571ZM21.428571 -28.392857L21.428571 -44.464286C21.428571 -44.620536 21.378348 -44.748884 21.277902 -44.849330C21.177455 -44.949777 21.049107 -45.000000 20.892857 -45.000000L4.821429 -45.000000C4.665179 -45.000000 4.536830 -44.949777 4.436384 -44.849330C4.335938 -44.748884 4.285714 -44.620536 4.285714 -44.464286L4.285714 -28.392857C4.285714 -28.236607 4.335938 -28.108259 4.436384 -28.007812C4.536830 -27.907366 4.665179 -27.857143 4.821429 -27.857143L20.892857 -27.857143C21.049107 -27.857143 21.177455 -27.907366 21.277902 -28.007812C21.378348 -28.108259 21.428571 -28.236607 21.428571 -28.392857ZM25.714286 -44.464286L25.714286 -28.392857C25.714286 -27.064732 25.242746 -25.929129 24.299665 -24.986049C23.356585 -24.042969 22.220982 -23.571429 20.892857 -23.571429L4.821429 -23.571429C3.493304 -23.571429 2.357701 -24.042969 1.414621 -24.986049C0.471540 -25.929129 0.000000 -27.064732 0.000000 -28.392857L0.000000 -44.464286C0.000000 -45.792411 0.471540 -46.928013 1.414621 -47.871094C2.357701 -48.814174 3.493304 -49.285714 4.821429 -49.285714L20.892857 -49.285714C22.220982 -49.285714 23.356585 -48.814174 24.299665 -47.871094C25.242746 -46.928013 25.714286 -45.792411 25.714286 -44.464286ZM25.714286 -44.464286"></path></svg>