<svg width="25.714286" height="30.000000" viewBox="0.000000 -55.714286 25.714286 30.000000" xmlns="http://www.w3.org/2000/svg"><path d="M18.214286 -55.714286C20.279018 -55.714286 22.045201 -55.192522 23.512835 -54.148996C24.980469 -53.105469 25.714286 -51.841518 25.714286 -50.357143L25.714286 -35.357143C25.714286 -33.906250 25.013951 -32.667411 23.613281 -31.640625C22.212612 -30.613839 20.507812 -30.072545 18.498884 -30.016741L22.064732 -26.635045C22.243304 -26.467634 22.287946 -26.272321 22.198661 -26.049107C22.109375 -25.825893 21.941964 -25.714286 21.696429 -25.714286L4.017857 -25.714286C3.772321 -25.714286 3.604911 -25.825893 3.515625 -26.049107C3.426339 -26.272321 3.470982 -26.467634 3.649554 -26.635045L7.215402 -30.016741C5.206473 -30.072545 3.501674 -30.613839 2.101004 -31.640625C0.700335 -32.667411 0.000000 -33.906250 0.000000 -35.357143L0.000000 -50.357143C0.000000 -51.841518 0.733817 -53.105469 2.201451 -54.148996C3.669085 -55.192522 5.435268 -55.714286 7.500000 -55.714286ZM12.857143 -33.214286C13.750000 -33.214286 14.508929 -33.526786 15.133929 -34.151786C15.758929 -34.776786 16.071429 -35.535714 16.071429 -36.428571C16.071429 -37.321429 15.758929 -38.080357 15.133929 -38.705357C14.508929 -39.330357 13.750000 -39.642857 12.857143 -39.642857C11.964286 -39.642857 11.205357 -39.330357 10.580357 -38.705357C9.955357 -38.080357 9.642857 -37.321429 9.642857 -36.428571C9.642857 -35.535714 9.955357 -34.776786 10.580357 -34.151786C11.205357 -33.526786 11.964286 -33.214286 12.857143 -33.214286ZM22.500000 -42.857143L22.500000 -51.428571L3.214286 -51.428571L3.214286 -42.857143ZM22.500000 -42.857143"></path></svg>