<svg width="23.671875" height="30.000000" viewBox="-0.100446 -55.714286 23.671875 30.000000" xmlns="http://www.w3.org/2000/svg"><path d="M17.142857 -55.178571C17.142857 -55.334821 17.193080 -55.463170 17.293527 -55.563616C17.393973 -55.664062 17.522321 -55.714286 17.678571 -55.714286L22.500000 -55.714286C22.790179 -55.714286 23.041295 -55.608259 23.253348 -55.396205C23.465402 -55.184152 23.571429 -54.933036 23.571429 -54.642857L23.571429 -49.821429C23.571429 -49.665179 23.521205 -49.536830 23.420759 -49.436384C23.320312 -49.335938 23.191964 -49.285714 23.035714 -49.285714L21.964286 -49.285714C21.808036 -49.285714 21.679688 -49.335938 21.579241 -49.436384C21.478795 -49.536830 21.428571 -49.665179 21.428571 -49.821429L21.428571 -52.064732L17.176339 -47.795759C18.582589 -46.032366 19.285714 -44.029018 19.285714 -41.785714C19.285714 -39.319196 18.462612 -37.173549 16.816406 -35.348772C15.170201 -33.523996 13.136161 -32.477679 10.714286 -32.209821L10.714286 -30.000000L12.321429 -30.000000C12.477679 -30.000000 12.606027 -29.949777 12.706473 -29.849330C12.806920 -29.748884 12.857143 -29.620536 12.857143 -29.464286L12.857143 -28.392857C12.857143 -28.236607 12.806920 -28.108259 12.706473 -28.007812C12.606027 -27.907366 12.477679 -27.857143 12.321429 -27.857143L10.714286 -27.857143L10.714286 -26.250000C10.714286 -26.093750 10.664062 -25.965402 10.563616 -25.864955C10.463170 -25.764509 10.334821 -25.714286 10.178571 -25.714286L9.107143 -25.714286C8.950893 -25.714286 8.822545 -25.764509 8.722098 -25.864955C8.621652 -25.965402 8.571429 -26.093750 8.571429 -26.250000L8.571429 -27.857143L6.964286 -27.857143C6.808036 -27.857143 6.679688 -27.907366 6.579241 -28.007812C6.478795 -28.108259 6.428571 -28.236607 6.428571 -28.392857L6.428571 -29.464286C6.428571 -29.620536 6.478795 -29.748884 6.579241 -29.849330C6.679688 -29.949777 6.808036 -30.000000 6.964286 -30.000000L8.571429 -30.000000L8.571429 -32.209821C6.908482 -32.388393 5.398996 -32.963170 4.042969 -33.934152C2.686942 -34.905134 1.646205 -36.152344 0.920759 -37.675781C0.195312 -39.199219 -0.100446 -40.825893 0.033482 -42.555804C0.212054 -44.832589 1.104911 -46.805246 2.712054 -48.473772C4.319196 -50.142299 6.255580 -51.104911 8.521205 -51.361607C9.838170 -51.517857 11.110491 -51.411830 12.338170 -51.043527C13.565848 -50.675223 14.670759 -50.100446 15.652902 -49.319196L19.921875 -53.571429L17.678571 -53.571429C17.522321 -53.571429 17.393973 -53.621652 17.293527 -53.722098C17.193080 -53.822545 17.142857 -53.950893 17.142857 -54.107143ZM9.642857 -34.285714C11.707589 -34.285714 13.473772 -35.019531 14.941406 -36.487165C16.409040 -37.954799 17.142857 -39.720982 17.142857 -41.785714C17.142857 -43.850446 16.409040 -45.616629 14.941406 -47.084263C13.473772 -48.551897 11.707589 -49.285714 9.642857 -49.285714C7.578125 -49.285714 5.811942 -48.551897 4.344308 -47.084263C2.876674 -45.616629 2.142857 -43.850446 2.142857 -41.785714C2.142857 -39.720982 2.876674 -37.954799 4.344308 -36.487165C5.811942 -35.019531 7.578125 -34.285714 9.642857 -34.285714ZM9.642857 -34.285714"></path></svg>