<svg width="23.571429" height="25.714286" viewBox="0.000000 -49.285714 23.571429 25.714286" xmlns="http://www.w3.org/2000/svg"><path d="M8.571429 -28.392857L8.571429 -40.178571C8.571429 -40.334821 8.521205 -40.463170 8.420759 -40.563616C8.320312 -40.664062 8.191964 -40.714286 8.035714 -40.714286L6.964286 -40.714286C6.808036 -40.714286 6.679688 -40.664062 6.579241 -40.563616C6.478795 -40.463170 6.428571 -40.334821 6.428571 -40.178571L6.428571 -28.392857C6.428571 -28.236607 6.478795 -28.108259 6.579241 -28.007812C6.679688 -27.907366 6.808036 -27.857143 6.964286 -27.857143L8.035714 -27.857143C8.191964 -27.857143 8.320312 -27.907366 8.420759 -28.007812C8.521205 -28.108259 8.571429 -28.236607 8.571429 -28.392857ZM12.857143 -28.392857L12.857143 -40.178571C12.857143 -40.334821 12.806920 -40.463170 12.706473 -40.563616C12.606027 -40.664062 12.477679 -40.714286 12.321429 -40.714286L11.250000 -40.714286C11.093750 -40.714286 10.965402 -40.664062 10.864955 -40.563616C10.764509 -40.463170 10.714286 -40.334821 10.714286 -40.178571L10.714286 -28.392857C10.714286 -28.236607 10.764509 -28.108259 10.864955 -28.007812C10.965402 -27.907366 11.093750 -27.857143 11.250000 -27.857143L12.321429 -27.857143C12.477679 -27.857143 12.606027 -27.907366 12.706473 -28.007812C12.806920 -28.108259 12.857143 -28.236607 12.857143 -28.392857ZM17.142857 -28.392857L17.142857 -40.178571C17.142857 -40.334821 17.092634 -40.463170 16.992188 -40.563616C16.891741 -40.664062 16.763393 -40.714286 16.607143 -40.714286L15.535714 -40.714286C15.379464 -40.714286 15.251116 -40.664062 15.150670 -40.563616C15.050223 -40.463170 15.000000 -40.334821 15.000000 -40.178571L15.000000 -28.392857C15.000000 -28.236607 15.050223 -28.108259 15.150670 -28.007812C15.251116 -27.907366 15.379464 -27.857143 15.535714 -27.857143L16.607143 -27.857143C16.763393 -27.857143 16.891741 -27.907366 16.992188 -28.007812C17.092634 -28.108259 17.142857 -28.236607 17.142857 -28.392857ZM8.035714 -45.000000L15.535714 -45.000000L14.732143 -46.958705C14.654018 -47.059152 14.559152 -47.120536 14.447545 -47.142857L9.140625 -47.142857C9.029018 -47.120536 8.934152 -47.059152 8.856027 -46.958705ZM23.571429 -44.464286L23.571429 -43.392857C23.571429 -43.236607 23.521205 -43.108259 23.420759 -43.007812C23.320312 -42.907366 23.191964 -42.857143 23.035714 -42.857143L21.428571 -42.857143L21.428571 -26.986607C21.428571 -26.060268 21.166295 -25.259487 20.641741 -24.584263C20.117188 -23.909040 19.486607 -23.571429 18.750000 -23.571429L4.821429 -23.571429C4.084821 -23.571429 3.454241 -23.897879 2.929688 -24.550781C2.405134 -25.203683 2.142857 -25.993304 2.142857 -26.919643L2.142857 -42.857143L0.535714 -42.857143C0.379464 -42.857143 0.251116 -42.907366 0.150670 -43.007812C0.050223 -43.108259 0.000000 -43.236607 0.000000 -43.392857L0.000000 -44.464286C0.000000 -44.620536 0.050223 -44.748884 0.150670 -44.849330C0.251116 -44.949777 0.379464 -45.000000 0.535714 -45.000000L5.708705 -45.000000L6.880580 -47.795759C7.047991 -48.208705 7.349330 -48.560268 7.784598 -48.850446C8.219866 -49.140625 8.660714 -49.285714 9.107143 -49.285714L14.464286 -49.285714C14.910714 -49.285714 15.351562 -49.140625 15.786830 -48.850446C16.222098 -48.560268 16.523438 -48.208705 16.690848 -47.795759L17.862723 -45.000000L23.035714 -45.000000C23.191964 -45.000000 23.320312 -44.949777 23.420759 -44.849330C23.521205 -44.748884 23.571429 -44.620536 23.571429 -44.464286ZM23.571429 -44.464286"></path></svg>