<svg width="24.642857" height="30.000000" viewBox="0.535714 -55.714286 24.642857 30.000000" xmlns="http://www.w3.org/2000/svg"><path d="M25.178571 -31.071429C25.178571 -30.781250 25.072545 -30.530134 24.860491 -30.318080C24.648438 -30.106027 24.397321 -30.000000 24.107143 -30.000000L16.372768 -30.000000C16.383929 -29.810268 16.417411 -29.321987 16.473214 -28.535156C16.529018 -27.748326 16.556920 -27.142857 16.556920 -26.718750C16.556920 -26.439732 16.456473 -26.202567 16.255580 -26.007254C16.054688 -25.811942 15.814732 -25.714286 15.535714 -25.714286L10.178571 -25.714286C9.899554 -25.714286 9.659598 -25.811942 9.458705 -26.007254C9.257812 -26.202567 9.157366 -26.439732 9.157366 -26.718750C9.157366 -27.142857 9.185268 -27.748326 9.241071 -28.535156C9.296875 -29.321987 9.330357 -29.810268 9.341518 -30.000000L1.607143 -30.000000C1.316964 -30.000000 1.065848 -30.106027 0.853795 -30.318080C0.641741 -30.530134 0.535714 -30.781250 0.535714 -31.071429C0.535714 -31.361607 0.641741 -31.612723 0.853795 -31.824777L7.583705 -38.571429L3.750000 -38.571429C3.459821 -38.571429 3.208705 -38.677455 2.996652 -38.889509C2.784598 -39.101562 2.678571 -39.352679 2.678571 -39.642857C2.678571 -39.933036 2.784598 -40.184152 2.996652 -40.396205L9.726562 -47.142857L6.428571 -47.142857C6.138393 -47.142857 5.887277 -47.248884 5.675223 -47.460938C5.463170 -47.672991 5.357143 -47.924107 5.357143 -48.214286C5.357143 -48.504464 5.463170 -48.755580 5.675223 -48.967634L12.103795 -55.396205C12.315848 -55.608259 12.566964 -55.714286 12.857143 -55.714286C13.147321 -55.714286 13.398438 -55.608259 13.610491 -55.396205L20.039062 -48.967634C20.251116 -48.755580 20.357143 -48.504464 20.357143 -48.214286C20.357143 -47.924107 20.251116 -47.672991 20.039062 -47.460938C19.827009 -47.248884 19.575893 -47.142857 19.285714 -47.142857L15.987723 -47.142857L22.717634 -40.396205C22.929688 -40.184152 23.035714 -39.933036 23.035714 -39.642857C23.035714 -39.352679 22.929688 -39.101562 22.717634 -38.889509C22.505580 -38.677455 22.254464 -38.571429 21.964286 -38.571429L18.130580 -38.571429L24.860491 -31.824777C25.072545 -31.612723 25.178571 -31.361607 25.178571 -31.071429ZM25.178571 -31.071429"></path></svg>