<svg width="25.714286" height="25.714286" viewBox="0.000000 -49.285714 25.714286 25.714286" xmlns="http://www.w3.org/2000/svg"><path d="M19.017857 -26.969866L17.979911 -30.033482C17.488839 -29.787946 16.914062 -29.665179 16.255580 -29.665179C15.853795 -29.654018 15.507812 -29.712612 15.217634 -29.840960C14.927455 -29.969308 14.712612 -30.145089 14.573103 -30.368304C14.433594 -30.591518 14.335938 -30.817522 14.280134 -31.046317C14.224330 -31.275112 14.196429 -31.517857 14.196429 -31.774554L14.196429 -38.437500L18.498884 -38.437500L18.498884 -41.685268L14.213170 -41.685268L14.213170 -47.142857L11.065848 -47.142857C10.976562 -47.142857 10.926339 -47.087054 10.915179 -46.975446C10.859375 -46.484375 10.761719 -45.998884 10.622210 -45.518973C10.482701 -45.039062 10.265067 -44.508929 9.969308 -43.928571C9.673549 -43.348214 9.243862 -42.818080 8.680246 -42.338170C8.116629 -41.858259 7.455357 -41.478795 6.696429 -41.199777L6.696429 -38.437500L8.872768 -38.437500L8.872768 -31.439732C8.872768 -30.803571 8.992746 -30.161830 9.232701 -29.514509C9.472656 -28.867187 9.835379 -28.247768 10.320871 -27.656250C10.806362 -27.064732 11.481585 -26.587612 12.346540 -26.224888C13.211496 -25.862165 14.196429 -25.691964 15.301339 -25.714286C16.071429 -25.725446 16.833147 -25.864955 17.586496 -26.132812C18.339844 -26.400670 18.816964 -26.679687 19.017857 -26.969866ZM25.714286 -44.464286L25.714286 -28.392857C25.714286 -27.064732 25.242746 -25.929129 24.299665 -24.986049C23.356585 -24.042969 22.220982 -23.571429 20.892857 -23.571429L4.821429 -23.571429C3.493304 -23.571429 2.357701 -24.042969 1.414621 -24.986049C0.471540 -25.929129 0.000000 -27.064732 0.000000 -28.392857L0.000000 -44.464286C0.000000 -45.792411 0.471540 -46.928013 1.414621 -47.871094C2.357701 -48.814174 3.493304 -49.285714 4.821429 -49.285714L20.892857 -49.285714C22.220982 -49.285714 23.356585 -48.814174 24.299665 -47.871094C25.242746 -46.928013 25.714286 -45.792411 25.714286 -44.464286ZM25.714286 -44.464286"></path></svg>