<svg width="27.857143" height="26.785714" viewBox="0.000000 -51.428571 27.857143 26.785714" xmlns="http://www.w3.org/2000/svg"><path d="M15.000000 -38.638393L15.000000 -28.928571C15.000000 -27.767857 14.575893 -26.763393 13.727679 -25.915179C12.879464 -25.066964 11.875000 -24.642857 10.714286 -24.642857C9.553571 -24.642857 8.549107 -25.066964 7.700893 -25.915179C6.852679 -26.763393 6.428571 -27.767857 6.428571 -28.928571C6.428571 -29.218750 6.534598 -29.469866 6.746652 -29.681920C6.958705 -29.893973 7.209821 -30.000000 7.500000 -30.000000C7.790179 -30.000000 8.041295 -29.893973 8.253348 -29.681920C8.465402 -29.469866 8.571429 -29.218750 8.571429 -28.928571C8.571429 -28.370536 8.789062 -27.873884 9.224330 -27.438616C9.659598 -27.003348 10.156250 -26.785714 10.714286 -26.785714C11.272321 -26.785714 11.768973 -27.003348 12.204241 -27.438616C12.639509 -27.873884 12.857143 -28.370536 12.857143 -28.928571L12.857143 -38.638393C13.225446 -38.761161 13.582589 -38.822545 13.928571 -38.822545C14.274554 -38.822545 14.631696 -38.761161 15.000000 -38.638393ZM27.857143 -38.186384C27.857143 -38.041295 27.804129 -37.915737 27.698103 -37.809710C27.592076 -37.703683 27.466518 -37.650670 27.321429 -37.650670C27.198661 -37.650670 27.070312 -37.706473 26.936384 -37.818080C26.389509 -38.331473 25.870536 -38.716518 25.379464 -38.973214C24.888393 -39.229911 24.319196 -39.358259 23.671875 -39.358259C22.912946 -39.358259 22.198661 -39.151786 21.529018 -38.738839C20.859375 -38.325893 20.284598 -37.784598 19.804688 -37.114955C19.726562 -37.003348 19.628906 -36.847098 19.511719 -36.646205C19.394531 -36.445312 19.313616 -36.311384 19.268973 -36.244420C19.146205 -36.054688 18.989955 -35.959821 18.800223 -35.959821C18.599330 -35.959821 18.437500 -36.054688 18.314732 -36.244420C18.270089 -36.311384 18.189174 -36.445312 18.071987 -36.646205C17.954799 -36.847098 17.857143 -37.003348 17.779018 -37.114955C17.299107 -37.784598 16.727121 -38.325893 16.063058 -38.738839C15.398996 -39.151786 14.687500 -39.358259 13.928571 -39.358259C13.169643 -39.358259 12.458147 -39.151786 11.794085 -38.738839C11.130022 -38.325893 10.558036 -37.784598 10.078125 -37.114955C10.000000 -37.003348 9.902344 -36.847098 9.785156 -36.646205C9.667969 -36.445312 9.587054 -36.311384 9.542411 -36.244420C9.419643 -36.054688 9.257812 -35.959821 9.056920 -35.959821C8.867188 -35.959821 8.710938 -36.054688 8.588170 -36.244420C8.543527 -36.311384 8.462612 -36.445312 8.345424 -36.646205C8.228237 -36.847098 8.130580 -37.003348 8.052455 -37.114955C7.572545 -37.784598 6.997768 -38.325893 6.328125 -38.738839C5.658482 -39.151786 4.944196 -39.358259 4.185268 -39.358259C3.537946 -39.358259 2.968750 -39.229911 2.477679 -38.973214C1.986607 -38.716518 1.467634 -38.331473 0.920759 -37.818080C0.786830 -37.706473 0.658482 -37.650670 0.535714 -37.650670C0.390625 -37.650670 0.265067 -37.703683 0.159040 -37.809710C0.053013 -37.915737 0.000000 -38.041295 0.000000 -38.186384C0.000000 -38.242188 0.005580 -38.281250 0.016741 -38.303571C0.518973 -40.345982 1.481585 -42.128906 2.904576 -43.652344C4.327567 -45.175781 5.990513 -46.316964 7.893415 -47.075893C9.796317 -47.834821 11.808036 -48.214286 13.928571 -48.214286C15.491071 -48.214286 17.022879 -47.991071 18.523996 -47.544643C20.025112 -47.098214 21.400670 -46.464844 22.650670 -45.644531C23.900670 -44.824219 24.986049 -43.780692 25.906808 -42.513951C26.827567 -41.247210 27.472098 -39.843750 27.840402 -38.303571C27.851562 -38.281250 27.857143 -38.242188 27.857143 -38.186384ZM15.000000 -50.357143L15.000000 -48.716518C14.531250 -48.738839 14.174107 -48.750000 13.928571 -48.750000C13.683036 -48.750000 13.325893 -48.738839 12.857143 -48.716518L12.857143 -50.357143C12.857143 -50.647321 12.963170 -50.898438 13.175223 -51.110491C13.387277 -51.322545 13.638393 -51.428571 13.928571 -51.428571C14.218750 -51.428571 14.469866 -51.322545 14.681920 -51.110491C14.893973 -50.898438 15.000000 -50.647321 15.000000 -50.357143ZM15.000000 -50.357143"></path></svg>