<svg width="15.669643" height="30.000000" viewBox="0.703125 -55.714286 15.669643 30.000000" xmlns="http://www.w3.org/2000/svg"><path d="M16.372768 -35.876116C16.372768 -34.168527 15.817522 -32.698103 14.707031 -31.464844C13.596540 -30.231585 12.154018 -29.469866 10.379464 -29.179688L10.379464 -26.250000C10.379464 -26.093750 10.329241 -25.965402 10.228795 -25.864955C10.128348 -25.764509 10.000000 -25.714286 9.843750 -25.714286L7.583705 -25.714286C7.438616 -25.714286 7.313058 -25.767299 7.207031 -25.873326C7.101004 -25.979353 7.047991 -26.104911 7.047991 -26.250000L7.047991 -29.179688C6.311384 -29.280134 5.599888 -29.453125 4.913504 -29.698661C4.227121 -29.944196 3.660714 -30.192522 3.214286 -30.443638C2.767857 -30.694754 2.354911 -30.962612 1.975446 -31.247210C1.595982 -31.531808 1.336496 -31.741071 1.196987 -31.875000C1.057478 -32.008929 0.959821 -32.109375 0.904018 -32.176339C0.714286 -32.410714 0.703125 -32.639509 0.870536 -32.862723L2.594866 -35.122768C2.672991 -35.234375 2.801339 -35.301339 2.979911 -35.323661C3.147321 -35.345982 3.281250 -35.295759 3.381696 -35.172991C3.381696 -35.172991 3.392857 -35.161830 3.415179 -35.139509C4.676339 -34.034598 6.032366 -33.337054 7.483259 -33.046875C7.896205 -32.957589 8.309152 -32.912946 8.722098 -32.912946C9.626116 -32.912946 10.421317 -33.152902 11.107701 -33.632812C11.794085 -34.112723 12.137277 -34.793527 12.137277 -35.675223C12.137277 -35.987723 12.053571 -36.283482 11.886161 -36.562500C11.718750 -36.841518 11.531808 -37.075893 11.325335 -37.265625C11.118862 -37.455357 10.792411 -37.664621 10.345982 -37.893415C9.899554 -38.122210 9.531250 -38.300781 9.241071 -38.429129C8.950893 -38.557478 8.504464 -38.738839 7.901786 -38.973214C7.466518 -39.151786 7.123326 -39.291295 6.872210 -39.391741C6.621094 -39.492188 6.277902 -39.640067 5.842634 -39.835379C5.407366 -40.030692 5.058594 -40.203683 4.796317 -40.354353C4.534040 -40.505022 4.218750 -40.703125 3.850446 -40.948661C3.482143 -41.194196 3.183594 -41.431362 2.954799 -41.660156C2.726004 -41.888951 2.483259 -42.162388 2.226562 -42.480469C1.969866 -42.798549 1.771763 -43.122210 1.632254 -43.451451C1.492746 -43.780692 1.375558 -44.151786 1.280692 -44.564732C1.185826 -44.977679 1.138393 -45.412946 1.138393 -45.870536C1.138393 -47.410714 1.685268 -48.761161 2.779018 -49.921875C3.872768 -51.082589 5.295759 -51.830357 7.047991 -52.165179L7.047991 -55.178571C7.047991 -55.323661 7.101004 -55.449219 7.207031 -55.555246C7.313058 -55.661272 7.438616 -55.714286 7.583705 -55.714286L9.843750 -55.714286C10.000000 -55.714286 10.128348 -55.664062 10.228795 -55.563616C10.329241 -55.463170 10.379464 -55.334821 10.379464 -55.178571L10.379464 -52.232143C11.015625 -52.165179 11.632254 -52.036830 12.229353 -51.847098C12.826451 -51.657366 13.311942 -51.470424 13.685826 -51.286272C14.059710 -51.102121 14.414062 -50.892857 14.748884 -50.658482C15.083705 -50.424107 15.301339 -50.262277 15.401786 -50.172991C15.502232 -50.083705 15.585937 -50.005580 15.652902 -49.938616C15.842634 -49.737723 15.870536 -49.525670 15.736607 -49.302455L14.380580 -46.858259C14.291295 -46.690848 14.162946 -46.601562 13.995536 -46.590402C13.839286 -46.556920 13.688616 -46.595982 13.543527 -46.707589C13.510045 -46.741071 13.429129 -46.808036 13.300781 -46.908482C13.172433 -47.008929 12.954799 -47.156808 12.647879 -47.352121C12.340960 -47.547433 12.014509 -47.726004 11.668527 -47.887835C11.322545 -48.049665 10.906808 -48.194754 10.421317 -48.323103C9.935826 -48.451451 9.458705 -48.515625 8.989955 -48.515625C7.929688 -48.515625 7.064732 -48.275670 6.395089 -47.795759C5.725446 -47.315848 5.390625 -46.696429 5.390625 -45.937500C5.390625 -45.647321 5.438058 -45.379464 5.532924 -45.133929C5.627790 -44.888393 5.792411 -44.656808 6.026786 -44.439174C6.261161 -44.221540 6.481585 -44.037388 6.688058 -43.886719C6.894531 -43.736049 7.207031 -43.563058 7.625558 -43.367746C8.044085 -43.172433 8.381696 -43.021763 8.638393 -42.915737C8.895089 -42.809710 9.285714 -42.656250 9.810268 -42.455357C10.401786 -42.232143 10.853795 -42.056362 11.166295 -41.928013C11.478795 -41.799665 11.902902 -41.604353 12.438616 -41.342076C12.974330 -41.079799 13.395647 -40.842634 13.702567 -40.630580C14.009487 -40.418527 14.355469 -40.139509 14.740513 -39.793527C15.125558 -39.447545 15.421317 -39.093192 15.627790 -38.730469C15.834263 -38.367746 16.010045 -37.940848 16.155134 -37.449777C16.300223 -36.958705 16.372768 -36.434152 16.372768 -35.876116ZM16.372768 -35.876116"></path></svg>