<svg width="23.571429" height="27.857143" viewBox="0.000000 -53.571429 23.571429 27.857143" xmlns="http://www.w3.org/2000/svg"><path d="M9.642857 -27.857143L11.250000 -35.357143L9.642857 -37.500000L7.500000 -38.571429ZM13.928571 -27.857143L16.071429 -38.571429L13.928571 -37.500000L12.321429 -35.357143ZM16.607143 -44.765625C16.584821 -44.810268 16.562500 -44.843750 16.540179 -44.866071C16.428571 -44.955357 15.892857 -45.000000 14.933036 -45.000000C14.151786 -45.000000 13.219866 -44.893973 12.137277 -44.681920C12.059152 -44.659598 11.941964 -44.648438 11.785714 -44.648438C11.629464 -44.648438 11.512277 -44.659598 11.434152 -44.681920C10.351562 -44.893973 9.419643 -45.000000 8.638393 -45.000000C7.678571 -45.000000 7.142857 -44.955357 7.031250 -44.866071C7.008929 -44.843750 6.986607 -44.810268 6.964286 -44.765625C6.986607 -44.564732 7.008929 -44.414062 7.031250 -44.313616C7.053571 -44.280134 7.095424 -44.243862 7.156808 -44.204799C7.218192 -44.165737 7.260045 -44.107143 7.282366 -44.029018C7.304688 -43.984375 7.346540 -43.869978 7.407924 -43.685826C7.469308 -43.501674 7.508371 -43.387277 7.525112 -43.342634C7.541853 -43.297991 7.583705 -43.203125 7.650670 -43.058036C7.717634 -42.912946 7.765067 -42.818080 7.792969 -42.773438C7.820871 -42.728795 7.871094 -42.650670 7.943638 -42.539062C8.016183 -42.427455 8.083147 -42.352121 8.144531 -42.313058C8.205915 -42.273996 8.284040 -42.220982 8.378906 -42.154018C8.473772 -42.087054 8.571429 -42.042411 8.671875 -42.020089C8.772321 -41.997768 8.886719 -41.975446 9.015067 -41.953125C9.143415 -41.930804 9.280134 -41.919643 9.425223 -41.919643C9.827009 -41.919643 10.156250 -41.989397 10.412946 -42.128906C10.669643 -42.268415 10.851004 -42.435826 10.957031 -42.631138C11.063058 -42.826451 11.143973 -43.018973 11.199777 -43.208705C11.255580 -43.398438 11.319754 -43.563058 11.392299 -43.702567C11.464844 -43.842076 11.562500 -43.911830 11.685268 -43.911830L11.886161 -43.911830C12.008929 -43.911830 12.106585 -43.842076 12.179129 -43.702567C12.251674 -43.563058 12.315848 -43.398438 12.371652 -43.208705C12.427455 -43.018973 12.508371 -42.826451 12.614397 -42.631138C12.720424 -42.435826 12.901786 -42.268415 13.158482 -42.128906C13.415179 -41.989397 13.744420 -41.919643 14.146205 -41.919643C14.291295 -41.919643 14.428013 -41.930804 14.556362 -41.953125C14.684710 -41.975446 14.799107 -41.997768 14.899554 -42.020089C15.000000 -42.042411 15.097656 -42.087054 15.192522 -42.154018C15.287388 -42.220982 15.365513 -42.273996 15.426897 -42.313058C15.488281 -42.352121 15.555246 -42.427455 15.627790 -42.539062C15.700335 -42.650670 15.750558 -42.728795 15.778460 -42.773438C15.806362 -42.818080 15.853795 -42.912946 15.920759 -43.058036C15.987723 -43.203125 16.029576 -43.297991 16.046317 -43.342634C16.063058 -43.387277 16.102121 -43.501674 16.163504 -43.685826C16.224888 -43.869978 16.266741 -43.984375 16.289062 -44.029018C16.311384 -44.107143 16.353237 -44.165737 16.414621 -44.204799C16.476004 -44.243862 16.517857 -44.280134 16.540179 -44.313616C16.562500 -44.414062 16.584821 -44.564732 16.607143 -44.765625ZM23.571429 -30.050223C23.571429 -28.699777 23.164062 -27.639509 22.349330 -26.869420C21.534598 -26.099330 20.452009 -25.714286 19.101562 -25.714286L4.469866 -25.714286C3.119420 -25.714286 2.036830 -26.099330 1.222098 -26.869420C0.407366 -27.639509 0.000000 -28.699777 0.000000 -30.050223C0.000000 -30.731027 0.025112 -31.389509 0.075335 -32.025670C0.125558 -32.661830 0.231585 -33.362165 0.393415 -34.126674C0.555246 -34.891183 0.764509 -35.580357 1.021205 -36.194196C1.277902 -36.808036 1.632254 -37.385603 2.084263 -37.926897C2.536272 -38.468192 3.058036 -38.883929 3.649554 -39.174107L2.142857 -42.857143L5.725446 -42.857143C5.479911 -43.571429 5.357143 -44.285714 5.357143 -45.000000C5.357143 -45.133929 5.368304 -45.312500 5.390625 -45.535714C3.225446 -45.982143 2.142857 -46.517857 2.142857 -47.142857C2.142857 -47.779018 3.314732 -48.331473 5.658482 -48.800223C5.848214 -49.492188 6.135603 -50.239955 6.520647 -51.043527C6.905692 -51.847098 7.299107 -52.483259 7.700893 -52.952009C8.058036 -53.364955 8.482143 -53.571429 8.973214 -53.571429C9.308036 -53.571429 9.776786 -53.398438 10.379464 -53.052455C10.982143 -52.706473 11.450893 -52.533482 11.785714 -52.533482C12.120536 -52.533482 12.589286 -52.706473 13.191964 -53.052455C13.794643 -53.398438 14.263393 -53.571429 14.598214 -53.571429C15.089286 -53.571429 15.513393 -53.364955 15.870536 -52.952009C16.272321 -52.483259 16.665737 -51.847098 17.050781 -51.043527C17.435826 -50.239955 17.723214 -49.492188 17.912946 -48.800223C20.256696 -48.331473 21.428571 -47.779018 21.428571 -47.142857C21.428571 -46.517857 20.345982 -45.982143 18.180804 -45.535714C18.258929 -44.631696 18.147321 -43.738839 17.845982 -42.857143L21.428571 -42.857143L20.055804 -39.090402C20.758929 -38.722098 21.358817 -38.183594 21.855469 -37.474888C22.352121 -36.766183 22.717634 -35.965402 22.952009 -35.072545C23.186384 -34.179688 23.348214 -33.334263 23.437500 -32.536272C23.526786 -31.738281 23.571429 -30.909598 23.571429 -30.050223ZM23.571429 -30.050223"></path></svg>