<svg width="24.408482" height="27.974330" viewBox="0.652902 -53.688616 24.408482 27.974330" xmlns="http://www.w3.org/2000/svg"><path d="M25.061384 -39.843750L25.061384 -36.529018C23.934152 -36.272321 22.829241 -36.143973 21.746652 -36.143973C21.021205 -34.626116 20.097656 -33.113839 18.976004 -31.607143C17.854353 -30.100446 16.841518 -28.897879 15.937500 -27.999442C15.033482 -27.101004 14.319196 -26.506696 13.794643 -26.216518C12.901786 -25.714286 11.997768 -25.731027 11.082589 -26.266741C10.770089 -26.456473 10.432478 -26.699219 10.069754 -26.994978C9.707031 -27.290737 9.232701 -27.756696 8.646763 -28.392857C8.060826 -29.029018 7.488839 -29.746094 6.930804 -30.544085C6.372768 -31.342076 5.772879 -32.368862 5.131138 -33.624442C4.489397 -34.880022 3.900670 -36.241629 3.364955 -37.709263C2.829241 -39.176897 2.318638 -40.931920 1.833147 -42.974330C1.347656 -45.016741 0.954241 -47.193080 0.652902 -49.503348L5.390625 -49.503348C5.680804 -47.070312 6.071429 -44.846540 6.562500 -42.832031C7.053571 -40.817522 7.636719 -39.048549 8.311942 -37.525112C8.987165 -36.001674 9.665179 -34.687500 10.345982 -33.582589C11.026786 -32.477679 11.808036 -31.389509 12.689732 -30.318080C14.575893 -32.204241 16.177455 -34.469866 17.494420 -37.114955C15.909598 -37.918527 14.665179 -39.146205 13.761161 -40.797991C12.857143 -42.449777 12.405134 -44.308036 12.405134 -46.372768C12.405134 -48.515625 12.985491 -50.270647 14.146205 -51.637835C15.306920 -53.005022 16.891741 -53.688616 18.900670 -53.688616C20.887277 -53.688616 22.410714 -53.099888 23.470982 -51.922433C24.531250 -50.744978 25.061384 -49.084821 25.061384 -46.941964C25.061384 -45.167411 24.737723 -43.571429 24.090402 -42.154018C24.012277 -42.142857 23.903460 -42.126116 23.763951 -42.103795C23.624442 -42.081473 23.367746 -42.070312 22.993862 -42.070312C22.619978 -42.070312 22.268415 -42.103795 21.939174 -42.170759C21.609933 -42.237723 21.263951 -42.380022 20.901228 -42.597656C20.538504 -42.815290 20.256696 -43.102679 20.055804 -43.459821C20.401786 -44.609375 20.574777 -45.636161 20.574777 -46.540179C20.574777 -47.511161 20.412946 -48.247768 20.089286 -48.750000C19.765625 -49.252232 19.324777 -49.503348 18.766741 -49.503348C18.175223 -49.503348 17.700893 -49.227121 17.343750 -48.674665C16.986607 -48.122210 16.808036 -47.338170 16.808036 -46.322545C16.808036 -44.246652 17.393973 -42.608817 18.565848 -41.409040C19.737723 -40.209263 21.227679 -39.609375 23.035714 -39.609375C23.727679 -39.609375 24.402902 -39.687500 25.061384 -39.843750ZM25.061384 -39.843750"></path></svg>