<svg width="27.857143" height="23.805804" viewBox="0.000000 -46.422991 27.857143 23.805804" xmlns="http://www.w3.org/2000/svg"><path d="M12.857143 -43.627232L12.857143 -25.412946C12.857143 -25.122768 12.751116 -24.871652 12.539062 -24.659598C12.327009 -24.447545 12.075893 -24.341518 11.785714 -24.341518C11.495536 -24.341518 11.244420 -24.447545 11.032366 -24.659598L5.457589 -30.234375L1.071429 -30.234375C0.781250 -30.234375 0.530134 -30.340402 0.318080 -30.552455C0.106027 -30.764509 0.000000 -31.015625 0.000000 -31.305804L0.000000 -37.734375C0.000000 -38.024554 0.106027 -38.275670 0.318080 -38.487723C0.530134 -38.699777 0.781250 -38.805804 1.071429 -38.805804L5.457589 -38.805804L11.032366 -44.380580C11.244420 -44.592634 11.495536 -44.698661 11.785714 -44.698661C12.075893 -44.698661 12.327009 -44.592634 12.539062 -44.380580C12.751116 -44.168527 12.857143 -43.917411 12.857143 -43.627232ZM19.285714 -34.520089C19.285714 -33.671875 19.048549 -32.882254 18.574219 -32.151228C18.099888 -31.420201 17.472098 -30.898438 16.690848 -30.585938C16.579241 -30.530134 16.439732 -30.502232 16.272321 -30.502232C15.982143 -30.502232 15.731027 -30.605469 15.518973 -30.811942C15.306920 -31.018415 15.200893 -31.272321 15.200893 -31.573661C15.200893 -31.808036 15.267857 -32.006138 15.401786 -32.167969C15.535714 -32.329799 15.697545 -32.469308 15.887277 -32.586496C16.077009 -32.703683 16.266741 -32.832031 16.456473 -32.971540C16.646205 -33.111049 16.808036 -33.311942 16.941964 -33.574219C17.075893 -33.836496 17.142857 -34.151786 17.142857 -34.520089C17.142857 -34.888393 17.075893 -35.203683 16.941964 -35.465960C16.808036 -35.728237 16.646205 -35.929129 16.456473 -36.068638C16.266741 -36.208147 16.077009 -36.336496 15.887277 -36.453683C15.697545 -36.570871 15.535714 -36.710379 15.401786 -36.872210C15.267857 -37.034040 15.200893 -37.232143 15.200893 -37.466518C15.200893 -37.767857 15.306920 -38.021763 15.518973 -38.228237C15.731027 -38.434710 15.982143 -38.537946 16.272321 -38.537946C16.439732 -38.537946 16.579241 -38.510045 16.690848 -38.454241C17.472098 -38.152902 18.099888 -37.633929 18.574219 -36.897321C19.048549 -36.160714 19.285714 -35.368304 19.285714 -34.520089ZM23.571429 -34.520089C23.571429 -32.812500 23.097098 -31.236049 22.148438 -29.790737C21.199777 -28.345424 19.944196 -27.293527 18.381696 -26.635045C18.236607 -26.579241 18.097098 -26.551339 17.963170 -26.551339C17.661830 -26.551339 17.405134 -26.657366 17.193080 -26.869420C16.981027 -27.081473 16.875000 -27.332589 16.875000 -27.622768C16.875000 -28.058036 17.092634 -28.387277 17.527902 -28.610491C18.152902 -28.934152 18.577009 -29.179688 18.800223 -29.347098C19.626116 -29.949777 20.270647 -30.705915 20.733817 -31.615513C21.196987 -32.525112 21.428571 -33.493304 21.428571 -34.520089C21.428571 -35.546875 21.196987 -36.515067 20.733817 -37.424665C20.270647 -38.334263 19.626116 -39.090402 18.800223 -39.693080C18.577009 -39.860491 18.152902 -40.106027 17.527902 -40.429688C17.092634 -40.652902 16.875000 -40.982143 16.875000 -41.417411C16.875000 -41.707589 16.981027 -41.958705 17.193080 -42.170759C17.405134 -42.382812 17.656250 -42.488839 17.946429 -42.488839C18.091518 -42.488839 18.236607 -42.460938 18.381696 -42.405134C19.944196 -41.746652 21.199777 -40.694754 22.148438 -39.249442C23.097098 -37.804129 23.571429 -36.227679 23.571429 -34.520089ZM27.857143 -34.520089C27.857143 -31.953125 27.148438 -29.595424 25.731027 -27.446987C24.313616 -25.298549 22.427455 -23.716518 20.072545 -22.700893C19.927455 -22.645089 19.782366 -22.617188 19.637277 -22.617188C19.347098 -22.617188 19.095982 -22.723214 18.883929 -22.935268C18.671875 -23.147321 18.565848 -23.398438 18.565848 -23.688616C18.565848 -24.090402 18.783482 -24.419643 19.218750 -24.676339C19.296875 -24.720982 19.422433 -24.779576 19.595424 -24.852121C19.768415 -24.924665 19.893973 -24.983259 19.972098 -25.027902C20.485491 -25.306920 20.943080 -25.591518 21.344866 -25.881696C22.717634 -26.897321 23.789062 -28.164062 24.559152 -29.681920C25.329241 -31.199777 25.714286 -32.812500 25.714286 -34.520089C25.714286 -36.227679 25.329241 -37.840402 24.559152 -39.358259C23.789062 -40.876116 22.717634 -42.142857 21.344866 -43.158482C20.943080 -43.448661 20.485491 -43.733259 19.972098 -44.012277C19.893973 -44.056920 19.768415 -44.115513 19.595424 -44.188058C19.422433 -44.260603 19.296875 -44.319196 19.218750 -44.363839C18.783482 -44.620536 18.565848 -44.949777 18.565848 -45.351562C18.565848 -45.641741 18.671875 -45.892857 18.883929 -46.104911C19.095982 -46.316964 19.347098 -46.422991 19.637277 -46.422991C19.782366 -46.422991 19.927455 -46.395089 20.072545 -46.339286C22.427455 -45.323661 24.313616 -43.741629 25.731027 -41.593192C27.148438 -39.444754 27.857143 -37.087054 27.857143 -34.520089ZM27.857143 -34.520089"></path></svg>