<svg width="22.064732" height="27.857143" viewBox="1.824777 -53.571429 22.064732 27.857143" xmlns="http://www.w3.org/2000/svg"><path d="M14.380580 -37.550223L14.598214 -25.714286C13.906250 -25.837054 13.320312 -25.898438 12.840402 -25.898438C12.382812 -25.898438 11.796875 -25.837054 11.082589 -25.714286L11.300223 -37.550223C10.853795 -38.320312 9.913504 -39.969308 8.479353 -42.497210C7.045201 -45.025112 5.837054 -47.114955 4.854911 -48.766741C3.872768 -50.418527 2.862723 -52.020089 1.824777 -53.571429C2.472098 -53.404018 3.074777 -53.320312 3.632812 -53.320312C4.123884 -53.320312 4.743304 -53.404018 5.491071 -53.571429C6.194196 -52.332589 6.939174 -51.051897 7.726004 -49.729353C8.512835 -48.406808 9.444754 -46.863839 10.521763 -45.100446C11.598772 -43.337054 12.371652 -42.070312 12.840402 -41.300223C13.253348 -41.981027 13.864397 -42.971540 14.673549 -44.271763C15.482701 -45.571987 16.138393 -46.632254 16.640625 -47.452567C17.142857 -48.272879 17.728795 -49.255022 18.398438 -50.398996C19.068080 -51.542969 19.665179 -52.600446 20.189732 -53.571429C20.792411 -53.415179 21.389509 -53.337054 21.981027 -53.337054C22.606027 -53.337054 23.242188 -53.415179 23.889509 -53.571429C23.577009 -53.136161 23.242188 -52.642299 22.885045 -52.089844C22.527902 -51.537388 22.251674 -51.099330 22.056362 -50.775670C21.861049 -50.452009 21.545759 -49.916295 21.110491 -49.168527C20.675223 -48.420759 20.401786 -47.952009 20.290179 -47.762277C18.660714 -44.994420 16.690848 -41.590402 14.380580 -37.550223ZM14.380580 -37.550223"></path></svg>