<svg width="24.810268" height="30.000000" viewBox="0.452009 -55.714286 24.810268 30.000000" xmlns="http://www.w3.org/2000/svg"><path d="M16.255580 -34.888393L16.255580 -31.356027C16.255580 -30.608259 16.037946 -30.234375 15.602679 -30.234375C15.345982 -30.234375 15.094866 -30.357143 14.849330 -30.602679L14.849330 -35.641741C15.094866 -35.887277 15.345982 -36.010045 15.602679 -36.010045C16.037946 -36.010045 16.255580 -35.636161 16.255580 -34.888393ZM21.914062 -34.871652L21.914062 -34.101562L20.407366 -34.101562L20.407366 -34.871652C20.407366 -35.630580 20.658482 -36.010045 21.160714 -36.010045C21.662946 -36.010045 21.914062 -35.630580 21.914062 -34.871652ZM5.742188 -38.521205L7.533482 -38.521205L7.533482 -40.094866L2.310268 -40.094866L2.310268 -38.521205L4.068080 -38.521205L4.068080 -28.995536L5.742188 -28.995536ZM10.563616 -28.995536L12.053571 -28.995536L12.053571 -37.265625L10.563616 -37.265625L10.563616 -30.937500C10.228795 -30.468750 9.910714 -30.234375 9.609375 -30.234375C9.408482 -30.234375 9.291295 -30.351562 9.257812 -30.585938C9.246652 -30.619420 9.241071 -30.814732 9.241071 -31.171875L9.241071 -37.265625L7.751116 -37.265625L7.751116 -30.719866C7.751116 -30.172991 7.795759 -29.765625 7.885045 -29.497768C8.018973 -29.084821 8.342634 -28.878348 8.856027 -28.878348C9.391741 -28.878348 9.960938 -29.218750 10.563616 -29.899554ZM17.745536 -31.473214L17.745536 -34.771205C17.745536 -35.585938 17.695312 -36.138393 17.594866 -36.428571C17.405134 -37.053571 17.008929 -37.366071 16.406250 -37.366071C15.848214 -37.366071 15.329241 -37.064732 14.849330 -36.462054L14.849330 -40.094866L13.359375 -40.094866L13.359375 -28.995536L14.849330 -28.995536L14.849330 -29.799107C15.351562 -29.185268 15.870536 -28.878348 16.406250 -28.878348C17.008929 -28.878348 17.405134 -29.185268 17.594866 -29.799107C17.695312 -30.100446 17.745536 -30.658482 17.745536 -31.473214ZM23.404018 -31.640625L23.404018 -31.858259L21.880580 -31.858259C21.880580 -31.289062 21.869420 -30.948661 21.847098 -30.837054C21.768973 -30.435268 21.545759 -30.234375 21.177455 -30.234375C20.664062 -30.234375 20.407366 -30.619420 20.407366 -31.389509L20.407366 -32.845982L23.404018 -32.845982L23.404018 -34.570312C23.404018 -35.452009 23.253348 -36.099330 22.952009 -36.512277C22.516741 -37.081473 21.925223 -37.366071 21.177455 -37.366071C20.418527 -37.366071 19.821429 -37.081473 19.386161 -36.512277C19.073661 -36.099330 18.917411 -35.452009 18.917411 -34.570312L18.917411 -31.674107C18.917411 -30.792411 19.079241 -30.145089 19.402902 -29.732143C19.838170 -29.162946 20.440848 -28.878348 21.210938 -28.878348C22.014509 -28.878348 22.617188 -29.174107 23.018973 -29.765625C23.219866 -30.066964 23.337054 -30.368304 23.370536 -30.669643C23.392857 -30.770089 23.404018 -31.093750 23.404018 -31.640625ZM13.225446 -46.925223L13.225446 -50.440848C13.225446 -51.210938 12.985491 -51.595982 12.505580 -51.595982C12.025670 -51.595982 11.785714 -51.210938 11.785714 -50.440848L11.785714 -46.925223C11.785714 -46.143973 12.025670 -45.753348 12.505580 -45.753348C12.985491 -45.753348 13.225446 -46.143973 13.225446 -46.925223ZM25.262277 -34.352679C25.262277 -31.741071 25.117188 -29.787946 24.827009 -28.493304C24.670759 -27.834821 24.347098 -27.282366 23.856027 -26.835938C23.364955 -26.389509 22.795759 -26.132812 22.148438 -26.065848C20.094866 -25.831473 16.997768 -25.714286 12.857143 -25.714286C8.716518 -25.714286 5.619420 -25.831473 3.565848 -26.065848C2.918527 -26.132812 2.346540 -26.389509 1.849888 -26.835938C1.353237 -27.282366 1.032366 -27.834821 0.887277 -28.493304C0.597098 -29.743304 0.452009 -31.696429 0.452009 -34.352679C0.452009 -36.964286 0.597098 -38.917411 0.887277 -40.212054C1.043527 -40.870536 1.367188 -41.422991 1.858259 -41.869420C2.349330 -42.315848 2.924107 -42.578125 3.582589 -42.656250C5.625000 -42.879464 8.716518 -42.991071 12.857143 -42.991071C16.997768 -42.991071 20.094866 -42.879464 22.148438 -42.656250C22.795759 -42.578125 23.367746 -42.315848 23.864397 -41.869420C24.361049 -41.422991 24.681920 -40.870536 24.827009 -40.212054C25.117188 -38.962054 25.262277 -37.008929 25.262277 -34.352679ZM8.554688 -55.714286L10.262277 -55.714286L8.236607 -49.034598L8.236607 -44.497768L6.562500 -44.497768L6.562500 -49.034598C6.406250 -49.860491 6.065848 -51.043527 5.541295 -52.583705C5.128348 -53.733259 4.765625 -54.776786 4.453125 -55.714286L6.227679 -55.714286L7.416295 -51.311384ZM14.748884 -50.139509L14.748884 -47.209821C14.748884 -46.305804 14.592634 -45.647321 14.280134 -45.234375C13.856027 -44.665179 13.264509 -44.380580 12.505580 -44.380580C11.757812 -44.380580 11.171875 -44.665179 10.747768 -45.234375C10.435268 -45.658482 10.279018 -46.316964 10.279018 -47.209821L10.279018 -50.139509C10.279018 -51.032366 10.435268 -51.685268 10.747768 -52.098214C11.171875 -52.667411 11.757812 -52.952009 12.505580 -52.952009C13.264509 -52.952009 13.856027 -52.667411 14.280134 -52.098214C14.592634 -51.685268 14.748884 -51.032366 14.748884 -50.139509ZM20.357143 -52.851562L20.357143 -44.497768L18.833705 -44.497768L18.833705 -45.418527C18.242188 -44.726562 17.667411 -44.380580 17.109375 -44.380580C16.595982 -44.380580 16.266741 -44.587054 16.121652 -45.000000C16.032366 -45.267857 15.987723 -45.686384 15.987723 -46.255580L15.987723 -52.851562L17.511161 -52.851562L17.511161 -46.707589C17.511161 -46.339286 17.516741 -46.143973 17.527902 -46.121652C17.561384 -45.876116 17.678571 -45.753348 17.879464 -45.753348C18.180804 -45.753348 18.498884 -45.993304 18.833705 -46.473214L18.833705 -52.851562ZM20.357143 -52.851562"></path></svg>