<svg viewBox="0 -27.0703 14 13.5352" xmlns="http://www.w3.org/2000/svg"><path d="M10.82-22.7q-.5 0-.99.16 .3-.69.3-1.37 0-1.32-.92-2.25 -.92-.93-2.23-.93 -1.32 0-2.25.92 -.93.92-.93 2.21 0 .65.32 1.39 -.5-.17-.99-.17 -1.32 0-2.25.92 -.93.92-.93 2.24 0 1.31.92 2.24 .92.92 2.24.92 .95 0 1.81-.4 .86-.4 1.35-1.11 0 1.23-.32 2.55 -.32 1.32-1 1.32v.43h3.93v-.44q-.69 0-1-1.33 -.32-1.33-.32-2.56 .49.71 1.35 1.1 .86.39 1.81.39 1.31 0 2.24-.93 .92-.93.92-2.25 0-1.32-.93-2.25 -.93-.93-2.25-.93Zm0 5.9q-1.24 0-2.21-.69 -.98-.69-.98-1.75h-.44v1.31q0 2.87.9 3.93H5.84q.9-1.07.9-3.94v-1.32H6.3q0 1.06-.98 1.75 -.98.68-2.21.68 -1.13 0-1.93-.81 -.81-.81-.81-1.93 0-1.13.8-1.93 .8-.81 1.92-.81 .84 0 1.47.43l.27-.33q-.66-.8-.66-1.75 0-1.13.8-1.93 .8-.81 1.92-.81 1.12 0 1.92.8 .8.8.8 1.92 0 .95-.66 1.75l.27.32q.62-.44 1.47-.44 1.12 0 1.92.8 .8.8.8 1.92 0 1.12-.81 1.92 -.81.8-1.93.8Z"/></svg>