<?xml version="1.0" encoding="utf-8"?>
<!-- Generator: Adobe Illustrator 16.0.0, SVG Export Plug-In . SVG Version: 6.00 Build 0)  -->
<!DOCTYPE svg PUBLIC "-//W3C//DTD SVG 1.1//EN" "http://www.w3.org/Graphics/SVG/1.1/DTD/svg11.dtd">
<svg version="1.1" id="Layer_1" xmlns="http://www.w3.org/2000/svg" xmlns:xlink="http://www.w3.org/1999/xlink" x="0px" y="0px"
	 width="64px" height="64px" viewBox="0 0 64 64" enable-background="new 0 0 64 64" xml:space="preserve">
<g>
	<path d="M32,0c-9.374,0-17,7.626-17,17v30c0,9.374,7.626,17,17,17s17-7.626,17-17V17C49,7.626,41.374,0,32,0z M47,47
		c0,8.271-6.729,15-15,15s-15-6.729-15-15V17c0-8.271,6.729-15,15-15s15,6.729,15,15V47z"/>
	<path d="M32,34c-7.168,0-13,5.832-13,13s5.832,13,13,13s13-5.832,13-13S39.168,34,32,34z M32,58c-6.065,0-11-4.935-11-11
		s4.935-11,11-11s11,4.935,11,11S38.065,58,32,58z"/>
</g>
</svg>
