<?xml version="1.0" encoding="utf-8"?>
<!-- Generator: Adobe Illustrator 16.0.0, SVG Export Plug-In . SVG Version: 6.00 Build 0)  -->
<!DOCTYPE svg PUBLIC "-//W3C//DTD SVG 1.1//EN" "http://www.w3.org/Graphics/SVG/1.1/DTD/svg11.dtd">
<svg version="1.1" id="Layer_1" xmlns="http://www.w3.org/2000/svg" xmlns:xlink="http://www.w3.org/1999/xlink" x="0px" y="0px"
	 width="64px" height="64px" viewBox="0 0 64 64" enable-background="new 0 0 64 64" xml:space="preserve">
<g>
	<path d="M32,0C14.355,0,0,14.355,0,32c0,6.712,2.056,13.137,5.945,18.581L10.349,55H2v2h11l1-1V45h-2v8.828l-4.476-4.476
		C3.91,44.263,2,38.265,2,32C2,15.458,15.458,2,32,2c0.65,0,1.297,0.021,1.937,0.062l0.127-1.996C33.381,0.022,32.693,0,32,0z"/>
	<path d="M53.083,7.926L51.765,9.43c0.983,0.862,1.918,1.795,2.777,2.774l1.502-1.319C55.128,9.84,54.132,8.845,53.083,7.926z"/>
	<path d="M62.32,42.258l-1.895-0.641c-0.419,1.238-0.924,2.459-1.5,3.627l1.793,0.885C61.334,44.883,61.873,43.581,62.32,42.258z"/>
	<path d="M48.027,59.703c1.202-0.696,2.371-1.48,3.477-2.331l-1.221-1.585c-1.036,0.798-2.132,1.533-3.258,2.186L48.027,59.703z"/>
	<path d="M46.98,6.002c1.129,0.653,2.228,1.387,3.264,2.182l1.217-1.587c-1.104-0.848-2.275-1.631-3.48-2.327L46.98,6.002z"/>
	<path d="M61.935,30.009C61.979,30.664,62,31.334,62,32c0,0.649-0.021,1.294-0.062,1.934l1.996,0.127C63.978,33.379,64,32.692,64,32
		c0-0.71-0.023-1.424-0.069-2.123L61.935,30.009z"/>
	<path d="M42.317,62.3c1.315-0.448,2.617-0.988,3.866-1.607l-0.887-1.792c-1.172,0.58-2.391,1.086-3.624,1.506L42.317,62.3z"/>
	<path d="M36.206,63.726c1.383-0.182,2.765-0.457,4.106-0.817l-0.518-1.932c-1.258,0.337-2.553,0.595-3.849,0.765L36.206,63.726z"/>
	<path d="M35.892,2.25c1.295,0.168,2.591,0.423,3.852,0.758l0.514-1.933c-1.345-0.358-2.727-0.63-4.107-0.809L35.892,2.25z"/>
	<path d="M62.909,23.687l-1.932,0.519c0.338,1.258,0.596,2.553,0.766,3.848l1.982-0.26C63.545,26.412,63.27,25.03,62.909,23.687z"/>
	<path d="M51.8,54.54l1.32,1.502c1.045-0.919,2.039-1.916,2.956-2.962l-1.504-1.318C53.712,52.743,52.779,53.678,51.8,54.54z"/>
	<path d="M63.733,36.146l-1.984-0.257c-0.168,1.298-0.423,2.593-0.758,3.85l1.934,0.515C63.281,38.912,63.554,37.53,63.733,36.146z"
		/>
	<path d="M55.79,13.72c0.798,1.037,1.532,2.133,2.184,3.258l1.73-1.001c-0.694-1.201-1.479-2.371-2.33-3.477L55.79,13.72z"/>
	<path d="M58.901,18.707c0.578,1.168,1.085,2.386,1.506,3.62l1.893-0.645c-0.448-1.317-0.988-2.617-1.605-3.863L58.901,18.707z"/>
	<path d="M41.62,3.576c1.235,0.418,2.456,0.923,3.628,1.5l0.885-1.794c-1.251-0.616-2.554-1.155-3.872-1.601L41.62,3.576z"/>
	<path d="M59.731,47.979l-1.732-1c-0.652,1.13-1.387,2.229-2.181,3.265l1.588,1.217C58.253,50.355,59.035,49.184,59.731,47.979z"/>
	<path d="M32,62v2c0.693,0,1.381-0.022,2.063-0.065l-0.127-1.996C33.297,61.979,32.65,62,32,62z"/>
</g>
</svg>
