<?xml version="1.0" encoding="utf-8"?>
<!-- Generator: Adobe Illustrator 16.0.0, SVG Export Plug-In . SVG Version: 6.00 Build 0)  -->
<!DOCTYPE svg PUBLIC "-//W3C//DTD SVG 1.1//EN" "http://www.w3.org/Graphics/SVG/1.1/DTD/svg11.dtd">
<svg version="1.1" id="Layer_1" xmlns="http://www.w3.org/2000/svg" xmlns:xlink="http://www.w3.org/1999/xlink" x="0px" y="0px"
	 width="64px" height="64px" viewBox="0 0 64 64" enable-background="new 0 0 64 64" xml:space="preserve">
<g>
	<path d="M31,0c-0.68,0-1.375,0.023-2.064,0.068l0.132,1.996C29.711,2.021,30.355,2,31,2V0z"/>
	<path d="M0.411,36.055l1.974-0.326c-0.218-1.317-0.344-2.667-0.376-4.009l-1.999,0.047C0.043,33.202,0.178,34.645,0.411,36.055z"/>
	<path d="M0.031,29.613l1.998,0.09c0.06-1.339,0.214-2.686,0.458-4.004l-1.967-0.363C0.261,26.743,0.096,28.183,0.031,29.613z"/>
	<path d="M0.986,23.231l1.937,0.5c0.335-1.3,0.764-2.586,1.275-3.82l-1.849-0.764C1.804,20.468,1.345,21.842,0.986,23.231z"/>
	<rect x="6.528" y="49.616" transform="matrix(0.707 0.7072 -0.7072 0.707 38.3172 8.7373)" width="4.17" height="2"/>
	<path d="M26.793,0.284c-1.419,0.194-2.838,0.488-4.215,0.875l0.541,1.926c1.289-0.362,2.616-0.638,3.944-0.818L26.793,0.284z"/>
	<path d="M20.526,1.815c-1.35,0.483-2.676,1.065-3.943,1.732l0.931,1.77c1.185-0.622,2.425-1.167,3.686-1.619L20.526,1.815z"/>
	<path d="M2.967,44.256c0.613,1.295,1.323,2.558,2.109,3.754l1.671-1.1c-0.736-1.118-1.399-2.299-1.973-3.51L2.967,44.256z"/>
	<path d="M3.241,17.186l1.791,0.891c0.595-1.196,1.282-2.364,2.042-3.471l-1.648-1.133C4.613,14.656,3.878,15.905,3.241,17.186z"/>
	<path d="M0.833,38.167c0.33,1.393,0.761,2.775,1.281,4.109l1.863-0.727c-0.487-1.248-0.89-2.541-1.198-3.844L0.833,38.167z"/>
	<path d="M15.766,6.316l-1.053-1.701c-1.219,0.755-2.394,1.601-3.494,2.516l1.278,1.537C13.526,7.813,14.625,7.021,15.766,6.316z"/>
	<path d="M9.081,9.08c-0.84,0.841-1.639,1.735-2.374,2.66l1.566,1.244c0.688-0.865,1.435-1.703,2.224-2.492
		c0.164-0.165,0.329-0.325,0.496-0.484L9.612,8.561C9.433,8.731,9.255,8.905,9.081,9.08z"/>
	<path d="M33,62v2c0.68,0,1.375-0.023,2.064-0.068l-0.132-1.996C34.289,61.979,33.645,62,33,62z"/>
	<path d="M61.885,21.724l-1.863,0.727c0.487,1.248,0.89,2.541,1.198,3.844l1.946-0.461C62.837,24.44,62.406,23.058,61.885,21.724z"
		/>
	<path d="M63.014,40.769l-1.937-0.5c-0.335,1.3-0.764,2.586-1.275,3.82l1.849,0.764C62.196,43.532,62.655,42.158,63.014,40.769z"/>
	<path d="M61.616,28.271c0.218,1.317,0.344,2.667,0.376,4.009l1.999-0.047c-0.034-1.436-0.169-2.878-0.402-4.288L61.616,28.271z"/>
	<path d="M61.512,38.301l1.967,0.363c0.26-1.407,0.425-2.847,0.49-4.277l-1.998-0.09C61.911,35.636,61.756,36.982,61.512,38.301z"/>
	<path d="M49.287,59.385c1.219-0.755,2.394-1.601,3.494-2.516l-1.278-1.537c-1.029,0.854-2.128,1.646-3.269,2.352L49.287,59.385z"/>
	<path d="M54.388,55.439c0.179-0.171,0.357-0.345,0.531-0.52c0.84-0.841,1.639-1.735,2.374-2.66l-1.566-1.244
		c-0.688,0.865-1.435,1.703-2.224,2.492c-0.164,0.165-0.329,0.325-0.496,0.484L54.388,55.439z"/>
	<path d="M60.759,46.814l-1.791-0.891c-0.595,1.196-1.282,2.364-2.042,3.471l1.648,1.133C59.387,49.344,60.122,48.095,60.759,46.814
		z"/>
	<path d="M40.88,60.915c-1.289,0.362-2.616,0.638-3.944,0.818l0.271,1.982c1.419-0.194,2.838-0.488,4.215-0.875L40.88,60.915z"/>
	<path d="M46.486,58.683c-1.185,0.622-2.425,1.167-3.686,1.619l0.674,1.883c1.35-0.483,2.676-1.065,3.943-1.732L46.486,58.683z"/>
	<path d="M61.033,19.744c-0.613-1.295-1.323-2.558-2.109-3.754l-1.671,1.1c0.736,1.118,1.399,2.299,1.973,3.51L61.033,19.744z"/>
	<rect x="53.302" y="12.384" transform="matrix(-0.707 -0.7072 0.7072 -0.707 85.0837 62.0145)" width="4.17" height="2"/>
	<polygon points="2,54 2,56 13,56 14,55 14,44 12,44 12,53.172 11.172,54 	"/>
	<polygon points="50,9 50,20 52,20 52,10.828 52.828,10 62,10 62,8 51,8 	"/>
</g>
</svg>
