<?xml version="1.0" encoding="utf-8"?>
<!-- Generator: Adobe Illustrator 16.0.0, SVG Export Plug-In . SVG Version: 6.00 Build 0)  -->
<!DOCTYPE svg PUBLIC "-//W3C//DTD SVG 1.1//EN" "http://www.w3.org/Graphics/SVG/1.1/DTD/svg11.dtd">
<svg version="1.1" id="Layer_1" xmlns="http://www.w3.org/2000/svg" xmlns:xlink="http://www.w3.org/1999/xlink" x="0px" y="0px"
	 width="64px" height="64px" viewBox="0 0 64 64" enable-background="new 0 0 64 64" xml:space="preserve">
<g>
	<rect x="31" y="55" width="2" height="4"/>
	<rect x="31" y="49" width="2" height="4"/>
	<rect x="31" y="37" width="2" height="4"/>
	<rect x="31" y="43" width="2" height="4"/>
	<path d="M48,16c0-8.822-7.178-16-16-16S16,7.178,16,16c0,8.484,6.644,15.429,15,15.949V35h2v-3.051C41.356,31.429,48,24.484,48,16z
		 M32,30c-7.72,0-14-6.28-14-14S24.28,2,32,2s14,6.28,14,14S39.72,30,32,30z"/>
	<polygon points="23.707,53.293 22.293,54.854 31.293,64 32.707,64 41.707,54.854 40.293,53.366 32.586,61 31.414,61 	"/>
</g>
</svg>
