<?xml version="1.0" encoding="utf-8"?>
<!-- Generator: Adobe Illustrator 16.0.0, SVG Export Plug-In . SVG Version: 6.00 Build 0)  -->
<!DOCTYPE svg PUBLIC "-//W3C//DTD SVG 1.1//EN" "http://www.w3.org/Graphics/SVG/1.1/DTD/svg11.dtd">
<svg version="1.1" id="Layer_1" xmlns="http://www.w3.org/2000/svg" xmlns:xlink="http://www.w3.org/1999/xlink" x="0px" y="0px"
	 width="64px" height="64px" viewBox="0 0 64 64" enable-background="new 0 0 64 64" xml:space="preserve">
<g>
	<path d="M8.182,50.243c-0.794-1.036-1.528-2.134-2.181-3.265l-1.732,1c0.696,1.206,1.479,2.377,2.325,3.481L8.182,50.243z"/>
	<path d="M4.296,15.977l1.73,1.001c0.651-1.125,1.386-2.221,2.184-3.258L6.626,12.5C5.774,13.606,4.99,14.776,4.296,15.977z"/>
	<path d="M0,32c0,0.692,0.022,1.379,0.065,2.061l1.996-0.127C2.021,33.294,2,32.649,2,32c0-0.666,0.021-1.336,0.065-1.991
		l-1.996-0.132C0.023,30.576,0,31.29,0,32z"/>
	<path d="M0.267,36.146c0.18,1.385,0.452,2.767,0.809,4.108l1.934-0.515c-0.335-1.257-0.59-2.552-0.758-3.85L0.267,36.146z"/>
	<path d="M0.274,27.793l1.982,0.26c0.17-1.294,0.428-2.589,0.766-3.848l-1.932-0.519C0.73,25.03,0.455,26.412,0.274,27.793z"/>
	<path d="M1.7,21.683l1.893,0.645c0.421-1.234,0.928-2.452,1.506-3.62l-1.793-0.888C2.688,19.065,2.148,20.365,1.7,21.683z"/>
	<path d="M5.074,45.245c-0.576-1.168-1.081-2.389-1.5-3.627L1.68,42.258c0.447,1.322,0.986,2.625,1.602,3.872L5.074,45.245z"/>
	<path d="M22.38,3.576l-0.641-1.895c-1.318,0.446-2.621,0.985-3.872,1.601l0.885,1.794C19.924,4.499,21.145,3.994,22.38,3.576z"/>
	<path d="M15.973,59.703l1.002-1.73c-1.126-0.652-2.222-1.388-3.258-2.186l-1.221,1.585C13.602,58.223,14.771,59.007,15.973,59.703z
		"/>
	<path d="M27.794,63.726l0.26-1.983c-1.296-0.17-2.591-0.428-3.849-0.765l-0.518,1.932C25.029,63.269,26.411,63.544,27.794,63.726z"
		/>
	<path d="M21.683,62.3l0.645-1.894c-1.233-0.419-2.452-0.926-3.624-1.506l-0.887,1.792C19.065,61.312,20.367,61.853,21.683,62.3z"/>
	<path d="M17.02,6.002l-1-1.731c-1.205,0.696-2.376,1.479-3.48,2.327l1.217,1.587C14.792,7.389,15.891,6.655,17.02,6.002z"/>
	<path d="M28.108,2.25l-0.258-1.983c-1.381,0.179-2.763,0.451-4.107,0.809l0.514,1.933C25.518,2.673,26.813,2.418,28.108,2.25z"/>
	<path d="M10.917,7.926C9.868,8.845,8.872,9.84,7.956,10.884l1.502,1.319c0.859-0.979,1.794-1.912,2.777-2.774L10.917,7.926z"/>
	<path d="M10.88,56.042l1.32-1.502c-0.979-0.862-1.912-1.796-2.772-2.778L7.924,53.08C8.841,54.126,9.835,55.123,10.88,56.042z"/>
	<path d="M32,62c-0.65,0-1.297-0.021-1.937-0.062l-0.127,1.996C30.619,63.978,31.307,64,32,64V62z"/>
	<path d="M32,0c-0.693,0-1.381,0.022-2.063,0.065l0.127,1.996C30.703,2.021,31.35,2,32,2c16.542,0,30,13.458,30,30
		c0,6.265-1.91,12.263-5.524,17.352L52,53.828V45h-2v11l1,1h11v-2h-8.344l4.292-4.293l0.106-0.126C61.944,45.137,64,38.712,64,32
		C64,14.355,49.645,0,32,0z"/>
</g>
</svg>
