<?xml version="1.0" encoding="utf-8"?>
<!-- Generator: Adobe Illustrator 16.0.0, SVG Export Plug-In . SVG Version: 6.00 Build 0)  -->
<!DOCTYPE svg PUBLIC "-//W3C//DTD SVG 1.1//EN" "http://www.w3.org/Graphics/SVG/1.1/DTD/svg11.dtd">
<svg version="1.1" id="Layer_1" xmlns="http://www.w3.org/2000/svg" xmlns:xlink="http://www.w3.org/1999/xlink" x="0px" y="0px"
	 width="64px" height="64px" viewBox="0 0 64 64" enable-background="new 0 0 64 64" xml:space="preserve">
<g>
	<polygon points="42,0 42,64 44,64 44,33 60.586,33 55.293,38.293 56.854,39.707 64,32.707 64,31.293 56.854,24.293 55.366,25.707 
		60.586,31 44,31 44,0 	"/>
	<polygon points="7.146,24.293 0,31.293 0,32.707 7.146,39.707 8.634,38.293 3.414,33 20,33 20,64 22,64 22,0 20,0 20,31 3.414,31 
		8.634,25.707 	"/>
</g>
</svg>
