<?xml version="1.0" encoding="utf-8"?>
<!-- Generator: Adobe Illustrator 16.0.0, SVG Export Plug-In . SVG Version: 6.00 Build 0)  -->
<!DOCTYPE svg PUBLIC "-//W3C//DTD SVG 1.1//EN" "http://www.w3.org/Graphics/SVG/1.1/DTD/svg11.dtd">
<svg version="1.1" id="Layer_1" xmlns="http://www.w3.org/2000/svg" xmlns:xlink="http://www.w3.org/1999/xlink" x="0px" y="0px"
	 width="64px" height="64px" viewBox="0 0 64 64" enable-background="new 0 0 64 64" xml:space="preserve">
<g>
	<polygon points="1.707,36.293 0.293,37.707 26.293,63.707 27.707,62.293 15.414,50 28,37.414 28,46 30,46 30,35 29,34 18,34 18,36 
		26.586,36 14,48.586 	"/>
	<polygon points="34,18 34,29 35,30 46,30 46,28 37.414,28 50,15.414 62.293,27.707 63.707,26.293 37.707,0.293 36.293,1.707 
		48.586,14 36,26.586 36,18 	"/>
</g>
</svg>
