<?xml version="1.0" encoding="utf-8"?>
<!-- Generator: Adobe Illustrator 16.0.0, SVG Export Plug-In . SVG Version: 6.00 Build 0)  -->
<!DOCTYPE svg PUBLIC "-//W3C//DTD SVG 1.1//EN" "http://www.w3.org/Graphics/SVG/1.1/DTD/svg11.dtd">
<svg version="1.1" id="Layer_1" xmlns="http://www.w3.org/2000/svg" xmlns:xlink="http://www.w3.org/1999/xlink" x="0px" y="0px"
	 width="64px" height="64px" viewBox="0 0 64 64" enable-background="new 0 0 64 64" xml:space="preserve">
<g>
	<path d="M48,16c-8.485,0-15.429,6.645-15.949,15H3.414l7.293-7.293l-1.561-1.414l-9.146,9v1.414l9.146,9l1.487-1.414L3.414,33
		h28.637C32.571,41.355,39.515,48,48,48c8.822,0,16-7.178,16-16S56.822,16,48,16z M48,46c-7.72,0-14-6.28-14-14s6.28-14,14-14
		s14,6.28,14,14S55.72,46,48,46z"/>
</g>
</svg>
