<?xml version="1.0" encoding="utf-8"?>
<!-- Generator: Adobe Illustrator 16.0.0, SVG Export Plug-In . SVG Version: 6.00 Build 0)  -->
<!DOCTYPE svg PUBLIC "-//W3C//DTD SVG 1.1//EN" "http://www.w3.org/Graphics/SVG/1.1/DTD/svg11.dtd">
<svg version="1.1" id="Layer_1" xmlns="http://www.w3.org/2000/svg" xmlns:xlink="http://www.w3.org/1999/xlink" x="0px" y="0px"
	 width="64px" height="64px" viewBox="0 0 64 64" enable-background="new 0 0 64 64" xml:space="preserve">
<g>
	<path d="M32,0C23.453,0,15.418,3.329,9.374,9.373C3.329,15.417,0,23.453,0,32s3.329,16.583,9.374,22.627
		C15.418,60.671,23.453,64,32,64s16.582-3.329,22.626-9.374C60.671,48.583,64,40.547,64,32s-3.329-16.583-9.374-22.627
		C48.582,3.329,40.547,0,32,0z M10.788,53.213C5.121,47.546,2,40.013,2,32c0-7.678,2.872-14.911,8.098-20.488l42.391,42.391
		C46.912,59.128,39.679,62,32,62C23.987,62,16.454,58.88,10.788,53.213z M53.902,52.488L11.512,10.098C17.088,4.872,24.321,2,32,2
		c8.013,0,15.546,3.121,21.212,8.788C58.879,16.454,62,23.987,62,32C62,39.678,59.128,46.911,53.902,52.488z"/>
</g>
</svg>
