<?xml version="1.0" encoding="utf-8"?>
<!-- Generator: Adobe Illustrator 16.0.0, SVG Export Plug-In . SVG Version: 6.00 Build 0)  -->
<!DOCTYPE svg PUBLIC "-//W3C//DTD SVG 1.1//EN" "http://www.w3.org/Graphics/SVG/1.1/DTD/svg11.dtd">
<svg version="1.1" id="Layer_1" xmlns="http://www.w3.org/2000/svg" xmlns:xlink="http://www.w3.org/1999/xlink" x="0px" y="0px"
	 width="64px" height="64px" viewBox="0 0 64 64" enable-background="new 0 0 64 64" xml:space="preserve">
<g>
	<path d="M1,0L0,1v62l1,1h62l1-1V1l-1-1H1z M62,62H2V2h60V62z"/>
	<path d="M22,36c-3.309,0-6,2.691-6,6s2.691,6,6,6s6-2.691,6-6v-4h8v4c0,3.309,2.691,6,6,6s6-2.691,6-6s-2.691-6-6-6h-4v-8h4
		c3.309,0,6-2.691,6-6s-2.691-6-6-6s-6,2.691-6,6v4h-8v-4c0-3.309-2.691-6-6-6s-6,2.691-6,6s2.691,6,6,6h4v8H22z M26,42
		c0,2.206-1.794,4-4,4s-4-1.794-4-4s1.794-4,4-4h4V42z M38,22c0-2.206,1.794-4,4-4s4,1.794,4,4s-1.794,4-4,4h-4V22z M38,38h4
		c2.206,0,4,1.794,4,4s-1.794,4-4,4s-4-1.794-4-4V38z M28,28h8v8h-8V28z M22,26c-2.206,0-4-1.794-4-4s1.794-4,4-4s4,1.794,4,4v4H22z
		"/>
</g>
</svg>
