<?xml version="1.0" encoding="utf-8"?>
<!-- Generator: Adobe Illustrator 16.0.0, SVG Export Plug-In . SVG Version: 6.00 Build 0)  -->
<!DOCTYPE svg PUBLIC "-//W3C//DTD SVG 1.1//EN" "http://www.w3.org/Graphics/SVG/1.1/DTD/svg11.dtd">
<svg version="1.1" id="Layer_1" xmlns="http://www.w3.org/2000/svg" xmlns:xlink="http://www.w3.org/1999/xlink" x="0px" y="0px"
	 width="64px" height="64px" viewBox="0 0 64 64" enable-background="new 0 0 64 64" xml:space="preserve">
<g>
	<rect x="31" y="54" width="2" height="4"/>
	<rect x="31" y="18" width="2" height="4"/>
	<rect x="31" y="48" width="2" height="4"/>
	<rect x="31" y="36" width="2" height="4"/>
	<rect x="31" y="12" width="2" height="4"/>
	<rect x="31" y="42" width="2" height="4"/>
	<rect x="31" y="30" width="2" height="4"/>
	<rect x="31" y="6" width="2" height="4"/>
	<rect x="31" y="60" width="2" height="4"/>
	<rect x="31" y="24" width="2" height="4"/>
	<polygon points="23.707,10.707 31,3.414 31,4 33,4 33,3.414 40.293,10.707 41.707,9.146 32.707,0 31.293,0 22.293,9.146 	"/>
</g>
</svg>
