<svg viewBox="0 -22.0938 14 10.0625" xmlns="http://www.w3.org/2000/svg"><path d="M4.89-22.1h-4.9v10.06h14v-8.32H6.63Zm8.66 9.625H.42v-9.19h4.29l1.75 1.75h7.08ZM4.8-16.85q-.17 0-.22.16 -.06.13.1.24l1.17.76 -.44 1.39q-.03.1.08.21 .16.1.24.02l1.23-.8 1.17.79q.02.02.13.02 .08 0 .1-.06 .13-.06.08-.22l-.39-1.4 1.17-.77q.16-.11.1-.25 -.06-.17-.22-.17H7.73l-.63-1.62q-.06-.14-.2-.14t.13 2.72278e-303l-.55 1.61Zm1.77.3l.41-1.18 .46 1.17q.05.13.19.13h.82l-.72.46q-.17.1-.11.24l.27.95 -.83-.55q-.11-.06-.22 0l-.85.54 .3-.96q.05-.14-.11-.25l-.72-.47h.875q.13 0 .19-.14Z"/></svg>