<svg viewBox="2.40625 -28.1367 9.1875 14.1367" xmlns="http://www.w3.org/2000/svg"><path d="M2.4-14v-10.94l3.19-3.2h5.98v14.13l-1.1-.55 -.875.43 -.875-.44 -.875.43 -.875-.44 -.875.43 -.875-.44 -.875.43 -.875-.44Zm6.34-1.04l.875.43 .875-.44 .65.32v-12.99H5.75L2.82-24.8v10.06l.65-.33 .875.43 .875-.44 .875.43 .875-.44 .875.43Zm-2.85-9.6H2.6v-.44h2.84v-2.85h.43Zm1.31 7h-.44v-2.55L4.59-23.2l.38-.28 2.21 3.11Zm1.77-5.83l.35.27 -2.17 3.06 -.36-.28ZM5-20.06h3.93v.43H4.99Zm2.4-1.1h1.53v.43H7.39Zm-2.41 0h1.53v.43H4.98Z"/></svg>