<svg viewBox="0 -28 14 14" xmlns="http://www.w3.org/2000/svg"><path d="M11.94-16.06q-2.06 2.05-4.95 2.05 -2.9 0-4.95-2.06 -2.06-2.06-2.06-4.95 0-2.9 2.05-4.95 2.05-2.06 4.94-2.06 2.89 0 4.94 2.05 2.05 2.05 2.05 4.94 0 2.89-2.06 4.94Zm-.31-9.6q-1.97-1.92-4.65-1.92 -2.68 0-4.65 1.91Q.41-23.71.41-21.03q0 2.67 1.91 4.64 1.96 1.91 4.64 1.91 2.67 0 4.64-1.92 1.91-1.97 1.91-4.65 0-2.68-1.92-4.65ZM7.2-17.52h-.44v-3.2l-2.6-3.67 .38-.28 2.65 3.77Zm2.21-7.14l.38.27 -2.625 3.71 -.39-.28Zm-4.84 4.29h4.81v.43H4.56Zm2.84-1.32h1.96v.43H7.4Zm-2.85 0h1.96v.43H4.55Z"/></svg>