<svg viewBox="-0.0273438 -26.6875 14.0547 13.3164" xmlns="http://www.w3.org/2000/svg"><path d="M12.9-20.32q0-2.44-1.74-4.17 -1.74-1.74-4.17-1.74 -2.44 0-4.17 1.73 -1.74 1.73-1.74 4.16 0 1.72.91 3.15t2.17 8.26111e-72l-1.32 1.28 .32.32 1.42-1.45q.98.41 2.13.41 1.14 0 2.13-.42l1.42 1.44 .32-.33 -1.32-1.29q1.5-.74 2.41-2.18 .91-1.44.91-3.16Zm-2.06 3.85q-1.62 1.61-3.86 1.61 -2.25 0-3.86-1.62Q1.5-18.1 1.5-20.34q0-2.25 1.61-3.86 1.61-1.62 3.85-1.62t1.61 1.24369e-47q1.61 1.61 1.61 3.85t3.85.98ZM7.2-22.96h-.44v2.76l1.85.92 .21-.39 -1.65-.83Zm-7.25-2.71l.54 2.7 3.19-3.2 -2.71-.55Zm2.87-.22L.76-23.84l-.33-1.67 .71-.72Zm7.43-.28l3.19 3.19 .54-2.71 -1.04-1.04Zm2.92 2.32l-2.06-2.06 1.66-.33 .71.71Z"/></svg>