<?xml version="1.0" encoding="utf-8"?>
<!-- Generator: Adobe Illustrator 16.0.0, SVG Export Plug-In . SVG Version: 6.00 Build 0)  -->
<!DOCTYPE svg PUBLIC "-//W3C//DTD SVG 1.1//EN" "http://www.w3.org/Graphics/SVG/1.1/DTD/svg11.dtd">
<svg version="1.1" id="Layer_1" xmlns="http://www.w3.org/2000/svg" xmlns:xlink="http://www.w3.org/1999/xlink" x="0px" y="0px"
	 width="64px" height="64px" viewBox="0 0 64 64" enable-background="new 0 0 64 64" xml:space="preserve">
<g>
	<path d="M32,64.292c7.824,0,15.18-3.047,20.713-8.581c5.533-5.532,8.58-12.888,8.58-20.712s-3.047-15.18-8.58-20.712
		c-4.094-4.094-9.188-6.823-14.729-7.968C37.99,6.214,38,6.107,38,6c0-3.309-2.691-6-6-6s-6,2.691-6,6
		c0,0.107,0.01,0.213,0.016,0.32c-5.542,1.145-10.635,3.874-14.729,7.968C5.754,19.82,2.708,27.176,2.708,35
		s3.047,15.18,8.58,20.712C16.819,61.245,24.175,64.292,32,64.292z M32,2c2.2,0,3.989,1.785,3.998,3.983
		C34.684,5.805,33.35,5.708,32,5.708s-2.684,0.097-3.998,0.275C28.011,3.785,29.8,2,32,2z M12.701,15.702
		C17.619,10.784,24.085,7.979,31,7.732V12h2V7.732c6.915,0.248,13.38,3.052,18.299,7.97C56.217,20.62,59.021,27.086,59.268,34H55v2
		h4.268c-0.248,6.914-3.051,13.38-7.969,18.298C46.38,59.216,39.915,62.021,33,62.268V58h-2v4.268
		c-6.915-0.248-13.381-3.052-18.299-7.97C7.783,49.38,4.979,42.914,4.732,36H9v-2H4.732C4.979,27.086,7.783,20.62,12.701,15.702z"/>
	<path d="M37.362,40.932l0.56-0.544l8-19l-1.31-1.31l-19,8l-0.544,0.56l-7,18l1.294,1.294L37.362,40.932z M36.655,38.241
		l-8.896-8.896l15.367-6.471L36.655,38.241z M26.376,30.791l8.833,8.833l-14.454,5.621L26.376,30.791z"/>
</g>
</svg>
