<?xml version="1.0" encoding="utf-8"?>
<!-- Generator: Adobe Illustrator 16.0.0, SVG Export Plug-In . SVG Version: 6.00 Build 0)  -->
<!DOCTYPE svg PUBLIC "-//W3C//DTD SVG 1.1//EN" "http://www.w3.org/Graphics/SVG/1.1/DTD/svg11.dtd">
<svg version="1.1" id="Layer_1" xmlns="http://www.w3.org/2000/svg" xmlns:xlink="http://www.w3.org/1999/xlink" x="0px" y="0px"
	 width="64px" height="64px" viewBox="0 0 64 64" enable-background="new 0 0 64 64" xml:space="preserve">
<g>
	<path d="M39.942,35.114C39.475,31.572,36.217,29,32,29c-3.69,0-6.845,3.021-7.797,6.081C22.07,35.527,21,37.716,21,39
		c0,2.542,1.458,4,4,4h14c2.505,0,4-1.495,4-4C43,37.745,41.979,35.627,39.942,35.114z M39,41H25c-1.439,0-2-0.561-2-2
		c0-0.482,0.602-2,2-2h0.825l0.157-0.81C26.458,33.74,29.132,31,32,31c2.909,0,6,1.752,6,5v1h1c1.398,0,2,1.518,2,2
		C41,40.383,40.383,41,39,41z"/>
	<path d="M40.781,4H37V0H27v4h-3.781l-0.75,3H9v57h46V7H41.531L40.781,4z M24.781,6H29V2h6v4h4.219l1.5,6H23.281L24.781,6z M53,9v53
		H11V9h10.969l-1.25,5h22.562l-1.25-5H53z"/>
</g>
</svg>
