<?xml version="1.0" encoding="utf-8"?>
<!-- Generator: Adobe Illustrator 16.0.0, SVG Export Plug-In . SVG Version: 6.00 Build 0)  -->
<!DOCTYPE svg PUBLIC "-//W3C//DTD SVG 1.1//EN" "http://www.w3.org/Graphics/SVG/1.1/DTD/svg11.dtd">
<svg version="1.1" id="Layer_1" xmlns="http://www.w3.org/2000/svg" xmlns:xlink="http://www.w3.org/1999/xlink" x="0px" y="0px"
	 width="64px" height="64px" viewBox="0 0 64 64" enable-background="new 0 0 64 64" xml:space="preserve">
<g>
	<path d="M32.001-0.113c-8.579,0-16.644,3.34-22.709,9.406c-6.066,6.066-9.405,14.13-9.404,22.708c0,8.578,3.34,16.585,9.404,22.651
		C15.357,60.717,23.421,64,31.999,64c0.001,0,0.002,0,0.002,0h0.003c17.706,0,32.11-14.351,32.109-32.057
		c0.001-8.578-3.34-16.614-9.405-22.68C48.644,3.199,40.579-0.113,32.001-0.113z M32,62.113v1V62c-0.001,0-0.001,0-0.002,0
		c-8.043,0-15.605-3.076-21.292-8.762C5.02,47.55,1.888,40.017,1.888,31.973c-0.001-8.044,3.13-15.592,8.818-21.28
		c5.688-5.688,13.25-8.812,21.295-8.812c8.044,0,15.605,3.136,21.293,8.823c5.688,5.688,8.817,13.251,8.817,21.295
		C62.112,48.601,49,62.112,32,62.113z"/>
	<path d="M32,9c-6.144,0-11.919,2.393-16.263,6.738C11.393,20.082,9,25.857,9,32h2c0-5.608,2.185-10.882,6.151-14.849
		C21.117,13.185,26.391,11,32,11s10.883,2.185,14.85,6.152C50.815,21.119,53,26.392,53,32h2c0-6.142-2.393-11.918-6.736-16.263
		S38.144,9,32,9z"/>
	<path d="M30.757,32.293l-6-6.947l-1.514,1.308l6.072,7.032c-0.2,0.409-0.317,0.857-0.315,1.327
		c0.004,0.801,0.318,1.553,0.888,2.117C30.453,37.691,31.204,38,32,38c0.807,0,1.562-0.315,2.131-0.888
		c1.163-1.175,1.155-3.078-0.019-4.242C33.233,31.999,31.857,31.813,30.757,32.293z M32.71,35.704
		c-0.376,0.378-1.035,0.381-1.414,0.006c-0.189-0.188-0.295-0.439-0.296-0.706c-0.001-0.267,0.102-0.518,0.291-0.708
		C31.479,34.104,31.731,34,32,34c0.266,0,0.516,0.103,0.704,0.291C33.096,34.678,33.098,35.312,32.71,35.704z"/>
</g>
</svg>
