<?xml version="1.0" encoding="utf-8"?>
<!-- Generator: Adobe Illustrator 16.0.0, SVG Export Plug-In . SVG Version: 6.00 Build 0)  -->
<!DOCTYPE svg PUBLIC "-//W3C//DTD SVG 1.1//EN" "http://www.w3.org/Graphics/SVG/1.1/DTD/svg11.dtd">
<svg version="1.1" id="Layer_1" xmlns="http://www.w3.org/2000/svg" xmlns:xlink="http://www.w3.org/1999/xlink" x="0px" y="0px"
	 width="64px" height="64px" viewBox="0 0 64 64" enable-background="new 0 0 64 64" xml:space="preserve">
<g>
	<path d="M49,0H15v64h34V0z M47,2v6H17V2H47z M47,10v40H17V10H47z M17,62V52h30v10H17z"/>
	<rect x="28" y="4" width="8" height="2"/>
	<path d="M32,54c-1.654,0-3,1.346-3,3s1.346,3,3,3s3-1.346,3-3S33.654,54,32,54z M32,58c-0.551,0-1-0.449-1-1s0.449-1,1-1
		s1,0.449,1,1S32.551,58,32,58z"/>
	<path d="M31.529,39.882L32,40.133l0.471-0.251C32.9,39.653,43,34.184,43,27c0-3.42-2.58-6-6-6c-2.084,0-3.924,1.068-5,2.687
		C30.924,22.068,29.084,21,27,21c-3.42,0-6,2.58-6,6C21,34.184,31.1,39.653,31.529,39.882z M27,23c2.206,0,4,1.794,4,4h2
		c0-2.206,1.794-4,4-4c2.318,0,4,1.682,4,4c0,5.203-7.086,9.724-9,10.85c-1.914-1.126-9-5.647-9-10.85C23,24.682,24.682,23,27,23z"
		/>
</g>
</svg>
