<?xml version="1.0" encoding="utf-8"?>
<!-- Generator: Adobe Illustrator 16.0.0, SVG Export Plug-In . SVG Version: 6.00 Build 0)  -->
<!DOCTYPE svg PUBLIC "-//W3C//DTD SVG 1.1//EN" "http://www.w3.org/Graphics/SVG/1.1/DTD/svg11.dtd">
<svg version="1.1" id="Layer_1" xmlns="http://www.w3.org/2000/svg" xmlns:xlink="http://www.w3.org/1999/xlink" x="0px" y="0px"
	 width="64px" height="64px" viewBox="0 0 64 64" enable-background="new 0 0 64 64" xml:space="preserve">
<g>
	<path d="M13,64h38V10h3V8H40V0H24v8H10v2h3V64z M26,2h12v6H26V2z M49,10v52H15V10H49z"/>
	<path d="M31,46h2l-1.8,2.4l1.7,1.2l3.1-4v-1.2l-3.1-4l-1.65,1.2L33,44h-2c-3.942,0-7-4.3-7-8h-2C22,40.721,25.849,46,31,46z"/>
	<path d="M32.8,30.4L31,28h2c3.942,0,7,4.3,7,8h2c0-4.721-3.849-10-9-10h-2l1.8-2.4l-1.7-1.2l-3.1,4v1.2l3.1,4L32.8,30.4z"/>
</g>
</svg>
