<?xml version="1.0" encoding="utf-8"?>
<!-- Generator: Adobe Illustrator 16.0.0, SVG Export Plug-In . SVG Version: 6.00 Build 0)  -->
<!DOCTYPE svg PUBLIC "-//W3C//DTD SVG 1.1//EN" "http://www.w3.org/Graphics/SVG/1.1/DTD/svg11.dtd">
<svg version="1.1" id="Layer_1" xmlns="http://www.w3.org/2000/svg" xmlns:xlink="http://www.w3.org/1999/xlink" x="0px" y="0px"
	 width="64px" height="64px" viewBox="0 0 64 64" enable-background="new 0 0 64 64" xml:space="preserve">
<g>
	<path d="M0,58h64V6H0V58z M2,56V16h60v40H2z M62,8v6H2V8H62z"/>
	<path d="M32.2,42.6L34,45h-2c-3.942,0-7-4.3-7-8h-2c0,4.721,3.849,10,9,10h2l-1.8,2.4l1.7,1.2l3.1-4v-1.2l-3.1-4L32.2,42.6z"/>
	<path d="M34,27h-2l1.8-2.4l-1.7-1.2l-3.1,4v1.2l3.1,4l1.65-1.2L32,29h2c3.942,0,7,4.3,7,8h2C43,32.279,39.151,27,34,27z"/>
	<rect x="6" y="10" width="4" height="2"/>
	<rect x="14" y="10" width="4" height="2"/>
	<rect x="22" y="10" width="4" height="2"/>
</g>
</svg>
