<?xml version="1.0" encoding="utf-8"?>
<!-- Generator: Adobe Illustrator 16.0.0, SVG Export Plug-In . SVG Version: 6.00 Build 0)  -->
<!DOCTYPE svg PUBLIC "-//W3C//DTD SVG 1.1//EN" "http://www.w3.org/Graphics/SVG/1.1/DTD/svg11.dtd">
<svg version="1.1" id="Layer_1" xmlns="http://www.w3.org/2000/svg" xmlns:xlink="http://www.w3.org/1999/xlink" x="0px" y="0px"
	 width="64px" height="64px" viewBox="0 0 64 64" enable-background="new 0 0 64 64" xml:space="preserve">
<g>
	<path d="M36,33c0-3.859-3.14-7-7-7s-7,3.141-7,7s3.14,7,7,7c1.57,0,3.016-0.525,4.184-1.401l7.109,7.108l1.414-1.414l-7.109-7.108
		C35.474,36.016,36,34.569,36,33z M24,33c0-2.757,2.243-5,5-5s5,2.243,5,5s-2.243,5-5,5S24,35.757,24,33z"/>
	<path d="M40.781,4H37V0H27v4h-3.781l-0.75,3H9v57h46V7H41.531L40.781,4z M24.781,6H29V2h6v4h4.219l1.5,6H23.281L24.781,6z M53,9v53
		H11V9h10.969l-1.25,5h22.562l-1.25-5H53z"/>
</g>
</svg>
