<?xml version="1.0" encoding="utf-8"?>
<!-- Generator: Adobe Illustrator 16.0.0, SVG Export Plug-In . SVG Version: 6.00 Build 0)  -->
<!DOCTYPE svg PUBLIC "-//W3C//DTD SVG 1.1//EN" "http://www.w3.org/Graphics/SVG/1.1/DTD/svg11.dtd">
<svg version="1.1" id="Layer_1" xmlns="http://www.w3.org/2000/svg" xmlns:xlink="http://www.w3.org/1999/xlink" x="0px" y="0px"
	 width="64px" height="64px" viewBox="0 0 64 64" enable-background="new 0 0 64 64" xml:space="preserve">
<g>
	<path d="M0,4.863v50.017l32,4.129l32-4.129V4.863L32,8.992L0,4.863z M2,7.137l29,3.742v45.983L2,53.121V7.137z M62,53.121
		l-29,3.742V10.879l9-1.162v18.9l5-2.5l5,2.5V8.428l10-1.291V53.121z M44,9.46l6-0.774v16.696l-3-1.5l-3,1.5V9.46z"/>
	<rect x="6.948" y="16" transform="matrix(0.9945 0.1047 -0.1047 0.9945 1.8703 -1.6339)" width="19.105" height="2"/>
	<rect x="6.948" y="26" transform="matrix(-0.9945 -0.1047 0.1047 -0.9945 30.0829 55.5789)" width="19.105" height="2"/>
	<rect x="6.948" y="36" transform="matrix(-0.9945 -0.1047 0.1047 -0.9945 29.036 75.524)" width="19.105" height="2"/>
	<rect x="6.948" y="46" transform="matrix(-0.9945 -0.1047 0.1047 -0.9945 27.9892 95.4691)" width="19.105" height="2"/>
	<rect x="46.5" y="27.448" transform="matrix(-0.1045 -0.9945 0.9945 -0.1045 15.6654 88.1058)" width="2" height="19.105"/>
	<rect x="46.5" y="37.448" transform="matrix(-0.1045 -0.9945 0.9945 -0.1045 5.7201 99.1507)" width="2" height="19.105"/>
</g>
</svg>
