<?xml version="1.0" encoding="utf-8"?>
<!-- Generator: Adobe Illustrator 16.0.0, SVG Export Plug-In . SVG Version: 6.00 Build 0)  -->
<!DOCTYPE svg PUBLIC "-//W3C//DTD SVG 1.1//EN" "http://www.w3.org/Graphics/SVG/1.1/DTD/svg11.dtd">
<svg version="1.1" id="Layer_1" xmlns="http://www.w3.org/2000/svg" xmlns:xlink="http://www.w3.org/1999/xlink" x="0px" y="0px"
	 width="64px" height="64px" viewBox="0 0 64 64" enable-background="new 0 0 64 64" xml:space="preserve">
<g>
	<path d="M53,5h-8v4H19V5h-8v4H0v50h64V9H53V5z M47,7h4v6h-4V7z M13,7h4v6h-4V7z M2,57V19h60v38H2z M62,11v6H2v-6h9v4h8v-4h26v4h8
		v-4H62z"/>
	<path d="M39.942,37.114C39.475,33.572,36.217,31,32,31c-3.69,0-6.845,3.022-7.797,6.081C22.07,37.527,21,39.715,21,41
		c0,2.542,1.458,4,4,4h14c2.505,0,4-1.495,4-4C43,39.745,41.979,37.627,39.942,37.114z M39,43H25c-1.439,0-2-0.561-2-2
		c0-0.482,0.602-2,2-2h0.824l0.157-0.81C26.457,35.74,29.133,33,32,33c2.908,0,6,1.752,6,5v1h1c1.398,0,2,1.518,2,2
		C41,42.383,40.383,43,39,43z"/>
</g>
</svg>
