<?xml version="1.0" encoding="utf-8"?>
<!-- Generator: Adobe Illustrator 16.0.0, SVG Export Plug-In . SVG Version: 6.00 Build 0)  -->
<!DOCTYPE svg PUBLIC "-//W3C//DTD SVG 1.1//EN" "http://www.w3.org/Graphics/SVG/1.1/DTD/svg11.dtd">
<svg version="1.1" id="Layer_1" xmlns="http://www.w3.org/2000/svg" xmlns:xlink="http://www.w3.org/1999/xlink" x="0px" y="0px"
	 width="64px" height="64px" viewBox="0 0 64 64" enable-background="new 0 0 64 64" xml:space="preserve">
<g>
	<path d="M32,64.001c8.547,0,16.582-3.329,22.626-9.374C60.671,48.583,64,40.547,64,32s-3.329-16.583-9.374-22.627
		C48.582,3.328,40.547-0.001,32-0.001S15.418,3.328,9.374,9.373C3.329,15.417,0,23.453,0,32s3.329,16.583,9.374,22.627
		C15.418,60.672,23.453,64.001,32,64.001z M53.212,10.787C58.879,16.453,62,23.987,62,32c0,7.678-2.872,14.912-8.098,20.488
		L11.512,10.098C17.088,4.872,24.321,1.999,32,1.999C40.013,1.999,47.546,5.12,53.212,10.787z M10.098,11.512l42.391,42.391
		c-5.576,5.226-12.81,8.099-20.488,8.099c-8.013,0-15.546-3.121-21.212-8.788C5.121,47.547,2,40.013,2,32
		C2,24.322,4.872,17.088,10.098,11.512z"/>
</g>
</svg>
