<?xml version="1.0" encoding="utf-8"?>
<!-- Generator: Adobe Illustrator 16.0.0, SVG Export Plug-In . SVG Version: 6.00 Build 0)  -->
<!DOCTYPE svg PUBLIC "-//W3C//DTD SVG 1.1//EN" "http://www.w3.org/Graphics/SVG/1.1/DTD/svg11.dtd">
<svg version="1.1" id="Layer_1" xmlns="http://www.w3.org/2000/svg" xmlns:xlink="http://www.w3.org/1999/xlink" x="0px" y="0px"
	 width="64px" height="64px" viewBox="0 0 64 64" enable-background="new 0 0 64 64" xml:space="preserve">
<g>
	<path d="M53.144,20.271L59.414,14L50,4.586l-6.27,6.27L39,9.279V0H25v9.279l-4.73,1.576L14,4.586L4.586,14l6.27,6.271L9.279,25H0
		v14h9.279l1.577,4.729L4.586,50L14,59.414l6.27-6.27L25,54.721V64h14v-9.279l4.73-1.576l6.27,6.27L59.414,50l-6.27-6.271L54.721,39
		H64V25h-9.279L53.144,20.271z M62,37h-8.721l-2.423,7.271L56.586,50L50,56.586l-5.73-5.73L37,53.279V62H27v-8.721l-7.27-2.424
		L14,56.586L7.414,50l5.73-5.729L10.721,37H2V27h8.721l2.423-7.271L7.414,14L14,7.414l5.73,5.73L27,10.721V2h10v8.721l7.27,2.424
		L50,7.414L56.586,14l-5.73,5.729L53.279,27H62V37z"/>
	<path d="M32,25c-3.86,0-7,3.141-7,7s3.14,7,7,7s7-3.141,7-7S35.86,25,32,25z M32,37c-2.757,0-5-2.243-5-5s2.243-5,5-5s5,2.243,5,5
		S34.757,37,32,37z"/>
</g>
</svg>
