<?xml version="1.0" encoding="utf-8"?>
<!-- Generator: Adobe Illustrator 16.0.0, SVG Export Plug-In . SVG Version: 6.00 Build 0)  -->
<!DOCTYPE svg PUBLIC "-//W3C//DTD SVG 1.1//EN" "http://www.w3.org/Graphics/SVG/1.1/DTD/svg11.dtd">
<svg version="1.1" id="Layer_1" xmlns="http://www.w3.org/2000/svg" xmlns:xlink="http://www.w3.org/1999/xlink" x="0px" y="0px"
	 width="64px" height="64px" viewBox="0 0 64 64" enable-background="new 0 0 64 64" xml:space="preserve">
<g>
	<path d="M3,62h42V2H3v5H0v2h3v6H0v2h3v6H0v2h3v6H0v2h3v6H0v2h3v6H0v2h3v6H0v2h3V62z M43,60h-8V4h8V60z M5,49h3v-2H5v-6h3v-2H5v-6h3
		v-2H5v-6h3v-2H5v-6h3v-2H5V9h3V7H5V4h28v56H5v-3h3v-2H5V49z"/>
	<path d="M54,54.236l5,10l5-10V0H54V54.236z M59,59.764l-3-6V12h6v41.764L59,59.764z M62,2v8h-6V2H62z"/>
</g>
</svg>
