<?xml version="1.0" encoding="utf-8"?>
<!-- Generator: Adobe Illustrator 16.0.0, SVG Export Plug-In . SVG Version: 6.00 Build 0)  -->
<!DOCTYPE svg PUBLIC "-//W3C//DTD SVG 1.1//EN" "http://www.w3.org/Graphics/SVG/1.1/DTD/svg11.dtd">
<svg version="1.1" id="Layer_1" xmlns="http://www.w3.org/2000/svg" xmlns:xlink="http://www.w3.org/1999/xlink" x="0px" y="0px"
	 width="64px" height="64px" viewBox="0 0 64 64" enable-background="new 0 0 64 64" xml:space="preserve">
<g>
	<path d="M8,64h48V0H22.586L8,14.586V64z M54,62H10V16h14V2h30V62z M11.414,14L22,3.414V14H11.414z"/>
	<path d="M28,36h-6v8h-2v2h24v-2h-2V33h-6v11h-1V26h-6v18h-1V36z M38,35h2v9h-2V35z M31,28h2v16h-2V28z M24,44v-6h2v6H24z"/>
</g>
</svg>
