<?xml version="1.0" encoding="utf-8"?>
<!-- Generator: Adobe Illustrator 16.0.0, SVG Export Plug-In . SVG Version: 6.00 Build 0)  -->
<!DOCTYPE svg PUBLIC "-//W3C//DTD SVG 1.1//EN" "http://www.w3.org/Graphics/SVG/1.1/DTD/svg11.dtd">
<svg version="1.1" id="Layer_1" xmlns="http://www.w3.org/2000/svg" xmlns:xlink="http://www.w3.org/1999/xlink" x="0px" y="0px"
	 width="64px" height="64px" viewBox="0 0 64 64" enable-background="new 0 0 64 64" xml:space="preserve">
<g>
	<path d="M52.986,0c-0.003,0-0.006,0-0.008,0c-2.401,0-4.683,0.758-6.599,2.197L33.275,15.302c-2.118,2.162-3.283,4.896-3.281,7.702
		c0.001,1.529,0.311,3.011,0.92,4.4l0,0c0.059,0.135,0.12,0.268,0.185,0.4l1.795-0.884c-0.051-0.104-0.1-0.209-0.146-0.316
		l-0.917,0.399l0.916-0.401c-0.499-1.137-0.752-2.349-0.753-3.603c-0.001-2.278,0.961-4.517,2.703-6.295L47.636,3.754
		C49.191,2.604,51.037,2,52.979,2c0.002,0,0.004,0,0.007,0c2.401,0,4.66,0.928,6.359,2.625c1.702,1.699,2.639,3.954,2.641,6.358
		c0.001,1.942-0.604,3.787-1.754,5.344l-11.94,11.955l-0.092,0.108C46.481,30.682,43.857,32,41,32c-0.002,0-0.004,0-0.007,0
		c-1.247,0-2.455-0.254-3.59-0.748l-0.799,1.836C37.993,33.691,39.469,34,40.994,34c0.002,0,0.005,0,0.008,0
		c3.468,0,6.654-1.59,8.753-4.351l11.943-11.96l0.092-0.108c1.438-1.917,2.198-4.201,2.196-6.604
		c-0.002-2.938-1.148-5.691-3.227-7.768C58.681,1.135,55.921,0,52.986,0z"/>
	<path d="M31.255,37.402c0.498,1.135,0.75,2.346,0.751,3.598c0.001,1.942-0.605,3.789-1.755,5.346l-11.94,11.956L18.219,58.4
		c-1.717,2.291-4.341,3.6-7.198,3.6c-0.002,0-0.004,0-0.007,0c-2.401,0-4.66-0.928-6.359-2.625
		c-1.702-1.699-2.639-3.954-2.641-6.358c-0.001-2.278,0.96-4.515,2.703-6.292l12.939-12.961C19.212,32.612,21.058,32,23,32
		c0.002,0,0.004,0,0.007,0c1.248,0,2.456,0.254,3.59,0.749l0.801-1.833C26.009,30.309,24.532,30,23.006,30c-0.002,0-0.005,0-0.008,0
		c-2.402,0-4.684,0.768-6.599,2.208L3.295,45.318c-2.118,2.16-3.283,4.896-3.281,7.703c0.002,2.938,1.148,5.692,3.227,7.769
		C5.319,62.865,8.079,64,11.014,64c0.003,0,0.006,0,0.008,0c3.468,0,6.654-1.58,8.752-4.34l11.943-11.956l0.092-0.105
		c1.438-1.917,2.198-4.199,2.196-6.602c-0.001-1.529-0.31-3.009-0.919-4.397L31.255,37.402z"/>
	<rect x="19.272" y="31" transform="matrix(-0.7066 0.7076 -0.7076 -0.7066 77.2548 31.9693)" width="25.455" height="2"/>
</g>
</svg>
