<?xml version="1.0" encoding="utf-8"?>
<!-- Generator: Adobe Illustrator 16.0.0, SVG Export Plug-In . SVG Version: 6.00 Build 0)  -->
<!DOCTYPE svg PUBLIC "-//W3C//DTD SVG 1.1//EN" "http://www.w3.org/Graphics/SVG/1.1/DTD/svg11.dtd">
<svg version="1.1" id="Layer_1" xmlns="http://www.w3.org/2000/svg" xmlns:xlink="http://www.w3.org/1999/xlink" x="0px" y="0px"
	 width="64px" height="64px" viewBox="0 0 64 64" enable-background="new 0 0 64 64" xml:space="preserve">
<g>
	<path d="M54,54.236l5,10l5-10V0H54V54.236z M59,59.764l-3-6V12h6v41.764L59,59.764z M62,2v8h-6V2H62z"/>
	<path d="M46,7H32.531l-0.75-3H28V0H18v4h-3.781l-0.75,3H0v57h46V7z M15.781,6H20V2h6v4h4.219l1.5,6H14.281L15.781,6z M44,62H2V9
		h10.969l-1.25,5h22.562l-1.25-5H44V62z"/>
</g>
</svg>
