<?xml version="1.0" encoding="utf-8"?>
<!-- Generator: Adobe Illustrator 16.0.0, SVG Export Plug-In . SVG Version: 6.00 Build 0)  -->
<!DOCTYPE svg PUBLIC "-//W3C//DTD SVG 1.1//EN" "http://www.w3.org/Graphics/SVG/1.1/DTD/svg11.dtd">
<svg version="1.1" id="Layer_1" xmlns="http://www.w3.org/2000/svg" xmlns:xlink="http://www.w3.org/1999/xlink" x="0px" y="0px"
	 width="64px" height="64px" viewBox="0 0 64 64" enable-background="new 0 0 64 64" xml:space="preserve">
<g>
	<path d="M8,64h48V0H22.586L8,14.586V64z M54,62H10V16h14V2h30V62z M11.414,14L22,3.414V14H11.414z"/>
	<path d="M21,28v16h22V28H21z M41,32c0,1.103-0.897,2-2,2s-2-0.897-2-2s0.897-2,2-2S41,30.897,41,32z M35.557,30
		C35.212,30.591,35,31.268,35,32c0,2.206,1.794,4,4,4c0.731,0,1.409-0.212,2-0.556v5.254l-6.062-5.051l-1.855,1.856l-4-5L23,38.586
		V30H35.557z M23,41.414l5.917-5.917l4,5l2.145-2.144L39.438,42H23V41.414z"/>
</g>
</svg>
