<?xml version="1.0" encoding="utf-8"?>
<!-- Generator: Adobe Illustrator 16.0.0, SVG Export Plug-In . SVG Version: 6.00 Build 0)  -->
<!DOCTYPE svg PUBLIC "-//W3C//DTD SVG 1.1//EN" "http://www.w3.org/Graphics/SVG/1.1/DTD/svg11.dtd">
<svg version="1.1" id="Layer_1" xmlns="http://www.w3.org/2000/svg" xmlns:xlink="http://www.w3.org/1999/xlink" x="0px" y="0px"
	 width="64px" height="64px" viewBox="0 0 64 64" enable-background="new 0 0 64 64" xml:space="preserve">
<g>
	<path d="M32,0c-8.547,0-16.583,3.33-22.626,9.375C3.329,15.417,0,23.453,0,32s3.329,16.583,9.374,22.626
		C15.417,60.671,23.452,64,32,64s16.583-3.33,22.627-9.375C60.671,48.583,64,40.547,64,32s-3.329-16.583-9.374-22.626
		C48.583,3.329,40.547,0,32,0z M53.213,53.212C47.546,58.879,40.013,62,32,62s-15.546-3.121-21.212-8.789C5.12,47.546,2,40.013,2,32
		s3.121-15.546,8.788-21.212C16.453,5.121,23.986,2,32,2s15.547,3.122,21.213,8.789C58.88,16.454,62,23.987,62,32
		S58.88,47.546,53.213,53.212z"/>
	<polygon points="33,12 31,12 31,32.414 40.293,41.707 41.707,40.293 33,31.586 	"/>
	<rect x="4" y="31" width="4" height="2"/>
	<rect x="56" y="31" width="4" height="2"/>
	<rect x="31" y="56" width="2" height="4"/>
	<rect x="31" y="4" width="2" height="4"/>
</g>
</svg>
