<?xml version="1.0" encoding="utf-8"?>
<!-- Generator: Adobe Illustrator 16.0.0, SVG Export Plug-In . SVG Version: 6.00 Build 0)  -->
<!DOCTYPE svg PUBLIC "-//W3C//DTD SVG 1.1//EN" "http://www.w3.org/Graphics/SVG/1.1/DTD/svg11.dtd">
<svg version="1.1" id="Layer_1" xmlns="http://www.w3.org/2000/svg" xmlns:xlink="http://www.w3.org/1999/xlink" x="0px" y="0px"
	 width="64px" height="64px" viewBox="0 0 64 64" enable-background="new 0 0 64 64" xml:space="preserve">
<g>
	<polygon points="33,42.586 33,25 31,25 31,42.586 24.707,36.293 23.293,37.854 31.293,46 32.707,46 40.707,37.854 39.293,36.366 	
		"/>
	<path d="M40.781,4H37V0H27v4h-3.781l-0.75,3H9v57h46V7H41.531L40.781,4z M24.781,6H29V2h6v4h4.219l1.5,6H23.281L24.781,6z M53,9v53
		H11V9h10.969l-1.25,5h22.562l-1.25-5H53z"/>
</g>
</svg>
