<?xml version="1.0" encoding="utf-8"?>
<!-- Generator: Adobe Illustrator 16.0.0, SVG Export Plug-In . SVG Version: 6.00 Build 0)  -->
<!DOCTYPE svg PUBLIC "-//W3C//DTD SVG 1.1//EN" "http://www.w3.org/Graphics/SVG/1.1/DTD/svg11.dtd">
<svg version="1.1" id="Layer_1" xmlns="http://www.w3.org/2000/svg" xmlns:xlink="http://www.w3.org/1999/xlink" x="0px" y="0px"
	 width="64px" height="64px" viewBox="0 0 64 64" enable-background="new 0 0 64 64" xml:space="preserve">
<g>
	<path d="M51,19c-7.168,0-13,5.832-13,13s5.832,13,13,13s13-5.832,13-13S58.168,19,51,19z M51,43c-6.065,0-11-4.935-11-11
		s4.935-11,11-11s11,4.935,11,11S57.065,43,51,43z"/>
	<polygon points="0,31 0,33 5,33 5,42 7,42 7,33 13,33 13,38 15,38 15,33 38,33 38,32 38,31 	"/>
</g>
</svg>
