<?xml version="1.0" encoding="utf-8"?>
<!-- Generator: Adobe Illustrator 16.0.0, SVG Export Plug-In . SVG Version: 6.00 Build 0)  -->
<!DOCTYPE svg PUBLIC "-//W3C//DTD SVG 1.1//EN" "http://www.w3.org/Graphics/SVG/1.1/DTD/svg11.dtd">
<svg version="1.1" id="Layer_1" xmlns="http://www.w3.org/2000/svg" xmlns:xlink="http://www.w3.org/1999/xlink" x="0px" y="0px"
	 width="64px" height="64px" viewBox="0 0 64 64" enable-background="new 0 0 64 64" xml:space="preserve">
<g>
	<path d="M22.414,9H0v46h64V17H30.414L22.414,9z M62,53H2V11h19.586l8,8H62V53z"/>
	<path d="M22,33c-0.44,0-0.83,0.288-0.957,0.71c-0.128,0.422,0.036,0.878,0.402,1.122l5.382,3.588l-1.91,6.29
		c-0.122,0.402,0.021,0.838,0.357,1.09c0.336,0.253,0.795,0.268,1.147,0.037l5.569-3.637l5.388,3.629
		C37.548,45.943,37.743,46,37.938,46c0.205,0,0.41-0.062,0.584-0.188c0.339-0.244,0.491-0.675,0.379-1.078l-1.745-6.303l5.398-3.599
		c0.367-0.244,0.53-0.7,0.402-1.122C42.83,33.288,42.44,33,42,33h-6.307l-2.756-7.352C32.79,25.258,32.417,25,32,25
		c-0.004,0-0.008,0-0.012,0c-0.421,0.005-0.794,0.273-0.933,0.671L28.502,33H22z M30.157,34.329l1.877-5.389l2.029,5.411
		C34.21,34.741,34.583,35,35,35h3.697l-3.252,2.168c-0.359,0.239-0.524,0.683-0.409,1.099l1.216,4.392l-3.693-2.487
		c-0.333-0.226-0.769-0.229-1.105-0.008l-3.822,2.496l1.326-4.369c0.128-0.422-0.036-0.878-0.402-1.122L25.303,35h3.91
		C29.638,35,30.017,34.73,30.157,34.329z"/>
</g>
</svg>
