<?xml version="1.0" encoding="utf-8"?>
<!-- Generator: Adobe Illustrator 16.0.0, SVG Export Plug-In . SVG Version: 6.00 Build 0)  -->
<!DOCTYPE svg PUBLIC "-//W3C//DTD SVG 1.1//EN" "http://www.w3.org/Graphics/SVG/1.1/DTD/svg11.dtd">
<svg version="1.1" id="Layer_1" xmlns="http://www.w3.org/2000/svg" xmlns:xlink="http://www.w3.org/1999/xlink" x="0px" y="0px"
	 width="64px" height="64px" viewBox="0 0 64 64" enable-background="new 0 0 64 64" xml:space="preserve">
<g>
	<rect x="12" y="20" width="18" height="2"/>
	<path d="M41,39.586l-4.484-4.484C39.91,31.37,42,26.431,42,21C42,9.42,32.579,0,21,0S0,9.42,0,21s9.421,21,21,21
		c5.431,0,10.37-2.089,14.102-5.484L39.586,41l-3,3L57,64.414L64.414,57L44,36.586L41,39.586z M2,21C2,10.523,10.523,2,21,2
		s19,8.523,19,19s-8.523,19-19,19S2,31.477,2,21z M57,61.586L39.414,44L44,39.414L61.586,57L57,61.586z"/>
</g>
</svg>
