<?xml version="1.0" encoding="utf-8"?>
<!-- Generator: Adobe Illustrator 16.0.0, SVG Export Plug-In . SVG Version: 6.00 Build 0)  -->
<!DOCTYPE svg PUBLIC "-//W3C//DTD SVG 1.1//EN" "http://www.w3.org/Graphics/SVG/1.1/DTD/svg11.dtd">
<svg version="1.1" id="Layer_1" xmlns="http://www.w3.org/2000/svg" xmlns:xlink="http://www.w3.org/1999/xlink" x="0px" y="0px"
	 width="64px" height="64px" viewBox="0 0 64 64" enable-background="new 0 0 64 64" xml:space="preserve">
<g>
	<path d="M8,14.586V64h48V0H22.586L8,14.586z M22,3.414V14H11.414L22,3.414z M54,62H10V16h14V2h30V62z"/>
	<path d="M22,35c0,3.86,3.141,7,7,7c1.569,0,3.016-0.526,4.185-1.402l7.108,7.109l1.414-1.414l-7.108-7.109
		C35.475,38.016,36,36.57,36,35c0-3.86-3.141-7-7-7S22,31.14,22,35z M29,30c2.757,0,5,2.243,5,5s-2.243,5-5,5s-5-2.243-5-5
		S26.243,30,29,30z"/>
</g>
</svg>
