<?xml version="1.0" encoding="utf-8"?>
<!-- Generator: Adobe Illustrator 16.0.0, SVG Export Plug-In . SVG Version: 6.00 Build 0)  -->
<!DOCTYPE svg PUBLIC "-//W3C//DTD SVG 1.1//EN" "http://www.w3.org/Graphics/SVG/1.1/DTD/svg11.dtd">
<svg version="1.1" id="Layer_1" xmlns="http://www.w3.org/2000/svg" xmlns:xlink="http://www.w3.org/1999/xlink" x="0px" y="0px"
	 width="64px" height="64px" viewBox="0 0 64 64" enable-background="new 0 0 64 64" xml:space="preserve">
<g>
	<path d="M24.927,37.071C26.815,38.96,29.327,40,31.998,40H32c5.514,0,10-4.486,10-10c0-2.671-1.039-5.183-2.928-7.072
		C37.184,21.04,34.673,20,31.998,20c-2.671,0-5.182,1.04-7.071,2.929C23.039,24.817,22,27.329,22,30
		C22,32.671,23.039,35.182,24.927,37.071z M32.002,22c2.137,0,4.146,0.832,5.656,2.342C39.168,25.853,40,27.862,40,30
		c0,1.846-0.635,3.542-1.688,4.897L27.098,23.684C28.495,22.596,30.2,22,32.002,22z M25.684,25.098l11.213,11.213
		C35.542,37.365,33.844,38,31.998,38c-2.137,0-4.146-0.832-5.656-2.343C24.831,34.146,24,32.137,24,30
		C24,28.2,24.596,26.495,25.684,25.098z"/>
	<path d="M54,0H10v64h44V0z M52,2v6H12V2H52z M52,10v40H12V10H52z M12,62V52h40v10H12z"/>
	<rect x="28" y="4" width="8" height="2"/>
	<path d="M32,54c-1.654,0-3,1.346-3,3s1.346,3,3,3s3-1.346,3-3S33.654,54,32,54z M32,58c-0.551,0-1-0.449-1-1s0.449-1,1-1
		s1,0.449,1,1S32.551,58,32,58z"/>
</g>
</svg>
