<?xml version="1.0" encoding="utf-8"?>
<!-- Generator: Adobe Illustrator 16.0.0, SVG Export Plug-In . SVG Version: 6.00 Build 0)  -->
<!DOCTYPE svg PUBLIC "-//W3C//DTD SVG 1.1//EN" "http://www.w3.org/Graphics/SVG/1.1/DTD/svg11.dtd">
<svg version="1.1" id="Layer_1" xmlns="http://www.w3.org/2000/svg" xmlns:xlink="http://www.w3.org/1999/xlink" x="0px" y="0px"
	 width="64px" height="64px" viewBox="0 0 64 64" enable-background="new 0 0 64 64" xml:space="preserve">
<g>
	<path d="M55,19H0v36h55V19z M53,53H2V21h51V53z"/>
	<polygon points="11,12 62,12 62,44 57,44 57,46 64,46 64,10 9,10 9,17 11,17 	"/>
	<path d="M50,24h-9v10h9V24z M48,32h-5v-6h5V32z"/>
	<rect x="32" y="24" width="2" height="26"/>
	<rect x="5" y="26" width="24" height="2"/>
	<rect x="5" y="31" width="21" height="2"/>
	<rect x="5" y="36" width="22" height="2"/>
</g>
</svg>
