<?xml version="1.0" encoding="utf-8"?>
<!-- Generator: Adobe Illustrator 16.0.0, SVG Export Plug-In . SVG Version: 6.00 Build 0)  -->
<!DOCTYPE svg PUBLIC "-//W3C//DTD SVG 1.1//EN" "http://www.w3.org/Graphics/SVG/1.1/DTD/svg11.dtd">
<svg version="1.1" id="Layer_1" xmlns="http://www.w3.org/2000/svg" xmlns:xlink="http://www.w3.org/1999/xlink" x="0px" y="0px"
	 width="64px" height="64px" viewBox="0 0 64 64" enable-background="new 0 0 64 64" xml:space="preserve">
<g>
	<path d="M28,13.586l-14-14L-0.414,14l14,14l-4,4L42,64.414L64.414,42L32,9.586L28,13.586z M2.414,14L14,2.414L26.586,15L15,26.586
		L2.414,14z M42,61.586L12.414,32L15,29.414L29.414,15L32,12.414L61.586,42L42,61.586z"/>
	<rect x="5.136" y="16.5" transform="matrix(-0.7071 -0.7071 0.7071 -0.7071 7.2574 38.0061)" width="12.728" height="2"/>
	<rect x="16.5" y="5.136" transform="matrix(0.7071 -0.7071 0.7071 0.7071 -3.0061 15.7426)" width="2" height="12.728"/>
</g>
</svg>
