<?xml version="1.0" encoding="utf-8"?>
<!-- Generator: Adobe Illustrator 16.0.0, SVG Export Plug-In . SVG Version: 6.00 Build 0)  -->
<!DOCTYPE svg PUBLIC "-//W3C//DTD SVG 1.1//EN" "http://www.w3.org/Graphics/SVG/1.1/DTD/svg11.dtd">
<svg version="1.1" id="Layer_1" xmlns="http://www.w3.org/2000/svg" xmlns:xlink="http://www.w3.org/1999/xlink" x="0px" y="0px"
	 width="64px" height="64px" viewBox="0 0 64 64" enable-background="new 0 0 64 64" xml:space="preserve">
<g>
	<path d="M49,0H15v64h34V0z M47,2v6H17V2H47z M47,10v40H17V10H47z M17,62V52h30v10H17z"/>
	<rect x="28" y="4" width="8" height="2"/>
	<path d="M32,54c-1.654,0-3,1.346-3,3s1.346,3,3,3s3-1.346,3-3S33.654,54,32,54z M32,58c-0.551,0-1-0.449-1-1s0.449-1,1-1
		s1,0.449,1,1S32.551,58,32,58z"/>
	<path d="M27.493,39.921L43.414,24L38,18.586L22.079,34.507l-1.354,6.768L27.493,39.921z M40.586,24L39,25.586L36.414,23L38,21.414
		L40.586,24z M23.921,35.493L35,24.414L37.586,27L26.507,38.079l-3.232,0.646L23.921,35.493z"/>
</g>
</svg>
