<?xml version="1.0" encoding="utf-8"?>
<!-- Generator: Adobe Illustrator 16.0.0, SVG Export Plug-In . SVG Version: 6.00 Build 0)  -->
<!DOCTYPE svg PUBLIC "-//W3C//DTD SVG 1.1//EN" "http://www.w3.org/Graphics/SVG/1.1/DTD/svg11.dtd">
<svg version="1.1" id="Layer_1" xmlns="http://www.w3.org/2000/svg" xmlns:xlink="http://www.w3.org/1999/xlink" x="0px" y="0px"
	 width="64px" height="64px" viewBox="0 0 64 64" enable-background="new 0 0 64 64" xml:space="preserve">
<g>
	<path d="M8,64h48V0H22.586L8,14.586V64z M54,62H10V16h14V2h30V62z M11.414,14L22,3.414V14H11.414z"/>
	<path d="M23,36c0,4.721,3.849,10,9,10h2l-1.8,2.4l1.7,1.2l3.1-4v-1.2l-3.1-4l-1.65,1.2L34,44h-2c-3.942,0-7-4.3-7-8H23z"/>
	<path d="M33.8,30.4L32,28h2c3.942,0,7,4.3,7,8h2c0-4.721-3.849-10-9-10h-2l1.8-2.4l-1.7-1.2l-3.1,4v1.2l3.1,4L33.8,30.4z"/>
</g>
</svg>
