<?xml version="1.0" encoding="utf-8"?>
<!-- Generator: Adobe Illustrator 16.0.0, SVG Export Plug-In . SVG Version: 6.00 Build 0)  -->
<!DOCTYPE svg PUBLIC "-//W3C//DTD SVG 1.1//EN" "http://www.w3.org/Graphics/SVG/1.1/DTD/svg11.dtd">
<svg version="1.1" id="Layer_1" xmlns="http://www.w3.org/2000/svg" xmlns:xlink="http://www.w3.org/1999/xlink" x="0px" y="0px"
	 width="64px" height="64px" viewBox="0 0 64 64" enable-background="new 0 0 64 64" xml:space="preserve">
<g>
	<path d="M49,0H15v64h34V0z M47,2v6H17V2H47z M47,10v40H17V10H47z M17,62V52h30v10H17z"/>
	<rect x="28" y="4" width="8" height="2"/>
	<path d="M32,54c-1.654,0-3,1.346-3,3s1.346,3,3,3s3-1.346,3-3S33.654,54,32,54z M32,58c-0.551,0-1-0.449-1-1s0.449-1,1-1
		s1,0.449,1,1S32.551,58,32,58z"/>
	<path d="M43,38V22H21v16H43z M23,35.414l5.917-5.917l4,5l2.145-2.144L39.438,36H23V35.414z M39,24c1.103,0,2,0.897,2,2
		s-0.897,2-2,2s-2-0.897-2-2S37.897,24,39,24z M35.557,24C35.212,24.591,35,25.268,35,26c0,2.206,1.794,4,4,4
		c0.732,0,1.409-0.212,2-0.557v5.255l-6.062-5.051l-1.855,1.856l-4-5L23,32.586V24H35.557z"/>
</g>
</svg>
