<svg viewBox="0 -21.6562 14 9.625" xmlns="http://www.w3.org/2000/svg"><path d="M8.42-21.66H5.57l-1.75 2.18H-.01v7.43h14v-7.44h-3.83ZM.43-19.035h1.31v6.56H.42Zm13.125 6.56H2.18v-6.57h1.85l1.75-2.19h2.4l1.75 2.18h3.6Zm-5.17-4.68q-.58-.58-1.4-.58 -.83 0-1.4.57 -.58.57-.58 1.39t1.39 2.73417e-303q.57.57 1.39.57t-.58 2.89105e-310q.57-.58.57-1.4 0-.83-.58-1.4Zm-.33 2.48q-.44.43-1.07.43 -.63 0-1.09-.46 -.46-.46-.46-1.09 0-.63.45-1.09 .45-.46 1.08-.46 .62 0 1.08.45 .45.45.45 1.08 0 .62-.47 1.09Z"/></svg>