<svg viewBox="0 -28 14 14" xmlns="http://www.w3.org/2000/svg"><path d="M5.46-21.66h3.06q.875 0 .875-.875 0-.25-.18-.51t-.35 5.56814e-309q-.09-.58-.58-.96 -.5-.39-1.18-.39 -.61 0-1.07.39 -.47.39-.63.94 -.33.05-.52.32 -.2.27-.2.51 0 .875.875.875Zm0-1.32h.19l.02-.17q.08-.44.46-.8 .38-.36.84-.36 .51 0 .91.3 .39.3.39.79v.21h.21q.19 0 .31.16t.27 2.73417e-303q0 .43-.44.43H5.4q-.44 0-.44-.44 0-.11.12-.28 .12-.17.31-.17Zm6.34-5.04H2.17v4.62l-2.19.92v8.44h14v-8.45l-2.19-.93Zm-.44.43v6.5L6.98-18.36 2.61-21.1v-6.51Zm-9.19 6.23l-1.51-.96 1.5-.63ZM.42-14.47v-7.5l6.56 4.12 6.56-4.13v7.49Zm12.87-7.85l-1.51.95v-1.59Z"/></svg>