<svg viewBox="1.09375 -28 12.0039 14" xmlns="http://www.w3.org/2000/svg"><path d="M4.21-17.29l-2.19-.66 -.28.16 -.66 2.18 .43.1L2-17.18q.65 1.44 2 2.29 1.35.84 2.96.84 1.64 0 2.99-.875 1.35-.875 2-2.33l.71 1.75 .38-.17 -.875-2.19 -.25-.14 -2.19.65 .1.43 1.69-.52q-.58 1.28-1.77 2.07 -1.19.79-2.62.84v-9.625h1.75v-.44h-1.75v-.47q.54-.09.92-.51 .38-.43.38-1 0-.63-.46-1.09 -.46-.46-1.09-.46 -.63 0-1.09.45 -.46.45-.46 1.08 0 .57.38.99 .38.42.92.5v.46H4.87v.43h1.75v9.625q-1.43-.06-2.62-.85 -1.19-.8-1.77-2.08l1.69.51Zm2.02-8.43q-.33-.33-.33-.77t-.77 1.3182e-309q.32-.33.76-.33 .43 0 .76.32 .32.32.32.76 0 .43-.33.76 -.33.32-.77.32t-.33-1.19Z"/></svg>