<svg viewBox="1.96875 -28 10.0625 14" xmlns="http://www.w3.org/2000/svg"><path d="M12.03-14H1.96v-10.29h10.06ZM2.4-14.44h9.18v-9.41H2.39Zm7-8.32h-.44v-2.85q0-.83-.58-1.4 -.58-.58-1.4-.58 -.83 0-1.4.57 -.58.57-.58 1.39v2.84h-.44v-2.85q0-1.02.69-1.71 .69-.7 1.7-.7t.69 1.09367e-302q.69.69.69 1.7ZM8.53-17.3H5.46q-.875 0-.875-.875 0-.25.19-.52 .19-.28.51-.33 .16-.55.62-.95 .46-.4 1.06-.4 .68 0 1.17.38 .49.38.57.95 .3.08.47.34 .17.25.17.5 0 .875-.875.875Zm-3.07-1.32q-.2 0-.32.16 -.13.16-.13.27 0 .43.43.43H8.5q.43 0 .43-.44 0-.11-.13-.28 -.13-.17-.32-.17h-.22v-.22q0-.5-.4-.8 -.4-.31-.92-.31 -.47 0-.85.35 -.39.35-.47.79l-.03.16Z"/></svg>