<svg viewBox="0 -24.7188 14 11.8125" xmlns="http://www.w3.org/2000/svg"><path d="M11.59-24.72H9.84v.875H4.15v-.875H2.4v.875H-.01v10.93h14v-10.94h-2.41Zm-1.32.43h.875v1.31h-.875Zm-7.44 0H3.7v1.31H2.83ZM.42-13.36v-8.32H13.54v8.31ZM13.54-23.43v1.31H.42v-1.32h1.96v.875h1.75v-.875h5.68v.875h1.75v-.875Zm-5.47 3.93q-.66 0-1.1.57 -.44-.58-1.1-.58 -.55 0-.93.38 -.39.38-.39.92 0 1.47 2.26 2.78l.02.02 .1.05 .1-.06q1.03-.69 1.39-1.04 .875-.93.9-1.78 0-.55-.39-.93 -.39-.39-.93-.39Zm-1.1 3.69q-1.97-1.18-1.97-2.38 0-.39.24-.63 .24-.25.62-.25t.24 1.09367e-302q.24.24.24.62h.43q0-.39.24-.63 .24-.25.62-.25t.24 2.73417e-303q.24.24.24.62 0 1.2-1.97 2.37Z"/></svg>