<svg viewBox="0 -28 14 14" xmlns="http://www.w3.org/2000/svg"><path d="M9.13-19.2l-1.92-1.89v-4.3h-.44v4.45l2.02 2.05ZM.87-21.23h.875v.43H.87Zm11.375 0h.875v.43h-.875Zm-5.47 5.46h.43v.875h-.44Zm0-11.375h.43v.875h-.44Zm4.94 1.09h1.83v-.44h-2.41l-.22.21v2.4h.43v-1.95l.98.98q1.2 1.69 1.2 3.8 0 2.7-1.93 4.63 -1.93 1.92-4.64 1.92t-1.93 2.73417e-303Q.38-18.37.38-21.08q0-2.71 1.92-4.64 1.92-1.93 4.63-1.93v-.44q-2.9 0-4.95 2.05 -2.06 2.05-2.06 4.94 0 2.89 2.05 4.94 2.05 2.05 4.94 2.05 2.89 0 4.94-2.06 2.05-2.06 2.05-4.95 0-2.27-1.32-4.08Z"/></svg>