<svg viewBox="2.40625 -28.1367 9.1875 14.1367" xmlns="http://www.w3.org/2000/svg"><path d="M2.4-14v-10.94l3.19-3.2h5.98v14.13l-1.1-.55 -.875.43 -.875-.44 -.875.43 -.875-.44 -.875.43 -.875-.44 -.875.43 -.875-.44Zm6.34-1.04l.875.43 .875-.44 .65.32v-12.99H5.75L2.82-24.8v10.06l.65-.33 .875.43 .875-.44 .875.43 .875-.44 .875.43Zm-2.85-9.6H2.6v-.44h2.84v-2.85h.43Zm-.875.875h.43v6.125h-.44Zm1.64 3.93h-.14 -1.29v-.44h1.31q1.03 0 1.55-.47 .41-.36.41-1.07 0-.72-.42-1.07 -.25-.22-.63-.35 -.39-.13-.66-.13h-.25 -1.34v-.44H6.5q1.23 0 1.85.57 .54.54.54 1.39 0 .84-.55 1.39 -.63.57-1.75.57Zm-2.3-2.625h5.25v.43h-5.25Zm0 .875h5.25v.43h-5.25Z"/></svg>