<svg viewBox="0 -27.5625 14.0547 13.7812" xmlns="http://www.w3.org/2000/svg"><path d="M5.44-14.22q-.44.43-1.07.43 -.63 0-1.09-.46 -.46-.46-.46-1.09 0-.63.45-1.09 .45-.46 1.08-.46 .62 0 1.08.45 .45.45.45 1.08 0 .62-.47 1.09Zm-.31-1.86q-.33-.33-.77-.33t.32 2.73417e-303q-.33.32-.33.76 0 .43.32.76 .32.32.76.32 .43 0 .76-.33 .32-.33.32-.77t-.77-.46Zm5.55 1.85q-.44.43-1.07.43 -.63 0-1.09-.46 -.46-.46-.46-1.09 0-.63.45-1.09 .45-.46 1.08-.46 .62 0 1.08.45 .45.45.45 1.08 0 .62-.47 1.09Zm-.31-1.86q-.33-.33-.77-.33t.32 0q-.33.32-.33.76 0 .43.32.76 .32.32.76.32 .43 0 .76-.33 .32-.33.32-.77t-.77 5.21502e-310Zm-4.71.54h2.625v.43H5.66Zm-2.85.24l-.85-11.84h-2v-.44h2.37l.9 12.22Zm.02-2.88l-.06-.44 9.26-.66 1.42-6.125H2.34v-.44h11.64l-1.65 7Zm5.87-1.75H7.82q-.83 0-1.4-.69 -.58-.69-.58-1.51h.43q0 .65.45 1.2 .45.54 1.08.54h.875Zm-.5.79l-.33-.28 .54-.74 -.55-.74 .32-.28 .65.875v.27Zm2.02-2.99h-.44q0-.66-.46-1.21 -.46-.55-1.09-.55H7.35v-.44h.875q.82 0 1.39.68t1.5 1.3182e-309Zm-2.36-.96l-.66-.875v-.28l.65-.875 .32.27 -.55.73 .54.73Z"/></svg>