<?xml version="1.0" encoding="utf-8"?>
<!-- Generator: Adobe Illustrator 16.0.0, SVG Export Plug-In . SVG Version: 6.00 Build 0)  -->
<!DOCTYPE svg PUBLIC "-//W3C//DTD SVG 1.1//EN" "http://www.w3.org/Graphics/SVG/1.1/DTD/svg11.dtd">
<svg version="1.1" id="Layer_1" xmlns="http://www.w3.org/2000/svg" xmlns:xlink="http://www.w3.org/1999/xlink" x="0px" y="0px"
	 width="64px" height="64px" viewBox="0 0 64 64" enable-background="new 0 0 64 64" xml:space="preserve">
<g>
	<g>
		<path d="M11,64.618V14.585L25.586,0H53v64.617l-5-2.499l-4,2l-4-2l-4,2l-4-2l-4,2l-4-2l-4,2l-4-2L11,64.618z M40,59.882l4,2l4-2
			l3,1.499V2H26.414L13,15.413v45.969l3-1.5l4,2l4-2l4,2l4-2l4,2L40,59.882z"/>
	</g>
	<g>
		<polygon points="27,16 12,16 12,14 25,14 25,1 27,1 		"/>
	</g>
</g>
<g>
	<rect x="22" y="20" width="20" height="2"/>
</g>
<g>
	<rect x="19" y="25" width="26" height="2"/>
</g>
<g>
	<path d="M24.879,48H22v-2h2.879c1.451,0,2.035-2.65,2.121-3.09V27h2l-0.011,16.148C28.718,44.95,27.547,48,24.879,48z"/>
</g>
<g>
	<path d="M42,48h-2.003c-3.299,0-4.697-2.48-4.976-3.792L35,44V27h2v16.876C37.125,44.314,37.752,46,39.997,46H42V48z"/>
</g>
</svg>
