<?xml version="1.0" encoding="utf-8"?>
<!-- Generator: Adobe Illustrator 16.0.0, SVG Export Plug-In . SVG Version: 6.00 Build 0)  -->
<!DOCTYPE svg PUBLIC "-//W3C//DTD SVG 1.1//EN" "http://www.w3.org/Graphics/SVG/1.1/DTD/svg11.dtd">
<svg version="1.1" id="Layer_1" xmlns="http://www.w3.org/2000/svg" xmlns:xlink="http://www.w3.org/1999/xlink" x="0px" y="0px"
	 width="64px" height="64px" viewBox="0 0 64 64" enable-background="new 0 0 64 64" xml:space="preserve">
<g>
	<path d="M55,64H9V17h46V64z M11,62h42V19H11V62z"/>
</g>
<g>
	<path d="M43,24h-2V11c0-4.962-4.037-9-9-9s-9,4.038-9,9v13h-2V11c0-6.065,4.935-11,11-11s11,4.935,11,11V24z"/>
</g>
<g>
	<path d="M39,49H25c-2.542,0-4-1.458-4-4c0-1.285,1.07-3.473,3.203-3.919C25.155,38.022,28.31,35,32,35
		c4.217,0,7.475,2.572,7.942,6.114C41.979,41.627,43,43.745,43,45C43,47.505,41.505,49,39,49z M25,43c-1.398,0-2,1.518-2,2
		c0,1.439,0.561,2,2,2h14c1.383,0,2-0.617,2-2c0-0.482-0.602-2-2-2h-1v-1c0-3.248-3.092-5-6-5c-2.867,0-5.543,2.74-6.019,5.19
		L25.824,43H25z"/>
</g>
</svg>
