<?xml version="1.0" encoding="utf-8"?>
<!-- Generator: Adobe Illustrator 16.0.0, SVG Export Plug-In . SVG Version: 6.00 Build 0)  -->
<!DOCTYPE svg PUBLIC "-//W3C//DTD SVG 1.1//EN" "http://www.w3.org/Graphics/SVG/1.1/DTD/svg11.dtd">
<svg version="1.1" id="Layer_1" xmlns="http://www.w3.org/2000/svg" xmlns:xlink="http://www.w3.org/1999/xlink" x="0px" y="0px"
	 width="64px" height="64px" viewBox="0 0 64 64" enable-background="new 0 0 64 64" xml:space="preserve">
<g>
	<path d="M52.728,60H11.272L-0.375,24h64.749L52.728,60z M12.728,58h38.545l10.353-32H2.375L12.728,58z"/>
</g>
<g>
	<rect x="17" y="4.23" transform="matrix(0.9284 0.3715 -0.3715 0.9284 6.8601 -5.6132)" width="2.001" height="21.541"/>
</g>
<g>
	<rect x="35.23" y="14" transform="matrix(0.3714 0.9285 -0.9285 0.3714 42.8432 -33.2808)" width="21.541" height="2.001"/>
</g>
<g>
	<rect x="22.101" y="42" transform="matrix(0.7071 0.7071 -0.7071 0.7071 39.7782 -10.033)" width="19.799" height="2"/>
</g>
<g>
	<rect x="31" y="33.101" transform="matrix(0.7071 0.7071 -0.7071 0.7071 39.7782 -10.033)" width="2" height="19.799"/>
</g>
</svg>
