<?xml version="1.0" encoding="utf-8"?>
<!-- Generator: Adobe Illustrator 16.0.0, SVG Export Plug-In . SVG Version: 6.00 Build 0)  -->
<!DOCTYPE svg PUBLIC "-//W3C//DTD SVG 1.1//EN" "http://www.w3.org/Graphics/SVG/1.1/DTD/svg11.dtd">
<svg version="1.1" id="Layer_1" xmlns="http://www.w3.org/2000/svg" xmlns:xlink="http://www.w3.org/1999/xlink" x="0px" y="0px"
	 width="64px" height="64px" viewBox="0 0 64 64" enable-background="new 0 0 64 64" xml:space="preserve">
<g>
	<path d="M32,64c-8.548,0-16.583-3.329-22.627-9.374C3.328,48.582-0.001,40.547-0.001,32S3.328,15.418,9.373,9.374
		C15.417,3.329,23.452,0,32,0c8.547,0,16.583,3.329,22.627,9.374c6.045,6.044,9.374,14.079,9.374,22.626s-3.329,16.582-9.374,22.626
		C48.583,60.671,40.547,64,32,64z M32,2c-8.014,0-15.547,3.121-21.213,8.788C5.12,16.454,1.999,23.987,1.999,32
		s3.121,15.546,8.788,21.212C16.453,58.879,23.986,62,32,62c8.013,0,15.547-3.121,21.213-8.788
		C58.88,47.546,62.001,40.013,62.001,32s-3.121-15.546-8.788-21.212C47.547,5.121,40.013,2,32,2z"/>
</g>
<g>
	<path d="M41,50H26V23c0-5.01,3.738-8,10-8c5.585,0,6.891,3.518,6.943,3.667l-1.881,0.68C41.025,19.251,40.102,17,36,17
		c-2.987,0-8,0.779-8,6v25h13V50z"/>
</g>
<g>
	<rect x="21" y="48" width="6" height="2"/>
</g>
<g>
	<rect x="21" y="31" width="14" height="2"/>
</g>
<g>
	<rect x="21" y="37" width="14" height="2"/>
</g>
</svg>
