<?xml version="1.0" encoding="utf-8"?>
<!-- Generator: Adobe Illustrator 16.0.0, SVG Export Plug-In . SVG Version: 6.00 Build 0)  -->
<!DOCTYPE svg PUBLIC "-//W3C//DTD SVG 1.1//EN" "http://www.w3.org/Graphics/SVG/1.1/DTD/svg11.dtd">
<svg version="1.1" id="Layer_1" xmlns="http://www.w3.org/2000/svg" xmlns:xlink="http://www.w3.org/1999/xlink" x="0px" y="0px"
	 width="64px" height="64px" viewBox="0 0 64 64" enable-background="new 0 0 64 64" xml:space="preserve">
<g>
	<g>
		<path d="M11,64.618V14.585L25.586,0H53v64.617l-5-2.499l-4,2l-4-2l-4,2l-4-2l-4,2l-4-2l-4,2l-4-2L11,64.618z M40,59.882l4,2l4-2
			l3,1.499V2H26.414L13,15.413v45.969l3-1.5l4,2l4-2l4,2l4-2l4,2L40,59.882z"/>
	</g>
	<g>
		<polygon points="27,16 12,16 12,14 25,14 25,1 27,1 		"/>
	</g>
</g>
<g>
	<g>
		<polygon points="33,48 31,48 31,36.32 21.186,22.581 22.814,21.419 33,35.68 		"/>
	</g>
	<g>
		<rect x="36" y="20.398" transform="matrix(0.8139 0.581 -0.581 0.8139 23.735 -16.1003)" width="2" height="17.205"/>
	</g>
	<g>
		<rect x="23" y="37" width="18" height="2"/>
	</g>
	<g>
		<rect x="34" y="32" width="7" height="2"/>
	</g>
	<g>
		<rect x="23" y="32" width="7" height="2"/>
	</g>
</g>
</svg>
