<?xml version="1.0" encoding="utf-8"?>
<!-- Generator: Adobe Illustrator 16.0.0, SVG Export Plug-In . SVG Version: 6.00 Build 0)  -->
<!DOCTYPE svg PUBLIC "-//W3C//DTD SVG 1.1//EN" "http://www.w3.org/Graphics/SVG/1.1/DTD/svg11.dtd">
<svg version="1.1" id="Layer_1" xmlns="http://www.w3.org/2000/svg" xmlns:xlink="http://www.w3.org/1999/xlink" x="0px" y="0px"
	 width="64px" height="64px" viewBox="0 0 64 64" enable-background="new 0 0 64 64" xml:space="preserve">
<g>
	<path d="M54,51H0V23h54V51z M2,49h50V25H2V49z"/>
</g>
<g>
	<polygon points="64,41 55,41 55,39 62,39 62,15 12,15 12,22 10,22 10,13 64,13 	"/>
</g>
<g>
	<path d="M46,47H9v-1c0-1.558-0.484-3-4-3H4V31h1c3.516,0,4-1.442,4-3v-1h37v1c0,2.479,1.632,3,3,3h1v12h-1c-1.368,0-3,0.521-3,3V47
		z M10.927,45h33.143c0.361-2.481,2.084-3.63,3.931-3.923v-8.154c-1.847-0.292-3.569-1.441-3.931-3.923H10.927
		C10.646,30.839,9.468,32.668,6,32.96v8.08C9.468,41.332,10.646,43.161,10.927,45z"/>
</g>
<g>
	<path d="M27,43c-3.309,0-6-2.691-6-6s2.691-6,6-6s6,2.691,6,6S30.309,43,27,43z M27,33c-2.206,0-4,1.794-4,4s1.794,4,4,4
		s4-1.794,4-4S29.206,33,27,33z"/>
</g>
</svg>
