<?xml version="1.0" encoding="utf-8"?>
<!-- Generator: Adobe Illustrator 16.0.0, SVG Export Plug-In . SVG Version: 6.00 Build 0)  -->
<!DOCTYPE svg PUBLIC "-//W3C//DTD SVG 1.1//EN" "http://www.w3.org/Graphics/SVG/1.1/DTD/svg11.dtd">
<svg version="1.1" id="Layer_1" xmlns="http://www.w3.org/2000/svg" xmlns:xlink="http://www.w3.org/1999/xlink" x="0px" y="0px"
	 width="64px" height="64px" viewBox="0 0 64 64" enable-background="new 0 0 64 64" xml:space="preserve">
<g>
	<g>
		<path d="M34.097,60.414L0,26.317V4h22.317l34.097,34.097L34.097,60.414z M2,25.489l32.097,32.097l19.489-19.489L21.489,6H2V25.489
			z"/>
	</g>
	<g>
		<polygon points="42.804,59.707 41.39,58.293 61.586,38.097 29.196,5.707 30.61,4.293 64.414,38.097 		"/>
	</g>
	<g>
		<path d="M14,24c-3.309,0-6-2.691-6-6s2.691-6,6-6s6,2.691,6,6S17.309,24,14,24z M14,14c-2.206,0-4,1.794-4,4s1.794,4,4,4
			s4-1.794,4-4S16.206,14,14,14z"/>
	</g>
</g>
</svg>
