<?xml version="1.0" encoding="utf-8"?>
<!-- Generator: Adobe Illustrator 16.0.0, SVG Export Plug-In . SVG Version: 6.00 Build 0)  -->
<!DOCTYPE svg PUBLIC "-//W3C//DTD SVG 1.1//EN" "http://www.w3.org/Graphics/SVG/1.1/DTD/svg11.dtd">
<svg version="1.1" id="Layer_1" xmlns="http://www.w3.org/2000/svg" xmlns:xlink="http://www.w3.org/1999/xlink" x="0px" y="0px"
	 width="64px" height="64px" viewBox="0 0 64 64" enable-background="new 0 0 64 64" xml:space="preserve">
<g>
	<path d="M52.728,60H11.272L-0.375,24h64.75L52.728,60z M12.728,58h38.545l10.353-32H2.375L12.728,58z"/>
</g>
<g>
	<rect x="17" y="4.23" transform="matrix(0.9284 0.3715 -0.3715 0.9284 6.8601 -5.6132)" width="2.001" height="21.541"/>
</g>
<g>
	<rect x="35.23" y="14" transform="matrix(0.3714 0.9285 -0.9285 0.3714 42.8432 -33.2808)" width="21.541" height="2.001"/>
</g>
<g>
	<path d="M35,52h-4c-5.151,0-9-5.279-9-10h2c0,3.7,3.058,8,7,8h4V52z"/>
</g>
<g>
	<polygon points="32.8,55.6 31.2,54.4 33.75,51 31.2,47.6 32.8,46.4 35.8,50.4 35.8,51.6 	"/>
</g>
<g>
	<path d="M42,42h-2c0-3.7-3.058-8-7-8h-4v-2h4C38.151,32,42,37.279,42,42z"/>
</g>
<g>
	<polygon points="31.2,37.6 28.2,33.6 28.2,32.4 31.2,28.4 32.8,29.6 30.25,33 32.8,36.4 	"/>
</g>
</svg>
