<?xml version="1.0" encoding="utf-8"?>
<!-- Generator: Adobe Illustrator 16.0.0, SVG Export Plug-In . SVG Version: 6.00 Build 0)  -->
<!DOCTYPE svg PUBLIC "-//W3C//DTD SVG 1.1//EN" "http://www.w3.org/Graphics/SVG/1.1/DTD/svg11.dtd">
<svg version="1.1" id="Layer_1" xmlns="http://www.w3.org/2000/svg" xmlns:xlink="http://www.w3.org/1999/xlink" x="0px" y="0px"
	 width="64px" height="64px" viewBox="0 0 64 64" enable-background="new 0 0 64 64" xml:space="preserve">
<g>
	<path d="M20,64c-3.859,0-7-3.14-7-7s3.141-7,7-7s7,3.14,7,7S23.859,64,20,64z M20,52c-2.757,0-5,2.243-5,5s2.243,5,5,5s5-2.243,5-5
		S22.757,52,20,52z"/>
</g>
<g>
	<path d="M44,64c-3.859,0-7-3.14-7-7s3.141-7,7-7s7,3.14,7,7S47.859,64,44,64z M44,52c-2.757,0-5,2.243-5,5s2.243,5,5,5s5-2.243,5-5
		S46.757,52,44,52z"/>
</g>
<g>
	<rect x="26" y="56" width="12" height="2"/>
</g>
<g>
	<polygon points="13.003,57.073 9.07,3 0,3 0,1 10.93,1 14.997,56.927 	"/>
</g>
<g>
	<polygon points="13.069,43.998 12.931,42.002 55.194,39.054 61.74,11 11,11 11,9 64.26,9 56.806,40.946 	"/>
</g>
<g>
	<path d="M40,36h-4c-5.151,0-9-5.279-9-10h2c0,3.7,3.058,8,7,8h4V36z"/>
</g>
<g>
	<polygon points="37.8,39.6 36.2,38.4 38.75,35 36.2,31.6 37.8,30.4 40.8,34.4 40.8,35.6 	"/>
</g>
<g>
	<path d="M47,26h-2c0-3.7-3.058-8-7-8h-4v-2h4C43.151,16,47,21.279,47,26z"/>
</g>
<g>
	<polygon points="36.2,21.6 33.2,17.6 33.2,16.4 36.2,12.4 37.8,13.6 35.25,17 37.8,20.4 	"/>
</g>
</svg>
