<?xml version="1.0" encoding="utf-8"?>
<!-- Generator: Adobe Illustrator 16.0.0, SVG Export Plug-In . SVG Version: 6.00 Build 0)  -->
<!DOCTYPE svg PUBLIC "-//W3C//DTD SVG 1.1//EN" "http://www.w3.org/Graphics/SVG/1.1/DTD/svg11.dtd">
<svg version="1.1" id="Layer_1" xmlns="http://www.w3.org/2000/svg" xmlns:xlink="http://www.w3.org/1999/xlink" x="0px" y="0px"
	 width="64px" height="64px" viewBox="0 0 64 64" enable-background="new 0 0 64 64" xml:space="preserve">
<g>
	<g>
		<path d="M11,64.618V14.585L25.586,0H53v64.617l-5-2.499l-4,2l-4-2l-4,2l-4-2l-4,2l-4-2l-4,2l-4-2L11,64.618z M40,59.882l4,2l4-2
			l3,1.499V2H26.414L13,15.413v45.969l3-1.5l4,2l4-2l4,2l4-2l4,2L40,59.882z"/>
	</g>
	<g>
		<polygon points="27,16 12,16 12,14 25,14 25,1 27,1 		"/>
	</g>
</g>
<g>
	<path d="M34,47c-4.562,0-10-2.256-10-13c0-8.075,3.271-12,10-12c7.585,0,8.837,3.324,8.955,3.703l-1.899,0.626
		C41.047,26.306,40.072,24,34,24c-5.532,0-8,3.084-8,10c0,7.402,2.617,11,8,11c5.632,0,6.823-2.635,7-3.143V38h-3v-2h5l-0.026,6.228
		C42.929,42.422,41.771,47,34,47z"/>
</g>
<g>
	<rect x="33" y="20" width="2" height="29"/>
</g>
</svg>
