<?xml version="1.0" encoding="utf-8"?>
<!-- Generator: Adobe Illustrator 16.0.0, SVG Export Plug-In . SVG Version: 6.00 Build 0)  -->
<!DOCTYPE svg PUBLIC "-//W3C//DTD SVG 1.1//EN" "http://www.w3.org/Graphics/SVG/1.1/DTD/svg11.dtd">
<svg version="1.1" id="Layer_1" xmlns="http://www.w3.org/2000/svg" xmlns:xlink="http://www.w3.org/1999/xlink" x="0px" y="0px"
	 width="64px" height="64px" viewBox="0 0 64 64" enable-background="new 0 0 64 64" xml:space="preserve">
<g>
	<g>
		<path d="M11,64.618V14.585L25.586,0H53v64.617l-5-2.499l-4,2l-4-2l-4,2l-4-2l-4,2l-4-2l-4,2l-4-2L11,64.618z M40,59.882l4,2l4-2
			l3,1.499V2H26.414L13,15.413v45.969l3-1.5l4,2l4-2l4,2l4-2l4,2L40,59.882z"/>
	</g>
	<g>
		<polygon points="27,16 12,16 12,14 25,14 25,1 27,1 		"/>
	</g>
</g>
<g>
	<rect x="25" y="22" width="2" height="26"/>
</g>
<g>
	<path d="M31,35h-5v-2h5c0.202-0.001,5-0.07,5-4c0-4.943-4.796-5-5-5h-5v-2h5c2.421,0,7,1.463,7,7C38,33.746,33.421,35,31,35z"/>
</g>
<g>
	<path d="M32,48h-6v-2h6c0.243-0.001,6-0.084,6-5c0-1.889-0.53-3.359-1.576-4.372c-1.75-1.693-4.362-1.629-4.392-1.629L27,35v-2h5
		c0.106-0.001,3.464-0.085,5.815,2.191C39.265,36.595,40,38.549,40,41C40,46.537,34.767,48,32,48z"/>
</g>
<g>
	<rect x="31" y="20" width="2" height="30"/>
</g>
</svg>
