<?xml version="1.0" encoding="utf-8"?>
<!-- Generator: Adobe Illustrator 16.0.0, SVG Export Plug-In . SVG Version: 6.00 Build 0)  -->
<!DOCTYPE svg PUBLIC "-//W3C//DTD SVG 1.1//EN" "http://www.w3.org/Graphics/SVG/1.1/DTD/svg11.dtd">
<svg version="1.1" id="Layer_1" xmlns="http://www.w3.org/2000/svg" xmlns:xlink="http://www.w3.org/1999/xlink" x="0px" y="0px"
	 width="64px" height="64px" viewBox="0 0 64 64" enable-background="new 0 0 64 64" xml:space="preserve">
<g>
	<path d="M23,64H9V44h14V64z M11,62h10V46H11V62z"/>
</g>
<g>
	<path d="M55,64H41V17h14V64z M43,62h10V19H43V62z"/>
</g>
<g>
	<path d="M39,64H25V31h14V64z M27,62h10V33H27V62z"/>
</g>
<g>
	<g>
		<rect x="31.5" y="-6.663" transform="matrix(0.7071 0.7071 -0.7071 0.7071 23.3076 -17.2696)" width="2" height="52.326"/>
	</g>
	<g>
		<polygon points="52,12 50,12 50,2 40,2 40,0 51,0 52,1 		"/>
	</g>
</g>
</svg>
