<?xml version="1.0" encoding="utf-8"?>
<!-- Generator: Adobe Illustrator 16.0.0, SVG Export Plug-In . SVG Version: 6.00 Build 0)  -->
<!DOCTYPE svg PUBLIC "-//W3C//DTD SVG 1.1//EN" "http://www.w3.org/Graphics/SVG/1.1/DTD/svg11.dtd">
<svg version="1.1" id="Layer_1" xmlns="http://www.w3.org/2000/svg" xmlns:xlink="http://www.w3.org/1999/xlink" x="0px" y="0px"
	 width="64px" height="64px" viewBox="0 0 64 64" enable-background="new 0 0 64 64" xml:space="preserve">
<g>
	<polygon points="62,56 0,56 0,14 62,14 62,26 60,26 60,16 2,16 2,54 60,54 60,44 62,44 	"/>
</g>
<g>
	<polygon points="55,15 53,15 53,10 6,10 6,8 55,8 	"/>
</g>
<g>
	<path d="M2,14H0c0-3.309,2.691-6,6-6v2C3.794,10,2,11.794,2,14z"/>
</g>
<g>
	<path d="M64,45H43.125c-5.514,0-10-4.486-10-10s4.486-10,10-10H64V45z M43.125,27c-4.411,0-8,3.589-8,8s3.589,8,8,8H62V27H43.125z"
		/>
</g>
<g>
	<path d="M44,39c-2.206,0-4-1.794-4-4s1.794-4,4-4s4,1.794,4,4S46.206,39,44,39z M44,33c-1.103,0-2,0.897-2,2s0.897,2,2,2
		s2-0.897,2-2S45.103,33,44,33z"/>
</g>
</svg>
