<?xml version="1.0" encoding="utf-8"?>
<!-- Generator: Adobe Illustrator 16.0.0, SVG Export Plug-In . SVG Version: 6.00 Build 0)  -->
<!DOCTYPE svg PUBLIC "-//W3C//DTD SVG 1.1//EN" "http://www.w3.org/Graphics/SVG/1.1/DTD/svg11.dtd">
<svg version="1.1" id="Layer_1" xmlns="http://www.w3.org/2000/svg" xmlns:xlink="http://www.w3.org/1999/xlink" x="0px" y="0px"
	 width="64px" height="64px" viewBox="0 0 64 64" enable-background="new 0 0 64 64" xml:space="preserve">
<g>
	<g>
		<path d="M11,64.618V14.585L25.586,0H53v64.617l-5-2.499l-4,2l-4-2l-4,2l-4-2l-4,2l-4-2l-4,2l-4-2L11,64.618z M40,59.882l4,2l4-2
			l3,1.499V2H26.414L13,15.413v45.969l3-1.5l4,2l4-2l4,2l4-2l4,2L40,59.882z"/>
	</g>
	<g>
		<polygon points="27,16 12,16 12,14 25,14 25,1 27,1 		"/>
	</g>
</g>
<g>
	<rect x="23" y="20" width="2" height="28"/>
</g>
<g>
	<path d="M30.544,38.015c-0.353,0-0.572-0.015-0.614-0.018L24,38v-2h6c0.113,0.006,4.562,0.274,7.149-2.145
		c1.239-1.159,1.868-2.793,1.868-4.855s-0.629-3.696-1.868-4.855c-2.584-2.417-7.034-2.151-7.081-2.146L24,22v-2h6
		c0.145-0.011,5.278-0.335,8.506,2.675c1.667,1.554,2.512,3.682,2.512,6.325s-0.845,4.771-2.512,6.325
		C35.894,37.761,32.036,38.015,30.544,38.015z"/>
</g>
<g>
	<rect x="20" y="26" width="24" height="2"/>
</g>
<g>
	<rect x="20" y="30" width="24" height="2"/>
</g>
</svg>
