<?xml version="1.0" encoding="utf-8"?>
<!-- Generator: Adobe Illustrator 16.0.0, SVG Export Plug-In . SVG Version: 6.00 Build 0)  -->
<!DOCTYPE svg PUBLIC "-//W3C//DTD SVG 1.1//EN" "http://www.w3.org/Graphics/SVG/1.1/DTD/svg11.dtd">
<svg version="1.1" id="Layer_1" xmlns="http://www.w3.org/2000/svg" xmlns:xlink="http://www.w3.org/1999/xlink" x="0px" y="0px"
	 width="64px" height="64px" viewBox="0 0 64 64" enable-background="new 0 0 64 64" xml:space="preserve">
<g>
	<path d="M32,64c-8.547,0-16.583-3.329-22.626-9.374C3.329,48.582,0,40.547,0,32S3.329,15.418,9.374,9.374
		C15.417,3.329,23.453,0,32,0s16.583,3.329,22.627,9.374C60.671,15.418,64,23.453,64,32s-3.329,16.582-9.374,22.626
		C48.583,60.671,40.547,64,32,64z M32,2c-8.013,0-15.546,3.121-21.212,8.788C5.121,16.454,2,23.987,2,32s3.121,15.546,8.788,21.212
		C16.454,58.879,23.987,62,32,62c8.013,0,15.546-3.121,21.213-8.788C58.88,47.546,62,40.013,62,32s-3.121-15.546-8.788-21.212
		C47.546,5.121,40.013,2,32,2z"/>
</g>
<g>
	<path d="M32,48c-8.383,0-13-5.683-13-16s4.617-16,13-16c9.669,0,10.921,4.563,10.97,4.758l-1.934,0.509
		C41.026,21.233,39.945,18,32,18c-9.092,0-11,7.613-11,14s1.908,14,11,14c7.196,0,8.761-2.652,9-3.177V37h-5v-2h7l-0.03,8.242
		C42.921,43.437,41.669,48,32,48z"/>
</g>
<g>
	<rect x="31" y="12" width="2" height="40"/>
</g>
</svg>
