<svg viewBox="0 -23.8438 14 10.7188" xmlns="http://www.w3.org/2000/svg"><path d="M1.75-21.44h3.06v-1.97H2.62v-.44h-.44v.875h2.18v1.09H1.29v1.75H-.03v7h14v-7H1.72Zm11.81 7.875H.43v-6.125H13.56ZM.87-18.605h.875v.43H.87Zm1.31 0h.875v.43H2.18Zm1.31 0h.875v.43H3.49Zm1.31 0h.875v.43H4.8Zm1.31 0h.875v.43H6.11Zm1.31 0h.875v.43H7.42Zm1.31 0H9.6v.43H8.73Zm1.31 0h.875v.43h-.875Zm1.31 0h.875v.43h-.875Zm-10.5 3.5h.875v.43H.85Zm1.31 0h.875v.43H2.16Zm1.31 0h5.68v.43H3.46Zm7.43 0h.875v.43H10.9Zm1.31 0h.875v.43h-.875Zm-2.625 0h.875v.43H9.58Zm-7.875-1.75h.875v.43H1.71Zm1.31 0h.875v.43H3.02Zm1.31 0H5.2v.43H4.33Zm1.31 0h.875v.43H5.64Zm1.31 0h.875v.43H6.95Zm1.31 0h.875v.43H8.26Zm1.31 0h.875v.43H9.57Zm1.31 0h.875v.43h-.875Zm1.31 0h.875v.43h-.875Z"/></svg>