<svg viewBox="2.40625 -28.1367 9.1875 14.1367" xmlns="http://www.w3.org/2000/svg"><path d="M2.4-14v-10.94l3.19-3.2h5.98v14.13l-1.1-.55 -.875.43 -.875-.44 -.875.43 -.875-.44 -.875.43 -.875-.44 -.875.43 -.875-.44Zm6.34-1.04l.875.43 .875-.44 .65.32v-12.99H5.75L2.82-24.8v10.06l.65-.33 .875.43 .875-.44 .875.43 .875-.44 .875.43Zm-2.85-9.6H2.6v-.44h2.84v-2.85h.43Zm-.44 1.31h.43v5.68h-.44Zm1.31 2.84h-1.1v-.44h1.09q.13 0 .32-.03t-.25 2.73417e-303q.28-.22.28-.61 0-.5-.29-.77 -.29-.28-.48-.31 -.2-.03-.33-.03h-1.1v-.44h1.09q.51 0 1.02.36 .5.36.5 1.16 0 .68-.51.99 -.51.31-1.03.31Zm.21 2.84H5.65v-.44h1.31q.05 0 .16-.02 .1-.02.32-.07 .21-.06.38-.17 .16-.11.3-.33 .13-.22.13-.52 0-.63-.36-.96 -.17-.17-.42-.26 -.25-.1-.39-.1h-.17 -1.1v-.44H6.9q.79 0 1.28.49 .46.46.46 1.25t1.16 2.99905e-310q-.58.36-1.18.36Zm-.22-6.125h.43v6.56h-.44Z"/></svg>