<svg viewBox="0 -27.5625 14.0547 13.7812" xmlns="http://www.w3.org/2000/svg"><path d="M5.44-14.22q-.44.43-1.07.43 -.63 0-1.09-.46 -.46-.46-.46-1.09 0-.63.45-1.09 .45-.46 1.08-.46 .62 0 1.08.45 .45.45.45 1.08 0 .62-.47 1.09Zm-.31-1.86q-.33-.33-.77-.33t.32.32q-.33.32-.33.76 0 .43.32.76 .32.32.76.32 .43 0 .76-.33 .32-.33.32-.77t-.77 1.63592e-306Zm5.55 1.85q-.44.43-1.07.43 -.63 0-1.09-.46 -.46-.46-.46-1.09 0-.63.45-1.09 .45-.46 1.08-.46 .62 0 1.08.45 .45.45.45 1.08 0 .62-.47 1.09Zm-.31-1.86q-.33-.33-.77-.33t.32 2.73417e-303q-.33.32-.33.76 0 .43.32.76 .32.32.76.32 .43 0 .76-.33 .32-.33.32-.77t-.77 5.21502e-310Zm-4.71.54h2.625v.43H5.66Zm-2.85.24l-.85-11.84h-2v-.44h2.37l.9 12.22Zm.02-2.88l-.06-.44 9.26-.66 1.42-6.125H2.34v-.44h11.64l-1.65 7Zm6.58-4.22l-1.59-1.62 -1.59 1.61 -.33-.33 1.75-1.75h.32l1.75 1.75ZM7.6-24.33h.43v4.375h-.44Z"/></svg>