<svg viewBox="0 -22.0938 14 10.0625" xmlns="http://www.w3.org/2000/svg"><path d="M4.89-22.1h-4.9v10.06h14v-8.32H6.63Zm8.66 9.625H.42v-9.19h4.29l1.75 1.75h7.08ZM4.58-16.85q0 1.47 2.26 2.78l.02.02 .1.05 .1-.06q1.03-.69 1.39-1.04 .875-.93.9-1.78 0-.55-.39-.93 -.39-.39-.93-.39 -.66 0-1.1.57 -.44-.58-1.1-.58 -.55 0-.93.38 -.39.38-.39.92Zm2.18 0h.43q0-.39.24-.63 .24-.25.62-.25t.24 1.3182e-309q.24.24.24.62 0 1.2-1.97 2.37 -1.97-1.18-1.97-2.38 0-.39.24-.63 .24-.25.62-.25t.24 5.21502e-310q.24.24.24.62Z"/></svg>