<svg viewBox="0.875 -28 12.25 14" xmlns="http://www.w3.org/2000/svg"><path d="M13.125-19.25h-.03L11.775-28H2.19L.87-19.25H.84V-14h12.25ZM2.59-27.57h8.8l1.25 8.31H9.16v.21q0 .9-.65 1.54t.64.08q-.91 0-1.55-.65 -.65-.65-.65-1.55v-.22H1.28Zm10.08 13.125H1.3v-4.375h3.06q.08 1.01.84 1.7t.69 2.73417e-303q1.01 0 1.77-.7t-1.71 5.89329e-91h3.06Zm-5.69-6.125h.43l-.39.51 .35.27 .68-.875v-.28l-.69-.875 -.36.27 .38.51h-.44q-.63 0-1.09-.55 -.46-.55-.46-1.21h-.44q0 .82.57 1.5t.68 3.05317e-310Zm.38-3.42l-.39-.52h.43q.62 0 1.08.54 .45.54.45 1.2h.43q0-.83-.58-1.51 -.58-.69-1.4-.69h-.44l.38-.52 -.36-.28 -.69.875v.27l.68.875Z"/></svg>