<svg viewBox="0.0546875 -27.9453 13.9453 13.9453" xmlns="http://www.w3.org/2000/svg"><path d="M12.38-26.34q-1.62-1.62-3.86-1.62 -2.25 0-3.86 1.61 -1.62 1.61-1.62 3.85 0 2.13 1.44 3.71l-2.44 2.43 -1.7-1.73 -.33.32 1.72 1.69L0-14.39l.32.32 1.69-1.73 1.69 1.72 .32-.33 -1.73-1.7 2.43-2.44q1.58 1.44 3.71 1.44 2.24 0 3.85-1.62 1.61-1.62 1.61-3.86 0-2.25-1.62-3.86Zm-.31 7.41q-1.48 1.47-3.56 1.47t-1.48-1.48q-1.48-1.48-1.48-3.56t-3.56 1.47q1.47-1.48 3.55-1.48 2.07 0 3.55 1.47 1.47 1.47 1.47 3.55 0 2.07-1.48 3.55Z"/></svg>