<svg viewBox="0 -24.7188 14 11.8125" xmlns="http://www.w3.org/2000/svg"><path d="M7.05-16.27l.38.51h-.44q-.63 0-1.09-.55 -.46-.55-.46-1.21H5q0 .82.57 1.5t.68 2.73417e-303h.43l-.39.51 .35.27 .68-.875v-.28l-.69-.875Zm.38-3.42h-.44l.38-.52 -.36-.28 -.69.875v.27l.68.875 .35-.28 -.39-.52h.43q.62 0 1.08.54 .45.54.45 1.2h.43q0-.83-.58-1.51 -.58-.69-1.4-.69Zm4.15-5.04H9.83v.875H4.14v-.875H2.39v.875H-.02v10.93h14v-10.94h-2.41Zm-1.32.43h.875v1.31h-.875Zm-7.44 0h.875v1.31H2.82ZM.41-13.37v-8.32h13.125v8.31Zm13.125-10.07v1.31H.41v-1.32h1.96v.875h1.75v-.875H9.8v.875h1.75v-.875Z"/></svg>