<svg viewBox="0 -19.4688 14 8.3125" xmlns="http://www.w3.org/2000/svg"><path d="M11.81-11.16H-.01v-6.125H11.8ZM.43-11.6h10.93v-5.25H.42Zm13.56-1.75h-1.97v-.44h1.53v-5.25H2.615v1.53h-.44v-1.97h11.81Zm-3.94 1.31h-8.1v-.22q0-.66-.875-.66H.86v-2.625h.21q.875 0 .875-.66v-.22h8.09v.21q0 .65.65.65h.21v2.625h-.22q-.66 0-.66.65Zm-7.69-.44h7.27q.08-.74.84-.85v-1.81q-.77-.11-.85-.85H2.34q-.11.76-1.07.875v1.75q.95.1 1.06.875Zm4.45-.83q-.39.38-.93.38 -.55 0-.93-.39 -.39-.39-.39-.93 0-.55.38-.93 .38-.39.92-.39t.38 2.73417e-303q.38.38.38.92t.92 1.04394e-312Zm-.31-1.56q-.25-.25-.63-.25 -.39 0-.63.24 -.25.24-.25.62t.62 7.00038e-77q.24.24.62.24t-.25 2.73417e-303q.24-.25.24-.63 0-.39-.25-.63Z"/></svg>