<svg viewBox="0.875 -28 12.25 14" xmlns="http://www.w3.org/2000/svg"><path d="M13.125-19.25h-.03L11.775-28H2.19L.87-19.25H.84V-14h12.25ZM2.59-27.57h8.8l1.25 8.31H9.16v.21q0 .9-.65 1.54t.64 5.21502e-310q-.91 0-1.55-.65 -.65-.65-.65-1.55v-.22H1.28Zm10.08 13.125H1.3v-4.375h3.06q.08 1.01.84 1.7t.69 2.73417e-303q1.01 0 1.77-.7t-1.71 2.73417e-303h3.06Zm-6.35-7.44q.51 0 .9-.31l1.55 1.55 .32-.33 -1.56-1.56q.3-.39.3-.91 0-.63-.46-1.09Q6.91-25 6.28-25q-.63 0-1.09.45 -.46.45-.46 1.08 0 .62.45 1.08 .45.45 1.08.45Zm-.77-2.3q.32-.33.76-.33 .43 0 .76.32 .32.32.32.76 0 .43-.33.76 -.33.32-.77.32t-.33 0q-.33-.33-.33-.77t-.77 7.7486e-304Z"/></svg>