<svg viewBox="0 -26.9609 14 13.3984" xmlns="http://www.w3.org/2000/svg"><path d="M11.81-26.09h-.875v2.4h.43v-1.97h.43v9.89l1.09 2.18 1.09-2.19V-27h-2.19Zm.43-.44h1.31v10.66l-.66 1.31 -.66-1.32ZM.64-13.85h9.18v-13.125H.63v1.09h-.66v.43h.65v1.31h-.66v.43h.65v1.31h-.66v.43H.6v1.31h-.66v.43h.65v1.31h-.66v.43h.65v1.31h-.66v.43h.65v1.31h-.66v.43h.65Zm8.75-.44H7.64v-12.25h1.75ZM1.07-16.7h.65v-.44h-.66v-1.32h.65v-.44h-.66v-1.32h.65v-.44h-.66v-1.32h.65v-.44h-.66v-1.32h.65v-.44h-.66v-1.32h.65v-.44h-.66v-.66H7.13v12.25H1.01v-.66h.65v-.44H1Z"/></svg>