<svg viewBox="-0.0820312 -28.2461 14.1641 14.1641" xmlns="http://www.w3.org/2000/svg"><path d="M5.25-14.09l-1.62-1.62 .13-.17q.38-.36.38-.93 0-.66-.44-1.1 -.44-.44-1.1-.44 -.58 0-.93.38l-.17.13 -1.62-1.62 8.83-8.84 1.61 1.61 -.14.16q-.39.35-.39.92 0 .65.43 1.09 .43.43 1.09.43 .57 0 .92-.39l.16-.14L14-23.01Zm-1.02-1.62l1.01 1.01 8.23-8.24 -1.02-1.02q-.44.35-1.1.35 -.85 0-1.41-.57 -.57-.57-.57-1.41 0-.66.35-1.1L8.7-27.71 .46-19.48l1.01 1.01q.43-.36 1.09-.36 .84 0 1.4.56 .56.56.56 1.4 0 .65-.36 1.09Zm1.61-9.36l.875.875 -.33.32 -.875-.875Zm4.15 4.15l.875.875 -.33.32 -.875-.875Zm-2.85-2.85l.875.875 -.33.32 -.875-.875Zm1.53 1.53l.875.875 -.33.32 -.875-.875Z"/></svg>