<svg viewBox="0 -24.7188 14 11.8125" xmlns="http://www.w3.org/2000/svg"><path d="M11.59-24.72H9.84v.875H4.15v-.875H2.4v.875H-.01v10.93h14v-10.94h-2.41Zm-1.32.43h.875v1.31h-.875Zm-7.44 0H3.7v1.31H2.83ZM.42-13.36v-8.32H13.54v8.31ZM13.54-23.43v1.31H.42v-1.32h1.96v.875h1.75v-.875h5.68v.875h1.75v-.875ZM9.17-18.18H7.8l-.63-1.62q-.06-.14-.2-.14t.13 2.73417e-303L6.2-18.2H4.77q-.17 0-.22.16 -.06.13.1.24l1.17.76 -.44 1.39q-.03.1.08.21 .16.1.24.02l1.23-.8 1.17.79q.02.02.1.02t-.06 2.73417e-303q.13-.06.08-.22l-.39-1.4 1.17-.77q.16-.11.1-.25 -.06-.17-.22-.17Zm-1.43.9q-.17.1-.11.24l.27.95 -.83-.55q-.11-.06-.22 0L6-16.1l.3-.96q.05-.14-.11-.25l-.72-.47h.875q.13 0 .19-.14l.41-1.18 .46 1.17q.05.13.19.13h.82Z"/></svg>