<?xml version="1.0" encoding="utf-8"?>
<!-- Generator: Adobe Illustrator 16.0.0, SVG Export Plug-In . SVG Version: 6.00 Build 0)  -->
<!DOCTYPE svg PUBLIC "-//W3C//DTD SVG 1.1//EN" "http://www.w3.org/Graphics/SVG/1.1/DTD/svg11.dtd">
<svg version="1.1" id="Layer_1" xmlns="http://www.w3.org/2000/svg" xmlns:xlink="http://www.w3.org/1999/xlink" x="0px" y="0px"
	 width="64px" height="64px" viewBox="0 0 64 64" enable-background="new 0 0 64 64" xml:space="preserve">
<g>
	<polygon points="24.293,26.707 25.707,25.293 15.414,15 0,15 0,17 14.586,17 	"/>
	<polygon points="55.293,9.707 60.586,15 46.586,15 14.586,47 0,47 0,49 15.414,49 47.414,17 60.586,17 55.293,22.293 
		56.854,23.707 64,16.707 64,15.293 56.854,8.293 	"/>
	<polygon points="55.293,41.707 60.586,47 47.414,47 37.707,37.293 36.293,38.707 46.586,49 60.586,49 55.293,54.293 56.854,55.707 
		64,48.707 64,47.293 56.854,40.293 	"/>
</g>
</svg>
