<?xml version="1.0" encoding="utf-8"?>
<!-- Generator: Adobe Illustrator 16.0.0, SVG Export Plug-In . SVG Version: 6.00 Build 0)  -->
<!DOCTYPE svg PUBLIC "-//W3C//DTD SVG 1.1//EN" "http://www.w3.org/Graphics/SVG/1.1/DTD/svg11.dtd">
<svg version="1.1" id="Layer_1" xmlns="http://www.w3.org/2000/svg" xmlns:xlink="http://www.w3.org/1999/xlink" x="0px" y="0px"
	 width="64px" height="64px" viewBox="0 0 64 64" enable-background="new 0 0 64 64" xml:space="preserve">
<g>
	<path d="M45,0c-8.271,0-15,6.729-15,15c0,1.676,0.288,3.282,0.798,4.789L4.586,46l4,4l-4,4l10,10h5.828L42,42.414L45.586,46
		l-6.293,6.293l1.414,1.414L48.414,46L42,39.586L19.586,62h-4.172l-8-8L10,51.414l4,4l26.212-26.211C41.718,29.712,43.324,30,45,30
		c8.271,0,15-6.729,15-15S53.271,0,45,0z M7.414,46L24,29.414L30.586,36L14,52.586L7.414,46z M32,34.586L25.414,28l6.223-6.222
		c1.442,2.833,3.753,5.143,6.586,6.586L32,34.586z M45,28c-7.168,0-13-5.832-13-13S37.832,2,45,2s13,5.832,13,13S52.168,28,45,28z"
		/>
</g>
</svg>
