<?xml version="1.0" encoding="utf-8"?>
<!-- Generator: Adobe Illustrator 16.0.0, SVG Export Plug-In . SVG Version: 6.00 Build 0)  -->
<!DOCTYPE svg PUBLIC "-//W3C//DTD SVG 1.1//EN" "http://www.w3.org/Graphics/SVG/1.1/DTD/svg11.dtd">
<svg version="1.1" id="Layer_1" xmlns="http://www.w3.org/2000/svg" xmlns:xlink="http://www.w3.org/1999/xlink" x="0px" y="0px"
	 width="64px" height="64px" viewBox="0 0 64 64" enable-background="new 0 0 64 64" xml:space="preserve">
<g>
	<path d="M46,40c-4.962,0-9,4.038-9,9s4.038,9,9,9s9-4.038,9-9V-0.237L25,6.191v43.165C23.349,47.312,20.826,46,18,46
		c-4.962,0-9,4.038-9,9s4.038,9,9,9s9-4.038,9-9V23.809l26-5.571v25.119C51.349,41.312,48.826,40,46,40z M18,62c-3.86,0-7-3.14-7-7
		s3.14-7,7-7s7,3.14,7,7S21.86,62,18,62z M27,21.763V7.809l26-5.572v13.955L27,21.763z M46,56c-3.86,0-7-3.14-7-7s3.14-7,7-7
		s7,3.14,7,7S49.86,56,46,56z"/>
</g>
</svg>
