<svg viewBox="2.40625 -28.1367 9.1875 14.1367" xmlns="http://www.w3.org/2000/svg"><path d="M2.4-14v-10.94l3.19-3.2h5.98v14.13l-1.1-.55 -.875.43 -.875-.44 -.875.43 -.875-.44 -.875.43 -.875-.44 -.875.43 -.875-.44Zm6.34-1.04l.875.43 .875-.44 .65.32v-12.99H5.75L2.82-24.8v10.06l.65-.33 .875.43 .875-.44 .875.43 .875-.44 .875.43Zm-2.85-9.6H2.6v-.44h2.84v-2.85h.43Zm1.53 6.78q-2.19 0-2.19-2.85 0-2.625 2.18-2.625 1.69 0 1.96.82l-.44.13q0-.06-.09-.16t-.24 2.73417e-303q-.39-.14-.99-.14 -1.75 0-1.75 2.18 0 2.4 1.75 2.4 .54 0 .92-.17t-.29 6.94986e-310q.09-.13.12-.24v-.85h-.66v-.44h1.09v1.36l-.03.05q-.03.08-.09.16t.19 2.73417e-303q-.09.1-.25.21 -.17.1-.36.2 -.2.09-.48.15 -.29.05-.65.05Zm-.22-5.91h.43v6.34h-.44Z"/></svg>