<svg viewBox="3.28125 -28 7.4375 14" xmlns="http://www.w3.org/2000/svg"><path d="M3.28-14h7.43v-14H3.27Zm.43-.44v-5.47h6.56v5.46Zm0-5.91v-6.35h6.56v6.34Zm6.56-7.22v.43H3.7v-.44ZM8.49-18.8q-.69-.69-1.62-.69 -.93 0-1.62.68 -.69.68-.69 1.61 0 .92.68 1.61 .68.68 1.61.68 .92 0 1.61-.69 .68-.69.68-1.62 0-.93-.69-1.62Zm-.31 2.92q-.55.54-1.32.54t-.55 2.72278e-303q-.55-.55-.55-1.32t-1.32-.33q.54-.55 1.31-.55 .76 0 1.31.54 .54.54.54 1.31 0 .76-.55 1.31Zm-.8-1.84q-.22-.25-.52-.25 -.31 0-.54.23 -.24.23-.24.53 0 .3.23.53 .23.23.53.23 .3 0 .53-.24 .23-.24.23-.54 0-.31-.25-.52Zm-.2.51q0 .32-.33.32t-.33 2.73417e-303q0-.33.32-.33t.32 1.09367e-302Z"/></svg>