<svg viewBox="0 -28 14 14" xmlns="http://www.w3.org/2000/svg"><path d="M11.62-23.58l1.36-1.37 -2.06-2.06 -1.37 1.36 -1.04-.36v-2.03H5.44v2.02l-1.04.35 -1.37-1.37 -2.06 2.05 1.36 1.36 -.36 1.03H-.06v3.06h2.02l.35 1.03 -1.37 1.36 2.05 2.05 1.36-1.37 1.03.35v2.02h3.06v-2.03l1.03-.36 1.36 1.36 2.05-2.06 -1.37-1.37 .35-1.04h2.02v-3.07h-2.03Zm1.94 3.66h-1.92l-.52 1.58 1.25 1.25 -1.45 1.44 -1.26-1.26 -1.59.51v1.91H5.88v-1.92l-1.59-.52 -1.26 1.25 -1.45-1.45 1.25-1.26 -.52-1.59H.39v-2.19H2.3l.51-1.59 -1.26-1.26 1.44-1.45 1.25 1.25 1.58-.52v-1.92H8v1.91l1.58.51 1.25-1.26 1.44 1.44 -1.26 1.25 .51 1.58h1.91Zm-5.5-2.17q-.44-.47-1.07-.47 -.63 0-1.09.45 -.46.45-.46 1.08 0 .62.45 1.08 .45.45 1.08.45 .62 0 1.08-.46 .45-.46.45-1.09 0-.63-.47-1.07Zm-.31 1.83q-.33.32-.77.32t-.33 8.26219e-72q-.33-.33-.33-.77t-.77 2.73417e-303q.32-.33.76-.33 .43 0 .76.32 .32.32.32.76 0 .43-.33.76Z"/></svg>