<svg viewBox="0 -22.0938 14 10.0625" xmlns="http://www.w3.org/2000/svg"><path d="M4.89-22.1h-4.9v10.06h14v-8.32H6.63Zm8.66 9.625H.42v-9.19h4.29l1.75 1.75h7.08ZM5.29-16.4q-.33.05-.52.32 -.2.27-.2.51 0 .875.875.875h3.06q.875 0 .875-.875 0-.25-.18-.51t-.35 1.09367e-302q-.09-.58-.58-.96 -.5-.39-1.18-.39 -.61 0-1.07.39 -.47.39-.63.94Zm1.69-.91q.51 0 .91.3 .39.3.39.79v.21h.21q.19 0 .31.16t.27 2.44032e-313q0 .43-.44.43H5.41q-.44 0-.44-.44 0-.11.12-.28 .12-.17.31-.17h.19l.02-.17q.08-.44.46-.8 .38-.36.84-.36Z"/></svg>