<svg viewBox="2.40625 -28.1367 9.1875 14.1367" xmlns="http://www.w3.org/2000/svg"><path d="M2.4-14v-10.94l3.19-3.2h5.98v14.13l-1.1-.55 -.875.43 -.875-.44 -.875.43 -.875-.44 -.875.43 -.875-.44 -.875.43 -.875-.44Zm6.34-1.04l.875.43 .875-.44 .65.32v-12.99H5.75L2.82-24.8v10.06l.65-.33 .875.43 .875-.44 .875.43 .875-.44 .875.43Zm-2.85-9.6H2.6v-.44h2.84v-2.85h.43Zm1.61 7.57l-2.93-2.66v-.55H6.1q1.03 0 1.55-.47 .41-.36.41-1.07 0-.93-.96-1.32 -.22-.11-.48-.17 -.26-.06-.4-.06h-.14 -1.54v-.44h1.53q.82 0 1.61.47 .79.47.79 1.49 0 .84-.55 1.39 -.63.57-1.89.57h-.96l2.67 2.46Zm-2.93-6.7h4.81v.43H4.56Zm0 1.09h4.81v.43H4.56Z"/></svg>