<svg viewBox="0 -24.7188 14 11.8125" xmlns="http://www.w3.org/2000/svg"><path d="M11.59-24.72H9.84v.875H4.15v-.875H2.4v.875H-.01v10.93h14v-10.94h-2.41Zm-1.32.43h.875v1.31h-.875Zm-7.44 0H3.7v1.31H2.83ZM.42-13.36v-8.32H13.54v8.31ZM13.54-23.43v1.31H.42v-1.32h1.96v.875h1.75v-.875h5.68v.875h1.75v-.875Zm-11.6 5.25H4.57v-2.625H1.94Zm.43-2.19h1.75v1.75H2.37Zm-.44 6.125H4.56v-2.625H1.93Zm.43-2.19h1.75v1.75H2.36Zm7-1.75h2.625v-2.625H9.36Zm.43-2.19h1.75v1.75H9.79Zm-.44 6.125h2.625v-2.625H9.35Zm.43-2.19h1.75v1.75H9.78Zm-4.16-1.75H8.25v-2.625H5.62Zm.43-2.19H7.8v1.75H6.05Zm-.44 6.125H8.24v-2.625H5.61Zm.43-2.19h1.75v1.75H6.04Z"/></svg>