<svg viewBox="0 -19.4688 14 8.3125" xmlns="http://www.w3.org/2000/svg"><path d="M12.25-15.1q-.09-1.84-1.48-3.11 -1.4-1.28-3.31-1.28 -1.73 0-3.08.99 -1.36.99-1.71 2.5h-.2q-1.04 0-1.77.69t1.7 0q0 1.01.69 1.7t.69 5.21502e-310h9.625q.82 0 1.39-.58t-1.4 2.73417e-303q0-.77-.51-1.33 -.51-.57-1.25-.65Zm-.22 3.5H2.4q-.83 0-1.4-.58 -.58-.58-.58-1.4 0-.83.6-1.4 .6-.58 1.44-.58H3l.02-.17q.27-1.43 1.53-2.38 1.25-.96 2.87-.96 1.77 0 3.06 1.21 1.28 1.21 1.28 2.93v.21h.21q.62 0 1.08.45 .45.45.45 1.08 0 .62-.46 1.08 -.46.45-1.09.45Zm-3.48-4.84q-.69-.63-1.56-.63 -.875 0-1.56.62 -.63.68-.63 1.55 0 .875.62 1.55 .68.62 1.55.62 .9 0 1.54-.65t-1.55 2.73417e-303q0-.875-.63-1.56Zm-1.56 3.3q-.72 0-1.24-.52t-1.24 2.72278e-303q0-.58.35-1.07l2.46 2.43q-.47.38-1.07.38Zm1.36-.69L5.91-16.3q.49-.36 1.06-.36 .71 0 1.23.51 .51.51.51 1.23 0 .6-.39 1.06Z"/></svg>