<svg viewBox="0 -28 14 14" xmlns="http://www.w3.org/2000/svg"><path d="M12.87-19.94q-.25.24-.63.24 -.39 0-.63-.25 -.25-.25-.25-.63 0-.39.24-.63 .24-.25.62-.25t.24 2.73417e-303q.24.24.24.62t.62 7.83Zm-.2-.63q0-.44-.44-.44t.43 1.3182e-309q0 .43.43.43t-.44 1.3182e-309Zm-7.25-5.94q-.25.24-.63.24 -.39 0-.63-.25 -.25-.25-.25-.63 0-.39.24-.63 .24-.25.62-.25t.24 2.73417e-303q.24.24.24.62t.62 2.73417e-303Zm-.2-.63q0-.44-.44-.44t.43 1.89q0 .43.43.43t-.44 1.3182e-309Zm4.12 10.69q-.25.24-.63.24 -.39 0-.63-.25 -.25-.25-.25-.63 0-.39.24-.63 .24-.25.62-.25t.24 2.73417e-303q.24.24.24.62t.62 0Zm-.2-.63q0-.44-.44-.44t.43 1.91q0 .43.43.43t-.44 1.3182e-309Zm-7.03-3.53q-.25.24-.63.24 -.39 0-.63-.25 -.25-.25-.25-.63 0-.39.24-.63 .24-.25.62-.25t.24 2.73417e-303q.24.24.24.62t.62 2.73417e-303Zm-.2-.63q0-.44-.44-.44t.43 0q0 .43.43.43t-.44 2.73417e-303Zm2.21-5.58l.38.21 -2.625 4.81 -.39-.22Zm7.46 6.53l.32.27 -2.41 2.625 -.33-.28Zm2.35 6.26h-14v-1.75h14ZM.36-14.47h13.125v-.875H.36Zm5.03-12.34l3.06 8.96 -.44.16 -3.07-8.97Z"/></svg>