<svg viewBox="2.40625 -28.1367 9.1875 14.1367" xmlns="http://www.w3.org/2000/svg"><path d="M2.4-14v-10.94l3.19-3.2h5.98v14.13l-1.1-.55 -.875.43 -.875-.44 -.875.43 -.875-.44 -.875.43 -.875-.44 -.875.43 -.875-.44Zm6.34-1.04l.875.43 .875-.44 .65.32v-12.99H5.75L2.82-24.8v10.06l.65-.33 .875.43 .875-.44 .875.43 .875-.44 .875.43Zm-2.85-9.6H2.6v-.44h2.84v-2.85h.43Zm1.09 6.34q-.875 0-1.26-.39 -.28-.28-.28-.72h.43q0 .24.13.41 .24.24.95.24 .82 0 1.09-.33 .21-.22.21-.72v-.06q0-.11-.06-.25t-.39 2.73417e-303q-.33-.25-.875-.25 -1.54 0-1.54-1.1v-.03q0-.63.27-.91 .35-.39 1.25-.39 .84 0 1.25.41 .27.3.27.68h-.44 .21 -.22q0-.22-.17-.39 -.33-.28-.93-.28 -.72 0-.93.24 -.17.13-.17.6v.02q0 .21.04.32 .04.1.28.21 .24.1.76.1 .92 0 1.33.46 .41.46.41.84v.05q0 .68-.33 1.03 -.5.43-1.43.43Zm.21-5.25h.43v5.9h-.44Zm-.875 0h.43v5.9h-.44Z"/></svg>