<?xml version="1.0" encoding="utf-8"?>
<!-- Generator: Adobe Illustrator 16.0.0, SVG Export Plug-In . SVG Version: 6.00 Build 0)  -->
<!DOCTYPE svg PUBLIC "-//W3C//DTD SVG 1.1//EN" "http://www.w3.org/Graphics/SVG/1.1/DTD/svg11.dtd">
<svg version="1.1" id="Layer_1" xmlns="http://www.w3.org/2000/svg" xmlns:xlink="http://www.w3.org/1999/xlink" x="0px" y="0px"
	 width="64px" height="64px" viewBox="0 0 64 64" enable-background="new 0 0 64 64" xml:space="preserve">
<g>
	<rect x="16" width="4" height="2"/>
	<rect x="22" width="4" height="2"/>
	<rect x="28" width="4" height="2"/>
	<rect x="4" width="4" height="2"/>
	<rect x="10" width="4" height="2"/>
	<rect x="48" y="62" width="4" height="2"/>
	<rect x="62" y="32" width="2" height="4"/>
	<rect x="46" width="4" height="2"/>
	<rect x="62" y="44" width="2" height="4"/>
	<rect x="62" y="26" width="2" height="4"/>
	<rect x="52" width="4" height="2"/>
	<rect y="6" width="2" height="4"/>
	<rect width="2" height="4"/>
	<rect y="24" width="2" height="4"/>
	<rect x="62" y="50" width="2" height="4"/>
	<rect x="42" y="62" width="4" height="2"/>
	<rect x="62" y="56" width="2" height="4"/>
	<rect y="12" width="2" height="4"/>
	<rect y="18" width="2" height="4"/>
	<rect x="60" y="62" width="4" height="2"/>
	<rect x="62" y="38" width="2" height="4"/>
	<rect x="54" y="62" width="4" height="2"/>
	<rect x="62" y="14" width="2" height="4"/>
	<rect x="62" y="20" width="2" height="4"/>
	<rect x="40" width="4" height="2"/>
	<rect x="58" width="4" height="2"/>
	<rect x="62" y="2" width="2" height="4"/>
	<rect x="62" y="8" width="2" height="4"/>
	<rect x="36" y="62" width="4" height="2"/>
	<rect x="34" width="4" height="2"/>
	<path d="M32,32H0v32h32V32z M30,62H2V34h28V62z"/>
	<polygon points="41.707,23.707 56,9.414 56,18 58,18 58,7 57,6 46,6 46,8 54.586,8 40.293,22.293 	"/>
</g>
</svg>
