<?xml version="1.0" encoding="utf-8"?>
<!-- Generator: Adobe Illustrator 16.0.0, SVG Export Plug-In . SVG Version: 6.00 Build 0)  -->
<!DOCTYPE svg PUBLIC "-//W3C//DTD SVG 1.1//EN" "http://www.w3.org/Graphics/SVG/1.1/DTD/svg11.dtd">
<svg version="1.1" id="Layer_1" xmlns="http://www.w3.org/2000/svg" xmlns:xlink="http://www.w3.org/1999/xlink" x="0px" y="0px"
	 width="64px" height="64px" viewBox="0 0 64 64" enable-background="new 0 0 64 64" xml:space="preserve">
<g>
	<path d="M56,37c0-2.319-1.765-6-6.5-6c-4.449,0-6.227,2.302-6.3,2.4l1.591,1.211C44.844,34.546,46.116,33,49.5,33
		c3.302,0,4.5,2.393,4.5,4v2h-4c-2.326,0-6.386,0.896-7.622,4h-6.174L23.705,8h-2.41L8.796,43H6v2h2.081l-2.022,5.664l1.883,0.672
		L10.204,45h24.592l2.263,6.336l1.883-0.672L36.919,45H42c0,3.813,2.187,6,6,6c2.735,0,4.612-0.897,5.986-2.521
		C54.376,49.721,56,51,57,51v-2c-1,0-0.996-1.67-1-2v-2h2v-2h-2V37z M22.5,10.573L30.867,34H14.133L22.5,10.573z M10.919,43l2.5-7
		h18.162l2.5,7H10.919z M48,49c-1.717,0-4-0.415-4-4h9.777C53.007,48.243,50.318,49,48,49z M44.671,43
		c1.521-1.951,5.138-1.999,5.329-2h4v2H44.671z"/>
	<path d="M0,64h64V0H0V64z M2,2h60v60H2V2z"/>
</g>
</svg>
