<?xml version="1.0" encoding="utf-8"?>
<!-- Generator: Adobe Illustrator 16.0.0, SVG Export Plug-In . SVG Version: 6.00 Build 0)  -->
<!DOCTYPE svg PUBLIC "-//W3C//DTD SVG 1.1//EN" "http://www.w3.org/Graphics/SVG/1.1/DTD/svg11.dtd">
<svg version="1.1" id="Layer_1" xmlns="http://www.w3.org/2000/svg" xmlns:xlink="http://www.w3.org/1999/xlink" x="0px" y="0px"
	 width="64px" height="64px" viewBox="0 0 64 64" enable-background="new 0 0 64 64" xml:space="preserve">
<g>
	<rect x="40" y="33" width="2" height="4"/>
	<rect x="40" y="27" width="2" height="4"/>
	<polygon points="40,40 39,40 39,42 42,42 42,39 40,39 	"/>
	<rect x="33" y="40" width="4" height="2"/>
	<rect x="27" y="40" width="4" height="2"/>
	<path d="M42,0H0v42h22v22h42V22H42V0z M62,62H24V42h1v-2h-1v-1h-2v1H2V2h38v20h-1v2h1v1h2v-1h20V62z"/>
	<rect x="22" y="27" width="2" height="4"/>
	<rect x="22" y="33" width="2" height="4"/>
	<polygon points="22,25 24,25 24,24 25,24 25,22 22,22 	"/>
	<rect x="33" y="22" width="4" height="2"/>
	<rect x="27" y="22" width="4" height="2"/>
</g>
</svg>
