<?xml version="1.0" encoding="utf-8"?>
<!-- Generator: Adobe Illustrator 16.0.0, SVG Export Plug-In . SVG Version: 6.00 Build 0)  -->
<!DOCTYPE svg PUBLIC "-//W3C//DTD SVG 1.1//EN" "http://www.w3.org/Graphics/SVG/1.1/DTD/svg11.dtd">
<svg version="1.1" id="Layer_1" xmlns="http://www.w3.org/2000/svg" xmlns:xlink="http://www.w3.org/1999/xlink" x="0px" y="0px"
	 width="64px" height="64px" viewBox="0 0 64 64" enable-background="new 0 0 64 64" xml:space="preserve">
<g>
	<path d="M10,0v42c0,12.131,9.869,22,22,22s22-9.869,22-22V0H39v42c0,3.859-3.141,7-7,7s-7-3.141-7-7V0H10z M23,2v7H12V2H23z M52,2
		v7H41V2H52z M32,51c4.963,0,9-4.037,9-9V11h11v31c0,11.028-8.972,20-20,20s-20-8.972-20-20V11h11v31C23,46.963,27.037,51,32,51z"/>
</g>
</svg>
