<?xml version="1.0" encoding="utf-8"?>
<!-- Generator: Adobe Illustrator 16.0.0, SVG Export Plug-In . SVG Version: 6.00 Build 0)  -->
<!DOCTYPE svg PUBLIC "-//W3C//DTD SVG 1.1//EN" "http://www.w3.org/Graphics/SVG/1.1/DTD/svg11.dtd">
<svg version="1.1" id="Layer_1" xmlns="http://www.w3.org/2000/svg" xmlns:xlink="http://www.w3.org/1999/xlink" x="0px" y="0px"
	 width="64px" height="64px" viewBox="0 0 64 64" enable-background="new 0 0 64 64" xml:space="preserve">
<g>
	<path d="M30.295,30l4.763,13.336l1.884-0.672L21.705,0h-2.409L4.058,42.664l1.884,0.672L10.705,30H30.295z M20.5,2.573L29.581,28
		H11.419L20.5,2.573z"/>
	<path d="M49.289,7l-8.233,23.672l1.889,0.656L45.146,25h10.709l2.201,6.328l1.889-0.656L51.711,7H49.289z M45.841,23L50.5,9.606
		L55.159,23H45.841z"/>
	<rect x="2" y="46" width="36" height="2"/>
	<rect x="40" y="34" width="22" height="2"/>
	<polygon points="52,64 52,42.414 57.293,47.707 58.707,46.146 51.707,39 50.293,39 43.293,46.146 44.707,47.634 50,42.414 50,64 	
		"/>
</g>
</svg>
