<?xml version="1.0" encoding="utf-8"?>
<!-- Generator: Adobe Illustrator 16.0.0, SVG Export Plug-In . SVG Version: 6.00 Build 0)  -->
<!DOCTYPE svg PUBLIC "-//W3C//DTD SVG 1.1//EN" "http://www.w3.org/Graphics/SVG/1.1/DTD/svg11.dtd">
<svg version="1.1" id="Layer_1" xmlns="http://www.w3.org/2000/svg" xmlns:xlink="http://www.w3.org/1999/xlink" x="0px" y="0px"
	 width="64px" height="64px" viewBox="0 0 64 64" enable-background="new 0 0 64 64" xml:space="preserve">
<g>
	<path d="M52,5H12V0H0v12h5v40H0v12h12v-5h40v5h12V52h-5V12h5V0H52V5z M2,2h8v8H2V2z M10,62H2v-8h8V62z M62,62h-8v-8h8V62z M57,52
		h-5v5H12v-5H7V12h5V7h40v5h5V52z M54,2h8v8h-8V2z"/>
</g>
</svg>
