<?xml version="1.0" encoding="utf-8"?>
<!-- Generator: Adobe Illustrator 16.0.0, SVG Export Plug-In . SVG Version: 6.00 Build 0)  -->
<!DOCTYPE svg PUBLIC "-//W3C//DTD SVG 1.1//EN" "http://www.w3.org/Graphics/SVG/1.1/DTD/svg11.dtd">
<svg version="1.1" id="Layer_1" xmlns="http://www.w3.org/2000/svg" xmlns:xlink="http://www.w3.org/1999/xlink" x="0px" y="0px"
	 width="64px" height="64px" viewBox="0 0 64 64" enable-background="new 0 0 64 64" xml:space="preserve">
<g>
	<path d="M19.003,49.118c-1.261-0.387-2.493-0.835-3.66-1.332l-0.783,1.84c1.231,0.524,2.529,0.997,3.857,1.404L19.003,49.118z"/>
	<path d="M24.711,50.432c-1.298-0.206-2.586-0.471-3.828-0.788l-0.494,1.938c1.301,0.331,2.649,0.608,4.008,0.825L24.711,50.432z"/>
	<path d="M28.348,11.134c-1.367,0.102-2.733,0.262-4.059,0.476l0.319,1.975c1.269-0.205,2.577-0.358,3.888-0.456L28.348,11.134z"/>
	<path d="M34.371,13.058l0.099-1.997c-1.344-0.067-2.728-0.079-4.083-0.035l0.065,1.999C31.752,12.984,33.079,12.995,34.371,13.058z
		"/>
	<path d="M30.558,50.978c-1.308-0.04-2.622-0.134-3.906-0.282l-0.228,1.987c1.339,0.153,2.71,0.252,4.073,0.293L30.558,50.978z"/>
	<path d="M36.616,52.785l-0.188-1.991c-1.289,0.121-2.605,0.19-3.912,0.204l0.021,2C33.9,52.983,35.272,52.911,36.616,52.785z"/>
	<path d="M42.669,51.811l-0.45-1.948c-1.249,0.288-2.543,0.525-3.846,0.705l0.273,1.981C40.008,52.361,41.362,52.113,42.669,51.811z
		"/>
	<path d="M40.556,11.755c-1.326-0.239-2.688-0.424-4.049-0.549l-0.184,1.991c1.304,0.12,2.609,0.297,3.878,0.526L40.556,11.755z"/>
	<path d="M46.508,13.266c-1.272-0.423-2.6-0.794-3.946-1.102l-0.445,1.95c1.284,0.293,2.549,0.646,3.76,1.049L46.508,13.266z"/>
	<path d="M7.434,45.487l1.234-1.574c-1.042-0.816-1.982-1.691-2.795-2.602l-1.491,1.333C5.273,43.642,6.3,44.598,7.434,45.487z"/>
	<path d="M7.134,21.4l-1.367-1.46c-1.059,0.992-1.991,2.05-2.771,3.146l1.63,1.159C5.329,23.258,6.172,22.301,7.134,21.4z"/>
	<path d="M22.278,11.981c-1.349,0.28-2.683,0.624-3.967,1.021l0.592,1.91c1.223-0.378,2.495-0.706,3.781-0.973L22.278,11.981z"/>
	<path d="M0.353,28.86l1.95,0.442c0.267-1.176,0.712-2.341,1.324-3.464l-1.756-0.957C1.17,26.166,0.66,27.504,0.353,28.86z"/>
	<path d="M16.368,13.658c-1.311,0.48-2.581,1.026-3.777,1.624l0.894,1.789c1.129-0.564,2.331-1.081,3.572-1.535L16.368,13.658z"/>
	<path d="M10.775,16.261c-1.228,0.712-2.381,1.493-3.429,2.322l1.24,1.568c0.973-0.769,2.047-1.496,3.192-2.161L10.775,16.261z"/>
	<path d="M13.578,46.975c-1.187-0.588-2.314-1.238-3.351-1.933l-1.113,1.662c1.108,0.742,2.312,1.437,3.577,2.063L13.578,46.975z"/>
	<path d="M3.062,41.005l1.623-1.169c-0.758-1.052-1.366-2.154-1.806-3.273l-1.861,0.731C1.519,38.569,2.207,39.817,3.062,41.005z"/>
	<path d="M57.441,21.959c0.925,0.936,1.724,1.925,2.375,2.942l1.685-1.078c-0.727-1.135-1.615-2.236-2.638-3.271L57.441,21.959z"/>
	<path d="M62.584,38.221l-1.812-0.849c-0.511,1.09-1.183,2.159-1.998,3.175l1.561,1.251C61.249,40.658,62.006,39.455,62.584,38.221z
		"/>
	<path d="M63.819,29.745c-0.223-1.382-0.655-2.751-1.285-4.069l-1.805,0.861c0.547,1.146,0.922,2.333,1.115,3.526L63.819,29.745z"/>
	<path d="M64,32.014v-0.134L62,32c0,1.223-0.187,2.447-0.556,3.639l1.911,0.591C63.783,34.847,64,33.424,64,32.014z"/>
	<path d="M2.326,34.794C2.11,33.877,2,32.937,2,32c0-0.293,0.01-0.584,0.031-0.873l-1.995-0.144C0.012,31.32,0,31.659,0,32
		c0,1.091,0.128,2.185,0.379,3.252L2.326,34.794z"/>
	<path d="M52.179,15.679c-1.179-0.627-2.438-1.205-3.74-1.715l-0.73,1.862c1.231,0.482,2.419,1.027,3.531,1.619L52.179,15.679z"/>
	<path d="M54.064,47.235l-1.058-1.697c-1.062,0.662-2.21,1.279-3.413,1.833l0.838,1.816C51.709,48.598,52.932,47.941,54.064,47.235z
		"/>
	<path d="M48.542,49.996l-0.735-1.86c-1.184,0.468-2.427,0.886-3.694,1.242l0.541,1.926C45.986,50.929,47.294,50.489,48.542,49.996z
		"/>
	<path d="M57.33,19.136c-1.02-0.864-2.15-1.681-3.36-2.429l-1.052,1.701c1.125,0.696,2.175,1.454,3.119,2.254L57.33,19.136z"/>
	<path d="M58.941,43.367l-1.429-1.399c-0.857,0.875-1.835,1.714-2.906,2.493l1.177,1.617C56.944,45.234,58.006,44.322,58.941,43.367
		z"/>
</g>
</svg>
