<?xml version="1.0" encoding="utf-8"?>
<!-- Generator: Adobe Illustrator 16.0.0, SVG Export Plug-In . SVG Version: 6.00 Build 0)  -->
<!DOCTYPE svg PUBLIC "-//W3C//DTD SVG 1.1//EN" "http://www.w3.org/Graphics/SVG/1.1/DTD/svg11.dtd">
<svg version="1.1" id="Layer_1" xmlns="http://www.w3.org/2000/svg" xmlns:xlink="http://www.w3.org/1999/xlink" x="0px" y="0px"
	 width="64px" height="64px" viewBox="0 0 64 64" enable-background="new 0 0 64 64" xml:space="preserve">
<g>
	<polygon points="0,30 2,30 2,2 62,2 62,62 34,62 34,64 64,64 64,0 0,0 	"/>
	<polygon points="32,32 29,32 29,34 30,34 30,35 32,35 	"/>
	<rect x="23" y="32" width="4" height="2"/>
	<rect x="5" y="32" width="4" height="2"/>
	<rect x="17" y="32" width="4" height="2"/>
	<rect x="11" y="32" width="4" height="2"/>
	<polygon points="2,34 3,34 3,32 0,32 0,35 2,35 	"/>
	<rect y="49" width="2" height="4"/>
	<rect y="43" width="2" height="4"/>
	<rect y="37" width="2" height="4"/>
	<rect y="55" width="2" height="4"/>
	<polygon points="3,62 2,62 2,61 0,61 0,64 3,64 	"/>
	<rect x="17" y="62" width="4" height="2"/>
	<rect x="11" y="62" width="4" height="2"/>
	<rect x="23" y="62" width="4" height="2"/>
	<rect x="5" y="62" width="4" height="2"/>
	<polygon points="29,64 32,64 32,61 30,61 30,62 29,62 	"/>
	<rect x="30" y="43" width="2" height="4"/>
	<rect x="30" y="37" width="2" height="4"/>
	<rect x="30" y="49" width="2" height="4"/>
	<rect x="30" y="55" width="2" height="4"/>
	<polygon points="40,12 40,23 41,24 52,24 52,22 43.414,22 57.707,7.707 56.293,6.293 42,20.586 42,12 	"/>
</g>
</svg>
