<?xml version="1.0" encoding="utf-8"?>
<!-- Generator: Adobe Illustrator 16.0.0, SVG Export Plug-In . SVG Version: 6.00 Build 0)  -->
<!DOCTYPE svg PUBLIC "-//W3C//DTD SVG 1.1//EN" "http://www.w3.org/Graphics/SVG/1.1/DTD/svg11.dtd">
<svg version="1.1" id="Layer_1" xmlns="http://www.w3.org/2000/svg" xmlns:xlink="http://www.w3.org/1999/xlink" x="0px" y="0px"
	 width="64px" height="64px" viewBox="0 0 64 64" enable-background="new 0 0 64 64" xml:space="preserve">
<g>
	<path d="M22,43.252V46h-4v12h4v6h20v-6h4V46h-4v-2.748l7.139-13.258L32-1.07L14.861,29.994L22,43.252z M40,62H24v-4h16V62z M44,56
		h-2H22h-2v-8h24V56z M46.861,30.006L40,42.748V46H24v-3.252l-6.861-12.742L32,3.07L46.861,30.006z"/>
	<polygon points="31,37 33,37 33,31 39,31 39,29 33,29 33,23 31,23 31,29 25,29 25,31 31,31 	"/>
</g>
</svg>
