<?xml version="1.0" encoding="utf-8"?>
<!-- Generator: Adobe Illustrator 16.0.0, SVG Export Plug-In . SVG Version: 6.00 Build 0)  -->
<!DOCTYPE svg PUBLIC "-//W3C//DTD SVG 1.1//EN" "http://www.w3.org/Graphics/SVG/1.1/DTD/svg11.dtd">
<svg version="1.1" id="Layer_1" xmlns="http://www.w3.org/2000/svg" xmlns:xlink="http://www.w3.org/1999/xlink" x="0px" y="0px"
	 width="64px" height="64px" viewBox="0 0 64 64" enable-background="new 0 0 64 64" xml:space="preserve">
<g>
	<path d="M13,53h38c7.168,0,13-5.832,13-13V24c0-7.168-5.832-13-13-13H13C5.832,11,0,16.832,0,24v16C0,47.168,5.832,53,13,53z
		 M13,51c-2.309,0-4.45-0.718-6.222-1.938L32,33.182l25.222,15.88C55.45,50.282,53.309,51,51,51H13z M62,24v16
		c0,3.002-1.212,5.725-3.169,7.712L33.877,32l24.954-15.712C60.788,18.275,62,20.998,62,24z M51,13c2.309,0,4.45,0.718,6.222,1.938
		L32,30.818L6.778,14.938C8.55,13.718,10.691,13,13,13H51z M2,24c0-3.002,1.212-5.725,3.169-7.712L30.123,32L5.169,47.712
		C3.212,45.725,2,43.002,2,40V24z"/>
</g>
</svg>
