<?xml version="1.0" encoding="utf-8"?>
<!-- Generator: Adobe Illustrator 16.0.0, SVG Export Plug-In . SVG Version: 6.00 Build 0)  -->
<!DOCTYPE svg PUBLIC "-//W3C//DTD SVG 1.1//EN" "http://www.w3.org/Graphics/SVG/1.1/DTD/svg11.dtd">
<svg version="1.1" id="Layer_1" xmlns="http://www.w3.org/2000/svg" xmlns:xlink="http://www.w3.org/1999/xlink" x="0px" y="0px"
	 width="64px" height="64px" viewBox="0 0 64 64" enable-background="new 0 0 64 64" xml:space="preserve">
<g>
	<path d="M26,22.414L48.414,0H3.586L26,22.414z M26,19.586L8.414,2h35.172L26,19.586z"/>
	<polygon points="8,62.414 8.121,62.293 8,62.172 8,62 7.828,62 6.707,60.879 3.586,64 8,64 	"/>
	<rect x="21" y="62" width="4" height="2"/>
	<rect x="33" y="62" width="3" height="2"/>
	<rect x="38" y="62" width="4" height="2"/>
	<rect x="16" y="62" width="3" height="2"/>
	<rect x="10" y="62" width="4" height="2"/>
	<rect x="27" y="62" width="4" height="2"/>
	<polygon points="44.172,62 44,62 44,62.172 43.879,62.293 44,62.414 44,64 48.414,64 45.293,60.879 	"/>
	<rect x="36.113" y="53.981" transform="matrix(-0.7071 -0.7071 0.7071 -0.7071 25.9601 120.715)" width="3.736" height="2"/>
	<rect x="40.076" y="57.944" transform="matrix(-0.7071 -0.7071 0.7071 -0.7071 29.923 130.2822)" width="3.736" height="2"/>
	<rect x="28.188" y="46.056" transform="matrix(-0.7071 -0.7071 0.7071 -0.7071 18.0348 101.5816)" width="3.736" height="2"/>
	<rect x="32.151" y="50.019" transform="matrix(-0.7071 -0.7071 0.7071 -0.7071 21.9977 111.1489)" width="3.736" height="2"/>
	<polygon points="25.293,45.121 26,44.414 26.707,45.121 28.121,43.707 26,41.586 23.879,43.707 	"/>
	<rect x="20.944" y="45.188" transform="matrix(-0.7071 -0.7071 0.7071 -0.7071 4.1868 95.8465)" width="2" height="3.736"/>
	<rect x="12.151" y="53.982" transform="matrix(-0.7071 0.7071 -0.7071 -0.7071 62.8089 83.9466)" width="3.736" height="2"/>
	<rect x="9.056" y="57.076" transform="matrix(0.7071 0.7071 -0.7071 0.7071 44.6252 10.154)" width="2" height="3.736"/>
	<rect x="16.113" y="50.019" transform="matrix(-0.7071 0.7071 -0.7071 -0.7071 66.7713 74.3805)" width="3.736" height="2"/>
	<rect x="2" y="30.5" width="2" height="2"/>
	<rect x="6" y="31" width="4" height="2"/>
	<rect x="24" y="31" width="4" height="2"/>
	<rect x="30" y="31" width="4" height="2"/>
	<rect x="36" y="31" width="4" height="2"/>
	<rect x="18" y="31" width="4" height="2"/>
	<rect x="42" y="31" width="4" height="2"/>
	<rect x="12" y="31" width="4" height="2"/>
	<rect x="48" y="30.5" width="2" height="2"/>
	<path d="M51.581,6.187l-1.162,1.627C57.887,13.149,62,21.738,62,32c0,9.509-3.538,17.577-10,22.957V46h-2v11l1,1h11v-2h-8.151
		C60.412,50.245,64,41.839,64,32C64,21.075,59.59,11.907,51.581,6.187z"/>
</g>
</svg>
