<?xml version="1.0" encoding="utf-8"?>
<!-- Generator: Adobe Illustrator 16.0.0, SVG Export Plug-In . SVG Version: 6.00 Build 0)  -->
<!DOCTYPE svg PUBLIC "-//W3C//DTD SVG 1.1//EN" "http://www.w3.org/Graphics/SVG/1.1/DTD/svg11.dtd">
<svg version="1.1" id="Layer_1" xmlns="http://www.w3.org/2000/svg" xmlns:xlink="http://www.w3.org/1999/xlink" x="0px" y="0px"
	 width="64px" height="64px" viewBox="0 0 64 64" enable-background="new 0 0 64 64" xml:space="preserve">
<g>
	<path d="M13.419,36h18.162l5.478,15.336l1.883-0.672L23.705,8h-2.41L6.059,50.664l1.883,0.672L13.419,36z M22.5,10.573L30.867,34
		H14.133L22.5,10.573z"/>
	<path d="M50,39c-2.767,0-8,1.254-8,6c0,3.813,2.187,6,6,6c2.735,0,4.612-0.897,5.986-2.521C54.376,49.721,56,51,57,51v-2
		c-1,0-0.996-1.67-1-2V37c0-2.319-1.765-6-6.5-6c-4.449,0-6.227,2.302-6.3,2.4l1.591,1.211C44.844,34.546,46.116,33,49.5,33
		c3.302,0,4.5,2.393,4.5,4v2H50z M48,49c-1.717,0-4-0.415-4-4c0-3.936,5.757-3.999,6-4h4v2C54,47.959,50.737,49,48,49z"/>
	<path d="M64,0H0v64h64V0z M62,62H2V2h60V62z"/>
	<rect x="6" y="54" width="52" height="2"/>
</g>
</svg>
