<?xml version="1.0" encoding="utf-8"?>
<!-- Generator: Adobe Illustrator 16.0.0, SVG Export Plug-In . SVG Version: 6.00 Build 0)  -->
<!DOCTYPE svg PUBLIC "-//W3C//DTD SVG 1.1//EN" "http://www.w3.org/Graphics/SVG/1.1/DTD/svg11.dtd">
<svg version="1.1" id="Layer_1" xmlns="http://www.w3.org/2000/svg" xmlns:xlink="http://www.w3.org/1999/xlink" x="0px" y="0px"
	 width="64px" height="64px" viewBox="0 0 64 64" enable-background="new 0 0 64 64" xml:space="preserve">
<g>
	<rect x="22" y="28" width="42" height="2"/>
	<rect x="22" y="38" width="34" height="2"/>
	<rect x="22" y="48" width="42" height="2"/>
	<rect x="22" y="58" width="36" height="2"/>
	<polygon points="60,8 57,8 57,10 58,10 58,11 60,11 	"/>
	<rect x="45" y="8" width="4" height="2"/>
	<rect x="39" y="8" width="4" height="2"/>
	<rect x="51" y="8" width="4" height="2"/>
	<rect x="33" y="8" width="4" height="2"/>
	<rect x="27" y="8" width="4" height="2"/>
	<polygon points="24,10 25,10 25,8 22,8 22,11 24,11 	"/>
	<rect x="22" y="13" width="2" height="3"/>
	<polygon points="22,20 25,20 25,18 24,18 24,17 22,17 	"/>
	<rect x="27" y="18" width="4" height="2"/>
	<rect x="33" y="18" width="4" height="2"/>
	<rect x="39" y="18" width="4" height="2"/>
	<rect x="51" y="18" width="4" height="2"/>
	<rect x="45" y="18" width="4" height="2"/>
	<polygon points="57,20 60,20 60,17 58,17 58,18 57,18 	"/>
	<rect x="58" y="13" width="2" height="3"/>
	<polygon points="9.293,20.293 10.854,21.707 18,14.707 18,13.293 10.854,6.293 9.366,7.707 14.586,13 0,13 0,15 14.586,15 	"/>
</g>
</svg>
