<?xml version="1.0" encoding="utf-8"?>
<!-- Generator: Adobe Illustrator 16.0.0, SVG Export Plug-In . SVG Version: 6.00 Build 0)  -->
<!DOCTYPE svg PUBLIC "-//W3C//DTD SVG 1.1//EN" "http://www.w3.org/Graphics/SVG/1.1/DTD/svg11.dtd">
<svg version="1.1" id="Layer_1" xmlns="http://www.w3.org/2000/svg" xmlns:xlink="http://www.w3.org/1999/xlink" x="0px" y="0px"
	 width="64px" height="64px" viewBox="0 0 64 64" enable-background="new 0 0 64 64" xml:space="preserve">
<g>
	<path d="M27,0c-3.309,0-6,2.691-6,6v12.586L2,37.293v1.414L27.293,64h1.414l25.765-25.911l6.67-1.025l0.565-1.88L33.707,7H33V6
		C33,2.691,30.309,0,27,0z M23,6c0-2.206,1.794-4,4-4s4,1.794,4,4v2.586l-8,8V6z M58.879,35.293l-5.021,0.717l-0.565,0.283
		L28,61.586L4.414,38L31,11.414V27h2V9.414L58.879,35.293z"/>
</g>
</svg>
