<?xml version="1.0" encoding="utf-8"?>
<!-- Generator: Adobe Illustrator 16.0.0, SVG Export Plug-In . SVG Version: 6.00 Build 0)  -->
<!DOCTYPE svg PUBLIC "-//W3C//DTD SVG 1.1//EN" "http://www.w3.org/Graphics/SVG/1.1/DTD/svg11.dtd">
<svg version="1.1" id="Layer_1" xmlns="http://www.w3.org/2000/svg" xmlns:xlink="http://www.w3.org/1999/xlink" x="0px" y="0px"
	 width="64px" height="64px" viewBox="0 0 64 64" enable-background="new 0 0 64 64" xml:space="preserve">
<g>
	<path d="M9.944,35.328L12.146,29h10.709l2.201,6.328l1.889-0.656L18.711,11h-2.422L8.056,34.672L9.944,35.328z M17.5,13.606
		L22.159,27h-9.317L17.5,13.606z"/>
	<path d="M45.289,11l-8.233,23.672l1.889,0.656L41.146,29h10.709l2.201,6.328l1.889-0.656L47.711,11H45.289z M41.841,27L46.5,13.606
		L51.159,27H41.841z"/>
	<rect x="31" y="6" width="2" height="2"/>
	<rect x="31" y="22" width="2" height="4"/>
	<rect x="31" y="34" width="2" height="4"/>
	<rect x="31" y="28" width="2" height="4"/>
	<rect x="31" y="10" width="2" height="4"/>
	<rect x="31" y="16" width="2" height="4"/>
	<rect x="31" y="40" width="2" height="2"/>
	<rect x="3" y="6" width="2" height="2"/>
	<rect x="3" y="28" width="2" height="4"/>
	<rect x="3" y="10" width="2" height="4"/>
	<rect x="3" y="34" width="2" height="4"/>
	<rect x="3" y="22" width="2" height="4"/>
	<rect x="3" y="16" width="2" height="4"/>
	<rect x="3" y="40" width="2" height="2"/>
	<rect x="59" y="6" width="2" height="2"/>
	<rect x="59" y="22" width="2" height="4"/>
	<rect x="59" y="16" width="2" height="4"/>
	<rect x="59" y="28" width="2" height="4"/>
	<rect x="59" y="10" width="2" height="4"/>
	<rect x="59" y="34" width="2" height="4"/>
	<rect x="59" y="40" width="2" height="2"/>
	<polygon points="55.854,63.707 63,56.707 63,55.293 55.854,48.293 54.366,49.707 59.586,55 4.414,55 9.707,49.707 8.146,48.293 
		1,55.293 1,56.707 8.146,63.707 9.634,62.293 4.414,57 59.586,57 54.366,62.293 	"/>
</g>
</svg>
