<svg viewBox="-0.0546875 -25.6211 14.1367 12.4141" xmlns="http://www.w3.org/2000/svg"><path d="M7-14.58l2.73 1.36 4.34-9.17 -6.32-3.26 -.83 1.69 -.72-1.48 -6.29 3.25 4.1 8.94Zm.98-10.45l5.49 2.87 -3.97 8.33 -5.72-2.88Zm-1.97.21l.68 1.36 -3.5 6.97 3.28 1.64 -2.22 1.01 -3.78-8.13Zm2.1.24l.38.21 -.22.43 -.39-.22ZM1.32-21.3l-.22-.44 .38-.22 .21.43Zm8.03 7l-.39-.22 .21-.44 .38.21Zm-1.7-3.29l.05.1h.19q2.54 0 3.19-1.21 .27-.47.2-1.03 -.07-.57-.51-.81 -.63-.36-1.32-.11 0-.09-.06-.31 -.17-.44-.61-.69 -.25-.14-.61-.14 -.85 0-1.24.65 -.39.51-.14 1.44 .24.92.45 1.39 .2.46.34.65Zm-.28-3.29q.21-.44.84-.44 .21 0 .38.08 .27.16.41.46 .08.27-.06.54l.38.21q.16-.28.62-.28 .32 0 .6.13 .27.13.28.56 .01.42-.16.66 -.55.98-2.74.98 -.22-.39-.43-.875 -.21-.5-.31-1.11 -.1-.62.12-.98Z"/></svg>