<svg viewBox="1.75 -28 10.5 14" xmlns="http://www.w3.org/2000/svg"><path d="M1.75-14h10.5v-14H4.94l-3.2 3.19Zm10.06-.44H2.18v-10.07h3.06v-3.07h6.56Zm-9.33-10.5l2.32-2.33v2.32Zm2.1 4.15q0 1.47 2.26 2.78l.02.02 .1.05 .1-.06q1.03-.69 1.39-1.04 .875-.93.9-1.78 0-.55-.39-.93 -.39-.39-.93-.39 -.66 0-1.1.57 -.44-.58-1.1-.58 -.55 0-.93.38 -.39.38-.39.92Zm2.18 0h.43q0-.39.24-.63 .24-.25.62-.25t.24 1.09367e-302q.24.24.24.62 0 1.2-1.97 2.37 -1.97-1.18-1.97-2.38 0-.39.24-.63 .24-.25.62-.25t.24 5.21502e-310q.24.24.24.62Z"/></svg>