<svg viewBox="0 -28 14 14" xmlns="http://www.w3.org/2000/svg"><path d="M11.94-16.06q-2.06 2.05-4.95 2.05 -2.9 0-4.95-2.06 -2.06-2.06-2.06-4.95 0-2.9 2.05-4.95 2.05-2.06 4.94-2.06 2.89 0 4.94 2.05 2.05 2.05 2.05 4.94 0 2.89-2.06 4.94Zm-.31-9.6q-1.97-1.92-4.65-1.92 -2.68 0-4.65 1.91Q.41-23.71.41-21.03q0 2.67 1.91 4.64 1.96 1.91 4.64 1.91 2.67 0 4.64-1.92 1.91-1.97 1.91-4.65 0-2.68-1.92-4.65Zm-2.68 8.58H5.66v-5.91q0-.83.57-1.29 .57-.47 1.61-.47 .24 0 .46.04 .21.04.36.1 .15.06.27.15 .12.08.2.16 .08.08.12.15 .04.06.06.12l.02.05 -.42.16 -.03-.03q0-.03-.03-.07 -.03-.05-.07-.09 -.05-.05-.11-.1 -.07-.06-.16-.1 -.09-.05-.2-.07 -.11-.03-.25-.06t-.03 2.73417e-303Q6-24.37 6-23.06v5.46h2.84Zm-4.375-.44h1.31v.43H4.56Zm0-3.72h3.06v.43H4.56Z"/></svg>