<svg viewBox="-0.0820312 -25.1016 14.1641 12.1133" xmlns="http://www.w3.org/2000/svg"><path d="M11.53-12.99H2.45L-.1-20.87h14.16Zm-8.75-.44h8.42l2.26-7H.49Zm1.83-11.68l.38.16 -1.75 4.375 -.39-.17Zm4.75 0l1.75 4.375 -.39.16 -1.75-4.375Zm-1.97 8.83q-.44.43-1.07.43 -.63 0-1.09-.46 -.46-.46-.46-1.09 0-.63.45-1.09 .45-.46 1.08-.46 .62 0 1.08.45 .45.45.45 1.08 0 .62-.47 1.09Zm-.31-1.86q-.33-.33-.77-.33t.32 0q-.33.32-.33.76 0 .43.32.76 .32.32.76.32 .43 0 .76-.33 .32-.33.32-.77t-.77 2.73417e-303Zm.27 1.47l1.75 1.75 -.33.32 -1.75-1.75Z"/></svg>