<svg viewBox="1.96875 -28 10.0625 14" xmlns="http://www.w3.org/2000/svg"><path d="M8.91-27.125h-.83V-28H5.89v.875h-.83l-.17.65H1.93v12.46h10.06v-12.47H9.03Zm-3.5.43h.92v-.875h1.31v.875h.92l.32 1.31H5.05Zm6.17.65v11.59H2.39v-11.6h2.4l-.28 1.09h4.92l-.28-1.1Zm-2.41 5.25H7.8l-.63-1.62q-.06-.14-.2-.14t.13 2.73417e-303l-.55 1.61H4.77q-.17 0-.22.16 -.06.13.1.24l1.17.76 -.44 1.39q-.03.1.08.21 .16.1.24.02l1.23-.8 1.17.79q.02.02.13.02 .08 0 .1-.06 .13-.06.08-.22l-.39-1.4 1.17-.77q.16-.11.1-.25 -.06-.17-.22-.17Zm-1.43.9q-.17.1-.11.24l.27.95 -.83-.55q-.11-.06-.22 0l-.85.54 .3-.96q.05-.14-.11-.25l-.72-.47h.875q.13 0 .19-.14l.41-1.18 .46 1.17q.05.13.19.13h.82Z"/></svg>