<svg viewBox="0 -28 14 14" xmlns="http://www.w3.org/2000/svg"><path d="M7-21q.9 0 1.54-.65t-1.55 1.09367e-302q0-.875-.63-1.56 -.69-.63-1.56-.63 -.875 0-1.56.62 -.63.68-.63 1.55 0 .875.62 1.55 .68.62 1.55.62Zm0-3.94q.71 0 1.23.51 .51.51.51 1.23 0 .6-.39 1.06l-2.44-2.47q.49-.36 1.06-.36Zm-1.4.68l2.46 2.43q-.47.38-1.07.38 -.72 0-1.24-.52t-1.24.64q0-.58.35-1.07Zm6.2-3.75H2.17v4.62l-2.19.92v8.44h14v-8.45l-2.19-.93Zm-.44.43v6.5L6.98-18.35 2.61-21.09v-6.51Zm-9.19 6.23l-1.51-.96 1.5-.63ZM.42-14.46v-7.5l6.56 4.12 6.56-4.13v7.49Zm12.87-7.85l-1.51.95v-1.59Z"/></svg>