<svg viewBox="0 -28 14 14" xmlns="http://www.w3.org/2000/svg"><path d="M6.34-22.32q.51 0 .9-.31l1.55 1.55 .32-.33 -1.56-1.56q.3-.39.3-.91 0-.63-.46-1.09 -.46-.46-1.09-.46 -.63 0-1.09.45 -.46.45-.46 1.08 0 .62.45 1.08 .45.45 1.08.45Zm-.77-2.3q.32-.33.76-.33 .43 0 .76.32 .32.32.32.76 0 .43-.33.76 -.33.32-.77.32t-.33 2.72278e-303q-.33-.33-.33-.77t-.77 2.73417e-303Zm6.23-3.4H2.17v4.62l-2.19.92v8.44h14v-8.45l-2.19-.93Zm-.44.43v6.5L6.98-18.36 2.61-21.1v-6.51Zm-9.19 6.23l-1.51-.96 1.5-.63ZM.42-14.47v-7.5l6.56 4.12 6.56-4.13v7.49Zm12.87-7.85l-1.51.95v-1.59Z"/></svg>