<svg viewBox="3.28125 -28 7.4375 14" xmlns="http://www.w3.org/2000/svg"><path d="M10.71-28H3.27v14h7.43Zm-.44.43v1.31H3.7v-1.32Zm0 1.75v8.75H3.7v-8.75ZM3.7-14.445v-2.19h6.56v2.18Zm2.4-12.69h1.75v.43H6.1Zm1.33 11.12q-.2-.2-.47-.2 -.28 0-.47.19 -.2.19-.2.46t.46 2.72278e-303q.19.19.46.19t-.2 1.09367e-302q.19-.2.19-.47 0-.28-.2-.47Zm-.25.46q0 .21-.22.21t-.22 2.73417e-303q0-.22.21-.22t.21 2.73417e-303Zm-.875-5.04q.51 0 .9-.31l1.55 1.55 .32-.33 -1.56-1.56q.3-.39.3-.91 0-.63-.46-1.09 -.46-.46-1.09-.46 -.63 0-1.09.45 -.46.45-.46 1.08 0 .62.45 1.08 .45.45 1.08.45Zm-.77-2.3q.32-.33.76-.33 .43 0 .76.32 .32.32.32.76 0 .43-.33.76 -.33.32-.77.32t-.33 0q-.33-.33-.33-.77t-.77 4.62753e+92Z"/></svg>