<svg viewBox="3.28125 -28 7.4375 14" xmlns="http://www.w3.org/2000/svg"><path d="M10.71-28H3.27v14h7.43Zm-.44.43v1.31H3.7v-1.32Zm0 1.75v8.75H3.7v-8.75ZM3.7-14.445v-2.19h6.56v2.18Zm2.4-12.69h1.75v.43H6.1Zm1.33 11.12q-.2-.2-.47-.2 -.28 0-.47.19 -.2.19-.2.46t.46 1.3182e-309q.19.19.46.19t-.2 1.3182e-309q.19-.2.19-.47 0-.28-.2-.47Zm-.25.46q0 .21-.22.21t-.22 1.3182e-309q0-.22.21-.22t.21 2.73417e-303Zm-.33-3.75l.1.05 .1-.06q1.03-.69 1.39-1.04 .875-.93.9-1.78 0-.55-.39-.93 -.39-.39-.93-.39 -.66 0-1.1.57 -.44-.58-1.1-.58 -.55 0-.93.38 -.39.38-.39.92 0 1.47 2.26 2.78Zm-1.62-3.45q.24-.25.62-.25t.24 1.3182e-309q.24.24.24.62h.43q0-.39.24-.63 .24-.25.62-.25t.24 1.3182e-309q.24.24.24.62 0 1.2-1.97 2.37 -1.97-1.18-1.97-2.38 0-.39.24-.63Z"/></svg>