<svg viewBox="0 -28 14 14" xmlns="http://www.w3.org/2000/svg"><path d="M13.15-27.16q-.83-.85-2-.85 -1.18 0-2.01.83 -.84.83-.84 2 0 .875.49 1.58l-4.74 3.03q-.69-.69-1.67-.69 -1.02 0-1.71.69 -.7.69-.7 1.7t1.7 4.62624e+92q.69.69 1.7.69 1.42 0 2.1-1.24l4.01 1.58v.08q0 .82.57 1.39t.57-.7q.82 0 1.39-.58t-1.4 0q0-.83-.58-1.4 -.58-.58-1.4-.58 -.66 0-1.19.41 -.54.41-.7 1.03l-3.94-1.56q.13-.42.13-.77 0-.8-.47-1.4l4.73-3.01q.84.9 2.07.9 1.17 0 2-.84 .83-.84.83-2.01 0-1.18-.85-2ZM9.4-17.05q.46-.47 1.09-.47 .62 0 1.08.45 .45.45.45 1.08 0 .62-.46 1.08 -.46.45-1.09.45 -.63 0-1.09-.46 -.46-.46-.46-1.09 0-.63.43-1.07Zm-5.61-.39q-.58.57-1.4.57 -.83 0-1.4-.58 -.58-.58-.58-1.4 0-.83.57-1.4 .57-.58 1.39-.58t.57 2.73417e-303q.57.57.57 1.39t1.39.82Zm9.05-6.02q-.69.68-1.7.68 -1.02 0-1.71-.7 -.7-.7-.7-1.71 0-1.02.69-1.71 .69-.7 1.7-.7t.69.57q.69.69.69 1.7t1.72 4.06094e-86Z"/></svg>