<svg viewBox="0 -28 14 14" xmlns="http://www.w3.org/2000/svg"><path d="M4.83-21.03q.24.24.62.24t-.25.24q.24-.25.24-.63v-2.22l1.75-.36v1.36Q7.78-23 7.62-23q-.39 0-.63.24 -.25.24-.25.62t.62.24 .24 0q.38 0 .62-.25t-.63.38v-3.56l-2.625.51v2.7q-.28-.11-.44-.11 -.39 0-.63.24 -.25.24-.25.62t.62 0Zm3.25-1.07q0 .43-.44.43t-.44 0q0-.44.43-.44t.43.43Zm0-3.01v.41l-1.75.35v-.42Zm-3.07 3.44q0-.44.43-.44t.43 0q0 .43-.44.43t-.44 2.7268e-310Zm6.78-6.35H2.16v4.62l-2.19.92v8.44h14v-8.45l-2.19-.93Zm-.44.43v6.5l-4.375 2.73L2.6-21.1v-6.51Zm-9.19 6.23l-1.51-.96 1.5-.63ZM.41-14.47v-7.5l6.56 4.12 6.56-4.13v7.49Zm12.87-7.85l-1.51.95v-1.59Z"/></svg>