<svg viewBox="2.1875 -28 9.625 14" xmlns="http://www.w3.org/2000/svg"><path d="M4.83-19.28q.24.24.62.24t-.25 2.73417e-303q.24-.25.24-.63v-2.22l1.75-.36v1.36q-.28-.11-.44-.11 -.39 0-.63.24 -.25.24-.25.62t.62.24 .24 2.89632e-57q.38 0 .62-.25t-.63 2.73417e-303v-3.56l-2.625.51v2.7q-.28-.11-.44-.11 -.39 0-.63.24 -.25.24-.25.62t.62 2.73417e-303Zm3.25-1.07q0 .43-.44.43t-.44 2.73417e-303q0-.44.43-.44t.43 1.79187e-298Zm0-3.01v.41l-1.75.35v-.42Zm-3.07 3.44q0-.44.43-.44t.43 2.73417e-303q0 .43-.44.43t-.44 1.3182e-309Zm6.78-8.1H2.16v14h9.625Zm-.44.43v1.31H2.6v-1.32Zm0 1.75v8.75H2.6v-8.75ZM2.6-14.47v-2.19h8.75v2.18Zm3.5-12.69h1.75v.43H6.1Zm1.33 11.12q-.2-.2-.47-.2 -.28 0-.47.19 -.2.19-.2.46t.46 2.6886e-303q.19.19.46.19t-.2-.39q.19-.2.19-.47 0-.28-.2-.47Zm-.25.46q0 .21-.22.21t-.22 nanq0-.22.21-.22t.21 7.23Z"/></svg>