<svg viewBox="1.96875 -28 10.0625 14" xmlns="http://www.w3.org/2000/svg"><path d="M8.55-21.69q-.69-.63-1.56-.63 -.875 0-1.56.62 -.63.68-.63 1.55 0 .875.62 1.55 .68.62 1.55.62 .9 0 1.54-.65t-1.55 2.73417e-303q0-.875-.63-1.56Zm-1.56 3.3q-.72 0-1.24-.52t-1.24 2.73417e-303q0-.58.35-1.07l2.46 2.43q-.47.38-1.07.38Zm1.36-.69l-2.44-2.47q.49-.36 1.06-.36 .71 0 1.23.51 .51.51.51 1.23 0 .6-.39 1.06Zm.54-8.07h-.83v-.875H5.87v.875h-.83l-.17.65H1.91v12.46h10.06v-12.47H9.01Zm-3.5.43h.92v-.875h1.31v.875h.92l.32 1.31H5.03Zm6.17.65v11.59H2.37v-11.6h2.4l-.28 1.09h4.92l-.28-1.1Z"/></svg>