<svg viewBox="3.28125 -28 7.4375 14" xmlns="http://www.w3.org/2000/svg"><path d="M10.71-28H3.27v14h7.43Zm-.44.43v1.31H3.7v-1.32Zm0 1.75v8.75H3.7v-8.75ZM3.7-14.445v-2.19h6.56v2.18Zm2.4-12.69h1.75v.43H6.1Zm1.33 11.12q-.2-.2-.47-.2 -.28 0-.47.19 -.2.19-.2.46t.46 1.74956e+194q.19.19.46.19t-.2 1.3182e-309q.19-.2.19-.47 0-.28-.2-.47Zm-.25.46q0 .21-.22.21t-.22 1.3182e-309q0-.22.21-.22t.21 2.73417e-303Zm-1.78-4.35q.68.62 1.55.62 .9 0 1.54-.65t-1.55-.28q0-.875-.63-1.56 -.69-.63-1.56-.63 -.875 0-1.56.62 -.63.68-.63 1.55 0 .875.62 1.55Zm1.55-3.31q.71 0 1.23.51 .51.51.51 1.23 0 .6-.39 1.06l-2.44-2.47q.49-.36 1.06-.36Zm-1.4.68l2.46 2.43q-.47.38-1.07.38 -.72 0-1.24-.52t-1.24 1.3182e-309q0-.58.35-1.07Z"/></svg>