<svg viewBox="0 -25.6211 14 12.4961" xmlns="http://www.w3.org/2000/svg"><path d="M0-25.63v9.625h3.71v2.87l3.36-2.88h6.91v-9.625Zm13.56 9.18H6.91l-2.77 2.37v-2.38H.42v-8.75h13.125Zm-8.73-2.22q.24.24.62.24t-.25 2.89083e-310q.24-.25.24-.63v-2.22l1.75-.36v1.36q-.28-.11-.44-.11 -.39 0-.63.24 -.25.24-.25.62t.62 1.3182e-309q.24.24.62.24t-.25 1.3182e-309q.24-.25.24-.63v-3.56l-2.625.51v2.7q-.28-.11-.44-.11 -.39 0-.63.24 -.25.24-.25.62t.62 2.73417e-303Zm3.25-1.07q0 .43-.44.43t-.44 1.3182e-309q0-.44.43-.44t.43 0Zm0-3.01v.41l-1.75.35v-.42Zm-3.07 3.44q0-.44.43-.44t.43 2.73417e-303q0 .43-.44.43t-.44 1.3182e-309Z"/></svg>