<svg viewBox="2.1875 -28 9.625 14" xmlns="http://www.w3.org/2000/svg"><path d="M9.4-19.69v-3.5H4.58v3.5Zm-4.375-.58l1.28-1.29 .875 1.09 .46-.47 .98.79H5.01Zm3.06-2.06q0-.44.43-.44t.43 1.79187e-298q0 .43-.44.43t-.44 2.73417e-303Zm-.33-.44q-.11.27-.11.43 0 .38.24.62t.24 5.21502e-310q.16 0 .43-.11v1.14l-1.32-1.13 -.42.41 -.875-1.1 -1.34 1.33v-1.89Zm4.04-5.25H2.17v14h9.625Zm-.44.43v1.31H2.6v-1.32Zm0 1.75v8.75H2.6v-8.75ZM2.6-14.465v-2.19h8.75v2.18Zm3.5-12.69h1.75v.43H6.1Zm1.33 11.12q-.2-.2-.47-.2 -.28 0-.47.19 -.2.19-.2.46t.46 2.73417e-303q.19.19.46.19t-.2 2.73417e-303q.19-.2.19-.47 0-.28-.2-.47Zm-.25.46q0 .21-.22.21t-.22 1.3182e-309q0-.22.21-.22t.21 1.3182e-309Z"/></svg>