<svg viewBox="3.28125 -28 7.4375 14" xmlns="http://www.w3.org/2000/svg"><path d="M10.71-28H3.27v14h7.43Zm-.44.43v1.31H3.7v-1.32Zm0 1.75v8.75H3.7v-8.75ZM3.7-14.445v-2.19h6.56v2.18Zm2.4-12.69h1.75v.43H6.1Zm1.33 11.12q-.2-.2-.47-.2 -.28 0-.47.19 -.2.19-.2.46t.46 1.30217e+107q.19.19.46.19t-.2 2.73417e-303q.19-.2.19-.47 0-.28-.2-.47Zm-.25.46q0 .21-.22.21t-.22 1.09367e-302q0-.22.21-.22t.21 2.73417e-303Zm-1.21-3.75l3.47-3.48 -1.18-1.18 -3.48 3.47 -.31 1.47Zm2.87-3.48l-.36.35 -.58-.58 .35-.36Zm-3.67 2.51l2.43-2.44 .57.57 -2.44 2.43 -.72.13Z"/></svg>