<?xml version="1.0" encoding="utf-8"?>
<!-- Generator: Adobe Illustrator 16.0.0, SVG Export Plug-In . SVG Version: 6.00 Build 0)  -->
<!DOCTYPE svg PUBLIC "-//W3C//DTD SVG 1.1//EN" "http://www.w3.org/Graphics/SVG/1.1/DTD/svg11.dtd">
<svg version="1.1" id="Layer_1" xmlns="http://www.w3.org/2000/svg" xmlns:xlink="http://www.w3.org/1999/xlink" x="0px" y="0px"
	 width="64px" height="64px" viewBox="0 0 64 64" enable-background="new 0 0 64 64" xml:space="preserve">
<g>
	<path d="M11,51h44c5.131,0,9-3.869,9-9c0-4.53-3.182-9.361-8.021-9.942C55.48,20.736,46.006,12,34,12
		c-10.599,0-19.63,6.68-21.811,16H11C5.038,28,0,33.495,0,40C0,46.271,4.729,51,11,51z M11,30h2.83l0.153-0.815
		C15.637,20.386,24.055,14,34,14c11.215,0,20,8.346,20,19v1h1c4.125,0,7,4.216,7,8c0,3.991-3.009,7-7,7H11c-5.131,0-9-3.869-9-9
		C2,34.58,6.122,30,11,30z"/>
</g>
</svg>
