<?xml version="1.0" encoding="utf-8"?>
<!-- Generator: Adobe Illustrator 16.0.0, SVG Export Plug-In . SVG Version: 6.00 Build 0)  -->
<!DOCTYPE svg PUBLIC "-//W3C//DTD SVG 1.1//EN" "http://www.w3.org/Graphics/SVG/1.1/DTD/svg11.dtd">
<svg version="1.1" id="Layer_1" xmlns="http://www.w3.org/2000/svg" xmlns:xlink="http://www.w3.org/1999/xlink" x="0px" y="0px"
	 width="64px" height="64px" viewBox="0 0 64 64" enable-background="new 0 0 64 64" xml:space="preserve">
<g>
	<path d="M32-0.001c-8.547,0-16.583,3.329-22.627,9.373c-12.477,12.477-12.477,32.778,0,45.255C15.417,60.671,23.453,64,32,64
		s16.583-3.329,22.627-9.373c12.477-12.477,12.477-32.778,0-45.255C48.583,3.328,40.547-0.001,32-0.001z M53.213,53.213
		C47.546,58.879,40.013,62,32,62s-15.546-3.121-21.213-8.787c-11.697-11.697-11.697-30.729,0-42.427
		C16.454,5.12,23.987,1.999,32,1.999s15.546,3.121,21.213,8.787C64.91,22.483,64.91,41.516,53.213,53.213z"/>
	<path d="M32,36.999c1.335,0,2.591-0.52,3.535-1.464c1.95-1.949,1.95-5.122,0-7.071C34.591,27.52,33.335,27,32,27
		s-2.591,0.52-3.535,1.464c-1.95,1.949-1.95,5.122,0,7.071C29.409,36.479,30.665,36.999,32,36.999z M29.879,29.878
		C30.445,29.312,31.199,29,32,29s1.555,0.312,2.121,0.878c1.17,1.17,1.17,3.073,0,4.243c-1.133,1.133-3.109,1.133-4.242,0
		C28.709,32.951,28.709,31.048,29.879,29.878z"/>
	<path d="M22.808,22.807c-5.068,5.069-5.068,13.316,0,18.385C25.263,43.647,28.527,44.999,32,45c0,0,0,0,0,0
		c3.472,0,6.737-1.353,9.192-3.809c4.851-4.851,8.632-25.148,8.791-26.011l0.263-1.427l-1.427,0.263
		C47.958,14.175,27.658,17.956,22.808,22.807z M39.778,39.777C37.701,41.855,34.938,43,32,43s-5.701-1.145-7.778-3.223
		c-4.289-4.288-4.289-11.268,0-15.557c3.388-3.388,16.985-6.658,23.518-7.96C46.438,22.793,43.167,36.389,39.778,39.777z"/>
</g>
</svg>
