<?xml version="1.0" encoding="utf-8"?>
<!-- Generator: Adobe Illustrator 16.0.0, SVG Export Plug-In . SVG Version: 6.00 Build 0)  -->
<!DOCTYPE svg PUBLIC "-//W3C//DTD SVG 1.1//EN" "http://www.w3.org/Graphics/SVG/1.1/DTD/svg11.dtd">
<svg version="1.1" id="Layer_1" xmlns="http://www.w3.org/2000/svg" xmlns:xlink="http://www.w3.org/1999/xlink" x="0px" y="0px"
	 width="64px" height="64px" viewBox="0 0 64 64" enable-background="new 0 0 64 64" xml:space="preserve">
<g>
	<path d="M45,62c-4.411,0-8-3.589-8-8c0-7.645,10.361-25.973,10.459-26.145c5.158-8.8,2.196-20.156-6.604-25.314
		C36.592,0.04,31.611-0.646,26.83,0.599c-4.781,1.248-8.791,4.282-11.29,8.546c-4.452,7.596-2.844,17.087,3.335,22.861
		C13.419,32.074,9,36.528,9,42c0,5.514,4.486,10,10,10s10-4.486,10-10c0-4.062-2.439-7.562-5.928-9.125l0.083-0.141
		c-7.849-4.602-10.491-14.729-5.89-22.578c2.229-3.803,5.805-6.51,10.069-7.622c4.265-1.114,8.708-0.496,12.51,1.731
		c7.849,4.602,10.491,14.729,5.883,22.59C45.289,27.627,35,45.83,35,54c0,5.514,4.486,10,10,10c3.824,0,7.257-2.129,8.96-5.555
		l-1.791-0.891C50.806,60.297,48.059,62,45,62z M27,42c0,4.411-3.589,8-8,8s-8-3.589-8-8s3.589-8,8-8S27,37.589,27,42z"/>
</g>
</svg>
