<?xml version="1.0" encoding="utf-8"?>
<!-- Generator: Adobe Illustrator 16.0.0, SVG Export Plug-In . SVG Version: 6.00 Build 0)  -->
<!DOCTYPE svg PUBLIC "-//W3C//DTD SVG 1.1//EN" "http://www.w3.org/Graphics/SVG/1.1/DTD/svg11.dtd">
<svg version="1.1" id="Layer_1" xmlns="http://www.w3.org/2000/svg" xmlns:xlink="http://www.w3.org/1999/xlink" x="0px" y="0px"
	 width="64px" height="64px" viewBox="0 0 64 64" enable-background="new 0 0 64 64" xml:space="preserve">
<g>
	<path d="M48,15c0,0.09-0.183,9-16,9c-15.705,0-15.995-8.639-16.003-9.083C15.624,10.449,11.802,2,0,2v2
		c12.878,0,13.964,10.633,14,11c0,0.117,0.027,2.899,2.363,5.647c1.962,2.31,4.889,3.864,8.707,4.68C18.015,28.104,13,34.971,13,43
		c0,10.477,8.523,19,19,19s19-8.523,19-19c0-8.029-5.015-14.896-12.07-17.673c3.818-0.815,6.744-2.37,8.707-4.68
		c2.336-2.748,2.363-5.53,2.36-5.564c0.002-0.027,0.25-2.774,2.085-5.528C54.539,5.869,58.549,4,64,4V2
		C52.198,2,48.376,10.449,48,15z M49,43c0,9.374-7.626,17-17,17s-17-7.626-17-17s7.626-17,17-17S49,33.626,49,43z"/>
</g>
</svg>
