<?xml version="1.0" encoding="utf-8"?>
<!-- Generator: Adobe Illustrator 16.0.0, SVG Export Plug-In . SVG Version: 6.00 Build 0)  -->
<!DOCTYPE svg PUBLIC "-//W3C//DTD SVG 1.1//EN" "http://www.w3.org/Graphics/SVG/1.1/DTD/svg11.dtd">
<svg version="1.1" id="Layer_1" xmlns="http://www.w3.org/2000/svg" xmlns:xlink="http://www.w3.org/1999/xlink" x="0px" y="0px"
	 width="64px" height="64px" viewBox="0 0 64 64" enable-background="new 0 0 64 64" xml:space="preserve">
<path fill="none" stroke="#000000" stroke-width="2" stroke-miterlimit="10" d="M56,45c4.19,0,7-2.81,7-7c0-4.189-2.81-9-7-9
	c0-10.475-9.525-18-20-18c-9.271,0-17.348,6.211-19,15c0,0-1.232,0-2,0c-5.238,0-9,4.762-9,10s3.762,9,9,9H56z"/>
<path fill="none" stroke="#000000" stroke-width="2" stroke-miterlimit="10" d="M29.999,11.752C27.793,10.028,25.017,9,22,9
	C14.82,9,9,14.82,9,22c0,2.577,0.707,3.979,2,6"/>
<line fill="none" stroke="#000000" stroke-width="2" stroke-miterlimit="10" x1="6" y1="22" x2="0" y2="22"/>
<line fill="none" stroke="#000000" stroke-width="2" stroke-miterlimit="10" x1="22" y1="6" x2="22" y2="0"/>
<line fill="none" stroke="#000000" stroke-width="2" stroke-miterlimit="10" x1="10" y1="10" x2="4" y2="4"/>
<line fill="none" stroke="#000000" stroke-width="2" stroke-miterlimit="10" x1="20" y1="48" x2="16" y2="57"/>
<line fill="none" stroke="#000000" stroke-width="2" stroke-miterlimit="10" x1="30" y1="48" x2="26" y2="57"/>
<line fill="none" stroke="#000000" stroke-width="2" stroke-miterlimit="10" x1="40" y1="48" x2="36" y2="57"/>
<line fill="none" stroke="#000000" stroke-width="2" stroke-miterlimit="10" x1="50" y1="48" x2="46" y2="57"/>
<line fill="none" stroke="#000000" stroke-width="2" stroke-miterlimit="10" x1="15" y1="60" x2="14" y2="62"/>
<line fill="none" stroke="#000000" stroke-width="2" stroke-miterlimit="10" x1="25" y1="60" x2="24" y2="62"/>
<line fill="none" stroke="#000000" stroke-width="2" stroke-miterlimit="10" x1="35" y1="60" x2="34" y2="62"/>
<line fill="none" stroke="#000000" stroke-width="2" stroke-miterlimit="10" x1="45" y1="60" x2="44" y2="62"/>
</svg>
