<?xml version="1.0" encoding="utf-8"?>
<!-- Generator: Adobe Illustrator 16.0.0, SVG Export Plug-In . SVG Version: 6.00 Build 0)  -->
<!DOCTYPE svg PUBLIC "-//W3C//DTD SVG 1.1//EN" "http://www.w3.org/Graphics/SVG/1.1/DTD/svg11.dtd">
<svg version="1.1" id="Layer_1" xmlns="http://www.w3.org/2000/svg" xmlns:xlink="http://www.w3.org/1999/xlink" x="0px" y="0px"
	 width="64px" height="64px" viewBox="0 0 64 64" enable-background="new 0 0 64 64" xml:space="preserve">
<g>
	<path d="M51.293,53.707L54.586,57H52c-4.824,0-4.996-4.491-5-5V12c0-4.15-1.881-12-9-12c-4.434,0-6.834,3.045-8.016,6.344
		C28.791,3.045,26.391,0,22,0c-4.509,0-6.913,3.211-8.072,6.612C12.719,3.668,10.333,1,6,1v2c6.896,0,6.999,8.634,7,9.001V52h2
		V12.009C15.004,11.6,15.174,2,22,2s6.996,9.6,7,10.009V52h2V12.001C31.001,11.593,31.1,2,38,2s6.999,9.593,7,10v40
		c0,2.421,1.463,7,7,7h2.586l-3.293,3.293l1.561,1.414l5.146-5v-1.414l-5.146-5L51.293,53.707z"/>
</g>
</svg>
