<?xml version="1.0" encoding="utf-8"?>
<!-- Generator: Adobe Illustrator 16.0.0, SVG Export Plug-In . SVG Version: 6.00 Build 0)  -->
<!DOCTYPE svg PUBLIC "-//W3C//DTD SVG 1.1//EN" "http://www.w3.org/Graphics/SVG/1.1/DTD/svg11.dtd">
<svg version="1.1" id="Layer_1" xmlns="http://www.w3.org/2000/svg" xmlns:xlink="http://www.w3.org/1999/xlink" x="0px" y="0px"
	 width="64px" height="64px" viewBox="0 0 64 64" enable-background="new 0 0 64 64" xml:space="preserve">
<g>
	<path d="M56.976,28.073C56.439,18.025,47.236,10,36,10c-1.959,0-3.854,0.275-5.657,0.769C27.916,8.962,25.042,8,22,8
		C14.28,8,8,14.28,8,22c0,2.164,0.487,3.615,1.247,5.018C6.683,29.012,5,32.291,5,36c0,5.794,4.206,10,10,10v-2c-4.71,0-8-3.29-8-8
		c0-4.962,3.589-9,8-9h2.829l0.153-0.815C19.528,17.965,27.105,12,36,12c10.477,0,19,7.626,19,17v1h1c3.536,0,6,4.216,6,8
		c0,3.645-2.355,6-6,6v2c4.71,0,8-3.29,8-8C64,33.507,61.217,28.718,56.976,28.073z M16.189,25H15c-1.442,0-2.811,0.344-4.05,0.951
		C10.292,24.7,10,23.618,10,22c0-6.617,5.383-12,12-12c2.119,0,4.143,0.547,5.943,1.58C22.103,13.964,17.632,18.866,16.189,25z"/>
	<rect y="21" width="6" height="2"/>
	<rect x="21" width="2" height="6"/>
	<rect x="2.757" y="6" transform="matrix(0.7071 0.7071 -0.7071 0.7071 7 -2.8995)" width="8.485" height="2"/>
	<path d="M32,62c-2.206,0-4-1.794-4-4h-2c0,3.309,2.691,6,6,6s6-2.691,6-6s-2.691-6-6-6H2v2h30c2.206,0,4,1.794,4,4S34.206,62,32,62
		z"/>
	<path d="M45,48H4v2h41c3.309,0,6-2.691,6-6s-2.691-6-6-6s-6,2.691-6,6h2c0-2.206,1.794-4,4-4s4,1.794,4,4S47.206,48,45,48z"/>
</g>
</svg>
