<?xml version="1.0" encoding="utf-8"?>
<!-- Generator: Adobe Illustrator 16.0.0, SVG Export Plug-In . SVG Version: 6.00 Build 0)  -->
<!DOCTYPE svg PUBLIC "-//W3C//DTD SVG 1.1//EN" "http://www.w3.org/Graphics/SVG/1.1/DTD/svg11.dtd">
<svg version="1.1" id="Layer_1" xmlns="http://www.w3.org/2000/svg" xmlns:xlink="http://www.w3.org/1999/xlink" x="0px" y="0px"
	 width="64px" height="64px" viewBox="0 0 64 64" enable-background="new 0 0 64 64" xml:space="preserve">
<g>
	<path d="M11,41v-2c-5.131,0-9-3.869-9-9c0-5.42,4.122-10,9-10h2.83l0.153-0.815C15.637,10.386,24.055,4,34,4
		c11.215,0,20,8.346,20,19v1h1c4.125,0,7,4.216,7,8c0,3.991-3.009,7-7,7v2c5.131,0,9-3.869,9-9c0-4.53-3.182-9.361-8.021-9.942
		C55.48,10.736,46.006,2,34,2C23.401,2,14.37,8.68,12.189,18H11C5.038,18,0,23.495,0,30C0,36.271,4.729,41,11,41z"/>
	<path d="M32,62c-2.206,0-4-1.794-4-4h-2c0,3.309,2.691,6,6,6s6-2.691,6-6s-2.691-6-6-6H2v2h30c2.206,0,4,1.794,4,4S34.206,62,32,62
		z"/>
	<path d="M51,42c0-3.309-2.691-6-6-6s-6,2.691-6,6h2c0-2.206,1.794-4,4-4s4,1.794,4,4s-1.794,4-4,4H4v2h41
		C48.309,48,51,45.309,51,42z"/>
</g>
</svg>
