<?xml version="1.0" encoding="utf-8"?>
<!-- Generator: Adobe Illustrator 16.0.0, SVG Export Plug-In . SVG Version: 6.00 Build 0)  -->
<!DOCTYPE svg PUBLIC "-//W3C//DTD SVG 1.1//EN" "http://www.w3.org/Graphics/SVG/1.1/DTD/svg11.dtd">
<svg version="1.1" id="Layer_1" xmlns="http://www.w3.org/2000/svg" xmlns:xlink="http://www.w3.org/1999/xlink" x="0px" y="0px"
	 width="64px" height="64px" viewBox="0 0 64 64" enable-background="new 0 0 64 64" xml:space="preserve">
<g>
	<path d="M4.349,18.241l0.009,0.011C1.716,20.263,0,23.431,0,27c0,6.065,4.935,11,11,11s11-4.935,11-11
		c0-5.2-3.631-9.559-8.488-10.699C17.822,15.078,24.134,14,33,14c14.531,0,30.312,9.75,30.47,9.848l1.06-1.695
		C63.867,21.737,48.113,12,33,12C11.873,12,4.646,17.986,4.349,18.241z M20,27c0,4.963-4.038,9-9,9s-9-4.037-9-9s4.038-9,9-9
		S20,22.037,20,27z"/>
	<path d="M53,26c-6.065,0-11,4.935-11,11c0,5.2,3.631,9.559,8.488,10.699C46.178,48.922,39.866,50,31,50
		c-14.531,0-30.312-9.75-30.47-9.848l-1.06,1.695C0.133,42.263,15.887,52,31,52c21.127,0,28.354-5.986,28.651-6.241l-0.009-0.011
		C62.284,43.737,64,40.569,64,37C64,30.935,59.065,26,53,26z M53,46c-4.962,0-9-4.037-9-9s4.038-9,9-9s9,4.037,9,9S57.962,46,53,46z
		"/>
</g>
</svg>
