<?xml version="1.0" encoding="utf-8"?>
<!-- Generator: Adobe Illustrator 16.0.0, SVG Export Plug-In . SVG Version: 6.00 Build 0)  -->
<!DOCTYPE svg PUBLIC "-//W3C//DTD SVG 1.1//EN" "http://www.w3.org/Graphics/SVG/1.1/DTD/svg11.dtd">
<svg version="1.1" id="Layer_1" xmlns="http://www.w3.org/2000/svg" xmlns:xlink="http://www.w3.org/1999/xlink" x="0px" y="0px"
	 width="64px" height="64px" viewBox="0 0 64 64" enable-background="new 0 0 64 64" xml:space="preserve">
<g>
	<path d="M52,37c0-11.028-8.972-20-20-20c-0.056,0-0.11,0.003-0.191,0.009l-1.514,0.025l0.617,1.382
		C31.634,20.033,32,21.744,32,23.5C32,30.393,26.393,36,19.5,36c-2.074,0-4.128-0.519-5.942-1.501l-1.343-0.727l-0.129,1.521
		C12.043,35.793,12,36.386,12,37c0,3.145,0.743,6.221,2.146,9H0v2h64v-2H49.854C51.257,43.221,52,40.145,52,37z M14,37
		c0-0.027,0-0.055,0-0.082C15.737,37.629,17.612,38,19.5,38C27.495,38,34,31.495,34,23.5c0-1.522-0.237-3.015-0.705-4.454
		C42.618,19.712,50,27.511,50,37c0,3.176-0.842,6.272-2.42,9H16.421C14.842,43.272,14,40.175,14,37z"/>
	<polygon points="38.293,60.707 39.707,59.146 32.707,52 31.293,52 24.293,59.146 25.707,60.634 32,54.377 	"/>
</g>
</svg>
