<?xml version="1.0" encoding="utf-8"?>
<!-- Generator: Adobe Illustrator 16.0.0, SVG Export Plug-In . SVG Version: 6.00 Build 0)  -->
<!DOCTYPE svg PUBLIC "-//W3C//DTD SVG 1.1//EN" "http://www.w3.org/Graphics/SVG/1.1/DTD/svg11.dtd">
<svg version="1.1" id="Layer_1" xmlns="http://www.w3.org/2000/svg" xmlns:xlink="http://www.w3.org/1999/xlink" x="0px" y="0px"
	 width="64px" height="64px" viewBox="0 0 64 64" enable-background="new 0 0 64 64" xml:space="preserve">
<g>
	<path d="M56.975,28.073C56.439,18.025,47.236,10,36,10c-1.959,0-3.854,0.275-5.658,0.769C27.917,8.962,25.042,8,22,8
		C14.28,8,8,14.28,8,22c0,2.164,0.487,3.615,1.247,5.018C6.683,29.011,5,32.291,5,36c0,5.794,4.206,10,10,10h41c4.71,0,8-3.29,8-8
		C64,33.507,61.217,28.718,56.975,28.073z M10,22c0-6.617,5.383-12,12-12c2.12,0,4.143,0.547,5.943,1.58
		c-5.84,2.384-10.312,7.286-11.754,13.42H15c-1.442,0-2.811,0.344-4.05,0.951C10.292,24.7,10,23.618,10,22z M56,44H15
		c-4.71,0-8-3.29-8-8c0-4.962,3.589-9,8-9h2.83l0.153-0.815C19.528,17.965,27.105,12,36,12c10.477,0,19,7.626,19,17v1h1
		c3.536,0,6,4.216,6,8C62,41.645,59.645,44,56,44z"/>
	<rect y="21" width="6" height="2"/>
	<rect x="21" width="2" height="6"/>
	<rect x="2.757" y="6" transform="matrix(0.7071 0.7071 -0.7071 0.7071 7 -2.8995)" width="8.485" height="2"/>
	<rect x="19" y="48" width="2" height="14"/>
	<rect x="29" y="48" width="2" height="14"/>
	<rect x="39" y="48" width="2" height="14"/>
	<rect x="49" y="48" width="2" height="14"/>
</g>
</svg>
