<?xml version="1.0" encoding="utf-8"?>
<!-- Generator: Adobe Illustrator 16.0.0, SVG Export Plug-In . SVG Version: 6.00 Build 0)  -->
<!DOCTYPE svg PUBLIC "-//W3C//DTD SVG 1.1//EN" "http://www.w3.org/Graphics/SVG/1.1/DTD/svg11.dtd">
<svg version="1.1" id="Layer_1" xmlns="http://www.w3.org/2000/svg" xmlns:xlink="http://www.w3.org/1999/xlink" x="0px" y="0px"
	 width="64px" height="64px" viewBox="0 0 64 64" enable-background="new 0 0 64 64" xml:space="preserve">
<g>
	<path d="M23.202,62.761l0.055,0.206c0.109-0.029,0.211-0.07,0.319-0.1C26.263,63.601,29.085,64,32,64c17.645,0,32-14.355,32-32
		S49.645,0,32,0c-2.916,0-5.739,0.399-8.425,1.134c-0.108-0.03-0.21-0.071-0.318-0.1l-0.055,0.205C9.823,5.072,0,17.406,0,32
		S9.823,58.928,23.202,62.761z M2,32c0-0.673,0.03-1.338,0.074-2h41.85C43.963,30.662,44,31.326,44,32s-0.037,1.338-0.076,2H2.074
		C2.03,33.338,2,32.673,2,32z M29.894,6c1.894,1.133,3.642,2.468,5.204,4H11.632c1.649-1.528,3.471-2.87,5.43-4H29.894z M21.249,4
		c0.754-0.29,1.522-0.551,2.303-0.781c0.771,0.23,1.526,0.49,2.264,0.781H21.249z M36.935,12c1.046,1.244,1.985,2.582,2.817,4H6.642
		c0.897-1.417,1.907-2.756,3.022-4H36.935z M40.827,18c0.626,1.283,1.177,2.614,1.625,4H3.72c0.49-1.383,1.079-2.719,1.758-4H40.827
		z M29.894,58H17.062c-1.959-1.13-3.781-2.472-5.43-4h23.466C33.536,55.532,31.788,56.867,29.894,58z M25.814,60
		c-0.738,0.291-1.492,0.55-2.263,0.78c-0.781-0.229-1.549-0.49-2.302-0.78H25.814z M36.935,52H9.664
		c-1.115-1.244-2.125-2.583-3.022-4h33.11C38.92,49.418,37.981,50.756,36.935,52z M40.827,46H5.479
		c-0.679-1.281-1.268-2.617-1.758-4h38.731C42.004,43.386,41.453,44.717,40.827,46z M43.011,24c0.326,1.299,0.563,2.636,0.727,4
		H2.274c0.183-1.364,0.457-2.699,0.817-4H43.011z M43.738,36c-0.164,1.364-0.401,2.701-0.727,4H3.092
		c-0.36-1.301-0.634-2.636-0.817-4H43.738z M32,2c16.542,0,30,13.458,30,30S48.542,62,32,62c-1.645,0-3.258-0.139-4.832-0.395
		C38.575,56.817,46,45.415,46,32S38.575,7.182,27.167,2.395C28.741,2.139,30.354,2,32,2z"/>
</g>
</svg>
