<?xml version="1.0" encoding="utf-8"?>
<!-- Generator: Adobe Illustrator 16.0.0, SVG Export Plug-In . SVG Version: 6.00 Build 0)  -->
<!DOCTYPE svg PUBLIC "-//W3C//DTD SVG 1.1//EN" "http://www.w3.org/Graphics/SVG/1.1/DTD/svg11.dtd">
<svg version="1.1" id="Layer_1" xmlns="http://www.w3.org/2000/svg" xmlns:xlink="http://www.w3.org/1999/xlink" x="0px" y="0px"
	 width="64px" height="64px" viewBox="0 0 64 64" enable-background="new 0 0 64 64" xml:space="preserve">
<g>
	<path d="M32,0C14.355,0,0,14.355,0,32s14.355,32,32,32s32-14.355,32-32S49.645,0,32,0z M62,32c0,0.673-0.03,1.338-0.074,2H2.074
		C2.03,33.338,2,32.673,2,32s0.03-1.338,0.074-2h59.852C61.97,30.662,62,31.327,62,32z M11.632,54h40.735
		c-1.649,1.528-3.471,2.87-5.43,4H17.062C15.103,56.87,13.281,55.528,11.632,54z M9.664,52c-1.115-1.244-2.125-2.583-3.022-4h50.717
		c-0.897,1.417-1.907,2.756-3.022,4H9.664z M5.479,46c-0.679-1.281-1.268-2.617-1.758-4h56.56c-0.49,1.383-1.079,2.719-1.758,4
		H5.479z M3.092,40c-0.36-1.301-0.634-2.636-0.817-4h59.451c-0.183,1.364-0.457,2.699-0.817,4H3.092z M2.274,28
		c0.183-1.364,0.457-2.699,0.817-4h57.816c0.36,1.301,0.634,2.636,0.817,4H2.274z M3.72,22c0.49-1.383,1.079-2.719,1.758-4h53.043
		c0.679,1.281,1.268,2.617,1.758,4H3.72z M6.642,16c0.897-1.417,1.907-2.756,3.022-4h44.673c1.115,1.244,2.125,2.583,3.022,4H6.642z
		 M11.632,10c1.649-1.528,3.471-2.87,5.43-4h29.875c1.959,1.13,3.781,2.472,5.43,4H11.632z M42.751,4H21.249
		C24.589,2.713,28.212,2,32,2S39.411,2.713,42.751,4z M21.249,60h21.503c-3.34,1.287-6.963,2-10.751,2S24.589,61.287,21.249,60z"/>
</g>
</svg>
