<?xml version="1.0" encoding="utf-8"?>
<!-- Generator: Adobe Illustrator 16.0.0, SVG Export Plug-In . SVG Version: 6.00 Build 0)  -->
<!DOCTYPE svg PUBLIC "-//W3C//DTD SVG 1.1//EN" "http://www.w3.org/Graphics/SVG/1.1/DTD/svg11.dtd">
<svg version="1.1" id="Layer_1" xmlns="http://www.w3.org/2000/svg" xmlns:xlink="http://www.w3.org/1999/xlink" x="0px" y="0px"
	 width="64px" height="64px" viewBox="0 0 64 64" enable-background="new 0 0 64 64" xml:space="preserve">
<g>
	<path d="M11,41h44c5.131,0,9-3.869,9-9c0-4.53-3.182-9.361-8.021-9.942C55.48,10.736,46.006,2,34,2C23.401,2,14.37,8.68,12.189,18
		H11C5.038,18,0,23.495,0,30C0,36.271,4.729,41,11,41z M11,20h2.83l0.153-0.815C15.637,10.386,24.055,4,34,4
		c11.215,0,20,8.346,20,19v1h1c4.125,0,7,4.216,7,8c0,3.991-3.009,7-7,7H11c-5.131,0-9-3.869-9-9C2,24.58,6.122,20,11,20z"/>
	<rect x="21" y="46" width="2" height="14"/>
	<rect x="11" y="46" width="2" height="14"/>
	<rect x="31" y="46" width="2" height="14"/>
	<rect x="41" y="46" width="2" height="14"/>
	<rect x="51" y="46" width="2" height="14"/>
</g>
</svg>
