<?xml version="1.0" encoding="utf-8"?>
<!-- Generator: Adobe Illustrator 16.0.0, SVG Export Plug-In . SVG Version: 6.00 Build 0)  -->
<!DOCTYPE svg PUBLIC "-//W3C//DTD SVG 1.1//EN" "http://www.w3.org/Graphics/SVG/1.1/DTD/svg11.dtd">
<svg version="1.1" id="Layer_1" xmlns="http://www.w3.org/2000/svg" xmlns:xlink="http://www.w3.org/1999/xlink" x="0px" y="0px"
	 width="64px" height="64px" viewBox="0 0 64 64" enable-background="new 0 0 64 64" xml:space="preserve">
<g>
	<path d="M31.999,0C23.452,0,15.416,3.328,9.372,9.373c-6.044,6.044-9.373,14.079-9.373,22.626c0,8.548,3.329,16.583,9.373,22.628
		c6.044,6.044,14.08,9.372,22.627,9.372c8.548,0,16.584-3.328,22.628-9.372C60.671,48.582,64,40.547,64,31.999
		c0-8.547-3.329-16.582-9.373-22.626C48.583,3.328,40.547,0,31.999,0z M53.213,53.213c-5.666,5.666-13.2,8.786-21.214,8.786
		c-8.013,0-15.547-3.12-21.213-8.786c-5.666-5.667-8.787-13.2-8.787-21.214c0-8.013,3.121-15.546,8.787-21.212
		C16.452,5.12,23.986,2,31.999,2c8.014,0,15.548,3.12,21.214,8.787C58.879,16.453,62,23.986,62,31.999
		C62,40.013,58.879,47.546,53.213,53.213z"/>
	<path d="M32,27c-1.336,0-2.592,0.521-3.536,1.465C27.52,29.408,27,30.663,27,31.999s0.52,2.592,1.464,3.536S30.664,37,32,37
		c1.335,0,2.591-0.521,3.535-1.465s1.464-2.2,1.464-3.536s-0.52-2.591-1.464-3.534C34.591,27.521,33.335,27,32,27z M34.121,34.121
		c-1.133,1.134-3.108,1.132-4.243,0C29.312,33.555,29,32.801,29,31.999c0-0.801,0.312-1.554,0.878-2.12
		C30.445,29.312,31.198,29,32,29c0.801,0,1.555,0.312,2.121,0.879s0.878,1.319,0.878,2.12
		C34.999,32.801,34.688,33.555,34.121,34.121z"/>
	<path d="M15.181,14.017l-1.427-0.263l0.263,1.427c0.158,0.862,3.939,21.161,8.79,26.011c2.455,2.455,5.72,3.808,9.192,3.808
		s6.737-1.353,9.192-3.808C43.647,38.736,44.999,35.472,45,32c0-3.473-1.353-6.737-3.809-9.193
		C36.341,17.957,16.043,14.175,15.181,14.017z M39.777,39.777c-2.078,2.078-4.84,3.222-7.778,3.222s-5.7-1.145-7.778-3.222
		c-3.388-3.387-6.658-16.983-7.96-23.517c6.532,1.303,20.129,4.573,23.517,7.96C41.855,26.299,43,29.062,43,32
		C43,34.938,41.855,37.7,39.777,39.777z"/>
</g>
</svg>
