<?xml version="1.0" encoding="utf-8"?>
<!-- Generator: Adobe Illustrator 16.0.0, SVG Export Plug-In . SVG Version: 6.00 Build 0)  -->
<!DOCTYPE svg PUBLIC "-//W3C//DTD SVG 1.1//EN" "http://www.w3.org/Graphics/SVG/1.1/DTD/svg11.dtd">
<svg version="1.1" id="Layer_1" xmlns="http://www.w3.org/2000/svg" xmlns:xlink="http://www.w3.org/1999/xlink" x="0px" y="0px"
	 width="64px" height="64px" viewBox="0 0 64 64" enable-background="new 0 0 64 64" xml:space="preserve">
<g>
	<path d="M48,39c-5.068,0-10.413,2.228-12.293,8.117C33.787,43.742,33.995,40.102,34,40V11c0-3.805-1.672-11-8-11
		c-3.253,0-5.27,1.904-6.467,4.27c-0.306-1.104-0.765-2.137-1.463-2.908C17.265,0.471,16.203,0,15,0C8.08,0,8,4.95,8,5l2,0.013
		C10.008,4.704,10.219,2,15,2c0.648,0,1.152,0.224,1.587,0.702c1.297,1.432,1.531,4.649,1.491,6.817C18.025,10.048,18,10.549,18,11
		v29h2l-0.005-28.9c0.017-0.16,0.056-0.619,0.079-1.25C20.313,7.43,21.363,2,26,2c5.913,0,5.999,8.634,6,9l0.003,28.929
		c-0.018,0.237-0.346,5.596,3.138,9.897C35.058,50.517,35,51.231,35,52l0.006,0.24c0.099,2.922-0.659,5.238-2.251,6.886
		C30.911,61.033,27.965,62,24,62v2c4.528,0,7.957-1.172,10.192-3.484c1.983-2.052,2.93-4.858,2.812-8.343L37,52
		c0-0.109,0.014-0.202,0.016-0.31C39.732,53.882,43.411,55,48,55c4.411,0,8-3.589,8-8S52.411,39,48,39z M48,53
		c-4.738,0-8.352-1.279-10.747-3.795C38.568,41.883,45.036,41,48,41c3.309,0,6,2.691,6,6S51.309,53,48,53z"/>
</g>
</svg>
