<?xml version="1.0" encoding="utf-8"?>
<!-- Generator: Adobe Illustrator 16.0.0, SVG Export Plug-In . SVG Version: 6.00 Build 0)  -->
<!DOCTYPE svg PUBLIC "-//W3C//DTD SVG 1.1//EN" "http://www.w3.org/Graphics/SVG/1.1/DTD/svg11.dtd">
<svg version="1.1" id="Layer_1" xmlns="http://www.w3.org/2000/svg" xmlns:xlink="http://www.w3.org/1999/xlink" x="0px" y="0px"
	 width="64px" height="64px" viewBox="0 0 64 64" enable-background="new 0 0 64 64" xml:space="preserve">
<g>
	<path d="M64,46H49.854C51.257,43.221,52,40.145,52,37c0-11.028-8.972-20-20-20c-0.056,0-0.109,0.003-0.191,0.009l-1.514,0.025
		l0.617,1.382C31.634,20.034,32,21.745,32,23.5C32,30.393,26.393,36,19.5,36c-2.074,0-4.129-0.519-5.941-1.5l-1.345-0.729
		l-0.128,1.523C12.041,35.824,12,36.397,12,37c0,3.145,0.743,6.221,2.146,9H0v2h64V46z M14,37c0-0.027,0-0.055,0-0.082
		C15.737,37.629,17.612,38,19.5,38C27.495,38,34,31.495,34,23.5c0-1.522-0.236-3.015-0.705-4.454C42.617,19.712,50,27.511,50,37
		c0,3.176-0.842,6.272-2.421,9H16.421C14.842,43.273,14,40.176,14,37z"/>
	<polygon points="25.707,52.293 24.293,53.854 31.293,61 32.707,61 39.707,53.854 38.293,52.366 32,58.623 	"/>
</g>
</svg>
