<?xml version="1.0" encoding="utf-8"?>
<!-- Generator: Adobe Illustrator 16.0.0, SVG Export Plug-In . SVG Version: 6.00 Build 0)  -->
<!DOCTYPE svg PUBLIC "-//W3C//DTD SVG 1.1//EN" "http://www.w3.org/Graphics/SVG/1.1/DTD/svg11.dtd">
<svg version="1.1" id="Layer_1" xmlns="http://www.w3.org/2000/svg" xmlns:xlink="http://www.w3.org/1999/xlink" x="0px" y="0px"
	 width="64px" height="64px" viewBox="0 0 64 64" enable-background="new 0 0 64 64" xml:space="preserve">
<g>
	<path d="M55.979,22.058C55.48,10.736,46.006,2,34,2C23.401,2,14.37,8.68,12.189,18H11C5.038,18,0,23.495,0,30
		c0,6.271,4.729,11,11,11h44c5.131,0,9-3.869,9-9C64,27.47,60.818,22.639,55.979,22.058z M55,39H11c-5.131,0-9-3.869-9-9
		c0-5.42,4.122-10,9-10h2.83l0.153-0.815C15.637,10.386,24.055,4,34,4c11.215,0,20,8.346,20,19v1h1c4.125,0,7,4.216,7,8
		C62,35.991,58.991,39,55,39z"/>
	<polygon points="31.081,45.606 27.483,54 31.277,54 28.132,59.504 29.868,60.496 34.723,52 30.517,52 32.919,46.394 	"/>
	<rect x="34.938" y="52" transform="matrix(0.4961 -0.8682 0.8682 0.4961 -24.3509 64.0391)" width="16.125" height="2"/>
	<rect x="9.938" y="52" transform="matrix(0.4961 -0.8682 0.8682 0.4961 -36.9474 42.333)" width="16.125" height="2"/>
</g>
</svg>
