<?xml version="1.0" encoding="utf-8"?>
<!-- Generator: Adobe Illustrator 16.0.0, SVG Export Plug-In . SVG Version: 6.00 Build 0)  -->
<!DOCTYPE svg PUBLIC "-//W3C//DTD SVG 1.1//EN" "http://www.w3.org/Graphics/SVG/1.1/DTD/svg11.dtd">
<svg version="1.1" id="Layer_1" xmlns="http://www.w3.org/2000/svg" xmlns:xlink="http://www.w3.org/1999/xlink" x="0px" y="0px"
	 width="64px" height="64px" viewBox="0 0 64 64" enable-background="new 0 0 64 64" xml:space="preserve">
<g>
	<path d="M55.979,22.058C55.48,10.736,46.006,2,34,2C23.401,2,14.37,8.68,12.189,18H11C5.038,18,0,23.495,0,30
		c0,6.271,4.729,11,11,11h7v-2h-7c-5.131,0-9-3.869-9-9c0-5.42,4.122-10,9-10h2.83l0.153-0.815C15.637,10.386,24.055,4,34,4
		c11.215,0,20,8.346,20,19v1h1c4.125,0,7,4.216,7,8c0,3.991-3.009,7-7,7H45v2h10c5.131,0,9-3.869,9-9
		C64,27.47,60.818,22.639,55.979,22.058z"/>
	<path d="M41,42c0-7.267-7.883-17.205-8.219-17.625l-0.736-0.92l-0.788,0.876C30.879,24.751,22,34.7,22,42c0,5.215,4.206,9,10,9
		C37.467,51,41,47.467,41,42z M32,49c-3.853,0-8-2.19-8-7c0-5.349,5.802-12.821,7.954-15.408C33.894,29.22,39,36.648,39,42
		C39,46.383,36.383,49,32,49z"/>
</g>
</svg>
