<?xml version="1.0" encoding="utf-8"?>
<!-- Generator: Adobe Illustrator 16.0.0, SVG Export Plug-In . SVG Version: 6.00 Build 0)  -->
<!DOCTYPE svg PUBLIC "-//W3C//DTD SVG 1.1//EN" "http://www.w3.org/Graphics/SVG/1.1/DTD/svg11.dtd">
<svg version="1.1" id="Layer_1" xmlns="http://www.w3.org/2000/svg" xmlns:xlink="http://www.w3.org/1999/xlink" x="0px" y="0px"
	 width="64px" height="64px" viewBox="0 0 64 64" enable-background="new 0 0 64 64" xml:space="preserve">
<g>
	<path d="M40.799,1.238l-0.055-0.206c-0.108,0.029-0.211,0.069-0.319,0.1c-2.686-0.733-5.508-1.133-8.423-1.133
		c-17.645,0-32,14.355-32,32s14.355,32,32,32c2.916,0,5.738-0.399,8.425-1.134c0.107,0.03,0.209,0.07,0.317,0.1l0.055-0.205
		c13.379-3.833,23.203-16.167,23.203-30.761S54.178,5.071,40.799,1.238z M62.002,31.999c0,0.673-0.03,1.339-0.074,2.001h-41.85
		c-0.039-0.663-0.076-1.326-0.076-2.001c0-0.674,0.037-1.337,0.076-1.999h41.85C61.972,30.661,62.002,31.326,62.002,31.999z
		 M34.11,58c-1.894-1.133-3.643-2.468-5.205-4h23.463c-1.648,1.528-3.471,2.87-5.431,4H34.11z M42.751,60
		c-0.753,0.29-1.521,0.55-2.301,0.779c-0.77-0.229-1.523-0.489-2.26-0.779H42.751z M27.068,52c-1.046-1.244-1.985-2.582-2.817-4
		h33.108c-0.897,1.417-1.906,2.756-3.021,4H27.068z M23.176,46c-0.626-1.283-1.177-2.614-1.624-4h38.729
		c-0.49,1.383-1.079,2.719-1.758,4H23.176z M20.991,40c-0.326-1.299-0.562-2.636-0.728-4h41.464c-0.183,1.364-0.457,2.699-0.817,4
		H20.991z M20.264,28c0.164-1.364,0.401-2.701,0.727-4h39.92c0.36,1.301,0.635,2.636,0.817,4H20.264z M21.551,22
		c0.447-1.386,0.998-2.717,1.624-4h35.35c0.679,1.281,1.268,2.617,1.758,4H21.551z M24.25,16c0.831-1.418,1.771-2.756,2.816-4H54.34
		c1.114,1.244,2.124,2.583,3.021,4H24.25z M28.902,10c1.562-1.532,3.312-2.867,5.205-4h12.834c1.959,1.13,3.78,2.472,5.43,4H28.902z
		 M38.186,4c0.739-0.291,1.494-0.551,2.266-0.781c0.782,0.229,1.551,0.49,2.305,0.781H38.186z M32.002,61.999
		c-16.542,0-30-13.458-30-30s13.458-30,30-30c1.645,0,3.258,0.139,4.831,0.395C25.427,7.181,18.002,18.583,18.002,31.999
		c0,13.415,7.426,24.818,18.833,29.605C35.261,61.86,33.647,61.999,32.002,61.999z"/>
</g>
</svg>
