<?xml version="1.0" encoding="utf-8"?>
<!-- Generator: Adobe Illustrator 16.0.0, SVG Export Plug-In . SVG Version: 6.00 Build 0)  -->
<!DOCTYPE svg PUBLIC "-//W3C//DTD SVG 1.1//EN" "http://www.w3.org/Graphics/SVG/1.1/DTD/svg11.dtd">
<svg version="1.1" id="Layer_1" xmlns="http://www.w3.org/2000/svg" xmlns:xlink="http://www.w3.org/1999/xlink" x="0px" y="0px"
	 width="64px" height="64px" viewBox="0 0 64 64" enable-background="new 0 0 64 64" xml:space="preserve">
<g>
	<path d="M2.201,29.538c0.85,1.327,1.938,2.509,3.182,3.484C5.14,33.971,5,34.967,5,36c0,5.794,4.206,10,10,10h41c4.71,0,8-3.29,8-8
		c0-4.493-2.783-9.282-7.024-9.927C56.439,18.025,47.236,10,36,10c-4.097,0-7.938,1.156-11.156,3.157C22.197,9.906,18.254,8,14,8
		c-0.843,0-1.718,0.084-2.599,0.25L9.947,8.524l0.796,1.247C11.565,11.06,12,12.544,12,14.062c0,4.411-3.589,8-8,8
		c-0.89,0-1.781-0.154-2.649-0.459l-1.392-0.489l0.062,1.474C0.124,25.068,0.878,27.471,2.201,29.538z M55,29v1h1
		c3.536,0,6,4.216,6,8c0,3.645-2.355,6-6,6H15c-4.71,0-8-3.29-8-8c0-4.962,3.589-9,8-9h2.829l0.153-0.815
		C19.528,17.965,27.105,12,36,12C46.477,12,55,19.626,55,29z M4,24.062c5.514,0,10-4.486,10-10c0-1.394-0.292-2.763-0.853-4.03
		C13.436,10.011,13.72,10,14,10c3.591,0,6.929,1.581,9.197,4.291C19.74,16.944,17.208,20.666,16.189,25H15
		c-3.88,0-7.242,2.448-8.9,6.009c-0.85-0.747-1.607-1.601-2.215-2.549C3,27.077,2.412,25.518,2.155,23.887
		C2.767,24.004,3.383,24.062,4,24.062z"/>
	<rect x="7.938" y="54" transform="matrix(-0.4961 0.8682 -0.8682 -0.4961 71.6916 68.3958)" width="16.125" height="2"/>
	<rect x="17.938" y="54" transform="matrix(-0.4961 0.8682 -0.8682 -0.4961 86.653 59.7133)" width="16.125" height="2"/>
	<rect x="27.938" y="54" transform="matrix(-0.4961 0.8682 -0.8682 -0.4961 101.6144 51.0309)" width="16.125" height="2"/>
	<rect x="37.938" y="54" transform="matrix(-0.4961 0.8682 -0.8682 -0.4961 116.5758 42.3485)" width="16.125" height="2"/>
</g>
</svg>
