<?xml version="1.0" encoding="utf-8"?>
<!-- Generator: Adobe Illustrator 16.0.0, SVG Export Plug-In . SVG Version: 6.00 Build 0)  -->
<!DOCTYPE svg PUBLIC "-//W3C//DTD SVG 1.1//EN" "http://www.w3.org/Graphics/SVG/1.1/DTD/svg11.dtd">
<svg version="1.1" id="Layer_1" xmlns="http://www.w3.org/2000/svg" xmlns:xlink="http://www.w3.org/1999/xlink" x="0px" y="0px"
	 width="64px" height="64px" viewBox="0 0 64 64" enable-background="new 0 0 64 64" xml:space="preserve">
<g>
	<path d="M29,64c17.645,0,32-14.355,32-32S46.645,0,29,0c-4.17,0-9.019,0.81-12.352,2.064l-2.084,0.784l1.971,1.037
		C25.322,8.509,31,17.189,31,26c0,13.785-11.215,25-25,25l-0.69,0.002l-2.511-0.059l1.437,1.701C10.239,59.755,19.497,64,29,64z
		 M33,26c0-8.853-5.247-17.561-13.538-22.738C22.346,2.478,25.869,2,29,2c16.542,0,30,13.458,30,30S45.542,62,29,62
		c-8.175,0-16.152-3.341-21.76-9.028C21.555,52.322,33,40.473,33,26z"/>
</g>
</svg>
