<svg viewBox="0 -28 14 14" xmlns="http://www.w3.org/2000/svg"><path d="M11.94-25.95q-2.06-2.06-4.95-2.06 -2.9 0-4.95 2.05 -2.06 2.05-2.06 4.94 0 2.89 2.05 4.94 2.05 2.05 4.94 2.05 2.89 0 4.94-2.06 2.05-2.06 2.05-4.95 0-2.9-2.06-4.95Zm-.31 9.59q-1.97 1.91-4.65 1.91 -2.68 0-4.65-1.92Q.41-18.34.41-21.02q0-2.68 1.91-4.65 1.96-1.92 4.64-1.92 2.67 0 4.64 1.91 1.91 1.96 1.91 4.64 0 2.67-1.92 4.64ZM7.2-25.39h-.44v4.45l2.02 2.05 .32-.33 -1.92-1.89ZM.85-21.24h.875v.43H.85Zm11.375 0h.875v.43h-.875Zm-5.47 5.46h.43v.875h-.44Zm0-11.375h.43v.875h-.44Z"/></svg>