<svg viewBox="0 -28 14 14" xmlns="http://www.w3.org/2000/svg"><path d="M9.13-19.2l-1.92-1.89v-4.3h-.44v4.45l2.02 2.05ZM.87-21.23h.875v.43H.87Zm11.375 0h.875v.43h-.875Zm-5.47 5.46h.43v.875h-.44Zm0-11.375h.43v.875h-.44Zm.21-.875v.43q2.7 0 4.63 1.92 1.92 1.92 1.92 4.63 0 2.7-1.93 4.63 -1.93 1.92-4.64 1.92t-1.93 5.37794e-299Q.39-18.35.39-21.06q0-2.11 1.2-3.81l.98-.99v1.94H3v-2.41l-.22-.22H.37v.43H2.2l-.96.92v.02q-1.32 1.8-1.32 4.07 0 2.89 2.05 4.94 2.05 2.05 4.94 2.05 2.89 0 4.94-2.06 2.05-2.06 2.05-4.95 0-2.9-2.06-4.95 -2.06-2.06-4.95-2.06Z"/></svg>