<svg viewBox="0.957031 -28 12.0859 14" xmlns="http://www.w3.org/2000/svg"><path d="M7.21-14v-1.54q2.32-.09 3.88-1.84l1.66 1.33 .27-.33 -1.67-1.37q1.09-1.45 1.09-3.29 0-1.78-1.04-3.2l1.61-1.24 -.28-.33 -1.62 1.23q-1.56-1.86-3.94-1.95v-1.54h-.44v1.53q-2.33.08-3.89 1.83l-1.67-1.34 -.28.32 1.66 1.36q-1.1 1.44-1.1 3.28 0 1.77 1.03 3.19L.86-16.67l.27.32 1.61-1.24q1.55 1.85 3.93 1.94v1.53Zm-1.32-5.91q-.44-.47-.44-1.1 0-.63.45-1.09 .45-.46 1.08-.46 .62 0 1.08.45 .45.45.45 1.08 0 .62-.46 1.08 -.46.45-1.09.45 -.63 0-1.1-.44Zm1.31 3.93v-3.07q.68-.09 1.14-.55l2.37 1.91Q9.28-16.08 7.18-16Zm4.81-5.04q0 1.64-1.02 3l-2.38-1.92q.32-.5.32-1.1 0-.61-.33-1.07l2.43-1.86q.95 1.31.95 2.92Zm-1.21-3.29l-2.47 1.85q-.52-.47-1.15-.55v-3.07q2.13.08 3.6 1.75Zm-4.05-1.75V-23q-.69.08-1.15.54l-2.38-1.92q1.42-1.62 3.52-1.7Zm-4.82 5.03q0-1.65 1.01-3.01l2.37 1.91q-.33.49-.33 1.09 0 .6.32 1.06l-2.44 1.85q-.96-1.32-.96-2.93Zm1.2 3.28l2.46-1.86q.51.46 1.14.54v3.06q-2.14-.09-3.61-1.75Z"/></svg>