<svg viewBox="0 -27.5625 14.0547 13.7812" xmlns="http://www.w3.org/2000/svg"><path d="M5.44-14.22q-.44.43-1.07.43 -.63 0-1.09-.46 -.46-.46-.46-1.09 0-.63.45-1.09 .45-.46 1.08-.46 .62 0 1.08.45 .45.45.45 1.08 0 .62-.47 1.09Zm-.31-1.86q-.33-.33-.77-.33t.32 2.73417e-303q-.33.32-.33.76 0 .43.32.76 .32.32.76.32 .43 0 .76-.33 .32-.33.32-.77t-.77 1.09367e-302Zm5.55 1.85q-.44.43-1.07.43 -.63 0-1.09-.46 -.46-.46-.46-1.09 0-.63.45-1.09 .45-.46 1.08-.46 .62 0 1.08.45 .45.45.45 1.08 0 .62-.47 1.09Zm-.31-1.86q-.33-.33-.77-.33t.32 2.73417e-303q-.33.32-.33.76 0 .43.32.76 .32.32.76.32 .43 0 .76-.33 .32-.33.32-.77t-.77 2.73417e-303Zm-4.71.54h2.625v.43H5.66Zm-2.85.24l-.85-11.84h-2v-.44h2.37l.9 12.22Zm.02-2.88l-.06-.44 9.26-.66 1.42-6.125H2.34v-.44h11.64l-1.65 7Zm6.53-2.625H6.29q-.875 0-.875-.875 0-.25.19-.52 .19-.28.51-.33 .16-.55.62-.95 .46-.4 1.06-.4 .68 0 1.17.38 .49.38.57.95 .3.08.47.34 .17.25.17.5 0 .875-.875.875Zm-3.07-1.32q-.2 0-.32.16 -.13.16-.13.27 0 .43.43.43h3.06q.43 0 .43-.44 0-.11-.13-.28 -.13-.17-.32-.17h-.22v-.22q0-.5-.4-.8 -.4-.31-.92-.31 -.47 0-.85.35 -.39.35-.47.79l-.03.16Z"/></svg>