<svg viewBox="0 -23.1875 14 10.9375" xmlns="http://www.w3.org/2000/svg"><path d="M12.71-13.54q-1.29 1.28-3.09 1.28 -1.81 0-3.09-1.29 -1.29-1.29-1.29-3.09 0-1.81 1.28-3.09 1.28-1.29 3.08-1.29t1.28 2.73417e-303q1.28 1.28 1.28 3.08t3.08 5.24Zm-.33-5.86q-1.15-1.18-2.77-1.18t1.16 1.09367e-302q-1.17 1.16-1.17 2.77t2.77 8.53391e+111q1.16 1.16 2.77 1.16t-1.17 2.73417e-303q1.16-1.17 1.16-2.78 0-1.62-1.18-2.77Zm-.61 4.92q-.91.9-2.17.9 -1.26 0-2.17-.91 -.91-.91-.91-2.17 0-1.26.9-2.17 .9-.91 2.16-.91 1.25 0 2.16.9 .9.9.9 2.16 0 1.25-.91 2.16Zm-.31-4.02q-.77-.77-1.86-.77 -1.1 0-1.86.76 -.77.76-.77 1.85t1.85 0q.76.76 1.85.76t-.77 2.73417e-303q.76-.77.76-1.86 0-1.1-.77-1.86ZM8.5-12.27H-.04v-1.75h6.56v.43H.39v.875h8.09Zm-1.97-1.32H.4v-1.75h5.46v.43H.82v.875h5.68Zm-.66-1.32H.83v-1.75h4.81v.43H1.26v.875h4.59Zm-.22-1.32H-.04v-1.75h5.68v.43H.39v.875h5.25Zm0-1.32H.4v-1.75h5.9v.43H.83v.875h4.81Zm.65-1.32H-.05v-1.75H7.6v.43H.38v.875h5.9Zm1.31-1.32H.39v-1.75h8.53v1.31h-.44v-.875H.82v.875H7.6Zm.875-1.32H-.06v-1.75h8.53Zm-8.1-.44h7.65v-.875H.37Z"/></svg>