<svg viewBox="0 -28 14 14" xmlns="http://www.w3.org/2000/svg"><path d="M11.94-16.06q-2.06 2.05-4.95 2.05 -2.9 0-4.95-2.06 -2.06-2.06-2.06-4.95 0-2.9 2.05-4.95 2.05-2.06 4.94-2.06 2.89 0 4.94 2.05 2.05 2.05 2.05 4.94 0 2.89-2.06 4.94Zm-.31-9.6q-1.97-1.92-4.65-1.92 -2.68 0-4.65 1.91Q.41-23.71.41-21.03q0 2.67 1.91 4.64 1.96 1.91 4.64 1.91 2.67 0 4.64-1.92 1.91-1.97 1.91-4.65 0-2.68-1.92-4.65ZM8.95-17.3h-.58L5-23.62v6.31h-.44v-7h.57L8.49-18v-6.32h.43ZM3.7-21.68h6.125v.43H3.7Zm0 1.31h6.125v.43H3.7Z"/></svg>