<?xml version="1.0" encoding="iso-8859-1"?>
<!-- Generator: Adobe Illustrator 17.1.0, SVG Export Plug-In . SVG Version: 6.00 Build 0)  -->
<!DOCTYPE svg PUBLIC "-//W3C//DTD SVG 1.0//EN" "http://www.w3.org/TR/2001/REC-SVG-20010904/DTD/svg10.dtd">
<svg version="1.0" xmlns="http://www.w3.org/2000/svg" xmlns:xlink="http://www.w3.org/1999/xlink" x="0px" y="0px" width="24px"
	 height="24px" viewBox="0 0 24 24" style="enable-background:new 0 0 24 24;" xml:space="preserve">
<g id="Guides">
	<g id="_x32_0_px_2_">
	</g>
	<g id="_x32_0px">
	</g>
	<g id="_x34_0px">
	</g>
	<g id="_x34_4_px">
	</g>
	<g id="_x34_8px">
		<g id="_x31_6px">
		</g>
		<g id="square_4px">
			<g id="_x32_8_px">
				<g id="square_4px_2_">
				</g>
				<g id="square_4px_3_">
				</g>
				<g id="square_4px_1_">
				</g>
				<g id="_x32_4_px_2_">
				</g>
				<g id="_x31_2_px">
				</g>
			</g>
		</g>
	</g>
	<g id="Icons">
	</g>
	<g id="_x32_0_px">
	</g>
	<g id="square_6px">
		<g id="_x31_2_PX">
		</g>
	</g>
	<g id="_x33_6_px">
		<g id="_x33_2_px">
			<g id="_x32_8_px_1_">
				<g id="square_6px_1_">
				</g>
				<g id="_x32_0_px_1_">
					<g id="_x31_2_PX_2_">
					</g>
					<g id="_x34_8_px">
						<g id="_x32_4_px">
						</g>
						<g id="_x32_4_px_1_">
						</g>
					</g>
				</g>
			</g>
		</g>
	</g>
	<g id="_x32_0_px_3_">
	</g>
	<g id="_x32_0_px_4_">
	</g>
	<g id="New_Symbol_8">
		<g id="_x32_4_px_3_">
		</g>
	</g>
</g>
<g id="Artboard">
</g>
<g id="Free_Icons">
	<g>
		<polygon style="fill:none;stroke:#000000;stroke-linejoin:round;stroke-miterlimit:10;" points="10.5,6.5 9,7.5 7.5,6.5 7.5,5 
			9,4 10.5,5 		"/>
		
			<line style="fill:none;stroke:#000000;stroke-linecap:round;stroke-linejoin:round;stroke-miterlimit:10;" x1="12" y1="0.5" x2="12" y2="1.5"/>
		<polygon style="fill:none;stroke:#000000;stroke-linecap:round;stroke-linejoin:round;stroke-miterlimit:10;" points="16,23.5 
			8,23.5 6.5,16 9,13.5 15,13.5 17.5,16 		"/>
		
			<line style="fill:none;stroke:#000000;stroke-linecap:round;stroke-linejoin:round;stroke-miterlimit:10;" x1="12" y1="10.5" x2="12" y2="13.5"/>
		
			<line style="fill:none;stroke:#000000;stroke-linecap:round;stroke-linejoin:round;stroke-miterlimit:10;" x1="7.6" y1="21.5" x2="16.4" y2="21.5"/>
		<polyline style="fill:none;stroke:#000000;stroke-linecap:round;stroke-linejoin:round;stroke-miterlimit:10;" points="2.5,16 
			3,19 6.844,17.719 		"/>
		<polyline style="fill:none;stroke:#000000;stroke-linecap:round;stroke-linejoin:round;stroke-miterlimit:10;" points="0.5,12 
			0.5,14 2.5,16 4.5,14 4.5,12 		"/>
		<polygon style="fill:none;stroke:#000000;stroke-linecap:round;stroke-linejoin:round;stroke-miterlimit:10;" points="16,10.5 
			20.5,6 16,1.5 8,1.5 3.5,6 8,10.5 		"/>
		<polygon style="fill:none;stroke:#000000;stroke-linejoin:round;stroke-miterlimit:10;" points="13.5,6.5 15,7.5 16.5,6.5 16.5,5 
			15,4 13.5,5 		"/>
		<polyline style="fill:none;stroke:#000000;stroke-linecap:round;stroke-linejoin:round;stroke-miterlimit:10;" points="21.5,16 
			21,19 17.156,17.719 		"/>
		<polyline style="fill:none;stroke:#000000;stroke-linecap:round;stroke-linejoin:round;stroke-miterlimit:10;" points="23.5,12 
			23.5,14 21.5,16 19.5,14 19.5,12 		"/>
	</g>
</g>
</svg>
