<?xml version="1.0" encoding="iso-8859-1"?>
<!-- Generator: Adobe Illustrator 21.0.0, SVG Export Plug-In . SVG Version: 6.00 Build 0)  -->
<svg version="1.1" id="Layer_1" xmlns="http://www.w3.org/2000/svg" xmlns:xlink="http://www.w3.org/1999/xlink" x="0px" y="0px"
	 viewBox="0 0 30 30" enable-background="new 0 0 30 30" xml:space="preserve">
<g>
	<circle fill="#303C42" cx="23" cy="7" r="7"/>
	<path fill="#303C42" d="M12.6914063,20.1904297c-0.1875-0.0761719-0.4013672-0.0351563-0.5449219,0.1083984l-8.8476563,8.8476563
		c-0.1430664,0.1425781-0.1860352,0.3583984-0.1083984,0.5449219C3.2675781,29.8779297,3.4501953,30,3.6523438,30H12.5
		c0.2763672,0,0.5-0.2236328,0.5-0.5v-8.8476563C13,20.4501953,12.878418,20.2675781,12.6914063,20.1904297z"/>
	<path fill="#303C42" d="M27.6357422,16.5185547C26.5170898,16.203125,24.8251953,16,23.3261719,16
		c-1.7363281,0-3.4521484,0.3144531-5.1000977,0.9345703c-2.5380859,0.9550781-4.0043945,2.2939453-4.0654297,2.3505859
		C14.0581055,19.3798828,14,19.5126953,14,19.6523438V29.5c0,0.2763672,0.2236328,0.5,0.5,0.5H26c1.1030273,0,2-0.8974609,2-2
		v-9.8632813V17C28,16.7763672,27.8510742,16.5791016,27.6357422,16.5185547z M23.3261719,17
		C24.5844727,17,25.9770508,17.1494141,27,17.3876953v0.5544434l-3.515625,3.8352051l-4.1625977-4.1630859
		C20.6259766,17.2060547,21.9697266,17,23.3261719,17z"/>
	<path fill="#303C42" d="M16.0766602,10.9550781C15.3623047,9.7138672,15,8.3828125,15,7
		c0-1.4931641,0.4238281-2.9570313,1.2255859-4.234375c0.0966797-0.1542969,0.1020508-0.3486328,0.0141602-0.5078125
		S15.984375,2,15.8022461,2H2C0.8969727,2,0,2.8974609,0,4v22.3476563c0,0.2021484,0.1220703,0.3847656,0.3085938,0.4619141
		C0.3706055,26.8349609,0.4355469,26.8476563,0.5,26.8476563c0.1298828,0,0.2578125-0.0507813,0.3535156-0.1464844
		L15.996582,11.5576172C16.15625,11.3974609,16.1889648,11.1503906,16.0766602,10.9550781z M7,13c-2.2055664,0-4-1.7939453-4-4
		s1.7944336-4,4-4c0.875,0,1.7060547,0.2773438,2.4033203,0.8017578C9.6240234,5.9677734,9.6679688,6.28125,9.5019531,6.5019531
		s-0.4790039,0.265625-0.7001953,0.0986328C8.2797852,6.2080078,7.65625,6,7,6C5.3457031,6,4,7.3457031,4,9s1.3457031,3,3,3
		c1.4838867,0,2.7197266-1.0830078,2.9584961-2.5H7.7001953c-0.2763672,0-0.5-0.2236328-0.5-0.5s0.2236328-0.5,0.5-0.5H10.5
		C10.7763672,8.5,11,8.7236328,11,9C11,11.2060547,9.2055664,13,7,13z"/>
</g>
<g>
</g>
<g>
</g>
<g>
</g>
<g>
</g>
<g>
</g>
<g>
</g>
<g>
</g>
<g>
</g>
<g>
</g>
<g>
</g>
<g>
</g>
<g>
</g>
<g>
</g>
<g>
</g>
<g>
</g>
</svg>
