<?xml version="1.0" encoding="iso-8859-1"?>
<!-- Generator: Adobe Illustrator 21.0.0, SVG Export Plug-In . SVG Version: 6.00 Build 0)  -->
<svg version="1.1" id="Layer_1" xmlns="http://www.w3.org/2000/svg" xmlns:xlink="http://www.w3.org/1999/xlink" x="0px" y="0px"
	 viewBox="0 0 24 24" enable-background="new 0 0 24 24" xml:space="preserve">
<g>
	<path fill="#303C42" d="M11.3535156,15.1464844c-0.1953125-0.1953125-0.5117188-0.1953125-0.7070313,0l-8,8
		c-0.1430664,0.1430664-0.1860352,0.3579102-0.1083984,0.5449219C2.6152344,23.878418,2.7978516,24,3,24h16
		c0.2021484,0,0.3847656-0.121582,0.4619141-0.3085938c0.0776367-0.1870117,0.034668-0.4018555-0.1083984-0.5449219
		L11.3535156,15.1464844z"/>
	<path fill="#303C42" d="M21.6298828,14.6196289c-0.21875-0.0600586-0.4492188,0.0361328-0.5620117,0.2314453
		c-0.8461914,1.4555664-1.3388672,2.6728516-1.5981445,3.9472656h0.0004883
		c-0.0200195,0.0966797-0.0537109,0.1962891-0.1069336,0.3134766c-0.0864258,0.1894531-0.0458984,0.4125977,0.1015625,0.5600586
		l1.6816406,1.6816406C21.2421875,21.4492188,21.3701172,21.5,21.5,21.5c0.0644531,0,0.1293945-0.012207,0.1914063-0.0380859
		C21.878418,21.3847656,22,21.2021484,22,21v-5.8974609C22,14.8764648,21.8481445,14.6787109,21.6298828,14.6196289z"/>
	<path fill="#303C42" d="M11.9223633,9.8208008c-0.4936523-1.0620117-0.7802734-2.0571289-0.8764648-3.0424805
		c0-0.0029297-0.0004883-0.0058594-0.0009766-0.0087891C11.0180664,6.5380859,11,6.2714844,11,6
		c0-1.1484375,0.2734375-2.2470703,0.8134766-3.2661133c0.0820313-0.1547852,0.0771484-0.3413086-0.0136719-0.4916992
		C11.7094727,2.0917969,11.546875,2,11.371582,2H2C0.8969727,2,0,2.8969727,0,4v17
		c0,0.2021484,0.121582,0.3847656,0.3085938,0.4619141C0.3706055,21.487793,0.4355469,21.5,0.5,21.5
		c0.1298828,0,0.2578125-0.0507813,0.3535156-0.1464844l10.96875-10.96875
		C11.9707031,10.2363281,12.0107422,10.0112305,11.9223633,9.8208008z M5.5,10.5c-1.6542969,0-3-1.3457031-3-3s1.3457031-3,3-3
		c0.6557617,0,1.2788086,0.2080078,1.8022461,0.6010742c0.2207031,0.1660156,0.2651367,0.4794922,0.0996094,0.7001953
		C7.2353516,6.0224609,6.9223633,6.065918,6.7016602,5.9008789C6.3525391,5.6386719,5.9370117,5.5,5.5,5.5
		c-1.1030273,0-2,0.8969727-2,2s0.8969727,2,2,2c0.9301758,0,1.7143555-0.6381836,1.9365234-1.5H6
		C5.7236328,8,5.5,7.7763672,5.5,7.5S5.7236328,7,6,7h2c0.2763672,0,0.5,0.2236328,0.5,0.5C8.5,9.1542969,7.1542969,10.5,5.5,10.5z"
		/>
	<path fill="#303C42" d="M18,0c-3.3085938,0-6,2.6914063-6,6c0,0.2338867,0.0161133,0.4633789,0.0415039,0.6816406
		c0.2084961,2.1323242,1.3486328,3.8886719,2.5561523,5.7475586c1.1870117,1.8276367,2.4140625,3.7172852,2.9125977,6.1704102
		C17.5571289,18.8325195,17.762207,19,18,19s0.4428711-0.1674805,0.4897461-0.4003906
		c0.4985352-2.453125,1.7255859-4.3427734,2.9125977-6.1704102C22.6098633,10.5703125,23.75,8.8139648,23.9575195,6.6899414
		C23.9838867,6.4633789,24,6.2338867,24,6C24,2.6914063,21.3085938,0,18,0z M18,3c1.6542969,0,3,1.3457031,3,3s-1.3457031,3-3,3
		s-3-1.3457031-3-3S16.3457031,3,18,3z"/>
</g>
<g>
</g>
<g>
</g>
<g>
</g>
<g>
</g>
<g>
</g>
<g>
</g>
<g>
</g>
<g>
</g>
<g>
</g>
<g>
</g>
<g>
</g>
<g>
</g>
<g>
</g>
<g>
</g>
<g>
</g>
</svg>
