<?xml version="1.0" encoding="iso-8859-1"?>
<!-- Generator: Adobe Illustrator 21.0.0, SVG Export Plug-In . SVG Version: 6.00 Build 0)  -->
<svg version="1.1" id="Layer_1" xmlns="http://www.w3.org/2000/svg" xmlns:xlink="http://www.w3.org/1999/xlink" x="0px" y="0px"
	 viewBox="0 0 30 30" enable-background="new 0 0 30 30" xml:space="preserve">
<g id="XMLID_1511_">
	
		<circle id="XMLID_1520_" fill="none" stroke="#303C42" stroke-linecap="round" stroke-linejoin="round" stroke-miterlimit="10" cx="29" cy="5" r="0.5"/>
	
		<polyline id="XMLID_1519_" fill="none" stroke="#303C42" stroke-linecap="round" stroke-linejoin="round" stroke-miterlimit="10" points="
		5.5434785,20.5588226 10.5,9.5 11.5,20 	"/>
	<path id="XMLID_1517_" fill="none" stroke="#303C42" stroke-linecap="round" stroke-linejoin="round" stroke-miterlimit="10" d="
		M6.804348,18.0882359"/>
	<path id="XMLID_1516_" fill="none" stroke="#303C42" stroke-linecap="round" stroke-linejoin="round" stroke-miterlimit="10" d="
		M17.8605614,12.9097481c-1.541666-0.956996-3.541666-0.1248255-3.333333,1.3314714
		c0.2141685,1.4970846,2.7499838,1.6227312,2.666667,3.3286791c-0.0629654,1.2890015-1.625,2.7877693-3.333333,1.3314724"/>
	
		<line id="XMLID_1515_" fill="none" stroke="#303C42" stroke-linecap="round" stroke-linejoin="round" stroke-miterlimit="10" x1="21.5403728" y1="7.7083335" x2="19.826086" y2="18.708334"/>
	
		<polyline id="XMLID_1514_" fill="none" stroke="#303C42" stroke-linecap="round" stroke-linejoin="round" stroke-miterlimit="10" points="
		23.826086,11.9861107 21.5403728,15.041667 23.2546577,18.0972214 	"/>
	<path id="XMLID_124_" fill="none" stroke="#303C42" stroke-linecap="round" stroke-linejoin="round" stroke-miterlimit="10" d="
		M6.6642513,18.0882359"/>
	<path id="XMLID_1512_" fill="none" stroke="#303C42" stroke-linecap="round" stroke-linejoin="round" stroke-miterlimit="10" d="
		M9.956522,25.5C21.34375,25.5,29.5,17.2389698,29.5,11.2941179C29.5,8.2058821,26.899456,4.5,20.043478,4.5
		C8.65625,4.5,0.5,12.7610292,0.5,18.705883C0.5,21.794117,3.100528,25.5,9.956522,25.5z"/>
	
		<line fill="none" stroke="#303C42" stroke-linecap="round" stroke-linejoin="round" stroke-miterlimit="10" x1="7.1137452" y1="17.0552979" x2="11.1668539" y2="16.5019665"/>
</g>
<g>
</g>
<g>
</g>
<g>
</g>
<g>
</g>
<g>
</g>
<g>
</g>
<g>
</g>
<g>
</g>
<g>
</g>
<g>
</g>
<g>
</g>
<g>
</g>
<g>
</g>
<g>
</g>
<g>
</g>
</svg>
