<?xml version="1.0" encoding="iso-8859-1"?>
<!-- Generator: Adobe Illustrator 21.0.0, SVG Export Plug-In . SVG Version: 6.00 Build 0)  -->
<svg version="1.1" id="Layer_1" xmlns="http://www.w3.org/2000/svg" xmlns:xlink="http://www.w3.org/1999/xlink" x="0px" y="0px"
	 viewBox="0 0 30 30" enable-background="new 0 0 30 30" xml:space="preserve">
<g id="XMLID_1223_">
	
		<rect id="XMLID_1232_" x="28.5" y="13.5" fill="none" stroke="#303C42" stroke-linecap="round" stroke-linejoin="round" stroke-miterlimit="10" width="1" height="4"/>
	
		<rect id="XMLID_1231_" x="28.5" y="20.5" fill="none" stroke="#303C42" stroke-linecap="round" stroke-linejoin="round" stroke-miterlimit="10" width="1" height="4"/>
	
		<polygon id="XMLID_1230_" fill="none" stroke="#303C42" stroke-linecap="round" stroke-linejoin="round" stroke-miterlimit="10" points="
		28.5,5.5 28.5,4.5 17.5,4.5 17.5,25.5 28.4999046,25.4999046 28.5,10.5 29.5,10.5 29.5,5.5 	"/>
	
		<line id="XMLID_1229_" fill="none" stroke="#303C42" stroke-linecap="round" stroke-linejoin="round" stroke-miterlimit="10" x1="17.5" y1="7.5" x2="25.5" y2="7.5"/>
	
		<line id="XMLID_1130_" fill="none" stroke="#303C42" stroke-linecap="round" stroke-linejoin="round" stroke-miterlimit="10" x1="17.5" y1="10.5" x2="25.5" y2="10.5"/>
	
		<line id="XMLID_1131_" fill="none" stroke="#303C42" stroke-linecap="round" stroke-linejoin="round" stroke-miterlimit="10" x1="17.5" y1="13.5" x2="25.5" y2="13.5"/>
	
		<line id="XMLID_1132_" fill="none" stroke="#303C42" stroke-linecap="round" stroke-linejoin="round" stroke-miterlimit="10" x1="17.5" y1="16.5" x2="25.5" y2="16.5"/>
	
		<line id="XMLID_1133_" fill="none" stroke="#303C42" stroke-linecap="round" stroke-linejoin="round" stroke-miterlimit="10" x1="17.5" y1="19.5" x2="25.5" y2="19.5"/>
	
		<line id="XMLID_1134_" fill="none" stroke="#303C42" stroke-linecap="round" stroke-linejoin="round" stroke-miterlimit="10" x1="17.5" y1="22.5" x2="25.5" y2="22.5"/>
	
		<polyline id="XMLID_1224_" fill="none" stroke="#303C42" stroke-linecap="round" stroke-linejoin="round" stroke-miterlimit="10" points="
		4.5,20.3888893 4.5,10.6111107 11.5,21 11.5,10 	"/>
	
		<polygon id="XMLID_1129_" fill="none" stroke="#303C42" stroke-linecap="round" stroke-linejoin="round" stroke-miterlimit="10" points="
		17.5,0.5 0.5,3.652174 0.5,26.347826 17.5,29.5 	"/>
</g>
<g>
</g>
<g>
</g>
<g>
</g>
<g>
</g>
<g>
</g>
<g>
</g>
<g>
</g>
<g>
</g>
<g>
</g>
<g>
</g>
<g>
</g>
<g>
</g>
<g>
</g>
<g>
</g>
<g>
</g>
</svg>
