<?xml version="1.0" encoding="iso-8859-1"?>
<!-- Generator: Adobe Illustrator 21.0.0, SVG Export Plug-In . SVG Version: 6.00 Build 0)  -->
<svg version="1.1" id="Layer_1" xmlns="http://www.w3.org/2000/svg" xmlns:xlink="http://www.w3.org/1999/xlink" x="0px" y="0px"
	 viewBox="0 0 24 24" enable-background="new 0 0 24 24" xml:space="preserve">
<path fill="#303C42" d="M22,3H2C0.8974609,3,0,3.8969727,0,5v14c0,1.1030273,0.8974609,2,2,2h20c1.1025391,0,2-0.8969727,2-2V5
	C24,3.8969727,23.1025391,3,22,3z M19.9785156,4L12,9.8789063L4.0214844,4H19.9785156z M1,19V5c0-0.5512695,0.4482422-1,1-1
	h0.3356323l9.3674927,6.9023438C11.7919922,10.9672852,11.8955078,11,12,11s0.2080078-0.0327148,0.296875-0.0976563L21.6643677,4H22
	c0.5517578,0,1,0.4487305,1,1v0.748291l-11,8.130127L3.796875,7.8154297
	c-0.1503906-0.112793-0.3535156-0.1298828-0.5224609-0.0444336C3.1064453,7.855957,3,8.0283203,3,8.2172852V20H2
	C1.4482422,20,1,19.5512695,1,19z M20,9.208252V20H4V9.2084961l7.703125,5.6933594
	c0.1757813,0.1308594,0.4179688,0.1308594,0.59375,0L20,9.208252z M22,20h-1V8.4691162l2-1.4782715V19
	C23,19.5512695,22.5517578,20,22,20z"/>
<g>
</g>
<g>
</g>
<g>
</g>
<g>
</g>
<g>
</g>
<g>
</g>
<g>
</g>
<g>
</g>
<g>
</g>
<g>
</g>
<g>
</g>
<g>
</g>
<g>
</g>
<g>
</g>
<g>
</g>
</svg>
