<?xml version="1.0" encoding="iso-8859-1"?>
<!-- Generator: Adobe Illustrator 21.0.0, SVG Export Plug-In . SVG Version: 6.00 Build 0)  -->
<svg version="1.1" id="Layer_1" xmlns="http://www.w3.org/2000/svg" xmlns:xlink="http://www.w3.org/1999/xlink" x="0px" y="0px"
	 viewBox="0 0 24 24" enable-background="new 0 0 24 24" xml:space="preserve">
<g id="XMLID_1320_">
	<path id="XMLID_1321_" fill="none" stroke="#303C42" stroke-linecap="round" stroke-linejoin="round" stroke-miterlimit="10" d="
		M3.1799927,4.6199951C5.289978,2.0999756,8.460022,0.5,12,0.5c1.6300049,0,3.1799927,0.3399658,4.5900269,0.9599609"/>
	<path id="XMLID_1336_" fill="none" stroke="#303C42" stroke-linecap="round" stroke-linejoin="round" stroke-miterlimit="10" d="
		M23.5,12c0,6.3499756-5.1500244,11.5-11.5,11.5S0.5,18.3499756,0.5,12c0-2.0400391,0.539978-3.960022,1.4699707-5.6199951
		C1.3800049,5.539978,1.1699829,3.8800049,2.5,2.5c0,0.5299683,0.3200073,1.4400024,0.6799927,2.1199951
		C3.4699707,5.1599731,3.7803354,5.5513158,4,5.5c0.5007157-0.116972,2.25-0.1199951,2.5,0c0.4099731-0.5300293,1.4099731-2,3-2
		c-0.8900146,0.8900146-3.4400024,4,1,4c0.5,0,1,0,1,0l-3,2c0,0,0.3400269,0.6599731,0,1c-0.3800049-0.3800049-2,0.4099731-2,1.5
		c0,1.0899658,1.1599731,2.5,3.5,2.5s1.75-1,3-1s1.5,1,1.5,1c-1.7199707,0-2.9699707,2-5,2c1,0.7399902,1.6599731,1,3,1
		c3.3099976,0,6-2.6900024,6-6c0-1.3400269-0.4400024-2.5700073-1.1799927-3.5700073
		c1.3399658,1,2.2399902,2.539978,2.3999634,4.289978C19.9000244,11.5199585,20,10.7699585,20,10
		c0-3-1.2000122-7.0200195-3.4099731-8.5400391C20.6599731,3.2299805,23.5,7.2799683,23.5,12z"/>
</g>
<g>
</g>
<g>
</g>
<g>
</g>
<g>
</g>
<g>
</g>
<g>
</g>
<g>
</g>
<g>
</g>
<g>
</g>
<g>
</g>
<g>
</g>
<g>
</g>
<g>
</g>
<g>
</g>
<g>
</g>
</svg>
