<?xml version="1.0" encoding="iso-8859-1"?>
<!-- Generator: Adobe Illustrator 21.0.0, SVG Export Plug-In . SVG Version: 6.00 Build 0)  -->
<svg version="1.1" id="Layer_1" xmlns="http://www.w3.org/2000/svg" xmlns:xlink="http://www.w3.org/1999/xlink" x="0px" y="0px"
	 viewBox="0 0 30 30" enable-background="new 0 0 30 30" xml:space="preserve">
<path fill="none" stroke="#303C42" stroke-linecap="round" stroke-linejoin="round" stroke-miterlimit="10" d="
	M25.4645386,13.7033081C25.486145,13.4714966,25.5,13.2374268,25.5,13c0-4.1421509-3.3578491-7.5-7.5-7.5
	c-3.2202148,0-5.958313,2.0333252-7.0213013,4.8829956C10.2954102,9.8388062,9.4414673,9.5,8.5,9.5c-2.2091675,0-4,1.7908325-4,4
	c0,0.0709229,0.0172119,0.1370239,0.020874,0.2070313C2.2028198,14.3537598,0.5,16.475647,0.5,19c0,3.0375366,2.4624634,5.5,5.5,5.5
	s15.4703979,0,18,0c3.0375366,0,5.5-2.4624634,5.5-5.5C29.5,16.4703369,27.789978,14.3451538,25.4645386,13.7033081z"/>
<g>
</g>
<g>
</g>
<g>
</g>
<g>
</g>
<g>
</g>
<g>
</g>
<g>
</g>
<g>
</g>
<g>
</g>
<g>
</g>
<g>
</g>
<g>
</g>
<g>
</g>
<g>
</g>
<g>
</g>
</svg>
