<?xml version="1.0" encoding="iso-8859-1"?>
<!-- Generator: Adobe Illustrator 21.0.0, SVG Export Plug-In . SVG Version: 6.00 Build 0)  -->
<svg version="1.1" id="Layer_1" xmlns="http://www.w3.org/2000/svg" xmlns:xlink="http://www.w3.org/1999/xlink" x="0px" y="0px"
	 viewBox="0 0 24 24" enable-background="new 0 0 24 24" xml:space="preserve">
<path fill="#303C42" d="M19.3009453,9.5000553l4.5118198-3.6093755c0.1289101-0.1035156,0.1992245-0.2641602,0.1855526-0.4296875
	c-0.0126972-0.1650391-0.1064491-0.3129883-0.2500057-0.3950195L16.7481537,1.065973
	c-0.1855507-0.1069336-0.4199314-0.0820313-0.5800915,0.0605469L12,4.8313537L7.8319373,1.1265199
	C7.6708012,0.9839418,7.4364209,0.9590394,7.2518463,1.065973L0.2516889,5.0659728
	c-0.1435579,0.0820313-0.23731,0.2299805-0.2500056,0.3950195c-0.0136722,0.1655273,0.0566419,0.3261719,0.185551,0.4296875
	l4.5118203,3.6093755l-4.5118203,3.609375c-0.1289092,0.1035156-0.1992232,0.2641602-0.185551,0.4296875
	c0.0126956,0.1650391,0.1064477,0.3129883,0.2500056,0.3950195l4.7481537,2.7131958v1.8527222
	c0,0.1738281,0.0898457,0.3349609,0.2382865,0.4257813l6.5001464,4C11.8183556,22.975153,11.9091778,23.0000553,12,23.0000553
	s0.1816444-0.0249023,0.2617245-0.0742188l6.5001469-4c0.1484394-0.0908203,0.238287-0.2519531,0.238287-0.4257813v-1.8527222
	l4.7481537-2.7131958c0.1435566-0.0820313,0.2373085-0.2299805,0.2500057-0.3950195
	c0.0136719-0.1655273-0.0566425-0.3261719-0.1855526-0.4296875L19.3009453,9.5000553z M11.9997301,12.9132023l-5.5463867-3.413147
	l5.5463867-3.4131474l5.5463858,3.4131474L11.9997301,12.9132023z M16.5632057,2.1123598l6.0498047,3.457031l-4.1513672,3.320313
	L12.834691,5.4268126L16.5632057,2.1123598z M7.4362535,2.1123598l3.7285156,3.3144529L5.537816,8.8897038l-4.1513672-3.320313
	L7.4362535,2.1123598z M5.537816,10.1104069l5.6269531,3.4628906l-3.7285156,3.3144531l-6.0498047-3.4570313L5.537816,10.1104069z
	 M17.9997292,18.2207584l-5.999999,3.6923828l-6-3.6923828v-1.0020142l1.2519531,0.7153931
	c0.0771484,0.0444336,0.1630859,0.065918,0.2480469,0.065918c0.1191406,0,0.2382813-0.0429688,0.3320313-0.1264648
	l4.1679688-3.704834l4.1679678,3.704834c0.09375,0.0834961,0.2128906,0.1264648,0.3320313,0.1264648
	c0.0849609,0,0.1708984-0.0214844,0.2480469-0.065918l1.2519531-0.7153931V18.2207584z M16.5632057,16.8877506l-3.7285147-3.3144531
	l5.6269522-3.4628906l4.1513672,3.3203125L16.5632057,16.8877506z"/>
<g>
</g>
<g>
</g>
<g>
</g>
<g>
</g>
<g>
</g>
<g>
</g>
<g>
</g>
<g>
</g>
<g>
</g>
<g>
</g>
<g>
</g>
<g>
</g>
<g>
</g>
<g>
</g>
<g>
</g>
</svg>
