<?xml version="1.0" encoding="iso-8859-1"?>
<!-- Generator: Adobe Illustrator 21.0.0, SVG Export Plug-In . SVG Version: 6.00 Build 0)  -->
<svg version="1.1" id="Layer_1" xmlns="http://www.w3.org/2000/svg" xmlns:xlink="http://www.w3.org/1999/xlink" x="0px" y="0px"
	 viewBox="0 0 30 30" enable-background="new 0 0 30 30" xml:space="preserve">
<g>
	<path fill="#303C42" d="M29.95368,10.2905273c-0.0291004-0.0624027-5.5604324-7.0996094-5.5604324-7.0996094
		s-0.0004272,0.0004272-0.0008545,0.0007324C24.3125,3.0898438,24.1941566,3.0184937,24.0553646,3.0029297l-8.999815-1
		c-0.0371084-0.0039063-0.0742168-0.0039063-0.1113262,0l-8.999815,1c-0.1389132,0.015564-0.257319,0.0869751-0.3371515,0.1889038
		L5.6065254,3.190918l-5.499887,7c-0.0057982,0.0167847-0.0477895,0.0720215-0.0605456,0.0996094
		c-0.0820296,0.1772461-0.0527333,0.3857422,0.0732407,0.5341797l14.4997015,17C14.714736,27.9360352,14.853405,28,14.9998865,28
		s0.2851505-0.0639648,0.3808517-0.175293l14.4997015-17C30.0064144,10.6762695,30.0362263,10.4675341,29.95368,10.2905273z
		 M24.3102417,6.1685791L27.4449425,10H24.036932L24.3102417,6.1685791z M22.2387524,10H7.7610221l7.2388644-6.8134766
		L22.2387524,10z M5.962841,10h-3.408011l3.1347013-3.8314209L5.962841,10z M7.8086896,12h14.3823948l-7.1911974,14.3818359
		L7.8086896,12z"/>
</g>
<g>
</g>
<g>
</g>
<g>
</g>
<g>
</g>
<g>
</g>
<g>
</g>
<g>
</g>
<g>
</g>
<g>
</g>
<g>
</g>
<g>
</g>
<g>
</g>
<g>
</g>
<g>
</g>
<g>
</g>
</svg>
