<?xml version="1.0" encoding="iso-8859-1"?>
<!-- Generator: Adobe Illustrator 21.0.0, SVG Export Plug-In . SVG Version: 6.00 Build 0)  -->
<svg version="1.1" id="Layer_1" xmlns="http://www.w3.org/2000/svg" xmlns:xlink="http://www.w3.org/1999/xlink" x="0px" y="0px"
	 viewBox="0 0 24 24" enable-background="new 0 0 24 24" xml:space="preserve">
<g>
	<path fill="#303C42" d="M21.8691406,14.1401367C21.9560547,13.8486328,22,13.5507813,22,13.25
		c0-1.7919922-1.4580078-3.25-3.25-3.25c-0.796875,0-1.5629883,0.2998047-2.152832,0.8242188
		C15.7553711,9.6845703,14.4301758,9,13,9c-2.2983398,0-4.2001953,1.7324219-4.4638672,4.0004883C8.5239258,13,8.512207,13,8.5,13
		C6.5703125,13,5,14.5703125,5,16.5S6.5703125,20,8.5,20H21c1.6542969,0,3-1.3457031,3-3
		C24,15.6665039,23.1054688,14.5161133,21.8691406,14.1401367z"/>
	<path fill="#303C42" d="M4,16.5c0-2.0712891,1.4038086-3.8671875,3.4130859-4.3671875
		c0.1674805-0.0419922,0.3012695-0.1665039,0.3549805-0.3305664C8.5083008,9.527832,10.6108398,8,13,8
		c1.2851563,0,2.5351563,0.4570313,3.519043,1.2875977c0.1464844,0.1220703,0.3500977,0.1518555,0.5244141,0.0751953
		c0.4111328-0.1816406,0.8886719-0.2924805,1.4194336-0.3300781c0.1391602-0.0097656,0.2680664-0.0771484,0.3554688-0.1860352
		c0.0869141-0.109375,0.1245117-0.25,0.1035156-0.3876953C18.5283203,5.875,16.3530273,4,13.75,4
		c-1.8261719,0-3.5253906,0.9750977-4.4711914,2.5253906C8.6538086,6.1801758,7.9624023,6,7.25,6C4.9067383,6,3,7.9067383,3,10.25
		c0,0.4365234,0.0708008,0.8676758,0.2109375,1.2885742C1.3974609,11.8007813,0,13.3652344,0,15.25
		C0,17.3178711,1.6821289,19,3.75,19h0.1738281C4.0927734,19,4.25,18.9145508,4.3422852,18.7734375
		c0.0922852-0.1416016,0.1074219-0.3198242,0.0395508-0.4746094C4.128418,17.722168,4,17.1171875,4,16.5z"/>
</g>
<g>
</g>
<g>
</g>
<g>
</g>
<g>
</g>
<g>
</g>
<g>
</g>
<g>
</g>
<g>
</g>
<g>
</g>
<g>
</g>
<g>
</g>
<g>
</g>
<g>
</g>
<g>
</g>
<g>
</g>
</svg>
