<?xml version="1.0" encoding="iso-8859-1"?>
<!-- Generator: Adobe Illustrator 21.0.0, SVG Export Plug-In . SVG Version: 6.00 Build 0)  -->
<svg version="1.1" id="Layer_1" xmlns="http://www.w3.org/2000/svg" xmlns:xlink="http://www.w3.org/1999/xlink" x="0px" y="0px"
	 viewBox="0 0 24 24" enable-background="new 0 0 24 24" xml:space="preserve">
<g>
	<path fill="#303C42" d="M12,20c-0.697937,0-1.3654175-0.1679077-1.9889526-0.4613037
		c1.5193338,1.6092052,3.5121241,2.766058,5.7573318,3.2323246c0.7330608,0.1522369,1.4982224,0.0255642,2.1488705-0.3448563
		C21.5451508,20.3607693,24,16.4647408,24,12c0-4.6537113-2.6670494-8.6895504-6.549633-10.6784782
		c-0.3555832-0.182155-0.7673874-0.2494748-1.162056-0.1873745c-2.4572926,0.3866485-4.641633,1.5947746-6.2772636,3.3271561
		C10.6345825,4.1679077,11.302063,4,12,4c3.3085938,0,6,3.5888672,6,8S15.3085938,20,12,20z"/>
	<path fill="#303C42" d="M6.0495605,12.9784546C6.0199585,12.6570435,6,12.3318481,6,12s0.0199585-0.6570435,0.0495605-0.9784546
		C6.4675903,5.878479,10.1385498,1.6531372,15,0.3948975C14.0391846,0.1461792,13.0375366,0,12,0C5.3828125,0,0,5.3833008,0,12
		s5.3828125,12,12,12c1.0375366,0,2.0391846-0.1461792,3-0.3948975C10.1385498,22.3468628,6.4675903,18.121521,6.0495605,12.9784546
		z"/>
</g>
<g>
</g>
<g>
</g>
<g>
</g>
<g>
</g>
<g>
</g>
<g>
</g>
<g>
</g>
<g>
</g>
<g>
</g>
<g>
</g>
<g>
</g>
<g>
</g>
<g>
</g>
<g>
</g>
<g>
</g>
</svg>
