<?xml version="1.0" encoding="iso-8859-1"?>
<!-- Generator: Adobe Illustrator 21.0.0, SVG Export Plug-In . SVG Version: 6.00 Build 0)  -->
<svg version="1.1" id="Layer_1" xmlns="http://www.w3.org/2000/svg" xmlns:xlink="http://www.w3.org/1999/xlink" x="0px" y="0px"
	 viewBox="0 0 30 30" enable-background="new 0 0 30 30" xml:space="preserve">
<g>
	<circle fill="#303C42" cx="12.5" cy="5.5000939" r="0.5"/>
	<circle fill="#303C42" cx="17.5" cy="5.5000939" r="0.5"/>
	<path fill="#303C42" d="M21.5,10.0000944h-13c-0.2763672,0-0.5,0.2236328-0.5,0.5v11.499999c0,1.1030273,0.8969727,2,2,2v4
		c0,1.1030273,0.8969727,2,2,2s2-0.8969727,2-2v-4h2v4c0,1.1030273,0.8969727,2,2,2s2-0.8969727,2-2v-4c1.1030273,0,2-0.8969727,2-2
		v-11.499999C22,10.2237272,21.7763672,10.0000944,21.5,10.0000944z M21,22.0000935c0,0.5512695-0.4487305,1-1,1h-0.5
		c-0.2763672,0-0.5,0.2236328-0.5,0.5v4.5c0,0.5512695-0.4487305,1-1,1s-1-0.4487305-1-1v-4.5c0-0.2763672-0.2236328-0.5-0.5-0.5h-3
		c-0.2763672,0-0.5,0.2236328-0.5,0.5v4.5c0,0.5512695-0.4487305,1-1,1s-1-0.4487305-1-1v-4.5c0-0.2763672-0.2236328-0.5-0.5-0.5H10
		c-0.5512695,0-1-0.4487305-1-1v-10.999999h12V22.0000935z"/>
	<path fill="#303C42" d="M8.0268555,8.4620085C8.0161133,8.6006804,8.0639648,8.7378874,8.1586914,8.8399382
		s0.2275391,0.1601563,0.3666992,0.1601563h12.9492188c0.1391602,0,0.2719727-0.0581055,0.3666992-0.1601563
		s0.1425781-0.2392578,0.1318359-0.3779297c-0.1773682-2.3252568-1.5053101-4.3223271-3.3921509-5.458374l1.3477173-2.2462158
		c0.1420898-0.2368164,0.0654297-0.5439453-0.1713867-0.6860352c-0.237793-0.1425781-0.5444336-0.0649414-0.6860352,0.1713867
		l-1.3831177,2.3051758C16.8566284,2.1974819,15.9487915,2.0000942,15,2.0000942s-1.8566284,0.1973877-2.6881714,0.5478516
		l-1.3831177-2.3051758c-0.1420898-0.2363281-0.4487305-0.3139648-0.6860352-0.1713867
		c-0.2368164,0.1420898-0.3134766,0.4492188-0.1713867,0.6860352l1.3477173,2.2462158
		C9.5321655,4.1396813,8.2042236,6.1367517,8.0268555,8.4620085z M15,3.0000942c2.9321289,0,5.4301758,2.1562498,5.9101563,5
		H9.0898438C9.5698242,5.1563439,12.0678711,3.0000942,15,3.0000942z"/>
	<path fill="#303C42" d="M5,10.0000944c-1.1030273,0-2,0.8969727-2,2v6.999999c0,1.1030273,0.8969727,2,2,2s2-0.8969727,2-2
		v-6.999999C7,10.8970671,6.1030273,10.0000944,5,10.0000944z M6,19.0000935c0,0.5512695-0.4487305,1-1,1s-1-0.4487305-1-1
		v-6.999999c0-0.5512695,0.4487305-1,1-1s1,0.4487305,1,1V19.0000935z"/>
	<path fill="#303C42" d="M25,10.0000944c-1.1030273,0-2,0.8969727-2,2v6.999999c0,1.1030273,0.8969727,2,2,2s2-0.8969727,2-2
		v-6.999999C27,10.8970671,26.1030273,10.0000944,25,10.0000944z M26,19.0000935c0,0.5512695-0.4487305,1-1,1s-1-0.4487305-1-1
		v-6.999999c0-0.5512695,0.4487305-1,1-1s1,0.4487305,1,1V19.0000935z"/>
</g>
<g>
</g>
<g>
</g>
<g>
</g>
<g>
</g>
<g>
</g>
<g>
</g>
<g>
</g>
<g>
</g>
<g>
</g>
<g>
</g>
<g>
</g>
<g>
</g>
<g>
</g>
<g>
</g>
<g>
</g>
</svg>
