<?xml version="1.0" encoding="iso-8859-1"?>
<!-- Generator: Adobe Illustrator 21.0.0, SVG Export Plug-In . SVG Version: 6.00 Build 0)  -->
<svg version="1.1" id="Layer_1" xmlns="http://www.w3.org/2000/svg" xmlns:xlink="http://www.w3.org/1999/xlink" x="0px" y="0px"
	 viewBox="0 0 24 24" enable-background="new 0 0 24 24" xml:space="preserve">
<g>
	<path fill="#303C42" d="M10.046875,3.7519531C10.6640625,3.9165039,11.3212891,4,12,4s1.3359375-0.0834961,1.953125-0.2480469
		c0.1303711-0.034668,0.2412109-0.1206055,0.3071289-0.2387695c0.0664063-0.1176758,0.081543-0.2573242,0.0429688-0.3867188
		l-0.6113281-2.0541992C13.5039063,0.440918,12.9125977,0,12.2543945,0h-0.5087891
		c-0.6582031,0-1.2495117,0.440918-1.4375,1.0722656L9.6967773,3.1264648
		c-0.0385742,0.1293945-0.0234375,0.269043,0.0429688,0.3867188C9.8056641,3.6313477,9.9165039,3.7172852,10.046875,3.7519531z
		 M11.2661133,1.3574219C11.3300781,1.1435547,11.5224609,1,11.7456055,1h0.5087891
		c0.2231445,0,0.4155273,0.1435547,0.4794922,0.3574219l0.4580078,1.5400391c-0.7666016,0.1357422-1.6171875,0.1357422-2.3837891,0
		L11.2661133,1.3574219z"/>
	<path fill="#303C42" d="M12,14c2.2358398,0,4.6318359-0.5395508,4.9448242-1.7456055
		c0.0229492-0.0878906,0.0214844-0.1806641-0.0048828-0.2680664l-1.222168-4.105957
		c-0.0380859-0.1289063-0.1269531-0.2368164-0.2456055-0.2998047c-0.1196289-0.0625-0.2578125-0.0751953-0.3862305-0.0336914
		c-1.8457031,0.5927734-4.3261719,0.5927734-6.171875,0C8.7856445,7.5053711,8.6474609,7.5180664,8.527832,7.5805664
		C8.4091797,7.6435547,8.3203125,7.7514648,8.2822266,7.8803711l-1.222168,4.105957
		c-0.0263672,0.0874023-0.027832,0.1801758-0.0048828,0.2680664C7.3681641,13.4604492,9.7641602,14,12,14z M9.0986328,8.6416016
		c1.7958984,0.4707031,4.0068359,0.4707031,5.8027344,0l1.0273438,3.4516602C15.6459961,12.4516602,14.2436523,13,12,13
		s-3.6459961-0.5483398-3.9287109-0.9067383L9.0986328,8.6416016z"/>
	<path fill="#303C42" d="M22.8823242,21.6010742l-2.1689453-5.6391602C20.4921875,15.3867188,19.9296875,15,19.3129883,15
		h-1.4335938c-0.1723633,0-0.3325195,0.0888672-0.4238281,0.2348633s-0.1010742,0.3291016-0.0258789,0.4838867
		C17.4770508,15.815918,17.5,15.9077148,17.5,16c0,0.9443359-2.3520508,2-5.5,2s-5.5-1.0556641-5.5-2
		c0-0.0922852,0.0229492-0.184082,0.0703125-0.28125c0.0751953-0.1547852,0.0654297-0.3378906-0.0258789-0.4838867
		S6.2929688,15,6.1206055,15H4.6870117c-0.6166992,0-1.1791992,0.3867188-1.4003906,0.9614258l-2.168457,5.6386719
		C1.0395508,21.8027344,1,22.0161133,1,22.2348633C1,23.2080078,1.7919922,24,2.7651367,24h18.4697266
		C22.2080078,24,23,23.2080078,23,22.2348633C23,22.0166016,22.9604492,21.8037109,22.8823242,21.6010742z M21.2348633,23H2.7651367
		C2.3432617,23,2,22.6567383,2,22.2348633c0-0.0947266,0.0170898-0.1865234,0.0512695-0.2744141l2.1689453-5.6401367
		C4.2939453,16.1289063,4.4814453,16,4.6870117,16H5.5c0,1.7104492,2.7944336,3,6.5,3s6.5-1.2895508,6.5-3h0.8129883
		c0.2055664,0,0.3930664,0.1289063,0.4667969,0.3208008l2.1689453,5.6396484l0.0004883,0.0009766
		C21.9829102,22.0483398,22,22.1401367,22,22.2348633C22,22.6567383,21.6567383,23,21.2348633,23z"/>
</g>
<g>
</g>
<g>
</g>
<g>
</g>
<g>
</g>
<g>
</g>
<g>
</g>
<g>
</g>
<g>
</g>
<g>
</g>
<g>
</g>
<g>
</g>
<g>
</g>
<g>
</g>
<g>
</g>
<g>
</g>
</svg>
