<?xml version="1.0" encoding="iso-8859-1"?>
<!-- Generator: Adobe Illustrator 21.0.0, SVG Export Plug-In . SVG Version: 6.00 Build 0)  -->
<svg version="1.1" id="Layer_1" xmlns="http://www.w3.org/2000/svg" xmlns:xlink="http://www.w3.org/1999/xlink" x="0px" y="0px"
	 viewBox="0 0 30 30" enable-background="new 0 0 30 30" xml:space="preserve">
<g>
	<path fill="#303C42" d="M20.5,15h-11C9.2236328,15,9,15.2236328,9,15.5S9.2236328,16,9.5,16h11c0.2763672,0,0.5-0.2236328,0.5-0.5
		S20.7763672,15,20.5,15z"/>
	<path fill="#303C42" d="M20.5,17h-11C9.2236328,17,9,17.2236328,9,17.5S9.2236328,18,9.5,18h11c0.2763672,0,0.5-0.2236328,0.5-0.5
		S20.7763672,17,20.5,17z"/>
	<path fill="#303C42" d="M20.5,19h-11C9.2236328,19,9,19.2236328,9,19.5S9.2236328,20,9.5,20h11c0.2763672,0,0.5-0.2236328,0.5-0.5
		S20.7763672,19,20.5,19z"/>
	<path fill="#303C42" d="M15.5,21h-6C9.2236328,21,9,21.2236328,9,21.5S9.2236328,22,9.5,22h6c0.2763672,0,0.5-0.2236328,0.5-0.5
		S15.7763672,21,15.5,21z"/>
	<path fill="#303C42" d="M25.8535156,6.1464844l-6-6C19.7597656,0.0527344,19.6328125,0,19.5,0H6C4.8969727,0,4,0.8969727,4,2v26
		c0,1.1030273,0.8969727,2,2,2h18c1.1030273,0,2-0.8969727,2-2V6.5C26,6.3671875,25.9472656,6.2402344,25.8535156,6.1464844z
		 M20,1.7070313L24.2929688,6h-3.2128906C20.484375,6,20,5.515625,20,4.9199219V1.7070313z M24,29H6c-0.5512695,0-1-0.4487305-1-1V2
		c0-0.5512695,0.4487305-1,1-1h13v3.9199219C19,6.0668945,19.9331055,7,21.0800781,7H25v21C25,28.5512695,24.5512695,29,24,29z"/>
</g>
<g>
</g>
<g>
</g>
<g>
</g>
<g>
</g>
<g>
</g>
<g>
</g>
<g>
</g>
<g>
</g>
<g>
</g>
<g>
</g>
<g>
</g>
<g>
</g>
<g>
</g>
<g>
</g>
<g>
</g>
</svg>
