<?xml version="1.0" encoding="iso-8859-1"?>
<!-- Generator: Adobe Illustrator 21.0.0, SVG Export Plug-In . SVG Version: 6.00 Build 0)  -->
<svg version="1.1" id="Layer_1" xmlns="http://www.w3.org/2000/svg" xmlns:xlink="http://www.w3.org/1999/xlink" x="0px" y="0px"
	 viewBox="0 0 24 24" enable-background="new 0 0 24 24" xml:space="preserve">
<path fill="#303C42" d="M21,1H3C1.8969727,1,1,1.8969727,1,3v18c0,1.1030273,0.8969727,2,2,2h18c1.1030273,0,2-0.8969727,2-2V3
	C23,1.8969727,22.1030273,1,21,1z M11.5,20c-3.1479492,0-5.1459961-1.0126953-5.2294922-1.0556641
	C6.1044922,18.8583984,6,18.6870117,6,18.5v-3c0-0.1547852,0.0717773-0.3007813,0.1938477-0.3955078
	c0.1225586-0.0952148,0.2817383-0.1279297,0.4316406-0.0883789C7.6806641,15.2895508,10.612793,16,11.5,16
	c0.8691406,0,1.5-0.4204102,1.5-1c0-0.324707,0-1-1.5-1C9.3735352,14,6,12.6425781,6,9c0-3.2475586,3.0913086-5,6-5
	c2.8666992,0,5.1118164,1.0019531,5.2060547,1.0444336C17.3852539,5.1254883,17.5,5.3037109,17.5,5.5v3
	c0,0.1621094-0.0786133,0.3139648-0.2109375,0.4077148c-0.1318359,0.0942383-0.3012695,0.1181641-0.4541016,0.0639648
	C16.8071289,8.9624023,14.0410156,8,12.5,8C11,8,11,8.7524414,11,9s0,1,2.5,1c2.2363281,0,4.5,1.7172852,4.5,5
	C18,18.0375977,15.4487305,20,11.5,20z"/>
<g>
</g>
<g>
</g>
<g>
</g>
<g>
</g>
<g>
</g>
<g>
</g>
<g>
</g>
<g>
</g>
<g>
</g>
<g>
</g>
<g>
</g>
<g>
</g>
<g>
</g>
<g>
</g>
<g>
</g>
</svg>
