<?xml version="1.0" encoding="iso-8859-1"?>
<!-- Generator: Adobe Illustrator 21.0.0, SVG Export Plug-In . SVG Version: 6.00 Build 0)  -->
<svg version="1.1" id="Layer_1" xmlns="http://www.w3.org/2000/svg" xmlns:xlink="http://www.w3.org/1999/xlink" x="0px" y="0px"
	 viewBox="0 0 30 30" enable-background="new 0 0 30 30" xml:space="preserve">
<g>
	<path fill="#303C42" d="M30,7c0-3.859375-3.1401367-7-7-7c-1.9017944,0-3.6266479,0.7648315-4.8894653,2H2
		C0.8969727,2,0,2.8974609,0,4v24c0,1.1025391,0.8969727,2,2,2h24c1.1030273,0,2-0.8974609,2-2V11.8894653
		C29.2352295,10.6265869,30,8.9016724,30,7z M27,17.8102417l-3.5214844,3.9612427l-4.1461182-4.1461182
		C20.4854736,17.2646484,21.8154907,17,23.3261719,17C24.5930176,17,25.9753418,17.15625,27,17.3981323V17.8102417z M27,16.3729248
		C25.9282227,16.1450195,24.5702515,16,23.3261719,16c-3.4514771,0-6.0873413,1.2099609-7.6293335,2.1625366l4.6779785-4.6779785
		C21.1864014,13.8143921,22.0714111,14,23,14c1.4872437,0,2.8649292-0.4697876,4-1.2637939V16.3729248z M23,1
		c3.3085938,0,6,2.6914063,6,6s-2.6914063,6-6,6s-6-2.6914063-6-6S19.6914063,1,23,1z M2,3h15.2637939
		C16.4697876,4.1351318,16,5.5128784,16,7c0,0.9286499,0.18573,1.8137817,0.515625,2.6254883L1,25.140625V4
		C1,3.4482422,1.4487305,3,2,3z M1,28v-1.4453125l15.9880371-15.9875488
		c0.5987549,1.005188,1.4399414,1.8462524,2.4451294,2.4450073L3.4453125,29H2C1.4487305,29,1,28.5517578,1,28z M14,19.859375V29
		H4.859375L14,19.859375z M26,29H15v-9.1181641c0.4008789-0.3305664,1.5640259-1.1893921,3.2886963-1.8861084l4.8577881,4.8577881
		C23.2402344,22.9472656,23.3676758,23,23.5,23c0.0048828,0,0.0097656,0,0.0146484,0
		c0.1376953-0.0039063,0.2675781-0.0644531,0.3588867-0.1679688L27,19.3147583V28C27,28.5517578,26.5512695,29,26,29z"/>
	<path fill="#303C42" d="M7,13c2.2055664,0,4-1.7939453,4-4c0-0.2763672-0.2236328-0.5-0.5-0.5H7.7001953
		c-0.2763672,0-0.5,0.2236328-0.5,0.5s0.2236328,0.5,0.5,0.5h2.2583008C9.7197266,10.9169922,8.4838867,12,7,12
		c-1.6542969,0-3-1.3457031-3-3s1.3457031-3,3-3c0.65625,0,1.2797852,0.2080078,1.8017578,0.6005859
		c0.2211914,0.1669922,0.5341797,0.1220703,0.7001953-0.0986328s0.1220703-0.5341797-0.0986328-0.7001953
		C8.7060547,5.2773438,7.875,5,7,5C4.7944336,5,3,6.7939453,3,9S4.7944336,13,7,13z"/>
</g>
<g>
</g>
<g>
</g>
<g>
</g>
<g>
</g>
<g>
</g>
<g>
</g>
<g>
</g>
<g>
</g>
<g>
</g>
<g>
</g>
<g>
</g>
<g>
</g>
<g>
</g>
<g>
</g>
<g>
</g>
</svg>
