<?xml version="1.0" encoding="iso-8859-1"?>
<!-- Generator: Adobe Illustrator 21.0.0, SVG Export Plug-In . SVG Version: 6.00 Build 0)  -->
<svg version="1.1" id="Layer_1" xmlns="http://www.w3.org/2000/svg" xmlns:xlink="http://www.w3.org/1999/xlink" x="0px" y="0px"
	 viewBox="0 0 24 24" enable-background="new 0 0 24 24" xml:space="preserve">
<g>
	<path fill="#303C42" d="M19.3009644,9.5000553l4.5117798-3.6093755c0.1289063-0.1035156,0.1992188-0.2641602,0.1855469-0.4296875
		c-0.0126953-0.1650391-0.1064453-0.3129883-0.25-0.3950195L16.7481689,1.065973
		c-0.1855469-0.1069336-0.4199219-0.0820313-0.5800781,0.0605469L12,4.8313537L7.8319092,1.1265199
		C7.6707764,0.9839418,7.4364014,0.9590394,7.2518311,1.065973L0.251709,5.0659728
		c-0.1435547,0.0820313-0.2373047,0.2299805-0.25,0.3950195c-0.0136719,0.1655273,0.0566406,0.3261719,0.1855469,0.4296875
		l4.5117798,3.6093755l-4.5117798,3.609375c-0.1289063,0.1035156-0.1992188,0.2641602-0.1855469,0.4296875
		c0.0126953,0.1650391,0.1064453,0.3129883,0.25,0.3950195l7.0001221,4c0.0771484,0.0444336,0.1630859,0.065918,0.2480469,0.065918
		c0.1191406,0,0.2382813-0.0429688,0.3320313-0.1264648L12,14.1687565l4.1680908,3.704834
		c0.09375,0.0834961,0.2128906,0.1264648,0.3320313,0.1264648c0.0849609,0,0.1708984-0.0214844,0.2480469-0.065918l7.0001221-4
		c0.1435547-0.0820313,0.2373047-0.2299805,0.25-0.3950195c0.0136719-0.1655273-0.0566406-0.3261719-0.1855469-0.4296875
		L19.3009644,9.5000553z M12,12.9132023l-5.5465088-3.413147L12,6.0869079l5.5465088,3.4131474L12,12.9132023z"/>
	<path fill="#303C42" d="M18.2382813,18.0742741l-1.4403076,0.8863525c-0.527771,0.1108398-0.9508057-0.0343018-1.2949829-0.3394775
		l-3.1709595-2.8188477c-0.1894531-0.1689453-0.4746094-0.1689453-0.6640625,0l-3.1709595,2.8183594
		c-0.3442383,0.3056641-0.7663574,0.4508057-1.2949829,0.3399048l-1.4403076-0.8862915
		c-0.2314453-0.1435547-0.5410156-0.0722656-0.6875,0.1635742c-0.1445313,0.2353516-0.0712891,0.543457,0.1640625,0.6879883l6.5,4
		C11.8183594,22.975153,11.9091797,23.0000553,12,23.0000553s0.1816406-0.0249023,0.2617188-0.0742188l6.5-4
		c0.2353516-0.1445313,0.3085938-0.4526367,0.1640625-0.6879883C18.7802734,18.0020084,18.4697266,17.9307194,18.2382813,18.0742741
		z"/>
</g>
<g>
</g>
<g>
</g>
<g>
</g>
<g>
</g>
<g>
</g>
<g>
</g>
<g>
</g>
<g>
</g>
<g>
</g>
<g>
</g>
<g>
</g>
<g>
</g>
<g>
</g>
<g>
</g>
<g>
</g>
</svg>
