<?xml version="1.0" encoding="iso-8859-1"?>
<!-- Generator: Adobe Illustrator 21.0.0, SVG Export Plug-In . SVG Version: 6.00 Build 0)  -->
<svg version="1.1" id="Layer_1" xmlns="http://www.w3.org/2000/svg" xmlns:xlink="http://www.w3.org/1999/xlink" x="0px" y="0px"
	 viewBox="0 0 24 24" enable-background="new 0 0 24 24" xml:space="preserve">
<path fill="#303C42" d="M22,4h-9.7741699l-1.2526855-3.6616211C10.9038086,0.1357422,10.7138672,0,10.5,0H2
	C0.8969727,0,0,0.8969727,0,2v16c0,1.1030273,0.8969727,2,2,2h9.6533203l1.378418,3.6757813
	C13.1049805,23.8706055,13.2915039,24,13.5,24H22c1.1030273,0,2-0.8969727,2-2V6C24,4.8969727,23.1030273,4,22,4z M7.5,15
	C5.0185547,15,3,12.9814453,3,10.5S5.0185547,6,7.5,6c1.0722656,0,2.1113281,0.3837891,2.9248047,1.0800781
	c0.2099609,0.1796875,0.234375,0.4951172,0.0546875,0.7050781C10.2993164,7.996582,9.984375,8.019043,9.7744141,7.8398438
	C9.1420898,7.2983398,8.3339844,7,7.5,7C5.5703125,7,4,8.5703125,4,10.5S5.5703125,14,7.5,14
	c1.7602539,0,3.2211914-1.3061523,3.4643555-3H7.5C7.2236328,11,7,10.7763672,7,10.5S7.2236328,10,7.5,10h4
	c0.2763672,0,0.5,0.2236328,0.5,0.5C12,12.9814453,9.9814453,15,7.5,15z M19.4003296,11
	c-0.2365112,0.7894287-0.9160767,2.0952148-1.8649902,3.2930298c-0.5110474-0.5839233-0.927124-1.1244507-1.0719604-1.4810181
	c-0.1040039-0.2563477-0.3964844-0.3789063-0.6513672-0.2753906c-0.2558594,0.1040039-0.3793945,0.3955078-0.2753906,0.6513672
	c0.1993408,0.4907837,0.7245483,1.1732788,1.3353271,1.866333c-0.2094116,0.2197266-0.4260864,0.4249878-0.6525879,0.6191406
	L14.6205444,11H19.4003296z M23,22c0,0.5512695-0.4487305,1-1,1h-7.3980713l2.7745361-3.1708984
	c0.119812-0.1368408,0.1430664-0.3188477,0.0911255-0.4805298c-0.0006714-0.0047607,0.0074463-0.0047607,0.0055542-0.0101929
	l-0.9087524-2.6563721c0.3388062-0.2658691,0.6650391-0.5657959,0.9793701-0.8942261
	c0.9603271,1.0123901,1.9286499,1.9071045,2.1188354,2.0808716C19.7583008,17.956543,19.8793945,18,20,18
	c0.1352539,0,0.2700195-0.0546875,0.3686523-0.1621094c0.1865234-0.2041016,0.1728516-0.5200195-0.0307617-0.706543
	c-0.4680786-0.4286499-1.3305054-1.2530518-2.1286011-2.0968018C19.3474121,13.6314087,20.1936035,12.0231323,20.4256592,11H21.5
	c0.2763672,0,0.5-0.2236328,0.5-0.5S21.7763672,10,21.5,10H18V9.5C18,9.2236328,17.7763672,9,17.5,9S17,9.2236328,17,9.5V10h-2.5
	c-0.0738525,0-0.1425781,0.0178833-0.2056274,0.0465698L12.5679321,5H22c0.5512695,0,1,0.4487305,1,1V22z"/>
<g>
</g>
<g>
</g>
<g>
</g>
<g>
</g>
<g>
</g>
<g>
</g>
<g>
</g>
<g>
</g>
<g>
</g>
<g>
</g>
<g>
</g>
<g>
</g>
<g>
</g>
<g>
</g>
<g>
</g>
</svg>
