<?xml version="1.0" encoding="iso-8859-1"?>
<!-- Generator: Adobe Illustrator 21.0.0, SVG Export Plug-In . SVG Version: 6.00 Build 0)  -->
<svg version="1.1" id="Layer_1" xmlns="http://www.w3.org/2000/svg" xmlns:xlink="http://www.w3.org/1999/xlink" x="0px" y="0px"
	 viewBox="0 0 30 30" enable-background="new 0 0 30 30" xml:space="preserve">
<g>
	<path fill="#303C42" d="M15,12c2.2055664,0,4-1.7939453,4-4c0-0.2763672-0.2236328-0.5-0.5-0.5h-2.7998047
		c-0.2763672,0-0.5,0.2236328-0.5,0.5s0.2236328,0.5,0.5,0.5h2.2583008C17.7197266,9.9169922,16.4838867,11,15,11
		c-1.6542969,0-3-1.3457031-3-3s1.3457031-3,3-3c0.65625,0,1.2797852,0.2080078,1.8017578,0.6005859
		c0.2211914,0.1679688,0.5341797,0.1220703,0.7001953-0.0986328s0.1220703-0.5341797-0.0986328-0.7001953
		C16.7060547,4.2773438,15.875,4,15,4c-2.2055664,0-4,1.7939453-4,4S12.7944336,12,15,12z"/>
	<path fill="#303C42" d="M26,11h-4.0262451C21.9785767,10.9156494,22,10.8339233,22,10.7490234V2c0-1.1030273-0.8969727-2-2-2H10
		C8.8969727,0,8,0.8969727,8,2v8.7490234C8,10.8339233,8.0214233,10.9156494,8.0262451,11H4c-1.1030273,0-2,0.8974609-2,2v15
		c0,1.1025391,0.8969727,2,2,2h22c1.1030273,0,2-0.8974609,2-2V13C28,11.8974609,27.1030273,11,26,11z M21,14.5V17
		c0,0.2763672-0.2236328,0.5-0.5,0.5H18c-0.2763672,0-0.5-0.2236328-0.5-0.5v-0.1276855l3.0517578-2.817627
		c0.0123901-0.0114136,0.020813-0.026062,0.0330811-0.0375977C20.8190918,14.0587158,21,14.2537231,21,14.5z M13,20
		c0-0.2763672,0.2236328-0.5,0.5-0.5H16c0.2763672,0,0.5,0.2236328,0.5,0.5v2.5c0,0.2763672-0.2236328,0.5-0.5,0.5h-2.5
		c-0.2763672,0-0.5-0.2236328-0.5-0.5V20z M17.5,20c0-0.2763672,0.2236328-0.5,0.5-0.5h2.5c0.2763672,0,0.5,0.2236328,0.5,0.5v2.5
		c0,0.2763672-0.2236328,0.5-0.5,0.5H18c-0.2763672,0-0.5-0.2236328-0.5-0.5V20z M9,2c0-0.5517578,0.4487305-1,1-1h10
		c0.5512695,0,1,0.4482422,1,1v8.7490234c0,0.9736328-0.4106445,1.9111328-1.1259766,2.5712891h-0.0004883L15,17.8193359
		l-4.8740234-4.4990234C9.4106445,12.6601563,9,11.7226563,9,10.7490234V2z M9.4477539,14.0546875L12,16.4108887V17
		c0,0.2763672-0.2236328,0.5-0.5,0.5H9c-0.2763672,0-0.5-0.2236328-0.5-0.5v-2.5C8.5,14.2236328,8.7236328,14,9,14h0.3996582
		C9.4173584,14.0169067,9.4297485,14.0380859,9.4477539,14.0546875z M12,20v2.5c0,0.2763672-0.2236328,0.5-0.5,0.5H9
		c-0.2763672,0-0.5-0.2236328-0.5-0.5V20c0-0.2763672,0.2236328-0.5,0.5-0.5h2.5C11.7763672,19.5,12,19.7236328,12,20z M4,14.5
		C4,14.2236328,4.2236328,14,4.5,14H7c0.2763672,0,0.5,0.2236328,0.5,0.5V17c0,0.2763672-0.2236328,0.5-0.5,0.5H4.5
		C4.2236328,17.5,4,17.2763672,4,17V14.5z M4,22.5V20c0-0.2763672,0.2236328-0.5,0.5-0.5H7c0.2763672,0,0.5,0.2236328,0.5,0.5v2.5
		C7.5,22.7763672,7.2763672,23,7,23H4.5C4.2236328,23,4,22.7763672,4,22.5z M23,27.5c0,0.2763672-0.2236328,0.5-0.5,0.5H7
		c-0.2763672,0-0.5-0.2236328-0.5-0.5v-3C6.5,24.2236328,6.7236328,24,7,24h15.5c0.2763672,0,0.5,0.2236328,0.5,0.5V27.5z
		 M25.5,22.5c0,0.2763672-0.2236328,0.5-0.5,0.5h-2.5c-0.2763672,0-0.5-0.2236328-0.5-0.5V20c0-0.2763672,0.2236328-0.5,0.5-0.5H25
		c0.2763672,0,0.5,0.2236328,0.5,0.5V22.5z M25.5,17c0,0.2763672-0.2236328,0.5-0.5,0.5h-2.5c-0.2763672,0-0.5-0.2236328-0.5-0.5
		v-2.5c0-0.2763672,0.2236328-0.5,0.5-0.5H25c0.2763672,0,0.5,0.2236328,0.5,0.5V17z"/>
</g>
<g>
</g>
<g>
</g>
<g>
</g>
<g>
</g>
<g>
</g>
<g>
</g>
<g>
</g>
<g>
</g>
<g>
</g>
<g>
</g>
<g>
</g>
<g>
</g>
<g>
</g>
<g>
</g>
<g>
</g>
</svg>
