<?xml version="1.0" encoding="iso-8859-1"?>
<!-- Generator: Adobe Illustrator 21.0.0, SVG Export Plug-In . SVG Version: 6.00 Build 0)  -->
<svg version="1.1" id="Layer_1" xmlns="http://www.w3.org/2000/svg" xmlns:xlink="http://www.w3.org/1999/xlink" x="0px" y="0px"
	 viewBox="0 0 24 24" enable-background="new 0 0 24 24" xml:space="preserve">
<path fill="#303C42" d="M20.9262695,19.0742188c-0.2070313-0.1357422-0.4213867-0.2763672-0.5727539-0.4277344
	c-0.0883789-0.0883789-0.0478516-0.4970703-0.0263672-0.7167969c0.0415039-0.421875,0.0844727-0.8574219-0.1992188-1.1704102
	c-0.0360107-0.0397949-0.0986938-0.0784912-0.1565552-0.1172485C19.9853516,16.4384155,20,16.2368164,20,16
	c0-3.246582-1.4956055-5.1196289-2.6972656-6.625C16.5751953,8.4633789,16,7.7431641,16,7l0.0009766-0.2329102
	c0.0078125-1.3803711,0.0239258-4.253418-1.5019531-5.7880859C13.8530273,0.3295898,13.012207,0,12,0
	C9.8994141,0,8.5,1.0205078,8.5,6c0,1.3706055-0.5766602,2.4931641-1.1870117,3.6816406
	c-0.2675781,0.5209961-0.5444336,1.0600586-0.7763672,1.6298828c-0.4187622,1.0296631-1.3328247,3.399231-1.5014648,4.7835693
	c-0.5404663,0.227417-0.6967773,0.8345337-0.784668,1.1973877c-0.0302734,0.1245117-0.0761719,0.3120117-0.0805664,0.3339844
	c-0.0742188,0.0458984-0.3535156,0.1010742-0.5380859,0.1376953C3.0214844,17.8852539,2,18.0874023,2,19
	c0,0.265625,0.0395508,0.4912109,0.0830078,0.7260742C2.1601563,20.1420898,2.2329102,20.534668,2.0161133,21.375
	C2.0053711,21.4155273,2,21.4580078,2,21.5c0,1.2021484,1.8671875,1.3579102,2.9829102,1.4506836
	c0.1855469,0.015625,0.3398438,0.0273438,0.4389648,0.0429688c0.1538086,0.0244141,0.4760742,0.1728516,0.7875977,0.3164063
	C6.8759766,23.6176758,7.7055664,24,8.5,24c0.3424072,0,0.6345215-0.145874,0.862854-0.3851929
	c0.0172729-0.0146484,0.0386963-0.0218506,0.0541382-0.0391235C9.6391602,23.328125,11.1118164,23,12,23h3.0606689
	c0.0551147,0.192749,0.1345215,0.3848877,0.2879639,0.5532227C15.6186523,23.8496094,16.0058594,24,16.5,24
	c1.2978516,0,1.9272461-0.6689453,2.5356445-1.3154297c0.1025391-0.109375,0.2075195-0.2207031,0.3178711-0.3310547
	c0.253418-0.253418,0.7490234-0.434082,1.1865234-0.59375C21.2578125,21.4975586,22,21.2265625,22,20.5
	C22,19.7788086,21.4047852,19.3881836,20.9262695,19.0742188z M13,3c0.5795898,0,1,0.6220703,1,1.4790039
	c0,0.7624512-0.333374,1.3359985-0.8145142,1.4543457c0.1721191-0.1138306,0.2929688-0.3773804,0.2929688-0.6848755
	c0-0.411499-0.2159424-0.7451172-0.4823608-0.7451172s-0.4823608,0.3336182-0.4823608,0.7451172
	c0,0.3067627,0.1203613,0.5693359,0.2918091,0.6836548C12.3290405,5.809082,12,5.2368774,12,4.4790039
	C12,3.6220703,12.4204102,3,13,3z M13.4425659,6.8795166c-0.4033203,0.5283203-2.1049194,1.0834961-2.4303589,1.1209717
	C10.6669922,7.9614258,9.59375,7.2631836,9.4956055,7.0356445c0.0947266-0.2866211,1.2011719-1.0058594,1.9580078-1.034668
	C12,6,13.3059082,6.6156616,13.4425659,6.8795166z M10,3c0.5795898,0,1,0.6220703,1,1.4790039
	c0,0.7601929-0.3312378,1.3330078-0.8100586,1.4537354c0.171814-0.1139526,0.2924194-0.3771362,0.2924194-0.6842651
	c0-0.411499-0.2159424-0.7451172-0.4823608-0.7451172S9.5176392,4.8369751,9.5176392,5.2484741
	c0,0.3071289,0.1206055,0.5703125,0.2924194,0.6842651C9.3312378,5.8120117,9,5.2391968,9,4.4790039C9,3.6220703,9.4204102,3,10,3z
	 M8.7685547,22.7133789C8.7084961,22.9033203,8.6186523,23,8.5,23c-0.5751953,0-1.2939453-0.331543-1.8720703-0.5976563
	c-0.4243164-0.1958008-0.7592773-0.3505859-1.0498047-0.3959961c-0.1157227-0.0185547-0.2954102-0.0341797-0.512207-0.0522461
	c-1.4892578-0.1240234-1.9453125-0.3046875-2.0537109-0.4418945c0.2368164-0.9829102,0.1357422-1.527832,0.0541992-1.9682617
	C3.0336914,19.3676758,3,19.1992188,2.9946289,19.0092773c0.0830078-0.1157227,0.5883789-0.2158203,0.831543-0.2641602
	c0.425293-0.0839844,0.7924805-0.1567383,1.0273438-0.3916016c0.222168-0.2216797,0.2963867-0.5283203,0.3686523-0.824707
	C5.3505859,17,5.4038086,17,5.4697266,16.9951172c0.1767578,0.0791016,0.4921875,0.7392578,0.7011719,1.1762695
	c0.390625,0.8178711,0.8334961,1.7446289,1.543457,2.2387695C8.7202148,21.1108398,8.9360352,22.1787109,8.7685547,22.7133789z
	 M15.1362305,19.7009888c-1.4706421,1.4830322-4.4118652,1.3833618-5.7052612,1.1768188
	c-0.2506714-0.4736938-0.6253662-0.9259644-1.1453247-1.2879639c-0.4926758-0.3432617-0.875-1.1435547-1.2124023-1.8496094
	c-0.3257446-0.6814575-0.6207275-1.2914429-1.0437012-1.5733032c0.1392822-1.0388184,0.8294678-2.9935913,1.4338379-4.4784546
	c0.2148438-0.5292969,0.4814453-1.0483398,0.7392578-1.5498047C8.5454712,9.4708862,8.8910522,8.7890015,9.140686,8.0525513
	C9.7478638,8.588623,10.62146,9,11,9c0.2092285,0,1.8739014-0.5585938,2.8296509-1.1994629
	c1.9204712,3.9281616,2.1564941,6.5164185,2.168457,8.9494019C15.5148926,17.2728882,15.2653809,18.5356445,15.1362305,19.7009888z
	 M20.1967773,20.8203125c-0.534668,0.1953125-1.140625,0.4160156-1.550293,0.8261719
	c-0.1176758,0.1176758-0.2294922,0.2363281-0.3388672,0.3530273C17.7607422,22.5800781,17.3657227,23,16.5,23
	c-0.2006836,0-0.3393555-0.0405273-0.4121094-0.1201172c-0.1499023-0.1650391-0.1137695-0.5561523-0.0981445-0.7231445
	C15.9960938,22.0888672,16,22.034668,16,22.0004883c0.0018921-0.2954712,0.2825928-3.1323853,0.3690186-3.5842896
	c0.0401611,0.057373,0.0797119,0.1151123,0.1290283,0.1672974C16.7558594,18.855957,17.1020508,19,17.5,19l0.1762695,0.0009766
	c0.0561523,0.0004883,0.112793,0.0009766,0.1704102,0.0009766c0.4997559,0,1.0383911-0.0415039,1.465271-0.4483643
	c0.0254517,0.2883911,0.1088257,0.5742188,0.3345337,0.7999268c0.2241211,0.2241211,0.4936523,0.4008789,0.7314453,0.5571289
	C20.7539063,20.1572266,21,20.3310547,21.0161133,20.4404297C20.9360352,20.550293,20.4912109,20.7128906,20.1967773,20.8203125z"/>
<g>
</g>
<g>
</g>
<g>
</g>
<g>
</g>
<g>
</g>
<g>
</g>
<g>
</g>
<g>
</g>
<g>
</g>
<g>
</g>
<g>
</g>
<g>
</g>
<g>
</g>
<g>
</g>
<g>
</g>
</svg>
