<?xml version="1.0" encoding="iso-8859-1"?>
<!-- Generator: Adobe Illustrator 21.0.0, SVG Export Plug-In . SVG Version: 6.00 Build 0)  -->
<svg version="1.1" id="Layer_1" xmlns="http://www.w3.org/2000/svg" xmlns:xlink="http://www.w3.org/1999/xlink" x="0px" y="0px"
	 viewBox="0 0 24 24" enable-background="new 0 0 24 24" xml:space="preserve">
<path fill="#303C42" d="M23.9355469,18.7548828l-9-16C14.8476563,2.5976563,14.6806641,2.5,14.5,2.5h-1.2929688
	l-0.3535156-0.3535156C12.7597656,2.0527344,12.6328125,2,12.5,2h-3C9.3193359,2,9.1523438,2.0976563,9.0644531,2.2548828
	L7.2851563,5.4174805C7.2158203,5.5405273,7.2021484,5.6870117,7.2460938,5.8208008L7.4570313,6.453125L4.125,12.6420898l-1.25,0.75
	C2.7998047,13.4365234,2.7382813,13.5,2.6962891,13.5756836l-2.6318359,4.6791992
	c-0.0878906,0.1567383-0.0859375,0.3481445,0.0068359,0.5024414l1.5,2.5C1.6611328,21.4077148,1.8242188,21.5,2,21.5h0.5
	C2.5,21.7763672,2.7236328,22,3,22h19c0.1757813,0,0.3388672-0.0922852,0.4287109-0.2426758l1.5-2.5
	C24.0214844,19.1030273,24.0234375,18.9116211,23.9355469,18.7548828z M10.0527344,17.7236328L10.1914063,18H6.3417969
	l5.1601563-9.4589844L16.1542969,17H10.5c-0.1728516,0-0.3339844,0.0898438-0.4257813,0.2373047
	C9.9833984,17.3847656,9.9755859,17.5688477,10.0527344,17.7236328z"/>
<g>
</g>
<g>
</g>
<g>
</g>
<g>
</g>
<g>
</g>
<g>
</g>
<g>
</g>
<g>
</g>
<g>
</g>
<g>
</g>
<g>
</g>
<g>
</g>
<g>
</g>
<g>
</g>
<g>
</g>
</svg>
