<?xml version="1.0" encoding="iso-8859-1"?>
<!-- Generator: Adobe Illustrator 21.0.0, SVG Export Plug-In . SVG Version: 6.00 Build 0)  -->
<svg version="1.1" id="Layer_1" xmlns="http://www.w3.org/2000/svg" xmlns:xlink="http://www.w3.org/1999/xlink" x="0px" y="0px"
	 viewBox="0 0 30 30" enable-background="new 0 0 30 30" xml:space="preserve">
<g>
	<rect x="14" y="13" fill="#303C42" width="6" height="2"/>
	<rect x="14" y="16" fill="#303C42" width="6" height="2"/>
	<rect x="10" y="16" fill="#303C42" width="3" height="2"/>
	<rect x="10" y="13" fill="#303C42" width="3" height="2"/>
	<path fill="#303C42" d="M25.8529053,6.145874L19.854126,0.1470947C19.7636108,0.0562744,19.6384888,0,19.5,0H6
		C4.8969727,0,4,0.8969727,4,2v26c0,1.1030273,0.8969727,2,2,2h18c1.1030273,0,2-0.8969727,2-2V6.5
		C26,6.3615112,25.9437256,6.2363892,25.8529053,6.145874z M21,21.5c0,0.2763672-0.2236328,0.5-0.5,0.5h-11
		C9.2236328,22,9,21.7763672,9,21.5v-9C9,12.2236328,9.2236328,12,9.5,12h11c0.2763672,0,0.5,0.2236328,0.5,0.5V21.5z M21.0800781,6
		C20.484375,6,20,5.515625,20,4.9199219V1.7070313L24.2929688,6H21.0800781z"/>
	<rect x="10" y="19" fill="#303C42" width="3" height="2"/>
	<rect x="14" y="19" fill="#303C42" width="6" height="2"/>
</g>
<g>
</g>
<g>
</g>
<g>
</g>
<g>
</g>
<g>
</g>
<g>
</g>
<g>
</g>
<g>
</g>
<g>
</g>
<g>
</g>
<g>
</g>
<g>
</g>
<g>
</g>
<g>
</g>
<g>
</g>
</svg>
