<?xml version="1.0" encoding="iso-8859-1"?>
<!-- Generator: Adobe Illustrator 21.0.0, SVG Export Plug-In . SVG Version: 6.00 Build 0)  -->
<svg version="1.1" id="Layer_1" xmlns="http://www.w3.org/2000/svg" xmlns:xlink="http://www.w3.org/1999/xlink" x="0px" y="0px"
	 viewBox="0 0 30 30" enable-background="new 0 0 30 30" xml:space="preserve">
<g>
	<path fill="#303C42" d="M9.7202148,21.9589844c0.5302734,0.1542969,1.0854492-0.1499023,1.2397461-0.6801758L11.6246948,19
		h3.7503662l0.664978,2.2797852c0.1274414,0.4370117,0.5263672,0.7207031,0.9594727,0.7207031
		c0.0927734,0,0.1870117-0.0131836,0.2802734-0.0405273c0.5302734-0.1547852,0.8349609-0.7099609,0.6801758-1.2397461l-3.5-12
		C14.3354492,8.293457,13.9443359,8,13.5,8s-0.8354492,0.293457-0.9599609,0.7202148l-3.5,11.9990234
		C8.8852539,21.2490234,9.1899414,21.8041992,9.7202148,21.9589844z M13.5,12.5712891L14.791748,17h-2.5836182L13.5,12.5712891z"/>
	<circle fill="#303C42" cx="20" cy="10" r="1"/>
	<path fill="#303C42" d="M27,2H3C2.4477539,2,2,2.4477539,2,3v24c0,0.5522461,0.4477539,1,1,1h24c0.5522461,0,1-0.4477539,1-1V3
		C28,2.4477539,27.5522461,2,27,2z M26,26H4V4h22V26z"/>
	<path fill="#303C42" d="M19.5,22h1c0.2763672,0,0.5-0.2236328,0.5-0.5v-9c0-0.2763672-0.2236328-0.5-0.5-0.5h-1
		c-0.2763672,0-0.5,0.2236328-0.5,0.5v9C19,21.7763672,19.2236328,22,19.5,22z"/>
</g>
<g>
</g>
<g>
</g>
<g>
</g>
<g>
</g>
<g>
</g>
<g>
</g>
<g>
</g>
<g>
</g>
<g>
</g>
<g>
</g>
<g>
</g>
<g>
</g>
<g>
</g>
<g>
</g>
<g>
</g>
</svg>
