<?xml version="1.0" encoding="iso-8859-1"?>
<!-- Generator: Adobe Illustrator 21.0.0, SVG Export Plug-In . SVG Version: 6.00 Build 0)  -->
<svg version="1.1" id="Layer_1" xmlns="http://www.w3.org/2000/svg" xmlns:xlink="http://www.w3.org/1999/xlink" x="0px" y="0px"
	 viewBox="0 0 24 24" enable-background="new 0 0 24 24" xml:space="preserve">
<g id="XMLID_1529_">
	<path id="XMLID_1307_" fill="none" stroke="#303C42" stroke-linecap="round" stroke-linejoin="round" stroke-miterlimit="10" d="
		M12.5,5.5c2.3435335-0.5,4.0233822-2.512404,4-5C14.1564665,1,12.4766188,3.012404,12.5,5.5z"/>
	
		<path id="XMLID_1306_" fill="none" stroke="#303C42" stroke-width="1.0000234" stroke-linecap="round" stroke-linejoin="round" stroke-miterlimit="10" d="
		M18.5,12.5005856c0-1.8275394,0.9909058-3.4096441,2.4543457-4.2818775C19.7242432,6.8579268,18.043335,6.5,17,6.5
		c-1.7982178,0-2.5701904,1.0003519-4.5,1.0003519S9.7982178,6.5,8,6.5s-5.5,1.0419798-5.5,6.5006084
		C2.5,18.459177,6.2458496,23.5,8.0002441,23.5c2.3245239,0,2.7892456-0.9989471,4.4997559-0.9989471
		S14.6752319,23.5,16.9997559,23.5c1.2866821,0,3.3344727-2.9002819,4.5002441-6.4992046
		C19.5769043,16.3042908,18.5,14.3131695,18.5,12.5005856z"/>
</g>
<g>
</g>
<g>
</g>
<g>
</g>
<g>
</g>
<g>
</g>
<g>
</g>
<g>
</g>
<g>
</g>
<g>
</g>
<g>
</g>
<g>
</g>
<g>
</g>
<g>
</g>
<g>
</g>
<g>
</g>
</svg>
