<?xml version="1.0" encoding="iso-8859-1"?>
<!-- Generator: Adobe Illustrator 21.0.0, SVG Export Plug-In . SVG Version: 6.00 Build 0)  -->
<svg version="1.1" id="Layer_1" xmlns="http://www.w3.org/2000/svg" xmlns:xlink="http://www.w3.org/1999/xlink" x="0px" y="0px"
	 viewBox="0 0 24 24" enable-background="new 0 0 24 24" xml:space="preserve">
<path fill="#303C42" d="M20.8529053,5.145874L15.854126,0.1470947C15.7636108,0.0562744,15.6384888,0,15.5,0H5
	C3.8969727,0,3,0.8969727,3,2v20c0,1.1030273,0.8969727,2,2,2h14c1.1030273,0,2-0.8969727,2-2V5.5
	C21,5.3615112,20.9437256,5.2363892,20.8529053,5.145874z M12.5,18h-5C7.2236328,18,7,17.7763672,7,17.5S7.2236328,17,7.5,17h5
	c0.2763672,0,0.5,0.2236328,0.5,0.5S12.7763672,18,12.5,18z M16.5,16h-9C7.2236328,16,7,15.7763672,7,15.5S7.2236328,15,7.5,15h9
	c0.2763672,0,0.5,0.2236328,0.5,0.5S16.7763672,16,16.5,16z M16.5,14h-9C7.2236328,14,7,13.7763672,7,13.5S7.2236328,13,7.5,13h9
	c0.2763672,0,0.5,0.2236328,0.5,0.5S16.7763672,14,16.5,14z M16.5,12h-9C7.2236328,12,7,11.7763672,7,11.5S7.2236328,11,7.5,11h9
	c0.2763672,0,0.5,0.2236328,0.5,0.5S16.7763672,12,16.5,12z M17,5c-0.5512695,0-1-0.4487305-1-1V1.7070313L19.2929688,5H17z"/>
<g>
</g>
<g>
</g>
<g>
</g>
<g>
</g>
<g>
</g>
<g>
</g>
<g>
</g>
<g>
</g>
<g>
</g>
<g>
</g>
<g>
</g>
<g>
</g>
<g>
</g>
<g>
</g>
<g>
</g>
</svg>
