<?xml version="1.0" encoding="iso-8859-1"?>
<!-- Generator: Adobe Illustrator 21.0.0, SVG Export Plug-In . SVG Version: 6.00 Build 0)  -->
<svg version="1.1" id="Layer_1" xmlns="http://www.w3.org/2000/svg" xmlns:xlink="http://www.w3.org/1999/xlink" x="0px" y="0px"
	 viewBox="0 0 24 24" enable-background="new 0 0 24 24" xml:space="preserve">
<g>
	<path fill="#303C42" d="M6.5,8.0000963c-1.3554688,0-2.5,1.831543-2.5,4s1.1445313,3.999999,2.5,3.999999
		s2.5-1.831542,2.5-3.999999S7.8554688,8.0000963,6.5,8.0000963z"/>
	<path fill="#303C42" d="M13.4052734,0.0088853l-13,2.5C0.1699219,2.5542955,0,2.7603502,0,3.0000963v18
		c0,0.2397461,0.1699219,0.4458008,0.4052734,0.4912109l13,2.5c0.03125,0.0058594,0.0634766,0.0087891,0.0947266,0.0087891
		c0.1152344,0,0.2285156-0.0400391,0.3183594-0.1147461C13.9335938,23.7906227,14,23.6490211,14,23.5000954v-23
		c0-0.1489258-0.0664063-0.2905273-0.1816406-0.3852539C13.7041016,0.0201158,13.5498047-0.019435,13.4052734,0.0088853z
		 M6.5,17.0000954c-1.9628906,0-3.5-2.1962881-3.5-4.999999s1.5371094-5,3.5-5s3.5,2.1962891,3.5,5
		S8.4628906,17.0000954,6.5,17.0000954z"/>
	<path fill="#303C42" d="M23.5,6.0000963h-8c-0.2763672,0-0.5,0.2236328-0.5,0.5v4.7470703
		c0,0.1479492,0.0654297,0.2885742,0.1796875,0.3837891l1.5,1.2529297C16.7724609,12.9610338,16.8857422,13.0000963,17,13.0000963
		c0.1054688,0,0.2109375-0.0332031,0.2998047-0.1000977l6.5-4.875C23.9257813,7.9307604,24,7.7823229,24,7.6250963v-1.125
		C24,6.2237291,23.7763672,6.0000963,23.5,6.0000963z"/>
	<path fill="#303C42" d="M23.7236328,9.6768541c-0.1689453-0.0849609-0.3730469-0.0668945-0.5234375,0.0473633l-5.3007813,3.9755859
		c-0.0009766,0-0.0009766,0.0004883-0.0009766,0.0009766c-0.5380859,0.4052734-1.3398438,0.3862305-1.8613281-0.0507813
		l-0.2167969-0.1811523c-0.1484375-0.1245117-0.3564453-0.1499023-0.5322266-0.0693359
		C15.1123047,13.4820299,15,13.6582994,15,13.8526354v3.64746c0,0.2763672,0.2236328,0.5,0.5,0.5h8
		c0.2763672,0,0.5-0.2236328,0.5-0.5v-7.3759756C24,9.9346666,23.8925781,9.7618151,23.7236328,9.6768541z"/>
</g>
<g>
</g>
<g>
</g>
<g>
</g>
<g>
</g>
<g>
</g>
<g>
</g>
<g>
</g>
<g>
</g>
<g>
</g>
<g>
</g>
<g>
</g>
<g>
</g>
<g>
</g>
<g>
</g>
<g>
</g>
</svg>
