<?xml version="1.0" encoding="iso-8859-1"?>
<!-- Generator: Adobe Illustrator 21.0.0, SVG Export Plug-In . SVG Version: 6.00 Build 0)  -->
<svg version="1.1" id="Layer_1" xmlns="http://www.w3.org/2000/svg" xmlns:xlink="http://www.w3.org/1999/xlink" x="0px" y="0px"
	 viewBox="0 0 24 24" enable-background="new 0 0 24 24" xml:space="preserve">
<g>
	<path fill="#303C42" d="M15,17.5c0.5527344,0,1-0.4477539,1-1v-4.7641602C16.3808594,10.9736328,17.1474609,10.5,18,10.5
		c0.5527344,0,1-0.4477539,1-1s-0.4472656-1-1-1c-0.7599487,0-1.4802246,0.204895-2.1088867,0.5656738
		C15.7285156,8.7337036,15.3949585,8.5,15,8.5c-0.5527344,0-1,0.4477539-1,1v7C14,17.0522461,14.4472656,17.5,15,17.5z"/>
	<path fill="#303C42" d="M6.9990234,18.0009766H9.75c1.7910156,0,3.2490234-1.4575195,3.25-3.25v-1.0004883
		c0-1.0083008-0.4619141-1.9111328-1.1845703-2.5078125C12.2441406,10.6918945,12.5,10.0004883,12.5,9.25
		C12.5,7.4580078,11.0419922,6,9.25,6H7C6.4472656,6,6,6.4477539,6,7L5.9990234,17.0009766
		c0,0.2651367,0.1054688,0.5195313,0.2929688,0.7070313S6.7333984,18.0009766,6.9990234,18.0009766z M8,8h1.25
		c0.6894531,0,1.25,0.5605469,1.25,1.25S9.9394531,10.5,9.25,10.5H8V8z M7.9990234,12.5H9.75
		c0.6894531,0,1.25,0.5610352,1.25,1.2504883V14.75c-0.0009766,0.6899414-0.5615234,1.2509766-1.25,1.2509766H7.9990234V12.5z"/>
	<path fill="#303C42" d="M22,1H2C1.4472656,1,1,1.4477539,1,2v20c0,0.5522461,0.4472656,1,1,1h20c0.5527344,0,1-0.4477539,1-1V2
		C23,1.4477539,22.5527344,1,22,1z M21,21H3V3h18V21z"/>
</g>
<g>
</g>
<g>
</g>
<g>
</g>
<g>
</g>
<g>
</g>
<g>
</g>
<g>
</g>
<g>
</g>
<g>
</g>
<g>
</g>
<g>
</g>
<g>
</g>
<g>
</g>
<g>
</g>
<g>
</g>
</svg>
