<?xml version="1.0" encoding="iso-8859-1"?>
<!-- Generator: Adobe Illustrator 21.0.0, SVG Export Plug-In . SVG Version: 6.00 Build 0)  -->
<svg version="1.1" id="Layer_1" xmlns="http://www.w3.org/2000/svg" xmlns:xlink="http://www.w3.org/1999/xlink" x="0px" y="0px"
	 viewBox="0 0 24 24" enable-background="new 0 0 24 24" xml:space="preserve">
<path fill="#303C42" d="M12.000104,0C6.2335024,0,1.5059636,4.0639648,1.0020573,9.4536133
	C0.982526,9.6630859,1.0967839,9.862793,1.2872136,9.9526367c0.1914063,0.0893555,0.4169922,0.0498047,0.5664063-0.0991211
	C5.1192446,6.5874023,8.4385805,5,12.000104,5c2.7167969,0,3.8955078,1.4570313,3.9931641,5H8.0294008
	c0.1132813-0.956543,0.5537109-1.9736328,1.3867188-3.2226563C9.5440493,6.5854492,9.524518,6.331543,9.368268,6.1616211
	c-0.15625-0.1694336-0.40625-0.2109375-0.609375-0.0996094C5.7676821,7.7075195,3.0001042,9.8681641,3.0001042,14.5
	c0,5.2382813,4.9345703,9.5,11,9.5c2.5283213,0,4.8603525-0.5595703,6.7451181-1.6176758
	c0.1572266-0.0883789,0.2548828-0.2553711,0.2548828-0.4360352V17.5c0-0.1894531-0.1074219-0.362793-0.2763672-0.4472656
	c-0.1708984-0.0839844-0.3720703-0.0664063-0.5244141,0.0478516C18.5001049,18.378418,16.7999096,19,15.000104,19
	c-4.3789063,0-6.6650391-1.3095703-6.9667969-4h14.4667978c0.2763672,0,0.5-0.2236328,0.5-0.5v-4
	C23.0001049,4.7104492,18.0655346,0,12.000104,0z"/>
<g>
</g>
<g>
</g>
<g>
</g>
<g>
</g>
<g>
</g>
<g>
</g>
<g>
</g>
<g>
</g>
<g>
</g>
<g>
</g>
<g>
</g>
<g>
</g>
<g>
</g>
<g>
</g>
<g>
</g>
</svg>
