<?xml version="1.0" encoding="iso-8859-1"?>
<!-- Generator: Adobe Illustrator 21.0.0, SVG Export Plug-In . SVG Version: 6.00 Build 0)  -->
<svg version="1.1" id="Layer_1" xmlns="http://www.w3.org/2000/svg" xmlns:xlink="http://www.w3.org/1999/xlink" x="0px" y="0px"
	 viewBox="0 0 30 30" enable-background="new 0 0 30 30" xml:space="preserve">
<g>
	<path fill="#303C42" d="M11.5,16H17v-3H9v7h2v-3.5C11,16.2236328,11.2236328,16,11.5,16z"/>
	<rect x="12" y="17" fill="#303C42" width="8" height="7"/>
	<path fill="#303C42" d="M25.8529053,6.145874L19.854126,0.1470947C19.7636108,0.0562744,19.6384888,0,19.5,0H6
		C4.8969727,0,4,0.8969727,4,2v26c0,1.1030273,0.8969727,2,2,2h18c1.1030273,0,2-0.8969727,2-2V6.5
		C26,6.3615112,25.9437256,6.2363892,25.8529053,6.145874z M21,24.5c0,0.2763672-0.2236328,0.5-0.5,0.5h-9
		c-0.2763672,0-0.5-0.2236328-0.5-0.5V21H8.5C8.2236328,21,8,20.7763672,8,20.5v-8C8,12.2236328,8.2236328,12,8.5,12h9
		c0.2763672,0,0.5,0.2236328,0.5,0.5V16h2.5c0.2763672,0,0.5,0.2236328,0.5,0.5V24.5z M21.081604,6
		c-0.5957031,0-1.0800781-0.484375-1.0800781-1.0800781V1.7070313L24.2944946,6H21.081604z"/>
</g>
<g>
</g>
<g>
</g>
<g>
</g>
<g>
</g>
<g>
</g>
<g>
</g>
<g>
</g>
<g>
</g>
<g>
</g>
<g>
</g>
<g>
</g>
<g>
</g>
<g>
</g>
<g>
</g>
<g>
</g>
</svg>
