<?xml version="1.0" encoding="iso-8859-1"?>
<!-- Generator: Adobe Illustrator 21.0.0, SVG Export Plug-In . SVG Version: 6.00 Build 0)  -->
<svg version="1.1" id="Layer_1" xmlns="http://www.w3.org/2000/svg" xmlns:xlink="http://www.w3.org/1999/xlink" x="0px" y="0px"
	 viewBox="0 0 30 30" enable-background="new 0 0 30 30" xml:space="preserve">
<g id="XMLID_1594_">
	<path id="XMLID_1384_" fill="none" stroke="#303C42" stroke-linecap="round" stroke-linejoin="round" stroke-miterlimit="10" d="
		M27.5,27.5c0,0-4.427084-1-12.5-1s-12.5,1-12.5,1v-25c0,0,4.4270835,1,12.5,1s12.5-1,12.5-1V27.5z"/>
	<path fill="none" stroke="#303C42" stroke-linecap="round" stroke-linejoin="round" stroke-miterlimit="10" d="M21,6
		c-0.8284302,0-1.5-0.223877-1.5-0.5l-4.5,8l-4.5-8C10.5,5.776123,9.8284302,6,9,6
		C8.3452148,6,7.7943115,5.859314,7.5896606,5.6643066L13.5,16.5v8c0-0.2761841,0.6715698-0.5,1.5-0.5s1.5,0.2238159,1.5,0.5v-8
		l5.9103394-10.8356934C22.2056885,5.859314,21.6547852,6,21,6z"/>
</g>
<g>
</g>
<g>
</g>
<g>
</g>
<g>
</g>
<g>
</g>
<g>
</g>
<g>
</g>
<g>
</g>
<g>
</g>
<g>
</g>
<g>
</g>
<g>
</g>
<g>
</g>
<g>
</g>
<g>
</g>
</svg>
