<?xml version="1.0" encoding="iso-8859-1"?>
<!-- Generator: Adobe Illustrator 21.0.0, SVG Export Plug-In . SVG Version: 6.00 Build 0)  -->
<svg version="1.1" id="Layer_1" xmlns="http://www.w3.org/2000/svg" xmlns:xlink="http://www.w3.org/1999/xlink" x="0px" y="0px"
	 viewBox="0 0 30 30" enable-background="new 0 0 30 30" xml:space="preserve">
<path fill="#303C42" d="M14.9999838,0C8.0536947,0,2.5868981,4.8178711,2.0019372,11.4560547
	c-0.0185546,0.2119141,0.0986328,0.4125977,0.2929688,0.5c0.1943359,0.0878906,0.421875,0.0410156,0.5683594-0.112793
	C5.7294765,8.8085938,9.182601,6,14.9999838,6c3.250001,0,4.8867197,2.2915039,4.9941416,7h-9.9667978
	c0.1416016-1.3256836,0.8144531-3.0166016,1.8955078-4.7333984c0.1201172-0.1899414,0.0986328-0.4360352-0.0527344-0.6025391
	c-0.1503906-0.1655273-0.3925781-0.2104492-0.59375-0.1113281C7.4970546,9.4418945,3.999984,12.0151367,3.999984,18
	c0,6.8413086,5.7529297,12,13.3808603,12c3.0654297,0,6.1953125-0.7739258,8.375-2.0703125
	c0.1513672-0.090332,0.2441406-0.253418,0.2441406-0.4296875V22c0-0.1918945-0.1103516-0.3671875-0.2832031-0.4501953
	c-0.1708984-0.0849609-0.3789063-0.0605469-0.5283203,0.059082C23.7372894,22.7646484,21.2187347,24,18.4999847,24
	c-5.5380869,0-8.1777353-1.5473633-8.4736338-5h17.4736328c0.2763672,0,0.5-0.2236328,0.5-0.5v-5.3911133
	C27.9999847,5.8808594,22.1679535,0,14.9999838,0z"/>
<g>
</g>
<g>
</g>
<g>
</g>
<g>
</g>
<g>
</g>
<g>
</g>
<g>
</g>
<g>
</g>
<g>
</g>
<g>
</g>
<g>
</g>
<g>
</g>
<g>
</g>
<g>
</g>
<g>
</g>
</svg>
