<?xml version="1.0" encoding="iso-8859-1"?>
<!-- Generator: Adobe Illustrator 21.0.0, SVG Export Plug-In . SVG Version: 6.00 Build 0)  -->
<svg version="1.1" id="Layer_1" xmlns="http://www.w3.org/2000/svg" xmlns:xlink="http://www.w3.org/1999/xlink" x="0px" y="0px"
	 viewBox="0 0 30 30" enable-background="new 0 0 30 30" xml:space="preserve">
<path fill="#303C42" d="M15,0C6.7285156,0,0,6.7290039,0,15s6.7285156,15,15,15s15-6.7290039,15-15S23.2714844,0,15,0z
	 M15.7773438,17.9160156l-8.9697266,5.9697266c-0.0849609,0.0566406-0.1816406,0.0839844-0.2773438,0.0839844
	c-0.1289063,0-0.2568359-0.0498047-0.3535156-0.1464844c-0.1689453-0.168457-0.1943359-0.4321289-0.0625-0.6303711
	l5.9697266-8.9697266c0.0830078-0.125,0.2177734-0.2060547,0.3662109-0.2207031
	c0.1464844-0.0117188,0.2978516,0.0375977,0.4033203,0.144043l3,3c0.1064453,0.105957,0.1591797,0.2539063,0.1435547,0.402832
	C15.9824219,17.6987305,15.9013672,17.8330078,15.7773438,17.9160156z M23.8857422,6.8071289l-5.9697266,8.9697266
	c-0.0830078,0.125-0.2177734,0.2060547-0.3662109,0.2207031C17.5332031,15.9990234,17.5166016,16,17.5,16
	c-0.1318359,0-0.2597656-0.0522461-0.3535156-0.1464844l-3-3c-0.1064453-0.105957-0.1591797-0.2539063-0.1435547-0.402832
	c0.0146484-0.1494141,0.0957031-0.2836914,0.2197266-0.3666992l8.9697266-5.9697266
	c0.1992188-0.1323242,0.4628906-0.105957,0.6308594,0.0625C23.9921875,6.3452148,24.0175781,6.6088867,23.8857422,6.8071289z"/>
<g>
</g>
<g>
</g>
<g>
</g>
<g>
</g>
<g>
</g>
<g>
</g>
<g>
</g>
<g>
</g>
<g>
</g>
<g>
</g>
<g>
</g>
<g>
</g>
<g>
</g>
<g>
</g>
<g>
</g>
</svg>
