<?xml version="1.0" encoding="iso-8859-1"?>
<!-- Generator: Adobe Illustrator 21.0.0, SVG Export Plug-In . SVG Version: 6.00 Build 0)  -->
<svg version="1.1" id="Layer_1" xmlns="http://www.w3.org/2000/svg" xmlns:xlink="http://www.w3.org/1999/xlink" x="0px" y="0px"
	 viewBox="0 0 24 24" enable-background="new 0 0 24 24" xml:space="preserve">
<g>
	<path fill="#303C42" d="M12.46875,11.6609526l-10.6010742-11.5C1.7280273,0.0090967,1.5102539-0.0397314,1.3178711,0.0339991
		C1.1264648,0.1091944,1,0.2937647,1,0.4998194v23c0,0.2060547,0.1264648,0.390625,0.3178711,0.4658203
		C1.3774414,23.9885883,1.4389648,23.9998188,1.5,23.9998188c0.1367188,0,0.2709961-0.0561523,0.3676758-0.1611328
		L12.46875,12.3386869C12.6450195,12.1472807,12.6450195,11.8523588,12.46875,11.6609526z"/>
	<path fill="#303C42" d="M13.8730469,13.1843901c-0.1894531-0.2050781-0.5458984-0.2050781-0.7353516,0l-8.28125,8.9829092
		c-0.1674805,0.1816406-0.1772461,0.4584961-0.0224609,0.6518555c0.0976563,0.1220703,0.2426758,0.1870117,0.390625,0.1870117
		c0.0854492,0,0.171875-0.0219727,0.2504883-0.0673828c3.1962891-1.8540039,7.1787109-4.1894531,10.7539063-6.3071289
		c0.1298828-0.0766602,0.2177734-0.2084961,0.2397461-0.3574219c0.0219727-0.1494141-0.0249023-0.3007803-0.1269531-0.4116201
		L13.8730469,13.1843901z"/>
	<path fill="#303C42" d="M22.5043945,11.1160307l-0.0004883-0.0004883
		c-1.2285156-0.7436523-2.7661133-1.6640625-4.4584961-2.6699219c-0.2021484-0.1201172-0.4619141-0.0839844-0.6230469,0.0908203
		l-2.8808594,3.1245117c-0.1762695,0.1914063-0.1762695,0.4863281,0,0.6777344l2.8808594,3.1245117
		c0.0976563,0.105957,0.2319336,0.1611328,0.3676758,0.1611328c0.0878906,0,0.1757813-0.0229492,0.2553711-0.0703125
		c1.6923828-1.0058594,3.2299805-1.9262695,4.4589844-2.6704102C22.8149414,12.6956205,23,12.3650541,23,11.9998198
		S22.8149414,11.304019,22.5043945,11.1160307z M22.2450562,11.5433989L22.2450562,11.5433989l0.000061-0.0001221
		L22.2450562,11.5433989z"/>
	<path fill="#303C42" d="M13.1376953,10.8152494c0.0947266,0.1025391,0.2280273,0.1611328,0.3676758,0.1611328
		s0.2729492-0.0585938,0.3676758-0.1611328l2.46875-2.6782227c0.1020508-0.1108398,0.1489258-0.2622075,0.1269531-0.4116216
		c-0.0219727-0.1489258-0.1098633-0.2807617-0.2397461-0.3574219c-3.574707-2.1171875-7.5576172-4.453125-10.753418-6.3071289
		c-0.215332-0.1245117-0.4873047-0.0727539-0.6411133,0.1196289C4.6796875,1.3738428,4.6894531,1.6506983,4.8569336,1.8323389
		L13.1376953,10.8152494z"/>
</g>
<g>
</g>
<g>
</g>
<g>
</g>
<g>
</g>
<g>
</g>
<g>
</g>
<g>
</g>
<g>
</g>
<g>
</g>
<g>
</g>
<g>
</g>
<g>
</g>
<g>
</g>
<g>
</g>
<g>
</g>
</svg>
