<?xml version="1.0" encoding="iso-8859-1"?>
<!-- Generator: Adobe Illustrator 21.0.0, SVG Export Plug-In . SVG Version: 6.00 Build 0)  -->
<svg version="1.1" id="Layer_1" xmlns="http://www.w3.org/2000/svg" xmlns:xlink="http://www.w3.org/1999/xlink" x="0px" y="0px"
	 viewBox="0 0 24 24" enable-background="new 0 0 24 24" xml:space="preserve">
<g>
	<rect x="11.5" y="10" fill="#303C42" width="4.5" height="2"/>
	<rect x="8" y="10" fill="#303C42" width="2.5" height="2"/>
	<rect x="11.5" y="13" fill="#303C42" width="4.5" height="2"/>
	<path fill="#303C42" d="M20.8529053,5.145874L15.854126,0.1470947C15.7636108,0.0562744,15.6384888,0,15.5,0H5
		C3.8969727,0,3,0.8969727,3,2v20c0,1.1030273,0.8969727,2,2,2h14c1.1030273,0,2-0.8969727,2-2V5.5
		C21,5.3615112,20.9437256,5.2363892,20.8529053,5.145874z M17,18.5c0,0.2763672-0.2236328,0.5-0.5,0.5h-9
		C7.2236328,19,7,18.7763672,7,18.5v-9C7,9.2236328,7.2236328,9,7.5,9h9C16.7763672,9,17,9.2236328,17,9.5V18.5z M17,5
		c-0.5512695,0-1-0.4487305-1-1V1.7070313L19.2929688,5H17z"/>
	<rect x="8" y="13" fill="#303C42" width="2.5" height="2"/>
	<rect x="11.5" y="16" fill="#303C42" width="4.5" height="2"/>
	<rect x="8" y="16" fill="#303C42" width="2.5" height="2"/>
</g>
<g>
</g>
<g>
</g>
<g>
</g>
<g>
</g>
<g>
</g>
<g>
</g>
<g>
</g>
<g>
</g>
<g>
</g>
<g>
</g>
<g>
</g>
<g>
</g>
<g>
</g>
<g>
</g>
<g>
</g>
</svg>
