<?xml version="1.0" encoding="iso-8859-1"?>
<!-- Generator: Adobe Illustrator 21.0.0, SVG Export Plug-In . SVG Version: 6.00 Build 0)  -->
<svg version="1.1" id="Layer_1" xmlns="http://www.w3.org/2000/svg" xmlns:xlink="http://www.w3.org/1999/xlink" x="0px" y="0px"
	 viewBox="0 0 24 24" enable-background="new 0 0 24 24" xml:space="preserve">
<g>
	<circle fill="#303C42" cx="18.5" cy="5.5" r="5.5"/>
	<path fill="#303C42" d="M9.6914063,16.5380859c-0.1865234-0.0771484-0.4013672-0.034668-0.5449219,0.1083984l-6.5,6.5
		c-0.1430664,0.1430664-0.1860352,0.3579102-0.1083984,0.5449219C2.6152344,23.878418,2.7978516,24,3,24h6.5
		c0.2763672,0,0.5-0.2236328,0.5-0.5V17C10,16.7978516,9.878418,16.6152344,9.6914063,16.5380859z"/>
	<path fill="#303C42" d="M21.6357422,12.9355469c-2.34375-0.6606445-4.8286133-0.5649414-7.1245117,0.2788086
		c-2.0874023,0.765625-3.2998047,1.871582-3.3505859,1.918457C11.0581055,15.2275391,11,15.3603516,11,15.5v8
		c0,0.2763672,0.2236328,0.5,0.5,0.5H20c1.1030273,0,2-0.8969727,2-2v-7.5v-1.0830078
		C22,13.1928711,21.8510742,12.996582,21.6357422,12.9355469z M21,13.8022461v0.4907227l-2.5,2.5L15.6132813,13.90625
		C17.3701172,13.4047852,19.2236328,13.3681641,21,13.8022461z"/>
	<path fill="#303C42" d="M12.8969727,8.7792969C12.3100586,7.7856445,12,6.6518555,12,5.5
		c0-0.9628906,0.2138672-1.8999023,0.6362305-2.784668c0.0742188-0.1547852,0.0634766-0.3369141-0.0283203-0.4819336
		C12.5166016,2.0878906,12.3569336,2,12.1850586,2H2C0.8969727,2,0,2.8969727,0,4v17
		c0,0.2021484,0.121582,0.3847656,0.3085938,0.4619141C0.3706055,21.487793,0.4355469,21.5,0.5,21.5
		c0.1298828,0,0.2578125-0.0507813,0.3535156-0.1464844L12.8198242,9.387207
		C12.980957,9.2260742,13.0126953,8.9760742,12.8969727,8.7792969z M5.5,10.5c-1.6542969,0-3-1.3457031-3-3s1.3457031-3,3-3
		c0.6557617,0,1.2788086,0.2080078,1.8022461,0.6010742c0.2207031,0.1660156,0.2651367,0.4794922,0.0996094,0.7001953
		C7.2353516,6.0224609,6.921875,6.065918,6.7016602,5.9008789C6.3525391,5.6386719,5.9370117,5.5,5.5,5.5
		c-1.1030273,0-2,0.8969727-2,2s0.8969727,2,2,2c0.9301758,0,1.7143555-0.6381836,1.9365234-1.5H6
		C5.7236328,8,5.5,7.7763672,5.5,7.5S5.7236328,7,6,7h2c0.2763672,0,0.5,0.2236328,0.5,0.5C8.5,9.1542969,7.1542969,10.5,5.5,10.5z"
		/>
</g>
<g>
</g>
<g>
</g>
<g>
</g>
<g>
</g>
<g>
</g>
<g>
</g>
<g>
</g>
<g>
</g>
<g>
</g>
<g>
</g>
<g>
</g>
<g>
</g>
<g>
</g>
<g>
</g>
<g>
</g>
</svg>
