<?xml version="1.0" encoding="iso-8859-1"?>
<!-- Generator: Adobe Illustrator 21.0.0, SVG Export Plug-In . SVG Version: 6.00 Build 0)  -->
<svg version="1.1" id="Layer_1" xmlns="http://www.w3.org/2000/svg" xmlns:xlink="http://www.w3.org/1999/xlink" x="0px" y="0px"
	 viewBox="0 0 24 24" enable-background="new 0 0 24 24" xml:space="preserve">
<g>
	<path fill="#303C42" d="M11.2587137,10.7817383L7.2399817,4.1420898c-0.0898476-0.1489258-0.2504992-0.2397461-0.424335-0.2412109
		c-0.1733475-0.0019531-0.335464,0.0878906-0.4272652,0.2348633L0.0760916,14.2348633
		c-0.0976606,0.15625-0.101567,0.3535156-0.0102544,0.5131836l4.0001764,7C4.1539083,21.9018555,4.3165131,21.9975586,4.4937668,22
		c0.0019531,0,0.004395,0,0.0063481,0c0.1748123,0,0.3369288-0.0913086,0.427753-0.2412109l6.3308458-10.4594727
		C11.3549089,11.1401367,11.3549089,10.940918,11.2587137,10.7817383z"/>
	<path fill="#303C42" d="M13.6245403,12.7587891C13.7148762,12.9086914,13.8774815,13,14.0522938,13h8.1976261
		c0.1816502,0,0.3491383-0.0986328,0.437521-0.2578125c0.0878944-0.1586914,0.0830116-0.3530273-0.0136738-0.5073242l-6.2502747-10
		C16.33218,2.0888672,16.1720161,2,15.9996452,2H7.9992924C7.8186207,2,7.6521091,2.097168,7.5637264,2.2543945
		c-0.088871,0.1572266-0.085453,0.3500977,0.007813,0.5043945L13.6245403,12.7587891z"/>
	<path fill="#303C42" d="M23.9326115,14.2490234C23.8427639,14.0947266,23.6782074,14,23.4999752,14H11.0751114
		c-0.1748123,0-0.3374166,0.0913086-0.4277525,0.2412109l-4.2370038,7c-0.0932655,0.1542969-0.096684,0.347168-0.0078125,0.5043945
		C6.4909253,21.902832,6.6574364,22,6.8381085,22h12.6616917c0.1792068,0,0.3452301-0.0961914,0.4341011-0.2519531l4.0001755-7
		C24.022459,14.5932617,24.0219707,14.4033203,23.9326115,14.2490234z"/>
</g>
<g>
</g>
<g>
</g>
<g>
</g>
<g>
</g>
<g>
</g>
<g>
</g>
<g>
</g>
<g>
</g>
<g>
</g>
<g>
</g>
<g>
</g>
<g>
</g>
<g>
</g>
<g>
</g>
<g>
</g>
</svg>
