<?xml version="1.0" encoding="iso-8859-1"?>
<!-- Generator: Adobe Illustrator 21.0.0, SVG Export Plug-In . SVG Version: 6.00 Build 0)  -->
<svg version="1.1" id="Layer_1" xmlns="http://www.w3.org/2000/svg" xmlns:xlink="http://www.w3.org/1999/xlink" x="0px" y="0px"
	 viewBox="0 0 30 30" enable-background="new 0 0 30 30" xml:space="preserve">
<g>
	<g>
		<path fill="#303C42" d="M7.6265259,19.2657471C7.5143433,18.9006348,7,17,7,15c0-1.5,0.5143433-3.9006348,0.6265259-4.2657471
			C9.1417847,5.6380005,13.2964478,1.6798706,18.5,0.4291992C17.3748779,0.1587524,16.2069092,0,15,0C6.7285156,0,0,6.7290039,0,15
			s6.7285156,15,15,15c1.2069092,0,2.3748779-0.1587524,3.5-0.4291992
			C13.2964478,28.3201294,9.1417847,24.3619995,7.6265259,19.2657471z"/>
	</g>
	<g>
		<path fill="#303C42" d="M15,26c-0.7373657,0-1.4484863-0.1489868-2.1269531-0.4069824
			c1.9036922,1.6425915,4.247076,2.788126,6.8322353,3.2175789c0.547802,0.0910015,1.1189804,0.0108089,1.6220589-0.2243099
			C26.4430981,26.1953831,30,21.0095825,30,15c0-6.0092325-3.556488-11.1947775-8.6717739-13.5859032
			c-0.5035458-0.2353804-1.0752716-0.3156631-1.6235962-0.2245532c-2.5849075,0.4295092-4.9280529,1.5749867-6.831583,3.2174387
			C13.5515137,4.1489868,14.2626343,4,15,4c4.4111328,0,8,4.9345703,8,11S19.4111328,26,15,26z"/>
	</g>
</g>
<g>
</g>
<g>
</g>
<g>
</g>
<g>
</g>
<g>
</g>
<g>
</g>
<g>
</g>
<g>
</g>
<g>
</g>
<g>
</g>
<g>
</g>
<g>
</g>
<g>
</g>
<g>
</g>
<g>
</g>
</svg>
