<?xml version="1.0" encoding="iso-8859-1"?>
<!-- Generator: Adobe Illustrator 21.0.0, SVG Export Plug-In . SVG Version: 6.00 Build 0)  -->
<svg version="1.1" id="Layer_1" xmlns="http://www.w3.org/2000/svg" xmlns:xlink="http://www.w3.org/1999/xlink" x="0px" y="0px"
	 viewBox="0 0 30 30" enable-background="new 0 0 30 30" xml:space="preserve">
<g>
	<path fill="#303C42" d="M21.2783203,10.0527344c0.6074219,0.7695313,1.0654297,1.6425781,1.3603516,2.5957031
		C22.703125,12.8574219,22.8974609,13,23.1162109,13h6.1611328c0.1474609,0,0.2880859-0.0654297,0.3828125-0.1787109
		s0.1347656-0.2617188,0.109375-0.4072266c-0.4707031-2.6835938-1.6689453-5.1914063-3.4658203-7.2548828
		c-0.0908203-0.1044922-0.2216797-0.1669922-0.359375-0.171875c-0.1376953,0.0029297-0.2734375,0.0488281-0.3710938,0.1464844
		l-4.2558594,4.2558594C21.1376953,9.5693359,21.1210938,9.8535156,21.2783203,10.0527344z"/>
	<path fill="#303C42" d="M29.9863281,14.6679688l-0.0097656-0.1855469C29.9667969,14.2128906,29.7460938,14,29.4765625,14H16
		c-0.5527344,0-1,0.4472656-1,1c0,0.2753906-0.2246094,0.5-0.5,0.5S14,15.2753906,14,15c0-1.1025391,0.8974609-2,2-2h2.7402344
		c0.1845703,0,0.3544922-0.1015625,0.4414063-0.2646484s0.0771484-0.3603516-0.0263672-0.5136719
		C18.2236328,10.8300781,16.6699219,10,15,10c-2.7568359,0-5,2.2431641-5,5s2.2431641,5,5,5
		c2.4144287,0,4.4342651-1.7207031,4.8989258-4h3.0316162C22.4359131,19.9399414,19.0717773,23,15,23c-4.4111328,0-8-3.5888672-8-8
		s3.5888672-8,8-8c1.8095703,0,3.5205078,0.5957031,4.9472656,1.7216797
		c0.1982422,0.1572266,0.4833984,0.1396484,0.6630859-0.0390625l4.2558594-4.2558594
		c0.0976563-0.0976563,0.1513672-0.2324219,0.1464844-0.3710938c-0.0048828-0.1376953-0.0673828-0.2685547-0.171875-0.359375
		C22.1035156,1.3125,18.609375,0,15,0C6.7285156,0,0,6.7285156,0,15s6.7285156,15,15,15s15-6.7285156,15-15
		C30,14.8876953,29.9931641,14.7773438,29.9863281,14.6679688z M15,2.5c0.5517578,0,1,0.4482422,1,1s-0.4482422,1-1,1
		s-1-0.4482422-1-1S14.4482422,2.5,15,2.5z M6.1611328,6.1611328c0.390625-0.390625,1.0234375-0.390625,1.4140625,0
		c0.3896484,0.3896484,0.3896484,1.0244141,0,1.4140625C7.3798828,7.7705078,7.1240234,7.8671875,6.8681641,7.8671875
		S6.3564453,7.7705078,6.1611328,7.5751953C5.7714844,7.1855469,5.7714844,6.5507813,6.1611328,6.1611328z M3.5,16
		c-0.5517578,0-1-0.4482422-1-1s0.4482422-1,1-1s1,0.4482422,1,1S4.0517578,16,3.5,16z M7.5751953,23.8388672
		c-0.1953125,0.1953125-0.4511719,0.2919922-0.7070313,0.2919922s-0.5117188-0.0966797-0.7070313-0.2919922
		c-0.3896484-0.3896484-0.3896484-1.0244141,0-1.4140625c0.390625-0.390625,1.0234375-0.390625,1.4140625,0
		C7.9648438,22.8144531,7.9648438,23.4492188,7.5751953,23.8388672z M15,27.5c-0.5517578,0-1-0.4482422-1-1s0.4482422-1,1-1
		s1,0.4482422,1,1S15.5517578,27.5,15,27.5z M23.8388672,23.8388672c-0.1953125,0.1953125-0.4511719,0.2919922-0.7070313,0.2919922
		s-0.5117188-0.0966797-0.7070313-0.2919922c-0.3896484-0.3896484-0.3896484-1.0244141,0-1.4140625
		c0.390625-0.390625,1.0234375-0.390625,1.4140625,0C24.2285156,22.8144531,24.2285156,23.4492188,23.8388672,23.8388672z"/>
</g>
<g>
</g>
<g>
</g>
<g>
</g>
<g>
</g>
<g>
</g>
<g>
</g>
<g>
</g>
<g>
</g>
<g>
</g>
<g>
</g>
<g>
</g>
<g>
</g>
<g>
</g>
<g>
</g>
<g>
</g>
</svg>
