<?xml version="1.0" encoding="iso-8859-1"?>
<!-- Generator: Adobe Illustrator 21.0.0, SVG Export Plug-In . SVG Version: 6.00 Build 0)  -->
<svg version="1.1" id="Layer_1" xmlns="http://www.w3.org/2000/svg" xmlns:xlink="http://www.w3.org/1999/xlink" x="0px" y="0px"
	 viewBox="0 0 30 30" enable-background="new 0 0 30 30" xml:space="preserve">
<g id="XMLID_1542_">
	<path fill="#303C42" d="M10,29.9999676c-0.1074219,0-0.2158203-0.034668-0.3046875-0.1035156l-6.5-4.9990234
		C3.0722656,24.802702,3,24.6562176,3,24.5009441V0.4999675c0-0.1669922,0.0839844-0.3232422,0.2226563-0.4160156
		c0.1386719-0.0932617,0.3154297-0.109375,0.4697266-0.0454102l6.0527344,2.5219727
		c0.1865234,0.0776367,0.3085938,0.2602539,0.3076172,0.4628906l-0.0507813,18.5927734l8.4160156-5.0493164l-3.6210938-1.609375
		c-0.1171875-0.0522461-0.2089844-0.1469727-0.2587891-0.2646484l-2.5-6
		c-0.0761719-0.1826172-0.0371094-0.3930664,0.0996094-0.5366211c0.1357422-0.144043,0.3457031-0.1948242,0.5302734-0.1264648l14,5
		C26.8671875,13.1005535,27,13.2890301,27,13.5004559v6c0,0.1748047-0.0917969,0.3369141-0.2412109,0.4277344l-16.5,9.9995117
		C10.1787109,29.9760418,10.0898438,29.9999676,10,29.9999676z M4,24.2548504l6.0332031,4.6401367L26,19.2187176v-5.3657227
		L13.3964844,9.3515301l1.9882813,4.7729492l4.3183594,1.9189453c0.1708984,0.0756836,0.2841797,0.2402344,0.2958984,0.4262695
		c0.0117188,0.1865234-0.0820313,0.3632813-0.2421875,0.4594727l-10,6.0004883
		c-0.1542969,0.0932617-0.3466797,0.0957031-0.5039063,0.0058594C9.0966797,22.8466473,8.9990234,22.6801434,9,22.4994793
		L9.0517578,3.3549478L4,1.2499675V24.2548504z"/>
</g>
<g>
</g>
<g>
</g>
<g>
</g>
<g>
</g>
<g>
</g>
<g>
</g>
<g>
</g>
<g>
</g>
<g>
</g>
<g>
</g>
<g>
</g>
<g>
</g>
<g>
</g>
<g>
</g>
<g>
</g>
</svg>
