<?xml version="1.0" encoding="iso-8859-1"?>
<!-- Generator: Adobe Illustrator 21.0.0, SVG Export Plug-In . SVG Version: 6.00 Build 0)  -->
<svg version="1.1" id="Layer_1" xmlns="http://www.w3.org/2000/svg" xmlns:xlink="http://www.w3.org/1999/xlink" x="0px" y="0px"
	 viewBox="0 0 24 24" enable-background="new 0 0 24 24" xml:space="preserve">
<g>
	<path fill="#303C42" d="M12,0C5.3828125,0,0,5.3833008,0,12s5.3828125,12,12,12s12-5.3833008,12-12S18.6171875,0,12,0z M12,23
		C5.9345703,23,1,18.0654297,1,12S5.9345703,1,12,1c2.8532104,0,5.4476318,1.1010742,7.4044189,2.8889771l-2.8273926,2.8270264
		C15.3483276,5.6502686,13.7501221,5,12,5c-3.859375,0-7,3.1401367-7,7s3.140625,7,7,7c3.519043,0,6.432312-2.6134033,6.920166-6H22
		c0.5527344,0,1-0.4477539,1-1s-0.4472656-1-1-1h-3.079834c-0.1954346-1.3566284-0.77771-2.5874023-1.6361084-3.5770264
		l2.8273315-2.8269043C21.8990479,6.5527954,23,9.1470337,23,12C23,18.0654297,18.0654297,23,12,23z M15.8579712,11
		C15.4108276,9.2797241,13.8587036,8,12,8c-2.2060547,0-4,1.7944336-4,4s1.7939453,4,4,4
		c1.8587036,0,3.4108276-1.2797241,3.8579712-3h2.0516968C17.4313354,15.8331299,14.9672241,18,12,18c-3.3085938,0-6-2.6914063-6-6
		s2.6914063-6,6-6c2.9672241,0,5.4313354,2.1668701,5.909668,5H15.8579712z M12,13h2.8157349
		C14.4016113,14.161499,13.3019409,15,12,15c-1.6542969,0-3-1.3457031-3-3s1.3457031-3,3-3
		c1.3019409,0,2.4016113,0.838501,2.8157349,2H12c-0.5527344,0-1,0.4477539-1,1S11.4472656,13,12,13z"/>
	<path fill="#303C42" d="M12,4c0.5517578,0,1-0.4487305,1-1s-0.4482422-1-1-1s-1,0.4487305-1,1S11.4482422,4,12,4z M12,2.9990234
		L12.5,3H12C12,3,12,2.9995117,12,2.9990234z"/>
	<path fill="#303C42" d="M12,20c-0.5517578,0-1,0.4487305-1,1s0.4482422,1,1,1s1-0.4487305,1-1S12.5517578,20,12,20z M12,21
		c0,0,0-0.0004883,0-0.0009766L12.5,21H12z"/>
	<path fill="#303C42" d="M5.6357422,6.6357422c0.2558594,0,0.5117188-0.0976563,0.7070313-0.2924805
		C6.5322266,6.1542969,6.6357422,5.902832,6.6357422,5.6352539c0-0.2666016-0.1044922-0.5175781-0.2929688-0.7060547V4.9287109
		c-0.390625-0.3896484-1.0234375-0.3896484-1.4140625,0c-0.1884766,0.1884766-0.2929688,0.4394531-0.2929688,0.706543
		c0,0.2675781,0.1035156,0.519043,0.2929688,0.7080078C5.1240234,6.5380859,5.3798828,6.6357422,5.6357422,6.6357422z
		 M5.9892578,5.2827148L5.6357422,5.6362305c0,0,0-0.0004883-0.0009766-0.0004883L5.9892578,5.2827148z"/>
	<path fill="#303C42" d="M17.6572266,17.6567383c-0.1894531,0.1889648-0.2929688,0.4404297-0.2929688,0.7080078
		c0,0.2670898,0.1044922,0.5180664,0.2929688,0.7060547c0.1953125,0.1948242,0.4511719,0.2924805,0.7070313,0.2924805
		s0.5117188-0.097168,0.7070313-0.2919922c0.1884766-0.1884766,0.2929688-0.4394531,0.2929688-0.706543
		c0-0.2675781-0.1035156-0.519043-0.2929688-0.7080078C18.6806641,17.2670898,18.0478516,17.2670898,17.6572266,17.6567383z
		 M18.3642578,18.3637695c0,0,0-0.0004883-0.0009766-0.0004883l0.3544922-0.3530273L18.3642578,18.3637695z"/>
	<path fill="#303C42" d="M3,11c-0.5517578,0-1,0.4487305-1,1s0.4482422,1,1,1s1-0.4487305,1-1S3.5517578,11,3,11z M3,11.9995117
		L2.9990234,12L3,11.5V11.9995117z"/>
	<path fill="#303C42" d="M4.9287109,17.6567383c-0.1894531,0.1889648-0.2929688,0.4404297-0.2929688,0.7080078
		c0,0.2670898,0.1044922,0.5180664,0.2929688,0.7060547c0.1953125,0.1948242,0.4511719,0.2924805,0.7070313,0.2924805
		s0.5117188-0.097168,0.7070313-0.2919922c0.1884766-0.1884766,0.2929688-0.4394531,0.2929688-0.706543
		c0-0.2675781-0.1035156-0.519043-0.2929688-0.7080078C5.9521484,17.2670898,5.3193359,17.2670898,4.9287109,17.6567383z
		 M5.2822266,18.0102539l0.3525391,0.3525391c0.0009766,0.0004883,0.0009766,0.0014648,0.0009766,0.0014648L5.2822266,18.0102539z"
		/>
</g>
<g>
</g>
<g>
</g>
<g>
</g>
<g>
</g>
<g>
</g>
<g>
</g>
<g>
</g>
<g>
</g>
<g>
</g>
<g>
</g>
<g>
</g>
<g>
</g>
<g>
</g>
<g>
</g>
<g>
</g>
</svg>
