<?xml version="1.0" encoding="iso-8859-1"?>
<!-- Generator: Adobe Illustrator 21.0.0, SVG Export Plug-In . SVG Version: 6.00 Build 0)  -->
<svg version="1.1" id="Layer_1" xmlns="http://www.w3.org/2000/svg" xmlns:xlink="http://www.w3.org/1999/xlink" x="0px" y="0px"
	 viewBox="0 0 30 30" enable-background="new 0 0 30 30" xml:space="preserve">
<g>
	<path fill="#303C42" d="M29.7617188,12.4140625C29.7207031,12.1748047,29.5126953,12,29.2695313,12H15.5
		c-0.2763672,0-0.5,0.2236328-0.5,0.5v5c0,0.2763672,0.2236328,0.5,0.5,0.5h7.9765625
		c-0.5146484,1.453125-1.3964844,2.7504883-2.578125,3.7827148c-0.1113281,0.0976563-0.1748047,0.2402344-0.1708984,0.3886719
		c0.0039063,0.1489258,0.0732422,0.2880859,0.1904297,0.3803711l3.9677734,3.1328125
		c0.0908203,0.0717773,0.2001953,0.1074219,0.3095703,0.1074219c0.1279297,0,0.2548828-0.0488281,0.3525391-0.1450195
		c2.2226563-2.2070313,3.6806641-4.9946289,4.2138672-8.0610352C29.921875,16.6660156,30,15.8203125,30,15
		S29.921875,13.3339844,29.7617188,12.4140625z"/>
	<path fill="#303C42" d="M6.2753906,10.9921875c0.0888672,0.0703125,0.1982422,0.1074219,0.3095703,0.1074219
		c0.0351563,0,0.0693359-0.003418,0.1044922-0.0107422c0.1455078-0.03125,0.2695313-0.1254883,0.3378906-0.2573242
		C8.5898438,7.8515625,11.6445313,6,15,6c1.9560547,0,3.8222656,0.6259766,5.3964844,1.8105469
		C20.5966797,7.9609375,20.875,7.9414063,21.0507813,7.7646484l3.5644531-3.5644531
		c0.0996094-0.0991211,0.1523438-0.2358398,0.1455078-0.3764648c-0.0058594-0.1401367-0.0712891-0.2714844-0.1796875-0.3613281
		C21.8964844,1.2294922,18.4941406,0,15,0C9.7373047,0,4.9511719,2.6962891,2.1972656,7.2124023
		c-0.1318359,0.2158203-0.0810547,0.4960938,0.1171875,0.652832L6.2753906,10.9921875z"/>
	<path fill="#303C42" d="M6.2929688,17.2407227C6.0986328,16.4833984,6,15.7294922,6,15
		c0-0.7573242,0.1054688-1.5375977,0.3134766-2.3193359c0.0507813-0.1923828-0.0166016-0.3974609-0.1738281-0.5209961
		L1.9882813,8.8823242C1.8662109,8.7861328,1.7080078,8.7519531,1.5556641,8.7900391
		C1.4052734,8.8286133,1.28125,8.9345703,1.2197266,9.0771484C0.4101563,10.9580078,0,12.9506836,0,15
		c0,2.0263672,0.3984375,3.9946289,1.1845703,5.8486328c0.0605469,0.144043,0.1845703,0.2509766,0.3359375,0.2895508
		c0.0410156,0.0102539,0.0830078,0.015625,0.1240234,0.015625c0.1113281,0,0.2207031-0.0371094,0.3095703-0.1074219
		l4.1640625-3.2885742C6.2734375,17.6352539,6.3417969,17.4326172,6.2929688,17.2407227z"/>
	<path fill="#303C42" d="M19.8251953,22.9638672c-0.15625-0.1230469-0.3730469-0.1411133-0.5478516-0.046875
		C17.9726563,23.6254883,16.4941406,24,15,24c-3.3867188,0-6.453125-1.8774414-8.0039063-4.8994141
		c-0.0683594-0.1333008-0.1933594-0.2290039-0.3388672-0.2607422c-0.1464844-0.0302734-0.2988281,0.0039063-0.4160156,0.0961914
		l-3.9667969,3.1318359c-0.1982422,0.15625-0.2490234,0.4345703-0.1191406,0.6503906C4.9003906,27.277832,9.7021484,30,15,30
		c3.2460938,0,6.3408203-1.0302734,8.9482422-2.9799805c0.1240234-0.0927734,0.1982422-0.2382813,0.2001953-0.394043
		c0.0019531-0.1552734-0.0683594-0.3027344-0.1904297-0.3989258L19.8251953,22.9638672z"/>
</g>
<g>
</g>
<g>
</g>
<g>
</g>
<g>
</g>
<g>
</g>
<g>
</g>
<g>
</g>
<g>
</g>
<g>
</g>
<g>
</g>
<g>
</g>
<g>
</g>
<g>
</g>
<g>
</g>
<g>
</g>
</svg>
