<?xml version="1.0" encoding="iso-8859-1"?>
<!-- Generator: Adobe Illustrator 21.0.0, SVG Export Plug-In . SVG Version: 6.00 Build 0)  -->
<svg version="1.1" id="Layer_1" xmlns="http://www.w3.org/2000/svg" xmlns:xlink="http://www.w3.org/1999/xlink" x="0px" y="0px"
	 viewBox="0 0 24 24" enable-background="new 0 0 24 24" xml:space="preserve">
<g id="XMLID_1602_">
	<path id="XMLID_1350_" fill="none" stroke="#303C42" stroke-linecap="round" stroke-linejoin="round" stroke-miterlimit="10" d="
		M22.2449951,11.5732422C17.274231,8.7597046,7.263916,3.2543945,2.2269897,0.5610962C2.1585083,0.5244751,2.0830688,0.5,2,0.5
		C1.723877,0.5,1.5,0.7238159,1.5,1v11v11c0,0.2761841,0.223877,0.5,0.5,0.5c0.0830688,0,0.1585083-0.0244751,0.2269897-0.0610962
		c5.0369263-2.6932983,15.0472412-8.1986084,20.0180054-11.012146C22.3953857,12.3416138,22.5,12.1853027,22.5,12
		S22.3953857,11.6583862,22.2449951,11.5732422z"/>
	
		<line id="XMLID_1343_" fill="none" stroke="#303C42" stroke-linejoin="round" stroke-miterlimit="10" x1="2.2269897" y1="0.5610962" x2="16.8825035" y2="15.4253483"/>
	
		<line id="XMLID_1348_" fill="none" stroke="#303C42" stroke-linejoin="round" stroke-miterlimit="10" x1="2.2269897" y1="23.4389038" x2="16.8825035" y2="8.5746517"/>
</g>
<g>
</g>
<g>
</g>
<g>
</g>
<g>
</g>
<g>
</g>
<g>
</g>
<g>
</g>
<g>
</g>
<g>
</g>
<g>
</g>
<g>
</g>
<g>
</g>
<g>
</g>
<g>
</g>
<g>
</g>
</svg>
