<?xml version="1.0" encoding="iso-8859-1"?>
<!-- Generator: Adobe Illustrator 21.0.0, SVG Export Plug-In . SVG Version: 6.00 Build 0)  -->
<svg version="1.1" id="Layer_1" xmlns="http://www.w3.org/2000/svg" xmlns:xlink="http://www.w3.org/1999/xlink" x="0px" y="0px"
	 viewBox="0 0 30 30" enable-background="new 0 0 30 30" xml:space="preserve">
<path fill="#303C42" d="M26,2H4C2.8969727,2,2,2.8969727,2,4v22c0,1.1030273,0.8969727,2,2,2h22c1.1030273,0,2-0.8969727,2-2V4
	C28,2.8969727,27.1030273,2,26,2z M14.4091797,24c-3.6943359,0-6.0332031-1.1367188-6.1308594-1.1850586
	C8.1079102,22.7304688,8,22.5566406,8,22.3666992v-3.3999023c0-0.1538086,0.0708008-0.2993164,0.1918945-0.394043
	c0.1220703-0.0942383,0.2822266-0.1259766,0.4287109-0.0913086c1.2504883,0.3110352,4.7280273,1.1186523,5.7885742,1.1186523
	c1.0800781,0,1.8637695-0.5048828,1.8637695-1.2001953c0-0.3588867,0-1.199707-1.8637695-1.199707
	C11.9311523,17.2001953,8,15.6796875,8,11.6000977C8,7.9628906,11.6064453,6,15,6
	c3.3583984,0,6.074707,1.0908203,6.1884766,1.137207C21.3769531,7.2138672,21.5,7.3969727,21.5,7.6000977V11
	c0,0.159668-0.0761719,0.3095703-0.2045898,0.4033203c-0.1289063,0.0942383-0.293457,0.121582-0.4467773,0.0732422
	c-0.0336914-0.0107422-3.4130859-1.0766602-5.2578125-1.0766602C14.8100586,10.3999023,13.5,10.5429688,13.5,11.5
	c0,0.8017578,1.2539063,1.2998047,3.2729492,1.2998047C19.3706055,12.7998047,22,14.7236328,22,18.3999023
	C22,21.8017578,19.0205078,24,14.4091797,24z"/>
<g>
</g>
<g>
</g>
<g>
</g>
<g>
</g>
<g>
</g>
<g>
</g>
<g>
</g>
<g>
</g>
<g>
</g>
<g>
</g>
<g>
</g>
<g>
</g>
<g>
</g>
<g>
</g>
<g>
</g>
</svg>
