<?xml version="1.0" encoding="iso-8859-1"?>
<!-- Generator: Adobe Illustrator 21.0.0, SVG Export Plug-In . SVG Version: 6.00 Build 0)  -->
<svg version="1.1" id="Layer_1" xmlns="http://www.w3.org/2000/svg" xmlns:xlink="http://www.w3.org/1999/xlink" x="0px" y="0px"
	 viewBox="0 0 24 24" enable-background="new 0 0 24 24" xml:space="preserve">
<g>
	<path fill="#303C42" d="M21,9h-3.0467529C17.9703369,8.8594971,18,8.7217407,18,8.578125V2c0-1.1030273-0.8974609-2-2-2H8
		C6.8974609,0,6,0.8969727,6,2v6.578125C6,8.7217407,6.0297241,8.8594971,6.046814,9H3c-1.1025391,0-2,0.8969727-2,2v11
		c0,1.1030273,0.8974609,2,2,2h18c1.1025391,0,2-0.8969727,2-2V11C23,9.8969727,22.1025391,9,21,9z M7,2
		c0-0.5512695,0.4482422-1,1-1h8c0.5517578,0,1,0.4487305,1,1v6.578125c0,0.7529297-0.3339844,1.4584961-0.9169922,1.9355469
		v-0.0004883L12,13.8540039l-4.0830078-3.340332C7.3339844,10.0366211,7,9.3310547,7,8.578125V2z M16.25,12v1h-1v-0.5130615
		L15.8451538,12H16.25z M7.75,12h0.4048462L8.75,12.4869385V13h-1V12z M22,22c0,0.5512695-0.4482422,1-1,1H3
		c-0.5517578,0-1-0.4487305-1-1V11c0-0.5512695,0.4482422-1,1-1h3.3091431
		c0.1738892,0.3904419,0.428772,0.7380371,0.7376099,1.0449829C6.8724365,11.1230469,6.75,11.2964478,6.75,11.5v2
		c0,0.2763672,0.2236328,0.5,0.5,0.5h2c0.2763672,0,0.5-0.2236328,0.5-0.5v-0.1948853l1.9335938,1.5820923
		C11.7753906,14.9624023,11.8876953,15,12,15s0.2246094-0.0375977,0.3164063-0.112793L14.25,13.3051147V13.5
		c0,0.2763672,0.2236328,0.5,0.5,0.5h2c0.2763672,0,0.5-0.2236328,0.5-0.5v-2c0-0.2036743-0.1224976-0.3771362-0.296936-0.4551392
		C17.2619629,10.7380371,17.5169678,10.3905029,17.6908569,10H21c0.5517578,0,1,0.4487305,1,1V22z"/>
	<path fill="#303C42" d="M18,19H6c-0.2763672,0-0.5,0.2236328-0.5,0.5v2C5.5,21.7763672,5.7236328,22,6,22h12
		c0.2763672,0,0.5-0.2236328,0.5-0.5v-2C18.5,19.2236328,18.2763672,19,18,19z M17.5,21h-11v-1h11V21z"/>
	<path fill="#303C42" d="M6,17.5v-2C6,15.2236328,5.7763672,15,5.5,15h-2C3.2236328,15,3,15.2236328,3,15.5v2
		C3,17.7763672,3.2236328,18,3.5,18h2C5.7763672,18,6,17.7763672,6,17.5z M5,17H4v-1h1V17z"/>
	<path fill="#303C42" d="M7.25,18h2c0.2763672,0,0.5-0.2236328,0.5-0.5v-2c0-0.2763672-0.2236328-0.5-0.5-0.5h-2
		c-0.2763672,0-0.5,0.2236328-0.5,0.5v2C6.75,17.7763672,6.9736328,18,7.25,18z M7.75,16h1v1h-1V16z"/>
	<path fill="#303C42" d="M10.5,15.5v2c0,0.2763672,0.2236328,0.5,0.5,0.5h2c0.2763672,0,0.5-0.2236328,0.5-0.5v-2
		c0-0.2763672-0.2236328-0.5-0.5-0.5h-1h-1C10.7236328,15,10.5,15.2236328,10.5,15.5z M11.5,16h1v1h-1V16z"/>
	<path fill="#303C42" d="M14.75,18h2c0.2763672,0,0.5-0.2236328,0.5-0.5v-2c0-0.2763672-0.2236328-0.5-0.5-0.5h-2
		c-0.2763672,0-0.5,0.2236328-0.5,0.5v2C14.25,17.7763672,14.4736328,18,14.75,18z M15.25,16h1v1h-1V16z"/>
	<path fill="#303C42" d="M20.5,15h-2c-0.2763672,0-0.5,0.2236328-0.5,0.5v2c0,0.2763672,0.2236328,0.5,0.5,0.5h2
		c0.2763672,0,0.5-0.2236328,0.5-0.5v-2C21,15.2236328,20.7763672,15,20.5,15z M20,17h-1v-1h1V17z"/>
	<path fill="#303C42" d="M3.5,14h2C5.7763672,14,6,13.7763672,6,13.5v-2C6,11.2236328,5.7763672,11,5.5,11h-2
		C3.2236328,11,3,11.2236328,3,11.5v2C3,13.7763672,3.2236328,14,3.5,14z M4,12h1v1H4V12z"/>
	<path fill="#303C42" d="M20.5,11h-2c-0.2763672,0-0.5,0.2236328-0.5,0.5v2c0,0.2763672,0.2236328,0.5,0.5,0.5h2
		c0.2763672,0,0.5-0.2236328,0.5-0.5v-2C21,11.2236328,20.7763672,11,20.5,11z M20,13h-1v-1h1V13z"/>
	<path fill="#303C42" d="M12,9c1.6542969,0,3-1.3457031,3-3c0-0.2763672-0.2236328-0.5-0.5-0.5h-2C12.2236328,5.5,12,5.7236328,12,6
		s0.2236328,0.5,0.5,0.5h1.4365234C13.7138672,7.3618164,12.9306641,8,12,8c-1.1025391,0-2-0.8969727-2-2s0.8974609-2,2-2
		c0.4374924,0,0.8535156,0.1386719,1.2011719,0.4003906c0.21875,0.1655273,0.5341797,0.1230469,0.7001953-0.0986328
		c0.1660156-0.2207031,0.1220703-0.5341797-0.0986328-0.7001953C13.2792969,3.2080078,12.65625,3,12,3c-1.6542969,0-3,1.3457031-3,3
		S10.3457031,9,12,9z"/>
</g>
<g>
</g>
<g>
</g>
<g>
</g>
<g>
</g>
<g>
</g>
<g>
</g>
<g>
</g>
<g>
</g>
<g>
</g>
<g>
</g>
<g>
</g>
<g>
</g>
<g>
</g>
<g>
</g>
<g>
</g>
</svg>
