<?xml version="1.0" encoding="iso-8859-1"?>
<!-- Generator: Adobe Illustrator 21.0.0, SVG Export Plug-In . SVG Version: 6.00 Build 0)  -->
<svg version="1.1" id="Layer_1" xmlns="http://www.w3.org/2000/svg" xmlns:xlink="http://www.w3.org/1999/xlink" x="0px" y="0px"
	 viewBox="0 0 30 30" enable-background="new 0 0 30 30" xml:space="preserve">
<g id="XMLID_1596_">
	<path fill="none" stroke="#303C42" stroke-linecap="round" stroke-linejoin="round" stroke-miterlimit="10" d="
		M20.6612911,7.4474034"/>
	<path fill="none" stroke="#303C42" stroke-linecap="round" stroke-linejoin="round" stroke-miterlimit="10" d="
		M24.2673607,3.8412583"/>
	
		<line id="XMLID_1391_" fill="none" stroke="#303C42" stroke-linecap="round" stroke-linejoin="round" stroke-miterlimit="10" x1="2.1150305" y1="8.3448181" x2="6.1046543" y2="11.4945211"/>
	
		<line id="XMLID_1392_" fill="none" stroke="#303C42" stroke-linecap="round" stroke-linejoin="round" stroke-miterlimit="10" x1="2.0786676" y1="21.5843468" x2="6.053709" y2="18.4461555"/>
	
		<line id="XMLID_1393_" fill="none" stroke="#303C42" stroke-linecap="round" stroke-linejoin="round" stroke-miterlimit="10" x1="20.4214153" y1="22.7972279" x2="24.458683" y2="25.9845448"/>
	<path fill="none" stroke="#303C42" stroke-linecap="round" stroke-linejoin="round" stroke-miterlimit="10" d="M29.2698364,12.5
		H15.5v5h8.6564331c-1.098877,4.0317383-4.7764282,7-9.1564331,7c-5.2467041,0-9.5-4.2532959-9.5-9.5S9.7532959,5.5,15,5.5
		c2.140625,0,4.1090698,0.7164917,5.6975708,1.9110718l3.5646362-3.5646362C21.7498779,1.7578125,18.5224609,0.5,15,0.5
		C6.9918823,0.5,0.5,6.9918823,0.5,15S6.9918823,29.5,15,29.5c7.1538696,0,13.0831909-5.1856689,14.2698364-12
		C29.4115601,16.6863403,29.5,15.854248,29.5,15S29.4115601,13.3136597,29.2698364,12.5z"/>
</g>
<g>
</g>
<g>
</g>
<g>
</g>
<g>
</g>
<g>
</g>
<g>
</g>
<g>
</g>
<g>
</g>
<g>
</g>
<g>
</g>
<g>
</g>
<g>
</g>
<g>
</g>
<g>
</g>
<g>
</g>
</svg>
