<?xml version="1.0" encoding="iso-8859-1"?>
<!-- Generator: Adobe Illustrator 21.0.0, SVG Export Plug-In . SVG Version: 6.00 Build 0)  -->
<svg version="1.1" id="Layer_1" xmlns="http://www.w3.org/2000/svg" xmlns:xlink="http://www.w3.org/1999/xlink" x="0px" y="0px"
	 viewBox="0 0 24 24" enable-background="new 0 0 24 24" xml:space="preserve">
<path fill="#303C42" d="M23.9521484,8.2851534c-0.012207-0.0257587-0.0383911-0.0386992-0.0544434-0.0615282l0.0134277-0.0092773
	l-4.5-6.500433c-0.0891113-0.1276941-0.229187-0.1989268-0.3762817-0.2095476l0.0003052-0.0043339l-7.0029297-0.4952722
	c-0.0158691-0.0010377-0.0308838-0.0037234-0.0466919-0.0032961L11.9648438,1l-7,0.5000333L4.9651489,1.504245
	C4.817627,1.5146216,4.6774292,1.5860986,4.5888672,1.7139148l-4.5,6.500433l0.0134277,0.0092773
	C0.0862427,8.2464542,0.0600586,8.2593946,0.0478516,8.2851534c-0.0830078,0.1748161-0.0566406,0.3818607,0.0654297,0.5312853
	l11.5,14.0009327C11.7089844,22.9331017,11.8505859,23,12,23s0.2910156-0.0668983,0.3867188-0.1826286l11.5-14.0009327
	C24.0087891,8.6670141,24.0351563,8.4599695,23.9521484,8.2851534z M22.5457153,8h-2.5830688L19.640625,3.8032227L22.5457153,8z
	 M13.3746948,2.0992432l5.1602173,0.3685913l0.3682251,4.7912598L13.3746948,2.0992432z M18.2315674,8H5.7684326L12,2.184082
	L18.2315674,8z M5.0968628,7.2590942l0.3682251-4.7915649l5.164917-0.3726807L5.0968628,7.2590942z M18.664856,9L12,21.4415283
	L5.335144,9H18.664856z M4.0373535,8H1.4542847L4.359375,3.8032227L4.0373535,8z M4.2008057,9l4.9559326,9.2510986L1.5576172,9
	H4.2008057z M14.8432617,18.2510986L19.7991943,9h2.6431885L14.8432617,18.2510986z"/>
<g>
</g>
<g>
</g>
<g>
</g>
<g>
</g>
<g>
</g>
<g>
</g>
<g>
</g>
<g>
</g>
<g>
</g>
<g>
</g>
<g>
</g>
<g>
</g>
<g>
</g>
<g>
</g>
<g>
</g>
</svg>
