<?xml version="1.0" encoding="iso-8859-1"?>
<!-- Generator: Adobe Illustrator 21.0.0, SVG Export Plug-In . SVG Version: 6.00 Build 0)  -->
<svg version="1.1" id="Layer_1" xmlns="http://www.w3.org/2000/svg" xmlns:xlink="http://www.w3.org/1999/xlink" x="0px" y="0px"
	 viewBox="0 0 24 24" enable-background="new 0 0 24 24" xml:space="preserve">
<g id="XMLID_1590_">
	<path id="XMLID_1334_" fill="none" stroke="#303C42" stroke-linecap="round" stroke-linejoin="round" stroke-miterlimit="10" d="
		M22.5,10.5c0-5.5228882-4.7009888-10-10.5-10c-5.4812622,0-10.0233154,3.8978271-10.5,9c2.875-2.875,6.3333335-5,10.5-5
		c3.375,0,4.5,2.125,4.5,6h-9C7.5,9.25,8,8,9,6.5c-3.3333335,1.833333-5.5,3.9771118-5.5,8c0,4.97052,4.7009888,9,10.5,9
		c2.4568481,0,4.7113037-0.5489502,6.5-1.5537109V17.5c-1.3700562,1.0305786-3.208334,2-5.5,2c-3.8702393,0-7.4166665-1-7.5-5h15
		V10.5z"/>
</g>
<g>
</g>
<g>
</g>
<g>
</g>
<g>
</g>
<g>
</g>
<g>
</g>
<g>
</g>
<g>
</g>
<g>
</g>
<g>
</g>
<g>
</g>
<g>
</g>
<g>
</g>
<g>
</g>
<g>
</g>
</svg>
