<?xml version="1.0" encoding="iso-8859-1"?>
<!-- Generator: Adobe Illustrator 21.0.0, SVG Export Plug-In . SVG Version: 6.00 Build 0)  -->
<svg version="1.1" id="Layer_1" xmlns="http://www.w3.org/2000/svg" xmlns:xlink="http://www.w3.org/1999/xlink" x="0px" y="0px"
	 viewBox="0 0 30 30" enable-background="new 0 0 30 30" xml:space="preserve">
<g id="XMLID_1239_">
	
		<line id="XMLID_1244_" fill="none" stroke="#303C42" stroke-linecap="round" stroke-linejoin="round" stroke-miterlimit="10" x1="17.5" y1="19.5" x2="27.5" y2="19.5"/>
	
		<line id="XMLID_1243_" fill="none" stroke="#303C42" stroke-linecap="round" stroke-linejoin="round" stroke-miterlimit="10" x1="17.5" y1="22.5" x2="27.5" y2="22.5"/>
	<path id="XMLID_1240_" fill="none" stroke="#303C42" stroke-linecap="round" stroke-linejoin="round" stroke-miterlimit="10" d="
		M6.5,19.5v-9h1.3333359C9.3060942,10.5,10.5,11.5798359,10.5,12.9999952V13c0,1.4201593-1.0272417,2.5-2.5,2.5H6.5"/>
	
		<polygon id="XMLID_1127_" fill="none" stroke="#303C42" stroke-linecap="round" stroke-linejoin="round" stroke-miterlimit="10" points="
		17.5,0.5 0.5,3.652174 0.5,26.347826 17.5,29.5 	"/>
	
		<polyline id="XMLID_1126_" fill="none" stroke="#303C42" stroke-linecap="round" stroke-linejoin="round" stroke-miterlimit="10" points="
		17.5,4.5 29.5,4.5 29.5,25.5 17.5,25.5 	"/>
	<path fill="none" stroke="#303C42" stroke-linecap="round" stroke-linejoin="round" stroke-miterlimit="10" d="M22.5,8.6414185
		C22.1785889,8.5581665,21.8474121,8.5,21.5,8.5c-2.2091675,0-4,1.7908325-4,4c0,2.2091064,1.7908325,4,4,4s4-1.7908936,4-4
		c0-0.3474121-0.0581665-0.6785889-0.1414185-1"/>
	<path fill="none" stroke="#303C42" stroke-linecap="round" stroke-linejoin="round" stroke-miterlimit="10" d="M26.5,11.5
		c0-2.2091389-1.7908611-4-4-4v4H26.5z"/>
</g>
<g>
</g>
<g>
</g>
<g>
</g>
<g>
</g>
<g>
</g>
<g>
</g>
<g>
</g>
<g>
</g>
<g>
</g>
<g>
</g>
<g>
</g>
<g>
</g>
<g>
</g>
<g>
</g>
<g>
</g>
</svg>
