<?xml version="1.0" encoding="iso-8859-1"?>
<!-- Generator: Adobe Illustrator 21.0.0, SVG Export Plug-In . SVG Version: 6.00 Build 0)  -->
<svg version="1.1" id="Layer_1" xmlns="http://www.w3.org/2000/svg" xmlns:xlink="http://www.w3.org/1999/xlink" x="0px" y="0px"
	 viewBox="0 0 24 24" enable-background="new 0 0 24 24" xml:space="preserve">
<g>
	<path fill="#303C42" d="M21,9h-3.0467529C17.9703369,8.8594971,18,8.7217407,18,8.578125V2c0-1.1030273-0.8974609-2-2-2H8
		C6.8974609,0,6,0.8969727,6,2v6.578125C6,8.7217407,6.0297241,8.8594971,6.046814,9H3c-1.1025391,0-2,0.8969727-2,2v11
		c0,1.1030273,0.8974609,2,2,2h18c1.1025391,0,2-0.8969727,2-2V11C23,9.8969727,22.1025391,9,21,9z M17.25,11.5v2
		c0,0.2763672-0.2236328,0.5-0.5,0.5h-2c-0.2763672,0-0.5-0.2236328-0.5-0.5v-0.1948853l2.4658203-2.0175171
		c0-0.0004883,0-0.0004883,0-0.0004883c0.0888062-0.0726318,0.1567993-0.1624146,0.2372437-0.2422485
		C17.1275024,11.1228638,17.25,11.2963257,17.25,11.5z M10.5,15.5c0-0.2763672,0.2236328-0.5,0.5-0.5h2
		c0.2763672,0,0.5,0.2236328,0.5,0.5v2c0,0.2763672-0.2236328,0.5-0.5,0.5h-2c-0.2763672,0-0.5-0.2236328-0.5-0.5V15.5z M14.25,15.5
		c0-0.2763672,0.2236328-0.5,0.5-0.5h2c0.2763672,0,0.5,0.2236328,0.5,0.5v2c0,0.2763672-0.2236328,0.5-0.5,0.5h-2
		c-0.2763672,0-0.5-0.2236328-0.5-0.5V15.5z M7,2c0-0.5512695,0.4482422-1,1-1h8c0.5517578,0,1,0.4487305,1,1v6.578125
		c0,0.7529297-0.3339844,1.4584961-0.9169922,1.9355469v-0.0004883L12,13.8540039l-4.0830078-3.340332
		C7.3339844,10.0366211,7,9.3310547,7,8.578125V2z M7.2841797,11.2875977L9.75,13.3051147V13.5c0,0.2763672-0.2236328,0.5-0.5,0.5
		h-2c-0.2763672,0-0.5-0.2236328-0.5-0.5v-2c0-0.2035522,0.1224365-0.3769531,0.2967529-0.4550171
		C7.1272583,11.125,7.1952515,11.2148438,7.2841797,11.2875977z M9.75,15.5v2c0,0.2763672-0.2236328,0.5-0.5,0.5h-2
		c-0.2763672,0-0.5-0.2236328-0.5-0.5v-2c0-0.2763672,0.2236328-0.5,0.5-0.5h2C9.5263672,15,9.75,15.2236328,9.75,15.5z M3,11.5
		C3,11.2236328,3.2236328,11,3.5,11h2C5.7763672,11,6,11.2236328,6,11.5v2C6,13.7763672,5.7763672,14,5.5,14h-2
		C3.2236328,14,3,13.7763672,3,13.5V11.5z M3,17.5v-2C3,15.2236328,3.2236328,15,3.5,15h2C5.7763672,15,6,15.2236328,6,15.5v2
		C6,17.7763672,5.7763672,18,5.5,18h-2C3.2236328,18,3,17.7763672,3,17.5z M18.5,21.5c0,0.2763672-0.2236328,0.5-0.5,0.5H6
		c-0.2763672,0-0.5-0.2236328-0.5-0.5v-2C5.5,19.2236328,5.7236328,19,6,19h12c0.2763672,0,0.5,0.2236328,0.5,0.5V21.5z M21,17.5
		c0,0.2763672-0.2236328,0.5-0.5,0.5h-2c-0.2763672,0-0.5-0.2236328-0.5-0.5v-2c0-0.2763672,0.2236328-0.5,0.5-0.5h2
		c0.2763672,0,0.5,0.2236328,0.5,0.5V17.5z M21,13.5c0,0.2763672-0.2236328,0.5-0.5,0.5h-2c-0.2763672,0-0.5-0.2236328-0.5-0.5v-2
		c0-0.2763672,0.2236328-0.5,0.5-0.5h2c0.2763672,0,0.5,0.2236328,0.5,0.5V13.5z"/>
	<path fill="#303C42" d="M12,9c1.6542969,0,3-1.3457031,3-3c0-0.2763672-0.2236328-0.5-0.5-0.5h-2C12.2236328,5.5,12,5.7236328,12,6
		s0.2236328,0.5,0.5,0.5h1.4365234C13.7138672,7.3618164,12.9306641,8,12,8c-1.1025391,0-2-0.8969727-2-2s0.8974609-2,2-2
		c0.4374924,0,0.8535156,0.1386719,1.2011719,0.4003906c0.21875,0.1655273,0.5341797,0.1230469,0.7001953-0.0986328
		c0.1660156-0.2207031,0.1220703-0.5341797-0.0986328-0.7001953C13.2792969,3.2080078,12.65625,3,12,3c-1.6542969,0-3,1.3457031-3,3
		S10.3457031,9,12,9z"/>
</g>
<g>
</g>
<g>
</g>
<g>
</g>
<g>
</g>
<g>
</g>
<g>
</g>
<g>
</g>
<g>
</g>
<g>
</g>
<g>
</g>
<g>
</g>
<g>
</g>
<g>
</g>
<g>
</g>
<g>
</g>
</svg>
