<?xml version="1.0" encoding="iso-8859-1"?>
<!-- Generator: Adobe Illustrator 21.0.0, SVG Export Plug-In . SVG Version: 6.00 Build 0)  -->
<svg version="1.1" id="Layer_1" xmlns="http://www.w3.org/2000/svg" xmlns:xlink="http://www.w3.org/1999/xlink" x="0px" y="0px"
	 viewBox="0 0 24 24" enable-background="new 0 0 24 24" xml:space="preserve">
<path fill="#303C42" d="M21.961935,23.3082581c-2.3787155-5.7553158-9.499999-23.0274067-9.499999-23.0274067
	c-0.1542969-0.3744691-0.7695313-0.3744691-0.9238281,0l-9.5,23.0274067
	c-0.0639647,0.1544819-0.0463866,0.3304729,0.0463867,0.4693089C2.1772676,23.9164047,2.3330293,24,2.5000215,24h7.0000005
	c0.2763672,0,0.5-0.2238998,0.5-0.5005951v-4.5914021c0-0.1329708-0.0527344-0.2600765-0.1464844-0.3539371l-1.7070313-1.7090664
	c-0.0942383-0.0948391-0.1464844-0.2204762-0.1464844-0.3539371c0-0.1334591,0.0522461-0.2590961,0.1464844-0.3539352
	c0.1894531-0.1887016,0.5175781-0.1887016,0.7070313,0l0.2929688,0.2933178
	c0.1435547,0.1437244,0.359375,0.187233,0.5449219,0.1085262c0.1870117-0.07724,0.3085938-0.2600746,0.3085938-0.4624634v-3.0896149
	h4v1.6474686c0,0.1794128,0.0957031,0.3451366,0.2509766,0.4341097c0.1552734,0.0894623,0.3466797,0.0884848,0.5009766-0.001955
	c0.2260742-0.1315041,0.5239258-0.0659962,0.6640625,0.1456814c0.152832,0.2297659,0.0908203,0.5411711-0.1386719,0.6941853
	l-1.0546875,0.7039633c-0.1391602,0.0928841-0.2226563,0.2493191-0.2226563,0.4165115v0.3470917
	c0,0.1735477,0.0898438,0.334383,0.2373047,0.4258003c0.1464844,0.0914173,0.3310547,0.0987511,0.4863281,0.0219994
	l1.5517569-0.776804c0.2460938-0.1227055,0.5512695-0.0171108,0.671875,0.2234097
	c0.1235352,0.2468777,0.0229492,0.5485058-0.2236328,0.6716995l-2.4472647,1.22509
	c-0.1694336,0.085062-0.2763672,0.2581196-0.2763672,0.4477978v3.8864632c0,0.2766953,0.2236328,0.5005951,0.5,0.5005951h6.999999
	c0.1669922,0,0.3227539-0.0835953,0.4155273-0.2224331C22.0083218,23.638731,22.0258007,23.46278,21.961935,23.3082581z"/>
<g>
</g>
<g>
</g>
<g>
</g>
<g>
</g>
<g>
</g>
<g>
</g>
<g>
</g>
<g>
</g>
<g>
</g>
<g>
</g>
<g>
</g>
<g>
</g>
<g>
</g>
<g>
</g>
<g>
</g>
</svg>
