<?xml version="1.0" encoding="iso-8859-1"?>
<!-- Generator: Adobe Illustrator 21.0.0, SVG Export Plug-In . SVG Version: 6.00 Build 0)  -->
<svg version="1.1" id="Layer_1" xmlns="http://www.w3.org/2000/svg" xmlns:xlink="http://www.w3.org/1999/xlink" x="0px" y="0px"
	 viewBox="0 0 30 30" enable-background="new 0 0 30 30" xml:space="preserve">
<g>
	<path fill="#303C42" d="M10.4760742,18.0001202c0.2763672,0,0.5-0.2236328,0.5-0.5s-0.2236328-0.5-0.5-0.5h-6
		c-0.2763672,0-0.5,0.2236328-0.5,0.5s0.2236328,0.5,0.5,0.5h2.5v7.5c0,0.2763672,0.2236328,0.5,0.5,0.5s0.5-0.2236328,0.5-0.5v-7.5
		H10.4760742z"/>
	<path fill="#303C42" d="M23.7260742,20.0001202h-0.5c-1.2407227,0-2.25,1.0092773-2.25,2.25v0.75v0.75
		c0,1.2407227,1.0092773,2.25,2.25,2.25h0.5c0.6015625,0,1.1665039-0.234375,1.5913086-0.6591797
		c0.1948242-0.1958008,0.1948242-0.512207-0.0004883-0.7075195c-0.1953125-0.1943359-0.512207-0.1948242-0.7075195,0.0004883
		c-0.2353516,0.2363281-0.5493164,0.3662109-0.8833008,0.3662109h-0.5c-0.6894531,0-1.25-0.5605469-1.25-1.25v-0.25h3.5
		c0.2763672,0,0.5-0.2236328,0.5-0.5v-0.75C25.9760742,21.0093975,24.9667969,20.0001202,23.7260742,20.0001202z
		 M24.9760742,22.5001202h-3v-0.25c0-0.6894531,0.5605469-1.25,1.25-1.25h0.5c0.6894531,0,1.25,0.5605469,1.25,1.25V22.5001202z"/>
	<path fill="#303C42" d="M24.5,15.0001211h-19c-1.9296875,0-3.5,1.5703115-3.5,3.499999v6c0,1.9296875,1.5703125,3.5,3.5,3.5h19
		c1.9296875,0,3.5-1.5703125,3.5-3.5v-6C28,16.5704327,26.4296875,15.0001211,24.5,15.0001211z M27,24.5001202
		c0,1.378418-1.121582,2.5-2.5,2.5h-19c-1.378418,0-2.5-1.121582-2.5-2.5v-6c0-1.378418,1.121582-2.5,2.5-2.5h19
		c1.378418,0,2.5,1.121582,2.5,2.5V24.5001202z"/>
	<path fill="#303C42" d="M7.9760742,8.6744375v4.8256836c0,0.2763672,0.2236328,0.5,0.5,0.5s0.5-0.2236328,0.5-0.5V8.6744375
		l2.9482422-5.9521484c0.1225586-0.2475586,0.0209961-0.5478516-0.2260742-0.6704102
		c-0.2490234-0.121582-0.5478516-0.0200195-0.6704102,0.2260742L8.4760742,7.4302969L5.9243164,2.2779531
		C5.8007813,2.0308828,5.5019531,1.9293203,5.2539063,2.0518789C5.0068359,2.1744375,4.9052734,2.4747305,5.027832,2.7222891
		L7.9760742,8.6744375z"/>
	<path fill="#303C42" d="M10.9760742,8.5001211v3c0,1.378418,1.121582,2.5,2.5,2.5s2.5-1.121582,2.5-2.5v-3
		c0-1.378418-1.121582-2.5-2.5-2.5S10.9760742,7.1217031,10.9760742,8.5001211z M11.9760742,8.5001211
		c0-0.8271484,0.6728516-1.5,1.5-1.5s1.5,0.6728516,1.5,1.5v3c0,0.8271484-0.6728516,1.5-1.5,1.5s-1.5-0.6728516-1.5-1.5V8.5001211z
		"/>
	<path fill="#303C42" d="M19.4760742,14.0001211c0.5649414,0,1.0808716-0.1954956,1.5-0.5127563v0.0127563
		c0,0.2763672,0.2236328,0.5,0.5,0.5s0.5-0.2236328,0.5-0.5v-2v-5c0-0.2763672-0.2236328-0.5-0.5-0.5s-0.5,0.2236328-0.5,0.5v5
		c0,0.8271484-0.6728516,1.5-1.5,1.5s-1.5-0.6728516-1.5-1.5v-5c0-0.2763672-0.2236328-0.5-0.5-0.5s-0.5,0.2236328-0.5,0.5v5
		C16.9760742,12.8785391,18.0976563,14.0001211,19.4760742,14.0001211z"/>
	<path fill="#303C42" d="M13.4760742,20.0001202c-0.2763672,0-0.5,0.2236328-0.5,0.5v3c0,0.8271484-0.6728516,1.5-1.5,1.5
		s-1.5-0.6728516-1.5-1.5v-3c0-0.2763672-0.2236328-0.5-0.5-0.5s-0.5,0.2236328-0.5,0.5v3c0,1.378418,1.121582,2.5,2.5,2.5
		c0.5649414,0,1.0808716-0.1954956,1.5-0.5127563v0.0127563c0,0.2763672,0.2236328,0.5,0.5,0.5s0.5-0.2236328,0.5-0.5v-2v-3
		C13.9760742,20.223753,13.7524414,20.0001202,13.4760742,20.0001202z"/>
	<path fill="#303C42" d="M17.7260742,20.0001202h-0.5c-0.4624023,0-0.8922119,0.1408081-1.25,0.3808594v-2.8808594
		c0-0.2763672-0.2236328-0.5-0.5-0.5s-0.5,0.2236328-0.5,0.5v4.75v1.5v1.75c0,0.2763672,0.2236328,0.5,0.5,0.5
		c0.239502,0,0.4299927-0.1714478,0.4790649-0.3961792c0.3620605,0.2490234,0.7992554,0.3961792,1.2709351,0.3961792h0.5
		c1.2407227,0,2.25-1.0092773,2.25-2.25v-1.5C19.9760742,21.0093975,18.9667969,20.0001202,17.7260742,20.0001202z
		 M18.9760742,23.7501202c0,0.6894531-0.5605469,1.25-1.25,1.25h-0.5c-0.6894531,0-1.25-0.5605469-1.25-1.25v-1.5
		c0-0.6894531,0.5605469-1.25,1.25-1.25h0.5c0.6894531,0,1.25,0.5605469,1.25,1.25V23.7501202z"/>
</g>
<g>
</g>
<g>
</g>
<g>
</g>
<g>
</g>
<g>
</g>
<g>
</g>
<g>
</g>
<g>
</g>
<g>
</g>
<g>
</g>
<g>
</g>
<g>
</g>
<g>
</g>
<g>
</g>
<g>
</g>
</svg>
