<?xml version="1.0" encoding="iso-8859-1"?>
<!-- Generator: Adobe Illustrator 21.0.0, SVG Export Plug-In . SVG Version: 6.00 Build 0)  -->
<svg version="1.1" id="Layer_1" xmlns="http://www.w3.org/2000/svg" xmlns:xlink="http://www.w3.org/1999/xlink" x="0px" y="0px"
	 viewBox="0 0 30 30" enable-background="new 0 0 30 30" xml:space="preserve">
<g>
	<path fill="#303C42" d="M27.3534889,22.6914063c-0.1357422-0.1728516-0.3701172-0.2382813-0.5732422-0.1582031
		C26.7157936,22.5576172,20.3046608,25,14.9784889,25c-5.3828125,0-12.3857422-2.1318359-14.1318359-3.8125
		c-0.1943359-0.1865234-0.5058594-0.1845703-0.6982422,0.0048828c-0.1933594,0.1914063-0.1982422,0.5019531-0.0117188,0.6992188
		C0.3730198,22.140625,6.0195041,28,14.9784889,28c9.0039063,0,12.2578125-4.5214844,12.3916016-4.7138672
		C27.496067,23.1054688,27.4892311,22.8642578,27.3534889,22.6914063z"/>
	<path fill="#303C42" d="M27.6113014,20c-1.5917969,0-3.25,0.6005859-3.3193359,0.6259766
		c-0.2597656,0.0947266-0.3925781,0.3818359-0.2978516,0.6416016c0.0957031,0.2587891,0.3857422,0.390625,0.6416016,0.2978516
		C24.6513405,21.5595703,26.2001686,21,27.6113014,21c1.3886719,0,1.3886719,0.3828125,1.3886719,0.6904297
		c0,0.9716797-1.2763672,2.671875-1.7685547,3.2460938c-0.1796875,0.2089844-0.1552734,0.5244141,0.0546875,0.7041016
		c0.09375,0.0810547,0.2099609,0.1210938,0.3251953,0.1210938c0.140625,0,0.2802734-0.0595703,0.3789063-0.1738281
		c0.2060547-0.2402344,2.0097656-2.3837891,2.0097656-3.8974609C29.9999733,20.1748047,28.636692,20,27.6113014,20z"/>
	<path fill="#303C42" d="M7.9999728,15c0,2.484375,1.7177739,5,5.0000005,5c2.765625,0,4.2480469-1.0166016,5.0019531-1.8613281
		c0.9814453,0.8994141,2.2128906,1.4580078,2.2714844,1.484375c0.1865234,0.0820313,0.4013672,0.046875,0.5488281-0.0927734
		l2.5214844-2.3808594c0.1865234-0.1767578,0.2089844-0.4667969,0.0507813-0.6708984
		c-0.3876953-0.4980469-1.3945313-2.0332031-1.3945313-3.1435547V8.5c0-4.1914063-2.1074219-6.5-5.9345703-6.5
		c-4.3085938,0-6.6669922,1.6386719-7.4238281,5.15625C8.6132545,7.2910156,8.6405983,7.4316406,8.7187233,7.5449219
		C8.7958717,7.6582031,8.9169655,7.734375,9.0527077,7.7558594l3.7822266,0.5957031
		c0.2626953,0.0361328,0.5029297-0.1240234,0.5644531-0.3769531C13.6396217,6.9824219,14.3261452,6.5,15.4999733,6.5
		c0.8447266,0,1.8037109,0.2480469,1.9404297,2.0810547c-1.1933594,0.0917969-4.2558594,0.3955078-5.9980469,1.203125
		C9.1259499,10.8564453,7.9999728,12.5625,7.9999728,15z M17.9784889,12.0087891C17.7236061,14.9482422,15.292942,16,14.7499733,16
		c-0.6533203,0-1.75-0.1787109-1.75-1.375C12.9999733,12.4794922,16.1542702,12.0673828,17.9784889,12.0087891z"/>
</g>
<g>
</g>
<g>
</g>
<g>
</g>
<g>
</g>
<g>
</g>
<g>
</g>
<g>
</g>
<g>
</g>
<g>
</g>
<g>
</g>
<g>
</g>
<g>
</g>
<g>
</g>
<g>
</g>
<g>
</g>
</svg>
