<?xml version="1.0" encoding="iso-8859-1"?>
<!-- Generator: Adobe Illustrator 21.0.0, SVG Export Plug-In . SVG Version: 6.00 Build 0)  -->
<svg version="1.1" id="Layer_1" xmlns="http://www.w3.org/2000/svg" xmlns:xlink="http://www.w3.org/1999/xlink" x="0px" y="0px"
	 viewBox="0 0 30 30" enable-background="new 0 0 30 30" xml:space="preserve">
<g>
	<rect x="19" y="14" fill="#303C42" width="1" height="2"/>
	<rect x="15" y="14" fill="#303C42" width="1" height="2"/>
	<rect x="9" y="14" fill="#303C42" width="1" height="2"/>
	<path fill="#303C42" d="M26,2H4C2.8969727,2,2,2.8974609,2,4v22c0,1.1025391,0.8969727,2,2,2h22c1.1030273,0,2-0.8974609,2-2V4
		C28,2.8974609,27.1030273,2,26,2z M11,16.5c0,0.2763672-0.2236328,0.5-0.5,0.5h-2C8.2236328,17,8,16.7763672,8,16.5v-3
		C8,13.2236328,8.2236328,13,8.5,13H10v-2.5c0-0.2763672,0.2236328-0.5,0.5-0.5s0.5,0.2236328,0.5,0.5V16.5z M13,16.5
		c0,0.2763672-0.2236328,0.5-0.5,0.5S12,16.7763672,12,16.5v-3c0-0.2763672,0.2236328-0.5,0.5-0.5s0.5,0.2236328,0.5,0.5V16.5z
		 M12.5,12c-0.276123,0-0.5-0.223877-0.5-0.5c0-0.2761841,0.223877-0.5,0.5-0.5s0.5,0.2238159,0.5,0.5
		C13,11.776123,12.776123,12,12.5,12z M17,19.5c0,0.2763672-0.2236328,0.5-0.5,0.5h-2c-0.2763672,0-0.5-0.2236328-0.5-0.5
		s0.2236328-0.5,0.5-0.5H16v-2h-1.5c-0.2763672,0-0.5-0.2236328-0.5-0.5v-3c0-0.2763672,0.2236328-0.5,0.5-0.5h2
		c0.2763672,0,0.5,0.2236328,0.5,0.5V19.5z M21,19.5c0,0.2763672-0.2236328,0.5-0.5,0.5h-2c-0.2763672,0-0.5-0.2236328-0.5-0.5
		s0.2236328-0.5,0.5-0.5H20v-2h-1.5c-0.2763672,0-0.5-0.2236328-0.5-0.5v-3c0-0.2763672,0.2236328-0.5,0.5-0.5h2
		c0.2763672,0,0.5,0.2236328,0.5,0.5V19.5z"/>
</g>
<g>
</g>
<g>
</g>
<g>
</g>
<g>
</g>
<g>
</g>
<g>
</g>
<g>
</g>
<g>
</g>
<g>
</g>
<g>
</g>
<g>
</g>
<g>
</g>
<g>
</g>
<g>
</g>
<g>
</g>
</svg>
