<?xml version="1.0" encoding="iso-8859-1"?>
<!-- Generator: Adobe Illustrator 21.0.0, SVG Export Plug-In . SVG Version: 6.00 Build 0)  -->
<svg version="1.1" id="Layer_1" xmlns="http://www.w3.org/2000/svg" xmlns:xlink="http://www.w3.org/1999/xlink" x="0px" y="0px"
	 viewBox="0 0 30 30" enable-background="new 0 0 30 30" xml:space="preserve">
<g id="XMLID_1220_">
	<path fill="none" stroke="#303C42" stroke-linecap="round" stroke-linejoin="round" stroke-miterlimit="10" d="
		M24.0994892,15.7998047c-0.6639404-0.8828125-1.9156647-1.0605469-2.8002701-0.3984375
		C19.4714279,16.7744141,17.2940903,17.5,15.0005636,17.5s-4.4718399-0.7255859-6.2986555-2.0996094
		c-0.884604-0.6640625-2.1382813-0.4853516-2.8002701,0.3964844c-0.6639414,0.8828125-0.4862394,2.1367188,0.3964124,2.8007813
		c1.7100148,1.2852173,3.6444154,2.1494141,5.6965308,2.5807495L7.087945,26.0859375
		c-0.7811074,0.78125-0.7811074,2.046875,0,2.828125C7.4784989,29.3046875,7.9901242,29.5,8.50175,29.5
		s1.0232506-0.1953125,1.4138041-0.5859375l5.0850096-5.0859375l5.0850096,5.0859375
		C20.4761276,29.3046875,20.9877529,29.5,21.4993782,29.5s1.0232506-0.1953125,1.413805-0.5859375
		c0.7811069-0.78125,0.7811069-2.046875,0-2.828125l-4.9065762-4.9074707
		c2.0511398-0.4309692,3.984808-1.2941895,5.6945171-2.5778809C24.5837765,17.9365234,24.762455,16.6835938,24.0994892,15.7998047z"
		/>
	
		<circle id="XMLID_1230_" fill="none" stroke="#303C42" stroke-linecap="round" stroke-linejoin="round" stroke-miterlimit="10" cx="15" cy="7.5" r="7"/>
	
		<circle id="XMLID_1224_" fill="none" stroke="#303C42" stroke-linecap="round" stroke-linejoin="round" stroke-miterlimit="10" cx="15" cy="7.5" r="4"/>
</g>
<g>
</g>
<g>
</g>
<g>
</g>
<g>
</g>
<g>
</g>
<g>
</g>
<g>
</g>
<g>
</g>
<g>
</g>
<g>
</g>
<g>
</g>
<g>
</g>
<g>
</g>
<g>
</g>
<g>
</g>
</svg>
