<?xml version="1.0" encoding="iso-8859-1"?>
<!-- Generator: Adobe Illustrator 21.0.0, SVG Export Plug-In . SVG Version: 6.00 Build 0)  -->
<svg version="1.1" id="Layer_1" xmlns="http://www.w3.org/2000/svg" xmlns:xlink="http://www.w3.org/1999/xlink" x="0px" y="0px"
	 viewBox="0 0 30 30" enable-background="new 0 0 30 30" xml:space="preserve">
<g>
	<path fill="#303C42" d="M9.9522533,30c-2.0244141,0-3.7226563-1.5683594-3.7939453-1.6347656
		C6.0577221,28.2705078,6.0001049,28.1386719,6.0001049,28v-3.5c0-0.1835938,0.1005859-0.3525391,0.2626953-0.4394531
		c0.1621094-0.0859375,0.359375-0.0800781,0.5117188,0.0214844c0.4433594,0.2910156,1.8769531,1.0292969,2.6171875,0.6298828
		C9.8946362,24.4404297,10.0001049,23.6308594,10.0001049,23V9.5c0-0.2763672,0.2236328-0.5,0.5-0.5h4
		c0.2763672,0,0.5,0.2236328,0.5,0.5v7.1083984c3.5068359,0.8261719,6.4472656,0.3261719,8.3027344-1.4189453
		c1.2226563-1.1494141,1.8427734-2.5800781,1.7001953-3.9267578C24.6260815,7.6923828,20.3233471,5,14.9942455,5
		c-5.3945313,0-9.9726563,2.7558594-9.9960938,6.0185547c-0.0146484,1.9589844,0.3769531,3.3925781,1.1972656,4.3818359
		c0.1767578,0.2128906,0.1464844,0.5283203-0.0654297,0.7041016l-3.0791018,2.5527344
		c-0.1015625,0.0849609-0.2353516,0.1201172-0.3662109,0.1132813c-0.1318359-0.0126953-0.2539063-0.0771484-0.3378906-0.1796875
		C0.8975657,16.8417969,0.0001048,15.0449219,0.0001048,11.5c0-6.3408203,6.7265625-11.5,14.9941406-11.5
		c8.1113281,0,14.6962891,4.7285156,14.9921875,10.765625c0.1582031,3.2119141-1.0839844,6.2001953-3.4072266,8.2001953
		C24.236433,20.9785156,21.3497143,21.9990234,18.0001049,22c-0.8144531,0-1.7353516-0.0869141-2.9306641-0.2792969
		c-0.0097656,1.0810547-0.0400391,1.9257813-0.0576172,2.4033203C15.0049877,24.3134766,15.0001049,24.4414063,15.0001049,24.5
		C15.0001049,27.9072266,12.0596752,30,9.9522533,30z M7.0001049,27.7705078C7.423933,28.1152344,8.6378002,29,9.9522533,29
		c1.6503906,0,4.0478516-1.7529297,4.0478516-4.5c0-0.0634766,0.0048828-0.2041016,0.0126953-0.4121094
		c0.0195313-0.5546875,0.0585938-1.6113281,0.0585938-2.9580078c0-0.1474609,0.0654297-0.2880859,0.1787109-0.3828125
		c0.1123047-0.0947266,0.2607422-0.1357422,0.4072266-0.109375C16.087019,20.8876953,17.118269,21,18.0001049,21
		c3.1035156-0.0009766,5.7705078-0.9404297,7.9267578-2.7919922c2.0878906-1.796875,3.203125-4.4921875,3.0615234-7.3935547
		C28.7178783,5.3115234,22.571394,1,14.9942455,1C7.408308,1,1.0001048,5.8085938,1.0001048,11.5
		c0,2.9970703,0.65625,4.5703125,1.8037108,6.0625l2.3212893-1.9238281
		c-0.7724609-1.1425781-1.1416018-2.6630859-1.1269534-4.6279297C4.0254955,7.2109375,9.0606518,4,14.9942455,4
		c5.8427734,0,10.5732422,3.0771484,11.0029297,7.1572266c0.1757813,1.6611328-0.5566406,3.3955078-2.0087891,4.7607422
		c-2.1826172,2.0507813-5.5986328,2.6074219-9.6132813,1.5664063c-0.2207031-0.0576172-0.375-0.2568359-0.375-0.484375v-7h-3v13
		c0,1.3144531-0.3818359,2.1875-1.1347656,2.5927734c-0.9179688,0.4931641-2.0966797,0.1152344-2.8652344-0.2470703V27.7705078z"/>
</g>
<g>
</g>
<g>
</g>
<g>
</g>
<g>
</g>
<g>
</g>
<g>
</g>
<g>
</g>
<g>
</g>
<g>
</g>
<g>
</g>
<g>
</g>
<g>
</g>
<g>
</g>
<g>
</g>
<g>
</g>
</svg>
