<?xml version="1.0" encoding="iso-8859-1"?>
<!-- Generator: Adobe Illustrator 21.0.0, SVG Export Plug-In . SVG Version: 6.00 Build 0)  -->
<svg version="1.1" id="Layer_1" xmlns="http://www.w3.org/2000/svg" xmlns:xlink="http://www.w3.org/1999/xlink" x="0px" y="0px"
	 viewBox="0 0 30 30" enable-background="new 0 0 30 30" xml:space="preserve">
<g id="XMLID_1596_">
	
		<circle id="XMLID_1367_" fill="none" stroke="#303C42" stroke-linecap="round" stroke-linejoin="round" stroke-miterlimit="10" cx="8.5" cy="8.5" r="2"/>
	
		<rect id="XMLID_1373_" x="6.5" y="12.5" fill="none" stroke="#303C42" stroke-linecap="round" stroke-linejoin="round" stroke-miterlimit="10" width="4" height="12"/>
	<path id="XMLID_1376_" fill="none" stroke="#303C42" stroke-linecap="round" stroke-linejoin="round" stroke-miterlimit="10" d="
		M26,2.5H4C3.1715729,2.5,2.5,3.1715729,2.5,4v22c0,0.8284264,0.6715729,1.5,1.5,1.5h22c0.8284264,0,1.5-0.6715736,1.5-1.5V4
		C27.5,3.1715729,26.8284264,2.5,26,2.5z"/>
	<path fill="none" stroke="#303C42" stroke-linecap="round" stroke-linejoin="round" stroke-miterlimit="10" d="M20,12.5
		c-1.4224243,0-2.675354,0.6729736-3.5,1.7034302V12.5h-4v12h3h1v-7c0-1.1046143,0.8954468-2,2-2s2,0.8953857,2,2v7h4V17
		C24.5,14.5147095,22.4852905,12.5,20,12.5z"/>
</g>
<g>
</g>
<g>
</g>
<g>
</g>
<g>
</g>
<g>
</g>
<g>
</g>
<g>
</g>
<g>
</g>
<g>
</g>
<g>
</g>
<g>
</g>
<g>
</g>
<g>
</g>
<g>
</g>
<g>
</g>
</svg>
