<?xml version="1.0" encoding="iso-8859-1"?>
<!-- Generator: Adobe Illustrator 21.0.0, SVG Export Plug-In . SVG Version: 6.00 Build 0)  -->
<svg version="1.1" id="Layer_1" xmlns="http://www.w3.org/2000/svg" xmlns:xlink="http://www.w3.org/1999/xlink" x="0px" y="0px"
	 viewBox="0 0 30 30" enable-background="new 0 0 30 30" xml:space="preserve">
<path fill="#303C42" d="M15,0C6.7290039,0,0,6.7290039,0,15s6.7290039,15,15,15s15-6.7290039,15-15S23.2709961,0,15,0z
	 M28.947937,16.027771c-3.7935791-1.0101929-7.2657471-1.2653809-10.4258423-0.7296143
	c-0.4974976-1.2099609-1.0505371-2.4031982-1.6564331-3.5846558c3.4303589-1.3485718,6.1308594-3.3323975,8.4977417-6.0930786
	C27.6149902,8.1057739,29,11.3901367,29,15C29,15.3469238,28.9728394,15.6870728,28.947937,16.027771z M24.6668701,4.8978271
	c-2.286377,2.6853027-4.9104004,4.6096802-8.2666016,5.9144287c-1.6376953-3.0363159-3.6566772-6.0039673-6.0800171-8.9906616
	C11.7861938,1.2993164,13.3569946,1,15,1C18.7492676,1,22.1512451,2.489624,24.6668701,4.8978271z M9.3445435,2.2037964
	c2.4666138,3.0105591,4.4940796,5.9543457,6.1300659,8.9534912c-3.7258911,1.2730713-8.3424072,1.8557129-14.3272705,1.9234619
	C1.8198853,8.2089844,4.9978027,4.1327515,9.3445435,2.2037964z M1,15c0-0.3096924,0.0265503-0.6127319,0.0464478-0.9174805
	c6.2288818-0.0635376,11.0258179-0.6741943,14.9017334-2.020813c0.5879517,1.1359863,1.1231079,2.2825317,1.6054077,3.4448242
	c-4.9273071,1.109436-9.0864258,4.1864624-12.5596313,9.2661133C2.5272217,22.2474976,1,18.8005371,1,15z M5.7304077,25.4633179
	c3.3634644-4.9677734,7.40625-7.9528809,12.2098389-8.9954224c1.3693237,3.5319214,2.2817383,7.2319336,2.8148804,11.2802124
	C18.9971313,28.5450439,17.0524902,29,15,29C11.4434204,29,8.2025146,27.6559448,5.7304077,25.4633179z M21.6994629,27.2885742
	c-0.5378418-3.899231-1.4508667-7.5322266-2.7909546-11.0146484c3.0116577-0.4804688,6.3158569-0.2218018,9.927063,0.7567749
	C28.1879883,21.4564819,25.4778442,25.2203979,21.6994629,27.2885742z"/>
<g>
</g>
<g>
</g>
<g>
</g>
<g>
</g>
<g>
</g>
<g>
</g>
<g>
</g>
<g>
</g>
<g>
</g>
<g>
</g>
<g>
</g>
<g>
</g>
<g>
</g>
<g>
</g>
<g>
</g>
</svg>
