<?xml version="1.0" encoding="iso-8859-1"?>
<!-- Generator: Adobe Illustrator 21.0.0, SVG Export Plug-In . SVG Version: 6.00 Build 0)  -->
<svg version="1.1" id="Layer_1" xmlns="http://www.w3.org/2000/svg" xmlns:xlink="http://www.w3.org/1999/xlink" x="0px" y="0px"
	 viewBox="0 0 30 30" enable-background="new 0 0 30 30" xml:space="preserve">
<g id="XMLID_1363_">
	<path id="XMLID_1365_" fill="none" stroke="#303C42" stroke-linecap="round" stroke-linejoin="round" stroke-miterlimit="10" d="
		M15,0.5C6.9918928,0.5,0.5,6.991816,0.5,15c0,2.9956417,0.9092513,5.7785759,2.4656372,8.0893745L0.5,29.5l6.593246-2.3547421
		C9.3684902,28.6295357,12.0808535,29.5,15,29.5c8.0081062,0,14.5-6.4918938,14.5-14.5C29.5,6.991816,23.0081062,0.5,15,0.5z"/>
	<path id="XMLID_1364_" fill="none" stroke="#303C42" stroke-linecap="round" stroke-linejoin="round" stroke-miterlimit="10" d="
		M12.045455,17.954546C13.58428,19.493372,16.969696,21.5,18.545454,21.5S21.5,20.145834,21.5,19.136364v-1.181818
		c0,0-1.452652-0.714016-2.363636-1.181818c-0.9109859-0.467804-2.363636,1.181818-2.363636,1.181818
		s-1.6619329-0.480114-2.954546-1.772728s-1.772727-2.954545-1.772727-2.954545s1.649621-1.452652,1.181818-2.363637
		C12.75947,9.952652,12.045455,8.5,12.045455,8.5h-1.181819C9.854167,8.5,8.5,9.878788,8.5,11.454545
		S10.506629,16.41572,12.045455,17.954546z"/>
</g>
<g>
</g>
<g>
</g>
<g>
</g>
<g>
</g>
<g>
</g>
<g>
</g>
<g>
</g>
<g>
</g>
<g>
</g>
<g>
</g>
<g>
</g>
<g>
</g>
<g>
</g>
<g>
</g>
<g>
</g>
</svg>
