<?xml version="1.0" encoding="iso-8859-1"?>
<!-- Generator: Adobe Illustrator 21.0.0, SVG Export Plug-In . SVG Version: 6.00 Build 0)  -->
<svg version="1.1" id="Layer_1" xmlns="http://www.w3.org/2000/svg" xmlns:xlink="http://www.w3.org/1999/xlink" x="0px" y="0px"
	 viewBox="0 0 24 24" enable-background="new 0 0 24 24" xml:space="preserve">
<path fill="#303C42" d="M18.3681641,8.6396484l-7.6738281-7.8339844C10.1748047,0.2861328,9.484375,0,8.75,0
	C7.2333984,0,6,1.2333984,6,2.75c0,0.734375,0.2861328,1.4248047,0.8095703,1.9482422l1.9550781,1.9101563
	C5.3320313,7.9326172,3,11.2705078,3,15c0,4.9628906,4.0371094,9,9,9s9-4.0371094,9-9
	C21,12.5957031,20.0634766,10.3349609,18.3681641,8.6396484z M17.5068359,16.2001953l-4.6533203,4.6533203
	C12.4921875,21.2148438,12.0107422,21.4140625,11.5,21.4140625s-0.9921875-0.1992188-1.3535156-0.5605469
	c-0.7460938-0.7460938-0.7460938-1.9609375,0-2.7070313L11.2929688,17H8c-1.1025391,0-2-0.8974609-2-2s0.8974609-2,2-2h3.2929688
	l-1.1464844-1.1464844c-0.7460938-0.7460938-0.7460938-1.9609375,0-2.7070313c0.7226563-0.7226563,1.984375-0.7226563,2.7070313,0
	l4.6533203,4.6533203C17.8271484,14.1201172,18.0039063,14.546875,18.0039063,15S17.8271484,15.8798828,17.5068359,16.2001953z"/>
<g>
</g>
<g>
</g>
<g>
</g>
<g>
</g>
<g>
</g>
<g>
</g>
<g>
</g>
<g>
</g>
<g>
</g>
<g>
</g>
<g>
</g>
<g>
</g>
<g>
</g>
<g>
</g>
<g>
</g>
</svg>
