<?xml version="1.0" encoding="iso-8859-1"?>
<!-- Generator: Adobe Illustrator 21.0.0, SVG Export Plug-In . SVG Version: 6.00 Build 0)  -->
<svg version="1.1" id="Layer_1" xmlns="http://www.w3.org/2000/svg" xmlns:xlink="http://www.w3.org/1999/xlink" x="0px" y="0px"
	 viewBox="0 0 30 30" enable-background="new 0 0 30 30" xml:space="preserve">
<g id="XMLID_2718_">
	<path fill="#303C42" d="M15.0004883,27.9997215l-2.7324219-0.0029297C4.3569336,27.9967918,0,23.663784,0,15.7965965
		c0-2.4619141,0.7553711-4.5390625,2.3085938-6.3398438C2.1137695,8.3229637,2.2294922,5.2829247,3.3886719,2.3180807
		C3.4711914,2.1071432,3.6870117,1.9811666,3.909668,2.002651c0.1201172,0.0136719,2.9482422,0.3574219,7.2172852,3.2890627
		C11.9716797,5.0973778,13.2724609,4.9997215,15,4.9997215c1.7290039,0,3.0297852,0.0976563,3.8730469,0.2919922
		c4.2685547-2.9316409,7.0957031-3.2753909,7.215332-3.2890627c0.2246094-0.0214844,0.4389648,0.1044922,0.5214844,0.3154297
		c1.1591797,2.964844,1.2753906,6.0048828,1.0805664,7.1386719C29.2441406,11.257534,30,13.3337059,30,15.7965965
		c0,7.8671875-4.3569336,12.2001953-12.2685547,12.2001953L15.0004883,27.9997215z M4.1757813,3.0671041
		C3.0922852,6.0905418,3.1640625,9.01437,3.3193359,9.4079247c0.0698242,0.1767578,0.0336914,0.3798828-0.09375,0.5214844
		C1.7070313,11.6061668,1,13.4704247,1,15.7965965c0,9.2568359,6.1274414,11.2001953,11.2680664,11.2001953l2.7324219,0.0029297
		l2.730957-0.0029297C22.8720703,26.9967918,29,25.0534325,29,15.7965965c0-2.3261719-0.7075195-4.1904297-2.2265625-5.8671875
		c-0.1279297-0.1416016-0.1645508-0.34375-0.09375-0.5214844C26.8349609,9.01437,26.90625,6.0905418,25.8227539,3.0671041
		c-0.8935547,0.1982422-3.3071289,0.9013672-6.565918,3.1748049c-0.1235352,0.0849609-0.277832,0.1113281-0.4213867,0.0712891
		C18.1064453,6.10812,16.7802734,5.9997215,15,5.9997215c-1.7788086,0-3.1049805,0.1083984-3.8354492,0.3134766
		C11.0214844,6.3532372,10.8666992,6.32687,10.7431641,6.241909C7.4838867,3.9684713,5.0693359,3.2653463,4.1757813,3.0671041z
		 M15.0874023,24.9997215c-4.9882813,0-11.0874023,0-11.0874023-6.5c0-1.5800781,0.6040039-2.9267578,1.7944336-4.0039063
		c1.5541992-1.4033203,3.7661133-1.2519531,6.3295898-1.0712891c0.9125977,0.0634766,1.8569336,0.1289063,2.8330078,0.1289063
		h0.0869141c0.9760742,0,1.9199219-0.0654297,2.8325195-0.1289063c2.5620117-0.1816406,4.7749023-0.3330078,6.3286133,1.0712891
		C25.3959961,15.5729637,26,16.9196434,26,18.4997215C26,24.9997215,19.9492188,24.9997215,15.0874023,24.9997215z
		 M9.7714844,14.3122215c-1.3500977,0-2.4951172,0.1923828-3.3066406,0.9257813C5.4931641,16.116909,5,17.2145653,5,18.4997215
		c0,5.1054688,4.1445313,5.5,10,5.5c6.0751953,0,10-0.3828125,10-5.5c0-1.2851563-0.4931641-2.3828125-1.465332-3.2617188
		c-1.2373047-1.1191406-3.2543945-0.9775391-5.5888672-0.8164063c-0.9296875,0.0654297-1.8911133,0.1318359-2.9018555,0.1318359
		c-0.0107422,0-0.0439453-0.0009766-0.0556641-0.0009766c-1.0532227,0-2.0087891-0.0664063-2.9335938-0.1308594
		C11.2495117,14.3659325,10.4819336,14.3122215,9.7714844,14.3122215z M20,22.9997215c-1.3129883,0-2-2.0126953-2-4s0.6870117-4,2-4
		s2,2.0126953,2,4S21.3129883,22.9997215,20,22.9997215z M20,15.9997215c-0.3525391,0-1,1.1386719-1,3s0.6474609,3,1,3
		s1-1.1386719,1-3S20.3525391,15.9997215,20,15.9997215z M10,22.9997215c-1.3129883,0-2-2.0126953-2-4s0.6870117-4,2-4
		s2,2.0126953,2,4S11.3129883,22.9997215,10,22.9997215z M10,15.9997215c-0.3525391,0-1,1.1386719-1,3s0.6474609,3,1,3
		s1-1.1386719,1-3S10.3525391,15.9997215,10,15.9997215z"/>
</g>
<g>
</g>
<g>
</g>
<g>
</g>
<g>
</g>
<g>
</g>
<g>
</g>
<g>
</g>
<g>
</g>
<g>
</g>
<g>
</g>
<g>
</g>
<g>
</g>
<g>
</g>
<g>
</g>
<g>
</g>
</svg>
