<?xml version="1.0" encoding="iso-8859-1"?>
<!-- Generator: Adobe Illustrator 21.0.0, SVG Export Plug-In . SVG Version: 6.00 Build 0)  -->
<svg version="1.1" id="Layer_1" xmlns="http://www.w3.org/2000/svg" xmlns:xlink="http://www.w3.org/1999/xlink" x="0px" y="0px"
	 viewBox="0 0 24 24" enable-background="new 0 0 24 24" xml:space="preserve">
<path fill="#303C42" d="M23.5,2.9999208h-4.0009766c-0.2763672,0-0.5,0.2236328-0.5,0.5v1c0,0.2763672,0.2236328,0.5,0.5,0.5
	h0.9663086l-4.9238281,10.2578125l-1.7827148-4.4570313l2.8125-5.8007813H17.5c0.2763672,0,0.5-0.2236328,0.5-0.5v-1
	c0-0.2763672-0.2236328-0.5-0.5-0.5h-4c-0.2763672,0-0.5,0.2236328-0.5,0.5v1c0,0.2763672,0.2236328,0.5,0.5,0.5h0.465332
	l-1.378418,2.8710938l-1.1484375-2.8710938H12c0.2763672,0,0.5-0.2236328,0.5-0.5v-1c0-0.2763672-0.2236328-0.5-0.5-0.5H7
	c-0.2763672,0-0.5,0.2236328-0.5,0.5v1c0,0.2763672,0.2236328,0.5,0.5,0.5h1.3564453l2.5283203,6.4179688l-1.8432617,3.8398438
	L4.9384766,4.9999208H5.5c0.2763672,0,0.5-0.2236328,0.5-0.5v-1c0-0.2763672-0.2236328-0.5-0.5-0.5h-5
	c-0.2763672,0-0.5,0.2236328-0.5,0.5v1c0,0.2763672,0.2236328,0.5,0.5,0.5h1.3564453L8.034668,20.6835155
	c0.0727539,0.1845703,0.2480469,0.3085938,0.4462891,0.3164063c0.2016602,0.0048828,0.3823242-0.1035156,0.46875-0.2822266
	l3.0888672-6.3701181l2.4960938,6.3359385c0.0727539,0.1845703,0.2480469,0.3085938,0.4462891,0.3164063
	c0.0063477,0,0.0126953,0,0.019043,0c0.190918,0,0.3662109-0.109375,0.449707-0.2822266l7.621582-15.7177744H23.5
	c0.2763672,0,0.5-0.2236328,0.5-0.5v-1C24,3.2235537,23.7763672,2.9999208,23.5,2.9999208z"/>
<g>
</g>
<g>
</g>
<g>
</g>
<g>
</g>
<g>
</g>
<g>
</g>
<g>
</g>
<g>
</g>
<g>
</g>
<g>
</g>
<g>
</g>
<g>
</g>
<g>
</g>
<g>
</g>
<g>
</g>
</svg>
