<?xml version="1.0" encoding="iso-8859-1"?>
<!-- Generator: Adobe Illustrator 21.0.0, SVG Export Plug-In . SVG Version: 6.00 Build 0)  -->
<svg version="1.1" id="Layer_1" xmlns="http://www.w3.org/2000/svg" xmlns:xlink="http://www.w3.org/1999/xlink" x="0px" y="0px"
	 viewBox="0 0 30 30" enable-background="new 0 0 30 30" xml:space="preserve">
<path fill="#303C42" d="M29.8720798,5.9140625c-0.1499023-0.1679688-0.3964844-0.2133789-0.5966797-0.112793
	c-0.2353516,0.1181641-0.7553711,0.2851563-1.3242188,0.4301758c0.5766602-0.6630859,1.0585938-1.465332,1.2509766-2.1738281
	c0.0551758-0.2021484-0.0219727-0.4169922-0.1923828-0.5380859c-0.1713867-0.1220703-0.3994141-0.1235352-0.5717773-0.0058594
	c-0.3847656,0.2626953-2.1943359,1.03125-3.3154297,1.2539063C23.7290134,3.546875,22.3476658,3,20.6743259,3
	c-1.2392578,0-2.3901367,0.3408203-3.730957,1.1049805c-2.3901367,1.3623047-2.7519531,4.3588867-2.5458984,6.1162109
	C7.789072,9.6704102,4.0864353,5.987793,2.7778418,4.3925781c-0.1030273-0.125-0.2607422-0.1953125-0.421875-0.1811523
	C2.1943457,4.2226563,2.0478613,4.3115234,1.963877,4.4501953c-0.8720703,1.434082-1.1123047,3.0429688-0.6948242,4.6518555
	c0.2617188,1.0087891,0.7524414,1.8974609,1.3037109,2.5913086c-0.4003906-0.2094727-0.7944336-0.4755859-1.1313477-0.7436523
	c-0.1499023-0.1196289-0.355957-0.1411133-0.5283204-0.0585938c-0.1728516,0.0834961-0.2827148,0.2583008-0.2827148,0.4501953
	c0,2.9101563,1.9614258,4.8955078,3.6528318,5.8764648c-0.3735349-0.0649414-0.7607419-0.1694336-1.1181638-0.2758789
	c-0.1884766-0.0561523-0.3925781,0.003418-0.5209961,0.1518555c-0.1289063,0.1484375-0.1582031,0.3588867-0.0756836,0.5375977
	c1.0356445,2.2338867,3.1293943,3.878418,5.4467773,4.3730469c-2.0019531,1.25-4.8417969,1.8740234-7.4594727,1.5771484
	c-0.2333984-0.0239258-0.4599609,0.1186523-0.5322266,0.3461914s0.0268555,0.4746094,0.2363281,0.5893555
	C3.3071387,26.1879883,6.4716892,27,9.9350681,27c0.0068359,0,0.0146484,0,0.0219727,0
	c4.878418-0.0043945,9.4179688-2.0898438,12.7817383-5.871582c3.050293-3.4287109,4.6386719-7.7744141,4.2871094-11.6870117
	c0.8242188-0.5825195,2.1079102-1.7089844,2.8935547-2.9213867C30.04249,6.3305664,30.0229588,6.0825195,29.8720798,5.9140625z"/>
<g>
</g>
<g>
</g>
<g>
</g>
<g>
</g>
<g>
</g>
<g>
</g>
<g>
</g>
<g>
</g>
<g>
</g>
<g>
</g>
<g>
</g>
<g>
</g>
<g>
</g>
<g>
</g>
<g>
</g>
</svg>
