<?xml version="1.0" encoding="iso-8859-1"?>
<!-- Generator: Adobe Illustrator 21.0.0, SVG Export Plug-In . SVG Version: 6.00 Build 0)  -->
<svg version="1.1" id="Layer_1" xmlns="http://www.w3.org/2000/svg" xmlns:xlink="http://www.w3.org/1999/xlink" x="0px" y="0px"
	 viewBox="0 0 24 24" enable-background="new 0 0 24 24" xml:space="preserve">
<g>
	<path fill="#303C42" d="M21,1H3C1.8969727,1,1,1.8974609,1,3v18c0,1.1025391,0.8969727,2,2,2h18c1.1030273,0,2-0.8974609,2-2V3
		C23,1.8974609,22.1030273,1,21,1z M22,21c0,0.5517578-0.4487305,1-1,1H3c-0.5512695,0-1-0.4482422-1-1V3
		c0-0.5517578,0.4487305-1,1-1h18c0.5512695,0,1,0.4482422,1,1V21z"/>
	<path fill="#303C42" d="M15.5698242,11.3212891C16.4365234,10.6835938,17,9.65625,17,8.5C17,6.5703125,15.4296875,5,13.5,5h-6
		C7.2236328,5,7,5.2236328,7,5.5v13C7,18.7763672,7.2236328,19,7.5,19H14c2.2055664,0,4-1.7939453,4-4
		C18,13.3515625,16.9970703,11.9326172,15.5698242,11.3212891z M8,6h5.5C14.878418,6,16,7.1210938,16,8.5S14.878418,11,13.5,11H8V6z
		 M14,18H8v-6h6c1.6542969,0,3,1.3457031,3,3S15.6542969,18,14,18z"/>
</g>
<g>
</g>
<g>
</g>
<g>
</g>
<g>
</g>
<g>
</g>
<g>
</g>
<g>
</g>
<g>
</g>
<g>
</g>
<g>
</g>
<g>
</g>
<g>
</g>
<g>
</g>
<g>
</g>
<g>
</g>
</svg>
