<?xml version="1.0" encoding="iso-8859-1"?>
<!-- Generator: Adobe Illustrator 21.0.0, SVG Export Plug-In . SVG Version: 6.00 Build 0)  -->
<svg version="1.1" id="Layer_1" xmlns="http://www.w3.org/2000/svg" xmlns:xlink="http://www.w3.org/1999/xlink" x="0px" y="0px"
	 viewBox="0 0 30 30" enable-background="new 0 0 30 30" xml:space="preserve">
<g id="XMLID_1601_">
	<path id="XMLID_1461_" fill="none" stroke="#303C42" stroke-linecap="round" stroke-linejoin="round" stroke-miterlimit="10" d="
		M24.8718052,21.2342148C25.5826607,20.0409775,26,18.6396618,26,17.1339493C26,15.6141872,25.5752716,14.2004204,24.8521042,13"/>
	<path id="XMLID_1459_" fill="none" stroke="#303C42" stroke-linecap="round" stroke-linejoin="round" stroke-miterlimit="10" d="
		M27.608696,23.5C28.8096924,21.6328831,29.5,19.3743515,29.5,16.9615383c0-2.4128933-0.6902313-4.6713448-1.891304-6.5384617"/>
	<path fill="none" stroke="#303C42" stroke-linecap="round" stroke-linejoin="round" stroke-miterlimit="10" d="M18.5,13.5
		c-0.008606,0-0.0164795,0.0024414-0.0250244,0.0025024C18.4877319,13.3361206,18.5,13.1696167,18.5,13
		c0-3.5898438-2.9101563-6.5-6.5-6.5c-3.0779419,0-5.6500854,2.1417236-6.3228149,5.0145874
		C5.6173706,11.5124512,5.5603638,11.5,5.5,11.5c-2.7614136,0-5,2.2385864-5,5s2.2385864,5,5,5c1.8078613,0,11.2784424,0,13,0
		c2.2091675,0,4-1.7908936,4-4C22.5,15.2908325,20.7091675,13.5,18.5,13.5z"/>
	<path fill="none" stroke="#303C42" stroke-linecap="round" stroke-linejoin="round" stroke-miterlimit="10" d="M5.5,11.5
		c1.1245251,0,2.1623445,0.3712311,2.997592,0.9978266"/>
	<path fill="none" stroke="#303C42" stroke-linecap="round" stroke-linejoin="round" stroke-miterlimit="10" d="M18.5,13
		c0,0.8860693-0.1772957,1.7307291-0.4983463,2.5004387"/>
</g>
<g>
</g>
<g>
</g>
<g>
</g>
<g>
</g>
<g>
</g>
<g>
</g>
<g>
</g>
<g>
</g>
<g>
</g>
<g>
</g>
<g>
</g>
<g>
</g>
<g>
</g>
<g>
</g>
<g>
</g>
</svg>
