<?xml version="1.0" encoding="iso-8859-1"?>
<!-- Generator: Adobe Illustrator 21.0.0, SVG Export Plug-In . SVG Version: 6.00 Build 0)  -->
<svg version="1.1" id="Layer_1" xmlns="http://www.w3.org/2000/svg" xmlns:xlink="http://www.w3.org/1999/xlink" x="0px" y="0px"
	 viewBox="0 0 30 30" enable-background="new 0 0 30 30" xml:space="preserve">
<g>
	<path fill="#303C42" d="M26.0051098,8.0620117C23.4435863,5.4423828,20.0153637,4,16.3522778,4
		c-1.6015615,0-3.1694326,0.277832-4.6591787,0.8256836c-0.2592773,0.0952148-0.3920898,0.3828125-0.296875,0.6416016
		c0.0952148,0.2597656,0.3837891,0.3925781,0.6416016,0.296875C13.4172201,5.2573242,14.8688803,5,16.3522778,5
		c3.3916016,0,6.565918,1.3359375,8.9379883,3.7612305c0.0976563,0.1000977,0.2275391,0.1503906,0.3574219,0.1503906
		c0.1259766,0,0.2524414-0.0473633,0.3496094-0.1425781C26.1945629,8.5761719,26.1984692,8.2592773,26.0051098,8.0620117z"/>
	<path fill="#303C42" d="M12.9987631,19.8535156C13.0964193,19.9511719,13.224349,20,13.3522787,20
		s0.2558594-0.0488281,0.3535156-0.1464844l2.1464844-2.1464844l2.1464834,2.1464844
		C18.0964184,19.9511719,18.2243481,20,18.3522778,20s0.2558594-0.0488281,0.3535156-0.1464844
		c0.1953125-0.1953125,0.1953125-0.5117188,0-0.7070313L16.559309,17l2.1464844-2.1464844
		c0.1953125-0.1953125,0.1953125-0.5117188,0-0.7070313s-0.5117188-0.1953125-0.7070313,0l-2.1464834,2.1464844
		l-2.1464844-2.1464844c-0.1953125-0.1953125-0.5117188-0.1953125-0.7070313,0s-0.1953125,0.5117188,0,0.7070313L15.1452475,17
		l-2.1464844,2.1464844C12.8034506,19.3417969,12.8034506,19.6582031,12.9987631,19.8535156z"/>
	<path fill="#303C42" d="M9.991744,23.8433838c0.0134277,0.0140991,0.0300293,0.0234985,0.0450439,0.0359497
		C11.6191854,25.2177124,13.6564779,26,15.8522787,26c4.9624014,0,8.999999-4.0375977,8.999999-9s-4.0375977-9-8.999999-9
		c-2.7595825,0-5.3094482,1.2680054-7,3.3708496V1h13.499999c0.2763672,0,0.5-0.2236328,0.5-0.5s-0.2236328-0.5-0.5-0.5H8.3522787
		C8.0759115,0,7.8522782,0.2236328,7.8522782,0.5v12.5019531c0,0.0175171,0.0081787,0.0323486,0.0099487,0.0493774
		c0.0044556,0.0420532,0.0098267,0.0826416,0.0246582,0.1221924c0.0100708,0.0274048,0.0253906,0.0505371,0.039917,0.0754395
		c0.0171509,0.0292969,0.03302,0.0578003,0.0561523,0.083374c0.0244756,0.0273438,0.0537724,0.0476685,0.0837407,0.0690918
		c0.0171509,0.012146,0.0288086,0.0293579,0.0477905,0.0394897c0.0061646,0.0032959,0.0130615,0.0028076,0.0193481,0.0057983
		c0.0360107,0.0177612,0.0752563,0.0258179,0.1154785,0.0344849c0.0245972,0.0050659,0.0480957,0.0133057,0.0728149,0.0146484
		c0.0105591,0.0006714,0.0194702,0.0061035,0.0301514,0.0061035c0.032959,0,0.0617676-0.0126343,0.0929565-0.0187378
		c0.0220947-0.0043335,0.0437622-0.0058594,0.0650635-0.0131226c0.043457-0.0146484,0.0809937-0.0369263,0.1181641-0.0623169
		c0.015625-0.0105591,0.0317383-0.0187378,0.0462036-0.0311279c0.0369263-0.0317383,0.0653687-0.0695801,0.0917358-0.1107788
		c0.0072021-0.0111694,0.0184326-0.0180664,0.0248413-0.0300293C10.1872396,10.6230469,12.8928061,9,15.8522787,9
		c4.4111319,0,7.999999,3.5888672,7.999999,8s-3.5888672,8-7.999999,8c-1.8791504,0-3.6171265-0.6569824-5-1.7660522V17
		c0-2.7568359,2.2431641-5,5-5s4.999999,2.2431641,4.999999,5s-2.2431641,5-4.999999,5
		c-0.800293,0-1.5649414-0.1831055-2.2724609-0.5449219c-0.2441406-0.1240234-0.546875-0.0273438-0.6728516,0.2177734
		c-0.1254883,0.2460938-0.0283203,0.546875,0.2177734,0.6728516C13.974349,22.7797852,14.8918295,23,15.8522787,23
		c3.3085928,0,5.999999-2.6914063,5.999999-6s-2.6914063-6-5.999999-6s-6,2.6914063-6,6v5.2703857
		c-0.7214355-0.8237305-1.2977905-1.7901001-1.6401367-2.8909912c-0.081543-0.2631836-0.360352-0.409668-0.625977-0.3291016
		c-0.2636719,0.0820313-0.4111328,0.3623047-0.3291016,0.6259766C7.7759843,21.3441162,8.7386923,22.7695923,9.991744,23.8433838z"
		/>
	<path fill="#303C42" d="M24.9396801,24.2001953C22.8849926,27.2055664,19.4880199,29,15.8522787,29
		c-6.0654297,0-11-4.9345703-11-11c0-0.2763672-0.2236328-0.5-0.5-0.5S3.8522785,17.7236328,3.8522785,18
		c0,6.6166992,5.3833008,12,12,12c3.9663076,0,7.671874-1.9570313,9.9125967-5.2353516
		c0.15625-0.2280273,0.0976563-0.5390625-0.1303711-0.6948242C25.406477,23.9130859,25.0954418,23.9716797,24.9396801,24.2001953z"
		/>
</g>
<g>
</g>
<g>
</g>
<g>
</g>
<g>
</g>
<g>
</g>
<g>
</g>
<g>
</g>
<g>
</g>
<g>
</g>
<g>
</g>
<g>
</g>
<g>
</g>
<g>
</g>
<g>
</g>
<g>
</g>
</svg>
