<?xml version="1.0" encoding="iso-8859-1"?>
<!-- Generator: Adobe Illustrator 21.0.0, SVG Export Plug-In . SVG Version: 6.00 Build 0)  -->
<svg version="1.1" id="Layer_1" xmlns="http://www.w3.org/2000/svg" xmlns:xlink="http://www.w3.org/1999/xlink" x="0px" y="0px"
	 viewBox="0 0 24 24" enable-background="new 0 0 24 24" xml:space="preserve">
<g>
	<path fill="#303C42" d="M7.5,9h5C13.3271484,9,14,8.3271484,14,7.5S13.3271484,6,12.5,6h-5C6.6728516,6,6,6.6728516,6,7.5
		S6.6728516,9,7.5,9z M7.5,7h5C12.7753906,7,13,7.2241211,13,7.5S12.7753906,8,12.5,8h-5C7.2246094,8,7,7.7758789,7,7.5
		S7.2246094,7,7.5,7z"/>
	<path fill="#303C42" d="M16.5,15h-9C6.6728516,15,6,15.6728516,6,16.5S6.6728516,18,7.5,18h9c0.8271484,0,1.5-0.6728516,1.5-1.5
		S17.3271484,15,16.5,15z M16.5,17h-9C7.2246094,17,7,16.7758789,7,16.5S7.2246094,16,7.5,16h9c0.2753906,0,0.5,0.2241211,0.5,0.5
		S16.7753906,17,16.5,17z"/>
	<path fill="#303C42" d="M20.5,10h-1C19.2246094,10,19,9.7758789,19,9.5v-3C19,3.4672852,16.5322266,1,13.5,1h-7
		C3.4677734,1,1,3.4672852,1,6.5v10C1,20.0839844,3.9160156,23,7.5,23h9c3.5839844,0,6.5-2.9160156,6.5-6.5v-4
		C23,11.121582,21.8789063,10,20.5,10z M22,16.5c0,3.0327148-2.4677734,5.5-5.5,5.5h-9C4.4677734,22,2,19.5327148,2,16.5v-10
		C2,4.0185547,4.0185547,2,6.5,2h7C15.9814453,2,18,4.0185547,18,6.5v3c0,0.8271484,0.6728516,1.5,1.5,1.5h1
		c0.8271484,0,1.5,0.6728516,1.5,1.5V16.5z"/>
</g>
<g>
</g>
<g>
</g>
<g>
</g>
<g>
</g>
<g>
</g>
<g>
</g>
<g>
</g>
<g>
</g>
<g>
</g>
<g>
</g>
<g>
</g>
<g>
</g>
<g>
</g>
<g>
</g>
<g>
</g>
</svg>
