<?xml version="1.0" encoding="iso-8859-1"?>
<!-- Generator: Adobe Illustrator 21.0.0, SVG Export Plug-In . SVG Version: 6.00 Build 0)  -->
<svg version="1.1" id="Layer_1" xmlns="http://www.w3.org/2000/svg" xmlns:xlink="http://www.w3.org/1999/xlink" x="0px" y="0px"
	 viewBox="0 0 30 30" enable-background="new 0 0 30 30" xml:space="preserve">
<g>
	<g id="XMLID_1535_">
		<path fill="#303C42" d="M15,24c-1.5810547,0-6-6.765625-6-9.875C9,10.7480469,11.6914063,8,15,8s6,2.7480469,6,6.125
			C21,17.234375,16.5810547,24,15,24z M15.0292969,23.0029297h0.0097656H15.0292969z M15,9c-2.7568359,0-5,2.2988281-5,5.125
			c0,2.9003906,4.046875,8.5390625,5,8.8691406c0.953125-0.3300781,5-5.96875,5-8.8691406C20,11.2988281,17.7568359,9,15,9z"/>
	</g>
	<g id="XMLID_1534_">
		<path fill="#303C42" d="M15,30C6.7285156,30,0,23.2714844,0,15S6.7285156,0,15,0s15,6.7285156,15,15S23.2714844,30,15,30z M15,1
			C7.2802734,1,1,7.2802734,1,15s6.2802734,14,14,14s14-6.2802734,14-14S22.7197266,1,15,1z"/>
	</g>
	<g>
		<path fill="#303C42" d="M15,18c-2.2060547,0-4-1.7939453-4-4c0-0.8046875,0.2382813-1.5810547,0.6904297-2.2441406
			c0.1044922-0.1542969,0.2871094-0.2353516,0.4707031-0.2158203c0.1845703,0.0214844,0.3427734,0.1445313,0.4091797,0.3183594
			C12.7197266,12.2480469,13.0849609,12.5,13.5,12.5c0.5517578,0,1-0.4482422,1-1
			c0-0.2929688-0.1318359-0.5107422-0.2412109-0.6416016c-0.1201172-0.1416016-0.1513672-0.3369141-0.0820313-0.5087891
			s0.2275391-0.2910156,0.4111328-0.3105469C14.7900391,10.0126953,14.8925781,10,15,10c2.2060547,0,4,1.7939453,4,4
			S17.2060547,18,15,18z M12.171875,12.9960938C12.0585938,13.3164063,12,13.6542969,12,14c0,1.6542969,1.3457031,3,3,3
			s3-1.3457031,3-3c0-1.5029297-1.1113281-2.7519531-2.5556641-2.9667969C15.4814453,11.1845703,15.5,11.3408203,15.5,11.5
			c0,1.1025391-0.8974609,2-2,2C12.9960938,13.5,12.5292969,13.3154297,12.171875,12.9960938z"/>
	</g>
</g>
<g>
</g>
<g>
</g>
<g>
</g>
<g>
</g>
<g>
</g>
<g>
</g>
<g>
</g>
<g>
</g>
<g>
</g>
<g>
</g>
<g>
</g>
<g>
</g>
<g>
</g>
<g>
</g>
<g>
</g>
</svg>
