<?xml version="1.0" encoding="iso-8859-1"?>
<!-- Generator: Adobe Illustrator 21.0.0, SVG Export Plug-In . SVG Version: 6.00 Build 0)  -->
<svg version="1.1" id="Layer_1" xmlns="http://www.w3.org/2000/svg" xmlns:xlink="http://www.w3.org/1999/xlink" x="0px" y="0px"
	 viewBox="0 0 30 30" enable-background="new 0 0 30 30" xml:space="preserve">
<g>
	<path fill="#303C42" d="M26,2H4C2.8969727,2,2,2.8974609,2,4v22c0,1.1025391,0.8969727,2,2,2h22c1.1030273,0,2-0.8974609,2-2V4
		C28,2.8974609,27.1030273,2,26,2z M27,26c0,0.5517578-0.4487305,1-1,1H4c-0.5512695,0-1-0.4482422-1-1V4
		c0-0.5517578,0.4487305-1,1-1h22c0.5512695,0,1,0.4482422,1,1V26z"/>
	<path fill="#303C42" d="M18.2055664,14.3359375C19.2861328,13.6191406,20,12.3916016,20,11c0-2.2060547-1.7944336-4-4-4H9.5
		C9.2236328,7,9,7.2236328,9,7.5v15C9,22.7763672,9.2236328,23,9.5,23h7c2.4814453,0,4.5-2.0185547,4.5-4.5
		C21,16.6220703,19.8432617,15.0087891,18.2055664,14.3359375z M10,8h6c1.6542969,0,3,1.3457031,3,3s-1.3457031,3-3,3h-6V8z
		 M16.5,22H10v-7h6.5c1.9296875,0,3.5,1.5703125,3.5,3.5S18.4296875,22,16.5,22z"/>
</g>
<g>
</g>
<g>
</g>
<g>
</g>
<g>
</g>
<g>
</g>
<g>
</g>
<g>
</g>
<g>
</g>
<g>
</g>
<g>
</g>
<g>
</g>
<g>
</g>
<g>
</g>
<g>
</g>
<g>
</g>
</svg>
