<?xml version="1.0" encoding="iso-8859-1"?>
<!-- Generator: Adobe Illustrator 21.0.0, SVG Export Plug-In . SVG Version: 6.00 Build 0)  -->
<svg version="1.1" id="Layer_1" xmlns="http://www.w3.org/2000/svg" xmlns:xlink="http://www.w3.org/1999/xlink" x="0px" y="0px"
	 viewBox="0 0 30 30" enable-background="new 0 0 30 30" xml:space="preserve">
<path fill="#303C42" d="M29.7626953,11.074214c-0.1469727-0.0908203-0.331543-0.0996094-0.4863281-0.0214844l-3.2919922,1.6455078
	C24.2056274,11.1898146,21.7493286,10.0621901,19,9.4761915V2.4999952c0-0.1728516-0.0898438-0.3339844-0.2373047-0.4257813
	c-0.1479492-0.0908202-0.331543-0.0986327-0.4863281-0.0214844l-4,2C14.1069336,4.1376905,14,4.3105421,14,4.4999952v4.5166016
	C6.2374268,9.1912794,0,13.3723097,0,18.4999962c0,5.2382813,6.5048828,9.5,14.5,9.5
	c0.0766602,0,0.152832-0.0175781,0.2236328-0.0527344l4-2C18.8930664,25.8623009,19,25.6894493,19,25.4999962V13.5529737
	c1.1158447,0.2827759,2.1397095,0.6623535,3.0097656,1.1325684l-0.7333984,0.3671875
	c-0.1870117,0.09375-0.2963867,0.2939453-0.2734375,0.5019531s0.1728516,0.3798828,0.3759766,0.4306641l8,2.000001
	c0.0400391,0.0097656,0.0805664,0.0146484,0.1210938,0.0146484c0.1103516,0,0.21875-0.0361328,0.3076172-0.1054688
	C29.9291992,17.7998009,30,17.6542931,30,17.4999962v-6.000001C30,11.3271437,29.9101563,11.1660109,29.7626953,11.074214z
	 M1,18.4999962c0-4.5802622,5.7887573-8.3165293,13-8.4840708v1.9979248c-6.2058716,0.1444702-11,2.9371948-11,6.486146
	s4.7941284,6.3416748,11,6.486145v1.9979248C6.7887573,26.8165245,1,23.0802574,1,18.4999962z M14,13.0137281v10.9725351
	c-5.4689331-0.1429443-10-2.5930786-10-5.4862671S8.5310669,13.1566725,14,13.0137281z M18,25.1914024l-3,1.5V4.808589l3-1.5
	V25.1914024z M29,16.8593712l-6.0678711-1.5166025l0.3374023-0.1689453
	c0.1591797-0.0800781,0.2641602-0.2382813,0.2753906-0.4160156c0.0112305-0.1767578-0.0727539-0.3476563-0.2207031-0.4462891
	C22.1610718,13.5312452,20.6670532,12.9241896,19,12.5269117v-2.0264282
	c2.6286621,0.5911865,4.9483032,1.699646,6.5727539,3.1665039c0.152832,0.1386719,0.375,0.1669922,0.5585938,0.0761719L29,12.308589
	V16.8593712z"/>
<g>
</g>
<g>
</g>
<g>
</g>
<g>
</g>
<g>
</g>
<g>
</g>
<g>
</g>
<g>
</g>
<g>
</g>
<g>
</g>
<g>
</g>
<g>
</g>
<g>
</g>
<g>
</g>
<g>
</g>
</svg>
