<?xml version="1.0" encoding="iso-8859-1"?>
<!-- Generator: Adobe Illustrator 21.0.0, SVG Export Plug-In . SVG Version: 6.00 Build 0)  -->
<svg version="1.1" id="Layer_1" xmlns="http://www.w3.org/2000/svg" xmlns:xlink="http://www.w3.org/1999/xlink" x="0px" y="0px"
	 viewBox="0 0 30 30" enable-background="new 0 0 30 30" xml:space="preserve">
<g>
	<path fill="#303C42" d="M29.782753,14.661665c-1.3005981-3.097168-8.4569092-5.5325928-16.4368896-5.6494751
		c3.1521597-3.7653193,6.5486441-6.2552485,8.6263418-5.9911494c1.4824219,0.1875,1.6728516,1.8881836,1.5703125,3.2817383
		c-0.0195313,0.2753906,0.1875,0.5151367,0.4628906,0.5351563c0.2480469,0.0209961,0.5146484-0.1865234,0.5351563-0.4619141
		c0.1855469-2.5424805-0.7050781-4.1269531-2.4433594-4.347168c-2.5661011-0.3219604-6.513732,2.5360718-10.0598135,6.9825435
		c-1.5606079,0.0291748-3.0325928,0.1517944-4.3744507,0.3600464C7.1897974,6.82054,7.3282862,4.7230668,8.2202539,3.6650834
		c1.2714844-1.5058594,3.6210938-0.0551758,4.5732422,0.6381836c0.2226563,0.1621094,0.5361328,0.1142578,0.6982422-0.1098633
		c0.1621094-0.2231445,0.1132813-0.5361328-0.1103516-0.6987305c-2.4892578-1.8120117-4.6494141-1.9868164-5.9248047-0.4741211
		C6.3700342,4.3090653,6.1517115,6.6847978,6.668313,9.5447826c-3.0481567,0.5980225-5.300293,1.6578369-6.2078247,3.0231323
		c-0.515625,0.7758789-0.6005859,1.6337891-0.2441406,2.480957c0.3769531,0.8999023,1.2285156,1.7480469,2.53125,2.5209961
		c0.2363281,0.1411133,0.5439453,0.0634766,0.6845703-0.1743164c0.1416016-0.237793,0.0634766-0.5444336-0.1748047-0.6850586
		c-1.0976563-0.6523438-1.8300781-1.3603516-2.1191406-2.0488281c-0.2265625-0.5385742-0.1757813-1.0424805,0.1552734-1.5400391
		c0.6686401-1.0061646,2.5657349-2.0154419,5.5760498-2.6035767c0.309082,1.3449097,0.7609863,2.7720947,1.3600464,4.2362671
		c-2.6787109,4.9099121-3.7034912,9.4111328-2.6069946,11.6212158c0.4140625,0.8344727,1.1152344,1.3369141,2.0273438,1.4526367
		c0.1357422,0.0170898,0.2763672,0.0258789,0.4199219,0.0258789c0.8779297,0,1.8945313-0.3212891,3.0292969-0.9575195
		c0.2402344-0.1352539,0.3261719-0.4399414,0.1914063-0.6806641c-0.1357422-0.2412109-0.4384766-0.3256836-0.6816406-0.1914063
		c-1.1132813,0.6245117-2.0878906,0.9082031-2.8339844,0.8115234c-0.5800781-0.0732422-0.9912109-0.3696289-1.2568359-0.9047852
		c-0.7532959-1.5195313-0.3057251-5.1351318,2.2189331-10.0009155c0.5812378,1.2766113,1.2637329,2.565979,2.0418091,3.8324585
		c2.9462891,4.796875,6.5839834,8.0268555,9.265624,8.2280273c0.0917969,0.0068359,0.1806641,0.0102539,0.2695313,0.0102539
		c0.8974609,0,1.6640625-0.3496094,2.2285156-1.0195313c1.9052734-2.2597656,1.1689453-8.0063477-1.7900391-13.9741211
		c-0.1230469-0.2475586-0.4248047-0.3476563-0.6699219-0.2255859c-0.2480469,0.1225586-0.3486328,0.4223633-0.2265625,0.6699219
		c2.7441406,5.5327148,3.5527344,10.9516602,1.9228516,12.8852539c-0.4169922,0.4941406-0.9619141,0.7070313-1.6591797,0.6567383
		c-2.3359375-0.175293-5.7480459-3.2915039-8.4892569-7.7543945c-0.8912354-1.4508667-1.6539917-2.9554443-2.2818604-4.4389038
		c0.0664063-0.1177979,0.1271973-0.2325439,0.1959229-0.3516235c0.9121094-1.5793457,1.93396-3.0784912,2.9993286-4.4446411
		c0.0700684-0.0003662,0.1360474-0.0031128,0.2067261-0.0031128c7.5830069,0,14.9609365,2.3115234,16.1103516,5.0483398
		c0.5791016,1.3779297-0.7988415,2.3930664-2.0566406,3.0014648c-0.2490234,0.1206055-0.3525391,0.4194336-0.2324219,0.6679688
		c0.0869141,0.1782227,0.2646484,0.2822266,0.4501953,0.2822266c0.0732422,0,0.1474609-0.0161133,0.2177734-0.0498047
		C29.5347061,17.8403759,30.4614639,16.2768993,29.782753,14.661665z M8.8767481,13.6208935
		c-0.4251099-1.1293945-0.7626953-2.2305908-1.0087891-3.2750244c1.0205078-0.1549683,2.1489258-0.2634888,3.3855591-0.3123779
		C10.42167,11.1520214,9.6229639,12.3558178,8.8767481,13.6208935z"/>
	<path fill="#303C42" d="M12.9995508,15.0010204c0,1.1030273,0.8974609,2,2,2s1.999999-0.8969727,1.999999-2
		s-0.8974609-2-1.999999-2S12.9995508,13.8979931,12.9995508,15.0010204z M15.9995508,15.0010204c0,0.5512695-0.4482422,1-1,1
		s-1-0.4487305-1-1s0.4482422-1,1-1S15.9995508,14.4497509,15.9995508,15.0010204z"/>
</g>
<g>
</g>
<g>
</g>
<g>
</g>
<g>
</g>
<g>
</g>
<g>
</g>
<g>
</g>
<g>
</g>
<g>
</g>
<g>
</g>
<g>
</g>
<g>
</g>
<g>
</g>
<g>
</g>
<g>
</g>
</svg>
