<?xml version="1.0" encoding="iso-8859-1"?>
<!-- Generator: Adobe Illustrator 21.0.0, SVG Export Plug-In . SVG Version: 6.00 Build 0)  -->
<svg version="1.1" id="Layer_1" xmlns="http://www.w3.org/2000/svg" xmlns:xlink="http://www.w3.org/1999/xlink" x="0px" y="0px"
	 viewBox="0 0 24 24" enable-background="new 0 0 24 24" xml:space="preserve">
<g id="XMLID_1611_">
	<path id="XMLID_1523_" fill="none" stroke="#303C42" stroke-linecap="round" stroke-linejoin="round" stroke-miterlimit="10" d="
		M8.5,13.5c1.302083,1.302083,4.166667,3,5.5,3s2.5-1.145833,2.5-2v-1c0,0-1.229167-0.604167-2-1s-2,1-2,1S11.09375,13.09375,10,12
		S8.5,9.5,8.5,9.5s1.395833-1.229167,1-2s-1-2-1-2h-1c-0.8541665,0-2,1.1666665-2,2.5S7.1979165,12.197917,8.5,13.5z"/>
	<path id="XMLID_1527_" fill="none" stroke="#303C42" stroke-linecap="round" stroke-linejoin="round" stroke-miterlimit="10" d="
		M12,8.5c0.8284273,0,1.5,0.6715727,1.5,1.5"/>
	<path id="XMLID_1528_" fill="none" stroke="#303C42" stroke-linecap="round" stroke-linejoin="round" stroke-miterlimit="10" d="
		M12,4.5c3.0375662,0,5.5,2.4624338,5.5,5.5"/>
	<path id="XMLID_1529_" fill="none" stroke="#303C42" stroke-linecap="round" stroke-linejoin="round" stroke-miterlimit="10" d="
		M12,6.5c1.9329967,0,3.5,1.5670033,3.5,3.5"/>
	<path id="XMLID_1532_" fill="none" stroke="#303C42" stroke-linecap="round" stroke-linejoin="round" stroke-miterlimit="10" d="
		M12,1.5c-5.4468384,0-10.5,0.875-10.5,9c0,5.2045898,2.0778809,7.4275513,5,8.3580322v2.6101685
		C6.5,22.0380249,6.9619751,22.5,7.5317993,22.5c0.2975464,0,0.5805664-0.128479,0.7764893-0.352356l2.3393555-2.6735229
		C11.0946045,19.4900513,11.5448608,19.5,12,19.5c5.4468384,0,10.5-0.875,10.5-9S17.4468384,1.5,12,1.5z"/>
</g>
<g>
</g>
<g>
</g>
<g>
</g>
<g>
</g>
<g>
</g>
<g>
</g>
<g>
</g>
<g>
</g>
<g>
</g>
<g>
</g>
<g>
</g>
<g>
</g>
<g>
</g>
<g>
</g>
<g>
</g>
</svg>
