<?xml version="1.0" encoding="iso-8859-1"?>
<!-- Generator: Adobe Illustrator 21.0.0, SVG Export Plug-In . SVG Version: 6.00 Build 0)  -->
<svg version="1.1" id="Layer_1" xmlns="http://www.w3.org/2000/svg" xmlns:xlink="http://www.w3.org/1999/xlink" x="0px" y="0px"
	 viewBox="0 0 30 30" enable-background="new 0 0 30 30" xml:space="preserve">
<g>
	<path fill="#303C42" d="M16.0076675,24.7838058c0.6044922-0.8779297,1.1582031-1.0444336,1.96875-1.0444336
		c0.2402344,0,0.4316406,0.0717773,0.5537109,0.2075195c0.1113281,0.1254883,0.1611328,0.3022461,0.1396484,0.4980469
		c-0.0302734,0.2744141,0.1679688,0.5214844,0.4423828,0.5522461c0.2636719,0.0268555,0.5205078-0.1674805,0.5517578-0.4418945
		c0.0537109-0.4824219-0.0849609-0.9355469-0.3896484-1.2753906c-0.3115234-0.3486328-0.7724609-0.5405273-1.2978516-0.5405273
		c-0.921875,0-1.8974609,0.1787109-2.7929678,1.4770508c-0.15625,0.2275391-0.0986328,0.5385742,0.1279297,0.6953125
		c0.0869141,0.0595703,0.1855469,0.0883789,0.2841797,0.0883789C15.7537622,25.0001144,15.9100122,24.9244308,16.0076675,24.7838058
		z"/>
	<path fill="#303C42" d="M19.5213394,25.9527512c-1.5273438,0.8354492-4.7158194,0.7060547-6.0761709-0.0043945
		c-0.2441406-0.1279297-0.5458984-0.0332031-0.6748047,0.2109375c-0.1279297,0.2451172-0.0332031,0.546875,0.2119141,0.6748047
		c0.8408203,0.4404297,2.2099609,0.6953125,3.5908194,0.6953125c1.2666016,0,2.5429688-0.215332,3.4287109-0.699707
		c0.2421875-0.1323242,0.3310547-0.4365234,0.1982422-0.6787109C20.0662613,25.907341,19.7615738,25.8204269,19.5213394,25.9527512z
		"/>
	<path fill="#303C42" d="M19.9031754,4.9254079c-0.8652344-0.3530273-1.6484375-0.8740234-2.328125-1.5488284
		c-1.5410156-1.5302733-2.7578115-3.1586914-2.7695303-3.1748047c-0.1054688-0.1425781-0.2724609-0.21875-0.4560547-0.1987305
		c-0.1757813,0.0195313-0.3291016,0.1308594-0.4013672,0.2929688c-0.0058594,0.0131836-0.6132813,1.3564453-1.5927734,2.6748047
		c-0.6728516,0.9047852-1.6347656,1.6616213-2.7802734,2.1889651c-4.8632817,2.2397461-7.8300786,7.1464839-7.5576177,12.5
		c0.3378906,6.6508789,5.8085938,12.0668945,12.4550781,12.3295898c0.1777344,0.0073242,0.3554688,0.0107422,0.5322266,0.0107422
		c3.374999,0,6.5517569-1.2758789,8.9960928-3.6254883c2.5791016-2.4785156,3.9990234-5.8144531,3.9990234-9.3930664
		C27.999855,11.6656418,24.8221207,6.9332204,19.9031754,4.9254079z M23.3074722,25.653923
		c-2.3740234,2.2822266-5.4765625,3.4663086-8.7958975,3.3364258C8.3777857,28.747673,3.3279805,23.7481613,3.0154805,17.6090012
		C2.764504,12.6661301,5.5037618,8.1358566,9.9930201,6.067986c1.2978516-0.597168,2.3916016-1.4614258,3.1650391-2.5004885
		c0.5908203-0.7954102,1.0488281-1.5854491,1.3398438-2.1337891c0.5087891,0.6337889,1.3652344,1.6528319,2.3720694,2.652832
		c0.7744141,0.7675781,1.6679688,1.3613281,2.6552734,1.7646484c4.5410156,1.8535156,7.4746094,6.2226558,7.4746094,11.1303711
		C26.999855,20.285759,25.6883316,23.3653488,23.3074722,25.653923z"/>
	<path fill="#303C42" d="M22.999855,15.0001144c-1.3065186,0-3.5397949,2.2315674-4.5012817,3.2612915
		c-1.1074219-1.173584-4.2355947-4.2612915-6.4987173-4.2612915c-2.7568359,0-5.0000005,2.2431641-5.0000005,5
		c0,2.8969727,1.8925786,5,4.5000005,5c2.2728271,0,5.782897-3.1448975,6.9784536-4.2828979
		c0.9504395,1.0200806,3.2061768,3.2828979,4.5215454,3.2828979c1.6542969,0,3-1.7944336,3-4
		S24.6541519,15.0001144,22.999855,15.0001144z M11.499856,23.0001144c-2.0605469,0-3.5000005-1.6450195-3.5000005-4
		c0-2.2055664,1.7939458-4,4.0000005-4c1.6923828,0,4.5078115,2.6103516,5.8027334,3.9804688
		C16.3582535,20.3521652,13.2156763,23.0001144,11.499856,23.0001144z M22.999855,22.0001144
		c-0.734375,0-2.5742188-1.6567383-3.8232422-3c1.2490234-1.3432617,3.0878906-3,3.8232422-3c1.0839844,0,2,1.3740234,2,3
		S24.0838394,22.0001144,22.999855,22.0001144z"/>
</g>
<g>
</g>
<g>
</g>
<g>
</g>
<g>
</g>
<g>
</g>
<g>
</g>
<g>
</g>
<g>
</g>
<g>
</g>
<g>
</g>
<g>
</g>
<g>
</g>
<g>
</g>
<g>
</g>
<g>
</g>
</svg>
