<?xml version="1.0" encoding="iso-8859-1"?>
<!-- Generator: Adobe Illustrator 21.0.0, SVG Export Plug-In . SVG Version: 6.00 Build 0)  -->
<svg version="1.1" id="Layer_1" xmlns="http://www.w3.org/2000/svg" xmlns:xlink="http://www.w3.org/1999/xlink" x="0px" y="0px"
	 viewBox="0 0 30 30" enable-background="new 0 0 30 30" xml:space="preserve">
<g>
	<g id="XMLID_1545_">
		<path fill="#303C42" d="M10.5,17h-2C8.2236328,17,8,16.7763672,8,16.5v-3C8,13.2236328,8.2236328,13,8.5,13H10v-2.5
			c0-0.2763672,0.2236328-0.5,0.5-0.5s0.5,0.2236328,0.5,0.5v6C11,16.7763672,10.7763672,17,10.5,17z M9,16h1v-2H9V16z"/>
	</g>
	<g id="XMLID_1136_">
		<path fill="#303C42" d="M16.5,20h-2c-0.2763672,0-0.5-0.2236328-0.5-0.5s0.2236328-0.5,0.5-0.5H16v-2h-1.5
			c-0.2763672,0-0.5-0.2236328-0.5-0.5v-3c0-0.2763672,0.2236328-0.5,0.5-0.5h2c0.2763672,0,0.5,0.2236328,0.5,0.5v6
			C17,19.7763672,16.7763672,20,16.5,20z M15,16h1v-2h-1V16z"/>
	</g>
	<g id="XMLID_1137_">
		<path fill="#303C42" d="M20.5,20h-2c-0.2763672,0-0.5-0.2236328-0.5-0.5s0.2236328-0.5,0.5-0.5H20v-2h-1.5
			c-0.2763672,0-0.5-0.2236328-0.5-0.5v-3c0-0.2763672,0.2236328-0.5,0.5-0.5h2c0.2763672,0,0.5,0.2236328,0.5,0.5v6
			C21,19.7763672,20.7763672,20,20.5,20z M19,16h1v-2h-1V16z"/>
	</g>
	<g id="XMLID_1553_">
		<path fill="#303C42" d="M12.5,17c-0.2763672,0-0.5-0.2236328-0.5-0.5v-3c0-0.2763672,0.2236328-0.5,0.5-0.5s0.5,0.2236328,0.5,0.5
			v3C13,16.7763672,12.7763672,17,12.5,17z"/>
	</g>
	<g id="XMLID_1549_">
		<circle fill="#303C42" cx="12.5" cy="11.5" r="0.5"/>
	</g>
	<g id="XMLID_1544_">
		<path fill="#303C42" d="M26,28H4c-1.1030273,0-2-0.8974609-2-2V4c0-1.1025391,0.8969727-2,2-2h22c1.1030273,0,2,0.8974609,2,2v22
			C28,27.1025391,27.1030273,28,26,28z M4,3C3.4487305,3,3,3.4482422,3,4v22c0,0.5517578,0.4487305,1,1,1h22
			c0.5512695,0,1-0.4482422,1-1V4c0-0.5517578-0.4487305-1-1-1H4z"/>
	</g>
</g>
<g>
</g>
<g>
</g>
<g>
</g>
<g>
</g>
<g>
</g>
<g>
</g>
<g>
</g>
<g>
</g>
<g>
</g>
<g>
</g>
<g>
</g>
<g>
</g>
<g>
</g>
<g>
</g>
<g>
</g>
</svg>
