<?xml version="1.0" encoding="iso-8859-1"?>
<!-- Generator: Adobe Illustrator 21.0.0, SVG Export Plug-In . SVG Version: 6.00 Build 0)  -->
<svg version="1.1" id="Layer_1" xmlns="http://www.w3.org/2000/svg" xmlns:xlink="http://www.w3.org/1999/xlink" x="0px" y="0px"
	 viewBox="0 0 24 24" enable-background="new 0 0 24 24" xml:space="preserve">
<g id="XMLID_1588_">
	
		<line id="XMLID_1347_" fill="none" stroke="#303C42" stroke-linecap="round" stroke-linejoin="round" stroke-miterlimit="10" x1="5.5" y1="20.5" x2="5.5" y2="14.5"/>
	
		<line id="XMLID_1348_" fill="none" stroke="#303C42" stroke-linecap="round" stroke-linejoin="round" stroke-miterlimit="10" x1="3.5" y1="14.5" x2="7.5" y2="14.5"/>
	<path id="XMLID_1345_" fill="none" stroke="#303C42" stroke-linecap="round" stroke-linejoin="round" stroke-miterlimit="10" d="
		M7.5,16.5v2.75c0,0.6903553,0.5596437,1.25,1.25,1.25h0.5c0.6903563,0,1.25-0.5596447,1.25-1.25V16.5"/>
	
		<line id="XMLID_1350_" fill="none" stroke="#303C42" stroke-linecap="round" stroke-linejoin="round" stroke-miterlimit="10" x1="10.5" y1="19.5" x2="10.5" y2="20.5"/>
	<path id="XMLID_1354_" fill="none" stroke="#303C42" stroke-linecap="round" stroke-linejoin="round" stroke-miterlimit="10" d="
		M17.5,18.5h3v-0.75c0-0.6903553-0.5596447-1.25-1.25-1.25h-0.5c-0.6903553,0-1.25,0.5596447-1.25,1.25v1.5
		c0,0.6903553,0.5596447,1.25,1.25,1.25h0.75c0.3660889,0,0.6724854-0.206543,0.8467407-0.5"/>
	<path id="XMLID_1353_" fill="none" stroke="#303C42" stroke-linecap="round" stroke-linejoin="round" stroke-miterlimit="10" d="
		M20,22.5H4c-1.3807118,0-2.5-1.1192875-2.5-2.5v-5c0-1.3807116,1.1192882-2.5,2.5-2.5h16c1.3807125,0,2.5,1.1192884,2.5,2.5v5
		C22.5,21.3807125,21.3807125,22.5,20,22.5z"/>
	
		<polyline id="XMLID_1355_" fill="none" stroke="#303C42" stroke-linecap="round" stroke-linejoin="round" stroke-miterlimit="10" points="
		4.5,1.5 6.5,6.5 8.5,1.5 	"/>
	
		<line id="XMLID_1357_" fill="none" stroke="#303C42" stroke-linecap="round" stroke-linejoin="round" stroke-miterlimit="10" x1="6.5" y1="6.5" x2="6.5" y2="10.5"/>
	<path id="XMLID_1356_" fill="none" stroke="#303C42" stroke-linecap="round" stroke-linejoin="round" stroke-miterlimit="10" d="
		M11.0000019,10.5h-0.0000038C10.1715717,10.5,9.5,9.8284283,9.5,9.0000019V5.9999986C9.5,5.1715722,10.1715717,4.5,10.9999981,4.5
		h0.0000038C11.8284283,4.5,12.5,5.1715722,12.5,5.9999986v3.0000033C12.5,9.8284283,11.8284283,10.5,11.0000019,10.5z"/>
	<g id="XMLID_1359_">
		<path id="XMLID_1358_" fill="none" stroke="#303C42" stroke-linecap="round" stroke-linejoin="round" stroke-miterlimit="10" d="
			M17.5,4.5v4.5000019C17.5,9.8284283,16.8284283,10.5,16.0000019,10.5h-0.0000038C15.1715717,10.5,14.5,9.8284283,14.5,9.0000019
			V4.5"/>
	</g>
	
		<line id="XMLID_1361_" fill="none" stroke="#303C42" stroke-linecap="round" stroke-linejoin="round" stroke-miterlimit="10" x1="17.5" y1="9.0000019" x2="17.5" y2="10.5"/>
	
		<line id="XMLID_1360_" fill="none" stroke="#303C42" stroke-linecap="round" stroke-linejoin="round" stroke-miterlimit="10" x1="12.5" y1="14.5" x2="12.5" y2="20.5"/>
	<path id="XMLID_1338_" fill="none" stroke="#303C42" stroke-linecap="round" stroke-linejoin="round" stroke-miterlimit="10" d="
		M13.75,16.5h0.5c0.6903563,0,1.25,0.5596447,1.25,1.25v1.5c0,0.6903553-0.5596437,1.25-1.25,1.25h-0.5
		c-0.6903563,0-1.25-0.5596447-1.25-1.25v-1.5C12.5,17.0596447,13.0596437,16.5,13.75,16.5z"/>
</g>
<g>
</g>
<g>
</g>
<g>
</g>
<g>
</g>
<g>
</g>
<g>
</g>
<g>
</g>
<g>
</g>
<g>
</g>
<g>
</g>
<g>
</g>
<g>
</g>
<g>
</g>
<g>
</g>
<g>
</g>
</svg>
