<?xml version="1.0" encoding="iso-8859-1"?>
<!-- Generator: Adobe Illustrator 21.0.0, SVG Export Plug-In . SVG Version: 6.00 Build 0)  -->
<svg version="1.1" id="Layer_1" xmlns="http://www.w3.org/2000/svg" xmlns:xlink="http://www.w3.org/1999/xlink" x="0px" y="0px"
	 viewBox="0 0 30 30" enable-background="new 0 0 30 30" xml:space="preserve">
<path fill="#303C42" d="M15,0C6.7285156,0,0,6.7290039,0,15s6.7285156,15,15,15s15-6.7290039,15-15S23.2714844,0,15,0z
	 M22.6796875,23.3496094C22.5820313,23.449707,22.4521484,23.5,22.3222656,23.5
	c-0.1259766,0-0.2519531-0.0473633-0.3496094-0.1425781c-3.8632813-3.7753906-10.1210938-4.2680664-14.3076172-2.8037109
	c-0.2617188,0.09375-0.5449219-0.0463867-0.6367188-0.3066406s0.0458984-0.5458984,0.3066406-0.6367188
	c4.4755859-1.5673828,11.1816406-1.0297852,15.3369141,3.0322266
	C22.8691406,22.8354492,22.8730469,23.1518555,22.6796875,23.3496094z M24.2871094,18.296875
	c-0.0996227,0.1186523-0.2412109,0.1801758-0.3847656,0.1801758c-0.1132813,0-0.2265625-0.0380859-0.3203125-0.1157227
	c-4.5146484-3.7587891-11.6669922-4.1826172-16.3984375-2.6591797c-0.2607422,0.0825195-0.5439453-0.0595703-0.6289063-0.3227539
	C6.4697266,15.1166992,6.6142578,14.8349609,6.8769531,14.75c4.9912109-1.6069336,12.5517578-1.1469727,17.3457031,2.8427734
	C24.4345703,17.7695313,24.4628906,18.0844727,24.2871094,18.296875z M25.4169922,12.7763672
	C25.3203125,12.9213867,25.1611328,13,25,13c-0.0957031,0-0.1914063-0.0268555-0.2763672-0.0834961
	c-5.3037109-3.5161133-13.3505859-3.5371094-18.5605469-1.7392578c-0.2617188,0.0908203-0.5458984-0.0488281-0.6357422-0.3095703
	c-0.0898576-0.2612305,0.0488281-0.5458984,0.3095703-0.6357422c5.4414063-1.8779297,13.8671875-1.8452148,19.4394531,1.8515625
	C25.5068359,12.2358398,25.5693359,12.5463867,25.4169922,12.7763672z"/>
<g>
</g>
<g>
</g>
<g>
</g>
<g>
</g>
<g>
</g>
<g>
</g>
<g>
</g>
<g>
</g>
<g>
</g>
<g>
</g>
<g>
</g>
<g>
</g>
<g>
</g>
<g>
</g>
<g>
</g>
</svg>
