<?xml version="1.0" encoding="iso-8859-1"?>
<!-- Generator: Adobe Illustrator 21.0.0, SVG Export Plug-In . SVG Version: 6.00 Build 0)  -->
<svg version="1.1" id="Layer_1" xmlns="http://www.w3.org/2000/svg" xmlns:xlink="http://www.w3.org/1999/xlink" x="0px" y="0px"
	 viewBox="0 0 30 30" enable-background="new 0 0 30 30" xml:space="preserve">
<g>
	<path fill="#303C42" d="M15.0013208,15c4.1357412,0,7.499999-3.3642578,7.499999-7.5S19.1370621,0,15.0013208,0
		S7.5013204,3.3642578,7.5013204,7.5S10.8655787,15,15.0013208,15z M15.0013208,3c2.4814444,0,4.499999,2.0185547,4.499999,4.5
		s-2.0185547,4.5-4.499999,4.5s-4.5-2.0185547-4.5-4.5S12.5198755,3,15.0013208,3z"/>
	<path fill="#303C42" d="M24.5013123,15.5c-0.0009766,0-0.0009766-0.0009766-0.0009766-0.0009766
		c-0.8271065-1.1005859-2.3983154-1.3232422-3.4998226-0.4970703C19.2593899,16.3085938,17.185276,17,15.0008163,17
		c-2.1854372,0-4.259551-0.6914063-5.9996977-1.9990234c-1.1015067-0.828125-2.6736932-0.6074219-3.4998236,0.4951172
		c-0.8290596,1.1015625-0.6064143,2.671875,0.4950924,3.5009766c1.512619,1.1367188,3.1961279,1.9619141,5.0143957,2.4580078
		L6.733655,25.7324219c-0.9745603,0.9746094-0.9745603,2.5605469,0,3.5351563c0.9452648,0.9453125,2.5897131,0.9453125,3.5349779,0
		l4.7321835-4.7324219l4.7321835,4.7324219C20.2056313,29.7402344,20.832552,30,21.5004883,30
		c0.6679344,0,1.294857-0.2597656,1.7674885-0.7324219c0.9745598-0.9746094,0.9745598-2.5605469,0-3.5351563l-4.2771282-4.2773438
		C20.8091164,20.9589844,22.4916496,20.1357422,24.0032921,19C25.1038208,18.171875,25.3274441,16.6015625,24.5013123,15.5z"/>
</g>
<g>
</g>
<g>
</g>
<g>
</g>
<g>
</g>
<g>
</g>
<g>
</g>
<g>
</g>
<g>
</g>
<g>
</g>
<g>
</g>
<g>
</g>
<g>
</g>
<g>
</g>
<g>
</g>
<g>
</g>
</svg>
