<?xml version="1.0" encoding="iso-8859-1"?>
<!-- Generator: Adobe Illustrator 21.0.0, SVG Export Plug-In . SVG Version: 6.00 Build 0)  -->
<svg version="1.1" id="Layer_1" xmlns="http://www.w3.org/2000/svg" xmlns:xlink="http://www.w3.org/1999/xlink" x="0px" y="0px"
	 viewBox="0 0 24 24" enable-background="new 0 0 24 24" xml:space="preserve">
<path fill="#303C42" d="M20.0414715,12.9794922c0.2353516-0.453125,1.0888672-1.7353516,1.7294922-2.6992188
	c1.875-2.8183594,2.2290039-3.4189453,2.2290039-3.7802734c0-0.2763672-0.2236328-0.5-0.5-0.5h-4.5
	c-0.2421875,0-0.4492188,0.1728516-0.4921875,0.4111328C18.2602215,7.7871094,15.0131512,11.7519531,14.4999676,12
	c-0.2094727,0-0.5-0.5214844-0.5-1.5v-4l0.003418-0.2197266c0.0073242-0.3251953,0.0146484-0.6621094-0.2436523-0.9267578
	C13.4311199,5.0175781,12.9223309,5,11.4999676,5C8.9194012,5,7.9999681,5.7744141,7.9999681,6.5
	c0,0.2763672,0.1772456,0.4921875,0.4536128,0.4921875C8.458952,6.9951172,8.9999676,7.3564453,8.9999676,9.5
	c0,0.5800781,0,2.0410156-0.1347656,2.4882813c-1.2636714-0.2177734-3.0205073-3.3916016-3.8989253-5.6679688
	C4.8920579,6.1269531,4.706511,6,4.4999681,6h-4C0.3515304,6,0.2109054,6.0654297,0.1161788,6.1796875
	C0.020964,6.2939453-0.0185868,6.4443359,0.0082687,6.5898438C0.5605147,9.6113281,6.9125657,19,10.9999676,19h2
	c1.0595703,0,1.1425781-1.1484375,1.1977539-1.9091797C14.2499676,16.3671875,14.311491,16,14.4999676,16
	c0.6206055,0,1.8852539,1.0976563,2.722168,1.8242188C18.1611004,18.6396484,18.5932293,19,18.9999676,19h2.5
	c1.2856445,0,2.5,0,2.5-1c0-0.3808594-0.3325195-0.8242188-2.2250977-2.9677734
	C21.139616,14.3134766,20.2948895,13.3564453,20.0414715,12.9794922z M21.4999676,18l-2.4321289,0.0087891
	c-0.1796875-0.0615234-0.7636719-0.5693359-1.1899414-0.9394531C16.7602215,16.0996094,15.4941082,15,14.4999676,15
	c-1.1533203,0-1.2412109,1.2148438-1.2993164,2.0185547C13.1781902,17.328125,13.136198,17.9033203,12.9999676,18
	l-0.0004883,0.0009766C12.9882488,18,12.9765301,18,12.9648113,18h-1.9648438c-3.0400386,0-8.730957-7.6376953-9.8510742-11
	h3.0112305c0.6181641,1.5263672,2.6196289,6,4.8398433,6c1,0,1-1.3925781,1-3.5
	c0-1.8447266-0.3701172-2.7226563-0.7548828-3.1376953C9.5732098,6.1982422,10.2519207,6,11.4999676,6
	c0.5043945,0,1.2397461,0,1.5053711,0.0566406c0.0014648,0.0585938-0.0004883,0.1347656-0.0019531,0.2011719L12.9999676,10.5
	c0,1.5185547,0.5888672,2.5,1.5,2.5c1.0117188,0,4.1708984-4.1630859,4.8701172-6h3.3344727
	c-0.4248047,0.7109375-1.2001953,1.8759766-1.7661133,2.7265625C19.2533855,12.2597656,18.9999676,12.6875,18.9999676,13
	c0,0.3486328,0.2651367,0.7011719,2.0249023,2.6943359c0.6420898,0.7265625,1.5673828,1.7744141,1.8876953,2.2392578
	C22.6103191,18,21.9819012,18,21.4999676,18z"/>
<g>
</g>
<g>
</g>
<g>
</g>
<g>
</g>
<g>
</g>
<g>
</g>
<g>
</g>
<g>
</g>
<g>
</g>
<g>
</g>
<g>
</g>
<g>
</g>
<g>
</g>
<g>
</g>
<g>
</g>
</svg>
