<?xml version="1.0" encoding="iso-8859-1"?>
<!-- Generator: Adobe Illustrator 21.0.0, SVG Export Plug-In . SVG Version: 6.00 Build 0)  -->
<svg version="1.1" id="Layer_1" xmlns="http://www.w3.org/2000/svg" xmlns:xlink="http://www.w3.org/1999/xlink" x="0px" y="0px"
	 viewBox="0 0 30 30" enable-background="new 0 0 30 30" xml:space="preserve">
<path fill="#303C42" d="M27.4394531,21.2260742c-0.9575195-2.1494141-2.3681641-5.3007813-3.8085938-8.5166016
	c-1.6411133-3.6640625-3.3198242-7.4130859-4.4086914-9.8623047C18.4414063,1.0908203,16.8237305,0,15,0
	s-3.4414063,1.0908203-4.2216797,2.847168c-1.0893555,2.4492188-2.7680664,6.1982422-4.4091797,9.8623047
	c-1.4404297,3.2158203-2.8510742,6.3671875-3.8081055,8.5161133C2.1889648,22.0620117,2,22.9370117,2,23.8261719
	C2,27.2304688,4.6274414,30,7.8569336,30C9.8735352,30,12.5175781,28.4697266,15,25.8828125
	C17.4824219,28.4697266,20.1264648,30,22.1430664,30C25.3725586,30,28,27.2304688,28,23.8261719
	C28,22.9370117,27.8115234,22.0625,27.4394531,21.2260742z M15,22.8295898C13.1303711,20.425293,12,17.8798828,12,16
	c0-1.6542969,1.3457031-3,3-3c1.6259766,0,3,1.3740234,3,3C18,17.8803711,16.8696289,20.4257813,15,22.8295898z M22.1430664,28
	c-1.4685059,0-3.7304077-1.4243774-5.8200073-3.6378784C18.6299438,21.5007324,20,18.425293,20,16c0-2.7104492-2.2895508-5-5-5
	c-2.7568359,0-5,2.2431641-5,5c0,2.4244385,1.3699951,5.5003662,3.6771851,8.3623047
	C11.5871582,26.5757446,9.3253784,28,7.8569336,28C5.7299805,28,4,26.1274414,4,23.8261719
	c0-0.6074219,0.1303711-1.2084961,0.3881836-1.7871094c0.9560547-2.1479492,2.3666992-5.2973633,3.8061523-8.512207
	c1.6420898-3.6660156,3.3217773-7.4169922,4.4116211-9.8671875C13.0605469,2.6357422,13.9780273,2,15,2
	s1.9394531,0.6357422,2.3945313,1.659668c1.0893555,2.4501953,2.769043,6.2011719,4.4111328,9.8671875
	c1.4394531,3.2148438,2.8500977,6.3642578,3.8066406,8.512207C25.8696289,22.6176758,26,23.2192383,26,23.8261719
	C26,26.1274414,24.2700195,28,22.1430664,28z"/>
<g>
</g>
<g>
</g>
<g>
</g>
<g>
</g>
<g>
</g>
<g>
</g>
<g>
</g>
<g>
</g>
<g>
</g>
<g>
</g>
<g>
</g>
<g>
</g>
<g>
</g>
<g>
</g>
<g>
</g>
</svg>
