<?xml version="1.0" encoding="iso-8859-1"?>
<!-- Generator: Adobe Illustrator 21.0.0, SVG Export Plug-In . SVG Version: 6.00 Build 0)  -->
<svg version="1.1" id="Layer_1" xmlns="http://www.w3.org/2000/svg" xmlns:xlink="http://www.w3.org/1999/xlink" x="0px" y="0px"
	 viewBox="0 0 24 24" enable-background="new 0 0 24 24" xml:space="preserve">
<g id="XMLID_1596_">
	
		<circle id="XMLID_1367_" fill="none" stroke="#303C42" stroke-linecap="round" stroke-linejoin="round" stroke-miterlimit="10" cx="6" cy="6" r="1.5"/>
	
		<rect id="XMLID_1373_" x="4.5" y="9.5" fill="none" stroke="#303C42" stroke-linecap="round" stroke-linejoin="round" stroke-miterlimit="10" width="3" height="10"/>
	<path id="XMLID_1379_" fill="none" stroke="#303C42" stroke-linecap="round" stroke-linejoin="round" stroke-miterlimit="10" d="
		M15.5,9.5c-1.4494019,0-2.2238159,0.6021118-3,1.5012207V9.5h-3v10h3V14c0-1.6582031,0.8945313-2.5,2-2.5s2,0.8417969,2,2.5v5.5h3
		V14C19.5,11.2711182,17.96875,9.5,15.5,9.5z"/>
	<path id="XMLID_1376_" fill="none" stroke="#303C42" stroke-linecap="round" stroke-linejoin="round" stroke-miterlimit="10" d="
		M21,1.5H3C2.1715729,1.5,1.5,2.1715729,1.5,3v18c0,0.8284264,0.6715729,1.5,1.5,1.5h18c0.8284264,0,1.5-0.6715736,1.5-1.5V3
		C22.5,2.1715729,21.8284264,1.5,21,1.5z"/>
</g>
<g>
</g>
<g>
</g>
<g>
</g>
<g>
</g>
<g>
</g>
<g>
</g>
<g>
</g>
<g>
</g>
<g>
</g>
<g>
</g>
<g>
</g>
<g>
</g>
<g>
</g>
<g>
</g>
<g>
</g>
</svg>
