<?xml version="1.0" encoding="iso-8859-1"?>
<!-- Generator: Adobe Illustrator 21.0.0, SVG Export Plug-In . SVG Version: 6.00 Build 0)  -->
<svg version="1.1" id="Layer_1" xmlns="http://www.w3.org/2000/svg" xmlns:xlink="http://www.w3.org/1999/xlink" x="0px" y="0px"
	 viewBox="0 0 24 24" enable-background="new 0 0 24 24" xml:space="preserve">
<path fill="#303C42" d="M20.5664063,12H20.203125c-0.1689453,0-0.3388672,0.0175781-0.5048828,0.0527344l-0.9076538,0.1925049
	L18.1063232,9.019165l0.9649658-0.2047119C20.1884766,8.5771484,21,7.5761719,21,6.4335938C21,5.0917969,19.9082031,4,18.5664063,4
	H18.203125c-0.1689453,0-0.3388672,0.0175781-0.5048828,0.0527344l-0.6175537,0.1309814l-0.2662354-1.2550049
	C16.5771484,1.8110352,15.5761719,1,14.4335938,1C13.0917969,1,12,2.0917969,12,3.4335938v0.3637695
	c0,0.1713867,0.0175781,0.3417969,0.0527344,0.5043945l0.1925049,0.9076538L9.019165,5.8936768L8.8144531,4.9287109
	C8.5771484,3.8110352,7.5761719,3,6.4335938,3C5.0917969,3,4,4.0917969,4,5.4335938v0.3637695
	C4,5.96875,4.0175781,6.1391602,4.0527344,6.3017578l0.1309814,0.6175537L2.9287109,7.1855469
	C1.8115234,7.4228516,1,8.4238281,1,9.5664063C1,10.9082031,2.0917969,12,3.4335938,12H3.796875
	c0.1689453,0,0.3388672-0.0175781,0.5048828-0.0527344l0.9076538-0.1925049l0.6842651,3.2260742l-0.9649658,0.2047119
	C3.8115234,15.4228516,3,16.4238281,3,17.5664063C3,18.9082031,4.0917969,20,5.4335938,20H5.796875
	c0.1689453,0,0.3388672-0.0175781,0.5048828-0.0527344l0.6175537-0.1309814l0.2662354,1.2550049
	C7.4228516,22.1889648,8.4238281,23,9.5664063,23C10.9082031,23,12,21.9082031,12,20.5664063v-0.3637695
	c0-0.1713867-0.0175781-0.3417969-0.0527344-0.5043945l-0.1925049-0.9076538l3.2260742-0.6842651l0.2047119,0.9649658
	C15.4228516,20.1889648,16.4238281,21,17.5664063,21C18.9082031,21,20,19.9082031,20,18.5664063v-0.3637695
	c0-0.1713867-0.0175781-0.3417969-0.0527344-0.5043945l-0.1309814-0.6175537l1.2550049-0.2662354
	C22.1884766,16.5771484,23,15.5761719,23,14.4335938C23,13.0917969,21.9082031,12,20.5664063,12z M13.9552002,13.2709351
	l-3.2261353,0.6842651l-0.6842651-3.2261353l3.2261353-0.6842651L13.9552002,13.2709351z"/>
<g>
</g>
<g>
</g>
<g>
</g>
<g>
</g>
<g>
</g>
<g>
</g>
<g>
</g>
<g>
</g>
<g>
</g>
<g>
</g>
<g>
</g>
<g>
</g>
<g>
</g>
<g>
</g>
<g>
</g>
</svg>
