<?xml version="1.0" encoding="iso-8859-1"?>
<!-- Generator: Adobe Illustrator 21.0.0, SVG Export Plug-In . SVG Version: 6.00 Build 0)  -->
<svg version="1.1" id="Layer_1" xmlns="http://www.w3.org/2000/svg" xmlns:xlink="http://www.w3.org/1999/xlink" x="0px" y="0px"
	 viewBox="0 0 30 30" enable-background="new 0 0 30 30" xml:space="preserve">
<g>
	<path fill="#303C42" d="M29.782753,14.6616917c-1.3005981-3.0969248-8.4569092-5.5321579-16.4368896-5.6490307
		c3.1521597-3.7650247,6.5486441-6.2547584,8.6263418-5.9906797c1.4824219,0.1874855,1.6728516,1.8880355,1.5703125,3.2814806
		c-0.0195313,0.2753692,0.1875,0.5150962,0.4628906,0.5351143c0.2480469,0.0209947,0.5146484-0.1865087,0.5351563-0.4618778
		c0.1855469-2.5422807-0.7050781-4.1266289-2.4433594-4.3468266c-2.5661011-0.3219352-6.513732,2.5358725-10.0598135,6.9819961
		c-1.5606079,0.0291719-3.0325928,0.151782-4.3744507,0.3600178c-0.4731445-2.550703-0.3346558-4.6480117,0.557312-5.7059116
		c1.2714844-1.5057411,3.6210938-0.0551715,4.5732422,0.6381338c0.2226563,0.1620965,0.5361328,0.1142488,0.6982422-0.1098547
		c0.1621094-0.2231271,0.1132813-0.5360909-0.1103516-0.6986759c-2.4892578-1.8118694-4.6494141-1.9866604-5.9248047-0.4740839
		C6.3700342,4.3099051,6.1517115,6.6854506,6.668313,9.5452118c-3.0481567,0.5979748-5.300293,1.6577063-6.2078247,3.0228949
		c-0.515625,0.7758179-0.6005859,1.6336603-0.2441406,2.4807615c0.3769531,0.8998318,1.2285156,1.7479095,2.53125,2.5207977
		c0.2363281,0.1411037,0.5439453,0.0634727,0.6845703-0.1743011c0.1416016-0.2377758,0.0634766-0.5443916-0.1748047-0.6850052
		c-1.0976563-0.6522923-1.8300781-1.3602448-2.1191406-2.0486679c-0.2265625-0.5385313-0.1757813-1.0423985,0.1552734-1.5399179
		c0.6686401-1.0060854,2.5657349-2.0152836,5.5760498-2.6033716c0.309082,1.3448038,0.7609863,2.7718763,1.3600464,4.2359343
		c-2.6787109,4.9095259-3.7034912,9.4103937-2.6069946,11.6203032c0.4140625,0.8344078,1.1152344,1.3368092,2.0273438,1.4525223
		c0.1357422,0.0170879,0.2763672,0.025877,0.4199219,0.025877c0.8779297,0,1.8945313-0.3212643,3.0292969-0.9574451
		c0.2402344-0.1352425,0.3261719-0.4399052,0.1914063-0.6806107c-0.1357422-0.2411919-0.4384766-0.3256569-0.6816406-0.191391
		c-1.1132813,0.624464-2.0878906,0.9081326-2.8339844,0.8114605c-0.5800781-0.0732365-0.9912109-0.3696003-1.2568359-0.9047146
		c-0.7532959-1.5194111-0.3057251-5.1347275,2.2189331-10.0001297c0.5812378,1.2765102,1.2637329,2.5657768,2.0418091,3.8321571
		c2.9462891,4.7964993,6.5839834,8.026226,9.265624,8.2273808C20.1362686,27.996582,20.2251358,28,20.314003,28
		c0.8974609,0,1.6640625-0.3495827,2.2285156-1.0194511c1.9052734-2.2595882,1.1689453-8.0057182-1.7900391-13.9730234
		c-0.1230469-0.2475395-0.4248047-0.3476295-0.6699219-0.2255688c-0.2480469,0.1225491-0.3486328,0.4223299-0.2265625,0.6698694
		c2.7441406,5.53228,3.5527344,10.9507999,1.9228516,12.884243c-0.4169922,0.4941006-0.9619141,0.706974-1.6591797,0.6566849
		c-2.3359375-0.1752777-5.7480459-3.2912445-8.4892569-7.7537842c-0.8912354-1.4507542-1.6539917-2.9552135-2.2818604-4.4385557
		c0.0664063-0.1177883,0.1271973-0.2325258,0.1959229-0.3515959c0.9121094-1.5792217,1.93396-3.0782499,2.9993286-4.4442921
		c0.0700684-0.0003662,0.1360474-0.0031128,0.2067261-0.0031128c7.5830069,0,14.9609365,2.3113422,16.1103516,5.0479431
		c0.5791016,1.377821-0.7988415,2.3928795-2.0566406,3.0012302c-0.2490234,0.1205959-0.3525391,0.4193993-0.2324219,0.6679153
		c0.0869141,0.1782093,0.2646484,0.2822056,0.4501953,0.2822056c0.0732422,0,0.1474609-0.0161133,0.2177734-0.0498009
		C29.5347061,17.8401527,30.4614639,16.2768002,29.782753,14.6616917z M8.8767481,13.6210022
		c-0.4251099-1.1293058-0.7626953-2.2304153-1.0087891-3.2747669c1.0205078-0.1549568,2.1489258-0.2634687,3.3855591-0.3123541
		C10.42167,11.1523237,9.6229639,12.3560257,8.8767481,13.6210022z"/>
	<circle fill="#303C42" cx="14.9995508" cy="15.0010204" r="1.9999214"/>
</g>
<g>
</g>
<g>
</g>
<g>
</g>
<g>
</g>
<g>
</g>
<g>
</g>
<g>
</g>
<g>
</g>
<g>
</g>
<g>
</g>
<g>
</g>
<g>
</g>
<g>
</g>
<g>
</g>
<g>
</g>
</svg>
