<?xml version="1.0" encoding="iso-8859-1"?>
<!-- Generator: Adobe Illustrator 21.0.0, SVG Export Plug-In . SVG Version: 6.00 Build 0)  -->
<svg version="1.1" id="Layer_1" xmlns="http://www.w3.org/2000/svg" xmlns:xlink="http://www.w3.org/1999/xlink" x="0px" y="0px"
	 viewBox="0 0 30 30" enable-background="new 0 0 30 30" xml:space="preserve">
<path fill="#303C42" d="M29.9325962,9.2490234C29.8432407,9.0947266,29.6782017,9,29.499979,9h-5.043457
	c-2.7695313,0-3.9125977,3.5800781-4.9550781,7.1962891C17.8696079,10.5732422,17.1806431,9,14.3696089,9H8.6957808
	c-3.5927739,0-6.2675781,3.5009766-8.6738281,11.3525391c-0.0463867,0.1513672-0.0180664,0.3164063,0.0761719,0.4433594
	c0.0942383,0.1279297,0.2431641,0.203125,0.4018555,0.203125h2.5219727c2.2446287,0,3.3349607-0.2578125,5.4765625-6.3349609
	l1.7519531-1.71875c1.9868164,6.8652344,2.9619141,8.0537109,4.7495117,8.0537109L20.6747837,21
	c1.6972656,0,3.2587891-0.7832031,9.2587891-11.2509766C30.02244,9.59375,30.0219517,9.4033203,29.9325962,9.2490234z"/>
<g>
</g>
<g>
</g>
<g>
</g>
<g>
</g>
<g>
</g>
<g>
</g>
<g>
</g>
<g>
</g>
<g>
</g>
<g>
</g>
<g>
</g>
<g>
</g>
<g>
</g>
<g>
</g>
<g>
</g>
</svg>
