<?xml version="1.0" encoding="iso-8859-1"?>
<!-- Generator: Adobe Illustrator 21.0.0, SVG Export Plug-In . SVG Version: 6.00 Build 0)  -->
<svg version="1.1" id="Layer_1" xmlns="http://www.w3.org/2000/svg" xmlns:xlink="http://www.w3.org/1999/xlink" x="0px" y="0px"
	 viewBox="0 0 24 24" enable-background="new 0 0 24 24" xml:space="preserve">
<g>
	<path fill="#303C42" d="M16.7207031,13.0517578c-0.0009766-0.0009766-1.2246094-0.6025391-1.9921875-0.9960938
		c-0.8642578-0.4453125-1.8867188,0.3896484-2.3681641,0.8652344c-0.4355469-0.1699219-1.2998047-0.5673828-2.0068359-1.2744141
		s-1.1044922-1.5712891-1.2744141-2.0068359c0.4755859-0.4814453,1.3105469-1.5009766,0.8652344-2.3681641
		C9.5507813,6.5039063,8.9492188,5.2802734,8.9482422,5.2792969C8.8642578,5.1083984,8.6904297,5,8.5,5h-1C6.375,5,5,6.3847656,5,8
		c0,1.5703125,1.8798828,4.5869141,3.1464844,5.8535156S12.4296875,17,14,17c1.6152344,0,3-1.375,3-2.5v-1
		C17,13.3095703,16.8916016,13.1357422,16.7207031,13.0517578z M16,14.5c0,0.5654297-0.9345703,1.5-2,1.5
		c-1.1591797,0-3.9267578-1.6337891-5.1464844-2.8535156S6,9.1591797,6,8c0-1.0654297,0.9345703-2,1.5-2h0.6894531
		c0.2021484,0.4091797,0.5859375,1.1835938,0.8662109,1.7285156C9.1767578,7.9658203,8.6787109,8.6738281,8.1689453,9.125
		c-0.1445313,0.1279297-0.203125,0.328125-0.1494141,0.5136719c0.0185547,0.0625,0.4560547,1.5439453,1.6269531,2.7148438
		s2.6523438,1.6083984,2.7148438,1.6269531c0.1835938,0.0507813,0.3847656-0.0048828,0.5136719-0.1494141
		c0.4511719-0.5107422,1.1591797-1.0009766,1.3964844-0.8867188C14.8164063,13.2246094,15.5908203,13.6083984,16,13.8105469V14.5z"
		/>
	<path fill="#303C42" d="M12,9c0.5517578,0,1,0.4482422,1,1c0,0.2763672,0.2236328,0.5,0.5,0.5S14,10.2763672,14,10
		c0-1.1025391-0.8974609-2-2-2c-0.2763672,0-0.5,0.2236328-0.5,0.5S11.7236328,9,12,9z"/>
	<path fill="#303C42" d="M12,4c-0.2763672,0-0.5,0.2236328-0.5,0.5S11.7236328,5,12,5c2.7568359,0,5,2.2431641,5,5
		c0,0.2763672,0.2236328,0.5,0.5,0.5S18,10.2763672,18,10C18,6.6914063,15.3085938,4,12,4z"/>
	<path fill="#303C42" d="M12,7c1.6542969,0,3,1.3457031,3,3c0,0.2763672,0.2236328,0.5,0.5,0.5S16,10.2763672,16,10
		c0-2.2060547-1.7939453-4-4-4c-0.2763672,0-0.5,0.2236328-0.5,0.5S11.7236328,7,12,7z"/>
	<path fill="#303C42" d="M12,1C6.6777344,1,1,1.734375,1,10.5c0,4.640625,1.6367188,7.4970703,5,8.7167969v2.2509766
		C6,22.3125,6.6874924,23,7.5322266,23c0.4404297,0,0.8603516-0.1904297,1.1523438-0.5234375l2.1835938-2.4941406
		C11.2421875,19.9931641,11.6191406,20,12,20c5.3222656,0,11-0.734375,11-9.5S17.3222656,1,12,1z M12,19
		c-0.4492188,0-0.8935547-0.0097656-1.3349609-0.0253906c-0.1503906-0.0058594-0.2949219,0.0585938-0.3935547,0.1708984
		l-2.3388672,2.671875C7.6376953,22.15625,7.0009766,21.9150391,7,21.4677734v-2.609375
		c0-0.2177734-0.140625-0.4101563-0.3486328-0.4765625C3.4785156,17.3710938,2,14.8662109,2,10.5C2,2.65625,6.9404297,2,12,2
		s10,0.65625,10,8.5S17.0595703,19,12,19z"/>
</g>
<g>
</g>
<g>
</g>
<g>
</g>
<g>
</g>
<g>
</g>
<g>
</g>
<g>
</g>
<g>
</g>
<g>
</g>
<g>
</g>
<g>
</g>
<g>
</g>
<g>
</g>
<g>
</g>
<g>
</g>
</svg>
