<?xml version="1.0" encoding="iso-8859-1"?>
<!-- Generator: Adobe Illustrator 21.0.0, SVG Export Plug-In . SVG Version: 6.00 Build 0)  -->
<svg version="1.1" id="Layer_1" xmlns="http://www.w3.org/2000/svg" xmlns:xlink="http://www.w3.org/1999/xlink" x="0px" y="0px"
	 viewBox="0 0 24 24" enable-background="new 0 0 24 24" xml:space="preserve">
<path fill="#303C42" d="M18.8476563,1H5.1523438C2.862793,1,1,2.862793,1,5.1523438V12c0,6.0654297,4.9345703,11,11,11
	s11-4.9345703,11-11V5.1523438C23,2.862793,21.137207,1,18.8476563,1z M19.4140625,10.4140625L14.25,15.578125
	c-0.6015625,0.6015625-1.4003906,0.9326172-2.25,0.9326172s-1.6484375-0.3310547-2.25-0.9326172l-5.1640625-5.1640625
	C4.2080078,10.0366211,4,9.5341797,4,9s0.2080078-1.0366211,0.5859375-1.4140625
	c0.7558594-0.7558594,2.0722656-0.7558594,2.828125,0L12,12.171875l4.5859375-4.5859375
	c0.7558594-0.7558594,2.0722656-0.7558594,2.828125,0C19.7919922,7.9633789,20,8.4658203,20,9
	S19.7919922,10.0366211,19.4140625,10.4140625z"/>
<g>
</g>
<g>
</g>
<g>
</g>
<g>
</g>
<g>
</g>
<g>
</g>
<g>
</g>
<g>
</g>
<g>
</g>
<g>
</g>
<g>
</g>
<g>
</g>
<g>
</g>
<g>
</g>
<g>
</g>
</svg>
