<?xml version="1.0" encoding="iso-8859-1"?>
<!-- Generator: Adobe Illustrator 21.0.0, SVG Export Plug-In . SVG Version: 6.00 Build 0)  -->
<svg version="1.1" id="Layer_1" xmlns="http://www.w3.org/2000/svg" xmlns:xlink="http://www.w3.org/1999/xlink" x="0px" y="0px"
	 viewBox="0 0 30 30" enable-background="new 0 0 30 30" xml:space="preserve">
<g>
	<circle fill="#303C42" cx="19" cy="12.0000839" r="3"/>
	<path fill="#303C42" d="M15.5666151,0.0098494C11.4979839-0.1346819,7.6320028,1.3018415,4.68747,4.0703964
		c-2.9230471,2.7480469-4.5877094,6.4707031-4.6873255,10.4824219c-0.0048831,0.2041016,0.1142655,0.390625,0.3008014,0.4716797
		c0.0781302,0.0332031,0.1616319,0.0634766,0.2451336,0.0927734c0.0585977,0.0205078,0.1171953,0.0400391,0.1674917,0.0615234
		l5.2776971,2.3291016c0.184094,0.0839844,0.4038353,0.0439453,0.5503297-0.0986328
		c1.115797-1.0839844,2.5953879-1.6269531,4.2204967-1.3388672c0.1865368,0.0302734,0.3720961-0.0400391,0.4858723-0.1884766
		l1.774045-2.3212891c0.0869198-0.1142578,0.1211014-0.2607422,0.0927792-0.4013672
		c-0.0771532-0.3876953-0.1162186-0.7773438-0.1162186-1.1591797c0-1.8173828,0.8106012-3.5166016,2.2242699-4.6621094
		c1.4146452-1.1464844,3.2677965-1.5830078,5.0813951-1.2001953c2.2496624,0.4765625,4.0813274,2.3076172,4.5569458,4.5566406
		c0.3843021,1.8154297-0.0527382,3.6669922-1.1983223,5.0820313c-1.1460743,1.4130859-2.8458939,2.2236328-4.6760941,2.2236328
		c-0.1162186,0-0.2285309,0.0400391-0.317894,0.1142578l-3.5012102,2.8837891
		c-0.1059637,0.0869141-0.1713982,0.2138672-0.1811638,0.3515625c-0.1801882,2.6074219-2.371253,4.6503906-4.9881268,4.6503906
		c-2.2213402,0-4.1955934-1.4921875-4.8011026-3.6298828c-0.0395532-0.1396484-0.1381927-0.2558594-0.2705259-0.3164063
		L2.128705,20.7539902c-0.1899542-0.0878906-0.4170202-0.0488281-0.5654676,0.1005859
		c-0.1484474,0.1503906-0.1870242,0.3769531-0.0966861,0.5673828c2.4747748,5.2109375,7.786654,8.578125,13.532156,8.578125
		c4.143343,0,8.0000458-1.6523438,10.8596134-4.6523438c2.8581009-2.9970703,4.3225536-6.9335938,4.1238098-11.0830078
		C29.6134529,6.5567245,23.2809982,0.2959822,15.5666151,0.0098494z"/>
	<path fill="#303C42" d="M10,23.0000839c-0.4365234,0-0.8515625-0.1386719-1.2006836-0.4003906
		c-0.2202148-0.1650391-0.5336914-0.1191406-0.699707,0.1005859c-0.1660156,0.2207031-0.1210938,0.5341797,0.1000977,0.7001953
		C8.7226563,23.7930527,9.3457031,24.0000839,10,24.0000839c1.6542969,0,3-1.3457031,3-3s-1.3457031-3-3-3
		c-0.2763672,0-0.5,0.2236328-0.5,0.5s0.2236328,0.5,0.5,0.5c1.1030273,0,2,0.8974609,2,2S11.1030273,23.0000839,10,23.0000839z"/>
</g>
<g>
</g>
<g>
</g>
<g>
</g>
<g>
</g>
<g>
</g>
<g>
</g>
<g>
</g>
<g>
</g>
<g>
</g>
<g>
</g>
<g>
</g>
<g>
</g>
<g>
</g>
<g>
</g>
<g>
</g>
</svg>
