<?xml version="1.0" encoding="iso-8859-1"?>
<!-- Generator: Adobe Illustrator 21.0.0, SVG Export Plug-In . SVG Version: 6.00 Build 0)  -->
<svg version="1.1" id="Layer_1" xmlns="http://www.w3.org/2000/svg" xmlns:xlink="http://www.w3.org/1999/xlink" x="0px" y="0px"
	 viewBox="0 0 24 24" enable-background="new 0 0 24 24" xml:space="preserve">
<path fill="#303C42" d="M23.5,2.9999208h-4.0009766c-0.2763672,0-0.5,0.2236328-0.5,0.5v1c0,0.2763672,0.2236328,0.5,0.5,0.5
	h0.9663086l-4.9238281,10.2578125l-1.7827148-4.4570313l2.8125-5.8007813H17.5c0.2763672,0,0.5-0.2236328,0.5-0.5v-1
	c0-0.2763672-0.2236328-0.5-0.5-0.5h-4c-0.2763672,0-0.5,0.2236328-0.5,0.5v1c0,0.2763672,0.2236328,0.5,0.5,0.5h0.465332
	l-1.378418,2.8710938l-1.1484375-2.8710938H12c0.2763672,0,0.5-0.2236328,0.5-0.5v-1c0-0.2763672-0.2236328-0.5-0.5-0.5H7
	c-0.2763672,0-0.5,0.2236328-0.5,0.5v1c0,0.2763672,0.2236328,0.5,0.5,0.5h1.3564453l2.5283203,6.4179688l-1.8432617,3.8398438
	L4.9384766,4.9999208H5.5c0.2763672,0,0.5-0.2236328,0.5-0.5v-1c0-0.2763672-0.2236328-0.5-0.5-0.5h-5
	c-0.2763672,0-0.5,0.2236328-0.5,0.5v1c0,0.2763672,0.2236328,0.5,0.5,0.5h1.3564453L8.034668,20.6835155
	c0.0727539,0.1845703,0.2480469,0.3085938,0.4462891,0.3164063c0.2016602,0.0048828,0.3823242-0.1035156,0.46875-0.2822266
	l3.0888672-6.3701181l2.4960938,6.3359385c0.0727539,0.1845703,0.2480469,0.3085938,0.4462891,0.3164063
	c0.0063477,0,0.0126953,0,0.019043,0c0.190918,0,0.3662109-0.109375,0.449707-0.2822266l7.621582-15.7177744H23.5
	c0.2763672,0,0.5-0.2236328,0.5-0.5v-1C24,3.2235537,23.7763672,2.9999208,23.5,2.9999208z M22.3081055,4.2821474
	l-7.2607422,14.9736338l-2.4960938-6.3359385c-0.0727539-0.1845703-0.2480469-0.3085938-0.4462891-0.3164063
	c-0.0063477,0-0.0126953,0-0.019043,0c-0.190918,0-0.3662109,0.109375-0.449707,0.2822266l-3.0888672,6.3701181L2.6621094,4.3163271
	c-0.0751953-0.1904297-0.2597656-0.3164063-0.465332-0.3164063h2.003418c-0.1660156,0-0.3208008,0.0820313-0.4140625,0.2197266
	c-0.0927734,0.1376953-0.1118164,0.3115234-0.050293,0.4658203l4.7998047,12.000001
	c0.0737305,0.1845703,0.2495117,0.3076172,0.4477539,0.3144531c0.1914063-0.0126953,0.3813477-0.1054688,0.4672852-0.2832031
	l2.4296875-5.062501c0.0600586-0.1259766,0.0654297-0.2705078,0.0146484-0.4003906l-2.7329102-6.9375
	c-0.0751953-0.1904297-0.2597656-0.3164063-0.465332-0.3164063h2.003418c-0.1660156,0-0.3208008,0.0820313-0.4140625,0.2197266
	c-0.0927734,0.1376953-0.1118164,0.3115234-0.050293,0.4658203l1.8452148,4.6132813
	c0.0737305,0.1845703,0.2495117,0.3076172,0.4477539,0.3144531c0.1967773-0.0146484,0.3813477-0.1054688,0.4672852-0.2832031
	l2.2143555-4.6132813c0.0742188-0.1552734,0.0639648-0.3378906-0.0273438-0.4833984
	c-0.0917969-0.1455078-0.2514648-0.2333984-0.4233398-0.2333984h1.4980469c-0.1914063,0-0.3662109,0.109375-0.449707,0.2822266
	l-3.0454102,6.28125c-0.0615234,0.1259766-0.0668945,0.2724609-0.0146484,0.4033203l2.2875977,5.718751
	c0.0737305,0.1845703,0.2495117,0.3076172,0.4477539,0.3144531c0.1831055-0.0126953,0.3813477-0.1054688,0.4672852-0.2832031
	l5.7597656-12.000001c0.0742188-0.1552734,0.0639648-0.3378906-0.0273438-0.4833984
	c-0.0917969-0.1455078-0.2514648-0.2333984-0.4233398-0.2333984h1.4980469
	C22.5664063,3.9999208,22.3916016,4.1092958,22.3081055,4.2821474z"/>
<g>
</g>
<g>
</g>
<g>
</g>
<g>
</g>
<g>
</g>
<g>
</g>
<g>
</g>
<g>
</g>
<g>
</g>
<g>
</g>
<g>
</g>
<g>
</g>
<g>
</g>
<g>
</g>
<g>
</g>
</svg>
