<?xml version="1.0" encoding="iso-8859-1"?>
<!-- Generator: Adobe Illustrator 21.0.0, SVG Export Plug-In . SVG Version: 6.00 Build 0)  -->
<svg version="1.1" id="Layer_1" xmlns="http://www.w3.org/2000/svg" xmlns:xlink="http://www.w3.org/1999/xlink" x="0px" y="0px"
	 viewBox="0 0 30 30" enable-background="new 0 0 30 30" xml:space="preserve">
<g>
	<g id="XMLID_1548_">
		<path id="XMLID_1555_" fill="none" stroke="#303C42" stroke-linecap="round" stroke-linejoin="round" stroke-miterlimit="10" d="
			M15.0000124,27.5h-0.0000248C8.0964346,27.5,2.5,21.9035645,2.5,15.0000124V6.7430439C2.5,4.3996754,4.3996754,2.5,6.7430439,2.5
			h16.5139122C25.6003246,2.5,27.5,4.3996754,27.5,6.7430439v8.2569685C27.5,21.9035645,21.9035645,27.5,15.0000124,27.5z"/>
	</g>
	<path fill="none" stroke="#303C42" stroke-linecap="round" stroke-linejoin="round" stroke-miterlimit="10" d="M15,20
		c-0.5117188,0-1.0239258-0.1953125-1.4140625-0.5859375l-7.5-7.5c-0.78125-0.7807617-0.78125-2.0473633,0-2.828125
		c0.7802734-0.78125,2.0478516-0.78125,2.828125,0L15,15.1713867l6.0859375-6.0854492
		c0.7802734-0.78125,2.0478516-0.78125,2.828125,0c0.78125,0.7807617,0.78125,2.0473633,0,2.828125l-7.5,7.5
		C16.0239258,19.8046875,15.5117188,20,15,20z"/>
</g>
<g>
</g>
<g>
</g>
<g>
</g>
<g>
</g>
<g>
</g>
<g>
</g>
<g>
</g>
<g>
</g>
<g>
</g>
<g>
</g>
<g>
</g>
<g>
</g>
<g>
</g>
<g>
</g>
<g>
</g>
</svg>
