<?xml version="1.0" encoding="iso-8859-1"?>
<!-- Generator: Adobe Illustrator 21.0.0, SVG Export Plug-In . SVG Version: 6.00 Build 0)  -->
<svg version="1.1" id="Layer_1" xmlns="http://www.w3.org/2000/svg" xmlns:xlink="http://www.w3.org/1999/xlink" x="0px" y="0px"
	 viewBox="0 0 24 24" enable-background="new 0 0 24 24" xml:space="preserve">
<path fill="#303C42" d="M12,0C5.3833008,0,0,5.3833008,0,12s5.3833008,12,12,12s12-5.3833008,12-12S18.6166992,0,12,0z M14,12
	c0,3.3085938-2.6914063,6-6,6s-6-2.6914063-6-6s2.6914063-6,6-6c1.6020508,0,3.1088867,0.6240234,4.2426758,1.7568359
	c0.09375,0.09375,0.1464844,0.2207031,0.1464844,0.3535156c0,0.1323242-0.0527344,0.2597656-0.1464844,0.3535156
	l-1.4140625,1.4150391c-0.1870117,0.1875-0.5195313,0.1875-0.7070313,0C9.5546875,9.3120117,8.8012695,9,8,9
	c-1.6542969,0-3,1.3457031-3,3s1.3457031,3,3,3c1.0786133,0,2.0673828-0.5917969,2.5966797-1.5H8
	c-0.2763672,0-0.5-0.2236328-0.5-0.5v-2c0-0.2763672,0.2236328-0.5,0.5-0.5h5.5c0.2763672,0,0.5,0.2236328,0.5,0.5V12z M21.5,13.5
	H20V15c0,0.2763672-0.2236328,0.5-0.5,0.5h-2c-0.2763672,0-0.5-0.2236328-0.5-0.5v-1.5h-1.5c-0.2763672,0-0.5-0.2236328-0.5-0.5v-2
	c0-0.2763672,0.2236328-0.5,0.5-0.5H17V9c0-0.2763672,0.2236328-0.5,0.5-0.5h2C19.7763672,8.5,20,8.7236328,20,9v1.5h1.5
	c0.2763672,0,0.5,0.2236328,0.5,0.5v2C22,13.2763672,21.7763672,13.5,21.5,13.5z"/>
<g>
</g>
<g>
</g>
<g>
</g>
<g>
</g>
<g>
</g>
<g>
</g>
<g>
</g>
<g>
</g>
<g>
</g>
<g>
</g>
<g>
</g>
<g>
</g>
<g>
</g>
<g>
</g>
<g>
</g>
</svg>
