<?xml version="1.0" encoding="iso-8859-1"?>
<!-- Generator: Adobe Illustrator 21.0.0, SVG Export Plug-In . SVG Version: 6.00 Build 0)  -->
<svg version="1.1" id="Layer_1" xmlns="http://www.w3.org/2000/svg" xmlns:xlink="http://www.w3.org/1999/xlink" x="0px" y="0px"
	 viewBox="0 0 30 30" enable-background="new 0 0 30 30" xml:space="preserve">
<g>
	<g id="XMLID_2790_">
		<path fill="#303C42" d="M0.5,22C0.2236328,22,0,21.7763672,0,21.5v-5C0,16.2236328,0.2236328,16,0.5,16S1,16.2236328,1,16.5v5
			C1,21.7763672,0.7763672,22,0.5,22z"/>
	</g>
	<g id="XMLID_2789_">
		<path fill="#303C42" d="M4,23c-0.2763672,0-0.5-0.2236328-0.5-0.5v-10C3.5,12.2236328,3.7236328,12,4,12s0.5,0.2236328,0.5,0.5v10
			C4.5,22.7763672,4.2763672,23,4,23z"/>
	</g>
	<g id="XMLID_2788_">
		<path fill="#303C42" d="M7.5,23C7.2236328,23,7,22.7763672,7,22.5v-9C7,13.2236328,7.2236328,13,7.5,13S8,13.2236328,8,13.5v9
			C8,22.7763672,7.7763672,23,7.5,23z"/>
	</g>
	<g id="XMLID_2787_">
		<path fill="#303C42" d="M11,23c-0.2763672,0-0.5-0.2236328-0.5-0.5v-14C10.5,8.2236328,10.7236328,8,11,8s0.5,0.2236328,0.5,0.5
			v14C11.5,22.7763672,11.2763672,23,11,23z"/>
	</g>
	<g>
		<path fill="#303C42" d="M25.5,23H15c-0.2763672,0-0.5-0.2236328-0.5-0.5S14.7236328,22,15,22h10.5
			c1.9296875,0,3.5-1.5703125,3.5-3.5S27.4296875,15,25.5,15c-1.03125,0-2.0097656,0.4667969-2.6835938,1.28125
			c-0.1416016,0.1713867-0.3828125,0.2280273-0.5830078,0.1401367c-0.2041016-0.0883789-0.3261719-0.3012695-0.2978516-0.5219727
			C21.9726563,15.6040039,22,15.3056641,22,15c0-3.8598633-3.140625-7-7-7c-0.2763672,0-0.5-0.2236328-0.5-0.5S14.7236328,7,15,7
			c4.3359375,0,7.8779297,3.4677734,7.9970703,7.7758789C23.7314453,14.2744141,24.5996094,14,25.5,14
			c2.4814453,0,4.5,2.0185547,4.5,4.5S27.9814453,23,25.5,23z"/>
	</g>
</g>
<g>
</g>
<g>
</g>
<g>
</g>
<g>
</g>
<g>
</g>
<g>
</g>
<g>
</g>
<g>
</g>
<g>
</g>
<g>
</g>
<g>
</g>
<g>
</g>
<g>
</g>
<g>
</g>
<g>
</g>
</svg>
