<?xml version="1.0" encoding="iso-8859-1"?>
<!-- Generator: Adobe Illustrator 21.0.0, SVG Export Plug-In . SVG Version: 6.00 Build 0)  -->
<svg version="1.1" id="Layer_1" xmlns="http://www.w3.org/2000/svg" xmlns:xlink="http://www.w3.org/1999/xlink" x="0px" y="0px"
	 viewBox="0 0 24 24" enable-background="new 0 0 24 24" xml:space="preserve">
<path fill="#303C42" d="M23.5615234,10.9320316c-0.0009766,0-0.0009766-0.0004883-0.0009766-0.0004883L13.0615234,0.4256727
	c-0.5664063-0.5677264-1.5576172-0.5672379-2.1220703-0.0004886L0.4384766,10.9320316C0.15625,11.2158947,0,11.5925875,0,11.992732
	c0,0.4006338,0.15625,0.7778149,0.4394531,1.0611897l10.4990234,10.5058699C11.2216797,23.8436546,11.5986328,24,12,24
	s0.7783203-0.1563454,1.0605469-0.4397202l10.5-10.5063581C23.84375,12.7705469,24,12.3933659,24,11.992732
	C24,11.5925875,23.84375,11.2158947,23.5615234,10.9320316z M22.8535156,12.3535156L12.3525391,22.8540039
	c-0.1875,0.1884766-0.5166016,0.1889648-0.7060547-0.0004883l-10.5-10.5C1.0517578,12.2587891,1,12.1333008,1,12
	s0.0517578-0.2587891,0.1464844-0.3535156L8.543335,4.25l1.7399292,1.7406616C10.1077271,6.2880859,10,6.6303101,10,7
	c0,0.9293213,0.6400146,1.7053833,1.5,1.9289551v6.1420898C10.6400146,15.2946167,10,16.0706787,10,17c0,1.1030273,0.8974609,2,2,2
	s2-0.8969727,2-2c0-0.9293213-0.6400146-1.7053833-1.5-1.9289551V8.9289551
	c0.1767578-0.0459595,0.3425293-0.1158447,0.4968872-0.2055054l2.2796631,2.2796631C15.1053467,11.2977905,15,11.6353149,15,12
	c0,1.1030273,0.8974609,2,2,2s2-0.8969727,2-2s-0.8974609-2-2-2c-0.3748779,0-0.7219849,0.1100464-1.0222168,0.2902832
	l-2.2680664-2.2680664C13.8898926,7.7220459,14,7.374939,14,7c0-1.1030273-0.8974609-2-2-2
	c-0.369812,0-0.7122192,0.1077881-1.0097656,0.2835693L9.2503662,3.5429688l2.3970947-2.3969727
	C11.7412109,1.0517578,11.8662109,1,12,1s0.2587891,0.0517578,0.3535156,0.1464844l10.4990234,10.4995117
	C22.9482422,11.7412109,23,11.8666992,23,12S22.9482422,12.2587891,22.8535156,12.3535156z M12,8c-0.5517578,0-1-0.4487305-1-1
	s0.4482422-1,1-1s1,0.4487305,1,1S12.5517578,8,12,8z M12,16c0.5517578,0,1,0.4487305,1,1s-0.4482422,1-1,1s-1-0.4487305-1-1
	S11.4482422,16,12,16z M17,11c0.5517578,0,1,0.4487305,1,1s-0.4482422,1-1,1s-1-0.4487305-1-1S16.4482422,11,17,11z"/>
<g>
</g>
<g>
</g>
<g>
</g>
<g>
</g>
<g>
</g>
<g>
</g>
<g>
</g>
<g>
</g>
<g>
</g>
<g>
</g>
<g>
</g>
<g>
</g>
<g>
</g>
<g>
</g>
<g>
</g>
</svg>
