<?xml version="1.0" encoding="iso-8859-1"?>
<!-- Generator: Adobe Illustrator 21.0.0, SVG Export Plug-In . SVG Version: 6.00 Build 0)  -->
<svg version="1.1" id="Layer_1" xmlns="http://www.w3.org/2000/svg" xmlns:xlink="http://www.w3.org/1999/xlink" x="0px" y="0px"
	 viewBox="0 0 24 24" enable-background="new 0 0 24 24" xml:space="preserve">
<path fill="#303C42" d="M12,0C5.3828125,0,0,5.1586914,0,11.5c0,3.2397461,1.4296875,6.3203125,3.9335938,8.5029297
	l-0.9160156,3.3657227c-0.0507813,0.1879883,0.0117188,0.3886719,0.1601563,0.5141602C3.2705078,23.9599609,3.3847656,24,3.5,24
	c0.0722656,0,0.1445313-0.015625,0.2119141-0.0473633l3.8046875-1.7832031C8.9433594,22.7207031,10.4511719,23,12,23
	c6.6171875,0,12-5.1586914,12-11.5S18.6171875,0,12,0z M19.8535156,8.8535156l-6,6
	c-0.1855469,0.1850586-0.4804688,0.1967773-0.6787109,0.0258789l-3.2382813-2.7753906l-5.1972656,2.8349609
	C4.6640625,14.9799805,4.5820313,15,4.5,15c-0.1533203,0-0.3027344-0.0703125-0.4003906-0.2006836
	c-0.1484375-0.1987305-0.1289063-0.4770508,0.046875-0.652832l6-6c0.1855469-0.1835938,0.4814453-0.1953125,0.6787109-0.0258789
	l3.2382813,2.7753906l5.1972656-2.8349609C19.4755859,7.9423828,19.75,8.0004883,19.9003906,8.2006836
	C20.0488281,8.3994141,20.0292969,8.6777344,19.8535156,8.8535156z"/>
<g>
</g>
<g>
</g>
<g>
</g>
<g>
</g>
<g>
</g>
<g>
</g>
<g>
</g>
<g>
</g>
<g>
</g>
<g>
</g>
<g>
</g>
<g>
</g>
<g>
</g>
<g>
</g>
<g>
</g>
</svg>
