<?xml version="1.0" encoding="iso-8859-1"?>
<!-- Generator: Adobe Illustrator 21.0.0, SVG Export Plug-In . SVG Version: 6.00 Build 0)  -->
<svg version="1.1" id="Layer_1" xmlns="http://www.w3.org/2000/svg" xmlns:xlink="http://www.w3.org/1999/xlink" x="0px" y="0px"
	 viewBox="0 0 24 24" enable-background="new 0 0 24 24" xml:space="preserve">
<path fill="#303C42" d="M19.4999771,1c-3.5839844,0-6.5,2.9160156-6.5,6.5c0,0.2763672,0.2236328,0.5,0.5,0.5h1.5
	c0.9047852,0,0.9663086,0.4267578,0.9956055,0.6318359C16.232399,10.2802734,13.6103287,13.8129883,12.9999771,14
	c-0.6914063,0-1.2866211-3.4228516-1.6416016-5.4677734C10.6850357,4.6586914,10.0488052,1,7.9999771,1
	C6.610817,1,3.7045667,2.890625,0.0864028,8.2192383C0.0053481,8.3383789-0.0200426,8.4868164,0.0160902,8.6264648
	C0.0527113,8.765625,0.1474379,8.8828125,0.2763442,8.9472656l1.9999999,1
	c0.1918945,0.0961914,0.4233398,0.0585938,0.5771484-0.09375L4.135231,8.5717773C4.6440201,12.1860352,6.5400162,23,10.9999771,23
	c5.1000977,0,13-10.9619141,13-16.5C23.9999771,3.4672852,21.9814224,1,19.4999771,1z"/>
<g>
</g>
<g>
</g>
<g>
</g>
<g>
</g>
<g>
</g>
<g>
</g>
<g>
</g>
<g>
</g>
<g>
</g>
<g>
</g>
<g>
</g>
<g>
</g>
<g>
</g>
<g>
</g>
<g>
</g>
</svg>
