<?xml version="1.0" encoding="iso-8859-1"?>
<!-- Generator: Adobe Illustrator 21.0.0, SVG Export Plug-In . SVG Version: 6.00 Build 0)  -->
<svg version="1.1" id="Layer_1" xmlns="http://www.w3.org/2000/svg" xmlns:xlink="http://www.w3.org/1999/xlink" x="0px" y="0px"
	 viewBox="0 0 24 24" enable-background="new 0 0 24 24" xml:space="preserve">
<g>
	<path fill="#303C42" d="M9.1972456,15.460268c0.4873419-0.2090006,1.3033209-0.5586367,1.3033209-1.4600754
		c0-0.9014378-0.815979-1.2510738-1.3033209-1.4600744c-0.1826305-0.0781317-0.4297199-0.1777487-0.7207575-0.2949457
		c-0.7588463-0.3066645-1.7979875-0.7266188-2.7570443-1.1944294c-0.9629636-0.4697628-1.6011953-0.2978745-1.9669454-0.0703182
		C3.2812712,11.274394,3,11.8427973,3,12.5000753v3.0002356c0,0.6572781,0.2812712,1.2256813,0.7524984,1.5196495
		c0.195327,0.1220798,0.4692738,0.2285347,0.8291643,0.2285347c0.3125234,0,0.6899934-0.0800858,1.1377811-0.2988529
		c0.9590569-0.4678097,1.998198-0.887764,2.7570443-1.1944284C8.7675257,15.6380167,9.0146151,15.5383997,9.1972456,15.460268z
		 M5.2809339,16.0511341c-0.4311848,0.2099781-0.7861919,0.2519741-0.9986105,0.1211033
		c-0.1767712-0.1103592-0.282248-0.3613558-0.282248-0.6719265v-3.0002356c0-0.3105707,0.1054769-0.5615673,0.282248-0.6719275
		c0.0810609-0.0498085,0.182631-0.075201,0.3012924-0.075201c0.1928859,0,0.4302082,0.066411,0.6973181,0.1963043
		c0.9903092,0.4834366,2.0484948,0.9112043,2.8215022,1.2227516c0.2827368,0.1142673,0.5234776,0.2119312,0.7012253,0.2881088
		c0.6968298,0.2978754,0.6968298,0.4209318,0.6968298,0.540081c0,0.1191502,0,0.2422066-0.6968298,0.540082
		c-0.1777477,0.0761776-0.4184885,0.1738415-0.7012253,0.2881088C7.3294287,15.1399307,6.2712431,15.5676985,5.2809339,16.0511341z"
		/>
	<path fill="#303C42" d="M12.6823721,18.7691212c-0.0219736-0.3154545-0.0405302-0.5830536-0.0585976-0.781311
		c-0.0478554-0.5283623-0.1279402-1.41222-0.9854259-1.6915379c0,0-0.0004892,0-0.0009775,0
		c-0.8560209-0.2783432-1.4405384,0.389679-1.7896852,0.7891235c-0.1313581,0.1494255-0.3027573,0.3535423-0.5044327,0.5937958
		c-0.5254307,0.6270027-1.2456999,1.4864445-1.9874554,2.2531071c-0.74615,0.7715454-0.7788672,1.4307766-0.675344,1.8487778
		c0.136241,0.546917,0.5781689,0.9785919,1.2129827,1.1856403l2.8532429,0.9268303
		C10.9659338,23.9648418,11.1856775,24,11.3966303,24c0.3906546,0,0.7520103-0.1201267,1.0283985-0.3525658
		c0.3296146-0.2763901,0.6909704-0.8291683,0.5410566-1.8927269C12.8171482,20.7009125,12.7395058,19.5836391,12.6823721,18.7691212
		z M11.782402,22.8817482c-0.1596804,0.1347771-0.4302082,0.1562614-0.7266178,0.0605526l-2.8527546-0.9268322
		c-0.2954321-0.0957088-0.5015025-0.274435-0.5517993-0.4765987c-0.0605512-0.2422066,0.0898504-0.5664501,0.4233718-0.9112053
		c0.7661715-0.7930298,1.4996252-1.6671219,2.0353098-2.3058434c0.195816-0.2334175,0.3628206-0.4326515,0.4897833-0.5781708
		c0.3764935-0.4297218,0.5356855-0.5137119,0.6396971-0.5137119c0.0336943,0,0.0620165,0.0087891,0.0898504,0.01758
		c0.1132898,0.0371113,0.2299976,0.0761776,0.2983627,0.8311195c0.0175791,0.1933746,0.0361357,0.4531593,0.0571327,0.7598248
		c0.0581102,0.830143,0.1372175,1.9669514,0.2910376,3.056881C12.042676,22.3699894,11.9743109,22.720602,11.782402,22.8817482z"/>
	<path fill="#303C42" d="M19.2624588,16.0120697c-1.0508595-0.1845846-2.1383438-0.4560909-2.9323502-0.6543484
		c-0.3042221-0.0761776-0.5630302-0.1406364-0.7568932-0.1845846c-0.5166407-0.1181736-1.3824282-0.3135014-1.9122534,0.4140949
		h-0.0004883c-0.5288486,0.7295485-0.0747128,1.4923048,0.1967916,1.9474173
		c0.1015701,0.1709118,0.2426949,0.3965168,0.4092112,0.6631393c0.4336262,0.6934128,1.0279093,1.6436825,1.528924,2.5861397
		c0.5034561,0.9483166,1.1202011,1.1827087,1.5494328,1.212986c0.0327187,0.0019531,0.0654354,0.0039063,0.0981522,0.0039063
		c0.5215244,0,1.0406055-0.2910385,1.4039154-0.7910786l1.7638054-2.4269466
		c0.3867474-0.5322685,0.492712-1.1573181,0.2846889-1.6720066C20.7337627,16.7123203,20.3196678,16.1976318,19.2624588,16.0120697z
		 M19.8020515,18.1948586l-1.7638054,2.4269466c-0.181654,0.2509975-0.4140949,0.3779602-0.6230946,0.3779602
		c-0.2500191-0.01758-0.5117569-0.2607632-0.7368717-0.6846237c-0.5171299-0.9737091-1.1221552-1.9415588-1.5640831-2.6476688
		c-0.1616335-0.25881-0.2993393-0.4785538-0.3979797-0.6445827c-0.3882122-0.6523933-0.3159418-0.7520103-0.2461119-0.8477211
		c0.0703182-0.0957108,0.1440535-0.1933756,0.8814144-0.0273476c0.1884909,0.0429726,0.4404631,0.1064548,0.7363844,0.1797028
		c0.8086548,0.2021637,1.9156704,0.4785519,3.0016899,0.6689968c0.4726925,0.0830154,0.784729,0.2568569,0.8784847,0.489296
		C20.0462093,17.6791916,19.9841938,17.943861,19.8020515,18.1948586z"/>
	<path fill="#303C42" d="M13.6609621,13.4132328c0.302269,0.4150715,0.7134323,0.5303154,1.1070175,0.5303154
		c0.2964087,0,0.5830517-0.0654354,0.8052359-0.1162205c0.1938629-0.0439482,0.4526711-0.108407,0.7568932-0.1845846
		c0.7940063-0.1982574,1.8814907-0.4697628,2.9323502-0.6543484c1.057209-0.1855612,1.4713039-0.7002497,1.6329365-1.0987186
		c0.2080231-0.5146885,0.1020584-1.1397381-0.2846889-1.6720057l-1.7638054-2.4269481
		c-0.3857708-0.531292-0.9468498-0.8174472-1.5020676-0.7871714c-0.4292316,0.0302758-1.0459766,0.2646694-1.5494328,1.2129855
		c-0.5010147,0.9424572-1.0952978,1.8927269-1.528924,2.5861406c-0.1665163,0.2666225-0.307641,0.4922256-0.4096994,0.6631374
		c-0.2710161,0.4551144-0.725152,1.2178688-0.1963034,1.9474182H13.6609621z M14.7157288,11.9775734
		c0.0991287-0.166028,0.2368345-0.3857718,0.398468-0.6445818c0.4419279-0.70611,1.0469532-1.6739588,1.5640831-2.6476679
		c0.2251148-0.4238615,0.4868526-0.6670446,0.7368717-0.6846237c0.2060699-0.000977,0.440464,0.1269627,0.6230946,0.3779593
		l1.7638054,2.4269476c0.1821423,0.2509966,0.2441578,0.5156651,0.1660271,0.7090397
		c-0.0937557,0.23244-0.4057922,0.4062824-0.8784847,0.489296c-1.0860195,0.1904449-2.1930351,0.4668341-3.0016899,0.6689978
		c-0.2959213,0.0732479-0.5478935,0.1367302-0.7363844,0.1797018c-0.737361,0.166029-0.8110962,0.0693417-0.8814144-0.0273457
		C14.4002752,12.7295856,14.3280048,12.6299686,14.7157288,11.9775734z"/>
	<path fill="#303C42" d="M9.7285357,11.2958794c0.2763882,0.440464,0.7520103,0.7041569,1.272069,0.7041569
		c0.1567497,0,0.3100824-0.024416,0.4531593-0.0703182c0.6533699-0.2070475,1.0826015-0.8291664,1.0445127-1.5128136
		l-0.5000381-9.0016813c-0.0249043-0.4414409-0.2407408-0.8467461-0.5918417-1.1114153
		c-0.3457289-0.2617393-0.7969351-0.3633097-1.2310495-0.2695524L5.673542,1.0343335
		c-0.4741569,0.1074303-0.8692064,0.4375343-1.057209,0.884835c-0.1875143,0.449254-0.1460071,0.962966,0.111825,1.3751078
		L9.7285357,11.2958794z M5.5387659,2.3059175c0.062993-0.1494257,0.1953273-0.2597859,0.353054-0.294945l4.4983873-1.0000783
		c0.036624-0.0078131,0.0737352-0.0117197,0.1103592-0.0117197c0.108407,0,0.2153482,0.0361357,0.3027573,0.1015705
		c0.1167088,0.0888741,0.1884909,0.2236503,0.1967926,0.3701462l0.5000381,9.0007057
		c0.0126963,0.2285328-0.1303816,0.4355803-0.3511009,0.5058985c-0.2002106,0.0634813-0.4526711-0.0214863-0.5727978-0.2119303
		L5.5763664,2.7649379C5.4904227,2.6272318,5.4762611,2.4553432,5.5387659,2.3059175z"/>
</g>
<g>
</g>
<g>
</g>
<g>
</g>
<g>
</g>
<g>
</g>
<g>
</g>
<g>
</g>
<g>
</g>
<g>
</g>
<g>
</g>
<g>
</g>
<g>
</g>
<g>
</g>
<g>
</g>
<g>
</g>
</svg>
