<?xml version="1.0" encoding="iso-8859-1"?>
<!-- Generator: Adobe Illustrator 21.0.0, SVG Export Plug-In . SVG Version: 6.00 Build 0)  -->
<svg version="1.1" id="Layer_1" xmlns="http://www.w3.org/2000/svg" xmlns:xlink="http://www.w3.org/1999/xlink" x="0px" y="0px"
	 viewBox="0 0 30 30" enable-background="new 0 0 30 30" xml:space="preserve">
<g>
	<path fill="#303C42" d="M15,10c-2.7568359,0-5,2.2431641-5,5s2.2431641,5,5,5s5-2.2431641,5-5S17.7568359,10,15,10z M12,17
		c-0.5517578,0-1-0.4482422-1-1s0.4482422-1,1-1s1,0.4482422,1,1S12.5517578,17,12,17z"/>
	<path fill="#303C42" d="M26,2H4C2.8974609,2,2,2.8974609,2,4v22c0,1.1025391,0.8974609,2,2,2h22c1.1025391,0,2-0.8974609,2-2V4
		C28,2.8974609,27.1025391,2,26,2z M15,21c-3.3085938,0-6-2.6914063-6-6V7.5C9,7.2236328,9.2236328,7,9.5,7S10,7.2236328,10,7.5
		v4.1904297C11.0755005,10.0708618,12.9141846,9,15,9c3.3085938,0,6,2.6914063,6,6S18.3085938,21,15,21z"/>
</g>
<g>
</g>
<g>
</g>
<g>
</g>
<g>
</g>
<g>
</g>
<g>
</g>
<g>
</g>
<g>
</g>
<g>
</g>
<g>
</g>
<g>
</g>
<g>
</g>
<g>
</g>
<g>
</g>
<g>
</g>
</svg>
