<?xml version="1.0" encoding="iso-8859-1"?>
<!-- Generator: Adobe Illustrator 21.0.0, SVG Export Plug-In . SVG Version: 6.00 Build 0)  -->
<svg version="1.1" id="Layer_1" xmlns="http://www.w3.org/2000/svg" xmlns:xlink="http://www.w3.org/1999/xlink" x="0px" y="0px"
	 viewBox="0 0 30 30" enable-background="new 0 0 30 30" xml:space="preserve">
<g>
	<path fill="#303C42" d="M8.8232365,11.6884766c-0.0947266-0.1054688-0.2294922-0.1650391-0.3710938-0.1650391H2.4999943
		c-0.1977539,0-0.3764648,0.1162109-0.4570313,0.296875c-0.0800782,0.1806641-0.0463868,0.3916016,0.0859375,0.5380859
		c2.9458008,3.2617188,4.7880859,8.2871094,5.4433594,10.296875C7.6396427,22.8603516,7.8315372,23,8.0478458,23h5.9521484
		c0.1601563,0,0.3105469-0.0771484,0.4047852-0.2060547c0.09375-0.1298828,0.1201172-0.296875,0.0708008-0.4492188
		C13.799799,20.2744141,11.8974552,15.0917969,8.8232365,11.6884766z"/>
	<path fill="#303C42" d="M17.9521427,7h-5.9521484c-0.0102539,0-0.0184937,0.0071411-0.0286255,0.0077515
		c-0.0316772,0.00177-0.0632935-0.0002441-0.0949097,0.0078735c-0.0379639,0.0097046-0.0708008,0.0286865-0.1044312,0.0462036
		c-0.0105591,0.0054932-0.0215454,0.0078125-0.0316772,0.0140381c-0.0666504,0.0407715-0.1189575,0.097229-0.15979,0.1625977
		c-0.0042114,0.0067139-0.012207,0.0095215-0.0161133,0.0164185c-0.0043945,0.0077515-0.0024414,0.0170288-0.0063477,0.0249634
		C11.5242863,7.3475342,11.4999943,7.4204102,11.4999943,7.5c0,0.9570313-0.265625,2.5712891-0.7675781,4.6679688
		c-0.0341797,0.1416016-0.0039063,0.2919922,0.0820313,0.4101563c1.7802734,2.4462891,3.0537109,5.2724609,3.8081055,7.2128906
		c0.074707,0.1923828,0.2597656,0.3183594,0.4658203,0.3183594c0.0029297,0,0.0063477,0,0.0092773,0
		c0.2094727-0.0039063,0.3945313-0.1376953,0.4628906-0.3359375c0.3122559-0.8994141,0.6095581-1.8231201,0.9129639-2.8306274
		c1.8080444,4.0450439,2.7382202,7.3505249,3.3931885,10.6548462C19.9130802,27.8310547,20.1181583,28,20.3569279,28h5.9526367
		c0.1494141,0,0.2915039-0.0673828,0.3862305-0.1826172c0.0952148-0.1162109,0.1333008-0.2675781,0.1040039-0.4150391
		c-1.1079102-5.5869141-2.9638672-11.1542969-8.4199219-20.1611328C18.2890568,7.0917969,18.1269474,7,17.9521427,7z"/>
	<path fill="#303C42" d="M26.7919865,2.3681641C26.7324162,2.1513672,26.5351505,2,26.3095646,2h-5.9526367
		c-0.1547852,0-0.3007813,0.0712891-0.3955078,0.1943359c-0.0947266,0.1220703-0.1274414,0.28125-0.0883789,0.4316406
		c0.0063477,0.0234375,0.6303711,2.4658203,0.9760742,6.7548828c0.0058594,0.0722656,0.027832,0.1435547,0.0634766,0.2060547
		c2.7270508,4.8115234,4.5512695,8.9384766,5.7407227,12.9873047c0.0625,0.2148438,0.2592773,0.359375,0.4790039,0.359375
		c0.0151367,0,0.0302734-0.0009766,0.0454102-0.0019531c0.237793-0.0214844,0.4272461-0.2080078,0.4521484-0.4453125
		C27.8754826,20.1523438,27.9999943,17.6328125,27.9999943,15C27.9999943,6.8916016,26.8413029,2.5498047,26.7919865,2.3681641z"/>
</g>
<g>
</g>
<g>
</g>
<g>
</g>
<g>
</g>
<g>
</g>
<g>
</g>
<g>
</g>
<g>
</g>
<g>
</g>
<g>
</g>
<g>
</g>
<g>
</g>
<g>
</g>
<g>
</g>
<g>
</g>
</svg>
