<?xml version="1.0" encoding="iso-8859-1"?>
<!-- Generator: Adobe Illustrator 21.0.0, SVG Export Plug-In . SVG Version: 6.00 Build 0)  -->
<svg version="1.1" id="Layer_1" xmlns="http://www.w3.org/2000/svg" xmlns:xlink="http://www.w3.org/1999/xlink" x="0px" y="0px"
	 viewBox="0 0 30 30" enable-background="new 0 0 30 30" xml:space="preserve">
<g>
	<polygon fill="#303C42" points="10,9.9990234 10,10 10.5,10 	"/>
	<polygon fill="#303C42" points="20,9.9990234 20,10 20.5,10 	"/>
	<path fill="#303C42" d="M15,0C6.7285156,0,0,6.7285156,0,15s6.7285156,15,15,15s15-6.7285156,15-15S23.2714844,0,15,0z M20,9
		c0.5517578,0,1,0.4482422,1,1s-0.4482422,1-1,1s-1-0.4482422-1-1S19.4482422,9,20,9z M10,9c0.5517578,0,1,0.4482422,1,1
		s-0.4482422,1-1,1s-1-0.4482422-1-1S9.4482422,9,10,9z M25,15c0,5.5136719-4.4863281,10-10,10S5,20.5136719,5,15v-0.5
		C5,14.2236328,5.2236328,14,5.5,14h19c0.2763672,0,0.5,0.2236328,0.5,0.5V15z"/>
</g>
<g>
</g>
<g>
</g>
<g>
</g>
<g>
</g>
<g>
</g>
<g>
</g>
<g>
</g>
<g>
</g>
<g>
</g>
<g>
</g>
<g>
</g>
<g>
</g>
<g>
</g>
<g>
</g>
<g>
</g>
</svg>
