<?xml version="1.0" encoding="iso-8859-1"?>
<!-- Generator: Adobe Illustrator 21.0.0, SVG Export Plug-In . SVG Version: 6.00 Build 0)  -->
<svg version="1.1" id="Layer_1" xmlns="http://www.w3.org/2000/svg" xmlns:xlink="http://www.w3.org/1999/xlink" x="0px" y="0px"
	 viewBox="0 0 24 24" enable-background="new 0 0 24 24" xml:space="preserve">
<g id="XMLID_1604_">
	<path id="XMLID_1469_" fill="none" stroke="#303C42" stroke-linecap="round" stroke-linejoin="round" stroke-miterlimit="10" d="
		M14.5,23.5c3.28125-0.71875,7-3.71875,7-7.5s-3.4375076-5.96875-5-7c0.125,0.90625-0.756568,1.5-1.5,1.5S13.5,9.84375,13.5,9
		c0-1.90625,0.5-1.59375,0.5-3.5s-0.21875-2.84375-2.5-5C12.3124924,4.5625,8.796875,6.203125,6,9s-3.5,5.25-3.5,7
		c0,2.2087269,0.625,6.28125,6,7.5c-2.0833335-1.916666-2.5-2.916666-2.5-4s0.8333335-2.791666,2.5-4c-1,2.541666,0.666667,3,1.5,3
		s1.5-0.75,1.5-2s-2-2.015625-2-3.5s1-2.5,1-2.5s-0.333333,1.020833,1,2s6,3.333333,6,6S16.5,22.0625,14.5,23.5z"/>
</g>
<g>
</g>
<g>
</g>
<g>
</g>
<g>
</g>
<g>
</g>
<g>
</g>
<g>
</g>
<g>
</g>
<g>
</g>
<g>
</g>
<g>
</g>
<g>
</g>
<g>
</g>
<g>
</g>
<g>
</g>
</svg>
