<?xml version="1.0" encoding="iso-8859-1"?>
<!-- Generator: Adobe Illustrator 21.0.0, SVG Export Plug-In . SVG Version: 6.00 Build 0)  -->
<svg version="1.1" id="Layer_1" xmlns="http://www.w3.org/2000/svg" xmlns:xlink="http://www.w3.org/1999/xlink" x="0px" y="0px"
	 viewBox="0 0 30 30" enable-background="new 0 0 30 30" xml:space="preserve">
<path fill="#303C42" d="M15,0C6.7290039,0,0,6.7285156,0,15s6.7290039,15,15,15s15-6.7285156,15-15S23.2709961,0,15,0z
	 M21,19.3896484c0,1.1660156-0.8271484,2.1933594-1.9663086,2.4423828l-0.6166992,0.1347656
	c-0.121582,0.0205078-0.2426758,0.0302734-0.3618164,0.0302734c-0.4912109,0-0.956543-0.1689453-1.328125-0.484375
	C16.2651367,21.1220703,16,20.5507813,16,19.9453125c0-1.0087891,0.7216797-1.8613281,1.7167969-2.0273438l1.3544922-0.3671875
	C19.6293945,17.4550781,20,17.0175781,20,16.5v-5.9412231l-8,0.888855v8.9420166
	c0,1.1660156-0.8271484,2.1933594-1.9663086,2.4423828l-0.6166992,0.1347656
	c-0.121582,0.0205078-0.2426758,0.0302734-0.3618164,0.0302734c-0.4912109,0-0.956543-0.1689453-1.328125-0.484375
	C7.2651367,22.1220703,7,21.5507813,7,20.9453125c0-1.0087891,0.7216797-1.8613281,1.7167969-2.0273438l1.3544922-0.3671875
	C10.6293945,18.4550781,11,18.0175781,11,17.5v-10c0-0.2548828,0.1914063-0.46875,0.4448242-0.4970703l9-1
	c0.1435547-0.0126953,0.2827148,0.0292969,0.3886719,0.1240234C20.9394531,6.2226563,21,6.3574219,21,6.5V19.3896484z"/>
<g>
</g>
<g>
</g>
<g>
</g>
<g>
</g>
<g>
</g>
<g>
</g>
<g>
</g>
<g>
</g>
<g>
</g>
<g>
</g>
<g>
</g>
<g>
</g>
<g>
</g>
<g>
</g>
<g>
</g>
</svg>
