<?xml version="1.0" encoding="iso-8859-1"?>
<!-- Generator: Adobe Illustrator 21.0.0, SVG Export Plug-In . SVG Version: 6.00 Build 0)  -->
<svg version="1.1" id="Layer_1" xmlns="http://www.w3.org/2000/svg" xmlns:xlink="http://www.w3.org/1999/xlink" x="0px" y="0px"
	 viewBox="0 0 24 24" enable-background="new 0 0 24 24" xml:space="preserve">
<g>
	<path fill="#303C42" d="M6,6.5969801v3.9034348c0,0.2763586,0.2236328,0.4999838,0.5,0.4999838S7,10.7767735,7,10.5004148
		V6.5969801l1.9643555-4.9107256c0.1025391-0.2563392-0.0224609-0.547345-0.2788086-0.6498808
		C8.4311523,0.9328616,8.1381836,1.0578574,8.0356445,1.315173L6.5,5.1544013L4.9643555,1.315173
		C4.8618164,1.0578574,4.5688477,0.9333498,4.3144531,1.0363737C4.0581055,1.1389095,3.9331055,1.4299153,4.0356445,1.6862545
		L6,6.5969801z"/>
	<path fill="#303C42" d="M9,9.0004644c0,1.1029911,0.8969727,1.9999342,2,1.9999342s2-0.8969431,2-1.9999342V6.0005646
		c0-1.1029911-0.8969727-1.9999337-2-1.9999337S9,4.8975735,9,6.0005646V9.0004644z M10,6.0005646
		c0-0.5512514,0.4487305-0.9999671,1-0.9999671s1,0.4487157,1,0.9999671v2.9998999c0,0.5512514-0.4487305,0.9999676-1,0.9999676
		s-1-0.4487162-1-0.9999676V6.0005646z"/>
	<path fill="#303C42" d="M16,11.0003986c0.3830566,0,0.7377319-0.1136436,1.0421143-0.3010159
		c0.0769653,0.1768742,0.2525024,0.3010159,0.4578857,0.3010159c0.2763672,0,0.5-0.2236252,0.5-0.4999838V9.0004644V4.5006142
		c0-0.2763581-0.2236328-0.4999833-0.5-0.4999833S17,4.224256,17,4.5006142v4.4998503c0,0.5512514-0.4487305,0.9999676-1,0.9999676
		s-1-0.4487162-1-0.9999676V4.5006142c0-0.2763581-0.2236328-0.4999833-0.5-0.4999833S14,4.224256,14,4.5006142v4.4998503
		C14,10.1034555,14.8969727,11.0003986,16,11.0003986z"/>
	<path fill="#303C42" d="M14.25,17.0001984h-0.5c-0.4135742,0-0.75,0.3364162-0.75,0.7499752v1.4999504
		c0,0.4135609,0.3364258,0.7499752,0.75,0.7499752h0.5c0.4135742,0,0.75-0.3364143,0.75-0.7499752v-1.4999504
		C15,17.3366146,14.6635742,17.0001984,14.25,17.0001984z"/>
	<path fill="#303C42" d="M19.25,17.0001984h-0.5c-0.4135742,0-0.75,0.3364162-0.75,0.7499752v0.2499924h2v-0.2499924
		C20,17.3366146,19.6635742,17.0001984,19.25,17.0001984z"/>
	<path fill="#303C42" d="M20,12.0003653H4c-1.6542969,0-3,1.3456583-3,2.9999008v4.9998331C1,21.6543407,2.3457031,23,4,23h16
		c1.6542969,0,3-1.3456593,3-2.9999008v-4.9998331C23,13.3460236,21.6542969,12.0003653,20,12.0003653z M6,20.5000839
		c0,0.2763577-0.2236328,0.4999828-0.5,0.4999828S5,20.7764416,5,20.5000839v-5.4998178H3.5
		c-0.2763672,0-0.5-0.2236261-0.5-0.4999838s0.2236328-0.4999838,0.5-0.4999838h4c0.2763672,0,0.5,0.2236261,0.5,0.4999838
		s-0.2236328,0.4999838-0.5,0.4999838H6V20.5000839z M11,19.250124c0,0.0570049-0.0114746,0.110836-0.0168457,0.1664371
		C10.9880981,19.4447594,11,19.4704533,11,19.5001163v0.9999676c0,0.2763577-0.2236328,0.4999828-0.5,0.4999828
		c-0.1727905,0-0.3175049-0.0928936-0.4072876-0.2259445C9.8415527,20.9136429,9.5570679,21.0000668,9.25,21.0000668h-0.5
		c-0.9648438,0-1.75-0.7851315-1.75-1.7499428v-2.7499084c0-0.2763577,0.2236328-0.4999828,0.5-0.4999828S8,16.2238579,8,16.5002155
		v2.7499084c0,0.4135609,0.3364258,0.7499752,0.75,0.7499752h0.5c0.4135742,0,0.75-0.3364143,0.75-0.7499752v-2.7499084
		c0-0.2763577,0.2236328-0.4999828,0.5-0.4999828s0.5,0.2236252,0.5,0.4999828V19.250124z M16,19.250124
		c0,0.9648113-0.7851563,1.7499428-1.75,1.7499428h-0.5c-0.3070679,0-0.5915527-0.0864239-0.8427124-0.2259445
		C12.8175049,20.9071732,12.6727905,21.0000668,12.5,21.0000668c-0.2763672,0-0.5-0.2236252-0.5-0.4999828V19.250124v-1.4999504
		v-3.2498913c0-0.2763577,0.2236328-0.4999838,0.5-0.4999838s0.5,0.2236261,0.5,0.4999838v1.6754818
		c0.2282104-0.1092491,0.4805908-0.1755314,0.75-0.1755314h0.5c0.9648438,0,1.75,0.7851295,1.75,1.7499409V19.250124z
		 M21,18.5001488c0,0.2763596-0.2236328,0.4999847-0.5,0.4999847H18v0.2499905c0,0.4135609,0.3364258,0.7499752,0.75,0.7499752h0.75
		c0.2392578,0,0.3710938-0.1787052,0.4169922-0.2553616c0.1411133-0.2372971,0.4482422-0.3159084,0.6850586-0.1743107
		c0.2373047,0.1406193,0.3154297,0.4477386,0.1743164,0.6850357C20.4995117,20.721756,20.0224609,21.0000668,19.5,21.0000668h-0.75
		c-0.9648438,0-1.75-0.7851315-1.75-1.7499428v-1.4999504c0-0.9648113,0.7851563-1.7499409,1.75-1.7499409h0.5
		c0.9648438,0,1.75,0.7851295,1.75,1.7499409V18.5001488z"/>
</g>
<g>
</g>
<g>
</g>
<g>
</g>
<g>
</g>
<g>
</g>
<g>
</g>
<g>
</g>
<g>
</g>
<g>
</g>
<g>
</g>
<g>
</g>
<g>
</g>
<g>
</g>
<g>
</g>
<g>
</g>
</svg>
