<?xml version="1.0" encoding="iso-8859-1"?>
<!-- Generator: Adobe Illustrator 21.0.0, SVG Export Plug-In . SVG Version: 6.00 Build 0)  -->
<svg version="1.1" id="Layer_1" xmlns="http://www.w3.org/2000/svg" xmlns:xlink="http://www.w3.org/1999/xlink" x="0px" y="0px"
	 viewBox="0 0 24 24" enable-background="new 0 0 24 24" xml:space="preserve">
<g>
	<path fill="#303C42" d="M6.36619,10.4819336c0.2167969,0.0581055,0.4462852-0.0322266,0.5620117-0.2241211
		C8.0649204,8.3701172,10.6181431,7,12.999979,7c3.5839844,0,6.5,2.9160156,6.5,6.5s-2.9160156,6.5-6.5,6.5
		c-1.3009644,0-2.4968872-0.404541-3.5-1.1033936V13.5c0-1.9296875,1.5703125-3.5,3.5-3.5s3.5,1.5703125,3.5,3.5
		s-1.5703125,3.5-3.5,3.5c-0.4536133,0-0.8955078-0.0854492-1.3129883-0.2543945
		c-0.2553711-0.1035156-0.5473633,0.0200195-0.6508789,0.2758789s0.0200195,0.5473633,0.2758789,0.6508789
		C11.8491001,17.8896484,12.4169712,18,12.999979,18c2.4814453,0,4.5-2.0185547,4.5-4.5s-2.0185547-4.5-4.5-4.5
		s-4.5,2.0185547-4.5,4.5v4.546936c-0.6799316-0.7307739-1.2061157-1.6408691-1.5209961-2.6904907
		c-0.0791016-0.2641602-0.3579102-0.4160156-0.6225586-0.3354492c-0.2646484,0.0795898-0.4145508,0.3583984-0.3354492,0.6225586
		C6.9975376,18.8974609,9.7367954,21,12.999979,21c4.1357422,0,7.5-3.3642578,7.5-7.5s-3.3642578-7.5-7.5-7.5
		c-2.1835938,0-4.5,1.0219727-6,2.5541992V1h11c0.2763672,0,0.5-0.2236328,0.5-0.5s-0.2236328-0.5-0.5-0.5h-11.5
		c-0.2763672,0-0.5,0.2236328-0.5,0.5V10C5.999979,10.2246094,6.1498814,10.421875,6.36619,10.4819336z"/>
	<path fill="#303C42" d="M20.1205845,19.6743164C18.2797642,21.8188477,15.7509556,23,12.999979,23
		c-4.7749023,0-8.3095703-2.9731445-9.0058594-7.574707c-0.0410156-0.2729492-0.2973633-0.4643555-0.5688477-0.4194336
		c-0.2729492,0.0410156-0.4609375,0.2958984-0.4194336,0.5688477C3.7675571,20.6142578,7.7841587,24,12.999979,24
		c3.0473633,0,5.8457031-1.3046875,7.8793945-3.6743164c0.1796875-0.2094727,0.1557617-0.5253906-0.0537109-0.7050781
		C20.6176548,19.4418945,20.300272,19.4643555,20.1205845,19.6743164z"/>
	<path fill="#303C42" d="M9.3407993,3.6552734c-0.2587891,0.0961914-0.390625,0.3842773-0.2944336,0.6430664
		c0.097168,0.2587891,0.3862305,0.3920898,0.6430664,0.2944336C10.7470493,4.1992188,11.8613071,4,12.999979,4
		c2.7504883,0,5.2792969,1.1811523,7.1206055,3.3256836C20.2197056,7.440918,20.359354,7.5,20.499979,7.5
		c0.1157227,0,0.2314453-0.0395508,0.3256836-0.1206055c0.2094727-0.1796875,0.2333984-0.4956055,0.0537109-0.7050781
		C18.8451939,4.3046875,16.046854,3,12.999979,3C11.7416782,3,10.5107212,3.2207031,9.3407993,3.6552734z"/>
	<path fill="#303C42" d="M11.1464634,15.3535156C11.2441196,15.4511719,11.3720493,15.5,11.499979,15.5
		s0.2558594-0.0488281,0.3535156-0.1464844l1.1464844-1.1464844l1.1464844,1.1464844
		C14.2441196,15.4511719,14.3720493,15.5,14.499979,15.5s0.2558594-0.0488281,0.3535156-0.1464844
		c0.1953125-0.1953125,0.1953125-0.5117188,0-0.7070313L13.7070103,13.5l1.1464844-1.1464844
		c0.1953125-0.1953125,0.1953125-0.5117188,0-0.7070313s-0.5117188-0.1953125-0.7070313,0l-1.1464844,1.1464844
		l-1.1464844-1.1464844c-0.1953125-0.1953125-0.5117188-0.1953125-0.7070313,0s-0.1953125,0.5117188,0,0.7070313L12.2929478,13.5
		l-1.1464844,1.1464844C10.9511509,14.8417969,10.9511509,15.1582031,11.1464634,15.3535156z"/>
</g>
<g>
</g>
<g>
</g>
<g>
</g>
<g>
</g>
<g>
</g>
<g>
</g>
<g>
</g>
<g>
</g>
<g>
</g>
<g>
</g>
<g>
</g>
<g>
</g>
<g>
</g>
<g>
</g>
<g>
</g>
</svg>
