<?xml version="1.0" encoding="iso-8859-1"?>
<!-- Generator: Adobe Illustrator 21.0.0, SVG Export Plug-In . SVG Version: 6.00 Build 0)  -->
<svg version="1.1" id="Layer_1" xmlns="http://www.w3.org/2000/svg" xmlns:xlink="http://www.w3.org/1999/xlink" x="0px" y="0px"
	 viewBox="0 0 24 24" enable-background="new 0 0 24 24" xml:space="preserve">
<path fill="#303C42" d="M22,10c0-5.5141602-4.4863281-10-10-10S2,4.4858398,2,10c0,5.1567383,3.9160156,9.4335938,9,9.9379883V23.5
	c0,0.1552734,0.0722656,0.3022461,0.1953125,0.3964844C11.2841797,23.9643555,11.390625,24,11.5,24
	c0.0429688,0,0.0869141-0.0053711,0.1289063-0.0170898C17.7353516,22.3486328,22,16.8041992,22,10.5
	c0-0.0410156-0.0058594-0.0810547-0.0166016-0.1196289C21.9921875,10.2543945,22,10.1279297,22,10z M11,10.5
	c0,1.65625-1.2412109,2.3525391-1.8984375,2.4892578C9.0683594,12.996582,9.0341797,13,9,13
	c-0.1142578,0-0.2255859-0.0390625-0.3154297-0.1118164C8.5673828,12.7929688,8.5,12.6503906,8.5,12.5V11h-1
	C7.2236328,11,7,10.7763672,7,10.5v-3C7,7.2236328,7.2236328,7,7.5,7h3C10.7763672,7,11,7.2236328,11,7.5V10.5z M17,10.5
	c0,1.65625-1.2412109,2.3525391-1.8984375,2.4892578C15.0683594,12.996582,15.0341797,13,15,13
	c-0.1142578,0-0.2255859-0.0390625-0.3154297-0.1118164C14.5673828,12.7929688,14.5,12.6503906,14.5,12.5V11h-1
	c-0.2763672,0-0.5-0.2236328-0.5-0.5v-3C13,7.2236328,13.2236328,7,13.5,7h3C16.7763672,7,17,7.2236328,17,7.5V10.5z"/>
<g>
</g>
<g>
</g>
<g>
</g>
<g>
</g>
<g>
</g>
<g>
</g>
<g>
</g>
<g>
</g>
<g>
</g>
<g>
</g>
<g>
</g>
<g>
</g>
<g>
</g>
<g>
</g>
<g>
</g>
</svg>
