<?xml version="1.0" encoding="iso-8859-1"?>
<!-- Generator: Adobe Illustrator 21.0.0, SVG Export Plug-In . SVG Version: 6.00 Build 0)  -->
<svg version="1.1" id="Layer_1" xmlns="http://www.w3.org/2000/svg" xmlns:xlink="http://www.w3.org/1999/xlink" x="0px" y="0px"
	 viewBox="0 0 30 30" enable-background="new 0 0 30 30" xml:space="preserve">
<g id="XMLID_1385_">
	<path id="XMLID_1389_" fill="none" stroke="#303C42" stroke-linecap="round" stroke-linejoin="round" stroke-miterlimit="10" d="
		M12.913043,7.8571429C13.2282467,6.5550594,14.199728,6,15.5,6s2.456522,0.6294641,2.456522,3.0476189
		c0,0-4.216033,0.2232141-6.304348,1.1904764S8.5,12.7306547,8.5,15s1.544837,4.5,4.5,4.5s4.36549-1.2261906,4.956522-2.1190472
		c0.9456367,1.0788689,2.5217381,1.7857132,2.5217381,1.7857132L23,16.7857151c0,0-1.5-1.9250326-1.5-3.4503307
		s0-1.7475872,0-4.8353844s-1.21875-6-5.434782-6S9.813406,4.0873017,9.130435,7.2619047L12.913043,7.8571429z"/>
	<path id="XMLID_1388_" fill="none" stroke="#303C42" stroke-linecap="round" stroke-linejoin="round" stroke-miterlimit="10" d="
		M18.5,11.5c-3.609375,0-6,1.041667-6,3.125c0,1.5234375,1.34375,1.875,2.25,1.875S18.5,15.0742188,18.5,11.5z"/>
	<path id="XMLID_1387_" fill="none" stroke="#303C42" stroke-linecap="round" stroke-linejoin="round" stroke-miterlimit="10" d="
		M0.5,21.5476189C2.3543627,23.333334,9.4924564,25.5,14.9782934,25.5c5.4858084,0,11.9820356-2.5,11.9820356-2.5
		s-3.1351795,4.5-11.9820356,4.5S0.5,21.5476189,0.5,21.5476189z"/>
	<path id="XMLID_1386_" fill="none" stroke="#303C42" stroke-linecap="round" stroke-linejoin="round" stroke-miterlimit="10" d="
		M24.4640713,21.0952377c0,0,1.6261864-0.5952377,3.1474552-0.5952377C29.1327972,20.5,29.5,20.9712296,29.5,21.6904755
		c0,1.3724632-1.8884735,3.5714302-1.8884735,3.5714302"/>
</g>
<g>
</g>
<g>
</g>
<g>
</g>
<g>
</g>
<g>
</g>
<g>
</g>
<g>
</g>
<g>
</g>
<g>
</g>
<g>
</g>
<g>
</g>
<g>
</g>
<g>
</g>
<g>
</g>
<g>
</g>
</svg>
