<?xml version="1.0" encoding="iso-8859-1"?>
<!-- Generator: Adobe Illustrator 21.0.0, SVG Export Plug-In . SVG Version: 6.00 Build 0)  -->
<svg version="1.1" id="Layer_1" xmlns="http://www.w3.org/2000/svg" xmlns:xlink="http://www.w3.org/1999/xlink" x="0px" y="0px"
	 viewBox="0 0 30 30" enable-background="new 0 0 30 30" xml:space="preserve">
<path fill="#303C42" d="M24.9852028,28.3789063l-1-4c-0.0341797-0.1376953-0.1259766-0.2539063-0.2509766-0.3203125
	c-0.1230469-0.0664063-0.2714844-0.0771484-0.4052734-0.0283203l-1.1914063,0.4331055
	c-1,0.3623047-2.0752087,0.3012695-3.0263672-0.1767578c-0.9521484-0.4775391-1.6435547-1.3022461-1.9501953-2.3217773
	c-0.1064453-0.3569336-0.1611328-0.7270508-0.1611328-1.1000977V13h4.5c0.2763672,0,0.5-0.2236328,0.5-0.5v-5
	c0-0.2763672-0.2236328-0.5-0.5-0.5h-4.5V0.5c0-0.2763672-0.2236328-0.5-0.5-0.5h-5.000001c-0.2763672,0-0.5,0.2236328-0.5,0.5
	c0,4.0703125-2.0556641,6.5-5.5,6.5c-0.2763672,0-0.5,0.2236328-0.5,0.5v5c0,0.2763672,0.2236328,0.5,0.5,0.5h4.5v9.5
	c0,4.1357422,3.3642578,7.5,7.500001,7.5h0.6669922c3.5283203,0,6.3789063-0.9863281,6.4990234-1.0283203
	C24.9090309,28.8862305,25.0477028,28.6293945,24.9852028,28.3789063z"/>
<g>
</g>
<g>
</g>
<g>
</g>
<g>
</g>
<g>
</g>
<g>
</g>
<g>
</g>
<g>
</g>
<g>
</g>
<g>
</g>
<g>
</g>
<g>
</g>
<g>
</g>
<g>
</g>
<g>
</g>
</svg>
