<?xml version="1.0" encoding="iso-8859-1"?>
<!-- Generator: Adobe Illustrator 21.0.0, SVG Export Plug-In . SVG Version: 6.00 Build 0)  -->
<svg version="1.1" id="Layer_1" xmlns="http://www.w3.org/2000/svg" xmlns:xlink="http://www.w3.org/1999/xlink" x="0px" y="0px"
	 viewBox="0 0 30 30" enable-background="new 0 0 30 30" xml:space="preserve">
<g>
	<path fill="#303C42" d="M20.6572266,21.3023319c-3.9042969,1.6113281-7.0566406,1.6132813-10.9667969,0
		c-0.2558594-0.1035156-0.5478516,0.0161133-0.6523438,0.2719727c-0.1054688,0.2548828,0.015625,0.5473633,0.2714844,0.652832
		c2.0771484,0.8564453,3.9951172,1.2729492,5.8642578,1.2729492c1.8701172,0,3.7890625-0.4165039,5.8642578-1.2729492
		c0.2558594-0.1054688,0.3769531-0.3979492,0.2714844-0.6533203C21.2060547,21.3194218,20.9150391,21.1993046,20.6572266,21.3023319
		z"/>
	<path fill="#303C42" d="M11,19.0000858c1.1025391,0,2-0.8969727,2-2s-0.8974609-1.999999-2-1.999999s-2,0.8969727-2,1.999999
		S9.8974609,19.0000858,11,19.0000858z M11,16.0000858c0.5517578,0,1,0.4487305,1,1s-0.4482422,1-1,1s-1-0.4487305-1-1
		S10.4482422,16.0000858,11,16.0000858z"/>
	<path fill="#303C42" d="M19,19.0000858c1.1025391,0,2-0.8969727,2-2s-0.8974609-1.999999-2-1.999999s-2,0.8969727-2,1.999999
		S17.8974609,19.0000858,19,19.0000858z M19,16.0000858c0.5517578,0,1,0.4487305,1,1s-0.4482422,1-1,1s-1-0.4487305-1-1
		S18.4482422,16.0000858,19,16.0000858z"/>
	<path fill="#303C42" d="M30,13.5000868c0-1.9296875-1.5703125-3.5-3.5-3.5c-1.4591675,0-2.722229,0.8983765-3.239624,2.211853
		c-2.0402832-1.2946167-4.7578735-2.1118774-7.760376-2.1949463V5.131434l7.5410156,1.774353
		C23.2362671,8.0908461,24.2600708,9.0000868,25.5,9.0000868c1.3789063,0,2.5-1.1215825,2.5-2.5000005s-1.1210938-2.5-2.5-2.5
		c-1.166748,0-2.1408691,0.8064575-2.4154663,1.8885498l-7.9702759-1.8753662c-0.1494141-0.0351563-0.3066406,0-0.4248047,0.0947266
		C14.5693359,4.202723,14.5,4.3472543,14.5,4.5000863v5.5169072c-3.0025024,0.0830688-5.7200928,0.9003296-7.760376,2.1949463
		C6.222229,10.8984632,4.9591675,10.0000868,3.5,10.0000868c-1.9296875,0-3.5,1.5703125-3.5,3.5
		c0,1.7971802,1.3672485,3.2653799,3.1130981,3.4608755C3.0463257,17.3019657,3,17.6471195,3,18.0000858
		c0,4.4111328,5.3828125,8,12,8s12-3.5888672,12-8c0-0.3529663-0.0463257-0.6981201-0.1130981-1.0391235
		C28.6327515,16.7654667,30,15.297267,30,13.5000868z M25.5,5.0000863c0.8271484,0,1.5,0.6728516,1.5,1.5
		s-0.6728516,1.5000005-1.5,1.5000005S24,7.3272347,24,6.5000863S24.6728516,5.0000863,25.5,5.0000863z M1,13.5000868
		c0-1.378418,1.1210938-2.5,2.5-2.5c1.1240845,0,2.0817261,0.7488403,2.3851318,1.8104248
		c-1.1641846,0.9074707-2.0219727,1.9899292-2.4862671,3.1793213C2.067749,15.9354506,1,14.8438978,1,13.5000868z M15,25.0000858
		c-6.0654297,0-11-3.1401367-11-7s4.9345703-6.999999,11-6.999999s11,3.1401367,11,6.999999S21.0654297,25.0000858,15,25.0000858z
		 M26.5960083,15.9765272c-0.4655151-1.1841431-1.3212891-2.2619629-2.4811401-3.1660156
		c0.3034058-1.0615845,1.2610474-1.8104248,2.3851318-1.8104248c1.3789063,0,2.5,1.121582,2.5,2.5
		C29,14.823451,27.9854126,15.9010878,26.5960083,15.9765272z"/>
</g>
<g>
</g>
<g>
</g>
<g>
</g>
<g>
</g>
<g>
</g>
<g>
</g>
<g>
</g>
<g>
</g>
<g>
</g>
<g>
</g>
<g>
</g>
<g>
</g>
<g>
</g>
<g>
</g>
<g>
</g>
</svg>
