<?xml version="1.0" encoding="iso-8859-1"?>
<!-- Generator: Adobe Illustrator 21.0.0, SVG Export Plug-In . SVG Version: 6.00 Build 0)  -->
<svg version="1.1" id="Layer_1" xmlns="http://www.w3.org/2000/svg" xmlns:xlink="http://www.w3.org/1999/xlink" x="0px" y="0px"
	 viewBox="0 0 30 30" enable-background="new 0 0 30 30" xml:space="preserve">
<g>
	<g id="XMLID_1555_">
		<path fill="#303C42" d="M15,28C7.831543,28,2,22.168457,2,15V6.7431641C2,4.1279297,4.1279297,2,6.7431641,2h16.5136719
			C25.8720703,2,28,4.1279297,28,6.7431641V15C28,22.168457,22.168457,28,15,28z M6.7431641,3C4.6791992,3,3,4.6791992,3,6.7431641
			V15c0,6.6166992,5.3833008,12,12,12s12-5.3833008,12-12V6.7431641C27,4.6791992,25.3208008,3,23.2568359,3H6.7431641z"/>
	</g>
	<g>
		<path fill="#303C42" d="M15,20.5c-0.6679688,0-1.2958984-0.2602539-1.7680664-0.7324219l-7.4995117-7.5
			C5.2602539,11.7958984,5,11.1679688,5,10.5s0.2602539-1.2958984,0.7324219-1.7675781
			c0.9433594-0.9443359,2.5913086-0.9443359,3.5356445,0L15,14.4643555l5.7324219-5.7319336
			c0.9433594-0.9443359,2.5913086-0.9443359,3.5356445,0C24.7397461,9.2041016,25,9.8320313,25,10.5
			s-0.2602539,1.2958984-0.7324219,1.7675781l-7.5,7.5C16.2958984,20.2397461,15.6679688,20.5,15,20.5z M7.5,9
			C7.0991211,9,6.7226563,9.1557617,6.4399414,9.4394531C6.15625,9.7226563,6,10.0991211,6,10.5
			s0.15625,0.7773438,0.4394531,1.0605469l7.5,7.5c0.5664063,0.5664063,1.5551758,0.5664063,2.1206055,0l7.5004883-7.5
			C23.84375,11.2773438,24,10.9008789,24,10.5s-0.15625-0.7773438-0.4394531-1.0605469
			c-0.5664063-0.5673828-1.5551758-0.5673828-2.1206055,0l-6.0864258,6.0854492
			c-0.1953125,0.1953125-0.5117188,0.1953125-0.7070313,0L8.5605469,9.4394531C8.2773438,9.1557617,7.9008789,9,7.5,9z"/>
	</g>
</g>
</svg>
