<?xml version="1.0" encoding="iso-8859-1"?>
<!-- Generator: Adobe Illustrator 21.0.0, SVG Export Plug-In . SVG Version: 6.00 Build 0)  -->
<svg version="1.1" id="Layer_1" xmlns="http://www.w3.org/2000/svg" xmlns:xlink="http://www.w3.org/1999/xlink" x="0px" y="0px"
	 viewBox="0 0 30 30" enable-background="new 0 0 30 30" xml:space="preserve">
<g id="XMLID_1603_">
	
		<circle id="XMLID_1474_" fill="none" stroke="#303C42" stroke-linecap="round" stroke-linejoin="round" stroke-miterlimit="10" cx="6" cy="20" r="0.5"/>
	<path id="XMLID_1491_" fill="none" stroke="#303C42" stroke-linecap="round" stroke-linejoin="round" stroke-miterlimit="10" d="
		M29.5,14c0,0-1.9239254-1.2720585-3.5-0.5c0-1.8529415-2-3.5-2-3.5s-1.066864,1.0987396-0.7814922,3.6161461
		C23.3015442,14.3486471,22.752264,15,22,15H0.5c0,7.7205887,4.8333077,10.5,9.456522,10.5
		c8.4235229,0,13.4178257-5.429821,15.2067757-8.6938801C28.2492886,16.4507771,29.5,14,29.5,14z"/>
	
		<rect id="XMLID_1476_" x="2.5" y="11.5" fill="none" stroke="#303C42" stroke-linecap="round" stroke-linejoin="round" stroke-miterlimit="10" width="3.5" height="3.5"/>
	
		<rect id="XMLID_1125_" x="6" y="11.5" fill="none" stroke="#303C42" stroke-linecap="round" stroke-linejoin="round" stroke-miterlimit="10" width="3.5" height="3.5"/>
	
		<rect id="XMLID_1126_" x="9.5" y="11.5" fill="none" stroke="#303C42" stroke-linecap="round" stroke-linejoin="round" stroke-miterlimit="10" width="3.5" height="3.5"/>
	
		<rect id="XMLID_1133_" x="7" y="8" fill="none" stroke="#303C42" stroke-linecap="round" stroke-linejoin="round" stroke-miterlimit="10" width="3.5" height="3.5"/>
	
		<rect id="XMLID_1130_" x="10.5" y="8" fill="none" stroke="#303C42" stroke-linecap="round" stroke-linejoin="round" stroke-miterlimit="10" width="3.5" height="3.5"/>
	
		<rect id="XMLID_1129_" x="14" y="8" fill="none" stroke="#303C42" stroke-linecap="round" stroke-linejoin="round" stroke-miterlimit="10" width="3.5" height="3.5"/>
	
		<rect id="XMLID_1134_" x="14" y="4.5" fill="none" stroke="#303C42" stroke-linecap="round" stroke-linejoin="round" stroke-miterlimit="10" width="3.5" height="3.5"/>
	
		<rect id="XMLID_1127_" x="13" y="11.5" fill="none" stroke="#303C42" stroke-linecap="round" stroke-linejoin="round" stroke-miterlimit="10" width="3.5" height="3.5"/>
	
		<rect id="XMLID_1128_" x="16.5" y="11.5" fill="none" stroke="#303C42" stroke-linecap="round" stroke-linejoin="round" stroke-miterlimit="10" width="3.5" height="3.5"/>
</g>
<g>
</g>
<g>
</g>
<g>
</g>
<g>
</g>
<g>
</g>
<g>
</g>
<g>
</g>
<g>
</g>
<g>
</g>
<g>
</g>
<g>
</g>
<g>
</g>
<g>
</g>
<g>
</g>
<g>
</g>
</svg>
