<?xml version="1.0" encoding="iso-8859-1"?>
<!-- Generator: Adobe Illustrator 21.0.0, SVG Export Plug-In . SVG Version: 6.00 Build 0)  -->
<svg version="1.1" id="Layer_1" xmlns="http://www.w3.org/2000/svg" xmlns:xlink="http://www.w3.org/1999/xlink" x="0px" y="0px"
	 viewBox="0 0 24 24" enable-background="new 0 0 24 24" xml:space="preserve">
<g>
	<path fill="#303C42" d="M23.8310547,11.125c-0.1972656-0.1748047-0.4970703-0.1660156-0.6845703,0.0214844
		C23.0993652,11.1936035,23.0488892,11.2387085,23,11.284729V2.5C23,1.1210938,21.8789063,0,20.5,0h-17
		C2.1210938,0,1,1.1210938,1,2.5v8.784729c-0.0488892-0.0460205-0.0993652-0.0911255-0.1464844-0.1382446
		c-0.1875-0.1865234-0.4873047-0.1962891-0.6845703-0.0214844s-0.2255859,0.4726563-0.0644531,0.6816406
		c1.9238281,2.4804688,4.2988281,3.6162109,5.2880859,4.0068359C5.2363281,16.4511719,5,17.7119141,5,19.5
		C5,22.3974609,7.3652344,24,9,24c1.0380859,0,2.5-0.6201172,2.5-2v-4.9238281l1,0.1435547V22c0,1.3798828,1.4619141,2,2.5,2
		c1.6347656,0,4-1.6025391,4-4.5c0-1.7880859-0.2363281-3.0488281-0.3925781-3.6865234
		c0.9892578-0.390625,3.3642578-1.5263672,5.2880859-4.0068359C24.0566406,11.5976563,24.0283203,11.2998047,23.8310547,11.125z
		 M3,12.5v-10C3,2.2246094,3.2246094,2,3.5,2h17C20.7753906,2,21,2.2246094,21,2.5v10
		c0,0.0166016-0.0002441,0.0234375-0.0003052,0.0380859C19.4841309,13.142334,17.2279663,13.5,13.5,13.5
		c-0.6972656,0-0.9023438,0.6552734-0.9658203,1.4423828c-0.78125-0.5830078-1.3554688-1.0283203-1.7138672-1.3261719
		C10.7304688,13.5410156,10.6171875,13.5,10.5,13.5c-3.7282104,0-5.984436-0.3577271-7.500061-0.9620361
		C2.9998779,12.5222168,3,12.5168457,3,12.5z"/>
	<circle fill="#303C42" cx="8.5" cy="9.5" r="2.5"/>
	<circle fill="#303C42" cx="15.5" cy="9.5" r="2.5"/>
</g>
<g>
</g>
<g>
</g>
<g>
</g>
<g>
</g>
<g>
</g>
<g>
</g>
<g>
</g>
<g>
</g>
<g>
</g>
<g>
</g>
<g>
</g>
<g>
</g>
<g>
</g>
<g>
</g>
<g>
</g>
</svg>
