<?xml version="1.0" encoding="iso-8859-1"?>
<!-- Generator: Adobe Illustrator 21.0.0, SVG Export Plug-In . SVG Version: 6.00 Build 0)  -->
<svg version="1.1" id="Layer_1" xmlns="http://www.w3.org/2000/svg" xmlns:xlink="http://www.w3.org/1999/xlink" x="0px" y="0px"
	 viewBox="0 0 24 24" enable-background="new 0 0 24 24" xml:space="preserve">
<g>
	<path fill="#303C42" d="M22.8867188,6.4785156L14.109375,0.6269531C13.4896393,0.2134743,12.7334766,0.004514,12,0.0000723
		c-0.7494068-0.0045381-1.476181,0.2044221-2.109375,0.6268808L1.1132813,6.4785156C0.4160156,6.9433594,0,7.7207031,0,8.5585938
		v6.859375c0,0.8378906,0.4160156,1.6152344,1.1132813,2.0800781l8.7773438,5.8515625C10.5170898,23.7675781,11.246582,24,12,24
		s1.4829102-0.2324219,2.109375-0.6503906l8.7773438-5.8515625C23.5839844,17.0332031,24,16.2558594,24,15.4179688v-6.859375
		C24,7.7207031,23.5839844,6.9433594,22.8867188,6.4785156z M23,15.4296875c0,0.5024414-0.2495117,0.9692383-0.6679688,1.2480469
		l-8.7773438,5.8515625c-0.9238281,0.6162109-2.1855469,0.6162109-3.109375,0l-8.7773438-5.8515625
		C1.2495117,16.3989258,1,15.9321289,1,15.4296875v-6.859375c0-0.5024414,0.2495117-0.9692383,0.6679688-1.2480469
		l8.7773438-5.8515625C10.9072266,1.1625977,11.4448242,1,12,1s1.0927734,0.1625977,1.5546875,0.4707031l8.7773438,5.8515625
		C22.7504883,7.6010742,23,8.0678711,23,8.5703125V15.4296875z"/>
	<path fill="#303C42" d="M7.2348633,10.9238281C7.315918,10.9746094,7.4082031,11,7.5,11
		c0.0966797,0,0.1933594-0.027832,0.2773438-0.0839844l3-2C10.9165039,8.8232422,11,8.6669922,11,8.5v-5
		c0-0.1831055-0.1000977-0.3510742-0.2602539-0.4389648c-0.1611328-0.0874023-0.3574219-0.0810547-0.5102539,0.0185547l-7,4.5
		C3.0854492,7.671875,2.9990234,7.8320313,3,8.003418c0.0009766,0.1708984,0.0898438,0.3295898,0.2348633,0.4204102
		L7.2348633,10.9238281z M10,4.4160156v3.8164063L7.4912109,9.9047852L4.434082,7.9941406L10,4.4160156z"/>
	<path fill="#303C42" d="M16.2226563,10.9160156C16.3066406,10.972168,16.4033203,11,16.5,11
		c0.0917969,0,0.184082-0.0253906,0.2651367-0.0761719l4-2.5C20.9101563,8.3330078,20.9990234,8.1743164,21,8.003418
		c0.0009766-0.1713867-0.0854492-0.331543-0.2294922-0.4238281l-7-4.5c-0.1542969-0.0996094-0.3491211-0.105957-0.5102539-0.0185547
		C13.1000977,3.1489258,13,3.3168945,13,3.5v5c0,0.1669922,0.0834961,0.3232422,0.2226563,0.4160156L16.2226563,10.9160156z
		 M14,4.4160156l5.565918,3.578125l-3.0571289,1.9106445L14,8.2324219V4.4160156z"/>
	<path fill="#303C42" d="M16.7651367,13.0761719c-0.1660156-0.1040039-0.3779297-0.1020508-0.5424805,0.0078125l-3,2
		C13.0834961,15.1767578,13,15.3330078,13,15.5v5c0,0.1831055,0.1000977,0.3510742,0.2602539,0.4389648
		C13.3354492,20.9794922,13.4174805,21,13.5,21c0.0942383,0,0.1884766-0.0263672,0.2705078-0.0795898l7-4.5
		C20.9145508,16.328125,21.0009766,16.1679688,21,15.996582c-0.0009766-0.1708984-0.0898438-0.3295898-0.2348633-0.4204102
		L16.7651367,13.0761719z M14,19.5839844v-3.8164063l2.5087891-1.6723633l3.0571289,1.9106445L14,19.5839844z"/>
	<path fill="#303C42" d="M7.7773438,13.0839844c-0.1635742-0.1103516-0.3764648-0.112793-0.5424805-0.0078125l-4,2.5
		C3.0898438,15.6669922,3.0009766,15.8256836,3,15.996582c-0.0009766,0.1713867,0.0854492,0.331543,0.2294922,0.4238281l7,4.5
		C10.3115234,20.9736328,10.4057617,21,10.5,21c0.0825195,0,0.1645508-0.0205078,0.2397461-0.0610352
		C10.8999023,20.8510742,11,20.6831055,11,20.5v-5c0-0.1669922-0.0834961-0.3232422-0.2226563-0.4160156L7.7773438,13.0839844z
		 M10,19.5839844l-5.565918-3.578125l3.0571289-1.9106445L10,15.7675781V19.5839844z"/>
	<path fill="#303C42" d="M5.5,12c0-0.1757813-0.0922852-0.3383789-0.2426758-0.4287109l-2.5-1.5
		c-0.1552734-0.0922852-0.347168-0.0952148-0.5039063-0.0063477S2,10.3198242,2,10.5v3
		c0,0.1801758,0.0966797,0.3461914,0.253418,0.4350586C2.3300781,13.9785156,2.4150391,14,2.5,14
		c0.0888672,0,0.1782227-0.0239258,0.2573242-0.0712891l2.5-1.5C5.4077148,12.3383789,5.5,12.1757813,5.5,12z M3,12.6166992
		v-1.2333984L4.0283203,12L3,12.6166992z"/>
	<path fill="#303C42" d="M21.746582,10.0649414c-0.15625-0.0888672-0.3491211-0.0859375-0.5039063,0.0063477l-2.5,1.5
		C18.5922852,11.6616211,18.5,11.8242188,18.5,12s0.0922852,0.3383789,0.2426758,0.4287109l2.5,1.5
		C21.3217773,13.9760742,21.4111328,14,21.5,14c0.0849609,0,0.1699219-0.0214844,0.246582-0.0649414
		C21.9033203,13.8461914,22,13.6801758,22,13.5v-3C22,10.3198242,21.9033203,10.1538086,21.746582,10.0649414z M21,12.6166992
		L19.9716797,12L21,11.3833008V12.6166992z"/>
	<path fill="#303C42" d="M15.5,12c0-0.1669922-0.0834961-0.3232422-0.2226563-0.4160156l-3-2
		c-0.1679688-0.1123047-0.3867188-0.1123047-0.5546875,0l-3,2C8.5834961,11.6767578,8.5,11.8330078,8.5,12
		s0.0834961,0.3232422,0.2226563,0.4160156l3,2C11.8066406,14.472168,11.9033203,14.5,12,14.5
		s0.1933594-0.027832,0.2773438-0.0839844l3-2C15.4165039,12.3232422,15.5,12.1669922,15.5,12z M12,13.3989258L9.9013672,12
		L12,10.6010742L14.0986328,12L12,13.3989258z"/>
</g>
<g>
</g>
<g>
</g>
<g>
</g>
<g>
</g>
<g>
</g>
<g>
</g>
<g>
</g>
<g>
</g>
<g>
</g>
<g>
</g>
<g>
</g>
<g>
</g>
<g>
</g>
<g>
</g>
<g>
</g>
</svg>
