<?xml version="1.0" encoding="iso-8859-1"?>
<!-- Generator: Adobe Illustrator 21.0.0, SVG Export Plug-In . SVG Version: 6.00 Build 0)  -->
<svg version="1.1" id="Layer_1" xmlns="http://www.w3.org/2000/svg" xmlns:xlink="http://www.w3.org/1999/xlink" x="0px" y="0px"
	 viewBox="0 0 24 24" enable-background="new 0 0 24 24" xml:space="preserve">
<path fill="#303C42" d="M12,0C5.3833008,0,0,5.3833008,0,12s5.3833008,12,12,12s12-5.3833008,12-12S18.6166992,0,12,0z
	 M22.9656982,12.6773682c-2.9813843-0.8132935-5.6876831-1.0422363-8.1474609-0.6481323
	c-0.3695068-0.8862915-0.7753906-1.7618408-1.2183838-2.6289063c2.6964722-1.0483398,4.7850342-2.5675049,6.6212769-4.6835327
	C21.9439697,6.6591797,23,9.2055664,23,12C23,12.2286377,22.9794922,12.4521484,22.9656982,12.6773682z M19.522522,3.9963989
	c-1.7562256,2.0393677-3.769104,3.4993286-6.3925171,4.5041504c-1.2683105-2.3304443-2.819458-4.6113281-4.6710205-6.9049072
	C9.5718994,1.2156982,10.7600708,1,12,1C14.9104614,1,17.5531006,2.1442261,19.522522,3.9963989z M7.4851685,1.9802246
	c1.8823242,2.303833,3.4381104,4.5593872,4.7045898,6.8532715C9.3366699,9.7611084,5.7819214,10.225769,1.1356201,10.3624878
	C1.6981812,6.6190796,4.1455078,3.491333,7.4851685,1.9802246z M1,12c0-0.2138062,0.0200195-0.4226074,0.0321045-0.6334229
	c4.899231-0.137146,8.6358032-0.6307373,11.6376343-1.6300049c0.4257202,0.8236694,0.8156738,1.6546631,1.1710205,2.4954834
	c-3.802063,0.887207-7.0116577,3.3209229-9.7875366,7.3530273C2.166748,17.6094971,1,14.9407959,1,12z M4.7844849,20.2827148
	c2.7042236-3.9821777,5.7640991-6.3268433,9.4319458-7.1306763c1.0855713,2.7870483,1.8096313,5.7064819,2.2351074,8.8982544
	C15.0888672,22.656311,13.5849609,23,12,23C9.2384644,23,6.7182007,21.9695435,4.7844849,20.2827148z M17.3937378,21.5762329
	c-0.430603-3.0427246-1.1499023-5.8821411-2.197998-8.6053467c2.2991333-0.3248291,4.8352661-0.0788574,7.6617432,0.7116089
	C22.3339844,17.0700073,20.2686157,19.9503784,17.3937378,21.5762329z"/>
<g>
</g>
<g>
</g>
<g>
</g>
<g>
</g>
<g>
</g>
<g>
</g>
<g>
</g>
<g>
</g>
<g>
</g>
<g>
</g>
<g>
</g>
<g>
</g>
<g>
</g>
<g>
</g>
<g>
</g>
</svg>
