<?xml version="1.0" encoding="iso-8859-1"?>
<!-- Generator: Adobe Illustrator 21.0.0, SVG Export Plug-In . SVG Version: 6.00 Build 0)  -->
<svg version="1.1" id="Layer_1" xmlns="http://www.w3.org/2000/svg" xmlns:xlink="http://www.w3.org/1999/xlink" x="0px" y="0px"
	 viewBox="0 0 24 24" enable-background="new 0 0 24 24" xml:space="preserve">
<g id="XMLID_1525_">
	<path id="XMLID_1526_" fill="none" stroke="#303C42" stroke-linecap="round" stroke-linejoin="round" stroke-miterlimit="10" d="
		M12,0.5c-6.3512573,0-11.5,4.0294189-11.5,9c0,1.8687744,0.7278442,3.6045532,1.9736938,5.0432129l2.4353027-1.7335815
		C4.0185547,11.8609619,3.5,10.7232056,3.5,9.5c0-3.3137207,3.805603-6,8.5-6s8.5,2.6862793,8.5,6s-4.6875086,5.5-9,4
		c0-3.0450439,0-6,0-6h-3c0,0,0,7.71875,0,11s-3,1-3,1v3c0,0,1.03125,1,2.5,1s3.5-1.53125,3.5-4c0-0.6306152,0-1.7243652,0-3
		c7.40625,1.875,12-2.02948,12-7C23.5,4.5294189,18.3512573,0.5,12,0.5z"/>
</g>
<g>
</g>
<g>
</g>
<g>
</g>
<g>
</g>
<g>
</g>
<g>
</g>
<g>
</g>
<g>
</g>
<g>
</g>
<g>
</g>
<g>
</g>
<g>
</g>
<g>
</g>
<g>
</g>
<g>
</g>
</svg>
