<?xml version="1.0" encoding="iso-8859-1"?>
<!-- Generator: Adobe Illustrator 21.0.0, SVG Export Plug-In . SVG Version: 6.00 Build 0)  -->
<svg version="1.1" id="Layer_1" xmlns="http://www.w3.org/2000/svg" xmlns:xlink="http://www.w3.org/1999/xlink" x="0px" y="0px"
	 viewBox="0 0 24 24" enable-background="new 0 0 24 24" xml:space="preserve">
<g id="XMLID_1607_">
	<path id="XMLID_1460_" fill="none" stroke="#303C42" stroke-linecap="round" stroke-linejoin="round" stroke-miterlimit="10" d="
		M0.5,6.5h4c0,0,2.3124962,6,4.5,6c0.40625,0,0.5-0.75,0.5-3s-0.59375-3-1-3c0-0.40625,0.78125-1,3-1s2,0.0625,2,1s0,2.84375,0,4
		s0.375,2,1,2s4.21875-4.4375,4.5-6c1.21875,0,4,0,4.5,0c0,0.53125-4,6.0625-4,6.5s4,4.5,4,5s-0.875,0.5-2,0.5s-1.90625,0-2.5,0
		s-3.15625-3-4.5-3s-0.28125,3-1.5,3s1.71875,0-2,0S1.03125,9.40625,0.5,6.5z"/>
</g>
<g>
</g>
<g>
</g>
<g>
</g>
<g>
</g>
<g>
</g>
<g>
</g>
<g>
</g>
<g>
</g>
<g>
</g>
<g>
</g>
<g>
</g>
<g>
</g>
<g>
</g>
<g>
</g>
<g>
</g>
</svg>
