<?xml version="1.0" encoding="iso-8859-1"?>
<!-- Generator: Adobe Illustrator 21.0.0, SVG Export Plug-In . SVG Version: 6.00 Build 0)  -->
<svg version="1.1" id="Layer_1" xmlns="http://www.w3.org/2000/svg" xmlns:xlink="http://www.w3.org/1999/xlink" x="0px" y="0px"
	 viewBox="0 0 30 30" enable-background="new 0 0 30 30" xml:space="preserve">
<g>
	<path fill="#303C42" d="M15,29.999939c-0.4755859,0-0.9521484-0.1269531-1.3769531-0.3798828L3.3652344,23.524353
		C2.5234375,23.0233765,2,22.0927124,2,21.0956421V8.9032593C2,7.906189,2.5234375,6.9765015,3.3652344,6.4755249
		l10.2578125-6.0957031c0.8486328-0.5058594,1.9033203-0.5068359,2.7539063,0l2.1904297,1.3017578
		c0.0673828,0.0400391,0.125,0.0966797,0.1669922,0.1630859C19.5,3.0585327,18.9091797,5.3114624,17.1933594,7.7245483
		c-1.65625,2.3291016-3.9667969,3.5820313-6.4677734,3.4794922c-0.0820313-0.0029297-0.1611328-0.0253906-0.2324219-0.0664063
		C9.8115234,10.7489624,9,11.2802124,9,11.999939c0,0.5517578,0.4482422,1,1,1c0.421875,0,0.7988281-0.2705078,0.9384766-0.6738281
		c0.0703125-0.2001953,0.2587891-0.3349609,0.4716797-0.3359375c1.7998047-0.0048828,2.4238281-0.2666016,2.6308594-0.4853516l0,0
		c0.1875-0.2021484,0.5048828-0.2119141,0.7060547-0.0205078c0.2011719,0.1894531,0.2099609,0.5058594,0.0205078,0.7060547
		c0,0.0009766-0.0009766,0.0019531-0.0009766,0.0019531c-0.1113281,0.1181641-0.2480469,0.2685547-0.4033203,0.4394531
		c-0.9736328,1.0732422-2.6025391,2.8691406-3.9960938,3.3603516c-0.0732422,0.0263672-0.1533203,0.0351563-0.2314453,0.0244141
		L10,15.999939c-0.5517578,0-1,0.4482422-1,1s0.4482422,1,1,1s1-0.4482422,1-1c0-0.0625-0.0097656-0.1230469-0.0195313-0.1826172
		c-0.0332031-0.1962891,0.0527344-0.3925781,0.2197266-0.5009766c1.5263672-0.9990234,3.5166016-2.359375,3.5175781-2.3603516
		c0.171875-0.1162109,0.3984375-0.1162109,0.5703125,0.0039063c0.1699219,0.1201172,0.2480469,0.3339844,0.1953125,0.5351563
		c-0.0459108,0.1777344-1.1464844,4.3759766-1.9951172,6.2695313c-0.0634766,0.1416016-0.1884766,0.2451172-0.3388672,0.2822266
		C12.4726563,21.2098999,12,21.8075562,12,22.499939c0,0.8271484,0.6728516,1.5,1.5,1.5s1.5-0.6728516,1.5-1.5
		c0-0.2822266-0.0830078-0.5615234-0.2392578-0.8066406c-0.1074219-0.1669922-0.1054688-0.3818359,0.0048828-0.546875
		c0.0214844-0.0322266,0.0458984-0.0605469,0.0722656-0.0859375c0.1152344-0.3105469,0.2480469-0.6953125,0.3935547-1.1171875
		c1.1708984-3.3935547,1.8115234-4.8125,2.7451172-4.8125c1.0703125,0,2.0859241,1.8623047,2.2783203,2.2353516
		c0.0888672,0.171875,0.0703125,0.3789063-0.046875,0.5332031C20.0722656,18.0770874,20,18.2850952,20,18.499939
		c0,0.5517578,0.4482422,1,1,1s1-0.4482422,1-1c0-0.4257813-0.2753906-0.8046875-0.6855469-0.9423828
		c-0.0849609-0.0283203-0.1621094-0.0800781-0.2207031-0.1484375c-1.0078125-1.1767578-2.4267578-3.484375-2.4267578-4.9306641
		c0-1.3730469,0.6865234-3.0898438,1.8828125-4.7099609l0.1982422-0.2714844
		c0.8203125-1.1269531,1.8320313-2.53125,3.6757813-2.2890625c0.0673828,0.0087891,0.1318359,0.03125,0.1904297,0.0664063
		l2.0205078,1.2011719C27.4765625,6.9765015,28,7.906189,28,8.9032593v12.1923828
		c0,0.9970703-0.5234375,1.9277344-1.3652344,2.4287109l-10.2578125,6.0957031
		C15.9521484,29.8729858,15.4765625,29.9989624,15,29.999939z M15,1.0009155c-0.2998047,0-0.5986328,0.0791016-0.8652344,0.2382813
		L3.8769531,7.3348999C3.3359375,7.656189,3,8.2577515,3,8.9032593v12.1923828c0,0.6464844,0.3359375,1.2480469,0.8769531,1.5693359
		l10.2578125,6.0957031c0.5341797,0.3193359,1.1982422,0.3183594,1.7304688,0l10.2578125-6.0957031
		C26.6640625,22.343689,27,21.7421265,27,21.0956421V8.9032593c0-0.6455078-0.3359375-1.2470703-0.8769531-1.5683594l0,0
		l-1.9267578-1.1455078c-1.1816406-0.0976563-1.8925781,0.8691406-2.6396484,1.8964844l-0.2021484,0.2763672
		c-1.0722656,1.4521484-1.6875,2.953125-1.6875,4.1162109c0,0.9912109,1.0927734,2.9658203,2.1054688,4.1835938
		C22.5126953,16.9725952,23,17.6932983,23,18.499939c0,1.1025391-0.8974609,2-2,2s-2-0.8974609-2-2
		c0-0.3242188,0.0791016-0.6386719,0.2314453-0.9248047c-0.4941406-0.8681641-1.0556641-1.4287109-1.2568359-1.4443359
		c-0.4492188,0.2314453-1.3945313,2.9697266-1.7978516,4.1386719c-0.1533203,0.4453125-0.2929688,0.8505859-0.4140625,1.1738281
		C15.9189453,21.7753296,16,22.1347046,16,22.499939c0,1.3789063-1.1210938,2.5-2.5,2.5s-2.5-1.1210938-2.5-2.5
		c0-1.0683594,0.6728516-2.0019531,1.6660156-2.3515625c0.5126953-1.2216797,1.1201172-3.2705078,1.4951172-4.6054688
		C13.5322266,15.9677124,12.7304688,16.5067749,12,16.9872437c0,0.0039063,0,0.0087891,0,0.0126953c0,1.1025391-0.8974609,2-2,2
		s-2-0.8974609-2-2s0.8974609-2,2-2c0.0478516,0,0.0947266,0.0029297,0.140625,0.0087891
		c0.7998047-0.3300781,1.7802734-1.2441406,2.5800781-2.0751953c-0.328125,0.0322266-0.6640625,0.0478516-0.9873047,0.0537109
		C11.3828125,13.6044312,10.7246094,13.999939,10,13.999939c-1.1025391,0-2-0.8974609-2-2s0.8974609-2,2-2
		c0.3017578,0,0.5947266,0.0693359,0.8720703,0.2070313c1.5029297,0.0214844,3.6855469-0.5039063,5.5068359-3.0625
		c1.5722656-2.2109375,1.9072266-3.9355469,1.5605469-4.6728516l-2.0742188-1.2324219
		C15.5986328,1.0800171,15.2988281,1.0009155,15,1.0009155z"/>
</g>
<g>
</g>
<g>
</g>
<g>
</g>
<g>
</g>
<g>
</g>
<g>
</g>
<g>
</g>
<g>
</g>
<g>
</g>
<g>
</g>
<g>
</g>
<g>
</g>
<g>
</g>
<g>
</g>
<g>
</g>
</svg>
