<?xml version="1.0" encoding="iso-8859-1"?>
<!-- Generator: Adobe Illustrator 21.0.0, SVG Export Plug-In . SVG Version: 6.00 Build 0)  -->
<svg version="1.1" id="Layer_1" xmlns="http://www.w3.org/2000/svg" xmlns:xlink="http://www.w3.org/1999/xlink" x="0px" y="0px"
	 viewBox="0 0 24 24" enable-background="new 0 0 24 24" xml:space="preserve">
<g>
	<path fill="#303C42" d="M21.9023266,18.7036133c-0.125-0.1694336-0.3408203-0.2436523-0.5439453-0.1831055
		C21.3076,18.5351563,16.3105297,20,11.9999828,20c-4.59375,0-9.8535156-1.5610352-11.1464844-2.8535156
		c-0.1914063-0.1904297-0.4980469-0.1962891-0.6943359-0.012207c-0.1972656,0.1835938-0.2128906,0.4902344-0.0371094,0.6938477
		C0.3056471,18.0390625,4.7001781,23,11.9999828,23c7.3388672,0,9.8134766-3.5698242,9.9150391-3.7216797
		C22.0322094,19.1030273,22.0273266,18.8735352,21.9023266,18.7036133z"/>
	<path fill="#303C42" d="M21.9999828,16.5c-1.2861328,0-2.6240234,0.5117188-2.6806641,0.5336914
		c-0.2578125,0.0996094-0.3857422,0.3891602-0.2851563,0.6469727c0.0986328,0.2583008,0.390625,0.3842773,0.6464844,0.2856445
		C19.6923656,17.9614258,20.8984203,17.5,21.9999828,17.5c1,0,1,0.2543945,1,0.5
		c0,0.7084961-0.8515625,2.0229492-1.3886719,2.6850586c-0.1738396,0.2143555-0.140625,0.5292969,0.0732422,0.703125
		C21.7773266,21.4633789,21.8886547,21.5,21.9999828,21.5c0.1455078,0,0.2890625-0.0629883,0.3876953-0.1845703
		C22.5527172,21.1118164,23.9999828,19.2929688,23.9999828,18C23.9999828,16.5,22.4951,16.5,21.9999828,16.5z"/>
	<path fill="#303C42" d="M6.4999828,12c0,2.3925781,1.6074219,4,4,4c2.2480469,0,3.4238281-0.6508789,4.0283203-1.2456055
		c0.7773438,0.7270508,1.7109375,1.175293,1.7568359,1.1972656C16.354475,15.984375,16.4267406,16,16.4999828,16
		c0.1298828,0,0.2578125-0.0507813,0.3535156-0.1464844l2-2c0.1601563-0.1601563,0.1923828-0.4086914,0.0791016-0.6044922
		C18.9228344,13.2329102,17.9999828,11.6293945,17.9999828,10.5V6.4384766c0-3.4052734-1.8691406-5.4384766-5-5.4384766
		C9.5234203,1,7.6201,2.3984375,7.0097485,5.4003906C6.9833813,5.5332031,7.010725,5.6713867,7.0878735,5.7832031
		s0.1962891,0.1875,0.3300781,0.2099609l3,0.5c0.2666016,0.0473633,0.5107422-0.1245117,0.5693359-0.3818359
		C11.1679516,5.3217773,11.6064281,5,12.4999828,5c0.6708984,0,1.3554688,0.1948242,1.4804688,1.5371094
		c-1.015625,0.0869141-3.3476563,0.3505859-4.7001953,1.0141602C7.4091625,8.46875,6.4999828,9.9238281,6.4999828,12z
		 M11.9999828,12.5c-0.6640625,0-1-0.3364258-1-1c0-1.5478516,1.8007813-1.9116211,2.9765625-1.9838867
		C13.7753735,11.6953125,12.3281078,12.4960938,11.9999828,12.5z"/>
</g>
<g>
</g>
<g>
</g>
<g>
</g>
<g>
</g>
<g>
</g>
<g>
</g>
<g>
</g>
<g>
</g>
<g>
</g>
<g>
</g>
<g>
</g>
<g>
</g>
<g>
</g>
<g>
</g>
<g>
</g>
</svg>
