<?xml version="1.0" encoding="iso-8859-1"?>
<!-- Generator: Adobe Illustrator 21.0.0, SVG Export Plug-In . SVG Version: 6.00 Build 0)  -->
<svg version="1.1" id="Layer_1" xmlns="http://www.w3.org/2000/svg" xmlns:xlink="http://www.w3.org/1999/xlink" x="0px" y="0px"
	 viewBox="0 0 30 30" enable-background="new 0 0 30 30" xml:space="preserve">
<g id="XMLID_1730_">
	<path fill="#303C42" d="M13.7392807,28c-5.5571289,0-8.0126953-13.53125-8.605957-17.4404297L3.3813703,12.371582
		c-0.1489258,0.1542969-0.378418,0.1958008-0.5727539,0.1044922l-2.5219727-1.1904297
		c-0.1342774-0.0634766-0.2333985-0.1831055-0.2705078-0.3271484c-0.0375977-0.1435547-0.0087891-0.2963867,0.078125-0.4169922
		C4.6279526,4.2368164,8.2402573,2,9.9565659,2c2.4658203,0,3.3251953,4.4521484,4.2348633,9.1655273
		C14.7480698,14.0498047,15.5102768,18,16.5000229,18c0.7421875-0.1757813,3.7797852-4.4995117,3.5136719-6.8227539
		C19.9511948,10.6289063,19.7099838,10,18.3911362,10h-1.8911133c-0.2763672,0-0.5-0.2236328-0.5-0.5
		c0-4.0654297,3.8725586-7.5,8.456543-7.5c3.0566406,0,5.543457,2.8945313,5.543457,6.4521484
		C30.0000229,15.0131836,20.118187,28,13.7392807,28z M5.4853745,8.9760742c0.0527344,0,0.1064453,0.0083008,0.1582031,0.0258789
		C5.8261948,9.0625,5.9575424,9.2226563,5.9814682,9.4135742C6.5967026,14.3051758,9.189476,27,13.7392807,27
		c5.8339844,0,15.2607422-12.4838867,15.2607422-18.5478516C29.0000229,5.4458008,26.961937,3,24.4565659,3
		c-3.8491211,0-7.1293945,2.699707-7.4335938,6h1.3681641c0.8813477,0,1.559082,0.2368164,2.0141602,0.7036133
		c0.4140625,0.4248047,0.6240234,1.0170898,0.6240234,1.7597656C21.0293198,14.1918945,17.9033432,19,16.5000229,19
		c-1.8149414,0-2.4663086-3.3735352-3.2905273-7.6445313C12.4912338,7.6328125,11.5971909,3,9.9565659,3
		c-1.0810547,0-4.2597656,1.6118164-8.6967773,7.6391602l1.6518555,0.7797852L5.1259995,9.128418
		C5.2217026,9.0292969,5.3520737,8.9760742,5.4853745,8.9760742z"/>
</g>
<g>
</g>
<g>
</g>
<g>
</g>
<g>
</g>
<g>
</g>
<g>
</g>
<g>
</g>
<g>
</g>
<g>
</g>
<g>
</g>
<g>
</g>
<g>
</g>
<g>
</g>
<g>
</g>
<g>
</g>
</svg>
