<?xml version="1.0" encoding="iso-8859-1"?>
<!-- Generator: Adobe Illustrator 21.0.0, SVG Export Plug-In . SVG Version: 6.00 Build 0)  -->
<svg version="1.1" id="Layer_1" xmlns="http://www.w3.org/2000/svg" xmlns:xlink="http://www.w3.org/1999/xlink" x="0px" y="0px"
	 viewBox="0 0 24 24" enable-background="new 0 0 24 24" xml:space="preserve">
<g>
	<path fill="#303C42" d="M23.5,0h-21C2.3105469,0,2.1376953,0.1069336,2.0527344,0.2763672l-2,4
		C0.0185547,4.3457031,0,4.4223633,0,4.5v16C0,20.7763672,0.2236328,21,0.5,21H6v2.5C6,23.7763672,6.2236328,24,6.5,24h2
		c0.1328125,0,0.2597656-0.0527344,0.3535156-0.1464844L11.7070313,21H17.5c0.1328125,0,0.2597656-0.0527344,0.3535156-0.1464844
		l6-6C23.9472656,14.7597656,24,14.6328125,24,14.5v-14C24,0.2236328,23.7763672,0,23.5,0z M22,13.5
		c0,0.1328125-0.0527344,0.2597656-0.1464844,0.3535156l-4,4C17.7597656,17.9472656,17.6328125,18,17.5,18h-5.7929688
		l-2.8535156,2.8535156C8.7578125,20.9492188,8.6298828,21,8.5,21c-0.0644531,0-0.1298828-0.012207-0.1914063-0.0380859
		C8.1220703,20.8847656,8,20.7021484,8,20.5V18H3.5C3.2236328,18,3,17.7763672,3,17.5v-15C3,2.2236328,3.2236328,2,3.5,2h18
		C21.7763672,2,22,2.2236328,22,2.5V13.5z"/>
	<path fill="#303C42" d="M9.5,6C9.2236328,6,9,6.2236328,9,6.5v6C9,12.7763672,9.2236328,13,9.5,13s0.5-0.2236328,0.5-0.5v-6
		C10,6.2236328,9.7763672,6,9.5,6z"/>
	<path fill="#303C42" d="M15.5,6C15.2236328,6,15,6.2236328,15,6.5v6c0,0.2763672,0.2236328,0.5,0.5,0.5s0.5-0.2236328,0.5-0.5v-6
		C16,6.2236328,15.7763672,6,15.5,6z"/>
</g>
<g>
</g>
<g>
</g>
<g>
</g>
<g>
</g>
<g>
</g>
<g>
</g>
<g>
</g>
<g>
</g>
<g>
</g>
<g>
</g>
<g>
</g>
<g>
</g>
<g>
</g>
<g>
</g>
<g>
</g>
</svg>
