<?xml version="1.0" encoding="iso-8859-1"?>
<!-- Generator: Adobe Illustrator 21.0.0, SVG Export Plug-In . SVG Version: 6.00 Build 0)  -->
<svg version="1.1" id="Layer_1" xmlns="http://www.w3.org/2000/svg" xmlns:xlink="http://www.w3.org/1999/xlink" x="0px" y="0px"
	 viewBox="0 0 30 30" enable-background="new 0 0 30 30" xml:space="preserve">
<g id="XMLID_1788_">
	<path fill="#303C42" d="M8.9477539,30c-0.1484375,0-0.2954102-0.065918-0.3935547-0.190918
		C7.3955078,28.3359375,7.6552734,26.75,7.6889648,26.5742188l2.7524414-12.3691406
		c-0.0151367-0.09375-0.6357422-1.5209961-0.6357422-2.5512695C9.8056641,10.296875,10.5839844,8,13.5,8
		c1.1801758,0,2.0283203,0.2475586,2.5214844,0.7358398c0.5371094,0.53125,0.5351563,1.2329102,0.5341797,1.6103516
		c0,0.6650391-0.4697266,3.6103516-1.8779297,5.0019531C14.6386719,16.3891602,15.3881836,17.5,17.5,17.5
		c2.3364258,0,5-3.7290039,5-7c0-3.5839844-3.1401367-6.5-7-6.5c-5.0092773,0-8,2.6166992-8,7
		c0,1.4125977,0.7602539,2.5351563,1.3974609,3.2280273c0.1186523,0.128418,0.1611328,0.3095703,0.112793,0.4775391
		L8.0083008,18.168457c-0.0415039,0.1435547-0.1455078,0.2612305-0.2827148,0.3203125
		c-0.1386719,0.0576172-0.2949219,0.0537109-0.4272461-0.0151367C5.7983398,17.6992188,3,14.3095703,3,10.5917969
		C3,5.7055664,6.3100586,0,15.6386719,0C24.6069336,0,27,6.6577148,27,10.5917969C27,14.4575195,25.1044922,21,18,21
		c-2.2851563,0-3.5351563-1.0356445-3.5473633-1.0458984l0,0c-0.0029297,0-0.1269531-0.0263672-0.1264648-0.0268555
		c-0.0444336,0.0117188-0.0800781,0.0415039-0.0952148,0.0805664c-0.7226563,1.9731445-2.4018555,6.5209961-2.9697266,7.7392578
		c-0.4506836,0.96875-1.4643555,1.7709961-2.0283203,2.1635742C9.1459961,29.9707031,9.0463867,30,8.9477539,30z M13.5,9
		c-2.5644531,0-2.6943359,2.2104492-2.6943359,2.6538086c0,0.6064453,0.3330078,1.5917969,0.5429688,2.0703125
		c0.0966797,0.2148438,0.121582,0.4570313,0.0698242,0.6953125l-2.75,12.3554688
		c-0.0063477,0.0332031-0.1796875,0.9990234,0.3994141,2.012207c0.4418945-0.3510742,1.0195313-0.887207,1.2871094-1.4619141
		c0.5668945-1.2172852,2.3706055-6.1147461,2.909668-7.5869141c0.1650391-0.4311523,0.4570313-0.6884766,0.8144531-0.7797852
		c0.3266602-0.0864258,0.7358398-0.0029297,1.0166016,0.2294922C15.0986328,19.1904297,16.1494141,20,18,20
		c7.7753906,0,8-8.4453125,8-9.4082031C26,7.0292969,23.8178711,1,15.6386719,1C4.5610352,1,4,8.9902344,4,10.5917969
		c0,2.7578125,1.8828125,5.5463867,3.2373047,6.6425781l0.7358398-2.5424805C7.2617188,13.8579102,6.5,12.5927734,6.5,11
		c0-4.9345703,3.4487305-8,9-8c4.4111328,0,8,3.3642578,8,7.5c0,3.5263672-2.8251953,8-6,8
		c-3.0478516,0-3.8613281-1.9248047-3.8613281-3.0620117c0-0.3037109,0.1196289-0.5883789,0.3369141-0.8022461
		C15.125,13.5,15.5556641,10.8081055,15.5556641,10.3447266c0.0009766-0.2954102,0.0019531-0.6616211-0.2373047-0.8979492
		C15.03125,9.1625977,14.3686523,9,13.5,9z"/>
</g>
<g>
</g>
<g>
</g>
<g>
</g>
<g>
</g>
<g>
</g>
<g>
</g>
<g>
</g>
<g>
</g>
<g>
</g>
<g>
</g>
<g>
</g>
<g>
</g>
<g>
</g>
<g>
</g>
<g>
</g>
</svg>
