<?xml version="1.0" encoding="iso-8859-1"?>
<!-- Generator: Adobe Illustrator 21.0.0, SVG Export Plug-In . SVG Version: 6.00 Build 0)  -->
<svg version="1.1" id="Layer_1" xmlns="http://www.w3.org/2000/svg" xmlns:xlink="http://www.w3.org/1999/xlink" x="0px" y="0px"
	 viewBox="0 0 30 30" enable-background="new 0 0 30 30" xml:space="preserve">
<path fill="#303C42" d="M29.5,4h-5C24.2236328,4,24,4.2236328,24,4.5v1C24,5.7763672,24.2236328,6,24.5,6h0.690918
	l-6.6401367,13.2802734l-1.9487305-4.8710938l4.2124023-8.4287109L21.9916992,6
	c0.1162109-0.0117188,0.2626953-0.0498047,0.3588867-0.1435547C22.4462891,5.7626953,22.5,5.6337891,22.5,5.5v-1
	C22.5,4.2236328,22.2763672,4,22,4h-5c-0.2763672,0-0.5,0.2236328-0.5,0.5v1C16.5,5.7763672,16.7236328,6,17,6h0.690918
	l-2.4736328,4.9472656L13.2382813,6H14c0.2763672,0,0.5-0.2236328,0.5-0.5v-1C14.5,4.2236328,14.2763672,4,14,4H8
	C7.7236328,4,7.5,4.2236328,7.5,4.5v1C7.5,5.7763672,7.7236328,6,8,6h1.6616211l3.5683594,8.921875l-2.1791992,4.3583984
	L5.7382813,6H6.5C6.7763672,6,7,5.7763672,7,5.5v-1C7,4.2236328,6.7763672,4,6.5,4h-6C0.2236328,4,0,4.2236328,0,4.5v1
	C0,5.7763672,0.2236328,6,0.5,6h1.6616211l7.8740234,19.6855469C10.1088867,25.8681641,10.2827148,25.9912109,10.4794922,26
	c0.0068359,0,0.0136719,0,0.0205078,0c0.1889648,0,0.3623047-0.1064453,0.4472656-0.2763672l3.6679688-7.3388672
	l2.9204102,7.3007813C17.6088867,25.8681641,17.7827148,25.9912109,17.9794922,26
	c0.1948242,0,0.3793945-0.1005859,0.4677734-0.2763672l9.8671875-19.7431641L29.4916992,6
	c0.1308594-0.0117188,0.2626953-0.0498047,0.3588867-0.1435547C29.9462891,5.7626953,30,5.6337891,30,5.5v-1
	C30,4.2236328,29.7763672,4,29.5,4z"/>
<g>
</g>
<g>
</g>
<g>
</g>
<g>
</g>
<g>
</g>
<g>
</g>
<g>
</g>
<g>
</g>
<g>
</g>
<g>
</g>
<g>
</g>
<g>
</g>
<g>
</g>
<g>
</g>
<g>
</g>
</svg>
