<?xml version="1.0" encoding="iso-8859-1"?>
<!-- Generator: Adobe Illustrator 21.0.0, SVG Export Plug-In . SVG Version: 6.00 Build 0)  -->
<svg version="1.1" id="Layer_1" xmlns="http://www.w3.org/2000/svg" xmlns:xlink="http://www.w3.org/1999/xlink" x="0px" y="0px"
	 viewBox="0 0 24 24" enable-background="new 0 0 24 24" xml:space="preserve">
<g>
	<path fill="#303C42" d="M12,0C5.3833008,0,0,5.3828125,0,12c0,2.0429688,0.5302734,4.0644531,1.5336914,5.8544922
		c0.0136719,0.0400391,0.0322266,0.0791016,0.0566406,0.1162109c0.3725586,0.5683594-0.7944336,1.6962891-1.3837891,2.1240234
		c-0.1425781,0.1035156-0.2202148,0.2753906-0.2041016,0.4501953c0.015625,0.1757813,0.1230469,0.3300781,0.2822266,0.40625
		c0.0805664,0.0380859,1.9023438,0.8867188,3.8540039,0.0986328C6.328125,22.9550781,9.1069336,24,12,24
		c6.6166992,0,12-5.3828125,12-12S18.6166992,0,12,0z M12,23c-2.7514648,0-5.3911133-1.0322266-7.4316406-2.9072266
		c-0.0942383-0.0869141-0.2158203-0.1318359-0.3383789-0.1318359c-0.0756836,0-0.1513672,0.0166016-0.222168,0.0517578
		c-0.9199219,0.4570313-1.8525391,0.4082031-2.4902344,0.2792969c0.6879883-0.6660156,1.5229492-1.7558594,0.9760742-2.7578125
		c-0.0097656-0.0273438-0.0219727-0.0537109-0.0371094-0.0800781C1.5039063,15.7919922,1,13.9052734,1,12
		C1,5.9345703,5.9345703,1,12,1s11,4.9345703,11,11S18.0654297,23,12,23z"/>
	<path fill="#303C42" d="M5.5,10C5.2236328,10,5,10.2236328,5,10.5v4C5,14.7763672,5.2236328,15,5.5,15S6,14.7763672,6,14.5v-4
		C6,10.2236328,5.7763672,10,5.5,10z"/>
	<path fill="#303C42" d="M12,10c-0.6002197,0-1.1331787,0.2712402-1.5,0.6912231C10.1331787,10.2712402,9.6002197,10,9,10
		c-0.3823242,0-0.7397461,0.1074219-1.0439453,0.2949219C7.8774414,10.1210938,7.703125,10,7.5,10C7.2236328,10,7,10.2236328,7,10.5
		v4C7,14.7763672,7.2236328,15,7.5,15S8,14.7763672,8,14.5V12c0-0.5517578,0.4487305-1,1-1s1,0.4482422,1,1v2.5
		c0,0.2763672,0.2236328,0.5,0.5,0.5s0.5-0.2236328,0.5-0.5V12c0-0.5517578,0.4487305-1,1-1s1,0.4482422,1,1v2.5
		c0,0.2763672,0.2236328,0.5,0.5,0.5s0.5-0.2236328,0.5-0.5V12C14,10.8974609,13.1030273,10,12,10z"/>
	<path fill="#303C42" d="M17,10c-1.1030273,0-2,0.8974609-2,2v1c0,1.1025391,0.8969727,2,2,2s2-0.8974609,2-2v-1
		C19,10.8974609,18.1030273,10,17,10z M18,13c0,0.5517578-0.4487305,1-1,1s-1-0.4482422-1-1v-1c0-0.5517578,0.4487305-1,1-1
		s1,0.4482422,1,1V13z"/>
	<circle fill="#303C42" cx="5.5" cy="8.5" r="0.5"/>
</g>
<g>
</g>
<g>
</g>
<g>
</g>
<g>
</g>
<g>
</g>
<g>
</g>
<g>
</g>
<g>
</g>
<g>
</g>
<g>
</g>
<g>
</g>
<g>
</g>
<g>
</g>
<g>
</g>
<g>
</g>
</svg>
