<?xml version="1.0" encoding="UTF-8" standalone="no"?>
<svg width="45px" height="45px" viewBox="0 0 45 45" version="1.1" xmlns="http://www.w3.org/2000/svg" xmlns:xlink="http://www.w3.org/1999/xlink">
    <!-- Generator: Sketch 3.7.2 (28276) - http://www.bohemiancoding.com/sketch -->
    <title>Blogger-black</title>
    <desc>Created with Sketch.</desc>
    <defs></defs>
    <g id="Icons" stroke="none" stroke-width="1" fill="none" fill-rule="evenodd">
        <g id="Black" transform="translate(-601.000000, -363.000000)" fill="#000000">
            <path d="M631.512829,396.302813 L615.440593,396.302813 C613.931748,396.302813 612.709429,395.069531 612.709429,393.597188 C612.709429,392.107969 613.931748,390.890156 615.440593,390.890156 L631.512829,390.890156 C633.006148,390.890156 634.228467,392.107969 634.228467,393.597188 C634.228467,395.069531 633.006148,396.302813 631.512829,396.302813 M615.440593,374.622656 L623.348974,374.622656 C624.857819,374.622656 626.080139,375.840469 626.080139,377.328281 C626.080139,378.8175 624.857819,380.049375 623.348974,380.049375 L615.440593,380.049375 C613.931748,380.049375 612.709429,378.8175 612.709429,377.328281 C612.709429,375.840469 613.931748,374.622656 615.440593,374.622656 M644.852487,380.410781 C643.902578,380.004375 639.827708,380.455781 638.695722,379.433438 C637.896838,378.696562 637.846026,377.363437 637.534094,375.584531 C637.011856,372.606094 636.794492,371.931094 636.251082,370.758281 C634.275045,366.578906 629.538203,363 625.234678,363 L615.259927,363 C607.412239,363 601,369.405469 601,377.222812 L601,393.806719 C601,401.61 607.412239,408 615.259927,408 L631.648328,408 C639.496017,408 645.8645,401.61 645.909667,393.806719 L646,382.320469 C646,382.320469 646,380.900156 644.852487,380.410781" id="Blogger"></path>
        </g>
    </g>
</svg>