<?xml version="1.0" encoding="UTF-8" standalone="no"?>
<svg width="48px" height="48px" viewBox="0 0 48 48" version="1.1" xmlns="http://www.w3.org/2000/svg" xmlns:xlink="http://www.w3.org/1999/xlink">
    <!-- Generator: Sketch 3.7.2 (28276) - http://www.bohemiancoding.com/sketch -->
    <title>Fancy-color</title>
    <desc>Created with Sketch.</desc>
    <defs></defs>
    <g id="Icons" stroke="none" stroke-width="1" fill="none" fill-rule="evenodd">
        <g id="Color-" transform="translate(-200.000000, -1043.000000)" fill="#46A5E3">
            <path d="M205.365333,1043 L242.634729,1043 C245.597867,1043 248,1045.40477 248,1048.37111 L248,1085.62877 C248,1088.59529 245.597867,1091 242.634729,1091 L205.365333,1091 C202.402133,1091 200,1088.59529 200,1085.62877 L200,1048.37111 C200,1045.40477 202.402133,1043 205.365333,1043 Z M231.771231,1073.95736 L226.448439,1073.95736 L226.448439,1080.2379 C226.448439,1081.59012 225.35222,1082.68627 224,1082.68627 C222.647718,1082.68627 221.551498,1081.59012 221.551498,1080.2379 L221.551498,1073.95736 L216.228769,1073.95736 C215.288094,1073.95736 214.52549,1073.19482 214.52549,1072.25415 L214.52549,1061.18334 C214.52549,1061.14726 214.52869,1061.112 214.530886,1061.07655 C214.644643,1055.943 218.838902,1051.81569 224,1051.81569 C229.161098,1051.81569 233.355357,1055.943 233.469114,1061.07655 C233.47131,1061.112 233.47451,1061.14726 233.47451,1061.18334 L233.47451,1072.25415 C233.47451,1073.19482 232.711906,1073.95736 231.771231,1073.95736 Z" id="Fancy"></path>
        </g>
    </g>
</svg>