<?xml version="1.0" encoding="UTF-8" standalone="no"?>
<svg width="56px" height="48px" viewBox="0 0 56 48" version="1.1" xmlns="http://www.w3.org/2000/svg" xmlns:xlink="http://www.w3.org/1999/xlink">
    <!-- Generator: Sketch 3.7.2 (28276) - http://www.bohemiancoding.com/sketch -->
    <title>Feedly-black</title>
    <desc>Created with Sketch.</desc>
    <defs></defs>
    <g id="Icons" stroke="none" stroke-width="1" fill="none" fill-rule="evenodd">
        <g id="Black" transform="translate(-696.000000, -660.000000)" fill="#000000">
            <path d="M727.410375,688.030455 C724.766919,690.645351 722.11489,693.256851 719.486862,695.888726 C718.749711,696.785262 717.450269,696.501699 716.438829,696.418497 C715.46339,695.797035 714.705668,694.878426 713.922231,694.041319 C713.399368,693.550602 713.887945,692.908764 714.290806,692.540301 C716.937692,689.928801 719.581149,687.317302 722.21432,684.692218 C722.694325,684.228668 723.128044,683.695501 723.709193,683.344018 C724.292056,683.096112 724.717204,683.683615 725.104636,684.013024 C725.984074,684.946915 726.986942,685.76874 727.789237,686.768853 C728.142383,687.215422 727.732665,687.71463 727.410375,688.030455 M727.688093,700.386687 C726.947513,701.211907 726.174362,702.021846 725.30521,702.711227 C724.506344,702.901402 723.657764,702.857254 722.850327,702.741791 C722.073747,702.352953 721.54917,701.60584 720.913163,701.030223 C720.460587,700.593841 719.752579,699.938419 720.335442,699.308467 C721.319453,698.225153 722.372036,697.19108 723.460619,696.206249 C723.865195,695.868351 724.470344,696.036451 724.797776,696.403216 C725.728643,697.294657 726.644082,698.201381 727.542377,699.12848 C727.895524,699.439212 728.08924,700.028412 727.688093,700.386687 M713.080507,689.538265 C712.314213,690.441593 710.96677,690.203875 709.929616,690.044264 C709.015892,689.319225 708.179312,688.478723 707.442161,687.580489 C707.015299,687.08298 707.562162,686.565094 707.89988,686.213612 C712.542216,681.635846 717.167408,677.037704 721.801172,672.453147 C722.423465,671.85206 722.987471,671.184752 723.686907,670.670263 C724.288628,670.371418 724.753204,671.016652 725.154351,671.359645 C726.00636,672.259577 726.971514,673.057629 727.753236,674.020386 C728.156098,674.49752 727.713807,675.051063 727.360661,675.392358 C722.59661,680.102566 717.82913,684.812775 713.080507,689.538265 M748.316314,681.600188 C742.040247,675.38217 735.762465,669.167547 729.491541,662.94783 C728.574388,662.054691 727.712093,661.0359 726.501794,660.524807 C725.300067,659.959378 723.906338,659.877875 722.615467,660.15125 C721.48574,660.407646 720.465729,661.020618 719.649721,661.828859 C712.593645,668.81946 705.535855,675.81176 698.476351,682.800663 C697.66377,683.60381 697.029478,684.607319 696.770618,685.722894 C696.191183,687.73161 696.918048,689.983137 698.40435,691.42982 C703.37926,696.359068 708.359314,701.283223 713.33251,706.215867 C714.443379,707.338235 716.010253,707.991959 717.599413,707.973281 C721.669171,707.997053 725.737215,707.969885 729.805258,707.986865 C731.636135,708.102328 733.487584,707.453698 734.783598,706.15474 C739.292217,701.702625 743.787123,697.23353 748.294028,692.778019 C749.02775,692.041094 749.823188,691.350014 750.42148,690.49423 C751.518634,688.928689 751.700351,686.818094 751.059201,685.0437 C750.558624,683.619092 749.355183,682.635959 748.316314,681.600188" id="Feedly"></path>
        </g>
    </g>
</svg>