<?xml version="1.0" encoding="UTF-8" standalone="no"?>
<svg width="41px" height="48px" viewBox="0 0 41 48" version="1.1" xmlns="http://www.w3.org/2000/svg" xmlns:xlink="http://www.w3.org/1999/xlink">
    <!-- Generator: Sketch 3.7.2 (28276) - http://www.bohemiancoding.com/sketch -->
    <title>Hanghout-color</title>
    <desc>Created with Sketch.</desc>
    <defs></defs>
    <g id="Icons" stroke="none" stroke-width="1" fill="none" fill-rule="evenodd">
        <g id="Color-" transform="translate(-504.000000, -860.000000)" fill="#7EB949">
            <path d="M544.68161,876.932109 C543.956147,872.960235 542.224179,869.490974 539.488303,866.530327 C538.333485,865.280443 537.039444,864.19436 535.611376,863.272336 C532.951085,861.555051 530.05313,860.502875 526.910496,860.130153 C526.527375,860.084508 526.138799,860.090507 525.761132,860 L523.049673,860 C523.020322,860.068598 522.957464,860.043558 522.907593,860.048253 C522.209403,860.110069 521.51459,860.189882 520.825491,860.321078 C515.789849,861.278835 511.654476,863.761648 508.45366,867.772124 C505.820903,871.070282 504.371016,874.853839 504.057766,879.072456 C503.906076,881.117079 504.05309,883.142662 504.499329,885.141379 C504.830762,886.628093 505.325832,888.064468 505.991294,889.437461 C506.049737,889.554312 506.1074,889.671162 506.166881,889.788013 C507.26014,891.949747 508.66639,893.876216 510.428748,895.540032 C511.356551,896.415889 512.348251,897.208281 513.42177,897.892952 C516.711158,899.98948 520.301849,901.088866 524.202673,901.137901 C524.442156,901.141292 524.507352,901.2005 524.505793,901.446199 C524.494884,903.542727 524.499559,905.639515 524.500079,907.736304 C524.500339,907.817682 524.506572,907.898799 524.511248,908 C524.578781,907.972352 524.621119,907.956703 524.661899,907.937402 C528.583243,906.087355 532.183804,903.749563 535.393711,900.819171 C536.032419,900.236222 536.643595,899.625365 537.231394,898.989208 C537.483086,898.717166 537.732699,898.440428 537.984909,898.168646 C538.374524,897.75028 538.711671,897.282878 539.078948,896.842341 C539.503109,896.33425 539.883892,895.794077 540.259481,895.250514 C541.08988,894.049144 541.831447,892.79587 542.454831,891.471912 C542.770159,890.80263 543.070423,890.128131 543.33614,889.437722 C543.344971,889.424681 543.356919,889.413204 543.362634,889.39912 C544.086798,887.508645 544.550959,885.552443 544.797975,883.545378 C544.88421,882.846362 544.940055,882.142911 544.97538,881.439983 C545.050705,879.926403 544.953301,878.421431 544.68161,876.932109 L544.68161,876.932109 Z M517.208307,889.755409 C516.930901,889.796098 516.75012,889.641428 516.646742,889.390252 C516.647781,888.615334 516.64856,887.841461 516.649599,887.066804 C516.663106,886.838841 516.571676,886.594447 516.753496,886.393349 C516.843627,886.293713 516.945706,886.225376 517.08363,886.190947 C517.487531,886.088703 517.896886,886.007064 518.264682,885.786665 C518.942093,885.380558 519.363656,884.794479 519.550671,884.030517 C519.579763,883.910275 519.607555,883.789252 519.635348,883.668489 C518.008835,883.665359 516.382843,883.66249 514.75633,883.660403 C514.61555,883.660142 514.476847,883.655187 514.339702,883.617106 C513.925152,883.50182 513.607746,883.122056 513.607226,882.692474 C513.604109,880.222964 513.609044,877.753192 513.610863,875.283682 C513.576836,874.889051 513.611122,874.519198 513.941516,874.237244 C514.120998,874.08466 514.318143,873.992327 514.55399,873.992327 C516.945446,873.991806 519.336903,873.993631 521.728359,873.991023 C522.361353,873.98998 522.717461,874.188398 522.717461,875.283682 C522.717461,875.465904 522.737981,881.007531 522.717461,883.698484 C522.704214,885.484367 522.011739,886.986209 520.709905,888.20401 C520.641853,888.267391 520.576138,888.33338 520.509643,888.398066 C519.83535,888.917111 519.105471,889.326871 518.277929,889.551704 C517.925977,889.647688 517.567012,889.702722 517.208307,889.755409 Z M531.417042,889.40564 C531.399899,889.415552 531.382496,889.425463 531.365353,889.435114 C530.90249,889.566571 530.435472,889.675596 529.958064,889.745498 C529.593904,889.799228 529.318576,889.592653 529.31416,889.224887 C529.310524,888.96719 529.308706,888.708971 529.306628,888.451013 C529.311043,887.989089 529.315459,887.527164 529.319875,887.0655 C529.317797,886.963517 529.31416,886.862316 529.31442,886.760854 C529.31494,886.406129 529.450785,886.256415 529.890011,886.155735 C530.446901,886.027669 530.970803,885.847177 531.404314,885.443156 C531.92458,884.958018 532.18718,884.352377 532.306662,883.667967 C530.804307,883.664837 529.302472,883.662229 527.799597,883.65936 C527.636219,883.659099 527.472581,883.661447 527.308942,883.658577 C526.695429,883.648405 526.275424,883.222475 526.275424,882.60301 C526.276203,880.164017 526.27958,877.725284 526.281138,875.286029 C526.281138,875.262555 526.278541,875.239081 526.276982,875.215606 C526.229709,874.759159 526.36036,874.385133 526.764261,874.131609 C526.921146,874.032495 527.091797,873.991806 527.272319,873.991806 C529.64793,873.990502 532.023282,873.992588 534.399154,873.989719 C535.031888,873.988937 535.391892,874.54986 535.391892,875.286029 C535.391892,875.624846 535.39423,881.014574 535.391893,883.710482 C535.389815,886.118698 533.88694,888.372244 531.67185,889.297397 C531.616005,889.321393 531.562758,889.352432 531.508212,889.380079 C531.547693,889.429115 531.594966,889.442678 531.644057,889.444504 C531.594966,889.442939 531.547433,889.429115 531.508212,889.380079 C531.508212,889.380079 531.447951,889.396772 531.417042,889.40564 Z" id="Hanghout"></path>
        </g>
    </g>
</svg>