<?xml version="1.0" encoding="UTF-8" standalone="no"?>
<svg width="48px" height="48px" viewBox="0 0 48 48" version="1.1" xmlns="http://www.w3.org/2000/svg" xmlns:xlink="http://www.w3.org/1999/xlink">
    <!-- Generator: Sketch 3.7.2 (28276) - http://www.bohemiancoding.com/sketch -->
    <title>Invision-black</title>
    <desc>Created with Sketch.</desc>
    <defs></defs>
    <g id="Icons" stroke="none" stroke-width="1" fill="none" fill-rule="evenodd">
        <g id="Black" transform="translate(-400.000000, -260.000000)" fill="#000000">
            <path d="M443.648727,260 L404.351273,260 C401.948182,260 400,261.948182 400,264.351273 L400,303.648727 C400,306.051818 401.948182,308 404.351273,308 L443.648727,308 C446.051818,308 448,306.051818 448,303.648727 L448,264.351273 C448,261.948182 446.051818,260 443.648727,260 L443.648727,260 Z M416.041636,275.102182 C417.637273,275.102182 418.973818,273.851455 418.973818,272.212364 C418.973818,270.574364 417.637273,269.324 416.041636,269.324 C414.446,269.324 413.109636,270.574364 413.109636,272.212364 C413.109636,273.851455 414.446,275.102182 416.041636,275.102182 L416.041636,275.102182 Z M409.961636,290.574727 C409.789455,291.307818 409.702909,292.099455 409.702909,292.745273 C409.702909,295.289818 411.082727,296.979091 414.015091,296.979091 C416.447091,296.979091 418.418545,295.534727 419.838,293.202909 L418.971273,296.681636 L423.800364,296.681636 L426.560364,285.611818 C427.250182,282.808909 428.586909,281.354182 430.613818,281.354182 C432.209273,281.354182 433.201091,282.346364 433.201091,283.984364 C433.201091,284.459091 433.157818,284.976 432.985455,285.536727 L431.562182,290.624909 C431.346545,291.358 431.260727,292.091636 431.260727,292.780909 C431.260727,295.196545 432.683455,296.963455 435.658727,296.963455 C438.202909,296.963455 440.229455,295.325636 441.350727,291.401455 L439.453636,290.668909 C438.504727,293.298 437.685455,293.773273 437.038727,293.773273 C436.391818,293.773273 436.046727,293.342364 436.046727,292.480364 C436.046727,292.092364 436.133273,291.661636 436.262364,291.143091 L437.642545,286.185818 C437.987273,285.021818 438.116909,283.989636 438.116909,283.041273 C438.116909,279.332909 435.874364,277.397636 433.157818,277.397636 C430.613818,277.397636 428.026364,279.692364 426.733091,282.107455 L427.681455,277.772545 L420.308,277.772545 L419.272909,281.590727 L422.722727,281.590727 L420.598545,290.095818 C418.930182,293.804182 415.865818,293.864364 415.481273,293.778182 C414.849818,293.635818 414.446,293.396 414.446,292.575455 C414.446,292.102 414.532182,291.422 414.747818,290.602 L417.982182,277.772545 L409.789455,277.772545 L408.754364,281.590727 L412.160727,281.590727 L409.961636,290.574727 L409.961636,290.574727 Z" id="Invision"></path>
        </g>
    </g>
</svg>