<?xml version="1.0" encoding="UTF-8" standalone="no"?>
<svg width="48px" height="48px" viewBox="0 0 48 48" version="1.1" xmlns="http://www.w3.org/2000/svg" xmlns:xlink="http://www.w3.org/1999/xlink">
    <!-- Generator: Sketch 3.7.2 (28276) - http://www.bohemiancoding.com/sketch -->
    <title>Scoopit-color</title>
    <desc>Created with Sketch.</desc>
    <defs></defs>
    <g id="Icons" stroke="none" stroke-width="1" fill="none" fill-rule="evenodd">
        <g id="Color-" transform="translate(-800.000000, -860.000000)" fill="#66AD2B">
            <path d="M800,908 L800,860 L848,860 L848,908 L800,908 Z M831.356406,874.477024 L832.20364,891.142232 C833.441231,891.117724 835.489297,891.124726 836.726888,891.13698 L837.56537,874.417505 L837.581124,867.707659 L831.352905,867.707659 L831.356406,874.477024 Z M825.891397,867.71291 L819.684184,867.709409 L819.692936,875.90547 L810.408373,875.90372 L810.422377,887.956236 L810.424127,900.022757 L816.587579,900.022757 L816.570074,880.157549 L819.680683,880.155799 L819.673681,894.415755 C819.673681,895.13523 819.717443,895.852954 819.810218,896.567177 C820.067539,898.618818 820.944532,899.677899 822.850808,900.056018 C824.951388,900.472648 827.347799,900.25733 829.455381,900.03151 L829.464133,895.786433 C829.322344,895.789934 828.047992,895.789934 827.907954,895.786433 C826.540826,895.739168 825.910652,895.161488 825.90365,893.79256 L825.886146,880.154048 L829.462383,880.155799 L829.464133,875.924726 L825.882645,875.922976 L825.891397,867.71291 Z M816.547318,867.71291 C814.791583,867.732166 812.197367,867.728665 810.443383,867.71291 L810.43288,873.025821 L816.542066,873.025821 L816.547318,867.71291 Z M831.358156,894.055142 L837.556617,894.055142 L837.556617,900.014004 L831.358156,900.014004 L831.358156,894.055142 Z" id="Scoopit"></path>
        </g>
    </g>
</svg>