<?xml version="1.0" encoding="UTF-8" standalone="no"?>
<svg width="48px" height="48px" viewBox="0 0 48 48" version="1.1" xmlns="http://www.w3.org/2000/svg" xmlns:xlink="http://www.w3.org/1999/xlink">
    <!-- Generator: Sketch 3.7.2 (28276) - http://www.bohemiancoding.com/sketch -->
    <title>Skype-black</title>
    <desc>Created with Sketch.</desc>
    <defs></defs>
    <g id="Icons" stroke="none" stroke-width="1" fill="none" fill-rule="evenodd">
        <g id="Black" transform="translate(-400.000000, -660.000000)" fill="#000000">
            <path d="M446.619944,689.095462 C446.967074,687.531907 447.147695,685.912711 447.147695,684.249 C447.147695,671.785081 436.900282,661.677621 424.253998,661.677621 C422.921919,661.677621 421.61524,661.791688 420.339605,662.008694 C418.293509,660.737263 415.87206,660 413.278457,660 C405.943556,660 400,665.859155 400,673.09268 C400,675.507564 400.66604,677.766649 401.823142,679.714137 C401.521167,681.177534 401.360301,682.696575 401.360301,684.249 C401.360301,696.718484 411.610536,706.823161 424.253998,706.823161 C425.687676,706.823161 427.087488,706.692401 428.447789,706.444792 C430.318909,707.435229 432.452493,708 434.724365,708 C442.056444,708 448,702.138063 448,694.910103 C448,692.820727 447.503293,690.8482 446.619944,689.095462 Z M435.997178,695.03808 C434.938852,696.518171 433.375353,697.686663 431.343368,698.515736 C429.336783,699.339245 426.932267,699.759346 424.19191,699.759346 C420.904045,699.759346 418.146754,699.189011 415.993415,698.06225 C414.455315,697.244305 413.188147,696.13702 412.225776,694.76265 C411.252117,693.382716 410.761054,692.011128 410.761054,690.684055 C410.761054,689.860546 411.082785,689.142758 411.714958,688.555729 C412.341486,687.971483 413.145814,687.67936 414.105362,687.67936 C414.889934,687.67936 415.570085,687.910276 416.120414,688.369327 C416.648166,688.811685 417.099718,689.465484 417.463782,690.302904 C417.870179,691.221005 418.310442,691.994436 418.776105,692.598157 C419.227658,693.187967 419.873942,693.680403 420.698024,694.067119 C421.527752,694.451052 422.648166,694.651365 424.022578,694.651365 C425.916275,694.651365 427.468485,694.250739 428.634055,693.46618 C429.777046,692.701095 430.330198,691.77743 430.330198,690.647887 C430.330198,689.760389 430.039511,689.059294 429.446849,688.508433 C428.82032,687.935316 427.999059,687.490176 427.002822,687.178578 C425.96143,686.861415 424.550329,686.51365 422.803387,686.151974 C420.424271,685.651191 418.406397,685.058599 416.803387,684.382542 C415.160865,683.695357 413.837253,682.741089 412.869238,681.547557 C411.887112,680.331768 411.387582,678.809946 411.387582,677.02104 C411.387582,675.318379 411.90969,673.779864 412.942615,672.455573 C413.964252,671.139628 415.460019,670.110242 417.387582,669.411928 C419.286924,668.719179 421.544685,668.368632 424.104421,668.368632 C426.147695,668.368632 427.945437,668.60233 429.446849,669.064163 C430.956726,669.525995 432.226717,670.149191 433.225776,670.91984 C434.233302,671.698835 434.984008,672.525126 435.452493,673.387585 C435.926623,674.25839 436.169332,675.123631 436.169332,675.96105 C436.169332,676.767866 435.853246,677.502347 435.229539,678.139454 C434.60301,678.784907 433.809972,679.110416 432.878645,679.110416 C432.031985,679.110416 431.365945,678.904538 430.908749,678.503912 C430.479774,678.128326 430.033866,677.544079 429.539981,676.709442 C428.969897,675.641106 428.278457,674.798122 427.485419,674.202747 C426.714958,673.624065 425.430856,673.334724 423.661336,673.334724 C422.024459,673.334724 420.686736,673.657451 419.696143,674.300122 C418.742239,674.914971 418.276576,675.624413 418.276576,676.464615 C418.276576,676.976526 418.426152,677.407755 418.736595,677.774996 C419.058325,678.170057 419.518344,678.509477 420.099718,678.798818 C420.700847,679.096505 421.321731,679.335768 421.942615,679.502695 C422.577611,679.677969 423.644403,679.936707 425.109125,680.270562 C426.963311,680.660059 428.665099,681.102417 430.169332,681.57816 C431.696143,682.056686 433.011289,682.646496 434.08937,683.339245 C435.184384,684.043123 436.0508,684.944531 436.668862,686.023996 C437.286924,687.111807 437.600188,688.447227 437.600188,690.002434 C437.600188,691.860894 437.058325,693.555208 435.997178,695.03808 Z" id="Skype"></path>
        </g>
    </g>
</svg>