<svg width="22.500000" height="22.675781" viewBox="3.750000 -47.050781 22.500000 22.675781" xmlns="http://www.w3.org/2000/svg"><path d="M3.750000 -36.738281C3.750000 -36.464844 3.837891 -36.240234 4.013672 -36.064453C4.189453 -35.888672 4.414062 -35.800781 4.687500 -35.800781C4.960938 -35.800781 5.185547 -35.888672 5.361328 -36.064453C5.537109 -36.240234 5.625000 -36.464844 5.625000 -36.738281L5.625000 -43.828125L24.667969 -24.843750C25.097656 -24.375000 25.527344 -24.375000 25.957031 -24.843750C26.152344 -25.000000 26.250000 -25.214844 26.250000 -25.488281C26.250000 -25.761719 26.152344 -25.976562 25.957031 -26.132812L6.972656 -45.175781L14.062500 -45.175781C14.335938 -45.175781 14.560547 -45.263672 14.736328 -45.439453C14.912109 -45.615234 15.000000 -45.839844 15.000000 -46.113281C15.000000 -46.386719 14.912109 -46.611328 14.736328 -46.787109C14.560547 -46.962891 14.335938 -47.050781 14.062500 -47.050781L4.687500 -47.050781C4.570312 -47.050781 4.453125 -47.031250 4.335938 -46.992188C4.218750 -46.953125 4.121094 -46.875000 4.042969 -46.757812C3.925781 -46.679688 3.847656 -46.582031 3.808594 -46.464844C3.769531 -46.347656 3.750000 -46.230469 3.750000 -46.113281ZM3.750000 -36.738281"></path></svg>