<svg width="15.039062" height="30.000000" viewBox="7.480469 -58.125000 15.039062 30.000000" xmlns="http://www.w3.org/2000/svg"><path d="M17.109375 -28.417969C17.304688 -28.222656 17.539062 -28.125000 17.812500 -28.125000C18.085938 -28.125000 18.300781 -28.222656 18.457031 -28.417969L22.089844 -31.992188C22.519531 -32.421875 22.519531 -32.861328 22.089844 -33.310547C21.660156 -33.759766 21.210938 -33.769531 20.742188 -33.339844L18.750000 -31.347656L18.750000 -47.812500C18.750000 -48.046875 18.662109 -48.261719 18.486328 -48.457031C18.310547 -48.652344 18.085938 -48.750000 17.812500 -48.750000C17.539062 -48.750000 17.314453 -48.652344 17.138672 -48.457031C16.962891 -48.261719 16.875000 -48.046875 16.875000 -47.812500L16.875000 -31.289062L14.707031 -33.457031C14.277344 -33.886719 13.847656 -33.886719 13.417969 -33.457031C13.222656 -33.261719 13.125000 -33.037109 13.125000 -32.783203C13.125000 -32.529297 13.222656 -32.304688 13.417969 -32.109375ZM12.187500 -37.500000C12.460938 -37.500000 12.685547 -37.587891 12.861328 -37.763672C13.037109 -37.939453 13.125000 -38.164062 13.125000 -38.437500L13.125000 -54.902344L15.292969 -52.792969C15.722656 -52.324219 16.162109 -52.314453 16.611328 -52.763672C17.060547 -53.212891 17.050781 -53.652344 16.582031 -54.082031L12.890625 -57.832031C12.695312 -58.027344 12.460938 -58.125000 12.187500 -58.125000C11.914062 -58.125000 11.699219 -58.027344 11.542969 -57.832031L7.910156 -54.257812C7.480469 -53.789062 7.480469 -53.339844 7.910156 -52.910156C8.339844 -52.480469 8.789062 -52.480469 9.257812 -52.910156L11.250000 -54.902344L11.250000 -38.437500C11.250000 -38.164062 11.337891 -37.939453 11.513672 -37.763672C11.689453 -37.587891 11.914062 -37.500000 12.187500 -37.500000ZM12.187500 -37.500000"></path></svg>