<svg width="22.500000" height="22.500000" viewBox="3.750000 -46.875000 22.500000 22.500000" xmlns="http://www.w3.org/2000/svg"><path d="M4.687500 -35.625000C4.414062 -35.625000 4.189453 -35.537109 4.013672 -35.361328C3.837891 -35.185547 3.750000 -34.960938 3.750000 -34.687500L3.750000 -25.312500C3.750000 -25.195312 3.769531 -25.078125 3.808594 -24.960938C3.847656 -24.843750 3.925781 -24.746094 4.042969 -24.667969C4.121094 -24.550781 4.218750 -24.472656 4.335938 -24.433594C4.453125 -24.394531 4.570312 -24.375000 4.687500 -24.375000L14.062500 -24.375000C14.335938 -24.375000 14.560547 -24.462891 14.736328 -24.638672C14.912109 -24.814453 15.000000 -25.039062 15.000000 -25.312500C15.000000 -25.585938 14.912109 -25.810547 14.736328 -25.986328C14.560547 -26.162109 14.335938 -26.250000 14.062500 -26.250000L6.972656 -26.250000L24.375000 -43.652344L24.375000 -36.562500C24.375000 -36.289062 24.462891 -36.064453 24.638672 -35.888672C24.814453 -35.712891 25.039062 -35.625000 25.312500 -35.625000C25.585938 -35.625000 25.810547 -35.712891 25.986328 -35.888672C26.162109 -36.064453 26.250000 -36.289062 26.250000 -36.562500L26.250000 -45.937500C26.250000 -46.054688 26.230469 -46.171875 26.191406 -46.289062C26.074219 -46.523438 25.898438 -46.699219 25.664062 -46.816406C25.546875 -46.855469 25.429688 -46.875000 25.312500 -46.875000L15.937500 -46.875000C15.664062 -46.875000 15.439453 -46.787109 15.263672 -46.611328C15.087891 -46.435547 15.000000 -46.210938 15.000000 -45.937500C15.000000 -45.664062 15.087891 -45.439453 15.263672 -45.263672C15.439453 -45.087891 15.664062 -45.000000 15.937500 -45.000000L23.027344 -45.000000L5.625000 -27.597656L5.625000 -34.687500C5.625000 -34.960938 5.537109 -35.185547 5.361328 -35.361328C5.185547 -35.537109 4.960938 -35.625000 4.687500 -35.625000ZM4.687500 -35.625000"></path></svg>