<svg width="14.316406" height="14.794922" viewBox="8.183594 -35.263672 14.316406 14.794922" xmlns="http://www.w3.org/2000/svg"><path d="M22.207031 -28.564453L16.699219 -34.833984C16.230469 -35.263672 15.771484 -35.263672 15.322266 -34.833984C14.873047 -34.404297 14.882812 -33.955078 15.351562 -33.486328L20.332031 -27.861328L15.351562 -22.294922C15.156250 -22.099609 15.058594 -21.875000 15.058594 -21.621094C15.058594 -21.367188 15.156250 -21.142578 15.351562 -20.947266C15.781250 -20.478516 16.230469 -20.478516 16.699219 -20.947266L22.207031 -27.216797C22.402344 -27.412109 22.500000 -27.636719 22.500000 -27.890625C22.500000 -28.144531 22.402344 -28.369141 22.207031 -28.564453ZM8.613281 -20.917969C9.042969 -20.468750 9.492188 -20.478516 9.960938 -20.947266L15.527344 -27.216797C15.683594 -27.412109 15.761719 -27.626953 15.761719 -27.861328C15.761719 -28.134766 15.683594 -28.369141 15.527344 -28.564453L9.960938 -34.833984C9.765625 -35.029297 9.541016 -35.126953 9.287109 -35.126953C9.033203 -35.126953 8.808594 -35.029297 8.613281 -34.833984C8.183594 -34.404297 8.183594 -33.955078 8.613281 -33.486328L13.593750 -27.861328L8.613281 -22.294922C8.183594 -21.826172 8.183594 -21.367188 8.613281 -20.917969ZM8.613281 -20.917969"></path></svg>