<svg width="28.007812" height="28.007812" viewBox="1.992188 -54.140625 28.007812 28.007812" xmlns="http://www.w3.org/2000/svg"><path d="M21.386719 -43.183594L15.937500 -37.792969L10.488281 -43.183594C10.058594 -43.652344 9.628906 -43.662109 9.199219 -43.212891C8.769531 -42.763672 8.769531 -42.324219 9.199219 -41.894531L15.292969 -35.800781C15.449219 -35.605469 15.664062 -35.507812 15.937500 -35.507812C16.210938 -35.507812 16.425781 -35.605469 16.582031 -35.800781L22.675781 -41.894531C23.105469 -42.324219 23.105469 -42.763672 22.675781 -43.212891C22.246094 -43.662109 21.816406 -43.652344 21.386719 -43.183594ZM15.996094 -54.140625C12.128906 -54.140625 8.828125 -52.773438 6.093750 -50.039062C3.359375 -47.304688 1.992188 -44.003906 1.992188 -40.136719C1.992188 -36.269531 3.359375 -32.968750 6.093750 -30.234375C8.828125 -27.500000 12.128906 -26.132812 15.996094 -26.132812C19.863281 -26.132812 23.164062 -27.500000 25.898438 -30.234375C28.632812 -32.968750 30.000000 -36.269531 30.000000 -40.136719C30.000000 -44.003906 28.632812 -47.304688 25.898438 -50.039062C23.164062 -52.773438 19.863281 -54.140625 15.996094 -54.140625ZM16.025391 -28.007812C12.685547 -28.007812 9.824219 -29.189453 7.441406 -31.552734C5.058594 -33.916016 3.867188 -36.767578 3.867188 -40.107422C3.867188 -43.447266 5.058594 -46.308594 7.441406 -48.691406C9.824219 -51.074219 12.685547 -52.265625 16.025391 -52.265625C19.365234 -52.265625 22.216797 -51.074219 24.580078 -48.691406C26.943359 -46.308594 28.125000 -43.447266 28.125000 -40.107422C28.125000 -36.767578 26.943359 -33.916016 24.580078 -31.552734C22.216797 -29.189453 19.365234 -28.007812 16.025391 -28.007812ZM16.025391 -28.007812"></path></svg>