<svg width="28.125000" height="28.125000" viewBox="1.875000 -54.375000 28.125000 28.125000" xmlns="http://www.w3.org/2000/svg"><path d="M23.144531 -40.957031L17.636719 -47.226562C17.167969 -47.656250 16.708984 -47.656250 16.259766 -47.226562C15.810547 -46.796875 15.820312 -46.347656 16.289062 -45.878906L21.269531 -40.253906L16.289062 -34.687500C15.820312 -34.218750 15.810547 -33.759766 16.259766 -33.310547C16.708984 -32.861328 17.167969 -32.871094 17.636719 -33.339844L23.144531 -39.609375C23.339844 -39.804688 23.437500 -40.029297 23.437500 -40.283203C23.437500 -40.537109 23.339844 -40.761719 23.144531 -40.957031ZM16.699219 -40.253906C16.699219 -40.527344 16.621094 -40.761719 16.464844 -40.957031L10.898438 -47.226562C10.703125 -47.421875 10.478516 -47.519531 10.224609 -47.519531C9.970703 -47.519531 9.746094 -47.421875 9.550781 -47.226562C9.121094 -46.796875 9.121094 -46.347656 9.550781 -45.878906L14.531250 -40.253906L9.550781 -34.687500C9.355469 -34.492188 9.257812 -34.267578 9.257812 -34.013672C9.257812 -33.759766 9.355469 -33.535156 9.550781 -33.339844C9.980469 -32.871094 10.429688 -32.871094 10.898438 -33.339844L16.464844 -39.609375C16.621094 -39.804688 16.699219 -40.019531 16.699219 -40.253906ZM15.937500 -54.375000C12.070312 -54.375000 8.759766 -52.998047 6.005859 -50.244141C3.251953 -47.490234 1.875000 -44.179688 1.875000 -40.312500C1.875000 -36.445312 3.251953 -33.134766 6.005859 -30.380859C8.759766 -27.626953 12.070312 -26.250000 15.937500 -26.250000C19.804688 -26.250000 23.115234 -27.626953 25.869141 -30.380859C28.623047 -33.134766 30.000000 -36.445312 30.000000 -40.312500C30.000000 -44.179688 28.623047 -47.490234 25.869141 -50.244141C23.115234 -52.998047 19.804688 -54.375000 15.937500 -54.375000ZM15.937500 -28.125000C12.578125 -28.125000 9.707031 -29.316406 7.324219 -31.699219C4.941406 -34.082031 3.750000 -36.953125 3.750000 -40.312500C3.750000 -43.671875 4.941406 -46.542969 7.324219 -48.925781C9.707031 -51.308594 12.578125 -52.500000 15.937500 -52.500000C19.296875 -52.500000 22.167969 -51.308594 24.550781 -48.925781C26.933594 -46.542969 28.125000 -43.671875 28.125000 -40.312500C28.125000 -36.953125 26.933594 -34.082031 24.550781 -31.699219C22.167969 -29.316406 19.296875 -28.125000 15.937500 -28.125000ZM15.937500 -28.125000"></path></svg>