<svg width="28.125000" height="28.125000" viewBox="1.875000 -54.375000 28.125000 28.125000" xmlns="http://www.w3.org/2000/svg"><path d="M15.937500 -54.375000C12.070312 -54.375000 8.759766 -52.998047 6.005859 -50.244141C3.251953 -47.490234 1.875000 -44.179688 1.875000 -40.312500C1.875000 -36.445312 3.251953 -33.134766 6.005859 -30.380859C8.759766 -27.626953 12.070312 -26.250000 15.937500 -26.250000C19.804688 -26.250000 23.115234 -27.626953 25.869141 -30.380859C28.623047 -33.134766 30.000000 -36.445312 30.000000 -40.312500C30.000000 -44.179688 28.623047 -47.490234 25.869141 -50.244141C23.115234 -52.998047 19.804688 -54.375000 15.937500 -54.375000ZM15.937500 -28.125000C12.578125 -28.125000 9.707031 -29.316406 7.324219 -31.699219C4.941406 -34.082031 3.750000 -36.953125 3.750000 -40.312500C3.750000 -43.671875 4.941406 -46.542969 7.324219 -48.925781C9.707031 -51.308594 12.578125 -52.500000 15.937500 -52.500000C19.296875 -52.500000 22.167969 -51.308594 24.550781 -48.925781C26.933594 -46.542969 28.125000 -43.671875 28.125000 -40.312500C28.125000 -36.953125 26.933594 -34.082031 24.550781 -31.699219C22.167969 -29.316406 19.296875 -28.125000 15.937500 -28.125000ZM21.152344 -46.816406L15.996094 -41.660156L11.367188 -46.816406C10.898438 -47.285156 10.449219 -47.294922 10.019531 -46.845703C9.589844 -46.396484 9.589844 -45.957031 10.019531 -45.527344L14.648438 -40.371094L9.433594 -35.097656C9.003906 -34.667969 9.003906 -34.228516 9.433594 -33.779297C9.863281 -33.330078 10.292969 -33.339844 10.722656 -33.808594L15.878906 -38.964844L20.507812 -33.808594C20.976562 -33.339844 21.425781 -33.330078 21.855469 -33.779297C22.285156 -34.228516 22.285156 -34.667969 21.855469 -35.097656L17.226562 -40.253906L22.441406 -45.527344C22.910156 -45.957031 22.919922 -46.396484 22.470703 -46.845703C22.021484 -47.294922 21.582031 -47.285156 21.152344 -46.816406ZM21.152344 -46.816406"></path></svg>