<svg width="16.875000" height="16.875000" viewBox="7.500000 -37.500000 16.875000 16.875000" xmlns="http://www.w3.org/2000/svg"><path d="M7.500000 -35.625000L7.500000 -22.500000C7.500000 -21.992188 7.685547 -21.552734 8.056641 -21.181641C8.427734 -20.810547 8.867188 -20.625000 9.375000 -20.625000L22.500000 -20.625000C23.007812 -20.625000 23.447266 -20.810547 23.818359 -21.181641C24.189453 -21.552734 24.375000 -21.992188 24.375000 -22.500000L24.375000 -35.625000C24.375000 -36.132812 24.189453 -36.572266 23.818359 -36.943359C23.447266 -37.314453 23.007812 -37.500000 22.500000 -37.500000L9.375000 -37.500000C8.867188 -37.500000 8.427734 -37.314453 8.056641 -36.943359C7.685547 -36.572266 7.500000 -36.132812 7.500000 -35.625000ZM22.500000 -22.500000L9.375000 -22.500000L9.375000 -35.625000L22.500000 -35.625000ZM12.187500 -28.125000L15.000000 -28.125000L15.000000 -25.312500C15.000000 -25.039062 15.087891 -24.814453 15.263672 -24.638672C15.439453 -24.462891 15.664062 -24.375000 15.937500 -24.375000C16.210938 -24.375000 16.435547 -24.462891 16.611328 -24.638672C16.787109 -24.814453 16.875000 -25.039062 16.875000 -25.312500L16.875000 -28.125000L19.687500 -28.125000C19.960938 -28.125000 20.185547 -28.212891 20.361328 -28.388672C20.537109 -28.564453 20.625000 -28.789062 20.625000 -29.062500C20.625000 -29.335938 20.537109 -29.560547 20.361328 -29.736328C20.185547 -29.912109 19.960938 -30.000000 19.687500 -30.000000L16.875000 -30.000000L16.875000 -32.812500C16.875000 -33.085938 16.787109 -33.310547 16.611328 -33.486328C16.435547 -33.662109 16.210938 -33.750000 15.937500 -33.750000C15.664062 -33.750000 15.439453 -33.662109 15.263672 -33.486328C15.087891 -33.310547 15.000000 -33.085938 15.000000 -32.812500L15.000000 -30.000000L12.187500 -30.000000C11.914062 -30.000000 11.689453 -29.912109 11.513672 -29.736328C11.337891 -29.560547 11.250000 -29.335938 11.250000 -29.062500C11.250000 -28.789062 11.337891 -28.564453 11.513672 -28.388672C11.689453 -28.212891 11.914062 -28.125000 12.187500 -28.125000ZM12.187500 -28.125000"></path></svg>