<svg width="22.500000" height="22.500000" viewBox="3.750000 -46.875000 22.500000 22.500000" xmlns="http://www.w3.org/2000/svg"><path d="M15.000000 -46.875000C11.875000 -46.875000 9.218750 -45.781250 7.031250 -43.593750C4.843750 -41.406250 3.750000 -38.750000 3.750000 -35.625000C3.750000 -32.500000 4.843750 -29.843750 7.031250 -27.656250C9.218750 -25.468750 11.875000 -24.375000 15.000000 -24.375000C18.125000 -24.375000 20.781250 -25.468750 22.968750 -27.656250C25.156250 -29.843750 26.250000 -32.500000 26.250000 -35.625000C26.250000 -38.750000 25.156250 -41.406250 22.968750 -43.593750C20.781250 -45.781250 18.125000 -46.875000 15.000000 -46.875000ZM15.000000 -26.250000C12.421875 -26.250000 10.214844 -27.167969 8.378906 -29.003906C6.542969 -30.839844 5.625000 -33.046875 5.625000 -35.625000C5.625000 -38.203125 6.542969 -40.410156 8.378906 -42.246094C10.214844 -44.082031 12.421875 -45.000000 15.000000 -45.000000C17.578125 -45.000000 19.785156 -44.082031 21.621094 -42.246094C23.457031 -40.410156 24.375000 -38.203125 24.375000 -35.625000C24.375000 -33.046875 23.457031 -30.839844 21.621094 -29.003906C19.785156 -27.167969 17.578125 -26.250000 15.000000 -26.250000ZM9.375000 -35.625000C9.375000 -34.062500 9.921875 -32.734375 11.015625 -31.640625C12.109375 -30.546875 13.437500 -30.000000 15.000000 -30.000000C16.562500 -30.000000 17.890625 -30.546875 18.984375 -31.640625C20.078125 -32.734375 20.625000 -34.062500 20.625000 -35.625000C20.625000 -37.187500 20.078125 -38.515625 18.984375 -39.609375C17.890625 -40.703125 16.562500 -41.250000 15.000000 -41.250000C13.437500 -41.250000 12.109375 -40.703125 11.015625 -39.609375C9.921875 -38.515625 9.375000 -37.187500 9.375000 -35.625000ZM9.375000 -35.625000"></path></svg>