<svg width="30.000000" height="30.000000" viewBox="0.000000 -58.125000 30.000000 30.000000" xmlns="http://www.w3.org/2000/svg"><path d="M15.000000 -58.125000C10.859375 -58.125000 7.324219 -56.660156 4.394531 -53.730469C1.464844 -50.800781 0.000000 -47.265625 0.000000 -43.125000C0.000000 -38.984375 1.464844 -35.449219 4.394531 -32.519531C7.324219 -29.589844 10.859375 -28.125000 15.000000 -28.125000C19.140625 -28.125000 22.675781 -29.589844 25.605469 -32.519531C28.535156 -35.449219 30.000000 -38.984375 30.000000 -43.125000C30.000000 -47.265625 28.535156 -50.800781 25.605469 -53.730469C22.675781 -56.660156 19.140625 -58.125000 15.000000 -58.125000ZM15.000000 -30.000000C11.367188 -30.000000 8.271484 -31.279297 5.712891 -33.837891C3.154297 -36.396484 1.875000 -39.492188 1.875000 -43.125000C1.875000 -46.757812 3.154297 -49.853516 5.712891 -52.412109C8.271484 -54.970703 11.367188 -56.250000 15.000000 -56.250000C18.632812 -56.250000 21.728516 -54.970703 24.287109 -52.412109C26.845703 -49.853516 28.125000 -46.757812 28.125000 -43.125000C28.125000 -39.492188 26.845703 -36.396484 24.287109 -33.837891C21.728516 -31.279297 18.632812 -30.000000 15.000000 -30.000000ZM18.750000 -48.750000L11.250000 -48.750000C10.742188 -48.750000 10.302734 -48.564453 9.931641 -48.193359C9.560547 -47.822266 9.375000 -47.382812 9.375000 -46.875000L9.375000 -39.375000C9.375000 -38.867188 9.560547 -38.427734 9.931641 -38.056641C10.302734 -37.685547 10.742188 -37.500000 11.250000 -37.500000L18.750000 -37.500000C19.257812 -37.500000 19.697266 -37.685547 20.068359 -38.056641C20.439453 -38.427734 20.625000 -38.867188 20.625000 -39.375000L20.625000 -46.875000C20.625000 -47.382812 20.439453 -47.822266 20.068359 -48.193359C19.697266 -48.564453 19.257812 -48.750000 18.750000 -48.750000ZM18.750000 -48.750000"></path></svg>