<svg width="18.750000" height="13.125000" viewBox="5.625000 -33.750000 18.750000 13.125000" xmlns="http://www.w3.org/2000/svg"><path d="M6.562500 -26.250000L23.437500 -26.250000C23.710938 -26.250000 23.935547 -26.337891 24.111328 -26.513672C24.287109 -26.689453 24.375000 -26.914062 24.375000 -27.187500C24.375000 -27.460938 24.287109 -27.685547 24.111328 -27.861328C23.935547 -28.037109 23.710938 -28.125000 23.437500 -28.125000L6.562500 -28.125000C6.289062 -28.125000 6.064453 -28.037109 5.888672 -27.861328C5.712891 -27.685547 5.625000 -27.460938 5.625000 -27.187500C5.625000 -26.914062 5.712891 -26.689453 5.888672 -26.513672C6.064453 -26.337891 6.289062 -26.250000 6.562500 -26.250000ZM6.562500 -31.875000L23.437500 -31.875000C23.710938 -31.875000 23.935547 -31.962891 24.111328 -32.138672C24.287109 -32.314453 24.375000 -32.539062 24.375000 -32.812500C24.375000 -33.085938 24.287109 -33.310547 24.111328 -33.486328C23.935547 -33.662109 23.710938 -33.750000 23.437500 -33.750000L6.562500 -33.750000C6.289062 -33.750000 6.064453 -33.662109 5.888672 -33.486328C5.712891 -33.310547 5.625000 -33.085938 5.625000 -32.812500C5.625000 -32.539062 5.712891 -32.314453 5.888672 -32.138672C6.064453 -31.962891 6.289062 -31.875000 6.562500 -31.875000ZM6.562500 -20.625000L23.437500 -20.625000C23.710938 -20.625000 23.935547 -20.712891 24.111328 -20.888672C24.287109 -21.064453 24.375000 -21.289062 24.375000 -21.562500C24.375000 -21.835938 24.287109 -22.060547 24.111328 -22.236328C23.935547 -22.412109 23.710938 -22.500000 23.437500 -22.500000L6.562500 -22.500000C6.289062 -22.500000 6.064453 -22.412109 5.888672 -22.236328C5.712891 -22.060547 5.625000 -21.835938 5.625000 -21.562500C5.625000 -21.289062 5.712891 -21.064453 5.888672 -20.888672C6.064453 -20.712891 6.289062 -20.625000 6.562500 -20.625000ZM6.562500 -20.625000"></path></svg>