<svg width="30.000000" height="30.000000" viewBox="0.000000 -58.125000 30.000000 30.000000" xmlns="http://www.w3.org/2000/svg"><path d="M19.335938 -35.449219L24.375000 -33.750000L22.675781 -38.789062L13.066406 -48.457031L9.667969 -45.058594ZM7.734375 -47.050781L11.074219 -50.390625L8.613281 -52.910156C8.144531 -53.378906 7.578125 -53.613281 6.914062 -53.613281C6.250000 -53.613281 5.683594 -53.378906 5.214844 -52.910156C4.746094 -52.441406 4.511719 -51.875000 4.511719 -51.210938C4.511719 -50.546875 4.746094 -49.980469 5.214844 -49.511719ZM28.125000 -58.125000L1.875000 -58.125000C1.367188 -58.125000 0.927734 -57.939453 0.556641 -57.568359C0.185547 -57.197266 0.000000 -56.757812 0.000000 -56.250000L0.000000 -30.000000C0.000000 -29.492188 0.185547 -29.052734 0.556641 -28.681641C0.927734 -28.310547 1.367188 -28.125000 1.875000 -28.125000L28.125000 -28.125000C28.632812 -28.125000 29.072266 -28.310547 29.443359 -28.681641C29.814453 -29.052734 30.000000 -29.492188 30.000000 -30.000000L30.000000 -56.250000C30.000000 -56.757812 29.814453 -57.197266 29.443359 -57.568359C29.072266 -57.939453 28.632812 -58.125000 28.125000 -58.125000ZM28.125000 -30.000000L1.875000 -30.000000L1.875000 -56.250000L28.125000 -56.250000ZM28.125000 -30.000000"></path></svg>