<svg width="30.000000" height="30.000000" viewBox="0.000000 -58.125000 30.000000 30.000000" xmlns="http://www.w3.org/2000/svg"><path d="M15.000000 -58.125000C10.859375 -58.125000 7.324219 -56.660156 4.394531 -53.730469C1.464844 -50.800781 0.000000 -47.265625 0.000000 -43.125000C0.000000 -38.984375 1.464844 -35.449219 4.394531 -32.519531C7.324219 -29.589844 10.859375 -28.125000 15.000000 -28.125000C19.140625 -28.125000 22.675781 -29.589844 25.605469 -32.519531C28.535156 -35.449219 30.000000 -38.984375 30.000000 -43.125000C30.000000 -47.265625 28.535156 -50.800781 25.605469 -53.730469C22.675781 -56.660156 19.140625 -58.125000 15.000000 -58.125000ZM15.000000 -30.000000C11.367188 -30.000000 8.271484 -31.279297 5.712891 -33.837891C3.154297 -36.396484 1.875000 -39.492188 1.875000 -43.125000C1.875000 -46.757812 3.154297 -49.853516 5.712891 -52.412109C8.271484 -54.970703 11.367188 -56.250000 15.000000 -56.250000C18.632812 -56.250000 21.728516 -54.970703 24.287109 -52.412109C26.845703 -49.853516 28.125000 -46.757812 28.125000 -43.125000C28.125000 -39.492188 26.845703 -36.396484 24.287109 -33.837891C21.728516 -31.279297 18.632812 -30.000000 15.000000 -30.000000ZM12.011719 -48.046875C11.855469 -48.164062 11.718750 -48.261719 11.601562 -48.339844L11.542969 -48.339844L11.191406 -48.515625L11.250000 -48.457031C10.898438 -48.613281 10.566406 -48.691406 10.253906 -48.691406C9.511719 -48.691406 8.867188 -48.408203 8.320312 -47.841797C7.773438 -47.275391 7.500000 -46.601562 7.500000 -45.820312C7.500000 -45.039062 7.773438 -44.365234 8.320312 -43.798828C8.867188 -43.232422 9.511719 -42.949219 10.253906 -42.949219C10.722656 -42.949219 11.171875 -43.085938 11.601562 -43.359375C11.406250 -41.171875 10.156250 -39.140625 7.851562 -37.265625C7.382812 -36.875000 7.324219 -36.445312 7.675781 -35.976562C7.871094 -35.703125 8.125000 -35.566406 8.437500 -35.566406C8.632812 -35.566406 8.808594 -35.644531 8.964844 -35.800781C11.777344 -38.066406 13.261719 -40.605469 13.417969 -43.417969C13.574219 -45.371094 13.164062 -46.835938 12.187500 -47.812500C12.070312 -47.929688 12.011719 -48.007812 12.011719 -48.046875ZM21.093750 -48.046875C20.976562 -48.164062 20.839844 -48.261719 20.683594 -48.339844L20.625000 -48.339844C20.507812 -48.417969 20.410156 -48.476562 20.332031 -48.515625L20.332031 -48.457031C19.980469 -48.613281 19.648438 -48.691406 19.335938 -48.691406C18.593750 -48.691406 17.949219 -48.408203 17.402344 -47.841797C16.855469 -47.275391 16.582031 -46.601562 16.582031 -45.820312C16.582031 -45.039062 16.855469 -44.365234 17.402344 -43.798828C17.949219 -43.232422 18.593750 -42.949219 19.335938 -42.949219C19.804688 -42.949219 20.253906 -43.085938 20.683594 -43.359375C20.488281 -41.171875 19.238281 -39.140625 16.933594 -37.265625C16.464844 -36.875000 16.425781 -36.445312 16.816406 -35.976562C16.972656 -35.703125 17.207031 -35.566406 17.519531 -35.566406C17.714844 -35.566406 17.890625 -35.644531 18.046875 -35.800781C20.859375 -38.066406 22.343750 -40.605469 22.500000 -43.417969C22.656250 -45.371094 22.246094 -46.835938 21.269531 -47.812500C21.191406 -47.929688 21.132812 -48.007812 21.093750 -48.046875ZM21.093750 -48.046875"></path></svg>