<svg width="30.000000" height="30.000000" viewBox="0.000000 -58.125000 30.000000 30.000000" xmlns="http://www.w3.org/2000/svg"><path d="M10.312500 -34.687500C10.312500 -35.234375 10.195312 -35.761719 9.960938 -36.269531C9.648438 -36.933594 9.189453 -37.460938 8.583984 -37.851562C7.978516 -38.242188 7.304688 -38.437500 6.562500 -38.437500C5.546875 -38.437500 4.667969 -38.066406 3.925781 -37.324219C3.183594 -36.582031 2.812500 -35.703125 2.812500 -34.687500C2.812500 -34.375000 2.871094 -34.023438 2.988281 -33.632812C3.613281 -32.578125 4.453125 -31.738281 5.507812 -31.113281C5.898438 -30.996094 6.250000 -30.937500 6.562500 -30.937500C7.578125 -30.937500 8.457031 -31.308594 9.199219 -32.050781C9.941406 -32.792969 10.312500 -33.671875 10.312500 -34.687500ZM6.562500 -36.562500C7.343750 -36.562500 7.910156 -36.210938 8.261719 -35.507812C8.378906 -35.234375 8.437500 -34.960938 8.437500 -34.687500C8.437500 -34.179688 8.251953 -33.740234 7.880859 -33.369141C7.509766 -32.998047 7.070312 -32.812500 6.562500 -32.812500C6.054688 -32.812500 5.615234 -32.998047 5.244141 -33.369141C4.873047 -33.740234 4.687500 -34.179688 4.687500 -34.687500C4.687500 -35.195312 4.873047 -35.634766 5.244141 -36.005859C5.615234 -36.376953 6.054688 -36.562500 6.562500 -36.562500ZM29.062500 -58.125000L25.019531 -58.125000C24.785156 -58.125000 24.570312 -58.046875 24.375000 -57.890625L11.132812 -46.699219C10.507812 -46.816406 9.921875 -46.875000 9.375000 -46.875000C6.796875 -46.875000 4.589844 -45.957031 2.753906 -44.121094C0.917969 -42.285156 0.000000 -40.078125 0.000000 -37.500000C0.000000 -34.921875 0.917969 -32.714844 2.753906 -30.878906C4.589844 -29.042969 6.796875 -28.125000 9.375000 -28.125000C11.953125 -28.125000 14.160156 -29.042969 15.996094 -30.878906C17.832031 -32.714844 18.750000 -34.921875 18.750000 -37.500000C18.750000 -38.476562 18.593750 -39.453125 18.281250 -40.429688L21.152344 -42.246094C21.425781 -42.441406 21.562500 -42.714844 21.562500 -43.066406L21.562500 -46.464844L25.136719 -46.640625C25.683594 -46.679688 25.976562 -46.953125 26.015625 -47.460938L26.367188 -51.093750L29.472656 -52.617188C29.824219 -52.773438 30.000000 -53.046875 30.000000 -53.437500L30.000000 -57.187500C30.000000 -57.460938 29.912109 -57.685547 29.736328 -57.861328C29.560547 -58.037109 29.335938 -58.125000 29.062500 -58.125000ZM28.125000 -54.023438L25.078125 -52.558594C24.765625 -52.402344 24.589844 -52.148438 24.550781 -51.796875L24.199219 -48.457031L20.566406 -48.281250C20.332031 -48.281250 20.126953 -48.183594 19.951172 -47.988281C19.775391 -47.792969 19.687500 -47.578125 19.687500 -47.343750L19.687500 -43.535156L16.640625 -41.542969C16.210938 -41.269531 16.093750 -40.898438 16.289062 -40.429688C16.679688 -39.492188 16.875000 -38.515625 16.875000 -37.500000C16.875000 -35.429688 16.142578 -33.662109 14.677734 -32.197266C13.212891 -30.732422 11.445312 -30.000000 9.375000 -30.000000C8.007812 -30.000000 6.718750 -30.371094 5.507812 -31.113281C4.453125 -31.738281 3.613281 -32.578125 2.988281 -33.632812C2.246094 -34.843750 1.875000 -36.132812 1.875000 -37.500000C1.875000 -39.570312 2.607422 -41.337891 4.072266 -42.802734C5.537109 -44.267578 7.304688 -45.000000 9.375000 -45.000000C9.921875 -45.000000 10.507812 -44.921875 11.132812 -44.765625C11.445312 -44.687500 11.718750 -44.746094 11.953125 -44.941406L25.371094 -56.250000L28.125000 -56.250000ZM28.125000 -54.023438"></path></svg>