<svg width="16.875000" height="30.000000" viewBox="7.500000 -58.125000 16.875000 30.000000" xmlns="http://www.w3.org/2000/svg"><path d="M22.500000 -28.125000C23.007812 -28.125000 23.447266 -28.310547 23.818359 -28.681641C24.189453 -29.052734 24.375000 -29.492188 24.375000 -30.000000L24.375000 -56.250000C24.375000 -56.757812 24.189453 -57.197266 23.818359 -57.568359C23.447266 -57.939453 23.007812 -58.125000 22.500000 -58.125000L9.375000 -58.125000C8.867188 -58.125000 8.427734 -57.939453 8.056641 -57.568359C7.685547 -57.197266 7.500000 -56.757812 7.500000 -56.250000L7.500000 -30.000000C7.500000 -29.492188 7.685547 -29.052734 8.056641 -28.681641C8.427734 -28.310547 8.867188 -28.125000 9.375000 -28.125000ZM15.000000 -31.054688C15.000000 -31.328125 15.107422 -31.572266 15.322266 -31.787109C15.537109 -32.001953 15.781250 -32.109375 16.054688 -32.109375C16.328125 -32.109375 16.572266 -32.001953 16.787109 -31.787109C17.001953 -31.572266 17.109375 -31.328125 17.109375 -31.054688C17.109375 -30.781250 17.001953 -30.537109 16.787109 -30.322266C16.572266 -30.107422 16.328125 -30.000000 16.054688 -30.000000C15.781250 -30.000000 15.537109 -30.107422 15.322266 -30.322266C15.107422 -30.537109 15.000000 -30.781250 15.000000 -31.054688ZM19.687500 -56.250000C19.960938 -56.250000 20.185547 -56.162109 20.361328 -55.986328C20.537109 -55.810547 20.625000 -55.585938 20.625000 -55.312500C20.625000 -55.039062 20.537109 -54.814453 20.361328 -54.638672C20.185547 -54.462891 19.960938 -54.375000 19.687500 -54.375000L17.812500 -54.375000C17.539062 -54.375000 17.314453 -54.462891 17.138672 -54.638672C16.962891 -54.814453 16.875000 -55.039062 16.875000 -55.312500C16.875000 -55.585938 16.962891 -55.810547 17.138672 -55.986328C17.314453 -56.162109 17.539062 -56.250000 17.812500 -56.250000ZM15.000000 -55.312500C15.000000 -55.039062 14.912109 -54.814453 14.736328 -54.638672C14.560547 -54.462891 14.335938 -54.375000 14.062500 -54.375000C13.789062 -54.375000 13.564453 -54.462891 13.388672 -54.638672C13.212891 -54.814453 13.125000 -55.039062 13.125000 -55.312500C13.125000 -55.585938 13.212891 -55.810547 13.388672 -55.986328C13.564453 -56.162109 13.789062 -56.250000 14.062500 -56.250000C14.335938 -56.250000 14.560547 -56.162109 14.736328 -55.986328C14.912109 -55.810547 15.000000 -55.585938 15.000000 -55.312500ZM9.375000 -52.500000L22.500000 -52.500000L22.500000 -33.750000L9.375000 -33.750000ZM9.375000 -52.500000"></path></svg>