<svg width="30.000000" height="20.625000" viewBox="0.000000 -45.000000 30.000000 20.625000" xmlns="http://www.w3.org/2000/svg"><path d="M29.003906 -26.250000L28.125000 -26.250000L28.125000 -43.125000C28.125000 -43.632812 27.939453 -44.072266 27.568359 -44.443359C27.197266 -44.814453 26.757812 -45.000000 26.250000 -45.000000L3.750000 -45.000000C3.242188 -45.000000 2.802734 -44.814453 2.431641 -44.443359C2.060547 -44.072266 1.875000 -43.632812 1.875000 -43.125000L1.875000 -26.250000L0.996094 -26.250000C0.722656 -26.250000 0.488281 -26.162109 0.292969 -25.986328C0.097656 -25.810547 0.000000 -25.585938 0.000000 -25.312500C0.000000 -25.039062 0.097656 -24.814453 0.292969 -24.638672C0.488281 -24.462891 0.722656 -24.375000 0.996094 -24.375000L3.750000 -24.375000L26.250000 -24.375000L29.003906 -24.375000C29.277344 -24.375000 29.511719 -24.462891 29.707031 -24.638672C29.902344 -24.814453 30.000000 -25.039062 30.000000 -25.312500C30.000000 -25.585938 29.902344 -25.810547 29.707031 -25.986328C29.511719 -26.162109 29.277344 -26.250000 29.003906 -26.250000ZM26.250000 -43.125000L26.250000 -28.183594L3.750000 -28.183594L3.750000 -43.125000ZM26.250000 -43.125000"></path></svg>