<svg width="16.718750" height="30.000000" viewBox="7.578125 -58.125000 16.718750 30.000000" xmlns="http://www.w3.org/2000/svg"><path d="M8.144531 -41.484375C7.714844 -40.976562 7.578125 -40.410156 7.734375 -39.785156C7.890625 -39.160156 8.261719 -38.730469 8.847656 -38.496094C10.214844 -37.910156 12.265625 -37.578125 15.000000 -37.500000L15.000000 -31.875000C15.000000 -31.250000 15.097656 -30.468750 15.292969 -29.531250C15.488281 -28.593750 15.703125 -28.125000 15.937500 -28.125000C16.171875 -28.125000 16.386719 -28.593750 16.582031 -29.531250C16.777344 -30.468750 16.875000 -31.250000 16.875000 -31.875000L16.875000 -37.500000C19.609375 -37.578125 21.660156 -37.910156 23.027344 -38.496094C23.613281 -38.730469 23.984375 -39.160156 24.140625 -39.785156C24.296875 -40.410156 24.160156 -40.976562 23.730469 -41.484375C23.105469 -42.187500 22.070312 -42.714844 20.625000 -43.066406L20.625000 -52.792969C21.601562 -53.105469 22.421875 -53.515625 23.085938 -54.023438C23.710938 -54.453125 23.964844 -55.048828 23.847656 -55.810547C23.730469 -56.572266 23.300781 -57.070312 22.558594 -57.304688C20.957031 -57.851562 18.750000 -58.125000 15.937500 -58.125000C13.085938 -58.125000 10.839844 -57.851562 9.199219 -57.304688C8.496094 -57.031250 8.085938 -56.523438 7.968750 -55.781250C7.851562 -55.039062 8.105469 -54.453125 8.730469 -54.023438C9.394531 -53.515625 10.234375 -53.085938 11.250000 -52.734375L11.250000 -43.066406C9.804688 -42.714844 8.769531 -42.187500 8.144531 -41.484375ZM11.835938 -54.550781C11.015625 -54.824219 10.351562 -55.136719 9.843750 -55.488281C11.289062 -55.996094 13.320312 -56.250000 15.937500 -56.250000C18.515625 -56.250000 20.527344 -56.015625 21.972656 -55.546875C21.464844 -55.156250 20.820312 -54.824219 20.039062 -54.550781L18.750000 -54.140625L18.750000 -41.601562L20.156250 -41.250000C21.250000 -40.976562 21.972656 -40.625000 22.324219 -40.195312C20.957031 -39.648438 18.828125 -39.375000 15.937500 -39.375000C13.046875 -39.375000 10.917969 -39.648438 9.550781 -40.195312C9.902344 -40.625000 10.625000 -40.976562 11.718750 -41.250000L13.125000 -41.601562L13.125000 -54.082031ZM11.835938 -54.550781"></path></svg>