<svg width="30.000000" height="30.000000" viewBox="0.000000 -58.125000 30.000000 30.000000" xmlns="http://www.w3.org/2000/svg"><path d="M28.535156 -54.316406L20.097656 -58.066406C19.980469 -58.105469 19.843750 -58.125000 19.687500 -58.125000C19.570312 -58.125000 19.453125 -58.105469 19.335938 -58.066406L10.312500 -54.433594L2.285156 -58.066406C2.167969 -58.105469 2.031250 -58.125000 1.875000 -58.125000C1.445312 -58.125000 1.054688 -57.988281 0.703125 -57.714844C0.234375 -57.324219 0.000000 -56.835938 0.000000 -56.250000L0.000000 -33.750000C0.000000 -33.320312 0.136719 -32.929688 0.410156 -32.578125C0.683594 -32.226562 1.035156 -32.011719 1.464844 -31.933594L9.843750 -28.183594C10.000000 -28.144531 10.136719 -28.125000 10.253906 -28.125000C10.410156 -28.125000 10.546875 -28.144531 10.664062 -28.183594L19.687500 -31.816406L27.714844 -28.183594C27.871094 -28.144531 28.007812 -28.125000 28.125000 -28.125000C28.554688 -28.125000 28.945312 -28.261719 29.296875 -28.535156C29.765625 -28.925781 30.000000 -29.414062 30.000000 -30.000000L30.000000 -52.500000C30.000000 -52.929688 29.863281 -53.320312 29.589844 -53.671875C29.316406 -54.023438 28.964844 -54.238281 28.535156 -54.316406ZM11.250000 -52.910156L18.750000 -55.898438L18.750000 -33.398438L11.250000 -30.410156ZM1.875000 -56.250000L9.375000 -52.910156L9.375000 -30.410156L1.875000 -33.750000ZM28.125000 -30.000000L20.625000 -33.339844L20.625000 -55.839844L28.125000 -52.500000ZM28.125000 -30.000000"></path></svg>