<svg width="26.250000" height="30.000000" viewBox="0.000000 -58.125000 26.250000 30.000000" xmlns="http://www.w3.org/2000/svg"><path d="M25.371094 -58.125000L16.875000 -58.125000L8.437500 -58.125000L4.746094 -58.125000C3.457031 -58.125000 2.353516 -57.675781 1.435547 -56.777344C0.517578 -55.878906 0.039062 -54.785156 0.000000 -53.496094L0.000000 -49.570312L0.000000 -46.875000L0.000000 -36.621094L0.000000 -34.277344L0.000000 -32.871094C0.000000 -31.542969 0.458984 -30.419922 1.376953 -29.501953C2.294922 -28.583984 3.417969 -28.125000 4.746094 -28.125000L5.566406 -28.125000L13.125000 -28.125000L15.703125 -28.125000L16.933594 -28.125000L20.683594 -28.125000C21.191406 -28.125000 21.621094 -28.310547 21.972656 -28.681641C22.324219 -29.052734 22.500000 -29.492188 22.500000 -30.000000L22.500000 -49.687500C22.500000 -49.960938 22.412109 -50.185547 22.236328 -50.361328C22.060547 -50.537109 21.855469 -50.625000 21.621094 -50.625000L4.746094 -50.625000C3.925781 -50.625000 3.242188 -50.888672 2.695312 -51.416016C2.148438 -51.943359 1.875000 -52.597656 1.875000 -53.378906C1.875000 -54.160156 2.158203 -54.833984 2.724609 -55.400391C3.291016 -55.966797 3.964844 -56.250000 4.746094 -56.250000L8.437500 -56.250000L17.167969 -56.250000L24.375000 -56.250000L24.375000 -34.687500C24.375000 -34.414062 24.472656 -34.189453 24.667969 -34.013672C24.863281 -33.837891 25.087891 -33.750000 25.341797 -33.750000C25.595703 -33.750000 25.810547 -33.837891 25.986328 -34.013672C26.162109 -34.189453 26.250000 -34.414062 26.250000 -34.687500L26.250000 -57.187500C26.250000 -57.460938 26.162109 -57.685547 25.986328 -57.861328C25.810547 -58.037109 25.605469 -58.125000 25.371094 -58.125000ZM4.746094 -48.750000L20.625000 -48.750000L20.683594 -30.000000L16.933594 -30.000000L15.703125 -30.000000L13.125000 -30.000000L5.566406 -30.000000L4.746094 -30.000000C3.964844 -30.000000 3.291016 -30.283203 2.724609 -30.849609C2.158203 -31.416016 1.875000 -32.089844 1.875000 -32.871094L1.875000 -34.277344L1.875000 -36.621094L1.875000 -46.875000L1.875000 -49.570312L1.875000 -49.687500C2.695312 -49.062500 3.652344 -48.750000 4.746094 -48.750000ZM4.746094 -48.750000"></path></svg>