<svg width="30.000000" height="30.000000" viewBox="0.000000 -58.125000 30.000000 30.000000" xmlns="http://www.w3.org/2000/svg"><path d="M29.882812 -52.851562C29.609375 -53.750000 29.023438 -54.199219 28.125000 -54.199219L26.250000 -54.199219L26.250000 -52.324219L26.250000 -51.269531C26.250000 -50.488281 25.976562 -49.824219 25.429688 -49.277344C24.882812 -48.730469 24.218750 -48.457031 23.437500 -48.457031C22.656250 -48.457031 21.992188 -48.730469 21.445312 -49.277344C20.898438 -49.824219 20.625000 -50.488281 20.625000 -51.269531L20.625000 -52.324219L20.625000 -54.199219L9.375000 -54.199219L9.375000 -52.324219L9.375000 -51.269531C9.375000 -50.488281 9.101562 -49.824219 8.554688 -49.277344C8.007812 -48.730469 7.343750 -48.457031 6.562500 -48.457031C5.781250 -48.457031 5.117188 -48.730469 4.570312 -49.277344C4.023438 -49.824219 3.750000 -50.488281 3.750000 -51.269531L3.750000 -52.324219L3.750000 -54.199219L1.875000 -54.199219C0.976562 -54.199219 0.390625 -53.750000 0.117188 -52.851562L0.000000 -52.851562L0.000000 -52.324219L0.000000 -46.464844L0.000000 -30.000000C0.000000 -29.492188 0.185547 -29.052734 0.556641 -28.681641C0.927734 -28.310547 1.367188 -28.125000 1.875000 -28.125000L28.125000 -28.125000C28.632812 -28.125000 29.072266 -28.310547 29.443359 -28.681641C29.814453 -29.052734 30.000000 -29.492188 30.000000 -30.000000L30.000000 -46.464844L30.000000 -52.324219L30.000000 -52.851562ZM28.125000 -30.000000L1.875000 -30.000000L1.875000 -45.000000L28.125000 -45.000000ZM6.533203 -50.332031C6.787109 -50.332031 7.011719 -50.419922 7.207031 -50.595703C7.402344 -50.771484 7.500000 -50.996094 7.500000 -51.269531L7.500000 -57.187500C7.500000 -57.460938 7.402344 -57.685547 7.207031 -57.861328C7.011719 -58.037109 6.787109 -58.125000 6.533203 -58.125000C6.279297 -58.125000 6.064453 -58.037109 5.888672 -57.861328C5.712891 -57.685547 5.625000 -57.460938 5.625000 -57.187500L5.625000 -51.269531C5.625000 -50.996094 5.712891 -50.771484 5.888672 -50.595703C6.064453 -50.419922 6.279297 -50.332031 6.533203 -50.332031ZM23.437500 -50.332031C23.710938 -50.332031 23.935547 -50.419922 24.111328 -50.595703C24.287109 -50.771484 24.375000 -50.996094 24.375000 -51.269531L24.375000 -57.187500C24.375000 -57.460938 24.287109 -57.685547 24.111328 -57.861328C23.935547 -58.037109 23.710938 -58.125000 23.437500 -58.125000C23.164062 -58.125000 22.939453 -58.037109 22.763672 -57.861328C22.587891 -57.685547 22.500000 -57.460938 22.500000 -57.187500L22.500000 -51.269531C22.500000 -50.996094 22.587891 -50.771484 22.763672 -50.595703C22.939453 -50.419922 23.164062 -50.332031 23.437500 -50.332031ZM23.437500 -50.332031"></path></svg>