<svg width="30.000000" height="30.000000" viewBox="0.000000 -58.125000 30.000000 30.000000" xmlns="http://www.w3.org/2000/svg"><path d="M15.000000 -58.125000C10.859375 -58.125000 7.324219 -56.660156 4.394531 -53.730469C1.464844 -50.800781 0.000000 -47.265625 0.000000 -43.125000C0.000000 -38.984375 1.464844 -35.449219 4.394531 -32.519531C7.324219 -29.589844 10.859375 -28.125000 15.000000 -28.125000C19.140625 -28.125000 22.675781 -29.589844 25.605469 -32.519531C28.535156 -35.449219 30.000000 -38.984375 30.000000 -43.125000C30.000000 -47.265625 28.535156 -50.800781 25.605469 -53.730469C22.675781 -56.660156 19.140625 -58.125000 15.000000 -58.125000ZM9.697266 -37.822266C8.232422 -39.287109 7.500000 -41.054688 7.500000 -43.125000C7.500000 -45.195312 8.232422 -46.962891 9.697266 -48.427734C11.162109 -49.892578 12.929688 -50.625000 15.000000 -50.625000C17.070312 -50.625000 18.837891 -49.892578 20.302734 -48.427734C21.767578 -46.962891 22.500000 -45.195312 22.500000 -43.125000C22.500000 -41.054688 21.767578 -39.287109 20.302734 -37.822266C18.837891 -36.357422 17.070312 -35.625000 15.000000 -35.625000C12.929688 -35.625000 11.162109 -36.357422 9.697266 -37.822266ZM20.800781 -54.902344L17.929688 -51.972656C16.875000 -52.324219 15.898438 -52.500000 15.000000 -52.500000C14.179688 -52.500000 13.300781 -52.363281 12.363281 -52.089844L9.433594 -55.019531C11.191406 -55.839844 13.046875 -56.250000 15.000000 -56.250000C17.031250 -56.250000 18.964844 -55.800781 20.800781 -54.902344ZM3.105469 -48.691406L6.035156 -45.761719C5.488281 -43.886719 5.527344 -42.031250 6.152344 -40.195312L3.222656 -37.324219C2.324219 -39.160156 1.875000 -41.093750 1.875000 -43.125000C1.875000 -45.078125 2.285156 -46.933594 3.105469 -48.691406ZM9.667969 -31.171875L12.597656 -34.101562C13.496094 -33.867188 14.296875 -33.750000 15.000000 -33.750000C15.820312 -33.750000 16.699219 -33.886719 17.636719 -34.160156L20.566406 -31.230469C18.808594 -30.410156 16.953125 -30.000000 15.000000 -30.000000C13.125000 -30.000000 11.347656 -30.390625 9.667969 -31.171875ZM26.894531 -37.558594L23.964844 -40.488281C24.433594 -42.167969 24.453125 -43.847656 24.023438 -45.527344L26.953125 -48.457031C27.734375 -46.738281 28.115234 -44.921875 28.095703 -43.007812C28.076172 -41.093750 27.675781 -39.277344 26.894531 -37.558594ZM26.894531 -37.558594"></path></svg>