<svg width="30.000000" height="30.000000" viewBox="0.000000 -58.125000 30.000000 30.000000" xmlns="http://www.w3.org/2000/svg"><path d="M15.000000 -28.125000C17.382812 -28.125000 19.609375 -28.642578 21.679688 -29.677734C23.750000 -30.712891 25.488281 -32.148438 26.894531 -33.984375L15.000000 -43.125000L15.000000 -58.125000C10.859375 -58.125000 7.324219 -56.660156 4.394531 -53.730469C1.464844 -50.800781 0.000000 -47.265625 0.000000 -43.125000C0.000000 -38.984375 1.464844 -35.449219 4.394531 -32.519531C7.324219 -29.589844 10.859375 -28.125000 15.000000 -28.125000ZM13.125000 -56.132812L13.125000 -43.125000C13.125000 -42.500000 13.359375 -42.011719 13.828125 -41.660156L24.140625 -33.691406C21.601562 -31.230469 18.554688 -30.000000 15.000000 -30.000000C11.367188 -30.000000 8.271484 -31.279297 5.712891 -33.837891C3.154297 -36.396484 1.875000 -39.492188 1.875000 -43.125000C1.875000 -46.406250 2.949219 -49.277344 5.097656 -51.738281C7.246094 -54.199219 9.921875 -55.664062 13.125000 -56.132812ZM17.578125 -57.890625L17.578125 -44.472656L28.300781 -36.210938C29.433594 -38.398438 30.000000 -40.703125 30.000000 -43.125000C30.000000 -46.796875 28.818359 -50.019531 26.455078 -52.792969C24.091797 -55.566406 21.132812 -57.265625 17.578125 -57.890625ZM17.578125 -57.890625"></path></svg>