<svg width="30.000000" height="30.000000" viewBox="0.000000 -58.125000 30.000000 30.000000" xmlns="http://www.w3.org/2000/svg"><path d="M24.375000 -35.625000C24.570312 -35.625000 24.785156 -35.585938 25.019531 -35.507812C25.292969 -35.390625 25.527344 -35.253906 25.722656 -35.097656L29.414062 -31.347656C29.804688 -32.128906 30.000000 -32.929688 30.000000 -33.750000C30.000000 -35.234375 29.492188 -36.513672 28.476562 -37.587891C27.460938 -38.662109 26.210938 -39.238281 24.726562 -39.316406C24.726562 -39.316406 24.677734 -39.326172 24.580078 -39.345703C24.482422 -39.365234 24.414062 -39.375000 24.375000 -39.375000C23.750000 -39.375000 23.105469 -39.257812 22.441406 -39.023438L10.898438 -50.566406C11.132812 -51.230469 11.250000 -51.875000 11.250000 -52.500000C11.250000 -52.539062 11.240234 -52.607422 11.220703 -52.705078C11.201172 -52.802734 11.191406 -52.851562 11.191406 -52.851562C11.113281 -54.335938 10.537109 -55.585938 9.462891 -56.601562C8.388672 -57.617188 7.109375 -58.125000 5.625000 -58.125000C4.804688 -58.125000 4.003906 -57.929688 3.222656 -57.539062L6.972656 -53.847656C7.128906 -53.652344 7.265625 -53.417969 7.382812 -53.144531C7.656250 -52.402344 7.519531 -51.738281 6.972656 -51.152344C6.582031 -50.800781 6.132812 -50.625000 5.625000 -50.625000C5.429688 -50.625000 5.214844 -50.664062 4.980469 -50.742188C4.707031 -50.859375 4.472656 -50.996094 4.277344 -51.152344L0.585938 -54.902344C0.195312 -54.121094 0.000000 -53.320312 0.000000 -52.500000C0.000000 -51.015625 0.507812 -49.736328 1.523438 -48.662109C2.539062 -47.587891 3.789062 -47.011719 5.273438 -46.933594C5.273438 -46.933594 5.322266 -46.923828 5.419922 -46.904297C5.517578 -46.884766 5.585938 -46.875000 5.625000 -46.875000C6.250000 -46.875000 6.894531 -46.992188 7.558594 -47.226562L19.101562 -35.683594C18.867188 -35.019531 18.750000 -34.375000 18.750000 -33.750000C18.750000 -33.710938 18.759766 -33.642578 18.779297 -33.544922C18.798828 -33.447266 18.808594 -33.398438 18.808594 -33.398438C18.886719 -31.914062 19.462891 -30.664062 20.537109 -29.648438C21.611328 -28.632812 22.890625 -28.125000 24.375000 -28.125000C25.195312 -28.125000 25.996094 -28.320312 26.777344 -28.710938L23.027344 -32.402344C22.871094 -32.597656 22.734375 -32.832031 22.617188 -33.105469C22.343750 -33.847656 22.480469 -34.511719 23.027344 -35.097656C23.417969 -35.449219 23.867188 -35.625000 24.375000 -35.625000ZM24.375000 -35.625000"></path></svg>