<svg width="28.125000" height="28.125000" viewBox="1.875000 -54.375000 28.125000 28.125000" xmlns="http://www.w3.org/2000/svg"><path d="M6.005859 -50.244141C3.251953 -47.490234 1.875000 -44.179688 1.875000 -40.312500C1.875000 -36.445312 3.251953 -33.134766 6.005859 -30.380859C8.759766 -27.626953 12.070312 -26.250000 15.937500 -26.250000C19.804688 -26.250000 23.115234 -27.626953 25.869141 -30.380859C28.623047 -33.134766 30.000000 -36.445312 30.000000 -40.312500C30.000000 -44.179688 28.623047 -47.490234 25.869141 -50.244141C23.115234 -52.998047 19.804688 -54.375000 15.937500 -54.375000C12.070312 -54.375000 8.759766 -52.998047 6.005859 -50.244141ZM22.910156 -33.339844C22.480469 -32.910156 22.031250 -32.910156 21.562500 -33.339844L11.250000 -43.652344L11.250000 -37.968750C11.250000 -37.734375 11.162109 -37.519531 10.986328 -37.324219C10.810547 -37.128906 10.585938 -37.031250 10.312500 -37.031250C10.039062 -37.031250 9.814453 -37.128906 9.638672 -37.324219C9.462891 -37.519531 9.375000 -37.734375 9.375000 -37.968750L9.375000 -45.937500C9.375000 -46.054688 9.394531 -46.171875 9.433594 -46.289062C9.472656 -46.406250 9.550781 -46.503906 9.667969 -46.582031C9.746094 -46.699219 9.843750 -46.777344 9.960938 -46.816406C10.078125 -46.855469 10.195312 -46.875000 10.312500 -46.875000L18.281250 -46.875000C18.515625 -46.875000 18.730469 -46.787109 18.925781 -46.611328C19.121094 -46.435547 19.218750 -46.210938 19.218750 -45.937500C19.218750 -45.664062 19.121094 -45.439453 18.925781 -45.263672C18.730469 -45.087891 18.515625 -45.000000 18.281250 -45.000000L12.597656 -45.000000L22.910156 -34.687500C23.339844 -34.218750 23.339844 -33.769531 22.910156 -33.339844ZM22.910156 -33.339844"></path></svg>