<svg width="28.125000" height="28.125000" viewBox="1.875000 -54.375000 28.125000 28.125000" xmlns="http://www.w3.org/2000/svg"><path d="M6.005859 -50.244141C3.251953 -47.490234 1.875000 -44.179688 1.875000 -40.312500C1.875000 -36.445312 3.251953 -33.134766 6.005859 -30.380859C8.759766 -27.626953 12.070312 -26.250000 15.937500 -26.250000C19.804688 -26.250000 23.115234 -27.626953 25.869141 -30.380859C28.623047 -33.134766 30.000000 -36.445312 30.000000 -40.312500C30.000000 -44.179688 28.623047 -47.490234 25.869141 -50.244141C23.115234 -52.998047 19.804688 -54.375000 15.937500 -54.375000C12.070312 -54.375000 8.759766 -52.998047 6.005859 -50.244141ZM22.910156 -45.937500L12.597656 -35.625000L18.281250 -35.625000C18.515625 -35.625000 18.730469 -35.537109 18.925781 -35.361328C19.121094 -35.185547 19.218750 -34.960938 19.218750 -34.687500C19.218750 -34.414062 19.121094 -34.189453 18.925781 -34.013672C18.730469 -33.837891 18.515625 -33.750000 18.281250 -33.750000L10.312500 -33.750000C10.195312 -33.750000 10.078125 -33.769531 9.960938 -33.808594C9.843750 -33.847656 9.746094 -33.925781 9.667969 -34.042969C9.550781 -34.121094 9.472656 -34.218750 9.433594 -34.335938C9.394531 -34.453125 9.375000 -34.570312 9.375000 -34.687500L9.375000 -42.656250C9.375000 -42.890625 9.462891 -43.105469 9.638672 -43.300781C9.814453 -43.496094 10.039062 -43.593750 10.312500 -43.593750C10.585938 -43.593750 10.810547 -43.496094 10.986328 -43.300781C11.162109 -43.105469 11.250000 -42.890625 11.250000 -42.656250L11.250000 -36.972656L21.562500 -47.285156C22.031250 -47.714844 22.480469 -47.714844 22.910156 -47.285156C23.339844 -46.855469 23.339844 -46.406250 22.910156 -45.937500ZM22.910156 -45.937500"></path></svg>