<svg width="30.000000" height="30.000000" viewBox="0.000000 -58.125000 30.000000 30.000000" xmlns="http://www.w3.org/2000/svg"><path d="M28.125000 -58.125000L1.875000 -58.125000C1.367188 -58.125000 0.927734 -57.939453 0.556641 -57.568359C0.185547 -57.197266 0.000000 -56.757812 0.000000 -56.250000L0.000000 -30.000000C0.000000 -29.492188 0.185547 -29.052734 0.556641 -28.681641C0.927734 -28.310547 1.367188 -28.125000 1.875000 -28.125000L28.125000 -28.125000C28.632812 -28.125000 29.072266 -28.310547 29.443359 -28.681641C29.814453 -29.052734 30.000000 -29.492188 30.000000 -30.000000L30.000000 -56.250000C30.000000 -56.757812 29.814453 -57.197266 29.443359 -57.568359C29.072266 -57.939453 28.632812 -58.125000 28.125000 -58.125000ZM13.125000 -40.312500L13.125000 -32.812500C13.125000 -32.539062 13.037109 -32.314453 12.861328 -32.138672C12.685547 -31.962891 12.460938 -31.875000 12.187500 -31.875000C11.914062 -31.875000 11.689453 -31.962891 11.513672 -32.138672C11.337891 -32.314453 11.250000 -32.539062 11.250000 -32.812500L11.250000 -38.027344L5.332031 -32.167969C5.175781 -31.972656 4.960938 -31.875000 4.687500 -31.875000C4.414062 -31.875000 4.199219 -31.972656 4.042969 -32.167969C3.574219 -32.597656 3.574219 -33.027344 4.042969 -33.457031L9.902344 -39.375000L4.687500 -39.375000C4.414062 -39.375000 4.189453 -39.462891 4.013672 -39.638672C3.837891 -39.814453 3.750000 -40.039062 3.750000 -40.312500C3.750000 -40.585938 3.837891 -40.810547 4.013672 -40.986328C4.189453 -41.162109 4.414062 -41.250000 4.687500 -41.250000L12.187500 -41.250000C12.304688 -41.250000 12.421875 -41.230469 12.539062 -41.191406C12.773438 -41.074219 12.949219 -40.898438 13.066406 -40.664062C13.105469 -40.546875 13.125000 -40.429688 13.125000 -40.312500ZM25.312500 -46.875000C25.585938 -46.875000 25.810547 -46.787109 25.986328 -46.611328C26.162109 -46.435547 26.250000 -46.210938 26.250000 -45.937500C26.250000 -45.664062 26.162109 -45.439453 25.986328 -45.263672C25.810547 -45.087891 25.585938 -45.000000 25.312500 -45.000000L17.812500 -45.000000C17.695312 -45.000000 17.578125 -45.019531 17.460938 -45.058594C17.343750 -45.097656 17.246094 -45.175781 17.167969 -45.292969C17.050781 -45.371094 16.972656 -45.468750 16.933594 -45.585938C16.894531 -45.703125 16.875000 -45.820312 16.875000 -45.937500L16.875000 -53.437500C16.875000 -53.710938 16.962891 -53.935547 17.138672 -54.111328C17.314453 -54.287109 17.539062 -54.375000 17.812500 -54.375000C18.085938 -54.375000 18.310547 -54.287109 18.486328 -54.111328C18.662109 -53.935547 18.750000 -53.710938 18.750000 -53.437500L18.750000 -48.222656L24.667969 -54.082031C25.097656 -54.550781 25.537109 -54.560547 25.986328 -54.111328C26.435547 -53.662109 26.425781 -53.222656 25.957031 -52.792969L20.097656 -46.875000ZM25.312500 -46.875000"></path></svg>