<svg width="28.125000" height="28.125000" viewBox="1.875000 -54.375000 28.125000 28.125000" xmlns="http://www.w3.org/2000/svg"><path d="M15.937500 -54.375000C12.070312 -54.375000 8.759766 -52.998047 6.005859 -50.244141C3.251953 -47.490234 1.875000 -44.179688 1.875000 -40.312500C1.875000 -36.445312 3.251953 -33.134766 6.005859 -30.380859C8.759766 -27.626953 12.070312 -26.250000 15.937500 -26.250000C19.804688 -26.250000 23.115234 -27.626953 25.869141 -30.380859C28.623047 -33.134766 30.000000 -36.445312 30.000000 -40.312500C30.000000 -44.179688 28.623047 -47.490234 25.869141 -50.244141C23.115234 -52.998047 19.804688 -54.375000 15.937500 -54.375000ZM18.750000 -34.628906C18.750000 -34.394531 18.652344 -34.199219 18.457031 -34.042969L18.398438 -33.984375C17.929688 -33.632812 17.441406 -33.632812 16.933594 -33.984375L9.726562 -39.726562C9.687500 -39.726562 9.667969 -39.726562 9.667969 -39.726562C9.472656 -39.921875 9.375000 -40.126953 9.375000 -40.341797C9.375000 -40.556641 9.472656 -40.742188 9.667969 -40.898438L16.933594 -46.640625C17.441406 -47.031250 17.929688 -47.031250 18.398438 -46.640625C18.632812 -46.484375 18.750000 -46.289062 18.750000 -46.054688ZM18.750000 -34.628906"></path></svg>