<svg width="28.125000" height="28.125000" viewBox="1.875000 -54.375000 28.125000 28.125000" xmlns="http://www.w3.org/2000/svg"><path d="M15.937500 -54.375000C12.070312 -54.375000 8.759766 -52.998047 6.005859 -50.244141C3.251953 -47.490234 1.875000 -44.179688 1.875000 -40.312500C1.875000 -36.445312 3.251953 -33.134766 6.005859 -30.380859C8.759766 -27.626953 12.070312 -26.250000 15.937500 -26.250000C19.804688 -26.250000 23.115234 -27.626953 25.869141 -30.380859C28.623047 -33.134766 30.000000 -36.445312 30.000000 -40.312500C30.000000 -44.179688 28.623047 -47.490234 25.869141 -50.244141C23.115234 -52.998047 19.804688 -54.375000 15.937500 -54.375000ZM22.207031 -39.726562L14.941406 -33.984375C14.433594 -33.632812 13.945312 -33.632812 13.476562 -33.984375C13.242188 -34.179688 13.125000 -34.394531 13.125000 -34.628906L13.125000 -46.054688C13.125000 -46.289062 13.222656 -46.484375 13.417969 -46.640625L13.476562 -46.640625C13.945312 -47.031250 14.433594 -47.031250 14.941406 -46.640625L22.148438 -40.898438C22.187500 -40.898438 22.207031 -40.898438 22.207031 -40.898438C22.402344 -40.742188 22.500000 -40.546875 22.500000 -40.312500C22.500000 -40.078125 22.402344 -39.882812 22.207031 -39.726562ZM22.207031 -39.726562"></path></svg>