<svg width="28.125000" height="28.125000" viewBox="1.875000 -54.375000 28.125000 28.125000" xmlns="http://www.w3.org/2000/svg"><path d="M15.937500 -54.375000C12.070312 -54.375000 8.759766 -52.998047 6.005859 -50.244141C3.251953 -47.490234 1.875000 -44.179688 1.875000 -40.312500C1.875000 -36.445312 3.251953 -33.134766 6.005859 -30.380859C8.759766 -27.626953 12.070312 -26.250000 15.937500 -26.250000C19.804688 -26.250000 23.115234 -27.626953 25.869141 -30.380859C28.623047 -33.134766 30.000000 -36.445312 30.000000 -40.312500C30.000000 -44.179688 28.623047 -47.490234 25.869141 -50.244141C23.115234 -52.998047 19.804688 -54.375000 15.937500 -54.375000ZM22.441406 -45.527344L17.226562 -40.253906L21.855469 -35.097656C22.285156 -34.667969 22.285156 -34.228516 21.855469 -33.779297C21.425781 -33.330078 20.976562 -33.339844 20.507812 -33.808594L15.878906 -38.964844L10.722656 -33.808594C10.292969 -33.339844 9.863281 -33.339844 9.433594 -33.808594C9.238281 -33.964844 9.140625 -34.179688 9.140625 -34.453125C9.140625 -34.726562 9.238281 -34.941406 9.433594 -35.097656L14.648438 -40.371094L10.019531 -45.527344C9.589844 -45.957031 9.589844 -46.396484 10.019531 -46.845703C10.449219 -47.294922 10.898438 -47.285156 11.367188 -46.816406L15.996094 -41.660156L21.152344 -46.816406C21.582031 -47.285156 22.021484 -47.294922 22.470703 -46.845703C22.919922 -46.396484 22.910156 -45.957031 22.441406 -45.527344ZM22.441406 -45.527344"></path></svg>