<svg width="28.125000" height="28.125000" viewBox="1.875000 -54.375000 28.125000 28.125000" xmlns="http://www.w3.org/2000/svg"><path d="M15.937500 -54.375000C12.070312 -54.375000 8.759766 -52.998047 6.005859 -50.244141C3.251953 -47.490234 1.875000 -44.179688 1.875000 -40.312500C1.875000 -36.445312 3.251953 -33.134766 6.005859 -30.380859C8.759766 -27.626953 12.070312 -26.250000 15.937500 -26.250000C19.804688 -26.250000 23.115234 -27.626953 25.869141 -30.380859C28.623047 -33.134766 30.000000 -36.445312 30.000000 -40.312500C30.000000 -44.179688 28.623047 -47.490234 25.869141 -50.244141C23.115234 -52.998047 19.804688 -54.375000 15.937500 -54.375000ZM23.437500 -33.750000L8.437500 -33.750000C8.164062 -33.750000 7.939453 -33.837891 7.763672 -34.013672C7.587891 -34.189453 7.500000 -34.414062 7.500000 -34.687500C7.500000 -34.960938 7.587891 -35.185547 7.763672 -35.361328C7.939453 -35.537109 8.164062 -35.625000 8.437500 -35.625000L23.437500 -35.625000C23.710938 -35.625000 23.935547 -35.537109 24.111328 -35.361328C24.287109 -35.185547 24.375000 -34.960938 24.375000 -34.687500C24.375000 -34.414062 24.287109 -34.189453 24.111328 -34.013672C23.935547 -33.837891 23.710938 -33.750000 23.437500 -33.750000ZM23.437500 -39.375000L8.437500 -39.375000C8.164062 -39.375000 7.939453 -39.462891 7.763672 -39.638672C7.587891 -39.814453 7.500000 -40.039062 7.500000 -40.312500C7.500000 -40.585938 7.587891 -40.810547 7.763672 -40.986328C7.939453 -41.162109 8.164062 -41.250000 8.437500 -41.250000L23.437500 -41.250000C23.710938 -41.250000 23.935547 -41.162109 24.111328 -40.986328C24.287109 -40.810547 24.375000 -40.585938 24.375000 -40.312500C24.375000 -40.039062 24.287109 -39.814453 24.111328 -39.638672C23.935547 -39.462891 23.710938 -39.375000 23.437500 -39.375000ZM23.437500 -45.000000L8.437500 -45.000000C8.164062 -45.000000 7.939453 -45.087891 7.763672 -45.263672C7.587891 -45.439453 7.500000 -45.664062 7.500000 -45.937500C7.500000 -46.210938 7.587891 -46.435547 7.763672 -46.611328C7.939453 -46.787109 8.164062 -46.875000 8.437500 -46.875000L23.437500 -46.875000C23.710938 -46.875000 23.935547 -46.787109 24.111328 -46.611328C24.287109 -46.435547 24.375000 -46.210938 24.375000 -45.937500C24.375000 -45.664062 24.287109 -45.439453 24.111328 -45.263672C23.935547 -45.087891 23.710938 -45.000000 23.437500 -45.000000ZM23.437500 -45.000000"></path></svg>