<svg width="30.000000" height="26.250000" viewBox="0.000000 -50.625000 30.000000 26.250000" xmlns="http://www.w3.org/2000/svg"><path d="M28.125000 -50.625000L18.750000 -50.625000C18.242188 -50.625000 17.802734 -50.439453 17.431641 -50.068359C17.060547 -49.697266 16.875000 -49.257812 16.875000 -48.750000C16.718750 -47.617188 16.093750 -46.992188 15.000000 -46.875000L1.875000 -46.875000C1.367188 -46.875000 0.927734 -46.699219 0.556641 -46.347656C0.185547 -45.996094 0.000000 -45.566406 0.000000 -45.058594L0.000000 -43.125000L30.000000 -43.125000L30.000000 -45.058594L30.000000 -48.750000C30.000000 -49.257812 29.814453 -49.697266 29.443359 -50.068359C29.072266 -50.439453 28.632812 -50.625000 28.125000 -50.625000ZM0.000000 -26.250000C0.000000 -25.742188 0.185547 -25.302734 0.556641 -24.931641C0.927734 -24.560547 1.367188 -24.375000 1.875000 -24.375000L28.125000 -24.375000C28.632812 -24.375000 29.072266 -24.560547 29.443359 -24.931641C29.814453 -25.302734 30.000000 -25.742188 30.000000 -26.250000L30.000000 -41.250000L0.000000 -41.250000ZM0.000000 -26.250000"></path></svg>