<svg width="30.000000" height="24.375000" viewBox="0.000000 -48.750000 30.000000 24.375000" xmlns="http://www.w3.org/2000/svg"><path d="M28.125000 -48.750000L18.750000 -48.750000C18.242188 -48.750000 17.802734 -48.564453 17.431641 -48.193359C17.060547 -47.822266 16.875000 -47.382812 16.875000 -46.875000C16.718750 -45.742188 16.093750 -45.117188 15.000000 -45.000000L1.875000 -45.000000C1.367188 -45.000000 0.927734 -44.824219 0.556641 -44.472656C0.185547 -44.121094 0.000000 -43.691406 0.000000 -43.183594L0.000000 -26.250000C0.000000 -25.742188 0.185547 -25.302734 0.556641 -24.931641C0.927734 -24.560547 1.367188 -24.375000 1.875000 -24.375000L13.125000 -24.375000L13.125000 -33.750000L9.140625 -33.750000L15.000000 -41.250000L20.859375 -33.750000L16.875000 -33.750000L16.875000 -24.375000L28.125000 -24.375000C28.632812 -24.375000 29.072266 -24.560547 29.443359 -24.931641C29.814453 -25.302734 30.000000 -25.742188 30.000000 -26.250000L30.000000 -41.250000L30.000000 -43.183594L30.000000 -46.875000C30.000000 -47.382812 29.814453 -47.822266 29.443359 -48.193359C29.072266 -48.564453 28.632812 -48.750000 28.125000 -48.750000ZM28.125000 -48.750000"></path></svg>