<svg width="30.000000" height="30.000000" viewBox="0.000000 -58.125000 30.000000 30.000000" xmlns="http://www.w3.org/2000/svg"><path d="M15.000000 -28.125000C19.140625 -28.125000 22.675781 -29.589844 25.605469 -32.519531C28.535156 -35.449219 30.000000 -38.984375 30.000000 -43.125000C30.000000 -47.265625 28.535156 -50.800781 25.605469 -53.730469C22.675781 -56.660156 19.140625 -58.125000 15.000000 -58.125000C10.859375 -58.125000 7.324219 -56.660156 4.394531 -53.730469C1.464844 -50.800781 0.000000 -47.265625 0.000000 -43.125000C0.000000 -38.984375 1.464844 -35.449219 4.394531 -32.519531C7.324219 -29.589844 10.859375 -28.125000 15.000000 -28.125000ZM15.000000 -54.375000C17.070312 -54.375000 18.837891 -53.779297 20.302734 -52.587891C21.767578 -51.396484 22.500000 -49.687500 22.500000 -47.460938C22.500000 -44.648438 21.132812 -42.500000 18.398438 -41.015625C18.007812 -40.820312 17.656250 -40.546875 17.343750 -40.195312C17.031250 -39.843750 16.875000 -39.570312 16.875000 -39.375000C16.875000 -38.867188 16.689453 -38.427734 16.318359 -38.056641C15.947266 -37.685547 15.507812 -37.500000 15.000000 -37.500000C14.492188 -37.500000 14.052734 -37.685547 13.681641 -38.056641C13.310547 -38.427734 13.125000 -38.867188 13.125000 -39.375000C13.125000 -40.429688 13.496094 -41.396484 14.238281 -42.275391C14.980469 -43.154297 15.761719 -43.828125 16.582031 -44.296875C18.027344 -45.078125 18.750000 -46.132812 18.750000 -47.460938C18.750000 -49.570312 17.500000 -50.625000 15.000000 -50.625000C13.984375 -50.625000 13.105469 -50.292969 12.363281 -49.628906C11.621094 -48.964844 11.250000 -48.027344 11.250000 -46.816406C11.250000 -46.308594 11.064453 -45.869141 10.693359 -45.498047C10.322266 -45.126953 9.882812 -44.941406 9.375000 -44.941406C8.867188 -44.941406 8.427734 -45.126953 8.056641 -45.498047C7.685547 -45.869141 7.500000 -46.308594 7.500000 -46.816406C7.500000 -49.160156 8.261719 -51.005859 9.785156 -52.353516C11.308594 -53.701172 13.046875 -54.375000 15.000000 -54.375000ZM15.000000 -31.816406C14.453125 -31.816406 13.994141 -32.001953 13.623047 -32.373047C13.251953 -32.744141 13.066406 -33.193359 13.066406 -33.720703C13.066406 -34.248047 13.251953 -34.707031 13.623047 -35.097656C13.994141 -35.488281 14.453125 -35.683594 15.000000 -35.683594C15.546875 -35.683594 16.005859 -35.488281 16.376953 -35.097656C16.748047 -34.707031 16.933594 -34.248047 16.933594 -33.720703C16.933594 -33.193359 16.748047 -32.744141 16.376953 -32.373047C16.005859 -32.001953 15.546875 -31.816406 15.000000 -31.816406ZM15.000000 -31.816406"></path></svg>