<svg width="30.000000" height="22.675781" viewBox="0.000000 -47.050781 30.000000 22.675781" xmlns="http://www.w3.org/2000/svg"><path d="M26.191406 -39.726562C26.347656 -38.945312 26.425781 -38.183594 26.425781 -37.441406C26.425781 -34.433594 25.292969 -31.787109 23.027344 -29.501953C20.761719 -27.216797 17.929688 -25.800781 14.531250 -25.253906C16.054688 -24.667969 17.636719 -24.375000 19.277344 -24.375000C20.839844 -24.375000 22.343750 -24.648438 23.789062 -25.195312C25.234375 -24.687500 26.953125 -24.433594 28.945312 -24.433594C28.242188 -25.292969 27.656250 -26.210938 27.187500 -27.187500C29.062500 -28.867188 30.000000 -30.839844 30.000000 -33.105469C30.000000 -35.800781 28.730469 -38.007812 26.191406 -39.726562ZM23.613281 -37.441406C23.613281 -40.097656 22.460938 -42.363281 20.156250 -44.238281C17.851562 -46.113281 15.068359 -47.050781 11.806641 -47.050781C8.544922 -47.050781 5.761719 -46.113281 3.457031 -44.238281C1.152344 -42.363281 0.000000 -40.097656 0.000000 -37.441406C0.000000 -34.707031 1.250000 -32.382812 3.750000 -30.468750C3.164062 -28.984375 2.363281 -27.617188 1.347656 -26.367188C4.589844 -26.367188 7.167969 -26.953125 9.082031 -28.125000C10.019531 -27.968750 10.937500 -27.890625 11.835938 -27.890625C15.078125 -27.890625 17.851562 -28.818359 20.156250 -30.673828C22.460938 -32.529297 23.613281 -34.785156 23.613281 -37.441406ZM23.613281 -37.441406"></path></svg>