<svg width="23.671875" height="30.078125" viewBox="3.750000 -58.242188 23.671875 30.078125" xmlns="http://www.w3.org/2000/svg"><path d="M19.277344 -58.203125C18.925781 -58.242188 18.535156 -58.125000 18.105469 -57.851562C12.871094 -53.320312 10.136719 -50.937500 9.902344 -50.703125L5.625000 -50.703125C5.117188 -50.703125 4.677734 -50.517578 4.306641 -50.146484C3.935547 -49.775391 3.750000 -49.335938 3.750000 -48.828125L3.750000 -48.593750L3.750000 -37.578125L3.750000 -37.343750C3.750000 -36.835938 3.935547 -36.396484 4.306641 -36.025391C4.677734 -35.654297 5.117188 -35.468750 5.625000 -35.468750L9.902344 -35.468750L18.105469 -28.554688C18.535156 -28.281250 18.925781 -28.164062 19.277344 -28.203125C19.980469 -28.281250 20.429688 -28.710938 20.625000 -29.492188C20.625000 -29.492188 20.625000 -34.062500 20.625000 -43.203125C20.625000 -52.343750 20.625000 -56.914062 20.625000 -56.914062C20.429688 -57.695312 19.980469 -58.125000 19.277344 -58.203125ZM23.496094 -39.921875C23.261719 -39.804688 23.105469 -39.628906 23.027344 -39.394531C22.949219 -39.160156 22.968750 -38.925781 23.085938 -38.691406C23.281250 -38.339844 23.554688 -38.164062 23.906250 -38.164062C24.062500 -38.164062 24.218750 -38.183594 24.375000 -38.222656C25.312500 -38.730469 26.054688 -39.423828 26.601562 -40.302734C27.148438 -41.181641 27.421875 -42.148438 27.421875 -43.203125C27.421875 -44.257812 27.148438 -45.224609 26.601562 -46.103516C26.054688 -46.982422 25.312500 -47.675781 24.375000 -48.183594C24.140625 -48.300781 23.896484 -48.310547 23.642578 -48.212891C23.388672 -48.115234 23.203125 -47.949219 23.085938 -47.714844C22.968750 -47.480469 22.949219 -47.246094 23.027344 -47.011719C23.105469 -46.777344 23.261719 -46.601562 23.496094 -46.484375C24.863281 -45.781250 25.546875 -44.687500 25.546875 -43.203125C25.546875 -41.718750 24.863281 -40.625000 23.496094 -39.921875ZM23.496094 -39.921875"></path></svg>