<svg width="30.000000" height="30.000000" viewBox="0.000000 -58.125000 30.000000 30.000000" xmlns="http://www.w3.org/2000/svg"><path d="M15.000000 -58.125000C10.859375 -58.125000 7.324219 -56.660156 4.394531 -53.730469C1.464844 -50.800781 0.000000 -47.265625 0.000000 -43.125000C0.000000 -38.984375 1.464844 -35.449219 4.394531 -32.519531C7.324219 -29.589844 10.859375 -28.125000 15.000000 -28.125000C19.140625 -28.125000 22.675781 -29.589844 25.605469 -32.519531C28.535156 -35.449219 30.000000 -38.984375 30.000000 -43.125000C30.000000 -47.265625 28.535156 -50.800781 25.605469 -53.730469C22.675781 -56.660156 19.140625 -58.125000 15.000000 -58.125000ZM22.500000 -43.417969C22.343750 -40.605469 20.859375 -38.066406 18.046875 -35.800781C17.890625 -35.644531 17.714844 -35.566406 17.519531 -35.566406C17.207031 -35.566406 16.972656 -35.703125 16.816406 -35.976562C16.425781 -36.445312 16.464844 -36.875000 16.933594 -37.265625C19.238281 -39.140625 20.488281 -41.171875 20.683594 -43.359375C20.253906 -43.085938 19.804688 -42.949219 19.335938 -42.949219C18.593750 -42.949219 17.949219 -43.232422 17.402344 -43.798828C16.855469 -44.365234 16.582031 -45.039062 16.582031 -45.820312C16.582031 -46.601562 16.855469 -47.275391 17.402344 -47.841797C17.949219 -48.408203 18.593750 -48.691406 19.335938 -48.691406C19.648438 -48.691406 19.980469 -48.613281 20.332031 -48.457031L20.332031 -48.515625C20.410156 -48.476562 20.507812 -48.417969 20.625000 -48.339844L20.683594 -48.339844C20.839844 -48.261719 20.976562 -48.164062 21.093750 -48.046875C21.093750 -48.007812 21.152344 -47.929688 21.269531 -47.812500C22.246094 -46.835938 22.656250 -45.371094 22.500000 -43.417969ZM10.253906 -42.949219C9.511719 -42.949219 8.867188 -43.232422 8.320312 -43.798828C7.773438 -44.365234 7.500000 -45.039062 7.500000 -45.820312C7.500000 -46.601562 7.773438 -47.275391 8.320312 -47.841797C8.867188 -48.408203 9.511719 -48.691406 10.253906 -48.691406C10.566406 -48.691406 10.898438 -48.613281 11.250000 -48.457031L11.191406 -48.515625C11.308594 -48.476562 11.425781 -48.417969 11.542969 -48.339844C11.542969 -48.339844 11.562500 -48.339844 11.601562 -48.339844C11.718750 -48.261719 11.855469 -48.164062 12.011719 -48.046875C12.011719 -48.007812 12.070312 -47.929688 12.187500 -47.812500C13.164062 -46.835938 13.574219 -45.371094 13.417969 -43.417969C13.261719 -40.605469 11.777344 -38.066406 8.964844 -35.800781C8.808594 -35.644531 8.632812 -35.566406 8.437500 -35.566406C8.125000 -35.566406 7.871094 -35.703125 7.675781 -35.976562C7.324219 -36.445312 7.382812 -36.875000 7.851562 -37.265625C10.156250 -39.140625 11.406250 -41.171875 11.601562 -43.359375C11.171875 -43.085938 10.722656 -42.949219 10.253906 -42.949219ZM10.253906 -42.949219"></path></svg>