<svg width="30.000000" height="30.000000" viewBox="0.000000 -58.125000 30.000000 30.000000" xmlns="http://www.w3.org/2000/svg"><path d="M28.125000 -50.625000L16.933594 -50.625000L16.933594 -45.000000L30.000000 -45.000000L30.000000 -48.750000C30.000000 -49.257812 29.814453 -49.697266 29.443359 -50.068359C29.072266 -50.439453 28.632812 -50.625000 28.125000 -50.625000ZM1.875000 -50.625000C1.367188 -50.625000 0.927734 -50.439453 0.556641 -50.068359C0.185547 -49.697266 0.000000 -49.257812 0.000000 -48.750000L0.000000 -45.000000L13.125000 -45.000000L13.125000 -50.625000ZM1.875000 -43.125000L1.875000 -30.000000C1.875000 -29.492188 2.060547 -29.052734 2.431641 -28.681641C2.802734 -28.310547 3.242188 -28.125000 3.750000 -28.125000L13.125000 -28.125000L13.125000 -43.125000ZM26.250000 -28.125000C26.757812 -28.125000 27.197266 -28.310547 27.568359 -28.681641C27.939453 -29.052734 28.125000 -29.492188 28.125000 -30.000000L28.125000 -43.125000L16.933594 -43.125000L16.933594 -28.125000ZM15.000000 -52.500000L16.933594 -52.500000L22.500000 -52.500000C23.750000 -52.500000 24.687500 -52.763672 25.312500 -53.291016C25.937500 -53.818359 26.250000 -54.492188 26.250000 -55.312500C26.250000 -56.132812 25.937500 -56.806641 25.312500 -57.333984C24.687500 -57.861328 23.750000 -58.125000 22.500000 -58.125000C20.351562 -58.125000 18.476562 -57.343750 16.875000 -55.781250C16.250000 -56.132812 15.605469 -56.308594 14.941406 -56.308594C14.316406 -56.308594 13.691406 -56.132812 13.066406 -55.781250C11.503906 -57.343750 9.648438 -58.125000 7.500000 -58.125000C6.250000 -58.125000 5.312500 -57.861328 4.687500 -57.333984C4.062500 -56.806641 3.750000 -56.132812 3.750000 -55.312500C3.750000 -54.492188 4.062500 -53.818359 4.687500 -53.291016C5.312500 -52.763672 6.250000 -52.500000 7.500000 -52.500000L13.125000 -52.500000ZM24.375000 -55.312500C24.375000 -54.687500 23.750000 -54.375000 22.500000 -54.375000L18.222656 -54.375000C18.222656 -54.375000 18.222656 -54.394531 18.222656 -54.433594C19.433594 -55.644531 20.859375 -56.250000 22.500000 -56.250000C23.750000 -56.250000 24.375000 -55.937500 24.375000 -55.312500ZM5.625000 -55.312500C5.625000 -55.937500 6.250000 -56.250000 7.500000 -56.250000C9.101562 -56.250000 10.507812 -55.664062 11.718750 -54.492188C11.718750 -54.492188 11.708984 -54.472656 11.689453 -54.433594C11.669922 -54.394531 11.660156 -54.375000 11.660156 -54.375000L7.500000 -54.375000C6.250000 -54.375000 5.625000 -54.687500 5.625000 -55.312500ZM5.625000 -55.312500"></path></svg>