<svg width="30.000000" height="22.500000" viewBox="0.000000 -43.125000 30.000000 22.500000" xmlns="http://www.w3.org/2000/svg"><path d="M28.125000 -43.125000L1.875000 -43.125000C1.367188 -43.125000 0.927734 -42.939453 0.556641 -42.568359C0.185547 -42.197266 0.000000 -41.757812 0.000000 -41.250000L0.000000 -38.085938L15.000000 -32.109375L30.000000 -38.085938L30.000000 -41.250000C30.000000 -41.757812 29.814453 -42.197266 29.443359 -42.568359C29.072266 -42.939453 28.632812 -43.125000 28.125000 -43.125000ZM0.000000 -35.039062L0.000000 -22.500000C0.000000 -21.992188 0.185547 -21.552734 0.556641 -21.181641C0.927734 -20.810547 1.367188 -20.625000 1.875000 -20.625000L28.125000 -20.625000C28.632812 -20.625000 29.072266 -20.810547 29.443359 -21.181641C29.814453 -21.552734 30.000000 -21.992188 30.000000 -22.500000L30.000000 -35.039062L15.000000 -29.062500ZM0.000000 -35.039062"></path></svg>