<svg width="30.000000" height="30.000000" viewBox="0.000000 -58.125000 30.000000 30.000000" xmlns="http://www.w3.org/2000/svg"><path d="M20.332031 -46.875000L16.757812 -56.894531C16.484375 -57.714844 15.898438 -58.125000 15.000000 -58.125000C14.101562 -58.125000 13.515625 -57.714844 13.242188 -56.894531L9.667969 -46.875000ZM25.019531 -33.750000L22.324219 -41.250000L7.675781 -41.250000L4.980469 -33.750000ZM1.875000 -31.875000C1.367188 -31.875000 0.927734 -31.689453 0.556641 -31.318359C0.185547 -30.947266 0.000000 -30.507812 0.000000 -30.000000C0.000000 -29.492188 0.185547 -29.052734 0.556641 -28.681641C0.927734 -28.310547 1.367188 -28.125000 1.875000 -28.125000L5.625000 -28.125000L24.375000 -28.125000L28.125000 -28.125000C28.632812 -28.125000 29.072266 -28.310547 29.443359 -28.681641C29.814453 -29.052734 30.000000 -29.492188 30.000000 -30.000000C30.000000 -30.507812 29.814453 -30.947266 29.443359 -31.318359C29.072266 -31.689453 28.632812 -31.875000 28.125000 -31.875000ZM1.875000 -31.875000"></path></svg>