<svg width="30.000000" height="26.308594" viewBox="0.000000 -52.558594 30.000000 26.308594" xmlns="http://www.w3.org/2000/svg"><path d="M26.250000 -50.683594C25.703125 -51.933594 24.863281 -52.558594 23.730469 -52.558594L6.093750 -52.558594C5.039062 -52.558594 4.257812 -51.933594 3.750000 -50.683594L0.000000 -35.683594L0.000000 -35.625000L0.000000 -34.687500L0.000000 -33.750000L0.000000 -32.753906L0.000000 -27.187500C0.000000 -26.953125 0.087891 -26.738281 0.263672 -26.542969C0.439453 -26.347656 0.664062 -26.250000 0.937500 -26.250000L29.062500 -26.250000C29.335938 -26.250000 29.560547 -26.347656 29.736328 -26.542969C29.912109 -26.738281 30.000000 -26.953125 30.000000 -27.187500L30.000000 -32.812500L30.000000 -32.871094L30.000000 -33.750000L30.000000 -34.687500L30.000000 -35.566406L30.000000 -35.625000ZM5.507812 -50.039062C5.703125 -50.468750 5.898438 -50.683594 6.093750 -50.683594L23.730469 -50.683594C24.003906 -50.683594 24.257812 -50.468750 24.492188 -50.039062L27.773438 -36.621094C27.773438 -36.347656 27.685547 -36.123047 27.509766 -35.947266C27.333984 -35.771484 27.109375 -35.683594 26.835938 -35.683594L26.835938 -35.625000L24.375000 -35.625000L19.687500 -35.625000C19.414062 -35.625000 19.189453 -35.537109 19.013672 -35.361328C18.837891 -35.185547 18.750000 -34.960938 18.750000 -34.687500L18.750000 -32.871094C18.750000 -32.597656 18.662109 -32.373047 18.486328 -32.197266C18.310547 -32.021484 18.085938 -31.933594 17.812500 -31.933594C17.812500 -31.933594 17.802734 -31.933594 17.783203 -31.933594C17.763672 -31.933594 17.753906 -31.914062 17.753906 -31.875000L12.246094 -31.875000C12.207031 -31.914062 12.187500 -31.933594 12.187500 -31.933594C11.914062 -31.933594 11.689453 -32.021484 11.513672 -32.197266C11.337891 -32.373047 11.250000 -32.597656 11.250000 -32.871094L11.250000 -34.687500C11.250000 -34.960938 11.162109 -35.185547 10.986328 -35.361328C10.810547 -35.537109 10.585938 -35.625000 10.312500 -35.625000L3.750000 -35.625000L3.164062 -35.625000L3.164062 -35.683594C2.890625 -35.683594 2.666016 -35.771484 2.490234 -35.947266C2.314453 -36.123047 2.226562 -36.347656 2.226562 -36.621094L2.167969 -36.621094ZM5.507812 -50.039062"></path></svg>