<svg width="30.000000" height="30.000000" viewBox="0.000000 -58.125000 30.000000 30.000000" xmlns="http://www.w3.org/2000/svg"><path d="M3.750000 -58.125000L3.750000 -28.125000L1.875000 -28.125000C1.367188 -28.125000 0.927734 -28.310547 0.556641 -28.681641C0.185547 -29.052734 0.000000 -29.492188 0.000000 -30.000000L0.000000 -56.250000C0.000000 -56.757812 0.185547 -57.197266 0.556641 -57.568359C0.927734 -57.939453 1.367188 -58.125000 1.875000 -58.125000ZM24.375000 -58.125000C24.882812 -58.125000 25.322266 -57.939453 25.693359 -57.568359C26.064453 -57.197266 26.250000 -56.757812 26.250000 -56.250000L26.250000 -30.000000C26.250000 -29.492188 26.064453 -29.052734 25.693359 -28.681641C25.322266 -28.310547 24.882812 -28.125000 24.375000 -28.125000L5.625000 -28.125000L5.625000 -58.125000L24.375000 -58.125000ZM15.820312 -50.917969C15.039062 -50.917969 14.375000 -50.634766 13.828125 -50.068359C13.281250 -49.501953 13.007812 -48.828125 13.007812 -48.046875C13.007812 -47.265625 13.281250 -46.601562 13.828125 -46.054688C14.375000 -45.507812 15.039062 -45.234375 15.820312 -45.234375C16.601562 -45.234375 17.275391 -45.507812 17.841797 -46.054688C18.408203 -46.601562 18.691406 -47.265625 18.691406 -48.046875C18.691406 -48.828125 18.408203 -49.501953 17.841797 -50.068359C17.275391 -50.634766 16.601562 -50.917969 15.820312 -50.917969ZM11.250000 -37.851562C11.250000 -37.148438 11.640625 -36.562500 12.421875 -36.093750C13.789062 -35.234375 15.507812 -35.019531 17.578125 -35.449219C19.531250 -35.839844 20.507812 -36.640625 20.507812 -37.851562C20.507812 -39.570312 20.058594 -41.035156 19.160156 -42.246094C18.261719 -43.457031 17.167969 -44.062500 15.878906 -44.062500C14.589844 -44.062500 13.496094 -43.457031 12.597656 -42.246094C11.699219 -41.035156 11.250000 -39.570312 11.250000 -37.851562ZM28.125000 -56.250000L30.000000 -56.250000L30.000000 -50.625000L28.125000 -50.625000ZM28.125000 -48.750000L30.000000 -48.750000L30.000000 -43.125000L28.125000 -43.125000ZM28.125000 -41.250000L30.000000 -41.250000L30.000000 -35.625000L28.125000 -35.625000ZM28.125000 -41.250000"></path></svg>