<svg width="18.750000" height="30.087891" viewBox="5.625000 -58.212891 18.750000 30.087891" xmlns="http://www.w3.org/2000/svg"><path d="M20.625000 -52.587891C20.625000 -54.111328 20.068359 -55.429688 18.955078 -56.542969C17.841797 -57.656250 16.523438 -58.212891 15.000000 -58.212891C13.476562 -58.212891 12.158203 -57.656250 11.044922 -56.542969C9.931641 -55.429688 9.375000 -54.111328 9.375000 -52.587891C9.375000 -51.064453 9.931641 -49.746094 11.044922 -48.632812C12.158203 -47.519531 13.476562 -46.962891 15.000000 -46.962891C16.523438 -46.962891 17.841797 -47.519531 18.955078 -48.632812C20.068359 -49.746094 20.625000 -51.064453 20.625000 -52.587891ZM15.000000 -45.087891C12.500000 -45.087891 10.312500 -43.916016 8.437500 -41.572266C6.562500 -39.228516 5.625000 -36.435547 5.625000 -33.193359C5.625000 -32.255859 5.966797 -31.435547 6.650391 -30.732422C7.333984 -30.029297 8.232422 -29.492188 9.345703 -29.121094C10.458984 -28.750000 11.679688 -28.476562 13.007812 -28.300781C14.335938 -28.125000 15.664062 -28.125000 16.992188 -28.300781C18.320312 -28.476562 19.541016 -28.750000 20.654297 -29.121094C21.767578 -29.492188 22.666016 -30.029297 23.349609 -30.732422C24.033203 -31.435547 24.375000 -32.255859 24.375000 -33.193359C24.375000 -36.435547 23.437500 -39.228516 21.562500 -41.572266C19.687500 -43.916016 17.500000 -45.087891 15.000000 -45.087891ZM15.000000 -45.087891"></path></svg>