<svg width="22.500000" height="22.500000" viewBox="3.750000 -46.875000 22.500000 22.500000" xmlns="http://www.w3.org/2000/svg"><path d="M5.625000 -37.500000L11.250000 -37.500000C11.757812 -37.500000 12.197266 -37.685547 12.568359 -38.056641C12.939453 -38.427734 13.125000 -38.867188 13.125000 -39.375000L13.125000 -45.000000C13.125000 -45.507812 12.939453 -45.947266 12.568359 -46.318359C12.197266 -46.689453 11.757812 -46.875000 11.250000 -46.875000L5.625000 -46.875000C5.117188 -46.875000 4.677734 -46.689453 4.306641 -46.318359C3.935547 -45.947266 3.750000 -45.507812 3.750000 -45.000000L3.750000 -39.375000C3.750000 -38.867188 3.935547 -38.427734 4.306641 -38.056641C4.677734 -37.685547 5.117188 -37.500000 5.625000 -37.500000ZM18.750000 -37.500000L24.375000 -37.500000C24.882812 -37.500000 25.322266 -37.685547 25.693359 -38.056641C26.064453 -38.427734 26.250000 -38.867188 26.250000 -39.375000L26.250000 -45.000000C26.250000 -45.507812 26.064453 -45.947266 25.693359 -46.318359C25.322266 -46.689453 24.882812 -46.875000 24.375000 -46.875000L18.750000 -46.875000C18.242188 -46.875000 17.802734 -46.689453 17.431641 -46.318359C17.060547 -45.947266 16.875000 -45.507812 16.875000 -45.000000L16.875000 -39.375000C16.875000 -38.867188 17.060547 -38.427734 17.431641 -38.056641C17.802734 -37.685547 18.242188 -37.500000 18.750000 -37.500000ZM3.750000 -26.250000C3.750000 -25.742188 3.935547 -25.302734 4.306641 -24.931641C4.677734 -24.560547 5.117188 -24.375000 5.625000 -24.375000L11.250000 -24.375000C11.757812 -24.375000 12.197266 -24.560547 12.568359 -24.931641C12.939453 -25.302734 13.125000 -25.742188 13.125000 -26.250000L13.125000 -31.875000C13.125000 -32.382812 12.939453 -32.822266 12.568359 -33.193359C12.197266 -33.564453 11.757812 -33.750000 11.250000 -33.750000L5.625000 -33.750000C5.117188 -33.750000 4.677734 -33.564453 4.306641 -33.193359C3.935547 -32.822266 3.750000 -32.382812 3.750000 -31.875000ZM16.875000 -26.250000C16.875000 -25.742188 17.060547 -25.302734 17.431641 -24.931641C17.802734 -24.560547 18.242188 -24.375000 18.750000 -24.375000L24.375000 -24.375000C24.882812 -24.375000 25.322266 -24.560547 25.693359 -24.931641C26.064453 -25.302734 26.250000 -25.742188 26.250000 -26.250000L26.250000 -31.875000C26.250000 -32.382812 26.064453 -32.822266 25.693359 -33.193359C25.322266 -33.564453 24.882812 -33.750000 24.375000 -33.750000L18.750000 -33.750000C18.242188 -33.750000 17.802734 -33.564453 17.431641 -33.193359C17.060547 -32.822266 16.875000 -32.382812 16.875000 -31.875000ZM16.875000 -26.250000"></path></svg>