<svg width="26.250000" height="26.250000" viewBox="1.875000 -52.500000 26.250000 26.250000" xmlns="http://www.w3.org/2000/svg"><path d="M3.750000 -45.000000L7.500000 -45.000000C8.007812 -45.000000 8.447266 -45.185547 8.818359 -45.556641C9.189453 -45.927734 9.375000 -46.367188 9.375000 -46.875000L9.375000 -50.625000C9.375000 -51.132812 9.189453 -51.572266 8.818359 -51.943359C8.447266 -52.314453 8.007812 -52.500000 7.500000 -52.500000L3.750000 -52.500000C3.242188 -52.500000 2.802734 -52.314453 2.431641 -51.943359C2.060547 -51.572266 1.875000 -51.132812 1.875000 -50.625000L1.875000 -46.875000C1.875000 -46.367188 2.060547 -45.927734 2.431641 -45.556641C2.802734 -45.185547 3.242188 -45.000000 3.750000 -45.000000ZM13.125000 -45.000000L16.875000 -45.000000C17.382812 -45.000000 17.822266 -45.185547 18.193359 -45.556641C18.564453 -45.927734 18.750000 -46.367188 18.750000 -46.875000L18.750000 -50.625000C18.750000 -51.132812 18.564453 -51.572266 18.193359 -51.943359C17.822266 -52.314453 17.382812 -52.500000 16.875000 -52.500000L13.125000 -52.500000C12.617188 -52.500000 12.177734 -52.314453 11.806641 -51.943359C11.435547 -51.572266 11.250000 -51.132812 11.250000 -50.625000L11.250000 -46.875000C11.250000 -46.367188 11.435547 -45.927734 11.806641 -45.556641C12.177734 -45.185547 12.617188 -45.000000 13.125000 -45.000000ZM22.500000 -45.000000L26.250000 -45.000000C26.757812 -45.000000 27.197266 -45.185547 27.568359 -45.556641C27.939453 -45.927734 28.125000 -46.367188 28.125000 -46.875000L28.125000 -50.625000C28.125000 -51.132812 27.939453 -51.572266 27.568359 -51.943359C27.197266 -52.314453 26.757812 -52.500000 26.250000 -52.500000L22.500000 -52.500000C21.992188 -52.500000 21.552734 -52.314453 21.181641 -51.943359C20.810547 -51.572266 20.625000 -51.132812 20.625000 -50.625000L20.625000 -46.875000C20.625000 -46.367188 20.810547 -45.927734 21.181641 -45.556641C21.552734 -45.185547 21.992188 -45.000000 22.500000 -45.000000ZM1.875000 -37.500000C1.875000 -36.992188 2.060547 -36.552734 2.431641 -36.181641C2.802734 -35.810547 3.242188 -35.625000 3.750000 -35.625000L7.500000 -35.625000C8.007812 -35.625000 8.447266 -35.810547 8.818359 -36.181641C9.189453 -36.552734 9.375000 -36.992188 9.375000 -37.500000L9.375000 -41.250000C9.375000 -41.757812 9.189453 -42.197266 8.818359 -42.568359C8.447266 -42.939453 8.007812 -43.125000 7.500000 -43.125000L3.750000 -43.125000C3.242188 -43.125000 2.802734 -42.939453 2.431641 -42.568359C2.060547 -42.197266 1.875000 -41.757812 1.875000 -41.250000ZM11.250000 -37.500000C11.250000 -36.992188 11.435547 -36.552734 11.806641 -36.181641C12.177734 -35.810547 12.617188 -35.625000 13.125000 -35.625000L16.875000 -35.625000C17.382812 -35.625000 17.822266 -35.810547 18.193359 -36.181641C18.564453 -36.552734 18.750000 -36.992188 18.750000 -37.500000L18.750000 -41.250000C18.750000 -41.757812 18.564453 -42.197266 18.193359 -42.568359C17.822266 -42.939453 17.382812 -43.125000 16.875000 -43.125000L13.125000 -43.125000C12.617188 -43.125000 12.177734 -42.939453 11.806641 -42.568359C11.435547 -42.197266 11.250000 -41.757812 11.250000 -41.250000ZM20.625000 -37.500000C20.625000 -36.992188 20.810547 -36.552734 21.181641 -36.181641C21.552734 -35.810547 21.992188 -35.625000 22.500000 -35.625000L26.250000 -35.625000C26.757812 -35.625000 27.197266 -35.810547 27.568359 -36.181641C27.939453 -36.552734 28.125000 -36.992188 28.125000 -37.500000L28.125000 -41.250000C28.125000 -41.757812 27.939453 -42.197266 27.568359 -42.568359C27.197266 -42.939453 26.757812 -43.125000 26.250000 -43.125000L22.500000 -43.125000C21.992188 -43.125000 21.552734 -42.939453 21.181641 -42.568359C20.810547 -42.197266 20.625000 -41.757812 20.625000 -41.250000ZM1.875000 -28.125000C1.875000 -27.617188 2.060547 -27.177734 2.431641 -26.806641C2.802734 -26.435547 3.242188 -26.250000 3.750000 -26.250000L7.500000 -26.250000C8.007812 -26.250000 8.447266 -26.435547 8.818359 -26.806641C9.189453 -27.177734 9.375000 -27.617188 9.375000 -28.125000L9.375000 -31.875000C9.375000 -32.382812 9.189453 -32.822266 8.818359 -33.193359C8.447266 -33.564453 8.007812 -33.750000 7.500000 -33.750000L3.750000 -33.750000C3.242188 -33.750000 2.802734 -33.564453 2.431641 -33.193359C2.060547 -32.822266 1.875000 -32.382812 1.875000 -31.875000ZM11.250000 -28.125000C11.250000 -27.617188 11.435547 -27.177734 11.806641 -26.806641C12.177734 -26.435547 12.617188 -26.250000 13.125000 -26.250000L16.875000 -26.250000C17.382812 -26.250000 17.822266 -26.435547 18.193359 -26.806641C18.564453 -27.177734 18.750000 -27.617188 18.750000 -28.125000L18.750000 -31.875000C18.750000 -32.382812 18.564453 -32.822266 18.193359 -33.193359C17.822266 -33.564453 17.382812 -33.750000 16.875000 -33.750000L13.125000 -33.750000C12.617188 -33.750000 12.177734 -33.564453 11.806641 -33.193359C11.435547 -32.822266 11.250000 -32.382812 11.250000 -31.875000ZM20.625000 -28.125000C20.625000 -27.617188 20.810547 -27.177734 21.181641 -26.806641C21.552734 -26.435547 21.992188 -26.250000 22.500000 -26.250000L26.250000 -26.250000C26.757812 -26.250000 27.197266 -26.435547 27.568359 -26.806641C27.939453 -27.177734 28.125000 -27.617188 28.125000 -28.125000L28.125000 -31.875000C28.125000 -32.382812 27.939453 -32.822266 27.568359 -33.193359C27.197266 -33.564453 26.757812 -33.750000 26.250000 -33.750000L22.500000 -33.750000C21.992188 -33.750000 21.552734 -33.564453 21.181641 -33.193359C20.810547 -32.822266 20.625000 -32.382812 20.625000 -31.875000ZM20.625000 -28.125000"></path></svg>