<svg width="30.410156" height="26.777344" viewBox="-0.039062 -53.398438 30.410156 26.777344" xmlns="http://www.w3.org/2000/svg"><path d="M17.226562 -45.937500C18.320312 -46.601562 19.257812 -46.796875 20.039062 -46.523438C20.820312 -46.250000 21.259766 -45.683594 21.357422 -44.824219C21.455078 -43.964844 21.230469 -42.968750 20.683594 -41.835938C18.769531 -38.242188 17.382812 -36.445312 16.523438 -36.445312C16.132812 -36.445312 15.761719 -36.904297 15.410156 -37.822266C15.058594 -38.740234 14.609375 -40.273438 14.062500 -42.421875C13.945312 -43.007812 13.789062 -43.886719 13.593750 -45.058594C13.398438 -46.230469 13.212891 -47.226562 13.037109 -48.046875C12.861328 -48.867188 12.617188 -49.707031 12.304688 -50.566406C11.992188 -51.425781 11.552734 -52.041016 10.986328 -52.412109C10.419922 -52.783203 9.746094 -52.890625 8.964844 -52.734375C7.832031 -52.500000 6.523438 -51.806641 5.039062 -50.654297C3.554688 -49.501953 2.333984 -48.427734 1.376953 -47.431641C0.419922 -46.435547 -0.039062 -45.917969 0.000000 -45.878906L1.230469 -44.296875C1.308594 -44.335938 1.396484 -44.394531 1.494141 -44.472656C1.591797 -44.550781 1.806641 -44.687500 2.138672 -44.882812C2.470703 -45.078125 2.773438 -45.234375 3.046875 -45.351562C3.320312 -45.468750 3.603516 -45.527344 3.896484 -45.527344C4.189453 -45.527344 4.414062 -45.429688 4.570312 -45.234375C4.882812 -44.882812 5.732422 -42.441406 7.119141 -37.910156C8.505859 -33.378906 9.355469 -30.781250 9.667969 -30.117188C10.019531 -29.375000 10.498047 -28.720703 11.103516 -28.154297C11.708984 -27.587891 12.441406 -27.167969 13.300781 -26.894531C14.160156 -26.621094 15.058594 -26.796875 15.996094 -27.421875C16.855469 -28.007812 17.910156 -28.857422 19.160156 -29.970703C20.410156 -31.083984 21.796875 -32.480469 23.320312 -34.160156C24.843750 -35.839844 26.210938 -37.802734 27.421875 -40.048828C28.632812 -42.294922 29.433594 -44.511719 29.824219 -46.699219C30.371094 -49.785156 29.570312 -51.757812 27.421875 -52.617188C25.546875 -53.398438 23.496094 -53.125000 21.269531 -51.796875C18.964844 -50.429688 17.617188 -48.476562 17.226562 -45.937500ZM17.226562 -45.937500"></path></svg>