<svg width="30.000000" height="29.824219" viewBox="0.000000 -57.949219 30.000000 29.824219" xmlns="http://www.w3.org/2000/svg"><path d="M22.089844 -49.101562C22.988281 -48.437500 23.984375 -48.105469 25.078125 -48.105469C26.445312 -48.105469 27.607422 -48.583984 28.564453 -49.541016C29.521484 -50.498047 30.000000 -51.660156 30.000000 -53.027344C30.000000 -54.394531 29.521484 -55.556641 28.564453 -56.513672C27.607422 -57.470703 26.445312 -57.949219 25.078125 -57.949219C23.710938 -57.949219 22.548828 -57.470703 21.591797 -56.513672C20.634766 -55.556641 20.156250 -54.394531 20.156250 -53.027344L7.968750 -47.167969C7.070312 -47.871094 6.054688 -48.222656 4.921875 -48.222656C3.554688 -48.222656 2.392578 -47.744141 1.435547 -46.787109C0.478516 -45.830078 0.000000 -44.667969 0.000000 -43.300781C0.000000 -41.933594 0.478516 -40.771484 1.435547 -39.814453C2.392578 -38.857422 3.554688 -38.378906 4.921875 -38.378906C5.898438 -38.378906 6.796875 -38.632812 7.617188 -39.140625L20.156250 -33.105469C20.156250 -31.738281 20.634766 -30.566406 21.591797 -29.589844C22.548828 -28.613281 23.710938 -28.125000 25.078125 -28.125000C26.445312 -28.125000 27.607422 -28.613281 28.564453 -29.589844C29.521484 -30.566406 30.000000 -31.728516 30.000000 -33.076172C30.000000 -34.423828 29.521484 -35.585938 28.564453 -36.562500C27.607422 -37.539062 26.445312 -38.027344 25.078125 -38.027344C23.984375 -38.027344 22.988281 -37.695312 22.089844 -37.031250L9.843750 -42.949219C9.843750 -43.027344 9.843750 -43.105469 9.843750 -43.183594ZM22.089844 -49.101562"></path></svg>