<svg width="30.078125" height="21.621094" viewBox="-0.039062 -45.546875 30.078125 21.621094" xmlns="http://www.w3.org/2000/svg"><path d="M25.957031 -45.000000C17.832031 -45.546875 10.527344 -45.546875 4.042969 -45.000000C3.027344 -44.882812 2.167969 -44.316406 1.464844 -43.300781C0.761719 -42.285156 0.351562 -41.230469 0.234375 -40.136719C-0.039062 -36.542969 -0.039062 -32.949219 0.234375 -29.355469C0.351562 -28.261719 0.761719 -27.207031 1.464844 -26.191406C2.167969 -25.175781 3.027344 -24.589844 4.042969 -24.433594C11.933594 -23.925781 19.238281 -23.925781 25.957031 -24.433594C26.972656 -24.628906 27.832031 -25.234375 28.535156 -26.250000C29.238281 -27.265625 29.648438 -28.300781 29.765625 -29.355469C30.039062 -33.027344 30.039062 -36.718750 29.765625 -40.429688C29.648438 -41.562500 29.267578 -42.597656 28.623047 -43.535156C27.978516 -44.472656 27.089844 -44.960938 25.957031 -45.000000ZM11.250000 -29.414062L11.250000 -40.195312L20.625000 -34.804688ZM11.250000 -29.414062"></path></svg>