<svg width="30.000000" height="30.000000" viewBox="0.000000 -58.125000 30.000000 30.000000" xmlns="http://www.w3.org/2000/svg"><path d="M7.500000 -30.117188L7.500000 -43.417969L1.230469 -37.148438C2.558594 -34.140625 4.648438 -31.796875 7.500000 -30.117188ZM9.375000 -29.238281C11.171875 -28.496094 13.046875 -28.125000 15.000000 -28.125000C17.734375 -28.125000 20.253906 -28.808594 22.558594 -30.175781C24.863281 -31.542969 26.679688 -33.359375 28.007812 -35.625000L9.375000 -35.625000ZM12.480469 -51.562500L7.792969 -56.250000C5.410156 -54.960938 3.515625 -53.144531 2.109375 -50.800781C0.703125 -48.457031 0.000000 -45.898438 0.000000 -43.125000C0.000000 -41.914062 0.136719 -40.703125 0.410156 -39.492188ZM20.625000 -57.011719C18.828125 -57.753906 16.953125 -58.125000 15.000000 -58.125000C13.242188 -58.125000 11.562500 -57.832031 9.960938 -57.246094L20.625000 -46.582031ZM22.500000 -56.132812L22.500000 -37.500000L28.886719 -37.500000C29.628906 -39.296875 30.000000 -41.171875 30.000000 -43.125000C30.000000 -45.859375 29.316406 -48.378906 27.949219 -50.683594C26.582031 -52.988281 24.765625 -54.804688 22.500000 -56.132812ZM22.500000 -56.132812"></path></svg>