<svg width="30.000000" height="30.000000" viewBox="0.000000 -58.125000 30.000000 30.000000" xmlns="http://www.w3.org/2000/svg"><path d="M15.000000 -58.125000C10.859375 -58.125000 7.324219 -56.660156 4.394531 -53.730469C1.464844 -50.800781 0.000000 -47.265625 0.000000 -43.125000C0.000000 -38.984375 1.464844 -35.449219 4.394531 -32.519531C7.324219 -29.589844 10.859375 -28.125000 15.000000 -28.125000C19.140625 -28.125000 22.675781 -29.589844 25.605469 -32.519531C28.535156 -35.449219 30.000000 -38.984375 30.000000 -43.125000C30.000000 -47.265625 28.535156 -50.800781 25.605469 -53.730469C22.675781 -56.660156 19.140625 -58.125000 15.000000 -58.125000ZM8.085938 -33.808594C7.421875 -33.808594 6.845703 -34.042969 6.357422 -34.511719C5.869141 -34.980469 5.625000 -35.546875 5.625000 -36.210938C5.625000 -36.875000 5.869141 -37.451172 6.357422 -37.939453C6.845703 -38.427734 7.421875 -38.671875 8.085938 -38.671875C8.750000 -38.671875 9.326172 -38.427734 9.814453 -37.939453C10.302734 -37.451172 10.546875 -36.875000 10.546875 -36.210938C10.546875 -35.546875 10.302734 -34.980469 9.814453 -34.511719C9.326172 -34.042969 8.750000 -33.808594 8.085938 -33.808594ZM14.238281 -33.750000C14.238281 -36.132812 13.398438 -38.164062 11.718750 -39.843750C10.039062 -41.523438 8.007812 -42.363281 5.625000 -42.363281L5.625000 -45.878906C8.984375 -45.878906 11.845703 -44.697266 14.208984 -42.333984C16.572266 -39.970703 17.753906 -37.109375 17.753906 -33.750000ZM20.449219 -33.750000C20.449219 -37.851562 19.003906 -41.357422 16.113281 -44.267578C13.222656 -47.177734 9.746094 -48.632812 5.683594 -48.632812L5.683594 -52.148438C10.722656 -52.148438 15.039062 -50.351562 18.632812 -46.757812C22.226562 -43.164062 24.023438 -38.828125 24.023438 -33.750000ZM20.449219 -33.750000"></path></svg>