<svg width="30.000000" height="30.000000" viewBox="0.000000 -58.125000 30.000000 30.000000" xmlns="http://www.w3.org/2000/svg"><path d="M15.000000 -58.125000C10.859375 -58.125000 7.324219 -56.660156 4.394531 -53.730469C1.464844 -50.800781 0.000000 -47.265625 0.000000 -43.125000C0.000000 -38.984375 1.464844 -35.449219 4.394531 -32.519531C7.324219 -29.589844 10.859375 -28.125000 15.000000 -28.125000C19.140625 -28.125000 22.675781 -29.589844 25.605469 -32.519531C28.535156 -35.449219 30.000000 -38.984375 30.000000 -43.125000C30.000000 -47.265625 28.535156 -50.800781 25.605469 -53.730469C22.675781 -56.660156 19.140625 -58.125000 15.000000 -58.125000ZM9.492188 -39.375000C8.437500 -39.375000 7.539062 -39.746094 6.796875 -40.488281C6.054688 -41.230469 5.683594 -42.128906 5.683594 -43.183594C5.683594 -44.238281 6.054688 -45.136719 6.796875 -45.878906C7.539062 -46.621094 8.437500 -46.992188 9.492188 -46.992188C10.546875 -46.992188 11.445312 -46.621094 12.187500 -45.878906C12.929688 -45.136719 13.300781 -44.238281 13.300781 -43.183594C13.300781 -42.128906 12.929688 -41.230469 12.187500 -40.488281C11.445312 -39.746094 10.546875 -39.375000 9.492188 -39.375000ZM20.566406 -39.375000C19.511719 -39.375000 18.613281 -39.746094 17.871094 -40.488281C17.128906 -41.230469 16.757812 -42.128906 16.757812 -43.183594C16.757812 -44.238281 17.128906 -45.136719 17.871094 -45.878906C18.613281 -46.621094 19.511719 -46.992188 20.566406 -46.992188C21.621094 -46.992188 22.519531 -46.621094 23.261719 -45.878906C24.003906 -45.136719 24.375000 -44.238281 24.375000 -43.183594C24.375000 -42.128906 24.003906 -41.230469 23.261719 -40.488281C22.519531 -39.746094 21.621094 -39.375000 20.566406 -39.375000ZM20.566406 -39.375000"></path></svg>