<svg width="30.000000" height="30.000000" viewBox="0.000000 -58.125000 30.000000 30.000000" xmlns="http://www.w3.org/2000/svg"><path d="M24.375000 -58.125000L5.625000 -58.125000C4.062500 -58.125000 2.734375 -57.578125 1.640625 -56.484375C0.546875 -55.390625 0.000000 -54.062500 0.000000 -52.500000L0.000000 -33.750000C0.000000 -32.187500 0.546875 -30.859375 1.640625 -29.765625C2.734375 -28.671875 4.062500 -28.125000 5.625000 -28.125000L24.375000 -28.125000C25.937500 -28.125000 27.265625 -28.671875 28.359375 -29.765625C29.453125 -30.859375 30.000000 -32.187500 30.000000 -33.750000L30.000000 -52.500000C30.000000 -54.062500 29.453125 -55.390625 28.359375 -56.484375C27.265625 -57.578125 25.937500 -58.125000 24.375000 -58.125000ZM10.839844 -33.046875C9.121094 -33.046875 7.666016 -33.369141 6.474609 -34.013672C5.283203 -34.658203 4.687500 -35.507812 4.687500 -36.562500C4.687500 -37.656250 5.263672 -38.642578 6.416016 -39.521484C7.568359 -40.400391 8.945312 -40.839844 10.546875 -40.839844C10.703125 -40.839844 10.888672 -40.839844 11.103516 -40.839844C11.318359 -40.839844 11.484375 -40.839844 11.601562 -40.839844C11.054688 -41.386719 10.781250 -41.953125 10.781250 -42.539062C10.781250 -42.890625 10.878906 -43.261719 11.074219 -43.652344C10.917969 -43.613281 10.742188 -43.593750 10.546875 -43.593750C9.218750 -43.593750 8.125000 -44.013672 7.265625 -44.853516C6.406250 -45.693359 5.976562 -46.718750 5.976562 -47.929688C5.976562 -49.101562 6.503906 -50.126953 7.558594 -51.005859C8.613281 -51.884766 9.824219 -52.324219 11.191406 -52.324219L17.167969 -52.324219L15.820312 -51.386719L13.945312 -51.386719C14.531250 -51.152344 15.000000 -50.712891 15.351562 -50.068359C15.703125 -49.423828 15.878906 -48.710938 15.878906 -47.929688C15.878906 -46.718750 15.312500 -45.683594 14.179688 -44.824219C13.710938 -44.433594 13.398438 -44.130859 13.242188 -43.916016C13.085938 -43.701172 13.007812 -43.417969 13.007812 -43.066406C13.007812 -42.597656 13.535156 -41.992188 14.589844 -41.250000C15.371094 -40.664062 15.917969 -40.087891 16.230469 -39.521484C16.542969 -38.955078 16.699219 -38.222656 16.699219 -37.324219C16.699219 -36.191406 16.171875 -35.195312 15.117188 -34.335938C14.062500 -33.476562 12.636719 -33.046875 10.839844 -33.046875ZM26.250000 -44.941406L22.500000 -44.941406L22.500000 -41.250000L20.625000 -41.250000L20.625000 -44.941406L16.875000 -44.941406L16.875000 -46.875000L20.625000 -46.875000L20.625000 -50.625000L22.500000 -50.625000L22.500000 -46.875000L26.250000 -46.875000ZM13.710938 -47.812500C13.593750 -48.828125 13.212891 -49.687500 12.568359 -50.390625C11.923828 -51.093750 11.210938 -51.455078 10.429688 -51.474609C9.648438 -51.494141 9.033203 -51.162109 8.583984 -50.478516C8.134766 -49.794922 7.978516 -48.955078 8.115234 -47.958984C8.251953 -46.962891 8.642578 -46.093750 9.287109 -45.351562C9.931641 -44.609375 10.634766 -44.228516 11.396484 -44.208984C12.158203 -44.189453 12.763672 -44.531250 13.212891 -45.234375C13.662109 -45.937500 13.828125 -46.796875 13.710938 -47.812500ZM12.714844 -40.078125C12.207031 -40.234375 11.699219 -40.312500 11.191406 -40.312500C10.058594 -40.312500 9.052734 -40.000000 8.173828 -39.375000C7.294922 -38.750000 6.855469 -38.027344 6.855469 -37.207031C6.855469 -36.308594 7.226562 -35.546875 7.968750 -34.921875C8.710938 -34.296875 9.648438 -33.984375 10.781250 -33.984375C13.710938 -33.984375 15.175781 -35.019531 15.175781 -37.089844C15.175781 -37.285156 15.136719 -37.500000 15.058594 -37.734375C15.058594 -37.851562 15.029297 -37.968750 14.970703 -38.085938C14.912109 -38.203125 14.824219 -38.330078 14.707031 -38.466797C14.589844 -38.603516 14.492188 -38.710938 14.414062 -38.789062C14.335938 -38.867188 14.218750 -38.964844 14.062500 -39.082031C13.906250 -39.199219 13.779297 -39.296875 13.681641 -39.375000C13.583984 -39.453125 13.417969 -39.570312 13.183594 -39.726562C12.949219 -39.882812 12.792969 -40.000000 12.714844 -40.078125ZM12.714844 -40.078125"></path></svg>