<svg width="30.000000" height="30.000000" viewBox="0.000000 -58.125000 30.000000 30.000000" xmlns="http://www.w3.org/2000/svg"><path d="M14.472656 -46.230469C13.378906 -48.222656 12.187500 -50.078125 10.898438 -51.796875C9.570312 -51.171875 8.437500 -50.263672 7.500000 -49.072266C6.562500 -47.880859 5.937500 -46.542969 5.625000 -45.058594C8.437500 -45.019531 11.386719 -45.410156 14.472656 -46.230469ZM24.375000 -58.125000L5.625000 -58.125000C4.062500 -58.125000 2.734375 -57.578125 1.640625 -56.484375C0.546875 -55.390625 0.000000 -54.062500 0.000000 -52.500000L0.000000 -33.750000C0.000000 -32.187500 0.546875 -30.859375 1.640625 -29.765625C2.734375 -28.671875 4.062500 -28.125000 5.625000 -28.125000L24.375000 -28.125000C25.937500 -28.125000 27.265625 -28.671875 28.359375 -29.765625C29.453125 -30.859375 30.000000 -32.187500 30.000000 -33.750000L30.000000 -52.500000C30.000000 -54.062500 29.453125 -55.390625 28.359375 -56.484375C27.265625 -57.578125 25.937500 -58.125000 24.375000 -58.125000ZM15.000000 -31.875000C11.914062 -31.875000 9.267578 -32.978516 7.060547 -35.185547C4.853516 -37.392578 3.750000 -40.039062 3.750000 -43.125000C3.750000 -46.210938 4.853516 -48.857422 7.060547 -51.064453C9.267578 -53.271484 11.914062 -54.375000 15.000000 -54.375000C18.085938 -54.375000 20.732422 -53.271484 22.939453 -51.064453C25.146484 -48.857422 26.250000 -46.210938 26.250000 -43.125000C26.250000 -40.039062 25.146484 -37.392578 22.939453 -35.185547C20.732422 -32.978516 18.085938 -31.875000 15.000000 -31.875000ZM15.644531 -43.007812C15.839844 -43.085938 15.976562 -43.125000 16.054688 -43.125000C15.820312 -43.632812 15.566406 -44.179688 15.292969 -44.765625C12.011719 -43.789062 8.710938 -43.339844 5.390625 -43.417969C5.390625 -43.261719 5.390625 -43.164062 5.390625 -43.125000C5.390625 -40.664062 6.210938 -38.515625 7.851562 -36.679688C8.007812 -36.953125 8.232422 -37.285156 8.525391 -37.675781C8.818359 -38.066406 9.296875 -38.632812 9.960938 -39.375000C10.625000 -40.117188 11.455078 -40.820312 12.451172 -41.484375C13.447266 -42.148438 14.511719 -42.656250 15.644531 -43.007812ZM17.050781 -45.410156C17.285156 -44.941406 17.500000 -44.472656 17.695312 -44.003906C17.773438 -43.847656 17.851562 -43.691406 17.929688 -43.535156C20.117188 -43.808594 22.343750 -43.691406 24.609375 -43.183594C24.570312 -45.449219 23.847656 -47.441406 22.441406 -49.160156C21.308594 -47.636719 19.511719 -46.386719 17.050781 -45.410156ZM16.640625 -41.542969C15.625000 -41.191406 14.677734 -40.751953 13.798828 -40.224609C12.919922 -39.697266 12.216797 -39.199219 11.689453 -38.730469C11.162109 -38.261719 10.693359 -37.763672 10.283203 -37.236328C9.873047 -36.708984 9.599609 -36.337891 9.462891 -36.123047C9.326172 -35.908203 9.218750 -35.722656 9.140625 -35.566406C10.859375 -34.199219 12.812500 -33.515625 15.000000 -33.515625C16.289062 -33.515625 17.539062 -33.769531 18.750000 -34.277344C18.359375 -36.621094 17.675781 -39.042969 16.699219 -41.542969C16.699219 -41.542969 16.679688 -41.542969 16.640625 -41.542969ZM21.328125 -50.273438C19.531250 -51.875000 17.421875 -52.675781 15.000000 -52.675781C14.218750 -52.675781 13.476562 -52.597656 12.773438 -52.441406C14.062500 -50.683594 15.253906 -48.808594 16.347656 -46.816406C18.691406 -47.714844 20.351562 -48.867188 21.328125 -50.273438ZM18.515625 -42.011719C19.375000 -39.550781 19.980469 -37.265625 20.332031 -35.156250C22.636719 -36.718750 24.023438 -38.867188 24.492188 -41.601562C22.578125 -42.187500 20.585938 -42.324219 18.515625 -42.011719ZM18.515625 -42.011719"></path></svg>