<svg width="30.000000" height="30.000000" viewBox="0.000000 -58.125000 30.000000 30.000000" xmlns="http://www.w3.org/2000/svg"><path d="M24.375000 -58.125000L5.625000 -58.125000C4.062500 -58.125000 2.734375 -57.578125 1.640625 -56.484375C0.546875 -55.390625 0.000000 -54.062500 0.000000 -52.500000L0.000000 -33.750000C0.000000 -32.187500 0.546875 -30.859375 1.640625 -29.765625C2.734375 -28.671875 4.062500 -28.125000 5.625000 -28.125000L24.375000 -28.125000C25.937500 -28.125000 27.265625 -28.671875 28.359375 -29.765625C29.453125 -30.859375 30.000000 -32.187500 30.000000 -33.750000L30.000000 -52.500000C30.000000 -54.062500 29.453125 -55.390625 28.359375 -56.484375C27.265625 -57.578125 25.937500 -58.125000 24.375000 -58.125000ZM15.000000 -54.375000C16.445312 -54.375000 17.851562 -54.101562 19.218750 -53.554688L19.218750 -45.703125L11.191406 -53.730469C12.441406 -54.160156 13.710938 -54.375000 15.000000 -54.375000ZM3.750000 -43.125000C3.750000 -45.234375 4.277344 -47.158203 5.332031 -48.896484C6.386719 -50.634766 7.812500 -51.992188 9.609375 -52.968750L13.125000 -49.453125L4.101562 -40.429688C3.867188 -41.289062 3.750000 -42.187500 3.750000 -43.125000ZM9.375000 -33.398438C7.226562 -34.609375 5.664062 -36.367188 4.687500 -38.671875L9.375000 -43.359375ZM15.000000 -31.875000C13.515625 -31.875000 12.109375 -32.148438 10.781250 -32.695312L10.781250 -37.500000L24.726562 -37.500000C23.750000 -35.781250 22.392578 -34.414062 20.654297 -33.398438C18.916016 -32.382812 17.031250 -31.875000 15.000000 -31.875000ZM25.429688 -38.906250L20.625000 -38.906250L20.625000 -52.851562C22.343750 -51.875000 23.710938 -50.517578 24.726562 -48.779297C25.742188 -47.041016 26.250000 -45.156250 26.250000 -43.125000C26.250000 -41.640625 25.976562 -40.234375 25.429688 -38.906250ZM25.429688 -38.906250"></path></svg>