<svg width="30.000000" height="30.000000" viewBox="0.000000 -58.125000 30.000000 30.000000" xmlns="http://www.w3.org/2000/svg"><path d="M24.375000 -58.125000L5.625000 -58.125000C4.062500 -58.125000 2.734375 -57.578125 1.640625 -56.484375C0.546875 -55.390625 0.000000 -54.062500 0.000000 -52.500000L0.000000 -33.750000C0.000000 -32.187500 0.546875 -30.859375 1.640625 -29.765625C2.734375 -28.671875 4.062500 -28.125000 5.625000 -28.125000L24.375000 -28.125000C25.937500 -28.125000 27.265625 -28.671875 28.359375 -29.765625C29.453125 -30.859375 30.000000 -32.187500 30.000000 -33.750000L30.000000 -52.500000C30.000000 -54.062500 29.453125 -55.390625 28.359375 -56.484375C27.265625 -57.578125 25.937500 -58.125000 24.375000 -58.125000ZM24.375000 -39.785156C24.375000 -38.144531 23.779297 -36.728516 22.587891 -35.537109C21.396484 -34.345703 19.960938 -33.750000 18.281250 -33.750000L11.718750 -33.750000C10.039062 -33.750000 8.603516 -34.345703 7.412109 -35.537109C6.220703 -36.728516 5.625000 -38.144531 5.625000 -39.785156L5.625000 -46.464844C5.625000 -48.105469 6.220703 -49.521484 7.412109 -50.712891C8.603516 -51.904297 10.039062 -52.500000 11.718750 -52.500000L14.824219 -52.500000C16.503906 -52.500000 17.929688 -51.933594 19.101562 -50.800781C20.273438 -49.667969 20.859375 -48.281250 20.859375 -46.640625C20.859375 -46.328125 20.986328 -46.054688 21.240234 -45.820312C21.494141 -45.585938 21.777344 -45.468750 22.089844 -45.468750L23.144531 -45.468750C23.457031 -45.468750 23.740234 -45.322266 23.994141 -45.029297C24.248047 -44.736328 24.375000 -44.433594 24.375000 -44.121094ZM18.515625 -40.781250L11.484375 -40.781250C11.171875 -40.781250 10.898438 -40.664062 10.664062 -40.429688C10.429688 -40.195312 10.312500 -39.921875 10.312500 -39.609375C10.312500 -39.296875 10.429688 -39.023438 10.664062 -38.789062C10.898438 -38.554688 11.171875 -38.437500 11.484375 -38.437500L18.515625 -38.437500C18.828125 -38.437500 19.101562 -38.554688 19.335938 -38.789062C19.570312 -39.023438 19.687500 -39.296875 19.687500 -39.609375C19.687500 -39.921875 19.570312 -40.195312 19.335938 -40.429688C19.101562 -40.664062 18.828125 -40.781250 18.515625 -40.781250ZM11.484375 -45.468750L15.000000 -45.468750C15.312500 -45.468750 15.585938 -45.585938 15.820312 -45.820312C16.054688 -46.054688 16.171875 -46.328125 16.171875 -46.640625C16.171875 -46.953125 16.054688 -47.226562 15.820312 -47.460938C15.585938 -47.695312 15.312500 -47.812500 15.000000 -47.812500L11.484375 -47.812500C11.171875 -47.812500 10.898438 -47.695312 10.664062 -47.460938C10.429688 -47.226562 10.312500 -46.953125 10.312500 -46.640625C10.312500 -46.328125 10.429688 -46.054688 10.664062 -45.820312C10.898438 -45.585938 11.171875 -45.468750 11.484375 -45.468750ZM11.484375 -45.468750"></path></svg>