<svg width="30.000000" height="30.000000" viewBox="0.000000 -58.125000 30.000000 30.000000" xmlns="http://www.w3.org/2000/svg"><path d="M25.429688 -48.750000L16.933594 -48.750000L16.933594 -53.847656C16.972656 -55.058594 16.826172 -56.074219 16.494141 -56.894531C16.162109 -57.714844 15.644531 -58.125000 14.941406 -58.125000C14.238281 -58.125000 13.681641 -57.958984 13.271484 -57.626953C12.861328 -57.294922 12.636719 -56.953125 12.597656 -56.601562L12.597656 -56.132812C12.480469 -54.804688 12.167969 -53.583984 11.660156 -52.470703C11.152344 -51.357422 10.576172 -50.468750 9.931641 -49.804688C9.287109 -49.140625 8.623047 -48.574219 7.939453 -48.105469C7.255859 -47.636719 6.708984 -47.314453 6.298828 -47.138672C5.888672 -46.962891 5.664062 -46.875000 5.625000 -46.875000L5.625000 -31.875000L6.503906 -31.757812C7.792969 -31.757812 8.818359 -31.630859 9.580078 -31.376953C10.341797 -31.123047 10.937500 -30.820312 11.367188 -30.468750C11.796875 -30.117188 12.294922 -29.765625 12.861328 -29.414062C13.427734 -29.062500 14.384766 -28.759766 15.732422 -28.505859C17.080078 -28.251953 18.828125 -28.125000 20.976562 -28.125000C22.187500 -28.125000 23.281250 -28.281250 24.257812 -28.593750C25.234375 -28.906250 26.035156 -29.296875 26.660156 -29.765625C27.285156 -30.234375 27.812500 -30.859375 28.242188 -31.640625C28.671875 -32.421875 29.003906 -33.144531 29.238281 -33.808594C29.472656 -34.472656 29.648438 -35.312500 29.765625 -36.328125C29.882812 -37.343750 29.951172 -38.173828 29.970703 -38.818359C29.990234 -39.462891 30.000000 -40.273438 30.000000 -41.250000C30.000000 -43.710938 29.541016 -45.576172 28.623047 -46.845703C27.705078 -48.115234 26.640625 -48.750000 25.429688 -48.750000ZM1.875000 -30.000000C2.382812 -30.000000 2.822266 -30.185547 3.193359 -30.556641C3.564453 -30.927734 3.750000 -31.367188 3.750000 -31.875000L3.750000 -46.816406C3.750000 -47.324219 3.564453 -47.763672 3.193359 -48.134766C2.822266 -48.505859 2.382812 -48.691406 1.875000 -48.691406C1.367188 -48.691406 0.927734 -48.505859 0.556641 -48.134766C0.185547 -47.763672 0.000000 -47.324219 0.000000 -46.816406L0.000000 -31.875000C0.000000 -31.367188 0.185547 -30.927734 0.556641 -30.556641C0.927734 -30.185547 1.367188 -30.000000 1.875000 -30.000000ZM1.875000 -30.000000"></path></svg>