<svg width="28.125000" height="28.125000" viewBox="1.875000 -54.375000 28.125000 28.125000" xmlns="http://www.w3.org/2000/svg"><path d="M15.937500 -54.375000C12.070312 -54.375000 8.759766 -52.998047 6.005859 -50.244141C3.251953 -47.490234 1.875000 -44.179688 1.875000 -40.312500C1.875000 -36.445312 3.251953 -33.134766 6.005859 -30.380859C8.759766 -27.626953 12.070312 -26.250000 15.937500 -26.250000C19.804688 -26.250000 23.115234 -27.626953 25.869141 -30.380859C28.623047 -33.134766 30.000000 -36.445312 30.000000 -40.312500C30.000000 -44.179688 28.623047 -47.490234 25.869141 -50.244141C23.115234 -52.998047 19.804688 -54.375000 15.937500 -54.375000ZM26.191406 -46.875000L23.378906 -46.875000C22.832031 -48.593750 22.109375 -50.058594 21.210938 -51.269531C23.281250 -50.292969 24.941406 -48.828125 26.191406 -46.875000ZM16.875000 -46.875000L16.875000 -52.324219C17.773438 -52.089844 18.623047 -51.494141 19.423828 -50.537109C20.224609 -49.580078 20.898438 -48.359375 21.445312 -46.875000ZM21.972656 -45.000000C22.246094 -43.828125 22.421875 -42.578125 22.500000 -41.250000L16.875000 -41.250000L16.875000 -45.000000ZM15.000000 -52.324219L15.000000 -46.875000L10.429688 -46.875000C10.976562 -48.359375 11.650391 -49.580078 12.451172 -50.537109C13.251953 -51.494141 14.101562 -52.089844 15.000000 -52.324219ZM15.000000 -45.000000L15.000000 -41.250000L9.375000 -41.250000C9.453125 -42.578125 9.628906 -43.828125 9.902344 -45.000000ZM7.500000 -41.250000L3.808594 -41.250000C3.886719 -42.578125 4.179688 -43.828125 4.687500 -45.000000L7.968750 -45.000000C7.734375 -43.789062 7.578125 -42.539062 7.500000 -41.250000ZM7.500000 -39.375000C7.578125 -38.085938 7.734375 -36.835938 7.968750 -35.625000L4.687500 -35.625000C4.179688 -36.796875 3.886719 -38.046875 3.808594 -39.375000ZM9.375000 -39.375000L15.000000 -39.375000L15.000000 -35.625000L9.902344 -35.625000C9.628906 -36.796875 9.453125 -38.046875 9.375000 -39.375000ZM15.000000 -33.750000L15.000000 -28.300781C14.101562 -28.535156 13.251953 -29.130859 12.451172 -30.087891C11.650391 -31.044922 10.976562 -32.265625 10.429688 -33.750000ZM16.875000 -28.300781L16.875000 -33.750000L21.445312 -33.750000C20.898438 -32.265625 20.224609 -31.044922 19.423828 -30.087891C18.623047 -29.130859 17.773438 -28.535156 16.875000 -28.300781ZM16.875000 -35.625000L16.875000 -39.375000L22.500000 -39.375000C22.421875 -38.046875 22.246094 -36.796875 21.972656 -35.625000ZM24.375000 -39.375000L28.066406 -39.375000C27.988281 -38.046875 27.695312 -36.796875 27.187500 -35.625000L23.906250 -35.625000C24.140625 -36.835938 24.296875 -38.085938 24.375000 -39.375000ZM24.375000 -41.250000C24.296875 -42.539062 24.140625 -43.789062 23.906250 -45.000000L27.187500 -45.000000C27.695312 -43.828125 27.988281 -42.578125 28.066406 -41.250000ZM10.664062 -51.269531C9.765625 -50.058594 9.042969 -48.593750 8.496094 -46.875000L5.683594 -46.875000C6.933594 -48.828125 8.593750 -50.292969 10.664062 -51.269531ZM5.683594 -33.750000L8.496094 -33.750000C9.042969 -32.031250 9.765625 -30.566406 10.664062 -29.355469C8.593750 -30.332031 6.933594 -31.796875 5.683594 -33.750000ZM21.210938 -29.355469C22.109375 -30.566406 22.832031 -32.031250 23.378906 -33.750000L26.191406 -33.750000C24.941406 -31.796875 23.281250 -30.332031 21.210938 -29.355469ZM21.210938 -29.355469"></path></svg>