<svg width="30.000000" height="30.000000" viewBox="0.000000 -58.125000 30.000000 30.000000" xmlns="http://www.w3.org/2000/svg"><path d="M3.750000 -28.125000L26.250000 -28.125000C27.304688 -28.125000 28.193359 -28.486328 28.916016 -29.208984C29.638672 -29.931641 30.000000 -30.820312 30.000000 -31.875000L30.000000 -33.750000C30.000000 -33.789062 30.000000 -33.837891 30.000000 -33.896484C30.000000 -33.955078 30.000000 -33.994141 30.000000 -34.013672C30.000000 -34.033203 30.000000 -34.082031 30.000000 -34.160156C30.000000 -34.238281 30.000000 -34.277344 30.000000 -34.277344L28.125000 -54.375000C28.046875 -55.351562 27.656250 -56.220703 26.953125 -56.982422C26.250000 -57.744141 25.390625 -58.125000 24.375000 -58.125000L5.625000 -58.125000C4.609375 -58.125000 3.750000 -57.744141 3.046875 -56.982422C2.343750 -56.220703 1.953125 -55.351562 1.875000 -54.375000L0.000000 -34.277344C0.000000 -34.277344 0.000000 -34.238281 0.000000 -34.160156C0.000000 -34.082031 0.000000 -34.033203 0.000000 -34.013672C0.000000 -33.994141 0.000000 -33.955078 0.000000 -33.896484C0.000000 -33.837891 0.000000 -33.789062 0.000000 -33.750000L0.000000 -31.875000C0.000000 -30.820312 0.361328 -29.931641 1.083984 -29.208984C1.806641 -28.486328 2.695312 -28.125000 3.750000 -28.125000ZM1.875000 -31.875000L1.875000 -33.750000C1.875000 -34.257812 2.060547 -34.697266 2.431641 -35.068359C2.802734 -35.439453 3.242188 -35.625000 3.750000 -35.625000L26.250000 -35.625000C26.757812 -35.625000 27.197266 -35.439453 27.568359 -35.068359C27.939453 -34.697266 28.125000 -34.257812 28.125000 -33.750000L28.125000 -31.875000C28.125000 -31.367188 27.939453 -30.927734 27.568359 -30.556641C27.197266 -30.185547 26.757812 -30.000000 26.250000 -30.000000L3.750000 -30.000000C3.242188 -30.000000 2.802734 -30.185547 2.431641 -30.556641C2.060547 -30.927734 1.875000 -31.367188 1.875000 -31.875000ZM24.375000 -32.812500C24.375000 -32.539062 24.462891 -32.314453 24.638672 -32.138672C24.814453 -31.962891 25.039062 -31.875000 25.312500 -31.875000C25.585938 -31.875000 25.810547 -31.962891 25.986328 -32.138672C26.162109 -32.314453 26.250000 -32.539062 26.250000 -32.812500C26.250000 -33.085938 26.162109 -33.310547 25.986328 -33.486328C25.810547 -33.662109 25.585938 -33.750000 25.312500 -33.750000C25.039062 -33.750000 24.814453 -33.662109 24.638672 -33.486328C24.462891 -33.310547 24.375000 -33.085938 24.375000 -32.812500ZM20.800781 -32.841797C20.800781 -32.587891 20.898438 -32.373047 21.093750 -32.197266C21.289062 -32.021484 21.513672 -31.933594 21.767578 -31.933594C22.021484 -31.933594 22.236328 -32.021484 22.412109 -32.197266C22.587891 -32.373047 22.675781 -32.587891 22.675781 -32.841797C22.675781 -33.095703 22.587891 -33.320312 22.412109 -33.515625C22.236328 -33.710938 22.021484 -33.808594 21.767578 -33.808594C21.513672 -33.808594 21.289062 -33.710938 21.093750 -33.515625C20.898438 -33.320312 20.800781 -33.095703 20.800781 -32.841797ZM4.687500 -31.875000L17.812500 -31.875000C18.085938 -31.875000 18.310547 -31.962891 18.486328 -32.138672C18.662109 -32.314453 18.750000 -32.539062 18.750000 -32.812500C18.750000 -33.085938 18.662109 -33.310547 18.486328 -33.486328C18.310547 -33.662109 18.085938 -33.750000 17.812500 -33.750000L4.687500 -33.750000C4.414062 -33.750000 4.189453 -33.662109 4.013672 -33.486328C3.837891 -33.310547 3.750000 -33.085938 3.750000 -32.812500C3.750000 -32.539062 3.837891 -32.314453 4.013672 -32.138672C4.189453 -31.962891 4.414062 -31.875000 4.687500 -31.875000ZM4.687500 -31.875000"></path></svg>