<svg width="30.000000" height="30.000000" viewBox="0.000000 -58.125000 30.000000 30.000000" xmlns="http://www.w3.org/2000/svg"><path d="M22.500000 -58.125000L18.750000 -58.125000L7.500000 -58.125000L1.875000 -58.125000C1.367188 -58.125000 0.927734 -57.939453 0.556641 -57.568359C0.185547 -57.197266 0.000000 -56.757812 0.000000 -56.250000L0.000000 -30.000000C0.000000 -29.492188 0.185547 -29.052734 0.556641 -28.681641C0.927734 -28.310547 1.367188 -28.125000 1.875000 -28.125000L28.125000 -28.125000C28.632812 -28.125000 29.072266 -28.310547 29.443359 -28.681641C29.814453 -29.052734 30.000000 -29.492188 30.000000 -30.000000L30.000000 -52.500000L24.375000 -58.125000ZM22.500000 -56.250000L22.500000 -48.750000L18.750000 -48.750000L18.750000 -56.250000ZM16.875000 -56.250000L16.875000 -48.750000L7.500000 -48.750000L7.500000 -56.250000ZM7.500000 -30.000000L7.500000 -41.250000L22.500000 -41.250000L22.500000 -30.000000ZM28.125000 -30.000000L24.375000 -30.000000L24.375000 -41.250000C24.375000 -41.757812 24.189453 -42.197266 23.818359 -42.568359C23.447266 -42.939453 23.007812 -43.125000 22.500000 -43.125000L7.500000 -43.125000C6.992188 -43.125000 6.552734 -42.939453 6.181641 -42.568359C5.810547 -42.197266 5.625000 -41.757812 5.625000 -41.250000L5.625000 -30.000000L1.875000 -30.000000L1.875000 -56.250000L5.625000 -56.250000L5.625000 -48.750000C5.625000 -48.242188 5.810547 -47.802734 6.181641 -47.431641C6.552734 -47.060547 6.992188 -46.875000 7.500000 -46.875000L18.750000 -46.875000L22.500000 -46.875000C23.007812 -46.875000 23.447266 -47.060547 23.818359 -47.431641C24.189453 -47.802734 24.375000 -48.242188 24.375000 -48.750000L24.375000 -55.488281L28.125000 -51.738281ZM28.125000 -30.000000"></path></svg>