<svg width="28.125000" height="30.195312" viewBox="1.875000 -58.320312 28.125000 30.195312" xmlns="http://www.w3.org/2000/svg"><path d="M28.125000 -58.320312L3.750000 -58.320312C3.242188 -58.320312 2.802734 -58.134766 2.431641 -57.763672C2.060547 -57.392578 1.875000 -56.953125 1.875000 -56.445312C1.875000 -55.937500 2.060547 -55.498047 2.431641 -55.126953C2.802734 -54.755859 3.242188 -54.570312 3.750000 -54.570312L3.750000 -39.570312C3.750000 -39.062500 3.935547 -38.623047 4.306641 -38.251953C4.677734 -37.880859 5.117188 -37.695312 5.625000 -37.695312L15.000000 -37.695312L15.000000 -34.765625L9.667969 -29.960938C9.199219 -29.531250 9.179688 -29.082031 9.609375 -28.613281C10.039062 -28.144531 10.488281 -28.125000 10.957031 -28.554688L15.000000 -32.246094L15.000000 -29.257812C15.000000 -28.984375 15.087891 -28.759766 15.263672 -28.583984C15.439453 -28.408203 15.664062 -28.320312 15.937500 -28.320312C16.210938 -28.320312 16.435547 -28.408203 16.611328 -28.583984C16.787109 -28.759766 16.875000 -28.984375 16.875000 -29.257812L16.875000 -32.246094L20.917969 -28.554688C21.113281 -28.398438 21.328125 -28.320312 21.562500 -28.320312C21.835938 -28.320312 22.070312 -28.417969 22.265625 -28.613281C22.695312 -29.082031 22.675781 -29.531250 22.207031 -29.960938L16.875000 -34.765625L16.875000 -37.695312L26.250000 -37.695312C26.757812 -37.695312 27.197266 -37.880859 27.568359 -38.251953C27.939453 -38.623047 28.125000 -39.062500 28.125000 -39.570312L28.125000 -54.570312C28.632812 -54.570312 29.072266 -54.755859 29.443359 -55.126953C29.814453 -55.498047 30.000000 -55.937500 30.000000 -56.445312C30.000000 -56.953125 29.814453 -57.392578 29.443359 -57.763672C29.072266 -58.134766 28.632812 -58.320312 28.125000 -58.320312ZM24.082031 -51.054688L17.519531 -44.726562C17.089844 -44.335938 16.660156 -44.335938 16.230469 -44.726562L13.359375 -47.480469L9.140625 -43.144531C8.945312 -42.949219 8.710938 -42.851562 8.437500 -42.851562C8.203125 -42.851562 7.988281 -42.929688 7.792969 -43.085938C7.363281 -43.515625 7.363281 -43.964844 7.792969 -44.433594L12.597656 -49.472656C13.066406 -49.902344 13.515625 -49.921875 13.945312 -49.531250L16.875000 -46.718750L22.792969 -52.460938C23.261719 -52.890625 23.710938 -52.880859 24.140625 -52.431641C24.570312 -51.982422 24.550781 -51.523438 24.082031 -51.054688ZM24.082031 -51.054688"></path></svg>