<svg width="30.000000" height="30.000000" viewBox="0.000000 -58.125000 30.000000 30.000000" xmlns="http://www.w3.org/2000/svg"><path d="M4.570312 -37.500000L13.066406 -37.500000L13.066406 -32.402344C13.027344 -31.191406 13.173828 -30.175781 13.505859 -29.355469C13.837891 -28.535156 14.355469 -28.125000 15.058594 -28.125000C15.488281 -28.125000 15.869141 -28.193359 16.201172 -28.330078C16.533203 -28.466797 16.777344 -28.623047 16.933594 -28.798828C17.089844 -28.974609 17.207031 -29.179688 17.285156 -29.414062C17.363281 -29.648438 17.402344 -29.804688 17.402344 -29.882812C17.402344 -29.960938 17.402344 -30.039062 17.402344 -30.117188C17.675781 -33.906250 19.531250 -36.777344 22.968750 -38.730469C23.906250 -39.160156 24.375000 -39.375000 24.375000 -39.375000L24.375000 -54.375000L23.496094 -54.492188C22.207031 -54.492188 21.181641 -54.619141 20.419922 -54.873047C19.658203 -55.126953 19.062500 -55.429688 18.632812 -55.781250C18.203125 -56.132812 17.705078 -56.484375 17.138672 -56.835938C16.572266 -57.187500 15.615234 -57.490234 14.267578 -57.744141C12.919922 -57.998047 11.171875 -58.125000 9.023438 -58.125000C7.812500 -58.125000 6.718750 -57.968750 5.742188 -57.656250C4.765625 -57.343750 3.964844 -56.953125 3.339844 -56.484375C2.714844 -56.015625 2.187500 -55.390625 1.757812 -54.609375C1.328125 -53.828125 0.996094 -53.105469 0.761719 -52.441406C0.527344 -51.777344 0.351562 -50.937500 0.234375 -49.921875C0.117188 -48.906250 0.048828 -48.076172 0.029297 -47.431641C0.009766 -46.787109 0.000000 -45.976562 0.000000 -45.000000C0.000000 -42.539062 0.458984 -40.673828 1.376953 -39.404297C2.294922 -38.134766 3.359375 -37.500000 4.570312 -37.500000ZM28.125000 -56.250000C27.617188 -56.250000 27.177734 -56.064453 26.806641 -55.693359C26.435547 -55.322266 26.250000 -54.882812 26.250000 -54.375000L26.250000 -39.433594C26.250000 -38.925781 26.435547 -38.486328 26.806641 -38.115234C27.177734 -37.744141 27.617188 -37.558594 28.125000 -37.558594C28.632812 -37.558594 29.072266 -37.744141 29.443359 -38.115234C29.814453 -38.486328 30.000000 -38.925781 30.000000 -39.433594L30.000000 -54.375000C30.000000 -54.882812 29.814453 -55.322266 29.443359 -55.693359C29.072266 -56.064453 28.632812 -56.250000 28.125000 -56.250000ZM28.125000 -56.250000"></path></svg>