<svg width="30.000000" height="30.000000" viewBox="0.000000 -58.125000 30.000000 30.000000" xmlns="http://www.w3.org/2000/svg"><path d="M15.000000 -58.125000C10.859375 -58.125000 7.324219 -56.660156 4.394531 -53.730469C1.464844 -50.800781 0.000000 -47.265625 0.000000 -43.125000C0.000000 -38.984375 1.464844 -35.449219 4.394531 -32.519531C7.324219 -29.589844 10.859375 -28.125000 15.000000 -28.125000C19.140625 -28.125000 22.675781 -29.589844 25.605469 -32.519531C28.535156 -35.449219 30.000000 -38.984375 30.000000 -43.125000C30.000000 -47.265625 28.535156 -50.800781 25.605469 -53.730469C22.675781 -56.660156 19.140625 -58.125000 15.000000 -58.125000ZM15.000000 -30.000000C11.367188 -30.000000 8.271484 -31.279297 5.712891 -33.837891C3.154297 -36.396484 1.875000 -39.492188 1.875000 -43.125000C1.875000 -46.757812 3.154297 -49.853516 5.712891 -52.412109C8.271484 -54.970703 11.367188 -56.250000 15.000000 -56.250000C18.632812 -56.250000 21.728516 -54.970703 24.287109 -52.412109C26.845703 -49.853516 28.125000 -46.757812 28.125000 -43.125000C28.125000 -39.492188 26.845703 -36.396484 24.287109 -33.837891C21.728516 -31.279297 18.632812 -30.000000 15.000000 -30.000000ZM13.242188 -47.871094C13.242188 -48.652344 12.958984 -49.326172 12.392578 -49.892578C11.826172 -50.458984 11.152344 -50.742188 10.371094 -50.742188C9.589844 -50.742188 8.916016 -50.458984 8.349609 -49.892578C7.783203 -49.326172 7.500000 -48.652344 7.500000 -47.871094C7.500000 -47.089844 7.783203 -46.416016 8.349609 -45.849609C8.916016 -45.283203 9.589844 -45.000000 10.371094 -45.000000C11.152344 -45.000000 11.826172 -45.283203 12.392578 -45.849609C12.958984 -46.416016 13.242188 -47.089844 13.242188 -47.871094ZM9.375000 -47.871094C9.375000 -48.144531 9.472656 -48.378906 9.667969 -48.574219C9.863281 -48.769531 10.097656 -48.867188 10.371094 -48.867188C10.644531 -48.867188 10.878906 -48.769531 11.074219 -48.574219C11.269531 -48.378906 11.367188 -48.144531 11.367188 -47.871094C11.367188 -47.597656 11.269531 -47.363281 11.074219 -47.167969C10.878906 -46.972656 10.644531 -46.875000 10.371094 -46.875000C10.097656 -46.875000 9.863281 -46.972656 9.667969 -47.167969C9.472656 -47.363281 9.375000 -47.597656 9.375000 -47.871094ZM19.628906 -41.367188C18.847656 -41.367188 18.173828 -41.083984 17.607422 -40.517578C17.041016 -39.951172 16.757812 -39.277344 16.757812 -38.496094C16.757812 -37.714844 17.041016 -37.041016 17.607422 -36.474609C18.173828 -35.908203 18.847656 -35.625000 19.628906 -35.625000C20.410156 -35.625000 21.083984 -35.908203 21.650391 -36.474609C22.216797 -37.041016 22.500000 -37.714844 22.500000 -38.496094C22.500000 -39.277344 22.216797 -39.951172 21.650391 -40.517578C21.083984 -41.083984 20.410156 -41.367188 19.628906 -41.367188ZM19.628906 -37.500000C19.355469 -37.500000 19.121094 -37.597656 18.925781 -37.792969C18.730469 -37.988281 18.632812 -38.222656 18.632812 -38.496094C18.632812 -38.769531 18.730469 -39.003906 18.925781 -39.199219C19.121094 -39.394531 19.355469 -39.492188 19.628906 -39.492188C19.902344 -39.492188 20.136719 -39.394531 20.332031 -39.199219C20.527344 -39.003906 20.625000 -38.769531 20.625000 -38.496094C20.625000 -38.222656 20.527344 -37.988281 20.332031 -37.792969C20.136719 -37.597656 19.902344 -37.500000 19.628906 -37.500000ZM21.298828 -49.423828C20.849609 -49.873047 20.410156 -49.863281 19.980469 -49.394531L8.730469 -38.144531C8.261719 -37.714844 8.261719 -37.285156 8.730469 -36.855469C8.886719 -36.660156 9.101562 -36.562500 9.375000 -36.562500C9.648438 -36.562500 9.863281 -36.660156 10.019531 -36.855469L21.269531 -48.105469C21.738281 -48.535156 21.748047 -48.974609 21.298828 -49.423828ZM21.298828 -49.423828"></path></svg>