<svg width="28.125000" height="30.000000" viewBox="0.000000 -58.125000 28.125000 30.000000" xmlns="http://www.w3.org/2000/svg"><path d="M1.875000 -28.125000L26.250000 -28.125000C26.757812 -28.125000 27.197266 -28.310547 27.568359 -28.681641C27.939453 -29.052734 28.125000 -29.492188 28.125000 -30.000000L28.125000 -41.250000C28.125000 -41.757812 27.939453 -42.197266 27.568359 -42.568359C27.197266 -42.939453 26.757812 -43.125000 26.250000 -43.125000L20.625000 -43.125000C20.117188 -43.125000 19.677734 -42.939453 19.306641 -42.568359C18.935547 -42.197266 18.750000 -41.757812 18.750000 -41.250000L18.750000 -56.250000C18.750000 -56.757812 18.564453 -57.197266 18.193359 -57.568359C17.822266 -57.939453 17.382812 -58.125000 16.875000 -58.125000L11.250000 -58.125000C10.742188 -58.125000 10.302734 -57.939453 9.931641 -57.568359C9.560547 -57.197266 9.375000 -56.757812 9.375000 -56.250000L9.375000 -48.750000C9.375000 -49.257812 9.189453 -49.697266 8.818359 -50.068359C8.447266 -50.439453 8.007812 -50.625000 7.500000 -50.625000L1.875000 -50.625000C1.367188 -50.625000 0.927734 -50.439453 0.556641 -50.068359C0.185547 -49.697266 0.000000 -49.257812 0.000000 -48.750000L0.000000 -30.000000C0.000000 -29.492188 0.185547 -29.052734 0.556641 -28.681641C0.927734 -28.310547 1.367188 -28.125000 1.875000 -28.125000ZM1.875000 -30.000000L1.875000 -33.750000L3.750000 -33.750000L3.750000 -30.000000ZM3.750000 -41.250000L3.750000 -39.375000L1.875000 -39.375000L1.875000 -41.250000ZM1.875000 -43.125000L1.875000 -45.000000L3.750000 -45.000000L3.750000 -43.125000ZM3.750000 -37.500000L3.750000 -35.625000L1.875000 -35.625000L1.875000 -37.500000ZM5.625000 -39.375000L5.625000 -41.250000L7.500000 -41.250000L7.500000 -39.375000ZM7.500000 -37.500000L7.500000 -35.625000L5.625000 -35.625000L5.625000 -37.500000ZM5.625000 -43.125000L5.625000 -45.000000L7.500000 -45.000000L7.500000 -43.125000ZM5.625000 -30.000000L5.625000 -33.750000L7.500000 -33.750000L7.500000 -30.000000ZM7.500000 -46.875000L5.625000 -46.875000L5.625000 -48.750000L7.500000 -48.750000ZM3.750000 -46.875000L1.875000 -46.875000L1.875000 -48.750000L3.750000 -48.750000ZM15.000000 -30.000000L15.000000 -33.750000L16.875000 -33.750000L16.875000 -30.000000ZM13.125000 -48.750000L13.125000 -46.875000L11.250000 -46.875000L11.250000 -48.750000ZM11.250000 -50.625000L11.250000 -52.500000L13.125000 -52.500000L13.125000 -50.625000ZM13.125000 -45.000000L13.125000 -43.125000L11.250000 -43.125000L11.250000 -45.000000ZM13.125000 -41.250000L13.125000 -39.375000L11.250000 -39.375000L11.250000 -41.250000ZM13.125000 -37.500000L13.125000 -35.625000L11.250000 -35.625000L11.250000 -37.500000ZM15.000000 -39.375000L15.000000 -41.250000L16.875000 -41.250000L16.875000 -39.375000ZM16.875000 -37.500000L16.875000 -35.625000L15.000000 -35.625000L15.000000 -37.500000ZM15.000000 -43.125000L15.000000 -45.000000L16.875000 -45.000000L16.875000 -43.125000ZM15.000000 -46.875000L15.000000 -48.750000L16.875000 -48.750000L16.875000 -46.875000ZM15.000000 -50.625000L15.000000 -52.500000L16.875000 -52.500000L16.875000 -50.625000ZM16.875000 -54.375000L15.000000 -54.375000L15.000000 -56.250000L16.875000 -56.250000ZM13.125000 -54.375000L11.250000 -54.375000L11.250000 -56.250000L13.125000 -56.250000ZM11.250000 -33.750000L13.125000 -33.750000L13.125000 -30.000000L11.250000 -30.000000ZM22.500000 -35.625000L20.625000 -35.625000L20.625000 -37.500000L22.500000 -37.500000ZM24.375000 -37.500000L26.250000 -37.500000L26.250000 -35.625000L24.375000 -35.625000ZM24.375000 -33.750000L26.250000 -33.750000L26.250000 -30.000000L24.375000 -30.000000ZM26.250000 -39.375000L24.375000 -39.375000L24.375000 -41.250000L26.250000 -41.250000ZM22.500000 -39.375000L20.625000 -39.375000L20.625000 -41.250000L22.500000 -41.250000ZM20.625000 -33.750000L22.500000 -33.750000L22.500000 -30.000000L20.625000 -30.000000ZM20.625000 -33.750000"></path></svg>