<svg width="28.125000" height="22.500000" viewBox="1.875000 -46.875000 28.125000 22.500000" xmlns="http://www.w3.org/2000/svg"><path d="M29.707031 -37.207031L25.195312 -45.468750C25.156250 -45.468750 25.136719 -45.488281 25.136719 -45.527344C24.863281 -45.917969 24.511719 -46.035156 24.082031 -45.878906L16.875000 -43.476562L16.875000 -45.937500C16.875000 -46.210938 16.787109 -46.435547 16.611328 -46.611328C16.435547 -46.787109 16.210938 -46.875000 15.937500 -46.875000C15.664062 -46.875000 15.439453 -46.787109 15.263672 -46.611328C15.087891 -46.435547 15.000000 -46.210938 15.000000 -45.937500L15.000000 -42.890625L7.148438 -40.253906C7.148438 -40.253906 7.109375 -40.234375 7.031250 -40.195312L6.972656 -40.195312C6.855469 -40.078125 6.757812 -39.960938 6.679688 -39.843750L1.992188 -31.640625C1.914062 -31.484375 1.875000 -31.289062 1.875000 -31.054688C1.875000 -31.054688 1.875000 -31.035156 1.875000 -30.996094C1.875000 -30.957031 1.875000 -30.937500 1.875000 -30.937500C1.875000 -29.921875 2.480469 -28.886719 3.691406 -27.832031C4.902344 -26.777344 6.171875 -26.250000 7.500000 -26.250000C8.828125 -26.250000 10.097656 -26.777344 11.308594 -27.832031C12.519531 -28.886719 13.125000 -29.921875 13.125000 -30.937500C13.125000 -31.054688 13.105469 -31.171875 13.066406 -31.289062C13.027344 -31.406250 12.988281 -31.523438 12.949219 -31.640625L8.847656 -38.847656L15.000000 -40.898438L15.000000 -25.312500C15.000000 -25.039062 15.087891 -24.814453 15.263672 -24.638672C15.439453 -24.462891 15.664062 -24.375000 15.937500 -24.375000C16.210938 -24.375000 16.435547 -24.462891 16.611328 -24.638672C16.787109 -24.814453 16.875000 -25.039062 16.875000 -25.312500L16.875000 -41.542969L22.382812 -43.359375L19.042969 -37.207031C18.847656 -37.050781 18.750000 -36.835938 18.750000 -36.562500C18.750000 -35.546875 19.355469 -34.511719 20.566406 -33.457031C21.777344 -32.402344 23.046875 -31.875000 24.375000 -31.875000C25.703125 -31.875000 26.972656 -32.402344 28.183594 -33.457031C29.394531 -34.511719 30.000000 -35.546875 30.000000 -36.562500C30.000000 -36.835938 29.902344 -37.050781 29.707031 -37.207031ZM4.277344 -31.875000L7.441406 -37.500000L10.664062 -31.875000ZM21.328125 -37.500000L24.375000 -43.066406L27.421875 -37.500000ZM21.328125 -37.500000"></path></svg>