<svg width="29.121094" height="29.062500" viewBox="0.000000 -57.187500 29.121094 29.062500" xmlns="http://www.w3.org/2000/svg"><path d="M1.875000 -29.062500L18.750000 -29.062500C19.257812 -29.062500 19.697266 -29.248047 20.068359 -29.619141C20.439453 -29.990234 20.625000 -30.429688 20.625000 -30.937500L20.625000 -33.457031C21.015625 -33.652344 21.386719 -33.886719 21.738281 -34.160156L27.480469 -28.417969C27.675781 -28.222656 27.900391 -28.125000 28.154297 -28.125000C28.408203 -28.125000 28.632812 -28.212891 28.828125 -28.388672C29.023438 -28.564453 29.121094 -28.789062 29.121094 -29.062500C29.121094 -29.335938 29.023438 -29.550781 28.828125 -29.707031L23.085938 -35.507812C23.945312 -36.679688 24.375000 -37.968750 24.375000 -39.375000C24.375000 -40.664062 24.033203 -41.835938 23.349609 -42.890625C22.666016 -43.945312 21.757812 -44.746094 20.625000 -45.292969L20.625000 -55.312500C20.625000 -55.820312 20.439453 -56.259766 20.068359 -56.630859C19.697266 -57.001953 19.257812 -57.187500 18.750000 -57.187500L1.875000 -57.187500C1.367188 -57.187500 0.927734 -57.001953 0.556641 -56.630859C0.185547 -56.259766 0.000000 -55.820312 0.000000 -55.312500L0.000000 -30.937500C0.000000 -30.429688 0.185547 -29.990234 0.556641 -29.619141C0.927734 -29.248047 1.367188 -29.062500 1.875000 -29.062500ZM17.812500 -34.687500C16.523438 -34.687500 15.419922 -35.146484 14.501953 -36.064453C13.583984 -36.982422 13.125000 -38.085938 13.125000 -39.375000C13.125000 -40.664062 13.583984 -41.767578 14.501953 -42.685547C15.419922 -43.603516 16.523438 -44.062500 17.812500 -44.062500C19.101562 -44.062500 20.205078 -43.603516 21.123047 -42.685547C22.041016 -41.767578 22.500000 -40.664062 22.500000 -39.375000C22.500000 -38.085938 22.041016 -36.982422 21.123047 -36.064453C20.205078 -35.146484 19.101562 -34.687500 17.812500 -34.687500ZM1.875000 -55.312500L18.750000 -55.312500L18.750000 -45.937500L4.980469 -45.937500C4.628906 -45.937500 4.335938 -45.849609 4.101562 -45.673828C3.867188 -45.498047 3.750000 -45.273438 3.750000 -45.000000C3.750000 -44.726562 3.867188 -44.501953 4.101562 -44.326172C4.335938 -44.150391 4.628906 -44.062500 4.980469 -44.062500L13.242188 -44.062500C12.187500 -43.046875 11.562500 -41.796875 11.367188 -40.312500L4.687500 -40.312500C4.414062 -40.312500 4.189453 -40.224609 4.013672 -40.048828C3.837891 -39.873047 3.750000 -39.648438 3.750000 -39.375000C3.750000 -39.101562 3.837891 -38.876953 4.013672 -38.701172C4.189453 -38.525391 4.414062 -38.437500 4.687500 -38.437500L11.367188 -38.437500C11.601562 -36.835938 12.324219 -35.498047 13.535156 -34.423828C14.746094 -33.349609 16.171875 -32.812500 17.812500 -32.812500C18.007812 -32.812500 18.320312 -32.851562 18.750000 -32.929688L18.750000 -30.937500L1.875000 -30.937500ZM4.687500 -49.687500L15.937500 -49.687500C16.210938 -49.687500 16.435547 -49.775391 16.611328 -49.951172C16.787109 -50.126953 16.875000 -50.351562 16.875000 -50.625000C16.875000 -50.898438 16.787109 -51.123047 16.611328 -51.298828C16.435547 -51.474609 16.210938 -51.562500 15.937500 -51.562500L4.687500 -51.562500C4.414062 -51.562500 4.189453 -51.474609 4.013672 -51.298828C3.837891 -51.123047 3.750000 -50.898438 3.750000 -50.625000C3.750000 -50.351562 3.837891 -50.126953 4.013672 -49.951172C4.189453 -49.775391 4.414062 -49.687500 4.687500 -49.687500ZM4.687500 -49.687500"></path></svg>