<svg width="22.675781" height="22.500000" viewBox="3.574219 -46.875000 22.675781 22.500000" xmlns="http://www.w3.org/2000/svg"><path d="M25.312500 -35.625000C25.039062 -35.625000 24.814453 -35.537109 24.638672 -35.361328C24.462891 -35.185547 24.375000 -34.960938 24.375000 -34.687500L24.375000 -27.597656L5.332031 -46.582031C5.175781 -46.777344 4.960938 -46.875000 4.687500 -46.875000C4.414062 -46.875000 4.199219 -46.777344 4.042969 -46.582031C3.574219 -46.152344 3.574219 -45.722656 4.042969 -45.292969L23.027344 -26.250000L15.937500 -26.250000C15.664062 -26.250000 15.439453 -26.162109 15.263672 -25.986328C15.087891 -25.810547 15.000000 -25.585938 15.000000 -25.312500C15.000000 -25.039062 15.087891 -24.814453 15.263672 -24.638672C15.439453 -24.462891 15.664062 -24.375000 15.937500 -24.375000L25.312500 -24.375000C25.429688 -24.375000 25.546875 -24.394531 25.664062 -24.433594C25.898438 -24.550781 26.074219 -24.726562 26.191406 -24.960938C26.230469 -25.078125 26.250000 -25.195312 26.250000 -25.312500L26.250000 -34.687500C26.250000 -34.960938 26.162109 -35.185547 25.986328 -35.361328C25.810547 -35.537109 25.585938 -35.625000 25.312500 -35.625000ZM25.312500 -35.625000"></path></svg>