<svg width="9.746094" height="30.039062" viewBox="11.064453 -58.183594 9.746094 30.039062" xmlns="http://www.w3.org/2000/svg"><path d="M19.042969 -52.832031C19.472656 -52.363281 19.912109 -52.353516 20.361328 -52.802734C20.810547 -53.251953 20.800781 -53.691406 20.332031 -54.121094L16.582031 -57.871094C16.503906 -57.988281 16.406250 -58.066406 16.289062 -58.105469C16.054688 -58.183594 15.820312 -58.183594 15.585938 -58.105469C15.468750 -58.066406 15.371094 -57.988281 15.292969 -57.871094L11.542969 -54.121094C11.074219 -53.691406 11.064453 -53.251953 11.513672 -52.802734C11.962891 -52.353516 12.402344 -52.363281 12.832031 -52.832031L15.000000 -54.941406L15.000000 -31.386719L12.832031 -33.496094C12.402344 -33.964844 11.962891 -33.974609 11.513672 -33.525391C11.064453 -33.076172 11.074219 -32.636719 11.542969 -32.207031L15.292969 -28.457031C15.371094 -28.339844 15.468750 -28.261719 15.585938 -28.222656C15.820312 -28.144531 16.054688 -28.144531 16.289062 -28.222656C16.406250 -28.261719 16.503906 -28.339844 16.582031 -28.457031L20.332031 -32.207031C20.800781 -32.636719 20.810547 -33.076172 20.361328 -33.525391C19.912109 -33.974609 19.472656 -33.964844 19.042969 -33.496094L16.875000 -31.386719L16.875000 -54.941406ZM19.042969 -52.832031"></path></svg>