<svg width="30.000000" height="15.039062" viewBox="0.000000 -35.683594 30.000000 15.039062" xmlns="http://www.w3.org/2000/svg"><path d="M5.214844 -21.074219C5.644531 -21.503906 5.644531 -21.953125 5.214844 -22.421875L3.222656 -24.414062L19.687500 -24.414062C19.960938 -24.414062 20.185547 -24.501953 20.361328 -24.677734C20.537109 -24.853516 20.625000 -25.078125 20.625000 -25.351562C20.625000 -25.625000 20.537109 -25.849609 20.361328 -26.025391C20.185547 -26.201172 19.960938 -26.289062 19.687500 -26.289062L3.222656 -26.289062L5.332031 -28.457031C5.800781 -28.886719 5.810547 -29.326172 5.361328 -29.775391C4.912109 -30.224609 4.472656 -30.214844 4.042969 -29.746094L0.292969 -25.996094C0.097656 -25.839844 0.000000 -25.625000 0.000000 -25.351562C0.000000 -25.078125 0.097656 -24.863281 0.292969 -24.707031L3.867188 -21.074219C4.335938 -20.644531 4.785156 -20.644531 5.214844 -21.074219ZM29.707031 -31.621094L26.132812 -35.253906C25.664062 -35.683594 25.214844 -35.673828 24.785156 -35.224609C24.355469 -34.775391 24.355469 -34.335938 24.785156 -33.906250L26.777344 -31.914062L10.312500 -31.914062C10.039062 -31.914062 9.814453 -31.816406 9.638672 -31.621094C9.462891 -31.425781 9.375000 -31.201172 9.375000 -30.947266C9.375000 -30.693359 9.462891 -30.478516 9.638672 -30.302734C9.814453 -30.126953 10.039062 -30.039062 10.312500 -30.039062L26.777344 -30.039062L24.667969 -27.871094C24.199219 -27.441406 24.189453 -27.001953 24.638672 -26.552734C25.087891 -26.103516 25.527344 -26.093750 25.957031 -26.523438L29.707031 -30.273438C29.902344 -30.468750 30.000000 -30.693359 30.000000 -30.947266C30.000000 -31.201172 29.902344 -31.425781 29.707031 -31.621094ZM29.707031 -31.621094"></path></svg>