<svg width="26.621094" height="26.621094" viewBox="1.689453 -53.056641 26.621094 26.621094" xmlns="http://www.w3.org/2000/svg"><path d="M27.861328 -52.607422C27.412109 -53.056641 26.972656 -53.046875 26.542969 -52.578125L18.750000 -44.843750L18.750000 -50.058594C18.750000 -50.332031 18.662109 -50.556641 18.486328 -50.732422C18.310547 -50.908203 18.085938 -50.996094 17.812500 -50.996094C17.539062 -50.996094 17.314453 -50.908203 17.138672 -50.732422C16.962891 -50.556641 16.875000 -50.332031 16.875000 -50.058594L16.875000 -42.558594C16.875000 -42.441406 16.894531 -42.324219 16.933594 -42.207031C16.972656 -42.089844 17.050781 -41.992188 17.167969 -41.914062C17.246094 -41.796875 17.343750 -41.718750 17.460938 -41.679688C17.578125 -41.640625 17.695312 -41.621094 17.812500 -41.621094L25.312500 -41.621094C25.585938 -41.621094 25.810547 -41.708984 25.986328 -41.884766C26.162109 -42.060547 26.250000 -42.285156 26.250000 -42.558594C26.250000 -42.832031 26.162109 -43.056641 25.986328 -43.232422C25.810547 -43.408203 25.585938 -43.496094 25.312500 -43.496094L20.097656 -43.496094L27.832031 -51.289062C28.300781 -51.718750 28.310547 -52.158203 27.861328 -52.607422ZM2.138672 -26.884766C2.587891 -26.435547 3.027344 -26.445312 3.457031 -26.914062L11.250000 -34.648438L11.250000 -29.433594C11.250000 -29.160156 11.337891 -28.935547 11.513672 -28.759766C11.689453 -28.583984 11.914062 -28.496094 12.187500 -28.496094C12.460938 -28.496094 12.685547 -28.583984 12.861328 -28.759766C13.037109 -28.935547 13.125000 -29.160156 13.125000 -29.433594L13.125000 -36.933594C13.125000 -37.050781 13.105469 -37.167969 13.066406 -37.285156C12.949219 -37.519531 12.773438 -37.695312 12.539062 -37.812500C12.421875 -37.851562 12.304688 -37.871094 12.187500 -37.871094L4.687500 -37.871094C4.414062 -37.871094 4.189453 -37.783203 4.013672 -37.607422C3.837891 -37.431641 3.750000 -37.207031 3.750000 -36.933594C3.750000 -36.660156 3.837891 -36.435547 4.013672 -36.259766C4.189453 -36.083984 4.414062 -35.996094 4.687500 -35.996094L9.902344 -35.996094L2.167969 -28.203125C1.699219 -27.773438 1.689453 -27.333984 2.138672 -26.884766ZM2.138672 -26.884766"></path></svg>