<svg width="14.794922" height="14.316406" viewBox="7.548828 -34.257812 14.794922 14.316406" xmlns="http://www.w3.org/2000/svg"><path d="M20.566406 -27.089844L14.941406 -22.109375L9.375000 -27.089844C8.906250 -27.558594 8.447266 -27.568359 7.998047 -27.119141C7.548828 -26.669922 7.558594 -26.210938 8.027344 -25.742188L14.296875 -20.234375C14.492188 -20.039062 14.707031 -19.941406 14.941406 -19.941406C15.214844 -19.941406 15.449219 -20.039062 15.644531 -20.234375L21.914062 -25.742188C22.343750 -26.210938 22.343750 -26.669922 21.914062 -27.119141C21.484375 -27.568359 21.035156 -27.558594 20.566406 -27.089844ZM21.914062 -33.828125C21.484375 -34.257812 21.035156 -34.257812 20.566406 -33.828125L14.941406 -28.847656L9.375000 -33.828125C8.906250 -34.257812 8.447266 -34.257812 7.998047 -33.828125C7.548828 -33.398438 7.558594 -32.949219 8.027344 -32.480469L14.296875 -26.914062C14.492188 -26.757812 14.707031 -26.679688 14.941406 -26.679688C15.214844 -26.679688 15.449219 -26.757812 15.644531 -26.914062L21.914062 -32.480469C22.343750 -32.949219 22.343750 -33.398438 21.914062 -33.828125ZM21.914062 -33.828125"></path></svg>