<svg width="14.316406" height="14.794922" viewBox="7.500000 -35.371094 14.316406 14.794922" xmlns="http://www.w3.org/2000/svg"><path d="M7.792969 -27.275391L13.300781 -21.005859C13.769531 -20.576172 14.228516 -20.576172 14.677734 -21.005859C15.126953 -21.435547 15.117188 -21.884766 14.648438 -22.353516L9.667969 -27.978516L14.648438 -33.544922C15.117188 -34.013672 15.126953 -34.472656 14.677734 -34.921875C14.228516 -35.371094 13.769531 -35.361328 13.300781 -34.892578L7.792969 -28.623047C7.597656 -28.427734 7.500000 -28.203125 7.500000 -27.949219C7.500000 -27.695312 7.597656 -27.470703 7.792969 -27.275391ZM21.386719 -34.921875C20.957031 -35.371094 20.507812 -35.361328 20.039062 -34.892578L14.472656 -28.623047C14.316406 -28.427734 14.238281 -28.203125 14.238281 -27.949219C14.238281 -27.695312 14.316406 -27.470703 14.472656 -27.275391L20.039062 -21.005859C20.507812 -20.576172 20.957031 -20.576172 21.386719 -21.005859C21.816406 -21.435547 21.816406 -21.884766 21.386719 -22.353516L16.406250 -27.978516L21.386719 -33.544922C21.816406 -34.013672 21.816406 -34.472656 21.386719 -34.921875ZM21.386719 -34.921875"></path></svg>