<svg width="28.125000" height="28.125000" viewBox="1.875000 -54.375000 28.125000 28.125000" xmlns="http://www.w3.org/2000/svg"><path d="M18.955078 -47.050781C18.505859 -47.480469 18.066406 -47.480469 17.636719 -47.050781L11.542969 -40.957031C11.347656 -40.800781 11.250000 -40.585938 11.250000 -40.312500C11.250000 -40.039062 11.347656 -39.824219 11.542969 -39.667969L17.636719 -33.574219C18.066406 -33.144531 18.496094 -33.144531 18.925781 -33.574219C19.121094 -33.769531 19.218750 -33.994141 19.218750 -34.248047C19.218750 -34.501953 19.121094 -34.707031 18.925781 -34.863281L13.535156 -40.312500L18.925781 -45.761719C19.394531 -46.191406 19.404297 -46.621094 18.955078 -47.050781ZM15.937500 -54.375000C12.070312 -54.375000 8.759766 -52.998047 6.005859 -50.244141C3.251953 -47.490234 1.875000 -44.179688 1.875000 -40.312500C1.875000 -36.445312 3.251953 -33.134766 6.005859 -30.380859C8.759766 -27.626953 12.070312 -26.250000 15.937500 -26.250000C19.804688 -26.250000 23.115234 -27.626953 25.869141 -30.380859C28.623047 -33.134766 30.000000 -36.445312 30.000000 -40.312500C30.000000 -44.179688 28.623047 -47.490234 25.869141 -50.244141C23.115234 -52.998047 19.804688 -54.375000 15.937500 -54.375000ZM15.937500 -28.125000C12.578125 -28.125000 9.707031 -29.316406 7.324219 -31.699219C4.941406 -34.082031 3.750000 -36.953125 3.750000 -40.312500C3.750000 -43.671875 4.941406 -46.542969 7.324219 -48.925781C9.707031 -51.308594 12.578125 -52.500000 15.937500 -52.500000C19.296875 -52.500000 22.167969 -51.308594 24.550781 -48.925781C26.933594 -46.542969 28.125000 -43.671875 28.125000 -40.312500C28.125000 -36.953125 26.933594 -34.082031 24.550781 -31.699219C22.167969 -29.316406 19.296875 -28.125000 15.937500 -28.125000ZM15.937500 -28.125000"></path></svg>