<svg width="28.007812" height="28.007812" viewBox="1.992188 -54.140625 28.007812 28.007812" xmlns="http://www.w3.org/2000/svg"><path d="M16.640625 -47.402344C16.445312 -47.597656 16.230469 -47.695312 15.996094 -47.695312C15.722656 -47.695312 15.488281 -47.597656 15.292969 -47.402344L9.023438 -41.894531C8.593750 -41.425781 8.593750 -40.966797 9.023438 -40.517578C9.453125 -40.068359 9.902344 -40.078125 10.371094 -40.546875L15.996094 -45.527344L21.562500 -40.546875C22.031250 -40.078125 22.490234 -40.068359 22.939453 -40.517578C23.388672 -40.966797 23.378906 -41.425781 22.910156 -41.894531ZM16.640625 -40.722656C16.445312 -40.878906 16.230469 -40.957031 15.996094 -40.957031C15.722656 -40.957031 15.488281 -40.878906 15.292969 -40.722656L9.023438 -35.156250C8.593750 -34.687500 8.593750 -34.238281 9.023438 -33.808594C9.453125 -33.378906 9.902344 -33.378906 10.371094 -33.808594L15.996094 -38.789062L21.562500 -33.808594C22.031250 -33.378906 22.490234 -33.378906 22.939453 -33.808594C23.388672 -34.238281 23.378906 -34.687500 22.910156 -35.156250ZM15.996094 -54.140625C12.128906 -54.140625 8.828125 -52.773438 6.093750 -50.039062C3.359375 -47.304688 1.992188 -44.003906 1.992188 -40.136719C1.992188 -36.269531 3.359375 -32.968750 6.093750 -30.234375C8.828125 -27.500000 12.128906 -26.132812 15.996094 -26.132812C19.863281 -26.132812 23.164062 -27.500000 25.898438 -30.234375C28.632812 -32.968750 30.000000 -36.269531 30.000000 -40.136719C30.000000 -44.003906 28.632812 -47.304688 25.898438 -50.039062C23.164062 -52.773438 19.863281 -54.140625 15.996094 -54.140625ZM16.025391 -28.007812C12.685547 -28.007812 9.824219 -29.189453 7.441406 -31.552734C5.058594 -33.916016 3.867188 -36.767578 3.867188 -40.107422C3.867188 -43.447266 5.058594 -46.308594 7.441406 -48.691406C9.824219 -51.074219 12.685547 -52.265625 16.025391 -52.265625C19.365234 -52.265625 22.216797 -51.074219 24.580078 -48.691406C26.943359 -46.308594 28.125000 -43.447266 28.125000 -40.107422C28.125000 -36.767578 26.943359 -33.916016 24.580078 -31.552734C22.216797 -29.189453 19.365234 -28.007812 16.025391 -28.007812ZM16.025391 -28.007812"></path></svg>