<svg width="28.125000" height="28.125000" viewBox="1.875000 -54.375000 28.125000 28.125000" xmlns="http://www.w3.org/2000/svg"><path d="M10.605469 -40.371094L15.585938 -45.937500C16.054688 -46.406250 16.064453 -46.865234 15.615234 -47.314453C15.166016 -47.763672 14.707031 -47.753906 14.238281 -47.285156L8.730469 -41.015625C8.535156 -40.820312 8.437500 -40.595703 8.437500 -40.341797C8.437500 -40.087891 8.535156 -39.863281 8.730469 -39.667969L14.238281 -33.398438C14.707031 -32.968750 15.166016 -32.968750 15.615234 -33.398438C16.064453 -33.828125 16.054688 -34.277344 15.585938 -34.746094ZM22.324219 -47.314453C21.894531 -47.763672 21.445312 -47.753906 20.976562 -47.285156L15.410156 -41.015625C15.253906 -40.820312 15.175781 -40.595703 15.175781 -40.341797C15.175781 -40.087891 15.253906 -39.863281 15.410156 -39.667969L20.976562 -33.398438C21.445312 -32.968750 21.894531 -32.968750 22.324219 -33.398438C22.753906 -33.828125 22.753906 -34.277344 22.324219 -34.746094L17.343750 -40.371094L22.324219 -45.937500C22.753906 -46.406250 22.753906 -46.865234 22.324219 -47.314453ZM15.937500 -54.375000C12.070312 -54.375000 8.759766 -52.998047 6.005859 -50.244141C3.251953 -47.490234 1.875000 -44.179688 1.875000 -40.312500C1.875000 -36.445312 3.251953 -33.134766 6.005859 -30.380859C8.759766 -27.626953 12.070312 -26.250000 15.937500 -26.250000C19.804688 -26.250000 23.115234 -27.626953 25.869141 -30.380859C28.623047 -33.134766 30.000000 -36.445312 30.000000 -40.312500C30.000000 -44.179688 28.623047 -47.490234 25.869141 -50.244141C23.115234 -52.998047 19.804688 -54.375000 15.937500 -54.375000ZM15.937500 -28.125000C12.578125 -28.125000 9.707031 -29.316406 7.324219 -31.699219C4.941406 -34.082031 3.750000 -36.953125 3.750000 -40.312500C3.750000 -43.671875 4.941406 -46.542969 7.324219 -48.925781C9.707031 -51.308594 12.578125 -52.500000 15.937500 -52.500000C19.296875 -52.500000 22.167969 -51.308594 24.550781 -48.925781C26.933594 -46.542969 28.125000 -43.671875 28.125000 -40.312500C28.125000 -36.953125 26.933594 -34.082031 24.550781 -31.699219C22.167969 -29.316406 19.296875 -28.125000 15.937500 -28.125000ZM15.937500 -28.125000"></path></svg>