<svg width="9.257812" height="15.390625" viewBox="11.250000 -36.210938 9.257812 15.390625" xmlns="http://www.w3.org/2000/svg"><path d="M13.007812 -21.250000L20.214844 -27.871094C20.410156 -28.027344 20.507812 -28.242188 20.507812 -28.515625C20.507812 -28.789062 20.410156 -29.003906 20.214844 -29.160156C20.214844 -29.160156 20.205078 -29.169922 20.185547 -29.189453C20.166016 -29.208984 20.156250 -29.218750 20.156250 -29.218750L13.007812 -35.781250C12.539062 -36.210938 12.050781 -36.210938 11.542969 -35.781250L11.542969 -35.722656C11.347656 -35.566406 11.250000 -35.351562 11.250000 -35.078125L11.250000 -21.953125C11.250000 -21.679688 11.367188 -21.445312 11.601562 -21.250000L11.542969 -21.250000C12.050781 -20.820312 12.539062 -20.820312 13.007812 -21.250000ZM13.007812 -21.250000"></path></svg>