<svg width="28.125000" height="28.125000" viewBox="1.875000 -54.375000 28.125000 28.125000" xmlns="http://www.w3.org/2000/svg"><path d="M15.937500 -54.375000C12.070312 -54.375000 8.759766 -52.998047 6.005859 -50.244141C3.251953 -47.490234 1.875000 -44.179688 1.875000 -40.312500C1.875000 -36.445312 3.251953 -33.134766 6.005859 -30.380859C8.759766 -27.626953 12.070312 -26.250000 15.937500 -26.250000C19.804688 -26.250000 23.115234 -27.626953 25.869141 -30.380859C28.623047 -33.134766 30.000000 -36.445312 30.000000 -40.312500C30.000000 -44.179688 28.623047 -47.490234 25.869141 -50.244141C23.115234 -52.998047 19.804688 -54.375000 15.937500 -54.375000ZM15.937500 -28.125000C12.578125 -28.125000 9.707031 -29.316406 7.324219 -31.699219C4.941406 -34.082031 3.750000 -36.953125 3.750000 -40.312500C3.750000 -43.671875 4.941406 -46.542969 7.324219 -48.925781C9.707031 -51.308594 12.578125 -52.500000 15.937500 -52.500000C19.296875 -52.500000 22.167969 -51.308594 24.550781 -48.925781C26.933594 -46.542969 28.125000 -43.671875 28.125000 -40.312500C28.125000 -36.953125 26.933594 -34.082031 24.550781 -31.699219C22.167969 -29.316406 19.296875 -28.125000 15.937500 -28.125000ZM18.398438 -46.640625C17.929688 -47.031250 17.441406 -47.031250 16.933594 -46.640625L9.667969 -40.898438C9.472656 -40.742188 9.375000 -40.556641 9.375000 -40.341797C9.375000 -40.126953 9.472656 -39.921875 9.667969 -39.726562C9.667969 -39.726562 9.687500 -39.726562 9.726562 -39.726562L16.933594 -33.984375C17.441406 -33.632812 17.929688 -33.632812 18.398438 -33.984375L18.457031 -34.042969C18.652344 -34.199219 18.750000 -34.394531 18.750000 -34.628906L18.750000 -46.054688C18.750000 -46.289062 18.632812 -46.484375 18.398438 -46.640625ZM18.398438 -46.640625"></path></svg>