<svg width="16.875000" height="16.875000" viewBox="7.500000 -37.500000 16.875000 16.875000" xmlns="http://www.w3.org/2000/svg"><path d="M8.437500 -28.125000L15.000000 -28.125000L15.000000 -21.562500C15.000000 -21.289062 15.087891 -21.064453 15.263672 -20.888672C15.439453 -20.712891 15.664062 -20.625000 15.937500 -20.625000C16.210938 -20.625000 16.435547 -20.712891 16.611328 -20.888672C16.787109 -21.064453 16.875000 -21.289062 16.875000 -21.562500L16.875000 -28.125000L23.437500 -28.125000C23.710938 -28.125000 23.935547 -28.212891 24.111328 -28.388672C24.287109 -28.564453 24.375000 -28.789062 24.375000 -29.062500C24.375000 -29.335938 24.287109 -29.560547 24.111328 -29.736328C23.935547 -29.912109 23.710938 -30.000000 23.437500 -30.000000L16.875000 -30.000000L16.875000 -36.562500C16.875000 -36.835938 16.787109 -37.060547 16.611328 -37.236328C16.435547 -37.412109 16.210938 -37.500000 15.937500 -37.500000C15.664062 -37.500000 15.439453 -37.412109 15.263672 -37.236328C15.087891 -37.060547 15.000000 -36.835938 15.000000 -36.562500L15.000000 -30.000000L8.437500 -30.000000C8.164062 -30.000000 7.939453 -29.912109 7.763672 -29.736328C7.587891 -29.560547 7.500000 -29.335938 7.500000 -29.062500C7.500000 -28.789062 7.587891 -28.564453 7.763672 -28.388672C7.939453 -28.212891 8.164062 -28.125000 8.437500 -28.125000ZM8.437500 -28.125000"></path></svg>