<svg width="20.693359" height="20.566406" viewBox="5.576172 -44.960938 20.693359 20.566406" xmlns="http://www.w3.org/2000/svg"><path d="M12.919922 -24.697266C12.939453 -24.677734 12.958984 -24.658203 12.978516 -24.638672C12.998047 -24.619141 13.007812 -24.609375 13.007812 -24.609375C13.046875 -24.609375 13.085938 -24.599609 13.125000 -24.580078C13.164062 -24.560547 13.183594 -24.550781 13.183594 -24.550781C13.300781 -24.511719 13.378906 -24.472656 13.417969 -24.433594C13.496094 -24.433594 13.574219 -24.433594 13.652344 -24.433594C13.769531 -24.394531 13.867188 -24.394531 13.945312 -24.433594C13.984375 -24.433594 14.023438 -24.433594 14.062500 -24.433594C14.218750 -24.472656 14.355469 -24.531250 14.472656 -24.609375C14.472656 -24.609375 14.492188 -24.628906 14.531250 -24.667969C14.648438 -24.746094 14.716797 -24.794922 14.736328 -24.814453C14.755859 -24.833984 14.775391 -24.863281 14.794922 -24.902344C14.814453 -24.941406 14.824219 -24.960938 14.824219 -24.960938L26.015625 -42.890625C26.210938 -43.203125 26.269531 -43.535156 26.191406 -43.886719C26.113281 -44.238281 25.927734 -44.511719 25.634766 -44.707031C25.341797 -44.902344 25.019531 -44.960938 24.667969 -44.882812C24.316406 -44.804688 24.042969 -44.628906 23.847656 -44.355469L13.476562 -27.773438L7.792969 -33.339844C7.519531 -33.574219 7.207031 -33.691406 6.855469 -33.691406C6.503906 -33.691406 6.201172 -33.554688 5.947266 -33.281250C5.693359 -33.007812 5.576172 -32.685547 5.595703 -32.314453C5.615234 -31.943359 5.761719 -31.640625 6.035156 -31.406250L12.890625 -24.726562C12.890625 -24.726562 12.900391 -24.716797 12.919922 -24.697266ZM12.919922 -24.697266"></path></svg>