<svg width="28.125000" height="28.125000" viewBox="1.875000 -54.375000 28.125000 28.125000" xmlns="http://www.w3.org/2000/svg"><path d="M15.937500 -54.375000C12.070312 -54.375000 8.759766 -52.998047 6.005859 -50.244141C3.251953 -47.490234 1.875000 -44.179688 1.875000 -40.312500C1.875000 -36.445312 3.251953 -33.134766 6.005859 -30.380859C8.759766 -27.626953 12.070312 -26.250000 15.937500 -26.250000C19.804688 -26.250000 23.115234 -27.626953 25.869141 -30.380859C28.623047 -33.134766 30.000000 -36.445312 30.000000 -40.312500C30.000000 -44.179688 28.623047 -47.490234 25.869141 -50.244141C23.115234 -52.998047 19.804688 -54.375000 15.937500 -54.375000ZM15.937500 -28.125000C12.578125 -28.125000 9.707031 -29.316406 7.324219 -31.699219C4.941406 -34.082031 3.750000 -36.953125 3.750000 -40.312500C3.750000 -43.671875 4.941406 -46.542969 7.324219 -48.925781C9.707031 -51.308594 12.578125 -52.500000 15.937500 -52.500000C19.296875 -52.500000 22.167969 -51.308594 24.550781 -48.925781C26.933594 -46.542969 28.125000 -43.671875 28.125000 -40.312500C28.125000 -36.953125 26.933594 -34.082031 24.550781 -31.699219C22.167969 -29.316406 19.296875 -28.125000 15.937500 -28.125000ZM23.437500 -41.250000L16.875000 -41.250000L16.875000 -47.812500C16.875000 -48.085938 16.787109 -48.310547 16.611328 -48.486328C16.435547 -48.662109 16.210938 -48.750000 15.937500 -48.750000C15.664062 -48.750000 15.439453 -48.662109 15.263672 -48.486328C15.087891 -48.310547 15.000000 -48.085938 15.000000 -47.812500L15.000000 -41.250000L8.437500 -41.250000C8.164062 -41.250000 7.939453 -41.162109 7.763672 -40.986328C7.587891 -40.810547 7.500000 -40.585938 7.500000 -40.312500C7.500000 -40.039062 7.587891 -39.814453 7.763672 -39.638672C7.939453 -39.462891 8.164062 -39.375000 8.437500 -39.375000L15.000000 -39.375000L15.000000 -32.812500C15.000000 -32.539062 15.087891 -32.314453 15.263672 -32.138672C15.439453 -31.962891 15.664062 -31.875000 15.937500 -31.875000C16.210938 -31.875000 16.435547 -31.962891 16.611328 -32.138672C16.787109 -32.314453 16.875000 -32.539062 16.875000 -32.812500L16.875000 -39.375000L23.437500 -39.375000C23.710938 -39.375000 23.935547 -39.462891 24.111328 -39.638672C24.287109 -39.814453 24.375000 -40.039062 24.375000 -40.312500C24.375000 -40.585938 24.287109 -40.810547 24.111328 -40.986328C23.935547 -41.162109 23.710938 -41.250000 23.437500 -41.250000ZM23.437500 -41.250000"></path></svg>