<svg width="22.500000" height="22.500000" viewBox="3.750000 -46.875000 22.500000 22.500000" xmlns="http://www.w3.org/2000/svg"><path d="M24.375000 -46.875000L5.625000 -46.875000C5.117188 -46.875000 4.677734 -46.689453 4.306641 -46.318359C3.935547 -45.947266 3.750000 -45.507812 3.750000 -45.000000L3.750000 -26.250000C3.750000 -25.742188 3.935547 -25.302734 4.306641 -24.931641C4.677734 -24.560547 5.117188 -24.375000 5.625000 -24.375000L24.375000 -24.375000C24.882812 -24.375000 25.322266 -24.560547 25.693359 -24.931641C26.064453 -25.302734 26.250000 -25.742188 26.250000 -26.250000L26.250000 -45.000000C26.250000 -45.507812 26.064453 -45.947266 25.693359 -46.318359C25.322266 -46.689453 24.882812 -46.875000 24.375000 -46.875000ZM24.375000 -26.250000L5.625000 -26.250000L5.625000 -45.000000L24.375000 -45.000000ZM11.250000 -30.000000L18.750000 -30.000000C19.257812 -30.000000 19.697266 -30.185547 20.068359 -30.556641C20.439453 -30.927734 20.625000 -31.367188 20.625000 -31.875000L20.625000 -39.375000C20.625000 -39.882812 20.439453 -40.322266 20.068359 -40.693359C19.697266 -41.064453 19.257812 -41.250000 18.750000 -41.250000L11.250000 -41.250000C10.742188 -41.250000 10.302734 -41.064453 9.931641 -40.693359C9.560547 -40.322266 9.375000 -39.882812 9.375000 -39.375000L9.375000 -31.875000C9.375000 -31.367188 9.560547 -30.927734 9.931641 -30.556641C10.302734 -30.185547 10.742188 -30.000000 11.250000 -30.000000ZM11.250000 -30.000000"></path></svg>