<svg width="11.250000" height="11.250000" viewBox="9.375000 -30.000000 11.250000 11.250000" xmlns="http://www.w3.org/2000/svg"><path d="M18.750000 -18.750000C19.257812 -18.750000 19.697266 -18.935547 20.068359 -19.306641C20.439453 -19.677734 20.625000 -20.117188 20.625000 -20.625000L20.625000 -28.125000C20.625000 -28.632812 20.439453 -29.072266 20.068359 -29.443359C19.697266 -29.814453 19.257812 -30.000000 18.750000 -30.000000L11.250000 -30.000000C10.742188 -30.000000 10.302734 -29.814453 9.931641 -29.443359C9.560547 -29.072266 9.375000 -28.632812 9.375000 -28.125000L9.375000 -20.625000C9.375000 -20.117188 9.560547 -19.677734 9.931641 -19.306641C10.302734 -18.935547 10.742188 -18.750000 11.250000 -18.750000ZM18.750000 -18.750000"></path></svg>