<svg width="15.000000" height="22.558594" viewBox="7.324219 -46.933594 15.000000 22.558594" xmlns="http://www.w3.org/2000/svg"><path d="M12.890625 -26.279297C12.890625 -25.751953 13.085938 -25.302734 13.476562 -24.931641C13.867188 -24.560547 14.326172 -24.375000 14.853516 -24.375000C15.380859 -24.375000 15.830078 -24.560547 16.201172 -24.931641C16.572266 -25.302734 16.757812 -25.761719 16.757812 -26.308594C16.757812 -26.816406 16.572266 -27.265625 16.201172 -27.656250C15.830078 -28.046875 15.380859 -28.242188 14.853516 -28.242188C14.326172 -28.242188 13.867188 -28.046875 13.476562 -27.656250C13.085938 -27.265625 12.890625 -26.806641 12.890625 -26.279297ZM18.222656 -33.574219C20.957031 -35.058594 22.324219 -37.207031 22.324219 -40.019531C22.324219 -42.246094 21.591797 -43.955078 20.126953 -45.146484C18.662109 -46.337891 16.894531 -46.933594 14.824219 -46.933594C12.871094 -46.933594 11.132812 -46.259766 9.609375 -44.912109C8.085938 -43.564453 7.324219 -41.718750 7.324219 -39.375000C7.324219 -38.867188 7.509766 -38.427734 7.880859 -38.056641C8.251953 -37.685547 8.701172 -37.500000 9.228516 -37.500000C9.755859 -37.500000 10.195312 -37.685547 10.546875 -38.056641C10.898438 -38.427734 11.074219 -38.867188 11.074219 -39.375000C11.074219 -40.585938 11.455078 -41.523438 12.216797 -42.187500C12.978516 -42.851562 13.847656 -43.183594 14.824219 -43.183594C17.324219 -43.183594 18.574219 -42.128906 18.574219 -40.019531C18.574219 -38.691406 17.871094 -37.636719 16.464844 -36.855469C15.605469 -36.386719 14.804688 -35.712891 14.062500 -34.833984C13.320312 -33.955078 12.949219 -32.988281 12.949219 -31.933594C12.949219 -31.425781 13.134766 -30.986328 13.505859 -30.615234C13.876953 -30.244141 14.326172 -30.058594 14.853516 -30.058594C15.380859 -30.058594 15.820312 -30.244141 16.171875 -30.615234C16.523438 -30.986328 16.699219 -31.425781 16.699219 -31.933594C16.699219 -32.128906 16.865234 -32.402344 17.197266 -32.753906C17.529297 -33.105469 17.871094 -33.378906 18.222656 -33.574219ZM18.222656 -33.574219"></path></svg>