<svg width="26.250000" height="30.000000" viewBox="1.875000 -58.125000 26.250000 30.000000" xmlns="http://www.w3.org/2000/svg"><path d="M15.000000 -58.125000C12.421875 -58.125000 10.214844 -57.197266 8.378906 -55.341797C6.542969 -53.486328 5.625000 -51.250000 5.625000 -48.632812L5.625000 -46.875000L3.750000 -46.875000C3.242188 -46.875000 2.802734 -46.689453 2.431641 -46.318359C2.060547 -45.947266 1.875000 -45.507812 1.875000 -45.000000L1.875000 -30.000000C1.875000 -29.492188 2.060547 -29.052734 2.431641 -28.681641C2.802734 -28.310547 3.242188 -28.125000 3.750000 -28.125000L26.250000 -28.125000C26.757812 -28.125000 27.197266 -28.310547 27.568359 -28.681641C27.939453 -29.052734 28.125000 -29.492188 28.125000 -30.000000L28.125000 -45.000000C28.125000 -45.507812 27.939453 -45.947266 27.568359 -46.318359C27.197266 -46.689453 26.757812 -46.875000 26.250000 -46.875000L24.375000 -46.875000L24.375000 -48.632812C24.375000 -51.250000 23.457031 -53.486328 21.621094 -55.341797C19.785156 -57.197266 17.578125 -58.125000 15.000000 -58.125000ZM7.500000 -48.632812C7.500000 -50.703125 8.232422 -52.490234 9.697266 -53.994141C11.162109 -55.498047 12.929688 -56.250000 15.000000 -56.250000C17.070312 -56.250000 18.837891 -55.498047 20.302734 -53.994141C21.767578 -52.490234 22.500000 -50.703125 22.500000 -48.632812L22.500000 -46.875000L7.500000 -46.875000ZM26.250000 -30.000000L3.750000 -30.000000L3.750000 -45.000000L26.250000 -45.000000ZM18.750000 -37.500000C18.750000 -38.554688 18.388672 -39.443359 17.666016 -40.166016C16.943359 -40.888672 16.054688 -41.250000 15.000000 -41.250000C13.945312 -41.250000 13.056641 -40.888672 12.333984 -40.166016C11.611328 -39.443359 11.250000 -38.554688 11.250000 -37.500000C11.250000 -36.445312 11.611328 -35.556641 12.333984 -34.833984C13.056641 -34.111328 13.945312 -33.750000 15.000000 -33.750000C16.054688 -33.750000 16.943359 -34.111328 17.666016 -34.833984C18.388672 -35.556641 18.750000 -36.445312 18.750000 -37.500000ZM15.000000 -35.625000C14.492188 -35.625000 14.052734 -35.810547 13.681641 -36.181641C13.310547 -36.552734 13.125000 -36.992188 13.125000 -37.500000C13.125000 -38.007812 13.310547 -38.447266 13.681641 -38.818359C14.052734 -39.189453 14.492188 -39.375000 15.000000 -39.375000C15.507812 -39.375000 15.947266 -39.189453 16.318359 -38.818359C16.689453 -38.447266 16.875000 -38.007812 16.875000 -37.500000C16.875000 -36.992188 16.689453 -36.552734 16.318359 -36.181641C15.947266 -35.810547 15.507812 -35.625000 15.000000 -35.625000ZM15.000000 -35.625000"></path></svg>