<svg width="30.000000" height="22.500000" viewBox="0.000000 -46.875000 30.000000 22.500000" xmlns="http://www.w3.org/2000/svg"><path d="M24.375000 -35.625000C24.335938 -35.625000 24.296875 -35.625000 24.257812 -35.625000C24.218750 -35.625000 24.199219 -35.625000 24.199219 -35.625000C24.316406 -36.250000 24.375000 -36.875000 24.375000 -37.500000C24.375000 -40.078125 23.457031 -42.285156 21.621094 -44.121094C19.785156 -45.957031 17.578125 -46.875000 15.000000 -46.875000C12.421875 -46.875000 10.214844 -45.957031 8.378906 -44.121094C6.542969 -42.285156 5.625000 -40.078125 5.625000 -37.500000C5.625000 -37.500000 5.625000 -37.490234 5.625000 -37.470703C5.625000 -37.451172 5.625000 -37.421875 5.625000 -37.382812C4.023438 -37.187500 2.685547 -36.474609 1.611328 -35.244141C0.537109 -34.013672 0.000000 -32.578125 0.000000 -30.937500C0.000000 -29.296875 0.537109 -27.871094 1.611328 -26.660156C2.685547 -25.449219 4.023438 -24.726562 5.625000 -24.492188L5.625000 -24.375000L24.375000 -24.375000C25.937500 -24.375000 27.265625 -24.921875 28.359375 -26.015625C29.453125 -27.109375 30.000000 -28.437500 30.000000 -30.000000C30.000000 -31.562500 29.453125 -32.890625 28.359375 -33.984375C27.265625 -35.078125 25.937500 -35.625000 24.375000 -35.625000ZM24.375000 -26.250000L6.210938 -26.250000C6.093750 -26.289062 5.996094 -26.308594 5.917969 -26.308594C4.746094 -26.503906 3.779297 -27.041016 3.017578 -27.919922C2.255859 -28.798828 1.875000 -29.804688 1.875000 -30.937500C1.875000 -32.070312 2.255859 -33.085938 3.017578 -33.984375C3.779297 -34.882812 4.746094 -35.410156 5.917969 -35.566406C6.386719 -35.605469 6.767578 -35.810547 7.060547 -36.181641C7.353516 -36.552734 7.500000 -36.972656 7.500000 -37.441406C7.500000 -37.480469 7.500000 -37.539062 7.500000 -37.617188C7.539062 -39.648438 8.281250 -41.386719 9.726562 -42.832031C11.171875 -44.277344 12.929688 -45.000000 15.000000 -45.000000C17.070312 -45.000000 18.837891 -44.267578 20.302734 -42.802734C21.767578 -41.337891 22.500000 -39.570312 22.500000 -37.500000C22.500000 -36.992188 22.441406 -36.484375 22.324219 -35.976562C22.207031 -35.390625 22.343750 -34.863281 22.734375 -34.394531C23.125000 -33.964844 23.613281 -33.750000 24.199219 -33.750000C24.199219 -33.750000 24.218750 -33.750000 24.257812 -33.750000C24.296875 -33.750000 24.355469 -33.750000 24.433594 -33.750000C25.449219 -33.710938 26.318359 -33.330078 27.041016 -32.607422C27.763672 -31.884766 28.125000 -31.015625 28.125000 -30.000000C28.125000 -28.984375 27.753906 -28.105469 27.011719 -27.363281C26.269531 -26.621094 25.390625 -26.250000 24.375000 -26.250000ZM24.375000 -26.250000"></path></svg>