<svg width="30.000000" height="26.250000" viewBox="0.000000 -52.500000 30.000000 26.250000" xmlns="http://www.w3.org/2000/svg"><path d="M28.125000 -52.500000L1.875000 -52.500000C1.367188 -52.500000 0.927734 -52.314453 0.556641 -51.943359C0.185547 -51.572266 0.000000 -51.132812 0.000000 -50.625000L0.000000 -33.750000C0.000000 -33.242188 0.185547 -32.802734 0.556641 -32.431641C0.927734 -32.060547 1.367188 -31.875000 1.875000 -31.875000L11.250000 -31.875000C11.250000 -29.843750 11.054688 -28.593750 10.664062 -28.125000L10.312500 -28.125000C10.039062 -28.125000 9.814453 -28.037109 9.638672 -27.861328C9.462891 -27.685547 9.375000 -27.460938 9.375000 -27.187500C9.375000 -26.914062 9.462891 -26.689453 9.638672 -26.513672C9.814453 -26.337891 10.039062 -26.250000 10.312500 -26.250000L19.687500 -26.250000C19.960938 -26.250000 20.185547 -26.337891 20.361328 -26.513672C20.537109 -26.689453 20.625000 -26.914062 20.625000 -27.187500C20.625000 -27.460938 20.537109 -27.685547 20.361328 -27.861328C20.185547 -28.037109 19.960938 -28.125000 19.687500 -28.125000L19.335938 -28.125000C18.945312 -28.593750 18.750000 -29.843750 18.750000 -31.875000L28.125000 -31.875000C28.632812 -31.875000 29.072266 -32.060547 29.443359 -32.431641C29.814453 -32.802734 30.000000 -33.242188 30.000000 -33.750000L30.000000 -50.625000C30.000000 -51.132812 29.814453 -51.572266 29.443359 -51.943359C29.072266 -52.314453 28.632812 -52.500000 28.125000 -52.500000ZM28.125000 -35.625000L1.875000 -35.625000L1.875000 -50.625000L28.125000 -50.625000ZM28.125000 -35.625000"></path></svg>