<svg width="30.000000" height="30.000000" viewBox="0.000000 -58.125000 30.000000 30.000000" xmlns="http://www.w3.org/2000/svg"><path d="M23.378906 -39.375000L22.675781 -41.250000L20.683594 -41.250000L9.316406 -41.250000L7.324219 -41.250000L6.621094 -39.375000L3.750000 -31.875000L26.250000 -31.875000ZM8.613281 -39.375000L21.386719 -39.375000L23.554688 -33.750000L6.445312 -33.750000ZM19.277344 -45.000000L21.269531 -45.000000L20.566406 -46.875000L16.757812 -56.953125C16.445312 -57.734375 15.859375 -58.125000 15.000000 -58.125000C14.140625 -58.125000 13.554688 -57.734375 13.242188 -56.953125L9.433594 -46.875000L8.730469 -45.000000L10.722656 -45.000000ZM15.000000 -56.250000L18.574219 -46.875000L11.425781 -46.875000ZM29.062500 -30.000000L0.937500 -30.000000C0.664062 -30.000000 0.439453 -29.912109 0.263672 -29.736328C0.087891 -29.560547 0.000000 -29.345703 0.000000 -29.091797C0.000000 -28.837891 0.097656 -28.613281 0.292969 -28.417969C0.488281 -28.222656 0.703125 -28.125000 0.937500 -28.125000L29.062500 -28.125000C29.296875 -28.125000 29.511719 -28.222656 29.707031 -28.417969C29.902344 -28.613281 30.000000 -28.837891 30.000000 -29.091797C30.000000 -29.345703 29.912109 -29.560547 29.736328 -29.736328C29.560547 -29.912109 29.335938 -30.000000 29.062500 -30.000000ZM29.062500 -30.000000"></path></svg>