<svg width="30.097656" height="26.250000" viewBox="0.000000 -50.625000 30.097656 26.250000" xmlns="http://www.w3.org/2000/svg"><path d="M5.683594 -26.250000C5.683594 -25.742188 5.869141 -25.302734 6.240234 -24.931641C6.611328 -24.560547 7.050781 -24.375000 7.558594 -24.375000C8.066406 -24.375000 8.505859 -24.560547 8.876953 -24.931641C9.248047 -25.302734 9.433594 -25.742188 9.433594 -26.250000C9.433594 -26.757812 9.248047 -27.197266 8.876953 -27.568359C8.505859 -27.939453 8.066406 -28.125000 7.558594 -28.125000C7.050781 -28.125000 6.611328 -27.939453 6.240234 -27.568359C5.869141 -27.197266 5.683594 -26.757812 5.683594 -26.250000ZM22.558594 -26.250000C22.558594 -25.742188 22.744141 -25.302734 23.115234 -24.931641C23.486328 -24.560547 23.925781 -24.375000 24.433594 -24.375000C24.941406 -24.375000 25.380859 -24.560547 25.751953 -24.931641C26.123047 -25.302734 26.308594 -25.742188 26.308594 -26.250000C26.308594 -26.757812 26.123047 -27.197266 25.751953 -27.568359C25.380859 -27.939453 24.941406 -28.125000 24.433594 -28.125000C23.925781 -28.125000 23.486328 -27.939453 23.115234 -27.568359C22.744141 -27.197266 22.558594 -26.757812 22.558594 -26.250000ZM0.000000 -49.687500C0.000000 -49.414062 0.087891 -49.189453 0.263672 -49.013672C0.439453 -48.837891 0.664062 -48.750000 0.937500 -48.750000L2.871094 -48.750000L4.042969 -43.769531L5.683594 -35.625000C5.683594 -35.585938 5.693359 -35.546875 5.712891 -35.507812C5.732422 -35.468750 5.742188 -35.449219 5.742188 -35.449219L4.746094 -31.113281C4.707031 -30.839844 4.775391 -30.585938 4.951172 -30.351562C5.126953 -30.117188 5.371094 -30.000000 5.683594 -30.000000L26.953125 -30.000000C27.226562 -30.000000 27.451172 -30.087891 27.626953 -30.263672C27.802734 -30.439453 27.890625 -30.664062 27.890625 -30.937500C27.890625 -31.210938 27.802734 -31.435547 27.626953 -31.611328C27.451172 -31.787109 27.226562 -31.875000 26.953125 -31.875000L6.855469 -31.875000L7.265625 -33.808594C7.304688 -33.808594 7.353516 -33.798828 7.412109 -33.779297C7.470703 -33.759766 7.519531 -33.750000 7.558594 -33.750000L24.667969 -33.750000C25.214844 -33.750000 25.644531 -33.837891 25.957031 -34.013672C26.269531 -34.189453 26.562500 -34.570312 26.835938 -35.156250L29.824219 -44.472656C30.097656 -45.253906 30.039062 -45.849609 29.648438 -46.259766C29.257812 -46.669922 28.769531 -46.875000 28.183594 -46.875000L5.683594 -46.875000C5.644531 -46.875000 5.507812 -46.855469 5.273438 -46.816406L4.570312 -49.921875C4.453125 -50.390625 4.140625 -50.625000 3.632812 -50.625000L0.937500 -50.625000C0.664062 -50.625000 0.439453 -50.537109 0.263672 -50.361328C0.087891 -50.185547 0.000000 -49.960938 0.000000 -49.687500ZM5.742188 -45.000000L28.066406 -45.000000L25.078125 -35.800781C25.039062 -35.722656 25.000000 -35.664062 24.960938 -35.625000C24.882812 -35.625000 24.785156 -35.625000 24.667969 -35.625000L7.558594 -35.625000L7.558594 -35.800781L7.500000 -35.976562ZM5.742188 -45.000000"></path></svg>