<svg width="28.125000" height="28.125000" viewBox="0.058594 -54.375000 28.125000 28.125000" xmlns="http://www.w3.org/2000/svg"><path d="M27.304688 -54.375000L27.246094 -54.375000L27.187500 -54.375000L15.410156 -54.375000C15.097656 -54.335938 14.765625 -54.160156 14.414062 -53.847656L0.585938 -40.019531C0.234375 -39.667969 0.058594 -39.228516 0.058594 -38.701172C0.058594 -38.173828 0.234375 -37.734375 0.585938 -37.382812L11.191406 -26.777344C11.542969 -26.425781 11.982422 -26.250000 12.509766 -26.250000C13.037109 -26.250000 13.476562 -26.425781 13.828125 -26.777344L27.656250 -40.605469C28.007812 -40.957031 28.183594 -41.289062 28.183594 -41.601562L28.183594 -53.437500C28.183594 -53.710938 28.105469 -53.935547 27.949219 -54.111328C27.792969 -54.287109 27.578125 -54.375000 27.304688 -54.375000ZM26.308594 -41.953125C26.269531 -41.875000 26.250000 -41.835938 26.250000 -41.835938L12.539062 -28.125000L1.933594 -38.730469L15.644531 -52.441406C15.683594 -52.441406 15.722656 -52.460938 15.761719 -52.500000L26.308594 -52.500000ZM22.558594 -49.687500C22.558594 -49.414062 22.646484 -49.189453 22.822266 -49.013672C22.998047 -48.837891 23.222656 -48.750000 23.496094 -48.750000C23.769531 -48.750000 23.994141 -48.837891 24.169922 -49.013672C24.345703 -49.189453 24.433594 -49.414062 24.433594 -49.687500C24.433594 -49.960938 24.345703 -50.185547 24.169922 -50.361328C23.994141 -50.537109 23.769531 -50.625000 23.496094 -50.625000C23.222656 -50.625000 22.998047 -50.537109 22.822266 -50.361328C22.646484 -50.185547 22.558594 -49.960938 22.558594 -49.687500ZM22.558594 -49.687500"></path></svg>