<svg width="30.000000" height="25.722656" viewBox="0.000000 -49.570312 30.000000 25.722656" xmlns="http://www.w3.org/2000/svg"><path d="M30.000000 -40.898438C29.960938 -43.203125 29.111328 -45.224609 27.451172 -46.962891C25.791016 -48.701172 23.828125 -49.570312 21.562500 -49.570312C18.906250 -49.570312 16.718750 -48.417969 15.000000 -46.113281C13.281250 -48.417969 11.093750 -49.570312 8.437500 -49.570312C6.171875 -49.570312 4.208984 -48.701172 2.548828 -46.962891C0.888672 -45.224609 0.039062 -43.203125 0.000000 -40.898438C0.000000 -40.859375 0.000000 -40.830078 0.000000 -40.810547C0.000000 -40.791016 0.000000 -40.781250 0.000000 -40.781250C0.000000 -40.742188 0.000000 -40.722656 0.000000 -40.722656C0.000000 -40.683594 0.009766 -40.625000 0.029297 -40.546875C0.048828 -40.468750 0.058594 -40.410156 0.058594 -40.371094C0.097656 -38.769531 0.410156 -37.236328 0.996094 -35.771484C1.582031 -34.306641 2.294922 -33.046875 3.134766 -31.992188C3.974609 -30.937500 4.960938 -29.931641 6.093750 -28.974609C7.226562 -28.017578 8.251953 -27.246094 9.169922 -26.660156C10.087891 -26.074219 11.044922 -25.546875 12.041016 -25.078125C13.037109 -24.609375 13.710938 -24.306641 14.062500 -24.169922C14.414062 -24.033203 14.687500 -23.925781 14.882812 -23.847656C15.078125 -23.925781 15.351562 -24.023438 15.703125 -24.140625C16.054688 -24.257812 16.738281 -24.560547 17.753906 -25.048828C18.769531 -25.537109 19.746094 -26.074219 20.683594 -26.660156C21.621094 -27.246094 22.666016 -28.007812 23.818359 -28.945312C24.970703 -29.882812 25.966797 -30.888672 26.806641 -31.962891C27.646484 -33.037109 28.369141 -34.306641 28.974609 -35.771484C29.580078 -37.236328 29.902344 -38.769531 29.941406 -40.371094C29.941406 -40.410156 29.951172 -40.468750 29.970703 -40.546875C29.990234 -40.625000 30.000000 -40.683594 30.000000 -40.722656C30.000000 -40.722656 30.000000 -40.742188 30.000000 -40.781250C30.000000 -40.820312 30.000000 -40.839844 30.000000 -40.839844C30.000000 -40.839844 30.000000 -40.859375 30.000000 -40.898438ZM28.066406 -40.429688C28.027344 -38.750000 27.607422 -37.128906 26.806641 -35.566406C26.005859 -34.003906 25.097656 -32.714844 24.082031 -31.699219C23.066406 -30.683594 21.884766 -29.726562 20.537109 -28.828125C19.189453 -27.929688 18.095703 -27.285156 17.255859 -26.894531C16.416016 -26.503906 15.625000 -26.152344 14.882812 -25.839844C14.140625 -26.152344 13.359375 -26.503906 12.539062 -26.894531C11.718750 -27.285156 10.644531 -27.929688 9.316406 -28.828125C7.988281 -29.726562 6.826172 -30.683594 5.830078 -31.699219C4.833984 -32.714844 3.945312 -34.003906 3.164062 -35.566406C2.382812 -37.128906 1.972656 -38.769531 1.933594 -40.488281C1.933594 -40.566406 1.914062 -40.644531 1.875000 -40.722656C1.875000 -40.761719 1.875000 -40.800781 1.875000 -40.839844C1.914062 -42.714844 2.578125 -44.326172 3.867188 -45.673828C5.156250 -47.021484 6.679688 -47.695312 8.437500 -47.695312C10.468750 -47.695312 12.148438 -46.796875 13.476562 -45.000000C13.867188 -44.492188 14.375000 -44.238281 15.000000 -44.238281C15.625000 -44.238281 16.132812 -44.492188 16.523438 -45.000000C17.851562 -46.796875 19.531250 -47.695312 21.562500 -47.695312C23.320312 -47.695312 24.843750 -47.021484 26.132812 -45.673828C27.421875 -44.326172 28.085938 -42.714844 28.125000 -40.839844C28.125000 -40.800781 28.125000 -40.761719 28.125000 -40.722656C28.085938 -40.644531 28.066406 -40.546875 28.066406 -40.429688ZM28.066406 -40.429688"></path></svg>