<svg width="30.000000" height="30.000000" viewBox="0.000000 -58.125000 30.000000 30.000000" xmlns="http://www.w3.org/2000/svg"><path d="M25.781250 -46.230469C25.546875 -47.050781 25.234375 -47.832031 24.843750 -48.574219L26.718750 -52.500000C26.015625 -53.359375 25.234375 -54.140625 24.375000 -54.843750L20.449219 -52.968750C19.707031 -53.359375 18.925781 -53.671875 18.105469 -53.906250L16.640625 -58.007812C16.054688 -58.085938 15.507812 -58.125000 15.000000 -58.125000C14.492188 -58.125000 13.945312 -58.085938 13.359375 -58.007812L11.894531 -53.906250C11.074219 -53.671875 10.292969 -53.359375 9.550781 -52.968750L5.625000 -54.843750C4.765625 -54.140625 3.984375 -53.359375 3.281250 -52.500000L5.156250 -48.574219C4.765625 -47.832031 4.453125 -47.050781 4.218750 -46.230469L0.117188 -44.765625C0.039062 -44.179688 0.000000 -43.632812 0.000000 -43.125000C0.000000 -42.617188 0.039062 -42.070312 0.117188 -41.484375L4.218750 -40.019531C4.453125 -39.199219 4.765625 -38.417969 5.156250 -37.675781L3.281250 -33.750000C3.984375 -32.890625 4.765625 -32.109375 5.625000 -31.406250L9.550781 -33.281250C10.292969 -32.890625 11.074219 -32.578125 11.894531 -32.343750L13.359375 -28.242188C13.945312 -28.164062 14.492188 -28.125000 15.000000 -28.125000C15.507812 -28.125000 16.054688 -28.164062 16.640625 -28.242188L18.105469 -32.343750C18.925781 -32.578125 19.707031 -32.890625 20.449219 -33.281250L24.375000 -31.406250C25.234375 -32.109375 26.015625 -32.890625 26.718750 -33.750000L24.843750 -37.675781C25.234375 -38.417969 25.546875 -39.199219 25.781250 -40.019531L29.882812 -41.484375C29.960938 -42.070312 30.000000 -42.617188 30.000000 -43.125000C30.000000 -43.632812 29.960938 -44.179688 29.882812 -44.765625ZM15.000000 -35.625000C12.929688 -35.625000 11.162109 -36.357422 9.697266 -37.822266C8.232422 -39.287109 7.500000 -41.054688 7.500000 -43.125000C7.500000 -45.195312 8.232422 -46.962891 9.697266 -48.427734C11.162109 -49.892578 12.929688 -50.625000 15.000000 -50.625000C17.070312 -50.625000 18.837891 -49.892578 20.302734 -48.427734C21.767578 -46.962891 22.500000 -45.195312 22.500000 -43.125000C22.500000 -41.054688 21.767578 -39.287109 20.302734 -37.822266C18.837891 -36.357422 17.070312 -35.625000 15.000000 -35.625000ZM11.250000 -43.125000C11.250000 -42.109375 11.621094 -41.230469 12.363281 -40.488281C13.105469 -39.746094 13.984375 -39.375000 15.000000 -39.375000C16.015625 -39.375000 16.894531 -39.746094 17.636719 -40.488281C18.378906 -41.230469 18.750000 -42.109375 18.750000 -43.125000C18.750000 -44.140625 18.378906 -45.019531 17.636719 -45.761719C16.894531 -46.503906 16.015625 -46.875000 15.000000 -46.875000C13.984375 -46.875000 13.105469 -46.503906 12.363281 -45.761719C11.621094 -45.019531 11.250000 -44.140625 11.250000 -43.125000ZM11.250000 -43.125000"></path></svg>