<svg width="28.125000" height="28.125000" viewBox="1.875000 -54.375000 28.125000 28.125000" xmlns="http://www.w3.org/2000/svg"><path d="M15.937500 -54.375000C12.070312 -54.375000 8.759766 -52.998047 6.005859 -50.244141C3.251953 -47.490234 1.875000 -44.179688 1.875000 -40.312500C1.875000 -36.445312 3.251953 -33.134766 6.005859 -30.380859C8.759766 -27.626953 12.070312 -26.250000 15.937500 -26.250000C19.804688 -26.250000 23.115234 -27.626953 25.869141 -30.380859C28.623047 -33.134766 30.000000 -36.445312 30.000000 -40.312500C30.000000 -44.179688 28.623047 -47.490234 25.869141 -50.244141C23.115234 -52.998047 19.804688 -54.375000 15.937500 -54.375000ZM26.250000 -40.312500C26.250000 -40.039062 26.162109 -39.814453 25.986328 -39.638672C25.810547 -39.462891 25.585938 -39.375000 25.312500 -39.375000L10.722656 -39.375000L14.707031 -35.332031C14.902344 -35.175781 15.000000 -34.960938 15.000000 -34.687500C15.000000 -34.414062 14.902344 -34.199219 14.707031 -34.042969C14.277344 -33.574219 13.847656 -33.574219 13.417969 -34.042969L7.792969 -39.667969C7.675781 -39.746094 7.597656 -39.843750 7.558594 -39.960938C7.519531 -40.078125 7.500000 -40.195312 7.500000 -40.312500C7.500000 -40.429688 7.519531 -40.546875 7.558594 -40.664062C7.597656 -40.781250 7.675781 -40.878906 7.792969 -40.957031L13.417969 -46.582031C13.847656 -47.050781 14.287109 -47.060547 14.736328 -46.611328C15.185547 -46.162109 15.175781 -45.722656 14.707031 -45.292969L10.722656 -41.250000L25.312500 -41.250000C25.585938 -41.250000 25.810547 -41.162109 25.986328 -40.986328C26.162109 -40.810547 26.250000 -40.585938 26.250000 -40.312500ZM26.250000 -40.312500"></path></svg>