<svg width="28.125000" height="28.125000" viewBox="1.875000 -54.375000 28.125000 28.125000" xmlns="http://www.w3.org/2000/svg"><path d="M6.005859 -50.244141C3.251953 -47.490234 1.875000 -44.179688 1.875000 -40.312500C1.875000 -36.445312 3.251953 -33.134766 6.005859 -30.380859C8.759766 -27.626953 12.070312 -26.250000 15.937500 -26.250000C19.804688 -26.250000 23.115234 -27.626953 25.869141 -30.380859C28.623047 -33.134766 30.000000 -36.445312 30.000000 -40.312500C30.000000 -44.179688 28.623047 -47.490234 25.869141 -50.244141C23.115234 -52.998047 19.804688 -54.375000 15.937500 -54.375000C12.070312 -54.375000 8.759766 -52.998047 6.005859 -50.244141ZM22.500000 -34.687500C22.500000 -34.570312 22.480469 -34.453125 22.441406 -34.335938C22.324219 -34.101562 22.148438 -33.925781 21.914062 -33.808594C21.796875 -33.769531 21.679688 -33.750000 21.562500 -33.750000L13.593750 -33.750000C13.359375 -33.750000 13.144531 -33.837891 12.949219 -34.013672C12.753906 -34.189453 12.656250 -34.414062 12.656250 -34.687500C12.656250 -34.960938 12.753906 -35.185547 12.949219 -35.361328C13.144531 -35.537109 13.359375 -35.625000 13.593750 -35.625000L19.277344 -35.625000L8.964844 -45.937500C8.535156 -46.406250 8.535156 -46.855469 8.964844 -47.285156C9.394531 -47.714844 9.843750 -47.714844 10.312500 -47.285156L20.625000 -36.972656L20.625000 -42.656250C20.625000 -42.890625 20.712891 -43.105469 20.888672 -43.300781C21.064453 -43.496094 21.289062 -43.593750 21.562500 -43.593750C21.835938 -43.593750 22.060547 -43.496094 22.236328 -43.300781C22.412109 -43.105469 22.500000 -42.890625 22.500000 -42.656250ZM22.500000 -34.687500"></path></svg>