<svg width="28.125000" height="28.125000" viewBox="1.875000 -54.375000 28.125000 28.125000" xmlns="http://www.w3.org/2000/svg"><path d="M15.937500 -54.375000C12.070312 -54.375000 8.759766 -52.998047 6.005859 -50.244141C3.251953 -47.490234 1.875000 -44.179688 1.875000 -40.312500C1.875000 -36.445312 3.251953 -33.134766 6.005859 -30.380859C8.759766 -27.626953 12.070312 -26.250000 15.937500 -26.250000C19.804688 -26.250000 23.115234 -27.626953 25.869141 -30.380859C28.623047 -33.134766 30.000000 -36.445312 30.000000 -40.312500C30.000000 -44.179688 28.623047 -47.490234 25.869141 -50.244141C23.115234 -52.998047 19.804688 -54.375000 15.937500 -54.375000ZM22.939453 -33.925781C22.490234 -33.496094 22.031250 -33.496094 21.562500 -33.925781L15.996094 -38.906250L10.371094 -33.925781C9.902344 -33.496094 9.453125 -33.496094 9.023438 -33.925781C8.593750 -34.355469 8.593750 -34.804688 9.023438 -35.273438L15.292969 -40.839844C15.488281 -40.996094 15.722656 -41.074219 15.996094 -41.074219C16.230469 -41.074219 16.445312 -40.996094 16.640625 -40.839844L22.910156 -35.273438C23.378906 -34.804688 23.388672 -34.355469 22.939453 -33.925781ZM22.939453 -40.634766C22.490234 -40.185547 22.031250 -40.195312 21.562500 -40.664062L15.996094 -45.644531L10.371094 -40.664062C9.902344 -40.195312 9.453125 -40.185547 9.023438 -40.634766C8.593750 -41.083984 8.593750 -41.542969 9.023438 -42.011719L15.292969 -47.519531C15.488281 -47.714844 15.722656 -47.812500 15.996094 -47.812500C16.230469 -47.812500 16.445312 -47.714844 16.640625 -47.519531L22.910156 -42.011719C23.378906 -41.542969 23.388672 -41.083984 22.939453 -40.634766ZM22.939453 -40.634766"></path></svg>