<svg width="28.007812" height="28.007812" viewBox="1.992188 -54.140625 28.007812 28.007812" xmlns="http://www.w3.org/2000/svg"><path d="M15.996094 -54.140625C12.128906 -54.140625 8.828125 -52.773438 6.093750 -50.039062C3.359375 -47.304688 1.992188 -44.003906 1.992188 -40.136719C1.992188 -36.269531 3.359375 -32.968750 6.093750 -30.234375C8.828125 -27.500000 12.128906 -26.132812 15.996094 -26.132812C19.863281 -26.132812 23.164062 -27.500000 25.898438 -30.234375C28.632812 -32.968750 30.000000 -36.269531 30.000000 -40.136719C30.000000 -44.003906 28.632812 -47.304688 25.898438 -50.039062C23.164062 -52.773438 19.863281 -54.140625 15.996094 -54.140625ZM22.851562 -38.496094L16.582031 -32.988281C16.386719 -32.792969 16.162109 -32.695312 15.908203 -32.695312C15.654297 -32.695312 15.429688 -32.792969 15.234375 -32.988281L8.964844 -38.496094C8.496094 -38.964844 8.486328 -39.423828 8.935547 -39.873047C9.384766 -40.322266 9.843750 -40.312500 10.312500 -39.843750L15.878906 -34.863281L21.503906 -39.843750C21.972656 -40.312500 22.421875 -40.322266 22.851562 -39.873047C23.281250 -39.423828 23.281250 -38.964844 22.851562 -38.496094ZM22.851562 -45.234375L16.582031 -39.667969C16.386719 -39.511719 16.162109 -39.433594 15.908203 -39.433594C15.654297 -39.433594 15.429688 -39.511719 15.234375 -39.667969L8.964844 -45.234375C8.496094 -45.703125 8.486328 -46.152344 8.935547 -46.582031C9.384766 -47.011719 9.843750 -47.011719 10.312500 -46.582031L15.878906 -41.601562L21.503906 -46.582031C21.972656 -47.011719 22.421875 -47.011719 22.851562 -46.582031C23.281250 -46.152344 23.281250 -45.703125 22.851562 -45.234375ZM22.851562 -45.234375"></path></svg>