<svg width="28.007812" height="28.007812" viewBox="1.992188 -54.140625 28.007812 28.007812" xmlns="http://www.w3.org/2000/svg"><path d="M15.996094 -54.140625C12.128906 -54.140625 8.828125 -52.773438 6.093750 -50.039062C3.359375 -47.304688 1.992188 -44.003906 1.992188 -40.136719C1.992188 -36.269531 3.359375 -32.968750 6.093750 -30.234375C8.828125 -27.500000 12.128906 -26.132812 15.996094 -26.132812C19.863281 -26.132812 23.164062 -27.500000 25.898438 -30.234375C28.632812 -32.968750 30.000000 -36.269531 30.000000 -40.136719C30.000000 -44.003906 28.632812 -47.304688 25.898438 -50.039062C23.164062 -52.773438 19.863281 -54.140625 15.996094 -54.140625ZM15.615234 -33.281250C15.166016 -32.851562 14.707031 -32.851562 14.238281 -33.281250L8.730469 -39.550781C8.535156 -39.746094 8.437500 -39.970703 8.437500 -40.224609C8.437500 -40.478516 8.535156 -40.703125 8.730469 -40.898438L14.238281 -47.167969C14.707031 -47.636719 15.166016 -47.646484 15.615234 -47.197266C16.064453 -46.748047 16.054688 -46.289062 15.585938 -45.820312L10.605469 -40.253906L15.585938 -34.628906C16.054688 -34.160156 16.064453 -33.710938 15.615234 -33.281250ZM22.324219 -34.628906C22.753906 -34.160156 22.753906 -33.710938 22.324219 -33.281250C21.894531 -32.851562 21.445312 -32.851562 20.976562 -33.281250L15.410156 -39.550781C15.253906 -39.746094 15.175781 -39.970703 15.175781 -40.224609C15.175781 -40.478516 15.253906 -40.703125 15.410156 -40.898438L20.976562 -47.167969C21.445312 -47.636719 21.894531 -47.646484 22.324219 -47.197266C22.753906 -46.748047 22.753906 -46.289062 22.324219 -45.820312L17.343750 -40.253906ZM22.324219 -34.628906"></path></svg>