<svg width="28.125000" height="28.125000" viewBox="1.875000 -54.375000 28.125000 28.125000" xmlns="http://www.w3.org/2000/svg"><path d="M15.937500 -54.375000C12.070312 -54.375000 8.759766 -52.998047 6.005859 -50.244141C3.251953 -47.490234 1.875000 -44.179688 1.875000 -40.312500C1.875000 -36.445312 3.251953 -33.134766 6.005859 -30.380859C8.759766 -27.626953 12.070312 -26.250000 15.937500 -26.250000C19.804688 -26.250000 23.115234 -27.626953 25.869141 -30.380859C28.623047 -33.134766 30.000000 -36.445312 30.000000 -40.312500C30.000000 -44.179688 28.623047 -47.490234 25.869141 -50.244141C23.115234 -52.998047 19.804688 -54.375000 15.937500 -54.375000ZM22.265625 -37.851562C22.070312 -37.617188 21.855469 -37.500000 21.621094 -37.500000L10.195312 -37.500000C9.960938 -37.500000 9.765625 -37.597656 9.609375 -37.792969L9.609375 -37.851562C9.218750 -38.320312 9.218750 -38.808594 9.609375 -39.316406L15.351562 -46.523438C15.351562 -46.562500 15.351562 -46.582031 15.351562 -46.582031C15.507812 -46.777344 15.703125 -46.875000 15.937500 -46.875000C16.171875 -46.875000 16.367188 -46.777344 16.523438 -46.582031L22.265625 -39.316406C22.617188 -38.808594 22.617188 -38.320312 22.265625 -37.851562ZM22.265625 -37.851562"></path></svg>