<svg width="28.125000" height="28.125000" viewBox="1.875000 -54.375000 28.125000 28.125000" xmlns="http://www.w3.org/2000/svg"><path d="M15.937500 -54.375000C12.070312 -54.375000 8.759766 -52.998047 6.005859 -50.244141C3.251953 -47.490234 1.875000 -44.179688 1.875000 -40.312500C1.875000 -36.445312 3.251953 -33.134766 6.005859 -30.380859C8.759766 -27.626953 12.070312 -26.250000 15.937500 -26.250000C19.804688 -26.250000 23.115234 -27.626953 25.869141 -30.380859C28.623047 -33.134766 30.000000 -36.445312 30.000000 -40.312500C30.000000 -44.179688 28.623047 -47.490234 25.869141 -50.244141C23.115234 -52.998047 19.804688 -54.375000 15.937500 -54.375000ZM23.437500 -39.375000L8.437500 -39.375000C8.164062 -39.375000 7.939453 -39.462891 7.763672 -39.638672C7.587891 -39.814453 7.500000 -40.039062 7.500000 -40.312500C7.500000 -40.585938 7.587891 -40.810547 7.763672 -40.986328C7.939453 -41.162109 8.164062 -41.250000 8.437500 -41.250000L23.437500 -41.250000C23.710938 -41.250000 23.935547 -41.162109 24.111328 -40.986328C24.287109 -40.810547 24.375000 -40.585938 24.375000 -40.312500C24.375000 -40.039062 24.287109 -39.814453 24.111328 -39.638672C23.935547 -39.462891 23.710938 -39.375000 23.437500 -39.375000ZM23.437500 -39.375000"></path></svg>