<svg width="28.125000" height="28.125000" viewBox="1.875000 -54.375000 28.125000 28.125000" xmlns="http://www.w3.org/2000/svg"><path d="M28.125000 -54.375000L3.750000 -54.375000C3.242188 -54.375000 2.802734 -54.189453 2.431641 -53.818359C2.060547 -53.447266 1.875000 -53.007812 1.875000 -52.500000L1.875000 -28.125000C1.875000 -27.617188 2.060547 -27.177734 2.431641 -26.806641C2.802734 -26.435547 3.242188 -26.250000 3.750000 -26.250000L28.125000 -26.250000C28.632812 -26.250000 29.072266 -26.435547 29.443359 -26.806641C29.814453 -27.177734 30.000000 -27.617188 30.000000 -28.125000L30.000000 -52.500000C30.000000 -53.007812 29.814453 -53.447266 29.443359 -53.818359C29.072266 -54.189453 28.632812 -54.375000 28.125000 -54.375000ZM23.437500 -33.750000L8.437500 -33.750000C8.164062 -33.750000 7.939453 -33.837891 7.763672 -34.013672C7.587891 -34.189453 7.500000 -34.414062 7.500000 -34.687500C7.500000 -34.960938 7.587891 -35.185547 7.763672 -35.361328C7.939453 -35.537109 8.164062 -35.625000 8.437500 -35.625000L23.437500 -35.625000C23.710938 -35.625000 23.935547 -35.537109 24.111328 -35.361328C24.287109 -35.185547 24.375000 -34.960938 24.375000 -34.687500C24.375000 -34.414062 24.287109 -34.189453 24.111328 -34.013672C23.935547 -33.837891 23.710938 -33.750000 23.437500 -33.750000ZM23.437500 -39.375000L8.437500 -39.375000C8.164062 -39.375000 7.939453 -39.462891 7.763672 -39.638672C7.587891 -39.814453 7.500000 -40.039062 7.500000 -40.312500C7.500000 -40.585938 7.587891 -40.810547 7.763672 -40.986328C7.939453 -41.162109 8.164062 -41.250000 8.437500 -41.250000L23.437500 -41.250000C23.710938 -41.250000 23.935547 -41.162109 24.111328 -40.986328C24.287109 -40.810547 24.375000 -40.585938 24.375000 -40.312500C24.375000 -40.039062 24.287109 -39.814453 24.111328 -39.638672C23.935547 -39.462891 23.710938 -39.375000 23.437500 -39.375000ZM23.437500 -45.000000L8.437500 -45.000000C8.164062 -45.000000 7.939453 -45.087891 7.763672 -45.263672C7.587891 -45.439453 7.500000 -45.664062 7.500000 -45.937500C7.500000 -46.210938 7.587891 -46.435547 7.763672 -46.611328C7.939453 -46.787109 8.164062 -46.875000 8.437500 -46.875000L23.437500 -46.875000C23.710938 -46.875000 23.935547 -46.787109 24.111328 -46.611328C24.287109 -46.435547 24.375000 -46.210938 24.375000 -45.937500C24.375000 -45.664062 24.287109 -45.439453 24.111328 -45.263672C23.935547 -45.087891 23.710938 -45.000000 23.437500 -45.000000ZM23.437500 -45.000000"></path></svg>