<svg width="26.308594" height="30.000000" viewBox="1.875000 -58.125000 26.308594 30.000000" xmlns="http://www.w3.org/2000/svg"><path d="M3.750000 -28.125000L26.308594 -28.125000C26.855469 -28.125000 27.304688 -28.310547 27.656250 -28.681641C28.007812 -29.052734 28.183594 -29.492188 28.183594 -30.000000L28.183594 -56.250000C28.183594 -56.757812 28.007812 -57.197266 27.656250 -57.568359C27.304688 -57.939453 26.855469 -58.125000 26.308594 -58.125000L3.750000 -58.125000C3.242188 -58.125000 2.802734 -57.939453 2.431641 -57.568359C2.060547 -57.197266 1.875000 -56.757812 1.875000 -56.250000L1.875000 -30.000000C1.875000 -29.492188 2.060547 -29.052734 2.431641 -28.681641C2.802734 -28.310547 3.242188 -28.125000 3.750000 -28.125000ZM14.062500 -52.500000L21.621094 -52.500000C21.894531 -52.500000 22.119141 -52.412109 22.294922 -52.236328C22.470703 -52.060547 22.558594 -51.835938 22.558594 -51.562500C22.558594 -51.289062 22.470703 -51.064453 22.294922 -50.888672C22.119141 -50.712891 21.894531 -50.625000 21.621094 -50.625000L14.062500 -50.625000C13.789062 -50.625000 13.564453 -50.712891 13.388672 -50.888672C13.212891 -51.064453 13.125000 -51.289062 13.125000 -51.562500C13.125000 -51.835938 13.212891 -52.060547 13.388672 -52.236328C13.564453 -52.412109 13.789062 -52.500000 14.062500 -52.500000ZM8.437500 -46.875000L21.621094 -46.875000C21.894531 -46.875000 22.119141 -46.787109 22.294922 -46.611328C22.470703 -46.435547 22.558594 -46.210938 22.558594 -45.937500C22.558594 -45.664062 22.470703 -45.439453 22.294922 -45.263672C22.119141 -45.087891 21.894531 -45.000000 21.621094 -45.000000L8.437500 -45.000000C8.164062 -45.000000 7.939453 -45.087891 7.763672 -45.263672C7.587891 -45.439453 7.500000 -45.664062 7.500000 -45.937500C7.500000 -46.210938 7.587891 -46.435547 7.763672 -46.611328C7.939453 -46.787109 8.164062 -46.875000 8.437500 -46.875000ZM8.437500 -41.250000L21.621094 -41.250000C21.894531 -41.250000 22.119141 -41.162109 22.294922 -40.986328C22.470703 -40.810547 22.558594 -40.585938 22.558594 -40.312500C22.558594 -40.039062 22.470703 -39.814453 22.294922 -39.638672C22.119141 -39.462891 21.894531 -39.375000 21.621094 -39.375000L8.437500 -39.375000C8.164062 -39.375000 7.939453 -39.462891 7.763672 -39.638672C7.587891 -39.814453 7.500000 -40.039062 7.500000 -40.312500C7.500000 -40.585938 7.587891 -40.810547 7.763672 -40.986328C7.939453 -41.162109 8.164062 -41.250000 8.437500 -41.250000ZM8.437500 -35.625000L21.621094 -35.625000C21.894531 -35.625000 22.119141 -35.537109 22.294922 -35.361328C22.470703 -35.185547 22.558594 -34.960938 22.558594 -34.687500C22.558594 -34.414062 22.470703 -34.189453 22.294922 -34.013672C22.119141 -33.837891 21.894531 -33.750000 21.621094 -33.750000L8.437500 -33.750000C8.164062 -33.750000 7.939453 -33.837891 7.763672 -34.013672C7.587891 -34.189453 7.500000 -34.414062 7.500000 -34.687500C7.500000 -34.960938 7.587891 -35.185547 7.763672 -35.361328C7.939453 -35.537109 8.164062 -35.625000 8.437500 -35.625000ZM8.437500 -35.625000"></path></svg>