<svg width="30.000000" height="30.000000" viewBox="0.000000 -58.125000 30.000000 30.000000" xmlns="http://www.w3.org/2000/svg"><path d="M15.000000 -28.125000C19.140625 -28.125000 22.675781 -29.589844 25.605469 -32.519531C28.535156 -35.449219 30.000000 -38.984375 30.000000 -43.125000C30.000000 -47.265625 28.535156 -50.800781 25.605469 -53.730469C22.675781 -56.660156 19.140625 -58.125000 15.000000 -58.125000C10.859375 -58.125000 7.324219 -56.660156 4.394531 -53.730469C1.464844 -50.800781 0.000000 -47.265625 0.000000 -43.125000C0.000000 -38.984375 1.464844 -35.449219 4.394531 -32.519531C7.324219 -29.589844 10.859375 -28.125000 15.000000 -28.125000ZM16.875000 -41.250000C16.875000 -40.742188 16.689453 -40.302734 16.318359 -39.931641C15.947266 -39.560547 15.507812 -39.375000 15.000000 -39.375000C14.492188 -39.375000 14.052734 -39.560547 13.681641 -39.931641C13.310547 -40.302734 13.125000 -40.742188 13.125000 -41.250000L13.125000 -50.625000C13.125000 -51.132812 13.310547 -51.572266 13.681641 -51.943359C14.052734 -52.314453 14.492188 -52.500000 15.000000 -52.500000C15.507812 -52.500000 15.947266 -52.314453 16.318359 -51.943359C16.689453 -51.572266 16.875000 -51.132812 16.875000 -50.625000ZM15.000000 -37.558594C15.507812 -37.558594 15.947266 -37.373047 16.318359 -37.001953C16.689453 -36.630859 16.875000 -36.181641 16.875000 -35.654297C16.875000 -35.126953 16.689453 -34.687500 16.318359 -34.335938C15.947266 -33.984375 15.507812 -33.808594 15.000000 -33.808594C14.492188 -33.808594 14.052734 -33.984375 13.681641 -34.335938C13.310547 -34.687500 13.125000 -35.126953 13.125000 -35.654297C13.125000 -36.181641 13.310547 -36.630859 13.681641 -37.001953C14.052734 -37.373047 14.492188 -37.558594 15.000000 -37.558594ZM15.000000 -37.558594"></path></svg>