<svg width="30.000000" height="30.000000" viewBox="0.000000 -58.125000 30.000000 30.000000" xmlns="http://www.w3.org/2000/svg"><path d="M21.738281 -57.597656C21.386719 -57.949219 20.957031 -58.125000 20.449219 -58.125000L9.550781 -58.125000C9.042969 -58.125000 8.613281 -57.949219 8.261719 -57.597656L0.527344 -49.863281C0.175781 -49.511719 0.000000 -49.082031 0.000000 -48.574219L0.000000 -37.675781C0.000000 -37.167969 0.175781 -36.738281 0.527344 -36.386719L8.261719 -28.652344C8.613281 -28.300781 9.042969 -28.125000 9.550781 -28.125000L20.449219 -28.125000C20.957031 -28.125000 21.386719 -28.300781 21.738281 -28.652344L29.472656 -36.386719C29.824219 -36.738281 30.000000 -37.167969 30.000000 -37.675781L30.000000 -48.574219C30.000000 -49.082031 29.824219 -49.511719 29.472656 -49.863281ZM15.000000 -39.375000C14.492188 -39.375000 14.052734 -39.560547 13.681641 -39.931641C13.310547 -40.302734 13.125000 -40.742188 13.125000 -41.250000L13.125000 -52.500000C13.125000 -53.007812 13.310547 -53.447266 13.681641 -53.818359C14.052734 -54.189453 14.492188 -54.375000 15.000000 -54.375000C15.507812 -54.375000 15.947266 -54.189453 16.318359 -53.818359C16.689453 -53.447266 16.875000 -53.007812 16.875000 -52.500000L16.875000 -41.250000C16.875000 -40.742188 16.689453 -40.302734 16.318359 -39.931641C15.947266 -39.560547 15.507812 -39.375000 15.000000 -39.375000ZM16.875000 -33.750000C16.875000 -33.242188 16.689453 -32.802734 16.318359 -32.431641C15.947266 -32.060547 15.507812 -31.875000 15.000000 -31.875000C14.492188 -31.875000 14.052734 -32.060547 13.681641 -32.431641C13.310547 -32.802734 13.125000 -33.242188 13.125000 -33.750000C13.125000 -34.257812 13.310547 -34.697266 13.681641 -35.068359C14.052734 -35.439453 14.492188 -35.625000 15.000000 -35.625000C15.507812 -35.625000 15.947266 -35.439453 16.318359 -35.068359C16.689453 -34.697266 16.875000 -34.257812 16.875000 -33.750000ZM16.875000 -33.750000"></path></svg>