<svg width="30.000000" height="22.500000" viewBox="0.000000 -46.875000 30.000000 22.500000" xmlns="http://www.w3.org/2000/svg"><path d="M24.375000 -35.625000C24.335938 -35.625000 24.296875 -35.625000 24.257812 -35.625000C24.218750 -35.625000 24.199219 -35.625000 24.199219 -35.625000C24.316406 -36.250000 24.375000 -36.875000 24.375000 -37.500000C24.375000 -40.078125 23.457031 -42.285156 21.621094 -44.121094C19.785156 -45.957031 17.578125 -46.875000 15.000000 -46.875000C12.421875 -46.875000 10.214844 -45.957031 8.378906 -44.121094C6.542969 -42.285156 5.625000 -40.078125 5.625000 -37.500000C5.625000 -37.500000 5.625000 -37.490234 5.625000 -37.470703C5.625000 -37.451172 5.625000 -37.421875 5.625000 -37.382812C4.023438 -37.187500 2.685547 -36.474609 1.611328 -35.244141C0.537109 -34.013672 0.000000 -32.578125 0.000000 -30.937500C0.000000 -29.296875 0.537109 -27.871094 1.611328 -26.660156C2.685547 -25.449219 4.023438 -24.726562 5.625000 -24.492188L5.625000 -24.375000L24.375000 -24.375000C25.937500 -24.375000 27.265625 -24.921875 28.359375 -26.015625C29.453125 -27.109375 30.000000 -28.437500 30.000000 -30.000000C30.000000 -31.562500 29.453125 -32.890625 28.359375 -33.984375C27.265625 -35.078125 25.937500 -35.625000 24.375000 -35.625000ZM24.375000 -35.625000"></path></svg>