<svg width="28.125000" height="28.125000" viewBox="0.058594 -54.375000 28.125000 28.125000" xmlns="http://www.w3.org/2000/svg"><path d="M27.304688 -54.375000L27.246094 -54.375000L27.187500 -54.375000L15.410156 -54.375000C15.097656 -54.335938 14.765625 -54.160156 14.414062 -53.847656L0.585938 -40.019531C0.234375 -39.667969 0.058594 -39.228516 0.058594 -38.701172C0.058594 -38.173828 0.234375 -37.734375 0.585938 -37.382812L11.191406 -26.777344C11.542969 -26.425781 11.982422 -26.250000 12.509766 -26.250000C13.037109 -26.250000 13.476562 -26.425781 13.828125 -26.777344L27.656250 -40.605469C28.007812 -40.957031 28.183594 -41.289062 28.183594 -41.601562L28.183594 -53.437500C28.183594 -53.710938 28.105469 -53.935547 27.949219 -54.111328C27.792969 -54.287109 27.578125 -54.375000 27.304688 -54.375000ZM25.371094 -50.625000C25.097656 -50.625000 24.873047 -50.712891 24.697266 -50.888672C24.521484 -51.064453 24.433594 -51.289062 24.433594 -51.562500C24.433594 -51.835938 24.521484 -52.060547 24.697266 -52.236328C24.873047 -52.412109 25.097656 -52.500000 25.371094 -52.500000C25.644531 -52.500000 25.869141 -52.412109 26.044922 -52.236328C26.220703 -52.060547 26.308594 -51.835938 26.308594 -51.562500C26.308594 -51.289062 26.220703 -51.064453 26.044922 -50.888672C25.869141 -50.712891 25.644531 -50.625000 25.371094 -50.625000ZM25.371094 -50.625000"></path></svg>