<svg width="18.750000" height="30.000000" viewBox="5.625000 -58.125000 18.750000 30.000000" xmlns="http://www.w3.org/2000/svg"><path d="M13.125000 -33.925781L13.125000 -30.000000L10.312500 -30.000000C10.039062 -30.000000 9.814453 -29.912109 9.638672 -29.736328C9.462891 -29.560547 9.375000 -29.335938 9.375000 -29.062500C9.375000 -28.789062 9.462891 -28.564453 9.638672 -28.388672C9.814453 -28.212891 10.039062 -28.125000 10.312500 -28.125000L15.000000 -28.125000L19.687500 -28.125000C19.960938 -28.125000 20.185547 -28.212891 20.361328 -28.388672C20.537109 -28.564453 20.625000 -28.789062 20.625000 -29.062500C20.625000 -29.335938 20.537109 -29.560547 20.361328 -29.736328C20.185547 -29.912109 19.960938 -30.000000 19.687500 -30.000000L16.875000 -30.000000L16.875000 -33.925781C18.984375 -34.355469 20.761719 -35.371094 22.207031 -36.972656C23.652344 -38.574219 24.375000 -40.625000 24.375000 -43.125000L24.375000 -45.937500C24.375000 -46.210938 24.287109 -46.435547 24.111328 -46.611328C23.935547 -46.787109 23.710938 -46.875000 23.437500 -46.875000C23.164062 -46.875000 22.939453 -46.787109 22.763672 -46.611328C22.587891 -46.435547 22.500000 -46.210938 22.500000 -45.937500L22.500000 -43.125000C22.500000 -40.781250 21.748047 -38.945312 20.244141 -37.617188C18.740234 -36.289062 16.992188 -35.625000 15.000000 -35.625000C13.007812 -35.625000 11.259766 -36.269531 9.755859 -37.558594C8.251953 -38.847656 7.500000 -40.703125 7.500000 -43.125000L7.500000 -45.937500C7.500000 -46.210938 7.412109 -46.435547 7.236328 -46.611328C7.060547 -46.787109 6.835938 -46.875000 6.562500 -46.875000C6.289062 -46.875000 6.064453 -46.787109 5.888672 -46.611328C5.712891 -46.435547 5.625000 -46.210938 5.625000 -45.937500L5.625000 -43.125000C5.625000 -40.585938 6.337891 -38.515625 7.763672 -36.914062C9.189453 -35.312500 10.976562 -34.316406 13.125000 -33.925781ZM15.000000 -39.375000C16.054688 -39.375000 16.943359 -39.736328 17.666016 -40.458984C18.388672 -41.181641 18.750000 -42.070312 18.750000 -43.125000L18.750000 -54.375000C18.750000 -55.429688 18.388672 -56.318359 17.666016 -57.041016C16.943359 -57.763672 16.054688 -58.125000 15.000000 -58.125000C13.945312 -58.125000 13.056641 -57.763672 12.333984 -57.041016C11.611328 -56.318359 11.250000 -55.429688 11.250000 -54.375000L11.250000 -43.125000C11.250000 -42.070312 11.611328 -41.181641 12.333984 -40.458984C13.056641 -39.736328 13.945312 -39.375000 15.000000 -39.375000ZM15.000000 -39.375000"></path></svg>