<svg width="30.000000" height="30.000000" viewBox="0.000000 -58.125000 30.000000 30.000000" xmlns="http://www.w3.org/2000/svg"><path d="M15.000000 -58.125000C10.859375 -58.125000 7.324219 -56.660156 4.394531 -53.730469C1.464844 -50.800781 0.000000 -47.265625 0.000000 -43.125000C0.000000 -38.984375 1.464844 -35.449219 4.394531 -32.519531C7.324219 -29.589844 10.859375 -28.125000 15.000000 -28.125000C19.140625 -28.125000 22.675781 -29.589844 25.605469 -32.519531C28.535156 -35.449219 30.000000 -38.984375 30.000000 -43.125000C30.000000 -47.265625 28.535156 -50.800781 25.605469 -53.730469C22.675781 -56.660156 19.140625 -58.125000 15.000000 -58.125000ZM22.382812 -49.218750L20.156250 -45.703125L18.750000 -43.359375C18.750000 -43.359375 18.750000 -43.330078 18.750000 -43.271484C18.750000 -43.212891 18.750000 -43.164062 18.750000 -43.125000C18.750000 -42.070312 18.388672 -41.181641 17.666016 -40.458984C16.943359 -39.736328 16.054688 -39.375000 15.000000 -39.375000C14.960938 -39.375000 14.912109 -39.375000 14.853516 -39.375000C14.794922 -39.375000 14.765625 -39.375000 14.765625 -39.375000L12.421875 -37.968750L8.906250 -35.742188C8.789062 -35.664062 8.632812 -35.625000 8.437500 -35.625000C8.164062 -35.625000 7.949219 -35.722656 7.792969 -35.917969C7.441406 -36.269531 7.382812 -36.640625 7.617188 -37.031250L9.843750 -40.546875L11.250000 -42.890625C11.250000 -42.890625 11.250000 -42.919922 11.250000 -42.978516C11.250000 -43.037109 11.250000 -43.085938 11.250000 -43.125000C11.250000 -44.179688 11.611328 -45.068359 12.333984 -45.791016C13.056641 -46.513672 13.945312 -46.875000 15.000000 -46.875000C15.039062 -46.875000 15.087891 -46.875000 15.146484 -46.875000C15.205078 -46.875000 15.234375 -46.875000 15.234375 -46.875000L17.578125 -48.281250L21.093750 -50.507812C21.484375 -50.742188 21.855469 -50.683594 22.207031 -50.332031C22.558594 -49.980469 22.617188 -49.609375 22.382812 -49.218750ZM13.125000 -43.125000C13.125000 -42.617188 13.310547 -42.177734 13.681641 -41.806641C14.052734 -41.435547 14.492188 -41.250000 15.000000 -41.250000C15.507812 -41.250000 15.947266 -41.435547 16.318359 -41.806641C16.689453 -42.177734 16.875000 -42.617188 16.875000 -43.125000C16.875000 -43.632812 16.689453 -44.072266 16.318359 -44.443359C15.947266 -44.814453 15.507812 -45.000000 15.000000 -45.000000C14.492188 -45.000000 14.052734 -44.814453 13.681641 -44.443359C13.310547 -44.072266 13.125000 -43.632812 13.125000 -43.125000ZM13.125000 -43.125000"></path></svg>