<svg width="20.976562" height="29.941406" viewBox="4.511719 -58.066406 20.976562 29.941406" xmlns="http://www.w3.org/2000/svg"><path d="M14.296875 -28.593750C14.453125 -28.437500 14.609375 -28.300781 14.765625 -28.183594C14.882812 -28.144531 14.980469 -28.125000 15.058594 -28.125000C15.136719 -28.125000 15.234375 -28.144531 15.351562 -28.183594C15.546875 -28.300781 15.703125 -28.437500 15.820312 -28.593750C16.054688 -28.828125 16.367188 -29.179688 16.757812 -29.648438C17.148438 -30.117188 17.861328 -31.044922 18.896484 -32.431641C19.931641 -33.818359 20.859375 -35.185547 21.679688 -36.533203C22.500000 -37.880859 23.291016 -39.453125 24.052734 -41.250000C24.814453 -43.046875 25.273438 -44.726562 25.429688 -46.289062C25.468750 -46.757812 25.488281 -47.187500 25.488281 -47.578125C25.488281 -50.468750 24.462891 -52.939453 22.412109 -54.990234C20.361328 -57.041016 17.890625 -58.066406 15.000000 -58.066406C12.109375 -58.066406 9.638672 -57.041016 7.587891 -54.990234C5.537109 -52.939453 4.511719 -50.468750 4.511719 -47.578125C4.511719 -47.148438 4.531250 -46.699219 4.570312 -46.230469C4.726562 -44.707031 5.175781 -43.056641 5.917969 -41.279297C6.660156 -39.501953 7.490234 -37.890625 8.408203 -36.445312C9.326172 -35.000000 10.234375 -33.671875 11.132812 -32.460938C12.031250 -31.250000 12.783203 -30.302734 13.388672 -29.619141C13.994141 -28.935547 14.296875 -28.593750 14.296875 -28.593750ZM15.000000 -54.316406C16.875000 -54.316406 18.466797 -53.652344 19.775391 -52.324219C21.083984 -50.996094 21.738281 -49.404297 21.738281 -47.548828C21.738281 -45.693359 21.083984 -44.101562 19.775391 -42.773438C18.466797 -41.445312 16.875000 -40.781250 15.000000 -40.781250C13.125000 -40.781250 11.533203 -41.445312 10.224609 -42.773438C8.916016 -44.101562 8.261719 -45.693359 8.261719 -47.548828C8.261719 -49.404297 8.916016 -50.996094 10.224609 -52.324219C11.533203 -53.652344 13.125000 -54.316406 15.000000 -54.316406ZM15.000000 -54.316406"></path></svg>