<svg width="30.000000" height="24.375000" viewBox="0.000000 -46.875000 30.000000 24.375000" xmlns="http://www.w3.org/2000/svg"><path d="M28.125000 -43.125000L20.625000 -43.125000L20.625000 -45.000000C20.625000 -45.507812 20.439453 -45.947266 20.068359 -46.318359C19.697266 -46.689453 19.257812 -46.875000 18.750000 -46.875000L11.250000 -46.875000C10.742188 -46.875000 10.302734 -46.689453 9.931641 -46.318359C9.560547 -45.947266 9.375000 -45.507812 9.375000 -45.000000L9.375000 -43.125000L1.875000 -43.125000C1.367188 -43.125000 0.927734 -42.939453 0.556641 -42.568359C0.185547 -42.197266 0.000000 -41.757812 0.000000 -41.250000L0.000000 -37.500000L11.250000 -37.500000L18.750000 -37.500000L30.000000 -37.500000L30.000000 -41.250000C30.000000 -41.757812 29.814453 -42.197266 29.443359 -42.568359C29.072266 -42.939453 28.632812 -43.125000 28.125000 -43.125000ZM11.250000 -45.000000L18.750000 -45.000000L18.750000 -43.125000L11.250000 -43.125000ZM11.250000 -33.750000L18.750000 -33.750000L18.750000 -35.625000L11.250000 -35.625000ZM20.625000 -33.750000C20.625000 -33.242188 20.439453 -32.802734 20.068359 -32.431641C19.697266 -32.060547 19.257812 -31.875000 18.750000 -31.875000L11.250000 -31.875000C10.742188 -31.875000 10.302734 -32.060547 9.931641 -32.431641C9.560547 -32.802734 9.375000 -33.242188 9.375000 -33.750000L9.375000 -35.625000L0.000000 -35.625000L0.000000 -24.375000C0.000000 -23.867188 0.185547 -23.427734 0.556641 -23.056641C0.927734 -22.685547 1.367188 -22.500000 1.875000 -22.500000L28.125000 -22.500000C28.632812 -22.500000 29.072266 -22.685547 29.443359 -23.056641C29.814453 -23.427734 30.000000 -23.867188 30.000000 -24.375000L30.000000 -35.625000L20.625000 -35.625000ZM20.625000 -33.750000"></path></svg>