<svg width="28.125000" height="30.000000" viewBox="0.000000 -58.125000 28.125000 30.000000" xmlns="http://www.w3.org/2000/svg"><path d="M4.746094 -28.125000L5.566406 -28.125000L16.816406 -28.125000L18.750000 -28.125000L19.394531 -28.125000L22.441406 -28.125000C22.949219 -28.125000 23.388672 -28.310547 23.759766 -28.681641C24.130859 -29.052734 24.316406 -29.492188 24.316406 -30.000000L24.316406 -34.042969L24.316406 -34.687500L24.316406 -49.687500C24.316406 -49.960938 24.228516 -50.185547 24.052734 -50.361328C23.876953 -50.537109 23.652344 -50.625000 23.378906 -50.625000L7.500000 -50.625000C7.500000 -50.625000 7.421875 -50.625000 7.265625 -50.625000L4.746094 -50.625000C3.925781 -50.625000 3.242188 -50.888672 2.695312 -51.416016C2.148438 -51.943359 1.875000 -52.597656 1.875000 -53.378906C1.875000 -54.199219 2.148438 -54.882812 2.695312 -55.429688C3.242188 -55.976562 3.906250 -56.250000 4.687500 -56.250000L8.437500 -56.250000L18.750000 -56.250000L26.250000 -56.250000L26.250000 -34.687500C26.250000 -34.414062 26.337891 -34.189453 26.513672 -34.013672C26.689453 -33.837891 26.904297 -33.750000 27.158203 -33.750000C27.412109 -33.750000 27.636719 -33.837891 27.832031 -34.013672C28.027344 -34.189453 28.125000 -34.414062 28.125000 -34.687500L28.125000 -57.187500C28.125000 -57.460938 28.027344 -57.685547 27.832031 -57.861328C27.636719 -58.037109 27.402344 -58.125000 27.128906 -58.125000L20.625000 -58.125000L8.437500 -58.125000L4.746094 -58.125000C3.457031 -58.125000 2.353516 -57.675781 1.435547 -56.777344C0.517578 -55.878906 0.039062 -54.785156 0.000000 -53.496094L0.000000 -49.570312L0.000000 -46.875000L0.000000 -36.621094L0.000000 -34.277344L0.000000 -32.871094C0.000000 -31.542969 0.458984 -30.419922 1.376953 -29.501953C2.294922 -28.583984 3.417969 -28.125000 4.746094 -28.125000ZM4.746094 -28.125000"></path></svg>