<svg width="30.000000" height="26.250000" viewBox="0.000000 -50.625000 30.000000 26.250000" xmlns="http://www.w3.org/2000/svg"><path d="M28.125000 -50.625000L1.875000 -50.625000C1.367188 -50.625000 0.927734 -50.439453 0.556641 -50.068359C0.185547 -49.697266 0.000000 -49.257812 0.000000 -48.750000L0.000000 -45.000000L30.000000 -45.000000L30.000000 -48.750000C30.000000 -49.257812 29.814453 -49.697266 29.443359 -50.068359C29.072266 -50.439453 28.632812 -50.625000 28.125000 -50.625000ZM1.875000 -26.250000C1.875000 -25.742188 2.060547 -25.302734 2.431641 -24.931641C2.802734 -24.560547 3.242188 -24.375000 3.750000 -24.375000L26.250000 -24.375000C26.757812 -24.375000 27.197266 -24.560547 27.568359 -24.931641C27.939453 -25.302734 28.125000 -25.742188 28.125000 -26.250000L28.125000 -43.125000L1.875000 -43.125000ZM11.250000 -39.375000L18.750000 -39.375000C19.257812 -39.375000 19.697266 -39.189453 20.068359 -38.818359C20.439453 -38.447266 20.625000 -38.007812 20.625000 -37.500000C20.625000 -36.992188 20.439453 -36.552734 20.068359 -36.181641C19.697266 -35.810547 19.257812 -35.625000 18.750000 -35.625000L11.250000 -35.625000C10.742188 -35.625000 10.302734 -35.810547 9.931641 -36.181641C9.560547 -36.552734 9.375000 -36.992188 9.375000 -37.500000C9.375000 -38.007812 9.560547 -38.447266 9.931641 -38.818359C10.302734 -39.189453 10.742188 -39.375000 11.250000 -39.375000ZM11.250000 -39.375000"></path></svg>