<svg width="27.519531" height="27.519531" viewBox="1.250000 -54.394531 27.519531 27.519531" xmlns="http://www.w3.org/2000/svg"><path d="M12.363281 -48.085938C12.324219 -48.867188 12.119141 -49.609375 11.748047 -50.312500C11.376953 -51.015625 10.986328 -51.591797 10.576172 -52.041016C10.166016 -52.490234 9.707031 -52.900391 9.199219 -53.271484C8.691406 -53.642578 8.330078 -53.896484 8.115234 -54.033203C7.900391 -54.169922 7.714844 -54.257812 7.558594 -54.296875C7.363281 -54.375000 7.187500 -54.394531 7.031250 -54.355469C6.093750 -54.199219 5.253906 -53.964844 4.511719 -53.652344C3.769531 -53.339844 3.212891 -53.027344 2.841797 -52.714844C2.470703 -52.402344 2.148438 -52.060547 1.875000 -51.689453C1.601562 -51.318359 1.435547 -51.064453 1.376953 -50.927734C1.318359 -50.791016 1.289062 -50.664062 1.289062 -50.546875C1.250000 -50.390625 1.250000 -50.214844 1.289062 -50.019531C2.109375 -47.519531 3.085938 -45.195312 4.218750 -43.046875C5.351562 -40.898438 6.464844 -39.101562 7.558594 -37.656250C8.652344 -36.210938 9.902344 -34.882812 11.308594 -33.671875C12.714844 -32.460938 13.925781 -31.523438 14.941406 -30.859375C15.957031 -30.195312 17.119141 -29.570312 18.427734 -28.984375C19.736328 -28.398438 20.693359 -28.007812 21.298828 -27.812500C21.904297 -27.617188 22.656250 -27.402344 23.554688 -27.167969C23.945312 -27.050781 24.199219 -26.972656 24.316406 -26.933594C24.394531 -26.894531 24.492188 -26.875000 24.609375 -26.875000C24.726562 -26.875000 24.843750 -26.914062 24.960938 -26.992188C25.078125 -27.031250 25.214844 -27.099609 25.371094 -27.197266C25.527344 -27.294922 25.791016 -27.500000 26.162109 -27.812500C26.533203 -28.125000 26.865234 -28.486328 27.158203 -28.896484C27.451172 -29.306641 27.753906 -29.863281 28.066406 -30.566406C28.378906 -31.269531 28.613281 -32.050781 28.769531 -32.910156C28.769531 -33.105469 28.730469 -33.300781 28.652344 -33.496094C28.613281 -33.574219 28.544922 -33.691406 28.447266 -33.847656C28.349609 -34.003906 28.134766 -34.267578 27.802734 -34.638672C27.470703 -35.009766 27.099609 -35.361328 26.689453 -35.693359C26.279297 -36.025391 25.732422 -36.367188 25.048828 -36.718750C24.365234 -37.070312 23.632812 -37.343750 22.851562 -37.539062C22.539062 -37.617188 22.246094 -37.558594 21.972656 -37.363281C20.214844 -35.839844 18.886719 -35.000000 17.988281 -34.843750C15.683594 -35.976562 13.730469 -37.500000 12.128906 -39.414062C10.527344 -41.328125 9.667969 -42.675781 9.550781 -43.457031C9.550781 -43.691406 9.804688 -44.208984 10.312500 -45.009766C10.820312 -45.810547 11.425781 -46.601562 12.128906 -47.382812C12.324219 -47.578125 12.402344 -47.812500 12.363281 -48.085938ZM12.363281 -48.085938"></path></svg>