<svg width="30.000000" height="24.375000" viewBox="0.058594 -49.687500 30.000000 24.375000" xmlns="http://www.w3.org/2000/svg"><path d="M29.238281 -49.218750C28.027344 -48.515625 26.718750 -48.027344 25.312500 -47.753906C24.101562 -49.042969 22.597656 -49.687500 20.800781 -49.687500C19.121094 -49.687500 17.675781 -49.082031 16.464844 -47.871094C15.253906 -46.660156 14.648438 -45.214844 14.648438 -43.535156C14.648438 -43.066406 14.707031 -42.597656 14.824219 -42.128906C12.324219 -42.246094 9.970703 -42.871094 7.763672 -44.003906C5.556641 -45.136719 3.691406 -46.660156 2.167969 -48.574219C1.582031 -47.636719 1.289062 -46.601562 1.289062 -45.468750C1.289062 -43.281250 2.207031 -41.582031 4.042969 -40.371094C3.066406 -40.371094 2.148438 -40.625000 1.289062 -41.132812L1.289062 -41.015625C1.289062 -39.570312 1.748047 -38.281250 2.666016 -37.148438C3.583984 -36.015625 4.765625 -35.292969 6.210938 -34.980469C5.664062 -34.863281 5.117188 -34.804688 4.570312 -34.804688C4.179688 -34.804688 3.789062 -34.843750 3.398438 -34.921875C3.828125 -33.671875 4.560547 -32.646484 5.595703 -31.845703C6.630859 -31.044922 7.812500 -30.644531 9.140625 -30.644531C6.914062 -28.886719 4.375000 -28.007812 1.523438 -28.007812C1.054688 -28.007812 0.566406 -28.027344 0.058594 -28.066406C2.949219 -26.230469 6.093750 -25.312500 9.492188 -25.312500C12.226562 -25.312500 14.726562 -25.839844 16.992188 -26.894531C19.257812 -27.949219 21.103516 -29.326172 22.529297 -31.025391C23.955078 -32.724609 25.058594 -34.599609 25.839844 -36.650391C26.621094 -38.701172 27.011719 -40.761719 27.011719 -42.832031C27.011719 -43.105469 27.011719 -43.359375 27.011719 -43.593750C28.222656 -44.492188 29.238281 -45.566406 30.058594 -46.816406C28.925781 -46.308594 27.753906 -45.976562 26.542969 -45.820312C27.871094 -46.640625 28.769531 -47.773438 29.238281 -49.218750ZM29.238281 -49.218750"></path></svg>