<svg width="26.367188" height="30.000000" viewBox="1.875000 -58.125000 26.367188 30.000000" xmlns="http://www.w3.org/2000/svg"><path d="M14.794922 -50.595703C15.517578 -51.318359 15.878906 -52.207031 15.878906 -53.261719C15.878906 -54.316406 15.517578 -55.205078 14.794922 -55.927734C14.072266 -56.650391 13.183594 -57.011719 12.128906 -57.011719C11.113281 -57.011719 10.234375 -56.650391 9.492188 -55.927734C8.750000 -55.205078 8.378906 -54.316406 8.378906 -53.261719C8.378906 -52.207031 8.750000 -51.318359 9.492188 -50.595703C10.234375 -49.873047 11.113281 -49.511719 12.128906 -49.511719C13.183594 -49.511719 14.072266 -49.873047 14.794922 -50.595703ZM18.134766 -49.804688C18.583984 -49.375000 19.101562 -49.023438 19.687500 -48.750000C20.273438 -48.476562 20.908203 -48.339844 21.591797 -48.339844C22.275391 -48.339844 22.910156 -48.476562 23.496094 -48.750000C24.082031 -49.023438 24.599609 -49.375000 25.048828 -49.804688C25.498047 -50.234375 25.849609 -50.742188 26.103516 -51.328125C26.357422 -51.914062 26.484375 -52.548828 26.484375 -53.232422C26.484375 -53.916016 26.357422 -54.550781 26.103516 -55.136719C25.849609 -55.722656 25.498047 -56.240234 25.048828 -56.689453C24.599609 -57.138672 24.082031 -57.490234 23.496094 -57.744141C22.910156 -57.998047 22.275391 -58.125000 21.591797 -58.125000C20.908203 -58.125000 20.273438 -57.998047 19.687500 -57.744141C19.101562 -57.490234 18.583984 -57.138672 18.134766 -56.689453C17.685547 -56.240234 17.333984 -55.722656 17.080078 -55.136719C16.826172 -54.550781 16.699219 -53.916016 16.699219 -53.232422C16.699219 -52.548828 16.826172 -51.914062 17.080078 -51.328125C17.333984 -50.742188 17.685547 -50.234375 18.134766 -49.804688ZM4.980469 -50.390625C5.761719 -50.390625 6.425781 -50.664062 6.972656 -51.210938C7.519531 -51.757812 7.792969 -52.441406 7.792969 -53.261719C7.792969 -54.003906 7.519531 -54.658203 6.972656 -55.224609C6.425781 -55.791016 5.761719 -56.074219 4.980469 -56.074219C4.199219 -56.074219 3.525391 -55.800781 2.958984 -55.253906C2.392578 -54.707031 2.109375 -54.042969 2.109375 -53.261719C2.109375 -52.441406 2.392578 -51.757812 2.958984 -51.210938C3.525391 -50.664062 4.199219 -50.390625 4.980469 -50.390625ZM26.308594 -44.501953C25.722656 -45.107422 25.019531 -45.585938 24.199219 -45.937500C23.378906 -46.289062 22.509766 -46.464844 21.591797 -46.464844C20.673828 -46.464844 19.814453 -46.289062 19.013672 -45.937500C18.212891 -45.585938 17.519531 -45.117188 16.933594 -44.531250C16.660156 -45.585938 16.083984 -46.464844 15.205078 -47.167969C14.326172 -47.871094 13.300781 -48.222656 12.128906 -48.222656C11.386719 -48.222656 10.683594 -48.066406 10.019531 -47.753906C9.355469 -47.441406 8.789062 -47.011719 8.320312 -46.464844C8.125000 -47.207031 7.724609 -47.822266 7.119141 -48.310547C6.513672 -48.798828 5.800781 -49.042969 4.980469 -49.042969C4.003906 -49.042969 3.183594 -48.710938 2.519531 -48.046875C2.089844 -47.617188 1.875000 -46.796875 1.875000 -45.585938L1.875000 -39.550781L6.796875 -39.550781L6.796875 -34.687500L15.058594 -34.687500L15.058594 -28.125000L28.242188 -28.125000L28.242188 -39.785156C28.242188 -40.761719 28.066406 -41.621094 27.714844 -42.363281C27.363281 -43.183594 26.894531 -43.896484 26.308594 -44.501953ZM26.308594 -44.501953"></path></svg>