<svg width="30.000000" height="30.000000" viewBox="0.000000 -58.125000 30.000000 30.000000" xmlns="http://www.w3.org/2000/svg"><path d="M28.066406 -46.875000L26.425781 -46.875000L26.367188 -46.875000C25.859375 -46.875000 25.410156 -47.060547 25.019531 -47.431641C24.628906 -47.802734 24.414062 -48.242188 24.375000 -48.750000C24.375000 -51.406250 23.437500 -53.632812 21.562500 -55.429688C19.687500 -57.226562 17.382812 -58.125000 14.648438 -58.125000L9.726562 -58.125000C7.070312 -58.125000 4.785156 -57.177734 2.871094 -55.283203C0.957031 -53.388672 0.000000 -51.113281 0.000000 -48.457031L0.000000 -37.792969C0.000000 -35.136719 0.957031 -32.861328 2.871094 -30.966797C4.785156 -29.072266 7.070312 -28.125000 9.726562 -28.125000L20.273438 -28.125000C22.968750 -28.125000 25.263672 -29.072266 27.158203 -30.966797C29.052734 -32.861328 30.000000 -35.136719 30.000000 -37.792969L30.000000 -44.648438C30.000000 -45.234375 29.804688 -45.751953 29.414062 -46.201172C29.023438 -46.650391 28.574219 -46.875000 28.066406 -46.875000ZM9.375000 -50.625000L15.000000 -50.625000C15.507812 -50.625000 15.947266 -50.439453 16.318359 -50.068359C16.689453 -49.697266 16.875000 -49.257812 16.875000 -48.750000C16.875000 -48.242188 16.689453 -47.802734 16.318359 -47.431641C15.947266 -47.060547 15.507812 -46.875000 15.000000 -46.875000L9.375000 -46.875000C8.867188 -46.875000 8.427734 -47.060547 8.056641 -47.431641C7.685547 -47.802734 7.500000 -48.242188 7.500000 -48.750000C7.500000 -49.257812 7.685547 -49.697266 8.056641 -50.068359C8.427734 -50.439453 8.867188 -50.625000 9.375000 -50.625000ZM20.625000 -35.625000L9.375000 -35.625000C8.867188 -35.625000 8.427734 -35.810547 8.056641 -36.181641C7.685547 -36.552734 7.500000 -36.992188 7.500000 -37.500000C7.500000 -38.007812 7.685547 -38.447266 8.056641 -38.818359C8.427734 -39.189453 8.867188 -39.375000 9.375000 -39.375000L20.625000 -39.375000C21.132812 -39.375000 21.572266 -39.189453 21.943359 -38.818359C22.314453 -38.447266 22.500000 -38.007812 22.500000 -37.500000C22.500000 -36.992188 22.314453 -36.552734 21.943359 -36.181641C21.572266 -35.810547 21.132812 -35.625000 20.625000 -35.625000ZM20.625000 -35.625000"></path></svg>