<svg width="30.000000" height="30.000000" viewBox="0.000000 -58.125000 30.000000 30.000000" xmlns="http://www.w3.org/2000/svg"><path d="M15.000000 -58.125000C10.859375 -58.125000 7.324219 -56.660156 4.394531 -53.730469C1.464844 -50.800781 0.000000 -47.265625 0.000000 -43.125000C0.000000 -38.984375 1.464844 -35.449219 4.394531 -32.519531C7.324219 -29.589844 10.859375 -28.125000 15.000000 -28.125000C19.140625 -28.125000 22.675781 -29.589844 25.605469 -32.519531C28.535156 -35.449219 30.000000 -38.984375 30.000000 -43.125000C30.000000 -47.265625 28.535156 -50.800781 25.605469 -53.730469C22.675781 -56.660156 19.140625 -58.125000 15.000000 -58.125000ZM24.375000 -34.453125C24.375000 -34.257812 24.306641 -34.091797 24.169922 -33.955078C24.033203 -33.818359 23.867188 -33.750000 23.671875 -33.750000L6.328125 -33.750000C6.132812 -33.750000 5.966797 -33.818359 5.830078 -33.955078C5.693359 -34.091797 5.625000 -34.257812 5.625000 -34.453125L5.625000 -51.796875C5.625000 -51.992188 5.693359 -52.158203 5.830078 -52.294922C5.966797 -52.431641 6.132812 -52.500000 6.328125 -52.500000L23.671875 -52.500000C23.867188 -52.500000 24.033203 -52.431641 24.169922 -52.294922C24.306641 -52.158203 24.375000 -51.992188 24.375000 -51.796875ZM11.250000 -43.125000C11.250000 -42.109375 11.621094 -41.230469 12.363281 -40.488281C13.105469 -39.746094 13.984375 -39.375000 15.000000 -39.375000C16.015625 -39.375000 16.894531 -39.746094 17.636719 -40.488281C18.378906 -41.230469 18.750000 -42.109375 18.750000 -43.125000C18.750000 -44.140625 18.378906 -45.019531 17.636719 -45.761719C16.894531 -46.503906 16.015625 -46.875000 15.000000 -46.875000C13.984375 -46.875000 13.105469 -46.503906 12.363281 -45.761719C11.621094 -45.019531 11.250000 -44.140625 11.250000 -43.125000ZM18.750000 -46.875000L22.500000 -46.875000L22.500000 -50.625000L18.750000 -50.625000ZM20.566406 -43.125000C20.566406 -41.601562 20.019531 -40.292969 18.925781 -39.199219C17.832031 -38.105469 16.523438 -37.558594 15.000000 -37.558594C13.476562 -37.558594 12.167969 -38.105469 11.074219 -39.199219C9.980469 -40.292969 9.433594 -41.601562 9.433594 -43.125000C9.433594 -43.359375 9.472656 -43.671875 9.550781 -44.062500L7.500000 -44.062500L7.500000 -35.625000L22.500000 -35.625000L22.500000 -44.062500L20.449219 -44.062500C20.527344 -43.671875 20.566406 -43.359375 20.566406 -43.125000ZM20.566406 -43.125000"></path></svg>