<svg width="30.000000" height="30.000000" viewBox="0.000000 -58.125000 30.000000 30.000000" xmlns="http://www.w3.org/2000/svg"><path d="M15.000000 -58.125000C10.859375 -58.125000 7.324219 -56.660156 4.394531 -53.730469C1.464844 -50.800781 0.000000 -47.265625 0.000000 -43.125000C0.000000 -38.984375 1.464844 -35.449219 4.394531 -32.519531C7.324219 -29.589844 10.859375 -28.125000 15.000000 -28.125000C19.140625 -28.125000 22.675781 -29.589844 25.605469 -32.519531C28.535156 -35.449219 30.000000 -38.984375 30.000000 -43.125000C30.000000 -47.265625 28.535156 -50.800781 25.605469 -53.730469C22.675781 -56.660156 19.140625 -58.125000 15.000000 -58.125000ZM23.906250 -47.226562C23.671875 -45.898438 23.183594 -44.560547 22.441406 -43.212891C21.699219 -41.865234 20.878906 -40.683594 19.980469 -39.667969C19.082031 -38.652344 18.261719 -37.812500 17.519531 -37.148438C16.777344 -36.484375 16.132812 -35.976562 15.585938 -35.625000C15.039062 -35.273438 14.501953 -35.175781 13.974609 -35.332031C13.447266 -35.488281 13.007812 -35.732422 12.656250 -36.064453C12.304688 -36.396484 12.011719 -36.796875 11.777344 -37.265625C11.582031 -37.656250 11.074219 -39.208984 10.253906 -41.923828C9.433594 -44.638672 8.925781 -46.113281 8.730469 -46.347656C8.535156 -46.503906 8.291016 -46.542969 7.998047 -46.464844C7.705078 -46.386719 7.421875 -46.250000 7.148438 -46.054688L6.738281 -45.761719L5.976562 -46.699219C6.210938 -46.972656 6.523438 -47.314453 6.914062 -47.724609C7.304688 -48.134766 7.978516 -48.720703 8.935547 -49.482422C9.892578 -50.244141 10.703125 -50.683594 11.367188 -50.800781C11.835938 -50.917969 12.236328 -50.859375 12.568359 -50.625000C12.900391 -50.390625 13.164062 -50.019531 13.359375 -49.511719C13.554688 -49.003906 13.710938 -48.505859 13.828125 -48.017578C13.945312 -47.529297 14.052734 -46.933594 14.150391 -46.230469C14.248047 -45.527344 14.355469 -45.000000 14.472656 -44.648438C15.058594 -42.226562 15.546875 -41.015625 15.937500 -41.015625C16.445312 -41.015625 17.265625 -42.109375 18.398438 -44.296875C18.984375 -45.273438 19.033203 -46.074219 18.544922 -46.699219C18.056641 -47.324219 17.324219 -47.343750 16.347656 -46.757812C16.621094 -48.554688 17.656250 -49.824219 19.453125 -50.566406C21.054688 -51.269531 22.324219 -51.152344 23.261719 -50.214844C23.925781 -49.550781 24.140625 -48.554688 23.906250 -47.226562ZM23.906250 -47.226562"></path></svg>