<svg width="30.000000" height="30.000000" viewBox="0.000000 -58.125000 30.000000 30.000000" xmlns="http://www.w3.org/2000/svg"><path d="M15.000000 -58.125000C10.859375 -58.125000 7.324219 -56.660156 4.394531 -53.730469C1.464844 -50.800781 0.000000 -47.265625 0.000000 -43.125000C0.000000 -38.984375 1.464844 -35.449219 4.394531 -32.519531C7.324219 -29.589844 10.859375 -28.125000 15.000000 -28.125000C19.140625 -28.125000 22.675781 -29.589844 25.605469 -32.519531C28.535156 -35.449219 30.000000 -38.984375 30.000000 -43.125000C30.000000 -47.265625 28.535156 -50.800781 25.605469 -53.730469C22.675781 -56.660156 19.140625 -58.125000 15.000000 -58.125000ZM11.250000 -35.859375L7.500000 -35.859375L7.500000 -48.984375L11.250000 -48.984375ZM9.492188 -49.804688C9.023438 -49.804688 8.613281 -49.970703 8.261719 -50.302734C7.910156 -50.634766 7.734375 -51.044922 7.734375 -51.533203C7.734375 -52.021484 7.910156 -52.441406 8.261719 -52.792969C8.613281 -53.144531 9.023438 -53.320312 9.492188 -53.320312C9.960938 -53.320312 10.371094 -53.144531 10.722656 -52.792969C11.074219 -52.441406 11.250000 -52.021484 11.250000 -51.533203C11.250000 -51.044922 11.074219 -50.634766 10.722656 -50.302734C10.371094 -49.970703 9.960938 -49.804688 9.492188 -49.804688ZM24.375000 -35.859375L20.625000 -35.859375L20.625000 -43.945312C20.625000 -45.039062 20.136719 -45.585938 19.160156 -45.585938C18.613281 -45.585938 18.144531 -45.449219 17.753906 -45.175781C17.363281 -44.902344 17.128906 -44.628906 17.050781 -44.355469L16.875000 -43.945312L16.875000 -35.859375L13.125000 -35.859375L13.125000 -48.984375L16.875000 -48.984375L16.875000 -47.753906C17.968750 -48.574219 19.218750 -48.984375 20.625000 -48.984375C21.523438 -48.984375 22.373047 -48.613281 23.173828 -47.871094C23.974609 -47.128906 24.375000 -45.800781 24.375000 -43.886719ZM24.375000 -35.859375"></path></svg>