<svg width="30.000000" height="30.000000" viewBox="0.000000 -58.125000 30.000000 30.000000" xmlns="http://www.w3.org/2000/svg"><path d="M24.375000 -58.125000L5.625000 -58.125000C4.062500 -58.125000 2.734375 -57.578125 1.640625 -56.484375C0.546875 -55.390625 0.000000 -54.062500 0.000000 -52.500000L0.000000 -33.750000C0.000000 -32.187500 0.546875 -30.859375 1.640625 -29.765625C2.734375 -28.671875 4.062500 -28.125000 5.625000 -28.125000L24.375000 -28.125000C25.937500 -28.125000 27.265625 -28.671875 28.359375 -29.765625C29.453125 -30.859375 30.000000 -32.187500 30.000000 -33.750000L30.000000 -52.500000C30.000000 -54.062500 29.453125 -55.390625 28.359375 -56.484375C27.265625 -57.578125 25.937500 -58.125000 24.375000 -58.125000ZM20.625000 -44.238281L16.113281 -44.238281L16.113281 -40.136719C16.113281 -39.003906 16.152344 -38.359375 16.230469 -38.203125C16.347656 -37.890625 16.582031 -37.636719 16.933594 -37.441406C17.324219 -37.167969 17.773438 -37.031250 18.281250 -37.031250C19.101562 -37.031250 19.882812 -37.285156 20.625000 -37.792969L20.625000 -35.039062C19.960938 -34.726562 19.277344 -34.492188 18.574219 -34.335938C17.949219 -34.179688 17.265625 -34.101562 16.523438 -34.101562C15.859375 -34.101562 15.214844 -34.208984 14.589844 -34.423828C13.964844 -34.638672 13.427734 -34.941406 12.978516 -35.332031C12.529297 -35.722656 12.216797 -36.132812 12.041016 -36.562500C11.865234 -36.992188 11.777344 -37.617188 11.777344 -38.437500L11.777344 -44.765625L9.375000 -44.765625L9.375000 -47.285156C10.273438 -47.597656 10.937500 -47.929688 11.367188 -48.281250C11.875000 -48.710938 12.285156 -49.228516 12.597656 -49.833984C12.910156 -50.439453 13.125000 -51.210938 13.242188 -52.148438L16.113281 -52.148438L16.113281 -47.636719L20.625000 -47.636719ZM20.625000 -44.238281"></path></svg>