<svg width="30.000000" height="30.000000" viewBox="0.000000 -58.125000 30.000000 30.000000" xmlns="http://www.w3.org/2000/svg"><path d="M24.375000 -58.125000L5.625000 -58.125000C4.062500 -58.125000 2.734375 -57.578125 1.640625 -56.484375C0.546875 -55.390625 0.000000 -54.062500 0.000000 -52.500000L0.000000 -33.750000C0.000000 -32.187500 0.546875 -30.859375 1.640625 -29.765625C2.734375 -28.671875 4.062500 -28.125000 5.625000 -28.125000L24.375000 -28.125000C25.937500 -28.125000 27.265625 -28.671875 28.359375 -29.765625C29.453125 -30.859375 30.000000 -32.187500 30.000000 -33.750000L30.000000 -52.500000C30.000000 -54.062500 29.453125 -55.390625 28.359375 -56.484375C27.265625 -57.578125 25.937500 -58.125000 24.375000 -58.125000ZM19.042969 -34.277344C18.105469 -34.277344 17.246094 -34.511719 16.464844 -34.980469C15.957031 -34.902344 15.449219 -34.863281 14.941406 -34.863281C12.675781 -34.863281 10.732422 -35.664062 9.111328 -37.265625C7.490234 -38.867188 6.679688 -40.800781 6.679688 -43.066406C6.679688 -43.496094 6.718750 -43.925781 6.796875 -44.355469C6.250000 -45.175781 5.976562 -46.074219 5.976562 -47.050781C5.976562 -48.417969 6.464844 -49.580078 7.441406 -50.537109C8.417969 -51.494141 9.589844 -51.972656 10.957031 -51.972656C11.933594 -51.972656 12.832031 -51.718750 13.652344 -51.210938C14.082031 -51.289062 14.511719 -51.328125 14.941406 -51.328125C17.246094 -51.328125 19.199219 -50.517578 20.800781 -48.896484C22.402344 -47.275391 23.203125 -45.332031 23.203125 -43.066406C23.203125 -42.714844 23.183594 -42.343750 23.144531 -41.953125C23.730469 -41.132812 24.023438 -40.214844 24.023438 -39.199219C24.023438 -37.832031 23.535156 -36.669922 22.558594 -35.712891C21.582031 -34.755859 20.410156 -34.277344 19.042969 -34.277344ZM13.945312 -44.648438C12.773438 -44.921875 12.363281 -45.449219 12.714844 -46.230469C13.066406 -46.933594 13.750000 -47.285156 14.765625 -47.285156C15.468750 -47.246094 16.201172 -46.904297 16.962891 -46.259766C17.724609 -45.615234 18.222656 -45.312500 18.457031 -45.351562C18.964844 -45.390625 19.277344 -45.673828 19.394531 -46.201172C19.511719 -46.728516 19.277344 -47.285156 18.691406 -47.871094C17.441406 -48.925781 15.820312 -49.375000 13.828125 -49.218750C12.851562 -49.140625 12.021484 -48.798828 11.337891 -48.193359C10.654297 -47.587891 10.273438 -46.757812 10.195312 -45.703125C10.078125 -44.687500 10.488281 -43.867188 11.425781 -43.242188C12.363281 -42.617188 13.437500 -42.207031 14.648438 -42.011719C15.585938 -41.894531 16.337891 -41.640625 16.904297 -41.250000C17.470703 -40.859375 17.480469 -40.351562 16.933594 -39.726562C16.582031 -39.375000 16.132812 -39.169922 15.585938 -39.111328C15.039062 -39.052734 14.570312 -39.082031 14.179688 -39.199219C13.789062 -39.316406 13.457031 -39.453125 13.183594 -39.609375C13.066406 -39.687500 12.890625 -39.863281 12.656250 -40.136719C12.421875 -40.410156 12.167969 -40.644531 11.894531 -40.839844C11.621094 -41.035156 11.328125 -41.132812 11.015625 -41.132812C10.468750 -41.093750 10.136719 -40.800781 10.019531 -40.253906C9.902344 -39.707031 10.136719 -39.121094 10.722656 -38.496094C11.933594 -37.402344 13.593750 -36.914062 15.703125 -37.031250C17.070312 -37.109375 18.203125 -37.636719 19.101562 -38.613281C20.000000 -39.589844 20.234375 -40.605469 19.804688 -41.660156C19.648438 -42.011719 19.433594 -42.324219 19.160156 -42.597656C18.886719 -42.871094 18.632812 -43.095703 18.398438 -43.271484C18.164062 -43.447266 17.822266 -43.613281 17.373047 -43.769531C16.923828 -43.925781 16.572266 -44.033203 16.318359 -44.091797C16.064453 -44.150391 15.654297 -44.248047 15.087891 -44.384766C14.521484 -44.521484 14.140625 -44.609375 13.945312 -44.648438ZM13.945312 -44.648438"></path></svg>