<svg width="30.000000" height="30.000000" viewBox="0.000000 -58.125000 30.000000 30.000000" xmlns="http://www.w3.org/2000/svg"><path d="M24.375000 -58.125000L5.625000 -58.125000C4.062500 -58.125000 2.734375 -57.578125 1.640625 -56.484375C0.546875 -55.390625 0.000000 -54.062500 0.000000 -52.500000L0.000000 -33.750000C0.000000 -32.187500 0.546875 -30.859375 1.640625 -29.765625C2.734375 -28.671875 4.062500 -28.125000 5.625000 -28.125000L24.375000 -28.125000C25.937500 -28.125000 27.265625 -28.671875 28.359375 -29.765625C29.453125 -30.859375 30.000000 -32.187500 30.000000 -33.750000L30.000000 -52.500000C30.000000 -54.062500 29.453125 -55.390625 28.359375 -56.484375C27.265625 -57.578125 25.937500 -58.125000 24.375000 -58.125000ZM17.871094 -50.625000L22.851562 -42.011719L17.050781 -42.011719L12.128906 -50.625000ZM6.328125 -40.605469L11.308594 -49.218750L14.179688 -44.179688L9.199219 -35.625000ZM20.800781 -35.625000L11.191406 -35.625000L14.121094 -40.605469L23.671875 -40.605469ZM20.800781 -35.625000"></path></svg>