<svg width="26.015625" height="30.009766" viewBox="3.984375 -58.144531 26.015625 30.009766" xmlns="http://www.w3.org/2000/svg"><path d="M28.242188 -37.861328C25.703125 -35.283203 22.617188 -33.994141 18.984375 -33.994141C15.351562 -33.994141 12.255859 -35.273438 9.697266 -37.832031C7.138672 -40.390625 5.859375 -43.486328 5.859375 -47.119141C5.859375 -50.751953 7.148438 -53.837891 9.726562 -56.376953C10.156250 -56.806641 10.146484 -57.246094 9.697266 -57.695312C9.248047 -58.144531 8.808594 -58.134766 8.378906 -57.666016C5.449219 -54.775391 3.984375 -51.259766 3.984375 -47.119141C3.984375 -42.978516 5.449219 -39.443359 8.378906 -36.513672C10.722656 -34.169922 13.554688 -32.763672 16.875000 -32.294922L16.875000 -30.009766L14.062500 -30.009766C13.789062 -30.009766 13.564453 -29.921875 13.388672 -29.746094C13.212891 -29.570312 13.125000 -29.345703 13.125000 -29.072266C13.125000 -28.798828 13.212891 -28.574219 13.388672 -28.398438C13.564453 -28.222656 13.789062 -28.134766 14.062500 -28.134766L21.562500 -28.134766C21.835938 -28.134766 22.060547 -28.222656 22.236328 -28.398438C22.412109 -28.574219 22.500000 -28.798828 22.500000 -29.072266C22.500000 -29.345703 22.412109 -29.570312 22.236328 -29.746094C22.060547 -29.921875 21.835938 -30.009766 21.562500 -30.009766L18.750000 -30.009766L18.750000 -32.177734C18.789062 -32.177734 18.828125 -32.167969 18.867188 -32.148438C18.906250 -32.128906 18.945312 -32.119141 18.984375 -32.119141C23.125000 -32.119141 26.660156 -33.583984 29.589844 -36.513672C29.746094 -36.708984 29.824219 -36.933594 29.824219 -37.187500C29.824219 -37.441406 29.746094 -37.666016 29.589844 -37.861328C29.121094 -38.291016 28.671875 -38.291016 28.242188 -37.861328ZM7.968750 -47.119141C7.968750 -44.072266 9.042969 -41.474609 11.191406 -39.326172C13.339844 -37.177734 15.937500 -36.103516 18.984375 -36.103516C22.031250 -36.103516 24.628906 -37.177734 26.777344 -39.326172C28.925781 -41.474609 30.000000 -44.072266 30.000000 -47.119141C30.000000 -50.166016 28.925781 -52.763672 26.777344 -54.912109C24.628906 -57.060547 22.031250 -58.134766 18.984375 -58.134766C15.937500 -58.134766 13.339844 -57.060547 11.191406 -54.912109C9.042969 -52.763672 7.968750 -50.166016 7.968750 -47.119141ZM7.968750 -47.119141"></path></svg>