<svg width="28.125000" height="22.500000" viewBox="1.875000 -46.875000 28.125000 22.500000" xmlns="http://www.w3.org/2000/svg"><path d="M28.125000 -31.875000L28.125000 -35.625000C28.125000 -36.132812 27.939453 -36.572266 27.568359 -36.943359C27.197266 -37.314453 26.757812 -37.500000 26.250000 -37.500000L16.875000 -37.500000L16.875000 -41.250000L22.500000 -41.250000C23.007812 -41.250000 23.447266 -41.435547 23.818359 -41.806641C24.189453 -42.177734 24.375000 -42.617188 24.375000 -43.125000L24.375000 -45.000000C24.375000 -45.507812 24.189453 -45.947266 23.818359 -46.318359C23.447266 -46.689453 23.007812 -46.875000 22.500000 -46.875000L9.375000 -46.875000C8.867188 -46.875000 8.427734 -46.689453 8.056641 -46.318359C7.685547 -45.947266 7.500000 -45.507812 7.500000 -45.000000L7.500000 -43.125000C7.500000 -42.617188 7.685547 -42.177734 8.056641 -41.806641C8.427734 -41.435547 8.867188 -41.250000 9.375000 -41.250000L15.000000 -41.250000L15.000000 -37.500000L5.625000 -37.500000C5.117188 -37.500000 4.677734 -37.314453 4.306641 -36.943359C3.935547 -36.572266 3.750000 -36.132812 3.750000 -35.625000L3.750000 -31.875000C3.242188 -31.875000 2.802734 -31.689453 2.431641 -31.318359C2.060547 -30.947266 1.875000 -30.507812 1.875000 -30.000000L1.875000 -26.250000C1.875000 -25.742188 2.060547 -25.302734 2.431641 -24.931641C2.802734 -24.560547 3.242188 -24.375000 3.750000 -24.375000L5.625000 -24.375000C6.132812 -24.375000 6.572266 -24.560547 6.943359 -24.931641C7.314453 -25.302734 7.500000 -25.742188 7.500000 -26.250000L7.500000 -28.125000L7.500000 -30.000000C7.500000 -30.507812 7.314453 -30.947266 6.943359 -31.318359C6.572266 -31.689453 6.132812 -31.875000 5.625000 -31.875000L5.625000 -35.625000L15.000000 -35.625000L15.000000 -31.875000C14.492188 -31.875000 14.052734 -31.689453 13.681641 -31.318359C13.310547 -30.947266 13.125000 -30.507812 13.125000 -30.000000L13.125000 -28.125000L13.125000 -26.250000C13.125000 -25.742188 13.310547 -25.302734 13.681641 -24.931641C14.052734 -24.560547 14.492188 -24.375000 15.000000 -24.375000L16.875000 -24.375000C17.382812 -24.375000 17.822266 -24.560547 18.193359 -24.931641C18.564453 -25.302734 18.750000 -25.742188 18.750000 -26.250000L18.750000 -28.125000L18.750000 -30.000000C18.750000 -30.507812 18.564453 -30.947266 18.193359 -31.318359C17.822266 -31.689453 17.382812 -31.875000 16.875000 -31.875000L16.875000 -35.625000L26.250000 -35.625000L26.250000 -31.875000C25.742188 -31.875000 25.302734 -31.689453 24.931641 -31.318359C24.560547 -30.947266 24.375000 -30.507812 24.375000 -30.000000L24.375000 -28.125000L24.375000 -26.250000C24.375000 -25.742188 24.560547 -25.302734 24.931641 -24.931641C25.302734 -24.560547 25.742188 -24.375000 26.250000 -24.375000L28.125000 -24.375000C28.632812 -24.375000 29.072266 -24.560547 29.443359 -24.931641C29.814453 -25.302734 30.000000 -25.742188 30.000000 -26.250000L30.000000 -30.000000C30.000000 -30.507812 29.814453 -30.947266 29.443359 -31.318359C29.072266 -31.689453 28.632812 -31.875000 28.125000 -31.875000ZM28.125000 -31.875000"></path></svg>