<svg width="22.500000" height="30.000000" viewBox="3.750000 -58.125000 22.500000 30.000000" xmlns="http://www.w3.org/2000/svg"><path d="M24.375000 -56.250000L18.750000 -56.250000C18.750000 -56.757812 18.564453 -57.197266 18.193359 -57.568359C17.822266 -57.939453 17.382812 -58.125000 16.875000 -58.125000L13.125000 -58.125000C12.617188 -58.125000 12.177734 -57.939453 11.806641 -57.568359C11.435547 -57.197266 11.250000 -56.757812 11.250000 -56.250000L5.625000 -56.250000C5.117188 -56.250000 4.677734 -56.064453 4.306641 -55.693359C3.935547 -55.322266 3.750000 -54.882812 3.750000 -54.375000L3.750000 -30.000000C3.750000 -29.492188 3.935547 -29.052734 4.306641 -28.681641C4.677734 -28.310547 5.117188 -28.125000 5.625000 -28.125000L24.375000 -28.125000C24.882812 -28.125000 25.322266 -28.310547 25.693359 -28.681641C26.064453 -29.052734 26.250000 -29.492188 26.250000 -30.000000L26.250000 -54.375000C26.250000 -54.882812 26.064453 -55.322266 25.693359 -55.693359C25.322266 -56.064453 24.882812 -56.250000 24.375000 -56.250000ZM24.375000 -31.875000L5.625000 -31.875000L5.625000 -54.375000L9.375000 -54.375000C9.375000 -53.867188 9.560547 -53.427734 9.931641 -53.056641C10.302734 -52.685547 10.742188 -52.500000 11.250000 -52.500000L13.125000 -52.500000L16.875000 -52.500000L18.750000 -52.500000C19.257812 -52.500000 19.697266 -52.685547 20.068359 -53.056641C20.439453 -53.427734 20.625000 -53.867188 20.625000 -54.375000L24.375000 -54.375000ZM7.500000 -47.812500C7.500000 -47.539062 7.587891 -47.314453 7.763672 -47.138672C7.939453 -46.962891 8.164062 -46.875000 8.437500 -46.875000L21.562500 -46.875000C21.835938 -46.875000 22.060547 -46.962891 22.236328 -47.138672C22.412109 -47.314453 22.500000 -47.539062 22.500000 -47.812500C22.500000 -48.085938 22.412109 -48.310547 22.236328 -48.486328C22.060547 -48.662109 21.835938 -48.750000 21.562500 -48.750000L8.437500 -48.750000C8.164062 -48.750000 7.939453 -48.662109 7.763672 -48.486328C7.587891 -48.310547 7.500000 -48.085938 7.500000 -47.812500ZM21.562500 -43.125000L8.437500 -43.125000C8.164062 -43.125000 7.939453 -43.037109 7.763672 -42.861328C7.587891 -42.685547 7.500000 -42.460938 7.500000 -42.187500C7.500000 -41.914062 7.587891 -41.689453 7.763672 -41.513672C7.939453 -41.337891 8.164062 -41.250000 8.437500 -41.250000L21.562500 -41.250000C21.835938 -41.250000 22.060547 -41.337891 22.236328 -41.513672C22.412109 -41.689453 22.500000 -41.914062 22.500000 -42.187500C22.500000 -42.460938 22.412109 -42.685547 22.236328 -42.861328C22.060547 -43.037109 21.835938 -43.125000 21.562500 -43.125000ZM21.562500 -37.500000L8.437500 -37.500000C8.164062 -37.500000 7.939453 -37.412109 7.763672 -37.236328C7.587891 -37.060547 7.500000 -36.835938 7.500000 -36.562500C7.500000 -36.289062 7.587891 -36.064453 7.763672 -35.888672C7.939453 -35.712891 8.164062 -35.625000 8.437500 -35.625000L21.562500 -35.625000C21.835938 -35.625000 22.060547 -35.712891 22.236328 -35.888672C22.412109 -36.064453 22.500000 -36.289062 22.500000 -36.562500C22.500000 -36.835938 22.412109 -37.060547 22.236328 -37.236328C22.060547 -37.412109 21.835938 -37.500000 21.562500 -37.500000ZM21.562500 -37.500000"></path></svg>