<svg width="30.000000" height="30.000000" viewBox="0.000000 -58.125000 30.000000 30.000000" xmlns="http://www.w3.org/2000/svg"><path d="M28.125000 -54.375000C28.046875 -55.351562 27.656250 -56.220703 26.953125 -56.982422C26.250000 -57.744141 25.390625 -58.125000 24.375000 -58.125000L5.625000 -58.125000C4.609375 -58.125000 3.750000 -57.744141 3.046875 -56.982422C2.343750 -56.220703 1.953125 -55.351562 1.875000 -54.375000L0.000000 -34.277344C0.000000 -34.277344 0.000000 -34.238281 0.000000 -34.160156C0.000000 -34.082031 0.000000 -34.033203 0.000000 -34.013672C0.000000 -33.994141 0.000000 -33.955078 0.000000 -33.896484C0.000000 -33.837891 0.000000 -33.789062 0.000000 -33.750000L0.000000 -31.875000C0.000000 -30.820312 0.361328 -29.931641 1.083984 -29.208984C1.806641 -28.486328 2.695312 -28.125000 3.750000 -28.125000L26.250000 -28.125000C27.304688 -28.125000 28.193359 -28.486328 28.916016 -29.208984C29.638672 -29.931641 30.000000 -30.820312 30.000000 -31.875000L30.000000 -33.750000C30.000000 -33.789062 30.000000 -33.837891 30.000000 -33.896484C30.000000 -33.955078 30.000000 -33.994141 30.000000 -34.013672C30.000000 -34.033203 30.000000 -34.082031 30.000000 -34.160156C30.000000 -34.238281 30.000000 -34.277344 30.000000 -34.277344ZM1.875000 -31.875000L1.875000 -33.750000C1.875000 -34.257812 2.060547 -34.697266 2.431641 -35.068359C2.802734 -35.439453 3.242188 -35.625000 3.750000 -35.625000L26.250000 -35.625000C26.757812 -35.625000 27.197266 -35.439453 27.568359 -35.068359C27.939453 -34.697266 28.125000 -34.257812 28.125000 -33.750000L28.125000 -31.875000C28.125000 -31.367188 27.939453 -30.927734 27.568359 -30.556641C27.197266 -30.185547 26.757812 -30.000000 26.250000 -30.000000L3.750000 -30.000000C3.242188 -30.000000 2.802734 -30.185547 2.431641 -30.556641C2.060547 -30.927734 1.875000 -31.367188 1.875000 -31.875000ZM3.750000 -54.257812C3.789062 -54.726562 3.994141 -55.175781 4.365234 -55.605469C4.736328 -56.035156 5.156250 -56.250000 5.625000 -56.250000L24.375000 -56.250000C24.843750 -56.250000 25.263672 -56.035156 25.634766 -55.605469C26.005859 -55.175781 26.210938 -54.707031 26.250000 -54.199219L27.832031 -37.148438C27.324219 -37.382812 26.796875 -37.500000 26.250000 -37.500000L3.750000 -37.500000C3.203125 -37.500000 2.675781 -37.382812 2.167969 -37.148438ZM24.375000 -32.812500C24.375000 -32.539062 24.462891 -32.314453 24.638672 -32.138672C24.814453 -31.962891 25.039062 -31.875000 25.312500 -31.875000C25.585938 -31.875000 25.810547 -31.962891 25.986328 -32.138672C26.162109 -32.314453 26.250000 -32.539062 26.250000 -32.812500C26.250000 -33.085938 26.162109 -33.310547 25.986328 -33.486328C25.810547 -33.662109 25.585938 -33.750000 25.312500 -33.750000C25.039062 -33.750000 24.814453 -33.662109 24.638672 -33.486328C24.462891 -33.310547 24.375000 -33.085938 24.375000 -32.812500ZM20.625000 -32.812500C20.625000 -32.539062 20.712891 -32.314453 20.888672 -32.138672C21.064453 -31.962891 21.289062 -31.875000 21.562500 -31.875000C21.835938 -31.875000 22.060547 -31.962891 22.236328 -32.138672C22.412109 -32.314453 22.500000 -32.539062 22.500000 -32.812500C22.500000 -33.085938 22.412109 -33.310547 22.236328 -33.486328C22.060547 -33.662109 21.835938 -33.750000 21.562500 -33.750000C21.289062 -33.750000 21.064453 -33.662109 20.888672 -33.486328C20.712891 -33.310547 20.625000 -33.085938 20.625000 -32.812500ZM4.687500 -31.875000L17.812500 -31.875000C18.085938 -31.875000 18.310547 -31.962891 18.486328 -32.138672C18.662109 -32.314453 18.750000 -32.539062 18.750000 -32.812500C18.750000 -33.085938 18.662109 -33.310547 18.486328 -33.486328C18.310547 -33.662109 18.085938 -33.750000 17.812500 -33.750000L4.687500 -33.750000C4.414062 -33.750000 4.189453 -33.662109 4.013672 -33.486328C3.837891 -33.310547 3.750000 -33.085938 3.750000 -32.812500C3.750000 -32.539062 3.837891 -32.314453 4.013672 -32.138672C4.189453 -31.962891 4.414062 -31.875000 4.687500 -31.875000ZM4.687500 -31.875000"></path></svg>