<svg width="30.000000" height="30.000000" viewBox="0.000000 -58.125000 30.000000 30.000000" xmlns="http://www.w3.org/2000/svg"><path d="M4.570312 -37.500000L13.125000 -37.500000L13.125000 -32.636719C13.046875 -29.628906 13.964844 -28.125000 15.878906 -28.125000C16.582031 -28.125000 17.177734 -28.291016 17.666016 -28.623047C18.154297 -28.955078 18.457031 -29.296875 18.574219 -29.648438L18.750000 -30.117188C18.828125 -31.093750 19.013672 -32.011719 19.306641 -32.871094C19.599609 -33.730469 19.970703 -34.462891 20.419922 -35.068359C20.869141 -35.673828 21.357422 -36.230469 21.884766 -36.738281C22.412109 -37.246094 22.929688 -37.656250 23.437500 -37.968750C23.945312 -38.281250 24.414062 -38.544922 24.843750 -38.759766C25.273438 -38.974609 25.615234 -39.130859 25.869141 -39.228516C26.123047 -39.326172 26.250000 -39.375000 26.250000 -39.375000L26.250000 -54.375000L23.496094 -54.492188C22.207031 -54.492188 21.181641 -54.619141 20.419922 -54.873047C19.658203 -55.126953 19.062500 -55.429688 18.632812 -55.781250C18.203125 -56.132812 17.705078 -56.484375 17.138672 -56.835938C16.572266 -57.187500 15.615234 -57.490234 14.267578 -57.744141C12.919922 -57.998047 11.171875 -58.125000 9.023438 -58.125000C7.812500 -58.125000 6.718750 -57.968750 5.742188 -57.656250C4.765625 -57.343750 3.964844 -56.953125 3.339844 -56.484375C2.714844 -56.015625 2.187500 -55.390625 1.757812 -54.609375C1.328125 -53.828125 0.996094 -53.105469 0.761719 -52.441406C0.527344 -51.777344 0.351562 -50.937500 0.234375 -49.921875C0.117188 -48.906250 0.048828 -48.076172 0.029297 -47.431641C0.009766 -46.787109 0.000000 -45.976562 0.000000 -45.000000C0.000000 -42.539062 0.458984 -40.673828 1.376953 -39.404297C2.294922 -38.134766 3.359375 -37.500000 4.570312 -37.500000ZM9.023438 -56.250000C10.859375 -56.250000 12.373047 -56.142578 13.564453 -55.927734C14.755859 -55.712891 15.546875 -55.507812 15.937500 -55.312500C16.328125 -55.117188 16.777344 -54.843750 17.285156 -54.492188C18.144531 -53.867188 18.994141 -53.398438 19.833984 -53.085938C20.673828 -52.773438 21.875000 -52.617188 23.437500 -52.617188L24.375000 -52.558594L24.375000 -40.605469C23.632812 -40.292969 22.919922 -39.892578 22.236328 -39.404297C21.552734 -38.916016 20.800781 -38.271484 19.980469 -37.470703C19.160156 -36.669922 18.466797 -35.664062 17.900391 -34.453125C17.333984 -33.242188 16.992188 -31.914062 16.875000 -30.468750C16.718750 -30.156250 16.386719 -30.000000 15.878906 -30.000000C15.644531 -30.000000 15.488281 -30.039062 15.410156 -30.117188C15.097656 -30.429688 14.960938 -31.269531 15.000000 -32.636719L15.000000 -37.500000L15.000000 -39.375000L13.125000 -39.375000L4.570312 -39.375000C3.867188 -39.375000 3.242188 -39.873047 2.695312 -40.869141C2.148438 -41.865234 1.875000 -43.242188 1.875000 -45.000000C1.875000 -48.945312 2.353516 -51.806641 3.310547 -53.583984C4.267578 -55.361328 6.171875 -56.250000 9.023438 -56.250000ZM29.062500 -56.250000C28.789062 -56.250000 28.564453 -56.162109 28.388672 -55.986328C28.212891 -55.810547 28.125000 -55.585938 28.125000 -55.312500L28.125000 -38.496094C28.125000 -38.261719 28.212891 -38.046875 28.388672 -37.851562C28.564453 -37.656250 28.789062 -37.558594 29.062500 -37.558594C29.335938 -37.558594 29.560547 -37.656250 29.736328 -37.851562C29.912109 -38.046875 30.000000 -38.261719 30.000000 -38.496094L30.000000 -55.312500C30.000000 -55.585938 29.912109 -55.810547 29.736328 -55.986328C29.560547 -56.162109 29.335938 -56.250000 29.062500 -56.250000ZM29.062500 -56.250000"></path></svg>