<svg width="28.125000" height="28.125000" viewBox="1.875000 -54.375000 28.125000 28.125000" xmlns="http://www.w3.org/2000/svg"><path d="M15.937500 -54.375000C12.070312 -54.375000 8.759766 -52.998047 6.005859 -50.244141C3.251953 -47.490234 1.875000 -44.179688 1.875000 -40.312500C1.875000 -36.445312 3.251953 -33.134766 6.005859 -30.380859C8.759766 -27.626953 12.070312 -26.250000 15.937500 -26.250000C19.804688 -26.250000 23.115234 -27.626953 25.869141 -30.380859C28.623047 -33.134766 30.000000 -36.445312 30.000000 -40.312500C30.000000 -44.179688 28.623047 -47.490234 25.869141 -50.244141C23.115234 -52.998047 19.804688 -54.375000 15.937500 -54.375000ZM15.937500 -28.125000C12.578125 -28.125000 9.707031 -29.316406 7.324219 -31.699219C4.941406 -34.082031 3.750000 -36.953125 3.750000 -40.312500C3.750000 -43.671875 4.941406 -46.542969 7.324219 -48.925781C9.707031 -51.308594 12.578125 -52.500000 15.937500 -52.500000C19.296875 -52.500000 22.167969 -51.308594 24.550781 -48.925781C26.933594 -46.542969 28.125000 -43.671875 28.125000 -40.312500C28.125000 -36.953125 26.933594 -34.082031 24.550781 -31.699219C22.167969 -29.316406 19.296875 -28.125000 15.937500 -28.125000ZM17.519531 -46.875000C18.378906 -46.875000 19.111328 -46.601562 19.716797 -46.054688C20.322266 -45.507812 20.625000 -44.843750 20.625000 -44.062500C20.625000 -43.789062 20.712891 -43.564453 20.888672 -43.388672C21.064453 -43.212891 21.289062 -43.125000 21.562500 -43.125000C21.835938 -43.125000 22.060547 -43.212891 22.236328 -43.388672C22.412109 -43.564453 22.500000 -43.789062 22.500000 -44.062500C22.500000 -45.351562 22.011719 -46.455078 21.035156 -47.373047C20.058594 -48.291016 18.886719 -48.750000 17.519531 -48.750000L16.875000 -48.750000L16.875000 -49.687500C16.875000 -49.960938 16.787109 -50.185547 16.611328 -50.361328C16.435547 -50.537109 16.210938 -50.625000 15.937500 -50.625000C15.664062 -50.625000 15.439453 -50.537109 15.263672 -50.361328C15.087891 -50.185547 15.000000 -49.960938 15.000000 -49.687500L15.000000 -48.750000L14.355469 -48.750000C12.988281 -48.750000 11.816406 -48.291016 10.839844 -47.373047C9.863281 -46.455078 9.375000 -45.351562 9.375000 -44.062500C9.375000 -42.773438 9.863281 -41.669922 10.839844 -40.751953C11.816406 -39.833984 12.988281 -39.375000 14.355469 -39.375000L15.000000 -39.375000L15.000000 -33.750000L14.355469 -33.750000C13.496094 -33.750000 12.763672 -34.023438 12.158203 -34.570312C11.552734 -35.117188 11.250000 -35.781250 11.250000 -36.562500C11.250000 -36.835938 11.162109 -37.060547 10.986328 -37.236328C10.810547 -37.412109 10.585938 -37.500000 10.312500 -37.500000C10.039062 -37.500000 9.814453 -37.412109 9.638672 -37.236328C9.462891 -37.060547 9.375000 -36.835938 9.375000 -36.562500C9.375000 -35.273438 9.863281 -34.169922 10.839844 -33.251953C11.816406 -32.333984 12.988281 -31.875000 14.355469 -31.875000L15.000000 -31.875000L15.000000 -30.937500C15.000000 -30.664062 15.087891 -30.439453 15.263672 -30.263672C15.439453 -30.087891 15.664062 -30.000000 15.937500 -30.000000C16.210938 -30.000000 16.435547 -30.087891 16.611328 -30.263672C16.787109 -30.439453 16.875000 -30.664062 16.875000 -30.937500L16.875000 -31.875000L17.519531 -31.875000C18.886719 -31.875000 20.058594 -32.333984 21.035156 -33.251953C22.011719 -34.169922 22.500000 -35.273438 22.500000 -36.562500C22.500000 -37.851562 22.011719 -38.955078 21.035156 -39.873047C20.058594 -40.791016 18.886719 -41.250000 17.519531 -41.250000L16.875000 -41.250000L16.875000 -46.875000ZM17.519531 -39.375000C18.378906 -39.375000 19.111328 -39.101562 19.716797 -38.554688C20.322266 -38.007812 20.625000 -37.343750 20.625000 -36.562500C20.625000 -35.781250 20.322266 -35.117188 19.716797 -34.570312C19.111328 -34.023438 18.378906 -33.750000 17.519531 -33.750000L16.875000 -33.750000L16.875000 -39.375000ZM15.000000 -41.250000L14.355469 -41.250000C13.496094 -41.250000 12.763672 -41.523438 12.158203 -42.070312C11.552734 -42.617188 11.250000 -43.281250 11.250000 -44.062500C11.250000 -44.843750 11.552734 -45.507812 12.158203 -46.054688C12.763672 -46.601562 13.496094 -46.875000 14.355469 -46.875000L15.000000 -46.875000ZM15.000000 -41.250000"></path></svg>