<svg width="24.375000" height="30.000000" viewBox="3.750000 -58.125000 24.375000 30.000000" xmlns="http://www.w3.org/2000/svg"><path d="M18.750000 -52.500000L20.625000 -52.500000L20.625000 -54.375000L18.750000 -54.375000ZM22.500000 -52.500000L24.375000 -52.500000L24.375000 -54.375000L22.500000 -54.375000ZM18.750000 -48.750000L20.625000 -48.750000L20.625000 -50.625000L18.750000 -50.625000ZM22.500000 -48.750000L24.375000 -48.750000L24.375000 -50.625000L22.500000 -50.625000ZM18.750000 -45.000000L20.625000 -45.000000L20.625000 -46.875000L18.750000 -46.875000ZM22.500000 -45.000000L24.375000 -45.000000L24.375000 -46.875000L22.500000 -46.875000ZM18.750000 -41.250000L20.625000 -41.250000L20.625000 -43.125000L18.750000 -43.125000ZM22.500000 -41.250000L24.375000 -41.250000L24.375000 -43.125000L22.500000 -43.125000ZM18.750000 -37.500000L20.625000 -37.500000L20.625000 -39.375000L18.750000 -39.375000ZM22.500000 -37.500000L24.375000 -37.500000L24.375000 -39.375000L22.500000 -39.375000ZM26.250000 -58.125000L16.875000 -58.125000C16.367188 -58.125000 15.927734 -57.939453 15.556641 -57.568359C15.185547 -57.197266 15.000000 -56.757812 15.000000 -56.250000L15.000000 -50.625000L5.625000 -50.625000C5.117188 -50.625000 4.677734 -50.439453 4.306641 -50.068359C3.935547 -49.697266 3.750000 -49.257812 3.750000 -48.750000L3.750000 -30.000000C3.750000 -29.492188 3.935547 -29.052734 4.306641 -28.681641C4.677734 -28.310547 5.117188 -28.125000 5.625000 -28.125000L26.250000 -28.125000C26.757812 -28.125000 27.197266 -28.310547 27.568359 -28.681641C27.939453 -29.052734 28.125000 -29.492188 28.125000 -30.000000L28.125000 -56.250000C28.125000 -56.757812 27.939453 -57.197266 27.568359 -57.568359C27.197266 -57.939453 26.757812 -58.125000 26.250000 -58.125000ZM11.250000 -30.000000L9.375000 -30.000000L9.375000 -33.750000L11.250000 -33.750000ZM13.125000 -30.000000L13.125000 -33.750000L13.125000 -35.625000L11.250000 -35.625000L9.375000 -35.625000L7.500000 -35.625000L7.500000 -33.750000L7.500000 -30.000000L5.625000 -30.000000L5.625000 -48.750000L15.000000 -48.750000L15.000000 -30.000000ZM22.500000 -30.000000L20.625000 -30.000000L20.625000 -33.750000L22.500000 -33.750000ZM26.250000 -30.000000L24.375000 -30.000000L24.375000 -33.750000L24.375000 -35.625000L22.500000 -35.625000L20.625000 -35.625000L18.750000 -35.625000L18.750000 -30.000000L16.875000 -30.000000L16.875000 -48.750000L16.875000 -56.250000L26.250000 -56.250000ZM7.500000 -45.000000L9.375000 -45.000000L9.375000 -46.875000L7.500000 -46.875000ZM11.250000 -45.000000L13.125000 -45.000000L13.125000 -46.875000L11.250000 -46.875000ZM7.500000 -41.250000L9.375000 -41.250000L9.375000 -43.125000L7.500000 -43.125000ZM11.250000 -41.250000L13.125000 -41.250000L13.125000 -43.125000L11.250000 -43.125000ZM7.500000 -37.500000L9.375000 -37.500000L9.375000 -39.375000L7.500000 -39.375000ZM11.250000 -37.500000L13.125000 -37.500000L13.125000 -39.375000L11.250000 -39.375000ZM11.250000 -37.500000"></path></svg>