<svg width="15.000000" height="28.125000" viewBox="7.500000 -54.375000 15.000000 28.125000" xmlns="http://www.w3.org/2000/svg"><path d="M18.750000 -43.125000L11.250000 -43.125000L11.250000 -33.750000C11.250000 -33.046875 10.625000 -32.001953 9.375000 -30.615234C8.125000 -29.228516 7.500000 -28.398438 7.500000 -28.125000L7.500000 -27.187500C7.500000 -26.914062 7.587891 -26.689453 7.763672 -26.513672C7.939453 -26.337891 8.164062 -26.250000 8.437500 -26.250000L21.562500 -26.250000C21.835938 -26.250000 22.060547 -26.337891 22.236328 -26.513672C22.412109 -26.689453 22.500000 -26.914062 22.500000 -27.187500L22.500000 -28.125000C22.500000 -28.398438 21.875000 -29.228516 20.625000 -30.615234C19.375000 -32.001953 18.750000 -33.046875 18.750000 -33.750000ZM21.738281 -54.316406L21.738281 -54.375000L19.863281 -54.375000L19.863281 -54.316406C19.824219 -54.316406 19.794922 -54.326172 19.775391 -54.345703C19.755859 -54.365234 19.726562 -54.375000 19.687500 -54.375000C19.414062 -54.375000 19.189453 -54.287109 19.013672 -54.111328C18.837891 -53.935547 18.750000 -53.710938 18.750000 -53.437500L18.750000 -52.500000L16.875000 -52.500000L16.875000 -53.437500C16.875000 -53.945312 16.621094 -54.238281 16.113281 -54.316406L16.113281 -54.375000L14.238281 -54.375000L14.238281 -54.316406C14.199219 -54.316406 14.169922 -54.326172 14.150391 -54.345703C14.130859 -54.365234 14.101562 -54.375000 14.062500 -54.375000C13.789062 -54.375000 13.564453 -54.287109 13.388672 -54.111328C13.212891 -53.935547 13.125000 -53.710938 13.125000 -53.437500L13.125000 -52.500000L11.250000 -52.500000L11.250000 -53.437500C11.250000 -53.945312 10.996094 -54.238281 10.488281 -54.316406L10.488281 -54.375000L8.613281 -54.375000L8.613281 -54.316406C8.574219 -54.316406 8.544922 -54.326172 8.525391 -54.345703C8.505859 -54.365234 8.476562 -54.375000 8.437500 -54.375000C8.164062 -54.375000 7.939453 -54.287109 7.763672 -54.111328C7.587891 -53.935547 7.500000 -53.710938 7.500000 -53.437500L7.500000 -50.625000L7.500000 -48.750000C7.500000 -48.242188 7.675781 -47.792969 8.027344 -47.402344L9.902344 -45.527344C10.292969 -45.175781 10.742188 -45.000000 11.250000 -45.000000L18.750000 -45.000000C19.257812 -45.000000 19.707031 -45.175781 20.097656 -45.527344L21.972656 -47.402344C22.324219 -47.792969 22.500000 -48.242188 22.500000 -48.750000L22.500000 -50.625000L22.500000 -53.437500C22.500000 -53.945312 22.246094 -54.238281 21.738281 -54.316406ZM21.738281 -54.316406"></path></svg>