<svg width="22.500000" height="30.000000" viewBox="3.750000 -58.125000 22.500000 30.000000" xmlns="http://www.w3.org/2000/svg"><path d="M3.750000 -52.500000L3.750000 -37.500000L4.042969 -36.796875L7.500000 -28.125000L11.250000 -37.500000L11.250000 -52.500000L11.250000 -54.375000C11.250000 -55.429688 10.888672 -56.318359 10.166016 -57.041016C9.443359 -57.763672 8.554688 -58.125000 7.500000 -58.125000C6.445312 -58.125000 5.556641 -57.763672 4.833984 -57.041016C4.111328 -56.318359 3.750000 -55.429688 3.750000 -54.375000ZM5.625000 -54.375000C5.625000 -54.882812 5.810547 -55.322266 6.181641 -55.693359C6.552734 -56.064453 6.992188 -56.250000 7.500000 -56.250000C8.007812 -56.250000 8.447266 -56.064453 8.818359 -55.693359C9.189453 -55.322266 9.375000 -54.882812 9.375000 -54.375000L9.375000 -52.500000L5.625000 -52.500000ZM7.500000 -33.164062L6.562500 -35.566406L6.152344 -36.503906L6.152344 -36.621094L7.500000 -37.265625L8.847656 -36.621094L8.847656 -36.503906L8.437500 -35.566406ZM9.375000 -38.437500L7.500000 -39.375000L5.625000 -38.437500L5.625000 -49.277344L5.625000 -50.390625L5.625000 -50.625000L7.500000 -50.625000L9.375000 -50.625000L9.375000 -50.390625L9.375000 -49.277344ZM23.613281 -52.558594L21.796875 -57.187500C21.640625 -57.812500 21.250000 -58.125000 20.625000 -58.125000C20.312500 -58.125000 20.048828 -58.027344 19.833984 -57.832031C19.619141 -57.636719 19.492188 -57.382812 19.453125 -57.070312L19.394531 -57.070312L17.636719 -52.558594L16.875000 -50.625000L16.875000 -31.875000C16.875000 -30.820312 17.236328 -29.931641 17.958984 -29.208984C18.681641 -28.486328 19.570312 -28.125000 20.625000 -28.125000C21.679688 -28.125000 22.568359 -28.486328 23.291016 -29.208984C24.013672 -29.931641 24.375000 -30.820312 24.375000 -31.875000C24.882812 -31.875000 25.322266 -32.060547 25.693359 -32.431641C26.064453 -32.802734 26.250000 -33.242188 26.250000 -33.750000L26.250000 -39.375000C26.250000 -39.882812 26.064453 -40.322266 25.693359 -40.693359C25.322266 -41.064453 24.882812 -41.250000 24.375000 -41.250000L24.375000 -50.625000ZM22.500000 -39.375000L22.500000 -33.750000L22.500000 -31.875000C22.500000 -31.367188 22.314453 -30.927734 21.943359 -30.556641C21.572266 -30.185547 21.132812 -30.000000 20.625000 -30.000000C20.117188 -30.000000 19.677734 -30.185547 19.306641 -30.556641C18.935547 -30.927734 18.750000 -31.367188 18.750000 -31.875000L18.750000 -50.625000L18.867188 -50.625000L22.382812 -50.625000L22.500000 -50.625000L22.500000 -41.250000ZM21.621094 -52.500000L19.628906 -52.500000L20.625000 -54.960938ZM21.621094 -52.500000"></path></svg>