<svg width="30.000000" height="20.625000" viewBox="0.000000 -43.125000 30.000000 20.625000" xmlns="http://www.w3.org/2000/svg"><path d="M28.125000 -43.125000L1.875000 -43.125000C1.367188 -43.125000 0.927734 -42.939453 0.556641 -42.568359C0.185547 -42.197266 0.000000 -41.757812 0.000000 -41.250000L0.000000 -24.375000C0.000000 -23.867188 0.185547 -23.427734 0.556641 -23.056641C0.927734 -22.685547 1.367188 -22.500000 1.875000 -22.500000L28.125000 -22.500000C28.632812 -22.500000 29.072266 -22.685547 29.443359 -23.056641C29.814453 -23.427734 30.000000 -23.867188 30.000000 -24.375000L30.000000 -41.250000C30.000000 -41.757812 29.814453 -42.197266 29.443359 -42.568359C29.072266 -42.939453 28.632812 -43.125000 28.125000 -43.125000ZM1.875000 -41.250000L28.125000 -41.250000L28.125000 -24.375000L1.875000 -24.375000ZM25.488281 -33.750000L14.062500 -33.750000C13.789062 -33.750000 13.564453 -33.662109 13.388672 -33.486328C13.212891 -33.310547 13.125000 -33.085938 13.125000 -32.812500C13.125000 -32.539062 13.212891 -32.314453 13.388672 -32.138672C13.564453 -31.962891 13.789062 -31.875000 14.062500 -31.875000L25.488281 -31.875000C25.722656 -31.875000 25.937500 -31.962891 26.132812 -32.138672C26.328125 -32.314453 26.425781 -32.539062 26.425781 -32.812500C26.425781 -33.085938 26.328125 -33.310547 26.132812 -33.486328C25.937500 -33.662109 25.722656 -33.750000 25.488281 -33.750000ZM25.488281 -30.000000L14.062500 -30.000000C13.789062 -30.000000 13.564453 -29.912109 13.388672 -29.736328C13.212891 -29.560547 13.125000 -29.335938 13.125000 -29.062500C13.125000 -28.789062 13.212891 -28.564453 13.388672 -28.388672C13.564453 -28.212891 13.789062 -28.125000 14.062500 -28.125000L25.488281 -28.125000C25.722656 -28.125000 25.937500 -28.212891 26.132812 -28.388672C26.328125 -28.564453 26.425781 -28.789062 26.425781 -29.062500C26.425781 -29.335938 26.328125 -29.560547 26.132812 -29.736328C25.937500 -29.912109 25.722656 -30.000000 25.488281 -30.000000ZM25.488281 -37.500000L14.062500 -37.500000C13.789062 -37.500000 13.564453 -37.412109 13.388672 -37.236328C13.212891 -37.060547 13.125000 -36.835938 13.125000 -36.562500C13.125000 -36.289062 13.212891 -36.064453 13.388672 -35.888672C13.564453 -35.712891 13.789062 -35.625000 14.062500 -35.625000L25.488281 -35.625000C25.722656 -35.625000 25.937500 -35.712891 26.132812 -35.888672C26.328125 -36.064453 26.425781 -36.289062 26.425781 -36.562500C26.425781 -36.835938 26.328125 -37.060547 26.132812 -37.236328C25.937500 -37.412109 25.722656 -37.500000 25.488281 -37.500000ZM5.214844 -37.089844C5.214844 -36.464844 5.439453 -35.937500 5.888672 -35.507812C6.337891 -35.078125 6.875000 -34.863281 7.500000 -34.863281C8.125000 -34.863281 8.662109 -35.078125 9.111328 -35.507812C9.560547 -35.937500 9.785156 -36.464844 9.785156 -37.089844C9.785156 -37.714844 9.560547 -38.251953 9.111328 -38.701172C8.662109 -39.150391 8.125000 -39.375000 7.500000 -39.375000C6.875000 -39.375000 6.337891 -39.150391 5.888672 -38.701172C5.439453 -38.251953 5.214844 -37.714844 5.214844 -37.089844ZM7.558594 -33.925781C6.542969 -33.925781 5.673828 -33.447266 4.951172 -32.490234C4.228516 -31.533203 3.867188 -30.351562 3.867188 -28.945312C3.867188 -28.085938 4.482422 -27.480469 5.712891 -27.128906C6.943359 -26.777344 8.173828 -26.777344 9.404297 -27.128906C10.634766 -27.480469 11.250000 -28.085938 11.250000 -28.945312C11.250000 -30.351562 10.888672 -31.533203 10.166016 -32.490234C9.443359 -33.447266 8.574219 -33.925781 7.558594 -33.925781ZM7.558594 -33.925781"></path></svg>