<?xml version="1.0" encoding="utf-8"?>
<!-- Generator: Adobe Illustrator 19.2.1, SVG Export Plug-In . SVG Version: 6.00 Build 0)  -->
<svg version="1.1" id="Calque_1" xmlns="http://www.w3.org/2000/svg" xmlns:xlink="http://www.w3.org/1999/xlink" x="0px" y="0px"
	 viewBox="0 0 44 48" style="enable-background:new 0 0 44 48;" xml:space="preserve">
<style type="text/css">
	.st0{fill:#FF5A5F;}
</style>
<title>Airbnb-color</title>
<desc>Created with Sketch.</desc>
<path class="st0" d="M43.2,33.5l-0.2-0.6c-0.2-0.4-0.3-0.8-0.5-1.1c-0.2-0.4-0.3-0.8-0.5-1.1c-0.2-0.4-0.4-0.8-0.6-1.2l-0.1-0.1
	C38,22.2,34.6,15.3,31.2,8.7l-0.1-0.3C30.7,7.7,30.3,7,30,6.2L29.8,6c-0.4-0.8-0.9-1.6-1.6-2.4c-1.5-1.9-3.8-3-6.2-3
	c-2.4,0-4.6,1-6.2,2.9c-0.7,0.9-1.2,1.8-1.7,2.6c-0.4,0.7-0.7,1.5-1.1,2.2l-0.1,0.3C9,16.1,5.6,22.9,2.7,29.3l-0.1,0.1
	c-0.2,0.4-0.4,0.8-0.5,1.2c-0.2,0.4-0.3,0.7-0.5,1.1c-0.2,0.5-0.5,1.1-0.7,1.7c-0.6,1.8-0.8,3.5-0.6,5.2c0.5,3.6,2.9,6.6,6.3,8
	c1.2,0.5,2.5,0.8,3.9,0.8c0.4,0,0.9-0.1,1.3-0.1c1.6-0.2,3.3-0.7,4.8-1.6c1.8-1,3.5-2.4,5.5-4.5c1.9,2,3.7,3.4,5.5,4.5
	c1.5,0.9,3.1,1.4,4.8,1.6c0.3,0,0.8,0.1,1.3,0.1c1.4,0,2.8-0.3,3.9-0.8c3.3-1.3,5.7-4.4,6.3-8C44,37.1,43.8,35.4,43.2,33.5z
	 M17.7,24.8c0.1-0.6,0.3-1.2,0.6-1.7c0.8-1.2,2.1-1.8,3.6-1.8c1.6,0,2.9,0.7,3.6,1.8c0.4,0.5,0.6,1.1,0.7,1.7
	c0.1,0.8,0.1,1.7-0.1,2.6c-0.5,2.2-1.9,4.9-4.2,7.9c-2.2-2.9-3.7-5.6-4.2-7.9C17.6,26.4,17.6,25.6,17.7,24.8z M30,28.4
	c0.3-1.4,0.4-2.7,0.2-4.1c-0.2-1.2-0.6-2.4-1.3-3.3c-1.5-2.2-4-3.5-6.9-3.5c-2.8,0-5.3,1.3-6.9,3.5c-0.7,1-1.1,2.1-1.3,3.3
	c-0.2,1.3-0.1,2.7,0.2,4.1c0.7,3,2.5,6.4,5.4,10.1c-1.7,1.9-3.3,3.2-4.8,4.1c-1.1,0.6-2.2,1-3.3,1.1c-1.1,0.1-2.2,0-3.3-0.4
	c-2.1-0.9-3.6-2.8-3.9-5C4,37,4.1,36,4.6,34.8c0.1-0.3,0.2-0.6,0.4-0.9c0.1-0.2,0.1-0.3,0.2-0.5c0.3-0.7,0.7-1.5,1-2.3L6.2,31
	c3.4-7.2,6.8-14.2,10.1-20.6l0.1-0.3c0.2-0.3,0.4-0.7,0.6-1.1c0.2-0.4,0.4-0.7,0.6-1.1c0.4-0.8,0.8-1.4,1.2-1.9c0.9-1,2-1.5,3.3-1.5
	s2.4,0.5,3.3,1.5c0.4,0.5,0.8,1.1,1.2,1.9c0.2,0.3,0.4,0.7,0.5,1.1c0.2,0.4,0.4,0.7,0.5,1l0.1,0.3c3.5,6.8,6.8,13.7,10,20.5l0.1,0.2
	c0.2,0.4,0.3,0.7,0.5,1.1c0.2,0.4,0.4,0.8,0.5,1.1c0.1,0.2,0.1,0.3,0.2,0.5c0.2,0.3,0.3,0.6,0.4,0.9c0.4,1.2,0.5,2.3,0.3,3.3l0,0
	c-0.3,2.2-1.8,4.1-3.9,5c-1,0.4-2.1,0.6-3.2,0.4c-1.1-0.1-2.2-0.5-3.3-1.1c-1.5-0.8-3-2.1-4.8-4.1C27.5,34.8,29.3,31.4,30,28.4z"/>
</svg>
