<?xml version="1.0" encoding="UTF-8" standalone="no"?>
<svg width="48px" height="40px" viewBox="0 0 48 40" version="1.1" xmlns="http://www.w3.org/2000/svg" xmlns:xlink="http://www.w3.org/1999/xlink">
    <!-- Generator: Sketch 3.7.2 (28276) - http://www.bohemiancoding.com/sketch -->
    <title>Medium-black</title>
    <desc>Created with Sketch.</desc>
    <defs></defs>
    <g id="Icons" stroke="none" stroke-width="1" fill="none" fill-rule="evenodd">
        <g id="Black" transform="translate(-800.000000, -463.000000)" fill="#1B1A18">
            <g id="Medium" transform="translate(800.000000, 463.000000)">
                <path d="M47.4742642,7.33797753 C47.4652075,7.33078652 47.4579623,7.32134831 47.4466415,7.31595506 L47.4303396,7.30786517 L33.1344906,0.213483146 C33.0380377,0.165393258 32.9366038,0.133033708 32.8338113,0.106966292 C32.7047547,0.0741573034 32.5729811,0.0539325843 32.4407547,0.0539325843 C31.893283,0.0539325843 31.3485283,0.326741573 31.053283,0.802247191 L22.8230943,14.0768539 L33.1516981,30.7348315 L47.5181887,7.56449438 C47.5657358,7.48719101 47.5430943,7.39191011 47.4742642,7.33797753" id="Fill-53"></path>
                <polyline id="Fill-54" points="18.2898113 11.0530337 18.2898113 26.1635955 31.8221887 32.8791011 18.2898113 11.0530337"></polyline>
                <path d="M33.8553962,33.8880899 L44.994566,39.4157303 C46.4440755,40.1352809 47.6191698,39.6314607 47.6191698,38.291236 L47.6191698,11.6894382 L33.8553962,33.8880899" id="Fill-55"></path>
                <path d="M15.9405283,7.35955056 L1.97841509,0.430561798 C1.72618868,0.305617978 1.48618868,0.246292135 1.26883019,0.246292135 C0.657509434,0.246292135 0.228679245,0.715955056 0.228679245,1.50382022 L0.228679245,31.4229213 C0.228679245,32.2238202 0.819169811,33.1721348 1.54098113,33.5303371 L13.8384906,39.632809 C14.1536604,39.7892135 14.4538868,39.8633708 14.7251321,39.8633708 C15.4895094,39.8633708 16.0256604,39.2764045 16.0256604,38.291236 L16.0256604,7.49573034 C16.0256604,7.43820225 15.9926038,7.38516854 15.9405283,7.35955056" id="Fill-56"></path>
            </g>
        </g>
    </g>
</svg>