<?xml version="1.0" encoding="UTF-8" standalone="no"?>
<svg width="37px" height="48px" viewBox="0 0 37 48" version="1.1" xmlns="http://www.w3.org/2000/svg" xmlns:xlink="http://www.w3.org/1999/xlink">
    <!-- Generator: Sketch 3.7.2 (28276) - http://www.bohemiancoding.com/sketch -->
    <title>Periscope-color</title>
    <desc>Created with Sketch.</desc>
    <defs></defs>
    <g id="Icons" stroke="none" stroke-width="1" fill="none" fill-rule="evenodd">
        <g id="Color-" transform="translate(-205.000000, -860.000000)" fill="#35A3C6">
            <path d="M242,878.744709 C242,892.683014 227.206254,908 223.500163,908 C219.794397,908 205,892.683014 205,878.744709 C205,868.392227 213.282595,860 223.500163,860 C233.718056,860 242,868.392227 242,878.744709 Z M223.500163,867.433389 C222.610532,867.433389 221.746309,867.54132 220.916616,867.739689 C222.421269,868.487286 223.45977,870.049482 223.45977,871.861868 C223.45977,874.398746 221.430003,876.455379 218.926265,876.455379 C216.516019,876.455379 214.550426,874.547935 214.406769,872.142423 C213.067272,874.015541 212.275367,876.316752 212.275367,878.806761 C212.275367,885.088224 217.300758,890.180133 223.500163,890.180133 C229.699568,890.180133 234.724959,885.088224 234.724959,878.806761 C234.724959,872.525298 229.699568,867.433389 223.500163,867.433389 Z" id="Periscope"></path>
        </g>
    </g>
</svg>