<?xml version="1.0" encoding="UTF-8" standalone="no"?>
<svg width="48px" height="40px" viewBox="0 0 48 40" version="1.1" xmlns="http://www.w3.org/2000/svg" xmlns:xlink="http://www.w3.org/1999/xlink">
    <!-- Generator: Sketch 3.7.2 (28276) - http://www.bohemiancoding.com/sketch -->
    <title>rdio-color</title>
    <desc>Created with Sketch.</desc>
    <defs></defs>
    <g id="Icons" stroke="none" stroke-width="1" fill="none" fill-rule="evenodd">
        <g id="Color-" transform="translate(-704.000000, -956.000000)" fill="#0086CD">
            <path d="M744.934262,973.306673 C744.972692,974.132533 745.032654,974.935029 745.044019,975.73828 C745.175084,984.975104 739.066523,992.946447 730.052766,995.219792 C723.898374,996.772004 718.011271,996.006711 712.655084,992.439528 C707.889851,989.265842 705.067271,984.746144 704.224355,979.028412 C702.685963,968.592798 709.201402,958.99605 719.399084,956.608072 C722.944056,955.777902 726.482,955.792269 730.014112,956.685048 C730.133439,956.715218 730.251196,956.751664 730.387645,956.790227 L730.387645,968.397864 C729.664056,968.169206 728.95714,967.878847 728.222337,967.724972 C724.531495,966.952269 721.261813,967.902439 718.414112,970.34138 C716.722823,971.789925 715.501066,973.584481 714.987122,975.795898 C714.243495,978.995747 715.562299,981.901758 718.475869,983.37087 C721.586748,984.939566 724.761178,984.874386 727.879757,983.410189 C730.823309,982.02811 732.936505,979.80777 733.923645,976.634688 C734.17643,975.822136 734.257103,974.926484 734.262187,974.068034 C734.292318,968.952193 734.277066,963.836125 734.277066,958.720133 L734.277066,958.230757 C734.892916,958.582212 735.455981,958.872269 735.98757,959.212458 C738.314,960.701002 740.676467,962.121645 743.210823,963.22622 C744.98757,964.000586 746.809178,964.630832 748.737178,964.883233 C749.328131,964.960662 749.927981,964.982515 750.524617,964.998469 C751.354374,965.020624 751.836617,965.494651 751.860841,966.341229 C751.882823,967.111059 751.631309,967.805653 751.267271,968.457826 C749.946598,970.823951 747.925888,972.306371 745.411645,973.154915 C745.247907,973.210189 745.082299,973.259792 744.934262,973.306673" id="rdio"></path>
        </g>
    </g>
</svg>