<?xml version="1.0" encoding="UTF-8" standalone="no"?>
<svg width="48px" height="40px" viewBox="0 0 48 40" version="1.1" xmlns="http://www.w3.org/2000/svg" xmlns:xlink="http://www.w3.org/1999/xlink">
    <!-- Generator: Sketch 3.7.2 (28276) - http://www.bohemiancoding.com/sketch -->
    <title>Reddit-black</title>
    <desc>Created with Sketch.</desc>
    <defs></defs>
    <g id="Icons" stroke="none" stroke-width="1" fill="none" fill-rule="evenodd">
        <g id="Black" transform="translate(-800.000000, -566.000000)" fill="#000000">
            <path d="M831.14,592.325803 C829.346,592.325803 827.8385,590.884067 827.8385,589.106421 C827.8385,587.328775 829.346,585.839477 831.14,585.839477 C832.934,585.839477 834.389,587.328775 834.389,589.106421 C834.389,590.884067 832.934,592.325803 831.14,592.325803 M831.902,598.574316 C830.231,600.228597 827.654,601.032699 824.024,601.032699 C824.0165,601.032699 824.0075,601.031213 823.9985,601.031213 C823.991,601.031213 823.982,601.032699 823.973,601.032699 C820.343,601.032699 817.7675,600.228597 816.098,598.574316 C815.585,598.065993 815.585,597.244055 816.098,596.737218 C816.6095,596.23038 817.439,596.23038 817.952,596.737218 C819.104,597.878716 821.0735,598.434602 823.973,598.434602 C823.982,598.434602 823.991,598.436088 823.9985,598.436088 C824.0075,598.436088 824.0165,598.434602 824.024,598.434602 C826.9235,598.434602 828.8945,597.878716 830.048,596.737218 C830.561,596.228894 831.3905,596.23038 831.902,596.737218 C832.4135,597.245541 832.4135,598.067479 831.902,598.574316 M813.611,589.106421 C813.611,587.330262 815.1155,585.839477 816.908,585.839477 C818.702,585.839477 820.157,587.330262 820.157,589.106421 C820.157,590.884067 818.702,592.325803 816.908,592.325803 C815.1155,592.325803 813.611,590.884067 813.611,589.106421 M839.996,568.598098 C841.211,568.598098 842.1995,569.577586 842.1995,570.780024 C842.1995,571.983948 841.211,572.963436 839.996,572.963436 C838.781,572.963436 837.7925,571.983948 837.7925,570.780024 C837.7925,569.577586 838.781,568.598098 839.996,568.598098 M848,585.570452 C848,582.417955 845.4125,579.854043 842.231,579.854043 C840.854,579.854043 839.5895,580.335612 838.5965,581.136742 C835.079,578.945898 830.615,577.62604 825.83,577.346611 L828.326,569.527051 L835.1855,571.127824 C835.3655,573.602556 837.4535,575.561534 839.996,575.561534 C842.6555,575.561534 844.82,573.416766 844.82,570.780024 C844.82,568.144768 842.6555,566 839.996,566 C838.136,566 836.519,567.049346 835.7135,568.581748 L827.7425,566.722354 C827.075,566.56629 826.4,566.94679 826.193,567.594828 L823.094,577.300535 C817.9385,577.425386 813.092,578.749703 809.3165,581.068371 C808.337,580.308859 807.1055,579.854043 805.769,579.854043 C802.5875,579.854043 800,582.417955 800,585.570452 C800,587.519025 800.99,589.241677 802.4975,590.273187 C802.4345,590.726516 802.4015,591.182818 802.4015,591.645065 C802.4015,595.585315 804.713,599.250595 808.91,601.964625 C812.933,604.567182 818.258,606 823.9025,606 C829.547,606 834.872,604.567182 838.895,601.964625 C843.092,599.250595 845.4035,595.585315 845.4035,591.645065 C845.4035,591.224435 845.375,590.806778 845.3225,590.392093 C846.9305,589.376932 848,587.594828 848,585.570452" id="Reddit"></path>
        </g>
    </g>
</svg>