<?xml version="1.0" encoding="UTF-8" standalone="no"?>
<svg width="53px" height="47px" viewBox="0 0 53 47" version="1.1" xmlns="http://www.w3.org/2000/svg" xmlns:xlink="http://www.w3.org/1999/xlink">
    <!-- Generator: Sketch 3.7.2 (28276) - http://www.bohemiancoding.com/sketch -->
    <title>Sketch-color</title>
    <desc>Created with Sketch.</desc>
    <defs></defs>
    <g id="Icons" stroke="none" stroke-width="1" fill="none" fill-rule="evenodd">
        <g id="Color-" transform="translate(-697.000000, -860.000000)" fill="#FFC100">
            <path d="M749.087143,871.043 L741.105143,864.996 C740.926143,864.808 740.724143,864.654 740.502143,864.54 L735.125143,860.466 C734.725143,860.164 734.238143,860 733.737143,860 L713.263143,860 C712.762143,860 712.274143,860.164 711.875143,860.466 L697.912143,871.043 C696.897143,871.812 696.699143,873.26 697.470143,874.274 L721.669143,906.092 C722.590143,907.303 724.409143,907.303 725.330143,906.092 L749.530143,874.274 C750.301143,873.26 750.102143,871.812 749.087143,871.043 L749.087143,871.043 Z M714.035143,864.606 L732.965143,864.606 L735.572143,866.581 L732.198143,869.079 L715.720143,868.949 L711.559143,866.481 L714.035143,864.606 L714.035143,864.606 Z M716.297143,873.559 L731.762143,873.682 L736.105143,879.731 L712.133143,879.731 L716.297143,873.559 L716.297143,873.559 Z M707.596143,869.483 L711.809143,871.982 L706.968143,879.159 L702.528143,873.322 L707.596143,869.483 L707.596143,869.483 Z M723.500143,900.896 L710.906143,884.337 L736.094143,884.337 L723.500143,900.896 L723.500143,900.896 Z M740.715143,878.261 L736.140143,871.889 L739.396143,869.477 L744.471143,873.322 L740.715143,878.261 L740.715143,878.261 Z" id="Sketch"></path>
        </g>
    </g>
</svg>