<svg xmlns="http://www.w3.org/2000/svg" width="56" height="57" viewBox="0 0 56 57"><defs><filter id="a" width="200%" height="200%" x="-50%" y="-50%" filterUnits="objectBoundingBox"><feOffset dy="1" in="SourceAlpha" result="shadowOffsetOuter1"/><feGaussianBlur stdDeviation="10" in="shadowOffsetOuter1" result="shadowBlurOuter1"/><feColorMatrix values="0 0 0 0 0 0 0 0 0 0 0 0 0 0 0 0 0 0 0.1 0" in="shadowBlurOuter1" result="shadowMatrixOuter1"/><feMerge><feMergeNode in="shadowMatrixOuter1"/><feMergeNode in="SourceGraphic"/></feMerge></filter></defs><path fill-rule="evenodd" d="M34.717 25h2.283l-1.369-4.102c-.351-1.052-1.531-1.898-2.639-1.898h-9.984c-1.108 0-2.289.85-2.639 1.898l-1.369 4.102h2.283l.869-3.072c.192-.512.793-.928 1.343-.928h9.009c.55 0 1.156.428 1.343.928l.869 3.072zm-9.72 2c.554 0 1.211.405 1.491.86 0 0 .408 1.14 1.512 1.14 1.105 0 1.512-1.14 1.512-1.14.269-.475.926-.86 1.491-.86h5.997v5.997c0 1.659-1.353 3.003-2.993 3.003h-12.015c-1.653 0-2.993-1.342-2.993-3.003v-5.997h5.997zm-3.997 5.997c0 .557.445 1.003.993 1.003h12.015c.539 0 .993-.453.993-1.003v-3.997h-4s-.791 2-3 2-3-2-3-2h-4v3.997z" filter="url(#a)"/></svg>