<svg xmlns="http://www.w3.org/2000/svg" width="58" height="60" viewBox="0 0 58 60"><defs><filter id="a" width="200%" height="200%" x="-50%" y="-50%" filterUnits="objectBoundingBox"><feOffset dy="1" in="SourceAlpha" result="shadowOffsetOuter1"/><feGaussianBlur stdDeviation="10" in="shadowOffsetOuter1" result="shadowBlurOuter1"/><feColorMatrix values="0 0 0 0 0 0 0 0 0 0 0 0 0 0 0 0 0 0 0.1 0" in="shadowBlurOuter1" result="shadowMatrixOuter1"/><feMerge><feMergeNode in="shadowMatrixOuter1"/><feMergeNode in="SourceGraphic"/></feMerge></filter></defs><path fill-rule="evenodd" d="M20 20.991c0-1.099.893-1.991 1.995-1.991h14.01c1.102 0 1.995.898 1.995 1.991v16.018c0 1.099-.893 1.991-1.995 1.991h-14.01c-1.102 0-1.995-.898-1.995-1.991v-16.018zm1.995 15.008c0 .553.45 1.001 1.007 1.001h11.991c.556 0 1.007-.445 1.007-1.001v-14.006c0-.553-.45-1.001-1.007-1.001h-11.986c-.556 0-1.007.445-1.007 1.001l-.004 14.006zm2.005-10.999c0-.552.443-1 1.009-1h1.981c.557 0 1.009.444 1.009 1 0 .552-.443 1-1.009 1h-1.981c-.557 0-1.009-.444-1.009-1zm0 4c0-.552.456-1 .995-1h8.009c.55 0 .995.444.995 1 0 .552-.456 1-.995 1h-8.009c-.55 0-.995-.444-.995-1zm0 4c0-.552.456-1 .995-1h8.009c.55 0 .995.444.995 1 0 .552-.456 1-.995 1h-8.009c-.55 0-.995-.444-.995-1z" filter="url(#a)"/></svg>