<svg xmlns="http://www.w3.org/2000/svg" width="56" height="58" viewBox="0 0 56 58"><defs><filter id="a" width="200%" height="200%" x="-50%" y="-50%" filterUnits="objectBoundingBox"><feOffset dy="1" in="SourceAlpha" result="shadowOffsetOuter1"/><feGaussianBlur stdDeviation="10" in="shadowOffsetOuter1" result="shadowBlurOuter1"/><feColorMatrix values="0 0 0 0 0 0 0 0 0 0 0 0 0 0 0 0 0 0 0.1 0" in="shadowBlurOuter1" result="shadowMatrixOuter1"/><feMerge><feMergeNode in="shadowMatrixOuter1"/><feMergeNode in="SourceGraphic"/></feMerge></filter></defs><path fill-rule="evenodd" d="M33.001 35c.552 0 .999-.453.999-.997v-7.003h-12v7.003c0 .551.443.997.999.997h2.001v-6.003c0-.551.451-.997.991-.997h4.018c.547 0 .991.453.991.997v6.003h2.001zm-11.001-8h12l2 2v6.002c0 1.104-.895 1.998-1.994 1.998h-12.012c-1.101 0-1.994-.887-1.994-1.998v-6.002l2-2zm5 3h2v5h-2v-5zm.215-12.372c.433-.347 1.141-.343 1.569 0l8.431 6.745c.433.347.582 1.032.337 1.522l-.105.211c-.247.494-.8.62-1.23.286l-8.217-6.391-8.217 6.391c-.432.336-.985.204-1.23-.286l-.105-.211c-.247-.494-.091-1.179.337-1.522l8.431-6.745z" filter="url(#a)"/></svg>