<svg xmlns="http://www.w3.org/2000/svg" width="57" height="60" viewBox="0 0 57 60"><defs><filter id="a" width="200%" height="200%" x="-50%" y="-50%" filterUnits="objectBoundingBox"><feOffset dy="1" in="SourceAlpha" result="shadowOffsetOuter1"/><feGaussianBlur stdDeviation="10" in="shadowOffsetOuter1" result="shadowBlurOuter1"/><feColorMatrix values="0 0 0 0 0 0 0 0 0 0 0 0 0 0 0 0 0 0 0.1 0" in="shadowBlurOuter1" result="shadowMatrixOuter1"/><feMerge><feMergeNode in="shadowMatrixOuter1"/><feMergeNode in="SourceGraphic"/></feMerge></filter></defs><path fill-rule="evenodd" d="M19 33s1.93-4 9.5-4 9.5 4 9.5 4v3c0 1.657-1.336 3-3 3h-13c-1.657 0-3-1.347-3-3v-3zm2 3c0 .55.449 1 1 1h13c.556 0 1-.445 1-1v-2.378c-.241-.323-.594-.659-1.058-.984-1.442-1.009-3.532-1.639-6.442-1.639s-5 .629-6.442 1.639c-.464.325-.817.661-1.058.984v2.378zm10-13.5c0-1.381-1.119-2.5-2.5-2.5s-2.5 1.119-2.5 2.5v.5c0 1.101.9 2 2 2h1c1.106 0 2-.892 2-1.997v-.503zm2 .5c0 2.21-2.047 4-4 4h-1c-2.2 0-4-1.791-4-4v-.5c0-2.485 2.015-4.5 4.5-4.5s4.5 2.015 4.5 4.5v.5z" filter="url(#a)"/></svg>