<svg xmlns="http://www.w3.org/2000/svg" width="60" height="59" viewBox="0 0 60 59"><defs><filter id="a" width="200%" height="200%" x="-50%" y="-50%" filterUnits="objectBoundingBox"><feOffset dy="1" in="SourceAlpha" result="shadowOffsetOuter1"/><feGaussianBlur stdDeviation="10" in="shadowOffsetOuter1" result="shadowBlurOuter1"/><feColorMatrix values="0 0 0 0 0 0 0 0 0 0 0 0 0 0 0 0 0 0 0.1 0" in="shadowBlurOuter1" result="shadowMatrixOuter1"/><feMerge><feMergeNode in="shadowMatrixOuter1"/><feMergeNode in="SourceGraphic"/></feMerge></filter></defs><path fill-rule="evenodd" d="M31 27.414v-8.412c0-.547-.448-1.002-1-1.002-.556 0-1 .449-1 1.002v8.412l-1.128-1.128c-.382-.382-1.017-.384-1.408.007-.393.393-.393 1.021-.007 1.408l2.841 2.841c.19.19.442.286.696.286.261.003.513-.094.705-.286l2.841-2.841c.382-.382.384-1.017-.007-1.408-.393-.393-1.021-.393-1.408-.007l-1.128 1.128zm-4-8.414h-4.007c-1.64 0-2.993 1.34-2.993 2.993v13.015c0 1.64 1.34 2.993 2.993 2.993h14.015c1.64 0 2.993-1.34 2.993-2.993v-13.015c0-1.64-1.34-2.993-2.993-2.993h-4.007v2h4.007c.542 0 .993.452.993.993v13.015c0 .542-.452.993-.993.993h-14.015c-.542 0-.993-.452-.993-.993v-13.015c0-.542.452-.993.993-.993h4.007v-2z" filter="url(#a)"/></svg>