<svg xmlns="http://www.w3.org/2000/svg" width="60" height="60" viewBox="0 0 60 60"><defs><filter id="a" width="200%" height="200%" x="-50%" y="-50%" filterUnits="objectBoundingBox"><feOffset dy="1" in="SourceAlpha" result="shadowOffsetOuter1"/><feGaussianBlur stdDeviation="10" in="shadowOffsetOuter1" result="shadowBlurOuter1"/><feColorMatrix values="0 0 0 0 0 0 0 0 0 0 0 0 0 0 0 0 0 0 0.1 0" in="shadowBlurOuter1" result="shadowMatrixOuter1"/><feMerge><feMergeNode in="shadowMatrixOuter1"/><feMergeNode in="SourceGraphic"/></feMerge></filter></defs><path fill-rule="evenodd" d="M20 21.994c0-1.654 1.343-2.994 2.994-2.994h14.012c1.654 0 2.994 1.343 2.994 2.994v14.012c0 1.654-1.343 2.994-2.994 2.994h-14.012c-1.654 0-2.994-1.343-2.994-2.994v-14.012zm2 0v14.012c0 .548.446.994.994.994h14.012c.548 0 .994-.446.994-.994v-14.012c0-.548-.446-.994-.994-.994h-14.012c-.548 0-.994.446-.994.994zm5 8.006l3 2 2-4 4 7h-12l3-5zm-.5-3c.828 0 1.5-.672 1.5-1.5s-.672-1.5-1.5-1.5-1.5.672-1.5 1.5.672 1.5 1.5 1.5z" filter="url(#a)"/></svg>