<?xml version="1.0" encoding="utf-8"?>
<!-- Generator: Adobe Illustrator 16.0.0, SVG Export Plug-In . SVG Version: 6.00 Build 0)  -->
<!DOCTYPE svg PUBLIC "-//W3C//DTD SVG 1.1//EN" "http://www.w3.org/Graphics/SVG/1.1/DTD/svg11.dtd">
<svg version="1.1" id="Layer_1" xmlns="http://www.w3.org/2000/svg" xmlns:xlink="http://www.w3.org/1999/xlink" x="0px" y="0px"
	 width="48px" height="48px" viewBox="0 0 48 48" enable-background="new 0 0 48 48" xml:space="preserve">
<path fill-rule="evenodd" clip-rule="evenodd" d="M46,37H2c-0.553,0-1-0.447-1-1V8c0-0.552,0.447-1,1-1h44c0.553,0,1,0.448,1,1v28
	C47,36.553,46.553,37,46,37z M45,9H3v26h42V9z M21,16c0.214,0,0.4,0.082,0.563,0.196l7.771,4.872C29.72,21.205,30,21.566,30,22
	c0,0.325-0.165,0.601-0.405,0.783l-7.974,4.981C21.449,27.904,21.238,28,21,28c-0.553,0-1-0.447-1-1V17C20,16.448,20.447,16,21,16z
	 M15,39h18c0.553,0,1,0.447,1,1s-0.447,1-1,1H15c-0.553,0-1-0.447-1-1S14.447,39,15,39z"/>
</svg>
