<?xml version="1.0" encoding="utf-8"?>
<!-- Generator: Adobe Illustrator 16.0.0, SVG Export Plug-In . SVG Version: 6.00 Build 0)  -->
<!DOCTYPE svg PUBLIC "-//W3C//DTD SVG 1.1//EN" "http://www.w3.org/Graphics/SVG/1.1/DTD/svg11.dtd">
<svg version="1.1" id="Layer_1" xmlns="http://www.w3.org/2000/svg" xmlns:xlink="http://www.w3.org/1999/xlink" x="0px" y="0px"
	 width="48px" height="48px" viewBox="0 0 48 48" enable-background="new 0 0 48 48" xml:space="preserve">
<path fill-rule="evenodd" clip-rule="evenodd" d="M35,47H13c-2.209,0-4-1.791-4-4V13c0-2.209,1.791-4,4-4h7V5c0-2.209,1.791-4,4-4
	s4,1.791,4,4v4h7c2.209,0,4,1.791,4,4v30C39,45.209,37.209,47,35,47z M26,5c0-1.104-0.896-2-2-2s-2,0.896-2,2v6c0,1.104,0.896,2,2,2
	s2-0.896,2-2V5z M37,13c0-1.104-0.896-2-2-2h-7c0,2.209-1.791,4-4,4s-4-1.791-4-4h-7c-1.104,0-2,0.896-2,2v24h3.797
	c0.231-0.589,0.656-1.549,1.16-2.24c0.025-0.014,0.848-1.739,4.998-1.79c0.006-0.021,0.01-1.042,0.022-1.027
	c-0.32-0.202-0.737-0.516-1.051-0.816c-0.255-0.156-1.161-1.029-1.452-2.583c-0.087-0.542-0.488-3.099-0.488-4.166
	c0-3.171,1.265-6.381,5.953-6.381c0.021,0,0.1,0,0.121,0c4.688,0,5.953,3.21,5.953,6.381c0,1.067-0.401,3.624-0.488,4.166
	c-0.291,1.554-1.196,2.427-1.452,2.583c-0.313,0.301-0.73,0.614-1.051,0.816c0.013-0.015,0.018,1.007,0.022,1.027
	c4.151,0.051,4.974,1.776,4.998,1.79c0.504,0.691,0.929,1.651,1.16,2.24H37V13z M25.014,31.488
	c-0.001,0.003-0.001,0.004-0.001,0.004c-0.003,0-0.017-0.781-0.017-0.781s1.166-0.601,2.031-1.378
	c0.507-0.417,0.741-1.362,0.741-1.362c0.137-0.828,0.238-2.877,0.238-3.703c0-2.062-1.033-4.28-4.007-4.28c0,0,0-0.006,0-0.007
	c0,0,0,0.007,0,0.007c-2.974,0-4.007,2.219-4.007,4.28c0,0.826,0.103,2.875,0.238,3.703c0,0,0.234,0.945,0.741,1.362
	c0.865,0.777,2.031,1.378,2.031,1.378s-0.014,0.781-0.018,0.781c0,0,0-0.001,0-0.004c0,0,0.029,1.146,0.029,1.486
	c0,1.363-1.365,2.019-2.223,2.019c-0.002,0-0.002,0-0.003,0c-2.593,0.114-3.205,0.976-3.21,0.984
	C17.419,36.23,17.2,36.482,16.998,37h14.005c-0.203-0.518-0.422-0.77-0.582-1.022c-0.006-0.009-0.619-0.87-3.211-0.984
	c-0.001,0-0.001,0-0.002,0c-0.858,0-2.224-0.655-2.224-2.019C24.984,32.634,25.014,31.488,25.014,31.488z M37,39H11v4
	c0,1.104,0.896,2,2,2h22c1.104,0,2-0.896,2-2V39z M31,43h-3c-0.553,0-1-0.447-1-1s0.447-1,1-1h3c0.553,0,1,0.447,1,1
	S31.553,43,31,43z M23,43h-6c-0.553,0-1-0.447-1-1s0.447-1,1-1h6c0.553,0,1,0.447,1,1S23.553,43,23,43z M23,5h2v2h-2V5z"/>
</svg>
