<?xml version="1.0" encoding="utf-8"?>
<!-- Generator: Adobe Illustrator 16.0.0, SVG Export Plug-In . SVG Version: 6.00 Build 0)  -->
<!DOCTYPE svg PUBLIC "-//W3C//DTD SVG 1.1//EN" "http://www.w3.org/Graphics/SVG/1.1/DTD/svg11.dtd">
<svg version="1.1" id="Layer_1" xmlns="http://www.w3.org/2000/svg" xmlns:xlink="http://www.w3.org/1999/xlink" x="0px" y="0px"
	 width="48px" height="48px" viewBox="0 0 48 48" enable-background="new 0 0 48 48" xml:space="preserve">
<path fill-rule="evenodd" clip-rule="evenodd" d="M46,17.995c0,0.986-0.371,1.878-0.963,2.575C46.207,21.269,47,22.534,47,23.995
	c0,2.21-1.791,4.001-4,4.001H28c0,0,3,3.392,3,10c0,0,0,5-3,7.999c0,0-0.788,1-3,1c0,0-2.459,0.263-3-3v-4.999l-7.613-10.998H6
	c-2.762,0-5-5.373-5-12s2.238-12,5-12h6.621c0.957-1.151,2.373-1.906,3.975-1.976V1.998L40,1.996c2.209,0,4,1.791,4,4
	c0,0.986-0.371,1.878-0.963,2.575C44.207,9.27,45,10.533,45,11.995c0,0.986-0.371,1.878-0.963,2.576
	C45.208,15.269,46,16.534,46,17.995z M6,5.998c-0.771,0-3,3.438-3,10s2.229,10,3,10h7.002l0,0H13c-0.797-1.103-3-3.957-3-8
	c0-3.807,0.834-8.528,1.426-11.4c0.033-0.207,0.097-0.402,0.152-0.6H6z M44.012,22.288l-2.028-1.211l1.529-1.801
	C43.734,19.014,44,18.579,44,17.995c0-0.7-0.369-1.338-0.986-1.705l-2.03-1.209l1.528-1.803C42.734,13.016,43,12.579,43,11.995
	c0-0.699-0.369-1.337-0.988-1.706l-2.028-1.211l1.529-1.801C41.734,7.015,42,6.58,42,5.996c0-1.103-0.897-2-2-2L16.684,4.021
	c-1.637,0.071-3.018,1.293-3.285,2.904C12.867,9.514,12,14.284,12,17.998c0,3.225,1.696,5.557,2.512,6.677l0.109,0.152L24,38.371
	v5.443C24.101,44.313,24.337,45,24.87,45c0,0,0.926,0.109,1.599-0.314l0.117-0.105C28.946,42.222,29,38.031,29,37.989
	c0-5.685-2.473-8.64-2.498-8.668l-2.941-3.325H43c1.103,0,2-0.897,2-2.001C45,23.295,44.631,22.657,44.012,22.288z M7.5,10.998
	c-0.828,0-1.5-0.671-1.5-1.5s0.672-1.5,1.5-1.5S9,8.669,9,9.498S8.328,10.998,7.5,10.998z"/>
</svg>
