<?xml version="1.0" encoding="utf-8"?>
<!-- Generator: Adobe Illustrator 16.0.0, SVG Export Plug-In . SVG Version: 6.00 Build 0)  -->
<!DOCTYPE svg PUBLIC "-//W3C//DTD SVG 1.1//EN" "http://www.w3.org/Graphics/SVG/1.1/DTD/svg11.dtd">
<svg version="1.1" id="Layer_1" xmlns="http://www.w3.org/2000/svg" xmlns:xlink="http://www.w3.org/1999/xlink" x="0px" y="0px"
	 width="48px" height="48px" viewBox="0 0 48 48" enable-background="new 0 0 48 48" xml:space="preserve">
<path fill-rule="evenodd" clip-rule="evenodd" d="M43.102,14.113c-0.331-0.579-0.684-1.143-1.064-1.688
	C43.208,11.727,44,10.462,44,9c0-2.209-1.791-4-4-4c-1.462,0-2.727,0.792-3.425,1.963c-0.545-0.381-1.108-0.733-1.688-1.064
	C35.939,4.167,37.826,3,40,3c3.313,0,6,2.687,6,6C46,11.174,44.832,13.061,43.102,14.113z M44,25c0,5.171-1.979,9.868-5.2,13.419
	l4.915,4.915c0.381,0.381,0.381,0.999,0,1.381c-0.382,0.381-1,0.381-1.381,0L37.419,39.8C33.868,43.021,29.171,45,24,45
	s-9.868-1.979-13.418-5.2l-4.916,4.915c-0.381,0.381-1,0.381-1.381,0c-0.381-0.382-0.381-1,0-1.381L9.2,38.419
	C5.979,34.868,4,30.171,4,25C4,13.954,12.954,5,24,5S44,13.954,44,25z M24,7C14.059,7,6,15.059,6,25c0,9.941,8.059,18,18,18
	s18-8.059,18-18C42,15.059,33.941,7,24,7z M25,28.858V38c0,0.553-0.447,1-1,1s-1-0.447-1-1v-9.142c-1.723-0.446-3-1.997-3-3.858
	c0-0.749,0.219-1.441,0.578-2.041l-4.293-4.292c-0.381-0.381-0.381-1,0-1.381c0.382-0.381,1-0.381,1.381,0l4.293,4.292
	C22.559,21.219,23.251,21,24,21c2.209,0,4,1.791,4,4C28,26.861,26.723,28.412,25,28.858z M24,23c-1.104,0-2,0.896-2,2s0.896,2,2,2
	s2-0.896,2-2S25.104,23,24,23z M8,5C5.791,5,4,6.791,4,9c0,1.462,0.793,2.727,1.963,3.425c-0.381,0.545-0.733,1.109-1.064,1.688
	C3.168,13.061,2,11.174,2,9c0-3.313,2.687-6,6-6c2.174,0,4.061,1.167,5.113,2.899c-0.58,0.331-1.144,0.683-1.688,1.064
	C10.727,5.792,9.461,5,8,5z"/>
</svg>
