<?xml version="1.0" encoding="utf-8"?>
<!-- Generator: Adobe Illustrator 17.0.0, SVG Export Plug-In . SVG Version: 6.00 Build 0)  -->
<!DOCTYPE svg PUBLIC "-//W3C//DTD SVG 1.1//EN" "http://www.w3.org/Graphics/SVG/1.1/DTD/svg11.dtd">
<svg version="1.1" id="Layer_1" xmlns="http://www.w3.org/2000/svg" xmlns:xlink="http://www.w3.org/1999/xlink" x="0px" y="0px"
	 width="56.693px" height="56.693px" viewBox="0 0 56.693 56.693" enable-background="new 0 0 56.693 56.693" xml:space="preserve">
<g>
	<path fill="#474A56" d="M27.894,24.12c-4.271,0-7.744,3.475-7.744,7.744s3.474,7.742,7.744,7.742c4.269,0,7.743-3.473,7.743-7.742
		S32.164,24.12,27.894,24.12z"/>
	<path fill="#474A56" d="M53.08,21.942c-0.123-1.699-1.328-4.91-5.004-4.91h-6.907c-0.304-3.35-1.8-7.733-5.991-7.733H21.542
		l-0.138,0.008c-0.446,0.046-4.176,0.649-4.588,7.733L8.517,17.1c-1.858,0.08-5.373,1.318-5.373,5.428v20.016
		c-0.028,0.434-0.06,2.213,1.19,3.586c0.899,0.992,2.19,1.494,3.839,1.494h39.943l0.066-0.006c1.693-0.164,4.9-1.424,4.9-5.023
		V22.037L53.08,21.942z M27.894,43.606c-6.477,0-11.744-5.268-11.744-11.742c0-6.477,5.268-11.744,11.744-11.744
		c6.475,0,11.743,5.267,11.743,11.744C39.637,38.338,34.369,43.606,27.894,43.606z M44.206,27.485c-1.188,0-2.155-0.965-2.155-2.154
		c0-1.186,0.967-2.152,2.155-2.152c1.187,0,2.153,0.967,2.153,2.152C46.359,26.52,45.392,27.485,44.206,27.485z"/>
</g>
</svg>
