<?xml version="1.0" encoding="utf-8"?>
<!-- Generator: Adobe Illustrator 17.0.0, SVG Export Plug-In . SVG Version: 6.00 Build 0)  -->
<!DOCTYPE svg PUBLIC "-//W3C//DTD SVG 1.1//EN" "http://www.w3.org/Graphics/SVG/1.1/DTD/svg11.dtd">
<svg version="1.1" id="Layer_1" xmlns="http://www.w3.org/2000/svg" xmlns:xlink="http://www.w3.org/1999/xlink" x="0px" y="0px"
	 width="56.693px" height="56.693px" viewBox="0 0 56.693 56.693" enable-background="new 0 0 56.693 56.693" xml:space="preserve">
<g>
	<path fill="#474A56" d="M22.553,47.805l-1.977,6.027c0,0.44,0.438,0.797,0.977,0.797h13.002c0.539,0,0.977-0.356,0.977-0.797
		l-1.979-6.027H22.553z"/>
	<path fill="#474A56" d="M49.342,11.618h-14.85l0.362,3.439h13.758v25.744H7.321V15.057h13.479l0.363-3.439H6.764
		c-1.959,0-3.547,1.588-3.547,3.546v26.644c0,1.959,1.588,3.547,3.547,3.547h42.578c1.961,0,3.549-1.588,3.549-3.547V15.163
		C52.891,13.205,51.303,11.618,49.342,11.618z"/>
	<path fill="#474A56" d="M18.608,19.994c-0.116,0-0.229,0.019-0.338,0.047c-0.032,0.007-0.061,0.017-0.09,0.026
		c-0.085,0.029-0.167,0.065-0.242,0.108c-0.024,0.014-0.047,0.023-0.068,0.037c-0.085,0.055-0.165,0.115-0.236,0.186
		c-0.006,0.006-0.01,0.012-0.015,0.019c-0.094,0.096-0.176,0.207-0.239,0.33c-0.235,0.461-0.193,1.017,0.113,1.436l9.218,11.379
		c0.26,0.357,0.677,0.568,1.117,0.568c0.442,0,0.856-0.211,1.115-0.568l9.221-11.379c0.186-0.256,0.262-0.562,0.248-0.869v-0.001
		c-0.004-0.092-0.013-0.183-0.035-0.273c-0.022-0.102-0.054-0.199-0.103-0.294c-0.232-0.462-0.71-0.753-1.227-0.753l-4.688,0.001
		L31.047,7.541c0-1.778-1.442-3.219-3.22-3.219c-1.777,0-3.218,1.44-3.218,3.219l-1.313,12.451L18.608,19.994z"/>
</g>
</svg>
