<?xml version="1.0" encoding="utf-8"?>
<!-- Generator: Adobe Illustrator 17.0.0, SVG Export Plug-In . SVG Version: 6.00 Build 0)  -->
<!DOCTYPE svg PUBLIC "-//W3C//DTD SVG 1.1//EN" "http://www.w3.org/Graphics/SVG/1.1/DTD/svg11.dtd">
<svg version="1.1" id="Layer_1" xmlns="http://www.w3.org/2000/svg" xmlns:xlink="http://www.w3.org/1999/xlink" x="0px" y="0px"
	 width="56.693px" height="56.693px" viewBox="0 0 56.693 56.693" enable-background="new 0 0 56.693 56.693" xml:space="preserve">
<g>
	<path fill="#474A56" d="M33.91,29.669c0.05-0.183-0.008-0.378-0.148-0.504l-8.493-7.63c-0.094-0.084-0.214-0.128-0.334-0.128
		c-0.083,0-0.166,0.021-0.242,0.062c-0.187,0.104-0.287,0.313-0.25,0.523l1.94,11.121c0.031,0.184,0.164,0.335,0.342,0.391
		c0.049,0.016,0.1,0.023,0.15,0.023c0.131,0,0.259-0.051,0.353-0.147l1.584-1.586l2.029,3.567c0.068,0.121,0.186,0.208,0.32,0.24
		c0.038,0.009,0.076,0.013,0.114,0.013c0.099,0,0.196-0.029,0.279-0.086l2.151-1.452c0.114-0.077,0.191-0.197,0.214-0.333
		c0.022-0.136-0.012-0.274-0.095-0.384L31.59,30.41l1.934-0.382C33.711,29.991,33.859,29.852,33.91,29.669z"/>
	<path fill="#474A56" d="M9.175,15.257H48.13v24.426h3.471v-26.16c0-0.959-0.777-1.736-1.735-1.736H7.44
		c-0.959,0-1.736,0.777-1.736,1.736v26.16h3.472V15.257z"/>
	<path fill="#474A56" d="M31.341,42.614v0.659c0,0.521-0.423,0.942-0.943,0.942h-3.49c-0.521,0-0.943-0.422-0.943-0.942v-0.659
		H3.704v3.161c0,0.959,0.777,1.735,1.735,1.735h46.426c0.959,0,1.736-0.776,1.736-1.735v-3.161H31.341z"/>
</g>
</svg>
