<?xml version="1.0" encoding="utf-8"?>
<!-- Generator: Adobe Illustrator 17.0.0, SVG Export Plug-In . SVG Version: 6.00 Build 0)  -->
<!DOCTYPE svg PUBLIC "-//W3C//DTD SVG 1.1//EN" "http://www.w3.org/Graphics/SVG/1.1/DTD/svg11.dtd">
<svg version="1.1" id="Layer_1" xmlns="http://www.w3.org/2000/svg" xmlns:xlink="http://www.w3.org/1999/xlink" x="0px" y="0px"
	 width="56.693px" height="56.693px" viewBox="0 0 56.693 56.693" enable-background="new 0 0 56.693 56.693" xml:space="preserve">
<g>
	<path fill="#474A56" d="M51.293,12.288l-7.275-7.171c-0.324-0.32-0.762-0.499-1.218-0.499H14.002c-0.959,0-1.735,0.777-1.735,1.735
		v8.907c0.573,0.116,1.134,0.339,1.677,0.69c0.468-0.906,1.105-1.529,1.794-1.928V8.088h26.021v5.452c0,0.575,0.465,1.04,1.041,1.04
		h5.54v36.463H15.737v-3.86c-0.639-0.367-1.29-0.95-1.788-1.917c-0.605,0.39-1.175,0.583-1.683,0.685v6.828
		c0,0.959,0.776,1.736,1.735,1.736h36.071c0.961,0,1.737-0.777,1.737-1.736V13.523C51.81,13.059,51.623,12.614,51.293,12.288z"/>
	<path fill="#474A56" d="M14.671,40.483c0.34,0.11,0.685,0.204,1.039,0.279l0.661,2.507c0.248,0.827,0.673,1.503,1.502,1.503
		c0.83,0,1.281-0.718,1.502-1.503l0.661-2.507c0.354-0.075,0.701-0.169,1.04-0.28l1.827,1.842c0.628,0.594,1.334,0.967,2.053,0.552
		c0.719-0.415,0.75-1.262,0.551-2.053l-0.685-2.516c0.265-0.235,0.516-0.488,0.753-0.75l2.513,0.682
		c0.842,0.2,1.638,0.17,2.054-0.548c0.416-0.717,0.02-1.468-0.552-2.053l-1.842-1.828c0.111-0.339,0.205-0.685,0.28-1.038
		l2.508-0.662c0.827-0.248,1.503-0.672,1.503-1.501c0-0.832-0.717-1.281-1.503-1.504l-2.508-0.661
		c-0.075-0.353-0.169-0.699-0.28-1.039l1.842-1.828c0.595-0.629,0.968-1.334,0.552-2.053c-0.416-0.719-1.261-0.75-2.054-0.55
		l-2.513,0.685c-0.237-0.264-0.488-0.515-0.753-0.753l0.685-2.515c0.197-0.838,0.167-1.638-0.552-2.05
		c-0.719-0.416-1.466-0.021-2.052,0.549l-1.828,1.842c-0.339-0.11-0.685-0.205-1.039-0.278l-0.661-2.51
		c-0.248-0.825-0.672-1.502-1.502-1.502c-0.829,0-1.28,0.716-1.502,1.502l-0.634,2.406l0,0l-0.027,0.104
		c-0.354,0.074-0.699,0.169-1.039,0.278l-1.826-1.842c-0.63-0.592-1.334-0.965-2.054-0.549c-0.719,0.412-0.751,1.26-0.551,2.05
		l0.687,2.514c-0.265,0.239-0.516,0.488-0.754,0.753l-2.514-0.685c-0.84-0.198-1.638-0.168-2.052,0.55
		c-0.416,0.718-0.02,1.468,0.549,2.053l1.842,1.828c-0.11,0.339-0.204,0.685-0.279,1.039l-2.507,0.661
		c-0.827,0.248-1.504,0.672-1.504,1.504c0,0.829,0.717,1.28,1.504,1.501l2.507,0.662c0.075,0.353,0.169,0.698,0.279,1.038
		l-1.842,1.828c-0.593,0.629-0.965,1.335-0.549,2.053c0.414,0.72,1.26,0.751,2.052,0.548l2.514-0.682
		c0.238,0.263,0.489,0.515,0.753,0.752l-0.686,2.514c-0.197,0.84-0.168,1.638,0.55,2.053c0.721,0.415,1.469,0.02,2.053-0.55
		L14.671,40.483z M13.658,29.848c0.013-0.071,0.028-0.143,0.044-0.213c0.045-0.196,0.106-0.386,0.177-0.571
		c0.038-0.097,0.081-0.191,0.125-0.285c0.067-0.142,0.142-0.279,0.223-0.411c0.07-0.112,0.145-0.222,0.225-0.327
		c0.043-0.056,0.089-0.108,0.134-0.163c0.324-0.385,0.71-0.717,1.149-0.971l0,0c0.631-0.366,1.354-0.59,2.136-0.59
		c2.37,0,4.292,1.921,4.292,4.292c0,2.37-1.922,4.291-4.292,4.291c-0.782,0-1.506-0.225-2.138-0.591
		c-0.438-0.253-0.823-0.585-1.146-0.969c-0.045-0.055-0.093-0.107-0.136-0.165c-0.08-0.104-0.154-0.213-0.224-0.325
		c-0.082-0.133-0.156-0.271-0.224-0.412c-0.045-0.093-0.087-0.188-0.125-0.285c-0.072-0.185-0.132-0.375-0.177-0.571
		c-0.017-0.07-0.031-0.141-0.044-0.213c-0.044-0.248-0.077-0.5-0.077-0.761C13.582,30.348,13.614,30.096,13.658,29.848z"/>
</g>
</svg>
