<?xml version="1.0" encoding="utf-8"?>
<!-- Generator: Adobe Illustrator 17.0.0, SVG Export Plug-In . SVG Version: 6.00 Build 0)  -->
<!DOCTYPE svg PUBLIC "-//W3C//DTD SVG 1.1//EN" "http://www.w3.org/Graphics/SVG/1.1/DTD/svg11.dtd">
<svg version="1.1" id="Layer_1" xmlns="http://www.w3.org/2000/svg" xmlns:xlink="http://www.w3.org/1999/xlink" x="0px" y="0px"
	 width="56.693px" height="56.693px" viewBox="0 0 56.693 56.693" enable-background="new 0 0 56.693 56.693" xml:space="preserve">
<g>
	<path fill="#474A56" d="M38.792,28.492H18.276c-0.384,0-0.695,0.312-0.695,0.695c0,0.383,0.312,0.694,0.695,0.694h20.517
		c0.386,0,0.695-0.311,0.695-0.694C39.487,28.804,39.178,28.492,38.792,28.492z"/>
	<path fill="#474A56" d="M38.792,42.03H18.276c-0.384,0-0.695,0.311-0.695,0.694s0.312,0.694,0.695,0.694h20.517
		c0.386,0,0.695-0.311,0.695-0.694S39.178,42.03,38.792,42.03z"/>
	<path fill="#474A56" d="M38.792,35.294H18.276c-0.384,0-0.695,0.312-0.695,0.695c0,0.383,0.312,0.694,0.695,0.694h20.517
		c0.386,0,0.695-0.311,0.695-0.694C39.487,35.605,39.178,35.294,38.792,35.294z"/>
	<path fill="#474A56" d="M18.276,23.046h8.209c0.385,0,0.694-0.311,0.694-0.694c0-0.384-0.31-0.695-0.694-0.695h-8.209
		c-0.384,0-0.695,0.311-0.695,0.695C17.58,22.735,17.892,23.046,18.276,23.046z"/>
	<path fill="#474A56" d="M47.861,12.383l-7.275-7.171c-0.324-0.32-0.762-0.499-1.218-0.499H10.57c-0.959,0-1.735,0.777-1.735,1.735
		v46.426c0,0.959,0.776,1.736,1.735,1.736h36.071c0.961,0,1.737-0.777,1.737-1.736V13.619
		C48.379,13.154,48.192,12.709,47.861,12.383z M44.908,51.139H12.306V8.183h26.021v5.452c0,0.575,0.465,1.04,1.041,1.04h5.54V51.139
		z"/>
</g>
</svg>
