<?xml version="1.0" encoding="utf-8"?>
<!-- Generator: Adobe Illustrator 16.0.4, SVG Export Plug-In . SVG Version: 6.00 Build 0)  -->
<!DOCTYPE svg PUBLIC "-//W3C//DTD SVG 1.1//EN" "http://www.w3.org/Graphics/SVG/1.1/DTD/svg11.dtd">
<svg version="1.1" id="Layer_1" xmlns="http://www.w3.org/2000/svg" xmlns:xlink="http://www.w3.org/1999/xlink" x="0px" y="0px"
	 width="56.693px" height="56.693px" viewBox="0 0 56.693 56.693" enable-background="new 0 0 56.693 56.693" xml:space="preserve">
<path fill="#474A56" d="M52.026,25.357L30.044,6.746c-1.007-0.852-2.481-0.852-3.488,0L4.575,25.357
	c-1.137,0.961-1.278,2.664-0.315,3.801c0.962,1.137,2.664,1.279,3.802,0.315l0.352-0.298V50.61c0,0.931,0.754,1.685,1.686,1.685
	h12.407V33.79h11.589v18.505h12.406c0.932,0,1.688-0.754,1.688-1.685V29.176l0.352,0.298c0.506,0.429,1.127,0.64,1.74,0.64
	c0.768,0,1.527-0.324,2.061-0.955C53.304,28.021,53.161,26.318,52.026,25.357z"/>
</svg>
