<?xml version="1.0" encoding="utf-8"?>
<!-- Generator: Adobe Illustrator 17.0.0, SVG Export Plug-In . SVG Version: 6.00 Build 0)  -->
<!DOCTYPE svg PUBLIC "-//W3C//DTD SVG 1.1//EN" "http://www.w3.org/Graphics/SVG/1.1/DTD/svg11.dtd">
<svg version="1.1" id="Layer_1" xmlns="http://www.w3.org/2000/svg" xmlns:xlink="http://www.w3.org/1999/xlink" x="0px" y="0px"
	 width="56.693px" height="56.693px" viewBox="0 0 56.693 56.693" enable-background="new 0 0 56.693 56.693" xml:space="preserve">
<path fill="#474A56" d="M48.886,9.607c-4.839-4.84-12.682-4.839-17.519-0.001c-3.519,3.519-4.465,8.623-2.865,13.007L3.345,47.77
	l1.826,4.311l7.145-0.262l1.624-6.105l6.983-1.362l1.251-8.911l6.889,0.166l5.964-5.964c4.561,2.061,10.109,1.23,13.858-2.519
	C53.723,22.287,53.723,14.444,48.886,9.607z M45.726,16.893c-1.14,1.139-2.987,1.139-4.127,0c-1.141-1.14-1.141-2.987,0-4.126
	c1.14-1.14,2.987-1.14,4.127,0C46.865,13.906,46.865,15.753,45.726,16.893z"/>
</svg>
