<?xml version="1.0" encoding="utf-8"?>
<!-- Generator: Adobe Illustrator 17.0.0, SVG Export Plug-In . SVG Version: 6.00 Build 0)  -->
<!DOCTYPE svg PUBLIC "-//W3C//DTD SVG 1.1//EN" "http://www.w3.org/Graphics/SVG/1.1/DTD/svg11.dtd">
<svg version="1.1" id="Layer_1" xmlns="http://www.w3.org/2000/svg" xmlns:xlink="http://www.w3.org/1999/xlink" x="0px" y="0px"
	 width="56.693px" height="56.693px" viewBox="0 0 56.693 56.693" enable-background="new 0 0 56.693 56.693" xml:space="preserve">
<path fill="#474A56" d="M42.086,23.928h-2.292V15.17c0-6.233-5.07-11.303-11.303-11.303S17.187,8.938,17.187,15.17v8.758h-2.29
	c-2.492,0-4.52,2.029-4.52,4.521l2,20.868c0,2.495,2.028,4.523,4.52,4.523h23.189c2.492,0,4.521-2.028,4.521-4.523l2-20.868
	C46.607,25.958,44.578,23.928,42.086,23.928z M30.858,46.523h-4.731l-0.891-7.526c0-1.796,1.458-3.254,3.253-3.254
	c1.798,0,3.257,1.458,3.257,3.254L30.858,46.523z M34.953,23.928H22.028V15.17c0-3.564,2.899-6.463,6.463-6.463
	c3.565,0,6.462,2.899,6.462,6.463V23.928z"/>
</svg>
