<?xml version="1.0" encoding="utf-8"?>
<!-- Generator: Adobe Illustrator 16.0.4, SVG Export Plug-In . SVG Version: 6.00 Build 0)  -->
<!DOCTYPE svg PUBLIC "-//W3C//DTD SVG 1.1//EN" "http://www.w3.org/Graphics/SVG/1.1/DTD/svg11.dtd">
<svg version="1.1" id="Layer_1" xmlns="http://www.w3.org/2000/svg" xmlns:xlink="http://www.w3.org/1999/xlink" x="0px" y="0px"
	 width="56.693px" height="56.693px" viewBox="0 0 56.693 56.693" enable-background="new 0 0 56.693 56.693" xml:space="preserve">
<path fill="#474A56" d="M52.849,24.268c0-0.548-0.262-1.062-0.703-1.386L29.169,6.083c-0.604-0.441-1.422-0.441-2.025,0
	l-22.977,16.8c-0.443,0.323-0.703,0.838-0.703,1.385v27.911c0,0.947,0.768,1.717,1.715,1.717h45.955
	c0.455,0,0.891-0.182,1.213-0.504c0.322-0.32,0.504-0.758,0.504-1.213L52.849,24.268z M28.156,9.595L49.417,25.14v2.064
	L34.829,37.712l11.637,7.416c0.803,0.504,1.045,1.562,0.539,2.367c-0.324,0.518-0.883,0.801-1.453,0.801
	c-0.312,0-0.629-0.084-0.912-0.262L28.177,37.683l-16.436,10.35c-0.283,0.18-0.6,0.264-0.912,0.264c-0.57,0-1.129-0.283-1.455-0.801
	c-0.504-0.803-0.264-1.861,0.539-2.367l11.609-7.414L6.896,27.201v-2.062L28.156,9.595z"/>
</svg>
