<?xml version="1.0" encoding="utf-8"?>
<!-- Generator: Adobe Illustrator 17.0.0, SVG Export Plug-In . SVG Version: 6.00 Build 0)  -->
<!DOCTYPE svg PUBLIC "-//W3C//DTD SVG 1.1//EN" "http://www.w3.org/Graphics/SVG/1.1/DTD/svg11.dtd">
<svg version="1.1" id="Layer_1" xmlns="http://www.w3.org/2000/svg" xmlns:xlink="http://www.w3.org/1999/xlink" x="0px" y="0px"
	 width="56.693px" height="56.693px" viewBox="0 0 56.693 56.693" enable-background="new 0 0 56.693 56.693" xml:space="preserve">
<g>
	<path fill="#474A56" d="M40.064,52.486l-22.937-0.035l0.021-15.814H15.06l-0.022,16.866c0,0.281,0.109,0.551,0.305,0.75
		c0.195,0.197,0.461,0.308,0.738,0.308l25.021,0.041h0.002c0.576,0,1.041-0.472,1.043-1.056l0.024-16.909h-2.088L40.064,52.486z"/>
	<path fill="#474A56" d="M49.228,9.547h-7.041l0.004-0.944c0.002-0.276-0.105-0.542-0.291-0.74l-2.762-3.017
		c-0.197-0.205-0.467-0.322-0.75-0.322L16.14,4.5h-0.002c-0.574,0-1.041,0.471-1.043,1.051l-0.019,3.996H8.017
		c-2.381,0-4.318,1.962-4.318,4.373v15.278c0,2.412,1.938,4.372,4.318,4.372h41.211c2.381,0,4.316-1.96,4.316-4.372V13.92
		C53.545,11.509,51.609,9.547,49.228,9.547z M40.101,18.26H17.177V6.615l20.766,0.022l2.158,2.385V18.26z"/>
	<path fill="#474A56" d="M21.179,47.168h14.91c0.383,0,0.693-0.317,0.693-0.706c0-0.388-0.311-0.704-0.693-0.704h-14.91
		c-0.385,0-0.695,0.316-0.695,0.704C20.484,46.851,20.795,47.168,21.179,47.168z"/>
	<path fill="#474A56" d="M21.179,41.913h14.91c0.383,0,0.693-0.315,0.693-0.704c0-0.389-0.311-0.704-0.693-0.704h-14.91
		c-0.385,0-0.695,0.315-0.695,0.704C20.484,41.598,20.795,41.913,21.179,41.913z"/>
</g>
</svg>
