<?xml version="1.0" encoding="utf-8"?>
<!-- Generator: Adobe Illustrator 17.0.0, SVG Export Plug-In . SVG Version: 6.00 Build 0)  -->
<!DOCTYPE svg PUBLIC "-//W3C//DTD SVG 1.1//EN" "http://www.w3.org/Graphics/SVG/1.1/DTD/svg11.dtd">
<svg version="1.1" id="Layer_1" xmlns="http://www.w3.org/2000/svg" xmlns:xlink="http://www.w3.org/1999/xlink" x="0px" y="0px"
	 width="56.693px" height="56.693px" viewBox="0 0 56.693 56.693" enable-background="new 0 0 56.693 56.693" xml:space="preserve">
<g>
	<path fill="#474A56" d="M48.486,17.01H8.197c-2.662,0-4.818,2.158-4.818,4.818v14.032c0,2.662,2.156,4.819,4.818,4.819h40.289
		c2.661,0,4.819-2.157,4.819-4.819V21.829C53.305,19.168,51.147,17.01,48.486,17.01z M22.4,35.023
		c-0.116,0.302-0.348,0.556-0.684,0.762c-0.324,0.162-0.641,0.202-0.949,0.122c-0.309-0.081-0.529-0.232-0.66-0.453l-2.473-5.297
		c-0.118,0.016-0.244,0.022-0.375,0.022c-0.132,0-0.273,0-0.42,0h-1.853v4.767c0,0.266-0.115,0.496-0.344,0.695
		c-0.227,0.199-0.534,0.297-0.915,0.297c-0.397,0-0.715-0.117-0.96-0.352c-0.241-0.235-0.364-0.485-0.364-0.751V22.633
		c0-0.266,0.123-0.505,0.364-0.717c0.245-0.215,0.563-0.321,0.96-0.321h3.111c0.985,0,1.826,0.102,2.517,0.309
		c0.691,0.205,1.246,0.496,1.663,0.871c0.422,0.375,0.727,0.824,0.916,1.346c0.193,0.524,0.288,1.107,0.288,1.754v0.155
		c0,0.751-0.173,1.395-0.518,1.932c-0.347,0.536-0.952,0.967-1.82,1.29l2.448,5.01C22.498,34.468,22.518,34.722,22.4,35.023z
		 M32.463,34.87c-0.809,0.713-1.928,1.068-3.354,1.068c-0.222,0-0.494-0.024-0.816-0.076c-0.325-0.051-0.664-0.129-1.015-0.23
		c-0.354-0.104-0.706-0.229-1.049-0.377c-0.348-0.146-0.66-0.318-0.938-0.519c-0.28-0.198-0.509-0.423-0.685-0.673
		c-0.175-0.25-0.267-0.529-0.267-0.838c0-0.691,0.384-1.037,1.15-1.037c0.252,0.016,0.469,0.084,0.66,0.209
		c0.19,0.125,0.369,0.262,0.529,0.408c0.252,0.236,0.605,0.445,1.062,0.629c0.456,0.186,0.94,0.277,1.456,0.277
		c0.588,0,1.052-0.131,1.389-0.387c0.338-0.258,0.51-0.666,0.51-1.225c0-0.472-0.16-0.857-0.476-1.158
		c-0.317-0.303-0.717-0.57-1.202-0.807c-0.487-0.235-1.003-0.463-1.559-0.685c-0.55-0.22-1.067-0.497-1.556-0.826
		c-0.482-0.333-0.885-0.743-1.202-1.236c-0.314-0.493-0.473-1.122-0.473-1.888c0-0.617,0.102-1.176,0.307-1.676
		c0.207-0.5,0.504-0.934,0.886-1.303c0.382-0.367,0.851-0.65,1.412-0.85c0.558-0.198,1.191-0.297,1.897-0.297
		c0.736,0,1.38,0.092,1.933,0.275c0.55,0.185,1.015,0.408,1.391,0.672c0.373,0.266,0.657,0.541,0.848,0.828
		c0.193,0.287,0.286,0.526,0.286,0.718c0,0.339-0.084,0.614-0.255,0.827c-0.166,0.213-0.449,0.32-0.848,0.32
		c-0.233,0-0.443-0.053-0.629-0.154c-0.183-0.104-0.356-0.221-0.517-0.354c-0.177-0.146-0.451-0.316-0.817-0.507
		c-0.367-0.192-0.858-0.288-1.478-0.288c-0.53,0-0.966,0.145-1.302,0.432c-0.34,0.285-0.508,0.701-0.508,1.246
		c0,0.471,0.157,0.846,0.474,1.125c0.316,0.279,0.714,0.531,1.191,0.75c0.478,0.221,0.997,0.443,1.556,0.662
		c0.56,0.221,1.078,0.498,1.556,0.828c0.48,0.331,0.876,0.747,1.191,1.246c0.317,0.501,0.476,1.148,0.476,1.943
		C33.675,33.181,33.271,34.155,32.463,34.87z M44.003,34.87c-0.809,0.713-1.928,1.068-3.352,1.068c-0.221,0-0.494-0.024-0.819-0.076
		c-0.321-0.051-0.661-0.129-1.012-0.23c-0.355-0.104-0.703-0.229-1.051-0.377c-0.347-0.146-0.658-0.318-0.938-0.519
		c-0.279-0.198-0.508-0.423-0.684-0.673s-0.266-0.529-0.266-0.838c0-0.691,0.383-1.037,1.148-1.037
		c0.251,0.016,0.47,0.084,0.662,0.209c0.19,0.125,0.368,0.262,0.529,0.408c0.251,0.236,0.604,0.445,1.061,0.629
		c0.456,0.186,0.94,0.277,1.457,0.277c0.588,0,1.049-0.131,1.39-0.387c0.337-0.258,0.507-0.666,0.507-1.225
		c0-0.472-0.158-0.857-0.477-1.158c-0.314-0.303-0.717-0.57-1.2-0.807c-0.487-0.235-1.004-0.463-1.556-0.685
		c-0.554-0.22-1.073-0.497-1.558-0.826c-0.483-0.333-0.886-0.743-1.202-1.236c-0.315-0.493-0.476-1.122-0.476-1.888
		c0-0.617,0.104-1.176,0.311-1.676c0.205-0.5,0.5-0.934,0.883-1.303c0.382-0.367,0.852-0.65,1.412-0.85
		c0.556-0.198,1.19-0.297,1.897-0.297c0.733,0,1.379,0.092,1.931,0.275c0.551,0.185,1.014,0.408,1.39,0.672
		c0.374,0.266,0.659,0.541,0.851,0.828c0.191,0.287,0.286,0.526,0.286,0.718c0,0.339-0.085,0.614-0.254,0.827
		c-0.171,0.213-0.453,0.32-0.848,0.32c-0.236,0-0.447-0.053-0.632-0.154c-0.184-0.104-0.356-0.221-0.519-0.354
		c-0.177-0.146-0.447-0.316-0.815-0.507c-0.368-0.192-0.86-0.288-1.477-0.288c-0.532,0-0.967,0.145-1.303,0.432
		c-0.34,0.285-0.508,0.701-0.508,1.246c0,0.471,0.156,0.846,0.473,1.125c0.317,0.279,0.715,0.531,1.192,0.75
		c0.479,0.221,0.997,0.443,1.556,0.662c0.559,0.221,1.078,0.498,1.557,0.828c0.478,0.331,0.874,0.747,1.19,1.246
		c0.318,0.501,0.475,1.148,0.475,1.943C45.217,33.181,44.816,34.155,44.003,34.87z"/>
	<path fill="#474A56" d="M16.839,23.801h-1.853v4.26h1.853c1.001,0,1.717-0.169,2.153-0.508c0.434-0.338,0.647-0.771,0.647-1.301
		v-0.42c0-0.632-0.214-1.129-0.647-1.49C18.556,23.983,17.84,23.801,16.839,23.801z"/>
</g>
</svg>
