<?xml version="1.0" encoding="utf-8"?>
<!-- Generator: Adobe Illustrator 17.0.0, SVG Export Plug-In . SVG Version: 6.00 Build 0)  -->
<!DOCTYPE svg PUBLIC "-//W3C//DTD SVG 1.1//EN" "http://www.w3.org/Graphics/SVG/1.1/DTD/svg11.dtd">
<svg version="1.1" id="Layer_1" xmlns="http://www.w3.org/2000/svg" xmlns:xlink="http://www.w3.org/1999/xlink" x="0px" y="0px"
	 width="56.693px" height="56.693px" viewBox="0 0 56.693 56.693" enable-background="new 0 0 56.693 56.693" xml:space="preserve">
<path fill="#474A56" d="M28.251,14.444l3.294,9.375c0.528,1.504,1.935,2.521,3.527,2.554l9.974,0.201l-7.918,5.94
	c-1.287,0.967-1.833,2.636-1.361,4.175l2.889,9.438l-8.237-5.671c-0.652-0.448-1.408-0.674-2.166-0.674
	c-0.758,0-1.515,0.225-2.168,0.674l-8.238,5.672l2.887-9.44c0.47-1.539-0.074-3.207-1.36-4.174l-7.917-5.94l9.974-0.201
	c1.594-0.033,2.999-1.05,3.527-2.554L28.251,14.444 M28.252,5.947c-0.64,0-1.209,0.404-1.421,1.008l-5.48,15.597L4.656,22.889
	c-0.64,0.014-1.205,0.432-1.4,1.042c-0.198,0.611,0.016,1.279,0.529,1.666l13.293,9.974l-4.829,15.793
	c-0.189,0.613,0.032,1.276,0.548,1.655c0.265,0.193,0.578,0.291,0.892,0.291c0.298,0,0.595-0.088,0.851-0.266l13.712-9.441
	l13.711,9.441c0.258,0.178,0.557,0.266,0.853,0.266c0.312,0,0.625-0.098,0.89-0.291c0.515-0.379,0.737-1.044,0.549-1.655
	l-4.834-15.793l13.296-9.974c0.513-0.387,0.726-1.055,0.529-1.666c-0.196-0.61-0.761-1.028-1.401-1.042l-16.695-0.338l-5.48-15.597
	C29.459,6.351,28.89,5.947,28.252,5.947L28.252,5.947z"/>
</svg>
