<?xml version="1.0" encoding="utf-8"?>
<!-- Generator: Adobe Illustrator 17.0.0, SVG Export Plug-In . SVG Version: 6.00 Build 0)  -->
<!DOCTYPE svg PUBLIC "-//W3C//DTD SVG 1.1//EN" "http://www.w3.org/Graphics/SVG/1.1/DTD/svg11.dtd">
<svg version="1.1" id="Layer_1" xmlns="http://www.w3.org/2000/svg" xmlns:xlink="http://www.w3.org/1999/xlink" x="0px" y="0px"
	 width="56.693px" height="56.693px" viewBox="0 0 56.693 56.693" enable-background="new 0 0 56.693 56.693" xml:space="preserve">
<g>
	<path fill="#474A56" d="M28.391,4.11c-13.634,0-24.727,11.092-24.727,24.725c0,13.634,11.093,24.727,24.727,24.727
		S53.116,42.47,53.116,28.835C53.116,15.202,42.025,4.11,28.391,4.11z M28.391,48.313c-10.739,0-19.478-8.738-19.478-19.478
		c0-10.739,8.738-19.476,19.478-19.476c10.739,0,19.476,8.737,19.476,19.476C47.866,39.575,39.13,48.313,28.391,48.313z"/>
	<path fill="#474A56" d="M38.109,27.86h-9.374V14.517c0-0.808-0.654-1.464-1.463-1.464c-0.808,0-1.465,0.656-1.465,1.464v15.295
		c0,0.309,0.097,0.595,0.261,0.83c0.312,0.662,0.981,1.122,1.761,1.122h10.28c1.079,0,1.952-0.875,1.952-1.952
		C40.062,28.735,39.189,27.86,38.109,27.86z"/>
</g>
</svg>
