<?xml version="1.0" encoding="utf-8"?>
<!-- Generator: Adobe Illustrator 17.0.0, SVG Export Plug-In . SVG Version: 6.00 Build 0)  -->
<!DOCTYPE svg PUBLIC "-//W3C//DTD SVG 1.1//EN" "http://www.w3.org/Graphics/SVG/1.1/DTD/svg11.dtd">
<svg version="1.1" id="Layer_1" xmlns="http://www.w3.org/2000/svg" xmlns:xlink="http://www.w3.org/1999/xlink" x="0px" y="0px"
	 width="56.693px" height="56.693px" viewBox="0 0 56.693 56.693" enable-background="new 0 0 56.693 56.693" xml:space="preserve">
<g>
	<path fill="#474A56" d="M29.316,28.083c1.331-0.004,2.666,0.233,3.971,0.684c0.562,0.199,1.124-0.328,1.257-1.17
		c0.021-0.117,0.027-0.234,0.027-0.352c0-0.705-0.328-1.346-0.811-1.516c-1.46-0.5-2.952-0.756-4.444-0.764
		c-1.482,0.008-2.959,0.258-4.404,0.758c-0.564,0.199-0.912,1.033-0.779,1.867c0.129,0.834,0.689,1.352,1.256,1.154v0.008
		C26.672,28.302,27.994,28.081,29.316,28.083z"/>
	<path fill="#474A56" d="M16.099,15.267l0.001,0.008c4.19-2.935,8.702-4.396,13.225-4.396c4.526-0.002,9.042,1.461,13.229,4.396
		c0.524,0.367,1.147,0.035,1.396-0.752c0.064-0.213,0.097-0.436,0.097-0.652c0-0.588-0.223-1.146-0.602-1.416
		c-4.468-3.127-9.292-4.699-14.119-4.699c-4.822,0-9.644,1.574-14.115,4.699c-0.526,0.367-0.748,1.299-0.501,2.07
		C14.953,15.302,15.577,15.632,16.099,15.267z"/>
	<path fill="#474A56" d="M37.763,18.542c-2.724-1.387-5.588-2.096-8.456-2.096c-2.847-0.002-5.696,0.686-8.398,2.09
		c-0.546,0.283-0.833,1.172-0.644,1.976c0.186,0.807,0.783,1.24,1.328,0.957c2.477-1.279,5.092-1.914,7.715-1.912
		c2.636,0,5.272,0.648,7.774,1.932c0.545,0.281,1.143-0.149,1.328-0.963c0.039-0.168,0.059-0.338,0.059-0.504
		C38.469,19.375,38.198,18.767,37.763,18.542z"/>
	<path fill="#474A56" d="M19.37,35.509c-0.386-0.098-0.746-0.062-1.067,0.099c-0.33,0.165-0.54,0.395-0.629,0.701l-1.525,9.231
		l-2.216-8.903c-0.123-0.37-0.291-0.659-0.498-0.859c-0.218-0.21-0.563-0.316-1.024-0.316c-0.728,0-1.218,0.397-1.46,1.188
		L8.738,45.54l-1.531-9.256C7.106,36,6.894,35.772,6.575,35.609C6.26,35.448,5.901,35.41,5.492,35.51
		c-0.417,0.112-0.723,0.322-0.91,0.624c-0.191,0.308-0.244,0.609-0.162,0.888l2.609,12.17c0.083,0.28,0.268,0.525,0.55,0.727
		c0.28,0.2,0.623,0.302,1.019,0.302c0.396,0,0.738-0.102,1.019-0.302c0.282-0.202,0.467-0.446,0.55-0.73l2.266-8.525l2.287,8.529
		c0.082,0.28,0.267,0.524,0.549,0.727c0.28,0.2,0.623,0.302,1.019,0.302c0.38,0,0.719-0.102,1.006-0.301
		c0.29-0.202,0.48-0.446,0.565-0.738l2.604-12.148c0.085-0.289,0.031-0.592-0.159-0.898C20.117,35.833,19.803,35.621,19.37,35.509z"
		/>
	<path fill="#474A56" d="M24.416,35.46c-0.445,0-0.803,0.12-1.064,0.356c-0.266,0.24-0.4,0.518-0.4,0.823v12.379
		c0,0.306,0.134,0.583,0.4,0.823c0.261,0.236,0.62,0.356,1.064,0.356c0.401,0,0.737-0.12,0.999-0.356
		c0.266-0.241,0.4-0.518,0.4-0.823V36.64c0-0.306-0.134-0.582-0.4-0.823C25.153,35.581,24.817,35.46,24.416,35.46z"/>
	<path fill="#474A56" d="M34.077,42.098h-3.899c-0.303,0-0.578,0.122-0.818,0.362c-0.24,0.24-0.361,0.567-0.361,0.972
		c0,0.377,0.122,0.688,0.361,0.928c0.24,0.239,0.515,0.361,0.818,0.361h3.899c0.449,0,0.797-0.122,1.037-0.361
		c0.24-0.239,0.361-0.552,0.361-0.928c0-0.404-0.122-0.73-0.361-0.972C34.874,42.22,34.525,42.098,34.077,42.098z"/>
	<path fill="#474A56" d="M45.973,35.679h-5.937c-0.43,0-0.784,0.12-1.052,0.356c-0.274,0.24-0.412,0.518-0.412,0.824v12.181
		c0,0.307,0.139,0.584,0.412,0.824c0.268,0.235,0.622,0.355,1.052,0.355c0.417,0,0.758-0.121,1.012-0.358
		c0.257-0.241,0.387-0.518,0.387-0.821v-4.757h3.158c0.447,0,0.796-0.122,1.037-0.361c0.24-0.24,0.362-0.553,0.362-0.929
		c0-0.404-0.122-0.731-0.362-0.972c-0.24-0.239-0.588-0.361-1.037-0.361h-3.158v-3.358h4.538c0.448,0,0.797-0.122,1.037-0.362
		c0.24-0.24,0.362-0.552,0.362-0.927c0-0.404-0.122-0.73-0.362-0.972C46.77,35.801,46.421,35.679,45.973,35.679z"/>
	<path fill="#474A56" d="M51.836,35.817c-0.262-0.236-0.598-0.356-0.999-0.356c-0.445,0-0.803,0.12-1.065,0.356
		c-0.266,0.24-0.4,0.518-0.4,0.823v12.379c0,0.306,0.134,0.583,0.4,0.823c0.261,0.236,0.62,0.356,1.065,0.356
		c0.401,0,0.737-0.12,0.999-0.356c0.266-0.241,0.4-0.518,0.4-0.823V36.64C52.236,36.334,52.102,36.058,51.836,35.817z"/>
</g>
</svg>
