<?xml version="1.0" encoding="iso-8859-1"?>
<!-- Generator: Adobe Illustrator 19.0.0, SVG Export Plug-In . SVG Version: 6.00 Build 0)  -->
<svg version="1.1" id="Layer_1" xmlns="http://www.w3.org/2000/svg" xmlns:xlink="http://www.w3.org/1999/xlink" x="0px" y="0px"
	 viewBox="0 0 24 24" style="enable-background:new 0 0 24 24;" xml:space="preserve">
<path d="M22,10.551V6c0-1.378-1.121-2.5-2.5-2.5h-15C3.121,3.5,2,4.622,2,6v4.551C0.86,10.783,0,11.793,0,13v3v2v2
	c0,0.276,0.224,0.5,0.5,0.5S1,20.276,1,20v-1.5h22V20c0,0.276,0.224,0.5,0.5,0.5S24,20.276,24,20v-2v-2v-3
	C24,11.793,23.14,10.783,22,10.551z M3,6c0-0.827,0.673-1.5,1.5-1.5h15C20.327,4.5,21,5.173,21,6v4.5h-1.375
	c0.098-0.275,0.123-0.571,0.05-0.864l-0.5-2C19.007,6.967,18.408,6.5,17.719,6.5H14.5C13.673,6.5,13,7.173,13,8v2
	c0,0.176,0.036,0.343,0.092,0.5h-2.184C10.964,10.343,11,10.177,11,10.001v-2c0-0.827-0.673-1.5-1.5-1.5H6.281
	c-0.689,0-1.288,0.468-1.456,1.136l-0.5,2c-0.073,0.292-0.048,0.589,0.05,0.863H3V6z M14,10V8c0-0.276,0.225-0.5,0.5-0.5h3.22
	c0.23,0,0.429,0.155,0.485,0.378l0.5,2c0.038,0.151,0.005,0.307-0.091,0.43c-0.096,0.122-0.24,0.192-0.395,0.192H14.5
	C14.225,10.5,14,10.276,14,10z M5.387,10.308c-0.096-0.123-0.129-0.28-0.091-0.43l0.5-2C5.852,7.656,6.051,7.5,6.282,7.5h3.219
	c0.275,0,0.5,0.224,0.5,0.5v2c0,0.276-0.225,0.5-0.5,0.5H5.782C5.626,10.5,5.483,10.43,5.387,10.308z M1,13
	c0-0.827,0.673-1.5,1.5-1.5h3.281H9.5h5h3.719H21.5c0.827,0,1.5,0.673,1.5,1.5v2.5H1V13z M1,16.5h22v1H1V16.5z"/>
</svg>
