<?xml version="1.0" encoding="iso-8859-1"?>
<!-- Generator: Adobe Illustrator 19.0.0, SVG Export Plug-In . SVG Version: 6.00 Build 0)  -->
<svg version="1.1" id="Layer_1" xmlns="http://www.w3.org/2000/svg" xmlns:xlink="http://www.w3.org/1999/xlink" x="0px" y="0px"
	 viewBox="0 0 30 30" style="enable-background:new 0 0 30 30;" xml:space="preserve">
<path d="M29.652,6.107c-0.623-2.177-2.055-4.02-3.928-5.055c-1.231-0.681-2.679-1.04-4.184-1.04c-3.236,0-6.11,1.626-7.5,4.244
	c-1.951,3.673-1.067,10.547,1.418,13.049l-2.135,0.712c-0.197,0.065-0.333,0.246-0.342,0.453c-0.008,0.207,0.112,0.399,0.303,0.48
	l1.654,0.709l-1.578,7.887l-1.798-5.396l1.001-0.167c0.185-0.031,0.337-0.162,0.395-0.34c0.057-0.179,0.01-0.374-0.123-0.506
	l-1.432-1.432c0.132-0.057,0.259-0.106,0.405-0.181c0.217-0.111,0.322-0.361,0.25-0.593c-0.057-0.183-0.081-0.348-0.074-0.503
	c0.025-0.618,0.437-1.165,1.023-1.361l0.232-0.078c0.14-0.046,0.251-0.152,0.306-0.288s0.047-0.289-0.022-0.419
	c-1.89-3.589-2.058-9.312-0.367-12.495c0.053-0.1,0.115-0.193,0.178-0.287l0.125-0.193c0.143-0.229,0.077-0.53-0.147-0.68
	c-1.934-1.29-4.252-1.9-6.392-1.634C4.913,1.242,3.1,2.353,1.813,4.121C0.295,6.204-0.322,8.956,0.16,11.483
	c0.833,4.36,6.048,8.461,9.565,8.554l-0.706,1.766c-0.067,0.167-0.039,0.358,0.074,0.499c0.096,0.119,0.239,0.186,0.39,0.186
	c0.027,0,0.055-0.002,0.082-0.007l1-0.167l2.444,7.332c0.068,0.205,0.261,0.342,0.475,0.342c0.01,0,0.021-0.001,0.031-0.001
	c0.227-0.014,0.415-0.179,0.459-0.401l1.905-9.527l0.907,0.389c0.064,0.027,0.131,0.04,0.197,0.04c0.112,0,0.225-0.038,0.315-0.112
	c0.144-0.117,0.211-0.304,0.175-0.486l-0.323-1.617c0.434,0.112,0.915,0.174,1.45,0.174c3.372,0,8.441-2.347,10.319-5.715
	C30.038,10.726,30.299,8.372,29.652,6.107z M7.29,3.971C5.784,4.158,4.798,5.117,4.236,5.888c-1.037,1.425-1.46,3.307-1.13,5.033
	c0.052,0.271-0.126,0.533-0.398,0.585c-0.031,0.006-0.063,0.009-0.095,0.009c-0.234,0-0.444-0.167-0.49-0.406
	C1.742,9.116,2.23,6.945,3.427,5.3c0.679-0.931,1.878-2.09,3.739-2.321c0.27-0.037,0.523,0.16,0.558,0.434
	C7.759,3.687,7.565,3.937,7.29,3.971z M24.951,3.482c-0.133,0.242-0.436,0.329-0.68,0.196c-0.788-0.436-1.732-0.666-2.731-0.666
	c-1.664,0-3.813,0.696-4.851,2.65c-0.09,0.169-0.263,0.266-0.441,0.266c-0.079,0-0.16-0.019-0.234-0.059
	c-0.244-0.129-0.337-0.432-0.207-0.676c1.245-2.346,3.778-3.182,5.733-3.182c1.167,0,2.279,0.273,3.216,0.791
	C24.997,2.936,25.085,3.241,24.951,3.482z"/>
</svg>
