<?xml version="1.0" encoding="iso-8859-1"?>
<!-- Generator: Adobe Illustrator 19.0.0, SVG Export Plug-In . SVG Version: 6.00 Build 0)  -->
<svg version="1.1" id="Layer_1" xmlns="http://www.w3.org/2000/svg" xmlns:xlink="http://www.w3.org/1999/xlink" x="0px" y="0px"
	 viewBox="0 0 30 30" style="enable-background:new 0 0 30 30;" xml:space="preserve">
<path d="M15,0.5C7.005,0.5,0.5,7.005,0.5,15S7.005,29.5,15,29.5S29.5,22.995,29.5,15S22.995,0.5,15,0.5z M28.473,14.473
	c-0.327-0.013-0.653-0.026-0.973-0.062V13.5c0-0.276-0.224-0.5-0.5-0.5s-0.5,0.224-0.5,0.5v0.758
	c-1.209-0.228-2.357-0.622-3.43-1.149l0.157-0.336c0.116-0.251,0.008-0.548-0.242-0.665c-0.249-0.115-0.547-0.008-0.665,0.242
	l-0.133,0.285c-0.748-0.44-1.449-0.948-2.096-1.519l0.191-0.191c0.195-0.195,0.195-0.512,0-0.707s-0.512-0.195-0.707,0l-0.215,0.215
	c-0.614-0.627-1.165-1.314-1.648-2.05l0.438-0.204c0.25-0.117,0.359-0.415,0.242-0.665c-0.118-0.251-0.415-0.359-0.665-0.242
	l-0.538,0.251C16.666,6.58,16.263,5.564,15.977,4.5H16.5C16.776,4.5,17,4.276,17,4s-0.224-0.5-0.5-0.5h-0.758
	c-0.121-0.643-0.189-1.302-0.215-1.973C22.549,1.8,28.2,7.451,28.473,14.473z M1.527,15.527C1.854,15.54,2.18,15.553,2.5,15.589V16
	c0,0.276,0.224,0.5,0.5,0.5s0.5-0.224,0.5-0.5v-0.258c1.143,0.215,2.231,0.58,3.254,1.064c-0.063,0.231,0.037,0.48,0.261,0.584
	c0.068,0.032,0.14,0.047,0.211,0.047c0.149,0,0.279-0.082,0.376-0.201c0.731,0.412,1.422,0.887,2.06,1.423
	c-0.128,0.194-0.115,0.453,0.055,0.624c0.098,0.097,0.226,0.146,0.354,0.146c0.111,0,0.218-0.044,0.309-0.117
	c0.607,0.588,1.158,1.233,1.647,1.926l-0.176,0.082c-0.25,0.117-0.359,0.415-0.242,0.665c0.085,0.182,0.266,0.289,0.454,0.289
	c0.071,0,0.143-0.015,0.211-0.047l0.3-0.14c0.632,1.054,1.122,2.199,1.449,3.413H13c-0.276,0-0.5,0.224-0.5,0.5s0.224,0.5,0.5,0.5
	h1.258c0.121,0.643,0.189,1.302,0.215,1.973C7.451,28.2,1.8,22.549,1.527,15.527z M15.473,28.476
	c-0.024-0.671-0.092-1.331-0.205-1.976H16c0.276,0,0.5-0.224,0.5-0.5s-0.224-0.5-0.5-0.5h-0.945
	c-0.341-1.366-0.872-2.654-1.57-3.837l0.602-0.281c0.25-0.117,0.359-0.415,0.242-0.665c-0.118-0.25-0.415-0.358-0.665-0.242
	l-0.712,0.332c-0.545-0.793-1.169-1.526-1.857-2.195l0.743-0.743c0.195-0.195,0.195-0.512,0-0.707s-0.512-0.195-0.707,0
	l-0.777,0.777c-0.711-0.603-1.48-1.137-2.299-1.596l0.47-1.009c0.116-0.251,0.008-0.548-0.242-0.665
	c-0.25-0.114-0.548-0.008-0.665,0.242l-0.457,0.981C6.014,15.35,4.788,14.955,3.5,14.73V14c0-0.276-0.224-0.5-0.5-0.5
	S2.5,13.724,2.5,14v0.578c-0.321-0.033-0.649-0.04-0.976-0.051C1.771,7.461,7.461,1.771,14.527,1.524
	c0.024,0.671,0.092,1.331,0.205,1.976H14c-0.276,0-0.5,0.224-0.5,0.5s0.224,0.5,0.5,0.5h0.945c0.303,1.215,0.745,2.374,1.333,3.447
	l-0.365,0.17c-0.25,0.117-0.359,0.415-0.242,0.665c0.085,0.182,0.266,0.289,0.454,0.289c0.071,0,0.143-0.015,0.211-0.047
	l0.465-0.217c0.539,0.84,1.157,1.623,1.852,2.332l-0.492,0.492c-0.195,0.195-0.195,0.512,0,0.707
	c0.098,0.097,0.226,0.146,0.354,0.146s0.256-0.048,0.353-0.146l0.516-0.516c0.732,0.651,1.526,1.229,2.379,1.723l-0.288,0.617
	c-0.116,0.251-0.008,0.548,0.242,0.665c0.068,0.032,0.14,0.047,0.211,0.047c0.189,0,0.369-0.106,0.454-0.289l0.266-0.571
	c1.202,0.589,2.493,1.017,3.852,1.254V15.5c0,0.276,0.224,0.5,0.5,0.5s0.5-0.224,0.5-0.5v-0.078c0.321,0.033,0.649,0.04,0.976,0.051
	C28.229,22.539,22.539,28.229,15.473,28.476z"/>
</svg>
