<?xml version="1.0" encoding="iso-8859-1"?>
<!-- Generator: Adobe Illustrator 19.0.0, SVG Export Plug-In . SVG Version: 6.00 Build 0)  -->
<svg version="1.1" id="Layer_1" xmlns="http://www.w3.org/2000/svg" xmlns:xlink="http://www.w3.org/1999/xlink" x="0px" y="0px"
	 viewBox="0 0 30 30" style="enable-background:new 0 0 30 30;" xml:space="preserve">
<g>
	<polygon points="9.387,20.5 13.49,20.5 13.49,18.5 9.598,18.5 	"/>
	<polygon points="18.49,18.5 18.49,20.5 22.042,20.5 21.936,18.5 	"/>
	<path d="M10.042,9.503c0.275,0.029,0.474,0.275,0.445,0.549L9.703,17.5h3.787c0.031,0,0.057,0.012,0.087,0.018
		c0.161-0.47,0.545-0.832,1.028-0.961l1.017-3.253c-0.035-0.042-0.08-0.073-0.1-0.127l-4.23-11.279L7.544,2.753
		C6.266,2.936,5.25,3.91,5.018,5.178C4.88,5.93,4.694,6.882,4.485,7.95C3.643,12.26,2.49,18.165,2.49,21c0,0.276,0.224,0.5,0.5,0.5
		h5.287L9.493,9.948C9.522,9.674,9.77,9.471,10.042,9.503z"/>
	<path d="M19.3,1.534C18.621,1.135,17.302,0.5,15.74,0.5c-1.534,0-2.835,0.612-3.524,1.013l3.868,10.312L19.3,1.534z"/>
	<path d="M17.49,22v-4c0-0.276-0.224-0.5-0.5-0.5s-0.5,0.224-0.5,0.5v4c0,0.276,0.224,0.5,0.5,0.5S17.49,22.276,17.49,22z"/>
	<path d="M15.49,22v-4c0-0.276-0.224-0.5-0.5-0.5s-0.5,0.224-0.5,0.5v6c0,0.276,0.224,0.5,0.5,0.5s0.5-0.224,0.5-0.5V22z"/>
	<path d="M27.489,20.857c-0.039-3.643-1.531-12.155-2.177-15.681c-0.232-1.268-1.247-2.242-2.449-2.407l-2.647-0.818l-4.592,14.695
		c0.134,0.063,0.257,0.146,0.366,0.244c0.266-0.24,0.614-0.39,1-0.39c0.651,0,1.201,0.419,1.408,1h3.486l-0.394-7.474
		C21.476,9.75,21.687,9.515,21.963,9.5c0.27-0.02,0.511,0.197,0.526,0.473l0.569,10.806c0.034,0.067,0.057,0.14,0.057,0.221
		c0,0.063-0.015,0.122-0.036,0.178l0.017,0.322h3.894c0.006-0.001,0.013-0.001,0.02,0c0.276,0,0.5-0.224,0.5-0.5
		C27.51,20.95,27.503,20.902,27.489,20.857z"/>
	<path d="M18.49,21.5V22c0,0.827-0.673,1.5-1.5,1.5c-0.176,0-0.343-0.036-0.5-0.092V24c0,0.651-0.419,1.201-1,1.408v4.082
		c0.173,0.006,0.341,0.01,0.5,0.01c1.987,0,4.72-0.521,6.067-0.806c0.241-0.051,0.402-0.269,0.389-0.514l-0.352-6.68
		C22.094,21.5,18.49,21.5,18.49,21.5z"/>
	<path d="M13.49,24v-2.5H9.282l-0.698,6.63c-0.028,0.261,0.145,0.498,0.404,0.544c1.251,0.22,3.574,0.599,5.502,0.756v-4.021
		C13.909,25.201,13.49,24.651,13.49,24z"/>
</g>
</svg>
