<?xml version="1.0" encoding="iso-8859-1"?>
<!-- Generator: Adobe Illustrator 19.0.0, SVG Export Plug-In . SVG Version: 6.00 Build 0)  -->
<svg version="1.1" id="Layer_1" xmlns="http://www.w3.org/2000/svg" xmlns:xlink="http://www.w3.org/1999/xlink" x="0px" y="0px"
	 viewBox="0 0 30 30" style="enable-background:new 0 0 30 30;" xml:space="preserve">
<path d="M25.322,4.676c-0.232-1.268-1.247-2.243-2.449-2.408l-3.148-0.973c-0.365-0.254-1.98-1.296-3.975-1.296
	c-1.966,0-3.563,1.012-3.959,1.285L7.555,2.251C6.276,2.435,5.26,3.409,5.029,4.677c-0.137,0.75-0.322,1.699-0.53,2.764
	C3.654,11.754,2.5,17.664,2.5,20.501c0,0.276,0.224,0.5,0.5,0.5h5.434l-0.93,7.438c-0.033,0.261,0.142,0.503,0.401,0.553
	c0.186,0.036,4.031,0.772,6.891,0.963c0.063,0.028,0.131,0.046,0.204,0.046c0.047,0,0.09-0.015,0.134-0.027
	c0.303,0.016,0.597,0.027,0.866,0.027c2.839,0,6.942-0.972,7.116-1.013c0.237-0.057,0.399-0.275,0.383-0.518l-0.467-7.469H27
	c0.276,0,0.5-0.224,0.499-0.501C27.5,16.934,25.976,8.246,25.322,4.676z M15.752,1.001c1.406,0,2.625,0.634,3.161,0.961
	l-2.838,9.302L12.61,1.951C13.15,1.621,14.351,1.001,15.752,1.001z M5.482,7.634C5.69,6.566,5.875,5.613,6.015,4.858
	c0.155-0.845,0.83-1.494,1.724-1.623l3.946-0.899l3.847,10.338c0.016,0.044,0.055,0.068,0.081,0.104l-1.001,3.28
	c-0.482,0.13-0.864,0.492-1.025,0.96C13.558,17.013,13.531,17,13.5,17H9.822L10.5,9.547c0.026-0.275-0.178-0.518-0.453-0.543
	c-0.254-0.02-0.519,0.178-0.543,0.453l-0.96,10.544H3.513C3.636,17.074,4.737,11.436,5.482,7.634z M21.983,18.001l0.114,2H18.5v-2
	H21.983z M16.5,17.501c0-0.276,0.225-0.5,0.5-0.5s0.5,0.224,0.5,0.5v4c0,0.276-0.225,0.5-0.5,0.5s-0.5-0.224-0.5-0.5V17.501z
	 M15.5,21.501v2c0,0.276-0.225,0.5-0.5,0.5s-0.5-0.224-0.5-0.5v-6c0-0.276,0.225-0.5,0.5-0.5s0.5,0.224,0.5,0.5V21.501z
	 M9.731,18.001h3.77v2H9.549L9.731,18.001z M9.443,21.001H13.5v2.5c0,0.651,0.419,1.201,1,1.408v4.021
	c-2.188-0.177-4.884-0.643-5.944-0.835L9.443,21.001z M16,29.001c-0.159,0-0.327-0.004-0.5-0.01v-4.082c0.581-0.207,1-0.757,1-1.408
	v-0.592c0.157,0.056,0.324,0.092,0.5,0.092c0.827,0,1.5-0.673,1.5-1.5v-0.5h3.53l0.445,7.106C21.362,28.353,18.217,29.001,16,29.001
	z M23.099,20.001L22.5,9.473c-0.014-0.275-0.211-0.48-0.527-0.471c-0.276,0.015-0.487,0.251-0.471,0.527l0.425,7.472h-3.518
	c-0.207-0.581-0.757-1-1.408-1c-0.385,0-0.734,0.15-1,0.39c-0.11-0.099-0.233-0.183-0.369-0.246l4.201-13.769l2.824,0.867
	c0.853,0.121,1.529,0.77,1.683,1.615c0.621,3.384,2.028,11.395,2.153,15.143H23.099z"/>
</svg>
