<?xml version="1.0" encoding="iso-8859-1"?>
<!-- Generator: Adobe Illustrator 19.0.0, SVG Export Plug-In . SVG Version: 6.00 Build 0)  -->
<svg version="1.1" id="Layer_1" xmlns="http://www.w3.org/2000/svg" xmlns:xlink="http://www.w3.org/1999/xlink" x="0px" y="0px"
	 viewBox="0 0 30 30" style="enable-background:new 0 0 30 30;" xml:space="preserve">
<g>
	<path d="M25,1c-0.276,0-0.5,0.224-0.5,0.5v1C24.5,2.776,24.724,3,25,3s0.5-0.224,0.5-0.5v-1C25.5,1.224,25.276,1,25,1z"/>
	<path d="M25,8c-0.276,0-0.5,0.224-0.5,0.5v1c0,0.276,0.224,0.5,0.5,0.5s0.5-0.224,0.5-0.5v-1C25.5,8.224,25.276,8,25,8z"/>
	<path d="M29,5h-1c-0.276,0-0.5,0.224-0.5,0.5S27.724,6,28,6h1c0.276,0,0.5-0.224,0.5-0.5S29.276,5,29,5z"/>
	<path d="M27.121,3.879c0.128,0,0.256-0.049,0.353-0.146l0.707-0.707c0.195-0.195,0.195-0.512,0-0.707s-0.512-0.195-0.707,0
		l-0.707,0.707c-0.195,0.195-0.195,0.512,0,0.707C26.865,3.83,26.993,3.879,27.121,3.879z"/>
	<path d="M22.525,7.268l-0.707,0.707c-0.195,0.195-0.195,0.512,0,0.707c0.098,0.097,0.226,0.146,0.354,0.146
		s0.256-0.049,0.353-0.146l0.707-0.707c0.195-0.195,0.195-0.512,0-0.707S22.72,7.073,22.525,7.268z"/>
	<path d="M27.474,7.268c-0.195-0.195-0.512-0.195-0.707,0s-0.195,0.512,0,0.707l0.707,0.707c0.098,0.097,0.226,0.146,0.354,0.146
		s0.256-0.049,0.353-0.146c0.195-0.195,0.195-0.512,0-0.707L27.474,7.268z"/>
	<path d="M17.608,10.351l1.352-3.154c0.094-0.219,0.019-0.474-0.177-0.609c-1.085-0.746-2.239-1.333-3.413-1.764
		c0.032-0.037,0.065-0.073,0.086-0.12C15.918,3.675,16.344,3,18,3c1.457,0,5.363,2.116,6.746,2.931C24.826,5.978,24.913,6,25,6
		c0.171,0,0.338-0.088,0.431-0.246c0.14-0.238,0.061-0.544-0.177-0.685C24.722,4.755,19.993,2,18,2c-2.24,0-2.935,1.134-3.456,2.296
		c-0.036,0.079-0.042,0.162-0.035,0.243C13.335,4.191,12.151,4,11,4c-0.208,0-0.395,0.129-0.468,0.324L9.085,8.183
		C4.207,9.087,0.5,13.365,0.5,18.5C0.5,24.29,5.21,29,11,29s10.5-4.71,10.5-10.5C21.5,15.213,19.98,12.277,17.608,10.351z
		 M11.345,5.006c2.171,0.074,4.465,0.839,6.532,2.179L16.78,9.743C15.121,8.644,13.135,8,11,8c-0.268,0-0.531,0.02-0.793,0.04
		L11.345,5.006z M11,28c-5.238,0-9.5-4.262-9.5-9.5S5.762,9,11,9s9.5,4.262,9.5,9.5S16.238,28,11,28z"/>
	<path d="M11,10c-4.687,0-8.5,3.813-8.5,8.5C2.5,18.776,2.724,19,3,19s0.5-0.224,0.5-0.5c0-4.136,3.364-7.5,7.5-7.5
		c0.276,0,0.5-0.224,0.5-0.5S11.276,10,11,10z"/>
</g>
</svg>
