<?xml version="1.0" encoding="iso-8859-1"?>
<!-- Generator: Adobe Illustrator 19.0.0, SVG Export Plug-In . SVG Version: 6.00 Build 0)  -->
<svg version="1.1" id="Layer_1" xmlns="http://www.w3.org/2000/svg" xmlns:xlink="http://www.w3.org/1999/xlink" x="0px" y="0px"
	 viewBox="0 0 24 24" style="enable-background:new 0 0 24 24;" xml:space="preserve">
<g>
	<path d="M13.999,7.5c-3.309,0-6,2.691-6,6s2.691,6,6,6s6-2.691,6-6S17.308,7.5,13.999,7.5z M13.999,18.5c-2.757,0-5-2.243-5-5
		s2.243-5,5-5s5,2.243,5,5S16.756,18.5,13.999,18.5z"/>
	<path d="M13.999,9.5c-2.206,0-4,1.794-4,4s1.794,4,4,4s4-1.794,4-4S16.205,9.5,13.999,9.5z"/>
	<path d="M2.499,4.5h2c0.276,0,0.5-0.224,0.5-0.5s-0.224-0.5-0.5-0.5h-2c-0.276,0-0.5,0.224-0.5,0.5S2.223,4.5,2.499,4.5z"/>
	<path d="M21.499,5.5H19.22c-0.215,0-0.406-0.137-0.474-0.342l-0.544-1.633C17.997,2.912,17.426,2.5,16.779,2.5H11.22
		c-0.646,0-1.218,0.412-1.423,1.025L9.254,5.158C9.186,5.363,8.995,5.5,8.779,5.5H2.5C1.122,5.5,0,6.622,0,8v11
		c0,1.378,1.122,2.5,2.5,2.5h19c1.378,0,2.5-1.122,2.5-2.5V8C23.999,6.622,22.877,5.5,21.499,5.5z M4.499,8.5h-2
		c-0.276,0-0.5-0.224-0.5-0.5s0.224-0.5,0.5-0.5h2c0.276,0,0.5,0.224,0.5,0.5S4.775,8.5,4.499,8.5z M13.999,20.5c-3.86,0-7-3.14-7-7
		s3.14-7,7-7s7,3.14,7,7S17.859,20.5,13.999,20.5z"/>
</g>
</svg>
