<?xml version="1.0" encoding="iso-8859-1"?>
<!-- Generator: Adobe Illustrator 19.0.0, SVG Export Plug-In . SVG Version: 6.00 Build 0)  -->
<svg version="1.1" id="Layer_1" xmlns="http://www.w3.org/2000/svg" xmlns:xlink="http://www.w3.org/1999/xlink" x="0px" y="0px"
	 viewBox="0 0 24 24" style="enable-background:new 0 0 24 24;" xml:space="preserve">
<g>
	<path d="M22,19.5v-4c0-0.005-0.003-0.009-0.003-0.014c0-0.015-0.007-0.028-0.009-0.043c-0.008-0.069-0.029-0.131-0.062-0.188
		c-0.006-0.01-0.004-0.022-0.01-0.032L20,12.349V2.5C20,1.122,18.878,0,17.5,0h-11C5.122,0,4,1.122,4,2.5v9.849l-1.916,2.874
		c-0.006,0.01-0.005,0.022-0.01,0.032c-0.033,0.057-0.054,0.12-0.062,0.189c-0.002,0.015-0.008,0.028-0.009,0.042
		C2.003,15.491,2,15.495,2,15.5v4C2,19.776,2.224,20,2.5,20h1.68c-0.676,1.304-1.595,2.593-2.071,3.188
		c-0.12,0.15-0.143,0.356-0.06,0.529C2.133,23.89,2.308,24,2.5,24h19c0.192,0,0.367-0.11,0.451-0.283
		c0.083-0.173,0.06-0.379-0.06-0.529c-0.476-0.595-1.396-1.884-2.071-3.188h1.68C21.776,20,22,19.776,22,19.5z M11,12v-1.142
		C11.322,10.942,11.653,11,12,11s0.678-0.058,1-0.142V12H11z M5,12V5h3.556C8.212,5.591,8,6.268,8,7c0,1.478,0.815,2.757,2.01,3.449
		C10.008,10.467,10,10.482,10,10.5V12H5z M12,3c-0.347,0-0.678,0.058-1,0.142V1h2v2.142C12.678,3.058,12.347,3,12,3z M12,4
		c1.654,0,3,1.346,3,3s-1.346,3-3,3S9,8.654,9,7S10.346,4,12,4z M13.99,10.449C15.185,9.757,16,8.478,16,7
		c0-0.732-0.212-1.409-0.556-2H19v7h-5v-1.5C14,10.482,13.992,10.467,13.99,10.449z M19,2.5V4h-4.382
		c-0.194-0.17-0.404-0.319-0.628-0.449C13.992,3.533,14,3.518,14,3.5V1h3.5C18.327,1,19,1.673,19,2.5z M6.5,1H10v2.5
		c0,0.018,0.008,0.033,0.01,0.051C9.786,3.681,9.576,3.83,9.382,4H5V2.5C5,1.673,5.673,1,6.5,1z M4.767,13h14.465l1.333,2H3.434
		L4.767,13z M18.051,18c0.137,0.946,0.618,2.024,1.17,3H4.779c0.552-0.976,1.033-2.054,1.17-3H18.051z M3.499,23
		c0.2-0.279,0.435-0.624,0.676-1h15.649c0.242,0.376,0.477,0.721,0.676,1H3.499z M19.5,19c-0.047,0-0.09,0.015-0.134,0.027
		c-0.145-0.363-0.241-0.705-0.3-1.027H19.5c0.276,0,0.5-0.224,0.5-0.5S19.776,17,19.5,17h-15C4.224,17,4,17.224,4,17.5
		S4.224,18,4.5,18h0.434c-0.059,0.322-0.156,0.664-0.3,1.027C4.59,19.015,4.547,19,4.5,19H3v-3h18v3H19.5z"/>
	<path d="M6.5,3h2C8.776,3,9,2.776,9,2.5S8.776,2,8.5,2h-2C6.224,2,6,2.224,6,2.5S6.224,3,6.5,3z"/>
</g>
</svg>
