<?xml version="1.0" encoding="iso-8859-1"?>
<!-- Generator: Adobe Illustrator 19.0.0, SVG Export Plug-In . SVG Version: 6.00 Build 0)  -->
<svg version="1.1" id="Layer_1" xmlns="http://www.w3.org/2000/svg" xmlns:xlink="http://www.w3.org/1999/xlink" x="0px" y="0px"
	 viewBox="0 0 30 30" style="enable-background:new 0 0 30 30;" xml:space="preserve">
<g>
	<path d="M3.5,5.5h2C5.776,5.5,6,5.276,6,5S5.776,4.5,5.5,4.5h-2C3.224,4.5,3,4.724,3,5S3.224,5.5,3.5,5.5z"/>
	<path d="M17.5,13.5c-1.93,0-3.5,1.57-3.5,3.5s1.57,3.5,3.5,3.5S21,18.93,21,17S19.43,13.5,17.5,13.5z"/>
	<path d="M17.5,10.5c-3.584,0-6.5,2.916-6.5,6.5s2.916,6.5,6.5,6.5S24,20.584,24,17S21.084,10.5,17.5,10.5z M17.5,21.5
		c-2.481,0-4.5-2.019-4.5-4.5s2.019-4.5,4.5-4.5S22,14.519,22,17S19.981,21.5,17.5,21.5z"/>
	<path d="M27,7.5h-3c-0.323,0-0.514-0.137-0.611-0.418l-0.693-2.408C22.455,3.972,21.784,3.5,21.027,3.5h-7.008
		c-0.757,0-1.428,0.472-1.677,1.198l-0.678,2.359C11.536,7.423,11.232,7.5,11,7.5H3c-1.654,0-3,1.346-3,3v13.056
		C0,25.18,1.355,26.5,3.022,26.5h23.956c1.667,0,3.022-1.321,3.022-2.944V10.5C30,8.846,28.654,7.5,27,7.5z M5.5,11.5h-2
		C3.224,11.5,3,11.276,3,11s0.224-0.5,0.5-0.5h2C5.776,10.5,6,10.724,6,11S5.776,11.5,5.5,11.5z M17.5,24.5
		c-4.136,0-7.5-3.364-7.5-7.5s3.364-7.5,7.5-7.5S25,12.864,25,17S21.636,24.5,17.5,24.5z"/>
</g>
</svg>
