<?xml version="1.0" encoding="iso-8859-1"?>
<!-- Generator: Adobe Illustrator 19.0.0, SVG Export Plug-In . SVG Version: 6.00 Build 0)  -->
<svg version="1.1" id="Layer_1" xmlns="http://www.w3.org/2000/svg" xmlns:xlink="http://www.w3.org/1999/xlink" x="0px" y="0px"
	 viewBox="0 0 24 24" style="enable-background:new 0 0 24 24;" xml:space="preserve">
<g>
	<path d="M11.846,2.275L4.89,5.95C3.408,6.723,2.369,8.108,2.041,9.747L1.51,12.401c-0.038,0.188,0.035,0.379,0.187,0.496
		C1.786,12.965,1.893,13,2.001,13c0.076,0,0.153-0.018,0.224-0.053l10-5c0.169-0.085,0.276-0.258,0.276-0.447v-4
		c0-0.241,0.036-0.473,0.073-0.705c0.029-0.187-0.05-0.375-0.204-0.485C12.216,2.201,12.013,2.186,11.846,2.275z M11.224,5.947l-2,1
		C9.152,6.983,9.076,7,9.001,7c-0.184,0-0.36-0.101-0.448-0.276C8.429,6.477,8.53,6.177,8.777,6.053l2-1
		c0.247-0.123,0.547-0.023,0.671,0.224S11.471,5.824,11.224,5.947z"/>
	<path d="M19,0h-2c-1.93,0-3.5,1.57-3.5,3.5v17c0,1.93,1.57,3.5,3.5,3.5h2c1.93,0,3.5-1.57,3.5-3.5v-17C22.5,1.57,20.93,0,19,0z
		 M19,18h-0.5v0.5c0,0.276-0.224,0.5-0.5,0.5s-0.5-0.224-0.5-0.5V18H17c-0.276,0-0.5-0.224-0.5-0.5S16.724,17,17,17h0.5v-0.5
		c0-0.276,0.224-0.5,0.5-0.5s0.5,0.224,0.5,0.5V17H19c0.276,0,0.5,0.224,0.5,0.5S19.276,18,19,18z"/>
	<path d="M12.5,20.5v-2.922c0-0.386-0.502-0.615-0.793-0.405c-0.174,0.093-0.308,0.275-0.308,0.468l-0.878-0.439
		c-0.095-0.048-0.174-0.127-0.222-0.222l-0.703-1.406c-0.144-0.288-0.381-0.525-0.669-0.669l-1.703-0.851
		c-0.155-0.077-0.339-0.07-0.486,0.022c-0.147,0.091-0.237,0.252-0.237,0.425v1.422c0,1.153,0.567,2.231,1.527,2.891l3.734,2.442
		c0.083,0.054,0.178,0.082,0.273,0.082c0.087,0,0.175-0.023,0.253-0.069c0.164-0.096,0.259-0.276,0.246-0.466
		c-0.005-0.06-0.013-0.117-0.021-0.174C12.507,20.587,12.5,20.544,12.5,20.5z"/>
</g>
</svg>
