<?xml version="1.0" encoding="iso-8859-1"?>
<!-- Generator: Adobe Illustrator 19.0.0, SVG Export Plug-In . SVG Version: 6.00 Build 0)  -->
<svg version="1.1" id="Layer_1" xmlns="http://www.w3.org/2000/svg" xmlns:xlink="http://www.w3.org/1999/xlink" x="0px" y="0px"
	 viewBox="0 0 30 30" style="enable-background:new 0 0 30 30;" xml:space="preserve">
<g>
	<path d="M10,11.499c0-2.481,2.019-4.5,4.5-4.5h3.222c0.003,0,0.007,0,0.01,0c0.275,0.025,0.51-0.22,0.51-0.5
		c0-0.175-0.09-0.33-0.227-0.419c-0.663-0.688-1.572-1.081-2.515-1.081h-12c-1.93,0-3.5,1.57-3.5,3.5v7c0,1.93,1.57,3.5,3.5,3.5
		h0.359l-0.844,3.379c-0.052,0.208,0.034,0.426,0.215,0.542c0.082,0.053,0.176,0.079,0.27,0.079c0.111,0,0.222-0.037,0.313-0.109
		l4.863-3.891h0.926c0.15,0,0.293-0.067,0.387-0.184c0.095-0.116,0.133-0.269,0.102-0.416C10.031,18.103,10,17.8,10,17.499V11.499z"
		/>
	<path d="M26.5,7.999h-12c-1.93,0-3.5,1.57-3.5,3.5v6c0,1.93,1.57,3.5,3.5,3.5h6.825l4.863,3.891
		c0.09,0.072,0.201,0.109,0.312,0.109c0.003,0,0.007,0,0.01,0c0.235,0.02,0.51-0.22,0.51-0.5c0-0.091-0.024-0.177-0.067-0.251
		l-0.812-3.249H26.5c1.93,0,3.5-1.57,3.5-3.5v-6C30,9.569,28.43,7.999,26.5,7.999z"/>
</g>
</svg>
