<?xml version="1.0" encoding="iso-8859-1"?>
<!-- Generator: Adobe Illustrator 19.0.0, SVG Export Plug-In . SVG Version: 6.00 Build 0)  -->
<svg version="1.1" id="Layer_1" xmlns="http://www.w3.org/2000/svg" xmlns:xlink="http://www.w3.org/1999/xlink" x="0px" y="0px"
	 viewBox="0 0 24 24" style="enable-background:new 0 0 24 24;" xml:space="preserve">
<g>
	<path d="M20.854,17.147l-10-10c-0.144-0.143-0.358-0.186-0.545-0.108C10.122,7.116,10,7.299,10,7.501v13.846
		c0,0.191,0.109,0.366,0.281,0.449c0.172,0.084,0.377,0.063,0.526-0.055l2.539-1.985l2.216,3.988
		c0.092,0.164,0.262,0.257,0.438,0.257c0.075,0,0.152-0.017,0.224-0.053l3-1.5c0.122-0.061,0.214-0.169,0.254-0.299
		c0.04-0.13,0.025-0.271-0.04-0.391l-2.088-3.757h3.15c0.202,0,0.385-0.122,0.462-0.309S20.996,17.291,20.854,17.147z"/>
	<path d="M10.5,3.999c0.277,0,0.5-0.224,0.5-0.5v-3c0-0.276-0.224-0.5-0.5-0.5S10,0.223,10,0.499v3
		C10,3.775,10.224,3.999,10.5,3.999z"/>
	<path d="M7,7.499c0-0.276-0.224-0.5-0.5-0.5h-3c-0.276,0-0.5,0.224-0.5,0.5s0.224,0.5,0.5,0.5h3C6.777,7.999,7,7.775,7,7.499z"/>
	<path d="M14,7.499c0,0.276,0.224,0.5,0.5,0.5h3c0.277,0,0.5-0.224,0.5-0.5s-0.224-0.5-0.5-0.5h-3C14.224,6.999,14,7.223,14,7.499z"
		/>
	<path d="M5.903,2.196c-0.195-0.195-0.512-0.195-0.707,0c-0.195,0.195-0.195,0.512,0,0.707l2.122,2.121
		C7.416,5.121,7.544,5.17,7.672,5.17s0.256-0.048,0.353-0.146c0.195-0.195,0.195-0.512,0-0.707L5.903,2.196z"/>
	<path d="M7.318,9.975l-2.122,2.121c-0.195,0.195-0.195,0.512,0,0.707c0.098,0.097,0.226,0.146,0.354,0.146
		c0.128,0,0.256-0.049,0.353-0.146l2.122-2.121c0.195-0.195,0.195-0.512,0-0.707S7.513,9.78,7.318,9.975z"/>
	<path d="M13.328,5.17c0.128,0,0.256-0.048,0.353-0.146l2.122-2.121c0.195-0.195,0.195-0.512,0-0.707s-0.512-0.195-0.707,0
		l-2.122,2.121c-0.195,0.195-0.195,0.512,0,0.707C13.072,5.121,13.2,5.17,13.328,5.17z"/>
</g>
</svg>
