<?xml version="1.0" encoding="iso-8859-1"?>
<!-- Generator: Adobe Illustrator 19.0.0, SVG Export Plug-In . SVG Version: 6.00 Build 0)  -->
<svg version="1.1" id="Layer_1" xmlns="http://www.w3.org/2000/svg" xmlns:xlink="http://www.w3.org/1999/xlink" x="0px" y="0px"
	 viewBox="0 0 24 24" style="enable-background:new 0 0 24 24;" xml:space="preserve">
<g>
	<path d="M12,8c-2.206,0-4,1.794-4,4s1.794,4,4,4s4-1.794,4-4S14.206,8,12,8z M12,13c-0.551,0-1-0.449-1-1s0.449-1,1-1s1,0.449,1,1
		S12.551,13,12,13z"/>
	<path d="M12,0C5.383,0,0,5.383,0,12s5.383,12,12,12s12-5.383,12-12S18.617,0,12,0z M12,21.996c-2.674,0-5.185-1.039-7.07-2.925
		c-0.195-0.195-0.195-0.512,0-0.707s0.512-0.195,0.707,0c1.697,1.697,3.957,2.632,6.363,2.632c0.276,0,0.5,0.224,0.5,0.5
		S12.276,21.996,12,21.996z M12,17c-2.757,0-5-2.243-5-5s2.243-5,5-5s5,2.243,5,5S14.757,17,12,17z M19.071,19.071
		c-0.098,0.098-0.226,0.146-0.354,0.146s-0.256-0.049-0.354-0.146c-0.195-0.195-0.195-0.512,0-0.707
		c1.697-1.697,2.632-3.957,2.632-6.364s-0.935-4.667-2.632-6.364c-0.195-0.195-0.195-0.512,0-0.707s0.512-0.195,0.707,0
		c1.886,1.886,2.925,4.397,2.925,7.071S20.957,17.185,19.071,19.071z"/>
</g>
</svg>
