<?xml version="1.0" encoding="iso-8859-1"?>
<!-- Generator: Adobe Illustrator 19.0.0, SVG Export Plug-In . SVG Version: 6.00 Build 0)  -->
<svg version="1.1" id="Layer_1" xmlns="http://www.w3.org/2000/svg" xmlns:xlink="http://www.w3.org/1999/xlink" x="0px" y="0px"
	 viewBox="0 0 24 24" style="enable-background:new 0 0 24 24;" xml:space="preserve">
<g>
	<path d="M17.092,14.434c0.037-0.123,0.084-0.24,0.142-0.352c0.008-0.015,0.011-0.032,0.019-0.047C17.171,14.012,17.086,14,17,14
		c-0.551,0-1,0.449-1,1c0,0.637,0.645,1.131,1.253,0.966c-0.008-0.015-0.011-0.032-0.019-0.047c-0.059-0.112-0.106-0.23-0.142-0.352
		c-0.01-0.034-0.023-0.066-0.031-0.1C17.024,15.316,17,15.161,17,15s0.024-0.316,0.061-0.466
		C17.069,14.5,17.082,14.468,17.092,14.434z"/>
	<path d="M19,14c-0.261,0-0.494,0.106-0.672,0.27c-0.095,0.087-0.166,0.19-0.221,0.299c-0.006,0.012-0.016,0.02-0.021,0.032
		C18.03,14.725,18,14.86,18,15s0.03,0.275,0.086,0.399c0.005,0.012,0.016,0.02,0.021,0.032c0.054,0.11,0.126,0.212,0.221,0.299
		C18.506,15.894,18.739,16,19,16c0.551,0,1-0.449,1-1S19.551,14,19,14z"/>
	<path d="M21.5,4h-19C1.122,4,0,5.122,0,6.5v11C0,18.878,1.122,20,2.5,20h19c1.378,0,2.5-1.122,2.5-2.5v-11
		C24,5.122,22.878,4,21.5,4z M7.5,11h2c0.276,0,0.5,0.224,0.5,0.5S9.776,12,9.5,12h-2C7.224,12,7,11.776,7,11.5S7.224,11,7.5,11z
		 M3.5,11h2C5.776,11,6,11.224,6,11.5S5.776,12,5.5,12h-2C3.224,12,3,11.776,3,11.5S3.224,11,3.5,11z M3.5,14h4
		C7.776,14,8,14.224,8,14.5S7.776,15,7.5,15h-4C3.224,15,3,14.776,3,14.5S3.224,14,3.5,14z M12.5,17h-9C3.224,17,3,16.776,3,16.5
		S3.224,16,3.5,16h9c0.276,0,0.5,0.224,0.5,0.5S12.776,17,12.5,17z M13.5,12h-2c-0.276,0-0.5-0.224-0.5-0.5s0.224-0.5,0.5-0.5h2
		c0.276,0,0.5,0.224,0.5,0.5S13.776,12,13.5,12z M19,17c-0.365,0-0.704-0.106-0.999-0.277C17.697,16.901,17.354,17,17,17
		c-1.103,0-2-0.897-2-2s0.897-2,2-2c0.354,0,0.697,0.099,1.001,0.277C18.296,13.106,18.635,13,19,13c1.103,0,2,0.897,2,2
		S20.103,17,19,17z"/>
</g>
</svg>
