<?xml version="1.0" encoding="iso-8859-1"?>
<!-- Generator: Adobe Illustrator 19.0.0, SVG Export Plug-In . SVG Version: 6.00 Build 0)  -->
<svg version="1.1" id="Layer_1" xmlns="http://www.w3.org/2000/svg" xmlns:xlink="http://www.w3.org/1999/xlink" x="0px" y="0px"
	 viewBox="0 0 30 30" style="enable-background:new 0 0 30 30;" xml:space="preserve">
<g>
	<path d="M27,5H3C1.346,5,0,6.346,0,8v14c0,1.654,1.346,3,3,3h24c1.654,0,3-1.346,3-3V8C30,6.346,28.654,5,27,5z M29,22
		c0,1.103-0.897,2-2,2H3c-1.103,0-2-0.897-2-2V8c0-1.103,0.897-2,2-2h24c1.103,0,2,0.897,2,2V22z"/>
	<path d="M4.5,18h5c0.276,0,0.5-0.224,0.5-0.5S9.776,17,9.5,17h-5C4.224,17,4,17.224,4,17.5S4.224,18,4.5,18z"/>
	<path d="M15.5,20h-11C4.224,20,4,20.224,4,20.5S4.224,21,4.5,21h11c0.276,0,0.5-0.224,0.5-0.5S15.776,20,15.5,20z"/>
	<path d="M4.5,15h2C6.776,15,7,14.776,7,14.5S6.776,14,6.5,14h-2C4.224,14,4,14.224,4,14.5S4.224,15,4.5,15z"/>
	<path d="M9.5,15h2c0.276,0,0.5-0.224,0.5-0.5S11.776,14,11.5,14h-2C9.224,14,9,14.224,9,14.5S9.224,15,9.5,15z"/>
	<path d="M16.5,14h-2c-0.276,0-0.5,0.224-0.5,0.5s0.224,0.5,0.5,0.5h2c0.276,0,0.5-0.224,0.5-0.5S16.776,14,16.5,14z"/>
	<path d="M23.5,16c-0.363,0-0.706,0.081-1.017,0.221C22.171,16.087,21.84,16,21.5,16c-1.379,0-2.5,1.121-2.5,2.5s1.121,2.5,2.5,2.5
		c0.34,0,0.673-0.086,0.985-0.22C22.796,20.919,23.138,21,23.5,21c1.379,0,2.5-1.121,2.5-2.5S24.879,16,23.5,16z M20,18.5
		c0-0.827,0.673-1.5,1.5-1.5c0.004,0,0.007,0.001,0.011,0.001C21.195,17.42,21,17.936,21,18.5s0.195,1.08,0.511,1.499
		C21.507,19.999,21.504,20,21.5,20C20.673,20,20,19.327,20,18.5z M23.5,20c-0.827,0-1.5-0.673-1.5-1.5s0.673-1.5,1.5-1.5
		s1.5,0.673,1.5,1.5S24.327,20,23.5,20z"/>
</g>
</svg>
