<?xml version="1.0" encoding="iso-8859-1"?>
<!-- Generator: Adobe Illustrator 19.0.0, SVG Export Plug-In . SVG Version: 6.00 Build 0)  -->
<svg version="1.1" id="Layer_1" xmlns="http://www.w3.org/2000/svg" xmlns:xlink="http://www.w3.org/1999/xlink" x="0px" y="0px"
	 viewBox="0 0 30 30" style="enable-background:new 0 0 30 30;" xml:space="preserve">
<g>
	<path d="M16.81,25.538c-0.685,0.282-1.918,0.452-3.134-0.006c-0.258-0.097-0.547,0.034-0.644,0.293
		c-0.097,0.259,0.034,0.547,0.292,0.644c0.61,0.229,1.292,0.343,1.962,0.343c0.676,0,1.34-0.116,1.904-0.349
		c0.255-0.105,0.377-0.397,0.272-0.653C17.357,25.555,17.063,25.435,16.81,25.538z"/>
	<path d="M26.353,11.646c-0.194-0.194-0.508-0.194-0.705,0c-0.195,0.194-0.196,0.511-0.002,0.707c0.288,0.293,0.736,2.557,0,3.293
		c-0.195,0.195-0.195,0.512,0,0.707C25.744,16.451,25.872,16.5,26,16.5s0.256-0.049,0.353-0.146
		C27.476,15.231,27.055,12.348,26.353,11.646z"/>
	<path d="M24.855,21.521c-1.486,0.449-2.783-0.157-3.502-0.875c-0.195-0.195-0.512-0.195-0.707,0s-0.195,0.512,0,0.707
		c0.703,0.703,1.838,1.324,3.182,1.324c0.42,0,0.862-0.061,1.316-0.199c0.264-0.08,0.414-0.359,0.333-0.623
		C25.399,21.591,25.121,21.442,24.855,21.521z"/>
	<path d="M27.333,7.402C24.665,3.08,20.055,0.5,15,0.5C7.005,0.5,0.5,7.005,0.5,15c0,4.082,1.749,8.002,4.798,10.755
		C7.974,28.17,11.419,29.5,15,29.5c7.995,0,14.5-6.505,14.5-14.5C29.5,12.326,28.751,9.698,27.333,7.402z M19,5.5
		c0.276,0,0.5,0.224,0.5,0.5S19.276,6.5,19,6.5S18.5,6.276,18.5,6S18.724,5.5,19,5.5z M11,4.5c0.276,0,0.5,0.224,0.5,0.5
		S11.276,5.5,11,5.5S10.5,5.276,10.5,5S10.724,4.5,11,4.5z M15,7.5c2.107,0,4.084,0.883,5.504,2.424
		c-0.079,0.059-0.156,0.118-0.236,0.178c-0.697,0.53-1.084,1.637-0.551,2.439c1.344,2.022,1.072,4.737-0.648,6.458
		c-1.371,1.371-3.466,1.852-5.292,1.223c-1.01-0.345-2.001,0.188-2.197,1.181c-0.015,0.076-0.054,0.134-0.079,0.203
		C9.064,20.311,7.5,17.771,7.5,15C7.5,10.864,10.864,7.5,15,7.5z M7,19.5c0.276,0,0.5,0.224,0.5,0.5S7.276,20.5,7,20.5
		S6.5,20.276,6.5,20S6.724,19.5,7,19.5z M5,13.5c-0.276,0-0.5-0.224-0.5-0.5s0.224-0.5,0.5-0.5s0.5,0.224,0.5,0.5S5.276,13.5,5,13.5
		z M15,28.5c-3.151,0-6.189-1.107-8.617-3.128c0.006-0.006,0.012-0.011,0.018-0.017c0.014-0.013,0.03-0.026,0.045-0.038
		c0.125-0.112,0.254-0.223,0.387-0.333c0.045-0.037,0.091-0.073,0.137-0.109c0.105-0.085,0.211-0.168,0.32-0.248
		c0.057-0.043,0.116-0.083,0.174-0.124c0.101-0.071,0.203-0.141,0.306-0.207c0.064-0.041,0.129-0.08,0.193-0.119
		c0.102-0.061,0.205-0.118,0.309-0.172c0.067-0.035,0.135-0.07,0.203-0.102c0.106-0.05,0.214-0.094,0.322-0.136
		c0.067-0.026,0.134-0.054,0.201-0.076c0.118-0.039,0.238-0.068,0.357-0.096c0.059-0.013,0.116-0.032,0.175-0.042
		c0.179-0.034,0.359-0.053,0.54-0.053c0.16,0,0.316-0.012,0.466-0.034c1.05-0.159,1.823-0.857,2.025-1.868
		c0.018-0.094,0.052-0.164,0.089-0.226c0.012-0.019,0.025-0.037,0.038-0.054c0.028-0.035,0.059-0.064,0.091-0.088
		c0.003-0.003,0.007-0.005,0.01-0.008c0.118-0.084,0.253-0.11,0.35-0.11c0.1,0,0.206,0.019,0.313,0.056
		c0.633,0.217,1.295,0.327,1.966,0.329c0.009,0,0.017,0.002,0.026,0.002c1.636,0,3.174-0.637,4.332-1.794
		c2.055-2.056,2.38-5.302,0.773-7.718c-0.21-0.315,0.001-0.845,0.323-1.09C21.939,10.086,22.709,9.5,24.07,9.5
		c0.212,0,0.428-0.027,0.645-0.065c0.046-0.008,0.091-0.015,0.136-0.025c0.211-0.044,0.42-0.103,0.625-0.179
		c0.035-0.013,0.068-0.028,0.103-0.042c0.189-0.075,0.372-0.161,0.549-0.26c0.03-0.017,0.061-0.031,0.091-0.048
		c0.189-0.11,0.365-0.234,0.53-0.367c0.017-0.014,0.038-0.024,0.054-0.038C27.915,10.479,28.5,12.721,28.5,15
		C28.5,22.444,22.444,28.5,15,28.5z"/>
</g>
</svg>
