<?xml version="1.0" encoding="iso-8859-1"?>
<!-- Generator: Adobe Illustrator 19.0.0, SVG Export Plug-In . SVG Version: 6.00 Build 0)  -->
<svg version="1.1" id="Layer_1" xmlns="http://www.w3.org/2000/svg" xmlns:xlink="http://www.w3.org/1999/xlink" x="0px" y="0px"
	 viewBox="0 0 30 30" style="enable-background:new 0 0 30 30;" xml:space="preserve">
<g>
	<path d="M28.103,19.146l-2.5-2.5c-0.195-0.195-0.512-0.195-0.707,0l-10,10C14.803,26.74,14.75,26.867,14.75,27v2.5
		c0,0.276,0.224,0.5,0.5,0.5h2.5c0.133,0,0.26-0.053,0.353-0.147l7.497-7.497c0.001-0.001,0.002-0.001,0.003-0.002
		s0.001-0.002,0.002-0.003l2.498-2.498C28.298,19.658,28.298,19.341,28.103,19.146z M17.543,29H15.75v-1.793l7-7L24.543,22
		L17.543,29z M25.25,21.293L23.457,19.5l1.793-1.793l1.793,1.793L25.25,21.293z"/>
	<path d="M12.25,29H3.5c-0.413,0-0.75-0.337-0.75-0.75V4.75C2.75,4.337,3.087,4,3.5,4h3.25v0.5c0,0.276,0.224,0.5,0.5,0.5h11
		c0.276,0,0.5-0.224,0.5-0.5V4H22c0.413,0,0.75,0.337,0.75,0.75V15.5c0,0.276,0.224,0.5,0.5,0.5s0.5-0.224,0.5-0.5V4.75
		C23.75,3.785,22.965,3,22,3h-3.3c-0.232-1.14-1.242-2-2.45-2h-1.774c-0.354-0.609-1.009-1-1.726-1s-1.372,0.391-1.726,1H9.25
		C8.042,1,7.033,1.86,6.8,3H3.5C2.535,3,1.75,3.785,1.75,4.75v23.5C1.75,29.215,2.535,30,3.5,30h8.75c0.276,0,0.5-0.224,0.5-0.5
		S12.526,29,12.25,29z M9.25,2h2.091c0.212,0,0.401-0.133,0.471-0.332C11.955,1.269,12.332,1,12.75,1s0.795,0.269,0.937,0.668
		C13.758,1.867,13.946,2,14.158,2h2.092c0.827,0,1.5,0.673,1.5,1.5V4h-10V3.5C7.75,2.673,8.423,2,9.25,2z"/>
</g>
</svg>
