<?xml version="1.0" encoding="iso-8859-1"?>
<!-- Generator: Adobe Illustrator 19.0.0, SVG Export Plug-In . SVG Version: 6.00 Build 0)  -->
<svg version="1.1" id="Layer_1" xmlns="http://www.w3.org/2000/svg" xmlns:xlink="http://www.w3.org/1999/xlink" x="0px" y="0px"
	 viewBox="0 0 24 24" style="enable-background:new 0 0 24 24;" xml:space="preserve">
<g>
	<path d="M22.353,15.146l-2-2c-0.195-0.195-0.512-0.195-0.707,0l-8,8C11.553,21.24,11.5,21.367,11.5,21.5v2
		c0,0.276,0.224,0.5,0.5,0.5h2c0.133,0,0.26-0.053,0.353-0.147l5.997-5.997c0.001-0.001,0.002-0.001,0.003-0.002
		s0.001-0.002,0.002-0.003l1.998-1.998C22.548,15.658,22.548,15.341,22.353,15.146z M13.793,23H12.5v-1.293l5.5-5.5l1.293,1.293
		L13.793,23z M20,16.793L18.707,15.5L20,14.207l1.293,1.293L20,16.793z"/>
	<path d="M10,23H3c-0.275,0-0.5-0.224-0.5-0.5v-19C2.5,3.224,2.725,3,3,3h2.5v0.5C5.5,3.776,5.724,4,6,4h9
		c0.276,0,0.5-0.224,0.5-0.5V3H18c0.275,0,0.5,0.224,0.5,0.5V12c0,0.276,0.224,0.5,0.5,0.5s0.5-0.224,0.5-0.5V3.5
		C19.5,2.673,18.827,2,18,2h-2.592C15.201,1.419,14.651,1,14,1h-1.774c-0.354-0.61-1.009-1-1.726-1S9.128,0.39,8.774,1H7
		C6.35,1,5.8,1.419,5.593,2H3C2.173,2,1.5,2.673,1.5,3.5v19C1.5,23.327,2.173,24,3,24h7c0.276,0,0.5-0.224,0.5-0.5S10.276,23,10,23z
		 M7,2h2.091c0.212,0,0.401-0.133,0.471-0.332C9.705,1.269,10.082,1,10.5,1s0.795,0.269,0.937,0.668C11.508,1.867,11.696,2,11.908,2
		H14c0.275,0,0.5,0.224,0.5,0.5V3h-8V2.5C6.5,2.224,6.725,2,7,2z"/>
</g>
</svg>
