<?xml version="1.0" encoding="iso-8859-1"?>
<!-- Generator: Adobe Illustrator 19.0.0, SVG Export Plug-In . SVG Version: 6.00 Build 0)  -->
<svg version="1.1" id="Layer_1" xmlns="http://www.w3.org/2000/svg" xmlns:xlink="http://www.w3.org/1999/xlink" x="0px" y="0px"
	 viewBox="0 0 24 24" style="enable-background:new 0 0 24 24;" xml:space="preserve">
<g>
	<path d="M23,10h-0.414h-1.172h-2.828h-1.172h-2.828h-1.172h-2.828H9.414H6.586H5c-0.276,0-0.5,0.224-0.5,0.5
		C4.5,11.879,3.379,13,2,13c-0.276,0-0.5,0.224-0.5,0.5S1.724,14,2,14h0.5v9.5C2.5,23.776,2.724,24,3,24h19
		c0.276,0,0.5-0.224,0.5-0.5V14H23c0.276,0,0.5-0.224,0.5-0.5v-0.586V10.5C23.5,10.224,23.276,10,23,10z M18.793,11h1.414l-2,2
		h-1.414L18.793,11z M6.793,11h1.414l-2,2H4.793L6.793,11z M6,18H5c-0.276,0-0.5-0.224-0.5-0.5v-2C4.5,15.224,4.724,15,5,15h2
		c0.276,0,0.5,0.224,0.5,0.5S7.276,16,7,16H5.5v1H6c0.827,0,1.5,0.673,1.5,1.5S6.827,20,6,20H5c-0.276,0-0.5-0.224-0.5-0.5
		S4.724,19,5,19h1c0.275,0,0.5-0.225,0.5-0.5S6.275,18,6,18z M11,22H5c-0.276,0-0.5-0.224-0.5-0.5S4.724,21,5,21h6
		c0.276,0,0.5,0.224,0.5,0.5S11.276,22,11,22z M11.5,19.5c0,0.276-0.224,0.5-0.5,0.5s-0.5-0.224-0.5-0.5V19H9
		c-0.161,0-0.312-0.077-0.405-0.208c-0.095-0.13-0.12-0.298-0.069-0.45l1-3c0.088-0.262,0.371-0.401,0.633-0.316
		c0.262,0.088,0.403,0.371,0.316,0.633L9.693,18H11c0.276,0,0.5,0.224,0.5,0.5V19.5z M10.207,13H8.793l2-2h1.414L10.207,13z
		 M14.793,11h1.414l-2,2h-1.414L14.793,11z M20,22h-6c-0.276,0-0.5-0.224-0.5-0.5S13.724,21,14,21h6c0.276,0,0.5,0.224,0.5,0.5
		S20.276,22,20,22z M20,19h-6c-0.276,0-0.5-0.224-0.5-0.5S13.724,18,14,18h6c0.276,0,0.5,0.224,0.5,0.5S20.276,19,20,19z M20,16h-6
		c-0.276,0-0.5-0.224-0.5-0.5S13.724,15,14,15h6c0.276,0,0.5,0.224,0.5,0.5S20.276,16,20,16z M22.5,12.707l-0.328,0.328
		C22.118,13.015,22.061,13,22,13h-1.207l1.707-1.707V12.707z"/>
	<circle cx="2" cy="10.5" r="1.5"/>
	<path d="M0.519,7.594c0.004,0.019,0.002,0.038,0.008,0.057c0.002,0.005,0,0.01,0.002,0.015c0.025,0.07,0.065,0.13,0.113,0.18
		c0.002,0.002,0.003,0.006,0.005,0.008l0.141,0.141c0.13,0.131,0.323,0.179,0.499,0.125C1.554,8.038,1.78,8,2,8
		c0.972,0,1.862,0.576,2.27,1.467C4.296,9.524,4.344,9.559,4.387,9.6C4.41,9.622,4.422,9.652,4.448,9.67
		C4.53,9.725,4.625,9.759,4.725,9.759c0.053,0,0.106-0.008,0.158-0.025L8.36,8.575l0.184-0.061l4.058-1.353h0.001l0.575-0.192
		l3.13-1.043h0.001l0.262-0.087l5.588-1.863c0.261-0.089,0.403-0.372,0.316-0.634l-0.541-1.623V1.718l-0.387-1.159l-0.072-0.217
		c-0.021-0.064-0.055-0.121-0.098-0.171c-0.043-0.049-0.096-0.09-0.156-0.12c-0.121-0.058-0.259-0.066-0.386-0.022l-1.17,0.409
		c-0.001,0-0.001,0.001-0.002,0.001l-5.984,2.095c-0.001,0-0.001,0-0.002,0l-1.036,0.363l-2.567,0.898h-0.001l-0.686,0.24
		L6.433,5.069c0,0,0,0-0.001,0l-0.627,0.22l-3.2,1.12c0,0,0,0-0.001,0L0.835,7.028C0.759,7.054,0.698,7.1,0.645,7.155
		C0.63,7.171,0.62,7.188,0.607,7.206C0.573,7.251,0.548,7.3,0.531,7.354C0.527,7.367,0.516,7.376,0.513,7.39
		C0.511,7.4,0.516,7.411,0.514,7.421C0.504,7.478,0.507,7.535,0.519,7.594z M19.776,1.458l1.267,0.752l0.324,0.973L20.955,3.32
		l-2.412-1.43L19.776,1.458z M16.253,2.69l2.371,1.407l-1.255,0.419L15.02,3.122L16.253,2.69z M12.649,3.954l2.306,1.368L13.7,5.74
		l-2.284-1.355L12.649,3.954z M9.007,5.227l2.241,1.33L9.993,6.975L7.774,5.658L9.007,5.227z M5.063,6.607l2.011,1.341L5.872,8.349
		L3.881,7.021L5.063,6.607z"/>
</g>
</svg>
