<?xml version="1.0" encoding="iso-8859-1"?>
<!-- Generator: Adobe Illustrator 19.0.0, SVG Export Plug-In . SVG Version: 6.00 Build 0)  -->
<svg version="1.1" id="Layer_1" xmlns="http://www.w3.org/2000/svg" xmlns:xlink="http://www.w3.org/1999/xlink" x="0px" y="0px"
	 viewBox="0 0 24 24" style="enable-background:new 0 0 24 24;" xml:space="preserve">
<path d="M23.948,19.292c-0.263-0.526-0.648-0.953-1.105-1.262c0.1-0.494,0.157-1.002,0.157-1.515c0-2.38-3.831-7.456-5.453-9.5
	h0.952c0.276,0,0.5-0.224,0.5-0.5s-0.224-0.5-0.5-0.5H17.86c1.265-1.128,3.196-3.049,3.311-4.364
	c0.033-0.375-0.07-0.709-0.297-0.966c-0.832-0.943-3.003,0.294-4.244,1.131c-0.569-0.81-1.413-1.8-2.131-1.8s-1.562,0.99-2.131,1.8
	c-1.241-0.838-3.414-2.073-4.244-1.131c-0.227,0.257-0.33,0.591-0.297,0.966c0.114,1.315,2.046,3.236,3.311,4.364h-0.639
	c-0.276,0-0.5,0.224-0.5,0.5s0.224,0.5,0.5,0.5h0.94c-1.284,1.581-4.008,5.068-4.871,7.225l-0.635-0.141
	c0.027-0.19,0.048-0.371,0.063-0.54c0.014-0.152-0.044-0.302-0.154-0.407c-0.857-0.812-4.284-1.075-5.314-1.136
	c-0.131-0.007-0.272,0.04-0.372,0.135c-0.1,0.094-0.157,0.226-0.157,0.364v9c0,0.276,0.224,0.5,0.5,0.5h3
	c0.216,0,0.408-0.139,0.475-0.344c0.013-0.041,0.082-0.251,0.184-0.577l7.165,2.389c0.84,0.317,1.421,0.501,2.072,0.501
	c1.014-0.001,2.202-0.444,4.812-1.513l5.5-2.5c0.123-0.056,0.219-0.16,0.265-0.288C24.017,19.555,24.009,19.414,23.948,19.292z
	 M8.823,1.563C8.81,1.417,8.854,1.367,8.868,1.351c0.29-0.175,1.812,0.475,3.34,1.57c0.111,0.08,0.254,0.111,0.384,0.085
	c0.135-0.026,0.253-0.105,0.327-0.22c0.567-0.878,1.327-1.723,1.567-1.772c0.265,0.049,1.025,0.894,1.593,1.772
	c0.074,0.115,0.192,0.195,0.327,0.22c0.131,0.026,0.274-0.005,0.384-0.085c1.393-0.998,3.018-1.768,3.334-1.575
	c0.02,0.022,0.064,0.072,0.051,0.218c-0.091,1.043-2.355,3.232-3.853,4.451h-3.646C11.178,4.796,8.914,2.607,8.823,1.563z
	 M12.733,7.015h3.53c1.731,2.12,5.736,7.455,5.736,9.5c0,0.365-0.039,0.726-0.098,1.081c-0.536-0.15-1.115-0.167-1.69-0.023
	l-3.241,0.81c-0.055-0.476-0.202-0.875-0.439-1.209c0.299-0.336,0.468-0.736,0.468-1.158c0-0.938-0.655-1.569-2-1.9v-2.039
	c0.552,0.134,0.969,0.478,1.003,0.884c0.022,0.276,0.282,0.475,0.54,0.456c0.275-0.023,0.479-0.266,0.456-0.541
	c-0.078-0.925-0.905-1.651-1.999-1.822v-0.539c0-0.276-0.224-0.5-0.5-0.5s-0.5,0.224-0.5,0.5v0.541C12.86,11.242,12,12.05,12,13.015
	c0,0.936,0.655,1.568,1.999,1.899v0.978L7.56,14.461C8.586,12.074,11.981,7.92,12.733,7.015z M13.999,13.882
	C13.333,13.689,13,13.412,13,13.015c0-0.425,0.424-0.794,0.999-0.936V13.882z M14.999,16.015v-0.867c0.666,0.192,1,0.469,1,0.867
	c0,0.201-0.094,0.364-0.202,0.488c-0.236-0.143-0.511-0.264-0.823-0.364C14.985,16.098,14.999,16.059,14.999,16.015z M3.134,21.015
	H0.999v-7.964c1.607,0.127,3.341,0.403,3.972,0.709C4.705,15.95,3.506,19.841,3.134,21.015z M17.811,21.553
	c-4.204,1.724-4.351,1.668-6.152,0.988l-7.207-2.402c0.411-1.361,0.983-3.38,1.311-5.052l8.615,1.914
	c1.107,0.276,1.553,0.713,1.614,1.626l-0.96,0.24c-0.356,0.089-0.735,0.098-1.097,0.026l-4.339-0.868
	c-0.258-0.056-0.533,0.121-0.588,0.392c-0.054,0.271,0.122,0.534,0.393,0.588l4.339,0.868c0.226,0.045,0.456,0.067,0.686,0.067
	c0.286,0,0.572-0.034,0.849-0.104l1.341-0.335c0.002,0,0.004,0,0.006,0l3.831-0.958c0.873-0.216,1.764,0.088,2.315,0.756
	L17.811,21.553z"/>
</svg>
