<?xml version="1.0" encoding="iso-8859-1"?>
<!-- Generator: Adobe Illustrator 19.0.0, SVG Export Plug-In . SVG Version: 6.00 Build 0)  -->
<svg version="1.1" id="Layer_1" xmlns="http://www.w3.org/2000/svg" xmlns:xlink="http://www.w3.org/1999/xlink" x="0px" y="0px"
	 viewBox="0 0 30 30" style="enable-background:new 0 0 30 30;" xml:space="preserve">
<g>
	<path d="M7.344,16.225c-1.085-1.029-5.887-1.128-6.839-1.137c-0.148-0.016-0.262,0.051-0.357,0.145C0.053,15.328,0,15.456,0,15.589
		v12c0,0.276,0.224,0.5,0.5,0.5h4c0.223,0,0.419-0.148,0.481-0.363c0.091-0.318,2.233-7.84,2.517-11.094
		C7.511,16.48,7.455,16.331,7.344,16.225z"/>
	<path d="M29.947,24.19c-0.685-1.369-2.06-2.22-3.59-2.22c-0.327,0-0.655,0.04-0.971,0.12l-5.498,1.335
		c-1.445,0.334-2.944,0.453-4.248,0.374c2.583-0.23,5.36-0.837,5.36-2.387c0-1.536-2.852-1.814-6.461-2.166
		c-1.014-0.099-2.039-0.199-2.969-0.33c-0.965-0.136-1.906-0.296-2.797-0.478c-0.132-0.024-0.268,0.001-0.379,0.076
		s-0.188,0.191-0.212,0.323c-0.439,2.372-1.192,5.319-1.747,7.374c-0.069,0.256,0.074,0.521,0.325,0.605l7.433,2.477
		c0.957,0.361,1.702,0.618,2.569,0.618c0.001,0,0.001,0,0.001,0c1.271,0,2.728-0.545,6.01-1.891l6.935-3.152
		c0.124-0.056,0.219-0.16,0.264-0.288C30.017,24.453,30.008,24.313,29.947,24.19z"/>
	<path d="M9.647,17.587c0.669,0.124,1.354,0.242,2.061,0.341c0.904,0.127,1.899,0.224,2.927,0.324
		c1.268,0.124,2.393,0.244,3.364,0.401v-0.134c-1.344-0.383-2-1.1-2-2.157c0-1.097,0.86-2.015,2-2.227v-0.546
		c0-0.276,0.224-0.5,0.5-0.5s0.5,0.224,0.5,0.5v0.547c1.084,0.201,1.925,1.04,1.998,2.077c0.02,0.275-0.188,0.515-0.463,0.534
		c-0.291,0.026-0.515-0.188-0.534-0.463c-0.037-0.522-0.448-0.952-1.001-1.118v2.585c1.195,0.34,1.842,0.946,1.97,1.82
		c0.631,0.403,0.991,0.943,1.026,1.703c0.007,0.149,0.08,0.287,0.2,0.377c0.087,0.065,0.193,0.1,0.3,0.1
		c0.04,0,0.079-0.005,0.118-0.014l2.54-0.617c1.032-0.258,2.155-0.173,3.166,0.254c0.066,0.028,0.148,0.041,0.205,0.039
		c0.271-0.036,0.51-0.22,0.51-0.5c0.001-0.069-0.012-0.134-0.037-0.193c-0.404-3.161-5.176-9.404-6.95-11.632h-7.122
		c-1.292,1.555-4.084,5.024-5.622,7.762c-0.079,0.141-0.085,0.311-0.017,0.457S9.489,17.557,9.647,17.587z"/>
	<path d="M14.567,8.089h7.867c1.686-1.391,4.597-4.02,4.769-5.736c0.043-0.425-0.071-0.804-0.328-1.095
		c-0.158-0.178-0.454-0.391-0.969-0.391c-1.279,0-3.383,1.38-4.293,2.022c-0.792-1.077-2.203-2.8-3.113-2.8s-2.321,1.724-3.113,2.8
		c-0.91-0.642-3.015-2.022-4.294-2.022c-0.515,0-0.811,0.213-0.969,0.391C9.867,1.55,9.753,1.928,9.796,2.353
		C9.97,4.068,12.881,6.698,14.567,8.089z"/>
	<path d="M17,16.362c0,0.525,0.326,0.874,1,1.111v-2.305C17.419,15.342,17,15.81,17,16.362z"/>
	<path d="M19.269,18.904c-0.082-0.038-0.173-0.074-0.269-0.108v0.044C19.092,18.862,19.18,18.883,19.269,18.904z"/>
</g>
</svg>
