<?xml version="1.0" encoding="iso-8859-1"?>
<!-- Generator: Adobe Illustrator 19.0.0, SVG Export Plug-In . SVG Version: 6.00 Build 0)  -->
<svg version="1.1" id="Layer_1" xmlns="http://www.w3.org/2000/svg" xmlns:xlink="http://www.w3.org/1999/xlink" x="0px" y="0px"
	 viewBox="0 0 24 24" style="enable-background:new 0 0 24 24;" xml:space="preserve">
<g>
	<path d="M11.217,0.426C11.181,0.18,10.97,0,10.723,0c-0.005,0-0.011,0-0.017,0c-0.254,0.008-0.461,0.205-0.481,0.458L9.787,5.71
		c-0.027,0.324-0.602,0.324-0.629,0L8.72,0.458C8.7,0.199,8.483,0,8.223,0S7.746,0.199,7.725,0.458L7.287,5.71
		c-0.027,0.324-0.602,0.324-0.629,0L6.22,0.458C6.199,0.205,5.992,0.008,5.739,0C5.733,0,5.727,0,5.722,0
		C5.475,0,5.264,0.18,5.228,0.426l-0.907,6.05c-0.267,1.773,0.695,3.469,2.317,4.176l-0.772,10.82
		c-0.046,0.651,0.182,1.298,0.627,1.776C6.938,23.726,7.568,24,8.221,24h0.004c0.653,0,1.283-0.274,1.728-0.752
		s0.673-1.125,0.627-1.776l-0.772-10.82c1.622-0.707,2.584-2.403,2.317-4.176L11.217,0.426z"/>
	<path d="M19.511,0.092c-0.132-0.094-0.302-0.116-0.455-0.063C19.013,0.044,14.723,1.62,14.723,6.5c0,3.513,1.143,5.287,1.786,6.007
		l-0.64,0.64c-0.082,0.082-0.133,0.189-0.144,0.304l-0.791,7.911c-0.068,0.673,0.153,1.347,0.607,1.849
		C15.995,23.713,16.646,24,17.323,24c1.323,0,2.4-1.077,2.4-2.4V0.5C19.723,0.337,19.644,0.186,19.511,0.092z"/>
</g>
</svg>
