<?xml version="1.0" encoding="iso-8859-1"?>
<!-- Generator: Adobe Illustrator 19.0.0, SVG Export Plug-In . SVG Version: 6.00 Build 0)  -->
<svg version="1.1" id="Layer_1" xmlns="http://www.w3.org/2000/svg" xmlns:xlink="http://www.w3.org/1999/xlink" x="0px" y="0px"
	 viewBox="0 0 30 30" style="enable-background:new 0 0 30 30;" xml:space="preserve">
<path d="M28.456,5.295c-0.057-0.128-0.166-0.226-0.298-0.27l-3-1c-0.23-0.078-0.483,0.023-0.599,0.238L24.5,4.374V1.5
	C24.5,1.224,24.276,1,24,1h-3c-0.276,0-0.5,0.224-0.5,0.5v1.91l-2.189-0.365l0.185-1.483c0.018-0.142-0.026-0.286-0.121-0.393
	C18.28,1.062,18.144,1,18,1h-2.527l0.026-0.472c0.008-0.137-0.041-0.271-0.136-0.371C15.269,0.057,15.137,0,15,0h-2.5
	c-0.252,0-0.465,0.188-0.496,0.438l-0.509,4.074l-1.013-3.646c-0.041-0.147-0.147-0.268-0.288-0.327
	c-0.14-0.058-0.3-0.05-0.435,0.023L7.316,1.906L4.879,2.515C4.656,2.571,4.5,2.771,4.5,3v1.14L1.842,5.026
	C1.613,5.102,1.471,5.332,1.505,5.571L2.423,12H2c-0.161,0-0.312,0.078-0.406,0.208c-0.094,0.131-0.12,0.298-0.068,0.451
	l5.106,15.223C7.023,29.149,8.175,30,9.5,30h10c1.325,0,2.478-0.851,2.864-2.105l5.11-15.235c0.051-0.153,0.026-0.32-0.068-0.451
	S27.161,12,27,12h-1.242l2.701-6.303C28.515,5.568,28.513,5.423,28.456,5.295z M3.434,12l-0.88-6.158l2.041-0.68L5.013,7.92
	c-0.007,0.044-0.015,0.089-0.01,0.135L5.441,12H3.434z M5.5,4.464V3.391l1.531-0.383l0.2,4.044L5.942,7.374L5.5,4.464z M6.448,12
	L6.091,8.788C6.117,8.713,6.132,8.634,6.119,8.55L6.091,8.367L7.06,8.125L7.448,12H6.448z M10.5,5c-0.136,0-0.267,0.056-0.361,0.154
	C10.045,5.252,9.994,5.385,10,5.521l0.454,10.893c-1.087-0.998-1.811-2.389-1.93-3.952c-0.003-0.04-0.019-0.076-0.031-0.112
	L8.015,2.663l1.673-0.92L10.592,5H10.5z M11.486,17.172L11.022,6h0.847c0.004,0,0.009,0,0.014,0h0.654l0.915,11.903
	C12.748,17.777,12.086,17.524,11.486,17.172z M13.919,10.935l-0.421-5.473C13.479,5.201,13.261,5,13,5h-0.559l0.5-4h1.53
	L13.919,10.935z M15.501,5.48l-0.5,12.496c-0.156,0.013-0.313,0.022-0.472,0.023L15.417,2h2.017l-0.375,3H16
	C15.731,5,15.511,5.212,15.501,5.48z M17.527,17.164c-0.471,0.278-0.98,0.493-1.518,0.635L16.481,6h1.976L17.527,17.164z
	 M20.5,12.374c-0.008,0.029-0.021,0.056-0.024,0.088c-0.117,1.538-0.822,2.91-1.88,3.904l0.902-10.825
	c0.012-0.139-0.036-0.277-0.13-0.38C19.273,5.059,19.14,5,19,5h-0.934l0.12-0.962L20.5,4.423V12.374z M22.588,12h-1.06l0.187-3.368
	l1.453,0.363L22.588,12z M23.5,6.241l-0.816,1.523c-0.013,0.024-0.014,0.049-0.022,0.074L21.5,7.547V4V2h2V6.241z M24.671,12h-1.065
	l0.635-3.28c0.051-0.261-0.112-0.516-0.37-0.58l-0.224-0.056l0.632-1.181C24.41,6.813,24.5,6.67,24.5,6.5V6.492l0.742-1.385
	l2.085,0.695L24.671,12z"/>
</svg>
