<?xml version="1.0" encoding="iso-8859-1"?>
<!-- Generator: Adobe Illustrator 19.0.0, SVG Export Plug-In . SVG Version: 6.00 Build 0)  -->
<svg version="1.1" id="Layer_1" xmlns="http://www.w3.org/2000/svg" xmlns:xlink="http://www.w3.org/1999/xlink" x="0px" y="0px"
	 viewBox="0 0 24 24" style="enable-background:new 0 0 24 24;" xml:space="preserve">
<g>
	<path d="M9.228,8.071C9.095,7.626,9.181,7.155,9.464,6.777c0.369-0.497,1.021-0.724,1.606-0.549C12.287,6.59,13.302,7.368,14,8.37
		V4H2.5C1.121,4,0,5.122,0,6.5V11h11.371C10.368,10.303,9.591,9.288,9.228,8.071z"/>
	<path d="M18.813,7.785c0.058-0.189-0.024-0.338-0.078-0.41c-0.097-0.13-0.243-0.208-0.392-0.208c-0.042,0-0.085,0.007-0.128,0.019
		c-1.721,0.512-2.971,2.025-3.183,3.782C16.789,10.757,18.302,9.508,18.813,7.785z"/>
	<path d="M21.501,3.999h-6.5V8.37c0.697-1.002,1.712-1.78,2.93-2.143c0.585-0.175,1.236,0.053,1.606,0.549
		c0.282,0.378,0.368,0.85,0.236,1.293c-0.362,1.217-1.14,2.232-2.143,2.93h6.371v-4.5C24.001,5.121,22.88,3.999,21.501,3.999z"/>
	<path d="M10.786,7.186c-0.043-0.012-0.086-0.019-0.128-0.019c-0.148,0-0.295,0.078-0.392,0.208
		c-0.054,0.072-0.136,0.221-0.079,0.41c0.512,1.721,2.024,2.97,3.781,3.183C13.757,9.212,12.508,7.699,10.786,7.186z"/>
	<path d="M11.501,14.999c-0.128,0-0.256-0.049-0.354-0.146c-0.195-0.195-0.195-0.512,0-0.707L13.293,12H0.001v5.5
		c0,1.378,1.121,2.5,2.5,2.5h11.5v-7.293l-2.146,2.146C11.757,14.952,11.629,14.999,11.501,14.999z M3.501,14.001h4
		c0.276,0,0.5,0.224,0.5,0.5s-0.224,0.5-0.5,0.5h-4c-0.276,0-0.5-0.224-0.5-0.5S3.225,14.001,3.501,14.001z M10.501,17.001h-7
		c-0.276,0-0.5-0.224-0.5-0.5s0.224-0.5,0.5-0.5h7c0.276,0,0.5,0.224,0.5,0.5S10.777,17.001,10.501,17.001z"/>
	<path d="M17.854,14.147c0.195,0.195,0.195,0.512,0,0.707C17.756,14.952,17.628,15,17.5,15s-0.256-0.049-0.354-0.146l-2.145-2.146
		v7.293h6.5c1.379,0,2.5-1.122,2.5-2.5v-5.5h-8.293L17.854,14.147z"/>
</g>
</svg>
