<?xml version="1.0" encoding="iso-8859-1"?>
<!-- Generator: Adobe Illustrator 19.0.0, SVG Export Plug-In . SVG Version: 6.00 Build 0)  -->
<svg version="1.1" id="Layer_1" xmlns="http://www.w3.org/2000/svg" xmlns:xlink="http://www.w3.org/1999/xlink" x="0px" y="0px"
	 viewBox="0 0 30 30" style="enable-background:new 0 0 30 30;" xml:space="preserve">
<g>
	<path d="M27.5,5h-25C1.121,5,0,6.122,0,7.5v15C0,23.878,1.121,25,2.5,25h25c1.379,0,2.5-1.122,2.5-2.5v-15
		C30,6.122,28.879,5,27.5,5z M29,7.5V14h-6.983c1.368-0.836,2.428-2.141,2.913-3.767c0.179-0.602,0.007-1.258-0.448-1.714
		c-0.456-0.455-1.113-0.628-1.714-0.448C21.141,8.555,19.836,9.615,19,10.983V6h8.5C28.327,6,29,6.673,29,7.5z M19.022,13.978
		c0.198-2.355,1.736-4.266,4.031-4.949C23.118,9.01,23.185,9,23.251,9c0.189,0,0.376,0.079,0.524,0.226
		c0.198,0.198,0.271,0.468,0.196,0.721C23.289,12.242,21.376,13.78,19.022,13.978z M1,7.5C1,6.673,1.673,6,2.5,6H18v4.982
		c-0.836-1.368-2.141-2.428-3.768-2.911c-0.601-0.182-1.257-0.009-1.714,0.447c-0.455,0.456-0.627,1.112-0.448,1.714
		c0.485,1.627,1.545,2.932,2.913,3.768H1V7.5z M17.978,13.978c-2.354-0.198-4.266-1.737-4.949-4.031
		c-0.075-0.253-0.002-0.523,0.196-0.721c0.2-0.198,0.471-0.271,0.722-0.196C16.242,9.712,17.78,11.624,17.978,13.978z M1,22.5V15
		h16.293l-3.147,3.147c-0.195,0.195-0.195,0.512,0,0.707C14.244,18.951,14.372,19,14.5,19s0.256-0.049,0.353-0.146L18,15.707V24H2.5
		C1.673,24,1,23.327,1,22.5z M27.5,24H19v-8.292l3.146,3.146C22.244,18.951,22.372,19,22.5,19s0.256-0.049,0.353-0.146
		c0.195-0.195,0.195-0.512,0-0.707L19.706,15H29v7.5C29,23.327,28.327,24,27.5,24z"/>
	<path d="M4.5,19h5c0.276,0,0.5-0.224,0.5-0.5S9.776,18,9.5,18h-5C4.224,18,4,18.224,4,18.5S4.224,19,4.5,19z"/>
	<path d="M13.5,20h-9C4.224,20,4,20.224,4,20.5S4.224,21,4.5,21h9c0.276,0,0.5-0.224,0.5-0.5S13.776,20,13.5,20z"/>
</g>
</svg>
