<?xml version="1.0" encoding="iso-8859-1"?>
<!-- Generator: Adobe Illustrator 19.0.0, SVG Export Plug-In . SVG Version: 6.00 Build 0)  -->
<svg version="1.1" id="Layer_1" xmlns="http://www.w3.org/2000/svg" xmlns:xlink="http://www.w3.org/1999/xlink" x="0px" y="0px"
	 viewBox="0 0 30 30" style="enable-background:new 0 0 30 30;" xml:space="preserve">
<path d="M28,7.999H17.297c1.941-0.777,3.465-2.43,4.13-4.662c0.187-0.629,0.008-1.317-0.47-1.794
	c-0.477-0.476-1.16-0.658-1.794-0.47c-2.149,0.639-3.735,2.244-4.456,4.336C13.85,3.404,12.07,1.738,9.839,1.074
	C9.208,0.886,8.522,1.066,8.045,1.543C7.567,2.02,7.387,2.708,7.575,3.337c0.639,2.15,2.39,3.861,4.538,4.662H2
	c-0.984,0-1.5,1.006-1.5,2v3.5c0,0.779,0.36,1.26,1,1.423v10.577c0,1.619,1.311,3.5,3,3.5h21c1.689,0,3-1.881,3-3.5V14.923
	c0.64-0.164,1-0.645,1-1.423V10C29.5,9.005,28.984,7.999,28,7.999z M19.447,2.031c0.074-0.021,0.148-0.032,0.221-0.032
	c0.211,0,0.418,0.088,0.581,0.25c0.221,0.221,0.302,0.52,0.218,0.802c-0.75,2.524-2.752,4.214-5.18,4.425
	C15.473,4.848,17.064,2.741,19.447,2.031z M8.533,3.051C8.449,2.769,8.53,2.47,8.751,2.249c0.163-0.163,0.37-0.25,0.581-0.25
	c0.073,0,0.147,0.011,0.221,0.032c2.552,0.759,4.451,2.998,4.69,5.446C11.604,7.264,9.252,5.468,8.533,3.051z M1.5,9.999
	c0-0.403,0.159-1,0.5-1h11.097l-2.426,2.123c-0.208,0.183-0.23,0.498-0.047,0.706c0.182,0.209,0.498,0.229,0.705,0.047L14.5,9.101
	v4.898H2c-0.416,0-0.5-0.084-0.5-0.5V9.999z M4.5,27.999c-1.077,0-2-1.375-2-2.5v-10.5h12v13H4.5z M27.5,25.499
	c0,1.125-0.923,2.5-2,2.5h-10v-0.001V14.999h12V25.499z M28.5,13.499c0,0.416-0.084,0.5-0.5,0.5H15.5V9.351l2.12,2.473
	c0.1,0.116,0.239,0.175,0.38,0.175c0.115,0,0.231-0.04,0.325-0.121c0.21-0.18,0.235-0.496,0.055-0.705l-1.863-2.174H28
	c0.341,0,0.5,0.597,0.5,1V13.499z"/>
</svg>
