<?xml version="1.0" encoding="iso-8859-1"?>
<!-- Generator: Adobe Illustrator 19.0.0, SVG Export Plug-In . SVG Version: 6.00 Build 0)  -->
<svg version="1.1" id="Layer_1" xmlns="http://www.w3.org/2000/svg" xmlns:xlink="http://www.w3.org/1999/xlink" x="0px" y="0px"
	 viewBox="0 0 24 24" style="enable-background:new 0 0 24 24;" xml:space="preserve">
<path d="M23.918,14.758c0.019-0.03,0.037-0.059,0.049-0.093c0.01-0.029,0.013-0.058,0.018-0.087C23.989,14.551,24,14.528,24,14.501
	c0-0.01-0.005-0.018-0.006-0.027c-0.002-0.027-0.01-0.052-0.016-0.079c-0.009-0.04-0.017-0.078-0.035-0.114
	c-0.003-0.006-0.002-0.012-0.005-0.018L18.926,5.02c-0.41-0.638-1.108-1.019-1.866-1.019c-0.845,0-1.606,0.47-1.984,1.227
	l-1.025,2.05c-0.123,0.247-0.023,0.547,0.224,0.671s0.547,0.022,0.671-0.224l1.025-2.05c0.208-0.416,0.626-0.674,1.09-0.674
	c0.417,0,0.799,0.209,1.006,0.527l4.593,8.473h-0.937c-0.621-1.742-2.271-3-4.223-3c-2.21,0-4.044,1.605-4.42,3.709
	c-0.289-0.127-0.642-0.209-1.08-0.209s-0.791,0.082-1.08,0.209c-0.376-2.104-2.21-3.709-4.42-3.709c-1.953,0-3.602,1.258-4.223,3
	H1.339L5.913,5.56c0.478-0.74,1.722-0.675,2.115,0.114l1.025,2.05C9.177,7.97,9.477,8.072,9.724,7.947
	c0.247-0.124,0.348-0.424,0.224-0.671l-1.025-2.05C8.545,4.47,7.785,3.999,6.939,3.999c-0.759,0-1.456,0.381-1.885,1.051
	l-4.993,9.211c-0.004,0.007-0.003,0.015-0.007,0.023c-0.015,0.031-0.022,0.064-0.03,0.098c-0.008,0.032-0.018,0.062-0.019,0.094
	C0.005,14.485,0,14.492,0,14.501c0,0.024,0.01,0.045,0.014,0.069c0.005,0.033,0.008,0.065,0.02,0.097
	c0.012,0.032,0.029,0.06,0.046,0.089c0.015,0.026,0.029,0.051,0.049,0.073c0.025,0.028,0.055,0.05,0.086,0.072
	c0.017,0.012,0.028,0.029,0.047,0.039c0.006,0.003,0.012,0.002,0.018,0.005c0.067,0.033,0.14,0.056,0.22,0.056h1.551
	C2.032,15.167,2,15.329,2,15.501c0,2.481,2.019,4.5,4.5,4.5c2.225,0,4.065-1.627,4.424-3.751C10.968,16.175,11,16.093,11,16.001
	c0-0.249,0.309-0.5,1-0.5s1,0.251,1,0.5c0,0.092,0.032,0.174,0.076,0.249c0.359,2.124,2.2,3.751,4.424,3.751
	c2.481,0,4.5-2.019,4.5-4.5c0-0.171-0.032-0.334-0.051-0.5H23.5c0.079,0,0.152-0.022,0.218-0.055
	c0.006-0.003,0.013-0.002,0.019-0.005c0.02-0.011,0.031-0.028,0.049-0.041c0.03-0.022,0.06-0.043,0.084-0.07
	C23.89,14.807,23.903,14.783,23.918,14.758z M6.5,19.001c-1.93,0-3.5-1.57-3.5-3.5s1.57-3.5,3.5-3.5s3.5,1.57,3.5,3.5
	S8.43,19.001,6.5,19.001z M17.5,19.001c-1.93,0-3.5-1.57-3.5-3.5s1.57-3.5,3.5-3.5s3.5,1.57,3.5,3.5S19.43,19.001,17.5,19.001z"/>
</svg>
