<?xml version="1.0" encoding="iso-8859-1"?>
<!-- Generator: Adobe Illustrator 19.0.0, SVG Export Plug-In . SVG Version: 6.00 Build 0)  -->
<svg version="1.1" id="Layer_1" xmlns="http://www.w3.org/2000/svg" xmlns:xlink="http://www.w3.org/1999/xlink" x="0px" y="0px"
	 viewBox="0 0 24 24" style="enable-background:new 0 0 24 24;" xml:space="preserve">
<path d="M19,22h-4.5v-0.5c0-0.276-0.224-0.5-0.5-0.5h-0.5v-0.5c0-0.276-0.224-0.5-0.5-0.5h-0.5v-1.025c5.005-0.263,9-4.405,9-9.475
	C21.5,4.262,17.238,0,12,0S2.5,4.262,2.5,9.5c0,5.069,3.995,9.212,9,9.475V20H11c-0.276,0-0.5,0.224-0.5,0.5V21H10
	c-0.276,0-0.5,0.224-0.5,0.5V22H5c-0.276,0-0.5,0.224-0.5,0.5S4.724,23,5,23h4.5v0.5c0,0.276,0.224,0.5,0.5,0.5h4
	c0.276,0,0.5-0.224,0.5-0.5V23H19c0.276,0,0.5-0.224,0.5-0.5S19.276,22,19,22z M4.824,14.036C4.074,12.854,3.612,11.478,3.525,10
	h2.989c0.042,1.449,0.258,2.805,0.623,4H5C4.938,14,4.879,14.015,4.824,14.036z M4.824,4.964C4.879,4.985,4.938,5,5,5h2.137
	C6.772,6.195,6.556,7.551,6.514,9H3.525C3.612,7.522,4.074,6.146,4.824,4.964z M19.176,4.964c0.75,1.182,1.212,2.558,1.299,4.036
	h-2.989c-0.042-1.449-0.258-2.805-0.623-4H19C19.063,5,19.121,4.985,19.176,4.964z M19.176,14.036C19.121,14.015,19.063,14,19,14
	h-2.137c0.365-1.195,0.581-2.551,0.623-4h2.989C20.388,11.478,19.926,12.854,19.176,14.036z M12.5,17.941V15h2.895
	C14.667,16.592,13.642,17.69,12.5,17.941z M12.5,14v-4h3.986c-0.047,1.453-0.297,2.82-0.697,4H12.5z M16.486,9H12.5V5h3.289
	C16.189,6.18,16.439,7.547,16.486,9z M12.5,4V1.059C13.642,1.31,14.667,2.408,15.395,4H12.5z M11.5,1.059V4H8.605
	C9.333,2.408,10.358,1.31,11.5,1.059z M11.5,5v4H7.514c0.047-1.453,0.297-2.82,0.697-4H11.5z M7.514,10H11.5v4H8.211
	C7.811,12.82,7.561,11.453,7.514,10z M11.5,15v2.941C10.358,17.69,9.333,16.592,8.605,15H11.5z M15.082,17.413
	c0.559-0.643,1.04-1.464,1.425-2.413h1.962C17.564,16.063,16.403,16.897,15.082,17.413z M18.469,4h-1.962
	c-0.385-0.949-0.866-1.77-1.425-2.413C16.403,2.103,17.564,2.937,18.469,4z M8.918,1.587C8.359,2.23,7.878,3.051,7.493,4H5.531
	C6.436,2.937,7.597,2.103,8.918,1.587z M5.531,15h1.962c0.385,0.95,0.866,1.77,1.425,2.413C7.597,16.897,6.436,16.063,5.531,15z
	 M13.5,23h-3v-1H11c0.276,0,0.5-0.224,0.5-0.5V21h1v0.5c0,0.276,0.224,0.5,0.5,0.5h0.5V23z"/>
</svg>
