<?xml version="1.0" encoding="iso-8859-1"?>
<!-- Generator: Adobe Illustrator 19.0.0, SVG Export Plug-In . SVG Version: 6.00 Build 0)  -->
<svg version="1.1" id="Layer_1" xmlns="http://www.w3.org/2000/svg" xmlns:xlink="http://www.w3.org/1999/xlink" x="0px" y="0px"
	 viewBox="0 0 24 24" style="enable-background:new 0 0 24 24;" xml:space="preserve">
<g>
	<path d="M15,14.454v-1.008c-1.087,0.173-2.331,0.305-3.625,0.305c-3.928,0-5.219-1.627-5.272-1.696
		c-0.168-0.22-0.126-0.533,0.093-0.701c0.22-0.167,0.534-0.125,0.701,0.093c0.006,0.008,1.098,1.304,4.478,1.304
		c3.604,0,6.935-1.089,6.968-1.1c0.262-0.086,0.545,0.055,0.632,0.317s-0.055,0.545-0.317,0.632
		c-0.035,0.012-0.269,0.088-0.657,0.196v1.421c2.434-0.315,2.952-0.792,3.028-0.882c0.076-0.217,0.297-0.362,0.532-0.332
		c0.208,0.025,0.37,0.175,0.422,0.365c0.912-0.85,1.575-1.586,1.86-2.045C23.667,10.819,23.299,10.5,22.5,10.5
		c-0.76,0-1.293,0.252-1.587,0.441c-0.576-1.589-1.216-3.38-1.436-4.088C19.018,5.363,18.465,4.5,17,4.5
		c-0.87,0-1.7,0.159-2.604,0.5c-1.46-0.006-1.986-0.13-2.495-0.25C11.381,4.627,10.843,4.5,9.5,4.5
		c-2.966,0-3.922,2.213-3.971,2.332l-2.217,6.206C4.129,13.548,6.463,14.5,12.5,14.5C13.431,14.5,14.259,14.483,15,14.454z
		 M8.398,6.01C8.623,5.968,8.839,6.073,8.94,6.263C9.017,6.314,9.375,6.5,10.5,6.5c0.729,0,1.466-0.365,2.32-0.788
		c0.468-0.231,0.951-0.471,1.488-0.679c0.257-0.099,0.547,0.028,0.647,0.286c0.1,0.257-0.028,0.547-0.286,0.647
		c-0.495,0.192-0.958,0.421-1.405,0.643c-0.926,0.458-1.8,0.892-2.764,0.892c-1.903,0-2.404-0.488-2.49-0.898
		C7.954,6.332,8.128,6.067,8.398,6.01z"/>
	<path d="M17,14.327v-1.275c-0.302,0.071-0.636,0.144-1,0.216v1.136C16.36,14.381,16.689,14.355,17,14.327z"/>
	<path d="M12.5,15.5c-6.744,0-9.183-1.169-10.024-1.828C0.998,14.174,0,15.656,0,16.5c0,1.483,1.248,3,10.5,3
		c3.091,0,7.048-2.449,9.88-4.745C19.05,15.171,16.684,15.5,12.5,15.5z"/>
	<path d="M23.998,12.699c-1.671,1.967-5.208,4.88-8.754,6.536c6.182-0.742,8.043-2.802,8.135-2.908
		c0.04-0.046,0.07-0.099,0.091-0.155c0.022-0.06,0.53-1.477,0.53-3.171C24,12.897,23.999,12.799,23.998,12.699z"/>
</g>
</svg>
