<?xml version="1.0" encoding="iso-8859-1"?>
<!-- Generator: Adobe Illustrator 19.0.0, SVG Export Plug-In . SVG Version: 6.00 Build 0)  -->
<svg version="1.1" id="Layer_1" xmlns="http://www.w3.org/2000/svg" xmlns:xlink="http://www.w3.org/1999/xlink" x="0px" y="0px"
	 viewBox="0 0 24 24" style="enable-background:new 0 0 24 24;" xml:space="preserve">
<g>
	<path d="M23.461,19.314l-2-5c-0.063-0.156-0.199-0.271-0.364-0.304c-0.167-0.034-0.336,0.018-0.454,0.136
		c-0.543,0.543-1.78,0.804-3.056,0.883l-1.5-3.427l1.392-0.557l0.002-0.001c-0.96-2.909-4.259-5.091-7.735-5.091
		c-4.687,0-8.061,3.418-9.244,6.627c0.03,3.538,1.996,6.737,5.155,8.364C5.729,20.981,5.807,21,5.886,21h9.111
		c0.159,0,0.309-0.076,0.403-0.204s0.122-0.294,0.074-0.445L15.365,20h1.133c0.276,0,0.5-0.224,0.5-0.5s-0.224-0.5-0.5-0.5h-1.445
		l-0.377-1.207c0.679,0.163,1.588,0.261,2.55,0.261c0.195,0,0.392-0.006,0.588-0.014l0.726,1.659c0.08,0.182,0.259,0.3,0.458,0.3h4
		c0.166,0,0.321-0.083,0.414-0.22C23.505,19.643,23.523,19.468,23.461,19.314z M9.497,18c-1.103,0-2-0.897-2-2s0.897-2,2-2
		s2,0.897,2,2S10.601,18,9.497,18z M13.656,14.53l-0.543-1.738l2.046-0.818l1.349,3.083c-1.273-0.015-2.394-0.189-2.659-0.413
		C13.794,14.589,13.727,14.554,13.656,14.53z M14.349,16.644c-0.012-0.012-0.028-0.016-0.041-0.027l-0.268-0.856
		c0.74,0.196,1.8,0.308,2.904,0.292l0.438,1.001C15.961,17.073,14.641,16.89,14.349,16.644z M18.45,16.999l-0.439-1.004
		c1.048-0.098,2.05-0.325,2.76-0.717l0.354,0.884C20.625,16.642,19.58,16.896,18.45,16.999z M19.325,19l-0.458-1.048
		c1.04-0.129,2.003-0.39,2.644-0.825L22.26,19H19.325z"/>
	<path d="M9.747,4.954c3.931,0,7.536,2.396,8.663,5.72l1.773-0.709c0.256-0.103,0.381-0.394,0.279-0.65
		c-0.103-0.257-0.396-0.381-0.65-0.279l-0.856,0.342C17.638,5.598,14.034,3,9.997,3C5.74,3,2.128,5.815,0.925,9.682
		C2.755,7.106,5.836,4.954,9.747,4.954z"/>
</g>
</svg>
