<?xml version="1.0" encoding="iso-8859-1"?>
<!-- Generator: Adobe Illustrator 19.0.0, SVG Export Plug-In . SVG Version: 6.00 Build 0)  -->
<svg version="1.1" id="Layer_1" xmlns="http://www.w3.org/2000/svg" xmlns:xlink="http://www.w3.org/1999/xlink" x="0px" y="0px"
	 viewBox="0 0 24 24" style="enable-background:new 0 0 24 24;" xml:space="preserve">
<g>
	<path d="M23.464,19.316l-2-5c-0.063-0.156-0.199-0.27-0.364-0.304c-0.169-0.036-0.335,0.017-0.454,0.136
		c-0.543,0.543-1.78,0.803-3.056,0.883l-1.5-3.429l4.095-1.638c0.257-0.103,0.382-0.394,0.279-0.65
		c-0.103-0.258-0.396-0.381-0.65-0.279l-0.855,0.342C17.641,5.597,14.037,3,10,3c-5.238,0-9.5,4.262-9.5,9.5
		c0,3.569,1.977,6.805,5.16,8.444C5.731,20.981,5.809,21,5.889,21H15c0.276,0,0.5-0.223,0.5-0.499s-0.224-0.5-0.5-0.5H6.012
		c-2.786-1.483-4.512-4.346-4.512-7.5c0-0.267,0.016-0.53,0.04-0.791c1.257-3.445,4.546-5.757,8.209-5.757
		c3.037,0,5.817,1.582,7.408,4.145l-4.843,1.937c-0.238,0.096-0.365,0.355-0.295,0.602l2,7C14.081,19.852,14.277,20,14.5,20h2
		c0.276,0,0.5-0.224,0.5-0.5S16.776,19,16.5,19h-1.624l-0.355-1.243c0.691,0.186,1.672,0.298,2.707,0.298
		c0.195,0,0.391-0.006,0.588-0.014l0.726,1.659C18.622,19.882,18.801,20,19,20h4c0.166,0,0.321-0.083,0.414-0.218
		C23.506,19.645,23.526,19.47,23.464,19.316z M20.773,15.278l0.354,0.885c-0.499,0.48-1.545,0.735-2.674,0.838l-0.44-1.005
		C19.061,15.897,20.063,15.67,20.773,15.278z M9.749,4.954c-2.557,0-4.952,1.011-6.729,2.709C4.557,5.453,7.11,4.001,10,4.001
		c3.513,0,6.66,2.196,7.916,5.428C16.128,6.659,13.078,4.954,9.749,4.954z M15.161,11.973l1.349,3.084
		c-1.273-0.016-2.393-0.189-2.659-0.413c-0.072-0.071-0.162-0.107-0.255-0.126l-0.492-1.722L15.161,11.973z M14.352,16.645
		c-0.053-0.052-0.115-0.088-0.18-0.111l-0.23-0.804c0.741,0.213,1.844,0.338,3.004,0.324l0.439,1.002
		C15.963,17.074,14.644,16.891,14.352,16.645z M19.327,19l-0.458-1.047c1.04-0.129,2.003-0.39,2.644-0.825L22.262,19H19.327z"/>
	<path d="M9.5,13c-1.654,0-3,1.346-3,3s1.346,3,3,3s3-1.346,3-3S11.154,13,9.5,13z M9.5,18c-1.103,0-2-0.897-2-2s0.897-2,2-2
		s2,0.897,2,2S10.603,18,9.5,18z"/>
</g>
</svg>
