<?xml version="1.0" encoding="iso-8859-1"?>
<!-- Generator: Adobe Illustrator 19.0.0, SVG Export Plug-In . SVG Version: 6.00 Build 0)  -->
<svg version="1.1" id="Layer_1" xmlns="http://www.w3.org/2000/svg" xmlns:xlink="http://www.w3.org/1999/xlink" x="0px" y="0px"
	 viewBox="0 0 30 30" style="enable-background:new 0 0 30 30;" xml:space="preserve">
<g>
	<path d="M27,12.5h-3.294l-5.233-5.233C18.48,7.177,18.5,7.091,18.5,7c0-1.93-1.57-3.5-3.5-3.5c-1.851,0-3.356,1.449-3.477,3.27
		l-5.73,5.73H3c-1.379,0-2.5,1.122-2.5,2.5v9c0,1.378,1.121,2.5,2.5,2.5h24c1.379,0,2.5-1.122,2.5-2.5v-9
		C29.5,13.622,28.379,12.5,27,12.5z M15,4.5c1.379,0,2.5,1.122,2.5,2.5S16.379,9.5,15,9.5S12.5,8.378,12.5,7S13.621,4.5,15,4.5z
		 M11.674,8.034C12.118,9.457,13.432,10.5,15,10.5c1.429,0,2.656-0.863,3.199-2.093l4.093,4.093H7.207L11.674,8.034z M28.5,24
		c0,0.827-0.673,1.5-1.5,1.5H3c-0.827,0-1.5-0.673-1.5-1.5v-9c0-0.827,0.673-1.5,1.5-1.5h24c0.827,0,1.5,0.673,1.5,1.5V24z"/>
	<path d="M6,16.5c-0.276,0-0.5,0.224-0.5,0.5v2h-2v-2c0-0.276-0.224-0.5-0.5-0.5S2.5,16.724,2.5,17v5c0,0.276,0.224,0.5,0.5,0.5
		s0.5-0.224,0.5-0.5v-2h2v2c0,0.276,0.224,0.5,0.5,0.5s0.5-0.224,0.5-0.5v-5C6.5,16.724,6.276,16.5,6,16.5z"/>
	<path d="M17,16.5h-4c-0.276,0-0.5,0.224-0.5,0.5s0.224,0.5,0.5,0.5h1.5V22c0,0.276,0.224,0.5,0.5,0.5s0.5-0.224,0.5-0.5v-4.5H17
		c0.276,0,0.5-0.224,0.5-0.5S17.276,16.5,17,16.5z"/>
	<path d="M22,17.5c0.276,0,0.5-0.224,0.5-0.5s-0.224-0.5-0.5-0.5h-3c-0.276,0-0.5,0.224-0.5,0.5v5c0,0.276,0.224,0.5,0.5,0.5h3
		c0.276,0,0.5-0.224,0.5-0.5s-0.224-0.5-0.5-0.5h-2.5V20h1c0.276,0,0.5-0.224,0.5-0.5S20.776,19,20.5,19h-1v-1.5H22z"/>
	<path d="M27,21.5h-2.5V17c0-0.276-0.224-0.5-0.5-0.5s-0.5,0.224-0.5,0.5v5c0,0.276,0.224,0.5,0.5,0.5h3c0.276,0,0.5-0.224,0.5-0.5
		S27.276,21.5,27,21.5z"/>
	<path d="M9.5,16.5c-1.103,0-2,0.897-2,2v2c0,1.103,0.897,2,2,2s2-0.897,2-2v-2C11.5,17.397,10.603,16.5,9.5,16.5z M10.5,20.5
		c0,0.551-0.448,1-1,1s-1-0.449-1-1v-2c0-0.551,0.448-1,1-1s1,0.449,1,1V20.5z"/>
</g>
</svg>
