<?xml version="1.0" encoding="iso-8859-1"?>
<!-- Generator: Adobe Illustrator 19.0.0, SVG Export Plug-In . SVG Version: 6.00 Build 0)  -->
<svg version="1.1" id="Layer_1" xmlns="http://www.w3.org/2000/svg" xmlns:xlink="http://www.w3.org/1999/xlink" x="0px" y="0px"
	 viewBox="0 0 24 24" style="enable-background:new 0 0 24 24;" xml:space="preserve">
<g>
	<path d="M21,10h-1.794l-4.729-4.729C14.359,4.001,13.3,3,12,3S9.642,4.001,9.523,5.27L4.793,10H3c-1.379,0-2.5,1.122-2.5,2.5v6
		C0.5,19.878,1.621,21,3,21h18c1.379,0,2.5-1.122,2.5-2.5v-6C23.5,11.122,22.379,10,21,10z M12,4c0.827,0,1.5,0.673,1.5,1.5
		c0,0.001,0,0.001,0,0.002C13.499,6.328,12.827,7,12,7s-1.5-0.673-1.5-1.5S11.173,4,12,4z M9.71,6.497C10.096,7.38,10.976,8,12,8
		s1.903-0.62,2.289-1.503L17.792,10H6.207L9.71,6.497z M22.5,18.5c0,0.827-0.673,1.5-1.5,1.5H3c-0.827,0-1.5-0.673-1.5-1.5v-6
		C1.5,11.673,2.173,11,3,11h18c0.827,0,1.5,0.673,1.5,1.5V18.5z"/>
	<path d="M5,13c-0.276,0-0.5,0.224-0.5,0.5V15h-1v-1.5C3.5,13.224,3.276,13,3,13s-0.5,0.224-0.5,0.5v4C2.5,17.776,2.724,18,3,18
		s0.5-0.224,0.5-0.5V16h1v1.5C4.5,17.776,4.724,18,5,18s0.5-0.224,0.5-0.5v-4C5.5,13.224,5.276,13,5,13z"/>
	<path d="M8,13c-0.827,0-1.5,0.673-1.5,1.5v2C6.5,17.327,7.173,18,8,18s1.5-0.673,1.5-1.5v-2C9.5,13.673,8.827,13,8,13z M8.5,16.5
		C8.5,16.776,8.275,17,8,17c-0.275,0-0.5-0.224-0.5-0.5v-2C7.5,14.224,7.725,14,8,14c0.275,0,0.5,0.224,0.5,0.5V16.5z"/>
	<path d="M13.5,13h-3c-0.276,0-0.5,0.224-0.5,0.5s0.224,0.5,0.5,0.5h1v3.5c0,0.276,0.224,0.5,0.5,0.5s0.5-0.224,0.5-0.5V14h1
		c0.276,0,0.5-0.224,0.5-0.5S13.776,13,13.5,13z"/>
	<path d="M17,14c0.276,0,0.5-0.224,0.5-0.5S17.276,13,17,13h-2c-0.276,0-0.5,0.224-0.5,0.5v4c0,0.276,0.224,0.5,0.5,0.5h2
		c0.276,0,0.5-0.224,0.5-0.5S17.276,17,17,17h-1.5v-1H16c0.276,0,0.5-0.224,0.5-0.5S16.276,15,16,15h-0.5v-1H17z"/>
	<path d="M21,17h-1.5v-3.5c0-0.276-0.224-0.5-0.5-0.5s-0.5,0.224-0.5,0.5v4c0,0.276,0.224,0.5,0.5,0.5h2c0.276,0,0.5-0.224,0.5-0.5
		S21.276,17,21,17z"/>
</g>
</svg>
