<?xml version="1.0" encoding="iso-8859-1"?>
<!-- Generator: Adobe Illustrator 19.0.0, SVG Export Plug-In . SVG Version: 6.00 Build 0)  -->
<svg version="1.1" id="Layer_1" xmlns="http://www.w3.org/2000/svg" xmlns:xlink="http://www.w3.org/1999/xlink" x="0px" y="0px"
	 viewBox="0 0 30 30" style="enable-background:new 0 0 30 30;" xml:space="preserve">
<g>
	<path d="M29.5,3.001h-29c-0.276,0-0.5,0.224-0.5,0.5v23c0,0.015,0.007,0.028,0.009,0.043c0.003,0.034,0.01,0.066,0.02,0.099
		c0.009,0.031,0.02,0.06,0.034,0.088c0.014,0.027,0.031,0.051,0.051,0.075c0.022,0.028,0.045,0.053,0.073,0.076
		c0.011,0.009,0.017,0.022,0.029,0.03c0.014,0.01,0.03,0.011,0.044,0.019c0.03,0.017,0.06,0.03,0.093,0.04
		c0.032,0.01,0.063,0.016,0.097,0.019C0.467,26.992,0.482,27,0.5,27h29c0.086,0,0.163-0.027,0.234-0.066
		c0.008-0.005,0.018-0.002,0.027-0.007c0.017-0.01,0.026-0.027,0.041-0.038c0.027-0.021,0.053-0.043,0.075-0.07
		c0.02-0.024,0.036-0.049,0.052-0.077s0.03-0.056,0.04-0.087c0.01-0.032,0.016-0.064,0.02-0.097C29.991,26.538,30,26.52,30,26.501
		v-23C30,3.225,29.776,3.001,29.5,3.001z M29,24.723L18.927,8.241c-0.093-0.151-0.216-0.249-0.438-0.239
		c-0.178,0.004-0.34,0.102-0.427,0.257l-4.678,8.42l-3.531-3.531c-0.103-0.104-0.249-0.159-0.398-0.145
		c-0.147,0.013-0.282,0.091-0.366,0.213L1,24.9V4.001h28V24.723z"/>
	<circle cx="11" cy="9.001" r="3"/>
</g>
</svg>
