<?xml version="1.0" encoding="iso-8859-1"?>
<!-- Generator: Adobe Illustrator 19.0.0, SVG Export Plug-In . SVG Version: 6.00 Build 0)  -->
<svg version="1.1" id="Layer_1" xmlns="http://www.w3.org/2000/svg" xmlns:xlink="http://www.w3.org/1999/xlink" x="0px" y="0px"
	 viewBox="0 0 24 24" style="enable-background:new 0 0 24 24;" xml:space="preserve">
<g>
	<path d="M12,0C5.383,0,0,5.383,0,12s5.383,12,12,12s12-5.383,12-12S18.617,0,12,0z M12,23C5.935,23,1,18.065,1,12S5.935,1,12,1
		s11,4.935,11,11S18.065,23,12,23z"/>
	<path d="M17.74,15.079c-0.229-0.149-0.54-0.082-0.69,0.151c-1.112,1.734-3,2.77-5.051,2.77s-3.94-1.036-5.051-2.77
		c-0.15-0.234-0.461-0.301-0.69-0.151c-0.232,0.149-0.3,0.458-0.151,0.691C7.404,17.792,9.606,19,12,19s4.596-1.208,5.891-3.23
		C18.041,15.537,17.972,15.228,17.74,15.079z"/>
	<path d="M6.5,14c0.128,0,0.256-0.049,0.354-0.146l3.414-3.414C10.74,9.967,11,9.339,11,8.607c0-1.273-0.896-2.379-2.084-2.573
		C8.186,5.918,7.441,6.12,6.881,6.596C6.738,6.718,6.61,6.854,6.5,7.001C6.39,6.853,6.262,6.718,6.119,6.596
		C5.56,6.119,4.814,5.917,4.084,6.034C2.896,6.228,2,7.334,2,8.672C2,9.34,2.259,9.968,2.732,10.44l3.414,3.414
		C6.244,13.951,6.372,14,6.5,14z M3,8.607c0-0.789,0.535-1.471,1.244-1.586C4.331,7.007,4.417,7,4.502,7
		c0.356,0,0.694,0.123,0.97,0.357C5.808,7.643,6,8.06,6,8.5C6,8.776,6.224,9,6.5,9S7,8.776,7,8.5c0-0.44,0.192-0.857,0.528-1.143
		c0.341-0.291,0.776-0.41,1.228-0.336C9.465,7.136,10,7.818,10,8.671c0,0.401-0.156,0.777-0.439,1.061L6.5,12.793L3.439,9.732
		C3.156,9.449,3,9.072,3,8.607z"/>
	<path d="M19.916,6.034c-0.728-0.116-1.474,0.086-2.035,0.562C17.738,6.718,17.61,6.854,17.5,7.001
		c-0.11-0.148-0.238-0.283-0.381-0.405c-0.559-0.477-1.303-0.679-2.035-0.562C13.896,6.228,13,7.334,13,8.672
		c0,0.668,0.259,1.296,0.732,1.768l3.414,3.414C17.244,13.951,17.372,14,17.5,14s0.256-0.049,0.354-0.146l3.414-3.414
		C21.74,9.967,22,9.339,22,8.607C22,7.334,21.104,6.228,19.916,6.034z M20.561,9.732L17.5,12.793l-3.061-3.061
		C14.156,9.449,14,9.072,14,8.607c0-0.789,0.535-1.471,1.244-1.586C15.331,7.007,15.417,7,15.502,7c0.356,0,0.694,0.123,0.97,0.357
		C16.808,7.643,17,8.06,17,8.5C17,8.776,17.224,9,17.5,9S18,8.776,18,8.5c0-0.44,0.192-0.857,0.528-1.143
		c0.341-0.291,0.775-0.41,1.228-0.336C20.465,7.136,21,7.818,21,8.671C21,9.072,20.844,9.448,20.561,9.732z"/>
</g>
</svg>
