<?xml version="1.0" encoding="iso-8859-1"?>
<!-- Generator: Adobe Illustrator 19.0.0, SVG Export Plug-In . SVG Version: 6.00 Build 0)  -->
<svg version="1.1" id="Layer_1" xmlns="http://www.w3.org/2000/svg" xmlns:xlink="http://www.w3.org/1999/xlink" x="0px" y="0px"
	 viewBox="0 0 30 30" style="enable-background:new 0 0 30 30;" xml:space="preserve">
<g>
	<path d="M5.332,5.059C5.618,4.704,6.044,4.5,6.5,4.5h4.578c0.004,0,0.007,0,0.01,0c0.305-0.007,0.51-0.22,0.51-0.5
		c0-0.122-0.044-0.234-0.117-0.32C10.579,1.744,8.638,0.5,6.5,0.5C3.467,0.5,1,2.967,1,6c0,2.614,1.859,4.881,4.421,5.391
		c0.033,0.007,0.065,0.01,0.098,0.01c0.133,0,0.262-0.053,0.356-0.149c0.118-0.121,0.168-0.292,0.132-0.457L5.034,6.319
		C4.937,5.873,5.046,5.414,5.332,5.059z"/>
	<path d="M28.929,0.743c-0.142-0.236-0.449-0.314-0.686-0.171l-5,3c-0.087,0.052-0.156,0.129-0.198,0.221v0.001l-10,22
		c-0.084,0.184-0.265,0.293-0.456,0.293c-0.069,0-0.139-0.014-0.207-0.045c-0.252-0.114-0.362-0.411-0.248-0.662l5.855-12.88H8.424
		l-1.304-6h13.596l0.455-1H6.5c-0.151,0-0.294,0.068-0.389,0.186s-0.131,0.272-0.1,0.42l1.521,7l3.479,16
		c0.05,0.229,0.253,0.394,0.489,0.394h10c0.235,0,0.438-0.164,0.489-0.394l3.478-16l1.522-7c0.032-0.147-0.004-0.302-0.1-0.42
		C26.794,5.569,26.651,5.5,26.5,5.5h-3.133l0.523-1.151l4.867-2.92C28.994,1.287,29.071,0.98,28.929,0.743z M25.88,6.5l-1.304,6
		h-4.39l2.727-6H25.88z"/>
</g>
</svg>
