<?xml version="1.0" encoding="iso-8859-1"?>
<!-- Generator: Adobe Illustrator 19.0.0, SVG Export Plug-In . SVG Version: 6.00 Build 0)  -->
<svg version="1.1" id="Layer_1" xmlns="http://www.w3.org/2000/svg" xmlns:xlink="http://www.w3.org/1999/xlink" x="0px" y="0px"
	 viewBox="0 0 30 30" style="enable-background:new 0 0 30 30;" xml:space="preserve">
<path d="M29.853,24.147l-9.646-9.646l0.646-0.646c0.097-0.097,0.149-0.229,0.147-0.366c-0.004-0.137-0.064-0.267-0.165-0.358
	l-1.079-0.975C19.918,11.428,20,10.705,20,10c0-5.514-4.486-10-10-10H9.875C4.43,0,0,4.43,0,9.875V10
	c0,6.217,5.72,11.189,12.153,9.756l0.976,1.079c0.166,0.184,0.443,0.218,0.648,0.081l1.159-0.772L16,21.207V23.5
	c0,0.276,0.224,0.5,0.5,0.5h1.819L21,26.234V28.5c0,0.276,0.224,0.5,0.5,0.5h1.793l0.853,0.854C24.24,29.947,24.367,30,24.5,30h5
	c0.276,0,0.5-0.224,0.5-0.5v-5C30,24.367,29.947,24.24,29.853,24.147z M6.5,8C5.673,8,5,7.327,5,6.5S5.673,5,6.5,5S8,5.673,8,6.5
	S7.327,8,6.5,8z M26.853,26.853C26.756,26.951,26.628,27,26.5,27s-0.256-0.049-0.354-0.147l-9-9c-0.195-0.195-0.195-0.512,0-0.707
	s0.512-0.195,0.707,0l9,9C27.049,26.342,27.049,26.658,26.853,26.853z"/>
</svg>
