<?xml version="1.0" encoding="iso-8859-1"?>
<!-- Generator: Adobe Illustrator 19.0.0, SVG Export Plug-In . SVG Version: 6.00 Build 0)  -->
<svg version="1.1" id="Layer_1" xmlns="http://www.w3.org/2000/svg" xmlns:xlink="http://www.w3.org/1999/xlink" x="0px" y="0px"
	 viewBox="0 0 24 24" style="enable-background:new 0 0 24 24;" xml:space="preserve">
<path d="M23.854,19.646L16.207,12l0.646-0.646c0.195-0.195,0.195-0.512,0-0.707l-1.026-1.026C15.942,9.072,16,8.528,16,8
	c0-4.411-3.589-8-8-8S0,3.589,0,8c0,4.94,4.504,8.896,9.621,7.827l1.025,1.026C10.74,16.947,10.867,17,11,17s0.26-0.053,0.354-0.146
	L12,16.208l1,1v1.293c0,0.276,0.224,0.5,0.5,0.5h1.293L17,21.207V22.5c0,0.276,0.224,0.5,0.5,0.5h1.293l0.854,0.854
	C19.74,23.947,19.867,24,20,24h3.5c0.276,0,0.5-0.224,0.5-0.5V20C24,19.867,23.947,19.74,23.854,19.646z M5.5,7
	C4.673,7,4,6.327,4,5.5S4.673,4,5.5,4S7,4.673,7,5.5S6.327,7,5.5,7z M21.354,21.354C21.256,21.451,21.128,21.5,21,21.5
	s-0.256-0.049-0.354-0.146l-7-7c-0.195-0.195-0.195-0.512,0-0.707s0.512-0.195,0.707,0l7,7
	C21.549,20.842,21.549,21.158,21.354,21.354z"/>
</svg>
