<?xml version="1.0" encoding="iso-8859-1"?>
<!-- Generator: Adobe Illustrator 19.0.0, SVG Export Plug-In . SVG Version: 6.00 Build 0)  -->
<svg version="1.1" id="Layer_1" xmlns="http://www.w3.org/2000/svg" xmlns:xlink="http://www.w3.org/1999/xlink" x="0px" y="0px"
	 viewBox="0 0 24 24" style="enable-background:new 0 0 24 24;" xml:space="preserve">
<path d="M20.499,9c0-0.551-0.448-1-1-1s-1,0.449-1,1v2.5c0,0.276-0.224,0.5-0.5,0.5s-0.5-0.224-0.5-0.5V8c0-0.551-0.448-1-1-1
	s-1,0.449-1,1v3.5c0,0.276-0.224,0.5-0.5,0.5s-0.5-0.224-0.5-0.5V7c0-0.551-0.448-1-1-1s-1,0.449-1,1v4.5c0,0.276-0.224,0.5-0.5,0.5
	s-0.5-0.224-0.5-0.5V2c0-0.551-0.448-1-1-1s-1,0.449-1,1v12.5c0,0.173-0.09,0.334-0.237,0.425c-0.146,0.091-0.331,0.099-0.486,0.022
	l-3.473-1.736C5.027,13.073,4.718,13,4.41,13c-0.502,0-0.91,0.408-0.91,0.91c0,0.249,0.095,0.478,0.267,0.649l6.467,6.466
	C11.505,22.299,13.198,23,14.999,23H15c3.032,0,5.5-2.467,5.5-5.5L20.499,9L20.499,9z"/>
</svg>
