<?xml version="1.0" encoding="iso-8859-1"?>
<!-- Generator: Adobe Illustrator 19.0.0, SVG Export Plug-In . SVG Version: 6.00 Build 0)  -->
<svg version="1.1" id="Layer_1" xmlns="http://www.w3.org/2000/svg" xmlns:xlink="http://www.w3.org/1999/xlink" x="0px" y="0px"
	 viewBox="0 0 30 30" style="enable-background:new 0 0 30 30;" xml:space="preserve">
<g>
	<path d="M27.493,5H2.507c-1.379,0-2.5,1.122-2.5,2.5v15c0,1.378,1.121,2.5,2.5,2.5h24.987c1.379,0,2.5-1.122,2.5-2.5v-15
		C29.993,6.122,28.873,5,27.493,5z M28.993,22.5c0,0.827-0.673,1.5-1.5,1.5H2.507c-0.827,0-1.5-0.673-1.5-1.5v-15
		c0-0.827,0.673-1.5,1.5-1.5h24.987c0.827,0,1.5,0.673,1.5,1.5L28.993,22.5L28.993,22.5z"/>
	<path d="M26.913,8.228c-0.15-0.232-0.462-0.297-0.691-0.147l-10.01,6.507c-0.809,0.554-2.127,0.554-2.936,0l-9.5-6.5
		C3.551,7.933,3.238,7.99,3.08,8.218C2.926,8.446,2.983,8.757,3.212,8.913l9.5,6.5c0.571,0.39,1.304,0.585,2.035,0.585
		c0.728,0,1.456-0.193,2.02-0.578l10-6.5C26.998,8.769,27.063,8.459,26.913,8.228z"/>
	<path d="M10.168,15.12l-7,6c-0.21,0.18-0.235,0.496-0.055,0.705C3.214,21.941,3.353,22,3.493,22c0.115,0,0.231-0.04,0.325-0.121
		l7-6c0.21-0.18,0.235-0.496,0.055-0.705C10.692,14.964,10.377,14.94,10.168,15.12z"/>
	<path d="M19.819,15.12c-0.208-0.18-0.524-0.156-0.705,0.054c-0.179,0.21-0.155,0.525,0.055,0.705l7,6
		C26.262,21.96,26.379,22,26.493,22c0.141,0,0.28-0.059,0.38-0.175c0.179-0.21,0.155-0.525-0.055-0.705L19.819,15.12z"/>
</g>
</svg>
