<?xml version="1.0" encoding="iso-8859-1"?>
<!-- Generator: Adobe Illustrator 19.0.0, SVG Export Plug-In . SVG Version: 6.00 Build 0)  -->
<svg version="1.1" id="Layer_1" xmlns="http://www.w3.org/2000/svg" xmlns:xlink="http://www.w3.org/1999/xlink" x="0px" y="0px"
	 viewBox="0 0 30 30" style="enable-background:new 0 0 30 30;" xml:space="preserve">
<g>
	<path d="M7.748,14.625l0.109,0.01c0.044,0.005,0.09,0.01,0.135,0.014C9.075,18.465,11.802,21,14.875,21
		c3.155,0,6.239-2.707,7.352-6.375c0.007,0,0.015,0,0.023,0c0.998,0,1.75-1.29,1.75-3c0-0.496-0.067-0.98-0.194-1.41
		C23.938,9.583,24,9.035,24,8.5C24,3.893,19.821,0,14.875,0C9.981,0,6,3.813,6,8.5c0,0.535,0.062,1.084,0.194,1.715
		C6.067,10.645,6,11.129,6,11.625C6,13.335,6.753,14.625,7.748,14.625z M22.25,13.625c-0.001,0-0.029-0.001-0.106-0.048
		c-0.136-0.085-0.303-0.099-0.452-0.039c-0.148,0.06-0.258,0.188-0.297,0.343C20.544,17.312,17.68,20,14.875,20
		c-2.712,0-5.131-2.409-6.02-5.994c-0.038-0.155-0.149-0.283-0.297-0.343c-0.061-0.025-0.125-0.037-0.188-0.037
		c-0.06,0-0.12,0.011-0.177,0.033c-0.069-0.004-0.172-0.012-0.23-0.018c-0.087-0.009-0.164-0.016-0.213-0.016
		c-0.265,0-0.75-0.759-0.75-2C7,11.411,7.016,11.201,7.045,11H8.5c0.271,0,0.493-0.216,0.5-0.487
		c0.04-1.592,0.303-3.187,0.572-3.511c0.1,0.003,0.221,0.012,0.358,0.021c0.913,0.063,2.441,0.168,3.363-0.692
		c0.141-0.132,0.261-0.279,0.36-0.443c1.129,1.386,3.599,2.946,6.397,3.1c0.219,1.061,1.072,1.845,1.113,1.883
		C21.255,10.954,21.376,11,21.5,11h1.454C22.983,11.201,23,11.411,23,11.625C23,12.866,22.515,13.625,22.25,13.625z M14.875,1
		C19.279,1,23,4.435,23,8.5c0,0.46-0.061,0.945-0.176,1.5h-1.113C21.477,9.744,21,9.144,21,8.5C21,8.224,20.776,8,20.5,8
		C16.766,8,14,5.231,14,4.5C14,4.224,13.776,4,13.5,4S13,4.224,13,4.5c0,0.495-0.127,0.855-0.389,1.099
		C12.008,6.163,10.752,6.077,10,6.025C9.801,6.011,9.63,6,9.5,6c-0.868,0-1.366,1.345-1.483,4H7.176C7.06,9.445,7,8.96,7,8.5
		C7,4.364,10.533,1,14.875,1z"/>
	<path d="M24.378,19.776c-0.023-0.008-0.046-0.014-0.07-0.019l-3.214-0.618c-0.17-0.033-0.346,0.025-0.463,0.153
		C19.031,21.038,16.987,22,14.877,22c-2.111,0-4.155-0.962-5.755-2.708c-0.117-0.128-0.294-0.186-0.463-0.153l-3.287,0.637
		C2.054,20.93,0,25.116,0,28.332V29.5C0,29.776,0.224,30,0.5,30h29c0.276,0,0.5-0.224,0.501-0.5v-0.918
		C30,25.342,27.692,20.928,24.378,19.776z M29,29H1v-0.668c0-2.875,1.797-6.602,4.63-7.593l2.947-0.566
		C10.34,21.999,12.568,23,14.877,23s4.536-1.001,6.299-2.827l2.907,0.559C26.898,21.737,29,25.695,29,28.582V29z"/>
	<path d="M12.5,11h-1c-0.276,0-0.5,0.224-0.5,0.5s0.224,0.5,0.5,0.5h1c0.276,0,0.5-0.224,0.5-0.5S12.776,11,12.5,11z"/>
	<path d="M18.5,11h-1c-0.276,0-0.5,0.224-0.5,0.5s0.224,0.5,0.5,0.5h1c0.276,0,0.5-0.224,0.5-0.5S18.776,11,18.5,11z"/>
</g>
</svg>
