<?xml version="1.0" encoding="iso-8859-1"?>
<!-- Generator: Adobe Illustrator 19.0.0, SVG Export Plug-In . SVG Version: 6.00 Build 0)  -->
<svg version="1.1" id="Layer_1" xmlns="http://www.w3.org/2000/svg" xmlns:xlink="http://www.w3.org/1999/xlink" x="0px" y="0px"
	 viewBox="0 0 30 30" style="enable-background:new 0 0 30 30;" xml:space="preserve">
<g>
	<path d="M10.521,6.398C10.514,6.432,10.5,6.463,10.5,6.5v5c0,1.93,1.57,3.5,3.5,3.5h2c1.93,0,3.5-1.57,3.5-3.5v-5
		c0-0.036-0.013-0.068-0.02-0.102c1.269-1.07,2.02-2.523,2.02-3.898c0-0.055-0.009-0.11-0.027-0.163C21.391,2.098,20.51,0,15,0
		S8.609,2.098,8.527,2.336C8.508,2.388,8.5,2.443,8.5,2.5C8.5,3.875,9.252,5.328,10.521,6.398z M10.792,3.044
		c0.238-0.107,0.52-0.015,0.645,0.211C11.484,3.313,12.103,3.998,15,3.998c3.01,0,3.561-0.739,3.566-0.747
		C18.68,3,18.968,2.912,19.218,3.024c0.251,0.115,0.351,0.431,0.236,0.682c-0.14,0.303-0.871,1.292-4.455,1.292
		s-4.315-0.989-4.455-1.292C10.431,3.456,10.541,3.159,10.792,3.044z"/>
	<path d="M20.916,13.104c-0.121-0.105-0.284-0.148-0.439-0.112c-0.156,0.035-0.286,0.143-0.35,0.289C19.412,14.932,17.792,16,16,16
		h-2c-1.792,0-3.411-1.066-4.127-2.717c-0.064-0.146-0.193-0.254-0.35-0.289C9.367,12.956,9.204,13,9.084,13.106
		c-1.08,0.948-1.584,2.186-1.584,3.88c-0.003,0.107,0.013,0.672,0.618,1.295c1.054,1.084,3.208,1.654,6.382,1.709v9.51
		c0,0.276,0.224,0.5,0.5,0.5s0.5-0.224,0.5-0.5v-9.51c3.174-0.055,5.328-0.625,6.382-1.709c0.605-0.623,0.621-1.188,0.618-1.281
		C22.5,15.291,21.996,14.052,20.916,13.104z"/>
</g>
</svg>
