<?xml version="1.0" encoding="iso-8859-1"?>
<!-- Generator: Adobe Illustrator 19.0.0, SVG Export Plug-In . SVG Version: 6.00 Build 0)  -->
<svg version="1.1" id="Layer_1" xmlns="http://www.w3.org/2000/svg" xmlns:xlink="http://www.w3.org/1999/xlink" x="0px" y="0px"
	 viewBox="0 0 24 24" style="enable-background:new 0 0 24 24;" xml:space="preserve">
<g>
	<path d="M8.52,5.379C8.51,5.419,8.496,5.457,8.496,5.5v5c0,0.051,0.008,0.101,0.022,0.149C8.588,10.875,9.087,12,11.996,12
		s3.407-1.125,3.478-1.351c0.014-0.048,0.022-0.098,0.022-0.149v-5c0-0.043-0.014-0.081-0.024-0.121
		C16.713,4.491,17.496,3.212,17.496,2c0-0.078-0.019-0.154-0.053-0.224C17.352,1.595,16.427,0,11.996,0S6.64,1.595,6.549,1.776
		C6.515,1.846,6.496,1.922,6.496,2C6.496,3.212,7.278,4.491,8.52,5.379z M8.773,2.153c0.236-0.119,0.528-0.03,0.658,0.2
		C9.465,2.398,9.955,3,11.996,3c2.109,0,2.562-0.643,2.567-0.649c0.123-0.247,0.415-0.334,0.663-0.21
		c0.248,0.123,0.34,0.436,0.217,0.683C15.345,3.02,14.717,4,11.996,4S8.647,3.02,8.549,2.824C8.426,2.577,8.526,2.277,8.773,2.153z"
		/>
	<path d="M18.497,14.001c-0.001-1.099-0.459-2.142-1.326-3.02c-0.116-0.117-0.278-0.17-0.448-0.14
		c-0.163,0.03-0.301,0.14-0.366,0.293C16.056,11.832,15.089,13,11.996,13s-4.06-1.168-4.36-1.865
		c-0.065-0.153-0.203-0.263-0.366-0.293c-0.17-0.033-0.332,0.021-0.448,0.14c-0.867,0.877-1.325,1.921-1.318,3.103
		c0.042,0.241,0.569,2.282,5.992,2.404V23.5c0,0.276,0.224,0.5,0.5,0.5s0.5-0.224,0.5-0.5v-7.011
		C17.92,16.367,18.448,14.323,18.497,14.001z"/>
</g>
</svg>
