<?xml version="1.0" encoding="iso-8859-1"?>
<!-- Generator: Adobe Illustrator 19.0.0, SVG Export Plug-In . SVG Version: 6.00 Build 0)  -->
<svg version="1.1" id="Layer_1" xmlns="http://www.w3.org/2000/svg" xmlns:xlink="http://www.w3.org/1999/xlink" x="0px" y="0px"
	 viewBox="0 0 30 30" style="enable-background:new 0 0 30 30;" xml:space="preserve">
<path d="M29.114,3.398L27.13,1.396c-1.063-1.072-2.715-1.199-3.931-0.3L5.24,14.603c-0.009,0.007-0.013,0.018-0.021,0.025
	c-0.009,0.008-0.021,0.011-0.03,0.02c-0.024,0.024-0.036,0.055-0.055,0.082c-0.015,0.023-0.034,0.042-0.045,0.067
	c-0.027,0.06-0.042,0.123-0.044,0.187c0,0.006-0.004,0.011-0.004,0.018v0.38c0,2.66-1.517,5.52-2.936,7.31
	c-0.158,0.199-0.142,0.484,0.038,0.664l1.147,1.146l-3.146,3.146c-0.127,0.127-0.177,0.313-0.128,0.487
	c0.047,0.173,0.185,0.308,0.36,0.352l4,1c0.04,0.01,0.081,0.015,0.121,0.015c0.131,0,0.259-0.052,0.354-0.147l1.646-1.646
	l0.646,0.647c0.097,0.096,0.225,0.146,0.354,0.146c0.088,0,0.177-0.023,0.256-0.071l1.471-0.881
	c2.047-1.378,4.001-2.048,5.975-2.048h0.298c0.071,0,0.14-0.019,0.206-0.049c0.021-0.01,0.038-0.025,0.058-0.038
	c0.03-0.019,0.063-0.033,0.089-0.059c0.01-0.01,0.014-0.024,0.023-0.035c0.006-0.008,0.016-0.011,0.023-0.019L29.413,7.349
	C30.3,6.13,30.174,4.468,29.114,3.398z M4.344,28.448l-2.869-0.717l2.521-2.521l1.793,1.793L4.344,28.448z M8.688,26.706
	l-1.113,0.667l-0.722-0.722c-0.001-0.001-0.001-0.002-0.002-0.003s-0.002-0.001-0.003-0.002l-2.495-2.495
	c-0.001-0.001-0.001-0.002-0.002-0.003s-0.002-0.001-0.003-0.002l-1.187-1.187c1.304-1.752,2.596-4.294,2.831-6.795l8.344,8.38
	C12.464,24.716,10.563,25.443,8.688,26.706z M28.609,6.754L15.445,24.241l-9.144-9.184L23.798,1.896
	c0.808-0.597,1.91-0.515,2.621,0.203l1.984,2.002C29.116,4.821,29.201,5.94,28.609,6.754z"/>
</svg>
