<?xml version="1.0" encoding="iso-8859-1"?>
<!-- Generator: Adobe Illustrator 19.0.0, SVG Export Plug-In . SVG Version: 6.00 Build 0)  -->
<svg version="1.1" id="Layer_1" xmlns="http://www.w3.org/2000/svg" xmlns:xlink="http://www.w3.org/1999/xlink" x="0px" y="0px"
	 viewBox="0 0 24 24" style="enable-background:new 0 0 24 24;" xml:space="preserve">
<path d="M18,10h-1.5V4.5C16.5,2.019,14.481,0,12,0S7.5,2.019,7.5,4.5V10H6c-0.276,0-0.5,0.224-0.5,0.5v1
	c0,3.415,2.649,6.218,6,6.475V21H10c-1.378,0-2.5,1.122-2.5,2.5C7.5,23.776,7.724,24,8,24h8c0.276,0,0.5-0.224,0.5-0.5
	c0-1.378-1.122-2.5-2.5-2.5h-1.5v-3.025c3.351-0.257,6-3.059,6-6.475v-1C18.5,10.224,18.276,10,18,10z M15.414,23H8.585
	c0.207-0.582,0.763-1,1.414-1h4C14.651,22,15.207,22.418,15.414,23z M8.5,9h7v2.5c0,1.93-1.57,3.5-3.5,3.5s-3.5-1.57-3.5-3.5V9z
	 M12,1c1.759,0,3.204,1.308,3.449,3H14c-0.276,0-0.5,0.224-0.5,0.5S13.724,5,14,5h1.5v1H14c-0.276,0-0.5,0.224-0.5,0.5
	S13.724,7,14,7h1.5v1h-7V7H10c0.276,0,0.5-0.224,0.5-0.5S10.276,6,10,6H8.5V5H10c0.276,0,0.5-0.224,0.5-0.5S10.276,4,10,4H8.551
	C8.796,2.308,10.241,1,12,1z M17.5,11.5c0,3.033-2.467,5.5-5.5,5.5s-5.5-2.467-5.5-5.5V11h1v0.5c0,2.481,2.019,4.5,4.5,4.5
	s4.5-2.019,4.5-4.5V11h1V11.5z"/>
</svg>
