<?xml version="1.0" encoding="iso-8859-1"?>
<!-- Generator: Adobe Illustrator 19.0.0, SVG Export Plug-In . SVG Version: 6.00 Build 0)  -->
<svg version="1.1" id="Layer_1" xmlns="http://www.w3.org/2000/svg" xmlns:xlink="http://www.w3.org/1999/xlink" x="0px" y="0px"
	 viewBox="0 0 30 30" style="enable-background:new 0 0 30 30;" xml:space="preserve">
<path d="M21,0H9C7.343,0,6,1.343,6,3v24c0,1.657,1.343,3,3,3h12c1.657,0,3-1.343,3-3V3C24,1.343,22.657,0,21,0z M19.51,2h0.01
	c0.276,0,0.5,0.224,0.5,0.5S19.796,3,19.52,3c-0.275,0-0.505-0.224-0.505-0.5S19.233,2,19.51,2z M14.5,2h1C15.776,2,16,2.224,16,2.5
	S15.776,3,15.5,3h-1C14.224,3,14,2.776,14,2.5S14.224,2,14.5,2z M10.5,28h-2C8.224,28,8,27.776,8,27.5S8.224,27,8.5,27h2
	c0.276,0,0.5,0.224,0.5,0.5S10.776,28,10.5,28z M21.5,28h-2c-0.276,0-0.5-0.224-0.5-0.5s0.224-0.5,0.5-0.5h2
	c0.276,0,0.5,0.224,0.5,0.5S21.776,28,21.5,28z M23,25H7V5h16V25z"/>
</svg>
