<?xml version="1.0" encoding="iso-8859-1"?>
<!-- Generator: Adobe Illustrator 19.0.0, SVG Export Plug-In . SVG Version: 6.00 Build 0)  -->
<svg version="1.1" id="Layer_1" xmlns="http://www.w3.org/2000/svg" xmlns:xlink="http://www.w3.org/1999/xlink" x="0px" y="0px"
	 viewBox="0 0 24 24" style="enable-background:new 0 0 24 24;" xml:space="preserve">
<path d="M16.5,0h-9C6.122,0,5,1.122,5,2.5v2v15v2C5,22.878,6.122,24,7.5,24h9c1.378,0,2.5-1.122,2.5-2.5v-2v-15v-2
	C19,1.122,17.878,0,16.5,0z M15.5,2C15.776,2,16,2.224,16,2.5S15.776,3,15.5,3S15,2.776,15,2.5S15.224,2,15.5,2z M11.5,2h1
	C12.776,2,13,2.224,13,2.5S12.776,3,12.5,3h-1C11.224,3,11,2.776,11,2.5S11.224,2,11.5,2z M9.5,22h-2C7.224,22,7,21.776,7,21.5
	S7.224,21,7.5,21h2c0.276,0,0.5,0.224,0.5,0.5S9.776,22,9.5,22z M16.5,22h-2c-0.276,0-0.5-0.224-0.5-0.5s0.224-0.5,0.5-0.5h2
	c0.276,0,0.5,0.224,0.5,0.5S16.776,22,16.5,22z M18,19H6V5h12V19z"/>
</svg>
