<?xml version="1.0" encoding="iso-8859-1"?>
<!-- Generator: Adobe Illustrator 19.0.0, SVG Export Plug-In . SVG Version: 6.00 Build 0)  -->
<svg version="1.1" id="Layer_1" xmlns="http://www.w3.org/2000/svg" xmlns:xlink="http://www.w3.org/1999/xlink" x="0px" y="0px"
	 viewBox="0 0 24 24" style="enable-background:new 0 0 24 24;" xml:space="preserve">
<g>
	<path d="M7.5,8.5C4.468,8.5,2,10.967,2,14c0,1.514,0.615,2.887,1.609,3.883c0.002,0.003,0.003,0.007,0.005,0.009
		c0.013,0.013,0.029,0.022,0.042,0.035c0.236,0.231,0.491,0.442,0.765,0.628c0.036,0.025,0.075,0.045,0.112,0.069
		c0.264,0.17,0.54,0.321,0.832,0.445c0.037,0.016,0.075,0.026,0.112,0.041c0.297,0.118,0.606,0.215,0.926,0.28
		c0.021,0.004,0.042,0.006,0.062,0.009C6.8,19.463,7.146,19.5,7.5,19.5s0.7-0.037,1.035-0.101c0.021-0.004,0.042-0.005,0.062-0.009
		c0.32-0.065,0.628-0.162,0.926-0.28c0.037-0.015,0.075-0.026,0.112-0.041c0.292-0.123,0.568-0.275,0.832-0.445
		c0.037-0.024,0.075-0.044,0.112-0.069c0.274-0.186,0.529-0.398,0.765-0.629c0.013-0.013,0.029-0.021,0.042-0.034
		c0.003-0.003,0.003-0.006,0.005-0.009C12.385,16.888,13,15.514,13,14C13,10.967,10.532,8.5,7.5,8.5z M7.5,9.5
		c2.481,0,4.5,2.019,4.5,4.5c0,0.978-0.322,1.877-0.854,2.616c-0.462-0.793-1.161-1.404-1.987-1.76C9.671,14.398,10,13.739,10,13
		c0-1.378-1.121-2.5-2.5-2.5S5,11.622,5,13c0,0.739,0.329,1.397,0.841,1.856c-0.826,0.356-1.525,0.967-1.987,1.76
		C3.322,15.877,3,14.978,3,14C3,11.519,5.019,9.5,7.5,9.5z M10.201,17.576c-0.104,0.078-0.207,0.158-0.318,0.226
		c-0.091,0.057-0.189,0.104-0.284,0.154c-1.3,0.666-2.906,0.665-4.204-0.003c-0.092-0.049-0.186-0.094-0.274-0.149
		c-0.114-0.07-0.221-0.152-0.329-0.233c-0.077-0.058-0.15-0.121-0.223-0.184c0.527-1.14,1.667-1.886,2.932-1.886
		s2.403,0.746,2.931,1.886C10.356,17.451,10.281,17.515,10.201,17.576z M7.5,14.5C6.673,14.5,6,13.827,6,13s0.673-1.5,1.5-1.5
		S9,12.173,9,13S8.327,14.5,7.5,14.5z"/>
	<path d="M21.5,10.5h-7c-0.276,0-0.5,0.224-0.5,0.5s0.224,0.5,0.5,0.5h7c0.276,0,0.5-0.224,0.5-0.5S21.776,10.5,21.5,10.5z"/>
	<path d="M21.5,13.5h-7c-0.276,0-0.5,0.224-0.5,0.5s0.224,0.5,0.5,0.5h7c0.276,0,0.5-0.224,0.5-0.5S21.776,13.5,21.5,13.5z"/>
	<path d="M21.5,16.5h-7c-0.276,0-0.5,0.224-0.5,0.5s0.224,0.5,0.5,0.5h7c0.276,0,0.5-0.224,0.5-0.5S21.776,16.5,21.5,16.5z"/>
	<path d="M21.5,5.5H15V3c0-0.276-0.224-0.5-0.5-0.5h-4C10.224,2.5,10,2.724,10,3v2.5H2.5C1.121,5.5,0,6.622,0,8v11
		c0,1.378,1.121,2.5,2.5,2.5h19c1.379,0,2.5-1.122,2.5-2.5V8C24,6.622,22.879,5.5,21.5,5.5z M11,3.5h3v3h-3V3.5z M23,19
		c0,0.827-0.673,1.5-1.5,1.5h-19C1.673,20.5,1,19.827,1,19V8c0-0.827,0.673-1.5,1.5-1.5H10V7c0,0.276,0.224,0.5,0.5,0.5h4
		C14.776,7.5,15,7.276,15,7V6.5h6.5C22.327,6.5,23,7.173,23,8V19z"/>
</g>
</svg>
