<?xml version="1.0" encoding="iso-8859-1"?>
<!-- Generator: Adobe Illustrator 19.0.0, SVG Export Plug-In . SVG Version: 6.00 Build 0)  -->
<svg version="1.1" id="Layer_1" xmlns="http://www.w3.org/2000/svg" xmlns:xlink="http://www.w3.org/1999/xlink" x="0px" y="0px"
	 viewBox="0 0 24 24" style="enable-background:new 0 0 24 24;" xml:space="preserve">
<g>
	<path d="M11,8.5C11,8.224,10.776,8,10.5,8C8.49,8,7.468,7.761,6.854,7.146S6,5.51,6,3.5C6,3.224,5.776,3,5.5,3S5,3.224,5,3.5
		c0,2.01-0.239,3.032-0.854,3.646S2.51,8,0.5,8C0.224,8,0,8.224,0,8.5S0.224,9,0.5,9c2.01,0,3.032,0.239,3.646,0.854S5,11.49,5,13.5
		C5,13.776,5.224,14,5.5,14S6,13.776,6,13.5c0-2.01,0.239-3.032,0.854-3.646S8.49,9,10.5,9C10.776,9,11,8.776,11,8.5z"/>
	<path d="M9.5,3c0.696,0,1.069,0.076,1.246,0.253C10.924,3.431,11,3.804,11,4.5C11,4.776,11.224,5,11.5,5S12,4.776,12,4.5
		c0-0.696,0.076-1.069,0.253-1.246C12.431,3.076,12.804,3,13.5,3C13.776,3,14,2.776,14,2.5S13.776,2,13.5,2
		c-0.696,0-1.069-0.076-1.246-0.253C12.076,1.569,12,1.196,12,0.5C12,0.224,11.776,0,11.5,0S11,0.224,11,0.5
		c0,0.696-0.076,1.069-0.253,1.246C10.569,1.924,10.196,2,9.5,2C9.224,2,9,2.224,9,2.5S9.224,3,9.5,3z"/>
	<path d="M4.5,20c-0.696,0-1.069-0.076-1.246-0.253C3.076,19.569,3,19.196,3,18.5C3,18.224,2.776,18,2.5,18S2,18.224,2,18.5
		c0,0.696-0.076,1.069-0.253,1.246C1.569,19.924,1.196,20,0.5,20C0.224,20,0,20.224,0,20.5S0.224,21,0.5,21
		c0.696,0,1.069,0.076,1.246,0.253C1.924,21.431,2,21.804,2,22.5C2,22.776,2.224,23,2.5,23S3,22.776,3,22.5
		c0-0.696,0.076-1.069,0.253-1.246C3.431,21.076,3.804,21,4.5,21C4.776,21,5,20.776,5,20.5S4.776,20,4.5,20z"/>
	<path d="M23.5,15.5c-1.131,0-1.724-0.131-2.046-0.454C21.132,14.723,21,14.131,21,13c0-0.276-0.224-0.5-0.5-0.5S20,12.724,20,13
		c0,1.131-0.131,1.724-0.454,2.046C19.223,15.368,18.631,15.5,17.5,15.5c-0.276,0-0.5,0.224-0.5,0.5c0,0.276,0.224,0.5,0.5,0.5
		c1.131,0,1.724,0.131,2.046,0.454S20,17.869,20,19c0,0.276,0.224,0.5,0.5,0.5S21,19.276,21,19c0-1.131,0.131-1.724,0.454-2.046
		S22.369,16.5,23.5,16.5c0.276,0,0.5-0.224,0.5-0.5S23.776,15.5,23.5,15.5z"/>
	<path d="M13.037,15.496c-0.526-0.103-1.055-0.213-1.528-0.366c0.725-0.238,1.613-0.404,2.496-0.559
		C16.347,14.159,19,13.691,19,11.5v-3C19,6.761,17.111,5,13.5,5C13.224,5,13,5.224,13,5.5v3C13,8.776,13.224,9,13.5,9
		c1.377,0,2.564,0.295,3.384,0.817c-0.808,0.36-1.946,0.565-3.059,0.762C11.453,10.999,9,11.434,9,13.5v3
		c0,1.422,0.893,2.112,1.96,2.509C9.859,19.239,9,19.594,9,20.5v3C9,23.776,9.224,24,9.5,24s0.5-0.224,0.5-0.5
		c0-0.338,1.379-0.561,2.203-0.695C13.895,22.531,16,22.19,16,20.5v-3C16,16.072,14.426,15.766,13.037,15.496z M14,8.012v-2
		c2.628,0.134,4,1.317,4,2.488c0,0.272-0.075,0.499-0.238,0.705C16.859,8.499,15.553,8.085,14,8.012z M13.379,18.57l-0.346-0.068
		C11.201,18.149,10,17.819,10,16.5v-0.993c0.006,0.005,0.012,0.01,0.018,0.014c0.001,0,0.001,0,0.001,0
		c0.767,0.555,1.814,0.759,2.827,0.956C14.187,16.738,15,16.937,15,17.5C15,17.827,14.813,18.242,13.379,18.57z"/>
</g>
</svg>
