<?xml version="1.0" encoding="iso-8859-1"?>
<!-- Generator: Adobe Illustrator 19.0.0, SVG Export Plug-In . SVG Version: 6.00 Build 0)  -->
<svg version="1.1" id="Layer_1" xmlns="http://www.w3.org/2000/svg" xmlns:xlink="http://www.w3.org/1999/xlink" x="0px" y="0px"
	 viewBox="0 0 24 24" style="enable-background:new 0 0 24 24;" xml:space="preserve">
<g>
	<path d="M10.5,7h-3C7.224,7,7,7.224,7,7.5v9C7,16.776,7.224,17,7.5,17h3c0.276,0,0.5-0.224,0.5-0.5v-9C11,7.224,10.776,7,10.5,7z
		 M10,16H8V8h2V16z"/>
	<path d="M16.5,7h-3C13.224,7,13,7.224,13,7.5v9c0,0.276,0.224,0.5,0.5,0.5h3c0.276,0,0.5-0.224,0.5-0.5v-9
		C17,7.224,16.776,7,16.5,7z M16,16h-2V8h2V16z"/>
	<path d="M18.5,2h-13C2.468,2,0,4.468,0,7.5v9C0,19.532,2.468,22,5.5,22h13c3.032,0,5.5-2.468,5.5-5.5v-9C24,4.468,21.532,2,18.5,2z
		 M23,16.5c0,2.481-2.019,4.5-4.5,4.5h-13C3.019,21,1,18.981,1,16.5v-9C1,5.019,3.019,3,5.5,3h13C20.981,3,23,5.019,23,7.5V16.5z"/>
</g>
</svg>
