<?xml version="1.0" encoding="iso-8859-1"?>
<!-- Generator: Adobe Illustrator 19.0.0, SVG Export Plug-In . SVG Version: 6.00 Build 0)  -->
<svg version="1.1" id="Layer_1" xmlns="http://www.w3.org/2000/svg" xmlns:xlink="http://www.w3.org/1999/xlink" x="0px" y="0px"
	 viewBox="0 0 30 30" style="enable-background:new 0 0 30 30;" xml:space="preserve">
<g>
	<path d="M13.5,9.5h-3C10.224,9.5,10,9.724,10,10v11c0,0.276,0.224,0.5,0.5,0.5h3c0.276,0,0.5-0.224,0.5-0.5V10
		C14,9.724,13.776,9.5,13.5,9.5z M13,20.5h-2v-10h2V20.5z"/>
	<path d="M19.5,9.5h-3C16.224,9.5,16,9.724,16,10v11c0,0.276,0.224,0.5,0.5,0.5h3c0.276,0,0.5-0.224,0.5-0.5V10
		C20,9.724,19.776,9.5,19.5,9.5z M19,20.5h-2v-10h2V20.5z"/>
	<path d="M23.5,2.5h-17C2.916,2.5,0,5.416,0,9v12c0,3.584,2.916,6.5,6.5,6.5h17c3.584,0,6.5-2.916,6.5-6.5V9
		C30,5.416,27.084,2.5,23.5,2.5z M29,21c0,3.032-2.468,5.5-5.5,5.5h-17C3.468,26.5,1,24.032,1,21V9c0-3.032,2.468-5.5,5.5-5.5h17
		C26.532,3.5,29,5.968,29,9V21z"/>
</g>
</svg>
