<?xml version="1.0" encoding="iso-8859-1"?>
<!-- Generator: Adobe Illustrator 19.0.0, SVG Export Plug-In . SVG Version: 6.00 Build 0)  -->
<svg version="1.1" id="Layer_1" xmlns="http://www.w3.org/2000/svg" xmlns:xlink="http://www.w3.org/1999/xlink" x="0px" y="0px"
	 viewBox="0 0 30 30" style="enable-background:new 0 0 30 30;" xml:space="preserve">
<path d="M23.5,2.5h-17C2.916,2.5,0,5.416,0,9v12c0,3.584,2.916,6.5,6.5,6.5h17c3.584,0,6.5-2.916,6.5-6.5V9
	C30,5.416,27.084,2.5,23.5,2.5z M14,21c0,0.276-0.224,0.5-0.5,0.5h-3c-0.276,0-0.5-0.224-0.5-0.5V10c0-0.276,0.224-0.5,0.5-0.5h3
	c0.276,0,0.5,0.224,0.5,0.5V21z M20,21c0,0.276-0.224,0.5-0.5,0.5h-3c-0.276,0-0.5-0.224-0.5-0.5V10c0-0.276,0.224-0.5,0.5-0.5h3
	c0.276,0,0.5,0.224,0.5,0.5V21z"/>
</svg>
