<?xml version="1.0" encoding="iso-8859-1"?>
<!-- Generator: Adobe Illustrator 19.0.0, SVG Export Plug-In . SVG Version: 6.00 Build 0)  -->
<svg version="1.1" id="Layer_1" xmlns="http://www.w3.org/2000/svg" xmlns:xlink="http://www.w3.org/1999/xlink" x="0px" y="0px"
	 viewBox="0 0 30 30" style="enable-background:new 0 0 30 30;" xml:space="preserve">
<g>
	<path d="M17,8.5V1.75C17,0.785,16.215,0,15.25,0c-1.628,0-3.06,0.221-4.788,0.739L2.138,3.236C0.86,3.62,0,4.775,0,6.11v17.658
		c0,1.243,0.782,2.372,1.921,2.798l6.734,2.964C9.486,29.842,10.359,30,11.25,30c0.965,0,1.75-0.785,1.75-1.75V11.5
		c0-0.323,0.206-0.609,0.486-0.704l2.317-0.636C16.52,9.921,17,9.254,17,8.5z"/>
	<circle cx="24" cy="11" r="2"/>
	<path d="M20.233,25H14.5c-0.276,0-0.5,0.224-0.5,0.5v1c0,0.276,0.224,0.5,0.5,0.5H18c1.234,0,2.18-0.441,2.662-1.242
		c0.093-0.155,0.096-0.347,0.007-0.504S20.414,25,20.233,25z"/>
	<path d="M18.5,5h1.945c0.15,0,0.292-0.067,0.388-0.184C20.928,4.7,20.965,4.547,20.936,4.4c-0.241-1.182-1.158-2.101-2.336-2.34
		c-0.146-0.028-0.3,0.008-0.416,0.103C18.068,2.258,18,2.4,18,2.55V4.5C18,4.776,18.224,5,18.5,5z"/>
	<path d="M29.5,6h-11C18.224,6,18,6.224,18,6.5v2c0,1.185-0.755,2.233-1.867,2.605c-0.102,0.03-1.765,0.486-1.766,0.487
		C14.15,11.652,14,11.849,14,12.074V16.5v7c0,0.276,0.224,0.5,0.5,0.5h15c0.276,0,0.5-0.224,0.5-0.5v-2v-15
		C30,6.224,29.776,6,29.5,6z M29,20.293l-5.147-5.146c-0.195-0.195-0.512-0.195-0.707,0L20.5,17.793l-3.646-3.646
		c-0.195-0.195-0.512-0.195-0.707,0L15,15.293v-2.838c0.521-0.144,1.416-0.39,1.437-0.398C17.97,11.544,19,10.115,19,8.5V7h10
		V20.293z"/>
</g>
</svg>
