<?xml version="1.0" encoding="iso-8859-1"?>
<!-- Generator: Adobe Illustrator 19.0.0, SVG Export Plug-In . SVG Version: 6.00 Build 0)  -->
<svg version="1.1" id="Layer_1" xmlns="http://www.w3.org/2000/svg" xmlns:xlink="http://www.w3.org/1999/xlink" x="0px" y="0px"
	 viewBox="0 0 24 24" style="enable-background:new 0 0 24 24;" xml:space="preserve">
<g>
	<path d="M24,17.499V5.5C24,5.224,23.776,5,23.5,5H17V4.5C17,3.122,15.878,2,14.5,2H14V1.5C14,0.673,13.327,0,12.5,0
		c-1.375,0-2.741,0.201-4.059,0.596L1.782,2.594C0.716,2.914,0,3.876,0,4.989v14.125c0,1.036,0.652,1.977,1.622,2.341l5.767,2.163
		C8.066,23.872,8.776,24,9.5,24c0.827,0,1.5-0.673,1.5-1.501V22h3.5c1.207,0,2.217-0.861,2.449-2H23.5c0.276,0,0.5-0.224,0.5-0.5
		v-1.998C24,17.501,24,17.5,24,17.499z M23,16.293l-4.146-4.146c-0.195-0.195-0.512-0.195-0.707,0l-1.646,1.646l-2.646-2.646
		c-0.195-0.195-0.512-0.195-0.707,0L11,13.295V9.22c0-0.215,0.137-0.406,0.342-0.474l1.633-0.544C13.588,7.997,14,7.425,14,6.779V6
		h9V16.293z M14.5,3C15.327,3,16,3.673,16,4.5V5h-2V3H14.5z M9.5,23.001c-0.603,0-1.195-0.108-1.759-0.319l-5.767-2.163
		C1.391,20.301,1,19.736,1,19.114V4.989c0-0.667,0.43-1.245,1.069-1.437l6.659-1.998C9.953,1.186,11.222,1,12.501,1.002
		c0.276,0,0.5,0.224,0.5,0.5v0.993C13.001,2.497,13,2.498,13,2.5s0.001,0.003,0.001,0.005v2.99C13.001,5.497,13,5.498,13,5.5
		s0.001,0.003,0.001,0.005v1.276c0,0.215-0.137,0.406-0.342,0.474l-1.633,0.544c-0.613,0.205-1.025,0.777-1.025,1.423v10.273
		c0,0.002-0.001,0.003-0.001,0.005s0.001,0.003,0.001,0.005v1.99c0,0.002-0.001,0.003-0.001,0.005s0.001,0.003,0.001,0.005v0.996
		C10.001,22.777,9.776,23.001,9.5,23.001z M14.5,21H11v-1h4.908C15.701,20.581,15.151,21,14.5,21z M11,19v-4.291l2.501-2.501
		l2.646,2.646c0.195,0.195,0.512,0.195,0.707,0l1.646-1.646l4.5,4.5V19H11z"/>
	<path d="M19,11c1.103,0,2-0.897,2-2s-0.897-2-2-2s-2,0.897-2,2S17.897,11,19,11z M19,8c0.551,0,1,0.449,1,1s-0.449,1-1,1
		s-1-0.449-1-1S18.449,8,19,8z"/>
</g>
</svg>
