<?xml version="1.0" encoding="iso-8859-1"?>
<!-- Generator: Adobe Illustrator 19.0.0, SVG Export Plug-In . SVG Version: 6.00 Build 0)  -->
<svg version="1.1" id="Layer_1" xmlns="http://www.w3.org/2000/svg" xmlns:xlink="http://www.w3.org/1999/xlink" x="0px" y="0px"
	 viewBox="0 0 24 24" style="enable-background:new 0 0 24 24;" xml:space="preserve">
<g>
	<circle cx="18.999" cy="9" r="2"/>
	<path d="M23.999,17.49V5.5c0-0.276-0.224-0.5-0.5-0.5h-8c-0.276,0-0.5,0.224-0.5,0.5v1.279c0,1.078-0.687,2.03-1.709,2.372
		l-0.949,0.316c-0.204,0.068-0.342,0.259-0.342,0.474V18.5c0,0.276,0.224,0.5,0.5,0.5h0.002h10.998h0.002c0.276,0,0.5-0.224,0.5-0.5
		v-1C24.001,17.497,23.999,17.494,23.999,17.49z M13.606,10.099c1.431-0.477,2.393-1.812,2.393-3.32V6h7v10.292l-4.146-4.146
		c-0.195-0.195-0.512-0.195-0.707,0L16.5,13.792l-2.646-2.646c-0.195-0.195-0.512-0.195-0.707,0l-0.148,0.148v-0.992L13.606,10.099z
		"/>
	<path d="M13.999,6.78V1.501c0-0.828-0.673-1.501-1.5-1.501c-1.375,0-2.741,0.201-4.06,0.596L1.781,2.594
		c-1.066,0.32-1.782,1.282-1.782,2.395v14.125c0,1.036,0.652,1.977,1.622,2.341l5.767,2.163C8.066,23.872,8.776,24,9.499,24
		c0.827,0,1.5-0.673,1.5-1.5V9.221c0-0.215,0.138-0.406,0.342-0.474l1.633-0.544C13.587,7.998,13.999,7.427,13.999,6.78z"/>
	<path d="M16.222,20h-3.723c-0.276,0-0.5,0.224-0.5,0.5v1c0,0.276,0.224,0.5,0.5,0.5h2c0.881,0,1.706-0.479,2.154-1.249
		c0.091-0.154,0.091-0.346,0.002-0.5C16.566,20.096,16.4,20,16.222,20z"/>
	<path d="M15.499,4h0.727c0.18,0,0.345-0.096,0.435-0.252c0.089-0.156,0.087-0.347-0.004-0.502
		c-0.219-0.372-0.532-0.683-0.905-0.901c-0.155-0.09-0.346-0.09-0.501-0.001C15.096,2.433,15,2.598,15,2.778v0.723
		C14.999,3.776,15.223,4,15.499,4z"/>
</g>
</svg>
