<?xml version="1.0" encoding="iso-8859-1"?>
<!-- Generator: Adobe Illustrator 19.0.0, SVG Export Plug-In . SVG Version: 6.00 Build 0)  -->
<svg version="1.1" id="Layer_1" xmlns="http://www.w3.org/2000/svg" xmlns:xlink="http://www.w3.org/1999/xlink" x="0px" y="0px"
	 viewBox="0 0 30 30" style="enable-background:new 0 0 30 30;" xml:space="preserve">
<g>
	<path d="M30,21.499V6.5C30,6.224,29.776,6,29.5,6H21V5c0-1.654-1.346-3-3-3h-1V1.75C17,0.785,16.215,0,15.25,0
		c-1.628,0-3.059,0.221-4.788,0.739L2.138,3.236C0.859,3.62,0,4.775,0,6.11v17.658c0,1.243,0.782,2.372,1.921,2.798l6.734,2.964
		C9.487,29.842,10.36,30,11.25,30c0.965,0,1.75-0.785,1.75-1.75V27h5c1.612,0,2.717-0.77,2.95-2h8.55c0.276,0,0.5-0.224,0.5-0.5
		v-2.998C30,21.501,30,21.5,30,21.499z M29,20.293l-5.146-5.146c-0.195-0.195-0.512-0.195-0.707,0l-2.646,2.646l-3.646-3.646
		c-0.195-0.195-0.512-0.195-0.707,0L13,17.295V11.5c0-0.324,0.206-0.61,0.487-0.704l2.317-0.636C16.52,9.921,17,9.254,17,8.5V7h12
		V20.293z M18,3c1.103,0,2,0.897,2,2v1h-3V3H18z M12,28.25c0,0.414-0.337,0.75-0.751,0.75c-0.769,0-1.523-0.137-2.217-0.395
		l-6.734-2.964C1.521,25.35,1,24.597,1,23.768V6.11c0-0.89,0.573-1.66,1.425-1.916l8.324-2.497C12.379,1.208,13.725,1,15.25,1
		C15.664,1,16,1.336,16,1.75V8.5c0,0.324-0.206,0.61-0.487,0.704L13.196,9.84C12.48,10.079,12,10.746,12,11.5V28.25z M18,26h-5v-1
		h6.917C19.614,25.887,18.517,26,18,26z M13,24v-5.291l3.501-3.501l3.646,3.646c0.195,0.195,0.512,0.195,0.707,0l2.646-2.646
		l5.5,5.5V24H13z"/>
	<path d="M24,13c1.103,0,2-0.897,2-2s-0.897-2-2-2s-2,0.897-2,2S22.897,13,24,13z M24,10c0.551,0,1,0.449,1,1s-0.449,1-1,1
		s-1-0.449-1-1S23.449,10,24,10z"/>
</g>
</svg>
