<?xml version="1.0" encoding="iso-8859-1"?>
<!-- Generator: Adobe Illustrator 19.0.0, SVG Export Plug-In . SVG Version: 6.00 Build 0)  -->
<svg version="1.1" id="Layer_1" xmlns="http://www.w3.org/2000/svg" xmlns:xlink="http://www.w3.org/1999/xlink" x="0px" y="0px"
	 viewBox="0 0 30 30" style="enable-background:new 0 0 30 30;" xml:space="preserve">
<path d="M23.5,2.5h-17C2.916,2.5,0,5.416,0,9v12c0,3.584,2.916,6.5,6.5,6.5h17c3.584,0,6.5-2.916,6.5-6.5V9
	C30,5.416,27.084,2.5,23.5,2.5z M20.777,15.416l-9,6c-0.083,0.056-0.18,0.084-0.277,0.084c-0.081,0-0.162-0.02-0.236-0.059
	C11.101,21.354,11,21.185,11,21V9c0-0.185,0.102-0.354,0.264-0.441s0.361-0.078,0.513,0.025l9,6C20.916,14.677,21,14.833,21,15
	S20.916,15.323,20.777,15.416z"/>
</svg>
