<?xml version="1.0" encoding="iso-8859-1"?>
<!-- Generator: Adobe Illustrator 19.0.0, SVG Export Plug-In . SVG Version: 6.00 Build 0)  -->
<svg version="1.1" id="Layer_1" xmlns="http://www.w3.org/2000/svg" xmlns:xlink="http://www.w3.org/1999/xlink" x="0px" y="0px"
	 viewBox="0 0 24 24" style="enable-background:new 0 0 24 24;" xml:space="preserve">
<g>
	<path d="M23,11.5h-1.525c-0.254-4.839-4.136-8.721-8.975-8.975V1c0-0.276-0.224-0.5-0.5-0.5S11.5,0.724,11.5,1v1.525
		C6.662,2.779,2.779,6.661,2.525,11.5H1c-0.276,0-0.5,0.224-0.5,0.5s0.224,0.5,0.5,0.5h1.525c0.254,4.838,4.136,8.721,8.975,8.975
		V23c0,0.276,0.224,0.5,0.5,0.5s0.5-0.224,0.5-0.5v-1.525c4.839-0.254,8.721-4.136,8.975-8.975H23c0.276,0,0.5-0.224,0.5-0.5
		S23.276,11.5,23,11.5z M12.5,20.475V19c0-0.276-0.224-0.5-0.5-0.5s-0.5,0.224-0.5,0.5v1.475c-4.287-0.251-7.723-3.687-7.975-7.975
		H5c0.276,0,0.5-0.224,0.5-0.5S5.276,11.5,5,11.5H3.525C3.777,7.213,7.213,3.777,11.5,3.525V5c0,0.276,0.224,0.5,0.5,0.5
		s0.5-0.224,0.5-0.5V3.525c4.287,0.251,7.723,3.687,7.975,7.975H19c-0.276,0-0.5,0.224-0.5,0.5s0.224,0.5,0.5,0.5h1.475
		C20.223,16.787,16.787,20.223,12.5,20.475z"/>
	<path d="M14,11.5h-1.5V10c0-0.276-0.224-0.5-0.5-0.5s-0.5,0.224-0.5,0.5v1.5H10c-0.276,0-0.5,0.224-0.5,0.5s0.224,0.5,0.5,0.5h1.5
		V14c0,0.276,0.224,0.5,0.5,0.5s0.5-0.224,0.5-0.5v-1.5H14c0.276,0,0.5-0.224,0.5-0.5S14.276,11.5,14,11.5z"/>
</g>
</svg>
