<?xml version="1.0" encoding="iso-8859-1"?>
<!-- Generator: Adobe Illustrator 19.0.0, SVG Export Plug-In . SVG Version: 6.00 Build 0)  -->
<svg version="1.1" id="Layer_1" xmlns="http://www.w3.org/2000/svg" xmlns:xlink="http://www.w3.org/1999/xlink" x="0px" y="0px"
	 viewBox="0 0 30 30" style="enable-background:new 0 0 30 30;" xml:space="preserve">
<g>
	<path d="M29.854,29.146l-29-29C0.711,0.003,0.497-0.04,0.309,0.038C0.122,0.115,0,0.298,0,0.5v29C0,29.776,0.224,30,0.5,30h29
		c0.202,0,0.385-0.122,0.462-0.309C30.04,29.504,29.997,29.289,29.854,29.146z M25,29v-2.5c0-0.276-0.224-0.5-0.5-0.5
		S24,26.224,24,26.5V29h-3v-1.5c0-0.276-0.224-0.5-0.5-0.5S20,27.224,20,27.5V29h-3v-2.5c0-0.276-0.224-0.5-0.5-0.5
		S16,26.224,16,26.5V29h-3v-1.5c0-0.276-0.224-0.5-0.5-0.5S12,27.224,12,27.5V29H9v-2.5C9,26.224,8.776,26,8.5,26S8,26.224,8,26.5
		V29H5v-1.5C5,27.224,4.776,27,4.5,27S4,27.224,4,27.5V29H1V1.707L28.293,29H25z"/>
	<path d="M5.5,25h11c0.202,0,0.385-0.122,0.462-0.309c0.078-0.187,0.035-0.402-0.108-0.545l-11-11
		c-0.142-0.143-0.357-0.186-0.545-0.108C5.122,13.115,5,13.298,5,13.5v11C5,24.776,5.224,25,5.5,25z M6,14.707L15.293,24H6V14.707z"
		/>
</g>
</svg>
