<?xml version="1.0" encoding="iso-8859-1"?>
<!-- Generator: Adobe Illustrator 19.0.0, SVG Export Plug-In . SVG Version: 6.00 Build 0)  -->
<svg version="1.1" id="Layer_1" xmlns="http://www.w3.org/2000/svg" xmlns:xlink="http://www.w3.org/1999/xlink" x="0px" y="0px"
	 viewBox="0 0 24 24" style="enable-background:new 0 0 24 24;" xml:space="preserve">
<path d="M23.854,23.146l-23-23C0.711,0.003,0.497-0.04,0.309,0.038C0.122,0.115,0,0.298,0,0.5v23C0,23.776,0.224,24,0.5,24H3v-1
	c0-0.276,0.224-0.5,0.5-0.5S4,22.724,4,23v1h2v-2.5C6,21.224,6.224,21,6.5,21S7,21.224,7,21.5V24h2v-1c0-0.276,0.224-0.5,0.5-0.5
	S10,22.724,10,23v1h2v-2.5c0-0.276,0.224-0.5,0.5-0.5s0.5,0.224,0.5,0.5V24h2v-1c0-0.276,0.224-0.5,0.5-0.5S16,22.724,16,23v1h2
	v-2.5c0-0.276,0.224-0.5,0.5-0.5s0.5,0.224,0.5,0.5V24h4.5c0.202,0,0.385-0.122,0.462-0.309
	C24.04,23.504,23.997,23.29,23.854,23.146z M13.521,20c-0.006,0-0.013,0-0.02,0h-9c-0.276,0-0.5-0.224-0.5-0.5v-9
	c0-0.202,0.122-0.385,0.309-0.462c0.188-0.078,0.402-0.034,0.545,0.108l8.926,8.926c0.144,0.088,0.24,0.246,0.24,0.427
	C14.021,19.776,13.797,20,13.521,20z"/>
</svg>
