<?xml version="1.0" encoding="iso-8859-1"?>
<!-- Generator: Adobe Illustrator 19.0.0, SVG Export Plug-In . SVG Version: 6.00 Build 0)  -->
<svg version="1.1" id="Layer_1" xmlns="http://www.w3.org/2000/svg" xmlns:xlink="http://www.w3.org/1999/xlink" x="0px" y="0px"
	 viewBox="0 0 24 24" style="enable-background:new 0 0 24 24;" xml:space="preserve">
<g>
	<path d="M23.854,23.146l-23-23C0.711,0.003,0.497-0.04,0.309,0.038C0.122,0.115,0,0.298,0,0.5v23C0,23.776,0.224,24,0.5,24h23
		c0.202,0,0.385-0.122,0.462-0.309C24.04,23.504,23.997,23.289,23.854,23.146z M19,23v-1.5c0-0.276-0.224-0.5-0.5-0.5
		S18,21.224,18,21.5V23h-2v-0.5c0-0.276-0.224-0.5-0.5-0.5S15,22.224,15,22.5V23h-2v-1.5c0-0.276-0.224-0.5-0.5-0.5
		S12,21.224,12,21.5V23h-2v-0.5c0-0.276-0.224-0.5-0.5-0.5S9,22.224,9,22.5V23H7v-1.5C7,21.224,6.776,21,6.5,21S6,21.224,6,21.5V23
		H4v-0.5C4,22.224,3.776,22,3.5,22S3,22.224,3,22.5V23H1V1.707L22.293,23H19z"/>
	<path d="M4.5,20h9c0.202,0,0.385-0.122,0.462-0.309c0.078-0.187,0.035-0.402-0.108-0.545l-9-9
		c-0.143-0.143-0.358-0.185-0.545-0.108C4.122,10.115,4,10.298,4,10.5v9C4,19.776,4.224,20,4.5,20z M5,11.707L12.293,19H5V11.707z"
		/>
</g>
</svg>
