<?xml version="1.0" encoding="iso-8859-1"?>
<!-- Generator: Adobe Illustrator 19.0.0, SVG Export Plug-In . SVG Version: 6.00 Build 0)  -->
<svg version="1.1" id="Layer_1" xmlns="http://www.w3.org/2000/svg" xmlns:xlink="http://www.w3.org/1999/xlink" x="0px" y="0px"
	 viewBox="0 0 24 24" style="enable-background:new 0 0 24 24;" xml:space="preserve">
<g>
	<path d="M9.5,2h5C14.776,2,15,1.776,15,1.5v-1C15,0.224,14.776,0,14.5,0h-5C9.224,0,9,0.224,9,0.5v1C9,1.776,9.224,2,9.5,2z"/>
	<path d="M14.5,15h-5C9.224,15,9,15.224,9,15.5v8C9,23.776,9.224,24,9.5,24h5c0.276,0,0.5-0.224,0.5-0.5v-8
		C15,15.224,14.776,15,14.5,15z"/>
	<polygon points="8.86,9 10.14,9 9.5,7.081 	"/>
	<path d="M22.5,3h-21C0.673,3,0,3.673,0,4.5v8C0,13.327,0.673,14,1.5,14h21c0.827,0,1.5-0.673,1.5-1.5v-8C24,3.673,23.327,3,22.5,3z
		 M3.999,12c-1.054,0-1.932-0.823-1.998-1.873C1.983,9.852,2.192,9.614,2.469,9.596c0.296-0.006,0.514,0.193,0.53,0.467
		c0.033,0.525,0.473,0.936,1,0.936c0.552,0,1.001-0.448,1.001-1c0-0.525-0.303-0.814-1.044-0.996c-0.001,0-0.148-0.038-0.148-0.038
		C2.313,8.6,2,7.695,2,7c0-1.103,0.897-2,2.001-2c1.054,0,1.932,0.822,1.998,1.872c0.018,0.275-0.191,0.513-0.468,0.531
		c-0.263,0.014-0.513-0.191-0.53-0.467C4.968,6.412,4.528,6,4.001,6C3.449,6,3,6.449,3,7c0,0.525,0.303,0.813,1.046,0.996
		l0.147,0.038C5.687,8.399,6,9.305,6,10C6,11.103,5.103,12,3.999,12z M11.658,11.974C11.605,11.992,11.553,12,11.5,12
		c-0.209,0-0.404-0.132-0.475-0.342L10.473,10H8.527l-0.553,1.658c-0.088,0.263-0.369,0.405-0.633,0.316
		c-0.262-0.087-0.403-0.37-0.316-0.632l2-6c0.137-0.408,0.813-0.408,0.949,0l2,6C12.062,11.604,11.92,11.887,11.658,11.974z
		 M16.5,12h-3c-0.276,0-0.5-0.224-0.5-0.5v-6C13,5.224,13.224,5,13.5,5S14,5.224,14,5.5V11h2.5c0.276,0,0.5,0.224,0.5,0.5
		S16.776,12,16.5,12z M20.5,8C20.776,8,21,8.224,21,8.5S20.776,9,20.5,9H19v2h2.5c0.276,0,0.5,0.224,0.5,0.5S21.776,12,21.5,12h-3
		c-0.276,0-0.5-0.224-0.5-0.5v-6C18,5.224,18.224,5,18.5,5h3C21.776,5,22,5.224,22,5.5S21.776,6,21.5,6H19v2H20.5z"/>
</g>
</svg>
