<?xml version="1.0" encoding="iso-8859-1"?>
<!-- Generator: Adobe Illustrator 19.0.0, SVG Export Plug-In . SVG Version: 6.00 Build 0)  -->
<svg version="1.1" id="Layer_1" xmlns="http://www.w3.org/2000/svg" xmlns:xlink="http://www.w3.org/1999/xlink" x="0px" y="0px"
	 viewBox="0 0 24 24" style="enable-background:new 0 0 24 24;" xml:space="preserve">
<g>
	<path d="M21.5,6C21.776,6,22,5.776,22,5.5S21.776,5,21.5,5h-3C18.224,5,18,5.224,18,5.5v6c0,0.276,0.224,0.5,0.5,0.5h3
		c0.276,0,0.5-0.224,0.5-0.5S21.776,11,21.5,11H19V9h1.5C20.776,9,21,8.776,21,8.5S20.776,8,20.5,8H19V6H21.5z"/>
	<path d="M16.5,11H14V5.5C14,5.224,13.776,5,13.5,5S13,5.224,13,5.5v6c0,0.276,0.224,0.5,0.5,0.5h3c0.276,0,0.5-0.224,0.5-0.5
		S16.776,11,16.5,11z"/>
	<path d="M4.193,8.032L4.047,7.995C3.304,7.813,3,7.525,3,6.999c0-0.552,0.449-1,1.001-1c0.527,0,0.967,0.412,1,0.936
		c0.018,0.277,0.256,0.489,0.531,0.468c0.275-0.017,0.485-0.255,0.467-0.53C5.932,5.822,5.055,5,4.001,5C2.897,5,2,5.897,2,7
		c0,0.696,0.314,1.604,1.812,1.969L3.93,8.484l0.026,0.521C4.697,9.188,5,9.476,5,10.001c0,0.552-0.449,1-1.001,1
		c-0.527,0-0.967-0.412-1-0.936C2.981,9.788,2.742,9.568,2.468,9.597c-0.275,0.017-0.485,0.255-0.467,0.53
		C2.068,11.178,2.945,12,3.999,12C5.103,12,6,11.103,6,10C6,9.305,5.687,8.399,4.193,8.032z"/>
	<path d="M9.974,5.341c-0.135-0.408-0.812-0.408-0.948,0l-2,6c-0.087,0.262,0.054,0.545,0.316,0.633
		c0.263,0.089,0.545-0.054,0.632-0.316L8.527,10h1.946l0.553,1.658C11.096,11.867,11.291,12,11.5,12
		c0.052,0,0.105-0.008,0.158-0.026c0.262-0.088,0.403-0.371,0.316-0.633L9.974,5.341z M8.86,9L9.5,7.081L10.14,9H8.86z"/>
	<path d="M22.5,3H15V0.5C15,0.224,14.776,0,14.5,0h-5C9.224,0,9,0.224,9,0.5V3H1.5C0.673,3,0,3.673,0,4.5v8
		C0,13.327,0.673,14,1.5,14H9v9.5C9,23.776,9.224,24,9.5,24h5c0.276,0,0.5-0.224,0.5-0.5V14h7.5c0.827,0,1.5-0.673,1.5-1.5v-8
		C24,3.673,23.327,3,22.5,3z M10,1h4v2h-4V1z M14,23h-4v-9h4V23z M23,12.5c0,0.275-0.224,0.5-0.5,0.5h-21C1.224,13,1,12.775,1,12.5
		v-8C1,4.225,1.224,4,1.5,4h21C22.776,4,23,4.225,23,4.5V12.5z"/>
</g>
</svg>
