<?xml version="1.0" encoding="iso-8859-1"?>
<!-- Generator: Adobe Illustrator 19.0.0, SVG Export Plug-In . SVG Version: 6.00 Build 0)  -->
<svg version="1.1" id="Layer_1" xmlns="http://www.w3.org/2000/svg" xmlns:xlink="http://www.w3.org/1999/xlink" x="0px" y="0px"
	 viewBox="0 0 24 24" style="enable-background:new 0 0 24 24;" xml:space="preserve">
<g>
	<path d="M6.5,3h1C7.776,3,8,2.776,8,2.5S7.776,2,7.5,2h-1C6.224,2,6,2.224,6,2.5S6.224,3,6.5,3z"/>
	<path d="M10.52,3c0.276,0,0.5-0.224,0.5-0.5S10.796,2,10.52,2h-0.01c-0.276,0-0.495,0.224-0.495,0.5S10.245,3,10.52,3z"/>
	<path d="M4.5,21h-2C2.224,21,2,21.224,2,21.5S2.224,22,2.5,22h2C4.776,22,5,21.776,5,21.5S4.776,21,4.5,21z"/>
	<path d="M12,21.5c0-0.276-0.224-0.5-0.5-0.5h-2C9.224,21,9,21.224,9,21.5S9.224,22,9.5,22h2C11.776,22,12,21.776,12,21.5z"/>
	<path d="M21.5,10H14V2.5C14,1.122,12.879,0,11.5,0h-9C1.121,0,0,1.122,0,2.5v19C0,22.878,1.121,24,2.5,24h7h2h10
		c1.379,0,2.5-1.122,2.5-2.5v-9C24,11.122,22.879,10,21.5,10z M19,11v12h-5.513C13.804,22.581,14,22.065,14,21.5V11H19z M1,5h12v14
		H1V5z M2.5,1h9C12.327,1,13,1.673,13,2.5V4H1V2.5C1,1.673,1.673,1,2.5,1z M9.5,23h-7C1.673,23,1,22.327,1,21.5V20h12v1.5
		c0,0.827-0.673,1.5-1.5,1.5H9.5z M23,21.5c0,0.827-0.673,1.5-1.5,1.5H20V11h1.5c0.827,0,1.5,0.673,1.5,1.5V21.5z"/>
	<path d="M21.5,18c0.276,0,0.5-0.224,0.5-0.5v-1c0-0.276-0.224-0.5-0.5-0.5S21,16.224,21,16.5v1C21,17.776,21.224,18,21.5,18z"/>
	<path d="M21.52,20h-0.01c-0.276,0-0.495,0.224-0.495,0.5s0.23,0.5,0.505,0.5c0.276,0,0.5-0.224,0.5-0.5S21.796,20,21.52,20z"/>
	<path d="M15.5,2c2.942,0,5.346,2.324,5.486,5.233c-0.296-0.288-0.664-0.639-1.14-1.095c-0.2-0.191-0.517-0.183-0.707,0.016
		c-0.191,0.2-0.183,0.517,0.016,0.707c0.808,0.772,1.707,1.651,1.905,1.876C21.146,8.898,21.314,9,21.5,9
		c0.145,0,0.281-0.063,0.375-0.169l1.979-1.979c0.195-0.195,0.195-0.512,0-0.707s-0.512-0.195-0.707,0L21.99,7.303
		C21.884,3.81,19.017,1,15.5,1C15.224,1,15,1.224,15,1.5S15.224,2,15.5,2z"/>
</g>
</svg>
