<?xml version="1.0" encoding="iso-8859-1"?>
<!-- Generator: Adobe Illustrator 19.0.0, SVG Export Plug-In . SVG Version: 6.00 Build 0)  -->
<svg version="1.1" id="Layer_1" xmlns="http://www.w3.org/2000/svg" xmlns:xlink="http://www.w3.org/1999/xlink" x="0px" y="0px"
	 viewBox="0 0 30 30" style="enable-background:new 0 0 30 30;" xml:space="preserve">
<g>
	<path d="M28.538,10.306l-5.293-4.373C22.514,5.331,21.592,5,20.646,5H8.066C6.709,5,5.489,5.748,4.882,6.951L4.857,7H0.499
		c-0.276,0-0.5,0.224-0.5,0.5S0.223,8,0.499,8h3.853L2.84,11H0.5C0.224,11,0,11.224,0,11.5S0.224,12,0.5,12h1.836l-1.513,3H0.499
		c-0.276,0-0.5,0.224-0.5,0.5c0,0.221,0.147,0.403,0.346,0.469C0.125,16.435,0,16.949,0,17.466C0,19.415,1.598,21,3.561,21H4
		c0,2.206,1.794,4,4,4s4-1.794,4-4h6c0,2.206,1.794,4,4,4s4-1.794,4-4c0-0.016-0.004-0.03-0.005-0.045
		C26.057,20.983,26.126,21,26.199,21c0.67,0,1.274-0.37,1.575-0.965l1.228-2.434c0.653-1.296,0.999-2.747,0.999-4.196
		C30.001,12.204,29.467,11.075,28.538,10.306z M7.999,24c-1.654,0-3-1.346-3-3s1.346-3,3-3s3,1.346,3,3S9.653,24,7.999,24z
		 M21.999,24c-1.654,0-3-1.346-3-3s1.346-3,3-3s3,1.346,3,3S23.653,24,21.999,24z M28.108,17.149l-1.228,2.434
		C26.751,19.841,26.489,20,26.199,20c-0.117,0-0.22,0.047-0.306,0.114C25.488,18.335,23.9,17,21.999,17
		c-1.859,0-3.411,1.279-3.858,3h-6.284c-0.447-1.721-1.999-3-3.858-3s-3.411,1.279-3.858,3h-0.58C2.148,20,1,18.863,1,17.466
		c0-0.392,0.093-0.782,0.27-1.131L1.438,16h3.061c0.276,0,0.5-0.224,0.5-0.5S4.775,15,4.499,15H1.943l1.513-3H6.5
		C6.776,12,7,11.776,7,11.5S6.775,11,6.499,11H3.96l1.513-3H9.5C9.776,8,10,7.776,10,7.5S9.775,7,9.499,7H6.053
		c0.479-0.617,1.203-1,2.012-1h12.58c0.715,0,1.411,0.25,1.962,0.704l5.293,4.373c0.7,0.577,1.1,1.426,1.1,2.327
		C29.001,14.698,28.691,15.993,28.108,17.149z"/>
	<path d="M20.801,8.099c-0.138-0.102-0.32-0.128-0.479-0.066c-0.161,0.06-0.279,0.2-0.312,0.369l-1,5
		c-0.031,0.153,0.011,0.312,0.115,0.429C19.22,13.938,19.356,14,19.499,14c0.012,0,0.023,0,0.037-0.002l7-0.5
		c0.209-0.015,0.386-0.158,0.444-0.358s-0.013-0.415-0.18-0.541L20.801,8.099z M20.118,12.954l0.716-3.578l4.294,3.221
		L20.118,12.954z"/>
</g>
</svg>
