<?xml version="1.0" encoding="iso-8859-1"?>
<!-- Generator: Adobe Illustrator 19.0.0, SVG Export Plug-In . SVG Version: 6.00 Build 0)  -->
<svg version="1.1" id="Layer_1" xmlns="http://www.w3.org/2000/svg" xmlns:xlink="http://www.w3.org/1999/xlink" x="0px" y="0px"
	 viewBox="0 0 24 24" style="enable-background:new 0 0 24 24;" xml:space="preserve">
<g>
	<path d="M22.804,8.269l-4.197-3.498C18.011,4.274,17.255,4,16.478,4H6.5C5.384,4,4.381,4.62,3.882,5.618L3.691,6H0.5
		C0.224,6,0,6.224,0,6.5S0.224,7,0.5,7h2.691l-1,2H0.5C0.224,9,0,9.224,0,9.5S0.224,10,0.5,10h1.191l-1,2H0.5
		C0.224,12,0,12.224,0,12.5c0,0.183,0.104,0.337,0.251,0.424C0.095,13.288,0,13.678,0,14.073C0,15.687,1.313,17,2.927,17h0.124
		c0.245,1.692,1.691,3,3.449,3s3.204-1.308,3.449-3h4.101c0.245,1.692,1.691,3,3.449,3c1.762,0,3.209-1.313,3.45-3.01
		c0.544-0.025,1.029-0.33,1.273-0.82l0.974-1.947c0.526-1.05,0.803-2.226,0.803-3.4C24,9.832,23.564,8.901,22.804,8.269z M6.5,19
		C5.121,19,4,17.879,4,16.5S5.121,14,6.5,14S9,15.121,9,16.5S7.879,19,6.5,19z M17.5,19c-1.379,0-2.5-1.121-2.5-2.5
		s1.121-2.5,2.5-2.5s2.5,1.121,2.5,2.5S18.879,19,17.5,19z M22.303,13.777l-0.974,1.948c-0.074,0.149-0.22,0.234-0.381,0.257
		C20.695,14.299,19.253,13,17.5,13c-1.759,0-3.204,1.308-3.449,3H9.949c-0.245-1.692-1.691-3-3.449-3s-3.204,1.308-3.449,3H2.927
		C1.864,16,1,15.136,1,14.073c0-0.298,0.07-0.595,0.203-0.861L1.309,13H3.5C3.776,13,4,12.776,4,12.5S3.776,12,3.5,12H1.809l1-2H5.5
		C5.776,10,6,9.776,6,9.5S5.776,9,5.5,9H3.309l1-2H7.5C7.776,7,8,6.776,8,6.5S7.776,6,7.5,6H4.821
		C5.161,5.385,5.793,5.001,6.5,5.001h9.978c0.543,0,1.071,0.191,1.488,0.539l4.198,3.499C22.695,9.48,23,10.132,23,10.824
		C23,11.843,22.759,12.865,22.303,13.777z"/>
	<path d="M16.812,6.109c-0.133-0.104-0.309-0.136-0.473-0.083c-0.161,0.055-0.283,0.188-0.325,0.353l-1,4
		c-0.037,0.15-0.004,0.308,0.091,0.429C15.2,10.929,15.346,11,15.5,11h6c0.212,0,0.401-0.134,0.471-0.335s0.007-0.423-0.159-0.556
		L16.812,6.109z M16.141,10l0.656-2.623L20.075,10H16.141z"/>
</g>
</svg>
