<?xml version="1.0" encoding="iso-8859-1"?>
<!-- Generator: Adobe Illustrator 19.0.0, SVG Export Plug-In . SVG Version: 6.00 Build 0)  -->
<svg version="1.1" id="Layer_1" xmlns="http://www.w3.org/2000/svg" xmlns:xlink="http://www.w3.org/1999/xlink" x="0px" y="0px"
	 viewBox="0 0 24 24" style="enable-background:new 0 0 24 24;" xml:space="preserve">
<g>
	<circle cx="19" cy="20.5" r="2.5"/>
	<circle cx="9" cy="20.5" r="2.5"/>
	<path d="M23.375,4.169C23.28,4.062,23.144,4,23,4H5.01L4.49,1.402C4.443,1.168,4.238,1,4,1H1C0.724,1,0.5,1.224,0.5,1.5
		S0.724,2,1,2h2.59l2.437,12.187C6.353,15.817,7.797,17,9.459,17H21c0.276,0,0.5-0.224,0.5-0.5S21.276,16,21,16H9.46
		c-1.188,0-2.219-0.845-2.452-2.01L6.81,13h13.424c1.258,0,2.325-0.941,2.481-2.19l0.781-6.248
		C23.514,4.42,23.47,4.276,23.375,4.169z"/>
</g>
</svg>
