<?xml version="1.0" encoding="iso-8859-1"?>
<!-- Generator: Adobe Illustrator 19.0.0, SVG Export Plug-In . SVG Version: 6.00 Build 0)  -->
<svg version="1.1" id="Layer_1" xmlns="http://www.w3.org/2000/svg" xmlns:xlink="http://www.w3.org/1999/xlink" x="0px" y="0px"
	 viewBox="0 0 24 24" style="enable-background:new 0 0 24 24;" xml:space="preserve">
<g>
	<path d="M19,18c-1.379,0-2.5,1.122-2.5,2.5S17.621,23,19,23s2.5-1.122,2.5-2.5S20.379,18,19,18z M19,22c-0.827,0-1.5-0.673-1.5-1.5
		S18.173,19,19,19s1.5,0.673,1.5,1.5S19.827,22,19,22z"/>
	<path d="M9,18c-1.379,0-2.5,1.122-2.5,2.5S7.621,23,9,23s2.5-1.122,2.5-2.5S10.379,18,9,18z M9,22c-0.827,0-1.5-0.673-1.5-1.5
		S8.173,19,9,19s1.5,0.673,1.5,1.5S9.827,22,9,22z"/>
	<path d="M23.375,4.169C23.28,4.062,23.144,4,23,4H5.01L4.49,1.402C4.443,1.168,4.238,1,4,1H1C0.724,1,0.5,1.224,0.5,1.5
		S0.724,2,1,2h2.59l2.437,12.187C6.354,15.817,7.796,17,9.459,17H21c0.276,0,0.5-0.224,0.5-0.5S21.276,16,21,16H9.459
		c-1.187,0-2.219-0.845-2.451-2.01L6.81,13h13.424c1.258,0,2.325-0.941,2.481-2.19l0.781-6.248
		C23.514,4.42,23.47,4.277,23.375,4.169z M21.722,10.686C21.629,11.435,20.989,12,20.234,12H6.61l-1.4-7h17.223L21.722,10.686z"/>
</g>
</svg>
