<?xml version="1.0" encoding="iso-8859-1"?>
<!-- Generator: Adobe Illustrator 19.0.0, SVG Export Plug-In . SVG Version: 6.00 Build 0)  -->
<svg version="1.1" id="Layer_1" xmlns="http://www.w3.org/2000/svg" xmlns:xlink="http://www.w3.org/1999/xlink" x="0px" y="0px"
	 viewBox="0 0 24 24" style="enable-background:new 0 0 24 24;" xml:space="preserve">
<path d="M12,0C5.383,0,0,5.383,0,12s5.383,12,12,12s12-5.383,12-12S18.617,0,12,0z M7.5,7C8.327,7,9,7.673,9,8.5S8.327,10,7.5,10
	S6,9.327,6,8.5S6.673,7,7.5,7z M17.893,15.77C16.596,17.792,14.393,19,12,19s-4.596-1.208-5.893-3.23
	c-0.149-0.232-0.082-0.542,0.151-0.691c0.231-0.15,0.542-0.082,0.691,0.151C8.062,16.964,9.95,18,12,18s3.938-1.036,5.051-2.77
	c0.149-0.232,0.458-0.301,0.691-0.151C17.974,15.228,18.042,15.538,17.893,15.77z M16.5,10C15.673,10,15,9.327,15,8.5
	S15.673,7,16.5,7S18,7.673,18,8.5S17.327,10,16.5,10z"/>
</svg>
