<?xml version="1.0" encoding="iso-8859-1"?>
<!-- Generator: Adobe Illustrator 19.0.0, SVG Export Plug-In . SVG Version: 6.00 Build 0)  -->
<svg version="1.1" id="Layer_1" xmlns="http://www.w3.org/2000/svg" xmlns:xlink="http://www.w3.org/1999/xlink" x="0px" y="0px"
	 viewBox="0 0 30 30" style="enable-background:new 0 0 30 30;" xml:space="preserve">
<g>
	<path d="M1,11c-0.276,0-0.5,0.224-0.5,0.5V18c0,0.276,0.224,0.5,0.5,0.5s0.5-0.224,0.5-0.5v-6.5C1.5,11.224,1.276,11,1,11z"/>
	<path d="M5,6.5C4.724,6.5,4.5,6.724,4.5,7v16c0,0.276,0.224,0.5,0.5,0.5s0.5-0.224,0.5-0.5V7C5.5,6.724,5.276,6.5,5,6.5z"/>
	<path d="M9,1.5C8.724,1.5,8.5,1.724,8.5,2v26c0,0.276,0.224,0.5,0.5,0.5s0.5-0.224,0.5-0.5V2C9.5,1.724,9.276,1.5,9,1.5z"/>
	<path d="M13,2.5c-0.276,0-0.5,0.224-0.5,0.5v24c0,0.276,0.224,0.5,0.5,0.5s0.5-0.224,0.5-0.5V3C13.5,2.724,13.276,2.5,13,2.5z"/>
	<path d="M17,7.5c-0.276,0-0.5,0.224-0.5,0.5v14c0,0.276,0.224,0.5,0.5,0.5s0.5-0.224,0.5-0.5V8C17.5,7.724,17.276,7.5,17,7.5z"/>
	<path d="M21,2.5c-0.276,0-0.5,0.224-0.5,0.5v24c0,0.276,0.224,0.5,0.5,0.5s0.5-0.224,0.5-0.5V3C21.5,2.724,21.276,2.5,21,2.5z"/>
	<path d="M25,7.5c-0.276,0-0.5,0.224-0.5,0.5v14c0,0.276,0.224,0.5,0.5,0.5s0.5-0.224,0.5-0.5V8C25.5,7.724,25.276,7.5,25,7.5z"/>
	<path d="M29,11.5c-0.276,0-0.5,0.224-0.5,0.5v6c0,0.276,0.224,0.5,0.5,0.5s0.5-0.224,0.5-0.5v-6C29.5,11.724,29.276,11.5,29,11.5z"
		/>
</g>
</svg>
