<?xml version="1.0" encoding="iso-8859-1"?>
<!-- Generator: Adobe Illustrator 19.0.0, SVG Export Plug-In . SVG Version: 6.00 Build 0)  -->
<svg version="1.1" id="Layer_1" xmlns="http://www.w3.org/2000/svg" xmlns:xlink="http://www.w3.org/1999/xlink" x="0px" y="0px"
	 viewBox="0 0 24 24" style="enable-background:new 0 0 24 24;" xml:space="preserve">
<path d="M20.383,10.703c-1.06-0.25-1.974-0.584-2.795-1.022L12.299,6.86C11.077,6.209,9.468,6.506,8.63,7.468
	C8.22,7.938,7.43,8.5,6,8.5c-1.581,0-2.389-0.67-2.788-1.233C2.871,6.787,2.328,6.5,1.761,6.5H0.5C0.224,6.5,0,6.724,0,7v8v1
	c0,0.827,0.673,1.5,1.5,1.5h21c0.827,0,1.5-0.673,1.5-1.5v-1C24,12.492,21.781,11.034,20.383,10.703z M22.944,14.5h-5.506
	c1.009-1.434,2.211-2.748,2.79-2.799C21.23,11.965,22.679,12.916,22.944,14.5z M1.76,7.5c0.248,0,0.481,0.126,0.636,0.346
	C2.835,8.464,3.886,9.5,6,9.5c1.806,0,2.837-0.748,3.384-1.375c0.542-0.622,1.622-0.819,2.445-0.383l0.179,0.095l-0.924,1.386
	c-0.153,0.23-0.09,0.54,0.139,0.693C11.308,9.973,11.404,10,11.5,10c0.161,0,0.319-0.078,0.416-0.223l0.978-1.467l1.081,0.577
	l-0.891,1.336c-0.153,0.23-0.09,0.54,0.139,0.693C13.308,10.973,13.404,11,13.5,11c0.161,0,0.319-0.078,0.416-0.223l0.945-1.417
	l1.081,0.577l-0.858,1.287c-0.153,0.23-0.09,0.54,0.139,0.693C15.308,11.973,15.404,12,15.5,12c0.161,0,0.319-0.078,0.416-0.223
	l0.912-1.368l0.289,0.154c0.552,0.294,1.157,0.532,1.794,0.745c-1.083,0.859-2.164,2.397-2.683,3.192H4.949
	C4.716,12.423,3.077,10.784,1,10.551V7.5H1.76z M1,11.551c1.527,0.221,2.728,1.422,2.949,2.949H1V11.551z M23,16
	c0,0.276-0.225,0.5-0.5,0.5h-21C1.225,16.5,1,16.276,1,16v-0.5h22V16z"/>
</svg>
