<?xml version="1.0" encoding="iso-8859-1"?>
<!-- Generator: Adobe Illustrator 19.0.0, SVG Export Plug-In . SVG Version: 6.00 Build 0)  -->
<svg version="1.1" id="Layer_1" xmlns="http://www.w3.org/2000/svg" xmlns:xlink="http://www.w3.org/1999/xlink" x="0px" y="0px"
	 viewBox="0 0 30 30" style="enable-background:new 0 0 30 30;" xml:space="preserve">
<g>
	<path d="M8,10c-2.757,0-5,2.243-5,5s2.243,5,5,5s5-2.243,5-5S10.757,10,8,10z"/>
	<path d="M21.935,7H8.065C3.618,7,0,10.589,0,15s3.618,8,8.065,8h13.869C26.382,23,30,19.411,30,15S26.382,7,21.935,7z M21.935,22
		H8.065C4.17,22,1,18.86,1,15s3.17-7,7.065-7h13.869C25.83,8,29,11.14,29,15S25.83,22,21.935,22z"/>
	<path d="M17,12c-1.103,0-2,0.785-2,1.75v2.5c0,0.965,0.897,1.75,2,1.75c1.102,0,2-0.785,2-1.75v-2.5C19,12.785,18.102,12,17,12z
		 M18,16.25c0,0.407-0.458,0.75-1,0.75s-1-0.343-1-0.75v-2.5c0-0.407,0.458-0.75,1-0.75s1,0.343,1,0.75V16.25z"/>
	<path d="M26.5,12h-2c-0.276,0-0.5,0.224-0.5,0.5v5c0,0.276,0.224,0.5,0.5,0.5s0.5-0.224,0.5-0.5V15h0.5c0.276,0,0.5-0.224,0.5-0.5
		S25.776,14,25.5,14H25v-1h1.5c0.276,0,0.5-0.224,0.5-0.5S26.776,12,26.5,12z"/>
	<path d="M22.5,12h-2c-0.276,0-0.5,0.224-0.5,0.5v5c0,0.276,0.224,0.5,0.5,0.5s0.5-0.224,0.5-0.5V15h0.5c0.276,0,0.5-0.224,0.5-0.5
		S21.776,14,21.5,14H21v-1h1.5c0.276,0,0.5-0.224,0.5-0.5S22.776,12,22.5,12z"/>
</g>
</svg>
