<?xml version="1.0" encoding="iso-8859-1"?>
<!-- Generator: Adobe Illustrator 19.0.0, SVG Export Plug-In . SVG Version: 6.00 Build 0)  -->
<svg version="1.1" id="Layer_1" xmlns="http://www.w3.org/2000/svg" xmlns:xlink="http://www.w3.org/1999/xlink" x="0px" y="0px"
	 viewBox="0 0 30 30" style="enable-background:new 0 0 30 30;" xml:space="preserve">
<g>
	<path d="M24.355,11.649c-0.001-0.001-0.001-0.002-0.002-0.003s-0.002-0.001-0.003-0.002l-5.995-5.995
		c-0.001-0.001-0.001-0.002-0.002-0.003s-0.002-0.001-0.003-0.002l-1.497-1.497c-0.195-0.195-0.512-0.195-0.707,0
		c-0.195,0.195-0.195,0.512,0,0.707L17.292,6L4.146,19.146c-0.118,0.118-0.169,0.288-0.137,0.452l0.948,4.738l-4.811,4.811
		c-0.195,0.195-0.195,0.512,0,0.707C0.245,29.951,0.372,30,0.5,30s0.256-0.049,0.353-0.146l4.811-4.811l4.737,0.947
		C10.435,25.996,10.466,26,10.5,26c0.131,0,0.259-0.052,0.354-0.146L24,12.707l1.146,1.146C25.245,13.951,25.372,14,25.5,14
		s0.256-0.049,0.353-0.146c0.195-0.195,0.195-0.512,0-0.707L24.355,11.649z M8.854,19.854C8.756,19.952,8.628,20,8.5,20
		s-0.256-0.049-0.354-0.146l-1.5-1.5c-0.195-0.195-0.195-0.512,0-0.707s0.512-0.195,0.707,0l1.5,1.5
		C9.049,19.342,9.049,19.658,8.854,19.854z M10.854,17.354C10.756,17.452,10.628,17.5,10.5,17.5s-0.256-0.049-0.354-0.146l-1-1
		c-0.195-0.195-0.195-0.512,0-0.707s0.512-0.195,0.707,0l1,1C11.049,16.842,11.049,17.158,10.854,17.354z M13.354,15.354
		C13.256,15.452,13.128,15.5,13,15.5s-0.256-0.049-0.354-0.146l-1.5-1.5c-0.195-0.195-0.195-0.512,0-0.707s0.512-0.195,0.707,0
		l1.5,1.5C13.549,14.842,13.549,15.158,13.354,15.354z M15.354,12.854C15.256,12.952,15.128,13,15,13s-0.256-0.049-0.354-0.146l-1-1
		c-0.195-0.195-0.195-0.512,0-0.707s0.512-0.195,0.707,0l1,1C15.549,12.342,15.549,12.658,15.354,12.854z M17.854,10.854
		C17.756,10.952,17.628,11,17.5,11s-0.256-0.049-0.354-0.146l-1.5-1.5c-0.195-0.195-0.195-0.512,0-0.707s0.512-0.195,0.707,0
		l1.5,1.5C18.049,10.342,18.049,10.658,17.854,10.854z"/>
	<path d="M29.854,7.147l-7-7c-0.195-0.195-0.512-0.195-0.707,0s-0.195,0.512,0,0.707L23.293,2l-2.646,2.646
		c-0.195,0.195-0.195,0.512,0,0.707C20.745,5.451,20.872,5.5,21,5.5s0.256-0.049,0.353-0.146L24,2.707L27.293,6l-2.646,2.646
		c-0.195,0.195-0.195,0.512,0,0.707C24.745,9.451,24.872,9.5,25,9.5s0.256-0.049,0.353-0.146L28,6.707l1.146,1.146
		C29.245,7.951,29.372,8,29.5,8s0.256-0.049,0.353-0.146C30.049,7.659,30.049,7.342,29.854,7.147z"/>
</g>
</svg>
