<?xml version="1.0" encoding="iso-8859-1"?>
<!-- Generator: Adobe Illustrator 19.0.0, SVG Export Plug-In . SVG Version: 6.00 Build 0)  -->
<svg version="1.1" id="Layer_1" xmlns="http://www.w3.org/2000/svg" xmlns:xlink="http://www.w3.org/1999/xlink" x="0px" y="0px"
	 viewBox="0 0 24 24" style="enable-background:new 0 0 24 24;" xml:space="preserve">
<g>
	<path d="M19.855,9.149c-0.001-0.001-0.001-0.002-0.002-0.003s-0.002-0.001-0.003-0.002l-4.995-4.995
		c-0.001-0.001-0.001-0.002-0.002-0.003s-0.002-0.001-0.003-0.002l-0.997-0.997c-0.195-0.195-0.512-0.195-0.707,0
		s-0.195,0.512,0,0.707L13.792,4.5L3.146,15.146c-0.124,0.124-0.174,0.305-0.131,0.475l0.931,3.726l-3.8,3.8
		c-0.195,0.195-0.195,0.512,0,0.707C0.245,23.951,0.372,24,0.5,24s0.256-0.049,0.353-0.146l3.8-3.8l3.726,0.931
		C8.419,20.995,8.459,21,8.5,21c0.131,0,0.259-0.052,0.353-0.147L19.5,10.207l0.647,0.647C20.245,10.951,20.372,11,20.5,11
		s0.256-0.049,0.353-0.146c0.195-0.195,0.195-0.512,0-0.707L19.855,9.149z M8.346,19.946l-3.435-0.858l-0.858-3.435l1.196-1.196
		l1.397,1.397C6.745,15.951,6.872,16,7,16s0.256-0.049,0.353-0.146c0.195-0.195,0.195-0.512,0-0.707L5.957,13.75L7,12.707
		l1.147,1.147C8.245,13.951,8.372,14,8.5,14s0.256-0.049,0.353-0.146c0.195-0.195,0.195-0.512,0-0.707L7.707,12l1.043-1.043
		l1.397,1.397c0.098,0.097,0.226,0.146,0.354,0.146s0.256-0.049,0.353-0.146c0.195-0.195,0.195-0.512,0-0.707L9.457,10.25
		L10.5,9.207l1.147,1.147C11.745,10.451,11.872,10.5,12,10.5s0.256-0.049,0.353-0.146c0.195-0.195,0.195-0.512,0-0.707L11.207,8.5
		l1.051-1.051l1.397,1.397c0.098,0.097,0.226,0.146,0.354,0.146s0.256-0.049,0.353-0.146c0.195-0.195,0.195-0.512,0-0.707
		l-1.397-1.397L14.5,5.207L18.792,9.5L8.346,19.946z"/>
	<path d="M23.854,5.147l-5-5c-0.195-0.195-0.512-0.195-0.707,0c-0.195,0.195-0.195,0.512,0,0.707L18.793,1.5l-2.146,2.146
		c-0.195,0.195-0.195,0.512,0,0.707C16.745,4.451,16.872,4.5,17,4.5s0.256-0.049,0.353-0.146L19.5,2.207L21.793,4.5l-2.146,2.146
		c-0.195,0.195-0.195,0.512,0,0.707C19.745,7.451,19.872,7.5,20,7.5s0.256-0.049,0.353-0.146L22.5,5.207l0.646,0.646
		C23.245,5.951,23.372,6,23.5,6s0.256-0.049,0.353-0.146C24.049,5.659,24.049,5.342,23.854,5.147z"/>
</g>
</svg>
