<?xml version="1.0" encoding="iso-8859-1"?>
<!-- Generator: Adobe Illustrator 19.0.0, SVG Export Plug-In . SVG Version: 6.00 Build 0)  -->
<svg version="1.1" id="Layer_1" xmlns="http://www.w3.org/2000/svg" xmlns:xlink="http://www.w3.org/1999/xlink" x="0px" y="0px"
	 viewBox="0 0 30 30" style="enable-background:new 0 0 30 30;" xml:space="preserve">
<g>
	<path d="M24.358,11.651c-0.002-0.002-0.002-0.004-0.004-0.006s-0.004-0.002-0.006-0.004l-5.99-5.99
		c-0.002-0.002-0.002-0.004-0.004-0.006s-0.004-0.002-0.006-0.004l-1.495-1.495c-0.195-0.195-0.512-0.195-0.707,0
		c-0.195,0.195-0.195,0.512,0,0.707L17.293,6l-2.146,2.146l0,0l0,0l-4.5,4.5l0,0l0,0l-2,2l0,0l0,0l-4.499,4.499
		c-0.118,0.118-0.17,0.288-0.137,0.451l0.948,4.738l-4.812,4.812c-0.195,0.195-0.195,0.512,0,0.707C0.245,29.951,0.372,30,0.5,30
		s0.256-0.049,0.353-0.146l4.812-4.812l4.737,0.948C10.435,25.997,10.468,26,10.5,26c0.131,0,0.259-0.052,0.354-0.147L24,12.707
		l1.146,1.147C25.245,13.951,25.372,14,25.5,14s0.256-0.049,0.353-0.146c0.195-0.195,0.195-0.512,0-0.707L24.358,11.651z
		 M10.336,24.957l-4.411-0.882l-0.882-4.411l1.706-1.706l1.396,1.396C8.245,19.451,8.372,19.5,8.5,19.5s0.256-0.049,0.353-0.146
		c0.195-0.195,0.195-0.512,0-0.707L7.457,17.25L9,15.707l1.146,1.146C10.245,16.951,10.372,17,10.5,17s0.256-0.049,0.353-0.146
		c0.195-0.195,0.195-0.512,0-0.707L9.707,15L11,13.707l1.646,1.646C12.745,15.451,12.872,15.5,13,15.5s0.256-0.049,0.353-0.146
		c0.195-0.195,0.195-0.512,0-0.707L11.707,13l1.543-1.543l1.396,1.396C14.745,12.951,14.872,13,15,13s0.256-0.049,0.353-0.146
		c0.195-0.195,0.195-0.512,0-0.707l-1.396-1.396L15.5,9.207l1.646,1.646C17.245,10.951,17.372,11,17.5,11s0.256-0.049,0.353-0.146
		c0.195-0.195,0.195-0.512,0-0.707L16.207,8.5L18,6.707L23.293,12L10.336,24.957z"/>
	<path d="M29.854,7.147l-7-7c-0.195-0.195-0.512-0.195-0.707,0s-0.195,0.512,0,0.707L23.293,2l-2.646,2.646
		c-0.195,0.195-0.195,0.512,0,0.707C20.745,5.451,20.872,5.5,21,5.5s0.256-0.049,0.353-0.146L24,2.707L27.293,6l-2.646,2.646
		c-0.195,0.195-0.195,0.512,0,0.707C24.745,9.451,24.872,9.5,25,9.5s0.256-0.049,0.353-0.146L28,6.707l1.146,1.146
		C29.245,7.951,29.372,8,29.5,8s0.256-0.049,0.353-0.146C30.049,7.659,30.049,7.342,29.854,7.147z"/>
</g>
</svg>
