<?xml version="1.0" encoding="iso-8859-1"?>
<!-- Generator: Adobe Illustrator 19.0.0, SVG Export Plug-In . SVG Version: 6.00 Build 0)  -->
<svg version="1.1" id="Layer_1" xmlns="http://www.w3.org/2000/svg" xmlns:xlink="http://www.w3.org/1999/xlink" x="0px" y="0px"
	 viewBox="0 0 24 24" style="enable-background:new 0 0 24 24;" xml:space="preserve">
<g>
	<path d="M21.5,6h-9.794l5.146-5.146c0.195-0.195,0.195-0.512,0-0.707s-0.512-0.195-0.707,0l-5.646,5.646L4.853,0.147
		c-0.195-0.195-0.512-0.195-0.707,0s-0.195,0.512,0,0.707L9.292,6H2.5C1.122,6,0,7.121,0,8.5v11C0,20.879,1.122,22,2.5,22H3v1.5
		C3,23.776,3.224,24,3.5,24S4,23.776,4,23.5V22h16v1.5c0,0.276,0.224,0.5,0.5,0.5s0.5-0.224,0.5-0.5V22h0.5
		c1.378,0,2.5-1.121,2.5-2.5v-11C24,7.121,22.878,6,21.5,6z M23,19.5c0,0.827-0.673,1.5-1.5,1.5h-19C1.673,21,1,20.327,1,19.5v-11
		C1,7.673,1.673,7,2.5,7h19C22.327,7,23,7.673,23,8.5V19.5z"/>
	<path d="M13.5,8h-8C3.57,8,2,9.57,2,11.5v5C2,18.43,3.57,20,5.5,20h8c1.93,0,3.5-1.57,3.5-3.5v-5C17,9.57,15.43,8,13.5,8z M16,16.5
		c0,1.379-1.122,2.5-2.5,2.5h-8C4.122,19,3,17.879,3,16.5v-5C3,10.121,4.122,9,5.5,9h8c1.378,0,2.5,1.121,2.5,2.5V16.5z"/>
	<path d="M20.5,9h-2C18.224,9,18,9.224,18,9.5s0.224,0.5,0.5,0.5h2c0.276,0,0.5-0.224,0.5-0.5S20.776,9,20.5,9z"/>
	<path d="M20.5,11h-2c-0.276,0-0.5,0.224-0.5,0.5s0.224,0.5,0.5,0.5h2c0.276,0,0.5-0.224,0.5-0.5S20.776,11,20.5,11z"/>
	<path d="M20.5,13h-2c-0.276,0-0.5,0.224-0.5,0.5s0.224,0.5,0.5,0.5h2c0.276,0,0.5-0.224,0.5-0.5S20.776,13,20.5,13z"/>
	<path d="M20.5,15h-2c-0.276,0-0.5,0.224-0.5,0.5v4c0,0.276,0.224,0.5,0.5,0.5h2c0.276,0,0.5-0.224,0.5-0.5v-4
		C21,15.224,20.776,15,20.5,15z M20,19h-1v-3h1V19z"/>
</g>
</svg>
