<?xml version="1.0" encoding="iso-8859-1"?>
<!-- Generator: Adobe Illustrator 19.0.0, SVG Export Plug-In . SVG Version: 6.00 Build 0)  -->
<svg version="1.1" id="Layer_1" xmlns="http://www.w3.org/2000/svg" xmlns:xlink="http://www.w3.org/1999/xlink" x="0px" y="0px"
	 viewBox="0 0 24 24" style="enable-background:new 0 0 24 24;" xml:space="preserve">
<path d="M24,2.612c0.002-0.699-0.27-1.358-0.772-1.86c-0.985-0.987-2.706-0.986-3.691,0l-3.534,3.532l-1.149-1.149
	c-0.195-0.195-0.512-0.195-0.707,0l-7,7c-0.195,0.195-0.195,0.512,0,0.707c0.098,0.097,0.226,0.146,0.354,0.146
	s0.256-0.049,0.353-0.146L14.5,4.195l0.796,0.796L2.147,18.134c-0.093,0.094-0.146,0.221-0.146,0.354s0.052,0.26,0.146,0.354
	l0.146,0.146l-1.146,1.146c-0.195,0.195-0.195,0.512,0,0.707l0.646,0.646l-1.646,1.646c-0.195,0.195-0.195,0.512,0,0.707
	c0.098,0.097,0.226,0.146,0.354,0.146s0.256-0.049,0.353-0.146L2.5,22.195l0.646,0.646c0.098,0.097,0.226,0.146,0.354,0.146
	s0.256-0.049,0.353-0.146L5,21.695l0.146,0.146c0.098,0.097,0.226,0.146,0.354,0.146s0.256-0.049,0.353-0.147
	c0.034-0.034,0.062-0.072,0.084-0.112c0.285-0.346,2.508-2.64,13.033-13.063l0.676,0.676C19.744,9.438,19.872,9.487,20,9.487
	s0.256-0.049,0.353-0.146c0.195-0.195,0.195-0.512,0-0.707l-0.672-0.672c1.095-1.084,2.272-2.248,3.544-3.505
	C23.723,3.966,23.998,3.311,24,2.612z M3.501,21.781l-1.293-1.293L3,19.695l1.293,1.293L3.501,21.781z M5.492,20.772l-2.284-2.284
	l12.795-12.79l2.261,2.261C9.423,16.71,6.473,19.682,5.492,20.772z M22.524,3.748c-1.281,1.266-2.448,2.42-3.548,3.509L16.71,4.992
	l3.533-3.532c0.608-0.608,1.661-0.616,2.284,0.007C22.833,1.773,23.001,2.179,23,2.611C23,3.041,22.831,3.445,22.524,3.748z"/>
</svg>
