<?xml version="1.0" encoding="iso-8859-1"?>
<!-- Generator: Adobe Illustrator 19.0.0, SVG Export Plug-In . SVG Version: 6.00 Build 0)  -->
<svg version="1.1" id="Layer_1" xmlns="http://www.w3.org/2000/svg" xmlns:xlink="http://www.w3.org/1999/xlink" x="0px" y="0px"
	 viewBox="0 0 24 24" style="enable-background:new 0 0 24 24;" xml:space="preserve">
<g>
	<path d="M10.5,4C11.468,4,12,3.625,12,3.5S11.468,3,10.5,3S9,3.375,9,3.5S9.532,4,10.5,4z"/>
	<path d="M21.626,6.175C21.161,5.749,20.238,5.565,19,5.519V3.5C19,1.227,14.62,0,10.5,0S2,1.227,2,3.5V18c0,1.97,4.276,3,8.5,3
		c1.61,0,3.168-0.154,4.5-0.43V8.5c0-0.4,0.163-0.79,0.448-1.07C15.75,7.135,16.141,6.986,16.539,7
		c0.391,0.008,0.775-0.008,1.15-0.033l0.003,0.005c0.923-0.06,1.75-0.201,2.212-0.352c0.264-0.085,0.545,0.059,0.63,0.321
		c0.085,0.263-0.059,0.545-0.321,0.63c-0.503,0.163-1.225,0.288-2.002,0.36C17.659,7.983,17.08,8.008,16.53,8
		c-0.008,0-0.016,0-0.023,0c-0.005,0-0.014,0.004-0.019,0.004c-0.118-0.002-0.22,0.041-0.311,0.123
		C16.17,8.132,16.16,8.134,16.154,8.14c-0.002,0.002-0.004,0.002-0.005,0.004C16.055,8.237,16,8.367,16,8.5v11.831v3.168
		c0,0.273,0.219,0.496,0.491,0.5C16.53,24,16.597,24,16.687,24c0.864,0,3.881-0.074,4.908-1.084C21.86,22.656,22,22.339,22,21.999V7
		C22,6.684,21.871,6.399,21.626,6.175z M10.5,2C11.925,2,13,2.645,13,3.5S11.925,5,10.5,5S8,4.355,8,3.5S9.075,2,10.5,2z
		 M4.397,5.978C4.141,5.873,4.02,5.58,4.126,5.325C4.232,5.07,4.522,4.95,4.778,5.054C6.236,5.656,8.322,6.001,10.5,6.001
		c0.452,0,0.898-0.018,1.337-0.047c0.01-0.001,0.02-0.001,0.03-0.002c1.666-0.112,3.206-0.424,4.355-0.898
		c0.257-0.104,0.548,0.017,0.652,0.271c0.029,0.071,0.037,0.145,0.033,0.217l0,0c-0.005,0.084-0.036,0.163-0.079,0.234
		c-0.008,0.013-0.016,0.027-0.026,0.039c-0.051,0.068-0.116,0.128-0.2,0.162c-0.005,0.002-0.011,0.004-0.016,0.006
		c-0.322,0.132-0.68,0.245-1.045,0.352c-0.171,0.049-0.342,0.098-0.521,0.142c-0.14,0.035-0.29,0.063-0.435,0.095
		c-0.508,0.107-1.036,0.199-1.59,0.266c-0.535,0.065-1.085,0.107-1.653,0.129c0.001,0,0.002,0,0.003,0C11.062,6.978,10.788,7,10.5,7
		C8.162,7,5.995,6.637,4.397,5.978z"/>
</g>
</svg>
