<?xml version="1.0" encoding="iso-8859-1"?>
<!-- Generator: Adobe Illustrator 19.0.0, SVG Export Plug-In . SVG Version: 6.00 Build 0)  -->
<svg version="1.1" id="Layer_1" xmlns="http://www.w3.org/2000/svg" xmlns:xlink="http://www.w3.org/1999/xlink" x="0px" y="0px"
	 viewBox="0 0 24 24" style="enable-background:new 0 0 24 24;" xml:space="preserve">
<g>
	<rect x="17.285" y="4.3" transform="matrix(-0.7071 -0.7071 0.7071 -0.7071 26.6735 20.0617)" width="0.414" height="0.414"/>
	<rect x="19.289" y="6.295" transform="matrix(0.7072 0.707 -0.707 0.7072 10.3053 -11.8803)" width="0.414" height="0.414"/>
	<path d="M23.852,6.148l-6-6c-0.195-0.195-0.512-0.195-0.707,0l-4.646,4.646l-0.646-0.646c-0.195-0.195-0.512-0.195-0.707,0
		L1.56,13.734c-2.077,2.078-2.077,5.458,0,7.535l1.172,1.172c1.039,1.039,2.403,1.558,3.768,1.558s2.729-0.52,3.768-1.558
		l9.586-9.586c0.194-0.195,0.194-0.512-0.001-0.707l-0.646-0.646l4.647-4.647C24.047,6.66,24.047,6.343,23.852,6.148z
		 M10.498,20.001c-3.584,0-6.5-2.916-6.5-6.5c0-0.276,0.224-0.5,0.5-0.5s0.5,0.224,0.5,0.5c0,3.033,2.468,5.5,5.5,5.5
		c0.276,0,0.5,0.224,0.5,0.5S10.775,20.001,10.498,20.001z M10.498,18.001c-2.481,0-4.5-2.019-4.5-4.5c0-0.276,0.224-0.5,0.5-0.5
		s0.5,0.224,0.5,0.5c0,1.93,1.57,3.5,3.5,3.5c0.276,0,0.5,0.224,0.5,0.5S10.775,18.001,10.498,18.001z M10.498,16.001
		c-1.379,0-2.5-1.122-2.5-2.5c0-0.276,0.224-0.5,0.5-0.5s0.5,0.224,0.5,0.5c0,0.827,0.673,1.5,1.5,1.5c0.276,0,0.5,0.224,0.5,0.5
		S10.775,16.001,10.498,16.001z M16.139,4.153c0.477-0.477,0.757-0.757,0.936-0.921c0.019-0.028,0.04-0.054,0.064-0.079l0.012,0.011
		c0.191-0.167,0.243-0.167,0.352-0.167c0.176,0,0.336,0.092,0.426,0.238l0.918,0.918c0.195,0.195,0.195,0.512,0,0.707l-1,1
		c-0.098,0.097-0.226,0.146-0.354,0.146s-0.256-0.049-0.354-0.146l-1-1C15.944,4.665,15.944,4.348,16.139,4.153z M20.852,6.855l-1,1
		c-0.098,0.098-0.226,0.146-0.354,0.146s-0.256-0.049-0.354-0.146l-1-1c-0.195-0.195-0.195-0.512,0-0.707l1-1
		c0.195-0.195,0.512-0.195,0.707,0l1,1C21.047,6.343,21.047,6.66,20.852,6.855z"/>
</g>
</svg>
