<?xml version="1.0" encoding="iso-8859-1"?>
<!-- Generator: Adobe Illustrator 19.0.0, SVG Export Plug-In . SVG Version: 6.00 Build 0)  -->
<svg version="1.1" id="Layer_1" xmlns="http://www.w3.org/2000/svg" xmlns:xlink="http://www.w3.org/1999/xlink" x="0px" y="0px"
	 viewBox="0 0 30 30" style="enable-background:new 0 0 30 30;" xml:space="preserve">
<g>
	<path d="M20.532,7.354L19.349,0.91c-0.044-0.237-0.251-0.41-0.492-0.41h-7.715c-0.241,0-0.448,0.172-0.492,0.41L9.467,7.354
		C6.979,9.123,5.5,11.965,5.5,15s1.479,5.878,3.968,7.646l1.183,6.444c0.044,0.237,0.251,0.41,0.492,0.41h7.715
		c0.241,0,0.448-0.172,0.492-0.41l1.183-6.444C23.021,20.877,24.5,18.035,24.5,15S23.021,9.122,20.532,7.354z M15,21.5
		c-3.584,0-6.5-2.916-6.5-6.5s2.916-6.5,6.5-6.5s6.5,2.916,6.5,6.5S18.584,21.5,15,21.5z"/>
	<path d="M15.5,14.793V11c0-0.276-0.224-0.5-0.5-0.5s-0.5,0.224-0.5,0.5v4c0,0.133,0.053,0.26,0.146,0.354l2,2
		C16.745,17.452,16.872,17.5,17,17.5s0.256-0.049,0.354-0.146c0.195-0.195,0.195-0.512,0-0.707L15.5,14.793z"/>
</g>
</svg>
