<?xml version="1.0" encoding="iso-8859-1"?>
<!-- Generator: Adobe Illustrator 19.0.0, SVG Export Plug-In . SVG Version: 6.00 Build 0)  -->
<svg version="1.1" id="Layer_1" xmlns="http://www.w3.org/2000/svg" xmlns:xlink="http://www.w3.org/1999/xlink" x="0px" y="0px"
	 viewBox="0 0 24 24" style="enable-background:new 0 0 24 24;" xml:space="preserve">
<g>
	<path d="M16.404,5.932l-0.912-5.021C15.448,0.673,15.241,0.5,15,0.5H9c-0.241,0-0.448,0.173-0.492,0.411L7.596,5.932
		C5.653,7.343,4.5,9.596,4.5,12s1.153,4.657,3.096,6.068l0.912,5.021C8.552,23.327,8.759,23.5,9,23.5h6
		c0.241,0,0.448-0.173,0.492-0.411l0.912-5.021C18.347,16.657,19.5,14.404,19.5,12S18.347,7.343,16.404,5.932z M12,17.5
		c-3.033,0-5.5-2.467-5.5-5.5S8.967,6.5,12,6.5s5.5,2.467,5.5,5.5S15.033,17.5,12,17.5z"/>
	<path d="M12.5,11.793V9c0-0.276-0.224-0.5-0.5-0.5S11.5,8.724,11.5,9v3c0,0.133,0.053,0.26,0.146,0.354l2,2
		C13.744,14.452,13.872,14.5,14,14.5s0.256-0.049,0.354-0.146c0.195-0.195,0.195-0.512,0-0.707L12.5,11.793z"/>
</g>
</svg>
