<?xml version="1.0" encoding="iso-8859-1"?>
<!-- Generator: Adobe Illustrator 19.0.0, SVG Export Plug-In . SVG Version: 6.00 Build 0)  -->
<svg version="1.1" id="Layer_1" xmlns="http://www.w3.org/2000/svg" xmlns:xlink="http://www.w3.org/1999/xlink" x="0px" y="0px"
	 viewBox="0 0 24 24" style="enable-background:new 0 0 24 24;" xml:space="preserve">
<g>
	<path d="M5.5,6h-4C1.224,6,1,6.224,1,6.5v4C1,10.776,1.224,11,1.5,11h4C5.776,11,6,10.776,6,10.5v-4C6,6.224,5.776,6,5.5,6z"/>
	<path d="M11.5,4h-2C8.122,4,7,5.122,7,6.5v4C7,11.878,8.122,13,9.5,13h2c1.378,0,2.5-1.122,2.5-2.5v-4C14,5.122,12.878,4,11.5,4z"
		/>
	<path d="M17.5,6h-2C15.224,6,15,6.224,15,6.5v4c0,0.276,0.224,0.5,0.5,0.5h1c0.827,0,1.5,0.673,1.5,1.5v2
		c0,0.276,0.224,0.5,0.5,0.5h4c0.276,0,0.5-0.224,0.5-0.5v-3C23,8.467,20.533,6,17.5,6z"/>
	<path d="M20.088,17.216C19.74,17.721,18,20.3,18,21.5c0,1.378,1.122,2.5,2.5,2.5s2.5-1.122,2.5-2.5c0-1.2-1.74-3.779-2.088-4.284
		C20.724,16.945,20.276,16.945,20.088,17.216z"/>
	<path d="M13.5,0c-0.37,0-1.885,0.176-3,0.457C9.385,0.176,7.87,0,7.5,0C6.673,0,6,0.673,6,1.5S6.673,3,7.5,3
		c0.32,0,1.497-0.132,2.53-0.35C10.095,2.852,10.277,3,10.5,3s0.405-0.148,0.47-0.35C12.003,2.868,13.18,3,13.5,3
		C14.327,3,15,2.327,15,1.5S14.327,0,13.5,0z M13.5,2c-0.299,0-1.833-0.179-2.871-0.457c-0.042-0.011-0.085-0.017-0.129-0.017
		s-0.087,0.006-0.129,0.017C9.333,1.821,7.799,2,7.5,2C7.224,2,7,1.776,7,1.5S7.224,1,7.5,1c0.299,0,1.833,0.179,2.871,0.457
		c0.084,0.022,0.174,0.022,0.258,0C11.667,1.179,13.201,1,13.5,1C13.776,1,14,1.224,14,1.5S13.776,2,13.5,2z"/>
</g>
</svg>
