<?xml version="1.0" encoding="iso-8859-1"?>
<!-- Generator: Adobe Illustrator 19.0.0, SVG Export Plug-In . SVG Version: 6.00 Build 0)  -->
<svg version="1.1" id="Layer_1" xmlns="http://www.w3.org/2000/svg" xmlns:xlink="http://www.w3.org/1999/xlink" x="0px" y="0px"
	 viewBox="0 0 24 24" style="enable-background:new 0 0 24 24;" xml:space="preserve">
<g>
	<path d="M19.5,13h-1c-0.276,0-0.5,0.224-0.5,0.5s0.224,0.5,0.5,0.5h1c1.378,0,2.5,1.121,2.5,2.5v3.013
		C21.581,19.195,21.065,19,20.5,19c-1.378,0-2.5,1.121-2.5,2.5s1.122,2.5,2.5,2.5s2.5-1.121,2.5-2.5v-5C23,14.57,21.43,13,19.5,13z
		 M20.5,23c-0.827,0-1.5-0.673-1.5-1.5s0.673-1.5,1.5-1.5s1.5,0.673,1.5,1.5S21.327,23,20.5,23z"/>
	<path d="M9,8c-4.411,0-8,3.589-8,8s3.589,8,8,8s8-3.589,8-8S13.411,8,9,8z M9,23c-3.86,0-7-3.141-7-7s3.14-7,7-7s7,3.141,7,7
		S12.86,23,9,23z"/>
	<path d="M9,14c-1.103,0-2,0.897-2,2s0.897,2,2,2s2-0.897,2-2S10.103,14,9,14z M9,17c-0.551,0-1-0.448-1-1s0.449-1,1-1s1,0.448,1,1
		S9.551,17,9,17z"/>
	<path d="M8,13.5c0.032,0,0.065-0.003,0.098-0.009c0.27-0.054,0.446-0.317,0.392-0.588l-0.5-2.5
		c-0.053-0.272-0.314-0.451-0.588-0.393c-0.27,0.054-0.446,0.317-0.392,0.588l0.5,2.5C7.558,13.336,7.767,13.5,8,13.5z"/>
	<path d="M10.5,13.5c0,0.276,0.224,0.5,0.5,0.5h3c0.276,0,0.5-0.224,0.5-0.5S14.276,13,14,13h-3C10.724,13,10.5,13.224,10.5,13.5z"
		/>
	<path d="M2,2c0.551,0,0.996-0.445,0.999-0.995c1.209,0.02,2.225,0.889,2.425,2.085l0.582,3.493c0.04,0.241,0.248,0.418,0.493,0.418
		h9.343c0.921,0,1.823,0.374,2.475,1.025l0.829,0.828C19.244,8.951,19.372,9,19.5,9s0.256-0.049,0.354-0.146
		c0.195-0.195,0.195-0.512,0-0.707l-0.829-0.828c-0.838-0.838-1.998-1.318-3.182-1.318h-8.92L6.411,2.926
		C6.128,1.23,4.676,0.001,2.958,0.001H2.5c-0.08,0-0.152,0.023-0.219,0.056C2.19,0.03,2.1,0,2,0C1.448,0,1,0.448,1,1S1.448,2,2,2z"
		/>
</g>
</svg>
