<?xml version="1.0" encoding="iso-8859-1"?>
<!-- Generator: Adobe Illustrator 17.1.0, SVG Export Plug-In . SVG Version: 6.00 Build 0)  -->
<!DOCTYPE svg PUBLIC "-//W3C//DTD SVG 1.0//EN" "http://www.w3.org/TR/2001/REC-SVG-20010904/DTD/svg10.dtd">
<svg version="1.0" xmlns="http://www.w3.org/2000/svg" xmlns:xlink="http://www.w3.org/1999/xlink" x="0px" y="0px" width="24px"
	 height="24px" viewBox="0 0 24 24" style="enable-background:new 0 0 24 24;" xml:space="preserve">
<g id="Guides">
	<g id="_x32_0_px_2_">
	</g>
	<g id="_x32_0px">
	</g>
	<g id="_x34_0px">
	</g>
	<g id="_x34_4_px">
	</g>
	<g id="_x34_8px">
		<g id="_x31_6px">
		</g>
		<g id="square_4px">
			<g id="_x32_8_px">
				<g id="square_4px_2_">
				</g>
				<g id="square_4px_3_">
				</g>
				<g id="square_4px_1_">
				</g>
				<g id="_x32_4_px_2_">
				</g>
				<g id="_x31_2_px">
				</g>
			</g>
		</g>
	</g>
	<g id="Icons">
	</g>
	<g id="_x32_0_px">
	</g>
	<g id="square_6px">
		<g id="_x31_2_PX">
		</g>
	</g>
	<g id="_x33_6_px">
		<g id="_x33_2_px">
			<g id="_x32_8_px_1_">
				<g id="square_6px_1_">
				</g>
				<g id="_x32_0_px_1_">
					<g id="_x31_2_PX_2_">
					</g>
					<g id="_x34_8_px">
						<g id="_x32_4_px">
						</g>
						<g id="_x32_4_px_1_">
						</g>
					</g>
				</g>
			</g>
		</g>
	</g>
	<g id="_x32_0_px_3_">
	</g>
	<g id="_x32_0_px_4_">
	</g>
	<g id="New_Symbol_8">
		<g id="_x32_4_px_3_">
		</g>
	</g>
</g>
<g id="Artboard">
</g>
<g id="Free_Icons">
	<g>
		<polyline style="fill:none;stroke:#000000;stroke-linecap:round;stroke-linejoin:round;stroke-miterlimit:10;" points="1,22.5 
			2,21.5 4,23.5 6,21.5 8,23.5 10,21.5 12,23.5 14,21.5 16,23.5 18,21.5 20,23.5 22,21.5 23,22.5 		"/>
		<polyline style="fill:none;stroke:#000000;stroke-linecap:round;stroke-linejoin:round;stroke-miterlimit:10;" points="4.5,23 
			0.5,14.5 9.5,17.5 23.5,17.5 22,21.5 		"/>
		<polyline style="fill:none;stroke:#000000;stroke-linecap:round;stroke-linejoin:round;stroke-miterlimit:10;" points="6.5,16.5 
			6.5,9.5 11,9.5 14,12.5 21.5,12.5 		"/>
		
			<line style="fill:none;stroke:#000000;stroke-linecap:round;stroke-linejoin:round;stroke-miterlimit:10;" x1="20.5" y1="12.5" x2="21.5" y2="17.5"/>
		<polyline style="fill:none;stroke:#000000;stroke-linecap:round;stroke-linejoin:round;stroke-miterlimit:10;" points="9,9.5 
			11,4 16.5,6 14,12.5 		"/>
		
			<line style="fill:none;stroke:#000000;stroke-linecap:round;stroke-linejoin:round;stroke-miterlimit:10;" x1="10.176" y1="6.26" x2="15.598" y2="8.346"/>
		<polyline style="fill:none;stroke:#000000;stroke-linecap:round;stroke-linejoin:round;stroke-miterlimit:10;" points="14.5,1.5 
			15.5,0.5 17.5,2.5 19.5,0.5 21.5,2.5 23.5,0.5 		"/>
		<polyline style="fill:none;stroke:#000000;stroke-linecap:round;stroke-linejoin:round;stroke-miterlimit:10;" points="
			21.117,15.5 14.5,15.5 14.5,12.5 		"/>
		
			<line style="fill:none;stroke:#000000;stroke-linecap:round;stroke-linejoin:round;stroke-miterlimit:10;" x1="17.5" y1="15.5" x2="17.5" y2="12.5"/>
		<polyline style="fill:none;stroke:#000000;stroke-linecap:round;stroke-linejoin:round;stroke-miterlimit:10;" points="6.5,12.5 
			10.5,12.5 10.5,14.5 6.5,14.5 		"/>
	</g>
</g>
</svg>
