<?xml version="1.0" encoding="iso-8859-1"?>
<!-- Generator: Adobe Illustrator 17.1.0, SVG Export Plug-In . SVG Version: 6.00 Build 0)  -->
<!DOCTYPE svg PUBLIC "-//W3C//DTD SVG 1.0//EN" "http://www.w3.org/TR/2001/REC-SVG-20010904/DTD/svg10.dtd">
<svg version="1.0" xmlns="http://www.w3.org/2000/svg" xmlns:xlink="http://www.w3.org/1999/xlink" x="0px" y="0px" width="24px"
	 height="24px" viewBox="0 0 24 24" style="enable-background:new 0 0 24 24;" xml:space="preserve">
<g id="Guides">
	<g id="_x32_0_px_2_">
	</g>
	<g id="_x32_0px">
	</g>
	<g id="_x34_0px">
	</g>
	<g id="_x34_4_px">
	</g>
	<g id="_x34_8px">
		<g id="_x31_6px">
		</g>
		<g id="square_4px">
			<g id="_x32_8_px">
				<g id="square_4px_2_">
				</g>
				<g id="square_4px_3_">
				</g>
				<g id="square_4px_1_">
				</g>
				<g id="_x32_4_px_2_">
				</g>
				<g id="_x31_2_px">
				</g>
			</g>
		</g>
	</g>
	<g id="Icons">
	</g>
	<g id="_x32_0_px">
	</g>
	<g id="square_6px">
		<g id="_x31_2_PX">
		</g>
	</g>
	<g id="_x33_6_px">
		<g id="_x33_2_px">
			<g id="_x32_8_px_1_">
				<g id="square_6px_1_">
				</g>
				<g id="_x32_0_px_1_">
					<g id="_x31_2_PX_2_">
					</g>
					<g id="_x34_8_px">
						<g id="_x32_4_px">
						</g>
						<g id="_x32_4_px_1_">
						</g>
					</g>
				</g>
			</g>
		</g>
	</g>
	<g id="_x32_0_px_3_">
	</g>
	<g id="_x32_0_px_4_">
	</g>
	<g id="New_Symbol_8">
		<g id="_x32_4_px_3_">
		</g>
	</g>
</g>
<g id="Artboard">
</g>
<g id="Free_Icons">
	<g>
		<polygon style="fill:none;stroke:#000000;stroke-linecap:round;stroke-linejoin:round;stroke-miterlimit:10;" points="6.5,21.5 
			3.5,23.5 0.5,21.5 0.5,18.5 3.5,16.5 6.5,18.5 		"/>
		
			<line style="fill:none;stroke:#000000;stroke-linecap:round;stroke-linejoin:round;stroke-miterlimit:10;" x1="10.777" y1="13.5" x2="23.5" y2="13.5"/>
		<polyline style="fill:none;stroke:#000000;stroke-linecap:round;stroke-linejoin:round;stroke-miterlimit:10;" points="15.5,20.5 
			13.5,20.5 10,11.5 23.5,11.5 23.5,20.5 21.5,20.5 		"/>
		
			<line style="fill:none;stroke:#000000;stroke-linecap:round;stroke-linejoin:round;stroke-miterlimit:10;" x1="13.5" y1="20.5" x2="6.5" y2="20.5"/>
		
			<line style="fill:none;stroke:#000000;stroke-linecap:round;stroke-linejoin:round;stroke-miterlimit:10;" x1="10.5" y1="5.5" x2="14.5" y2="0.5"/>
		<polygon style="fill:none;stroke:#000000;stroke-linecap:round;stroke-linejoin:round;stroke-miterlimit:10;" points="14.5,0.5 
			23.5,5.5 21,6.5 18.5,5.5 14.5,7.5 10.5,5.5 8,6.5 5.5,5.5 		"/>
		
			<line style="fill:none;stroke:#000000;stroke-linecap:round;stroke-linejoin:round;stroke-miterlimit:10;" x1="18.5" y1="5.5" x2="14.5" y2="0.5"/>
		
			<line style="fill:none;stroke:#000000;stroke-linecap:round;stroke-linejoin:round;stroke-miterlimit:10;" x1="14.5" y1="7.5" x2="14.5" y2="11.5"/>
		<polygon style="fill:none;stroke:#000000;stroke-linecap:round;stroke-linejoin:round;stroke-miterlimit:10;" points="3,12.5 
			1,10.5 7.5,10.5 4.5,12.5 		"/>
		
			<line style="fill:none;stroke:#000000;stroke-linecap:round;stroke-linejoin:round;stroke-miterlimit:10;" x1="5.065" y1="12.123" x2="9.5" y2="20.5"/>
		
			<line style="fill:none;stroke:#000000;stroke-linecap:round;stroke-linejoin:round;stroke-miterlimit:10;" x1="8.022" y1="17.709" x2="11.635" y2="15.703"/>
		
			<line style="fill:none;stroke:#000000;stroke-linecap:round;stroke-linejoin:round;stroke-miterlimit:10;" x1="4.5" y1="19" x2="2.5" y2="21"/>
		
			<line style="fill:none;stroke:#000000;stroke-linecap:round;stroke-linejoin:round;stroke-miterlimit:10;" x1="2.5" y1="19" x2="4.5" y2="21"/>
		<polygon style="fill:none;stroke:#000000;stroke-linecap:round;stroke-linejoin:round;stroke-miterlimit:10;" points="21.5,21.5 
			18.5,23.5 15.5,21.5 15.5,18.5 18.5,16.5 21.5,18.5 		"/>
		
			<line style="fill:none;stroke:#000000;stroke-linecap:round;stroke-linejoin:round;stroke-miterlimit:10;" x1="19.5" y1="19" x2="17.5" y2="21"/>
		
			<line style="fill:none;stroke:#000000;stroke-linecap:round;stroke-linejoin:round;stroke-miterlimit:10;" x1="17.5" y1="19" x2="19.5" y2="21"/>
	</g>
</g>
</svg>
