<svg xmlns="http://www.w3.org/2000/svg" viewBox="0 0 448 512"><path d="M436 160c6.627 0 12-5.373 12-12v-40c0-6.627-5.373-12-12-12h-20V48c0-26.51-21.49-48-48-48H80C53.49 0 32 21.49 32 48v416c0 26.51 21.49 48 48 48h288c26.51 0 48-21.49 48-48v-48h20c6.627 0 12-5.373 12-12v-40c0-6.627-5.373-12-12-12h-20v-64h20c6.627 0 12-5.373 12-12v-40c0-6.627-5.373-12-12-12h-20v-64h20zM224 96c53.019 0 96 42.981 96 96s-42.981 96-96 96-96-42.981-96-96 42.981-96 96-96zm128 304c0 26.51-21.49 48-48 48H144c-26.51 0-48-21.49-48-48v-48.711c0-20.994 13.644-39.553 33.683-45.815l22.954-7.173C173.563 312.413 198.198 320 224 320s50.437-7.587 71.363-21.699l22.954 7.173C338.356 311.736 352 330.295 352 351.289V400z"/></svg>