<svg xmlns="http://www.w3.org/2000/svg" viewBox="0 0 512 512"><path d="M464 64H48C21.49 64 0 85.49 0 112v288c0 26.51 21.49 48 48 48h416c26.51 0 48-21.49 48-48V112c0-26.51-21.49-48-48-48zm-288 64c44.183 0 80 35.817 80 80s-35.817 80-80 80-80-35.817-80-80 35.817-80 80-80zm112 232c0 13.255-10.745 24-24 24H88c-13.255 0-24-10.745-24-24v-29.897a24 24 0 0 1 17.407-23.077l28.938-8.268C129.323 312.549 152.087 320 176 320s46.677-7.451 65.656-21.241l28.938 8.268A23.999 23.999 0 0 1 288 330.103V360zm160-52c0 6.627-5.373 12-12 12H332c-6.627 0-12-5.373-12-12v-8c0-6.627 5.373-12 12-12h104c6.627 0 12 5.373 12 12v8zm0-64c0 6.627-5.373 12-12 12H332c-6.627 0-12-5.373-12-12v-8c0-6.627 5.373-12 12-12h104c6.627 0 12 5.373 12 12v8zm0-64c0 6.627-5.373 12-12 12H332c-6.627 0-12-5.373-12-12v-8c0-6.627 5.373-12 12-12h104c6.627 0 12 5.373 12 12v8z"/></svg>