<svg xmlns="http://www.w3.org/2000/svg" viewBox="0 0 640 512"><path d="M213.2 339.2c3.8-.1 22.9-1.4 25.6-2.2-2.4-2.7-43.6-1-68.1-49.7-4.3-8.7-7.5-17.6-6.4-27.6 2.9-25.5 32.9-30 52.1-18.5 36 21.6 63.4 91.5 113.8 97.6 37.1 4.5 84.7-17 108.3-45.4-.6-.1-.8-.2-1-.1-.4.1-.8.2-1.1.3-33.4 12.1-94.4 9.7-134.8-14.8-37.7-22.8-53.2-58.8-51.9-74.7 1.8-21.4 22.9-23.2 36-19.6 14.4 4 24.4 17.6 39 27.4 15.6 10.4 33 13.7 51.3 10.3 14.9-2.7 34.4-12.3 36.5-14.5-1.1-.1-1.8-.1-2.5-.2-6.2-.6-12.4-.8-18.6-1.7C280.1 189.3 262.5 42 138.7 32.5c-44.4-3.4-99.6 8.1-136.5 35-.8.6-1.5 1.2-2.2 1.8.1.2.1.3.2.5.8-.1 1.6-.1 2.4-.2 6.3-1 12.5-.8 18.8.3 23.9 4.3 47.8 23.1 56 76.6 5.3 34.3-.7 50.9 8 86.2 18.9 77.2 91 107.8 127.8 106.5zM75.4 59.5c-.9-1-.9-1.2-1.3-2 12.1-2.6 24.3-4.1 36.7-4.8-1.1 14.7-22.3 21.4-35.4 6.8zm197.2 350.9c-42.9 1.2-92.1-26.8-123.7-61.5-4.6-5-16.8-20.3-18.6-23.4l.4-.4c6.6 4.1 25.7 18.7 54.9 27.1 24.2 7 48.1 6.3 71.7-3.3 22.7-9.3 41-.5 43.1 2.9-18.5 3.8-20.1 4.4-24.1 7.9-5.1 4.4-4.6 11.7 7 17.2 26.2 12.4 63-2.8 97.3 25.4 2.4 2 8.1 7.8 10.1 10.7-.1.2-.3.3-.4.5-4.8-1.5-16.5-7.5-40.2-9.3-24.7-2-46.3 5.4-77.5 6.2zm175-252.2c16.4-5.2 41.4-13.4 66.6-3.3 16.1 6.5 26.2 18.7 32.1 34.7 3.5 9.4 5.1 19.7 5.1 28.8-.2 0-.4 0-.6.1-.2-.4-.4-.9-.5-1.3-5-22-29.9-43.8-67.7-29.9-50.2 18.6-130.5 9.7-177.2-48-.7-.9-2.4-1.7-1.3-3.2.1-.2 2.1.6 3 1.3 18.1 13.5 38.3 21.9 60.4 26.2 30.6 5.9 54.7 2.6 80.1-5.4zm102.8 117.6c-32.4.2-33.8 50.2-103.7 64.4-18.3 3.7-38.7 4.6-45 4.2v-.4c2.8-1.5 14.7-2.6 29.7-16.6 7.9-7.3 15.3-15.2 22.8-22.9 19.6-20.3 41.5-42.3 82-39 23.1 1.8 29.3 8.2 36.2 12.7.3.2.4.5.7.9-.5 0-.7.1-.9 0-7-2.7-14.3-3.3-21.8-3.3zm-12.3-24.2c-.1.2-.1.4-.2.6-29-4.4-48.1-7.9-68.6 4-17 9.9-31.5 20.6-62.1 24.4-27.1 3.4-45.2 2.4-66.2-8-.3-.2-.6-.4-1-.6 0-.2.1-.3.1-.5 24.9 3.8 36.5 5.2 55.6-5.9 22.4-12.9 40.2-26.7 71.4-31 29.6-3.9 51.3 2.7 71 17zM269 91.9c-.6-.6-1.1-1.2-2.1-2.3 7.6 0 29.7-1.2 53.4 8.4 19.7 8 32.3 21.1 50.3 33 11.1 7.3 23.5 9.3 36.5 8.1 4.3-.4 8.5-1.2 12.8-1.7.4-.1.9 0 1.5.3-.6.4-1.2.9-1.8 1.2-8.1 4-16.7 6.3-25.6 7.2-26.1 2.6-50.4-3.7-73.5-15.4-19.4-10-36.5-23-51.5-38.8zm371.8 238.7c-3.5 3.1-22.7 11.6-42.8 5.3-12.3-3.9-19.5-14.9-31.6-24.1-10-7.6-20.9-7.9-28.2-8.4.6-.8.9-1.2 1.2-1.4 14.8-9.2 30.5-12.2 47.4-6.5 12.5 4.2 19.3 13.5 30.4 24.2 10.8 10.4 21 9.9 23.2 10.5.1-.1.2.1.4.4zM428 467.8c2.2 1.2 1.6 1.5 1.5 2-18.5-1.4-33.9-7.6-46.8-22.2-21.8-24.7-41.8-27.9-48.7-29.7.5-.2.8-.4 1.1-.4 13.1.1 26.2.7 39 3.9 25.3 6.4 35 25.4 41.6 35.4 3.2 4.7 7.4 8.3 12.3 11z"/></svg>