<svg xmlns="http://www.w3.org/2000/svg" viewBox="0 0 640 512"><path d="M220 164c0-55.229 44.772-100 100-100s100 44.771 100 100-44.772 100-100 100-100-44.771-100-100zM48 208c0-44.183 35.817-80 80-80s80 35.817 80 80-35.817 80-80 80-80-35.817-80-80zm384 0c0-44.183 35.817-80 80-80s80 35.817 80 80-35.817 80-80 80-80-35.817-80-80zm-22 76c38.66 0 70 31.34 70 70v70c0 13.255-10.745 24-24 24H184c-13.255 0-24-10.745-24-24v-70c0-38.66 31.34-70 70-70h17.848c44.364 26.687 99.93 26.693 144.305 0H410m-282 70c0-11.975 2.081-23.472 5.889-34.156-21.93 1.152-44.122-4.121-63.611-15.844H56c-30.928 0-56 25.072-56 56v32c0 13.255 10.745 24 24 24h104v-62zm456-50h-14.278c-19.495 11.727-41.686 16.996-63.611 15.844A101.542 101.542 0 0 1 512 354v62h104c13.255 0 24-10.745 24-24v-32c0-30.928-25.072-56-56-56z"/></svg>