<svg xmlns="http://www.w3.org/2000/svg" width="16" height="16" viewBox="0 0 16 16">
  <path fill="#000000" fill-rule="evenodd" d="M479,109 L477.497699,109 C477.214844,109 477,109.223858 477,109.5 C477,109.768066 477.222827,110 477.497699,110 L479,110 L479,111.502301 C479,111.785156 479.223858,112 479.5,112 C479.768066,112 480,111.777173 480,111.502301 L480,110 L481.502301,110 C481.785156,110 482,109.776142 482,109.5 C482,109.231934 481.777173,109 481.502301,109 L480,109 L480,107.497699 C480,107.214844 479.776142,107 479.5,107 C479.231934,107 479,107.222827 479,107.497699 L479,109 Z M474,105.000872 C474,104.448106 474.444631,104 475.000872,104 L488.999128,104 C489.551894,104 490,104.444631 490,105.000872 L490,118.999128 C490,119.551894 489.555369,120 488.999128,120 L475.000872,120 C474.448106,120 474,119.555369 474,118.999128 L474,105.000872 Z M475,105 L489,105 L475,119 L475,105 Z M483,115.5 C483,115.223858 483.215057,115 483.490479,115 L486.509521,115 C486.780405,115 487,115.231934 487,115.5 C487,115.776142 486.784943,116 486.509521,116 L483.490479,116 C483.219595,116 483,115.768066 483,115.5 Z" transform="translate(-474 -104)"/>
</svg>
