<svg xmlns="http://www.w3.org/2000/svg" width="19" height="17" viewBox="0 0 19 17">
  <path fill="#000000" fill-rule="evenodd" d="M443,201 L443,214.429942 C443,215.193022 442,215.187011 442,214.429942 L442,201 L443,201 Z M431,212 L440.498769,212 C440.775591,212 441,212.231934 441,212.5 C441,212.776142 440.770249,213 440.498769,213 L430.501231,213 C430.362774,213 430.237428,212.941978 430.146716,212.850433 C430.055964,212.763389 430,212.63862 430,212.500923 L430,198.499077 C430,198.223444 430.231934,198 430.5,198 C430.776142,198 431,198.223683 431,198.499077 L431,212 Z M432.585531,200 L442.497689,200 C442.775107,200 443,200.231934 443,200.5 L443,201 L432.585531,201 C431.808131,201 431.801522,200 432.585531,200 Z M427,200.5 C427,200.223858 427.214035,200 427.504684,200 L428.495316,200 C428.774045,200 429,200.231934 429,200.5 C429,200.776142 428.785965,201 428.495316,201 L427.504684,201 C427.225955,201 427,200.768066 427,200.5 Z M444,212.5 C444,212.223858 444.214035,212 444.504684,212 L445.495316,212 C445.774045,212 446,212.231934 446,212.5 C446,212.776142 445.785965,213 445.495316,213 L444.504684,213 C444.225955,213 444,212.768066 444,212.5 Z" transform="translate(-427 -198)"/>
</svg>
