<svg xmlns="http://www.w3.org/2000/svg" width="16" height="16" viewBox="0 0 16 16">
  <path fill="#000000" fill-rule="evenodd" d="M521.667563,212.999001 L523.509521,212.999001 C523.784943,212.999001 524,213.222859 524,213.499001 C524,213.767068 523.780405,213.999001 523.509521,213.999001 L520.490479,213.999001 C520.354351,213.999001 520.232969,213.944316 520.145011,213.855661 C520.056625,213.763694 520,213.642369 520,213.508523 L520,210.48948 C520,210.214059 520.223858,209.999001 520.5,209.999001 C520.768066,209.999001 521,210.218596 521,210.48948 L521,212.252351 L525.779724,207.472627 C525.975228,207.277123 526.284966,207.283968 526.480228,207.47923 C526.66978,207.668781 526.678447,207.988118 526.486831,208.179734 L521.667563,212.999001 Z M534.330152,212.999001 L532.488194,212.999001 C532.212773,212.999001 531.997715,213.222859 531.997715,213.499001 C531.997715,213.767068 532.21731,213.999001 532.488194,213.999001 L535.507237,213.999001 C535.643364,213.999001 535.764746,213.944316 535.852704,213.855661 C535.94109,213.763694 535.997715,213.642369 535.997715,213.508523 L535.997715,210.48948 C535.997715,210.214059 535.773858,209.999001 535.497715,209.999001 C535.229649,209.999001 534.997715,210.218596 534.997715,210.48948 L534.997715,212.252351 L530.217991,207.472627 C530.022487,207.277123 529.712749,207.283968 529.517487,207.47923 C529.327935,207.668781 529.319269,207.988118 529.510884,208.179734 L534.330152,212.999001 Z M521.667563,199 L523.509521,199 C523.784943,199 524,198.776142 524,198.5 C524,198.231934 523.780405,198 523.509521,198 L520.490479,198 C520.354351,198 520.232969,198.054685 520.145011,198.14334 C520.056625,198.235308 520,198.356632 520,198.490479 L520,201.509521 C520,201.784943 520.223858,202 520.5,202 C520.768066,202 521,201.780405 521,201.509521 L521,199.74665 L525.779724,204.526374 C525.975228,204.721878 526.284966,204.715034 526.480228,204.519772 C526.66978,204.33022 526.678447,204.010883 526.486831,203.819268 L521.667563,199 Z M534.251065,199 L532.488194,199 C532.212773,199 531.997715,198.776142 531.997715,198.5 C531.997715,198.231934 532.21731,198 532.488194,198 L535.507237,198 C535.643364,198 535.764746,198.054685 535.852704,198.14334 C535.94109,198.235308 535.997715,198.356632 535.997715,198.490479 L535.997715,201.509521 C535.997715,201.784943 535.773858,202 535.497715,202 C535.229649,202 534.997715,201.780405 534.997715,201.509521 L534.997715,199.667563 L530.178448,204.486831 C529.982944,204.682335 529.673206,204.67549 529.477943,204.480228 C529.288392,204.290677 529.279725,203.97134 529.471341,203.779724 L534.251065,199 Z" transform="translate(-520 -198)"/>
</svg>
