<svg xmlns="http://www.w3.org/2000/svg" width="19" height="19" viewBox="0 0 19 19">
  <path fill="#000000" fill-rule="evenodd" d="M390.5,117 C392.432997,117 394,115.432997 394,113.5 C394,111.567003 392.432997,110 390.5,110 C388.567003,110 387,111.567003 387,113.5 C387,115.432997 388.567003,117 390.5,117 Z M390.5,116 C391.880712,116 393,114.880712 393,113.5 C393,112.119288 391.880712,111 390.5,111 C389.119288,111 388,112.119288 388,113.5 C388,114.880712 389.119288,116 390.5,116 Z M390,104.490479 C390,104.219595 390.231934,104 390.5,104 C390.776142,104 391,104.215057 391,104.490479 L391,107.509521 C391,107.780405 390.768066,108 390.5,108 C390.223858,108 390,107.784943 390,107.509521 L390,104.490479 Z M390,119.490479 C390,119.219595 390.231934,119 390.5,119 C390.776142,119 391,119.215057 391,119.490479 L391,122.509521 C391,122.780405 390.768066,123 390.5,123 C390.223858,123 390,122.784943 390,122.509521 L390,119.490479 Z M381,113.5 C381,113.223858 381.215057,113 381.490479,113 L384.509521,113 C384.780405,113 385,113.231934 385,113.5 C385,113.776142 384.784943,114 384.509521,114 L381.490479,114 C381.219595,114 381,113.768066 381,113.5 Z M396,113.5 C396,113.223858 396.215057,113 396.490479,113 L399.509521,113 C399.780405,113 400,113.231934 400,113.5 C400,113.776142 399.784943,114 399.509521,114 L396.490479,114 C396.219595,114 396,113.768066 396,113.5 Z M396.51714,106.775753 C396.708684,106.584209 397.027963,106.592934 397.217514,106.782486 C397.412777,106.977748 397.418999,107.288107 397.224247,107.48286 L395.089461,109.617645 C394.897918,109.809189 394.578639,109.800464 394.389087,109.610913 C394.193825,109.415651 394.187602,109.105291 394.382355,108.910539 L396.51714,106.775753 Z M385.910539,117.382355 C386.102082,117.190811 386.421361,117.199536 386.610913,117.389087 C386.806175,117.584349 386.812398,117.894709 386.617645,118.089461 L384.48286,120.224247 C384.291316,120.415791 383.972037,120.407066 383.782486,120.217514 C383.587223,120.022252 383.581001,119.711893 383.775753,119.51714 L385.910539,117.382355 Z M383.782486,106.782486 C383.977748,106.587223 384.288107,106.581001 384.48286,106.775753 L386.617645,108.910539 C386.809189,109.102082 386.800464,109.421361 386.610913,109.610913 C386.415651,109.806175 386.105291,109.812398 385.910539,109.617645 L383.775753,107.48286 C383.584209,107.291316 383.592934,106.972037 383.782486,106.782486 Z M394.389087,117.389087 C394.584349,117.193825 394.894709,117.187602 395.089461,117.382355 L397.224247,119.51714 C397.415791,119.708684 397.407066,120.027963 397.217514,120.217514 C397.022252,120.412777 396.711893,120.418999 396.51714,120.224247 L394.382355,118.089461 C394.190811,117.897918 394.199536,117.578639 394.389087,117.389087 Z" transform="translate(-381 -104)"/>
</svg>
