<svg xmlns="http://www.w3.org/2000/svg" width="18" height="12" viewBox="0 0 18 12">
  <path fill="#000000" fill-rule="evenodd" d="M428,252 C428,249.238576 430.238576,247 433,247 C435.155563,247 437.048072,248.376609 437.733226,250.383975 L437.948292,251.014075 L438.493451,250.631871 C439.077067,250.222707 439.771183,250 440.5,250 C442.432997,250 444,251.567003 444,253.5 C444,255.432997 442.432997,257 440.5,257 L432.5,257 C429.97933,256.750288 428,254.58966 428,252 L428,252 Z M432.451178,257.997611 L440.5,258 C442.985281,258 445,255.985281 445,253.5 C445,251.014719 442.985281,249 440.5,249 C439.56408,249 438.452577,249.492393 438.452577,249.492393 C437.488375,247.395638 435.377638,246 433,246 C429.686292,246 427,248.686292 427,252 C427,255.106362 429.371874,257.69549 432.451178,257.997611 Z" transform="translate(-427 -246)"/>
</svg>
