<svg xmlns="http://www.w3.org/2000/svg" width="18" height="18" viewBox="0 0 18 18">
  <path fill="#000000" fill-rule="evenodd" d="M198,214 L202.508995,214 C202.780169,214 203,214.231934 203,214.5 C203,214.776142 202.77212,215 202.508995,215 L197.491005,215 C197.356934,215 197.235414,214.943306 197.146806,214.853582 C197.054763,214.760658 197,214.639137 197,214.508995 L197,209.491005 C197,209.219831 197.231934,209 197.5,209 C197.776142,209 198,209.22788 198,209.491005 L198,214 Z M214,214 L209.491005,214 C209.22788,214 209,214.223858 209,214.5 C209,214.768066 209.219831,215 209.491005,215 L214.508995,215 C214.639129,215 214.760642,214.945244 214.850231,214.856488 C214.9433,214.7646 215,214.643073 215,214.508995 L215,209.491005 C215,209.22788 214.776142,209 214.5,209 C214.231934,209 214,209.219831 214,209.491005 L214,214 Z M214.853194,197.146418 C214.764586,197.056694 214.643066,197 214.508995,197 L209.491005,197 C209.22788,197 209,197.223858 209,197.5 C209,197.768066 209.219831,198 209.491005,198 L214,198 L214,202.508995 C214,202.77212 214.223858,203 214.5,203 C214.768066,203 215,202.780169 215,202.508995 L215,197.491005 C215,197.360863 214.945237,197.239342 214.856471,197.149752 Z M197.149769,197.143512 C197.239358,197.054756 197.360871,197 197.491005,197 L202.508995,197 C202.780169,197 203,197.231934 203,197.5 C203,197.776142 202.77212,198 202.508995,198 L198,198 L198,202.508995 C198,202.780169 197.768066,203 197.5,203 C197.223858,203 197,202.77212 197,202.508995 L197,197.491005 C197,197.356927 197.0567,197.2354 197.146433,197.146791 Z M199,199 L213,199 L213,213 L199,213 L199,199 Z M206,208 C207.104569,208 208,207.104569 208,206 C208,204.895431 207.104569,204 206,204 C204.895431,204 204,204.895431 204,206 C204,207.104569 204.895431,208 206,208 Z" transform="translate(-197 -197)"/>
</svg>
