<svg xmlns="http://www.w3.org/2000/svg" width="20" height="12" viewBox="0 0 20 12">
  <path fill="#000000" fill-rule="evenodd" d="M611,153.869369 L611,153.869369 L611,163.864423 C611,163.807338 610.902923,163.721948 610.823929,163.733714 C610.998009,163.70624 611.313254,163.658745 611.741576,163.597898 C612.453841,163.496713 613.22273,163.395568 614.020321,163.301129 C615.045279,163.179768 616.042595,163.0785 616.985039,163.00399 C618.11076,162.914989 619.1241,162.866896 620,162.866896 C620.872493,162.866896 621.880613,162.914503 622.999709,163.002636 C623.944582,163.077048 624.944547,163.17843 625.972152,163.30005 C626.768125,163.394256 627.535279,163.495153 628.245809,163.596088 C628.673095,163.656786 628.987538,163.704166 629.149647,163.729826 C629.103376,163.723072 629,163.812697 629,163.864423 L629,153.869369 C629,153.924666 629.096669,154.010264 629.178133,153.998264 C629.001567,154.025758 628.682127,154.073325 628.248905,154.134281 C627.52835,154.235665 626.752476,154.337015 625.950203,154.431649 C624.983655,154.545659 624.044063,154.64209 623.15513,154.715337 C621.963173,154.813553 620.901309,154.866896 620,154.866896 C619.101715,154.866896 618.044784,154.814034 616.859224,154.716673 C615.968157,154.643496 615.026233,154.546959 614.057345,154.432721 C613.256698,154.338319 612.482565,154.237217 611.763753,154.136081 C611.331573,154.075273 611.012939,154.027821 610.847728,154.002027 C610.900234,154.009614 611,153.923034 611,153.869369 L611,153.869369 Z M610,153.869369 C610,153.315719 610.438447,152.932509 610.990727,153.012305 C610.990727,153.012305 616.477539,153.866896 620,153.866896 C623.522461,153.866896 629.024271,153.010172 629.024271,153.010172 C629.563151,152.931043 630,153.322657 630,153.869369 L630,163.864423 C630,164.418073 629.566676,164.801283 629.005231,164.719343 C629.005231,164.719343 623.605347,163.866897 620,163.866896 C616.394653,163.866895 610.979824,164.721487 610.979824,164.721487 C610.438682,164.801794 610,164.411135 610,163.864423 L610,153.869369 L610,153.869369 Z" transform="translate(-610 -153)"/>
</svg>
