<svg xmlns="http://www.w3.org/2000/svg" width="18" height="17" viewBox="0 0 18 17">
  <path fill="#000000" fill-rule="evenodd" d="M532,254.954383 L532,247.775909 L520,247.775909 L520,258.615121 L522.848655,255.813199 C523.24044,255.427841 523.87547,255.423851 524.271358,255.808487 L525.05481,256.569671 L528.568706,253.033719 C528.958829,252.641147 529.59365,252.630547 530.001301,253.024219 L532,254.954383 Z M533,259.406871 L533.960593,259.541874 C534.51207,259.619379 535.020377,259.235606 535.097766,258.684953 L536.765938,246.815293 C536.843443,246.263816 536.459671,245.75551 535.909017,245.678121 L524.039358,244.009949 C523.487881,243.932444 522.979574,244.316216 522.902185,244.86687 L522.633887,246.775909 L520.006845,246.775909 C519.449949,246.775909 519,247.226689 519,247.782754 L519,259.769063 C519,260.32596 519.45078,260.775909 520.006845,260.775909 L531.993155,260.775909 C532.550051,260.775909 533,260.325128 533,259.769063 L533,259.406871 Z M533,258.397037 L534.10657,258.552556 L535.776647,246.669339 L523.89343,244.999262 L523.643739,246.775909 L531.993155,246.775909 C532.54922,246.775909 533,247.225857 533,247.782754 L533,258.397037 Z" transform="translate(-519 -244)"/>
</svg>
