<svg xmlns="http://www.w3.org/2000/svg" width="20" height="12" viewBox="0 0 20 12">
  <path fill="#000000" fill-rule="evenodd" d="M108,201.002473 C108,200.448823 108.455761,200 109.002473,200 L118.997527,200 C119.551177,200 120,200.455761 120,201.002473 L120,210.997527 C120,211.551177 119.544239,212 118.997527,212 L109.002473,212 C108.448823,212 108,211.544239 108,210.997527 L108,201.002473 Z M109,201 L119,201 L119,211 L109,211 L109,201 Z M121,200.500436 C121,200.224053 121.231934,200 121.5,200 C121.776142,200 122,200.230797 122,200.500436 L122,207.499564 C122,207.775947 121.768066,208 121.5,208 C121.223858,208 121,207.769203 121,207.499564 L121,200.500436 Z M123,200.490479 C123,200.219595 123.231934,200 123.5,200 C123.776142,200 124,200.215057 124,200.490479 L124,203.509521 C124,203.780405 123.768066,204 123.5,204 C123.223858,204 123,203.784943 123,203.509521 L123,200.490479 Z M106,211.499564 C106,211.775947 106.231934,212 106.5,212 C106.776142,212 107,211.769203 107,211.499564 L107,204.500436 C107,204.224053 106.768066,204 106.5,204 C106.223858,204 106,204.230797 106,204.500436 L106,211.499564 Z M104,211.509521 C104,211.780405 104.231934,212 104.5,212 C104.776142,212 105,211.784943 105,211.509521 L105,208.490479 C105,208.219595 104.768066,208 104.5,208 C104.223858,208 104,208.215057 104,208.490479 L104,211.509521 Z" transform="translate(-104 -200)"/>
</svg>
