<svg xmlns="http://www.w3.org/2000/svg" width="18" height="14" viewBox="0 0 18 14">
  <path fill="#000000" fill-rule="evenodd" d="M716.479418,162.641988 C717.368844,161.724921 717.935807,160.336704 717.935807,158.78296 C717.935807,157.229217 717.368844,155.840999 716.479418,154.923933 L716,156.122478 C716.60077,156.829409 716.935807,157.761469 716.935807,158.78296 C716.935807,159.804451 716.60077,160.736511 716,161.443442 L716.479418,162.641988 Z M717.648991,165.565921 C719.623171,164.151385 720.935807,161.642363 720.935807,158.78296 C720.935807,155.923558 719.623171,153.414535 717.648991,152 L717.265454,152.958844 C718.875503,154.214193 719.935807,156.354116 719.935807,158.78296 C719.935807,161.211805 718.875503,163.351728 717.265454,164.607077 L717.648991,165.565921 Z M707.456389,162.641988 C706.566963,161.724921 706,160.336704 706,158.78296 C706,157.229217 706.566963,155.840999 707.456389,154.923933 L707.935807,156.122478 C707.335037,156.829409 707,157.761469 707,158.78296 C707,159.804451 707.335037,160.736511 707.935807,161.443442 L707.456389,162.641988 Z M706.286816,165.565921 C704.312637,164.151385 703,161.642363 703,158.78296 C703,155.923558 704.312637,153.414535 706.286816,152 L706.670353,152.958844 C705.060304,154.214193 704,156.354116 704,158.78296 C704,161.211805 705.060304,163.351728 706.670353,164.607077 L706.286816,165.565921 Z M712,161.78296 C713.656854,161.78296 715,160.439815 715,158.78296 C715,157.126106 713.656854,155.78296 712,155.78296 C710.343146,155.78296 709,157.126106 709,158.78296 C709,160.439815 710.343146,161.78296 712,161.78296 Z" transform="translate(-703 -152)"/>
</svg>
