<svg xmlns="http://www.w3.org/2000/svg" width="18" height="18" viewBox="0 0 18 18">
  <path fill="#000000" fill-rule="evenodd" d="M393.441686,210.141919 C392.121974,211.298772 390.392877,212 388.5,212 C384.357864,212 381,208.642136 381,204.5 C381,200.357864 384.357864,197 388.5,197 C392.642136,197 396,200.357864 396,204.5 C396,206.392877 395.298772,208.121974 394.141919,209.441686 L398.317115,213.616883 C398.508288,213.808056 398.500857,214.12544 398.313149,214.313149 C398.119785,214.506512 397.80289,214.503123 397.616883,214.317115 L393.441686,210.141919 Z M386,204.5 C386,204.223858 386.214844,204 386.497699,204 L390.502301,204 C390.777173,204 391,204.231934 391,204.5 C391,204.776142 390.785156,205 390.502301,205 L386.497699,205 C386.222827,205 386,204.768066 386,204.5 Z" transform="translate(-381 -197)"/>
</svg>
