<?xml version="1.0" encoding="utf-8"?>
<!-- Generator: Adobe Illustrator 18.1.0, SVG Export Plug-In . SVG Version: 6.00 Build 0)  -->
<!DOCTYPE svg PUBLIC "-//W3C//DTD SVG 1.1//EN" "http://www.w3.org/Graphics/SVG/1.1/DTD/svg11.dtd" [
	<!ENTITY ns_extend "http://ns.adobe.com/Extensibility/1.0/">
	<!ENTITY ns_ai "http://ns.adobe.com/AdobeIllustrator/10.0/">
	<!ENTITY ns_graphs "http://ns.adobe.com/Graphs/1.0/">
	<!ENTITY ns_vars "http://ns.adobe.com/Variables/1.0/">
	<!ENTITY ns_imrep "http://ns.adobe.com/ImageReplacement/1.0/">
	<!ENTITY ns_sfw "http://ns.adobe.com/SaveForWeb/1.0/">
	<!ENTITY ns_custom "http://ns.adobe.com/GenericCustomNamespace/1.0/">
	<!ENTITY ns_adobe_xpath "http://ns.adobe.com/XPath/1.0/">
]>
<svg version="1.1" id="Layer_1" xmlns:x="&ns_extend;" xmlns:i="&ns_ai;" xmlns:graph="&ns_graphs;"
	 xmlns="http://www.w3.org/2000/svg" xmlns:xlink="http://www.w3.org/1999/xlink" x="0px" y="0px" width="24px" height="24px"
	 viewBox="0 0 24 24" enable-background="new 0 0 24 24" xml:space="preserve">
<metadata>
	<sfw  xmlns="&ns_sfw;">
		<slices></slices>
		<sliceSourceBounds  width="505" height="984" bottomLeftOrigin="true" x="0" y="-984"></sliceSourceBounds>
	</sfw>
</metadata>
<g>
	<g>
		<g>
			<path d="M7.5,19.5c-0.8,0-1.5-0.3-2.1-0.9c-1.2-1.2-1.2-3.1,0-4.2c0.4-0.4,1-0.4,1.4,0c0.4,0.4,0.4,1,0,1.4c-0.4,0.4-0.4,1,0,1.4
				c0.4,0.4,1,0.4,1.4,0c0.4-0.4,1-0.4,1.4,0s0.4,1,0,1.4C9,19.2,8.2,19.5,7.5,19.5z"/>
		</g>
	</g>
	<g>
		<g>
			<path d="M20.2,13.3c-0.3,0-0.5-0.1-0.7-0.3c-0.4-0.4-0.4-1,0-1.4c1.2-1.2,1.2-3.1,0-4.2c-1.1-1.1-3.1-1.1-4.2,0
				c-0.4,0.4-1,0.4-1.4,0c-0.4-0.4-0.4-1,0-1.4C14.8,5,16,4.5,17.4,4.5S20,5,20.9,5.9c1.9,1.9,1.9,5.1,0,7.1
				C20.7,13.2,20.4,13.3,20.2,13.3z"/>
		</g>
	</g>
	<g>
		<g>
			<path d="M6,16.1c-0.3,0-0.5-0.1-0.7-0.3c-0.4-0.4-0.4-1,0-1.4l8.5-8.5c0.4-0.4,1-0.4,1.4,0s0.4,1,0,1.4l-8.5,8.5
				C6.6,16,6.3,16.1,6,16.1z"/>
		</g>
	</g>
	<g>
		<g>
			<path stroke="#2D2D2D" stroke-width="2" stroke-linecap="round" stroke-linejoin="round" stroke-miterlimit="10" d="M1.8,19.4"/>
		</g>
	</g>
	<g>
		<g>
			<path d="M11.7,21.8c-0.3,0-0.5-0.1-0.7-0.3c-0.4-0.4-0.4-1,0-1.4l8.5-8.5c0.4-0.4,1-0.4,1.4,0s0.4,1,0,1.4l-8.5,8.5
				C12.2,21.7,12,21.8,11.7,21.8z"/>
		</g>
	</g>
	<g>
		<g>
			<path d="M8.9,18.9c-0.3,0-0.5-0.1-0.7-0.3c-0.4-0.4-0.4-1,0-1.4l8.5-8.5c0.4-0.4,1-0.4,1.4,0s0.4,1,0,1.4l-8.5,8.5
				C9.4,18.9,9.1,18.9,8.9,18.9z"/>
		</g>
	</g>
	<g>
		<g>
			<path stroke="#2D2D2D" stroke-width="2" stroke-linecap="round" stroke-linejoin="round" stroke-miterlimit="10" d="M4.6,22.2"/>
		</g>
	</g>
	<g>
		<g>
			<path d="M3.2,13.3c-0.3,0-0.5-0.1-0.7-0.3c-0.4-0.4-0.4-1,0-1.4L13.8,0.3c0.4-0.4,1-0.4,1.4,0s0.4,1,0,1.4L3.9,13
				C3.7,13.2,3.5,13.3,3.2,13.3z"/>
		</g>
	</g>
	<g>
		<g>
			<path d="M7.5,23.5c-1.8,0-3.6-0.7-4.9-2c-1.3-1.3-2-3.1-2-4.9s0.7-3.6,2-4.9c0.4-0.4,1-0.4,1.4,0s0.4,1,0,1.4
				c-0.9,0.9-1.5,2.2-1.5,3.5c0,1.3,0.5,2.6,1.5,3.5c1.9,1.9,5.1,1.9,7.1,0c0.4-0.4,1-0.4,1.4,0s0.4,1,0,1.4
				C11,22.9,9.3,23.5,7.5,23.5z"/>
		</g>
	</g>
</g>
</svg>
