<?xml version="1.0" encoding="utf-8"?>
<!-- Generator: Adobe Illustrator 18.1.0, SVG Export Plug-In . SVG Version: 6.00 Build 0)  -->
<!DOCTYPE svg PUBLIC "-//W3C//DTD SVG 1.1//EN" "http://www.w3.org/Graphics/SVG/1.1/DTD/svg11.dtd" [
	<!ENTITY ns_extend "http://ns.adobe.com/Extensibility/1.0/">
	<!ENTITY ns_ai "http://ns.adobe.com/AdobeIllustrator/10.0/">
	<!ENTITY ns_graphs "http://ns.adobe.com/Graphs/1.0/">
	<!ENTITY ns_vars "http://ns.adobe.com/Variables/1.0/">
	<!ENTITY ns_imrep "http://ns.adobe.com/ImageReplacement/1.0/">
	<!ENTITY ns_sfw "http://ns.adobe.com/SaveForWeb/1.0/">
	<!ENTITY ns_custom "http://ns.adobe.com/GenericCustomNamespace/1.0/">
	<!ENTITY ns_adobe_xpath "http://ns.adobe.com/XPath/1.0/">
]>
<svg version="1.1" id="Layer_1" xmlns:x="&ns_extend;" xmlns:i="&ns_ai;" xmlns:graph="&ns_graphs;"
	 xmlns="http://www.w3.org/2000/svg" xmlns:xlink="http://www.w3.org/1999/xlink" x="0px" y="0px" width="24px" height="24px"
	 viewBox="0 0 24 24" enable-background="new 0 0 24 24" xml:space="preserve">
<metadata>
	<sfw  xmlns="&ns_sfw;">
		<slices></slices>
		<sliceSourceBounds  width="505" height="984" bottomLeftOrigin="true" x="0" y="-984"></sliceSourceBounds>
	</sfw>
</metadata>
<g>
	<g>
		<g>
			<path d="M10,18c-0.6,0-1-0.4-1-1c0-0.3-0.1-0.5-0.1-0.7c-0.2-0.5-0.6-0.9-1.1-1.1C6.4,14.6,5,15.6,5,17c0,0.6-0.4,1-1,1
				s-1-0.4-1-1c0-2.2,1.8-4,4-4c0.5,0,1,0.1,1.5,0.3c1,0.4,1.8,1.2,2.2,2.2c0.2,0.4,0.3,1,0.3,1.5C11,17.6,10.5,18,10,18z"/>
		</g>
	</g>
	<g>
		<g>
			<path d="M1,24c-0.6,0-1-0.4-1-1s0.4-1,1-1c4.3,0,8-2.3,8-5c0-0.6,0.4-1,1-1s1,0.4,1,1C11,20.9,6.5,24,1,24z"/>
		</g>
	</g>
	<g>
		<g>
			<path d="M1,24c-0.6,0-1-0.4-1-1s0.4-1,1-1c0.8,0,2-1.9,2-5c0-0.6,0.4-1,1-1s1,0.4,1,1C5,21,3.3,24,1,24z"/>
		</g>
	</g>
	<g>
		<g>
			<path d="M9.8,16.9c-0.1,0-0.2,0-0.2,0c-0.3-0.1-0.6-0.3-0.7-0.6c-0.2-0.5-0.6-0.9-1.1-1.1c-0.3-0.1-0.5-0.4-0.6-0.7
				c-0.1-0.3,0-0.7,0.2-0.9L18.6,1c1.3-1.3,3.3-1.2,4.4,0C23.7,1.5,24,2.3,24,3.1c0,0.8-0.3,1.6-0.9,2.2L10.4,16.6
				C10.2,16.8,10,16.9,9.8,16.9z M9.7,14c0.1,0.1,0.2,0.2,0.3,0.3L21.7,3.9C21.9,3.7,22,3.4,22,3.1c0-0.3-0.1-0.6-0.3-0.8
				c-0.5-0.5-1.2-0.5-1.6,0L9.7,14z"/>
		</g>
	</g>
</g>
</svg>
