<?xml version="1.0" encoding="utf-8"?>
<!-- Generator: Adobe Illustrator 18.1.0, SVG Export Plug-In . SVG Version: 6.00 Build 0)  -->
<!DOCTYPE svg PUBLIC "-//W3C//DTD SVG 1.1//EN" "http://www.w3.org/Graphics/SVG/1.1/DTD/svg11.dtd" [
	<!ENTITY ns_extend "http://ns.adobe.com/Extensibility/1.0/">
	<!ENTITY ns_ai "http://ns.adobe.com/AdobeIllustrator/10.0/">
	<!ENTITY ns_graphs "http://ns.adobe.com/Graphs/1.0/">
	<!ENTITY ns_vars "http://ns.adobe.com/Variables/1.0/">
	<!ENTITY ns_imrep "http://ns.adobe.com/ImageReplacement/1.0/">
	<!ENTITY ns_sfw "http://ns.adobe.com/SaveForWeb/1.0/">
	<!ENTITY ns_custom "http://ns.adobe.com/GenericCustomNamespace/1.0/">
	<!ENTITY ns_adobe_xpath "http://ns.adobe.com/XPath/1.0/">
]>
<svg version="1.1" id="Layer_1" xmlns:x="&ns_extend;" xmlns:i="&ns_ai;" xmlns:graph="&ns_graphs;"
	 xmlns="http://www.w3.org/2000/svg" xmlns:xlink="http://www.w3.org/1999/xlink" x="0px" y="0px" width="24px" height="24px"
	 viewBox="0 0 24 24" enable-background="new 0 0 24 24" xml:space="preserve">
<metadata>
	<sfw  xmlns="&ns_sfw;">
		<slices></slices>
		<sliceSourceBounds  width="505" height="984" bottomLeftOrigin="true" x="0" y="-984"></sliceSourceBounds>
	</sfw>
</metadata>
<g>
	<g>
		<g>
			<path d="M5,12c-0.6,0-1-0.4-1-1c0-3.9,3.1-7,7-7c3,0,5.7,2,6.7,4.9c0.2,0.5-0.1,1.1-0.6,1.3c-0.5,0.2-1.1-0.1-1.3-0.6
				C15.1,7.4,13.2,6,11,6c-2.8,0-5,2.2-5,5C6,11.6,5.6,12,5,12z"/>
		</g>
	</g>
	<g>
		<g>
			<path d="M18,20c-0.6,0-1-0.4-1-1s0.4-1,1-1c2.2,0,4-1.8,4-4s-1.8-4-4-4c-0.3,0-0.7,0-1,0.1c-0.5,0.1-1.1-0.2-1.2-0.7
				c-0.1-0.5,0.2-1.1,0.7-1.2C17,8.1,17.5,8,18,8c3.3,0,6,2.7,6,6S21.3,20,18,20z"/>
		</g>
	</g>
	<g>
		<g>
			<path d="M16,20H5c-0.6,0-1-0.4-1-1s0.4-1,1-1h11c0.6,0,1,0.4,1,1S16.6,20,16,20z"/>
		</g>
	</g>
	<g>
		<g>
			<path d="M18,20h-2c-0.6,0-1-0.4-1-1s0.4-1,1-1h2c0.6,0,1,0.4,1,1S18.6,20,18,20z"/>
		</g>
	</g>
	<g>
		<g>
			<path d="M5,20c-2.8,0-5-2.2-5-5s2.2-5,5-5c0.6,0,1,0.4,1,1s-0.4,1-1,1c-1.7,0-3,1.3-3,3s1.3,3,3,3c0.6,0,1,0.4,1,1S5.6,20,5,20z"
				/>
		</g>
	</g>
</g>
</svg>
