<?xml version="1.0" encoding="utf-8"?>
<!-- Generator: Adobe Illustrator 18.1.0, SVG Export Plug-In . SVG Version: 6.00 Build 0)  -->
<!DOCTYPE svg PUBLIC "-//W3C//DTD SVG 1.1//EN" "http://www.w3.org/Graphics/SVG/1.1/DTD/svg11.dtd" [
	<!ENTITY ns_extend "http://ns.adobe.com/Extensibility/1.0/">
	<!ENTITY ns_ai "http://ns.adobe.com/AdobeIllustrator/10.0/">
	<!ENTITY ns_graphs "http://ns.adobe.com/Graphs/1.0/">
	<!ENTITY ns_vars "http://ns.adobe.com/Variables/1.0/">
	<!ENTITY ns_imrep "http://ns.adobe.com/ImageReplacement/1.0/">
	<!ENTITY ns_sfw "http://ns.adobe.com/SaveForWeb/1.0/">
	<!ENTITY ns_custom "http://ns.adobe.com/GenericCustomNamespace/1.0/">
	<!ENTITY ns_adobe_xpath "http://ns.adobe.com/XPath/1.0/">
]>
<svg version="1.1" id="Layer_1" xmlns:x="&ns_extend;" xmlns:i="&ns_ai;" xmlns:graph="&ns_graphs;"
	 xmlns="http://www.w3.org/2000/svg" xmlns:xlink="http://www.w3.org/1999/xlink" x="0px" y="0px" width="24px" height="24px"
	 viewBox="0 0 24 24" enable-background="new 0 0 24 24" xml:space="preserve">
<metadata>
	<sfw  xmlns="&ns_sfw;">
		<slices></slices>
		<sliceSourceBounds  width="505" height="984" bottomLeftOrigin="true" x="0" y="-552"></sliceSourceBounds>
	</sfw>
</metadata>
<g>
	<g>
		<g>
			<path d="M22,24H2c-0.6,0-1-0.4-1-1V11c0-0.6,0.4-1,1-1h20c0.6,0,1,0.4,1,1v12C23,23.6,22.6,24,22,24z M3,22h18V12H3V22z"/>
		</g>
	</g>
	<g>
		<g>
			<path d="M23,12H1c-0.6,0-1-0.4-1-1V7c0-0.6,0.4-1,1-1h22c0.6,0,1,0.4,1,1v4C24,11.6,23.6,12,23,12z M2,10h20V8H2V10z"/>
		</g>
	</g>
	<g>
		<g>
			<path d="M12,24c-0.6,0-1-0.4-1-1V7c0-0.6,0.4-1,1-1s1,0.4,1,1v16C13,23.6,12.6,24,12,24z"/>
		</g>
	</g>
	<g>
		<g>
			<path d="M15,8c-0.6,0-1-0.4-1-1s0.4-1,1-1c1.1,0,2-0.9,2-2s-0.9-2-2-2s-2,0.9-2,2c0,0.6-0.4,1-1,1s-1-0.4-1-1c0-2.2,1.8-4,4-4
				s4,1.8,4,4S17.2,8,15,8z"/>
		</g>
	</g>
	<g>
		<g>
			<path d="M9,8C6.8,8,5,6.2,5,4s1.8-4,4-4s4,1.8,4,4c0,0.6-0.4,1-1,1s-1-0.4-1-1c0-1.1-0.9-2-2-2S7,2.9,7,4s0.9,2,2,2
				c0.6,0,1,0.4,1,1S9.6,8,9,8z"/>
		</g>
	</g>
	<g>
		<g>
			<path d="M12,10c-0.6,0-1-0.4-1-1V4c0-0.6,0.4-1,1-1s1,0.4,1,1v5C13,9.6,12.6,10,12,10z"/>
		</g>
	</g>
</g>
</svg>
