<?xml version="1.0" encoding="utf-8"?>
<!-- Generator: Adobe Illustrator 18.1.0, SVG Export Plug-In . SVG Version: 6.00 Build 0)  -->
<!DOCTYPE svg PUBLIC "-//W3C//DTD SVG 1.1//EN" "http://www.w3.org/Graphics/SVG/1.1/DTD/svg11.dtd" [
	<!ENTITY ns_extend "http://ns.adobe.com/Extensibility/1.0/">
	<!ENTITY ns_ai "http://ns.adobe.com/AdobeIllustrator/10.0/">
	<!ENTITY ns_graphs "http://ns.adobe.com/Graphs/1.0/">
	<!ENTITY ns_vars "http://ns.adobe.com/Variables/1.0/">
	<!ENTITY ns_imrep "http://ns.adobe.com/ImageReplacement/1.0/">
	<!ENTITY ns_sfw "http://ns.adobe.com/SaveForWeb/1.0/">
	<!ENTITY ns_custom "http://ns.adobe.com/GenericCustomNamespace/1.0/">
	<!ENTITY ns_adobe_xpath "http://ns.adobe.com/XPath/1.0/">
]>
<svg version="1.1" id="Layer_1" xmlns:x="&ns_extend;" xmlns:i="&ns_ai;" xmlns:graph="&ns_graphs;"
	 xmlns="http://www.w3.org/2000/svg" xmlns:xlink="http://www.w3.org/1999/xlink" x="0px" y="0px" width="24px" height="24px"
	 viewBox="0 0 24 24" enable-background="new 0 0 24 24" xml:space="preserve">
<metadata>
	<sfw  xmlns="&ns_sfw;">
		<slices></slices>
		<sliceSourceBounds  width="505" height="984" bottomLeftOrigin="true" x="0" y="-984"></sliceSourceBounds>
	</sfw>
</metadata>
<g>
	<g>
		<g>
			<path d="M5,6H1C0.4,6,0,5.6,0,5V1c0-0.6,0.4-1,1-1h4c0.6,0,1,0.4,1,1v4C6,5.6,5.6,6,5,6z M2,4h2V2H2V4z"/>
		</g>
	</g>
	<g>
		<g>
			<path d="M23,6h-4c-0.6,0-1-0.4-1-1V1c0-0.6,0.4-1,1-1h4c0.6,0,1,0.4,1,1v4C24,5.6,23.6,6,23,6z M20,4h2V2h-2V4z"/>
		</g>
	</g>
	<g>
		<g>
			<path d="M5,24H1c-0.6,0-1-0.4-1-1v-4c0-0.6,0.4-1,1-1h4c0.6,0,1,0.4,1,1v4C6,23.6,5.6,24,5,24z M2,22h2v-2H2V22z"/>
		</g>
	</g>
	<g>
		<g>
			<path d="M23,24h-4c-0.6,0-1-0.4-1-1v-4c0-0.6,0.4-1,1-1h4c0.6,0,1,0.4,1,1v4C24,23.6,23.6,24,23,24z M20,22h2v-2h-2V22z"/>
		</g>
	</g>
	<g>
		<g>
			<path stroke="#2D2D2D" stroke-width="2" stroke-linecap="round" stroke-linejoin="round" stroke-miterlimit="10" d="M20,5"/>
		</g>
	</g>
	<g>
		<g>
			<path stroke="#2D2D2D" stroke-width="2" stroke-linecap="round" stroke-linejoin="round" stroke-miterlimit="10" d="M20,19"/>
		</g>
	</g>
	<g>
		<g>
			<path stroke="#2D2D2D" stroke-width="2" stroke-linecap="round" stroke-linejoin="round" stroke-miterlimit="10" d="M2,5"/>
		</g>
	</g>
	<g>
		<g>
			<path stroke="#2D2D2D" stroke-width="2" stroke-linecap="round" stroke-linejoin="round" stroke-miterlimit="10" d="M3,18"/>
		</g>
	</g>
	<g>
		<g>
			<path stroke="#2D2D2D" stroke-width="2" stroke-linecap="round" stroke-linejoin="round" stroke-miterlimit="10" d="M5,4"/>
		</g>
	</g>
	<g>
		<g>
			<path stroke="#2D2D2D" stroke-width="2" stroke-linecap="round" stroke-linejoin="round" stroke-miterlimit="10" d="M19,4"/>
		</g>
	</g>
	<g>
		<g>
			<path stroke="#2D2D2D" stroke-width="2" stroke-linecap="round" stroke-linejoin="round" stroke-miterlimit="10" d="M6,21"/>
		</g>
	</g>
	<g>
		<g>
			<path stroke="#2D2D2D" stroke-width="2" stroke-linecap="round" stroke-linejoin="round" stroke-miterlimit="10" d="M19,20"/>
		</g>
	</g>
	<g>
		<g>
			<path d="M3,20c-0.6,0-1-0.4-1-1V5c0-0.6,0.4-1,1-1s1,0.4,1,1v14C4,19.6,3.6,20,3,20z"/>
		</g>
	</g>
	<g>
		<g>
			<path d="M19,22H5c-0.6,0-1-0.4-1-1s0.4-1,1-1h14c0.6,0,1,0.4,1,1S19.6,22,19,22z"/>
		</g>
	</g>
	<g>
		<g>
			<path d="M21,20c-0.6,0-1-0.4-1-1V5c0-0.6,0.4-1,1-1s1,0.4,1,1v14C22,19.6,21.6,20,21,20z"/>
		</g>
	</g>
	<g>
		<g>
			<path d="M19,4H5C4.4,4,4,3.6,4,3s0.4-1,1-1h14c0.6,0,1,0.4,1,1S19.6,4,19,4z"/>
		</g>
	</g>
</g>
</svg>
