<?xml version="1.0" encoding="utf-8"?>
<!-- Generator: Adobe Illustrator 18.1.0, SVG Export Plug-In . SVG Version: 6.00 Build 0)  -->
<!DOCTYPE svg PUBLIC "-//W3C//DTD SVG 1.1//EN" "http://www.w3.org/Graphics/SVG/1.1/DTD/svg11.dtd" [
	<!ENTITY ns_extend "http://ns.adobe.com/Extensibility/1.0/">
	<!ENTITY ns_ai "http://ns.adobe.com/AdobeIllustrator/10.0/">
	<!ENTITY ns_graphs "http://ns.adobe.com/Graphs/1.0/">
	<!ENTITY ns_vars "http://ns.adobe.com/Variables/1.0/">
	<!ENTITY ns_imrep "http://ns.adobe.com/ImageReplacement/1.0/">
	<!ENTITY ns_sfw "http://ns.adobe.com/SaveForWeb/1.0/">
	<!ENTITY ns_custom "http://ns.adobe.com/GenericCustomNamespace/1.0/">
	<!ENTITY ns_adobe_xpath "http://ns.adobe.com/XPath/1.0/">
]>
<svg version="1.1" id="Layer_1" xmlns:x="&ns_extend;" xmlns:i="&ns_ai;" xmlns:graph="&ns_graphs;"
	 xmlns="http://www.w3.org/2000/svg" xmlns:xlink="http://www.w3.org/1999/xlink" x="0px" y="0px" width="24px" height="24px"
	 viewBox="0 0 24 24" enable-background="new 0 0 24 24" xml:space="preserve">
<metadata>
	<sfw  xmlns="&ns_sfw;">
		<slices></slices>
		<sliceSourceBounds  width="505" height="984" bottomLeftOrigin="true" x="0" y="-984"></sliceSourceBounds>
	</sfw>
</metadata>
<g>
	<g>
		<g>
			<path d="M1,10.1c-0.5,0-0.9-0.4-1-0.9C0,9,0,8.7,0,8.5c0-0.2,0-0.4,0-0.6l0-0.2c0-0.3,0.1-0.6,0.2-0.9C0.5,5.8,0.9,5,1.5,4.3
				c0.1-0.1,0.1-0.1,0.2-0.2C2.9,2.8,4.6,2,6.5,2C10.1,2,13,4.9,13,8.5c0,0.6-0.4,1-1,1s-1-0.4-1-1C11,6,9,4,6.5,4
				C5.2,4,4,4.5,3.2,5.5c0,0,0,0,0,0c0,0,0,0,0,0c0,0,0,0,0,0.1c-0.4,0.5-0.7,1-0.9,1.7C2.1,7.5,2.1,7.6,2.1,7.8l0,0.3
				c0,0.1,0,0.3,0,0.4c0,0.2,0,0.3,0,0.4c0.1,0.5-0.3,1-0.9,1.1C1.1,10.1,1.1,10.1,1,10.1z"/>
		</g>
	</g>
	<g>
		<g>
			<path d="M23,10.1c0,0-0.1,0-0.1,0C22.3,10,21.9,9.5,22,9c0-0.2,0-0.3,0-0.5c0-0.1,0-0.3,0-0.4l0-0.2c0,0,0-0.1,0-0.1
				c0-0.2-0.1-0.3-0.1-0.5c-0.2-0.7-0.5-1.2-0.9-1.7c0,0,0,0-0.1-0.1C20,4.5,18.8,4,17.5,4C15,4,13,6,13,8.5c0,0.6-0.4,1-1,1
				s-1-0.4-1-1C11,4.9,13.9,2,17.5,2c1.9,0,3.6,0.8,4.9,2.2c0,0,0,0,0,0c0,0,0,0,0.1,0.1c0.6,0.7,1,1.5,1.3,2.4
				c0.1,0.2,0.1,0.5,0.2,0.8c0,0,0,0.1,0,0.1l0,0.2c0,0.2,0,0.4,0,0.7c0,0.2,0,0.4,0,0.7C23.9,9.7,23.5,10.1,23,10.1z"/>
		</g>
	</g>
	<g>
		<g>
			<path d="M12,22C7.7,22,0.5,15.1,0,9.1c0-0.2,0-0.4,0-0.6c0-0.2,0-0.4,0-0.6l0-0.2C0.1,7.3,0.2,7,0.3,6.7c0.1-0.3,0.2-0.6,0.3-0.8
				C0.7,5.6,0.8,5.3,1,5.1l0.2-0.3c0.2-0.2,0.3-0.4,0.4-0.5c0.4-0.4,1-0.4,1.4-0.1c0.4,0.4,0.4,1,0.1,1.4C3,5.6,3,5.7,2.9,5.8
				L2.7,6.1C2.6,6.3,2.5,6.5,2.4,6.7C2.3,6.9,2.2,7.1,2.2,7.3c0,0.2-0.1,0.4-0.1,0.6l0,0.2c0,0.1,0,0.3,0,0.4C2,8.6,2,8.8,2,9
				c0.4,4.8,6.6,11,10,11s9.6-6.3,10-11c0-0.2,0-0.3,0-0.5c0-0.1,0-0.3,0-0.4l0-0.3c0-0.1-0.1-0.4-0.1-0.6c-0.2-0.6-0.5-1.2-0.9-1.7
				c-0.4-0.4-0.4-1,0-1.4c0.4-0.4,1-0.4,1.4,0c0,0,0.1,0.1,0.2,0.2c0.5,0.7,1,1.5,1.2,2.3c0.1,0.3,0.1,0.6,0.2,0.9l0,0.3
				c0,0.2,0,0.4,0,0.7c0,0.2,0,0.4,0,0.7C23.5,15.1,16.3,22,12,22z"/>
		</g>
	</g>
</g>
</svg>
