<?xml version="1.0" encoding="utf-8"?>
<!-- Generator: Adobe Illustrator 18.1.0, SVG Export Plug-In . SVG Version: 6.00 Build 0)  -->
<!DOCTYPE svg PUBLIC "-//W3C//DTD SVG 1.1//EN" "http://www.w3.org/Graphics/SVG/1.1/DTD/svg11.dtd" [
	<!ENTITY ns_extend "http://ns.adobe.com/Extensibility/1.0/">
	<!ENTITY ns_ai "http://ns.adobe.com/AdobeIllustrator/10.0/">
	<!ENTITY ns_graphs "http://ns.adobe.com/Graphs/1.0/">
	<!ENTITY ns_vars "http://ns.adobe.com/Variables/1.0/">
	<!ENTITY ns_imrep "http://ns.adobe.com/ImageReplacement/1.0/">
	<!ENTITY ns_sfw "http://ns.adobe.com/SaveForWeb/1.0/">
	<!ENTITY ns_custom "http://ns.adobe.com/GenericCustomNamespace/1.0/">
	<!ENTITY ns_adobe_xpath "http://ns.adobe.com/XPath/1.0/">
]>
<svg version="1.1" id="Layer_1" xmlns:x="&ns_extend;" xmlns:i="&ns_ai;" xmlns:graph="&ns_graphs;"
	 xmlns="http://www.w3.org/2000/svg" xmlns:xlink="http://www.w3.org/1999/xlink" x="0px" y="0px" width="24px" height="24px"
	 viewBox="0 0 24 24" enable-background="new 0 0 24 24" xml:space="preserve">
<metadata>
	<sfw  xmlns="&ns_sfw;">
		<slices></slices>
		<sliceSourceBounds  width="505" height="984" bottomLeftOrigin="true" x="0" y="-984"></sliceSourceBounds>
	</sfw>
</metadata>
<g>
	<g>
		<g>
			<path d="M19,24H5c-0.6,0-1-0.4-1-1v-9H1c-0.4,0-0.8-0.2-0.9-0.6C-0.1,13,0,12.6,0.3,12.3l11-12c0.4-0.4,1.1-0.4,1.5,0l11,12
				c0.3,0.3,0.3,0.7,0.2,1.1C23.8,13.8,23.4,14,23,14h-3v9C20,23.6,19.6,24,19,24z M6,22h12v-9c0-0.6,0.4-1,1-1h1.7L12,2.5L3.3,12H5
				c0.6,0,1,0.4,1,1V22z"/>
		</g>
	</g>
	<g>
		<g>
			<path d="M14,24h-4c-0.6,0-1-0.4-1-1v-6c0-0.6,0.4-1,1-1h4c0.6,0,1,0.4,1,1v6C15,23.6,14.6,24,14,24z M11,22h2v-4h-2V22z"/>
		</g>
	</g>
	<g>
		<g>
			<path d="M12,13c-1.7,0-3-1.3-3-3s1.3-3,3-3s3,1.3,3,3S13.7,13,12,13z M12,9c-0.6,0-1,0.4-1,1s0.4,1,1,1s1-0.4,1-1S12.6,9,12,9z"
				/>
		</g>
	</g>
</g>
</svg>
