<?xml version="1.0" encoding="utf-8"?>
<!-- Generator: Adobe Illustrator 18.1.0, SVG Export Plug-In . SVG Version: 6.00 Build 0)  -->
<!DOCTYPE svg PUBLIC "-//W3C//DTD SVG 1.1//EN" "http://www.w3.org/Graphics/SVG/1.1/DTD/svg11.dtd" [
	<!ENTITY ns_extend "http://ns.adobe.com/Extensibility/1.0/">
	<!ENTITY ns_ai "http://ns.adobe.com/AdobeIllustrator/10.0/">
	<!ENTITY ns_graphs "http://ns.adobe.com/Graphs/1.0/">
	<!ENTITY ns_vars "http://ns.adobe.com/Variables/1.0/">
	<!ENTITY ns_imrep "http://ns.adobe.com/ImageReplacement/1.0/">
	<!ENTITY ns_sfw "http://ns.adobe.com/SaveForWeb/1.0/">
	<!ENTITY ns_custom "http://ns.adobe.com/GenericCustomNamespace/1.0/">
	<!ENTITY ns_adobe_xpath "http://ns.adobe.com/XPath/1.0/">
]>
<svg version="1.1" id="Layer_1" xmlns:x="&ns_extend;" xmlns:i="&ns_ai;" xmlns:graph="&ns_graphs;"
	 xmlns="http://www.w3.org/2000/svg" xmlns:xlink="http://www.w3.org/1999/xlink" x="0px" y="0px" width="24px" height="24px"
	 viewBox="0 0 24 24" enable-background="new 0 0 24 24" xml:space="preserve">
<metadata>
	<sfw  xmlns="&ns_sfw;">
		<slices></slices>
		<sliceSourceBounds  width="505" height="984" bottomLeftOrigin="true" x="0" y="-984"></sliceSourceBounds>
	</sfw>
</metadata>
<g>
	<g>
		<g>
			<path d="M23,21H1c-0.6,0-1-0.4-1-1V4c0-0.6,0.4-1,1-1h9c0.6,0,1,0.4,1,1s-0.4,1-1,1H2v14h20V5h-8c-0.6,0-1-0.4-1-1s0.4-1,1-1h9
				c0.6,0,1,0.4,1,1v16C24,20.6,23.6,21,23,21z"/>
		</g>
	</g>
	<g>
		<g>
			<path d="M14,7h-4C9.4,7,9,6.6,9,6V1c0-0.6,0.4-1,1-1h4c0.6,0,1,0.4,1,1v5C15,6.6,14.6,7,14,7z M11,5h2V2h-2V5z"/>
		</g>
	</g>
	<g>
		<g>
			<path d="M8,16H5c-0.6,0-1-0.4-1-1V9c0-0.6,0.4-1,1-1h3c0.6,0,1,0.4,1,1v6C9,15.6,8.6,16,8,16z M6,14h1v-4H6V14z"/>
		</g>
	</g>
	<g>
		<g>
			<path d="M18,10h-6c-0.6,0-1-0.4-1-1s0.4-1,1-1h6c0.6,0,1,0.4,1,1S18.6,10,18,10z"/>
		</g>
	</g>
	<g>
		<g>
			<path d="M15,13h-3c-0.6,0-1-0.4-1-1s0.4-1,1-1h3c0.6,0,1,0.4,1,1S15.6,13,15,13z"/>
		</g>
	</g>
	<g>
		<g>
			<path d="M17,16h-5c-0.6,0-1-0.4-1-1s0.4-1,1-1h5c0.6,0,1,0.4,1,1S17.6,16,17,16z"/>
		</g>
	</g>
</g>
</svg>
