<?xml version="1.0" encoding="utf-8"?>
<!-- Generator: Adobe Illustrator 18.1.0, SVG Export Plug-In . SVG Version: 6.00 Build 0)  -->
<!DOCTYPE svg PUBLIC "-//W3C//DTD SVG 1.1//EN" "http://www.w3.org/Graphics/SVG/1.1/DTD/svg11.dtd" [
	<!ENTITY ns_extend "http://ns.adobe.com/Extensibility/1.0/">
	<!ENTITY ns_ai "http://ns.adobe.com/AdobeIllustrator/10.0/">
	<!ENTITY ns_graphs "http://ns.adobe.com/Graphs/1.0/">
	<!ENTITY ns_vars "http://ns.adobe.com/Variables/1.0/">
	<!ENTITY ns_imrep "http://ns.adobe.com/ImageReplacement/1.0/">
	<!ENTITY ns_sfw "http://ns.adobe.com/SaveForWeb/1.0/">
	<!ENTITY ns_custom "http://ns.adobe.com/GenericCustomNamespace/1.0/">
	<!ENTITY ns_adobe_xpath "http://ns.adobe.com/XPath/1.0/">
]>
<svg version="1.1" id="Layer_1" xmlns:x="&ns_extend;" xmlns:i="&ns_ai;" xmlns:graph="&ns_graphs;"
	 xmlns="http://www.w3.org/2000/svg" xmlns:xlink="http://www.w3.org/1999/xlink" x="0px" y="0px" width="24px" height="24px"
	 viewBox="0 0 24 24" enable-background="new 0 0 24 24" xml:space="preserve">
<metadata>
	<sfw  xmlns="&ns_sfw;">
		<slices></slices>
		<sliceSourceBounds  width="505" height="984" bottomLeftOrigin="true" x="0" y="-984"></sliceSourceBounds>
	</sfw>
</metadata>
<g>
	<g>
		<g>
			<path d="M23,24H1c-0.6,0-1-0.4-1-1V1c0-0.6,0.4-1,1-1h22c0.6,0,1,0.4,1,1v22C24,23.6,23.6,24,23,24z M2,22h20V2H2V22z"/>
		</g>
	</g>
	<g>
		<g>
			<path d="M23,19H1c-0.6,0-1-0.4-1-1s0.4-1,1-1h22c0.6,0,1,0.4,1,1S23.6,19,23,19z"/>
		</g>
	</g>
	<g>
		<g>
			<path d="M1,17c-0.3,0-0.5-0.1-0.7-0.3c-0.4-0.4-0.4-1,0-1.4l6-6c0.4-0.4,1-0.4,1.4,0s0.4,1,0,1.4l-6,6C1.5,16.9,1.3,17,1,17z"/>
		</g>
	</g>
	<g>
		<g>
			<path d="M11,15c-0.3,0-0.5-0.1-0.7-0.3l-4-4c-0.4-0.4-0.4-1,0-1.4s1-0.4,1.4,0l4,4c0.4,0.4,0.4,1,0,1.4C11.5,14.9,11.3,15,11,15z
				"/>
		</g>
	</g>
	<g>
		<g>
			<path d="M9,13c-0.3,0-0.5-0.1-0.7-0.3c-0.4-0.4-0.4-1,0-1.4l5-5c0.4-0.4,1-0.4,1.4,0s0.4,1,0,1.4l-5,5C9.5,12.9,9.3,13,9,13z"/>
		</g>
	</g>
	<g>
		<g>
			<path d="M22.5,16.5c-0.3,0-0.5-0.1-0.7-0.3l-8.5-8.5c-0.4-0.4-0.4-1,0-1.4s1-0.4,1.4,0l8.5,8.5c0.4,0.4,0.4,1,0,1.4
				C23,16.4,22.8,16.5,22.5,16.5z"/>
		</g>
	</g>
	<g>
		<g>
			<path d="M3,7C2,7,1.1,6.6,0.3,6c-0.4-0.4-0.4-1-0.1-1.4c0.4-0.4,1-0.4,1.4-0.1C2,4.8,2.5,5,3,5c1.1,0,2-0.9,2-2
				c0-0.5-0.2-1-0.5-1.3c-0.4-0.4-0.3-1,0.1-1.4C5-0.1,5.6-0.1,6,0.3C6.6,1.1,7,2,7,3C7,5.2,5.2,7,3,7z"/>
		</g>
	</g>
</g>
</svg>
