<?xml version="1.0" encoding="utf-8"?>
<!-- Generator: Adobe Illustrator 18.1.0, SVG Export Plug-In . SVG Version: 6.00 Build 0)  -->
<!DOCTYPE svg PUBLIC "-//W3C//DTD SVG 1.1//EN" "http://www.w3.org/Graphics/SVG/1.1/DTD/svg11.dtd" [
	<!ENTITY ns_extend "http://ns.adobe.com/Extensibility/1.0/">
	<!ENTITY ns_ai "http://ns.adobe.com/AdobeIllustrator/10.0/">
	<!ENTITY ns_graphs "http://ns.adobe.com/Graphs/1.0/">
	<!ENTITY ns_vars "http://ns.adobe.com/Variables/1.0/">
	<!ENTITY ns_imrep "http://ns.adobe.com/ImageReplacement/1.0/">
	<!ENTITY ns_sfw "http://ns.adobe.com/SaveForWeb/1.0/">
	<!ENTITY ns_custom "http://ns.adobe.com/GenericCustomNamespace/1.0/">
	<!ENTITY ns_adobe_xpath "http://ns.adobe.com/XPath/1.0/">
]>
<svg version="1.1" id="Layer_1" xmlns:x="&ns_extend;" xmlns:i="&ns_ai;" xmlns:graph="&ns_graphs;"
	 xmlns="http://www.w3.org/2000/svg" xmlns:xlink="http://www.w3.org/1999/xlink" x="0px" y="0px" width="24px" height="24px"
	 viewBox="0 0 24 24" enable-background="new 0 0 24 24" xml:space="preserve">
<metadata>
	<sfw  xmlns="&ns_sfw;">
		<slices></slices>
		<sliceSourceBounds  width="505" height="984" bottomLeftOrigin="true" x="0" y="-552"></sliceSourceBounds>
	</sfw>
</metadata>
<g>
	<g>
		<g>
			<path d="M12,14c-0.1,0-0.3,0-0.4-0.1l-11-5C0.2,8.7,0,8.4,0,8s0.2-0.7,0.6-0.9l11-5c0.3-0.1,0.6-0.1,0.8,0l11,5
				C23.8,7.3,24,7.6,24,8s-0.2,0.7-0.6,0.9l-11,5C12.3,14,12.1,14,12,14z M3.4,8l8.6,3.9L20.6,8L12,4.1L3.4,8z"/>
		</g>
	</g>
	<g>
		<g>
			<path d="M12,22c-0.1,0-0.3,0-0.4-0.1l-11-5C0.2,16.7,0,16.4,0,16s0.2-0.7,0.6-0.9l4.4-2c0.5-0.2,1.1,0,1.3,0.5
				c0.2,0.5,0,1.1-0.5,1.3L3.4,16l8.6,3.9l8.6-3.9l-2.4-1.1c-0.5-0.2-0.7-0.8-0.5-1.3c0.2-0.5,0.8-0.7,1.3-0.5l4.4,2
				c0.4,0.2,0.6,0.5,0.6,0.9s-0.2,0.7-0.6,0.9l-11,5C12.3,22,12.1,22,12,22z"/>
		</g>
	</g>
	<g>
		<g>
			<path d="M12,18c-0.1,0-0.3,0-0.4-0.1l-11-5C0.2,12.7,0,12.4,0,12s0.2-0.7,0.6-0.9l4.4-2c0.5-0.2,1.1,0,1.3,0.5
				c0.2,0.5,0,1.1-0.5,1.3L3.4,12l8.6,3.9l8.6-3.9l-2.4-1.1c-0.5-0.2-0.7-0.8-0.5-1.3c0.2-0.5,0.8-0.7,1.3-0.5l4.4,2
				c0.4,0.2,0.6,0.5,0.6,0.9s-0.2,0.7-0.6,0.9l-11,5C12.3,18,12.1,18,12,18z"/>
		</g>
	</g>
</g>
</svg>
