<?xml version="1.0" encoding="utf-8"?>
<!-- Generator: Adobe Illustrator 18.1.0, SVG Export Plug-In . SVG Version: 6.00 Build 0)  -->
<!DOCTYPE svg PUBLIC "-//W3C//DTD SVG 1.1//EN" "http://www.w3.org/Graphics/SVG/1.1/DTD/svg11.dtd" [
	<!ENTITY ns_extend "http://ns.adobe.com/Extensibility/1.0/">
	<!ENTITY ns_ai "http://ns.adobe.com/AdobeIllustrator/10.0/">
	<!ENTITY ns_graphs "http://ns.adobe.com/Graphs/1.0/">
	<!ENTITY ns_vars "http://ns.adobe.com/Variables/1.0/">
	<!ENTITY ns_imrep "http://ns.adobe.com/ImageReplacement/1.0/">
	<!ENTITY ns_sfw "http://ns.adobe.com/SaveForWeb/1.0/">
	<!ENTITY ns_custom "http://ns.adobe.com/GenericCustomNamespace/1.0/">
	<!ENTITY ns_adobe_xpath "http://ns.adobe.com/XPath/1.0/">
]>
<svg version="1.1" id="Layer_1" xmlns:x="&ns_extend;" xmlns:i="&ns_ai;" xmlns:graph="&ns_graphs;"
	 xmlns="http://www.w3.org/2000/svg" xmlns:xlink="http://www.w3.org/1999/xlink" x="0px" y="0px" width="24px" height="24px"
	 viewBox="0 0 24 24" enable-background="new 0 0 24 24" xml:space="preserve">
<metadata>
	<sfw  xmlns="&ns_sfw;">
		<slices></slices>
		<sliceSourceBounds  width="505" height="984" bottomLeftOrigin="true" x="0" y="-552"></sliceSourceBounds>
	</sfw>
</metadata>
<g>
	<g>
		<g>
			<path d="M14.3,15.8c-1.4,0-2.8-0.6-3.8-1.6c-1.4-1.4-1.9-3.2-1.5-5C9,8.6,9.5,8.2,10,8.4c0.5,0.1,0.9,0.6,0.8,1.2
				c-0.2,1.1,0.1,2.3,0.9,3.1c0.9,0.9,2.1,1.2,3.2,1c0.6-0.1,1.2-0.4,1.6-0.8c0.1-0.1,0.1-0.1,0.2-0.1l2.9-2.9
				c1.3-1.3,1.3-3.5,0-4.9c-1.4-1.4-3.6-1.4-5-0.1l-1.5,1.5c0,0-0.1,0.1-0.1,0.1c-0.3,0.4-1,0.5-1.4,0.2c-0.4-0.3-0.5-1-0.2-1.4
				C11.6,5.1,11.7,5,11.8,5l1.5-1.5c2.1-2.1,5.6-2.1,7.7,0c2.2,2.2,2.2,5.6,0.1,7.8l-2.9,2.9c-0.1,0.1-0.2,0.2-0.3,0.3
				c-0.7,0.6-1.5,1-2.5,1.2C15,15.7,14.6,15.8,14.3,15.8z"/>
		</g>
	</g>
	<g>
		<g>
			<path d="M7.9,22.1c-1.4,0-2.8-0.5-3.9-1.6c-2.2-2.2-2.2-5.6-0.1-7.8l2.9-2.9C7,9.8,7,9.7,7.1,9.6c0.7-0.6,1.5-1,2.5-1.2
				c1.8-0.4,3.6,0.2,5,1.5c1.4,1.4,1.9,3.2,1.5,5c-0.1,0.5-0.6,0.9-1.2,0.8c-0.5-0.1-0.9-0.6-0.8-1.2c0.2-1.1-0.1-2.3-0.9-3.1
				c-0.9-0.9-2.1-1.2-3.2-1c-0.6,0.1-1.2,0.4-1.6,0.8c-0.1,0.1-0.1,0.1-0.2,0.1l-2.9,2.9c-1.3,1.3-1.3,3.5,0,4.9
				c1.4,1.4,3.6,1.4,5,0.1l1.5-1.5c0,0,0.1-0.1,0.1-0.1c0.3-0.4,1-0.5,1.4-0.2c0.4,0.3,0.5,1,0.2,1.4c-0.1,0.1-0.2,0.2-0.3,0.3
				l-1.5,1.5C10.7,21.6,9.3,22.1,7.9,22.1z"/>
		</g>
	</g>
</g>
</svg>
