<?xml version="1.0" encoding="utf-8"?>
<!-- Generator: Adobe Illustrator 18.1.0, SVG Export Plug-In . SVG Version: 6.00 Build 0)  -->
<!DOCTYPE svg PUBLIC "-//W3C//DTD SVG 1.1//EN" "http://www.w3.org/Graphics/SVG/1.1/DTD/svg11.dtd" [
	<!ENTITY ns_extend "http://ns.adobe.com/Extensibility/1.0/">
	<!ENTITY ns_ai "http://ns.adobe.com/AdobeIllustrator/10.0/">
	<!ENTITY ns_graphs "http://ns.adobe.com/Graphs/1.0/">
	<!ENTITY ns_vars "http://ns.adobe.com/Variables/1.0/">
	<!ENTITY ns_imrep "http://ns.adobe.com/ImageReplacement/1.0/">
	<!ENTITY ns_sfw "http://ns.adobe.com/SaveForWeb/1.0/">
	<!ENTITY ns_custom "http://ns.adobe.com/GenericCustomNamespace/1.0/">
	<!ENTITY ns_adobe_xpath "http://ns.adobe.com/XPath/1.0/">
]>
<svg version="1.1" id="Layer_1" xmlns:x="&ns_extend;" xmlns:i="&ns_ai;" xmlns:graph="&ns_graphs;"
	 xmlns="http://www.w3.org/2000/svg" xmlns:xlink="http://www.w3.org/1999/xlink" x="0px" y="0px" width="24px" height="24px"
	 viewBox="0 0 24 24" enable-background="new 0 0 24 24" xml:space="preserve">
<metadata>
	<sfw  xmlns="&ns_sfw;">
		<slices></slices>
		<sliceSourceBounds  width="505" height="984" bottomLeftOrigin="true" x="0" y="-984"></sliceSourceBounds>
	</sfw>
</metadata>
<g>
	<g>
		<g>
			<path d="M17,5h-2c0-0.3,0-0.5-0.1-0.7C14.6,2.9,13.4,2,12,2S9.4,2.9,9.1,4.2C9,4.5,9,4.7,9,5H7c0-0.5,0.1-0.9,0.2-1.3
				C7.7,1.5,9.7,0,12,0s4.3,1.5,4.8,3.8C16.9,4.1,17,4.5,17,5z"/>
		</g>
	</g>
	<g>
		<g>
			<path d="M12,16c-2.8,0-5-2.2-5-5h2c0,1.7,1.3,3,3,3s3-1.3,3-3h2C17,13.8,14.8,16,12,16z"/>
		</g>
	</g>
	<g>
		<g>
			<path d="M9,5H7c0-0.5,0.1-0.9,0.2-1.3l1.9,0.5C9,4.5,9,4.7,9,5z"/>
		</g>
	</g>
	<g>
		<g>
			<path d="M12,20c-5,0-9-4-9-9c0-0.6,0.4-1,1-1s1,0.4,1,1c0,3.9,3.1,7,7,7s7-3.1,7-7c0-0.6,0.4-1,1-1s1,0.4,1,1C21,16,17,20,12,20z
				"/>
		</g>
	</g>
	<g>
		<g>
			<path d="M16,24H8c-0.6,0-1-0.4-1-1s0.4-1,1-1h8c0.6,0,1,0.4,1,1S16.6,24,16,24z"/>
		</g>
	</g>
	<g>
		<g>
			<path d="M12,24c-0.6,0-1-0.4-1-1v-4c0-0.6,0.4-1,1-1s1,0.4,1,1v4C13,23.6,12.6,24,12,24z"/>
		</g>
	</g>
	<g>
		<g>
			<path d="M8,12c-0.6,0-1-0.4-1-1V5c0-0.6,0.4-1,1-1s1,0.4,1,1v6C9,11.6,8.6,12,8,12z"/>
		</g>
	</g>
	<g>
		<g>
			<path d="M16,12c-0.6,0-1-0.4-1-1V5c0-0.6,0.4-1,1-1s1,0.4,1,1v6C17,11.6,16.6,12,16,12z"/>
		</g>
	</g>
</g>
</svg>
