<?xml version="1.0" encoding="utf-8"?>
<!-- Generator: Adobe Illustrator 18.1.0, SVG Export Plug-In . SVG Version: 6.00 Build 0)  -->
<!DOCTYPE svg PUBLIC "-//W3C//DTD SVG 1.1//EN" "http://www.w3.org/Graphics/SVG/1.1/DTD/svg11.dtd" [
	<!ENTITY ns_extend "http://ns.adobe.com/Extensibility/1.0/">
	<!ENTITY ns_ai "http://ns.adobe.com/AdobeIllustrator/10.0/">
	<!ENTITY ns_graphs "http://ns.adobe.com/Graphs/1.0/">
	<!ENTITY ns_vars "http://ns.adobe.com/Variables/1.0/">
	<!ENTITY ns_imrep "http://ns.adobe.com/ImageReplacement/1.0/">
	<!ENTITY ns_sfw "http://ns.adobe.com/SaveForWeb/1.0/">
	<!ENTITY ns_custom "http://ns.adobe.com/GenericCustomNamespace/1.0/">
	<!ENTITY ns_adobe_xpath "http://ns.adobe.com/XPath/1.0/">
]>
<svg version="1.1" id="Layer_1" xmlns:x="&ns_extend;" xmlns:i="&ns_ai;" xmlns:graph="&ns_graphs;"
	 xmlns="http://www.w3.org/2000/svg" xmlns:xlink="http://www.w3.org/1999/xlink" x="0px" y="0px" width="24px" height="24px"
	 viewBox="0 0 24 24" enable-background="new 0 0 24 24" xml:space="preserve">
<metadata>
	<sfw  xmlns="&ns_sfw;">
		<slices></slices>
		<sliceSourceBounds  width="505" height="984" bottomLeftOrigin="true" x="0" y="-120"></sliceSourceBounds>
	</sfw>
</metadata>
<g>
	<g>
		<g>
			<path d="M12,24c-4.1,0-9-2.1-9-12C3,6.1,3,0,12,0s9,6.1,9,12C21,21.9,16.1,24,12,24z M12,2C5,2,5,5.8,5,12c0,2.5,0,10,7,10
				s7-7.5,7-10C19,5.8,19,2,12,2z"/>
		</g>
	</g>
	<g>
		<g>
			<path d="M12,10c-0.6,0-1-0.4-1-1V1c0-0.6,0.4-1,1-1s1,0.4,1,1v8C13,9.6,12.6,10,12,10z"/>
		</g>
	</g>
	<g>
		<g>
			<path d="M12,10c-2.8,0-5.4-0.2-7.9-0.7C3.6,9.2,3.2,8.7,3.3,8.1s0.6-0.9,1.2-0.8C6.8,7.8,9.4,8,12,8s5.2-0.2,7.5-0.7
				c0.5-0.1,1.1,0.3,1.2,0.8s-0.3,1.1-0.8,1.2C17.4,9.8,14.8,10,12,10z"/>
		</g>
	</g>
</g>
</svg>
