<?xml version="1.0" encoding="utf-8"?>
<!-- Generator: Adobe Illustrator 18.1.0, SVG Export Plug-In . SVG Version: 6.00 Build 0)  -->
<!DOCTYPE svg PUBLIC "-//W3C//DTD SVG 1.1//EN" "http://www.w3.org/Graphics/SVG/1.1/DTD/svg11.dtd" [
	<!ENTITY ns_extend "http://ns.adobe.com/Extensibility/1.0/">
	<!ENTITY ns_ai "http://ns.adobe.com/AdobeIllustrator/10.0/">
	<!ENTITY ns_graphs "http://ns.adobe.com/Graphs/1.0/">
	<!ENTITY ns_vars "http://ns.adobe.com/Variables/1.0/">
	<!ENTITY ns_imrep "http://ns.adobe.com/ImageReplacement/1.0/">
	<!ENTITY ns_sfw "http://ns.adobe.com/SaveForWeb/1.0/">
	<!ENTITY ns_custom "http://ns.adobe.com/GenericCustomNamespace/1.0/">
	<!ENTITY ns_adobe_xpath "http://ns.adobe.com/XPath/1.0/">
]>
<svg version="1.1" id="Layer_1" xmlns:x="&ns_extend;" xmlns:i="&ns_ai;" xmlns:graph="&ns_graphs;"
	 xmlns="http://www.w3.org/2000/svg" xmlns:xlink="http://www.w3.org/1999/xlink" x="0px" y="0px" width="24px" height="24px"
	 viewBox="0 0 24 24" enable-background="new 0 0 24 24" xml:space="preserve">
<metadata>
	<sfw  xmlns="&ns_sfw;">
		<slices></slices>
		<sliceSourceBounds  width="505" height="984" bottomLeftOrigin="true" x="0" y="-552"></sliceSourceBounds>
	</sfw>
</metadata>
<g>
	<g>
		<g>
			<path d="M18,24H5c-0.6,0-1-0.4-1-1V6c0-0.6,0.4-1,1-1h13c0.6,0,1,0.4,1,1v17C19,23.6,18.6,24,18,24z M6,22h11V7H6V22z"/>
		</g>
	</g>
	<g>
		<g>
			<path d="M6,7C4.3,7,3,5.7,3,4s1.3-3,3-3c0.8,0,1.5,0.3,2.1,0.8c0.4,0.4,0.4,1,0,1.4c-0.4,0.4-1,0.4-1.4,0C6.5,3.1,6.3,3,6,3
				C5.4,3,5,3.4,5,4s0.4,1,1,1c0.6,0,1,0.4,1,1S6.6,7,6,7z"/>
		</g>
	</g>
	<g>
		<g>
			<path d="M17,7c-0.6,0-1-0.4-1-1s0.4-1,1-1c0.6,0,1-0.4,1-1s-0.4-1-1-1c-0.3,0-0.6,0.1-0.7,0.3c-0.4,0.4-1,0.5-1.4,0.1
				c-0.4-0.4-0.5-1-0.1-1.4c0.6-0.7,1.4-1,2.3-1c1.7,0,3,1.3,3,3S18.7,7,17,7z"/>
		</g>
	</g>
	<g>
		<g>
			<path d="M15.5,3.7c-0.3,0-0.6-0.1-0.8-0.4c-0.4-0.4-1-0.4-1.4-0.1c-0.4,0.4-1,0.4-1.4,0c-0.4-0.4-0.4-1,0-1.4
				c1.2-1.1,3.3-1,4.3,0.2c0.4,0.4,0.3,1.1-0.1,1.4C16,3.6,15.7,3.7,15.5,3.7z"/>
		</g>
	</g>
	<g>
		<g>
			<path d="M12.6,3.5c-0.4,0-0.7-0.2-0.9-0.5c-0.3-0.6-1-1-1.8-1S8.6,2.4,8.2,3C8,3.5,7.4,3.7,6.9,3.4S6.2,2.6,6.5,2.1
				C7.2,0.8,8.5,0,10,0s2.8,0.8,3.5,2.1c0.3,0.5,0.1,1.1-0.4,1.4C13,3.5,12.8,3.5,12.6,3.5z"/>
		</g>
	</g>
	<g>
		<g>
			<path d="M22,12c-0.6,0-1-0.4-1-1c0-1.1-0.9-2-2-2c-0.6,0-1-0.4-1-1s0.4-1,1-1c2.2,0,4,1.8,4,4C23,11.6,22.6,12,22,12z"/>
		</g>
	</g>
	<g>
		<g>
			<path d="M19,9h-1c-0.6,0-1-0.4-1-1s0.4-1,1-1h1c0.6,0,1,0.4,1,1S19.6,9,19,9z"/>
		</g>
	</g>
	<g>
		<g>
			<path d="M22,15c-0.6,0-1-0.4-1-1v-3c0-0.6,0.4-1,1-1s1,0.4,1,1v3C23,14.6,22.6,15,22,15z"/>
		</g>
	</g>
	<g>
		<g>
			<path d="M19,18c-0.6,0-1-0.4-1-1s0.4-1,1-1c1.1,0,2-0.9,2-2c0-0.6,0.4-1,1-1s1,0.4,1,1C23,16.2,21.2,18,19,18z"/>
		</g>
	</g>
	<g>
		<g>
			<path d="M19,18h-1c-0.6,0-1-0.4-1-1s0.4-1,1-1h1c0.6,0,1,0.4,1,1S19.6,18,19,18z"/>
		</g>
	</g>
	<g>
		<g>
			<path d="M22,15c-0.6,0-1-0.4-1-1v-3c0-0.6,0.4-1,1-1s1,0.4,1,1v3C23,14.6,22.6,15,22,15z"/>
		</g>
	</g>
	<g>
		<g>
			<path d="M9,20c-0.6,0-1-0.4-1-1v-9c0-0.6,0.4-1,1-1s1,0.4,1,1v9C10,19.6,9.6,20,9,20z"/>
		</g>
	</g>
	<g>
		<g>
			<path d="M14,20c-0.6,0-1-0.4-1-1v-9c0-0.6,0.4-1,1-1s1,0.4,1,1v9C15,19.6,14.6,20,14,20z"/>
		</g>
	</g>
</g>
</svg>
