<?xml version="1.0" encoding="utf-8"?>
<!-- Generator: Adobe Illustrator 18.1.0, SVG Export Plug-In . SVG Version: 6.00 Build 0)  -->
<!DOCTYPE svg PUBLIC "-//W3C//DTD SVG 1.1//EN" "http://www.w3.org/Graphics/SVG/1.1/DTD/svg11.dtd" [
	<!ENTITY ns_extend "http://ns.adobe.com/Extensibility/1.0/">
	<!ENTITY ns_ai "http://ns.adobe.com/AdobeIllustrator/10.0/">
	<!ENTITY ns_graphs "http://ns.adobe.com/Graphs/1.0/">
	<!ENTITY ns_vars "http://ns.adobe.com/Variables/1.0/">
	<!ENTITY ns_imrep "http://ns.adobe.com/ImageReplacement/1.0/">
	<!ENTITY ns_sfw "http://ns.adobe.com/SaveForWeb/1.0/">
	<!ENTITY ns_custom "http://ns.adobe.com/GenericCustomNamespace/1.0/">
	<!ENTITY ns_adobe_xpath "http://ns.adobe.com/XPath/1.0/">
]>
<svg version="1.1" id="Layer_1" xmlns:x="&ns_extend;" xmlns:i="&ns_ai;" xmlns:graph="&ns_graphs;"
	 xmlns="http://www.w3.org/2000/svg" xmlns:xlink="http://www.w3.org/1999/xlink" x="0px" y="0px" width="24px" height="24px"
	 viewBox="0 0 24 24" enable-background="new 0 0 24 24" xml:space="preserve">
<metadata>
	<sfw  xmlns="&ns_sfw;">
		<slices></slices>
		<sliceSourceBounds  width="505" height="984" bottomLeftOrigin="true" x="0" y="-984"></sliceSourceBounds>
	</sfw>
</metadata>
<g>
	<g>
		<g>
			<path d="M4,24c-2.2,0-4-1.8-4-4s1.8-4,4-4s4,1.8,4,4S6.2,24,4,24z M4,18c-1.1,0-2,0.9-2,2s0.9,2,2,2s2-0.9,2-2S5.1,18,4,18z"/>
		</g>
	</g>
	<g>
		<g>
			<path d="M20,24c-2.2,0-4-1.8-4-4s1.8-4,4-4s4,1.8,4,4S22.2,24,20,24z M20,18c-1.1,0-2,0.9-2,2s0.9,2,2,2s2-0.9,2-2S21.1,18,20,18
				z"/>
		</g>
	</g>
	<g>
		<g>
			<path d="M7,21c-0.6,0-1-0.4-1-1V1c0-0.6,0.4-1,1-1s1,0.4,1,1v19C8,20.6,7.6,21,7,21z"/>
		</g>
	</g>
	<g>
		<g>
			<path d="M23,2H7C6.4,2,6,1.6,6,1s0.4-1,1-1h16c0.6,0,1,0.4,1,1S23.6,2,23,2z"/>
		</g>
	</g>
	<g>
		<g>
			<path d="M23,21c-0.6,0-1-0.4-1-1V1c0-0.6,0.4-1,1-1s1,0.4,1,1v19C24,20.6,23.6,21,23,21z"/>
		</g>
	</g>
	<g>
		<g>
			<path d="M23,6H7C6.4,6,6,5.6,6,5s0.4-1,1-1h16c0.6,0,1,0.4,1,1S23.6,6,23,6z"/>
		</g>
	</g>
</g>
</svg>
