<?xml version="1.0" encoding="utf-8"?>
<!-- Generator: Adobe Illustrator 18.1.0, SVG Export Plug-In . SVG Version: 6.00 Build 0)  -->
<!DOCTYPE svg PUBLIC "-//W3C//DTD SVG 1.1//EN" "http://www.w3.org/Graphics/SVG/1.1/DTD/svg11.dtd" [
	<!ENTITY ns_extend "http://ns.adobe.com/Extensibility/1.0/">
	<!ENTITY ns_ai "http://ns.adobe.com/AdobeIllustrator/10.0/">
	<!ENTITY ns_graphs "http://ns.adobe.com/Graphs/1.0/">
	<!ENTITY ns_vars "http://ns.adobe.com/Variables/1.0/">
	<!ENTITY ns_imrep "http://ns.adobe.com/ImageReplacement/1.0/">
	<!ENTITY ns_sfw "http://ns.adobe.com/SaveForWeb/1.0/">
	<!ENTITY ns_custom "http://ns.adobe.com/GenericCustomNamespace/1.0/">
	<!ENTITY ns_adobe_xpath "http://ns.adobe.com/XPath/1.0/">
]>
<svg version="1.1" id="Layer_1" xmlns:x="&ns_extend;" xmlns:i="&ns_ai;" xmlns:graph="&ns_graphs;"
	 xmlns="http://www.w3.org/2000/svg" xmlns:xlink="http://www.w3.org/1999/xlink" x="0px" y="0px" width="24px" height="24px"
	 viewBox="0 0 24 24" enable-background="new 0 0 24 24" xml:space="preserve">
<metadata>
	<sfw  xmlns="&ns_sfw;">
		<slices></slices>
		<sliceSourceBounds  width="505" height="984" bottomLeftOrigin="true" x="0" y="-984"></sliceSourceBounds>
	</sfw>
</metadata>
<g>
	<g>
		<g>
			<path d="M23,10H1c-0.6,0-1-0.4-1-1V1c0-0.6,0.4-1,1-1h5c0.6,0,1,0.4,1,1S6.6,2,6,2H2v6h20V2H10C9.4,2,9,1.6,9,1s0.4-1,1-1h13
				c0.6,0,1,0.4,1,1v8C24,9.6,23.6,10,23,10z"/>
		</g>
	</g>
	<g>
		<g>
			<path d="M23,14H1c-0.6,0-1-0.4-1-1V9c0-0.6,0.4-1,1-1h22c0.6,0,1,0.4,1,1v4C24,13.6,23.6,14,23,14z M2,12h20v-2H2V12z"/>
		</g>
	</g>
	<g>
		<g>
			<path d="M12,24L12,24c-1.7,0-3-1.3-3-3v-8c0-0.6,0.4-1,1-1h4c0.6,0,1,0.4,1,1v8C15,22.7,13.7,24,12,24z M11,14v7c0,0.5,0.4,1,1,1
				h0c0.5,0,1-0.4,1-1v-7H11z"/>
		</g>
	</g>
	<g>
		<g>
			<path d="M8,5C7.7,5,7.4,4.8,7.2,4.6l-2-3C4.9,1.1,5,0.5,5.4,0.2C5.9-0.1,6.5,0,6.8,0.4l2,3C9.1,3.9,9,4.5,8.6,4.8
				C8.4,4.9,8.2,5,8,5z"/>
		</g>
	</g>
	<g>
		<g>
			<path d="M8,5C7.8,5,7.6,4.9,7.4,4.8C7,4.5,6.9,3.9,7.2,3.4l2-3c0.3-0.5,0.9-0.6,1.4-0.3c0.5,0.3,0.6,0.9,0.3,1.4l-2,3
				C8.6,4.8,8.3,5,8,5z"/>
		</g>
	</g>
	<g>
		<g>
			<path d="M8,10c-0.6,0-1-0.4-1-1V4c0-0.6,0.4-1,1-1s1,0.4,1,1v5C9,9.6,8.6,10,8,10z"/>
		</g>
	</g>
	<g>
		<g>
			<path d="M13,10c-0.6,0-1-0.4-1-1V1c0-0.6,0.4-1,1-1s1,0.4,1,1v8C14,9.6,13.6,10,13,10z"/>
		</g>
	</g>
	<g>
		<g>
			<path d="M16,10c-0.6,0-1-0.4-1-1V1c0-0.6,0.4-1,1-1s1,0.4,1,1v8C17,9.6,16.6,10,16,10z"/>
		</g>
	</g>
	<g>
		<g>
			<path d="M20,10c-0.6,0-1-0.4-1-1V1c0-0.6,0.4-1,1-1s1,0.4,1,1v8C21,9.6,20.6,10,20,10z"/>
		</g>
	</g>
</g>
</svg>
