<?xml version="1.0" encoding="utf-8"?>
<!-- Generator: Adobe Illustrator 18.1.0, SVG Export Plug-In . SVG Version: 6.00 Build 0)  -->
<!DOCTYPE svg PUBLIC "-//W3C//DTD SVG 1.1//EN" "http://www.w3.org/Graphics/SVG/1.1/DTD/svg11.dtd" [
	<!ENTITY ns_extend "http://ns.adobe.com/Extensibility/1.0/">
	<!ENTITY ns_ai "http://ns.adobe.com/AdobeIllustrator/10.0/">
	<!ENTITY ns_graphs "http://ns.adobe.com/Graphs/1.0/">
	<!ENTITY ns_vars "http://ns.adobe.com/Variables/1.0/">
	<!ENTITY ns_imrep "http://ns.adobe.com/ImageReplacement/1.0/">
	<!ENTITY ns_sfw "http://ns.adobe.com/SaveForWeb/1.0/">
	<!ENTITY ns_custom "http://ns.adobe.com/GenericCustomNamespace/1.0/">
	<!ENTITY ns_adobe_xpath "http://ns.adobe.com/XPath/1.0/">
]>
<svg version="1.1" id="Layer_1" xmlns:x="&ns_extend;" xmlns:i="&ns_ai;" xmlns:graph="&ns_graphs;"
	 xmlns="http://www.w3.org/2000/svg" xmlns:xlink="http://www.w3.org/1999/xlink" x="0px" y="0px" width="24px" height="24px"
	 viewBox="0 0 24 24" enable-background="new 0 0 24 24" xml:space="preserve">
<metadata>
	<sfw  xmlns="&ns_sfw;">
		<slices></slices>
		<sliceSourceBounds  width="505" height="984" bottomLeftOrigin="true" x="0" y="-552"></sliceSourceBounds>
	</sfw>
</metadata>
<g>
	<g>
		<g>
			<path stroke="#2D2D2D" stroke-width="2" stroke-linecap="round" stroke-linejoin="round" stroke-miterlimit="10" d="M12.2,11.6"
				/>
		</g>
	</g>
	<g>
		<g>
			<g>
				<path d="M18,23.2c-1.4,0-3-0.4-4.8-1.3c-2.2-1.1-4.4-2.7-6.5-4.8c-2-2-3.7-4.3-4.8-6.5c-1.7-3.5-1.8-6.4-0.1-8
					c0.4-0.4,1-0.4,1.4,0s0.4,1,0,1.4c-1,1-0.8,3.2,0.5,5.8c1,2,2.5,4.1,4.4,6s4,3.4,6,4.4c2.6,1.3,4.8,1.5,5.8,0.5
					c0.4-0.4,1-0.4,1.4,0c0.4,0.4,0.4,1,0,1.4C20.5,22.8,19.4,23.2,18,23.2z"/>
			</g>
		</g>
		<g>
			<g>
				<path d="M7.8,10.7c-0.4,0-0.7-0.2-0.9-0.6C6.6,9.6,6.8,9,7.3,8.8l2.3-1.1c0.4-0.2,0.9-0.7,0.8-1.3c0-0.3-0.2-0.5-0.4-0.7
					L6.7,2.3C6.4,2,5.9,1.9,5.4,2C5.2,2.1,5,2.2,4.8,2.3L3.2,4c-0.4,0.4-1,0.4-1.4,0s-0.4-1,0-1.4l1.6-1.6c0.4-0.4,0.9-0.7,1.4-0.8
					c1.2-0.3,2.4,0,3.3,0.8l3.3,3.3c0.5,0.5,0.8,1.2,0.9,1.9c0.2,1.3-0.6,2.7-1.9,3.4l-2.3,1.1C8.1,10.6,7.9,10.7,7.8,10.7z"/>
			</g>
		</g>
		<g>
			<g>
				<path d="M20.5,22.3c-0.3,0-0.5-0.1-0.7-0.3c-0.4-0.4-0.4-1,0-1.4l1.6-1.6c0.2-0.2,0.3-0.3,0.3-0.6c0.1-0.5,0-1-0.3-1.3l-3.3-3.3
					c-0.2-0.2-0.5-0.3-0.7-0.4c-0.6-0.1-1.1,0.3-1.3,0.8L15,16.5c-0.2,0.5-0.8,0.7-1.3,0.4c-0.5-0.2-0.7-0.8-0.4-1.3l1.1-2.3
					c0.7-1.3,2-2.1,3.4-1.9c0.7,0.1,1.3,0.4,1.8,0.9l3.3,3.3c0.9,0.9,1.2,2.1,0.8,3.3c-0.2,0.5-0.4,1-0.8,1.4L21.2,22
					C21,22.2,20.8,22.3,20.5,22.3z"/>
			</g>
		</g>
		<g>
			<g>
				<path d="M14.1,17c-0.2,0-0.4-0.1-0.6-0.2c-1.2-0.9-2.4-1.9-3.6-3c-1.2-1.2-2.2-2.4-3-3.6C6.6,9.8,6.7,9.2,7.2,8.8
					c0.5-0.3,1.1-0.2,1.4,0.2c0.8,1.1,1.7,2.3,2.8,3.3s2.2,2,3.3,2.8c0.5,0.3,0.6,0.9,0.2,1.4C14.8,16.9,14.5,17,14.1,17z"/>
			</g>
		</g>
	</g>
</g>
</svg>
