<?xml version="1.0" encoding="utf-8"?>
<!-- Generator: Adobe Illustrator 18.1.0, SVG Export Plug-In . SVG Version: 6.00 Build 0)  -->
<!DOCTYPE svg PUBLIC "-//W3C//DTD SVG 1.1//EN" "http://www.w3.org/Graphics/SVG/1.1/DTD/svg11.dtd" [
	<!ENTITY ns_extend "http://ns.adobe.com/Extensibility/1.0/">
	<!ENTITY ns_ai "http://ns.adobe.com/AdobeIllustrator/10.0/">
	<!ENTITY ns_graphs "http://ns.adobe.com/Graphs/1.0/">
	<!ENTITY ns_vars "http://ns.adobe.com/Variables/1.0/">
	<!ENTITY ns_imrep "http://ns.adobe.com/ImageReplacement/1.0/">
	<!ENTITY ns_sfw "http://ns.adobe.com/SaveForWeb/1.0/">
	<!ENTITY ns_custom "http://ns.adobe.com/GenericCustomNamespace/1.0/">
	<!ENTITY ns_adobe_xpath "http://ns.adobe.com/XPath/1.0/">
]>
<svg version="1.1" id="Layer_1" xmlns:x="&ns_extend;" xmlns:i="&ns_ai;" xmlns:graph="&ns_graphs;"
	 xmlns="http://www.w3.org/2000/svg" xmlns:xlink="http://www.w3.org/1999/xlink" x="0px" y="0px" width="24px" height="24px"
	 viewBox="0 0 24 24" enable-background="new 0 0 24 24" xml:space="preserve">
<metadata>
	<sfw  xmlns="&ns_sfw;">
		<slices></slices>
		<sliceSourceBounds  width="505" height="984" bottomLeftOrigin="true" x="0" y="-552"></sliceSourceBounds>
	</sfw>
</metadata>
<g>
	<g>
		<g>
			<path d="M9.1,17H8.9C5.1,17,2,13.9,2,10.1V6c0-0.6,0.4-1,1-1h12c0.6,0,1,0.4,1,1v4.1C16,13.9,12.9,17,9.1,17z M4,7v3.1
				C4,12.8,6.2,15,8.9,15h0.1c2.7,0,4.9-2.2,4.9-4.9V7H4z"/>
		</g>
	</g>
	<g>
		<g>
			<path d="M6,7C5.4,7,5,6.6,5,6V1c0-0.6,0.4-1,1-1s1,0.4,1,1v5C7,6.6,6.6,7,6,7z"/>
		</g>
	</g>
	<g>
		<g>
			<path d="M12,7c-0.6,0-1-0.4-1-1V1c0-0.6,0.4-1,1-1s1,0.4,1,1v5C13,6.6,12.6,7,12,7z"/>
		</g>
	</g>
	<g>
		<g>
			<path d="M15,24c-5.5,0-7-5.2-7.1-8c0-0.6,0.4-1,1-1c0,0,0,0,0,0c0.5,0,1,0.4,1,1l0,0c0,0.2,0.1,6,5.1,6c4.9,0,5-5.8,5-6V9
				c0-0.6,0.4-1,1-1s1,0.4,1,1v7C22,18.8,20.5,24,15,24z"/>
		</g>
	</g>
</g>
</svg>
