<?xml version="1.0" encoding="utf-8"?>
<!-- Generator: Adobe Illustrator 18.1.0, SVG Export Plug-In . SVG Version: 6.00 Build 0)  -->
<!DOCTYPE svg PUBLIC "-//W3C//DTD SVG 1.1//EN" "http://www.w3.org/Graphics/SVG/1.1/DTD/svg11.dtd" [
	<!ENTITY ns_extend "http://ns.adobe.com/Extensibility/1.0/">
	<!ENTITY ns_ai "http://ns.adobe.com/AdobeIllustrator/10.0/">
	<!ENTITY ns_graphs "http://ns.adobe.com/Graphs/1.0/">
	<!ENTITY ns_vars "http://ns.adobe.com/Variables/1.0/">
	<!ENTITY ns_imrep "http://ns.adobe.com/ImageReplacement/1.0/">
	<!ENTITY ns_sfw "http://ns.adobe.com/SaveForWeb/1.0/">
	<!ENTITY ns_custom "http://ns.adobe.com/GenericCustomNamespace/1.0/">
	<!ENTITY ns_adobe_xpath "http://ns.adobe.com/XPath/1.0/">
]>
<svg version="1.1" id="Layer_1" xmlns:x="&ns_extend;" xmlns:i="&ns_ai;" xmlns:graph="&ns_graphs;"
	 xmlns="http://www.w3.org/2000/svg" xmlns:xlink="http://www.w3.org/1999/xlink" x="0px" y="0px" width="24px" height="24px"
	 viewBox="0 0 24 24" enable-background="new 0 0 24 24" xml:space="preserve">
<metadata>
	<sfw  xmlns="&ns_sfw;">
		<slices></slices>
		<sliceSourceBounds  width="505" height="984" bottomLeftOrigin="true" x="0" y="-552"></sliceSourceBounds>
	</sfw>
</metadata>
<g>
	<g>
		<g>
			<path d="M22,18h-6c-0.3,0-0.6-0.1-0.8-0.4L7.5,8H1C0.4,8,0,7.6,0,7s0.4-1,1-1h7c0.3,0,0.6,0.1,0.8,0.4l7.7,9.6H22
				c0.6,0,1,0.4,1,1S22.6,18,22,18z"/>
		</g>
	</g>
	<g>
		<g>
			<path d="M23,18c-0.3,0-0.5-0.1-0.7-0.3l-3-3c-0.4-0.4-0.4-1,0-1.4s1-0.4,1.4,0l3,3c0.4,0.4,0.4,1,0,1.4C23.5,17.9,23.3,18,23,18z
				"/>
		</g>
	</g>
	<g>
		<g>
			<path d="M20,21c-0.3,0-0.5-0.1-0.7-0.3c-0.4-0.4-0.4-1,0-1.4l3-3c0.4-0.4,1-0.4,1.4,0s0.4,1,0,1.4l-3,3C20.5,20.9,20.3,21,20,21z
				"/>
		</g>
	</g>
	<g>
		<g>
			<path d="M8,18H1c-0.6,0-1-0.4-1-1s0.4-1,1-1h6.5l7.7-9.6C15.4,6.1,15.7,6,16,6h6c0.6,0,1,0.4,1,1s-0.4,1-1,1h-5.5l-7.7,9.6
				C8.6,17.9,8.3,18,8,18z"/>
		</g>
	</g>
	<g>
		<g>
			<path d="M20,11c-0.3,0-0.5-0.1-0.7-0.3c-0.4-0.4-0.4-1,0-1.4l3-3c0.4-0.4,1-0.4,1.4,0s0.4,1,0,1.4l-3,3C20.5,10.9,20.3,11,20,11z
				"/>
		</g>
	</g>
	<g>
		<g>
			<path d="M23,8c-0.3,0-0.5-0.1-0.7-0.3l-3-3c-0.4-0.4-0.4-1,0-1.4s1-0.4,1.4,0l3,3c0.4,0.4,0.4,1,0,1.4C23.5,7.9,23.3,8,23,8z"/>
		</g>
	</g>
</g>
</svg>
