<?xml version="1.0" encoding="utf-8"?>
<!-- Generator: Adobe Illustrator 18.1.0, SVG Export Plug-In . SVG Version: 6.00 Build 0)  -->
<!DOCTYPE svg PUBLIC "-//W3C//DTD SVG 1.1//EN" "http://www.w3.org/Graphics/SVG/1.1/DTD/svg11.dtd" [
	<!ENTITY ns_extend "http://ns.adobe.com/Extensibility/1.0/">
	<!ENTITY ns_ai "http://ns.adobe.com/AdobeIllustrator/10.0/">
	<!ENTITY ns_graphs "http://ns.adobe.com/Graphs/1.0/">
	<!ENTITY ns_vars "http://ns.adobe.com/Variables/1.0/">
	<!ENTITY ns_imrep "http://ns.adobe.com/ImageReplacement/1.0/">
	<!ENTITY ns_sfw "http://ns.adobe.com/SaveForWeb/1.0/">
	<!ENTITY ns_custom "http://ns.adobe.com/GenericCustomNamespace/1.0/">
	<!ENTITY ns_adobe_xpath "http://ns.adobe.com/XPath/1.0/">
]>
<svg version="1.1" id="Layer_1" xmlns:x="&ns_extend;" xmlns:i="&ns_ai;" xmlns:graph="&ns_graphs;"
	 xmlns="http://www.w3.org/2000/svg" xmlns:xlink="http://www.w3.org/1999/xlink" x="0px" y="0px" width="24px" height="24px"
	 viewBox="0 0 24 24" enable-background="new 0 0 24 24" xml:space="preserve">
<metadata>
	<sfw  xmlns="&ns_sfw;">
		<slices></slices>
		<sliceSourceBounds  width="505" height="984" bottomLeftOrigin="true" x="0" y="-552"></sliceSourceBounds>
	</sfw>
</metadata>
<g>
	<g>
		<g>
			<path d="M12,24C5.4,24,0,18.6,0,12S5.4,0,12,0s12,5.4,12,12S18.6,24,12,24z M12,2C6.5,2,2,6.5,2,12s4.5,10,10,10s10-4.5,10-10
				S17.5,2,12,2z"/>
		</g>
	</g>
	<g>
		<g>
			<path d="M7,13c-1.7,0-3-1.3-3-3s1.3-3,3-3s3,1.3,3,3S8.7,13,7,13z M7,9c-0.6,0-1,0.4-1,1s0.4,1,1,1s1-0.4,1-1S7.6,9,7,9z"/>
		</g>
	</g>
	<g>
		<g>
			<path d="M17,13c-1.7,0-3-1.3-3-3s1.3-3,3-3s3,1.3,3,3S18.7,13,17,13z M17,9c-0.6,0-1,0.4-1,1s0.4,1,1,1s1-0.4,1-1S17.6,9,17,9z"
				/>
		</g>
	</g>
	<g>
		<g>
			<path d="M12,20c-2.4,0-4.7-1.1-6.2-2.9c-0.3-0.4-0.3-1.1,0.1-1.4c0.4-0.3,1.1-0.3,1.4,0.1C8.5,17.2,10.2,18,12,18
				s3.5-0.8,4.6-2.2c0.3-0.4,1-0.5,1.4-0.1c0.4,0.3,0.5,1,0.1,1.4C16.7,18.9,14.4,20,12,20z"/>
		</g>
	</g>
</g>
</svg>
