<?xml version="1.0" encoding="utf-8"?>
<!-- Generator: Adobe Illustrator 18.1.0, SVG Export Plug-In . SVG Version: 6.00 Build 0)  -->
<!DOCTYPE svg PUBLIC "-//W3C//DTD SVG 1.1//EN" "http://www.w3.org/Graphics/SVG/1.1/DTD/svg11.dtd" [
	<!ENTITY ns_extend "http://ns.adobe.com/Extensibility/1.0/">
	<!ENTITY ns_ai "http://ns.adobe.com/AdobeIllustrator/10.0/">
	<!ENTITY ns_graphs "http://ns.adobe.com/Graphs/1.0/">
	<!ENTITY ns_vars "http://ns.adobe.com/Variables/1.0/">
	<!ENTITY ns_imrep "http://ns.adobe.com/ImageReplacement/1.0/">
	<!ENTITY ns_sfw "http://ns.adobe.com/SaveForWeb/1.0/">
	<!ENTITY ns_custom "http://ns.adobe.com/GenericCustomNamespace/1.0/">
	<!ENTITY ns_adobe_xpath "http://ns.adobe.com/XPath/1.0/">
]>
<svg version="1.1" id="Layer_1" xmlns:x="&ns_extend;" xmlns:i="&ns_ai;" xmlns:graph="&ns_graphs;"
	 xmlns="http://www.w3.org/2000/svg" xmlns:xlink="http://www.w3.org/1999/xlink" x="0px" y="0px" width="24px" height="24px"
	 viewBox="0 0 24 24" enable-background="new 0 0 24 24" xml:space="preserve">
<metadata>
	<sfw  xmlns="&ns_sfw;">
		<slices></slices>
		<sliceSourceBounds  width="505" height="984" bottomLeftOrigin="true" x="0" y="-120"></sliceSourceBounds>
	</sfw>
</metadata>
<g>
	<g>
		<g>
			<path d="M9,19c-0.3,0-0.5-0.1-0.7-0.3l-3-3c-0.4-0.4-0.4-1,0-1.4l11-11c0.4-0.4,1-0.4,1.4,0l3,3c0.4,0.4,0.4,1,0,1.4l-11,11
				C9.5,18.9,9.3,19,9,19z M7.4,15L9,16.6L18.6,7L17,5.4L7.4,15z"/>
		</g>
	</g>
	<g>
		<g>
			<path d="M22,10c-0.3,0-0.5-0.1-0.7-0.3l-7-7c-0.4-0.4-0.4-1,0-1.4s1-0.4,1.4,0l7,7c0.4,0.4,0.4,1,0,1.4C22.5,9.9,22.3,10,22,10z"
				/>
		</g>
	</g>
	<g>
		<g>
			<path d="M23,6c-0.3,0-0.5-0.1-0.7-0.3l-4-4c-0.4-0.4-0.4-1,0-1.4s1-0.4,1.4,0l4,4c0.4,0.4,0.4,1,0,1.4C23.5,5.9,23.3,6,23,6z"/>
		</g>
	</g>
	<g>
		<g>
			<path d="M1,24c-0.3,0-0.5-0.1-0.7-0.3c-0.4-0.4-0.4-1,0-1.4l6.5-6.5c0.4-0.4,1-0.4,1.4,0s0.4,1,0,1.4l-6.5,6.5
				C1.5,23.9,1.3,24,1,24z"/>
		</g>
	</g>
	<g>
		<g>
			<path d="M18.5,6.5c-0.3,0-0.5-0.1-0.7-0.3c-0.4-0.4-0.4-1,0-1.4l2.5-2.5c0.4-0.4,1-0.4,1.4,0s0.4,1,0,1.4l-2.5,2.5
				C19,6.4,18.8,6.5,18.5,6.5z"/>
		</g>
	</g>
</g>
</svg>
