<?xml version="1.0" encoding="utf-8"?>
<!-- Generator: Adobe Illustrator 18.1.0, SVG Export Plug-In . SVG Version: 6.00 Build 0)  -->
<!DOCTYPE svg PUBLIC "-//W3C//DTD SVG 1.1//EN" "http://www.w3.org/Graphics/SVG/1.1/DTD/svg11.dtd" [
	<!ENTITY ns_extend "http://ns.adobe.com/Extensibility/1.0/">
	<!ENTITY ns_ai "http://ns.adobe.com/AdobeIllustrator/10.0/">
	<!ENTITY ns_graphs "http://ns.adobe.com/Graphs/1.0/">
	<!ENTITY ns_vars "http://ns.adobe.com/Variables/1.0/">
	<!ENTITY ns_imrep "http://ns.adobe.com/ImageReplacement/1.0/">
	<!ENTITY ns_sfw "http://ns.adobe.com/SaveForWeb/1.0/">
	<!ENTITY ns_custom "http://ns.adobe.com/GenericCustomNamespace/1.0/">
	<!ENTITY ns_adobe_xpath "http://ns.adobe.com/XPath/1.0/">
]>
<svg version="1.1" id="Layer_1" xmlns:x="&ns_extend;" xmlns:i="&ns_ai;" xmlns:graph="&ns_graphs;"
	 xmlns="http://www.w3.org/2000/svg" xmlns:xlink="http://www.w3.org/1999/xlink" x="0px" y="0px" width="24px" height="24px"
	 viewBox="0 0 24 24" enable-background="new 0 0 24 24" xml:space="preserve">
<metadata>
	<sfw  xmlns="&ns_sfw;">
		<slices></slices>
		<sliceSourceBounds  width="505" height="984" bottomLeftOrigin="true" x="0" y="-984"></sliceSourceBounds>
	</sfw>
</metadata>
<g>
	<g>
		<g>
			<path d="M12,24c-0.1,0-0.2,0-0.2,0c-0.4-0.1-0.8-0.5-0.8-1v-7.4l-2.6,1.3c-0.3,0.1-0.6,0.1-0.9,0S7.1,16.5,7,16.2l-3-15
				C4,0.9,4,0.6,4.2,0.4C4.4,0.1,4.7,0,5,0h10c0.3,0,0.6,0.1,0.8,0.4C16,0.6,16,0.9,16,1.2l-1.6,7.4L19.7,7c0.4-0.1,0.8,0,1.1,0.3
				c0.3,0.3,0.3,0.7,0.1,1.1l-8,15C12.7,23.8,12.4,24,12,24z M12,13c0.2,0,0.4,0.1,0.5,0.1c0.3,0.2,0.5,0.5,0.5,0.9v5l5-9.4L13.3,11
				c-0.3,0.1-0.7,0-1-0.2c-0.3-0.2-0.4-0.6-0.3-0.9L13.8,2H6.2l2.5,12.5l2.8-1.4C11.7,13,11.8,13,12,13z"/>
		</g>
	</g>
</g>
</svg>
