<?xml version="1.0" encoding="utf-8"?>
<!-- Generator: Adobe Illustrator 18.1.0, SVG Export Plug-In . SVG Version: 6.00 Build 0)  -->
<!DOCTYPE svg PUBLIC "-//W3C//DTD SVG 1.1//EN" "http://www.w3.org/Graphics/SVG/1.1/DTD/svg11.dtd" [
	<!ENTITY ns_extend "http://ns.adobe.com/Extensibility/1.0/">
	<!ENTITY ns_ai "http://ns.adobe.com/AdobeIllustrator/10.0/">
	<!ENTITY ns_graphs "http://ns.adobe.com/Graphs/1.0/">
	<!ENTITY ns_vars "http://ns.adobe.com/Variables/1.0/">
	<!ENTITY ns_imrep "http://ns.adobe.com/ImageReplacement/1.0/">
	<!ENTITY ns_sfw "http://ns.adobe.com/SaveForWeb/1.0/">
	<!ENTITY ns_custom "http://ns.adobe.com/GenericCustomNamespace/1.0/">
	<!ENTITY ns_adobe_xpath "http://ns.adobe.com/XPath/1.0/">
]>
<svg version="1.1" id="Layer_1" xmlns:x="&ns_extend;" xmlns:i="&ns_ai;" xmlns:graph="&ns_graphs;"
	 xmlns="http://www.w3.org/2000/svg" xmlns:xlink="http://www.w3.org/1999/xlink" x="0px" y="0px" width="24px" height="24px"
	 viewBox="0 0 24 24" enable-background="new 0 0 24 24" xml:space="preserve">
<metadata>
	<sfw  xmlns="&ns_sfw;">
		<slices></slices>
		<sliceSourceBounds  width="505" height="984" bottomLeftOrigin="true" x="0" y="-120"></sliceSourceBounds>
	</sfw>
</metadata>
<g>
	<g>
		<g>
			<path d="M14,6h-4C9.6,6,9.3,5.8,9.1,5.4l-2-4C7,1.1,7,0.8,7.1,0.5S7.7,0,8,0h8c0.3,0,0.7,0.2,0.9,0.5s0.2,0.7,0,1l-2,4
				C14.7,5.8,14.4,6,14,6z M10.6,4h2.8l1-2H9.6L10.6,4z"/>
		</g>
	</g>
	<g>
		<g>
			<path d="M17,19c-0.5,0-0.9-0.3-1-0.8L13.2,6h-2.4L8,18.2c-0.1,0.5-0.7,0.9-1.2,0.8c-0.5-0.1-0.9-0.7-0.8-1.2l3-13
				C9.1,4.3,9.5,4,10,4h4c0.5,0,0.9,0.3,1,0.8l3,13c0.1,0.5-0.2,1.1-0.8,1.2C17.1,19,17.1,19,17,19z"/>
		</g>
	</g>
	<g>
		<g>
			<path d="M12,24c-0.3,0-0.5-0.1-0.7-0.3l-5-5c-0.4-0.4-0.4-1,0-1.4s1-0.4,1.4,0l4.3,4.3l4.3-4.3c0.4-0.4,1-0.4,1.4,0s0.4,1,0,1.4
				l-5,5C12.5,23.9,12.3,24,12,24z"/>
		</g>
	</g>
</g>
</svg>
