<?xml version="1.0" encoding="utf-8"?>
<!-- Generator: Adobe Illustrator 18.1.0, SVG Export Plug-In . SVG Version: 6.00 Build 0)  -->
<!DOCTYPE svg PUBLIC "-//W3C//DTD SVG 1.1//EN" "http://www.w3.org/Graphics/SVG/1.1/DTD/svg11.dtd" [
	<!ENTITY ns_extend "http://ns.adobe.com/Extensibility/1.0/">
	<!ENTITY ns_ai "http://ns.adobe.com/AdobeIllustrator/10.0/">
	<!ENTITY ns_graphs "http://ns.adobe.com/Graphs/1.0/">
	<!ENTITY ns_vars "http://ns.adobe.com/Variables/1.0/">
	<!ENTITY ns_imrep "http://ns.adobe.com/ImageReplacement/1.0/">
	<!ENTITY ns_sfw "http://ns.adobe.com/SaveForWeb/1.0/">
	<!ENTITY ns_custom "http://ns.adobe.com/GenericCustomNamespace/1.0/">
	<!ENTITY ns_adobe_xpath "http://ns.adobe.com/XPath/1.0/">
]>
<svg version="1.1" id="Layer_1" xmlns:x="&ns_extend;" xmlns:i="&ns_ai;" xmlns:graph="&ns_graphs;"
	 xmlns="http://www.w3.org/2000/svg" xmlns:xlink="http://www.w3.org/1999/xlink" x="0px" y="0px" width="24px" height="24px"
	 viewBox="0 0 24 24" enable-background="new 0 0 24 24" xml:space="preserve">
<metadata>
	<sfw  xmlns="&ns_sfw;">
		<slices></slices>
		<sliceSourceBounds  width="505" height="984" bottomLeftOrigin="true" x="0" y="-984"></sliceSourceBounds>
	</sfw>
</metadata>
<g>
	<g>
		<g>
			<path d="M12,13c-0.9,0-1.7-0.3-2.4-0.7C7.9,11.2,7,8.9,7,6c0-2.8,2.2-5,5-5s5,2.2,5,5c0,2.9-0.9,5.2-2.6,6.3
				C13.7,12.7,12.9,13,12,13z M12,3c-1.7,0-3,1.3-3,3c0,2.2,0.6,3.9,1.7,4.6c0.8,0.5,1.8,0.5,2.6,0C14.4,9.9,15,8.2,15,6
				C15,4.3,13.7,3,12,3z"/>
		</g>
	</g>
	<g>
		<g>
			<path d="M12,23c-2.3,0-10-0.3-10-4c0-3.7,2.7-5,5.7-5.9C7.9,13,8.7,12.7,9,11.2l2,0.4c-0.3,1.8-1.3,2.9-2.7,3.4
				C5.3,16,4,16.8,4,19c0,1.1,4.2,2,8,2c3.8,0,8-0.9,8-2c0-2.2-1.3-3-4.3-4.1c-1.4-0.5-2.3-1.6-2.7-3.4l2-0.4
				c0.3,1.5,1.1,1.8,1.4,1.9c3,1,5.7,2.2,5.7,5.9C22,19.9,21.3,23,12,23z"/>
		</g>
	</g>
</g>
</svg>
