<?xml version="1.0" encoding="utf-8"?>
<!-- Generated by IcoMoon.io -->
<!DOCTYPE svg PUBLIC "-//W3C//DTD SVG 1.1//EN" "http://www.w3.org/Graphics/SVG/1.1/DTD/svg11.dtd">
<svg version="1.1" xmlns="http://www.w3.org/2000/svg" xmlns:xlink="http://www.w3.org/1999/xlink" width="32" height="32" viewBox="0 0 32 32">
<g id="icomoon-ignore">
</g>
<path d="M15.992 5.872c-6.479 0-11.729 5.251-11.729 11.729 0 2.939 1.084 5.625 2.872 7.683l-2.744 3.363 0.826 0.674 2.659-3.258c2.107 2.021 4.965 3.265 8.116 3.265 3.158 0 6.023-1.251 8.132-3.281l2.657 3.278 0.829-0.672-2.746-3.387c1.778-2.056 2.857-4.735 2.857-7.666 0-6.478-5.252-11.729-11.729-11.729zM15.992 28.262c-5.88 0-10.662-4.782-10.662-10.661 0-5.88 4.783-10.662 10.662-10.662s10.663 4.783 10.663 10.662c0 5.879-4.783 10.661-10.662 10.661z" fill="#000000"></path>
<path d="M11.171 2.672h-3.168c-2.945 0-5.331 2.387-5.331 5.331v3.208h1.516l6.983-7.022v-1.517zM10.104 3.75l-6.366 6.395v-2.142c0-2.351 1.913-4.265 4.265-4.265h2.101v0.011z" fill="#000000"></path>
<path d="M23.997 2.672h-3.17v1.517l6.984 7.022h1.517v-3.208c-0-2.945-2.388-5.331-5.331-5.331zM28.262 10.145h-0.007l-6.361-6.395v-0.011h2.103c2.352 0 4.265 1.914 4.265 4.265v2.142z" fill="#000000"></path>
<path d="M15.467 17.599h-5.878v1.066h6.944v-9.596h-1.066z" fill="#000000"></path>
</svg>
