<?xml version="1.0" encoding="utf-8"?>
<!-- Generated by IcoMoon.io -->
<!DOCTYPE svg PUBLIC "-//W3C//DTD SVG 1.1//EN" "http://www.w3.org/Graphics/SVG/1.1/DTD/svg11.dtd">
<svg version="1.1" xmlns="http://www.w3.org/2000/svg" xmlns:xlink="http://www.w3.org/1999/xlink" width="32" height="32" viewBox="0 0 32 32">
<g id="icomoon-ignore">
</g>
<path d="M15.976 2.656c-7.366 0-13.337 5.97-13.337 13.337s5.97 13.337 13.337 13.337 13.337-5.97 13.337-13.337-5.97-13.337-13.337-13.337zM15.976 28.262c-6.765 0-12.27-5.504-12.27-12.27s5.505-12.27 12.27-12.27 12.27 5.505 12.27 12.27c0 6.765-5.505 12.27-12.27 12.27z" fill="#000000"></path>
<path d="M15.214 19.175l0.754 0.754 6.035-6.035-0.754-0.754-5.281 5.281-5.256-5.256-0.754 0.754 3.013 3.013z" fill="#000000"></path>
</svg>
