<?xml version="1.0" encoding="utf-8"?>
<!-- Generated by IcoMoon.io -->
<!DOCTYPE svg PUBLIC "-//W3C//DTD SVG 1.1//EN" "http://www.w3.org/Graphics/SVG/1.1/DTD/svg11.dtd">
<svg version="1.1" xmlns="http://www.w3.org/2000/svg" xmlns:xlink="http://www.w3.org/1999/xlink" width="32" height="32" viewBox="0 0 32 32">
<g id="icomoon-ignore">
</g>
<path d="M26.129 13.067c-0.737 0-1.44 0.143-2.090 0.392l-2.624-5.189h2.049v-1.066h-3.782l1.078 2.133h-9.236l-0.538-1.066h1.816v-1.066h-3.549l1.199 2.375c-0.006 0.009-0.015 0.016-0.020 0.025l-2.261 3.935c-0.707-0.303-1.484-0.471-2.301-0.471-3.234 0-5.864 2.631-5.864 5.865s2.631 5.864 5.864 5.864c3.053 0 5.567-2.347 5.837-5.331h4.364c0.19 0 0.365-0.101 0.461-0.266l4.923-8.485 1.626 3.215c-1.686 1.031-2.818 2.884-2.818 5.002 0 3.234 2.631 5.865 5.864 5.865s5.864-2.631 5.864-5.865-2.631-5.865-5.864-5.865zM11.024 10.712l3.881 7.687h-3.198c-0.165-1.815-1.158-3.393-2.599-4.352l1.915-3.335zM10.637 18.399h-4.029l1.968-3.426c1.123 0.771 1.902 2.005 2.061 3.426zM5.871 23.73c-2.646 0-4.798-2.152-4.798-4.798s2.152-4.799 4.798-4.799c0.623 0 1.217 0.123 1.763 0.34l-2.409 4.193c-0.095 0.165-0.094 0.368 0.001 0.533s0.271 0.266 0.461 0.266h4.95c-0.267 2.395-2.302 4.265-4.767 4.265zM15.944 18.090l-3.882-7.688h8.344l-4.461 7.688zM26.129 23.731c-2.646 0-4.798-2.153-4.798-4.799 0-1.702 0.893-3.196 2.234-4.048l2.257 4.465 0.952-0.481-2.251-4.451c0.503-0.18 1.042-0.283 1.606-0.283 2.646 0 4.798 2.153 4.798 4.799s-2.152 4.799-4.798 4.799z" fill="#000000"></path>
</svg>
