<?xml version="1.0" encoding="utf-8"?>
<!-- Generated by IcoMoon.io -->
<!DOCTYPE svg PUBLIC "-//W3C//DTD SVG 1.1//EN" "http://www.w3.org/Graphics/SVG/1.1/DTD/svg11.dtd">
<svg version="1.1" xmlns="http://www.w3.org/2000/svg" xmlns:xlink="http://www.w3.org/1999/xlink" width="32" height="32" viewBox="0 0 32 32">
<g id="icomoon-ignore">
</g>
<path d="M26.664 4.82h-21.328c-1.178 0-2.132 0.955-2.132 2.133v13.868c0 1.178 0.955 2.133 2.132 2.133h14.968l4.226 4.226v-4.226h2.134c1.178 0 2.133-0.955 2.133-2.133v-13.868c-0-1.178-0.955-2.133-2.133-2.133zM27.73 20.821c0 0.588-0.479 1.066-1.066 1.066h-3.2v2.718l-2.718-2.718h-15.41c-0.588 0-1.066-0.478-1.066-1.066v-13.868c0-0.588 0.479-1.066 1.066-1.066h21.328c0.588 0 1.066 0.478 1.066 1.066v13.868z" fill="#000000"></path>
<path d="M16 12.824c-0.589 0-1.066 0.478-1.066 1.066s0.477 1.066 1.066 1.066 1.066-0.477 1.066-1.066c0-0.588-0.477-1.066-1.066-1.066z" fill="#000000"></path>
<path d="M20.265 12.824c-0.589 0-1.066 0.478-1.066 1.066s0.477 1.066 1.066 1.066 1.066-0.477 1.066-1.066c0-0.588-0.477-1.066-1.066-1.066z" fill="#000000"></path>
<path d="M11.835 12.824c-0.589 0-1.066 0.478-1.066 1.066s0.477 1.066 1.066 1.066 1.066-0.477 1.066-1.066c0-0.588-0.477-1.066-1.066-1.066z" fill="#000000"></path>
</svg>
