<?xml version="1.0" encoding="utf-8"?>
<!-- Generated by IcoMoon.io -->
<!DOCTYPE svg PUBLIC "-//W3C//DTD SVG 1.1//EN" "http://www.w3.org/Graphics/SVG/1.1/DTD/svg11.dtd">
<svg version="1.1" xmlns="http://www.w3.org/2000/svg" xmlns:xlink="http://www.w3.org/1999/xlink" width="32" height="32" viewBox="0 0 32 32">
<g id="icomoon-ignore">
</g>
<path d="M29.861 22.698v-19.192h-27.723v19.192h13.328v2.062l-5.056 2.8 0.516 0.933 5.073-2.81 5.073 2.81 0.516-0.933-5.056-2.8v-2.062h13.328zM3.205 4.572h25.59v17.060h-25.59v-17.060z" fill="#000000"></path>
<path d="M15.294 15.427l-3.162-4.41-2.116 4.103-3.327-6.713-2.429 8.965 1.029 0.279 1.694-6.25 3.014 6.082 2.284-4.428 3.414 4.761 2.948-9.892-1.021-0.305z" fill="#000000"></path>
<path d="M23.464 9.903c-1.764 0-3.199 1.435-3.199 3.199s1.435 3.199 3.199 3.199c1.763 0 3.198-1.435 3.198-3.199s-1.435-3.199-3.198-3.199zM23.464 15.235c-1.176 0-2.133-0.956-2.133-2.133s0.957-2.133 2.133-2.133c1.176 0 2.132 0.956 2.132 2.133s-0.956 2.133-2.132 2.133z" fill="#000000"></path>
</svg>
