<?xml version="1.0" encoding="utf-8"?>
<!-- Generated by IcoMoon.io -->
<!DOCTYPE svg PUBLIC "-//W3C//DTD SVG 1.1//EN" "http://www.w3.org/Graphics/SVG/1.1/DTD/svg11.dtd">
<svg version="1.1" xmlns="http://www.w3.org/2000/svg" xmlns:xlink="http://www.w3.org/1999/xlink" width="32" height="32" viewBox="0 0 32 32">
<g id="icomoon-ignore">
</g>
<path d="M16.067 11.156c0.883 0 1.599-0.716 1.599-1.599 0-0.884-0.716-1.598-1.599-1.598s-1.599 0.714-1.599 1.598c0 0.883 0.716 1.599 1.599 1.599z" fill="#000000"></path>
<path d="M17.153 13.289v-1.066h-3.199v1.066h1.066v9.063h-1.066v1.066h4.265v-1.066h-1.066z" fill="#000000"></path>
<path d="M16 2.672c-7.361 0-13.328 5.968-13.328 13.328 0 7.362 5.968 13.328 13.328 13.328s13.328-5.966 13.328-13.328c0-7.361-5.968-13.328-13.328-13.328zM16 28.262c-6.761 0-12.262-5.501-12.262-12.262s5.5-12.262 12.262-12.262c6.761 0 12.262 5.501 12.262 12.262s-5.5 12.262-12.262 12.262z" fill="#000000"></path>
</svg>
