<?xml version="1.0" encoding="utf-8"?>
<!-- Generated by IcoMoon.io -->
<!DOCTYPE svg PUBLIC "-//W3C//DTD SVG 1.1//EN" "http://www.w3.org/Graphics/SVG/1.1/DTD/svg11.dtd">
<svg version="1.1" xmlns="http://www.w3.org/2000/svg" xmlns:xlink="http://www.w3.org/1999/xlink" width="32" height="32" viewBox="0 0 32 32">
<g id="icomoon-ignore">
</g>
<path d="M16.001 1.072c5.291 0 9.596 4.305 9.596 9.597 0 1.683-0.446 3.341-1.29 4.799l-8.307 14.394-8.308-14.395c-0.843-1.456-1.289-3.115-1.289-4.798 0-5.292 4.305-9.597 9.597-9.597zM16.001 14.4c2.058 0 3.731-1.674 3.731-3.731s-1.674-3.731-3.731-3.731c-2.058 0-3.732 1.674-3.732 3.731s1.674 3.731 3.732 3.731zM16.001 0.006c-5.889 0-10.663 4.775-10.663 10.663 0 1.945 0.523 3.762 1.432 5.332l9.23 15.994 9.23-15.994c0.909-1.57 1.432-3.387 1.432-5.332 0-5.888-4.774-10.663-10.662-10.663v0zM16.001 13.334c-1.472 0-2.666-1.193-2.666-2.665 0-1.471 1.194-2.665 2.666-2.665s2.665 1.194 2.665 2.665c0 1.472-1.193 2.665-2.665 2.665v0z" fill="#000000"></path>
</svg>
