<?xml version="1.0" encoding="utf-8"?>
<!-- Generated by IcoMoon.io -->
<!DOCTYPE svg PUBLIC "-//W3C//DTD SVG 1.1//EN" "http://www.w3.org/Graphics/SVG/1.1/DTD/svg11.dtd">
<svg version="1.1" xmlns="http://www.w3.org/2000/svg" xmlns:xlink="http://www.w3.org/1999/xlink" width="32" height="32" viewBox="0 0 32 32">
<g id="icomoon-ignore">
</g>
<path d="M30.771 5.802l-4.251-4.251-1.040 1.041-1.456-1.455c-0.208-0.208-0.546-0.208-0.754 0l-8.638 8.639c-0.208 0.208-0.208 0.546 0 0.754 0.104 0.104 0.241 0.156 0.377 0.156s0.273-0.052 0.377-0.156l8.261-8.262 1.079 1.078-18.319 18.318 1.235 1.235c-0.52-0.257-1.086-0.388-1.652-0.388-0.957 0-1.914 0.365-2.644 1.095-0.075 0.074-0.147 0.154-0.216 0.238-0.034 0.040-0.067 0.082-0.098 0.123-0.038 0.047-0.073 0.096-0.107 0.146-0.026 0.036-0.052 0.072-0.076 0.108-1.55 2.331-1.62 6.789-1.62 6.789s0.162 0.008 0.444 0.008c1.281 0 5.010-0.175 6.961-2.126 1.162-1.163 1.396-2.9 0.706-4.297l1.319 1.319 20.113-20.113zM7.879 28.139c-1.19 1.19-3.278 1.6-4.767 1.741l2.427-2.427-0.754-0.754-2.325 2.325c0.189-1.422 0.566-3.146 1.28-4.217l0.030-0.043 0.026-0.037c0.023-0.033 0.047-0.068 0.088-0.12 0.018-0.023 0.035-0.047 0.067-0.084 0.047-0.056 0.095-0.11 0.148-0.163 0.505-0.505 1.176-0.783 1.89-0.783s1.385 0.278 1.89 0.783c1.041 1.042 1.041 2.737 0 3.779zM29.264 5.802l-6.324 6.324-2.744-2.743 6.324-6.324 2.744 2.743zM19.442 10.136l2.744 2.743-11.528 11.528-2.744-2.743 11.528-11.528z" fill="#000000"></path>
</svg>
