<?xml version="1.0" encoding="utf-8"?>
<!-- Generated by IcoMoon.io -->
<!DOCTYPE svg PUBLIC "-//W3C//DTD SVG 1.1//EN" "http://www.w3.org/Graphics/SVG/1.1/DTD/svg11.dtd">
<svg version="1.1" xmlns="http://www.w3.org/2000/svg" xmlns:xlink="http://www.w3.org/1999/xlink" width="27" height="32" viewBox="0 0 27 32">
<g id="icomoon-ignore">
</g>
<path d="M18.804 18.457l-8.268 8.268-0.004-0.005c-0.031 0.032-0.056 0.067-0.088 0.097-2.147 2.147-5.642 2.147-7.789 0-2.085-2.085-2.139-5.435-0.176-7.593l1.103 1.102 1.743-1.742c2.339 1.116 5.221 0.712 7.159-1.225l2.968-2.967 0.742 0.742 0.742-0.742-2.968-2.967 4.451-4.451-0.742-0.742-4.451 4.451-2.967-2.967 4.45-4.451-0.741-0.742-4.451 4.451-2.967-2.967-0.742 0.742 0.742 0.742-2.968 2.967c-1.937 1.937-2.341 4.82-1.224 7.159l-1.743 1.742 1.122 1.123c-2.372 2.568-2.317 6.583 0.176 9.076 2.556 2.557 6.716 2.557 9.272 0l8.361-8.36c1.832-1.832 4.813-1.832 6.645 0l0.742-0.742c-2.241-2.241-5.889-2.241-8.129 0zM4.324 9.2l2.968-2.967 7.417 7.417-2.967 2.967c-2.045 2.045-5.372 2.045-7.418 0s-2.045-5.372-0-7.418zM2.907 16.551c0.202 0.283 0.422 0.555 0.675 0.808s0.527 0.474 0.808 0.675l-0.808 0.808-1.483-1.483 0.808-0.808z" fill="#000000"></path>
</svg>
