<svg width="5.668945" height="21.035156" viewBox="2.036133 -41.733398 5.668945 21.035156" xmlns="http://www.w3.org/2000/svg"><path d="M2.036133 -23.291016C2.036133 -24.091797 2.297363 -24.721680 2.819824 -25.180664C3.342285 -25.639648 4.033203 -25.869141 4.892578 -25.869141C5.732422 -25.869141 6.411133 -25.639648 6.928711 -25.180664C7.446289 -24.721680 7.705078 -24.091797 7.705078 -23.291016C7.705078 -22.490234 7.446289 -21.857910 6.928711 -21.394043C6.411133 -20.930176 5.732422 -20.698242 4.892578 -20.698242C4.033203 -20.698242 3.342285 -20.930176 2.819824 -21.394043C2.297363 -21.857910 2.036133 -22.490234 2.036133 -23.291016ZM2.373047 -41.733398L7.412109 -41.733398L6.958008 -27.392578L2.783203 -27.392578ZM2.373047 -41.733398"></path></svg>