<svg width="17.124023" height="21.723633" viewBox="1.230469 -43.623047 17.124023 21.723633" xmlns="http://www.w3.org/2000/svg"><path d="M1.230469 -28.081055L1.230469 -30.629883L4.804688 -30.629883L5.522461 -34.863281L2.285156 -34.863281L2.285156 -37.412109L5.976562 -37.412109L7.045898 -43.623047L9.814453 -43.623047L8.730469 -37.412109L12.451172 -37.412109L13.564453 -43.623047L16.289062 -43.623047L15.205078 -37.412109L18.354492 -37.412109L18.354492 -34.863281L14.765625 -34.863281L14.033203 -30.629883L17.343750 -30.629883L17.343750 -28.081055L13.593750 -28.081055L12.509766 -21.899414L9.755859 -21.899414L10.825195 -28.081055L7.104492 -28.081055L6.035156 -21.899414L3.266602 -21.899414L4.350586 -28.081055ZM7.558594 -30.629883L11.279297 -30.629883L11.997070 -34.863281L8.276367 -34.863281ZM7.558594 -30.629883"></path></svg>