<svg width="14.033203" height="26.191406" viewBox="1.860352 -49.526367 14.033203 26.191406" xmlns="http://www.w3.org/2000/svg"><path d="M1.860352 -30.029297L3.383789 -30.805664C3.588867 -29.799805 4.033203 -28.977051 4.716797 -28.337402C5.400391 -27.697754 6.250000 -27.373047 7.265625 -27.363281L8.671875 -36.298828C7.470703 -36.943359 6.660156 -37.421875 6.240234 -37.734375C5.146484 -38.583984 4.575195 -39.653320 4.526367 -40.942383C4.526367 -41.010742 4.526367 -41.074219 4.526367 -41.132812C4.526367 -42.773438 5.083008 -44.157715 6.196289 -45.285645C7.309570 -46.413574 8.715820 -47.050781 10.415039 -47.197266L10.766602 -49.526367L12.172852 -49.526367L11.791992 -47.197266C13.813477 -47.021484 15.180664 -46.010742 15.893555 -44.165039L14.545898 -43.227539C14.311523 -43.940430 13.937988 -44.526367 13.425293 -44.985352C12.912598 -45.444336 12.299805 -45.708008 11.586914 -45.776367L10.253906 -37.470703C11.494141 -36.816406 12.304688 -36.347656 12.685547 -36.064453C13.750000 -35.292969 14.360352 -34.331055 14.516602 -33.178711C14.555664 -32.934570 14.575195 -32.675781 14.575195 -32.402344C14.575195 -30.703125 13.984375 -29.230957 12.802734 -27.985840C11.621094 -26.740723 10.161133 -26.044922 8.422852 -25.898438L8.012695 -23.334961L6.635742 -23.334961L7.016602 -25.854492C5.708008 -25.854492 4.597168 -26.228027 3.684082 -26.975098C2.770996 -27.722168 2.163086 -28.740234 1.860352 -30.029297ZM6.152344 -41.455078C6.152344 -41.113281 6.210938 -40.788574 6.328125 -40.480957C6.445312 -40.173340 6.577148 -39.919434 6.723633 -39.719238C6.870117 -39.519043 7.092285 -39.304199 7.390137 -39.074707C7.687988 -38.845215 7.932129 -38.671875 8.122559 -38.554688C8.312988 -38.437500 8.593750 -38.276367 8.964844 -38.071289L10.166016 -45.776367C9.023438 -45.659180 8.068848 -45.197754 7.302246 -44.392090C6.535645 -43.586426 6.152344 -42.607422 6.152344 -41.455078ZM8.671875 -27.363281C9.443359 -27.412109 10.156250 -27.666016 10.810547 -28.125000C11.464844 -28.583984 11.977539 -29.165039 12.348633 -29.868164C12.719727 -30.571289 12.905273 -31.303711 12.905273 -32.065430C12.905273 -32.290039 12.885742 -32.504883 12.846680 -32.709961C12.807617 -32.915039 12.768555 -33.095703 12.729492 -33.251953C12.690430 -33.408203 12.609863 -33.569336 12.487793 -33.735352C12.365723 -33.901367 12.272949 -34.033203 12.209473 -34.130859C12.145996 -34.228516 12.021484 -34.350586 11.835938 -34.497070C11.650391 -34.643555 11.520996 -34.746094 11.447754 -34.804688C11.374512 -34.863281 11.215820 -34.963379 10.971680 -35.104980C10.727539 -35.246582 10.568848 -35.336914 10.495605 -35.375977C10.422363 -35.415039 10.244141 -35.512695 9.960938 -35.668945ZM8.671875 -27.363281"></path></svg>