<svg width="21.518555" height="21.870117" viewBox="0.922852 -43.051758 21.518555 21.870117" xmlns="http://www.w3.org/2000/svg"><path d="M0.922852 -37.734375C0.922852 -39.199219 1.381836 -40.395508 2.299805 -41.323242C3.217773 -42.250977 4.389648 -42.714844 5.815430 -42.714844C7.241211 -42.714844 8.413086 -42.250977 9.331055 -41.323242C10.249023 -40.395508 10.708008 -39.199219 10.708008 -37.734375C10.708008 -36.259766 10.249023 -35.056152 9.331055 -34.123535C8.413086 -33.190918 7.241211 -32.724609 5.815430 -32.724609C4.389648 -32.724609 3.217773 -33.190918 2.299805 -34.123535C1.381836 -35.056152 0.922852 -36.259766 0.922852 -37.734375ZM3.032227 -37.734375C3.032227 -36.816406 3.283691 -36.071777 3.786621 -35.500488C4.289551 -34.929199 4.965820 -34.643555 5.815430 -34.643555C6.665039 -34.643555 7.343750 -34.931641 7.851562 -35.507812C8.359375 -36.083984 8.613281 -36.826172 8.613281 -37.734375C8.613281 -38.662109 8.359375 -39.414062 7.851562 -39.990234C7.343750 -40.566406 6.665039 -40.854492 5.815430 -40.854492C4.965820 -40.854492 4.289551 -40.566406 3.786621 -39.990234C3.283691 -39.414062 3.032227 -38.662109 3.032227 -37.734375ZM4.526367 -22.075195L17.343750 -43.051758L18.837891 -42.143555L6.035156 -21.181641ZM12.656250 -26.484375C12.656250 -27.958984 13.115234 -29.157715 14.033203 -30.080566C14.951172 -31.003418 16.123047 -31.464844 17.548828 -31.464844C18.974609 -31.464844 20.146484 -31.003418 21.064453 -30.080566C21.982422 -29.157715 22.441406 -27.958984 22.441406 -26.484375C22.441406 -25.009766 21.982422 -23.811035 21.064453 -22.888184C20.146484 -21.965332 18.974609 -21.503906 17.548828 -21.503906C16.123047 -21.503906 14.951172 -21.965332 14.033203 -22.888184C13.115234 -23.811035 12.656250 -25.009766 12.656250 -26.484375ZM14.765625 -26.513672C14.765625 -25.585938 15.017090 -24.833984 15.520020 -24.257812C16.022949 -23.681641 16.699219 -23.393555 17.548828 -23.393555C18.398438 -23.393555 19.077148 -23.681641 19.584961 -24.257812C20.092773 -24.833984 20.346680 -25.585938 20.346680 -26.513672C20.346680 -27.431641 20.092773 -28.181152 19.584961 -28.762207C19.077148 -29.343262 18.398438 -29.633789 17.548828 -29.633789C16.708984 -29.633789 16.035156 -29.343262 15.527344 -28.762207C15.019531 -28.181152 14.765625 -27.431641 14.765625 -26.513672ZM14.765625 -26.513672"></path></svg>