<svg width="16.625977" height="21.840820" viewBox="3.120117 -42.993164 16.625977 21.840820" xmlns="http://www.w3.org/2000/svg"><path d="M3.120117 -21.870117L18.720703 -42.993164L19.746094 -42.304688L4.145508 -21.152344ZM3.120117 -36.958008C3.120117 -38.471680 3.613281 -39.794922 4.599609 -40.927734C5.585938 -42.060547 6.840820 -42.626953 8.364258 -42.626953C9.497070 -42.626953 10.405273 -42.272949 11.088867 -41.564941C11.772461 -40.856934 12.114258 -39.931641 12.114258 -38.789062C12.114258 -37.802734 11.901855 -36.879883 11.477051 -36.020508C11.052246 -35.161133 10.434570 -34.462891 9.624023 -33.925781C8.813477 -33.388672 7.895508 -33.120117 6.870117 -33.120117C5.737305 -33.120117 4.829102 -33.474121 4.145508 -34.182129C3.461914 -34.890137 3.120117 -35.815430 3.120117 -36.958008ZM4.555664 -37.133789C4.555664 -36.352539 4.780273 -35.712891 5.229492 -35.214844C5.678711 -34.716797 6.293945 -34.467773 7.075195 -34.467773C8.139648 -34.467773 9.006348 -34.882812 9.675293 -35.712891C10.344238 -36.542969 10.678711 -37.500000 10.678711 -38.583984C10.678711 -39.384766 10.456543 -40.034180 10.012207 -40.532227C9.567871 -41.030273 8.950195 -41.279297 8.159180 -41.279297C7.104492 -41.279297 6.240234 -40.859375 5.566406 -40.019531C4.892578 -39.179688 4.555664 -38.217773 4.555664 -37.133789ZM10.737305 -25.385742C10.737305 -26.899414 11.228027 -28.217773 12.209473 -29.340820C13.190918 -30.463867 14.443359 -31.025391 15.966797 -31.025391C17.099609 -31.025391 18.007812 -30.671387 18.691406 -29.963379C19.375000 -29.255371 19.716797 -28.330078 19.716797 -27.187500C19.716797 -25.673828 19.223633 -24.355469 18.237305 -23.232422C17.250977 -22.109375 15.991211 -21.547852 14.458008 -21.547852C13.334961 -21.547852 12.434082 -21.904297 11.755371 -22.617188C11.076660 -23.330078 10.737305 -24.252930 10.737305 -25.385742ZM12.172852 -25.561523C12.172852 -24.770508 12.395020 -24.123535 12.839355 -23.620605C13.283691 -23.117676 13.891602 -22.866211 14.663086 -22.866211C15.727539 -22.866211 16.594238 -23.283691 17.263184 -24.118652C17.932129 -24.953613 18.266602 -25.913086 18.266602 -26.997070C18.266602 -27.797852 18.044434 -28.449707 17.600098 -28.952637C17.155762 -29.455566 16.538086 -29.707031 15.747070 -29.707031C15.043945 -29.707031 14.414062 -29.501953 13.857422 -29.091797C13.300781 -28.681641 12.880859 -28.164062 12.597656 -27.539062C12.314453 -26.914062 12.172852 -26.254883 12.172852 -25.561523ZM12.172852 -25.561523"></path></svg>