<svg width="23.466797" height="21.958008" viewBox="1.230469 -43.198242 23.466797 21.958008" xmlns="http://www.w3.org/2000/svg"><path d="M1.230469 -37.500000C1.230469 -39.101562 1.733398 -40.395508 2.739258 -41.381836C3.745117 -42.368164 5.034180 -42.861328 6.606445 -42.861328C8.188477 -42.861328 9.477539 -42.370605 10.473633 -41.389160C11.469727 -40.407715 11.967773 -39.111328 11.967773 -37.500000C11.967773 -35.888672 11.469727 -34.584961 10.473633 -33.588867C9.477539 -32.592773 8.188477 -32.094727 6.606445 -32.094727C5.034180 -32.094727 3.745117 -32.592773 2.739258 -33.588867C1.733398 -34.584961 1.230469 -35.888672 1.230469 -37.500000ZM4.409180 -37.529297C4.409180 -36.757812 4.602051 -36.130371 4.987793 -35.646973C5.373535 -35.163574 5.913086 -34.921875 6.606445 -34.921875C7.319336 -34.921875 7.875977 -35.163574 8.276367 -35.646973C8.676758 -36.130371 8.876953 -36.757812 8.876953 -37.529297C8.876953 -38.310547 8.676758 -38.940430 8.276367 -39.418945C7.875977 -39.897461 7.319336 -40.136719 6.606445 -40.136719C5.903320 -40.136719 5.361328 -39.897461 4.980469 -39.418945C4.599609 -38.940430 4.409180 -38.310547 4.409180 -37.529297ZM5.493164 -22.470703L18.383789 -43.198242L20.434570 -41.967773L7.558594 -21.240234ZM13.945312 -26.938477C13.945312 -28.549805 14.445801 -29.848633 15.446777 -30.834961C16.447754 -31.821289 17.739258 -32.314453 19.321289 -32.314453C20.903320 -32.314453 22.194824 -31.821289 23.195801 -30.834961C24.196777 -29.848633 24.697266 -28.549805 24.697266 -26.938477C24.697266 -25.327148 24.196777 -24.028320 23.195801 -23.041992C22.194824 -22.055664 20.903320 -21.562500 19.321289 -21.562500C17.739258 -21.562500 16.447754 -22.055664 15.446777 -23.041992C14.445801 -24.028320 13.945312 -25.327148 13.945312 -26.938477ZM17.094727 -26.997070C17.094727 -26.215820 17.290039 -25.585938 17.680664 -25.107422C18.071289 -24.628906 18.618164 -24.389648 19.321289 -24.389648C20.034180 -24.389648 20.588379 -24.628906 20.983887 -25.107422C21.379395 -25.585938 21.577148 -26.215820 21.577148 -26.997070C21.577148 -27.768555 21.379395 -28.391113 20.983887 -28.864746C20.588379 -29.338379 20.034180 -29.575195 19.321289 -29.575195C18.618164 -29.575195 18.071289 -29.338379 17.680664 -28.864746C17.290039 -28.391113 17.094727 -27.768555 17.094727 -26.997070ZM17.094727 -26.997070"></path></svg>