<svg width="15.849609" height="21.342773" viewBox="0.864258 -42.348633 15.849609 21.342773" xmlns="http://www.w3.org/2000/svg"><path d="M0.864258 -31.669922C0.864258 -32.773438 0.959473 -33.835449 1.149902 -34.855957C1.340332 -35.876465 1.643066 -36.845703 2.058105 -37.763672C2.473145 -38.681641 2.983398 -39.477539 3.588867 -40.151367C4.194336 -40.825195 4.943848 -41.359863 5.837402 -41.755371C6.730957 -42.150879 7.714844 -42.348633 8.789062 -42.348633C9.873047 -42.348633 10.859375 -42.150879 11.748047 -41.755371C12.636719 -41.359863 13.383789 -40.825195 13.989258 -40.151367C14.594727 -39.477539 15.104980 -38.681641 15.520020 -37.763672C15.935059 -36.845703 16.237793 -35.876465 16.428223 -34.855957C16.618652 -33.835449 16.713867 -32.773438 16.713867 -31.669922C16.713867 -30.566406 16.618652 -29.506836 16.428223 -28.491211C16.237793 -27.475586 15.935059 -26.511230 15.520020 -25.598145C15.104980 -24.685059 14.594727 -23.889160 13.989258 -23.210449C13.383789 -22.531738 12.636719 -21.994629 11.748047 -21.599121C10.859375 -21.203613 9.873047 -21.005859 8.789062 -21.005859C7.705078 -21.005859 6.718750 -21.203613 5.830078 -21.599121C4.941406 -21.994629 4.194336 -22.531738 3.588867 -23.210449C2.983398 -23.889160 2.473145 -24.685059 2.058105 -25.598145C1.643066 -26.511230 1.340332 -27.475586 1.149902 -28.491211C0.959473 -29.506836 0.864258 -30.566406 0.864258 -31.669922ZM3.808594 -31.728516C3.808594 -30.126953 3.989258 -28.723145 4.350586 -27.517090C4.711914 -26.311035 5.270996 -25.351562 6.027832 -24.638672C6.784668 -23.925781 7.705078 -23.569336 8.789062 -23.569336C9.873047 -23.569336 10.793457 -23.925781 11.550293 -24.638672C12.307129 -25.351562 12.866211 -26.311035 13.227539 -27.517090C13.588867 -28.723145 13.769531 -30.126953 13.769531 -31.728516C13.769531 -34.189453 13.342285 -36.164551 12.487793 -37.653809C11.633301 -39.143066 10.400391 -39.887695 8.789062 -39.887695C7.177734 -39.887695 5.944824 -39.143066 5.090332 -37.653809C4.235840 -36.164551 3.808594 -34.189453 3.808594 -31.728516ZM3.808594 -31.728516"></path></svg>