<svg width="17.167969" height="21.372070" viewBox="0.805664 -42.377930 17.167969 21.372070" xmlns="http://www.w3.org/2000/svg"><path d="M0.805664 -31.699219C0.805664 -32.822266 0.908203 -33.894043 1.113281 -34.914551C1.318359 -35.935059 1.645508 -36.901855 2.094727 -37.814941C2.543945 -38.728027 3.098145 -39.521484 3.757324 -40.195312C4.416504 -40.869141 5.227051 -41.401367 6.188965 -41.791992C7.150879 -42.182617 8.217773 -42.377930 9.389648 -42.377930C10.561523 -42.377930 11.628418 -42.182617 12.590332 -41.791992C13.552246 -41.401367 14.362793 -40.869141 15.021973 -40.195312C15.681152 -39.521484 16.235352 -38.728027 16.684570 -37.814941C17.133789 -36.901855 17.460938 -35.935059 17.666016 -34.914551C17.871094 -33.894043 17.973633 -32.822266 17.973633 -31.699219C17.973633 -30.576172 17.871094 -29.504395 17.666016 -28.483887C17.460938 -27.463379 17.133789 -26.494141 16.684570 -25.576172C16.235352 -24.658203 15.681152 -23.864746 15.021973 -23.195801C14.362793 -22.526855 13.552246 -21.994629 12.590332 -21.599121C11.628418 -21.203613 10.561523 -21.005859 9.389648 -21.005859C8.208008 -21.005859 7.136230 -21.203613 6.174316 -21.599121C5.212402 -21.994629 4.401855 -22.526855 3.742676 -23.195801C3.083496 -23.864746 2.531738 -24.658203 2.087402 -25.576172C1.643066 -26.494141 1.318359 -27.463379 1.113281 -28.483887C0.908203 -29.504395 0.805664 -30.576172 0.805664 -31.699219ZM5.581055 -31.787109C5.581055 -29.814453 5.898438 -28.220215 6.533203 -27.004395C7.167969 -25.788574 8.120117 -25.180664 9.389648 -25.180664C10.659180 -25.180664 11.611328 -25.788574 12.246094 -27.004395C12.880859 -28.220215 13.198242 -29.814453 13.198242 -31.787109C13.198242 -33.066406 13.068848 -34.184570 12.810059 -35.141602C12.551270 -36.098633 12.131348 -36.867676 11.550293 -37.448730C10.969238 -38.029785 10.249023 -38.320312 9.389648 -38.320312C8.530273 -38.320312 7.810059 -38.029785 7.229004 -37.448730C6.647949 -36.867676 6.228027 -36.098633 5.969238 -35.141602C5.710449 -34.184570 5.581055 -33.066406 5.581055 -31.787109ZM5.581055 -31.787109"></path></svg>