<svg width="14.487305" height="21.005859" viewBox="1.435547 -42.011719 14.487305 21.005859" xmlns="http://www.w3.org/2000/svg"><path d="M1.435547 -22.236328L9.814453 -29.589844C10.429688 -30.126953 10.959473 -30.625000 11.403809 -31.083984C11.848145 -31.542969 12.307129 -32.082520 12.780762 -32.702637C13.254395 -33.322754 13.618164 -33.972168 13.872070 -34.650879C14.125977 -35.329590 14.252930 -36.020508 14.252930 -36.723633C14.252930 -37.905273 13.884277 -38.835449 13.146973 -39.514160C12.409668 -40.192871 11.445312 -40.532227 10.253906 -40.532227C9.130859 -40.532227 8.103027 -40.187988 7.170410 -39.499512C6.237793 -38.811035 5.449219 -37.924805 4.804688 -36.840820L3.720703 -37.631836C5.458984 -40.551758 7.719727 -42.011719 10.502930 -42.011719C12.084961 -42.011719 13.383789 -41.572266 14.399414 -40.693359C15.415039 -39.814453 15.922852 -38.593750 15.922852 -37.031250C15.922852 -36.308594 15.805664 -35.593262 15.571289 -34.885254C15.336914 -34.177246 15.061035 -33.557129 14.743652 -33.024902C14.426270 -32.492676 13.989258 -31.914062 13.432617 -31.289062C12.875977 -30.664062 12.392578 -30.161133 11.982422 -29.780273C11.572266 -29.399414 11.040039 -28.925781 10.385742 -28.359375L3.750000 -22.558594L14.516602 -22.558594L14.252930 -21.005859L1.523438 -21.005859ZM1.435547 -22.236328"></path></svg>