<svg width="14.575195" height="21.005859" viewBox="1.684570 -42.011719 14.575195 21.005859" xmlns="http://www.w3.org/2000/svg"><path d="M1.684570 -38.012695C1.811523 -38.295898 1.984863 -38.596191 2.204590 -38.913574C2.424316 -39.230957 2.734375 -39.580078 3.134766 -39.960938C3.535156 -40.341797 3.977051 -40.678711 4.460449 -40.971680C4.943848 -41.264648 5.537109 -41.511230 6.240234 -41.711426C6.943359 -41.911621 7.685547 -42.011719 8.466797 -42.011719C10.537109 -42.011719 12.209473 -41.452637 13.483887 -40.334473C14.758301 -39.216309 15.395508 -37.744141 15.395508 -35.917969C15.395508 -35.556641 15.363770 -35.197754 15.300293 -34.841309C15.236816 -34.484863 15.163574 -34.160156 15.080566 -33.867188C14.997559 -33.574219 14.865723 -33.256836 14.685059 -32.915039C14.504395 -32.573242 14.355469 -32.292480 14.238281 -32.072754C14.121094 -31.853027 13.935547 -31.584473 13.681641 -31.267090C13.427734 -30.949707 13.242188 -30.717773 13.125000 -30.571289C13.007812 -30.424805 12.805176 -30.207520 12.517090 -29.919434C12.229004 -29.631348 12.048340 -29.448242 11.975098 -29.370117C11.901855 -29.291992 11.723633 -29.121094 11.440430 -28.857422L11.015625 -28.476562L5.698242 -23.408203L16.259766 -23.408203L16.259766 -21.005859L2.285156 -21.005859L1.860352 -22.954102L9.184570 -29.882812C9.663086 -30.341797 10.068359 -30.754395 10.400391 -31.120605C10.732422 -31.486816 11.079102 -31.921387 11.440430 -32.424316C11.801758 -32.927246 12.075195 -33.447266 12.260742 -33.984375C12.446289 -34.521484 12.539062 -35.063477 12.539062 -35.610352C12.539062 -36.801758 12.153320 -37.770996 11.381836 -38.518066C10.610352 -39.265137 9.575195 -39.638672 8.276367 -39.638672C7.661133 -39.638672 7.075195 -39.533691 6.518555 -39.323730C5.961914 -39.113770 5.476074 -38.830566 5.061035 -38.474121C4.645996 -38.117676 4.294434 -37.766113 4.006348 -37.419434C3.718262 -37.072754 3.452148 -36.699219 3.208008 -36.298828ZM1.684570 -38.012695"></path></svg>