<svg width="14.194336" height="21.298828" viewBox="1.552734 -42.304688 14.194336 21.298828" xmlns="http://www.w3.org/2000/svg"><path d="M1.552734 -24.506836L3.178711 -26.279297C3.305664 -26.123047 3.437500 -25.964355 3.574219 -25.803223C3.710938 -25.642090 3.957520 -25.400391 4.313965 -25.078125C4.670410 -24.755859 5.026855 -24.479980 5.383301 -24.250488C5.739746 -24.020996 6.174316 -23.815918 6.687012 -23.635254C7.199707 -23.454590 7.709961 -23.364258 8.217773 -23.364258C9.604492 -23.364258 10.727539 -23.701172 11.586914 -24.375000C12.446289 -25.048828 12.875977 -25.991211 12.875977 -27.202148C12.875977 -28.403320 12.473145 -29.328613 11.667480 -29.978027C10.861816 -30.627441 9.833984 -30.952148 8.583984 -30.952148L7.045898 -30.952148L7.045898 -33.266602L8.583984 -33.266602C9.707031 -33.266602 10.607910 -33.564453 11.286621 -34.160156C11.965332 -34.755859 12.304688 -35.581055 12.304688 -36.635742C12.304688 -37.690430 11.928711 -38.513184 11.176758 -39.104004C10.424805 -39.694824 9.497070 -39.990234 8.393555 -39.990234C7.426758 -39.990234 6.557617 -39.785156 5.786133 -39.375000C5.014648 -38.964844 4.238281 -38.378906 3.457031 -37.617188L2.094727 -39.360352C2.915039 -40.268555 3.828125 -40.986328 4.833984 -41.513672C5.839844 -42.041016 7.109375 -42.304688 8.642578 -42.304688C9.785156 -42.304688 10.842285 -42.097168 11.813965 -41.682129C12.785645 -41.267090 13.579102 -40.642090 14.194336 -39.807129C14.809570 -38.972168 15.117188 -38.012695 15.117188 -36.928711C15.117188 -36.206055 15.007324 -35.556641 14.787598 -34.980469C14.567871 -34.404297 14.274902 -33.940430 13.908691 -33.588867C13.542480 -33.237305 13.188477 -32.958984 12.846680 -32.753906C12.504883 -32.548828 12.143555 -32.382812 11.762695 -32.255859L11.762695 -32.153320C12.202148 -32.075195 12.641602 -31.916504 13.081055 -31.677246C13.520508 -31.437988 13.945312 -31.120605 14.355469 -30.725098C14.765625 -30.329590 15.100098 -29.814453 15.358887 -29.179688C15.617676 -28.544922 15.747070 -27.846680 15.747070 -27.084961C15.747070 -25.239258 15.041504 -23.764648 13.630371 -22.661133C12.219238 -21.557617 10.434570 -21.005859 8.276367 -21.005859C7.495117 -21.005859 6.735840 -21.120605 5.998535 -21.350098C5.261230 -21.579590 4.660645 -21.831055 4.196777 -22.104492C3.732910 -22.377930 3.281250 -22.714844 2.841797 -23.115234C2.402344 -23.515625 2.111816 -23.801270 1.970215 -23.972168C1.828613 -24.143066 1.689453 -24.321289 1.552734 -24.506836ZM1.552734 -24.506836"></path></svg>