<svg width="15.908203" height="21.035156" viewBox="1.347656 -41.733398 15.908203 21.035156" xmlns="http://www.w3.org/2000/svg"><path d="M1.347656 -24.096680L3.574219 -26.938477C4.121094 -26.166992 4.870605 -25.559082 5.822754 -25.114746C6.774902 -24.670410 7.714844 -24.448242 8.642578 -24.448242C9.101562 -24.448242 9.553223 -24.516602 9.997559 -24.653320C10.441895 -24.790039 10.859375 -24.992676 11.250000 -25.261230C11.640625 -25.529785 11.953125 -25.898438 12.187500 -26.367188C12.421875 -26.835938 12.539062 -27.368164 12.539062 -27.963867C12.539062 -28.745117 12.338867 -29.406738 11.938477 -29.948730C11.538086 -30.490723 11.054688 -30.876465 10.488281 -31.105957C9.921875 -31.335449 9.306641 -31.450195 8.642578 -31.450195C7.968750 -31.450195 7.285156 -31.352539 6.591797 -31.157227C5.898438 -30.961914 5.322266 -30.698242 4.863281 -30.366211L2.753906 -31.625977L4.350586 -41.733398L16.464844 -41.733398L16.464844 -38.012695L7.866211 -38.012695L7.265625 -34.291992C7.988281 -34.594727 8.906250 -34.746094 10.019531 -34.746094C10.849609 -34.746094 11.672363 -34.614258 12.487793 -34.350586C13.303223 -34.086914 14.074707 -33.693848 14.802246 -33.171387C15.529785 -32.648926 16.120605 -31.936035 16.574707 -31.032715C17.028809 -30.129395 17.255859 -29.106445 17.255859 -27.963867C17.255859 -27.026367 17.099609 -26.157227 16.787109 -25.356445C16.474609 -24.555664 16.052246 -23.874512 15.520020 -23.312988C14.987793 -22.751465 14.367676 -22.270508 13.659668 -21.870117C12.951660 -21.469727 12.199707 -21.174316 11.403809 -20.983887C10.607910 -20.793457 9.794922 -20.698242 8.964844 -20.698242C7.978516 -20.698242 7.050781 -20.803223 6.181641 -21.013184C5.312500 -21.223145 4.567871 -21.501465 3.947754 -21.848145C3.327637 -22.194824 2.805176 -22.556152 2.380371 -22.932129C1.955566 -23.308105 1.611328 -23.696289 1.347656 -24.096680ZM1.347656 -24.096680"></path></svg>