<svg width="14.487305" height="21.372070" viewBox="2.255859 -42.377930 14.487305 21.372070" xmlns="http://www.w3.org/2000/svg"><path d="M2.255859 -27.817383C2.255859 -28.647461 2.307129 -29.506836 2.409668 -30.395508C2.512207 -31.284180 2.683105 -32.204590 2.922363 -33.156738C3.161621 -34.108887 3.454590 -35.024414 3.801270 -35.903320C4.147949 -36.782227 4.584961 -37.617188 5.112305 -38.408203C5.639648 -39.199219 6.223145 -39.887695 6.862793 -40.473633C7.502441 -41.059570 8.251953 -41.523438 9.111328 -41.865234C9.970703 -42.207031 10.893555 -42.377930 11.879883 -42.377930C12.807617 -42.377930 13.742676 -42.187500 14.685059 -41.806641C15.627441 -41.425781 16.313477 -40.883789 16.743164 -40.180664L15.659180 -39.008789C14.506836 -40.307617 13.149414 -40.957031 11.586914 -40.957031C10.786133 -40.957031 10.039062 -40.795898 9.345703 -40.473633C8.652344 -40.151367 8.049316 -39.707031 7.536621 -39.140625C7.023926 -38.574219 6.564941 -37.951660 6.159668 -37.272949C5.754395 -36.594238 5.410156 -35.847168 5.126953 -35.031738C4.843750 -34.216309 4.611816 -33.457031 4.431152 -32.753906C4.250488 -32.050781 4.101562 -31.337891 3.984375 -30.615234C4.677734 -31.796875 5.551758 -32.722168 6.606445 -33.391113C7.661133 -34.060059 8.847656 -34.394531 10.166016 -34.394531C11.689453 -34.394531 12.941895 -33.896484 13.923340 -32.900391C14.904785 -31.904297 15.395508 -30.639648 15.395508 -29.106445C15.395508 -28.071289 15.207520 -27.065430 14.831543 -26.088867C14.455566 -25.112305 13.942871 -24.248047 13.293457 -23.496094C12.644043 -22.744141 11.843262 -22.141113 10.891113 -21.687012C9.938965 -21.232910 8.920898 -21.005859 7.836914 -21.005859C4.116211 -21.005859 2.255859 -23.276367 2.255859 -27.817383ZM4.013672 -26.674805C4.013672 -25.405273 4.375000 -24.394531 5.097656 -23.642578C5.820312 -22.890625 6.811523 -22.514648 8.071289 -22.514648C9.184570 -22.514648 10.178223 -22.814941 11.052246 -23.415527C11.926270 -24.016113 12.587891 -24.787598 13.037109 -25.729980C13.486328 -26.672363 13.710938 -27.690430 13.710938 -28.784180C13.710938 -30.043945 13.361816 -31.047363 12.663574 -31.794434C11.965332 -32.541504 10.986328 -32.915039 9.726562 -32.915039C8.623047 -32.915039 7.629395 -32.619629 6.745605 -32.028809C5.861816 -31.437988 5.185547 -30.668945 4.716797 -29.721680C4.248047 -28.774414 4.013672 -27.758789 4.013672 -26.674805ZM4.013672 -26.674805"></path></svg>