<svg width="16.171875" height="21.342773" viewBox="1.464844 -42.348633 16.171875 21.342773" xmlns="http://www.w3.org/2000/svg"><path d="M1.464844 -31.420898C1.464844 -33.247070 1.706543 -34.873047 2.189941 -36.298828C2.673340 -37.724609 3.354492 -38.891602 4.233398 -39.799805C5.844727 -41.499023 7.954102 -42.348633 10.561523 -42.348633C12.934570 -42.348633 15.073242 -41.674805 16.977539 -40.327148L15.205078 -37.148438C14.658203 -37.568359 13.979492 -37.929688 13.168945 -38.232422C12.358398 -38.535156 11.557617 -38.686523 10.766602 -38.686523C9.575195 -38.686523 8.554688 -38.276367 7.705078 -37.456055C7.236328 -36.987305 6.845703 -36.328125 6.533203 -35.478516C6.220703 -34.628906 6.064453 -33.666992 6.064453 -32.592773C7.353516 -34.008789 9.091797 -34.716797 11.279297 -34.716797C12.089844 -34.716797 12.873535 -34.575195 13.630371 -34.291992C14.387207 -34.008789 15.063477 -33.608398 15.659180 -33.090820C16.254883 -32.573242 16.733398 -31.906738 17.094727 -31.091309C17.456055 -30.275879 17.636719 -29.375000 17.636719 -28.388672C17.636719 -27.363281 17.458496 -26.403809 17.102051 -25.510254C16.745605 -24.616699 16.242676 -23.835449 15.593262 -23.166504C14.943848 -22.497559 14.128418 -21.970215 13.146973 -21.584473C12.165527 -21.198730 11.083984 -21.005859 9.902344 -21.005859C9.072266 -21.005859 8.291016 -21.108398 7.558594 -21.313477C6.826172 -21.518555 6.188965 -21.801758 5.646973 -22.163086C5.104980 -22.524414 4.643555 -22.890625 4.262695 -23.261719C3.881836 -23.632812 3.540039 -24.033203 3.237305 -24.462891C2.055664 -26.113281 1.464844 -28.432617 1.464844 -31.420898ZM6.386719 -28.066406C6.386719 -27.109375 6.691895 -26.298828 7.302246 -25.634766C7.912598 -24.970703 8.730469 -24.638672 9.755859 -24.638672C10.761719 -24.638672 11.562500 -24.970703 12.158203 -25.634766C12.753906 -26.298828 13.051758 -27.109375 13.051758 -28.066406C13.051758 -29.013672 12.753906 -29.819336 12.158203 -30.483398C11.562500 -31.147461 10.761719 -31.479492 9.755859 -31.479492C8.730469 -31.479492 7.912598 -31.147461 7.302246 -30.483398C6.691895 -29.819336 6.386719 -29.013672 6.386719 -28.066406ZM6.386719 -28.066406"></path></svg>