<svg width="14.238281" height="21.342773" viewBox="1.684570 -42.348633 14.238281 21.342773" xmlns="http://www.w3.org/2000/svg"><path d="M1.684570 -27.070312C1.684570 -28.349609 2.033691 -29.436035 2.731934 -30.329590C3.430176 -31.223145 4.370117 -31.855469 5.551758 -32.226562L5.551758 -32.329102C3.393555 -33.149414 2.314453 -34.697266 2.314453 -36.972656C2.314453 -38.076172 2.614746 -39.040527 3.215332 -39.865723C3.815918 -40.690918 4.599609 -41.311035 5.566406 -41.726074C6.533203 -42.141113 7.607422 -42.348633 8.789062 -42.348633C9.970703 -42.348633 11.044922 -42.141113 12.011719 -41.726074C12.978516 -41.311035 13.762207 -40.690918 14.362793 -39.865723C14.963379 -39.040527 15.263672 -38.076172 15.263672 -36.972656C15.263672 -36.259766 15.166016 -35.622559 14.970703 -35.061035C14.775391 -34.499512 14.501953 -34.040527 14.150391 -33.684082C13.798828 -33.327637 13.461914 -33.049316 13.139648 -32.849121C12.817383 -32.648926 12.456055 -32.465820 12.055664 -32.299805L12.055664 -32.226562C13.237305 -31.835938 14.177246 -31.196289 14.875488 -30.307617C15.573730 -29.418945 15.922852 -28.339844 15.922852 -27.070312C15.922852 -25.175781 15.258789 -23.691406 13.930664 -22.617188C12.602539 -21.542969 10.888672 -21.005859 8.789062 -21.005859C6.689453 -21.005859 4.980469 -21.540527 3.662109 -22.609863C2.343750 -23.679199 1.684570 -25.166016 1.684570 -27.070312ZM4.526367 -27.290039C4.526367 -26.098633 4.936523 -25.144043 5.756836 -24.426270C6.577148 -23.708496 7.587891 -23.349609 8.789062 -23.349609C10.000000 -23.349609 11.013184 -23.706055 11.828613 -24.418945C12.644043 -25.131836 13.051758 -26.088867 13.051758 -27.290039C13.051758 -28.491211 12.651367 -29.445801 11.850586 -30.153809C11.049805 -30.861816 10.029297 -31.215820 8.789062 -31.215820C7.548828 -31.215820 6.528320 -30.861816 5.727539 -30.153809C4.926758 -29.445801 4.526367 -28.491211 4.526367 -27.290039ZM5.126953 -36.708984C5.126953 -35.644531 5.468750 -34.816895 6.152344 -34.226074C6.835938 -33.635254 7.714844 -33.339844 8.789062 -33.339844C9.863281 -33.339844 10.742188 -33.635254 11.425781 -34.226074C12.109375 -34.816895 12.451172 -35.644531 12.451172 -36.708984C12.451172 -37.753906 12.106934 -38.574219 11.418457 -39.169922C10.729980 -39.765625 9.853516 -40.063477 8.789062 -40.063477C7.724609 -40.063477 6.848145 -39.765625 6.159668 -39.169922C5.471191 -38.574219 5.126953 -37.753906 5.126953 -36.708984ZM5.126953 -36.708984"></path></svg>