<svg width="15.849609" height="21.342773" viewBox="1.464844 -42.348633 15.849609 21.342773" xmlns="http://www.w3.org/2000/svg"><path d="M1.464844 -27.187500C1.464844 -28.427734 1.794434 -29.470215 2.453613 -30.314941C3.112793 -31.159668 4.023438 -31.767578 5.185547 -32.138672L5.185547 -32.197266C4.775391 -32.343750 4.396973 -32.529297 4.050293 -32.753906C3.703613 -32.978516 3.371582 -33.264160 3.054199 -33.610840C2.736816 -33.957520 2.487793 -34.389648 2.307129 -34.907227C2.126465 -35.424805 2.036133 -36.000977 2.036133 -36.635742C2.036133 -37.846680 2.377930 -38.891602 3.061523 -39.770508C3.745117 -40.649414 4.633789 -41.298828 5.727539 -41.718750C6.821289 -42.138672 8.041992 -42.348633 9.389648 -42.348633C10.727539 -42.348633 11.940918 -42.138672 13.029785 -41.718750C14.118652 -41.298828 15.004883 -40.646973 15.688477 -39.763184C16.372070 -38.879395 16.713867 -37.836914 16.713867 -36.635742C16.713867 -35.786133 16.550293 -35.043945 16.223145 -34.409180C15.895996 -33.774414 15.515137 -33.295898 15.080566 -32.973633C14.645996 -32.651367 14.150391 -32.392578 13.593750 -32.197266L13.593750 -32.109375C14.746094 -31.757812 15.654297 -31.157227 16.318359 -30.307617C16.982422 -29.458008 17.314453 -28.417969 17.314453 -27.187500C17.314453 -25.859375 16.950684 -24.721680 16.223145 -23.774414C15.495605 -22.827148 14.543457 -22.128906 13.366699 -21.679688C12.189941 -21.230469 10.864258 -21.005859 9.389648 -21.005859C7.915039 -21.005859 6.589355 -21.230469 5.412598 -21.679688C4.235840 -22.128906 3.283691 -22.827148 2.556152 -23.774414C1.828613 -24.721680 1.464844 -25.859375 1.464844 -27.187500ZM6.181641 -27.641602C6.181641 -26.743164 6.486816 -26.027832 7.097168 -25.495605C7.707520 -24.963379 8.471680 -24.697266 9.389648 -24.697266C10.307617 -24.697266 11.071777 -24.963379 11.682129 -25.495605C12.292480 -26.027832 12.597656 -26.743164 12.597656 -27.641602C12.597656 -28.549805 12.294922 -29.267578 11.689453 -29.794922C11.083984 -30.322266 10.317383 -30.585938 9.389648 -30.585938C8.452148 -30.585938 7.683105 -30.322266 7.082520 -29.794922C6.481934 -29.267578 6.181641 -28.549805 6.181641 -27.641602ZM6.665039 -36.284180C6.665039 -35.502930 6.911621 -34.892578 7.404785 -34.453125C7.897949 -34.013672 8.559570 -33.793945 9.389648 -33.793945C10.209961 -33.793945 10.869141 -34.013672 11.367188 -34.453125C11.865234 -34.892578 12.114258 -35.502930 12.114258 -36.284180C12.114258 -37.075195 11.865234 -37.692871 11.367188 -38.137207C10.869141 -38.581543 10.209961 -38.803711 9.389648 -38.803711C8.559570 -38.803711 7.897949 -38.583984 7.404785 -38.144531C6.911621 -37.705078 6.665039 -37.084961 6.665039 -36.284180ZM6.665039 -36.284180"></path></svg>