<svg width="13.857422" height="21.342773" viewBox="1.889648 -42.348633 13.857422 21.342773" xmlns="http://www.w3.org/2000/svg"><path d="M1.889648 -25.839844C1.889648 -27.353516 2.321777 -28.698730 3.186035 -29.875488C4.050293 -31.052246 5.209961 -31.870117 6.665039 -32.329102L6.665039 -32.358398C5.004883 -33.090820 4.174805 -34.331055 4.174805 -36.079102C4.174805 -37.905273 4.804688 -39.406738 6.064453 -40.583496C7.324219 -41.760254 8.901367 -42.348633 10.795898 -42.348633C12.182617 -42.348633 13.354492 -41.965332 14.311523 -41.198730C15.268555 -40.432129 15.747070 -39.375000 15.747070 -38.027344C15.747070 -36.679688 15.397949 -35.524902 14.699707 -34.562988C14.001465 -33.601074 13.022461 -32.866211 11.762695 -32.358398L11.762695 -32.329102C12.719727 -31.987305 13.464355 -31.435547 13.996582 -30.673828C14.528809 -29.912109 14.794922 -29.013672 14.794922 -27.978516C14.794922 -25.908203 14.096680 -24.228516 12.700195 -22.939453C11.303711 -21.650391 9.541016 -21.005859 7.412109 -21.005859C5.791016 -21.005859 4.465332 -21.418457 3.435059 -22.243652C2.404785 -23.068848 1.889648 -24.267578 1.889648 -25.839844ZM3.574219 -26.235352C3.574219 -25.083008 3.957520 -24.169922 4.724121 -23.496094C5.490723 -22.822266 6.464844 -22.485352 7.646484 -22.485352C9.169922 -22.485352 10.471191 -23.010254 11.550293 -24.060059C12.629395 -25.109863 13.168945 -26.396484 13.168945 -27.919922C13.168945 -29.091797 12.788086 -29.997559 12.026367 -30.637207C11.264648 -31.276855 10.288086 -31.596680 9.096680 -31.596680C7.543945 -31.596680 6.235352 -31.088867 5.170898 -30.073242C4.106445 -29.057617 3.574219 -27.778320 3.574219 -26.235352ZM5.786133 -36.196289C5.786133 -35.190430 6.118164 -34.418945 6.782227 -33.881836C7.446289 -33.344727 8.295898 -33.076172 9.331055 -33.076172C10.688477 -33.076172 11.818848 -33.508301 12.722168 -34.372559C13.625488 -35.236816 14.077148 -36.352539 14.077148 -37.719727C14.077148 -38.725586 13.747559 -39.501953 13.088379 -40.048828C12.429199 -40.595703 11.586914 -40.869141 10.561523 -40.869141C9.204102 -40.869141 8.068848 -40.432129 7.155762 -39.558105C6.242676 -38.684082 5.786133 -37.563477 5.786133 -36.196289ZM5.786133 -36.196289"></path></svg>