<svg width="14.765625" height="21.372070" viewBox="1.259766 -42.377930 14.765625 21.372070" xmlns="http://www.w3.org/2000/svg"><path d="M1.259766 -35.229492C1.259766 -36.557617 1.540527 -37.761230 2.102051 -38.840332C2.663574 -39.919434 3.483887 -40.778809 4.562988 -41.418457C5.642090 -42.058105 6.889648 -42.377930 8.305664 -42.377930C11.040039 -42.377930 13.129883 -41.186523 14.575195 -38.803711C15.541992 -37.241211 16.025391 -34.990234 16.025391 -32.050781C16.025391 -30.283203 15.805664 -28.691406 15.366211 -27.275391C14.926758 -25.859375 14.335938 -24.682617 13.593750 -23.745117C12.138672 -21.918945 10.185547 -21.005859 7.734375 -21.005859C6.894531 -21.005859 6.118164 -21.086426 5.405273 -21.247559C4.692383 -21.408691 4.069824 -21.638184 3.537598 -21.936035C3.005371 -22.233887 2.644043 -22.448730 2.453613 -22.580566C2.263184 -22.712402 2.026367 -22.900391 1.743164 -23.144531L2.973633 -25.063477C3.461914 -24.614258 4.123535 -24.216309 4.958496 -23.869629C5.793457 -23.522949 6.699219 -23.349609 7.675781 -23.349609C8.544922 -23.349609 9.279785 -23.503418 9.880371 -23.811035C10.480957 -24.118652 11.015625 -24.594727 11.484375 -25.239258C12.646484 -26.762695 13.227539 -28.994141 13.227539 -31.933594C13.041992 -31.552734 12.802734 -31.193848 12.509766 -30.856934C12.216797 -30.520020 11.848145 -30.195312 11.403809 -29.882812C10.959473 -29.570312 10.412598 -29.323730 9.763184 -29.143066C9.113770 -28.962402 8.398438 -28.872070 7.617188 -28.872070C6.523438 -28.872070 5.498047 -29.121094 4.541016 -29.619141C3.583984 -30.117188 2.797852 -30.859375 2.182617 -31.845703C1.567383 -32.832031 1.259766 -33.959961 1.259766 -35.229492ZM4.086914 -35.595703C4.086914 -34.785156 4.240723 -34.045410 4.548340 -33.376465C4.855957 -32.707520 5.339355 -32.155762 5.998535 -31.721191C6.657715 -31.286621 7.446289 -31.069336 8.364258 -31.069336C9.731445 -31.069336 10.798340 -31.511230 11.564941 -32.395020C12.331543 -33.278809 12.714844 -34.345703 12.714844 -35.595703C12.714844 -36.845703 12.331543 -37.912598 11.564941 -38.796387C10.798340 -39.680176 9.731445 -40.122070 8.364258 -40.122070C7.446289 -40.122070 6.657715 -39.904785 5.998535 -39.470215C5.339355 -39.035645 4.855957 -38.483887 4.548340 -37.814941C4.240723 -37.145996 4.086914 -36.406250 4.086914 -35.595703ZM4.086914 -35.595703"></path></svg>