<svg width="14.648438" height="21.372070" viewBox="1.318359 -42.377930 14.648438 21.372070" xmlns="http://www.w3.org/2000/svg"><path d="M1.318359 -23.203125L2.402344 -24.375000C3.486328 -23.115234 4.916992 -22.485352 6.694336 -22.485352C7.377930 -22.485352 8.024902 -22.607422 8.635254 -22.851562C9.245605 -23.095703 9.780273 -23.420410 10.239258 -23.825684C10.698242 -24.230957 11.127930 -24.721680 11.528320 -25.297852C11.928711 -25.874023 12.268066 -26.462402 12.546387 -27.062988C12.824707 -27.663574 13.078613 -28.315430 13.308105 -29.018555C13.537598 -29.721680 13.720703 -30.368652 13.857422 -30.959473C13.994141 -31.550293 14.116211 -32.153320 14.223633 -32.768555C13.530273 -31.586914 12.653809 -30.661621 11.594238 -29.992676C10.534668 -29.323730 9.340820 -28.989258 8.012695 -28.989258C6.499023 -28.989258 5.249023 -29.487305 4.262695 -30.483398C3.276367 -31.479492 2.783203 -32.744141 2.783203 -34.277344C2.783203 -35.664062 3.100586 -36.972656 3.735352 -38.203125C4.370117 -39.433594 5.273438 -40.437012 6.445312 -41.213379C7.617188 -41.989746 8.920898 -42.377930 10.356445 -42.377930C14.096680 -42.377930 15.966797 -40.107422 15.966797 -35.566406C15.966797 -34.755859 15.915527 -33.911133 15.812988 -33.032227C15.710449 -32.153320 15.539551 -31.237793 15.300293 -30.285645C15.061035 -29.333496 14.768066 -28.417969 14.421387 -27.539062C14.074707 -26.660156 13.642578 -25.820312 13.125000 -25.019531C12.607422 -24.218750 12.033691 -23.522949 11.403809 -22.932129C10.773926 -22.341309 10.034180 -21.872559 9.184570 -21.525879C8.334961 -21.179199 7.431641 -21.005859 6.474609 -21.005859C4.121094 -21.005859 2.402344 -21.738281 1.318359 -23.203125ZM4.497070 -34.628906C4.497070 -33.359375 4.846191 -32.353516 5.544434 -31.611328C6.242676 -30.869141 7.226562 -30.498047 8.496094 -30.498047C9.599609 -30.498047 10.590820 -30.793457 11.469727 -31.384277C12.348633 -31.975098 13.022461 -32.744141 13.491211 -33.691406C13.959961 -34.638672 14.194336 -35.654297 14.194336 -36.738281C14.194336 -38.007812 13.833008 -39.018555 13.110352 -39.770508C12.387695 -40.522461 11.396484 -40.898438 10.136719 -40.898438C9.023438 -40.898438 8.029785 -40.598145 7.155762 -39.997559C6.281738 -39.396973 5.620117 -38.625488 5.170898 -37.683105C4.721680 -36.740723 4.497070 -35.722656 4.497070 -34.628906ZM4.497070 -34.628906"></path></svg>