<svg width="4.643555" height="14.399414" viewBox="2.285156 -28.505859 4.643555 14.399414" xmlns="http://www.w3.org/2000/svg"><path d="M2.285156 -15.263672C2.285156 -15.732422 2.443848 -16.140137 2.761230 -16.486816C3.078613 -16.833496 3.466797 -17.006836 3.925781 -17.006836C4.267578 -17.006836 4.548340 -16.896973 4.768066 -16.677246C4.987793 -16.457520 5.097656 -16.166992 5.097656 -15.805664C5.097656 -15.356445 4.938965 -14.960938 4.621582 -14.619141C4.304199 -14.277344 3.916016 -14.106445 3.457031 -14.106445C3.115234 -14.106445 2.834473 -14.213867 2.614746 -14.428711C2.395020 -14.643555 2.285156 -14.921875 2.285156 -15.263672ZM4.086914 -26.791992C4.086914 -27.241211 4.250488 -27.639160 4.577637 -27.985840C4.904785 -28.332520 5.288086 -28.505859 5.727539 -28.505859C6.088867 -28.505859 6.379395 -28.395996 6.599121 -28.176270C6.818848 -27.956543 6.928711 -27.675781 6.928711 -27.333984C6.928711 -26.865234 6.767578 -26.457520 6.445312 -26.110840C6.123047 -25.764160 5.732422 -25.590820 5.273438 -25.590820C4.921875 -25.590820 4.636230 -25.703125 4.416504 -25.927734C4.196777 -26.152344 4.086914 -26.440430 4.086914 -26.791992ZM4.086914 -26.791992"></path></svg>