<svg width="3.984375" height="14.780273" viewBox="2.519531 -29.267578 3.984375 14.780273" xmlns="http://www.w3.org/2000/svg"><path d="M2.519531 -16.333008C2.519531 -16.909180 2.705078 -17.370605 3.076172 -17.717285C3.447266 -18.063965 3.930664 -18.237305 4.526367 -18.237305C5.102539 -18.237305 5.576172 -18.063965 5.947266 -17.717285C6.318359 -17.370605 6.503906 -16.909180 6.503906 -16.333008C6.503906 -15.766602 6.320801 -15.317383 5.954590 -14.985352C5.588379 -14.653320 5.112305 -14.487305 4.526367 -14.487305C3.930664 -14.487305 3.447266 -14.653320 3.076172 -14.985352C2.705078 -15.317383 2.519531 -15.766602 2.519531 -16.333008ZM2.519531 -27.377930C2.519531 -27.944336 2.705078 -28.400879 3.076172 -28.747559C3.447266 -29.094238 3.930664 -29.267578 4.526367 -29.267578C5.102539 -29.267578 5.576172 -29.094238 5.947266 -28.747559C6.318359 -28.400879 6.503906 -27.944336 6.503906 -27.377930C6.503906 -26.811523 6.318359 -26.354980 5.947266 -26.008301C5.576172 -25.661621 5.102539 -25.488281 4.526367 -25.488281C3.930664 -25.488281 3.447266 -25.661621 3.076172 -26.008301C2.705078 -26.354980 2.519531 -26.811523 2.519531 -27.377930ZM2.519531 -27.377930"></path></svg>