<svg width="5.668945" height="15.395508" viewBox="2.036133 -30.454102 5.668945 15.395508" xmlns="http://www.w3.org/2000/svg"><path d="M2.036133 -17.651367C2.036133 -18.452148 2.297363 -19.082031 2.819824 -19.541016C3.342285 -20.000000 4.033203 -20.229492 4.892578 -20.229492C5.732422 -20.229492 6.411133 -20.000000 6.928711 -19.541016C7.446289 -19.082031 7.705078 -18.452148 7.705078 -17.651367C7.705078 -16.850586 7.446289 -16.218262 6.928711 -15.754395C6.411133 -15.290527 5.732422 -15.058594 4.892578 -15.058594C4.033203 -15.058594 3.342285 -15.290527 2.819824 -15.754395C2.297363 -16.218262 2.036133 -16.850586 2.036133 -17.651367ZM2.036133 -27.875977C2.036133 -28.676758 2.297363 -29.306641 2.819824 -29.765625C3.342285 -30.224609 4.033203 -30.454102 4.892578 -30.454102C5.732422 -30.454102 6.411133 -30.224609 6.928711 -29.765625C7.446289 -29.306641 7.705078 -28.676758 7.705078 -27.875977C7.705078 -27.075195 7.446289 -26.450195 6.928711 -26.000977C6.411133 -25.551758 5.732422 -25.327148 4.892578 -25.327148C4.033203 -25.327148 3.342285 -25.551758 2.819824 -26.000977C2.297363 -26.450195 2.036133 -27.075195 2.036133 -27.875977ZM2.036133 -27.875977"></path></svg>