<svg width="7.163086" height="19.262695" viewBox="0.996094 -34.321289 7.163086 19.262695" xmlns="http://www.w3.org/2000/svg"><path d="M0.996094 -15.058594L3.544922 -23.642578L8.159180 -23.642578L4.921875 -15.058594ZM2.036133 -31.743164C2.036133 -32.543945 2.297363 -33.173828 2.819824 -33.632812C3.342285 -34.091797 4.033203 -34.321289 4.892578 -34.321289C5.732422 -34.321289 6.411133 -34.091797 6.928711 -33.632812C7.446289 -33.173828 7.705078 -32.543945 7.705078 -31.743164C7.705078 -30.942383 7.446289 -30.317383 6.928711 -29.868164C6.411133 -29.418945 5.732422 -29.194336 4.892578 -29.194336C4.033203 -29.194336 3.342285 -29.418945 2.819824 -29.868164C2.297363 -30.317383 2.036133 -30.942383 2.036133 -31.743164ZM2.036133 -31.743164"></path></svg>