<svg width="5.039062" height="18.691406" viewBox="1.831055 -33.178711 5.039062 18.691406" xmlns="http://www.w3.org/2000/svg"><path d="M1.831055 -14.487305L3.925781 -21.870117L6.870117 -21.870117L4.116211 -14.487305ZM2.519531 -31.289062C2.519531 -31.855469 2.705078 -32.312012 3.076172 -32.658691C3.447266 -33.005371 3.930664 -33.178711 4.526367 -33.178711C5.102539 -33.178711 5.576172 -33.005371 5.947266 -32.658691C6.318359 -32.312012 6.503906 -31.855469 6.503906 -31.289062C6.503906 -30.722656 6.318359 -30.266113 5.947266 -29.919434C5.576172 -29.572754 5.102539 -29.399414 4.526367 -29.399414C3.930664 -29.399414 3.447266 -29.572754 3.076172 -29.919434C2.705078 -30.266113 2.519531 -30.722656 2.519531 -31.289062ZM2.519531 -31.289062"></path></svg>