<svg width="12.846680" height="21.342773" viewBox="1.494141 -42.348633 12.846680 21.342773" xmlns="http://www.w3.org/2000/svg"><path d="M1.494141 -40.034180C1.699219 -40.258789 1.950684 -40.480957 2.248535 -40.700684C2.546387 -40.920410 2.951660 -41.166992 3.464355 -41.440430C3.977051 -41.713867 4.621582 -41.933594 5.397949 -42.099609C6.174316 -42.265625 7.016602 -42.348633 7.924805 -42.348633C9.799805 -42.348633 11.337891 -41.831055 12.539062 -40.795898C13.740234 -39.760742 14.340820 -38.505859 14.340820 -37.031250C14.340820 -35.908203 14.157715 -35.017090 13.791504 -34.357910C13.425293 -33.698730 12.875977 -33.032227 12.143555 -32.358398C11.801758 -32.065430 11.301270 -31.679688 10.642090 -31.201172C9.982910 -30.722656 9.575195 -30.395508 9.418945 -30.219727C9.204102 -29.946289 9.096680 -29.575195 9.096680 -29.106445L9.052734 -27.700195L4.980469 -27.700195L4.951172 -29.648438C4.941406 -30.537109 5.085449 -31.254883 5.383301 -31.801758C5.681152 -32.348633 6.166992 -32.861328 6.840820 -33.339844L8.671875 -34.658203C9.091797 -34.960938 9.416504 -35.253906 9.645996 -35.537109C9.875488 -35.820312 9.990234 -36.147461 9.990234 -36.518555C9.990234 -37.143555 9.736328 -37.624512 9.228516 -37.961426C8.720703 -38.298340 8.012695 -38.466797 7.104492 -38.466797C5.522461 -38.466797 4.116211 -37.871094 2.885742 -36.679688ZM4.204102 -23.598633C4.204102 -24.399414 4.460449 -25.029297 4.973145 -25.488281C5.485840 -25.947266 6.166992 -26.176758 7.016602 -26.176758C7.866211 -26.176758 8.549805 -25.947266 9.067383 -25.488281C9.584961 -25.029297 9.843750 -24.399414 9.843750 -23.598633C9.843750 -22.797852 9.584961 -22.165527 9.067383 -21.701660C8.549805 -21.237793 7.866211 -21.005859 7.016602 -21.005859C6.166992 -21.005859 5.485840 -21.237793 4.973145 -21.701660C4.460449 -22.165527 4.204102 -22.797852 4.204102 -23.598633ZM4.204102 -23.598633"></path></svg>