<svg width="11.308594" height="21.298828" viewBox="1.772461 -42.304688 11.308594 21.298828" xmlns="http://www.w3.org/2000/svg"><path d="M1.772461 -39.477539C1.928711 -39.760742 2.133789 -40.039062 2.387695 -40.312500C2.641602 -40.585938 2.988281 -40.886230 3.427734 -41.213379C3.867188 -41.540527 4.431152 -41.804199 5.119629 -42.004395C5.808105 -42.204590 6.562500 -42.304688 7.382812 -42.304688C9.091797 -42.304688 10.468750 -41.821289 11.513672 -40.854492C12.558594 -39.887695 13.081055 -38.730469 13.081055 -37.382812C13.081055 -36.806641 13.020020 -36.281738 12.897949 -35.808105C12.775879 -35.334473 12.575684 -34.892578 12.297363 -34.482422C12.019043 -34.072266 11.774902 -33.750000 11.564941 -33.515625C11.354980 -33.281250 11.040039 -32.958984 10.620117 -32.548828C10.434570 -32.373047 10.187988 -32.143555 9.880371 -31.860352C9.572754 -31.577148 9.340820 -31.359863 9.184570 -31.208496C9.028320 -31.057129 8.864746 -30.874023 8.693848 -30.659180C8.522949 -30.444336 8.393555 -30.234375 8.305664 -30.029297C8.178711 -29.736328 8.100586 -29.365234 8.071289 -28.916016L8.012695 -26.821289L5.581055 -26.821289L5.522461 -28.945312C5.512695 -29.404297 5.551758 -29.833984 5.639648 -30.234375C5.727539 -30.634766 5.822754 -30.961914 5.925293 -31.215820C6.027832 -31.469727 6.198730 -31.745605 6.437988 -32.043457C6.677246 -32.341309 6.860352 -32.556152 6.987305 -32.687988C7.114258 -32.819824 7.324219 -33.022461 7.617188 -33.295898L9.360352 -34.892578C10.004883 -35.507812 10.327148 -36.235352 10.327148 -37.075195C10.327148 -37.954102 10.019531 -38.645020 9.404297 -39.147949C8.789062 -39.650879 7.973633 -39.902344 6.958008 -39.902344C6.049805 -39.902344 5.258789 -39.687500 4.584961 -39.257812C3.911133 -38.828125 3.393555 -38.300781 3.032227 -37.675781ZM4.833984 -22.851562C4.833984 -23.427734 5.014648 -23.889160 5.375977 -24.235840C5.737305 -24.582520 6.215820 -24.755859 6.811523 -24.755859C7.407227 -24.755859 7.885742 -24.582520 8.247070 -24.235840C8.608398 -23.889160 8.789062 -23.427734 8.789062 -22.851562C8.789062 -22.285156 8.608398 -21.835938 8.247070 -21.503906C7.885742 -21.171875 7.407227 -21.005859 6.811523 -21.005859C6.215820 -21.005859 5.737305 -21.171875 5.375977 -21.503906C5.014648 -21.835938 4.833984 -22.285156 4.833984 -22.851562ZM4.833984 -22.851562"></path></svg>