<svg width="9.741211" height="21.298828" viewBox="4.145508 -42.304688 9.741211 21.298828" xmlns="http://www.w3.org/2000/svg"><path d="M4.145508 -39.125977C5.366211 -41.245117 7.172852 -42.304688 9.565430 -42.304688C10.815430 -42.304688 11.848145 -41.953125 12.663574 -41.250000C13.479004 -40.546875 13.886719 -39.584961 13.886719 -38.364258C13.886719 -37.641602 13.776855 -36.982422 13.557129 -36.386719C13.337402 -35.791016 13.029785 -35.263672 12.634277 -34.804688C12.238770 -34.345703 11.835938 -33.933105 11.425781 -33.566895C11.015625 -33.200684 10.546875 -32.778320 10.019531 -32.299805C9.492188 -31.821289 9.062500 -31.372070 8.730469 -30.952148C8.486328 -30.649414 8.278809 -30.273438 8.107910 -29.824219C7.937012 -29.375000 7.822266 -29.018555 7.763672 -28.754883C7.705078 -28.491211 7.626953 -28.034668 7.529297 -27.385254C7.431641 -26.735840 7.373047 -26.357422 7.353516 -26.250000L6.005859 -26.250000C6.025391 -26.416016 6.059570 -26.726074 6.108398 -27.180176C6.157227 -27.634277 6.196289 -27.958984 6.225586 -28.154297C6.254883 -28.349609 6.306152 -28.637695 6.379395 -29.018555C6.452637 -29.399414 6.530762 -29.707031 6.613770 -29.941406C6.696777 -30.175781 6.811523 -30.444336 6.958008 -30.747070C7.104492 -31.049805 7.275391 -31.328125 7.470703 -31.582031C7.753906 -31.962891 8.127441 -32.363281 8.591309 -32.783203C9.055176 -33.203125 9.482422 -33.579102 9.873047 -33.911133C10.263672 -34.243164 10.644531 -34.609375 11.015625 -35.009766C11.386719 -35.410156 11.679688 -35.869141 11.894531 -36.386719C12.109375 -36.904297 12.216797 -37.475586 12.216797 -38.100586C12.216797 -38.969727 11.931152 -39.641113 11.359863 -40.114746C10.788574 -40.588379 10.063477 -40.825195 9.184570 -40.825195C8.344727 -40.825195 7.570801 -40.600586 6.862793 -40.151367C6.154785 -39.702148 5.605469 -39.096680 5.214844 -38.334961ZM4.643555 -22.163086C4.643555 -22.631836 4.804688 -23.039551 5.126953 -23.386230C5.449219 -23.732910 5.839844 -23.906250 6.298828 -23.906250C6.640625 -23.906250 6.921387 -23.796387 7.141113 -23.576660C7.360840 -23.356934 7.470703 -23.066406 7.470703 -22.705078C7.470703 -22.255859 7.309570 -21.860352 6.987305 -21.518555C6.665039 -21.176758 6.274414 -21.005859 5.815430 -21.005859C5.473633 -21.005859 5.192871 -21.113281 4.973145 -21.328125C4.753418 -21.542969 4.643555 -21.821289 4.643555 -22.163086ZM4.643555 -22.163086"></path></svg>