<svg width="21.723633" height="21.899414" viewBox="1.142578 -38.994141 21.723633 21.899414" xmlns="http://www.w3.org/2000/svg"><path d="M1.142578 -27.934570C1.142578 -29.526367 1.452637 -31.018066 2.072754 -32.409668C2.692871 -33.801270 3.518066 -34.973145 4.548340 -35.925293C5.578613 -36.877441 6.779785 -37.626953 8.151855 -38.173828C9.523926 -38.720703 10.947266 -38.994141 12.421875 -38.994141C15.585938 -38.994141 18.144531 -38.095703 20.097656 -36.298828C20.927734 -35.537109 21.596680 -34.611816 22.104492 -33.522949C22.612305 -32.434082 22.866211 -31.269531 22.866211 -30.029297C22.866211 -28.750000 22.663574 -27.587891 22.258301 -26.542969C21.853027 -25.498047 21.313477 -24.628906 20.639648 -23.935547C20.034180 -23.300781 19.335938 -22.802734 18.544922 -22.441406C17.753906 -22.080078 16.982422 -21.899414 16.230469 -21.899414C15.478516 -21.899414 14.870605 -22.060547 14.406738 -22.382812C13.942871 -22.705078 13.652344 -23.144531 13.535156 -23.701172C12.333984 -22.500000 11.142578 -21.899414 9.960938 -21.899414C9.501953 -21.899414 9.050293 -21.982422 8.605957 -22.148438C8.161621 -22.314453 7.736816 -22.570801 7.331543 -22.917480C6.926270 -23.264160 6.599121 -23.762207 6.350098 -24.411621C6.101074 -25.061035 5.976562 -25.815430 5.976562 -26.674805C5.976562 -27.905273 6.230469 -29.079590 6.738281 -30.197754C7.246094 -31.315918 7.988281 -32.236328 8.964844 -32.958984C9.941406 -33.681641 11.035156 -34.042969 12.246094 -34.042969C12.695312 -34.042969 13.117676 -33.999023 13.513184 -33.911133C13.908691 -33.823242 14.226074 -33.715820 14.465332 -33.588867C14.704590 -33.461914 14.909668 -33.334961 15.080566 -33.208008C15.251465 -33.081055 15.371094 -32.973633 15.439453 -32.885742L15.541992 -32.753906L15.776367 -33.544922L18.237305 -33.544922L16.289062 -26.220703C16.201172 -25.888672 16.142578 -25.610352 16.113281 -25.385742C16.083984 -25.161133 16.083984 -24.938965 16.113281 -24.719238C16.142578 -24.499512 16.232910 -24.333496 16.384277 -24.221191C16.535645 -24.108887 16.752930 -24.052734 17.036133 -24.052734C17.416992 -24.052734 17.814941 -24.187012 18.229980 -24.455566C18.645020 -24.724121 19.033203 -25.097656 19.394531 -25.576172C19.755859 -26.054688 20.053711 -26.669922 20.288086 -27.421875C20.522461 -28.173828 20.639648 -28.984375 20.639648 -29.853516C20.639648 -31.982422 19.909668 -33.708496 18.449707 -35.031738C16.989746 -36.354980 15.009766 -37.016602 12.509766 -37.016602C11.250000 -37.016602 10.068359 -36.794434 8.964844 -36.350098C7.861328 -35.905762 6.906738 -35.290527 6.101074 -34.504395C5.295410 -33.718262 4.658203 -32.756348 4.189453 -31.618652C3.720703 -30.480957 3.486328 -29.252930 3.486328 -27.934570C3.486328 -25.239258 4.279785 -23.088379 5.866699 -21.481934C7.453613 -19.875488 9.555664 -19.072266 12.172852 -19.072266C12.690430 -19.072266 13.190918 -19.091797 13.674316 -19.130859C14.157715 -19.169922 14.621582 -19.240723 15.065918 -19.343262C15.510254 -19.445801 15.886230 -19.533691 16.193848 -19.606934C16.501465 -19.680176 16.855469 -19.797363 17.255859 -19.958496C17.656250 -20.119629 17.927246 -20.227051 18.068848 -20.280762C18.210449 -20.334473 18.466797 -20.451660 18.837891 -20.632324C19.208984 -20.812988 19.399414 -20.903320 19.409180 -20.903320L20.185547 -19.350586C20.175781 -19.340820 20.026855 -19.252930 19.738770 -19.086914C19.450684 -18.920898 19.245605 -18.803711 19.123535 -18.735352C19.001465 -18.666992 18.759766 -18.547363 18.398438 -18.376465C18.037109 -18.205566 17.724609 -18.076172 17.460938 -17.988281C17.197266 -17.900391 16.838379 -17.790527 16.384277 -17.658691C15.930176 -17.526855 15.488281 -17.426758 15.058594 -17.358398C14.628906 -17.290039 14.128418 -17.229004 13.557129 -17.175293C12.985840 -17.121582 12.397461 -17.094727 11.791992 -17.094727C10.307617 -17.094727 8.913574 -17.353516 7.609863 -17.871094C6.306152 -18.388672 5.178223 -19.111328 4.226074 -20.039062C3.273926 -20.966797 2.521973 -22.111816 1.970215 -23.474121C1.418457 -24.836426 1.142578 -26.323242 1.142578 -27.934570ZM8.613281 -26.909180C8.613281 -26.020508 8.811035 -25.344238 9.206543 -24.880371C9.602051 -24.416504 10.141602 -24.184570 10.825195 -24.184570C11.547852 -24.184570 12.209473 -24.448242 12.810059 -24.975586C13.410645 -25.502930 13.842773 -26.269531 14.106445 -27.275391L15.058594 -30.805664C15.039062 -30.834961 15.007324 -30.876465 14.963379 -30.930176C14.919434 -30.983887 14.821777 -31.076660 14.670410 -31.208496C14.519043 -31.340332 14.355469 -31.455078 14.179688 -31.552734C14.003906 -31.650391 13.771973 -31.740723 13.483887 -31.823730C13.195801 -31.906738 12.890625 -31.948242 12.568359 -31.948242C11.474609 -31.948242 10.546875 -31.459961 9.785156 -30.483398C9.443359 -30.034180 9.162598 -29.484863 8.942871 -28.835449C8.723145 -28.186035 8.613281 -27.543945 8.613281 -26.909180ZM8.613281 -26.909180"></path></svg>