<svg width="21.328125" height="22.338867" viewBox="1.406250 -40.034180 21.328125 22.338867" xmlns="http://www.w3.org/2000/svg"><path d="M1.406250 -26.425781C1.406250 -27.568359 1.555176 -28.708496 1.853027 -29.846191C2.150879 -30.983887 2.570801 -32.050781 3.112793 -33.046875C3.654785 -34.042969 4.318848 -34.973145 5.104980 -35.837402C5.891113 -36.701660 6.752930 -37.441406 7.690430 -38.056641C8.627930 -38.671875 9.665527 -39.155273 10.803223 -39.506836C11.940918 -39.858398 13.110352 -40.034180 14.311523 -40.034180C15.454102 -40.034180 16.533203 -39.863281 17.548828 -39.521484C18.564453 -39.179688 19.458008 -38.696289 20.229492 -38.071289C21.000977 -37.446289 21.611328 -36.650391 22.060547 -35.683594C22.509766 -34.716797 22.734375 -33.647461 22.734375 -32.475586C22.734375 -31.655273 22.602539 -30.778809 22.338867 -29.846191C22.075195 -28.913574 21.691895 -28.005371 21.188965 -27.121582C20.686035 -26.237793 20.107422 -25.437012 19.453125 -24.719238C18.798828 -24.001465 18.039551 -23.425293 17.175293 -22.990723C16.311035 -22.556152 15.424805 -22.338867 14.516602 -22.338867C13.247070 -22.338867 12.626953 -22.968750 12.656250 -24.228516C12.119141 -23.701172 11.474609 -23.254395 10.722656 -22.888184C9.970703 -22.521973 9.174805 -22.338867 8.334961 -22.338867C7.465820 -22.338867 6.804199 -22.658691 6.350098 -23.298340C5.895996 -23.937988 5.668945 -24.707031 5.668945 -25.605469C5.668945 -26.396484 5.805664 -27.246094 6.079102 -28.154297C6.352539 -29.062500 6.745605 -29.946289 7.258301 -30.805664C7.770996 -31.665039 8.359375 -32.446289 9.023438 -33.149414C9.687500 -33.852539 10.441895 -34.416504 11.286621 -34.841309C12.131348 -35.266113 12.988281 -35.478516 13.857422 -35.478516C14.511719 -35.478516 15.114746 -35.346680 15.666504 -35.083008C16.218262 -34.819336 16.606445 -34.409180 16.831055 -33.852539L17.343750 -34.877930L19.086914 -34.877930C19.008789 -34.731445 18.754883 -34.240723 18.325195 -33.405762C17.895508 -32.570801 17.475586 -31.750488 17.065430 -30.944824C16.655273 -30.139160 16.228027 -29.274902 15.783691 -28.352051C15.339355 -27.429199 14.978027 -26.625977 14.699707 -25.942383C14.421387 -25.258789 14.282227 -24.799805 14.282227 -24.565430C14.282227 -24.057617 14.580078 -23.803711 15.175781 -23.803711C16.005859 -23.803711 16.811523 -24.101562 17.592773 -24.697266C18.374023 -25.292969 19.028320 -26.030273 19.555664 -26.909180C20.083008 -27.788086 20.505371 -28.708496 20.822754 -29.670410C21.140137 -30.632324 21.298828 -31.489258 21.298828 -32.241211C21.298828 -33.588867 20.964355 -34.753418 20.295410 -35.734863C19.626465 -36.716309 18.754883 -37.443848 17.680664 -37.917480C16.606445 -38.391113 15.405273 -38.627930 14.077148 -38.627930C12.543945 -38.627930 11.081543 -38.288574 9.689941 -37.609863C8.298340 -36.931152 7.114258 -36.035156 6.137695 -34.921875C5.161133 -33.808594 4.384766 -32.529297 3.808594 -31.083984C3.232422 -29.638672 2.944336 -28.164062 2.944336 -26.660156C2.944336 -24.414062 3.581543 -22.592773 4.855957 -21.196289C6.130371 -19.799805 7.880859 -19.101562 10.107422 -19.101562C11.523438 -19.101562 13.083496 -19.345703 14.787598 -19.833984C16.491699 -20.322266 17.812500 -20.976562 18.750000 -21.796875L19.204102 -20.786133C18.090820 -19.790039 16.669922 -19.025879 14.941406 -18.493652C13.212891 -17.961426 11.533203 -17.695312 9.902344 -17.695312C7.304688 -17.695312 5.239258 -18.498535 3.706055 -20.104980C2.172852 -21.711426 1.406250 -23.818359 1.406250 -26.425781ZM7.294922 -26.000977C7.294922 -25.327148 7.443848 -24.792480 7.741699 -24.396973C8.039551 -24.001465 8.510742 -23.803711 9.155273 -23.803711C9.663086 -23.803711 10.156250 -23.916016 10.634766 -24.140625C11.113281 -24.365234 11.552734 -24.685059 11.953125 -25.100098C12.353516 -25.515137 12.722168 -25.952148 13.059082 -26.411133C13.395996 -26.870117 13.723145 -27.404785 14.040527 -28.015137C14.357910 -28.625488 14.624023 -29.160156 14.838867 -29.619141C15.053711 -30.078125 15.285645 -30.593262 15.534668 -31.164551C15.783691 -31.735840 15.966797 -32.143555 16.083984 -32.387695C15.976562 -32.944336 15.671387 -33.364258 15.168457 -33.647461C14.665527 -33.930664 14.111328 -34.072266 13.505859 -34.072266C12.714844 -34.072266 11.926270 -33.791504 11.140137 -33.229980C10.354004 -32.668457 9.687500 -31.975098 9.140625 -31.149902C8.593750 -30.324707 8.149414 -29.445801 7.807617 -28.513184C7.465820 -27.580566 7.294922 -26.743164 7.294922 -26.000977ZM7.294922 -26.000977"></path></svg>