<svg width="21.533203" height="22.177734" viewBox="1.230469 -39.638672 21.533203 22.177734" xmlns="http://www.w3.org/2000/svg"><path d="M1.230469 -28.359375C1.230469 -29.990234 1.542969 -31.516113 2.167969 -32.937012C2.792969 -34.357910 3.625488 -35.551758 4.665527 -36.518555C5.705566 -37.485352 6.906738 -38.247070 8.269043 -38.803711C9.631348 -39.360352 11.044922 -39.638672 12.509766 -39.638672C15.634766 -39.638672 18.164062 -38.720703 20.097656 -36.884766C20.927734 -36.103516 21.579590 -35.175781 22.053223 -34.101562C22.526855 -33.027344 22.763672 -31.875000 22.763672 -30.644531C22.763672 -29.384766 22.553711 -28.215332 22.133789 -27.136230C21.713867 -26.057129 21.147461 -25.146484 20.434570 -24.404297C19.790039 -23.701172 19.067383 -23.154297 18.266602 -22.763672C17.465820 -22.373047 16.684570 -22.177734 15.922852 -22.177734C14.477539 -22.177734 13.637695 -22.807617 13.403320 -24.067383C12.143555 -22.807617 10.864258 -22.177734 9.565430 -22.177734C9.272461 -22.177734 8.977051 -22.216797 8.679199 -22.294922C8.381348 -22.373047 8.063965 -22.519531 7.727051 -22.734375C7.390137 -22.949219 7.094727 -23.222656 6.840820 -23.554688C6.586914 -23.886719 6.374512 -24.331055 6.203613 -24.887695C6.032715 -25.444336 5.947266 -26.079102 5.947266 -26.791992C5.947266 -27.534180 6.052246 -28.291016 6.262207 -29.062500C6.472168 -29.833984 6.777344 -30.563965 7.177734 -31.252441C7.578125 -31.940918 8.044434 -32.558594 8.576660 -33.105469C9.108887 -33.652344 9.726562 -34.086914 10.429688 -34.409180C11.132812 -34.731445 11.865234 -34.892578 12.626953 -34.892578C13.105469 -34.892578 13.552246 -34.841309 13.967285 -34.738770C14.382324 -34.636230 14.714355 -34.511719 14.963379 -34.365234C15.212402 -34.218750 15.427246 -34.072266 15.607910 -33.925781C15.788574 -33.779297 15.913086 -33.652344 15.981445 -33.544922L16.083984 -33.398438L16.376953 -34.350586L18.325195 -34.350586L15.776367 -26.352539C15.620117 -25.844727 15.524902 -25.422363 15.490723 -25.085449C15.456543 -24.748535 15.520020 -24.465332 15.681152 -24.235840C15.842285 -24.006348 16.123047 -23.891602 16.523438 -23.891602C17.011719 -23.891602 17.519531 -24.057617 18.046875 -24.389648C18.574219 -24.721680 19.060059 -25.170898 19.504395 -25.737305C19.948730 -26.303711 20.314941 -27.014160 20.603027 -27.868652C20.891113 -28.723145 21.035156 -29.624023 21.035156 -30.571289C21.035156 -32.709961 20.256348 -34.489746 18.698730 -35.910645C17.141113 -37.331543 15.097656 -38.041992 12.568359 -38.041992C10.849609 -38.041992 9.267578 -37.634277 7.822266 -36.818848C6.376953 -36.003418 5.222168 -34.851074 4.357910 -33.361816C3.493652 -31.872559 3.061523 -30.205078 3.061523 -28.359375C3.061523 -26.503906 3.439941 -24.868164 4.196777 -23.452148C4.953613 -22.036133 5.998535 -20.949707 7.331543 -20.192871C8.664551 -19.436035 10.180664 -19.057617 11.879883 -19.057617C14.750977 -19.057617 17.382812 -19.819336 19.775391 -21.342773C19.843750 -21.381836 19.892578 -21.411133 19.921875 -21.430664L20.581055 -20.200195C20.561523 -20.190430 20.454102 -20.114746 20.258789 -19.973145C20.063477 -19.831543 19.882812 -19.707031 19.716797 -19.599609C19.550781 -19.492188 19.304199 -19.345703 18.977051 -19.160156C18.649902 -18.974609 18.325195 -18.813477 18.002930 -18.676758C17.680664 -18.540039 17.280273 -18.391113 16.801758 -18.229980C16.323242 -18.068848 15.839844 -17.934570 15.351562 -17.827148C14.863281 -17.719727 14.304199 -17.631836 13.674316 -17.563477C13.044434 -17.495117 12.397461 -17.460938 11.733398 -17.460938C10.268555 -17.460938 8.896484 -17.719727 7.617188 -18.237305C6.337891 -18.754883 5.224609 -19.477539 4.277344 -20.405273C3.330078 -21.333008 2.585449 -22.482910 2.043457 -23.854980C1.501465 -25.227051 1.230469 -26.728516 1.230469 -28.359375ZM7.954102 -26.982422C7.954102 -25.878906 8.176270 -25.097656 8.620605 -24.638672C9.064941 -24.179688 9.609375 -23.950195 10.253906 -23.950195C10.566406 -23.950195 10.893555 -24.011230 11.235352 -24.133301C11.577148 -24.255371 11.940918 -24.448242 12.326660 -24.711914C12.712402 -24.975586 13.076172 -25.361328 13.417969 -25.869141C13.759766 -26.376953 14.038086 -26.977539 14.252930 -27.670898L15.571289 -31.772461L15.512695 -31.860352C15.473633 -31.918945 15.419922 -31.992188 15.351562 -32.080078C15.283203 -32.167969 15.200195 -32.263184 15.102539 -32.365723C15.004883 -32.468262 14.877930 -32.570801 14.721680 -32.673340C14.565430 -32.775879 14.392090 -32.871094 14.201660 -32.958984C14.011230 -33.046875 13.781738 -33.117676 13.513184 -33.171387C13.244629 -33.225098 12.958984 -33.251953 12.656250 -33.251953C11.367188 -33.251953 10.278320 -32.612305 9.389648 -31.333008C8.950195 -30.717773 8.601074 -30.019531 8.342285 -29.238281C8.083496 -28.457031 7.954102 -27.705078 7.954102 -26.982422ZM7.954102 -26.982422"></path></svg>