<svg width="16.054688" height="20.698242" viewBox="1.889648 -41.396484 16.054688 20.698242" xmlns="http://www.w3.org/2000/svg"><path d="M1.889648 -20.698242L1.889648 -41.396484L8.935547 -41.396484C11.230469 -41.396484 12.929688 -41.108398 14.033203 -40.532227C14.814453 -40.122070 15.451660 -39.558105 15.944824 -38.840332C16.437988 -38.122559 16.684570 -37.236328 16.684570 -36.181641C16.684570 -35.097656 16.386719 -34.138184 15.791016 -33.303223C15.195312 -32.468262 14.482422 -31.904297 13.652344 -31.611328L13.652344 -31.552734C14.970703 -31.230469 16.015625 -30.644531 16.787109 -29.794922C17.558594 -28.945312 17.944336 -27.895508 17.944336 -26.645508C17.944336 -24.692383 17.182617 -23.159180 15.659180 -22.045898C14.438477 -21.147461 12.670898 -20.698242 10.356445 -20.698242ZM6.723633 -24.389648L9.389648 -24.389648C9.995117 -24.389648 10.493164 -24.426270 10.883789 -24.499512C11.274414 -24.572754 11.635742 -24.726562 11.967773 -24.960938C12.670898 -25.429688 13.022461 -26.118164 13.022461 -27.026367C13.022461 -27.905273 12.670898 -28.593750 11.967773 -29.091797C11.635742 -29.326172 11.274414 -29.479980 10.883789 -29.553223C10.493164 -29.626465 9.995117 -29.663086 9.389648 -29.663086L6.723633 -29.663086ZM6.723633 -33.032227L8.613281 -33.032227C9.218750 -33.032227 9.682617 -33.059082 10.004883 -33.112793C10.327148 -33.166504 10.620117 -33.286133 10.883789 -33.471680C11.567383 -33.959961 11.909180 -34.624023 11.909180 -35.463867C11.909180 -36.323242 11.567383 -36.962891 10.883789 -37.382812C10.610352 -37.558594 10.327148 -37.670898 10.034180 -37.719727C9.741211 -37.768555 9.306641 -37.792969 8.730469 -37.792969L6.723633 -37.792969ZM6.723633 -33.032227"></path></svg>