<svg width="18.339844" height="21.372070" viewBox="0.834961 -42.377930 18.339844 21.372070" xmlns="http://www.w3.org/2000/svg"><path d="M0.834961 -31.699219C0.834961 -33.330078 1.118164 -34.824219 1.684570 -36.181641C2.250977 -37.539062 3.024902 -38.664551 4.006348 -39.558105C4.987793 -40.451660 6.137695 -41.145020 7.456055 -41.638184C8.774414 -42.131348 10.190430 -42.377930 11.704102 -42.377930C12.700195 -42.377930 13.635254 -42.287598 14.509277 -42.106934C15.383301 -41.926270 16.105957 -41.694336 16.677246 -41.411133C17.248535 -41.127930 17.702637 -40.874023 18.039551 -40.649414C18.376465 -40.424805 18.632812 -40.219727 18.808594 -40.034180L17.314453 -36.005859C17.001953 -36.406250 16.330566 -36.867676 15.300293 -37.390137C14.270020 -37.912598 13.159180 -38.173828 11.967773 -38.173828C10.161133 -38.173828 8.674316 -37.602539 7.507324 -36.459961C6.340332 -35.317383 5.756836 -33.759766 5.756836 -31.787109C5.756836 -29.833984 6.352539 -28.283691 7.543945 -27.136230C8.735352 -25.988770 10.209961 -25.415039 11.967773 -25.415039C13.168945 -25.415039 14.240723 -25.620117 15.183105 -26.030273C16.125488 -26.440430 16.914062 -26.967773 17.548828 -27.612305L19.174805 -23.833008C17.338867 -21.948242 14.848633 -21.005859 11.704102 -21.005859C9.663086 -21.005859 7.824707 -21.428223 6.188965 -22.272949C4.553223 -23.117676 3.251953 -24.357910 2.285156 -25.993652C1.318359 -27.629395 0.834961 -29.531250 0.834961 -31.699219ZM0.834961 -31.699219"></path></svg>