<svg width="17.607422" height="20.698242" viewBox="1.831055 -41.396484 17.607422 20.698242" xmlns="http://www.w3.org/2000/svg"><path d="M1.831055 -20.698242L5.097656 -41.396484L10.590820 -41.396484C12.290039 -41.396484 13.808594 -41.047363 15.146484 -40.349121C16.484375 -39.650879 17.534180 -38.647461 18.295898 -37.338867C19.057617 -36.030273 19.438477 -34.521484 19.438477 -32.812500C19.438477 -30.595703 18.901367 -28.559570 17.827148 -26.704102C16.752930 -24.848633 15.288086 -23.383789 13.432617 -22.309570C11.577148 -21.235352 9.541016 -20.698242 7.324219 -20.698242ZM3.662109 -22.221680L7.412109 -22.221680C8.828125 -22.221680 10.173340 -22.495117 11.447754 -23.041992C12.722168 -23.588867 13.818359 -24.328613 14.736328 -25.261230C15.654297 -26.193848 16.381836 -27.302246 16.918945 -28.586426C17.456055 -29.870605 17.724609 -31.220703 17.724609 -32.636719C17.724609 -34.873047 17.033691 -36.638184 15.651855 -37.932129C14.270020 -39.226074 12.451172 -39.873047 10.195312 -39.873047L6.474609 -39.873047ZM3.662109 -22.221680"></path></svg>