<svg width="19.980469" height="21.342773" viewBox="0.834961 -42.348633 19.980469 21.342773" xmlns="http://www.w3.org/2000/svg"><path d="M0.834961 -31.699219C0.834961 -33.378906 1.127930 -34.899902 1.713867 -36.262207C2.299805 -37.624512 3.093262 -38.745117 4.094238 -39.624023C5.095215 -40.502930 6.242676 -41.176758 7.536621 -41.645508C8.830566 -42.114258 10.209961 -42.348633 11.674805 -42.348633C15.180664 -42.348633 17.988281 -41.181641 20.097656 -38.847656C20.117188 -38.828125 20.134277 -38.808594 20.148926 -38.789062C20.163574 -38.769531 20.175781 -38.754883 20.185547 -38.745117L16.977539 -35.947266C15.561523 -37.529297 13.793945 -38.320312 11.674805 -38.320312C9.956055 -38.320312 8.540039 -37.729492 7.426758 -36.547852C6.313477 -35.366211 5.756836 -33.750000 5.756836 -31.699219C5.756836 -29.658203 6.325684 -28.041992 7.463379 -26.850586C8.601074 -25.659180 10.034180 -25.063477 11.762695 -25.063477C12.387695 -25.063477 12.963867 -25.109863 13.491211 -25.202637C14.018555 -25.295410 14.436035 -25.405273 14.743652 -25.532227C15.051270 -25.659180 15.312500 -25.786133 15.527344 -25.913086C15.742188 -26.040039 15.888672 -26.147461 15.966797 -26.235352L16.083984 -26.381836L16.083984 -29.443359L11.733398 -29.443359L11.733398 -33.134766L20.815430 -33.134766L20.815430 -24.550781C20.786133 -24.521484 20.668945 -24.414062 20.463867 -24.228516C20.258789 -24.042969 20.102539 -23.906250 19.995117 -23.818359C19.887695 -23.730469 19.704590 -23.586426 19.445801 -23.386230C19.187012 -23.186035 18.959961 -23.024902 18.764648 -22.902832C18.569336 -22.780762 18.303223 -22.626953 17.966309 -22.441406C17.629395 -22.255859 17.309570 -22.104492 17.006836 -21.987305C16.704102 -21.870117 16.342773 -21.743164 15.922852 -21.606445C15.502930 -21.469727 15.080566 -21.362305 14.655762 -21.284180C14.230957 -21.206055 13.757324 -21.140137 13.234863 -21.086426C12.712402 -21.032715 12.172852 -21.005859 11.616211 -21.005859C10.170898 -21.005859 8.803711 -21.242676 7.514648 -21.716309C6.225586 -22.189941 5.083008 -22.868652 4.086914 -23.752441C3.090820 -24.636230 2.299805 -25.764160 1.713867 -27.136230C1.127930 -28.508301 0.834961 -30.029297 0.834961 -31.699219ZM0.834961 -31.699219"></path></svg>