<svg width="19.145508" height="21.372070" viewBox="2.065430 -42.377930 19.145508 21.372070" xmlns="http://www.w3.org/2000/svg"><path d="M2.065430 -29.736328C2.065430 -31.386719 2.360840 -32.980957 2.951660 -34.519043C3.542480 -36.057129 4.348145 -37.404785 5.368652 -38.562012C6.389160 -39.719238 7.641602 -40.644531 9.125977 -41.337891C10.610352 -42.031250 12.197266 -42.377930 13.886719 -42.377930C15.478516 -42.377930 16.867676 -42.084961 18.054199 -41.499023C19.240723 -40.913086 20.292969 -39.975586 21.210938 -38.686523L19.951172 -37.514648C18.535156 -39.750977 16.435547 -40.869141 13.652344 -40.869141C12.207031 -40.869141 10.861816 -40.561523 9.616699 -39.946289C8.371582 -39.331055 7.329102 -38.510742 6.489258 -37.485352C5.649414 -36.459961 4.992676 -35.285645 4.519043 -33.962402C4.045410 -32.639160 3.808594 -31.274414 3.808594 -29.868164C3.808594 -27.680664 4.458008 -25.922852 5.756836 -24.594727C7.055664 -23.266602 8.798828 -22.602539 10.986328 -22.602539C12.216797 -22.602539 13.486328 -22.788086 14.794922 -23.159180C16.103516 -23.530273 17.124023 -24.086914 17.856445 -24.829102L18.720703 -30.424805L12.597656 -30.424805L12.846680 -31.933594L20.551758 -31.933594L19.291992 -24.067383C18.354492 -23.041992 17.084961 -22.275391 15.483398 -21.767578C13.881836 -21.259766 12.250977 -21.005859 10.590820 -21.005859C8.032227 -21.005859 5.971680 -21.818848 4.409180 -23.444824C2.846680 -25.070801 2.065430 -27.167969 2.065430 -29.736328ZM2.065430 -29.736328"></path></svg>