<svg width="6.503906" height="26.704102" viewBox="-1.318359 -47.402344 6.503906 26.704102" xmlns="http://www.w3.org/2000/svg"><path d="M-1.318359 -21.064453L-1.259766 -23.291016C-0.839844 -23.125000 -0.307617 -23.041992 0.336914 -23.041992C0.678711 -23.041992 0.969238 -23.107910 1.208496 -23.239746C1.447754 -23.371582 1.635742 -23.542480 1.772461 -23.752441C1.909180 -23.962402 2.016602 -24.233398 2.094727 -24.565430C2.172852 -24.897461 2.224121 -25.222168 2.248535 -25.539551C2.272949 -25.856934 2.285156 -26.235352 2.285156 -26.674805L2.285156 -47.402344L5.185547 -47.402344L5.185547 -26.762695C5.185547 -24.790039 4.877930 -23.330078 4.262695 -22.382812C3.442383 -21.259766 2.329102 -20.698242 0.922852 -20.698242C0.561523 -20.698242 0.200195 -20.725098 -0.161133 -20.778809C-0.522461 -20.832520 -0.795898 -20.886230 -0.981445 -20.939941C-1.166992 -20.993652 -1.279297 -21.035156 -1.318359 -21.064453ZM-1.318359 -21.064453"></path></svg>