<svg width="21.357422" height="21.372070" viewBox="1.113281 -42.377930 21.357422 21.372070" xmlns="http://www.w3.org/2000/svg"><path d="M1.113281 -31.699219C1.113281 -33.320312 1.396484 -34.807129 1.962891 -36.159668C2.529297 -37.512207 3.298340 -38.637695 4.270020 -39.536133C5.241699 -40.434570 6.374512 -41.132812 7.668457 -41.630859C8.962402 -42.128906 10.336914 -42.377930 11.791992 -42.377930C13.247070 -42.377930 14.621582 -42.128906 15.915527 -41.630859C17.209473 -41.132812 18.342285 -40.434570 19.313965 -39.536133C20.285645 -38.637695 21.054688 -37.512207 21.621094 -36.159668C22.187500 -34.807129 22.470703 -33.320312 22.470703 -31.699219C22.470703 -30.078125 22.187500 -28.591309 21.621094 -27.238770C21.054688 -25.886230 20.285645 -24.758301 19.313965 -23.854980C18.342285 -22.951660 17.209473 -22.250977 15.915527 -21.752930C14.621582 -21.254883 13.247070 -21.005859 11.791992 -21.005859C10.336914 -21.005859 8.962402 -21.254883 7.668457 -21.752930C6.374512 -22.250977 5.241699 -22.951660 4.270020 -23.854980C3.298340 -24.758301 2.529297 -25.886230 1.962891 -27.238770C1.396484 -28.591309 1.113281 -30.078125 1.113281 -31.699219ZM4.086914 -31.757812C4.086914 -30.527344 4.291992 -29.399414 4.702148 -28.374023C5.112305 -27.348633 5.666504 -26.494141 6.364746 -25.810547C7.062988 -25.126953 7.878418 -24.597168 8.811035 -24.221191C9.743652 -23.845215 10.737305 -23.657227 11.791992 -23.657227C12.846680 -23.657227 13.842773 -23.845215 14.780273 -24.221191C15.717773 -24.597168 16.535645 -25.126953 17.233887 -25.810547C17.932129 -26.494141 18.483887 -27.348633 18.889160 -28.374023C19.294434 -29.399414 19.497070 -30.527344 19.497070 -31.757812C19.497070 -32.998047 19.294434 -34.130859 18.889160 -35.156250C18.483887 -36.181641 17.932129 -37.033691 17.233887 -37.712402C16.535645 -38.391113 15.717773 -38.918457 14.780273 -39.294434C13.842773 -39.670410 12.846680 -39.858398 11.791992 -39.858398C10.737305 -39.858398 9.741211 -39.670410 8.803711 -39.294434C7.866211 -38.918457 7.048340 -38.391113 6.350098 -37.712402C5.651855 -37.033691 5.100098 -36.181641 4.694824 -35.156250C4.289551 -34.130859 4.086914 -32.998047 4.086914 -31.757812ZM4.086914 -31.757812"></path></svg>