<svg width="21.958008" height="21.401367" viewBox="0.834961 -42.436523 21.958008 21.401367" xmlns="http://www.w3.org/2000/svg"><path d="M0.834961 -31.728516C0.834961 -33.369141 1.118164 -34.865723 1.684570 -36.218262C2.250977 -37.570801 3.029785 -38.698730 4.020996 -39.602051C5.012207 -40.505371 6.176758 -41.203613 7.514648 -41.696777C8.852539 -42.189941 10.288086 -42.436523 11.821289 -42.436523C13.354492 -42.436523 14.790039 -42.189941 16.127930 -41.696777C17.465820 -41.203613 18.627930 -40.505371 19.614258 -39.602051C20.600586 -38.698730 21.376953 -37.570801 21.943359 -36.218262C22.509766 -34.865723 22.792969 -33.369141 22.792969 -31.728516C22.792969 -30.087891 22.509766 -28.591309 21.943359 -27.238770C21.376953 -25.886230 20.600586 -24.760742 19.614258 -23.862305C18.627930 -22.963867 17.465820 -22.268066 16.127930 -21.774902C14.790039 -21.281738 13.354492 -21.035156 11.821289 -21.035156C9.760742 -21.035156 7.905273 -21.455078 6.254883 -22.294922C4.604492 -23.134766 3.288574 -24.372559 2.307129 -26.008301C1.325684 -27.644043 0.834961 -29.550781 0.834961 -31.728516ZM5.756836 -31.845703C5.756836 -29.902344 6.328125 -28.334961 7.470703 -27.143555C8.613281 -25.952148 10.063477 -25.356445 11.821289 -25.356445C13.579102 -25.356445 15.029297 -25.952148 16.171875 -27.143555C17.314453 -28.334961 17.885742 -29.902344 17.885742 -31.845703C17.885742 -33.779297 17.314453 -35.336914 16.171875 -36.518555C15.029297 -37.700195 13.579102 -38.291016 11.821289 -38.291016C10.063477 -38.291016 8.613281 -37.702637 7.470703 -36.525879C6.328125 -35.349121 5.756836 -33.789062 5.756836 -31.845703ZM5.756836 -31.845703"></path></svg>