<svg width="14.970703" height="20.698242" viewBox="1.889648 -41.396484 14.970703 20.698242" xmlns="http://www.w3.org/2000/svg"><path d="M1.889648 -20.698242L1.889648 -41.396484L9.301758 -41.396484C11.655273 -41.396484 13.457031 -40.878906 14.707031 -39.843750C16.142578 -38.652344 16.860352 -37.001953 16.860352 -34.892578C16.860352 -32.792969 16.142578 -31.132812 14.707031 -29.912109C13.447266 -28.867188 11.645508 -28.344727 9.301758 -28.344727L6.752930 -28.344727L6.752930 -20.698242ZM6.723633 -32.094727L8.613281 -32.094727C9.638672 -32.094727 10.419922 -32.285156 10.957031 -32.666016C11.611328 -33.154297 11.938477 -33.896484 11.938477 -34.892578C11.938477 -35.859375 11.611328 -36.586914 10.957031 -37.075195C10.419922 -37.456055 9.638672 -37.646484 8.613281 -37.646484L6.723633 -37.646484ZM6.723633 -32.094727"></path></svg>