<svg width="21.958008" height="22.924805" viewBox="0.834961 -43.959961 21.958008 22.924805" xmlns="http://www.w3.org/2000/svg"><path d="M0.834961 -33.251953C0.834961 -34.892578 1.118164 -36.389160 1.684570 -37.741699C2.250977 -39.094238 3.029785 -40.222168 4.020996 -41.125488C5.012207 -42.028809 6.176758 -42.727051 7.514648 -43.220215C8.852539 -43.713379 10.288086 -43.959961 11.821289 -43.959961C13.354492 -43.959961 14.790039 -43.713379 16.127930 -43.220215C17.465820 -42.727051 18.627930 -42.028809 19.614258 -41.125488C20.600586 -40.222168 21.376953 -39.094238 21.943359 -37.741699C22.509766 -36.389160 22.792969 -34.892578 22.792969 -33.251953C22.792969 -30.449219 21.987305 -28.095703 20.375977 -26.191406L22.617188 -23.642578L19.643555 -21.035156L17.255859 -23.759766C15.605469 -22.958984 13.793945 -22.558594 11.821289 -22.558594C9.760742 -22.558594 7.905273 -22.978516 6.254883 -23.818359C4.604492 -24.658203 3.288574 -25.895996 2.307129 -27.531738C1.325684 -29.167480 0.834961 -31.074219 0.834961 -33.251953ZM5.756836 -33.369141C5.756836 -31.425781 6.328125 -29.858398 7.470703 -28.666992C8.613281 -27.475586 10.063477 -26.879883 11.821289 -26.879883C12.641602 -26.879883 13.403320 -27.021484 14.106445 -27.304688L12.875977 -28.710938L15.834961 -31.347656L17.094727 -29.912109C17.622070 -30.908203 17.885742 -32.060547 17.885742 -33.369141C17.885742 -35.302734 17.314453 -36.860352 16.171875 -38.041992C15.029297 -39.223633 13.579102 -39.814453 11.821289 -39.814453C10.063477 -39.814453 8.613281 -39.226074 7.470703 -38.049316C6.328125 -36.872559 5.756836 -35.312500 5.756836 -33.369141ZM5.756836 -33.369141"></path></svg>