<svg width="20.551758" height="22.324219" viewBox="2.065430 -43.330078 20.551758 22.324219" xmlns="http://www.w3.org/2000/svg"><path d="M2.065430 -30.600586C2.065430 -32.280273 2.363281 -33.894043 2.958984 -35.441895C3.554688 -36.989746 4.370117 -38.344727 5.405273 -39.506836C6.440430 -40.668945 7.709961 -41.596680 9.213867 -42.290039C10.717773 -42.983398 12.324219 -43.330078 14.033203 -43.330078C16.582031 -43.330078 18.649902 -42.526855 20.236816 -40.920410C21.823730 -39.313965 22.617188 -37.236328 22.617188 -34.687500C22.617188 -32.724609 22.226562 -30.876465 21.445312 -29.143066C20.664062 -27.409668 19.555664 -25.937500 18.120117 -24.726562L19.892578 -21.958008L18.574219 -21.005859L16.743164 -23.701172C14.907227 -22.539062 12.875977 -21.958008 10.649414 -21.958008C8.090820 -21.958008 6.020508 -22.758789 4.438477 -24.360352C2.856445 -25.961914 2.065430 -28.041992 2.065430 -30.600586ZM3.779297 -30.878906C3.779297 -28.710938 4.426270 -26.948242 5.720215 -25.590820C7.014160 -24.233398 8.735352 -23.554688 10.883789 -23.554688C12.680664 -23.554688 14.340820 -24.033203 15.864258 -24.990234L14.340820 -27.304688L15.688477 -28.271484L17.255859 -26.015625C18.417969 -27.060547 19.316406 -28.334961 19.951172 -29.838867C20.585938 -31.342773 20.903320 -32.895508 20.903320 -34.497070C20.903320 -36.665039 20.256348 -38.427734 18.962402 -39.785156C17.668457 -41.142578 15.947266 -41.821289 13.798828 -41.821289C12.363281 -41.821289 11.015625 -41.516113 9.755859 -40.905762C8.496094 -40.295410 7.434082 -39.482422 6.569824 -38.466797C5.705566 -37.451172 5.024414 -36.284180 4.526367 -34.965820C4.028320 -33.647461 3.779297 -32.285156 3.779297 -30.878906ZM3.779297 -30.878906"></path></svg>