<svg width="16.376953" height="20.698242" viewBox="1.889648 -41.396484 16.376953 20.698242" xmlns="http://www.w3.org/2000/svg"><path d="M1.889648 -20.698242L1.889648 -41.396484L9.331055 -41.396484C11.655273 -41.396484 13.476562 -40.908203 14.794922 -39.931641C15.507812 -39.404297 16.064453 -38.732910 16.464844 -37.917480C16.865234 -37.102051 17.065430 -36.191406 17.065430 -35.185547C17.065430 -34.257812 16.931152 -33.425293 16.662598 -32.687988C16.394043 -31.950684 16.040039 -31.357422 15.600586 -30.908203C15.161133 -30.458984 14.731445 -30.104980 14.311523 -29.846191C13.891602 -29.587402 13.461914 -29.389648 13.022461 -29.252930L18.266602 -20.698242L12.626953 -20.698242L8.276367 -28.623047L6.752930 -28.623047L6.752930 -20.698242ZM6.723633 -32.343750L8.642578 -32.343750C9.794922 -32.343750 10.625000 -32.534180 11.132812 -32.915039C11.826172 -33.413086 12.172852 -34.111328 12.172852 -35.009766C12.172852 -35.908203 11.826172 -36.606445 11.132812 -37.104492C10.654297 -37.465820 9.824219 -37.646484 8.642578 -37.646484L6.723633 -37.646484ZM6.723633 -32.343750"></path></svg>