<svg width="15.380859" height="21.313477" viewBox="0.483398 -42.260742 15.380859 21.313477" xmlns="http://www.w3.org/2000/svg"><path d="M0.483398 -24.067383L2.885742 -27.612305C3.618164 -26.850586 4.497070 -26.225586 5.522461 -25.737305C6.547852 -25.249023 7.465820 -25.004883 8.276367 -25.004883C9.086914 -25.004883 9.750977 -25.192871 10.268555 -25.568848C10.786133 -25.944824 11.044922 -26.464844 11.044922 -27.128906C11.044922 -27.392578 10.983887 -27.641602 10.861816 -27.875977C10.739746 -28.110352 10.607910 -28.298340 10.466309 -28.439941C10.324707 -28.581543 10.114746 -28.725586 9.836426 -28.872070C9.558105 -29.018555 9.355469 -29.118652 9.228516 -29.172363C9.101562 -29.226074 8.896484 -29.306641 8.613281 -29.414062C8.505859 -29.453125 8.022461 -29.628906 7.163086 -29.941406C6.303711 -30.253906 5.737305 -30.468750 5.463867 -30.585938C5.434570 -30.595703 5.336914 -30.637207 5.170898 -30.710449C5.004883 -30.783691 4.877930 -30.842285 4.790039 -30.886230C4.702148 -30.930176 4.567871 -30.998535 4.387207 -31.091309C4.206543 -31.184082 4.050293 -31.274414 3.918457 -31.362305C3.786621 -31.450195 3.637695 -31.557617 3.471680 -31.684570C3.305664 -31.811523 3.149414 -31.943359 3.002930 -32.080078C1.918945 -33.095703 1.376953 -34.428711 1.376953 -36.079102C1.376953 -37.016602 1.577148 -37.871094 1.977539 -38.642578C2.377930 -39.414062 2.900391 -40.068359 3.544922 -40.605469C4.843750 -41.708984 6.660156 -42.260742 8.994141 -42.260742C10.175781 -42.260742 11.386719 -42.014160 12.626953 -41.520996C13.867188 -41.027832 14.848633 -40.419922 15.571289 -39.697266L13.505859 -36.313477C12.890625 -36.928711 12.155762 -37.431641 11.301270 -37.822266C10.446777 -38.212891 9.638672 -38.408203 8.876953 -38.408203C8.066406 -38.408203 7.414551 -38.249512 6.921387 -37.932129C6.428223 -37.614746 6.181641 -37.153320 6.181641 -36.547852C6.181641 -36.254883 6.240234 -35.991211 6.357422 -35.756836C6.474609 -35.522461 6.657715 -35.319824 6.906738 -35.148926C7.155762 -34.978027 7.368164 -34.851074 7.543945 -34.768066C7.719727 -34.685059 7.963867 -34.580078 8.276367 -34.453125C8.608398 -34.316406 9.162598 -34.104004 9.938965 -33.815918C10.715332 -33.527832 11.191406 -33.349609 11.367188 -33.281250C12.617188 -32.832031 13.579102 -32.270508 14.252930 -31.596680C15.327148 -30.522461 15.864258 -29.194336 15.864258 -27.612305C15.864258 -26.635742 15.649414 -25.715332 15.219727 -24.851074C14.790039 -23.986816 14.199219 -23.256836 13.447266 -22.661133C12.021484 -21.518555 10.151367 -20.947266 7.836914 -20.947266C6.450195 -20.947266 5.117188 -21.245117 3.837891 -21.840820C2.558594 -22.436523 1.440430 -23.178711 0.483398 -24.067383ZM0.483398 -24.067383"></path></svg>