<svg width="14.370117" height="21.372070" viewBox="1.201172 -42.377930 14.370117 21.372070" xmlns="http://www.w3.org/2000/svg"><path d="M1.201172 -24.755859L2.490234 -25.634766C2.851562 -24.677734 3.444824 -23.913574 4.270020 -23.342285C5.095215 -22.770996 6.030273 -22.485352 7.075195 -22.485352C8.491211 -22.485352 9.741211 -22.949219 10.825195 -23.876953C11.909180 -24.804688 12.451172 -25.971680 12.451172 -27.377930C12.451172 -27.993164 12.297363 -28.535156 11.989746 -29.003906C11.682129 -29.472656 11.279297 -29.860840 10.781250 -30.168457C10.283203 -30.476074 9.736328 -30.766602 9.140625 -31.040039C8.544922 -31.313477 7.949219 -31.599121 7.353516 -31.896973C6.757812 -32.194824 6.210938 -32.526855 5.712891 -32.893066C5.214844 -33.259277 4.812012 -33.732910 4.504395 -34.313965C4.196777 -34.895020 4.042969 -35.561523 4.042969 -36.313477C4.042969 -37.553711 4.355469 -38.640137 4.980469 -39.572754C5.605469 -40.505371 6.423340 -41.206055 7.434082 -41.674805C8.444824 -42.143555 9.565430 -42.377930 10.795898 -42.377930C12.915039 -42.377930 14.506836 -41.464844 15.571289 -39.638672L14.370117 -38.715820C13.881836 -39.477539 13.330078 -40.031738 12.714844 -40.378418C12.099609 -40.725098 11.333008 -40.898438 10.415039 -40.898438C9.086914 -40.898438 7.968750 -40.510254 7.060547 -39.733887C6.152344 -38.957520 5.698242 -37.915039 5.698242 -36.606445C5.698242 -36.118164 5.793457 -35.676270 5.983887 -35.280762C6.174316 -34.885254 6.433105 -34.553223 6.760254 -34.284668C7.087402 -34.016113 7.460938 -33.764648 7.880859 -33.530273C8.300781 -33.295898 8.742676 -33.076172 9.206543 -32.871094C9.670410 -32.666016 10.134277 -32.456055 10.598145 -32.241211C11.062012 -32.026367 11.503906 -31.777344 11.923828 -31.494141C12.343750 -31.210938 12.717285 -30.898438 13.044434 -30.556641C13.371582 -30.214844 13.630371 -29.792480 13.820801 -29.289551C14.011230 -28.786621 14.106445 -28.227539 14.106445 -27.612305C14.106445 -26.635742 13.898926 -25.727539 13.483887 -24.887695C13.068848 -24.047852 12.517090 -23.347168 11.828613 -22.785645C11.140137 -22.224121 10.351562 -21.787109 9.462891 -21.474609C8.574219 -21.162109 7.651367 -21.005859 6.694336 -21.005859C5.395508 -21.005859 4.270020 -21.330566 3.317871 -21.979980C2.365723 -22.629395 1.660156 -23.554688 1.201172 -24.755859ZM1.201172 -24.755859"></path></svg>