<svg width="16.450195" height="21.064453" viewBox="2.666016 -41.762695 16.450195 21.064453" xmlns="http://www.w3.org/2000/svg"><path d="M2.666016 -26.337891C2.666016 -27.070312 2.778320 -28.090820 3.002930 -29.399414L4.951172 -41.762695L6.577148 -41.762695L4.672852 -29.853516C4.458008 -28.349609 4.350586 -27.319336 4.350586 -26.762695C4.350586 -25.346680 4.758301 -24.243164 5.573730 -23.452148C6.389160 -22.661133 7.509766 -22.265625 8.935547 -22.265625C9.853516 -22.265625 10.671387 -22.407227 11.389160 -22.690430C12.106934 -22.973633 12.697754 -23.337402 13.161621 -23.781738C13.625488 -24.226074 14.028320 -24.794922 14.370117 -25.488281C14.711914 -26.181641 14.973145 -26.862793 15.153809 -27.531738C15.334473 -28.200684 15.493164 -28.974609 15.629883 -29.853516L17.519531 -41.762695L19.116211 -41.762695L17.153320 -29.399414C16.987305 -28.364258 16.777344 -27.434082 16.523438 -26.608887C16.269531 -25.783691 15.922852 -24.992676 15.483398 -24.235840C15.043945 -23.479004 14.523926 -22.849121 13.923340 -22.346191C13.322754 -21.843262 12.580566 -21.442871 11.696777 -21.145020C10.812988 -20.847168 9.814453 -20.698242 8.701172 -20.698242C6.894531 -20.698242 5.437012 -21.191406 4.328613 -22.177734C3.220215 -23.164062 2.666016 -24.550781 2.666016 -26.337891ZM2.666016 -26.337891"></path></svg>