<svg width="12.275391" height="14.853516" viewBox="0.776367 -29.370117 12.275391 14.853516" xmlns="http://www.w3.org/2000/svg"><path d="M0.776367 -18.940430C0.776367 -20.288086 1.279297 -21.328125 2.285156 -22.060547C3.291016 -22.792969 4.648438 -23.198242 6.357422 -23.276367L10.166016 -23.437500L10.166016 -24.008789C10.166016 -25.053711 9.843750 -25.854492 9.199219 -26.411133C8.554688 -26.967773 7.700195 -27.246094 6.635742 -27.246094C6.010742 -27.246094 5.368652 -27.158203 4.709473 -26.982422C4.050293 -26.806641 3.554688 -26.640625 3.222656 -26.484375C2.890625 -26.328125 2.597656 -26.171875 2.343750 -26.015625L1.464844 -27.934570C3.144531 -28.891602 4.926758 -29.370117 6.811523 -29.370117C8.872070 -29.370117 10.439453 -28.833008 11.513672 -27.758789C12.031250 -27.221680 12.416992 -26.604004 12.670898 -25.905762C12.924805 -25.207520 13.051758 -24.282227 13.051758 -23.129883L13.051758 -14.853516L10.253906 -14.853516L10.224609 -16.655273C10.009766 -16.430664 9.858398 -16.274414 9.770508 -16.186523C9.682617 -16.098633 9.475098 -15.925293 9.147949 -15.666504C8.820801 -15.407715 8.518066 -15.212402 8.239746 -15.080566C7.961426 -14.948730 7.590332 -14.821777 7.126465 -14.699707C6.662598 -14.577637 6.186523 -14.516602 5.698242 -14.516602C4.331055 -14.516602 3.168945 -14.919434 2.211914 -15.725098C1.254883 -16.530762 0.776367 -17.602539 0.776367 -18.940430ZM3.632812 -19.028320C3.632812 -18.325195 3.896484 -17.739258 4.423828 -17.270508C4.951172 -16.801758 5.668945 -16.567383 6.577148 -16.567383C7.407227 -16.567383 8.127441 -16.777344 8.737793 -17.197266C9.348145 -17.617188 9.833984 -18.095703 10.195312 -18.632812L10.195312 -21.694336L6.870117 -21.489258C5.766602 -21.430664 4.951172 -21.184082 4.423828 -20.749512C3.896484 -20.314941 3.632812 -19.741211 3.632812 -19.028320ZM3.632812 -19.028320"></path></svg>