<svg width="14.736328" height="20.991211" viewBox="1.318359 -41.689453 14.736328 20.991211" xmlns="http://www.w3.org/2000/svg"><path d="M1.318359 -20.991211C1.640625 -21.586914 1.870117 -22.304688 2.006836 -23.144531L4.584961 -39.345703C4.653320 -39.785156 4.750977 -40.200195 4.877930 -40.590820C5.004883 -40.981445 5.117188 -41.264648 5.214844 -41.440430L5.346680 -41.689453L6.870117 -41.689453C6.547852 -41.113281 6.318359 -40.405273 6.181641 -39.565430L5.039062 -32.416992L5.068359 -32.416992C6.611328 -34.262695 8.422852 -35.185547 10.502930 -35.185547C12.221680 -35.185547 13.576660 -34.653320 14.567871 -33.588867C15.559082 -32.524414 16.054688 -31.132812 16.054688 -29.414062C16.054688 -27.851562 15.737305 -26.413574 15.102539 -25.100098C14.467773 -23.786621 13.540039 -22.724609 12.319336 -21.914062C11.098633 -21.103516 9.702148 -20.698242 8.129883 -20.698242C7.114258 -20.698242 6.218262 -20.932617 5.441895 -21.401367C4.665527 -21.870117 4.072266 -22.553711 3.662109 -23.452148L3.632812 -23.452148L3.603516 -23.276367C3.535156 -22.856445 3.439941 -22.456055 3.317871 -22.075195C3.195801 -21.694336 3.095703 -21.420898 3.017578 -21.254883L2.885742 -20.991211ZM4.174805 -26.718750C4.174805 -25.371094 4.541016 -24.274902 5.273438 -23.430176C6.005859 -22.585449 7.036133 -22.163086 8.364258 -22.163086C9.575195 -22.163086 10.649414 -22.514648 11.586914 -23.217773C12.524414 -23.920898 13.227539 -24.802246 13.696289 -25.861816C14.165039 -26.921387 14.399414 -28.046875 14.399414 -29.238281C14.399414 -30.585938 14.033203 -31.677246 13.300781 -32.512207C12.568359 -33.347168 11.533203 -33.764648 10.195312 -33.764648C9.287109 -33.764648 8.444824 -33.562012 7.668457 -33.156738C6.892090 -32.751465 6.254883 -32.214355 5.756836 -31.545410C5.258789 -30.876465 4.870605 -30.124512 4.592285 -29.289551C4.313965 -28.454590 4.174805 -27.597656 4.174805 -26.718750ZM4.174805 -26.718750"></path></svg>