<svg width="14.765625" height="21.035156" viewBox="2.124023 -41.733398 14.765625 21.035156" xmlns="http://www.w3.org/2000/svg"><path d="M2.124023 -21.035156L2.124023 -41.733398L4.980469 -41.733398L4.980469 -33.061523L5.039062 -33.061523C6.220703 -34.721680 7.880859 -35.551758 10.019531 -35.551758C11.386719 -35.551758 12.595215 -35.229492 13.645020 -34.584961C14.694824 -33.940430 15.498047 -33.059082 16.054688 -31.940918C16.611328 -30.822754 16.889648 -29.565430 16.889648 -28.168945C16.889648 -26.010742 16.254883 -24.226074 14.985352 -22.814941C13.715820 -21.403809 12.041016 -20.698242 9.960938 -20.698242C7.783203 -20.698242 6.113281 -21.562500 4.951172 -23.291016L4.892578 -23.291016L4.892578 -21.035156ZM4.863281 -28.198242C4.863281 -26.733398 5.273438 -25.527344 6.093750 -24.580078C6.914062 -23.632812 8.022461 -23.159180 9.418945 -23.159180C10.815430 -23.159180 11.918945 -23.632812 12.729492 -24.580078C13.540039 -25.527344 13.945312 -26.733398 13.945312 -28.198242C13.945312 -29.663086 13.540039 -30.864258 12.729492 -31.801758C11.918945 -32.739258 10.815430 -33.208008 9.418945 -33.208008C8.022461 -33.208008 6.914062 -32.739258 6.093750 -31.801758C5.273438 -30.864258 4.863281 -29.663086 4.863281 -28.198242ZM4.863281 -28.198242"></path></svg>