<svg width="12.890625" height="14.853516" viewBox="1.025391 -29.370117 12.890625 14.853516" xmlns="http://www.w3.org/2000/svg"><path d="M1.025391 -21.958008C1.025391 -23.071289 1.228027 -24.099121 1.633301 -25.041504C2.038574 -25.983887 2.578125 -26.767578 3.251953 -27.392578C3.925781 -28.017578 4.699707 -28.503418 5.573730 -28.850098C6.447754 -29.196777 7.358398 -29.370117 8.305664 -29.370117C9.018555 -29.370117 9.692383 -29.301758 10.327148 -29.165039C10.961914 -29.028320 11.469727 -28.876953 11.850586 -28.710938C12.231445 -28.544922 12.587891 -28.347168 12.919922 -28.117676C13.251953 -27.888184 13.466797 -27.722168 13.564453 -27.619629C13.662109 -27.517090 13.750000 -27.421875 13.828125 -27.333984L12.802734 -25.239258C11.650391 -26.391602 10.234375 -26.967773 8.554688 -26.967773C7.255859 -26.967773 6.159668 -26.516113 5.266113 -25.612793C4.372559 -24.709473 3.925781 -23.525391 3.925781 -22.060547C3.925781 -20.556641 4.357910 -19.333496 5.222168 -18.391113C6.086426 -17.448730 7.207031 -16.977539 8.583984 -16.977539C9.101562 -16.977539 9.604492 -17.038574 10.092773 -17.160645C10.581055 -17.282715 10.988770 -17.431641 11.315918 -17.607422C11.643066 -17.783203 11.931152 -17.961426 12.180176 -18.142090C12.429199 -18.322754 12.612305 -18.476562 12.729492 -18.603516L12.905273 -18.779297L13.916016 -16.684570C13.466797 -16.235352 13.076172 -15.903320 12.744141 -15.688477C11.542969 -14.907227 10.034180 -14.516602 8.217773 -14.516602C6.928711 -14.516602 5.742188 -14.814453 4.658203 -15.410156C3.574219 -16.005859 2.697754 -16.877441 2.028809 -18.024902C1.359863 -19.172363 1.025391 -20.483398 1.025391 -21.958008ZM1.025391 -21.958008"></path></svg>