<svg width="15.219727" height="20.991211" viewBox="1.494141 -41.689453 15.219727 20.991211" xmlns="http://www.w3.org/2000/svg"><path d="M1.494141 -26.542969C1.494141 -27.685547 1.687012 -28.781738 2.072754 -29.831543C2.458496 -30.881348 2.990723 -31.799316 3.669434 -32.585449C4.348145 -33.371582 5.180664 -34.001465 6.166992 -34.475098C7.153320 -34.948730 8.217773 -35.185547 9.360352 -35.185547C11.450195 -35.185547 12.958984 -34.262695 13.886719 -32.416992L13.916016 -32.416992L15.058594 -39.565430C15.117188 -40.024414 15.146484 -40.405273 15.146484 -40.708008C15.146484 -40.893555 15.139160 -41.069336 15.124512 -41.235352C15.109863 -41.401367 15.097656 -41.518555 15.087891 -41.586914L15.058594 -41.689453L16.625977 -41.689453C16.684570 -41.474609 16.713867 -41.157227 16.713867 -40.737305C16.713867 -40.288086 16.674805 -39.824219 16.596680 -39.345703L14.003906 -23.085938C13.964844 -22.822266 13.945312 -22.456055 13.945312 -21.987305C13.945312 -21.801758 13.952637 -21.625977 13.967285 -21.459961C13.981934 -21.293945 13.994141 -21.176758 14.003906 -21.108398L14.033203 -20.991211L12.451172 -20.991211C12.373047 -21.186523 12.333984 -21.494141 12.333984 -21.914062C12.333984 -22.324219 12.402344 -22.866211 12.539062 -23.540039C11.865234 -22.651367 11.059570 -21.955566 10.122070 -21.452637C9.184570 -20.949707 8.188477 -20.698242 7.133789 -20.698242C5.327148 -20.698242 3.935547 -21.228027 2.958984 -22.287598C1.982422 -23.347168 1.494141 -24.765625 1.494141 -26.542969ZM3.178711 -26.718750C3.178711 -25.371094 3.544922 -24.274902 4.277344 -23.430176C5.009766 -22.585449 6.035156 -22.163086 7.353516 -22.163086C8.261719 -22.163086 9.104004 -22.368164 9.880371 -22.778320C10.656738 -23.188477 11.296387 -23.728027 11.799316 -24.396973C12.302246 -25.065918 12.695312 -25.820312 12.978516 -26.660156C13.261719 -27.500000 13.403320 -28.359375 13.403320 -29.238281C13.403320 -30.585938 13.037109 -31.677246 12.304688 -32.512207C11.572266 -33.347168 10.541992 -33.764648 9.213867 -33.764648C8.002930 -33.764648 6.928711 -33.415527 5.991211 -32.717285C5.053711 -32.019043 4.350586 -31.142578 3.881836 -30.087891C3.413086 -29.033203 3.178711 -27.910156 3.178711 -26.718750ZM3.178711 -26.718750"></path></svg>