<svg width="8.876953" height="21.035156" viewBox="0.483398 -42.070312 8.876953 21.035156" xmlns="http://www.w3.org/2000/svg"><path d="M0.483398 -32.944336L0.483398 -35.258789L2.519531 -35.258789L2.519531 -36.694336C2.519531 -38.432617 2.841797 -39.702148 3.486328 -40.502930C4.335938 -41.547852 5.473633 -42.070312 6.899414 -42.070312C7.387695 -42.070312 7.836914 -42.041016 8.247070 -41.982422C8.657227 -41.923828 8.945312 -41.865234 9.111328 -41.806641L9.360352 -41.733398L9.184570 -39.609375C8.637695 -39.785156 8.095703 -39.873047 7.558594 -39.873047C7.109375 -39.873047 6.733398 -39.794922 6.430664 -39.638672C6.127930 -39.482422 5.903320 -39.252930 5.756836 -38.950195C5.610352 -38.647461 5.510254 -38.334961 5.456543 -38.012695C5.402832 -37.690430 5.375977 -37.299805 5.375977 -36.840820L5.375977 -35.258789L8.759766 -35.258789L8.759766 -32.944336L5.375977 -32.944336L5.375977 -21.035156L2.519531 -21.035156L2.519531 -32.944336ZM0.483398 -32.944336"></path></svg>