<svg width="15.717773" height="20.170898" viewBox="0.541992 -34.335938 15.717773 20.170898" xmlns="http://www.w3.org/2000/svg"><path d="M0.541992 -16.303711L1.655273 -17.534180C2.114258 -16.967773 2.792969 -16.511230 3.691406 -16.164551C4.589844 -15.817871 5.439453 -15.644531 6.240234 -15.644531C7.119141 -15.644531 7.900391 -15.783691 8.583984 -16.062012C9.267578 -16.340332 9.826660 -16.696777 10.261230 -17.131348C10.695801 -17.565918 11.074219 -18.117676 11.396484 -18.786621C11.718750 -19.455566 11.962891 -20.114746 12.128906 -20.764160C12.294922 -21.413574 12.441406 -22.158203 12.568359 -22.998047L12.539062 -22.998047C11.884766 -22.099609 11.086426 -21.398926 10.144043 -20.895996C9.201660 -20.393066 8.188477 -20.141602 7.104492 -20.141602C5.424805 -20.141602 4.074707 -20.676270 3.054199 -21.745605C2.033691 -22.814941 1.523438 -24.189453 1.523438 -25.869141C1.523438 -26.757812 1.643066 -27.624512 1.882324 -28.469238C2.121582 -29.313965 2.473145 -30.087891 2.937012 -30.791016C3.400879 -31.494141 3.947754 -32.111816 4.577637 -32.644043C5.207520 -33.176270 5.932617 -33.591309 6.752930 -33.889160C7.573242 -34.187012 8.442383 -34.335938 9.360352 -34.335938C10.366211 -34.335938 11.279297 -34.099121 12.099609 -33.625488C12.919922 -33.151855 13.515625 -32.465820 13.886719 -31.567383L13.916016 -31.567383L13.945312 -31.845703C13.984375 -32.265625 14.067383 -32.661133 14.194336 -33.032227C14.321289 -33.403320 14.438477 -33.671875 14.545898 -33.837891L14.707031 -34.086914L16.259766 -34.086914C15.937500 -33.491211 15.708008 -32.773438 15.571289 -31.933594L14.165039 -23.173828C13.999023 -22.089844 13.798828 -21.135254 13.564453 -20.310059C13.330078 -19.484863 13.002930 -18.671875 12.583008 -17.871094C12.163086 -17.070312 11.662598 -16.411133 11.081543 -15.893555C10.500488 -15.375977 9.770508 -14.958496 8.891602 -14.641113C8.012695 -14.323730 7.006836 -14.165039 5.874023 -14.165039C4.916992 -14.165039 3.935547 -14.353027 2.929688 -14.729004C1.923828 -15.104980 1.127930 -15.629883 0.541992 -16.303711ZM3.178711 -26.044922C3.178711 -24.687500 3.549805 -23.613281 4.291992 -22.822266C5.034180 -22.031250 6.074219 -21.635742 7.412109 -21.635742C8.623047 -21.635742 9.692383 -21.967773 10.620117 -22.631836C11.547852 -23.295898 12.243652 -24.143066 12.707520 -25.173340C13.171387 -26.203613 13.403320 -27.314453 13.403320 -28.505859C13.403320 -29.853516 13.034668 -30.925293 12.297363 -31.721191C11.560059 -32.517090 10.522461 -32.915039 9.184570 -32.915039C8.276367 -32.915039 7.438965 -32.722168 6.672363 -32.336426C5.905762 -31.950684 5.270996 -31.437988 4.768066 -30.798340C4.265137 -30.158691 3.874512 -29.426270 3.596191 -28.601074C3.317871 -27.775879 3.178711 -26.923828 3.178711 -26.044922ZM3.178711 -26.044922"></path></svg>