<svg width="3.750000" height="20.698242" viewBox="1.655273 -41.396484 3.750000 20.698242" xmlns="http://www.w3.org/2000/svg"><path d="M1.655273 -39.624023C1.655273 -40.141602 1.831055 -40.566406 2.182617 -40.898438C2.534180 -41.230469 2.988281 -41.396484 3.544922 -41.396484C4.082031 -41.396484 4.526367 -41.230469 4.877930 -40.898438C5.229492 -40.566406 5.405273 -40.141602 5.405273 -39.624023C5.405273 -39.106445 5.229492 -38.681641 4.877930 -38.349609C4.526367 -38.017578 4.082031 -37.851562 3.544922 -37.851562C2.988281 -37.851562 2.534180 -38.017578 2.182617 -38.349609C1.831055 -38.681641 1.655273 -39.106445 1.655273 -39.624023ZM2.094727 -20.698242L2.094727 -34.951172L4.980469 -34.951172L4.980469 -20.698242ZM2.094727 -20.698242"></path></svg>