<svg width="9.477539" height="26.162109" viewBox="-2.753906 -46.318359 9.477539 26.162109" xmlns="http://www.w3.org/2000/svg"><path d="M-2.753906 -20.405273L-2.548828 -21.811523C-2.197266 -21.655273 -1.767578 -21.577148 -1.259766 -21.577148C-1.015625 -21.577148 -0.786133 -21.611328 -0.571289 -21.679688C-0.356445 -21.748047 -0.168457 -21.826172 -0.007324 -21.914062C0.153809 -22.001953 0.305176 -22.136230 0.446777 -22.316895C0.588379 -22.497559 0.705566 -22.653809 0.798340 -22.785645C0.891113 -22.917480 0.981445 -23.115234 1.069336 -23.378906C1.157227 -23.642578 1.223145 -23.845215 1.267090 -23.986816C1.311035 -24.128418 1.362305 -24.350586 1.420898 -24.653320C1.479492 -24.956055 1.516113 -25.163574 1.530762 -25.275879C1.545410 -25.388184 1.577148 -25.595703 1.625977 -25.898438L3.515625 -37.778320C3.583984 -38.217773 3.681641 -38.632812 3.808594 -39.023438C3.935547 -39.414062 4.042969 -39.692383 4.130859 -39.858398L4.262695 -40.107422L5.815430 -40.107422C5.493164 -39.511719 5.263672 -38.793945 5.126953 -37.954102L3.208008 -25.898438C3.110352 -25.292969 3.002930 -24.753418 2.885742 -24.279785C2.768555 -23.806152 2.587891 -23.298340 2.343750 -22.756348C2.099609 -22.214355 1.818848 -21.765137 1.501465 -21.408691C1.184082 -21.052246 0.771484 -20.754395 0.263672 -20.515137C-0.244141 -20.275879 -0.820312 -20.156250 -1.464844 -20.156250C-2.050781 -20.156250 -2.480469 -20.239258 -2.753906 -20.405273ZM4.145508 -44.794922C4.145508 -45.195312 4.296875 -45.549316 4.599609 -45.856934C4.902344 -46.164551 5.249023 -46.318359 5.639648 -46.318359C5.952148 -46.318359 6.210938 -46.215820 6.416016 -46.010742C6.621094 -45.805664 6.723633 -45.551758 6.723633 -45.249023C6.723633 -44.848633 6.572266 -44.492188 6.269531 -44.179688C5.966797 -43.867188 5.615234 -43.710938 5.214844 -43.710938C4.902344 -43.710938 4.645996 -43.813477 4.445801 -44.018555C4.245605 -44.223633 4.145508 -44.482422 4.145508 -44.794922ZM4.145508 -44.794922"></path></svg>