<svg width="6.723633" height="26.572266" viewBox="-1.318359 -47.270508 6.723633 26.572266" xmlns="http://www.w3.org/2000/svg"><path d="M-1.318359 -20.932617L-1.289062 -23.217773C-0.888672 -23.071289 -0.439453 -22.998047 0.058594 -22.998047C0.419922 -22.998047 0.727539 -23.063965 0.981445 -23.195801C1.235352 -23.327637 1.433105 -23.493652 1.574707 -23.693848C1.716309 -23.894043 1.828613 -24.165039 1.911621 -24.506836C1.994629 -24.848633 2.045898 -25.173340 2.065430 -25.480957C2.084961 -25.788574 2.094727 -26.171875 2.094727 -26.630859L2.094727 -40.825195L4.980469 -40.825195L4.980469 -26.542969C4.980469 -24.648438 4.682617 -23.286133 4.086914 -22.456055C3.208008 -21.284180 2.006836 -20.698242 0.483398 -20.698242C0.131836 -20.698242 -0.192871 -20.717773 -0.490723 -20.756836C-0.788574 -20.795898 -1.000977 -20.834961 -1.127930 -20.874023ZM1.655273 -45.498047C1.655273 -46.015625 1.831055 -46.440430 2.182617 -46.772461C2.534180 -47.104492 2.988281 -47.270508 3.544922 -47.270508C4.082031 -47.270508 4.526367 -47.104492 4.877930 -46.772461C5.229492 -46.440430 5.405273 -46.015625 5.405273 -45.498047C5.405273 -44.980469 5.229492 -44.555664 4.877930 -44.223633C4.526367 -43.891602 4.082031 -43.725586 3.544922 -43.725586C2.988281 -43.725586 2.534180 -43.891602 2.182617 -44.223633C1.831055 -44.555664 1.655273 -44.980469 1.655273 -45.498047ZM1.655273 -45.498047"></path></svg>