<svg width="20.639648" height="14.516602" viewBox="1.977539 -29.033203 20.639648 14.516602" xmlns="http://www.w3.org/2000/svg"><path d="M1.977539 -14.516602L1.977539 -28.769531L4.863281 -28.769531L4.833984 -26.513672L4.921875 -26.513672C5.273438 -27.216797 5.820312 -27.812500 6.562500 -28.300781C7.304688 -28.789062 8.125000 -29.033203 9.023438 -29.033203C11.181641 -29.033203 12.592773 -28.095703 13.256836 -26.220703C14.262695 -28.095703 15.771484 -29.033203 17.783203 -29.033203C21.005859 -29.033203 22.617188 -27.075195 22.617188 -23.159180L22.617188 -14.516602L19.775391 -14.516602L19.775391 -22.822266C19.775391 -25.380859 18.901367 -26.660156 17.153320 -26.660156C16.059570 -26.660156 15.217285 -26.208496 14.626465 -25.305176C14.035645 -24.401855 13.740234 -23.276367 13.740234 -21.928711L13.740234 -14.516602L10.854492 -14.516602L10.854492 -22.822266C10.854492 -23.388672 10.815430 -23.886719 10.737305 -24.316406C10.659180 -24.746094 10.527344 -25.146484 10.341797 -25.517578C10.156250 -25.888672 9.890137 -26.171875 9.543457 -26.367188C9.196777 -26.562500 8.774414 -26.660156 8.276367 -26.660156C7.182617 -26.660156 6.340332 -26.208496 5.749512 -25.305176C5.158691 -24.401855 4.863281 -23.276367 4.863281 -21.928711L4.863281 -14.516602ZM1.977539 -14.516602"></path></svg>