<svg width="16.406250" height="15.395508" viewBox="0.717773 -30.454102 16.406250 15.395508" xmlns="http://www.w3.org/2000/svg"><path d="M0.717773 -22.749023C0.717773 -24.301758 1.079102 -25.668945 1.801758 -26.850586C2.524414 -28.032227 3.503418 -28.928223 4.738770 -29.538574C5.974121 -30.148926 7.373047 -30.454102 8.935547 -30.454102C10.498047 -30.454102 11.894531 -30.148926 13.125000 -29.538574C14.355469 -28.928223 15.329590 -28.032227 16.047363 -26.850586C16.765137 -25.668945 17.124023 -24.301758 17.124023 -22.749023C17.124023 -21.196289 16.765137 -19.831543 16.047363 -18.654785C15.329590 -17.478027 14.355469 -16.584473 13.125000 -15.974121C11.894531 -15.363770 10.498047 -15.058594 8.935547 -15.058594C7.373047 -15.058594 5.974121 -15.363770 4.738770 -15.974121C3.503418 -16.584473 2.524414 -17.478027 1.801758 -18.654785C1.079102 -19.831543 0.717773 -21.196289 0.717773 -22.749023ZM5.581055 -22.836914C5.581055 -21.713867 5.881348 -20.793457 6.481934 -20.075684C7.082520 -19.357910 7.900391 -18.999023 8.935547 -18.999023C9.960938 -18.999023 10.778809 -19.357910 11.389160 -20.075684C11.999512 -20.793457 12.304688 -21.713867 12.304688 -22.836914C12.304688 -23.959961 11.999512 -24.880371 11.389160 -25.598145C10.778809 -26.315918 9.960938 -26.674805 8.935547 -26.674805C7.900391 -26.674805 7.082520 -26.315918 6.481934 -25.598145C5.881348 -24.880371 5.581055 -23.959961 5.581055 -22.836914ZM5.581055 -22.836914"></path></svg>