<svg width="15.029297" height="19.863281" viewBox="1.025391 -34.028320 15.029297 19.863281" xmlns="http://www.w3.org/2000/svg"><path d="M1.025391 -15.117188C1.025391 -15.566406 1.064453 -16.020508 1.142578 -16.479492L3.544922 -31.684570C3.603516 -32.143555 3.632812 -32.514648 3.632812 -32.797852C3.632812 -32.983398 3.625488 -33.159180 3.610840 -33.325195C3.596191 -33.491211 3.583984 -33.608398 3.574219 -33.676758L3.544922 -33.779297L5.097656 -33.779297C5.156250 -33.564453 5.185547 -33.247070 5.185547 -32.827148C5.185547 -32.387695 5.146484 -31.928711 5.068359 -31.450195L5.039062 -31.259766L5.068359 -31.259766C6.611328 -33.105469 8.422852 -34.028320 10.502930 -34.028320C12.221680 -34.028320 13.576660 -33.498535 14.567871 -32.438965C15.559082 -31.379395 16.054688 -29.985352 16.054688 -28.256836C16.054688 -26.704102 15.737305 -25.268555 15.102539 -23.950195C14.467773 -22.631836 13.540039 -21.564941 12.319336 -20.749512C11.098633 -19.934082 9.702148 -19.526367 8.129883 -19.526367C7.114258 -19.526367 6.218262 -19.763184 5.441895 -20.236816C4.665527 -20.710449 4.072266 -21.406250 3.662109 -22.324219L3.632812 -22.324219L2.666016 -16.259766C2.626953 -15.996094 2.607422 -15.625000 2.607422 -15.146484C2.607422 -14.960938 2.614746 -14.785156 2.629395 -14.619141C2.644043 -14.453125 2.656250 -14.335938 2.666016 -14.267578L2.695312 -14.165039L1.113281 -14.165039C1.054688 -14.379883 1.025391 -14.697266 1.025391 -15.117188ZM4.174805 -25.561523C4.174805 -24.213867 4.538574 -23.122559 5.266113 -22.287598C5.993652 -21.452637 7.026367 -21.035156 8.364258 -21.035156C9.575195 -21.035156 10.649414 -21.384277 11.586914 -22.082520C12.524414 -22.780762 13.227539 -23.657227 13.696289 -24.711914C14.165039 -25.766602 14.399414 -26.889648 14.399414 -28.081055C14.399414 -29.428711 14.033203 -30.520020 13.300781 -31.354980C12.568359 -32.189941 11.533203 -32.607422 10.195312 -32.607422C9.287109 -32.607422 8.444824 -32.404785 7.668457 -31.999512C6.892090 -31.594238 6.254883 -31.057129 5.756836 -30.388184C5.258789 -29.719238 4.870605 -28.967285 4.592285 -28.132324C4.313965 -27.297363 4.174805 -26.440430 4.174805 -25.561523ZM4.174805 -25.561523"></path></svg>