<svg width="16.479492" height="20.493164" viewBox="0.717773 -35.551758 16.479492 20.493164" xmlns="http://www.w3.org/2000/svg"><path d="M0.717773 -27.875977C0.717773 -29.331055 0.998535 -30.637207 1.560059 -31.794434C2.121582 -32.951660 2.937012 -33.867188 4.006348 -34.541016C5.075684 -35.214844 6.308594 -35.551758 7.705078 -35.551758C9.775391 -35.551758 11.416016 -34.833984 12.626953 -33.398438L12.685547 -33.398438L12.626953 -35.288086L17.197266 -35.288086L17.197266 -15.058594L12.392578 -15.058594L12.392578 -20.288086L12.421875 -22.353516L12.363281 -22.353516C11.396484 -20.888672 9.843750 -20.156250 7.705078 -20.156250C6.308594 -20.156250 5.075684 -20.498047 4.006348 -21.181641C2.937012 -21.865234 2.121582 -22.788086 1.560059 -23.950195C0.998535 -25.112305 0.717773 -26.420898 0.717773 -27.875977ZM5.610352 -27.934570C5.610352 -26.791992 5.932617 -25.866699 6.577148 -25.158691C7.221680 -24.450684 8.061523 -24.096680 9.096680 -24.096680C10.131836 -24.096680 10.964355 -24.450684 11.594238 -25.158691C12.224121 -25.866699 12.539062 -26.791992 12.539062 -27.934570C12.539062 -29.077148 12.224121 -30.002441 11.594238 -30.710449C10.964355 -31.418457 10.131836 -31.772461 9.096680 -31.772461C8.061523 -31.772461 7.221680 -31.418457 6.577148 -30.710449C5.932617 -30.002441 5.610352 -29.077148 5.610352 -27.934570ZM5.610352 -27.934570"></path></svg>