<svg width="10.678711" height="14.458008" viewBox="0.483398 -28.623047 10.678711 14.458008" xmlns="http://www.w3.org/2000/svg"><path d="M0.483398 -16.889648L1.684570 -17.812500C2.006836 -17.119141 2.487793 -16.582031 3.127441 -16.201172C3.767090 -15.820312 4.482422 -15.629883 5.273438 -15.629883C6.210938 -15.629883 7.031250 -15.898438 7.734375 -16.435547C8.437500 -16.972656 8.789062 -17.705078 8.789062 -18.632812C8.789062 -19.033203 8.674316 -19.384766 8.444824 -19.687500C8.215332 -19.990234 7.917480 -20.241699 7.551270 -20.441895C7.185059 -20.642090 6.779785 -20.827637 6.335449 -20.998535C5.891113 -21.169434 5.446777 -21.350098 5.002441 -21.540527C4.558105 -21.730957 4.152832 -21.940918 3.786621 -22.170410C3.420410 -22.399902 3.122559 -22.697754 2.893066 -23.063965C2.663574 -23.430176 2.548828 -23.852539 2.548828 -24.331055C2.548828 -25.620117 3.007812 -26.657715 3.925781 -27.443848C4.843750 -28.229980 5.957031 -28.623047 7.265625 -28.623047C8.134766 -28.623047 8.876953 -28.461914 9.492188 -28.139648C10.107422 -27.817383 10.664062 -27.294922 11.162109 -26.572266L10.019531 -25.649414C9.707031 -26.166992 9.289551 -26.564941 8.767090 -26.843262C8.244629 -27.121582 7.670898 -27.260742 7.045898 -27.260742C6.254883 -27.260742 5.568848 -27.031250 4.987793 -26.572266C4.406738 -26.113281 4.116211 -25.493164 4.116211 -24.711914C4.116211 -24.418945 4.206543 -24.150391 4.387207 -23.906250C4.567871 -23.662109 4.804688 -23.459473 5.097656 -23.298340C5.390625 -23.137207 5.727539 -22.973633 6.108398 -22.807617C6.489258 -22.641602 6.875000 -22.487793 7.265625 -22.346191C7.656250 -22.204590 8.041992 -22.026367 8.422852 -21.811523C8.803711 -21.596680 9.140625 -21.369629 9.433594 -21.130371C9.726562 -20.891113 9.963379 -20.588379 10.144043 -20.222168C10.324707 -19.855957 10.415039 -19.443359 10.415039 -18.984375C10.415039 -17.529297 9.890137 -16.362305 8.840332 -15.483398C7.790527 -14.604492 6.523438 -14.165039 5.039062 -14.165039C4.013672 -14.165039 3.090820 -14.394531 2.270508 -14.853516C1.450195 -15.312500 0.854492 -15.991211 0.483398 -16.889648ZM0.483398 -16.889648"></path></svg>