<svg width="10.209961" height="19.116211" viewBox="0.205078 -37.895508 10.209961 19.116211" xmlns="http://www.w3.org/2000/svg"><path d="M0.205078 -30.249023L0.205078 -33.881836L2.314453 -33.881836L2.314453 -37.895508L7.133789 -37.895508L7.133789 -33.881836L10.415039 -33.881836L10.415039 -30.249023L7.133789 -30.249023L7.133789 -24.931641C7.133789 -24.365234 7.167969 -23.957520 7.236328 -23.708496C7.304688 -23.459473 7.412109 -23.256836 7.558594 -23.100586C7.763672 -22.866211 8.144531 -22.749023 8.701172 -22.749023C8.925781 -22.749023 9.157715 -22.770996 9.396973 -22.814941C9.636230 -22.858887 9.819336 -22.905273 9.946289 -22.954102L10.136719 -23.012695L10.385742 -19.262695C9.047852 -18.940430 7.905273 -18.779297 6.958008 -18.779297C5.356445 -18.779297 4.155273 -19.243164 3.354492 -20.170898C2.983398 -20.600586 2.717285 -21.149902 2.556152 -21.818848C2.395020 -22.487793 2.314453 -23.388672 2.314453 -24.521484L2.314453 -30.249023ZM0.205078 -30.249023"></path></svg>