<svg width="14.399414" height="20.068359" viewBox="0.029297 -34.350586 14.399414 20.068359" xmlns="http://www.w3.org/2000/svg"><path d="M0.029297 -34.350586L3.032227 -34.321289L7.265625 -23.247070L11.455078 -34.350586L14.428711 -34.321289L7.558594 -17.578125C7.070312 -16.386719 6.530762 -15.539551 5.939941 -15.036621C5.349121 -14.533691 4.638672 -14.282227 3.808594 -14.282227C3.339844 -14.282227 2.880859 -14.323730 2.431641 -14.406738C1.982422 -14.489746 1.650391 -14.575195 1.435547 -14.663086L1.113281 -14.794922L1.684570 -17.124023C2.202148 -16.909180 2.700195 -16.801758 3.178711 -16.801758C3.364258 -16.801758 3.488770 -16.804199 3.552246 -16.809082C3.615723 -16.813965 3.730469 -16.840820 3.896484 -16.889648C4.062500 -16.938477 4.194336 -17.016602 4.291992 -17.124023C4.389648 -17.231445 4.509277 -17.399902 4.650879 -17.629395C4.792480 -17.858887 4.921875 -18.139648 5.039062 -18.471680L5.727539 -20.361328ZM0.029297 -34.350586"></path></svg>