<svg width="7.045898" height="27.041016" viewBox="0.336914 -49.877930 7.045898 27.041016" xmlns="http://www.w3.org/2000/svg"><path d="M0.336914 -35.258789L0.336914 -37.426758C1.616211 -37.426758 2.255859 -38.266602 2.255859 -39.946289L2.255859 -45.366211C2.255859 -46.958008 2.526855 -48.107910 3.068848 -48.815918C3.610840 -49.523926 4.609375 -49.877930 6.064453 -49.877930L7.382812 -49.877930L7.382812 -48.164062L6.723633 -48.164062C5.971680 -48.164062 5.449219 -48.020020 5.156250 -47.731934C4.863281 -47.443848 4.716797 -46.928711 4.716797 -46.186523L4.716797 -40.209961C4.716797 -39.340820 4.626465 -38.642578 4.445801 -38.115234C4.265137 -37.587891 4.030762 -37.209473 3.742676 -36.979980C3.454590 -36.750488 3.056641 -36.557617 2.548828 -36.401367L2.548828 -36.284180C3.056641 -36.127930 3.454590 -35.937500 3.742676 -35.712891C4.030762 -35.488281 4.265137 -35.114746 4.445801 -34.592285C4.626465 -34.069824 4.716797 -33.374023 4.716797 -32.504883L4.716797 -26.499023C4.716797 -25.756836 4.863281 -25.241699 5.156250 -24.953613C5.449219 -24.665527 5.971680 -24.521484 6.723633 -24.521484L7.382812 -24.521484L7.382812 -22.836914L6.064453 -22.836914C4.609375 -22.836914 3.610840 -23.183594 3.068848 -23.876953C2.526855 -24.570312 2.255859 -25.712891 2.255859 -27.304688L2.255859 -32.768555C2.255859 -34.428711 1.616211 -35.258789 0.336914 -35.258789ZM0.336914 -35.258789"></path></svg>