<svg width="8.642578" height="27.392578" viewBox="1.230469 -50.258789 8.642578 27.392578" xmlns="http://www.w3.org/2000/svg"><path d="M1.230469 -25.166016L2.255859 -25.166016C2.998047 -25.166016 3.503418 -25.300293 3.771973 -25.568848C4.040527 -25.837402 4.174805 -26.347656 4.174805 -27.099609L4.174805 -32.578125C4.174805 -33.837891 4.375000 -34.746094 4.775391 -35.302734C5.175781 -35.859375 5.776367 -36.240234 6.577148 -36.445312L6.577148 -36.665039C5.776367 -36.870117 5.175781 -37.246094 4.775391 -37.792969C4.375000 -38.339844 4.174805 -39.243164 4.174805 -40.502930L4.174805 -45.996094C4.174805 -46.748047 4.040527 -47.260742 3.771973 -47.534180C3.503418 -47.807617 2.998047 -47.944336 2.255859 -47.944336L1.230469 -47.944336L1.230469 -50.258789L3.896484 -50.258789C5.410156 -50.258789 6.474609 -49.907227 7.089844 -49.204102C7.705078 -48.500977 8.012695 -47.358398 8.012695 -45.776367L8.012695 -40.502930C8.012695 -39.995117 8.068848 -39.570312 8.181152 -39.228516C8.293457 -38.886719 8.447266 -38.637695 8.642578 -38.481445C8.837891 -38.325195 9.030762 -38.217773 9.221191 -38.159180C9.411621 -38.100586 9.628906 -38.071289 9.873047 -38.071289L9.873047 -35.039062C9.628906 -35.039062 9.411621 -35.009766 9.221191 -34.951172C9.030762 -34.892578 8.837891 -34.782715 8.642578 -34.621582C8.447266 -34.460449 8.293457 -34.206543 8.181152 -33.859863C8.068848 -33.513184 8.012695 -33.085938 8.012695 -32.578125L8.012695 -27.304688C8.012695 -25.722656 7.705078 -24.587402 7.089844 -23.898926C6.474609 -23.210449 5.410156 -22.866211 3.896484 -22.866211L1.230469 -22.866211ZM1.230469 -25.166016"></path></svg>