<svg width="7.045898" height="27.041016" viewBox="1.113281 -49.877930 7.045898 27.041016" xmlns="http://www.w3.org/2000/svg"><path d="M1.113281 -24.521484L1.801758 -24.521484C2.553711 -24.521484 3.071289 -24.663086 3.354492 -24.946289C3.637695 -25.229492 3.779297 -25.747070 3.779297 -26.499023L3.779297 -32.504883C3.779297 -33.374023 3.869629 -34.069824 4.050293 -34.592285C4.230957 -35.114746 4.467773 -35.488281 4.760742 -35.712891C5.053711 -35.937500 5.458984 -36.127930 5.976562 -36.284180L5.976562 -36.401367C5.458984 -36.557617 5.053711 -36.750488 4.760742 -36.979980C4.467773 -37.209473 4.230957 -37.587891 4.050293 -38.115234C3.869629 -38.642578 3.779297 -39.340820 3.779297 -40.209961L3.779297 -46.186523C3.779297 -46.938477 3.637695 -47.456055 3.354492 -47.739258C3.071289 -48.022461 2.553711 -48.164062 1.801758 -48.164062L1.113281 -48.164062L1.113281 -49.877930L2.460938 -49.877930C3.916016 -49.877930 4.914551 -49.523926 5.456543 -48.815918C5.998535 -48.107910 6.269531 -46.958008 6.269531 -45.366211L6.269531 -39.946289C6.269531 -38.266602 6.899414 -37.426758 8.159180 -37.426758L8.159180 -35.258789C6.899414 -35.258789 6.269531 -34.428711 6.269531 -32.768555L6.269531 -27.304688C6.269531 -25.712891 5.998535 -24.570312 5.456543 -23.876953C4.914551 -23.183594 3.916016 -22.836914 2.460938 -22.836914L1.113281 -22.836914ZM1.113281 -24.521484"></path></svg>