<svg width="3.984375" height="21.020508" viewBox="2.519531 -35.595703 3.984375 21.020508" xmlns="http://www.w3.org/2000/svg"><path d="M2.519531 -33.706055C2.519531 -34.272461 2.705078 -34.729004 3.076172 -35.075684C3.447266 -35.422363 3.930664 -35.595703 4.526367 -35.595703C5.102539 -35.595703 5.576172 -35.422363 5.947266 -35.075684C6.318359 -34.729004 6.503906 -34.272461 6.503906 -33.706055C6.503906 -33.139648 6.318359 -32.683105 5.947266 -32.336426C5.576172 -31.989746 5.102539 -31.816406 4.526367 -31.816406C3.930664 -31.816406 3.447266 -31.989746 3.076172 -32.336426C2.705078 -32.683105 2.519531 -33.139648 2.519531 -33.706055ZM3.032227 -14.575195L3.266602 -29.780273L5.756836 -29.780273L6.035156 -14.575195ZM3.032227 -14.575195"></path></svg>