<svg width="13.022461" height="20.097656" viewBox="2.724609 -39.301758 13.022461 20.097656" xmlns="http://www.w3.org/2000/svg"><path d="M2.724609 -27.963867C2.724609 -29.331055 3.024902 -30.627441 3.625488 -31.853027C4.226074 -33.078613 5.083008 -34.106445 6.196289 -34.936523C7.309570 -35.766602 8.564453 -36.269531 9.960938 -36.445312L10.415039 -39.301758L11.762695 -39.301758L11.308594 -36.503906C12.099609 -36.474609 12.941895 -36.264648 13.835449 -35.874023C14.729004 -35.483398 15.366211 -34.995117 15.747070 -34.409180L14.736328 -33.237305C14.384766 -33.774414 13.864746 -34.206543 13.176270 -34.533691C12.487793 -34.860840 11.796875 -35.048828 11.103516 -35.097656L9.272461 -23.510742C9.965820 -23.530273 10.742188 -23.718262 11.601562 -24.074707C12.460938 -24.431152 13.134766 -24.853516 13.623047 -25.341797L14.194336 -24.140625C13.657227 -23.593750 12.858887 -23.107910 11.799316 -22.683105C10.739746 -22.258301 9.814453 -22.045898 9.023438 -22.045898L8.583984 -19.204102L7.236328 -19.204102L7.675781 -22.104492C6.152344 -22.299805 4.946289 -22.937012 4.057617 -24.016113C3.168945 -25.095215 2.724609 -26.411133 2.724609 -27.963867ZM4.321289 -28.198242C4.321289 -27.006836 4.636230 -25.993652 5.266113 -25.158691C5.895996 -24.323730 6.782227 -23.808594 7.924805 -23.613281L9.726562 -35.039062C8.183594 -34.785156 6.896973 -33.979492 5.866699 -32.622070C4.836426 -31.264648 4.321289 -29.790039 4.321289 -28.198242ZM4.321289 -28.198242"></path></svg>