<svg width="13.681641" height="20.097656" viewBox="2.519531 -39.301758 13.681641 20.097656" xmlns="http://www.w3.org/2000/svg"><path d="M2.519531 -29.223633C2.519531 -30.336914 2.709961 -31.362305 3.090820 -32.299805C3.471680 -33.237305 3.991699 -34.025879 4.650879 -34.665527C5.310059 -35.305176 6.076660 -35.820312 6.950684 -36.210938C7.824707 -36.601562 8.769531 -36.840820 9.785156 -36.928711L9.785156 -39.301758L12.216797 -39.301758L12.216797 -36.899414C13.046875 -36.821289 13.823242 -36.640625 14.545898 -36.357422C15.268555 -36.074219 15.781250 -35.786133 16.083984 -35.493164L15.117188 -31.977539C14.248047 -32.631836 13.281250 -33.022461 12.216797 -33.149414L12.216797 -25.400391C12.812500 -25.439453 13.398438 -25.578613 13.974609 -25.817871C14.550781 -26.057129 14.980469 -26.298828 15.263672 -26.542969L16.201172 -23.129883C16.025391 -22.885742 15.546875 -22.587891 14.765625 -22.236328C13.984375 -21.884766 13.134766 -21.669922 12.216797 -21.591797L12.216797 -19.204102L9.785156 -19.204102L9.785156 -21.562500C8.417969 -21.689453 7.194824 -22.060547 6.115723 -22.675781C5.036621 -23.291016 4.167480 -24.165039 3.508301 -25.297852C2.849121 -26.430664 2.519531 -27.739258 2.519531 -29.223633ZM7.133789 -29.311523C7.133789 -28.383789 7.368164 -27.592773 7.836914 -26.938477C8.305664 -26.284180 8.955078 -25.844727 9.785156 -25.620117L9.785156 -33.032227C8.974609 -32.817383 8.330078 -32.375488 7.851562 -31.706543C7.373047 -31.037598 7.133789 -30.239258 7.133789 -29.311523ZM7.133789 -29.311523"></path></svg>