<svg width="14.252930" height="21.005859" viewBox="1.860352 -42.011719 14.252930 21.005859" xmlns="http://www.w3.org/2000/svg"><path d="M1.860352 -21.005859L1.860352 -23.320312L5.375977 -23.320312C5.649414 -23.769531 5.891113 -24.382324 6.101074 -25.158691C6.311035 -25.935059 6.416016 -26.611328 6.416016 -27.187500C6.416016 -27.529297 6.398926 -27.897949 6.364746 -28.293457C6.330566 -28.688965 6.298828 -28.999023 6.269531 -29.223633L6.210938 -29.560547L2.753906 -29.560547L2.753906 -31.479492L5.874023 -31.479492L5.214844 -33.339844C4.755859 -34.599609 4.526367 -35.737305 4.526367 -36.752930C4.526367 -38.266602 5.058594 -39.516602 6.123047 -40.502930C7.158203 -41.508789 8.535156 -42.011719 10.253906 -42.011719C12.607422 -42.011719 14.340820 -41.181641 15.454102 -39.521484L14.077148 -37.866211C14.067383 -37.875977 14.030762 -37.922363 13.967285 -38.005371C13.903809 -38.088379 13.845215 -38.164062 13.791504 -38.232422C13.737793 -38.300781 13.659668 -38.391113 13.557129 -38.503418C13.454590 -38.615723 13.349609 -38.715820 13.242188 -38.803711C13.134766 -38.891602 13.007812 -38.989258 12.861328 -39.096680C12.714844 -39.204102 12.558594 -39.296875 12.392578 -39.375000C12.226562 -39.453125 12.045898 -39.528809 11.850586 -39.602051C11.655273 -39.675293 11.440430 -39.729004 11.206055 -39.763184C10.971680 -39.797363 10.727539 -39.814453 10.473633 -39.814453C9.379883 -39.814453 8.566895 -39.499512 8.034668 -38.869629C7.502441 -38.239746 7.236328 -37.504883 7.236328 -36.665039C7.236328 -35.659180 7.485352 -34.497070 7.983398 -33.178711L8.583984 -31.479492L13.081055 -31.479492L13.081055 -29.560547L8.906250 -29.560547C9.052734 -28.740234 9.125977 -27.949219 9.125977 -27.187500C9.125977 -26.611328 9.018555 -25.937500 8.803711 -25.166016C8.588867 -24.394531 8.344727 -23.779297 8.071289 -23.320312L16.113281 -23.320312L16.113281 -21.005859ZM1.860352 -21.005859"></path></svg>