<svg width="15.205078" height="21.005859" viewBox="1.230469 -42.011719 15.205078 21.005859" xmlns="http://www.w3.org/2000/svg"><path d="M1.230469 -21.005859L1.494141 -22.558594L4.804688 -22.558594C5.507812 -23.486328 6.047363 -24.489746 6.423340 -25.568848C6.799316 -26.647949 6.967773 -27.739258 6.928711 -28.842773L6.928711 -29.531250L3.457031 -29.531250L3.691406 -30.937500L6.752930 -30.937500C6.723633 -31.093750 6.657715 -31.391602 6.555176 -31.831055C6.452637 -32.270508 6.376953 -32.602539 6.328125 -32.827148C6.279297 -33.051758 6.223145 -33.344727 6.159668 -33.706055C6.096191 -34.067383 6.049805 -34.404297 6.020508 -34.716797C5.991211 -35.029297 5.976562 -35.336914 5.976562 -35.639648C5.976562 -37.426758 6.540527 -38.935547 7.668457 -40.166016C8.796387 -41.396484 10.268555 -42.011719 12.084961 -42.011719C14.350586 -42.011719 15.800781 -41.098633 16.435547 -39.272461L15.175781 -38.408203C14.941406 -39.140625 14.531250 -39.687500 13.945312 -40.048828C13.359375 -40.410156 12.661133 -40.590820 11.850586 -40.590820C11.137695 -40.590820 10.505371 -40.456543 9.953613 -40.187988C9.401855 -39.919434 8.959961 -39.550781 8.627930 -39.082031C8.295898 -38.613281 8.044434 -38.083496 7.873535 -37.492676C7.702637 -36.901855 7.617188 -36.264648 7.617188 -35.581055C7.617188 -35.288086 7.631836 -34.990234 7.661133 -34.687500C7.690430 -34.384766 7.739258 -34.045410 7.807617 -33.669434C7.875977 -33.293457 7.929688 -33.005371 7.968750 -32.805176C8.007812 -32.604980 8.081055 -32.272949 8.188477 -31.809082C8.295898 -31.345215 8.364258 -31.054688 8.393555 -30.937500L12.802734 -30.937500L12.597656 -29.531250L8.554688 -29.531250L8.583984 -28.872070C8.642578 -26.655273 7.939453 -24.550781 6.474609 -22.558594L14.370117 -22.558594L14.135742 -21.005859ZM1.230469 -21.005859"></path></svg>