<svg width="14.736328" height="26.733398" viewBox="2.578125 -47.739258 14.736328 26.733398" xmlns="http://www.w3.org/2000/svg"><path d="M2.578125 -24.477539L5.214844 -26.850586C5.585938 -26.127930 6.201172 -25.512695 7.060547 -25.004883C7.919922 -24.497070 8.784180 -24.243164 9.653320 -24.243164C10.512695 -24.243164 11.159668 -24.411621 11.594238 -24.748535C12.028809 -25.085449 12.246094 -25.546875 12.246094 -26.132812C12.246094 -26.669922 12.036133 -27.138672 11.616211 -27.539062C11.196289 -27.939453 10.566406 -28.310547 9.726562 -28.652344L6.665039 -29.912109C5.551758 -30.361328 4.643555 -30.993652 3.940430 -31.809082C3.237305 -32.624512 2.885742 -33.623047 2.885742 -34.804688C2.885742 -35.478516 3.005371 -36.101074 3.244629 -36.672363C3.483887 -37.243652 3.771973 -37.692871 4.108887 -38.020020C4.445801 -38.347168 4.738770 -38.596191 4.987793 -38.767090C5.236816 -38.937988 5.434570 -39.047852 5.581055 -39.096680C5.532227 -39.125977 5.468750 -39.172363 5.390625 -39.235840C5.312500 -39.299316 5.173340 -39.440918 4.973145 -39.660645C4.772949 -39.880371 4.597168 -40.114746 4.445801 -40.363770C4.294434 -40.612793 4.155273 -40.944824 4.028320 -41.359863C3.901367 -41.774902 3.837891 -42.207031 3.837891 -42.656250C3.837891 -43.730469 4.135742 -44.660645 4.731445 -45.446777C5.327148 -46.232910 6.096191 -46.811523 7.038574 -47.182617C7.980957 -47.553711 9.023438 -47.739258 10.166016 -47.739258C13.125000 -47.739258 15.327148 -46.728516 16.772461 -44.707031L14.545898 -42.363281C13.989258 -43.095703 13.339844 -43.659668 12.597656 -44.055176C11.855469 -44.450684 11.127930 -44.648438 10.415039 -44.648438C9.702148 -44.648438 9.138184 -44.499512 8.723145 -44.201660C8.308105 -43.903809 8.100586 -43.461914 8.100586 -42.875977C8.100586 -42.583008 8.166504 -42.321777 8.298340 -42.092285C8.430176 -41.862793 8.645020 -41.645508 8.942871 -41.440430C9.240723 -41.235352 9.526367 -41.064453 9.799805 -40.927734C10.073242 -40.791016 10.458984 -40.620117 10.957031 -40.415039L13.374023 -39.418945C14.516602 -38.940430 15.458984 -38.278809 16.201172 -37.434082C16.943359 -36.589355 17.314453 -35.551758 17.314453 -34.321289C17.314453 -33.764648 17.221680 -33.242188 17.036133 -32.753906C16.850586 -32.265625 16.625977 -31.875000 16.362305 -31.582031C16.098633 -31.289062 15.837402 -31.035156 15.578613 -30.820312C15.319824 -30.605469 15.097656 -30.454102 14.912109 -30.366211L14.633789 -30.249023C15.043945 -30.034180 15.473633 -29.572754 15.922852 -28.864746C16.372070 -28.156738 16.596680 -27.314453 16.596680 -26.337891C16.596680 -25.468750 16.406250 -24.689941 16.025391 -24.001465C15.644531 -23.312988 15.126953 -22.753906 14.472656 -22.324219C13.818359 -21.894531 13.081055 -21.567383 12.260742 -21.342773C11.440430 -21.118164 10.571289 -21.005859 9.653320 -21.005859C6.323242 -21.005859 3.964844 -22.163086 2.578125 -24.477539ZM6.606445 -35.493164C6.606445 -34.975586 6.748047 -34.543457 7.031250 -34.196777C7.314453 -33.850098 7.758789 -33.554688 8.364258 -33.310547L12.216797 -31.743164C12.597656 -31.860352 12.897949 -32.087402 13.117676 -32.424316C13.337402 -32.761230 13.447266 -33.183594 13.447266 -33.691406C13.447266 -34.736328 12.866211 -35.498047 11.704102 -35.976562L7.836914 -37.558594C7.495117 -37.431641 7.204590 -37.182617 6.965332 -36.811523C6.726074 -36.440430 6.606445 -36.000977 6.606445 -35.493164ZM6.606445 -35.493164"></path></svg>