<svg width="14.150391" height="27.011719" viewBox="1.625977 -48.017578 14.150391 27.011719" xmlns="http://www.w3.org/2000/svg"><path d="M1.625977 -24.785156L2.973633 -25.356445C3.149414 -24.389648 3.569336 -23.659668 4.233398 -23.166504C4.897461 -22.673340 5.737305 -22.426758 6.752930 -22.426758C7.885742 -22.426758 8.833008 -22.783203 9.594727 -23.496094C10.356445 -24.208984 10.737305 -25.131836 10.737305 -26.264648C10.737305 -26.801758 10.605469 -27.280273 10.341797 -27.700195C10.078125 -28.120117 9.736328 -28.471680 9.316406 -28.754883C8.896484 -29.038086 8.435059 -29.306641 7.932129 -29.560547C7.429199 -29.814453 6.923828 -30.078125 6.416016 -30.351562C5.908203 -30.625000 5.444336 -30.927734 5.024414 -31.259766C4.604492 -31.591797 4.262695 -32.016602 3.999023 -32.534180C3.735352 -33.051758 3.603516 -33.642578 3.603516 -34.306641C3.603516 -35.439453 3.979492 -36.486816 4.731445 -37.448730C5.483398 -38.410645 6.406250 -39.082031 7.500000 -39.462891C6.953125 -39.833984 6.520996 -40.319824 6.203613 -40.920410C5.886230 -41.520996 5.727539 -42.143555 5.727539 -42.788086C5.727539 -44.291992 6.254883 -45.539551 7.309570 -46.530762C8.364258 -47.521973 9.667969 -48.017578 11.220703 -48.017578C12.421875 -48.017578 13.420410 -47.744141 14.216309 -47.197266C15.012207 -46.650391 15.532227 -45.810547 15.776367 -44.677734L14.516602 -43.959961C14.086914 -45.776367 12.919922 -46.684570 11.015625 -46.684570C9.980469 -46.684570 9.111328 -46.350098 8.408203 -45.681152C7.705078 -45.012207 7.353516 -44.160156 7.353516 -43.125000C7.353516 -42.626953 7.473145 -42.180176 7.712402 -41.784668C7.951660 -41.389160 8.264160 -41.057129 8.649902 -40.788574C9.035645 -40.520020 9.462891 -40.261230 9.931641 -40.012207C10.400391 -39.763184 10.869141 -39.501953 11.337891 -39.228516C11.806641 -38.955078 12.233887 -38.654785 12.619629 -38.327637C13.005371 -38.000488 13.317871 -37.583008 13.557129 -37.075195C13.796387 -36.567383 13.916016 -35.991211 13.916016 -35.346680C13.916016 -34.213867 13.566895 -33.193359 12.868652 -32.285156C12.170410 -31.376953 11.279297 -30.698242 10.195312 -30.249023C10.859375 -29.819336 11.381836 -29.282227 11.762695 -28.637695C12.143555 -27.993164 12.333984 -27.290039 12.333984 -26.528320C12.333984 -25.483398 12.060547 -24.536133 11.513672 -23.686523C10.966797 -22.836914 10.239258 -22.177734 9.331055 -21.708984C8.422852 -21.240234 7.431641 -21.005859 6.357422 -21.005859C5.048828 -21.005859 3.981934 -21.320801 3.156738 -21.950684C2.331543 -22.580566 1.821289 -23.525391 1.625977 -24.785156ZM5.185547 -34.570312C5.185547 -34.345703 5.209961 -34.133301 5.258789 -33.933105C5.307617 -33.732910 5.390625 -33.542480 5.507812 -33.361816C5.625000 -33.181152 5.737305 -33.020020 5.844727 -32.878418C5.952148 -32.736816 6.108398 -32.590332 6.313477 -32.438965C6.518555 -32.287598 6.687012 -32.163086 6.818848 -32.065430C6.950684 -31.967773 7.145996 -31.850586 7.404785 -31.713867C7.663574 -31.577148 7.851562 -31.479492 7.968750 -31.420898C8.085938 -31.362305 8.283691 -31.267090 8.562012 -31.135254C8.840332 -31.003418 9.018555 -30.917969 9.096680 -30.878906C10.063477 -31.201172 10.849609 -31.740723 11.455078 -32.497559C12.060547 -33.254395 12.363281 -34.125977 12.363281 -35.112305C12.363281 -35.307617 12.338867 -35.500488 12.290039 -35.690918C12.241211 -35.881348 12.182617 -36.052246 12.114258 -36.203613C12.045898 -36.354980 11.943359 -36.511230 11.806641 -36.672363C11.669922 -36.833496 11.550293 -36.970215 11.447754 -37.082520C11.345215 -37.194824 11.191406 -37.321777 10.986328 -37.463379C10.781250 -37.604980 10.625000 -37.712402 10.517578 -37.785645C10.410156 -37.858887 10.234375 -37.958984 9.990234 -38.085938C9.746094 -38.212891 9.575195 -38.300781 9.477539 -38.349609C9.379883 -38.398438 9.201660 -38.483887 8.942871 -38.605957C8.684082 -38.728027 8.525391 -38.803711 8.466797 -38.833008C7.509766 -38.510742 6.723633 -37.963867 6.108398 -37.192383C5.493164 -36.420898 5.185547 -35.546875 5.185547 -34.570312ZM5.185547 -34.570312"></path></svg>