<svg width="6.416016" height="2.709961" viewBox="3.149414 -22.573242 6.416016 2.709961" xmlns="http://www.w3.org/2000/svg"><path d="M3.149414 -20.976562C3.149414 -21.396484 3.293457 -21.767578 3.581543 -22.089844C3.869629 -22.412109 4.223633 -22.573242 4.643555 -22.573242C4.956055 -22.573242 5.209961 -22.470703 5.405273 -22.265625C5.600586 -22.060547 5.698242 -21.801758 5.698242 -21.489258C5.698242 -21.079102 5.551758 -20.705566 5.258789 -20.368652C4.965820 -20.031738 4.614258 -19.863281 4.204102 -19.863281C3.891602 -19.863281 3.637695 -19.968262 3.442383 -20.178223C3.247070 -20.388184 3.149414 -20.654297 3.149414 -20.976562ZM7.045898 -20.976562C7.045898 -21.386719 7.189941 -21.755371 7.478027 -22.082520C7.766113 -22.409668 8.115234 -22.573242 8.525391 -22.573242C8.837891 -22.573242 9.089355 -22.473145 9.279785 -22.272949C9.470215 -22.072754 9.565430 -21.811523 9.565430 -21.489258C9.565430 -21.069336 9.423828 -20.693359 9.140625 -20.361328C8.857422 -20.029297 8.510742 -19.863281 8.100586 -19.863281C7.788086 -19.863281 7.534180 -19.968262 7.338867 -20.178223C7.143555 -20.388184 7.045898 -20.654297 7.045898 -20.976562ZM7.045898 -20.976562"></path></svg>