<svg width="7.763672" height="3.208008" viewBox="1.142578 -23.334961 7.763672 3.208008" xmlns="http://www.w3.org/2000/svg"><path d="M1.142578 -21.723633C1.142578 -22.211914 1.293945 -22.602539 1.596680 -22.895508C1.899414 -23.188477 2.275391 -23.334961 2.724609 -23.334961C3.154297 -23.334961 3.522949 -23.186035 3.830566 -22.888184C4.138184 -22.590332 4.291992 -22.202148 4.291992 -21.723633C4.291992 -21.254883 4.138184 -20.871582 3.830566 -20.573730C3.522949 -20.275879 3.154297 -20.126953 2.724609 -20.126953C2.285156 -20.126953 1.911621 -20.275879 1.604004 -20.573730C1.296387 -20.871582 1.142578 -21.254883 1.142578 -21.723633ZM5.756836 -21.723633C5.756836 -22.202148 5.910645 -22.590332 6.218262 -22.888184C6.525879 -23.186035 6.894531 -23.334961 7.324219 -23.334961C7.773438 -23.334961 8.149414 -23.188477 8.452148 -22.895508C8.754883 -22.602539 8.906250 -22.211914 8.906250 -21.723633C8.906250 -21.254883 8.752441 -20.871582 8.444824 -20.573730C8.137207 -20.275879 7.763672 -20.126953 7.324219 -20.126953C6.894531 -20.126953 6.525879 -20.275879 6.218262 -20.573730C5.910645 -20.871582 5.756836 -21.254883 5.756836 -21.723633ZM5.756836 -21.723633"></path></svg>