<svg width="21.357422" height="21.372070" viewBox="1.142578 -42.407227 21.357422 21.372070" xmlns="http://www.w3.org/2000/svg"><path d="M1.142578 -31.728516C1.142578 -33.203125 1.418457 -34.602051 1.970215 -35.925293C2.521973 -37.248535 3.271484 -38.383789 4.218750 -39.331055C5.166016 -40.278320 6.301270 -41.027832 7.624512 -41.579590C8.947754 -42.131348 10.346680 -42.407227 11.821289 -42.407227C13.295898 -42.407227 14.692383 -42.131348 16.010742 -41.579590C17.329102 -41.027832 18.461914 -40.278320 19.409180 -39.331055C20.356445 -38.383789 21.108398 -37.248535 21.665039 -35.925293C22.221680 -34.602051 22.500000 -33.203125 22.500000 -31.728516C22.500000 -29.755859 22.028809 -27.951660 21.086426 -26.315918C20.144043 -24.680176 18.854980 -23.391113 17.219238 -22.448730C15.583496 -21.506348 13.784180 -21.035156 11.821289 -21.035156C9.848633 -21.035156 8.044434 -21.506348 6.408691 -22.448730C4.772949 -23.391113 3.486328 -24.680176 2.548828 -26.315918C1.611328 -27.951660 1.142578 -29.755859 1.142578 -31.728516ZM2.548828 -31.728516C2.548828 -30.468750 2.792969 -29.267578 3.281250 -28.125000C3.769531 -26.982422 4.428711 -25.996094 5.258789 -25.166016C6.088867 -24.335938 7.075195 -23.676758 8.217773 -23.188477C9.360352 -22.700195 10.561523 -22.456055 11.821289 -22.456055C13.081055 -22.456055 14.282227 -22.700195 15.424805 -23.188477C16.567383 -23.676758 17.553711 -24.335938 18.383789 -25.166016C19.213867 -25.996094 19.873047 -26.982422 20.361328 -28.125000C20.849609 -29.267578 21.093750 -30.468750 21.093750 -31.728516C21.093750 -33.408203 20.678711 -34.958496 19.848633 -36.379395C19.018555 -37.800293 17.890625 -38.923340 16.464844 -39.748535C15.039062 -40.573730 13.491211 -40.986328 11.821289 -40.986328C10.141602 -40.986328 8.588867 -40.573730 7.163086 -39.748535C5.737305 -38.923340 4.611816 -37.800293 3.786621 -36.379395C2.961426 -34.958496 2.548828 -33.408203 2.548828 -31.728516ZM6.005859 -31.728516C6.005859 -33.583984 6.604004 -35.107422 7.800293 -36.298828C8.996582 -37.490234 10.488281 -38.085938 12.275391 -38.085938C13.349609 -38.085938 14.270020 -37.910156 15.036621 -37.558594C15.803223 -37.207031 16.391602 -36.801758 16.801758 -36.342773L15.834961 -34.907227C15.532227 -35.288086 15.075684 -35.632324 14.465332 -35.939941C13.854980 -36.247559 13.144531 -36.401367 12.333984 -36.401367C11.113281 -36.401367 10.087891 -35.996094 9.257812 -35.185547C8.427734 -34.375000 8.012695 -33.242188 8.012695 -31.787109C8.012695 -30.332031 8.417969 -29.191895 9.228516 -28.366699C10.039062 -27.541504 11.074219 -27.128906 12.333984 -27.128906C13.779297 -27.128906 15.000000 -27.612305 15.996094 -28.579102L16.918945 -27.246094C16.508789 -26.767578 15.908203 -26.333008 15.117188 -25.942383C14.326172 -25.551758 13.378906 -25.356445 12.275391 -25.356445C10.488281 -25.356445 8.996582 -25.954590 7.800293 -27.150879C6.604004 -28.347168 6.005859 -29.873047 6.005859 -31.728516ZM6.005859 -31.728516"></path></svg>