<svg width="8.041992" height="9.023438" viewBox="0.922852 -23.540039 8.041992 9.023438" xmlns="http://www.w3.org/2000/svg"><path d="M0.922852 -17.241211C0.922852 -17.846680 1.096191 -18.349609 1.442871 -18.750000C1.789551 -19.150391 2.209473 -19.428711 2.702637 -19.584961C3.195801 -19.741211 3.764648 -19.829102 4.409180 -19.848633L6.840820 -19.936523L6.840820 -20.126953C6.840820 -20.751953 6.640625 -21.223145 6.240234 -21.540527C5.839844 -21.857910 5.317383 -22.016602 4.672852 -22.016602C4.125977 -22.016602 3.593750 -21.926270 3.076172 -21.745605C2.558594 -21.564941 2.211914 -21.396484 2.036133 -21.240234L1.347656 -22.587891C1.728516 -22.832031 2.238770 -23.051758 2.878418 -23.247070C3.518066 -23.442383 4.179688 -23.540039 4.863281 -23.540039C6.269531 -23.540039 7.309570 -23.203125 7.983398 -22.529297C8.637695 -21.904297 8.964844 -20.913086 8.964844 -19.555664L8.964844 -14.663086L6.899414 -14.663086L6.870117 -15.747070C6.616211 -15.454102 6.232910 -15.175781 5.720215 -14.912109C5.207520 -14.648438 4.648438 -14.516602 4.042969 -14.516602C3.535156 -14.516602 3.051758 -14.606934 2.592773 -14.787598C2.133789 -14.968262 1.740723 -15.270996 1.413574 -15.695801C1.086426 -16.120605 0.922852 -16.635742 0.922852 -17.241211ZM3.149414 -17.329102C3.149414 -16.889648 3.298340 -16.550293 3.596191 -16.311035C3.894043 -16.071777 4.306641 -15.952148 4.833984 -15.952148C5.302734 -15.952148 5.720215 -16.069336 6.086426 -16.303711C6.452637 -16.538086 6.704102 -16.752930 6.840820 -16.948242L6.840820 -18.720703L4.863281 -18.647461C4.345703 -18.618164 3.930664 -18.493652 3.618164 -18.273926C3.305664 -18.054199 3.149414 -17.739258 3.149414 -17.329102ZM3.149414 -17.329102"></path></svg>