<svg width="21.357422" height="21.372070" viewBox="0.717773 -42.407227 21.357422 21.372070" xmlns="http://www.w3.org/2000/svg"><path d="M0.717773 -31.728516C0.717773 -33.193359 0.996094 -34.587402 1.552734 -35.910645C2.109375 -37.233887 2.861328 -38.369141 3.808594 -39.316406C4.755859 -40.263672 5.891113 -41.015625 7.214355 -41.572266C8.537598 -42.128906 9.931641 -42.407227 11.396484 -42.407227C12.861328 -42.407227 14.255371 -42.128906 15.578613 -41.572266C16.901855 -41.015625 18.037109 -40.263672 18.984375 -39.316406C19.931641 -38.369141 20.683594 -37.233887 21.240234 -35.910645C21.796875 -34.587402 22.075195 -33.193359 22.075195 -31.728516C22.075195 -30.263672 21.796875 -28.869629 21.240234 -27.546387C20.683594 -26.223145 19.931641 -25.085449 18.984375 -24.133301C18.037109 -23.181152 16.901855 -22.426758 15.578613 -21.870117C14.255371 -21.313477 12.861328 -21.035156 11.396484 -21.035156C9.931641 -21.035156 8.537598 -21.313477 7.214355 -21.870117C5.891113 -22.426758 4.755859 -23.181152 3.808594 -24.133301C2.861328 -25.085449 2.109375 -26.223145 1.552734 -27.546387C0.996094 -28.869629 0.717773 -30.263672 0.717773 -31.728516ZM2.006836 -31.728516C2.006836 -30.468750 2.258301 -29.260254 2.761230 -28.103027C3.264160 -26.945801 3.935547 -25.947266 4.775391 -25.107422C5.615234 -24.267578 6.613770 -23.596191 7.770996 -23.093262C8.928223 -22.590332 10.136719 -22.338867 11.396484 -22.338867C12.656250 -22.338867 13.864746 -22.590332 15.021973 -23.093262C16.179199 -23.596191 17.177734 -24.267578 18.017578 -25.107422C18.857422 -25.947266 19.528809 -26.945801 20.031738 -28.103027C20.534668 -29.260254 20.786133 -30.468750 20.786133 -31.728516C20.786133 -32.988281 20.534668 -34.196777 20.031738 -35.354004C19.528809 -36.511230 18.857422 -37.509766 18.017578 -38.349609C17.177734 -39.189453 16.179199 -39.860840 15.021973 -40.363770C13.864746 -40.866699 12.656250 -41.118164 11.396484 -41.118164C10.136719 -41.118164 8.928223 -40.866699 7.770996 -40.363770C6.613770 -39.860840 5.615234 -39.189453 4.775391 -38.349609C3.935547 -37.509766 3.264160 -36.511230 2.761230 -35.354004C2.258301 -34.196777 2.006836 -32.988281 2.006836 -31.728516ZM7.705078 -25.605469L7.705078 -37.836914L11.191406 -37.836914C12.441406 -37.836914 13.444824 -37.536621 14.201660 -36.936035C14.958496 -36.335449 15.336914 -35.478516 15.336914 -34.365234C15.336914 -33.828125 15.246582 -33.347168 15.065918 -32.922363C14.885254 -32.497559 14.645996 -32.158203 14.348145 -31.904297C14.050293 -31.650391 13.747559 -31.452637 13.439941 -31.311035C13.132324 -31.169434 12.812500 -31.064453 12.480469 -30.996094L15.966797 -25.605469L14.106445 -25.605469L10.883789 -30.849609L9.184570 -30.849609L9.184570 -25.605469ZM9.184570 -32.138672L10.986328 -32.138672C12.822266 -32.138672 13.740234 -32.880859 13.740234 -34.365234C13.740234 -35.820312 12.822266 -36.547852 10.986328 -36.547852L9.184570 -36.547852ZM9.184570 -32.138672"></path></svg>