<svg width="9.169922" height="13.168945" viewBox="1.083984 -35.009766 9.169922 13.168945" xmlns="http://www.w3.org/2000/svg"><path d="M1.083984 -31.801758C1.210938 -32.680664 1.679688 -33.435059 2.490234 -34.064941C3.300781 -34.694824 4.331055 -35.009766 5.581055 -35.009766C6.870117 -35.009766 7.932129 -34.670410 8.767090 -33.991699C9.602051 -33.312988 10.019531 -32.441406 10.019531 -31.376953C10.019531 -31.123047 9.990234 -30.866699 9.931641 -30.607910C9.873047 -30.349121 9.812012 -30.122070 9.748535 -29.926758C9.685059 -29.731445 9.572754 -29.506836 9.411621 -29.252930C9.250488 -28.999023 9.128418 -28.808594 9.045410 -28.681641C8.962402 -28.554688 8.803711 -28.366699 8.569336 -28.117676C8.334961 -27.868652 8.183594 -27.707520 8.115234 -27.634277C8.046875 -27.561035 7.878418 -27.395020 7.609863 -27.136230C7.341309 -26.877441 7.192383 -26.733398 7.163086 -26.704102L4.086914 -23.642578L10.253906 -23.642578L10.253906 -21.840820L1.376953 -21.840820L1.230469 -23.393555L5.976562 -28.022461C6.669922 -28.715820 7.163086 -29.287109 7.456055 -29.736328C7.749023 -30.185547 7.895508 -30.673828 7.895508 -31.201172C7.895508 -31.796875 7.673340 -32.280273 7.229004 -32.651367C6.784668 -33.022461 6.186523 -33.208008 5.434570 -33.208008C4.008789 -33.208008 3.017578 -32.446289 2.460938 -30.922852ZM1.083984 -31.801758"></path></svg>