<svg width="10.136719" height="12.861328" viewBox="1.142578 -34.277344 10.136719 12.861328" xmlns="http://www.w3.org/2000/svg"><path d="M1.142578 -31.787109C1.210938 -32.285156 1.716309 -32.824707 2.658691 -33.405762C3.601074 -33.986816 4.736328 -34.277344 6.064453 -34.277344C7.509766 -34.277344 8.669434 -33.937988 9.543457 -33.259277C10.417480 -32.580566 10.854492 -31.689453 10.854492 -30.585938C10.854492 -30.322266 10.825195 -30.058594 10.766602 -29.794922C10.708008 -29.531250 10.649414 -29.304199 10.590820 -29.113770C10.532227 -28.923340 10.417480 -28.703613 10.246582 -28.454590C10.075684 -28.205566 9.956055 -28.022461 9.887695 -27.905273C9.819336 -27.788086 9.660645 -27.607422 9.411621 -27.363281C9.162598 -27.119141 9.013672 -26.970215 8.964844 -26.916504C8.916016 -26.862793 8.747559 -26.708984 8.459473 -26.455078C8.171387 -26.201172 8.022461 -26.069336 8.012695 -26.059570L5.786133 -24.052734L11.279297 -24.052734L11.279297 -21.416016L1.684570 -21.416016L1.289062 -23.569336L5.668945 -27.465820C6.372070 -28.090820 6.862793 -28.601074 7.141113 -28.996582C7.419434 -29.392090 7.558594 -29.785156 7.558594 -30.175781C7.558594 -30.605469 7.402344 -30.947266 7.089844 -31.201172C6.777344 -31.455078 6.342773 -31.582031 5.786133 -31.582031C4.565430 -31.582031 3.515625 -30.952148 2.636719 -29.692383ZM1.142578 -31.787109"></path></svg>