<svg width="9.155273" height="13.315430" viewBox="1.230469 -35.156250 9.155273 13.315430" xmlns="http://www.w3.org/2000/svg"><path d="M1.230469 -24.653320L2.666016 -25.590820C2.890625 -24.965820 3.269043 -24.477539 3.801270 -24.125977C4.333496 -23.774414 4.946289 -23.598633 5.639648 -23.598633C6.352539 -23.598633 6.965332 -23.796387 7.478027 -24.191895C7.990723 -24.587402 8.247070 -25.102539 8.247070 -25.737305C8.247070 -26.411133 8.000488 -26.943359 7.507324 -27.333984C7.014160 -27.724609 6.391602 -27.929688 5.639648 -27.949219L4.892578 -27.949219L4.892578 -29.633789L5.756836 -29.633789C6.381836 -29.653320 6.904297 -29.841309 7.324219 -30.197754C7.744141 -30.554199 7.954102 -31.035156 7.954102 -31.640625C7.954102 -32.167969 7.751465 -32.600098 7.346191 -32.937012C6.940918 -33.273926 6.411133 -33.442383 5.756836 -33.442383C5.141602 -33.442383 4.592285 -33.288574 4.108887 -32.980957C3.625488 -32.673340 3.247070 -32.236328 2.973633 -31.669922L1.772461 -32.695312C2.104492 -33.447266 2.619629 -34.045410 3.317871 -34.489746C4.016113 -34.934082 4.858398 -35.156250 5.844727 -35.156250C7.016602 -35.156250 8.010254 -34.841309 8.825684 -34.211426C9.641113 -33.581543 10.048828 -32.768555 10.048828 -31.772461C10.048828 -31.088867 9.860840 -30.500488 9.484863 -30.007324C9.108887 -29.514160 8.598633 -29.140625 7.954102 -28.886719L7.954102 -28.828125C8.676758 -28.632812 9.262695 -28.249512 9.711914 -27.678223C10.161133 -27.106934 10.385742 -26.450195 10.385742 -25.708008C10.385742 -24.555664 9.936523 -23.623047 9.038086 -22.910156C8.139648 -22.197266 7.045898 -21.840820 5.756836 -21.840820C4.643555 -21.840820 3.691406 -22.080078 2.900391 -22.558594C2.109375 -23.037109 1.552734 -23.735352 1.230469 -24.653320ZM1.230469 -24.653320"></path></svg>