<svg width="10.107422" height="13.081055" viewBox="1.289062 -34.497070 10.107422 13.081055" xmlns="http://www.w3.org/2000/svg"><path d="M1.289062 -23.935547L3.061523 -25.795898C3.383789 -25.258789 3.833008 -24.841309 4.409180 -24.543457C4.985352 -24.245605 5.556641 -24.096680 6.123047 -24.096680C6.669922 -24.096680 7.136230 -24.228516 7.521973 -24.492188C7.907715 -24.755859 8.100586 -25.112305 8.100586 -25.561523C8.100586 -26.030273 7.924805 -26.396484 7.573242 -26.660156C7.221680 -26.923828 6.757812 -27.055664 6.181641 -27.055664L5.068359 -27.084961L5.068359 -29.458008L6.269531 -29.458008C6.748047 -29.458008 7.121582 -29.577637 7.390137 -29.816895C7.658691 -30.056152 7.792969 -30.385742 7.792969 -30.805664C7.792969 -31.157227 7.651367 -31.440430 7.368164 -31.655273C7.084961 -31.870117 6.689453 -31.977539 6.181641 -31.977539C5.029297 -31.977539 4.047852 -31.499023 3.237305 -30.541992L1.860352 -32.548828C2.885742 -33.847656 4.394531 -34.497070 6.386719 -34.497070C7.646484 -34.497070 8.732910 -34.184570 9.645996 -33.559570C10.559082 -32.934570 11.015625 -32.109375 11.015625 -31.083984C11.015625 -29.824219 10.454102 -28.911133 9.331055 -28.344727L9.301758 -28.344727C9.946289 -28.129883 10.456543 -27.763672 10.832520 -27.246094C11.208496 -26.728516 11.396484 -26.118164 11.396484 -25.415039C11.396484 -24.604492 11.152344 -23.889160 10.664062 -23.269043C10.175781 -22.648926 9.558105 -22.185059 8.811035 -21.877441C8.063965 -21.569824 7.265625 -21.416016 6.416016 -21.416016C4.062500 -21.416016 2.353516 -22.255859 1.289062 -23.935547ZM1.289062 -23.935547"></path></svg>