<svg width="10.136719" height="9.272461" viewBox="1.259766 -24.301758 10.136719 9.272461" xmlns="http://www.w3.org/2000/svg"><path d="M1.259766 -19.658203C1.259766 -21.064453 1.733398 -22.189941 2.680664 -23.034668C3.627930 -23.879395 4.843750 -24.301758 6.328125 -24.301758C7.802734 -24.301758 9.016113 -23.879395 9.968262 -23.034668C10.920410 -22.189941 11.396484 -21.064453 11.396484 -19.658203C11.396484 -18.271484 10.917969 -17.153320 9.960938 -16.303711C9.003906 -15.454102 7.792969 -15.029297 6.328125 -15.029297C4.853516 -15.029297 3.640137 -15.451660 2.687988 -16.296387C1.735840 -17.141113 1.259766 -18.261719 1.259766 -19.658203ZM4.409180 -19.716797C4.409180 -19.033203 4.592285 -18.491211 4.958496 -18.090820C5.324707 -17.690430 5.781250 -17.490234 6.328125 -17.490234C6.875000 -17.490234 7.326660 -17.690430 7.683105 -18.090820C8.039551 -18.491211 8.217773 -19.033203 8.217773 -19.716797C8.217773 -20.400391 8.039551 -20.935059 7.683105 -21.320801C7.326660 -21.706543 6.875000 -21.899414 6.328125 -21.899414C5.781250 -21.899414 5.324707 -21.706543 4.958496 -21.320801C4.592285 -20.935059 4.409180 -20.400391 4.409180 -19.716797ZM4.409180 -19.716797"></path></svg>