<svg width="9.360352" height="9.023438" viewBox="1.230469 -23.540039 9.360352 9.023438" xmlns="http://www.w3.org/2000/svg"><path d="M1.230469 -19.013672C1.230469 -20.332031 1.677246 -21.416016 2.570801 -22.265625C3.464355 -23.115234 4.575195 -23.540039 5.903320 -23.540039C7.241211 -23.540039 8.356934 -23.115234 9.250488 -22.265625C10.144043 -21.416016 10.590820 -20.332031 10.590820 -19.013672C10.590820 -17.705078 10.141602 -16.628418 9.243164 -15.783691C8.344727 -14.938965 7.231445 -14.516602 5.903320 -14.516602C4.575195 -14.516602 3.464355 -14.938965 2.570801 -15.783691C1.677246 -16.628418 1.230469 -17.705078 1.230469 -19.013672ZM3.354492 -19.101562C3.354492 -18.232422 3.598633 -17.546387 4.086914 -17.043457C4.575195 -16.540527 5.180664 -16.289062 5.903320 -16.289062C6.606445 -16.289062 7.202148 -16.540527 7.690430 -17.043457C8.178711 -17.546387 8.422852 -18.232422 8.422852 -19.101562C8.422852 -19.951172 8.181152 -20.617676 7.697754 -21.101074C7.214355 -21.584473 6.616211 -21.826172 5.903320 -21.826172C5.180664 -21.826172 4.575195 -21.584473 4.086914 -21.101074C3.598633 -20.617676 3.354492 -19.951172 3.354492 -19.101562ZM3.354492 -19.101562"></path></svg>