<svg width="22.954102" height="21.870117" viewBox="1.948242 -43.051758 22.954102 21.870117" xmlns="http://www.w3.org/2000/svg"><path d="M1.948242 -40.957031L1.948242 -42.568359L6.635742 -42.568359L6.635742 -30.117188L4.467773 -30.117188L4.467773 -40.957031ZM4.438477 -22.075195L17.255859 -43.051758L18.750000 -42.143555L5.947266 -21.181641ZM15.717773 -32.094727C16.088867 -32.846680 16.650391 -33.471680 17.402344 -33.969727C18.154297 -34.467773 19.082031 -34.716797 20.185547 -34.716797C21.396484 -34.716797 22.404785 -34.370117 23.210449 -33.676758C24.016113 -32.983398 24.418945 -32.109375 24.418945 -31.054688C24.418945 -30.644531 24.360352 -30.244141 24.243164 -29.853516C24.125977 -29.462891 23.994141 -29.130859 23.847656 -28.857422C23.701172 -28.583984 23.488770 -28.281250 23.210449 -27.949219C22.932129 -27.617188 22.705078 -27.365723 22.529297 -27.194824C22.353516 -27.023926 22.104492 -26.787109 21.782227 -26.484375L18.808594 -23.701172L24.902344 -23.701172L24.902344 -21.870117L16.113281 -21.870117L15.805664 -23.247070L20.126953 -27.304688C20.566406 -27.724609 20.917969 -28.078613 21.181641 -28.366699C21.445312 -28.654785 21.696777 -29.018555 21.936035 -29.458008C22.175293 -29.897461 22.294922 -30.317383 22.294922 -30.717773C22.294922 -31.372070 22.072754 -31.896973 21.628418 -32.292480C21.184082 -32.687988 20.615234 -32.885742 19.921875 -32.885742C18.750000 -32.885742 17.749023 -32.202148 16.918945 -30.834961ZM15.717773 -32.094727"></path></svg>