<svg width="20.039062" height="21.840820" viewBox="3.237305 -42.993164 20.039062 21.840820" xmlns="http://www.w3.org/2000/svg"><path d="M3.237305 -21.870117L18.867188 -42.993164L19.892578 -42.304688L4.262695 -21.152344ZM4.467773 -41.367188L4.672852 -42.539062L8.496094 -42.539062L6.503906 -30.058594L5.185547 -30.058594L6.987305 -41.367188ZM14.135742 -22.763672L19.086914 -27.114258C19.497070 -27.485352 19.819336 -27.788086 20.053711 -28.022461C20.288086 -28.256836 20.571289 -28.571777 20.903320 -28.967285C21.235352 -29.362793 21.479492 -29.760742 21.635742 -30.161133C21.791992 -30.561523 21.870117 -30.966797 21.870117 -31.376953C21.870117 -32.031250 21.657715 -32.551270 21.232910 -32.937012C20.808105 -33.322754 20.268555 -33.515625 19.614258 -33.515625C18.383789 -33.515625 17.333984 -32.763672 16.464844 -31.259766L15.512695 -31.889648C16.108398 -32.817383 16.760254 -33.530273 17.468262 -34.028320C18.176270 -34.526367 19.023438 -34.775391 20.009766 -34.775391C20.927734 -34.775391 21.701660 -34.492188 22.331543 -33.925781C22.961426 -33.359375 23.276367 -32.622070 23.276367 -31.713867C23.276367 -31.166992 23.144531 -30.595703 22.880859 -30.000000C22.617188 -29.404297 22.297363 -28.864746 21.921387 -28.381348C21.545410 -27.897949 21.071777 -27.377930 20.500488 -26.821289C19.929199 -26.264648 19.421387 -25.803223 18.977051 -25.437012C18.532715 -25.070801 18.012695 -24.650879 17.416992 -24.177246C16.821289 -23.703613 16.406250 -23.364258 16.171875 -23.159180L22.382812 -23.159180L22.163086 -21.840820L14.223633 -21.840820ZM14.135742 -22.763672"></path></svg>