<svg width="23.276367" height="22.529297" viewBox="1.230469 -44.370117 23.276367 22.529297" xmlns="http://www.w3.org/2000/svg"><path d="M1.230469 -33.867188L2.666016 -34.804688C2.890625 -34.179688 3.269043 -33.691406 3.801270 -33.339844C4.333496 -32.988281 4.946289 -32.812500 5.639648 -32.812500C6.352539 -32.812500 6.965332 -33.010254 7.478027 -33.405762C7.990723 -33.801270 8.247070 -34.316406 8.247070 -34.951172C8.247070 -35.625000 8.000488 -36.157227 7.507324 -36.547852C7.014160 -36.938477 6.391602 -37.143555 5.639648 -37.163086L4.892578 -37.163086L4.892578 -38.847656L5.756836 -38.847656C6.381836 -38.867188 6.904297 -39.055176 7.324219 -39.411621C7.744141 -39.768066 7.954102 -40.249023 7.954102 -40.854492C7.954102 -41.381836 7.751465 -41.813965 7.346191 -42.150879C6.940918 -42.487793 6.411133 -42.656250 5.756836 -42.656250C5.141602 -42.656250 4.592285 -42.502441 4.108887 -42.194824C3.625488 -41.887207 3.247070 -41.450195 2.973633 -40.883789L1.772461 -41.909180C2.104492 -42.661133 2.619629 -43.259277 3.317871 -43.703613C4.016113 -44.147949 4.858398 -44.370117 5.844727 -44.370117C7.016602 -44.370117 8.010254 -44.055176 8.825684 -43.425293C9.641113 -42.795410 10.048828 -41.982422 10.048828 -40.986328C10.048828 -40.302734 9.860840 -39.714355 9.484863 -39.221191C9.108887 -38.728027 8.598633 -38.354492 7.954102 -38.100586L7.954102 -38.041992C8.676758 -37.846680 9.262695 -37.463379 9.711914 -36.892090C10.161133 -36.320801 10.385742 -35.664062 10.385742 -34.921875C10.385742 -33.769531 9.936523 -32.836914 9.038086 -32.124023C8.139648 -31.411133 7.045898 -31.054688 5.756836 -31.054688C4.643555 -31.054688 3.691406 -31.293945 2.900391 -31.772461C2.109375 -32.250977 1.552734 -32.949219 1.230469 -33.867188ZM5.874023 -22.734375L18.691406 -43.710938L20.185547 -42.802734L7.382812 -21.840820ZM13.710938 -25.166016L13.710938 -26.484375L20.610352 -35.639648L22.617188 -35.639648L22.617188 -26.909180L24.506836 -26.909180L24.506836 -25.166016L22.617188 -25.166016L22.617188 -22.529297L20.493164 -22.529297L20.493164 -25.166016ZM16.083984 -26.909180L20.493164 -26.909180L20.493164 -32.944336ZM16.083984 -26.909180"></path></svg>