<svg width="11.308594" height="21.298828" viewBox="1.713867 -35.844727 11.308594 21.298828" xmlns="http://www.w3.org/2000/svg"><path d="M1.713867 -19.438477C1.713867 -20.024414 1.774902 -20.556641 1.896973 -21.035156C2.019043 -21.513672 2.214355 -21.955566 2.482910 -22.360840C2.751465 -22.766113 2.998047 -23.093262 3.222656 -23.342285C3.447266 -23.591309 3.764648 -23.911133 4.174805 -24.301758C4.350586 -24.467773 4.589844 -24.689941 4.892578 -24.968262C5.195312 -25.246582 5.424805 -25.461426 5.581055 -25.612793C5.737305 -25.764160 5.900879 -25.947266 6.071777 -26.162109C6.242676 -26.376953 6.376953 -26.586914 6.474609 -26.791992C6.621094 -27.211914 6.694336 -27.592773 6.694336 -27.934570L6.752930 -30.029297L9.184570 -30.029297L9.243164 -27.905273C9.252930 -27.338867 9.206543 -26.833496 9.104004 -26.389160C9.001465 -25.944824 8.825684 -25.539551 8.576660 -25.173340C8.327637 -24.807129 8.115234 -24.526367 7.939453 -24.331055C7.763672 -24.135742 7.495117 -23.876953 7.133789 -23.554688L5.405273 -21.928711C4.760742 -21.352539 4.438477 -20.625000 4.438477 -19.746094C4.438477 -18.886719 4.746094 -18.205566 5.361328 -17.702637C5.976562 -17.199707 6.787109 -16.948242 7.792969 -16.948242C8.710938 -16.948242 9.506836 -17.160645 10.180664 -17.585449C10.854492 -18.010254 11.372070 -18.530273 11.733398 -19.145508L13.022461 -17.343750C12.885742 -17.128906 12.734375 -16.916504 12.568359 -16.706543C12.402344 -16.496582 12.153320 -16.254883 11.821289 -15.981445C11.489258 -15.708008 11.130371 -15.471191 10.744629 -15.270996C10.358887 -15.070801 9.870605 -14.899902 9.279785 -14.758301C8.688965 -14.616699 8.056641 -14.545898 7.382812 -14.545898C5.683594 -14.545898 4.313965 -15.024414 3.273926 -15.981445C2.233887 -16.938477 1.713867 -18.090820 1.713867 -19.438477ZM5.976562 -33.955078C5.976562 -34.521484 6.162109 -34.978027 6.533203 -35.324707C6.904297 -35.671387 7.387695 -35.844727 7.983398 -35.844727C8.559570 -35.844727 9.033203 -35.671387 9.404297 -35.324707C9.775391 -34.978027 9.960938 -34.521484 9.960938 -33.955078C9.960938 -33.388672 9.775391 -32.932129 9.404297 -32.585449C9.033203 -32.238770 8.559570 -32.065430 7.983398 -32.065430C7.387695 -32.065430 6.904297 -32.238770 6.533203 -32.585449C6.162109 -32.932129 5.976562 -33.388672 5.976562 -33.955078ZM5.976562 -33.955078"></path></svg>