<svg width="19.438477" height="26.015625" viewBox="0.029297 -52.031250 19.438477 26.015625" xmlns="http://www.w3.org/2000/svg"><path d="M0.029297 -26.015625L8.466797 -46.772461L11.015625 -46.772461L19.467773 -26.015625L16.230469 -26.015625L14.106445 -31.420898L5.214844 -31.420898L3.090820 -26.015625ZM5.068359 -49.262695C5.107422 -50.063477 5.402832 -50.725098 5.954590 -51.247559C6.506348 -51.770020 7.133789 -52.031250 7.836914 -52.031250C8.090820 -52.031250 8.344727 -52.001953 8.598633 -51.943359C8.852539 -51.884766 9.040527 -51.828613 9.162598 -51.774902C9.284668 -51.721191 9.443359 -51.643066 9.638672 -51.540527C9.833984 -51.437988 9.941406 -51.381836 9.960938 -51.372070C10.000000 -51.352539 10.139160 -51.269531 10.378418 -51.123047C10.617676 -50.976562 10.849609 -50.859375 11.074219 -50.771484C11.298828 -50.683594 11.518555 -50.639648 11.733398 -50.639648C12.065430 -50.639648 12.348633 -50.761719 12.583008 -51.005859C12.817383 -51.250000 12.963867 -51.547852 13.022461 -51.899414L14.428711 -51.606445C14.370117 -50.805664 14.069824 -50.146484 13.527832 -49.628906C12.985840 -49.111328 12.368164 -48.852539 11.674805 -48.852539C11.420898 -48.852539 11.166992 -48.881836 10.913086 -48.940430C10.659180 -48.999023 10.468750 -49.055176 10.341797 -49.108887C10.214844 -49.162598 10.051270 -49.243164 9.851074 -49.350586C9.650879 -49.458008 9.545898 -49.511719 9.536133 -49.511719C9.506836 -49.531250 9.367676 -49.614258 9.118652 -49.760742C8.869629 -49.907227 8.635254 -50.021973 8.415527 -50.104980C8.195801 -50.187988 7.978516 -50.229492 7.763672 -50.229492C7.431641 -50.229492 7.148438 -50.107422 6.914062 -49.863281C6.679688 -49.619141 6.533203 -49.321289 6.474609 -48.969727ZM6.035156 -33.852539L13.286133 -33.852539L9.653320 -43.139648ZM6.035156 -33.852539"></path></svg>