<svg width="19.438477" height="25.913086" viewBox="0.029297 -51.826172 19.438477 25.913086" xmlns="http://www.w3.org/2000/svg"><path d="M0.029297 -25.913086L8.466797 -46.669922L11.015625 -46.669922L19.467773 -25.913086L16.230469 -25.913086L14.106445 -31.318359L5.214844 -31.318359L3.090820 -25.913086ZM5.874023 -50.244141C5.874023 -50.712891 6.027832 -51.093750 6.335449 -51.386719C6.643066 -51.679688 7.021484 -51.826172 7.470703 -51.826172C7.900391 -51.826172 8.266602 -51.679688 8.569336 -51.386719C8.872070 -51.093750 9.023438 -50.712891 9.023438 -50.244141C9.023438 -49.755859 8.872070 -49.362793 8.569336 -49.064941C8.266602 -48.767090 7.900391 -48.618164 7.470703 -48.618164C7.021484 -48.618164 6.643066 -48.767090 6.335449 -49.064941C6.027832 -49.362793 5.874023 -49.755859 5.874023 -50.244141ZM6.035156 -33.750000L13.286133 -33.750000L9.653320 -43.037109ZM10.473633 -50.244141C10.473633 -50.712891 10.622559 -51.093750 10.920410 -51.386719C11.218262 -51.679688 11.586914 -51.826172 12.026367 -51.826172C12.475586 -51.826172 12.854004 -51.679688 13.161621 -51.386719C13.469238 -51.093750 13.623047 -50.712891 13.623047 -50.244141C13.623047 -49.755859 13.469238 -49.362793 13.161621 -49.064941C12.854004 -48.767090 12.475586 -48.618164 12.026367 -48.618164C11.586914 -48.618164 11.218262 -48.767090 10.920410 -49.064941C10.622559 -49.362793 10.473633 -49.755859 10.473633 -50.244141ZM10.473633 -50.244141"></path></svg>