<svg width="19.438477" height="27.509766" viewBox="0.029297 -55.019531 19.438477 27.509766" xmlns="http://www.w3.org/2000/svg"><path d="M0.029297 -27.509766L8.466797 -48.266602L11.015625 -48.266602L19.467773 -27.509766L16.230469 -27.509766L14.106445 -32.915039L5.214844 -32.915039L3.090820 -27.509766ZM6.035156 -35.346680L13.286133 -35.346680L9.653320 -44.633789ZM6.752930 -52.163086C6.752930 -52.993164 7.043457 -53.676758 7.624512 -54.213867C8.205566 -54.750977 8.916016 -55.019531 9.755859 -55.019531C10.595703 -55.019531 11.303711 -54.750977 11.879883 -54.213867C12.456055 -53.676758 12.744141 -52.993164 12.744141 -52.163086C12.744141 -51.333008 12.456055 -50.651855 11.879883 -50.119629C11.303711 -49.587402 10.595703 -49.321289 9.755859 -49.321289C8.916016 -49.321289 8.205566 -49.587402 7.624512 -50.119629C7.043457 -50.651855 6.752930 -51.333008 6.752930 -52.163086ZM8.188477 -52.163086C8.188477 -51.713867 8.337402 -51.337891 8.635254 -51.035156C8.933105 -50.732422 9.306641 -50.581055 9.755859 -50.581055C10.205078 -50.581055 10.576172 -50.732422 10.869141 -51.035156C11.162109 -51.337891 11.308594 -51.713867 11.308594 -52.163086C11.308594 -52.612305 11.162109 -52.985840 10.869141 -53.283691C10.576172 -53.581543 10.205078 -53.730469 9.755859 -53.730469C9.306641 -53.730469 8.933105 -53.581543 8.635254 -53.283691C8.337402 -52.985840 8.188477 -52.612305 8.188477 -52.163086ZM8.188477 -52.163086"></path></svg>