<svg width="18.574219" height="25.502930" viewBox="2.065430 -46.508789 18.574219 25.502930" xmlns="http://www.w3.org/2000/svg"><path d="M2.065430 -33.779297C2.065430 -35.458984 2.360840 -37.072754 2.951660 -38.620605C3.542480 -40.168457 4.350586 -41.523438 5.375977 -42.685547C6.401367 -43.847656 7.661133 -44.775391 9.155273 -45.468750C10.649414 -46.162109 12.246094 -46.508789 13.945312 -46.508789C16.748047 -46.508789 18.979492 -45.478516 20.639648 -43.417969L19.467773 -42.246094C18.940430 -43.134766 18.134766 -43.815918 17.050781 -44.289551C15.966797 -44.763184 14.853516 -45.000000 13.710938 -45.000000C12.275391 -45.000000 10.932617 -44.692383 9.682617 -44.077148C8.432617 -43.461914 7.382812 -42.646484 6.533203 -41.630859C5.683594 -40.615234 5.017090 -39.448242 4.533691 -38.129883C4.050293 -36.811523 3.808594 -35.454102 3.808594 -34.057617C3.808594 -31.879883 4.438477 -30.114746 5.698242 -28.762207C6.958008 -27.409668 8.666992 -26.733398 10.825195 -26.733398C12.094727 -26.733398 13.312988 -26.967773 14.479980 -27.436523C15.646973 -27.905273 16.679688 -28.579102 17.578125 -29.458008L18.486328 -28.388672C16.259766 -26.250000 13.657227 -25.166016 10.678711 -25.136719L8.129883 -21.005859L6.210938 -21.005859L9.301758 -25.209961C7.084961 -25.483398 5.324707 -26.394043 4.020996 -27.941895C2.717285 -29.489746 2.065430 -31.435547 2.065430 -33.779297ZM2.065430 -33.779297"></path></svg>