<svg width="13.681641" height="26.015625" viewBox="1.889648 -52.031250 13.681641 26.015625" xmlns="http://www.w3.org/2000/svg"><path d="M1.889648 -26.015625L1.889648 -46.713867L15.292969 -46.713867L15.292969 -42.846680L6.723633 -42.846680L6.723633 -38.613281L14.824219 -38.613281L14.824219 -34.746094L6.723633 -34.746094L6.723633 -29.941406L15.571289 -29.941406L15.571289 -26.015625ZM3.896484 -50.009766C3.896484 -50.605469 4.086914 -51.091309 4.467773 -51.467285C4.848633 -51.843262 5.327148 -52.031250 5.903320 -52.031250C6.479492 -52.031250 6.965332 -51.843262 7.360840 -51.467285C7.756348 -51.091309 7.954102 -50.605469 7.954102 -50.009766C7.954102 -49.414062 7.758789 -48.930664 7.368164 -48.559570C6.977539 -48.188477 6.489258 -48.002930 5.903320 -48.002930C5.327148 -48.002930 4.848633 -48.188477 4.467773 -48.559570C4.086914 -48.930664 3.896484 -49.414062 3.896484 -50.009766ZM9.301758 -50.009766C9.301758 -50.605469 9.492188 -51.091309 9.873047 -51.467285C10.253906 -51.843262 10.732422 -52.031250 11.308594 -52.031250C11.894531 -52.031250 12.380371 -51.843262 12.766113 -51.467285C13.151855 -51.091309 13.344727 -50.605469 13.344727 -50.009766C13.344727 -49.414062 13.154297 -48.930664 12.773438 -48.559570C12.392578 -48.188477 11.904297 -48.002930 11.308594 -48.002930C10.732422 -48.002930 10.253906 -48.188477 9.873047 -48.559570C9.492188 -48.930664 9.301758 -49.414062 9.301758 -50.009766ZM9.301758 -50.009766"></path></svg>