<svg width="9.477539" height="26.074219" viewBox="-0.424805 -52.148438 9.477539 26.074219" xmlns="http://www.w3.org/2000/svg"><path d="M-0.424805 -50.126953C-0.424805 -50.722656 -0.227051 -51.208496 0.168457 -51.584473C0.563965 -51.960449 1.049805 -52.148438 1.625977 -52.148438C2.202148 -52.148438 2.680664 -51.960449 3.061523 -51.584473C3.442383 -51.208496 3.632812 -50.722656 3.632812 -50.126953C3.632812 -49.531250 3.442383 -49.047852 3.061523 -48.676758C2.680664 -48.305664 2.202148 -48.120117 1.625977 -48.120117C1.040039 -48.120117 0.551758 -48.305664 0.161133 -48.676758C-0.229492 -49.047852 -0.424805 -49.531250 -0.424805 -50.126953ZM1.889648 -26.074219L1.889648 -46.772461L6.752930 -46.772461L6.752930 -26.074219ZM5.009766 -50.126953C5.009766 -50.722656 5.200195 -51.208496 5.581055 -51.584473C5.961914 -51.960449 6.440430 -52.148438 7.016602 -52.148438C7.592773 -52.148438 8.076172 -51.960449 8.466797 -51.584473C8.857422 -51.208496 9.052734 -50.722656 9.052734 -50.126953C9.052734 -49.531250 8.857422 -49.047852 8.466797 -48.676758C8.076172 -48.305664 7.592773 -48.120117 7.016602 -48.120117C6.440430 -48.120117 5.961914 -48.305664 5.581055 -48.676758C5.200195 -49.047852 5.009766 -49.531250 5.009766 -50.126953ZM5.009766 -50.126953"></path></svg>