<svg width="18.720703" height="26.015625" viewBox="1.889648 -52.031250 18.720703 26.015625" xmlns="http://www.w3.org/2000/svg"><path d="M1.889648 -26.015625L1.889648 -46.713867L7.075195 -46.713867L15.966797 -32.797852C15.898438 -34.350586 15.864258 -35.859375 15.864258 -37.324219L15.864258 -46.713867L20.610352 -46.713867L20.610352 -26.015625L15.629883 -26.015625L6.533203 -40.048828C6.601562 -38.398438 6.635742 -36.840820 6.635742 -35.375977L6.635742 -26.015625ZM5.815430 -48.574219C5.844727 -49.521484 6.198730 -50.334473 6.877441 -51.013184C7.556152 -51.691895 8.344727 -52.031250 9.243164 -52.031250C9.438477 -52.031250 9.628906 -52.019043 9.814453 -51.994629C10.000000 -51.970215 10.153809 -51.943359 10.275879 -51.914062C10.397949 -51.884766 10.537109 -51.840820 10.693359 -51.782227C10.849609 -51.723633 10.957031 -51.679688 11.015625 -51.650391C11.074219 -51.621094 11.171875 -51.569824 11.308594 -51.496582C11.445312 -51.423340 11.523438 -51.381836 11.542969 -51.372070C11.582031 -51.352539 11.694336 -51.286621 11.879883 -51.174316C12.065430 -51.062012 12.211914 -50.979004 12.319336 -50.925293C12.426758 -50.871582 12.568359 -50.815430 12.744141 -50.756836C12.919922 -50.698242 13.081055 -50.668945 13.227539 -50.668945C13.559570 -50.668945 13.845215 -50.781250 14.084473 -51.005859C14.323730 -51.230469 14.497070 -51.538086 14.604492 -51.928711L16.684570 -51.635742C16.655273 -50.708008 16.301270 -49.899902 15.622559 -49.211426C14.943848 -48.522949 14.155273 -48.178711 13.256836 -48.178711C13.110352 -48.178711 12.966309 -48.186035 12.824707 -48.200684C12.683105 -48.215332 12.558594 -48.232422 12.451172 -48.251953C12.343750 -48.271484 12.229004 -48.300781 12.106934 -48.339844C11.984863 -48.378906 11.889648 -48.408203 11.821289 -48.427734C11.752930 -48.447266 11.665039 -48.486328 11.557617 -48.544922C11.450195 -48.603516 11.376953 -48.642578 11.337891 -48.662109C11.298828 -48.681641 11.228027 -48.720703 11.125488 -48.779297C11.022949 -48.837891 10.966797 -48.872070 10.957031 -48.881836C10.937500 -48.891602 10.825195 -48.957520 10.620117 -49.079590C10.415039 -49.201660 10.263672 -49.284668 10.166016 -49.328613C10.068359 -49.372559 9.929199 -49.423828 9.748535 -49.482422C9.567871 -49.541016 9.399414 -49.570312 9.243164 -49.570312C8.920898 -49.570312 8.642578 -49.458008 8.408203 -49.233398C8.173828 -49.008789 8.002930 -48.691406 7.895508 -48.281250ZM5.815430 -48.574219"></path></svg>