<svg width="21.958008" height="26.645508" viewBox="0.834961 -52.924805 21.958008 26.645508" xmlns="http://www.w3.org/2000/svg"><path d="M0.834961 -36.972656C0.834961 -38.613281 1.118164 -40.109863 1.684570 -41.462402C2.250977 -42.814941 3.029785 -43.942871 4.020996 -44.846191C5.012207 -45.749512 6.176758 -46.447754 7.514648 -46.940918C8.852539 -47.434082 10.288086 -47.680664 11.821289 -47.680664C13.354492 -47.680664 14.790039 -47.434082 16.127930 -46.940918C17.465820 -46.447754 18.627930 -45.749512 19.614258 -44.846191C20.600586 -43.942871 21.376953 -42.814941 21.943359 -41.462402C22.509766 -40.109863 22.792969 -38.613281 22.792969 -36.972656C22.792969 -35.332031 22.509766 -33.835449 21.943359 -32.482910C21.376953 -31.130371 20.600586 -30.004883 19.614258 -29.106445C18.627930 -28.208008 17.465820 -27.512207 16.127930 -27.019043C14.790039 -26.525879 13.354492 -26.279297 11.821289 -26.279297C9.760742 -26.279297 7.905273 -26.699219 6.254883 -27.539062C4.604492 -28.378906 3.288574 -29.616699 2.307129 -31.252441C1.325684 -32.888184 0.834961 -34.794922 0.834961 -36.972656ZM5.756836 -37.089844C5.756836 -35.146484 6.328125 -33.579102 7.470703 -32.387695C8.613281 -31.196289 10.063477 -30.600586 11.821289 -30.600586C13.579102 -30.600586 15.029297 -31.196289 16.171875 -32.387695C17.314453 -33.579102 17.885742 -35.146484 17.885742 -37.089844C17.885742 -39.023438 17.314453 -40.581055 16.171875 -41.762695C15.029297 -42.944336 13.579102 -43.535156 11.821289 -43.535156C10.063477 -43.535156 8.613281 -42.946777 7.470703 -41.770020C6.328125 -40.593262 5.756836 -39.033203 5.756836 -37.089844ZM7.045898 -52.924805L11.162109 -52.924805L13.535156 -48.574219L10.107422 -48.574219ZM7.045898 -52.924805"></path></svg>