<svg width="21.357422" height="26.279297" viewBox="1.113281 -52.192383 21.357422 26.279297" xmlns="http://www.w3.org/2000/svg"><path d="M1.113281 -36.606445C1.113281 -38.227539 1.396484 -39.714355 1.962891 -41.066895C2.529297 -42.419434 3.298340 -43.544922 4.270020 -44.443359C5.241699 -45.341797 6.374512 -46.040039 7.668457 -46.538086C8.962402 -47.036133 10.336914 -47.285156 11.791992 -47.285156C13.247070 -47.285156 14.621582 -47.036133 15.915527 -46.538086C17.209473 -46.040039 18.342285 -45.341797 19.313965 -44.443359C20.285645 -43.544922 21.054688 -42.419434 21.621094 -41.066895C22.187500 -39.714355 22.470703 -38.227539 22.470703 -36.606445C22.470703 -34.985352 22.187500 -33.498535 21.621094 -32.145996C21.054688 -30.793457 20.285645 -29.665527 19.313965 -28.762207C18.342285 -27.858887 17.209473 -27.158203 15.915527 -26.660156C14.621582 -26.162109 13.247070 -25.913086 11.791992 -25.913086C10.336914 -25.913086 8.962402 -26.162109 7.668457 -26.660156C6.374512 -27.158203 5.241699 -27.858887 4.270020 -28.762207C3.298340 -29.665527 2.529297 -30.793457 1.962891 -32.145996C1.396484 -33.498535 1.113281 -34.985352 1.113281 -36.606445ZM4.086914 -36.665039C4.086914 -35.434570 4.291992 -34.306641 4.702148 -33.281250C5.112305 -32.255859 5.666504 -31.401367 6.364746 -30.717773C7.062988 -30.034180 7.878418 -29.504395 8.811035 -29.128418C9.743652 -28.752441 10.737305 -28.564453 11.791992 -28.564453C12.846680 -28.564453 13.842773 -28.752441 14.780273 -29.128418C15.717773 -29.504395 16.535645 -30.034180 17.233887 -30.717773C17.932129 -31.401367 18.483887 -32.255859 18.889160 -33.281250C19.294434 -34.306641 19.497070 -35.434570 19.497070 -36.665039C19.497070 -37.895508 19.294434 -39.023438 18.889160 -40.048828C18.483887 -41.074219 17.932129 -41.928711 17.233887 -42.612305C16.535645 -43.295898 15.717773 -43.825684 14.780273 -44.201660C13.842773 -44.577637 12.846680 -44.765625 11.791992 -44.765625C10.737305 -44.765625 9.741211 -44.577637 8.803711 -44.201660C7.866211 -43.825684 7.048340 -43.298340 6.350098 -42.619629C5.651855 -41.940918 5.100098 -41.088867 4.694824 -40.063477C4.289551 -39.038086 4.086914 -37.905273 4.086914 -36.665039ZM7.924805 -50.610352C7.924805 -51.079102 8.076172 -51.459961 8.378906 -51.752930C8.681641 -52.045898 9.057617 -52.192383 9.506836 -52.192383C9.936523 -52.192383 10.305176 -52.045898 10.612793 -51.752930C10.920410 -51.459961 11.074219 -51.079102 11.074219 -50.610352C11.074219 -50.131836 10.920410 -49.741211 10.612793 -49.438477C10.305176 -49.135742 9.936523 -48.984375 9.506836 -48.984375C9.057617 -48.984375 8.681641 -49.133301 8.378906 -49.431152C8.076172 -49.729004 7.924805 -50.122070 7.924805 -50.610352ZM12.509766 -50.610352C12.509766 -51.079102 12.663574 -51.459961 12.971191 -51.752930C13.278809 -52.045898 13.657227 -52.192383 14.106445 -52.192383C14.536133 -52.192383 14.902344 -52.045898 15.205078 -51.752930C15.507812 -51.459961 15.659180 -51.079102 15.659180 -50.610352C15.659180 -50.122070 15.507812 -49.729004 15.205078 -49.431152C14.902344 -49.133301 14.536133 -48.984375 14.106445 -48.984375C13.657227 -48.984375 13.278809 -49.133301 12.971191 -49.431152C12.663574 -49.729004 12.509766 -50.122070 12.509766 -50.610352ZM12.509766 -50.610352"></path></svg>