<svg width="21.357422" height="21.665039" viewBox="1.113281 -42.846680 21.357422 21.665039" xmlns="http://www.w3.org/2000/svg"><path d="M1.113281 -31.992188C1.113281 -33.613281 1.396484 -35.100098 1.962891 -36.452637C2.529297 -37.805176 3.298340 -38.930664 4.270020 -39.829102C5.241699 -40.727539 6.374512 -41.425781 7.668457 -41.923828C8.962402 -42.421875 10.336914 -42.670898 11.791992 -42.670898C14.428711 -42.670898 16.718750 -41.918945 18.662109 -40.415039L21.035156 -42.846680L22.470703 -41.411133L20.097656 -38.979492C21.679688 -37.104492 22.470703 -34.775391 22.470703 -31.992188C22.470703 -30.371094 22.187500 -28.884277 21.621094 -27.531738C21.054688 -26.179199 20.288086 -25.051270 19.321289 -24.147949C18.354492 -23.244629 17.224121 -22.543945 15.930176 -22.045898C14.636230 -21.547852 13.256836 -21.298828 11.791992 -21.298828C9.165039 -21.298828 6.884766 -22.060547 4.951172 -23.583984L2.607422 -21.181641L1.171875 -22.631836L3.486328 -24.990234C1.904297 -26.904297 1.113281 -29.238281 1.113281 -31.992188ZM4.086914 -32.050781C4.086914 -30.117188 4.575195 -28.466797 5.551758 -27.099609L16.743164 -38.466797C15.346680 -39.589844 13.696289 -40.151367 11.791992 -40.151367C10.737305 -40.151367 9.741211 -39.963379 8.803711 -39.587402C7.866211 -39.211426 7.048340 -38.684082 6.350098 -38.005371C5.651855 -37.326660 5.100098 -36.474609 4.694824 -35.449219C4.289551 -34.423828 4.086914 -33.291016 4.086914 -32.050781ZM6.928711 -25.590820C8.325195 -24.497070 9.946289 -23.950195 11.791992 -23.950195C12.846680 -23.950195 13.842773 -24.138184 14.780273 -24.514160C15.717773 -24.890137 16.535645 -25.419922 17.233887 -26.103516C17.932129 -26.787109 18.483887 -27.641602 18.889160 -28.666992C19.294434 -29.692383 19.497070 -30.820312 19.497070 -32.050781C19.497070 -33.935547 19.028320 -35.571289 18.090820 -36.958008ZM6.928711 -25.590820"></path></svg>