<svg width="21.958008" height="22.133789" viewBox="0.834961 -43.549805 21.958008 22.133789" xmlns="http://www.w3.org/2000/svg"><path d="M0.834961 -32.460938C0.834961 -34.101562 1.118164 -35.598145 1.684570 -36.950684C2.250977 -38.303223 3.029785 -39.431152 4.020996 -40.334473C5.012207 -41.237793 6.176758 -41.936035 7.514648 -42.429199C8.852539 -42.922363 10.288086 -43.168945 11.821289 -43.168945C14.350586 -43.168945 16.538086 -42.539062 18.383789 -41.279297L20.639648 -43.549805L22.792969 -41.455078L20.610352 -39.228516C22.065430 -37.382812 22.792969 -35.126953 22.792969 -32.460938C22.792969 -30.820312 22.509766 -29.323730 21.943359 -27.971191C21.376953 -26.618652 20.600586 -25.493164 19.614258 -24.594727C18.627930 -23.696289 17.465820 -23.000488 16.127930 -22.507324C14.790039 -22.014160 13.354492 -21.767578 11.821289 -21.767578C9.282227 -21.767578 7.089844 -22.397461 5.244141 -23.657227L3.032227 -21.416016L0.864258 -23.510742L3.032227 -25.708008C1.567383 -27.563477 0.834961 -29.814453 0.834961 -32.460938ZM5.756836 -32.578125C5.756836 -31.328125 6.005859 -30.205078 6.503906 -29.208984L15.205078 -38.056641C14.218750 -38.701172 13.090820 -39.023438 11.821289 -39.023438C10.063477 -39.023438 8.613281 -38.435059 7.470703 -37.258301C6.328125 -36.081543 5.756836 -34.521484 5.756836 -32.578125ZM8.554688 -26.997070C9.531250 -26.391602 10.620117 -26.088867 11.821289 -26.088867C13.579102 -26.088867 15.029297 -26.684570 16.171875 -27.875977C17.314453 -29.067383 17.885742 -30.634766 17.885742 -32.578125C17.885742 -33.779297 17.656250 -34.848633 17.197266 -35.786133ZM8.554688 -26.997070"></path></svg>