<svg width="15.761719" height="26.279297" viewBox="2.124023 -52.192383 15.761719 26.279297" xmlns="http://www.w3.org/2000/svg"><path d="M2.124023 -34.746094L2.124023 -46.977539L5.068359 -46.977539L5.068359 -35.009766C5.068359 -34.287109 5.083008 -33.706055 5.112305 -33.266602C5.141602 -32.827148 5.229492 -32.329102 5.375977 -31.772461C5.522461 -31.215820 5.742188 -30.747070 6.035156 -30.366211C6.923828 -29.145508 8.251953 -28.535156 10.019531 -28.535156C11.748047 -28.535156 13.076172 -29.145508 14.003906 -30.366211C14.296875 -30.747070 14.516602 -31.218262 14.663086 -31.779785C14.809570 -32.341309 14.897461 -32.841797 14.926758 -33.281250C14.956055 -33.720703 14.970703 -34.296875 14.970703 -35.009766L14.970703 -46.977539L17.885742 -46.977539L17.885742 -34.746094C17.885742 -33.300781 17.773438 -32.082520 17.548828 -31.091309C17.324219 -30.100098 16.884766 -29.213867 16.230469 -28.432617C14.775391 -26.752930 12.705078 -25.913086 10.019531 -25.913086C7.304688 -25.913086 5.234375 -26.752930 3.808594 -28.432617C3.144531 -29.213867 2.697754 -30.097656 2.468262 -31.083984C2.238770 -32.070312 2.124023 -33.291016 2.124023 -34.746094ZM6.152344 -50.610352C6.152344 -51.079102 6.301270 -51.459961 6.599121 -51.752930C6.896973 -52.045898 7.265625 -52.192383 7.705078 -52.192383C8.154297 -52.192383 8.532715 -52.045898 8.840332 -51.752930C9.147949 -51.459961 9.301758 -51.079102 9.301758 -50.610352C9.301758 -50.122070 9.147949 -49.729004 8.840332 -49.431152C8.532715 -49.133301 8.154297 -48.984375 7.705078 -48.984375C7.265625 -48.984375 6.896973 -49.133301 6.599121 -49.431152C6.301270 -49.729004 6.152344 -50.122070 6.152344 -50.610352ZM10.737305 -50.610352C10.737305 -51.079102 10.891113 -51.459961 11.198730 -51.752930C11.506348 -52.045898 11.875000 -52.192383 12.304688 -52.192383C12.753906 -52.192383 13.129883 -52.045898 13.432617 -51.752930C13.735352 -51.459961 13.886719 -51.079102 13.886719 -50.610352C13.886719 -50.122070 13.735352 -49.729004 13.432617 -49.431152C13.129883 -49.133301 12.753906 -48.984375 12.304688 -48.984375C11.875000 -48.984375 11.506348 -49.135742 11.198730 -49.438477C10.891113 -49.741211 10.737305 -50.131836 10.737305 -50.610352ZM10.737305 -50.610352"></path></svg>