<svg width="12.568359" height="20.698242" viewBox="2.285156 -41.396484 12.568359 20.698242" xmlns="http://www.w3.org/2000/svg"><path d="M2.285156 -20.698242L2.285156 -41.396484L5.185547 -41.396484L5.185547 -37.500000L7.836914 -37.500000C10.034180 -37.500000 11.713867 -37.011719 12.875977 -36.035156C14.194336 -34.873047 14.853516 -33.388672 14.853516 -31.582031C14.853516 -29.755859 14.194336 -28.276367 12.875977 -27.143555C11.713867 -26.166992 10.034180 -25.678711 7.836914 -25.678711L5.185547 -25.678711L5.185547 -20.698242ZM5.185547 -28.022461L7.558594 -28.022461C8.808594 -28.022461 9.809570 -28.291016 10.561523 -28.828125C11.420898 -29.453125 11.850586 -30.371094 11.850586 -31.582031C11.850586 -32.187500 11.733398 -32.729492 11.499023 -33.208008C11.264648 -33.686523 10.952148 -34.057617 10.561523 -34.321289C9.848633 -34.858398 8.847656 -35.126953 7.558594 -35.126953L5.185547 -35.126953ZM5.185547 -28.022461"></path></svg>