<svg width="15.834961" height="21.269531" viewBox="1.713867 -42.275391 15.834961 21.269531" xmlns="http://www.w3.org/2000/svg"><path d="M1.713867 -21.269531L1.713867 -34.350586C1.713867 -36.323242 1.953125 -37.802734 2.431641 -38.789062C2.910156 -39.804688 3.637695 -40.615234 4.614258 -41.220703C5.747070 -41.923828 7.260742 -42.275391 9.155273 -42.275391C10.288086 -42.275391 11.296387 -42.131348 12.180176 -41.843262C13.063965 -41.555176 13.762207 -41.169434 14.274902 -40.686035C14.787598 -40.202637 15.175781 -39.670410 15.439453 -39.089355C15.703125 -38.508301 15.834961 -37.900391 15.834961 -37.265625C15.834961 -36.152344 15.554199 -35.234375 14.992676 -34.511719C14.431152 -33.789062 13.852539 -33.354492 13.256836 -33.208008L13.256836 -33.149414C14.477539 -32.875977 15.498047 -32.233887 16.318359 -31.223145C17.138672 -30.212402 17.548828 -28.955078 17.548828 -27.451172C17.548828 -25.361328 16.848145 -23.764648 15.446777 -22.661133C14.045410 -21.557617 12.177734 -21.005859 9.843750 -21.005859C9.550781 -21.005859 9.230957 -21.027832 8.884277 -21.071777C8.537598 -21.115723 8.261719 -21.162109 8.056641 -21.210938L7.763672 -21.269531L8.012695 -24.726562C8.393555 -24.619141 8.823242 -24.565430 9.301758 -24.565430C10.327148 -24.565430 11.174316 -24.824219 11.843262 -25.341797C12.512207 -25.859375 12.846680 -26.650391 12.846680 -27.714844C12.846680 -28.808594 12.507324 -29.633789 11.828613 -30.190430C11.149902 -30.747070 10.249023 -31.025391 9.125977 -31.025391L8.276367 -31.025391L8.276367 -34.350586L8.964844 -34.350586C9.873047 -34.350586 10.546875 -34.565430 10.986328 -34.995117C11.425781 -35.424805 11.645508 -36.010742 11.645508 -36.752930C11.645508 -37.436523 11.398926 -37.985840 10.905762 -38.400879C10.412598 -38.815918 9.785156 -39.023438 9.023438 -39.023438C8.105469 -39.023438 7.426758 -38.715820 6.987305 -38.100586C6.665039 -37.622070 6.503906 -36.791992 6.503906 -35.610352L6.503906 -21.269531ZM1.713867 -21.269531"></path></svg>