<svg width="14.399414" height="21.035156" viewBox="1.494141 -41.733398 14.399414 21.035156" xmlns="http://www.w3.org/2000/svg"><path d="M1.494141 -26.557617C1.494141 -27.700195 1.687012 -28.796387 2.072754 -29.846191C2.458496 -30.895996 2.990723 -31.816406 3.669434 -32.607422C4.348145 -33.398438 5.180664 -34.028320 6.166992 -34.497070C7.153320 -34.965820 8.217773 -35.200195 9.360352 -35.200195C11.450195 -35.200195 12.958984 -34.277344 13.886719 -32.431641L13.916016 -32.431641L14.311523 -34.951172L15.893555 -34.951172L14.033203 -23.320312C13.974609 -22.958984 13.945312 -22.529297 13.945312 -22.031250C13.945312 -21.845703 13.952637 -21.669922 13.967285 -21.503906C13.981934 -21.337891 13.994141 -21.220703 14.003906 -21.152344L14.033203 -21.035156L12.451172 -21.035156C12.392578 -21.259766 12.363281 -21.582031 12.363281 -22.001953C12.363281 -22.363281 12.392578 -22.749023 12.451172 -23.159180L12.509766 -23.496094L12.480469 -23.496094C11.806641 -22.617188 11.010742 -21.931152 10.092773 -21.437988C9.174805 -20.944824 8.188477 -20.698242 7.133789 -20.698242C5.327148 -20.698242 3.935547 -21.230469 2.958984 -22.294922C1.982422 -23.359375 1.494141 -24.780273 1.494141 -26.557617ZM3.178711 -26.733398C3.178711 -25.385742 3.542480 -24.294434 4.270020 -23.459473C4.997559 -22.624512 6.025391 -22.207031 7.353516 -22.207031C8.261719 -22.207031 9.104004 -22.409668 9.880371 -22.814941C10.656738 -23.220215 11.293945 -23.757324 11.791992 -24.426270C12.290039 -25.095215 12.678223 -25.847168 12.956543 -26.682129C13.234863 -27.517090 13.374023 -28.374023 13.374023 -29.252930C13.374023 -30.600586 13.012695 -31.691895 12.290039 -32.526855C11.567383 -33.361816 10.541992 -33.779297 9.213867 -33.779297C8.002930 -33.779297 6.928711 -33.430176 5.991211 -32.731934C5.053711 -32.033691 4.350586 -31.157227 3.881836 -30.102539C3.413086 -29.047852 3.178711 -27.924805 3.178711 -26.733398ZM7.529297 -37.382812L11.015625 -41.733398L12.934570 -41.733398L8.906250 -37.382812ZM7.529297 -37.382812"></path></svg>