<svg width="14.399414" height="20.200195" viewBox="1.494141 -40.063477 14.399414 20.200195" xmlns="http://www.w3.org/2000/svg"><path d="M1.494141 -25.722656C1.494141 -26.865234 1.687012 -27.961426 2.072754 -29.011230C2.458496 -30.061035 2.990723 -30.981445 3.669434 -31.772461C4.348145 -32.563477 5.180664 -33.193359 6.166992 -33.662109C7.153320 -34.130859 8.217773 -34.365234 9.360352 -34.365234C11.450195 -34.365234 12.958984 -33.442383 13.886719 -31.596680L13.916016 -31.596680L14.311523 -34.116211L15.893555 -34.116211L14.033203 -22.485352C13.974609 -22.124023 13.945312 -21.694336 13.945312 -21.196289C13.945312 -21.010742 13.952637 -20.834961 13.967285 -20.668945C13.981934 -20.502930 13.994141 -20.385742 14.003906 -20.317383L14.033203 -20.200195L12.451172 -20.200195C12.392578 -20.424805 12.363281 -20.747070 12.363281 -21.166992C12.363281 -21.528320 12.392578 -21.914062 12.451172 -22.324219L12.509766 -22.661133L12.480469 -22.661133C11.806641 -21.782227 11.010742 -21.096191 10.092773 -20.603027C9.174805 -20.109863 8.188477 -19.863281 7.133789 -19.863281C5.327148 -19.863281 3.935547 -20.395508 2.958984 -21.459961C1.982422 -22.524414 1.494141 -23.945312 1.494141 -25.722656ZM3.178711 -25.898438C3.178711 -24.550781 3.542480 -23.459473 4.270020 -22.624512C4.997559 -21.789551 6.025391 -21.372070 7.353516 -21.372070C8.261719 -21.372070 9.104004 -21.574707 9.880371 -21.979980C10.656738 -22.385254 11.293945 -22.922363 11.791992 -23.591309C12.290039 -24.260254 12.678223 -25.012207 12.956543 -25.847168C13.234863 -26.682129 13.374023 -27.539062 13.374023 -28.417969C13.374023 -29.765625 13.012695 -30.856934 12.290039 -31.691895C11.567383 -32.526855 10.541992 -32.944336 9.213867 -32.944336C8.002930 -32.944336 6.928711 -32.595215 5.991211 -31.896973C5.053711 -31.198730 4.350586 -30.322266 3.881836 -29.267578C3.413086 -28.212891 3.178711 -27.089844 3.178711 -25.898438ZM6.181641 -38.466797C6.181641 -38.886719 6.325684 -39.257812 6.613770 -39.580078C6.901855 -39.902344 7.255859 -40.063477 7.675781 -40.063477C7.988281 -40.063477 8.242188 -39.960938 8.437500 -39.755859C8.632812 -39.550781 8.730469 -39.291992 8.730469 -38.979492C8.730469 -38.569336 8.583984 -38.195801 8.291016 -37.858887C7.998047 -37.521973 7.646484 -37.353516 7.236328 -37.353516C6.923828 -37.353516 6.669922 -37.458496 6.474609 -37.668457C6.279297 -37.878418 6.181641 -38.144531 6.181641 -38.466797ZM10.078125 -38.466797C10.078125 -38.876953 10.219727 -39.245605 10.502930 -39.572754C10.786133 -39.899902 11.132812 -40.063477 11.542969 -40.063477C11.855469 -40.063477 12.109375 -39.960938 12.304688 -39.755859C12.500000 -39.550781 12.597656 -39.291992 12.597656 -38.979492C12.597656 -38.559570 12.456055 -38.183594 12.172852 -37.851562C11.889648 -37.519531 11.542969 -37.353516 11.132812 -37.353516C10.820312 -37.353516 10.566406 -37.458496 10.371094 -37.668457C10.175781 -37.878418 10.078125 -38.144531 10.078125 -38.466797ZM10.078125 -38.466797"></path></svg>