<svg width="23.276367" height="14.853516" viewBox="0.776367 -29.370117 23.276367 14.853516" xmlns="http://www.w3.org/2000/svg"><path d="M0.776367 -18.940430C0.776367 -20.307617 1.281738 -21.357422 2.292480 -22.089844C3.303223 -22.822266 4.677734 -23.217773 6.416016 -23.276367L10.166016 -23.437500L10.166016 -24.038086C10.166016 -25.073242 9.846191 -25.866699 9.206543 -26.418457C8.566895 -26.970215 7.709961 -27.246094 6.635742 -27.246094C6.010742 -27.246094 5.368652 -27.158203 4.709473 -26.982422C4.050293 -26.806641 3.554688 -26.640625 3.222656 -26.484375C2.890625 -26.328125 2.597656 -26.171875 2.343750 -26.015625L1.464844 -27.934570C3.144531 -28.891602 4.926758 -29.370117 6.811523 -29.370117C8.647461 -29.370117 10.029297 -28.940430 10.957031 -28.081055C11.191406 -27.866211 11.391602 -27.648926 11.557617 -27.429199C11.723633 -27.209473 11.835938 -27.041016 11.894531 -26.923828L11.967773 -26.762695C12.543945 -27.592773 13.298340 -28.234863 14.230957 -28.688965C15.163574 -29.143066 16.201172 -29.370117 17.343750 -29.370117C19.316406 -29.370117 20.927734 -28.730469 22.177734 -27.451172C23.427734 -26.171875 24.052734 -24.541016 24.052734 -22.558594L23.994141 -21.298828L12.993164 -21.298828C13.061523 -19.912109 13.513184 -18.811035 14.348145 -17.995605C15.183105 -17.180176 16.269531 -16.772461 17.607422 -16.772461C18.105469 -16.772461 18.588867 -16.821289 19.057617 -16.918945C19.526367 -17.016602 19.946289 -17.145996 20.317383 -17.307129C20.688477 -17.468262 20.998535 -17.617188 21.247559 -17.753906C21.496582 -17.890625 21.733398 -18.034668 21.958008 -18.186035C22.182617 -18.337402 22.304688 -18.417969 22.324219 -18.427734L23.525391 -16.772461C23.515625 -16.772461 23.454590 -16.716309 23.342285 -16.604004C23.229980 -16.491699 23.093262 -16.374512 22.932129 -16.252441C22.770996 -16.130371 22.565918 -15.986328 22.316895 -15.820312C22.067871 -15.654297 21.774902 -15.498047 21.437988 -15.351562C21.101074 -15.205078 20.732422 -15.068359 20.332031 -14.941406C19.931641 -14.814453 19.462891 -14.711914 18.925781 -14.633789C18.388672 -14.555664 17.832031 -14.516602 17.255859 -14.516602C16.582031 -14.516602 15.944824 -14.594727 15.344238 -14.750977C14.743652 -14.907227 14.257812 -15.075684 13.886719 -15.256348C13.515625 -15.437012 13.146973 -15.683594 12.780762 -15.996094C12.414551 -16.308594 12.167969 -16.535645 12.041016 -16.677246C11.914062 -16.818848 11.752930 -17.016602 11.557617 -17.270508C11.508789 -17.329102 11.474609 -17.373047 11.455078 -17.402344C10.664062 -16.445312 9.831543 -15.725098 8.957520 -15.241699C8.083496 -14.758301 7.006836 -14.516602 5.727539 -14.516602C4.311523 -14.516602 3.132324 -14.921875 2.189941 -15.732422C1.247559 -16.542969 0.776367 -17.612305 0.776367 -18.940430ZM3.632812 -19.028320C3.632812 -18.325195 3.891602 -17.739258 4.409180 -17.270508C4.926758 -16.801758 5.634766 -16.567383 6.533203 -16.567383C7.412109 -16.567383 8.237305 -16.818848 9.008789 -17.321777C9.780273 -17.824707 10.317383 -18.374023 10.620117 -18.969727C10.317383 -19.750977 10.166016 -20.659180 10.166016 -21.694336L6.870117 -21.489258C5.747070 -21.430664 4.926758 -21.179199 4.409180 -20.734863C3.891602 -20.290527 3.632812 -19.721680 3.632812 -19.028320ZM13.051758 -23.217773L21.328125 -23.217773C21.328125 -23.637695 21.247559 -24.077148 21.086426 -24.536133C20.925293 -24.995117 20.690918 -25.434570 20.383301 -25.854492C20.075684 -26.274414 19.648438 -26.621094 19.101562 -26.894531C18.554688 -27.167969 17.939453 -27.304688 17.255859 -27.304688C16.572266 -27.304688 15.954590 -27.175293 15.402832 -26.916504C14.851074 -26.657715 14.411621 -26.318359 14.084473 -25.898438C13.757324 -25.478516 13.508301 -25.039062 13.337402 -24.580078C13.166504 -24.121094 13.071289 -23.666992 13.051758 -23.217773ZM13.051758 -23.217773"></path></svg>