<svg width="12.875977" height="18.515625" viewBox="1.523438 -32.680664 12.875977 18.515625" xmlns="http://www.w3.org/2000/svg"><path d="M1.523438 -24.125977C1.523438 -25.200195 1.723633 -26.252441 2.124023 -27.282715C2.524414 -28.312988 3.066406 -29.226074 3.750000 -30.021973C4.433594 -30.817871 5.278320 -31.459961 6.284180 -31.948242C7.290039 -32.436523 8.354492 -32.680664 9.477539 -32.680664C10.444336 -32.680664 11.406250 -32.473145 12.363281 -32.058105C13.320312 -31.643066 13.999023 -31.049805 14.399414 -30.278320L13.256836 -29.252930C12.749023 -29.975586 12.175293 -30.495605 11.535645 -30.812988C10.895996 -31.130371 10.122070 -31.289062 9.213867 -31.289062C8.061523 -31.289062 7.014160 -30.935059 6.071777 -30.227051C5.129395 -29.519043 4.411621 -28.637695 3.918457 -27.583008C3.425293 -26.528320 3.178711 -25.444336 3.178711 -24.331055C3.178711 -22.983398 3.554688 -21.872559 4.306641 -20.998535C5.058594 -20.124512 6.103516 -19.687500 7.441406 -19.687500C8.291016 -19.687500 9.174805 -19.848633 10.092773 -20.170898C11.010742 -20.493164 11.757812 -20.932617 12.333984 -21.489258L12.905273 -20.317383C12.260742 -19.721680 11.486816 -19.248047 10.583496 -18.896484C9.680176 -18.544922 8.750000 -18.320312 7.792969 -18.222656L4.863281 -14.165039L2.915039 -14.165039L6.357422 -18.251953C4.873047 -18.398438 3.696289 -19.030762 2.827148 -20.148926C1.958008 -21.267090 1.523438 -22.592773 1.523438 -24.125977ZM1.523438 -24.125977"></path></svg>