<svg width="13.974609" height="20.463867" viewBox="1.025391 -40.590820 13.974609 20.463867" xmlns="http://www.w3.org/2000/svg"><path d="M1.025391 -27.597656C1.025391 -29.052734 1.352539 -30.349121 2.006836 -31.486816C2.661133 -32.624512 3.535156 -33.491211 4.628906 -34.086914C5.722656 -34.682617 6.928711 -34.980469 8.247070 -34.980469C10.219727 -34.980469 11.838379 -34.343262 13.103027 -33.068848C14.367676 -31.794434 15.000000 -30.161133 15.000000 -28.168945L14.912109 -26.909180L3.925781 -26.909180C3.994141 -25.502930 4.445801 -24.396973 5.280762 -23.591309C6.115723 -22.785645 7.197266 -22.382812 8.525391 -22.382812C8.945312 -22.382812 9.362793 -22.419434 9.777832 -22.492676C10.192871 -22.565918 10.551758 -22.656250 10.854492 -22.763672C11.157227 -22.871094 11.457520 -22.995605 11.755371 -23.137207C12.053223 -23.278809 12.285156 -23.403320 12.451172 -23.510742C12.617188 -23.618164 12.783203 -23.730469 12.949219 -23.847656C13.115234 -23.964844 13.208008 -24.028320 13.227539 -24.038086L14.428711 -22.382812L14.311523 -22.280273C14.233398 -22.202148 14.147949 -22.121582 14.055176 -22.038574C13.962402 -21.955566 13.835449 -21.853027 13.674316 -21.730957C13.513184 -21.608887 13.334961 -21.491699 13.139648 -21.379395C12.944336 -21.267090 12.722168 -21.147461 12.473145 -21.020508C12.224121 -20.893555 11.945801 -20.778809 11.638184 -20.676270C11.330566 -20.573730 11.003418 -20.480957 10.656738 -20.397949C10.310059 -20.314941 9.921875 -20.249023 9.492188 -20.200195C9.062500 -20.151367 8.618164 -20.126953 8.159180 -20.126953C6.030273 -20.126953 4.309082 -20.808105 2.995605 -22.170410C1.682129 -23.532715 1.025391 -25.341797 1.025391 -27.597656ZM3.955078 -28.828125L12.275391 -28.828125C12.265625 -29.257812 12.177734 -29.697266 12.011719 -30.146484C11.845703 -30.595703 11.606445 -31.032715 11.293945 -31.457520C10.981445 -31.882324 10.551758 -32.231445 10.004883 -32.504883C9.458008 -32.778320 8.842773 -32.915039 8.159180 -32.915039C7.475586 -32.915039 6.860352 -32.785645 6.313477 -32.526855C5.766602 -32.268066 5.332031 -31.928711 5.009766 -31.508789C4.687500 -31.088867 4.436035 -30.649414 4.255371 -30.190430C4.074707 -29.731445 3.974609 -29.277344 3.955078 -28.828125ZM4.379883 -38.979492C4.379883 -39.467773 4.533691 -39.858398 4.841309 -40.151367C5.148926 -40.444336 5.527344 -40.590820 5.976562 -40.590820C6.416016 -40.590820 6.784668 -40.444336 7.082520 -40.151367C7.380371 -39.858398 7.529297 -39.467773 7.529297 -38.979492C7.529297 -38.500977 7.380371 -38.115234 7.082520 -37.822266C6.784668 -37.529297 6.416016 -37.382812 5.976562 -37.382812C5.527344 -37.382812 5.148926 -37.531738 4.841309 -37.829590C4.533691 -38.127441 4.379883 -38.510742 4.379883 -38.979492ZM8.964844 -38.979492C8.964844 -39.458008 9.118652 -39.846191 9.426270 -40.144043C9.733887 -40.441895 10.102539 -40.590820 10.532227 -40.590820C10.981445 -40.590820 11.357422 -40.444336 11.660156 -40.151367C11.962891 -39.858398 12.114258 -39.467773 12.114258 -38.979492C12.114258 -38.510742 11.960449 -38.127441 11.652832 -37.829590C11.345215 -37.531738 10.971680 -37.382812 10.532227 -37.382812C10.102539 -37.382812 9.733887 -37.531738 9.426270 -37.829590C9.118652 -38.127441 8.964844 -38.510742 8.964844 -38.979492ZM8.964844 -38.979492"></path></svg>