<svg width="6.694336" height="19.892578" viewBox="1.918945 -39.785156 6.694336 19.892578" xmlns="http://www.w3.org/2000/svg"><path d="M1.918945 -20.859375C1.918945 -21.298828 1.958008 -21.748047 2.036133 -22.207031L3.544922 -31.713867C3.603516 -32.172852 3.632812 -32.553711 3.632812 -32.856445C3.632812 -33.041992 3.625488 -33.217773 3.610840 -33.383789C3.596191 -33.549805 3.583984 -33.666992 3.574219 -33.735352L3.544922 -33.837891L5.097656 -33.837891C5.156250 -33.623047 5.185547 -33.305664 5.185547 -32.885742C5.185547 -32.446289 5.146484 -31.987305 5.068359 -31.508789L3.574219 -21.987305C3.535156 -21.723633 3.515625 -21.357422 3.515625 -20.888672C3.515625 -20.703125 3.522949 -20.527344 3.537598 -20.361328C3.552246 -20.195312 3.564453 -20.078125 3.574219 -20.009766L3.603516 -19.892578L2.006836 -19.892578C1.948242 -20.117188 1.918945 -20.439453 1.918945 -20.859375ZM2.197266 -38.129883C2.197266 -38.549805 2.341309 -38.930664 2.629395 -39.272461C2.917480 -39.614258 3.261719 -39.785156 3.662109 -39.785156C3.984375 -39.785156 4.245605 -39.675293 4.445801 -39.455566C4.645996 -39.235840 4.746094 -38.964844 4.746094 -38.642578C4.746094 -38.232422 4.597168 -37.858887 4.299316 -37.521973C4.001465 -37.185059 3.647461 -37.016602 3.237305 -37.016602C2.915039 -37.016602 2.661133 -37.121582 2.475586 -37.331543C2.290039 -37.541504 2.197266 -37.807617 2.197266 -38.129883ZM6.064453 -38.129883C6.064453 -38.549805 6.208496 -38.930664 6.496582 -39.272461C6.784668 -39.614258 7.138672 -39.785156 7.558594 -39.785156C7.871094 -39.785156 8.125000 -39.675293 8.320312 -39.455566C8.515625 -39.235840 8.613281 -38.964844 8.613281 -38.642578C8.613281 -38.222656 8.466797 -37.846680 8.173828 -37.514648C7.880859 -37.182617 7.524414 -37.016602 7.104492 -37.016602C6.791992 -37.016602 6.540527 -37.121582 6.350098 -37.331543C6.159668 -37.541504 6.064453 -37.807617 6.064453 -38.129883ZM6.064453 -38.129883"></path></svg>