<svg width="15.058594" height="22.631836" viewBox="1.025391 -44.926758 15.058594 22.631836" xmlns="http://www.w3.org/2000/svg"><path d="M1.025391 -29.589844C1.025391 -30.605469 1.223145 -31.562500 1.618652 -32.460938C2.014160 -33.359375 2.541504 -34.118652 3.200684 -34.738770C3.859863 -35.358887 4.619141 -35.847168 5.478516 -36.203613C6.337891 -36.560059 7.221680 -36.738281 8.129883 -36.738281C9.760742 -36.738281 11.088867 -36.264648 12.114258 -35.317383C11.206055 -37.104492 9.838867 -38.803711 8.012695 -40.415039L4.526367 -38.261719L3.691406 -39.609375L6.723633 -41.499023C5.668945 -42.319336 4.687500 -43.012695 3.779297 -43.579102L5.668945 -44.868164C6.811523 -44.165039 7.861328 -43.432617 8.818359 -42.670898L12.451172 -44.926758L13.286133 -43.535156L10.107422 -41.557617C11.308594 -40.532227 12.309570 -39.443359 13.110352 -38.291016C13.510742 -37.734375 13.857422 -37.207031 14.150391 -36.708984C14.443359 -36.210938 14.750977 -35.595703 15.073242 -34.863281C15.395508 -34.130859 15.644531 -33.315430 15.820312 -32.416992C15.996094 -31.518555 16.083984 -30.576172 16.083984 -29.589844C16.083984 -27.500000 15.358887 -25.761719 13.908691 -24.375000C12.458496 -22.988281 10.654297 -22.294922 8.496094 -22.294922C6.347656 -22.294922 4.565430 -22.985840 3.149414 -24.367676C1.733398 -25.749512 1.025391 -27.490234 1.025391 -29.589844ZM3.925781 -29.648438C3.925781 -28.242188 4.360352 -27.075195 5.229492 -26.147461C6.098633 -25.219727 7.207031 -24.755859 8.554688 -24.755859C9.902344 -24.755859 11.008301 -25.219727 11.872559 -26.147461C12.736816 -27.075195 13.168945 -28.242188 13.168945 -29.648438C13.168945 -31.054688 12.736816 -32.226562 11.872559 -33.164062C11.008301 -34.101562 9.902344 -34.570312 8.554688 -34.570312C7.207031 -34.570312 6.098633 -34.101562 5.229492 -33.164062C4.360352 -32.226562 3.925781 -31.054688 3.925781 -29.648438ZM3.925781 -29.648438"></path></svg>