<svg width="16.318359" height="22.895508" viewBox="0.717773 -45.454102 16.318359 22.895508" xmlns="http://www.w3.org/2000/svg"><path d="M0.717773 -30.161133C0.717773 -31.264648 0.937500 -32.282715 1.376953 -33.215332C1.816406 -34.147949 2.390137 -34.909668 3.098145 -35.500488C3.806152 -36.091309 4.584961 -36.552734 5.434570 -36.884766C6.284180 -37.216797 7.133789 -37.382812 7.983398 -37.382812C8.657227 -37.382812 9.257812 -37.292480 9.785156 -37.111816C10.312500 -36.931152 10.688477 -36.733398 10.913086 -36.518555C10.268555 -37.670898 9.208984 -38.872070 7.734375 -40.122070L4.379883 -38.188477L3.266602 -40.180664L5.874023 -41.645508C4.731445 -42.426758 3.833008 -43.017578 3.178711 -43.417969L6.503906 -45.249023C7.500000 -44.692383 8.442383 -44.082031 9.331055 -43.417969L12.905273 -45.454102L14.003906 -43.476562L11.191406 -41.909180C11.201172 -41.899414 11.315918 -41.794434 11.535645 -41.594238C11.755371 -41.394043 11.977539 -41.186523 12.202148 -40.971680C12.426758 -40.756836 12.683105 -40.495605 12.971191 -40.187988C13.259277 -39.880371 13.496094 -39.604492 13.681641 -39.360352C14.150391 -38.754883 14.541016 -38.203125 14.853516 -37.705078C15.166016 -37.207031 15.510254 -36.569824 15.886230 -35.793457C16.262207 -35.017090 16.547852 -34.152832 16.743164 -33.200684C16.938477 -32.248535 17.036133 -31.235352 17.036133 -30.161133C17.036133 -28.657227 16.679688 -27.324219 15.966797 -26.162109C15.253906 -25.000000 14.277344 -24.108887 13.037109 -23.488770C11.796875 -22.868652 10.400391 -22.558594 8.847656 -22.558594C6.494141 -22.558594 4.550781 -23.256836 3.017578 -24.653320C1.484375 -26.049805 0.717773 -27.885742 0.717773 -30.161133ZM5.581055 -30.249023C5.581055 -29.155273 5.883789 -28.256836 6.489258 -27.553711C7.094727 -26.850586 7.890625 -26.499023 8.876953 -26.499023C9.873047 -26.499023 10.678711 -26.853027 11.293945 -27.561035C11.909180 -28.269043 12.216797 -29.165039 12.216797 -30.249023C12.216797 -31.323242 11.909180 -32.211914 11.293945 -32.915039C10.678711 -33.618164 9.873047 -33.969727 8.876953 -33.969727C7.890625 -33.969727 7.094727 -33.618164 6.489258 -32.915039C5.883789 -32.211914 5.581055 -31.323242 5.581055 -30.249023ZM5.581055 -30.249023"></path></svg>