<svg width="14.018555" height="22.426758" viewBox="1.494141 -44.560547 14.018555 22.426758" xmlns="http://www.w3.org/2000/svg"><path d="M1.494141 -27.978516C1.494141 -29.384766 1.845703 -30.725098 2.548828 -31.999512C3.251953 -33.273926 4.226074 -34.311523 5.471191 -35.112305C6.716309 -35.913086 8.061523 -36.313477 9.506836 -36.313477C11.225586 -36.313477 12.597656 -35.756836 13.623047 -34.643555C12.958984 -36.762695 11.787109 -38.720703 10.107422 -40.517578L6.357422 -38.203125L5.844727 -39.228516L9.331055 -41.381836C8.374023 -42.309570 7.514648 -43.051758 6.752930 -43.608398L7.792969 -44.560547C9.003906 -43.691406 9.956055 -42.895508 10.649414 -42.172852L14.575195 -44.560547L15.087891 -43.549805L11.425781 -41.293945C12.705078 -39.965820 13.706055 -38.454590 14.428711 -36.760254C15.151367 -35.065918 15.512695 -33.320312 15.512695 -31.523438C15.512695 -30.556641 15.402832 -29.616699 15.183105 -28.703613C14.963379 -27.790527 14.624023 -26.936035 14.165039 -26.140137C13.706055 -25.344238 13.154297 -24.648438 12.509766 -24.052734C11.865234 -23.457031 11.093750 -22.988281 10.195312 -22.646484C9.296875 -22.304688 8.320312 -22.133789 7.265625 -22.133789C5.576172 -22.133789 4.191895 -22.683105 3.112793 -23.781738C2.033691 -24.880371 1.494141 -26.279297 1.494141 -27.978516ZM3.149414 -28.183594C3.149414 -26.845703 3.554688 -25.747070 4.365234 -24.887695C5.175781 -24.028320 6.250000 -23.598633 7.587891 -23.598633C8.457031 -23.598633 9.282227 -23.789062 10.063477 -24.169922C10.844727 -24.550781 11.503906 -25.053711 12.041016 -25.678711C12.578125 -26.303711 13.005371 -27.021484 13.322754 -27.832031C13.640137 -28.642578 13.798828 -29.472656 13.798828 -30.322266C13.798828 -31.669922 13.395996 -32.770996 12.590332 -33.625488C11.784668 -34.479980 10.708008 -34.907227 9.360352 -34.907227C8.491211 -34.907227 7.666016 -34.719238 6.884766 -34.343262C6.103516 -33.967285 5.444336 -33.469238 4.907227 -32.849121C4.370117 -32.229004 3.942871 -31.511230 3.625488 -30.695801C3.308105 -29.880371 3.149414 -29.042969 3.149414 -28.183594ZM3.149414 -28.183594"></path></svg>