<svg width="14.516602" height="20.493164" viewBox="1.596680 -40.986328 14.516602 20.493164" xmlns="http://www.w3.org/2000/svg"><path d="M1.596680 -20.493164L1.596680 -35.288086L6.386719 -35.288086L6.357422 -33.149414L6.416016 -33.149414C7.392578 -34.750977 8.823242 -35.551758 10.708008 -35.551758C11.547852 -35.551758 12.285156 -35.444336 12.919922 -35.229492C13.554688 -35.014648 14.072266 -34.724121 14.472656 -34.357910C14.873047 -33.991699 15.197754 -33.535156 15.446777 -32.988281C15.695801 -32.441406 15.869141 -31.865234 15.966797 -31.259766C16.064453 -30.654297 16.113281 -29.975586 16.113281 -29.223633L16.113281 -20.493164L11.308594 -20.493164L11.308594 -28.198242C11.308594 -28.735352 11.281738 -29.191895 11.228027 -29.567871C11.174316 -29.943848 11.069336 -30.297852 10.913086 -30.629883C10.756836 -30.961914 10.522461 -31.210938 10.209961 -31.376953C9.897461 -31.542969 9.501953 -31.625977 9.023438 -31.625977C7.265625 -31.625977 6.386719 -30.356445 6.386719 -27.817383L6.386719 -20.493164ZM3.413086 -37.529297C3.442383 -38.476562 3.791504 -39.289551 4.460449 -39.968262C5.129395 -40.646973 5.913086 -40.986328 6.811523 -40.986328C6.967773 -40.986328 7.119141 -40.979004 7.265625 -40.964355C7.412109 -40.949707 7.539062 -40.935059 7.646484 -40.920410C7.753906 -40.905762 7.868652 -40.878906 7.990723 -40.839844C8.112793 -40.800781 8.208008 -40.769043 8.276367 -40.744629C8.344727 -40.720215 8.432617 -40.683594 8.540039 -40.634766C8.647461 -40.585938 8.718262 -40.551758 8.752441 -40.532227C8.786621 -40.512695 8.854980 -40.473633 8.957520 -40.415039C9.060059 -40.356445 9.116211 -40.327148 9.125977 -40.327148C9.155273 -40.307617 9.270020 -40.236816 9.470215 -40.114746C9.670410 -39.992676 9.819336 -39.907227 9.916992 -39.858398C10.014648 -39.809570 10.151367 -39.755859 10.327148 -39.697266C10.502930 -39.638672 10.668945 -39.609375 10.825195 -39.609375C11.157227 -39.609375 11.447754 -39.724121 11.696777 -39.953613C11.945801 -40.183105 12.119141 -40.498047 12.216797 -40.898438L14.252930 -40.590820C14.223633 -39.643555 13.874512 -38.833008 13.205566 -38.159180C12.536621 -37.485352 11.752930 -37.148438 10.854492 -37.148438C10.659180 -37.148438 10.468750 -37.160645 10.283203 -37.185059C10.097656 -37.209473 9.943848 -37.236328 9.821777 -37.265625C9.699707 -37.294922 9.560547 -37.338867 9.404297 -37.397461C9.248047 -37.456055 9.140625 -37.500000 9.082031 -37.529297C9.023438 -37.558594 8.925781 -37.609863 8.789062 -37.683105C8.652344 -37.756348 8.574219 -37.797852 8.554688 -37.807617C8.515625 -37.827148 8.366699 -37.915039 8.107910 -38.071289C7.849121 -38.227539 7.622070 -38.342285 7.426758 -38.415527C7.231445 -38.488770 7.036133 -38.525391 6.840820 -38.525391C6.186523 -38.525391 5.727539 -38.095703 5.463867 -37.236328ZM3.413086 -37.529297"></path></svg>