<svg width="12.304688" height="20.009766" viewBox="1.523438 -40.019531 12.304688 20.009766" xmlns="http://www.w3.org/2000/svg"><path d="M1.523438 -20.009766L3.413086 -31.801758C3.481445 -32.329102 3.515625 -32.709961 3.515625 -32.944336C3.515625 -33.129883 3.505859 -33.305664 3.486328 -33.471680C3.466797 -33.637695 3.447266 -33.754883 3.427734 -33.823242L3.413086 -33.925781L4.980469 -33.925781C5.039062 -33.710938 5.068359 -33.393555 5.068359 -32.973633C5.068359 -32.661133 5.019531 -32.187500 4.921875 -31.552734L4.951172 -31.552734C5.468750 -32.343750 6.147461 -32.978516 6.987305 -33.457031C7.827148 -33.935547 8.706055 -34.174805 9.624023 -34.174805C12.270508 -34.174805 13.593750 -32.841797 13.593750 -30.175781C13.593750 -29.804688 13.530273 -29.165039 13.403320 -28.256836L12.421875 -22.104492C12.382812 -21.840820 12.363281 -21.474609 12.363281 -21.005859C12.363281 -20.820312 12.370605 -20.644531 12.385254 -20.478516C12.399902 -20.312500 12.412109 -20.195312 12.421875 -20.126953L12.451172 -20.009766L10.854492 -20.009766C10.795898 -20.234375 10.766602 -20.556641 10.766602 -20.976562C10.766602 -21.416016 10.805664 -21.865234 10.883789 -22.324219L11.821289 -28.110352C11.938477 -28.911133 11.997070 -29.521484 11.997070 -29.941406C11.997070 -30.898438 11.779785 -31.606445 11.345215 -32.065430C10.910645 -32.524414 10.219727 -32.753906 9.272461 -32.753906C8.510742 -32.753906 7.824707 -32.587891 7.214355 -32.255859C6.604004 -31.923828 6.103516 -31.477051 5.712891 -30.915527C5.322266 -30.354004 5.007324 -29.753418 4.768066 -29.113770C4.528809 -28.474121 4.350586 -27.788086 4.233398 -27.055664L3.090820 -20.009766ZM5.405273 -37.675781C5.561523 -38.300781 5.883789 -38.847656 6.372070 -39.316406C6.860352 -39.785156 7.416992 -40.019531 8.041992 -40.019531C8.403320 -40.019531 8.757324 -39.946289 9.104004 -39.799805C9.450684 -39.653320 9.731445 -39.492188 9.946289 -39.316406C10.161133 -39.140625 10.407715 -38.979492 10.686035 -38.833008C10.964355 -38.686523 11.230469 -38.613281 11.484375 -38.613281C11.806641 -38.613281 12.099609 -38.742676 12.363281 -39.001465C12.626953 -39.260254 12.807617 -39.560547 12.905273 -39.902344L13.828125 -39.565430C13.671875 -38.930664 13.349609 -38.378906 12.861328 -37.910156C12.373047 -37.441406 11.816406 -37.207031 11.191406 -37.207031C10.830078 -37.207031 10.478516 -37.282715 10.136719 -37.434082C9.794922 -37.585449 9.514160 -37.749023 9.294434 -37.924805C9.074707 -38.100586 8.823242 -38.264160 8.540039 -38.415527C8.256836 -38.566895 7.988281 -38.642578 7.734375 -38.642578C7.412109 -38.642578 7.121582 -38.513184 6.862793 -38.254395C6.604004 -37.995605 6.435547 -37.695312 6.357422 -37.353516ZM5.405273 -37.675781"></path></svg>