<svg width="13.959961" height="20.991211" viewBox="1.494141 -41.689453 13.959961 20.991211" xmlns="http://www.w3.org/2000/svg"><path d="M1.494141 -26.601562C1.494141 -28.115234 1.843262 -29.523926 2.541504 -30.827637C3.239746 -32.131348 4.216309 -33.178711 5.471191 -33.969727C6.726074 -34.760742 8.110352 -35.156250 9.624023 -35.156250C11.352539 -35.156250 12.756348 -34.594727 13.835449 -33.471680C14.914551 -32.348633 15.454102 -30.917969 15.454102 -29.179688C15.454102 -27.666016 15.107422 -26.262207 14.414062 -24.968262C13.720703 -23.674316 12.751465 -22.639160 11.506348 -21.862793C10.261230 -21.086426 8.876953 -20.698242 7.353516 -20.698242C5.615234 -20.698242 4.204102 -21.247559 3.120117 -22.346191C2.036133 -23.444824 1.494141 -24.863281 1.494141 -26.601562ZM3.178711 -26.806641C3.178711 -25.439453 3.574219 -24.323730 4.365234 -23.459473C5.156250 -22.595215 6.230469 -22.163086 7.587891 -22.163086C8.779297 -22.163086 9.858398 -22.500000 10.825195 -23.173828C11.791992 -23.847656 12.534180 -24.711914 13.051758 -25.766602C13.569336 -26.821289 13.828125 -27.939453 13.828125 -29.121094C13.828125 -30.478516 13.432617 -31.586914 12.641602 -32.446289C11.850586 -33.305664 10.776367 -33.735352 9.418945 -33.735352C8.217773 -33.735352 7.133789 -33.400879 6.166992 -32.731934C5.200195 -32.062988 4.460449 -31.203613 3.947754 -30.153809C3.435059 -29.104004 3.178711 -27.988281 3.178711 -26.806641ZM7.294922 -41.689453L9.243164 -41.689453L11.308594 -37.280273L9.960938 -37.280273ZM7.294922 -41.689453"></path></svg>