<svg width="16.406250" height="20.830078" viewBox="0.717773 -41.323242 16.406250 20.830078" xmlns="http://www.w3.org/2000/svg"><path d="M0.717773 -28.183594C0.717773 -29.736328 1.079102 -31.103516 1.801758 -32.285156C2.524414 -33.466797 3.503418 -34.362793 4.738770 -34.973145C5.974121 -35.583496 7.373047 -35.888672 8.935547 -35.888672C10.498047 -35.888672 11.894531 -35.583496 13.125000 -34.973145C14.355469 -34.362793 15.329590 -33.466797 16.047363 -32.285156C16.765137 -31.103516 17.124023 -29.736328 17.124023 -28.183594C17.124023 -26.630859 16.765137 -25.266113 16.047363 -24.089355C15.329590 -22.912598 14.355469 -22.019043 13.125000 -21.408691C11.894531 -20.798340 10.498047 -20.493164 8.935547 -20.493164C7.373047 -20.493164 5.974121 -20.798340 4.738770 -21.408691C3.503418 -22.019043 2.524414 -22.912598 1.801758 -24.089355C1.079102 -25.266113 0.717773 -26.630859 0.717773 -28.183594ZM3.515625 -37.866211C3.544922 -38.813477 3.896484 -39.626465 4.570312 -40.305176C5.244141 -40.983887 6.030273 -41.323242 6.928711 -41.323242C7.075195 -41.323242 7.221680 -41.315918 7.368164 -41.301270C7.514648 -41.286621 7.639160 -41.271973 7.741699 -41.257324C7.844238 -41.242676 7.956543 -41.215820 8.078613 -41.176758C8.200684 -41.137695 8.295898 -41.105957 8.364258 -41.081543C8.432617 -41.057129 8.520508 -41.020508 8.627930 -40.971680C8.735352 -40.922852 8.808594 -40.888672 8.847656 -40.869141C8.886719 -40.849609 8.955078 -40.812988 9.052734 -40.759277C9.150391 -40.705566 9.204102 -40.673828 9.213867 -40.664062C9.243164 -40.644531 9.357910 -40.573730 9.558105 -40.451660C9.758301 -40.329590 9.907227 -40.244141 10.004883 -40.195312C10.102539 -40.146484 10.239258 -40.092773 10.415039 -40.034180C10.590820 -39.975586 10.756836 -39.946289 10.913086 -39.946289C11.245117 -39.946289 11.535645 -40.061035 11.784668 -40.290527C12.033691 -40.520020 12.207031 -40.834961 12.304688 -41.235352L14.340820 -40.927734C14.331055 -39.990234 13.991699 -39.182129 13.322754 -38.503418C12.653809 -37.824707 11.865234 -37.485352 10.957031 -37.485352C10.761719 -37.485352 10.568848 -37.497559 10.378418 -37.521973C10.187988 -37.546387 10.034180 -37.570801 9.916992 -37.595215C9.799805 -37.619629 9.660645 -37.663574 9.499512 -37.727051C9.338379 -37.790527 9.230957 -37.834473 9.177246 -37.858887C9.123535 -37.883301 9.023438 -37.937012 8.876953 -38.020020C8.730469 -38.103027 8.652344 -38.144531 8.642578 -38.144531C8.603516 -38.164062 8.454590 -38.251953 8.195801 -38.408203C7.937012 -38.564453 7.709961 -38.679199 7.514648 -38.752441C7.319336 -38.825684 7.124023 -38.862305 6.928711 -38.862305C6.606445 -38.862305 6.328125 -38.747559 6.093750 -38.518066C5.859375 -38.288574 5.688477 -37.973633 5.581055 -37.573242ZM5.581055 -28.271484C5.581055 -27.148438 5.881348 -26.228027 6.481934 -25.510254C7.082520 -24.792480 7.900391 -24.433594 8.935547 -24.433594C9.960938 -24.433594 10.778809 -24.792480 11.389160 -25.510254C11.999512 -26.228027 12.304688 -27.148438 12.304688 -28.271484C12.304688 -29.394531 11.999512 -30.314941 11.389160 -31.032715C10.778809 -31.750488 9.960938 -32.109375 8.935547 -32.109375C7.900391 -32.109375 7.082520 -31.750488 6.481934 -31.032715C5.881348 -30.314941 5.581055 -29.394531 5.581055 -28.271484ZM5.581055 -28.271484"></path></svg>