<svg width="15.087891" height="20.463867" viewBox="1.025391 -40.590820 15.087891 20.463867" xmlns="http://www.w3.org/2000/svg"><path d="M1.025391 -27.539062C1.025391 -29.716797 1.745605 -31.501465 3.186035 -32.893066C4.626465 -34.284668 6.425781 -34.980469 8.583984 -34.980469C9.990234 -34.980469 11.264648 -34.670410 12.407227 -34.050293C13.549805 -33.430176 14.453125 -32.548828 15.117188 -31.406250C15.781250 -30.263672 16.113281 -28.974609 16.113281 -27.539062C16.113281 -25.351562 15.395508 -23.569336 13.959961 -22.192383C12.524414 -20.815430 10.732422 -20.126953 8.583984 -20.126953C6.425781 -20.126953 4.626465 -20.815430 3.186035 -22.192383C1.745605 -23.569336 1.025391 -25.351562 1.025391 -27.539062ZM3.925781 -27.626953C3.925781 -26.181641 4.348145 -24.980469 5.192871 -24.023438C6.037598 -23.066406 7.167969 -22.587891 8.583984 -22.587891C9.980469 -22.587891 11.098633 -23.066406 11.938477 -24.023438C12.778320 -24.980469 13.198242 -26.181641 13.198242 -27.626953C13.198242 -29.052734 12.778320 -30.244141 11.938477 -31.201172C11.098633 -32.158203 9.980469 -32.636719 8.583984 -32.636719C7.177734 -32.636719 6.049805 -32.158203 5.200195 -31.201172C4.350586 -30.244141 3.925781 -29.052734 3.925781 -27.626953ZM4.716797 -38.979492C4.716797 -39.458008 4.868164 -39.846191 5.170898 -40.144043C5.473633 -40.441895 5.839844 -40.590820 6.269531 -40.590820C6.718750 -40.590820 7.097168 -40.444336 7.404785 -40.151367C7.712402 -39.858398 7.866211 -39.467773 7.866211 -38.979492C7.866211 -38.510742 7.712402 -38.127441 7.404785 -37.829590C7.097168 -37.531738 6.718750 -37.382812 6.269531 -37.382812C5.839844 -37.382812 5.473633 -37.531738 5.170898 -37.829590C4.868164 -38.127441 4.716797 -38.510742 4.716797 -38.979492ZM9.272461 -38.979492C9.272461 -39.467773 9.423828 -39.858398 9.726562 -40.151367C10.029297 -40.444336 10.405273 -40.590820 10.854492 -40.590820C11.303711 -40.590820 11.677246 -40.444336 11.975098 -40.151367C12.272949 -39.858398 12.421875 -39.467773 12.421875 -38.979492C12.421875 -38.510742 12.270508 -38.127441 11.967773 -37.829590C11.665039 -37.531738 11.293945 -37.382812 10.854492 -37.382812C10.415039 -37.382812 10.041504 -37.531738 9.733887 -37.829590C9.426270 -38.127441 9.272461 -38.510742 9.272461 -38.979492ZM9.272461 -38.979492"></path></svg>