<svg width="16.406250" height="20.859375" viewBox="0.717773 -41.381836 16.406250 20.859375" xmlns="http://www.w3.org/2000/svg"><path d="M0.717773 -28.212891C0.717773 -29.765625 1.079102 -31.132812 1.801758 -32.314453C2.524414 -33.496094 3.503418 -34.392090 4.738770 -35.002441C5.974121 -35.612793 7.373047 -35.917969 8.935547 -35.917969C10.498047 -35.917969 11.894531 -35.612793 13.125000 -35.002441C14.355469 -34.392090 15.329590 -33.496094 16.047363 -32.314453C16.765137 -31.132812 17.124023 -29.765625 17.124023 -28.212891C17.124023 -26.660156 16.765137 -25.295410 16.047363 -24.118652C15.329590 -22.941895 14.355469 -22.048340 13.125000 -21.437988C11.894531 -20.827637 10.498047 -20.522461 8.935547 -20.522461C7.373047 -20.522461 5.974121 -20.827637 4.738770 -21.437988C3.503418 -22.048340 2.524414 -22.941895 1.801758 -24.118652C1.079102 -25.295410 0.717773 -26.660156 0.717773 -28.212891ZM4.233398 -39.375000C4.233398 -39.970703 4.423828 -40.454102 4.804688 -40.825195C5.185547 -41.196289 5.664062 -41.381836 6.240234 -41.381836C6.835938 -41.381836 7.324219 -41.196289 7.705078 -40.825195C8.085938 -40.454102 8.276367 -39.970703 8.276367 -39.375000C8.276367 -38.779297 8.085938 -38.298340 7.705078 -37.932129C7.324219 -37.565918 6.835938 -37.382812 6.240234 -37.382812C5.664062 -37.382812 5.185547 -37.565918 4.804688 -37.932129C4.423828 -38.298340 4.233398 -38.779297 4.233398 -39.375000ZM5.581055 -28.300781C5.581055 -27.177734 5.881348 -26.257324 6.481934 -25.539551C7.082520 -24.821777 7.900391 -24.462891 8.935547 -24.462891C9.960938 -24.462891 10.778809 -24.821777 11.389160 -25.539551C11.999512 -26.257324 12.304688 -27.177734 12.304688 -28.300781C12.304688 -29.423828 11.999512 -30.344238 11.389160 -31.062012C10.778809 -31.779785 9.960938 -32.138672 8.935547 -32.138672C7.900391 -32.138672 7.082520 -31.779785 6.481934 -31.062012C5.881348 -30.344238 5.581055 -29.423828 5.581055 -28.300781ZM9.594727 -39.375000C9.594727 -39.970703 9.787598 -40.454102 10.173340 -40.825195C10.559082 -41.196289 11.040039 -41.381836 11.616211 -41.381836C12.192383 -41.381836 12.675781 -41.196289 13.066406 -40.825195C13.457031 -40.454102 13.652344 -39.970703 13.652344 -39.375000C13.652344 -38.779297 13.459473 -38.298340 13.073730 -37.932129C12.687988 -37.565918 12.202148 -37.382812 11.616211 -37.382812C11.040039 -37.382812 10.559082 -37.565918 10.173340 -37.932129C9.787598 -38.298340 9.594727 -38.779297 9.594727 -39.375000ZM9.594727 -39.375000"></path></svg>