<svg width="13.959961" height="20.185547" viewBox="1.494141 -40.078125 13.959961 20.185547" xmlns="http://www.w3.org/2000/svg"><path d="M1.494141 -25.795898C1.494141 -27.309570 1.843262 -28.718262 2.541504 -30.021973C3.239746 -31.325684 4.216309 -32.373047 5.471191 -33.164062C6.726074 -33.955078 8.110352 -34.350586 9.624023 -34.350586C11.352539 -34.350586 12.756348 -33.789062 13.835449 -32.666016C14.914551 -31.542969 15.454102 -30.112305 15.454102 -28.374023C15.454102 -26.860352 15.107422 -25.456543 14.414062 -24.162598C13.720703 -22.868652 12.751465 -21.833496 11.506348 -21.057129C10.261230 -20.280762 8.876953 -19.892578 7.353516 -19.892578C5.615234 -19.892578 4.204102 -20.441895 3.120117 -21.540527C2.036133 -22.639160 1.494141 -24.057617 1.494141 -25.795898ZM3.178711 -26.000977C3.178711 -24.633789 3.574219 -23.518066 4.365234 -22.653809C5.156250 -21.789551 6.230469 -21.357422 7.587891 -21.357422C8.779297 -21.357422 9.858398 -21.694336 10.825195 -22.368164C11.791992 -23.041992 12.534180 -23.906250 13.051758 -24.960938C13.569336 -26.015625 13.828125 -27.133789 13.828125 -28.315430C13.828125 -29.672852 13.432617 -30.781250 12.641602 -31.640625C11.850586 -32.500000 10.776367 -32.929688 9.418945 -32.929688C8.217773 -32.929688 7.133789 -32.595215 6.166992 -31.926270C5.200195 -31.257324 4.460449 -30.397949 3.947754 -29.348145C3.435059 -28.298340 3.178711 -27.182617 3.178711 -26.000977ZM7.104492 -38.422852C7.104492 -38.842773 7.250977 -39.223633 7.543945 -39.565430C7.836914 -39.907227 8.193359 -40.078125 8.613281 -40.078125C8.925781 -40.078125 9.177246 -39.968262 9.367676 -39.748535C9.558105 -39.528809 9.653320 -39.257812 9.653320 -38.935547C9.653320 -38.515625 9.509277 -38.139648 9.221191 -37.807617C8.933105 -37.475586 8.579102 -37.309570 8.159180 -37.309570C7.846680 -37.309570 7.592773 -37.414551 7.397461 -37.624512C7.202148 -37.834473 7.104492 -38.100586 7.104492 -38.422852ZM10.986328 -38.422852C10.986328 -38.842773 11.132812 -39.223633 11.425781 -39.565430C11.718750 -39.907227 12.070312 -40.078125 12.480469 -40.078125C12.792969 -40.078125 13.046875 -39.968262 13.242188 -39.748535C13.437500 -39.528809 13.535156 -39.257812 13.535156 -38.935547C13.535156 -38.515625 13.391113 -38.139648 13.103027 -37.807617C12.814941 -37.475586 12.465820 -37.309570 12.055664 -37.309570C11.733398 -37.309570 11.474609 -37.414551 11.279297 -37.624512C11.083984 -37.834473 10.986328 -38.100586 10.986328 -38.422852ZM10.986328 -38.422852"></path></svg>