<svg width="15.161133" height="11.528320" viewBox="1.494141 -27.641602 15.161133 11.528320" xmlns="http://www.w3.org/2000/svg"><path d="M1.494141 -21.181641L1.494141 -22.543945L16.655273 -22.543945L16.655273 -21.181641ZM7.675781 -17.504883C7.675781 -17.885742 7.810059 -18.210449 8.078613 -18.479004C8.347168 -18.747559 8.671875 -18.881836 9.052734 -18.881836C9.443359 -18.881836 9.772949 -18.745117 10.041504 -18.471680C10.310059 -18.198242 10.444336 -17.875977 10.444336 -17.504883C10.444336 -17.114258 10.310059 -16.784668 10.041504 -16.516113C9.772949 -16.247559 9.443359 -16.113281 9.052734 -16.113281C8.681641 -16.113281 8.359375 -16.247559 8.085938 -16.516113C7.812500 -16.784668 7.675781 -17.114258 7.675781 -17.504883ZM7.675781 -26.264648C7.675781 -26.635742 7.812500 -26.958008 8.085938 -27.231445C8.359375 -27.504883 8.681641 -27.641602 9.052734 -27.641602C9.443359 -27.641602 9.772949 -27.504883 10.041504 -27.231445C10.310059 -26.958008 10.444336 -26.635742 10.444336 -26.264648C10.444336 -25.874023 10.310059 -25.544434 10.041504 -25.275879C9.772949 -25.007324 9.443359 -24.873047 9.052734 -24.873047C8.681641 -24.873047 8.359375 -25.007324 8.085938 -25.275879C7.812500 -25.544434 7.675781 -25.874023 7.675781 -26.264648ZM7.675781 -26.264648"></path></svg>