<svg width="15.512695" height="15.395508" viewBox="0.805664 -30.219727 15.512695 15.395508" xmlns="http://www.w3.org/2000/svg"><path d="M0.805664 -16.054688L2.548828 -17.827148C1.533203 -19.116211 1.025391 -20.664062 1.025391 -22.470703C1.025391 -24.648438 1.745605 -26.433105 3.186035 -27.824707C4.626465 -29.216309 6.425781 -29.912109 8.583984 -29.912109C10.332031 -29.912109 11.889648 -29.423828 13.256836 -28.447266L15.029297 -30.219727L16.318359 -28.959961L14.545898 -27.187500C15.590820 -25.898438 16.113281 -24.326172 16.113281 -22.470703C16.113281 -20.283203 15.397949 -18.500977 13.967285 -17.124023C12.536621 -15.747070 10.742188 -15.058594 8.583984 -15.058594C6.757812 -15.058594 5.175781 -15.561523 3.837891 -16.567383L2.065430 -14.824219ZM3.925781 -22.558594C3.925781 -21.542969 4.145508 -20.634766 4.584961 -19.833984L11.425781 -26.645508C10.664062 -27.260742 9.716797 -27.568359 8.583984 -27.568359C7.167969 -27.568359 6.037598 -27.094727 5.192871 -26.147461C4.348145 -25.200195 3.925781 -24.003906 3.925781 -22.558594ZM5.727539 -18.457031C6.508789 -17.832031 7.460938 -17.519531 8.583984 -17.519531C9.980469 -17.519531 11.098633 -17.998047 11.938477 -18.955078C12.778320 -19.912109 13.198242 -21.113281 13.198242 -22.558594C13.198242 -23.574219 12.988281 -24.467773 12.568359 -25.239258ZM5.727539 -18.457031"></path></svg>