<svg width="14.282227" height="21.035156" viewBox="1.494141 -41.733398 14.282227 21.035156" xmlns="http://www.w3.org/2000/svg"><path d="M1.494141 -26.879883L1.494141 -35.830078L6.298828 -35.830078L6.298828 -27.539062C6.298828 -26.611328 6.462402 -25.900879 6.789551 -25.407715C7.116699 -24.914551 7.685547 -24.667969 8.496094 -24.667969C9.326172 -24.667969 9.948730 -24.963379 10.363770 -25.554199C10.778809 -26.145020 10.986328 -26.948242 10.986328 -27.963867L10.986328 -35.830078L15.776367 -35.830078L15.776367 -21.035156L11.162109 -21.035156L11.132812 -22.719727C10.761719 -22.192383 10.192871 -21.723633 9.426270 -21.313477C8.659668 -20.903320 7.788086 -20.698242 6.811523 -20.698242C4.858398 -20.698242 3.447266 -21.279297 2.578125 -22.441406C1.855469 -23.476562 1.494141 -24.956055 1.494141 -26.879883ZM6.533203 -37.382812L8.906250 -41.733398L13.022461 -41.733398L9.960938 -37.382812ZM6.533203 -37.382812"></path></svg>