<svg width="12.011719" height="20.991211" viewBox="2.094727 -41.689453 12.011719 20.991211" xmlns="http://www.w3.org/2000/svg"><path d="M2.094727 -24.624023C2.094727 -25.014648 2.158203 -25.683594 2.285156 -26.630859L3.266602 -32.812500C3.325195 -33.271484 3.354492 -33.652344 3.354492 -33.955078C3.354492 -34.140625 3.347168 -34.316406 3.332520 -34.482422C3.317871 -34.648438 3.300781 -34.765625 3.281250 -34.833984L3.266602 -34.936523L4.833984 -34.936523C4.892578 -34.721680 4.921875 -34.404297 4.921875 -33.984375C4.921875 -33.583984 4.882812 -33.144531 4.804688 -32.666016L3.808594 -26.396484C3.710938 -25.830078 3.662109 -25.307617 3.662109 -24.829102C3.662109 -23.911133 3.886719 -23.227539 4.335938 -22.778320C4.785156 -22.329102 5.478516 -22.104492 6.416016 -22.104492C7.128906 -22.104492 7.780762 -22.258301 8.371582 -22.565918C8.962402 -22.873535 9.453125 -23.286133 9.843750 -23.803711C10.234375 -24.321289 10.554199 -24.885254 10.803223 -25.495605C11.052246 -26.105957 11.230469 -26.752930 11.337891 -27.436523L12.509766 -34.936523L14.106445 -34.936523L12.216797 -23.085938C12.167969 -22.753906 12.143555 -22.387695 12.143555 -21.987305C12.143555 -21.801758 12.150879 -21.625977 12.165527 -21.459961C12.180176 -21.293945 12.197266 -21.176758 12.216797 -21.108398L12.246094 -20.991211L10.649414 -20.991211C10.590820 -21.215820 10.561523 -21.538086 10.561523 -21.958008C10.561523 -22.446289 10.590820 -22.841797 10.649414 -23.144531C10.102539 -22.373047 9.421387 -21.772461 8.605957 -21.342773C7.790527 -20.913086 6.914062 -20.698242 5.976562 -20.698242C3.388672 -20.698242 2.094727 -22.006836 2.094727 -24.624023ZM8.129883 -37.280273L11.586914 -41.689453L13.535156 -41.689453L9.477539 -37.280273ZM8.129883 -37.280273"></path></svg>