<svg width="12.011719" height="20.185547" viewBox="2.094727 -40.078125 12.011719 20.185547" xmlns="http://www.w3.org/2000/svg"><path d="M2.094727 -23.818359C2.094727 -24.208984 2.158203 -24.877930 2.285156 -25.825195L3.266602 -32.006836C3.325195 -32.465820 3.354492 -32.846680 3.354492 -33.149414C3.354492 -33.334961 3.347168 -33.510742 3.332520 -33.676758C3.317871 -33.842773 3.300781 -33.959961 3.281250 -34.028320L3.266602 -34.130859L4.833984 -34.130859C4.892578 -33.916016 4.921875 -33.598633 4.921875 -33.178711C4.921875 -32.778320 4.882812 -32.338867 4.804688 -31.860352L3.808594 -25.590820C3.710938 -25.024414 3.662109 -24.501953 3.662109 -24.023438C3.662109 -23.105469 3.886719 -22.421875 4.335938 -21.972656C4.785156 -21.523438 5.478516 -21.298828 6.416016 -21.298828C7.128906 -21.298828 7.780762 -21.452637 8.371582 -21.760254C8.962402 -22.067871 9.453125 -22.480469 9.843750 -22.998047C10.234375 -23.515625 10.554199 -24.079590 10.803223 -24.689941C11.052246 -25.300293 11.230469 -25.947266 11.337891 -26.630859L12.509766 -34.130859L14.106445 -34.130859L12.216797 -22.280273C12.167969 -21.948242 12.143555 -21.582031 12.143555 -21.181641C12.143555 -20.996094 12.150879 -20.820312 12.165527 -20.654297C12.180176 -20.488281 12.197266 -20.371094 12.216797 -20.302734L12.246094 -20.185547L10.649414 -20.185547C10.590820 -20.410156 10.561523 -20.732422 10.561523 -21.152344C10.561523 -21.640625 10.590820 -22.036133 10.649414 -22.338867C10.102539 -21.567383 9.421387 -20.966797 8.605957 -20.537109C7.790527 -20.107422 6.914062 -19.892578 5.976562 -19.892578C3.388672 -19.892578 2.094727 -21.201172 2.094727 -23.818359ZM6.357422 -38.422852C6.357422 -38.842773 6.503906 -39.223633 6.796875 -39.565430C7.089844 -39.907227 7.446289 -40.078125 7.866211 -40.078125C8.178711 -40.078125 8.430176 -39.968262 8.620605 -39.748535C8.811035 -39.528809 8.906250 -39.257812 8.906250 -38.935547C8.906250 -38.515625 8.762207 -38.139648 8.474121 -37.807617C8.186035 -37.475586 7.832031 -37.309570 7.412109 -37.309570C7.099609 -37.309570 6.845703 -37.414551 6.650391 -37.624512C6.455078 -37.834473 6.357422 -38.100586 6.357422 -38.422852ZM10.224609 -38.422852C10.224609 -38.842773 10.373535 -39.223633 10.671387 -39.565430C10.969238 -39.907227 11.323242 -40.078125 11.733398 -40.078125C12.055664 -40.078125 12.309570 -39.968262 12.495117 -39.748535C12.680664 -39.528809 12.773438 -39.257812 12.773438 -38.935547C12.773438 -38.515625 12.631836 -38.139648 12.348633 -37.807617C12.065430 -37.475586 11.718750 -37.309570 11.308594 -37.309570C10.986328 -37.309570 10.725098 -37.414551 10.524902 -37.624512C10.324707 -37.834473 10.224609 -38.100586 10.224609 -38.422852ZM10.224609 -38.422852"></path></svg>