<svg width="16.640625" height="26.367188" viewBox="-0.117188 -47.065430 16.640625 26.367188" xmlns="http://www.w3.org/2000/svg"><path d="M-0.117188 -41.162109L4.892578 -41.162109L8.247070 -31.640625L11.586914 -41.162109L16.523438 -41.162109L9.931641 -24.960938C9.335938 -23.515625 8.681641 -22.443848 7.968750 -21.745605C7.255859 -21.047363 6.308594 -20.698242 5.126953 -20.698242C4.384766 -20.698242 3.671875 -20.759277 2.988281 -20.881348C2.304688 -21.003418 1.806641 -21.123047 1.494141 -21.240234L1.025391 -21.416016L1.977539 -24.960938C2.680664 -24.697266 3.271484 -24.565430 3.750000 -24.565430C3.984375 -24.565430 4.165039 -24.575195 4.291992 -24.594727C4.418945 -24.614258 4.567871 -24.699707 4.738770 -24.851074C4.909668 -25.002441 5.058594 -25.229492 5.185547 -25.532227L5.727539 -26.821289ZM6.181641 -42.714844L8.583984 -47.065430L12.656250 -47.065430L9.594727 -42.714844ZM6.181641 -42.714844"></path></svg>