<svg width="15.029297" height="26.396484" viewBox="1.025391 -47.094727 15.029297 26.396484" xmlns="http://www.w3.org/2000/svg"><path d="M1.025391 -21.650391C1.025391 -22.099609 1.064453 -22.553711 1.142578 -23.012695L4.614258 -44.970703C4.682617 -45.498047 4.716797 -45.878906 4.716797 -46.113281C4.716797 -46.298828 4.707031 -46.474609 4.687500 -46.640625C4.667969 -46.806641 4.648438 -46.923828 4.628906 -46.992188L4.614258 -47.094727L6.181641 -47.094727C6.240234 -46.879883 6.269531 -46.562500 6.269531 -46.142578C6.269531 -45.712891 6.230469 -45.258789 6.152344 -44.780273L5.039062 -37.822266L5.068359 -37.822266C6.591797 -39.648438 8.403320 -40.561523 10.502930 -40.561523C12.221680 -40.561523 13.576660 -40.034180 14.567871 -38.979492C15.559082 -37.924805 16.054688 -36.538086 16.054688 -34.819336C16.054688 -33.920898 15.937500 -33.044434 15.703125 -32.189941C15.468750 -31.335449 15.122070 -30.541992 14.663086 -29.809570C14.204102 -29.077148 13.662109 -28.435059 13.037109 -27.883301C12.412109 -27.331543 11.677246 -26.896973 10.832520 -26.579590C9.987793 -26.262207 9.086914 -26.103516 8.129883 -26.103516C7.104492 -26.103516 6.206055 -26.335449 5.434570 -26.799316C4.663086 -27.263184 4.072266 -27.949219 3.662109 -28.857422L3.632812 -28.857422L2.666016 -22.792969C2.626953 -22.529297 2.607422 -22.158203 2.607422 -21.679688C2.607422 -21.494141 2.614746 -21.318359 2.629395 -21.152344C2.644043 -20.986328 2.656250 -20.869141 2.666016 -20.800781L2.695312 -20.698242L1.113281 -20.698242C1.054688 -20.913086 1.025391 -21.230469 1.025391 -21.650391ZM4.174805 -32.124023C4.174805 -30.756836 4.538574 -29.655762 5.266113 -28.820801C5.993652 -27.985840 7.026367 -27.568359 8.364258 -27.568359C9.272461 -27.568359 10.114746 -27.773438 10.891113 -28.183594C11.667480 -28.593750 12.307129 -29.133301 12.810059 -29.802246C13.312988 -30.471191 13.703613 -31.223145 13.981934 -32.058105C14.260254 -32.893066 14.399414 -33.745117 14.399414 -34.614258C14.399414 -35.971680 14.033203 -37.070312 13.300781 -37.910156C12.568359 -38.750000 11.533203 -39.169922 10.195312 -39.169922C9.287109 -39.169922 8.444824 -38.967285 7.668457 -38.562012C6.892090 -38.156738 6.254883 -37.619629 5.756836 -36.950684C5.258789 -36.281738 4.870605 -35.529785 4.592285 -34.694824C4.313965 -33.859863 4.174805 -33.002930 4.174805 -32.124023ZM4.174805 -32.124023"></path></svg>