<svg width="14.589844" height="25.854492" viewBox="-0.395508 -45.864258 14.589844 25.854492" xmlns="http://www.w3.org/2000/svg"><path d="M-0.395508 -20.449219L0.146484 -21.958008C0.546875 -21.752930 0.996094 -21.650391 1.494141 -21.650391C2.373047 -21.650391 3.076172 -22.202148 3.603516 -23.305664L4.951172 -26.059570L1.713867 -39.770508L3.354492 -39.770508L6.035156 -27.744141L12.539062 -39.770508L14.194336 -39.770508L4.716797 -22.558594C4.296875 -21.777344 3.820801 -21.157227 3.288574 -20.698242C2.756348 -20.239258 2.109375 -20.009766 1.347656 -20.009766C0.585938 -20.009766 0.004883 -20.156250 -0.395508 -20.449219ZM5.463867 -44.238281C5.463867 -44.658203 5.607910 -45.034180 5.895996 -45.366211C6.184082 -45.698242 6.538086 -45.864258 6.958008 -45.864258C7.270508 -45.864258 7.524414 -45.759277 7.719727 -45.549316C7.915039 -45.339355 8.012695 -45.073242 8.012695 -44.750977C8.012695 -44.340820 7.868652 -43.969727 7.580566 -43.637695C7.292480 -43.305664 6.943359 -43.139648 6.533203 -43.139648C6.210938 -43.139648 5.952148 -43.242188 5.756836 -43.447266C5.561523 -43.652344 5.463867 -43.916016 5.463867 -44.238281ZM9.360352 -44.238281C9.360352 -44.658203 9.504395 -45.034180 9.792480 -45.366211C10.080566 -45.698242 10.434570 -45.864258 10.854492 -45.864258C11.166992 -45.864258 11.420898 -45.759277 11.616211 -45.549316C11.811523 -45.339355 11.909180 -45.073242 11.909180 -44.750977C11.909180 -44.331055 11.765137 -43.957520 11.477051 -43.630371C11.188965 -43.303223 10.834961 -43.139648 10.415039 -43.139648C10.102539 -43.139648 9.848633 -43.242188 9.653320 -43.447266C9.458008 -43.652344 9.360352 -43.916016 9.360352 -44.238281ZM9.360352 -44.238281"></path></svg>