<svg width="27.729492" height="21.401367" viewBox="0.834961 -42.436523 27.729492 21.401367" xmlns="http://www.w3.org/2000/svg"><path d="M0.834961 -31.728516C0.834961 -33.369141 1.118164 -34.865723 1.684570 -36.218262C2.250977 -37.570801 3.027344 -38.698730 4.013672 -39.602051C5.000000 -40.505371 6.157227 -41.203613 7.485352 -41.696777C8.813477 -42.189941 10.239258 -42.436523 11.762695 -42.436523C13.413086 -42.436523 14.814453 -42.133789 15.966797 -41.528320L15.966797 -42.099609L28.286133 -42.099609L28.286133 -38.232422L20.522461 -38.232422L20.522461 -33.999023L27.802734 -33.999023L27.802734 -30.131836L20.522461 -30.131836L20.522461 -25.327148L28.564453 -25.327148L28.564453 -21.401367L15.966797 -21.401367L15.966797 -21.943359C14.882812 -21.337891 13.481445 -21.035156 11.762695 -21.035156C10.239258 -21.035156 8.813477 -21.281738 7.485352 -21.774902C6.157227 -22.268066 5.000000 -22.963867 4.013672 -23.862305C3.027344 -24.760742 2.250977 -25.888672 1.684570 -27.246094C1.118164 -28.603516 0.834961 -30.097656 0.834961 -31.728516ZM5.756836 -31.845703C5.756836 -29.902344 6.325684 -28.334961 7.463379 -27.143555C8.601074 -25.952148 10.034180 -25.356445 11.762695 -25.356445C13.403320 -25.356445 14.711914 -25.747070 15.688477 -26.528320L15.688477 -37.148438C14.741211 -37.910156 13.432617 -38.291016 11.762695 -38.291016C10.034180 -38.291016 8.601074 -37.700195 7.463379 -36.518555C6.325684 -35.336914 5.756836 -33.779297 5.756836 -31.845703ZM5.756836 -31.845703"></path></svg>