<svg width="24.243164" height="14.458008" viewBox="1.494141 -28.623047 24.243164 14.458008" xmlns="http://www.w3.org/2000/svg"><path d="M1.494141 -20.068359C1.494141 -21.582031 1.843262 -22.990723 2.541504 -24.294434C3.239746 -25.598145 4.216309 -26.645508 5.471191 -27.436523C6.726074 -28.227539 8.110352 -28.623047 9.624023 -28.623047C10.903320 -28.623047 12.016602 -28.300781 12.963867 -27.656250C13.911133 -27.011719 14.599609 -26.142578 15.029297 -25.048828C15.761719 -26.162109 16.691895 -27.036133 17.819824 -27.670898C18.947754 -28.305664 20.136719 -28.623047 21.386719 -28.623047C22.744141 -28.623047 23.808594 -28.281250 24.580078 -27.597656C25.351562 -26.914062 25.737305 -26.103516 25.737305 -25.166016C25.737305 -24.619141 25.590820 -24.099121 25.297852 -23.605957C25.004883 -23.112793 24.567871 -22.658691 23.986816 -22.243652C23.405762 -21.828613 22.614746 -21.496582 21.613770 -21.247559C20.612793 -20.998535 19.467773 -20.874023 18.178711 -20.874023C17.426758 -20.874023 16.479492 -20.937500 15.336914 -21.064453C15.268555 -20.605469 15.234375 -20.224609 15.234375 -19.921875C15.234375 -18.574219 15.583496 -17.512207 16.281738 -16.735840C16.979980 -15.959473 17.973633 -15.571289 19.262695 -15.571289C19.663086 -15.571289 20.063477 -15.605469 20.463867 -15.673828C20.864258 -15.742188 21.223145 -15.827637 21.540527 -15.930176C21.857910 -16.032715 22.160645 -16.149902 22.448730 -16.281738C22.736816 -16.413574 22.985840 -16.542969 23.195801 -16.669922C23.405762 -16.796875 23.586426 -16.911621 23.737793 -17.014160C23.889160 -17.116699 24.003906 -17.202148 24.082031 -17.270508L24.213867 -17.373047L24.755859 -16.259766C24.697266 -16.201172 24.616699 -16.125488 24.514160 -16.032715C24.411621 -15.939941 24.174805 -15.773926 23.803711 -15.534668C23.432617 -15.295410 23.037109 -15.083008 22.617188 -14.897461C22.197266 -14.711914 21.647949 -14.543457 20.969238 -14.392090C20.290527 -14.240723 19.589844 -14.165039 18.867188 -14.165039C17.626953 -14.165039 16.584473 -14.472656 15.739746 -15.087891C14.895020 -15.703125 14.287109 -16.562500 13.916016 -17.666016C13.173828 -16.591797 12.233887 -15.739746 11.096191 -15.109863C9.958496 -14.479980 8.710938 -14.165039 7.353516 -14.165039C5.615234 -14.165039 4.204102 -14.714355 3.120117 -15.812988C2.036133 -16.911621 1.494141 -18.330078 1.494141 -20.068359ZM3.178711 -20.273438C3.178711 -18.906250 3.574219 -17.790527 4.365234 -16.926270C5.156250 -16.062012 6.230469 -15.629883 7.587891 -15.629883C8.779297 -15.629883 9.858398 -15.966797 10.825195 -16.640625C11.791992 -17.314453 12.534180 -18.178711 13.051758 -19.233398C13.569336 -20.288086 13.828125 -21.406250 13.828125 -22.587891C13.828125 -23.945312 13.432617 -25.053711 12.641602 -25.913086C11.850586 -26.772461 10.776367 -27.202148 9.418945 -27.202148C8.217773 -27.202148 7.133789 -26.867676 6.166992 -26.198730C5.200195 -25.529785 4.460449 -24.670410 3.947754 -23.620605C3.435059 -22.570801 3.178711 -21.455078 3.178711 -20.273438ZM15.600586 -22.412109C16.508789 -22.304688 17.397461 -22.250977 18.266602 -22.250977C19.331055 -22.250977 20.295410 -22.351074 21.159668 -22.551270C22.023926 -22.751465 22.739258 -23.083496 23.305664 -23.547363C23.872070 -24.011230 24.155273 -24.570312 24.155273 -25.224609C24.155273 -25.781250 23.867188 -26.259766 23.291016 -26.660156C22.714844 -27.060547 21.972656 -27.260742 21.064453 -27.260742C20.292969 -27.260742 19.575195 -27.102051 18.911133 -26.784668C18.247070 -26.467285 17.695312 -26.059570 17.255859 -25.561523C16.816406 -25.063477 16.457520 -24.543457 16.179199 -24.001465C15.900879 -23.459473 15.708008 -22.929688 15.600586 -22.412109ZM15.600586 -22.412109"></path></svg>