<svg width="15.512695" height="26.162109" viewBox="2.753906 -52.324219 15.512695 26.162109" xmlns="http://www.w3.org/2000/svg"><path d="M2.753906 -46.860352L4.643555 -46.860352L8.906250 -36.577148L16.406250 -46.860352L18.266602 -46.860352L9.448242 -35.009766L8.041992 -26.162109L6.445312 -26.162109L7.836914 -35.009766ZM7.954102 -50.698242C7.954102 -51.118164 8.098145 -51.494141 8.386230 -51.826172C8.674316 -52.158203 9.028320 -52.324219 9.448242 -52.324219C9.760742 -52.324219 10.014648 -52.219238 10.209961 -52.009277C10.405273 -51.799316 10.502930 -51.533203 10.502930 -51.210938C10.502930 -50.791016 10.356445 -50.415039 10.063477 -50.083008C9.770508 -49.750977 9.414062 -49.584961 8.994141 -49.584961C8.681641 -49.584961 8.430176 -49.689941 8.239746 -49.899902C8.049316 -50.109863 7.954102 -50.375977 7.954102 -50.698242ZM11.850586 -50.698242C11.850586 -51.118164 11.994629 -51.494141 12.282715 -51.826172C12.570801 -52.158203 12.924805 -52.324219 13.344727 -52.324219C13.657227 -52.324219 13.911133 -52.219238 14.106445 -52.009277C14.301758 -51.799316 14.399414 -51.533203 14.399414 -51.210938C14.399414 -50.791016 14.255371 -50.415039 13.967285 -50.083008C13.679199 -49.750977 13.325195 -49.584961 12.905273 -49.584961C12.592773 -49.584961 12.338867 -49.689941 12.143555 -49.899902C11.948242 -50.109863 11.850586 -50.375977 11.850586 -50.698242ZM11.850586 -50.698242"></path></svg>