<svg width="17.314453" height="26.162109" viewBox="-0.029297 -52.324219 17.314453 26.162109" xmlns="http://www.w3.org/2000/svg"><path d="M-0.029297 -46.860352L3.237305 -46.860352L8.613281 -37.353516L14.003906 -46.860352L17.285156 -46.860352L10.078125 -34.833984L10.078125 -26.162109L7.163086 -26.162109L7.163086 -34.833984ZM4.746094 -50.698242C4.746094 -51.186523 4.897461 -51.579590 5.200195 -51.877441C5.502930 -52.175293 5.878906 -52.324219 6.328125 -52.324219C6.767578 -52.324219 7.138672 -52.175293 7.441406 -51.877441C7.744141 -51.579590 7.895508 -51.186523 7.895508 -50.698242C7.895508 -50.219727 7.744141 -49.831543 7.441406 -49.533691C7.138672 -49.235840 6.767578 -49.086914 6.328125 -49.086914C5.888672 -49.086914 5.515137 -49.238281 5.207520 -49.541016C4.899902 -49.843750 4.746094 -50.229492 4.746094 -50.698242ZM9.360352 -50.698242C9.360352 -51.186523 9.509277 -51.579590 9.807129 -51.877441C10.104980 -52.175293 10.473633 -52.324219 10.913086 -52.324219C11.362305 -52.324219 11.740723 -52.175293 12.048340 -51.877441C12.355957 -51.579590 12.509766 -51.186523 12.509766 -50.698242C12.509766 -50.229492 12.353516 -49.843750 12.041016 -49.541016C11.728516 -49.238281 11.352539 -49.086914 10.913086 -49.086914C10.473633 -49.086914 10.104980 -49.235840 9.807129 -49.533691C9.509277 -49.831543 9.360352 -50.219727 9.360352 -50.698242ZM9.360352 -50.698242"></path></svg>