<svg width="10.839844" height="3.837891" viewBox="0.834961 -24.331055 10.839844 3.837891" xmlns="http://www.w3.org/2000/svg"><path d="M0.834961 -20.874023C0.864258 -21.821289 1.218262 -22.634277 1.896973 -23.312988C2.575684 -23.991699 3.364258 -24.331055 4.262695 -24.331055C4.428711 -24.331055 4.589844 -24.323730 4.746094 -24.309082C4.902344 -24.294434 5.048828 -24.270020 5.185547 -24.235840C5.322266 -24.201660 5.437012 -24.172363 5.529785 -24.147949C5.622559 -24.123535 5.732422 -24.082031 5.859375 -24.023438C5.986328 -23.964844 6.069336 -23.925781 6.108398 -23.906250C6.147461 -23.886719 6.230469 -23.842773 6.357422 -23.774414L6.533203 -23.671875C6.582031 -23.642578 6.674805 -23.583984 6.811523 -23.496094C6.948242 -23.408203 7.060547 -23.342285 7.148438 -23.298340C7.236328 -23.254395 7.346191 -23.200684 7.478027 -23.137207C7.609863 -23.073730 7.739258 -23.027344 7.866211 -22.998047C7.993164 -22.968750 8.120117 -22.954102 8.247070 -22.954102C8.579102 -22.954102 8.864746 -23.068848 9.104004 -23.298340C9.343262 -23.527832 9.516602 -23.842773 9.624023 -24.243164L11.674805 -23.935547C11.645508 -22.988281 11.296387 -22.177734 10.627441 -21.503906C9.958496 -20.830078 9.174805 -20.493164 8.276367 -20.493164C8.081055 -20.493164 7.890625 -20.505371 7.705078 -20.529785C7.519531 -20.554199 7.365723 -20.581055 7.243652 -20.610352C7.121582 -20.639648 6.982422 -20.683594 6.826172 -20.742188C6.669922 -20.800781 6.562500 -20.844727 6.503906 -20.874023C6.445312 -20.903320 6.347656 -20.954590 6.210938 -21.027832C6.074219 -21.101074 5.996094 -21.142578 5.976562 -21.152344C5.937500 -21.171875 5.788574 -21.259766 5.529785 -21.416016C5.270996 -21.572266 5.043945 -21.687012 4.848633 -21.760254C4.653320 -21.833496 4.458008 -21.870117 4.262695 -21.870117C3.940430 -21.870117 3.662109 -21.755371 3.427734 -21.525879C3.193359 -21.296387 3.022461 -20.981445 2.915039 -20.581055ZM0.834961 -20.874023"></path></svg>