<svg width="8.437500" height="2.753906" viewBox="2.153320 -22.763672 8.437500 2.753906" xmlns="http://www.w3.org/2000/svg"><path d="M2.153320 -20.449219C2.329102 -21.083984 2.661133 -21.628418 3.149414 -22.082520C3.637695 -22.536621 4.189453 -22.763672 4.804688 -22.763672C5.263672 -22.763672 5.700684 -22.648926 6.115723 -22.419434C6.530762 -22.189941 6.911621 -21.960449 7.258301 -21.730957C7.604980 -21.501465 7.934570 -21.386719 8.247070 -21.386719C8.569336 -21.386719 8.859863 -21.511230 9.118652 -21.760254C9.377441 -22.009277 9.555664 -22.304688 9.653320 -22.646484L10.590820 -22.338867C10.434570 -21.704102 10.114746 -21.157227 9.631348 -20.698242C9.147949 -20.239258 8.588867 -20.009766 7.954102 -20.009766C7.504883 -20.009766 7.075195 -20.124512 6.665039 -20.354004C6.254883 -20.583496 5.871582 -20.812988 5.515137 -21.042480C5.158691 -21.271973 4.819336 -21.386719 4.497070 -21.386719C4.174805 -21.386719 3.889160 -21.264648 3.640137 -21.020508C3.391113 -20.776367 3.217773 -20.488281 3.120117 -20.156250ZM2.153320 -20.449219"></path></svg>