<svg width="19.790039" height="2.695312" viewBox="3.002930 -5.185547 19.790039 2.695312" xmlns="http://www.w3.org/2000/svg"><path d="M3.002930 -3.618164C3.002930 -4.028320 3.154297 -4.392090 3.457031 -4.709473C3.759766 -5.026855 4.116211 -5.185547 4.526367 -5.185547C4.838867 -5.185547 5.102539 -5.078125 5.317383 -4.863281C5.532227 -4.648438 5.639648 -4.375000 5.639648 -4.042969C5.639648 -3.642578 5.485840 -3.283691 5.178223 -2.966309C4.870605 -2.648926 4.516602 -2.490234 4.116211 -2.490234C3.784180 -2.490234 3.515625 -2.595215 3.310547 -2.805176C3.105469 -3.015137 3.002930 -3.286133 3.002930 -3.618164ZM11.586914 -3.618164C11.586914 -4.028320 11.740723 -4.392090 12.048340 -4.709473C12.355957 -5.026855 12.709961 -5.185547 13.110352 -5.185547C13.442383 -5.185547 13.710938 -5.078125 13.916016 -4.863281C14.121094 -4.648438 14.223633 -4.375000 14.223633 -4.042969C14.223633 -3.642578 14.067383 -3.283691 13.754883 -2.966309C13.442383 -2.648926 13.085938 -2.490234 12.685547 -2.490234C12.373047 -2.490234 12.111816 -2.595215 11.901855 -2.805176C11.691895 -3.015137 11.586914 -3.286133 11.586914 -3.618164ZM20.156250 -3.618164C20.156250 -4.018555 20.312500 -4.379883 20.625000 -4.702148C20.937500 -5.024414 21.293945 -5.185547 21.694336 -5.185547C22.016602 -5.185547 22.280273 -5.078125 22.485352 -4.863281C22.690430 -4.648438 22.792969 -4.375000 22.792969 -4.042969C22.792969 -3.632812 22.641602 -3.271484 22.338867 -2.958984C22.036133 -2.646484 21.679688 -2.490234 21.269531 -2.490234C20.957031 -2.490234 20.693359 -2.597656 20.478516 -2.812500C20.263672 -3.027344 20.156250 -3.295898 20.156250 -3.618164ZM20.156250 -3.618164"></path></svg>