<svg width="28.125000" height="28.125000" viewBox="0.000000 -52.895508 28.125000 28.125000" xmlns="http://www.w3.org/2000/svg"><path d="M0.000000 -38.833008C0.000000 -40.737305 0.371094 -42.558594 1.113281 -44.296875C1.855469 -46.035156 2.854004 -47.531738 4.108887 -48.786621C5.363770 -50.041504 6.860352 -51.040039 8.598633 -51.782227C10.336914 -52.524414 12.158203 -52.895508 14.062500 -52.895508C15.966797 -52.895508 17.788086 -52.524414 19.526367 -51.782227C21.264648 -51.040039 22.761230 -50.041504 24.016113 -48.786621C25.270996 -47.531738 26.269531 -46.035156 27.011719 -44.296875C27.753906 -42.558594 28.125000 -40.737305 28.125000 -38.833008C28.125000 -36.928711 27.753906 -35.107422 27.011719 -33.369141C26.269531 -31.630859 25.270996 -30.134277 24.016113 -28.879395C22.761230 -27.624512 21.264648 -26.625977 19.526367 -25.883789C17.788086 -25.141602 15.966797 -24.770508 14.062500 -24.770508C12.158203 -24.770508 10.336914 -25.141602 8.598633 -25.883789C6.860352 -26.625977 5.363770 -27.624512 4.108887 -28.879395C2.854004 -30.134277 1.855469 -31.630859 1.113281 -33.369141C0.371094 -35.107422 0.000000 -36.928711 0.000000 -38.833008ZM3.515625 -38.833008C3.515625 -36.918945 3.986816 -35.153809 4.929199 -33.537598C5.871582 -31.921387 7.153320 -30.642090 8.774414 -29.699707C10.395508 -28.757324 12.158203 -28.286133 14.062500 -28.286133C15.976562 -28.286133 17.741699 -28.757324 19.357910 -29.699707C20.974121 -30.642090 22.253418 -31.921387 23.195801 -33.537598C24.138184 -35.153809 24.609375 -36.918945 24.609375 -38.833008C24.609375 -40.737305 24.138184 -42.500000 23.195801 -44.121094C22.253418 -45.742188 20.974121 -47.023926 19.357910 -47.966309C17.741699 -48.908691 15.976562 -49.379883 14.062500 -49.379883C12.636719 -49.379883 11.271973 -49.101562 9.968262 -48.544922C8.664551 -47.988281 7.541504 -47.238770 6.599121 -46.296387C5.656738 -45.354004 4.907227 -44.230957 4.350586 -42.927246C3.793945 -41.623535 3.515625 -40.258789 3.515625 -38.833008ZM12.304688 -38.833008L12.304688 -45.571289C12.304688 -46.049805 12.475586 -46.462402 12.817383 -46.809082C13.159180 -47.155762 13.574219 -47.329102 14.062500 -47.329102C14.550781 -47.329102 14.965820 -47.155762 15.307617 -46.809082C15.649414 -46.462402 15.820312 -46.049805 15.820312 -45.571289L15.820312 -39.565430L20.068359 -35.317383C20.410156 -34.975586 20.581055 -34.560547 20.581055 -34.072266C20.581055 -33.583984 20.410156 -33.168945 20.068359 -32.827148C19.726562 -32.485352 19.316406 -32.314453 18.837891 -32.314453C18.349609 -32.314453 17.934570 -32.485352 17.592773 -32.827148L12.817383 -37.587891C12.788086 -37.617188 12.751465 -37.663574 12.707520 -37.727051C12.663574 -37.790527 12.631836 -37.832031 12.612305 -37.851562C12.592773 -37.880859 12.568359 -37.924805 12.539062 -37.983398C12.529297 -38.002930 12.514648 -38.032227 12.495117 -38.071289C12.475586 -38.110352 12.460938 -38.144531 12.451172 -38.173828C12.441406 -38.183594 12.421875 -38.237305 12.392578 -38.334961C12.363281 -38.422852 12.348633 -38.471680 12.348633 -38.481445C12.319336 -38.598633 12.304688 -38.715820 12.304688 -38.833008ZM12.304688 -38.833008"></path></svg>