<svg width="36.271973" height="21.972656" viewBox="-0.036621 -43.842773 36.271973 21.972656" xmlns="http://www.w3.org/2000/svg"><path d="M0.007324 -29.882812C-0.036621 -30.781250 0.061035 -31.643066 0.300293 -32.468262C0.539551 -33.293457 0.886230 -34.072266 1.340332 -34.804688C1.794434 -35.537109 2.368164 -36.186523 3.061523 -36.752930C3.754883 -37.319336 4.526367 -37.768555 5.375977 -38.100586C6.918945 -38.686523 8.476562 -38.813477 10.048828 -38.481445C10.781250 -40.092773 11.894531 -41.389160 13.388672 -42.370605C14.882812 -43.352051 16.542969 -43.842773 18.369141 -43.842773C19.609375 -43.842773 20.793457 -43.601074 21.921387 -43.117676C23.049316 -42.634277 24.020996 -41.984863 24.836426 -41.169434C25.651855 -40.354004 26.301270 -39.382324 26.784668 -38.254395C27.268066 -37.126465 27.509766 -35.942383 27.509766 -34.702148C27.509766 -34.516602 27.490234 -34.248047 27.451172 -33.896484C27.480469 -33.896484 27.517090 -33.906250 27.561035 -33.925781C27.604980 -33.945312 27.636719 -33.955078 27.656250 -33.955078C29.267578 -34.580078 30.859375 -34.543457 32.431641 -33.845215C34.003906 -33.146973 35.102539 -31.992188 35.727539 -30.380859C36.118164 -29.267578 36.235352 -28.186035 36.079102 -27.136230C35.922852 -26.086426 35.493164 -25.119629 34.790039 -24.235840C34.086914 -23.352051 33.203125 -22.705078 32.138672 -22.294922C31.406250 -22.021484 30.683594 -21.879883 29.970703 -21.870117L8.393555 -21.870117L8.393555 -21.884766C6.684570 -21.884766 5.109863 -22.370605 3.669434 -23.342285C2.229004 -24.313965 1.196289 -25.620117 0.571289 -27.260742C0.239258 -28.110352 0.051270 -28.984375 0.007324 -29.882812ZM0.007324 -29.882812"></path></svg>