<svg width="24.484863" height="29.458008" viewBox="-0.014648 -54.902344 24.484863 29.458008" xmlns="http://www.w3.org/2000/svg"><path d="M-0.014648 -35.734863C-0.014648 -35.886230 0.034180 -36.015625 0.131836 -36.123047L3.193359 -39.799805L3.852539 -38.979492L6.181641 -36.093750C6.279297 -35.966797 6.318359 -35.830078 6.298828 -35.683594C6.279297 -35.537109 6.206055 -35.415039 6.079102 -35.317383C5.864258 -35.151367 5.639648 -35.151367 5.405273 -35.317383L4.702148 -35.888672C5.024414 -34.677734 5.654297 -33.669434 6.591797 -32.863770C7.529297 -32.058105 8.666992 -31.508789 10.004883 -31.215820C10.122070 -31.206055 10.224609 -31.206055 10.312500 -31.215820C10.400391 -31.225586 10.505371 -31.298828 10.627441 -31.435547C10.749512 -31.572266 10.810547 -31.777344 10.810547 -32.050781L10.810547 -43.725586C10.810547 -43.920898 10.751953 -44.077148 10.634766 -44.194336C10.517578 -44.311523 10.400391 -44.379883 10.283203 -44.399414L10.122070 -44.428711L8.920898 -44.428711C8.530273 -44.428711 8.195801 -44.565430 7.917480 -44.838867C7.639160 -45.112305 7.500000 -45.444336 7.500000 -45.834961C7.500000 -46.225586 7.636719 -46.557617 7.910156 -46.831055C8.183594 -47.104492 8.520508 -47.241211 8.920898 -47.241211L10.122070 -47.241211L10.166016 -47.241211C10.205078 -47.250977 10.241699 -47.260742 10.275879 -47.270508C10.310059 -47.280273 10.354004 -47.297363 10.407715 -47.321777C10.461426 -47.346191 10.510254 -47.375488 10.554199 -47.409668C10.598145 -47.443848 10.639648 -47.485352 10.678711 -47.534180C10.717773 -47.583008 10.749512 -47.644043 10.773926 -47.717285C10.798340 -47.790527 10.810547 -47.871094 10.810547 -47.958984L10.810547 -48.251953C10.195312 -48.525391 9.699707 -48.950195 9.323730 -49.526367C8.947754 -50.102539 8.759766 -50.742188 8.759766 -51.445312C8.759766 -52.392578 9.096680 -53.205566 9.770508 -53.884277C10.444336 -54.562988 11.259766 -54.902344 12.216797 -54.902344C13.173828 -54.902344 13.994141 -54.562988 14.677734 -53.884277C15.361328 -53.205566 15.703125 -52.392578 15.703125 -51.445312C15.703125 -50.742188 15.510254 -50.102539 15.124512 -49.526367C14.738770 -48.950195 14.238281 -48.525391 13.623047 -48.251953L13.623047 -47.944336C13.623047 -47.856445 13.635254 -47.778320 13.659668 -47.709961C13.684082 -47.641602 13.718262 -47.583008 13.762207 -47.534180C13.806152 -47.485352 13.850098 -47.443848 13.894043 -47.409668C13.937988 -47.375488 13.984375 -47.348633 14.033203 -47.329102C14.082031 -47.309570 14.125977 -47.292480 14.165039 -47.277832C14.204102 -47.263184 14.238281 -47.250977 14.267578 -47.241211L14.326172 -47.241211L15.556641 -47.241211C15.937500 -47.241211 16.267090 -47.104492 16.545410 -46.831055C16.823730 -46.557617 16.962891 -46.225586 16.962891 -45.834961C16.962891 -45.454102 16.823730 -45.124512 16.545410 -44.846191C16.267090 -44.567871 15.937500 -44.428711 15.556641 -44.428711L14.326172 -44.428711C14.277344 -44.428711 14.213867 -44.421387 14.135742 -44.406738C14.057617 -44.392090 13.952637 -44.326172 13.820801 -44.208984C13.688965 -44.091797 13.623047 -43.935547 13.623047 -43.740234L13.623047 -32.050781C13.623047 -31.777344 13.684082 -31.572266 13.806152 -31.435547C13.928223 -31.298828 14.035645 -31.225586 14.128418 -31.215820C14.221191 -31.206055 14.326172 -31.206055 14.443359 -31.215820C15.781250 -31.508789 16.921387 -32.058105 17.863770 -32.863770C18.806152 -33.669434 19.438477 -34.677734 19.760742 -35.888672L19.057617 -35.317383C18.930664 -35.219727 18.796387 -35.180664 18.654785 -35.200195C18.513184 -35.219727 18.388672 -35.283203 18.281250 -35.390625C18.115234 -35.634766 18.115234 -35.869141 18.281250 -36.093750L20.610352 -38.979492L21.254883 -39.799805L24.331055 -36.123047C24.428711 -35.996094 24.470215 -35.844727 24.455566 -35.668945C24.440918 -35.493164 24.370117 -35.351562 24.243164 -35.244141C24.125977 -35.146484 23.989258 -35.097656 23.833008 -35.097656C23.676758 -35.097656 23.544922 -35.146484 23.437500 -35.244141L22.543945 -36.005859C22.211914 -33.955078 21.340332 -32.165527 19.929199 -30.637207C18.518066 -29.108887 16.811523 -28.085938 14.809570 -27.568359C14.790039 -27.548828 14.770508 -27.539062 14.750977 -27.539062C14.467773 -27.470703 14.221191 -27.343750 14.011230 -27.158203C13.801270 -26.972656 13.662109 -26.757812 13.593750 -26.513672C13.515625 -26.201172 13.349609 -25.944824 13.095703 -25.744629C12.841797 -25.544434 12.548828 -25.444336 12.216797 -25.444336C11.894531 -25.444336 11.608887 -25.544434 11.359863 -25.744629C11.110840 -25.944824 10.947266 -26.201172 10.869141 -26.513672C10.800781 -26.757812 10.661621 -26.972656 10.451660 -27.158203C10.241699 -27.343750 9.995117 -27.470703 9.711914 -27.539062C9.682617 -27.539062 9.658203 -27.548828 9.638672 -27.568359C7.636719 -28.085938 5.930176 -29.108887 4.519043 -30.637207C3.107910 -32.165527 2.236328 -33.955078 1.904297 -36.005859L1.025391 -35.244141C0.898438 -35.136719 0.747070 -35.090332 0.571289 -35.104980C0.395508 -35.119629 0.249023 -35.195312 0.131836 -35.332031C0.034180 -35.449219 -0.014648 -35.583496 -0.014648 -35.734863ZM10.502930 -51.445312C10.502930 -51.064453 10.605469 -50.722656 10.810547 -50.419922L10.810547 -50.566406C10.810547 -50.957031 10.947266 -51.289062 11.220703 -51.562500C11.494141 -51.835938 11.826172 -51.972656 12.216797 -51.972656C12.607422 -51.972656 12.939453 -51.838379 13.212891 -51.569824C13.486328 -51.301270 13.623047 -50.966797 13.623047 -50.566406L13.623047 -50.419922C13.847656 -50.732422 13.959961 -51.074219 13.959961 -51.445312C13.959961 -51.914062 13.789062 -52.314453 13.447266 -52.646484C13.105469 -52.978516 12.695312 -53.144531 12.216797 -53.144531C11.738281 -53.144531 11.333008 -52.978516 11.000977 -52.646484C10.668945 -52.314453 10.502930 -51.914062 10.502930 -51.445312ZM10.502930 -51.445312"></path></svg>