<svg width="26.865234" height="26.882324" viewBox="-0.112305 -51.508789 26.865234 26.882324" xmlns="http://www.w3.org/2000/svg"><path d="M6.899414 -37.590332L7.236328 -37.136230C7.451172 -36.833496 7.785645 -36.416016 8.239746 -35.883789C8.693848 -35.351562 9.155273 -34.851074 9.624023 -34.382324C10.668945 -33.337402 11.743164 -32.434082 12.846680 -31.672363L6.166992 -24.978027C5.815430 -24.626465 5.234375 -24.665527 4.423828 -25.095215C3.613281 -25.524902 2.839355 -26.113281 2.102051 -26.860352C1.364746 -27.607422 0.783691 -28.391113 0.358887 -29.211426C-0.065918 -30.031738 -0.112305 -30.607910 0.219727 -30.939941ZM8.349609 -38.037109C8.193359 -38.510742 8.227539 -38.854980 8.452148 -39.069824C8.676758 -39.294434 8.906250 -39.704590 9.140625 -40.300293C9.375000 -40.895996 9.545898 -41.501465 9.653320 -42.116699L9.770508 -42.731934C9.877930 -43.347168 10.178223 -43.967285 10.671387 -44.592285C11.164551 -45.217285 11.694336 -45.651855 12.260742 -45.895996L24.169922 -51.213379C24.746094 -51.457520 25.083008 -51.508789 25.180664 -51.367188C25.278320 -51.225586 25.102539 -50.930176 24.653320 -50.480957L18.559570 -44.416504C17.709961 -43.547363 17.182617 -43.015137 16.977539 -42.819824C16.557617 -43.024902 16.101074 -43.088379 15.607910 -43.010254C15.114746 -42.932129 14.692383 -42.722168 14.340820 -42.380371C13.891602 -41.931152 13.666992 -41.389160 13.666992 -40.754395C13.666992 -40.119629 13.891602 -39.572754 14.340820 -39.113770C14.799805 -38.654785 15.346680 -38.425293 15.981445 -38.425293C16.616211 -38.425293 17.158203 -38.654785 17.607422 -39.113770C17.949219 -39.455566 18.161621 -39.870605 18.244629 -40.358887C18.327637 -40.847168 18.266602 -41.301270 18.061523 -41.721191C18.344727 -42.014160 18.872070 -42.546387 19.643555 -43.317871L25.737305 -49.411621C26.186523 -49.860840 26.479492 -50.036621 26.616211 -49.938965C26.752930 -49.841309 26.699219 -49.504395 26.455078 -48.928223L21.137695 -37.004395C20.883789 -36.437988 20.446777 -35.913086 19.826660 -35.429688C19.206543 -34.946289 18.583984 -34.650879 17.958984 -34.543457L17.358398 -34.426270C16.743164 -34.318848 16.137695 -34.147949 15.541992 -33.913574C14.946289 -33.679199 14.536133 -33.449707 14.311523 -33.225098C14.086914 -33.000488 13.742676 -32.966309 13.278809 -33.122559C12.814941 -33.278809 12.358398 -33.581543 11.909180 -34.030762L9.257812 -36.652832C8.808594 -37.102051 8.505859 -37.563477 8.349609 -38.037109ZM8.349609 -38.037109"></path></svg>