<svg width="28.125000" height="28.125000" viewBox="0.000000 -52.895508 28.125000 28.125000" xmlns="http://www.w3.org/2000/svg"><path d="M0.000000 -38.833008C0.000000 -40.737305 0.371094 -42.558594 1.113281 -44.296875C1.855469 -46.035156 2.854004 -47.531738 4.108887 -48.786621C5.363770 -50.041504 6.857910 -51.040039 8.591309 -51.782227C10.324707 -52.524414 12.148438 -52.895508 14.062500 -52.895508C15.966797 -52.895508 17.788086 -52.524414 19.526367 -51.782227C21.264648 -51.040039 22.761230 -50.041504 24.016113 -48.786621C25.270996 -47.531738 26.269531 -46.035156 27.011719 -44.296875C27.753906 -42.558594 28.125000 -40.737305 28.125000 -38.833008C28.125000 -36.928711 27.753906 -35.107422 27.011719 -33.369141C26.269531 -31.630859 25.270996 -30.134277 24.016113 -28.879395C22.761230 -27.624512 21.264648 -26.625977 19.526367 -25.883789C17.788086 -25.141602 15.966797 -24.770508 14.062500 -24.770508C12.148438 -24.770508 10.324707 -25.141602 8.591309 -25.883789C6.857910 -26.625977 5.363770 -27.624512 4.108887 -28.879395C2.854004 -30.134277 1.855469 -31.630859 1.113281 -33.369141C0.371094 -35.107422 0.000000 -36.928711 0.000000 -38.833008ZM10.004883 -44.106445L10.927734 -41.059570C11.845703 -41.645508 12.768555 -41.938477 13.696289 -41.938477C14.692383 -41.938477 15.190430 -41.713867 15.190430 -41.264648C15.190430 -41.176758 15.173340 -41.096191 15.139160 -41.022949C15.104980 -40.949707 15.043945 -40.876465 14.956055 -40.803223C14.868164 -40.729980 14.797363 -40.676270 14.743652 -40.642090C14.689941 -40.607910 14.589844 -40.551758 14.443359 -40.473633C14.296875 -40.395508 14.204102 -40.346680 14.165039 -40.327148L12.963867 -39.697266C12.534180 -39.462891 12.258301 -39.213867 12.136230 -38.950195C12.014160 -38.686523 11.953125 -38.320312 11.953125 -37.851562L11.953125 -36.723633L15.454102 -36.723633L15.454102 -37.192383C15.454102 -37.338867 15.456543 -37.441406 15.461426 -37.500000C15.466309 -37.558594 15.490723 -37.619629 15.534668 -37.683105C15.578613 -37.746582 15.644531 -37.797852 15.732422 -37.836914C15.742188 -37.836914 15.847168 -37.885742 16.047363 -37.983398C16.247559 -38.081055 16.423340 -38.166504 16.574707 -38.239746C16.726074 -38.312988 16.909180 -38.417969 17.124023 -38.554688C17.338867 -38.691406 17.519531 -38.823242 17.666016 -38.950195C18.056641 -39.282227 18.354492 -39.648438 18.559570 -40.048828C18.764648 -40.449219 18.867188 -41.005859 18.867188 -41.718750C18.867188 -42.705078 18.449707 -43.535156 17.614746 -44.208984C16.779785 -44.882812 15.722656 -45.219727 14.443359 -45.219727C12.734375 -45.219727 11.254883 -44.848633 10.004883 -44.106445ZM11.440430 -34.101562C11.440430 -33.466797 11.645508 -32.976074 12.055664 -32.629395C12.465820 -32.282715 13.017578 -32.109375 13.710938 -32.109375C14.384766 -32.109375 14.926758 -32.282715 15.336914 -32.629395C15.747070 -32.976074 15.952148 -33.466797 15.952148 -34.101562C15.952148 -34.736328 15.747070 -35.229492 15.336914 -35.581055C14.926758 -35.932617 14.384766 -36.108398 13.710938 -36.108398C13.017578 -36.108398 12.465820 -35.932617 12.055664 -35.581055C11.645508 -35.229492 11.440430 -34.736328 11.440430 -34.101562ZM11.440430 -34.101562"></path></svg>