<svg width="27.944336" height="29.746094" viewBox="0.000000 -55.244141 27.944336 29.746094" xmlns="http://www.w3.org/2000/svg"><path d="M0.000000 -28.676758C0.673828 -29.077148 1.259766 -29.543457 1.757812 -30.075684C2.255859 -30.607910 2.653809 -31.147461 2.951660 -31.694336C3.249512 -32.241211 3.518066 -32.810059 3.757324 -33.400879C3.996582 -33.991699 4.235840 -34.580078 4.475098 -35.166016C4.714355 -35.751953 4.982910 -36.320801 5.280762 -36.872559C5.578613 -37.424316 5.979004 -37.963867 6.481934 -38.491211C6.984863 -39.018555 7.573242 -39.487305 8.247070 -39.897461C9.321289 -40.532227 10.463867 -40.849609 11.674805 -40.849609C12.836914 -40.849609 13.947754 -40.559082 15.007324 -39.978027C16.066895 -39.396973 16.948242 -38.588867 17.651367 -37.553711C18.403320 -36.430664 18.786621 -35.212402 18.801270 -33.898926C18.815918 -32.585449 18.513184 -31.362305 17.893066 -30.229492C17.272949 -29.096680 16.425781 -28.139648 15.351562 -27.358398C14.589844 -26.811523 13.518066 -26.364746 12.136230 -26.018066C10.754395 -25.671387 9.316406 -25.498047 7.822266 -25.498047C6.074219 -25.498047 4.494629 -25.756836 3.083496 -26.274414C1.672363 -26.791992 0.644531 -27.592773 0.000000 -28.676758ZM4.057617 -28.706055C5.063477 -28.315430 6.318359 -28.120117 7.822266 -28.120117C9.091797 -28.120117 10.288086 -28.256836 11.411133 -28.530273C12.534180 -28.803711 13.339844 -29.121094 13.828125 -29.482422C14.521484 -29.980469 15.078125 -30.598145 15.498047 -31.335449C15.917969 -32.072754 16.147461 -32.854004 16.186523 -33.679199C16.225586 -34.504395 15.991211 -35.302734 15.483398 -36.074219C15.024414 -36.757812 14.460449 -37.287598 13.791504 -37.663574C13.122559 -38.039551 12.416992 -38.227539 11.674805 -38.227539C10.961914 -38.227539 10.268555 -38.032227 9.594727 -37.641602C9.174805 -37.387695 8.811035 -37.114258 8.503418 -36.821289C8.195801 -36.528320 7.922363 -36.174316 7.683105 -35.759277C7.443848 -35.344238 7.253418 -34.980469 7.111816 -34.667969C6.970215 -34.355469 6.782227 -33.901367 6.547852 -33.305664C6.293945 -32.651367 6.086426 -32.138672 5.925293 -31.767578C5.764160 -31.396484 5.512695 -30.910645 5.170898 -30.310059C4.829102 -29.709473 4.458008 -29.174805 4.057617 -28.706055ZM12.626953 -42.299805L14.838867 -45.639648C16.245117 -45.297852 17.539062 -44.736328 18.720703 -43.955078C19.892578 -43.164062 20.893555 -42.207031 21.723633 -41.083984L19.482422 -37.729492C18.730469 -39.008789 17.768555 -40.043945 16.596680 -40.834961C15.424805 -41.606445 14.101562 -42.094727 12.626953 -42.299805ZM15.717773 -46.958008L20.712891 -54.399414C20.986328 -54.799805 21.354980 -55.048828 21.818848 -55.146484C22.282715 -55.244141 22.714844 -55.166016 23.115234 -54.912109L27.099609 -52.260742C27.500000 -51.987305 27.749023 -51.618652 27.846680 -51.154785C27.944336 -50.690918 27.856445 -50.258789 27.583008 -49.858398L22.617188 -42.402344C21.767578 -43.544922 20.756836 -44.506836 19.584961 -45.288086C18.413086 -46.079102 17.124023 -46.635742 15.717773 -46.958008ZM15.717773 -46.958008"></path></svg>