<svg width="18.984375" height="27.260742" viewBox="4.555664 -51.606445 18.984375 27.260742" xmlns="http://www.w3.org/2000/svg"><path d="M4.555664 -29.729004C4.555664 -31.218262 5.078125 -32.490234 6.123047 -33.544922C7.177734 -34.589844 8.447266 -35.112305 9.931641 -35.112305C11.416016 -35.112305 12.685547 -34.589844 13.740234 -33.544922C14.794922 -32.490234 15.322266 -31.218262 15.322266 -29.729004C15.322266 -28.239746 14.794922 -26.972656 13.740234 -25.927734C12.685547 -24.873047 11.416016 -24.345703 9.931641 -24.345703C8.447266 -24.345703 7.177734 -24.873047 6.123047 -25.927734C5.078125 -26.972656 4.555664 -28.239746 4.555664 -29.729004ZM12.788086 -46.223145C12.788086 -47.712402 13.315430 -48.979492 14.370117 -50.024414C15.415039 -51.079102 16.679688 -51.606445 18.164062 -51.606445C19.648438 -51.606445 20.913086 -51.079102 21.958008 -50.024414C23.012695 -48.979492 23.540039 -47.712402 23.540039 -46.223145C23.540039 -44.733887 23.012695 -43.466797 21.958008 -42.421875C20.913086 -41.367188 19.648438 -40.839844 18.164062 -40.839844C16.679688 -40.839844 15.415039 -41.367188 14.370117 -42.421875C13.315430 -43.466797 12.788086 -44.733887 12.788086 -46.223145ZM12.788086 -46.223145"></path></svg>