<svg width="26.826172" height="26.767578" viewBox="-0.122070 -50.351562 26.826172 26.767578" xmlns="http://www.w3.org/2000/svg"><path d="M0.249023 -35.747070C0.053711 -37.739258 0.288086 -39.670410 0.952148 -41.540527C1.616211 -43.410645 2.656250 -45.048828 4.072266 -46.455078C5.341797 -47.724609 6.801758 -48.691406 8.452148 -49.355469C10.102539 -50.019531 11.762695 -50.351562 13.432617 -50.351562C15.102539 -50.351562 16.765137 -50.019531 18.420410 -49.355469C20.075684 -48.691406 21.538086 -47.724609 22.807617 -46.455078C24.077148 -45.185547 25.043945 -43.725586 25.708008 -42.075195C26.372070 -40.424805 26.704102 -38.764648 26.704102 -37.094727C26.704102 -35.424805 26.372070 -33.762207 25.708008 -32.106934C25.043945 -30.451660 24.077148 -28.989258 22.807617 -27.719727C21.567383 -26.479492 20.134277 -25.524902 18.508301 -24.855957C16.882324 -24.187012 15.190430 -23.852539 13.432617 -23.852539C13.178711 -23.852539 12.797852 -23.872070 12.290039 -23.911133L11.601562 -23.969727C10.820312 -23.754883 10.043945 -23.647461 9.272461 -23.647461C8.637695 -23.647461 7.915039 -23.740234 7.104492 -23.925781C6.196289 -23.623047 5.249023 -23.583984 4.262695 -23.808594C3.276367 -24.033203 2.426758 -24.501953 1.713867 -25.214844C1.030273 -25.898438 0.568848 -26.706543 0.329590 -27.639160C0.090332 -28.571777 0.102539 -29.477539 0.366211 -30.356445C-0.102539 -31.977539 -0.122070 -33.618164 0.307617 -35.278320ZM2.534180 -33.330078C3.549805 -34.023438 4.685059 -34.311523 5.939941 -34.194336C7.194824 -34.077148 8.271484 -33.569336 9.169922 -32.670898C10.039062 -31.801758 10.544434 -30.759277 10.686035 -29.543457C10.827637 -28.327637 10.585938 -27.211914 9.960938 -26.196289C11.572266 -26.362305 12.934570 -27.016602 14.047852 -28.159180C15.375977 -29.467773 16.040039 -31.059570 16.040039 -32.934570C16.040039 -34.809570 15.375977 -36.401367 14.047852 -37.709961C12.719727 -39.038086 11.127930 -39.702148 9.272461 -39.702148C7.407227 -39.702148 5.810547 -39.038086 4.482422 -37.709961C3.271484 -36.518555 2.622070 -35.058594 2.534180 -33.330078ZM3.046875 -39.790039C4.804688 -41.401367 6.879883 -42.207031 9.272461 -42.207031C10.473633 -42.207031 11.643066 -41.977539 12.780762 -41.518555C13.918457 -41.059570 14.931641 -40.385742 15.820312 -39.497070C16.972656 -38.344727 17.766113 -36.999512 18.200684 -35.461426C18.635254 -33.923340 18.669434 -32.377930 18.303223 -30.825195C17.937012 -29.272461 17.211914 -27.895508 16.127930 -26.694336C18.002930 -27.172852 19.633789 -28.105469 21.020508 -29.492188C22.026367 -30.498047 22.802734 -31.660156 23.349609 -32.978516C23.896484 -34.296875 24.169922 -35.668945 24.169922 -37.094727C24.169922 -38.520508 23.898926 -39.890137 23.356934 -41.203613C22.814941 -42.517090 22.036133 -43.681641 21.020508 -44.697266C20.004883 -45.712891 18.847656 -46.489258 17.548828 -47.026367C16.250000 -47.563477 14.877930 -47.832031 13.432617 -47.832031C12.006836 -47.832031 10.637207 -47.561035 9.323730 -47.019043C8.010254 -46.477051 6.850586 -45.703125 5.844727 -44.697266C4.467773 -43.320312 3.535156 -41.684570 3.046875 -39.790039ZM3.046875 -39.790039"></path></svg>