<svg width="27.709961" height="31.608887" viewBox="-0.141602 -57.944336 27.709961 31.608887" xmlns="http://www.w3.org/2000/svg"><path d="M0.102539 -49.787598C-0.141602 -50.773926 0.029297 -51.555176 0.615234 -52.131348L6.064453 -57.580566L6.064453 -57.551270C6.474609 -57.932129 7.138672 -57.944336 8.056641 -57.587891C8.974609 -57.231445 9.877930 -56.608887 10.766602 -55.720215C11.479492 -55.007324 12.026367 -54.270020 12.407227 -53.508301C12.788086 -52.746582 12.939453 -52.111816 12.861328 -51.604004L12.861328 -45.231934C12.861328 -44.880371 12.734375 -44.577637 12.480469 -44.323730C12.226562 -44.069824 11.918945 -43.942871 11.557617 -43.942871C11.206055 -43.942871 10.903320 -44.069824 10.649414 -44.323730C10.395508 -44.577637 10.268555 -44.880371 10.268555 -45.231934L10.268555 -48.645020L7.177734 -45.568848C6.777344 -45.168457 6.259766 -44.968262 5.625000 -44.968262C5.234375 -44.968262 4.814453 -45.051270 4.365234 -45.217285C3.505859 -45.539551 2.685547 -46.091309 1.904297 -46.872559C0.947266 -47.829590 0.346680 -48.801270 0.102539 -49.787598ZM2.607422 -50.476074C2.675781 -49.987793 3.056641 -49.396973 3.750000 -48.703613C4.423828 -48.020020 5.009766 -47.639160 5.507812 -47.561035L9.477539 -51.516113C8.989258 -51.809082 8.447266 -52.238770 7.851562 -52.805176C7.314453 -53.381348 6.884766 -53.923340 6.562500 -54.431152ZM9.799805 -35.227051C9.799805 -36.428223 10.034180 -37.578125 10.502930 -38.676758C10.971680 -39.775391 11.601562 -40.720215 12.392578 -41.511230C13.183594 -42.302246 14.128418 -42.932129 15.227051 -43.400879C16.325684 -43.869629 17.475586 -44.104004 18.676758 -44.104004C20.288086 -44.104004 21.774902 -43.708496 23.137207 -42.917480C24.499512 -42.126465 25.578613 -41.049805 26.374512 -39.687500C27.170410 -38.325195 27.568359 -36.838379 27.568359 -35.227051C27.568359 -33.615723 27.170410 -32.126465 26.374512 -30.759277C25.578613 -29.392090 24.499512 -28.312988 23.137207 -27.521973C21.774902 -26.730957 20.288086 -26.335449 18.676758 -26.335449C17.475586 -26.335449 16.325684 -26.569824 15.227051 -27.038574C14.128418 -27.507324 13.183594 -28.137207 12.392578 -28.928223C11.601562 -29.719238 10.971680 -30.664062 10.502930 -31.762695C10.034180 -32.861328 9.799805 -34.016113 9.799805 -35.227051ZM9.799805 -35.227051"></path></svg>