<svg width="27.583008" height="27.597656" viewBox="0.000000 -52.104492 27.583008 27.597656" xmlns="http://www.w3.org/2000/svg"><path d="M0.000000 -29.919434C0.000000 -31.418457 0.532227 -32.700195 1.596680 -33.764648C2.651367 -34.809570 3.930664 -35.332031 5.434570 -35.332031C6.303711 -35.332031 7.114258 -35.141602 7.866211 -34.760742L17.490234 -44.340820C17.089844 -45.112305 16.889648 -45.927734 16.889648 -46.787109C16.889648 -48.261719 17.412109 -49.516602 18.457031 -50.551758C19.501953 -51.586914 20.766602 -52.104492 22.250977 -52.104492C23.725586 -52.104492 24.982910 -51.586914 26.022949 -50.551758C27.062988 -49.516602 27.583008 -48.261719 27.583008 -46.787109C27.583008 -45.312500 27.062988 -44.055176 26.022949 -43.015137C24.982910 -41.975098 23.725586 -41.455078 22.250977 -41.455078C21.479492 -41.455078 20.727539 -41.625977 19.995117 -41.967773L10.312500 -32.329102C10.839844 -31.333008 11.013184 -30.251465 10.832520 -29.084473C10.651855 -27.917480 10.136719 -26.918945 9.287109 -26.088867C8.232422 -25.034180 6.948242 -24.506836 5.434570 -24.506836C3.950195 -24.506836 2.670898 -25.034180 1.596680 -26.088867C0.532227 -27.143555 0.000000 -28.420410 0.000000 -29.919434ZM0.703125 -49.306641L2.768555 -51.372070L13.505859 -46.494141L14.516602 -46.069336L13.945312 -45.527344L12.304688 -43.901367L9.990234 -45.014648L6.958008 -41.982422L8.071289 -39.653320L6.005859 -37.587891ZM2.592773 -29.926758C2.592773 -29.135742 2.866211 -28.466797 3.413086 -27.919922C3.989258 -27.363281 4.663086 -27.084961 5.434570 -27.084961C6.235352 -27.084961 6.914062 -27.363281 7.470703 -27.919922C8.017578 -28.466797 8.291016 -29.135742 8.291016 -29.926758C8.291016 -30.717773 8.017578 -31.386719 7.470703 -31.933594C6.914062 -32.490234 6.235352 -32.768555 5.434570 -32.768555C4.663086 -32.768555 3.989258 -32.490234 3.413086 -31.933594C2.866211 -31.386719 2.592773 -30.717773 2.592773 -29.926758ZM3.867188 -48.090820L5.859375 -43.989258L7.983398 -46.098633ZM19.482422 -46.787109C19.482422 -46.035156 19.753418 -45.388184 20.295410 -44.846191C20.837402 -44.304199 21.489258 -44.033203 22.250977 -44.033203C23.012695 -44.033203 23.662109 -44.304199 24.199219 -44.846191C24.736328 -45.388184 25.004883 -46.035156 25.004883 -46.787109C25.004883 -47.548828 24.736328 -48.195801 24.199219 -48.728027C23.662109 -49.260254 23.012695 -49.526367 22.250977 -49.526367C21.489258 -49.526367 20.837402 -49.260254 20.295410 -48.728027C19.753418 -48.195801 19.482422 -47.548828 19.482422 -46.787109ZM19.482422 -46.787109"></path></svg>