<svg width="28.125000" height="28.125000" viewBox="0.000000 -52.895508 28.125000 28.125000" xmlns="http://www.w3.org/2000/svg"><path d="M0.000000 -30.249023C0.000000 -31.762695 0.532227 -33.051758 1.596680 -34.116211C2.661133 -35.180664 3.950195 -35.712891 5.463867 -35.712891C6.977539 -35.712891 8.266602 -35.180664 9.331055 -34.116211C10.395508 -33.051758 10.927734 -31.762695 10.927734 -30.249023C10.927734 -28.735352 10.393066 -27.443848 9.323730 -26.374512C8.254395 -25.305176 6.967773 -24.770508 5.463867 -24.770508C3.959961 -24.770508 2.673340 -25.305176 1.604004 -26.374512C0.534668 -27.443848 0.000000 -28.735352 0.000000 -30.249023ZM2.666016 -30.249023C2.666016 -29.477539 2.939453 -28.818359 3.486328 -28.271484C4.033203 -27.724609 4.692383 -27.451172 5.463867 -27.451172C6.235352 -27.451172 6.892090 -27.724609 7.434082 -28.271484C7.976074 -28.818359 8.247070 -29.477539 8.247070 -30.249023C8.247070 -31.020508 7.976074 -31.679688 7.434082 -32.226562C6.892090 -32.773438 6.235352 -33.046875 5.463867 -33.046875C4.692383 -33.046875 4.033203 -32.773438 3.486328 -32.226562C2.939453 -31.679688 2.666016 -31.020508 2.666016 -30.249023ZM9.243164 -36.533203L16.186523 -43.608398L14.765625 -45.000000C14.541016 -45.214844 14.453125 -45.422363 14.501953 -45.622559C14.550781 -45.822754 14.721680 -45.957031 15.014648 -46.025391L22.763672 -47.915039C22.958984 -47.944336 23.110352 -47.905273 23.217773 -47.797852C23.266602 -47.749023 23.300781 -47.687988 23.320312 -47.614746C23.339844 -47.541504 23.349609 -47.480469 23.349609 -47.431641L23.334961 -47.343750L21.591797 -39.565430C21.533203 -39.272461 21.408691 -39.099121 21.218262 -39.045410C21.027832 -38.991699 20.820312 -39.072266 20.595703 -39.287109L18.662109 -41.176758L11.718750 -34.101562C11.357422 -34.667969 10.996094 -35.126953 10.634766 -35.478516C10.292969 -35.820312 9.829102 -36.171875 9.243164 -36.533203ZM17.534180 -49.306641C17.924805 -50.371094 18.586426 -51.235352 19.519043 -51.899414C20.451660 -52.563477 21.499023 -52.895508 22.661133 -52.895508C24.174805 -52.895508 25.463867 -52.363281 26.528320 -51.298828C27.592773 -50.234375 28.125000 -48.950195 28.125000 -47.446289C28.125000 -46.352539 27.829590 -45.356445 27.238770 -44.458008C26.647949 -43.559570 25.874023 -42.895508 24.916992 -42.465820L25.883789 -46.772461L25.898438 -46.918945C25.976562 -47.436523 25.942383 -47.937012 25.795898 -48.420410C25.649414 -48.903809 25.400391 -49.316406 25.048828 -49.658203C24.453125 -50.234375 23.725586 -50.522461 22.866211 -50.522461L22.836914 -50.522461L22.294922 -50.478516L22.177734 -50.434570ZM17.534180 -49.306641"></path></svg>