<svg width="14.868164" height="24.536133" viewBox="0.000000 -47.431641 14.868164 24.536133" xmlns="http://www.w3.org/2000/svg"><path d="M0.000000 -24.733887C0.000000 -25.236816 0.180664 -25.668945 0.541992 -26.030273L9.682617 -35.156250L0.541992 -44.296875C0.180664 -44.658203 0.000000 -45.090332 0.000000 -45.593262C0.000000 -46.096191 0.180664 -46.528320 0.541992 -46.889648C0.903320 -47.250977 1.337891 -47.431641 1.845703 -47.431641C2.353516 -47.431641 2.788086 -47.250977 3.149414 -46.889648L14.868164 -35.156250L3.149414 -23.437500C2.768555 -23.076172 2.333984 -22.895508 1.845703 -22.895508C1.357422 -22.895508 0.922852 -23.076172 0.541992 -23.437500C0.180664 -23.798828 0.000000 -24.230957 0.000000 -24.733887ZM0.000000 -24.733887"></path></svg>