<svg width="14.853516" height="24.536133" viewBox="0.000000 -47.607422 14.853516 24.536133" xmlns="http://www.w3.org/2000/svg"><path d="M0.000000 -35.332031L11.733398 -47.065430C12.094727 -47.426758 12.524414 -47.607422 13.022461 -47.607422C13.510742 -47.607422 13.945312 -47.426758 14.326172 -47.065430C14.677734 -46.704102 14.853516 -46.269531 14.853516 -45.761719C14.853516 -45.253906 14.677734 -44.819336 14.326172 -44.458008L5.185547 -35.332031L14.326172 -26.191406C14.677734 -25.839844 14.853516 -25.410156 14.853516 -24.902344C14.853516 -24.394531 14.677734 -23.959961 14.326172 -23.598633C13.964844 -23.247070 13.530273 -23.071289 13.022461 -23.071289C12.514648 -23.071289 12.084961 -23.247070 11.733398 -23.598633ZM0.000000 -35.332031"></path></svg>