<svg width="28.125000" height="28.051758" viewBox="0.000000 -52.792969 28.125000 28.051758" xmlns="http://www.w3.org/2000/svg"><path d="M0.000000 -26.293945L0.000000 -34.877930C0.000000 -35.307617 0.153809 -35.676270 0.461426 -35.983887C0.769043 -36.291504 1.132812 -36.445312 1.552734 -36.445312L10.151367 -36.445312C10.571289 -36.445312 10.935059 -36.291504 11.242676 -35.983887C11.550293 -35.676270 11.704102 -35.307617 11.704102 -34.877930L11.704102 -26.293945C11.704102 -25.864258 11.550293 -25.498047 11.242676 -25.195312C10.935059 -24.892578 10.571289 -24.741211 10.151367 -24.741211L1.552734 -24.741211C1.123047 -24.741211 0.756836 -24.892578 0.454102 -25.195312C0.151367 -25.498047 0.000000 -25.864258 0.000000 -26.293945ZM0.000000 -42.656250L0.000000 -51.240234C0.000000 -51.660156 0.151367 -52.023926 0.454102 -52.331543C0.756836 -52.639160 1.123047 -52.792969 1.552734 -52.792969L10.151367 -52.792969C10.571289 -52.792969 10.935059 -52.639160 11.242676 -52.331543C11.550293 -52.023926 11.704102 -51.660156 11.704102 -51.240234L11.704102 -42.656250C11.704102 -42.226562 11.550293 -41.857910 11.242676 -41.550293C10.935059 -41.242676 10.571289 -41.088867 10.151367 -41.088867L1.552734 -41.088867C1.132812 -41.088867 0.769043 -41.242676 0.461426 -41.550293C0.153809 -41.857910 0.000000 -42.226562 0.000000 -42.656250ZM2.651367 -27.377930L9.052734 -27.377930L9.052734 -33.793945L2.651367 -33.793945ZM2.651367 -43.740234L9.052734 -43.740234L9.052734 -50.156250L2.651367 -50.156250ZM16.420898 -26.293945L16.420898 -34.877930C16.420898 -35.307617 16.574707 -35.676270 16.882324 -35.983887C17.189941 -36.291504 17.553711 -36.445312 17.973633 -36.445312L26.572266 -36.445312C26.992188 -36.445312 27.355957 -36.291504 27.663574 -35.983887C27.971191 -35.676270 28.125000 -35.307617 28.125000 -34.877930L28.125000 -26.293945C28.125000 -25.864258 27.973633 -25.498047 27.670898 -25.195312C27.368164 -24.892578 27.001953 -24.741211 26.572266 -24.741211L17.973633 -24.741211C17.553711 -24.741211 17.189941 -24.892578 16.882324 -25.195312C16.574707 -25.498047 16.420898 -25.864258 16.420898 -26.293945ZM16.420898 -42.656250L16.420898 -51.240234C16.420898 -51.660156 16.574707 -52.023926 16.882324 -52.331543C17.189941 -52.639160 17.553711 -52.792969 17.973633 -52.792969L26.572266 -52.792969C27.001953 -52.792969 27.368164 -52.639160 27.670898 -52.331543C27.973633 -52.023926 28.125000 -51.660156 28.125000 -51.240234L28.125000 -42.656250C28.125000 -42.226562 27.971191 -41.857910 27.663574 -41.550293C27.355957 -41.242676 26.992188 -41.088867 26.572266 -41.088867L17.973633 -41.088867C17.553711 -41.088867 17.189941 -41.242676 16.882324 -41.550293C16.574707 -41.857910 16.420898 -42.226562 16.420898 -42.656250ZM19.072266 -27.377930L25.502930 -27.377930L25.502930 -33.793945L19.072266 -33.793945ZM19.072266 -43.740234L25.502930 -43.740234L25.502930 -50.156250L19.072266 -50.156250ZM19.072266 -43.740234"></path></svg>