<svg width="22.060547" height="24.609375" viewBox="0.000000 -47.622070 22.060547 24.609375" xmlns="http://www.w3.org/2000/svg"><path d="M0.000000 -24.960938C0.000000 -24.423828 0.185547 -23.964844 0.556641 -23.583984C0.927734 -23.203125 1.381836 -23.012695 1.918945 -23.012695L5.727539 -23.012695C6.264648 -23.012695 6.718750 -23.203125 7.089844 -23.583984C7.460938 -23.964844 7.646484 -24.423828 7.646484 -24.960938L7.646484 -45.703125C7.646484 -46.240234 7.460938 -46.694336 7.089844 -47.065430C6.718750 -47.436523 6.264648 -47.622070 5.727539 -47.622070L1.918945 -47.622070C1.381836 -47.622070 0.927734 -47.436523 0.556641 -47.065430C0.185547 -46.694336 0.000000 -46.240234 0.000000 -45.703125ZM14.399414 -24.960938C14.399414 -24.423828 14.587402 -23.964844 14.963379 -23.583984C15.339355 -23.203125 15.791016 -23.012695 16.318359 -23.012695L20.141602 -23.012695C20.668945 -23.012695 21.120605 -23.203125 21.496582 -23.583984C21.872559 -23.964844 22.060547 -24.423828 22.060547 -24.960938L22.060547 -45.703125C22.060547 -46.240234 21.872559 -46.694336 21.496582 -47.065430C21.120605 -47.436523 20.668945 -47.622070 20.141602 -47.622070L16.318359 -47.622070C15.791016 -47.622070 15.339355 -47.436523 14.963379 -47.065430C14.587402 -46.694336 14.399414 -46.240234 14.399414 -45.703125ZM14.399414 -24.960938"></path></svg>