<svg width="28.125000" height="28.125000" viewBox="0.000000 -52.895508 28.125000 28.125000" xmlns="http://www.w3.org/2000/svg"><path d="M0.000000 -42.509766C0.000000 -43.134766 0.239258 -43.669434 0.717773 -44.113770C1.196289 -44.558105 1.767578 -44.780273 2.431641 -44.780273L8.876953 -44.780273L13.798828 -37.309570L16.479492 -52.895508L25.664062 -52.895508C26.347656 -52.895508 26.928711 -52.670898 27.407227 -52.221680C27.885742 -51.772461 28.125000 -51.230469 28.125000 -50.595703C28.125000 -49.960938 27.885742 -49.418945 27.407227 -48.969727C26.928711 -48.520508 26.347656 -48.295898 25.664062 -48.295898L20.551758 -48.295898L16.479492 -24.770508L6.196289 -40.239258L2.431641 -40.239258C1.767578 -40.239258 1.196289 -40.461426 0.717773 -40.905762C0.239258 -41.350098 0.000000 -41.884766 0.000000 -42.509766ZM0.000000 -42.509766"></path></svg>