<svg width="28.125000" height="28.125000" viewBox="0.000000 -52.895508 28.125000 28.125000" xmlns="http://www.w3.org/2000/svg"><path d="M0.000000 -38.833008C0.000000 -40.747070 0.371094 -42.570801 1.113281 -44.304199C1.855469 -46.037598 2.854004 -47.531738 4.108887 -48.786621C5.363770 -50.041504 6.857910 -51.040039 8.591309 -51.782227C10.324707 -52.524414 12.148438 -52.895508 14.062500 -52.895508C15.966797 -52.895508 17.788086 -52.524414 19.526367 -51.782227C21.264648 -51.040039 22.761230 -50.041504 24.016113 -48.786621C25.270996 -47.531738 26.269531 -46.037598 27.011719 -44.304199C27.753906 -42.570801 28.125000 -40.747070 28.125000 -38.833008C28.125000 -36.928711 27.753906 -35.107422 27.011719 -33.369141C26.269531 -31.630859 25.270996 -30.134277 24.016113 -28.879395C22.761230 -27.624512 21.264648 -26.625977 19.526367 -25.883789C17.788086 -25.141602 15.966797 -24.770508 14.062500 -24.770508C12.148438 -24.770508 10.324707 -25.141602 8.591309 -25.883789C6.857910 -26.625977 5.363770 -27.624512 4.108887 -28.879395C2.854004 -30.134277 1.855469 -31.630859 1.113281 -33.369141C0.371094 -35.107422 0.000000 -36.928711 0.000000 -38.833008ZM2.651367 -38.833008C2.651367 -37.290039 2.951660 -35.812988 3.552246 -34.401855C4.152832 -32.990723 4.963379 -31.774902 5.983887 -30.754395C7.004395 -29.733887 8.220215 -28.920898 9.631348 -28.315430C11.042480 -27.709961 12.519531 -27.407227 14.062500 -27.407227C15.605469 -27.407227 17.084961 -27.709961 18.500977 -28.315430C19.916992 -28.920898 21.135254 -29.733887 22.155762 -30.754395C23.176270 -31.774902 23.989258 -32.990723 24.594727 -34.401855C25.200195 -35.812988 25.502930 -37.290039 25.502930 -38.833008C25.502930 -40.375977 25.200195 -41.853027 24.594727 -43.264160C23.989258 -44.675293 23.176270 -45.891113 22.155762 -46.911621C21.135254 -47.932129 19.916992 -48.745117 18.500977 -49.350586C17.084961 -49.956055 15.605469 -50.258789 14.062500 -50.258789C12.519531 -50.258789 11.042480 -49.956055 9.631348 -49.350586C8.220215 -48.745117 7.004395 -47.932129 5.983887 -46.911621C4.963379 -45.891113 4.152832 -44.675293 3.552246 -43.264160C2.951660 -41.853027 2.651367 -40.375977 2.651367 -38.833008ZM6.166992 -39.755859C6.166992 -40.068359 6.284180 -40.336914 6.518555 -40.561523C6.752930 -40.786133 7.036133 -40.898438 7.368164 -40.898438L10.590820 -40.898438L13.037109 -37.163086L14.399414 -44.970703L18.984375 -44.970703C19.326172 -44.970703 19.619141 -44.855957 19.863281 -44.626465C20.107422 -44.396973 20.229492 -44.125977 20.229492 -43.813477C20.229492 -43.500977 20.107422 -43.229980 19.863281 -43.000488C19.619141 -42.770996 19.326172 -42.656250 18.984375 -42.656250L16.435547 -42.656250L14.399414 -30.908203L9.257812 -38.627930L7.368164 -38.627930C7.036133 -38.627930 6.752930 -38.737793 6.518555 -38.957520C6.284180 -39.177246 6.166992 -39.443359 6.166992 -39.755859ZM6.166992 -39.755859"></path></svg>