<svg width="28.125000" height="28.125000" viewBox="0.000000 -52.895508 28.125000 28.125000" xmlns="http://www.w3.org/2000/svg"><path d="M0.000000 -38.833008C0.000000 -40.737305 0.371094 -42.558594 1.113281 -44.296875C1.855469 -46.035156 2.854004 -47.531738 4.108887 -48.786621C5.363770 -50.041504 6.860352 -51.040039 8.598633 -51.782227C10.336914 -52.524414 12.158203 -52.895508 14.062500 -52.895508C15.966797 -52.895508 17.788086 -52.524414 19.526367 -51.782227C21.264648 -51.040039 22.761230 -50.041504 24.016113 -48.786621C25.270996 -47.531738 26.269531 -46.035156 27.011719 -44.296875C27.753906 -42.558594 28.125000 -40.737305 28.125000 -38.833008C28.125000 -36.928711 27.753906 -35.107422 27.011719 -33.369141C26.269531 -31.630859 25.270996 -30.134277 24.016113 -28.879395C22.761230 -27.624512 21.264648 -26.625977 19.526367 -25.883789C17.788086 -25.141602 15.966797 -24.770508 14.062500 -24.770508C12.158203 -24.770508 10.336914 -25.141602 8.598633 -25.883789C6.860352 -26.625977 5.363770 -27.624512 4.108887 -28.879395C2.854004 -30.134277 1.855469 -31.630859 1.113281 -33.369141C0.371094 -35.107422 0.000000 -36.928711 0.000000 -38.833008ZM2.651367 -38.833008C2.651367 -36.762695 3.161621 -34.851074 4.182129 -33.098145C5.202637 -31.345215 6.586914 -29.958496 8.334961 -28.937988C10.083008 -27.917480 11.992188 -27.407227 14.062500 -27.407227C16.132812 -27.407227 18.044434 -27.917480 19.797363 -28.937988C21.550293 -29.958496 22.939453 -31.345215 23.964844 -33.098145C24.990234 -34.851074 25.502930 -36.762695 25.502930 -38.833008C25.502930 -40.375977 25.200195 -41.853027 24.594727 -43.264160C23.989258 -44.675293 23.176270 -45.891113 22.155762 -46.911621C21.135254 -47.932129 19.916992 -48.745117 18.500977 -49.350586C17.084961 -49.956055 15.605469 -50.258789 14.062500 -50.258789C12.519531 -50.258789 11.042480 -49.956055 9.631348 -49.350586C8.220215 -48.745117 7.004395 -47.932129 5.983887 -46.911621C4.963379 -45.891113 4.152832 -44.675293 3.552246 -43.264160C2.951660 -41.853027 2.651367 -40.375977 2.651367 -38.833008ZM6.196289 -44.838867C6.323242 -44.975586 6.552734 -44.980469 6.884766 -44.853516L22.749023 -38.452148C22.963867 -38.374023 23.112793 -38.276367 23.195801 -38.159180C23.278809 -38.041992 23.288574 -37.919922 23.225098 -37.792969C23.161621 -37.666016 23.032227 -37.553711 22.836914 -37.456055L20.009766 -36.093750L18.032227 -32.607422C17.846680 -32.324219 17.609863 -32.167969 17.321777 -32.138672C17.033691 -32.109375 16.767578 -32.216797 16.523438 -32.460938L16.142578 -32.856445C16.113281 -32.885742 16.093750 -32.900391 16.083984 -32.900391L15.219727 -33.779297L13.095703 -32.783203C12.783203 -32.646484 12.460938 -32.639160 12.128906 -32.761230C11.796875 -32.883301 11.552734 -33.100586 11.396484 -33.413086L6.240234 -44.165039C6.083984 -44.477539 6.069336 -44.702148 6.196289 -44.838867ZM9.228516 -42.875977C9.218750 -42.856445 9.243164 -42.810059 9.301758 -42.736816C9.360352 -42.663574 9.453125 -42.568359 9.580078 -42.451172L15.234375 -37.412109C15.507812 -37.177734 15.842285 -37.023926 16.237793 -36.950684C16.633301 -36.877441 16.977539 -36.904297 17.270508 -37.031250C17.573242 -37.158203 17.722168 -37.333984 17.717285 -37.558594C17.712402 -37.783203 17.553711 -37.988281 17.241211 -38.173828L9.726562 -42.656250C9.570312 -42.744141 9.450684 -42.807617 9.367676 -42.846680C9.284668 -42.885742 9.238281 -42.895508 9.228516 -42.875977ZM9.228516 -42.875977"></path></svg>