<svg width="28.125000" height="28.125000" viewBox="0.000000 -52.895508 28.125000 28.125000" xmlns="http://www.w3.org/2000/svg"><path d="M0.000000 -38.833008C0.000000 -40.737305 0.371094 -42.558594 1.113281 -44.296875C1.855469 -46.035156 2.854004 -47.531738 4.108887 -48.786621C5.363770 -50.041504 6.860352 -51.040039 8.598633 -51.782227C10.336914 -52.524414 12.158203 -52.895508 14.062500 -52.895508C15.966797 -52.895508 17.788086 -52.524414 19.526367 -51.782227C21.264648 -51.040039 22.761230 -50.041504 24.016113 -48.786621C25.270996 -47.531738 26.269531 -46.035156 27.011719 -44.296875C27.753906 -42.558594 28.125000 -40.737305 28.125000 -38.833008C28.125000 -36.928711 27.753906 -35.107422 27.011719 -33.369141C26.269531 -31.630859 25.270996 -30.134277 24.016113 -28.879395C22.761230 -27.624512 21.264648 -26.625977 19.526367 -25.883789C17.788086 -25.141602 15.966797 -24.770508 14.062500 -24.770508C12.158203 -24.770508 10.336914 -25.141602 8.598633 -25.883789C6.860352 -26.625977 5.363770 -27.624512 4.108887 -28.879395C2.854004 -30.134277 1.855469 -31.630859 1.113281 -33.369141C0.371094 -35.107422 0.000000 -36.928711 0.000000 -38.833008ZM6.005859 -44.838867C5.878906 -44.702148 5.893555 -44.477539 6.049805 -44.165039L11.206055 -33.413086C11.362305 -33.100586 11.604004 -32.883301 11.931152 -32.761230C12.258301 -32.639160 12.578125 -32.646484 12.890625 -32.783203L15.029297 -33.779297L15.893555 -32.900391L15.937500 -32.856445L16.333008 -32.460938C16.567383 -32.216797 16.831055 -32.109375 17.124023 -32.138672C17.416992 -32.167969 17.651367 -32.324219 17.827148 -32.607422L19.804688 -36.093750L22.631836 -37.456055C22.934570 -37.612305 23.078613 -37.785645 23.063965 -37.976074C23.049316 -38.166504 22.885742 -38.325195 22.573242 -38.452148L6.694336 -44.853516C6.362305 -44.980469 6.132812 -44.975586 6.005859 -44.838867ZM9.023438 -42.875977C9.052734 -42.915039 9.218750 -42.841797 9.521484 -42.656250L17.065430 -38.173828C17.368164 -37.988281 17.521973 -37.783203 17.526855 -37.558594C17.531738 -37.333984 17.387695 -37.158203 17.094727 -37.031250C16.791992 -36.904297 16.442871 -36.877441 16.047363 -36.950684C15.651855 -37.023926 15.317383 -37.177734 15.043945 -37.412109L9.389648 -42.451172C9.116211 -42.695312 8.994141 -42.836914 9.023438 -42.875977ZM9.023438 -42.875977"></path></svg>