<svg width="28.125000" height="28.125000" viewBox="0.000000 -52.895508 28.125000 28.125000" xmlns="http://www.w3.org/2000/svg"><path d="M0.000000 -38.833008C0.000000 -40.737305 0.371094 -42.556152 1.113281 -44.289551C1.855469 -46.022949 2.856445 -47.519531 4.116211 -48.779297C5.375977 -50.039062 6.872559 -51.040039 8.605957 -51.782227C10.339355 -52.524414 12.158203 -52.895508 14.062500 -52.895508C15.966797 -52.895508 17.788086 -52.524414 19.526367 -51.782227C21.264648 -51.040039 22.761230 -50.039062 24.016113 -48.779297C25.270996 -47.519531 26.269531 -46.022949 27.011719 -44.289551C27.753906 -42.556152 28.125000 -40.737305 28.125000 -38.833008C28.125000 -36.928711 27.753906 -35.109863 27.011719 -33.376465C26.269531 -31.643066 25.270996 -30.146484 24.016113 -28.886719C22.761230 -27.626953 21.264648 -26.625977 19.526367 -25.883789C17.788086 -25.141602 15.966797 -24.770508 14.062500 -24.770508C12.158203 -24.770508 10.339355 -25.141602 8.605957 -25.883789C6.872559 -26.625977 5.375977 -27.626953 4.116211 -28.886719C2.856445 -30.146484 1.855469 -31.643066 1.113281 -33.376465C0.371094 -35.109863 0.000000 -36.928711 0.000000 -38.833008ZM11.909180 -32.065430C11.909180 -31.137695 12.233887 -30.349121 12.883301 -29.699707C13.532715 -29.050293 14.321289 -28.725586 15.249023 -28.725586C15.307617 -28.725586 15.415039 -28.715820 15.571289 -28.696289C17.202148 -28.940430 18.684082 -29.536133 20.017090 -30.483398C21.350098 -31.430664 22.402344 -32.636719 23.173828 -34.101562C23.945312 -35.566406 24.331055 -37.143555 24.331055 -38.833008C24.331055 -40.629883 23.896484 -42.299805 23.027344 -43.842773C22.158203 -45.385742 20.974121 -46.623535 19.475098 -47.556152C17.976074 -48.488770 16.333008 -48.999023 14.545898 -49.086914C15.756836 -47.172852 16.362305 -45.078125 16.362305 -42.802734C16.362305 -41.181641 16.054688 -39.645996 15.439453 -38.195801C14.824219 -36.745605 13.964844 -35.468750 12.861328 -34.365234C12.226562 -33.701172 11.909180 -32.934570 11.909180 -32.065430ZM11.909180 -32.065430"></path></svg>