<svg width="20.742188" height="27.788086" viewBox="0.000000 -52.558594 20.742188 27.788086" xmlns="http://www.w3.org/2000/svg"><path d="M0.000000 -42.202148C0.000000 -43.598633 0.273438 -44.941406 0.820312 -46.230469C1.318359 -47.451172 2.055664 -48.554688 3.032227 -49.541016C3.979492 -50.488281 5.078125 -51.220703 6.328125 -51.738281C7.597656 -52.285156 8.940430 -52.558594 10.356445 -52.558594C11.801758 -52.558594 13.149414 -52.285156 14.399414 -51.738281C15.639648 -51.220703 16.738281 -50.488281 17.695312 -49.541016C18.671875 -48.564453 19.414062 -47.460938 19.921875 -46.230469C20.468750 -44.941406 20.742188 -43.598633 20.742188 -42.202148C20.742188 -40.805664 20.468750 -39.462891 19.921875 -38.173828C19.570312 -37.382812 19.208984 -36.728516 18.837891 -36.210938L11.982422 -25.795898C11.533203 -25.112305 10.996094 -24.770508 10.371094 -24.770508C9.746094 -24.770508 9.204102 -25.112305 8.745117 -25.795898L1.904297 -36.210938C1.455078 -36.835938 1.093750 -37.490234 0.820312 -38.173828C0.273438 -39.462891 0.000000 -40.805664 0.000000 -42.202148ZM6.518555 -42.202148C6.518555 -41.127930 6.889648 -40.219727 7.631836 -39.477539C8.393555 -38.715820 9.301758 -38.334961 10.356445 -38.334961C11.440430 -38.334961 12.353516 -38.715820 13.095703 -39.477539C13.847656 -40.209961 14.223633 -41.118164 14.223633 -42.202148C14.223633 -43.266602 13.847656 -44.174805 13.095703 -44.926758C12.353516 -45.688477 11.440430 -46.069336 10.356445 -46.069336C9.301758 -46.069336 8.393555 -45.688477 7.631836 -44.926758C6.889648 -44.165039 6.518555 -43.256836 6.518555 -42.202148ZM6.518555 -42.202148"></path></svg>