<svg width="16.713867" height="28.125000" viewBox="0.000000 -52.895508 16.713867 28.125000" xmlns="http://www.w3.org/2000/svg"><path d="M0.000000 -27.788086L0.000000 -49.892578C0.000000 -50.722656 0.288086 -51.430664 0.864258 -52.016602C1.440430 -52.602539 2.138672 -52.895508 2.958984 -52.895508L13.740234 -52.895508C14.560547 -52.895508 15.261230 -52.602539 15.842285 -52.016602C16.423340 -51.430664 16.713867 -50.722656 16.713867 -49.892578L16.713867 -27.788086C16.713867 -26.958008 16.423340 -26.247559 15.842285 -25.656738C15.261230 -25.065918 14.560547 -24.770508 13.740234 -24.770508L2.958984 -24.770508C2.138672 -24.770508 1.440430 -25.063477 0.864258 -25.649414C0.288086 -26.235352 0.000000 -26.948242 0.000000 -27.788086ZM7.031250 -29.619141C7.031250 -29.248047 7.160645 -28.933105 7.419434 -28.674316C7.678223 -28.415527 7.988281 -28.286133 8.349609 -28.286133C8.710938 -28.286133 9.023438 -28.417969 9.287109 -28.681641C9.550781 -28.945312 9.682617 -29.257812 9.682617 -29.619141C9.682617 -29.980469 9.550781 -30.288086 9.287109 -30.541992C9.023438 -30.795898 8.710938 -30.922852 8.349609 -30.922852C7.988281 -30.922852 7.678223 -30.795898 7.419434 -30.541992C7.160645 -30.288086 7.031250 -29.980469 7.031250 -29.619141ZM7.031250 -29.619141"></path></svg>