<svg width="31.640625" height="23.635254" viewBox="0.000000 -46.166992 31.640625 23.635254" xmlns="http://www.w3.org/2000/svg"><path d="M0.000000 -24.851074L0.000000 -30.065918L6.884766 -30.065918C7.431641 -30.065918 7.944336 -30.163574 8.422852 -30.358887C9.057617 -28.669434 10.043945 -27.214355 11.381836 -25.993652C9.965820 -25.231934 8.466797 -24.851074 6.884766 -24.851074ZM0.000000 -38.620605L0.000000 -43.820801L6.884766 -43.820801C8.173828 -43.820801 9.404297 -43.569336 10.576172 -43.066406C11.748047 -42.563477 12.756348 -41.889648 13.601074 -41.044922C14.445801 -40.200195 15.119629 -39.191895 15.622559 -38.020020C16.125488 -36.848145 16.376953 -35.617676 16.376953 -34.328613C16.376953 -33.156738 16.794434 -32.153320 17.629395 -31.318359C18.464355 -30.483398 19.472656 -30.065918 20.654297 -30.065918L23.188477 -30.065918C23.217773 -30.065918 23.256836 -30.063477 23.305664 -30.058594C23.354492 -30.053711 23.393555 -30.051270 23.422852 -30.051270L23.422852 -31.633301C23.422852 -31.945801 23.515625 -32.158203 23.701172 -32.270508C23.886719 -32.382812 24.106445 -32.355957 24.360352 -32.189941L31.391602 -27.868652C31.557617 -27.761230 31.640625 -27.624512 31.640625 -27.458496C31.640625 -27.390137 31.621094 -27.319336 31.582031 -27.246094C31.542969 -27.172852 31.503906 -27.121582 31.464844 -27.092285L31.391602 -27.033691L24.360352 -22.727051C24.106445 -22.561035 23.886719 -22.531738 23.701172 -22.639160C23.515625 -22.746582 23.422852 -22.956543 23.422852 -23.269043L23.422852 -24.880371C23.393555 -24.880371 23.354492 -24.875488 23.305664 -24.865723C23.256836 -24.855957 23.217773 -24.851074 23.188477 -24.851074L20.654297 -24.851074C19.365234 -24.851074 18.134766 -25.102539 16.962891 -25.605469C15.791016 -26.108398 14.782715 -26.782227 13.937988 -27.626953C13.093262 -28.471680 12.419434 -29.477539 11.916504 -30.644531C11.413574 -31.811523 11.162109 -33.039551 11.162109 -34.328613C11.162109 -35.510254 10.744629 -36.520996 9.909668 -37.360840C9.074707 -38.200684 8.066406 -38.620605 6.884766 -38.620605ZM16.142578 -42.692871C17.509766 -43.444824 19.013672 -43.820801 20.654297 -43.820801L23.188477 -43.820801C23.217773 -43.820801 23.256836 -43.818359 23.305664 -43.813477C23.354492 -43.808594 23.393555 -43.806152 23.422852 -43.806152L23.422852 -45.417480C23.422852 -45.729980 23.515625 -45.942383 23.701172 -46.054688C23.886719 -46.166992 24.106445 -46.140137 24.360352 -45.974121L31.391602 -41.638184C31.557617 -41.520996 31.640625 -41.384277 31.640625 -41.228027C31.640625 -41.149902 31.621094 -41.076660 31.582031 -41.008301C31.542969 -40.939941 31.503906 -40.891113 31.464844 -40.861816L31.391602 -40.817871L24.360352 -36.496582C24.106445 -36.330566 23.886719 -36.301270 23.701172 -36.408691C23.515625 -36.516113 23.422852 -36.726074 23.422852 -37.038574L23.422852 -38.635254C23.393555 -38.635254 23.354492 -38.632812 23.305664 -38.627930C23.256836 -38.623047 23.217773 -38.620605 23.188477 -38.620605L20.654297 -38.620605C20.136719 -38.620605 19.624023 -38.518066 19.116211 -38.312988C18.471680 -40.021973 17.480469 -41.481934 16.142578 -42.692871ZM16.142578 -42.692871"></path></svg>