<svg width="38.833008" height="31.254883" viewBox="0.000000 -57.783203 38.833008 31.254883" xmlns="http://www.w3.org/2000/svg"><path d="M0.000000 -45.859375C0.000000 -48.017578 0.683594 -50.012207 2.050781 -51.843262C3.417969 -53.674316 5.273438 -55.122070 7.617188 -56.186523C9.960938 -57.250977 12.514648 -57.783203 15.278320 -57.783203C17.358398 -57.783203 19.340820 -57.468262 21.225586 -56.838379C23.110352 -56.208496 24.731445 -55.361328 26.088867 -54.296875C27.446289 -53.232422 28.527832 -51.965332 29.333496 -50.495605C30.139160 -49.025879 30.541992 -47.480469 30.541992 -45.859375C30.541992 -44.560547 30.285645 -43.305664 29.772949 -42.094727C29.260254 -40.883789 28.535156 -39.787598 27.597656 -38.806152C26.660156 -37.824707 25.566406 -36.965332 24.316406 -36.228027C23.066406 -35.490723 21.662598 -34.921875 20.104980 -34.521484C18.547363 -34.121094 16.938477 -33.920898 15.278320 -33.920898C13.208008 -33.920898 11.269531 -34.218750 9.462891 -34.814453L5.976562 -32.382812C4.677734 -31.552734 3.762207 -31.311035 3.229980 -31.657715C2.697754 -32.004395 2.587891 -32.973633 2.900391 -34.565430L3.603516 -38.198242C2.460938 -39.252930 1.574707 -40.437012 0.944824 -41.750488C0.314941 -43.063965 0.000000 -44.433594 0.000000 -45.859375ZM19.497070 -31.811523C21.860352 -32.280273 24.013672 -33.105469 25.957031 -34.287109C27.900391 -35.468750 29.484863 -36.921387 30.710449 -38.645020C31.936035 -40.368652 32.685547 -42.231445 32.958984 -44.233398C34.736328 -43.520508 36.159668 -42.495117 37.229004 -41.157227C38.298340 -39.819336 38.833008 -38.349609 38.833008 -36.748047C38.833008 -35.761719 38.613281 -34.804688 38.173828 -33.876953C37.734375 -32.949219 37.119141 -32.114258 36.328125 -31.372070L36.840820 -28.808594C37.036133 -27.695312 36.950684 -27.016602 36.584473 -26.772461C36.218262 -26.528320 35.576172 -26.699219 34.658203 -27.285156L32.211914 -29.013672C30.942383 -28.583984 29.580078 -28.369141 28.125000 -28.369141C26.376953 -28.369141 24.746094 -28.676758 23.232422 -29.291992C21.718750 -29.907227 20.473633 -30.747070 19.497070 -31.811523ZM19.497070 -31.811523"></path></svg>