<svg width="28.125000" height="28.125000" viewBox="0.000000 -52.895508 28.125000 28.125000" xmlns="http://www.w3.org/2000/svg"><path d="M0.000000 -27.407227L0.000000 -50.258789C0.000000 -50.981445 0.261230 -51.601562 0.783691 -52.119141C1.306152 -52.636719 1.928711 -52.895508 2.651367 -52.895508L6.166992 -52.895508L6.166992 -47.622070L21.987305 -47.622070L21.987305 -52.895508L25.502930 -52.895508C26.225586 -52.895508 26.843262 -52.636719 27.355957 -52.119141C27.868652 -51.601562 28.125000 -50.981445 28.125000 -50.258789L28.125000 -27.407227C28.125000 -26.684570 27.868652 -26.064453 27.355957 -25.546875C26.843262 -25.029297 26.225586 -24.770508 25.502930 -24.770508L21.987305 -24.770508L21.987305 -30.043945L6.166992 -30.043945L6.166992 -24.770508L2.651367 -24.770508C1.928711 -24.770508 1.306152 -25.029297 0.783691 -25.546875C0.261230 -26.064453 0.000000 -26.684570 0.000000 -27.407227ZM2.211914 -28.725586L2.211914 -26.967773L3.969727 -26.967773L3.969727 -28.725586ZM2.211914 -31.376953L3.969727 -31.376953L3.969727 -33.134766L2.211914 -33.134766ZM2.211914 -35.756836L3.969727 -35.756836L3.969727 -37.514648L2.211914 -37.514648ZM2.211914 -40.166016L3.969727 -40.166016L3.969727 -41.923828L2.211914 -41.923828ZM2.211914 -44.545898L3.969727 -44.545898L3.969727 -46.303711L2.211914 -46.303711ZM2.211914 -48.955078L3.969727 -48.955078L3.969727 -50.712891L2.211914 -50.712891ZM6.166992 -34.438477L21.987305 -34.438477L21.987305 -43.227539L6.166992 -43.227539ZM24.155273 -28.725586L24.155273 -26.967773L25.913086 -26.967773L25.913086 -28.725586ZM24.155273 -31.376953L25.913086 -31.376953L25.913086 -33.134766L24.155273 -33.134766ZM24.155273 -35.756836L25.913086 -35.756836L25.913086 -37.514648L24.155273 -37.514648ZM24.155273 -40.166016L25.913086 -40.166016L25.913086 -41.923828L24.155273 -41.923828ZM24.155273 -44.545898L25.913086 -44.545898L25.913086 -46.303711L24.155273 -46.303711ZM24.155273 -48.955078L25.913086 -48.955078L25.913086 -50.712891L24.155273 -50.712891ZM24.155273 -48.955078"></path></svg>