<svg width="23.715820" height="28.125000" viewBox="0.000000 -52.895508 23.715820 28.125000" xmlns="http://www.w3.org/2000/svg"><path d="M0.000000 -27.407227L0.000000 -50.258789C0.000000 -50.981445 0.256348 -51.601562 0.769043 -52.119141C1.281738 -52.636719 1.899414 -52.895508 2.622070 -52.895508L13.286133 -52.895508C13.354492 -52.895508 13.413086 -52.890625 13.461914 -52.880859L13.476562 -52.880859C14.238281 -52.822266 14.848633 -52.563477 15.307617 -52.104492L22.954102 -44.750977C23.168945 -44.516602 23.330078 -44.272461 23.437500 -44.018555C23.476562 -43.920898 23.500977 -43.857422 23.510742 -43.828125C23.520508 -43.808594 23.542480 -43.759766 23.576660 -43.681641C23.610840 -43.603516 23.632812 -43.540039 23.642578 -43.491211C23.691406 -43.266602 23.715820 -43.061523 23.715820 -42.875977L23.715820 -42.744141L23.715820 -27.407227C23.715820 -26.684570 23.459473 -26.064453 22.946777 -25.546875C22.434082 -25.029297 21.816406 -24.770508 21.093750 -24.770508L2.622070 -24.770508C1.899414 -24.770508 1.281738 -25.029297 0.769043 -25.546875C0.256348 -26.064453 0.000000 -26.684570 0.000000 -27.407227ZM2.622070 -27.407227L21.093750 -27.407227L21.093750 -41.367188L17.109375 -41.367188C15.654297 -41.367188 14.411621 -41.882324 13.381348 -42.912598C12.351074 -43.942871 11.835938 -45.185547 11.835938 -46.640625L11.835938 -50.258789L2.622070 -50.258789ZM14.487305 -46.640625C14.487305 -45.917969 14.743652 -45.300293 15.256348 -44.787598C15.769043 -44.274902 16.386719 -44.018555 17.109375 -44.018555L20.654297 -44.018555L14.487305 -49.848633ZM14.487305 -46.640625"></path></svg>