<svg width="28.125000" height="28.125000" viewBox="0.000000 -52.895508 28.125000 28.125000" xmlns="http://www.w3.org/2000/svg"><path d="M0.000000 -38.876953C0.000000 -40.771484 0.368652 -42.583008 1.105957 -44.311523C1.843262 -46.040039 2.836914 -47.531738 4.086914 -48.786621C5.336914 -50.041504 6.828613 -51.040039 8.562012 -51.782227C10.295410 -52.524414 12.114258 -52.895508 14.018555 -52.895508C15.932617 -52.895508 17.761230 -52.524414 19.504395 -51.782227C21.247559 -51.040039 22.749023 -50.041504 24.008789 -48.786621C25.268555 -47.531738 26.269531 -46.040039 27.011719 -44.311523C27.753906 -42.583008 28.125000 -40.771484 28.125000 -38.876953C28.125000 -36.962891 27.753906 -35.136719 27.011719 -33.398438C26.269531 -31.660156 25.268555 -30.161133 24.008789 -28.901367C22.749023 -27.641602 21.247559 -26.638184 19.504395 -25.891113C17.761230 -25.144043 15.932617 -24.770508 14.018555 -24.770508C12.104492 -24.770508 10.283203 -25.144043 8.554688 -25.891113C6.826172 -26.638184 5.336914 -27.641602 4.086914 -28.901367C2.836914 -30.161133 1.843262 -31.660156 1.105957 -33.398438C0.368652 -35.136719 0.000000 -36.962891 0.000000 -38.876953ZM2.343750 -38.276367C2.382812 -36.899414 2.673340 -35.581055 3.215332 -34.321289C3.757324 -33.061523 4.506836 -31.928711 5.463867 -30.922852C6.616211 -32.680664 8.029785 -34.199219 9.704590 -35.478516C11.379395 -36.757812 13.222656 -37.749023 15.234375 -38.452148C15.009766 -38.891602 14.775391 -39.438477 14.531250 -40.092773C10.937500 -38.823242 7.421875 -38.188477 3.984375 -38.188477C3.818359 -38.188477 3.554688 -38.203125 3.193359 -38.232422C2.832031 -38.261719 2.548828 -38.276367 2.343750 -38.276367ZM2.431641 -40.620117L3.984375 -40.620117C7.294922 -40.620117 10.463867 -41.166992 13.491211 -42.260742C12.280273 -44.545898 10.668945 -46.879883 8.657227 -49.262695C7.006836 -48.383789 5.632324 -47.185059 4.533691 -45.666504C3.435059 -44.147949 2.734375 -42.465820 2.431641 -40.620117ZM7.177734 -29.282227C9.355469 -27.827148 11.635742 -27.099609 14.018555 -27.099609C15.336914 -27.099609 16.577148 -27.309570 17.739258 -27.729492C17.485352 -30.600586 16.909180 -33.422852 16.010742 -36.196289C14.204102 -35.600586 12.551270 -34.711914 11.052246 -33.530273C9.553223 -32.348633 8.261719 -30.932617 7.177734 -29.282227ZM11.000977 -50.126953C12.817383 -47.871094 14.375000 -45.537109 15.673828 -43.125000C18.037109 -44.179688 20.195312 -45.561523 22.148438 -47.270508C21.064453 -48.325195 19.826660 -49.135742 18.435059 -49.702148C17.043457 -50.268555 15.571289 -50.551758 14.018555 -50.551758C13.120117 -50.551758 12.114258 -50.410156 11.000977 -50.126953ZM16.713867 -40.942383C16.791992 -40.737305 16.916504 -40.419922 17.087402 -39.990234C17.258301 -39.560547 17.387695 -39.248047 17.475586 -39.052734C19.008789 -39.345703 20.283203 -39.492188 21.298828 -39.492188C22.470703 -39.492188 23.964844 -39.287109 25.781250 -38.876953C25.781250 -41.142578 25.087891 -43.334961 23.701172 -45.454102C21.484375 -43.598633 19.155273 -42.094727 16.713867 -40.942383ZM18.266602 -36.796875C19.038086 -34.443359 19.614258 -31.762695 19.995117 -28.754883C21.411133 -29.575195 22.602539 -30.664062 23.569336 -32.021484C24.536133 -33.378906 25.190430 -34.887695 25.532227 -36.547852C24.096680 -36.889648 22.685547 -37.060547 21.298828 -37.060547C20.234375 -37.060547 19.223633 -36.972656 18.266602 -36.796875ZM18.266602 -36.796875"></path></svg>