<svg width="28.125000" height="28.125000" viewBox="0.000000 -52.895508 28.125000 28.125000" xmlns="http://www.w3.org/2000/svg"><path d="M0.000000 -30.043945C0.000000 -29.272461 0.170898 -28.593750 0.512695 -28.007812C1.108398 -26.914062 2.153320 -26.088867 3.647461 -25.532227C4.916992 -25.024414 6.279297 -24.770508 7.734375 -24.770508C9.189453 -24.770508 10.524902 -24.965820 11.740723 -25.356445C12.956543 -25.747070 13.955078 -26.267090 14.736328 -26.916504C15.517578 -27.565918 16.123047 -28.308105 16.552734 -29.143066C16.982422 -29.978027 17.197266 -30.849609 17.197266 -31.757812C17.197266 -33.017578 16.860352 -34.101562 16.186523 -35.009766C15.668945 -35.712891 14.975586 -36.391602 14.106445 -37.045898C13.813477 -37.270508 13.491211 -37.543945 13.139648 -37.866211C12.456055 -38.432617 12.114258 -38.989258 12.114258 -39.536133C12.114258 -40.180664 12.563477 -40.908203 13.461914 -41.718750C13.764648 -41.982422 14.135742 -42.343750 14.575195 -42.802734C14.965820 -43.232422 15.285645 -43.774414 15.534668 -44.428711C15.783691 -45.083008 15.908203 -45.805664 15.908203 -46.596680C15.908203 -47.612305 15.686035 -48.571777 15.241699 -49.475098C14.797363 -50.378418 14.179688 -51.079102 13.388672 -51.577148L15.673828 -51.577148L17.944336 -52.895508L10.561523 -52.895508C9.497070 -52.895508 8.442383 -52.788086 7.397461 -52.573242C5.825195 -52.221680 4.506836 -51.420898 3.442383 -50.170898C2.377930 -48.920898 1.845703 -47.509766 1.845703 -45.937500C1.845703 -44.287109 2.441406 -42.905273 3.632812 -41.791992C4.824219 -40.678711 6.269531 -40.122070 7.968750 -40.122070C8.144531 -40.122070 8.535156 -40.151367 9.140625 -40.209961C9.111328 -40.092773 9.028320 -39.853516 8.891602 -39.492188C8.813477 -39.287109 8.774414 -39.042969 8.774414 -38.759766C8.774414 -37.988281 9.135742 -37.148438 9.858398 -36.240234C9.116211 -36.230469 8.266602 -36.157227 7.309570 -36.020508C5.112305 -35.668945 3.422852 -35.068359 2.241211 -34.218750C1.557617 -33.710938 1.013184 -33.066406 0.607910 -32.285156C0.202637 -31.503906 0.000000 -30.756836 0.000000 -30.043945ZM3.134766 -30.834961C3.134766 -31.508789 3.286133 -32.114258 3.588867 -32.651367C4.135742 -33.598633 5.078125 -34.277344 6.416016 -34.687500C7.578125 -35.048828 8.784180 -35.229492 10.034180 -35.229492C10.209961 -35.229492 10.488281 -35.214844 10.869141 -35.185547C10.878906 -35.185547 11.042480 -35.075684 11.359863 -34.855957C11.677246 -34.636230 11.875000 -34.501953 11.953125 -34.453125C12.226562 -34.267578 12.583008 -33.994141 13.022461 -33.632812C13.051758 -33.603516 13.139648 -33.520508 13.286133 -33.383789C13.432617 -33.247070 13.562012 -33.120117 13.674316 -33.002930C13.786621 -32.885742 13.872070 -32.788086 13.930664 -32.709961C13.959961 -32.670898 13.991699 -32.624512 14.025879 -32.570801C14.060059 -32.517090 14.101562 -32.451172 14.150391 -32.373047C14.199219 -32.294922 14.243164 -32.231445 14.282227 -32.182617C14.399414 -31.997070 14.497070 -31.806641 14.575195 -31.611328C14.731445 -31.123047 14.809570 -30.688477 14.809570 -30.307617C14.809570 -29.614258 14.658203 -29.001465 14.355469 -28.469238C14.052734 -27.937012 13.632812 -27.519531 13.095703 -27.216797C12.080078 -26.630859 10.878906 -26.337891 9.492188 -26.337891C7.968750 -26.337891 6.572266 -26.684570 5.302734 -27.377930C4.638672 -27.719727 4.111328 -28.193359 3.720703 -28.798828C3.330078 -29.404297 3.134766 -30.083008 3.134766 -30.834961ZM4.965820 -47.724609C4.965820 -48.857422 5.263672 -49.802246 5.859375 -50.559082C6.455078 -51.315918 7.260742 -51.694336 8.276367 -51.694336C8.999023 -51.694336 9.663086 -51.469727 10.268555 -51.020508C10.874023 -50.571289 11.357422 -49.975586 11.718750 -49.233398C12.421875 -47.749023 12.773438 -46.298828 12.773438 -44.882812C12.773438 -43.701172 12.521973 -42.783203 12.019043 -42.128906C11.516113 -41.474609 10.737305 -41.147461 9.682617 -41.147461C9.125977 -41.147461 8.579102 -41.293945 8.041992 -41.586914C7.143555 -42.094727 6.381836 -42.998047 5.756836 -44.296875C5.229492 -45.439453 4.965820 -46.582031 4.965820 -47.724609ZM17.314453 -46.420898L21.650391 -46.420898L21.650391 -42.084961L23.803711 -42.084961L23.803711 -46.420898L28.125000 -46.420898L28.125000 -48.588867L23.803711 -48.588867L23.803711 -52.895508L21.650391 -52.895508L21.650391 -48.588867L17.314453 -48.588867ZM17.314453 -46.420898"></path></svg>