<svg width="34.262695" height="17.578125" viewBox="0.000000 -37.075195 34.262695 17.578125" xmlns="http://www.w3.org/2000/svg"><path d="M0.000000 -33.911133C0.000000 -33.032227 0.319824 -32.282715 0.959473 -31.662598C1.599121 -31.042480 2.368164 -30.732422 3.266602 -30.732422L7.031250 -30.732422L7.031250 -19.497070L24.243164 -30.732422L31.010742 -30.732422C31.909180 -30.732422 32.675781 -31.042480 33.310547 -31.662598C33.945312 -32.282715 34.262695 -33.032227 34.262695 -33.911133C34.262695 -34.780273 33.945312 -35.524902 33.310547 -36.145020C32.675781 -36.765137 31.909180 -37.075195 31.010742 -37.075195L22.265625 -37.075195L13.549805 -31.391602L13.549805 -37.075195L3.266602 -37.075195C2.368164 -37.075195 1.599121 -36.765137 0.959473 -36.145020C0.319824 -35.524902 0.000000 -34.780273 0.000000 -33.911133ZM0.000000 -33.911133"></path></svg>