<svg width="29.868164" height="28.125000" viewBox="0.000000 -52.895508 29.868164 28.125000" xmlns="http://www.w3.org/2000/svg"><path d="M0.000000 -24.770508C0.000000 -24.946289 0.009766 -25.173340 0.029297 -25.451660C0.048828 -25.729980 0.156250 -26.181641 0.351562 -26.806641C0.546875 -27.431641 0.815430 -27.919922 1.157227 -28.271484C1.489258 -28.613281 2.143555 -28.986816 3.120117 -29.392090C4.096680 -29.797363 5.205078 -30.224609 6.445312 -30.673828C7.685547 -31.123047 8.598633 -31.494141 9.184570 -31.787109C9.829102 -32.119141 10.349121 -32.592773 10.744629 -33.208008C11.140137 -33.823242 11.376953 -34.472656 11.455078 -35.156250L9.023438 -35.156250C8.984375 -35.332031 8.935547 -35.568848 8.876953 -35.866699C8.818359 -36.164551 8.720703 -36.757812 8.583984 -37.646484C8.447266 -38.535156 8.330078 -39.399414 8.232422 -40.239258C8.134766 -41.079102 8.063965 -42.041016 8.020020 -43.125000C7.976074 -44.208984 7.983398 -45.183105 8.041992 -46.047363C8.100586 -46.911621 8.249512 -47.724609 8.488770 -48.486328C8.728027 -49.248047 9.057617 -49.814453 9.477539 -50.185547C9.848633 -50.566406 10.266113 -50.822754 10.729980 -50.954590C11.193848 -51.086426 11.533203 -51.083984 11.748047 -50.947266C11.767578 -50.947266 11.782227 -50.952148 11.791992 -50.961914C11.791992 -50.991211 11.816406 -51.069336 11.865234 -51.196289C12.119141 -51.870117 12.534180 -52.348633 13.110352 -52.631836C13.461914 -52.817383 14.082031 -52.895508 14.970703 -52.866211C15.009766 -52.866211 15.078125 -52.863770 15.175781 -52.858887C15.273438 -52.854004 15.341797 -52.851562 15.380859 -52.851562L15.424805 -52.851562C15.922852 -52.812500 16.484375 -52.705078 17.109375 -52.529297C17.646484 -52.373047 18.144531 -52.172852 18.603516 -51.928711C19.062500 -51.684570 19.528809 -51.335449 20.002441 -50.881348C20.476074 -50.427246 20.874023 -49.899902 21.196289 -49.299316C21.518555 -48.698730 21.767578 -47.944336 21.943359 -47.036133C22.119141 -46.127930 22.177734 -45.122070 22.119141 -44.018555C22.050781 -42.680664 21.958008 -41.459961 21.840820 -40.356445C21.723633 -39.252930 21.611328 -38.393555 21.503906 -37.778320C21.396484 -37.163086 21.291504 -36.645508 21.188965 -36.225586C21.086426 -35.805664 21.005859 -35.522461 20.947266 -35.375977L20.844727 -35.156250L18.413086 -35.156250C18.491211 -34.462891 18.725586 -33.811035 19.116211 -33.200684C19.506836 -32.590332 20.024414 -32.119141 20.668945 -31.787109C21.254883 -31.494141 22.167969 -31.123047 23.408203 -30.673828C24.648438 -30.224609 25.759277 -29.797363 26.740723 -29.392090C27.722168 -28.986816 28.378906 -28.613281 28.710938 -28.271484C29.052734 -27.919922 29.321289 -27.453613 29.516602 -26.872559C29.711914 -26.291504 29.819336 -25.795898 29.838867 -25.385742L29.868164 -24.770508ZM0.000000 -24.770508"></path></svg>