<svg width="28.125000" height="28.125000" viewBox="0.000000 -52.895508 28.125000 28.125000" xmlns="http://www.w3.org/2000/svg"><path d="M0.000000 -38.833008C0.000000 -40.737305 0.371094 -42.558594 1.113281 -44.296875C1.855469 -46.035156 2.854004 -47.531738 4.108887 -48.786621C5.363770 -50.041504 6.860352 -51.040039 8.598633 -51.782227C10.336914 -52.524414 12.158203 -52.895508 14.062500 -52.895508C15.966797 -52.895508 17.788086 -52.524414 19.526367 -51.782227C21.264648 -51.040039 22.761230 -50.041504 24.016113 -48.786621C25.270996 -47.531738 26.269531 -46.035156 27.011719 -44.296875C27.753906 -42.558594 28.125000 -40.737305 28.125000 -38.833008C28.125000 -36.928711 27.753906 -35.107422 27.011719 -33.369141C26.269531 -31.630859 25.270996 -30.134277 24.016113 -28.879395C22.761230 -27.624512 21.264648 -26.625977 19.526367 -25.883789C17.788086 -25.141602 15.966797 -24.770508 14.062500 -24.770508C12.158203 -24.770508 10.336914 -25.141602 8.598633 -25.883789C6.860352 -26.625977 5.363770 -27.624512 4.108887 -28.879395C2.854004 -30.134277 1.855469 -31.630859 1.113281 -33.369141C0.371094 -35.107422 0.000000 -36.928711 0.000000 -38.833008ZM7.822266 -34.174805C7.822266 -33.735352 7.978516 -33.364258 8.291016 -33.061523C8.593750 -32.749023 8.959961 -32.592773 9.389648 -32.592773C9.829102 -32.592773 10.205078 -32.749023 10.517578 -33.061523L14.062500 -36.606445L17.622070 -33.061523C17.924805 -32.749023 18.295898 -32.592773 18.735352 -32.592773C19.165039 -32.592773 19.536133 -32.749023 19.848633 -33.061523C20.151367 -33.364258 20.302734 -33.735352 20.302734 -34.174805C20.302734 -34.614258 20.151367 -34.985352 19.848633 -35.288086L16.289062 -38.833008L19.848633 -42.407227C20.151367 -42.709961 20.302734 -43.081055 20.302734 -43.520508C20.302734 -43.959961 20.151367 -44.331055 19.848633 -44.633789C19.545898 -44.936523 19.174805 -45.087891 18.735352 -45.087891C18.295898 -45.087891 17.924805 -44.936523 17.622070 -44.633789L14.062500 -41.059570L10.517578 -44.633789C10.205078 -44.936523 9.831543 -45.087891 9.396973 -45.087891C8.962402 -45.087891 8.593750 -44.936523 8.291016 -44.633789C7.978516 -44.331055 7.822266 -43.959961 7.822266 -43.520508C7.822266 -43.081055 7.978516 -42.709961 8.291016 -42.407227L11.835938 -38.833008L8.291016 -35.288086C7.978516 -34.985352 7.822266 -34.614258 7.822266 -34.174805ZM7.822266 -34.174805"></path></svg>