<svg width="20.698242" height="28.125000" viewBox="0.000000 -52.895508 20.698242 28.125000" xmlns="http://www.w3.org/2000/svg"><path d="M0.000000 -27.436523L0.000000 -39.228516C0.000000 -39.511719 0.100098 -39.748535 0.300293 -39.938965C0.500488 -40.129395 0.747070 -40.224609 1.040039 -40.224609L14.516602 -40.224609L14.516602 -44.692383C14.516602 -45.961914 14.096680 -47.041016 13.256836 -47.929688C12.426758 -48.779297 11.455078 -49.204102 10.341797 -49.204102C9.228516 -49.204102 8.256836 -48.779297 7.426758 -47.929688C6.596680 -47.050781 6.181641 -45.971680 6.181641 -44.692383L6.181641 -43.549805L2.387695 -43.549805L2.387695 -44.692383C2.387695 -45.786133 2.590332 -46.831055 2.995605 -47.827148C3.400879 -48.823242 3.964844 -49.702148 4.687500 -50.463867C5.400391 -51.225586 6.247559 -51.821289 7.229004 -52.250977C8.210449 -52.680664 9.248047 -52.895508 10.341797 -52.895508C11.435547 -52.895508 12.475586 -52.680664 13.461914 -52.250977C14.448242 -51.821289 15.297852 -51.225586 16.010742 -50.463867C16.733398 -49.702148 17.294922 -48.823242 17.695312 -47.827148C18.095703 -46.831055 18.295898 -45.786133 18.295898 -44.692383L18.295898 -40.224609L19.658203 -40.224609C19.951172 -40.224609 20.197754 -40.129395 20.397949 -39.938965C20.598145 -39.748535 20.698242 -39.511719 20.698242 -39.228516L20.698242 -27.436523C20.698242 -27.182617 20.617676 -26.992188 20.456543 -26.865234C20.295410 -26.738281 20.029297 -26.596680 19.658203 -26.440430C19.462891 -26.352539 19.116211 -26.230469 18.618164 -26.074219C18.120117 -25.917969 17.458496 -25.734863 16.633301 -25.524902C15.808105 -25.314941 14.829102 -25.136719 13.696289 -24.990234C12.563477 -24.843750 11.445312 -24.770508 10.341797 -24.770508C7.246094 -24.770508 4.145508 -25.327148 1.040039 -26.440430C0.708008 -26.547852 0.451660 -26.677246 0.270996 -26.828613C0.090332 -26.979980 0.000000 -27.182617 0.000000 -27.436523ZM5.610352 -32.556152C5.610352 -32.316895 5.693359 -32.114258 5.859375 -31.948242L8.422852 -29.443359C8.588867 -29.277344 8.793945 -29.194336 9.038086 -29.194336C9.301758 -29.194336 9.506836 -29.277344 9.653320 -29.443359L14.912109 -34.584961C15.087891 -34.760742 15.175781 -34.968262 15.175781 -35.207520C15.175781 -35.446777 15.087891 -35.654297 14.912109 -35.830078C14.746094 -35.996094 14.541016 -36.079102 14.296875 -36.079102C14.052734 -36.079102 13.847656 -35.996094 13.681641 -35.830078L9.038086 -31.289062L7.119141 -33.164062C6.943359 -33.339844 6.733398 -33.427734 6.489258 -33.427734C6.245117 -33.427734 6.035156 -33.339844 5.859375 -33.164062C5.693359 -32.998047 5.610352 -32.795410 5.610352 -32.556152ZM5.610352 -32.556152"></path></svg>