<svg width="24.638672" height="24.653320" viewBox="0.000000 -47.695312 24.638672 24.653320" xmlns="http://www.w3.org/2000/svg"><path d="M0.000000 -24.990234L0.000000 -45.717773C0.000000 -46.245117 0.187988 -46.701660 0.563965 -47.087402C0.939941 -47.473145 1.391602 -47.675781 1.918945 -47.695312L22.734375 -47.695312C23.261719 -47.695312 23.710938 -47.504883 24.082031 -47.124023C24.453125 -46.743164 24.638672 -46.284180 24.638672 -45.747070L24.638672 -25.019531C24.638672 -24.482422 24.453125 -24.023438 24.082031 -23.642578C23.710938 -23.261719 23.261719 -23.061523 22.734375 -23.041992L1.918945 -23.041992C1.391602 -23.041992 0.939941 -23.232422 0.563965 -23.613281C0.187988 -23.994141 0.000000 -24.453125 0.000000 -24.990234ZM0.000000 -24.990234"></path></svg>