<svg width="30.131836" height="14.926758" viewBox="0.000000 -33.105469 30.131836 14.926758" xmlns="http://www.w3.org/2000/svg"><path d="M0.000000 -20.273438L0.000000 -26.264648C0.000000 -26.782227 0.170898 -27.236328 0.512695 -27.626953L0.498047 -27.626953L3.295898 -31.303711C3.715820 -31.899414 4.291992 -32.197266 5.024414 -32.197266L7.001953 -32.197266C9.238281 -32.802734 11.928711 -33.105469 15.073242 -33.105469C18.208008 -33.105469 20.893555 -32.802734 23.129883 -32.197266L25.107422 -32.197266C25.839844 -32.197266 26.416016 -31.899414 26.835938 -31.303711L29.633789 -27.626953L29.619141 -27.626953C29.960938 -27.236328 30.131836 -26.782227 30.131836 -26.264648L30.131836 -20.273438C30.131836 -19.697266 29.926758 -19.204102 29.516602 -18.793945C29.106445 -18.383789 28.613281 -18.178711 28.037109 -18.178711L2.109375 -18.178711C1.523438 -18.178711 1.025391 -18.383789 0.615234 -18.793945C0.205078 -19.204102 0.000000 -19.697266 0.000000 -20.273438ZM2.973633 -22.075195C2.973633 -21.762695 3.083496 -21.496582 3.303223 -21.276855C3.522949 -21.057129 3.789062 -20.947266 4.101562 -20.947266L6.752930 -20.947266C7.055664 -20.947266 7.316895 -21.057129 7.536621 -21.276855C7.756348 -21.496582 7.866211 -21.762695 7.866211 -22.075195C7.866211 -22.387695 7.756348 -22.653809 7.536621 -22.873535C7.316895 -23.093262 7.055664 -23.203125 6.752930 -23.203125L4.101562 -23.203125C3.789062 -23.203125 3.522949 -23.093262 3.303223 -22.873535C3.083496 -22.653809 2.973633 -22.387695 2.973633 -22.075195ZM5.156250 -29.150391C5.156250 -28.701172 5.598145 -28.288574 6.481934 -27.912598C7.365723 -27.536621 8.569336 -27.238770 10.092773 -27.019043C11.616211 -26.799316 13.276367 -26.689453 15.073242 -26.689453C16.870117 -26.689453 18.527832 -26.799316 20.046387 -27.019043C21.564941 -27.238770 22.766113 -27.536621 23.649902 -27.912598C24.533691 -28.288574 24.975586 -28.701172 24.975586 -29.150391C24.975586 -29.599609 24.533691 -30.012207 23.649902 -30.388184C22.766113 -30.764160 21.564941 -31.062012 20.046387 -31.281738C18.527832 -31.501465 16.870117 -31.611328 15.073242 -31.611328C13.276367 -31.611328 11.616211 -31.501465 10.092773 -31.281738C8.569336 -31.062012 7.365723 -30.764160 6.481934 -30.388184C5.598145 -30.012207 5.156250 -29.599609 5.156250 -29.150391ZM9.536133 -22.075195C9.536133 -21.762695 9.645996 -21.496582 9.865723 -21.276855C10.085449 -21.057129 10.351562 -20.947266 10.664062 -20.947266L10.986328 -20.947266C11.289062 -20.947266 11.550293 -21.057129 11.770020 -21.276855C11.989746 -21.496582 12.099609 -21.762695 12.099609 -22.075195C12.099609 -22.387695 11.989746 -22.653809 11.770020 -22.873535C11.550293 -23.093262 11.289062 -23.203125 10.986328 -23.203125L10.664062 -23.203125C10.351562 -23.203125 10.085449 -23.093262 9.865723 -22.873535C9.645996 -22.653809 9.536133 -22.387695 9.536133 -22.075195ZM12.099609 -29.150391C12.099609 -29.345703 12.392578 -29.519043 12.978516 -29.670410C13.564453 -29.821777 14.262695 -29.897461 15.073242 -29.897461C15.874023 -29.897461 16.564941 -29.821777 17.145996 -29.670410C17.727051 -29.519043 18.017578 -29.345703 18.017578 -29.150391C18.017578 -28.955078 17.729492 -28.784180 17.153320 -28.637695C16.577148 -28.491211 15.883789 -28.417969 15.073242 -28.417969C14.252930 -28.417969 13.552246 -28.491211 12.971191 -28.637695C12.390137 -28.784180 12.099609 -28.955078 12.099609 -29.150391ZM12.099609 -29.150391"></path></svg>