<svg width="31.640625" height="27.463379" viewBox="0.000000 -52.189941 31.640625 27.463379" xmlns="http://www.w3.org/2000/svg"><path d="M0.000000 -39.797363C0.000000 -41.145020 0.266113 -42.446289 0.798340 -43.701172C1.330566 -44.956055 2.084961 -46.093750 3.061523 -47.114258C4.038086 -48.134766 5.173340 -49.025879 6.467285 -49.787598C7.761230 -50.549316 9.213867 -51.140137 10.825195 -51.560059C12.436523 -51.979980 14.101562 -52.189941 15.820312 -52.189941C17.539062 -52.189941 19.204102 -51.979980 20.815430 -51.560059C22.426758 -51.140137 23.879395 -50.549316 25.173340 -49.787598C26.467285 -49.025879 27.602539 -48.134766 28.579102 -47.114258C29.555664 -46.093750 30.310059 -44.956055 30.842285 -43.701172C31.374512 -42.446289 31.640625 -41.145020 31.640625 -39.797363C31.640625 -38.117676 31.223145 -36.516113 30.388184 -34.992676C29.553223 -33.469238 28.430176 -32.155762 27.019043 -31.052246C25.607910 -29.948730 23.925781 -29.069824 21.972656 -28.415527C20.019531 -27.761230 17.968750 -27.434082 15.820312 -27.434082C13.720703 -27.434082 11.704102 -27.746582 9.770508 -28.371582L6.166992 -25.822754C4.819336 -24.973145 3.872070 -24.726562 3.325195 -25.083008C2.778320 -25.439453 2.656250 -26.442871 2.958984 -28.093262L3.706055 -31.843262C2.524414 -32.937012 1.611328 -34.162598 0.966797 -35.520020C0.322266 -36.877441 0.000000 -38.303223 0.000000 -39.797363ZM0.000000 -39.797363"></path></svg>