<svg width="30.175781" height="28.125000" viewBox="0.952148 -52.895508 30.175781 28.125000" xmlns="http://www.w3.org/2000/svg"><path d="M0.952148 -39.096680L0.952148 -44.721680C0.952148 -45.805664 1.147461 -46.843262 1.538086 -47.834473C1.928711 -48.825684 2.475586 -49.702148 3.178711 -50.463867C3.891602 -51.235352 4.729004 -51.833496 5.690918 -52.258301C6.652832 -52.683105 7.670898 -52.895508 8.745117 -52.895508C9.819336 -52.895508 10.837402 -52.680664 11.799316 -52.250977C12.761230 -51.821289 13.593750 -51.225586 14.296875 -50.463867C15.000000 -49.702148 15.546875 -48.828125 15.937500 -47.841797C16.328125 -46.855469 16.523438 -45.815430 16.523438 -44.721680L16.523438 -40.268555L30.102539 -40.268555C30.385742 -40.268555 30.627441 -40.168457 30.827637 -39.968262C31.027832 -39.768066 31.127930 -39.526367 31.127930 -39.243164L31.127930 -27.436523C31.127930 -27.260742 31.076660 -27.109375 30.974121 -26.982422C30.871582 -26.855469 30.766602 -26.762695 30.659180 -26.704102C30.551758 -26.645508 30.366211 -26.557617 30.102539 -26.440430C29.887695 -26.352539 29.538574 -26.232910 29.055176 -26.081543C28.571777 -25.930176 27.915039 -25.747070 27.084961 -25.532227C26.254883 -25.317383 25.273438 -25.136719 24.140625 -24.990234C23.007812 -24.843750 21.889648 -24.770508 20.786133 -24.770508C17.690430 -24.770508 14.589844 -25.327148 11.484375 -26.440430C11.142578 -26.557617 10.883789 -26.689453 10.708008 -26.835938C10.532227 -26.982422 10.444336 -27.182617 10.444336 -27.436523L10.444336 -39.243164C10.444336 -39.526367 10.546875 -39.768066 10.751953 -39.968262C10.957031 -40.168457 11.201172 -40.268555 11.484375 -40.268555L12.846680 -40.268555L12.846680 -44.721680C12.846680 -45.961914 12.431641 -47.031250 11.601562 -47.929688C10.800781 -48.779297 9.848633 -49.204102 8.745117 -49.204102C7.612305 -49.204102 6.660156 -48.779297 5.888672 -47.929688C5.068359 -47.041016 4.658203 -45.971680 4.658203 -44.721680L4.658203 -43.344727L2.856445 -41.176758L4.658203 -41.176758L4.658203 -39.096680L2.885742 -37.763672ZM0.952148 -39.096680"></path></svg>