<svg width="28.125000" height="27.114258" viewBox="0.000000 -51.386719 28.125000 27.114258" xmlns="http://www.w3.org/2000/svg"><path d="M0.000000 -25.810547L0.000000 -37.192383C0.000000 -37.622070 0.148926 -37.985840 0.446777 -38.283691C0.744629 -38.581543 1.103516 -38.725586 1.523438 -38.715820L5.185547 -38.715820C5.605469 -38.715820 5.964355 -38.566895 6.262207 -38.269043C6.560059 -37.971191 6.708984 -37.612305 6.708984 -37.192383L6.708984 -25.810547C6.708984 -25.390625 6.560059 -25.031738 6.262207 -24.733887C5.964355 -24.436035 5.605469 -24.287109 5.185547 -24.287109L1.523438 -24.287109C1.103516 -24.287109 0.744629 -24.436035 0.446777 -24.733887C0.148926 -25.031738 0.000000 -25.390625 0.000000 -25.810547ZM10.869141 -25.810547L10.869141 -42.539062C10.869141 -42.958984 11.018066 -43.317871 11.315918 -43.615723C11.613770 -43.913574 11.972656 -44.062500 12.392578 -44.062500L16.054688 -44.062500C16.474609 -44.062500 16.833496 -43.913574 17.131348 -43.615723C17.429199 -43.317871 17.578125 -42.958984 17.578125 -42.539062L17.578125 -25.810547C17.578125 -25.390625 17.429199 -25.031738 17.131348 -24.733887C16.833496 -24.436035 16.474609 -24.287109 16.054688 -24.287109L12.392578 -24.287109C11.962891 -24.287109 11.601562 -24.436035 11.308594 -24.733887C11.015625 -25.031738 10.869141 -25.390625 10.869141 -25.810547ZM21.416016 -25.810547L21.416016 -49.848633C21.416016 -50.278320 21.564941 -50.642090 21.862793 -50.939941C22.160645 -51.237793 22.519531 -51.386719 22.939453 -51.386719L26.601562 -51.386719C27.021484 -51.386719 27.380371 -51.235352 27.678223 -50.932617C27.976074 -50.629883 28.125000 -50.268555 28.125000 -49.848633L28.125000 -25.810547C28.125000 -25.390625 27.976074 -25.029297 27.678223 -24.726562C27.380371 -24.423828 27.021484 -24.272461 26.601562 -24.272461L22.939453 -24.272461C22.519531 -24.272461 22.160645 -24.423828 21.862793 -24.726562C21.564941 -25.029297 21.416016 -25.390625 21.416016 -25.810547ZM21.416016 -25.810547"></path></svg>