<svg width="28.125000" height="28.125000" viewBox="0.000000 -52.895508 28.125000 28.125000" xmlns="http://www.w3.org/2000/svg"><path d="M0.000000 -38.833008C0.000000 -40.737305 0.371094 -42.558594 1.113281 -44.296875C1.855469 -46.035156 2.854004 -47.531738 4.108887 -48.786621C5.363770 -50.041504 6.860352 -51.040039 8.598633 -51.782227C10.336914 -52.524414 12.158203 -52.895508 14.062500 -52.895508C15.966797 -52.895508 17.788086 -52.524414 19.526367 -51.782227C21.264648 -51.040039 22.761230 -50.039062 24.016113 -48.779297C25.270996 -47.519531 26.269531 -46.022949 27.011719 -44.289551C27.753906 -42.556152 28.125000 -40.737305 28.125000 -38.833008C28.125000 -36.918945 27.753906 -35.095215 27.011719 -33.361816C26.269531 -31.628418 25.270996 -30.134277 24.016113 -28.879395C22.761230 -27.624512 21.264648 -26.625977 19.526367 -25.883789C17.788086 -25.141602 15.966797 -24.770508 14.062500 -24.770508C12.158203 -24.770508 10.336914 -25.141602 8.598633 -25.883789C6.860352 -26.625977 5.363770 -27.624512 4.108887 -28.879395C2.854004 -30.134277 1.855469 -31.628418 1.113281 -33.361816C0.371094 -35.095215 0.000000 -36.918945 0.000000 -38.833008ZM7.412109 -35.581055L10.502930 -35.581055L13.081055 -40.224609L11.367188 -43.168945L8.232422 -43.168945L9.990234 -40.151367ZM12.509766 -37.148438L15.864258 -31.098633L18.969727 -31.098633L15.673828 -37.148438L20.712891 -46.171875L17.607422 -46.171875ZM12.509766 -37.148438"></path></svg>