<svg width="13.198242" height="26.704102" viewBox="0.688477 -47.709961 13.198242 26.704102" xmlns="http://www.w3.org/2000/svg"><path d="M0.688477 -21.005859C1.010742 -21.601562 1.240234 -22.319336 1.376953 -23.159180L3.925781 -39.125977L1.918945 -39.125977L2.153320 -40.590820L4.174805 -40.590820C4.428711 -42.250977 4.643555 -43.383789 4.819336 -43.989258C5.434570 -46.118164 6.513672 -47.333984 8.056641 -47.636719C8.320312 -47.685547 8.603516 -47.709961 8.906250 -47.709961C9.863281 -47.709961 10.483398 -47.607422 10.766602 -47.402344L10.415039 -45.996094C9.907227 -46.191406 9.423828 -46.289062 8.964844 -46.289062C8.613281 -46.289062 8.295898 -46.232910 8.012695 -46.120605C7.729492 -46.008301 7.490234 -45.866699 7.294922 -45.695801C7.099609 -45.524902 6.921387 -45.297852 6.760254 -45.014648C6.599121 -44.731445 6.474609 -44.462891 6.386719 -44.208984C6.298828 -43.955078 6.215820 -43.645020 6.137695 -43.278809C6.059570 -42.912598 6.003418 -42.600098 5.969238 -42.341309C5.935059 -42.082520 5.893555 -41.772461 5.844727 -41.411133C5.795898 -41.049805 5.756836 -40.776367 5.727539 -40.590820L9.125977 -40.590820L8.876953 -39.125977L5.493164 -39.125977L3.002930 -23.349609C2.934570 -22.910156 2.836914 -22.495117 2.709961 -22.104492C2.583008 -21.713867 2.475586 -21.430664 2.387695 -21.254883L2.255859 -21.005859ZM9.096680 -27.670898C9.096680 -28.110352 9.135742 -28.559570 9.213867 -29.018555L10.708008 -38.525391C10.766602 -38.984375 10.795898 -39.365234 10.795898 -39.667969C10.795898 -39.853516 10.788574 -40.029297 10.773926 -40.195312C10.759277 -40.361328 10.742188 -40.478516 10.722656 -40.546875L10.708008 -40.649414L12.275391 -40.649414C12.333984 -40.434570 12.363281 -40.117188 12.363281 -39.697266C12.363281 -39.257812 12.324219 -38.798828 12.246094 -38.320312L10.737305 -28.798828C10.698242 -28.535156 10.678711 -28.168945 10.678711 -27.700195C10.678711 -27.514648 10.686035 -27.338867 10.700684 -27.172852C10.715332 -27.006836 10.732422 -26.889648 10.751953 -26.821289L10.766602 -26.704102L9.184570 -26.704102C9.125977 -26.928711 9.096680 -27.250977 9.096680 -27.670898ZM11.308594 -45.336914C11.308594 -45.737305 11.459961 -46.096191 11.762695 -46.413574C12.065430 -46.730957 12.412109 -46.889648 12.802734 -46.889648C13.115234 -46.889648 13.374023 -46.782227 13.579102 -46.567383C13.784180 -46.352539 13.886719 -46.093750 13.886719 -45.791016C13.886719 -45.380859 13.737793 -45.021973 13.439941 -44.714355C13.142090 -44.406738 12.792969 -44.252930 12.392578 -44.252930C12.080078 -44.252930 11.821289 -44.357910 11.616211 -44.567871C11.411133 -44.777832 11.308594 -45.034180 11.308594 -45.336914ZM11.308594 -45.336914"></path></svg>