<svg width="13.022461" height="21.035156" viewBox="0.483398 -42.070312 13.022461 21.035156" xmlns="http://www.w3.org/2000/svg"><path d="M0.483398 -32.944336L0.483398 -35.258789L2.519531 -35.258789L2.519531 -36.811523C2.519531 -38.325195 2.817383 -39.526367 3.413086 -40.415039C3.764648 -40.893555 4.245605 -41.289062 4.855957 -41.601562C5.466309 -41.914062 6.186523 -42.070312 7.016602 -42.070312C7.436523 -42.070312 7.834473 -42.041016 8.210449 -41.982422C8.586426 -41.923828 8.857422 -41.865234 9.023438 -41.806641L9.272461 -41.733398L9.052734 -39.609375C8.652344 -39.785156 8.154297 -39.873047 7.558594 -39.873047C7.109375 -39.873047 6.733398 -39.794922 6.430664 -39.638672C6.127930 -39.482422 5.903320 -39.252930 5.756836 -38.950195C5.610352 -38.647461 5.510254 -38.334961 5.456543 -38.012695C5.402832 -37.690430 5.375977 -37.299805 5.375977 -36.840820L5.375977 -35.258789L8.759766 -35.258789L8.759766 -32.944336L5.375977 -32.944336L5.375977 -21.035156L2.519531 -21.035156L2.519531 -32.944336ZM10.620117 -21.035156L10.620117 -41.733398L13.505859 -41.733398L13.505859 -21.035156ZM10.620117 -21.035156"></path></svg>