<svg width="12.714844" height="26.704102" viewBox="0.688477 -47.709961 12.714844 26.704102" xmlns="http://www.w3.org/2000/svg"><path d="M0.688477 -21.005859C1.010742 -21.601562 1.240234 -22.319336 1.376953 -23.159180L3.925781 -39.125977L1.918945 -39.125977L2.153320 -40.590820L4.174805 -40.590820C4.428711 -42.250977 4.643555 -43.383789 4.819336 -43.989258C5.434570 -46.118164 6.513672 -47.333984 8.056641 -47.636719C8.320312 -47.685547 8.603516 -47.709961 8.906250 -47.709961C9.863281 -47.709961 10.483398 -47.607422 10.766602 -47.402344L10.415039 -45.996094C9.907227 -46.191406 9.423828 -46.289062 8.964844 -46.289062C8.613281 -46.289062 8.295898 -46.232910 8.012695 -46.120605C7.729492 -46.008301 7.490234 -45.866699 7.294922 -45.695801C7.099609 -45.524902 6.921387 -45.297852 6.760254 -45.014648C6.599121 -44.731445 6.474609 -44.462891 6.386719 -44.208984C6.298828 -43.955078 6.215820 -43.645020 6.137695 -43.278809C6.059570 -42.912598 6.003418 -42.600098 5.969238 -42.341309C5.935059 -42.082520 5.893555 -41.772461 5.844727 -41.411133C5.795898 -41.049805 5.756836 -40.776367 5.727539 -40.590820L9.125977 -40.590820L8.876953 -39.125977L5.493164 -39.125977L3.002930 -23.349609C2.934570 -22.910156 2.836914 -22.495117 2.709961 -22.104492C2.583008 -21.713867 2.475586 -21.430664 2.387695 -21.254883L2.255859 -21.005859ZM9.052734 -27.670898C9.052734 -28.061523 9.096680 -28.510742 9.184570 -29.018555L11.762695 -45.278320C11.821289 -45.737305 11.850586 -46.118164 11.850586 -46.420898C11.850586 -46.606445 11.843262 -46.782227 11.828613 -46.948242C11.813965 -47.114258 11.796875 -47.231445 11.777344 -47.299805L11.762695 -47.402344L13.315430 -47.402344C13.374023 -47.187500 13.403320 -46.870117 13.403320 -46.450195C13.403320 -46.000977 13.364258 -45.537109 13.286133 -45.058594L10.708008 -28.798828C10.668945 -28.535156 10.649414 -28.168945 10.649414 -27.700195C10.649414 -27.514648 10.656738 -27.338867 10.671387 -27.172852C10.686035 -27.006836 10.703125 -26.889648 10.722656 -26.821289L10.737305 -26.704102L9.155273 -26.704102C9.086914 -26.928711 9.052734 -27.250977 9.052734 -27.670898ZM9.052734 -27.670898"></path></svg>