<svg width="20.009766" height="26.704102" viewBox="0.688477 -47.709961 20.009766 26.704102" xmlns="http://www.w3.org/2000/svg"><path d="M0.688477 -21.005859C1.010742 -21.601562 1.240234 -22.319336 1.376953 -23.159180L3.925781 -39.125977L1.918945 -39.125977L2.153320 -40.590820L4.174805 -40.590820C4.428711 -42.250977 4.643555 -43.383789 4.819336 -43.989258C5.434570 -46.118164 6.513672 -47.333984 8.056641 -47.636719C8.320312 -47.685547 8.603516 -47.709961 8.906250 -47.709961C9.863281 -47.709961 10.483398 -47.607422 10.766602 -47.402344L10.415039 -45.996094C9.907227 -46.191406 9.423828 -46.289062 8.964844 -46.289062C8.613281 -46.289062 8.295898 -46.232910 8.012695 -46.120605C7.729492 -46.008301 7.490234 -45.866699 7.294922 -45.695801C7.099609 -45.524902 6.921387 -45.297852 6.760254 -45.014648C6.599121 -44.731445 6.474609 -44.462891 6.386719 -44.208984C6.298828 -43.955078 6.215820 -43.645020 6.137695 -43.278809C6.059570 -42.912598 6.003418 -42.600098 5.969238 -42.341309C5.935059 -42.082520 5.893555 -41.772461 5.844727 -41.411133C5.795898 -41.049805 5.756836 -40.776367 5.727539 -40.590820L11.162109 -40.590820C11.416016 -42.250977 11.630859 -43.383789 11.806641 -43.989258C12.421875 -46.118164 13.500977 -47.333984 15.043945 -47.636719C15.307617 -47.685547 15.590820 -47.709961 15.893555 -47.709961C16.850586 -47.709961 17.470703 -47.607422 17.753906 -47.402344L17.402344 -45.996094C16.894531 -46.191406 16.416016 -46.289062 15.966797 -46.289062C15.566406 -46.289062 15.209961 -46.223145 14.897461 -46.091309C14.584961 -45.959473 14.323730 -45.761719 14.113770 -45.498047C13.903809 -45.234375 13.728027 -44.968262 13.586426 -44.699707C13.444824 -44.431152 13.325195 -44.089355 13.227539 -43.674316C13.129883 -43.259277 13.056641 -42.910156 13.007812 -42.626953C12.958984 -42.343750 12.905273 -41.979980 12.846680 -41.535645C12.788086 -41.091309 12.744141 -40.776367 12.714844 -40.590820L16.113281 -40.590820L15.864258 -39.125977L12.480469 -39.125977L9.990234 -23.349609C9.921875 -22.910156 9.824219 -22.495117 9.697266 -22.104492C9.570312 -21.713867 9.462891 -21.430664 9.375000 -21.254883L9.243164 -21.005859L7.675781 -21.005859C7.998047 -21.601562 8.227539 -22.319336 8.364258 -23.159180L10.913086 -39.125977L5.493164 -39.125977L3.002930 -23.349609C2.934570 -22.910156 2.836914 -22.495117 2.709961 -22.104492C2.583008 -21.713867 2.475586 -21.430664 2.387695 -21.254883L2.255859 -21.005859ZM15.893555 -27.670898C15.893555 -28.061523 15.937500 -28.510742 16.025391 -29.018555L17.519531 -38.525391C17.578125 -38.974609 17.607422 -39.355469 17.607422 -39.667969C17.607422 -39.853516 17.600098 -40.029297 17.585449 -40.195312C17.570801 -40.361328 17.558594 -40.478516 17.548828 -40.546875L17.519531 -40.649414L19.086914 -40.649414C19.145508 -40.434570 19.174805 -40.117188 19.174805 -39.697266C19.174805 -39.316406 19.130859 -38.857422 19.042969 -38.320312L17.548828 -28.798828C17.509766 -28.535156 17.490234 -28.168945 17.490234 -27.700195C17.490234 -27.514648 17.497559 -27.338867 17.512207 -27.172852C17.526855 -27.006836 17.539062 -26.889648 17.548828 -26.821289L17.578125 -26.704102L15.996094 -26.704102C15.927734 -26.928711 15.893555 -27.250977 15.893555 -27.670898ZM18.120117 -45.336914C18.120117 -45.737305 18.271484 -46.096191 18.574219 -46.413574C18.876953 -46.730957 19.223633 -46.889648 19.614258 -46.889648C19.926758 -46.889648 20.185547 -46.782227 20.390625 -46.567383C20.595703 -46.352539 20.698242 -46.093750 20.698242 -45.791016C20.698242 -45.380859 20.549316 -45.021973 20.251465 -44.714355C19.953613 -44.406738 19.604492 -44.252930 19.204102 -44.252930C18.891602 -44.252930 18.632812 -44.357910 18.427734 -44.567871C18.222656 -44.777832 18.120117 -45.034180 18.120117 -45.336914ZM18.120117 -45.336914"></path></svg>