<?xml version="1.0" encoding="iso-8859-1"?>
<!-- Generator: Adobe Illustrator 19.1.0, SVG Export Plug-In . SVG Version: 6.00 Build 0)  -->
<svg version="1.1" id="Capa_1" xmlns="http://www.w3.org/2000/svg" xmlns:xlink="http://www.w3.org/1999/xlink" x="0px" y="0px"
	 viewBox="0 0 479 479" style="enable-background:new 0 0 479 479;" xml:space="preserve">
<g>
	<g>
		<path d="M158.4,196.8c-5.3,5.3-5.3,13.8,0,19.1l71.6,71.6c2.6,2.6,6.1,4,9.5,4s6.9-1.3,9.5-4l71.6-71.6c5.3-5.3,5.3-13.8,0-19.1
			s-13.8-5.3-19.1,0L253,245.3V13.5C253,6,247,0,239.5,0S226,6,226,13.5v231.8l-48.5-48.5C172.2,191.5,163.6,191.5,158.4,196.8z"/>
		<path d="M460.2,307.4l-47-170c-1.1-3.9-3.8-7-7.4-8.7l-1.3-0.6c-1.8-0.8-3.7-1.2-5.6-1.2h-84.7c-7.5,0-13.5,6-13.5,13.5
			s6,13.5,13.5,13.5h75.6l39.7,143.8h-105c-7.5,0-13.5,6-13.5,13.5v12.2c0,17.9-14.5,32.4-32.4,32.4h-82.4
			c-17.9,0-32.4-14.5-32.4-32.4v-12.2c0-7.5-6-13.5-13.5-13.5H49.4l39.9-144.1h75.6c7.5,0,13.5-6,13.5-13.5s-6-13.5-13.5-13.5H80.1
			c-1.9,0-3.8,0.4-5.6,1.2l-1.3,0.6c-3.6,1.7-6.4,4.8-7.4,8.7l-47,170c-0.3,1.2-0.5,2.4-0.5,3.6v70.9c0,53.7,43.7,97.4,97.4,97.4
			h247.6c53.7,0,97.4-43.7,97.4-97.4V311C460.7,309.7,460.6,308.5,460.2,307.4z M433.7,381.6c0,38.8-31.6,70.4-70.4,70.4H115.7
			c-38.8,0-70.4-31.6-70.4-70.4v-56.9H137c0.7,32.1,27.1,58,59.4,58h82.4c32.3,0,58.7-25.9,59.4-58h95.7v56.9H433.7z"/>
	</g>
</g>
<g>
</g>
<g>
</g>
<g>
</g>
<g>
</g>
<g>
</g>
<g>
</g>
<g>
</g>
<g>
</g>
<g>
</g>
<g>
</g>
<g>
</g>
<g>
</g>
<g>
</g>
<g>
</g>
<g>
</g>
</svg>
