<?xml version="1.0" encoding="utf-8"?>
<!-- Generator: Adobe Illustrator 19.2.1, SVG Export Plug-In . SVG Version: 6.00 Build 0)  -->
<svg version="1.1" xmlns="http://www.w3.org/2000/svg" xmlns:xlink="http://www.w3.org/1999/xlink" x="0px" y="0px" width="24px"
	 height="24px" viewBox="0 0 24 24" enable-background="new 0 0 24 24" xml:space="preserve">
<g id="Filled_Icons_1_">
	<g>
		<path d="M12,5.981c-3.859,0-7,3.141-7,7c0,1.315,0.368,2.599,1.063,3.711c0.147,0.234,0.456,0.306,0.689,0.158
			c0.233-0.146,0.305-0.455,0.158-0.689C6.315,15.208,6,14.108,6,12.981c0-3.309,2.691-6,6-6s6,2.691,6,6
			c0,1.135-0.318,2.239-0.92,3.193c-0.147,0.233-0.077,0.542,0.156,0.69c0.083,0.053,0.175,0.077,0.267,0.077
			c0.165,0,0.328-0.083,0.423-0.233C18.629,15.593,19,14.304,19,12.981C19,9.121,15.859,5.981,12,5.981z"/>
		<path d="M11.646,4.834C11.744,4.932,11.872,4.981,12,4.981s0.256-0.049,0.354-0.147l2-2c0.195-0.195,0.195-0.512,0-0.707
			c-0.195-0.195-0.512-0.195-0.707,0L12,3.773l-1.646-1.646c-0.195-0.195-0.512-0.195-0.707,0c-0.195,0.195-0.195,0.512,0,0.707
			L11.646,4.834z"/>
		<path d="M20.707,11.981l1.646-1.647c0.195-0.195,0.195-0.512,0-0.707c-0.195-0.195-0.512-0.195-0.707,0l-2,2
			c-0.195,0.195-0.195,0.512,0,0.707l2,2c0.098,0.098,0.226,0.147,0.354,0.147s0.256-0.049,0.354-0.147
			c0.195-0.195,0.195-0.512,0-0.707L20.707,11.981z"/>
		<path d="M2.353,9.627c-0.195-0.195-0.512-0.195-0.707,0c-0.195,0.195-0.195,0.512,0,0.707l1.646,1.647l-1.646,1.646
			c-0.195,0.195-0.195,0.512,0,0.707C1.744,14.432,1.872,14.481,2,14.481s0.256-0.049,0.353-0.147l2-2
			c0.195-0.195,0.195-0.512,0-0.707L2.353,9.627z"/>
		<path d="M12,9c-2.206,0-4,1.795-4,4v9.5C8,22.777,8.224,23,8.5,23h7c0.276,0,0.5-0.223,0.5-0.5V13C16,10.795,14.205,9,12,9z
			 M14,14.5c0,0.277-0.224,0.5-0.5,0.5h-3c-0.276,0-0.5-0.223-0.5-0.5V13c0-1.104,0.896-2,2-2c1.102,0,2,0.896,2,2V14.5z"/>
	</g>
</g>
<g id="Invisible_Shape">
	<rect fill="none" width="24" height="24"/>
</g>
</svg>
