<?xml version="1.0" encoding="utf-8"?>
<!-- Generator: Adobe Illustrator 19.2.1, SVG Export Plug-In . SVG Version: 6.00 Build 0)  -->
<svg version="1.1" xmlns="http://www.w3.org/2000/svg" xmlns:xlink="http://www.w3.org/1999/xlink" x="0px" y="0px" width="24px"
	 height="24px" viewBox="0 0 24 24" enable-background="new 0 0 24 24" xml:space="preserve">
<g id="Outline_Icons_1_">
	<g>
		<g>
			<path fill="none" stroke="#000000" stroke-linecap="round" stroke-linejoin="round" stroke-miterlimit="10" d="M11.5,5.5
				c-1.643,0-3.089,0.723-4,1.825v5.351c0.911,1.102,2.357,1.825,4,1.825c1.131,0,2.162-0.351,3-0.92v7.92h2V10
				C16.5,7.515,14.262,5.5,11.5,5.5z"/>
			<path fill="none" stroke="#000000" stroke-linecap="round" stroke-linejoin="round" stroke-miterlimit="10" d="M16.5,22.5
				c0,0.552-0.448,1-1,1c-0.552,0-1-0.448-1-1v-1h2V22.5z"/>
			<path fill="none" stroke="#000000" stroke-linecap="round" stroke-linejoin="round" stroke-miterlimit="10" d="M15,1.5L15,1.5
				c3.59,0,6.5,2.91,6.5,6.5"/>
			<path fill="none" stroke="#000000" stroke-linecap="round" stroke-linejoin="round" stroke-miterlimit="10" d="M15,3.5
				c2.485,0,4.5,2.015,4.5,4.5"/>
			<path fill="none" stroke="#000000" stroke-linecap="round" stroke-linejoin="round" stroke-miterlimit="10" d="M9,1.5L9,1.5
				C5.41,1.5,2.5,4.41,2.5,8"/>
			<path fill="none" stroke="#000000" stroke-linecap="round" stroke-linejoin="round" stroke-miterlimit="10" d="M9,3.5
				C6.514,3.5,4.5,5.515,4.5,8"/>
		</g>
		<g>
			<path d="M10.25,9C9.836,9,9.5,9.336,9.5,9.75s0.336,0.75,0.75,0.75S11,10.164,11,9.75S10.664,9,10.25,9L10.25,9z"/>
		</g>
	</g>
</g>
<g id="Invisible_Shape">
	<rect fill="none" width="24" height="24"/>
</g>
</svg>
