<?xml version="1.0" encoding="utf-8"?>
<!-- Generator: Adobe Illustrator 19.2.1, SVG Export Plug-In . SVG Version: 6.00 Build 0)  -->
<svg version="1.1" xmlns="http://www.w3.org/2000/svg" xmlns:xlink="http://www.w3.org/1999/xlink" x="0px" y="0px" width="24px"
	 height="24px" viewBox="0 0 24 24" enable-background="new 0 0 24 24" xml:space="preserve">
<g id="Outline_Icons_1_">
	<g>
		<path fill="none" stroke="#000000" stroke-linecap="round" stroke-linejoin="round" stroke-miterlimit="10" d="M3.404,7.307
			L3.404,7.307c-2.539,2.539-2.539,6.654,0,9.193"/>
		<path fill="none" stroke="#000000" stroke-linecap="round" stroke-linejoin="round" stroke-miterlimit="10" d="M4.818,8.722
			c-1.757,1.757-1.757,4.607,0,6.364"/>
		<path fill="none" stroke="#000000" stroke-linecap="round" stroke-linejoin="round" stroke-miterlimit="10" d="M21.596,7.307
			L21.596,7.307c2.539,2.539,2.539,6.654,0,9.193"/>
		<path fill="none" stroke="#000000" stroke-linecap="round" stroke-linejoin="round" stroke-miterlimit="10" d="M20.182,8.722
			c1.757,1.757,1.757,4.607,0,6.364"/>
		<path fill="none" stroke="#000000" stroke-linecap="round" stroke-linejoin="round" stroke-miterlimit="10" d="M18.5,21.5
			c0,1.105-0.895,2-2,2h-8c-1.105,0-2-0.895-2-2v-19c0-1.105,0.895-2,2-2h8c1.105,0,2,0.895,2,2V21.5z"/>
		
			<circle fill="none" stroke="#000000" stroke-linecap="round" stroke-linejoin="round" stroke-miterlimit="10" cx="12.5" cy="21" r="0.5"/>
		
			<line fill="none" stroke="#000000" stroke-linecap="round" stroke-linejoin="round" stroke-miterlimit="10" x1="11.5" y1="2.5" x2="13.5" y2="2.5"/>
		<polygon fill="none" stroke="#000000" stroke-linecap="round" stroke-linejoin="round" stroke-miterlimit="10" points="10.5,9.5 
			10.5,14.5 14.5,12 		"/>
	</g>
</g>
<g id="Invisible_Shape">
	<rect fill="none" width="24" height="24"/>
</g>
</svg>
