<?xml version="1.0" encoding="utf-8"?>
<!-- Generator: Adobe Illustrator 19.2.1, SVG Export Plug-In . SVG Version: 6.00 Build 0)  -->
<svg version="1.1" xmlns="http://www.w3.org/2000/svg" xmlns:xlink="http://www.w3.org/1999/xlink" x="0px" y="0px" width="24px"
	 height="24px" viewBox="0 0 24 24" enable-background="new 0 0 24 24" xml:space="preserve">
<g id="Outline_Icons_1_">
	<g>
		<path fill="none" stroke="#000000" stroke-linecap="round" stroke-linejoin="round" stroke-miterlimit="10" d="M22.5,23.5v-20
			c0-1.657-1.343-3-3-3h-16c-1.657,0-3,1.343-3,3v20"/>
		
			<circle fill="none" stroke="#000000" stroke-linecap="round" stroke-linejoin="round" stroke-miterlimit="10" cx="5.5" cy="5.5" r="1"/>
		
			<circle fill="none" stroke="#000000" stroke-linecap="round" stroke-linejoin="round" stroke-miterlimit="10" cx="9.5" cy="5.5" r="1"/>
		<path fill="none" stroke="#000000" stroke-linecap="round" stroke-linejoin="round" stroke-miterlimit="10" d="M12.5,5.5
			c0,1.657-1.343,3-3,3h-4c-1.657,0-3-1.343-3-3s1.343-3,3-3h4C11.157,2.5,12.5,3.843,12.5,5.5z"/>
		
			<circle fill="none" stroke="#000000" stroke-linecap="round" stroke-linejoin="round" stroke-miterlimit="10" cx="15" cy="5.5" r="0.5"/>
		<g>
			<path fill="none" stroke="#000000" stroke-linejoin="round" stroke-miterlimit="10" d="M12.841,18.198
				c-0.006-0.622,0.507-0.92,0.531-0.935c-0.289-0.422-0.738-0.48-0.899-0.487c-0.382-0.039-0.746,0.225-0.941,0.225
				c-0.193,0-0.493-0.22-0.81-0.214c-0.417,0.007-0.802,0.243-1.017,0.616c-0.433,0.752-0.11,1.865,0.312,2.475
				c0.206,0.298,0.452,0.633,0.775,0.621c0.311-0.012,0.429-0.201,0.805-0.201c0.376,0,0.482,0.201,0.811,0.195
				c0.335-0.006,0.547-0.304,0.752-0.603c0.237-0.347,0.334-0.681,0.34-0.699C13.492,19.188,12.847,18.941,12.841,18.198z"/>
		</g>
		
			<line fill="none" stroke="#000000" stroke-linecap="round" stroke-linejoin="round" stroke-miterlimit="10" x1="12" y1="15.5" x2="12.451" y2="15.049"/>
	</g>
</g>
<g id="Invisible_Shape">
	<rect fill="none" width="24" height="24"/>
</g>
</svg>
