<svg xmlns="http://www.w3.org/2000/svg" width="54" height="58" viewBox="0 0 54 58"><defs><filter id="a" width="200%" height="200%" x="-50%" y="-50%" filterUnits="objectBoundingBox"><feOffset dy="1" in="SourceAlpha" result="shadowOffsetOuter1"/><feGaussianBlur stdDeviation="10" in="shadowOffsetOuter1" result="shadowBlurOuter1"/><feColorMatrix values="0 0 0 0 0 0 0 0 0 0 0 0 0 0 0 0 0 0 0.1 0" in="shadowBlurOuter1" result="shadowMatrixOuter1"/><feMerge><feMergeNode in="shadowMatrixOuter1"/><feMergeNode in="SourceGraphic"/></feMerge></filter></defs><path fill-rule="evenodd" d="M27 38c-3 0-8-7.582-8-12s3.582-8 8-8 8 3.582 8 8-5 12-8 12zm0-2c.523 0 2.066-1.351 3.459-3.449 1.533-2.309 2.541-4.914 2.541-6.551 0-3.314-2.686-6-6-6s-6 2.686-6 6c0 1.637 1.008 4.241 2.541 6.551 1.393 2.098 2.936 3.449 3.459 3.449zm0-8c1.105 0 2-.895 2-2s-.895-2-2-2-2 .895-2 2 .895 2 2 2z" filter="url(#a)"/></svg>