<svg xmlns="http://www.w3.org/2000/svg" width="57" height="57" viewBox="0 0 57 57"><defs><filter id="a" width="200%" height="200%" x="-50%" y="-50%" filterUnits="objectBoundingBox"><feOffset dy="1" in="SourceAlpha" result="shadowOffsetOuter1"/><feGaussianBlur stdDeviation="10" in="shadowOffsetOuter1" result="shadowBlurOuter1"/><feColorMatrix values="0 0 0 0 0 0 0 0 0 0 0 0 0 0 0 0 0 0 0.1 0" in="shadowBlurOuter1" result="shadowMatrixOuter1"/><feMerge><feMergeNode in="shadowMatrixOuter1"/><feMergeNode in="SourceGraphic"/></feMerge></filter></defs><path fill-rule="evenodd" d="M34.243 33.243c-3.515 3.515-9.213 3.515-12.728 0-3.515-3.515-3.515-9.213 0-12.728 3.515-3.515 9.213-3.515 12.728 0 3.515 3.515 3.515 9.213 0 12.728zm-1.414-1.414c2.734-2.734 2.734-7.166 0-9.899-2.734-2.734-7.166-2.734-9.899 0-2.734 2.734-2.734 7.166 0 9.899 2.734 2.734 7.166 2.734 9.899 0zm2.121 3.536l1.414-1.414 2.115 2.115c.394.394.4 1.028.007 1.421-.391.391-1.021.394-1.421-.007l-2.115-2.115z" filter="url(#a)"/></svg>