<svg xmlns="http://www.w3.org/2000/svg" width="58" height="60" viewBox="0 0 58 60"><defs><filter id="a" width="200%" height="200%" x="-50%" y="-50%" filterUnits="objectBoundingBox"><feOffset dy="1" in="SourceAlpha" result="shadowOffsetOuter1"/><feGaussianBlur stdDeviation="10" in="shadowOffsetOuter1" result="shadowBlurOuter1"/><feColorMatrix values="0 0 0 0 0 0 0 0 0 0 0 0 0 0 0 0 0 0 0.1 0" in="shadowBlurOuter1" result="shadowMatrixOuter1"/><feMerge><feMergeNode in="shadowMatrixOuter1"/><feMergeNode in="SourceGraphic"/></feMerge></filter></defs><path fill-rule="evenodd" d="M36 29.5v6.497c0 .55-.453 1.003-.993 1.003h-12.015c-.548 0-.993-.446-.993-1.003v-8.997h14v2.5m-16-2.5h18v8.997c0 1.659-1.353 3.003-2.993 3.003h-12.015c-1.653 0-2.993-1.342-2.993-3.003v-8.997m17.009-8c1.099 0 1.991.898 1.991 1.998v2.992c0 .558-.455 1.01-.992 1.01h-18.016c-.548 0-.992-.444-.992-1.01v-2.992c0-1.103.898-1.998 1.99-1.998h16.019m-16.009 2h16v2h-16v-2m6 8c0-.552.443-1 1.009-1h1.981c.557 0 1.009.444 1.009 1 0 .552-.443 1-1.009 1h-1.981c-.557 0-1.009-.444-1.009-1" filter="url(#a)"/></svg>