<?xml version="1.0" encoding="utf-8"?>
<!-- Generator: Adobe Illustrator 16.0.0, SVG Export Plug-In . SVG Version: 6.00 Build 0)  -->
<!DOCTYPE svg PUBLIC "-//W3C//DTD SVG 1.1//EN" "http://www.w3.org/Graphics/SVG/1.1/DTD/svg11.dtd">
<svg version="1.1" id="Layer_1" xmlns="http://www.w3.org/2000/svg" xmlns:xlink="http://www.w3.org/1999/xlink" x="0px" y="0px"
	 width="64px" height="64px" viewBox="0 0 64 64" enable-background="new 0 0 64 64" xml:space="preserve">
<g>
	<g>
		<g>
			<path fill="none" stroke="#000000" stroke-width="2" stroke-miterlimit="10" d="M33,1c0.666,0,1.333,0.022,1.998,0.066"/>
			<path fill="none" stroke="#000000" stroke-width="2" stroke-miterlimit="10" stroke-dasharray="4.1705,2.0853" d="M37.071,1.276
				c6.27,0.854,12.321,3.691,17.141,8.511C64.91,20.484,65.841,37.248,57.003,49l-3.846,3.846"/>
			<line fill="none" stroke="#000000" stroke-width="2" stroke-miterlimit="10" x1="52.416" y1="53.588" x2="51.002" y2="55.002"/>
		</g>
	</g>
</g>
<g>
	<g>
		<g>
			<path fill="none" stroke="#000000" stroke-width="2" stroke-miterlimit="10" d="M31,63c-0.666,0-1.333-0.022-1.998-0.066"/>
			<path fill="none" stroke="#000000" stroke-width="2" stroke-miterlimit="10" stroke-dasharray="4.1705,2.0853" d="M26.929,62.724
				c-6.27-0.854-12.321-3.691-17.141-8.511C-0.91,43.516-1.841,26.752,6.997,15l3.846-3.846"/>
			<line fill="none" stroke="#000000" stroke-width="2" stroke-miterlimit="10" x1="11.584" y1="10.412" x2="12.998" y2="8.998"/>
		</g>
	</g>
</g>
<polyline fill="none" stroke="#000000" stroke-width="2" stroke-linejoin="bevel" stroke-miterlimit="10" points="51,44 51,55 
	62,55 "/>
<polyline fill="none" stroke="#000000" stroke-width="2" stroke-linejoin="bevel" stroke-miterlimit="10" points="13,20 13,9 2,9 
	"/>
</svg>
