<?xml version="1.0" encoding="utf-8"?>
<!-- Generator: Adobe Illustrator 16.0.0, SVG Export Plug-In . SVG Version: 6.00 Build 0)  -->
<!DOCTYPE svg PUBLIC "-//W3C//DTD SVG 1.1//EN" "http://www.w3.org/Graphics/SVG/1.1/DTD/svg11.dtd">
<svg version="1.1" id="Layer_1" xmlns="http://www.w3.org/2000/svg" xmlns:xlink="http://www.w3.org/1999/xlink" x="0px" y="0px"
	 width="64px" height="64px" viewBox="0 0 64 64" enable-background="new 0 0 64 64" xml:space="preserve">
<line fill="none" stroke="#010101" stroke-width="2" stroke-miterlimit="10" x1="0" y1="47" x2="64" y2="47"/>
<polyline fill="none" stroke="#010101" stroke-width="2" stroke-linejoin="bevel" stroke-miterlimit="10" points="25,53 32,60 
	39,53 "/>
<path fill="none" stroke="#010101" stroke-width="2" stroke-miterlimit="10" d="M48.158,47C49.96,44.096,51,40.669,51,37
	c0-10.493-8.506-19-19-19c-0.059,0-0.115,0.008-0.175,0.009C32.574,19.688,33,21.543,33,23.5C33,30.956,26.956,37,19.5,37
	c-2.323,0-4.51-0.588-6.418-1.621C13.037,35.914,13,36.453,13,37c0,3.668,1.039,7.094,2.841,9.998"/>
</svg>
