<?xml version="1.0" encoding="utf-8"?>
<!-- Generator: Adobe Illustrator 16.0.0, SVG Export Plug-In . SVG Version: 6.00 Build 0)  -->
<!DOCTYPE svg PUBLIC "-//W3C//DTD SVG 1.1//EN" "http://www.w3.org/Graphics/SVG/1.1/DTD/svg11.dtd">
<svg version="1.1" id="Layer_1" xmlns="http://www.w3.org/2000/svg" xmlns:xlink="http://www.w3.org/1999/xlink" x="0px" y="0px"
	 width="64px" height="64px" viewBox="0 0 64 64" enable-background="new 0 0 64 64" xml:space="preserve">
<path fill="none" stroke="#000000" stroke-width="2" stroke-miterlimit="10" d="M18,40h-7C5.292,40,1,35.708,1,30s4.292-11,10-11
	c0.835,0,2,0,2,0C14.8,9.423,23.898,3,34,3c11.414,0,21,8.586,21,20c4.565,0,8,4.435,8,9c0,4.565-3.435,8-8,8h-9"/>
<polyline fill="none" stroke="#000000" stroke-width="2" stroke-miterlimit="10" points="21,37 23,40 21,43 "/>
<polyline fill="none" stroke="#000000" stroke-width="2" stroke-miterlimit="10" points="43,43 41,40 43,37 "/>
<line fill="none" stroke="#000000" stroke-width="2" stroke-miterlimit="10" x1="30" y1="40" x2="23" y2="40"/>
<line fill="none" stroke="#000000" stroke-width="2" stroke-miterlimit="10" x1="41" y1="40" x2="34" y2="40"/>
<polyline fill="none" stroke="#000000" stroke-width="2" stroke-miterlimit="10" points="29,51 32,49 35,51 "/>
<polyline fill="none" stroke="#000000" stroke-width="2" stroke-miterlimit="10" points="35,29 32,31 29,29 "/>
<line fill="none" stroke="#000000" stroke-width="2" stroke-miterlimit="10" x1="32" y1="42" x2="32" y2="49"/>
<line fill="none" stroke="#000000" stroke-width="2" stroke-miterlimit="10" x1="32" y1="31" x2="32" y2="38"/>
<polyline fill="none" stroke="#000000" stroke-width="2" stroke-miterlimit="10" points="26.343,30.101 25.636,33.636 
	22.101,34.343 "/>
<polyline fill="none" stroke="#000000" stroke-width="2" stroke-miterlimit="10" points="37.657,49.899 38.364,46.364 
	41.899,45.657 "/>
<line fill="none" stroke="#000000" stroke-width="2" stroke-miterlimit="10" x1="30" y1="38" x2="25.636" y2="33.636"/>
<line fill="none" stroke="#000000" stroke-width="2" stroke-miterlimit="10" x1="38.364" y1="46.364" x2="34" y2="42"/>
<polyline fill="none" stroke="#000000" stroke-width="2" stroke-miterlimit="10" points="22.101,45.657 25.636,46.364 
	26.343,49.899 "/>
<polyline fill="none" stroke="#000000" stroke-width="2" stroke-miterlimit="10" points="41.899,34.343 38.364,33.636 
	37.657,30.101 "/>
<line fill="none" stroke="#000000" stroke-width="2" stroke-miterlimit="10" x1="30" y1="42" x2="25.636" y2="46.364"/>
<line fill="none" stroke="#000000" stroke-width="2" stroke-miterlimit="10" x1="38.364" y1="33.636" x2="34" y2="38"/>
</svg>
