<?xml version="1.0" encoding="utf-8"?>
<!-- Generator: Adobe Illustrator 16.0.0, SVG Export Plug-In . SVG Version: 6.00 Build 0)  -->
<!DOCTYPE svg PUBLIC "-//W3C//DTD SVG 1.1//EN" "http://www.w3.org/Graphics/SVG/1.1/DTD/svg11.dtd">
<svg version="1.1" id="Layer_1" xmlns="http://www.w3.org/2000/svg" xmlns:xlink="http://www.w3.org/1999/xlink" x="0px" y="0px"
	 width="64px" height="64px" viewBox="0 0 64 64" enable-background="new 0 0 64 64" xml:space="preserve">
<path fill="none" stroke="#000000" stroke-width="2" stroke-miterlimit="10" d="M55,40c4.565,0,8-3.435,8-8c0-4.565-3.435-9-8-9
	c0-11.414-9.586-20-21-20C23.898,3,14.8,9.423,13,19c0,0-1.165,0-2,0C5.292,19,1,24.292,1,30s4.292,10,10,10"/>
<path fill="none" stroke="#000000" stroke-width="2" stroke-miterlimit="10" d="M27,58c0,2.761,2.238,5,5,5s5-2.239,5-5
	s-2.238-5-5-5H2"/>
<path fill="none" stroke="#000000" stroke-width="2" stroke-miterlimit="10" d="M40,42c0-2.761,2.238-5,5-5s5,2.239,5,5
	s-2.238,5-5,5H4"/>
</svg>
