<svg xmlns="http://www.w3.org/2000/svg" width="24" height="24" viewBox="0 0 24 24">
  <path fill-rule="evenodd" d="M14.8273802,14.8273802 C14.9378931,13.9402869 15,12.9902565 15,12 C15,11.0097435 14.9378931,10.0597131 14.8273802,9.17261979 C13.9402869,9.06210687 12.9902565,9 12,9 C11.0097435,9 10.0597131,9.06210687 9.17261979,9.17261979 C9.06210687,10.0597131 9,11.0097435 9,12 C9,12.9902565 9.06210687,13.9402869 9.17261979,14.8273802 C10.0597131,14.9378931 11.0097435,15 12,15 C12.9902565,15 13.9402869,14.9378931 14.8273802,14.8273802 Z M14.4618082,16.8855166 C13.6691847,16.9609541 12.8449938,17 12,17 C11.1550062,17 10.3308153,16.9609541 9.5381918,16.8855166 C10.1249949,19.3713173 11.1007508,21 12,21 C12.8992492,21 13.8750051,19.3713173 14.4618082,16.8855166 Z M14.4618082,7.11448338 C13.8750051,4.6286827 12.8992492,3 12,3 C11.1007508,3 10.1249949,4.6286827 9.5381918,7.11448338 C10.3308153,7.03904593 11.1550062,7 12,7 C12.8449938,7 13.6691847,7.03904593 14.4618082,7.11448338 Z M15.3454815,3.642319 C15.8803584,4.67486966 16.2999425,5.96223627 16.5827408,7.41725921 C18.0377637,7.70005754 19.3251303,8.11964157 20.357681,8.65451848 C19.4443036,6.37479499 17.625205,4.55569644 15.3454815,3.642319 Z M8.65451848,3.642319 C6.37479499,4.55569644 4.55569644,6.37479499 3.642319,8.65451848 C4.67486966,8.11964157 5.96223627,7.70005754 7.41725921,7.41725921 C7.70005754,5.96223627 8.11964157,4.67486966 8.65451848,3.642319 Z M15.3454815,20.357681 C17.625205,19.4443036 19.4443036,17.625205 20.357681,15.3454815 C19.3251303,15.8803584 18.0377637,16.2999425 16.5827408,16.5827408 C16.2999425,18.0377637 15.8803584,19.3251303 15.3454815,20.357681 Z M8.65451848,20.357681 C8.11964157,19.3251303 7.70005754,18.0377637 7.41725921,16.5827408 C5.96223627,16.2999425 4.67486966,15.8803584 3.642319,15.3454815 C4.55569644,17.625205 6.37479499,19.4443036 8.65451848,20.357681 Z M16.8855166,9.5381918 C16.9609541,10.3308153 17,11.1550062 17,12 C17,12.8449938 16.9609541,13.6691847 16.8855166,14.4618082 C19.3713173,13.8750051 21,12.8992492 21,12 C21,11.1007508 19.3713173,10.1249949 16.8855166,9.5381918 Z M7.11448338,14.4618082 C7.03904593,13.6691847 7,12.8449938 7,12 C7,11.1550062 7.03904593,10.3308153 7.11448338,9.5381918 C4.6286827,10.1249949 3,11.1007508 3,12 C3,12.8992492 4.6286827,13.8750051 7.11448338,14.4618082 Z M12,1 C18.0751322,1 23,5.92486775 23,12 C23,18.0751322 18.0751322,23 12,23 C5.92486775,23 1,18.0751322 1,12 C1,5.92486775 5.92486775,1 12,1 Z"/>
</svg>
