<svg xmlns="http://www.w3.org/2000/svg" width="24" height="24" viewBox="0 0 24 24">
  <path fill-rule="evenodd" d="M15.4362056,3.97761907 L22.4415418,15.9531803 C23.1705647,17.1855523 23.1862871,18.7132183 22.4827809,19.960327 C21.7784409,21.2089137 20.4619131,21.9842458 19.0122617,21.9983464 L4.97439311,21.9982802 C3.53965557,21.9866122 2.22062199,21.2088986 1.51617253,19.9591997 C0.812307653,18.7105379 0.82874719,17.1794759 1.55542122,15.9576183 L8.56335758,3.97766866 C9.27539851,2.75195566 10.5866895,1.99834312 12.0044595,2.00000273 C13.4220774,2.00166216 14.7329114,2.75839786 15.4362056,3.97761907 Z M10.2912062,4.98490751 L3.27807854,16.973689 C2.91426165,17.5854502 2.90603166,18.3519329 3.25843298,18.9770956 C3.61122214,19.6029463 4.27192295,19.9925012 4.98252774,19.9983133 L19.0025048,19.998394 C19.7286764,19.9913068 20.3881019,19.6029566 20.7408294,18.977675 C21.0930548,18.3532834 21.0851837,17.588488 20.7176978,16.9672502 L13.7068317,4.98222313 C13.357551,4.37673307 12.7063962,4.00082577 12.0021183,4.00000136 C11.2977596,3.99917685 10.6463678,4.37353845 10.2912062,4.98490751 Z M12.0003283,17.9983464 C11.4478622,17.9983464 11,17.5506311 11,16.9983464 C11,16.4460616 11.4478622,15.9983464 12.0003283,15.9983464 C12.5527943,15.9983464 13.0006565,16.4460616 13.0006565,16.9983464 C13.0006565,17.5506311 12.5527943,17.9983464 12.0003283,17.9983464 Z M11.0029544,7.99834639 L13.0036109,7.99834639 L13.0036109,14.9983464 L11.0029544,14.9983464 L11.0029544,7.99834639 Z"/>
</svg>
