<svg xmlns="http://www.w3.org/2000/svg" width="24" height="24" viewBox="0 0 24 24">
  <path fill-rule="evenodd" d="M21,9 C22.1045695,9 23,9.8954305 23,11 L23,13 C23,14.1045695 22.1045695,15 21,15 L21,16 C21,17.1045695 20.1045695,18 19,18 L3,18 C1.8954305,18 1,17.1045695 1,16 L1,8 C1,6.8954305 1.8954305,6 3,6 L19,6 C20.1045695,6 21,6.8954305 21,8 L21,9 Z M3,8 L3,16 L19,16 L19,8 L3,8 Z M4.078125,9.07373047 L6.078125,9.07373047 L6.078125,15.2611964 L4.078125,15.2611964 L4.078125,9.07373047 Z M7.078125,9.07373047 L9.078125,9.07373047 L9.078125,15.2611964 L7.078125,15.2611964 L7.078125,9.07373047 Z M10.078125,9.07373047 L12.078125,9.07373047 L12.078125,15.2611964 L10.078125,15.2611964 L10.078125,9.07373047 Z M13.078125,9.07373047 L15.078125,9.07373047 L15.078125,15.2611964 L13.078125,15.2611964 L13.078125,9.07373047 Z M16.078125,9.07373047 L18.078125,9.07373047 L18.078125,15.2611964 L16.078125,15.2611964 L16.078125,9.07373047 Z"/>
</svg>
