<svg xmlns="http://www.w3.org/2000/svg" width="24" height="24" viewBox="0 0 24 24">
  <path fill-rule="evenodd" d="M20,8 L20,5 L18,5 L18,6 L16,6 L16,5 L8,5 L8,6 L6,6 L6,5 L4,5 L4,8 L20,8 Z M20,10 L4,10 L4,20 L20,20 L20,10 Z M18,3 L20,3 C21.1045695,3 22,3.8954305 22,5 L22,20 C22,21.1045695 21.1045695,22 20,22 L4,22 C2.8954305,22 2,21.1045695 2,20 L2,5 C2,3.8954305 2.8954305,3 4,3 L6,3 L6,2 L8,2 L8,3 L16,3 L16,2 L18,2 L18,3 Z M12,13.5857864 L14.2928932,11.2928932 L15.7071068,12.7071068 L13.4142136,15 L15.7071068,17.2928932 L14.2928932,18.7071068 L12,16.4142136 L9.70710678,18.7071068 L8.29289322,17.2928932 L10.5857864,15 L8.29289322,12.7071068 L9.70710678,11.2928932 L12,13.5857864 Z"/>
</svg>
