<svg xmlns="http://www.w3.org/2000/svg" width="24" height="24" viewBox="0 0 24 24">
  <path fill-rule="evenodd" d="M12.0333649,13.3808486 C13.0895673,14.2628095 14.0103329,14.7008763 14.0923663,14.6187976 L14.8586096,13.852132 C15.2805737,13.4297532 15.5040355,13.2259664 15.8111037,13.0245121 C16.4494656,12.6057102 17.1457524,12.4919023 17.7329975,13.0170075 C19.6503895,14.3885354 20.7354185,15.2301771 21.2669798,15.782495 C22.303783,16.8597835 22.1679037,18.5180455 21.2728679,19.4640525 C20.9625009,19.7920945 20.5689704,20.1858419 20.1041752,20.6339203 C17.4401778,23.2993861 11.9731466,21.9022864 7.53819338,17.8760202 L2.70710678,22.7071068 L1.29289322,21.2928932 L21.2928932,1.29289322 L22.7071068,2.70710678 L12.0333649,13.3808486 Z M8.95401173,16.4602018 C12.6778446,19.8026451 16.99836,20.913035 18.7038097,19.2068681 C19.161375,18.7655298 19.5342402,18.3924591 19.8212354,18.08912 C20.0286173,17.8699279 20.0656783,17.4176384 19.8271235,17.1697684 C19.4297888,16.7569185 18.4570205,15.9984643 16.777362,14.7922626 C16.6549304,14.8908077 16.5044234,15.033738 16.2721965,15.266193 L15.5058008,16.0330112 C14.3534912,17.1859559 12.4846081,16.4497545 10.6098438,14.8043697 L8.95401173,16.4602018 Z M9.56332736,10.4366726 L8.09259368,11.9074063 C7.28711389,10.5666358 7.11362102,9.33176142 7.96142436,8.48402821 C8.16828995,8.27717972 8.42363443,8.0216945 8.72744369,7.71758662 C8.8500234,7.59488642 8.90609452,7.5380489 8.97339653,7.46731514 C9.06509326,7.37094278 9.1404434,7.28630078 9.20077275,7.211402 C8.03540499,5.58806095 7.24320651,4.57370892 6.8161396,4.15183592 C6.59558525,3.93396391 6.1017247,3.97407893 5.9204189,4.1527261 C5.43686641,4.6291879 5.27792422,4.78804929 4.77626041,5.29755675 C3.29591621,6.77871691 3.95989204,10.2693285 6.38443968,13.6155603 L4.95407642,15.0459236 C1.84977255,10.9124591 0.974705041,6.27278642 3.35753082,3.88868121 C3.86122573,3.37707043 4.02729858,3.211082 4.51785466,2.72771931 C5.43117982,1.82778693 7.16594962,1.68687606 8.22050841,2.7286095 C8.77521019,3.27656509 9.65955176,4.41440275 10.9745053,6.25438069 C11.5604671,6.90391332 11.3746817,7.63976469 10.8565778,8.33797195 C10.7337406,8.50350982 10.5921521,8.6666145 10.4211441,8.84634226 C10.3390625,8.93260918 10.2750591,8.99748744 10.141183,9.13149508 C9.83714115,9.43583583 9.58155513,9.69156272 9.37441088,9.89868984 C9.33837748,9.93472026 9.40352068,10.1341764 9.56332736,10.4366726 Z"/>
</svg>
