<svg xmlns="http://www.w3.org/2000/svg" width="16" height="16" viewBox="0 0 16 16">
  <path fill-rule="evenodd" d="M8,16 C3.581722,16 0,12.418278 0,8 C0,3.581722 3.581722,0 8,0 C12.418278,0 16,3.581722 16,8 C16,12.418278 12.418278,16 8,16 Z M8,14 C11.3137085,14 14,11.3137085 14,8 C14,4.6862915 11.3137085,2 8,2 C4.6862915,2 2,4.6862915 2,8 C2,11.3137085 4.6862915,14 8,14 Z M9,7.41421356 L9,12 L7,12 L7,7.41421356 L5.70710678,8.70710678 L4.29289322,7.29289322 L8,3.58578644 L11.7071068,7.29289322 L10.2928932,8.70710678 L9,7.41421356 Z"/>
</svg>
