<svg xmlns="http://www.w3.org/2000/svg" width="24" height="24" viewBox="0 0 24 24">
  <path fill-rule="evenodd" d="M12,23 C5.92486775,23 1,18.0751322 1,12 C1,5.92486775 5.92486775,1 12,1 C18.0751322,1 23,5.92486775 23,12 C23,18.0751322 18.0751322,23 12,23 Z M12,21 C16.9705627,21 21,16.9705627 21,12 C21,7.02943725 16.9705627,3 12,3 C7.02943725,3 3,7.02943725 3,12 C3,16.9705627 7.02943725,21 12,21 Z M12,13.4142136 L8.70710678,16.7071068 L7.29289322,15.2928932 L10.5857864,12 L7.29289322,8.70710678 L8.70710678,7.29289322 L12,10.5857864 L15.2928932,7.29289322 L16.7071068,8.70710678 L13.4142136,12 L16.7071068,15.2928932 L15.2928932,16.7071068 L12,13.4142136 Z"/>
</svg>
