<svg xmlns="http://www.w3.org/2000/svg" width="24" height="24" viewBox="0 0 24 24">
  <path fill-rule="evenodd" d="M12,23 C5.92486775,23 1,18.0751322 1,12 C1,5.92486775 5.92486775,1 12,1 C18.0751322,1 23,5.92486775 23,12 C23,18.0751322 18.0751322,23 12,23 Z M12,21 C16.9705627,21 21,16.9705627 21,12 C21,7.02943725 16.9705627,3 12,3 C7.02943725,3 3,7.02943725 3,12 C3,16.9705627 7.02943725,21 12,21 Z M17.5811388,6.41886117 L14.7905694,14.7905694 L6.41886117,17.5811388 L9.20943058,9.20943058 L17.5811388,6.41886117 Z M9.58113883,14.4188612 L13.2094306,13.2094306 L14.4188612,9.58113883 L10.7905694,10.7905694 L9.58113883,14.4188612 Z"/>
</svg>
