<svg xmlns="http://www.w3.org/2000/svg" width="24" height="24" viewBox="0 0 24 24">
  <path fill-rule="evenodd" d="M19,12 L19,8.62081119 C17.3445598,9.50508911 14.8145288,10 12,10 C9.18547122,10 6.65544022,9.50508911 5,8.62081119 L5,12.0000003 C5,12.8370203 8.10127922,14 12,14 C15.8987208,14 19,12.8370203 19,12 Z M19,14.6208112 C17.3445598,15.5050891 14.8145288,16 12,16 C9.18547122,16 6.65544022,15.5050891 5,14.6208112 L5,18 C5,18.8370203 8.10127922,20 12,20 C15.8987208,20 19,18.8370203 19,18 L19,14.6208112 Z M3,6 C3,3.52331179 7.06216478,2 12,2 C16.9378352,2 21,3.52331179 21,6 L21,18 C21,20.4766882 16.9378352,22 12,22 C7.06216478,22 3,20.4766882 3,18 L3,6 Z M12,8 C15.8987208,8 19,6.83702029 19,6 C19,5.16297971 15.8987208,4 12,4 C8.10127922,4 5,5.16297971 5,6 C5,6.83702029 8.10127922,8 12,8 Z"/>
</svg>
