<svg xmlns="http://www.w3.org/2000/svg" width="24" height="24" viewBox="0 0 24 24">
  <path fill-rule="evenodd" d="M8,4 L21,4 C22.1045695,4 23,4.8954305 23,6 L23,18 C23,19.1045695 22.1045695,20 21,20 L8,20 C7.49479181,20 7.26688156,19.8135296 6.80345396,19.3176949 C6.75712534,19.2681266 6.7099247,19.2160219 6.66192355,19.1616204 C6.47807387,18.9532567 6.31421472,18.7494307 6.23177872,18.6401844 L0.698291721,12 L1.23177872,11.3598156 L6.18176877,5.42511074 C6.28584987,5.27697368 6.44363308,5.06720208 6.62702438,4.85177708 C6.70024349,4.7657685 6.77251996,4.68522946 6.84400957,4.61079521 C7.22963038,4.20929073 7.51572647,4 8,4 Z M8.14992562,6.14822292 C8.01407942,6.30779792 7.88980013,6.47302632 7.76822128,6.6401844 L3.30164767,12.0000727 L7.79436009,17.3925528 C7.87696028,17.5005693 8.01456988,17.6717433 8.16160145,17.8383796 C8.1974634,17.8790233 8.23193807,17.9170798 8.2646108,17.9520373 C8.28044249,17.9689761 8.29568185,17.9849966 8.31020844,18 L21,18 L21,5.99999999 L8.28281512,6 C8.24198403,6.04270247 8.19723122,6.09265426 8.14992562,6.14822292 Z M14,10.5857864 L16.2928932,8.29289322 L17.7071068,9.70710678 L15.4142136,12 L17.7071068,14.2928932 L16.2928932,15.7071068 L14,13.4142136 L11.7071068,15.7071068 L10.2928932,14.2928932 L12.5857864,12 L10.2928932,9.70710678 L11.7071068,8.29289322 L14,10.5857864 Z"/>
</svg>
