<svg xmlns="http://www.w3.org/2000/svg" width="24" height="24" viewBox="0 0 24 24">
  <path fill-rule="evenodd" d="M17.6176858,19.0318994 L16.32096,17.7351735 C16.0622303,18.7216953 15.7343073,19.6070324 15.3454503,20.3576935 C16.1701689,20.0272714 16.934605,19.5783157 17.6176858,19.0318994 Z M11.5830204,12.9972339 L9.05019236,10.4644059 C9.01740846,10.9627499 9,11.4757381 9,12 C9,12.2869698 9.00521598,12.5705617 9.01531448,12.8502229 C9.8278516,12.9351652 10.6886075,12.9853279 11.5830204,12.9972339 Z M7.21830381,8.63251737 L4.96810063,6.38231419 C3.9508227,7.65402404 3.27134612,9.20771349 3.06564935,10.9074041 C3.35718942,11.2805411 4.16781668,11.7579761 5.40825505,12.1475117 C5.89667659,12.300891 6.43159753,12.4357216 7.00555318,12.5502212 C7.00186026,12.3678797 7,12.1844353 7,12 C7,10.8279065 7.07512939,9.69583497 7.21830293,8.63251648 Z M3.54673024,4.96094381 L1.29289322,2.70710678 L2.70710678,1.29289322 L22.7071068,21.2928932 L21.2928932,22.7071068 L19.0390562,20.4532698 C17.1315623,22.0433765 14.6774969,23 12,23 C5.92486775,23 1,18.0751322 1,12 C1,9.32250314 1.95662349,6.86843767 3.54673024,4.96094381 Z M14.6375924,16.051806 L13.5395794,14.953793 C13.0327955,14.9841849 12.5184544,15 12,15 C11.0208804,15 10.0760086,14.9581505 9.17890858,14.8773334 C9.6334669,18.4574369 10.8764702,21 12,21 C12.996263,21 14.0864661,19.0008259 14.6375924,16.051806 Z M19.8389914,16.4247778 C20.3917067,15.4476833 20.7670169,14.3569838 20.9211723,13.1964288 C20.0592999,13.6447264 18.9752627,14.0333209 17.7480317,14.3338181 L14.9963077,11.5820941 C14.9111073,6.76450614 13.3671076,3 12,3 C11.1991994,3 10.337704,4.29166934 9.74426427,6.3300507 L8.1621829,4.74796933 C8.31315983,4.35361511 8.47754179,3.98400784 8.65454975,3.64230648 C8.28181177,3.79164333 7.92138745,3.96519253 7.5752222,4.16100864 L6.11755524,2.70334168 C7.8188264,1.62460973 9.83647049,1 12,1 C18.0751322,1 23,5.92486775 23,12 C23,14.1635295 22.3753903,16.1811736 21.2966583,17.8824448 L19.8389914,16.4247778 Z M20.9285035,10.8601361 C20.5127682,7.57076782 18.3216365,4.83471059 15.3454503,3.64230648 C16.3944383,5.6673038 17,8.67235871 17,12 C17,12.1520704 16.9987353,12.3034672 16.9962215,12.4541275 C18.9736842,12.015741 20.4579577,11.3883247 20.9285035,10.8601361 Z M3.10296429,13.3657859 C3.58836952,16.5541891 5.74676893,19.1926959 8.65454975,20.3576935 C7.88866859,18.879214 7.35916332,16.8782983 7.12913699,14.610834 C5.52333518,14.3317144 4.14644262,13.9092752 3.10296429,13.3657859 Z"/>
</svg>
