<svg xmlns="http://www.w3.org/2000/svg" width="24" height="24" viewBox="0 0 24 24">
  <path fill-rule="evenodd" d="M10,14 L14,14 L14,10 L10,10 L10,14 Z M8,14 L8,10 L4,10 L4,14 L8,14 Z M10,4 L10,8 L14,8 L14,4 L10,4 Z M8,4 L4,4 L4,8 L8,8 L8,4 Z M10,20 L14,20 L14,16 L10,16 L10,20 Z M8,20 L8,16 L4,16 L4,20 L8,20 Z M16,14 L20,14 L20,10 L16,10 L16,14 Z M16,4 L16,8 L20,8 L20,4 L16,4 Z M16,20 L20,20 L20,16 L16,16 L16,20 Z M4,2 L20,2 C21.1045695,2 22,2.8954305 22,4 L22,20 C22,21.1045695 21.1045695,22 20,22 L4,22 C2.8954305,22 2,21.1045695 2,20 L2,4 C2,2.8954305 2.8954305,2 4,2 Z"/>
</svg>
