<svg xmlns="http://www.w3.org/2000/svg" width="16" height="16" viewBox="0 0 16 16">
  <path fill-rule="evenodd" d="M8,16 C3.581722,16 0,12.418278 0,8 C0,3.581722 3.581722,0 8,0 C12.418278,0 16,3.581722 16,8 C16,12.418278 12.418278,16 8,16 Z M8,14 C11.3137085,14 14,11.3137085 14,8 C14,4.6862915 11.3137085,2 8,2 C4.6862915,2 2,4.6862915 2,8 C2,11.3137085 4.6862915,14 8,14 Z M9.00361091,10.9983464 L7.00295441,10.9983464 L7.00295441,6.99834639 L9.00361091,6.99834639 L9.00361091,10.9983464 Z M8.00032825,5.99834639 C7.44786221,5.99834639 7,5.55063114 7,4.99834639 C7,4.44606164 7.44786221,3.99834639 8.00032825,3.99834639 C8.55279429,3.99834639 9.0006565,4.44606164 9.0006565,4.99834639 C9.0006565,5.55063114 8.55279429,5.99834639 8.00032825,5.99834639 Z"/>
</svg>
