<svg xmlns="http://www.w3.org/2000/svg" width="24" height="24" viewBox="0 0 24 24">
  <path fill-rule="evenodd" d="M22,17 L22,19 L8,19 L8,17 L22,17 Z M22,11 L22,13 L8,13 L8,11 L22,11 Z M22,5 L22,7 L8,7 L8,5 L22,5 Z M4,20 C2.8954305,20 2,19.1045695 2,18 C2,16.8954305 2.8954305,16 4,16 C5.1045695,16 6,16.8954305 6,18 C6,19.1045695 5.1045695,20 4,20 Z M4,14 C2.8954305,14 2,13.1045695 2,12 C2,10.8954305 2.8954305,10 4,10 C5.1045695,10 6,10.8954305 6,12 C6,13.1045695 5.1045695,14 4,14 Z M4,8 C2.8954305,8 2,7.1045695 2,6 C2,4.8954305 2.8954305,4 4,4 C5.1045695,4 6,4.8954305 6,6 C6,7.1045695 5.1045695,8 4,8 Z"/>
</svg>
