<svg xmlns="http://www.w3.org/2000/svg" width="24" height="24" viewBox="0 0 24 24">
  <path fill-rule="evenodd" d="M3.05492878,13 L1,13 L1,11 L3.05492878,11 C3.5160776,6.82838339 6.82838339,3.5160776 11,3.05492878 L11,1 L13,1 L13,3.05492878 C17.1716166,3.5160776 20.4839224,6.82838339 20.9450712,11 L23,11 L23,13 L20.9450712,13 C20.4839224,17.1716166 17.1716166,20.4839224 13,20.9450712 L13,23 L11,23 L11,20.9450712 C6.82838339,20.4839224 3.5160776,17.1716166 3.05492878,13 Z M12,5 C8.13400675,5 5,8.13400675 5,12 C5,15.8659932 8.13400675,19 12,19 C15.8659932,19 19,15.8659932 19,12 C19,8.13400675 15.8659932,5 12,5 Z M12,8 C14.209139,8 16,9.790861 16,12 C16,14.209139 14.209139,16 12,16 C9.790861,16 8,14.209139 8,12 C8,9.790861 9.790861,8 12,8 Z M12,10 C10.8954305,10 10,10.8954305 10,12 C10,13.1045695 10.8954305,14 12,14 C13.1045695,14 14,13.1045695 14,12 C14,10.8954305 13.1045695,10 12,10 Z"/>
</svg>
