<svg xmlns="http://www.w3.org/2000/svg" width="24" height="24" viewBox="0 0 24 24">
  <path fill-rule="evenodd" d="M19,21 L5,21 C3.34314575,21 2,19.6568542 2,18 L2,3 L16,3 L18,3 L18,8 L22,8 L22,9 L22,18 C22,19.6568542 20.6568542,21 19,21 Z M16.1707057,19 C16.0601542,18.6872211 16,18.3506354 16,18 L16,5 L4,5 L4,18 C4,18.5522847 4.44771525,19 5,19 L16.1707057,19 Z M18,10 L18,18 C18,18.5522847 18.4477153,19 19,19 C19.5522847,19 20,18.5522847 20,18 L20,10 L18,10 Z M10,7 L10,11 L6,11 L6,7 L10,7 Z M14,8 L14,10 L11,10 L11,8 L14,8 Z M14,12 L14,14 L6,14 L6,12 L14,12 Z M14,15 L14,17 L6,17 L6,15 L14,15 Z"/>
</svg>
