<svg xmlns="http://www.w3.org/2000/svg" width="24" height="24" viewBox="0 0 24 24">
  <path fill-rule="evenodd" d="M12.3023235,7.94519388 L4.69610276,15.549589 C4.29095108,15.9079238 4.04030835,16.4092335 4,16.8678295 L4,20.0029438 L7.06398288,20.004826 C7.5982069,19.9670062 8.09548693,19.7183782 8.49479322,19.2616227 L16.0567001,11.6997158 L12.3023235,7.94519388 Z M13.7167068,6.53115006 L17.4709137,10.2855022 L19.8647941,7.89162181 C19.9513987,7.80501747 20.0000526,7.68755666 20.0000526,7.56507948 C20.0000526,7.4426023 19.9513987,7.32514149 19.8647932,7.23853626 L16.7611243,4.13485646 C16.6754884,4.04854589 16.5589355,4 16.43735,4 C16.3157645,4 16.1992116,4.04854589 16.1135757,4.13485646 L13.7167068,6.53115006 Z M16.43735,2 C17.0920882,2 17.7197259,2.26141978 18.1781068,2.7234227 L21.2790059,5.82432181 C21.7406843,6.28599904 22.0000526,6.91216845 22.0000526,7.56507948 C22.0000526,8.21799052 21.7406843,8.84415992 21.2790068,9.30583626 L9.95750718,20.6237545 C9.25902448,21.4294925 8.26890003,21.9245308 7.1346,22.0023295 L2,22.0023295 L2,21.0023295 L2.00324765,16.7873015 C2.08843822,15.7328366 2.57866679,14.7523321 3.32649633,14.0934196 L14.6953877,2.72462818 C15.1563921,2.2608295 15.7833514,2 16.43735,2 Z"/>
</svg>
