<svg xmlns="http://www.w3.org/2000/svg" width="24" height="24" viewBox="0 0 24 24">
  <path fill-rule="evenodd" d="M12,23 C5.92486775,23 1,18.0751322 1,12 C1,5.92486775 5.92486775,1 12,1 C18.0751322,1 23,5.92486775 23,12 C23,18.0751322 18.0751322,23 12,23 Z M12,21 C16.9705627,21 21,16.9705627 21,12 C21,7.02943725 16.9705627,3 12,3 C7.02943725,3 3,7.02943725 3,12 C3,16.9705627 7.02943725,21 12,21 Z M12.0003283,16.9983464 C11.4478622,16.9983464 11,16.5506311 11,15.9983464 C11,15.4460616 11.4478622,14.9983464 12.0003283,14.9983464 C12.5527943,14.9983464 13.0006565,15.4460616 13.0006565,15.9983464 C13.0006565,16.5506311 12.5527943,16.9983464 12.0003283,16.9983464 Z M13,14 L11,14 C11,12.2983529 11.6245803,11.5696759 13.0527864,10.8555728 C13.8745803,10.4446759 14,10.2983529 14,9.5 C14,8.556407 13.2771608,8 12,8 C10.8954305,8 10,8.8954305 10,10 L8,10 C8,7.790861 9.790861,6 12,6 C14.2843464,6 16,7.32062807 16,9.5 C16,11.2016471 15.3754197,11.9303241 13.9472136,12.6444272 C13.1254197,13.0553241 13,13.2016471 13,14 Z"/>
</svg>
