<svg xmlns="http://www.w3.org/2000/svg" width="24" height="24" viewBox="0 0 24 24">
  <path fill-rule="evenodd" d="M17.8069373,7 C16.4464601,5.07869636 14.3936238,4 12,4 C7.581722,4 4,7.581722 4,12 L2,12 C2,6.4771525 6.4771525,2 12,2 C14.8042336,2 17.274893,3.18251178 19,5.27034886 L19,4 L21,4 L21,9 L16,9 L16,7 L17.8069373,7 Z M6.19306266,17 C7.55353989,18.9213036 9.60637619,20 12,20 C16.418278,20 20,16.418278 20,12 L22,12 C22,17.5228475 17.5228475,22 12,22 C9.19576641,22 6.72510698,20.8174882 5,18.7296511 L5,20 L3,20 L3,15 L8,15 L8,17 L6.19306266,17 Z M12.0003283,15.9983464 C11.4478622,15.9983464 11,15.5506311 11,14.9983464 C11,14.4460616 11.4478622,13.9983464 12.0003283,13.9983464 C12.5527943,13.9983464 13.0006565,14.4460616 13.0006565,14.9983464 C13.0006565,15.5506311 12.5527943,15.9983464 12.0003283,15.9983464 Z M11.0029544,6.99834639 L13.0036109,6.99834639 L13.0036109,12.9983464 L11.0029544,12.9983464 L11.0029544,6.99834639 Z"/>
</svg>
