<svg xmlns="http://www.w3.org/2000/svg" width="24" height="24" viewBox="0 0 24 24">
  <path fill-rule="evenodd" d="M20.4852814,14 L12,22.4852814 L3.51471863,14 L12,5.51471863 L20.4852814,14 Z M6.34314575,14 L12,19.6568542 L17.6568542,14 L12,8.34314575 L6.34314575,14 Z M4.15672797,4.28593933 C6.18580699,2.22227176 8.98673097,1 12,1 C15.9721115,1 19.5752376,3.12390371 21.5277839,6.49927404 L19.7965722,7.50072596 C18.1979627,4.73720691 15.2508538,3 12,3 C9.38603956,3 6.96846584,4.12319378 5.29042786,6 L8,6 L8,8 L2.40310647,8 L2.00227469,2.0674107 L3.99772531,1.9325893 L4.15672797,4.28593933 Z"/>
</svg>
