<svg xmlns="http://www.w3.org/2000/svg" width="24" height="24" viewBox="0 0 24 24">
  <path fill-rule="evenodd" d="M12,23 C5.92486775,23 1,18.0751322 1,12 C1,5.92486775 5.92486775,1 12,1 C18.0751322,1 23,5.92486775 23,12 C23,18.0751322 18.0751322,23 12,23 Z M12,21 C16.9705627,21 21,16.9705627 21,12 C21,7.02943725 16.9705627,3 12,3 C7.02943725,3 3,7.02943725 3,12 C3,16.9705627 7.02943725,21 12,21 Z M15.2746538,14.2978292 L16.9105622,15.4483958 C15.7945475,17.0351773 13.9775544,18 12,18 C10.0224456,18 8.20545254,17.0351773 7.08943782,15.4483958 L8.72534624,14.2978292 C9.4707028,15.3575983 10.6804996,16 12,16 C13.3195004,16 14.5292972,15.3575983 15.2746538,14.2978292 Z M14,11 L14,9 L16,9 L16,11 L14,11 Z M8,11 L8,9 L10,9 L10,11 L8,11 Z"/>
</svg>
