<svg xmlns="http://www.w3.org/2000/svg" width="24" height="24" viewBox="0 0 24 24">
  <path fill-rule="evenodd" d="M4,8 L14,8 C15.1045695,8 16,8.8954305 16,10 L16,20 C16,21.1045695 15.1045695,22 14,22 L4,22 C2.8954305,22 2,21.1045695 2,20 L2,10 C2,8.8954305 2.8954305,8 4,8 Z M4,10 L4,20 L14,20 L14,10 L4,10 Z M17,19 L17,8 C17,7.44771525 16.5522847,7 16,7 L5,7 C5,5.8954305 5.8954305,5 7,5 L17,5 C18.1045695,5 19,5.8954305 19,7 L19,17 C19,18.1045695 18.1045695,19 17,19 Z M20,16 L20,5 C20,4.44771525 19.5522847,4 19,4 L8,4 C8,2.8954305 8.8954305,2 10,2 L20,2 C21.1045695,2 22,2.8954305 22,4 L22,14 C22,15.1045695 21.1045695,16 20,16 Z"/>
</svg>
