<svg xmlns="http://www.w3.org/2000/svg" width="24" height="24" viewBox="0 0 24 24">
  <path d="M7.03359712,6 C7.32758585,3.8151893 9.51095328,2 12,2 C14.4890467,2 16.6724142,3.8151893 16.9664029,6 L19.8469903,6 C20.9515598,6 21.8469903,6.8954305 21.8469903,8 C21.8469903,8.09463774 21.8402731,8.18915613 21.8268893,8.28284271 L20.1126036,20.2828427 C19.9718468,21.2681402 19.1280054,22 18.1327046,22 L5.8672954,22 C4.87199465,22 4.0281532,21.2681402 3.88739641,20.2828427 L2.1731107,8.28284271 C2.01690098,7.1893747 2.77669896,6.17631073 3.87016697,6.02010101 C3.96385356,6.00671722 4.05837195,6 4.15300969,6 L7.03359712,6 Z M9.07212004,6 L14.92788,6 C14.6238899,4.9380773 13.3980321,4 12,4 C10.6019679,4 9.37611011,4.9380773 9.07212004,6 Z M7,8 L4.15300969,8 L5.8672954,20 L18.1327046,20 L19.8469903,8 L17,8 L17,10 L15,10 L15,8 L9,8 L9,10 L7,10 L7,8 Z"/>
</svg>
