<svg xmlns="http://www.w3.org/2000/svg" width="24" height="24" viewBox="0 0 24 24">
  <path fill-rule="evenodd" d="M17.3948786,12.3627522 C17.5964451,12.7785697 17.774334,13.2547489 17.9415023,13.7955131 C18.319709,15.0189545 18.3816793,15.2030381 18.611627,15.7002225 C18.7906143,16.087222 18.9957356,16.4363563 19.2403889,16.7586187 C19.720834,16.1685794 20,15.5621533 20,15 L22,15 C22,18.4747237 16.8174565,22 12,22 C7.18254348,22 2,18.4747237 2,15 L4,15 C4,15.4440579 4.17419355,15.915741 4.4841906,16.3851505 L5.92033087,12.0767297 L5.5527864,11.3416408 L3.80254695,12.2167605 L1.78323949,10.197453 L4,5.76393202 L4,3.7801961 L5.19611614,4.01941932 C8.94130605,4.76845731 11,6.41541247 11,9 C11,9.44771525 11.5522847,10 12,10 L13,10 C14.3967113,10 15.382722,10.2360728 16.1221599,10.7617164 C18.2493055,9.62509833 20.4435398,9.76050944 22.5547002,11.1679497 L21.4452998,12.8320503 C20.0638607,11.9110909 18.7525081,11.7546582 17.3948786,12.3627522 Z M6.0634738,17.9718563 C6.26697366,18.1217746 6.48188363,18.2670326 6.7064992,18.4063027 C8.06781864,15.9555793 9.23042124,15 11.5,15 C14.0216318,15 16.1747826,16.5483407 16.8100463,18.6884582 C17.1426293,18.5058926 17.4584855,18.3097494 17.7529238,18.1036821 C17.3711296,17.6253011 17.0590336,17.1076924 16.796373,16.5397775 C16.5128475,15.9267496 16.4407416,15.7125578 16.0307199,14.3861999 C15.4271852,12.4338565 14.9866175,12 13,12 L12,12 C10.4477153,12 9,10.5522847 9,9 C9,7.79234637 8.07208951,6.87275466 5.98508753,6.26589292 L4.23606798,9.76393202 L6.4472136,8.65835921 L8.07966913,11.9232703 L6.0634738,17.9718563 Z M8.49810827,19.2990725 C9.60890953,19.7325636 10.8195983,20 12,20 C12.9877073,20 13.9966203,19.8127519 14.9504747,19.4976515 C14.6721387,18.0987754 13.2523691,17 11.5,17 C10.1985325,17 9.48024766,17.552581 8.49810827,19.2990725 Z"/>
</svg>
