<svg xmlns="http://www.w3.org/2000/svg" width="24" height="24" viewBox="0 0 24 24">
  <path fill-rule="evenodd" d="M21.1195379,4.50827277 L22.5342762,4.67349373 L21.8983361,5.94799866 C21.5882127,6.56952557 21.2777825,7.19105241 20.9670457,7.81257919 C20.9301859,7.94421707 20.8654361,8.05962088 20.7696585,8.20987253 C20.7296392,8.27265296 20.5929134,8.47235578 20.5865199,8.48194389 C20.5504194,8.53608265 20.5237244,8.57877603 20.5045116,8.612985 L20.5045116,11.0015223 C20.5045116,17.1135105 14.5895212,20.997433 9.0035407,20.997433 C7.86051052,20.997433 6.9920671,20.942655 5.99764648,20.7256544 C4.3611498,20.3685411 3.14327382,19.6586563 2.58597331,18.4179897 L2.01221067,17.1406749 L3.40658935,17.0124385 C4.66800583,16.8964301 5.76168918,16.6561247 6.60158598,16.3343284 C4.29576888,15.9635022 3.00360004,14.9507867 3.00360004,13.0488856 L3.00360004,12.0488856 L4.00360004,12.0488856 C4.22331194,12.0488856 4.42142655,12.031056 4.59854401,11.9983407 C2.86800086,10.9636463 2.00122175,9.30378982 2.00122175,7.00152231 C2.00103266,6.90339488 2.00103266,6.90339488 2.00044255,6.79847339 C1.99394143,5.63802549 2.05627216,5.01796633 2.37394794,4.22659275 C2.57754322,3.7194092 2.87183091,3.24988363 3.26789948,2.81966825 L4.02250949,2 L4.7561743,2.8384678 C7.17393937,5.60160726 9.56394913,7.2779529 12.0041718,7.48072062 C12.0145984,4.93104737 13.9415349,3.00152231 16.5043352,3.00152231 C17.6990777,3.00152231 18.7828136,3.4550135 19.6344797,4.27272548 C20.1006133,4.36850877 20.5956593,4.44709134 21.1195379,4.50827277 Z M18.9086413,6.1620157 L18.6020809,6.09259834 L18.390364,5.86027523 C17.8784597,5.29854774 17.2359357,5.00152231 16.5043352,5.00152231 C15.0413633,5.00152231 14.0041293,6.04390721 14.0041293,7.50152231 C14.0041293,7.73973624 13.9979686,7.88941876 13.9682939,8.0861482 C13.8498823,8.87116329 13.4095655,9.50152231 12.5040999,9.50152231 C9.50606541,9.50152231 6.80135608,7.8954174 4.16389262,5.15228013 C4.0279242,5.56560795 3.99594732,5.99047388 4.00041117,6.78726907 C4.0010134,6.8938353 4.0010134,6.8938353 4.00122175,7.00152231 C4.00122175,9.04953038 4.83093434,10.1697716 6.79546534,10.7941852 L7.49255437,11.0157505 L7.49255437,11.7472041 C7.49255437,12.6341912 6.65221936,13.4691441 5.42268337,13.8431328 C5.98631287,14.270758 7.13900191,14.5015223 9.00389409,14.5015223 L10.0038941,14.5015223 L10.0038941,15.5015223 C10.0038941,16.9342605 8.35761853,18.0560539 5.87074839,18.6418567 C6.68178057,18.8903379 7.76165536,18.997433 9.0035407,18.997433 C13.617962,18.997433 18.5045116,15.788809 18.5045116,11.0015223 L18.5045116,8.50152231 C18.5045116,8.20773972 18.5896702,7.95273379 18.731148,7.68759331 C18.7864644,7.58392608 18.8473687,7.48509444 18.9225327,7.37237332 C18.936682,7.35115417 18.9891853,7.27426284 19.0308673,7.21279246 L19.1101243,7.05428768 C19.2385516,6.79744834 19.3669263,6.54060902 19.4952487,6.28376971 C19.2958216,6.24599305 19.1002871,6.20541186 18.9086413,6.1620157 Z"/>
</svg>
