<svg xmlns="http://www.w3.org/2000/svg" width="24" height="24" viewBox="0 0 24 24">
  <path fill-rule="evenodd" d="M6.03531778,18.739764 C7.62329979,20.146176 9.71193925,21 12,21 C14.2880608,21 16.3767002,20.146176 17.9646822,18.739764 C17.6719994,17.687349 15.5693823,17 12,17 C8.43061774,17 6.32800065,17.687349 6.03531778,18.739764 Z M4.60050358,17.1246475 C5.72595131,15.638064 8.37060189,15 12,15 C15.6293981,15 18.2740487,15.638064 19.3994964,17.1246475 C20.4086179,15.6703183 21,13.9042215 21,12 C21,7.02943725 16.9705627,3 12,3 C7.02943725,3 3,7.02943725 3,12 C3,13.9042215 3.59138213,15.6703183 4.60050358,17.1246475 Z M12,23 C5.92486775,23 1,18.0751322 1,12 C1,5.92486775 5.92486775,1 12,1 C18.0751322,1 23,5.92486775 23,12 C23,18.0751322 18.0751322,23 12,23 Z M8,10 C8,7.75575936 9.57909957,6 12,6 C14.4141948,6 16,7.92157821 16,10.2 C16,13.479614 14.2180861,15 12,15 C9.76086382,15 8,13.4273743 8,10 Z M10,10 C10,12.2692568 10.8182108,13 12,13 C13.1777063,13 14,12.2983927 14,10.2 C14,8.95041736 13.2156568,8 12,8 C10.7337387,8 10,8.81582479 10,10 Z"/>
</svg>
