<?xml version="1.0" encoding="iso-8859-1"?>
<!-- Generator: Adobe Illustrator 21.0.0, SVG Export Plug-In . SVG Version: 6.00 Build 0)  -->
<svg version="1.1" id="Layer_1" xmlns="http://www.w3.org/2000/svg" xmlns:xlink="http://www.w3.org/1999/xlink" x="0px" y="0px"
	 viewBox="0 0 30 30" enable-background="new 0 0 30 30" xml:space="preserve">
<g id="XMLID_1701_">
	<g id="XMLID_1702_">
		<path id="XMLID_1710_" fill="none" stroke="#303C42" stroke-linecap="round" stroke-linejoin="round" stroke-miterlimit="10" d="
			M3.5,26.97826c0.4350328-1.7533951,0-2.2331638,0-3.152174c0-1.004755,2.0049343-0.8274441,2.4210525-1.2608681
			c0.4161186-0.433424,0.1891451-1.891304,1.2105265-1.891304s1.5556331,3.3462219,3.0263162,4.4130421
			C12.2763157,26.623642,12.0871706,29.5,10.7631578,29.5s-2.9128289-1.142664-3.6315789-1.26087S3.5,28.120924,3.5,26.97826z"/>
		<path id="XMLID_1707_" fill="none" stroke="#303C42" stroke-linecap="round" stroke-linejoin="round" stroke-miterlimit="10" d="
			M14.5,6.5c-1.1726971,0-3,1.290761-3,2s1.9703951,2,2.5,2s3.5-1.57971,3.5-2C17.5,7.2391305,14.5,6.5,14.5,6.5z"/>
		
			<ellipse id="XMLID_1706_" fill="none" stroke="#303C42" stroke-linecap="round" stroke-linejoin="round" stroke-miterlimit="10" cx="16.5" cy="5.5" rx="0.5" ry="1"/>
		
			<ellipse id="XMLID_1705_" fill="none" stroke="#303C42" stroke-linecap="round" stroke-linejoin="round" stroke-miterlimit="10" cx="12.5" cy="5.5" rx="0.5" ry="1"/>
		<path id="XMLID_1704_" fill="none" stroke="#303C42" stroke-linecap="round" stroke-linejoin="round" stroke-miterlimit="10" d="
			M11.3854313,26.5282402c1,0,5.9590092,0.5306377,8.0774307-1.9911022"/>
		<path id="XMLID_1703_" fill="none" stroke="#303C42" stroke-linecap="round" stroke-linejoin="round" stroke-miterlimit="10" d="
			M11.415801,29.1831493C11.894968,28.6052513,14.041667,28.5,15,28.5s4.2051296,0,4.2051296,0"/>
		<path fill="none" stroke="#303C42" stroke-linecap="round" stroke-linejoin="round" stroke-miterlimit="10" d="M20.5,21.5
			c0-0.0650635-0.0024414-0.1306152-0.0026245-0.1956787h-0.0499878c-0.9457397,0-1.2105713,6.0285645-1.2105713,6.3043823
			S18.8963623,29.5,20.4473877,29.5c1.5509644,0,2.1373291-0.9653931,3.0263062-1.8912964
			C24.3626709,26.6827393,26.5,26.5842285,26.5,25.7173462c0-0.8668213-1.1538086-1.2017212-1.8157959-1.8912964
			c-0.5689087-0.5925903,0.0847168-2.0223999-0.3186646-2.4146118"/>
		<path id="XMLID_1708_" fill="none" stroke="#303C42" stroke-linecap="round" stroke-linejoin="round" stroke-miterlimit="10" d="
			M17.5,8.5c2.6732464,5.411232,3,9.217392,3,13c0,0-0.3114033,2,1,2s2.9985313-0.137682,2.9985313-3.5
			c0-6.461957-4.9985313-8.110507-4.9985313-11c0-1.9438405-0.0109653-8.5-4.5-8.5c-2.0679827,0-3.5,0.8532609-3.5,7
			c0,2.679348-1.6447372,4.544837-2.5526314,6.869565C8.177249,16.3415108,7,19.3697968,7,20.6832008"/>
	</g>
</g>
<g>
</g>
<g>
</g>
<g>
</g>
<g>
</g>
<g>
</g>
<g>
</g>
<g>
</g>
<g>
</g>
<g>
</g>
<g>
</g>
<g>
</g>
<g>
</g>
<g>
</g>
<g>
</g>
<g>
</g>
</svg>
