<?xml version="1.0" encoding="iso-8859-1"?>
<!-- Generator: Adobe Illustrator 21.0.0, SVG Export Plug-In . SVG Version: 6.00 Build 0)  -->
<svg version="1.1" id="Layer_1" xmlns="http://www.w3.org/2000/svg" xmlns:xlink="http://www.w3.org/1999/xlink" x="0px" y="0px"
	 viewBox="0 0 24 24" enable-background="new 0 0 24 24" xml:space="preserve">
<g>
	<path fill="#303C42" d="M12,0C5.3828125,0,0,5.3833008,0,12s5.3828125,12,12,12s12-5.3833008,12-12S18.6171875,0,12,0z M12,23
		C5.9345703,23,1,18.0654297,1,12S5.9345703,1,12,1s11,4.9345703,11,11S18.0654297,23,12,23z"/>
	<path fill="#303C42" d="M18.4238281,4.878418l-7.7783203,5.6567383l0.0054321,0.0075073
		c-0.0418091,0.0303955-0.0847168,0.0599976-0.1157837,0.1028442l-5.6572266,7.777832
		c-0.1445313,0.1987305-0.1230469,0.4736328,0.0507813,0.6474609c0.0966797,0.0966797,0.2246094,0.1464844,0.3535156,0.1464844
		c0.1025391,0,0.2060547-0.03125,0.2939453-0.0957031l7.7783203-5.6567383
		c0.0427246-0.0310669,0.0724487-0.0739746,0.1029053-0.1157837l0.0074463,0.0054321l5.6572266-7.777832
		c0.1445313-0.1987305,0.1230469-0.4736328-0.0507813-0.6474609C18.8984375,4.7558594,18.6230469,4.7333984,18.4238281,4.878418z
		 M7.5498047,16.4501953L11,11.706543l1.2929688,1.2939453L7.5498047,16.4501953z M13.0004272,12.293396l-1.2938232-1.2938232
		l4.7435913-3.4497681L13.0004272,12.293396z"/>
</g>
<g>
</g>
<g>
</g>
<g>
</g>
<g>
</g>
<g>
</g>
<g>
</g>
<g>
</g>
<g>
</g>
<g>
</g>
<g>
</g>
<g>
</g>
<g>
</g>
<g>
</g>
<g>
</g>
<g>
</g>
</svg>
