<?xml version="1.0" encoding="iso-8859-1"?>
<!-- Generator: Adobe Illustrator 21.0.0, SVG Export Plug-In . SVG Version: 6.00 Build 0)  -->
<svg version="1.1" id="Layer_1" xmlns="http://www.w3.org/2000/svg" xmlns:xlink="http://www.w3.org/1999/xlink" x="0px" y="0px"
	 viewBox="0 0 30 30" enable-background="new 0 0 30 30" xml:space="preserve">
<g id="XMLID_1171_">
	<path id="XMLID_1175_" fill="none" stroke="#303C42" stroke-linecap="round" stroke-linejoin="round" stroke-miterlimit="10" d="
		M27.5,17c-1.1093388-0.3128319-2.7669868-0.5-4.1739197-0.5C17.8885784,16.5,14.5,19.652174,14.5,19.652174V29.5"/>
	
		<circle id="XMLID_1174_" fill="none" stroke="#303C42" stroke-linecap="round" stroke-linejoin="round" stroke-miterlimit="10" cx="23" cy="7" r="6.5"/>
	
		<polyline id="XMLID_1173_" fill="none" stroke="#303C42" stroke-linecap="round" stroke-linejoin="round" stroke-miterlimit="10" points="
		18.5,17.5 23.5,22.5 27.5,18 	"/>
	
		<line id="XMLID_1100_" fill="none" stroke="#303C42" stroke-linecap="round" stroke-linejoin="round" stroke-miterlimit="10" x1="3.652174" y1="29.5" x2="20.19067" y2="12.961504"/>
	
		<line id="XMLID_1099_" fill="none" stroke="#303C42" stroke-linecap="round" stroke-linejoin="round" stroke-miterlimit="10" x1="17.040657" y1="9.8071699" x2="0.5" y2="26.347826"/>
	<path id="XMLID_1094_" fill="none" stroke="#303C42" stroke-linecap="round" stroke-linejoin="round" stroke-miterlimit="10" d="
		M9.1025181,6.2016373C8.5171251,5.7611094,7.7890553,5.5,7,5.5C5.0670033,5.5,3.5,7.0670033,3.5,9s1.5670033,3.5,3.5,3.5
		s3.5-1.5670033,3.5-3.5H7.6999998"/>
	<g>
		<path fill="none" stroke="#303C42" stroke-linecap="round" stroke-linejoin="round" stroke-miterlimit="10" d="M18.3109398,2.5H2
			C1.1715729,2.5,0.5,3.1715729,0.5,4v24c0,0.8284264,0.6715729,1.5,1.5,1.5h24c0.8284264,0,1.5-0.6715736,1.5-1.5V11.6894464"/>
	</g>
</g>
<g>
</g>
<g>
</g>
<g>
</g>
<g>
</g>
<g>
</g>
<g>
</g>
<g>
</g>
<g>
</g>
<g>
</g>
<g>
</g>
<g>
</g>
<g>
</g>
<g>
</g>
<g>
</g>
<g>
</g>
</svg>
