<?xml version="1.0" encoding="iso-8859-1"?>
<!-- Generator: Adobe Illustrator 21.0.0, SVG Export Plug-In . SVG Version: 6.00 Build 0)  -->
<svg version="1.1" id="Layer_1" xmlns="http://www.w3.org/2000/svg" xmlns:xlink="http://www.w3.org/1999/xlink" x="0px" y="0px"
	 viewBox="0 0 24 24" enable-background="new 0 0 24 24" xml:space="preserve">
<g>
	<path fill="#303C42" d="M23.5,3.0000963H14v-2.5c0-0.1489258-0.0664063-0.2905273-0.1816406-0.3852539
		c-0.1142578-0.0947266-0.2685547-0.1342773-0.4130859-0.105957l-13,2.5C0.1699219,2.5542955,0,2.7603502,0,3.0000963v18
		c0,0.2397461,0.1699219,0.4458008,0.4052734,0.4912109l13,2.5c0.03125,0.0058594,0.0634766,0.0087891,0.0947266,0.0087891
		c0.1152344,0,0.2285156-0.0400391,0.3183594-0.1147461C13.9335938,23.7906227,14,23.6490211,14,23.5000954v-2.5h9.5
		c0.2763672,0,0.5-0.2236328,0.5-0.5v-17C24,3.2237291,23.7763672,3.0000963,23.5,3.0000963z M8.9472656,16.2764626
		c0.1230469,0.2470703,0.0234375,0.5473633-0.2236328,0.6708984C8.6513672,16.9830055,8.5751953,17.0000954,8.5,17.0000954
		c-0.1826172,0-0.359375-0.1010742-0.4472656-0.2763672L6.5,13.6182604l-1.5527344,3.1054678
		C4.859375,16.8990211,4.6826172,17.0000954,4.5,17.0000954c-0.0751953,0-0.1513672-0.0170898-0.2236328-0.0527344
		c-0.2470703-0.1235352-0.3466797-0.4238281-0.2236328-0.6708984l1.8881836-3.7763662L4.0527344,8.7237291
		C3.9296875,8.4766588,4.0292969,8.1763659,4.2763672,8.0528307c0.2480469-0.1220703,0.546875-0.0234375,0.6708984,0.2236328
		L6.5,11.3819323l1.5527344-3.1054688c0.1240234-0.2470703,0.4248047-0.3447266,0.6708984-0.2236328
		c0.2470703,0.1235352,0.3466797,0.4238281,0.2236328,0.6708984L7.059082,12.5000963L8.9472656,16.2764626z M23,20.0000954h-9v-1
		h2.5c0.2763672,0,0.5-0.2236328,0.5-0.5v-1c0-0.2763672-0.2236328-0.5-0.5-0.5H14v-1h2.5c0.2763672,0,0.5-0.2236319,0.5-0.499999
		v-1c0-0.2763672-0.2236328-0.5-0.5-0.5H14v-1h2.5c0.2763672,0,0.5-0.2236328,0.5-0.5v-1c0-0.2763672-0.2236328-0.5-0.5-0.5H14v-1
		h2.5c0.2763672,0,0.5-0.2236328,0.5-0.5v-1c0-0.2763672-0.2236328-0.5-0.5-0.5H14v-1h2.5c0.2763672,0,0.5-0.2236328,0.5-0.5v-1
		c0-0.2763672-0.2236328-0.5-0.5-0.5H14v-1h9V20.0000954z"/>
	<path fill="#303C42" d="M18.5,7.0000963h3c0.2763672,0,0.5-0.2236328,0.5-0.5v-1c0-0.2763672-0.2236328-0.5-0.5-0.5h-3
		c-0.2763672,0-0.5,0.2236328-0.5,0.5v1C18,6.7764635,18.2236328,7.0000963,18.5,7.0000963z"/>
	<path fill="#303C42" d="M18.5,10.0000963h3c0.2763672,0,0.5-0.2236328,0.5-0.5v-1c0-0.2763672-0.2236328-0.5-0.5-0.5h-3
		c-0.2763672,0-0.5,0.2236328-0.5,0.5v1C18,9.7764635,18.2236328,10.0000963,18.5,10.0000963z"/>
	<path fill="#303C42" d="M18.5,13.0000963h3c0.2763672,0,0.5-0.2236328,0.5-0.5v-1c0-0.2763672-0.2236328-0.5-0.5-0.5h-3
		c-0.2763672,0-0.5,0.2236328-0.5,0.5v1C18,12.7764635,18.2236328,13.0000963,18.5,13.0000963z"/>
	<path fill="#303C42" d="M18.5,16.0000954h3c0.2763672,0,0.5-0.2236319,0.5-0.499999v-1c0-0.2763672-0.2236328-0.5-0.5-0.5h-3
		c-0.2763672,0-0.5,0.2236328-0.5,0.5v1C18,15.7764635,18.2236328,16.0000954,18.5,16.0000954z"/>
	<path fill="#303C42" d="M18.5,19.0000954h3c0.2763672,0,0.5-0.2236328,0.5-0.5v-1c0-0.2763672-0.2236328-0.5-0.5-0.5h-3
		c-0.2763672,0-0.5,0.2236328-0.5,0.5v1C18,18.7764626,18.2236328,19.0000954,18.5,19.0000954z"/>
</g>
<g>
</g>
<g>
</g>
<g>
</g>
<g>
</g>
<g>
</g>
<g>
</g>
<g>
</g>
<g>
</g>
<g>
</g>
<g>
</g>
<g>
</g>
<g>
</g>
<g>
</g>
<g>
</g>
<g>
</g>
</svg>
