<?xml version="1.0" encoding="iso-8859-1"?>
<!-- Generator: Adobe Illustrator 21.0.0, SVG Export Plug-In . SVG Version: 6.00 Build 0)  -->
<svg version="1.1" id="Layer_1" xmlns="http://www.w3.org/2000/svg" xmlns:xlink="http://www.w3.org/1999/xlink" x="0px" y="0px"
	 viewBox="0 0 30 30" enable-background="new 0 0 30 30" xml:space="preserve">
<path fill="#303C42" d="M29.5,4H18V0.4988745c0-0.1484432-0.065918-0.2895618-0.1801758-0.384292
	c-0.1137695-0.0952185-0.2626953-0.1313527-0.4111328-0.107426l-17,3.1524639C0.171875,3.2035675,0,3.4101183,0,3.6513386V26.347517
	c0,0.2412205,0.171875,0.4477711,0.4086914,0.4917183l17,3.1524639C17.4389648,29.9970703,17.4697266,30,17.5,30
	c0.1157227,0,0.2290039-0.0405293,0.3198242-0.1157265C17.934082,29.7895432,18,29.6484241,18,29.4999809v-3.5001335h11.5
	c0.2763672,0,0.5-0.2236404,0.5-0.5000191V4.4990273C30,4.2226496,29.7763672,4,29.5,4z M13.484375,10.122777l-2.4575195,9.6317148
	c-0.0556641,0.2187576-0.2509766,0.3730621-0.4770508,0.3764801c-0.0024414,0-0.0048828,0-0.0073242,0
	c-0.2226563,0-0.4189453-0.1474667-0.4804688-0.3618317l-2.1108398-7.3464708l-1.9711914,6.7175417
	c-0.0639648,0.2163162-0.2875977,0.3374157-0.4892578,0.3593884c-0.2255859-0.0043945-0.4204102-0.1586971-0.4755859-0.3774567
	l-1.956543-7.7395525c-0.0673828-0.2675877,0.0947266-0.5395708,0.3623047-0.6074448
	c0.2695313-0.0673857,0.5395508,0.0947304,0.6074219,0.362318l1.5078125,5.9640951l1.9404297-6.6125565
	c0.0625-0.2133875,0.2583008-0.3593893,0.4799805-0.3593893h0.0014648c0.222168,0.0004883,0.4174805,0.1479549,0.4790039,0.3618307
	l2.0766602,7.2292786l2.0019531-7.8450251c0.0678711-0.2680769,0.340332-0.430192,0.6079102-0.3608532
	C13.3911133,9.5832052,13.5527344,9.8551884,13.484375,10.122777z M29,25.0003815H18V23h9.5
	c0.2763672,0,0.5-0.2233353,0.5-0.4997139s-0.2236328-0.5000191-0.5-0.5000191H18v-2.0000763h9.5
	c0.2763672,0,0.5-0.2236404,0.5-0.5000191s-0.2236328-0.5000191-0.5-0.5000191H18v-2.0000763h9.5
	c0.2763672,0,0.5-0.2236404,0.5-0.5000191s-0.2236328-0.5000191-0.5-0.5000191H18v-2.0000763h9.5
	c0.2763672,0,0.5-0.2236414,0.5-0.5000191s-0.2236328-0.5000191-0.5-0.5000191H18v-2.0000763h9.5
	c0.2763672,0,0.5-0.2236414,0.5-0.5000191s-0.2236328-0.5000191-0.5-0.5000191H18V7.999733h9.5
	c0.2763672,0,0.5-0.2236414,0.5-0.5000191S27.7763672,7,27.5,7H18V4.9996185h11V25.0003815z"/>
<g>
</g>
<g>
</g>
<g>
</g>
<g>
</g>
<g>
</g>
<g>
</g>
<g>
</g>
<g>
</g>
<g>
</g>
<g>
</g>
<g>
</g>
<g>
</g>
<g>
</g>
<g>
</g>
<g>
</g>
</svg>
