<?xml version="1.0" encoding="iso-8859-1"?>
<!-- Generator: Adobe Illustrator 21.0.0, SVG Export Plug-In . SVG Version: 6.00 Build 0)  -->
<svg version="1.1" id="Layer_1" xmlns="http://www.w3.org/2000/svg" xmlns:xlink="http://www.w3.org/1999/xlink" x="0px" y="0px"
	 viewBox="0 0 30 30" enable-background="new 0 0 30 30" xml:space="preserve">
<path fill="#303C42" d="M28,4H2C0.8974609,4,0,4.8974609,0,6v18c0,1.1025391,0.8974609,2,2,2h26c1.1025391,0,2-0.8974609,2-2V6
	C30,4.8974609,29.1025391,4,28,4z M25.4096069,5L15,12.3867188L4.5903931,5H25.4096069z M1,24V6c0-0.5517578,0.4482422-1,1-1
	h0.8617554l11.8491821,8.4082031C14.796875,13.4697266,14.8984375,13.5,15,13.5s0.203125-0.0302734,0.2890625-0.0917969
	L27.1382446,5H28c0.5517578,0,1,0.4482422,1,1v1.2446289L14.9980469,17.3837891L4.7910156,10.0927734
	c-0.1542969-0.109375-0.3525391-0.1230469-0.5195313-0.0371094S4,10.3125,4,10.5V25H2C1.4482422,25,1,24.5517578,1,24z
	 M25,11.3760376V25H5V11.4716797l9.7089844,6.9355469c0.1748047,0.1240234,0.4111328,0.125,0.5839844-0.0019531L25,11.3760376z
	 M28,25h-2V10.6519165l3-2.1724243V24C29,24.5517578,28.5517578,25,28,25z"/>
<g>
</g>
<g>
</g>
<g>
</g>
<g>
</g>
<g>
</g>
<g>
</g>
<g>
</g>
<g>
</g>
<g>
</g>
<g>
</g>
<g>
</g>
<g>
</g>
<g>
</g>
<g>
</g>
<g>
</g>
</svg>
