<?xml version="1.0" encoding="iso-8859-1"?>
<!-- Generator: Adobe Illustrator 21.0.0, SVG Export Plug-In . SVG Version: 6.00 Build 0)  -->
<svg version="1.1" id="Layer_1" xmlns="http://www.w3.org/2000/svg" xmlns:xlink="http://www.w3.org/1999/xlink" x="0px" y="0px"
	 viewBox="0 0 30 30" enable-background="new 0 0 30 30" xml:space="preserve">
<g>
	<path fill="#303C42" d="M15,0C6.7285156,0,0,6.7290039,0,15s6.7285156,15,15,15s15-6.7290039,15-15S23.2714844,0,15,0z M15,29
		C7.2802734,29,1,22.7197266,1,15S7.2802734,1,15,1s14,6.2802734,14,14S22.7197266,29,15,29z"/>
	<path fill="#303C42" d="M23.1835938,6.1206055l-9.9697266,6.9697266l0.0039673,0.0056763
		c-0.0474854,0.0332031-0.0939331,0.0688477-0.1279907,0.1173706l-6.9697266,9.9697266
		c-0.1386719,0.1987305-0.1152344,0.46875,0.0566406,0.6401367c0.0966797,0.0966797,0.2246094,0.1464844,0.3535156,0.1464844
		c0.0996094,0,0.2001953-0.0297852,0.2861328-0.090332l9.9697266-6.9697266
		c0.0484619-0.0338135,0.0841675-0.0802612,0.1174316-0.1276855l0.0065918,0.0046387l6.9697266-9.9697266
		c0.1386719-0.1987305,0.1152344-0.46875-0.0566406-0.6401367S23.3798828,5.9814453,23.1835938,6.1206055z M8.5576172,21.4423828
		l5.0107422-7.1669922l2.15625,2.1567383L8.5576172,21.4423828z M16.4315796,15.7245483l-2.1566162-2.1566162l7.1674194-5.0103149
		L16.4315796,15.7245483z"/>
</g>
<g>
</g>
<g>
</g>
<g>
</g>
<g>
</g>
<g>
</g>
<g>
</g>
<g>
</g>
<g>
</g>
<g>
</g>
<g>
</g>
<g>
</g>
<g>
</g>
<g>
</g>
<g>
</g>
<g>
</g>
</svg>
