<?xml version="1.0" encoding="iso-8859-1"?>
<!-- Generator: Adobe Illustrator 21.0.0, SVG Export Plug-In . SVG Version: 6.00 Build 0)  -->
<svg version="1.1" id="Layer_1" xmlns="http://www.w3.org/2000/svg" xmlns:xlink="http://www.w3.org/1999/xlink" x="0px" y="0px"
	 viewBox="0 0 24 24" enable-background="new 0 0 24 24" xml:space="preserve">
<g id="XMLID_1589_">
	
		<circle id="XMLID_1316_" fill="none" stroke="#303C42" stroke-linecap="round" stroke-linejoin="round" stroke-miterlimit="10" cx="2.5" cy="12" r="2"/>
	
		<circle id="XMLID_1330_" fill="none" stroke="#303C42" stroke-linecap="round" stroke-linejoin="round" stroke-miterlimit="10" cx="19.5" cy="2.5" r="2"/>
	
		<circle id="XMLID_1331_" fill="none" stroke="#303C42" stroke-linecap="round" stroke-linejoin="round" stroke-miterlimit="10" cx="19.5" cy="21.5" r="2"/>
	<path id="XMLID_1332_" fill="none" stroke="#303C42" stroke-linecap="round" stroke-linejoin="round" stroke-miterlimit="10" d="
		M8.5,12c0-1.6746826,0.7509766-3.1717529,1.9316406-4.180542L8.4151611,4.3267822
		C6.8560791,5.463623,5.6654053,7.0654907,5.0253296,8.9238892C5.9179077,9.6581421,6.5,10.7567749,6.5,12
		s-0.5820923,2.3418579-1.4746704,3.0761108c0.6400757,1.8583984,1.8307495,3.4602661,3.3898315,4.5971069l2.0164795-3.4926758
		C9.2509766,15.1717529,8.5,13.6746216,8.5,12z"/>
	<path id="XMLID_1329_" fill="none" stroke="#303C42" stroke-linecap="round" stroke-linejoin="round" stroke-miterlimit="10" d="
		M19.5,6.5c-2.161438,0-3.9171753-1.7263794-3.9869995-3.8711548C15.0188599,2.5498657,14.5153198,2.5,14,2.5
		c-1.3738403,0-2.6762085,0.2977295-3.8552856,0.8224487l2.0195923,3.4980469C12.7391968,6.6166992,13.3552246,6.5,14,6.5
		c2.6955566,0,4.9874268,1.9405518,5.458252,4.5H23.5c-0.1974487-1.8867188-0.9616089-3.6036987-2.1088257-4.9972534
		C20.8253784,6.3096313,20.1876221,6.5,19.5,6.5z"/>
	<path id="XMLID_1328_" fill="none" stroke="#303C42" stroke-linecap="round" stroke-linejoin="round" stroke-miterlimit="10" d="
		M19.5,17.5c0.6876221,0,1.3253784,0.1903687,1.8911743,0.4972534C22.5383911,16.6036987,23.3025513,14.8867188,23.5,13h-4.041748
		C18.9874268,15.5593872,16.6955566,17.5,14,17.5c-0.6447144,0-1.2608032-0.1166992-1.8356934-0.3205566l-2.0195923,3.4981079
		C11.3237915,21.2022705,12.6261597,21.5,14,21.5c0.5153198,0,1.0188599-0.0498657,1.5130005-0.1288452
		C15.5828247,19.2263794,17.338562,17.5,19.5,17.5z"/>
</g>
<g>
</g>
<g>
</g>
<g>
</g>
<g>
</g>
<g>
</g>
<g>
</g>
<g>
</g>
<g>
</g>
<g>
</g>
<g>
</g>
<g>
</g>
<g>
</g>
<g>
</g>
<g>
</g>
<g>
</g>
</svg>
