<?xml version="1.0" encoding="iso-8859-1"?>
<!-- Generator: Adobe Illustrator 21.0.0, SVG Export Plug-In . SVG Version: 6.00 Build 0)  -->
<svg version="1.1" id="Layer_1" xmlns="http://www.w3.org/2000/svg" xmlns:xlink="http://www.w3.org/1999/xlink" x="0px" y="0px"
	 viewBox="0 0 24 24" enable-background="new 0 0 24 24" xml:space="preserve">
<g>
	<path fill="#303C42" d="M23,5.0307617c0.5517578,0,1-0.4487305,1-1s-0.4482422-1-1-1s-1,0.4487305-1,1
		S22.4482422,5.0307617,23,5.0307617z"/>
	<path fill="#303C42" d="M8.5898438,7.0078125c-0.2333984-0.043457-0.4541016,0.0786133-0.546875,0.2890625l-4,9
		c-0.1123047,0.2524414,0.0019531,0.5478516,0.2539063,0.6601563C4.3632813,16.9863281,4.4316406,17,4.5,17
		c0.1914063,0,0.3740234-0.1103516,0.4570313-0.296875l0.7736206-1.7404175l2.6886597-0.3228149l0.081665,1.3894043
		c0.0166016,0.2758789,0.2568359,0.4868164,0.5283203,0.4697266c0.2753906-0.0161133,0.4863281-0.2529297,0.4697266-0.5283203
		l-0.5-8.5C8.9853516,7.2402344,8.8164063,7.0493164,8.5898438,7.0078125z M6.2036743,13.8984375l1.918396-4.315918
		l0.2384644,4.0570068L6.2036743,13.8984375z"/>
	<path fill="#303C42" d="M14.2636719,10.0751953c-0.7939453-0.4931641-1.8125-0.5107422-2.5341797-0.0410156
		c-0.5410156,0.3530273-0.8115234,0.9272461-0.7246094,1.5361328c0.1064453,0.7485352,0.7167969,1.1513672,1.2080078,1.4750977
		c0.5615234,0.3701172,0.8056641,0.5703125,0.7880859,0.9301758c-0.0185547,0.3720703-0.2880859,0.7631836-0.6289063,0.9101563
		c-0.3222656,0.1396484-0.6757813,0.0507813-1.0478516-0.2661133c-0.2070313-0.1772461-0.5244141-0.1547852-0.7041016,0.0556641
		c-0.1796875,0.2099609-0.1542969,0.5258789,0.0556641,0.7050781c0.5136719,0.4389648,0.9951172,0.5703125,1.3876953,0.5703125
		c0.2929688,0,0.5361328-0.0737305,0.7050781-0.1469727c0.6884766-0.2973633,1.1943359-1.0288086,1.2304688-1.7792969
		c0.0478516-0.9672852-0.6943359-1.456543-1.2353516-1.8139648c-0.4511843-0.2973633-0.7285156-0.4985352-0.7685547-0.78125
		c-0.0410156-0.2827148,0.1298828-0.4589844,0.28125-0.5576172c0.3232422-0.2104492,0.9169922-0.2836914,1.4599609,0.0532227
		C13.9697266,11.0688477,14.2783203,11,14.4248047,10.7641602C14.5703125,10.5292969,14.4980469,10.2211914,14.2636719,10.0751953z"
		/>
	<path fill="#303C42" d="M18.609375,9.1875l-2,2.5c-0.0532837,0.0670776-0.0744019,0.1481323-0.088623,0.2288818
		l0.9724121-5.8343506c0.0458984-0.2724609-0.1386719-0.5297852-0.4111328-0.5751953
		c-0.2646484-0.050293-0.5292969,0.1386719-0.5751953,0.4111328l-1.5,9
		c-0.0458984,0.2724609,0.1386719,0.5297852,0.4111328,0.5751953C15.4453125,15.4980469,15.4736328,15.5,15.5009766,15.5
		c0.2392578,0,0.4511719-0.1733398,0.4921875-0.4179688l0.5147095-3.0883179
		c-0.0010376,0.0905151,0.0147095,0.182373,0.0634155,0.2636108l1.5,2.5C18.1650391,14.9135742,18.3310547,15,18.5,15
		c0.0878906,0,0.1767578-0.0229492,0.2568359-0.0712891c0.2373047-0.1420898,0.3144531-0.4492188,0.171875-0.6860352
		l-1.3212891-2.2016602L19.390625,9.8125c0.1718616-0.2158203,0.1376953-0.5302734-0.0781384-0.703125
		C19.0966797,8.9384766,18.7832031,8.972168,18.609375,9.1875z"/>
	<path fill="#303C42" d="M16,3C6.3818359,3,0,10.2226563,0,15c0,2.9863281,2.4736328,6,8,6c9.6181641,0,16-7.2226563,16-12
		C24,6.0136719,21.5263672,3,16,3z M8,20c-4.8359375,0-7-2.5112305-7-5C1,10.6206055,6.9824219,4,16,4c4.8359375,0,7,2.5112305,7,5
		C23,13.3793945,17.0175781,20,8,20z"/>
</g>
<g>
</g>
<g>
</g>
<g>
</g>
<g>
</g>
<g>
</g>
<g>
</g>
<g>
</g>
<g>
</g>
<g>
</g>
<g>
</g>
<g>
</g>
<g>
</g>
<g>
</g>
<g>
</g>
<g>
</g>
</svg>
