<?xml version="1.0" encoding="iso-8859-1"?>
<!-- Generator: Adobe Illustrator 21.0.0, SVG Export Plug-In . SVG Version: 6.00 Build 0)  -->
<svg version="1.1" id="Layer_1" xmlns="http://www.w3.org/2000/svg" xmlns:xlink="http://www.w3.org/1999/xlink" x="0px" y="0px"
	 viewBox="0 0 30 30" enable-background="new 0 0 30 30" xml:space="preserve">
<g>
	<path fill="#303C42" d="M27,2H3C2.4477539,2,2,2.4477539,2,3v24c0,0.5522461,0.4477539,1,1,1h24c0.5522461,0,1-0.4477539,1-1V3
		C28,2.4477539,27.5522461,2,27,2z M26,26H4V4h22V26z"/>
	<path fill="#303C42" d="M8.9990234,22.0009766c0.5522461,0,1-0.4477539,1-1l0.0004883-3.6206055
		c1.340332,0.1269531,2.8710938-0.21875,4.0292969-0.9785156C15.2998047,15.5678711,16,14.3276367,16,12.909668
		c0-1.2060547-0.3925781-2.1606445-1.1669922-2.8374023C13.3154297,8.746582,10.699707,8.9262695,8.8652344,9.175293
		C8.3696289,9.2421875,8,9.6655273,8,10.1660156L7.9990234,21.0009766
		C7.9990234,21.5532227,8.4467773,22.0009766,8.9990234,22.0009766z M10,11.0581055
		c1.7583008-0.1601563,2.9389648,0.015625,3.5170898,0.5205078C13.7246094,11.7597656,14,12.0947266,14,12.909668
		c0,0.7426758-0.359375,1.3549805-1.0683594,1.8198242c-0.8979492,0.5893555-2.0761719,0.762207-2.9321289,0.6342773L10,11.0581055z
		"/>
	<path fill="#303C42" d="M18.621582,17.3061523C19.8378906,17.6655273,20,17.8168945,20,18.2280273
		c0,0.5112305-0.199707,0.6040039-0.3188477,0.659668c-0.6318359,0.2929688-1.7685547-0.0351563-2.0366211-0.262207
		c-0.421875-0.355957-1.0537109-0.3022461-1.4091797,0.1201172c-0.355957,0.4223633-0.3022461,1.0532227,0.1201172,1.4091797
		c0.5380859,0.4536133,1.6181641,0.8442383,2.6962891,0.8442383c0.5102539,0,1.0205078-0.0878906,1.472168-0.2978516
		C21.4760742,20.2587891,22,19.3803711,22,18.2280273c0-2.0092773-1.7597656-2.5292969-2.8115234-2.8398438
		C18.1074219,15.0688477,18,14.9511719,18,14.7407227c0-0.362793,0.1401367-0.5029297,0.3500977-0.6020508
		c0.6181641-0.2919922,1.6601563-0.0810547,2.0136719,0.2109375c0.4272461,0.3520508,1.0561523,0.2919922,1.4077148-0.1352539
		c0.3515625-0.4262695,0.2910099-1.0561523-0.1352539-1.4077148c-0.9042969-0.7451172-2.7832031-1.1157227-4.1386719-0.4770508
		C16.5458984,12.7783203,16,13.6572266,16,14.7407227C16,16.5317383,17.6411133,17.0166016,18.621582,17.3061523z"/>
</g>
<g>
</g>
<g>
</g>
<g>
</g>
<g>
</g>
<g>
</g>
<g>
</g>
<g>
</g>
<g>
</g>
<g>
</g>
<g>
</g>
<g>
</g>
<g>
</g>
<g>
</g>
<g>
</g>
<g>
</g>
</svg>
