<?xml version="1.0" encoding="iso-8859-1"?>
<!-- Generator: Adobe Illustrator 21.0.0, SVG Export Plug-In . SVG Version: 6.00 Build 0)  -->
<svg version="1.1" id="Layer_1" xmlns="http://www.w3.org/2000/svg" xmlns:xlink="http://www.w3.org/1999/xlink" x="0px" y="0px"
	 viewBox="0 0 24 24" enable-background="new 0 0 24 24" xml:space="preserve">
<g>
	<path fill="#303C42" d="M23.5,3.0000963H14v-2.5c0-0.1489258-0.0664063-0.2905273-0.1816406-0.3852539
		c-0.1142578-0.0947266-0.2675781-0.1342773-0.4130859-0.105957l-13,2.5C0.1699219,2.5542955,0,2.7603502,0,3.0000963v18
		c0,0.2397461,0.1699219,0.4458008,0.4052734,0.4912109l13,2.5c0.03125,0.0058594,0.0634766,0.0087891,0.0947266,0.0087891
		c0.1152344,0,0.2285156-0.0400391,0.3183594-0.1147461C13.9335938,23.7906227,14,23.6490211,14,23.5000954v-2.5h9.5
		c0.2763672,0,0.5-0.2236328,0.5-0.5v-17C24,3.2237291,23.7763672,3.0000963,23.5,3.0000963z M13,22.8946266L1,20.5870094V3.4131823
		l12-2.3076172V22.8946266z M23,20.0000954h-9v-1.5h7.5c0.2763672,0,0.5-0.2236328,0.5-0.5s-0.2236328-0.5-0.5-0.5H14v-1.999999h7.5
		c0.2763672,0,0.5-0.2236328,0.5-0.5s-0.2236328-0.5-0.5-0.5H14v-2h7.5c0.2763672,0,0.5-0.2236328,0.5-0.5s-0.2236328-0.5-0.5-0.5
		H14v-2h7.5c0.2763672,0,0.5-0.2236328,0.5-0.5s-0.2236328-0.5-0.5-0.5H14v-2h7.5c0.2763672,0,0.5-0.2236328,0.5-0.5
		s-0.2236328-0.5-0.5-0.5H14v-1.5h9V20.0000954z"/>
	<path fill="#303C42" d="M10.6289063,7.5171862c-0.2685547-0.0732422-0.5419922,0.0883789-0.6123047,0.3540039l-1.5341797,5.7514648
		L6.9804688,8.3628893c-0.0605469-0.2128906-0.2539063-0.3603516-0.4755859-0.362793
		C6.3095703,8.0401354,6.0878906,8.1412096,6.0224609,8.3531237l-1.4726563,4.784668L3.4853516,8.8790026
		C3.4179688,8.6104479,3.140625,8.4473619,2.8789063,8.515233c-0.2685547,0.0668945-0.4306641,0.3383789-0.3642578,0.605957l1.5,6
		c0.0546875,0.2177734,0.2480469,0.3725586,0.4716797,0.3789063c0.2695313,0.0058594,0.4257813-0.1386719,0.4912109-0.3530273
		l1.5048828-4.8886719l1.5361328,5.3798828c0.0605469,0.2148438,0.2578125,0.362792,0.4804688,0.362792
		c0.0009766,0,0.0029297,0,0.0039063,0c0.2255859-0.0019522,0.4208984-0.1538076,0.4794922-0.3710928l2.0009766-7.5009766
		C11.0546875,7.8619127,10.8955078,7.5879869,10.6289063,7.5171862z"/>
</g>
<g>
</g>
<g>
</g>
<g>
</g>
<g>
</g>
<g>
</g>
<g>
</g>
<g>
</g>
<g>
</g>
<g>
</g>
<g>
</g>
<g>
</g>
<g>
</g>
<g>
</g>
<g>
</g>
<g>
</g>
</svg>
