<?xml version="1.0" encoding="iso-8859-1"?>
<!-- Generator: Adobe Illustrator 21.0.0, SVG Export Plug-In . SVG Version: 6.00 Build 0)  -->
<svg version="1.1" id="Layer_1" xmlns="http://www.w3.org/2000/svg" xmlns:xlink="http://www.w3.org/1999/xlink" x="0px" y="0px"
	 viewBox="0 0 30 30" enable-background="new 0 0 30 30" xml:space="preserve">
<g>
	<path fill="#303C42" d="M10.5,5h-8C2.2236328,5,2,5.2236328,2,5.5S2.2236328,6,2.5,6h8C10.7763672,6,11,5.7763672,11,5.5
		S10.7763672,5,10.5,5z"/>
	<path fill="#303C42" d="M28,5H14.7070313l-1.8535156-1.8535156C12.7597656,3.0527344,12.6328125,3,12.5,3H2
		C0.8969727,3,0,3.8969727,0,5v2.5V24c0,1.1030273,0.8969727,2,2,2h3v0.5C5,26.7763672,5.2236328,27,5.5,27h4
		c0.2763672,0,0.5-0.2236328,0.5-0.5V26h10v0.5c0,0.2763672,0.2236328,0.5,0.5,0.5h4c0.2763672,0,0.5-0.2236328,0.5-0.5V26h3
		c1.1030273,0,2-0.8969727,2-2V7C30,5.8969727,29.1030273,5,28,5z M1,5c0-0.5512695,0.4487305-1,1-1h10.2929688l1.5,1.5l-1.5,1.5H1
		V5z M10,25v-5h10v5H10z M24,26h-3v-6.5c0-0.2763672-0.2236328-0.5-0.5-0.5h-11C9.2236328,19,9,19.2236328,9,19.5V26H6v-9
		c0-0.5512695,0.4487305-1,1-1h16c0.5512695,0,1,0.4487305,1,1V26z M29,24c0,0.5512695-0.4487305,1-1,1h-3v-8
		c0-1.1030273-0.8969727-2-2-2H7c-1.1030273,0-2,0.8969727-2,2v8H2c-0.5512695,0-1-0.4487305-1-1V8h11.5
		c0.1328125,0,0.2597656-0.0527344,0.3535156-0.1464844L14.7070313,6H28c0.5512695,0,1,0.4487305,1,1V24z"/>
</g>
<g>
</g>
<g>
</g>
<g>
</g>
<g>
</g>
<g>
</g>
<g>
</g>
<g>
</g>
<g>
</g>
<g>
</g>
<g>
</g>
<g>
</g>
<g>
</g>
<g>
</g>
<g>
</g>
<g>
</g>
</svg>
