<?xml version="1.0" encoding="iso-8859-1"?>
<!-- Generator: Adobe Illustrator 21.0.0, SVG Export Plug-In . SVG Version: 6.00 Build 0)  -->
<svg version="1.1" id="Layer_1" xmlns="http://www.w3.org/2000/svg" xmlns:xlink="http://www.w3.org/1999/xlink" x="0px" y="0px"
	 viewBox="0 0 24 24" enable-background="new 0 0 24 24" xml:space="preserve">
<path fill="#303C42" d="M23.5,8.5000963c0.2763672,0,0.5-0.2236328,0.5-0.5v-4c0-0.2763672-0.2236328-0.5-0.5-0.5H23
	c0-0.2763672-0.2236328-0.5-0.5-0.5H14v-2.5c0-0.1489258-0.0664063-0.2905273-0.1816406-0.3852539
	c-0.1142578-0.0947266-0.2675781-0.1342773-0.4130859-0.105957l-13,2.5C0.1699219,2.5542955,0,2.7603502,0,3.0000963v18
	c0,0.2397461,0.1699219,0.4458008,0.4052734,0.4912109l13,2.5c0.03125,0.0058594,0.0634766,0.0087891,0.0947266,0.0087891
	c0.1152344,0,0.2285156-0.0400391,0.3183594-0.1147461C13.9335938,23.7906227,14,23.6490211,14,23.5000954v-2.5h8.5
	c0.2763672,0,0.5-0.2236328,0.5-0.5h0.5c0.2763672,0,0.5-0.2236328,0.5-0.5v-4c0-0.2763662-0.2236328-0.499999-0.5-0.499999H23v-1
	h0.5c0.2763672,0,0.5-0.2236328,0.5-0.5v-4c0-0.2763672-0.2236328-0.5-0.5-0.5H23v-1H23.5z M10,16.5000954
	c0,0.2177734-0.140625,0.4106445-0.3486328,0.4765625C9.6015625,16.9922829,9.5507813,17.0000954,9.5,17.0000954
	c-0.1591797,0-0.3134766-0.0761719-0.4082031-0.2114258L4,9.5752916v6.4248037c0,0.2763672-0.2236328,0.5-0.5,0.5
	s-0.5-0.2236328-0.5-0.5v-7.999999c0-0.2177734,0.140625-0.4106445,0.3486328-0.4765625
	C3.5546875,7.459569,3.7832031,7.5328112,3.9082031,7.7115221L9,14.924901V7.5000963c0-0.2763672,0.2236328-0.5,0.5-0.5
	s0.5,0.2236328,0.5,0.5V16.5000954z M14,20.0000954v-1.5h6.5c0.2763672,0,0.5-0.2236328,0.5-0.5s-0.2236328-0.5-0.5-0.5H14
	v-1.999999h6.5c0.2763672,0,0.5-0.2236328,0.5-0.5s-0.2236328-0.5-0.5-0.5H14v-2h6.5c0.2763672,0,0.5-0.2236328,0.5-0.5
	s-0.2236328-0.5-0.5-0.5H14v-2h6.5c0.2763672,0,0.5-0.2236328,0.5-0.5s-0.2236328-0.5-0.5-0.5H14v-2h6.5
	c0.2763672,0,0.5-0.2236328,0.5-0.5s-0.2236328-0.5-0.5-0.5H14v-1.5h8c0,0.2763672,0.2236328,0.5,0.5,0.5H23v3h-0.5
	c-0.2763672,0-0.5,0.2236328-0.5,0.5v2v4v1.999999v4H14z"/>
<g>
</g>
<g>
</g>
<g>
</g>
<g>
</g>
<g>
</g>
<g>
</g>
<g>
</g>
<g>
</g>
<g>
</g>
<g>
</g>
<g>
</g>
<g>
</g>
<g>
</g>
<g>
</g>
<g>
</g>
</svg>
