<?xml version="1.0" encoding="iso-8859-1"?>
<!-- Generator: Adobe Illustrator 21.0.0, SVG Export Plug-In . SVG Version: 6.00 Build 0)  -->
<svg version="1.1" id="Layer_1" xmlns="http://www.w3.org/2000/svg" xmlns:xlink="http://www.w3.org/1999/xlink" x="0px" y="0px"
	 viewBox="0 0 24 24" enable-background="new 0 0 24 24" xml:space="preserve">
<path fill="#303C42" d="M12,0C5.3828125,0,0,5.3833008,0,12s5.3828125,12,12,12s12-5.3833008,12-12S18.6171875,0,12,0z M1,12
	C1,5.9345703,5.9345703,1,12,1c0.6837769,0,1.3504028,0.071106,2,0.1911011
	C11.7262573,1.611084,9.6962891,2.7278442,8.1419678,4.3173218C8.1223755,4.3370361,8.0984497,4.3505249,8.0791016,4.3706055
	L8.086792,4.3779907C6.1799316,6.3570557,5,9.0412598,5,12s1.1799316,5.6429443,3.086792,7.6220093l-0.0076904,0.0073853
	c0.0193481,0.0200806,0.0432739,0.0335693,0.0628662,0.0532837C9.6962891,21.2721558,11.7262573,22.388916,14,22.8088989
	C13.3504028,22.928894,12.6837769,23,12,23C5.9345703,23,1,18.0654297,1,12z M8.8517456,18.979126
	C7.0904541,17.1755981,6,14.7140503,6,12s1.0904541-5.1755981,2.8517456-6.979126
	C9.6856689,4.1814575,10.7987061,3.7148438,12,3.7148438c1.2246094,0,2.3613281,0.4794922,3.2011719,1.3500977
	C17.0058594,6.9360352,18,9.3989258,18,12s-0.9941406,5.0639648-2.7998047,6.9350586
	C14.3613281,19.8056641,13.2246094,20.2851563,12,20.2851563C10.7987061,20.2851563,9.6856689,19.8185425,8.8517456,18.979126z
	 M16.6190796,21.9694824C16.4137573,21.9846802,16.2091675,22,16,22c-1.3290405,0-2.5957642-0.2659302-3.757019-0.7388306
	c1.4035645-0.0610962,2.7044678-0.6228638,3.6769409-1.6317749C17.90625,17.5708008,19,14.8613281,19,12
	s-1.09375-5.5708008-3.0791016-7.6293945c-0.9733887-1.0089111-2.274353-1.5706787-3.6779175-1.6317749
	C13.4042358,2.2659302,14.6709595,2,16,2c0.2077637,0,0.4127197,0.0149536,0.6176147,0.0298462
	C20.3796387,3.779541,23,7.585022,23,12C23,16.4144287,20.3803101,20.2194214,16.6190796,21.9694824z"/>
<g>
</g>
<g>
</g>
<g>
</g>
<g>
</g>
<g>
</g>
<g>
</g>
<g>
</g>
<g>
</g>
<g>
</g>
<g>
</g>
<g>
</g>
<g>
</g>
<g>
</g>
<g>
</g>
<g>
</g>
</svg>
