<?xml version="1.0" encoding="iso-8859-1"?>
<!-- Generator: Adobe Illustrator 21.0.0, SVG Export Plug-In . SVG Version: 6.00 Build 0)  -->
<svg version="1.1" id="Layer_1" xmlns="http://www.w3.org/2000/svg" xmlns:xlink="http://www.w3.org/1999/xlink" x="0px" y="0px"
	 viewBox="0 0 24 24" enable-background="new 0 0 24 24" xml:space="preserve">
<path fill="#303C42" d="M23.5,3.0000963H14v-2.5c0-0.1489258-0.0664063-0.2905273-0.1816406-0.3852539
	c-0.1142578-0.0947266-0.2675781-0.1342773-0.4130859-0.105957l-13,2.5C0.1699219,2.5542955,0,2.7603502,0,3.0000963v18
	c0,0.2397461,0.1699219,0.4458008,0.4052734,0.4912109l13,2.5c0.03125,0.0058594,0.0634766,0.0087891,0.0947266,0.0087891
	c0.1152344,0,0.2285156-0.0400391,0.3183594-0.1147461C13.9335938,23.7906227,14,23.6490211,14,23.5000954v-2.5h9.5
	c0.2763672,0,0.5-0.2236328,0.5-0.5v-17C24,3.2237291,23.7763672,3.0000963,23.5,3.0000963z M10.9833984,8.1290026
	l-2.0009766,7.5009766c-0.0585938,0.2172852-0.2539063,0.3691406-0.4794922,0.3710928c-0.0009766,0-0.0029297,0-0.0039063,0
	c-0.2226563,0-0.4199219-0.1479483-0.4804688-0.362792l-1.5361328-5.3798828L4.9775391,15.147069
	c-0.0654297,0.2143555-0.2216797,0.3588867-0.4912109,0.3530273c-0.2236328-0.0063477-0.4169922-0.1611328-0.4716797-0.3789063
	l-1.5-6C2.4482422,8.8536119,2.6103516,8.5821276,2.8789063,8.515233C3.140625,8.4473619,3.4179688,8.6104479,3.4853516,8.8790026
	l1.0644531,4.2587891l1.4726563-4.784668c0.0654297-0.2119141,0.2871094-0.3129883,0.4824219-0.3530273
	c0.2216797,0.0024414,0.4150391,0.1499023,0.4755859,0.362793l1.5019531,5.2597656l1.5341797-5.7514648
	c0.0703125-0.265625,0.34375-0.4272461,0.6123047-0.3540039C10.8955078,7.5879869,11.0546875,7.8619127,10.9833984,8.1290026z
	 M23,20.0000954h-9v-1.5h7.5c0.2763672,0,0.5-0.2236328,0.5-0.5s-0.2236328-0.5-0.5-0.5H14v-1.999999h7.5
	c0.2763672,0,0.5-0.2236328,0.5-0.5s-0.2236328-0.5-0.5-0.5H14v-2h7.5c0.2763672,0,0.5-0.2236328,0.5-0.5s-0.2236328-0.5-0.5-0.5H14
	v-2h7.5c0.2763672,0,0.5-0.2236328,0.5-0.5s-0.2236328-0.5-0.5-0.5H14v-2h7.5c0.2763672,0,0.5-0.2236328,0.5-0.5
	s-0.2236328-0.5-0.5-0.5H14v-1.5h9V20.0000954z"/>
<g>
</g>
<g>
</g>
<g>
</g>
<g>
</g>
<g>
</g>
<g>
</g>
<g>
</g>
<g>
</g>
<g>
</g>
<g>
</g>
<g>
</g>
<g>
</g>
<g>
</g>
<g>
</g>
<g>
</g>
</svg>
