<?xml version="1.0" encoding="iso-8859-1"?>
<!-- Generator: Adobe Illustrator 21.0.0, SVG Export Plug-In . SVG Version: 6.00 Build 0)  -->
<svg version="1.1" id="Layer_1" xmlns="http://www.w3.org/2000/svg" xmlns:xlink="http://www.w3.org/1999/xlink" x="0px" y="0px"
	 viewBox="0 0 30 30" enable-background="new 0 0 30 30" xml:space="preserve">
<g>
	<path fill="#303C42" d="M15.7988281,14.6672382l-12.9233398-14.5c-0.137207-0.1547852-0.3554688-0.2075195-0.5512695-0.1347656
		C2.1572266,0.0959493,2.0390625,0.242922,2.0097656,0.4152853C2.003418,0.4475118,2,0.4816915,2,0.5129415v28.9736328
		c0,0.03125,0.003418,0.0649414,0.0097656,0.097168c0.0292969,0.1723633,0.1474609,0.3193359,0.3144531,0.3833008
		c0.0581055,0.0219727,0.1186523,0.0327148,0.1782227,0.0327148c0.1396484,0,0.2763672-0.0585938,0.3730469-0.1674805
		l12.9233398-14.5C15.9682617,15.1428242,15.9682617,14.8566914,15.7988281,14.6672382z"/>
	<path fill="#303C42" d="M27.4614258,14.0139179c-1.5097656-0.9453125-3.4116211-2.1225586-5.5043945-3.4086914
		c-0.206543-0.128418-0.4741211-0.0883789-0.6347656,0.0932617l-3.5375977,3.96875
		c-0.1694336,0.1894531-0.1694336,0.4755859,0,0.6650391l3.5375977,3.96875
		c0.0976563,0.1098633,0.234375,0.1674805,0.3730469,0.1674805c0.090332,0,0.1806641-0.0244141,0.2617188-0.0742188
		c2.0927734-1.2861328,3.9946289-2.4633789,5.5048828-3.4086914C27.7988281,15.7741718,28,15.4060078,28,14.9997578
		S27.7988281,14.2253437,27.4614258,14.0139179z"/>
	<path fill="#303C42" d="M17.1650391,16.1999531c-0.1894531-0.2128906-0.5566406-0.2128906-0.7460938,0L5.9042969,27.9973164
		c-0.1645508,0.184082-0.1694336,0.4609375-0.012207,0.6513672c0.0981445,0.1181641,0.2407227,0.1811523,0.3857422,0.1811523
		c0.0878906,0,0.1762695-0.0229492,0.2563477-0.0708008c3.8901367-2.3291016,8.9951172-5.4243164,13.65625-8.2802734
		c0.1264648-0.0771484,0.2119141-0.206543,0.2333984-0.3530273c0.0214844-0.1469727-0.0229492-0.2954102-0.121582-0.4057617
		L17.1650391,16.1999531z"/>
	<path fill="#303C42" d="M16.4189453,13.7995625c0.0947266,0.1064453,0.2304688,0.1674805,0.3730469,0.1674805
		s0.2783203-0.0610352,0.3730469-0.1674805l3.137207-3.5200195c0.0986328-0.1103516,0.1430664-0.2587891,0.121582-0.4057617
		c-0.0214844-0.1464844-0.1069336-0.2758789-0.2333984-0.3530273c-4.6611328-2.855957-9.7661133-5.9511719-13.65625-8.2802734
		C6.3222656,1.1140157,6.0493164,1.1608907,5.8920898,1.3508321c-0.1572266,0.1904297-0.1523438,0.4672852,0.012207,0.6513673
		L16.4189453,13.7995625z"/>
</g>
<g>
</g>
<g>
</g>
<g>
</g>
<g>
</g>
<g>
</g>
<g>
</g>
<g>
</g>
<g>
</g>
<g>
</g>
<g>
</g>
<g>
</g>
<g>
</g>
<g>
</g>
<g>
</g>
<g>
</g>
</svg>
