<?xml version="1.0" encoding="iso-8859-1"?>
<!-- Generator: Adobe Illustrator 21.0.0, SVG Export Plug-In . SVG Version: 6.00 Build 0)  -->
<svg version="1.1" id="Layer_1" xmlns="http://www.w3.org/2000/svg" xmlns:xlink="http://www.w3.org/1999/xlink" x="0px" y="0px"
	 viewBox="0 0 30 30" enable-background="new 0 0 30 30" xml:space="preserve">
<g>
	<path fill="#303C42" d="M29.9325447,23.2495117l-11-19C18.8436775,4.0952148,18.6786385,4,18.4999275,4h-2.1914063
		l-0.3613281-0.7236328C15.8622322,3.1069336,15.6893806,3,15.4999275,3h-3.5c-0.1728516,0-0.3330078,0.0888672-0.4238281,0.2348633
		l-2.5,4C8.983326,7.3828125,8.9745369,7.5678711,9.0526619,7.7236328L9.429615,8.4785156l-4.3007808,7.1679688l-1.40625,0.9370117
		c-0.0634766,0.0419922-0.1162109,0.0981445-0.1542969,0.1640625l-3.5,6.0004883
		c-0.0966797,0.1650391-0.0898438,0.3706055,0.015625,0.5292969l2,3C2.1766858,26.4165039,2.3329358,26.5,2.499928,26.5h0.5
		c0,0.2763672,0.2236328,0.5,0.5,0.5h24c0.1669922,0,0.3232422-0.0834961,0.4160156-0.2226563l2-3
		C30.0214119,23.6191406,30.0282478,23.4140625,29.9325447,23.2495117z M27.2323494,26H3.999928c0-0.2763672-0.2236328-0.5-0.5-0.5
		H2.7675061l-1.6787109-2.5175781l3.2851563-5.6308594l1.4033203-0.9355469
		C5.8387952,16.375,5.890553,16.3208008,5.9286389,16.2573242l4.4999995-7.4995117
		c0.0878906-0.1464844,0.0947266-0.328125,0.0185547-0.480957l-0.375-0.7495117L12.2772713,4h2.9140625l0.3613281,0.7236328
		C15.6376228,4.8930664,15.8104744,5,15.9999275,5h2.2119141l10.6992188,18.4814453L27.2323494,26z"/>
	<path fill="#303C42" d="M14.4999275,9H14.498951c-0.1787109,0.0004883-0.3447266,0.0966797-0.4335938,0.2519531l-7.9999995,14
		c-0.0878906,0.1547852-0.0869141,0.3447266,0.0019531,0.4990234C6.1571546,23.9052734,6.3212171,24,6.499928,24h7.4999995
		c0.1728516,0,0.3339844-0.0898438,0.4257813-0.2373047c0.0908203-0.1474609,0.0986328-0.331543,0.0214844-0.4863281L14.3085213,23
		h7.6914063c0.1787109,0,0.34375-0.0952148,0.4326172-0.25c0.0898438-0.1547852,0.0898438-0.3452148,0-0.5l-7.5-13
		C14.8436775,9.0952148,14.6786385,9,14.4999275,9z M13.4999275,22c-0.1728516,0-0.3339844,0.0898438-0.4257813,0.2373047
		c-0.0908203,0.1474609-0.0986328,0.331543-0.0214844,0.4863281L13.1913338,23H7.3612561l7.1406245-12.4960938L21.1346931,22
		H13.4999275z"/>
</g>
<g>
</g>
<g>
</g>
<g>
</g>
<g>
</g>
<g>
</g>
<g>
</g>
<g>
</g>
<g>
</g>
<g>
</g>
<g>
</g>
<g>
</g>
<g>
</g>
<g>
</g>
<g>
</g>
<g>
</g>
</svg>
