<?xml version="1.0" encoding="iso-8859-1"?>
<!-- Generator: Adobe Illustrator 21.0.0, SVG Export Plug-In . SVG Version: 6.00 Build 0)  -->
<svg version="1.1" id="Layer_1" xmlns="http://www.w3.org/2000/svg" xmlns:xlink="http://www.w3.org/1999/xlink" x="0px" y="0px"
	 viewBox="0 0 30 30" enable-background="new 0 0 30 30" xml:space="preserve">
<g>
	<path fill="#303C42" d="M7.8330078,11.00002H7v4h1c1.1777344,0,2-0.8222656,2-2
		C10,11.878438,9.0478516,11.00002,7.8330078,11.00002z"/>
	<path fill="#303C42" d="M29.5,4.0000196H18V0.5000197c0-0.1484375-0.0664063-0.2895508-0.1806641-0.3842773
		c-0.1132813-0.0957031-0.2626953-0.1342773-0.4101563-0.1074219l-17,3.1523438C0.171875,3.2046096,0,3.4111526,0,3.6523635
		v22.6953125c0,0.2412109,0.171875,0.4477539,0.4091797,0.4916992l17,3.1523438
		c0.0302734,0.0053711,0.0605469,0.0083008,0.0908203,0.0083008c0.1162109,0,0.2294922-0.0405273,0.3193359-0.1157227
		C17.9335938,29.7895699,18,29.6484566,18,29.5000191v-3.5h11.5c0.2763672,0,0.5-0.2236328,0.5-0.5v-21
		C30,4.2236524,29.7763672,4.0000196,29.5,4.0000196z M8,16.0000191H7v3.5c0,0.2763672-0.2236328,0.5-0.5,0.5
		s-0.5-0.2236328-0.5-0.5V10.50002c0-0.2763672,0.2236328-0.5,0.5-0.5h1.3330078c1.7763672,0,3.1669922,1.3178711,3.1669922,3
		C11,14.7104692,9.7099609,16.0000191,8,16.0000191z M29,25.0000191H18v-2h9.5c0.2763672,0,0.5-0.2236328,0.5-0.5
		s-0.2236328-0.5-0.5-0.5H18v-2h9.5c0.2763672,0,0.5-0.2236328,0.5-0.5s-0.2236328-0.5-0.5-0.5H18v-3.706481
		c0.8253174,1.0316153,2.0791016,1.706481,3.5,1.706481c2.0419922,0,3.8271484-1.3876944,4.3427734-3.3745108
		c0.0380859-0.1499023,0.0058594-0.309082-0.0888672-0.4316406c-0.0947266-0.1220703-0.2412109-0.1938477-0.3955078-0.1938477H22.5
		c-0.8271484,0-1.5-0.6728516-1.5-1.5V8.6416216c0-0.1547852-0.0712891-0.3007813-0.1943359-0.3955078
		C20.6835938,8.1513872,20.5214844,8.1172075,20.375,8.1577349C19.4105225,8.4072466,18.5919189,8.9602251,18,9.692708V5.0000196h11
		V25.0000191z"/>
	<path fill="#303C42" d="M22.5,12.00002h4c0.2763672,0,0.5-0.2236328,0.5-0.5c0-2.4814453-2.0185547-4.5000005-4.5-4.5000005
		c-0.2763672,0-0.5,0.2236328-0.5,0.5V11.50002C22,11.7763872,22.2236328,12.00002,22.5,12.00002z"/>
</g>
<g>
</g>
<g>
</g>
<g>
</g>
<g>
</g>
<g>
</g>
<g>
</g>
<g>
</g>
<g>
</g>
<g>
</g>
<g>
</g>
<g>
</g>
<g>
</g>
<g>
</g>
<g>
</g>
<g>
</g>
</svg>
