<?xml version="1.0" encoding="iso-8859-1"?>
<!-- Generator: Adobe Illustrator 21.0.0, SVG Export Plug-In . SVG Version: 6.00 Build 0)  -->
<svg version="1.1" id="Layer_1" xmlns="http://www.w3.org/2000/svg" xmlns:xlink="http://www.w3.org/1999/xlink" x="0px" y="0px"
	 viewBox="0 0 30 30" enable-background="new 0 0 30 30" xml:space="preserve">
<path fill="#303C42" d="M25.7553711,24.0341797c-0.2548828-0.1743164-0.519043-0.3549805-0.7104492-0.5541992
	c-0.1513672-0.1577148-0.105957-0.6538086-0.0727539-1.015625c0.0368652-0.4039307,0.0697632-0.8162842-0.0775757-1.1432495
	C24.9614868,20.9381104,24.9985352,20.5003662,24.9985352,20c0-4.0541992-1.8579102-6.2724609-3.3505859-8.0551758
	C20.7275391,10.8447266,20,9.9760742,20,9c0-5.972168-1.6821289-9-5-9c-2.4692383,0-4,1.2548828-4,7.5
	c0,1.6967773-0.7158203,3.059082-1.4736328,4.5009766C9.1611328,12.6967773,8.7827148,13.4165039,8.4814453,14.1875
	c-0.9186401,2.3528442-1.8081665,4.7340698-1.9520264,6.1275635c-0.5458984,0.2858887-0.7062988,0.9516602-0.8092041,1.3929443
	c-0.0415039,0.1782227-0.1044922,0.4467773-0.1489258,0.5009766c-0.0883789,0.0649414-0.4467773,0.1386719-0.6845703,0.1879883
	C4.1352539,22.5517578,3,22.7861328,3,23.8261719c0,0.3369141,0.0498047,0.6171875,0.0981445,0.8881836
	c0.0922852,0.5170898,0.1875,1.0522461-0.0834961,2.1430664C3.0048828,26.8969727,3,26.9375,3,26.9780273
	c0,1.3945313,2.1987305,1.5854492,3.5126953,1.6992188c0.2275391,0.0200195,0.4160156,0.0356445,0.5375977,0.0551758
	c0.1982422,0.0327148,0.59375,0.2226563,0.9770508,0.4067383C8.8261719,29.5224609,9.8203125,30,10.7631836,30
	c0.4108887,0,0.7611084-0.1917725,1.0246582-0.5083008l0.0129395,0.0107422C12.0009766,29.2607422,13.28125,29,15,29h3.8483276
	c0.0667114,0.1750488,0.1599121,0.3449097,0.2976685,0.4956055C19.4521484,29.8300781,19.8896484,30,20.4472656,30
	c1.5322266,0,2.2788086-0.8261719,3.0004883-1.6254883c0.1245117-0.1381836,0.2519531-0.2792969,0.3867188-0.4194336
	c0.3237305-0.3374023,0.9345703-0.5693359,1.4736328-0.7744141C26.1401367,26.8642578,27,26.5371094,27,25.7172852
	C27,24.8842773,26.3388672,24.4326172,25.7553711,24.0341797z M15,1c2.6542969,0,4,2.6914063,4,8
	c0,1.3398438,0.8720703,2.3808594,1.8813477,3.5864258C22.2700195,14.2451172,23.9985352,16.309082,23.9985352,20
	c0,3-1.3852539,3-2.4985352,3c-0.1875057,0-0.269043-0.0668945-0.3193359-0.125
	C20.9345703,22.5888672,20.9487305,21.8759766,21,21.5c0-3.548645-0.2357178-7.4876709-3.0163574-13.1471558
	c-0.0696411-0.6013794-0.5471191-1.079895-1.1326904-1.4433594C17.2406006,6.7092896,17.5,6.1801147,17.5,5.5
	c0-0.8691406-0.4204102-1.5-1-1.5s-1,0.6308594-1,1.5c0,0.317688,0.057251,0.602356,0.1568604,0.8372192
	c-0.4627686-0.1730957-0.8604736-0.2789917-1.0372314-0.3225708C14.5805664,6.0048828,14.5405273,6,14.5,6
	c-0.3370972,0-0.7280273,0.0908203-1.1240234,0.2426758C13.453186,6.0265503,13.5,5.7775269,13.5,5.5
	c0-0.8691406-0.4204102-1.5-1-1.5c-0.0949707,0-0.1835938,0.022583-0.2689209,0.0547485C12.7315674,1.0144653,13.9625854,1,15,1z
	 M12.0112915,6.8190308c0.0457153,0.0360718,0.0930176,0.0675049,0.1433105,0.0928955
	c-0.0513306,0.0370483-0.0975952,0.0767212-0.1467285,0.1151733C12.0088501,6.9570313,12.0098877,6.8875122,12.0112915,6.8190308z
	 M14.4428711,7.0014648c1.0229492,0.2636719,2.3720703,0.8613281,2.5400391,1.3916016
	c-0.4692383,0.4599609-2.5668945,1.559082-2.9726563,1.6074219c-0.4536133-0.0483398-1.9389648-1.109375-2.0107422-1.4941406
	C12.0512695,8.1210938,13.4736328,7.0429688,14.4428711,7.0014648z M9.4130859,14.5517578
	c0.2807617-0.7192383,0.6459961-1.4140625,0.9985352-2.0854492c0.4692383-0.8930054,0.9449463-1.8062134,1.2524414-2.8133545
	C12.40448,10.3822021,13.555481,11,14,11c0.3583984,0,2.3151245-0.8337402,3.3521118-1.6462402
	c2.3274536,4.9475098,2.6253662,8.5152588,2.6509399,11.6513062c-0.565979,0.5013428-0.8809814,1.9262695-1.0541992,3.3455811
	c-1.7850952,1.9038696-5.6085815,1.7519531-7.0704346,1.6928101c-0.0758667-0.0029907-0.1394653-0.0053711-0.2038574-0.0077515
	c-0.2911987-0.4946899-0.6880493-0.965271-1.2233887-1.3535767c-0.621582-0.4511719-1.0922852-1.4765625-1.5073242-2.3808594
	c-0.4301758-0.9381714-0.815979-1.7615356-1.402771-2.0286255C7.7380981,18.8502808,8.807312,16.1027222,9.4130859,14.5517578z
	 M10.7631836,29c-0.715332,0-1.5957031-0.4228516-2.3032227-0.762207c-0.5073242-0.2436523-0.9082031-0.4360352-1.2475586-0.4916992
	c-0.1386719-0.0229492-0.3540039-0.0424805-0.6132813-0.0649414c-2.1069336-0.1826172-2.5439453-0.4804688-2.59375-0.6645508
	c0.296875-1.2441406,0.1801758-1.8984375,0.0771484-2.4775391C4.0380859,24.2900391,4,24.074707,4,23.8261719
	c0-0.2255859,0.6816406-0.3662109,1.0888672-0.4501953c0.4995117-0.1030273,0.9311523-0.1918945,1.1923828-0.4643555
	c0.2441406-0.2539063,0.3300781-0.6210938,0.4125977-0.9760742c0.1547852-0.6616211,0.2363281-0.7617188,0.4306641-0.762207
	c0.2304688,0.0625,0.65625,0.9902344,0.9106445,1.5449219c0.4663086,1.0161133,0.9946289,2.168457,1.8291016,2.7734375
	c1.2929688,0.9379883,1.5473633,2.3696289,1.3144531,3.0869141c-0.0310059,0.0961304-0.0772705,0.201355-0.1444702,0.2825928
	c-0.0007935,0.0009155-0.0021973,0.0016479-0.0029907,0.0025635l0.000061,0.000061
	C10.9642944,28.9436035,10.8770752,29,10.7631836,29z M12.2387695,28.2607422
	c0.0274658-0.3778687-0.0158691-0.788269-0.1314087-1.208313c0.291748,0.0112305,0.6242676,0.0222778,1.0166626,0.0222778
	c1.6454468,0,3.9967041-0.2037964,5.6923218-1.3311768c-0.0757446,1.0671997-0.0846558,1.9039307-0.0873413,1.9595947
	C18.7221069,27.7797241,18.7147217,27.8872681,18.710022,28H15C14.2402344,28,13.1221924,28.0440063,12.2387695,28.2607422z
	 M24.9526367,26.2460938c-0.6376953,0.2421875-1.3603516,0.5170898-1.8398438,1.0166016
	c-0.1416016,0.1474609-0.2758789,0.2958984-0.4072266,0.4418945C22.0258789,28.456543,21.5351563,29,20.4472656,29
	c-0.2651367,0-0.4545898-0.0605469-0.5634766-0.1791992c-0.2285156-0.25-0.1796875-0.7954102-0.1586914-1.0283203
	c0.0073242-0.0795898,0.0117188-0.1425781,0.0117188-0.1835938c0.001709-0.6970215,0.1641846-2.9899292,0.4364624-4.5036011
	c0.0638428,0.1494751,0.1398926,0.2938843,0.2471313,0.4191284C20.6870117,23.8354492,21.0600586,24,21.5,24
	c0.6420288,0,1.6758423-0.0011597,2.4536133-0.723877c0.0316772,0.3276978,0.1278076,0.6443481,0.3696289,0.8962402
	c0.2636719,0.2744141,0.5708008,0.484375,0.8681641,0.6875c0.5029297,0.34375,0.8085938,0.5727539,0.809082,0.855957
	C25.9428711,25.8696289,25.2988281,26.1142578,24.9526367,26.2460938z"/>
<g>
</g>
<g>
</g>
<g>
</g>
<g>
</g>
<g>
</g>
<g>
</g>
<g>
</g>
<g>
</g>
<g>
</g>
<g>
</g>
<g>
</g>
<g>
</g>
<g>
</g>
<g>
</g>
<g>
</g>
</svg>
