<?xml version="1.0" encoding="iso-8859-1"?>
<!-- Generator: Adobe Illustrator 21.0.0, SVG Export Plug-In . SVG Version: 6.00 Build 0)  -->
<svg version="1.1" id="Layer_1" xmlns="http://www.w3.org/2000/svg" xmlns:xlink="http://www.w3.org/1999/xlink" x="0px" y="0px"
	 viewBox="0 0 30 30" enable-background="new 0 0 30 30" xml:space="preserve">
<g>
	<path fill="#303C42" d="M29.5,4H18V0.4988745c0-0.1484432-0.065918-0.2895618-0.1801758-0.384292
		c-0.1137695-0.0952185-0.2626953-0.1313527-0.4111328-0.107426l-17,3.1524639C0.171875,3.2035675,0,3.4101183,0,3.6513386
		V26.347517c0,0.2412205,0.171875,0.4477711,0.4086914,0.4917183l17,3.1524639C17.4389648,29.9970703,17.4697266,30,17.5,30
		c0.1157227,0,0.2290039-0.0405293,0.3198242-0.1157265C17.934082,29.7895432,18,29.6484241,18,29.4999809v-3.5001335h11.5
		c0.2763672,0,0.5-0.2236404,0.5-0.5000191V4.4990273C30,4.2226496,29.7763672,4,29.5,4z M17,28.8989258L1,25.9316406V4.0683594
		l16-2.9672852V28.8989258z M29,25H18v-2h9.5c0.2763672,0,0.5-0.2236328,0.5-0.5S27.7763672,22,27.5,22H18v-2h9.5
		c0.2763672,0,0.5-0.2236328,0.5-0.5S27.7763672,19,27.5,19H18v-2h9.5c0.2763672,0,0.5-0.2236328,0.5-0.5S27.7763672,16,27.5,16H18
		v-2h9.5c0.2763672,0,0.5-0.2236328,0.5-0.5S27.7763672,13,27.5,13H18v-2h9.5c0.2763672,0,0.5-0.2236328,0.5-0.5
		S27.7763672,10,27.5,10H18V8h9.5C27.7763672,8,28,7.7763672,28,7.5S27.7763672,7,27.5,7H18V5h11V25z"/>
	<path fill="#303C42" d="M13.1235352,9.515625c-0.2675781-0.0693359-0.5400391,0.0927734-0.6079102,0.3608398l-2.0019531,7.8447266
		l-2.0766602-7.2290039c-0.0615234-0.2138672-0.2568359-0.3613281-0.4790039-0.3618164H7.956543
		c-0.2216797,0-0.4174805,0.1459961-0.4799805,0.359375l-1.9404297,6.6123047l-1.5078125-5.9638672
		c-0.0678711-0.2675781-0.3378906-0.4296875-0.6074219-0.3623047c-0.2675781,0.0678711-0.4296875,0.3398438-0.3623047,0.6074219
		l1.956543,7.7392578c0.0551758,0.21875,0.25,0.3730469,0.4755859,0.3774414
		c0.2016602-0.0219727,0.425293-0.1430664,0.4892578-0.359375l1.9711914-6.7172852l2.1108398,7.3461914
		c0.0615234,0.2143555,0.2578125,0.3618164,0.4804688,0.3618164c0.0024414,0,0.0048828,0,0.0073242,0
		c0.2260742-0.003418,0.4213867-0.1577148,0.4770508-0.3764648l2.4575195-9.6313477
		C13.5527344,9.855957,13.3911133,9.5839844,13.1235352,9.515625z"/>
</g>
<g>
</g>
<g>
</g>
<g>
</g>
<g>
</g>
<g>
</g>
<g>
</g>
<g>
</g>
<g>
</g>
<g>
</g>
<g>
</g>
<g>
</g>
<g>
</g>
<g>
</g>
<g>
</g>
<g>
</g>
</svg>
