<?xml version="1.0" encoding="iso-8859-1"?>
<!-- Generator: Adobe Illustrator 21.0.0, SVG Export Plug-In . SVG Version: 6.00 Build 0)  -->
<svg version="1.1" id="Layer_1" xmlns="http://www.w3.org/2000/svg" xmlns:xlink="http://www.w3.org/1999/xlink" x="0px" y="0px"
	 viewBox="0 0 24 24" enable-background="new 0 0 24 24" xml:space="preserve">
<g id="XMLID_1314_">
	<g id="XMLID_1402_">
		<path id="XMLID_1427_" fill="none" stroke="#303C42" stroke-linecap="round" stroke-linejoin="round" stroke-miterlimit="10" d="
			M2.5,21.5c0.359375-1.390625,0-1.7711315,0-2.5c0-0.796875,1.65625-0.65625,2-1s0.15625-1.5,1-1.5S6.7850881,19.1539001,8,20
			c1.75,1.21875,1.59375,3.5,0.5,3.5s-2.40625-0.90625-3-1S2.5,22.40625,2.5,21.5z"/>
		<path id="XMLID_1429_" fill="none" stroke="#303C42" stroke-linecap="round" stroke-linejoin="round" stroke-miterlimit="10" d="
			M16.5,17c-0.78125,0-1,4.78125-1,5s-0.28125,1.5,1,1.5s1.765625-0.765625,2.5-1.5s2.5-0.8125,2.5-1.5S20.546875,19.546875,20,19
			s0.28125-2-0.5-2"/>
		<path id="XMLID_1426_" fill="none" stroke="#303C42" stroke-linecap="round" stroke-linejoin="round" stroke-miterlimit="10" d="
			M14,7c2.208334,4.291667,2.5,7,2.5,10c0,0-0.083334,1.5,1,1.5s2,0.166666,2-2.5c0-5.125-4-6.708333-4-9
			c0-1.5416665,0.208333-6.5-3.5-6.5c-1.708333,0-3,0.625-3,5.5c0,2.125-1.25,3.65625-2,5.5
			c-0.6361861,1.5639572-1.5,3.958333-1.5,5"/>
		<path id="XMLID_1408_" fill="none" stroke="#303C42" stroke-linecap="round" stroke-linejoin="round" stroke-miterlimit="10" d="
			M11.5,5.5C10.53125,5.5,9,6.4375,9,7s1.5625,1.5,2,1.5s3-1.1666665,3-1.5C14,6,11.5,5.5,11.5,5.5z"/>
		
			<ellipse id="XMLID_1407_" fill="none" stroke="#303C42" stroke-linecap="round" stroke-linejoin="round" stroke-miterlimit="10" cx="13" cy="4.5208335" rx="0.5" ry="0.9791667"/>
		
			<ellipse id="XMLID_1406_" fill="none" stroke="#303C42" stroke-linecap="round" stroke-linejoin="round" stroke-miterlimit="10" cx="10" cy="4.5208335" rx="0.5" ry="0.9791667"/>
		<path id="XMLID_1431_" fill="none" stroke="#303C42" stroke-linecap="round" stroke-linejoin="round" stroke-miterlimit="10" d="
			M9.103199,21.33284c0.958333,0.1875,4.7975073,0.5777588,6.5475073-1.4222412"/>
		<path id="XMLID_1430_" fill="none" stroke="#303C42" stroke-linecap="round" stroke-linejoin="round" stroke-miterlimit="10" d="
			M9.0391407,23.2487049C9.4349737,22.7903709,11.208333,22.5,12,22.5s3.3921566,0,3.3921566,0"/>
	</g>
</g>
<g>
</g>
<g>
</g>
<g>
</g>
<g>
</g>
<g>
</g>
<g>
</g>
<g>
</g>
<g>
</g>
<g>
</g>
<g>
</g>
<g>
</g>
<g>
</g>
<g>
</g>
<g>
</g>
<g>
</g>
</svg>
