<?xml version="1.0" encoding="iso-8859-1"?>
<!-- Generator: Adobe Illustrator 21.0.0, SVG Export Plug-In . SVG Version: 6.00 Build 0)  -->
<svg version="1.1" id="Layer_1" xmlns="http://www.w3.org/2000/svg" xmlns:xlink="http://www.w3.org/1999/xlink" x="0px" y="0px"
	 viewBox="0 0 24 24" enable-background="new 0 0 24 24" xml:space="preserve">
<g>
	<path fill="#303C42" d="M20.8527222,15.1098642l-0.5612183-0.9816895c-0.1367188-0.2402344-0.4428711-0.324707-0.6821289-0.1860352
		l-1.7358398,0.9921875c-0.2397461,0.137207-0.3232422,0.4423828-0.186039,0.6821289l0.5552406,0.9719839
		c-0.0654297,0.4851685-0.1170044,1.7445679,0.9037476,2.7653198c0.9379883,0.9384766,1.8920898,2.0439453,1.8540039,3.1289063
		c-0.0087891,0.237793,0.1518555,0.4487305,0.3837891,0.5039063c0.0385742,0.0092773,0.0776367,0.0136719,0.1157227,0.0136719
		c0.1914063,0,0.3706055-0.1103516,0.4541016-0.2905273C21.996582,22.6174316,23,20.4284668,23,19.0002441
		C23,16.3314819,21.4073486,15.3665781,20.8527222,15.1098642z"/>
	<path fill="#303C42" d="M2.5283203,14.7512217l1.7416992-3c0.0893555-0.1547852,0.0898438-0.3452148,0.0004883-0.5004883
		c-0.0888672-0.1547852-0.2543945-0.2504883-0.4331055-0.2504883H0.5c-0.2763672,0-0.5,0.2236328-0.5,0.5v3
		c0,0.2763672,0.2236328,0.5,0.5,0.5h1.5957031C2.2739258,15.0002451,2.4384766,14.9055185,2.5283203,14.7512217z"/>
	<path fill="#303C42" d="M14.0419922,11.2521982c-0.0888672-0.1557617-0.2543945-0.2519531-0.434082-0.2519531h-2.8325195
		c-0.1782227,0-0.3427734,0.0947266-0.4326172,0.2490234l-1.7421875,3
		c-0.0893555,0.1547852-0.0898438,0.3452148-0.0004883,0.5004883c0.0888672,0.1547852,0.2543945,0.2504883,0.4331055,0.2504883
		h6.2885742c0.1782227,0,0.3427734-0.0947266,0.4326172-0.2490234c0.0893555-0.1542969,0.0898438-0.3442383,0.0014648-0.4990234
		L14.0419922,11.2521982z"/>
	<path fill="#303C42" d="M23.5,11.0002451h-2.9824219c-0.1782227,0-0.3427734,0.0947266-0.4326172,0.2490234
		c-0.0893555,0.1542969-0.0898438,0.3442383-0.0014648,0.4990234l1.7143555,3
		c0.0888672,0.1557617,0.2548828,0.2519531,0.434082,0.2519531H23.5c0.2763672,0,0.5-0.2236328,0.5-0.5v-3
		C24,11.2238779,23.7763672,11.0002451,23.5,11.0002451z"/>
	<path fill="#303C42" d="M8.7363281,7.0466318l1.7294922,1.0039063c0.0791016,0.0458984,0.1655273,0.0673828,0.2504883,0.0673828
		c0.1723633,0,0.3398438-0.0893555,0.4331055-0.2490234l0.6479492-1.1157227
		c0.0664063-0.1147461,0.0844727-0.2509766,0.0507813-0.3793945c-0.0341797-0.1279297-0.1176758-0.2373047-0.2324219-0.3041992
		L9.8862305,5.0656748C9.6464844,4.9260263,9.3413086,5.0085459,9.203125,5.2473154L8.5546875,6.3630381
		C8.4882813,6.4777842,8.4702148,6.6140146,8.5039063,6.7424326C8.5380859,6.8703623,8.621582,6.9797373,8.7363281,7.0466318z"/>
	<path fill="#303C42" d="M10.1455078,9.5979013c0.0664063-0.1147461,0.0844727-0.2509766,0.0507813-0.3793945
		c-0.0341797-0.1279297-0.1176758-0.2373047-0.2324219-0.3041992L8.234375,7.9104013
		C7.9946289,7.7702646,7.6889648,7.8537607,7.5507813,8.092042l-5.3149414,9.1533194
		c-0.012085,0.020874-0.0140381,0.0449829-0.0228882,0.0670776c-0.0064087,0.0157471-0.0196533,0.0272827-0.0244751,0.0437622
		l-1.168457,4.0039063c-0.0644531,0.2207031,0.0302734,0.4570313,0.2290039,0.5727539
		C1.3271484,21.9782715,1.4140625,22.0002441,1.5,22.0002441c0.1318359,0,0.2626953-0.0522461,0.359375-0.152832l2.8984375-3
		c0.0166016-0.0172119,0.0222168-0.0408325,0.0360107-0.0599365c0.010498-0.0143433,0.0276489-0.0205688,0.0367432-0.0362549
		L10.1455078,9.5979013z M2.9696655,18.2494507l0.624939,0.362793l-1.0472412,1.0842896L2.9696655,18.2494507z"/>
	<path fill="#303C42" d="M19.2993164,12.3918467L12.934082,1.252198c-0.065918-0.1152344-0.1748047-0.1992188-0.3027344-0.234375
		c-0.1279297-0.0361328-0.2646484-0.0170898-0.3793945,0.0483398L10.515625,2.0583503
		c-0.1152344,0.065918-0.1992188,0.1748047-0.234375,0.3027344c-0.034668,0.1279297-0.0175781,0.2641602,0.0483398,0.3793945
		l6.3657227,11.1396484c0.065918,0.1152344,0.1748047,0.1992188,0.3027344,0.234375
		c0.0429688,0.0117188,0.0874023,0.0175781,0.1313477,0.0175781c0.0864258,0,0.171875-0.0224609,0.2480469-0.065918
		l1.7358398-0.9921875C19.3530273,12.9367685,19.4365234,12.6315928,19.2993164,12.3918467z"/>
</g>
<g>
</g>
<g>
</g>
<g>
</g>
<g>
</g>
<g>
</g>
<g>
</g>
<g>
</g>
<g>
</g>
<g>
</g>
<g>
</g>
<g>
</g>
<g>
</g>
<g>
</g>
<g>
</g>
<g>
</g>
</svg>
