<?xml version="1.0" encoding="iso-8859-1"?>
<!-- Generator: Adobe Illustrator 21.0.0, SVG Export Plug-In . SVG Version: 6.00 Build 0)  -->
<svg version="1.1" id="Layer_1" xmlns="http://www.w3.org/2000/svg" xmlns:xlink="http://www.w3.org/1999/xlink" x="0px" y="0px"
	 viewBox="0 0 30 30" enable-background="new 0 0 30 30" xml:space="preserve">
<path fill="#303C42" d="M27.1226807,23.8081055l0.0169678-0.0209961C29.0107422,21.2060547,30,18.1669922,30,15
	c0-8.2714844-6.7290039-15-15-15S0,6.7285156,0,15s6.7290039,15,15,15c3.0812988,0,6.0371094-0.9434814,8.5721436-2.7165527
	l2.5748291,2.5700684C26.2407227,29.9472656,26.3676758,30,26.5,30h3c0.2763672,0,0.5-0.2236328,0.5-0.5V27
	c0-0.1289063-0.050293-0.2539063-0.1396484-0.3466797L27.1226807,23.8081055z M15,29C7.2802734,29,1,22.7197266,1,15
	S7.2802734,1,15,1s14,6.2802734,14,14c0,2.9042969-0.8964844,5.6911621-2.5852051,8.0723877l-2.1216431-2.2050781
	C25.4095459,19.1029053,26,17.0739746,26,15c0-6.0654297-4.9345703-11-11-11S4,8.9345703,4,15s4.9345703,11,11,11
	c2.0029907,0,3.958252-0.5618896,5.6791382-1.604187l2.1712646,2.1672363C20.517395,28.1531982,17.8150024,29,15,29z
	 M12.7480469,16.4794922l7.1933594,7.1799927C18.4296875,24.5252075,16.7368774,25,15,25C9.4858398,25,5,20.5136719,5,15
	S9.4858398,5,15,5s10,4.4863281,10,10c0,1.8013916-0.5036011,3.5592651-1.4331055,5.1124878l-7.0615234-7.3390503
	c-0.9970703-0.9980469-2.7353516-0.9980469-3.7324219,0C11.7612305,13.7851563,11.7470703,15.4453125,12.7480469,16.4794922z M29,29
	h-2.2929688l-13.246582-13.2216797c-0.6176758-0.6386719-0.6088867-1.6699219,0.0195313-2.2978516
	c0.6191406-0.6191406,1.7060547-0.6123047,2.3115234-0.0068359L29,27.2011719V29z"/>
<g>
</g>
<g>
</g>
<g>
</g>
<g>
</g>
<g>
</g>
<g>
</g>
<g>
</g>
<g>
</g>
<g>
</g>
<g>
</g>
<g>
</g>
<g>
</g>
<g>
</g>
<g>
</g>
<g>
</g>
</svg>
