<?xml version="1.0" encoding="iso-8859-1"?>
<!-- Generator: Adobe Illustrator 21.0.0, SVG Export Plug-In . SVG Version: 6.00 Build 0)  -->
<svg version="1.1" id="Layer_1" xmlns="http://www.w3.org/2000/svg" xmlns:xlink="http://www.w3.org/1999/xlink" x="0px" y="0px"
	 viewBox="0 0 24 24" enable-background="new 0 0 24 24" xml:space="preserve">
<g>
	<path fill="#303C42" d="M6.7128906,17.9580078c0.5292969,0.1601563,1.0859375-0.1416016,1.2451172-0.6708984L8.644104,15h2.711792
		l0.6860962,2.2871094c0.1303711,0.4335938,0.5273438,0.7133789,0.9575195,0.7133789
		c0.0952148,0,0.1918945-0.0141602,0.2875977-0.0424805c0.5292969-0.1586914,0.8295898-0.7163086,0.6708984-1.2451172l-3-10
		C10.8310547,6.2895508,10.4414063,6,10,6S9.1689453,6.2895508,9.0419922,6.7128906l-3,10
		C5.8833008,17.2416992,6.1835938,17.7993164,6.7128906,17.9580078z M10,10.4799805L10.7559814,13H9.2440186L10,10.4799805z"/>
	<circle fill="#303C42" cx="16" cy="8" r="1"/>
	<path fill="#303C42" d="M22,1H2C1.4477539,1,1,1.4477539,1,2v20c0,0.5522461,0.4477539,1,1,1h20c0.5522461,0,1-0.4477539,1-1V2
		C23,1.4477539,22.5522461,1,22,1z M21,21H3V3h18V21z"/>
	<path fill="#303C42" d="M15.5,18h1c0.2763672,0,0.5-0.2236328,0.5-0.5v-7c0-0.2763672-0.2236328-0.5-0.5-0.5h-1
		c-0.2763672,0-0.5,0.2236328-0.5,0.5v7C15,17.7763672,15.2236328,18,15.5,18z"/>
</g>
<g>
</g>
<g>
</g>
<g>
</g>
<g>
</g>
<g>
</g>
<g>
</g>
<g>
</g>
<g>
</g>
<g>
</g>
<g>
</g>
<g>
</g>
<g>
</g>
<g>
</g>
<g>
</g>
<g>
</g>
</svg>
