<?xml version="1.0" encoding="iso-8859-1"?>
<!-- Generator: Adobe Illustrator 21.0.0, SVG Export Plug-In . SVG Version: 6.00 Build 0)  -->
<svg version="1.1" id="Layer_1" xmlns="http://www.w3.org/2000/svg" xmlns:xlink="http://www.w3.org/1999/xlink" x="0px" y="0px"
	 viewBox="0 0 24 24" enable-background="new 0 0 24 24" xml:space="preserve">
<g>
	<path fill="#303C42" d="M23.9863281,11.6499023l-0.0087891-0.1704102C23.9658203,11.2114258,23.7460938,11,23.4775391,11H22
		h-3.5410156h-3.0097656H12c-0.5527344,0-1,0.4477539-1,1c0,0.2758789-0.2246094,0.5-0.5,0.5S10,12.2758789,10,12
		c0-1.1030273,0.8974609-2,2-2h2.4443359c0.203125,0,0.3867188-0.1230469,0.4628906-0.3110352
		c0.0771484-0.1884766,0.0322266-0.4042969-0.1132813-0.5463867C14.0410156,8.4057617,13.0488281,8,12,8
		c-2.2060547,0-4,1.7944336-4,4s1.7939453,4,4,4c1.8587036,0,3.4108276-1.2797241,3.8579712-3h2.0516968
		C17.4313354,15.8331299,14.9672241,18,12,18c-3.3085938,0-6-2.6914063-6-6s2.6914063-6,6-6
		c1.2753906,0,2.4980469,0.4008789,3.5351563,1.159668c0.1982422,0.1469727,0.4746094,0.1254883,0.6484375-0.0498047
		l3.5605469-3.5615234c0.0996094-0.0991211,0.1523438-0.2353516,0.1464844-0.375
		c-0.0068359-0.1401367-0.0712891-0.2709961-0.1787109-0.3613281C17.5537109,0.9985352,14.8154297,0,12,0
		C5.3828125,0,0,5.3833008,0,12s5.3828125,12,12,12s12-5.3833008,12-12C24,11.8823242,23.9931641,11.7661133,23.9863281,11.6499023z
		 M12,2c0.5517578,0,1,0.4487305,1,1s-0.4482422,1-1,1s-1-0.4487305-1-1S11.4482422,2,12,2z M4.9287109,4.9287109
		c0.390625-0.3896484,1.0234375-0.3896484,1.4140625,0v0.0004883C6.53125,5.1176758,6.6357422,5.3686523,6.6357422,5.6352539
		c0,0.2675781-0.1035156,0.519043-0.2929688,0.7080078C6.1474609,6.5380859,5.8916016,6.6357422,5.6357422,6.6357422
		S5.1240234,6.5380859,4.9287109,6.3432617C4.7392578,6.1542969,4.6357422,5.902832,4.6357422,5.6352539
		C4.6357422,5.3681641,4.7402344,5.1171875,4.9287109,4.9287109z M3,13c-0.5517578,0-1-0.4487305-1-1s0.4482422-1,1-1
		s1,0.4487305,1,1S3.5517578,13,3,13z M6.3427734,19.0712891c-0.1953125,0.1948242-0.4511719,0.2919922-0.7070313,0.2919922
		s-0.5117188-0.0976563-0.7070313-0.2924805c-0.1884766-0.1879883-0.2929688-0.4389648-0.2929688-0.7060547
		c0-0.2675781,0.1035156-0.519043,0.2929688-0.7080078c0.390625-0.3896484,1.0234375-0.3896484,1.4140625,0
		c0.1894531,0.1889648,0.2929688,0.4404297,0.2929688,0.7080078C6.6357422,18.6318359,6.53125,18.8828125,6.3427734,19.0712891z
		 M12,22c-0.5517578,0-1-0.4487305-1-1s0.4482422-1,1-1s1,0.4487305,1,1S12.5517578,22,12,22z M19.0712891,19.0712891
		c-0.1953125,0.1948242-0.4511719,0.2919922-0.7070313,0.2919922s-0.5117188-0.0976563-0.7070313-0.2924805
		c-0.1884766-0.1879883-0.2929688-0.4389648-0.2929688-0.7060547c0-0.2675781,0.1035156-0.519043,0.2929688-0.7080078
		c0.390625-0.3896484,1.0234375-0.3896484,1.4140625,0c0.1894531,0.1889648,0.2929688,0.4404297,0.2929688,0.7080078
		C19.3642578,18.6318359,19.2597656,18.8828125,19.0712891,19.0712891z"/>
	<path fill="#303C42" d="M16.8408203,8.4658203c0.2460938,0.3364258,0.4667969,0.7387695,0.6738281,1.2290039
		C17.59375,9.8798828,17.7744141,10,17.9755859,10h5.2392578c0.1513672,0,0.2949219-0.0688477,0.3896484-0.1870117
		c0.0957031-0.1186523,0.1318359-0.2734375,0.0986328-0.421875c-0.4189453-1.8789063-1.2890625-3.644043-2.5156345-5.1040039
		c-0.0898342-0.1074219-0.2216702-0.171875-0.3613186-0.1777344c-0.1396484-0.0097656-0.2763672,0.046875-0.375,0.1459961
		L16.890625,7.8168945C16.7158203,7.9912109,16.6953125,8.2666016,16.8408203,8.4658203z"/>
</g>
<g>
</g>
<g>
</g>
<g>
</g>
<g>
</g>
<g>
</g>
<g>
</g>
<g>
</g>
<g>
</g>
<g>
</g>
<g>
</g>
<g>
</g>
<g>
</g>
<g>
</g>
<g>
</g>
<g>
</g>
</svg>
