<?xml version="1.0" encoding="iso-8859-1"?>
<!-- Generator: Adobe Illustrator 21.0.0, SVG Export Plug-In . SVG Version: 6.00 Build 0)  -->
<svg version="1.1" id="Layer_1" xmlns="http://www.w3.org/2000/svg" xmlns:xlink="http://www.w3.org/1999/xlink" x="0px" y="0px"
	 viewBox="0 0 24 24" enable-background="new 0 0 24 24" xml:space="preserve">
<path fill="#303C42" d="M21.6582031,10.0259085l-12-3.9999995C9.4667969,5.9609675,9.2548828,6.0200496,9.1220703,6.1723933
	c-0.1318359,0.152832-0.1601563,0.3706055-0.0693359,0.5512695l2.5,4.9999995
	c0.0527344,0.105957,0.1416016,0.1894531,0.25,0.2358398l2.5693359,1.1010742L8,16.64505V2.50003
	c0-0.2045898-0.1240234-0.3881836-0.3144531-0.4643555l-5-2c-0.1533203-0.0620117-0.3291016-0.0419922-0.4658203,0.050293
	C2.0820313,0.1792292,2,0.3340143,2,0.5000299v19c0,0.1601563,0.0761719,0.3100586,0.2060547,0.4042969l5.5,4
	C7.7929688,23.967804,7.8964844,24.0000305,8,24.0000305c0.0878906,0,0.1757813-0.0229492,0.2548828-0.0698242l13.5-8.000001
	C21.9072266,15.8403616,22,15.6767874,22,15.5000296v-5C22,10.2846975,21.8623047,10.0937796,21.6582031,10.0259085z"/>
<g>
</g>
<g>
</g>
<g>
</g>
<g>
</g>
<g>
</g>
<g>
</g>
<g>
</g>
<g>
</g>
<g>
</g>
<g>
</g>
<g>
</g>
<g>
</g>
<g>
</g>
<g>
</g>
<g>
</g>
</svg>
