<?xml version="1.0" encoding="iso-8859-1"?>
<!-- Generator: Adobe Illustrator 21.0.0, SVG Export Plug-In . SVG Version: 6.00 Build 0)  -->
<svg version="1.1" id="Layer_1" xmlns="http://www.w3.org/2000/svg" xmlns:xlink="http://www.w3.org/1999/xlink" x="0px" y="0px"
	 viewBox="0 0 24 24" enable-background="new 0 0 24 24" xml:space="preserve">
<path fill="#303C42" d="M22.5,4h-1.8818359l-1.8945313-0.9472656c-0.1005859-0.050293-0.215332-0.0654297-0.3242188-0.0424805
	l-2.852478,0.5872803c-0.6015015-1.2811279-1.7608643-2.1953125-3.119812-2.4872437C11.6380005,0.4279175,10.6227417,0,9.5,0
	C7.0185547,0,5,2.0185547,5,4.5v1.2689819l-3.6005859,0.741272C1.1669922,6.5581055,1,6.7626953,1,7v13.5
	c0,0.2426758,0.1743164,0.4501953,0.4130859,0.4921875l17,3C18.4418945,23.9975586,18.4711914,24,18.5,24
	c0.0410156,0,0.081543-0.0048828,0.1210938-0.0151367l4-1C22.84375,22.9291992,23,22.7294922,23,22.5v-18
	C23,4.2236328,22.7763672,4,22.5,4z M11.9835205,2.0383301c0.5444336,0.5491943,0.8922729,1.2815552,0.9790039,2.0913086
	L8.0360107,5.1439209C8.2174072,3.3832397,9.6922607,2,11.5,2C11.6636353,2,11.8245239,2.015686,11.9835205,2.0383301z M13,13H9.5
	v-2.7412109l3.5-0.65625V13z M6,14h2.5v2.5537109l-2.5-0.46875V14z M6,13v-2.0849609l2.5-0.46875V13H6z M9.5,14H13v3.3974609
	l-3.5-0.65625V14z M14.5421143,3.8043823l-0.5999146,0.1235352c-0.0522461-0.4058838-0.1392212-0.8007202-0.2925415-1.1655884
	C14.0074463,3.0462036,14.3149414,3.3952637,14.5421143,3.8043823z M6,4.5C6,2.5703125,7.5703125,1,9.5,1
	c0.3248291,0,0.6333008,0.0588379,0.9319458,0.1420288C8.5135498,1.6131592,7.0817871,3.3084717,7.0147705,5.354187L6,5.5630493V4.5
	z"/>
<g>
</g>
<g>
</g>
<g>
</g>
<g>
</g>
<g>
</g>
<g>
</g>
<g>
</g>
<g>
</g>
<g>
</g>
<g>
</g>
<g>
</g>
<g>
</g>
<g>
</g>
<g>
</g>
<g>
</g>
</svg>
