<?xml version="1.0" encoding="iso-8859-1"?>
<!-- Generator: Adobe Illustrator 21.0.0, SVG Export Plug-In . SVG Version: 6.00 Build 0)  -->
<svg version="1.1" id="Layer_1" xmlns="http://www.w3.org/2000/svg" xmlns:xlink="http://www.w3.org/1999/xlink" x="0px" y="0px"
	 viewBox="0 0 24 24" enable-background="new 0 0 24 24" xml:space="preserve">
<g>
	<path fill="#303C42" d="M2.5000453,9.5c-1.378418,0-2.5,1.121582-2.5,2.5s1.121582,2.5,2.5,2.5s2.5-1.121582,2.5-2.5
		S3.8784633,9.5,2.5000453,9.5z M2.5000453,13.5c-0.8271484,0-1.5-0.6728516-1.5-1.5s0.6728516-1.5,1.5-1.5s1.5,0.6728516,1.5,1.5
		S3.3271937,13.5,2.5000453,13.5z"/>
	<path fill="#303C42" d="M19.5000458,5c1.378418,0,2.5-1.121582,2.5-2.5s-1.121582-2.5-2.5-2.5s-2.5,1.121582-2.5,2.5
		S18.1216278,5,19.5000458,5z M19.5000458,1c0.8271484,0,1.5,0.6728516,1.5,1.5s-0.6728516,1.5-1.5,1.5s-1.5-0.6728516-1.5-1.5
		S18.6728973,1,19.5000458,1z"/>
	<path fill="#303C42" d="M19.5000458,19c-1.378418,0-2.5,1.121582-2.5,2.5s1.121582,2.5,2.5,2.5s2.5-1.121582,2.5-2.5
		S20.8784637,19,19.5000458,19z M19.5000458,23c-0.8271484,0-1.5-0.6728516-1.5-1.5s0.6728516-1.5,1.5-1.5s1.5,0.6728516,1.5,1.5
		S20.3271942,23,19.5000458,23z"/>
	<path fill="#303C42" d="M10.7563925,15.800293C9.6401815,14.8466797,9.0000448,13.4614258,9.0000448,12
		s0.6401367-2.8466797,1.7563477-3.800293c0.1831055-0.1567383,0.2290039-0.421875,0.1083984-0.6303711L8.8481894,4.0766602
		c-0.0708008-0.1230469-0.190918-0.2099609-0.3295898-0.2392578C8.3809042,3.809082,8.2349081,3.8393555,8.1206503,3.9228516
		C6.459518,5.1342773,5.2256312,6.8076172,4.5527797,8.7612305C4.4849086,8.9584961,4.546432,9.1772461,4.7075648,9.3100586
		C5.5288539,9.9858398,6.0000453,10.9663086,6.0000453,12s-0.4711914,2.0141602-1.2924805,2.6899414
		c-0.1611328,0.1328125-0.2226563,0.3515625-0.1547852,0.5488281c0.6728516,1.9536133,1.9067383,3.6269531,3.5678706,4.8383789
		c0.0859375,0.0629883,0.1894531,0.0961914,0.2944336,0.0961914c0.034668,0,0.0693359-0.003418,0.1035156-0.0107422
		c0.1386719-0.0292969,0.2587891-0.1162109,0.3295898-0.2392578l2.0166016-3.4926758
		C10.9853964,16.222168,10.9394979,15.9570313,10.7563925,15.800293z M8.2690878,18.9267578
		c-1.1894526-0.9848633-2.0991206-2.2514648-2.6577144-3.703125C6.4980922,14.3725586,7.0000453,13.2163086,7.0000453,12
		S6.4980922,9.6274414,5.6113734,8.7763672c0.5585938-1.4516602,1.4682617-2.7182617,2.6577144-3.703125L9.7978964,7.722168
		C8.6504354,8.8486328,8.0000448,10.3852539,8.0000448,12s0.6503906,3.1513672,1.7978516,4.277832L8.2690878,18.9267578z"/>
	<path fill="#303C42" d="M11.7310019,7.0703125c0.1201172,0.2084961,0.371582,0.300293,0.6000977,0.2211914
		C12.8774862,7.0981445,13.4390097,7,14.0000448,7c2.4418955,0,4.5302744,1.7202148,4.9663095,4.090332
		C19.0098114,11.3276367,19.2168427,11.5,19.4580536,11.5h4.0419922c0.1416016,0,0.2768555-0.0600586,0.371582-0.1655273
		c0.0947266-0.1049805,0.140625-0.2456055,0.1254883-0.3862305c-0.2006836-1.9233398-0.96875-3.7431641-2.2197266-5.2631836
		c-0.1518555-0.184082-0.4130859-0.2363281-0.6245117-0.121582C20.6182098,5.8530273,20.0620575,6,19.5000458,6
		c-1.8935547,0-3.425293-1.487793-3.4873047-3.387207c-0.0078125-0.2397461-0.184083-0.4399414-0.4204111-0.4775391
		C15.0239706,2.0444336,14.5029745,2,14.0000448,2c-1.4018555,0-2.7675781,0.2910156-4.0585938,0.8652344
		C9.8120565,2.9228516,9.7129354,3.0327148,9.6689901,3.1674805S9.6406698,3.449707,9.7114706,3.5722656L11.7310019,7.0703125z
		 M14.0000448,3c0.3344727,0,0.6796875,0.0219727,1.0463867,0.0673828C15.3247519,5.3041992,17.2061005,7,19.5000458,7
		c0.5957031,0,1.1816406-0.1245117,1.7480469-0.3710938C22.1172333,7.7802734,22.6904755,9.1030273,22.9272919,10.5h-3.0678711
		C19.1821747,7.8686523,16.7822723,6,14.0000448,6c-0.5385742,0-1.0761719,0.074707-1.6035156,0.2226563l-1.5327148-2.6547852
		C11.8716269,3.190918,12.9243612,3,14.0000448,3z"/>
	<path fill="#303C42" d="M23.5000458,12.5h-4.0419922c-0.2412109,0-0.4482422,0.1723633-0.4916992,0.409668
		C18.5303192,15.2797852,16.4419403,17,14.0000448,17c-0.5610352,0-1.1225586-0.0981445-1.6689453-0.2915039
		c-0.2270508-0.0810547-0.4794922,0.012207-0.6000977,0.2211914l-2.0195313,3.4980469
		c-0.0708008,0.1225586-0.0864258,0.2700195-0.0424805,0.4047852s0.1430664,0.2446289,0.2724609,0.3022461
		C11.2324667,21.7089844,12.5981894,22,14.0000448,22c0.5029297,0,1.0239258-0.0444336,1.5922852-0.1352539
		c0.2363281-0.0375977,0.4125986-0.237793,0.4204111-0.4775391C16.0747528,19.487793,17.6064911,18,19.5000458,18
		c0.5620117,0,1.1181641,0.1469727,1.652832,0.4365234c0.2114258,0.1157227,0.4726563,0.0625,0.6245117-0.121582
		c1.2509766-1.5200195,2.019043-3.3398438,2.2197266-5.2631836c0.0151367-0.140625-0.0307617-0.28125-0.1254883-0.3862305
		C23.7769012,12.5600586,23.6416473,12.5,23.5000458,12.5z M21.2480927,17.3710938
		C20.6816864,17.1245117,20.0957489,17,19.5000458,17c-2.2939453,0-4.1752939,1.6958008-4.4536142,3.9326172
		c-1.5444336,0.1928711-2.8613281-0.0058594-4.1826172-0.5004883l1.5327148-2.6547852
		C12.9238729,17.925293,13.4614706,18,14.0000448,18c2.7822275,0,5.1821299-1.8686523,5.859376-4.5h3.0678711
		C22.6904755,14.8969727,22.1172333,16.2197266,21.2480927,17.3710938z"/>
</g>
<g>
</g>
<g>
</g>
<g>
</g>
<g>
</g>
<g>
</g>
<g>
</g>
<g>
</g>
<g>
</g>
<g>
</g>
<g>
</g>
<g>
</g>
<g>
</g>
<g>
</g>
<g>
</g>
<g>
</g>
</svg>
