<?xml version="1.0" encoding="iso-8859-1"?>
<!-- Generator: Adobe Illustrator 21.0.0, SVG Export Plug-In . SVG Version: 6.00 Build 0)  -->
<svg version="1.1" id="Layer_1" xmlns="http://www.w3.org/2000/svg" xmlns:xlink="http://www.w3.org/1999/xlink" x="0px" y="0px"
	 viewBox="0 0 30 30" enable-background="new 0 0 30 30" xml:space="preserve">
<path fill="#303C42" d="M27.4536133,14.029417C21.5327148,10.4792585,9.7236328,3.5972557,3.6137695,0.135986
	C2.8837891-0.2796399,2.0004883,0.3166929,2,1.1235248V28.86936C2,29.4930439,2.4912109,30,3.0952148,30
	c0.1777344,0,0.3525391-0.0483513,0.5166016-0.1421242c6.1118164-3.4622459,17.9208984-10.3442478,23.8417969-13.8944073
	C27.7954102,15.7583418,28,15.3969288,28,14.9964428S27.7954102,14.2345438,27.4536133,14.029417z M3.0822144,28.9926758
	C3.0413208,28.9832153,3,28.9385376,3,28.8696289V1.1303711C3,1.065979,3.0374146,1.0216675,3.0894165,1.0150757L16.1088257,15
	L3.0822144,28.9926758z M16.7920532,15.7339478l3.2294312,3.4689331c-4.640686,2.7236328-9.9821777,5.8261108-14.0562744,8.1608276
	L16.7920532,15.7339478z M5.963623,2.6345825c4.0664673,2.3306885,9.4124756,5.4360962,14.0579224,8.1625366l-3.2294922,3.4689331
	L5.963623,2.6345825z M26.9394531,15.109375c-1.6153564,0.9682617-3.7200928,2.2138672-6.034668,3.5744019L17.4753418,15
	l3.4294434-3.6838379c2.31427,1.3604126,4.4191895,2.6061401,6.034668,3.5744629C26.9575195,14.9018555,27,14.934082,27,15
	S26.9575195,15.0981445,26.9394531,15.109375z"/>
<g>
</g>
<g>
</g>
<g>
</g>
<g>
</g>
<g>
</g>
<g>
</g>
<g>
</g>
<g>
</g>
<g>
</g>
<g>
</g>
<g>
</g>
<g>
</g>
<g>
</g>
<g>
</g>
<g>
</g>
</svg>
