<?xml version="1.0" encoding="iso-8859-1"?>
<!-- Generator: Adobe Illustrator 21.0.0, SVG Export Plug-In . SVG Version: 6.00 Build 0)  -->
<svg version="1.1" id="Layer_1" xmlns="http://www.w3.org/2000/svg" xmlns:xlink="http://www.w3.org/1999/xlink" x="0px" y="0px"
	 viewBox="0 0 24 24" enable-background="new 0 0 24 24" xml:space="preserve">
<path fill="#303C42" d="M23.9593544,8.3064556c0.0011597-0.0040894-0.0129414-0.0446806-0.0256996-0.0630531
	c0,0-4.5319347-6.5405359-4.5384045-6.5476775c-0.0840588-0.1087719-0.2086506-0.1851931-0.3570499-0.1956918L11.9668217,1
	L4.9657645,1.5000333C4.8375711,1.5090671,4.727447,1.5687635,4.644732,1.6540352
	C4.6395435,1.6553781,0.0954004,8.2053137,0.0954004,8.2053137C0.0937522,8.2077551,0.061887,8.2559156,0.0480299,8.2851534
	c-0.0830203,0.1748161-0.0566492,0.3818607,0.0654396,0.5312853l11.5017366,14.0009327
	C11.7109232,22.9331017,11.8525467,23,12.0019827,23c0.149437,0,0.2910595-0.0668983,0.3867769-0.1826286L23.8904953,8.8164387
	C24.0078239,8.6728134,24.0310211,8.4767551,23.9593544,8.3064556z M16.8132935,10L12,21.2304688L7.1867065,10H16.8132935z
	 M16.9128418,8H7.0871582L12,2.2680664L16.9128418,8z M5.4172363,8h-2.74646l2.2470703-3.2457886L5.4172363,8z M18.5827637,8
	l0.4993896-3.2457886L21.3292236,8H18.5827637z"/>
<g>
</g>
<g>
</g>
<g>
</g>
<g>
</g>
<g>
</g>
<g>
</g>
<g>
</g>
<g>
</g>
<g>
</g>
<g>
</g>
<g>
</g>
<g>
</g>
<g>
</g>
<g>
</g>
<g>
</g>
</svg>
