<?xml version="1.0" encoding="iso-8859-1"?>
<!-- Generator: Adobe Illustrator 21.0.0, SVG Export Plug-In . SVG Version: 6.00 Build 0)  -->
<svg version="1.1" id="Layer_1" xmlns="http://www.w3.org/2000/svg" xmlns:xlink="http://www.w3.org/1999/xlink" x="0px" y="0px"
	 viewBox="0 0 30 30" enable-background="new 0 0 30 30" xml:space="preserve">
<path fill="#303C42" d="M15,0C6.7285156,0,0,6.7290039,0,15s6.7285156,15,15,15s15-6.7290039,15-15S23.2714844,0,15,0z M1,15
	C1,7.2802734,7.2802734,1,15,1c0.1895752,0,0.3739014,0.0209351,0.5616455,0.0284424
	c-2.725769,1.0648804-5.0372314,2.9035034-6.7075195,5.2180786C8.78125,6.3375244,8.7037354,6.4195557,8.6328125,6.5141602
	l0.0141602,0.0106201C6.9721069,8.9609375,6,11.8944702,6,15c0,3.1054077,0.9721069,6.0388184,2.6467896,8.4749146
	l-0.0139771,0.010437c0.0698853,0.0932617,0.1463623,0.1741333,0.2181396,0.263916
	c1.6705933,2.3165283,3.9832764,4.1567383,6.7106934,5.22229C15.3739014,28.9790649,15.1895752,29,15,29
	C7.2802734,29,1,22.7197266,1,15z M9.6269531,23.1202393C7.9716797,20.8052368,7,17.9902344,7,15
	c0-2.9922485,0.9730225-5.80896,2.6303711-8.1248169C11.109436,5.0245361,13.00354,4,15,4c4.4111328,0,8,4.9345703,8,11
	s-3.5888672,11-8,11C13.0020142,26,11.1066284,24.973999,9.6269531,23.1202393z M17.9966431,28.6690674
	c-1.6157227-0.3536377-3.1171265-0.9858398-4.4605103-1.8389893C14.0162354,26.9341431,14.5037842,27,15,27
	c4.9628906,0,9-5.3833008,9-12S19.9628906,3,15,3c-0.4961548,0-0.9837646,0.0658569-1.4639893,0.1699829
	c1.3433838-0.8531494,2.8448486-1.4854126,4.4606323-1.8390503C24.2799072,2.7077637,29,8.3095093,29,15
	S24.2799072,27.2922363,17.9966431,28.6690674z"/>
<g>
</g>
<g>
</g>
<g>
</g>
<g>
</g>
<g>
</g>
<g>
</g>
<g>
</g>
<g>
</g>
<g>
</g>
<g>
</g>
<g>
</g>
<g>
</g>
<g>
</g>
<g>
</g>
<g>
</g>
</svg>
