<?xml version="1.0" encoding="iso-8859-1"?>
<!-- Generator: Adobe Illustrator 21.0.0, SVG Export Plug-In . SVG Version: 6.00 Build 0)  -->
<svg version="1.1" id="Layer_1" xmlns="http://www.w3.org/2000/svg" xmlns:xlink="http://www.w3.org/1999/xlink" x="0px" y="0px"
	 viewBox="0 0 24 24" enable-background="new 0 0 24 24" xml:space="preserve">
<path fill="#303C42" d="M22.4912109,11.1352577C17.5249023,8.3235836,7.6040039,2.8648224,2.4633789,0.1146851
	C1.7939453-0.2423297,1.0004883,0.285134,1,0.9947681V22.999773C1,23.5511665,1.4487305,24,2,24
	c0.1582031,0,0.3139648-0.0405369,0.4628906-0.1201439c5.1411133-2.7501373,15.0620117-8.2088985,20.0283203-11.0200853
	C22.8051758,12.6819963,23,12.3518429,23,11.9972706C23,11.6426973,22.8051758,11.3125439,22.4912109,11.1352577z M2,22.9569168
	L1.9912109,1.0287113l10.8118896,10.9685593L2,22.9569168z M13.505188,12.7095299l2.5585938,2.5956831
	c-3.6735229,2.036046-7.8469238,4.3272161-11.1508789,6.1211424L13.505188,12.7095299z M4.9211426,2.5766098
	c3.3050537,1.7922165,7.4735718,4.0796633,11.1425171,6.1128407l-2.5584717,2.595561L4.9211426,2.5766098z M16.9714966,14.8015575
	l-2.7642212-2.804287l2.7641602-2.8041658c1.9212036,1.0667095,3.6681519,2.043128,5.0124512,2.8041658
	C20.6395264,12.7583685,18.8925781,13.734848,16.9714966,14.8015575z"/>
<g>
</g>
<g>
</g>
<g>
</g>
<g>
</g>
<g>
</g>
<g>
</g>
<g>
</g>
<g>
</g>
<g>
</g>
<g>
</g>
<g>
</g>
<g>
</g>
<g>
</g>
<g>
</g>
<g>
</g>
</svg>
