<?xml version="1.0" encoding="iso-8859-1"?>
<!-- Generator: Adobe Illustrator 21.0.0, SVG Export Plug-In . SVG Version: 6.00 Build 0)  -->
<svg version="1.1" id="Layer_1" xmlns="http://www.w3.org/2000/svg" xmlns:xlink="http://www.w3.org/1999/xlink" x="0px" y="0px"
	 viewBox="0 0 30 30" enable-background="new 0 0 30 30" xml:space="preserve">
<g>
	<path fill="#303C42" d="M22.5,24H7c-0.2763672,0-0.5,0.2236328-0.5,0.5v3C6.5,27.7763672,6.7236328,28,7,28h15.5
		c0.2763672,0,0.5-0.2236328,0.5-0.5v-3C23,24.2236328,22.7763672,24,22.5,24z M22,27H7.5v-2H22V27z"/>
	<path fill="#303C42" d="M7.5,22.5V20c0-0.2763672-0.2236328-0.5-0.5-0.5H4.5C4.2236328,19.5,4,19.7236328,4,20v2.5
		C4,22.7763672,4.2236328,23,4.5,23H7C7.2763672,23,7.5,22.7763672,7.5,22.5z M6.5,22H5v-1.5h1.5V22z"/>
	<path fill="#303C42" d="M9,23h2.5c0.2763672,0,0.5-0.2236328,0.5-0.5V20c0-0.2763672-0.2236328-0.5-0.5-0.5H9
		c-0.2763672,0-0.5,0.2236328-0.5,0.5v2.5C8.5,22.7763672,8.7236328,23,9,23z M9.5,20.5H11V22H9.5V20.5z"/>
	<path fill="#303C42" d="M13.5,23H16c0.2763672,0,0.5-0.2236328,0.5-0.5V20c0-0.2763672-0.2236328-0.5-0.5-0.5h-2.5
		c-0.2763672,0-0.5,0.2236328-0.5,0.5v2.5C13,22.7763672,13.2236328,23,13.5,23z M14,20.5h1.5V22H14V20.5z"/>
	<path fill="#303C42" d="M18,23h2.5c0.2763672,0,0.5-0.2236328,0.5-0.5V20c0-0.2763672-0.2236328-0.5-0.5-0.5H18
		c-0.2763672,0-0.5,0.2236328-0.5,0.5v2.5C17.5,22.7763672,17.7236328,23,18,23z M18.5,20.5H20V22h-1.5V20.5z"/>
	<path fill="#303C42" d="M25,19.5h-2.5c-0.2763672,0-0.5,0.2236328-0.5,0.5v2.5c0,0.2763672,0.2236328,0.5,0.5,0.5H25
		c0.2763672,0,0.5-0.2236328,0.5-0.5V20C25.5,19.7236328,25.2763672,19.5,25,19.5z M24.5,22H23v-1.5h1.5V22z"/>
	<path fill="#303C42" d="M15,12c2.2055664,0,4-1.7939453,4-4c0-0.2763672-0.2236328-0.5-0.5-0.5h-2.7998047
		c-0.2763672,0-0.5,0.2236328-0.5,0.5s0.2236328,0.5,0.5,0.5h2.2583008C17.7197266,9.9169922,16.4838867,11,15,11
		c-1.6542969,0-3-1.3457031-3-3s1.3457031-3,3-3c0.65625,0,1.2797852,0.2080078,1.8017578,0.6005859
		c0.2211914,0.1679688,0.5341797,0.1220703,0.7001953-0.0986328s0.1220703-0.5341797-0.0986328-0.7001953
		C16.7060547,4.2773438,15.875,4,15,4c-2.2055664,0-4,1.7939453-4,4S12.7944336,12,15,12z"/>
	<path fill="#303C42" d="M26,11h-4.0262451C21.9785767,10.9156494,22,10.8339233,22,10.7490234V2c0-1.1030273-0.8969727-2-2-2H10
		C8.8969727,0,8,0.8969727,8,2v8.7490234C8,10.8339233,8.0214233,10.9156494,8.0262451,11H4c-1.1030273,0-2,0.8974609-2,2v15
		c0,1.1025391,0.8969727,2,2,2h22c1.1030273,0,2-0.8974609,2-2V13C28,11.8974609,27.1030273,11,26,11z M9,2
		c0-0.5517578,0.4487305-1,1-1h10c0.5512695,0,1,0.4482422,1,1v8.7490234c0,0.9736328-0.4106445,1.9111328-1.1259766,2.5712891
		h-0.0004883L15,17.8193359l-4.8740234-4.4990234C9.4106445,12.6601563,9,11.7226563,9,10.7490234V2z M20,15v1.5h-1.5v-0.5509644
		L19.5278931,15H20z M9.5,15h0.9717407L11,15.4877319V16.5H9.5V15z M27,28c0,0.5517578-0.4487305,1-1,1H4
		c-0.5512695,0-1-0.4482422-1-1V13c0-0.5517578,0.4487305-1,1-1h4.201355c0.22052,0.7547607,0.62146,1.4499512,1.1983032,2H9
		c-0.2763672,0-0.5,0.2236328-0.5,0.5V17c0,0.2763672,0.2236328,0.5,0.5,0.5h2.5c0.2763672,0,0.5-0.2236328,0.5-0.5v-0.5891113
		l2.6606445,2.4562988C14.7568359,18.9560547,14.878418,19,15,19s0.2431641-0.0439453,0.3393555-0.1328125L17.5,16.8723145V17
		c0,0.2763672,0.2236328,0.5,0.5,0.5h2.5c0.2763672,0,0.5-0.2236328,0.5-0.5v-2.5
		c0-0.2462769-0.1809082-0.4412842-0.4151611-0.4829102C21.1706543,13.4644775,21.5758667,12.7620239,21.798584,12H26
		c0.5512695,0,1,0.4482422,1,1V28z"/>
	<path fill="#303C42" d="M4.5,17.5H7c0.2763672,0,0.5-0.2236328,0.5-0.5v-2.5C7.5,14.2236328,7.2763672,14,7,14H4.5
		C4.2236328,14,4,14.2236328,4,14.5V17C4,17.2763672,4.2236328,17.5,4.5,17.5z M5,15h1.5v1.5H5V15z"/>
	<path fill="#303C42" d="M25,14h-2.5c-0.2763672,0-0.5,0.2236328-0.5,0.5V17c0,0.2763672,0.2236328,0.5,0.5,0.5H25
		c0.2763672,0,0.5-0.2236328,0.5-0.5v-2.5C25.5,14.2236328,25.2763672,14,25,14z M24.5,16.5H23V15h1.5V16.5z"/>
</g>
<g>
</g>
<g>
</g>
<g>
</g>
<g>
</g>
<g>
</g>
<g>
</g>
<g>
</g>
<g>
</g>
<g>
</g>
<g>
</g>
<g>
</g>
<g>
</g>
<g>
</g>
<g>
</g>
<g>
</g>
</svg>
