<?xml version="1.0" encoding="iso-8859-1"?>
<!-- Generator: Adobe Illustrator 21.0.0, SVG Export Plug-In . SVG Version: 6.00 Build 0)  -->
<svg version="1.1" id="Layer_1" xmlns="http://www.w3.org/2000/svg" xmlns:xlink="http://www.w3.org/1999/xlink" x="0px" y="0px"
	 viewBox="0 0 24 24" enable-background="new 0 0 24 24" xml:space="preserve">
<path fill="#303C42" d="M20.9262695,19.0742188c-0.2070313-0.1357422-0.4213867-0.2763672-0.5727539-0.4277344
	c-0.0883789-0.0883789-0.0478516-0.4970703-0.0263672-0.7167969c0.0415039-0.421875,0.0844727-0.8574219-0.1992188-1.1704102
	c-0.0360107-0.0397949-0.0986938-0.0784912-0.1565552-0.1172485C19.9853516,16.4384155,20,16.2368164,20,16
	c0-3.246582-1.4956055-5.1196289-2.6972656-6.625C16.5751953,8.4633789,16,7.7431641,16,7l0.0009766-0.2329102
	c0.0078125-1.3803711,0.0239258-4.253418-1.5019531-5.7880859C13.8530273,0.3295898,13.012207,0,12,0
	C9.8994141,0,8.5,1.0205078,8.5,6c0,1.3706055-0.5766602,2.4931641-1.1870117,3.6816406
	c-0.2675781,0.5209961-0.5444336,1.0600586-0.7763672,1.6298828c-0.4187622,1.0296631-1.3328247,3.399231-1.5014648,4.7835693
	c-0.5404663,0.227417-0.6967773,0.8345337-0.784668,1.1973877c-0.0302734,0.1245117-0.0761719,0.3120117-0.0805664,0.3339844
	c-0.0742188,0.0458984-0.3535156,0.1010742-0.5380859,0.1376953C3.0214844,17.8852539,2,18.0874023,2,19
	c0,0.265625,0.0395508,0.4912109,0.0830078,0.7260742C2.1601563,20.1420898,2.2329102,20.534668,2.0161133,21.375
	C2.0053711,21.4155273,2,21.4580078,2,21.5c0,1.2021484,1.8671875,1.3579102,2.9829102,1.4506836
	c0.1855469,0.015625,0.3398438,0.0273438,0.4389648,0.0429688c0.1538086,0.0244141,0.4760742,0.1728516,0.7875977,0.3164063
	C6.8759766,23.6176758,7.7055664,24,8.5,24c0.3646851,0,0.6731567-0.1640015,0.906189-0.4336548l0.0108032,0.0093384
	C9.6391602,23.328125,11.1118164,23,12,23h3.0606689c0.0551147,0.192749,0.1345215,0.3848877,0.2879639,0.5532227
	C15.6186523,23.8496094,16.0058594,24,16.5,24c1.2978516,0,1.9272461-0.6689453,2.5356445-1.3154297
	c0.1025391-0.109375,0.2075195-0.2207031,0.3178711-0.3310547c0.253418-0.253418,0.7490234-0.434082,1.1865234-0.59375
	C21.2578125,21.4975586,22,21.2265625,22,20.5C22,19.7788086,21.4047852,19.3881836,20.9262695,19.0742188z M12,1
	c0.746582,0,1.3320313,0.2236328,1.7900391,0.684082c1.2329102,1.2397461,1.2172852,3.9291992,1.2109375,5.0776367L15,7
	c0,1.0932617,0.7050781,1.9765625,1.5214844,2.9990234C17.6254883,11.3823242,19,13.1040039,19,16
	c0,1.2070313-0.2006836,1.659668-0.3691406,1.8266602c-0.1738281,0.1723633-0.4716797,0.1787109-0.9458008,0.1743164L17.5,18
	c-0.1567383,0-0.2290039-0.0546875-0.2744141-0.1025391C17.0170898,17.6791992,16.9916992,17.1826172,17,17
	c0-3.3262939-0.4175415-6.0648804-2.5431519-10.203125c-0.0863037-0.4475708-0.4247437-0.7977295-0.8648682-1.0640259
	C13.8434448,5.4723511,14,5.0412598,14,4.5209961c0-0.8574219-0.4204102-1.4794922-1-1.4794922s-1,0.6220703-1,1.4794922
	c0,0.2186279,0.0280151,0.4213257,0.0784302,0.6029663c-0.1899414-0.0497437-0.362793-0.0906982-0.4802856-0.1141968
	C11.565918,5.003418,11.5327148,5,11.5,5c-0.1705933,0-0.3658447,0.032959-0.5681152,0.0796509
	C10.9749146,4.9092407,11,4.7224121,11,4.5209961c0-0.8574219-0.4204102-1.4794922-1-1.4794922
	c-0.0922852,0-0.1785889,0.0209351-0.2617188,0.0509033C10.182251,1.0014648,11.1671143,1,12,1z M11.4536133,6.0009766
	C12.3564453,6.190918,13.2333984,6.5839844,13.449707,6.875c-0.5048828,0.3613281-2.1108398,1.0878906-2.4375,1.1254883
	C10.6669922,7.9614258,9.59375,7.2631836,9.4956055,7.0356445C9.590332,6.7490234,10.6967773,6.0297852,11.4536133,6.0009766z
	 M7.4633789,11.6884766c0.2148438-0.5292969,0.4814453-1.0483398,0.7392578-1.5498047
	C8.5454712,9.4708862,8.8910522,8.7890015,9.140686,8.0525513C9.7478638,8.588623,10.62146,9,11,9
	c0.2092285,0,1.8739014-0.5585938,2.8296509-1.1994629c1.9204712,3.9281616,2.1564941,6.5164185,2.168457,8.9494019
	c-0.4832153,0.5229492-0.7327271,1.7857056-0.8618774,2.9510498c-1.4706421,1.4830322-4.4118652,1.3833618-5.7052612,1.1768188
	c-0.2506714-0.4736938-0.6253662-0.9259644-1.1453247-1.2879639c-0.4926758-0.3432617-0.875-1.1435547-1.2124023-1.8496094
	c-0.3257446-0.6814575-0.6207275-1.2914429-1.0437012-1.5733032C6.1688232,15.1281128,6.8590088,13.1733398,7.4633789,11.6884766z
	 M8.5,23c-0.5751953,0-1.2939453-0.331543-1.8720703-0.5976563c-0.4243164-0.1958008-0.7592773-0.3505859-1.0498047-0.3959961
	c-0.1157227-0.0185547-0.2954102-0.0341797-0.512207-0.0522461c-1.4892578-0.1240234-1.9453125-0.3046875-2.0537109-0.4418945
	c0.2368164-0.9829102,0.1357422-1.527832,0.0541992-1.9682617C3.0336914,19.3676758,3,19.1992188,2.9946289,19.0092773
	c0.0830078-0.1157227,0.5883789-0.2158203,0.831543-0.2641602c0.425293-0.0839844,0.7924805-0.1567383,1.0273438-0.3916016
	c0.222168-0.2216797,0.2963867-0.5283203,0.3686523-0.824707C5.3505859,17,5.4038086,17,5.4697266,16.9951172
	c0.1767578,0.0791016,0.4921875,0.7392578,0.7011719,1.1762695c0.390625,0.8178711,0.8334961,1.7446289,1.543457,2.2387695
	c1.0058594,0.7006836,1.2216797,1.7685547,1.0541992,2.3032227C8.7084961,22.9033203,8.6186523,23,8.5,23z M9.8104858,22.3304443
	c-0.0007324-0.1315308-0.0126343-0.2659912-0.0333862-0.4040527c0.3430786,0.0341187,0.7755127,0.0638428,1.2668457,0.0638428
	c1.2194824,0,2.7608643-0.187561,3.9841309-0.928894C15.0042114,21.5250854,14.9976196,21.8692627,14.9953613,22H12
	C11.6459351,22,10.6499023,22.0890503,9.8104858,22.3304443z M20.1967773,20.8203125
	c-0.534668,0.1953125-1.140625,0.4160156-1.550293,0.8261719c-0.1176758,0.1176758-0.2294922,0.2363281-0.3388672,0.3530273
	C17.7607422,22.5800781,17.3657227,23,16.5,23c-0.2006836,0-0.3393555-0.0405273-0.4121094-0.1201172
	c-0.1499023-0.1650391-0.1137695-0.5561523-0.0981445-0.7231445C15.9960938,22.0888672,16,22.034668,16,22.0004883
	c0.0041504-0.6550903,0.1497192-2.4380493,0.3689575-3.5844116c0.0401611,0.0574341,0.0797729,0.1152344,0.1290894,0.1674194
	C16.7558594,18.855957,17.1020508,19,17.5,19l0.1762695,0.0009766c0.0561523,0.0004883,0.112793,0.0009766,0.1704102,0.0009766
	c0.4997559,0,1.0383911-0.0415039,1.465271-0.4483643c0.0254517,0.2883911,0.1088257,0.5742188,0.3345337,0.7999268
	c0.2241211,0.2241211,0.4936523,0.4008789,0.7314453,0.5571289C20.7539063,20.1572266,21,20.3310547,21.0161133,20.4404297
	C20.9360352,20.550293,20.4912109,20.7128906,20.1967773,20.8203125z"/>
<g>
</g>
<g>
</g>
<g>
</g>
<g>
</g>
<g>
</g>
<g>
</g>
<g>
</g>
<g>
</g>
<g>
</g>
<g>
</g>
<g>
</g>
<g>
</g>
<g>
</g>
<g>
</g>
<g>
</g>
</svg>
