<?xml version="1.0" encoding="iso-8859-1"?>
<!-- Generator: Adobe Illustrator 21.0.0, SVG Export Plug-In . SVG Version: 6.00 Build 0)  -->
<svg version="1.1" id="Layer_1" xmlns="http://www.w3.org/2000/svg" xmlns:xlink="http://www.w3.org/1999/xlink" x="0px" y="0px"
	 viewBox="0 0 24 24" enable-background="new 0 0 24 24" xml:space="preserve">
<g>
	<path fill="#303C42" d="M8.5,4h-6C2.2236328,4,2,4.2236328,2,4.5S2.2236328,5,2.5,5h6C8.7763672,5,9,4.7763672,9,4.5
		S8.7763672,4,8.5,4z"/>
	<path fill="#303C42" d="M22,4H11.7070313L9.8535156,2.1464844C9.7597656,2.0527344,9.6328125,2,9.5,2H2
		C0.8969727,2,0,2.8969727,0,4v2.5V19c0,1.1030273,0.8969727,2,2,2h2v0.5C4,21.7763672,4.2236328,22,4.5,22h3
		C7.7763672,22,8,21.7763672,8,21.5V21h8v0.5c0,0.2763672,0.2236328,0.5,0.5,0.5h3c0.2763672,0,0.5-0.2236328,0.5-0.5V21h2
		c1.1030273,0,2-0.8969727,2-2V6C24,4.8969727,23.1030273,4,22,4z M1,4c0-0.5512695,0.4487305-1,1-1h7.2929688l1.5,1.5l-1.5,1.5H1V4
		z M19,21h-2v-5.5c0-0.2763672-0.2236328-0.5-0.5-0.5h-9C7.2236328,15,7,15.2236328,7,15.5V21H5v-7c0-0.5512695,0.4487305-1,1-1h12
		c0.5512695,0,1,0.4487305,1,1V21z"/>
</g>
<g>
</g>
<g>
</g>
<g>
</g>
<g>
</g>
<g>
</g>
<g>
</g>
<g>
</g>
<g>
</g>
<g>
</g>
<g>
</g>
<g>
</g>
<g>
</g>
<g>
</g>
<g>
</g>
<g>
</g>
</svg>
