<?xml version="1.0" encoding="iso-8859-1"?>
<!-- Generator: Adobe Illustrator 21.0.0, SVG Export Plug-In . SVG Version: 6.00 Build 0)  -->
<svg version="1.1" id="Layer_1" xmlns="http://www.w3.org/2000/svg" xmlns:xlink="http://www.w3.org/1999/xlink" x="0px" y="0px"
	 viewBox="0 0 30 30" enable-background="new 0 0 30 30" xml:space="preserve">
<g>
	<g id="XMLID_1733_">
		<path fill="#303C42" d="M15.4999123,7.0000839c-0.1118164,0-0.2216797-0.0375977-0.3110352-0.1083984
			c-0.1181641-0.0942383-0.1875-0.2363281-0.1889648-0.387207c-0.0283203-3.1606445,2.1381836-5.7695313,5.3916016-6.4926758
			c0.1464844-0.0327148,0.3017578,0.0029297,0.4194336,0.0966797c0.1181641,0.0942383,0.1875,0.2363281,0.1889648,0.387207
			c0.0283203,3.1606445-2.1381836,5.7695313-5.3916016,6.4926758C15.5726662,6.9961777,15.5360451,7.0000839,15.4999123,7.0000839z
			 M19.9696388,1.161705c-2.2368164,0.7226563-3.7119141,2.4750977-3.9394531,4.6767578
			C18.2670021,5.1158066,19.7420998,3.3633652,19.9696388,1.161705z"/>
	</g>
	<g>
		<path fill="#303C42" d="M21.0521584,30.0000839c-1.59375,0-2.5458984-0.309082-3.3862305-0.581543
			c-0.6914063-0.2246094-1.2890625-0.418457-2.1660156-0.418457c-0.871582,0-1.4238281,0.1923828-2.0629883,0.4150391
			c-0.7871094,0.2739258-1.6796875,0.5849609-3.2788086,0.5849609c-2.6289058,0-7.1582031-6.7885742-7.1582031-13.7382813
			c0-8.515625,6.2836914-8.7617188,7-8.7617188c1.1791992,0,2.0322266,0.3945313,2.8574219,0.7763672
			c0.8041992,0.3720703,1.5639648,0.7236328,2.6425781,0.7236328s1.8383789-0.3515625,2.6425781-0.7236328
			c0.8251953-0.3818359,1.6782227-0.7763672,2.8574219-0.7763672c1.4765625,0,3.6025391,0.6113281,5.1416016,2.3276367
			c0.1035156,0.1157227,0.1479492,0.2724609,0.1196289,0.4248047c-0.0283203,0.152832-0.1254883,0.2832031-0.2636719,0.3540039
			c-1.8491211,0.9477539-2.9975586,2.8227539-2.9975586,4.8935547c0,1.699707,0.7719727,3.2783203,2.1181641,4.3305664
			c0.012207,0.0097656,0.0244141,0.0200195,0.0356445,0.0307617c0.4682617,0.4433594,0.9804688,0.7714844,1.5224609,0.9760742
			c0.2475586,0.0932617,0.3798828,0.3632813,0.3012695,0.6162109
			C25.6708107,25.6548691,23.0975685,30.0000839,21.0521584,30.0000839z M15.4999123,28.0000839
			c1.0351563,0,1.734375,0.2270508,2.4746094,0.4672852c0.8076172,0.2617188,1.6420898,0.5327148,3.0776367,0.5327148
			c1.0258789,0,3.3178711-2.8095703,4.8334961-7.4160156c-0.4970703-0.2431641-0.9672852-0.5712891-1.4023438-0.9799805
			c-1.5786133-1.2436523-2.4833984-3.1025391-2.4833984-5.1040039c0-2.2207031,1.1171875-4.2514648,2.956543-5.4448242
			c-1.2729492-1.1381836-2.8818359-1.5551758-3.956543-1.5551758c-0.9589844,0-1.6772461,0.3320313-2.4375038,0.684082
			c-0.8266563,0.3823242-1.7636681,0.815918-3.0624962,0.815918s-2.2358398-0.4335938-3.0625029-0.815918
			c-0.760251-0.3520508-1.4785128-0.684082-2.4374971-0.684082c-0.6142578,0-6,0.2177734-6,7.7617188
			c0,6.6816406,4.4335938,12.7382813,6.1582031,12.7382813c1.4301758,0,2.2026367-0.269043,2.9501953-0.5292969
			C13.7723732,28.2393417,14.4593849,28.0000839,15.4999123,28.0000839z"/>
	</g>
</g>
<g>
</g>
<g>
</g>
<g>
</g>
<g>
</g>
<g>
</g>
<g>
</g>
<g>
</g>
<g>
</g>
<g>
</g>
<g>
</g>
<g>
</g>
<g>
</g>
<g>
</g>
<g>
</g>
<g>
</g>
</svg>
