<?xml version="1.0" encoding="iso-8859-1"?>
<!-- Generator: Adobe Illustrator 21.0.0, SVG Export Plug-In . SVG Version: 6.00 Build 0)  -->
<svg version="1.1" id="Layer_1" xmlns="http://www.w3.org/2000/svg" xmlns:xlink="http://www.w3.org/1999/xlink" x="0px" y="0px"
	 viewBox="0 0 30 30" enable-background="new 0 0 30 30" xml:space="preserve">
<g>
	<path fill="#303C42" d="M13.5078125,20.9676647c0-0.1758556-0.0917969-0.3390121-0.2421875-0.4298725L2.7578125,14.2235413
		c-0.1542969-0.0928135-0.3476563-0.0947676-0.5039063-0.0068388C2.0966797,14.3056078,2,14.4716959,2,14.6524382V25.999136
		c0,0.488493,0.1826172,0.9613533,0.515625,1.3326073C2.6132813,27.4401875,2.75,27.4978294,2.8876953,27.4978294
		c0.0878906,0,0.1757813-0.023447,0.2558594-0.070343l10.1201172-6.0309238
		C13.4150391,21.3066788,13.5078125,21.1435223,13.5078125,20.9676647z"/>
	<path fill="#303C42" d="M27.7470703,14.2235413c-0.1582031-0.0898819-0.3476563-0.0869513-0.5029297,0.0048857
		l-11.7724609,7.0167017c-0.0410156,0.0244255-0.078125,0.0547123-0.1113281,0.0898838
		c-0.0673828,0.0732727-0.1513672,0.1240768-0.2431641,0.1465473c-0.0478516,0.0117226-0.09375,0.0302868-0.1357422,0.055687
		L5.6982422,27.06991c-0.1933594,0.115284-0.2861328,0.3458538-0.2265625,0.5627441C5.5322266,27.8495445,5.7294922,28,5.9541016,28
		H26c1.1025391,0,2-0.8978481,2-2.000864V14.6582994C28,14.4785347,27.9033203,14.3124475,27.7470703,14.2235413z"/>
	<path fill="#303C42" d="M2.4482422,12.8704176l12.2509766,7.3625555c0.0791016,0.0478725,0.1689453,0.0713196,0.2578125,0.0713196
		s0.1767578-0.023447,0.2558594-0.070343l12.4013672-7.3899097c0.203125-0.1211462,0.2939453-0.3683233,0.2167969-0.5920534
		c-0.1855469-0.5441799-0.5097656-1.0072708-0.9365234-1.3394451c-0.850708-0.6617851-1.9925537-1.5533447-3.425293-2.6832886
		l1.3842773-1.3848753c0.1953125-0.1953969,0.1953125-0.5119395,0-0.7073364l-2-2.0008645
		c-0.1953125-0.1953969-0.5117188-0.1953969-0.7070313,0l-1.6957397,1.6964726
		c-1.8889771-1.5107236-3.1416626-2.5440066-3.9146118-3.2274072c-0.9082031-0.8069893-2.1640625-0.8069893-3.0722656,0
		c-1.9785156,1.750756-7.734375,6.2614937-10.1181641,8.1197186c-0.4921875,0.383955-0.875,0.917388-1.1083984,1.5416813
		C2.1533203,12.4923248,2.2421875,12.7463408,2.4482422,12.8704176z M22.5,5.1971817l1.2929688,1.2935276l-1.4287109,1.4293284
		L15,15.2874775l-3.7929688-3.7946072L12.5,10.1993427l2.1464844,2.1474113c0.1953125,0.1953974,0.5117188,0.1953974,0.7070313,0
		l5.4882813-5.4906526L22.5,5.1971817z"/>
</g>
<g>
</g>
<g>
</g>
<g>
</g>
<g>
</g>
<g>
</g>
<g>
</g>
<g>
</g>
<g>
</g>
<g>
</g>
<g>
</g>
<g>
</g>
<g>
</g>
<g>
</g>
<g>
</g>
<g>
</g>
</svg>
