<?xml version="1.0" encoding="iso-8859-1"?>
<!-- Generator: Adobe Illustrator 21.0.0, SVG Export Plug-In . SVG Version: 6.00 Build 0)  -->
<svg version="1.1" id="Layer_1" xmlns="http://www.w3.org/2000/svg" xmlns:xlink="http://www.w3.org/1999/xlink" x="0px" y="0px"
	 viewBox="0 0 24 24" enable-background="new 0 0 24 24" xml:space="preserve">
<g>
	<path fill="#303C42" d="M22,4h-9.7741699l-1.2526855-3.6616211C10.9038086,0.1357422,10.7138672,0,10.5,0H2
		C0.8969727,0,0,0.8969727,0,2v16c0,1.1030273,0.8969727,2,2,2h9.6533203l1.378418,3.6757813
		C13.1049805,23.8706055,13.2915039,24,13.5,24H22c1.1030273,0,2-0.8969727,2-2V6C24,4.8969727,23.1030273,4,22,4z M1,18V2
		c0-0.5512695,0.4487305-1,1-1h8.1425781l6.1577148,18H2C1.4487305,19,1,18.5512695,1,18z M19.4003296,11
		c-0.2365112,0.7894287-0.9160767,2.0952148-1.8649902,3.2930298c-0.5110474-0.5839233-0.927124-1.1244507-1.0719604-1.4810181
		c-0.1040039-0.2563477-0.3964844-0.3789063-0.6513672-0.2753906c-0.2558594,0.1040039-0.3793945,0.3955078-0.2753906,0.6513672
		c0.1993408,0.4907837,0.7245483,1.1732788,1.3353271,1.866333c-0.2094116,0.2197266-0.4260864,0.4249878-0.6525879,0.6191406
		L14.6205444,11H19.4003296z M12.7216797,20h3.1763916l-2.2234497,2.5411377L12.7216797,20z M23,22c0,0.5512695-0.4487305,1-1,1
		h-7.3980713l2.7745361-3.1708984l-0.0071411-0.0062256c0.0110474-0.0125732,0.0275879-0.0185547,0.0374146-0.0323486
		c0.09375-0.1308594,0.1186523-0.2998047,0.0664063-0.4521484l-0.9087524-2.6563721
		c0.3388062-0.2658691,0.6650391-0.5657959,0.9793701-0.8942261c0.9603271,1.0123901,1.9286499,1.9071045,2.1188354,2.0808716
		C19.7583008,17.956543,19.8793945,18,20,18c0.1352539,0,0.2700195-0.0546875,0.3686523-0.1621094
		c0.1865234-0.2041016,0.1728516-0.5200195-0.0307617-0.706543c-0.4680786-0.4286499-1.3305054-1.2530518-2.1286011-2.0968018
		C19.3474121,13.6314087,20.1936035,12.0231323,20.4256592,11H21.5c0.2763672,0,0.5-0.2236328,0.5-0.5S21.7763672,10,21.5,10H18V9.5
		C18,9.2236328,17.7763672,9,17.5,9S17,9.2236328,17,9.5V10h-2.5c-0.0738525,0-0.1425781,0.0179443-0.2056274,0.0466309
		L12.5679321,5H22c0.5512695,0,1,0.4487305,1,1V22z"/>
	<path fill="#303C42" d="M11.5,10h-4C7.2236328,10,7,10.2236328,7,10.5S7.2236328,11,7.5,11h3.4643555
		C10.7211914,12.6938477,9.2602539,14,7.5,14C5.5703125,14,4,12.4296875,4,10.5S5.5703125,7,7.5,7
		c0.8339844,0,1.6420898,0.2983398,2.2744141,0.8398438C9.984375,8.019043,10.2993164,7.996582,10.4794922,7.7851563
		c0.1796875-0.2099609,0.1552734-0.5253906-0.0546875-0.7050781C9.6113281,6.3837891,8.5722656,6,7.5,6
		C5.0185547,6,3,8.0185547,3,10.5S5.0185547,15,7.5,15s4.5-2.0185547,4.5-4.5C12,10.2236328,11.7763672,10,11.5,10z"/>
</g>
<g>
</g>
<g>
</g>
<g>
</g>
<g>
</g>
<g>
</g>
<g>
</g>
<g>
</g>
<g>
</g>
<g>
</g>
<g>
</g>
<g>
</g>
<g>
</g>
<g>
</g>
<g>
</g>
<g>
</g>
</svg>
