<?xml version="1.0" encoding="iso-8859-1"?>
<!-- Generator: Adobe Illustrator 21.0.0, SVG Export Plug-In . SVG Version: 6.00 Build 0)  -->
<svg version="1.1" id="Layer_1" xmlns="http://www.w3.org/2000/svg" xmlns:xlink="http://www.w3.org/1999/xlink" x="0px" y="0px"
	 viewBox="0 0 30 30" enable-background="new 0 0 30 30" xml:space="preserve">
<path fill="#303C42" d="M29.9346428,17.7792969c-0.005249-0.0092773-0.0159302-0.0130615-0.0217285-0.0219116l0.0061035-0.0039673
	L20.4619865,3.2270508C20.3697014,3.0854492,20.2119865,3,20.0430412,3H9.9561262
	C9.7866926,3,9.6359358,3.0919189,9.5437727,3.2319946L9.5376692,3.2280273L0.0811263,17.753418
	c-0.1040039,0.159668-0.1083984,0.3647461-0.0107422,0.5288086l5.043457,8.4736328
	C5.2027082,26.9052734,5.3633528,26.9975586,5.5371809,27c0.0019531,0,0.0043945,0,0.0063477,0h18.9130859
	c0.1762695,0,0.3393555-0.0927734,0.4296875-0.2441406l5.043457-8.4736328
	C30.0215569,18.1274414,30.02351,17.9355469,29.9346428,17.7792969z M19.7720451,4l8.8059082,13.5263672h-9.1879272L10.8623762,4
	H19.7720451z M18.2082024,17.5263672h-6.4160776l3.2080688-5.0883179L18.2082024,17.5263672z M1.0889388,18.0380859
	l8.861084-13.6104736l4.4592896,7.0731201L5.5557356,25.5429688L1.0889388,18.0380859z M24.1724358,26H6.4497175
	l4.7119141-7.4736328h17.4590454L24.1724358,26z"/>
<g>
</g>
<g>
</g>
<g>
</g>
<g>
</g>
<g>
</g>
<g>
</g>
<g>
</g>
<g>
</g>
<g>
</g>
<g>
</g>
<g>
</g>
<g>
</g>
<g>
</g>
<g>
</g>
<g>
</g>
</svg>
