<?xml version="1.0" encoding="iso-8859-1"?>
<!-- Generator: Adobe Illustrator 21.0.0, SVG Export Plug-In . SVG Version: 6.00 Build 0)  -->
<svg version="1.1" id="Layer_1" xmlns="http://www.w3.org/2000/svg" xmlns:xlink="http://www.w3.org/1999/xlink" x="0px" y="0px"
	 viewBox="0 0 24 24" enable-background="new 0 0 24 24" xml:space="preserve">
<g id="XMLID_1593_">
	
		<circle id="XMLID_1346_" fill="none" stroke="#303C42" stroke-linecap="round" stroke-linejoin="round" stroke-miterlimit="10" cx="23" cy="4.0307698" r="0.5"/>
	
		<polyline id="XMLID_1387_" fill="none" stroke="#303C42" stroke-linecap="round" stroke-linejoin="round" stroke-miterlimit="10" points="
		4.5,16.5 8.5,7.5 9,16 	"/>
	<path id="XMLID_1388_" fill="none" stroke="#303C42" stroke-linecap="round" stroke-linejoin="round" stroke-miterlimit="10" d="
		M5.5,14.5"/>
	<path id="XMLID_1395_" fill="none" stroke="#303C42" stroke-linecap="round" stroke-linejoin="round" stroke-miterlimit="10" d="
		M14,10.5c-1.15625-0.71875-2.65625-0.09375-2.5,1c0.1606264,1.1243839,2.0624876,1.21875,2,2.5
		c-0.047225,0.9681025-1.21875,2.09375-2.5,1"/>
	
		<line id="XMLID_1396_" fill="none" stroke="#303C42" stroke-linecap="round" stroke-linejoin="round" stroke-miterlimit="10" x1="17" y1="6" x2="15.5" y2="15"/>
	
		<polyline id="XMLID_1394_" fill="none" stroke="#303C42" stroke-linecap="round" stroke-linejoin="round" stroke-miterlimit="10" points="
		19,9.5 17,12 18.5,14.5 	"/>
	
		<line id="XMLID_1398_" fill="none" stroke="#303C42" stroke-linecap="round" stroke-linejoin="round" stroke-miterlimit="10" x1="5.3888888" y1="14.5" x2="8.8870687" y2="14.0801725"/>
	<path id="XMLID_1347_" fill="none" stroke="#303C42" stroke-linecap="round" stroke-linejoin="round" stroke-miterlimit="10" d="
		M8,20.5c9.03125,0,15.5-6.6875,15.5-11.5c0-2.5-2.0625-5.5-7.5-5.5C6.96875,3.5,0.5,10.1875,0.5,15C0.5,17.5,2.5624878,20.5,8,20.5
		z"/>
</g>
<g>
</g>
<g>
</g>
<g>
</g>
<g>
</g>
<g>
</g>
<g>
</g>
<g>
</g>
<g>
</g>
<g>
</g>
<g>
</g>
<g>
</g>
<g>
</g>
<g>
</g>
<g>
</g>
<g>
</g>
</svg>
