<?xml version="1.0" encoding="iso-8859-1"?>
<!-- Generator: Adobe Illustrator 21.0.0, SVG Export Plug-In . SVG Version: 6.00 Build 0)  -->
<svg version="1.1" id="Layer_1" xmlns="http://www.w3.org/2000/svg" xmlns:xlink="http://www.w3.org/1999/xlink" x="0px" y="0px"
	 viewBox="0 0 24 24" enable-background="new 0 0 24 24" xml:space="preserve">
<g>
	<path fill="#303C42" d="M13.5317249,9.0629883c-2.1884766,0-3.96875,1.7802734-3.96875,3.96875
		C9.5629749,15.2197266,11.3432484,17,13.5317249,17c2.1879883,0,3.9682617-1.7802734,3.9682617-3.9682617
		C17.4999866,10.8432617,15.7197132,9.0629883,13.5317249,9.0629883z M13.5317249,16
		c-1.637207,0-2.96875-1.331543-2.96875-2.9682617c0-1.637207,1.331543-2.96875,2.96875-2.96875
		c1.6367188,0,2.9682617,1.331543,2.9682617,2.96875C16.4999866,14.668457,15.1684437,16,13.5317249,16z"/>
	<path fill="#303C42" d="M13.4999866,11c-1.1030273,0-2,0.8969727-2,2s0.8969727,2,2,2s2-0.8969727,2-2S14.603014,11,13.4999866,11z
		 M13.4999866,14c-0.5512695,0-1-0.4487305-1-1s0.4487305-1,1-1s1,0.4487305,1,1S14.0512562,14,13.4999866,14z"/>
	<path fill="#303C42" d="M20.4999866,7h-2c-0.2763672,0-0.5,0.2236328-0.5,0.5v9c0,0.2763672,0.2236328,0.5,0.5,0.5h2
		c0.2763672,0,0.5-0.2236328,0.5-0.5v-9C20.9999866,7.2236328,20.7763538,7,20.4999866,7z M19.9999866,16h-1V8h1V16z"/>
	<path fill="#303C42" d="M22.9999866,15c-0.5512695,0-1,0.4487305-1,1s0.4487305,1,1,1s1-0.4487305,1-1S23.5512562,15,22.9999866,15
		z"/>
	<path fill="#303C42" d="M4.529283,9.3320313l-1.2499998,3.5c-0.0546875,0.152832-0.0317383,0.3232422,0.0620117,0.4560547
		S3.5873888,13.5,3.7499864,13.5h2.4999998c0.1625977,0,0.3149414-0.0791016,0.4086914-0.2119141
		s0.1166992-0.3032227,0.0620117-0.4560547l-1.25-3.5C5.3290877,8.9335938,4.6708846,8.9335938,4.529283,9.3320313z M4.4594588,12.5
		l0.5405273-1.5131836L5.5405135,12.5H4.4594588z"/>
	<path fill="#303C42" d="M6.4658065,7.3188477C6.3910995,7.1264648,6.2060409,7,5.9999862,7H3.9999864
		C3.7939317,7,3.6088731,7.1264648,3.5341661,7.3188477l-3.5,9c-0.0600586,0.1538086-0.0400391,0.3271484,0.0532227,0.4633789
		S0.3349473,17,0.4999864,17h2c0.2114258,0,0.3999023-0.1328125,0.4707031-0.3320313L3.38817,15.5h3.2236326l0.4174805,1.1679688
		C7.1000838,16.8671875,7.2885604,17,7.4999862,17h2.0000005c0.1650391,0,0.3193359-0.081543,0.4125977-0.2177734
		s0.1132813-0.3095703,0.0532227-0.4633789L6.4658065,7.3188477z M7.8525252,16l-0.4174805-1.1679688
		C7.364244,14.6328125,7.1757674,14.5,6.9643416,14.5H3.0356309c-0.2114258,0-0.3999023,0.1328125-0.4707031,0.3320313L2.1474473,16
		H1.2309434L4.341783,8h1.3164063l3.1108403,8H7.8525252z"/>
</g>
<g>
</g>
<g>
</g>
<g>
</g>
<g>
</g>
<g>
</g>
<g>
</g>
<g>
</g>
<g>
</g>
<g>
</g>
<g>
</g>
<g>
</g>
<g>
</g>
<g>
</g>
<g>
</g>
<g>
</g>
</svg>
