<?xml version="1.0" encoding="iso-8859-1"?>
<!-- Generator: Adobe Illustrator 21.0.0, SVG Export Plug-In . SVG Version: 6.00 Build 0)  -->
<svg version="1.1" id="Layer_1" xmlns="http://www.w3.org/2000/svg" xmlns:xlink="http://www.w3.org/1999/xlink" x="0px" y="0px"
	 viewBox="0 0 30 30" enable-background="new 0 0 30 30" xml:space="preserve">
<path fill="#303C42" d="M26.8945313,10.9199219c-0.850708-0.661499-1.9925537-1.5526733-3.425293-2.6821289l1.3842773-1.3842773
	c0.1953125-0.1953125,0.1953125-0.5117188,0-0.7070313l-2-2c-0.1953125-0.1953125-0.5117188-0.1953125-0.7070313,0
	l-1.6957397,1.6957397c-1.8889771-1.5100708-3.1416626-2.5429077-3.9146118-3.2260132
	C16.0820866,2.21294,15.5411472,2.0000491,15.0001984,2c-0.5410814-0.0000492-1.0821743,0.2128415-1.5363312,0.6162109
	c-1.9785156,1.75-7.734375,6.2587891-10.1181641,8.1162109C2.4902344,11.3994141,2,12.4042969,2,13.4912109V26
	c0,1.1025391,0.8974609,2,2,2h22c1.1025391,0,2-0.8974609,2-2V13.1884766
	C28,12.2929688,27.5966797,11.4667969,26.8945313,10.9199219z M22.5,5.2070313L23.7929688,6.5L15,15.2929688L11.2070313,11.5
	L12.5,10.2070313l2.1464844,2.1464844c0.1953125,0.1953125,0.5117188,0.1953125,0.7070313,0L22.5,5.2070313z M3.9609375,11.5214844
	c2.390625-1.8632813,8.1660156-6.3876953,10.1650391-8.1572266C14.3144531,3.1982422,14.6181641,3,15,3
	s0.6855469,0.1982422,0.8740234,0.3642578c0.7730713,0.6846313,2.0123291,1.7064819,3.8657837,3.1889038L15,11.2929688
	l-2.1464844-2.1464844c-0.1953125-0.1953125-0.5117188-0.1953125-0.7070313,0l-2,2
	c-0.1953125,0.1953125-0.1953125,0.5117188,0,0.7070313l4.5,4.5C14.7441406,16.4511719,14.8720703,16.5,15,16.5
	s0.2558594-0.0488281,0.3535156-0.1464844l7.4036865-7.4036865c1.4799194,1.1672363,2.65271,2.0812988,3.5230713,2.7591553
	C26.7373047,12.0654297,27,12.6044922,27,13.1884766v0.0272827l-12.0432129,7.1746826L3.0300293,13.2260132
	C3.1011963,12.5545044,3.4217529,11.9415894,3.9609375,11.5214844z M3,26V14.3751221l10.9812622,6.5964966L3.8970947,26.979187
	C3.3959961,26.9252319,3,26.5152588,3,26z M26,27H5.8164063L27,14.3800049V26C27,26.5517578,26.5517578,27,26,27z"/>
<g>
</g>
<g>
</g>
<g>
</g>
<g>
</g>
<g>
</g>
<g>
</g>
<g>
</g>
<g>
</g>
<g>
</g>
<g>
</g>
<g>
</g>
<g>
</g>
<g>
</g>
<g>
</g>
<g>
</g>
</svg>
