<?xml version="1.0" encoding="iso-8859-1"?>
<!-- Generator: Adobe Illustrator 21.0.0, SVG Export Plug-In . SVG Version: 6.00 Build 0)  -->
<svg version="1.1" id="Layer_1" xmlns="http://www.w3.org/2000/svg" xmlns:xlink="http://www.w3.org/1999/xlink" x="0px" y="0px"
	 viewBox="0 0 24 24" enable-background="new 0 0 24 24" xml:space="preserve">
<path fill="#303C42" d="M22.8046875,1.1034865c-0.1240234-0.0952148-0.2841797-0.1264649-0.4345703-0.0864258
	C22.3339844,1.0268264,18.6220703,1.9999709,12,1.9999709S1.6660156,1.0268264,1.6298828,1.0170608
	C1.4785156,0.9770216,1.3183594,1.0082717,1.1953125,1.1034865C1.0722656,1.1982131,1,1.3446975,1,1.4999709v21
	c0,0.1552734,0.0722656,0.3017578,0.1953125,0.3964844s0.2832031,0.125,0.4345703,0.0864258
	C1.6660156,22.9731159,5.3779297,21.9999714,12,21.9999714s10.3339844,0.9731445,10.3701172,0.9829102
	C22.4130859,22.994112,22.4570313,22.9999714,22.5,22.9999714c0.1083984,0,0.2158203-0.0356445,0.3046875-0.1035156
	C22.9277344,22.8017292,23,22.6552448,23,22.4999714v-21C23,1.3446975,22.9277344,1.1982131,22.8046875,1.1034865z
	 M18.3505859,4.8910842L13.5,13.1362009v6.3637705c0,0.2763672-0.2236328,0.5-0.5,0.5
	c-0.1572266,0-0.296875-0.0722656-0.3886719-0.1855469c-0.2070313-0.0576172-1.015625-0.0576172-1.2226563,0
	C11.296875,19.9277058,11.1572266,19.9999714,11,19.9999714c-0.2763672,0-0.5-0.2236328-0.5-0.5v-6.3637705L5.6494141,4.8910842
	C5.5507813,4.7836623,5.5,4.6532912,5.5,4.4999709c0-0.2255859,0.1513672-0.4233398,0.3681641-0.4824219
	c0.194325-0.050293,0.3964844,0.0151367,0.5205078,0.1679688c0.2070313,0.0576172,1.015625,0.0576172,1.2226563,0
	c0.0634766-0.078125,0.1503906-0.1376953,0.2529297-0.1665039c0.2158203-0.0625,0.4443359,0.0288086,0.5615234,0.21875
	L12,10.0458689l3.5742188-5.808105c0.1171875-0.1899414,0.3457031-0.28125,0.5615234-0.21875
	c0.1025391,0.0288086,0.1894531,0.0883789,0.2529297,0.1665039c0.2070313,0.0576172,1.015625,0.0576172,1.2226563,0
	c0.1240234-0.152832,0.3271484-0.21875,0.5205078-0.1679688C18.3486328,4.0766311,18.5,4.274385,18.5,4.4999709
	C18.5,4.6532912,18.4492188,4.7836623,18.3505859,4.8910842z"/>
<g>
</g>
<g>
</g>
<g>
</g>
<g>
</g>
<g>
</g>
<g>
</g>
<g>
</g>
<g>
</g>
<g>
</g>
<g>
</g>
<g>
</g>
<g>
</g>
<g>
</g>
<g>
</g>
<g>
</g>
</svg>
