<?xml version="1.0" encoding="iso-8859-1"?>
<!-- Generator: Adobe Illustrator 21.0.0, SVG Export Plug-In . SVG Version: 6.00 Build 0)  -->
<svg version="1.1" id="Layer_1" xmlns="http://www.w3.org/2000/svg" xmlns:xlink="http://www.w3.org/1999/xlink" x="0px" y="0px"
	 viewBox="0 0 30 30" enable-background="new 0 0 30 30" xml:space="preserve">
<g>
	<path fill="#303C42" d="M22.5283966,0c-4.0943451,0-7.5530148,3.4345703-7.5530148,7.5
		c0,0.2900391,0.0199871,0.5751953,0.0516729,0.8466797c0.258852,2.6582031,1.7032557,4.9189453,3.2329664,7.3125
		c1.5150871,2.3720703,3.0823364,4.8251953,3.713623,7.9404297C22.0209293,23.8330078,22.2256699,24,22.4630737,24
		c0.237402,0,0.4421444-0.1669922,0.4894295-0.4003906c0.631773-3.1162109,2.2116966-5.5693359,3.7399464-7.9423828
		c1.5414104-2.3925781,2.9970264-4.6533203,3.2549019-7.3017578C29.9800129,8.0751953,30,7.7900391,30,7.5
		C30,3.3642578,26.6480885,0,22.5283966,0z M26.4565086,7.5c0,2.2060547-1.7914886,4-3.9934349,4s-3.9934349-1.7939453-3.9934349-4
		s1.7914886-4,3.9934349-4S26.4565086,5.2939453,26.4565086,7.5z"/>
	<path fill="#303C42" d="M14.0696449,19.0595703c-0.1949921-0.1953125-0.5108795-0.1953125-0.7058716,0L3.2934141,29.1464844
		c-0.1428316,0.1425781-0.1857297,0.3583984-0.1082206,0.5449219C3.2622154,29.8779297,3.4445329,30,3.6463497,30h20.1407204
		c0.2018166,0,0.3841343-0.1220703,0.4611549-0.3085938c0.0775089-0.1865234,0.0346107-0.4023438-0.1082191-0.5449219
		L14.0696449,19.0595703z"/>
	<path fill="#303C42" d="M27.5947742,16.7646484c-0.2144909-0.0625-0.4416561,0.0244141-0.5606022,0.2109375
		c-1.2645226,1.984375-2.5446453,4.1416016-3.0896473,6.765625c-0.0341244,0.1650391,0.0170612,0.3359375,0.1360073,0.4550781
		l3.0214005,3.0263672c0.0955448,0.0957031,0.2232647,0.1464844,0.3529358,0.1464844
		c0.0643463,0,0.1291809-0.0126953,0.1910915-0.0380859c0.1867046-0.0771484,0.3080864-0.2597656,0.3080864-0.4619141v-9.625
		C27.9540462,17.0214844,27.8078022,16.8261719,27.5947742,16.7646484z"/>
	<path fill="#303C42" d="M15.0436296,12.03125c-0.5684013-1.2714844-0.8989134-2.4443359-1.0105457-3.5878906
		c0-0.0029297-0.0004873-0.0058594-0.0009756-0.0087891C13.9989605,8.1503906,13.9770231,7.828125,13.9770231,7.5
		c0-1.6699219,0.5147791-3.3007813,1.4882765-4.7158203c0.1052952-0.1533203,0.1169949-0.3525391,0.0311985-0.5166016
		C15.4102144,2.1025391,15.2395964,2,15.0543537,2H1.9967177C0.8955005,2,0,2.8974609,0,4v22.3476563
		c0,0.2021484,0.1213825,0.3847656,0.3080873,0.4619141c0.0619099,0.0253906,0.1267448,0.0380859,0.1910921,0.0380859
		c0.1296697,0,0.2573894-0.0507813,0.3529354-0.1464844l14.0891438-14.1123047
		C15.0875025,12.4423828,15.1284513,12.2197266,15.0436296,12.03125z M6.9885116,13c-2.2019467,0-3.9934351-1.7939453-3.9934351-4
		s1.7914884-4,3.9934351-4C7.8620758,5,8.6917667,5.2773438,9.387888,5.8017578
		C9.6082287,5.9677734,9.6521015,6.28125,9.4863586,6.5019531c-0.1647682,0.2207031-0.4777298,0.265625-0.6990461,0.0986328
		C8.2661963,6.2080078,7.6436849,6,6.9885116,6C5.3369298,6,3.9934354,7.3457031,3.9934354,9s1.3434944,3,2.9950762,3
		c1.4814515,0,2.7152629-1.0830078,2.9536405-2.5H7.6875577C7.4116445,9.5,7.1883783,9.2763672,7.1883783,9
		s0.2232661-0.5,0.4991794-0.5h2.7952104c0.2759132,0,0.4991789,0.2236328,0.4991789,0.5
		C10.9819469,11.2060547,9.1904583,13,6.9885116,13z"/>
</g>
<g>
</g>
<g>
</g>
<g>
</g>
<g>
</g>
<g>
</g>
<g>
</g>
<g>
</g>
<g>
</g>
<g>
</g>
<g>
</g>
<g>
</g>
<g>
</g>
<g>
</g>
<g>
</g>
<g>
</g>
</svg>
