<?xml version="1.0" encoding="iso-8859-1"?>
<!-- Generator: Adobe Illustrator 21.0.0, SVG Export Plug-In . SVG Version: 6.00 Build 0)  -->
<svg version="1.1" id="Layer_1" xmlns="http://www.w3.org/2000/svg" xmlns:xlink="http://www.w3.org/1999/xlink" x="0px" y="0px"
	 viewBox="0 0 30 30" enable-background="new 0 0 30 30" xml:space="preserve">
<g id="XMLID_1679_">
	<path fill="#303C42" d="M17.3808441,30C9.7529135,30,3.999984,24.8413086,3.999984,18
		c0-5.9848633,3.4970706-8.5581055,7.2763672-10.4472656c0.2011719-0.0991211,0.4433594-0.0541992,0.59375,0.1113281
		c0.1513672,0.1665039,0.1728516,0.4125977,0.0527344,0.6025391C10.8417807,9.9833984,10.1689291,11.6743164,10.0273275,13
		h9.9667978c-0.1074219-4.7084961-1.7441406-7-4.9941416-7C9.182601,6,5.7294765,8.8085938,2.8632653,11.8432617
		c-0.1464844,0.1538086-0.3740234,0.2006836-0.5683594,0.112793c-0.1943359-0.0874023-0.3115233-0.2880859-0.2929688-0.5
		C2.5868981,4.8178711,8.0536947,0,14.9999838,0c7.1679697,0,13.000001,5.8808594,13.000001,13.1088867V18.5
		c0,0.2763672-0.2236328,0.5-0.5,0.5H10.026351c0.2958984,3.4526367,2.9355469,5,8.4736338,5
		c2.71875,0,5.2373047-1.2353516,6.6884766-2.3911133c0.1494141-0.1196289,0.3574219-0.144043,0.5283203-0.059082
		C25.8896332,21.6328125,25.9999847,21.8081055,25.9999847,22v5.5c0,0.1762695-0.0927734,0.3393555-0.2441406,0.4296875
		C23.5761566,29.2260742,20.4462738,30,17.3808441,30z M10.213851,9.2626953
		C7.0312343,11.1376953,4.9999843,13.5327148,4.9999843,18c0,6.2709961,5.3222651,11,12.3808594,11
		c2.7783203,0,5.6005859-0.6655273,7.6191406-1.7890625v-4.2358398C23.3749847,24.0356445,21.0175629,25,18.4999847,25
		c-4.0234385,0-9.3847666-0.6728516-9.500001-6.4902344c-0.0029297-0.1342773,0.0488281-0.2636719,0.1425781-0.3598633
		C9.2372885,18.0541992,9.3652182,18,9.4999838,18h17.5v-4.8911133C26.9999847,6.4321289,21.6171722,1,14.9999838,1
		C9.1210775,1,4.3906093,4.7231445,3.2265465,10.0473633C6.0449061,7.3066406,9.5292807,5,14.9999838,5
		c3.9794931,0,5.9990244,2.8598633,6.000001,8.5c0,0.1323242-0.0527344,0.2597656-0.1464844,0.3535156S20.6327972,14,20.4999847,14
		H9.4999838c-0.2763672,0-0.5-0.2236328-0.5-0.5C8.9999838,12.3149414,9.432601,10.8251953,10.213851,9.2626953z"/>
</g>
<g>
</g>
<g>
</g>
<g>
</g>
<g>
</g>
<g>
</g>
<g>
</g>
<g>
</g>
<g>
</g>
<g>
</g>
<g>
</g>
<g>
</g>
<g>
</g>
<g>
</g>
<g>
</g>
<g>
</g>
</svg>
