<?xml version="1.0" encoding="iso-8859-1"?>
<!-- Generator: Adobe Illustrator 21.0.0, SVG Export Plug-In . SVG Version: 6.00 Build 0)  -->
<svg version="1.1" id="Layer_1" xmlns="http://www.w3.org/2000/svg" xmlns:xlink="http://www.w3.org/1999/xlink" x="0px" y="0px"
	 viewBox="0 0 24 24" enable-background="new 0 0 24 24" xml:space="preserve">
<g id="XMLID_1619_">
	<path id="XMLID_1525_" fill="none" stroke="#303C42" stroke-linecap="round" stroke-linejoin="round" stroke-miterlimit="10" d="
		M23.5,12c0-6.3513184-5.1487427-11.5-11.5-11.5S0.5,5.6486816,0.5,12c0,6.3512573,5.1487427,11.5,11.5,11.5
		c2.5189209,0,4.8412476-0.8193359,6.7357178-2.1928711L21,23.5h2.5V21l-2.1928711-2.2642822
		C22.6806641,16.8413086,23.5,14.5189209,23.5,12z M12,20.5c-4.694397,0-8.5-3.805603-8.5-8.5c0-4.694458,3.805603-8.5,8.5-8.5
		s8.5,3.805542,8.5,8.5c0,1.6705933-0.4888916,3.223938-1.3213501,4.5379639l-5.7644653-5.9522095
		C13.0522461,10.2238159,12.5523071,10,12,10c-1.1045532,0-2,0.8953857-2,2c0,0.5522461,0.223877,1.0522461,0.5858154,1.4141846
		l5.9521484,5.7644653C15.223938,20.0111084,13.6705933,20.5,12,20.5z"/>
</g>
<g>
</g>
<g>
</g>
<g>
</g>
<g>
</g>
<g>
</g>
<g>
</g>
<g>
</g>
<g>
</g>
<g>
</g>
<g>
</g>
<g>
</g>
<g>
</g>
<g>
</g>
<g>
</g>
<g>
</g>
</svg>
