<?xml version="1.0" encoding="iso-8859-1"?>
<!-- Generator: Adobe Illustrator 21.0.0, SVG Export Plug-In . SVG Version: 6.00 Build 0)  -->
<svg version="1.1" id="Layer_1" xmlns="http://www.w3.org/2000/svg" xmlns:xlink="http://www.w3.org/1999/xlink" x="0px" y="0px"
	 viewBox="0 0 30 30" enable-background="new 0 0 30 30" xml:space="preserve">
<path fill="#303C42" d="M29.9325447,23.2495117l-11-19C18.8436775,4.0952148,18.6786385,4,18.4999275,4h-2.1914063
	l-0.3613281-0.7236328C15.8622322,3.1069336,15.6893806,3,15.4999275,3h-3.5c-0.1728516,0-0.3330078,0.0888672-0.4238281,0.2348633
	l-2.5,4C8.983326,7.3828125,8.9745369,7.5678711,9.0526619,7.7236328L9.429615,8.4780273l-4.3007808,7.168457l-1.40625,0.9370117
	c-0.0634766,0.0419922-0.1162109,0.0981445-0.1542969,0.1640625l-3.5,6.0004883
	c-0.0966797,0.1650391-0.0898438,0.3706055,0.015625,0.5292969l2,3C2.1766858,26.4165039,2.3329358,26.5,2.499928,26.5h0.5
	c0,0.2763672,0.2236328,0.5,0.5,0.5h24c0.1669922,0,0.3232422-0.0834961,0.4160156-0.2226563l2-3
	C30.0214119,23.6191406,30.0282478,23.4140625,29.9325447,23.2495117z M13.0526619,22.7236328L13.1913338,23H7.3612561
	l7.1406245-12.4960938L21.1346931,22h-7.6347656c-0.1728516,0-0.3339844,0.0898438-0.4257813,0.2373047
	C12.983326,22.3847656,12.9755135,22.5688477,13.0526619,22.7236328z"/>
<g>
</g>
<g>
</g>
<g>
</g>
<g>
</g>
<g>
</g>
<g>
</g>
<g>
</g>
<g>
</g>
<g>
</g>
<g>
</g>
<g>
</g>
<g>
</g>
<g>
</g>
<g>
</g>
<g>
</g>
</svg>
