<?xml version="1.0" encoding="iso-8859-1"?>
<!-- Generator: Adobe Illustrator 21.0.0, SVG Export Plug-In . SVG Version: 6.00 Build 0)  -->
<svg version="1.1" id="Layer_1" xmlns="http://www.w3.org/2000/svg" xmlns:xlink="http://www.w3.org/1999/xlink" x="0px" y="0px"
	 viewBox="0 0 24 24" enable-background="new 0 0 24 24" xml:space="preserve">
<g>
	<path fill="#303C42" d="M20.8535156,5.1464844l-5-5C15.7597656,0.0527344,15.6328125,0,15.5,0H5C3.8969727,0,3,0.8969727,3,2v20
		c0,1.1030273,0.8969727,2,2,2h14c1.1030273,0,2-0.8969727,2-2V5.5C21,5.3671875,20.9472656,5.2402344,20.8535156,5.1464844z
		 M16,1.7070313L19.2929688,5H17c-0.5512695,0-1-0.4487305-1-1V1.7070313z M19,23H5c-0.5512695,0-1-0.4487305-1-1V2
		c0-0.5512695,0.4487305-1,1-1h10v3c0,1.1030273,0.8969727,2,2,2h3v16C20,22.5512695,19.5512695,23,19,23z"/>
	<path fill="#303C42" d="M16.5,12H15V9.5C15,9.2236328,14.7763672,9,14.5,9h-7C7.2236328,9,7,9.2236328,7,9.5v6
		C7,15.7763672,7.2236328,16,7.5,16H9v2.5C9,18.7763672,9.2236328,19,9.5,19h7c0.2763672,0,0.5-0.2236328,0.5-0.5v-6
		C17,12.2236328,16.7763672,12,16.5,12z M9,12.5V15H8v-5h6v2H9.5C9.2236328,12,9,12.2236328,9,12.5z M16,18h-6v-5h6V18z"/>
</g>
<g>
</g>
<g>
</g>
<g>
</g>
<g>
</g>
<g>
</g>
<g>
</g>
<g>
</g>
<g>
</g>
<g>
</g>
<g>
</g>
<g>
</g>
<g>
</g>
<g>
</g>
<g>
</g>
<g>
</g>
</svg>
