<?xml version="1.0" encoding="iso-8859-1"?>
<!-- Generator: Adobe Illustrator 21.0.0, SVG Export Plug-In . SVG Version: 6.00 Build 0)  -->
<svg version="1.1" id="Layer_1" xmlns="http://www.w3.org/2000/svg" xmlns:xlink="http://www.w3.org/1999/xlink" x="0px" y="0px"
	 viewBox="0 0 30 30" enable-background="new 0 0 30 30" xml:space="preserve">
<g>
	<path fill="#303C42" d="M22,12c0-1.6542969-1.3457031-3-3-3s-3,1.3457031-3,3s1.3457031,3,3,3S22,13.6542969,22,12z M17,12
		c0-1.1025391,0.8969727-2,2-2s2,0.8974609,2,2s-0.8969727,2-2,2S17,13.1025391,17,12z"/>
	<path fill="#303C42" d="M15,0C6.7290039,0,0,6.7285156,0,15c0,0.1494141,0.0097656,0.296875,0.0195313,0.4443359
		l0.0136719,0.2236328c0.0087891,0.1894531,0.1240234,0.3583984,0.2978516,0.4345703l5.9213867,2.6132813
		c0.2089844,0.0947266,0.4570313,0.03125,0.5966797-0.1503906C7.6201172,17.5703125,8.7685547,17,10,17
		c0.3417969,0,0.6953125,0.0566406,1.112793,0.1787109c0.1977539,0.0585938,0.4125977-0.0117188,0.5375977-0.1757813
		l2.4555664-3.2119141c0.0957031-0.125,0.1269531-0.2871094,0.0844727-0.4384766C14.0639648,12.9013672,14,12.4462891,14,12
		c0-2.7568359,2.2431641-5,5-5s5,2.2431641,5,5s-2.2431641,5-5,5c-0.0751953,0-0.1489258-0.0058594-0.3203125-0.0166016
		c-0.1230469-0.0097656-0.2495117,0.0322266-0.347168,0.1132813l-4.159668,3.4257813
		C14.0556641,20.6191406,13.9975586,20.8476563,14,21c0,2.2060547-1.7944336,4-4,4
		c-1.9301758,0-3.5820313-1.3808594-3.9267578-3.2832031c-0.0292969-0.1601563-0.1342773-0.2958984-0.28125-0.3642578
		l-4.237793-1.9707031c-0.1831055-0.0859375-0.3984375-0.0517578-0.5473633,0.0830078
		C0.8579102,19.6005859,0.8046875,19.8125,0.8720703,20.0019531C2.9902344,25.9824219,8.6679688,30,15,30
		c8.2709961,0,15-6.7285156,15-15S23.2709961,0,15,0z M15,29c-5.4916992,0-10.456543-3.2392578-12.7172852-8.1767578
		l2.8603516,1.3300781C5.6723633,24.3974609,7.6743164,26,10,26c2.7109375,0,4.9248047-2.1679688,4.9980469-4.8623047
		l3.8173828-3.1435547C18.8764648,17.9970703,18.9379883,18,19,18c3.3085938,0,6-2.6914063,6-6s-2.6914063-6-6-6s-6,2.6914063-6,6
		c0,0.4560547,0.0551758,0.9189453,0.1640625,1.3769531l-2.1049805,2.7539063C10.6835938,16.0419922,10.3408203,16,10,16
		c-1.4130859,0-2.7363281,0.5966797-3.6875048,1.6494141l-5.2997999-2.3388672C1.0058594,15.2080078,1,15.1044922,1,15
		C1,7.2802734,7.2802734,1,15,1s14,6.2802734,14,14S22.7197266,29,15,29z"/>
	<path fill="#303C42" d="M10,23c-0.4365234,0-0.8515625-0.1386719-1.2006836-0.4003906
		c-0.2202148-0.1650391-0.5336914-0.1191406-0.699707,0.1005859c-0.1660156,0.2207031-0.1210938,0.5341797,0.1000977,0.7001953
		C8.7226563,23.7929688,9.3457031,24,10,24c1.6542969,0,3-1.3457031,3-3s-1.3457031-3-3-3c-0.2763672,0-0.5,0.2236328-0.5,0.5
		S9.7236328,19,10,19c1.1030273,0,2,0.8974609,2,2S11.1030273,23,10,23z"/>
</g>
<g>
</g>
<g>
</g>
<g>
</g>
<g>
</g>
<g>
</g>
<g>
</g>
<g>
</g>
<g>
</g>
<g>
</g>
<g>
</g>
<g>
</g>
<g>
</g>
<g>
</g>
<g>
</g>
<g>
</g>
</svg>
