<?xml version="1.0" encoding="iso-8859-1"?>
<!-- Generator: Adobe Illustrator 21.0.0, SVG Export Plug-In . SVG Version: 6.00 Build 0)  -->
<svg version="1.1" id="Layer_1" xmlns="http://www.w3.org/2000/svg" xmlns:xlink="http://www.w3.org/1999/xlink" x="0px" y="0px"
	 viewBox="0 0 30 30" enable-background="new 0 0 30 30" xml:space="preserve">
<g>
	<path fill="#303C42" d="M7,8C6.4487305,8,6,8.4482422,6,9s0.4487305,1,1,1s1-0.4482422,1-1S7.5512695,8,7,8z"/>
	<path fill="#303C42" d="M15,10c0.5512695,0,1-0.4482422,1-1s-0.4487305-1-1-1s-1,0.4482422-1,1S14.4487305,10,15,10z"/>
	<path fill="#303C42" d="M17,15c-0.5512695,0-1,0.4482422-1,1s0.4487305,1,1,1s1-0.4482422,1-1S17.5512695,15,17,15z"/>
	<path fill="#303C42" d="M23,15c-0.5512695,0-1,0.4482422-1,1s0.4487305,1,1,1s1-0.4482422,1-1S23.5512695,15,23,15z"/>
	<path fill="#303C42" d="M30,19c0-3.4834595-3.475647-6.3729858-8.0038452-6.90448
		c0.0009766-0.0319824,0.0053101-0.0634155,0.0053101-0.09552c0-4.9628906-4.9345703-9-11.0004883-9S0,7.0371094,0,12
		c0,2.6054688,1.3530273,5.0419922,3.7304688,6.7529297l-1.6464844,2.4697266
		c-0.1235352,0.1855469-0.1098633,0.4296875,0.0336914,0.5996094C2.2148438,21.9375,2.355957,22,2.5,22
		c0.0683594,0,0.1376953-0.0136719,0.203125-0.0429688l3.8759766-1.7226563
		c1.5326538,0.5519409,3.1837769,0.7973633,4.8128662,0.7423706C12.5533447,23.8759766,16.1939087,26,20.5,26
		c1.1850586,0,2.3393555-0.1582031,3.4350586-0.4707031l2.8188477,1.4169922C26.8251953,26.9824219,26.9018555,27,26.9785156,27
		c0.1289063,0,0.2563477-0.0498047,0.3520508-0.1455078c0.152832-0.1513672,0.1914063-0.3828125,0.0961914-0.5751953
		l-0.9169922-1.8613281C28.7045898,23.0957031,30,21.0986328,30,19z M6.7382813,19.2275391
		c-0.1225586-0.0458984-0.2592773-0.0419922-0.3798828,0.0107422l-2.4863281,1.1044922l0.9643555-1.4462891
		c0.0742188-0.1113281,0.1005859-0.2470703,0.0737305-0.3779297s-0.1049805-0.2451172-0.2167969-0.3183594
		C2.3461914,16.6699219,1,14.4101563,1,12c0-4.4111328,4.4863281-8,10.0009766-8c5.5141602,0,10.0004883,3.5888672,10.0004883,8
		c0,0.0062866-0.0010376,0.0123901-0.0010986,0.0186768C20.8336182,12.012207,20.6688843,12,20.5,12
		c-5.2382813,0-9.5,3.140625-9.5,7c0,0.3330688,0.0426636,0.6582642,0.1040649,0.9790649
		C9.6184692,20.0020752,8.1242065,19.7520142,6.7382813,19.2275391z M25.6166992,23.7763672
		c-0.2373047,0.1269531-0.3310547,0.4199219-0.2119141,0.6611328l0.4658203,0.9462891l-1.6625977-0.8359375
		c-0.0703125-0.0361328-0.1474609-0.0537109-0.2246094-0.0537109c-0.0488281,0-0.0976563,0.0068359-0.1450195,0.0214844
		C22.7792969,24.8369141,21.65625,25,20.5,25c-4.6870117,0-8.5-2.6914063-8.5-6s3.8129883-6,8.5-6s8.5,2.6914063,8.5,6
		C29,20.8818359,27.7670898,22.6230469,25.6166992,23.7763672z"/>
</g>
<g>
</g>
<g>
</g>
<g>
</g>
<g>
</g>
<g>
</g>
<g>
</g>
<g>
</g>
<g>
</g>
<g>
</g>
<g>
</g>
<g>
</g>
<g>
</g>
<g>
</g>
<g>
</g>
<g>
</g>
</svg>
