<?xml version="1.0" encoding="iso-8859-1"?>
<!-- Generator: Adobe Illustrator 21.0.0, SVG Export Plug-In . SVG Version: 6.00 Build 0)  -->
<svg version="1.1" id="Layer_1" xmlns="http://www.w3.org/2000/svg" xmlns:xlink="http://www.w3.org/1999/xlink" x="0px" y="0px"
	 viewBox="0 0 24 24" enable-background="new 0 0 24 24" xml:space="preserve">
<g>
	<path fill="#303C42" d="M12,0C5.3828125,0,0,5.1586914,0,11.5c0,3.2397461,1.4296875,6.3203125,3.9335938,8.5029297
		l-0.9160156,3.3657227c-0.0507813,0.1879883,0.0117188,0.3886719,0.1601563,0.5141602C3.2705078,23.9599609,3.3847656,24,3.5,24
		c0.0722656,0,0.1445313-0.015625,0.2119141-0.0473633l3.8046875-1.7832031C8.9433594,22.7207031,10.4511719,23,12,23
		c6.6171875,0,12-5.1586914,12-11.5S18.6171875,0,12,0z M12,22c-1.4941406,0-2.9443359-0.2822266-4.3115234-0.8383789
		c-0.1289063-0.0517578-0.2753906-0.0488281-0.4003906,0.0107422l-3.0214844,1.4160156l0.7158203-2.6298828
		c0.0517578-0.1894531-0.0126953-0.3920898-0.1640625-0.5170898C2.3916016,17.4399414,1,14.5454102,1,11.5
		C1,5.7104492,5.9345703,1,12,1s11,4.7104492,11,10.5S18.0654297,22,12,22z"/>
	<path fill="#303C42" d="M19.9003906,8.2006836C19.75,8.0004883,19.4755859,7.9423828,19.2607422,8.0610352l-5.1972656,2.8349609
		l-3.2382813-2.7753906c-0.1972656-0.1694336-0.4931641-0.1577148-0.6787109,0.0258789l-6,6
		c-0.1757813,0.1757813-0.1953125,0.4541016-0.046875,0.652832C4.1972656,14.9296875,4.3466797,15,4.5,15
		c0.0820313,0,0.1640625-0.0200195,0.2392578-0.0610352l5.1972656-2.8349609l3.2382813,2.7753906
		c0.1982422,0.1708984,0.4931641,0.1591797,0.6787109-0.0258789l6-6
		C20.0292969,8.6777344,20.0488281,8.3994141,19.9003906,8.2006836z M13.4736328,13.8188477l-3.1484375-2.6982422
		C10.2324219,11.0410156,10.1171875,11,10,11c-0.0820313,0-0.1640625,0.0200195-0.2392578,0.0610352l-2.4521484,1.3374023
		l3.2177734-3.2172852l3.1484375,2.6982422c0.1582031,0.1357422,0.3818359,0.1601563,0.5644531,0.0595703l2.4521484-1.3374023
		L13.4736328,13.8188477z"/>
</g>
<g>
</g>
<g>
</g>
<g>
</g>
<g>
</g>
<g>
</g>
<g>
</g>
<g>
</g>
<g>
</g>
<g>
</g>
<g>
</g>
<g>
</g>
<g>
</g>
<g>
</g>
<g>
</g>
<g>
</g>
</svg>
