<?xml version="1.0" encoding="iso-8859-1"?>
<!-- Generator: Adobe Illustrator 21.0.0, SVG Export Plug-In . SVG Version: 6.00 Build 0)  -->
<svg version="1.1" id="Layer_1" xmlns="http://www.w3.org/2000/svg" xmlns:xlink="http://www.w3.org/1999/xlink" x="0px" y="0px"
	 viewBox="0 0 24 24" enable-background="new 0 0 24 24" xml:space="preserve">
<g>
	<path fill="#303C42" d="M12,0C5.3828125,0,0,5.3828125,0,12s5.3828125,12,12,12s12-5.3828125,12-12S18.6171875,0,12,0z M12,23
		C5.9345703,23,1,18.0654297,1,12S5.9345703,1,12,1s11,4.9345703,11,11S18.0654297,23,12,23z"/>
	<path fill="#303C42" d="M19.5,11h-15C4.2236328,11,4,11.2236328,4,11.5c0,5.5048828,3.3642578,9.5,8,9.5s8-3.9951172,8-9.5
		C20,11.2236328,19.7763672,11,19.5,11z M12,20c-3.9824219,0-6.8046875-3.2636719-6.9902344-8h13.9804688
		C18.8046875,16.7363281,15.9824219,20,12,20z"/>
	<path fill="#303C42" d="M8,9c0.5517578,0,1-0.4482422,1-1S8.5517578,7,8,7S7,7.4482422,7,8S7.4482422,9,8,9z"/>
	<path fill="#303C42" d="M16,9c0.5517578,0,1-0.4482422,1-1s-0.4482422-1-1-1s-1,0.4482422-1,1S15.4482422,9,16,9z"/>
</g>
<g>
</g>
<g>
</g>
<g>
</g>
<g>
</g>
<g>
</g>
<g>
</g>
<g>
</g>
<g>
</g>
<g>
</g>
<g>
</g>
<g>
</g>
<g>
</g>
<g>
</g>
<g>
</g>
<g>
</g>
</svg>
