<?xml version="1.0" encoding="iso-8859-1"?>
<!-- Generator: Adobe Illustrator 21.0.0, SVG Export Plug-In . SVG Version: 6.00 Build 0)  -->
<svg version="1.1" id="Layer_1" xmlns="http://www.w3.org/2000/svg" xmlns:xlink="http://www.w3.org/1999/xlink" x="0px" y="0px"
	 viewBox="0 0 24 24" enable-background="new 0 0 24 24" xml:space="preserve">
<g id="XMLID_1599_">
	<path id="XMLID_1447_" fill="none" stroke="#303C42" stroke-linecap="round" stroke-linejoin="round" stroke-miterlimit="10" d="
		M12.5,3.433562v0.3636196c0,0.1348424,0.0141048,0.2693148,0.0420856,0.4012222l3.1328726,14.7692566
		C15.8644609,19.8610325,16.6531849,20.5,17.5664349,20.5h0.0000038C18.6343155,20.5,19.5,19.6343155,19.5,18.5664387v-0.3636208
		c0-0.1348419-0.0141048-0.2693138-0.0420856-0.4012222L16.3250408,3.0323398C16.1355381,2.1389682,15.3468142,1.5,14.4335651,1.5
		h-0.0000029C13.3656855,1.5,12.5,2.3656852,12.5,3.433562z"/>
	<path id="XMLID_1448_" fill="none" stroke="#303C42" stroke-linecap="round" stroke-linejoin="round" stroke-miterlimit="10" d="
		M4.5,5.4335618v0.3636198c0,0.1348424,0.0141053,0.2693148,0.0420856,0.4012222l3.1328726,14.7692566
		C7.8644614,21.8610325,8.6531858,22.5,9.5664349,22.5h0.0000029C10.6343145,22.5,11.5,21.6343155,11.5,20.5664387v-0.3636208
		c0-0.1348419-0.0141048-0.2693138-0.0420856-0.4012222L8.3250418,5.0323396C8.1355391,4.1389685,7.3468146,3.5,6.4335656,3.5
		H6.4335618C5.365685,3.5,4.5,4.365685,4.5,5.4335618z"/>
	<path id="XMLID_1449_" fill="none" stroke="#303C42" stroke-linecap="round" stroke-linejoin="round" stroke-miterlimit="10" d="
		M3.433562,11.5h0.3636196c0.1348424,0,0.2693148-0.0141048,0.4012222-0.0420856l14.7692566-3.1328726
		C19.8610325,8.1355391,20.5,7.3468146,20.5,6.4335656V6.4335618C20.5,5.365685,19.6343155,4.5,18.5664387,4.5h-0.3636208
		c-0.1348419,0-0.2693138,0.0141053-0.4012222,0.0420856L3.0323398,7.6749582C2.1389682,7.8644614,1.5,8.6531858,1.5,9.5664349
		v0.0000029C1.5,10.6343145,2.3656852,11.5,3.433562,11.5z"/>
	<path id="XMLID_1445_" fill="none" stroke="#303C42" stroke-linecap="round" stroke-linejoin="round" stroke-miterlimit="10" d="
		M5.4335618,19.5h0.3636198c0.1348424,0,0.2693148-0.0141048,0.4012222-0.0420856l14.7692566-3.1328735
		C21.8610325,16.1355381,22.5,15.3468142,22.5,14.4335651v-0.0000029C22.5,13.3656855,21.6343155,12.5,20.5664387,12.5h-0.3636208
		c-0.1348419,0-0.2693138,0.0141048-0.4012222,0.0420856L5.0323396,15.6749582C4.1389685,15.8644609,3.5,16.6531849,3.5,17.5664349
		v0.0000038C3.5,18.6343155,4.365685,19.5,5.4335618,19.5z"/>
</g>
<g>
</g>
<g>
</g>
<g>
</g>
<g>
</g>
<g>
</g>
<g>
</g>
<g>
</g>
<g>
</g>
<g>
</g>
<g>
</g>
<g>
</g>
<g>
</g>
<g>
</g>
<g>
</g>
<g>
</g>
</svg>
