<?xml version="1.0" encoding="iso-8859-1"?>
<!-- Generator: Adobe Illustrator 21.0.0, SVG Export Plug-In . SVG Version: 6.00 Build 0)  -->
<svg version="1.1" id="Layer_1" xmlns="http://www.w3.org/2000/svg" xmlns:xlink="http://www.w3.org/1999/xlink" x="0px" y="0px"
	 viewBox="0 0 24 24" enable-background="new 0 0 24 24" xml:space="preserve">
<g>
	<g>
		<path fill="#303C42" d="M17.0219727,23H6.9780273C3.6816406,23,1,20.3183594,1,17.0219727V6.9780273
			C1,3.6816406,3.6816406,1,6.9780273,1h10.0439453C20.3183594,1,23,3.6816406,23,6.9780273v10.0439453
			C23,20.3183594,20.3183594,23,17.0219727,23z M6.9780273,3C4.784668,3,3,4.784668,3,6.9780273v10.0439453
			C3,19.215332,4.784668,21,6.9780273,21h10.0439453C19.215332,21,21,19.215332,21,17.0219727V6.9780273
			C21,4.784668,19.215332,3,17.0219727,3H6.9780273z"/>
	</g>
	<g id="XMLID_1314_">
		<path fill="#303C42" d="M12,18c-3.3085938,0-6-2.6914063-6-6s2.6914063-6,6-6s6,2.6914063,6,6S15.3085938,18,12,18z M12,8
			c-2.2055664,0-4,1.7944336-4,4s1.7944336,4,4,4s4-1.7944336,4-4S14.2055664,8,12,8z"/>
	</g>
	<g id="XMLID_1313_">
		<circle fill="#303C42" cx="18" cy="5" r="1"/>
	</g>
</g>
<g>
</g>
<g>
</g>
<g>
</g>
<g>
</g>
<g>
</g>
<g>
</g>
<g>
</g>
<g>
</g>
<g>
</g>
<g>
</g>
<g>
</g>
<g>
</g>
<g>
</g>
<g>
</g>
<g>
</g>
</svg>
