<?xml version="1.0" encoding="iso-8859-1"?>
<!-- Generator: Adobe Illustrator 21.0.0, SVG Export Plug-In . SVG Version: 6.00 Build 0)  -->
<svg version="1.1" id="Layer_1" xmlns="http://www.w3.org/2000/svg" xmlns:xlink="http://www.w3.org/1999/xlink" x="0px" y="0px"
	 viewBox="0 0 30 30" enable-background="new 0 0 30 30" xml:space="preserve">
<g>
	<path fill="#303C42" d="M11.5,16c0.2763672,0,0.5-0.2236328,0.5-0.5v-7C12,8.2236328,11.7763672,8,11.5,8S11,8.2236328,11,8.5v7
		C11,15.7763672,11.2236328,16,11.5,16z"/>
	<path fill="#303C42" d="M19.5,16c0.2763672,0,0.5-0.2236328,0.5-0.5v-7C20,8.2236328,19.7763672,8,19.5,8S19,8.2236328,19,8.5v7
		C19,15.7763672,19.2236328,16,19.5,16z"/>
	<path fill="#303C42" d="M29.5,0H3.0214844C2.8330078,0,2.6601563,0.1064453,2.5751953,0.2749023l-2.5214844,5
		C0.0185547,5.3447266,0,5.421875,0,5.5v20C0,25.7763672,0.2236328,26,0.5,26H7v3.5C7,29.7763672,7.2236328,30,7.5,30h3
		c0.1328125,0,0.2597656-0.0527344,0.3535156-0.1464844L14.7070313,26H22c0.1328125,0,0.2597656-0.0527344,0.3535156-0.1464844
		l7.5-7.5C29.9472656,18.2597656,30,18.1328125,30,18V0.5C30,0.2236328,29.7763672,0,29.5,0z M10.5,22H4V3h23v13.7929688
		L21.7929688,22H14.5c-0.1083984,0-0.2138672,0.0351563-0.2998047,0.1000977L11,24.5v-2C11,22.2236328,10.7763672,22,10.5,22z"/>
</g>
<g>
</g>
<g>
</g>
<g>
</g>
<g>
</g>
<g>
</g>
<g>
</g>
<g>
</g>
<g>
</g>
<g>
</g>
<g>
</g>
<g>
</g>
<g>
</g>
<g>
</g>
<g>
</g>
<g>
</g>
</svg>
