<?xml version="1.0" encoding="iso-8859-1"?>
<!-- Generator: Adobe Illustrator 21.0.0, SVG Export Plug-In . SVG Version: 6.00 Build 0)  -->
<svg version="1.1" id="Layer_1" xmlns="http://www.w3.org/2000/svg" xmlns:xlink="http://www.w3.org/1999/xlink" x="0px" y="0px"
	 viewBox="0 0 30 30" enable-background="new 0 0 30 30" xml:space="preserve">
<g>
	<path fill="#303C42" d="M18.1668434,30h-0.6669922c-4.1357431,0-7.500001-3.3642578-7.500001-7.5V13h-4.5
		c-0.2763672,0-0.5-0.2236328-0.5-0.5v-5c0-0.2763672,0.2236328-0.5,0.5-0.5c3.4443359,0,5.5-2.4296875,5.5-6.5
		c0-0.2763672,0.2236328-0.5,0.5-0.5h5.000001c0.2763672,0,0.5,0.2236328,0.5,0.5V7h4.5c0.2763672,0,0.5,0.2236328,0.5,0.5v5
		c0,0.2763672-0.2236328,0.5-0.5,0.5h-4.5v7.8647461c0,0.3730469,0.0546875,0.7431641,0.1611328,1.1000977
		c0.3066406,1.0195313,0.9980469,1.8442383,1.9501953,2.3217773c0.9511585,0.4780273,2.0263672,0.5390625,3.0263672,0.1767578
		l1.1914063-0.4331055c0.1337891-0.0488281,0.2822266-0.0380859,0.4052734,0.0283203
		c0.125,0.0664063,0.2167969,0.1826172,0.2509766,0.3203125l1,4c0.0625,0.2504883-0.0761719,0.5073242-0.3193359,0.5927734
		C24.5457497,29.0136719,21.6951637,30,18.1668434,30z M5.9998503,12h4.5c0.2763672,0,0.5,0.2236328,0.5,0.5v10
		c0,3.5839844,2.9160156,6.5,6.500001,6.5h0.6669922c2.5761719,0,4.8212891-0.5688477,5.7333984-0.8364258l-0.7509766-3.0039063
		l-0.6699219,0.2431641c-1.2607422,0.4599609-2.6162109,0.3793945-3.8173828-0.222168
		c-1.1992188-0.6025391-2.0732422-1.6425781-2.4580078-2.9287109c-0.1357422-0.4501953-0.2041025-0.9169922-0.2041025-1.387207V12.5
		c0-0.2763672,0.2236338-0.5,0.500001-0.5h4.5V8h-4.5c-0.2763672,0-0.500001-0.2236328-0.500001-0.5V1h-4.0097656
		c-0.1855469,4.8676758-3.0996094,6.7880859-5.9902344,6.9833984V12z"/>
</g>
<g>
</g>
<g>
</g>
<g>
</g>
<g>
</g>
<g>
</g>
<g>
</g>
<g>
</g>
<g>
</g>
<g>
</g>
<g>
</g>
<g>
</g>
<g>
</g>
<g>
</g>
<g>
</g>
<g>
</g>
</svg>
