<?xml version="1.0" encoding="iso-8859-1"?>
<!-- Generator: Adobe Illustrator 21.0.0, SVG Export Plug-In . SVG Version: 6.00 Build 0)  -->
<svg version="1.1" id="Layer_1" xmlns="http://www.w3.org/2000/svg" xmlns:xlink="http://www.w3.org/1999/xlink" x="0px" y="0px"
	 viewBox="0 0 24 24" enable-background="new 0 0 24 24" xml:space="preserve">
<path fill="#303C42" d="M19.979641,22.359375c-0.0214844-0.074707-0.5429688-1.8481445-1.0146484-3.0429688
	c-0.0556641-0.1425781-0.1748047-0.2514648-0.3212891-0.2954102c-0.1474609-0.0444336-0.3076172-0.019043-0.4316406,0.0703125
	c-0.2724609,0.1923828-0.7128906,0.3027344-1.2060547,0.3027344c-1.2480478,0-3.0058603-0.7426758-3.0058603-2.394043v-7h3.500001
	c0.2763672,0,0.5-0.2236328,0.5-0.5v-4c0-0.2763672-0.2236328-0.5-0.5-0.5h-3.500001V0.5c0-0.2763672-0.2236328-0.5-0.5-0.5h-4
	c-0.2763672,0-0.5,0.2236328-0.5,0.5c0,3.6108398-2.2636719,5.5-4.5,5.5c-0.2763672,0-0.5,0.2236328-0.5,0.5v3
	c0,0.2763672,0.2236328,0.5,0.5,0.5h3.5v8c0,4.1225586,3.3691406,6,6.5,6c2.8232431,0,5.1074228-1.0004883,5.203126-1.0429688
	C19.9317894,22.8549805,20.0499535,22.5996094,19.979641,22.359375z"/>
<g>
</g>
<g>
</g>
<g>
</g>
<g>
</g>
<g>
</g>
<g>
</g>
<g>
</g>
<g>
</g>
<g>
</g>
<g>
</g>
<g>
</g>
<g>
</g>
<g>
</g>
<g>
</g>
<g>
</g>
</svg>
