<?xml version="1.0" encoding="iso-8859-1"?>
<!-- Generator: Adobe Illustrator 21.0.0, SVG Export Plug-In . SVG Version: 6.00 Build 0)  -->
<svg version="1.1" id="Layer_1" xmlns="http://www.w3.org/2000/svg" xmlns:xlink="http://www.w3.org/1999/xlink" x="0px" y="0px"
	 viewBox="0 0 30 30" enable-background="new 0 0 30 30" xml:space="preserve">
<g id="XMLID_1737_">
	<path id="XMLID_1740_" fill="none" stroke="#303C42" stroke-linecap="round" stroke-linejoin="round" stroke-miterlimit="10" d="
		M2.3913043,4.7099438C4.8191319,7.6696401,9.1659908,10.4624157,15,10.7626686
		c-0.3217678-1.2851467-0.3527451-4.7733259,2.1909504-6.2230072C18.3286572,3.8912115,19.4056263,3.5,20.6743946,3.5
		c1.5941467,0,2.9025745,0.5246277,4.2943554,1.8009725c1.1328449-0.15836,3.249054-1.0314617,3.7511501-1.3744249
		c-0.32691,1.2034583-1.6348095,2.7487211-2.5796814,3.115612C27.0078449,7.0395865,28.9155178,6.5421228,29.5,6.2481732
		c-0.8109455,1.2511845-2.2270679,2.4497542-3.0018959,2.9472175c0.8971939,7.710247-6.2610569,17.2949944-16.5415649,17.3045998
		C7.0206904,26.5027332,3.830214,25.9043293,0.5,24.0786629c3.2851727,0.3693352,6.8050504-0.6522446,8.826087-2.4210892
		c-2.5488362-0.0553169-5.1303749-1.7043076-6.304348-4.236908c1.2770545,0.381813,2.4544604,0.5752926,3.1521738,0
		c-1.1893954-0.1281281-5.043478-2.1545734-5.043478-6.0792227c0.8856864,0.7035503,2.1609013,1.4305229,3.1521738,1.2370434
		C2.6605859,11.6563711,0.3033043,8.1445913,2.3913043,4.7099438z"/>
</g>
<g>
</g>
<g>
</g>
<g>
</g>
<g>
</g>
<g>
</g>
<g>
</g>
<g>
</g>
<g>
</g>
<g>
</g>
<g>
</g>
<g>
</g>
<g>
</g>
<g>
</g>
<g>
</g>
<g>
</g>
</svg>
