<?xml version="1.0" encoding="iso-8859-1"?>
<!-- Generator: Adobe Illustrator 21.0.0, SVG Export Plug-In . SVG Version: 6.00 Build 0)  -->
<svg version="1.1" id="Layer_1" xmlns="http://www.w3.org/2000/svg" xmlns:xlink="http://www.w3.org/1999/xlink" x="0px" y="0px"
	 viewBox="0 0 24 24" enable-background="new 0 0 24 24" xml:space="preserve">
<g id="XMLID_1597_">
	<path id="XMLID_1404_" fill="none" stroke="#303C42" stroke-linecap="round" stroke-linejoin="round" stroke-miterlimit="10" d="
		M12,0.5C5.6487427,0.5,0.5,5.6486816,0.5,12c0,5.4916382,3.8522949,10.3574219,9,11.5v-3c0,0-0.333313,0-1,0
		c-2.625,0-3.541687-4-5-4c2.791687,0,3.333313,2,5,2c0,0,1,0.125,1-1v-0.3487549c-2.9110107-0.8245239-5-3.039917-5-5.6512451
		c0-1.3790894,0.5876465-2.6456299,1.5653076-3.6589966C5.571167,6.7750854,5.7251587,5.2748413,6.5,4.5
		c0.6834106,0.1809082,1.7228394,0.7651978,2.3818359,1.5480957C9.8323364,5.6995239,10.8859253,5.5,12,5.5
		s2.1676636,0.1995239,3.1181641,0.5480957C15.7771606,5.2651978,16.8165894,4.6809082,17.5,4.5
		c0.7748413,0.7748413,0.928833,2.2750854,0.4346924,3.3410034C18.9123535,8.8543701,19.5,10.1209106,19.5,11.5
		c0,2.7359009-2.2913208,5.0395508-5.4207153,5.7612915C14.34198,17.7583618,14.5,18.4287109,14.5,19.5c0,1.3673706,0,3.352478,0,4
		c5.1477051-1.1425781,9-6.0083618,9-11.5C23.5,5.6486816,18.3512573,0.5,12,0.5z"/>
</g>
<g>
</g>
<g>
</g>
<g>
</g>
<g>
</g>
<g>
</g>
<g>
</g>
<g>
</g>
<g>
</g>
<g>
</g>
<g>
</g>
<g>
</g>
<g>
</g>
<g>
</g>
<g>
</g>
<g>
</g>
</svg>
