<?xml version="1.0" encoding="iso-8859-1"?>
<!-- Generator: Adobe Illustrator 21.0.0, SVG Export Plug-In . SVG Version: 6.00 Build 0)  -->
<svg version="1.1" id="Layer_1" xmlns="http://www.w3.org/2000/svg" xmlns:xlink="http://www.w3.org/1999/xlink" x="0px" y="0px"
	 viewBox="0 0 24 24" enable-background="new 0 0 24 24" xml:space="preserve">
<g id="XMLID_1444_">
	<path id="XMLID_1446_" fill="none" stroke="#303C42" stroke-linecap="round" stroke-linejoin="round" stroke-miterlimit="10" d="
		M17.5,2.5c-2.0881348,0-3.925354,1.0678101-5,2.6860352C11.425354,3.5678101,9.5881348,2.5,7.5,2.5c-3.3137207,0-6,2.6862793-6,6
		s2.6862793,6,6,6v1.9996338L0.5,13.5v7l7-2v3h10l-3-7h3c3.3137207,0,6-2.6862793,6-6S20.8137207,2.5,17.5,2.5z M7.5,9.5
		c-0.5522766,0-1-0.4477234-1-1c0-0.5523071,0.4477234-1,1-1s1,0.4476929,1,1C8.5,9.0522766,8.0522766,9.5,7.5,9.5z M17.5,9.5
		c-0.5522766,0-1-0.4477234-1-1c0-0.5523071,0.4477234-1,1-1s1,0.4476929,1,1C18.5,9.0522766,18.0522766,9.5,17.5,9.5z"/>
</g>
<g>
</g>
<g>
</g>
<g>
</g>
<g>
</g>
<g>
</g>
<g>
</g>
<g>
</g>
<g>
</g>
<g>
</g>
<g>
</g>
<g>
</g>
<g>
</g>
<g>
</g>
<g>
</g>
<g>
</g>
</svg>
