<?xml version="1.0" encoding="iso-8859-1"?>
<!-- Generator: Adobe Illustrator 21.0.0, SVG Export Plug-In . SVG Version: 6.00 Build 0)  -->
<svg version="1.1" id="Layer_1" xmlns="http://www.w3.org/2000/svg" xmlns:xlink="http://www.w3.org/1999/xlink" x="0px" y="0px"
	 viewBox="0 0 24 24" enable-background="new 0 0 24 24" xml:space="preserve">
<g>
	<path fill="#303C42" d="M21,1H3C1.8969727,1,1,1.8969727,1,3v18c0,1.1030273,0.8969727,2,2,2h18c1.1030273,0,2-0.8969727,2-2V3
		C23,1.8969727,22.1030273,1,21,1z M22,21c0,0.5512695-0.4487305,1-1,1H3c-0.5512695,0-1-0.4487305-1-1V3
		c0-0.5512695,0.4487305-1,1-1h18c0.5512695,0,1,0.4487305,1,1V21z"/>
	<path fill="#303C42" d="M12,4c-4.4111328,0-8,3.5888672-8,8s3.5888672,8,8,8s8-3.5888672,8-8S16.4111328,4,12,4z M12,19
		c-3.6911011,0-6.7164917-2.8735962-6.9746704-6.5H9v2C9,14.7763672,9.2236328,15,9.5,15h5c0.2763672,0,0.5-0.2236328,0.5-0.5v-5
		C15,9.2236328,14.7763672,9,14.5,9h-5C9.2236328,9,9,9.2236328,9,9.5v2H5.0253296C5.2835083,7.8735962,8.3088989,5,12,5
		c3.8598633,0,7,3.1401367,7,7S15.8598633,19,12,19z M10,14v-4h4v4H10z"/>
</g>
<g>
</g>
<g>
</g>
<g>
</g>
<g>
</g>
<g>
</g>
<g>
</g>
<g>
</g>
<g>
</g>
<g>
</g>
<g>
</g>
<g>
</g>
<g>
</g>
<g>
</g>
<g>
</g>
<g>
</g>
</svg>
