<?xml version="1.0" encoding="iso-8859-1"?>
<!-- Generator: Adobe Illustrator 21.0.0, SVG Export Plug-In . SVG Version: 6.00 Build 0)  -->
<svg version="1.1" id="Layer_1" xmlns="http://www.w3.org/2000/svg" xmlns:xlink="http://www.w3.org/1999/xlink" x="0px" y="0px"
	 viewBox="0 0 30 30" enable-background="new 0 0 30 30" xml:space="preserve">
<g>
	<g id="XMLID_1748_">
		<path fill="#303C42" d="M20.5,28h-11C5.3642578,28,2,24.6357422,2,20.5v-12C2,4.9160156,4.9160156,2,8.5,2h8
			C20.0839844,2,23,4.9160156,23,8.5v4c0,0.2758789,0.2246094,0.5,0.5,0.5h1c1.9296875,0,3.5,1.5703125,3.5,3.5v4
			C28,24.6357422,24.6357422,28,20.5,28z M8.5,3C5.4677734,3,3,5.4672852,3,8.5v12C3,24.0839844,5.9160156,27,9.5,27h11
			c3.5839844,0,6.5-2.9160156,6.5-6.5v-4c0-1.378418-1.1210938-2.5-2.5-2.5h-1c-0.8271484,0-1.5-0.6728516-1.5-1.5v-4
			C22,5.4672852,19.5322266,3,16.5,3H8.5z"/>
	</g>
	<g>
		<path fill="#303C42" d="M15.25,11.5h-5.5C8.7851563,11.5,8,10.7148438,8,9.75S8.7851563,8,9.75,8h5.5
			C16.2148438,8,17,8.7851563,17,9.75S16.2148438,11.5,15.25,11.5z M9.75,9C9.3369141,9,9,9.3364258,9,9.75
			s0.3369141,0.75,0.75,0.75h5.5c0.4130859,0,0.75-0.3364258,0.75-0.75S15.6630859,9,15.25,9H9.75z"/>
	</g>
	<g>
		<path fill="#303C42" d="M20.5,22h-11C8.6728516,22,8,21.3271484,8,20.5S8.6728516,19,9.5,19h11c0.8271484,0,1.5,0.6728516,1.5,1.5
			S21.3271484,22,20.5,22z M9.5,20C9.2246094,20,9,20.2241211,9,20.5S9.2246094,21,9.5,21h11c0.2753906,0,0.5-0.2241211,0.5-0.5
			S20.7753906,20,20.5,20H9.5z"/>
	</g>
</g>
<g>
</g>
<g>
</g>
<g>
</g>
<g>
</g>
<g>
</g>
<g>
</g>
<g>
</g>
<g>
</g>
<g>
</g>
<g>
</g>
<g>
</g>
<g>
</g>
<g>
</g>
<g>
</g>
<g>
</g>
</svg>
