<?xml version="1.0" encoding="iso-8859-1"?>
<!-- Generator: Adobe Illustrator 21.0.0, SVG Export Plug-In . SVG Version: 6.00 Build 0)  -->
<svg version="1.1" id="Layer_1" xmlns="http://www.w3.org/2000/svg" xmlns:xlink="http://www.w3.org/1999/xlink" x="0px" y="0px"
	 viewBox="0 0 30 30" enable-background="new 0 0 30 30" xml:space="preserve">
<g>
	<path fill="#303C42" d="M0.5,22h1C1.7761424,22,2,21.7761421,2,21.5v-5C2,16.2238579,1.7761424,16,1.5,16h-1
		C0.2238576,16,0,16.2238579,0,16.5v5C0,21.7761421,0.2238576,22,0.5,22z"/>
	<path fill="#303C42" d="M4,23h1c0.2761426,0,0.5-0.2238579,0.5-0.5v-10C5.5,12.2238579,5.2761426,12,5,12H4
		c-0.2761424,0-0.5,0.2238579-0.5,0.5v10C3.5,22.7761421,3.7238576,23,4,23z"/>
	<path fill="#303C42" d="M7.5,23h1C8.7761421,23,9,22.7761421,9,22.5v-9C9,13.2238579,8.7761421,13,8.5,13h-1
		C7.2238574,13,7,13.2238579,7,13.5v9C7,22.7761421,7.2238574,23,7.5,23z"/>
	<path fill="#303C42" d="M11.5,23h1c0.2761421,0,0.5-0.2238579,0.5-0.5v-14C13,8.2238579,12.7761421,8,12.5,8h-1
		C11.2238579,8,11,8.2238579,11,8.5v14C11,22.7761421,11.2238579,23,11.5,23z"/>
	<path fill="#303C42" d="M25.5,14c-0.9003906,0-1.7685547,0.2744141-2.5029297,0.7758789
		c-0.1142578-4.1005859-3.3515625-7.4873047-7.4628906-7.7583008C15.3574219,7.0058594,15.1796875,7,15,7
		c-0.2763672,0-0.5,0.2236328-0.5,0.5v15c0,0.2763672,0.2236328,0.5,0.5,0.5h10.5c2.4814453,0,4.5-2.0185547,4.5-4.5
		S27.9814453,14,25.5,14z"/>
</g>
<g>
</g>
<g>
</g>
<g>
</g>
<g>
</g>
<g>
</g>
<g>
</g>
<g>
</g>
<g>
</g>
<g>
</g>
<g>
</g>
<g>
</g>
<g>
</g>
<g>
</g>
<g>
</g>
<g>
</g>
</svg>
