<?xml version="1.0" encoding="iso-8859-1"?>
<!-- Generator: Adobe Illustrator 21.0.0, SVG Export Plug-In . SVG Version: 6.00 Build 0)  -->
<svg version="1.1" id="Layer_1" xmlns="http://www.w3.org/2000/svg" xmlns:xlink="http://www.w3.org/1999/xlink" x="0px" y="0px"
	 viewBox="0 0 24 24" enable-background="new 0 0 24 24" xml:space="preserve">
<g>
	<path fill="#303C42" d="M12,11.999999c3.3085938,0,6-2.6914063,6-5.9999995s-2.6914063-6-6-6s-6,2.6914063-6,6
		S8.6914063,11.999999,12,11.999999z M12,0.9999993c2.7568359,0,5,2.2431641,5,5s-2.2431641,4.9999995-5,4.9999995
		S7,8.756835,7,5.9999995S9.2431641,0.9999993,12,0.9999993z"/>
	<path fill="#303C42" d="M12,8.999999c1.6542969,0,3-1.3457026,3-2.9999995s-1.3457031-3.0000002-3-3.0000002
		S9,4.3457026,9,5.9999995S10.3457031,8.999999,12,8.999999z M12,3.9999993c1.1025391,0,2,0.8974612,2,2.0000002s-0.8974609,2-2,2
		s-2-0.8974609-2-2S10.8974609,3.9999993,12,3.9999993z"/>
	<path fill="#303C42" d="M18.8017578,15.5205069C19.5517578,15.0234365,20,14.1933584,20,13.2988272
		c0-0.7548828-0.3994141-1.40625-1.0673828-1.7412109c-0.6806641-0.3398438-1.4873047-0.265625-2.1083984,0.1972656
		C15.4208984,12.8027334,13.7529297,13.3574209,12,13.3574209s-3.4208984-0.5546875-4.8242188-1.6025391
		c-0.6201172-0.4628906-1.4277344-0.5371094-2.1083984-0.1972656C4.3994141,11.8925772,4,12.5439444,4,13.2988272
		c0,0.8945313,0.4482422,1.7246094,1.1982422,2.2207031c0.9667969,0.6435556,2.0185547,1.1455088,3.1298828,1.4951181
		c0.2089844,0.0634766,0.4238281,0.1220703,0.6435547,0.1767578l-3.2832031,3.2119141
		c-0.3984375,0.3974609-0.6171875,0.9267578-0.6171875,1.4892578s0.21875,1.0917969,0.6171875,1.4902344
		C6.0986314,23.7929668,6.6381793,24.0006084,7.1787047,24c0.5405293-0.0006104,1.0820355-0.2094727,1.4960999-0.6230469
		L12,19.9335938l3.3310547,3.4492188C15.7421875,23.7939453,16.28125,24,16.8212891,24s1.0791016-0.2060547,1.4902344-0.6171875
		c0.3984375-0.3984375,0.6171875-0.9277344,0.6171875-1.4902344s-0.21875-1.0917969-0.6210938-1.4931641l-3.2792969-3.2080078
		c0.2207031-0.0546875,0.4365234-0.1142578,0.6464844-0.1787109C16.7832031,16.6650391,17.8349609,16.1630859,18.8017578,15.5205069
		z M13.9228516,16.3994141c-0.1845703,0.0322266-0.3369141,0.1650391-0.3925781,0.3447266
		c-0.0556641,0.1787109-0.0068359,0.3740234,0.1279297,0.5058594l3.9462891,3.8603516
		c0.2089844,0.2089844,0.3242188,0.4863281,0.3242188,0.7822266s-0.1152344,0.5742188-0.3242188,0.7832031
		c-0.4335938,0.4326172-1.1367188,0.4306641-1.5605469,0.0058594l-3.6845703-3.8154297
		C12.265625,18.7685547,12.1357422,18.7138672,12,18.7138672s-0.265625,0.0546875-0.359375,0.1523438l-3.6787109,3.8095703
		c-0.4316406,0.4316406-1.1347656,0.4316406-1.5664063,0c-0.2089844-0.2089844-0.3242188-0.4873047-0.3242188-0.7832031
		s0.1152344-0.5732422,0.3203125-0.7783203L10.3417969,17.25c0.1347656-0.1318359,0.1835938-0.3271484,0.1279297-0.5058594
		c-0.0556641-0.1796875-0.2080078-0.3125-0.3925781-0.3447266c-0.5117188-0.0869141-1.0009766-0.2021484-1.453125-0.3398438
		c-1.0175781-0.3203135-1.9833984-0.7822275-2.8730469-1.3730478C5.2802734,14.3759756,5,13.8564444,5,13.2988272
		c0-0.3740234,0.1884766-0.6826172,0.515625-0.8476563c0.3466797-0.171875,0.7421875-0.1337891,1.0625,0.1044922
		C8.1552734,13.734374,10.0302734,14.3574209,12,14.3574209s3.8447266-0.6230469,5.421875-1.8017578
		c0.3203125-0.2392578,0.7177734-0.2763672,1.0625-0.1044922C18.8115234,12.61621,19,12.9248037,19,13.2988272
		c0,0.5576172-0.2802734,1.0771484-0.7509766,1.3886719c-0.8896484,0.5898438-1.8554688,1.0517578-2.8701172,1.3701181
		C14.9238281,16.1972656,14.4345703,16.3125,13.9228516,16.3994141z"/>
</g>
<g>
</g>
<g>
</g>
<g>
</g>
<g>
</g>
<g>
</g>
<g>
</g>
<g>
</g>
<g>
</g>
<g>
</g>
<g>
</g>
<g>
</g>
<g>
</g>
<g>
</g>
<g>
</g>
<g>
</g>
</svg>
