<?xml version="1.0" encoding="iso-8859-1"?>
<!-- Generator: Adobe Illustrator 21.0.0, SVG Export Plug-In . SVG Version: 6.00 Build 0)  -->
<svg version="1.1" id="Layer_1" xmlns="http://www.w3.org/2000/svg" xmlns:xlink="http://www.w3.org/1999/xlink" x="0px" y="0px"
	 viewBox="0 0 30 30" enable-background="new 0 0 30 30" xml:space="preserve">
<path fill="#303C42" d="M24.3863449,0.857966C23.8731613,0.0600625,22.0889816,0,21.5035324,0
	c-3.3652344,0.305684-5.9291983,1.2090631-7.6210928,2.6852334c-3.7661133,3.286835-5.9262695,8.1196699-5.9262695,13.2596531
	c0,0.837945,0.0581055,1.681262,0.1733398,2.5055342c0.0424805,0.3066597-0.1977539,0.4009037-0.2460938,0.4165306
	c-0.1088867,0.0351582-0.2587891,0.0361347-0.3598633-0.1547947c-1.1313477-2.1226978-1.6577148-4.5437536-1.5219727-6.9999676
	c0.0600586-1.0762424,0.2670898-2.1515074,0.6162109-3.1969862c0.1582031-0.4736633-0.0371094-0.9673476-0.4746094-1.2017379
	C5.7261896,7.0917702,5.2335138,7.1977344,4.9444513,7.569829c-1.9306643,2.4894199-3.0292969,6.0165043-2.9394534,9.4361601
	C2.0084159,24.1719837,7.838006,30,15.0025568,30c7.1669912,0,12.9975576-5.8319225,12.9975576-13.0008469
	C28.0001144,8.3438053,25.1031418,1.9713198,24.3863449,0.857966z"/>
<g>
</g>
<g>
</g>
<g>
</g>
<g>
</g>
<g>
</g>
<g>
</g>
<g>
</g>
<g>
</g>
<g>
</g>
<g>
</g>
<g>
</g>
<g>
</g>
<g>
</g>
<g>
</g>
<g>
</g>
</svg>
