<?xml version="1.0" encoding="iso-8859-1"?>
<!-- Generator: Adobe Illustrator 21.0.0, SVG Export Plug-In . SVG Version: 6.00 Build 0)  -->
<svg version="1.1" id="Layer_1" xmlns="http://www.w3.org/2000/svg" xmlns:xlink="http://www.w3.org/1999/xlink" x="0px" y="0px"
	 viewBox="0 0 30 30" enable-background="new 0 0 30 30" xml:space="preserve">
<path fill="#303C42" d="M25.1982422,15.0957031H24.765625c-0.1962891,0-0.3916016,0.0205078-0.5810547,0.0605469
	l-1.1738281,0.2489624L22.15625,11.3777466l1.2421875-0.2634888c1.2871094-0.2734375,2.2207031-1.4257813,2.2207031-2.7412109
	c0-1.5449219-1.2568359-2.8017578-2.8017578-2.8017578h-0.4326172c-0.1953125,0-0.3916016,0.0205078-0.5820313,0.0605469
	l-0.8283691,0.1757813l-0.3366699-1.5869141C20.3642578,2.9335938,19.2119141,2,17.8974609,2
	c-1.5449219,0-2.8017578,1.2568359-2.8017578,2.8017578V5.234375c0,0.1962891,0.0205078,0.3916016,0.0605469,0.5810547
	l0.2489624,1.1738281L11.3777466,7.84375l-0.2634888-1.2421875c-0.2734375-1.2871094-1.4257813-2.2207031-2.7412109-2.2207031
	c-1.5449219,0-2.8017578,1.2568359-2.8017578,2.8017578v0.4326172c0,0.1953125,0.0205078,0.3916016,0.0605469,0.5820313
	l0.1757813,0.8283691L4.2207031,9.3623047C2.9335938,9.6357422,2,10.7880859,2,12.1025391
	c0,1.5449219,1.2568359,2.8017578,2.8017578,2.8017578H5.234375c0.1962891,0,0.3916016-0.0205078,0.5810547-0.0605469
	l1.1738281-0.2489624L7.84375,18.6222534l-1.2421875,0.2634888c-1.2871094,0.2734375-2.2207031,1.4257813-2.2207031,2.7412109
	c0,1.5449219,1.2568359,2.8017578,2.8017578,2.8017578h0.4326172c0.1953125,0,0.3916016-0.0205078,0.5820313-0.0605469
	l0.8283691-0.1757813l0.3366699,1.5869141C9.6357422,27.0664063,10.7880859,28,12.1025391,28
	c1.5449219,0,2.8017578-1.2568359,2.8017578-2.8017578V24.765625c0-0.1962891-0.0205078-0.3916016-0.0605469-0.5810547
	l-0.2489624-1.1738281l4.0274658-0.8544922l0.2634888,1.2421875c0.2734375,1.2871094,1.4257813,2.2207031,2.7412109,2.2207031
	c1.5449219,0,2.8017578-1.2568359,2.8017578-2.8017578v-0.4326172c0-0.1953125-0.0205078-0.3916016-0.0605469-0.5820313
	l-0.1757813-0.8283691l1.5869141-0.3366699C27.0664063,20.3642578,28,19.2119141,28,17.8974609
	C28,16.3525391,26.7431641,15.0957031,25.1982422,15.0957031z M17.440918,16.5866089l-4.0275269,0.8543091l-0.8543091-4.0275269
	l4.0275269-0.8543091L17.440918,16.5866089z"/>
<g>
</g>
<g>
</g>
<g>
</g>
<g>
</g>
<g>
</g>
<g>
</g>
<g>
</g>
<g>
</g>
<g>
</g>
<g>
</g>
<g>
</g>
<g>
</g>
<g>
</g>
<g>
</g>
<g>
</g>
</svg>
