<?xml version="1.0" encoding="iso-8859-1"?>
<!-- Generator: Adobe Illustrator 21.0.0, SVG Export Plug-In . SVG Version: 6.00 Build 0)  -->
<svg version="1.1" id="Layer_1" xmlns="http://www.w3.org/2000/svg" xmlns:xlink="http://www.w3.org/1999/xlink" x="0px" y="0px"
	 viewBox="0 0 30 30" enable-background="new 0 0 30 30" xml:space="preserve">
<g id="XMLID_1504_">
	
		<circle id="XMLID_1496_" fill="none" stroke="#303C42" stroke-linecap="round" stroke-linejoin="round" stroke-miterlimit="10" cx="15" cy="15" r="14.5"/>
	<path fill="none" stroke="#303C42" stroke-linecap="round" stroke-linejoin="round" stroke-miterlimit="10" d="M25.5,14.75
		c0-5.6518555-4.5976563-10.25-10.25-10.25C9.6240234,4.5,4.5,9.7431641,4.5,15.5c0,6.0654297,4.9345703,11,11,11v-2
		c-4.9628906,0-9-4.0375977-9-9c0-4.6259766,4.2519531-9,8.75-9c4.5488281,0,8.25,3.7011719,8.25,8.25
		c0,1.5864868-0.4438477,3.0924683-1.2806396,4.4081421L22,18.5l-2.0205135-4.8492308
		C19.6891327,12.9539194,19.0082531,12.5,18.253334,12.5H18.246666c-0.7549191,0-1.4357986,0.4539194-1.7261524,1.1507692L14.5,18.5
		l-2.5-6H9.5l3.031805,7.7960701C12.8140726,21.0219002,13.5129795,21.5,14.2917643,21.5h0.0000029
		c0.7365561,0,1.4058933-0.4282627,1.7145538-1.0970268L18.5,15l2.2670956,5.8944492
		C20.9074116,21.2592716,21.2579193,21.5,21.6487961,21.5h0.87463c0.2997246,0,0.581665-0.1422367,0.7597771-0.3833008l0,0
		C24.7333984,19.2885742,25.5,17.0874023,25.5,14.75z"/>
</g>
<g>
</g>
<g>
</g>
<g>
</g>
<g>
</g>
<g>
</g>
<g>
</g>
<g>
</g>
<g>
</g>
<g>
</g>
<g>
</g>
<g>
</g>
<g>
</g>
<g>
</g>
<g>
</g>
<g>
</g>
</svg>
