<?xml version="1.0" encoding="iso-8859-1"?>
<!-- Generator: Adobe Illustrator 21.0.0, SVG Export Plug-In . SVG Version: 6.00 Build 0)  -->
<svg version="1.1" id="Layer_1" xmlns="http://www.w3.org/2000/svg" xmlns:xlink="http://www.w3.org/1999/xlink" x="0px" y="0px"
	 viewBox="0 0 30 30" enable-background="new 0 0 30 30" xml:space="preserve">
<path fill="#303C42" d="M26.6347656,6.4755249L24.6142578,5.274353l-0.0006714-0.0002441
	c-0.0303345-0.0180054-0.0670776-0.0244141-0.1013794-0.0358276c-0.0292969-0.0097046-0.0571289-0.0258789-0.0870972-0.0299072
	l-0.0012817-0.0004272c-1.84375-0.2421875-2.8554688,1.1621094-3.6757813,2.2890625l-0.1982422,0.2714844
	c-1.1962891,1.6201172-1.8828125,3.3369141-1.8828125,4.7099609c0,1.4462891,1.4189453,3.7539063,2.4267578,4.9306641
	c0.0585938,0.0683594,0.1357422,0.1201172,0.2207031,0.1484375C21.7246094,17.6952515,22,18.0741577,22,18.499939
	c0,0.5517578-0.4482422,1-1,1s-1-0.4482422-1-1c0-0.2148438,0.0722656-0.4228516,0.2080078-0.6005859
	c0.1171875-0.1542969,0.1357422-0.3613281,0.046875-0.5332031c-0.1923962-0.3730469-1.2080078-2.2353516-2.2783203-2.2353516
	c-0.9335938,0-1.5742188,1.4189453-2.7451172,4.8125c-0.1455078,0.421875-0.2783203,0.8066406-0.3935547,1.1171875
	c-0.0263672,0.0253906-0.0507813,0.0537109-0.0722656,0.0859375c-0.1103516,0.1650391-0.1123047,0.3798828-0.0048828,0.546875
	C14.9169922,21.9384155,15,22.2177124,15,22.499939c0,0.8271484-0.6728516,1.5-1.5,1.5s-1.5-0.6728516-1.5-1.5
	c0-0.6923828,0.4726563-1.2900391,1.1494141-1.453125c0.1503906-0.0361328,0.2753906-0.140625,0.3388672-0.2822266
	c0.8486328-1.8935547,1.9492064-6.0917969,1.9951172-6.2695313c0.0527344-0.2011719-0.0253906-0.4150391-0.1953125-0.5351563
	c-0.171875-0.1201172-0.3984375-0.1201172-0.5703125-0.0039063c-0.0009766,0.0009766-1.9912109,1.3613281-3.5175781,2.3603516
	c-0.1669922,0.1083984-0.2529297,0.3046875-0.2197266,0.5009766C10.9902344,16.8768921,11,16.937439,11,16.999939
	c0,0.5517578-0.4482422,1-1,1s-1-0.4482422-1-1s0.4482422-1,1-1l0.1357422,0.0166016
	c0.078125,0.0107422,0.1582031,0.0019531,0.2314453-0.0244141c1.3935547-0.4912109,3.0224609-2.2871094,3.9960938-3.3603516
	c0.1552734-0.1708984,0.2919922-0.3212891,0.4033203-0.4394531c0,0,0.0009766-0.0009766,0.0009766-0.0019531
	c0.1894531-0.2001953,0.1806641-0.5166016-0.0205078-0.7060547c-0.2011719-0.1914063-0.4754028-0.1305542-0.7060547,0.0205078
	c-0.2783203,0.182251-1.1278076,0.3851318-2.6308594,0.4853516c-0.2124023,0.0141602-0.4013672,0.1357422-0.4716797,0.3359375
	C10.7988281,12.7294312,10.421875,12.999939,10,12.999939c-0.5517578,0-1-0.4482422-1-1
	c0-0.7197266,0.8115234-1.2548828,1.4931641-0.8623047c0.0712891,0.0410156,0.1503906,0.0634766,0.2324219,0.0664063
	c2.5009766,0.0722656,4.8115234-1.1503906,6.4677734-3.4794922C18.9091797,5.3114624,19.5,3.0585327,18.734375,1.8446655
	c-0.0029907-0.0047607-0.0081177-0.0071411-0.0112305-0.0117798c-0.0194092-0.0288086-0.0463867-0.0510254-0.0719604-0.0756226
	c-0.0233154-0.0222778-0.0439453-0.0466309-0.0705566-0.0637207c-0.005188-0.0033569-0.0079346-0.0087891-0.0132446-0.0119629
	l-2.1904297-1.3017578c-0.8505859-0.5068359-1.9052734-0.5058594-2.7539063,0L3.3652344,6.4755249
	C2.5234375,6.9765015,2,7.906189,2,8.9032593v12.1923828c0,0.9970703,0.5234375,1.9277344,1.3652344,2.4287109l10.2578125,6.0957031
	C14.0478516,29.8729858,14.5244141,29.999939,15,29.999939c0.4765625-0.0009766,0.9521484-0.1269531,1.3769531-0.3798828
	l10.2578125-6.0957031C27.4765625,23.0233765,28,22.0927124,28,21.0956421V8.9032593
	C28,7.906189,27.4765625,6.9765015,26.6347656,6.4755249z"/>
<g>
</g>
<g>
</g>
<g>
</g>
<g>
</g>
<g>
</g>
<g>
</g>
<g>
</g>
<g>
</g>
<g>
</g>
<g>
</g>
<g>
</g>
<g>
</g>
<g>
</g>
<g>
</g>
<g>
</g>
</svg>
