<?xml version="1.0" encoding="iso-8859-1"?>
<!-- Generator: Adobe Illustrator 21.0.0, SVG Export Plug-In . SVG Version: 6.00 Build 0)  -->
<svg version="1.1" id="Layer_1" xmlns="http://www.w3.org/2000/svg" xmlns:xlink="http://www.w3.org/1999/xlink" x="0px" y="0px"
	 viewBox="0 0 24 24" enable-background="new 0 0 24 24" xml:space="preserve">
<g>
	<path fill="#303C42" d="M14.9804688,10.0327148C14.7421875,7.2177734,12.375,5,9.5,5
		C7.0244141,5,4.8710938,6.6591797,4.2119141,9.0078125C4.1416016,9.0029297,4.0712891,9,4,9c-2.2060547,0-4,1.7944336-4,4
		s1.7939453,4,4,4h10.5c1.9296875,0,3.5-1.5703125,3.5-3.5C18,11.7329102,16.6835938,10.2675781,14.9804688,10.0327148z M14.5,16H4
		c-1.6542969,0-3-1.3457031-3-3s1.3457031-3,3-3c0.1697998,0,0.3337402,0.0238647,0.4960327,0.0512085
		c0.0265503,0.0059814,0.0448608,0.0100708,0.0764771,0.0172119c0.4713745,0.1068115,1.0743408,0.3356934,1.548584,0.8099976
		c0.0976563,0.0976563,0.2255859,0.1464844,0.3535156,0.1464844s0.2558594-0.0488281,0.3535156-0.1464844
		c0.1953125-0.1953125,0.1953125-0.5117188,0-0.7070313c-0.4568481-0.4571533-1.0217285-0.758667-1.6224976-0.9391479h-0.000061
		C5.7624512,7.3396606,7.4941406,6,9.5,6c2.4677734,0,4.473938,1.9974976,4.4959717,4.460144
		c0.0058594,0.5700073-0.0928955,1.1499634-0.3172607,1.7112427c-0.1025391,0.2563477,0.0214844,0.5473633,0.2783203,0.6499023
		c0.0605469,0.0244141,0.1240234,0.0356445,0.1855469,0.0356445c0.1982422,0,0.3857422-0.1186523,0.4638672-0.3144531
		c0.1962891-0.4908447,0.3120728-0.9935913,0.3619995-1.4951172C16.1235962,11.2676392,17,12.2819824,17,13.5
		C17,14.878418,15.8789063,16,14.5,16z"/>
	<g id="XMLID_1461_">
		<path fill="#303C42" d="M19.6054688,17.1542969c-0.0898438,0-0.1806641-0.0239258-0.2626953-0.074707
			c-0.2353516-0.1450195-0.3076172-0.453125-0.1630859-0.6879883C19.7167969,15.5229492,20,14.5292969,20,13.519043
			c0-1.0209961-0.2880859-2.0229492-0.8339844-2.8969727c-0.1464844-0.2338867-0.0751953-0.5424805,0.1591797-0.6889648
			c0.2324219-0.1445313,0.5419922-0.074707,0.6884766,0.159668C20.6591797,11.1254883,21,12.3105469,21,13.519043
			c0,1.1962891-0.3349609,2.3710938-0.96875,3.3979492C19.9365234,17.0703125,19.7724609,17.1542969,19.6054688,17.1542969z"/>
	</g>
	<g id="XMLID_1459_">
		<path fill="#303C42" d="M22,19c-0.0957031,0-0.1923828-0.0273438-0.2773438-0.0839844
			c-0.2294922-0.1533203-0.2919922-0.4638672-0.1386719-0.6933594C22.5107422,16.8334961,23,15.2006836,23,13.5
			s-0.4892578-3.3334961-1.4160156-4.7226563c-0.1533203-0.2294922-0.0908203-0.5400391,0.1386719-0.6933594
			c0.2265625-0.152832,0.5390625-0.0922852,0.6933594,0.1386719C23.4521484,9.7763672,24,11.6015625,24,13.5
			s-0.5478516,3.7236328-1.5839844,5.2773438C22.3193359,18.921875,22.1611328,19,22,19z"/>
	</g>
</g>
</svg>
