<?xml version="1.0" encoding="iso-8859-1"?>
<!-- Generator: Adobe Illustrator 21.0.0, SVG Export Plug-In . SVG Version: 6.00 Build 0)  -->
<svg version="1.1" id="Layer_1" xmlns="http://www.w3.org/2000/svg" xmlns:xlink="http://www.w3.org/1999/xlink" x="0px" y="0px"
	 viewBox="0 0 30 30" enable-background="new 0 0 30 30" xml:space="preserve">
<path fill="#303C42" d="M24.4565659,2c-4.5839844,0-8.456543,3.4345703-8.456543,7.5c0,0.2763672,0.2236328,0.5,0.5,0.5h1.8911133
	c1.3188477,0,1.5600586,0.6289063,1.6225586,1.1772461C20.279808,13.5004883,17.2422104,17.8242188,16.5000229,18
	c-0.9897461,0-1.7519531-3.9501953-2.3085938-6.8344727C13.2817612,6.4521484,12.4223862,2,9.9565659,2
	C8.2402573,2,4.6279526,4.2368164,0.094261,10.5415039c-0.0869141,0.1206055-0.1157227,0.2734375-0.078125,0.4169922
	c0.0371094,0.144043,0.1362305,0.2636719,0.2705078,0.3271484l2.5219727,1.1904297
	c0.1943359,0.0913086,0.4238281,0.0498047,0.5727539-0.1044922l1.7519534-1.8120117C5.7265854,14.46875,8.1821518,28,13.7392807,28
	c6.3789063,0,16.2607422-12.9868164,16.2607422-19.5478516C30.0000229,4.8945313,27.5132065,2,24.4565659,2z"/>
<g>
</g>
<g>
</g>
<g>
</g>
<g>
</g>
<g>
</g>
<g>
</g>
<g>
</g>
<g>
</g>
<g>
</g>
<g>
</g>
<g>
</g>
<g>
</g>
<g>
</g>
<g>
</g>
<g>
</g>
</svg>
