<?xml version="1.0" encoding="iso-8859-1"?>
<!-- Generator: Adobe Illustrator 21.0.0, SVG Export Plug-In . SVG Version: 6.00 Build 0)  -->
<svg version="1.1" id="Layer_1" xmlns="http://www.w3.org/2000/svg" xmlns:xlink="http://www.w3.org/1999/xlink" x="0px" y="0px"
	 viewBox="0 0 24 24" enable-background="new 0 0 24 24" xml:space="preserve">
<path fill="#303C42" d="M20.5664063,12H20.203125c-0.1689453,0-0.3388672,0.0175781-0.5048828,0.0527344l-0.9076538,0.1925049
	L18.1063232,9.019165l0.9649658-0.2047119C20.1884766,8.5776367,21,7.5761719,21,6.4335938C21,5.0917969,19.9082031,4,18.5664063,4
	H18.203125c-0.1689453,0-0.3388672,0.0175781-0.5048828,0.0527344l-0.6175537,0.1309814l-0.2662354-1.2550049
	C16.5771484,1.8110352,15.5761719,1,14.4335938,1C13.0917969,1,12,2.0917969,12,3.4335938v0.3637695
	c0,0.1713867,0.0175781,0.3417969,0.0527344,0.5043945l0.1925049,0.9076538L9.019165,5.8936768L8.8144531,4.9287109
	C8.5771484,3.8110352,7.5761719,3,6.4335938,3C5.0917969,3,4,4.0917969,4,5.4335938v0.3637695
	C4,5.96875,4.0175781,6.1391602,4.0527344,6.3017578l0.1309814,0.6175537L2.9287109,7.1855469
	C1.8115234,7.4223633,1,8.4238281,1,9.5664063C1,10.9082031,2.0917969,12,3.4335938,12H3.796875
	c0.1689453,0,0.3388672-0.0175781,0.5048828-0.0527344l0.9076538-0.1925049l0.6842651,3.2260742l-0.9649658,0.2047119
	C3.8115234,15.4223633,3,16.4238281,3,17.5664063C3,18.9082031,4.0917969,20,5.4335938,20H5.796875
	c0.1689453,0,0.3388672-0.0175781,0.5048828-0.0527344l0.6175537-0.1309814l0.2662354,1.2550049
	C7.4228516,22.1889648,8.4238281,23,9.5664063,23C10.9082031,23,12,21.9082031,12,20.5664063v-0.3637695
	c0-0.1713867-0.0175781-0.3417969-0.0527344-0.5043945l-0.1925049-0.9076538l3.2260742-0.6842651l0.2047119,0.9649658
	C15.4228516,20.1889648,16.4238281,21,17.5664063,21C18.9082031,21,20,19.9082031,20,18.5664063v-0.3637695
	c0-0.1713867-0.0175781-0.3417969-0.0527344-0.5043945l-0.1309814-0.6175537l1.2550049-0.2662354
	C22.1884766,16.5776367,23,15.5761719,23,14.4335938C23,13.0917969,21.9082031,12,20.5664063,12z M17.8120117,12.4528198
	l-2.8782959,0.6105347l-0.6842041-3.2261353l2.8782959-0.6105347L17.8120117,12.4528198z M18.0195313,13.4312134
	l0.6105347,2.8786011L15.75177,16.9203491l-0.6105347-2.8786011L18.0195313,13.4312134z M13.9552002,13.2709351
	l-3.2261353,0.6842651l-0.6842651-3.2261353l3.2261353-0.6842651L13.9552002,13.2709351z M14.0419922,8.8588257
	l-0.6105347-2.8786011l2.8782959-0.6105347l0.6105347,2.8786011L14.0419922,8.8588257z M17.9052734,5.03125
	C18.0029297,5.0107422,18.1035156,5,18.203125,5h0.3632813C19.3564453,5,20,5.6430664,20,6.4335938
	c0,0.6733398-0.4775391,1.2626953-1.1357422,1.4023438l-0.9654541,0.2047729l-0.6105957-2.87854L17.9052734,5.03125z
	 M13.03125,4.0932617C13.0107422,3.9980469,13,3.8984375,13,3.7973633V3.4335938C13,2.6430664,13.6435547,2,14.4335938,2
	c0.6728516,0,1.2626953,0.4775391,1.4023438,1.1357422l0.2662964,1.2555542L13.223938,5.00177L13.03125,4.0932617z
	 M12.4527588,6.1878052l0.6105957,2.8786011L9.8372803,9.7506714L9.2266846,6.8720703L12.4527588,6.1878052z M8.8587646,9.958252
	l-2.8782959,0.6105347L5.3699341,7.6901855L8.24823,7.0796509L8.8587646,9.958252z M5.03125,6.0932617
	C5.0107422,5.9980469,5,5.8984375,5,5.7973633V5.4335938C5,4.6430664,5.6435547,4,6.4335938,4
	c0.6728516,0,1.2626953,0.4775391,1.4023438,1.1357422l0.2047729,0.9654541L5.1624146,6.711731L5.03125,6.0932617z
	 M4.0947266,10.96875C3.9970703,10.9892578,3.8964844,11,3.796875,11H3.4335938C2.6435547,11,2,10.3569336,2,9.5664063
	c0-0.6733398,0.4775391-1.2626953,1.1357422-1.4023438l1.2554932-0.2662964l0.6105957,2.8786011L4.0947266,10.96875z
	 M6.1879883,11.5471802l2.8782959-0.6105347l0.6842041,3.2261353l-2.8782959,0.6105347L6.1879883,11.5471802z M9.9580078,15.1411743
	l0.6105347,2.8786011l-2.8782959,0.6105347L7.0797119,15.751709L9.9580078,15.1411743z M6.0947266,18.96875
	C5.9970703,18.9892578,5.8964844,19,5.796875,19H5.4335938C4.6435547,19,4,18.3569336,4,17.5664063
	c0-0.6733398,0.4775391-1.2626953,1.1357422-1.4023438l0.9654541-0.2047729l0.6105957,2.87854L6.0947266,18.96875z
	 M10.96875,19.9067383C10.9892578,20.0019531,11,20.1015625,11,20.2026367v0.3637695C11,21.3569336,10.3564453,22,9.5664063,22
	c-0.6728516,0-1.2626953-0.4775391-1.4023438-1.1357422l-0.2662964-1.2555542L10.776062,18.99823L10.96875,19.9067383z
	 M11.5472412,17.8121948l-0.6105957-2.8786011l3.2260742-0.6842651l0.6105957,2.8786011L11.5472412,17.8121948z
	 M18.96875,17.9067383C18.9892578,18.0019531,19,18.1015625,19,18.2026367v0.3637695C19,19.3569336,18.3564453,20,17.5664063,20
	c-0.6728516,0-1.2626953-0.4775391-1.4023438-1.1357422l-0.2047729-0.9654541l2.8782959-0.6105347L18.96875,17.9067383z
	 M20.8642578,15.8359375l-1.2554932,0.2662964l-0.6105957-2.8786011l0.9071045-0.1923828
	C20.0029297,13.0107422,20.1035156,13,20.203125,13h0.3632813C21.3564453,13,22,13.6430664,22,14.4335938
	C22,15.1069336,21.5224609,15.6962891,20.8642578,15.8359375z"/>
<g>
</g>
<g>
</g>
<g>
</g>
<g>
</g>
<g>
</g>
<g>
</g>
<g>
</g>
<g>
</g>
<g>
</g>
<g>
</g>
<g>
</g>
<g>
</g>
<g>
</g>
<g>
</g>
<g>
</g>
</svg>
