<?xml version="1.0" encoding="iso-8859-1"?>
<!-- Generator: Adobe Illustrator 21.0.0, SVG Export Plug-In . SVG Version: 6.00 Build 0)  -->
<svg version="1.1" id="Layer_1" xmlns="http://www.w3.org/2000/svg" xmlns:xlink="http://www.w3.org/1999/xlink" x="0px" y="0px"
	 viewBox="0 0 24 24" enable-background="new 0 0 24 24" xml:space="preserve">
<g id="XMLID_1470_">
	
		<polygon id="XMLID_1471_" fill="none" stroke="#303C42" stroke-width="0.9999822" stroke-linecap="round" stroke-linejoin="round" stroke-miterlimit="10" points="
		14,3.4999645 10,3.4999645 12,6.4998574 	"/>
	
		<path id="XMLID_1482_" fill="none" stroke="#303C42" stroke-width="0.9999822" stroke-linecap="round" stroke-linejoin="round" stroke-miterlimit="10" d="
		M5.5,21.4993229l-2.2612305-0.2358913C4.1686401,21.5247746,5.5,21.4993229,5.5,21.4993229z"/>
	
		<path id="XMLID_1483_" fill="none" stroke="#303C42" stroke-width="0.9999822" stroke-linecap="round" stroke-linejoin="round" stroke-miterlimit="10" d="
		M20.7612305,21.2634315L18.5,21.4993229C18.5,21.4993229,19.8313599,21.5247746,20.7612305,21.2634315z"/>
	
		<path id="XMLID_1484_" fill="none" stroke="#303C42" stroke-width="0.9999822" stroke-linecap="round" stroke-linejoin="round" stroke-miterlimit="10" d="
		M7.3768311,15.7977448C3.3303223,16.3395958,0.5,17.5675793,0.5,18.9994125c0,0.8639832,1.0337524,1.6535053,2.7387695,2.264019
		C2.1421509,20.8290596,1.5,20.3090591,1.5,19.7493858c0-1.019556,2.1264038-1.9058762,5.2747803-2.3801651
		C6.5888062,18.0460167,6.4855347,18.7512531,6.5,19.4993954h3c0-1.1452847,0.4881592-2.2925205,1.2536011-3.446106
		c-0.6137085-0.7522316-1.3289795-1.5268621-2.0803223-2.3046665C8.1698608,14.4118071,7.7290039,15.0907383,7.3768311,15.7977448z"
		/>
	
		<path id="XMLID_1485_" fill="none" stroke="#303C42" stroke-width="0.9999822" stroke-linecap="round" stroke-linejoin="round" stroke-miterlimit="10" d="
		M16.616272,15.7967682c-0.6264648-1.2640543-1.5292358-2.4407701-2.5730591-3.5966129
		C17.0722046,9.0775242,20.5,5.8732929,20.5,2.5l-2.9992676,0.4999821
		c-1.2872925,2.7492306-3.4372559,4.9526434-5.4990845,7.0588312C9.93927,7.9523816,7.7865601,5.7492127,6.4992676,2.9999821
		L3.5,2.5c0,6.0414104,11,11.5412149,11,16.9993954h3c0.0144653-0.7483253-0.0906982-1.4528904-0.2751465-2.1302357
		C20.3734741,17.8433876,22.5,18.7297688,22.5,19.7493858c0,0.5596733-0.6421509,1.0796738-1.7387695,1.5140457
		C22.4662476,20.6529179,23.5,19.8633957,23.5,18.9994125C23.5,17.5667858,20.6665039,16.338192,16.616272,15.7967682z"/>
</g>
<g>
</g>
<g>
</g>
<g>
</g>
<g>
</g>
<g>
</g>
<g>
</g>
<g>
</g>
<g>
</g>
<g>
</g>
<g>
</g>
<g>
</g>
<g>
</g>
<g>
</g>
<g>
</g>
<g>
</g>
</svg>
