<?xml version="1.0" encoding="iso-8859-1"?>
<!-- Generator: Adobe Illustrator 21.0.0, SVG Export Plug-In . SVG Version: 6.00 Build 0)  -->
<svg version="1.1" id="Layer_1" xmlns="http://www.w3.org/2000/svg" xmlns:xlink="http://www.w3.org/1999/xlink" x="0px" y="0px"
	 viewBox="0 0 30 30" enable-background="new 0 0 30 30" xml:space="preserve">
<g id="XMLID_1256_">
	<path id="XMLID_1262_" fill="none" stroke="#303C42" stroke-linecap="round" stroke-linejoin="round" stroke-miterlimit="10" d="
		M15,0.5C6.9918928,0.5,0.5,6.991816,0.5,15c0,2.6197052,0.7048526,5.0704899,1.9200864,7.1914349l-0.0182388-0.0094643
		C3.09375,23.25,0.5,25.5,0.5,25.5s2.3718274,2.1516628,4.7030187,0.1675224C7.7846308,28.0397339,11.2176218,29.5,15,29.5
		c8.0081062,0,14.5-6.4918938,14.5-14.5C29.5,6.991816,23.0081062,0.5,15,0.5z"/>
	
		<line id="XMLID_1261_" fill="none" stroke="#303C42" stroke-linecap="round" stroke-linejoin="round" stroke-miterlimit="10" x1="7.5" y1="18.5" x2="7.5" y2="13.5"/>
	<path id="XMLID_1260_" fill="none" stroke="#303C42" stroke-linecap="round" stroke-linejoin="round" stroke-miterlimit="10" d="
		M13.5,18.5v-3.0000019C13.5,14.3954296,14.3954296,13.5,15.4999981,13.5h0.0000038
		C16.6045704,13.5,17.5,14.3954296,17.5,15.4999981V18.5"/>
	<path id="XMLID_1259_" fill="none" stroke="#303C42" stroke-linecap="round" stroke-linejoin="round" stroke-miterlimit="10" d="
		M21.5000019,18.5h-0.0000038C20.3954296,18.5,19.5,17.6045704,19.5,16.5000019v-1.0000038
		C19.5,14.3954296,20.3954296,13.5,21.4999981,13.5h0.0000038C22.6045704,13.5,23.5,14.3954296,23.5,15.4999981v1.0000038
		C23.5,17.6045704,22.6045704,18.5,21.5000019,18.5z"/>
	<path id="XMLID_1258_" fill="none" stroke="#303C42" stroke-linecap="round" stroke-linejoin="round" stroke-miterlimit="10" d="
		M9.5,13.5v5v-3.0000019C9.5,14.3954296,10.3954296,13.5,11.4999981,13.5h0.0000038
		C12.6045704,13.5,13.5,14.3954296,13.5,15.4999981V18.5"/>
	<circle id="XMLID_1257_" fill="#303C42" cx="7.5" cy="11.5" r="0.5"/>
</g>
<g>
</g>
<g>
</g>
<g>
</g>
<g>
</g>
<g>
</g>
<g>
</g>
<g>
</g>
<g>
</g>
<g>
</g>
<g>
</g>
<g>
</g>
<g>
</g>
<g>
</g>
<g>
</g>
<g>
</g>
</svg>
