<?xml version="1.0" encoding="iso-8859-1"?>
<!-- Generator: Adobe Illustrator 21.0.0, SVG Export Plug-In . SVG Version: 6.00 Build 0)  -->
<svg version="1.1" id="Layer_1" xmlns="http://www.w3.org/2000/svg" xmlns:xlink="http://www.w3.org/1999/xlink" x="0px" y="0px"
	 viewBox="0 0 24 24" enable-background="new 0 0 24 24" xml:space="preserve">
<g>
	<path fill="#303C42" d="M8,11.9998436c-1.1401367,0-2,1.5048828-2,3.5s0.8598633,3.5,2,3.5s2-1.5048828,2-3.5
		S9.1401367,11.9998436,8,11.9998436z M8,17.9998436c-0.4077148,0-1-0.9741211-1-2.5s0.5922852-2.5,1-2.5s1,0.9741211,1,2.5
		S8.4077148,17.9998436,8,17.9998436z"/>
	<path fill="#303C42" d="M14.3178711,10.1028709c-0.7363281,0.0576172-1.4975586,0.1171875-2.2822266,0.1171875h-0.0708008
		c-0.784668,0-1.5458984-0.0595703-2.2822266-0.1171875c-2.0185547-0.1567383-3.9248047-0.3056641-5.2197266,1.0058594
		C3.4921875,12.0950584,3,13.3245506,3,14.7620506c0,5.7563477,4.4287109,6.237793,9.0356445,6.237793
		C16.5712891,20.9998436,21,20.5183983,21,14.7620506c0-1.4375-0.4921875-2.6669922-1.4633789-3.6538086
		C18.2431641,9.7972069,16.3364258,9.9451561,14.3178711,10.1028709z M11.9643555,19.9998436
		C6.7993164,19.9998436,4,19.1653709,4,14.7620506c0-1.1660156,0.3955078-2.1591797,1.175293-2.9516602
		c0.6313477-0.6401367,1.5009766-0.8115234,2.5664063-0.8115234c0.5673828,0,1.190918,0.0488281,1.862793,0.1010742
		c0.7553711,0.0595703,1.5336914,0.1152344,2.375,0.1186523c0.8754883,0.019043,1.6547852-0.0595703,2.4165039-0.1186523
		c1.9350586-0.1489258,3.4614258-0.2695313,4.4282227,0.7099609C19.6044922,12.6028709,20,13.596035,20,14.7620506
		C20,19.1653709,17.2006836,19.9998436,11.9643555,19.9998436z"/>
	<path fill="#303C42" d="M16,11.9998436c-1.1401367,0-2,1.5048828-2,3.5s0.8598633,3.5,2,3.5s2-1.5048828,2-3.5
		S17.1401367,11.9998436,16,11.9998436z M16,17.9998436c-0.4077148,0-1-0.9741211-1-2.5s0.5922852-2.5,1-2.5s1,0.9741211,1,2.5
		S16.4077148,17.9998436,16,17.9998436z"/>
	<path fill="#303C42" d="M22.1713867,7.3255272c0.1484375-0.987793,0.0483398-3.527832-0.8637695-5.9990234
		c-0.0800781-0.2163086-0.2988281-0.3486329-0.527832-0.3232422c-0.0961914,0.0112305-2.3491211,0.3017578-5.7329102,2.7514648
		C14.3105469,3.5784569,13.2211914,3.4788475,12,3.4788475S9.6899414,3.5784569,8.953125,3.7547264
		C5.5683594,1.3045312,3.3154297,1.0144922,3.2192383,1.0032617c-0.2265625-0.0239258-0.4477539,0.1074219-0.527832,0.3232422
		C1.7792969,3.7976952,1.6796875,6.3377342,1.828125,7.3255272C0.5986328,8.846035,0,10.5965233,0,12.6692772
		c0,6.6606445,3.4921875,10.3286133,9.8334961,10.3286133l2.1669922,0.0019531l2.1655273-0.0019531
		C20.5073242,22.9978905,24,19.3299217,24,12.6692772C24,10.5965233,23.4013672,8.8455467,22.1713867,7.3255272z
		 M14.1660156,21.9978905l-2.1655273,0.0019531l-2.1669922-0.0019531C5.8037109,21.9978905,1,20.3792381,1,12.6692772
		c0-1.9384766,0.5551758-3.4907227,1.7475586-4.8857422c0.1157227-0.1347656,0.1469727-0.3320313,0.0883789-0.5
		C2.7197266,6.9495506,2.675293,4.5408592,3.4882813,2.0779686C4.253418,2.271328,6.0966797,2.8860741,8.5532227,4.7015038
		c0.1274414,0.0927734,0.2895508,0.1225586,0.4399414,0.0766602C9.6225586,4.5906639,10.746582,4.4788475,12,4.4788475
		c1.2539063,0,2.3779297,0.1118164,3.0063477,0.2993164c0.1494141,0.0449219,0.3125,0.0161133,0.4404297-0.0771484
		c2.4555664-1.8149414,4.2988281-2.4296875,5.0639648-2.6230469c0.8134766,2.4633789,0.769043,4.871582,0.6533203,5.2045898
		c-0.0644531,0.1708984-0.0307617,0.362793,0.0878906,0.5014648C22.4443359,9.1785545,23,10.7308006,23,12.6692772
		C23,20.3792381,18.1958008,21.9978905,14.1660156,21.9978905z"/>
</g>
<g>
</g>
<g>
</g>
<g>
</g>
<g>
</g>
<g>
</g>
<g>
</g>
<g>
</g>
<g>
</g>
<g>
</g>
<g>
</g>
<g>
</g>
<g>
</g>
<g>
</g>
<g>
</g>
<g>
</g>
</svg>
