<?xml version="1.0" encoding="iso-8859-1"?>
<!-- Generator: Adobe Illustrator 21.0.0, SVG Export Plug-In . SVG Version: 6.00 Build 0)  -->
<svg version="1.1" id="Layer_1" xmlns="http://www.w3.org/2000/svg" xmlns:xlink="http://www.w3.org/1999/xlink" x="0px" y="0px"
	 viewBox="0 0 30 30" enable-background="new 0 0 30 30" xml:space="preserve">
<g>
	<circle fill="#303C42" cx="6.0000634" cy="20" r="1"/>
	<path fill="#303C42" d="M29.7754536,13.5830078c-0.0771484-0.0507813-1.712904-1.1171875-3.3476563-0.7578125
		c-0.3681641-1.7578125-2.0302734-3.1455078-2.109375-3.2109375c-0.2011719-0.1650391-0.4951172-0.1503906-0.6767578,0.0371094
		c-0.0507813,0.0517578-1.2275391,1.2998047-0.9199219,4.0214844c0.0244141,0.2167969-0.0419922,0.4316406-0.1835938,0.5888672
		C22.4014301,14.4160156,22.2100239,14.5,22.0000629,14.5h-1.5v-3c0-0.2763672-0.2236328-0.5-0.5-0.5h-2V4.5
		c0-0.2763672-0.2236328-0.5-0.5-0.5h-3.5c-0.2763672,0-0.5,0.2236328-0.5,0.5v3H7.0000634c-0.2763672,0-0.5,0.2236328-0.5,0.5v3
		h-0.5H2.5000632c-0.2763672,0-0.5,0.2236328-0.5,0.5v3h-1.5c-0.2763672,0-0.5,0.2236328-0.5,0.5
		c0,8.1103516,5.1425781,11,9.9560547,11c7.7841797,0,13.1865234-4.6523438,15.5214844-8.7324219
		c3.1269531-0.4794922,4.4130859-2.9335938,4.4677734-3.0400391C30.0606098,14.0009766,29.9883442,13.7236328,29.7754536,13.5830078
		z M19.5000629,14.5h-2.5V12h2.5V14.5z M13.5000629,14.5V12h2.5v2.5H13.5000629z M10.0000629,14.5V12h2.5v2.5H10.0000629z
		 M6.5000634,14.5V12h2.4999995v2.5H6.5000634z M14.5000629,11V8.5h2.5V11H14.5000629z M14.5000629,5h2.5v2.5h-2.5V5z
		 M13.5000629,11h-2.5V8.5h2.5V11z M7.5000634,8.5h2.4999995V11H7.5000634V8.5z M3.0000632,12h2.5000002v2.5H3.0000632V12z
		 M25.1065083,16.3085938c-0.1621094,0.0185547-0.3037109,0.1142578-0.3818359,0.2568359
		C22.5928364,20.4560547,17.4453754,25,9.9561176,25c-2.0624995,0-8.7070313-0.6943359-8.9492188-9.5h20.9931641
		c0.4990234,0,0.9550781-0.203125,1.2841797-0.5712891c0.3310547-0.3710938,0.4882813-0.8691406,0.4316406-1.3691406
		c-0.1601563-1.4101563,0.1308594-2.3115234,0.3720703-2.7900391C24.6240864,11.3203125,25.5000629,12.390625,25.5000629,13.5
		c0,0.1728516,0.0888672,0.3330078,0.2353516,0.4238281c0.1474609,0.0917969,0.3310547,0.1015625,0.484375,0.0253906
		c0.8984375-0.4414063,1.9804688-0.0517578,2.5712891,0.2314453C28.3096333,14.8359375,27.1465473,16.0742188,25.1065083,16.3085938
		z"/>
</g>
<g>
</g>
<g>
</g>
<g>
</g>
<g>
</g>
<g>
</g>
<g>
</g>
<g>
</g>
<g>
</g>
<g>
</g>
<g>
</g>
<g>
</g>
<g>
</g>
<g>
</g>
<g>
</g>
<g>
</g>
</svg>
