<?xml version="1.0" encoding="iso-8859-1"?>
<!-- Generator: Adobe Illustrator 21.0.0, SVG Export Plug-In . SVG Version: 6.00 Build 0)  -->
<svg version="1.1" id="Layer_1" xmlns="http://www.w3.org/2000/svg" xmlns:xlink="http://www.w3.org/1999/xlink" x="0px" y="0px"
	 viewBox="0 0 24 24" enable-background="new 0 0 24 24" xml:space="preserve">
<g id="XMLID_2669_">
	<path id="XMLID_2683_" fill="none" stroke="#303C42" stroke-linecap="round" stroke-linejoin="round" stroke-miterlimit="10" d="
		M18,0.5H6.5V10c1.2245536-2.0343113,3.9525595-3.5,6.5-3.5c3.8659935,0,7,3.1340065,7,7s-3.1340065,7-7,7
		c-3.1656599,0-5.6347728-2.1160469-6.5-5"/>
	<path id="XMLID_2677_" fill="none" stroke="#303C42" stroke-linecap="round" stroke-linejoin="round" stroke-miterlimit="10" d="
		M20.5,20c-1.8339977,2.1368637-4.4631748,3.5-7.5,3.5c-5.0104737,0-8.7731419-3.1923447-9.5-8"/>
	<path id="XMLID_2676_" fill="none" stroke="#303C42" stroke-linecap="round" stroke-linejoin="round" stroke-miterlimit="10" d="
		M9.5150528,4.1239967C10.6001978,3.7205007,11.7743483,3.5,13,3.5c3.0364876,0,5.6660099,1.3635468,7.5,3.5"/>
	
		<line id="XMLID_2680_" fill="none" stroke="#303C42" stroke-linecap="round" stroke-linejoin="round" stroke-miterlimit="10" x1="14.5" y1="12" x2="11.5" y2="15"/>
	
		<line id="XMLID_2681_" fill="none" stroke="#303C42" stroke-linecap="round" stroke-linejoin="round" stroke-miterlimit="10" x1="11.5" y1="12" x2="14.5" y2="15"/>
	<path id="XMLID_2682_" fill="none" stroke="#303C42" stroke-linecap="round" stroke-linejoin="round" stroke-miterlimit="10" d="
		M9,19.1098518V13.5c0-2.2091389,1.7908611-4,4-4s4,1.7908611,4,4s-1.7908611,4-4,4
		c-0.5307112,0-1.037282-0.1033554-1.5006838-0.2910347"/>
</g>
<g>
</g>
<g>
</g>
<g>
</g>
<g>
</g>
<g>
</g>
<g>
</g>
<g>
</g>
<g>
</g>
<g>
</g>
<g>
</g>
<g>
</g>
<g>
</g>
<g>
</g>
<g>
</g>
<g>
</g>
</svg>
