<?xml version="1.0" encoding="iso-8859-1"?>
<!-- Generator: Adobe Illustrator 21.0.0, SVG Export Plug-In . SVG Version: 6.00 Build 0)  -->
<svg version="1.1" id="Layer_1" xmlns="http://www.w3.org/2000/svg" xmlns:xlink="http://www.w3.org/1999/xlink" x="0px" y="0px"
	 viewBox="0 0 30 30" enable-background="new 0 0 30 30" xml:space="preserve">
<g id="XMLID_1328_">
	
		<circle id="XMLID_2721_" fill="none" stroke="#303C42" stroke-linecap="round" stroke-linejoin="round" stroke-miterlimit="10" cx="15" cy="15" r="14.5"/>
	<path fill="none" stroke="#303C42" stroke-linecap="round" stroke-linejoin="round" stroke-miterlimit="10" d="M10,21.5
		c-3.5839844,0-6.5-2.9160156-6.5-6.5S6.4160156,8.5,10,8.5c1.6469727,0,3.2182617,0.6171875,4.4243164,1.7382813
		l-1.3613281,1.4648438C12.2280273,10.9272461,11.1401367,10.5,10,10.5c-2.4814453,0-4.5,2.0185547-4.5,4.5s2.0185547,4.5,4.5,4.5
		c2.1376953,0,3.9321289-1.4985352,4.3881836-3.5H10v-2h6.5v1C16.5,18.5839844,13.5839844,21.5,10,21.5z"/>
	<polygon fill="none" stroke="#303C42" stroke-linecap="round" stroke-linejoin="round" stroke-miterlimit="10" points="23.5,14 
		23.5,11 21.5,11 21.5,14 18.5,14 18.5,16 21.5,16 21.5,19 23.5,19 23.5,16 26.5,16 26.5,14 	"/>
</g>
<g>
</g>
<g>
</g>
<g>
</g>
<g>
</g>
<g>
</g>
<g>
</g>
<g>
</g>
<g>
</g>
<g>
</g>
<g>
</g>
<g>
</g>
<g>
</g>
<g>
</g>
<g>
</g>
<g>
</g>
</svg>
