<?xml version="1.0" encoding="iso-8859-1"?>
<!-- Generator: Adobe Illustrator 21.0.0, SVG Export Plug-In . SVG Version: 6.00 Build 0)  -->
<svg version="1.1" id="Layer_1" xmlns="http://www.w3.org/2000/svg" xmlns:xlink="http://www.w3.org/1999/xlink" x="0px" y="0px"
	 viewBox="0 0 30 30" enable-background="new 0 0 30 30" xml:space="preserve">
<g>
	<path fill="#303C42" d="M20.7207031,16.5048828c-0.0009766,0-1.4482422-0.7109375-2.355957-1.1767578
		c-0.9985352-0.5175781-2.199707,0.5078125-2.734375,1.0478516c-0.5024414-0.1904297-1.5810547-0.6699219-2.4584961-1.5478516
		c-0.8774414-0.8769531-1.3574219-1.9550781-1.5483398-2.4580078c0.5400391-0.5351563,1.5620117-1.7363281,1.0483398-2.7353516
		c-0.4663086-0.9072266-1.1772461-2.3544922-1.1777344-2.3554688C11.4101563,7.1083984,11.2358398,7,11.0454102,7H9.8637695
		C8.574707,7,7,8.59375,7,10.4541016c0,1.8349609,2.2050781,5.3671875,3.6918945,6.8535156
		C12.1787109,18.7949219,15.7114258,21,17.5454102,21C19.4057617,21,21,19.4257813,21,18.1367188v-1.1826172
		C21,16.7636719,20.8916016,16.5898438,20.7207031,16.5048828z M20,18.1367188C20,18.8554688,18.8764648,20,17.5454102,20
		c-1.4150391,0-4.6621094-1.9150391-6.1464844-3.3994141C9.9150391,15.1171875,8,11.8701172,8,10.4541016
		C8,9.1230469,9.1450195,8,9.8637695,8h0.8706055c0.230957,0.4677734,0.7055664,1.4248047,1.0478516,2.0917969
		c0.1860352,0.3613281-0.5131836,1.2705078-1.0678711,1.7607422c-0.1445313,0.1279297-0.203125,0.328125-0.1494141,0.5136719
		c0.0209961,0.0732422,0.5317383,1.8017578,1.8999023,3.1689453c1.3676758,1.3681641,3.0966797,1.8779297,3.1694336,1.8994141
		c0.1875,0.0517578,0.3862305-0.0058594,0.5136719-0.1494141c0.4902344-0.5537109,1.3969727-1.2529297,1.7597656-1.0683594
		C18.5751953,16.5595703,19.5317383,17.0341797,20,17.2646484V18.1367188z"/>
	<path fill="#303C42" d="M15,2C8.5717773,2,2,3.3662109,2,13.5c0,5.4648438,1.8544922,8.5732422,6,10.0244141v2.7470703
		C8,27.2246094,8.7753906,28,9.7285156,28c0.4980469,0,0.972168-0.2148438,1.2661133-0.5556641l2.6333008-2.46875
		C14.0874023,24.9912109,14.5229492,25,15,25c6.578125,0,13-0.8496094,13-11C28,3.2441406,20.5805664,2,15,2z M15,24
		c-0.5356445,0-1.0180664-0.0117188-1.5439453-0.03125c-0.1508789,0-0.2631836,0.0439453-0.3603516,0.1357422l-2.8188477,2.6464844
		C10.1381836,26.9091797,9.9379883,27,9.7285156,27C9.3266602,27,9,26.6728516,9,26.2714844v-3.1074219
		c0-0.2177734-0.1411133-0.4101563-0.3481445-0.4765625C5.8569336,21.7978516,3,20.0107422,3,13.5C3,4.7851563,7.7973633,3,15,3
		c5.5869141,0,12,1.25,12,11C27,23.2353516,21.3237305,24,15,24z"/>
	<path fill="#303C42" d="M16,6c-0.2763672,0-0.5,0.2236328-0.5,0.5S15.7236328,7,16,7c3.3085938,0,6,2.6914063,6,6
		c0,0.2763672,0.2236328,0.5,0.5,0.5S23,13.2763672,23,13C23,9.140625,19.8598633,6,16,6z"/>
	<path fill="#303C42" d="M16,8c-0.2763672,0-0.5,0.2236328-0.5,0.5S15.7236328,9,16,9c2.2055664,0,4,1.7939453,4,4
		c0,0.2763672,0.2236328,0.5,0.5,0.5S21,13.2763672,21,13C21,10.2431641,18.7568359,8,16,8z"/>
	<path fill="#303C42" d="M16,11c1.1030273,0,2,0.8974609,2,2c0,0.2763672,0.2236328,0.5,0.5,0.5S19,13.2763672,19,13
		c0-1.6542969-1.3457031-3-3-3c-0.2763672,0-0.5,0.2236328-0.5,0.5S15.7236328,11,16,11z"/>
</g>
<g>
</g>
<g>
</g>
<g>
</g>
<g>
</g>
<g>
</g>
<g>
</g>
<g>
</g>
<g>
</g>
<g>
</g>
<g>
</g>
<g>
</g>
<g>
</g>
<g>
</g>
<g>
</g>
<g>
</g>
</svg>
