<?xml version="1.0" encoding="iso-8859-1"?>
<!-- Generator: Adobe Illustrator 21.0.0, SVG Export Plug-In . SVG Version: 6.00 Build 0)  -->
<svg version="1.1" id="Layer_1" xmlns="http://www.w3.org/2000/svg" xmlns:xlink="http://www.w3.org/1999/xlink" x="0px" y="0px"
	 viewBox="0 0 24 24" enable-background="new 0 0 24 24" xml:space="preserve">
<path fill="#303C42" d="M16.8720703,8.6462326l-0.0966797-0.0634747c-0.1640625-0.1093721-0.375-0.1113253-0.5419922-0.0058594
	c-0.1660156,0.1044893-0.2558594,0.2968674-0.2285156,0.4911985c0.0283203,0.2070255-0.0292969,0.3945208-0.171875,0.5576029
	C15.6386719,9.8493271,15.3037109,9.9997139,15,9.9997139c-0.4628906,0-1-0.436512-1-0.9999743
	c0-0.8769312,0.1103516-1.2284842,0.2275391-1.6005449C14.3613281,6.9714708,14.5,6.5290995,14.5,5.4998293
	c0-2.027292-0.2402344-3.0790229-2.65625-5.3631439c-0.1591797-0.1494102-0.3945313-0.1796829-0.5859375-0.0742168
	c-0.1904297,0.1054661-0.2910156,0.3222573-0.2480469,0.5351425c0.5732422,2.8651609-1.1816406,4.3700051-3.4023438,6.2752299
	C6.9580078,7.4304438,6.2871094,8.0056238,5.6464844,8.6462326C2.6328125,11.6598272,2,14.308197,2,15.9995604
	c0,2.9833212,1.1083984,6.7898645,6.3896484,7.9870996c0.2226563,0.0527325,0.4482422-0.0546856,0.5527344-0.2548771
	c0.1054688-0.2001896,0.0625-0.4472542-0.1035156-0.6005688C6.8828125,21.3314552,6.5,20.4369469,6.5,19.4994698
	c0-0.6884575,0.4052734-1.6776905,1.1894531-2.5839176c0.0039063,0.4501839,0.1181641,0.8407993,0.3417969,1.1698914
	C8.609375,18.9330788,9.6845703,18.9994831,10,18.9994831c1.1777344,0,2-1.0282936,2-2.4999352
	c0-0.7958784-0.5449219-1.3759422-1.0712891-1.9354982C10.4511719,14.055274,10,13.5757942,10,12.9996367
	c0-0.436512,0.1035156-0.8300562,0.2392578-1.157197c0.1835938,0.3408117,0.484375,0.7070131,0.9648438,1.0605202
	c0.2519531,0.1845655,0.6201172,0.4189348,1.0527344,0.6923647C13.9140625,14.6451025,17,16.598177,17,18.4994965
	c0,2.4774742-0.90625,3.2391739-2.7919922,4.5936317c-0.1923828,0.1386681-0.2617188,0.3935452-0.1650391,0.6103363
	C14.125,23.886076,14.3056641,23.9993553,14.5,23.9993553c0.0351563,0,0.0712891-0.0039063,0.1074219-0.0117188
	C18.2412109,23.1917591,22,19.9857864,22,15.9995604C22,12.0250521,18.5361328,9.7428846,16.8720703,8.6462326z
	 M16.9931641,21.9759693C17.640625,21.1361465,18,20.1019936,18,18.4994965c0-2.4511089-3.2597656-4.5155096-5.2080078-5.7488766
	c-0.4091797-0.2587824-0.7578125-0.4785032-0.9960938-0.6542797c-0.9980469-0.7333803-0.8251953-1.4237919-0.8203125-1.44137
	c0.0712891-0.2206974-0.0175781-0.4619017-0.2158203-0.582016c-0.1953125-0.1220675-0.4521484-0.0908184-0.6162109,0.07617
	C10.0966797,10.1959982,9,11.3297577,9,12.9996367c0,0.9716549,0.6376953,1.6503487,1.2001953,2.2489662
	C10.6113281,15.6860914,11,16.0991669,11,16.499548c0,0.897438-0.4023438,1.4999599-1,1.4999599
	c-0.3945313,0-0.9023438-0.1249962-1.1425781-0.4775257c-0.2548828-0.3749905-0.2177734-1.0107174,0.1074219-1.839797
	c0.0820313-0.206049,0.0166016-0.4413948-0.1582031-0.5781097c-0.1767578-0.1357393-0.4208984-0.1396456-0.5996094-0.0097656
	C6.3466797,16.4419308,5.5,18.3227425,5.5,19.4994698c0,0.8827896,0.2294922,1.7069874,1.2089844,2.8778572
	C4.2460938,21.2318478,3,19.0942078,3,15.9995604c0-1.501915,0.5820313-3.8749008,3.3535156-6.6463146
	c0.6132813-0.613265,1.2695313-1.1767273,1.9042969-1.7206588c1.9355469-1.6610904,3.7802734-3.2430811,3.8603516-5.7996559
	C13.3691406,3.2118018,13.5,4.0213513,13.5,5.4998293c0,0.8769302-0.1103516,1.2284842-0.2275391,1.6005449
	C13.1386719,7.5280976,13,7.970469,13,8.9997396c0,1.065402,0.9345703,1.9999485,2,1.9999485
	c0.59375,0,1.2021484-0.2744074,1.5869141-0.7167788c0.1171875-0.1347618,0.2119141-0.2812424,0.28125-0.4374886
	C18.4892578,10.9498844,21,12.9371386,21,15.9995604C21,18.491684,19.1962891,20.6908455,16.9931641,21.9759693z"/>
<g>
</g>
<g>
</g>
<g>
</g>
<g>
</g>
<g>
</g>
<g>
</g>
<g>
</g>
<g>
</g>
<g>
</g>
<g>
</g>
<g>
</g>
<g>
</g>
<g>
</g>
<g>
</g>
<g>
</g>
</svg>
