<?xml version="1.0" encoding="iso-8859-1"?>
<!-- Generator: Adobe Illustrator 21.0.0, SVG Export Plug-In . SVG Version: 6.00 Build 0)  -->
<svg version="1.1" id="Layer_1" xmlns="http://www.w3.org/2000/svg" xmlns:xlink="http://www.w3.org/1999/xlink" x="0px" y="0px"
	 viewBox="0 0 24 24" enable-background="new 0 0 24 24" xml:space="preserve">
<g>
	<circle fill="#303C42" cx="15.5" cy="9.5" r="2.5"/>
	<path fill="#303C42" d="M8.6713867,18.3417969C8.1240234,18.6152344,7.472168,18.5302734,7.0117188,18.125
		c-0.2080078-0.1816406-0.5234375-0.1611328-0.7055664,0.0458984c-0.1826172,0.2080078-0.1621094,0.5234375,0.0454102,0.7060547
		c0.46875,0.4111328,1.0551758,0.6240234,1.6489258,0.6240234c0.3793945,0,0.7617188-0.0869141,1.1176758-0.2646484
		c1.2324219-0.6162109,1.7338867-2.1210938,1.1181641-3.3544922c-0.371582-0.7412109-1.0834961-1.25-1.9052734-1.359375
		c-0.2753906-0.046875-0.5253906,0.1552734-0.5620117,0.4287109s0.1557617,0.5253906,0.4291992,0.5615234
		c0.4931641,0.0664063,0.9208984,0.3720703,1.1435547,0.8164063C9.7114258,17.0693359,9.4106445,17.9716797,8.6713867,18.3417969z"
		/>
	<path fill="#303C42" d="M11.9877663,0C5.5349059,0,0.2692893,5.0498047,0.0004608,11.4960938
		c-0.0058653,0.1357422,0.0444789,0.2685547,0.1388132,0.3662109c0.0698954,0.0732422,0.159342,0.1220703,0.2561202,0.1435547
		c0.3401902,0.1142578,2.9541805,1.2636719,4.5466223,1.9736328c0.1744943,0.0751953,0.3748937,0.0488281,0.5210385-0.0703125
		c0.8338571-0.6835938,1.8329215-1,2.8715768-0.8916016c0.173028,0.0175781,0.3436117-0.0556641,0.448699-0.1933594
		l2.1125031-2.7597656c0.0762501-0.0986328,0.1119308-0.2226563,0.1011772-0.3466797
		C10.9906569,9.6425781,10.9867468,9.5712891,10.9867468,9.5c0-2.4814453,2.0206127-4.5,4.5045881-4.5
		s4.5045872,2.0185547,4.5045872,4.5c0,2.3603516-1.8451405,4.3320313-4.2005672,4.4892578
		c-0.104598,0.0068359-0.2043095,0.046875-0.2849579,0.1132813l-3.3466702,2.7539063
		c-0.1080198,0.0888672-0.1740055,0.21875-0.1818256,0.359375C11.8685045,19.3378906,10.1123219,21,7.9836888,21
		c-1.8192358,0-3.3647552-1.1757813-3.8447361-2.9257813C4.1013169,17.9365234,4.0069823,17.8222656,3.8799,17.7587891
		l-1.8842432-0.9414063c-0.1930677-0.0957031-0.4276816-0.0566406-0.5801806,0.0957031
		c-0.1520103,0.1542969-0.1876912,0.3886719-0.088469,0.5810547C3.4004078,21.5068359,7.4851341,24,11.9877663,24
		C18.6112118,24,24,18.6171875,24,12S18.6112118,0,11.9877663,0z"/>
</g>
<g>
</g>
<g>
</g>
<g>
</g>
<g>
</g>
<g>
</g>
<g>
</g>
<g>
</g>
<g>
</g>
<g>
</g>
<g>
</g>
<g>
</g>
<g>
</g>
<g>
</g>
<g>
</g>
<g>
</g>
</svg>
