<?xml version="1.0" encoding="iso-8859-1"?>
<!-- Generator: Adobe Illustrator 21.0.0, SVG Export Plug-In . SVG Version: 6.00 Build 0)  -->
<svg version="1.1" id="Layer_1" xmlns="http://www.w3.org/2000/svg" xmlns:xlink="http://www.w3.org/1999/xlink" x="0px" y="0px"
	 viewBox="0 0 30 30" enable-background="new 0 0 30 30" xml:space="preserve">
<g>
	<g id="XMLID_1627_">
		<path fill="#303C42" d="M15,30C6.7285156,30,0,23.2709961,0,15S6.7285156,0,15,0s15,6.7290039,15,15S23.2714844,30,15,30z M15,1
			C7.2802734,1,1,7.2802734,1,15s6.2802734,14,14,14s14-6.2802734,14-14S22.7197266,1,15,1z"/>
	</g>
	<g id="XMLID_1621_">
		<path fill="#303C42" d="M24.5,13c-0.0957031,0-0.1914063-0.0268555-0.2763672-0.0834961
			c-5.3037109-3.5161133-13.3505859-3.5371094-18.5605469-1.7392578c-0.2617188,0.0908203-0.5458984-0.0488281-0.6357422-0.3095703
			c-0.0898576-0.2612305,0.0488281-0.5458984,0.3095703-0.6357422c5.4414063-1.8779297,13.8671875-1.8452148,19.4394531,1.8515625
			c0.2304688,0.1523438,0.2929688,0.4628906,0.140625,0.6928711C24.8203125,12.9213867,24.6611328,13,24.5,13z"/>
	</g>
	<g id="XMLID_1096_">
		<path fill="#303C42" d="M23.4023438,18.4770508c-0.1132813,0-0.2265625-0.0380859-0.3203125-0.1157227
			c-4.5146484-3.7587891-11.6669922-4.1826172-16.3984375-2.6591797c-0.2607422,0.0825195-0.5439453-0.0595703-0.6289063-0.3227539
			C5.9697266,15.1166992,6.1142578,14.8349609,6.3769531,14.75c4.9912109-1.6069336,12.5517578-1.1469727,17.3457031,2.8427734
			c0.2119141,0.1767578,0.2402344,0.4916992,0.0644531,0.7041016
			C23.6874866,18.4155273,23.5458984,18.4770508,23.4023438,18.4770508z"/>
	</g>
	<g id="XMLID_1100_">
		<path fill="#303C42" d="M21.8222656,23.5c-0.1259766,0-0.2519531-0.0473633-0.3496094-0.1425781
			c-3.8632813-3.7753906-10.1210938-4.2680664-14.3076172-2.8037109c-0.2617188,0.09375-0.5449219-0.0463867-0.6367188-0.3066406
			s0.0458984-0.5458984,0.3066406-0.6367188c4.4755859-1.5673828,11.1816406-1.0297852,15.3369141,3.0322266
			c0.1972656,0.1928711,0.2011719,0.5092773,0.0078125,0.7070313C22.0820313,23.449707,21.9521484,23.5,21.8222656,23.5z"/>
	</g>
</g>
<g>
</g>
<g>
</g>
<g>
</g>
<g>
</g>
<g>
</g>
<g>
</g>
<g>
</g>
<g>
</g>
<g>
</g>
<g>
</g>
<g>
</g>
<g>
</g>
<g>
</g>
<g>
</g>
<g>
</g>
</svg>
