<?xml version="1.0" encoding="iso-8859-1"?>
<!-- Generator: Adobe Illustrator 21.0.0, SVG Export Plug-In . SVG Version: 6.00 Build 0)  -->
<svg version="1.1" id="Layer_1" xmlns="http://www.w3.org/2000/svg" xmlns:xlink="http://www.w3.org/1999/xlink" x="0px" y="0px"
	 viewBox="0 0 24 24" enable-background="new 0 0 24 24" xml:space="preserve">
<path fill="#303C42" d="M23.7703438,11.0791016c-0.0488281-0.03125-1.2089844-0.7685547-2.4072266-0.7685547
	c-0.1523438,0-0.2998047,0.0117188-0.4414063,0.0351563C20.593586,8.9765625,19.3387032,8.125,19.2771797,8.0839844
	c-0.203125-0.1347656-0.4697266-0.1064453-0.6376953,0.0693359c-0.0996094,0.1035156-0.9667969,1.0742188-0.7216797,3.2822266
	c0.0175781,0.1523438-0.0283203,0.3027344-0.1259766,0.4111328C17.7039375,11.9453125,17.5818672,12,17.4480782,12H16.999836V9.5
	c0-0.2763672-0.2236328-0.5-0.5-0.5h-2.5V6.5v-3c0-0.2763672-0.2236328-0.5-0.5-0.5h-3c-0.2763672,0-0.5,0.2236328-0.5,0.5V6
	H7.4998364h-3C4.2234693,6,3.9998362,6.2236328,3.9998362,6.5V9h-2.5c-0.2763672,0-0.5,0.2236328-0.5,0.5V12h-0.5
	c-0.2763672,0-0.5,0.2236328-0.5,0.5c0,7.671875,5.5947266,8.5,8,8.5c6.1933589,0,10.4990234-3.7607422,12.3769531-7.0771484
	c2.4755859-0.3945313,3.5087891-2.09375,3.5537109-2.1679688C24.0672188,11.5234375,23.9969063,11.2246094,23.7703438,11.0791016z
	 M15.999836,12h-2v-2h2V12z M4.9998364,12v-2h2v2H4.9998364z M7.9998364,12v-2H9.999836v2H7.9998364z M12.999836,7v2h-2V7H12.999836
	z M10.999836,12v-2h2v2H10.999836z M10.999836,4h2v2h-2V4z M9.999836,9H7.9998364V7H9.999836V9z M4.9998364,7h2v2h-2V7z
	 M1.9998362,10h2v2h-2V10z M5.0408521,17c-0.5517578,0-1-0.4482422-1-1s0.4482422-1,1-1s1,0.4482422,1,1S5.5926099,17,5.0408521,17z
	"/>
<g>
</g>
<g>
</g>
<g>
</g>
<g>
</g>
<g>
</g>
<g>
</g>
<g>
</g>
<g>
</g>
<g>
</g>
<g>
</g>
<g>
</g>
<g>
</g>
<g>
</g>
<g>
</g>
<g>
</g>
</svg>
