<?xml version="1.0" encoding="iso-8859-1"?>
<!-- Generator: Adobe Illustrator 21.0.0, SVG Export Plug-In . SVG Version: 6.00 Build 0)  -->
<svg version="1.1" id="Layer_1" xmlns="http://www.w3.org/2000/svg" xmlns:xlink="http://www.w3.org/1999/xlink" x="0px" y="0px"
	 viewBox="0 0 30 30" enable-background="new 0 0 30 30" xml:space="preserve">
<path fill="#303C42" d="M30,13.5000868c0-1.9296875-1.5703125-3.5-3.5-3.5c-1.4591675,0-2.722229,0.8983765-3.239624,2.211853
	c-2.0402832-1.2946167-4.7578735-2.1118774-7.760376-2.1949463V5.131434l7.5410156,1.774353
	C23.2362671,8.0908461,24.2600708,9.0000868,25.5,9.0000868c1.3789063,0,2.5-1.1215825,2.5-2.5000005s-1.1210938-2.5-2.5-2.5
	c-1.166748,0-2.1408691,0.8064575-2.4154663,1.8885498l-7.9702759-1.8753662c-0.1494141-0.0351563-0.3066406,0-0.4248047,0.0947266
	C14.5693359,4.202723,14.5,4.3472543,14.5,4.5000863v5.5169072c-3.0025024,0.0830688-5.7200928,0.9003296-7.760376,2.1949463
	C6.222229,10.8984632,4.9591675,10.0000868,3.5,10.0000868c-1.9296875,0-3.5,1.5703125-3.5,3.5
	c0,1.7971802,1.3672485,3.2653799,3.1130981,3.4608755C3.0463257,17.3019657,3,17.6471195,3,18.0000858
	c0,4.4111328,5.3828125,8,12,8s12-3.5888672,12-8c0-0.3529663-0.0463257-0.6981201-0.1130981-1.0391235
	C28.6327515,16.7654667,30,15.297267,30,13.5000868z M19,15.0000868c1.1025391,0,2,0.8969727,2,1.999999s-0.8974609,2-2,2
	s-2-0.8969727-2-2S17.8974609,15.0000868,19,15.0000868z M11,15.0000868c1.1025391,0,2,0.8969727,2,1.999999s-0.8974609,2-2,2
	s-2-0.8969727-2-2S9.8974609,15.0000868,11,15.0000868z M21.0380859,22.2271366
	c-2.0751953,0.8564453-3.9941406,1.2729492-5.8642578,1.2729492c-1.8691406,0-3.7871094-0.4165039-5.8642578-1.2729492
	c-0.2558594-0.1054688-0.3769531-0.3979492-0.2714844-0.652832c0.1044922-0.2558594,0.3964844-0.3754883,0.6523438-0.2719727
	c3.9101563,1.6132813,7.0625,1.6113281,10.9667969,0c0.2578125-0.1030273,0.5488281,0.0170898,0.6523438,0.2714844
	C21.4150391,21.8291874,21.2939453,22.1216679,21.0380859,22.2271366z"/>
<g>
</g>
<g>
</g>
<g>
</g>
<g>
</g>
<g>
</g>
<g>
</g>
<g>
</g>
<g>
</g>
<g>
</g>
<g>
</g>
<g>
</g>
<g>
</g>
<g>
</g>
<g>
</g>
<g>
</g>
</svg>
