<?xml version="1.0" encoding="iso-8859-1"?>
<!-- Generator: Adobe Illustrator 21.0.0, SVG Export Plug-In . SVG Version: 6.00 Build 0)  -->
<svg version="1.1" id="Layer_1" xmlns="http://www.w3.org/2000/svg" xmlns:xlink="http://www.w3.org/1999/xlink" x="0px" y="0px"
	 viewBox="0 0 30 30" enable-background="new 0 0 30 30" xml:space="preserve">
<g>
	<g>
		<path fill="#303C42" d="M21.5097656,30.0004005c-1.9609375,0-3.9248047-0.675293-5.5175781-2.0356445
			c-3.7919922,0.2900391-7.4951172-1.078125-10.1875-3.7695313c-2.6923828-2.6918945-4.0585938-6.394043-3.7695313-10.1875
			C-0.8369141,10.6463966-0.65625,5.6268654,2.4853516,2.4857521c3.1435547-3.140625,8.1611328-3.3222656,11.5224609-0.4506836
			c3.7910156-0.2890626,7.4951172,1.078125,10.1875,3.7695313c2.6923828,2.6918945,4.0585938,6.394043,3.7695313,10.1875
			c2.8720703,3.3613281,2.6914063,8.3808594-0.4501953,11.5224609
			C25.8613281,29.1673927,23.6884766,30.0004005,21.5097656,30.0004005z M16.1621094,26.9486427
			c0.1230469,0,0.2421875,0.0454102,0.3339844,0.128418c2.9638672,2.6645508,7.4931641,2.5473633,10.3115234-0.2695313
			c2.8164063-2.8173828,2.9345703-7.3466797,0.2685547-10.3115234c-0.0927734-0.1040039-0.1386871-0.2416992-0.1259766-0.3808594
			c0.3320313-3.5712891-0.9296875-7.0717773-3.4619141-9.6035156s-6.0322266-3.7983398-9.6044922-3.4624023
			c-0.1376953,0.0136719-0.2763672-0.0327148-0.3798828-0.1264648C10.5390625,0.258213,6.0097656,0.376377,3.1923828,3.1927834
			c-2.8164063,2.8168945-2.9345703,7.3461914-0.2685547,10.3110352c0.0927734,0.1040039,0.1386566,0.2416992,0.1259766,0.3808594
			c-0.3320313,3.5712891,0.9296875,7.0717773,3.4619141,9.6035156c2.53125,2.5317383,6.0283203,3.7978516,9.6044922,3.4624023
			C16.1318359,26.949131,16.1464844,26.9486427,16.1621094,26.9486427z"/>
	</g>
	<g>
		<path fill="#303C42" d="M15.5,24.9999123c-0.0849609,0-8.5-0.1225586-8.5-4.5c0-0.8271484,0.6728516-1.5,1.5-1.5
			s1.5,0.6728516,1.5,1.5c0,0.4716797,2.7607422,1.5,5.5,1.5c1.0849609,0,4.5-0.7519531,4.5-2.5
			c0-2.0039063-1.3964844-2.7055664-4.1464844-3.3662109c-0.2675781-0.0644531-0.5185547-0.1245117-0.7451172-0.1860352
			c-0.2705078-0.0727539-0.6025391-0.1484375-0.9736328-0.2324219C11.4648438,15.1048927,7,14.0843849,7,10.4999123
			c0-3.6108398,3.7734375-5.5,7.5-5.5c3.6425781,0,6.4374847,1.9189453,6.5,4.4633789
			c0.0185547,0.8276367-0.6376953,1.5161133-1.4638672,1.5361328h-0.0009766c-0.8564453,0-1.5146484-0.6425781-1.5351563-1.4624023
			c-0.0126953-0.5219727-1.2597656-1.5371094-3.5-1.5371094c-1.8681641,0-4.5,0.7753906-4.5,2.5
			c0,1.1928711,3.4892578,1.9902344,4.8027344,2.2905273c0.4130859,0.0942383,0.7851563,0.1796875,1.0888672,0.2617188
			c0.1943359,0.0522461,0.4121094,0.1044922,0.6445313,0.1606445C18.6464844,13.7191505,23,14.7635841,23,19.4999123
			C23,23.6151466,17.8496094,24.9999123,15.5,24.9999123z M8.5,19.9999123c-0.2753906,0-0.5,0.2241211-0.5,0.5
			c0,2.777832,5.5546875,3.4746094,7.5019531,3.5C17.5400391,23.9989357,22,22.8651466,22,19.4999123
			c0-3.9477539-3.5546875-4.8007813-5.6787109-5.3105469c-0.2607422-0.0625-0.4873047-0.1171875-0.6914063-0.171875
			c-0.2919922-0.0795898-0.6503906-0.1611328-1.0498047-0.2524414C12.4931641,13.2884865,9,12.4901466,9,10.4999123
			c0-2.5678711,3.2890625-3.5,5.5-3.5c2.4472656,0,4.4658203,1.1269531,4.5,2.512207
			c0.0068359,0.269043,0.2314453,0.487793,0.5,0.487793c0.2880859-0.0068359,0.5068359-0.2368164,0.5-0.5126953
			c-0.0488281-1.987793-2.4130859-3.4873047-5.5-3.4873047c-3.2304688,0-6.5,1.5458984-6.5,4.5
			c0,2.7871094,3.9785156,3.6962891,6.3564453,4.2397461c0.3857422,0.0878906,0.7314453,0.1665039,1.0136719,0.2426758
			c0.2167969,0.059082,0.4580078,0.1171875,0.7167969,0.1787109C18.6767578,15.7831154,21,16.5829201,21,19.4999123
			c0,2.6616211-4.2871094,3.5-5.5,3.5c-1.9130859,0-6.5-0.7192383-6.5-2.5C9,20.2240334,8.7753906,19.9999123,8.5,19.9999123z"/>
	</g>
</g>
<g>
</g>
<g>
</g>
<g>
</g>
<g>
</g>
<g>
</g>
<g>
</g>
<g>
</g>
<g>
</g>
<g>
</g>
<g>
</g>
<g>
</g>
<g>
</g>
<g>
</g>
<g>
</g>
<g>
</g>
</svg>
