<?xml version="1.0" encoding="iso-8859-1"?>
<!-- Generator: Adobe Illustrator 21.0.0, SVG Export Plug-In . SVG Version: 6.00 Build 0)  -->
<svg version="1.1" id="Layer_1" xmlns="http://www.w3.org/2000/svg" xmlns:xlink="http://www.w3.org/1999/xlink" x="0px" y="0px"
	 viewBox="0 0 30 30" enable-background="new 0 0 30 30" xml:space="preserve">
<path fill="#303C42" d="M26,2H4C2.8969727,2,2,2.8969727,2,4v22c0,1.1030273,0.8969727,2,2,2h22c1.1030273,0,2-0.8969727,2-2V4
	C28,2.8969727,27.1030273,2,26,2z M12.5,18h5c0.2763672,0,0.5-0.2236328,0.5-0.5v-5c0-0.2763672-0.2236328-0.5-0.5-0.5h-5
	c-0.2763672,0-0.5,0.2236328-0.5,0.5V14H6.059021C6.5585327,9.507019,10.3759766,6,15,6c4.9624023,0,9,4.0375977,9,9
	s-4.0375977,9-9,9c-4.6240234,0-8.4414673-3.507019-8.940979-8H12v1.5C12,17.7763672,12.2236328,18,12.5,18z"/>
<g>
</g>
<g>
</g>
<g>
</g>
<g>
</g>
<g>
</g>
<g>
</g>
<g>
</g>
<g>
</g>
<g>
</g>
<g>
</g>
<g>
</g>
<g>
</g>
<g>
</g>
<g>
</g>
<g>
</g>
</svg>
