<?xml version="1.0" encoding="iso-8859-1"?>
<!-- Generator: Adobe Illustrator 21.0.0, SVG Export Plug-In . SVG Version: 6.00 Build 0)  -->
<svg version="1.1" id="Layer_1" xmlns="http://www.w3.org/2000/svg" xmlns:xlink="http://www.w3.org/1999/xlink" x="0px" y="0px"
	 viewBox="0 0 30 30" enable-background="new 0 0 30 30" xml:space="preserve">
<g>
	<path fill="#303C42" d="M15,0C6.7290039,0,0,6.7290039,0,15s6.7290039,15,15,15s15-6.7290039,15-15S23.2709961,0,15,0z M15,29
		C7.2802734,29,1,22.7197266,1,15S7.2802734,1,15,1s14,6.2802734,14,14S22.7197266,29,15,29z"/>
	<path fill="#303C42" d="M16.5,13.5H10c-0.2763672,0-0.5,0.2236328-0.5,0.5v2c0,0.2763672,0.2236328,0.5,0.5,0.5h3.7075195
		C13.1030273,17.9799805,11.6328125,19,10,19c-2.2055664,0-4-1.7944336-4-4s1.7944336-4,4-4
		c1.0136719,0,1.9804688,0.3798828,2.7226563,1.0693359c0.2016602,0.1879883,0.5185547,0.1772461,0.706543-0.0258789
		l1.3613281-1.4648438c0.1879883-0.2021484,0.1762695-0.5185547-0.0258789-0.706543C13.4658203,8.6650391,11.7739258,8,10,8
		c-3.8598633,0-7,3.1401367-7,7s3.1401367,7,7,7s7-3.1401367,7-7v-1C17,13.7236328,16.7763672,13.5,16.5,13.5z M16,15
		c0,3.3085938-2.6914063,6-6,6s-6-2.6914063-6-6s2.6914063-6,6-6c1.3525391,0,2.6499023,0.4511719,3.7036133,1.2792969
		l-0.6835938,0.7353516C12.1542969,10.3574219,11.0991211,10,10,10c-2.7568359,0-5,2.2431641-5,5s2.2431641,5,5,5
		c2.3115234,0,4.3623047-1.6357422,4.8754883-3.8891602c0.0341797-0.1479492-0.0014648-0.3037109-0.0966797-0.4228516
		C14.684082,15.5693359,14.5405273,15.5,14.3881836,15.5H10.5v-1H16V15z"/>
	<path fill="#303C42" d="M26.5,13.5H24V11c0-0.2763672-0.2236328-0.5-0.5-0.5h-2c-0.2763672,0-0.5,0.2236328-0.5,0.5v2.5h-2.5
		c-0.2763672,0-0.5,0.2236328-0.5,0.5v2c0,0.2763672,0.2236328,0.5,0.5,0.5H21V19c0,0.2763672,0.2236328,0.5,0.5,0.5h2
		c0.2763672,0,0.5-0.2236328,0.5-0.5v-2.5h2.5c0.2763672,0,0.5-0.2236328,0.5-0.5v-2C27,13.7236328,26.7763672,13.5,26.5,13.5z
		 M26,15.5h-2.5c-0.2763672,0-0.5,0.2236328-0.5,0.5v2.5h-1V16c0-0.2763672-0.2236328-0.5-0.5-0.5H19v-1h2.5
		c0.2763672,0,0.5-0.2236328,0.5-0.5v-2.5h1V14c0,0.2763672,0.2236328,0.5,0.5,0.5H26V15.5z"/>
</g>
<g>
</g>
<g>
</g>
<g>
</g>
<g>
</g>
<g>
</g>
<g>
</g>
<g>
</g>
<g>
</g>
<g>
</g>
<g>
</g>
<g>
</g>
<g>
</g>
<g>
</g>
<g>
</g>
<g>
</g>
</svg>
