<?xml version="1.0" encoding="iso-8859-1"?>
<!-- Generator: Adobe Illustrator 21.0.0, SVG Export Plug-In . SVG Version: 6.00 Build 0)  -->
<svg version="1.1" id="Layer_1" xmlns="http://www.w3.org/2000/svg" xmlns:xlink="http://www.w3.org/1999/xlink" x="0px" y="0px"
	 viewBox="0 0 30 30" enable-background="new 0 0 30 30" xml:space="preserve">
<path fill="#303C42" d="M26.9648438,29.3147545l-11.5-29.0280952c-0.1513672-0.3822123-0.7783203-0.3822123-0.9296875,0
	l-11.5,29.0280952c-0.0610352,0.1544495-0.0419922,0.3284492,0.0512695,0.46628C3.1796875,29.9178886,3.3344727,30,3.5,30H12
	c0.2763672,0,0.5-0.2238541,0.5-0.5004921v-5.591444c0-0.1329441-0.0527344-0.2600212-0.1464844-0.3538647l-1.7070313-1.7087135
	c-0.1948242-0.1955051-0.1948242-0.5122223,0-0.7077274c0.1953125-0.1955051,0.5117188-0.1955051,0.7070313,0l0.2929688,0.2932568
	c0.1435547,0.1436958,0.3579102,0.18573,0.5449219,0.1085052S12.5,21.2794991,12.5,21.0771503v-4.590456
	c0-0.2756634,0.2241211-0.500494,0.5-0.500494h4c0.2758789,0,0.5,0.2248306,0.5,0.500494v2.3871155
	c0,0.1730213,0.0898438,0.3343143,0.2368164,0.4252224c0.1479492,0.0918884,0.331543,0.0997086,0.4863281,0.0224838
	l0.5561523-0.2776165c0.1186523-0.0596294,0.2539063-0.0703831,0.3818359-0.0273705
	c0.1264648,0.0430107,0.2285156,0.1319656,0.2885742,0.2522011c0.0595703,0.119257,0.0688477,0.2551346,0.0263672,0.3812351
	c-0.0419922,0.1270771-0.1313477,0.2297173-0.2509766,0.2893467l-1.4482422,0.7223911
	C17.6074219,20.7457695,17.5,20.9197693,17.5,21.1094093v1.2649174c0,0.1730213,0.0898438,0.3343143,0.2373047,0.4262009
	c0.1464844,0.0899334,0.3310547,0.0987301,0.4863281,0.0215054l1.5507813-0.7761536
	c0.2451172-0.1212139,0.5498047-0.0234623,0.6728516,0.2228756c0.0595703,0.119257,0.0693359,0.2551327,0.0273438,0.3822117
	c-0.0424805,0.127079-0.1313477,0.2297192-0.2509766,0.2893467l-2.4472656,1.2248402
	C17.6069336,24.2501984,17.5,24.4232197,17.5,24.6128597v4.8866482C17.5,29.7761459,17.7236328,30,18,30h8.5
	c0.1655273,0,0.3203125-0.0821114,0.4135742-0.2189655C27.0068359,29.6432037,27.0258789,29.4692039,26.9648438,29.3147545z"/>
<g>
</g>
<g>
</g>
<g>
</g>
<g>
</g>
<g>
</g>
<g>
</g>
<g>
</g>
<g>
</g>
<g>
</g>
<g>
</g>
<g>
</g>
<g>
</g>
<g>
</g>
<g>
</g>
<g>
</g>
</svg>
