<?xml version="1.0" encoding="iso-8859-1"?>
<!-- Generator: Adobe Illustrator 21.0.0, SVG Export Plug-In . SVG Version: 6.00 Build 0)  -->
<svg version="1.1" id="Layer_1" xmlns="http://www.w3.org/2000/svg" xmlns:xlink="http://www.w3.org/1999/xlink" x="0px" y="0px"
	 viewBox="0 0 30 30" enable-background="new 0 0 30 30" xml:space="preserve">
<path fill="#303C42" d="M15,0C8.3828125,0,3,5.3833008,3,12c0,6.2768555,4.7939453,11.434082,11,11.9443359V29.5
	c0,0.15625,0.0732422,0.3037109,0.1972656,0.3984375C14.2851563,29.9648438,14.3916016,30,14.5,30
	c0.0449219,0,0.0898438-0.0058594,0.1347656-0.0185547C21.9150391,27.9516602,27,21.0131836,27,13.1088867V12
	C27,5.3833008,21.6171875,0,15,0z M14,13.5c0,1.378418-1.1210938,2.5-2.5,2.5c-0.2763672,0-0.5-0.2236328-0.5-0.5V14H9.5
	C9.2236328,14,9,13.7763672,9,13.5v-4C9,9.2236328,9.2236328,9,9.5,9h4C13.7763672,9,14,9.2236328,14,9.5V13.5z M21,13.5
	c0,1.378418-1.1210938,2.5-2.5,2.5c-0.2763672,0-0.5-0.2236328-0.5-0.5V14h-1.5c-0.2763672,0-0.5-0.2236328-0.5-0.5v-4
	C16,9.2236328,16.2236328,9,16.5,9h4C20.7763672,9,21,9.2236328,21,9.5V13.5z"/>
<g>
</g>
<g>
</g>
<g>
</g>
<g>
</g>
<g>
</g>
<g>
</g>
<g>
</g>
<g>
</g>
<g>
</g>
<g>
</g>
<g>
</g>
<g>
</g>
<g>
</g>
<g>
</g>
<g>
</g>
</svg>
