<?xml version="1.0" encoding="iso-8859-1"?>
<!-- Generator: Adobe Illustrator 21.0.0, SVG Export Plug-In . SVG Version: 6.00 Build 0)  -->
<svg version="1.1" id="Layer_1" xmlns="http://www.w3.org/2000/svg" xmlns:xlink="http://www.w3.org/1999/xlink" x="0px" y="0px"
	 viewBox="0 0 30 30" enable-background="new 0 0 30 30" xml:space="preserve">
<g id="XMLID_1340_">
	<path fill="#303C42" d="M15.0000858,28c-1.6113281,0-3.0664063-0.6274414-4.3496094-1.1816406
		C9.6748905,26.3974609,8.7539921,26,8.0000858,26H5.5000863c-0.1416016,0-0.2753906-0.0605469-0.3701172-0.1650391
		S4.9883676,25.5898438,5.003016,25.449707c0.0283203-0.2924805,0.015625-1.1542969-0.3847656-1.6264648
		c-0.1201172-0.0541992-0.7265625,0.0219727-1.1269531,0.0722656c-0.9355469,0.1176758-2.09375,0.2626953-2.8378906-0.340332
		c-0.3828125-0.3110352-0.6025391-0.7719727-0.6513672-1.3710938c-0.0205078-0.2446289,0.140625-0.4682617,0.3789063-0.5268555
		c3.0322266-0.7436523,5.4433594-2.5224609,6.6152344-4.8798828c0.0126953-0.0258789-0.0068359-0.0678711-0.0429688-0.0947266
		l-3.2451172-2.1474609c-0.6171875-0.4526367-0.8564453-1.2070313-0.6152344-1.8920898
		c0.28125-0.7954102,1.1455078-1.2753906,2-1.1113281c0.0205078,0.0043945,1.4335938,0.3251953,2.2558594,0.4658203
		c0.0683594,0.0107422,0.1044922-0.0166016,0.1220703-0.0336914C6.9932504,8.980957,7.5596566,6.3818359,9.0918827,4.559082
		C10.479578,2.9086914,12.5772343,2,15.0000858,2c2.4208984,0,4.5175781,0.9086914,5.9052734,2.5581055
		c1.5332031,1.8232422,2.0996094,4.4223633,1.5957031,7.3183594c0.046875,0.1054688,0.0927734,0.1318359,0.1513672,0.1206055
		c0.2617188-0.0454102,0.6699219-0.1655273,1.0634766-0.2822266c0.4248047-0.1254883,0.8632813-0.2548828,1.1953125-0.3149414
		c0.8535156-0.1518555,1.7089844,0.3276367,1.9873047,1.1186523c0.2421875,0.6870117,0.0019531,1.4443359-0.5976563,1.8847656
		l-3.2568359,2.2817383c-0.0341797,0.0263672-0.0517578,0.0668945-0.0400391,0.0913086
		c1.171875,2.3583984,3.5830078,4.137207,6.6152344,4.8808594c0.2324219,0.0571289,0.3916016,0.2709961,0.3798828,0.5097656
		c-0.0292969,0.625-0.2402344,1.1040039-0.6269531,1.4248047c-0.7402344,0.6152344-1.8671875,0.4599609-2.8623047,0.3222656
		c-0.4013672-0.0556641-1.0087891-0.1401367-1.1591797-0.0639648c-0.4453125,0.5351563-0.3339844,1.5791016-0.3330078,1.5898438
		c0.0175781,0.1420898-0.0273438,0.284668-0.1220703,0.3916016S24.6651249,26,24.5215702,26h-2.5214844
		c-0.7539063,0-1.6748047,0.3974609-2.6503906,0.8183594C18.0664921,27.3725586,16.611414,28,15.0000858,28z M6.0049691,25
		h1.9951167c0.9599609,0,1.9736328,0.4375,3.046875,0.9003906C12.2998905,26.440918,13.5948124,27,15.0000858,27
		s2.7001953-0.559082,3.953125-1.0996094C20.026453,25.4375,21.0401249,25,22.0000858,25h2.0087891
		c0.0195313-0.5107422,0.1376953-1.2666016,0.609375-1.8232422c0.40625-0.4775391,1.1611328-0.3735352,2.0283203-0.253418
		c0.7509766,0.1040039,1.6865234,0.2329102,2.0869141-0.1010742c0.0898438-0.074707,0.1572266-0.1777344,0.2011719-0.3110352
		c-3.109375-0.8759766-5.5810547-2.7856445-6.8251953-5.2885742c-0.2314453-0.4619141-0.0859375-1.0283203,0.3457031-1.3457031
		c0.0029297-0.0024414,0.0058594-0.0043945,0.0087891-0.0068359l3.2539063-2.2797852
		c0.2373047-0.1738281,0.3339844-0.4663086,0.2373047-0.7387695c-0.1181641-0.3330078-0.4804688-0.5361328-0.8671875-0.4672852
		c-0.2910156,0.0522461-0.6914063,0.1723633-1.0888672,0.2895508c-0.4404297,0.1303711-0.8564453,0.253418-1.1757813,0.3085938
		c-0.3623047,0.0605469-0.7402344-0.0532227-1-0.3120117c-0.2529297-0.2524414-0.3681641-0.6132813-0.3076172-0.9648438
		c0.453125-2.6005859-0.0361328-4.9101563-1.3759766-6.5039063C18.9453983,3.7817383,17.120203,3,15.0000858,3
		c-2.1220703,0-3.9492188,0.7822266-5.1425781,2.2026367C8.517664,6.7954102,8.0303593,9.1049805,8.4834843,11.7050781
		c0.0615234,0.3520508-0.0527344,0.7124023-0.3046875,0.9648438c-0.2597651,0.2592773-0.6347651,0.3740234-0.9980464,0.3129883
		c-0.8427734-0.1435547-2.2910156-0.472168-2.2910156-0.472168c-0.3574219-0.0688477-0.734375,0.1298828-0.8535156,0.465332
		c-0.0957031,0.2700195,0,0.5600586,0.2441406,0.7387695l3.2451172,2.1479492
		c0.4511719,0.331543,0.5966792,0.8979492,0.3652344,1.3608398c-1.2412109,2.4960938-3.7050781,4.402832-6.8037109,5.28125
		c0.046875,0.1147461,0.1123047,0.2055664,0.1962891,0.2734375c0.4130859,0.3349609,1.3388672,0.2182617,2.0830078,0.125
		c0.8632813-0.1088867,1.6103516-0.2036133,2.015625,0.2734375C5.8536019,23.7333984,5.9795785,24.4912109,6.0049691,25z"/>
</g>
<g>
</g>
<g>
</g>
<g>
</g>
<g>
</g>
<g>
</g>
<g>
</g>
<g>
</g>
<g>
</g>
<g>
</g>
<g>
</g>
<g>
</g>
<g>
</g>
<g>
</g>
<g>
</g>
<g>
</g>
</svg>
