<?xml version="1.0" encoding="iso-8859-1"?>
<!-- Generator: Adobe Illustrator 21.0.0, SVG Export Plug-In . SVG Version: 6.00 Build 0)  -->
<svg version="1.1" id="Layer_1" xmlns="http://www.w3.org/2000/svg" xmlns:xlink="http://www.w3.org/1999/xlink" x="0px" y="0px"
	 viewBox="0 0 24 24" enable-background="new 0 0 24 24" xml:space="preserve">
<path fill="#303C42" d="M16.2441406,3.8178232c-2.1240234-1.136694-4.3476563-3.6244326-4.3701172-3.6493344
	C11.7626953,0.0430032,11.6728516-0.020472,11.5,0.0058946c-0.1660156,0.0239253-0.3818359,0.1303682-0.453125,0.2827087
	c-0.0107422,0.023437-1.1318359,2.3847136-2.8310547,3.3627195C3.8994141,5.1630087,1,9.1209297,1,13.5002289
	C1,19.2896538,5.9345703,24,12,24s11-4.7103462,11-10.4997711C23,9.2322559,20.3271484,5.4222803,16.2441406,3.8178232z
	 M16.2294922,21.4448605c-0.7509766,0.3876953-1.8339844,0.5600586-2.9082031,0.5600586
	c-1.1699219,0-2.3300781-0.2041016-3.0429688-0.5561523c-0.2470703-0.1220703-0.3486328-0.421875-0.2265625-0.6694336
	c0.1230469-0.2495117,0.4248047-0.347168,0.6699219-0.2270508c1.1298828,0.5561523,3.78125,0.6591797,5.0488281,0.0039063
	c0.2431641-0.1245117,0.546875-0.03125,0.6738281,0.2148438C16.5712891,21.0166378,16.4746094,21.3179073,16.2294922,21.4448605z
	 M12.0966797,19.2056026c0.7734375-1.059082,1.6123047-1.2050781,2.4033203-1.2050781
	c0.4765625,0,0.8916016,0.171875,1.1689453,0.4838867c0.2587891,0.2905273,0.375,0.6723633,0.3271484,1.074707
	c-0.0292969,0.2543945-0.2451172,0.4414063-0.4951172,0.4414063c-0.0195313,0-0.0390625-0.0009766-0.0595703-0.003418
	c-0.2744141-0.0322266-0.4707031-0.2807617-0.4375-0.5551758c0.0087891-0.0810547,0.0029297-0.1977539-0.0820313-0.2929688
	c-0.0849609-0.0957031-0.2343855-0.1484375-0.421875-0.1484375c-0.6738281,0-1.1054688,0.1230469-1.5966797,0.7949219
	c-0.1630859,0.2241211-0.4765625,0.2714844-0.6982422,0.1088867C11.9824219,19.7412472,11.9335938,19.4282589,12.0966797,19.2056026
	z M18.5,18.5005245c-1.1918335,0-2.8286133-1.8537598-3.5715942-2.7785654
	C13.8215332,16.6564693,10.8600464,19.0005245,9,19.0005245c-2.2060547,0-4-1.7944336-4-4.000001c0-1.9267578,1.4082031-4,4.5-4
	c1.4283447,0,3.0076294,0.9570313,5.5386353,3.3515015c0.5632324-0.4160156,1.0127563-0.7780762,1.3832397-1.078064
	C17.4023438,12.4800158,17.9931641,12.0005236,19,12.0005236c0.6015625,0,2,0.2924805,2,3
	C21,16.4619503,20.0488281,18.5005245,18.5,18.5005245z"/>
<g>
</g>
<g>
</g>
<g>
</g>
<g>
</g>
<g>
</g>
<g>
</g>
<g>
</g>
<g>
</g>
<g>
</g>
<g>
</g>
<g>
</g>
<g>
</g>
<g>
</g>
<g>
</g>
<g>
</g>
</svg>
