<?xml version="1.0" encoding="iso-8859-1"?>
<!-- Generator: Adobe Illustrator 21.0.0, SVG Export Plug-In . SVG Version: 6.00 Build 0)  -->
<svg version="1.1" id="Layer_1" xmlns="http://www.w3.org/2000/svg" xmlns:xlink="http://www.w3.org/1999/xlink" x="0px" y="0px"
	 viewBox="0 0 30 30" enable-background="new 0 0 30 30" xml:space="preserve">
<path fill="none" stroke="#303C42" stroke-linecap="round" stroke-linejoin="round" stroke-miterlimit="10" d="M15,0.5
	C6.9918823,0.5,0.5,7.0129719,0.5,15.0472422c0,6.820611,4.6865234,12.8669806,11,14.4527578v-3.8064899
	c-0.2322388-0.0556011-0.571167-0.1120586-1-0.1120586c-3.3097534,0-4.6612549-5.0158615-6.5-5.0158615
	c3.5199585,0,3.8984985,2.8216629,6,2.8216629c0,0,0.9658203,0.0136566,1.5-0.5169983V22.00214
	c-3.5127563-1.1780815-6-4.0692444-6-7.4565268c0-1.8392248,0.7401733-3.5286102,1.9718018-4.8821268
	c-0.55896-1.3390045-0.3551636-3.1518984,0.5934448-4.1035976c0.8014526,0.2128496,1.9768677,0.8776674,2.8079224,1.7650094
	C12.1226196,6.8141451,13.5189209,6.5195484,15,6.5195484s2.8773804,0.2945967,4.1268311,0.8053498
	c0.8310547-0.887342,2.0064697-1.5521598,2.8079224-1.7650094c0.9486084,0.9516993,1.1524048,2.7645931,0.5934448,4.1035976
	C23.7598267,11.0170031,24.5,12.7063885,24.5,14.5456133c0,3.4864187-2.6360474,6.4451246-6.3123169,7.553092
	C18.3893433,22.7084751,18.5,23.3464718,18.5,23.9926128V29.5c6.3134766-1.5857773,11-7.6321468,11-14.4527578
	C29.5,7.0129719,23.0081177,0.5,15,0.5z"/>
<g>
</g>
<g>
</g>
<g>
</g>
<g>
</g>
<g>
</g>
<g>
</g>
<g>
</g>
<g>
</g>
<g>
</g>
<g>
</g>
<g>
</g>
<g>
</g>
<g>
</g>
<g>
</g>
<g>
</g>
</svg>
