<?xml version="1.0" encoding="iso-8859-1"?>
<!-- Generator: Adobe Illustrator 21.0.0, SVG Export Plug-In . SVG Version: 6.00 Build 0)  -->
<svg version="1.1" id="Layer_1" xmlns="http://www.w3.org/2000/svg" xmlns:xlink="http://www.w3.org/1999/xlink" x="0px" y="0px"
	 viewBox="0 0 30 30" enable-background="new 0 0 30 30" xml:space="preserve">
<path fill="#303C42" d="M15,0C6.7285156,0,0,6.7290039,0,15s6.7285156,15,15,15s15-6.7290039,15-15S23.2714844,0,15,0z
	 M23.6748047,21.4272461C23.4150391,21.7807617,22.9804688,22,22.5234375,22h-0.875
	c-0.59375,0-1.1357422-0.3725586-1.3476563-0.9267578l-1.8427734-4.7895508l-1.9980469,4.3286133
	C16.0712891,21.4550781,15.2197266,22,14.2919922,22c-0.9921875,0-1.8662109-0.5976563-2.2255859-1.5229492l-3.0322266-7.7958984
	c-0.0595703-0.1538086-0.0400391-0.3271484,0.0527344-0.4633789C9.1806641,12.081543,9.3349609,12,9.5,12H12
	c0.2021484,0,0.3837891,0.121582,0.4619141,0.3076172L14.5,17.2001953l1.5585938-3.7416992
	C16.4277344,12.5727539,17.2871094,12,18.2470703,12c0.9658203,0,1.8251953,0.5727539,2.1943359,1.4584961l1.8691406,4.4858398
	C22.7636719,16.9467773,23,15.8598633,23,14.75C23,10.4765625,19.5234375,7,15.25,7C11.0097656,7,7,11.1308594,7,15.5
	c0,4.6870117,3.8134766,8.5,8.5,8.5c0.2763672,0,0.5,0.2236328,0.5,0.5v2c0,0.2763672-0.2236328,0.5-0.5,0.5
	C9.1591797,27,4,21.8413086,4,15.5C4,9.4814453,9.3623047,4,15.25,4C21.1777344,4,26,8.8222656,26,14.75
	C26,17.2011719,25.1962891,19.5097656,23.6748047,21.4272461z"/>
<g>
</g>
<g>
</g>
<g>
</g>
<g>
</g>
<g>
</g>
<g>
</g>
<g>
</g>
<g>
</g>
<g>
</g>
<g>
</g>
<g>
</g>
<g>
</g>
<g>
</g>
<g>
</g>
<g>
</g>
</svg>
