<?xml version="1.0" encoding="iso-8859-1"?>
<!-- Generator: Adobe Illustrator 21.0.0, SVG Export Plug-In . SVG Version: 6.00 Build 0)  -->
<svg version="1.1" id="Layer_1" xmlns="http://www.w3.org/2000/svg" xmlns:xlink="http://www.w3.org/1999/xlink" x="0px" y="0px"
	 viewBox="0 0 24 24" enable-background="new 0 0 24 24" xml:space="preserve">
<path fill="#303C42" d="M19.979641,22.359375c-0.0214844-0.074707-0.5429688-1.8481445-1.0146484-3.0429688
	c-0.0556641-0.1425781-0.1748047-0.2514648-0.3212891-0.2954102c-0.1474609-0.0444336-0.3076172-0.019043-0.4316406,0.0703125
	c-0.6289063,0.4438477-1.9306641,0.3964844-2.9013681-0.1069336C14.7130384,18.6743164,14.0001478,18.078125,14.0001478,17v-7
	h3.500001c0.2763672,0,0.5-0.2236328,0.5-0.5v-4c0-0.2763672-0.2236328-0.5-0.5-0.5h-3.500001V0.5
	c0-0.2763672-0.2236328-0.5-0.5-0.5h-4c-0.2763672,0-0.5,0.2236328-0.5,0.5c0,3.6108398-2.2636719,5.5-4.5,5.5
	c-0.2763672,0-0.5,0.2236328-0.5,0.5v3c0,0.2763672,0.2236328,0.5,0.5,0.5h3.5v8c0,4.1225586,3.3691406,6,6.5,6
	c2.8232431,0,5.1074228-1.0004883,5.203126-1.0429688C19.9317894,22.8549805,20.0499535,22.5996094,19.979641,22.359375z
	 M14.5001478,23c-2.6494141,0-5.5-1.5644531-5.5-5V9.5c0-0.2763672-0.2236328-0.5-0.5-0.5h-3.5V6.9750977
	C7.4522963,6.7304688,9.7931166,4.690918,9.9874525,1h3.0126953v4.5c0,0.2763672,0.2236328,0.5,0.5,0.5h3.500001v3h-3.500001
	c-0.2763672,0-0.5,0.2236328-0.5,0.5V17c0,1.215332,0.6748047,2.262207,1.8505859,2.8720703
	c1.0791016,0.559082,2.41504,0.6689453,3.3769541,0.3227539c0.2578125,0.7148438,0.5126953,1.5234375,0.6611328,2.0083008
	C18.1397972,22.4755859,16.4454613,23,14.5001478,23z"/>
<g>
</g>
<g>
</g>
<g>
</g>
<g>
</g>
<g>
</g>
<g>
</g>
<g>
</g>
<g>
</g>
<g>
</g>
<g>
</g>
<g>
</g>
<g>
</g>
<g>
</g>
<g>
</g>
<g>
</g>
</svg>
