<?xml version="1.0" encoding="iso-8859-1"?>
<!-- Generator: Adobe Illustrator 21.0.0, SVG Export Plug-In . SVG Version: 6.00 Build 0)  -->
<svg version="1.1" id="Layer_1" xmlns="http://www.w3.org/2000/svg" xmlns:xlink="http://www.w3.org/1999/xlink" x="0px" y="0px"
	 viewBox="0 0 30 30" enable-background="new 0 0 30 30" xml:space="preserve">
<g>
	<g id="XMLID_1541_">
		<path fill="#303C42" d="M26,28H4c-1.1030273,0-2-0.8974609-2-2V4c0-1.1025391,0.8969727-2,2-2h22c1.1030273,0,2,0.8974609,2,2v22
			C28,27.1025391,27.1030273,28,26,28z M4,3C3.4487305,3,3,3.4482422,3,4v22c0,0.5517578,0.4487305,1,1,1h22
			c0.5512695,0,1-0.4482422,1-1V4c0-0.5517578-0.4487305-1-1-1H4z"/>
	</g>
	<g>
		<path fill="#303C42" d="M12,23c-1.6542969,0-3-1.3457031-3-3V10c0-1.6542969,1.3457031-3,3-3
			c1.5756836,0,2.871582,1.2207031,2.9912109,2.7666016l1.8876953-1.8876953
			c0.5986328-0.5986328,1.4335938-0.9033203,2.2714844-0.875c0.8452148,0.0419922,1.6386719,0.4443359,2.1777344,1.1035156
			c0.9604492,1.1738281,0.8256836,2.9814453-0.3076172,4.1142578L18.2426758,15l2.878418,2.8789063
			c0.5981445,0.5976563,0.9169922,1.4248047,0.875,2.2705078c-0.0419922,0.8447266-0.4438477,1.6386719-1.1030273,2.1787109
			c-1.1748047,0.9599609-2.9829102,0.8242188-4.1152344-0.3076172l-1.7866211-1.7871094C14.871582,21.7792969,13.5756836,23,12,23z
			 M12,8c-1.1030273,0-2,0.8974609-2,2v10c0,1.1025391,0.8969727,2,2,2s2-0.8974609,2-2v-0.9648438
			c0-0.2021484,0.1220703-0.3847656,0.3085938-0.4619141c0.1870117-0.0751953,0.4018555-0.0341797,0.5449219,0.1083984
			l2.6313477,2.6318359c0.7744141,0.7744141,1.9921875,0.8798828,2.7749023,0.2412109
			c0.4472656-0.3662109,0.7094727-0.8837891,0.737793-1.4550781c0.027832-0.5634766-0.1845703-1.1152344-0.5834961-1.5136719
			l-3.2319336-3.2324219c-0.1953125-0.1953125-0.1953125-0.5117188,0-0.7070313l3.1313477-3.1318359
			c0.7744141-0.7744141,0.8798828-1.9931641,0.2407227-2.7744141C20.1879883,8.2929688,19.671875,8.03125,19.1005859,8.0029297
			C18.53125,7.9658203,17.9848633,8.1875,17.5859375,8.5859375l-2.7324219,2.7324219
			c-0.1430664,0.1435547-0.3583984,0.1855469-0.5449219,0.1083984C14.121582,11.3496094,14,11.1669922,14,10.9648438V10
			C14,8.8974609,13.1030273,8,12,8z"/>
	</g>
</g>
<g>
</g>
<g>
</g>
<g>
</g>
<g>
</g>
<g>
</g>
<g>
</g>
<g>
</g>
<g>
</g>
<g>
</g>
<g>
</g>
<g>
</g>
<g>
</g>
<g>
</g>
<g>
</g>
<g>
</g>
</svg>
