<?xml version="1.0" encoding="iso-8859-1"?>
<!-- Generator: Adobe Illustrator 21.0.0, SVG Export Plug-In . SVG Version: 6.00 Build 0)  -->
<svg version="1.1" id="Layer_1" xmlns="http://www.w3.org/2000/svg" xmlns:xlink="http://www.w3.org/1999/xlink" x="0px" y="0px"
	 viewBox="0 0 30 30" enable-background="new 0 0 30 30" xml:space="preserve">
<g id="XMLID_1591_">
	<path id="XMLID_1375_" fill="none" stroke="#303C42" stroke-linecap="round" stroke-linejoin="round" stroke-miterlimit="10" d="
		M15,0.5c-1.6701832,0-3.0974207,1.0490457-3.764925,2.5502133C9.1899576,7.6495376,5.0652122,16.8309212,3.0176363,21.429018
		C2.6927285,22.1586418,2.5,22.9660892,2.5,23.826086C2.5,26.9597149,4.8984637,29.5,7.8571429,29.5
		C12.2470236,29.5,19.5,21.4375,19.5,16c0-2.4372568-2.0624104-4.5-4.5-4.5c-2.5,0-4.5,2.0627432-4.5,4.5
		c0,5.4375,7.2529678,13.5,11.6428566,13.5C25.1015358,29.5,27.5,26.9597149,27.5,23.826086
		c0-0.8599968-0.192728-1.6674442-0.5176353-2.397068c-2.0475769-4.5980968-6.1723232-13.77948-8.2174397-18.3788052
		C18.0974216,1.5490457,16.6701832,0.5,15,0.5z"/>
</g>
<g>
</g>
<g>
</g>
<g>
</g>
<g>
</g>
<g>
</g>
<g>
</g>
<g>
</g>
<g>
</g>
<g>
</g>
<g>
</g>
<g>
</g>
<g>
</g>
<g>
</g>
<g>
</g>
<g>
</g>
</svg>
