<?xml version="1.0" encoding="iso-8859-1"?>
<!-- Generator: Adobe Illustrator 21.0.0, SVG Export Plug-In . SVG Version: 6.00 Build 0)  -->
<svg version="1.1" id="Layer_1" xmlns="http://www.w3.org/2000/svg" xmlns:xlink="http://www.w3.org/1999/xlink" x="0px" y="0px"
	 viewBox="0 0 24 24" enable-background="new 0 0 24 24" xml:space="preserve">
<g id="XMLID_1501_">
	<path id="XMLID_1519_" fill="none" stroke="#303C42" stroke-linecap="round" stroke-linejoin="round" stroke-miterlimit="10" d="
		M23.5,10.5c0-4.9705811-5.1487427-9-11.5-9s-11.5,4.0294189-11.5,9c0,4.4268188,4.0874023,8.098999,9.4675293,8.8511963
		l-0.0251465,0.0050659C12.8706055,19.8117676,11.5,22.5,11.5,22.5l7.7474976-5.0119629l-0.0095215,0.0018921
		C21.8366089,15.8398438,23.5,13.322998,23.5,10.5z"/>
	
		<polyline id="XMLID_1515_" fill="none" stroke="#303C42" stroke-linecap="round" stroke-linejoin="round" stroke-miterlimit="10" points="
		5.5,8.5 5.5,13.5 8,13.5 	"/>
	
		<line id="XMLID_1518_" fill="none" stroke="#303C42" stroke-linecap="round" stroke-linejoin="round" stroke-miterlimit="10" x1="9.5" y1="8.5" x2="9.5" y2="13.5"/>
	
		<polyline id="XMLID_1520_" fill="none" stroke="#303C42" stroke-linecap="round" stroke-linejoin="round" stroke-miterlimit="10" points="
		11.5,13.5 11.5,8.5 14.5,13.5 14.5,8.5 	"/>
	
		<polyline id="XMLID_1521_" fill="none" stroke="#303C42" stroke-linecap="round" stroke-linejoin="round" stroke-miterlimit="10" points="
		19,8.5 16.5,8.5 16.5,13.5 19,13.5 	"/>
	
		<line id="XMLID_1522_" fill="none" stroke="#303C42" stroke-linecap="round" stroke-linejoin="round" stroke-miterlimit="10" x1="16.5" y1="11" x2="19" y2="11"/>
</g>
<g>
</g>
<g>
</g>
<g>
</g>
<g>
</g>
<g>
</g>
<g>
</g>
<g>
</g>
<g>
</g>
<g>
</g>
<g>
</g>
<g>
</g>
<g>
</g>
<g>
</g>
<g>
</g>
<g>
</g>
</svg>
