<?xml version="1.0" encoding="iso-8859-1"?>
<!-- Generator: Adobe Illustrator 21.0.0, SVG Export Plug-In . SVG Version: 6.00 Build 0)  -->
<svg version="1.1" id="Layer_1" xmlns="http://www.w3.org/2000/svg" xmlns:xlink="http://www.w3.org/1999/xlink" x="0px" y="0px"
	 viewBox="0 0 30 30" enable-background="new 0 0 30 30" xml:space="preserve">
<path fill="#303C42" d="M15,0C6.7290039,0,0,6.7290039,0,15s6.7290039,15,15,15s15-6.7290039,15-15S23.2709961,0,15,0z
	 M27.9863892,15.2681885c-3.2954102-0.7643433-6.3416138-0.9385986-9.154541-0.5236816
	c-0.3914185-0.9296875-0.8096313-1.8515625-1.2647095-2.7643433c2.9341431-1.2318115,5.3394775-2.9432983,7.4701538-5.2319946
	C26.8872681,8.9944458,28,11.8695068,28,15C28,15.0905151,27.9882202,15.1781006,27.9863892,15.2681885z M23.6410522,5.3145142
	c-1.9796753,2.1359863-4.2376099,3.7275391-7.0175171,4.8719482c-1.4290771-2.5939941-3.125061-5.1414185-5.1223755-7.6945801
	C12.616272,2.1794434,13.786499,2,15,2C18.3188477,2,21.3413696,3.2605591,23.6410522,5.3145142z M9.5252686,3.2254639
	c2.0466309,2.5621948,3.7709961,5.0834961,5.2070923,7.6384277c-3.338562,1.0531616-7.3905029,1.581665-12.4951172,1.6981812
	C3.0286255,8.4121094,5.7987061,4.9654541,9.5252686,3.2254639z M2.0220337,14.5653687
	c5.6036987-0.1121826,10.0326538-0.6975708,13.6767578-1.8952637c0.4121094,0.8147583,0.7954102,1.6359863,1.15271,2.4640503
	c-4.487793,1.1599121-8.336853,3.9626465-11.6149292,8.4212036C3.2283325,21.2664185,2,18.2772827,2,15
	C2,14.8532715,2.0172119,14.7109375,2.0220337,14.5653687z M6.6811523,24.9783936
	c3.0697632-4.2458496,6.6970825-6.880188,10.9460449-7.9197998c1.1722412,3.1151123,1.9909668,6.3674927,2.5084839,9.8795166
	C18.559021,27.6190186,16.8237305,28,15,28C11.8374634,28,8.9373169,26.8624878,6.6811523,24.9783936z M22.0075684,25.9324951
	c-0.5220947-3.2332153-1.3154297-6.2860718-2.4015503-9.2307739c2.5202026-0.3165283,5.2426147-0.1245117,8.1809082,0.5785522
	C27.1417236,20.9057617,24.9946289,24.0111084,22.0075684,25.9324951z"/>
<g>
</g>
<g>
</g>
<g>
</g>
<g>
</g>
<g>
</g>
<g>
</g>
<g>
</g>
<g>
</g>
<g>
</g>
<g>
</g>
<g>
</g>
<g>
</g>
<g>
</g>
<g>
</g>
<g>
</g>
</svg>
