<?xml version="1.0" encoding="iso-8859-1"?>
<!-- Generator: Adobe Illustrator 21.0.0, SVG Export Plug-In . SVG Version: 6.00 Build 0)  -->
<svg version="1.1" id="Layer_1" xmlns="http://www.w3.org/2000/svg" xmlns:xlink="http://www.w3.org/1999/xlink" x="0px" y="0px"
	 viewBox="0 0 30 30" enable-background="new 0 0 30 30" xml:space="preserve">
<g>
	<g id="XMLID_1367_">
		<path fill="#303C42" d="M8.5,11C7.121582,11,6,9.878418,6,8.5S7.121582,6,8.5,6S11,7.121582,11,8.5S9.878418,11,8.5,11z M8.5,7
			C7.6728516,7,7,7.6728516,7,8.5S7.6728516,10,8.5,10S10,9.3271484,10,8.5S9.3271484,7,8.5,7z"/>
	</g>
	<g id="XMLID_1373_">
		<path fill="#303C42" d="M10.5,25h-4C6.2236328,25,6,24.7763672,6,24.5v-12C6,12.2236328,6.2236328,12,6.5,12h4
			c0.2763672,0,0.5,0.2236328,0.5,0.5v12C11,24.7763672,10.7763672,25,10.5,25z M7,24h3V13H7V24z"/>
	</g>
	<g id="XMLID_1376_">
		<path fill="#303C42" d="M26,28H4c-1.1030273,0-2-0.8969727-2-2V4c0-1.1030273,0.8969727-2,2-2h22c1.1030273,0,2,0.8969727,2,2v22
			C28,27.1030273,27.1030273,28,26,28z M4,3C3.4487305,3,3,3.4487305,3,4v22c0,0.5512695,0.4487305,1,1,1h22
			c0.5512695,0,1-0.4487305,1-1V4c0-0.5512695-0.4487305-1-1-1H4z"/>
	</g>
	<g>
		<path fill="#303C42" d="M24.5,25h-4c-0.2763672,0-0.5-0.2236328-0.5-0.5v-7c0-0.8271484-0.6728516-1.5-1.5-1.5
			S17,16.6728516,17,17.5v7c0,0.2763672-0.2236328,0.5-0.5,0.5h-4c-0.2763672,0-0.5-0.2236328-0.5-0.5v-12
			c0-0.2763672,0.2236328-0.5,0.5-0.5h4c0.2763672,0,0.5,0.2236328,0.5,0.5v0.519043C17.8588867,12.3623047,18.9052734,12,20,12
			c2.7568359,0,5,2.2431641,5,5v7.5C25,24.7763672,24.7763672,25,24.5,25z M21,24h3v-7c0-2.2055664-1.7944336-4-4-4
			c-1.2055664,0-2.3388672,0.5527344-3.109375,1.5161133c-0.1333008,0.1655273-0.3549805,0.2314453-0.5561523,0.1591797
			C16.1342773,14.6049805,16,14.4160156,16,14.2036133V13h-3v11h3v-6.5c0-1.378418,1.121582-2.5,2.5-2.5s2.5,1.121582,2.5,2.5V24z"
			/>
	</g>
</g>
<g>
</g>
<g>
</g>
<g>
</g>
<g>
</g>
<g>
</g>
<g>
</g>
<g>
</g>
<g>
</g>
<g>
</g>
<g>
</g>
<g>
</g>
<g>
</g>
<g>
</g>
<g>
</g>
<g>
</g>
</svg>
