<?xml version="1.0" encoding="iso-8859-1"?>
<!-- Generator: Adobe Illustrator 21.0.0, SVG Export Plug-In . SVG Version: 6.00 Build 0)  -->
<svg version="1.1" id="Layer_1" xmlns="http://www.w3.org/2000/svg" xmlns:xlink="http://www.w3.org/1999/xlink" x="0px" y="0px"
	 viewBox="0 0 24 24" enable-background="new 0 0 24 24" xml:space="preserve">
<path fill="#303C42" d="M23.6256256,17.5161133c-2.3573513-0.6123047-4.1610069-2.0268555-5.0701599-3.9814453l2.1942711-1.7060547
	c0.4999847-0.3896484,0.7011509-1.0556641,0.5009613-1.6572266c-0.2353458-0.7016602-0.9501667-1.1459961-1.7001438-0.9990234
	l-1.5351105,0.2744141c0.421854-2.5678711-0.0810528-4.847168-1.4149971-6.418457C15.4901295,1.7202148,13.8554125,1,12,1
	c-1.856389,0-3.491106,0.7207031-4.6014237,2.0292969C6.0636559,4.6015625,5.5617175,6.8823242,5.9904156,9.4658203
	c-0.65623-0.1181641-1.5292506-0.2832031-1.5312037-0.2836914C3.710211,9.034668,2.9826939,9.4707031,2.7483261,10.1738281
	c-0.2001894,0.6000977,0.0009763,1.2641602,0.5009613,1.6523438l2.204035,1.706543
	c-0.9179411,1.956543-2.7215974,3.3710938-5.0789485,3.9833984c-0.2333914,0.0605469-0.3906132,0.2797852-0.3730356,0.5209961
	c0.0468736,0.6240234,0.4023316,1.3686523,1.8339291,1.3686523c0.282218,0,0.5800607-0.0249023,0.8642318-0.0493164
	c0.2343678-0.0205078,0.457994-0.0405273,0.6533005-0.0405273c0.1914005,0,0.2685466,0.0219727,0.2656169,0.0068359
	C3.9904759,19.7973633,4.0002413,20.4951172,4.0002413,20.5c0,0.2763672,0.2236261,0.5,0.4999847,0.5h1.9999399
	c0.5507646,0,1.2519155,0.387207,1.9950571,0.796875C9.5166769,22.3608398,10.6748447,23,12,23
	s2.4833231-0.6391602,3.504777-1.203125C16.2479191,21.387207,16.94907,21,17.4998341,21h1.999939
	c0.2744064,0,0.4980335-0.2236328,0.4999847-0.4980469c0-0.0068359,0.0107422-0.7143555,0.3495998-1.1533203
	c0.0068359-0.003418,0.0722637-0.0327148,0.297842-0.0327148c0.1953068,0,0.4189339,0.0200195,0.6533012,0.0405273
	c0.2841702,0.0244141,0.5820141,0.0493164,0.8642311,0.0493164c1.4315987,0,1.787056-0.7446289,1.8339291-1.3686523
	C24.0162392,17.7958984,23.8590164,17.5766602,23.6256256,17.5161133z"/>
<g>
</g>
<g>
</g>
<g>
</g>
<g>
</g>
<g>
</g>
<g>
</g>
<g>
</g>
<g>
</g>
<g>
</g>
<g>
</g>
<g>
</g>
<g>
</g>
<g>
</g>
<g>
</g>
<g>
</g>
</svg>
