<?xml version="1.0" encoding="iso-8859-1"?>
<!-- Generator: Adobe Illustrator 21.0.0, SVG Export Plug-In . SVG Version: 6.00 Build 0)  -->
<svg version="1.1" id="Layer_1" xmlns="http://www.w3.org/2000/svg" xmlns:xlink="http://www.w3.org/1999/xlink" x="0px" y="0px"
	 viewBox="0 0 24 24" enable-background="new 0 0 24 24" xml:space="preserve">
<g id="XMLID_1618_">
	<path id="XMLID_1550_" fill="none" stroke="#303C42" stroke-linecap="round" stroke-linejoin="round" stroke-miterlimit="10" d="
		M14.1757813,12l2.8188477-3.1708984c0.7338867-0.8261719,0.659668-2.0898438-0.1660156-2.8242188
		s-2.090332-0.6591797-2.8232422,0.1660156L10.5,10.1144409V7.5c0-1.1044922-0.8955078-2-2-2s-2,0.8955078-2,2v9
		c0,1.1044922,0.8955078,2,2,2s2-0.8955078,2-2v-2.6144409l3.5053711,3.9435425
		C14.4003906,18.2734375,14.9492188,18.5,15.5004883,18.5c0.4726563,0,0.9472656-0.1669922,1.328125-0.5048828
		c0.8256836-0.734375,0.8999023-1.9980469,0.1660156-2.8242188L14.1757813,12z"/>
	<path id="XMLID_1541_" fill="none" stroke="#303C42" stroke-linecap="round" stroke-linejoin="round" stroke-miterlimit="10" d="
		M21,1.5H3C2.1715729,1.5,1.5,2.1715729,1.5,3v18c0,0.8284264,0.6715729,1.5,1.5,1.5h18c0.8284264,0,1.5-0.6715736,1.5-1.5V3
		C22.5,2.1715729,21.8284264,1.5,21,1.5z"/>
</g>
<g>
</g>
<g>
</g>
<g>
</g>
<g>
</g>
<g>
</g>
<g>
</g>
<g>
</g>
<g>
</g>
<g>
</g>
<g>
</g>
<g>
</g>
<g>
</g>
<g>
</g>
<g>
</g>
<g>
</g>
</svg>
