<?xml version="1.0" encoding="iso-8859-1"?>
<!-- Generator: Adobe Illustrator 21.0.0, SVG Export Plug-In . SVG Version: 6.00 Build 0)  -->
<svg version="1.1" id="Layer_1" xmlns="http://www.w3.org/2000/svg" xmlns:xlink="http://www.w3.org/1999/xlink" x="0px" y="0px"
	 viewBox="0 0 30 30" enable-background="new 0 0 30 30" xml:space="preserve">
<path fill="none" stroke="#303C42" stroke-linecap="round" stroke-linejoin="round" stroke-miterlimit="10" d="M26.3790894,6.905365
	l-2.0205688-1.2008057c-1.6700439-0.2206421-2.546875,1.1965332-3.4061279,2.3606567
	c-1.0664673,1.4447632-1.7857056,3.0733643-1.7857056,4.4130859c0,1.2440186,1.2885742,3.4161987,2.3071899,4.6054077
	C22.0686035,17.2828674,22.5,17.8382263,22.5,18.5000305c0,0.8284302-0.6715698,1.5-1.5,1.5s-1.5-0.6715698-1.5-1.5
	c0-0.3412476,0.1183472-0.6522827,0.3103027-0.9042969c-0.4179077-0.8099976-1.2366943-1.965271-1.8341064-1.965271
	c-0.9292603,0-2.1311035,4.230896-2.7449951,5.8023682l-0.0497437-0.008606C15.3809204,21.735321,15.5,22.1030579,15.5,22.5000305
	c0,1.1045532-0.8954468,2-2,2s-2-0.8954468-2-2c0-0.942627,0.6542358-1.7276611,1.5319214-1.9391479
	C13.8731079,18.6824646,15,14.3695984,15,14.3695984s-1.9962158,1.3638916-3.5267334,2.3649902
	C11.4887695,16.8210754,11.5,16.9090881,11.5,17.0000305c0,0.8284302-0.6715698,1.5-1.5,1.5s-1.5-0.6715698-1.5-1.5
	s0.6715698-1.5,1.5-1.5c0.0688477,0,0.1345825,0.0112915,0.2009888,0.0202637
	c1.4929199-0.5263062,3.4302979-2.8532104,4.2037964-3.6724243c-0.5239258,0.5548706-1.8900757,0.6395264-2.9934082,0.6419067
	C11.2076416,13.0763245,10.6559448,13.5000305,10,13.5000305c-0.8284302,0-1.5-0.6715698-1.5-1.5s0.6715698-1.5,1.5-1.5
	c0.2714844,0,0.522583,0.0776978,0.7422485,0.2037964c2.0877686,0.0706787,4.3063354-0.8270264,6.043457-3.269043
	c1.7583008-2.4716797,2.0817261-4.4413452,1.5259399-5.3237305l-2.1907349-1.3018799
	c-0.6936035-0.4122314-1.5482178-0.4122314-2.2418213,0L3.6209106,6.905365C2.9273071,7.3175964,2.5,8.0793762,2.5,8.9037781
	v12.1924438c0,0.8244019,0.4273071,1.5862427,1.1209106,1.9984131l10.2581787,6.0961914
	c0.6936035,0.4122314,1.5482178,0.4122314,2.2418213,0l10.2581787-6.0961914C27.0726929,22.6824646,27.5,21.9206238,27.5,21.0962219
	V8.9037781C27.5,8.0793762,27.0726929,7.3175964,26.3790894,6.905365z"/>
<g>
</g>
<g>
</g>
<g>
</g>
<g>
</g>
<g>
</g>
<g>
</g>
<g>
</g>
<g>
</g>
<g>
</g>
<g>
</g>
<g>
</g>
<g>
</g>
<g>
</g>
<g>
</g>
<g>
</g>
</svg>
