<?xml version="1.0" encoding="iso-8859-1"?>
<!-- Generator: Adobe Illustrator 21.0.0, SVG Export Plug-In . SVG Version: 6.00 Build 0)  -->
<svg version="1.1" id="Layer_1" xmlns="http://www.w3.org/2000/svg" xmlns:xlink="http://www.w3.org/1999/xlink" x="0px" y="0px"
	 viewBox="0 0 24 24" enable-background="new 0 0 24 24" xml:space="preserve">
<path fill="#303C42" d="M22.5170898,16.8857422c-0.8134766-1.7250977-2.0175781-4.2636719-3.2426758-6.8461914
	c-1.3642578-2.8769531-2.7543945-5.8081055-3.659668-7.7299805C14.9541016,0.9067383,13.5351563,0,12,0
	S9.0458984,0.9067383,8.3852539,2.3095703C7.4648438,4.2636719,6.0429688,7.2612305,4.6567383,10.184082
	c-1.2011719,2.5322266-2.3759766,5.0083008-3.1748047,6.7016602C1.1621094,17.565918,1,18.2768555,1,19c0,2.7568359,2.2431641,5,5,5
	c1.8730469,0,4.1142578-1.3432617,6-3.234375C13.8857422,22.6567383,16.1269531,24,18,24c2.7568359,0,5-2.2431641,5-5
	C23,18.2763672,22.8374023,17.5649414,22.5170898,16.8857422z M9,13c0-1.6542969,1.3457031-3,3-3s3,1.3457031,3,3
	c0,2.0019531-1.2929688,4.355957-3,6.2768555C10.2929688,17.355957,9,15.0019531,9,13z M18,23
	c-1.5068359,0-3.543457-1.2353516-5.2988281-2.9814453C14.6064453,17.8642578,16,15.2011719,16,13c0-2.2055664-1.7944336-4-4-4
	s-4,1.7944336-4,4c0,2.2011719,1.3935547,4.8642578,3.2988281,7.0185547C9.543457,21.7646484,7.5068359,23,6,23
	c-2.2055664,0-4-1.7944336-4-4c0-0.574707,0.1303711-1.1425781,0.3867188-1.6879883
	c0.7983398-1.6923828,1.9726563-4.1679688,3.1733398-6.699707c1.3867188-2.9233398,2.809082-5.921875,3.7294922-7.8769531
	C9.7861328,1.6811523,10.8500977,1,12,1s2.2138672,0.6811523,2.7104492,1.7353516
	c0.9052734,1.9228516,2.2958984,4.8549805,3.6606445,7.7324219c1.2246094,2.5820313,2.4282227,5.1196289,3.2416992,6.8447266
	C21.8696289,17.8574219,22,18.4248047,22,19C22,21.2055664,20.2055664,23,18,23z"/>
<g>
</g>
<g>
</g>
<g>
</g>
<g>
</g>
<g>
</g>
<g>
</g>
<g>
</g>
<g>
</g>
<g>
</g>
<g>
</g>
<g>
</g>
<g>
</g>
<g>
</g>
<g>
</g>
<g>
</g>
</svg>
