<?xml version="1.0" encoding="iso-8859-1"?>
<!-- Generator: Adobe Illustrator 21.0.0, SVG Export Plug-In . SVG Version: 6.00 Build 0)  -->
<svg version="1.1" id="Layer_1" xmlns="http://www.w3.org/2000/svg" xmlns:xlink="http://www.w3.org/1999/xlink" x="0px" y="0px"
	 viewBox="0 0 24 24" enable-background="new 0 0 24 24" xml:space="preserve">
<g id="XMLID_1617_">
	
		<polyline id="XMLID_1545_" fill="none" stroke="#303C42" stroke-linecap="round" stroke-linejoin="round" stroke-miterlimit="10" points="
		8.5,8.5 8.5,13.5 6.5,13.5 6.5,10.5 8.5,10.5 	"/>
	
		<polyline id="XMLID_1551_" fill="none" stroke="#303C42" stroke-linecap="round" stroke-linejoin="round" stroke-miterlimit="10" points="
		14.5,13.5 12.5,13.5 12.5,10.5 14.5,10.5 14.5,15.5 12.5,15.5 	"/>
	
		<polyline id="XMLID_1552_" fill="none" stroke="#303C42" stroke-linecap="round" stroke-linejoin="round" stroke-miterlimit="10" points="
		18.5,13.5 16.5,13.5 16.5,10.5 18.5,10.5 18.5,15.5 16.5,15.5 	"/>
	
		<line id="XMLID_1553_" fill="none" stroke="#303C42" stroke-linecap="round" stroke-linejoin="round" stroke-miterlimit="10" x1="10.5" y1="13.5" x2="10.5" y2="10.5"/>
	<circle id="XMLID_1549_" fill="#303C42" cx="10.5" cy="9" r="0.5"/>
	<path id="XMLID_1544_" fill="none" stroke="#303C42" stroke-linecap="round" stroke-linejoin="round" stroke-miterlimit="10" d="
		M21,22.5H3c-0.8284271,0-1.5-0.6715736-1.5-1.5V3c0-0.8284271,0.6715729-1.5,1.5-1.5h18c0.8284264,0,1.5,0.6715729,1.5,1.5v18
		C22.5,21.8284264,21.8284264,22.5,21,22.5z"/>
</g>
<g>
</g>
<g>
</g>
<g>
</g>
<g>
</g>
<g>
</g>
<g>
</g>
<g>
</g>
<g>
</g>
<g>
</g>
<g>
</g>
<g>
</g>
<g>
</g>
<g>
</g>
<g>
</g>
<g>
</g>
</svg>
