<?xml version="1.0" encoding="iso-8859-1"?>
<!-- Generator: Adobe Illustrator 21.0.0, SVG Export Plug-In . SVG Version: 6.00 Build 0)  -->
<svg version="1.1" id="Layer_1" xmlns="http://www.w3.org/2000/svg" xmlns:xlink="http://www.w3.org/1999/xlink" x="0px" y="0px"
	 viewBox="0 0 24 24" enable-background="new 0 0 24 24" xml:space="preserve">
<path fill="#303C42" d="M21,1H3C1.8969727,1,1,1.8974609,1,3v18c0,1.1025391,0.8969727,2,2,2h18c1.1030273,0,2-0.8974609,2-2V3
	C23,1.8974609,22.1030273,1,21,1z M17.3681641,14.8388672c0.9155273,1.0302734,0.8227539,2.6142578-0.2070313,3.5302734
	C16.7016602,18.7763672,16.1123047,19,15.5004883,19c-0.7138672,0-1.3950195-0.3056641-1.8686523-0.8388672L11,15.2011719V16.5
	c0,1.3789063-1.121582,2.5-2.5,2.5S6,17.8789063,6,16.5v-9C6,6.1210938,7.121582,5,8.5,5S11,6.1210938,11,7.5v1.2988281
	l2.6318359-2.9599609c0.8803711-0.9912109,2.5380859-1.0898438,3.5292969-0.2080078
	c1.0297852,0.9160156,1.1225586,2.5,0.2075195,3.5302734L14.8447266,12L17.3681641,14.8388672z"/>
<g>
</g>
<g>
</g>
<g>
</g>
<g>
</g>
<g>
</g>
<g>
</g>
<g>
</g>
<g>
</g>
<g>
</g>
<g>
</g>
<g>
</g>
<g>
</g>
<g>
</g>
<g>
</g>
<g>
</g>
</svg>
