<?xml version="1.0" encoding="iso-8859-1"?>
<!-- Generator: Adobe Illustrator 21.0.0, SVG Export Plug-In . SVG Version: 6.00 Build 0)  -->
<svg version="1.1" id="Layer_1" xmlns="http://www.w3.org/2000/svg" xmlns:xlink="http://www.w3.org/1999/xlink" x="0px" y="0px"
	 viewBox="0 0 30 30" enable-background="new 0 0 30 30" xml:space="preserve">
<g id="XMLID_1375_">
	<path fill="#303C42" d="M22.1430664,30C19.987793,30,17.2993164,28.2612305,15,25.8481445
		C12.7006836,28.2612305,10.012207,30,7.8569336,30C4.6274414,30,2,27.2304688,2,23.8261719
		c0-0.8896484,0.1884766-1.7641602,0.5605469-2.6000977c0.9575195-2.1494141,2.3681641-5.2998047,3.8085938-8.5161133
		c1.640625-3.6640625,3.3198242-7.4135742,4.4086914-9.862793C11.546875,1.1176758,13.2041016,0,15,0
		s3.453125,1.1176758,4.222168,2.847168c1.0888672,2.4492188,2.7680664,6.1987305,4.4086914,9.862793
		c1.4404297,3.2163086,2.8510742,6.3666992,3.8081055,8.515625C27.8115234,22.0620117,28,22.9365234,28,23.8261719
		C28,27.2304688,25.3725586,30,22.1430664,30z M15.6621094,25.1220703C17.8354492,27.3862305,20.3349609,29,22.1430664,29
		C24.8212891,29,27,26.6791992,27,23.8261719c0-0.7485352-0.159668-1.4863281-0.4746094-2.1938477
		c-0.956543-2.1484375-2.3671875-5.2983398-3.8071289-8.5136719c-1.6411133-3.6650391-3.3208008-7.4150391-4.4101563-9.8652344
		C17.6904297,1.8632813,16.4228516,1,15,1s-2.6904297,0.8632813-3.3081055,2.253418
		c-1.0893555,2.4501953-2.769043,6.2001953-4.4101563,9.8652344c-1.4399414,3.215332-2.8505859,6.3652344-3.8076172,8.5141602
		C3.159668,22.3398438,3,23.0776367,3,23.8261719C3,26.6791992,5.1787109,29,7.8569336,29
		c1.8081055,0,4.3076172-1.6137695,6.480957-3.8779297C11.8710938,22.2988281,10,18.7675781,10,16c0-2.7568359,2.2431641-5,5-5
		c2.7104492,0,5,2.2895508,5,5C20,18.7675781,18.1289063,22.2988281,15.6621094,25.1220703z M15,12c-2.2055664,0-4,1.7944336-4,4
		c0,2.6411133,1.7519531,5.8378906,4,8.4003906c2.2480469-2.5625,4-5.7592773,4-8.4003906C19,13.831543,17.168457,12,15,12z"/>
</g>
<g>
</g>
<g>
</g>
<g>
</g>
<g>
</g>
<g>
</g>
<g>
</g>
<g>
</g>
<g>
</g>
<g>
</g>
<g>
</g>
<g>
</g>
<g>
</g>
<g>
</g>
<g>
</g>
<g>
</g>
</svg>
