<?xml version="1.0" encoding="iso-8859-1"?>
<!-- Generator: Adobe Illustrator 21.0.0, SVG Export Plug-In . SVG Version: 6.00 Build 0)  -->
<svg version="1.1" id="Layer_1" xmlns="http://www.w3.org/2000/svg" xmlns:xlink="http://www.w3.org/1999/xlink" x="0px" y="0px"
	 viewBox="0 0 30 30" enable-background="new 0 0 30 30" xml:space="preserve">
<g>
	<path fill="#303C42" d="M15.0025568,29.9990234c-7.1645508,0-12.9941406-5.8276367-12.9975586-12.9931641
		c-0.0898436-3.4194336,1.0087891-6.9462891,2.9394534-9.4355469c0.2890625-0.3720703,0.7817383-0.4780273,1.1987305-0.2563477
		c0.4375,0.234375,0.6328125,0.7280273,0.4746094,1.2016602c-0.3491211,1.0454102-0.5561523,2.1206055-0.6162109,3.1967773
		c-0.1357422,2.4560547,0.390625,4.8769531,1.5219727,6.9995117c0.1010742,0.190918,0.2509766,0.1899414,0.3598633,0.1547852
		c0.0483398-0.015625,0.2885742-0.1098633,0.2460938-0.4165039c-0.1152344-0.8242188-0.1733398-1.6674805-0.1733398-2.5053711
		c0-5.1396484,2.1601563-9.972168,5.9262695-13.2587891c1.6918945-1.4760742,4.2558584-2.3793945,7.6210928-2.6850586
		c0.5854492,0,2.3696289,0.0600586,2.8828125,0.8579102c0.7167969,1.1132813,3.6137695,7.4853516,3.6137695,16.1401367
		C28.0001144,24.1674805,22.169548,29.9990234,15.0025568,29.9990234z M5.669549,8.1992188
		c-1.7294924,2.2983398-2.7500002,5.5888672-2.664551,8.7866211c0,0.0043945,0,0.0087891,0,0.0131836
		c0,6.6166992,5.3823242,12,11.9975586,12s11.9975576-5.3833008,11.9975576-12
		c0-9.4716797-3.4199219-15.5454102-3.4545898-15.5991211c-0.1030273-0.1337891-0.8178711-0.4008789-1.996582-0.4008789
		c-3.105957,0.2841797-5.4794922,1.105957-7.0092764,2.440918c-3.5483398,3.0961914-5.5834961,7.6542969-5.5834961,12.5048828
		c0,0.7919922,0.0551758,1.5883789,0.1635742,2.3676758c0.0942383,0.6782227-0.2871094,1.2973633-0.9277344,1.5053711
		c-0.6181641,0.1982422-1.2416992-0.0546875-1.5512695-0.6352539c-1.2167969-2.284668-1.7832031-4.8867188-1.637207-7.5258789
		C5.0679865,10.4916992,5.2921076,9.3286133,5.669549,8.1992188z"/>
</g>
<g>
</g>
<g>
</g>
<g>
</g>
<g>
</g>
<g>
</g>
<g>
</g>
<g>
</g>
<g>
</g>
<g>
</g>
<g>
</g>
<g>
</g>
<g>
</g>
<g>
</g>
<g>
</g>
<g>
</g>
</svg>
