<?xml version="1.0" encoding="iso-8859-1"?>
<!-- Generator: Adobe Illustrator 21.0.0, SVG Export Plug-In . SVG Version: 6.00 Build 0)  -->
<svg version="1.1" id="Layer_1" xmlns="http://www.w3.org/2000/svg" xmlns:xlink="http://www.w3.org/1999/xlink" x="0px" y="0px"
	 viewBox="0 0 30 30" enable-background="new 0 0 30 30" xml:space="preserve">
<path fill="#303C42" d="M15,0C6.7290039,0,0,6.7290039,0,15s6.7290039,15,15,15s15-6.7290039,15-15S23.2709961,0,15,0z M17,15
	c0,3.8598633-3.1401367,7-7,7s-7-3.1401367-7-7s3.1401367-7,7-7c1.7739258,0,3.4658203,0.6650391,4.7646484,1.8720703
	c0.2021484,0.1879883,0.2138672,0.5043945,0.0258789,0.706543l-1.3613281,1.4648438
	c-0.1879883,0.203125-0.5048828,0.2138672-0.706543,0.0258789C11.9804688,11.3798828,11.0136719,11,10,11
	c-2.2055664,0-4,1.7944336-4,4s1.7944336,4,4,4c1.6328125,0,3.1030273-1.0200195,3.7075195-2.5H10
	c-0.2763672,0-0.5-0.2236328-0.5-0.5v-2c0-0.2763672,0.2236328-0.5,0.5-0.5h6.5c0.2763672,0,0.5,0.2236328,0.5,0.5V15z M26.5,16.5
	H24V19c0,0.2763672-0.2236328,0.5-0.5,0.5h-2c-0.2763672,0-0.5-0.2236328-0.5-0.5v-2.5h-2.5c-0.2763672,0-0.5-0.2236328-0.5-0.5v-2
	c0-0.2763672,0.2236328-0.5,0.5-0.5H21V11c0-0.2763672,0.2236328-0.5,0.5-0.5h2c0.2763672,0,0.5,0.2236328,0.5,0.5v2.5h2.5
	c0.2763672,0,0.5,0.2236328,0.5,0.5v2C27,16.2763672,26.7763672,16.5,26.5,16.5z"/>
<g>
</g>
<g>
</g>
<g>
</g>
<g>
</g>
<g>
</g>
<g>
</g>
<g>
</g>
<g>
</g>
<g>
</g>
<g>
</g>
<g>
</g>
<g>
</g>
<g>
</g>
<g>
</g>
<g>
</g>
</svg>
