<?xml version="1.0" encoding="iso-8859-1"?>
<!-- Generator: Adobe Illustrator 21.0.0, SVG Export Plug-In . SVG Version: 6.00 Build 0)  -->
<svg version="1.1" id="Layer_1" xmlns="http://www.w3.org/2000/svg" xmlns:xlink="http://www.w3.org/1999/xlink" x="0px" y="0px"
	 viewBox="0 0 30 30" enable-background="new 0 0 30 30" xml:space="preserve">
<g>
	<circle fill="#303C42" cx="15" cy="15" r="6"/>
	<path fill="#303C42" d="M29.9640656,14.734375C28.0524902,7.8125,22.7382145,4,15,4S1.9475091,7.8125,0.0359337,14.734375
		c-0.0479116,0.1738281-0.0479116,0.3574219,0,0.53125C1.9475091,22.1875,7.2617865,26,15,26
		s13.0524902-3.8125,14.9640656-10.734375C30.0119781,15.0917969,30.0119781,14.9082031,29.9640656,14.734375z M15,24
		C8.3461533,24,3.755439,20.8066406,2.0423546,15C3.755439,9.1933594,8.3461533,6,15,6s11.2445602,3.1933594,12.9576454,9
		C26.2445602,20.8066406,21.6538467,24,15,24z"/>
</g>
<g>
</g>
<g>
</g>
<g>
</g>
<g>
</g>
<g>
</g>
<g>
</g>
<g>
</g>
<g>
</g>
<g>
</g>
<g>
</g>
<g>
</g>
<g>
</g>
<g>
</g>
<g>
</g>
<g>
</g>
</svg>
