<?xml version="1.0" encoding="iso-8859-1"?>
<!-- Generator: Adobe Illustrator 21.0.0, SVG Export Plug-In . SVG Version: 6.00 Build 0)  -->
<svg version="1.1" id="Layer_1" xmlns="http://www.w3.org/2000/svg" xmlns:xlink="http://www.w3.org/1999/xlink" x="0px" y="0px"
	 viewBox="0 0 24 24" enable-background="new 0 0 24 24" xml:space="preserve">
<g id="XMLID_1383_">
	<path id="XMLID_1397_" fill="none" stroke="#303C42" stroke-linecap="round" stroke-linejoin="round" stroke-miterlimit="10" d="
		M2.4850423,13.9135571C1.5595948,13.3331785,0.913138,12.6844978,0.6408707,12
		c-0.9851652-2.4767714,3.301856-4.4845905,9.5753298-4.4845905S22.3739643,9.5232286,23.359129,12
		c0.4691315,1.1794291-0.2572727,2.2525177-1.8244076,3.053093"/>
	<path id="XMLID_1396_" fill="none" stroke="#303C42" stroke-linecap="round" stroke-linejoin="round" stroke-miterlimit="10" d="
		M9.5238199,20.8060455c-1.206357,0.7491302-2.3188405,1.1168671-3.2033844,0.9868698
		c-2.6472499-0.3890572-2.250442-5.0888863,0.8862948-10.497364s7.8255849-9.4775229,10.4728355-9.0884666
		c1.4250126,0.209429,1.9679604,1.6679752,1.676281,3.8137753"/>
	<path id="XMLID_1395_" fill="none" stroke="#303C42" stroke-linecap="round" stroke-linejoin="round" stroke-miterlimit="10" d="
		M16.2075214,10.5121346c2.2168427,4.7356558,2.9020195,9.4846115,1.472044,11.2807808
		c-1.6620846,2.0877151-5.5522985-0.6042957-8.6890354-6.0127735S4.6583509,4.2947998,6.3204355,2.2070849
		c0.895967-1.1254085,2.4394026-0.8618847,4.1632528,0.4673719"/>
	
		<circle id="XMLID_1394_" fill="none" stroke="#303C42" stroke-linecap="round" stroke-linejoin="round" stroke-miterlimit="10" cx="12" cy="12" r="1.5"/>
</g>
<g>
</g>
<g>
</g>
<g>
</g>
<g>
</g>
<g>
</g>
<g>
</g>
<g>
</g>
<g>
</g>
<g>
</g>
<g>
</g>
<g>
</g>
<g>
</g>
<g>
</g>
<g>
</g>
<g>
</g>
</svg>
