<?xml version="1.0" encoding="iso-8859-1"?>
<!-- Generator: Adobe Illustrator 21.0.0, SVG Export Plug-In . SVG Version: 6.00 Build 0)  -->
<svg version="1.1" id="Layer_1" xmlns="http://www.w3.org/2000/svg" xmlns:xlink="http://www.w3.org/1999/xlink" x="0px" y="0px"
	 viewBox="0 0 30 30" enable-background="new 0 0 30 30" xml:space="preserve">
<g>
	<path fill="#303C42" d="M19.5,9h8C27.7763672,9,28,8.7763672,28,8.5v-3C28,5.2236328,27.7763672,5,27.5,5h-8
		C19.2236328,5,19,5.2236328,19,5.5v3C19,8.7763672,19.2236328,9,19.5,9z"/>
	<path fill="#303C42" d="M23,10c-3.8598633,0-7,3.3642578-7,7.5s3.1401367,7.5,7,7.5
		c2.6879883,0,5.1699219-1.6870117,6.3237305-4.2978516c0.0683594-0.1547852,0.0537109-0.3334961-0.0385742-0.4750977
		S29.0351563,20,28.8662109,20h-3.5732422c-0.1323242,0-0.2597656,0.0527344-0.3535156,0.1464844
		C24.5498047,20.5356445,23.8969727,21,23,21c-1.1650391,0-2.2080078-0.796875-2.6972656-2h9.1235352
		c0.2504883,0,0.4628906-0.1855469,0.4956055-0.434082C29.9750977,18.1640625,30,17.8256836,30,17.5
		C30,13.3642578,26.8598633,10,23,10z M20.9165039,15C21.46875,14.362793,22.2070313,14,23,14s1.53125,0.362793,2.0834961,1
		H20.9165039z"/>
	<path fill="#303C42" d="M14.7397461,15.7255859c-0.3603516-0.6054688-0.8500977-1.1000977-1.4614258-1.4775391
		c0.2949219-0.2260742,0.5410156-0.4667969,0.7353516-0.7197266c0.6118164-0.7905273,0.921875-1.8344727,0.921875-3.1030273
		c0-1.2250977-0.3007813-2.2949219-0.8964844-3.184082C13.0483398,5.7944336,11.3710938,5.0405273,9.0444336,5H0.5
		C0.2236328,5,0,5.2236328,0,5.5v19C0,24.7763672,0.2236328,25,0.5,25h7.9677734
		c0.9272461,0,1.8041992-0.090332,2.6064453-0.2685547c0.8417969-0.1870117,1.5839844-0.5429688,2.2011719-1.0527344
		c0.5444336-0.4375,1.0063477-0.987793,1.3691406-1.6274414C15.2119141,21.0898438,15.5,19.9838867,15.5,18.7651367
		C15.5,17.5874023,15.2441406,16.5649414,14.7397461,15.7255859z M5,17h3.25C9.2148438,17,10,17.7851563,10,18.75
		S9.2148438,20.5,8.25,20.5H5V17z M8.75,12.5H5V10h3.75C9.4394531,10,10,10.5605469,10,11.25S9.4394531,12.5,8.75,12.5z"/>
</g>
<g>
</g>
<g>
</g>
<g>
</g>
<g>
</g>
<g>
</g>
<g>
</g>
<g>
</g>
<g>
</g>
<g>
</g>
<g>
</g>
<g>
</g>
<g>
</g>
<g>
</g>
<g>
</g>
<g>
</g>
</svg>
