<?xml version="1.0" encoding="iso-8859-1"?>
<!-- Generator: Adobe Illustrator 21.0.0, SVG Export Plug-In . SVG Version: 6.00 Build 0)  -->
<svg version="1.1" id="Layer_1" xmlns="http://www.w3.org/2000/svg" xmlns:xlink="http://www.w3.org/1999/xlink" x="0px" y="0px"
	 viewBox="0 0 30 30" enable-background="new 0 0 30 30" xml:space="preserve">
<g>
	<g id="XMLID_1329_">
		
			<polygon id="XMLID_1334_" fill="none" stroke="#303C42" stroke-linecap="round" stroke-linejoin="round" stroke-miterlimit="10" points="
			11.5,9.5 11.5,20.5 20.5,15 		"/>
	</g>
	<path fill="none" stroke="#303C42" stroke-linecap="round" stroke-linejoin="round" stroke-miterlimit="10" d="M29.5,20.833374
		c0,2.0809727-1.5946426,3.8129711-3.6683865,3.9862576C22.3299999,25.1122322,19.458334,25.5,15,25.5
		c-4.291667,0-7.3299999-0.3877678-10.8316126-0.6803684C2.0946431,24.6463451,0.5,22.9143467,0.5,20.833374V9.166625
		c0-2.0809717,1.5946431-3.8129702,3.6683874-3.9862561C7.6700001,4.8877668,10.875,4.5,15,4.5
		c4.333334,0,7.3299999,0.3877668,10.8316135,0.6803689C27.9053574,5.3536549,29.5,7.0856533,29.5,9.166625V20.833374z"/>
</g>
<g>
</g>
<g>
</g>
<g>
</g>
<g>
</g>
<g>
</g>
<g>
</g>
<g>
</g>
<g>
</g>
<g>
</g>
<g>
</g>
<g>
</g>
<g>
</g>
<g>
</g>
<g>
</g>
<g>
</g>
</svg>
