<?xml version="1.0" encoding="iso-8859-1"?>
<!-- Generator: Adobe Illustrator 21.0.0, SVG Export Plug-In . SVG Version: 6.00 Build 0)  -->
<svg version="1.1" id="Layer_1" xmlns="http://www.w3.org/2000/svg" xmlns:xlink="http://www.w3.org/1999/xlink" x="0px" y="0px"
	 viewBox="0 0 30 30" enable-background="new 0 0 30 30" xml:space="preserve">
<g>
	<path fill="#303C42" d="M10,14.9997215c-1.3129883,0-2,2.0127392-2,4.0000858s0.6870117,4.0000858,2,4.0000858
		s2-2.0127392,2-4.0000858S11.3129883,14.9997215,10,14.9997215z"/>
	<path fill="#303C42" d="M27.6904297,9.4566336c0.1948242-1.1338129,0.0786133-4.1739173-1.0805664-7.1388245
		c-0.0825195-0.210942-0.296875-0.3369213-0.5214844-0.3154364c-0.1196289,0.0136721-2.9467773,0.3574295-7.215332,3.2891328
		C18.0297852,5.0971651,16.7290039,4.999507,15,4.999507c-1.7275391,0-3.0283203,0.0976582-3.8730469,0.2919984
		C6.8579102,2.359802,4.0297852,2.0160446,3.909668,2.0023725c-0.2226563-0.021485-0.4384766,0.1044943-0.5209961,0.3154364
		C2.2294922,5.2827163,2.1137695,8.3228207,2.3085938,9.4566336C0.7553711,11.2574539,0,13.3346462,0,15.7966137
		c0,7.8673553,4.3569336,12.2004566,12.2680664,12.2004566L15.0004883,28l2.730957-0.0029297
		C25.6430664,27.9970703,30,23.663969,30,15.7966137C30,13.3336697,29.2441406,11.2574539,27.6904297,9.4566336z M25,18.4997959
		c0,5.1172981-3.9248047,5.5001183-10,5.5001183c-5.8554688,0-10-0.3945389-10-5.5001183
		c0-1.285183,0.4931641-2.382864,1.4648438-3.2617884c0.8115234-0.7334137,1.956543-0.9258013,3.3066406-0.9258013
		c0.7104492,0,1.4780273,0.0537128,2.2832031,0.1093779c0.9248047,0.0644541,1.8803711,0.1308622,2.9335938,0.1308622
		c0.0117188,0,0.0449219,0.0009766,0.0556641,0.0009766c1.0107422,0,1.972168-0.0664082,2.9018555-0.1318388
		c2.3344727-0.1611366,4.3515625-0.3027411,5.5888672,0.8164234C24.5068359,16.1169319,25,17.214613,25,18.4997959z"/>
	<path fill="#303C42" d="M20,14.9997215c-1.3129883,0-2,2.0127392-2,4.0000858s0.6870117,4.0000858,2,4.0000858
		s2-2.0127392,2-4.0000858S21.3129883,14.9997215,20,14.9997215z"/>
</g>
<g>
</g>
<g>
</g>
<g>
</g>
<g>
</g>
<g>
</g>
<g>
</g>
<g>
</g>
<g>
</g>
<g>
</g>
<g>
</g>
<g>
</g>
<g>
</g>
<g>
</g>
<g>
</g>
<g>
</g>
</svg>
