<?xml version="1.0" encoding="iso-8859-1"?>
<!-- Generator: Adobe Illustrator 21.0.0, SVG Export Plug-In . SVG Version: 6.00 Build 0)  -->
<svg version="1.1" id="Layer_1" xmlns="http://www.w3.org/2000/svg" xmlns:xlink="http://www.w3.org/1999/xlink" x="0px" y="0px"
	 viewBox="0 0 30 30" enable-background="new 0 0 30 30" xml:space="preserve">
<path fill="#303C42" d="M29.484375,13.7462769L16.2456055,0.5079956c-0.6650391-0.6660156-1.8266602-0.6655273-2.4907227-0.0004883
	L0.515625,13.7462769C0.1831055,14.0787964,0,14.5206909,0,14.991394s0.1831055,0.9125977,0.515625,1.2451172l13.2387695,13.2382813
	C14.0869141,29.8078003,14.5292969,29.991394,15,29.991394s0.9130859-0.1835938,1.2451172-0.5161133L29.484375,16.2365112
	C29.8168945,15.9039917,30,15.4620972,30,14.991394S29.8168945,14.0787964,29.484375,13.7462769z M28.7773438,15.52948
	L15.5375977,28.7687378c-0.2861328,0.2871094-0.7885742,0.2875977-1.0756836-0.0004883L1.2226563,15.52948
	C1.0791016,15.3859253,1,15.194519,1,14.991394s0.0791016-0.3945313,0.2226563-0.5380859l9.418396-9.4180298l2.2064819,2.2064819
	C12.6323242,7.6109009,12.5,8.0342407,12.5,8.491394c0,1.2072144,0.8602905,2.2171021,2,2.4494019v8.1011963
	c-1.1397095,0.2322998-2,1.2421875-2,2.4494019c0,1.378418,1.121582,2.5,2.5,2.5s2.5-1.121582,2.5-2.5
	c0-1.2072144-0.8602905-2.2171021-2-2.4494019v-8.1011963c0.2637939-0.053772,0.5067749-0.1582642,0.7334595-0.288208
	l3.3060303,3.3064575C19.2067261,14.383667,19,14.911377,19,15.491394c0,1.378418,1.121582,2.5,2.5,2.5s2.5-1.121582,2.5-2.5
	s-1.121582-2.5-2.5-2.5c-0.4353638,0-0.8389282,0.1217651-1.1958008,0.3182983l-3.3173828-3.317749
	C17.3043213,9.5727539,17.5,9.0565796,17.5,8.491394c0-1.378418-1.121582-2.5-2.5-2.5
	c-0.5588379,0-1.0700684,0.1907959-1.4868774,0.5018921l-2.1650391-2.1650391l3.1143188-3.1141968
	C14.6054688,1.0704956,14.796875,0.991394,15,0.991394s0.3945313,0.0791016,0.5380859,0.2231445l13.2392578,13.2387695
	C28.9208984,14.5968628,29,14.788269,29,14.991394S28.9208984,15.3859253,28.7773438,15.52948z M15,9.991394
	c-0.8271484,0-1.5-0.6728516-1.5-1.5s0.6728516-1.5,1.5-1.5s1.5,0.6728516,1.5,1.5S15.8271484,9.991394,15,9.991394z M15,19.991394
	c0.8271484,0,1.5,0.6728516,1.5,1.5s-0.6728516,1.5-1.5,1.5s-1.5-0.6728516-1.5-1.5S14.1728516,19.991394,15,19.991394z
	 M21.5,13.991394c0.8271484,0,1.5,0.6728516,1.5,1.5s-0.6728516,1.5-1.5,1.5s-1.5-0.6728516-1.5-1.5
	S20.6728516,13.991394,21.5,13.991394z"/>
<g>
</g>
<g>
</g>
<g>
</g>
<g>
</g>
<g>
</g>
<g>
</g>
<g>
</g>
<g>
</g>
<g>
</g>
<g>
</g>
<g>
</g>
<g>
</g>
<g>
</g>
<g>
</g>
<g>
</g>
</svg>
