<?xml version="1.0" encoding="iso-8859-1"?>
<!-- Generator: Adobe Illustrator 21.0.0, SVG Export Plug-In . SVG Version: 6.00 Build 0)  -->
<svg version="1.1" id="Layer_1" xmlns="http://www.w3.org/2000/svg" xmlns:xlink="http://www.w3.org/1999/xlink" x="0px" y="0px"
	 viewBox="0 0 30 30" enable-background="new 0 0 30 30" xml:space="preserve">
<g>
	<path fill="#303C42" d="M13.1108398,9.1855469c-1.4819336,1.8349609-1.8579102,6.1679688-1.9536133,8.2119141
		c-0.828125-1.2011719-1.4228516-3.5869141-1.7426758-4.8681641C9.065918,11.1318359,8.9833984,10.7998047,8.5,10.7998047
		c-0.421875,0-0.4760742,0-2.4267578,4.0634766c-0.359375,0.7490234-0.7963867,1.6591797-1.1362305,2.3330078
		c-0.1884766-1.1767578-0.4243164-3.0820313-0.5991211-4.4902344c-0.1264648-1.0205078-0.2451172-1.9775391-0.3427734-2.6757813
		C3.956543,9.7568359,3.7011719,9.5683594,3.4306641,9.6044922c-0.2734375,0.0380859-0.4638672,0.2910156-0.4257813,0.5644531
		c0.097168,0.6943359,0.2148438,1.6455078,0.3408203,2.6601563C4.1103516,19,4.1586914,19,4.75,19
		c0.4213867,0,0.4467773,0,2.2246094-3.703125c0.4453125-0.9287109,0.9985352-2.0810547,1.3911133-2.8398438
		c0.0263672,0.1044922,0.0527344,0.2109375,0.0786133,0.3134766c0.6835938,2.7431641,1.4765625,5.4804688,2.9677734,6.1816406
		c0.1542969,0.0732422,0.3359375,0.0615234,0.480957-0.0302734C12.0375977,18.8300781,12.125,18.6708984,12.125,18.5
		c0-2.5136719,0.4790039-7.0947266,1.7641602-8.6855469c0.1733322-0.2148438,0.1396484-0.5302734-0.0751953-0.703125
		C13.5991211,8.9365234,13.284668,8.9716797,13.1108398,9.1855469z"/>
	<path fill="#303C42" d="M17.7304688,10c-1.5742188,0-3.1611328,1.9375-3.6123047,4.4101563
		c-0.2880859,1.578125-0.0419922,3.0214844,0.6582031,3.8613281C15.1743164,18.7480469,15.6904297,19,16.2695313,19
		c1.5742188,0,3.1611328-1.9375,3.6123047-4.4101563c0.2880859-1.578125,0.0419922-3.0214844-0.6582031-3.8613281
		C18.8256836,10.2519531,18.3095703,10,17.7304688,10z M18.8984375,14.4101563
		c-0.5063477,2.7714844-2.4467773,4.3105469-3.3540039,3.2207031c-0.5048828-0.6054688-0.6748047-1.7705078-0.4428711-3.0410156
		C15.4936523,12.4423828,16.7773438,11,17.7304688,11c0.2768555,0,0.5205078,0.1240234,0.7250977,0.3691406
		C18.9604492,11.9746094,19.1303711,13.1396484,18.8984375,14.4101563z"/>
	<path fill="#303C42" d="M24.7304688,10c-1.5742188,0-3.1611328,1.9375-3.6123047,4.4101563
		c-0.2880859,1.578125-0.0419922,3.0214844,0.6582031,3.8613281C22.1743164,18.7480469,22.6904297,19,23.2695313,19
		c1.5742188,0,3.1611328-1.9375,3.6123047-4.4101563c0.2880859-1.578125,0.0419922-3.0214844-0.6582031-3.8613281
		C25.8256836,10.2519531,25.3095703,10,24.7304688,10z M25.8984375,14.4101563
		c-0.5063477,2.7714844-2.4462891,4.3105469-3.3540039,3.2207031c-0.5048828-0.6054688-0.6748047-1.7705078-0.4428711-3.0410156
		C22.4936523,12.4423828,23.7773438,11,24.7304688,11c0.2768555,0,0.5205078,0.1240234,0.7250977,0.3691406
		C25.9604492,11.9746094,26.1303711,13.1396484,25.8984375,14.4101563z"/>
	<path fill="#303C42" d="M28,6H2C0.8969727,6,0,6.8974609,0,8v12c0,1.1025391,0.8969727,2,2,2h13.7509766l3.4155273,1.9345703
		C19.2436523,23.9785156,19.3286133,24,19.4130859,24c0.1293945,0,0.2573242-0.0498047,0.3535156-0.1464844
		c0.1586914-0.1582031,0.1923828-0.4042969,0.081543-0.5996094L19.1396484,22H28c1.1030273,0,2-0.8974609,2-2V8
		C30,6.8974609,29.1030273,6,28,6z M29,20c0,0.5517578-0.4487305,1-1,1h-9.7172852
		c-0.1777344,0-0.3422852,0.0947266-0.4316406,0.2480469c-0.0898438,0.1533203-0.0913086,0.3427734-0.003418,0.4980469
		l0.2426758,0.4296875l-1.9609375-1.1103516C16.0541992,21.0224609,15.9692383,21,15.8828125,21H2c-0.5512695,0-1-0.4482422-1-1V8
		c0-0.5517578,0.4487305-1,1-1h26c0.5512695,0,1,0.4482422,1,1V20z"/>
</g>
<g>
</g>
<g>
</g>
<g>
</g>
<g>
</g>
<g>
</g>
<g>
</g>
<g>
</g>
<g>
</g>
<g>
</g>
<g>
</g>
<g>
</g>
<g>
</g>
<g>
</g>
<g>
</g>
<g>
</g>
</svg>
