<?xml version="1.0" encoding="iso-8859-1"?>
<!-- Generator: Adobe Illustrator 21.0.0, SVG Export Plug-In . SVG Version: 6.00 Build 0)  -->
<svg version="1.1" id="Layer_1" xmlns="http://www.w3.org/2000/svg" xmlns:xlink="http://www.w3.org/1999/xlink" x="0px" y="0px"
	 viewBox="0 0 24 24" enable-background="new 0 0 24 24" xml:space="preserve">
<path fill="#303C42" d="M12,0C5.3833008,0,0,5.3833008,0,12s5.3833008,12,12,12s12-5.3833008,12-12S18.6166992,0,12,0z M12,3
	c1.8977661,0,3.6575317,0.5938721,5.1107178,1.600769C16.571106,4.803894,16.043457,5.3278809,16.043457,6.6303711
	c0,0.6137695,0.4443359,1.3330078,0.9584961,2.1655273c0.690918,1.1181641,1.4736328,2.3857422,1.1821289,3.3642578
	c0,0.0004883,0,0.0004883,0,0.0004883c-0.4385376,1.3769531-1.0112915,3.1660767-1.5132446,4.7318115L13.8043213,8H14
	c0.2763672,0,0.5-0.2236328,0.5-0.5S14.2763672,7,14,7h-0.8823242h-2.894043H9.5C9.2236328,7,9,7.2236328,9,7.5S9.2236328,8,9.5,8
	h0.3695679l1.5767212,4.4783936L9.9644775,16.651062L7.1912231,8H7.5C7.7763672,8,8,7.7763672,8,7.5S7.7763672,7,7.5,7H6.5058594
	H4.5219116C6.1385498,4.59021,8.8866577,3,12,3z M8.7120361,20.1777344l-0.0233154,0.0655518L8.6824951,20.225647
	L8.7120361,20.1777344z M7.4535522,19.7539063C4.7940063,18.1882324,3,15.3029175,3,12
	c0-1.109375,0.2114258-2.1679077,0.5802002-3.1500854L7.4535522,19.7539063z M11.9746704,13.979187l2.3598633,6.7028198
	C13.588562,20.8829346,12.8085327,21,12,21c-0.8320313,0-1.6343994-0.1224976-2.3997192-0.3348389L11.9746704,13.979187z
	 M16.8652344,19.5600586c0.6618652-2.0620728,1.9992676-6.2321167,2.6333008-8.2353516
	c0.3730469-1.1784668,0.5933228-2.2096558,0.6687622-3.0820313C20.6964111,9.3879395,21,10.6578369,21,12
	C21,15.1696777,19.3486328,17.9561768,16.8652344,19.5600586z"/>
<g>
</g>
<g>
</g>
<g>
</g>
<g>
</g>
<g>
</g>
<g>
</g>
<g>
</g>
<g>
</g>
<g>
</g>
<g>
</g>
<g>
</g>
<g>
</g>
<g>
</g>
<g>
</g>
<g>
</g>
</svg>
