<?xml version="1.0" encoding="iso-8859-1"?>
<!-- Generator: Adobe Illustrator 21.0.0, SVG Export Plug-In . SVG Version: 6.00 Build 0)  -->
<svg version="1.1" id="Layer_1" xmlns="http://www.w3.org/2000/svg" xmlns:xlink="http://www.w3.org/1999/xlink" x="0px" y="0px"
	 viewBox="0 0 30 30" enable-background="new 0 0 30 30" xml:space="preserve">
<g>
	<g id="XMLID_1107_">
		<path fill="#303C42" d="M5.8373485,21.4857044c-0.4116211,0-0.7241211-0.1201172-0.9477539-0.2587891
			c-0.5566406-0.3447266-0.8886719-1.0224609-0.8886719-1.8144531v-3.7822266c0-0.7919922,0.3325195-1.4707031,0.8891602-1.8154297
			c0.4243164-0.2636719,1.1699219-0.4589844,2.3046875,0.1064453c1.1889653,0.5927734,2.4755864,1.1230469,3.4150395,1.5107422
			c0.3574219,0.1464844,0.6606445,0.2714844,0.8852539,0.3701172c0.7768555,0.3398438,1.5351563,0.7519531,1.5351563,1.71875
			s-0.7583008,1.3789063-1.5351563,1.71875c-0.2275391,0.0996094-0.5375977,0.2275391-0.9023438,0.3779297
			c-0.9350586,0.3857422-2.2163086,0.9140625-3.3979497,1.5029297C6.6571727,21.3880482,6.2074656,21.4857044,5.8373485,21.4857044z
			 M5.838325,14.55797c-0.1640625,0-0.3066406,0.0361328-0.421875,0.1074219
			c-0.2602539,0.1611328-0.4155273,0.5214844-0.4155273,0.9648438v3.7822266c0,0.4433594,0.1552734,0.8037109,0.4150391,0.9638672
			c0.2958984,0.1855469,0.7695313,0.1298828,1.3325195-0.1503906c1.2138672-0.6054688,2.5136724-1.1416016,3.4633794-1.5322266
			c0.3564453-0.1474609,0.6591797-0.2724609,0.8823242-0.3701172c0.8710938-0.3808594,0.9360352-0.5654297,0.9360352-0.8027344
			s-0.0649414-0.421875-0.9355469-0.8027344c-0.2197266-0.0957031-0.5166016-0.2177734-0.8657227-0.3623047
			c-0.9536133-0.3925781-2.2592778-0.9306641-3.4804692-1.5400391C6.4052196,14.6448841,6.095161,14.55797,5.838325,14.55797z"/>
	</g>
	<g id="XMLID_1106_">
		<path fill="#303C42" d="M14.2631302,30.0003529c-0.25,0-0.5117188-0.0429688-0.7768555-0.1308594l-3.5244141-1.1689453
			c-0.7387695-0.2441406-1.2543945-0.7519531-1.4155273-1.3916016c-0.1245117-0.4951172-0.0869141-1.2802734,0.7983398-2.2148438
			c0.9223633-0.9736328,1.815918-2.0615234,2.4682617-2.8554688c0.2446289-0.2978516,0.453125-0.5517578,0.612793-0.7382813
			c0.5576172-0.6513672,1.1767578-1.2626953,2.09375-0.9589844l0,0c0.9072266,0.2998047,1.0576172,1.1621094,1.1342773,2.0185547
			c0.0219727,0.2480469,0.0449219,0.5810547,0.0712891,0.9716797c0.0703125,1.0322266,0.1669922,2.4462891,0.3515625,3.7861328
			c0.1791992,1.2929688-0.25,1.953125-0.6411133,2.2783203C15.1142044,29.8636341,14.7074661,30.0003529,14.2631302,30.0003529z
			 M14.0590286,21.4632435c-0.1723633,0-0.3974609,0.1318359-0.8740234,0.6875
			c-0.1557617,0.1826172-0.3598633,0.4306641-0.5996094,0.7226563c-0.6616211,0.8056641-1.5678711,1.9091797-2.5151367,2.9082031
			c-0.4467773,0.4716797-0.6435547,0.9277344-0.5541992,1.2832031c0.074707,0.296875,0.3588867,0.5537109,0.7602539,0.6865234
			l3.5244141,1.1689453c0.3955078,0.1308594,0.7675781,0.0966797,0.9946289-0.0927734
			c0.2783203-0.2314453,0.3813477-0.71875,0.2910156-1.3730469c-0.1899414-1.3740234-0.2875977-2.8076172-0.3588867-3.8544922
			c-0.0263672-0.3828125-0.0483398-0.7080078-0.0698242-0.9511719c-0.0859375-0.9648438-0.2416992-1.0888672-0.4526367-1.1582031
			l0,0C14.1576614,21.4749622,14.1107864,21.4632435,14.0590286,21.4632435z"/>
	</g>
	<g id="XMLID_1105_">
		<path fill="#303C42" d="M21.7284622,27.4778919c-0.0385742,0-0.0766602-0.0009766-0.1152344-0.0039063
			c-0.5024414-0.0351563-1.2265625-0.3173828-1.8232422-1.4648438c-0.6225586-1.1962891-1.3598633-2.3994141-1.8979492-3.2773438
			c-0.2021484-0.3310547-0.3745117-0.6123047-0.4990234-0.8251953c-0.4306641-0.7373047-0.8046875-1.5224609-0.2490234-2.3037109
			c0.5615234-0.7910156,1.4165039-0.6689453,2.2460938-0.4755859c0.2387695,0.0556641,0.5585938,0.1367188,0.9350586,0.2324219
			c0.9814453,0.2509766,2.3261719,0.5927734,3.6269531,0.8261719c1.2426758,0.2226563,1.7304688,0.8261719,1.9208984,1.2929688
			c0.2485352,0.6074219,0.125,1.3525391-0.3295898,1.9912109l-2.1782227,3.0605469
			C22.9335403,27.1380482,22.3422318,27.4778919,21.7284622,27.4778919z M18.3954544,19.9837513
			c-0.265625,0-0.3554688,0.0849609-0.4370117,0.1992188c-0.1333008,0.1875-0.1899414,0.3847656,0.2978516,1.2197266
			c0.121582,0.2080078,0.2905273,0.4833984,0.4887695,0.8066406c0.5458984,0.890625,1.2929688,2.1113281,1.9316406,3.3388672
			c0.2988281,0.5742188,0.65625,0.9042969,1.0058594,0.9277344c0.2939453,0.015625,0.6191406-0.1757813,0.8681641-0.5253906
			l2.1782227-3.0605469c0.2548828-0.3583984,0.3364258-0.7441406,0.2182617-1.0332031
			c-0.137207-0.3369141-0.5424805-0.5732422-1.171875-0.6865234c-1.3359375-0.2392578-2.7006836-0.5869141-3.6972656-0.8408203
			c-0.3676758-0.09375-0.6801758-0.1738281-0.9140625-0.2275391C18.8065872,20.0189075,18.564888,19.9837513,18.3954544,19.9837513z
			"/>
	</g>
	<g id="XMLID_1099_">
		<path fill="#303C42" d="M18.4003372,17.3187122c-0.4780273,0-0.9199219-0.1464844-1.2563477-0.6191406l0,0
			c-0.5556641-0.7802734-0.1816406-1.5654297,0.2490234-2.3027344c0.1254883-0.2148438,0.2998047-0.5,0.5048828-0.8349609
			c0.5366211-0.8759766,1.2714844-2.0761719,1.8920898-3.2675781c0.5966797-1.1474609,1.3208008-1.4296875,1.8232422-1.4648438
			C22.2685013,8.77672,22.9061966,9.127306,23.365181,9.7728138l2.1782227,3.0595703
			c0.4545898,0.6386719,0.5776367,1.3828125,0.3295898,1.9912109c-0.1899414,0.4667969-0.6777344,1.0703125-1.9208984,1.2939453
			c-1.3007813,0.2333984-2.6455078,0.5751953-3.6269531,0.8261719c-0.3764648,0.0957031-0.6962891,0.1767578-0.9355469,0.2324219
			C19.0575638,17.2532825,18.7206497,17.3187122,18.4003372,17.3187122z M21.724556,9.8255482
			c-0.0141602,0-0.027832,0.0009766-0.0419922,0.0019531c-0.3496094,0.0234375-0.7070313,0.3535156-1.0058594,0.9277344
			c-0.6362305,1.2226563-1.3818359,2.4404297-1.9262695,3.3291016c-0.2006836,0.3271484-0.3710938,0.6064453-0.4941406,0.8164063
			c-0.4873047,0.8349609-0.4311523,1.0322266-0.2978516,1.21875l0,0c0.1333008,0.1865234,0.2880859,0.2958984,1.2055664,0.0820313
			c0.2338867-0.0537109,0.5463867-0.1337891,0.9140625-0.2275391c0.996582-0.2539063,2.3613281-0.6015625,3.6972656-0.8408203
			c0.6293945-0.1132813,1.034668-0.3505859,1.171875-0.6865234c0.1181641-0.2900391,0.0361328-0.6757813-0.2182617-1.0341797
			l-2.1782227-3.0595703C22.3134193,10.0198841,22.0077591,9.8255482,21.724556,9.8255482z"/>
	</g>
	<g id="XMLID_1098_">
		<path fill="#303C42" d="M13.7655716,14.8685169c-0.6044922,0-1.1552734-0.3105469-1.4741211-0.8300781l-6.17627-10.0878906
			c-0.2949219-0.4824219-0.3427734-1.0830078-0.128418-1.6064453c0.2172852-0.5263673,0.6738281-0.9160157,1.2226563-1.0419923
			l5.5605474-1.2607422c0.503418-0.1132813,1.027832,0.0078125,1.4296875,0.3183594
			c0.4038086,0.3105469,0.6523438,0.7861328,0.6806641,1.3027344l0.6176758,11.3476563
			c0.0444336,0.8017578-0.4511719,1.53125-1.2050781,1.7753906C14.1293411,14.8401966,13.9506302,14.8685169,13.7655716,14.8685169z
			 M13.1478958,0.9993764c-0.0532227,0-0.1069336,0.0058594-0.159668,0.0175781L7.4315867,2.2767203
			C7.2001414,2.3304312,7.0053172,2.4974234,6.9120555,2.7239859C6.8178172,2.9534781,6.8388133,3.21715,6.9682078,3.429064
			l6.1757817,10.0869141c0.1767578,0.2880859,0.5566406,0.4179688,0.8369141,0.3193359
			c0.3266602-0.1054688,0.5380859-0.421875,0.519043-0.7705078L13.8822708,1.7171499
			c-0.0126953-0.2255859-0.1196289-0.4316406-0.293457-0.5654297C13.4618607,1.0530874,13.3051224,0.9993764,13.1478958,0.9993764z"
			/>
	</g>
</g>
<g>
</g>
<g>
</g>
<g>
</g>
<g>
</g>
<g>
</g>
<g>
</g>
<g>
</g>
<g>
</g>
<g>
</g>
<g>
</g>
<g>
</g>
<g>
</g>
<g>
</g>
<g>
</g>
<g>
</g>
</svg>
