<?xml version="1.0" encoding="iso-8859-1"?>
<!-- Generator: Adobe Illustrator 21.0.0, SVG Export Plug-In . SVG Version: 6.00 Build 0)  -->
<svg version="1.1" id="Layer_1" xmlns="http://www.w3.org/2000/svg" xmlns:xlink="http://www.w3.org/1999/xlink" x="0px" y="0px"
	 viewBox="0 0 24 24" enable-background="new 0 0 24 24" xml:space="preserve">
<g>
	<path fill="#303C42" d="M12,12c3.3085938,0,6-2.6914063,6-6s-2.6914063-6-6-6S6,2.6914063,6,6S8.6914063,12,12,12z M12,3
		c1.6542969,0,3,1.3457031,3,3s-1.3457031,3-3,3S9,7.6542969,9,6S10.3457031,3,12,3z"/>
	<path fill="#303C42" d="M18.8017578,15.5205078C19.5517578,15.0234375,20,14.1933594,20,13.2988281
		c0-1.0947266-0.8623047-1.953125-1.9628906-1.953125c-0.4355469,0-0.8554688,0.1416016-1.2128906,0.4091797
		C15.4208984,12.8027344,13.7529297,13.3574219,12,13.3574219s-3.4208984-0.5546875-4.8242188-1.6025391
		c-0.3574219-0.2675781-0.7773438-0.4091797-1.2128906-0.4091797C4.8623047,11.3457031,4,12.2041016,4,13.2988281
		c0,0.8945313,0.4482422,1.7246094,1.1982422,2.2207031c0.9667969,0.6435547,2.0185547,1.1455078,3.1298828,1.4951172
		c0.2089844,0.0634766,0.4238281,0.1220703,0.6435547,0.1767578l-3.2832031,3.2119141
		c-0.3984375,0.3974609-0.6171875,0.9267578-0.6171875,1.4892578s0.21875,1.0917969,0.6171875,1.4902344
		c0.796875,0.796875,2.1777344,0.8027344,2.9863281-0.0058594L12,19.9335938l3.3310547,3.4492188
		C15.7294922,23.78125,16.2587891,24,16.8212891,24s1.0917969-0.21875,1.4902344-0.6171875s0.6171875-0.9277344,0.6171875-1.4902344
		s-0.21875-1.0917969-0.6210938-1.4931641l-3.2792969-3.2080078c0.2207031-0.0546875,0.4365234-0.1142578,0.6464844-0.1787109
		C16.7832031,16.6650391,17.8349609,16.1630859,18.8017578,15.5205078z"/>
</g>
<g>
</g>
<g>
</g>
<g>
</g>
<g>
</g>
<g>
</g>
<g>
</g>
<g>
</g>
<g>
</g>
<g>
</g>
<g>
</g>
<g>
</g>
<g>
</g>
<g>
</g>
<g>
</g>
<g>
</g>
</svg>
