<?xml version="1.0" encoding="iso-8859-1"?>
<!-- Generator: Adobe Illustrator 21.0.0, SVG Export Plug-In . SVG Version: 6.00 Build 0)  -->
<svg version="1.1" id="Layer_1" xmlns="http://www.w3.org/2000/svg" xmlns:xlink="http://www.w3.org/1999/xlink" x="0px" y="0px"
	 viewBox="0 0 24 24" enable-background="new 0 0 24 24" xml:space="preserve">
<g id="XMLID_1583_">
	<path id="XMLID_1351_" fill="none" stroke="#303C42" stroke-linecap="round" stroke-linejoin="round" stroke-miterlimit="10" d="
		M21.5,10c0-5.2467041-4.2532959-9.5-9.5-9.5S2.5,4.7532959,2.5,10c0,5.0778809,3.9872437,9.2130737,9,9.4747314V23.5
		c5.7590942-1.541687,10-6.7546387,10-13l-0.0261841,0.0183105C21.4831543,10.3456421,21.5,10.1749878,21.5,10z"/>
	<path id="XMLID_1352_" fill="none" stroke="#303C42" stroke-linecap="round" stroke-linejoin="round" stroke-miterlimit="10" d="
		M7.5,7.5v3H9v2c0,0,1.5-0.3125,1.5-2v-3H7.5z"/>
	<path id="XMLID_1349_" fill="none" stroke="#303C42" stroke-linecap="round" stroke-linejoin="round" stroke-miterlimit="10" d="
		M13.5,7.5v3H15v2c0,0,1.5-0.3125,1.5-2v-3H13.5z"/>
</g>
<g>
</g>
<g>
</g>
<g>
</g>
<g>
</g>
<g>
</g>
<g>
</g>
<g>
</g>
<g>
</g>
<g>
</g>
<g>
</g>
<g>
</g>
<g>
</g>
<g>
</g>
<g>
</g>
<g>
</g>
</svg>
