<?xml version="1.0" encoding="iso-8859-1"?>
<!-- Generator: Adobe Illustrator 21.0.0, SVG Export Plug-In . SVG Version: 6.00 Build 0)  -->
<svg version="1.1" id="Layer_1" xmlns="http://www.w3.org/2000/svg" xmlns:xlink="http://www.w3.org/1999/xlink" x="0px" y="0px"
	 viewBox="0 0 30 30" enable-background="new 0 0 30 30" xml:space="preserve">
<g>
	<path fill="#303C42" d="M14.5800781,8.6343622c0.0917969,0.142415,0.25,0.2282543,0.4199219,0.2282543
		s0.328125-0.0858393,0.4199219-0.2282543l2.5-3.8647041c0.0996094-0.15412,0.1064453-0.3492084,0.0195313-0.5101566
		C17.8515625,4.0985537,17.6835938,3.9990585,17.5,3.9990585h-5c-0.1835938,0-0.3515625,0.0994952-0.4394531,0.260443
		c-0.0869141,0.1609483-0.0800781,0.3560367,0.0195313,0.5101566L14.5800781,8.6343622z"/>
	<path fill="#303C42" d="M11.1582031,16.7734585c-0.1005859-0.1004715-0.2265625-0.1619244-0.3828125-0.1443672
		c-0.1416016,0.0087795-0.2734375,0.0770607-0.3623047,0.188261c-0.6347656,0.801815-1.1474609,1.5655861-1.5625,2.3264313
		C3.3027344,19.8919487,0,21.505331,0,23.4766998c0,1.2485676,1.3105469,2.3586216,3.7910156,3.2092075
		c0.0061035,0.0021343,0.0122681,0.0012188,0.0184326,0.003109c0.0050659,0.001524,0.008667,0.0053043,0.0137939,0.0066452
		C4.8613281,26.9756145,6.2333984,27,6.6738281,27c0.0800781,0,0.1289063-0.0009747,0.1396484-0.0009747
		c0.2646484-0.0048771,0.4794922-0.2145977,0.4912109-0.4789429c0.0107422-0.2643452-0.1865234-0.4906483-0.4501953-0.5169849
		l-2.7765503-0.278307c-1.3355103-0.5155811-1.8171997-1.029274-1.8171997-1.340929
		c0-0.5589275,1.4541016-1.5841179,5.3916016-2.253273c-0.015625,0.0390186-0.0322266,0.0780373-0.0478516,0.1180286
		C7.3144531,22.9665432,6.9853516,23.7800636,7,24.4853077c0.0058594,0.27215,0.2275391,0.4896736,0.5,0.4896736h4
		c0.2763672,0,0.5-0.2233772,0.5-0.4994278c0-1.0446987,0.6533203-2.5634632,1.8398438-4.277317
		c0.1289063-0.1863079,0.1162109-0.4350471-0.0302734-0.6077003C13.1113281,18.7711639,12.2685547,17.8757076,11.1582031,16.7734585
		z"/>
	<path fill="#303C42" d="M21.1396484,19.1428089c-0.7294922-1.3158722-1.7578125-2.3986149-2.8427734-3.5418339
		l-0.0976563-0.1033964C21.9277344,11.807478,26,7.6569691,26,3.4996316c0-0.1433899-0.0615234-0.279952-0.1689453-0.3745699
		c-0.1074219-0.0946181-0.2460938-0.1394885-0.3935661-0.120955l-4,0.4994268
		C21.2705078,3.5240178,21.125,3.6283901,21.0507813,3.7805593c-1.3857422,2.8375633-3.3144531,5.4478474-6.0488281,8.1820145
		c-2.7392578-2.7380686-4.6689453-5.3483534-6.0527344-8.1820145C8.875,3.6283901,8.7294922,3.5240178,8.5624895,3.5035336
		l-4-0.4994268c-0.1464739-0.0185335-0.2861223,0.0263369-0.3935442,0.120955C4.0615234,3.2196796,4,3.3562417,4,3.4996316
		c0,3.9466417,3.6328125,7.7177038,7.1464844,11.365859C14.4140625,18.2571068,17.5,21.4604607,17.5,24.4755535
		c0,0.2760506,0.2236328,0.4994278,0.5,0.4994278h4c0.2724609,0,0.4941406-0.2175236,0.5-0.4896736
		c0.015625-0.7432861-0.1015625-1.6377678-0.2519531-2.3722763c4.0126953,0.6691532,5.4912109,1.7070255,5.4912109,2.2708302
		c0,0.311655-0.4816895,0.8253479-1.8171997,1.340929l-2.7765503,0.278307
		c-0.2636719,0.0263367-0.4609375,0.2526398-0.4501953,0.5169849c0.0117188,0.2643452,0.2265625,0.4740658,0.4912109,0.4789429
		C23.1972656,26.9990253,23.2460938,27,23.3261719,27c0.4404297,0,1.8125-0.0243855,2.8505859-0.3043385
		c0.005127-0.0013409,0.008728-0.0051212,0.0137939-0.0066452c0.0061646-0.0018902,0.0123291-0.0009747,0.0184326-0.003109
		C28.6894531,25.8353214,30,24.7252674,30,23.4766998C30,21.5033798,26.6943359,19.8899975,21.1396484,19.1428089z"/>
</g>
<g>
</g>
<g>
</g>
<g>
</g>
<g>
</g>
<g>
</g>
<g>
</g>
<g>
</g>
<g>
</g>
<g>
</g>
<g>
</g>
<g>
</g>
<g>
</g>
<g>
</g>
<g>
</g>
<g>
</g>
</svg>
