<?xml version="1.0" encoding="iso-8859-1"?>
<!-- Generator: Adobe Illustrator 21.0.0, SVG Export Plug-In . SVG Version: 6.00 Build 0)  -->
<svg version="1.1" id="Layer_1" xmlns="http://www.w3.org/2000/svg" xmlns:xlink="http://www.w3.org/1999/xlink" x="0px" y="0px"
	 viewBox="0 0 30 30" enable-background="new 0 0 30 30" xml:space="preserve">
<g>
	<path fill="#303C42" d="M19,11c0-1.6542969-1.3457031-3-3-3h-6v6h6C17.6542969,14,19,12.6542969,19,11z"/>
	<path fill="#303C42" d="M16.5,15H10v7h6.5c1.9296875,0,3.5-1.5703125,3.5-3.5S18.4296875,15,16.5,15z"/>
	<path fill="#303C42" d="M26,2H4C2.8969727,2,2,2.8974609,2,4v22c0,1.1025391,0.8969727,2,2,2h22c1.1030273,0,2-0.8974609,2-2V4
		C28,2.8974609,27.1030273,2,26,2z M16.5,23h-7C9.2236328,23,9,22.7763672,9,22.5v-15C9,7.2236328,9.2236328,7,9.5,7H16
		c2.2055664,0,4,1.7939453,4,4c0,1.3916016-0.7138672,2.6191406-1.7944336,3.3359375C19.8432617,15.0087891,21,16.6220703,21,18.5
		C21,20.9814453,18.9814453,23,16.5,23z"/>
</g>
<g>
</g>
<g>
</g>
<g>
</g>
<g>
</g>
<g>
</g>
<g>
</g>
<g>
</g>
<g>
</g>
<g>
</g>
<g>
</g>
<g>
</g>
<g>
</g>
<g>
</g>
<g>
</g>
<g>
</g>
</svg>
