<?xml version="1.0" encoding="iso-8859-1"?>
<!-- Generator: Adobe Illustrator 21.0.0, SVG Export Plug-In . SVG Version: 6.00 Build 0)  -->
<svg version="1.1" id="Layer_1" xmlns="http://www.w3.org/2000/svg" xmlns:xlink="http://www.w3.org/1999/xlink" x="0px" y="0px"
	 viewBox="0 0 24 24" enable-background="new 0 0 24 24" xml:space="preserve">
<g id="XMLID_1328_">
	
		<circle id="XMLID_2721_" fill="none" stroke="#303C42" stroke-linecap="round" stroke-linejoin="round" stroke-miterlimit="10" cx="12" cy="12" r="11.5"/>
	<path id="XMLID_1337_" fill="none" stroke="#303C42" stroke-linecap="round" stroke-linejoin="round" stroke-miterlimit="10" d="
		M8,17.5c-3.0327148,0-5.5-2.4672852-5.5-5.5S4.9672852,6.5,8,6.5c1.46875,0,2.8496094,0.5717773,3.8891602,1.6103516
		l-1.4140625,1.4150391C9.8139648,8.8642578,8.9345703,8.5,8,8.5c-1.9296875,0-3.5,1.5703125-3.5,3.5s1.5703125,3.5,3.5,3.5
		c1.5825195,0,2.9233398-1.0556641,3.3544922-2.5H8v-2h5.5v1C13.5,15.0327148,11.0327148,17.5,8,17.5z"/>
	
		<polygon id="XMLID_1339_" fill="none" stroke="#303C42" stroke-linecap="round" stroke-linejoin="round" stroke-miterlimit="10" points="
		21.5,11 19.5,11 19.5,9 17.5,9 17.5,11 15.5,11 15.5,13 17.5,13 17.5,15 19.5,15 19.5,13 21.5,13 	"/>
</g>
<g>
</g>
<g>
</g>
<g>
</g>
<g>
</g>
<g>
</g>
<g>
</g>
<g>
</g>
<g>
</g>
<g>
</g>
<g>
</g>
<g>
</g>
<g>
</g>
<g>
</g>
<g>
</g>
<g>
</g>
</svg>
