<?xml version="1.0" encoding="iso-8859-1"?>
<!-- Generator: Adobe Illustrator 21.0.0, SVG Export Plug-In . SVG Version: 6.00 Build 0)  -->
<svg version="1.1" id="Layer_1" xmlns="http://www.w3.org/2000/svg" xmlns:xlink="http://www.w3.org/1999/xlink" x="0px" y="0px"
	 viewBox="0 0 24 24" enable-background="new 0 0 24 24" xml:space="preserve">
<path fill="#303C42" d="M23.7358398,8.0594006c-0.1621094-0.0888677-0.3598633-0.0771489-0.5131836,0.0244141l-2.3300781,1.5537109
	C19.2941895,8.4746838,17.2246094,7.658277,15,7.2738776V1.4998298c0-0.1728516-0.0898438-0.3339844-0.2373047-0.4257813
	c-0.1474609-0.0898438-0.3320313-0.0986328-0.4863281-0.0214844l-3,1.5C11.1069336,2.6375251,11,2.8103766,11,2.9998298v4.0461426
	C4.7955322,7.3866706,0,10.8134899,0,14.9998302c0,4.4316406,6.2910156,8,11.5,8
	c0.0756836,0,0.1456299-0.0194702,0.2098999-0.0494995c0.0043945-0.0020142,0.0093994-0.0010986,0.0137329-0.0032349l3-1.5
	C14.8930664,21.3621349,15,21.1892834,15,20.9998302V10.2402477c1.1835327,0.2235107,2.31427,0.6101074,3.2768555,1.1404419
	l-1.0541992,0.703125c-0.1708984,0.1142578-0.2543945,0.3203125-0.2114258,0.5205078
	c0.0429688,0.2011719,0.2041016,0.3544922,0.4067383,0.3886719l6,1c0.0273438,0.0048828,0.0546875,0.0068359,0.0820313,0.0068359
	c0.1176758,0,0.2324219-0.0410156,0.3232422-0.1181641C23.9355469,13.7859631,24,13.6472912,24,13.4998302v-5
	C24,8.3152599,23.8984375,8.1463146,23.7358398,8.0594006z M11,19.9132214c-3.9650879-0.4252319-7-2.5211182-7-4.9133911
	s3.0349121-4.4881592,7-4.9133911V19.9132214z M1,14.9998302c0-3.640625,4.3520508-6.6376953,10-6.9619141v1.0380859
	c-4.5927734,0.4541016-8,2.9501953-8,5.9238281s3.4072266,5.4697266,8,5.9238281v1.0644531
	C6.3764648,21.7732677,1,18.6375256,1,14.9998302z M14,20.6912365l-2,1v-1.2275391V9.5359631V7.5164313V3.3084235l2-1V7.682447
	v1.9580083V20.6912365z M23,12.9099865l-4.1708984-0.6953125l0.6542969-0.4365234
	c0.1386719-0.0927734,0.222168-0.2480469,0.2226563-0.4150391s-0.0825195-0.3222656-0.2207031-0.4160156
	C18.2421875,10.1111584,16.6635742,9.5017834,15,9.2127209V8.2713146c2.1376953,0.3925781,4.097168,1.2255859,5.5673828,2.3730469
	c0.1665039,0.1298828,0.3964844,0.1416016,0.574707,0.0283203l0.0092773-0.0058594
	c0.003418-0.0019531,0.0068359-0.0048828,0.0102539-0.0068359L23,9.4344006V12.9099865z"/>
<g>
</g>
<g>
</g>
<g>
</g>
<g>
</g>
<g>
</g>
<g>
</g>
<g>
</g>
<g>
</g>
<g>
</g>
<g>
</g>
<g>
</g>
<g>
</g>
<g>
</g>
<g>
</g>
<g>
</g>
</svg>
