<?xml version="1.0" encoding="iso-8859-1"?>
<!-- Generator: Adobe Illustrator 21.0.0, SVG Export Plug-In . SVG Version: 6.00 Build 0)  -->
<svg version="1.1" id="Layer_1" xmlns="http://www.w3.org/2000/svg" xmlns:xlink="http://www.w3.org/1999/xlink" x="0px" y="0px"
	 viewBox="0 0 24 24" enable-background="new 0 0 24 24" xml:space="preserve">
<g>
	<path fill="#303C42" d="M12,0C5.3833008,0,0,5.3828125,0,12s5.3833008,12,12,12s12-5.3828125,12-12S18.6166992,0,12,0z M12,23
		C5.9345703,23,1,18.0654297,1,12S5.9345703,1,12,1s11,4.9345703,11,11S18.0654297,23,12,23z"/>
	<path fill="#303C42" d="M16.4291992,5.0039063l-7,1.0009766C9.1831055,6.0400391,9,6.2509766,9,6.5v7.9550781
		c0,0.359375-0.2578125,0.6640625-0.6123047,0.7236328l-0.9399414,0.15625C6.6088867,15.4755859,6,16.1943359,6,17.0449219
		c0,0.5097656,0.2231445,0.9921875,0.6123047,1.3212891c0.315918,0.2675781,0.7124023,0.4111328,1.1196289,0.4111328
		c0.0947266,0,0.1904297-0.0078125,0.2856445-0.0234375l0.534668-0.0888672C9.3911133,18.5244141,10,17.8056641,10,16.9550781
		v-2.4541016c0-0.0048828,0-0.0107422-0.0004883-0.015625C10,14.4746094,10,14.4648438,10,14.4550781V9.4337158l6-0.8579712
		v4.8793335c0,0.359375-0.2573242,0.6640625-0.6123047,0.7226563l-0.9399414,0.15625
		C13.6088867,14.4746094,13,15.1933594,13,16.0439453c0,0.5097656,0.2231445,0.9921875,0.6123047,1.3212891
		s0.9003906,0.46875,1.4052734,0.3876953l0.5341797-0.0888672C16.390625,17.5253906,17,16.8066406,17,15.9550781V13.5
		c0-0.0048828,0-0.0107422,0-0.015625c0-0.0097656,0-0.0195313,0-0.0292969V5.4990234
		c0-0.1445313-0.0629883-0.2832031-0.1723633-0.3779297S16.5732422,4.9863281,16.4291992,5.0039063z M9,16.9550781
		c0,0.359375-0.2578125,0.6640625-0.6123047,0.7236328l-0.5341797,0.0888672
		c-0.2128906,0.0351563-0.4291992-0.0234375-0.5947266-0.1640625C7.0942383,17.4638672,7,17.2607422,7,17.0449219
		c0-0.359375,0.2578125-0.6640625,0.6123047-0.7236328l0.9399414-0.15625C8.7104492,16.1386719,8.8608398,16.0917969,9,16.0263672
		V16.9550781z M16,15.9550781c0,0.359375-0.2573242,0.6640625-0.6123047,0.7226563l-0.5341797,0.0888672
		c-0.2133789,0.0361328-0.4291992-0.0244141-0.5947266-0.1640625C14.0942383,16.4628906,14,16.2597656,14,16.0439453
		c0-0.359375,0.2578125-0.6640625,0.6123047-0.7236328l0.9394531-0.15625
		C15.7099609,15.1376953,15.8603516,15.0908203,16,15.0263672V15.9550781z M10,8.4232788V6.9335938l6-0.8583984v1.4901123
		L10,8.4232788z"/>
</g>
<g>
</g>
<g>
</g>
<g>
</g>
<g>
</g>
<g>
</g>
<g>
</g>
<g>
</g>
<g>
</g>
<g>
</g>
<g>
</g>
<g>
</g>
<g>
</g>
<g>
</g>
<g>
</g>
<g>
</g>
</svg>
