<?xml version="1.0" encoding="iso-8859-1"?>
<!-- Generator: Adobe Illustrator 21.0.0, SVG Export Plug-In . SVG Version: 6.00 Build 0)  -->
<svg version="1.1" id="Layer_1" xmlns="http://www.w3.org/2000/svg" xmlns:xlink="http://www.w3.org/1999/xlink" x="0px" y="0px"
	 viewBox="0 0 24 24" enable-background="new 0 0 24 24" xml:space="preserve">
<g>
	<path fill="#303C42" d="M23.8310547,11.125c-0.1972656-0.1748047-0.4970703-0.1660156-0.6845703,0.0214844
		C23.0993652,11.1936035,23.0488892,11.2387085,23,11.284729V2.5C23,1.1210938,21.8789063,0,20.5,0h-17
		C2.1210938,0,1,1.1210938,1,2.5v8.784729c-0.0488892-0.0460205-0.0993652-0.0911255-0.1464844-0.1382446
		c-0.1875-0.1865234-0.4873047-0.1962891-0.6845703-0.0214844s-0.2255859,0.4726563-0.0644531,0.6816406
		c1.9238281,2.4804688,4.2988281,3.6162109,5.2880859,4.0068359C5.2363281,16.4511719,5,17.7119141,5,19.5
		C5,22.3974609,7.3652344,24,9,24c1.0380859,0,2.5-0.6201172,2.5-2v-4.9238281l1,0.1435547V22c0,1.3798828,1.4619141,2,2.5,2
		c1.6347656,0,4-1.6025391,4-4.5c0-1.7880859-0.2363281-3.0488281-0.3925781-3.6865234
		c0.9892578-0.390625,3.3642578-1.5263672,5.2880859-4.0068359C24.0566406,11.5976563,24.0283203,11.2998047,23.8310547,11.125z
		 M11.0712891,16.0048828c-0.1464844-0.0175781-0.2890625,0.0234375-0.3984375,0.1171875
		C10.5624876,16.2167969,10.5,16.3554688,10.5,16.5V22c0,0.7070313-0.9765625,1-1.5,1c-1.2265625,0-3-1.2460938-3-3.5
		c0-2.4306641,0.4677734-3.8232422,0.4726563-3.8369141c0.0439453-0.1289063,0.0341797-0.2695313-0.0283203-0.390625
		c-0.0615234-0.1210938-0.1699219-0.2119141-0.3007813-0.2509766C6.1259766,15.015625,5.09375,14.6972656,3.7890625,13.8466797
		c1.6464844,0.4453125,3.7529297,0.6445313,6.53125,0.6533203c0.4794922,0.3896484,1.2373047,0.9677734,2.2587891,1.7207031
		L11.0712891,16.0048828z M12.5341797,14.9423828c-0.78125-0.5830078-1.3554688-1.0283203-1.7138672-1.3261719
		C10.7304688,13.5410156,10.6171875,13.5,10.5,13.5c-4.7276611,0-7.0887451-0.5753784-8.571228-1.5H2V2.5
		C2,1.6728516,2.6728516,1,3.5,1h17C21.3271484,1,22,1.6728516,22,2.5V12h0.071228c-1.4824829,0.9246216-3.8435669,1.5-8.571228,1.5
		C12.8027344,13.5,12.5976563,14.1552734,12.5341797,14.9423828z M17.8554688,15.0214844
		c-0.1298828,0.0390625-0.2382813,0.1298828-0.2998047,0.2509766c-0.0625,0.1210938-0.0722656,0.2626953-0.0283203,0.390625
		C17.5322266,15.6767578,18,17.0693359,18,19.5c0,2.2539063-1.7734375,3.5-3,3.5c-0.5234375,0-1.5-0.2929688-1.5-1v-5.2138672
		c0-0.1865234-0.1025391-0.3505859-0.2568359-0.4365234c0.1572266-0.0869141,0.2568359-0.2529297,0.2587891-0.4335938
		c0.0078125-0.7470703,0.0439453-1.2226563,0.109375-1.4160156c2.8085938-0.0048828,4.9326172-0.2041016,6.5917969-0.6513672
		C18.9023438,14.6953125,17.8730469,15.015625,17.8554688,15.0214844z"/>
	<path fill="#303C42" d="M8.5,7C7.1210938,7,6,8.1210938,6,9.5S7.1210938,12,8.5,12S11,10.8789063,11,9.5S9.8789063,7,8.5,7z
		 M8.5,11C7.6728516,11,7,10.3271484,7,9.5S7.6728516,8,8.5,8S10,8.6728516,10,9.5S9.3271484,11,8.5,11z"/>
	<path fill="#303C42" d="M15.5,12c1.3789063,0,2.5-1.1210938,2.5-2.5S16.8789063,7,15.5,7S13,8.1210938,13,9.5
		S14.1210938,12,15.5,12z M15.5,8C16.3271484,8,17,8.6728516,17,9.5S16.3271484,11,15.5,11S14,10.3271484,14,9.5
		S14.6728516,8,15.5,8z"/>
</g>
<g>
</g>
<g>
</g>
<g>
</g>
<g>
</g>
<g>
</g>
<g>
</g>
<g>
</g>
<g>
</g>
<g>
</g>
<g>
</g>
<g>
</g>
<g>
</g>
<g>
</g>
<g>
</g>
<g>
</g>
</svg>
