<?xml version="1.0" encoding="utf-8"?>
<!-- Generator: Adobe Illustrator 18.0.0, SVG Export Plug-In . SVG Version: 6.00 Build 0)  -->
<!DOCTYPE svg PUBLIC "-//W3C//DTD SVG 1.1//EN" "http://www.w3.org/Graphics/SVG/1.1/DTD/svg11.dtd">
<svg version="1.1" id="Layer_1" xmlns="http://www.w3.org/2000/svg" xmlns:xlink="http://www.w3.org/1999/xlink" x="0px" y="0px"
	 width="32px" height="32px" viewBox="0 0 32 32" enable-background="new 0 0 32 32" xml:space="preserve">
<g>
	<path fill="#808184" d="M16.011,4.969c-7.444,0-13.5,6.056-13.5,13.5c0,3.452,1.313,6.595,3.452,8.984l-3.659,3.659
		c-0.195,0.195-0.195,0.512,0,0.707c0.098,0.098,0.226,0.146,0.354,0.146s0.256-0.049,0.354-0.146l3.642-3.642
		c2.429,2.342,5.725,3.792,9.358,3.792c3.631,0,6.924-1.448,9.353-3.787l3.552,3.666C29.015,31.949,29.145,32,29.275,32
		c0.125,0,0.251-0.047,0.348-0.141c0.198-0.192,0.203-0.508,0.012-0.707l-3.58-3.694c2.141-2.39,3.456-5.535,3.456-8.989
		C29.511,11.025,23.455,4.969,16.011,4.969z M16.011,30.969c-6.893,0-12.5-5.607-12.5-12.5s5.607-12.5,12.5-12.5
		s12.5,5.607,12.5,12.5S22.903,30.969,16.011,30.969z"/>
	<path fill="#808184" d="M8.775,1c1.671,0,3.116,1.087,3.596,2.704c0.078,0.265,0.354,0.417,0.622,0.337
		c0.265-0.079,0.415-0.357,0.337-0.622C12.724,1.375,10.894,0,8.775,0c-2.63,0-4.77,2.14-4.77,4.77c0,1.129,0.397,2.192,1.149,3.076
		c0.099,0.116,0.239,0.176,0.381,0.176c0.115,0,0.23-0.039,0.324-0.119c0.21-0.179,0.235-0.495,0.057-0.705
		c-0.596-0.7-0.911-1.54-0.911-2.428C5.006,2.691,6.697,1,8.775,1z"/>
	<path fill="#808184" d="M26.083,7.831c0.093,0.075,0.204,0.111,0.314,0.111c0.146,0,0.29-0.063,0.389-0.186
		c0.704-0.87,1.076-1.903,1.076-2.987c0-2.63-2.14-4.77-4.77-4.77c-2.098,0-3.923,1.358-4.542,3.379
		c-0.08,0.264,0.068,0.543,0.332,0.625c0.267,0.081,0.544-0.068,0.625-0.332C19.997,2.074,21.438,1,23.093,1
		c2.078,0,3.77,1.691,3.77,3.77c0,0.853-0.295,1.668-0.854,2.358C25.835,7.343,25.868,7.657,26.083,7.831z"/>
	<path fill="#808184" d="M16.5,8.5C16.224,8.5,16,8.724,16,9v8.92l-4.321,4.028c-0.202,0.188-0.213,0.505-0.025,0.707
		c0.099,0.106,0.232,0.159,0.366,0.159c0.122,0,0.244-0.044,0.341-0.134l4.48-4.176C16.942,18.408,17,18.276,17,18.137V9
		C17,8.724,16.776,8.5,16.5,8.5z"/>
</g>
</svg>
