<?xml version="1.0" encoding="utf-8"?>
<!-- Generator: Adobe Illustrator 18.0.0, SVG Export Plug-In . SVG Version: 6.00 Build 0)  -->
<!DOCTYPE svg PUBLIC "-//W3C//DTD SVG 1.1//EN" "http://www.w3.org/Graphics/SVG/1.1/DTD/svg11.dtd">
<svg version="1.1" id="Layer_1" xmlns="http://www.w3.org/2000/svg" xmlns:xlink="http://www.w3.org/1999/xlink" x="0px" y="0px"
	 width="32px" height="32px" viewBox="0 0 32 32" enable-background="new 0 0 32 32" xml:space="preserve">
<g>
	<path fill="#808184" d="M13.224,21.2c0.098,0.098,0.226,0.146,0.354,0.146s0.256-0.049,0.354-0.146l4.846-4.846
		c0.195-0.195,0.195-0.512,0-0.707L13.931,10.8c-0.195-0.195-0.512-0.195-0.707,0s-0.195,0.512,0,0.707L17.716,16l-4.492,4.493
		C13.028,20.688,13.028,21.004,13.224,21.2z"/>
	<path fill="#808184" d="M0,1.5v29C0,31.327,0.673,32,1.5,32h29c0.827,0,1.5-0.673,1.5-1.5v-29C32,0.673,31.327,0,30.5,0h-29
		C0.673,0,0,0.673,0,1.5z M31,1.5v29c0,0.276-0.225,0.5-0.5,0.5h-29C1.225,31,1,30.776,1,30.5v-29C1,1.224,1.225,1,1.5,1h29
		C30.775,1,31,1.224,31,1.5z"/>
</g>
</svg>
