<?xml version="1.0" encoding="utf-8"?>
<!-- Generator: Adobe Illustrator 18.0.0, SVG Export Plug-In . SVG Version: 6.00 Build 0)  -->
<!DOCTYPE svg PUBLIC "-//W3C//DTD SVG 1.1//EN" "http://www.w3.org/Graphics/SVG/1.1/DTD/svg11.dtd">
<svg version="1.1" id="Layer_1" xmlns="http://www.w3.org/2000/svg" xmlns:xlink="http://www.w3.org/1999/xlink" x="0px" y="0px"
	 width="39px" height="32px" viewBox="0 0 39 32" enable-background="new 0 0 39 32" xml:space="preserve">
<g>
	<path fill="#808184" d="M39,31.5c0-0.276-0.224-0.5-0.5-0.5H27.687l2.701-7.264c0.006-0.016,0.003-0.032,0.008-0.048
		c0.964-0.32,1.858-0.837,2.619-1.541l3.881-3.591c0.202-0.188,0.215-0.504,0.027-0.707c-0.188-0.204-0.504-0.215-0.707-0.028
		l-3.881,3.56C31.187,22.446,29.69,23,28.123,23H11.974c-0.017,0-0.033,0.035-0.049,0.035c-0.022,0-0.043,0.018-0.065,0.021
		c-1.555,0.025-3.081,0.56-4.307,1.515l-4.303,3.35c-0.219,0.169-0.258,0.485-0.088,0.704c0.099,0.126,0.246,0.194,0.395,0.194
		c0.107,0,0.216-0.034,0.307-0.105l4.303-3.346c0.871-0.677,1.919-1.095,3.01-1.239L8.62,31H0.5C0.224,31,0,31.224,0,31.5
		S0.224,32,0.5,32h38C38.776,32,39,31.776,39,31.5z M29.234,23.938L26.62,31h-7.933l2.579-7h6.856
		C28.498,24,28.869,23.995,29.234,23.938z M12.267,24H20.2l-2.579,7H9.687L12.267,24z"/>
	<path fill="#808184" d="M26.024,0c-3.738,0-7.709,1.415-10.362,3.692c-0.388,0.333-0.565,0.834-0.476,1.34
		c0.093,0.524,0.447,0.95,0.948,1.138l10.049,3.781L21.46,20.86c-0.109,0.253,0.007,0.548,0.261,0.658
		c0.064,0.028,0.132,0.041,0.198,0.041c0.193,0,0.377-0.113,0.459-0.301l4.743-10.952l10.012,3.767
		c0.172,0.064,0.351,0.097,0.532,0.097c0.425,0,0.833-0.181,1.12-0.496c0.278-0.307,0.411-0.703,0.372-1.114
		C38.45,5.165,33.05,0,26.024,0z M38.045,13.001c-0.096,0.105-0.238,0.168-0.38,0.168c-0.061,0-0.121-0.011-0.181-0.033
		L16.486,5.235c-0.167-0.062-0.284-0.203-0.315-0.376c-0.016-0.092-0.02-0.268,0.143-0.407C18.794,2.322,22.515,1,26.024,1
		c6.49,0,11.481,4.792,12.137,11.654C38.177,12.817,38.106,12.933,38.045,13.001z"/>
</g>
</svg>
