<?xml version="1.0" encoding="utf-8"?>
<!-- Generator: Adobe Illustrator 18.0.0, SVG Export Plug-In . SVG Version: 6.00 Build 0)  -->
<!DOCTYPE svg PUBLIC "-//W3C//DTD SVG 1.1//EN" "http://www.w3.org/Graphics/SVG/1.1/DTD/svg11.dtd">
<svg version="1.1" id="Layer_1" xmlns="http://www.w3.org/2000/svg" xmlns:xlink="http://www.w3.org/1999/xlink" x="0px" y="0px"
	 width="23px" height="32px" viewBox="0 0 23 32" enable-background="new 0 0 23 32" xml:space="preserve">
<g>
	<path fill="#808184" d="M0,1.5v8C0,10.327,0.673,11,1.5,11h20c0.827,0,1.5-0.673,1.5-1.5v-8C23,0.673,22.327,0,21.5,0h-4
		C17.224,0,17,0.224,17,0.5v2.236l-1.301-2.469C15.612,0.103,15.442,0,15.256,0H1.5C0.673,0,0,0.673,0,1.5z M4.5,5.5
		C4.776,5.5,5,5.276,5,5V1h3v6c0,0.276,0.224,0.5,0.5,0.5S9,7.276,9,7V1h5.955l2.103,3.99c0.107,0.203,0.34,0.307,0.562,0.252
		C17.843,5.188,18,4.987,18,4.757V1h3.5C21.776,1,22,1.224,22,1.5v8c0,0.276-0.224,0.5-0.5,0.5h-20C1.224,10,1,9.776,1,9.5v-8
		C1,1.224,1.224,1,1.5,1H4v4C4,5.276,4.224,5.5,4.5,5.5z"/>
	<path fill="#808184" d="M0,16.5C0,17.327,0.673,18,1.5,18h5.823c0.729,0,1.43,0.316,1.922,0.868
		c0.481,0.538,0.712,1.239,0.635,1.926l-0.866,7.837c0,1.843,1.564,3.343,3.486,3.343s3.486-1.517,3.483-3.438l-0.863-7.737
		c-0.078-0.688,0.155-1.392,0.637-1.932C16.25,18.316,16.95,18,17.677,18H21.5c0.827,0,1.5-0.673,1.5-1.5V13
		c0-0.276-0.224-0.5-0.5-0.5S22,12.724,22,13v3.5c0,0.276-0.224,0.5-0.5,0.5h-3.823c-1.012,0-1.983,0.438-2.666,1.201
		c-0.672,0.752-0.995,1.739-0.886,2.709l0.86,7.682c0,1.291-1.139,2.382-2.486,2.382c-1.371,0-2.486-1.051-2.489-2.288l0.863-7.782
		c0.109-0.968-0.213-1.954-0.883-2.703C9.309,17.438,8.336,17,7.323,17H1.5C1.224,17,1,16.776,1,16.5V13c0-0.276-0.224-0.5-0.5-0.5
		S0,12.724,0,13V16.5z"/>
</g>
</svg>
