<?xml version="1.0" encoding="utf-8"?>
<!-- Generator: Adobe Illustrator 18.0.0, SVG Export Plug-In . SVG Version: 6.00 Build 0)  -->
<!DOCTYPE svg PUBLIC "-//W3C//DTD SVG 1.1//EN" "http://www.w3.org/Graphics/SVG/1.1/DTD/svg11.dtd">
<svg version="1.1" id="Layer_1" xmlns="http://www.w3.org/2000/svg" xmlns:xlink="http://www.w3.org/1999/xlink" x="0px" y="0px"
	 width="32px" height="32px" viewBox="0 0 32 32" enable-background="new 0 0 32 32" xml:space="preserve">
<g>
	<path fill="#808184" d="M1.5,4H4c0.276,0,0.5-0.224,0.5-0.5S4.276,3,4,3H1.5C0.673,3,0,3.673,0,4.5V10v1v19.5
		C0,31.327,0.673,32,1.5,32h29c0.827,0,1.5-0.673,1.5-1.5V11v-1V4.5C32,3.673,31.327,3,30.5,3H28c-0.276,0-0.5,0.224-0.5,0.5
		S27.724,4,28,4h2.5C30.776,4,31,4.224,31,4.5V10H1V4.5C1,4.224,1.224,4,1.5,4z M31,11v19.5c0,0.276-0.224,0.5-0.5,0.5h-29
		C1.224,31,1,30.776,1,30.5V11H31z"/>
	<path fill="#808184" d="M19,4c0.276,0,0.5-0.224,0.5-0.5S19.276,3,19,3h-6c-0.276,0-0.5,0.224-0.5,0.5S12.724,4,13,4H19z"/>
	<path fill="#808184" d="M10.5,27h3c0.386,0,0.734-0.15,1-0.39c0.266,0.24,0.614,0.39,1,0.39h3c0.827,0,1.5-0.673,1.5-1.5v-3
		c0-0.238-0.061-0.46-0.159-0.659C20.04,21.939,20.262,22,20.5,22h3c0.827,0,1.5-0.673,1.5-1.5v-3c0-0.827-0.673-1.5-1.5-1.5h-3
		c-0.386,0-0.734,0.15-1,0.39c-0.266-0.24-0.614-0.39-1-0.39h-3c-0.386,0-0.734,0.15-1,0.39c-0.266-0.24-0.614-0.39-1-0.39h-3
		C9.673,16,9,16.673,9,17.5v3c0,0.386,0.15,0.734,0.39,1C9.15,21.766,9,22.114,9,22.5v3C9,26.327,9.673,27,10.5,27z M13.5,26h-3
		c-0.276,0-0.5-0.224-0.5-0.5v-3c0-0.276,0.224-0.5,0.5-0.5h3c0.276,0,0.5,0.224,0.5,0.5v3C14,25.776,13.776,26,13.5,26z M19,25.5
		c0,0.276-0.224,0.5-0.5,0.5h-3c-0.276,0-0.5-0.224-0.5-0.5v-3c0-0.276,0.224-0.5,0.5-0.5h3c0.276,0,0.5,0.224,0.5,0.5V25.5z
		 M20.5,17h3c0.276,0,0.5,0.224,0.5,0.5v3c0,0.276-0.224,0.5-0.5,0.5h-3c-0.276,0-0.5-0.224-0.5-0.5v-3C20,17.224,20.224,17,20.5,17
		z M15.5,17h3c0.276,0,0.5,0.224,0.5,0.5v3c0,0.276-0.224,0.5-0.5,0.5h-3c-0.276,0-0.5-0.224-0.5-0.5v-3
		C15,17.224,15.224,17,15.5,17z M10,17.5c0-0.276,0.224-0.5,0.5-0.5h3c0.276,0,0.5,0.224,0.5,0.5v3c0,0.276-0.224,0.5-0.5,0.5h-3
		c-0.276,0-0.5-0.224-0.5-0.5V17.5z"/>
	<path fill="#808184" d="M11,4.5v-2C11,1.122,9.878,0,8.5,0S6,1.122,6,2.5v2C6,5.878,7.122,7,8.5,7S11,5.878,11,4.5z M7,4.5v-2
		C7,1.673,7.673,1,8.5,1S10,1.673,10,2.5v2C10,5.327,9.327,6,8.5,6S7,5.327,7,4.5z"/>
	<path fill="#808184" d="M26,4.5v-2C26,1.122,24.878,0,23.5,0S21,1.122,21,2.5v2C21,5.878,22.122,7,23.5,7S26,5.878,26,4.5z M22,4.5
		v-2C22,1.673,22.673,1,23.5,1S25,1.673,25,2.5v2C25,5.327,24.327,6,23.5,6S22,5.327,22,4.5z"/>
</g>
</svg>
