<?xml version="1.0" encoding="utf-8"?>
<!-- Generator: Adobe Illustrator 18.0.0, SVG Export Plug-In . SVG Version: 6.00 Build 0)  -->
<!DOCTYPE svg PUBLIC "-//W3C//DTD SVG 1.1//EN" "http://www.w3.org/Graphics/SVG/1.1/DTD/svg11.dtd">
<svg version="1.1" id="Layer_1" xmlns="http://www.w3.org/2000/svg" xmlns:xlink="http://www.w3.org/1999/xlink" x="0px" y="0px"
	 width="21px" height="32px" viewBox="0 0 21 32" enable-background="new 0 0 21 32" xml:space="preserve">
<g>
	<path fill="#808184" d="M0,27.5v3C0,31.327,0.673,32,1.5,32h18c0.827,0,1.5-0.673,1.5-1.5v-3c0-0.827-0.673-1.5-1.5-1.5h-0.592
		C18.964,25.843,19,25.676,19,25.5v-12c0-0.827-0.673-1.5-1.5-1.5H11V9c0-0.276-0.224-0.5-0.5-0.5S10,8.724,10,9v3H3.5
		C2.673,12,2,12.673,2,13.5v12c0,0.176,0.036,0.343,0.092,0.5H1.5C0.673,26,0,26.673,0,27.5z M20,27.5v3c0,0.276-0.225,0.5-0.5,0.5
		h-18C1.225,31,1,30.776,1,30.5v-3C1,27.224,1.225,27,1.5,27h2h14h2C19.775,27,20,27.224,20,27.5z M3,25.5v-12
		C3,13.224,3.225,13,3.5,13H13v2c0,0.276,0.224,0.5,0.5,0.5S14,15.276,14,15v-2h3.5c0.275,0,0.5,0.224,0.5,0.5v12
		c0,0.276-0.225,0.5-0.5,0.5h-14C3.225,26,3,25.776,3,25.5z"/>
	<path fill="#808184" d="M8.284,10.866c0.185-0.069,0.311-0.239,0.324-0.435c0.173-2.577,1.336-3.889,1.896-4.377
		c1.716,1.771,2.158,4.396,2.162,4.423c0.032,0.196,0.177,0.355,0.369,0.405c0.188,0.051,0.396-0.018,0.518-0.174
		c1.239-1.573,1.735-3.235,1.477-4.94c-0.514-3.381-3.816-5.686-3.957-5.782c-0.171-0.118-0.397-0.117-0.568,0.001
		c-2.71,1.877-4.186,3.94-4.386,6.131c-0.247,2.704,1.559,4.555,1.636,4.632c0.096,0.096,0.224,0.147,0.354,0.147
		C8.168,10.897,8.228,10.887,8.284,10.866z M7.116,6.196c0.17-1.802,1.402-3.543,3.665-5.18c0.766,0.603,2.891,2.473,3.26,4.901
		c0.169,1.107-0.055,2.204-0.663,3.271c-0.346-1.133-1.075-2.886-2.501-4.164c-0.095-0.084-0.214-0.127-0.334-0.127
		c-0.089,0-0.179,0.024-0.259,0.072C10.197,5.022,8.385,6.154,7.781,9.09C7.393,8.404,7.004,7.391,7.116,6.196z"/>
	<path fill="#808184" d="M5.5,14.5C5.224,14.5,5,14.724,5,15v9c0,0.276,0.224,0.5,0.5,0.5S6,24.276,6,24v-9
		C6,14.724,5.776,14.5,5.5,14.5z"/>
</g>
</svg>
