<?xml version="1.0" encoding="utf-8"?>
<!-- Generator: Adobe Illustrator 18.0.0, SVG Export Plug-In . SVG Version: 6.00 Build 0)  -->
<!DOCTYPE svg PUBLIC "-//W3C//DTD SVG 1.1//EN" "http://www.w3.org/Graphics/SVG/1.1/DTD/svg11.dtd">
<svg version="1.1" id="Layer_1" xmlns="http://www.w3.org/2000/svg" xmlns:xlink="http://www.w3.org/1999/xlink" x="0px" y="0px"
	 width="37px" height="32px" viewBox="0 0 37 32" enable-background="new 0 0 37 32" xml:space="preserve">
<g>
	<path fill="#808184" d="M18.5,26.908c-1.383,0-2.508,1.127-2.508,2.513c0,1.386,1.125,2.514,2.508,2.514s2.508-1.127,2.508-2.514
		C21.008,28.036,19.883,26.908,18.5,26.908z M18.5,30.935c-0.832,0-1.508-0.679-1.508-1.514s0.676-1.513,1.508-1.513
		s1.508,0.679,1.508,1.513S19.332,30.935,18.5,30.935z"/>
	<path fill="#808184" d="M18.5,8.7c-1.654,0-3,1.265-2.999,2.85l0.655,11.036c0,1.166,1.005,2.115,2.24,2.115
		s2.24-0.949,2.238-2.076L21.5,11.52C21.5,9.965,20.154,8.7,18.5,8.7z M19.636,22.585c0,0.615-0.556,1.115-1.24,1.115
		s-1.24-0.5-1.241-1.145L16.5,11.52c0-1.003,0.897-1.82,2-1.82s2,0.816,2.001,1.781L19.636,22.585z"/>
	<path fill="#808184" d="M3.591,30h8.843c0.276,0,0.5-0.224,0.5-0.5s-0.224-0.5-0.5-0.5H3.591c-0.969,0-1.821-0.504-2.279-1.349
		c-0.45-0.83-0.411-1.799,0.105-2.591L16.326,2.172C16.804,1.438,17.617,1,18.5,1s1.696,0.438,2.174,1.172L35.583,25.06
		c0.516,0.792,0.555,1.761,0.105,2.591C35.23,28.496,34.378,29,33.409,29h-8.843c-0.276,0-0.5,0.224-0.5,0.5s0.224,0.5,0.5,0.5
		h8.843c1.342,0,2.522-0.7,3.158-1.873c0.628-1.158,0.573-2.509-0.146-3.614L21.512,1.626C20.849,0.607,19.723,0,18.5,0
		s-2.349,0.608-3.012,1.626L0.579,24.514c-0.72,1.105-0.774,2.456-0.146,3.614C1.068,29.3,2.249,30,3.591,30z"/>
</g>
</svg>
