<?xml version="1.0" encoding="utf-8"?>
<!-- Generator: Adobe Illustrator 18.0.0, SVG Export Plug-In . SVG Version: 6.00 Build 0)  -->
<!DOCTYPE svg PUBLIC "-//W3C//DTD SVG 1.1//EN" "http://www.w3.org/Graphics/SVG/1.1/DTD/svg11.dtd">
<svg version="1.1" id="Layer_1" xmlns="http://www.w3.org/2000/svg" xmlns:xlink="http://www.w3.org/1999/xlink" x="0px" y="0px"
	 width="35px" height="32px" viewBox="0 0 35 32" enable-background="new 0 0 35 32" xml:space="preserve">
<g>
	<path fill="#808184" d="M26.057,9.459c-1.378,0-2.5,1.121-2.5,2.5s1.122,2.5,2.5,2.5s2.5-1.121,2.5-2.5S27.436,9.459,26.057,9.459z
		 M26.057,13.459c-0.827,0-1.5-0.673-1.5-1.5s0.673-1.5,1.5-1.5s1.5,0.673,1.5,1.5S26.884,13.459,26.057,13.459z"/>
	<path fill="#808184" d="M18.5,9.459c-1.378,0-2.5,1.121-2.5,2.5s1.122,2.5,2.5,2.5s2.5-1.121,2.5-2.5S19.878,9.459,18.5,9.459z
		 M18.5,13.459c-0.827,0-1.5-0.673-1.5-1.5s0.673-1.5,1.5-1.5s1.5,0.673,1.5,1.5S19.327,13.459,18.5,13.459z"/>
	<path fill="#808184" d="M10.943,9.459c-1.378,0-2.5,1.121-2.5,2.5s1.122,2.5,2.5,2.5s2.5-1.121,2.5-2.5S12.321,9.459,10.943,9.459z
		 M10.943,13.459c-0.827,0-1.5-0.673-1.5-1.5s0.673-1.5,1.5-1.5s1.5,0.673,1.5,1.5S11.77,13.459,10.943,13.459z"/>
	<path fill="#808184" d="M33.5,0h-32C0.673,0,0,0.673,0,1.5v22C0,24.327,0.673,25,1.5,25h6C7.776,25,8,25.225,8,25.5v6
		c0,0.188,0.105,0.359,0.272,0.445C8.344,31.981,8.422,32,8.5,32c0.103,0,0.205-0.031,0.292-0.094l9.481-6.812
		C18.359,25.032,18.46,25,18.565,25H33.5c0.827,0,1.5-0.673,1.5-1.5v-22C35,0.673,34.327,0,33.5,0z M34,23.5
		c0,0.275-0.224,0.5-0.5,0.5H18.565c-0.315,0-0.618,0.098-0.875,0.281L9,30.525V25.5C9,24.673,8.327,24,7.5,24h-6
		C1.224,24,1,23.775,1,23.5v-22C1,1.225,1.224,1,1.5,1h32C33.776,1,34,1.225,34,1.5V23.5z"/>
</g>
</svg>
