<?xml version="1.0" encoding="utf-8"?>
<!-- Generator: Adobe Illustrator 18.0.0, SVG Export Plug-In . SVG Version: 6.00 Build 0)  -->
<!DOCTYPE svg PUBLIC "-//W3C//DTD SVG 1.1//EN" "http://www.w3.org/Graphics/SVG/1.1/DTD/svg11.dtd">
<svg version="1.1" id="Layer_1" xmlns="http://www.w3.org/2000/svg" xmlns:xlink="http://www.w3.org/1999/xlink" x="0px" y="0px"
	 width="32px" height="32px" viewBox="0 0 32 32" enable-background="new 0 0 32 32" xml:space="preserve">
<g>
	<path fill="#808184" d="M28.974,2.732C28.574,1.123,27.146,0,25.5,0h-7.939c-0.045,0-0.09,0.006-0.133,0.019L10.259,2H8
		C7.724,2,7.5,2.224,7.5,2.5S7.724,3,8,3h2.327c0.045,0,0.09-0.006,0.133-0.019L17.628,1H25.5c1.185,0,2.214,0.812,2.503,1.973
		l2.701,10.954c0.171,0.691,0.05,1.405-0.343,2.013c-0.398,0.615-1.04,1.043-1.758,1.173l-6.536,1.167
		c-1.199,0.215-2.065,1.255-2.06,2.472L20.04,28.6c0,0.718-0.25,1.329-0.722,1.768c-0.496,0.46-1.201,0.691-1.984,0.623
		C16.025,30.894,15,29.754,15,28.397v-2.202c0-1.365-0.495-2.683-1.394-3.709l-1.37-1.564C11.167,19.7,9.623,19,8,19
		c-0.276,0-0.5,0.224-0.5,0.5S7.724,20,8,20c1.334,0,2.604,0.576,3.484,1.58l1.37,1.564C13.593,23.989,14,25.072,14,26.195v2.202
		c0,1.877,1.432,3.454,3.26,3.591C17.368,31.996,17.474,32,17.579,32c0.938,0,1.789-0.314,2.419-0.9
		c0.672-0.624,1.042-1.512,1.042-2.502l-0.033-7.851c-0.003-0.73,0.517-1.354,1.236-1.483l6.537-1.167
		c0.991-0.179,1.873-0.768,2.421-1.614c0.544-0.841,0.713-1.834,0.474-2.796L28.974,2.732z"/>
	<path fill="#808184" d="M2.5,0C1.122,0,0,1.121,0,2.5v16C0,19.879,1.122,21,2.5,21S5,19.879,5,18.5v-16C5,1.121,3.878,0,2.5,0z
		 M4,18.5C4,19.327,3.327,20,2.5,20S1,19.327,1,18.5v-16C1,1.673,1.673,1,2.5,1S4,1.673,4,2.5V18.5z"/>
</g>
</svg>
