<?xml version="1.0" encoding="utf-8"?>
<!-- Generator: Adobe Illustrator 18.0.0, SVG Export Plug-In . SVG Version: 6.00 Build 0)  -->
<!DOCTYPE svg PUBLIC "-//W3C//DTD SVG 1.1//EN" "http://www.w3.org/Graphics/SVG/1.1/DTD/svg11.dtd">
<svg version="1.1" id="Layer_1" xmlns="http://www.w3.org/2000/svg" xmlns:xlink="http://www.w3.org/1999/xlink" x="0px" y="0px"
	 width="32px" height="32px" viewBox="0 0 32 32" enable-background="new 0 0 32 32" xml:space="preserve">
<g>
	<path fill="#808184" d="M0,30.5C0,31.327,0.673,32,1.5,32h29c0.827,0,1.5-0.673,1.5-1.5v-8c0-0.386-0.15-0.734-0.39-1
		c0.24-0.266,0.39-0.614,0.39-1v-8c0-0.386-0.15-0.734-0.39-1c0.24-0.266,0.39-0.614,0.39-1v-9C32,0.673,31.327,0,30.5,0h-29
		C0.673,0,0,0.673,0,1.5v9c0,0.386,0.15,0.734,0.39,1C0.15,11.766,0,12.114,0,12.5v8c0,0.386,0.15,0.734,0.39,1
		C0.15,21.766,0,22.114,0,22.5V30.5z M31,30.5c0,0.276-0.224,0.5-0.5,0.5h-29C1.224,31,1,30.776,1,30.5v-8C1,22.224,1.224,22,1.5,22
		h29c0.276,0,0.5,0.224,0.5,0.5V30.5z M1,20.5v-8C1,12.224,1.224,12,1.5,12h29c0.276,0,0.5,0.224,0.5,0.5v8
		c0,0.276-0.224,0.5-0.5,0.5h-29C1.224,21,1,20.776,1,20.5z M1,1.5C1,1.224,1.224,1,1.5,1h29C30.776,1,31,1.224,31,1.5v9
		c0,0.276-0.224,0.5-0.5,0.5h-29C1.224,11,1,10.776,1,10.5V1.5z"/>
	<path fill="#808184" d="M13,6h6c0.276,0,0.5-0.224,0.5-0.5S19.276,5,19,5h-6c-0.276,0-0.5,0.224-0.5,0.5S12.724,6,13,6z"/>
	<path fill="#808184" d="M19,15h-6c-0.276,0-0.5,0.224-0.5,0.5S12.724,16,13,16h6c0.276,0,0.5-0.224,0.5-0.5S19.276,15,19,15z"/>
	<path fill="#808184" d="M19,25h-6c-0.276,0-0.5,0.224-0.5,0.5S12.724,26,13,26h6c0.276,0,0.5-0.224,0.5-0.5S19.276,25,19,25z"/>
</g>
</svg>
