<?xml version="1.0" encoding="utf-8"?>
<!-- Generator: Adobe Illustrator 18.0.0, SVG Export Plug-In . SVG Version: 6.00 Build 0)  -->
<!DOCTYPE svg PUBLIC "-//W3C//DTD SVG 1.1//EN" "http://www.w3.org/Graphics/SVG/1.1/DTD/svg11.dtd">
<svg version="1.1" id="Layer_1" xmlns="http://www.w3.org/2000/svg" xmlns:xlink="http://www.w3.org/1999/xlink" x="0px" y="0px"
	 width="32px" height="32px" viewBox="0 0 32 32" enable-background="new 0 0 32 32" xml:space="preserve">
<g>
	<path fill="#808184" d="M10.246,14.413c1.486,0,2.696-1.209,2.696-2.696s-1.21-2.696-2.696-2.696S7.55,10.229,7.55,11.716
		S8.76,14.413,10.246,14.413z M10.246,10.02c0.936,0,1.696,0.761,1.696,1.696s-0.761,1.696-1.696,1.696S8.55,12.652,8.55,11.716
		S9.311,10.02,10.246,10.02z"/>
	<path fill="#808184" d="M21.769,14.398c1.479,0,2.682-1.203,2.682-2.682c0-1.479-1.203-2.682-2.682-2.682s-2.682,1.203-2.682,2.682
		C19.087,13.195,20.29,14.398,21.769,14.398z M21.769,10.035c0.928,0,1.682,0.754,1.682,1.682c0,0.928-0.754,1.682-1.682,1.682
		s-1.682-0.754-1.682-1.682C20.087,10.789,20.841,10.035,21.769,10.035z"/>
	<path fill="#808184" d="M16,32c8.822,0,16-7.178,16-16S24.822,0,16,0S0,7.178,0,16S7.178,32,16,32z M16,1c8.271,0,15,6.729,15,15
		s-6.729,15-15,15S1,24.271,1,16S7.729,1,16,1z"/>
	<path fill="#808184" d="M9.5,21.5c0,0.276,0.224,0.5,0.5,0.5h11c0.276,0,0.5-0.224,0.5-0.5S21.276,21,21,21H10
		C9.724,21,9.5,21.224,9.5,21.5z"/>
</g>
</svg>
