<?xml version="1.0" encoding="utf-8"?>
<!-- Generator: Adobe Illustrator 18.0.0, SVG Export Plug-In . SVG Version: 6.00 Build 0)  -->
<!DOCTYPE svg PUBLIC "-//W3C//DTD SVG 1.1//EN" "http://www.w3.org/Graphics/SVG/1.1/DTD/svg11.dtd">
<svg version="1.1" id="Layer_1" xmlns="http://www.w3.org/2000/svg" xmlns:xlink="http://www.w3.org/1999/xlink" x="0px" y="0px"
	 width="31px" height="32px" viewBox="0 0 31 32" enable-background="new 0 0 31 32" xml:space="preserve">
<g>
	<path fill="#808184" d="M12.469,0C11.659,0,11,0.659,11,1.469v29.062C11,31.341,11.659,32,12.469,32h7.062
		C20.341,32,21,31.341,21,30.531V1.469C21,0.659,20.341,0,19.531,0H12.469z M20,15h-8V6h8V15z M20,30.531
		C20,30.79,19.79,31,19.531,31h-7.062C12.21,31,12,30.79,12,30.531V16h8V30.531z M20,1.469V5h-8V1.469C12,1.21,12.21,1,12.469,1
		h7.062C19.79,1,20,1.21,20,1.469z"/>
	<path fill="#808184" d="M16.127,28c1.103,0,2-0.897,2-2s-0.897-2-2-2s-2,0.897-2,2S15.024,28,16.127,28z M16.127,25
		c0.552,0,1,0.449,1,1s-0.448,1-1,1s-1-0.449-1-1S15.575,25,16.127,25z"/>
	<path fill="#808184" d="M23.5,31.5c0,0.276,0.224,0.5,0.5,0.5h5.5c0.827,0,1.5-0.673,1.5-1.5v-29C31,0.673,30.327,0,29.5,0H24
		c-0.276,0-0.5,0.224-0.5,0.5S23.724,1,24,1h5.5C29.775,1,30,1.224,30,1.5V5h-4c-0.276,0-0.5,0.224-0.5,0.5S25.724,6,26,6h4v9h-4
		c-0.276,0-0.5,0.224-0.5,0.5S25.724,16,26,16h4v14.5c0,0.276-0.225,0.5-0.5,0.5H24C23.724,31,23.5,31.224,23.5,31.5z"/>
	<path fill="#808184" d="M28.5,26c0-1.103-0.897-2-2-2s-2,0.897-2,2s0.897,2,2,2S28.5,27.103,28.5,26z M25.5,26c0-0.551,0.448-1,1-1
		s1,0.449,1,1s-0.448,1-1,1S25.5,26.551,25.5,26z"/>
	<path fill="#808184" d="M1.5,32H8c0.276,0,0.5-0.224,0.5-0.5S8.276,31,8,31H1.5C1.225,31,1,30.776,1,30.5V16h4
		c0.276,0,0.5-0.224,0.5-0.5S5.276,15,5,15H1V6h4c0.276,0,0.5-0.224,0.5-0.5S5.276,5,5,5H1V1.5C1,1.224,1.225,1,1.5,1H8
		c0.276,0,0.5-0.224,0.5-0.5S8.276,0,8,0H1.5C0.673,0,0,0.673,0,1.5v29C0,31.327,0.673,32,1.5,32z"/>
	<path fill="#808184" d="M3.5,26c0,1.103,0.897,2,2,2s2-0.897,2-2s-0.897-2-2-2S3.5,24.897,3.5,26z M6.5,26c0,0.551-0.448,1-1,1
		s-1-0.449-1-1s0.448-1,1-1S6.5,25.449,6.5,26z"/>
</g>
</svg>
