<?xml version="1.0" encoding="utf-8"?>
<!-- Generator: Adobe Illustrator 18.0.0, SVG Export Plug-In . SVG Version: 6.00 Build 0)  -->
<!DOCTYPE svg PUBLIC "-//W3C//DTD SVG 1.1//EN" "http://www.w3.org/Graphics/SVG/1.1/DTD/svg11.dtd">
<svg version="1.1" id="Layer_1" xmlns="http://www.w3.org/2000/svg" xmlns:xlink="http://www.w3.org/1999/xlink" x="0px" y="0px"
	 width="32px" height="32px" viewBox="0 0 32 32" enable-background="new 0 0 32 32" xml:space="preserve">
<g>
	<path fill="#808184" d="M1.5,32h29c0.827,0,1.5-0.673,1.5-1.5V26v-1v-5v-1v-6v-1V7V6V1.5C32,0.673,31.327,0,30.5,0h-29
		C0.673,0,0,0.673,0,1.5v29C0,31.327,0.673,32,1.5,32z M31,30.5c0,0.276-0.225,0.5-0.5,0.5H27v-5h4V30.5z M31,25h-4v-5h4V25z M31,19
		h-4v-6h4V19z M31,12h-4V7h4V12z M30.5,1C30.775,1,31,1.224,31,1.5V6h-4V1H30.5z M26,1v30H6v-5v-1v-5v-1v-6v-1V7V6V1H26z M1,1.5
		C1,1.224,1.225,1,1.5,1H5v5H1V1.5z M1,7h4v5H1V7z M1,13h4v6H1V13z M1,20h4v5H1V20z M1,26h4v5H1.5C1.225,31,1,30.776,1,30.5V26z"/>
	<path fill="#808184" d="M15.502,18.944c0.279,0,0.555-0.08,0.795-0.231l3.494-2.192c0.44-0.276,0.702-0.751,0.702-1.271
		s-0.262-0.994-0.702-1.271l-3.494-2.192c-0.24-0.151-0.516-0.231-0.795-0.231c-0.828,0-1.502,0.674-1.502,1.502v4.384
		C14,18.27,14.674,18.944,15.502,18.944z M15,13.058c0-0.31,0.261-0.502,0.502-0.502c0.093,0,0.181,0.026,0.264,0.078l3.494,2.192
		c0.211,0.133,0.233,0.341,0.233,0.424s-0.022,0.291-0.233,0.424l-3.494,2.192C15.469,18.052,15,17.872,15,17.442V13.058z"/>
</g>
</svg>
