<?xml version="1.0" encoding="utf-8"?>
<!-- Generator: Adobe Illustrator 18.0.0, SVG Export Plug-In . SVG Version: 6.00 Build 0)  -->
<!DOCTYPE svg PUBLIC "-//W3C//DTD SVG 1.1//EN" "http://www.w3.org/Graphics/SVG/1.1/DTD/svg11.dtd">
<svg version="1.1" id="Layer_1" xmlns="http://www.w3.org/2000/svg" xmlns:xlink="http://www.w3.org/1999/xlink" x="0px" y="0px"
	 width="44px" height="32px" viewBox="0 0 44 32" enable-background="new 0 0 44 32" xml:space="preserve">
<g>
	<path fill="#808184" d="M26.679,0.389c-0.275-0.23-0.621-0.352-0.999-0.352c-0.797,0-1.658,0.574-1.657,1.524l0.285,6.438
		c-1.514,0.037-5.67,0.418-10.33,3.232C7.571,15.101,2.89,21.846,0.066,31.278c-0.074,0.246,0.051,0.508,0.289,0.605
		c0.062,0.026,0.126,0.038,0.19,0.038c0.18,0,0.353-0.098,0.442-0.265c0.015-0.028,1.535-2.829,5.178-5.59
		c3.299-2.5,9.055-5.472,17.849-5.581l0.009,9.182c0,0.928,0.86,1.502,1.657,1.502c0.38,0,0.741-0.129,1.013-0.363L43.38,16.559
		c0.363-0.311,0.578-0.772,0.575-1.233c-0.003-0.417-0.177-0.792-0.494-1.057L26.679,0.389z M42.73,15.799L26.042,30.047
		c-0.118,0.102-0.262,0.123-0.363,0.123c-0.311,0-0.657-0.206-0.657-0.502l-0.009-9.685c0-0.276-0.224-0.5-0.5-0.5
		c-12.584,0-19.477,5.671-22.504,9.119C9.002,9.571,22.937,8.995,24.575,8.995c0.143,0,0.222,0.004,0.229,0.004
		c0.138,0.002,0.278-0.045,0.378-0.145s0.154-0.236,0.147-0.377l-0.307-6.939c0-0.296,0.347-0.502,0.658-0.502
		c0.098,0,0.24,0.021,0.359,0.121l16.782,13.879c0.088,0.074,0.133,0.173,0.134,0.294C42.956,15.5,42.87,15.679,42.73,15.799z"/>
</g>
</svg>
