<?xml version="1.0" encoding="utf-8"?>
<!-- Generator: Adobe Illustrator 18.0.0, SVG Export Plug-In . SVG Version: 6.00 Build 0)  -->
<!DOCTYPE svg PUBLIC "-//W3C//DTD SVG 1.1//EN" "http://www.w3.org/Graphics/SVG/1.1/DTD/svg11.dtd">
<svg version="1.1" id="Layer_1" xmlns="http://www.w3.org/2000/svg" xmlns:xlink="http://www.w3.org/1999/xlink" x="0px" y="0px"
	 width="28px" height="32px" viewBox="0 0 28 32" enable-background="new 0 0 28 32" xml:space="preserve">
<g>
	<path fill="#808184" d="M25,32c1.662,0,3-1.353,3-3.015V14.079c0-7.988-6.596-14.451-14.68-14.062C5.807,0.37,0,6.715,0,14.462
		v14.523C0,30.647,1.338,32,3,32s3-1.353,3-3.015v-1.057c0-1.389,1.111-2.518,2.5-2.518S11,26.54,11,27.929v1.057
		C11,30.647,12.338,32,14,32s3-1.353,3-3.015v-1.057c0-1.389,1.111-2.518,2.5-2.518S22,26.54,22,27.929v1.057
		C22,30.647,23.338,32,25,32z M19.5,24.411c-1.939,0-3.5,1.578-3.5,3.518v1.057C16,30.097,15.111,31,14,31s-2-0.903-2-2.015v-1.057
		c0-1.939-1.561-3.518-3.5-3.518S5,25.989,5,27.929v1.057C5,30.097,4.111,31,3,31s-2-0.903-2-2.015V14.462
		C1,7.25,6.388,1.344,13.367,1.015C20.887,0.668,27,6.657,27,14.079v14.906C27,30.097,26.111,31,25,31s-2-0.903-2-2.015v-1.057
		C23,25.989,21.439,24.411,19.5,24.411z"/>
	<path fill="#808184" d="M20.458,16.409c-1.605,1.922-3.96,3.024-6.458,3.024s-4.853-1.103-6.458-3.024
		c-0.177-0.212-0.493-0.24-0.704-0.063c-0.212,0.177-0.24,0.492-0.063,0.704c1.796,2.15,4.43,3.384,7.226,3.384
		s5.43-1.233,7.226-3.384c0.177-0.212,0.148-0.527-0.063-0.704C20.951,16.17,20.636,16.198,20.458,16.409z"/>
	<path fill="#808184" d="M10.417,13.052c1.087,0,1.972-0.885,1.972-1.972c0-1.088-0.885-1.973-1.972-1.973
		c-1.088,0-1.973,0.885-1.973,1.973C8.444,12.167,9.329,13.052,10.417,13.052z M10.417,10.107c0.536,0,0.972,0.437,0.972,0.973
		s-0.436,0.972-0.972,0.972s-0.973-0.436-0.973-0.972S9.881,10.107,10.417,10.107z"/>
	<path fill="#808184" d="M17.198,13.052c1.087,0,1.972-0.885,1.972-1.972c0-1.088-0.885-1.973-1.972-1.973
		c-1.088,0-1.973,0.885-1.973,1.973C15.226,12.167,16.11,13.052,17.198,13.052z M17.198,10.107c0.536,0,0.972,0.437,0.972,0.973
		s-0.436,0.972-0.972,0.972s-0.973-0.436-0.973-0.972S16.662,10.107,17.198,10.107z"/>
</g>
</svg>
