<?xml version="1.0" encoding="utf-8"?>
<!-- Generator: Adobe Illustrator 18.0.0, SVG Export Plug-In . SVG Version: 6.00 Build 0)  -->
<!DOCTYPE svg PUBLIC "-//W3C//DTD SVG 1.1//EN" "http://www.w3.org/Graphics/SVG/1.1/DTD/svg11.dtd">
<svg version="1.1" id="Layer_1" xmlns="http://www.w3.org/2000/svg" xmlns:xlink="http://www.w3.org/1999/xlink" x="0px" y="0px"
	 width="40px" height="32px" viewBox="0 0 40 32" enable-background="new 0 0 40 32" xml:space="preserve">
<g>
	<path fill="#808184" d="M0.5,32h39c0.276,0,0.5-0.224,0.5-0.5S39.776,31,39.5,31h-3V7.5C36.5,6.673,35.827,6,35,6h-6
		c-0.827,0-1.5,0.673-1.5,1.5V31h-3V1.5C24.5,0.673,23.827,0,23,0h-6c-0.827,0-1.5,0.673-1.5,1.5V31h-3V15.5
		c0-0.827-0.673-1.5-1.5-1.5H5c-0.827,0-1.5,0.673-1.5,1.5V31h-3C0.224,31,0,31.224,0,31.5S0.224,32,0.5,32z M28.5,7.5
		C28.5,7.224,28.725,7,29,7h6c0.275,0,0.5,0.224,0.5,0.5V31h-7V7.5z M16.5,1.5C16.5,1.224,16.725,1,17,1h6
		c0.275,0,0.5,0.224,0.5,0.5V31h-7V1.5z M4.5,15.5C4.5,15.224,4.725,15,5,15h6c0.275,0,0.5,0.224,0.5,0.5V31h-7V15.5z"/>
</g>
</svg>
