<?xml version="1.0" encoding="utf-8"?>
<!-- Generator: Adobe Illustrator 18.0.0, SVG Export Plug-In . SVG Version: 6.00 Build 0)  -->
<!DOCTYPE svg PUBLIC "-//W3C//DTD SVG 1.1//EN" "http://www.w3.org/Graphics/SVG/1.1/DTD/svg11.dtd">
<svg version="1.1" id="Layer_1" xmlns="http://www.w3.org/2000/svg" xmlns:xlink="http://www.w3.org/1999/xlink" x="0px" y="0px"
	 width="32px" height="32px" viewBox="0 0 32 32" enable-background="new 0 0 32 32" xml:space="preserve">
<g>
	<path fill="#808184" d="M8,1.5C8,0.673,7.327,0,6.5,0h-5C0.673,0,0,0.673,0,1.5v5C0,7.327,0.673,8,1.5,8h5C7.327,8,8,7.327,8,6.5
		V1.5z M7,6.5C7,6.776,6.776,7,6.5,7h-5C1.224,7,1,6.776,1,6.5v-5C1,1.224,1.224,1,1.5,1h5C6.776,1,7,1.224,7,1.5V6.5z"/>
	<path fill="#808184" d="M20,1.5C20,0.673,19.327,0,18.5,0h-5C12.673,0,12,0.673,12,1.5v5C12,7.327,12.673,8,13.5,8h5
		C19.327,8,20,7.327,20,6.5V1.5z M19,6.5C19,6.776,18.776,7,18.5,7h-5C13.224,7,13,6.776,13,6.5v-5C13,1.224,13.224,1,13.5,1h5
		C18.776,1,19,1.224,19,1.5V6.5z"/>
	<path fill="#808184" d="M32,1.5C32,0.673,31.327,0,30.5,0h-5C24.673,0,24,0.673,24,1.5v5C24,7.327,24.673,8,25.5,8h5
		C31.327,8,32,7.327,32,6.5V1.5z M31,6.5C31,6.776,30.776,7,30.5,7h-5C25.224,7,25,6.776,25,6.5v-5C25,1.224,25.224,1,25.5,1h5
		C30.776,1,31,1.224,31,1.5V6.5z"/>
	<path fill="#808184" d="M8,13.5C8,12.673,7.327,12,6.5,12h-5C0.673,12,0,12.673,0,13.5v5C0,19.327,0.673,20,1.5,20h5
		C7.327,20,8,19.327,8,18.5V13.5z M7,18.5C7,18.776,6.776,19,6.5,19h-5C1.224,19,1,18.776,1,18.5v-5C1,13.224,1.224,13,1.5,13h5
		C6.776,13,7,13.224,7,13.5V18.5z"/>
	<path fill="#808184" d="M20,13.5c0-0.827-0.673-1.5-1.5-1.5h-5c-0.827,0-1.5,0.673-1.5,1.5v5c0,0.827,0.673,1.5,1.5,1.5h5
		c0.827,0,1.5-0.673,1.5-1.5V13.5z M19,18.5c0,0.276-0.224,0.5-0.5,0.5h-5c-0.276,0-0.5-0.224-0.5-0.5v-5c0-0.276,0.224-0.5,0.5-0.5
		h5c0.276,0,0.5,0.224,0.5,0.5V18.5z"/>
	<path fill="#808184" d="M32,13.5c0-0.827-0.673-1.5-1.5-1.5h-5c-0.827,0-1.5,0.673-1.5,1.5v5c0,0.827,0.673,1.5,1.5,1.5h5
		c0.827,0,1.5-0.673,1.5-1.5V13.5z M31,18.5c0,0.276-0.224,0.5-0.5,0.5h-5c-0.276,0-0.5-0.224-0.5-0.5v-5c0-0.276,0.224-0.5,0.5-0.5
		h5c0.276,0,0.5,0.224,0.5,0.5V18.5z"/>
	<path fill="#808184" d="M6.5,24h-5C0.673,24,0,24.673,0,25.5v5C0,31.327,0.673,32,1.5,32h5C7.327,32,8,31.327,8,30.5v-5
		C8,24.673,7.327,24,6.5,24z M7,30.5C7,30.776,6.776,31,6.5,31h-5C1.224,31,1,30.776,1,30.5v-5C1,25.224,1.224,25,1.5,25h5
		C6.776,25,7,25.224,7,25.5V30.5z"/>
	<path fill="#808184" d="M18.5,24h-5c-0.827,0-1.5,0.673-1.5,1.5v5c0,0.827,0.673,1.5,1.5,1.5h5c0.827,0,1.5-0.673,1.5-1.5v-5
		C20,24.673,19.327,24,18.5,24z M19,30.5c0,0.276-0.224,0.5-0.5,0.5h-5c-0.276,0-0.5-0.224-0.5-0.5v-5c0-0.276,0.224-0.5,0.5-0.5h5
		c0.276,0,0.5,0.224,0.5,0.5V30.5z"/>
	<path fill="#808184" d="M30.5,24h-5c-0.827,0-1.5,0.673-1.5,1.5v5c0,0.827,0.673,1.5,1.5,1.5h5c0.827,0,1.5-0.673,1.5-1.5v-5
		C32,24.673,31.327,24,30.5,24z M31,30.5c0,0.276-0.224,0.5-0.5,0.5h-5c-0.276,0-0.5-0.224-0.5-0.5v-5c0-0.276,0.224-0.5,0.5-0.5h5
		c0.276,0,0.5,0.224,0.5,0.5V30.5z"/>
</g>
</svg>
