<?xml version="1.0" encoding="utf-8"?>
<!-- Generator: Adobe Illustrator 18.0.0, SVG Export Plug-In . SVG Version: 6.00 Build 0)  -->
<!DOCTYPE svg PUBLIC "-//W3C//DTD SVG 1.1//EN" "http://www.w3.org/Graphics/SVG/1.1/DTD/svg11.dtd">
<svg version="1.1" id="Layer_1" xmlns="http://www.w3.org/2000/svg" xmlns:xlink="http://www.w3.org/1999/xlink" x="0px" y="0px"
	 width="32px" height="32px" viewBox="0 0 32 32" enable-background="new 0 0 32 32" xml:space="preserve">
<g>
	<path fill="#808184" d="M30.208,0H1.792C0.804,0,0,0.804,0,1.792v28.416C0,31.196,0.804,32,1.792,32h28.417
		C31.196,32,32,31.196,32,30.208V1.792C32,0.804,31.196,0,30.208,0z M20.614,31h-9.173c0.627-2.966,0.567-5.964,0.246-8.936
		c1.081-0.146,2.159-0.305,3.227-0.471c1.919-0.299,3.863-0.598,5.812-0.773C21.168,24.221,21.359,27.657,20.614,31z M14.76,20.604
		c-1.056,0.164-2.12,0.326-3.188,0.47c-0.167-1.338-0.369-2.67-0.574-3.989c-0.258-1.664-0.519-3.345-0.698-5.033
		c1.549-0.177,3.089-0.414,4.613-0.651c1.474-0.229,2.962-0.458,4.456-0.633c0.167,2.175,0.501,4.337,0.832,6.471
		c0.133,0.857,0.263,1.721,0.386,2.587C18.629,20.006,16.683,20.306,14.76,20.604z M1,11.852c1.609,0.34,3.226,0.486,4.845,0.486
		c1.155,0,2.308-0.082,3.46-0.191c0.182,1.71,0.445,3.411,0.706,5.094c0.203,1.309,0.404,2.632,0.569,3.958
		C7.374,21.586,4.146,21.718,1,21.017V11.852z M11.192,1h9.135c-0.964,2.921-1.171,5.855-1.023,8.77
		c-1.525,0.177-3.042,0.411-4.545,0.644c-1.505,0.234-3.028,0.464-4.555,0.638C9.92,7.693,10.031,4.315,11.192,1z M21.189,17.086
		c-0.329-2.12-0.66-4.268-0.823-6.423c3.551-0.347,7.128-0.295,10.634,0.933v9.134c-3.137-1.036-6.288-1.195-9.414-0.983
		C21.46,18.856,21.326,17.968,21.189,17.086z M31,1.792v8.748c-3.566-1.178-7.152-1.222-10.696-0.877
		C20.162,6.764,20.382,3.859,21.383,1h8.826C30.645,1,31,1.355,31,1.792z M1.792,1h8.345C9.018,4.385,8.921,7.789,9.21,11.159
		C6.457,11.421,3.698,11.428,1,10.826V1.792C1,1.355,1.355,1,1.792,1z M1,30.208v-8.166c1.609,0.34,3.226,0.486,4.845,0.486
		c1.62,0,3.24-0.138,4.851-0.333c0.316,2.95,0.372,5.912-0.273,8.805H1.792C1.355,31,1,30.645,1,30.208z M30.208,31h-8.577
		c0.72-3.406,0.534-6.855,0.093-10.258c3.103-0.204,6.216-0.027,9.275,1.044v8.422C31,30.645,30.645,31,30.208,31z"/>
</g>
</svg>
