<?xml version="1.0" encoding="utf-8"?>
<!-- Generator: Adobe Illustrator 18.0.0, SVG Export Plug-In . SVG Version: 6.00 Build 0)  -->
<!DOCTYPE svg PUBLIC "-//W3C//DTD SVG 1.1//EN" "http://www.w3.org/Graphics/SVG/1.1/DTD/svg11.dtd">
<svg version="1.1" id="Layer_1" xmlns="http://www.w3.org/2000/svg" xmlns:xlink="http://www.w3.org/1999/xlink" x="0px" y="0px"
	 width="35px" height="32px" viewBox="0 0 35 32" enable-background="new 0 0 35 32" xml:space="preserve">
<g>
	<path fill="#808184" d="M33.5,0h-32C0.673,0,0,0.673,0,1.5v10C0,12.327,0.673,13,1.5,13h32c0.827,0,1.5-0.673,1.5-1.5v-10
		C35,0.673,34.327,0,33.5,0z M34,11.5c0,0.275-0.224,0.5-0.5,0.5h-32C1.224,12,1,11.775,1,11.5v-10C1,1.225,1.224,1,1.5,1h32
		C33.776,1,34,1.225,34,1.5V11.5z"/>
	<path fill="#808184" d="M4.5,14.5C4.224,14.5,4,14.724,4,15v15.5C4,31.327,4.673,32,5.5,32h24c0.827,0,1.5-0.673,1.5-1.5V16
		c0-0.276-0.224-0.5-0.5-0.5S30,15.724,30,16v14.5c0,0.275-0.224,0.5-0.5,0.5h-24C5.224,31,5,30.775,5,30.5V15
		C5,14.724,4.776,14.5,4.5,14.5z"/>
	<path fill="#808184" d="M9.5,14.5C9.224,14.5,9,14.724,9,15v5.5c0,0.827,0.673,1.5,1.5,1.5h14c0.827,0,1.5-0.673,1.5-1.5V16
		c0-0.276-0.224-0.5-0.5-0.5S25,15.724,25,16v4.5c0,0.275-0.224,0.5-0.5,0.5h-14c-0.276,0-0.5-0.225-0.5-0.5V15
		C10,14.724,9.776,14.5,9.5,14.5z"/>
</g>
</svg>
