<?xml version="1.0" encoding="utf-8"?>
<!-- Generator: Adobe Illustrator 18.0.0, SVG Export Plug-In . SVG Version: 6.00 Build 0)  -->
<!DOCTYPE svg PUBLIC "-//W3C//DTD SVG 1.1//EN" "http://www.w3.org/Graphics/SVG/1.1/DTD/svg11.dtd">
<svg version="1.1" id="Layer_1" xmlns="http://www.w3.org/2000/svg" xmlns:xlink="http://www.w3.org/1999/xlink" x="0px" y="0px"
	 width="37px" height="32px" viewBox="0 0 37 32" enable-background="new 0 0 37 32" xml:space="preserve">
<g>
	<path fill="#808184" d="M0.5,29.5C0.776,29.5,1,29.276,1,29v-4h1v3c0,2.206,1.794,4,4,4s4-1.794,4-4v-7c0-2.206-1.794-4-4-4
		s-4,1.794-4,4v3H1v-5.5C1,9.034,9.257,1.034,19.045,1C28.558,1.034,36,8.708,36,18.5V24h-1v-3c0-2.206-1.794-4-4-4s-4,1.794-4,4v7
		c0,2.206,1.794,4,4,4s4-1.794,4-4v-3h1v3c0,0.276,0.224,0.5,0.5,0.5S37,28.276,37,28v-9.5C37,8.177,29.164,0,19.132,0
		c-0.008,0-0.017,0-0.024,0h-0.125c-0.008,0-0.017,0-0.024,0C8.666,0,0,8.521,0,18.5V29C0,29.276,0.224,29.5,0.5,29.5z M3,21
		c0-1.654,1.346-3,3-3s3,1.346,3,3v7c0,1.654-1.346,3-3,3s-3-1.346-3-3V21z M34,28c0,1.654-1.346,3-3,3s-3-1.346-3-3v-7
		c0-1.654,1.346-3,3-3s3,1.346,3,3V28z"/>
</g>
</svg>
