<?xml version="1.0" encoding="utf-8"?>
<!-- Generator: Adobe Illustrator 18.0.0, SVG Export Plug-In . SVG Version: 6.00 Build 0)  -->
<!DOCTYPE svg PUBLIC "-//W3C//DTD SVG 1.1//EN" "http://www.w3.org/Graphics/SVG/1.1/DTD/svg11.dtd">
<svg version="1.1" id="Layer_1" xmlns="http://www.w3.org/2000/svg" xmlns:xlink="http://www.w3.org/1999/xlink" x="0px" y="0px"
	 width="31px" height="32px" viewBox="0 0 31 32" enable-background="new 0 0 31 32" xml:space="preserve">
<g>
	<path fill="#808184" d="M6.5,13c3.584,0,6.5-2.916,6.5-6.5C13,6.224,12.776,6,12.5,6S12,6.224,12,6.5C12,9.533,9.532,12,6.5,12
		S1,9.533,1,6.5S3.468,1,6.5,1h18C27.532,1,30,3.467,30,6.5S27.532,12,24.5,12S19,9.533,19,6.5C19,6.224,18.776,6,18.5,6
		S18,6.224,18,6.5c0,3.584,2.916,6.5,6.5,6.5S31,10.084,31,6.5S28.084,0,24.5,0h-18C2.916,0,0,2.916,0,6.5S2.916,13,6.5,13z"/>
	<path fill="#808184" d="M18,12.5c0-0.276-0.224-0.5-0.5-0.5h-4c-0.276,0-0.5,0.224-0.5,0.5s0.224,0.5,0.5,0.5h4
		C17.776,13,18,12.776,18,12.5z"/>
	<path fill="#808184" d="M5.5,16v16c0,0.276,0.224,0.5,0.5,0.5s0.5-0.224,0.5-0.5V16c0-0.276-0.224-0.5-0.5-0.5S5.5,15.724,5.5,16z"
		/>
	<path fill="#808184" d="M11.5,16v16c0,0.276,0.224,0.5,0.5,0.5s0.5-0.224,0.5-0.5V16c0-0.276-0.224-0.5-0.5-0.5
		S11.5,15.724,11.5,16z"/>
	<path fill="#808184" d="M18,32.5c0.276,0,0.5-0.224,0.5-0.5V16c0-0.276-0.224-0.5-0.5-0.5s-0.5,0.224-0.5,0.5v16
		C17.5,32.276,17.724,32.5,18,32.5z"/>
	<path fill="#808184" d="M23.5,16v16c0,0.276,0.224,0.5,0.5,0.5s0.5-0.224,0.5-0.5V16c0-0.276-0.224-0.5-0.5-0.5
		S23.5,15.724,23.5,16z"/>
	<path fill="#808184" d="M4.069,6.5c0,0.276,0.224,0.5,0.5,0.5s0.5-0.224,0.5-0.5c0-0.827,0.673-1.5,1.5-1.5
		c0.276,0,0.5-0.224,0.5-0.5S6.846,4,6.569,4C5.19,4,4.069,5.122,4.069,6.5z"/>
	<path fill="#808184" d="M23.069,6.5c0-0.827,0.673-1.5,1.5-1.5c0.276,0,0.5-0.224,0.5-0.5S24.846,4,24.569,4
		c-1.379,0-2.5,1.122-2.5,2.5c0,0.276,0.224,0.5,0.5,0.5S23.069,6.776,23.069,6.5z"/>
</g>
</svg>
