<?xml version="1.0" encoding="utf-8"?>
<!-- Generator: Adobe Illustrator 18.0.0, SVG Export Plug-In . SVG Version: 6.00 Build 0)  -->
<!DOCTYPE svg PUBLIC "-//W3C//DTD SVG 1.1//EN" "http://www.w3.org/Graphics/SVG/1.1/DTD/svg11.dtd">
<svg version="1.1" id="Layer_1" xmlns="http://www.w3.org/2000/svg" xmlns:xlink="http://www.w3.org/1999/xlink" x="0px" y="0px"
	 width="23px" height="32px" viewBox="0 0 23 32" enable-background="new 0 0 23 32" xml:space="preserve">
<g>
	<path fill="#808184" d="M5.96,18.695c0.107-0.254-0.011-0.547-0.266-0.655c-0.252-0.106-0.548,0.01-0.655,0.266L0.103,29.962
		c-0.263,0.69-0.008,1.414,0.634,1.801C1,31.923,1.288,32,1.571,32c0.437,0,0.863-0.185,1.175-0.539l8.131-9.388
		c0.181-0.208,0.158-0.524-0.051-0.705c-0.207-0.181-0.524-0.159-0.705,0.051l-8.128,9.384c-0.235,0.265-0.546,0.221-0.74,0.104
		c-0.108-0.065-0.344-0.253-0.223-0.572L5.96,18.695z"/>
	<path fill="#808184" d="M22.996,6.057c0.041-0.535-0.227-1.034-0.698-1.3l-8.07-4.572c-0.577-0.327-1.333-0.189-1.759,0.303
		c-0.262,0.303-0.375,0.689-0.318,1.088l0.587,4.08c0.024,0.164-0.065,0.322-0.221,0.394L0.696,11.486
		C0.259,11.736-0.001,12.184,0,12.683s0.263,0.945,0.702,1.194l15.782,8.939C16.696,22.936,16.936,23,17.177,23
		c0.755,0,1.369-0.584,1.396-1.375L17.891,9.12c-0.008-0.163,0.092-0.312,0.25-0.373l3.964-1.508
		C22.614,7.047,22.955,6.593,22.996,6.057z M21.75,6.305l-3.965,1.508c-0.566,0.216-0.925,0.763-0.892,1.361l0.681,12.459
		C17.565,21.863,17.365,22,17.177,22c-0.069,0-0.137-0.018-0.2-0.054L1.195,13.006C1.02,12.907,1,12.745,1,12.68
		c0-0.064,0.019-0.226,0.154-0.306l11.781-5.417c0.562-0.258,0.88-0.839,0.793-1.445l-0.587-4.079
		c-0.02-0.138,0.035-0.234,0.084-0.291C13.302,1.053,13.418,1,13.535,1c0.069,0,0.136,0.019,0.2,0.055l8.07,4.572
		c0.191,0.108,0.199,0.284,0.194,0.354C21.994,6.052,21.958,6.226,21.75,6.305z"/>
</g>
</svg>
