<?xml version="1.0" encoding="utf-8"?>
<!-- Generator: Adobe Illustrator 18.0.0, SVG Export Plug-In . SVG Version: 6.00 Build 0)  -->
<!DOCTYPE svg PUBLIC "-//W3C//DTD SVG 1.1//EN" "http://www.w3.org/Graphics/SVG/1.1/DTD/svg11.dtd">
<svg version="1.1" id="Layer_1" xmlns="http://www.w3.org/2000/svg" xmlns:xlink="http://www.w3.org/1999/xlink" x="0px" y="0px"
	 width="32px" height="32px" viewBox="0 0 32 32" enable-background="new 0 0 32 32" xml:space="preserve">
<g>
	<path fill="#808184" d="M32,16c0-1.285-0.96-2.695-2.298-2.948C28.649,7.687,24.499,3.621,18.978,2.54C18.862,1.077,17.361,0,16,0
		c-1.361,0-2.862,1.077-2.978,2.54C7.574,3.609,3.609,7.574,2.54,13.022C1.077,13.138,0,14.639,0,16c0,1.361,1.077,2.862,2.54,2.978
		c1.067,5.448,5.032,9.413,10.482,10.482C13.138,30.923,14.639,32,16,32c1.285,0,2.695-0.96,2.948-2.298
		c5.436-1.067,9.69-5.32,10.755-10.755C31.04,18.695,32,17.285,32,16z M31,16c0,0.925-0.749,2-1.715,2h-6.037
		c0.176-0.638,0.278-1.307,0.278-2s-0.102-1.362-0.278-2h6.037C30.251,14,31,15.075,31,16z M16,22.526
		c-3.599,0-6.526-2.928-6.526-6.526S12.401,9.474,16,9.474s6.526,2.928,6.526,6.526S19.599,22.526,16,22.526z M28.67,13H23
		c-0.033,0-0.061,0.013-0.092,0.019c-0.761-1.756-2.171-3.166-3.926-3.926C18.987,9.061,19,9.033,19,9V3.565
		C23.926,4.611,27.634,8.229,28.67,13z M16,1c0.925,0,2,0.749,2,1.715v6.037c-0.638-0.176-1.307-0.278-2-0.278s-1.362,0.102-2,0.278
		V2.715C14,1.749,15.075,1,16,1z M13,3.565V9c0,0.033,0.013,0.061,0.019,0.092c-1.756,0.761-3.166,2.171-3.926,3.926
		C9.061,13.013,9.033,13,9,13H3.565C4.6,8.144,8.144,4.6,13,3.565z M1,16c0-0.925,0.749-2,1.715-2h6.037
		c-0.176,0.638-0.278,1.307-0.278,2s0.102,1.362,0.278,2H2.715C1.749,18,1,16.925,1,16z M3.565,19H9
		c0.033,0,0.061-0.013,0.092-0.019c0.761,1.756,2.171,3.166,3.926,3.926C13.013,22.939,13,22.967,13,23v5.435
		C8.143,27.4,4.599,23.856,3.565,19z M16,31c-0.925,0-2-0.749-2-1.715v-6.037c0.638,0.176,1.307,0.278,2,0.278s1.362-0.102,2-0.278
		v6.037C18,30.251,16.925,31,16,31z M19,28.67V23c0-0.033-0.013-0.061-0.019-0.092c1.756-0.761,3.166-2.171,3.926-3.926
		C22.939,18.987,22.967,19,23,19h5.67C27.622,23.837,23.839,27.622,19,28.67z"/>
</g>
</svg>
