<?xml version="1.0" encoding="utf-8"?>
<!-- Generator: Adobe Illustrator 18.0.0, SVG Export Plug-In . SVG Version: 6.00 Build 0)  -->
<!DOCTYPE svg PUBLIC "-//W3C//DTD SVG 1.1//EN" "http://www.w3.org/Graphics/SVG/1.1/DTD/svg11.dtd">
<svg version="1.1" id="Layer_1" xmlns="http://www.w3.org/2000/svg" xmlns:xlink="http://www.w3.org/1999/xlink" x="0px" y="0px"
	 width="32px" height="32px" viewBox="0 0 32 32" enable-background="new 0 0 32 32" xml:space="preserve">
<g>
	<path fill="#808184" d="M4.5,2C3.673,2,3,2.673,3,3.5V10c0,0.276,0.224,0.5,0.5,0.5S4,10.276,4,10V3.5C4,3.224,4.225,3,4.5,3H10
		c0.276,0,0.5-0.224,0.5-0.5S10.276,2,10,2H4.5z"/>
	<path fill="#808184" d="M29.5,30c0.827,0,1.5-0.673,1.5-1.5V23c0-0.276-0.224-0.5-0.5-0.5S30,22.724,30,23v5.5
		c0,0.276-0.225,0.5-0.5,0.5H23c-0.276,0-0.5,0.224-0.5,0.5S22.724,30,23,30H29.5z"/>
	<path fill="#808184" d="M3.5,21.5C3.224,21.5,3,21.724,3,22v6.5C3,29.327,3.673,30,4.5,30H10c0.276,0,0.5-0.224,0.5-0.5
		S10.276,29,10,29H4.5C4.225,29,4,28.776,4,28.5V22C4,21.724,3.776,21.5,3.5,21.5z"/>
	<path fill="#808184" d="M30.5,10.5c0.276,0,0.5-0.224,0.5-0.5V3.5C31,2.673,30.327,2,29.5,2H24c-0.276,0-0.5,0.224-0.5,0.5
		S23.724,3,24,3h5.5C29.775,3,30,3.224,30,3.5V10C30,10.276,30.224,10.5,30.5,10.5z"/>
	<path fill="#808184" d="M32,16H1c-0.276,0-0.5,0.224-0.5,0.5S0.724,17,1,17h31c0.276,0,0.5-0.224,0.5-0.5S32.276,16,32,16z"/>
</g>
</svg>
