<?xml version="1.0" encoding="utf-8"?>
<!-- Generator: Adobe Illustrator 18.0.0, SVG Export Plug-In . SVG Version: 6.00 Build 0)  -->
<!DOCTYPE svg PUBLIC "-//W3C//DTD SVG 1.1//EN" "http://www.w3.org/Graphics/SVG/1.1/DTD/svg11.dtd">
<svg version="1.1" id="Layer_1" xmlns="http://www.w3.org/2000/svg" xmlns:xlink="http://www.w3.org/1999/xlink" x="0px" y="0px"
	 width="32px" height="32px" viewBox="0 0 32 32" enable-background="new 0 0 32 32" xml:space="preserve">
<g>
	<path fill="#808184" d="M7,17.421c0.104,0,0.209-0.032,0.298-0.1l6.631-4.946l3.023,4.578c0.08,0.121,0.208,0.201,0.352,0.221
		c0.143,0.021,0.289-0.025,0.397-0.122L25,10.589V12c0,0.276,0.224,0.5,0.5,0.5S26,12.276,26,12V9.5C26,9.224,25.776,9,25.5,9H23
		c-0.276,0-0.5,0.224-0.5,0.5S22.724,10,23,10h1.157l-6.687,5.922l-2.997-4.54c-0.076-0.115-0.196-0.193-0.332-0.217
		c-0.134-0.024-0.275,0.009-0.385,0.092l-7.055,5.264c-0.222,0.165-0.267,0.479-0.102,0.699C6.697,17.352,6.848,17.421,7,17.421z"/>
	<path fill="#808184" d="M0,4.5C0,5.879,1.122,7,2.5,7H3v16H2c-0.276,0-0.5,0.224-0.5,0.5S1.724,24,2,24h13v2.166L3.308,31.038
		c-0.255,0.106-0.375,0.399-0.269,0.654c0.107,0.256,0.399,0.372,0.654,0.27L15,27.25V30c0,0.276,0.224,0.5,0.5,0.5S16,30.276,16,30
		v-2.772l12.32,4.739C28.379,31.989,28.44,32,28.5,32c0.201,0,0.39-0.122,0.467-0.32c0.099-0.258-0.03-0.547-0.287-0.646L16,26.156
		V24h14c0.276,0,0.5-0.224,0.5-0.5S30.276,23,30,23h-1V7h0.5C30.878,7,32,5.879,32,4.5S30.878,2,29.5,2H16V1
		c0-0.276-0.224-0.5-0.5-0.5S15,0.724,15,1v1H2.5C1.122,2,0,3.121,0,4.5z M28,23H4V7h24V23z M2.5,3h27C30.327,3,31,3.673,31,4.5
		S30.327,6,29.5,6h-27C1.673,6,1,5.327,1,4.5S1.673,3,2.5,3z"/>
</g>
</svg>
