<?xml version="1.0" encoding="utf-8"?>
<!-- Generator: Adobe Illustrator 18.0.0, SVG Export Plug-In . SVG Version: 6.00 Build 0)  -->
<!DOCTYPE svg PUBLIC "-//W3C//DTD SVG 1.1//EN" "http://www.w3.org/Graphics/SVG/1.1/DTD/svg11.dtd">
<svg version="1.1" id="Layer_1" xmlns="http://www.w3.org/2000/svg" xmlns:xlink="http://www.w3.org/1999/xlink" x="0px" y="0px"
	 width="31px" height="32px" viewBox="0 0 31 32" enable-background="new 0 0 31 32" xml:space="preserve">
<g>
	<path fill="#808184" d="M19.711,9.281c0.058-0.028,0.107-0.067,0.149-0.112c0.825,1.337,2.157,2.329,3.736,2.679
		C24.05,11.949,24.51,12,24.964,12c1.829,0,3.535-0.819,4.681-2.247c1.146-1.428,1.572-3.294,1.167-5.12
		c-0.494-2.229-2.252-3.988-4.481-4.482c-2.283-0.507-4.619,0.313-6.048,2.095c-1.146,1.429-1.572,3.295-1.167,5.121
		c0.075,0.338,0.188,0.66,0.318,0.973c-0.051,0.007-0.101,0.014-0.15,0.037l-8.159,3.876c-0.053,0.025-0.096,0.062-0.135,0.102
		c-0.838-1.223-2.112-2.135-3.585-2.462c-2.281-0.501-4.618,0.314-6.048,2.096c-1.146,1.428-1.572,3.294-1.167,5.12
		c0.497,2.243,2.35,4.055,4.611,4.509c0.411,0.083,0.827,0.125,1.238,0.125c1.959,0,3.785-0.973,4.902-2.559
		c0.04,0.054,0.091,0.101,0.152,0.136l7.371,4.198c-0.537,1.184-0.686,2.526-0.393,3.85c0.494,2.228,2.253,3.987,4.482,4.481
		C23.004,31.949,23.464,32,23.918,32c1.829,0,3.535-0.819,4.681-2.247c1.146-1.428,1.572-3.294,1.167-5.12
		c-0.494-2.229-2.252-3.988-4.481-4.482c-2.284-0.508-4.619,0.312-6.048,2.095c-0.103,0.128-0.193,0.264-0.284,0.399l-7.366-4.195
		c-0.059-0.034-0.123-0.054-0.187-0.062c0.583-1.178,0.779-2.486,0.526-3.818c-0.093-0.488-0.259-0.951-0.468-1.392
		c0.032-0.008,0.065-0.007,0.095-0.022L19.711,9.281z M21.062,2.873C22.018,1.683,23.439,1,24.963,1c0.381,0,0.768,0.043,1.15,0.128
		c1.823,0.404,3.318,1.899,3.722,3.722c0.339,1.528-0.015,3.087-0.97,4.277c-1.194,1.488-3.141,2.169-5.052,1.745
		c-1.823-0.404-3.318-1.899-3.722-3.722C19.752,5.623,20.106,4.063,21.062,2.873z M20.016,22.873C20.972,21.683,22.394,21,23.917,21
		c0.381,0,0.768,0.043,1.15,0.128c1.823,0.404,3.318,1.899,3.722,3.722c0.339,1.528-0.015,3.087-0.97,4.277
		c-1.194,1.488-3.14,2.169-5.052,1.745c-1.823-0.404-3.318-1.899-3.722-3.722C18.707,25.623,19.061,24.063,20.016,22.873z
		 M4.996,20.638c-1.879-0.377-3.418-1.882-3.831-3.745c-0.339-1.528,0.015-3.087,0.97-4.277c0.955-1.19,2.377-1.873,3.902-1.873
		c0.381,0,0.768,0.043,1.15,0.128c1.885,0.418,3.394,1.98,3.756,3.887c0.231,1.219,0.036,2.417-0.564,3.466
		C9.317,20.077,7.136,21.064,4.996,20.638z"/>
</g>
</svg>
