<?xml version="1.0" encoding="utf-8"?>
<!-- Generator: Adobe Illustrator 18.0.0, SVG Export Plug-In . SVG Version: 6.00 Build 0)  -->
<!DOCTYPE svg PUBLIC "-//W3C//DTD SVG 1.1//EN" "http://www.w3.org/Graphics/SVG/1.1/DTD/svg11.dtd">
<svg version="1.1" id="Layer_1" xmlns="http://www.w3.org/2000/svg" xmlns:xlink="http://www.w3.org/1999/xlink" x="0px" y="0px"
	 width="46px" height="32px" viewBox="0 0 46 32" enable-background="new 0 0 46 32" xml:space="preserve">
<g>
	<path fill="#808184" d="M20.502,19.929c0.26,0,0.519-0.07,0.748-0.203l4.203-2.427c0.47-0.271,0.75-0.756,0.75-1.299
		s-0.28-1.028-0.75-1.299l-4.203-2.427c-0.229-0.133-0.488-0.203-0.748-0.203c-0.828,0-1.502,0.674-1.502,1.502v4.854
		C19,19.255,19.674,19.929,20.502,19.929z M20,13.573c0-0.31,0.261-0.502,0.502-0.502c0.086,0,0.17,0.023,0.248,0.068l4.203,2.427
		c0.226,0.131,0.25,0.347,0.25,0.434s-0.024,0.303-0.25,0.434L20.75,18.86C20.453,19.033,20,18.847,20,18.427V13.573z"/>
	<path fill="#808184" d="M7,1.5v29C7,31.327,7.673,32,8.5,32h29c0.827,0,1.5-0.673,1.5-1.5v-29C39,0.673,38.327,0,37.5,0h-29
		C7.673,0,7,0.673,7,1.5z M38,1.5v29c0,0.275-0.225,0.5-0.5,0.5h-29C8.225,31,8,30.775,8,30.5v-29C8,1.225,8.225,1,8.5,1h29
		C37.775,1,38,1.225,38,1.5z"/>
	<path fill="#808184" d="M5.374,26.168c-0.184-0.208-0.501-0.225-0.706-0.042l-2.836,2.521c-0.225,0.201-0.467,0.114-0.537,0.083
		C1.226,28.698,1,28.573,1,28.273V3.727c0-0.3,0.226-0.425,0.295-0.456c0.07-0.031,0.312-0.118,0.537,0.083l2.836,2.521
		C4.873,6.056,5.19,6.038,5.374,5.832S5.538,5.31,5.332,5.126L2.496,2.605c-0.447-0.398-1.065-0.49-1.61-0.247
		C0.34,2.604,0,3.128,0,3.727v24.547c0,0.599,0.34,1.123,0.886,1.368c0.201,0.09,0.411,0.135,0.62,0.135
		c0.357,0,0.708-0.131,0.99-0.382l2.836-2.521C5.538,26.69,5.558,26.374,5.374,26.168z"/>
	<path fill="#808184" d="M45.114,2.358c-0.546-0.244-1.163-0.151-1.61,0.247l-2.836,2.521c-0.206,0.184-0.226,0.5-0.042,0.706
		s0.501,0.224,0.706,0.042l2.836-2.521c0.225-0.201,0.468-0.114,0.537-0.083S45,3.427,45,3.727v24.547
		c0,0.3-0.226,0.425-0.295,0.456s-0.312,0.118-0.537-0.083l-2.836-2.521c-0.205-0.183-0.522-0.166-0.706,0.042
		c-0.184,0.206-0.164,0.522,0.042,0.706l2.836,2.521c0.282,0.251,0.633,0.382,0.99,0.382c0.209,0,0.419-0.045,0.62-0.135
		C45.66,29.396,46,28.872,46,28.273V3.727C46,3.128,45.66,2.604,45.114,2.358z"/>
</g>
</svg>
