<?xml version="1.0" encoding="utf-8"?>
<!-- Generator: Adobe Illustrator 18.0.0, SVG Export Plug-In . SVG Version: 6.00 Build 0)  -->
<!DOCTYPE svg PUBLIC "-//W3C//DTD SVG 1.1//EN" "http://www.w3.org/Graphics/SVG/1.1/DTD/svg11.dtd">
<svg version="1.1" id="Layer_1" xmlns="http://www.w3.org/2000/svg" xmlns:xlink="http://www.w3.org/1999/xlink" x="0px" y="0px"
	 width="37px" height="32px" viewBox="0 0 37 32" enable-background="new 0 0 37 32" xml:space="preserve">
<g>
	<path fill="#808184" d="M36.75,23.811c0-0.899-0.995-1.612-2.414-1.807c0.545-1.345,0.434-2.578-0.333-3.028
		c-0.748-0.439-1.888,0.076-2.753,1.21c-0.865-1.134-2.005-1.649-2.753-1.21c-0.142,0.083-0.254,0.201-0.35,0.334
		c-0.959-0.651-2.109-1.228-3.415-1.699c2.13-1.143,3.43-2.702,3.43-4.448c0-2.121-1.916-4.015-5.165-5.202
		c1.303-0.836,2.077-1.909,2.077-3.094C25.074,2.138,20.979,0,15.75,0c-5.228,0-9.323,2.138-9.323,4.866
		c0,1.185,0.774,2.258,2.077,3.094c-3.25,1.187-5.166,3.081-5.166,5.202c0,1.745,1.297,3.302,3.424,4.444
		c-4.099,1.471-6.512,3.838-6.512,6.471C0.25,28.52,7.059,32,15.75,32c5.136,0,9.832-1.263,12.716-3.38
		c0.011,0.007,0.02,0.018,0.031,0.025c0.747,0.441,1.888-0.076,2.753-1.21c0.65,0.853,1.44,1.375,2.13,1.375
		c0.228,0,0.438-0.056,0.623-0.165c0.767-0.45,0.878-1.684,0.333-3.028C35.755,25.423,36.75,24.71,36.75,23.811z M7.427,4.866
		C7.427,2.771,11.238,1,15.75,1s8.324,1.771,8.324,3.866s-3.812,3.866-8.324,3.866S7.427,6.962,7.427,4.866z M4.338,13.162
		c0-1.824,2.063-3.559,5.385-4.558c1.615,0.706,3.708,1.128,6.027,1.128c2.319,0,4.413-0.422,6.027-1.128
		c3.322,0.999,5.385,2.734,5.385,4.558c0,2.924-5.227,5.395-11.412,5.395S4.338,16.086,4.338,13.162z M1.25,24.077
		c0-2.348,2.617-4.582,6.837-5.857c2.098,0.838,4.744,1.337,7.663,1.337c2.917,0,5.561-0.498,7.658-1.335
		c1.755,0.531,3.271,1.247,4.427,2.081c-0.024,0.503,0.081,1.088,0.329,1.701c-1.419,0.194-2.414,0.907-2.414,1.807
		s0.995,1.612,2.414,1.807c-0.332,0.819-0.417,1.593-0.262,2.178C25.22,29.774,20.624,31,15.75,31C7.891,31,1.25,27.83,1.25,24.077z
		 M33.563,24.67c-0.177,0.001-0.341,0.095-0.43,0.248c-0.09,0.153-0.091,0.343-0.004,0.497c0.708,1.257,0.613,2.224,0.367,2.369
		c-0.295,0.169-1.2-0.432-1.813-1.502c-0.089-0.156-0.254-0.252-0.434-0.252s-0.345,0.096-0.434,0.252
		c-0.613,1.07-1.481,1.666-1.773,1.502C29.013,27.766,29,27.735,29,27.693c0-0.001,0-0.001,0-0.002c0-0.301-0.208-1.177,0.411-2.276
		c0.087-0.154,0.066-0.344-0.024-0.497c-0.089-0.153-0.263-0.247-0.44-0.248c-1.314-0.004-2.192-0.521-2.192-0.859
		s0.87-0.855,2.184-0.859c0.177-0.001,0.34-0.095,0.428-0.248c0.09-0.153,0.09-0.343,0.003-0.497
		c-0.495-0.878-0.594-1.607-0.527-2.021c0.002-0.006,0.001-0.011,0.002-0.017c0.03-0.169,0.085-0.289,0.157-0.331
		c0.296-0.166,1.201,0.432,1.813,1.502c0.178,0.312,0.689,0.312,0.867,0c0.612-1.071,1.515-1.673,1.813-1.502
		c0.246,0.146,0.341,1.112-0.367,2.369c-0.087,0.154-0.086,0.344,0.004,0.497c0.089,0.153,0.253,0.247,0.43,0.248
		c1.314,0.004,2.187,0.521,2.187,0.859S34.878,24.666,33.563,24.67z"/>
	<path fill="#808184" d="M13.312,2.309c-2.744,0.31-4.237,1.926-4.299,1.994c-0.186,0.205-0.17,0.521,0.034,0.706
		c0.096,0.087,0.216,0.13,0.336,0.13c0.136,0,0.271-0.056,0.37-0.164c0.013-0.015,1.298-1.404,3.67-1.672
		c0.274-0.031,0.472-0.278,0.441-0.553C13.834,2.475,13.567,2.281,13.312,2.309z"/>
	<path fill="#808184" d="M11.341,10.309c-2.744,0.31-4.237,1.926-4.299,1.994c-0.186,0.205-0.17,0.521,0.034,0.706
		c0.096,0.087,0.216,0.13,0.336,0.13c0.136,0,0.271-0.056,0.37-0.164c0.013-0.015,1.298-1.404,3.67-1.672
		c0.274-0.031,0.472-0.278,0.441-0.553C11.862,10.475,11.593,10.281,11.341,10.309z"/>
	<path fill="#808184" d="M9.897,20.158c-3.527,0.612-5.331,2.813-5.406,2.906c-0.173,0.215-0.139,0.528,0.076,0.702
		c0.092,0.074,0.203,0.11,0.313,0.11c0.146,0,0.29-0.063,0.389-0.185c0.017-0.021,1.659-2.004,4.8-2.55
		c0.271-0.047,0.454-0.306,0.406-0.578C10.429,20.293,10.171,20.103,9.897,20.158z"/>
</g>
</svg>
