<?xml version="1.0" encoding="utf-8"?>
<!-- Generator: Adobe Illustrator 18.0.0, SVG Export Plug-In . SVG Version: 6.00 Build 0)  -->
<!DOCTYPE svg PUBLIC "-//W3C//DTD SVG 1.1//EN" "http://www.w3.org/Graphics/SVG/1.1/DTD/svg11.dtd">
<svg version="1.1" id="Layer_1" xmlns="http://www.w3.org/2000/svg" xmlns:xlink="http://www.w3.org/1999/xlink" x="0px" y="0px"
	 width="29px" height="32px" viewBox="0 0 29 32" enable-background="new 0 0 29 32" xml:space="preserve">
<g>
	<path fill="#808184" d="M21.355,12.052c-0.195-0.195-0.512-0.195-0.707,0s-0.195,0.512,0,0.707l3.146,3.146l-3.146,3.146
		c-0.195,0.195-0.195,0.512,0,0.707c0.098,0.098,0.226,0.146,0.354,0.146s0.256-0.049,0.354-0.146l3.146-3.146l3.146,3.146
		c0.098,0.098,0.226,0.146,0.354,0.146s0.256-0.049,0.354-0.146c0.195-0.195,0.195-0.512,0-0.707l-3.146-3.146l3.146-3.146
		c0.195-0.195,0.195-0.512,0-0.707s-0.512-0.195-0.707,0l-3.146,3.146L21.355,12.052z"/>
	<path fill="#808184" d="M24,20v10.479c0,0.27-0.184,0.398-0.264,0.44c-0.079,0.043-0.288,0.126-0.513-0.024L9.845,22.004
		c-0.231-0.154-0.541-0.09-0.693,0.14c-0.153,0.23-0.09,0.541,0.14,0.693l13.379,8.891c0.251,0.167,0.54,0.251,0.83,0.251
		c0.243,0,0.487-0.059,0.709-0.179C24.697,31.539,25,31.032,25,30.479V20c0-0.276-0.224-0.5-0.5-0.5S24,19.724,24,20z"/>
	<path fill="#808184" d="M8.844,9.767l14.396-8.759c0.224-0.137,0.427-0.052,0.504-0.009S24,1.171,24,1.435V12
		c0,0.276,0.224,0.5,0.5,0.5S25,12.276,25,12V1.435c0-0.55-0.286-1.039-0.766-1.308c-0.479-0.27-1.044-0.259-1.514,0.026
		L8.325,8.912C8.089,9.056,8.014,9.363,8.157,9.599C8.301,9.835,8.609,9.911,8.844,9.767z"/>
	<path fill="#808184" d="M1.5,23h4C6.327,23,7,22.327,7,21.5v-10C7,10.673,6.327,10,5.5,10h-4C0.673,10,0,10.673,0,11.5v10
		C0,22.327,0.673,23,1.5,23z M1,11.5C1,11.224,1.224,11,1.5,11h4C5.776,11,6,11.224,6,11.5v10C6,21.776,5.776,22,5.5,22h-4
		C1.224,22,1,21.776,1,21.5V11.5z"/>
</g>
</svg>
