<?xml version="1.0" encoding="UTF-8"?><svg version="1.1" viewBox="0 -56.875 30 30" xmlns="http://www.w3.org/2000/svg" xmlns:xlink="http://www.w3.org/1999/xlink"><!--Generated by IJSVG (https://github.com/iconjar/IJSVG)--><path d="M7.475,-54.85q3.45,-2.025 7.525,-2.025q4.075,0 7.525,2.0125q3.45,2.0125 5.4625,5.4625q2.0125,3.45 2.0125,7.525q0,4.075 -2.0125,7.525q-2.0125,3.45 -5.4625,5.4625q-3.45,2.0125 -7.525,2.0125q-4.075,0 -7.525,-2.0125q-3.45,-2.0125 -5.4625,-5.4625q-2.0125,-3.45 -2.0125,-7.525q0,-4.075 2.0125,-7.525q2.0125,-3.45 5.4625,-5.45Zm-0.875,4.575v16.8h13.1h1.875h1.825v-2.975h-1.825v-1.625h1.825v-2.975h-1.825v-1.65h1.825v-2.975h-1.825v-1.625h1.825v-2.975h-1.825h-1.875Zm7.475,2.925q0.675,0 1.2375,0.325q0.5625,0.325 0.8875,0.8875q0.325,0.5625 0.325,1.2125q0,0.725 -0.375,1.3q-0.375,0.575 -0.975,0.875l3.1,1.875h0.05v0.025v2.6h-4.325h-4.15v-2.6v-0.025h0.025l3.125,-1.875q-0.6,-0.3 -0.975,-0.875q-0.375,-0.575 -0.375,-1.3q0,-1 0.7125,-1.7125q0.7125,-0.7125 1.7125,-0.7125Z" fill="#000"></path></svg>