<?xml version="1.0" encoding="UTF-8"?><svg version="1.1" viewBox="0 -56.875 30 30" xmlns="http://www.w3.org/2000/svg" xmlns:xlink="http://www.w3.org/1999/xlink"><!--Generated by IJSVG (https://github.com/iconjar/IJSVG)--><path d="M0,-56.875h23.375h3.35h3.275v5.3h-3.275v2.925h3.275v5.325h-3.275v2.9h3.275v5.325h-3.275v2.925h3.275v5.3h-3.275h-3.35h-23.375Zm13.375,5.25q-1.175,0 -2.175,0.575q-1,0.575 -1.5875,1.575q-0.5875,1 -0.5875,2.175q0,1.25 0.6625,2.2875q0.6625,1.0375 1.7375,1.5875l-5.55,3.325h-0.075v0.025v4.675h15.125v-4.675v-0.025h-0.075l-5.55,-3.325q1.1,-0.55 1.75,-1.5875q0.65,-1.0375 0.65,-2.2875q0,-1.8 -1.2625,-3.0625q-1.2625,-1.2625 -3.0625,-1.2625Z" fill="#000"></path></svg>