<?xml version="1.0" encoding="UTF-8"?><svg version="1.1" viewBox="-0.025 -56.875 30.1 30" xmlns="http://www.w3.org/2000/svg" xmlns:xlink="http://www.w3.org/1999/xlink"><!--Generated by IJSVG (https://github.com/iconjar/IJSVG)--><path d="M13.05,-56.875h3.95v1.85q3.075,0.675 5.1125,3.1625q2.0375,2.4875 2.0625,5.7375v7.975l5.9,5.125v1.375h-5.9h-18.3h-5.9v-1.375l5.9,-5.125v-7.975q0.025,-3.25 2.0625,-5.7375q2.0375,-2.4875 5.1125,-3.1625Zm0.425,26.275q0.65,-0.65 1.55,-0.65q0.9,0 1.55,0.6375q0.65,0.6375 0.65,1.55q0,0.9125 -0.65,1.55q-0.65,0.6375 -1.55,0.6375q-0.9,0 -1.55,-0.6375q-0.65,-0.6375 -0.65,-1.55q0,-0.9125 0.65,-1.5375Z" fill="#000"></path></svg>