<?xml version="1.0" encoding="UTF-8"?><svg version="1.1" viewBox="0.987037 -56.875 28.0292 30" xmlns="http://www.w3.org/2000/svg" xmlns:xlink="http://www.w3.org/1999/xlink"><!--Generated by IJSVG (https://github.com/iconjar/IJSVG)--><path d="M9.625,-56.875q0.825,0 1.5125,0.4q0.6875,0.4 1.075,1.0875q0.3875,0.6875 0.3875,1.4875q0,1.25 -0.8625,2.1125q-0.8625,0.8625 -2.1,0.8625q-1.2375,0 -2.1125,-0.8625q-0.875,-0.8625 -0.875,-2.1q0,-1.2375 0.875,-2.1125q0.875,-0.875 2.1,-0.875Zm-2.475,7.5q0.575,-0.925 1.725,-1.0625q1.15,-0.1375 2,0.6625l3.475,4.4l3.4,0.675q0.425,0.075 0.7375,0.4875q0.3125,0.4125 0.2125,0.8875q-0.1,0.475 -0.7,0.675l10.95,15.025q0.175,0.3 -0.1125,0.4625q-0.2875,0.1625 -0.4625,-0.0625l-11.75,-15.475l-3.15,-0.6q-0.45,-0.125 -0.675,-0.425l-1.35,-1.675v1.425v3.425l3.45,3.95q0.175,0.125 0.25,0.525l1.65,7.475q0.1,0.525 -0.1375,0.95q-0.2375,0.425 -0.65,0.6q-0.4125,0.175 -0.875,0.175q-0.4625,0 -0.85,-0.3q-0.3875,-0.3 -0.5125,-0.85l-1.525,-7.175l-2.825,-3.175l-1.25,4.425q-0.15,0.425 -0.25,0.55l-4.15,5.35q-0.35,0.4 -0.8375,0.5375q-0.4875,0.1375 -0.9,-0.0125q-0.4125,-0.15 -0.725,-0.4625q-0.3125,-0.3125 -0.325,-0.7875q-0.0125,-0.475 0.3125,-1.025l4,-5.075l1.575,-5.65l-0.05,-4.625l-0.825,1.125l-0.325,3.275q-0.125,0.8 -0.725,1.05q-0.6,0.25 -1.125,-0.1375q-0.525,-0.3875 -0.45,-1.1125l0.4,-3.575q0,-0.275 0.175,-0.525Z" fill="#000"></path></svg>