<?xml version="1.0" encoding="UTF-8"?><svg version="1.1" viewBox="0 -56.875 30 30" xmlns="http://www.w3.org/2000/svg" xmlns:xlink="http://www.w3.org/1999/xlink"><!--Generated by IJSVG (https://github.com/iconjar/IJSVG)--><path d="M0,-56.875h30v30h-30Zm16.05,5.5l-5.725,0.025q-1.25,0.175 -2.25,0.7125q-1,0.5375 -1.6625,1.4875q-0.6625,0.95 -0.7625,2.175l-0.05,8.8q0,2.95 1.6875,4.3875q1.6875,1.4375 4.9375,1.3625l7,-0.025q1.225,-0.175 2.1375,-0.6125q0.9125,-0.4375 1.4625,-0.975q0.55,-0.5375 0.9,-1.2875q0.35,-0.75 0.4875,-1.3875q0.1375,-0.6375 0.2125,-1.4125v-2.625q-0.05,-0.925 -0.4,-1.625q-0.35,-0.7 -0.9,-1.0625q-0.55,-0.3625 -1.1375,-0.5375q-0.5875,-0.175 -1.2625,-0.2q0.3,-1.05 0.075,-2.775q-0.15,-1.825 -1.4,-3.0375q-1.25,-1.2125 -3.35,-1.3875Zm-4.775,3.55h4.65q0.9,0.125 1.4,0.6375q0.5,0.5125 0.4875,1.1q-0.0125,0.5875 -0.5125,1.1125q-0.5,0.525 -1.375,0.675h-4.65q-0.925,-0.125 -1.425,-0.6375q-0.5,-0.5125 -0.4875,-1.1q0.0125,-0.5875 0.5125,-1.1125q0.5,-0.525 1.4,-0.675Zm-1.075,7.675l8.55,0.025q0.625,0.1 1.075,0.3875q0.45,0.2875 0.6625,0.6875q0.2125,0.4 0.2125,0.85q0,0.45 -0.1875,0.85q-0.1875,0.4 -0.625,0.7q-0.4375,0.3 -1.0375,0.4l-8.55,-0.025q-0.95,-0.125 -1.475,-0.6875q-0.525,-0.5625 -0.525,-1.225q0,-0.6625 0.5,-1.2375q0.5,-0.575 1.4,-0.725Z" fill="#000"></path></svg>