<?xml version="1.0" encoding="UTF-8"?><svg version="1.1" viewBox="0 -56.875 30 30" xmlns="http://www.w3.org/2000/svg" xmlns:xlink="http://www.w3.org/1999/xlink"><!--Generated by IJSVG (https://github.com/iconjar/IJSVG)--><path d="M27.35,-56.875l2.65,2.65l-10.25,10.25q0.325,0.55 0.25,1.2q-0.075,0.65 -0.55,1.125q-0.825,0.825 -1.95,0.475q1.225,2.525 0.15,4.775q-2,2.675 -3.325,5.0125q-1.325,2.3375 -1.85,4.5125q-1.3,-0.65 -2.875,-1.7q-0.25,-1.525 0.1625,-2.875q0.4125,-1.35 1.4375,-2.3q-1.35,0.5 -2.2625,1.4625q-0.9125,0.9625 -1.2625,2.2625q-1.075,-0.775 -2.7,-2.45q0.475,-0.625 0.6625,-0.8875q0.1875,-0.2625 0.3375,-0.5q0.15,-0.2375 0.1125,-0.25q-0.0375,-0.0125 -0.1875,0.0125q-0.15,0.025 -0.375,0.15q-0.225,0.125 -0.625,0.2875q-0.4,0.1625 -0.775,0.2875q-0.875,-1 -1.575,-1.925q0.9,-0.325 1.6,-0.825q0.7,-0.5 1.2125,-1.1875q0.5125,-0.6875 0.7875,-1.5125q-2.1,2.125 -4.9,1.675q-0.775,-1.2 -1.25,-2.2q1.45,-0.125 2.8375,-0.7625q1.3875,-0.6375 2.3125,-1.375q0.925,-0.7375 2.1625,-1.65q1.2375,-0.9125 2.2125,-1.3875q2.45,-1.05 4.775,0.15q-0.35,-1.125 0.475,-1.95q0.475,-0.475 1.125,-0.55q0.65,-0.075 1.2,0.25Z" fill="#000"></path></svg>