<?xml version="1.0" encoding="UTF-8"?><svg version="1.1" viewBox="0 -56.8827 30 30.0077" xmlns="http://www.w3.org/2000/svg" xmlns:xlink="http://www.w3.org/1999/xlink"><!--Generated by IJSVG (https://github.com/iconjar/IJSVG)--><path d="M28.95,-56.8827l1.05,0.025q-1.15,1.6 -2.4875,3.725q-1.3375,2.125 -2.3625,3.875q-1.025,1.75 -2.425,3.9q-1.4,2.15 -2.8,4q-1.4,1.85 -3.3625,3.9375q-1.9625,2.0875 -4.1875,3.9375l-3.275,-3.425q0.4,-1.475 2.4875,-4.05q2.0875,-2.575 4.8,-5.2375q2.7125,-2.6625 5.45,-5.1q2.7375,-2.4375 4.7375,-4q2,-1.5625 2.375,-1.5875Zm-20.875,21.025l3.275,3.425q-0.45,1.025 -0.9875,1.8375q-0.5375,0.8125 -1.25,1.55q-0.7125,0.7375 -1.6,1.2q-0.8875,0.4625 -1.9875,0.7375q-1.1,0.275 -2.5,0.225q-1.4,-0.05 -3.025,-0.425q1.2,-0.425 1.9875,-1.0125q0.7875,-0.5875 1.1625,-1.225q0.375,-0.6375 0.625,-1.325q0.25,-0.6875 0.5,-1.375q0.25,-0.6875 0.6375,-1.3375q0.3875,-0.65 1.175,-1.25q0.7875,-0.6 1.9875,-1.025Z" fill="#000"></path></svg>