<?xml version="1.0" encoding="UTF-8"?><svg version="1.1" viewBox="0 -49.6167 29.9987 25.1667" xmlns="http://www.w3.org/2000/svg" xmlns:xlink="http://www.w3.org/1999/xlink"><!--Generated by IJSVG (https://github.com/iconjar/IJSVG)--><path d="M25.75,-49.6167q0.7,0.025 1.275,0.3875q0.575,0.3625 0.9,0.925q0.325,0.5625 0.35,1.2125v6q0.6,0.2 1.025,0.6625q0.425,0.4625 0.5875,1.05q0.1625,0.5875 0.0875,1.175q-0.075,0.5875 -0.525,1.1q-0.45,0.5125 -1.175,0.7875v6.025q-0.05,1.05 -0.8,1.7625q-0.75,0.7125 -1.725,0.7375q-1.875,-1.7 -4.0375,-3.025q-2.1625,-1.325 -4.6,-2.2125q-2.4375,-0.8875 -4.8625,-1.1625q-1.025,0.45 -1.425,1.5375q-0.4,1.0875 -0.2125,2.3125q0.1875,1.225 0.8125,2.425q0.625,1.2 1.5,1.9q-0.525,0.9 -1.7,1.3q-1.175,0.4 -2.4,0.2q-1.225,-0.2 -1.95,-0.9q-0.475,-1.35 -0.7375,-2.2625q-0.2625,-0.9125 -0.5,-2.125q-0.2375,-1.2125 -0.2,-2.3375q0.0375,-1.125 0.3625,-2.175h-3.275q-1.075,-0.05 -1.7875,-0.8125q-0.7125,-0.7625 -0.7375,-1.7375v-3.675q0.05,-1.075 0.8,-1.8125q0.75,-0.7375 1.725,-0.7375h8.15q4.175,-0.25 8.1875,-1.9625q4.0125,-1.7125 6.8875,-4.5625Zm0.075,3.25q-6.125,4.55 -12.625,5.525v4.275q7.225,1.35 12.625,5.525Z" fill="#000"></path></svg>