<?xml version="1.0" encoding="UTF-8"?><svg version="1.1" viewBox="0 -49.375 30 25" xmlns="http://www.w3.org/2000/svg" xmlns:xlink="http://www.w3.org/1999/xlink"><!--Generated by IJSVG (https://github.com/iconjar/IJSVG)--><path d="M15,-49.375l15,2.925v19.15l-15,2.925l-15,-2.925v-19.15Zm-5.45,6.65q-2.425,0 -4.1375,1.7125q-1.7125,1.7125 -1.7125,4.1375q0,2.425 1.7125,4.1375q1.7125,1.7125 4.1375,1.7125q1.725,0 3.1375,-0.9125q1.4125,-0.9125 2.1375,-2.4125h-2.85q-1,0.975 -2.425,0.975q-1.45,0 -2.475,-1.025q-1.025,-1.025 -1.025,-2.475q0,-1.45 1.025,-2.475q1.025,-1.025 2.475,-1.025q1.425,0 2.425,0.975h2.85q-0.725,-1.5 -2.1375,-2.4125q-1.4125,-0.9125 -3.1375,-0.9125Zm11.475,0q-1.6,0 -2.9375,0.7875q-1.3375,0.7875 -2.125,2.125q-0.7875,1.3375 -0.7875,2.9375q0,1.6 0.7875,2.9375q0.7875,1.3375 2.125,2.125q1.3375,0.7875 2.9375,0.7875q1.725,0 3.1375,-0.9125q1.4125,-0.9125 2.1375,-2.4125h-2.85q-1,0.975 -2.425,0.975q-1.45,0 -2.475,-1.025q-1.025,-1.025 -1.025,-2.475q0,-1.45 1.025,-2.475q1.025,-1.025 2.475,-1.025q1.425,0 2.425,0.975h2.85q-0.475,-0.975 -1.2625,-1.725q-0.7875,-0.75 -1.825,-1.175q-1.0375,-0.425 -2.1875,-0.425Z" fill="#000"></path></svg>