<?xml version="1.0" encoding="UTF-8"?><svg version="1.1" viewBox="0 -56.875 30 30" xmlns="http://www.w3.org/2000/svg" xmlns:xlink="http://www.w3.org/1999/xlink"><!--Generated by IJSVG (https://github.com/iconjar/IJSVG)--><path d="M7.475,-54.85q3.45,-2.025 7.525,-2.025q4.075,0 7.525,2.0125q3.45,2.0125 5.4625,5.4625q2.0125,3.45 2.0125,7.525q0,4.075 -2.0125,7.525q-2.0125,3.45 -5.4625,5.4625q-3.45,2.0125 -7.525,2.0125q-4.075,0 -7.525,-2.0125q-3.45,-2.0125 -5.4625,-5.4625q-2.0125,-3.45 -2.0125,-7.525q0,-4.075 2.0125,-7.525q2.0125,-3.45 5.4625,-5.45Zm7.65,5.775q-2.85,0.05 -4.675,3.025q-1.225,-0.3 -2.3625,0.075q-1.1375,0.375 -1.875,1.2625q-0.7375,0.8875 -1.15,2.025q-0.4125,1.1375 -0.275,2.4875q0.1375,1.35 0.8375,2.5h18.45q0.9,-0.775 1.0875,-1.9q0.1875,-1.125 -0.2125,-2.0875q-0.4,-0.9625 -1.325,-1.6q-0.925,-0.6375 -2.075,-0.5125q-0.6,-2.275 -2.45,-3.8q-1.85,-1.525 -3.975,-1.475Z" fill="#000"></path></svg>