<?xml version="1.0" encoding="UTF-8"?><svg version="1.1" viewBox="0 -56.875 30 30" xmlns="http://www.w3.org/2000/svg" xmlns:xlink="http://www.w3.org/1999/xlink"><!--Generated by IJSVG (https://github.com/iconjar/IJSVG)--><path d="M12.65,-56.875h4.7l0.45,4.525q1.375,0.375 2.625,1.1l3.525,-2.9l3.325,3.325l-2.9,3.525q0.725,1.25 1.1,2.625l4.525,0.45v4.7l-4.525,0.45q-0.375,1.4 -1.1,2.625l2.9,3.525l-3.325,3.325l-3.525,-2.9q-1.25,0.725 -2.625,1.1l-0.45,4.525h-4.7l-0.45,-4.525q-1.4,-0.375 -2.625,-1.1l-3.525,2.9l-3.325,-3.325l2.9,-3.525q-0.725,-1.225 -1.1,-2.625l-4.525,-0.45v-4.7l4.525,-0.45q0.375,-1.375 1.1,-2.625l-2.9,-3.525l3.325,-3.325l3.525,2.9q1.225,-0.725 2.625,-1.1Zm5.4,11.95q-1.25,-1.275 -3.05,-1.275q-1.8,0 -3.0625,1.2625q-1.2625,1.2625 -1.2625,3.0625q0,1.8 1.2625,3.0625q1.2625,1.2625 3.0625,1.2625q1.8,0 3.0625,-1.2625q1.2625,-1.2625 1.2625,-3.0625q0,-1.8 -1.275,-3.05Z" fill="#000"></path></svg>