<?xml version="1.0" encoding="UTF-8"?><svg version="1.1" viewBox="0 -42.25 30 20.25" xmlns="http://www.w3.org/2000/svg" xmlns:xlink="http://www.w3.org/1999/xlink"><!--Generated by IJSVG (https://github.com/iconjar/IJSVG)--><path d="M9.175,-41.05q2.775,-1.2 5.825,-1.2q3.05,0 5.825,1.1875q2.775,1.1875 4.7875,3.2q2.0125,2.0125 3.2,4.7875q1.1875,2.775 1.1875,5.825q0,2.725 -0.95,5.25h-4.1q1.3,-2.45 1.3,-5.25q0,-2.275 -0.8875,-4.3625q-0.8875,-2.0875 -2.4,-3.5875q-1.5125,-1.5 -3.5875,-2.4q-2.075,-0.9 -4.375,-0.9q-2.3,0 -4.375,0.9q-2.075,0.9 -3.5875,2.4q-1.5125,1.5 -2.4,3.5875q-0.8875,2.0875 -0.8875,4.3625q0,2.8 1.3,5.25h-4.1q-0.95,-2.525 -0.95,-5.25q0,-3.05 1.1875,-5.825q1.1875,-2.775 3.2,-4.7875q2.0125,-2.0125 4.7875,-3.1875Zm4.5,5.25q0.55,-0.55 1.325,-0.55q0.775,0 1.325,0.55q0.55,0.55 0.55,1.325q0,0.775 -0.55,1.325q-0.55,0.55 -1.325,0.55q-0.775,0 -1.325,-0.55q-0.55,-0.55 -0.55,-1.325q0,-0.775 0.55,-1.325Zm-5.625,1.825q0.55,-0.55 1.325,-0.55q0.775,0 1.325,0.55q0.55,0.55 0.55,1.3375q0,0.7875 -0.55,1.325q-0.55,0.5375 -1.325,0.5375q-0.5,0 -0.9375,-0.25q-0.4375,-0.25 -0.6875,-0.675q-0.25,-0.425 -0.25,-0.95q0,-0.775 0.55,-1.325Zm11.25,0q0.55,-0.55 1.325,-0.55q0.775,0 1.325,0.55q0.55,0.55 0.55,1.3375q0,0.7875 -0.55,1.325q-0.55,0.5375 -1.325,0.5375q-0.775,0 -1.325,-0.5375q-0.55,-0.5375 -0.55,-1.325q0,-0.7875 0.55,-1.3375Zm-4.3,3.15l1.475,7.35v1.475h-2.95v-1.475Z" fill="#000"></path></svg>