<?xml version="1.0" encoding="UTF-8"?><svg version="1.1" viewBox="0 -56.875 30 30" xmlns="http://www.w3.org/2000/svg" xmlns:xlink="http://www.w3.org/1999/xlink"><!--Generated by IJSVG (https://github.com/iconjar/IJSVG)--><path d="M7.475,-54.85q3.45,-2.025 7.525,-2.025q4.075,0 7.525,2.0125q3.45,2.0125 5.4625,5.4625q2.0125,3.45 2.0125,7.525q0,4.075 -2.0125,7.525q-2.0125,3.45 -5.4625,5.4625q-3.45,2.0125 -7.525,2.0125q-4.075,0 -7.525,-2.0125q-3.45,-2.0125 -5.4625,-5.4625q-2.0125,-3.45 -2.0125,-7.525q0,-4.075 2.0125,-7.525q2.0125,-3.45 5.4625,-5.45Zm7.525,24.725q1.925,0 3.7125,-0.6q1.7875,-0.6 3.225,-1.6875q1.4375,-1.0875 2.525,-2.525q1.0875,-1.4375 1.6875,-3.225q0.6,-1.7875 0.6,-3.7125q0,-2.4 -0.9375,-4.5625q-0.9375,-2.1625 -2.5125,-3.7375q-1.575,-1.575 -3.7375,-2.5125q-2.1625,-0.9375 -4.5625,-0.9375q-2.4,0 -4.5625,0.9375q-2.1625,0.9375 -3.7375,2.5125q-1.575,1.575 -2.5125,3.7375q-0.9375,2.1625 -0.9375,4.5625q0,2.4 0.9375,4.5625q0.9375,2.1625 2.5125,3.7375q1.575,1.575 3.7375,2.5125q2.1625,0.9375 4.5625,0.9375Zm2.925,-18.025v6.675h3.675l-6.6,6.2l-6.6,-6.2h3.675v-6.675Z" fill="#000"></path></svg>