<?xml version="1.0" encoding="UTF-8"?><svg version="1.1" viewBox="0 -56.875 30 30" xmlns="http://www.w3.org/2000/svg" xmlns:xlink="http://www.w3.org/1999/xlink"><!--Generated by IJSVG (https://github.com/iconjar/IJSVG)--><path d="M7.475,-54.85q3.45,-2.025 7.525,-2.025q4.075,0 7.525,2.0125q3.45,2.0125 5.4625,5.4625q2.0125,3.45 2.0125,7.525q0,4.075 -2.0125,7.525q-2.0125,3.45 -5.4625,5.4625q-3.45,2.0125 -7.525,2.0125q-4.075,0 -7.525,-2.0125q-3.45,-2.0125 -5.4625,-5.4625q-2.0125,-3.45 -2.0125,-7.525q0,-4.075 2.0125,-7.525q2.0125,-3.45 5.4625,-5.45Zm2.075,0.925l2.35,16.525h6.2l2.35,-16.525Zm7.775,18.6q-0.925,-0.95 -2.2625,-0.95q-1.3375,0 -2.2875,0.9375q-0.95,0.9375 -0.95,2.2875q0,0.875 0.4375,1.6125q0.4375,0.7375 1.175,1.175q0.7375,0.4375 1.6125,0.4375q1.35,0 2.2875,-0.95q0.9375,-0.95 0.9375,-2.2875q0,-1.3375 -0.95,-2.2625Z" fill="#000"></path></svg>