<?xml version="1.0" encoding="UTF-8"?><svg version="1.1" viewBox="0 -50.125 30 25.5" xmlns="http://www.w3.org/2000/svg" xmlns:xlink="http://www.w3.org/1999/xlink"><!--Generated by IJSVG (https://github.com/iconjar/IJSVG)--><path d="M16.75,-45.525l2.7,-4.6l2.45,1.5l-13.8,24l-2.55,-1.5l1.875,-3.275q-0.1,-0.05 -0.2,-0.1q-3.125,-1.6 -5.3,-3.85q-1.9,-2.175 -1.925,-3.3q0.175,-1.45 1.925,-3.3q2.375,-2.4 5.3,-3.85q3.825,-1.825 7.775,-1.85q0.875,0.025 1.75,0.125Zm5.825,1.625q0.025,0.025 0.0625,0.0375q0.0375,0.0125 0.075,0.025q0.0375,0.0125 0.0625,0.0375q3.125,1.575 5.3,3.85q1.9,2.175 1.925,3.3q-0.175,1.425 -1.925,3.3q-2.375,2.4 -5.3,3.85q-3.85,1.825 -7.775,1.825q-0.775,0 -1.75,-0.1l1.25,-2.15q0.425,0.025 0.5,0.025q2.925,0 5,-1.975q2.075,-1.975 2.075,-4.775q0,-2.225 -1.375,-4Zm-7.575,0.475q-2.925,0 -5,1.9875q-2.075,1.9875 -2.075,4.7875q0,2.225 1.375,4l1.45,-2.525q-0.25,-0.725 -0.25,-1.475q0,-1.55 1.0125,-2.7375q1.0125,-1.1875 2.5375,-1.4875l1.45,-2.525q-0.25,-0.025 -0.5,-0.025Zm4.225,5.325q0.275,0.725 0.275,1.45q0,1.525 -1.0125,2.7125q-1.0125,1.1875 -2.5375,1.4875Z" fill="#000"></path></svg>