<?xml version="1.0" encoding="UTF-8"?><svg version="1.1" viewBox="0 -38.8 30 17.95" xmlns="http://www.w3.org/2000/svg" xmlns:xlink="http://www.w3.org/1999/xlink"><!--Generated by IJSVG (https://github.com/iconjar/IJSVG)--><path d="M18.175,-32.875q1.325,1.25 1.325,3.0375q0,1.7875 -1.325,3.0625q-1.325,1.275 -3.1875,1.275q-1.8625,0 -3.175,-1.275q-1.3125,-1.275 -1.3125,-3.0625q0,-1.7875 1.3125,-3.05q1.3125,-1.2625 3.175,-1.2625q1.8625,0 3.1875,1.275Zm-3.175,-5.925q4.1,0.05 7.775,1.825q3.125,1.6 5.3,3.85q1.9,2.175 1.925,3.3q-0.175,1.45 -1.925,3.3q-2.375,2.4 -5.3,3.85q-3.85,1.825 -7.775,1.825q-4.1,-0.05 -7.775,-1.825q-3.125,-1.6 -5.3,-3.85q-1.9,-2.175 -1.925,-3.3q0.175,-1.45 1.925,-3.3q2.375,-2.4 5.3,-3.85q3.825,-1.825 7.775,-1.825Zm5,4.2q-2.075,-1.975 -5,-1.975q-2.925,0 -5,1.975q-2.075,1.975 -2.075,4.775q0,2.8 2.075,4.775q2.075,1.975 5,1.975q2.925,0 5,-1.975q2.075,-1.975 2.075,-4.775q0,-2.8 -2.075,-4.775Z" fill="#000"></path></svg>