<?xml version="1.0" encoding="UTF-8"?><svg version="1.1" viewBox="1.775 -56.875 26.45 30" xmlns="http://www.w3.org/2000/svg" xmlns:xlink="http://www.w3.org/1999/xlink"><!--Generated by IJSVG (https://github.com/iconjar/IJSVG)--><path d="M1.775,-56.875h26.45v30h-26.45Zm1.35,1.8v2.475h3.25v-2.475Zm20.5,0v2.475h3.25v-2.475Zm-15.85,0.175v13.1h14.45v-13.1Zm-4.65,5.375v2.475h3.25v-2.475Zm20.5,0v2.475h3.25v-2.475Zm-20.5,5.525v2.475h3.25v-2.475Zm20.5,0v2.475h3.25v-2.475Zm-15.85,3.125v13.075h14.45v-13.075Zm-4.65,2.425v2.475h3.25v-2.475Zm20.5,0v2.475h3.25v-2.475Zm-20.5,5.525v2.475h3.25v-2.475Zm20.5,0v2.475h3.25v-2.475Z" fill="#000"></path></svg>