<?xml version="1.0" encoding="UTF-8"?><svg version="1.1" viewBox="0 -56.875 30 30" xmlns="http://www.w3.org/2000/svg" xmlns:xlink="http://www.w3.org/1999/xlink"><!--Generated by IJSVG (https://github.com/iconjar/IJSVG)--><path d="M7.475,-54.85q3.45,-2.025 7.525,-2.025q4.075,0 7.525,2.0125q3.45,2.0125 5.4625,5.4625q2.0125,3.45 2.0125,7.525q0,4.075 -2.0125,7.525q-2.0125,3.45 -5.4625,5.4625q-3.45,2.0125 -7.525,2.0125q-4.075,0 -7.525,-2.0125q-3.45,-2.0125 -5.4625,-5.4625q-2.0125,-3.45 -2.0125,-7.525q0,-4.075 2.0125,-7.525q2.0125,-3.45 5.4625,-5.45Zm2.775,4.5q-1.875,0 -3.725,1.075v15.875h2.25v-7.75q1.375,-0.4 2.5625,-0.275q1.1875,0.125 2.35,0.4625q1.1625,0.3375 2.1625,0.825q1,0.4875 2.0125,0.8375q1.0125,0.35 1.9125,0.5q0.9,0.15 1.8625,-0.1875q0.9625,-0.3375 1.8375,-1.2125v-9.075q-1.5,0.975 -2.9625,1.225q-1.4625,0.25 -2.7375,-0.0875q-1.275,-0.3375 -2.425,-0.825q-1.15,-0.4875 -2.525,-0.925q-1.375,-0.4375 -2.575,-0.4625Z" fill="#000"></path></svg>