<?xml version="1.0" encoding="UTF-8"?><svg version="1.1" viewBox="0 -56.875 30 30" xmlns="http://www.w3.org/2000/svg" xmlns:xlink="http://www.w3.org/1999/xlink"><!--Generated by IJSVG (https://github.com/iconjar/IJSVG)--><path d="M0,-56.875h25.25l-6.85,9.4l-2.05,-2.05q-0.5,-0.425 -1.0375,-0.425q-0.5375,0 -0.9875,0.425l-0.5,0.525q-0.125,-0.2 -0.275,-0.4q-0.125,-0.2 -0.3,-0.4q-1.925,-2.1 -4.6,-2.125q-2.25,0.05 -3.925,1.45q-1.875,1.75 -2.1,4.15q-0.125,2.575 1.425,4.375q1.8,1.95 4.15,2.1l6.125,6.125q0.525,0.425 1.0625,0.425q0.5375,0 0.9625,-0.425l6.9,-6.9q0.425,-0.475 0.425,-1.025q0,-0.55 -0.4,-0.95l6.725,-5.675v21.4h-30Zm26.7,0h3.3v7.05l-14.5,12.2q-0.1,0.1 -0.25,0.1h-0.1q-0.075,0 -0.175,-0.1l-4.6,-3.7q-0.025,0 -0.05,0q-0.025,0 -0.025,0q-0.8,0.3 -1.675,0.3q-2,0 -3.4125,-1.425q-1.4125,-1.425 -1.4125,-3.425q0,-2 1.4125,-3.425q1.4125,-1.425 3.425,-1.425q2.0125,0 3.425,1.425q1.4125,1.425 1.4125,3.425q0,0.975 -0.375,1.85q0,0.025 0,0.05q0,0.025 0,0.05q0.775,1.05 1.225,1.65q0.525,0.65 0.575,0.675q0.1,0.175 0.325,0.175q0.225,0 0.375,-0.2Z" fill="#000"></path></svg>