<?xml version="1.0" encoding="UTF-8"?><svg version="1.1" viewBox="0.645833 -56.8745 28.7042 29.9995" xmlns="http://www.w3.org/2000/svg" xmlns:xlink="http://www.w3.org/1999/xlink"><!--Generated by IJSVG (https://github.com/iconjar/IJSVG)--><path d="M22.15,-56.8745q1.05,0 3.8,0.4q1.8,0.475 2.575,1.25q0.775,0.775 0.75,2.075l0.075,2.725q-0.125,0.85 -0.35,1.4q-0.225,0.55 -0.5875,0.825q-0.3625,0.275 -0.625,0.3625q-0.2625,0.0875 -0.7375,0.2125q-0.1,0 -0.15,0.025q0.075,0.05 0.2125,0.125q0.1375,0.075 0.225,0.1375q0.0875,0.0625 0.2,0.2q0.1125,0.1375 0.1875,0.3875q0.075,0.25 0.15,0.65v3.35q-0.275,0.625 -0.6125,1.0375q-0.3375,0.4125 -0.7625,0.625q-0.425,0.2125 -0.725,0.2875q-0.3,0.075 -0.825,0.15l-1.325,-0.075l-0.075,11.175q-0.025,0.375 -0.125,0.6875q-0.1,0.3125 -0.1875,0.525q-0.0875,0.2125 -0.2875,0.4q-0.2,0.1875 -0.3125,0.2875q-0.1125,0.1 -0.4,0.2125q-0.2875,0.1125 -0.3875,0.1375q-0.1,0.025 -0.4375,0.1125q-0.3375,0.0875 -0.4125,0.1125h-5.025q-2.25,-0.05 -2.55,-2.9q-0.875,3.375 -3.275,3.075l-4.3,-0.1q-0.525,-0.05 -0.95,-0.1625q-0.425,-0.1125 -0.7,-0.2375q-0.275,-0.125 -0.475,-0.3375q-0.2,-0.2125 -0.3125,-0.375q-0.1125,-0.1625 -0.1875,-0.45q-0.075,-0.2875 -0.1,-0.45q-0.025,-0.1625 -0.05,-0.5q-0.025,-0.3375 -0.05,-0.4625l-0.1,-10.75q-0.425,-0.15 -0.7125,-0.3q-0.2875,-0.15 -0.625,-0.475q-0.3375,-0.325 -0.525,-0.7875q-0.1875,-0.4625 -0.3125,-1.2625q-0.125,-0.8 -0.1,-1.85q0,-0.675 0.0875,-1.2125q0.0875,-0.5375 0.2125,-0.9125q0.125,-0.375 0.325,-0.65q0.2,-0.275 0.375,-0.4375q0.175,-0.1625 0.45,-0.2625q0.275,-0.1 0.4875,-0.15q0.2125,-0.05 0.5125,-0.075q0.275,-3.325 2.25,-5.3q1.975,-1.975 6.125,-2.35q1.75,-0.15 3.175,0.125q1.425,0.275 3,0.825q2.025,-1.075 4.5,-1.075Zm-10,2.625q-0.15,0 -0.6625,0.0375q-0.5125,0.0375 -0.8375,0.0125q-0.725,0.075 -1.3375,0.2875q-0.6125,0.2125 -1.05,0.45q-0.4375,0.2375 -0.8,0.6125q-0.3625,0.375 -0.5875,0.7q-0.225,0.325 -0.4,0.825q-0.175,0.5 -0.2625,0.825q-0.0875,0.325 -0.1375,0.875q-0.05,0.55 -0.075,0.825q-0.025,0.275 -0.025,0.8q-0.025,0.325 -0.025,0.475l0.05,0.925l-2.425,-0.125l0.075,3.425h2.225l-0.125,13.575h4.625v-13.575l5.975,-0.125v13.7l4.6,0.125l-0.05,-13.825h4.175v-3.05h-4.175q0,-0.525 0.0125,-1.075q0.0125,-0.55 0.0125,-1.0875q0,-0.5375 0.1375,-0.9875q0.1375,-0.45 0.375,-0.775q0.2375,-0.325 0.75,-0.4625q0.5125,-0.1375 1.2625,-0.0375q2.075,0.275 2.975,1l0.075,-3.425q-2.525,-1.075 -5.775,-0.65q-0.925,0.125 -1.6375,0.4125q-0.7125,0.2875 -1.1625,0.6375q-0.45,0.35 -0.7625,0.875q-0.3125,0.525 -0.4625,0.9875q-0.15,0.4625 -0.2375,1.15q-0.0875,0.6875 -0.0875,1.175q0,0.4875 0,1.225q0,0.7375 -0.025,1.1625l-5.8,-0.05v-2.3q0.075,-0.575 0.1625,-0.9q0.0875,-0.325 0.35,-0.7q0.2625,-0.375 0.775,-0.5375q0.5125,-0.1625 1.3375,-0.1125q0.1,-0.05 0.375,-0.0125q0.275,0.0375 0.4125,0.0625q0.1375,0.025 0.425,0.1125q0.2875,0.0875 0.4625,0.15q0.175,0.0625 0.4875,0.1875q0.3125,0.125 0.5125,0.175l-0.075,-3.225q-2.35,-0.775 -3.625,-0.75Z" fill="#000"></path></svg>