<?xml version="1.0" encoding="UTF-8"?><svg version="1.1" viewBox="1.125 -56.875 27.75 30" xmlns="http://www.w3.org/2000/svg" xmlns:xlink="http://www.w3.org/1999/xlink"><!--Generated by IJSVG (https://github.com/iconjar/IJSVG)--><path d="M25.6,-49.425h2.85v3.175q-0.175,0 -0.6125,-0.0375q-0.4375,-0.0375 -0.8375,-0.0375h-1.4v6.125q0,2.2 1.425,2.2q1.025,0 1.85,-0.575v3.3q-1.225,0.65 -2.925,0.65q-2.4,0 -3.325,-1.7q-0.675,-1.275 -0.675,-4.05v-5.875h0.025v-0.075l-0.5,-0.025q-0.425,0 -1.1,0.1v-3.175h1.6v-1.3q0,-0.9 -0.1,-1.475h3.8q-0.075,0.625 -0.075,1.425Zm-10.525,14.575q0.075,-0.65 0.075,-2.225v-10.225q0,-1.55 -0.075,-2.125h3.725q-0.075,0.625 -0.075,2.05v10.1q0,1.675 0.075,2.425Zm-8.225,-14.75q1.6,0 2.975,0.8q1.575,0 3.65,-0.8v3.375q-0.45,0.175 -1.325,0.375q0.275,0.75 0.275,1.4q0,2.1 -1.2625,3.6625q-1.2625,1.5625 -3.2625,1.8625q-1.325,0.2 -1.325,1.4q0,0.45 0.425,0.875q0.575,0.625 1.65,0.775q4.7,0.725 4.7,3.9q0,5.1 -6.075,5.1q-2.5,0 -4.1,-0.875q-2.05,-1.125 -2.05,-3.525q0,-2.75 3.05,-3.775v-0.075q-1.1,-0.675 -1.1,-2.1q0,-1.825 1.05,-2.3v-0.05q-1.05,-0.375 -1.875,-1.65q-0.925,-1.375 -0.925,-2.95q0,-2.375 1.675,-3.95q1.6,-1.475 3.85,-1.475Zm0.125,3.025q-2.075,0 -2.075,2.425q0,2.275 2.075,2.275q2,0 2,-2.3q0,-0.95 -0.45,-1.65q-0.575,-0.75 -1.55,-0.75Zm0.225,13.375q-2.65,0 -2.65,1.725q0,1.7 2.875,1.7q2.525,0 2.525,-1.75q0,-1.675 -2.75,-1.675Zm12.025,-21.225q0,0.65 -0.3,1.225q-0.3,0.575 -0.825,0.9q-0.525,0.325 -1.15,0.325q-0.625,0 -1.15,-0.325q-0.525,-0.325 -0.825,-0.9q-0.3,-0.575 -0.3,-1.225q0,-1.025 0.6625,-1.7375q0.6625,-0.7125 1.6125,-0.7125q0.95,0 1.6125,0.7125q0.6625,0.7125 0.6625,1.7375Z" fill="#000"></path></svg>