<?xml version="1.0" encoding="UTF-8"?><svg version="1.1" viewBox="0 -56.875 30 30" xmlns="http://www.w3.org/2000/svg" xmlns:xlink="http://www.w3.org/1999/xlink"><!--Generated by IJSVG (https://github.com/iconjar/IJSVG)--><path d="M7.475,-54.85q3.45,-2.025 7.525,-2.025q4.075,0 7.525,2.0125q3.45,2.0125 5.4625,5.4625q2.0125,3.45 2.0125,7.525q0,4.075 -2.0125,7.525q-2.0125,3.45 -5.4625,5.4625q-3.45,2.0125 -7.525,2.0125q-4.075,0 -7.525,-2.0125q-3.45,-2.0125 -5.4625,-5.4625q-2.0125,-3.45 -2.0125,-7.525q0,-4.075 2.0125,-7.525q2.0125,-3.45 5.4625,-5.45Zm-1.2,6.375v13.2h17.45v-13.2Zm2.15,2.125h13.15v8.95h-13.15Zm11.2,0.7l-2.25,3.9l-1.05,-2.2l-0.675,-1.375l-0.825,1.275l-1.825,2.875l-0.775,-0.8l-0.55,-0.575l-0.6,0.525l-2.175,1.8l1.1,1.3l1.55,-1.3l0.95,1l0.75,0.8l0.6,-0.925l1.6,-2.5l1.075,2.3l0.7,1.45l0.825,-1.4l3.05,-5.3Z" fill="#000"></path></svg>