<?xml version="1.0" encoding="UTF-8"?><svg version="1.1" viewBox="0 -56.875 30 30" xmlns="http://www.w3.org/2000/svg" xmlns:xlink="http://www.w3.org/1999/xlink"><!--Generated by IJSVG (https://github.com/iconjar/IJSVG)--><path d="M7.475,-54.85q3.45,-2.025 7.525,-2.025q4.075,0 7.525,2.0125q3.45,2.0125 5.4625,5.4625q2.0125,3.45 2.0125,7.525q0,4.075 -2.0125,7.525q-2.0125,3.45 -5.4625,5.4625q-3.45,2.0125 -7.525,2.0125q-4.075,0 -7.525,-2.0125q-3.45,-2.0125 -5.4625,-5.4625q-2.0125,-3.45 -2.0125,-7.525q0,-4.075 2.0125,-7.525q2.0125,-3.45 5.4625,-5.45Zm7.5,6.325q-1.075,0.05 -1.85,0.7625q-0.775,0.7125 -1.025,1.7125q-0.4,1.375 0.225,2.775q0.45,0.9 1.225,1.4l-1.125,0.55l-2.95,1.35q-0.45,0.2 -0.45,0.75v2.75q0,0.35 0.025,0.5875q0.025,0.2375 0.1875,0.45q0.1625,0.2125 0.4875,0.2125h10.5q0.25,-0.05 0.4,-0.1625q0.15,-0.1125 0.2,-0.3375q0.05,-0.225 0.05,-0.325q0,-0.1 0,-0.425v-2.75q0,-0.55 -0.425,-0.725l-2.85,-1.375l-1.2,-0.575q1.1,-0.7 1.5,-2.25q0.2,-0.9 -0.025,-1.8q-0.15,-0.55 -0.425,-1.0125q-0.275,-0.4625 -0.65,-0.8125q-0.375,-0.35 -0.85,-0.55q-0.475,-0.2 -0.975,-0.2Zm-4.9,1.25q-1.1,0.075 -1.7625,0.9375q-0.6625,0.8625 -0.6625,1.9125q0.075,1.775 1.325,2.55l-3.325,1.525q-0.35,0.15 -0.35,0.6v2.625q0.025,0.25 0.175,0.45q0.15,0.2 0.375,0.2h2.2v-2.75q0,-0.55 0.2625,-0.9875q0.2625,-0.4375 0.7125,-0.6625l2.225,-1.025q0.3,-0.175 0.475,-0.425q-0.375,-0.575 -0.5875,-1.2625q-0.2125,-0.6875 -0.2125,-1.4375q0,-0.5 0.1,-0.975q0.1,-0.475 0.25,-0.875q-0.525,-0.4 -1.2,-0.4Zm9.85,0q-0.65,0 -1.275,0.425q0.35,0.9 0.35,1.825q0,1.475 -0.8,2.675q0.25,0.25 0.6125,0.475q0.3625,0.225 0.6375,0.35q0.275,0.125 0.75,0.325q0.475,0.2 0.7,0.325q0.45,0.225 0.725,0.6625q0.275,0.4375 0.275,0.9875v2.75h2.25q0.25,-0.025 0.3875,-0.2125q0.1375,-0.1875 0.1625,-0.4375v-2.625q0,-0.425 -0.35,-0.6l-3.25,-1.55q1.225,-0.9 1.25,-2.525q-0.05,-1.125 -0.7375,-1.975q-0.6875,-0.85 -1.6875,-0.875Z" fill="#000"></path></svg>