<?xml version="1.0" encoding="UTF-8"?><svg version="1.1" viewBox="0 -42.775 30 20.6" xmlns="http://www.w3.org/2000/svg" xmlns:xlink="http://www.w3.org/1999/xlink"><!--Generated by IJSVG (https://github.com/iconjar/IJSVG)--><path d="M14.925,-42.775q1.925,0 3.3,1.6q1.375,1.6 1.375,3.875q0,1 -0.3,1.925q-0.3,0.925 -0.8375,1.6375q-0.5375,0.7125 -1.2375,1.1875l1.825,0.875l4.4,2.1q0.65,0.35 0.65,1.125v5.05q0,0.3 -0.1125,0.5625q-0.1125,0.2625 -0.35,0.4375q-0.2375,0.175 -0.5875,0.225h-16.225q-0.45,-0.025 -0.725,-0.3875q-0.275,-0.3625 -0.3,-0.8375v-5.05q0,-0.775 0.65,-1.125l4.575,-2.1l1.7,-0.8q-0.725,-0.45 -1.2875,-1.1875q-0.5625,-0.7375 -0.875,-1.675q-0.3125,-0.9375 -0.3125,-1.9625q0,-1.475 0.625,-2.7375q0.625,-1.2625 1.7,-2q1.075,-0.7375 2.35,-0.7375Zm-7.55,1.925q0.925,0.025 1.875,0.6q-0.675,1.7 -0.5,3.575q0.175,1.875 1.2,3.475q-0.35,0.4 -0.75,0.625l-3.4,1.625q-1.475,0.675 -1.575,2.5v4.275h-3.4q-0.25,0 -0.4375,-0.1375q-0.1875,-0.1375 -0.275,-0.3625q-0.0875,-0.225 -0.1125,-0.5v-4.025q0,-0.725 0.525,-0.925l5.125,-2.375q-0.95,-0.6 -1.475,-1.65q-0.525,-1.05 -0.575,-2.3q0.025,-1.725 1.125,-3.1q1.05,-1.225 2.65,-1.3Zm15.225,0q1.5,0.025 2.675,1.3q1.075,1.25 1.125,3.1q-0.025,1.15 -0.525,2.175q-0.5,1.025 -1.475,1.725l5.075,2.425q0.525,0.275 0.525,0.925v4.025q0,0.4 -0.2125,0.6875q-0.2125,0.2875 -0.6125,0.3125h-3.5v-4.275q-0.025,-1.675 -1.525,-2.5l-3.275,-1.55q-0.475,-0.275 -0.9,-0.775q0.975,-1.5 1.15,-3.3375q0.175,-1.8375 -0.475,-3.5625q0.925,-0.65 1.95,-0.675Z" fill="#000"></path></svg>