<?xml version="1.0" encoding="UTF-8"?><svg version="1.1" viewBox="0 -49.881 30 25.3345" xmlns="http://www.w3.org/2000/svg" xmlns:xlink="http://www.w3.org/1999/xlink"><!--Generated by IJSVG (https://github.com/iconjar/IJSVG)--><path d="M30,-27.9095q0,0.5 -0.25,0.925q-0.25,0.425 -0.6875,0.7q-0.4375,0.275 -0.9875,0.3h-5.075q-0.575,0.025 -1.475,0.1875q-0.9,0.1625 -1.8125,0.3625q-0.9125,0.2 -1.9875,0.425q-1.075,0.225 -2.0875,0.3375q-1.0125,0.1125 -2.0125,0.125q-1,0.0125 -1.8375,-0.2375q-0.8375,-0.25 -1.5,-0.725q-0.6625,-0.475 -1.075,-1.3625q-0.4125,-0.8875 -0.4625,-2.1125q-1.325,-1.55 -1.05,-3.575q-0.475,-0.775 -0.625,-1.725h-3.225q-1.525,-0.025 -2.6875,-1.1125q-1.1625,-1.0875 -1.1625,-2.6625q0,-1.575 1.075,-2.625q1.075,-1.05 2.775,-1.175q6.575,-0.05 8.225,-0.025q-1.35,-2.8 -0.55,-5.1q0.3,-0.8 0.925,-1.4625q0.625,-0.6625 1.425,-1.0125q0.8,-0.35 1.7125,-0.4125q0.9125,-0.0625 1.7625,0.3125q0.5,0.55 0.6875,1.3625q0.1875,0.8125 0.325,1.7625q0.1375,0.95 0.4625,1.575q0.375,0.65 1.05,1.2q0.6,0.475 1.725,1.7q1.125,1.225 1.825,1.75h4.65q0.5,0.025 0.925,0.2625q0.425,0.2375 0.7,0.675q0.275,0.4375 0.3,0.9875Zm-6.925,0v-10.375h-0.075q-0.875,-0.375 -1.6375,-1.1125q-0.7625,-0.7375 -1.575,-1.6625q-0.8125,-0.925 -1.4625,-1.425q-0.55,-0.475 -0.9375,-1.0625q-0.3875,-0.5875 -0.625,-1.4q-0.2375,-0.8125 -0.35,-1.325q-0.1125,-0.5125 -0.2625,-1.5375q-0.05,-0.15 -0.0625,-0.2125q-0.0125,-0.0625 -0.1375,-0.1375q-0.65,-0.1 -1.4,0.25q-0.875,0.575 -1.1875,1.3375q-0.3125,0.7625 -0.1375,1.6125q0.175,0.85 0.475,1.65q0.3,0.8 0.6625,1.75q0.3625,0.95 0.4375,1.575q-1.45,0 -3.4125,0.0125q-1.9625,0.0125 -3.9625,0.025q-2,0.0125 -3.575,0.0125q-0.375,0 -0.7125,0.1375q-0.3375,0.1375 -0.6,0.375q-0.2625,0.2375 -0.4125,0.6q-0.15,0.3625 -0.175,0.7625q0.025,0.75 0.55,1.275q0.525,0.525 1.35,0.55q1.45,0 2.875,0.0125q1.425,0.0125 2.875,0.0125q-0.7,0.775 -0.5875,1.625q0.1125,0.85 0.9125,1.625q-0.5,0.75 -0.2375,1.725q0.2625,0.975 1.0625,1.425q-0.15,1.05 0.075,1.7875q0.225,0.7375 0.75,1.1q0.525,0.3625 1.2625,0.525q0.7375,0.1625 1.6625,0.0875q0.925,-0.075 1.875,-0.225q0.95,-0.15 1.95,-0.3875q1,-0.2375 1.85,-0.45q0.85,-0.2125 1.65,-0.3625q0.8,-0.15 1.25,-0.175Z" fill="#000"></path></svg>