<?xml version="1.0" encoding="UTF-8"?><svg version="1.1" viewBox="-0.0139706 -53.0771 30.0116 27.476" xmlns="http://www.w3.org/2000/svg" xmlns:xlink="http://www.w3.org/1999/xlink"><!--Generated by IJSVG (https://github.com/iconjar/IJSVG)--><path d="M29.425,-48.101q0.5,1.55 0.5625,3.15q0.0625,1.6 -0.2625,3.1q-0.325,1.5 -0.95,2.875q-0.625,1.375 -1.55,2.6q-2.1,2.9 -5.4,5.725q-1,0.925 -2.325,2.025q-1.325,1.1 -2.675,2.0375q-1.35,0.9375 -1.85,0.9875q-0.4,-0.1 -0.8625,-0.3875q-0.4625,-0.2875 -1.1,-0.8q-0.6375,-0.5125 -0.7625,-0.6125q-1.75,-1.325 -3.1875,-2.525q-1.4375,-1.2 -2.95,-2.65q-1.5125,-1.45 -2.7375,-3q-1.225,-1.55 -2.05,-3.05q-0.975,-2.075 -1.25,-4.25q-0.275,-2.175 0.3,-4.2875q0.575,-2.1125 2,-3.6125q1.875,-1.7 4.2875,-2.1375q2.4125,-0.4375 4.6375,0.3625q2.225,0.8 3.675,2.6q1.2,-1.55 2.925,-2.425q1.725,-0.675 3.5,-0.7q1.775,-0.025 3.2875,0.55q1.5125,0.575 2.7625,1.7125q1.25,1.1375 1.975,2.7125Z" fill="#000"></path></svg>