<?xml version="1.0" encoding="UTF-8"?><svg version="1.1" viewBox="2.56667 -56.875 24.8667 30" xmlns="http://www.w3.org/2000/svg" xmlns:xlink="http://www.w3.org/1999/xlink"><!--Generated by IJSVG (https://github.com/iconjar/IJSVG)--><path d="M2.725,-56.875h1.325h21.9h1.325v1.325q0,1.8 0.075,4.25q0.05,0.925 0.0625,1.3125q0.0125,0.3875 -0.0375,1q-0.05,0.6125 -0.0625,0.8125q-0.0125,0.2 -0.225,0.675q-0.2125,0.475 -0.3375,0.625q-0.125,0.15 -0.5625,0.65q-0.4375,0.5 -0.75,0.7875q-0.3125,0.2875 -1.0375,0.9625q-1.625,1.525 -2.725,2.6q1.225,1.225 2.95,2.825q0.675,0.625 0.9625,0.8875q0.2875,0.2625 0.7,0.7375q0.4125,0.475 0.525,0.625q0.1125,0.15 0.3125,0.6375q0.2,0.4875 0.2125,0.6875q0.0125,0.2 0.0625,0.8375q0.05,0.6375 0.025,1.05q-0.025,0.4125 -0.05,1.3625q-0.1,2.35 -0.1,4.025v1.325h-1.325h-21.9h-1.325v-1.325q0,-1.275 -0.025,-2.6q-0.025,-1.325 -0.0875,-1.9625q-0.0625,-0.6375 -0.0125,-1.4375q0.05,-0.8 0.0375,-1.0875q-0.0125,-0.2875 0.225,-0.85q0.2375,-0.5625 0.4125,-0.7625q0.175,-0.2 0.7125,-0.8125q0.5375,-0.6125 1.0125,-1.0125q0.475,-0.4 1.45,-1.3375q0.975,-0.9375 1.875,-1.8125q-1.225,-1.225 -2.95,-2.85q-0.675,-0.625 -0.9625,-0.8875q-0.2875,-0.2625 -0.7,-0.7375q-0.4125,-0.475 -0.525,-0.625q-0.1125,-0.15 -0.3125,-0.625q-0.2,-0.475 -0.2125,-0.675q-0.0125,-0.2 -0.0625,-0.85q-0.05,-0.65 -0.025,-1.05q0.025,-0.4 0.05,-1.375q0.1,-2.35 0.1,-4Zm2.625,2.625q0,0.2 0,0.575q0,1.3 0,1.8375q0,0.5375 0.0625,1.3875q0.0625,0.85 0.0875,1.1q0.025,0.25 0.225,0.825q0.2,0.575 0.325,0.7375q0.125,0.1625 0.5375,0.6625q0.4125,0.5 0.7125,0.7625q0.3,0.2625 0.975,0.8875q0.525,0.45 0.8375,0.75q0.3125,0.3 0.8875,0.85q0.575,0.55 1.125,1.075l0.925,0.925l-0.925,0.925q-0.775,0.775 -1.6,1.55q-0.825,0.775 -1.3125,1.1875q-0.4875,0.4125 -1.0125,0.9375q-0.525,0.525 -0.7875,0.8375q-0.2625,0.3125 -0.5375,0.85q-0.275,0.5375 -0.375,1q-0.1,0.4625 -0.1625,1.25q-0.0625,0.7875 -0.05,1.6625q0.0125,0.875 0.0625,2.175h19.3q0,-0.2 0,-0.575q0,-1.3 0,-1.85q0,-0.55 -0.0625,-1.3875q-0.0625,-0.8375 -0.0875,-1.0875q-0.025,-0.25 -0.225,-0.825q-0.2,-0.575 -0.325,-0.7375q-0.125,-0.1625 -0.5375,-0.6625q-0.4125,-0.5 -0.7125,-0.75q-0.3,-0.25 -0.975,-0.875q-1.675,-1.525 -2.85,-2.7l-0.925,-0.925l0.925,-0.925q0.775,-0.775 1.6,-1.55q0.825,-0.775 1.3125,-1.1875q0.4875,-0.4125 1.0125,-0.9375q0.525,-0.525 0.7875,-0.85q0.2625,-0.325 0.5375,-0.85q0.275,-0.525 0.375,-0.9875q0.1,-0.4625 0.1625,-1.25q0.0625,-0.7875 0.05,-1.6625q-0.0125,-0.875 -0.0625,-2.175Zm2.675,5.4q1.9,0.275 3.4875,0.4q1.5875,0.125 2.5375,0.175q0.95,0.05 2.6125,-0.075q1.6625,-0.125 2.3,-0.1875q0.6375,-0.0625 2.9875,-0.3125q-0.6,0.425 -1.6875,1.075q-1.0875,0.65 -1.8125,1.125q-0.725,0.475 -1.5,1.1375q-0.775,0.6625 -1.1625,1.4875q-0.3875,0.825 -0.3625,1.825h-1.275q-0.2,-1.1 -0.6625,-1.9625q-0.4625,-0.8625 -1.15,-1.5q-0.6875,-0.6375 -1.35,-1.1q-0.6625,-0.4625 -1.5375,-1.0375q-0.875,-0.575 -1.425,-1.05Zm3.55,11.55q1.55,-0.575 3.3625,-0.5625q1.8125,0.0125 3.375,0.6q1.5625,0.5875 2.6125,1.8625q1.05,1.275 1.05,2.975h-13.925q-0.05,-1.75 0.975,-3.025q1.025,-1.275 2.55,-1.85Z" fill="#000"></path></svg>