<?xml version="1.0" encoding="UTF-8"?><svg version="1.1" viewBox="0 -56.875 30 30" xmlns="http://www.w3.org/2000/svg" xmlns:xlink="http://www.w3.org/1999/xlink"><!--Generated by IJSVG (https://github.com/iconjar/IJSVG)--><path d="M0,-56.875h30v8.55h-9.3q-1.025,-1.325 -2.575,-2.1q-1.55,-0.775 -3.325,-0.775q-0.725,0 -1.4125,0.125q-0.6875,0.125 -1.325,0.375q-0.6375,0.25 -1.2125,0.6125q-0.575,0.3625 -1.0625,0.8q-0.4875,0.4375 -0.9125,0.9625h-8.875Zm24,1.275q-0.75,0 -1.275,0.525q-0.525,0.525 -0.525,1.275v2.35q0,0.75 0.525,1.275q0.525,0.525 1.275,0.525h2.8q0.75,0 1.2875,-0.525q0.5375,-0.525 0.5375,-1.275v-2.35q0,-0.75 -0.5375,-1.275q-0.5375,-0.525 -1.2875,-0.525Zm-20.7,0.025v5.925h1.025v-5.925Zm1.75,0v5.925h1.05v-5.925Zm1.8,0v5.925h1.025v-1.75v-2.4v-1.775Zm-4.325,0.15q-0.45,0.2 -0.75,0.6375q-0.3,0.4375 -0.3,0.9875v4.15h1.05Zm7.6,7q1.925,-1.925 4.65,-1.925q2.725,0 4.6625,1.925q1.9375,1.925 1.9375,4.6375q0,2.7125 -1.9375,4.6375q-1.9375,1.925 -4.6625,1.925q-2.725,0 -4.65,-1.925q-1.925,-1.925 -1.925,-4.6375q0,-2.7125 1.925,-4.6375Zm4.65,-0.6q-1.425,0 -2.6375,0.7q-1.2125,0.7 -1.9125,1.9125q-0.7,1.2125 -0.7,2.6125q0,2.175 1.5375,3.7q1.5375,1.525 3.7125,1.525q2.175,0 3.7125,-1.525q1.5375,-1.525 1.5375,-3.6875q0,-2.1625 -1.5375,-3.7q-1.5375,-1.5375 -3.7125,-1.5375Zm-14.775,1.925h8.1q-0.775,1.55 -0.775,3.3q0,1.025 0.2625,1.975q0.2625,0.95 0.75,1.7625q0.4875,0.8125 1.175,1.5q0.6875,0.6875 1.5125,1.1625q0.825,0.475 1.7875,0.7375q0.9625,0.2625 1.9875,0.2625q3.075,0 5.275,-2.1625q2.2,-2.1625 2.2,-5.2375q0,-1.75 -0.8,-3.3h8.525v20.225h-30Z" fill="#000"></path></svg>