<?xml version="1.0" encoding="UTF-8"?><svg version="1.1" viewBox="0 -56.875 30 30" xmlns="http://www.w3.org/2000/svg" xmlns:xlink="http://www.w3.org/1999/xlink"><!--Generated by IJSVG (https://github.com/iconjar/IJSVG)--><path d="M7.475,-54.85q3.45,-2.025 7.525,-2.025q4.075,0 7.525,2.0125q3.45,2.0125 5.4625,5.4625q2.0125,3.45 2.0125,7.525q0,4.075 -2.0125,7.525q-2.0125,3.45 -5.4625,5.4625q-3.45,2.0125 -7.525,2.0125q-4.075,0 -7.525,-2.0125q-3.45,-2.0125 -5.4625,-5.4625q-2.0125,-3.45 -2.0125,-7.525q0,-4.075 2.0125,-7.525q2.0125,-3.45 5.4625,-5.45Zm2.325,6.55q-0.475,0 -0.8375,0.35q-0.3625,0.35 -0.3875,0.85v10.425q0,0.5 0.35,0.85q0.35,0.35 0.875,0.375h10.4q0.5,0 0.85,-0.35q0.35,-0.35 0.375,-0.875v-10.425q0,-0.475 -0.35,-0.825q-0.35,-0.35 -0.875,-0.375Zm1.75,2.35h6.9q0.15,0.025 0.2875,0.1q0.1375,0.075 0.225,0.2125q0.0875,0.1375 0.1125,0.3125v6.85q-0.025,0.175 -0.1,0.3125q-0.075,0.1375 -0.2125,0.225q-0.1375,0.0875 -0.3125,0.0875h-6.9q-0.125,0 -0.225,-0.0375q-0.1,-0.0375 -0.1875,-0.125q-0.0875,-0.0875 -0.1375,-0.2q-0.05,-0.1125 -0.075,-0.2625v-6.85q0.025,-0.1 0.05,-0.1875q0.025,-0.0875 0.075,-0.1625q0.05,-0.075 0.125,-0.1375q0.075,-0.0625 0.175,-0.0875q0.1,-0.025 0.2,-0.05Z" fill="#000"></path></svg>