<?xml version="1.0" encoding="UTF-8"?><svg version="1.1" viewBox="0 -56.875 30 30" xmlns="http://www.w3.org/2000/svg" xmlns:xlink="http://www.w3.org/1999/xlink"><!--Generated by IJSVG (https://github.com/iconjar/IJSVG)--><path d="M7.475,-54.85q3.45,-2.025 7.525,-2.025q4.075,0 7.525,2.0125q3.45,2.0125 5.4625,5.4625q2.0125,3.45 2.0125,7.525q0,4.075 -2.0125,7.525q-2.0125,3.45 -5.4625,5.4625q-3.45,2.0125 -7.525,2.0125q-4.075,0 -7.525,-2.0125q-3.45,-2.0125 -5.4625,-5.4625q-2.0125,-3.45 -2.0125,-7.525q0,-4.075 2.0125,-7.525q2.0125,-3.45 5.4625,-5.45Zm2.275,6.025q-0.075,0 -0.2,0q-1.05,0.025 -1.725,0.2q-1.3,0.3 -2.45,1.1q-1.15,0.8 -1.9375,2q-0.7875,1.2 -1.0625,2.7125q-0.275,1.5125 0.125,3.2375q0.575,2.05 2.15,3.5125q1.575,1.4625 3.625,1.8375q1.3,0.25 2.65,0q1.075,-0.2 2.325,-0.925q1.25,-0.725 2,-1.6q0,-0.1 -0.4,-0.9625q-0.4,-0.8625 -0.45,-0.8625q-0.6,0.85 -1.5125,1.4875q-0.9125,0.6375 -2.0625,0.975q-1.15,0.3375 -2.5,0.0125q-1.35,-0.325 -2.55,-1.4q-1.075,-1.05 -1.45,-2.55q-0.375,-1.5 0.025,-3.05q0.55,-1.55 2.0375,-2.7q1.4875,-1.15 3.2375,-1.15q1.5,0 2.7125,0.675q1.2125,0.675 2.0125,1.925q0.675,1.125 1.725,3.7375q1.05,2.6125 1.575,3.6125q1.05,2.1 3.075,2.65q1.625,0.375 3.1125,-0.075q1.4875,-0.45 2.3875,-1.6125q0.9,-1.1625 0.825,-2.7375q-0.05,-0.875 -0.35,-1.5125q-0.3,-0.6375 -0.925,-1.0875q-0.625,-0.45 -1.2375,-0.7375q-0.6125,-0.2875 -1.6375,-0.6125q-1.225,-0.425 -1.6875,-0.6375q-0.4625,-0.2125 -0.7375,-0.4875q-0.375,-0.45 -0.4125,-1.05q-0.0375,-0.6 0.2,-1.1q0.2375,-0.5 0.7375,-0.8125q0.5,-0.3125 1.125,-0.2125q1.1,0 2.15,1.1l1.325,-0.725q-0.7,-1.15 -1.6875,-1.6375q-0.9875,-0.4875 -1.7125,-0.3875q-1,-0.025 -1.85,0.3375q-0.85,0.3625 -1.375,1.05q-0.525,0.6875 -0.6625,1.6625q-0.1375,0.975 0.2875,2.15q0.75,1.55 3.6,2.45q0.475,0.15 0.95,0.3625q0.475,0.2125 1.075,0.625q0.6,0.4125 0.9,0.8625q0.3,0.45 0.2125,1.125q-0.0875,0.675 -0.7375,1.4q-0.5,0.55 -1.425,0.7375q-0.925,0.1875 -1.95,-0.1625q-1.025,-0.35 -1.65,-1.2q-0.375,-0.775 -1.0125,-2.2875q-0.6375,-1.5125 -1.3125,-3.0125q-0.675,-1.5 -1.3,-2.675q-1.4,-2.35 -3.775,-3.175q-1.125,-0.4 -2.425,-0.4Z" fill="#000"></path></svg>