<?xml version="1.0" encoding="UTF-8"?><svg version="1.1" viewBox="0.0109375 -49.4608 30.0138 25.0608" xmlns="http://www.w3.org/2000/svg" xmlns:xlink="http://www.w3.org/1999/xlink"><!--Generated by IJSVG (https://github.com/iconjar/IJSVG)--><path d="M3.3,-30.9358q-0.45,-1.075 -0.5,-1.4q-0.25,-1.8 0.1375,-3.575q0.3875,-1.775 1.25,-3.2375q0.8625,-1.4625 2.0875,-2.7375q1.225,-1.275 2.5875,-2.1875q1.3625,-0.9125 2.7875,-1.5125q1.25,-0.5 2.8125,-0.625q1.5625,-0.125 2.925,-0.025q1.3625,0.1 2.7,0.1375q1.3375,0.0375 2.5625,-0.3375q1.225,-0.375 2.125,-1.3q0.475,-0.55 0.8125,-0.8625q0.3375,-0.3125 0.875,-0.5875q0.5375,-0.275 1.0875,-0.275q0.825,0.025 1.15,0.675q1.9,4.125 1.075,8.3q-0.825,4.175 -3.35,7.6q-2.525,3.425 -5.8,5.175q-6.3,3.125 -12.15,1.1q-0.475,-0.125 -1.475,-0.7625q-1,-0.6375 -1.625,-0.6625q-0.35,0.2 -0.6875,0.65q-0.3375,0.45 -0.7375,1.1375q-0.4,0.6875 -0.525,0.8625q-0.475,0.825 -1.2625,0.9625q-0.7875,0.1375 -1.4625,-0.5375q-0.6,-0.6 -0.675,-1.2375q-0.075,-0.6375 0.25,-1.175q0.325,-0.5375 0.825,-1.0875q0.5,-0.55 1.025,-0.975q0.525,-0.425 0.8625,-0.8375q0.3375,-0.4125 0.3125,-0.6625Zm3.425,-1.05q0.425,0.325 0.9375,0.275q0.5125,-0.05 0.8375,-0.4q2.5,-3 5.825,-4.4375q3.325,-1.4375 7.15,-1.3375q0.55,0.025 0.925,-0.3375q0.375,-0.3625 0.4,-0.8625q0.025,-0.55 -0.3375,-0.9125q-0.3625,-0.3625 -0.8875,-0.3875q-4.4,-0.25 -8.25,1.5125q-3.85,1.7625 -6.725,5.1125q-0.35,0.425 -0.3,0.9375q0.05,0.5125 0.425,0.8375Z" fill="#000"></path></svg>