<?xml version="1.0" encoding="UTF-8"?><svg version="1.1" viewBox="0 -56.875 30 30" xmlns="http://www.w3.org/2000/svg" xmlns:xlink="http://www.w3.org/1999/xlink"><!--Generated by IJSVG (https://github.com/iconjar/IJSVG)--><path d="M0,-56.875h30v30h-30Zm7.35,5.9q-1.025,0.025 -1.725,0.675q-0.7,0.65 -0.7,1.575q0.025,1 0.7375,1.625q0.7125,0.625 1.6375,0.625h0.025q1.025,-0.025 1.7375,-0.675q0.7125,-0.65 0.7125,-1.575q-0.025,-0.675 -0.3875,-1.2q-0.3625,-0.525 -0.8875,-0.7875q-0.525,-0.2625 -1.15,-0.2625Zm12.75,5.95q-1.575,0.025 -2.575,0.75q-0.675,0.5 -1.325,1.425v-1.85h-4.3q0.025,0.525 0.025,2.1q0,2.725 -0.025,10.925h4.3v-7.275q0.025,-0.7 0.175,-1.05q0.775,-1.575 2.2,-1.6q0.825,0.025 1.3375,0.5125q0.5125,0.4875 0.6875,1.1q0.175,0.6125 0.175,1.3375v6.975h4.3v-7.475q-0.05,-2.925 -1.425,-4.425q-1.375,-1.425 -3.55,-1.45Zm-14.925,0.325v13.025h4.3v-13.025Z" fill="#000"></path></svg>