<?xml version="1.0" encoding="UTF-8"?><svg version="1.1" viewBox="1.1 -56.875 27.8 30" xmlns="http://www.w3.org/2000/svg" xmlns:xlink="http://www.w3.org/1999/xlink"><!--Generated by IJSVG (https://github.com/iconjar/IJSVG)--><path d="M15,-56.875q2.825,0 5.4,1.0375q2.575,1.0375 4.4375,2.7875q1.8625,1.75 2.9625,4.175q1.1,2.425 1.1,5.075q0,0.575 -0.05,1.15l-0.275,5.75l-8.775,-0.725l0.275,-5.75q0.025,-0.2 0.025,-0.425q0,-1.975 -1.5,-3.375q-1.5,-1.4 -3.6,-1.4q-1.025,0 -1.975,0.375q-0.95,0.375 -1.625,1.025q-0.675,0.65 -1.0875,1.525q-0.4125,0.875 -0.4125,1.85q0,0.2 0.025,0.425l0.275,5.75l-8.8,0.725l-0.25,-5.75q-0.05,-0.575 -0.05,-1.15q0,-2.125 0.7,-4.1125q0.7,-1.9875 1.9875,-3.6q1.2875,-1.6125 3,-2.825q1.7125,-1.2125 3.825,-1.875q2.1125,-0.6625 4.3875,-0.6625Zm-4.5,22.65l0.575,6.55l-8.8,0.775l-0.575,-6.55Zm9,0.025l8.775,0.775l-0.575,6.55l-8.775,-0.775Z" fill="#000"></path></svg>