<?xml version="1.0" encoding="UTF-8"?><svg version="1.1" viewBox="0.1 -56.875 29.8 30" xmlns="http://www.w3.org/2000/svg" xmlns:xlink="http://www.w3.org/1999/xlink"><!--Generated by IJSVG (https://github.com/iconjar/IJSVG)--><path d="M18.175,-56.875h11.725q0,1.85 -0.0125,5.875q-0.0125,4.025 -0.0125,5.85h-4.175v-4.525l-5.925,5.9q1.9,2.75 1.9,6.1q0,1.775 -0.55,3.4125q-0.55,1.6375 -1.55,2.975q-1,1.3375 -2.325,2.325q-1.325,0.9875 -2.9625,1.5375q-1.6375,0.55 -3.4125,0.55q-2.925,0 -5.4125,-1.45q-2.4875,-1.45 -3.925,-3.925q-1.4375,-2.475 -1.4375,-5.4125q-8.32667e-17,-2.9375 1.4375,-5.425q1.4375,-2.4875 3.925,-3.925q2.4875,-1.4375 5.4125,-1.4375q3.2,0 5.85,1.725l6.025,-5.975h-4.575Zm-7.3,12.775q-1.75,0 -3.2375,0.8625q-1.4875,0.8625 -2.35,2.3375q-0.8625,1.475 -0.8625,3.225q0,2.675 1.9,4.5625q1.9,1.8875 4.5625,1.8875q2.6625,0 4.55,-1.8875q1.8875,-1.8875 1.8875,-4.55q0,-2.6625 -1.8875,-4.55q-1.8875,-1.8875 -4.5625,-1.8875Z" fill="#000"></path></svg>