<?xml version="1.0" encoding="UTF-8"?><svg version="1.1" viewBox="0.00224609 -55.6192 29.9978 29.1692" xmlns="http://www.w3.org/2000/svg" xmlns:xlink="http://www.w3.org/1999/xlink"><!--Generated by IJSVG (https://github.com/iconjar/IJSVG)--><path d="M9.125,-54.0442l20.875,-1.575q-0.025,0.6 -0.0875,1.925q-0.0625,1.325 -0.175,4.0875q-0.1125,2.7625 -0.2375,5.4125q-0.125,2.65 -0.2375,5.25q-0.1125,2.6 -0.1875,4.3q-0.075,1.7 -0.075,1.925q-0.075,1.55 -1.4125,2.7625q-1.3375,1.2125 -3.2875,1.4875q-2.175,0.325 -3.8875,-0.675q-1.7125,-1 -1.9625,-2.725q-0.175,-1.125 0.4,-2.175q0.575,-1.05 1.7125,-1.7875q1.1375,-0.7375 2.5625,-0.9375q2.1,-0.3 3.8,0.65l0.725,-14.1l-16.3,1.7q-0.65,15.65 -0.775,17.7q0,0.075 0,0.15q0,0 0,0.025v-0.025q-0.075,0.75 -0.45,1.45q-0.375,0.7 -0.9875,1.2375q-0.6125,0.5375 -1.4625,0.925q-0.85,0.3875 -1.8,0.5375q-2.175,0.3 -3.8875,-0.7q-1.7125,-1 -1.95,-2.7125q-0.2375,-1.7125 1.125,-3.15q1.3625,-1.4375 3.5375,-1.7375q2,-0.3 3.65,0.55Z" fill="#000"></path></svg>