<?xml version="1.0" encoding="UTF-8"?><svg version="1.1" viewBox="0 -39.55 30.0004 18.45" xmlns="http://www.w3.org/2000/svg" xmlns:xlink="http://www.w3.org/1999/xlink"><!--Generated by IJSVG (https://github.com/iconjar/IJSVG)--><path d="M8.275,-22.975l-0.025,1.875h-8.25v-1.875q0,-1.675 1.2375,-2.875q1.2375,-1.2 2.9375,-1.2q1.7,0 2.9125,1.2q1.2125,1.2 1.1875,2.875Zm-1.45,-11.15q1.1,1.1 1.1,2.6625q0,1.5625 -1.1,2.6625q-1.1,1.1 -2.65,1.1q-1.025,0 -1.8875,-0.5125q-0.8625,-0.5125 -1.375,-1.375q-0.5125,-0.8625 -0.5125,-1.8875q0,-1.55 1.1125,-2.65q1.1125,-1.1 2.6625,-1.1q1.55,0 2.65,1.1Zm11.675,10.875l-0.025,2.15h-9.5v-2.15q0,-1.95 1.4125,-3.325q1.4125,-1.375 3.375,-1.375q1.9625,0 3.3625,1.375q1.4,1.375 1.375,3.325Zm-1.675,-12.85q1.275,1.25 1.275,3.05q0,1.8 -1.2625,3.0625q-1.2625,1.2625 -3.0625,1.2625q-1.8,0 -3.075,-1.2625q-1.275,-1.2625 -1.275,-3.0625q0,-1.8 1.275,-3.0625q1.275,-1.2625 3.075,-1.2625q1.8,0 3.05,1.275Zm13.175,12.55l-0.025,2.45h-10.775v-2.45q0,-2.2 1.6,-3.7625q1.6,-1.5625 3.8375,-1.5625q2.2375,0 3.8125,1.5625q1.575,1.5625 1.55,3.7625Zm-1.9,-14.55q1.425,1.425 1.425,3.4625q0,2.0375 -1.425,3.475q-1.425,1.4375 -3.4625,1.4375q-2.0375,0 -3.475,-1.4375q-1.4375,-1.4375 -1.4375,-3.4875q0,-1.325 0.6625,-2.45q0.6625,-1.125 1.7875,-1.7875q1.125,-0.6625 2.475,-0.6625q2.025,0 3.45,1.45Z" fill="#000"></path></svg>