<?xml version="1.0" encoding="UTF-8"?><svg version="1.1" viewBox="0 -56.876 30 29.988" xmlns="http://www.w3.org/2000/svg" xmlns:xlink="http://www.w3.org/1999/xlink"><!--Generated by IJSVG (https://github.com/iconjar/IJSVG)--><path d="M0.025,-41.113q-0.025,-0.175 -0.025,-0.7v-0.075q7.5,-0.65 11.85,-3.75q1.375,0.625 2.775,-0.075q1.475,1.5 2.9375,2.4625q1.4625,0.9625 3.2375,1.5375q0.375,0.95 1.2,1.475q-1,2.475 -2.775,4.35q-1.35,-0.9 -2.8125,-0.4125q-1.4625,0.4875 -2.0625,1.8875q-4.2,-0.025 -8.05,-1.8q-3.85,-1.775 -6.275,-4.9Zm14.3,8.875q-4.475,2.3 -8.8,2.05q-1.725,-1.45 -2.975,-3.3q-1.25,-1.85 -1.9,-3.875q2.825,2.425 6.425,3.775q3.6,1.35 7.25,1.35Zm6.2,-0.425q5.05,-1.05 8.525,-3.9q-1.15,2.975 -3.4125,5.2125q-2.2625,2.2375 -5,3.35q-2.7375,1.1125 -5.875,1.1125q-3.1375,0 -5.9625,-1.275q3.6,-0.5 6.85,-2.35q1.05,0.525 2.05,0.4125q1,-0.1125 1.8,-0.825q0.8,-0.7125 1.025,-1.7375Zm5.9,-8.375q2.425,-0.175 3.575,-0.375q0,0.15 -0.0125,0.45q-0.0125,0.3 -0.0125,0.45q-1.575,1.975 -3.825,3.3875q-2.25,1.4125 -4.775,2.1125q1.725,-2.075 2.725,-4.725q1.475,-0.175 2.325,-1.3Zm0.55,-2.2q-0.2,-1.55 -1.425,-2.375q0.375,-3.55 0.1,-6.8q1.775,1.85 2.8625,4.125q1.0875,2.275 1.3875,4.675q-1.3,0.275 -2.925,0.375Zm-16.7,-3.95q-4.2,2.65 -10.1,3.125q0.65,-4.075 3.25,-7.2625q2.6,-3.1875 6.35,-4.5875q0.225,2.725 1.2,4.975q-0.775,0.8 -0.9625,1.7875q-0.1875,0.9875 0.2625,1.9625Zm5.9,-2.55q2.7,-3.35 3.625,-6.3q1.925,0.65 3.475,1.675q0.55,4.3 0.125,8.275q-0.925,0.15 -1.625,0.7q-0.7,0.55 -1,1.375q-2.25,-0.825 -4.675,-3.25q0.475,-1.25 0.075,-2.475Zm-3.2,-2.025q-1.05,-2.6 -1.075,-4.775q2.85,-0.65 5.8,-0.05q-0.95,2.675 -2.95,5.2q-1.35,-0.575 -1.775,-0.375Z" fill="#000"></path></svg>