<?xml version="1.0" encoding="UTF-8"?><svg version="1.1" viewBox="0 -56.875 30 30" xmlns="http://www.w3.org/2000/svg" xmlns:xlink="http://www.w3.org/1999/xlink"><!--Generated by IJSVG (https://github.com/iconjar/IJSVG)--><path d="M7.475,-54.85q3.45,-2.025 7.525,-2.025q4.075,0 7.525,2.0125q3.45,2.0125 5.4625,5.4625q2.0125,3.45 2.0125,7.525q0,4.075 -2.0125,7.525q-2.0125,3.45 -5.4625,5.4625q-3.45,2.0125 -7.525,2.0125q-4.075,0 -7.525,-2.0125q-3.45,-2.0125 -5.4625,-5.4625q-2.0125,-3.45 -2.0125,-7.525q0,-4.075 2.0125,-7.525q2.0125,-3.45 5.4625,-5.45Zm2.125,3.925q-0.275,0.025 -0.575,0.275l-2.55,2.55q-0.5,0.45 -0.525,1.375q-0.05,1.5 1.25,4.25q2.125,4.025 6.825,7.45q3.275,2.125 5.85,2.2q0.875,0 1.375,-0.525l2.55,-2.525q0.3,-0.3 0.2375,-0.725q-0.0625,-0.425 -0.4625,-0.675l-3.7,-2.175h-0.025q-0.6,-0.375 -1.3,0.175l-1.1,1.125q-0.15,0.125 -0.5,0.05q-0.25,-0.075 -0.4875,-0.1625q-0.2375,-0.0875 -0.45,-0.2125q-0.2125,-0.125 -0.45,-0.2875q-0.2375,-0.1625 -0.425,-0.3125q-0.1875,-0.15 -0.4,-0.35q-0.2125,-0.2 -0.375,-0.35q-0.1625,-0.15 -0.3875,-0.3625q-0.225,-0.2125 -0.375,-0.3375q-1.95,-1.8 -2.4,-3.575q0,-0.125 0.1,-0.25l0.925,-0.95q0.575,-0.575 0.225,-1.275l-2.05,-3.9q-0.325,-0.525 -0.8,-0.5Z" fill="#000"></path></svg>