<?xml version="1.0" encoding="UTF-8"?><svg version="1.1" viewBox="0 -56.875 30 30" xmlns="http://www.w3.org/2000/svg" xmlns:xlink="http://www.w3.org/1999/xlink"><!--Generated by IJSVG (https://github.com/iconjar/IJSVG)--><path d="M7.475,-54.85q3.45,-2.025 7.525,-2.025q4.075,0 7.525,2.0125q3.45,2.0125 5.4625,5.4625q2.0125,3.45 2.0125,7.525q0,4.075 -2.0125,7.525q-2.0125,3.45 -5.4625,5.4625q-3.45,2.0125 -7.525,2.0125q-4.075,0 -7.525,-2.0125q-3.45,-2.0125 -5.4625,-5.4625q-2.0125,-3.45 -2.0125,-7.525q0,-4.075 2.0125,-7.525q2.0125,-3.45 5.4625,-5.45Zm12,2.375q-2.125,-0.925 -4.475,-0.925q-2.35,0 -4.475,0.9125q-2.125,0.9125 -3.675,2.4625q-1.55,1.55 -2.4625,3.675q-0.9125,2.125 -0.9125,4.475q0,2.35 0.9125,4.475q0.9125,2.125 2.4625,3.675q1.55,1.55 3.675,2.4625q2.125,0.9125 4.475,0.9125q2.35,0 4.475,-0.9125q2.125,-0.9125 3.675,-2.4625q1.55,-1.55 2.4625,-3.675q0.9125,-2.125 0.9125,-4.475q0,-2.35 -0.9125,-4.475q-0.9125,-2.125 -2.4625,-3.675q-1.55,-1.55 -3.675,-2.45Zm-8.225,3.1l11.25,7.5l-11.25,7.5Z" fill="#000"></path></svg>