<?xml version="1.0" encoding="UTF-8"?><svg version="1.1" viewBox="0 -40.601 29.9977 19.151" xmlns="http://www.w3.org/2000/svg" xmlns:xlink="http://www.w3.org/1999/xlink"><!--Generated by IJSVG (https://github.com/iconjar/IJSVG)--><path d="M0,-37.026q0.025,-0.025 0.1125,-0.1375q0.0875,-0.1125 0.1875,-0.2375v1.15q-0.1,-0.125 -0.1875,-0.2375q-0.0875,-0.1125 -0.1125,-0.1375Zm29.125,5.9q-0.95,0.275 -2.2,-0.3q-1.075,-0.5 -1.9,-0.675q-0.275,-0.1 -0.425,-0.0375q-0.15,0.0625 -0.2,0.1875q-0.05,0.125 -0.075,0.45q-0.25,2.175 -0.425,2.825q-0.475,1.7 -2.05,2.25q-0.25,0.075 -0.3125,0.2375q-0.0625,0.1625 0.0125,0.4125q0.525,2.225 0.625,3.15q0.075,0.6 -0.05,0.75q-0.125,0.15 -0.75,0.25q-0.775,0.125 -2.25,0.175q-0.5,0.025 -0.525,-0.6q-0.05,-1.875 -0.275,-3.525q-0.075,-0.525 -0.2375,-0.6125q-0.1625,-0.0875 -0.7625,-0.0125q0.8,3.925 0.85,4.15q-0.45,0.175 -0.6625,0.2375q-0.2125,0.0625 -0.6125,0.1875q-0.4,0.125 -0.675,0.15q-0.275,0.025 -0.6375,0.025q-0.3625,0 -0.7125,-0.075q-0.5,-0.125 -0.55,-0.6q-0.15,-1.675 -0.275,-3.075q0,-0.025 -0.025,-0.55h-1q0.35,2 0.4,2.275q0.025,0.1 0.0375,0.2375q0.0125,0.1375 0.025,0.3q0.0125,0.1625 0.0375,0.2375q0.075,0.7 -0.025,0.85q-0.1,0.15 -0.75,0.275q-0.85,0.175 -1.625,0.05q-0.95,-0.15 -1,-1.25q-0.05,-1.625 -0.1,-2.8q0,0 -0.1,-0.45q-0.075,0 -0.125,0.025q0,1 -0.025,1.05q0,0.25 -0.025,1.1125q-0.025,0.8625 -0.025,1.3375q0,0.375 -0.4,0.475q-1.475,0.425 -3.475,-0.125q-0.575,-0.15 -0.5,-0.775q0.1,-0.725 0.325,-1.975q0,-0.05 0.2,-0.875q0.4,-1.55 -0.325,-2.775q-1.2,-1.975 -1.025,-3.65q0.075,-0.8 0.225,-1.275q0.125,-0.4 -0.275,-0.6q-1.675,-0.875 -2.15,-2.275q-0.4,-1.2 0.125,-2.375q0.525,-1.175 1.775,-1.875q-0.4,1.125 -0.425,1.2q-0.3,1 0.2625,1.95q0.5625,0.95 1.6125,1.175q0.175,0.025 0.375,-0.05q0.25,-0.075 0.375,-0.225q1.075,-1.1 2.425,-1.65q1.35,-0.55 3.35,-1q0.325,-0.075 0.825,-0.2125q0.5,-0.1375 0.8375,-0.225q0.3375,-0.0875 0.8,-0.175q0.4625,-0.0875 0.8375,-0.1375q2.725,-0.25 4.4625,0.5625q1.7375,0.8125 3.0125,2.9875q0.075,0.1 1.125,2.125q0.475,-0.1 0.7375,-0.1875q0.2625,-0.0875 0.6375,-0.2625q0.375,-0.175 0.6375,-0.4375q0.2625,-0.2625 0.4625,-0.6375q0.475,-0.875 1.275,-1.0125q0.8,-0.1375 1.425,0.5125q0.8,0.775 0.2,1.7q-0.05,0.075 -0.8,1.1q0.65,0.575 0.725,0.65q0.15,0.125 0.3,0.375q0.4,0.625 0.2625,0.925q-0.1375,0.3 -0.8625,0.425q0.525,-0.425 0.05,-0.925q-0.075,-0.075 -1.025,-1.125q0.6,-0.8 0.65,-0.85q0.05,-0.075 0.625,-0.825q-0.175,-0.325 -0.2,-0.325q-0.5,-0.8 -1.1,-0.8q-0.6,0 -1.125,0.775q-0.025,0.05 -0.075,0.15q-0.05,0.1 -0.1,0.1625q-0.05,0.0625 -0.1,0.1125q-0.075,0.075 -0.1875,0.1875q-0.1125,0.1125 -0.1875,0.1875q-0.075,0.075 -0.175,0.1625q-0.1,0.0875 -0.2,0.1625q-0.1,0.075 -0.225,0.125q-1.6,0.8 -3.525,0.625q-0.5,-0.025 -1.8,0.125q-0.1,0 -0.2125,0.1125q-0.1125,0.1125 -0.1375,0.1875q0,0.1 0.075,0.825q2.6,-0.225 2.75,-0.225q0.9,-0.05 1.675,-0.05q0.775,0 1.6375,0.225q0.8625,0.225 1.5625,0.7q0.15,0.1 0.375,0.15q0.225,0.05 0.5375,0.0875q0.3125,0.0375 0.4625,0.0625Zm-6.125,-1.05q0.1,1.65 0.1,1.725q-0.05,1.175 -0.8,1.775q-0.75,0.6 -1.9,0.425q-2.25,-0.35 -2.825,-2.475q-0.6,-2.275 0.075,-4.575q0.175,-0.6 0.65,-1.225q0.5,-0.65 1.175,-0.7375q0.675,-0.0875 1.325,0.4125q0.45,0.35 0.9,1.05q0.15,0.25 0.3625,0.725q0.2125,0.475 0.2875,0.625q0.15,0.275 0.325,0.3q0.1,0.025 1.05,0.025q-0.225,-0.575 -0.225,-0.6q-0.8,-1.75 -2.2,-3.2q-0.95,-0.975 -1.9875,-0.8875q-1.0375,0.0875 -1.8375,1.2125q-0.95,1.35 -1.225,3.45q-0.45,3.125 0.95,5.175q1.175,1.725 3.275,1.975q2,0.25 2.95,-1.575q0.55,-1 0.525,-2.625q0,-0.375 -0.0125,-0.5q-0.0125,-0.125 -0.125,-0.25q-0.1125,-0.125 -0.2625,-0.15q-0.15,-0.025 -0.55,-0.075Zm-1.575,10.45q0.05,-0.1 0.15,-0.25q0.1,-0.15 0.125,-0.2125q0.025,-0.0625 0.025,-0.1125q-0.05,-0.075 -0.1125,-0.1625q-0.0625,-0.0875 -0.1625,-0.175q-0.1,-0.0875 -0.125,-0.1375q-0.025,0.05 -0.1125,0.1375q-0.0875,0.0875 -0.125,0.15q-0.0375,0.0625 -0.0375,0.1125q0.025,0.1 0.075,0.175q0.05,0.075 0.15,0.225q0.1,0.15 0.15,0.25Zm-20.025,-15.1q0.2,0.975 0.35,1.625q-0.675,-0.7 -0.475,-1.6q0.075,0 0.125,-0.025Zm4.1,-3.675q-0.125,0.45 -0.375,1.375q-0.225,-0.95 0.375,-1.375Z" fill="#000"></path></svg>