<?xml version="1.0" encoding="UTF-8"?><svg version="1.1" viewBox="0 -56.875 30 30" xmlns="http://www.w3.org/2000/svg" xmlns:xlink="http://www.w3.org/1999/xlink"><!--Generated by IJSVG (https://github.com/iconjar/IJSVG)--><path d="M0,-56.875h13.625v13.625h-13.625Zm16.375,0h13.625v13.625h-13.625Zm-13.65,2.725v8.2h8.2v-8.2Zm16.35,0v8.2h8.2v-8.2Zm-13.625,2.775h2.75v2.7h-2.75Zm16.35,0h2.7v2.7h-2.7Zm-21.8,10.875h13.625v13.625h-13.625Zm16.375,0h8.125v2.7h2.775v-2.7h2.725v8.175h-8.2v-2.725h-2.725v8.175h-2.7Zm-13.65,2.7v8.2h8.2v-8.2Zm2.725,2.725h2.75v2.75h-2.75Zm16.35,5.475h2.7v2.725h-2.7Zm5.475,0h2.725v2.725h-2.725Z" fill="#000"></path></svg>