<?xml version="1.0" encoding="UTF-8"?><svg version="1.1" viewBox="0 -56.875 30 30" xmlns="http://www.w3.org/2000/svg" xmlns:xlink="http://www.w3.org/1999/xlink"><!--Generated by IJSVG (https://github.com/iconjar/IJSVG)--><path d="M7.475,-54.85q3.45,-2.025 7.525,-2.025q4.075,0 7.525,2.0125q3.45,2.0125 5.4625,5.4625q2.0125,3.45 2.0125,7.525q0,4.075 -2.0125,7.525q-2.0125,3.45 -5.4625,5.4625q-3.45,2.0125 -7.525,2.0125q-4.075,0 -7.525,-2.0125q-3.45,-2.0125 -5.4625,-5.4625q-2.0125,-3.45 -2.0125,-7.525q0,-4.075 2.0125,-7.525q2.0125,-3.45 5.4625,-5.45Zm7.25,1.725q-0.9,0 -2.1125,0.5q-1.2125,0.5 -2.1375,1.2875q-0.925,0.7875 -0.975,1.5375q-0.05,0.7 0.025,1.1125q0.075,0.4125 0.1375,0.475q0.0625,0.0625 0.1875,0.1375h1.7q0.325,-0.725 0.7875,-1.0625q0.4625,-0.3375 1.3375,-0.3125q0.975,0 1.7125,0.975q0.7375,0.975 0.3125,1.975q-0.3,0.725 -0.8875,1.6875q-0.5875,0.9625 -0.9125,1.6625q-0.575,1.225 -0.625,2.675q-0.05,1.45 0.6,2.95l2.1,0.05q-0.15,-0.775 0.0375,-1.5625q0.1875,-0.7875 0.625,-1.5125q0.4375,-0.725 0.875,-1.325q0.4375,-0.6 1,-1.275q0.5625,-0.675 0.8125,-1.05q0.525,-0.825 0.7875,-1.4q0.2625,-0.575 0.3375,-1.025q0.075,-0.45 0.075,-1.225q0,-2.1 -1.5,-3.625q-1.575,-1.625 -4.3,-1.65Zm1.9,18.15q-0.725,-0.75 -1.7875,-0.75q-1.0625,0 -1.8125,0.7375q-0.75,0.7375 -0.75,1.8q0,1.0625 0.75,1.8125q0.75,0.75 1.8125,0.75q1.0625,0 1.8,-0.75q0.7375,-0.75 0.7375,-1.8125q0,-1.0625 -0.75,-1.7875Z" fill="#000"></path></svg>