<?xml version="1.0" encoding="UTF-8"?><svg version="1.1" viewBox="0 -56.875 30 30" xmlns="http://www.w3.org/2000/svg" xmlns:xlink="http://www.w3.org/1999/xlink"><!--Generated by IJSVG (https://github.com/iconjar/IJSVG)--><path d="M7.475,-54.85q3.45,-2.025 7.525,-2.025q4.075,0 7.525,2.0125q3.45,2.0125 5.4625,5.4625q2.0125,3.45 2.0125,7.525q0,4.075 -2.0125,7.525q-2.0125,3.45 -5.4625,5.4625q-3.45,2.0125 -7.525,2.0125q-4.075,0 -7.525,-2.0125q-3.45,-2.0125 -5.4625,-5.4625q-2.0125,-3.45 -2.0125,-7.525q0,-4.075 2.0125,-7.525q2.0125,-3.45 5.4625,-5.45Zm6.375,5.025q-0.8,0.075 -1.35,0.1375q-0.55,0.0625 -1.3875,0.2375q-0.8375,0.175 -1.4,0.45q-0.5625,0.275 -1.2125,0.7625q-0.65,0.4875 -1.0375,1.1375q-0.3875,0.65 -0.65,1.6375q-0.2625,0.9875 -0.2625,2.2125v7.375h6.675v-7.9h-2.225q-0.025,-0.6 0.15,-1.0875q0.175,-0.4875 0.475,-0.7875q0.3,-0.3 0.8125,-0.5375q0.5125,-0.2375 0.95,-0.375q0.4375,-0.1375 1.1125,-0.2875Zm8.95,0q-0.8,0.075 -1.35,0.1375q-0.55,0.0625 -1.3875,0.2375q-0.8375,0.175 -1.4,0.45q-0.5625,0.275 -1.2125,0.7625q-0.65,0.4875 -1.0375,1.1375q-0.3875,0.65 -0.65,1.6375q-0.2625,0.9875 -0.2625,2.2125v7.375h6.7v-7.9h-2.225q-0.05,-0.75 0.2,-1.3q0.25,-0.55 0.8,-0.8875q0.55,-0.3375 1.0875,-0.5125q0.5375,-0.175 1.3875,-0.375Z" fill="#000"></path></svg>