<?xml version="1.0" encoding="UTF-8"?><svg version="1.1" viewBox="0 -49 30 24.75" xmlns="http://www.w3.org/2000/svg" xmlns:xlink="http://www.w3.org/1999/xlink"><!--Generated by IJSVG (https://github.com/iconjar/IJSVG)--><path d="M17.05,-24.25l-1.15,-5.275q0.825,-0.175 1.4125,-0.3375q0.5875,-0.1625 1.3,-0.4125q0.7125,-0.25 1.2,-0.525q0.4875,-0.275 0.975,-0.6875q0.4875,-0.4125 0.7625,-0.9q0.275,-0.4875 0.425,-1.15q0.15,-0.6625 0.1,-1.4375h-3.95v-14.025h11.875v13.1q0,2.175 -0.4625,3.9125q-0.4625,1.7375 -1.15,2.8875q-0.6875,1.15 -1.8375,2.025q-1.15,0.875 -2.1625,1.35q-1.0125,0.475 -2.4875,0.8125q-1.475,0.3375 -2.45,0.45q-0.975,0.1125 -2.4,0.2125Zm-15.9,0l-1.15,-5.275q1.175,-0.275 1.975,-0.5q0.8,-0.225 1.7,-0.6625q0.9,-0.4375 1.425,-0.975q0.525,-0.5375 0.8375,-1.3875q0.3125,-0.85 0.2375,-1.925h-3.925v-14.025h11.85v13.1q0,2.175 -0.4625,3.9125q-0.4625,1.7375 -1.15,2.8875q-0.6875,1.15 -1.8375,2.025q-1.15,0.875 -2.15,1.35q-1,0.475 -2.4875,0.8125q-1.4875,0.3375 -2.4625,0.45q-0.975,0.1125 -2.4,0.2125Z" fill="#000"></path></svg>