<?xml version="1.0" encoding="UTF-8"?><svg version="1.1" viewBox="0 -49 30 24.75" xmlns="http://www.w3.org/2000/svg" xmlns:xlink="http://www.w3.org/1999/xlink"><!--Generated by IJSVG (https://github.com/iconjar/IJSVG)--><path d="M12.95,-49l1.15,5.275q-1.175,0.275 -1.9625,0.5q-0.7875,0.225 -1.7,0.6625q-0.9125,0.4375 -1.425,0.975q-0.5125,0.5375 -0.8375,1.3875q-0.325,0.85 -0.25,1.925h3.95v14.025h-11.875v-13.1q0,-2.175 0.4625,-3.9125q0.4625,-1.7375 1.15,-2.8875q0.6875,-1.15 1.8375,-2.025q1.15,-0.875 2.1625,-1.35q1.0125,-0.475 2.4875,-0.8125q1.475,-0.3375 2.45,-0.45q0.975,-0.1125 2.4,-0.2125Zm15.9,0l1.15,5.275q-1.175,0.275 -1.975,0.5q-0.8,0.225 -1.7,0.6625q-0.9,0.4375 -1.425,0.975q-0.525,0.5375 -0.8375,1.3875q-0.3125,0.85 -0.2375,1.925h3.925v14.025h-11.85v-13.1q0,-1.7 0.275,-3.1375q0.275,-1.4375 0.725,-2.5q0.45,-1.0625 1.1875,-1.925q0.7375,-0.8625 1.45,-1.45q0.7125,-0.5875 1.7375,-1.05q1.025,-0.4625 1.85,-0.7125q0.825,-0.25 1.9625,-0.4375q1.1375,-0.1875 1.9,-0.275q0.7625,-0.0875 1.8625,-0.1625Z" fill="#000"></path></svg>