<?xml version="1.0" encoding="UTF-8"?><svg version="1.1" viewBox="0 -56.875 30 30" xmlns="http://www.w3.org/2000/svg" xmlns:xlink="http://www.w3.org/1999/xlink"><!--Generated by IJSVG (https://github.com/iconjar/IJSVG)--><path d="M15,-56.875q3.05,0 5.7875,1.1625q2.7375,1.1625 4.8125,3.2375l4.4,-4.4v12.075h-4.45h-7.625l4.825,-4.825q-1.525,-1.5 -3.525,-2.35q-2,-0.85 -4.225,-0.85q-3.725,0 -6.65,2.25q-2.925,2.25 -3.9,5.775h-4.175q0.7,-3.425 2.7875,-6.175q2.0875,-2.75 5.225,-4.325q3.1375,-1.575 6.7125,-1.575Zm-15,17.925h12.075l-4.825,4.825q1.525,1.5 3.525,2.35q2,0.85 4.225,0.85q3.725,0 6.65,-2.25q2.925,-2.25 3.9,-5.775h4.175q-0.7,3.425 -2.7875,6.175q-2.0875,2.75 -5.225,4.325q-3.1375,1.575 -6.7125,1.575q-3.05,0 -5.7875,-1.1625q-2.7375,-1.1625 -4.8125,-3.2375l-4.4,4.4Z" fill="#000"></path></svg>