<?xml version="1.0" encoding="UTF-8"?><svg version="1.1" viewBox="0 -56.875 30 30" xmlns="http://www.w3.org/2000/svg" xmlns:xlink="http://www.w3.org/1999/xlink"><!--Generated by IJSVG (https://github.com/iconjar/IJSVG)--><path d="M7.475,-54.85q3.45,-2.025 7.525,-2.025q4.075,0 7.525,2.0125q3.45,2.0125 5.4625,5.4625q2.0125,3.45 2.0125,7.525q0,4.075 -2.0125,7.525q-2.0125,3.45 -5.4625,5.4625q-3.45,2.0125 -7.525,2.0125q-4.075,0 -7.525,-2.0125q-3.45,-2.0125 -5.4625,-5.4625q-2.0125,-3.45 -2.0125,-7.525q0,-4.075 2.0125,-7.525q2.0125,-3.45 5.4625,-5.45Zm7.525,4.275q-1.775,0 -3.375,0.7q-1.6,0.7 -2.7625,1.8625q-1.1625,1.1625 -1.8625,2.7625q-0.7,1.6 -0.7,3.375q0,2.35 1.1625,4.3625q1.1625,2.0125 3.175,3.175q2.0125,1.1625 4.3625,1.1625q2.375,0 4.375,-1.1875q2,-1.1875 3.15,-3.1875l-3.05,-1.75q-0.675,1.175 -1.875,1.875q-1.2,0.7 -2.6,0.7q-2.15,0 -3.65,-1.5q-1.5,-1.5 -1.5,-3.65q0,-2.15 1.5,-3.65q1.5,-1.5 3.65,-1.5q1.8,0 3.225,1.125l-2.275,1.625l7.75,2.575v-8.075l-2.525,1.775q-0.8,-0.8 -1.7625,-1.3625q-0.9625,-0.5625 -2.1,-0.8875q-1.1375,-0.325 -2.3125,-0.325Z" fill="#000"></path></svg>