<?xml version="1.0" encoding="UTF-8"?><svg version="1.1" viewBox="0 -56.875 30 30" xmlns="http://www.w3.org/2000/svg" xmlns:xlink="http://www.w3.org/1999/xlink"><!--Generated by IJSVG (https://github.com/iconjar/IJSVG)--><path d="M0,-56.875h14.85v4.925h-9.925v20.15h20.15v-5.525l4.925,-5.225v15.675h-30Zm21.45,0l8.55,8.55l-8.55,8.55v-6.175q-1.825,0 -2.75,0.025q-0.925,0.025 -2.3875,0.1125q-1.4625,0.0875 -2.2125,0.2875q-0.75,0.2 -1.8375,0.5625q-1.0875,0.3625 -1.6625,0.9q-0.575,0.5375 -1.2875,1.3375q-0.7125,0.8 -1.1,1.875q-0.3875,1.075 -0.7375,2.4875q-0.35,1.4125 -0.525,3.1875q0,-2.6 0.35,-4.7625q0.35,-2.1625 0.875,-3.7125q0.525,-1.55 1.4125,-2.7875q0.8875,-1.2375 1.7,-2.0125q0.8125,-0.775 2.025,-1.3375q1.2125,-0.5625 2.075,-0.8375q0.8625,-0.275 2.175,-0.4125q1.3125,-0.1375 2.0125,-0.1625q0.7,-0.025 1.875,-0.025Z" fill="#000"></path></svg>