<?xml version="1.0" encoding="UTF-8"?><svg version="1.1" viewBox="0 -56.875 30 30" xmlns="http://www.w3.org/2000/svg" xmlns:xlink="http://www.w3.org/1999/xlink"><!--Generated by IJSVG (https://github.com/iconjar/IJSVG)--><path d="M7.475,-54.85q3.45,-2.025 7.525,-2.025q4.075,0 7.525,2.0125q3.45,2.0125 5.4625,5.4625q2.0125,3.45 2.0125,7.525q0,4.075 -2.0125,7.525q-2.0125,3.45 -5.4625,5.4625q-3.45,2.0125 -7.525,2.0125q-4.075,0 -7.525,-2.0125q-3.45,-2.0125 -5.4625,-5.4625q-2.0125,-3.45 -2.0125,-7.525q0,-4.075 2.0125,-7.525q2.0125,-3.45 5.4625,-5.45Zm-0.025,4.3q-0.375,-0.1 -0.7,0.075q-0.325,0.175 -0.4375,0.525q-0.1125,0.35 0.0375,0.7q0.2,0.325 0.55,0.45l2.075,0.65l0.75,7.4l-0.475,2.625q-0.075,0.425 0.1875,0.725q0.2625,0.3 0.7125,0.325h11.275q0.35,0 0.625,-0.25q0.275,-0.25 0.3,-0.65q0,-0.35 -0.2625,-0.6125q-0.2625,-0.2625 -0.6625,-0.2875h-10.2l0.2,-1.2h10.75q0.2,0 0.375,-0.0875q0.175,-0.0875 0.3125,-0.2625q0.1375,-0.175 0.1875,-0.4l0.75,-4.225q0.05,-0.35 -0.1875,-0.6625q-0.2375,-0.3125 -0.6375,-0.3875l-12.075,-1.35l-0.15,-1.475q-0.075,-0.6 -0.65,-0.775Zm5.025,14.425q-0.4,-0.425 -0.975,-0.425q-0.575,0 -0.9875,0.4125q-0.4125,0.4125 -0.4125,1q0,0.5875 0.4125,0.9875q0.4125,0.4 0.9875,0.4q0.575,0 0.9875,-0.4q0.4125,-0.4 0.4125,-0.9875q0,-0.5875 -0.425,-0.9875Zm8.275,0q-0.4,-0.425 -0.9875,-0.425q-0.5875,0 -1,0.4125q-0.4125,0.4125 -0.4125,1q0,0.5875 0.4125,0.9875q0.4125,0.4 1,0.4q0.5875,0 1,-0.4q0.4125,-0.4 0.4125,-0.9875q0,-0.5875 -0.425,-0.9875Z" fill="#000"></path></svg>