<?xml version="1.0" encoding="UTF-8"?><svg version="1.1" viewBox="0 -56.875 30.0095 30" xmlns="http://www.w3.org/2000/svg" xmlns:xlink="http://www.w3.org/1999/xlink"><!--Generated by IJSVG (https://github.com/iconjar/IJSVG)--><path d="M26.875,-51.075q2.475,3.275 3,7.3375q0.525,4.0625 -1,7.6875q-1.25,2.775 -3.4,4.85q-2.15,2.075 -4.85,3.1875q-2.7,1.1125 -5.6,1.1375q-4.275,-0.05 -7.8625,-2.275q-3.5875,-2.225 -5.5125,-5.9h6.55q1.4,0 2.6,-0.55q1.2,-0.55 1.925,-1.55q0.725,-1 0.75,-2.275q0,-1.125 -0.425,-2.0375q-0.425,-0.9125 -1.275,-1.4375q-0.25,-0.125 -0.525,-0.2375q-0.275,-0.1125 -0.4875,-0.1875q-0.2125,-0.075 -0.55,-0.15q-0.3375,-0.075 -0.5,-0.1125q-0.1625,-0.0375 -0.5625,-0.1q-0.4,-0.0625 -0.525,-0.0875q-0.05,0 -0.2375,-0.0375q-0.1875,-0.0375 -0.25,-0.0625q-0.0625,-0.025 -0.2375,-0.0625q-0.175,-0.0375 -0.25,-0.075q-0.075,-0.0375 -0.2125,-0.1q-0.1375,-0.0625 -0.2125,-0.125q-0.075,-0.0625 -0.15,-0.15q-0.075,-0.0875 -0.1125,-0.1875q-0.0375,-0.1 -0.0375,-0.225q0.075,-1.325 2.2,-1.325h4.55q1.225,0.025 1.85,0.3q0.9,0.4 0.925,1.275v4.55q0.05,2.375 1.575,3.7q1.525,1.225 3.625,1.25q2.25,-0.05 3.65,-1.25q1.575,-1.475 1.575,-3.7Zm-11.85,-5.8q4.575,0.05 8.45,2.6v14.4q-0.075,0.775 -0.575,1.2875q-0.5,0.5125 -1.25,0.5125q-0.775,-0.05 -1.3,-0.5625q-0.525,-0.5125 -0.525,-1.2375v-4.325q-0.075,-3.725 -2.425,-4.6q-0.725,-0.275 -1.575,-0.275h-7.375q-2.1,0.05 -3.45,1.175q-1.45,1.325 -1.45,3.225q0.025,1.375 0.625,2.275q0.925,1.275 2.75,1.625q0.35,0.075 1.1875,0.1875q0.8375,0.1125 1.2625,0.2625q0.75,0.275 0.75,1.05q-0.05,0.8 -0.9,1.05q-0.6,0.15 -2.2,0.15h-6.55q-0.475,-2 -0.475,-3.8q0.05,-3.075 1.2875,-5.8625q1.2375,-2.7875 3.2625,-4.775q2.025,-1.9875 4.7625,-3.1625q2.7375,-1.175 5.7125,-1.2Z" fill="#000"></path></svg>