<?xml version="1.0" encoding="UTF-8"?><svg version="1.1" viewBox="0 -49.4378 30 25.0378" xmlns="http://www.w3.org/2000/svg" xmlns:xlink="http://www.w3.org/1999/xlink"><!--Generated by IJSVG (https://github.com/iconjar/IJSVG)--><path d="M0,-40.2378v-7.25q0.075,-0.85 0.6125,-1.3875q0.5375,-0.5375 1.3125,-0.5625h7.275q1.3,0.025 2.65,0.85l11.4,12.5q0.5,0.675 0.5125,1.425q0.0125,0.75 -0.5125,1.3l-8.425,8.4q-0.65,0.55 -1.425,0.5625q-0.775,0.0125 -1.3,-0.5625l-10.725,-11.95q-1.35,-1.675 -1.375,-3.325Zm3.675,-2.875q0.625,0.55 1.375,0.5375q0.75,-0.0125 1.275,-0.5375q0.55,-0.6 0.5375,-1.3625q-0.0125,-0.7625 -0.5375,-1.2875q-0.6,-0.525 -1.3625,-0.5125q-0.7625,0.0125 -1.2875,0.5125q-0.55,0.65 -0.5375,1.375q0.0125,0.725 0.5375,1.275Zm8.975,-6.275h2.8q0.925,0.05 1.8375,0.4125q0.9125,0.3625 1.4625,0.9625l10.725,11.975q0.525,0.625 0.525,1.4125q0,0.7875 -0.525,1.3375l-8.4,8.375q-1.85,1.05 -2.95,-0.225l8.225,-8.225q0.55,-0.625 0.5375,-1.4q-0.0125,-0.775 -0.5375,-1.325l-9.575,-10.725q-0.75,-0.95 -2.1625,-1.7375q-1.4125,-0.7875 -1.9625,-0.8375Z" fill="#000"></path></svg>