<?xml version="1.0" encoding="UTF-8"?><svg version="1.1" viewBox="0 -56.875 30 30" xmlns="http://www.w3.org/2000/svg" xmlns:xlink="http://www.w3.org/1999/xlink"><!--Generated by IJSVG (https://github.com/iconjar/IJSVG)--><path d="M6.45,-56.875h17.125l0.125,5.325h-1.825q0,-2.725 -0.6,-3.1875q-0.6,-0.4625 -4.1,-0.4625v14.7q0,1.325 0.325,1.55q0.325,0.225 2.25,0.225v1.475h-9.5v-1.475h0.025q1.875,0.05 2.2,-0.1625q0.325,-0.2125 0.35,-1.2625q0,-0.1 0,-0.35v-14.7q0,0 -0.025,0q-3.475,0 -4.0625,0.4625q-0.5875,0.4625 -0.5875,3.1875h-1.85Zm-1.225,19.575v3.5h19.55v-3.5l5.225,5.225l-5.225,5.2v-3.475h-19.55v3.475l-5.225,-5.2Z" fill="#000"></path></svg>