<?xml version="1.0" encoding="UTF-8"?><svg version="1.1" viewBox="0 -52.3696 29.9936 26.9946" xmlns="http://www.w3.org/2000/svg" xmlns:xlink="http://www.w3.org/1999/xlink"><!--Generated by IJSVG (https://github.com/iconjar/IJSVG)--><path d="M28.525,-33.9446h-7.45q0.225,1.775 0.625,3.55q0.2,2.725 -2.825,4.775q-0.6,0.375 -1.275,0.175q-0.625,-0.225 -0.925,-0.875l-3.4,-7.625h-3.425q-0.45,-0.025 -0.7875,-0.225q-0.3375,-0.2 -0.525,-0.525q-0.1875,-0.325 -0.1875,-0.75v-15.05q0.025,-0.45 0.225,-0.7875q0.2,-0.3375 0.5375,-0.525q0.3375,-0.1875 0.7375,-0.1875h13.8q1.05,0.075 2.1,0.675q1.625,1 2.15,2.6l2.075,13q0.1,0.725 -0.3375,1.25q-0.4375,0.525 -1.1125,0.525Zm-23.075,0.3h-4.375q-0.225,-0.025 -0.425,-0.1125q-0.2,-0.0875 -0.3375,-0.2125q-0.1375,-0.125 -0.225,-0.3125q-0.0875,-0.1875 -0.0875,-0.4125v-16.625q0.025,-0.475 0.3375,-0.7625q0.3125,-0.2875 0.7375,-0.2875h4.375q0.475,0.05 0.775,0.3375q0.3,0.2875 0.3,0.7125v16.625q-0.025,0.475 -0.3375,0.7625q-0.3125,0.2875 -0.7375,0.2875Z" fill="#000"></path></svg>