<?xml version="1.0" encoding="UTF-8"?><svg version="1.1" viewBox="0 -49.3807 30 25.003" xmlns="http://www.w3.org/2000/svg" xmlns:xlink="http://www.w3.org/1999/xlink"><!--Generated by IJSVG (https://github.com/iconjar/IJSVG)--><path d="M30,-46.453q-0.3,0.625 -1.125,1.6q-0.825,0.975 -2.025,1.7q0.05,0.275 0.05,0.525q0.125,3.3 -1.275,6.95q-2.425,6.05 -7.325,9.1q-4.75,2.725 -11.425,2.075q-4.25,-0.475 -6.875,-2.65q2.475,0.3 4.8125,-0.425q2.3375,-0.725 4.3625,-2.225q-2,0.05 -3.525,-1.175q-1.525,-1.225 -2.3,-3.125q0.5,0.125 1.3,0.05q0.975,-0.075 1.475,-0.2q-3.025,-0.975 -4.175,-3.225q-0.7,-1.475 -0.7,-3.1q1.65,0.9 2.775,0.85q-2.45,-2.075 -2.725,-4.425q-0.175,-1.85 0.75,-4q3.4,3.75 7.125,5.35q2.825,1.15 5.6,1.175q-0.35,-2.825 0.75,-4.75q1.325,-2.1 3.875,-2.825q1.625,-0.4 3.15,0.1q1.525,0.5 2.575,1.675q1.825,-0.2 3.975,-1.475q-0.375,1.175 -1.0875,2.125q-0.7125,0.95 -1.6625,1.425q1.875,-0.35 3.65,-1.1Z" fill="#000"></path></svg>