<?xml version="1.0" encoding="UTF-8"?><svg version="1.1" viewBox="0 -56.875 30 30" xmlns="http://www.w3.org/2000/svg" xmlns:xlink="http://www.w3.org/1999/xlink"><!--Generated by IJSVG (https://github.com/iconjar/IJSVG)--><path d="M7.475,-54.85q3.45,-2.025 7.525,-2.025q4.075,0 7.525,2.0125q3.45,2.0125 5.4625,5.4625q2.0125,3.45 2.0125,7.525q0,4.075 -2.0125,7.525q-2.0125,3.45 -5.4625,5.4625q-3.45,2.0125 -7.525,2.0125q-4.075,0 -7.525,-2.0125q-3.45,-2.0125 -5.4625,-5.4625q-2.0125,-3.45 -2.0125,-7.525q0,-4.075 2.0125,-7.525q2.0125,-3.45 5.4625,-5.45Zm12.575,1q-2.4,-1.025 -5.05,-1.025q-2.65,0 -5.05,1.0375q-2.4,1.0375 -4.15,2.775q-1.75,1.7375 -2.775,4.1375q-1.025,2.4 -1.025,5.05q0,2.65 1.025,5.05q1.025,2.4 2.775,4.15q1.75,1.75 4.15,2.775q2.4,1.025 5.05,1.025q2.65,0 5.05,-1.025q2.4,-1.025 4.1375,-2.775q1.7375,-1.75 2.775,-4.15q1.0375,-2.4 1.0375,-5.05q0,-2.65 -1.0375,-5.05q-1.0375,-2.4 -2.775,-4.15q-1.7375,-1.75 -4.1375,-2.775Zm3,10.5q0.325,0.3 0.3375,0.7q0.0125,0.4 -0.2375,0.7q-0.275,0.325 -0.7,0.35q-0.425,0.025 -0.7,-0.25q-0.575,-0.525 -1.8625,-1.6q-1.2875,-1.075 -1.9375,-1.675q0,0 -0.0875,-0.05q-0.0875,-0.05 -0.2125,-0.1125q-0.125,-0.0625 -0.2,-0.0625q-0.175,0 -0.175,0.425q0.025,0.425 0.025,1.7375q0,1.3125 0.075,2.0125q0.075,0.65 0.075,0.75l1.45,8.175q0.075,0.55 -0.2125,0.95q-0.2875,0.4 -0.7875,0.5q-0.3,0.075 -0.625,-0.05q-0.325,-0.125 -0.5375,-0.3875q-0.2125,-0.2625 -0.2625,-0.5625q-1.175,-6.6 -1.175,-6.725q-0.025,0 -0.0375,-0.1q-0.0125,-0.1 -0.025,-0.1875q-0.0125,-0.0875 -0.0375,-0.1875q-0.025,-0.1 -0.075,-0.1625q-0.05,-0.0625 -0.125,-0.0625q-0.1,0.025 -0.1625,0.1375q-0.0625,0.1125 -0.075,0.2125q-0.0125,0.1 -0.025,0.2125q-0.0125,0.1125 -0.0375,0.1375l-1.175,6.725q-0.15,0.525 -0.55,0.8q-0.4,0.275 -0.875,0.2q-0.55,-0.15 -0.8125,-0.55q-0.2625,-0.4 -0.1875,-0.9l1.425,-8.225q0.175,-1.125 0.175,-4.4q0,-0.45 -0.175,-0.4625q-0.175,-0.0125 -0.475,0.2375l-3.8,3.25q-0.325,0.25 -0.7375,0.225q-0.4125,-0.025 -0.6625,-0.325q-0.575,-0.8 0.1,-1.4l4.975,-4.4q0.35,-0.225 0.6625,-0.3125q0.3125,-0.0875 0.7375,-0.0875h3.35q0.425,0 0.7375,0.0875q0.3125,0.0875 0.6625,0.3375q0.275,0.25 2.125,1.875q1.85,1.625 2.85,2.5Zm-6.5,-9.1q0.65,0.625 0.65,1.5375q0,0.9125 -0.6375,1.55q-0.6375,0.6375 -1.55,0.6375q-0.9125,0 -1.55,-0.6375q-0.6375,-0.6375 -0.6375,-1.55q0,-0.9125 0.6375,-1.55q0.6375,-0.6375 1.55,-0.6375q0.9125,0 1.5375,0.65Z" fill="#000"></path></svg>