<?xml version="1.0" encoding="UTF-8"?><svg version="1.1" viewBox="0 -56.875 30 30" xmlns="http://www.w3.org/2000/svg" xmlns:xlink="http://www.w3.org/1999/xlink"><!--Generated by IJSVG (https://github.com/iconjar/IJSVG)--><path d="M22.525,-28.9q-3.45,2.025 -7.525,2.025q-4.075,0 -7.525,-2.0125q-3.45,-2.0125 -5.4625,-5.4625q-2.0125,-3.45 -2.0125,-7.525q0,-4.075 2.0125,-7.525q2.0125,-3.45 5.4625,-5.4625q3.45,-2.0125 7.525,-2.0125q4.075,0 7.525,2.0125q3.45,2.0125 5.4625,5.4625q2.0125,3.45 2.0125,7.525q0,4.075 -2.0125,7.525q-2.0125,3.45 -5.4625,5.45Zm-2.975,-23.775q-2.15,-0.95 -4.55,-0.95q-2.4,0 -4.5625,0.9375q-2.1625,0.9375 -3.7375,2.5125q-1.575,1.575 -2.5125,3.7375q-0.9375,2.1625 -0.9375,4.5625q0,2.4 0.9375,4.5625q0.9375,2.1625 2.5125,3.7375q1.575,1.575 3.7375,2.5125q2.1625,0.9375 4.5625,0.9375q2.4,0 4.5625,-0.9375q2.1625,-0.9375 3.7375,-2.5125q1.575,-1.575 2.5125,-3.7375q0.9375,-2.1625 0.9375,-4.5625q0,-2.4 -0.9375,-4.5625q-0.9375,-2.1625 -2.5125,-3.7375q-1.575,-1.575 -3.75,-2.5Zm-1.625,17.075h-5.85v-6.675h-3.675l6.6,-6.2l6.6,6.2h-3.675Z" fill="#000"></path></svg>