<?xml version="1.0" encoding="UTF-8"?><svg version="1.1" viewBox="6 -56.875 18 30" xmlns="http://www.w3.org/2000/svg" xmlns:xlink="http://www.w3.org/1999/xlink"><!--Generated by IJSVG (https://github.com/iconjar/IJSVG)--><path d="M24,-37.2q0,2.85 -2.05,4.575q-1.1,0.925 -2.275,1.4125q-1.175,0.4875 -2.95,0.6625v3.675h-3.575v-3.6q-2.125,-0.05 -3.7625,-0.4125q-1.6375,-0.3625 -3.3625,-1.1375v-4.725q1.575,0.775 3.75,1.35q0.15,0.05 0.575,0.1625q0.425,0.1125 0.55,0.15q0.125,0.0375 0.45,0.1125q0.325,0.075 0.475,0.1q0.15,0.025 0.4,0.075q0.25,0.05 0.4625,0.075q0.2125,0.025 0.4625,0.025v-5.55l-0.65,-0.475q-3.55,-1.4 -5.025,-3.025q-1.475,-1.65 -1.475,-4.075q0,-2.6 2.025,-4.25q1.1,-0.925 2.25,-1.4q1.15,-0.475 2.875,-0.65v-2.75h3.575v2.675q1.975,0.075 3.55,0.475q1.575,0.4 3.325,1.175l-1.7,4.2q-1.55,-0.65 -2.675,-0.975q-1.125,-0.325 -2.5,-0.425v5.275q1.075,0.425 2.0125,0.9q0.9375,0.475 1.275,0.7q0.3375,0.225 1.1125,0.75q1.5,0.975 2.175,2.15q0.7,1.2 0.7,2.775Zm-5.4,0.275q0,-0.775 -0.6,-1.275q-0.15,-0.125 -0.3125,-0.3375q-0.1625,-0.2125 -0.375,-0.4q-0.2125,-0.1875 -0.5875,-0.3375v4.45q1.15,-0.175 1.5125,-0.675q0.3625,-0.5 0.3625,-1.425Zm-7.2,-10.9q0,0.8 0.525,1.325q0.125,0.075 0.2375,0.2375q0.1125,0.1625 0.2125,0.275q0.1,0.1125 0.3,0.25q0.2,0.1375 0.475,0.2625v-4.2q-1.075,0.15 -1.4125,0.575q-0.3375,0.425 -0.3375,1.275Z" fill="#000"></path></svg>