<?xml version="1.0" encoding="UTF-8"?><svg version="1.1" viewBox="0 -56.875 30 30" xmlns="http://www.w3.org/2000/svg" xmlns:xlink="http://www.w3.org/1999/xlink"><!--Generated by IJSVG (https://github.com/iconjar/IJSVG)--><path d="M23.5,-35.425q2,0.75 3.4375,1.425q1.4375,0.675 2.25,1.3125q0.8125,0.6375 0.8125,1.1375v4.675h-30v-4.675q0,-0.75 1.7375,-1.75q1.7375,-1 4.7625,-2.125q2.975,-1.075 4.0875,-2.1875q1.1125,-1.1125 1.1125,-3.0375q0,-0.675 -0.325,-1.3375q-0.325,-0.6625 -0.7875,-1.3625q-0.4625,-0.7 -0.6125,-1.2q-0.35,-1.05 -0.9,-4.05q-0.3,-1.625 -0.425,-2.8q-0.05,-0.525 0.075,-1.1625q0.125,-0.6375 0.5375,-1.425q0.4125,-0.7875 1.0875,-1.4125q0.675,-0.625 1.8875,-1.05q1.2125,-0.425 2.7625,-0.425q1.55,0 2.7625,0.425q1.2125,0.425 1.8875,1.05q0.675,0.625 1.0875,1.4125q0.4125,0.7875 0.5375,1.425q0.125,0.6375 0.075,1.1625q-0.125,1.175 -0.425,2.8q-0.55,2.975 -0.9,4.05q-0.175,0.5 -0.625,1.2q-0.45,0.7 -0.775,1.3625q-0.325,0.6625 -0.325,1.3375q0,1.325 0.4875,2.2125q0.4875,0.8875 1.5875,1.5875q1.1,0.7 3.125,1.425Z" fill="#000"></path></svg>