<?xml version="1.0" encoding="UTF-8"?><svg version="1.1" viewBox="2.7 -50.425 24.6 25.7" xmlns="http://www.w3.org/2000/svg" xmlns:xlink="http://www.w3.org/1999/xlink"><!--Generated by IJSVG (https://github.com/iconjar/IJSVG)--><path d="M27.225,-35.55q0.075,0.075 0.075,0.1625q0,0.0875 -0.075,0.1625l-1.425,1.425q-0.075,0.05 -0.15,0.05q-0.075,0 -0.15,-0.05l-2.05,-2.05l-2.025,2.05q-0.05,0.05 -0.15,0.05q-0.075,0 -0.15,-0.05l-1.425,-1.425q-0.05,-0.075 -0.05,-0.175q0,-0.075 0.05,-0.15l2.025,-2.025l-2.025,-2.025q-0.05,-0.075 -0.05,-0.15q0,-0.1 0.05,-0.175l1.425,-1.425q0.075,-0.05 0.1625,-0.05q0.0875,0 0.1375,0.05l2.025,2.05l2.05,-2.05q0.05,-0.05 0.1375,-0.05q0.0875,0 0.1625,0.05l1.425,1.425q0.075,0.075 0.075,0.1625q0,0.0875 -0.075,0.1625l-2.025,2.025Zm-24.525,-7.4h6.1l9.175,-7.475v25.7l-9.175,-7.475h-6.1Z" fill="#000"></path></svg>