<?xml version="1.0" encoding="UTF-8"?><svg version="1.1" viewBox="0 -56.875 30 30" xmlns="http://www.w3.org/2000/svg" xmlns:xlink="http://www.w3.org/1999/xlink"><!--Generated by IJSVG (https://github.com/iconjar/IJSVG)--><path d="M26.85,-41.15q0.125,-0.525 -0.275,-0.675l-1.125,-0.525q-0.225,-0.075 -0.4375,0.025q-0.2125,0.1 -0.2625,0.3q-0.4,0.85 -1.025,0.85q-0.65,0 -1.0625,-0.7q-0.4125,-0.7 -0.4125,-1.8375q0,-1.1375 0.4125,-1.85q0.4125,-0.7125 1.0625,-0.7125q0.625,0.05 1.025,0.825q0.175,0.425 0.7,0.275l1.125,-0.525q0.2,-0.1 0.275,-0.3125q0.075,-0.2125 -0.05,-0.4125q-0.975,-2.125 -3.075,-2.125q-1.75,0 -2.825,1.3375q-1.075,1.3375 -1.075,3.5q0,2.1625 1.075,3.4875q1.075,1.325 2.825,1.325q2.1,0 3.125,-2.25Zm-10.9,2.25q1.35,-0.025 2.275,-0.8625q0.925,-0.8375 0.95,-2.0625q-0.05,-1.25 -1,-2.05q0.85,-0.8 0.85,-1.9q-0.025,-1.3 -0.9375,-2.0125q-0.9125,-0.7125 -2.1375,-0.7125q-1.95,0 -3.025,1.525q-0.25,0.35 0.075,0.7l0.825,0.75q0.375,0.35 0.775,-0.025q0.525,-0.725 1.25,-0.725q0.575,0 0.675,0.275q0.175,0.375 0,0.8q-0.125,0.125 -0.3125,0.1875q-0.1875,0.0625 -0.3,0.075q-0.1125,0.0125 -0.4,0q-0.2875,-0.0125 -0.3625,-0.0125q-0.15,0 -0.2875,0.0625q-0.1375,0.0625 -0.2125,0.1875q-0.075,0.125 -0.075,0.275v1.225q0.025,0.275 0.1875,0.425q0.1625,0.15 0.3875,0.1q1.35,0 1.5,0.275q0.125,0.275 0.125,0.45q0,0.775 -0.875,0.775q-0.825,0 -1.375,-0.75q-0.15,-0.2 -0.3875,-0.2125q-0.2375,-0.0125 -0.3875,0.1375l-0.85,0.85q-0.325,0.325 -0.075,0.675q1.1,1.55 3.125,1.575Zm-3.4,-8.85q0.05,-0.25 -0.1,-0.45q-0.15,-0.2 -0.375,-0.2h-1.525q-0.4,0 -0.475,0.4l-0.725,3.675l-0.75,-3.675q-0.1,-0.4 -0.5,-0.4h-1.1q-0.45,0 -0.525,0.4l-0.75,3.675l-0.725,-3.675q-0.075,-0.4 -0.5,-0.4h-1.475q-0.2,0 -0.325,0.1q-0.125,0.1 -0.175,0.2375q-0.05,0.1375 -0.025,0.3125l1.9,8.3q0.1,0.4 0.5,0.4h1.45q0.4,0 0.5,-0.4l0.7,-3.425l0.675,3.425q0.075,0.4 0.525,0.4h1.425q0.425,0 0.525,-0.4Zm17.45,-9.125v22.975l-15,7.025l-15,-7.025v-22.975Z" fill="#000"></path></svg>