<?xml version="1.0" encoding="UTF-8"?><svg version="1.1" viewBox="0 -56.875 30 30" xmlns="http://www.w3.org/2000/svg" xmlns:xlink="http://www.w3.org/1999/xlink"><!--Generated by IJSVG (https://github.com/iconjar/IJSVG)--><path d="M7.475,-54.85q3.45,-2.025 7.525,-2.025q4.075,0 7.525,2.0125q3.45,2.0125 5.4625,5.4625q2.0125,3.45 2.0125,7.525q0,4.075 -2.0125,7.525q-2.0125,3.45 -5.4625,5.4625q-3.45,2.0125 -7.525,2.0125q-4.075,0 -7.525,-2.0125q-3.45,-2.0125 -5.4625,-5.4625q-2.0125,-3.45 -2.0125,-7.525q0,-4.075 2.0125,-7.525q2.0125,-3.45 5.4625,-5.45Zm11.6,3.975q-2.025,0 -3.45,1.425q-1.025,1.025 -1.325,2.4375q-0.3,1.4125 0.175,2.7125l-8.475,8.475l2.95,2.95l8.475,-8.475q1.3,0.475 2.7125,0.175q1.4125,-0.3 2.4375,-1.325q1.025,-1.025 1.325,-2.4375q0.3,-1.4125 -0.175,-2.7125l-3,3l-2.125,-0.825l-0.825,-2.125l3,-3q-0.825,-0.275 -1.7,-0.275Zm-10.75,14.45q0.225,-0.225 0.575,-0.225q0.35,0 0.65,0.225q0.25,0.275 0.25,0.625q0,0.35 -0.2625,0.6125q-0.2625,0.2625 -0.6125,0.2625q-0.35,0 -0.6125,-0.2625q-0.2625,-0.2625 -0.2625,-0.6125q0,-0.35 0.275,-0.625Z" fill="#000"></path></svg>