<?xml version="1.0" encoding="UTF-8"?><svg version="1.1" viewBox="0 -56.875 30 30" xmlns="http://www.w3.org/2000/svg" xmlns:xlink="http://www.w3.org/1999/xlink"><!--Generated by IJSVG (https://github.com/iconjar/IJSVG)--><path d="M15.35,-49.2v3.85h3.85v3.825h-3.85v3.85h-3.825v-3.85h-3.85v-3.825h3.85v-3.85Zm14.65,18.975l-3.35,3.35l-5.525,-5.55q-3.475,2.425 -7.7,2.425q-2.725,0 -5.2125,-1.0625q-2.4875,-1.0625 -4.2875,-2.8625q-1.8,-1.8 -2.8625,-4.2875q-1.0625,-2.4875 -1.0625,-5.225q0,-2.7375 1.0625,-5.225q1.0625,-2.4875 2.8625,-4.2875q1.8,-1.8 4.2875,-2.8625q2.4875,-1.0625 5.2125,-1.0625q1.85,0 3.5875,0.4875q1.7375,0.4875 3.2125,1.35q1.475,0.8625 2.7125,2.1q1.2375,1.2375 2.1,2.7125q0.8625,1.475 1.35,3.2125q0.4875,1.7375 0.4875,3.5625q0,4.225 -2.425,7.7Zm-21.4,-4.9q2.225,1.275 4.8375,1.275q2.6125,0 4.825,-1.275q2.2125,-1.275 3.4875,-3.4875q1.275,-2.2125 1.275,-4.825q0,-2.6125 -1.275,-4.825q-1.275,-2.2125 -3.4875,-3.4875q-2.2125,-1.275 -4.825,-1.275q-2.6125,0 -4.825,1.275q-2.2125,1.275 -3.5,3.4875q-1.2875,2.2125 -1.2875,4.825q0,2.6125 1.2875,4.825q1.2875,2.2125 3.4875,3.4875Z" fill="#000"></path></svg>