<?xml version="1.0" encoding="UTF-8"?><svg version="1.1" viewBox="0 -56.875 30 30" xmlns="http://www.w3.org/2000/svg" xmlns:xlink="http://www.w3.org/1999/xlink"><!--Generated by IJSVG (https://github.com/iconjar/IJSVG)--><path d="M30,-30.225l-3.35,3.35l-5.525,-5.55q-3.475,2.425 -7.7,2.425q-2.725,0 -5.2125,-1.0625q-2.4875,-1.0625 -4.2875,-2.8625q-1.8,-1.8 -2.8625,-4.2875q-1.0625,-2.4875 -1.0625,-5.225q0,-2.7375 1.0625,-5.225q1.0625,-2.4875 2.8625,-4.2875q1.8,-1.8 4.2875,-2.8625q2.4875,-1.0625 5.225,-1.0625q2.7375,0 5.225,1.0625q2.4875,1.0625 4.2875,2.8625q1.8,1.8 2.8625,4.2875q1.0625,2.4875 1.0625,5.2125q0,4.225 -2.425,7.7Zm-21.4,-4.9q2.225,1.275 4.8375,1.275q2.6125,0 4.825,-1.275q2.2125,-1.275 3.4875,-3.4875q1.275,-2.2125 1.275,-4.825q0,-2.6125 -1.275,-4.825q-1.275,-2.2125 -3.4875,-3.4875q-2.2125,-1.275 -4.8375,-1.275q-1.95,0 -3.725,0.75q-1.775,0.75 -3.0625,2.0375q-1.2875,1.2875 -2.05,3.0625q-0.7625,1.775 -0.7625,3.75q0,2.6 1.2875,4.8125q1.2875,2.2125 3.4875,3.4875Zm-0.925,-6.4v-3.825h11.525v3.825Z" fill="#000"></path></svg>