<?xml version="1.0" encoding="utf-8"?>
<!-- Generator: Adobe Illustrator 16.2.1, SVG Export Plug-In . SVG Version: 6.00 Build 0)  -->
<!DOCTYPE svg PUBLIC "-//W3C//DTD SVG 1.1//EN" "http://www.w3.org/Graphics/SVG/1.1/DTD/svg11.dtd">
<svg version="1.1" id="Layer_1" xmlns="http://www.w3.org/2000/svg" xmlns:xlink="http://www.w3.org/1999/xlink" x="0px" y="0px"
	 width="512px" height="512px" viewBox="0 0 512 512" enable-background="new 0 0 512 512" xml:space="preserve">
<path fill-rule="evenodd" clip-rule="evenodd" d="M0,256c0,141.391,114.594,256,256,256c141.375,0,256-114.609,256-256
	S397.375,0,256,0C114.594,0,0,114.609,0,256z M472,256c0,119.297-96.719,216-216,216c-119.312,0-216-96.703-216-216
	S136.688,40,256,40C375.281,40,472,136.703,472,256z"/>
<polygon fill-rule="evenodd" clip-rule="evenodd" points="144,226 256,338 368,226 336,194 256,274 176,194 "/>
</svg>
