<?xml version="1.0" encoding="utf-8"?>
<!-- Generator: Adobe Illustrator 16.2.1, SVG Export Plug-In . SVG Version: 6.00 Build 0)  -->
<!DOCTYPE svg PUBLIC "-//W3C//DTD SVG 1.1//EN" "http://www.w3.org/Graphics/SVG/1.1/DTD/svg11.dtd">
<svg version="1.1" id="Layer_1" xmlns="http://www.w3.org/2000/svg" xmlns:xlink="http://www.w3.org/1999/xlink" x="0px" y="0px"
	 width="512px" height="512px" viewBox="0 0 512 512" enable-background="new 0 0 512 512" xml:space="preserve">
<g>
	<path d="M256,512c141.391,0,256-114.609,256-256S397.391,0,256,0S0,114.609,0,256S114.609,512,256,512z M256,40
		c119.297,0,216,96.703,216,216s-96.703,216-216,216S40,375.297,40,256S136.703,40,256,40z"/>
	<path d="M212.688,363.312c6.25,6.25,16.375,6.25,22.625,0l96-96c6.25-6.25,6.25-16.375,0-22.625l-96-96
		C232.188,145.562,228.094,144,224,144s-8.188,1.562-11.312,4.688c-6.25,6.25-6.25,16.375,0,22.625L297.375,256l-84.688,84.688
		C206.438,346.938,206.438,357.062,212.688,363.312z"/>
</g>
</svg>
