<?xml version="1.0" encoding="utf-8"?>
<!-- Generator: Adobe Illustrator 16.2.1, SVG Export Plug-In . SVG Version: 6.00 Build 0)  -->
<!DOCTYPE svg PUBLIC "-//W3C//DTD SVG 1.1//EN" "http://www.w3.org/Graphics/SVG/1.1/DTD/svg11.dtd">
<svg version="1.1" id="Layer_1" xmlns="http://www.w3.org/2000/svg" xmlns:xlink="http://www.w3.org/1999/xlink" x="0px" y="0px"
	 width="512px" height="512px" viewBox="0 0 512 512" enable-background="new 0 0 512 512" xml:space="preserve">
<path fill-rule="evenodd" clip-rule="evenodd" d="M256,512c141.391,0,256-114.609,256-256S397.391,0,256,0S0,114.609,0,256
	S114.609,512,256,512z M256,40c119.297,0,216,96.703,216,216s-96.703,216-216,216S40,375.297,40,256S136.703,40,256,40z"/>
<polygon fill-rule="evenodd" clip-rule="evenodd" points="128,272 326.406,272 288,313.156 309.344,336 384,256 309.344,176 
	288,198.875 326.406,240 128,240 "/>
</svg>
