<?xml version="1.0" encoding="utf-8"?>
<!-- Generator: Adobe Illustrator 16.2.1, SVG Export Plug-In . SVG Version: 6.00 Build 0)  -->
<!DOCTYPE svg PUBLIC "-//W3C//DTD SVG 1.1//EN" "http://www.w3.org/Graphics/SVG/1.1/DTD/svg11.dtd">
<svg version="1.1" id="Layer_1" xmlns="http://www.w3.org/2000/svg" xmlns:xlink="http://www.w3.org/1999/xlink" x="0px" y="0px"
	 width="512px" height="512px" viewBox="0 0 512 512" enable-background="new 0 0 512 512" xml:space="preserve">
<path d="M0,256c0,141.391,114.609,256,256,256s256-114.609,256-256S397.391,0,256,0S0,114.609,0,256z M472,256
	c0,119.297-96.703,216-216,216S40,375.297,40,256S136.703,40,256,40S472,136.703,472,256z"/>
<path d="M237.879,158.339l-89.594,154.175c-9.969,16.844-1.938,32.986,17.844,32.986h179.766c19.75,0,27.797-16.143,17.812-32.986
	l-89.578-152.955C264.16,142.652,247.848,141.448,237.879,158.339z"/>
</svg>
