<?xml version="1.0" encoding="utf-8"?>
<!-- Generator: Adobe Illustrator 16.2.1, SVG Export Plug-In . SVG Version: 6.00 Build 0)  -->
<!DOCTYPE svg PUBLIC "-//W3C//DTD SVG 1.1//EN" "http://www.w3.org/Graphics/SVG/1.1/DTD/svg11.dtd">
<svg version="1.1" id="Layer_1" xmlns="http://www.w3.org/2000/svg" xmlns:xlink="http://www.w3.org/1999/xlink" x="0px" y="0px"
	 width="512px" height="512px" viewBox="0 0 512 512" enable-background="new 0 0 512 512" xml:space="preserve">
<path d="M512,256C512,114.608,397.392,0,256,0S0,114.608,0,256s114.608,256,256,256S512,397.392,512,256z M40,256
	c0-119.296,96.704-216,216-216c119.298,0,216,96.704,216,216c0,119.298-96.702,216-216,216C136.704,472,40,375.298,40,256z"/>
<path d="M274.122,343.468l89.592-145.578c9.97-16.844,1.938-24.39-17.841-24.39H166.105c-19.75,0-27.796,7.546-17.812,24.39
	l89.579,148.655C247.841,363.452,264.152,360.359,274.122,343.468z"/>
</svg>
