<?xml version="1.0" encoding="utf-8"?>
<!-- Generator: Adobe Illustrator 16.2.1, SVG Export Plug-In . SVG Version: 6.00 Build 0)  -->
<!DOCTYPE svg PUBLIC "-//W3C//DTD SVG 1.1//EN" "http://www.w3.org/Graphics/SVG/1.1/DTD/svg11.dtd">
<svg version="1.1" id="Layer_1" xmlns="http://www.w3.org/2000/svg" xmlns:xlink="http://www.w3.org/1999/xlink" x="0px" y="0px"
	 width="512px" height="512px" viewBox="0 0 512 512" enable-background="new 0 0 512 512" xml:space="preserve">
<path d="M256,0C114.609,0,0,114.609,0,256s114.609,256,256,256s256-114.609,256-256S397.391,0,256,0z M256,472
	c-119.297,0-216-96.703-216-216S136.703,40,256,40s216,96.703,216,216S375.297,472,256,472z"/>
<g>
	<path d="M384,207.828C384,163.75,341.016,128,288,128c-53,0-96,35.75-96,79.828c0,44.094,43,79.828,96,79.828
		c17.484,0,38.406-7.766,38.406-7.766l52.812,24.062l-11.234-51.281C367.984,252.672,384,227.344,384,207.828z M327.062,262.594
		l-6.219,2.281c-5.094,1.875-20.953,6.766-32.844,6.766c-44.109,0-80-28.625-80-63.812s35.891-63.812,80-63.812
		s79.984,28.625,79.984,63.812c0,10.734-8.266,27.953-13.516,36.297l-3.5,5.547l5.781,26.453L327.062,262.594z"/>
	<path d="M224,351.688c-11.891,0-27.75-4.891-32.859-6.766l-6.172-2.281l-29.719,13.531l5.781-26.453l-3.5-5.547
		C152.297,315.844,144,298.609,144,287.875c0-22.375,14.578-42.016,36.5-53.406c-1.75-5.188-3.062-10.531-3.781-16.016
		C147.656,232.156,128,258.094,128,287.875c0,19.5,16,44.844,16,44.844L132.781,384l52.812-24.062c0,0,20.922,7.766,38.406,7.766
		c48.422,0,88.375-30.266,94.938-68.734c-5,1.344-10.953,2.641-17.266,3.547C293.312,330.641,261.781,351.688,224,351.688z"/>
</g>
</svg>
