<?xml version="1.0" encoding="utf-8"?>
<!-- Generator: Adobe Illustrator 16.2.1, SVG Export Plug-In . SVG Version: 6.00 Build 0)  -->
<!DOCTYPE svg PUBLIC "-//W3C//DTD SVG 1.1//EN" "http://www.w3.org/Graphics/SVG/1.1/DTD/svg11.dtd">
<svg version="1.1" id="Layer_1" xmlns="http://www.w3.org/2000/svg" xmlns:xlink="http://www.w3.org/1999/xlink" x="0px" y="0px"
	 width="512px" height="512px" viewBox="0 0 512 512" enable-background="new 0 0 512 512" xml:space="preserve">
<g>
	<path d="M256,0C114.609,0,0,114.609,0,256s114.609,256,256,256s256-114.609,256-256S397.391,0,256,0z M256,472
		c-119.297,0-216-96.703-216-216S136.703,40,256,40s216,96.703,216,216S375.297,472,256,472z"/>
	<path fill-rule="evenodd" clip-rule="evenodd" d="M272,352c0,8.844-7.156,16-16,16s-16-7.156-16-16s7.156-16,16-16
		S272,343.156,272,352z"/>
	<path fill-rule="evenodd" clip-rule="evenodd" d="M272,160c0,8.844-7.156,16-16,16s-16-7.156-16-16s7.156-16,16-16
		S272,151.156,272,160z"/>
	<path fill-rule="evenodd" clip-rule="evenodd" d="M368,256c0,8.844-7.156,16-16,16s-16-7.156-16-16s7.156-16,16-16
		S368,247.156,368,256z"/>
	<path fill-rule="evenodd" clip-rule="evenodd" d="M176,256c0,8.844-7.156,16-16,16s-16-7.156-16-16s7.156-16,16-16
		S176,247.156,176,256z"/>
	<g>
		<path fill-rule="evenodd" clip-rule="evenodd" d="M173.062,226.844c8.844-25.062,28.719-44.938,53.781-53.781
			c-1.797-4-2.844-8.391-2.844-13.062c0-1.031,0.219-2.016,0.312-3.031c-31.891,10.25-57.094,35.453-67.344,67.344
			c1.016-0.094,2-0.312,3.031-0.312C164.672,224,169.062,225.047,173.062,226.844z"/>
		<path fill-rule="evenodd" clip-rule="evenodd" d="M226.844,338.938c-25.062-8.859-44.938-28.703-53.781-53.781
			c-4,1.797-8.391,2.844-13.062,2.844c-1.031,0-2.016-0.203-3.031-0.297c10.25,31.875,35.453,57.094,67.344,67.312
			c-0.094-1-0.312-1.984-0.312-3.016C224,347.328,225.047,342.922,226.844,338.938z"/>
		<path fill-rule="evenodd" clip-rule="evenodd" d="M285.156,173.062c25.078,8.844,44.922,28.719,53.781,53.781
			C342.922,225.047,347.328,224,352,224c1.031,0,2.016,0.219,3.016,0.312c-10.219-31.891-35.438-57.094-67.312-67.344
			c0.094,1.016,0.297,2,0.297,3.031C288,164.672,286.953,169.062,285.156,173.062z"/>
		<path fill-rule="evenodd" clip-rule="evenodd" d="M338.922,285.156c-8.844,25.062-28.703,44.922-53.766,53.766
			c1.797,4,2.844,8.406,2.844,13.078c0,1.031-0.203,2.016-0.297,3.016c31.875-10.219,57.094-35.438,67.312-67.312
			c-1,0.094-1.984,0.297-3.016,0.297C347.328,288,342.922,286.953,338.922,285.156z"/>
	</g>
</g>
</svg>
