<?xml version="1.0" encoding="utf-8"?>
<!-- Generator: Adobe Illustrator 16.2.1, SVG Export Plug-In . SVG Version: 6.00 Build 0)  -->
<!DOCTYPE svg PUBLIC "-//W3C//DTD SVG 1.1//EN" "http://www.w3.org/Graphics/SVG/1.1/DTD/svg11.dtd">
<svg version="1.1" id="Layer_1" xmlns="http://www.w3.org/2000/svg" xmlns:xlink="http://www.w3.org/1999/xlink" x="0px" y="0px"
	 width="512px" height="512px" viewBox="0 0 512 512" enable-background="new 0 0 512 512" xml:space="preserve">
<path d="M256,0C114.609,0,0,114.609,0,256s114.609,256,256,256s256-114.609,256-256S397.391,0,256,0z M256,472
	c-119.297,0-216-96.703-216-216S136.703,40,256,40s216,96.703,216,216S375.297,472,256,472z"/>
<g>
	<path fill-rule="evenodd" clip-rule="evenodd" d="M304,304c0,44.188-35.812,80-80,80s-80-35.812-80-80s64-128,80-176
		C240,176,304,259.812,304,304z"/>
	<path fill-rule="evenodd" clip-rule="evenodd" d="M368,194c0,16.562-14.344,30-32,30s-32-13.438-32-30s25.594-48,32-66
		C342.406,146,368,177.438,368,194z"/>
</g>
</svg>
