<?xml version="1.0" encoding="utf-8"?>
<!-- Generator: Adobe Illustrator 16.2.1, SVG Export Plug-In . SVG Version: 6.00 Build 0)  -->
<!DOCTYPE svg PUBLIC "-//W3C//DTD SVG 1.1//EN" "http://www.w3.org/Graphics/SVG/1.1/DTD/svg11.dtd">
<svg version="1.1" id="Layer_1" xmlns="http://www.w3.org/2000/svg" xmlns:xlink="http://www.w3.org/1999/xlink" x="0px" y="0px"
	 width="512px" height="512px" viewBox="0 0 512 512" enable-background="new 0 0 512 512" xml:space="preserve">
<g>
	<path d="M256,0C114.609,0,0,114.609,0,256s114.609,256,256,256s256-114.609,256-256S397.391,0,256,0z M256,472
		c-119.297,0-216-96.703-216-216S136.703,40,256,40s216,96.703,216,216S375.297,472,256,472z"/>
	<g>
		<path d="M368,234.375v74.438l-54.5-59.422l16.719-11.312c-5.984-1.531-11.641-3.922-16.688-7.203L256,271.75L166.281,208H256
			h37.625c-2.391-16-4-16-4.812-16H256H128v160h128h128V223.062C379.422,227.75,373.969,231.531,368,234.375z M144,212.531
			l54.5,36.859L144,308.812V212.531z M256,336h-92.406l45.562-79.422L256,288.25l46.844-31.656L348.406,336H256z"/>
	</g>
	<g>
		<path d="M344,144c-22.094,0-40,17.906-40,40s17.906,40,40,40s40-17.906,40-40S366.094,144,344,144z M368,192h-16v16h-16v-16h-16
			v-16h16v-16h16v16h16V192z"/>
	</g>
</g>
</svg>
