<?xml version="1.0" encoding="utf-8"?>
<!-- Generator: Adobe Illustrator 16.2.1, SVG Export Plug-In . SVG Version: 6.00 Build 0)  -->
<!DOCTYPE svg PUBLIC "-//W3C//DTD SVG 1.1//EN" "http://www.w3.org/Graphics/SVG/1.1/DTD/svg11.dtd">
<svg version="1.1" id="Layer_1" xmlns="http://www.w3.org/2000/svg" xmlns:xlink="http://www.w3.org/1999/xlink" x="0px" y="0px"
	 width="512px" height="512px" viewBox="0 0 512 512" enable-background="new 0 0 512 512" xml:space="preserve">
<path d="M256,0C114.609,0,0,114.609,0,256s114.609,256,256,256s256-114.609,256-256S397.391,0,256,0z M256,472
	c-119.297,0-216-96.703-216-216S136.703,40,256,40s216,96.703,216,216S375.297,472,256,472z"/>
<path d="M352,128c-17.625,0-32,14.344-32,32c0,11.938,6.641,22.25,16.375,27.75L306,288.188c-0.656-0.047-1.312-0.188-2-0.188
	c-5.391,0-10.406,1.469-14.875,3.859l-35.781-39.172C255.031,248.781,256,244.5,256,240c0-17.656-14.344-32-32-32s-32,14.344-32,32
	c0,8.672,3.5,16.516,9.109,22.281l-33.859,58.609C164.906,320.375,162.5,320,160,320c-17.656,0-32,14.375-32,32s14.344,32,32,32
	s32-14.375,32-32c0-9.375-4.125-17.75-10.594-23.625l33.438-57.875c2.906,0.875,5.969,1.5,9.156,1.5
	c7.266,0,13.891-2.531,19.266-6.625l33.953,37.203C273.938,307.609,272,313.562,272,320c0,17.625,14.359,32,32,32
	c17.625,0,32-14.375,32-32c0-11.312-5.906-21.188-14.781-26.875l30.562-101.156c0.078,0,0.125,0.031,0.219,0.031
	c17.625,0,32-14.344,32-32S369.625,128,352,128z M160,368c-8.844,0-16-7.141-16-16s7.156-16,16-16s16,7.141,16,16
	S168.844,368,160,368z M224,256c-8.844,0-16-7.156-16-16s7.156-16,16-16s16,7.156,16,16S232.844,256,224,256z M304,336
	c-8.859,0-16-7.141-16-16s7.141-16,16-16s16,7.141,16,16S312.859,336,304,336z M352,176c-8.859,0-16-7.156-16-16s7.141-16,16-16
	s16,7.156,16,16S360.859,176,352,176z"/>
</svg>
