<?xml version="1.0" encoding="utf-8"?>
<!-- Generator: Adobe Illustrator 16.2.1, SVG Export Plug-In . SVG Version: 6.00 Build 0)  -->
<!DOCTYPE svg PUBLIC "-//W3C//DTD SVG 1.1//EN" "http://www.w3.org/Graphics/SVG/1.1/DTD/svg11.dtd">
<svg version="1.1" id="Layer_1" xmlns="http://www.w3.org/2000/svg" xmlns:xlink="http://www.w3.org/1999/xlink" x="0px" y="0px"
	 width="512px" height="512px" viewBox="0 0 512 512" enable-background="new 0 0 512 512" xml:space="preserve">
<path d="M256,0C114.609,0,0,114.609,0,256c0,141.391,114.609,256,256,256c141.391,0,256-114.609,256-256
	C512,114.609,397.391,0,256,0z M256,472c-119.297,0-216-96.703-216-216S136.703,40,256,40s216,96.703,216,216S375.297,472,256,472z"
	/>
<g>
	<path d="M364.422,182.844l-24.844-49.688C337.609,129.219,332.406,126,328,126H184c-4.398,0-9.609,3.219-11.578,7.156
		l-24.844,49.688C145.609,186.781,144,193.594,144,198v32c0,4.406,3.602,8,8,8h208c4.406,0,8-3.594,8-8v-32
		C368,193.594,366.391,186.781,364.422,182.844z M168,222c-4.398,0-8-3.594-8-8s3.602-8,8-8s8,3.594,8,8S172.398,222,168,222z
		 M200,222c-4.398,0-8-3.594-8-8s3.602-8,8-8s8,3.594,8,8S204.398,222,200,222z M232,222c-4.398,0-8-3.594-8-8s3.602-8,8-8
		s8,3.594,8,8S236.398,222,232,222z M344,222c-4.406,0-8-3.594-8-8s3.594-8,8-8s8,3.594,8,8S348.406,222,344,222z"/>
	<path d="M360,254H152c-4.398,0-8,3.594-8,8v32c0,4.406,3.602,8,8,8h64c4.398,0,11.602,0,16,0c2.203,0,5.102,0,8,0v48h-64v32h64h32
		h64v-32h-64v-48c2.906,0,5.797,0,8,0c4.406,0,11.594,0,16,0h64c4.406,0,8-3.594,8-8v-32C368,257.594,364.406,254,360,254z M168,286
		c-4.398,0-8-3.594-8-8s3.602-8,8-8s8,3.594,8,8S172.398,286,168,286z M200,286c-4.398,0-8-3.594-8-8s3.602-8,8-8s8,3.594,8,8
		S204.398,286,200,286z M232,286c-4.398,0-8-3.594-8-8s3.602-8,8-8s8,3.594,8,8S236.398,286,232,286z M344,286c-4.406,0-8-3.594-8-8
		s3.594-8,8-8s8,3.594,8,8S348.406,286,344,286z"/>
	<rect x="144" y="350" width="16" height="32"/>
	<rect x="352" y="350" width="16" height="32"/>
</g>
</svg>
