<?xml version="1.0" encoding="utf-8"?>
<!-- Generator: Adobe Illustrator 16.2.1, SVG Export Plug-In . SVG Version: 6.00 Build 0)  -->
<!DOCTYPE svg PUBLIC "-//W3C//DTD SVG 1.1//EN" "http://www.w3.org/Graphics/SVG/1.1/DTD/svg11.dtd">
<svg version="1.1" id="Layer_1" xmlns="http://www.w3.org/2000/svg" xmlns:xlink="http://www.w3.org/1999/xlink" x="0px" y="0px"
	 width="512px" height="512px" viewBox="0 0 512 512" enable-background="new 0 0 512 512" xml:space="preserve">
<g>
	<g>
		<g>
			<path d="M344,288c4.781,0,9.328,0.781,13.766,1.922C373.062,269.562,384,245.719,384,218.625C384,177.422,351.25,144,310.75,144
				c-21.875,0-41.375,10.078-54.75,25.766C242.5,154.078,223,144,201.125,144C160.75,144,128,177.422,128,218.625
				C128,312,256,368,256,368s14-6.203,32.641-17.688C288.406,348.203,288,346.156,288,344C288,313.125,313.125,288,344,288z"/>
			<path d="M256,0C114.609,0,0,114.609,0,256s114.609,256,256,256s256-114.609,256-256S397.391,0,256,0z M256,472
				c-119.297,0-216-96.703-216-216S136.703,40,256,40s216,96.703,216,216S375.297,472,256,472z"/>
		</g>
	</g>
	<path d="M384,344c0-22.094-17.938-40-40-40s-40,17.906-40,40c0,22.062,17.938,40,40,40S384,366.062,384,344z M314,344
		c0-16.547,13.469-30,30-30c6.438,0,12.469,2.094,17.375,5.562l-41.781,41.812C316.078,356.469,314,350.438,314,344z
		 M326.625,368.406l41.781-41.766C371.938,331.547,374,337.562,374,344c0,16.531-13.469,30-30,30
		C337.562,374,331.531,371.938,326.625,368.406z"/>
</g>
</svg>
