<?xml version="1.0" encoding="utf-8"?>
<!-- Generator: Adobe Illustrator 16.2.1, SVG Export Plug-In . SVG Version: 6.00 Build 0)  -->
<!DOCTYPE svg PUBLIC "-//W3C//DTD SVG 1.1//EN" "http://www.w3.org/Graphics/SVG/1.1/DTD/svg11.dtd">
<svg version="1.1" id="Layer_1" xmlns="http://www.w3.org/2000/svg" xmlns:xlink="http://www.w3.org/1999/xlink" x="0px" y="0px"
	 width="512px" height="512px" viewBox="0 0 512 512" enable-background="new 0 0 512 512" xml:space="preserve">
<g>
	<path d="M199.5,318.466c-16-4.635-7.93-7.499-18.514-7.499c-25.814,0-41.969,16.406-41.969,36.634
		c0,20.242,12.41,36.649,38.227,36.649c25.831,0,38.256-16.407,38.256-36.649V237.667l112-54.951v117.417
		c-16-4.634-6.475-7.483-17.057-7.483c-25.801,0-41.25,16.407-41.25,36.634c0,20.243,11.33,36.649,37.146,36.649
		c25.831,0,37.16-16.406,37.16-36.649V127.75l-144,73.284V318.466z"/>
	<path d="M256-0.5C114.349-0.5-0.5,114.333-0.5,256S114.349,512.5,256,512.5c141.683,0,256.5-114.833,256.5-256.5
		S397.683-0.5,256-0.5z M256,472.422C136.485,472.422,39.578,375.53,39.578,256c0-119.53,96.907-216.422,216.422-216.422
		c119.546,0,216.422,96.892,216.422,216.422C472.422,375.53,375.546,472.422,256,472.422z"/>
</g>
</svg>
