<?xml version="1.0" encoding="utf-8"?>
<!-- Generator: Adobe Illustrator 16.2.1, SVG Export Plug-In . SVG Version: 6.00 Build 0)  -->
<!DOCTYPE svg PUBLIC "-//W3C//DTD SVG 1.1//EN" "http://www.w3.org/Graphics/SVG/1.1/DTD/svg11.dtd">
<svg version="1.1" id="Layer_1" xmlns="http://www.w3.org/2000/svg" xmlns:xlink="http://www.w3.org/1999/xlink" x="0px" y="0px"
	 width="512px" height="512px" viewBox="0 0 512 512" enable-background="new 0 0 512 512" xml:space="preserve">
<g>
	<path d="M256,0C114.609,0,0,114.609,0,256s114.609,256,256,256s256-114.609,256-256S397.391,0,256,0z M256,472
		c-119.297,0-216-96.703-216-216S136.703,40,256,40s216,96.703,216,216S375.297,472,256,472z"/>
	<path d="M255.984,128c-26.516,0-46.453,11.344-59.922,33.891C182.688,184.516,176,215.25,176,254.016
		c0,42.938,6.688,75.25,20.062,97.188C209.531,373.016,229.469,384,255.984,384c26.531,0,46.562-10.984,59.922-32.797
		C329.297,329.266,336,296.953,336,254.016C336,170,309.266,128,255.984,128z M292.219,330.719
		c-7.453,16.484-19.609,24.578-36.234,24.578c-16.688,0-28.703-8.094-36.266-24.578c-7.516-16.484-11.219-42.016-11.219-76.703
		c0-34.391,3.703-59.156,11.219-74.484c7.562-15.266,19.578-22.906,36.266-22.906c16.625,0,28.781,7.641,36.234,22.906
		c7.547,15.328,11.281,40.094,11.281,74.484C303.5,288.703,299.766,314.234,292.219,330.719z"/>
</g>
</svg>
