<?xml version="1.0" encoding="utf-8"?>
<!-- Generator: Adobe Illustrator 16.2.1, SVG Export Plug-In . SVG Version: 6.00 Build 0)  -->
<!DOCTYPE svg PUBLIC "-//W3C//DTD SVG 1.1//EN" "http://www.w3.org/Graphics/SVG/1.1/DTD/svg11.dtd">
<svg version="1.1" id="Layer_1" xmlns="http://www.w3.org/2000/svg" xmlns:xlink="http://www.w3.org/1999/xlink" x="0px" y="0px"
	 width="512px" height="512px" viewBox="0 0 512 512" enable-background="new 0 0 512 512" xml:space="preserve">
<path d="M256,0C114.609,0,0,114.609,0,256s114.609,256,256,256s256-114.609,256-256S397.391,0,256,0z M256,472
	c-119.297,0-216-96.703-216-216S136.703,40,256,40s216,96.703,216,216S375.297,472,256,472z"/>
<g>
	<path d="M210.188,384c5.156-43.219,15.688-83.281,31.562-120.266c15.844-37.016,36.953-72.328,63.391-105.828v-0.438H176V128h160
		v29.469c-13.047,17.516-24.922,35.875-35.562,55.031c-10.75,19.219-20.156,38.5-28.156,58c-7.984,19.484-14.5,38.953-19.531,58.234
		c-5.047,19.281-8.344,37.75-10,55.266H210.188z"/>
</g>
</svg>
