<?xml version="1.0" encoding="utf-8"?>
<!-- Generator: Adobe Illustrator 16.2.1, SVG Export Plug-In . SVG Version: 6.00 Build 0)  -->
<!DOCTYPE svg PUBLIC "-//W3C//DTD SVG 1.1//EN" "http://www.w3.org/Graphics/SVG/1.1/DTD/svg11.dtd">
<svg version="1.1" id="Layer_1" xmlns="http://www.w3.org/2000/svg" xmlns:xlink="http://www.w3.org/1999/xlink" x="0px" y="0px"
	 width="512px" height="512px" viewBox="0 0 512 512" enable-background="new 0 0 512 512" xml:space="preserve">
<path d="M256,0C114.609,0,0,114.609,0,256s114.609,256,256,256s256-114.609,256-256S397.391,0,256,0z M256,472
	c-119.297,0-216-96.703-216-216S136.703,40,256,40s216,96.703,216,216S375.297,472,256,472z"/>
<path d="M149.651,280.892c-15.734,15.734-26.062,37.047-19.781,56.891c0.781,2.469,22.594-5.531,22.594-5.531l10.547-24
	l29.297-5.625l8.531,8.547l8.531,8.531l-5.641,29.281l-23.984,10.547c0,0-8,21.812-5.531,22.609
	c19.844,6.266,41.156-4.062,56.891-19.812c17.344-17.328,21.203-42.891,11.891-64.062l134.172-122.516l6.828-20.469l-13.656-13.641
	l-13.641-13.641l-20.469,6.812L213.714,269.001C192.558,259.688,166.995,263.563,149.651,280.892z"/>
</svg>
