<?xml version="1.0" encoding="utf-8"?>
<!-- Generator: Adobe Illustrator 16.2.1, SVG Export Plug-In . SVG Version: 6.00 Build 0)  -->
<!DOCTYPE svg PUBLIC "-//W3C//DTD SVG 1.1//EN" "http://www.w3.org/Graphics/SVG/1.1/DTD/svg11.dtd">
<svg version="1.1" id="Layer_1" xmlns="http://www.w3.org/2000/svg" xmlns:xlink="http://www.w3.org/1999/xlink" x="0px" y="0px"
	 width="512px" height="512px" viewBox="0 0 512 512" enable-background="new 0 0 512 512" xml:space="preserve">
<path d="M256,0C114.609,0,0,114.609,0,256s114.609,256,256,256s256-114.609,256-256S397.391,0,256,0z M256,472
	c-119.297,0-216-96.703-216-216S136.703,40,256,40s216,96.703,216,216S375.297,472,256,472z"/>
<g>
	<path d="M152.312,242.875c17.797,14.688,42.258,16.219,61.484,5.828l4.227,3.828l18.062-14.906
		c-1.367-3.688-1.914-7.656-1.547-11.688c0.516-5.719,2.859-10.969,6.602-15.234c3.102-18.172-3.266-37.375-18.641-50.062
		c-16.188-13.344-37.164-21.203-55.352-13.766c-2.273,0.938,7.055,20.531,7.055,20.531l23.57,7.875L205.508,202l-7.359,8.625
		l-7.344,8.609l-28.141-2.844l-11.953-21.422c0,0-21.266-5.656-21.805-3.328C124.602,210.594,136.125,229.531,152.312,242.875z"/>
	<path d="M375.875,322l-68.125-51.203c-1.406,2-2.969,3.859-4.938,5.484c-4.844,4.031-11.172,6.297-17.656,6.297
		c-4.891,0-9.609-1.266-13.75-3.594l-12.602,10.406l81.805,73.953L360.484,368l11.781-13.781L384,340.438L375.875,322z"/>
	<path d="M278.047,261.312c3.297,3.875,9.156,4.391,13.078,1.125c3.891-3.188,4.406-8.875,1.234-12.75l70.375-57.672
		c7.672-6.328,8.672-17.578,2.234-25.125c-6.453-7.547-17.922-8.531-25.562-2.203L269,222.375c-3.297-3.781-9.07-4.266-12.961-1.031
		c-3.93,3.219-4.438,9.016-1.133,12.859l5.703,6.672l-97.93,80.781l-13.031,3.953l-15,19.156l11.75,13.766l21.555-10.594
		l6.586-12.406l97.836-80.859L278.047,261.312z"/>
</g>
</svg>
