<?xml version="1.0" encoding="utf-8"?>
<!-- Generator: Adobe Illustrator 16.2.1, SVG Export Plug-In . SVG Version: 6.00 Build 0)  -->
<!DOCTYPE svg PUBLIC "-//W3C//DTD SVG 1.1//EN" "http://www.w3.org/Graphics/SVG/1.1/DTD/svg11.dtd">
<svg version="1.1" id="Layer_1" xmlns="http://www.w3.org/2000/svg" xmlns:xlink="http://www.w3.org/1999/xlink" x="0px" y="0px"
	 width="512px" height="512px" viewBox="0 0 512 512" enable-background="new 0 0 512 512" xml:space="preserve">
<path d="M256,0C114.609,0,0,114.609,0,256s114.609,256,256,256s256-114.609,256-256S397.391,0,256,0z M256,472
	c-119.297,0-216-96.703-216-216S136.703,40,256,40s216,96.703,216,216S375.297,472,256,472z"/>
<g>
	<path d="M239.078,185.492L209.25,160C172.219,187.18,144,235.609,144,287.438C144,329.047,167.344,352,193.969,352
		c24.172,0,43.5-20.375,43.5-45.922c0-24.625-16.891-43.281-39.469-43.281c-4.031,0-9.656,1.688-10.5,1.688
		C190.75,237.312,213.281,203.344,239.078,185.492z"/>
	<path d="M326.938,262.797c-3.234,0-8.922,1.688-10.5,1.688c3.203-27.172,25.781-61.141,51.562-78.992L338.188,160
		c-37.031,27.18-65.234,75.609-65.234,127.438c0,41.609,23.328,64.562,49.953,64.562c24.141,0,43.469-20.375,43.469-45.922
		C366.375,281.453,349.516,262.797,326.938,262.797z"/>
</g>
</svg>
