<?xml version="1.0" encoding="utf-8"?>
<!-- Generator: Adobe Illustrator 16.2.1, SVG Export Plug-In . SVG Version: 6.00 Build 0)  -->
<!DOCTYPE svg PUBLIC "-//W3C//DTD SVG 1.1//EN" "http://www.w3.org/Graphics/SVG/1.1/DTD/svg11.dtd">
<svg version="1.1" id="Layer_1" xmlns="http://www.w3.org/2000/svg" xmlns:xlink="http://www.w3.org/1999/xlink" x="0px" y="0px"
	 width="512px" height="512px" viewBox="0 0 512 512" enable-background="new 0 0 512 512" xml:space="preserve">
<path d="M256-2C114.609-2,0,112.609,0,254s114.609,256,256,256s256-114.609,256-256S397.391-2,256-2z M256,470
	c-119.297,0-216-96.703-216-216S136.703,38,256,38s216,96.703,216,216S375.297,470,256,470z"/>
<path d="M349.328,142H162.664C152.359,142,144,150.359,144,160.656v122.672c0,10.312,8.359,18.672,18.664,18.672H176v64l37.336-64
	h135.992c10.312,0,18.672-8.359,18.672-18.672V160.656C368,150.359,359.641,142,349.328,142z M336,270h-96v-16h96V270z M336,222H176
	v-16h160V222z M336,190H176v-16h160V190z"/>
</svg>
