<?xml version="1.0" encoding="utf-8"?>
<!-- Generator: Adobe Illustrator 16.2.1, SVG Export Plug-In . SVG Version: 6.00 Build 0)  -->
<!DOCTYPE svg PUBLIC "-//W3C//DTD SVG 1.1//EN" "http://www.w3.org/Graphics/SVG/1.1/DTD/svg11.dtd">
<svg version="1.1" id="Layer_1" xmlns="http://www.w3.org/2000/svg" xmlns:xlink="http://www.w3.org/1999/xlink" x="0px" y="0px"
	 width="512px" height="512px" viewBox="0 0 512 512" enable-background="new 0 0 512 512" xml:space="preserve">
<path d="M256,0C114.609,0,0,114.609,0,256s114.609,256,256,256s256-114.609,256-256S397.391,0,256,0z M256,472
	c-119.297,0-216-96.703-216-216S136.703,40,256,40s216,96.703,216,216S375.297,472,256,472z"/>
<path d="M357.498,285l-26.094-15.062c0.828-4.531,1.391-9.172,1.391-13.938c0-4.781-0.562-9.438-1.438-13.969l26.109-15.078
	c12.266-7.109,16.438-22.75,9.375-34.953c-7.078-12.25-22.688-16.453-34.938-9.406l-26.359,15.219
	c-7.047-6-15.078-10.719-23.953-13.875v-30.344c0-14.125-11.438-25.594-25.594-25.594c-14.141,0-25.594,11.469-25.594,25.594v30.312
	c-8.875,3.156-16.906,7.891-23.969,13.891l-26.281-15.172c-12.25-7.078-27.938-2.891-35,9.359
	c-7.062,12.234-2.859,27.891,9.391,34.953l26.047,15.047c-0.844,4.547-1.406,9.219-1.406,14.016c0,4.766,0.562,9.406,1.406,13.953
	L154.529,285c-12.266,7.062-16.469,22.75-9.375,35c7.031,12.203,22.703,16.406,34.969,9.344l26.281-15.172
	c7.031,6,15.094,10.766,24,13.922v30.312c0,14.141,11.453,25.594,25.594,25.594c14.157,0,25.594-11.453,25.594-25.594v-30.344
	c8.906-3.156,16.953-7.891,23.969-13.906l26.344,15.188c12.25,7.062,27.891,2.859,34.938-9.344
	C373.936,307.75,369.748,292.094,357.498,285z M230.404,256c0-14.125,11.438-25.594,25.594-25.594
	c14.125,0,25.594,11.469,25.594,25.594s-11.469,25.594-25.594,25.594C241.841,281.594,230.404,270.125,230.404,256z"/>
</svg>
