<?xml version="1.0" encoding="utf-8"?>
<!-- Generator: Adobe Illustrator 16.2.1, SVG Export Plug-In . SVG Version: 6.00 Build 0)  -->
<!DOCTYPE svg PUBLIC "-//W3C//DTD SVG 1.1//EN" "http://www.w3.org/Graphics/SVG/1.1/DTD/svg11.dtd">
<svg version="1.1" id="Layer_1" xmlns="http://www.w3.org/2000/svg" xmlns:xlink="http://www.w3.org/1999/xlink" x="0px" y="0px"
	 width="512px" height="512px" viewBox="0 0 512 512" enable-background="new 0 0 512 512" xml:space="preserve">
<path d="M256,0C114.609,0,0,114.609,0,256s114.609,256,256,256s256-114.609,256-256S397.391,0,256,0z M256,472
	c-119.297,0-216-96.703-216-216S136.703,40,256,40s216,96.703,216,216S375.297,472,256,472z"/>
<g>
	<path fill-rule="evenodd" clip-rule="evenodd" d="M256,187.078c-38,0-68.922,30.922-68.922,68.922S218,324.922,256,324.922
		S324.922,294,324.922,256S294,187.078,256,187.078z M256,305.234c-27.188,0-49.234-22.047-49.234-49.234
		s22.047-49.234,49.234-49.234s49.234,22.047,49.234,49.234S283.188,305.234,256,305.234z"/>
	<g>
		<path fill-rule="evenodd" clip-rule="evenodd" d="M256,128c-5.438,0-9.844,4.406-9.844,9.844v19.688
			c0,5.438,4.406,9.844,9.844,9.844s9.844-4.406,9.844-9.844v-19.688C265.844,132.406,261.438,128,256,128z"/>
		<path fill-rule="evenodd" clip-rule="evenodd" d="M256,344.609c-5.438,0-9.844,4.422-9.844,9.859v19.688
			c0,5.438,4.406,9.844,9.844,9.844s9.844-4.406,9.844-9.844v-19.688C265.844,349.031,261.438,344.609,256,344.609z"/>
	</g>
	<g>
		<path fill-rule="evenodd" clip-rule="evenodd" d="M346.5,165.484c-3.844-3.844-10.078-3.844-13.922,0l-13.922,13.922
			c-3.844,3.844-3.844,10.078,0,13.938c3.844,3.844,10.078,3.844,13.922,0l13.922-13.938
			C350.344,175.562,350.344,169.344,346.5,165.484z"/>
		<path fill-rule="evenodd" clip-rule="evenodd" d="M193.344,318.672c-3.844-3.844-10.078-3.859-13.922,0L165.5,332.594
			c-3.844,3.844-3.844,10.078,0,13.922s10.078,3.844,13.922,0l13.922-13.922C197.188,328.734,197.188,322.516,193.344,318.672z"/>
	</g>
	<g>
		<path fill-rule="evenodd" clip-rule="evenodd" d="M128,256c0,5.438,4.406,9.844,9.844,9.844h19.688
			c5.438,0,9.844-4.406,9.844-9.844s-4.406-9.844-9.844-9.844h-19.688C132.406,246.156,128,250.562,128,256z"/>
		<path fill-rule="evenodd" clip-rule="evenodd" d="M344.609,256c0,5.438,4.422,9.844,9.859,9.844h19.688
			c5.438,0,9.844-4.406,9.844-9.844s-4.406-9.844-9.844-9.844h-19.688C349.031,246.156,344.609,250.562,344.609,256z"/>
	</g>
	<g>
		<path fill-rule="evenodd" clip-rule="evenodd" d="M165.484,165.484c-3.844,3.859-3.844,10.078,0,13.922l13.922,13.938
			c3.844,3.844,10.078,3.844,13.938,0c3.844-3.859,3.844-10.094,0-13.938l-13.938-13.922
			C175.562,161.641,169.344,161.641,165.484,165.484z"/>
		<path fill-rule="evenodd" clip-rule="evenodd" d="M318.672,318.656c-3.844,3.844-3.859,10.078,0,13.922l13.922,13.922
			c3.844,3.844,10.078,3.844,13.922,0s3.844-10.078,0-13.922l-13.922-13.922C328.734,314.812,322.516,314.812,318.672,318.656z"/>
	</g>
</g>
</svg>
