<?xml version="1.0" encoding="utf-8"?>
<!-- Generator: Adobe Illustrator 16.2.1, SVG Export Plug-In . SVG Version: 6.00 Build 0)  -->
<!DOCTYPE svg PUBLIC "-//W3C//DTD SVG 1.1//EN" "http://www.w3.org/Graphics/SVG/1.1/DTD/svg11.dtd">
<svg version="1.1" id="Layer_1" xmlns="http://www.w3.org/2000/svg" xmlns:xlink="http://www.w3.org/1999/xlink" x="0px" y="0px"
	 width="512px" height="512px" viewBox="0 0 512 512" enable-background="new 0 0 512 512" xml:space="preserve">
<path d="M256,0C114.609,0,0,114.609,0,256s114.609,256,256,256s256-114.609,256-256S397.391,0,256,0z M256,472
	c-119.297,0-216-96.703-216-216S136.703,40,256,40s216,96.703,216,216S375.297,472,256,472z"/>
<path d="M287.266,294.688h-81.672l-14.312,34.578C187.75,337.75,186,344.094,186,348.312c0,3.344,1.531,6.281,4.594,8.797
	c3.047,2.547,9.656,4.172,19.828,4.938V368H144v-5.953c8.812-1.625,14.5-3.719,17.109-6.312
	c5.297-5.172,11.141-15.641,17.578-31.484L252.891,144h5.453l73.422,182.188c5.906,14.625,11.25,24.156,16.094,28.484
	c4.812,4.391,11.531,6.828,20.141,7.375V368h-83.219v-5.953c8.406-0.438,14.062-1.875,17.047-4.375
	c2.922-2.469,4.406-5.484,4.406-9.031c0-4.75-2.062-12.219-6.203-22.453L287.266,294.688z M282.906,282.734l-35.781-88.5
	l-36.703,88.5H282.906z"/>
</svg>
