<svg id="Bold" xmlns="http://www.w3.org/2000/svg" viewBox="0 0 24 24"><title>beach-parasol-water-1</title><path d="M2.483,11.9a1,1,0,0,0,1.279.606L5.175,12a.993.993,0,0,0,.567-.514.473.473,0,0,0,.035-.1l.36-1.572a.249.249,0,0,1,.4-.142l1.275.989a.489.489,0,0,0,.093.056.987.987,0,0,0,.765.037l2.393-.855a.248.248,0,0,1,.191.009.246.246,0,0,1,.128.142l2.257,6.311a.25.25,0,0,1-.019.21.253.253,0,0,1-.172.121,7.606,7.606,0,0,0-5.4,3.327.251.251,0,0,0,.126.355,1.291,1.291,0,0,0,.485.1,2.688,2.688,0,0,0,1.831-1,2.58,2.58,0,0,1,2-1.006,2.506,2.506,0,0,1,2.256,1.415l.012.022a1.175,1.175,0,0,0,.975.573,1.788,1.788,0,0,0,1.374-.759,2.5,2.5,0,0,1,4.286-.08l.012.017c.068.09.681.9,1.268.81a2.472,2.472,0,0,1,1.011.081.247.247,0,0,0,.22-.039.252.252,0,0,0,.1-.2V17a.5.5,0,0,0-.5-.5H15.987a.248.248,0,0,1-.235-.166L13.261,9.37a.25.25,0,0,1,.152-.319l2.4-.857a.994.994,0,0,0,.565-.515.4.4,0,0,0,.035-.1l.36-1.572a.25.25,0,0,1,.4-.142l1.275.989a.538.538,0,0,0,.092.056,1,1,0,0,0,.765.039l1.412-.506a1,1,0,0,0,.605-1.278l-.169-.471a5.551,5.551,0,0,0-4.494-3.577,13.1,13.1,0,0,0-5.935.446.25.25,0,0,1-.3-.156L10.148.663a1,1,0,0,0-1.883.674l.266.741a.251.251,0,0,1-.136.314,13.1,13.1,0,0,0-4.872,3.42,5.549,5.549,0,0,0-1.208,5.613Z"/><path d="M1.417,24c-1.5,0-1.433-.974-1.409-1.159a1,1,0,0,1,1.124-.859c1.674.217,3.183-1.627,3.2-1.645a1.042,1.042,0,0,1,1.638.091,3.461,3.461,0,0,0,2.684,1.538,4.192,4.192,0,0,0,3.027-1.6,1.046,1.046,0,0,1,1.714.161,2.727,2.727,0,0,0,2.336,1.439,3.262,3.262,0,0,0,2.673-1.51,1.043,1.043,0,0,1,1.719-.028c.009.013,1.121,1.726,2.746,1.514a1,1,0,1,1,.265,1.982,4.522,4.522,0,0,1-3.691-1.26.248.248,0,0,0-.333,0,5.028,5.028,0,0,1-3.379,1.3,4.474,4.474,0,0,1-3.19-1.3.249.249,0,0,0-.33-.016,5.682,5.682,0,0,1-3.557,1.321,5.091,5.091,0,0,1-3.428-1.382.248.248,0,0,0-.327-.007A5.6,5.6,0,0,1,1.417,24Z"/></svg>