<svg id="Light" xmlns="http://www.w3.org/2000/svg" viewBox="0 0 24 24"><defs><style>.cls-1{fill:none;stroke:#000;stroke-linecap:round;stroke-linejoin:round;}</style></defs><title>bin-2</title><line class="cls-1" x1="0.5" y1="6.507" x2="23.5" y2="6.507"/><path class="cls-1" d="M20.5,6.5v15a2,2,0,0,1-2,2H5.5a2,2,0,0,1-2-2V6.5"/><path class="cls-1" d="M2.5,6.5v-1a2,2,0,0,1,2-2h15a2,2,0,0,1,2,2v1"/><path class="cls-1" d="M9,3.5a3,3,0,0,1,6,0"/><line class="cls-1" x1="12" y1="10" x2="12" y2="19.5"/><line class="cls-1" x1="16.5" y1="10" x2="16.5" y2="19.5"/><line class="cls-1" x1="7.5" y1="10" x2="7.5" y2="19.5"/></svg>