<svg id="Bold" xmlns="http://www.w3.org/2000/svg" viewBox="0 0 24 24"><title>bomb-grenade</title><path d="M24,4a3.992,3.992,0,0,0-7.858-1h-9.8a1,1,0,0,0-.811.416c-3.312,2.668-6.8,9.6-5.075,16.333a1,1,0,1,0,1.938-.5C.9,13.429,3.954,7.273,6.752,5h9.392A3.992,3.992,0,0,0,24,4ZM20,6a2,2,0,1,1,2-2A2,2,0,0,1,20,6Z"/><path d="M17.9,14.5a.5.5,0,0,0,.5-.56A13,13,0,0,0,15.338,7.2a1.958,1.958,0,0,0-1.519-.7H9.184a1.958,1.958,0,0,0-1.519.7A13,13,0,0,0,4.6,13.94a.5.5,0,0,0,.5.56Z"/><path d="M5.08,16a.5.5,0,0,0-.5.553,12.384,12.384,0,0,0,3.089,6.774A1.956,1.956,0,0,0,9.17,24h4.663a1.96,1.96,0,0,0,1.5-.673,12.384,12.384,0,0,0,3.089-6.774.5.5,0,0,0-.5-.553Z"/></svg>