<svg id="Light" xmlns="http://www.w3.org/2000/svg" viewBox="0 0 24 24"><defs><style>.cls-1{fill:none;stroke:#000;stroke-linecap:round;stroke-linejoin:round;}</style></defs><title>building-modern-1</title><path class="cls-1" d="M6.5,12.434a.5.5,0,0,0-.777-.416l-5,3.334a.5.5,0,0,0-.223.416V23a.5.5,0,0,0,.5.5H6a.5.5,0,0,0,.5-.5Z"/><path class="cls-1" d="M16.5,7.707a.5.5,0,0,0-.146-.353L12.5,3.5,8.646,7.354a.5.5,0,0,0-.146.353V23a.5.5,0,0,0,.5.5h7a.5.5,0,0,0,.5-.5Z"/><line class="cls-1" x1="12.5" y1="3.5" x2="12.5" y2="0.5"/><path class="cls-1" d="M18.5,13.5l2.146-2.146a.5.5,0,0,1,.708,0L23.5,13.5V23a.5.5,0,0,1-.5.5H19a.5.5,0,0,1-.5-.5Z"/><line class="cls-1" x1="18.5" y1="13.5" x2="23.5" y2="13.5"/><line class="cls-1" x1="18.5" y1="15.5" x2="23.5" y2="15.5"/><line class="cls-1" x1="18.5" y1="17.5" x2="23.5" y2="17.5"/><line class="cls-1" x1="18.5" y1="19.5" x2="23.5" y2="19.5"/><line class="cls-1" x1="18.5" y1="21.5" x2="23.5" y2="21.5"/><line class="cls-1" x1="2.5" y1="23.5" x2="2.5" y2="17"/><line class="cls-1" x1="4.5" y1="23.5" x2="4.5" y2="17"/><polyline class="cls-1" points="16.443 7.476 8.624 7.478 16.5 11.5 8.5 15.5 16.5 19.5 8.7 23.4"/></svg>