<svg id="Bold" xmlns="http://www.w3.org/2000/svg" viewBox="0 0 24 24"><title>coffee-machine</title><path d="M19,9.5a.971.971,0,0,0-.846.5.5.5,0,0,1-.434.252H15.4a.5.5,0,0,1-.459-.3.749.749,0,0,0-.687-.45H9.75a.75.75,0,0,0-.75.75v1.5A1.251,1.251,0,0,0,10.25,13h3.5a1.252,1.252,0,0,0,1.2-.893.5.5,0,0,1,.479-.357h2.311a.47.47,0,0,1,.409.241A.974.974,0,0,0,19,12.5h3.5a1.5,1.5,0,0,0,0-3Z"/><path d="M24,20.5A1.5,1.5,0,0,0,22.5,19a.5.5,0,0,1-.5-.5V15a1,1,0,0,0-2,0v3.5a.5.5,0,0,1-.5.5H15.333a.5.5,0,0,1-.369-.836A3.94,3.94,0,0,0,16,15.5V15a.5.5,0,0,0-.5-.5h-7A.5.5,0,0,0,8,15v.5a3.94,3.94,0,0,0,1.036,2.664.5.5,0,0,1-.37.836H4.5a.5.5,0,0,1-.5-.5V6.5A.5.5,0,0,1,4.5,6H7.685a2,2,0,0,1,1.627.838L10.35,8.291a.5.5,0,0,0,.407.209h2.486a.5.5,0,0,0,.406-.209l1.038-1.453A2,2,0,0,1,16.315,6H19.5a.5.5,0,0,1,.5.5V7a1,1,0,0,0,2,0V6.5a.5.5,0,0,1,.5-.5,1,1,0,0,0,1-1V1a1,1,0,0,0-1-1H1.5a1,1,0,0,0-1,1V5a1,1,0,0,0,1,1,.5.5,0,0,1,.5.5v12a.5.5,0,0,1-.5.5A1.5,1.5,0,0,0,0,20.5v2A1.5,1.5,0,0,0,1.5,24h21A1.5,1.5,0,0,0,24,22.5Zm-3.75-18a.75.75,0,1,1-.75.75A.75.75,0,0,1,20.25,2.5Zm-2.5,0a.75.75,0,1,1-.75.75A.75.75,0,0,1,17.75,2.5ZM3.5,3a1,1,0,1,1,1,1A1,1,0,0,1,3.5,3Z"/></svg>