<svg id="Bold" xmlns="http://www.w3.org/2000/svg" viewBox="0 0 24 24"><title>cog</title><path d="M22.5,9.5H20.638a8.955,8.955,0,0,0-.763-1.84l1.317-1.316a1.5,1.5,0,0,0,0-2.122L19.777,2.808a1.5,1.5,0,0,0-2.121,0L16.338,4.125A8.9,8.9,0,0,0,14.5,3.363V1.5A1.5,1.5,0,0,0,13,0H11A1.5,1.5,0,0,0,9.5,1.5V3.363a8.919,8.919,0,0,0-1.84.762L6.343,2.808a1.5,1.5,0,0,0-2.121,0L2.807,4.222a1.5,1.5,0,0,0,0,2.122L4.124,7.661A8.952,8.952,0,0,0,3.362,9.5H1.5A1.5,1.5,0,0,0,0,11v2a1.5,1.5,0,0,0,1.5,1.5H3.362a8.961,8.961,0,0,0,.762,1.84L2.806,17.657a1.5,1.5,0,0,0,0,2.122l1.414,1.414a1.545,1.545,0,0,0,2.122,0L7.66,19.875a8.922,8.922,0,0,0,1.84.764V22.5A1.5,1.5,0,0,0,11,24h2a1.5,1.5,0,0,0,1.5-1.5V20.639a8.988,8.988,0,0,0,1.839-.763l1.318,1.318a1.5,1.5,0,0,0,2.121,0l1.414-1.414a1.5,1.5,0,0,0,0-2.122L19.875,16.34a8.909,8.909,0,0,0,.763-1.84H22.5A1.5,1.5,0,0,0,24,13V11A1.5,1.5,0,0,0,22.5,9.5ZM12,17a5,5,0,1,1,5-5A5.006,5.006,0,0,1,12,17Z"/></svg>