<svg id="Bold" xmlns="http://www.w3.org/2000/svg" viewBox="0 0 24 24"><title>couple-man-woman</title><path d="M14.853.019a2.834,2.834,0,0,0-2.65,1.22.25.25,0,0,1-.406,0A2.831,2.831,0,0,0,9.146.019,3.1,3.1,0,0,0,6.5,3.232c0,2.427,3.423,5.312,4.9,6.439a.98.98,0,0,0,1.207,0c1.473-1.126,4.9-4.012,4.9-6.439A3.1,3.1,0,0,0,14.853.019Z"/><path d="M8.366,18.38a.25.25,0,0,1-.033-.424,4.4,4.4,0,1,0-5.167,0,.25.25,0,0,1-.032.424A5.757,5.757,0,0,0,0,23.5a.5.5,0,0,0,.5.5H11a.5.5,0,0,0,.5-.5A5.757,5.757,0,0,0,8.366,18.38ZM3.474,13.641a.251.251,0,0,1,.372-.131,5.616,5.616,0,0,0,3.037.888,5.7,5.7,0,0,0,.966-.083.249.249,0,0,1,.292.265,2.4,2.4,0,1,1-4.667-.939Z"/><path d="M20.8,18.669a.5.5,0,0,0-.629.21l-1.209,2.1a.25.25,0,0,1-.433,0l-1.208-2.1a.5.5,0,0,0-.629-.21A5.258,5.258,0,0,0,13.5,23.5a.5.5,0,0,0,.5.5h9.5a.5.5,0,0,0,.5-.5A5.258,5.258,0,0,0,20.8,18.669Z"/><path d="M23,14.234a4.25,4.25,0,0,0-8.5,0,3.071,3.071,0,0,1-.7,2.351A1,1,0,1,0,15.2,18.007a3.93,3.93,0,0,0,.417-.487.251.251,0,0,1,.366-.044,4.241,4.241,0,0,0,5.527,0,.254.254,0,0,1,.193-.058.249.249,0,0,1,.173.1,3.854,3.854,0,0,0,.418.487A1,1,0,1,0,23.7,16.585,3.067,3.067,0,0,1,23,14.234ZM18.75,16.5a2.253,2.253,0,0,1-2.231-1.961.249.249,0,0,1,.2-.278,3.483,3.483,0,0,0,.909-.28,2.472,2.472,0,0,0,.916-.741.251.251,0,0,1,.4,0,2.475,2.475,0,0,0,.915.741,3.49,3.49,0,0,0,.91.28.25.25,0,0,1,.2.278A2.253,2.253,0,0,1,18.75,16.5Z"/></svg>