<svg id="Bold" xmlns="http://www.w3.org/2000/svg" viewBox="0 0 24 24"><title>dating-rose</title><path d="M14.916,13.115a.25.25,0,0,0,.333.347,6.167,6.167,0,0,0,3.422-5.428V3.481C18.671,1.494,15.8,0,12,0S5.329,1.494,5.329,3.481V8.034A6.348,6.348,0,0,0,10.6,14.112a.5.5,0,0,1,.4.489V23a1,1,0,0,0,2,0V22a.5.5,0,0,1,.5-.5h1a4,4,0,0,0,4-4V16a.5.5,0,0,0-.5-.5H16.5a3.992,3.992,0,0,0-3.059,1.423A.25.25,0,0,1,13,16.762V13.576a1,1,0,0,1,.219-.624A5.069,5.069,0,0,0,14.25,9.5a4.745,4.745,0,0,0-1.974-3.851,1,1,0,0,0-.562-.189c-2.992-.068-4.885-1.2-4.885-1.979C6.829,2.672,8.843,1.5,12,1.5c.747,0,1.527-.027,1.527.732a.73.73,0,0,1-.729.729H11.74a.8.8,0,0,1-.573-.237.75.75,0,0,0-1.06,1.062,2.3,2.3,0,0,0,1.633.675H12.8a2.232,2.232,0,0,0,2.229-2.2.251.251,0,0,1,.335-.233c1.152.414,1.809,1,1.809,1.457,0,.566-.988,1.311-2.664,1.707a.251.251,0,0,0-.137.4A6.219,6.219,0,0,1,15.75,9.5,6.6,6.6,0,0,1,14.916,13.115Z"/></svg>