<svg id="Bold" xmlns="http://www.w3.org/2000/svg" viewBox="0 0 24 24"><title>design-tool-pen-station</title><path d="M21.458,16.5a4,4,0,0,0-4-4h-.5V12a1,1,0,0,0-1-1h-12a1,1,0,0,0-1,1v9.5a2.5,2.5,0,0,0,2.5,2.5h9a2.5,2.5,0,0,0,2.5-2.5v-1h.5A4,4,0,0,0,21.458,16.5Zm-4,2h-.25a.249.249,0,0,1-.25-.25v-3.5a.25.25,0,0,1,.25-.25h.25a2,2,0,0,1,0,4Z"/><path d="M5.649,2.865a.25.25,0,0,0,.016-.43L3.3.905a.5.5,0,0,0-.75.511l.422,2.53a.25.25,0,0,0,.137.184.253.253,0,0,0,.229,0Z"/><path d="M3.646,5.094a.25.25,0,0,0-.1.335l2.22,4.3a.5.5,0,0,0,.444.27h3a.5.5,0,0,0,.439-.741l-3.026-5.5a.25.25,0,0,0-.339-.1Z"/><path d="M13.538,7.293l-.006,0a3.528,3.528,0,0,1-.636-.349.252.252,0,0,0-.361.084L11.293,9.257A.5.5,0,0,0,11.73,10h1.832a.5.5,0,0,0,.468-.323L14.7,7.893a.25.25,0,0,0-.2-.337,3.526,3.526,0,0,1-.68-.156C13.727,7.369,13.633,7.333,13.538,7.293Z"/><path d="M17.017,2.815a3.68,3.68,0,0,0-2.811-2.8.5.5,0,0,0-.535.761c.529.806.21,1.282-.353,1.994a3.643,3.643,0,0,0-.542.819,2.038,2.038,0,0,0,1.151,2.784,2.046,2.046,0,0,0,2.245-.258A3.363,3.363,0,0,0,17.017,2.815Z"/></svg>