<svg id="Bold" xmlns="http://www.w3.org/2000/svg" viewBox="0 0 24 24"><title>diet-waist-1</title><path d="M12.833,19.7a.249.249,0,0,0-.083.186V23.5h6.89a.5.5,0,0,0,.49-.4l.709-3.59,0-.019a19.725,19.725,0,0,0,.127-3.544.248.248,0,0,0-.1-.188.251.251,0,0,0-.211-.039A18.742,18.742,0,0,0,12.833,19.7Z"/><path d="M3.243,14.205a.249.249,0,0,0,.053.205.251.251,0,0,0,.193.09H20.512a.25.25,0,0,0,.246-.295A11.047,11.047,0,0,0,19.19,10.15,9.775,9.775,0,0,1,17.73,3.1l.39-2a.526.526,0,0,0-.1-.42A.532.532,0,0,0,17.63.5H6.37a.532.532,0,0,0-.39.18.526.526,0,0,0-.1.42l.39,2a9.775,9.775,0,0,1-1.46,7.05A11.063,11.063,0,0,0,3.243,14.205ZM12,9.75a.75.75,0,1,1-.75.75A.755.755,0,0,1,12,9.75Z"/><path d="M3.346,15.721a.248.248,0,0,0-.211.039.245.245,0,0,0-.1.187,19.633,19.633,0,0,0,.127,3.544l0,.018L3.87,23.1a.5.5,0,0,0,.49.4h6.89V19.891a.249.249,0,0,0-.083-.186A18.737,18.737,0,0,0,3.346,15.721Z"/><path d="M3.629,4.675a.491.491,0,0,0-.553-.143A.5.5,0,0,0,2.75,5v.5a.25.25,0,0,1-.25.25H1.25a1,1,0,0,0,0,2H2.5A.25.25,0,0,1,2.75,8v.5a.5.5,0,0,0,.879.325l1.5-1.75a.5.5,0,0,0,0-.65Z"/><path d="M22.75,5.75H21.5a.25.25,0,0,1-.25-.25V5a.5.5,0,0,0-.327-.468.49.49,0,0,0-.553.143l-1.5,1.75a.5.5,0,0,0,0,.65l1.5,1.75a.5.5,0,0,0,.88-.325V8a.25.25,0,0,1,.25-.25h1.25a1,1,0,0,0,0-2Z"/></svg>