<svg xmlns="http://www.w3.org/2000/svg" viewBox="0 0 24 24"><defs><style>.a{fill:none;stroke:#000;stroke-linecap:round;stroke-linejoin:round;stroke-width:1.5px;}</style></defs><title>footwear-heels-ankle</title><path class="a" d="M.778,12c0-7.5,2.25-9,2.25-9L5.5,5.468a3.679,3.679,0,0,0,4.495.554,1.5,1.5,0,0,1,2.058.514l.267.445A21.6,21.6,0,0,0,21.9,15.534a2.249,2.249,0,0,1,1.081,3.054A4.362,4.362,0,0,1,19.081,21h-6.2a3,3,0,0,1-2.5-1.336L5.278,12Z"/><path class="a" d="M.778,12,2.1,19.934a1.276,1.276,0,0,0,2.529-.1L5.278,12"/><path class="a" d="M5.278,12c6,0,7.5,6,11.25,6A5.389,5.389,0,0,0,21,15.1"/></svg>