<svg id="Bold" xmlns="http://www.w3.org/2000/svg" viewBox="0 0 24 24"><title>footwear-heels-ankle</title><path d="M22.1,15.976c-.336-.234-.654-.457-.953-.691l-.006,0a13.875,13.875,0,0,1-5.338-7.606,1.46,1.46,0,0,0-1.708-1.1C9.7,7.423,6.727,5.963,3.833,1.548a1.46,1.46,0,0,0-2.45-.023A8.521,8.521,0,0,0,.3,3.994a10.5,10.5,0,0,0,.04,5.1A62.336,62.336,0,0,1,1.3,21.218a1.945,1.945,0,0,0,3.89-.028l-.039-5.681a.5.5,0,0,1,.9-.3,39,39,0,0,1,4.334,6.924,1.937,1.937,0,0,0,1.7,1h7.927a3.933,3.933,0,0,0,3.912-3.1A3.813,3.813,0,0,0,22.1,15.976ZM2.188,4.5a7.278,7.278,0,0,1,.272-.819.249.249,0,0,1,.434-.055c2.962,4.03,6.328,5.6,10.7,5.016a.5.5,0,0,1,.542.34A15.915,15.915,0,0,0,18.4,15.5a.5.5,0,0,1-.08.787l-.678.422c-2.068.939-3.626-.623-5.934-3.3-1.941-2.25-4.311-5-7.4-3.8a.5.5,0,0,1-.542-.12C3.3,9.011,2.755,8.467,2.227,8a.5.5,0,0,1-.163-.3A7.833,7.833,0,0,1,2.188,4.5Z"/><circle cx="15.124" cy="14.065" r="0.98"/><circle cx="12.661" cy="11.205" r="0.98"/></svg>