<svg id="Bold" xmlns="http://www.w3.org/2000/svg" viewBox="0 0 24 24"><title>hammer-1</title><path d="M9.738,10.3a.516.516,0,0,0-.707,0L.768,18.56a2.483,2.483,0,0,0-.733,1.768,2.564,2.564,0,0,0,2.5,2.5A2.481,2.481,0,0,0,4.3,22.1l8.263-8.262a.5.5,0,0,0,0-.707Z"/><path d="M23.524,9.236l-1.06-1.061h0a1,1,0,0,0-1.413,0,1.022,1.022,0,0,1-1.414,0A1,1,0,0,1,19.413,7.1a1.5,1.5,0,0,0-.335-1.607C17.646,4.056,17.07,3.48,16.785,3.249l.007-.006A7.746,7.746,0,0,0,6.761,2.8a1,1,0,0,0-.348,1.138A1.013,1.013,0,0,0,7.4,4.6,5.014,5.014,0,0,1,11.15,6.055c.518.518.78.917.78,1.186a.41.41,0,0,1-.152.308L10.8,8.53a.5.5,0,0,0,0,.707l2.829,2.828a.5.5,0,0,0,.707,0L15.393,11a1.022,1.022,0,0,1,1.413,0,1,1,0,0,1,0,1.414,1,1,0,0,0,0,1.415l1.061,1.061a1.5,1.5,0,0,0,2.121,0l3.535-3.537a1.5,1.5,0,0,0,0-2.121Z"/></svg>