<svg xmlns="http://www.w3.org/2000/svg" viewBox="0 0 24 24"><defs><style>.a{fill:none;stroke:#000;stroke-linecap:round;stroke-linejoin:round;stroke-width:1.5px;}</style></defs><title>human-resources-search-employees</title><path class="a" d="M.749,23.243A7.889,7.889,0,0,1,1.4,20.129c.47-.92,2.431-1.558,4.894-2.451.666-.241.556-1.943.261-2.261a4.757,4.757,0,0,1-1.279-3.73A3.2,3.2,0,0,1,8.019,8.265"/><path class="a" d="M11.4,13.094a4.194,4.194,0,0,1-1.17,2.323c-.295.318-.4,2.02.262,2.261,2.462.893,4.424,1.531,4.893,2.451a8.027,8.027,0,0,1,.666,3.114"/><path class="a" d="M19.367,23.243h2.368v-.817c0-2.894-2-3.361-4.007-4.1-.665-.247-.556-1.984-.261-2.308a4.354,4.354,0,0,0,1.2-2.551"/><circle class="a" cx="15.749" cy="6.007" r="5.25"/><line class="a" x1="23.249" y1="13.507" x2="19.461" y2="9.719"/></svg>