<svg id="Bold" xmlns="http://www.w3.org/2000/svg" viewBox="0 0 24 24"><title>human-resources-search-employees</title><path d="M18,18.625A4.718,4.718,0,0,0,14.676,20a.249.249,0,0,0-.055.275,7.957,7.957,0,0,1,.629,3.1c0,.079,0,.158-.008.236a.25.25,0,0,0,.25.264H22.25a.5.5,0,0,0,.5-.5A4.756,4.756,0,0,0,18,18.625Z"/><path d="M9.61,15.73a4.868,4.868,0,1,0-2.423.645A5.046,5.046,0,0,0,9.61,15.73Zm-5.141-5.8a6.646,6.646,0,0,0,5.758,1.158c.006.075.023.146.023.222a3.063,3.063,0,0,1-6.125,0A3.015,3.015,0,0,1,4.469,9.933Z"/><path d="M13.75,23.375a6.75,6.75,0,0,0-13.5,0,.5.5,0,0,0,.5.5h12.5A.5.5,0,0,0,13.75,23.375Zm-7.5-4.011a.75.75,0,0,1,1.5,0v1.454a.75.75,0,0,1-1.5,0Z"/><circle cx="18" cy="14.953" r="3.263"/><path d="M23.457,9.418,21.269,7.23a4.951,4.951,0,0,0,.481-2.105,5.054,5.054,0,1,0-1.693,3.721l1.986,1.986a1,1,0,0,0,1.414-1.414ZM16.75,8.125a3,3,0,1,1,3-3A3,3,0,0,1,16.75,8.125Z"/></svg>