<svg id="Bold" xmlns="http://www.w3.org/2000/svg" viewBox="0 0 24 24"><title>insurance-card</title><path d="M9.75,12h-1a.25.25,0,0,1-.25-.25v-1A.752.752,0,0,0,7.75,10H6.25a.751.751,0,0,0-.75.75v1a.25.25,0,0,1-.25.25h-1a.751.751,0,0,0-.75.75v1.5a.751.751,0,0,0,.75.75h1a.25.25,0,0,1,.25.25v1a.751.751,0,0,0,.75.75h1.5a.752.752,0,0,0,.75-.75v-1A.25.25,0,0,1,8.75,15h1a.752.752,0,0,0,.75-.75v-1.5A.752.752,0,0,0,9.75,12Z"/><path d="M24,4.5a2,2,0,0,0-2-2H2a2,2,0,0,0-2,2v15a2,2,0,0,0,2,2H22a2,2,0,0,0,2-2ZM2.5,19.5A.5.5,0,0,1,2,19V8.5A.5.5,0,0,1,2.5,8h19a.5.5,0,0,1,.5.5V19a.5.5,0,0,1-.5.5Z"/><path d="M19.25,11.75H14.5a.75.75,0,0,0,0,1.5h4.75a.75.75,0,0,0,0-1.5Z"/><path d="M18,14.75H14.5a.75.75,0,0,0,0,1.5H18a.75.75,0,0,0,0-1.5Z"/></svg>