<svg id="Light" xmlns="http://www.w3.org/2000/svg" viewBox="0 0 24 24"><defs><style>.cls-1{fill:none;stroke:#000;stroke-linecap:round;stroke-linejoin:round;}</style></defs><title>messages-people-person-bubble-oval</title><path class="cls-1" d="M13.5,9.5h1v2l2.5-2h2a4.5,4.5,0,0,0,0-9H13A4.5,4.5,0,0,0,8.5,5"/><path class="cls-1" d="M.5,23.5a8.719,8.719,0,0,1,.7-3.322c.49-.981,2.539-1.661,5.111-2.613.695-.258.581-2.074.273-2.413a5.127,5.127,0,0,1-1.336-3.978A3.354,3.354,0,0,1,8.5,7.5a3.354,3.354,0,0,1,3.256,3.674,5.127,5.127,0,0,1-1.336,3.978c-.308.339-.422,2.155.273,2.413,2.572.952,4.621,1.632,5.111,2.613a8.719,8.719,0,0,1,.7,3.322Z"/><path class="cls-1" d="M19,4.75a.25.25,0,0,1,.25.25h0a.25.25,0,0,1-.25.25h0A.25.25,0,0,1,18.75,5h0A.25.25,0,0,1,19,4.75"/><line class="cls-1" x1="19" y1="4.75" x2="19" y2="4.75"/><path class="cls-1" d="M16,4.75a.25.25,0,0,1,.25.25h0a.25.25,0,0,1-.25.25h0A.25.25,0,0,1,15.75,5h0A.25.25,0,0,1,16,4.75"/><line class="cls-1" x1="16" y1="4.75" x2="16" y2="4.75"/><path class="cls-1" d="M13,4.75a.25.25,0,0,1,.25.25h0a.25.25,0,0,1-.25.25h0A.25.25,0,0,1,12.75,5h0A.25.25,0,0,1,13,4.75"/><line class="cls-1" x1="13" y1="4.75" x2="13" y2="4.75"/></svg>