<svg id="Bold" xmlns="http://www.w3.org/2000/svg" viewBox="0 0 24 24"><title>modern-tv-3d-glasses</title><path d="M19.381,16.43a.092.092,0,0,0-.089.008.093.093,0,0,0-.042.078v3.716a.25.25,0,0,0,.375.216,2.249,2.249,0,0,0-.244-4.018Z"/><path d="M22.5,13h-11A1.5,1.5,0,0,0,10,14.5v8A1.5,1.5,0,0,0,11.5,24h11A1.5,1.5,0,0,0,24,22.5v-8A1.5,1.5,0,0,0,22.5,13Zm-4,9.25a.75.75,0,0,1-.75-.75v-6a.75.75,0,0,1,.75-.75,3.75,3.75,0,0,1,0,7.5ZM15,20.75a.75.75,0,0,0,0-1.5.75.75,0,0,1,0-1.5.75.75,0,0,0,0-1.5H12.5a.75.75,0,0,1,0-1.5H15a2.249,2.249,0,0,1,1.8,3.6.249.249,0,0,0,0,.3,2.249,2.249,0,0,1-1.8,3.6H12.5a.75.75,0,0,1,0-1.5Z"/><path d="M9.639,12.479l.171-.456.276-.735v0a.462.462,0,0,1,.827,0l.025.067a.252.252,0,0,0,.26.161,2.72,2.72,0,0,1,.3-.016h8.651a.25.25,0,0,0,.248-.214c.61-4.273.6-4.164.6-4.3a1,1,0,0,0-.214-.607L16.9,1.2A3.016,3.016,0,0,0,14.5,0H13a1,1,0,0,0,0,2h1.5a1,1,0,0,1,.8.4l2.4,3.2a.25.25,0,0,1-.2.4H3.5a.25.25,0,0,1-.2-.4L5.7,2.4A1,1,0,0,1,6.5,2H8A1,1,0,0,0,8,0H6.5A3.01,3.01,0,0,0,4.1,1.2L.214,6.382A1,1,0,0,0,0,6.989c0,.124-.038-.186.727,5.172A3.322,3.322,0,0,0,4,15H6a3.906,3.906,0,0,0,3.639-2.521Z"/></svg>