<svg xmlns="http://www.w3.org/2000/svg" viewBox="0 0 24 24"><defs><style>.a{fill:none;stroke:#000;stroke-linecap:round;stroke-linejoin:round;stroke-width:1.5px;}</style></defs><title>modern-tv-3d-glasses</title><path class="a" d="M13.457,14.738l-.134-.25a1.5,1.5,0,0,0-2.648,0L9.439,16.811a1.5,1.5,0,0,1-1.061.439H5.249a4.5,4.5,0,0,1-4.5-4.5v-3a1.5,1.5,0,0,1,1.5-1.5h19.5a1.5,1.5,0,0,1,1.5,1.5v3a4.5,4.5,0,0,1-.444,1.953"/><path class="a" d="M.957,9l3.11-5.493A4.551,4.551,0,0,1,8.249.75h0"/><path class="a" d="M23.042,9,19.931,3.507A4.551,4.551,0,0,0,15.749.75h0"/><path class="a" d="M14.249,18.362A1.5,1.5,0,1,1,15.7,20.25a1.5,1.5,0,1,1-1.445,1.9"/><path class="a" d="M20.2,23.25a2.751,2.751,0,0,0,3-2.4v-1.2a2.751,2.751,0,0,0-3-2.4Z"/></svg>