<svg id="Bold" xmlns="http://www.w3.org/2000/svg" viewBox="0 0 24 24"><title>mood-happy</title><path d="M12.733,0A11.25,11.25,0,0,0,2.884,16.716L.1,22.568A1,1,0,0,0,1.43,23.9l5.852-2.787A11.262,11.262,0,1,0,12.733,0Zm0,20.531a9.244,9.244,0,0,1-4.875-1.4A1,1,0,0,0,6.9,19.08L3.75,20.58a.25.25,0,0,1-.333-.333l1.5-3.15a1,1,0,0,0-.054-.958,9.259,9.259,0,1,1,7.869,4.392Z"/><circle cx="8" cy="9.499" r="1.5"/><circle cx="17.5" cy="9.499" r="1.5"/><path d="M15.25,12.515H10.283a.5.5,0,0,0-.5.5,2.984,2.984,0,0,0,5.967,0A.5.5,0,0,0,15.25,12.515Z"/></svg>