<svg id="Bold" xmlns="http://www.w3.org/2000/svg" viewBox="0 0 24 24"><title>nautic-sports-sailing-person</title><path d="M12.318,8.038a.251.251,0,0,0,.237.169h8.532a.25.25,0,0,0,.22-.368c-2-3.7-5.327-7.5-10.64-7.833a.766.766,0,0,0-.629.288.757.757,0,0,0-.119.7Z"/><path d="M13.362,10.207a.252.252,0,0,0-.2.1.248.248,0,0,0-.034.225l2.814,8.415a.747.747,0,0,0,1.392.06,6.39,6.39,0,0,1,5.7-4.047.775.775,0,0,0,.573-.321.727.727,0,0,0,.111-.607,29.246,29.246,0,0,0-1.222-3.673.25.25,0,0,0-.231-.156Z"/><path d="M12.475,18.409a.131.131,0,0,0,.093-.225l-.844-.844a5.46,5.46,0,0,0-3.888-1.611H6.509l-.662-1.657a.25.25,0,0,1,.232-.343h.329a4.5,4.5,0,0,0,2.879-1.043l2.165-1.8a1.5,1.5,0,0,0-1.919-2.3l-2.166,1.8a1.5,1.5,0,0,1-.959.348H3.5A1.5,1.5,0,0,0,2.1,12.786l1.918,4.519a2.339,2.339,0,0,0,2.151,1.424H7.836a2.486,2.486,0,0,1,1.768.732l.241.241a.249.249,0,0,0,.347.006,3.222,3.222,0,0,0,.28-.293A2.576,2.576,0,0,1,12.475,18.409Z"/><circle cx="2.495" cy="6.958" r="2.25"/><path d="M22.926,21.95c-1.573.143-2.667-1.556-2.674-1.569a1.048,1.048,0,0,0-1.716.022,3.372,3.372,0,0,1-2.752,1.558,2.8,2.8,0,0,1-2.4-1.482,1.044,1.044,0,0,0-1.712-.161,4.306,4.306,0,0,1-3.108,1.643,3.562,3.562,0,0,1-2.76-1.58,1.039,1.039,0,0,0-1.637-.091c-.013.018-1.462,1.831-3.108,1.7a.975.975,0,0,0-1.051.946C0,23.125.047,24,1.172,24A5.831,5.831,0,0,0,4.9,22.388a5.24,5.24,0,0,0,3.663,1.573,5.863,5.863,0,0,0,3.81-1.5,4.571,4.571,0,0,0,3.413,1.5,5.15,5.15,0,0,0,3.621-1.5,4.774,4.774,0,0,0,3.66,1.482,1,1,0,0,0-.139-2Z"/></svg>