<svg id="Light" xmlns="http://www.w3.org/2000/svg" viewBox="0 0 24 24"><defs><style>.cls-1{fill:none;stroke:#000;stroke-linecap:round;stroke-linejoin:round;}</style></defs><title>office-work-wireless</title><circle class="cls-1" cx="5" cy="3" r="2.5"/><line class="cls-1" x1="12" y1="13.5" x2="23" y2="13.5"/><path class="cls-1" d="M23.5,6l-1.761,4.842a1,1,0,0,1-.939.658H16"/><line class="cls-1" x1="16.5" y1="13.5" x2="16.5" y2="23.5"/><line class="cls-1" x1="2" y1="18" x2="0.5" y2="23.5"/><polyline class="cls-1" points="0.5 8.5 2 18 5 18"/><path class="cls-1" d="M12.38,23.5A1.5,1.5,0,0,1,11,22.591L9.4,18.909A1.5,1.5,0,0,0,8.022,18H5a1.5,1.5,0,0,1-1.5-1.5v-8a1.5,1.5,0,0,1,2.639-.976l1.8,2.1a2.5,2.5,0,0,0,1.9.873H12.5a1.5,1.5,0,0,1,0,3H9.84A5.5,5.5,0,0,1,6.5,12.371V15H8.022a4.494,4.494,0,0,1,4.136,2.728l1.6,3.681A1.5,1.5,0,0,1,12.38,23.5Z"/><line class="cls-1" x1="17" y1="6.45" x2="17" y2="6.45"/><path class="cls-1" d="M17,6.45a.25.25,0,1,0,.25.25A.249.249,0,0,0,17,6.45"/><path class="cls-1" d="M21,1.915a6.36,6.36,0,0,0-8,0"/><path class="cls-1" d="M14.667,4.325a3.711,3.711,0,0,1,4.666,0"/></svg>