<svg id="Bold" xmlns="http://www.w3.org/2000/svg" viewBox="0 0 24 24"><title>optimization-timer-1</title><path d="M21,0H3A3,3,0,0,0,0,3V18a3,3,0,0,0,3,3,1,1,0,0,0,0-2,1,1,0,0,1-1-1V7.5A.5.5,0,0,1,2.5,7h19a.5.5,0,0,1,.5.5V18a1,1,0,0,1-1,1,1,1,0,0,0,0,2,3,3,0,0,0,3-3V3A3,3,0,0,0,21,0ZM3,3.5a1,1,0,1,1,1,1A1,1,0,0,1,3,3.5Zm3,0a1,1,0,1,1,1,1A1,1,0,0,1,6,3.5Zm3,0a1,1,0,1,1,1,1A1,1,0,0,1,9,3.5Z"/><path d="M17.53,12.531a.75.75,0,0,0-1.06-1.061l-.726.726a6.456,6.456,0,0,0-2.994-1.149v-.8h.75a.75.75,0,0,0,0-1.5h-3a.75.75,0,0,0,0,1.5h.75v.8A6.452,6.452,0,0,0,8.256,12.2L7.53,11.47a.75.75,0,1,0-1.06,1.061l.669.669a6.5,6.5,0,1,0,9.722,0ZM12,22a4.5,4.5,0,1,1,4.5-4.5A4.5,4.5,0,0,1,12,22Z"/><path d="M12.97,15.47l-1.5,1.5a.75.75,0,0,0,1.06,1.061l1.5-1.5a.75.75,0,1,0-1.06-1.061Z"/></svg>