<svg xmlns="http://www.w3.org/2000/svg" viewBox="0 0 24 24"><defs><style>.a{fill:none;stroke:#000;stroke-linecap:round;stroke-linejoin:round;stroke-width:1.5px;}</style></defs><title>people-woman-glasses-1</title><path class="a" d="M21.475,23.25a10.483,10.483,0,0,0-18.952,0"/><line class="a" x1="14.249" y1="23.25" x2="16.283" y2="18.165"/><line class="a" x1="7.715" y1="18.165" x2="9.749" y2="23.25"/><path class="a" d="M12,5.25s-1.433,3.6-5.031,3.745a5.25,5.25,0,1,0,10.062,0C13.433,8.847,12,5.25,12,5.25Z"/><path class="a" d="M17.835,19.027a14.661,14.661,0,0,0,3.392-1.006,1.5,1.5,0,0,0,.762-1.962L20.613,12.85a4.505,4.505,0,0,1-.364-1.774V9a8.22,8.22,0,0,0-1.987-5.37"/><path class="a" d="M5.737,3.63A8.215,8.215,0,0,0,3.749,9v2.076a4.505,4.505,0,0,1-.364,1.774L2.01,16.059a1.5,1.5,0,0,0,.762,1.962,14.634,14.634,0,0,0,3.391,1.006"/><line class="a" x1="12.749" y1="0.75" x2="11.249" y2="0.75"/><path class="a" d="M11.249.75h-6a3.342,3.342,0,0,0,1.5,3.75C8.588,5.018,10.672,4.283,11.249.75Z"/><path class="a" d="M12.749.75h6a3.342,3.342,0,0,1-1.5,3.75C15.41,5.018,13.326,4.283,12.749.75Z"/></svg>