<svg id="Bold" xmlns="http://www.w3.org/2000/svg" viewBox="0 0 24 24"><title>people-man-graduate</title><path d="M1.014,3.488C12.6,6.115,12.013,6,12.125,6s-.51.127,11.11-2.513a.494.494,0,0,0,.367-.357A.473.473,0,0,0,23.625,3a.5.5,0,0,0-.39-.488l-11-2.5a.485.485,0,0,0-.221,0l-11,2.5A.5.5,0,0,0,.625,3a.513.513,0,0,0,.022.13A.5.5,0,0,0,1.014,3.488Z"/><path d="M16.7,17.928a.252.252,0,0,0-.234.076l-3.973,4.334a.5.5,0,0,1-.736,0L7.783,18a.248.248,0,0,0-.233-.076C4.458,18.542.625,20.105.625,22.394V23.5a.5.5,0,0,0,.5.5h22a.5.5,0,0,0,.5-.5V22.394C23.625,20.077,19.69,18.523,16.7,17.928Z"/><path d="M3.125,13.251a.75.75,0,0,0,.75-.75c0-3.922-.735-.6-.75-6.821a.25.25,0,0,0-.194-.243L1.43,5.1a.251.251,0,0,0-.306.243C1.1,11.908.375,8.677.375,12.5a.75.75,0,0,0,.75.75Z"/><path d="M12.347,7.476a1,1,0,0,1-.444,0L5.43,6.005a.249.249,0,0,0-.3.244V11a7,7,0,0,0,4.7,6.6,6.867,6.867,0,0,0,4.6,0,7,7,0,0,0,4.7-6.6V6.249a.25.25,0,0,0-.306-.244ZM12.125,16a5.038,5.038,0,0,1-5-5V8.928a18.194,18.194,0,0,0,5,.573,18.2,18.2,0,0,0,5-.573V11A5.04,5.04,0,0,1,12.125,16Z"/><circle cx="14.125" cy="11.251" r="1"/><circle cx="10.125" cy="11.251" r="1"/><path d="M13.2,13.362h-2a.64.64,0,0,0-.308,1.2,2.835,2.835,0,0,0,1.308.31,2.789,2.789,0,0,0,1.306-.308.64.64,0,0,0-.306-1.2Z"/></svg>