<svg id="Light" xmlns="http://www.w3.org/2000/svg" viewBox="0 0 24 24"><defs><style>.cls-1{fill:none;stroke:#000;stroke-linecap:round;stroke-linejoin:round;}</style></defs><title>people-woman-glasses-1</title><path class="cls-1" d="M23,23.5V20.394a1.976,1.976,0,0,0-.77-1.579C20.9,17.8,17.73,16,12,16S3.105,17.8,1.77,18.815A1.976,1.976,0,0,0,1,20.394V23.5"/><path class="cls-1" d="M16.854,16.493A9.021,9.021,0,0,1,12.216,23.4a.477.477,0,0,1-.432,0,9.021,9.021,0,0,1-4.638-6.907"/><path class="cls-1" d="M13.5,11a2.5,2.5,0,0,1-3,0"/><line class="cls-1" x1="14" y1="8.25" x2="14" y2="8.25"/><path class="cls-1" d="M14,8.25a.25.25,0,1,0,.25.25A.25.25,0,0,0,14,8.25"/><line class="cls-1" x1="10" y1="8.25" x2="10" y2="8.25"/><path class="cls-1" d="M10,8.25a.25.25,0,1,0,.25.25A.25.25,0,0,0,10,8.25"/><path class="cls-1" d="M16.5,7A5,5,0,0,1,12,4.182,5,5,0,0,1,7.5,7,4.866,4.866,0,0,1,7,6.975V9.5a5,5,0,0,0,10,0V6.975A4.866,4.866,0,0,1,16.5,7Z"/><path class="cls-1" d="M11,2A2.5,2.5,0,0,1,6,2C6,.619,7.119.5,8.5.5S11,.619,11,2Z"/><path class="cls-1" d="M13,2a2.5,2.5,0,0,0,5,0C18,.619,16.881.5,15.5.5S13,.619,13,2Z"/><path class="cls-1" d="M11,2a1.253,1.253,0,0,1,2,0"/><path class="cls-1" d="M6.381,3.327A6.963,6.963,0,0,0,5,7.5V9.966a8.531,8.531,0,0,1-2.06,5.56A.5.5,0,0,0,3.1,16.3l1.741.87"/><path class="cls-1" d="M19.162,17.17,20.9,16.3a.5.5,0,0,0,.155-.774A8.535,8.535,0,0,1,19,9.966V7.5a6.963,6.963,0,0,0-1.381-4.175"/></svg>