<svg id="Bold" xmlns="http://www.w3.org/2000/svg" viewBox="0 0 24 24"><title>phone-actions-ring</title><path d="M17.167,16.155a2.5,2.5,0,0,0-3.535,0l-.385.384A46.692,46.692,0,0,1,7.458,10.75l.385-.385a2.5,2.5,0,0,0,0-3.536L5.721,4.708a2.5,2.5,0,0,0-3.535,0L1.022,5.872a3.51,3.51,0,0,0-.442,4.4A46.932,46.932,0,0,0,13.722,23.417a3.542,3.542,0,0,0,4.4-.442l1.165-1.164a2.5,2.5,0,0,0,0-3.535Z"/><path d="M11.5,0a1,1,0,0,0,0,2A10.512,10.512,0,0,1,22,12.5a1,1,0,1,0,2,0A12.515,12.515,0,0,0,11.5,0Z"/><path d="M11.5,6A6.508,6.508,0,0,1,18,12.5a1,1,0,0,0,2,0A8.51,8.51,0,0,0,11.5,4a1,1,0,1,0,0,2Z"/><path d="M11.5,10A2.5,2.5,0,0,1,14,12.5a1,1,0,0,0,2,0A4.505,4.505,0,0,0,11.5,8a1,1,0,1,0,0,2Z"/></svg>