<svg id="Bold" xmlns="http://www.w3.org/2000/svg" viewBox="0 0 24 24"><title>presentation-board-graph</title><path d="M24,1.5A1.5,1.5,0,0,0,22.5,0H1.5A1.5,1.5,0,0,0,0,1.5v6a.25.25,0,0,0,.25.25H5.841a.25.25,0,0,0,.23-.151l.756-1.765a1.244,1.244,0,0,1,1.148-.757H8a1.245,1.245,0,0,1,1.143.8l1.282,3.333a.251.251,0,0,0,.453.03l1.555-2.851a1.256,1.256,0,0,1,1.058-.652,1.274,1.274,0,0,1,1.1.588l1.058,1.694a.25.25,0,0,0,.44-.029l1.728-3.8a.75.75,0,0,1,1.365.621L17.069,9.462a1.25,1.25,0,0,1-2.2.146l-1.1-1.76a.25.25,0,0,0-.431.013L11.677,10.91a1.25,1.25,0,0,1-2.263-.148l-1.23-3.2a.25.25,0,0,0-.463-.008l-.4.936a1.25,1.25,0,0,1-1.148.757H.25A.25.25,0,0,0,0,9.5v4.625a1.5,1.5,0,0,0,1.5,1.5h8.75V17.3a2.122,2.122,0,0,0-.341.274L5.616,21.866a1.25,1.25,0,0,0,1.768,1.768L11.323,19.7a.25.25,0,0,1,.354,0l3.939,3.939a1.25,1.25,0,0,0,1.768-1.768l-4.293-4.293a2.167,2.167,0,0,0-.341-.274V15.625H22.5a1.5,1.5,0,0,0,1.5-1.5Z"/></svg>