<svg id="Bold" xmlns="http://www.w3.org/2000/svg" viewBox="0 0 24 24"><title>rat</title><path d="M24,6.25a5.111,5.111,0,0,0-.639-2.456c-.012-.024-.024-.049-.039-.073a5.036,5.036,0,0,0-4.31-2.471,4.94,4.94,0,0,0-4.681,3.325,8.647,8.647,0,0,0-4.663,0A4.938,4.938,0,0,0,4.989,1.25,5.038,5.038,0,0,0,.678,3.72a.6.6,0,0,0-.04.075A5.1,5.1,0,0,0,0,6.25a4.98,4.98,0,0,0,4,4.9,14,14,0,0,1,.038,1.45A16.23,16.23,0,0,0,4.3,14.844a4.524,4.524,0,0,0-1.947,1.044,1,1,0,0,0,0,1.414,1.012,1.012,0,0,0,1.413,0,2.609,2.609,0,0,1,1.091-.537,11.2,11.2,0,0,0,.739,1.556,4.948,4.948,0,0,0-1.241,1.9,1,1,0,0,0,.633,1.265,1.016,1.016,0,0,0,1.263-.634,2.624,2.624,0,0,1,.53-.87A7.56,7.56,0,0,0,12,22.75a7.583,7.583,0,0,0,5.254-2.809,2.675,2.675,0,0,1,.562.906,1.018,1.018,0,0,0,1.263.634,1,1,0,0,0,.633-1.265,4.991,4.991,0,0,0-1.281-1.937,11.089,11.089,0,0,0,.722-1.534A2.654,2.654,0,0,1,20.3,17.3a1,1,0,0,0,1.413-1.414,4.581,4.581,0,0,0-2.006-1.06c.14.038.263-3.674.287-3.678A4.988,4.988,0,0,0,24,6.25ZM8.79,14a1,1,0,1,1,1-1A1,1,0,0,1,8.79,14Zm3.242,4.25c.826,0,1.5.31,1.5,1a1.594,1.594,0,0,1-1.5,1.5,1.594,1.594,0,0,1-1.5-1.5C10.536,18.56,11.206,18.25,12.032,18.25ZM16.271,13a1,1,0,1,1-1-1A1,1,0,0,1,16.271,13ZM2.026,6.518a2.654,2.654,0,0,1,.339-1.295c.007-.013.013-.019.013-.026,2.061-.863,3.313.393,3.528,1.608.108.614-1.175,2.4-1.748,2.282A2.611,2.611,0,0,1,2.026,6.518ZM19.842,9.087c-.555.111-1.858-1.662-1.748-2.282.215-1.215,1.467-2.471,3.528-1.608,0,.007.006.013.013.033a2.614,2.614,0,0,1-1.793,3.857Z"/></svg>