<svg xmlns="http://www.w3.org/2000/svg" viewBox="0 0 24 24"><defs><style>.a{fill:none;stroke:#000;stroke-linecap:round;stroke-linejoin:round;stroke-width:1.5px;}</style></defs><title>show-hat-magician-1</title><line class="a" x1="23.249" y1="0.75" x2="8.999" y2="11.25"/><line class="a" x1="6.749" y1="2.25" x2="9.749" y2="2.25"/><line class="a" x1="8.249" y1="0.75" x2="8.249" y2="3.75"/><line class="a" x1="1.499" y1="8.25" x2="5.999" y2="8.25"/><line class="a" x1="3.749" y1="6" x2="3.749" y2="10.5"/><path class="a" d="M18.651,23.25c-.243-1.669-.449-3.656-.561-5.97"/><path class="a" d="M5.908,17.28c-.111,2.315-.318,4.3-.561,5.97"/><path class="a" d="M17.249,9.519c3.569.755,6,2.254,6,3.981,0,2.485-5.037,4.5-11.25,4.5S.749,15.985.749,13.5a1.913,1.913,0,0,1,.156-.75"/><path class="a" d="M12.749,12.009c3.375.083,6,.719,6,1.491,0,.828-3.022,1.5-6.75,1.5s-6.75-.672-6.75-1.5"/></svg>