<svg id="Bold" xmlns="http://www.w3.org/2000/svg" viewBox="0 0 24 24"><title>skull-1</title><path d="M12,0A10.261,10.261,0,0,0,1.75,10.25a10.156,10.156,0,0,0,3,7.236V21.25a2.749,2.749,0,0,0,5,1.58,2.748,2.748,0,0,0,4.5,0,2.749,2.749,0,0,0,5-1.58V17.486a10.157,10.157,0,0,0,3-7.236A10.261,10.261,0,0,0,12,0Zm2.25,10.25A2.25,2.25,0,1,1,16.5,12.5,2.25,2.25,0,0,1,14.25,10.25Zm-.5,6.868a.25.25,0,0,1-.22.132H10.467a.25.25,0,0,1-.208-.388l1.533-2.3a.249.249,0,0,1,.416,0l1.533,2.3A.25.25,0,0,1,13.753,17.118ZM5.25,10.25A2.25,2.25,0,1,1,7.5,12.5,2.25,2.25,0,0,1,5.25,10.25Z"/></svg>