<svg id="Bold" xmlns="http://www.w3.org/2000/svg" viewBox="0 0 24 24"><title>video-player-1</title><path d="M23.369,4.919a1.519,1.519,0,0,0-1.3-1.247,75.8,75.8,0,0,0-20.142,0,1.518,1.518,0,0,0-1.3,1.246,40.021,40.021,0,0,0,0,14.163,1.519,1.519,0,0,0,1.3,1.247A75.783,75.783,0,0,0,12,21a75.783,75.783,0,0,0,10.071-.672,1.518,1.518,0,0,0,1.3-1.247A40.039,40.039,0,0,0,23.369,4.919ZM8,15.02V8.981a1.04,1.04,0,0,1,1.534-.863l5.92,3.019a.957.957,0,0,1,0,1.726l-5.92,3.019h0A1.04,1.04,0,0,1,8,15.02Z"/></svg>