<svg id="Light" xmlns="http://www.w3.org/2000/svg" viewBox="0 0 24 24"><defs><style>.cls-1{fill:none;stroke:#000;stroke-linecap:round;stroke-linejoin:round;}</style></defs><title>video-game-gamasutra</title><path class="cls-1" d="M10,20a.5.5,0,0,0,.5-.5v-1A.5.5,0,0,0,10,18H6.5v1.5A.5.5,0,0,0,7,20Z"/><path class="cls-1" d="M13.5,19.5a.5.5,0,0,0,.5.5h3a.5.5,0,0,0,.5-.5V18H14a.5.5,0,0,0-.5.5Z"/><path class="cls-1" d="M22,12a.5.5,0,0,1-.5-.5v-1A.5.5,0,0,0,21,10H20a.5.5,0,0,1-.5-.5v-1A.5.5,0,0,0,19,8H18a.5.5,0,0,1-.5-.5V6H16a.5.5,0,0,0-.5.5v1A.5.5,0,0,1,15,8H9a.5.5,0,0,1-.5-.5v-1A.5.5,0,0,0,8,6H6.5V7.5A.5.5,0,0,1,6,8H5a.5.5,0,0,0-.5.5v1A.5.5,0,0,1,4,10H3a.5.5,0,0,0-.5.5v1A.5.5,0,0,1,2,12H1a.5.5,0,0,0-.5.5v5A.5.5,0,0,0,1,18H2a.5.5,0,0,0,.5-.5v-3A.5.5,0,0,1,3,14H4a.5.5,0,0,1,.5.5v3A.5.5,0,0,0,5,18H6.5V16.5A.5.5,0,0,1,7,16H17a.5.5,0,0,1,.5.5V18H19a.5.5,0,0,0,.5-.5v-3A.5.5,0,0,1,20,14h1a.5.5,0,0,1,.5.5v3a.5.5,0,0,0,.5.5h1a.5.5,0,0,0,.5-.5v-5A.5.5,0,0,0,23,12Z"/><path class="cls-1" d="M5,4a.5.5,0,0,0-.5.5v1A.5.5,0,0,0,5,6H6.5V4.5A.5.5,0,0,0,6,4Z"/><path class="cls-1" d="M19.5,4.5A.5.5,0,0,0,19,4H18a.5.5,0,0,0-.5.5V6H19a.5.5,0,0,0,.5-.5Z"/><rect class="cls-1" x="6.5" y="10" width="2" height="2" rx="0.5" ry="0.5"/><rect class="cls-1" x="15.5" y="10" width="2" height="2" rx="0.5" ry="0.5"/></svg>