<svg id="Bold" xmlns="http://www.w3.org/2000/svg" viewBox="0 0 24 24"><title>video-game-mario-enemy</title><path d="M9.319,14.45a2.5,2.5,0,0,0,2.5-2.5,2.34,2.34,0,0,0-.115-.724.5.5,0,0,0-.6-.332,18.6,18.6,0,0,1-3.806.568.5.5,0,0,0-.476.5A2.5,2.5,0,0,0,9.319,14.45Z"/><path d="M18.316,11.886a.469.469,0,0,1,.505-.413c.207.018.4.027.548.027a3.995,3.995,0,0,0,.423-7.968.5.5,0,0,1-.439-.5V2.5a2.5,2.5,0,1,0-5,0,.708.708,0,0,1-.314.588A4.46,4.46,0,0,0,11.869,7,5.7,5.7,0,0,0,12.8,9.93a3.606,3.606,0,0,1,.517,2.02A3.991,3.991,0,1,1,5.337,11.9a.438.438,0,0,0-.408-.446A15.218,15.218,0,0,1,1.9,10.964a1,1,0,0,0-1.093.4A.984.984,0,0,0,.823,12.51l3.1,4.307a8.827,8.827,0,0,0,2.233,1.916c.908.574,1.214.767,1.214,3.767A1.658,1.658,0,0,0,8.788,24h5.065c1.328,0,2-.5,2-1.5a2,2,0,0,0-2-2h-.369a.25.25,0,0,1-.168-.435,7.081,7.081,0,0,1,1.1-.8,5.947,5.947,0,0,0,1.944-1.743A.5.5,0,0,1,17,17.376l.728.382a1.751,1.751,0,0,0,2.639-1.508,1.739,1.739,0,0,0-1.076-1.613l-1.065-.532a.5.5,0,0,1-.258-.584A9.986,9.986,0,0,0,18.316,11.886ZM17.6,6.5a.75.75,0,0,1-1.5,0V5a.75.75,0,0,1,1.5,0Z"/></svg>