<svg id="Bold" xmlns="http://www.w3.org/2000/svg" viewBox="0 0 24 24"><title>video-game-mario-3</title><path d="M8.5,14.5a.75.75,0,0,1-.75-.75v-1a.75.75,0,0,1,1.5,0v1A.75.75,0,0,1,8.5,14.5Z"/><path d="M15.5,14.5a.75.75,0,0,1-.75-.75v-1a.75.75,0,0,1,1.5,0v1A.75.75,0,0,1,15.5,14.5Z"/><path d="M22.1,10.39a.5.5,0,0,1-.181-.73A5.916,5.916,0,0,0,23,6.25,6.257,6.257,0,0,0,16.75,0H7.25A6.257,6.257,0,0,0,1,6.25,5.849,5.849,0,0,0,2.069,9.662a.5.5,0,0,1-.179.731,3.5,3.5,0,0,0,1.332,6.6,9,9,0,0,0,17.556,0,3.5,3.5,0,0,0,1.326-6.6ZM8.776,5.448a.5.5,0,0,1-.223-.671l1.5-3A.5.5,0,0,1,10.9,1.7l.9,1.2a.25.25,0,0,0,.4,0l.9-1.2a.5.5,0,0,1,.847.077l1.5,3a.5.5,0,1,1-.894.447L13.6,3.309a.25.25,0,0,0-.423-.038L12.4,4.3a.518.518,0,0,1-.8,0l-.772-1.029a.25.25,0,0,0-.424.038L9.447,5.224A.5.5,0,0,1,8.776,5.448ZM3,14.5a.25.25,0,0,1-.4.2,1.5,1.5,0,0,1,0-2.4.25.25,0,0,1,.4.2ZM19,15A7,7,0,0,1,5,15V11.5a.5.5,0,0,1,.5-.5h13a.5.5,0,0,1,.5.5Zm1.59-5h-.529a.5.5,0,0,1-.466-.318A2.253,2.253,0,0,0,17.5,8.25H6.5A2.252,2.252,0,0,0,4.405,9.682.5.5,0,0,1,3.939,10H3.41a.5.5,0,0,1-.476-.654A3.755,3.755,0,0,1,6.5,6.75h11a3.754,3.754,0,0,1,3.565,2.6A.5.5,0,0,1,20.59,10Zm.81,4.7a.25.25,0,0,1-.4-.2v-2a.25.25,0,0,1,.4-.2,1.5,1.5,0,0,1,0,2.4Z"/><path d="M17.421,15.876a.5.5,0,0,0-.484-.376H14.958a.5.5,0,0,0-.493.417,2.5,2.5,0,0,1-4.93,0,.5.5,0,0,0-.493-.417H7.063a.5.5,0,0,0-.485.376A2.528,2.528,0,0,0,6.5,16.5,2.5,2.5,0,0,0,9,19a2.447,2.447,0,0,0,.678-.1,2.487,2.487,0,0,0,4.644,0A2.437,2.437,0,0,0,15,19a2.5,2.5,0,0,0,2.5-2.5A2.529,2.529,0,0,0,17.421,15.876Z"/></svg>