<svg id="Bold" xmlns="http://www.w3.org/2000/svg" viewBox="0 0 24 24"><title>wench-double</title><path d="M17.511,13.984l-.567-.567a.5.5,0,0,0-.707,0l-2.824,2.824a.5.5,0,0,0,0,.707l.57.57a.5.5,0,0,1,.129.458A4.994,4.994,0,0,0,18.984,24a5.041,5.041,0,0,0,1.591-.258.5.5,0,0,0,.2-.828l-2.449-2.449a.5.5,0,0,1-.146-.354V18.7a.5.5,0,0,1,.5-.5H20.09a.5.5,0,0,1,.353.146L22.9,20.8a.5.5,0,0,0,.827-.193,4.992,4.992,0,0,0-5.759-6.5A.5.5,0,0,1,17.511,13.984Z"/><path d="M10.586,7.058l-.57-.569a.494.494,0,0,1-.128-.458A4.992,4.992,0,0,0,3.39.271.5.5,0,0,0,3.2,1.1L5.656,3.557A.5.5,0,0,1,5.8,3.91V5.324a.5.5,0,0,1-.5.5H3.889a.5.5,0,0,1-.354-.147L1.087,3.229a.5.5,0,0,0-.828.2A4.993,4.993,0,0,0,6.026,9.89a.494.494,0,0,1,.458.128l.571.571a.5.5,0,0,0,.707,0l2.824-2.823A.5.5,0,0,0,10.586,7.058Z"/><path d="M17.516,10.018a.491.491,0,0,1,.457-.128,4.993,4.993,0,0,0,5.768-6.465.5.5,0,0,0-.828-.2L20.464,5.677a.5.5,0,0,1-.354.147H18.7a.5.5,0,0,1-.5-.5V3.911a.5.5,0,0,1,.146-.354L20.8,1.1a.5.5,0,0,0-.193-.827,4.991,4.991,0,0,0-6.5,5.76.5.5,0,0,1-.128.458l-7.5,7.5a.494.494,0,0,1-.458.128,4.991,4.991,0,0,0-5.759,6.5A.5.5,0,0,0,1.1,20.8l2.458-2.459A.5.5,0,0,1,3.91,18.2H5.324a.5.5,0,0,1,.5.5v1.413a.5.5,0,0,1-.147.354L3.228,22.914a.5.5,0,0,0,.2.828A5.03,5.03,0,0,0,5.015,24a4.994,4.994,0,0,0,4.873-6.024.494.494,0,0,1,.128-.458Z"/></svg>