<svg id="Bold" xmlns="http://www.w3.org/2000/svg" viewBox="0 0 24 24"><title>wireless-payment-credit-card-dollar</title><path d="M9.125,19.5a.5.5,0,0,0-.5-.5h-6a.5.5,0,0,1-.5-.5V4.5a.5.5,0,0,1,.5-.5h9a.5.5,0,0,1,.5.5v6a1,1,0,0,0,2,0v-8a2.5,2.5,0,0,0-2.5-2.5h-9a2.5,2.5,0,0,0-2.5,2.5v19a2.5,2.5,0,0,0,2.5,2.5h6a.5.5,0,0,0,.5-.5Z"/><path d="M7,15.75A.75.75,0,0,0,7.75,15v-.522a2.084,2.084,0,0,0,.56-4.011L6.246,9.641A.592.592,0,0,1,6.467,8.5H8.5A.75.75,0,0,0,8.5,7H7.75V6.5a.75.75,0,0,0-1.5,0v.522a2.085,2.085,0,0,0-.561,4.011l2.065.827A.591.591,0,0,1,7.533,13H5.5a.75.75,0,0,0,0,1.5h.75V15A.75.75,0,0,0,7,15.75Z"/><path d="M23.875,15a1.752,1.752,0,0,0-1.75-1.75h-10A1.752,1.752,0,0,0,10.375,15v7a1.752,1.752,0,0,0,1.75,1.75h10A1.752,1.752,0,0,0,23.875,22Zm-1.5,7a.25.25,0,0,1-.25.25h-10a.25.25,0,0,1-.25-.25V19a.25.25,0,0,1,.25-.25h10a.25.25,0,0,1,.25.25Zm-10.5-7a.251.251,0,0,1,.25-.25h10a.251.251,0,0,1,.25.25v1a.25.25,0,0,1-.25.25h-10a.25.25,0,0,1-.25-.25Z"/><path d="M20.875,20.5a.75.75,0,0,0-.75-.75h-1.25a.75.75,0,0,0,0,1.5h1.25A.75.75,0,0,0,20.875,20.5Z"/></svg>