<?xml version="1.0" encoding="utf-8"?>
<!-- Generator: Adobe Illustrator 18.0.0, SVG Export Plug-In . SVG Version: 6.00 Build 0)  -->
<!DOCTYPE svg PUBLIC "-//W3C//DTD SVG 1.1//EN" "http://www.w3.org/Graphics/SVG/1.1/DTD/svg11.dtd">
<svg version="1.1" id="Layer_1" xmlns="http://www.w3.org/2000/svg" xmlns:xlink="http://www.w3.org/1999/xlink" x="0px" y="0px"
	 width="28px" height="32px" viewBox="0 0 28 32" enable-background="new 0 0 28 32" xml:space="preserve">
<g>
	<path fill="#808184" d="M15.769,22.985c0.367,0.044,0.727,0.065,1.079,0.065c2.237,0,4.27-0.881,5.722-2.481
		c1.706-1.878,2.486-4.545,2.193-7.572c-0.048-0.46-0.386-0.82-0.878-0.882c-2.693-0.323-5.119,0.564-6.801,2.417
		c-1.706,1.878-2.486,4.545-2.193,7.571C14.937,22.562,15.275,22.923,15.769,22.985z M17.823,15.204
		c1.261-1.389,3.03-2.153,4.982-2.153c0.313,0,0.633,0.019,0.967,0.106c0.259,2.68-0.431,5.073-1.944,6.741
		c-1.261,1.388-3.03,2.153-4.981,2.153c-0.313,0-0.633-0.019-0.968-0.106C15.62,19.265,16.31,16.872,17.823,15.204z"/>
	<path fill="#808184" d="M11.085,30.795C11.864,31.572,12.899,32,14,32s2.136-0.428,2.915-1.205l6.984-6.967
		c2.67-2.664,4.127-6.207,4.101-9.974c-0.026-3.768-1.533-7.291-4.242-9.919C21.143,1.397,17.677,0,14,0S6.857,1.397,4.243,3.935
		C1.533,6.563,0.026,10.086,0,13.854c-0.026,3.768,1.43,7.31,4.101,9.974L11.085,30.795z M4.939,4.652C7.366,2.297,10.584,1,14,1
		s6.634,1.297,9.061,3.652c2.516,2.441,3.914,5.711,3.938,9.208s-1.328,6.786-3.807,9.259l-6.984,6.967
		c-1.18,1.177-3.237,1.177-4.417,0L4.807,23.12C2.328,20.647,0.976,17.358,1,13.861S2.423,7.093,4.939,4.652z"/>
	<path fill="#808184" d="M10.932,23.05c0.352,0,0.712-0.021,1.136-0.072c0.436-0.056,0.773-0.416,0.827-0.938
		c0.287-2.964-0.494-5.631-2.199-7.509c-1.452-1.6-3.484-2.481-5.722-2.481c-0.352,0-0.712,0.021-1.134,0.072
		c-0.437,0.055-0.775,0.414-0.829,0.937c-0.287,2.964,0.494,5.631,2.199,7.51C6.662,22.169,8.694,23.05,10.932,23.05z M4.015,13.109
		c0.326-0.039,0.646-0.058,0.959-0.058c1.952,0,3.721,0.765,4.982,2.153c1.513,1.667,2.204,4.061,1.936,6.788
		c-2.355,0.284-4.478-0.484-5.941-2.095C4.437,18.23,3.746,15.836,4.015,13.109z"/>
</g>
</svg>
