<?xml version="1.0" encoding="utf-8"?>
<!-- Generator: Adobe Illustrator 18.0.0, SVG Export Plug-In . SVG Version: 6.00 Build 0)  -->
<!DOCTYPE svg PUBLIC "-//W3C//DTD SVG 1.1//EN" "http://www.w3.org/Graphics/SVG/1.1/DTD/svg11.dtd">
<svg version="1.1" id="Layer_1" xmlns="http://www.w3.org/2000/svg" xmlns:xlink="http://www.w3.org/1999/xlink" x="0px" y="0px"
	 width="27px" height="32px" viewBox="0 0 27 32" enable-background="new 0 0 27 32" xml:space="preserve">
<g>
	<path fill="#808184" d="M16.811,14.26c-1.321-5.995,0.02-13.594,0.033-13.671c0.026-0.146-0.014-0.296-0.108-0.41
		C16.641,0.066,16.5,0,16.352,0h-6c-0.15,0-0.293,0.068-0.389,0.185C9.868,0.302,9.831,0.456,9.862,0.603
		c0.013,0.06,1.238,6.049-0.005,13.818c-0.022,0.145,0.019,0.292,0.113,0.403C10.066,14.936,10.205,15,10.352,15h6
		c0.007,0.001,0.015,0,0.02,0c0.276,0,0.5-0.224,0.5-0.5C16.871,14.413,16.85,14.331,16.811,14.26z M15.734,14h-4.801
		c0.929-6.329,0.295-11.319,0.017-13h4.812C15.476,2.877,14.717,8.829,15.734,14z"/>
	<path fill="#808184" d="M9.971,31.824C10.066,31.936,10.205,32,10.352,32h6c0.007,0.001,0.015,0,0.02,0c0.276,0,0.5-0.224,0.5-0.5
		c0-0.087-0.021-0.169-0.061-0.24c-1.321-5.995,0.02-13.594,0.033-13.671c0.026-0.146-0.014-0.296-0.108-0.41
		C16.641,17.066,16.5,17,16.352,17h-6c-0.15,0-0.293,0.068-0.389,0.185c-0.095,0.117-0.132,0.271-0.101,0.418
		c0.013,0.06,1.238,6.049-0.005,13.818C9.835,31.565,9.876,31.713,9.971,31.824z M10.95,18h4.812c-0.287,1.877-1.046,7.829-0.028,13
		h-4.801C11.862,24.671,11.229,19.681,10.95,18z"/>
	<path fill="#808184" d="M8.878,14.917c0.14-0.093,0.224-0.249,0.224-0.417c0-0.049-0.055-4.881-4.783-6.413
		C4.179,8.041,4.029,8.06,3.903,8.136C3.779,8.211,3.694,8.338,3.671,8.481c-0.007,0.042-0.627,4.228,4.737,6.479
		C8.471,14.987,8.536,15,8.602,15C8.698,15,8.795,14.972,8.878,14.917z M4.647,9.28c2.437,1.073,3.154,3.212,3.366,4.394
		C5.25,12.239,4.724,10.279,4.647,9.28z"/>
	<path fill="#808184" d="M3.609,13.763c-1.056,0-2.107,0.264-3.126,0.784c-0.13,0.066-0.224,0.186-0.259,0.328
		c-0.034,0.142-0.005,0.291,0.08,0.41c0.059,0.081,1.457,1.979,4.467,1.979c1.085,0,2.251-0.251,3.465-0.748
		c0.154-0.063,0.268-0.2,0.301-0.364S8.519,15.817,8.4,15.699C8.321,15.62,6.432,13.763,3.609,13.763z M4.771,16.263
		c-1.623,0-2.668-0.644-3.209-1.105c0.677-0.262,1.362-0.395,2.047-0.395c1.507,0,2.726,0.642,3.428,1.124
		C6.243,16.137,5.484,16.263,4.771,16.263z"/>
	<path fill="#808184" d="M17.79,2.784c-0.14,0.093-0.224,0.249-0.224,0.417c0,0.049,0.055,4.881,4.783,6.413
		c0.051,0.017,0.103,0.024,0.154,0.024c0.091,0,0.181-0.025,0.261-0.073c0.124-0.076,0.209-0.202,0.232-0.346
		c0.007-0.042,0.627-4.228-4.737-6.479C18.104,2.673,17.93,2.691,17.79,2.784z M22.021,8.42c-2.437-1.073-3.154-3.212-3.366-4.394
		C21.417,5.46,21.944,7.42,22.021,8.42z"/>
	<path fill="#808184" d="M23.129,3.937c1.138,0,2.272-0.261,3.372-0.776c0.138-0.064,0.239-0.188,0.274-0.336
		c0.035-0.148,0.001-0.305-0.093-0.425c-0.062-0.08-1.575-1.963-4.822-1.963c-1.172,0-2.433,0.25-3.747,0.742
		c-0.162,0.061-0.282,0.202-0.315,0.373c-0.033,0.17,0.025,0.346,0.153,0.464C18.037,2.094,20.082,3.937,23.129,3.937
		C23.128,3.937,23.128,3.937,23.129,3.937z M21.86,1.437c1.774,0,2.923,0.638,3.524,1.103c-0.745,0.264-1.501,0.397-2.256,0.397
		h-0.001c-1.647,0-2.982-0.637-3.759-1.122C20.241,1.563,21.076,1.437,21.86,1.437z"/>
</g>
</svg>
