<?xml version="1.0" encoding="utf-8"?>
<!-- Generator: Adobe Illustrator 18.0.0, SVG Export Plug-In . SVG Version: 6.00 Build 0)  -->
<!DOCTYPE svg PUBLIC "-//W3C//DTD SVG 1.1//EN" "http://www.w3.org/Graphics/SVG/1.1/DTD/svg11.dtd">
<svg version="1.1" id="Layer_1" xmlns="http://www.w3.org/2000/svg" xmlns:xlink="http://www.w3.org/1999/xlink" x="0px" y="0px"
	 width="35px" height="32px" viewBox="0 0 35 32" enable-background="new 0 0 35 32" xml:space="preserve">
<g>
	<path fill="#808184" d="M1.5,25H11c0.276,0,0.5-0.224,0.5-0.5S11.276,24,11,24H1.5C1.225,24,1,23.776,1,23.5v-15
		C1,8.224,1.225,8,1.5,8H11c0.276,0,0.5-0.224,0.5-0.5S11.276,7,11,7H1.5C0.673,7,0,7.673,0,8.5v15C0,24.327,0.673,25,1.5,25z"/>
	<path fill="#808184" d="M31,12V8.5C31,7.673,30.327,7,29.5,7H20c-0.276,0-0.5,0.224-0.5,0.5S19.724,8,20,8h9.5
		C29.775,8,30,8.224,30,8.5v15c0,0.276-0.225,0.5-0.5,0.5H19c-0.276,0-0.5,0.224-0.5,0.5S18.724,25,19,25h10.5
		c0.827,0,1.5-0.673,1.5-1.5V21h2.5c0.827,0,1.5-0.673,1.5-1.5v-6c0-0.827-0.673-1.5-1.5-1.5H31z M34,13.5v6
		c0,0.276-0.225,0.5-0.5,0.5H31v-7h2.5C33.775,13,34,13.224,34,13.5z"/>
	<path fill="#808184" d="M12.909,31.733c0.06,0.023,0.122,0.035,0.183,0.035c0.176,0,0.344-0.093,0.435-0.253l10.65-18.768
		c0.088-0.155,0.087-0.344-0.003-0.498C24.085,12.095,23.92,12,23.742,12h-7.076l3.062-11.605c0.062-0.236-0.056-0.483-0.278-0.583
		c-0.221-0.099-0.484-0.025-0.621,0.178L7.326,17.222c-0.103,0.154-0.112,0.351-0.024,0.514C7.389,17.898,7.558,18,7.742,18h7.947
		l-3.084,13.153C12.548,31.396,12.678,31.643,12.909,31.733z M16.807,17.614c0.035-0.149,0-0.305-0.095-0.425S16.473,17,16.32,17
		H8.677l9.32-13.961l-2.464,9.334c-0.04,0.15-0.008,0.31,0.087,0.433S15.861,13,16.017,13h6.867l-8.512,14.999L16.807,17.614z"/>
</g>
</svg>
