<?xml version="1.0" encoding="utf-8"?>
<!-- Generator: Adobe Illustrator 18.0.0, SVG Export Plug-In . SVG Version: 6.00 Build 0)  -->
<!DOCTYPE svg PUBLIC "-//W3C//DTD SVG 1.1//EN" "http://www.w3.org/Graphics/SVG/1.1/DTD/svg11.dtd">
<svg version="1.1" id="Layer_1" xmlns="http://www.w3.org/2000/svg" xmlns:xlink="http://www.w3.org/1999/xlink" x="0px" y="0px"
	 width="19px" height="32px" viewBox="0 0 19 32" enable-background="new 0 0 19 32" xml:space="preserve">
<g>
	<path fill="#808184" d="M9.5,15.949v0.323l-9.287,8.976c-0.198,0.192-0.204,0.508-0.012,0.707s0.508,0.204,0.707,0.012L9.5,17.663
		v12.835c0,0.617,0.37,1.164,0.943,1.393c0.183,0.073,0.373,0.108,0.56,0.108c0.402,0,0.794-0.163,1.084-0.467l6.16-6.476
		c0.566-0.596,0.546-1.544-0.046-2.114l-7.093-6.833l7.098-6.86c0.583-0.564,0.608-1.506,0.056-2.1l-6.163-6.627
		c-0.423-0.456-1.071-0.601-1.647-0.375C9.874,0.375,9.5,0.923,9.5,1.544v13.017L0.88,6.257c-0.198-0.19-0.515-0.186-0.707,0.014
		C-0.019,6.47-0.013,6.786,0.187,6.978L9.5,15.949z M10.5,1.544c0-0.316,0.243-0.436,0.317-0.465
		c0.034-0.013,0.105-0.036,0.193-0.036c0.107,0,0.238,0.034,0.356,0.161l6.163,6.627c0.184,0.198,0.175,0.512-0.019,0.7l-7.01,6.775
		V1.544z M10.5,16.912l7.007,6.75c0.197,0.19,0.204,0.506,0.015,0.705l-6.16,6.476c-0.216,0.227-0.474,0.15-0.548,0.12
		c-0.074-0.029-0.314-0.15-0.314-0.464V16.912z"/>
</g>
</svg>
