<?xml version="1.0" encoding="utf-8"?>
<!-- Generator: Adobe Illustrator 18.0.0, SVG Export Plug-In . SVG Version: 6.00 Build 0)  -->
<!DOCTYPE svg PUBLIC "-//W3C//DTD SVG 1.1//EN" "http://www.w3.org/Graphics/SVG/1.1/DTD/svg11.dtd">
<svg version="1.1" id="Layer_1" xmlns="http://www.w3.org/2000/svg" xmlns:xlink="http://www.w3.org/1999/xlink" x="0px" y="0px"
	 width="36px" height="32px" viewBox="0 0 36 32" enable-background="new 0 0 36 32" xml:space="preserve">
<g>
	<path fill="#808184" d="M34.473,11H18.105L28.258,0.848c0.195-0.195,0.195-0.512,0-0.707s-0.512-0.195-0.707,0L16.691,11H1.527
		c-0.413,0-0.812,0.171-1.098,0.471c-0.28,0.295-0.424,0.679-0.403,1.081c0.331,6.594,3.825,12.717,8.984,15.895
		C9.009,28.465,9,28.481,9,28.5v2c0,0.827,0.673,1.5,1.5,1.5h15c0.827,0,1.5-0.673,1.5-1.5v-2c0-0.015-0.007-0.028-0.009-0.042
		c5.158-3.177,8.652-9.307,8.982-15.905c0.021-0.402-0.123-0.786-0.403-1.082C35.285,11.171,34.886,11,34.473,11z M1.024,12.501
		c-0.006-0.125,0.04-0.247,0.13-0.342C1.251,12.058,1.387,12,1.527,12h6.681c-0.002,0.018-0.01,0.033-0.01,0.051
		c0,7.594,2.306,13.161,6.536,15.949h-4.508C4.963,25.132,1.354,19.066,1.024,12.501z M26,30.5c0,0.276-0.225,0.5-0.5,0.5h-15
		c-0.275,0-0.5-0.224-0.5-0.5V29h16V30.5z M25.796,28h-8.98c-6.622-2.924-7.617-11.238-7.617-15.949c0-0.018-0.008-0.034-0.01-0.051
		h25.285c0.141,0,0.276,0.058,0.373,0.16c0.09,0.095,0.136,0.216,0.13,0.342C34.647,19.062,31.047,25.129,25.796,28z"/>
</g>
</svg>
