<?xml version="1.0" encoding="utf-8"?>
<!-- Generator: Adobe Illustrator 18.0.0, SVG Export Plug-In . SVG Version: 6.00 Build 0)  -->
<!DOCTYPE svg PUBLIC "-//W3C//DTD SVG 1.1//EN" "http://www.w3.org/Graphics/SVG/1.1/DTD/svg11.dtd">
<svg version="1.1" id="Layer_1" xmlns="http://www.w3.org/2000/svg" xmlns:xlink="http://www.w3.org/1999/xlink" x="0px" y="0px"
	 width="35px" height="32px" viewBox="0 0 35 32" enable-background="new 0 0 35 32" xml:space="preserve">
<g>
	<path fill="#808184" d="M30.418,0.632L16.185,12.212c-0.214,0.174-0.247,0.489-0.072,0.703c0.175,0.214,0.489,0.248,0.703,0.072
		L31.049,1.407c0.71-0.577,1.744-0.538,2.407,0.091c0.656,0.623,0.729,1.626,0.168,2.333L22.24,18.189
		c-0.172,0.216-0.135,0.531,0.081,0.702C22.413,18.965,22.522,19,22.631,19c0.147,0,0.293-0.065,0.392-0.189L34.407,4.453
		c0.885-1.115,0.772-2.697-0.263-3.68C33.118-0.202,31.515-0.262,30.418,0.632z"/>
	<path fill="#808184" d="M9.282,32c2.244,0,4.372-0.512,6.154-1.479c4.446-2.416,5.367-7.193,5.557-9.135
		c0.05-0.513-0.136-1.016-0.509-1.378l-4.623-4.496c-0.292-0.286-0.674-0.457-1.075-0.481c-7.506-0.462-8.796,4.778-9.65,8.201
		l-0.044,0.18c-0.569,2.275-2.868,3.028-4.188,3.273c-0.396,0.074-0.71,0.344-0.842,0.722c-0.132,0.381-0.051,0.792,0.217,1.099
		C2.163,30.66,5.612,32,9.282,32z M1.006,27.732c0.019-0.055,0.065-0.063,0.081-0.066c1.556-0.29,4.271-1.197,4.975-4.014
		l0.045-0.18C6.937,20.143,7.971,16,13.866,16c0.276,0,0.561,0.009,0.858,0.027c0.159,0.01,0.319,0.083,0.439,0.2l4.623,4.497
		c0.154,0.15,0.231,0.356,0.211,0.564c-0.174,1.783-1.014,6.167-5.039,8.354C13.322,30.53,11.359,31,9.282,31
		c-3.338,0-6.576-1.238-8.25-3.154C0.993,27.802,0.997,27.76,1.006,27.732z"/>
</g>
</svg>
