<?xml version="1.0" encoding="utf-8"?>
<!-- Generator: Adobe Illustrator 18.0.0, SVG Export Plug-In . SVG Version: 6.00 Build 0)  -->
<!DOCTYPE svg PUBLIC "-//W3C//DTD SVG 1.1//EN" "http://www.w3.org/Graphics/SVG/1.1/DTD/svg11.dtd">
<svg version="1.1" id="Layer_1" xmlns="http://www.w3.org/2000/svg" xmlns:xlink="http://www.w3.org/1999/xlink" x="0px" y="0px"
	 width="38px" height="32px" viewBox="0 0 38 32" enable-background="new 0 0 38 32" xml:space="preserve">
<g>
	<path fill="#808184" d="M1.5,32h35c0.827,0,1.5-0.673,1.5-1.5v-25C38,4.673,37.327,4,36.5,4h-35C0.673,4,0,4.673,0,5.5v25
		C0,31.327,0.673,32,1.5,32z M1,5.5C1,5.224,1.225,5,1.5,5h35C36.775,5,37,5.224,37,5.5v25c0,0.276-0.225,0.5-0.5,0.5h-35
		C1.225,31,1,30.776,1,30.5V5.5z"/>
	<path fill="#808184" d="M19,25.988c4.963,0,9-4.038,9-9c0-4.962-4.037-9-9-9s-9,4.038-9,9C10,21.95,14.037,25.988,19,25.988z
		 M19,8.987c4.411,0,8,3.589,8,8c0,4.412-3.589,8-8,8s-8-3.589-8-8C11,12.576,14.589,8.987,19,8.987z"/>
	<path fill="#808184" d="M19,23.318c0.276,0,0.5-0.224,0.5-0.5s-0.224-0.5-0.5-0.5c-2.939,0-5.33-2.391-5.33-5.331
		c0-0.276-0.224-0.5-0.5-0.5s-0.5,0.224-0.5,0.5C12.67,20.478,15.51,23.318,19,23.318z"/>
	<path fill="#808184" d="M16.234,3.071c0.276,0,0.5-0.224,0.5-0.5C16.734,1.705,17.439,1,18.306,1h5.389
		c0.866,0,1.571,0.705,1.571,1.571c0,0.276,0.224,0.5,0.5,0.5s0.5-0.224,0.5-0.5C26.266,1.153,25.112,0,23.694,0h-5.389
		c-1.418,0-2.571,1.153-2.571,2.571C15.734,2.848,15.958,3.071,16.234,3.071z"/>
	<path fill="#808184" d="M6.5,3C6.776,3,7,2.776,7,2.5C7,1.673,7.673,1,8.5,1S10,1.673,10,2.5C10,2.776,10.224,3,10.5,3
		S11,2.776,11,2.5C11,1.122,9.879,0,8.5,0S6,1.122,6,2.5C6,2.776,6.224,3,6.5,3z"/>
</g>
</svg>
