<?xml version="1.0" encoding="utf-8"?>
<!-- Generator: Adobe Illustrator 18.0.0, SVG Export Plug-In . SVG Version: 6.00 Build 0)  -->
<!DOCTYPE svg PUBLIC "-//W3C//DTD SVG 1.1//EN" "http://www.w3.org/Graphics/SVG/1.1/DTD/svg11.dtd">
<svg version="1.1" id="Layer_1" xmlns="http://www.w3.org/2000/svg" xmlns:xlink="http://www.w3.org/1999/xlink" x="0px" y="0px"
	 width="44px" height="32px" viewBox="0 0 44 32" enable-background="new 0 0 44 32" xml:space="preserve">
<g>
	<path fill="#808184" d="M40.849,11.529c1.106-0.509,2.095-1.066,2.942-1.666c0.226-0.16,0.278-0.472,0.119-0.697
		c-0.159-0.226-0.472-0.279-0.697-0.119c-1.053,0.747-2.34,1.424-3.807,2.021L37.549,3.92C36.846,1.575,34.729,0,32.281,0h-20.56
		C9.273,0,7.156,1.575,6.448,3.938L4.609,11.02c-0.037,0.003-0.075,0.002-0.111,0.006c-1.427-0.588-2.681-1.25-3.71-1.98
		C0.562,8.886,0.25,8.939,0.09,9.164s-0.107,0.538,0.118,0.697c0.795,0.564,1.719,1.088,2.744,1.572C1.125,12.27,0,14.226,0,16.5v4
		c0,2.528,1.717,4.657,4.044,5.298C4.017,25.86,4,25.928,4,26v1.371C4,29.923,6.019,32,8.5,32c2.481,0,4.5-2.077,4.5-4.629V26h18
		v1.371C31,29.923,33.019,32,35.5,32c2.481,0,4.5-2.077,4.5-4.629V26c0-0.072-0.017-0.14-0.044-0.202
		C42.283,25.158,44,23.028,44,20.5v-4C44,14.304,42.946,12.411,40.849,11.529z M7.411,4.207C7.986,2.289,9.718,1,11.721,1h20.56
		c2.002,0,3.735,1.289,4.306,3.189l1.772,6.825C38.239,11.009,38.123,11,38,11v0.596c-4.365,1.514-10.027,2.389-15.999,2.389
		c-6.188,0-12.04-0.94-16.465-2.558L7.411,4.207z M12,27.371C12,29.372,10.43,31,8.5,31C6.57,31,5,29.372,5,27.371V26
		c0-0.009-0.005-0.017-0.005-0.026C5.162,25.99,5.33,26,5.501,26H12V27.371z M39,26v1.371C39,29.372,37.43,31,35.5,31
		c-1.93,0-3.5-1.628-3.5-3.629V26h6.501c0.17,0,0.338-0.01,0.504-0.026C39.005,25.983,39,25.991,39,26z M43,20.5
		c0,2.481-2.018,4.5-4.499,4.5h-33C3.019,25,1,22.981,1,20.5v-4c0-2.243,1.635-4.092,3.426-4.43
		c4.631,1.838,10.926,2.914,17.575,2.914c6.536,0,12.727-1.042,17.335-2.823C41.573,12.667,43,14.412,43,16.5V20.5z"/>
	<path fill="#808184" d="M7.154,15.5c-1.654,0-3,1.346-3,3s1.346,3,3,3s3-1.346,3-3S8.809,15.5,7.154,15.5z M7.154,20.5
		c-1.103,0-2-0.897-2-2s0.897-2,2-2s2,0.897,2,2S8.257,20.5,7.154,20.5z"/>
	<path fill="#808184" d="M37.154,15.5c-1.654,0-3,1.346-3,3s1.346,3,3,3s3-1.346,3-3S38.809,15.5,37.154,15.5z M37.154,20.5
		c-1.103,0-2-0.897-2-2s0.897-2,2-2s2,0.897,2,2S38.257,20.5,37.154,20.5z"/>
	<path fill="#808184" d="M18.654,8c0.128,0,0.256-0.049,0.354-0.146l2.656-2.656c0.195-0.195,0.195-0.512,0-0.707
		s-0.512-0.195-0.707,0l-2.656,2.656c-0.195,0.195-0.195,0.512,0,0.707C18.398,7.951,18.526,8,18.654,8z"/>
	<path fill="#808184" d="M18.654,12.29c0.128,0,0.256-0.049,0.354-0.146l7.075-7.075c0.195-0.195,0.195-0.512,0-0.707
		s-0.512-0.195-0.707,0l-7.075,7.075c-0.195,0.195-0.195,0.512,0,0.707C18.398,12.241,18.526,12.29,18.654,12.29z"/>
	<path fill="#808184" d="M21.5,17.5c-0.276,0-0.5,0.224-0.5,0.5v3c0,0.276,0.224,0.5,0.5,0.5S22,21.276,22,21v-3
		C22,17.724,21.776,17.5,21.5,17.5z"/>
	<path fill="#808184" d="M17.5,17.5c-0.276,0-0.5,0.224-0.5,0.5v3c0,0.276,0.224,0.5,0.5,0.5S18,21.276,18,21v-3
		C18,17.724,17.776,17.5,17.5,17.5z"/>
	<path fill="#808184" d="M25.5,17.5c-0.276,0-0.5,0.224-0.5,0.5v3c0,0.276,0.224,0.5,0.5,0.5S26,21.276,26,21v-3
		C26,17.724,25.776,17.5,25.5,17.5z"/>
</g>
</svg>
