<?xml version="1.0" encoding="utf-8"?>
<!-- Generator: Adobe Illustrator 18.0.0, SVG Export Plug-In . SVG Version: 6.00 Build 0)  -->
<!DOCTYPE svg PUBLIC "-//W3C//DTD SVG 1.1//EN" "http://www.w3.org/Graphics/SVG/1.1/DTD/svg11.dtd">
<svg version="1.1" id="Layer_1" xmlns="http://www.w3.org/2000/svg" xmlns:xlink="http://www.w3.org/1999/xlink" x="0px" y="0px"
	 width="33px" height="32px" viewBox="0 0 33 32" enable-background="new 0 0 33 32" xml:space="preserve">
<g>
	<path fill="#808184" d="M24.5,0h-16C7.673,0,7,0.673,7,1.5v29C7,31.327,7.673,32,8.5,32h16c0.827,0,1.5-0.673,1.5-1.5v-29
		C26,0.673,25.327,0,24.5,0z M25,30.5c0,0.275-0.224,0.5-0.5,0.5h-16C8.224,31,8,30.775,8,30.5v-29C8,1.225,8.224,1,8.5,1h16
		C24.776,1,25,1.225,25,1.5V30.5z"/>
	<path fill="#808184" d="M31.697,28.356c-0.072,0.03-0.32,0.113-0.542-0.097l-2.062-1.957c-0.201-0.19-0.516-0.183-0.707,0.018
		c-0.19,0.201-0.182,0.518,0.019,0.707l2.061,1.957c0.288,0.273,0.652,0.416,1.025,0.416c0.201,0,0.404-0.041,0.599-0.125
		C32.652,29.035,33,28.507,33,27.897V4.049c0-0.604-0.343-1.13-0.896-1.373s-1.174-0.141-1.618,0.269l-2.179,2
		c-0.204,0.187-0.217,0.503-0.03,0.706c0.187,0.203,0.502,0.216,0.706,0.03l2.179-2c0.224-0.205,0.47-0.119,0.54-0.09
		C31.771,3.622,32,3.746,32,4.049v23.849C32,28.203,31.768,28.326,31.697,28.356z"/>
	<path fill="#808184" d="M1.289,3.463c0.067-0.03,0.306-0.12,0.532,0.07l2.608,2.185c0.213,0.18,0.527,0.15,0.705-0.062
		s0.149-0.527-0.062-0.704L2.463,2.768C2.011,2.389,1.399,2.307,0.866,2.557C0.332,2.807,0,3.327,0,3.917v24.127
		c0,0.594,0.335,1.116,0.875,1.364c0.204,0.093,0.417,0.139,0.629,0.139c0.35,0,0.694-0.125,0.975-0.366l2.453-2.114
		c0.209-0.181,0.232-0.496,0.052-0.705c-0.181-0.211-0.497-0.232-0.706-0.053l-2.453,2.114c-0.224,0.195-0.465,0.107-0.534,0.076
		C1.224,28.468,1,28.342,1,28.044V3.917C1,3.621,1.221,3.495,1.289,3.463z"/>
</g>
</svg>
