<?xml version="1.0" encoding="utf-8"?>
<!-- Generator: Adobe Illustrator 18.0.0, SVG Export Plug-In . SVG Version: 6.00 Build 0)  -->
<!DOCTYPE svg PUBLIC "-//W3C//DTD SVG 1.1//EN" "http://www.w3.org/Graphics/SVG/1.1/DTD/svg11.dtd">
<svg version="1.1" id="Layer_1" xmlns="http://www.w3.org/2000/svg" xmlns:xlink="http://www.w3.org/1999/xlink" x="0px" y="0px"
	 width="33px" height="32px" viewBox="0 0 33 32" enable-background="new 0 0 33 32" xml:space="preserve">
<g>
	<path fill="#808184" d="M20.219,8.125c0.198-0.193,0.202-0.51,0.009-0.707c-0.193-0.198-0.509-0.201-0.707-0.009L7.325,19.313
		c-0.799,0.78-1.239,1.822-1.239,2.934s0.44,2.154,1.239,2.934c1.647,1.608,4.329,1.608,5.976,0l13.892-13.561
		c1.313-1.282,2.036-2.993,2.036-4.819c0-1.826-0.723-3.538-2.036-4.819c-2.712-2.647-7.127-2.647-9.838,0L2.764,16.226
		C0.981,17.965,0,20.288,0,22.766c0,2.479,0.981,4.802,2.764,6.542c1.842,1.798,4.263,2.698,6.683,2.698
		c2.42,0,4.841-0.899,6.683-2.698l16.72-16.321c0.198-0.193,0.202-0.51,0.009-0.707c-0.192-0.198-0.509-0.201-0.707-0.009
		l-16.72,16.321c-3.3,3.222-8.67,3.222-11.969,0C1.874,27.042,1,24.973,1,22.767s0.875-4.275,2.462-5.825L18.053,2.698
		c2.327-2.272,6.114-2.273,8.442,0c1.118,1.092,1.734,2.549,1.734,4.104c0,1.554-0.616,3.011-1.734,4.103L12.603,24.466
		c-1.263,1.232-3.317,1.232-4.58,0c-0.604-0.59-0.938-1.378-0.938-2.218s0.333-1.628,0.938-2.218L20.219,8.125z"/>
</g>
</svg>
