<?xml version="1.0" encoding="utf-8"?>
<!-- Generator: Adobe Illustrator 18.0.0, SVG Export Plug-In . SVG Version: 6.00 Build 0)  -->
<!DOCTYPE svg PUBLIC "-//W3C//DTD SVG 1.1//EN" "http://www.w3.org/Graphics/SVG/1.1/DTD/svg11.dtd">
<svg version="1.1" id="Layer_1" xmlns="http://www.w3.org/2000/svg" xmlns:xlink="http://www.w3.org/1999/xlink" x="0px" y="0px"
	 width="32px" height="32px" viewBox="0 0 32 32" enable-background="new 0 0 32 32" xml:space="preserve">
<g>
	<path fill="#808184" d="M31.5,28H5c-0.275,0-0.5-0.225-0.5-0.5V1c0-0.276-0.224-0.5-0.5-0.5S3.5,0.724,3.5,1v3h-3
		C0.224,4,0,4.224,0,4.5S0.224,5,0.5,5h3v22.5C3.5,28.327,4.173,29,5,29h22.5v3c0,0.276,0.224,0.5,0.5,0.5s0.5-0.224,0.5-0.5v-3h3
		c0.276,0,0.5-0.224,0.5-0.5S31.776,28,31.5,28z"/>
	<path fill="#808184" d="M28,25.5c0.276,0,0.5-0.224,0.5-0.5V5.5C28.5,4.673,27.827,4,27,4H7.5C7.224,4,7,4.224,7,4.5S7.224,5,7.5,5
		H27c0.275,0,0.5,0.225,0.5,0.5V25C27.5,25.276,27.724,25.5,28,25.5z"/>
</g>
</svg>
