<?xml version="1.0" encoding="utf-8"?>
<!-- Generator: Adobe Illustrator 18.0.0, SVG Export Plug-In . SVG Version: 6.00 Build 0)  -->
<!DOCTYPE svg PUBLIC "-//W3C//DTD SVG 1.1//EN" "http://www.w3.org/Graphics/SVG/1.1/DTD/svg11.dtd">
<svg version="1.1" id="Layer_1" xmlns="http://www.w3.org/2000/svg" xmlns:xlink="http://www.w3.org/1999/xlink" x="0px" y="0px"
	 width="37px" height="32px" viewBox="0 0 37 32" enable-background="new 0 0 37 32" xml:space="preserve">
<g>
	<path fill="#808184" d="M34.055,10.038c1.654,0,3-1.346,3-3s-1.346-3-3-3s-3,1.346-3,3c0,0.8,0.32,1.525,0.832,2.063
		c-1.564,0.562-4.817,2.016-7.544,5.013l-5.446-8.211c1.243-0.367,2.158-1.505,2.158-2.865c0-1.654-1.346-3-3-3s-3,1.346-3,3
		c0,1.376,0.936,2.525,2.2,2.878l-4.7,8.046C9.858,11.07,6.692,9.653,5.155,9.101c0.513-0.538,0.832-1.263,0.832-2.063
		c0-1.654-1.346-3-3-3s-3,1.346-3,3s1.346,3,3,3c0.253,0,0.495-0.041,0.729-0.1L6.527,26H3c-1.654,0-3,1.346-3,3s1.346,3,3,3h31
		c1.654,0,3-1.346,3-3s-1.346-3-3-3h-3.485l2.811-16.062C33.56,9.997,33.802,10.038,34.055,10.038z M34.055,5.038
		c1.103,0,2,0.897,2,2s-0.897,2-2,2s-2-0.897-2-2S32.952,5.038,34.055,5.038z M16.055,3.038c0-1.103,0.897-2,2-2s2,0.897,2,2
		s-0.897,2-2,2S16.055,4.141,16.055,3.038z M0.987,7.038c0-1.103,0.897-2,2-2s2,0.897,2,2s-0.897,2-2,2S0.987,8.141,0.987,7.038z
		 M36,29c0,1.103-0.897,2-2,2H3c-1.103,0-2-0.897-2-2s0.897-2,2-2h31C35.103,27,36,27.897,36,29z M29.5,26H7.542L4.746,10.022
		c2.102,0.763,7.975,3.418,10.339,9.915c0.095,0.26,0.38,0.394,0.641,0.299c0.26-0.095,0.394-0.381,0.299-0.641
		c-0.7-1.923-1.681-3.511-2.775-4.84l4.832-8.272l5.558,8.381c0.01,0.015,0.025,0.023,0.037,0.036
		c-1.046,1.3-1.984,2.841-2.659,4.695c-0.095,0.26,0.039,0.546,0.299,0.641c0.261,0.096,0.546-0.039,0.641-0.299
		c2.359-6.484,8.236-9.147,10.339-9.913L29.5,26z"/>
</g>
</svg>
