<?xml version="1.0" encoding="utf-8"?>
<!-- Generator: Adobe Illustrator 18.0.0, SVG Export Plug-In . SVG Version: 6.00 Build 0)  -->
<!DOCTYPE svg PUBLIC "-//W3C//DTD SVG 1.1//EN" "http://www.w3.org/Graphics/SVG/1.1/DTD/svg11.dtd">
<svg version="1.1" id="Layer_1" xmlns="http://www.w3.org/2000/svg" xmlns:xlink="http://www.w3.org/1999/xlink" x="0px" y="0px"
	 width="37px" height="32px" viewBox="0 0 37 32" enable-background="new 0 0 37 32" xml:space="preserve">
<g>
	<path fill="#808184" d="M25,32c0.276,0,0.5-0.224,0.5-0.5S25.276,31,25,31H12c-0.276,0-0.5,0.224-0.5,0.5S11.724,32,12,32H25z"/>
	<path fill="#808184" d="M2.199,13c0.057,0,0.114-0.009,0.17-0.03c0.26-0.094,0.395-0.38,0.3-0.64L1.745,9.773
		c-0.428-1.094-0.293-2.278,0.37-3.248C2.777,5.556,3.83,5,5.005,5H6v7.5c0,6.726,5.343,12.212,12.005,12.475
		C18.005,24.984,18,24.991,18,25v3h-3c-0.276,0-0.5,0.224-0.5,0.5S14.724,29,15,29h7c0.276,0,0.5-0.224,0.5-0.5S22.276,28,22,28h-3
		v-3c0-0.009-0.005-0.016-0.005-0.025C25.657,24.712,31,19.226,31,12.5V5h1.032c1.186,0,2.28,0.592,2.929,1.584
		c0.648,0.992,0.753,2.233,0.282,3.308l-1.122,2.396c-0.117,0.25-0.009,0.548,0.241,0.665C34.431,12.985,34.503,13,34.574,13
		c0.188,0,0.368-0.106,0.453-0.288l1.127-2.408c0.611-1.396,0.478-2.992-0.356-4.267S33.556,4,32.032,4H31V1.5
		C31,0.673,30.327,0,29.5,0h-22C6.673,0,6,0.673,6,1.5V4H5.005C3.518,4,2.128,4.733,1.289,5.962s-1.017,2.79-0.479,4.164
		l0.919,2.544C1.803,12.874,1.994,13,2.199,13z M7,1.5C7,1.224,7.225,1,7.5,1h22C29.775,1,30,1.224,30,1.5v11
		C30,18.841,24.841,24,18.5,24S7,18.841,7,12.5V1.5z"/>
</g>
</svg>
