<?xml version="1.0" encoding="utf-8"?>
<!-- Generator: Adobe Illustrator 18.0.0, SVG Export Plug-In . SVG Version: 6.00 Build 0)  -->
<!DOCTYPE svg PUBLIC "-//W3C//DTD SVG 1.1//EN" "http://www.w3.org/Graphics/SVG/1.1/DTD/svg11.dtd">
<svg version="1.1" id="Layer_1" xmlns="http://www.w3.org/2000/svg" xmlns:xlink="http://www.w3.org/1999/xlink" x="0px" y="0px"
	 width="32px" height="32px" viewBox="0 0 32 32" enable-background="new 0 0 32 32" xml:space="preserve">
<g>
	<path fill="#808184" d="M27.336,12c0.133,0,0.26-0.053,0.354-0.146l3.99-4c0.195-0.195,0.195-0.512,0-0.707l-3.99-4
		C27.596,3.053,27.469,3,27.336,3H18V0.5C18,0.224,17.776,0,17.5,0h-3C14.224,0,14,0.224,14,0.5V3h-3.703C9.521,3,9,3.603,9,4.5v6
		c0,0.897,0.521,1.5,1.297,1.5H14v1H4.782c-0.14,0-0.273,0.059-0.368,0.162l-4.108,4.472c-0.175,0.19-0.176,0.482-0.002,0.674
		l4.108,4.528C4.507,22.94,4.641,23,4.782,23H14v8c0,0.276,0.224,0.5,0.5,0.5S15,31.276,15,31v-8h2v5c0,0.276,0.224,0.5,0.5,0.5
		S18,28.276,18,28v-5h4.674C23.455,23,24,22.383,24,21.5v-7c0-0.883-0.545-1.5-1.326-1.5H18v-1H27.336z M15,1h2v2h-2V1z M10.297,11
		C10.051,11,10,10.729,10,10.5v-6C10,4.271,10.051,4,10.297,4h16.832l3.491,3.5L27.128,11H10.297z M22.674,14
		C22.943,14,23,14.271,23,14.5v7c0,0.229-0.057,0.5-0.326,0.5H5.004l-3.652-4.026L5.002,14H22.674z M17,13h-2v-1h2V13z"/>
	<path fill="#808184" d="M17.849,19.472c0.827,0,1.5-0.673,1.5-1.5s-0.673-1.5-1.5-1.5s-1.5,0.673-1.5,1.5
		S17.022,19.472,17.849,19.472z M17.849,17.472c0.276,0,0.5,0.225,0.5,0.5s-0.224,0.5-0.5,0.5s-0.5-0.225-0.5-0.5
		S17.573,17.472,17.849,17.472z"/>
	<path fill="#808184" d="M13.47,19.472c0.827,0,1.5-0.673,1.5-1.5s-0.673-1.5-1.5-1.5s-1.5,0.673-1.5,1.5
		S12.643,19.472,13.47,19.472z M13.47,17.472c0.276,0,0.5,0.225,0.5,0.5s-0.224,0.5-0.5,0.5s-0.5-0.225-0.5-0.5
		S13.194,17.472,13.47,17.472z"/>
	<path fill="#808184" d="M9.091,19.472c0.827,0,1.5-0.673,1.5-1.5s-0.673-1.5-1.5-1.5s-1.5,0.673-1.5,1.5S8.264,19.472,9.091,19.472
		z M9.091,17.472c0.276,0,0.5,0.225,0.5,0.5s-0.224,0.5-0.5,0.5s-0.5-0.225-0.5-0.5S8.815,17.472,9.091,17.472z"/>
	<path fill="#808184" d="M17,7h-2c-0.276,0-0.5,0.224-0.5,0.5S14.724,8,15,8h2c0.276,0,0.5-0.224,0.5-0.5S17.276,7,17,7z"/>
	<path fill="#808184" d="M23,7h-3c-0.276,0-0.5,0.224-0.5,0.5S19.724,8,20,8h3c0.276,0,0.5-0.224,0.5-0.5S23.276,7,23,7z"/>
</g>
</svg>
