<?xml version="1.0" encoding="utf-8"?>
<!-- Generator: Adobe Illustrator 18.0.0, SVG Export Plug-In . SVG Version: 6.00 Build 0)  -->
<!DOCTYPE svg PUBLIC "-//W3C//DTD SVG 1.1//EN" "http://www.w3.org/Graphics/SVG/1.1/DTD/svg11.dtd">
<svg version="1.1" id="Layer_1" xmlns="http://www.w3.org/2000/svg" xmlns:xlink="http://www.w3.org/1999/xlink" x="0px" y="0px"
	 width="32px" height="32px" viewBox="0 0 32 32" enable-background="new 0 0 32 32" xml:space="preserve">
<g>
	<path fill="#808184" d="M0,1.5v29C0,31.327,0.673,32,1.5,32h29c0.827,0,1.5-0.673,1.5-1.5V13c0-0.276-0.224-0.5-0.5-0.5
		S31,12.724,31,13v17.5c0,0.276-0.224,0.5-0.5,0.5h-29C1.224,31,1,30.776,1,30.5v-29C1,1.224,1.224,1,1.5,1H18
		c0.276,0,0.5-0.224,0.5-0.5S18.276,0,18,0H1.5C0.673,0,0,0.673,0,1.5z"/>
	<path fill="#808184" d="M32,0.5C32,0.224,31.776,0,31.5,0H23c-0.276,0-0.5,0.224-0.5,0.5S22.724,1,23,1h7.197L19.301,11.896
		c-0.076,0.076-0.113,0.171-0.13,0.269C18.968,12.063,18.742,12,18.5,12h-5c-0.827,0-1.5,0.673-1.5,1.5v5c0,0.827,0.673,1.5,1.5,1.5
		h5c0.827,0,1.5-0.673,1.5-1.5v-5c0-0.284-0.084-0.547-0.222-0.774c0.084-0.022,0.164-0.057,0.23-0.122L31,1.611V8
		c0,0.276,0.224,0.5,0.5,0.5S32,8.276,32,8V0.5z M19,18.5c0,0.276-0.224,0.5-0.5,0.5h-5c-0.276,0-0.5-0.224-0.5-0.5v-5
		c0-0.276,0.224-0.5,0.5-0.5h5c0.276,0,0.5,0.224,0.5,0.5V18.5z"/>
</g>
</svg>
