<?xml version="1.0" encoding="utf-8"?>
<!-- Generator: Adobe Illustrator 18.0.0, SVG Export Plug-In . SVG Version: 6.00 Build 0)  -->
<!DOCTYPE svg PUBLIC "-//W3C//DTD SVG 1.1//EN" "http://www.w3.org/Graphics/SVG/1.1/DTD/svg11.dtd">
<svg version="1.1" id="Layer_1" xmlns="http://www.w3.org/2000/svg" xmlns:xlink="http://www.w3.org/1999/xlink" x="0px" y="0px"
	 width="32px" height="32px" viewBox="0 0 32 32" enable-background="new 0 0 32 32" xml:space="preserve">
<g>
	<path fill="#808184" d="M22.038,9.254l-9.998,10c-0.195,0.195-0.195,0.512,0,0.707c0.098,0.098,0.226,0.146,0.354,0.146
		s0.256-0.049,0.354-0.146l9.998-10c0.195-0.195,0.195-0.512,0-0.707S22.233,9.059,22.038,9.254z"/>
	<path fill="#808184" d="M31.5,7C31.776,7,32,6.776,32,6.5v-6c0-0.065-0.013-0.13-0.038-0.191c-0.051-0.122-0.148-0.22-0.271-0.271
		C31.63,0.013,31.565,0,31.5,0h-6C25.224,0,25,0.224,25,0.5S25.224,1,25.5,1h4.793l-4.146,4.146
		c-0.001,0.001-0.002,0.003-0.003,0.004C25.948,5.057,25.731,5,25.5,5h-15C9.673,5,9,5.673,9,6.5v15
		c0,0.296,0.089,0.571,0.238,0.804c-0.139-0.01-0.282,0.033-0.388,0.14l-6,6c-0.195,0.195-0.195,0.512,0,0.707
		c0.098,0.098,0.226,0.146,0.354,0.146s0.256-0.049,0.354-0.146l6-6c0.107-0.107,0.15-0.249,0.14-0.388
		C9.929,22.911,10.204,23,10.5,23h15c0.827,0,1.5-0.673,1.5-1.5v-15c0-0.231-0.057-0.448-0.151-0.644
		c0.001-0.001,0.003-0.002,0.004-0.003L31,1.707V6.5C31,6.776,31.224,7,31.5,7z M26,21.5c0,0.276-0.225,0.5-0.5,0.5h-15
		c-0.275,0-0.5-0.224-0.5-0.5v-15C10,6.224,10.225,6,10.5,6h15C25.775,6,26,6.224,26,6.5V21.5z"/>
	<path fill="#808184" d="M1.5,15h3.532c0.276,0,0.5-0.224,0.5-0.5S5.309,14,5.032,14H1.5C0.673,14,0,14.673,0,15.5v15
		C0,31.327,0.673,32,1.5,32h15c0.827,0,1.5-0.673,1.5-1.5v-3.756c0-0.276-0.224-0.5-0.5-0.5s-0.5,0.224-0.5,0.5V30.5
		c0,0.276-0.225,0.5-0.5,0.5h-15C1.225,31,1,30.776,1,30.5v-15C1,15.224,1.225,15,1.5,15z"/>
</g>
</svg>
