<?xml version="1.0" encoding="utf-8"?>
<!-- Generator: Adobe Illustrator 18.0.0, SVG Export Plug-In . SVG Version: 6.00 Build 0)  -->
<!DOCTYPE svg PUBLIC "-//W3C//DTD SVG 1.1//EN" "http://www.w3.org/Graphics/SVG/1.1/DTD/svg11.dtd">
<svg version="1.1" id="Layer_1" xmlns="http://www.w3.org/2000/svg" xmlns:xlink="http://www.w3.org/1999/xlink" x="0px" y="0px"
	 width="32px" height="32px" viewBox="0 0 32 32" enable-background="new 0 0 32 32" xml:space="preserve">
<g>
	<g>
		<path fill="#808184" d="M16-0.035C7.159-0.035-0.035,7.159-0.035,16S7.159,32.035,16,32.035S32.035,24.841,32.035,16
			S24.841-0.035,16-0.035z M16,30.965C7.748,30.965,1.035,24.252,1.035,16S7.748,1.035,16,1.035S30.965,7.748,30.965,16
			S24.252,30.965,16,30.965z"/>
		<path fill="#808184" d="M16,8.037c-4.414,0-8.005,3.591-8.005,8.005s3.591,8.005,8.005,8.005s8.005-3.591,8.005-8.005
			S20.414,8.037,16,8.037z M16,9.037c1.88,0,3.585,0.748,4.844,1.957c-1.214,1.555-2.73,2.541-4.287,3.139
			c-1.096-2.224-2.158-3.885-2.744-4.742C14.503,9.164,15.236,9.037,16,9.037z M12.868,9.785c0.512,0.741,1.592,2.396,2.723,4.671
			c-2.769,0.802-5.447,0.562-6.49,0.414C9.479,12.64,10.91,10.769,12.868,9.785z M11.216,21.146
			c-1.364-1.279-2.222-3.091-2.222-5.104c0-0.058,0.007-0.113,0.009-0.171c0.539,0.079,1.417,0.175,2.488,0.175
			c1.315,0,2.922-0.145,4.555-0.644c0.304,0.654,0.605,1.35,0.895,2.08C13.807,18.288,11.937,20.242,11.216,21.146z M16,23.048
			c-1.492,0-2.874-0.473-4.012-1.271c0.619-0.789,2.345-2.629,5.31-3.352c0.475,1.299,0.897,2.689,1.22,4.148
			C17.735,22.875,16.888,23.048,16,23.048z M19.443,22.136c-0.314-1.371-0.705-2.678-1.144-3.902
			c1.237-0.173,2.66-0.135,4.271,0.218C21.993,20.018,20.877,21.323,19.443,22.136z M22.853,17.491
			c-1.86-0.417-3.498-0.447-4.91-0.221c-0.303-0.777-0.62-1.514-0.94-2.207c1.623-0.642,3.218-1.676,4.527-3.305
			c0.921,1.186,1.475,2.67,1.475,4.285C23.005,16.539,22.952,17.023,22.853,17.491z"/>
	</g>
</g>
</svg>
