<?xml version="1.0" encoding="utf-8"?>
<!-- Generator: Adobe Illustrator 18.0.0, SVG Export Plug-In . SVG Version: 6.00 Build 0)  -->
<!DOCTYPE svg PUBLIC "-//W3C//DTD SVG 1.1//EN" "http://www.w3.org/Graphics/SVG/1.1/DTD/svg11.dtd">
<svg version="1.1" id="Layer_1" xmlns="http://www.w3.org/2000/svg" xmlns:xlink="http://www.w3.org/1999/xlink" x="0px" y="0px"
	 width="32px" height="32px" viewBox="0 0 32 32" enable-background="new 0 0 32 32" xml:space="preserve">
<g>
	<path fill="#808184" d="M16.189,12.168c1.378,0,2.5-1.122,2.5-2.5s-1.122-2.5-2.5-2.5s-2.5,1.122-2.5,2.5
		S14.811,12.168,16.189,12.168z M16.189,8.168c0.827,0,1.5,0.673,1.5,1.5s-0.673,1.5-1.5,1.5s-1.5-0.673-1.5-1.5
		S15.362,8.168,16.189,8.168z"/>
	<path fill="#808184" d="M16.189,18.168c1.378,0,2.5-1.122,2.5-2.5s-1.122-2.5-2.5-2.5s-2.5,1.122-2.5,2.5
		S14.811,18.168,16.189,18.168z M16.189,14.168c0.827,0,1.5,0.673,1.5,1.5s-0.673,1.5-1.5,1.5s-1.5-0.673-1.5-1.5
		S15.362,14.168,16.189,14.168z"/>
	<path fill="#808184" d="M16.189,24.168c1.378,0,2.5-1.122,2.5-2.5s-1.122-2.5-2.5-2.5s-2.5,1.122-2.5,2.5
		S14.811,24.168,16.189,24.168z M16.189,20.168c0.827,0,1.5,0.673,1.5,1.5s-0.673,1.5-1.5,1.5s-1.5-0.673-1.5-1.5
		S15.362,20.168,16.189,20.168z"/>
</g>
</svg>
