<?xml version="1.0" encoding="utf-8"?>
<!-- Generator: Adobe Illustrator 18.0.0, SVG Export Plug-In . SVG Version: 6.00 Build 0)  -->
<!DOCTYPE svg PUBLIC "-//W3C//DTD SVG 1.1//EN" "http://www.w3.org/Graphics/SVG/1.1/DTD/svg11.dtd">
<svg version="1.1" id="Layer_1" xmlns="http://www.w3.org/2000/svg" xmlns:xlink="http://www.w3.org/1999/xlink" x="0px" y="0px"
	 width="32px" height="32px" viewBox="0 0 32 32" enable-background="new 0 0 32 32" xml:space="preserve">
<g>
	<path fill="#808184" d="M12.199,11.716c0-1.487-1.21-2.696-2.696-2.696s-2.696,1.209-2.696,2.696s1.21,2.696,2.696,2.696
		S12.199,13.203,12.199,11.716z M7.807,11.716c0-0.936,0.761-1.696,1.696-1.696s1.696,0.761,1.696,1.696s-0.761,1.696-1.696,1.696
		S7.807,12.652,7.807,11.716z"/>
	<path fill="#808184" d="M21.025,9.035c-1.479,0-2.682,1.203-2.682,2.682c0,1.479,1.203,2.682,2.682,2.682
		c1.479,0,2.683-1.203,2.683-2.682C23.708,10.238,22.505,9.035,21.025,9.035z M21.025,13.398c-0.928,0-1.682-0.754-1.682-1.682
		c0-0.927,0.754-1.682,1.682-1.682s1.683,0.754,1.683,1.682C22.708,12.644,21.953,13.398,21.025,13.398z"/>
	<path fill="#808184" d="M16,0C7.178,0,0,7.178,0,16s7.178,16,16,16s16-7.178,16-16S24.822,0,16,0z M16,31C7.729,31,1,24.271,1,16
		S7.729,1,16,1s15,6.729,15,15S24.271,31,16,31z"/>
	<path fill="#808184" d="M16.133,19.472c-2.692,0-5.218,1.43-7.111,4.028c-0.162,0.223-0.113,0.536,0.109,0.698
		c0.089,0.065,0.192,0.096,0.295,0.096c0.154,0,0.306-0.071,0.404-0.206c1.7-2.332,3.938-3.617,6.303-3.617
		c2.348,0,4.574,1.269,6.271,3.571c0.164,0.224,0.476,0.27,0.699,0.106c0.222-0.164,0.27-0.477,0.105-0.699
		C21.318,20.885,18.806,19.472,16.133,19.472z"/>
</g>
</svg>
