<?xml version="1.0" encoding="utf-8"?>
<!-- Generator: Adobe Illustrator 18.0.0, SVG Export Plug-In . SVG Version: 6.00 Build 0)  -->
<!DOCTYPE svg PUBLIC "-//W3C//DTD SVG 1.1//EN" "http://www.w3.org/Graphics/SVG/1.1/DTD/svg11.dtd">
<svg version="1.1" id="Layer_1" xmlns="http://www.w3.org/2000/svg" xmlns:xlink="http://www.w3.org/1999/xlink" x="0px" y="0px"
	 width="24px" height="32px" viewBox="0 0 24 32" enable-background="new 0 0 24 32" xml:space="preserve">
<g>
	<path fill="#808184" d="M21.271,15.483L13,12.163V3.547C13,1.591,11.43,0,9.5,0S6,1.591,6,3.547V23.5C6,23.776,6.224,24,6.5,24
		S7,23.776,7,23.5V3.547C7,2.143,8.121,1,9.5,1S12,2.143,12,3.547v8.922c0,0.027,0,0.052,0,0.078v4.933c0,0.276,0.224,0.5,0.5,0.5
		s0.5-0.224,0.5-0.5v-4.242l7.903,3.176c1.531,0.604,2.365,2.125,2.136,3.698l-1.188,7.894C21.603,29.713,20.024,31,18.23,31H5.785
		c-0.492,0-0.96-0.225-1.253-0.602l-3.226-4.153C1.106,25.986,1,25.68,1,25.358v-5.361c0-0.394,0.16-0.766,0.451-1.046l1.524-1.472
		c0.198-0.192,0.204-0.509,0.012-0.707c-0.19-0.198-0.507-0.204-0.707-0.013l-1.523,1.472C0.275,18.695,0,19.339,0,19.997v5.361
		c0,0.538,0.184,1.07,0.518,1.5l3.225,4.153C4.223,31.63,4.986,32,5.785,32H18.23c2.287,0,4.253-1.655,4.573-3.85l1.226-7.894
		C24.325,18.221,23.235,16.259,21.271,15.483z"/>
</g>
</svg>
