<?xml version="1.0" encoding="utf-8"?>
<!-- Generator: Adobe Illustrator 18.0.0, SVG Export Plug-In . SVG Version: 6.00 Build 0)  -->
<!DOCTYPE svg PUBLIC "-//W3C//DTD SVG 1.1//EN" "http://www.w3.org/Graphics/SVG/1.1/DTD/svg11.dtd">
<svg version="1.1" id="Layer_1" xmlns="http://www.w3.org/2000/svg" xmlns:xlink="http://www.w3.org/1999/xlink" x="0px" y="0px"
	 width="32px" height="32px" viewBox="0 0 32 32" enable-background="new 0 0 32 32" xml:space="preserve">
<g>
	<path fill="#808184" d="M32,6.5C32,5.673,31.327,5,30.5,5H14.066c-0.175,0-0.339-0.093-0.429-0.243l-2.417-4.03
		C10.95,0.279,10.457,0,9.934,0H1.5C0.673,0,0,0.673,0,1.5V9c0,0.093,0.032,0.175,0.077,0.25C0.032,9.325,0,9.407,0,9.5v21
		C0,31.327,0.673,32,1.5,32h29c0.827,0,1.5-0.673,1.5-1.5v-21c0-0.093-0.032-0.175-0.077-0.25C31.968,9.175,32,9.093,32,9V6.5z
		 M31,30.5c0,0.276-0.224,0.5-0.5,0.5h-29C1.224,31,1,30.776,1,30.5V10h30V30.5z M1,9V1.5C1,1.224,1.224,1,1.5,1h8.434
		c0.175,0,0.339,0.093,0.429,0.243l2.417,4.03C13.05,5.721,13.543,6,14.066,6H30.5C30.776,6,31,6.224,31,6.5V9H1z"/>
</g>
</svg>
