<?xml version="1.0" encoding="utf-8"?>
<!-- Generator: Adobe Illustrator 18.0.0, SVG Export Plug-In . SVG Version: 6.00 Build 0)  -->
<!DOCTYPE svg PUBLIC "-//W3C//DTD SVG 1.1//EN" "http://www.w3.org/Graphics/SVG/1.1/DTD/svg11.dtd">
<svg version="1.1" id="Layer_1" xmlns="http://www.w3.org/2000/svg" xmlns:xlink="http://www.w3.org/1999/xlink" x="0px" y="0px"
	 width="28px" height="32px" viewBox="0 0 28 32" enable-background="new 0 0 28 32" xml:space="preserve">
<g>
	<path fill="#808184" d="M10.589,8.527c-2.803,0-5.471,1.125-7.513,3.166c-2.148,2.148-3.267,5.129-3.067,8.177
		c0.2,3.06,1.719,5.894,4.169,7.776c1.784,1.37,4.033,2.125,6.333,2.125c2.525,0,4.963-0.885,6.864-2.493
		c4.015-3.395,4.973-8.798,2.399-13.267l3.749-3.606l0.339,0.348c0.285,0.292,0.665,0.453,1.069,0.454
		c0.683,0,1.281-0.46,1.455-1.119l1.576-5.976c0.12-0.453,0.025-0.925-0.26-1.295c-0.366-0.475-1.004-0.692-1.584-0.534
		l-5.849,1.594c-0.518,0.141-0.912,0.534-1.053,1.052c-0.141,0.519-0.001,1.058,0.374,1.442l0.528,0.542l-3.615,3.48
		C14.743,9.171,12.708,8.527,10.589,8.527z M16.895,11.403l4.279-4.119c0.096-0.092,0.151-0.219,0.153-0.353
		c0.002-0.133-0.049-0.262-0.142-0.357l-0.88-0.902c-0.18-0.185-0.147-0.398-0.125-0.481c0.023-0.083,0.102-0.283,0.351-0.351
		l5.849-1.594c0.198-0.054,0.406,0.019,0.529,0.18c0.056,0.072,0.141,0.223,0.086,0.43L25.42,9.833
		c-0.068,0.258-0.294,0.374-0.488,0.374c-0.094,0-0.231-0.026-0.354-0.152l-0.686-0.703c-0.191-0.196-0.506-0.201-0.705-0.011
		l-4.394,4.227c-0.17,0.164-0.203,0.425-0.078,0.625c2.562,4.101,1.745,9.168-1.986,12.323c-1.721,1.456-3.929,2.257-6.219,2.257
		c-2.081,0-4.114-0.681-5.724-1.918c-2.222-1.707-3.6-4.276-3.781-7.048c-0.181-2.761,0.832-5.46,2.776-7.405
		c1.853-1.853,4.27-2.873,6.806-2.873c2.041,0,3.997,0.662,5.658,1.915C16.443,11.59,16.718,11.572,16.895,11.403z"/>
	<path fill="#808184" d="M10.615,12.943c-1.673,0-3.247,0.651-4.43,1.835c-1.184,1.183-1.835,2.757-1.835,4.43
		s0.651,3.247,1.835,4.43c1.183,1.184,2.757,1.835,4.43,1.835c1.674,0,3.247-0.652,4.431-1.835c2.443-2.443,2.443-6.417,0-8.86
		C13.862,13.595,12.289,12.943,10.615,12.943z M14.339,22.932c-0.995,0.995-2.317,1.542-3.724,1.542
		c-1.406,0-2.729-0.548-3.723-1.542S5.35,20.615,5.35,19.208s0.547-2.729,1.542-3.723s2.317-1.542,3.723-1.542
		c1.407,0,2.729,0.547,3.724,1.542C16.392,17.538,16.392,20.879,14.339,22.932z"/>
</g>
</svg>
