<?xml version="1.0" encoding="utf-8"?>
<!-- Generator: Adobe Illustrator 18.0.0, SVG Export Plug-In . SVG Version: 6.00 Build 0)  -->
<!DOCTYPE svg PUBLIC "-//W3C//DTD SVG 1.1//EN" "http://www.w3.org/Graphics/SVG/1.1/DTD/svg11.dtd">
<svg version="1.1" id="Layer_1" xmlns="http://www.w3.org/2000/svg" xmlns:xlink="http://www.w3.org/1999/xlink" x="0px" y="0px"
	 width="32px" height="32px" viewBox="0 0 32 32" enable-background="new 0 0 32 32" xml:space="preserve">
<g>
	<path fill="#808184" d="M16-0.035C7.158-0.035-0.034,7.159-0.034,16S7.158,32.035,16,32.035S32.034,24.841,32.034,16
		S24.842-0.035,16-0.035z M16,30.965C7.748,30.965,1.034,24.252,1.034,16S7.748,1.035,16,1.035S30.966,7.748,30.966,16
		S24.252,30.965,16,30.965z"/>
	<path fill="#808184" d="M16.487,18.747c-0.038-0.096-0.095-0.185-0.187-0.248c-0.848-0.573-1.323-1.183-1.413-1.811
		c-0.1-0.696,0.308-1.206,0.333-1.236c0.045-0.053,0.076-0.113,0.097-0.176c1.036-0.623,1.718-1.647,1.718-2.808
		c0-0.969-0.476-1.843-1.235-2.469H17c0.276,0,0.5-0.224,0.5-0.5S17.276,9,17,9h-4c-0.073,0-0.141,0.017-0.204,0.045
		c-2.128,0.093-3.83,1.585-3.83,3.423c0,1.897,1.81,3.44,4.034,3.44c0.307,0,0.603-0.035,0.891-0.091
		c-0.075,0.291-0.116,0.625-0.066,0.999c0.047,0.349,0.186,0.682,0.368,1.007c-0.371-0.065-0.753-0.109-1.151-0.109
		c-2.752,0-4.991,1.656-4.991,3.691s2.239,3.691,4.991,3.691c2.753,0,4.992-1.656,4.992-3.691
		C18.034,20.36,17.436,19.419,16.487,18.747z M10.034,12.469c0-1.308,1.331-2.372,2.966-2.372s2.966,1.064,2.966,2.372
		S14.635,14.84,13,14.84S10.034,13.776,10.034,12.469z M13.042,24.028c-2.163,0-3.923-1.176-3.923-2.622s1.76-2.622,3.923-2.622
		s3.924,1.176,3.924,2.622S15.205,24.028,13.042,24.028z"/>
	<path fill="#808184" d="M25,12h-2v-2c0-0.276-0.224-0.5-0.5-0.5S22,9.724,22,10v2h-2c-0.276,0-0.5,0.224-0.5,0.5S19.724,13,20,13h2
		v2c0,0.276,0.224,0.5,0.5,0.5S23,15.276,23,15v-2h2c0.276,0,0.5-0.224,0.5-0.5S25.276,12,25,12z"/>
</g>
</svg>
