<?xml version="1.0" encoding="utf-8"?>
<!-- Generator: Adobe Illustrator 18.0.0, SVG Export Plug-In . SVG Version: 6.00 Build 0)  -->
<!DOCTYPE svg PUBLIC "-//W3C//DTD SVG 1.1//EN" "http://www.w3.org/Graphics/SVG/1.1/DTD/svg11.dtd">
<svg version="1.1" id="Layer_1" xmlns="http://www.w3.org/2000/svg" xmlns:xlink="http://www.w3.org/1999/xlink" x="0px" y="0px"
	 width="32px" height="32px" viewBox="0 0 32 32" enable-background="new 0 0 32 32" xml:space="preserve">
<g>
	<path fill="#808184" d="M10.2,30.913c1.91,0.75,3.871,1.131,5.829,1.131c7.961,0,15.253-6.644,15.922-14.508
		c0.036-0.424-0.107-0.794-0.394-1.106C31.275,16.124,30.876,16,30.46,16h-0.247C30.211,8,24,1.789,16,1.787V1.541
		c0-0.826-0.625-1.497-1.457-1.497c-0.015,0-0.092,0.004-0.107,0.006C9.894,0.443,5.534,3.113,2.751,7.193
		c-2.742,4.02-3.503,8.748-2.155,13.312C1.985,25.207,5.578,29.098,10.2,30.913z M29.213,16H16.598C16.326,16,16,15.674,16,15.402
		V2.787C23,2.789,29.211,9,29.213,16z M3.59,7.757c2.616-3.834,6.661-6.343,10.954-6.713c0.28,0,0.457,0.223,0.457,0.497v13.861
		C15,16.226,15.774,17,16.598,17H30.46c0.139,0,0.267,0.005,0.361,0.107c0.099,0.107,0.146,0.222,0.134,0.37
		c-0.628,7.368-7.463,13.58-14.926,13.58c-1.832,0-3.67-0.363-5.464-1.068c-4.336-1.704-7.702-5.356-9.004-9.764
		C0.3,15.954,1.021,11.524,3.59,7.757z"/>
</g>
</svg>
