<?xml version="1.0" encoding="utf-8"?>
<!-- Generator: Adobe Illustrator 18.0.0, SVG Export Plug-In . SVG Version: 6.00 Build 0)  -->
<!DOCTYPE svg PUBLIC "-//W3C//DTD SVG 1.1//EN" "http://www.w3.org/Graphics/SVG/1.1/DTD/svg11.dtd">
<svg version="1.1" id="Layer_1" xmlns="http://www.w3.org/2000/svg" xmlns:xlink="http://www.w3.org/1999/xlink" x="0px" y="0px"
	 width="38px" height="32px" viewBox="0 0 38 32" enable-background="new 0 0 38 32" xml:space="preserve">
<g>
	<path fill="#808184" d="M6.502,22H7h1v-0.004c0,0.002,0.274,0.002,0.3,0.001c2.018-0.11,12.446-0.315,18.67,5.649
		c0.016,0.016,0.032,0.028,0.048,0.044c0.112,0.108,0.233,0.203,0.342,0.315c0.002,0.002,0.004,0.002,0.006,0.004
		c0.983,0.882,2.082,1.386,3.255,1.386c4.201,0,7.37-6.319,7.37-14.698C37.991,6.319,34.822,0,30.621,0
		c-1.138,0-2.207,0.473-3.168,1.305C19.028,8.569,8.526,8.997,8.437,9H7H6.472C2.782,9,0,11.648,0,15.161v0.196
		C0,18.958,2.978,22,6.502,22z M36.991,14.698c0,7.553-2.857,13.698-6.37,13.698c-3.577,0-6.599-6.273-6.599-13.698
		C24.022,7.273,27.044,1,30.621,1C34.133,1,36.991,7.145,36.991,14.698z M8.453,10c0.097,0,8.733-0.348,16.772-5.745
		c-1.368,2.645-2.203,6.32-2.203,10.443c0,4.006,0.793,7.581,2.093,10.207C18.691,20.73,10.315,20.899,8.431,21H7.369
		c-0.373-1.291-1.546-6-0.006-11H8.453z M1,15.161c0-2.894,2.281-5.076,5.324-5.147c-1.402,4.784-0.456,9.308,0.001,10.977
		C3.421,20.89,1,18.354,1,15.356V15.161z"/>
	<path fill="#808184" d="M25.5,11H25c-0.276,0-0.5,0.224-0.5,0.5S24.724,12,25,12h0.5c1.425,0,2.5,1.032,2.5,2.429
		C28,15.847,26.878,17,25.5,17H25c-0.276,0-0.5,0.224-0.5,0.5S24.724,18,25,18h0.5c1.93,0,3.5-1.602,3.5-3.599
		C29,12.494,27.462,11,25.5,11z"/>
	<path fill="#808184" d="M8.5,23.5C8.224,23.5,8,23.724,8,24v3.951C8,30.184,9.794,32,12,32s4-1.816,4-4.049V24
		c0-0.276-0.224-0.5-0.5-0.5S15,23.724,15,24v3.951C15,29.632,13.654,31,12,31s-3-1.368-3-3.049V24C9,23.724,8.776,23.5,8.5,23.5z"
		/>
</g>
</svg>
