<?xml version="1.0" encoding="utf-8"?>
<!-- Generator: Adobe Illustrator 18.0.0, SVG Export Plug-In . SVG Version: 6.00 Build 0)  -->
<!DOCTYPE svg PUBLIC "-//W3C//DTD SVG 1.1//EN" "http://www.w3.org/Graphics/SVG/1.1/DTD/svg11.dtd">
<svg version="1.1" id="Layer_1" xmlns="http://www.w3.org/2000/svg" xmlns:xlink="http://www.w3.org/1999/xlink" x="0px" y="0px"
	 width="45px" height="32px" viewBox="0 0 45 32" enable-background="new 0 0 45 32" xml:space="preserve">
<g>
	<path fill="#808184" d="M4.5,32h36c2.481,0,4.5-2.019,4.5-4.5c0-0.276-0.224-0.5-0.5-0.5H41V2.5C41,1.122,39.878,0,38.5,0h-32
		C5.122,0,4,1.122,4,2.5V27H0.5C0.224,27,0,27.224,0,27.5C0,29.981,2.019,32,4.5,32z M5,2.5C5,1.673,5.673,1,6.5,1h32
		C39.327,1,40,1.673,40,2.5V27H5V2.5z M43.964,28c-0.243,1.694-1.704,3-3.464,3h-36c-1.76,0-3.221-1.306-3.464-3H43.964z"/>
	<path fill="#808184" d="M35.5,4h-26C8.673,4,8,4.673,8,5.5v17C8,23.327,8.673,24,9.5,24h26c0.827,0,1.5-0.673,1.5-1.5v-17
		C37,4.673,36.327,4,35.5,4z M36,22.5c0,0.276-0.224,0.5-0.5,0.5h-26C9.224,23,9,22.776,9,22.5v-17C9,5.224,9.224,5,9.5,5h26
		C35.776,5,36,5.224,36,5.5V22.5z"/>
</g>
</svg>
