<?xml version="1.0" encoding="utf-8"?>
<!-- Generator: Adobe Illustrator 18.0.0, SVG Export Plug-In . SVG Version: 6.00 Build 0)  -->
<!DOCTYPE svg PUBLIC "-//W3C//DTD SVG 1.1//EN" "http://www.w3.org/Graphics/SVG/1.1/DTD/svg11.dtd">
<svg version="1.1" id="Layer_1" xmlns="http://www.w3.org/2000/svg" xmlns:xlink="http://www.w3.org/1999/xlink" x="0px" y="0px"
	 width="33px" height="32px" viewBox="0 0 33 32" enable-background="new 0 0 33 32" xml:space="preserve">
<g>
	<path fill="#808184" d="M33.004,22.403c0-0.557-0.304-1.067-0.794-1.331c-0.242-0.131-0.546-0.04-0.678,0.203
		c-0.131,0.243-0.04,0.546,0.203,0.678c0.243,0.13,0.269,0.358,0.269,0.45c0.001,0.092-0.025,0.32-0.269,0.451l-14.541,7.832
		c-0.438,0.237-0.962,0.24-1.402,0.011l-14.52-7.54c-0.245-0.127-0.275-0.355-0.276-0.447c-0.002-0.092,0.021-0.32,0.263-0.455
		c0.24-0.135,0.327-0.439,0.192-0.68c-0.135-0.243-0.441-0.327-0.681-0.193c-0.486,0.271-0.783,0.786-0.774,1.343
		c0.008,0.557,0.321,1.063,0.815,1.32l14.52,7.54c0.361,0.188,0.757,0.282,1.151,0.282c0.408,0,0.815-0.1,1.187-0.299l14.541-7.833
		C32.7,23.47,33.005,22.96,33.004,22.403z"/>
	<path fill="#808184" d="M0.811,17.637l14.521,7.54c0.361,0.188,0.757,0.282,1.151,0.282c0.408,0,0.815-0.1,1.187-0.299
		l14.541-7.833c0.49-0.264,0.795-0.774,0.794-1.332c0-0.557-0.304-1.067-0.794-1.331c-0.242-0.131-0.546-0.04-0.678,0.203
		c-0.131,0.243-0.04,0.546,0.203,0.678c0.243,0.13,0.269,0.358,0.269,0.45c0.001,0.092-0.025,0.32-0.269,0.451l-14.541,7.832
		c-0.438,0.237-0.962,0.239-1.402,0.011l-14.521-7.54c-0.245-0.127-0.274-0.354-0.276-0.446c-0.001-0.092,0.021-0.32,0.263-0.455
		c0.24-0.135,0.327-0.439,0.192-0.68c-0.135-0.242-0.44-0.327-0.681-0.193c-0.486,0.271-0.783,0.787-0.774,1.344
		C0.004,16.875,0.316,17.38,0.811,17.637z"/>
	<path fill="#808184" d="M0.812,11.229l14.52,7.54c0.354,0.184,0.752,0.281,1.151,0.281c0,0,0,0,0.001,0
		c0.412,0,0.822-0.104,1.186-0.299l14.541-7.833c0.49-0.264,0.795-0.774,0.794-1.332c0-0.557-0.304-1.067-0.794-1.331L17.702,0.443
		c-0.735-0.397-1.672-0.391-2.403,0.018L0.771,8.566C0.284,8.838-0.013,9.353-0.004,9.91C0.004,10.467,0.317,10.973,0.812,11.229z
		 M1.258,9.439l14.528-8.106c0.223-0.125,0.476-0.19,0.73-0.19c0.248,0,0.493,0.062,0.711,0.18l14.508,7.814
		c0.243,0.13,0.269,0.358,0.269,0.45c0.001,0.092-0.025,0.32-0.269,0.451l-14.541,7.832c-0.218,0.118-0.464,0.18-0.711,0.18
		c-0.001,0-0.001,0-0.001,0c-0.239,0-0.478-0.058-0.69-0.169l-14.52-7.54c-0.245-0.127-0.275-0.355-0.276-0.447
		C0.994,9.803,1.018,9.574,1.258,9.439z"/>
</g>
</svg>
