<?xml version="1.0" encoding="utf-8"?>
<!-- Generator: Adobe Illustrator 18.0.0, SVG Export Plug-In . SVG Version: 6.00 Build 0)  -->
<!DOCTYPE svg PUBLIC "-//W3C//DTD SVG 1.1//EN" "http://www.w3.org/Graphics/SVG/1.1/DTD/svg11.dtd">
<svg version="1.1" id="Layer_1" xmlns="http://www.w3.org/2000/svg" xmlns:xlink="http://www.w3.org/1999/xlink" x="0px" y="0px"
	 width="26px" height="32px" viewBox="0 0 26 32" enable-background="new 0 0 26 32" xml:space="preserve">
<g>
	<path fill="#808184" d="M11.092,6.703c0.827,0,1.5-0.673,1.5-1.5s-0.673-1.5-1.5-1.5s-1.5,0.673-1.5,1.5S10.265,6.703,11.092,6.703
		z M11.092,4.703c0.276,0,0.5,0.224,0.5,0.5s-0.224,0.5-0.5,0.5s-0.5-0.224-0.5-0.5S10.816,4.703,11.092,4.703z"/>
	<path fill="#808184" d="M14.928,6.703c0.827,0,1.5-0.673,1.5-1.5s-0.673-1.5-1.5-1.5s-1.5,0.673-1.5,1.5S14.101,6.703,14.928,6.703
		z M14.928,4.703c0.276,0,0.5,0.224,0.5,0.5s-0.224,0.5-0.5,0.5s-0.5-0.224-0.5-0.5S14.652,4.703,14.928,4.703z"/>
	<path fill="#808184" d="M12.542,12.933c0.084,0.056,0.181,0.084,0.277,0.084s0.193-0.028,0.277-0.084l3-2
		c0.139-0.093,0.223-0.249,0.223-0.416s-0.083-0.323-0.223-0.416l-3-2c-0.168-0.112-0.387-0.112-0.555,0l-3,2
		C9.403,10.194,9.32,10.35,9.32,10.517s0.083,0.323,0.223,0.416L12.542,12.933z M12.82,9.118l2.099,1.399l-2.099,1.399l-2.099-1.399
		L12.82,9.118z"/>
	<path fill="#808184" d="M0.478,27.255c0,0.604,0.235,1.173,0.663,1.601c0.102,0.102,0.214,0.193,0.344,0.279
		c0.025,0.02,0.052,0.038,0.081,0.052l4.419,2.265C6.529,31.811,7.161,32,7.812,32c0.888,0,1.723-0.346,2.351-0.974
		c0.116-0.116,0.216-0.243,0.312-0.372c0.643-0.124,2.965-0.504,5.046-0.006c0.097,0.131,0.199,0.26,0.317,0.378
		C16.465,31.654,17.3,32,18.188,32c0,0,0,0,0,0c0.65,0,1.282-0.189,1.78-0.521l4.505-2.317c0.147-0.094,0.273-0.194,0.386-0.307
		c0.428-0.428,0.663-0.996,0.663-1.601c0-0.605-0.235-1.173-0.663-1.601c-0.01-0.01-0.02-0.019-0.029-0.029
		c0.431-1.017,0.214-2.199-0.59-3.002c-0.655-0.656-1.627-0.917-2.517-0.733c0.154-0.841,0.247-1.697,0.247-2.558
		c0-3.482-1.285-6.782-3.457-8.931c0.779-1.107,1.188-2.389,1.188-3.736C19.702,2.99,16.614,0,12.82,0S5.938,2.99,5.938,6.666
		c0,1.384,0.449,2.739,1.274,3.863c-2.123,2.17-3.332,5.35-3.332,8.805c0,0.845,0.079,1.695,0.23,2.529
		c-0.842-0.12-1.735,0.146-2.35,0.761c-0.804,0.803-1.021,1.985-0.59,3.002c-0.01,0.01-0.02,0.019-0.029,0.029
		C0.713,26.082,0.478,26.65,0.478,27.255z M23.533,23.331c0.581,0.58,0.679,1.471,0.239,2.166c-0.071,0.112-0.094,0.248-0.065,0.377
		c0.029,0.129,0.109,0.242,0.221,0.312c0.089,0.056,0.162,0.114,0.224,0.175c0.239,0.239,0.37,0.556,0.37,0.894
		c0,0.337-0.131,0.655-0.37,0.894c-0.06,0.06-0.132,0.117-0.175,0.148l-4.512,2.32C19.085,30.868,18.644,31,18.189,31h0
		c-0.621,0-1.205-0.242-1.644-0.681c-0.776-0.776-0.901-2.004-0.271-2.967l2.272-4.426c0.054-0.084,0.109-0.154,0.169-0.214
		c0.478-0.477,1.309-0.479,1.788,0.001c0.06,0.06,0.117,0.132,0.172,0.222c0.071,0.112,0.183,0.192,0.313,0.222
		c0.13,0.031,0.266,0.006,0.378-0.064C22.038,22.668,22.97,22.767,23.533,23.331z M8.224,10.938
		c0.195-0.182,0.213-0.485,0.041-0.689C7.409,9.24,6.938,7.968,6.938,6.666C6.938,3.542,9.577,1,12.82,1s5.882,2.542,5.882,5.666
		c0,1.269-0.431,2.471-1.246,3.478c-0.167,0.207-0.144,0.508,0.055,0.687c2.166,1.946,3.459,5.125,3.459,8.503
		c0,0.785-0.085,1.565-0.223,2.333c-0.862-0.486-2.024-0.378-2.738,0.338c-0.102,0.102-0.194,0.214-0.28,0.344
		c-0.02,0.025-0.038,0.052-0.052,0.081l-2.265,4.42c-0.532,0.808-0.665,1.785-0.431,2.676c-1.526-0.231-3.029-0.107-3.963,0.025
		c0.244-0.893,0.118-1.869-0.401-2.655L8.298,22.39c-0.094-0.148-0.246-0.274-0.358-0.386C7.181,21.245,6,21.163,5,21.752
		c0-0.001,0-0.002,0-0.003c0-0.796-0.171-1.609-0.171-2.416C4.829,16.029,6.13,12.89,8.224,10.938z M1.848,26.361
		c0.062-0.061,0.134-0.119,0.224-0.175c0.112-0.071,0.192-0.183,0.221-0.312c0.029-0.13,0.006-0.265-0.065-0.377
		c-0.439-0.695-0.341-1.586,0.239-2.166c0.564-0.563,1.496-0.663,2.167-0.239c0.112,0.071,0.248,0.095,0.378,0.064
		c0.13-0.029,0.242-0.109,0.313-0.222c0.056-0.089,0.112-0.162,0.173-0.223c0.479-0.478,1.31-0.478,1.788,0.001
		c0.06,0.059,0.116,0.13,0.147,0.174l2.32,4.512c0.604,0.917,0.478,2.145-0.298,2.921c-0.76,0.761-1.957,0.928-2.967,0.271
		l-4.426-2.272c-0.084-0.054-0.155-0.109-0.215-0.169c-0.239-0.239-0.37-0.556-0.37-0.894C1.478,26.917,1.609,26.6,1.848,26.361z"/>
</g>
</svg>
