<?xml version="1.0" encoding="utf-8"?>
<!-- Generator: Adobe Illustrator 18.0.0, SVG Export Plug-In . SVG Version: 6.00 Build 0)  -->
<!DOCTYPE svg PUBLIC "-//W3C//DTD SVG 1.1//EN" "http://www.w3.org/Graphics/SVG/1.1/DTD/svg11.dtd">
<svg version="1.1" id="Layer_1" xmlns="http://www.w3.org/2000/svg" xmlns:xlink="http://www.w3.org/1999/xlink" x="0px" y="0px"
	 width="38px" height="32px" viewBox="0 0 38 32" enable-background="new 0 0 38 32" xml:space="preserve">
<g>
	<path fill="#808184" d="M36.5,0h-27C9.224,0,9,0.224,9,0.5S9.224,1,9.5,1h27C36.775,1,37,1.225,37,1.5v5C37,6.775,36.775,7,36.5,7
		h-27C9.224,7,9,7.224,9,7.5S9.224,8,9.5,8h27C37.327,8,38,7.327,38,6.5v-5C38,0.673,37.327,0,36.5,0z"/>
	<path fill="#808184" d="M4,8c2.206,0,4-1.794,4-4S6.206,0,4,0S0,1.794,0,4S1.794,8,4,8z M4,1c1.654,0,3,1.346,3,3S5.654,7,4,7
		S1,5.654,1,4S2.346,1,4,1z"/>
	<path fill="#808184" d="M36.5,12h-27C9.224,12,9,12.224,9,12.5S9.224,13,9.5,13h27c0.275,0,0.5,0.225,0.5,0.5v5
		c0,0.275-0.225,0.5-0.5,0.5h-27C9.224,19,9,19.224,9,19.5S9.224,20,9.5,20h27c0.827,0,1.5-0.673,1.5-1.5v-5
		C38,12.673,37.327,12,36.5,12z"/>
	<path fill="#808184" d="M4,20c2.206,0,4-1.794,4-4s-1.794-4-4-4s-4,1.794-4,4S1.794,20,4,20z M4,13c1.654,0,3,1.346,3,3
		s-1.346,3-3,3s-3-1.346-3-3S2.346,13,4,13z"/>
	<path fill="#808184" d="M36.5,24h-27C9.224,24,9,24.224,9,24.5S9.224,25,9.5,25h27c0.275,0,0.5,0.225,0.5,0.5v5
		c0,0.275-0.225,0.5-0.5,0.5h-27C9.224,31,9,31.224,9,31.5S9.224,32,9.5,32h27c0.827,0,1.5-0.673,1.5-1.5v-5
		C38,24.673,37.327,24,36.5,24z"/>
	<path fill="#808184" d="M4,32c2.206,0,4-1.794,4-4s-1.794-4-4-4s-4,1.794-4,4S1.794,32,4,32z M4,25c1.654,0,3,1.346,3,3
		s-1.346,3-3,3s-3-1.346-3-3S2.346,25,4,25z"/>
</g>
</svg>
