<?xml version="1.0" encoding="utf-8"?>
<!-- Generator: Adobe Illustrator 18.0.0, SVG Export Plug-In . SVG Version: 6.00 Build 0)  -->
<!DOCTYPE svg PUBLIC "-//W3C//DTD SVG 1.1//EN" "http://www.w3.org/Graphics/SVG/1.1/DTD/svg11.dtd">
<svg version="1.1" id="Layer_1" xmlns="http://www.w3.org/2000/svg" xmlns:xlink="http://www.w3.org/1999/xlink" x="0px" y="0px"
	 width="32px" height="32px" viewBox="0 0 32 32" enable-background="new 0 0 32 32" xml:space="preserve">
<g>
	<path fill="#808184" d="M0.943,28.222l9.371,3.742C10.375,31.989,10.438,32,10.5,32c0.062,0,0.126-0.012,0.186-0.036l9.823-3.923
		l9.48,3.441c0.166,0.061,0.339,0.09,0.512,0.09c0.304,0,0.604-0.092,0.86-0.271c0.4-0.28,0.64-0.74,0.64-1.229V9.194
		c0-0.629-0.397-1.195-0.988-1.41l-5.997-2.177c-0.262-0.091-0.547,0.04-0.641,0.3c-0.095,0.259,0.039,0.546,0.299,0.641
		l5.997,2.177C30.867,8.796,31,8.985,31,9.194v20.879c0,0.165-0.078,0.314-0.213,0.41c-0.138,0.095-0.303,0.117-0.457,0.06
		L21,27.156V19c0-0.276-0.224-0.5-0.5-0.5S20,18.724,20,19v8.167l-9,3.594V20c0-0.276-0.224-0.5-0.5-0.5S10,19.724,10,20v10.762
		l-8.686-3.468C1.123,27.217,1,27.035,1,26.829V5.976c0-0.168,0.08-0.319,0.22-0.414c0.14-0.094,0.309-0.113,0.466-0.05l3.24,1.294
		c0.255,0.104,0.547-0.023,0.649-0.279c0.103-0.256-0.022-0.547-0.278-0.65l-3.24-1.294C1.593,4.397,1.071,4.456,0.658,4.734
		C0.246,5.014,0,5.478,0,5.976v20.853C0,27.446,0.37,27.993,0.943,28.222z"/>
	<path fill="#808184" d="M14.057,22.467C14.287,22.801,14.668,23,15.074,23c0.409,0,0.791-0.202,1.019-0.536l3.696-5.308L21.863,14
		c1.475-1.868,2.104-4.207,1.771-6.586c-0.534-3.829-3.722-6.923-7.58-7.358C10.821-0.524,6.373,3.55,6.373,8.651
		c0,1.997,0.648,3.77,2.096,5.738L14.057,22.467z M15.047,1c0.295,0,0.594,0.017,0.896,0.051c3.41,0.384,6.229,3.119,6.701,6.502
		c0.294,2.106-0.263,4.176-1.592,5.862l-2.092,3.18l-3.691,5.301c-0.123,0.18-0.268,0.179-0.391,0.001l-5.596-8.089
		c-1.321-1.797-1.91-3.388-1.91-5.158C7.373,4.432,10.815,1,15.047,1z"/>
	<path fill="#808184" d="M15.002,11.651c1.654,0,3-1.346,3-3s-1.346-3-3-3s-3,1.346-3,3S13.348,11.651,15.002,11.651z M15.002,6.651
		c1.103,0,2,0.897,2,2s-0.897,2-2,2s-2-0.897-2-2S13.899,6.651,15.002,6.651z"/>
</g>
</svg>
