<?xml version="1.0" encoding="utf-8"?>
<!-- Generator: Adobe Illustrator 18.0.0, SVG Export Plug-In . SVG Version: 6.00 Build 0)  -->
<!DOCTYPE svg PUBLIC "-//W3C//DTD SVG 1.1//EN" "http://www.w3.org/Graphics/SVG/1.1/DTD/svg11.dtd">
<svg version="1.1" id="Layer_1" xmlns="http://www.w3.org/2000/svg" xmlns:xlink="http://www.w3.org/1999/xlink" x="0px" y="0px"
	 width="33px" height="32px" viewBox="0 0 33 32" enable-background="new 0 0 33 32" xml:space="preserve">
<g>
	<path fill="#808184" d="M16.041,32c4.277,0,8.299-1.665,11.323-4.687c0.095-0.094,0.147-0.223,0.146-0.356
		s-0.056-0.262-0.151-0.355L16.486,16L27.359,5.398c0.096-0.093,0.15-0.221,0.151-0.355s-0.052-0.262-0.146-0.356
		C24.34,1.665,20.318,0,16.041,0S7.742,1.665,4.718,4.687C1.693,7.708,0.027,11.726,0.027,16s1.666,8.292,4.69,11.313
		C7.742,30.335,11.764,32,16.041,32z M5.425,5.394C8.261,2.561,12.03,1,16.041,1c3.841,0,7.462,1.432,10.252,4.042L15.422,15.642
		c-0.097,0.094-0.151,0.223-0.151,0.358s0.055,0.264,0.151,0.358l10.871,10.601C23.503,29.568,19.882,31,16.041,31
		c-4.011,0-7.78-1.561-10.616-4.394S1.027,20.007,1.027,16S2.589,8.227,5.425,5.394z"/>
	<circle fill="#808184" cx="22.853" cy="16" r="2.002"/>
	<circle fill="#808184" cx="29.525" cy="16" r="2.002"/>
	<circle fill="#808184" cx="16.226" cy="7.068" r="2.5"/>
</g>
</svg>
