<?xml version="1.0" encoding="utf-8"?>
<!-- Generator: Adobe Illustrator 18.0.0, SVG Export Plug-In . SVG Version: 6.00 Build 0)  -->
<!DOCTYPE svg PUBLIC "-//W3C//DTD SVG 1.1//EN" "http://www.w3.org/Graphics/SVG/1.1/DTD/svg11.dtd">
<svg version="1.1" id="Layer_1" xmlns="http://www.w3.org/2000/svg" xmlns:xlink="http://www.w3.org/1999/xlink" x="0px" y="0px"
	 width="32px" height="32px" viewBox="0 0 32 32" enable-background="new 0 0 32 32" xml:space="preserve">
<g>
	<path fill="#808184" d="M1.673,20.297c-0.053,0.05-0.096,0.107-0.123,0.173c-0.145,0.204-0.255,0.431-0.285,0.68l-1.339,10.924
		l10.924-1.339c0.257-0.031,0.492-0.147,0.701-0.3c0.037-0.017,0.066-0.043,0.098-0.069c0.027-0.024,0.062-0.037,0.088-0.062
		l19.82-19.821c0.59-0.59,0.59-1.55,0-2.14l-7.899-7.899c-0.569-0.571-1.567-0.572-2.141,0l-19.82,19.82
		C1.687,20.273,1.682,20.287,1.673,20.297z M16.181,7.193l1.782,1.782L4.032,22.906c-0.744-0.986-1.194-1.754-1.41-2.154
		L16.181,7.193z M11.271,29.355c-0.767-0.467-1.479-0.947-2.132-1.432l13.886-13.886l1.782,1.782L11.271,29.355z M8.414,27.234
		c-0.026,0.026-0.039,0.057-0.058,0.087c-1.579-1.267-2.792-2.531-3.698-3.627L18.67,9.682l3.648,3.648L8.414,27.234z
		 M10.123,29.817L4.548,30.5c-1.894-0.283-2.865-2.485-3.057-2.974l0.68-5.551C3.197,23.646,5.613,26.916,10.123,29.817z
		 M1.277,29.269c0.331,0.503,0.776,1.04,1.349,1.467l-1.552,0.19L1.277,29.269z M22.224,1.151C22.32,1.053,22.45,1,22.587,1
		c0.138,0,0.267,0.053,0.363,0.15L30.85,9.05c0.2,0.2,0.2,0.526,0,0.726l-5.336,5.336l-8.626-8.626L22.224,1.151z"/>
</g>
</svg>
