<?xml version="1.0" encoding="utf-8"?>
<!-- Generator: Adobe Illustrator 18.0.0, SVG Export Plug-In . SVG Version: 6.00 Build 0)  -->
<!DOCTYPE svg PUBLIC "-//W3C//DTD SVG 1.1//EN" "http://www.w3.org/Graphics/SVG/1.1/DTD/svg11.dtd">
<svg version="1.1" id="Layer_1" xmlns="http://www.w3.org/2000/svg" xmlns:xlink="http://www.w3.org/1999/xlink" x="0px" y="0px"
	 width="46px" height="32px" viewBox="0 0 46 32" enable-background="new 0 0 46 32" xml:space="preserve">
<g>
	<path fill="#808184" d="M9.159,23H14.5c0.006,0,0.01-0.003,0.016-0.003c1.011,5.152,4.522,8.969,8.698,8.969
		c4.175,0,7.685-3.816,8.697-8.966h4.172c-0.881,0.636-1.462,1.666-1.462,2.833c0,1.93,1.57,3.5,3.5,3.5s3.5-1.57,3.5-3.5
		c0-1.167-0.58-2.197-1.462-2.833H45.5c0.276,0,0.5-0.224,0.5-0.5S45.776,22,45.5,22H32.074c0.085-0.663,0.139-1.34,0.139-2.034
		c0-2.598-0.629-4.999-1.686-6.966H36.5c0.276,0,0.5-0.224,0.5-0.5S36.776,12,36.5,12h-6c-0.177,0-0.324,0.097-0.413,0.235
		c-1.594-2.516-3.949-4.138-6.587-4.25V1c0-0.276-0.224-0.5-0.5-0.5S22.5,0.724,22.5,1v7c0,0.005,0.003,0.009,0.003,0.014
		C20.121,8.264,18.002,10,16.501,12c0,0-0.001,0-0.001,0h-6c-0.276,0-0.5,0.224-0.5,0.5s0.224,0.5,0.5,0.5h5.4
		c-1.057,1.966-1.686,4.368-1.686,6.966c0,0.695,0.054,1.372,0.139,2.034H0.5C0.224,22,0,22.224,0,22.5S0.224,23,0.5,23h4.583
		c-0.881,0.636-1.462,1.666-1.462,2.833c0,1.93,1.57,3.5,3.5,3.5s3.5-1.57,3.5-3.5C10.621,24.666,10.041,23.636,9.159,23z
		 M40.621,25.833c0,1.379-1.122,2.5-2.5,2.5s-2.5-1.121-2.5-2.5s1.122-2.5,2.5-2.5S40.621,24.454,40.621,25.833z M23.214,8.966
		c4.411,0,8,4.935,8,11s-3.589,11-8,11s-8-4.935-8-11S18.803,8.966,23.214,8.966z M7.121,28.333c-1.378,0-2.5-1.121-2.5-2.5
		s1.122-2.5,2.5-2.5s2.5,1.121,2.5,2.5S8.5,28.333,7.121,28.333z"/>
	<path fill="#808184" d="M20.5,16h5c0.276,0,0.5-0.224,0.5-0.5S25.776,15,25.5,15h-5c-0.276,0-0.5,0.224-0.5,0.5S20.224,16,20.5,16z
		"/>
</g>
</svg>
