<?xml version="1.0" encoding="utf-8"?>
<!-- Generator: Adobe Illustrator 18.0.0, SVG Export Plug-In . SVG Version: 6.00 Build 0)  -->
<!DOCTYPE svg PUBLIC "-//W3C//DTD SVG 1.1//EN" "http://www.w3.org/Graphics/SVG/1.1/DTD/svg11.dtd">
<svg version="1.1" id="Layer_1" xmlns="http://www.w3.org/2000/svg" xmlns:xlink="http://www.w3.org/1999/xlink" x="0px" y="0px"
	 width="30px" height="32px" viewBox="0 0 30 32" enable-background="new 0 0 30 32" xml:space="preserve">
<g>
	<path fill="#808184" d="M27.881,12.934L5.908,0.477C5.36,0.165,4.584,0,3.942,0C1.851,0,0,1.589,0,3.542v24.916
		C0,30.411,1.839,32,3.916,32c0.638,0,1.339-0.165,1.885-0.476l22.106-12.459c1.102-0.628,1.777-1.757,1.777-3.019
		C29.685,14.748,29.022,13.585,27.881,12.934z M5.413,1.346l15.606,8.848l-4.785,5.076L2.994,1.226C3.347,1.083,3.721,1,4.091,1
		C4.565,1,5.01,1.116,5.413,1.346z M1,28.458V3.542c0-0.728,0.484-1.337,0.978-1.779L15.473,16L1.937,30.241
		C1.446,29.798,1,29.188,1,28.458z M5.381,30.654C4.979,30.884,4.536,31,4.064,31c-0.362,0-0.729-0.081-1.075-0.22l13.245-14.05
		l4.798,5.089L5.381,30.654z M27.45,18.195l-5.521,3.117L16.922,16l4.994-5.297l5.47,3.101c0.825,0.47,1.317,1.308,1.317,2.242
		C28.703,16.945,28.234,17.748,27.45,18.195z"/>
</g>
</svg>
