<?xml version="1.0" encoding="utf-8"?>
<!-- Generator: Adobe Illustrator 18.0.0, SVG Export Plug-In . SVG Version: 6.00 Build 0)  -->
<!DOCTYPE svg PUBLIC "-//W3C//DTD SVG 1.1//EN" "http://www.w3.org/Graphics/SVG/1.1/DTD/svg11.dtd">
<svg version="1.1" id="Layer_1" xmlns="http://www.w3.org/2000/svg" xmlns:xlink="http://www.w3.org/1999/xlink" x="0px" y="0px"
	 width="32px" height="32px" viewBox="0 0 32 32" enable-background="new 0 0 32 32" xml:space="preserve">
<g>
	<path fill="#808184" d="M20.845,8.93c-1.099,0-2.158,0.324-3.065,0.938c-0.229,0.155-0.289,0.466-0.134,0.694
		s0.466,0.289,0.694,0.134c0.741-0.502,1.607-0.767,2.505-0.767c2.471,0,4.481,2.016,4.481,4.494c0,1.215-0.478,2.354-1.374,3.243
		l-5.03,5.043c-0.281,0.283-0.772,0.284-1.058-0.001c-0.293-0.293-0.293-0.771,0-1.064l2.653-2.66l-0.834-0.224
		c-0.502-0.136-0.974-0.356-1.404-0.657c-0.225-0.156-0.537-0.104-0.696,0.124c-0.158,0.226-0.103,0.538,0.124,0.696
		c0.295,0.206,0.607,0.383,0.934,0.526l-1.483,1.487c-0.683,0.684-0.683,1.795,0,2.479c0.331,0.331,0.771,0.514,1.236,0.514
		c0.468,0,0.906-0.183,1.236-0.514l5.054-5.073c1.06-1.042,1.643-2.435,1.643-3.919C26.326,11.395,23.867,8.93,20.845,8.93z"/>
	<path fill="#808184" d="M12.291,12.061c-1.34,0-2.43,1.092-2.43,2.435s1.09,2.435,2.43,2.435s2.43-1.092,2.43-2.435
		S13.631,12.061,12.291,12.061z M12.291,15.93c-0.788,0-1.43-0.644-1.43-1.435s0.642-1.435,1.43-1.435s1.43,0.644,1.43,1.435
		S13.079,15.93,12.291,15.93z"/>
	<path fill="#808184" d="M12.291,8.93c-3.022,0-5.481,2.465-5.481,5.494c0,2.198,1.313,4.161,3.277,5.026l-1.483,1.487
		c-0.683,0.684-0.683,1.795-0.001,2.478c0.331,0.332,0.77,0.515,1.237,0.515c0.466,0,0.905-0.183,1.236-0.514l5.054-5.073
		c1.06-1.044,1.643-2.436,1.643-3.919C17.772,11.395,15.313,8.93,12.291,8.93z M15.398,17.667l-5.029,5.042
		c-0.285,0.285-0.775,0.285-1.059,0c-0.293-0.293-0.293-0.771,0-1.064l2.653-2.66l-0.834-0.224c-1.955-0.526-3.32-2.31-3.32-4.337
		c0-2.479,2.011-4.494,4.481-4.494s4.481,2.016,4.481,4.494C16.772,15.638,16.295,16.776,15.398,17.667z"/>
	<path fill="#808184" d="M23.149,14.495c0-1.343-1.09-2.435-2.43-2.435s-2.43,1.092-2.43,2.435s1.09,2.435,2.43,2.435
		S23.149,15.838,23.149,14.495z M19.29,14.495c0-0.791,0.642-1.435,1.43-1.435s1.43,0.644,1.43,1.435s-0.642,1.435-1.43,1.435
		S19.29,15.286,19.29,14.495z"/>
	<path fill="#808184" d="M16,0C7.178,0,0,7.178,0,16s7.178,16,16,16s16-7.178,16-16S24.822,0,16,0z M16,31C7.729,31,1,24.271,1,16
		S7.729,1,16,1s15,6.729,15,15S24.271,31,16,31z"/>
</g>
</svg>
