<?xml version="1.0" encoding="utf-8"?>
<!-- Generator: Adobe Illustrator 18.0.0, SVG Export Plug-In . SVG Version: 6.00 Build 0)  -->
<!DOCTYPE svg PUBLIC "-//W3C//DTD SVG 1.1//EN" "http://www.w3.org/Graphics/SVG/1.1/DTD/svg11.dtd">
<svg version="1.1" id="Layer_1" xmlns="http://www.w3.org/2000/svg" xmlns:xlink="http://www.w3.org/1999/xlink" x="0px" y="0px"
	 width="32px" height="32px" viewBox="0 0 32 32" enable-background="new 0 0 32 32" xml:space="preserve">
<g>
	<path fill="#808184" d="M0,16c0,8.822,7.178,16,16,16s16-7.178,16-16S24.822,0,16,0S0,7.178,0,16z M16,1c8.271,0,15,6.729,15,15
		s-6.729,15-15,15S1,24.271,1,16S7.729,1,16,1z"/>
	<path fill="#808184" d="M7.868,24.132c2.242,2.242,5.187,3.363,8.132,3.363s5.89-1.121,8.132-3.363
		c4.484-4.484,4.484-11.779,0-16.264c-0.195-0.195-0.512-0.195-0.707,0s-0.195,0.512,0,0.707c4.094,4.094,4.094,10.756,0,14.85
		s-10.756,4.094-14.85,0C4.601,19.45,4.497,13.062,8.24,8.947l2.828,2.828C10.057,12.952,9.5,14.432,9.5,16
		c0,1.736,0.677,3.368,1.904,4.596S14.264,22.5,16,22.5s3.368-0.677,4.596-1.904S22.5,17.736,22.5,16s-0.677-3.368-1.904-4.596
		c-0.195-0.195-0.512-0.195-0.707,0s-0.195,0.512,0,0.707C20.928,13.15,21.5,14.531,21.5,16s-0.572,2.85-1.611,3.889
		S17.469,21.5,16,21.5s-2.85-0.572-3.889-1.611S10.5,17.469,10.5,16c0-1.299,0.47-2.515,1.292-3.501l2.124,2.124
		C13.654,15.019,13.5,15.491,13.5,16c0,1.379,1.121,2.5,2.5,2.5s2.5-1.121,2.5-2.5s-1.121-2.5-2.5-2.5
		c-0.509,0-0.981,0.154-1.377,0.416L7.207,6.5C7.012,6.305,6.695,6.305,6.5,6.5s-0.195,0.512,0,0.707L7.533,8.24
		C3.4,12.746,3.503,19.767,7.868,24.132z M16,14.5c0.827,0,1.5,0.673,1.5,1.5s-0.673,1.5-1.5,1.5s-1.5-0.673-1.5-1.5
		S15.173,14.5,16,14.5z"/>
</g>
</svg>
