<?xml version="1.0" encoding="utf-8"?>
<!-- Generator: Adobe Illustrator 18.0.0, SVG Export Plug-In . SVG Version: 6.00 Build 0)  -->
<!DOCTYPE svg PUBLIC "-//W3C//DTD SVG 1.1//EN" "http://www.w3.org/Graphics/SVG/1.1/DTD/svg11.dtd">
<svg version="1.1" id="Layer_1" xmlns="http://www.w3.org/2000/svg" xmlns:xlink="http://www.w3.org/1999/xlink" x="0px" y="0px"
	 width="30px" height="32px" viewBox="0 0 30 32" enable-background="new 0 0 30 32" xml:space="preserve">
<g>
	<path fill="#808184" d="M1.5,32H13c0.276,0,0.5-0.224,0.5-0.5S13.276,31,13,31H1.5C1.224,31,1,30.776,1,30.5v-29
		C1,1.224,1.224,1,1.5,1h20C21.776,1,22,1.224,22,1.5V5c0,0.276,0.224,0.5,0.5,0.5S23,5.276,23,5V1.5C23,0.673,22.327,0,21.5,0h-20
		C0.673,0,0,0.673,0,1.5v29C0,31.327,0.673,32,1.5,32z"/>
	<path fill="#808184" d="M10,4C9.724,4,9.5,4.224,9.5,4.5S9.724,5,10,5h3c0.276,0,0.5-0.224,0.5-0.5S13.276,4,13,4H10z"/>
	<path fill="#808184" d="M15,8.5v22c0,0.827,0.673,1.5,1.5,1.5h12c0.827,0,1.5-0.673,1.5-1.5v-22C30,7.673,29.327,7,28.5,7h-12
		C15.673,7,15,7.673,15,8.5z M29,8.5v22c0,0.276-0.224,0.5-0.5,0.5h-12c-0.276,0-0.5-0.224-0.5-0.5v-22C16,8.224,16.224,8,16.5,8h12
		C28.776,8,29,8.224,29,8.5z"/>
	<path fill="#808184" d="M22.301,25.65c-0.931,0-1.688,0.757-1.688,1.688s0.757,1.688,1.688,1.688s1.688-0.757,1.688-1.688
		S23.231,25.65,22.301,25.65z M22.301,28.026c-0.379,0-0.688-0.309-0.688-0.688s0.309-0.688,0.688-0.688s0.688,0.309,0.688,0.688
		S22.68,28.026,22.301,28.026z"/>
	<path fill="#808184" d="M21,11h3c0.276,0,0.5-0.224,0.5-0.5S24.276,10,24,10h-3c-0.276,0-0.5,0.224-0.5,0.5S20.724,11,21,11z"/>
</g>
</svg>
