<?xml version="1.0" encoding="utf-8"?>
<!-- Generator: Adobe Illustrator 18.0.0, SVG Export Plug-In . SVG Version: 6.00 Build 0)  -->
<!DOCTYPE svg PUBLIC "-//W3C//DTD SVG 1.1//EN" "http://www.w3.org/Graphics/SVG/1.1/DTD/svg11.dtd">
<svg version="1.1" id="Layer_1" xmlns="http://www.w3.org/2000/svg" xmlns:xlink="http://www.w3.org/1999/xlink" x="0px" y="0px"
	 width="32px" height="32px" viewBox="0 0 32 32" enable-background="new 0 0 32 32" xml:space="preserve">
<g>
	<path fill="#808184" d="M15.537,9.612L24.147,1H31v6.853l-8.612,8.61c-0.195,0.195-0.195,0.512,0,0.707
		c0.098,0.098,0.226,0.146,0.354,0.146s0.256-0.049,0.354-0.146l8.758-8.756C31.947,8.32,32,8.193,32,8.06V0.5
		C32,0.224,31.776,0,31.5,0h-7.56c-0.133,0-0.26,0.053-0.354,0.146L14.83,8.905c-0.195,0.195-0.195,0.512,0,0.707
		S15.342,9.807,15.537,9.612z"/>
	<path fill="#808184" d="M16.959,28.646c0.095,0.095,0.222,0.146,0.354,0.146c0.037,0,0.074-0.004,0.11-0.012
		c0.167-0.038,0.304-0.159,0.361-0.32l3.336-9.382c0.092-0.26-0.043-0.546-0.304-0.639c-0.261-0.094-0.546,0.043-0.639,0.304
		l-3.071,8.637l-5.808-5.808l5.59-5.777c0.192-0.198,0.187-0.515-0.012-0.707c-0.199-0.191-0.515-0.188-0.707,0.012l-5.579,5.765
		L4.62,14.893l8.638-3.071c0.26-0.093,0.396-0.378,0.304-0.639c-0.093-0.261-0.379-0.396-0.639-0.304L3.54,14.216
		c-0.162,0.058-0.283,0.194-0.32,0.361c-0.038,0.167,0.013,0.342,0.134,0.463L16.959,28.646z"/>
	<path fill="#808184" d="M0.5,32c0.069,0,0.138-0.014,0.203-0.043l9.645-4.289c0.252-0.112,0.366-0.408,0.254-0.66
		c-0.112-0.252-0.408-0.365-0.66-0.254l-8.456,3.76l3.761-8.455c0.112-0.252-0.001-0.548-0.254-0.66
		c-0.252-0.112-0.547,0.001-0.66,0.254l-4.29,9.644c-0.084,0.189-0.043,0.41,0.104,0.557C0.242,31.949,0.37,32,0.5,32z"/>
	<path fill="#808184" d="M28.596,5.389c0-1.161-0.944-2.105-2.105-2.105s-2.105,0.944-2.105,2.105c0,1.161,0.944,2.105,2.105,2.105
		S28.596,6.55,28.596,5.389z M25.385,5.389c0-0.609,0.496-1.105,1.105-1.105s1.105,0.496,1.105,1.105S27.1,6.495,26.491,6.495
		S25.385,5.999,25.385,5.389z"/>
</g>
</svg>
