<?xml version="1.0" encoding="utf-8"?>
<!-- Generator: Adobe Illustrator 18.0.0, SVG Export Plug-In . SVG Version: 6.00 Build 0)  -->
<!DOCTYPE svg PUBLIC "-//W3C//DTD SVG 1.1//EN" "http://www.w3.org/Graphics/SVG/1.1/DTD/svg11.dtd">
<svg version="1.1" id="Layer_1" xmlns="http://www.w3.org/2000/svg" xmlns:xlink="http://www.w3.org/1999/xlink" x="0px" y="0px"
	 width="32px" height="32px" viewBox="0 0 32 32" enable-background="new 0 0 32 32" xml:space="preserve">
<g>
	<path fill="#808184" d="M16-0.035C7.159-0.035-0.035,7.159-0.035,16S7.159,32.035,16,32.035S32.035,24.841,32.035,16
		S24.841-0.035,16-0.035z M16,30.965C7.748,30.965,1.035,24.252,1.035,16S7.748,1.035,16,1.035S30.965,7.748,30.965,16
		S24.252,30.965,16,30.965z"/>
	<path fill="#808184" d="M11.999,18.881c-1.121,0-2.034,0.914-2.034,2.036c0,1.121,0.913,2.033,2.034,2.033
		c1.123,0,2.036-0.912,2.036-2.034C14.034,19.794,13.121,18.881,11.999,18.881z M11.999,21.881c-0.532,0-0.964-0.432-0.964-0.964
		c0-0.533,0.433-0.967,0.964-0.967c0.533,0,0.966,0.434,0.966,0.967C12.965,21.449,12.532,21.881,11.999,21.881z"/>
	<path fill="#808184" d="M10.501,13.951c-0.295,0-0.535,0.239-0.535,0.535s0.239,0.535,0.535,0.535c2.253,0,4.14,0.697,5.455,2.015
		c1.314,1.318,2.009,3.208,2.009,5.465c0,0.295,0.239,0.534,0.535,0.535c0.295,0,0.535-0.239,0.535-0.535
		c0-2.546-0.802-4.697-2.322-6.22C15.193,14.756,13.045,13.951,10.501,13.951z"/>
	<path fill="#808184" d="M10.505,9.027c-0.295,0-0.535,0.239-0.535,0.535s0.239,0.535,0.535,0.535
		c7.139,0,12.523,5.333,12.523,12.404c0,0.295,0.239,0.535,0.535,0.535s0.535-0.239,0.535-0.535
		C24.097,14.819,18.253,9.027,10.505,9.027z"/>
</g>
</svg>
