<?xml version="1.0" encoding="utf-8"?>
<!-- Generator: Adobe Illustrator 18.0.0, SVG Export Plug-In . SVG Version: 6.00 Build 0)  -->
<!DOCTYPE svg PUBLIC "-//W3C//DTD SVG 1.1//EN" "http://www.w3.org/Graphics/SVG/1.1/DTD/svg11.dtd">
<svg version="1.1" id="Layer_1" xmlns="http://www.w3.org/2000/svg" xmlns:xlink="http://www.w3.org/1999/xlink" x="0px" y="0px"
	 width="44px" height="32px" viewBox="0 0 44 32" enable-background="new 0 0 44 32" xml:space="preserve">
<g>
	<path fill="#808184" d="M42.5,22h-2.033c0.019-0.052,0.033-0.107,0.033-0.166c0-8.315-5.535-15.573-13.5-17.803V1.5
		C27,0.673,26.327,0,25.5,0h-4h-4C16.673,0,16,0.673,16,1.5v2.841C8.51,6.905,3.5,13.883,3.5,21.834
		c0,0.059,0.015,0.114,0.033,0.166H1.5C0.673,22,0,22.673,0,23.5v7C0,31.327,0.673,32,1.5,32h41c0.827,0,1.5-0.673,1.5-1.5v-7
		C44,22.673,43.327,22,42.5,22z M4.5,21.834c0-7.406,4.597-13.915,11.5-16.43V6c0,0.276,0.224,0.5,0.5,0.5S17,6.276,17,6V1.5
		C17,1.224,17.225,1,17.5,1H21v5c0,0.276,0.224,0.5,0.5,0.5S22,6.276,22,6V1h3.5C25.775,1,26,1.224,26,1.5V6
		c0,0.276,0.224,0.5,0.5,0.5S27,6.276,27,6V5.075c7.389,2.198,12.5,8.989,12.5,16.759c0,0.059,0.015,0.114,0.033,0.166H4.467
		C4.485,21.948,4.5,21.893,4.5,21.834z M43,30.5c0,0.276-0.225,0.5-0.5,0.5h-41C1.225,31,1,30.776,1,30.5v-7
		C1,23.224,1.225,23,1.5,23h41c0.275,0,0.5,0.224,0.5,0.5V30.5z"/>
</g>
</svg>
