<?xml version="1.0" encoding="utf-8"?>
<!-- Generator: Adobe Illustrator 18.0.0, SVG Export Plug-In . SVG Version: 6.00 Build 0)  -->
<!DOCTYPE svg PUBLIC "-//W3C//DTD SVG 1.1//EN" "http://www.w3.org/Graphics/SVG/1.1/DTD/svg11.dtd">
<svg version="1.1" id="Layer_1" xmlns="http://www.w3.org/2000/svg" xmlns:xlink="http://www.w3.org/1999/xlink" x="0px" y="0px"
	 width="31px" height="32px" viewBox="0 0 31 32" enable-background="new 0 0 31 32" xml:space="preserve">
<g>
	<path fill="#808184" d="M13.025,26.614c2.117,0,4.208-0.524,6.07-1.519l5.606,5.766c0.688,0.703,1.608,1.09,2.59,1.09
		c0.981,0,1.901-0.387,2.59-1.09c1.42-1.448,1.42-3.806,0-5.254l-5.542-5.652c1.157-2.033,1.767-4.331,1.767-6.672
		c0-7.352-5.868-13.332-13.081-13.332c-7.212,0-13.081,5.98-13.081,13.332C-0.056,20.634,5.812,26.614,13.025,26.614z M13.025,0.951
		c6.661,0,12.081,5.532,12.081,12.332c0,2.293-0.632,4.541-1.828,6.502c-0.113,0.185-0.085,0.418,0.055,0.582
		c0.027,0.031,0.057,0.059,0.09,0.082l5.744,5.857c1.042,1.063,1.042,2.792,0,3.855c-0.999,1.018-2.755,1.017-3.75,0.001
		l-5.875-6.043c-0.103-0.105-0.23-0.163-0.358-0.163c-0.095,0-0.191,0.032-0.276,0.1c-1.787,1.02-3.821,1.558-5.882,1.558
		c-6.661,0-12.081-5.531-12.081-12.331S6.364,0.951,13.025,0.951z"/>
	<path fill="#808184" d="M13.025,21.532c4.465,0,8.098-3.7,8.098-8.249s-3.633-8.25-8.098-8.25c-4.465,0-8.098,3.701-8.098,8.25
		S8.56,21.532,13.025,21.532z M13.025,6.033c3.914,0,7.098,3.252,7.098,7.25c0,3.997-3.184,7.249-7.098,7.249
		c-3.914,0-7.098-3.252-7.098-7.249C5.927,9.285,9.111,6.033,13.025,6.033z"/>
</g>
</svg>
