<?xml version="1.0" encoding="utf-8"?>
<!-- Generator: Adobe Illustrator 18.0.0, SVG Export Plug-In . SVG Version: 6.00 Build 0)  -->
<!DOCTYPE svg PUBLIC "-//W3C//DTD SVG 1.1//EN" "http://www.w3.org/Graphics/SVG/1.1/DTD/svg11.dtd">
<svg version="1.1" id="Layer_1" xmlns="http://www.w3.org/2000/svg" xmlns:xlink="http://www.w3.org/1999/xlink" x="0px" y="0px"
	 width="31px" height="32px" viewBox="0 0 31 32" enable-background="new 0 0 31 32" xml:space="preserve">
<g>
	<path fill="#808184" d="M15.5,0c-3.309,0-6,2.697-6,6.014V8H4.947C4.221,8,3.607,8.523,3.488,9.246l-3.467,21.02
		c-0.072,0.435,0.05,0.877,0.335,1.213C0.637,31.81,1.046,32,1.479,32h28.041c0.433,0,0.843-0.19,1.124-0.521
		c0.285-0.336,0.407-0.778,0.335-1.213L27.512,9.245C27.393,8.523,26.779,8,26.053,8H21.5V6.014C21.5,2.697,18.809,0,15.5,0z
		 M26.053,9c0.234,0,0.433,0.172,0.473,0.408l3.467,21.02c0.024,0.146-0.017,0.292-0.111,0.403C29.829,30.895,29.71,31,29.521,31
		H1.479c-0.19,0-0.308-0.105-0.362-0.169c-0.094-0.111-0.135-0.258-0.111-0.403L4.474,9.409C4.514,9.172,4.712,9,4.947,9H9.5v4.5
		c0,0.276,0.224,0.5,0.5,0.5s0.5-0.224,0.5-0.5V6.014C10.5,3.249,12.743,1,15.5,1s5,2.249,5,5.014V13.5c0,0.276,0.224,0.5,0.5,0.5
		s0.5-0.224,0.5-0.5V9H26.053z"/>
	<path fill="#808184" d="M18.5,8h-6C12.224,8,12,8.224,12,8.5S12.224,9,12.5,9h6C18.776,9,19,8.776,19,8.5S18.776,8,18.5,8z"/>
</g>
</svg>
