<?xml version="1.0" encoding="utf-8"?>
<!-- Generator: Adobe Illustrator 18.0.0, SVG Export Plug-In . SVG Version: 6.00 Build 0)  -->
<!DOCTYPE svg PUBLIC "-//W3C//DTD SVG 1.1//EN" "http://www.w3.org/Graphics/SVG/1.1/DTD/svg11.dtd">
<svg version="1.1" id="Layer_1" xmlns="http://www.w3.org/2000/svg" xmlns:xlink="http://www.w3.org/1999/xlink" x="0px" y="0px"
	 width="30px" height="32px" viewBox="0 0 30 32" enable-background="new 0 0 30 32" xml:space="preserve">
<g>
	<path fill="#808184" d="M0,30.5C0,31.327,0.673,32,1.5,32h21c0.827,0,1.5-0.673,1.5-1.5V22c0-0.276-0.224-0.5-0.5-0.5
		S23,21.724,23,22v8.5c0,0.275-0.224,0.5-0.5,0.5h-21C1.224,31,1,30.775,1,30.5v-29C1,1.225,1.224,1,1.5,1h21
		C22.776,1,23,1.225,23,1.5V10c0,0.276,0.224,0.5,0.5,0.5S24,10.276,24,10V1.5C24,0.673,23.327,0,22.5,0h-21C0.673,0,0,0.673,0,1.5
		V30.5z"/>
	<path fill="#808184" d="M25.799,20.085c0.098,0.098,0.226,0.146,0.354,0.146s0.256-0.049,0.354-0.146l3.231-3.231
		c0.195-0.195,0.195-0.512,0-0.707l-3.231-3.231c-0.195-0.195-0.512-0.195-0.707,0s-0.195,0.512,0,0.707L28.177,16H14
		c-0.276,0-0.5,0.224-0.5,0.5S13.724,17,14,17h14.177l-2.378,2.378C25.604,19.573,25.604,19.89,25.799,20.085z"/>
</g>
</svg>
