<?xml version="1.0" encoding="utf-8"?>
<!-- Generator: Adobe Illustrator 18.0.0, SVG Export Plug-In . SVG Version: 6.00 Build 0)  -->
<!DOCTYPE svg PUBLIC "-//W3C//DTD SVG 1.1//EN" "http://www.w3.org/Graphics/SVG/1.1/DTD/svg11.dtd">
<svg version="1.1" id="Layer_1" xmlns="http://www.w3.org/2000/svg" xmlns:xlink="http://www.w3.org/1999/xlink" x="0px" y="0px"
	 width="35px" height="32px" viewBox="0 0 35 32" enable-background="new 0 0 35 32" xml:space="preserve">
<g>
	<path fill="#808184" d="M9.348,9.765l14.143-8.757c0.087-0.053,0.216-0.106,0.314-0.05C23.895,1.009,24,1.164,24,1.435v29.043
		c0,0.273-0.108,0.429-0.201,0.479c-0.106,0.056-0.236-0.002-0.324-0.061l-13.253-8.891c-0.229-0.155-0.54-0.093-0.693,0.137
		c-0.154,0.229-0.093,0.54,0.137,0.693l13.255,8.892c0.253,0.168,0.522,0.253,0.785,0.253c0.196,0,0.388-0.047,0.567-0.143
		C24.728,31.593,25,31.085,25,30.479V1.435c0-0.597-0.264-1.101-0.705-1.349c-0.401-0.225-0.884-0.201-1.328,0.069L8.821,8.914
		C8.586,9.06,8.514,9.368,8.659,9.603C8.805,9.837,9.113,9.91,9.348,9.765z"/>
	<path fill="#808184" d="M7,21.5v-10C7,10.673,6.327,10,5.5,10h-4C0.673,10,0,10.673,0,11.5v10C0,22.327,0.673,23,1.5,23h4
		C6.327,23,7,22.327,7,21.5z M1,21.5v-10C1,11.224,1.224,11,1.5,11h4C5.776,11,6,11.224,6,11.5v10C6,21.776,5.776,22,5.5,22h-4
		C1.224,22,1,21.776,1,21.5z"/>
	<path fill="#808184" d="M29,9h-1c-0.276,0-0.5,0.224-0.5,0.5S27.724,10,28,10h1c3.038,0,5,2.202,5,5.611v0.138
		C34,19.312,31.851,22,29,22h-1c-0.276,0-0.5,0.224-0.5,0.5S27.724,23,28,23h1c3.42,0,6-3.118,6-7.251v-0.138
		C35,11.657,32.589,9,29,9z"/>
	<path fill="#808184" d="M28.571,19H28c-0.276,0-0.5,0.224-0.5,0.5S27.724,20,28,20h0.571C30.59,20,32,18.363,32,15.964
		C32,13.63,30.59,12,28.571,12H28c-0.276,0-0.5,0.224-0.5,0.5S27.724,13,28,13h0.571C30.364,13,31,14.597,31,16.018
		C31,17.502,30.249,19,28.571,19z"/>
</g>
</svg>
