<?xml version="1.0" encoding="utf-8"?>
<!-- Generator: Adobe Illustrator 18.0.0, SVG Export Plug-In . SVG Version: 6.00 Build 0)  -->
<!DOCTYPE svg PUBLIC "-//W3C//DTD SVG 1.1//EN" "http://www.w3.org/Graphics/SVG/1.1/DTD/svg11.dtd">
<svg version="1.1" id="Layer_1" xmlns="http://www.w3.org/2000/svg" xmlns:xlink="http://www.w3.org/1999/xlink" x="0px" y="0px"
	 width="32px" height="32px" viewBox="0 0 32 32" enable-background="new 0 0 32 32" xml:space="preserve">
<g>
	<path fill="#808184" d="M32,30.5v-12v-10v-7C32,0.673,31.323,0,30.491,0h-9.982C19.677,0,19,0.673,19,1.5v5.147
		c0,0.276,0.224,0.5,0.5,0.5s0.5-0.224,0.5-0.5V1.5C20,1.225,20.228,1,20.509,1h9.982C30.772,1,31,1.225,31,1.5V8H11.526
		C10.685,8,10,8.683,10,9.521v6.424c0,0.276,0.224,0.5,0.5,0.5s0.5-0.224,0.5-0.5V9.521C11,9.234,11.236,9,11.526,9H31v9H1.5
		C0.673,18,0,18.673,0,19.5v11C0,31.327,0.673,32,1.5,32h29C31.327,32,32,31.327,32,30.5z M31,30.5c0,0.275-0.224,0.5-0.5,0.5h-29
		C1.224,31,1,30.775,1,30.5v-11C1,19.225,1.224,19,1.5,19H31V30.5z"/>
</g>
</svg>
