<?xml version="1.0" encoding="utf-8"?>
<!-- Generator: Adobe Illustrator 18.0.0, SVG Export Plug-In . SVG Version: 6.00 Build 0)  -->
<!DOCTYPE svg PUBLIC "-//W3C//DTD SVG 1.1//EN" "http://www.w3.org/Graphics/SVG/1.1/DTD/svg11.dtd">
<svg version="1.1" id="Layer_1" xmlns="http://www.w3.org/2000/svg" xmlns:xlink="http://www.w3.org/1999/xlink" x="0px" y="0px"
	 width="28px" height="32px" viewBox="0 0 28 32" enable-background="new 0 0 28 32" xml:space="preserve">
<g>
	<path fill="#808184" d="M12.926,32c6.675,0,12.334-5.194,12.883-11.825c0.023-0.275-0.182-0.517-0.457-0.54
		c-0.254-0.019-0.516,0.182-0.539,0.457C24.306,26.208,19.084,31,12.926,31C6.35,31,1,25.662,1,19.1
		c0-4.816,2.879-9.129,7.334-10.988c0.255-0.106,0.375-0.399,0.27-0.654C8.496,7.203,8.201,7.083,7.949,7.189
		C3.12,9.204,0,13.879,0,19.1C0,26.213,5.799,32,12.926,32z"/>
	<path fill="#808184" d="M24.803,18.107c0.021,0.262,0.24,0.459,0.497,0.459c0.014,0,0.027,0,0.042-0.001
		c0.274-0.022,0.479-0.264,0.457-0.539c-0.393-4.815-3.419-8.967-7.896-10.837c-0.252-0.107-0.547,0.014-0.653,0.269
		s0.014,0.548,0.269,0.654C21.648,9.837,24.44,13.667,24.803,18.107z"/>
	<path fill="#808184" d="M8.938,1h8c0.275,0,0.5,0.224,0.5,0.5v2c0,0.276-0.225,0.5-0.5,0.5h-1c-0.827,0-1.5,0.673-1.5,1.5V9
		c0,0.276,0.224,0.5,0.5,0.5s0.5-0.224,0.5-0.5V5.5c0-0.276,0.225-0.5,0.5-0.5h1c0.827,0,1.5-0.673,1.5-1.5v-2
		c0-0.827-0.673-1.5-1.5-1.5h-8c-0.827,0-1.5,0.673-1.5,1.5v2c0,0.827,0.673,1.5,1.5,1.5h1c0.275,0,0.5,0.224,0.5,0.5V9
		c0,0.276,0.224,0.5,0.5,0.5s0.5-0.224,0.5-0.5V5.5c0-0.827-0.673-1.5-1.5-1.5h-1c-0.275,0-0.5-0.224-0.5-0.5v-2
		C8.438,1.224,8.662,1,8.938,1z"/>
	<path fill="#808184" d="M24.218,2.819c-0.195,0.195-0.195,0.512,0,0.707l1.11,1.108l-2.751,2.746c-0.195,0.195-0.195,0.512,0,0.707
		c0.098,0.098,0.226,0.147,0.354,0.147s0.256-0.049,0.354-0.146l2.753-2.747l1.111,1.108c0.098,0.097,0.226,0.146,0.354,0.146
		c0.128,0,0.256-0.049,0.354-0.147c0.195-0.195,0.195-0.512,0-0.707l-2.929-2.923C24.73,2.624,24.413,2.623,24.218,2.819z"/>
	<path fill="#808184" d="M13.938,20h6.5c0.276,0,0.5-0.224,0.5-0.5s-0.224-0.5-0.5-0.5h-6.5c-0.275,0-0.5-0.224-0.5-0.5V11
		c0-0.276-0.224-0.5-0.5-0.5s-0.5,0.224-0.5,0.5v7.5C12.438,19.327,13.11,20,13.938,20z"/>
</g>
</svg>
