<?xml version="1.0" encoding="utf-8"?>
<!-- Generator: Adobe Illustrator 18.0.0, SVG Export Plug-In . SVG Version: 6.00 Build 0)  -->
<!DOCTYPE svg PUBLIC "-//W3C//DTD SVG 1.1//EN" "http://www.w3.org/Graphics/SVG/1.1/DTD/svg11.dtd">
<svg version="1.1" id="Layer_1" xmlns="http://www.w3.org/2000/svg" xmlns:xlink="http://www.w3.org/1999/xlink" x="0px" y="0px"
	 width="24px" height="32px" viewBox="0 0 24 32" enable-background="new 0 0 24 32" xml:space="preserve">
<g>
	<path fill="#808184" d="M1.5,32h21c0.827,0,1.5-0.673,1.5-1.5v-29C24,0.673,23.327,0,22.5,0h-21C0.673,0,0,0.673,0,1.5v29
		C0,31.327,0.673,32,1.5,32z M1,1.5C1,1.224,1.224,1,1.5,1h21C22.776,1,23,1.224,23,1.5v29c0,0.276-0.224,0.5-0.5,0.5h-21
		C1.224,31,1,30.776,1,30.5V1.5z"/>
	<path fill="#808184" d="M12,24.339c-1.103,0-2,0.897-2,2s0.897,2,2,2s2-0.897,2-2S13.103,24.339,12,24.339z M12,27.339
		c-0.551,0-1-0.449-1-1s0.449-1,1-1s1,0.449,1,1S12.551,27.339,12,27.339z"/>
	<path fill="#808184" d="M10,5h4c0.276,0,0.5-0.224,0.5-0.5S14.276,4,14,4h-4C9.724,4,9.5,4.224,9.5,4.5S9.724,5,10,5z"/>
</g>
</svg>
