<?xml version="1.0" encoding="utf-8"?>
<!-- Generator: Adobe Illustrator 18.0.0, SVG Export Plug-In . SVG Version: 6.00 Build 0)  -->
<!DOCTYPE svg PUBLIC "-//W3C//DTD SVG 1.1//EN" "http://www.w3.org/Graphics/SVG/1.1/DTD/svg11.dtd">
<svg version="1.1" id="Layer_1" xmlns="http://www.w3.org/2000/svg" xmlns:xlink="http://www.w3.org/1999/xlink" x="0px" y="0px"
	 width="31px" height="32px" viewBox="0 0 31 32" enable-background="new 0 0 31 32" xml:space="preserve">
<g>
	<path fill="#808184" d="M23,4.5c-0.276,0-0.5,0.224-0.5,0.5v3.229l-2.295,2.26c-2.146-2.006-5.017-3.244-8.179-3.244
		c-6.617,0-12,5.383-12,12c0,3.531,1.542,6.7,3.977,8.898l-2.355,3.024c-0.17,0.218-0.131,0.532,0.087,0.702
		c0.092,0.071,0.2,0.105,0.308,0.105c0.148,0,0.296-0.066,0.395-0.193l2.335-2.999c2.017,1.538,4.527,2.463,7.254,2.463
		c2.724,0,5.231-0.923,7.247-2.458l2.271,3.013C21.642,31.931,21.791,32,21.942,32c0.105,0,0.211-0.033,0.301-0.101
		c0.221-0.167,0.265-0.48,0.099-0.7l-2.299-3.051c2.438-2.198,3.982-5.37,3.982-8.903c0-3.096-1.188-5.912-3.12-8.043L23.143,9H26.5
		C26.776,9,27,8.776,27,8.5S26.776,8,26.5,8h-2.342l1.016-1H28.5C28.776,7,29,6.776,29,6.5S28.776,6,28.5,6h-2.311l1.016-1H30.5
		C30.776,5,31,4.776,31,4.5S30.776,4,30.5,4h-3V1c0-0.276-0.224-0.5-0.5-0.5S26.5,0.724,26.5,1v3.291l-1,0.985V3
		c0-0.276-0.224-0.5-0.5-0.5S24.5,2.724,24.5,3v3.26l-1,0.985V5C23.5,4.724,23.276,4.5,23,4.5z M23.025,19.246
		c0,6.065-4.935,11-11,11s-11-4.935-11-11s4.935-11,11-11c2.883,0,5.503,1.124,7.467,2.946l-2.137,2.105
		c-1.417-1.27-3.281-2.051-5.329-2.051c-4.411,0-8,3.589-8,8s3.589,8,8,8s8-3.589,8-8c0-2.004-0.746-3.833-1.968-5.238l2.136-2.103
		C21.948,13.854,23.025,16.423,23.025,19.246z M15.025,19.246c0,1.654-1.346,3-3,3s-3-1.346-3-3s1.346-3,3-3
		c0.655,0,1.257,0.217,1.751,0.574l-2.101,2.069c-0.197,0.194-0.199,0.511-0.006,0.707c0.098,0.1,0.228,0.149,0.356,0.149
		c0.127,0,0.254-0.048,0.351-0.144l2.104-2.072C14.821,18.017,15.025,18.607,15.025,19.246z M14.489,16.118
		c-0.681-0.538-1.53-0.873-2.463-0.873c-2.206,0-4,1.794-4,4s1.794,4,4,4s4-1.794,4-4c0-0.911-0.318-1.743-0.834-2.416l2.154-2.121
		c1.045,1.223,1.68,2.806,1.68,4.537c0,3.86-3.141,7-7,7s-7-3.14-7-7s3.141-7,7-7c1.769,0,3.383,0.665,4.617,1.752L14.489,16.118z"
		/>
</g>
</svg>
