<?xml version="1.0" encoding="utf-8"?>
<!-- Generator: Adobe Illustrator 18.0.0, SVG Export Plug-In . SVG Version: 6.00 Build 0)  -->
<!DOCTYPE svg PUBLIC "-//W3C//DTD SVG 1.1//EN" "http://www.w3.org/Graphics/SVG/1.1/DTD/svg11.dtd">
<svg version="1.1" id="Layer_1" xmlns="http://www.w3.org/2000/svg" xmlns:xlink="http://www.w3.org/1999/xlink" x="0px" y="0px"
	 width="32px" height="32px" viewBox="0 0 32 32" enable-background="new 0 0 32 32" xml:space="preserve">
<g>
	<path fill="#808184" d="M16-0.035C7.159-0.035-0.035,7.159-0.035,16S7.159,32.035,16,32.035S32.035,24.841,32.035,16
		S24.841-0.035,16-0.035z M16,30.965C7.748,30.965,1.035,24.252,1.035,16S7.748,1.035,16,1.035S30.965,7.748,30.965,16
		S24.252,30.965,16,30.965z"/>
	<path fill="#808184" d="M20.5,12H17V8.5C17,8.224,16.776,8,16.5,8h-2.581c-0.256,0-0.471,0.194-0.498,0.449
		c-0.092,0.907-0.25,1.354-0.509,1.863c-0.238,0.47-0.56,0.88-0.979,1.238c-0.407,0.346-0.675,0.575-1.533,0.75
		c-0.233,0.047-0.4,0.252-0.4,0.49V15.5c0,0.276,0.224,0.5,0.5,0.5H12v4.667c0,0.693,0.071,0.895,0.207,1.218l0.059,0.143
		c0.005,0.013,0.513,1.268,1.113,1.785c0.447,0.384,0.988,0.682,1.608,0.886C15.583,24.894,16.059,25,16.868,25
		c0.678,0,1.321-0.07,1.913-0.207c0.1-0.023,0.224-0.049,0.359-0.077c0.998-0.204,1.86-0.38,1.86-1.049v-2.406
		c0-0.175-0.092-0.337-0.242-0.428c-0.15-0.09-0.336-0.096-0.491-0.014c-0.981,0.517-1.172,0.576-1.857,0.576
		c-0.366,0-0.679-0.081-0.961-0.25C17.344,21.083,17,20.684,17,18.159V16h3.5c0.276,0,0.5-0.224,0.5-0.5v-3
		C21,12.224,20.776,12,20.5,12z M20,15h-3.5c-0.276,0-0.5,0.224-0.5,0.5v2.659c0,2.733,0.376,3.515,0.938,3.846
		c0.432,0.259,0.927,0.39,1.472,0.39c0.662,0,1.035-0.074,1.59-0.325v1.399c-0.253,0.102-0.803,0.215-1.06,0.268
		c-0.147,0.03-0.281,0.057-0.387,0.083C18.037,23.938,17.469,24,16.868,24c-0.679,0-1.061-0.084-1.569-0.251
		c-0.495-0.163-0.921-0.396-1.268-0.694c-0.288-0.248-0.669-0.981-0.836-1.397l-0.066-0.16C13.033,21.269,13,21.191,13,20.667V15.5
		c0-0.276-0.224-0.5-0.5-0.5H11v-1.814c0.817-0.223,1.178-0.531,1.603-0.893c0.5-0.425,0.904-0.939,1.202-1.528
		c0.253-0.497,0.44-0.986,0.556-1.765H16v3.5c0,0.276,0.224,0.5,0.5,0.5H20V15z"/>
</g>
</svg>
