<?xml version="1.0" encoding="utf-8"?>
<!-- Generator: Adobe Illustrator 18.0.0, SVG Export Plug-In . SVG Version: 6.00 Build 0)  -->
<!DOCTYPE svg PUBLIC "-//W3C//DTD SVG 1.1//EN" "http://www.w3.org/Graphics/SVG/1.1/DTD/svg11.dtd">
<svg version="1.1" id="Layer_1" xmlns="http://www.w3.org/2000/svg" xmlns:xlink="http://www.w3.org/1999/xlink" x="0px" y="0px"
	 width="32px" height="32px" viewBox="0 0 32 32" enable-background="new 0 0 32 32" xml:space="preserve">
<g>
	<path fill="#808184" d="M16-0.035C7.158-0.035-0.034,7.159-0.034,16S7.158,32.035,16,32.035S32.034,24.841,32.034,16
		S24.842-0.035,16-0.035z M16,30.965C7.748,30.965,1.034,24.252,1.034,16S7.748,1.035,16,1.035S30.966,7.748,30.966,16
		S24.252,30.965,16,30.965z"/>
	<path fill="#808184" d="M13.432,7.54l-6,0.823C7.185,8.396,7,8.608,7,8.858V14.5C7,14.776,7.224,15,7.5,15h6
		c0.276,0,0.5-0.224,0.5-0.5V8.035c0-0.145-0.062-0.282-0.171-0.377C13.721,7.563,13.58,7.517,13.432,7.54z M13,14H8V9.294l5-0.686
		V14z"/>
	<path fill="#808184" d="M13.5,16h-6C7.224,16,7,16.224,7,16.5v5.368c0,0.25,0.186,0.462,0.434,0.496l6,0.809
		c0.021,0.003,0.044,0.004,0.066,0.004c0.12,0,0.237-0.043,0.329-0.124C13.938,22.958,14,22.821,14,22.677V16.5
		C14,16.224,13.776,16,13.5,16z M13,22.105l-5-0.674V17h5V22.105z"/>
	<path fill="#808184" d="M23.5,16h-8c-0.276,0-0.5,0.224-0.5,0.5v6.272c0,0.25,0.186,0.462,0.434,0.496l8,1.073
		c0.022,0.003,0.044,0.004,0.066,0.004c0.12,0,0.237-0.043,0.329-0.124C23.938,24.127,24,23.99,24,23.846V16.5
		C24,16.224,23.776,16,23.5,16z M23,23.274l-7-0.939V17h7V23.274z"/>
	<path fill="#808184" d="M23.433,6.35l-8,1.092C15.185,7.477,15,7.688,15,7.938V14.5c0,0.276,0.224,0.5,0.5,0.5h8
		c0.276,0,0.5-0.224,0.5-0.5V6.846c0-0.145-0.062-0.282-0.171-0.377C23.72,6.374,23.576,6.333,23.433,6.35z M23,14h-7V8.375l7-0.956
		V14z"/>
</g>
</svg>
