<?xml version="1.0" encoding="utf-8"?>
<!-- Generator: Adobe Illustrator 18.0.0, SVG Export Plug-In . SVG Version: 6.00 Build 0)  -->
<!DOCTYPE svg PUBLIC "-//W3C//DTD SVG 1.1//EN" "http://www.w3.org/Graphics/SVG/1.1/DTD/svg11.dtd">
<svg version="1.1" id="Layer_1" xmlns="http://www.w3.org/2000/svg" xmlns:xlink="http://www.w3.org/1999/xlink" x="0px" y="0px"
	 width="27px" height="32px" viewBox="0 0 27 32" enable-background="new 0 0 27 32" xml:space="preserve">
<g>
	<path fill="#808184" d="M26.915,0.938C26.685,0.368,26.139,0,25.524,0H6.25C6.206,0,6.163,0.006,6.122,0.017
		C6.081,0.006,6.038,0,5.995,0H1.521c-0.612,0-1.141,0.35-1.38,0.914c-0.24,0.563-0.125,1.187,0.298,1.625L12.5,15.218V29h-2
		c-0.276,0-0.5,0.224-0.5,0.5s0.224,0.5,0.5,0.5h5c0.276,0,0.5-0.224,0.5-0.5S15.776,29,15.5,29h-2V15.195L26.566,2.579
		C27.009,2.152,27.146,1.508,26.915,0.938z M25.871,1.86L12.997,14.29L1.162,1.848C0.948,1.626,1.031,1.376,1.062,1.305
		S1.215,1,1.521,1h4.28l4.052,3.673c0.205,0.186,0.521,0.171,0.706-0.034s0.17-0.521-0.034-0.706L7.291,1h18.233
		c0.313,0,0.434,0.239,0.464,0.312C26.018,1.386,26.097,1.643,25.871,1.86z"/>
	<path fill="#808184" d="M8.5,31C8.224,31,8,31.224,8,31.5S8.224,32,8.5,32h9c0.276,0,0.5-0.224,0.5-0.5S17.776,31,17.5,31H8.5z"/>
</g>
</svg>
